<svg xmlns="http://www.w3.org/2000/svg" width="192" height="144" viewBox="0 0 192 144" version="1.1">
	<path d="M 104 17.411 C 104 18.187, 102.681 19.932, 101.070 21.288 C 98.246 23.664, 98.167 23.961, 98.913 29.456 C 99.632 34.754, 99.521 35.268, 97.352 36.689 C 95.997 37.577, 95.324 38.697, 95.749 39.359 C 96.152 39.987, 96.589 53.775, 96.720 70 C 96.852 86.225, 97.111 100.649, 97.297 102.054 C 97.802 105.868, 102.805 111, 106.016 111 C 110.198 111, 114.751 112.941, 115.276 114.948 C 115.632 116.308, 116.418 116.643, 118.376 116.268 C 121.665 115.640, 121.763 114.230, 118.572 113.429 C 115.749 112.720, 114.766 110.782, 115.581 107.533 C 116.003 105.852, 115.544 104.794, 113.890 103.636 C 111.377 101.875, 111.371 101.890, 115.250 100.224 C 118.519 98.820, 118.782 96.764, 115.935 94.872 C 114.339 93.812, 113.766 92.136, 113.414 87.500 C 113.163 84.200, 112.746 80.535, 112.487 79.356 C 112.130 77.732, 112.593 77.068, 114.397 76.615 C 115.707 76.286, 117.066 75.270, 117.417 74.356 C 118.081 72.625, 116.446 66.391, 114.774 64.282 C 111.685 60.385, 107.174 51.711, 107.625 50.535 C 108.568 48.077, 110.721 48.094, 112.879 50.575 C 115.215 53.263, 116.219 53.488, 119.066 51.965 C 121.841 50.479, 121.465 47.336, 118.329 45.805 C 116.750 45.033, 115.188 43.094, 114.510 41.060 C 113.879 39.169, 112.896 37.465, 112.326 37.275 C 111.757 37.086, 111.430 35.933, 111.599 34.715 C 112.695 26.849, 112.673 23, 111.532 23 C 109.825 23, 107 19.679, 107 17.671 C 107 16.752, 106.325 16, 105.500 16 C 104.675 16, 104 16.635, 104 17.411 M 166.063 18.100 C 166.029 19.530, 164.686 22.514, 163.080 24.730 C 161.475 26.947, 160.517 29.152, 160.951 29.630 C 162.085 30.877, 163.072 41, 162.060 41 C 160.213 41, 160.223 44.080, 162.084 48.979 C 163.160 51.810, 163.705 54.660, 163.296 55.313 C 162.887 55.966, 162.514 56.950, 162.466 57.500 C 162.322 59.153, 155.911 72.294, 153.789 75.285 C 151.416 78.631, 151.961 80.502, 155.976 82.787 C 159.017 84.517, 160.093 88.207, 157.943 89.535 C 155.937 90.775, 151.621 101.512, 151.583 105.357 C 151.545 109.236, 152.321 110.305, 157.855 114 C 159.579 115.151, 160.235 116.792, 160.670 121.048 L 161.238 126.596 168.022 128.798 C 171.754 130.009, 175.525 131, 176.403 131 C 179.757 131, 177.771 129.339, 172.250 127.528 C 165.146 125.196, 164.852 125.048, 165.452 124.077 C 166.189 122.886, 176.700 124.814, 181.575 127.034 C 187.834 129.886, 192 129.434, 192 125.904 C 192 124.539, 189.686 122.880, 183.579 119.867 C 175.516 115.888, 175.199 115.606, 176.112 113.205 C 176.880 111.184, 176.647 110.253, 174.907 108.401 C 173.720 107.138, 171.429 105.814, 169.815 105.459 C 167.127 104.869, 166.938 104.552, 167.555 101.658 C 167.925 99.921, 168.852 96.983, 169.614 95.128 C 170.376 93.273, 171 90.261, 171 88.434 C 171 85.784, 171.621 84.748, 174.077 83.307 L 177.154 81.500 176.458 73.577 C 176.075 69.220, 175.394 64.374, 174.945 62.809 C 174.352 60.739, 174.680 58.716, 176.151 55.393 C 177.365 52.648, 177.930 49.859, 177.567 48.411 C 176.834 45.492, 177.975 45.375, 183.500 47.799 C 189.426 50.400, 192 49.683, 192 45.430 C 192 43.356, 191.506 41.998, 190.750 41.994 C 190.063 41.991, 187.797 41.516, 185.715 40.938 L 181.930 39.887 185.965 35.303 C 191.646 28.848, 190.994 27.390, 185.239 33.678 C 181.536 37.724, 179.953 38.781, 178 38.511 C 176.625 38.322, 175.156 38.129, 174.737 38.083 C 174.317 38.038, 174.593 36.517, 175.350 34.704 C 176.618 31.670, 177.356 22.310, 176.240 23.427 C 175.252 24.415, 167.873 19.838, 167.014 17.705 C 166.156 15.574, 166.125 15.587, 166.063 18.100 M 43.422 20.834 C 42.915 21.200, 42.455 22.063, 42.400 22.750 C 42.345 23.438, 42.232 24.413, 42.150 24.918 C 42.068 25.424, 40.392 26.831, 38.427 28.045 C 35.882 29.618, 35.163 30.563, 35.927 31.327 C 36.517 31.917, 37 33.660, 37 35.200 C 37 36.740, 37.461 38, 38.025 38 C 39.641 38, 41.265 43.135, 40.037 44.363 C 39.467 44.933, 39 47.116, 39 49.214 C 39 52.848, 38.754 53.138, 33.750 55.383 C 25.595 59.042, 23.612 59.270, 20.593 56.895 C 17.995 54.851, 17.803 54.843, 10.492 56.470 C 2.758 58.190, 1.627 58.864, 2.530 61.217 C 3.162 62.864, 37.923 81, 40.448 81 C 41.910 81, 42.072 81.616, 41.499 85.003 C 40.859 88.797, 41.064 89.240, 45.412 93.466 C 47.935 95.919, 50 98.382, 50 98.940 C 50 99.497, 48.875 100.691, 47.500 101.592 C 46.125 102.493, 45 103.765, 45 104.419 C 45 106.052, 39.114 111.366, 35.703 112.813 C 31.588 114.559, 30.269 114.317, 25.597 110.963 L 21.368 107.925 14.010 110.733 C 9.964 112.277, 6.535 113.981, 6.391 114.520 C 6.247 115.059, 13.744 121.912, 23.050 129.750 C 34.831 139.671, 40.722 144, 42.442 144 C 43.800 144, 47.294 142.641, 50.206 140.981 C 53.118 139.320, 56.097 137.633, 56.827 137.231 C 59.268 135.886, 58.537 134.661, 53.002 130.823 C 49.978 128.726, 47.384 126.651, 47.237 126.211 C 47.091 125.772, 48.539 124.845, 50.455 124.152 C 52.371 123.459, 54.755 121.904, 55.751 120.696 C 56.748 119.488, 59.319 117.600, 61.464 116.500 C 66.509 113.914, 66.830 112.578, 63.219 109.204 C 61.592 107.684, 59.122 103.979, 57.730 100.970 C 56.339 97.962, 54.254 94.505, 53.098 93.289 C 51.066 91.153, 51.052 90.959, 52.689 87.526 C 54.015 84.746, 55.265 83.738, 58.441 82.889 C 60.674 82.293, 63.053 81.351, 63.729 80.797 C 65.203 79.589, 64.757 78.631, 57.774 68 C 53.156 60.968, 52.868 60.153, 53.166 54.944 C 53.397 50.928, 53.002 48.652, 51.742 46.730 C 49.611 43.477, 49.582 43, 51.515 43 C 52.754 43, 52.965 41.778, 52.673 36.310 C 52.368 30.608, 51.996 29.478, 50.158 28.657 C 48.971 28.128, 48 27.047, 48 26.255 C 48 24.178, 44.512 20.048, 43.422 20.834 M 35.727 59.209 C 30.612 61.423, 29.681 62.638, 33.250 62.443 C 37.885 62.190, 42 60.796, 42 59.480 C 42 57.151, 40.619 57.091, 35.727 59.209 M 27.813 60.683 C 28.534 60.972, 29.397 60.936, 29.729 60.604 C 30.061 60.272, 29.471 60.036, 28.417 60.079 C 27.252 60.127, 27.015 60.364, 27.813 60.683 M 41.813 66.683 C 42.534 66.972, 43.397 66.936, 43.729 66.604 C 44.061 66.272, 43.471 66.036, 42.417 66.079 C 41.252 66.127, 41.015 66.364, 41.813 66.683 M 101.628 79.793 C 100.753 81.208, 100.086 89.439, 100.659 91.750 C 101.130 93.649, 101.889 94, 105.525 94 C 107.989 94, 110.005 93.486, 110.234 92.799 C 110.678 91.466, 109.222 81.169, 108.402 79.842 C 107.743 78.775, 102.282 78.735, 101.628 79.793 M 164.447 86.514 C 164.057 88.156, 162.738 90.850, 161.517 92.500 C 155.547 100.566, 154.771 106, 159.589 106 C 162.540 106, 163.400 104.238, 165.417 94.064 C 166.304 89.593, 166.546 86.011, 166.024 85.078 C 165.339 83.855, 165.007 84.158, 164.447 86.514 M 37.250 114.491 C 33.257 116.226, 33.188 117.089, 36.866 119.262 C 39.577 120.863, 39.819 120.857, 41.366 119.148 C 43.291 117.021, 43.545 112.983, 41.750 113.039 C 41.063 113.061, 39.038 113.714, 37.250 114.491" stroke="none" fill="black" fill-rule="evenodd"/>
</svg>