<svg xmlns="http://www.w3.org/2000/svg" width="192" height="144" viewBox="0 0 192 144" version="1.1">
	<path d="M 0 72 L 0 144 41.941 144 C 74.408 144, 84.059 143.718, 84.667 142.750 C 85.944 140.718, 85.074 118.704, 83.475 112.564 C 81.154 103.654, 81.590 98.390, 85.465 88.519 C 87.370 83.666, 88.679 79.290, 88.374 78.796 C 87.778 77.831, 91.805 73.710, 95.032 71.983 C 96.489 71.203, 97 69.884, 97 66.906 C 97 64.693, 96.596 63.132, 96.102 63.437 C 94.645 64.337, 88.753 54.353, 89.448 52.162 C 89.868 50.840, 89.506 50.102, 88.278 49.776 C 85.433 49.020, 81.881 41.443, 82.996 38.509 C 85.092 32.999, 89.297 28.081, 93.673 26.024 C 99.317 23.371, 109.457 22.336, 114.261 23.921 C 118.776 25.411, 125.476 32.600, 127.052 37.645 C 127.732 39.822, 128.627 52.381, 129.109 66.500 C 129.578 80.250, 130.137 92.625, 130.353 94 C 130.568 95.375, 130.802 107.194, 130.872 120.264 L 131 144.029 161.750 143.764 L 192.500 143.500 192.757 71.750 L 193.013 0 96.507 0 L 0 0 0 72 M 0.474 72.500 C 0.474 112.100, 0.598 128.154, 0.750 108.176 C 0.901 88.198, 0.901 55.798, 0.750 36.176 C 0.598 16.554, 0.474 32.900, 0.474 72.500" stroke="none" fill="black" fill-rule="evenodd"/>
</svg>