<svg xmlns="http://www.w3.org/2000/svg" width="192" height="144" viewBox="0 0 192 144" version="1.1">
	<path d="M 42.425 8.336 C 41.520 10.290, 41.776 11.167, 44.046 13.886 C 46.258 16.536, 46.854 16.823, 47.366 15.489 C 47.775 14.422, 48.651 14.072, 49.911 14.472 C 52.451 15.278, 53.534 13.402, 51.271 12.117 C 49.739 11.247, 49.678 10.820, 50.819 8.958 C 52.496 6.222, 51.520 5.194, 48.837 6.870 C 47.350 7.798, 46.458 7.858, 45.682 7.082 C 44.133 5.533, 43.635 5.724, 42.425 8.336 M 97.635 24.507 C 96.615 25.528, 96.306 27.112, 96.679 29.412 C 96.983 31.280, 96.463 39.231, 95.525 47.081 C 94.020 59.682, 93.551 61.566, 91.521 63.162 C 90.257 64.157, 88.960 66.439, 88.640 68.235 C 86.741 78.893, 86.738 78.703, 88.825 80.165 C 90.840 81.576, 90.840 81.579, 88.384 96.038 C 87.033 103.992, 85.269 113.124, 84.464 116.331 C 83.659 119.538, 83 123, 83 124.024 C 83 125.048, 82.035 126.563, 80.855 127.389 C 79.399 128.409, 78.574 130.256, 78.286 133.145 C 78.052 135.485, 77.240 138.884, 76.481 140.700 L 75.102 144 121.051 144 L 167 144 167 140.749 C 167 138.960, 166.107 129.684, 165.015 120.135 L 163.031 102.772 165.515 89.319 C 169.010 70.396, 168.889 59.768, 165.047 48.475 C 163.423 43.700, 161.369 38.686, 160.483 37.334 C 158.032 33.593, 150.397 29.217, 144.122 27.957 C 141.030 27.336, 137.755 26.439, 136.845 25.965 C 133.841 24.398, 124.260 28.267, 118.250 33.474 C 114.450 36.766, 112.285 40.178, 115.100 38.438 C 115.899 37.944, 115.899 38.319, 115.100 39.814 C 113.210 43.345, 114.004 51.734, 116.105 50.435 C 116.597 50.131, 117 50.355, 117 50.933 C 117 51.510, 116.194 52.486, 115.210 53.101 C 113.707 54.040, 113.484 55.286, 113.824 60.860 C 114.263 68.047, 115.189 70, 118.160 70 C 119.789 70, 120.006 70.561, 119.614 73.750 C 118.972 78.961, 117.967 81.214, 115.370 83.270 C 114.140 84.243, 112.991 86.008, 112.817 87.192 C 112.643 88.375, 111.964 89.520, 111.309 89.735 C 109.645 90.283, 107.400 85.536, 105.549 77.555 C 104.684 73.827, 103.036 69.454, 101.885 67.839 C 99.801 64.911, 99.799 64.850, 101.477 49.914 C 102.403 41.672, 103.574 33.484, 104.080 31.720 C 105.336 27.342, 105.249 26.392, 103.429 24.571 C 101.452 22.595, 99.569 22.574, 97.635 24.507 M 96.545 87.137 C 95.715 89.503, 91.170 117.269, 90.731 122.656 C 90.320 127.710, 90.371 127.824, 93.316 128.413 C 94.968 128.744, 96.475 128.859, 96.665 128.669 C 96.854 128.479, 96.557 125.939, 96.005 123.025 C 95.452 120.111, 95 114.514, 95 110.586 C 95 102.433, 96.656 99, 100.588 99 C 104.006 99, 104.495 96.890, 102.143 92.280 C 99.638 87.369, 97.238 85.165, 96.545 87.137" stroke="none" fill="black" fill-rule="evenodd"/>
</svg>