<svg xmlns="http://www.w3.org/2000/svg" width="192" height="144" viewBox="0 0 192 144" version="1.1">
	<path d="M 98 1.550 C 98 3.430, 100.668 8.846, 102.781 11.256 C 103.628 12.222, 104.136 13.122, 103.911 13.256 C 103.685 13.390, 101.891 14.316, 99.924 15.314 C 95.180 17.720, 88.300 24.491, 85.981 29.037 C 84.954 31.050, 83.444 35.578, 82.626 39.098 C 81.807 42.619, 80.797 46.400, 80.381 47.500 C 79.746 49.183, 79.862 49.308, 81.116 48.291 C 82.379 47.267, 82.621 47.600, 82.702 50.475 C 82.808 54.204, 84.605 56.564, 90.262 60.403 C 93.441 62.560, 94 62.687, 94 61.247 C 94 59.889, 94.309 59.996, 95.566 61.791 C 96.990 63.824, 96.987 64.320, 95.527 67.247 C 93.962 70.384, 93.986 70.514, 96.460 72.317 C 97.857 73.334, 99 74.627, 99 75.189 C 99 75.752, 100.125 77.097, 101.500 78.179 C 103.732 79.934, 104 80.880, 104 86.989 C 104 90.753, 104.384 93.983, 104.854 94.167 C 106.374 94.760, 108.936 108.363, 107.789 109.750 C 106.090 111.805, 104.545 111.218, 99.890 106.750 C 93.460 100.579, 92 97.838, 92 91.936 C 92 81.882, 87.281 77.269, 78.460 78.700 C 75.698 79.148, 75 78.933, 75 77.631 C 75 76.734, 74.550 76, 74 76 C 73.450 76, 73 76.894, 73 77.987 C 73 79.288, 71.865 80.448, 69.710 81.348 C 67.901 82.104, 65.663 83.480, 64.737 84.406 C 58.165 90.978, 62.590 108.842, 71.736 112.663 C 73.628 113.454, 74.977 114.640, 74.733 115.300 C 72.348 121.775, 71.091 127.897, 70.637 135.250 L 70.097 144 123.114 144 C 174.989 144, 183.130 143.553, 178.893 140.934 C 177.797 140.257, 177.770 139.830, 178.758 138.842 C 179.441 138.159, 180 137.240, 180 136.800 C 180 135.255, 177.348 136.028, 172.839 138.887 C 166.110 143.155, 164.385 143.506, 163.553 140.778 C 163.170 139.525, 162.655 137.048, 162.408 135.273 C 162.160 133.499, 160.643 126.986, 159.035 120.801 C 157.427 114.615, 156.232 109.435, 156.378 109.288 C 156.525 109.142, 157.629 110.774, 158.832 112.915 C 160.510 115.900, 161.484 116.686, 163.010 116.287 C 165.577 115.616, 165.560 113.365, 162.974 111.758 C 160.996 110.530, 159.864 107.445, 158.531 99.652 C 157.799 95.374, 159.418 95.339, 161.037 99.597 C 161.539 100.919, 162.460 102, 163.082 102 C 163.707 102, 163.940 101.286, 163.603 100.407 C 163.267 99.531, 162.723 97.619, 162.394 96.157 C 161.914 94.017, 162.522 94.472, 165.521 98.500 C 169.182 103.416, 169.671 102.838, 167.350 96.343 C 166.878 95.023, 167.586 95.333, 169.846 97.437 C 172.674 100.071, 173 100.169, 173 98.387 C 173 97.294, 172.610 95.973, 172.134 95.450 C 171.164 94.386, 169.348 80.902, 168.438 68 C 167.602 56.159, 165.467 45.084, 162.397 36.664 C 160.960 32.724, 158.568 26.075, 157.083 21.889 C 154.030 13.287, 151.265 9.384, 145.550 5.609 C 141.227 2.754, 138.055 2.387, 132.982 4.156 C 129.931 5.220, 129.482 5.100, 127.381 2.656 C 125.117 0.024, 124.971 0, 111.548 0 C 99.979 0, 98 0.226, 98 1.550 M 115.481 82.190 C 115.150 83.050, 115.020 85.840, 115.190 88.390 L 115.500 93.025 118.375 89.410 L 121.249 85.795 118.665 83.210 C 116.515 81.060, 115.980 80.889, 115.481 82.190 M 113.500 96 C 113.160 96.550, 113.359 97, 113.941 97 C 114.523 97, 115 96.550, 115 96 C 115 95.450, 114.802 95, 114.559 95 C 114.316 95, 113.840 95.450, 113.500 96" stroke="none" fill="black" fill-rule="evenodd"/>
</svg>