<svg xmlns="http://www.w3.org/2000/svg" width="192" height="144" viewBox="0 0 192 144" version="1.1">
	<path d="M 0 72 L 0 144 14.500 144 C 22.475 144, 29 143.633, 29 143.185 C 29 142.737, 30.575 141.619, 32.500 140.701 C 34.425 139.783, 36 138.567, 36 137.999 C 36 137.430, 39.987 131.686, 44.860 125.233 C 56.367 109.994, 59.463 104.853, 63.047 95.035 C 65.488 88.345, 66 85.404, 66 78.065 C 66 69.680, 65.889 69.216, 64 69.710 C 61.634 70.329, 61.626 70.223, 63.441 62.508 C 64.216 59.213, 64.771 56.513, 64.675 56.508 C 62.693 56.415, 59.747 52.850, 56.751 46.920 C 50.516 34.581, 51.729 32.536, 63.541 35.477 L 70.787 37.282 75.557 34.972 C 78.943 33.333, 82.429 32.593, 87.569 32.421 L 94.810 32.180 97.681 35.840 C 102.555 42.051, 104.700 49.831, 102 51.500 C 101.450 51.840, 100.999 53.329, 100.999 54.809 C 100.998 56.289, 99.847 58.838, 98.441 60.473 C 96.789 62.394, 96.076 64.164, 96.428 65.473 C 96.728 66.588, 96.979 68.041, 96.986 68.703 C 96.994 69.365, 99.099 70.953, 101.664 72.232 C 108.560 75.671, 109.957 78.174, 111.778 90.360 C 113.268 100.328, 113.607 101.255, 117.226 105.245 C 124.038 112.755, 124.341 113.416, 122.855 117.525 C 121.617 120.948, 121.682 121.251, 124.022 123.020 C 125.890 124.431, 126.217 125.176, 125.351 126.045 C 123.666 127.736, 120.481 126.351, 119.104 123.329 C 118.234 121.419, 117.603 120.997, 116.808 121.792 C 116.012 122.588, 116.094 125.719, 117.106 133.194 L 118.500 143.500 155.500 143.500 L 192.500 143.500 192.757 71.750 L 193.013 0 96.507 0 L 0 0 0 72 M 0.474 72.500 C 0.474 112.100, 0.598 128.154, 0.750 108.176 C 0.901 88.198, 0.901 55.798, 0.750 36.176 C 0.598 16.554, 0.474 32.900, 0.474 72.500 M 75.022 130.768 L 72.543 133.500 72.119 131 L 71.695 128.500 71.031 131 C 70.665 132.378, 69.724 133.401, 68.934 133.279 C 67.750 133.097, 61 141.783, 61 143.488 C 61 143.770, 64.129 144, 67.953 144 L 74.906 144 75.975 140.250 C 77.215 135.898, 78.450 127.992, 77.886 128.018 C 77.674 128.028, 76.385 129.266, 75.022 130.768 M 31.813 143.683 C 32.534 143.972, 33.397 143.936, 33.729 143.604 C 34.061 143.272, 33.471 143.036, 32.417 143.079 C 31.252 143.127, 31.015 143.364, 31.813 143.683" stroke="none" fill="black" fill-rule="evenodd"/>
</svg>