<svg xmlns="http://www.w3.org/2000/svg" width="192" height="144" viewBox="0 0 192 144" version="1.1">
	<path d="M -0 72.005 L -0 144.010 96.250 143.755 L 192.500 143.500 192.739 71.500 C 192.870 31.900, 192.625 0.052, 192.194 0.726 C 191.362 2.030, 176.663 1.996, 175.354 0.687 C 174.976 0.309, 135.367 0, 87.333 0 L 0 0 -0 72.005 M 0.474 72.500 C 0.474 112.100, 0.598 128.154, 0.750 108.176 C 0.901 88.198, 0.901 55.798, 0.750 36.176 C 0.598 16.554, 0.474 32.900, 0.474 72.500 M 186.500 47.026 C 184.141 48.126, 182.498 49.587, 182.495 50.589 C 182.489 52.540, 183.355 52.029, 166.943 59.774 L 154.386 65.700 150.225 62.817 C 147.936 61.231, 143.011 58.786, 139.282 57.382 C 135.552 55.978, 127.821 52.793, 122.102 50.303 C 109.890 44.986, 106.949 44.969, 98.380 50.162 C 85.376 58.043, 78.177 65.340, 75.897 72.951 C 74.730 76.844, 75.366 82.510, 76.865 81.584 C 77.308 81.310, 78.412 82.641, 79.319 84.543 C 81.471 89.056, 82.990 88.936, 83.039 84.250 L 83.078 80.500 84.464 83.685 C 85.226 85.437, 87.233 87.586, 88.925 88.461 C 92.305 90.209, 92.868 89.254, 90.546 85.710 C 88.633 82.790, 88.081 74.863, 89.750 74.274 C 90.438 74.032, 91 74.517, 91 75.352 C 91 76.187, 92.551 77.431, 94.447 78.117 C 98.090 79.434, 98.289 81, 94.812 81 C 92.843 81, 92.777 81.355, 93.456 88.250 C 93.849 92.237, 94.520 95.950, 94.947 96.500 C 96.513 98.516, 96.917 102.717, 95.899 106.405 C 95.324 108.485, 95.117 110.451, 95.439 110.772 C 96.544 111.877, 106.321 110.885, 109.249 109.371 C 111.936 107.982, 112.050 107.713, 110.628 106.141 C 107.312 102.478, 106.223 97.729, 106.639 88.750 C 107.021 80.501, 106.929 80, 105.022 80 C 102.856 80, 102.311 78.544, 104.070 77.456 C 104.659 77.093, 106.522 73.904, 108.210 70.370 C 109.898 66.837, 111.627 63.731, 112.052 63.468 C 112.478 63.205, 118.298 68.054, 124.987 74.245 C 140.212 88.336, 141.778 89.132, 153.500 88.749 C 160.741 88.512, 165.383 87.579, 177.246 83.977 L 191.993 79.500 191.996 62.250 C 191.998 52.763, 191.662 45.036, 191.250 45.081 C 190.838 45.125, 188.700 46.001, 186.500 47.026 M 96.690 65.750 C 96.455 66.162, 95.968 68.135, 95.608 70.134 C 94.852 74.329, 96.408 75.556, 100.509 73.997 C 103.422 72.889, 103.899 69.042, 101.429 66.571 C 99.765 64.907, 97.404 64.498, 96.690 65.750" stroke="none" fill="black" fill-rule="evenodd"/>
</svg>