<svg xmlns="http://www.w3.org/2000/svg" width="192" height="144" viewBox="0 0 192 144" version="1.1">
	<path d="M 13.507 3.958 C 13.139 6.135, 13.083 8.722, 13.381 9.708 C 13.679 10.694, 14.387 16.127, 14.954 21.782 C 15.948 31.701, 15.903 32.195, 13.669 35.782 C 10.355 41.104, 9.974 42.582, 11.411 44.547 C 12.599 46.172, 12.793 46.133, 14.303 43.977 L 15.922 41.666 17.017 44.544 C 18.701 48.974, 17.552 51.480, 13.021 53.260 C 8.263 55.129, 7.768 57, 12.031 57 C 13.840 57, 15.301 57.622, 15.654 58.542 C 15.980 59.390, 17.059 59.953, 18.053 59.792 C 19.046 59.631, 21.196 60.779, 22.831 62.342 C 27.374 66.688, 29.440 65.677, 29.578 59.041 C 29.640 56.050, 30.188 53.437, 30.795 53.235 C 31.403 53.032, 33.085 51.934, 34.534 50.795 C 37.363 48.569, 36.419 46.816, 32.889 47.739 C 30.472 48.371, 30.501 46.923, 32.998 42.265 C 37.407 34.039, 36.401 27.421, 30.867 28.233 C 29.242 28.471, 27.688 28.305, 27.415 27.863 C 26.568 26.493, 29.792 21.308, 35.397 15.027 C 39.906 9.974, 42.758 4.449, 41.511 3.183 C 40.356 2.009, 28.206 0.065, 21.838 0.036 L 14.176 0 13.507 3.958 M 96 72 L 96 144 129.422 144 L 162.845 144 163.889 140.750 C 165.466 135.842, 166.994 121.616, 166.046 120.657 C 165.588 120.193, 164.027 120.592, 162.576 121.542 C 161.125 122.493, 159.686 123.020, 159.380 122.713 C 159.073 122.406, 158.790 120.079, 158.752 117.542 C 158.698 113.946, 158.331 112.965, 157.091 113.094 C 153.879 113.429, 149.093 111.725, 148.780 110.135 C 148.187 107.122, 152.259 101.359, 156.614 99.049 C 160.469 97.004, 160.897 96.384, 161.505 91.963 C 162.207 86.859, 164.864 84, 168.906 84 C 169.993 84, 171.160 83.550, 171.500 83 C 174.326 78.428, 177.023 89.120, 174.349 94.292 C 172.966 96.967, 173.047 97.290, 175.945 100.591 C 177.625 102.504, 179 105.179, 179 106.535 C 179 107.891, 179.408 109, 179.906 109 C 180.405 109, 180.577 108.100, 180.290 107 C 179.491 103.945, 181.752 104.620, 183.474 107.950 C 185.893 112.627, 185.351 114.976, 180.868 119.240 L 176.737 123.170 179.381 131.835 C 180.835 136.601, 182.020 141.287, 182.013 142.250 C 182.002 143.685, 182.900 144, 187 144 L 192 144 192 72 L 192 0 144 0 L 96 0 96 72" stroke="none" fill="black" fill-rule="evenodd"/>
</svg>