<svg xmlns="http://www.w3.org/2000/svg" width="192" height="144" viewBox="0 0 192 144" version="1.1">
	<path d="M 0 38.500 C 0 59.675, 0.288 77, 0.639 77 C 0.991 77, 4.183 74.450, 7.733 71.333 L 14.188 65.666 17.844 66.951 C 20.995 68.058, 32.502 73.637, 42.500 78.905 C 45.478 80.473, 48.521 80.610, 63.624 79.856 L 70.747 79.500 74.733 74.458 C 77.069 71.502, 80.743 68.376, 83.609 66.905 C 87.391 64.964, 88.572 63.783, 88.816 61.697 C 89.035 59.838, 88.672 59, 87.650 59 C 86.834 59, 85.955 58.437, 85.697 57.750 C 85.422 57.017, 84.809 57.533, 84.214 59 C 83.303 61.246, 83.125 61.314, 82.461 59.666 C 81.903 58.282, 81.527 58.147, 80.930 59.114 C 80.387 59.991, 79.905 59.468, 79.400 57.458 C 78.605 54.289, 76.789 52, 75.071 52 C 74.482 52, 74 51.298, 74 50.441 C 74 49.584, 73.550 49.160, 73 49.500 C 72.450 49.840, 72 49.668, 72 49.118 C 72 48.568, 72.450 47.840, 73 47.500 C 75.027 46.247, 74.077 43.945, 71.750 44.471 C 70.295 44.801, 68.500 44.153, 66.669 42.638 L 63.838 40.296 67.919 37.064 C 71.993 33.838, 72 33.820, 72 26.876 C 72 21.848, 72.565 18.812, 74.040 15.921 C 77.215 9.699, 80.282 8.396, 93.646 7.597 C 104.490 6.949, 105.541 7.053, 109.871 9.202 C 112.882 10.697, 115.208 12.781, 116.525 15.166 C 118.077 17.977, 118.914 18.628, 120.114 17.956 C 121.110 17.399, 123.460 17.716, 126.589 18.833 C 131.064 20.429, 131.571 20.936, 132.300 24.542 C 132.740 26.719, 133.464 30.185, 133.909 32.244 C 134.501 34.982, 134.354 36.292, 133.360 37.117 C 131.611 38.568, 131.648 39.893, 133.595 45.627 C 135.731 51.918, 135.549 58.971, 133.108 64.488 C 130.749 69.821, 128.596 71.016, 126.125 68.364 C 123.548 65.598, 121 54.224, 121 45.485 C 121 37.628, 119.639 36.075, 118.425 42.546 C 118.014 44.739, 118.229 46.571, 119.009 47.511 C 120.023 48.733, 119.933 49, 118.506 49 C 117.247 49, 116.914 49.564, 117.300 51.041 C 117.714 52.621, 117.451 52.960, 116.136 52.543 C 115.103 52.215, 113.864 52.822, 112.969 54.095 C 112.161 55.246, 110.713 57.113, 109.750 58.246 C 108.788 59.379, 108 60.687, 108 61.153 C 108 61.619, 107.550 62, 107 62 C 106.450 62, 106 61.142, 106 60.094 C 106 58.702, 105.478 58.324, 104.068 58.693 C 102.707 59.048, 102.194 59.967, 102.335 61.799 C 102.490 63.813, 103.626 64.961, 107.374 66.890 C 110.295 68.393, 113.856 71.480, 116.357 74.678 C 120.268 79.681, 120.696 79.942, 124 79.358 C 125.925 79.018, 127.950 78.795, 128.500 78.862 C 129.050 78.929, 133.100 79.251, 137.500 79.578 C 145.296 80.158, 145.666 80.082, 152 76.597 C 155.575 74.629, 162.708 70.996, 167.851 68.521 L 177.201 64.023 183.837 70.011 C 187.486 73.305, 191.041 76, 191.736 76 C 192.732 76, 193 67.956, 193 38 L 193 0 96.500 0 L 0 0 0 38.500 M 0.454 39 C 0.454 60.175, 0.587 68.838, 0.749 58.250 C 0.911 47.663, 0.911 30.338, 0.749 19.750 C 0.587 9.163, 0.454 17.825, 0.454 39 M 171.668 72.097 C 168.795 73.623, 168.008 74.553, 168.521 75.816 C 171.238 82.507, 171.229 82.808, 168.011 92.467 C 166.268 97.699, 164.491 102.196, 164.063 102.461 C 163.634 102.726, 162.516 98.264, 161.577 92.546 C 160.023 83.072, 160.010 81.881, 161.436 79.124 C 162.296 77.461, 163 75.843, 163 75.529 C 163 74.778, 156.114 78.444, 153.253 80.718 L 151.006 82.504 153.017 86.570 L 155.028 90.635 151.957 100.317 C 150.267 105.643, 148.519 110, 148.072 110 C 147.318 110, 146.026 104.346, 144.492 94.341 C 144.054 91.479, 144.336 89.252, 145.396 87.201 C 146.909 84.276, 146.888 84.212, 144.254 83.708 C 142.778 83.426, 140.145 83.427, 138.403 83.709 C 135.330 84.208, 135.276 84.303, 136.611 86.862 C 137.368 88.313, 137.990 90.479, 137.994 91.674 C 138.003 94.997, 133.917 112, 133.109 112 C 132.279 112, 128 95.330, 128 92.096 C 128 90.889, 128.687 88.573, 129.526 86.950 L 131.051 84 127.695 84 C 123.504 84, 120.780 87.825, 123.035 90.542 C 124.151 91.886, 124.149 92.290, 123.027 92.983 C 121.918 93.669, 122.016 95.225, 123.592 101.912 L 125.500 110.010 133.500 113.074 C 142.640 116.574, 144.077 116.701, 153 114.798 C 156.575 114.035, 160.287 113.577, 161.250 113.779 C 163.637 114.280, 163.476 117, 161.059 117 C 158.682 117, 157.529 118.591, 159.171 119.606 C 161.969 121.335, 171.095 122.768, 174.467 122.007 C 181.024 120.529, 178.436 124.788, 170.290 128.883 C 165.349 131.367, 158.651 131.625, 153.270 129.538 C 151.197 128.734, 146.350 127.366, 142.500 126.500 C 130.990 123.909, 122.442 121.119, 120.305 119.255 C 119.198 118.290, 117.347 115.700, 116.190 113.500 C 114.269 109.844, 114.072 109.715, 113.893 112 C 113.341 119.081, 114.581 125.820, 118.170 135.245 L 121.500 143.989 157 143.745 L 192.500 143.500 192.610 121 C 192.670 108.625, 192.436 100.525, 192.089 103 C 191.464 107.462, 191.453 107.442, 190.830 100.569 C 190.149 93.066, 190.647 89.836, 192.124 92.166 C 192.656 93.006, 192.975 91.789, 192.985 88.883 C 192.999 84.611, 192.706 84.071, 189.068 81.664 L 185.136 79.061 185.702 82.553 C 186.115 85.096, 185.371 88.415, 182.964 94.772 C 181.146 99.573, 179.334 103.880, 178.936 104.344 C 178.305 105.080, 177.073 98.974, 175.434 87 C 175.061 84.272, 175.616 82.513, 177.951 79.025 C 180.595 75.074, 180.789 74.314, 179.603 72.525 C 177.787 69.785, 176.186 69.698, 171.668 72.097 M 12.537 73.584 C 10.906 76.073, 10.938 76.303, 13.422 79.888 C 14.840 81.934, 16 84.933, 16 86.554 C 16 89.876, 13.222 105.111, 12.481 105.852 C 11.709 106.624, 11.441 106.011, 8.021 95.651 C 5.337 87.521, 4.964 85.375, 5.885 83.354 C 7.500 79.809, 7.326 79.699, 4 82.158 L 1 84.376 1 114.188 L 1 144 35.750 143.984 L 70.500 143.967 73.869 135.234 C 76.525 128.350, 77.335 124.593, 77.692 117.500 L 78.146 108.500 74.899 113.371 C 70.780 119.549, 68.553 120.862, 54.759 125.244 C 34.390 131.714, 29.409 132.273, 22 128.919 C 17.605 126.929, 12 122.404, 12 120.844 C 12 120.414, 15.487 120.319, 19.750 120.633 C 27.447 121.199, 33 120.106, 33 118.025 C 33 117.461, 31.837 117, 30.417 117 C 28.797 117, 27.987 116.534, 28.245 115.750 C 28.940 113.639, 32.878 113.735, 39.890 116.034 L 46.592 118.231 51.796 115.992 C 54.767 114.714, 57 113.109, 57 112.251 C 57 111.424, 56.039 106.654, 54.865 101.652 C 52.729 92.556, 52.738 92.333, 55.484 85.750 C 56.109 84.252, 55.634 84, 52.189 84 C 46.156 84, 44.794 84.747, 46.165 87.308 C 46.785 88.467, 47.257 90.784, 47.214 92.458 C 47.108 96.537, 43.843 112, 43.088 112 C 42.376 112, 37.975 97.856, 37.287 93.356 C 37.004 91.506, 37.518 88.710, 38.537 86.564 C 40.199 83.062, 40.193 82.857, 38.384 81.436 C 36.307 79.803, 29.405 76, 28.520 76 C 28.211 76, 28.827 77.701, 29.887 79.779 C 31.787 83.503, 31.787 83.710, 29.917 93.936 C 28.873 99.644, 27.800 104.533, 27.533 104.800 C 26.973 105.361, 26.996 105.422, 23.209 93.461 C 20.663 85.420, 20.485 84.041, 21.598 80.961 C 23.529 75.615, 23.235 74.632, 19.147 72.750 C 14.346 70.540, 14.548 70.515, 12.537 73.584 M 60.806 84.528 C 60.516 84.818, 61.117 86.750, 62.141 88.821 C 63.987 92.552, 63.982 92.676, 61.550 102.008 C 60.200 107.190, 59.246 111.580, 59.430 111.763 C 60.144 112.477, 65.176 110.681, 65.432 109.621 C 68.862 95.394, 68.971 94.670, 67.886 93.363 C 67.040 92.343, 67.067 91.624, 67.996 90.505 C 68.996 89.300, 68.918 88.524, 67.595 86.505 C 66.106 84.232, 62.230 83.103, 60.806 84.528" stroke="none" fill="black" fill-rule="evenodd"/>
</svg>