<svg xmlns="http://www.w3.org/2000/svg" width="192" height="144" viewBox="0 0 192 144" version="1.1">
	<path d="M 0 70.345 C 0 137.224, 0.090 140.772, 1.829 142.345 C 3.481 143.840, 8.686 144, 55.829 144 C 84.523 144, 108 143.828, 108 143.618 C 108 143.407, 106.313 141.435, 104.250 139.235 C 98.249 132.833, 96.517 130.010, 93.162 121.165 C 90.254 113.500, 90 111.868, 90 100.883 C 90 87.606, 91.291 82.330, 97.608 69.786 C 99.529 65.971, 101.971 59.396, 103.035 55.175 C 105.115 46.920, 105.626 36.505, 104 35.500 C 103.450 35.160, 102.995 33.446, 102.989 31.691 C 102.970 26.164, 98.605 14.504, 95.309 11.179 C 94.589 10.452, 94 9.230, 94 8.463 C 94 7.697, 92.603 5.479, 90.896 3.535 L 87.793 0 43.896 0 L 0 0 0 70.345 M 190.638 1.500 C 191.375 3.421, 192 3.421, 192 1.500 C 192 0.675, 191.564 0, 191.031 0 C 190.499 0, 190.322 0.675, 190.638 1.500 M 42 31.316 C 29.815 37.068, 32.578 54.927, 45.930 56.717 C 48.836 57.107, 50.856 56.647, 54.001 54.879 C 59.085 52.022, 61 48.616, 61 42.432 C 61 38.344, 60.518 37.283, 57.118 33.882 C 53.755 30.519, 52.651 30.009, 48.868 30.068 C 46.465 30.105, 43.375 30.666, 42 31.316 M 135.718 86.676 C 132.001 88.632, 127.952 94.941, 127.301 99.789 C 126.264 107.523, 132.640 115.891, 140.174 116.684 C 150.341 117.754, 158.061 111.310, 158.796 101.137 C 159.149 96.261, 158.833 94.718, 156.871 91.724 C 155.580 89.755, 153.041 87.436, 151.228 86.572 C 147.194 84.648, 139.473 84.700, 135.718 86.676 M 189.500 142 C 188.505 143.100, 188.194 144, 188.810 144 C 189.426 144, 190.411 143.100, 191 142 C 191.589 140.900, 191.899 140, 191.690 140 C 191.481 140, 190.495 140.900, 189.500 142" stroke="none" fill="black" fill-rule="evenodd"/>
</svg>