<svg xmlns="http://www.w3.org/2000/svg" width="192" height="144" viewBox="0 0 192 144" version="1.1">
	<path d="M 53.506 30.631 C 52.678 31.895, 52 33.653, 52 34.537 C 52 35.421, 50.895 38.030, 49.544 40.334 C 46.751 45.101, 47.028 45.965, 52.253 48.750 C 55.522 50.493, 55.806 50.916, 54.457 52.036 C 53.606 52.742, 53.122 53.875, 53.382 54.554 C 53.643 55.232, 52.788 56.790, 51.484 58.015 C 46.550 62.650, 45.050 69.038, 48.577 70.391 C 50.581 71.160, 50.344 74.902, 48 79.500 C 46.900 81.658, 46 84.173, 46 85.089 C 46 86.006, 45.353 88.305, 44.562 90.198 C 43.771 92.091, 43.162 95.008, 43.210 96.680 C 43.258 98.353, 42.554 105.746, 41.648 113.110 C 40.741 120.475, 39.644 130.438, 39.210 135.250 L 38.421 144 57.819 144 L 77.217 144 76.660 141.750 C 76.354 140.512, 75.169 132.975, 74.028 125 C 72.109 111.594, 68.022 93.671, 66.025 89.907 C 65.492 88.904, 65.817 86.870, 66.905 84.407 C 68.234 81.395, 68.586 78.076, 68.440 69.918 C 68.336 64.098, 67.744 58.390, 67.125 57.234 C 66.506 56.078, 66 54.222, 66 53.112 C 66 51.391, 66.510 51.157, 69.442 51.532 C 73.658 52.072, 76.493 49.758, 75.483 46.601 C 75.112 45.445, 74.276 42.616, 73.624 40.314 C 71.936 34.356, 67.057 29.328, 62.316 28.661 C 56.480 27.840, 55.138 28.140, 53.506 30.631 M 133.564 60.500 C 131.285 62.988, 129.503 64, 127.402 64 C 119.902 64, 117.442 70.772, 123.250 75.426 C 125.037 76.858, 127.008 78.440, 127.629 78.942 C 128.906 79.973, 128.094 85.056, 125.622 91.500 C 124.778 93.700, 124.068 96.482, 124.044 97.682 C 124.019 98.939, 122.709 100.783, 120.954 102.033 C 118.087 104.074, 117.947 104.476, 118.580 108.851 C 119.270 113.622, 120.487 116, 122.239 116 C 122.786 116, 122.998 115.100, 122.710 114 C 122.388 112.767, 122.680 112, 123.471 112 C 124.177 112, 125.324 111.314, 126.020 110.476 C 126.716 109.638, 127.440 109.107, 127.631 109.297 C 127.821 109.487, 126.844 114.561, 125.460 120.571 C 124.075 126.582, 122.680 132.711, 122.358 134.192 C 121.837 136.592, 122.138 136.978, 125.137 137.750 C 127.773 138.428, 128.568 139.198, 128.816 141.308 C 129.090 143.635, 129.590 144, 132.497 144 C 135.188 144, 135.949 143.550, 136.303 141.750 L 136.746 139.500 137.490 141.750 C 138.515 144.851, 143.150 144.855, 144.513 141.756 C 145.056 140.522, 146.400 139.370, 147.500 139.197 C 151.785 138.524, 152.040 138.229, 150.878 135.286 C 149.857 132.699, 145 114.222, 145 112.926 C 145 112.607, 146.358 112.546, 148.017 112.789 C 150.117 113.097, 150.953 113.729, 150.767 114.866 C 150.594 115.922, 151.207 116.500, 152.500 116.500 C 154.275 116.500, 154.465 115.938, 154.186 111.500 C 153.928 107.409, 153.258 105.864, 150.496 103 C 146.633 98.994, 143 91.200, 143 86.917 C 143 84.373, 143.366 84, 145.865 84 C 149.354 84, 154 80.552, 154 77.962 C 154 76.921, 152.650 74.532, 151 72.653 C 148.751 70.092, 148 68.248, 148 65.292 C 148 56.908, 139.453 54.071, 133.564 60.500" stroke="none" fill="black" fill-rule="evenodd"/>
</svg>