<svg xmlns="http://www.w3.org/2000/svg" width="192" height="144" viewBox="0 0 192 144" version="1.1">
	<path d="M 49.628 3.250 C 50.711 9.338, 52.193 14.497, 53.220 15.750 C 53.784 16.438, 55.540 17, 57.122 17 C 60.545 17, 60.653 17.799, 57.951 23.097 C 56.049 26.825, 56.031 31, 57.917 31 C 58.348 31, 58.485 34.350, 58.222 38.445 C 57.959 42.540, 58.094 46.703, 58.521 47.695 C 58.948 48.688, 59.209 50.428, 59.102 51.562 C 58.994 52.695, 59.400 54.923, 60.004 56.511 C 60.996 59.121, 60.809 59.673, 58.051 62.250 C 55.345 64.779, 54.998 65.745, 54.986 70.801 C 54.967 78.717, 54.252 80.720, 51.166 81.495 C 47.361 82.449, 46.839 84.003, 49.095 87.654 C 52.439 93.065, 50.356 101.430, 41.230 119.242 C 34.107 133.143, 33.771 134.090, 35.338 135.821 C 36.252 136.831, 37 139.085, 37 140.829 L 37 144 83.300 144 C 117.978 144, 129.901 143.699, 130.800 142.800 C 132.305 141.295, 132.329 137.831, 130.870 132.959 C 130.024 130.137, 130.030 128.353, 130.893 125.878 C 131.955 122.832, 131.634 121.658, 126.847 111.067 C 123.988 104.741, 120.664 96.644, 119.462 93.074 C 117.518 87.303, 117.426 86.225, 118.628 83.348 C 120.370 79.178, 119.603 77.354, 115.543 76.014 C 112.665 75.064, 112.189 74.399, 111.668 70.593 C 110.821 64.412, 109.124 61.240, 105.452 58.970 C 102.339 57.047, 102.245 56.782, 102.163 49.745 C 102.100 44.357, 102.571 41.603, 104 39 C 108.020 31.682, 109 28.941, 109 25.013 C 109 21.308, 109.193 21.010, 111.256 21.528 C 112.991 21.964, 113.893 21.448, 115.158 19.297 C 116.432 17.131, 122 1.654, 122 0.278 C 122 0.125, 105.586 -0, 85.525 -0 L 49.050 -0 49.628 3.250 M 68.115 102.500 C 68.069 106.350, 68.467 110.175, 69 111 C 70.202 112.860, 70.202 101.754, 69 98 C 68.427 96.210, 68.175 97.488, 68.115 102.500" stroke="none" fill="black" fill-rule="evenodd"/>
</svg>