<svg xmlns="http://www.w3.org/2000/svg" width="192" height="144" viewBox="0 0 192 144" version="1.1">
	<path d="M 0 52 C 0 81.855, 0.380 104, 0.893 104 C 1.384 104, 8.022 103.359, 15.643 102.575 C 23.264 101.791, 33.874 100.839, 39.220 100.458 C 46.927 99.910, 49.049 99.429, 49.467 98.133 C 50.136 96.064, 55.724 90.022, 59.001 87.825 L 61.500 86.149 59.250 84.518 C 58.012 83.621, 57 82.238, 57 81.446 C 57 80.654, 60.075 76.742, 63.834 72.753 C 74.184 61.767, 78.966 55.485, 87.709 41.380 C 95.338 29.073, 95.720 28.173, 96.296 21.163 C 96.842 14.508, 96.740 13.895, 95.199 14.574 C 90.528 16.635, 85.940 16.230, 81.854 13.399 C 77.390 10.306, 73 4.538, 73 1.768 C 73 0.110, 70.736 0, 36.500 0 L 0 0 0 52 M 125.569 4.750 C 123.645 18.635, 119.747 39.663, 118.594 42.386 C 117.868 44.099, 113.853 50.547, 109.671 56.715 C 100.652 70.021, 97.910 75.241, 93.853 86.823 C 92.182 91.595, 90.407 95.928, 89.907 96.450 C 87.520 98.949, 89.304 99.747, 98.750 100.405 C 104.112 100.779, 110.345 101.319, 112.600 101.604 L 116.700 102.124 118.974 96.812 C 120.225 93.890, 122.048 90.368, 123.025 88.985 C 124.753 86.538, 124.738 86.396, 122.438 83.722 C 119.708 80.549, 119.581 81.028, 126.635 67.990 C 132.908 56.396, 140.619 34.722, 142.641 23 C 142.878 21.625, 143.536 19.051, 144.103 17.280 C 144.936 14.683, 144.698 12.703, 142.871 7.030 L 140.606 0 133.417 0 L 126.227 0 125.569 4.750 M 176.369 1.750 C 176.646 2.712, 177.161 7.325, 177.514 12 C 178.151 20.451, 177.917 21.692, 174.027 30.500 C 167.632 44.983, 162.996 60.386, 161.387 72.500 C 159.521 86.547, 157.472 93.677, 154.906 95.050 C 153.187 95.970, 152.949 96.971, 153.204 102.208 L 153.500 108.296 160 110.232 C 163.575 111.297, 171.957 113.930, 178.627 116.084 C 185.296 118.238, 191.034 120, 191.377 120 C 191.720 120, 192 93, 192 60 L 192 0 183.933 0 C 176.724 0, 175.919 0.186, 176.369 1.750 M 82.407 117.968 C 81.224 119.118, 72.154 119.539, 69.202 118.580 C 67.815 118.130, 66.331 118.310, 65.458 119.035 C 64.662 119.695, 62.771 119.984, 61.256 119.677 C 59.740 119.370, 57.040 119.632, 55.256 120.259 C 52.450 121.244, 51.828 121.147, 50.655 119.543 C 49.414 117.845, 48.295 117.747, 37.400 118.382 C 25.845 119.056, 9.862 120.555, 3.250 121.584 L -0 122.091 -0 133.050 L 0 144.010 96.250 143.755 L 192.500 143.500 192.562 132 C 192.609 123.337, 192.537 122.658, 192.273 129.250 C 192.080 134.063, 191.602 137.996, 191.211 137.991 C 190.820 137.987, 185.325 136.151, 179 133.913 C 172.675 131.674, 161.200 128.349, 153.500 126.523 C 136.085 122.393, 134.084 122.056, 133.417 123.134 C 132.533 124.564, 129.162 124.111, 128.225 122.437 C 127.431 121.019, 127.229 121.019, 126.052 122.437 C 124.296 124.553, 122.395 124.403, 120.722 122.014 C 119.587 120.394, 117.503 119.850, 109.415 119.065 C 92.477 117.422, 83.350 117.051, 82.407 117.968 M 0.378 133 C 0.378 139.325, 0.541 141.912, 0.739 138.750 C 0.937 135.588, 0.937 130.412, 0.739 127.250 C 0.541 124.088, 0.378 126.675, 0.378 133" stroke="none" fill="black" fill-rule="evenodd"/>
</svg>