<svg xmlns="http://www.w3.org/2000/svg" width="192" height="144" viewBox="0 0 192 144" version="1.1">
	<path d="M 84.179 2.503 C 80.259 5.801, 77.294 11.310, 76.388 16.976 C 75.677 21.421, 72.506 24.515, 69.747 23.456 C 68.717 23.061, 67.723 23.848, 66.725 25.850 C 65.305 28.697, 65.371 28.994, 68.191 32.416 C 69.816 34.387, 71.788 36, 72.573 36 C 74.646 36, 74.323 38.028, 71.826 40.686 L 69.651 43 71.893 43 C 73.677 43, 74.006 43.407, 73.502 44.994 C 73.016 46.524, 73.233 46.848, 74.435 46.387 C 75.346 46.037, 76 46.314, 76 47.049 C 76 49.306, 81.049 55, 83.051 55 C 84.182 55, 85 55.681, 85 56.622 C 85 57.963, 85.265 58.025, 86.524 56.980 C 88.321 55.489, 89.559 56.293, 88.377 58.183 C 87.924 58.908, 87.541 60.062, 87.526 60.749 C 87.504 61.823, 75.896 68.305, 73.738 68.449 C 73.318 68.477, 72.157 67.150, 71.157 65.500 L 69.339 62.500 59.307 62.500 L 49.275 62.500 35.388 55.350 L 21.500 48.200 14 52.620 C 9.875 55.052, 5.038 57.572, 3.250 58.221 C 0.055 59.382, 0.002 59.505, 0.090 65.451 C 0.171 70.875, 0.276 71.169, 1.107 68.295 C 1.952 65.373, 5.248 62, 7.258 62 C 7.705 62, 7.605 62.870, 7.035 63.934 C 5.585 66.643, 5.655 87.282, 7.112 86.796 C 7.724 86.592, 10.375 82.272, 13.003 77.196 C 17.294 68.908, 17.693 67.586, 16.915 64.233 C 15.532 58.279, 15.824 56.432, 18.364 55.073 C 20.332 54.019, 21.252 54.079, 23.864 55.430 C 27.566 57.344, 27.560 57.315, 25.018 60.790 C 23.928 62.281, 22.920 64.400, 22.777 65.500 C 22.408 68.345, 25.119 86.956, 25.980 87.488 C 26.375 87.732, 28.293 83.300, 30.243 77.639 C 33.725 67.533, 34.097 63.227, 31.743 60.250 C 29.215 57.052, 38.255 60.193, 40.961 63.453 C 42.062 64.779, 41.995 65.348, 40.553 66.941 C 38.021 69.739, 37.612 75.602, 39.411 83.312 C 40.285 87.059, 41 91.259, 41 92.645 C 41 97.501, 43.263 94.362, 45.819 85.959 C 48.501 77.145, 49.032 72.064, 47.669 68.250 C 46.889 66.067, 47.057 66, 53.266 66 C 56.786 66, 59.928 66.262, 60.248 66.581 C 60.568 66.901, 59.743 68.764, 58.415 70.721 C 57.087 72.678, 56 74.851, 56 75.550 C 56 77.303, 61.037 96.150, 62 98 C 62.432 98.829, 61.998 102.630, 61.031 106.500 L 59.281 113.500 48.453 120.689 L 37.625 127.878 34.062 124.770 C 32.103 123.061, 29.951 120.894, 29.281 119.956 C 27.559 117.546, 24.017 116.791, 23.293 118.679 C 22.972 119.516, 23.290 120.561, 24 121 C 26.827 122.747, 24.159 124.739, 18.331 125.232 C 11.257 125.829, 10.157 125.475, 9.372 122.346 C 8.578 119.181, 6.762 119.848, 5.654 123.711 C 4.937 126.211, 5.269 127.602, 7.484 131.383 C 9.210 134.328, 10.885 136, 12.109 136 C 13.164 136, 14.884 136.535, 15.932 137.189 C 17.306 138.048, 18.485 138.087, 20.168 137.330 C 21.871 136.564, 23.524 136.640, 26.295 137.612 C 28.382 138.344, 32.317 139.238, 35.039 139.600 C 39.714 140.220, 40.498 139.963, 49.244 134.944 C 67.072 124.713, 67.588 124.180, 71.486 112 C 72.454 108.975, 73.641 106.072, 74.123 105.550 C 74.630 105.001, 75 109.905, 75 117.162 C 75 128.982, 74.823 130.114, 72 136.340 C 70.350 139.979, 69 143.191, 69 143.478 C 69 143.765, 81.150 144, 96 144 C 110.850 144, 123 143.765, 123 143.478 C 123 143.191, 121.721 140.135, 120.157 136.686 C 118.078 132.100, 117.163 128.212, 116.752 122.205 C 115.938 110.340, 116.709 108.532, 119.575 115.582 C 122.833 123.600, 125.799 126.242, 139.997 133.779 C 153.439 140.915, 156.596 141.532, 166.292 138.921 C 169.245 138.126, 171.003 138.173, 173.255 139.106 C 175.848 140.180, 176.439 140.120, 177.494 138.677 C 178.169 137.755, 179.468 137, 180.382 137 C 181.295 137, 182.546 135.762, 183.162 134.250 C 183.777 132.737, 184.890 130.087, 185.635 128.360 C 186.793 125.674, 186.771 124.697, 185.481 121.610 C 183.880 117.778, 182 116.801, 182 119.800 C 182 122.951, 179.819 124, 173.269 124 C 166.524 124, 164.497 122.516, 167.046 119.445 C 168.546 117.638, 167.102 115.633, 164.917 116.490 C 164.138 116.796, 161.700 119.263, 159.500 121.973 C 157.300 124.683, 155.036 126.923, 154.470 126.950 C 153.903 126.978, 148.344 123.959, 142.117 120.242 L 130.793 113.484 128.444 104.492 C 127.152 99.546, 125.778 94.417, 125.390 93.094 C 124.936 91.543, 125.051 90.913, 125.713 91.323 C 126.279 91.672, 127.028 93.390, 127.378 95.139 C 127.728 96.888, 128.276 98.058, 128.596 97.738 C 129.641 96.692, 134.953 74.540, 134.528 73 C 134.300 72.175, 134.877 69.925, 135.810 68 C 137.172 65.188, 138.162 64.437, 140.843 64.180 C 143.802 63.896, 144.113 64.094, 143.590 65.930 C 143.265 67.068, 142.751 68.881, 142.446 69.958 C 141.853 72.052, 148.667 94, 149.910 94 C 150.318 94, 151.383 88.795, 152.277 82.432 C 153.781 71.731, 153.781 70.608, 152.266 67.432 C 151.366 65.545, 150.263 64, 149.815 64 C 149.367 64, 149 63.372, 149 62.604 C 149 61.257, 158.677 54.344, 159.463 55.130 C 159.677 55.343, 159.355 57.374, 158.750 59.644 C 157.800 63.203, 157.967 64.645, 159.968 70.135 C 163.814 80.689, 165.938 85.157, 166.842 84.598 C 167.581 84.141, 169.331 67.791, 169.179 62.766 C 169.150 61.813, 167.960 59.503, 166.533 57.633 L 163.940 54.233 167.319 52.239 C 170.490 50.368, 170.864 50.346, 173.410 51.873 C 176.002 53.428, 176.093 53.754, 175.464 59.238 C 174.812 64.926, 174.856 65.055, 180.489 73.982 C 183.614 78.935, 186.627 83.270, 187.185 83.615 C 188.158 84.216, 187.670 71.294, 186.416 63.250 C 186.049 60.899, 186.294 60, 187.300 60 C 189.529 60, 191.810 63.218, 192.262 67 C 192.536 69.297, 192.730 68.437, 192.825 64.500 C 192.904 61.200, 192.630 57.966, 192.215 57.313 C 191.800 56.660, 189.270 55.187, 186.593 54.040 C 183.917 52.893, 179.140 50.358, 175.979 48.406 L 170.231 44.858 163.114 48.442 C 159.200 50.413, 153.529 53.605, 150.512 55.536 C 147.495 57.466, 143.760 59.298, 142.214 59.607 C 139.548 60.140, 139.396 59.976, 139.296 56.465 C 139.238 54.428, 138.896 50.789, 138.534 48.380 C 138.072 45.299, 138.229 44, 139.064 44 C 139.859 44, 140.044 42.971, 139.626 40.880 C 139.261 39.054, 139.642 35.876, 140.545 33.217 C 142.186 28.383, 141.798 24.070, 139.379 20.250 C 137.680 17.568, 132.594 17.195, 129.288 19.511 C 126.839 21.226, 126.516 20.909, 125.613 15.896 C 123.943 6.623, 114.017 1.210, 96.973 0.276 C 87.690 -0.233, 87.362 -0.175, 84.179 2.503 M 122.454 42.488 C 120.426 45.950, 120.021 47.421, 120.866 48.266 C 122.369 49.769, 122.308 51.062, 120.750 50.750 C 120.032 50.606, 119.358 51.745, 119.167 53.424 C 118.950 55.329, 118.561 55.907, 118.051 55.082 C 117.010 53.399, 114.227 55.115, 111.288 59.251 L 109.116 62.309 108.449 59.655 C 108.083 58.195, 107.494 57.015, 107.142 57.033 C 106.277 57.078, 102 60.680, 102 61.363 C 102 61.662, 104.132 62.849, 106.738 64.002 C 109.343 65.155, 112.451 67.015, 113.644 68.136 L 115.814 70.174 118.502 65.587 C 120.076 62.902, 121.918 61, 122.945 61 C 124.472 61, 124.787 59.557, 125.376 49.860 C 125.748 43.732, 125.855 38.522, 125.614 38.281 C 125.373 38.040, 123.951 39.933, 122.454 42.488 M 90 48.886 C 90 49.708, 95.023 52.310, 95.565 51.769 C 95.733 51.600, 94.550 50.704, 92.935 49.778 C 91.321 48.851, 90 48.450, 90 48.886 M 0.320 65 C 0.320 68.575, 0.502 70.037, 0.723 68.250 C 0.945 66.463, 0.945 63.538, 0.723 61.750 C 0.502 59.962, 0.320 61.425, 0.320 65 M 122.184 69.118 C 120.082 71.712, 119.936 74, 121.874 74 C 122.956 74, 126.075 67.157, 125.216 66.668 C 124.822 66.444, 123.458 67.546, 122.184 69.118 M 65 68.378 C 65 68.586, 65.708 70.449, 66.573 72.520 C 68.023 75.990, 68.272 76.157, 69.766 74.662 C 71.261 73.168, 71.203 72.845, 69.019 70.521 C 66.934 68.301, 65 67.270, 65 68.378 M 64.079 92.583 C 64.127 93.748, 64.364 93.985, 64.683 93.188 C 64.972 92.466, 64.936 91.603, 64.604 91.271 C 64.272 90.939, 64.036 91.529, 64.079 92.583" stroke="none" fill="black" fill-rule="evenodd"/>
</svg>