<svg xmlns="http://www.w3.org/2000/svg" width="192" height="144" viewBox="0 0 192 144" version="1.1">
	<path d="M 104.221 17.120 C 99.222 19.594, 96 25.417, 96 31.979 C 96 35.592, 96.407 36.308, 99.500 38.133 C 101.425 39.268, 103 40.850, 103 41.647 C 103 43.986, 108.247 47.934, 111.402 47.968 C 114.299 48, 114.293 48.012, 108.589 53.992 C 105.445 57.288, 103.159 60.449, 103.510 61.016 C 103.861 61.583, 103.385 64.042, 102.454 66.480 C 100.905 70.537, 100.932 73.053, 102.570 77.321 C 103.029 78.518, 101.954 78.359, 97.324 76.546 C 94.121 75.292, 90.706 73.992, 89.735 73.658 C 86.969 72.707, 85.794 68.419, 87.103 64.052 C 88.666 58.834, 87.033 55.718, 83.210 56.625 C 78.578 57.725, 77 59.850, 77 64.988 C 77 67.561, 76.496 72.177, 75.879 75.246 C 74.937 79.940, 75.035 81.702, 76.495 86.344 C 78.185 91.717, 78.175 92.027, 76.115 98.125 C 73.395 106.181, 73.436 107.820, 76.380 108.559 C 77.688 108.888, 80.252 110.696, 82.076 112.578 C 85.790 116.411, 88.768 117.304, 87.035 114.066 C 85.509 111.214, 85.676 111, 89.429 111 C 95.905 111, 96.441 108.978, 93.919 94.066 C 92.213 83.981, 92.952 83.042, 99.056 87.536 C 103.711 90.964, 104.097 93.911, 101.490 106.136 C 100.275 111.836, 98.751 119.303, 98.105 122.729 C 97.059 128.275, 94.444 137.359, 92.487 142.250 C 91.829 143.893, 93.572 144, 120.898 144 L 150.010 144 145.594 135.750 C 143.165 131.213, 139.267 122.775, 136.933 117 C 134.598 111.225, 130.621 102.922, 128.094 98.549 C 123.555 90.694, 123.500 90.490, 123.500 81.505 C 123.500 71.933, 125.235 67, 128.603 67 C 130.416 67, 129.921 63.574, 126.979 55.750 C 125.996 53.138, 125.558 51.227, 126.005 51.503 C 126.452 51.779, 127.984 50.620, 129.409 48.926 C 132.716 44.996, 132.727 41.290, 129.461 31.281 C 127.541 25.396, 125.906 22.464, 122.753 19.250 C 118.940 15.363, 118.153 15, 113.542 15.001 C 110.421 15.001, 106.869 15.809, 104.221 17.120" stroke="none" fill="black" fill-rule="evenodd"/>
</svg>