<svg xmlns="http://www.w3.org/2000/svg" width="192" height="144" viewBox="0 0 192 144" version="1.1">
	<path d="M 34.251 2.916 C 36.077 4.519, 38.231 7.098, 39.036 8.647 C 40.861 12.158, 44.993 15.927, 47.062 15.968 C 49.245 16.013, 56.707 19.723, 57.669 21.243 C 58.106 21.934, 58.697 24.727, 58.982 27.449 L 59.500 32.398 65.750 34.235 C 75.397 37.070, 73.215 41, 61.994 41 C 56.521 41, 55.373 41.961, 57.067 45.126 C 58.014 46.895, 57.931 47.459, 56.614 48.196 C 55.615 48.755, 55 50.414, 55 52.550 C 55 54.447, 54.539 56, 53.975 56 C 53.412 56, 52.520 57.133, 51.993 58.518 C 51.467 59.903, 49.960 61.445, 48.645 61.945 C 47.329 62.445, 45.249 64.479, 44.021 66.466 C 42.029 69.689, 41.928 70.411, 43.077 73.187 C 44.281 76.092, 44.189 76.437, 41.683 78.436 C 40.207 79.612, 39 81.135, 39 81.819 C 39 82.503, 38.342 83.315, 37.538 83.624 C 36.734 83.932, 34.694 87.023, 33.004 90.493 C 30.777 95.063, 29.251 96.971, 27.465 97.419 C 25.326 97.956, 25 98.603, 25 102.308 C 25 106.172, 25.626 107.265, 31.581 113.789 C 35.201 117.755, 38.739 121, 39.445 121 C 43.308 121, 51.264 133.950, 51.179 140.099 L 51.125 144 105.392 144 L 159.659 144 165.863 138.386 C 172.535 132.348, 175 128.607, 175 124.518 C 175 118.226, 180.430 110.990, 187.771 107.500 C 190.815 106.052, 191.980 104.895, 191.989 103.307 C 191.998 101.441, 191.368 101.069, 187.750 100.807 C 184.032 100.538, 183.260 100.052, 181.585 96.924 C 180.532 94.957, 178.374 92.604, 176.790 91.694 C 175.206 90.785, 173.463 88.757, 172.915 87.187 C 172.310 85.451, 170.564 83.686, 168.460 82.682 C 166.557 81.775, 165 80.560, 165 79.983 C 165 79.406, 166.575 77.358, 168.500 75.433 C 170.927 73.006, 172 71.024, 172 68.967 C 172 67.335, 171.662 65.949, 171.250 65.886 C 170.838 65.823, 169.278 65.626, 167.785 65.449 C 164.260 65.029, 156.852 60.654, 155.242 58.042 C 154.549 56.919, 153.065 56, 151.942 56 C 149.283 56, 144.989 53.750, 142.593 51.102 C 141.546 49.946, 139.616 49, 138.304 49 C 136.448 49, 135.518 48.059, 134.120 44.767 C 132.116 40.048, 132.688 38.765, 137.916 36.263 C 140.319 35.113, 140.211 35.065, 136.382 35.579 C 133.205 36.005, 132.126 35.771, 131.660 34.557 C 130.561 31.692, 132.846 28.119, 137.198 25.899 C 139.552 24.698, 143.058 21.889, 144.989 19.655 C 146.920 17.422, 149.287 14.786, 150.250 13.797 C 151.213 12.809, 151.747 12, 151.438 12 C 151.128 12, 152.100 9.750, 153.597 7 C 155.093 4.250, 156.696 2, 157.159 2 C 157.622 2, 158 1.550, 158 1 C 158 0.344, 136.155 0, 94.465 0 L 30.930 0 34.251 2.916 M 30 85 C 30 85.550, 31.012 85.993, 32.250 85.985 C 34.069 85.972, 34.213 85.784, 33 85 C 31.061 83.747, 30 83.747, 30 85" stroke="none" fill="black" fill-rule="evenodd"/>
</svg>