<svg xmlns="http://www.w3.org/2000/svg" width="192" height="144" viewBox="0 0 192 144" version="1.1">
	<path d="M -0 36.430 L -0 72.859 4.250 70.525 C 12.171 66.174, 41.250 64.076, 94.275 64.028 L 126.050 64 127.023 61.440 C 128.010 58.843, 130 58.922, 130 61.559 C 130 63.239, 133.891 63.465, 138.761 62.068 C 141.502 61.282, 142.438 61.496, 144.755 63.436 C 146.805 65.154, 149.139 65.853, 153.979 66.198 L 160.457 66.661 165.321 61.339 C 169.048 57.262, 172.394 54.964, 179.641 51.509 C 184.843 49.029, 189.738 47, 190.519 47 C 191.657 47, 192.003 49.545, 192.253 59.750 C 192.425 66.763, 192.663 56.188, 192.783 36.250 L 193 0 96.500 0 L 0 0 -0 36.430 M 0.452 37 C 0.452 57.075, 0.585 65.288, 0.749 55.250 C 0.912 45.213, 0.912 28.788, 0.749 18.750 C 0.585 8.713, 0.452 16.925, 0.452 37 M 42.500 71.647 C 30.657 72.067, 3.765 74.030, 1.750 74.621 C 0.127 75.097, 0 77.637, 0 109.567 L 0 144 61.577 144 L 123.153 144 120.085 141.418 C 117.562 139.295, 117.199 138.496, 118.044 136.918 C 118.608 135.863, 119.438 135, 119.887 135 C 120.336 135, 123.787 137.025, 127.555 139.500 L 134.406 144 158.067 144 L 181.728 144 182.347 139.485 C 182.735 136.656, 182.438 133.388, 181.553 130.735 C 179.013 123.126, 178.690 119.502, 180.424 118.063 C 183.919 115.162, 181.361 108, 176.829 108 C 173.995 108, 168 101.747, 168 98.791 C 168 97.466, 168.661 95.509, 169.468 94.441 C 171.466 91.800, 171.367 89.060, 169.250 88.353 C 168.287 88.032, 164.575 86.422, 161 84.776 C 157.425 83.129, 150.450 80.454, 145.500 78.830 C 140.423 77.165, 135.356 74.785, 133.875 73.372 L 131.250 70.866 130.606 73.433 C 129.812 76.599, 127.255 76.813, 126.820 73.750 L 126.500 71.500 88.500 71.432 C 67.600 71.394, 46.900 71.491, 42.500 71.647 M 153.500 73.046 C 159.703 75.468, 160 75.466, 160 73 C 160 71.226, 159.349 71.005, 154.250 71.047 L 148.500 71.094 153.500 73.046" stroke="none" fill="black" fill-rule="evenodd"/>
</svg>