<svg xmlns="http://www.w3.org/2000/svg" width="192" height="144" viewBox="0 0 192 144" version="1.1">
	<path d="M -0 72.005 L -0 144.010 96.250 143.755 L 192.500 143.500 192.757 71.750 L 193.013 0 96.507 0 L 0 0 -0 72.005 M 0.474 72.500 C 0.474 112.100, 0.598 128.154, 0.750 108.176 C 0.901 88.198, 0.901 55.798, 0.750 36.176 C 0.598 16.554, 0.474 32.900, 0.474 72.500 M 88.251 29.828 C 87.906 30.747, 87.005 31.965, 86.249 32.532 C 85.144 33.362, 85.568 34.196, 88.411 36.782 C 90.356 38.552, 92.478 40, 93.128 40 C 93.810 40, 93.507 40.887, 92.414 42.095 C 90.549 44.156, 90.552 44.219, 92.600 45.878 C 95.611 48.315, 96.160 52.766, 93.978 57.044 C 90.483 63.895, 92.153 63.650, 64.615 61.350 C 58.089 60.804, 56.810 60.933, 57.193 62.095 C 57.448 62.868, 58.746 63.654, 60.078 63.841 C 61.410 64.029, 63.222 64.827, 64.105 65.615 C 64.988 66.403, 66.430 66.772, 67.309 66.435 C 68.188 66.098, 71.473 66.782, 74.609 67.955 C 78.572 69.438, 80.630 69.770, 81.356 69.044 C 82.081 68.319, 81.747 68, 80.259 68 C 79.081 68, 77.808 67.498, 77.428 66.884 C 76.936 66.088, 78.947 65.880, 84.453 66.158 C 90.448 66.460, 92.382 66.932, 93.133 68.274 C 93.880 69.607, 95.454 70, 100.050 70 C 105.617 70, 106 70.150, 106 72.333 C 106 74.259, 106.524 74.667, 109 74.667 C 111.655 74.667, 112 74.327, 112 71.720 C 112 68.384, 110.779 68.370, 126 71.884 C 130.675 72.963, 135.436 74.138, 136.580 74.495 C 137.863 74.896, 140.261 74.311, 142.830 72.971 C 146.230 71.199, 147 70.275, 147 67.966 C 147 66.057, 146.378 64.937, 145.089 64.528 C 144.039 64.195, 142.413 62.753, 141.477 61.325 C 139.805 58.772, 139.647 58.742, 132.138 59.528 C 122.806 60.506, 114.237 60.570, 113.336 59.669 C 112.057 58.390, 113.526 58.178, 117.996 58.998 C 121.127 59.571, 122.712 59.469, 123.215 58.661 C 123.705 57.875, 122.512 57.287, 119.519 56.840 C 113.857 55.994, 113 55.416, 113 52.441 C 113 51.098, 112.550 50, 112 50 C 111.450 50, 111 49.550, 111 49 C 111 48.450, 111.873 48, 112.941 48 C 115.689 48, 116.713 45.840, 114.570 44.562 C 113.590 43.978, 111.236 42.292, 109.338 40.815 C 107.440 39.338, 105.382 37.961, 104.764 37.755 C 104.141 37.547, 103.936 36.608, 104.305 35.647 C 104.848 34.234, 105.353 34.118, 107.041 35.022 C 111.373 37.341, 111.236 35.222, 106.888 32.675 C 101.464 29.496, 97.961 29.281, 95.521 31.976 C 93.448 34.267, 91.970 33.831, 92.674 31.137 C 93.330 28.630, 89.162 27.396, 88.251 29.828 M 106.192 51.075 C 106.389 51.666, 106.977 52.150, 107.500 52.150 C 108.023 52.150, 108.611 51.666, 108.808 51.075 C 109.005 50.484, 108.417 50, 107.500 50 C 106.583 50, 105.995 50.484, 106.192 51.075 M 96.170 58.092 C 93.246 63.216, 94.140 64.321, 98.049 60.413 C 100.592 57.870, 100.846 57.175, 99.767 55.719 C 98.629 54.184, 98.263 54.425, 96.170 58.092" stroke="none" fill="black" fill-rule="evenodd"/>
</svg>