<svg xmlns="http://www.w3.org/2000/svg" width="192" height="144" viewBox="0 0 192 144" version="1.1">
	<path d="M 0 72 L 0 144 3.500 144 C 5.425 144, 7 143.784, 7 143.519 C 7 143.254, 5.564 140.125, 3.808 136.564 L 0.616 130.091 2.978 125.046 C 4.278 122.271, 6.212 119.213, 7.277 118.251 C 8.342 117.288, 10.062 114.837, 11.099 112.804 C 12.137 110.771, 13.578 108.746, 14.302 108.304 C 15.025 107.862, 16.189 106.085, 16.887 104.355 C 18.753 99.730, 21.301 97.421, 26.691 95.470 C 29.336 94.513, 33.300 92.905, 35.500 91.898 L 39.500 90.066 38.878 72.146 C 38.537 62.289, 37.948 53.724, 37.569 53.112 C 37.191 52.501, 35.792 52, 34.460 52 C 33.127 52, 28.871 51.457, 25.002 50.794 L 17.967 49.587 24.113 43.386 L 30.259 37.185 27.379 35.613 C 24.112 33.829, 20 30.473, 20 29.590 C 20 29.265, 21.688 28.955, 23.750 28.900 C 25.813 28.845, 28.625 28.484, 30 28.098 C 32.231 27.470, 32.464 26.948, 32.168 23.235 C 31.985 20.947, 32.098 18.651, 32.419 18.132 C 33.394 16.554, 40.238 19.102, 43.719 22.339 L 46.939 25.333 66.535 25.493 C 85.205 25.645, 86.198 25.556, 87.556 23.617 C 88.671 22.025, 89.245 21.845, 90.191 22.791 C 90.856 23.456, 92.660 24, 94.200 24 C 96.113 24, 97 24.513, 97 25.618 C 97 26.508, 98.350 28.774, 100 30.653 C 101.650 32.532, 103 34.459, 103 34.935 C 103 35.412, 104.688 36.200, 106.750 36.688 C 111.882 37.902, 111.572 40.161, 106.032 41.913 C 101.867 43.230, 101.717 43.395, 103.822 44.334 C 107.806 46.112, 105.983 48.389, 99.367 49.899 L 93.237 51.298 93.215 56.899 C 93.203 59.980, 92.871 69.813, 92.477 78.750 C 91.989 89.819, 92.094 95, 92.804 95 C 94.787 95, 100.096 100.267, 102.129 104.253 C 103.252 106.454, 104.417 110.636, 104.717 113.547 C 105.167 117.908, 104.865 119.482, 103.002 122.498 C 101.249 125.333, 100.625 128.168, 100.231 135.088 L 99.721 144.020 146.111 143.760 L 192.500 143.500 192.757 71.750 L 193.013 0 96.507 0 L 0 0 0 72 M 0.474 72.500 C 0.474 112.100, 0.598 128.154, 0.750 108.176 C 0.901 88.198, 0.901 55.798, 0.750 36.176 C 0.598 16.554, 0.474 32.900, 0.474 72.500 M 29 124.355 C 26.849 125.119, 25.618 126.157, 25.806 127.049 C 26.431 130.009, 32.417 144, 33.059 144 C 33.424 144, 34.029 140.963, 34.403 137.250 C 34.776 133.537, 35.346 128.813, 35.669 126.750 C 36.336 122.484, 35.310 122.116, 29 124.355" stroke="none" fill="black" fill-rule="evenodd"/>
</svg>