<svg xmlns="http://www.w3.org/2000/svg" width="192" height="144" viewBox="0 0 192 144" version="1.1">
	<path d="M 27.425 2.750 C 29.141 9.918, 29.204 15.034, 27.624 18.983 C 25.614 24.005, 25.594 25, 27.505 25 C 29.653 25, 28.790 46.866, 26.418 52.539 C 25.282 55.256, 24.667 60.152, 24.461 68.131 C 24.267 75.622, 23.569 81.495, 22.499 84.631 C 21.391 87.878, 20.707 93.952, 20.446 102.865 C 20.231 110.215, 19.644 116.740, 19.142 117.365 C 17.707 119.149, 15.925 131.914, 16.227 138.250 C 16.458 143.124, 16.788 143.999, 18.390 144 C 19.429 144, 20.877 143.213, 21.608 142.250 C 22.873 140.583, 22.938 140.583, 22.968 142.250 C 23.010 144.534, 28 144.733, 28 142.450 C 28 141.598, 28.749 139.461, 29.664 137.700 C 30.960 135.207, 31.382 131.185, 31.571 119.500 C 31.767 107.388, 32.159 103.826, 33.606 101 C 35.072 98.138, 35.408 94.914, 35.449 83.300 C 35.484 73.566, 35.881 68.719, 36.713 67.887 C 37.663 66.937, 38.154 67.304, 38.980 69.587 C 42.530 79.393, 55.583 97.467, 77.752 123.271 L 86.146 133.041 83.073 138.036 C 81.383 140.783, 80 143.248, 80 143.515 C 80 143.782, 105.200 144, 136 144 L 192 144 192 100.585 L 192 57.170 187.250 52.939 C 182.570 48.769, 172.898 43.686, 163.906 40.671 C 158.014 38.694, 142 37.312, 142 38.779 C 142 39.359, 142.563 40.096, 143.250 40.417 C 144.194 40.857, 144.210 41.138, 143.314 41.562 C 135.517 45.257, 126.281 53.980, 125.631 58.265 C 125.528 58.944, 125.112 60.031, 124.706 60.681 C 123.407 62.759, 126.050 63.263, 128.200 61.348 L 130.274 59.500 128.611 62.750 C 127.697 64.538, 126.263 66, 125.425 66 C 123.377 66, 118.661 63.502, 117.055 61.566 C 115.001 59.092, 113.004 59.731, 112.335 63.076 C 111.913 65.186, 110.535 66.900, 107.949 68.532 C 105.453 70.108, 103.955 71.926, 103.520 73.911 C 102.913 76.674, 100.490 78.472, 98.302 77.785 C 96.814 77.317, 91 84.592, 91 86.922 C 91 88.109, 91.889 90.822, 92.975 92.951 C 94.845 96.616, 97.237 105.096, 96.585 105.748 C 96.418 105.915, 93.072 102.031, 89.149 97.118 C 85.226 92.205, 77.582 83.531, 72.163 77.843 L 62.310 67.500 61.666 60.441 C 61.115 54.411, 57.203 31.497, 55.475 24.181 C 55.049 22.379, 55.326 21.903, 56.714 22.046 C 60.071 22.392, 60.058 21.994, 56.531 16.481 C 52.519 10.209, 52.120 8, 55 8 C 56.100 8, 57 7.622, 57 7.161 C 57 6.332, 62.012 3.655, 62.521 4.213 C 62.665 4.371, 63.505 7.342, 64.388 10.815 C 67.560 23.300, 74.141 30.867, 85.855 35.499 C 92.752 38.226, 95 40.115, 95 43.184 C 95 44.175, 95.781 46.789, 96.736 48.993 C 98.472 53.001, 100 54.226, 100 51.611 C 100 50.816, 101.495 49.942, 103.500 49.566 C 106.866 48.934, 107 48.742, 107 44.536 C 107 38.282, 107.659 37.207, 113.215 34.391 C 124.502 28.672, 131.816 18.162, 132.769 6.294 L 133.274 0 80.020 0 L 26.767 0 27.425 2.750 M 32.787 45 C 32.545 46.650, 32.718 48, 33.173 48 C 33.628 48, 34 46.650, 34 45 C 34 43.350, 33.826 42, 33.613 42 C 33.401 42, 33.029 43.350, 32.787 45 M 29.630 57.250 C 28.576 61.184, 28.943 62.899, 31.086 64.046 C 32.233 64.660, 33.316 65.013, 33.492 64.831 C 33.669 64.649, 34.131 62.362, 34.520 59.750 C 35.203 55.163, 35.142 55, 32.730 55 C 30.986 55, 30.051 55.678, 29.630 57.250 M 29.750 70.574 C 29.337 70.992, 29 73.598, 29 76.367 C 29 79.914, 29.313 81.087, 30.060 80.340 C 30.644 79.756, 30.981 77.149, 30.810 74.547 C 30.640 71.944, 30.163 70.156, 29.750 70.574 M 25.629 91.693 C 24.934 96.763, 25.732 98.388, 28.644 97.835 C 30.966 97.394, 31.928 89.205, 29.815 87.864 C 27.209 86.212, 26.261 87.079, 25.629 91.693 M 25.607 106.582 C 24.633 109.119, 24.908 115, 26 115 C 26.550 115, 27.006 113.763, 27.014 112.250 C 27.021 110.737, 27.299 108.487, 27.630 107.250 C 28.310 104.712, 26.548 104.130, 25.607 106.582 M 21.630 125.250 C 21.299 126.487, 21.021 129.011, 21.014 130.858 C 21.001 134.024, 21.158 134.177, 23.748 133.527 C 27.073 132.693, 26.611 133.417, 27.433 127.750 C 28.122 123.003, 28.121 123, 25.178 123 C 22.970 123, 22.082 123.563, 21.630 125.250" stroke="none" fill="black" fill-rule="evenodd"/>
</svg>