<svg xmlns="http://www.w3.org/2000/svg" width="192" height="144" viewBox="0 0 192 144" version="1.1">
	<path d="M 0 72 L 0 144 16 144 L 32 144 32 141.607 C 32 138.896, 30.361 138, 25.397 138 C 22.698 138, 21.712 137.461, 20.818 135.500 C 19.831 133.335, 19.031 133, 14.839 133 C 10.009 133, 10 132.994, 10 129.622 C 10 125.012, 11.776 121.106, 20.097 107.411 C 31.557 88.549, 34.162 81.060, 32.374 72.120 C 31.797 69.236, 31.529 69.643, 28.947 77.327 C 26.891 83.444, 26.295 86.779, 26.707 89.852 C 27.176 93.353, 27.015 93.943, 25.725 93.448 C 24.052 92.806, 22.387 96.199, 23.494 97.991 C 23.837 98.546, 23.641 99, 23.059 99 C 22.477 99, 22 99.927, 22 101.059 C 22 102.191, 21.550 102.840, 21 102.500 C 19.767 101.738, 19.685 93.964, 20.876 90.815 C 22.283 87.097, 23.313 75.217, 22.073 77 C 21.500 77.825, 21.024 79.495, 21.015 80.711 C 20.997 83.345, 17.123 87.261, 15.247 86.541 C 14.520 86.262, 13.668 86.701, 13.355 87.517 C 13.042 88.333, 12.159 89, 11.393 89 C 10.627 89, 10 89.520, 10 90.155 C 10 90.810, 9.134 90.526, 8 89.500 C 6.289 87.951, 6 86.420, 6 78.892 C 6 69.190, 6.419 67.874, 12.977 57 L 17.500 49.500 17.622 39.250 C 17.742 29.169, 17.705 29, 15.431 29 C 12.100 29, 11.468 27.195, 13.895 24.612 C 15.053 23.379, 16 22.072, 16 21.706 C 16 21.340, 14.156 20.100, 11.903 18.951 C 6.444 16.165, 7.611 15.378, 14.037 17.512 C 18.145 18.877, 19.718 18.994, 21.714 18.085 C 24.901 16.632, 27.450 18.291, 26.050 20.907 C 25.246 22.409, 25.772 22.597, 30.650 22.552 C 36.783 22.494, 39.477 24.569, 38.697 28.750 C 38.466 29.987, 38.614 31, 39.025 31 C 40.166 31, 40.908 37.370, 39.893 38.450 C 38.120 40.337, 39.123 42.035, 46.541 49.704 C 53.430 56.825, 54.023 57.760, 53.390 60.500 C 53.010 62.150, 52.692 66.875, 52.685 71 C 52.673 77.283, 53.603 81.582, 58.417 97.500 C 65.066 119.484, 66.843 132.400, 63.390 133.627 C 62.350 133.996, 60.451 135.243, 59.168 136.399 C 57.586 137.825, 55.497 138.500, 52.668 138.500 C 48.864 138.500, 48.472 138.740, 48.184 141.250 L 47.867 144 95.338 144 L 142.810 144 142.283 139.750 C 141.746 135.422, 139.639 132.794, 135.250 130.980 C 133.898 130.421, 132.967 129.142, 132.917 127.775 C 132.871 126.524, 132.678 124.375, 132.487 123 C 131.598 116.579, 131.943 106.588, 133.383 97 C 137.565 69.160, 137.933 62.118, 135.530 55.921 C 135.111 54.842, 137.463 51.695, 142.959 45.981 C 151.148 37.467, 152.181 35.667, 149.475 34.629 C 148.027 34.073, 148.208 30.365, 149.821 27.550 C 150.120 27.028, 150.412 25.512, 150.471 24.181 C 150.646 20.177, 154.684 17.715, 160.206 18.246 C 164.211 18.631, 165.270 18.341, 167.141 16.350 C 170.245 13.046, 171.549 13.421, 169.068 16.904 C 165.398 22.059, 166.864 21.638, 172.172 16.014 C 175.836 12.132, 177.484 10.966, 177.822 12.017 C 178.085 12.833, 178.740 13.787, 179.278 14.138 C 180.848 15.163, 178.952 17.221, 176.927 16.691 C 175.663 16.361, 174.249 17.295, 172.456 19.646 C 170.150 22.670, 169.964 23.459, 170.917 26.191 C 171.513 27.900, 172 31.721, 172 34.682 C 172 42.628, 175.266 48.192, 184.415 55.838 C 191.892 62.086, 192 62.243, 192 66.888 C 192 73.935, 188.640 76.108, 184.176 71.949 C 181.746 69.685, 180 70.114, 180 72.975 C 180 73.996, 178.088 76.300, 175.750 78.094 C 173.412 79.888, 171.107 81.691, 170.627 82.101 C 169.542 83.027, 172.775 87.742, 179.654 95.267 C 183.804 99.806, 185.359 102.489, 186.963 107.874 C 188.083 111.637, 189 116.509, 189 118.700 C 189 122.200, 188.604 122.881, 185.750 124.291 C 183.963 125.174, 181.271 126.151, 179.768 126.463 C 178.266 126.774, 175.507 128.372, 173.636 130.014 C 171.072 132.266, 169.251 133, 166.229 133 C 160.395 133, 157.828 135.459, 158.636 140.274 L 159.269 144.047 175.885 143.774 L 192.500 143.500 192.757 71.750 L 193.013 0 96.507 0 L 0 0 0 72 M 0.474 72.500 C 0.474 112.100, 0.598 128.154, 0.750 108.176 C 0.901 88.198, 0.901 55.798, 0.750 36.176 C 0.598 16.554, 0.474 32.900, 0.474 72.500 M 161.194 52.472 C 161.122 54.369, 161.499 56.191, 162.032 56.520 C 162.564 56.849, 163.016 58.104, 163.035 59.309 C 163.055 60.514, 163.714 62.625, 164.500 64 C 165.919 66.482, 165.929 66.471, 165.959 62.500 C 165.996 57.541, 164.399 51.576, 162.644 50.120 C 161.596 49.249, 161.296 49.735, 161.194 52.472 M 157.551 69.713 C 156.767 74.336, 157.320 76, 159.638 76 C 160.833 76, 161.007 75.303, 160.450 72.750 C 158.949 65.873, 158.315 65.209, 157.551 69.713 M 148.639 134.694 C 148.288 135.046, 148 137.283, 148 139.667 C 148 143.622, 148.218 144, 150.500 144 C 153.334 144, 153.370 143.872, 151.957 138.786 C 150.897 134.969, 149.763 133.570, 148.639 134.694 M 38.667 140.667 C 37.290 142.043, 38.073 144, 40 144 C 41.333 144, 42 143.333, 42 142 C 42 140.073, 40.043 139.290, 38.667 140.667" stroke="none" fill="black" fill-rule="evenodd"/>
</svg>