<svg xmlns="http://www.w3.org/2000/svg" width="192" height="144" viewBox="0 0 192 144" version="1.1">
	<path d="M 0 72 L 0 144 8.885 144 C 17.324 144, 17.855 143.871, 19.454 141.430 C 22.437 136.878, 24.146 130.881, 22.892 129.370 C 21.805 128.060, 22.403 121.737, 23.824 119.508 C 24.178 118.953, 24.552 116.325, 24.656 113.667 C 24.768 110.813, 25.446 108.356, 26.312 107.667 C 27.969 106.349, 29.974 100.672, 30.091 96.965 C 30.437 86.029, 30.340 84.613, 29.220 84.240 C 28.470 83.990, 28.237 82.904, 28.613 81.406 C 29.105 79.446, 28.908 79.098, 27.593 79.603 C 26.171 80.148, 26.107 79.863, 27.092 77.364 C 28.238 74.459, 28.419 64.995, 27.392 61.695 C 27.083 60.702, 26.306 60.077, 25.665 60.306 C 24.196 60.831, 17 57.279, 17 56.029 C 17 55.518, 17.632 54.740, 18.404 54.300 C 19.176 53.860, 19.963 52.393, 20.154 51.041 C 20.385 49.396, 21.328 48.380, 23 47.972 C 24.791 47.535, 25.396 46.814, 25.133 45.431 C 22.882 33.589, 24.582 25.691, 30.891 18.686 C 35.924 13.099, 40.699 11.301, 52.500 10.550 L 62.500 9.914 66.500 5.449 C 68.700 2.993, 71.030 0.987, 71.678 0.992 C 72.640 0.999, 77 10.562, 77 12.666 C 77 12.992, 78.606 15.036, 80.570 17.209 C 84.997 22.109, 88 28.930, 88 34.083 C 88 37.333, 88.340 38, 90 38 C 91.547 38, 92 38.667, 92 40.941 C 92 42.559, 92.381 44.117, 92.847 44.405 C 93.792 44.989, 94.172 50.913, 93.350 52.243 C 93.059 52.713, 92.176 52.561, 91.387 51.906 C 89.014 49.937, 88.803 51.453, 90.526 58.102 C 92.566 65.972, 96.204 72.291, 100.645 75.678 C 104.668 78.747, 104.430 79.791, 100.207 77.607 C 97.324 76.116, 97.124 76.165, 94.040 79.112 C 91.870 81.186, 90.319 81.932, 89.177 81.450 C 85.801 80.026, 83 79.779, 83 80.906 C 83 81.667, 82.252 81.564, 80.750 80.596 C 77.885 78.750, 73.338 79.600, 72.683 82.103 C 72.356 83.356, 71.639 83.799, 70.593 83.397 C 69.717 83.061, 69 83.224, 69 83.759 C 69 84.294, 72.487 85.937, 76.750 87.409 C 89.832 91.928, 91.414 93.060, 92.041 98.349 C 92.339 100.861, 92.802 103.135, 93.069 103.403 C 93.337 103.670, 95.344 103.475, 97.528 102.969 C 103.470 101.591, 116.590 101.845, 124.500 103.491 C 141.739 107.079, 159.220 120.435, 167.500 136.344 L 171.500 144.030 182 143.765 L 192.500 143.500 192.757 71.750 L 193.013 0 96.507 0 L 0 0 0 72 M 0.474 72.500 C 0.474 112.100, 0.598 128.154, 0.750 108.176 C 0.901 88.198, 0.901 55.798, 0.750 36.176 C 0.598 16.554, 0.474 32.900, 0.474 72.500 M 181 42 C 181 42.550, 181.450 43, 182 43 C 182.550 43, 183 42.550, 183 42 C 183 41.450, 182.550 41, 182 41 C 181.450 41, 181 41.450, 181 42 M 125.508 60.354 C 124.452 62.316, 123.872 64.206, 124.220 64.553 C 125.014 65.348, 128.245 59.235, 127.775 57.826 C 127.585 57.255, 126.565 58.393, 125.508 60.354 M 79.631 137.520 C 79.284 138.424, 79 140.252, 79 141.582 C 79 143.656, 79.475 144, 82.333 144 C 86.486 144, 86.708 142.053, 82.964 138.466 C 80.630 136.229, 80.176 136.100, 79.631 137.520" stroke="none" fill="black" fill-rule="evenodd"/>
</svg>