<svg xmlns="http://www.w3.org/2000/svg" width="192" height="144" viewBox="0 0 192 144" version="1.1">
	<path d="M 0 49.500 C 0 88.393, 0.268 99.016, 1.250 99.077 C 1.938 99.119, 3.400 99.431, 4.500 99.770 C 5.600 100.109, 12.350 100.399, 19.500 100.414 C 30.301 100.436, 33.853 100.041, 40.500 98.076 C 44.900 96.775, 49.063 95.271, 49.750 94.733 C 50.604 94.065, 51 90.534, 51 83.588 C 51 77.996, 51.619 70.963, 52.375 67.960 C 53.132 64.957, 54.011 60.138, 54.328 57.251 C 55.893 43.026, 67.139 30.252, 85.382 21.981 C 94.526 17.835, 106.536 18.235, 119.596 23.122 C 124.152 24.826, 125.073 25.565, 124.860 27.344 C 124.718 28.530, 125.202 30.596, 125.936 31.937 C 128.294 36.242, 128.343 40.754, 126.073 44.600 C 123.534 48.905, 124.044 50, 128.590 50 C 131.936 50, 132.054 50.127, 131.827 53.496 C 131.698 55.419, 132.101 57.501, 132.723 58.123 C 133.450 58.850, 133.546 60.064, 132.991 61.523 C 132.401 63.075, 132.572 64.379, 133.532 65.647 C 134.305 66.666, 134.951 69.428, 134.968 71.786 C 134.999 75.923, 134.844 76.138, 130.493 78.003 C 124.913 80.395, 123.018 83.761, 125.366 87.112 C 126.862 89.248, 126.834 89.548, 124.957 91.546 C 123.850 92.725, 123.188 94.327, 123.488 95.108 C 124.465 97.655, 136.583 101.976, 142.909 102.032 C 146.344 102.062, 150 103.850, 150 105.500 C 150 105.929, 149.213 106.858, 148.250 107.565 C 146.621 108.762, 146.695 109.056, 149.323 111.807 C 152.025 114.635, 159.274 125.975, 166.235 138.262 L 169.500 144.024 181 143.762 L 192.500 143.500 192.775 71.750 L 193.049 0 96.525 0 L 0 0 0 49.500 M 0.463 50 C 0.463 77.225, 0.592 88.362, 0.749 74.750 C 0.906 61.137, 0.906 38.862, 0.749 25.250 C 0.592 11.637, 0.463 22.775, 0.463 50 M 1 128.500 L 1 144 20.885 144 L 40.770 144 45.885 136.287 C 50.937 128.670, 51 128.478, 51 120.812 L 51 113.050 48.250 114.106 C 44.383 115.591, 30.279 117.999, 25.500 117.990 C 23.300 117.985, 17.100 116.861, 11.722 115.491 C 6.344 114.121, 1.732 113, 1.472 113 C 1.213 113, 1 119.975, 1 128.500" stroke="none" fill="black" fill-rule="evenodd"/>
</svg>