<svg xmlns="http://www.w3.org/2000/svg" width="192" height="144" viewBox="0 0 192 144" version="1.1">
	<path d="M 93 34.374 C 81.197 37.623, 76.386 42.257, 75.031 51.681 C 74.570 54.882, 73.891 58.677, 73.522 60.116 C 71.055 69.725, 84.267 82.838, 99.629 86.027 C 112.520 88.703, 118.905 84.702, 122.883 71.457 C 124.567 65.851, 125.484 64.084, 126.293 64.893 C 126.902 65.502, 128.435 66, 129.700 66 C 130.965 66, 132.014 66.563, 132.030 67.250 C 132.047 67.938, 132.538 67.679, 133.122 66.675 C 134.414 64.453, 134.150 64.160, 129.373 62.517 L 125.597 61.219 125.465 54.860 C 125.212 42.684, 120.031 36.092, 109.082 34.016 C 102.322 32.733, 98.662 32.815, 93 34.374" stroke="none" fill="black" fill-rule="evenodd"/>
</svg>