<svg xmlns="http://www.w3.org/2000/svg" width="192" height="144" viewBox="0 0 192 144" version="1.1">
	<path d="M 63.126 56.651 C 63.879 57.559, 68.997 61.704, 74.498 65.861 C 84.755 73.612, 91.715 79.136, 100.500 86.500 C 103.250 88.805, 108.265 92.545, 111.644 94.811 C 115.022 97.076, 118.397 99.524, 119.144 100.251 C 119.890 100.978, 124.550 104.445, 129.500 107.957 C 134.450 111.469, 140.075 115.542, 142 117.008 C 143.925 118.475, 146.477 120.195, 147.672 120.831 C 148.867 121.467, 150.442 122.562, 151.172 123.264 C 152.526 124.566, 161.568 131.287, 165.616 134 C 166.847 134.825, 170.582 137.412, 173.916 139.750 C 179.427 143.614, 180.527 144, 186.029 144 L 192.081 144 191.790 135.842 L 191.500 127.684 180 120.950 C 173.675 117.247, 164 111.604, 158.500 108.411 C 153 105.218, 146.475 100.957, 144 98.943 C 141.525 96.929, 135.588 93.213, 130.806 90.684 C 120.632 85.305, 106.696 75.977, 98.057 68.765 C 97.263 68.103, 96.111 67.487, 95.495 67.396 C 94.880 67.306, 91.029 65.646, 86.938 63.708 C 75.035 58.069, 67.061 55, 64.312 55 C 62.048 55, 61.912 55.189, 63.126 56.651" stroke="none" fill="black" fill-rule="evenodd"/>
</svg>