<svg xmlns="http://www.w3.org/2000/svg" width="192" height="144" viewBox="0 0 192 144" version="1.1">
	<path d="M -0 72.005 L -0 144.010 96.250 143.755 L 192.500 143.500 192.757 71.750 L 193.013 0 96.507 0 L 0 0 -0 72.005 M 0.474 72.500 C 0.474 112.100, 0.598 128.154, 0.750 108.176 C 0.901 88.198, 0.901 55.798, 0.750 36.176 C 0.598 16.554, 0.474 32.900, 0.474 72.500 M 88.465 33.057 C 87.576 34.495, 88.790 39, 90.066 39 C 90.632 39, 93.095 40.972, 95.540 43.383 C 99.103 46.896, 99.721 47.986, 98.651 48.874 C 97.078 50.180, 96 49.374, 96 46.892 C 96 44.437, 94.220 43.573, 92.354 45.122 C 90.955 46.282, 90.992 46.575, 92.717 47.972 C 93.775 48.829, 95.170 51.049, 95.817 52.906 C 96.848 55.863, 96.713 56.792, 94.723 60.391 L 92.451 64.500 85.475 64.484 C 81.639 64.476, 74.106 64.084, 68.735 63.614 C 59.935 62.844, 59.032 62.920, 59.592 64.380 C 59.934 65.271, 61.236 66, 62.485 66 C 63.733 66, 65.312 66.671, 65.992 67.490 C 66.712 68.358, 68.121 68.758, 69.364 68.447 C 70.603 68.137, 73.599 68.979, 76.500 70.452 C 82.909 73.707, 84.284 73.682, 80.500 70.378 L 77.500 67.759 85.872 68.221 C 92.297 68.576, 94.459 69.069, 95.171 70.342 C 95.856 71.566, 97.509 72, 101.480 72 C 106.278 72, 106.895 72.241, 107.180 74.223 C 107.612 77.225, 114 77.861, 114 74.902 C 114 72.470, 117.917 71.497, 122.197 72.867 C 124.014 73.449, 127.873 74.226, 130.772 74.594 C 133.672 74.962, 136.286 75.654, 136.581 76.132 C 137.320 77.326, 141.741 77.228, 142.500 76 C 142.840 75.450, 144.183 75, 145.486 75 C 149.218 75, 149.611 67.646, 145.941 66.481 C 144.930 66.160, 143.829 65.036, 143.495 63.984 C 142.749 61.633, 137.537 60.499, 131.743 61.425 C 125.642 62.401, 116.091 59.369, 114.832 56.058 C 114.079 54.078, 114.257 53.281, 115.691 52.215 C 117.415 50.934, 117.394 50.783, 115.250 49.025 C 114.013 48.010, 113 46.449, 113 45.556 C 113 44.663, 111.406 42.992, 109.458 41.843 C 104.305 38.802, 105.820 36.359, 111.500 38.549 C 113.285 39.237, 113.242 39.038, 111.103 36.689 C 107.568 32.809, 102.570 31.397, 99.497 33.410 C 96.442 35.411, 94 35.451, 94 33.500 C 94 31.767, 89.485 31.406, 88.465 33.057 M 108 54 C 108 54.550, 108.450 55, 109 55 C 109.550 55, 110 54.550, 110 54 C 110 53.450, 109.550 53, 109 53 C 108.450 53, 108 53.450, 108 54 M 98.103 59.334 C 95.091 64.207, 95.798 65.938, 99.501 62.753 C 101.980 60.620, 102.263 59.904, 101.393 57.955 C 100.386 55.697, 100.338 55.717, 98.103 59.334 M 121.813 62.683 C 122.534 62.972, 123.397 62.936, 123.729 62.604 C 124.061 62.272, 123.471 62.036, 122.417 62.079 C 121.252 62.127, 121.015 62.364, 121.813 62.683" stroke="none" fill="black" fill-rule="evenodd"/>
</svg>