<svg xmlns="http://www.w3.org/2000/svg" width="192" height="144" viewBox="0 0 192 144" version="1.1">
	<path d="M 190.500 15 C 190.160 15.550, 190.359 16, 190.941 16 C 191.523 16, 192 15.550, 192 15 C 192 14.450, 191.802 14, 191.559 14 C 191.316 14, 190.840 14.450, 190.500 15 M 83.016 27.457 C 82.457 28.927, 82 31.027, 82 32.122 C 82 34.997, 84.121 43.334, 85.136 44.450 C 85.611 44.972, 86 46.631, 86 48.135 C 86 49.639, 86.403 51.929, 86.895 53.223 C 87.387 54.518, 88.113 59.031, 88.509 63.253 L 89.228 70.929 85.162 68.964 C 80.314 66.622, 75.707 66.436, 73.643 68.500 C 72.818 69.325, 71.661 70, 71.071 70 C 70.482 70, 69.948 70.563, 69.885 71.250 C 69.821 71.938, 69.665 72.950, 69.537 73.500 C 69.409 74.050, 69.236 75.279, 69.152 76.231 C 69.069 77.183, 67.908 78.236, 66.574 78.571 C 65.239 78.906, 63.412 79.992, 62.514 80.985 C 60.681 83.010, 57.030 96.774, 57.012 101.727 C 56.998 105.594, 60.482 108.416, 64.144 107.505 C 66.192 106.996, 66.786 107.545, 68.686 111.709 C 72.593 120.271, 81.289 135.397, 84.807 139.750 L 88.241 144 115.870 143.984 L 143.500 143.969 129.759 130.371 C 117.328 118.069, 116.084 116.522, 116.705 114.137 C 118.154 108.568, 117.398 93.621, 115.307 86.500 C 112.211 75.955, 110.478 72.413, 107.244 70.023 C 104.382 67.906, 102.535 63.195, 98.807 48.500 C 98.248 46.300, 97.406 43.506, 96.936 42.290 C 96.465 41.075, 95.775 37.786, 95.403 34.982 C 94.574 28.729, 92.630 26.301, 87.766 25.443 C 84.369 24.843, 83.941 25.024, 83.016 27.457" stroke="none" fill="black" fill-rule="evenodd"/>
</svg>