<svg xmlns="http://www.w3.org/2000/svg" width="192" height="144" viewBox="0 0 192 144" version="1.1">
	<path d="M 92.302 82.501 C 89.598 84.395, 88.489 89.176, 90.068 92.127 C 91.130 94.111, 90.915 94.687, 88.216 97.098 C 83.712 101.123, 82.655 103.571, 83.890 107.115 C 86.576 114.819, 92.137 119, 99.699 119 C 105.788 119, 109.152 115.710, 108.318 110.571 C 107.890 107.932, 108.197 106.440, 109.456 105.049 C 110.566 103.822, 110.943 102.394, 110.513 101.041 C 109.947 99.256, 109.327 99.036, 106.412 99.583 C 101.403 100.522, 97.514 96.924, 102 95.500 C 103.677 94.968, 104 93.987, 104 89.433 C 104 84.785, 103.729 84, 102.122 84 C 101.090 84, 99.685 83.325, 99 82.500 C 97.416 80.591, 95.029 80.591, 92.302 82.501" stroke="none" fill="black" fill-rule="evenodd"/>
</svg>