<svg xmlns="http://www.w3.org/2000/svg" width="192" height="144" viewBox="0 0 192 144" version="1.1">
	<path d="M -0 72.005 L -0 144.010 96.250 143.755 L 192.500 143.500 192.757 71.750 L 193.013 0 96.507 0 L 0 0 -0 72.005 M 0.474 72.500 C 0.474 112.100, 0.598 128.154, 0.750 108.176 C 0.901 88.198, 0.901 55.798, 0.750 36.176 C 0.598 16.554, 0.474 32.900, 0.474 72.500 M 91.052 38.705 C 91.024 39.917, 89.875 42.034, 88.500 43.409 C 86.932 44.977, 86 47.040, 86 48.942 C 86 51.354, 85.232 52.466, 82.250 54.374 C 76.363 58.141, 73.323 62.052, 72.612 66.773 C 71.983 70.952, 72.025 71.032, 74.485 70.414 C 75.923 70.053, 78.713 70.468, 81 71.383 C 83.236 72.278, 85 72.546, 85 71.992 C 85 71.446, 85.675 71, 86.500 71 C 87.325 71, 88 71.450, 88 72 C 88 72.550, 87.595 73, 87.100 73 C 86.605 73, 86.179 74.688, 86.154 76.750 C 85.981 90.902, 84.181 96.954, 77.571 105.611 C 73.114 111.448, 72.944 114.843, 76.960 117.812 C 78.587 119.015, 80.500 120.014, 81.210 120.032 C 81.919 120.049, 83.374 120.724, 84.441 121.532 C 85.509 122.339, 87.421 123, 88.691 123 C 90.590 123, 91 123.533, 91 126 C 91 129.030, 92.286 129.739, 94.842 128.119 C 95.951 127.416, 95.958 126.905, 94.880 125.179 C 93.415 122.833, 93.569 122.535, 96.755 121.555 C 99.499 120.712, 100.904 123.323, 99.186 126.074 C 98.257 127.561, 98.406 127.994, 100.019 128.506 C 103.051 129.468, 103.857 128.352, 103.273 124 C 102.851 120.849, 103.060 120, 104.260 120 C 107.101 120, 107.052 115.427, 104.114 106.358 C 100.068 93.870, 99.493 89.366, 101.865 88.746 C 104.209 88.133, 105.142 83.555, 103.393 81.251 C 101.808 79.163, 101.566 76.614, 103.040 77.525 C 103.695 77.930, 103.884 77.304, 103.550 75.834 C 101.939 68.734, 102.041 68.207, 105.330 66.671 C 107.073 65.857, 110.217 64.969, 112.316 64.697 C 114.414 64.425, 116.214 64.044, 116.316 63.851 C 118.155 60.349, 119.125 59.449, 121.351 59.184 C 124.340 58.827, 124.701 57.827, 122.500 56 C 121.675 55.315, 121 54.147, 121 53.403 C 121 51.387, 115.883 49.121, 109.688 48.393 C 105.194 47.865, 103.628 47.139, 101.020 44.374 C 99.270 42.518, 97.029 41, 96.041 41 C 95.052 41, 93.538 39.987, 92.674 38.750 L 91.105 36.500 91.052 38.705 M 100 84.941 C 100 86.073, 100.450 87, 101 87 C 101.550 87, 102 86.352, 102 85.559 C 102 84.766, 101.550 83.840, 101 83.500 C 100.450 83.160, 100 83.809, 100 84.941" stroke="none" fill="black" fill-rule="evenodd"/>
</svg>