<svg xmlns="http://www.w3.org/2000/svg" width="192" height="144" viewBox="0 0 192 144" version="1.1">
	<path d="M 63.755 4.805 C 65.052 18.301, 58.381 35.523, 48.086 45.257 C 35.961 56.720, 13.657 63.077, 1.750 58.464 C 0.100 57.825, 0 60.247, 0 100.893 L 0 144 52.385 144 L 104.770 144 105.474 138.250 C 105.862 135.088, 107.687 127.775, 109.531 122 C 111.374 116.225, 113.825 106.442, 114.977 100.261 C 117.506 86.691, 117.029 79.904, 113.376 77.510 C 110.821 75.836, 110.260 72.251, 112.035 68.934 C 113.349 66.479, 111.482 66.354, 106.238 68.545 C 102.967 69.912, 102.413 69.918, 101.450 68.601 C 100.837 67.762, 96.025 66.227, 90.430 65.086 C 84.969 63.972, 77.671 62.130, 74.213 60.994 C 70.755 59.858, 67.553 59.158, 67.097 59.440 C 66.640 59.722, 65.438 59.036, 64.423 57.915 C 62.963 56.301, 62.852 55.709, 63.890 55.068 C 65.240 54.234, 71.985 55.386, 74.906 56.950 C 75.812 57.435, 81.194 58.394, 86.865 59.081 C 95.266 60.099, 97.326 60.091, 97.977 59.037 C 98.417 58.326, 99.277 58.053, 99.888 58.431 C 100.500 58.809, 101 58.631, 101 58.036 C 101 57.295, 103.481 57.160, 108.849 57.608 C 116.289 58.228, 116.727 58.151, 117.255 56.131 C 117.594 54.837, 117.345 54, 116.622 54 C 115.150 54, 111.803 48.530, 112.716 47.617 C 113.081 47.252, 112.450 46.303, 111.314 45.508 C 108.527 43.556, 107.902 40.584, 109.730 37.975 C 110.920 36.276, 111.002 35.301, 110.120 33.363 C 107.333 27.247, 108.946 26.804, 120.153 30.613 C 129.498 33.789, 132.954 36.993, 133.664 43.138 C 133.941 45.537, 134.805 49.197, 135.584 51.270 C 136.363 53.344, 137 56.978, 137 59.346 C 137 62.589, 137.588 64.204, 139.383 65.890 C 141.025 67.433, 141.784 69.275, 141.823 71.814 C 141.854 73.841, 142.582 77.173, 143.440 79.218 C 144.298 81.263, 145.010 84.638, 145.022 86.718 C 145.033 88.798, 145.657 94.550, 146.408 99.500 C 147.158 104.450, 147.399 108.642, 146.942 108.815 C 146.486 108.988, 146.384 109.888, 146.716 110.815 C 147.047 111.742, 146.968 112.184, 146.540 111.798 C 146.112 111.411, 145.126 111.731, 144.350 112.507 C 143.134 113.723, 143.621 115.417, 147.860 124.710 C 150.568 130.644, 153.356 137.422, 154.056 139.771 L 155.329 144.043 173.915 143.771 L 192.500 143.500 192.825 129 C 193.003 121.025, 192.837 88.737, 192.455 57.250 L 191.761 0 127.527 -0 L 63.294 -0 63.755 4.805 M 0.459 101 C 0.459 124.925, 0.589 134.713, 0.749 122.750 C 0.908 110.788, 0.908 91.213, 0.749 79.250 C 0.589 67.288, 0.459 77.075, 0.459 101 M 137.983 87 C 137.536 89.782, 138.197 98.489, 138.961 99.875 C 140.361 102.414, 140.643 96.771, 139.405 91 C 138.756 87.975, 138.116 86.175, 137.983 87" stroke="none" fill="black" fill-rule="evenodd"/>
</svg>