<svg xmlns="http://www.w3.org/2000/svg" width="192" height="144" viewBox="0 0 192 144" version="1.1">
	<path d="M 0.235 29.250 L 0.500 58.500 10.852 59.395 C 19.052 60.103, 21.371 60.017, 22.011 58.982 C 23.289 56.915, 37.255 55.111, 52.424 55.053 L 66.349 55 64.101 52.608 C 62.865 51.292, 62.310 50.054, 62.868 49.858 C 63.426 49.661, 64.119 48.150, 64.408 46.500 C 65.087 42.629, 69.015 39.254, 73.754 38.469 C 80.157 37.409, 82.624 36.011, 84.302 32.493 C 85.192 30.626, 87.176 28.299, 88.710 27.322 C 90.245 26.345, 91.831 25.086, 92.235 24.523 C 92.639 23.960, 92.976 48.362, 92.985 78.750 L 93 134 90.469 134 C 87.751 134, 87.450 134.491, 86.648 140.250 C 86.132 143.957, 86.165 144, 89.563 144 C 92.298 144, 93 143.604, 93 142.059 C 93 138.999, 94.876 138.634, 96.156 141.444 C 97.252 143.847, 97.759 144, 104.661 144 C 109.878 144, 111.993 143.639, 111.976 142.750 C 111.963 142.063, 110.851 138.821, 109.505 135.547 C 107.338 130.275, 107.226 129.407, 108.529 127.968 C 110.616 125.662, 110.353 121.595, 107.800 116.710 C 106.590 114.395, 105.706 111.956, 105.835 111.290 C 106.134 109.747, 100.953 99.559, 97.580 95.056 C 94.332 90.720, 93.907 81.571, 96.788 78.013 C 98.573 75.809, 98.584 75.808, 101.988 77.710 C 104.715 79.234, 105.655 80.605, 106.680 84.558 C 107.385 87.276, 107.970 91.807, 107.981 94.628 C 108.001 100.093, 109.541 102.436, 112.702 101.808 C 113.914 101.567, 114.398 100.725, 114.187 99.225 C 113.691 95.693, 115.407 96.590, 120.456 102.500 C 123.040 105.525, 125.795 108, 126.577 108 C 128.762 108, 128.289 106.651, 125 103.500 C 121.631 100.273, 121.133 98.621, 123.750 99.358 C 129.876 101.083, 132 101.133, 132 99.554 C 132 98.572, 130.837 97.717, 129 97.350 C 125.968 96.744, 125.050 95.483, 127.134 94.789 C 127.866 94.545, 127.355 92.697, 125.690 89.570 C 123.166 84.828, 123.152 84.696, 125.026 83.114 C 126.391 81.962, 127.408 78.689, 128.580 71.672 C 130.213 61.897, 130.211 61.836, 128.111 60.365 C 126.950 59.552, 126 57.842, 126 56.566 C 126 55.289, 125.395 53.742, 124.654 53.128 C 123.914 52.514, 122.520 50.263, 121.556 48.125 C 120.299 45.337, 119.317 44.366, 118.082 44.689 C 117.135 44.936, 115.774 44.433, 115.058 43.570 C 113.965 42.253, 114.017 42, 115.378 42 C 117.435 42, 117.417 41.771, 115 37.261 C 113.900 35.209, 113 32.322, 113 30.847 C 113 29.371, 112.727 27.452, 112.393 26.582 C 111.727 24.847, 108.469 24.432, 107.524 25.962 C 106.822 27.098, 102.308 25.588, 99.906 23.415 C 99.027 22.620, 97.226 22.088, 95.904 22.234 C 93.507 22.499, 93.499 22.469, 93.217 11.250 L 92.934 0 46.452 0 L -0.030 0 0.235 29.250 M 72.315 41.007 C 71.114 41.491, 69.653 42.780, 69.069 43.871 C 67.957 45.948, 68.575 49, 70.107 49 C 70.598 49, 71 49.620, 71 50.378 C 71 51.135, 71.722 52.354, 72.605 53.087 C 73.991 54.237, 74.604 53.947, 77.105 50.959 C 79.044 48.642, 79.834 46.777, 79.496 45.311 C 79.219 44.107, 79.444 42.843, 79.996 42.502 C 83.498 40.338, 77.078 39.088, 72.315 41.007 M 105.353 53.984 C 105.025 55.625, 104.392 56.743, 103.947 56.467 C 103.502 56.192, 102.893 56.364, 102.593 56.850 C 102.293 57.335, 100.912 57.515, 99.524 57.249 C 98.044 56.966, 97 57.229, 97 57.883 C 97 58.498, 98.125 59, 99.500 59 C 100.875 59, 102.934 59.934, 104.075 61.075 C 106.958 63.958, 111.969 64.584, 115.898 62.553 L 119.105 60.894 116.302 57.614 C 113.538 54.378, 108.733 51, 106.894 51 C 106.375 51, 105.681 52.343, 105.353 53.984 M 79.500 54 C 79.143 54.577, 80.070 54.994, 81.691 54.985 C 83.872 54.973, 84.165 54.753, 83 54 C 81.079 52.758, 80.267 52.758, 79.500 54 M 40 64.880 C 40 66.469, 39.032 66.833, 33.750 67.233 C 30.313 67.494, 24.350 67.314, 20.500 66.833 C 16.650 66.353, 10.463 66.252, 6.750 66.609 L 0 67.258 0 105.629 L 0 144 36 144 L 72 144 71.998 139.750 C 71.995 135.598, 71.864 135.432, 66.315 132.532 C 52.981 125.564, 51.814 121.625, 61.615 116.665 C 64.129 115.393, 64.862 114.265, 65.412 110.827 C 65.786 108.484, 67.169 103.402, 68.483 99.533 C 69.798 95.665, 71.377 88, 71.993 82.500 C 72.609 77, 73.342 71.713, 73.624 70.750 C 74.030 69.358, 73.519 69, 71.124 69 C 69.208 69, 67.583 68.243, 66.655 66.918 C 64.290 63.542, 58.111 63.250, 53.398 66.291 C 49.519 68.793, 45 70.591, 45 69.631 C 45 69.355, 46.782 68.127, 48.959 66.903 C 51.137 65.679, 52.685 64.300, 52.400 63.839 C 51.335 62.115, 49.040 63.118, 45.079 67.039 C 42.836 69.260, 40.944 70.835, 40.875 70.539 C 40.337 68.220, 40.618 67.218, 42.359 65.250 L 44.349 63 42.174 63 C 40.713 63, 40 63.616, 40 64.880 M 115.692 85.360 C 114.320 88.935, 115.010 91.862, 117.726 93.999 C 121.316 96.823, 121.590 95.435, 118.731 88.912 C 116.901 84.736, 116.232 83.954, 115.692 85.360" stroke="none" fill="black" fill-rule="evenodd"/>
</svg>