<svg xmlns="http://www.w3.org/2000/svg" width="192" height="144" viewBox="0 0 192 144" version="1.1">
	<path d="M 70.646 59.009 C 68.516 61.540, 68.056 62.948, 68.411 65.848 C 68.656 67.857, 68.890 70.047, 68.929 70.715 C 68.968 71.384, 70.370 73.491, 72.045 75.398 C 74.278 77.942, 75.349 80.479, 76.064 84.920 C 76.601 88.249, 77.472 92.112, 78.002 93.505 C 79.236 96.750, 83.113 98.288, 86.663 96.938 C 89.898 95.708, 90.130 95.956, 92.804 103.509 C 95.065 109.895, 95.402 113.214, 94.401 119.258 C 93.601 124.093, 96.200 130, 99.127 130 C 101.687 130, 117.752 124.378, 120.715 122.445 C 126.020 118.984, 126.534 122.248, 121.500 127.432 C 119.575 129.415, 118 131.423, 118 131.896 C 118 132.368, 117.354 133.291, 116.564 133.947 C 114.744 135.458, 113.506 140.906, 114.710 142.110 C 115.923 143.323, 125.221 137.166, 124.337 135.735 C 123.926 135.072, 124.265 134.888, 125.221 135.255 C 126.182 135.623, 127.859 134.695, 129.635 132.811 C 131.211 131.140, 134.108 128.744, 136.073 127.486 C 138.038 126.228, 142.408 122.504, 145.785 119.210 C 151.653 113.486, 151.883 113.078, 150.993 109.975 C 150.481 108.189, 149.876 106.542, 149.648 106.315 C 149.421 106.087, 147.544 107.048, 145.478 108.451 C 143.411 109.853, 141.347 111, 140.890 111 C 140.433 111, 138.027 112.432, 135.544 114.182 C 133.062 115.932, 130.768 117.102, 130.448 116.781 C 129.900 116.233, 132.442 110.929, 137.054 103 C 139.498 98.800, 139.013 94.665, 135.758 91.950 C 133.852 90.360, 131.707 90.051, 122 89.970 C 111.647 89.883, 109.957 89.605, 105.054 87.187 C 101.584 85.475, 98.910 83.304, 97.684 81.203 C 96.626 79.389, 95.957 77.710, 96.196 77.470 C 96.436 77.231, 98.054 77.572, 99.793 78.228 C 102.529 79.261, 103.571 79.121, 107.546 77.190 C 112.349 74.856, 113.085 72.713, 109.795 70.641 C 108.451 69.794, 107.550 70.074, 105.537 71.965 L 102.984 74.364 99.772 71.990 C 97.240 70.117, 95.430 69.648, 91.210 69.769 C 87.393 69.879, 85.987 69.575, 86.305 68.711 C 86.550 68.045, 87.256 67.613, 87.875 67.750 C 89.374 68.083, 89.293 66.637, 87.585 62.548 C 85.920 58.564, 84.120 57.440, 77.914 56.510 C 73.613 55.865, 73.161 56.020, 70.646 59.009" stroke="none" fill="black" fill-rule="evenodd"/>
</svg>