<svg xmlns="http://www.w3.org/2000/svg" width="192" height="144" viewBox="0 0 192 144" version="1.1">
	<path d="M 0 28.970 L 0 57.940 3.640 55.470 C 6.779 53.339, 24.815 47, 27.736 47 C 31.173 47, 40.508 41.261, 47.284 34.982 C 53.781 28.963, 55.930 27.578, 60.275 26.614 C 66.128 25.314, 67.320 23.320, 64.145 20.145 C 61.837 17.837, 62.425 16.622, 65.145 18.078 C 67.319 19.241, 73.490 18.331, 74.859 16.645 C 75.370 16.015, 75.993 12.756, 76.242 9.402 C 76.491 6.048, 77.019 2.778, 77.416 2.135 C 78.657 0.128, 80.147 2.057, 79.898 5.351 C 79.768 7.083, 79.968 9.850, 80.344 11.500 C 80.719 13.150, 80.594 15.992, 80.065 17.815 C 78.878 21.903, 80.238 25.332, 83.667 26.894 C 86.320 28.103, 85.891 30.399, 83.166 29.581 C 82.250 29.306, 80.667 29.708, 79.650 30.474 C 77.882 31.805, 77.938 32.040, 80.888 35.711 C 82.853 38.157, 84.198 41.183, 84.583 44.028 C 85.115 47.946, 84.875 48.794, 82.647 50.875 C 81.249 52.181, 78.919 53.250, 77.469 53.250 C 75.414 53.250, 74.937 53.651, 75.307 55.065 C 75.641 56.343, 74.637 57.636, 71.912 59.440 C 69.784 60.848, 67.499 62, 66.834 62 C 66.170 62, 66.793 63.237, 68.219 64.750 C 70.170 66.818, 71.083 69.280, 71.905 74.680 C 72.931 81.427, 74.478 87, 75.326 87 C 75.533 87, 77.119 86.506, 78.851 85.902 C 81.535 84.967, 82 84.311, 82 81.467 C 82 76.739, 83.503 73.372, 86.487 71.417 C 89.879 69.194, 90.822 70.339, 88.640 74.033 C 86.797 77.153, 87.138 79, 89.559 79 C 91.341 79, 91.349 79.410, 89.633 82.800 C 88.882 84.285, 88.041 88.445, 87.765 92.045 C 87.076 101.029, 85.202 104.310, 79.819 105.952 C 77.443 106.677, 73.925 107.751, 72 108.339 C 70.075 108.927, 68.173 109.666, 67.773 109.981 C 67.143 110.477, 68.069 126.227, 69.449 138.500 C 69.696 140.700, 69.921 142.838, 69.949 143.250 C 69.977 143.662, 82.570 144, 97.933 144 L 125.865 144 126.631 141.750 C 127.052 140.512, 127.299 139.138, 127.180 138.696 C 127.061 138.254, 126.711 131.729, 126.402 124.196 C 126.094 116.663, 125.704 110.036, 125.536 109.469 C 125.368 108.901, 122.816 107.856, 119.865 107.145 C 107.966 104.280, 106.302 102.342, 105.047 89.894 C 104.600 85.462, 103.732 81.332, 103.117 80.717 C 101.490 79.090, 101.736 78.302, 104.065 77.693 C 106.059 77.172, 106.073 77.041, 104.471 73.944 C 102.136 69.429, 104.402 68.053, 108.193 71.684 C 110.325 73.727, 110.969 75.372, 111.203 79.372 C 111.468 83.908, 111.799 84.566, 114.255 85.425 C 116.085 86.066, 117.357 86.043, 118.044 85.356 C 118.613 84.787, 119.916 80.144, 120.940 75.038 C 122.173 68.892, 123.491 65.064, 124.839 63.717 L 126.874 61.681 123.687 59.813 C 121.934 58.786, 119.726 57.684, 118.781 57.364 C 117.795 57.031, 117.155 55.922, 117.281 54.765 C 117.438 53.318, 116.808 52.635, 115.052 52.350 C 111.118 51.710, 109 49.107, 109 44.910 C 109 39.768, 110.469 36.299, 114.070 32.935 L 117.100 30.104 114.957 24.802 C 111.271 15.685, 111 14.934, 111 13.831 C 111 13.182, 111.662 13.300, 112.666 14.128 C 114.174 15.370, 114.262 15.219, 113.591 12.527 C 112.890 9.715, 112.949 9.640, 114.675 11.143 C 115.679 12.017, 117.744 13.027, 119.263 13.388 C 121.555 13.933, 121.927 14.443, 121.441 16.380 C 121.118 17.665, 121.512 20.290, 122.316 22.215 C 123.752 25.652, 123.886 25.715, 129.848 25.800 C 136.928 25.900, 138.738 26.721, 144.896 32.622 C 152.320 39.735, 156.280 41.075, 172.960 42.112 C 193.300 43.378, 191.842 42.724, 192.259 50.758 C 192.451 54.466, 192.696 44.563, 192.804 28.750 L 193 0 96.500 0 L 0 0 0 28.970 M 0.441 29.500 C 0.442 45.450, 0.580 51.835, 0.748 43.689 C 0.916 35.543, 0.916 22.493, 0.747 14.689 C 0.579 6.885, 0.441 13.550, 0.441 29.500 M 141.416 63.735 C 143.424 70.060, 145.107 80.956, 145.666 91.235 C 146.519 106.938, 147.292 108.197, 157.469 110.461 C 166.239 112.412, 171.539 114.980, 177.386 120.110 C 179.649 122.095, 183.843 124.906, 186.706 126.355 L 191.912 128.989 192.327 136.245 C 192.555 140.235, 192.648 127.410, 192.533 107.745 C 192.417 88.079, 192.109 71.776, 191.848 71.515 C 191.587 71.254, 187.352 70.770, 182.437 70.439 C 175.980 70.005, 173.916 70.134, 175 70.904 C 176.103 71.687, 176.154 71.973, 175.191 71.985 C 174.471 71.993, 174.160 72.450, 174.500 73 C 174.840 73.550, 174.883 74, 174.596 74 C 173.710 74, 163.901 70.012, 158.479 67.447 C 155.647 66.107, 150.971 64.563, 148.088 64.017 C 145.204 63.470, 142.382 62.736, 141.816 62.386 C 141.173 61.989, 141.023 62.496, 141.416 63.735 M 45.313 67.829 C 42.460 68.763, 37.960 71.090, 35.313 73.001 C 25.418 80.144, 22.485 81.505, 23.677 78.399 C 24.229 76.961, 23.960 76.969, 21.032 78.483 C 19.239 79.410, 15.973 80.804, 13.772 81.580 C 11.572 82.356, 7.815 84.231, 5.423 85.746 L 1.073 88.500 1.037 116.250 L 1 144 3.808 144 C 8.992 144, 23.300 132.385, 35.103 118.597 C 40.934 111.784, 45.997 105.451, 46.353 104.523 C 46.709 103.595, 47.008 99.836, 47.018 96.168 C 47.035 89.885, 48.954 74.822, 50.512 68.750 C 50.899 67.237, 51.056 66.030, 50.858 66.066 C 50.661 66.103, 48.166 66.896, 45.313 67.829 M 6.815 80.902 C 2.424 83.687, 0.381 85.715, 1.171 86.504 C 1.375 86.708, 2.987 85.666, 4.754 84.188 C 6.520 82.709, 8.986 80.733, 10.233 79.795 C 13.850 77.074, 11.809 77.735, 6.815 80.902 M 74.956 95.185 C 70.190 97.376, 70.962 98.605, 76.457 97.574 C 79.612 96.982, 81.813 94.621, 80.162 93.600 C 79.749 93.345, 77.406 94.058, 74.956 95.185 M 113 94.389 C 113 95.728, 119.659 97.674, 120.695 96.638 C 121.257 96.077, 115.637 93, 114.050 93 C 113.472 93, 113 93.625, 113 94.389" stroke="none" fill="black" fill-rule="evenodd"/>
</svg>