<svg xmlns="http://www.w3.org/2000/svg" width="192" height="144" viewBox="0 0 192 144" version="1.1">
	<path d="M 0 72 L 0 144 6 144 L 12 144 12.216 138.250 C 12.617 127.575, 12.011 123.873, 8.522 115.673 C 3.343 103.502, 1.905 96.872, 1.325 82.500 C 0.692 66.831, 2.479 54.285, 7.448 39.513 C 9.486 33.453, 10.457 29.125, 9.908 28.550 C 9.409 28.027, 9 26.731, 9 25.669 C 9 24.033, 9.517 23.822, 12.388 24.288 C 16.625 24.976, 32.282 31.648, 35.384 34.087 C 38.278 36.364, 73.551 49.763, 77.461 50.070 C 77.989 50.112, 78.955 48.604, 79.608 46.719 C 80.773 43.355, 80.732 43.268, 77.397 41.960 C 75.529 41.227, 74 40.453, 74 40.241 C 74 38.943, 89.498 24.793, 93.467 22.467 C 97.796 19.930, 98.559 19.778, 101.379 20.899 C 103.096 21.581, 106.604 22.790, 109.175 23.586 C 115.903 25.669, 120.968 32.729, 120.994 40.061 C 121.002 42.076, 117.660 45.656, 114.979 46.507 C 113.830 46.871, 113.075 47.694, 113.300 48.335 C 113.711 49.501, 108.365 55, 106.820 55 C 104.937 55, 106.199 57.125, 108.631 58.050 C 110.077 58.600, 112.440 59.884, 113.881 60.904 C 117.563 63.511, 138.362 69.218, 145.231 69.506 C 148.898 69.660, 152.858 70.658, 156.231 72.279 C 159.129 73.671, 168.363 76.269, 176.750 78.051 L 192 81.291 192 85.047 L 192 88.804 187.750 87.483 C 185.412 86.756, 180.800 85.295, 177.500 84.236 C 174.200 83.177, 168.210 81.471, 164.189 80.446 L 156.877 78.583 154.345 81.819 C 151.331 85.669, 146.954 88.017, 134.144 92.654 C 128.228 94.796, 123.246 95.994, 121.048 95.805 C 117.680 95.515, 117.484 95.671, 117.178 98.859 C 116.956 101.187, 117.482 102.885, 118.893 104.386 C 120.146 105.719, 120.725 107.337, 120.397 108.588 C 120.034 109.979, 121.269 112.503, 124.301 116.561 C 126.740 119.828, 129.482 123.963, 130.394 125.750 C 131.997 128.893, 131.984 129, 130.026 129 C 127.565 129, 127.570 128.886, 129.717 137.264 L 131.450 144.028 161.975 143.764 L 192.500 143.500 192.757 71.750 L 193.013 0 96.507 0 L 0 0 0 72 M 0.474 72.500 C 0.474 112.100, 0.598 128.154, 0.750 108.176 C 0.901 88.198, 0.901 55.798, 0.750 36.176 C 0.598 16.554, 0.474 32.900, 0.474 72.500 M 28.994 42.012 C 25.207 49.434, 21.906 59.547, 20.521 67.970 C 17.121 88.638, 17.496 95.074, 23.173 113.500 C 26.853 125.445, 26.879 126.817, 23.566 134.279 C 19.149 144.226, 18.900 144, 34.265 144 L 47.531 144 53.711 138.119 C 58.936 133.147, 71.218 124, 72.669 124 C 72.911 124, 75.706 122.237, 78.880 120.081 C 84.754 116.093, 95 105.719, 95 103.760 C 95 103.167, 92.075 99.884, 88.500 96.464 C 81.003 89.292, 80.605 87.591, 84.859 80.883 C 86.431 78.404, 87.984 75.053, 88.309 73.438 C 91.227 58.925, 91.246 57.721, 88.524 59.980 C 87.586 60.759, 87 60.839, 87 60.189 C 87 59.608, 85.876 59.336, 84.503 59.585 C 82.679 59.916, 81.264 59.252, 79.253 57.120 C 77.319 55.070, 73.041 52.980, 64.872 50.095 C 58.477 47.836, 49.927 44.618, 45.872 42.945 C 41.817 41.271, 36.799 39.519, 34.720 39.051 C 31.041 38.222, 30.887 38.302, 28.994 42.012 M 116.445 68.089 C 116.164 68.543, 117.328 71.522, 119.031 74.708 C 120.836 78.083, 121.949 81.449, 121.698 82.774 C 121.462 84.024, 121.582 85.241, 121.965 85.478 C 122.348 85.715, 127.125 84.681, 132.581 83.180 C 141.848 80.630, 142.521 80.271, 142.817 77.719 C 143.187 74.535, 143.780 74.832, 128.376 70.486 C 122.094 68.713, 116.726 67.635, 116.445 68.089 M 91.167 85.658 C 90.120 86.786, 90.092 87.406, 91.039 88.547 C 92.670 90.513, 94.003 90.378, 93.985 88.250 C 93.958 85.235, 92.664 84.045, 91.167 85.658" stroke="none" fill="black" fill-rule="evenodd"/>
</svg>