<svg xmlns="http://www.w3.org/2000/svg" width="192" height="144" viewBox="0 0 192 144" version="1.1">
	<path d="M 38.191 2.750 C 39.429 5.718, 43.804 9.987, 45.615 9.995 C 48.489 10.008, 51.789 14.108, 52.445 18.481 C 53.024 22.344, 53.459 23, 55.439 23 C 60.579 23, 72.309 26.362, 74.845 28.563 L 77.500 30.866 74 32.330 C 72.075 33.136, 67.033 34.349, 62.796 35.027 L 55.092 36.260 57.046 40.090 C 59.541 44.981, 59.592 46.846, 57.171 44.655 C 54.472 42.212, 54.247 42.519, 54.769 47.946 C 55.338 53.874, 54.313 59.124, 53 57 C 52.335 55.924, 51.846 56.245, 50.865 58.397 C 49.747 60.851, 49.510 60.966, 48.906 59.345 C 48.303 57.723, 48.092 57.825, 47.158 60.189 C 46.574 61.668, 45.140 63.390, 43.972 64.015 C 42.008 65.066, 41.934 64.991, 42.988 63.023 C 43.614 61.853, 43.979 60.131, 43.798 59.198 C 43.575 58.047, 42.886 58.728, 41.658 61.312 C 39.575 65.697, 40.516 70.272, 44.003 72.715 C 47.163 74.928, 46.514 77.887, 42.500 79.564 C 40.275 80.494, 39 81.706, 39 82.891 C 39 85.525, 36.450 87.319, 33.506 86.756 C 30.617 86.204, 30.183 87.435, 32.750 88.897 C 34.210 89.728, 34.292 90.192, 33.248 91.697 C 32.559 92.688, 31.547 94.625, 30.998 96 C 28.382 102.560, 26.359 103.153, 17.160 100.054 C 13.807 98.924, 10.824 98, 10.532 98 C 10.239 98, 10 100.647, 10 103.881 C 10 109.510, 10.161 109.884, 13.750 112.581 C 15.813 114.130, 20.425 118.138, 24 121.487 C 27.575 124.835, 31.772 128.215, 33.327 128.998 C 34.883 129.780, 36.629 131.339, 37.208 132.460 C 37.787 133.582, 40.544 136.637, 43.336 139.250 L 48.410 144 97.525 144 L 146.640 144 150.788 140.450 C 155.736 136.214, 158.469 132.490, 159.373 128.750 C 159.921 126.483, 159.705 126, 158.141 126 C 152.663 126, 154.279 118.836, 160.638 114.929 C 162.762 113.624, 166.874 110.901, 169.776 108.877 L 175.051 105.197 171.560 101.495 C 169.640 99.459, 167.811 96.980, 167.496 95.986 C 167.180 94.992, 165.777 93.429, 164.377 92.512 C 162.978 91.595, 161.189 89.304, 160.403 87.422 C 159.617 85.540, 158.390 84, 157.678 84 C 156.965 84, 155.529 83.376, 154.487 82.614 C 152.666 81.283, 152.717 81.086, 155.796 77.579 C 159.452 73.415, 159.650 72.158, 157.348 67.707 C 155.908 64.921, 155.612 64.755, 155.035 66.401 C 154.425 68.139, 154.205 68.077, 152.266 65.611 C 150.444 63.295, 150.104 63.174, 149.750 64.717 C 149.416 66.170, 149.091 65.986, 147.996 63.722 C 147.049 61.763, 146.423 61.315, 145.873 62.205 C 144.908 63.767, 142 57.255, 142 53.532 C 142 50.558, 141.246 50.337, 139.333 52.750 C 138.032 54.390, 137.963 54.375, 138.223 52.500 C 138.471 50.709, 138.014 50.534, 133.850 50.822 C 129.569 51.119, 128.980 50.868, 126.413 47.651 L 123.625 44.156 119.879 46.312 C 117.819 47.497, 115.811 48.144, 115.415 47.749 C 115.020 47.353, 116.043 44.313, 117.689 40.992 C 119.981 36.369, 121.801 34.244, 125.457 31.925 C 128.082 30.260, 129.996 28.662, 129.708 28.375 C 128.978 27.645, 123.389 30.612, 117.703 34.749 C 108.987 41.091, 110.002 36.721, 121.090 20.169 C 129.209 8.050, 135.631 1, 138.554 1 C 140.213 1, 143 6.621, 143 9.968 C 143 13.414, 144.368 12.237, 147.623 5.992 L 150.745 0 93.894 -0 L 37.043 -0 38.191 2.750 M 132.711 10.238 C 128.772 15.115, 121 26.455, 121 27.326 C 121 27.646, 123.801 26.856, 127.224 25.569 C 132.828 23.462, 133.721 22.722, 136.202 18.130 C 138.227 14.381, 138.795 12.226, 138.349 9.995 C 138.015 8.325, 137.384 6.737, 136.947 6.467 C 136.511 6.197, 134.604 7.894, 132.711 10.238 M 159.183 118.217 C 157.773 119.627, 157.616 122, 158.933 122 C 159.915 122, 161.474 118.141, 160.775 117.441 C 160.550 117.217, 159.834 117.566, 159.183 118.217 M 25 128 C 25 128.550, 25.450 129, 26 129 C 26.550 129, 27 128.550, 27 128 C 27 127.450, 26.550 127, 26 127 C 25.450 127, 25 127.450, 25 128" stroke="none" fill="black" fill-rule="evenodd"/>
</svg>