<svg xmlns="http://www.w3.org/2000/svg" width="192" height="144" viewBox="0 0 192 144" version="1.1">
	<path d="M 128.358 0.991 C 126.422 1.773, 126.207 2.655, 126.118 10.178 C 126.011 19.305, 126.541 20.945, 129.515 20.678 C 130.893 20.554, 131.411 21.030, 131.210 22.234 C 131.008 23.439, 131.389 23.788, 132.460 23.377 C 133.453 22.996, 134 23.357, 134 24.393 C 134 25.277, 134.450 26, 135 26 C 135.550 26, 136 27.139, 136 28.532 C 136 30.359, 133.573 33.567, 127.269 40.069 C 117.289 50.363, 115.691 52.550, 118.894 51.534 C 121.565 50.686, 121.539 51.002, 118.444 57.111 C 114.802 64.298, 114.366 70.059, 116.825 78.500 C 117.947 82.350, 119.138 87.574, 119.472 90.109 C 120.025 94.296, 119.842 94.874, 117.473 96.426 C 116.039 97.365, 114.103 98.891, 113.170 99.817 C 112.237 100.743, 107.764 104.762, 103.230 108.750 C 95.149 115.858, 94.880 116, 89.529 116 C 84.877 116, 83.900 115.667, 82.915 113.750 C 82.280 112.513, 80.364 110.025, 78.657 108.222 C 75.979 105.393, 75.721 104.676, 76.777 102.986 C 77.450 101.909, 78 100.394, 78 99.621 C 78 98.847, 78.675 97.955, 79.500 97.638 C 81.577 96.842, 81.375 93.780, 78.937 89.104 C 76.983 85.354, 76.680 85.176, 73.187 85.720 C 64.072 87.139, 62.415 89.255, 60.515 101.898 C 59.767 106.881, 58.382 113.556, 57.439 116.729 C 54.418 126.895, 56.161 144, 60.218 144 C 61.198 144, 62.007 143.438, 62.015 142.750 C 62.026 141.917, 62.354 142, 63 143 C 63.533 143.825, 63.976 144.212, 63.985 143.860 C 63.993 143.509, 64.640 139.684, 65.422 135.360 C 66.204 131.037, 67.147 124.822, 67.519 121.548 C 68.463 113.226, 70.156 116.643, 69.839 126.232 C 69.706 130.229, 69.971 135.863, 70.428 138.750 L 71.258 144 84.104 144 L 96.950 144 95.901 141.250 C 94.965 138.797, 95.177 138.228, 97.862 135.980 C 101.310 133.094, 115.468 125, 117.068 125 C 117.655 125, 117.903 125.787, 117.619 126.750 C 117.336 127.712, 116.606 131.341, 115.997 134.812 C 115.388 138.284, 114.641 141.772, 114.338 142.562 C 113.865 143.794, 118.318 144, 145.393 144 C 166.250 144, 177 143.652, 177 142.978 C 177 140.689, 170.757 128.430, 164.577 118.586 C 160.960 112.823, 158 107.467, 158 106.684 C 158 105.901, 157.100 102.443, 156 99 C 153.539 91.295, 153.476 82.021, 155.820 72.301 C 157.710 64.464, 161.337 59.205, 163.574 61.061 C 165.416 62.590, 165.880 61.119, 165.817 53.948 C 165.716 42.456, 165.720 42.437, 167.829 44.345 C 170.218 46.507, 170.633 46.439, 171.451 43.750 C 171.865 42.387, 172.338 41.993, 172.651 42.750 C 173.372 44.496, 175.062 44.324, 174.390 42.573 C 173.981 41.509, 174.411 41.295, 176.079 41.731 C 177.966 42.224, 178.231 41.990, 177.771 40.233 C 177.359 38.658, 177.599 38.293, 178.755 38.736 C 180.023 39.223, 180.167 38.703, 179.599 35.675 C 179.222 33.669, 178.044 30.109, 176.979 27.764 C 174.396 22.073, 174.498 20.390, 177.880 12.888 C 179.464 9.375, 181.075 5.038, 181.459 3.250 L 182.159 0 156.329 0.063 C 142.123 0.098, 129.536 0.516, 128.358 0.991 M 175 32.878 C 175 33.360, 175.749 34.373, 176.664 35.128 C 178.172 36.372, 178.216 36.290, 177.129 34.250 C 175.889 31.923, 175 31.350, 175 32.878" stroke="none" fill="black" fill-rule="evenodd"/>
</svg>