<svg xmlns="http://www.w3.org/2000/svg" width="192" height="144" viewBox="0 0 192 144" version="1.1">
	<path d="M 49.528 35.816 C 50.612 36.815, 55.520 39.337, 60.433 41.420 C 76.422 48.198, 89.619 60.441, 91.385 70.132 C 92.164 74.408, 97.068 81.569, 99.814 82.441 C 100.872 82.777, 104.706 87.011, 108.333 91.850 C 111.961 96.690, 118.657 104.244, 123.214 108.637 C 132.215 117.313, 139.493 127.024, 139.512 130.383 C 139.519 131.547, 140.153 135.088, 140.921 138.250 L 142.318 144 167.159 144 L 192 144 192 121.125 L 192 98.250 188.875 97.625 C 187.156 97.281, 180.655 97, 174.427 97 C 164.292 97, 162.234 96.681, 154.802 93.954 C 140.184 88.590, 137.667 87.027, 136.202 82.400 C 135.488 80.144, 133.388 76.830, 131.535 75.034 C 128.646 72.234, 127.457 71.769, 123.177 71.769 L 118.187 71.769 107.594 61.004 C 101.767 55.082, 96.990 49.622, 96.978 48.869 C 96.924 45.518, 92.970 39.036, 90.062 37.532 C 87.528 36.222, 86.226 36.131, 82.877 37.033 C 78.590 38.187, 72.205 38.128, 70.500 36.918 C 69.185 35.985, 56.151 34, 51.336 34 C 47.626 34, 47.592 34.034, 49.528 35.816" stroke="none" fill="black" fill-rule="evenodd"/>
</svg>