<svg xmlns="http://www.w3.org/2000/svg" width="192" height="144" viewBox="0 0 192 144" version="1.1">
	<path d="M 118.035 1.250 C 118.055 1.938, 118.714 3.625, 119.500 5 C 121.551 8.587, 121.496 8.674, 116.101 10.467 C 105.373 14.030, 96.363 22.671, 93.571 32.074 C 92.792 34.697, 91.625 37.833, 90.977 39.042 C 90.182 40.528, 90.157 41.021, 90.900 40.562 C 91.631 40.110, 92 41.249, 92 43.958 C 92 47.506, 92.606 48.614, 96.679 52.517 C 99.252 54.983, 101.952 57, 102.679 57 C 104.544 57, 104.323 58.320, 101.952 61.334 L 99.904 63.937 101.952 65.691 C 103.078 66.655, 104 67.968, 104 68.607 C 104 69.247, 105.125 70.507, 106.500 71.408 C 107.875 72.309, 109 73.656, 109 74.401 C 109 75.146, 109.675 76.315, 110.500 77 C 111.325 77.685, 112 79.735, 112 81.557 C 112 83.379, 112.437 86.019, 112.971 87.424 C 113.505 88.828, 114.244 92.923, 114.613 96.524 C 115.223 102.486, 115.077 103.289, 112.967 105.535 C 110.384 108.284, 109 108.675, 109 106.655 C 109 105.915, 108.104 104.499, 107.009 103.508 C 102.608 99.525, 99.722 92.915, 99.578 86.490 C 99.358 76.637, 95.709 72.814, 87.111 73.427 C 84.168 73.636, 83 73.333, 83 72.360 C 83 71.612, 82.502 71, 81.893 71 C 81.284 71, 81.046 71.679, 81.365 72.508 C 81.772 73.569, 80.645 74.627, 77.568 76.073 C 75.162 77.204, 72.536 78.888, 71.734 79.815 C 67.510 84.694, 69.243 97.160, 74.946 102.914 C 76.901 104.886, 79.320 106.950, 80.323 107.500 C 82.071 108.459, 82.058 108.705, 80.001 113.500 C 78.613 116.734, 77.536 122.209, 76.952 129 C 76.455 134.775, 75.760 140.512, 75.407 141.750 L 74.767 144 89.731 144 C 104.260 144, 104.726 143.935, 105.780 141.750 L 106.865 139.500 106.932 141.750 L 107 144 140.417 144 C 171.373 144, 174.171 143.856, 178.402 142.042 C 181.547 140.694, 182.797 139.635, 182.417 138.643 C 182.112 137.851, 182.352 136.901, 182.948 136.532 C 184.741 135.424, 183.162 134.147, 180.749 134.754 C 179.512 135.065, 176.154 136.631, 173.288 138.234 L 168.075 141.148 167.569 138.824 C 167.290 137.546, 165.473 129.915, 163.531 121.867 C 161.589 113.819, 160 106.873, 160 106.430 C 160 104.777, 165.862 111.314, 166.438 113.610 C 166.768 114.924, 167.451 116, 167.956 116 C 168.790 116, 168.675 113.513, 167.485 105.794 C 167.180 103.817, 167.433 103.229, 168.427 103.610 C 169.533 104.035, 169.606 103.291, 168.822 99.613 C 168.292 97.128, 168.010 93.835, 168.195 92.297 C 168.518 89.617, 168.589 89.667, 169.896 93.500 C 170.646 95.700, 172.365 99.300, 173.716 101.500 C 175.917 105.084, 176.106 105.202, 175.538 102.633 C 175.189 101.057, 174.678 98.357, 174.404 96.633 L 173.904 93.500 175.702 95.946 C 176.691 97.291, 178.325 99.316, 179.334 100.446 C 181.129 102.457, 181.153 102.458, 180.502 100.500 C 180.136 99.400, 179.232 88.600, 178.493 76.500 C 177.078 53.333, 175.004 40.977, 170.657 29.819 C 169.302 26.344, 167.677 21.848, 167.046 19.829 C 165.475 14.809, 160.659 8.392, 157.069 6.536 C 155.436 5.691, 152.353 5, 150.219 5 C 147.103 5, 146.074 4.507, 145 2.500 C 143.680 0.033, 143.494 0, 130.831 0 C 121.214 0, 118.009 0.313, 118.035 1.250" stroke="none" fill="black" fill-rule="evenodd"/>
</svg>