<svg xmlns="http://www.w3.org/2000/svg" width="192" height="144" viewBox="0 0 192 144" version="1.1">
	<path d="M 0 57 L 0 114 4.428 114 L 8.856 114 9.534 108.576 C 9.907 105.592, 9.933 102.701, 9.593 102.151 C 8.399 100.219, 11.174 96.215, 14.114 95.627 C 16.631 95.124, 17 94.606, 17 91.575 C 17 89.463, 17.613 87.756, 18.563 87.225 C 19.422 86.744, 20.238 85.584, 20.375 84.648 C 20.662 82.698, 22.424 82.388, 22.587 84.259 C 22.873 87.543, 23.100 88, 24.437 88 C 25.517 88, 25.735 88.857, 25.314 91.450 C 24.811 94.550, 25.023 94.968, 27.404 95.565 C 31.129 96.500, 32.170 99.109, 31.891 106.809 C 31.701 112.049, 31.958 113.500, 33.074 113.500 C 34.018 113.500, 34.682 111.978, 35.037 109 C 35.474 105.339, 38.313 99, 39.516 99 C 40.562 99, 44 106.633, 44 108.955 L 44 111.795 57.436 112.515 C 69.818 113.178, 71.047 113.421, 73.110 115.617 C 76.717 119.457, 77.342 118.621, 76.689 110.830 C 76.212 105.136, 76.432 103.077, 77.760 100.830 C 79.938 97.143, 81.424 97.255, 83.293 101.250 C 84.558 103.952, 84.721 107.828, 84.261 124.250 L 83.708 144 137.694 144 L 191.681 144 192.338 120.750 C 192.700 107.963, 192.996 75.563, 192.998 48.750 L 193 0 96.500 0 L 0 0 0 57 M 0.468 57.500 C 0.468 88.850, 0.595 101.530, 0.750 85.679 C 0.904 69.827, 0.904 44.177, 0.749 28.679 C 0.594 13.180, 0.468 26.150, 0.468 57.500 M 121.288 33.650 C 120.621 33.920, 119.099 35.722, 117.906 37.653 C 116.321 40.217, 115.216 41.028, 113.811 40.661 C 112.346 40.278, 112.137 40.460, 112.935 41.422 C 113.716 42.363, 113.332 42.983, 111.436 43.847 C 108.322 45.266, 109.013 46.911, 112.447 46.255 C 115.693 45.634, 117.903 49.724, 116.265 53.319 C 115.003 56.087, 115.679 60.488, 117.611 62.092 C 118.375 62.726, 119 64.075, 119 65.089 C 119 67.344, 112.539 74, 110.350 74 C 109.196 74, 108.930 74.610, 109.370 76.250 C 109.701 77.487, 109.979 78.886, 109.986 79.357 C 109.994 79.828, 110.662 79.960, 111.471 79.649 C 112.280 79.339, 113.598 79.741, 114.400 80.542 C 115.201 81.344, 116.533 82, 117.359 82 C 118.185 82, 119.005 83.013, 119.180 84.250 C 119.656 87.600, 122.291 86.969, 123.357 83.250 C 123.870 81.463, 124.883 80, 125.609 80 C 127.192 80, 129 83.107, 129 85.827 C 129 87.903, 130.675 88.993, 132.750 88.269 C 133.438 88.030, 134 86.941, 134 85.849 C 134 84.260, 134.448 83.998, 136.250 84.534 C 137.488 84.901, 139.007 85.842, 139.627 86.624 C 140.576 87.821, 140.833 87.745, 141.251 86.147 C 141.616 84.752, 142.484 84.328, 144.518 84.551 C 147.234 84.850, 150.505 82.838, 149.286 81.619 C 148.945 81.279, 149.754 80.986, 151.083 80.968 C 153.271 80.939, 153.339 80.814, 151.799 79.644 C 149.961 78.247, 149.751 74.015, 151.452 72.674 C 152.164 72.113, 152.099 71.685, 151.250 71.341 C 150.563 71.062, 150 70.389, 150 69.845 C 150 68.529, 147.417 66, 146.071 66 C 145.482 66, 145 65.305, 145 64.456 C 145 63.607, 144.438 62.985, 143.750 63.075 C 143.063 63.164, 140.627 63.184, 138.337 63.118 L 134.174 63 135.292 60.038 C 136.744 56.191, 135.894 55.486, 132.143 57.426 C 128.264 59.432, 128 59.407, 128 57.035 C 128 55.955, 129.012 54.544, 130.250 53.900 C 133.355 52.284, 133.294 52.419, 132.006 50.012 C 131.017 48.162, 131.139 47.776, 132.856 47.327 C 136.639 46.338, 136.131 44.198, 131.944 43.491 C 127.471 42.735, 127.121 42.372, 126.607 37.960 C 126.146 34, 124.237 32.453, 121.288 33.650" stroke="none" fill="black" fill-rule="evenodd"/>
</svg>