<svg xmlns="http://www.w3.org/2000/svg" width="192" height="144" viewBox="0 0 192 144" version="1.1">
	<path d="M -0 72.005 L -0 144.010 96.250 143.755 L 192.500 143.500 192.757 71.750 L 193.013 0 96.507 0 L 0 0 -0 72.005 M 0.474 72.500 C 0.474 112.100, 0.598 128.154, 0.750 108.176 C 0.901 88.198, 0.901 55.798, 0.750 36.176 C 0.598 16.554, 0.474 32.900, 0.474 72.500 M 104.169 58.750 C 103.673 59.712, 102.488 62.975, 101.535 66 C 99.475 72.544, 96.980 75, 92.392 75 C 90.103 75, 87.394 76.157, 84.037 78.569 C 79.686 81.695, 79.214 82.370, 80.237 84.009 C 81.947 86.747, 85.495 88.344, 88.302 87.639 C 91.868 86.744, 100.529 78.597, 101.977 74.776 C 102.659 72.974, 104.546 68.689, 106.170 65.253 C 107.794 61.818, 108.843 58.555, 108.502 58.003 C 107.525 56.423, 105.158 56.830, 104.169 58.750" stroke="none" fill="black" fill-rule="evenodd"/>
</svg>