<svg xmlns="http://www.w3.org/2000/svg" width="192" height="144" viewBox="0 0 192 144" version="1.1">
	<path d="M 0 72 L 0 144 34 144 C 66.164 144, 68 143.902, 68 142.187 C 68 141.190, 66.650 139.081, 65 137.500 C 63.350 135.919, 62 133.965, 62 133.157 C 62 132.350, 60.875 130.214, 59.500 128.411 C 58.125 126.608, 57 124.293, 57 123.267 C 57 122.240, 56.538 120.938, 55.974 120.374 C 54.795 119.195, 49.929 106.490, 49.510 103.497 C 49.356 102.395, 48.713 99.695, 48.082 97.497 C 47.450 95.299, 46.654 87.073, 46.312 79.217 C 45.715 65.469, 46.400 57.517, 49.131 46.500 C 50.800 39.770, 53.683 31.702, 56.148 26.864 C 57.166 24.864, 58.018 22.614, 58.041 21.864 C 58.063 21.114, 59.413 18.942, 61.041 17.038 C 62.668 15.134, 64 12.813, 64 11.881 C 64 10.448, 72.783 2, 74.274 2 C 74.546 2, 81.057 9.537, 88.742 18.750 C 129.175 67.222, 125.052 62.905, 130.038 61.993 C 132.197 61.598, 134.534 60.810, 135.232 60.242 C 135.985 59.628, 143.603 59.165, 154 59.102 C 170.858 59, 181.893 58.462, 188.750 57.409 L 192 56.909 192 68.333 L 192 79.757 175.561 79.246 L 159.123 78.735 155.311 81.656 C 150.983 84.972, 143.646 89.843, 140.136 91.729 C 137.003 93.413, 131.533 93.347, 130.090 91.609 C 129.455 90.844, 127.572 90.017, 125.906 89.773 C 122.952 89.339, 122.405 90.003, 103.929 116.414 L 84.982 143.500 137.741 143.760 C 166.758 143.903, 191.063 143.805, 191.750 143.541 C 192.734 143.165, 193 127.835, 193 71.531 L 193 0 96.500 0 L 0 0 0 72 M 0.474 72.500 C 0.474 112.100, 0.598 128.154, 0.750 108.176 C 0.901 88.198, 0.901 55.798, 0.750 36.176 C 0.598 16.554, 0.474 32.900, 0.474 72.500" stroke="none" fill="black" fill-rule="evenodd"/>
</svg>