<svg xmlns="http://www.w3.org/2000/svg" width="192" height="144" viewBox="0 0 192 144" version="1.1">
	<path d="M 0 20.067 L 0 40.135 2.250 39.434 C 8.644 37.442, 9 37.132, 9 33.562 C 9 28.088, 12.611 19.785, 16.744 15.758 C 22.533 10.116, 26.912 8.696, 36.022 9.502 C 43.561 10.169, 43.762 10.126, 48.393 6.862 C 53.537 3.237, 54.409 3.529, 55.661 9.294 C 56.057 11.119, 57.868 13.189, 60.884 15.263 C 72.587 23.314, 76.481 32.869, 73.546 46.341 L 72.709 50.181 76.104 49.841 C 79.151 49.535, 79.532 49.777, 79.812 52.201 C 80.195 55.521, 78.295 59.327, 76.583 58.670 C 75.887 58.403, 74.740 58.542, 74.034 58.979 C 71.226 60.715, 78.278 82.816, 83.062 87.273 C 84.128 88.266, 85 89.589, 85 90.213 C 85 90.838, 83.958 90.370, 82.686 89.174 C 79.836 86.497, 79.602 86.495, 76.058 89.115 C 73.426 91.062, 72.971 91.112, 70.349 89.754 C 65.672 87.330, 60.640 85.960, 59.737 86.863 C 59.271 87.329, 61.053 88.295, 63.695 89.010 C 69.862 90.679, 71.264 91.813, 70.571 94.573 C 70.228 95.940, 70.725 97.673, 71.861 99.076 L 73.708 101.358 78.427 99.139 C 94.501 91.583, 115.710 91.828, 131.459 99.751 C 136.868 102.472, 145.490 108.600, 148.227 111.669 C 149.875 113.518, 149.830 113.742, 147.227 116.623 C 145.727 118.282, 140.900 123.620, 136.500 128.484 C 132.100 133.349, 127.251 138.717, 125.725 140.414 L 122.949 143.500 157.128 143.763 C 175.926 143.908, 191.539 143.794, 191.823 143.510 C 192.107 143.227, 192.511 110.821, 192.721 71.497 L 193.102 -0 173.492 0 C 160.673 0, 154.096 0.346, 154.500 1 C 154.840 1.550, 154.416 2, 153.559 2 C 152.702 2, 152 1.550, 152 1 C 152 0.342, 126 0, 76 0 L 0 0 0 20.067 M 0.420 20.500 C 0.419 31.500, 0.565 36.136, 0.745 30.803 C 0.924 25.470, 0.925 16.470, 0.746 10.803 C 0.568 5.136, 0.421 9.500, 0.420 20.500 M 91.250 39.662 C 90.563 39.940, 90 40.853, 90 41.692 C 90 43.541, 94.650 42.701, 96.964 40.434 C 98.243 39.182, 98.052 39.010, 95.464 39.079 C 93.834 39.122, 91.938 39.385, 91.250 39.662 M 1 82.593 C 1 106.260, 1.273 113.127, 2.180 112.220 C 2.833 111.567, 3.400 108.017, 3.449 104.270 C 3.499 100.547, 3.901 96.927, 4.343 96.227 C 4.785 95.527, 8.125 93.452, 11.764 91.617 L 18.382 88.281 14.541 87.014 C 10.936 85.824, 10.588 85.892, 8.872 88.123 C 7.047 90.496, 7.044 90.490, 7.022 83.750 C 7.010 79.960, 6.564 77, 6.006 77 C 4.931 77, 5.102 74.230, 6.295 72.319 C 6.701 71.670, 6.572 70.853, 6.009 70.505 C 5.360 70.105, 5.538 69.319, 6.492 68.365 C 7.401 67.456, 8.005 64.999, 8.014 62.179 C 8.021 59.605, 8.269 56.600, 8.565 55.500 C 8.985 53.938, 8.599 53.481, 6.801 53.414 C 5.536 53.366, 3.712 52.980, 2.750 52.557 C 1.105 51.832, 1 53.626, 1 82.593 M 187.500 62 C 187.840 62.550, 188.316 63, 188.559 63 C 188.802 63, 189 62.550, 189 62 C 189 61.450, 188.523 61, 187.941 61 C 187.359 61, 187.160 61.450, 187.500 62 M 180.380 99.452 C 180.074 100.251, 180.114 101.376, 180.470 101.952 C 181.635 103.837, 183 103.053, 183 100.500 C 183 97.789, 181.282 97.102, 180.380 99.452 M 69 133.360 C 69 134.109, 68.714 136.809, 68.364 139.360 C 68.003 141.995, 68.128 144, 68.653 144 C 69.162 144, 69.685 141.300, 69.816 138 C 69.946 134.700, 69.816 132, 69.526 132 C 69.237 132, 69 132.612, 69 133.360" stroke="none" fill="black" fill-rule="evenodd"/>
</svg>