<svg xmlns="http://www.w3.org/2000/svg" width="192" height="144" viewBox="0 0 192 144" version="1.1">
	<path d="M 0 72 L 0 144 57.632 144 L 115.263 144 114.580 139.750 C 113.749 134.589, 113.567 133.730, 111.021 123 C 109.912 118.325, 108.509 112.025, 107.904 109 C 106.725 103.110, 106.036 101.037, 101.017 88.279 C 98.606 82.153, 97.646 77.877, 97.248 71.500 C 96.955 66.793, 96.329 62.703, 95.857 62.412 C 95.386 62.120, 95 61.215, 95 60.400 C 95 59.586, 94.038 57.617, 92.862 56.027 C 91.190 53.766, 90.883 52.410, 91.453 49.817 C 91.854 47.993, 92.379 44.475, 92.619 42 C 92.859 39.525, 93.493 37.350, 94.028 37.167 C 94.562 36.983, 95 36.023, 95 35.033 C 95 30.576, 105.337 32.684, 112.579 38.618 C 118.346 43.344, 128.127 56.317, 132.561 65.121 C 135.470 70.898, 136.144 73.545, 136.860 82.019 C 137.726 92.254, 137.453 96.602, 135.884 97.572 C 135.402 97.870, 135.639 99.335, 136.411 100.828 C 137.971 103.845, 147 139.033, 147 142.096 C 147 143.969, 147.801 144.028, 169.750 143.769 L 192.500 143.500 192.757 71.750 L 193.013 0 96.507 0 L 0 0 0 72 M 0.474 72.500 C 0.474 112.100, 0.598 128.154, 0.750 108.176 C 0.901 88.198, 0.901 55.798, 0.750 36.176 C 0.598 16.554, 0.474 32.900, 0.474 72.500" stroke="none" fill="black" fill-rule="evenodd"/>
</svg>