<svg xmlns="http://www.w3.org/2000/svg" width="192" height="144" viewBox="0 0 192 144" version="1.1">
	<path d="M -0 72.005 L -0 144.010 96.250 143.755 L 192.500 143.500 192.757 71.750 L 193.013 0 96.507 0 L 0 0 -0 72.005 M 0.474 72.500 C 0.474 112.100, 0.598 128.154, 0.750 108.176 C 0.901 88.198, 0.901 55.798, 0.750 36.176 C 0.598 16.554, 0.474 32.900, 0.474 72.500 M 81.026 54.200 C 81.012 55.685, 80.354 57.262, 79.564 57.704 C 77.054 59.109, 96.426 83.118, 103.250 87.060 C 106.959 89.202, 104.816 85.759, 97.714 78.164 C 93.037 73.163, 90.005 68.964, 89.247 66.437 C 88.597 64.272, 86.487 60.025, 84.558 57 C 81.423 52.083, 81.048 51.786, 81.026 54.200" stroke="none" fill="black" fill-rule="evenodd"/>
</svg>