<svg xmlns="http://www.w3.org/2000/svg" width="192" height="144" viewBox="0 0 192 144" version="1.1">
	<path d="M 0 27.500 C 0 49.493, 0.262 55, 1.309 55 C 2.029 55, 3.403 55.574, 4.363 56.276 C 6.593 57.907, 5.571 60.832, 2.344 62.059 C 0.294 62.839, 0.129 63.233, 1.158 64.881 C 2.119 66.421, 2.704 66.577, 4.144 65.678 C 5.563 64.792, 6.511 64.988, 8.717 66.622 C 12.355 69.317, 16 74.735, 16 77.447 C 16 79.327, 33.921 103.031, 35.902 103.771 C 36.301 103.921, 38.679 101.896, 41.185 99.271 C 43.692 96.647, 46.926 93.490, 48.371 92.257 C 49.817 91.023, 51 89.351, 51 88.542 C 51 87.733, 52.013 86.527, 53.250 85.863 C 56.025 84.374, 73.580 80.039, 77 79.999 C 80.828 79.954, 82.315 78.602, 81.534 75.875 C 79.891 70.137, 75.396 60.179, 72.813 56.553 C 71.266 54.382, 70 51.746, 70 50.695 C 70 49.167, 69.509 48.906, 67.557 49.396 C 65.764 49.846, 64.377 49.327, 62.348 47.447 C 59.024 44.366, 59.772 42.417, 65.299 39.762 C 70.807 37.115, 71.488 35.008, 69.053 28.150 C 66.133 19.924, 66.468 19.075, 70.922 23.424 L 74.844 27.254 79.435 25.031 C 82.545 23.526, 86.683 22.636, 92.263 22.273 C 96.793 21.977, 100.983 21.357, 101.572 20.893 C 102.162 20.429, 104.135 20.239, 105.957 20.469 C 108.320 20.768, 110.302 20.188, 112.867 18.444 C 114.846 17.100, 116.810 16, 117.232 16 C 118.468 16, 118.067 19.117, 116.095 24.826 L 114.256 30.153 116.447 29.603 C 119.040 28.952, 131.125 30.745, 132.355 31.963 C 132.825 32.429, 130.696 33.372, 127.625 34.060 C 122.565 35.192, 122.093 35.522, 122.605 37.563 C 123.073 39.426, 122.395 40.270, 118.685 42.444 L 114.200 45.073 115.608 50.286 C 116.382 53.154, 117.476 58.650, 118.038 62.500 C 120.644 80.339, 122.718 86.254, 130.668 98.531 C 134.804 104.919, 137.978 110.356, 137.720 110.613 C 137.462 110.871, 135.845 109.899, 134.126 108.452 C 132.407 107.006, 131 106.031, 131 106.287 C 131 106.692, 134.304 114.566, 136.964 120.500 C 138.973 124.982, 140.383 130.853, 140.926 137 L 141.500 143.500 167 143.500 L 192.500 143.500 192.646 71.750 L 192.791 0 96.396 0 L 0 0 0 27.500 M 0.439 28 C 0.439 43.125, 0.578 49.313, 0.748 41.750 C 0.917 34.188, 0.917 21.813, 0.748 14.250 C 0.578 6.688, 0.439 12.875, 0.439 28 M 4 70.031 C 4 70.564, 4.675 71, 5.500 71 C 7.421 71, 7.421 70.375, 5.500 69.638 C 4.675 69.322, 4 69.499, 4 70.031 M 1 113.345 L 1 144 29 144 C 52.518 144, 57 143.773, 57 142.580 C 57 140.764, 64.766 138.168, 72.524 137.391 C 75.811 137.062, 78.702 136.600, 78.949 136.364 C 79.195 136.129, 78.656 132.238, 77.751 127.718 C 76.846 123.198, 75.803 115.112, 75.433 109.750 C 74.931 102.447, 74.416 100, 73.381 100 C 72.621 100, 72 100.413, 72 100.918 C 72 102.543, 64.996 106.232, 62.934 105.693 C 61.698 105.370, 59.829 106.114, 57.989 107.663 C 56.361 109.032, 54.236 109.989, 53.265 109.790 C 52.294 109.591, 48.835 111.137, 45.577 113.226 C 38.169 117.976, 32.819 119.674, 29.236 118.414 C 26.423 117.425, 13.094 100.562, 7.875 91.390 C 6.276 88.580, 4.075 85.473, 2.984 84.485 C 1.010 82.699, 1 82.837, 1 113.345" stroke="none" fill="black" fill-rule="evenodd"/>
</svg>