<svg xmlns="http://www.w3.org/2000/svg" width="192" height="144" viewBox="0 0 192 144" version="1.1">
	<path d="M 0 22.572 C 0 44.943, 0.023 45.182, 2.542 49.481 C 6.291 55.878, 7.269 55.969, 14.498 50.595 C 15.324 49.981, 17.674 51.320, 21.811 54.763 C 31.585 62.897, 33.125 62.768, 37.140 53.478 C 38.872 49.473, 39.899 48.186, 41 48.646 C 46.119 50.784, 56.097 53.011, 59.500 52.776 L 63.500 52.500 63.322 48.369 C 63.216 45.901, 61.681 41.331, 59.508 37.016 C 57.508 33.045, 56.013 29.695, 56.186 29.573 C 56.359 29.451, 58.975 27.864, 62 26.045 C 67.426 22.783, 68.955 21.370, 68.985 19.594 C 69.004 18.435, 59.361 9.433, 55.750 7.239 C 52.566 5.305, 52.372 4.351, 54.655 1.829 C 56.255 0.061, 55.368 0, 28.155 0 L 0 0 0 22.572 M 99.169 1.946 C 93.866 2.912, 89.423 4.262, 88.879 5.073 C 86.290 8.929, 92.069 27.491, 98.733 36.717 C 102.782 42.324, 112.794 50.659, 116.639 51.624 C 120.435 52.577, 121.797 51.449, 125.207 44.534 C 126.979 40.940, 128.846 38, 129.355 38 C 129.881 38, 130.028 40.436, 129.696 43.656 C 128.852 51.833, 129.658 54.617, 133.363 56.327 C 141.249 59.967, 155.523 59.196, 165.591 54.587 C 175.389 50.102, 189 35.200, 189 28.959 C 189 25.834, 187.534 24.455, 179.500 20.028 C 171.301 15.509, 162.293 8.962, 157.547 4.073 L 153.594 0 131.047 0.123 C 114.615 0.213, 105.969 0.708, 99.169 1.946 M 148.046 70.954 C 146.953 72.047, 144.685 75.661, 143.007 78.985 C 139.958 85.026, 139.955 85.028, 137.228 83.619 C 131.853 80.840, 120.194 77.876, 115.863 78.187 L 111.500 78.500 111.551 83.066 C 111.588 86.312, 112.864 90.287, 115.967 96.816 C 118.368 101.868, 120.145 106.113, 119.916 106.251 C 119.687 106.388, 117.700 107.389, 115.500 108.475 C 108.468 111.949, 104 115.219, 104.015 116.883 C 104.040 119.591, 115.823 131.563, 121.703 134.854 C 123.199 135.691, 123.031 136.200, 120.193 139.433 C 118.437 141.433, 117 143.279, 117 143.535 C 117 143.791, 121.500 144, 127 144 C 136.030 144, 137 143.822, 137 142.167 C 137 139.410, 135.969 138.909, 133.646 140.535 C 128.938 143.833, 125.502 141.668, 128.009 136.982 C 128.772 135.558, 128.619 134.778, 127.386 133.798 C 122.098 129.594, 119 125.941, 119 123.911 L 119 121.623 121.101 123.878 C 123.947 126.933, 124.753 125.773, 122.114 122.418 C 119.846 119.535, 119.125 112, 121.117 112 C 121.741 112, 122.003 111.118, 121.710 110 C 121.423 108.900, 121.643 108, 122.201 108 C 122.758 108, 122.955 107.325, 122.638 106.500 C 121.947 104.699, 123.134 104.534, 124.800 106.200 C 125.733 107.133, 126 107.022, 126 105.700 C 126 103.553, 126.847 103.551, 129.214 105.694 C 130.987 107.298, 131.047 107.285, 130.356 105.444 C 129.705 103.712, 129.812 103.652, 131.336 104.891 C 132.822 106.100, 132.967 106.077, 132.444 104.714 C 131.983 103.514, 132.331 103.274, 133.924 103.690 C 135.977 104.227, 143.948 112.893, 147.319 118.253 C 148.475 120.092, 152.443 122.634, 159.275 125.911 C 168.131 130.159, 176.944 133.437, 177.589 132.723 C 177.699 132.600, 178.512 130.758, 179.395 128.628 C 181.219 124.227, 181.472 120.410, 180 119.500 C 178.498 118.572, 178.797 115, 180.378 115 C 181.135 115, 182.315 115.675, 183 116.500 C 185.090 119.018, 185.855 118.203, 185.679 113.647 C 185.495 108.885, 187.171 106, 190.122 106 C 191.785 106, 192.017 106.888, 192.150 113.750 C 192.232 118.013, 192.501 120.150, 192.747 118.500 C 192.993 116.850, 192.882 110.438, 192.499 104.250 C 191.867 94.037, 191.624 93, 189.870 93 C 188.807 93, 187.705 92.213, 187.422 91.250 C 187.138 90.287, 185.744 87.131, 184.323 84.237 C 180.952 77.366, 178.157 76.486, 173.630 80.874 C 170.470 83.937, 168.498 84.745, 167.833 83.250 C 167.157 81.729, 155.666 71.878, 152.896 70.446 C 150.264 69.085, 149.874 69.126, 148.046 70.954 M 9.392 77.250 C 8.395 80.207, 7.605 85.557, 7.582 89.500 C 7.539 97.038, 9.086 101.210, 13.791 106.240 C 15.201 107.746, 16.139 109.195, 15.875 109.458 C 15.611 109.722, 12.719 108.837, 9.448 107.493 C 6.177 106.148, 2.938 105.037, 2.250 105.024 C 1.347 105.007, 1 107.345, 1 113.453 L 1 121.906 4.750 122.947 C 6.813 123.520, 9.036 123.991, 9.691 123.994 C 11.543 124.003, 12.193 125.772, 11.096 127.821 C 10.548 128.845, 7.838 131.217, 5.075 133.092 C 0.824 135.976, 0.048 136.991, 0.026 139.691 C -0.012 144.309, 1.359 144.495, 5.678 140.457 C 9.723 136.675, 15.966 133, 18.345 133 C 19.322 133, 19.986 134.729, 20.457 138.500 L 21.144 144 31.072 144 C 36.770 144, 41 143.590, 41 143.037 C 41 142.507, 40.107 139.807, 39.015 137.037 C 37.923 134.267, 37.446 132, 37.956 132 C 38.465 132, 39.166 132.460, 39.514 133.022 C 40.464 134.560, 50.107 141.386, 53.297 142.779 C 55.072 143.554, 61.337 144, 70.440 144 C 82.062 144, 84.892 143.724, 85.343 142.547 C 86.058 140.685, 69.355 124.823, 62.629 120.977 C 59.950 119.444, 55.765 117.892, 53.330 117.527 L 48.902 116.863 54.709 113.109 C 62.596 108.012, 68.604 100.973, 72.727 92 C 82.310 71.146, 81.636 73, 79.636 73 C 77.580 73, 57.646 80.644, 51.178 83.914 C 45.382 86.843, 38.081 93.122, 34.218 98.500 L 32.063 101.500 32.032 97.985 C 32.014 96.052, 31.059 92.677, 29.908 90.485 C 27.588 86.063, 14.233 72, 12.355 72 C 11.698 72, 10.365 74.362, 9.392 77.250" stroke="none" fill="black" fill-rule="evenodd"/>
</svg>