<svg xmlns="http://www.w3.org/2000/svg" width="192" height="144" viewBox="0 0 192 144" version="1.1">
	<path d="M 0 72 L 0 144 8 144 L 16 144 16 72 L 16 0 8 0 L 0 0 0 72 M 88.299 11.530 C 90.081 21.751, 90.166 23.865, 89.041 30.158 L 87.773 37.256 82.401 36.702 C 77.095 36.154, 76.987 36.197, 73.515 40.254 C 69.719 44.688, 69.048 46.579, 71.619 45.593 C 72.911 45.097, 73.141 45.480, 72.758 47.486 C 72.150 50.665, 73.416 50.670, 77.182 47.500 C 80.569 44.650, 85.572 44.202, 88.559 46.481 C 90.157 47.700, 90.253 48.124, 89.104 48.880 C 86.981 50.277, 88.552 52.915, 92.486 54.559 C 94.419 55.366, 96 56.439, 96 56.942 C 96 58.521, 92.971 60.970, 90.180 61.647 C 88.706 62.005, 85.159 63.321, 82.298 64.572 C 78.026 66.441, 76.935 67.441, 76.192 70.174 C 74.878 75.008, 76.764 76.622, 85.336 77.999 C 95.374 79.610, 95.322 79.586, 97.475 83.583 C 100.172 88.591, 103.583 91, 107.980 91 C 112.311 91, 114.203 89.232, 116.004 83.500 C 116.695 81.300, 117.707 78.938, 118.253 78.250 C 119.286 76.949, 118.706 76.647, 115.750 76.948 C 114.502 77.075, 114 76.408, 114 74.622 C 114 72.473, 115.231 71.508, 122.695 67.809 C 127.477 65.439, 131.555 62.966, 131.757 62.313 C 132.480 59.979, 128.164 57, 124.059 57 C 121.891 57, 119.897 56.643, 119.627 56.206 C 118.616 54.569, 122.916 47.166, 126.439 44.479 C 128.450 42.945, 130.563 40.817, 131.134 39.750 C 132.025 38.085, 131.897 37.898, 130.229 38.427 C 128.468 38.986, 128.547 38.529, 131.082 33.503 C 132.687 30.322, 133.739 26.798, 133.553 25.231 C 133.374 23.729, 133.177 22.035, 133.114 21.466 C 132.973 20.187, 127.715 17, 125.747 17 C 124.952 17, 122.156 19.137, 119.532 21.750 C 115.336 25.929, 114.822 26.199, 115.253 24 C 115.522 22.625, 116.074 20.713, 116.478 19.750 C 117.869 16.442, 114.164 17.865, 111.614 21.618 L 109.156 25.235 108.789 22.368 C 108.440 19.631, 108.361 19.694, 107.053 23.750 C 106.300 26.087, 105.255 28, 104.730 28 C 102.855 28, 105.217 20.472, 108.493 16.010 C 110.315 13.528, 112.949 8.910, 114.348 5.749 L 116.890 0 101.589 0 L 86.288 0 88.299 11.530 M 176 72 L 176 144 184 144 L 192 144 192 72 L 192 0 184 0 L 176 0 176 72" stroke="none" fill="black" fill-rule="evenodd"/>
</svg>