<svg xmlns="http://www.w3.org/2000/svg" width="192" height="144" viewBox="0 0 192 144" version="1.1">
	<path d="M 100.747 13.858 C 100.480 14.880, 98.847 16.343, 97.119 17.107 C 94.960 18.063, 94.172 18.968, 94.601 19.999 C 96.176 23.790, 95.939 29.231, 94.128 30.855 C 93.120 31.760, 91.748 34.455, 91.079 36.845 C 90.025 40.610, 90.085 41.436, 91.527 43.029 C 92.928 44.578, 93.082 46.181, 92.502 53.184 C 92.067 58.433, 92.261 63.897, 93.026 68 C 94.683 76.878, 94.627 103.539, 92.947 105.563 C 91.885 106.843, 92.285 107.708, 95.431 110.930 C 97.761 113.315, 98.768 115.025, 98.091 115.444 C 96.404 116.486, 96.796 117.713, 99 118.290 C 100.460 118.672, 101 118.320, 101 116.988 C 101 113.611, 102.199 112, 104.714 112 C 106.505 112, 107.054 111.582, 106.649 110.526 C 106.338 109.716, 106.674 108.703, 107.396 108.276 C 109.725 106.899, 111.324 102.924, 110.059 101.659 C 109.224 100.824, 109.782 100.247, 112.216 99.428 C 115.627 98.280, 117.116 95.308, 114.950 93.969 C 114.265 93.546, 113.105 89.217, 112.374 84.350 C 110.655 72.915, 110.600 73.503, 113.500 72.182 C 117.086 70.548, 116.710 66.995, 112.459 62.360 C 110.512 60.237, 107.985 56.582, 106.843 54.237 C 105.702 51.893, 104.412 49.755, 103.978 49.486 C 102.686 48.688, 104.052 45.220, 105.843 44.751 C 106.837 44.491, 108.022 42.365, 108.806 39.436 C 109.926 35.249, 109.902 34.402, 108.641 33.479 C 107.465 32.619, 107.322 31.118, 107.929 25.973 C 108.637 19.965, 108.533 19.420, 106.343 17.698 C 105.055 16.684, 104 14.988, 104 13.927 C 104 11.460, 101.389 11.405, 100.747 13.858 M 41.667 16.667 C 41.300 17.033, 41 18.118, 41 19.078 C 41 20.037, 39.671 21.941, 38.046 23.308 C 35.495 25.454, 35.171 26.279, 35.670 29.354 C 35.988 31.312, 37.092 33.678, 38.124 34.612 C 40.024 36.331, 40.584 39.083, 39.296 40.371 C 38.908 40.758, 38.541 42.071, 38.480 43.288 C 38.128 50.308, 37.877 50.928, 34.250 53.767 C 28.927 57.933, 23.811 58.553, 20.154 55.476 L 17.305 53.079 9.614 54.911 C 5.384 55.919, 1.674 56.992, 1.370 57.297 C 0.200 58.466, 2.931 61.382, 7.616 63.965 C 23.698 72.832, 39.672 80.709, 40.750 80.304 C 41.559 79.999, 42 80.794, 42 82.559 C 42 84.058, 43.749 88.052, 45.886 91.436 L 49.771 97.589 45.886 100.851 C 43.749 102.645, 42 104.972, 42 106.021 C 42 108.068, 40.167 109.324, 34.009 111.497 C 30.275 112.814, 29.958 112.752, 26.068 109.935 C 23.840 108.321, 21.343 107, 20.519 107 C 18.236 107, 6 112.098, 6 113.049 C 6 113.509, 13.961 120.735, 23.691 129.108 L 41.382 144.330 48.441 140.518 C 56.129 136.365, 58 135.107, 58 134.089 C 58 133.723, 54.855 131.190, 51.012 128.461 C 47.168 125.733, 44.018 123.162, 44.012 122.750 C 44.005 122.338, 45.013 121.998, 46.250 121.996 C 49.194 121.991, 55.088 118.366, 55.673 116.200 C 55.925 115.265, 57.565 113.825, 59.316 113 C 63.199 111.171, 63.965 107.807, 61.064 105.323 C 59.929 104.351, 59 102.974, 59 102.264 C 59 101.554, 58.605 100.191, 58.122 99.236 C 57.639 98.281, 56.517 95.925, 55.628 94 C 54.739 92.075, 53.496 89.786, 52.864 88.913 C 51.280 86.723, 52.635 80.047, 54.805 79.354 C 59.336 77.907, 62 76.694, 62 76.077 C 62 75.703, 59.478 71.145, 56.395 65.949 C 50.859 56.617, 50.797 56.424, 51.349 50.335 C 51.776 45.638, 51.562 43.882, 50.454 42.962 C 48.478 41.322, 48.625 40.125, 51.046 38.160 C 52.984 36.587, 53.013 36.278, 51.599 32.276 C 50.646 29.578, 50.467 27.830, 51.102 27.437 C 52.280 26.709, 50.354 24.014, 48.628 23.974 C 48.007 23.960, 46.675 22.160, 45.668 19.974 C 43.867 16.068, 42.990 15.343, 41.667 16.667 M 165.612 20.431 C 166.164 21.870, 162.765 27.480, 160.038 29.630 C 158.957 30.482, 158.859 31.138, 159.661 32.142 C 161.427 34.350, 161.931 43.812, 160.353 45.122 C 158.769 46.436, 158.561 49.611, 160 50.500 C 161.321 51.316, 161.286 55.705, 159.952 56.530 C 159.376 56.886, 158.994 57.925, 159.103 58.839 C 159.314 60.609, 156.655 67.188, 152.278 75.723 L 149.600 80.945 151.924 83.419 C 153.203 84.780, 155.201 86.030, 156.364 86.197 C 159.610 86.662, 159.411 89.188, 155.693 94.713 C 151.194 101.399, 150.316 106.644, 153.186 109.698 C 154.358 110.945, 156.084 112.209, 157.022 112.507 C 158.244 112.895, 158.979 114.802, 159.614 119.228 L 160.500 125.409 167 126.643 C 174.865 128.136, 177 128.253, 177 127.193 C 177 126.749, 175.762 125.897, 174.250 125.299 L 171.500 124.213 174 124.150 C 175.375 124.116, 178.300 124.736, 180.500 125.529 C 185.633 127.378, 189.437 127.383, 190.964 125.544 C 192.602 123.569, 191.843 122.659, 186.798 120.552 C 182.136 118.605, 173.769 114.779, 173.060 114.270 C 172.819 114.096, 173.606 113.264, 174.810 112.420 C 179.003 109.484, 176.531 104.656, 170.184 103.387 C 166.429 102.636, 166.423 102.593, 169 95.260 C 170.100 92.130, 171 88.879, 171 88.035 C 171 87.191, 172.575 85.243, 174.500 83.707 C 176.425 82.171, 178 80.356, 178 79.672 C 178 78.989, 176.399 74.502, 174.441 69.702 L 170.883 60.973 172.796 58.237 C 173.848 56.731, 175.008 54.263, 175.373 52.750 C 176.167 49.468, 176.879 49.388, 182 52 C 184.156 53.100, 187.317 54, 189.024 54 C 191.922 54, 192.106 53.786, 191.813 50.750 C 191.542 47.936, 190.963 47.329, 187.500 46.227 C 185.300 45.527, 182.923 44.748, 182.217 44.496 C 181.371 44.193, 182.804 41.584, 186.434 36.819 C 189.459 32.849, 191.724 29.391, 191.467 29.134 C 191.210 28.877, 190.862 28.854, 190.694 29.083 C 182.409 40.378, 177 45.480, 177 42 C 177 41.450, 175.831 41, 174.401 41 L 171.802 41 173.765 37.674 C 176.102 33.713, 176.471 26, 174.323 26 C 172.317 26, 167 21.870, 167 20.312 C 167 19.590, 166.564 19, 166.031 19 C 165.499 19, 165.310 19.644, 165.612 20.431 M 35.274 58.015 C 32.950 59.500, 31.338 61.004, 31.691 61.358 C 34.029 63.695, 41.992 59.523, 40.382 56.804 C 39.634 55.542, 38.856 55.727, 35.274 58.015 M 100.250 75.689 C 98.200 76.099, 98 76.704, 98 82.488 C 98 91.496, 98.325 92, 104.138 92 C 107.157 92, 109.247 91.516, 109.539 90.750 C 109.801 90.063, 109.206 86.350, 108.217 82.500 C 106.332 75.161, 105.678 74.601, 100.250 75.689 M 164.452 90.175 C 164.051 91.454, 162.714 93.441, 161.482 94.591 C 159.060 96.850, 157 100.226, 157 101.934 C 157 103.419, 161.543 103.273, 162.729 101.750 C 163.264 101.063, 164.219 97.837, 164.851 94.583 C 166.019 88.570, 165.781 85.943, 164.452 90.175 M 96 106.800 C 96 108.046, 98.259 110, 99.700 110 C 101.540 110, 101.319 107.336, 99.418 106.607 C 97.251 105.775, 96 105.846, 96 106.800 M 36.134 112.878 L 32.767 114.672 35.588 116.891 L 38.409 119.109 40.182 116.805 C 42.246 114.123, 42.555 110.981, 40.750 111.042 C 40.063 111.065, 37.985 111.891, 36.134 112.878" stroke="none" fill="black" fill-rule="evenodd"/>
</svg>