<svg xmlns="http://www.w3.org/2000/svg" width="192" height="144" viewBox="0 0 192 144" version="1.1">
	<path d="M 0 72 L 0 144 35.808 144 L 71.615 144 74.363 134.138 C 75.874 128.715, 78.200 121.627, 79.532 118.388 C 82.439 111.317, 82.885 104.447, 80.373 105.410 C 79.479 105.754, 78.129 105.522, 77.373 104.895 C 76.331 104.030, 76 104.063, 76 105.033 C 76 105.975, 75.541 105.910, 74.250 104.785 C 73.287 103.947, 72.005 103.442, 71.400 103.664 C 70.795 103.885, 69.710 103.356, 68.989 102.487 C 67.824 101.084, 67.242 101.330, 63.752 104.704 L 59.825 108.500 62.118 104.500 C 63.379 102.300, 64.868 100.187, 65.427 99.804 C 66.036 99.387, 65.752 98.842, 64.722 98.447 C 63.775 98.083, 63 97.191, 63 96.465 C 63 95.677, 60.755 94.641, 57.445 93.900 C 53.645 93.050, 51.180 91.815, 49.646 89.992 C 47.930 87.952, 46.160 87.179, 42.105 86.699 C 36.885 86.081, 30.986 83.458, 30.320 81.459 C 30.126 80.877, 31.988 80.348, 34.641 80.233 C 37.205 80.121, 39.466 79.867, 39.665 79.669 C 40.320 79.013, 37.148 72.367, 35.544 71.037 C 32.372 68.404, 35.583 46, 39.134 46 C 39.638 46, 40.320 47.350, 40.650 49 C 41.415 52.826, 42.262 52.795, 43.737 48.885 C 44.750 46.203, 45.109 45.966, 46.325 47.182 C 47.101 47.958, 48.065 49.630, 48.467 50.897 C 49.387 53.794, 50.706 52.546, 51.497 48.030 C 51.832 46.122, 52.307 44.360, 52.553 44.114 C 53.696 42.970, 53.808 45.208, 53.023 53.519 C 52.383 60.301, 52.495 63.157, 53.478 65.184 C 54.563 67.419, 54.543 68.339, 53.360 70.684 C 52.579 72.233, 51.144 74.175, 50.171 75 C 45.803 78.705, 47.129 82.178, 52.575 81.294 C 54.930 80.912, 56.976 81.378, 59.515 82.876 C 63.731 85.364, 65 85.527, 65 83.583 C 65 82.804, 65.916 79.991, 67.036 77.333 L 69.072 72.500 66.572 75.500 C 65.197 77.150, 64.056 78.785, 64.036 79.133 C 64.016 79.482, 63.142 79.991, 62.093 80.265 C 60.419 80.703, 60.300 80.442, 61.113 78.132 C 61.623 76.684, 64.520 72.415, 67.550 68.645 C 74.117 60.477, 75.345 57.737, 78.582 44.050 C 79.941 38.302, 82.166 31.608, 83.526 29.174 C 84.887 26.740, 86 24.692, 86.001 24.624 C 86.001 24.556, 84.314 24.500, 82.251 24.500 C 77.340 24.500, 76.941 22.110, 80.519 14.136 L 83.172 8.226 88.228 9.560 C 91.009 10.294, 95.048 12.311, 97.203 14.043 C 100.597 16.771, 101.682 17.120, 105.311 16.654 C 107.615 16.358, 112.087 15.809, 115.250 15.434 L 121 14.752 120.350 18.126 C 119.993 19.982, 119.145 23.385, 118.466 25.690 C 117.788 27.994, 117.463 31.924, 117.744 34.423 C 118.037 37.022, 117.715 40.274, 116.991 42.022 C 115.690 45.164, 112.632 47.509, 111.084 46.552 C 110.603 46.255, 109.937 46.721, 109.605 47.588 C 108.541 50.359, 108.957 56.873, 110.250 57.700 C 112.240 58.973, 115.892 64.593, 118.998 71.159 C 121.247 75.915, 121.664 77.752, 120.933 79.677 C 120.420 81.026, 120 84.288, 120 86.926 L 120 91.722 125.589 93.861 C 128.663 95.038, 131.752 96, 132.454 96 C 133.156 96, 134.874 96.900, 136.273 98 C 138.277 99.577, 140.330 100, 145.967 100 C 150.480 100, 152.890 100.369, 152.500 101 C 152.160 101.550, 151.009 102, 149.941 102 C 146.620 102, 147.791 103.953, 153.084 107.243 C 157.707 110.117, 158.007 110.521, 156.393 111.702 C 155.417 112.416, 153.916 113.003, 153.059 113.006 C 152.201 113.010, 150.313 113.632, 148.862 114.389 C 146.594 115.572, 145.783 115.551, 143.071 114.237 C 141.336 113.397, 139.083 111.650, 138.065 110.355 C 137.046 109.060, 135.440 108, 134.496 108 C 133.007 108, 123.962 104.082, 114.615 99.387 C 111.067 97.605, 110.307 98.172, 112.344 101.081 C 113.305 102.453, 113.677 104.365, 113.325 106.124 C 112.922 108.142, 114.214 112.638, 117.809 121.729 C 120.587 128.753, 123.396 136.643, 124.052 139.263 L 125.244 144.026 158.872 143.763 L 192.500 143.500 192.757 71.750 L 193.013 0 96.507 0 L 0 0 0 72 M 0.474 72.500 C 0.474 112.100, 0.598 128.154, 0.750 108.176 C 0.901 88.198, 0.901 55.798, 0.750 36.176 C 0.598 16.554, 0.474 32.900, 0.474 72.500 M 36.624 57.539 C 35.659 60.053, 35.943 60.702, 37.122 58.675 C 37.706 57.671, 37.973 56.639, 37.715 56.382 C 37.458 56.124, 36.966 56.645, 36.624 57.539" stroke="none" fill="black" fill-rule="evenodd"/>
</svg>