<svg xmlns="http://www.w3.org/2000/svg" width="192" height="144" viewBox="0 0 192 144" version="1.1">
	<path d="M 130.262 5.010 C 127.381 7.755, 124.321 10, 123.461 10 C 121.898 10, 119 15.533, 119 18.516 C 119 20.085, 106.015 34, 104.551 34 C 104.130 34, 104.058 33.292, 104.389 32.428 C 105.332 29.970, 103.202 27, 100.496 27 C 98.718 27, 98.222 27.414, 98.653 28.537 C 99.412 30.515, 96.272 34, 93.730 34 C 90.556 34, 82.328 38.985, 81.117 41.642 C 79.466 45.266, 79.695 51.669, 81.500 52.362 C 83.579 53.159, 83.376 54.746, 81.103 55.467 C 79.755 55.895, 79.351 56.711, 79.709 58.285 C 79.986 59.503, 79.153 58.475, 77.857 56 C 76.161 52.762, 74.238 50.855, 71 49.201 C 66.098 46.696, 62.762 46.808, 57.384 49.659 C 54.324 51.281, 54.199 51.255, 50.384 48.238 C 42.934 42.345, 33.821 41.627, 25.550 46.284 C 20.393 49.187, 15.998 57.283, 16.006 63.864 C 16.026 80.746, 27.482 89.888, 43.186 85.556 C 45.789 84.838, 45.858 84.926, 45.427 88.408 C 45.006 91.796, 46.137 93.206, 47.502 90.997 C 48.665 89.116, 51.752 91.859, 52.256 95.222 C 52.746 98.488, 50.867 110.646, 48.942 116.669 C 48.385 118.412, 47.719 121.481, 47.462 123.490 C 47.204 125.499, 46.488 128.089, 45.869 129.245 C 45.250 130.401, 44.614 133.270, 44.456 135.621 C 44.297 137.972, 43.875 140.819, 43.516 141.948 C 42.960 143.701, 43.295 144, 45.815 144 C 48.549 144, 48.768 143.725, 48.816 140.239 C 48.845 138.170, 49.283 135.357, 49.790 133.989 C 50.298 132.620, 50.535 130.998, 50.318 130.385 C 50.101 129.771, 50.840 126.942, 51.962 124.098 C 53.083 121.253, 54 117.394, 54 115.522 C 54 111.547, 55.143 110.613, 60.167 110.487 C 62.450 110.430, 65.820 109.167, 69.051 107.159 C 71.914 105.379, 74.429 104.095, 74.639 104.306 C 74.850 104.516, 74.490 108.111, 73.839 112.295 L 72.657 119.902 68.578 120.237 C 64.660 120.559, 64.598 120.616, 67 121.701 L 69.500 122.830 66.251 124.012 C 64.464 124.663, 63.276 125.637, 63.609 126.177 C 63.943 126.717, 62.818 128.527, 61.108 130.198 C 56.182 135.014, 56.940 136.894, 63.917 137.168 C 67.671 137.315, 67.887 137.467, 66.506 138.993 C 64.583 141.118, 64.599 142, 66.559 142 C 67.416 142, 67.840 142.450, 67.500 143 C 67.093 143.658, 77.115 144, 96.818 144 L 126.754 144 128.747 139.250 C 134.229 126.187, 134.352 125.576, 132.584 120.254 C 131.137 115.897, 122.885 105.742, 111.711 94.568 C 109.210 92.067, 109.565 89.832, 113.833 81.228 C 115.941 76.978, 118.695 70.688, 119.955 67.250 C 122.310 60.821, 122.838 60.238, 124.664 62.064 C 126.034 63.434, 129.564 57.617, 131.125 51.418 C 132.439 46.201, 131.854 37.734, 130.028 35.533 C 128.306 33.459, 122.125 33.588, 119.671 35.750 C 118.287 36.969, 117.959 37.045, 118.592 36 C 121.228 31.646, 130.175 18.146, 131.951 15.842 C 133.078 14.380, 134 12.684, 134 12.073 C 134 11.462, 135.316 8.496, 136.925 5.481 C 139.805 0.085, 139.816 0, 137.675 0.010 C 136.442 0.016, 133.232 2.181, 130.262 5.010 M 79.510 68.016 C 77.433 74.693, 70.361 80, 63.540 80 C 59.537 80, 59.611 79.886, 61.113 83.685 C 61.725 85.233, 62.321 87.737, 62.438 89.250 C 62.555 90.763, 62.729 93.125, 62.825 94.500 C 62.921 95.875, 63.454 97, 64.010 97 C 64.565 97, 67.940 95.088, 71.509 92.750 C 78.465 88.195, 78.421 88.276, 80.809 75.715 C 81.424 72.479, 81.551 68.960, 81.096 67.731 C 80.285 65.538, 80.281 65.538, 79.510 68.016 M 52.469 107.050 C 51.519 108.588, 52.820 109.580, 54.104 108.296 C 54.822 107.578, 54.839 107.019, 54.156 106.597 C 53.596 106.251, 52.837 106.455, 52.469 107.050 M 106.553 115.497 C 106.182 117.971, 106.191 123.172, 106.574 127.055 C 107.167 133.069, 107.713 134.559, 110.255 137.101 C 111.897 138.743, 113.721 139.926, 114.308 139.731 C 114.895 139.535, 116.690 135.430, 118.297 130.608 L 121.219 121.842 118.860 120.199 C 117.562 119.295, 114.650 116.856, 112.388 114.778 C 110.127 112.700, 108.040 111, 107.752 111 C 107.463 111, 106.924 113.024, 106.553 115.497 M 49.459 120.067 C 49.096 120.653, 49.040 121.373, 49.333 121.667 C 50.050 122.383, 52 121.121, 52 119.941 C 52 118.663, 50.274 118.748, 49.459 120.067 M 46 133.622 C 46 134.951, 46.271 135.020, 47.500 134 C 48.325 133.315, 49 132.585, 49 132.378 C 49 132.170, 48.325 132, 47.500 132 C 46.675 132, 46 132.730, 46 133.622" stroke="none" fill="black" fill-rule="evenodd"/>
</svg>