<svg xmlns="http://www.w3.org/2000/svg" width="192" height="144" viewBox="0 0 192 144" version="1.1">
	<path d="M 44.463 36.941 C 44.809 37.500, 43.591 37.646, 41.459 37.300 C 38.753 36.861, 37.182 37.228, 35.060 38.798 C 33.336 40.072, 31.425 40.662, 30.123 40.322 C 27.585 39.658, 27.480 40.276, 29.586 43.491 C 30.459 44.823, 30.914 46.331, 30.597 46.842 C 30.281 47.354, 30.983 48.024, 32.157 48.331 C 34.071 48.831, 34.233 49.385, 33.720 53.695 C 33.405 56.338, 32.442 59.850, 31.580 61.500 C 30.718 63.150, 30.010 66.817, 30.006 69.648 C 30.002 73.426, 29.202 76.315, 27.002 80.497 C 25.353 83.632, 24.319 86.707, 24.704 87.331 C 25.090 87.954, 25.467 89.302, 25.542 90.324 C 25.695 92.390, 27.918 94.169, 29.289 93.321 C 29.776 93.020, 29.685 92.285, 29.087 91.687 C 27.558 90.158, 27.736 89, 29.500 89 C 30.606 89, 31 90.156, 31 93.405 C 31 97.830, 28.518 122.656, 27.464 128.777 C 26.955 131.733, 27.211 132.185, 30.076 133.390 C 31.985 134.193, 32.803 135.003, 32.126 135.422 C 30.019 136.724, 30.826 140.001, 33.250 139.985 C 37.330 139.957, 38.419 138.457, 38.461 132.811 L 38.500 127.500 43.250 127.195 L 48 126.890 48 130.511 C 48 132.502, 47.508 135.050, 46.907 136.173 C 45.457 138.883, 47.065 140.452, 50.427 139.608 C 52.477 139.093, 53 138.351, 53 135.956 C 53 133.670, 53.599 132.723, 55.500 132 C 58.570 130.833, 58.571 130.768, 55.532 115.721 C 52.517 100.793, 48.837 75.073, 49.550 73.919 C 49.837 73.455, 51.230 73.603, 52.645 74.248 C 54.841 75.249, 55.422 75.143, 56.604 73.527 C 57.794 71.900, 57.769 71.296, 56.426 69.246 C 55.007 67.081, 55.007 66.638, 56.431 64.465 C 57.294 63.148, 58 61.836, 58 61.549 C 58 61.263, 56.144 59.800, 53.875 58.299 L 49.751 55.569 50.355 49.102 C 50.903 43.228, 50.727 42.331, 48.429 39.317 C 47.037 37.493, 45.445 36, 44.890 36 C 44.336 36, 44.144 36.423, 44.463 36.941" stroke="none" fill="black" fill-rule="evenodd"/>
</svg>