<svg xmlns="http://www.w3.org/2000/svg" width="192" height="144" viewBox="0 0 192 144" version="1.1">
	<path d="M 78.073 1.863 C 77.340 3.233, 77.569 4.694, 78.939 7.381 C 80.468 10.380, 80.613 11.652, 79.745 14.480 C 78.829 17.464, 79.109 18.992, 81.844 25.912 C 83.580 30.305, 85 35.469, 85 37.388 C 85 40.573, 85.240 40.860, 87.750 40.688 C 90.408 40.506, 90.519 40.701, 91.076 46.500 C 91.393 49.800, 91.970 53.199, 92.357 54.053 C 92.745 54.907, 92.378 57.244, 91.541 59.247 C 90.705 61.250, 90.261 63.517, 90.556 64.286 C 90.869 65.102, 89.408 67.205, 87.046 69.339 C 84.821 71.350, 83 73.362, 83 73.810 C 83 75.972, 76.261 80.525, 64.194 86.516 C 53.335 91.907, 49.745 94.270, 44.460 99.503 C 40.907 103.021, 38 106.338, 38 106.873 C 38 107.408, 39.032 109.119, 40.293 110.673 C 41.554 112.228, 43.351 114.717, 44.285 116.204 C 47.060 120.617, 53.624 123.810, 61.500 124.576 C 65.350 124.950, 72.518 126.099, 77.429 127.128 C 82.341 128.158, 87.628 129, 89.179 129 C 91.725 129, 92 129.334, 92 132.429 C 92 135.682, 89.944 139, 87.929 139 C 87.418 139, 87 140.125, 87 141.500 L 87 144 102 144 L 117 144 117.159 141.250 C 117.246 139.738, 117.203 136.157, 117.064 133.293 C 116.782 127.471, 116.443 127.714, 126.446 126.557 C 129.166 126.242, 131.641 125.610, 131.946 125.153 C 132.251 124.696, 137.225 123.089, 143 121.582 C 148.775 120.076, 154.400 118.096, 155.500 117.182 C 156.600 116.269, 157.673 115.418, 157.885 115.292 C 158.097 115.166, 157.586 114.017, 156.749 112.740 C 155.912 111.462, 155.063 109.709, 154.863 108.844 C 154.664 107.979, 150.824 103.824, 146.332 99.609 C 140.080 93.744, 136.158 91.020, 129.610 87.995 C 116.931 82.137, 116.156 80.651, 115.877 61.665 C 115.665 47.264, 115.579 46.719, 112.935 43.069 C 109.796 38.736, 107 33.559, 107 32.082 C 107 31.493, 109.214 31.156, 112.250 31.282 C 116.926 31.476, 117.533 31.267, 117.804 29.372 C 118.064 27.546, 117.460 27.146, 113.554 26.560 C 109.616 25.970, 109 25.556, 109 23.498 C 109 22.189, 108.641 20.896, 108.202 20.625 C 107.762 20.353, 107.571 15.602, 107.775 10.066 L 108.147 0 102.643 0 C 97.697 0, 97.107 0.228, 96.820 2.250 C 96.566 4.037, 95.760 4.562, 92.899 4.801 C 89.961 5.047, 88.990 4.633, 87.626 2.551 C 85.527 -0.651, 79.646 -1.075, 78.073 1.863" stroke="none" fill="black" fill-rule="evenodd"/>
</svg>