<svg xmlns="http://www.w3.org/2000/svg" width="192" height="144" viewBox="0 0 192 144" version="1.1">
	<path d="M 3.750 0.728 C 0.124 1.108, 0 1.250, 0 5.026 L 0 8.931 5 9.594 C 7.750 9.959, 10 10.624, 10 11.072 C 10 11.520, 8.683 12.665, 7.073 13.616 C 3.238 15.881, 0 24.224, -0 31.839 C -0 34.997, 1.144 41.390, 2.588 46.299 C 5.345 55.671, 5.252 57.601, 1.985 58.810 C 0.011 59.540, -0 59.642, 1.713 61.270 C 2.696 62.205, 4.850 64.062, 6.500 65.398 C 9.098 67.502, 9.487 68.455, 9.402 72.510 L 9.304 77.193 14.402 76.595 C 26.450 75.181, 72.474 73.744, 124.844 73.145 L 181.188 72.500 182.509 68.655 C 183.235 66.541, 184.768 63.812, 185.915 62.591 C 188.218 60.140, 188.583 58.361, 186.900 57.800 C 186.170 57.557, 186.745 54.030, 188.616 47.291 C 190.164 41.712, 191.784 37.366, 192.215 37.633 C 192.647 37.900, 193 34.979, 193 31.142 C 193 27.306, 192.617 24.017, 192.150 23.833 C 191.683 23.650, 190.643 21.507, 189.840 19.071 C 189.038 16.636, 187.547 14.161, 186.528 13.571 C 184.378 12.328, 181 9.229, 181 8.500 C 181 8.225, 182.575 8, 184.500 8 C 186.991 8, 188 8.446, 188 9.547 C 188 10.875, 188.349 10.839, 190.469 9.297 C 192.321 7.949, 192.945 6.564, 192.969 3.750 L 193 0 175.513 0 L 158.025 0 155.378 4.250 C 153.922 6.588, 152.556 8.698, 152.342 8.940 C 152.129 9.182, 149.811 7.269, 147.193 4.690 L 142.431 0 93.649 0 L 44.866 0 41.183 3.491 C 39.157 5.412, 37.265 6.987, 36.977 6.991 C 36.690 6.996, 35.607 5.425, 34.570 3.500 L 32.685 0 20.093 0.168 C 13.167 0.261, 5.813 0.513, 3.750 0.728 M 0.272 5 C 0.272 7.475, 0.467 8.488, 0.706 7.250 C 0.944 6.012, 0.944 3.988, 0.706 2.750 C 0.467 1.512, 0.272 2.525, 0.272 5 M 188.500 6 C 188.160 6.550, 188.584 7, 189.441 7 C 190.298 7, 191 6.550, 191 6 C 191 5.450, 190.577 5, 190.059 5 C 189.541 5, 188.840 5.450, 188.500 6 M 165.974 11.527 C 163.558 14.099, 163.545 14.194, 165.430 15.573 C 167.111 16.802, 167.595 16.772, 169.180 15.337 C 171.342 13.380, 171.395 12.923, 169.724 10.638 C 168.538 9.015, 168.277 9.077, 165.974 11.527 M 21.524 12.926 C 21.125 14.182, 21.571 15.914, 22.689 17.449 C 24.828 20.387, 25.336 20.505, 27.038 18.454 C 28.101 17.173, 27.983 16.455, 26.350 14.267 C 23.777 10.820, 22.320 10.416, 21.524 12.926 M 0.336 32 C 0.336 36.125, 0.513 37.813, 0.728 35.750 C 0.944 33.688, 0.944 30.313, 0.728 28.250 C 0.513 26.188, 0.336 27.875, 0.336 32 M 81.500 87.642 C 77.650 87.779, 60.100 88.387, 42.500 88.992 C 24.900 89.596, 8.673 90.311, 6.439 90.579 C 0.418 91.301, -0 93.263, -0 120.821 L 0 144 10.363 144 L 20.727 144 23.300 138.250 C 24.715 135.088, 26.309 131.375, 26.842 130 C 27.374 128.625, 28.385 126.150, 29.088 124.500 L 30.367 121.500 31.084 127 C 31.479 130.025, 31.847 135.088, 31.901 138.250 L 32 144 95.500 144 L 159 144 159.014 139.250 C 159.021 136.637, 159.309 133.450, 159.652 132.166 C 160.179 130.199, 160.744 130.951, 163.247 136.944 L 166.216 144.057 179.358 143.778 L 192.500 143.500 192.566 119 C 192.603 105.525, 192.455 97.425, 192.238 101 L 191.842 107.500 188.817 98.500 C 187.153 93.550, 185.334 88.938, 184.774 88.250 C 183.981 87.277, 173.213 87.043, 136.128 87.196 C 109.932 87.304, 85.350 87.504, 81.500 87.642 M 0.432 120 C 0.432 133.475, 0.574 138.988, 0.747 132.250 C 0.920 125.513, 0.920 114.487, 0.747 107.750 C 0.574 101.013, 0.432 106.525, 0.432 120" stroke="none" fill="black" fill-rule="evenodd"/>
</svg>