<svg xmlns="http://www.w3.org/2000/svg" width="192" height="144" viewBox="0 0 192 144" version="1.1">
	<path d="M -0 72.005 L -0 144.010 96.250 143.755 L 192.500 143.500 192.757 71.750 L 193.013 0 96.507 0 L 0 0 -0 72.005 M 0.474 72.500 C 0.474 112.100, 0.598 128.154, 0.750 108.176 C 0.901 88.198, 0.901 55.798, 0.750 36.176 C 0.598 16.554, 0.474 32.900, 0.474 72.500 M 60.032 11.612 C 60.014 12.224, 58.906 12.605, 57.568 12.458 C 54.970 12.173, 54.983 12.785, 57.690 18 C 59.409 21.313, 59.336 21.989, 57.250 22.059 C 55.652 22.113, 55.663 22.221, 57.383 23.309 C 62.471 26.527, 73.927 40.536, 78.028 48.554 C 80.677 53.735, 80.707 53.958, 78.824 54.556 C 75.859 55.497, 69.930 61.053, 68.845 63.908 C 65.833 71.829, 67.398 85.589, 71.848 90.318 C 77.533 96.360, 94.650 103.663, 100.536 102.559 C 103.701 101.965, 107.301 98.768, 110.530 93.682 C 111.909 91.509, 112.845 90.995, 114.614 91.439 C 116.895 92.012, 116.901 91.987, 115.552 87.508 C 114.806 85.028, 114.584 83, 115.059 83 C 115.534 83, 118.339 84.969, 121.294 87.375 C 124.248 89.782, 127.753 92.324, 129.083 93.025 C 130.412 93.726, 131.802 94.763, 132.170 95.329 C 133.032 96.655, 136 97.106, 136 95.912 C 136 95.410, 136.435 95, 136.968 95 C 137.536 95, 137.609 95.881, 137.146 97.133 C 135.970 100.314, 139.719 103.663, 144.368 103.584 C 147.336 103.534, 148 103.150, 148 101.485 C 148 99.713, 148.518 99.497, 151.969 99.826 C 154.680 100.084, 156.446 99.696, 157.541 98.602 C 158.454 97.689, 158.657 97, 158.012 97 C 157.391 97, 157.160 96.550, 157.500 96 C 157.840 95.450, 157.593 95, 156.952 95 C 156.311 95, 156.012 94.412, 156.288 93.692 C 156.660 92.722, 155.493 92.385, 151.772 92.385 C 148.254 92.385, 146.392 91.889, 145.542 90.727 C 144.680 89.547, 144.021 89.379, 143.258 90.142 C 142.494 90.906, 141.856 90.599, 141.042 89.079 C 140.414 87.905, 139.439 87.229, 138.876 87.577 C 138.313 87.925, 136.873 87.327, 135.676 86.248 C 134.479 85.169, 130.719 82.426, 127.320 80.153 C 123.589 77.658, 120.276 74.483, 118.960 72.143 C 117.736 69.965, 115.313 67.566, 113.431 66.669 C 110.180 65.118, 110.124 64.990, 111.513 62.312 C 117.036 51.667, 111.148 39.511, 100.793 40.179 C 98.754 40.311, 96.766 40.099, 96.376 39.709 C 94.820 38.153, 93 39.118, 93 41.500 C 93 44.396, 91.265 44.705, 87.099 42.551 C 83.236 40.554, 74 29.387, 74 26.714 C 74 25.906, 73.327 24.686, 72.505 24.004 C 71.682 23.321, 70.487 21.019, 69.848 18.889 C 68.928 15.818, 68.410 15.245, 67.346 16.128 C 66.294 17.001, 65.690 16.515, 64.542 13.870 C 63.553 11.593, 63.066 11.129, 63.039 12.441 C 63 14.363, 62.985 14.363, 61.532 12.441 C 60.724 11.374, 60.049 11.001, 60.032 11.612" stroke="none" fill="black" fill-rule="evenodd"/>
</svg>