<svg xmlns="http://www.w3.org/2000/svg" width="192" height="144" viewBox="0 0 192 144" version="1.1">
	<path d="M 129.122 5.714 C 128.869 13.458, 129.776 17.300, 131.685 16.567 C 134.010 15.675, 135.273 16.966, 133.806 18.733 C 132.681 20.089, 132.823 20.191, 134.909 19.529 C 136.865 18.908, 137.189 19.065, 136.683 20.385 C 136.285 21.420, 136.590 22, 137.531 22 C 139.282 22, 139.430 24.296, 137.876 27.316 C 137.257 28.517, 133.485 32.693, 129.493 36.596 C 121.932 43.988, 118.592 48.478, 121.477 47.371 C 123.558 46.572, 123.388 48.319, 120.915 53.167 C 117.743 59.383, 117.410 66.266, 119.857 75.022 C 123.488 88.017, 123.621 87.556, 113.452 97.230 C 98.293 111.650, 96.408 113, 91.431 113 C 87.493 113, 86.886 112.672, 85.411 109.750 C 84.508 107.963, 82.472 105.455, 80.885 104.178 C 77.997 101.852, 77.107 98.670, 79.016 97.490 C 79.575 97.144, 79.784 96.459, 79.480 95.967 C 79.176 95.475, 79.848 94.152, 80.975 93.025 L 83.022 90.978 80.525 86.049 C 78.077 81.219, 77.953 81.133, 74.264 81.708 C 65.147 83.128, 63.245 85.455, 62.038 96.665 C 61.574 100.974, 60.223 108.480, 59.037 113.345 C 56.649 123.137, 56.880 130.242, 59.830 137.746 C 61.579 142.193, 64 143.468, 64 139.941 C 64 138.809, 64.402 138.130, 64.893 138.434 C 65.969 139.099, 66.506 136.997, 67.946 126.500 C 69.810 112.905, 70.042 111.908, 71.177 112.609 C 71.886 113.048, 72.008 115.358, 71.534 119.387 C 70.591 127.410, 70.717 131.117, 71.973 132.373 C 72.538 132.938, 73 135.785, 73 138.700 L 73 144 87.117 144 C 100.098 144, 101.190 143.859, 100.698 142.250 C 100.403 141.287, 99.714 139.062, 99.166 137.304 C 98.250 134.363, 98.424 133.918, 101.335 131.740 C 106.702 127.725, 120.051 119.718, 120.549 120.215 C 120.979 120.646, 117.693 138.150, 116.412 142.250 C 115.899 143.893, 117.925 144, 149.500 144 L 183.135 144 182.435 141.750 C 180.960 137.003, 172.778 121.718, 167.017 112.945 C 163.511 107.606, 160.997 102.679, 160.994 101.141 C 160.990 99.688, 160.325 97.229, 159.514 95.674 C 155.447 87.877, 157.499 64.473, 162.745 58.825 C 164.112 57.354, 165.807 56.373, 166.514 56.644 C 168.498 57.405, 168.995 55.769, 169.112 48.083 C 169.214 41.355, 170.095 38.726, 171.490 40.984 C 172.523 42.656, 173.728 42.142, 174.383 39.750 C 174.898 37.873, 175.163 37.749, 175.985 39 C 176.839 40.301, 176.971 40.280, 176.985 38.844 C 176.996 37.641, 177.592 37.342, 179.158 37.752 C 180.959 38.223, 181.226 37.972, 180.771 36.233 C 180.379 34.734, 180.615 34.299, 181.613 34.682 C 183.749 35.501, 183.328 31.766, 180.500 24.808 C 179.125 21.424, 178 17.895, 178 16.966 C 178 16.037, 179.350 12.299, 181 8.660 C 182.650 5.021, 184 1.584, 184 1.022 C 184 0.351, 174.610 0, 156.654 0 L 129.309 0 129.122 5.714 M 177 26.550 C 177 27.790, 180.185 33.148, 180.647 32.686 C 181.184 32.149, 178.266 26, 177.474 26 C 177.213 26, 177 26.247, 177 26.550" stroke="none" fill="black" fill-rule="evenodd"/>
</svg>