<svg xmlns="http://www.w3.org/2000/svg" width="192" height="144" viewBox="0 0 192 144" version="1.1">
	<path d="M 0 8.421 C 0 16.795, 0.015 16.844, 2.750 17.437 C 9.266 18.850, 10.313 18.841, 12.587 17.351 C 15.529 15.424, 18 16.211, 18 19.076 C 18 20.726, 18.400 21.046, 19.750 20.478 C 25.714 17.971, 30.740 19.452, 31.647 23.983 C 31.979 25.643, 32.572 27, 32.964 27 C 33.357 27, 34.197 28.137, 34.831 29.528 C 35.707 31.452, 35.697 32.513, 34.786 33.972 C 33.804 35.544, 33.923 36.257, 35.449 37.944 C 36.473 39.075, 37.803 40.005, 38.405 40.011 C 39.007 40.018, 42.590 42.889, 46.367 46.392 L 53.234 52.760 52.040 56.379 C 50.675 60.514, 51.689 69.059, 55.066 81.874 C 56.984 89.156, 58.119 92.984, 62.888 108.271 C 65.380 116.261, 65.846 129, 63.646 129 C 62.901 129, 61.134 130.073, 59.718 131.385 C 57.536 133.408, 56.434 133.690, 52.469 133.244 C 46.949 132.621, 46.038 133.540, 46.015 139.750 L 46 144 65.500 144 C 83.966 144, 85 143.900, 85 142.107 C 85 141.066, 84.414 139.989, 83.698 139.714 C 81.656 138.931, 74.880 124.561, 74.800 120.845 C 74.761 119.005, 74.169 115.925, 73.485 114 C 72.802 112.075, 71.425 105.153, 70.426 98.617 C 68.614 86.763, 68.615 86.730, 70.658 85.076 C 71.785 84.164, 73.189 82.515, 73.779 81.412 C 75.068 79.005, 75.704 61.949, 74.574 60.120 C 73.697 58.700, 71.699 50.456, 69.513 39.233 C 68.734 35.236, 67.795 31.477, 67.425 30.878 C 67.055 30.279, 66.558 28.149, 66.321 26.145 C 66.083 24.140, 65.464 21.195, 64.945 19.601 C 64.425 18.006, 64 12.944, 64 8.351 L 64 0 32 0 L 0 0 0 8.421 M 0.052 42.625 C 0.102 65.216, 0.195 66.371, 1.773 64.102 C 2.690 62.783, 5.600 59.002, 8.239 55.701 C 14.616 47.724, 14.746 47.077, 12.521 34.500 C 12.326 33.400, 12.129 31.682, 12.083 30.683 C 12.026 29.426, 11.460 29.033, 10.250 29.410 C 9.287 29.709, 7.831 29.535, 7.014 29.022 C 5.768 28.241, 5.727 27.563, 6.756 24.837 C 8.173 21.082, 7.652 20.280, 3.219 19.394 L -0 18.750 0.052 42.625 M 28 66 C 28 67.100, 28.173 68, 28.383 68 C 28.594 68, 29.002 67.100, 29.290 66 C 29.577 64.900, 29.405 64, 28.906 64 C 28.408 64, 28 64.900, 28 66 M 35 68 C 35 70.200, 35.236 72, 35.525 72 C 36.526 72, 37.941 67.009, 37.365 65.509 C 36.272 62.662, 35 64.002, 35 68 M 28.207 71.193 C 27.543 71.857, 27 73.421, 27 74.669 C 27 76.187, 26.544 76.762, 25.619 76.407 C 23.781 75.702, 22.132 80.542, 22.758 84.805 C 23.211 87.894, 23.087 88.060, 20.762 87.477 C 18.667 86.951, 17.940 87.436, 16.066 90.613 C 12.984 95.837, 11.981 93.648, 12.712 83.293 C 13.085 78.001, 12.932 75, 12.289 75 C 11.735 75, 9.237 76.800, 6.737 79 C 4.238 81.200, 1.700 83, 1.097 83 C 0.325 83, 0 92.043, 0 113.500 L 0 144 14.899 144 L 29.799 144 30.228 139.250 C 30.766 133.295, 29.627 131.660, 25.481 132.438 C 22.785 132.943, 22.165 132.657, 21.154 130.438 C 20.116 128.161, 19.463 127.885, 15.737 128.146 C 11.513 128.442, 11.500 128.433, 11.490 124.971 C 11.477 120.607, 14.076 114.112, 20.681 102 C 27.729 89.075, 30.217 83.001, 29.551 80.346 C 29.243 79.119, 29.493 77.013, 30.106 75.666 C 31.498 72.611, 30.094 69.306, 28.207 71.193 M 76.015 73.250 C 76.007 75.313, 76.173 77, 76.383 77 C 77.250 77, 77.636 72.032, 76.864 70.815 C 76.333 69.977, 76.025 70.860, 76.015 73.250 M 37.206 136.689 C 36.695 137.685, 35.981 139.738, 35.619 141.250 C 35.011 143.797, 35.190 144, 38.038 144 C 41.031 144, 41.107 143.887, 40.807 139.828 C 40.475 135.321, 38.702 133.775, 37.206 136.689" stroke="none" fill="black" fill-rule="evenodd"/>
</svg>