<svg xmlns="http://www.w3.org/2000/svg" width="192" height="144" viewBox="0 0 192 144" version="1.1">
	<path d="M 0 5.681 L 0 11.361 4 6 C 6.200 3.051, 8 0.495, 8 0.319 C 8 0.144, 6.200 0, 4 0 L 0 0 0 5.681 M 121.271 5.250 C 122.974 9.548, 123.359 12.766, 123.397 23 C 123.446 36.371, 123.542 35.996, 116.308 50.779 C 112.752 58.045, 103.955 66.810, 95 72.009 C 84.550 78.077, 77.129 85.799, 72.062 95.877 C 66.599 106.742, 65.561 111.379, 65.701 124.286 C 65.787 132.311, 66.225 135.694, 67.409 137.501 C 68.284 138.837, 69 140.845, 69 141.965 C 69 143.988, 69.336 144, 126.298 144 L 183.596 144 187.548 137.780 L 191.500 131.560 192.134 137.030 C 192.540 140.533, 192.630 139.298, 192.384 133.596 C 192.173 128.699, 192 99.427, 192 68.546 L 192 12.400 187.489 6.200 L 182.977 0 151.085 -0 L 119.192 -0 121.271 5.250 M 65.422 11.363 C 63.730 12.131, 60.892 14.500, 59.116 16.629 C 56.299 20.005, 55.940 21.075, 56.308 25 C 56.957 31.947, 57.784 34.320, 60.238 36.282 C 65.560 40.537, 72.715 41.206, 78.939 38.031 C 84.148 35.374, 87.001 30.541, 86.997 24.382 C 86.995 20.172, 86.472 18.894, 83.199 15.099 C 79.708 11.050, 78.969 10.669, 73.952 10.333 C 70.662 10.112, 67.280 10.521, 65.422 11.363 M 116.306 107.615 C 112.423 109.388, 110.682 111.034, 109.238 114.297 C 107.462 118.311, 107.685 120.444, 110.451 125.904 C 113.096 131.122, 114.673 131.964, 121.850 131.986 C 125.453 131.998, 126.770 131.430, 129.521 128.679 C 134.199 124.001, 134.996 118.984, 131.947 113.404 C 130.382 110.539, 128.439 108.637, 126.056 107.638 C 121.876 105.885, 120.104 105.881, 116.306 107.615 M 1 138.850 L 1 144 4.559 144 C 8.465 144, 8.476 144.095, 3.805 137.600 L 1 133.700 1 138.850" stroke="none" fill="black" fill-rule="evenodd"/>
</svg>