<svg xmlns="http://www.w3.org/2000/svg" width="192" height="144" viewBox="0 0 192 144" version="1.1">
	<path d="M 85.466 25.756 C 85.057 26.715, 84.630 28.355, 84.517 29.399 C 84.405 30.444, 83.559 31.849, 82.639 32.522 C 81.649 33.246, 81.222 34.415, 81.594 35.384 C 82.052 36.578, 81.802 36.861, 80.672 36.428 C 79.502 35.979, 78.949 36.754, 78.416 39.595 C 77.803 42.862, 78.043 43.630, 80.240 45.429 C 81.786 46.695, 83.398 49.698, 84.385 53.154 C 86.702 61.264, 86.540 63, 83.469 63 C 82.060 63, 80.662 63.717, 80.317 64.616 C 79.344 67.152, 84.528 76.704, 87.793 78.393 C 90.052 79.561, 90.923 81.009, 91.956 85.318 C 92.675 88.314, 92.984 91.217, 92.643 91.769 C 92.301 92.322, 92.665 93.307, 93.452 93.960 C 95.083 95.314, 94.637 96.975, 91.253 102.151 C 89.940 104.159, 87.824 109.559, 86.550 114.151 C 83.713 124.385, 80.263 132.273, 76.131 137.977 C 74.409 140.355, 73 142.683, 73 143.150 C 73 143.618, 85.213 144, 100.140 144 L 127.280 144 126.710 138.750 C 126.105 133.167, 120.370 111.693, 117.356 103.725 C 115.886 99.839, 115.778 98.585, 116.775 96.989 C 118.435 94.330, 118.329 81.184, 116.608 76.305 L 115.215 72.359 118.358 72.264 C 133.880 71.795, 135.964 71.481, 138.170 69.274 L 140.396 67.049 138.187 63.118 C 136.972 60.956, 135.361 57.441, 134.608 55.306 C 133.314 51.639, 133.374 51.267, 135.678 48.588 C 137.020 47.027, 137.867 45.132, 137.559 44.375 C 137.252 43.619, 136.727 42.325, 136.393 41.500 C 135.534 39.377, 138.805 39.563, 144.112 41.939 C 149.295 44.259, 151 43.368, 151 38.338 C 151 32.402, 146.109 25, 142.187 25 C 141.668 25, 140.683 26.352, 139.998 28.005 C 138.616 31.340, 132.686 37, 130.572 37 C 129.825 37, 128.955 36.325, 128.638 35.500 C 127.911 33.605, 123.116 33.597, 120.621 35.486 C 119.453 36.371, 118.939 37.659, 119.262 38.894 C 119.651 40.380, 118.814 41.519, 115.934 43.425 C 110.800 46.822, 109.429 47.016, 109.806 44.289 C 109.975 43.073, 109.545 41.048, 108.852 39.789 C 108.159 38.530, 107.346 35.476, 107.046 33.002 C 106.537 28.808, 106.230 28.414, 102.500 27.169 C 99.386 26.130, 97.779 26.088, 95.247 26.983 C 92.436 27.975, 91.600 27.852, 89.101 26.072 C 86.404 24.151, 86.159 24.130, 85.466 25.756 M 131.728 45.066 C 132.080 46.414, 132.608 46.792, 133.247 46.153 C 134.282 45.118, 133.468 43, 132.035 43 C 131.569 43, 131.430 43.930, 131.728 45.066 M 117.399 47.450 C 114.792 49.356, 116.348 50.570, 119.009 48.706 C 120.185 47.883, 120.730 46.951, 120.221 46.636 C 119.711 46.322, 118.442 46.688, 117.399 47.450 M 109.104 49.914 C 107.486 50.939, 108.326 54.007, 110.219 53.985 C 110.923 53.976, 112.146 53.561, 112.936 53.061 C 114.126 52.308, 114.147 51.883, 113.063 50.576 C 111.567 48.773, 111.045 48.686, 109.104 49.914 M 167.742 60.061 C 166.775 60.637, 165.650 60.906, 165.242 60.659 C 164.834 60.412, 163.915 60.843, 163.199 61.617 C 162.126 62.778, 162.170 63.128, 163.449 63.619 C 164.302 63.946, 165 64.867, 165 65.666 C 165 66.465, 164.597 66.869, 164.105 66.565 C 163.612 66.260, 162.968 66.642, 162.672 67.412 C 162.338 68.284, 163.162 69.239, 164.853 69.939 C 166.348 70.558, 167.640 71.838, 167.724 72.783 C 167.807 73.727, 168.467 77.412, 169.191 80.972 C 170.239 86.132, 171.012 87.711, 173.003 88.761 C 175.968 90.325, 181.188 89.858, 187.450 87.466 L 192 85.728 192 77.757 C 192 70.899, 191.779 69.871, 190.418 70.393 C 189.548 70.727, 188.648 71, 188.418 71 C 188.188 71, 188 71.603, 188 72.339 C 188 73.076, 186.899 74.181, 185.553 74.794 C 183.445 75.754, 183.018 75.631, 182.470 73.906 C 181.567 71.061, 183.563 69.161, 187.826 68.806 C 190.756 68.562, 191.564 68.046, 191.818 66.260 C 192.117 64.159, 191.864 64.057, 187.779 64.617 C 183.235 65.240, 180.609 63.735, 181.215 60.855 C 181.574 59.149, 170.381 58.490, 167.742 60.061" stroke="none" fill="black" fill-rule="evenodd"/>
</svg>