<svg xmlns="http://www.w3.org/2000/svg" width="192" height="144" viewBox="0 0 192 144" version="1.1">
	<path d="M 0 72 L 0 144 36.500 144 C 77.754 144, 76.509 144.285, 69.272 136.500 C 67.227 134.300, 65.676 132.099, 65.824 131.609 C 65.973 131.119, 65.339 129.127, 64.416 127.182 L 62.738 123.646 68.895 111.806 C 73.819 102.340, 74.850 99.589, 74.043 98.080 C 73.266 96.628, 73.635 95.116, 75.641 91.528 L 78.248 86.862 76.124 85.374 C 73.504 83.539, 73.002 76, 75.500 76 C 76.399 76, 76.987 75.098, 76.967 73.750 L 76.933 71.500 74.881 73.967 C 72.756 76.521, 65.994 77.750, 66.006 75.580 C 66.026 71.556, 70.762 59.381, 73.290 56.853 C 75.814 54.328, 79.691 47.569, 82.256 41.217 C 84.544 35.554, 84.626 34.886, 83.139 34.018 C 81.772 33.220, 81.905 33.056, 83.936 33.030 C 85.275 33.014, 87.300 32.139, 88.436 31.087 C 91.590 28.163, 93.349 28.191, 99.762 31.266 C 101.104 31.910, 102.504 33.950, 103.202 36.280 C 103.849 38.440, 104.966 40.433, 105.684 40.709 C 106.401 40.984, 106.735 41.620, 106.425 42.121 C 106.115 42.622, 105.502 42.810, 105.062 42.538 C 103.808 41.763, 97 48.880, 97 50.967 C 97 52.011, 98.486 53.755, 100.365 54.917 C 102.922 56.497, 104.274 58.486, 105.989 63.191 L 108.248 69.385 105.967 73.561 C 104.668 75.938, 103.964 78.463, 104.331 79.421 C 104.715 80.421, 104.573 80.854, 103.981 80.489 C 101.610 79.023, 102.128 83.451, 105.441 92.970 C 107.398 98.592, 108.746 103.602, 108.436 104.104 C 108.126 104.605, 108.557 105.700, 109.394 106.537 C 110.230 107.373, 110.702 108.614, 110.441 109.293 C 110.180 109.972, 111.296 114.459, 112.920 119.264 C 114.544 124.069, 115.414 128, 114.853 128 C 114.292 128, 114.019 128.558, 114.247 129.240 C 114.474 129.922, 113.624 131.294, 112.358 132.290 C 110.495 133.756, 109.650 133.883, 107.921 132.958 C 105.244 131.525, 104.239 132.546, 103.942 137 C 103.426 144.752, 98.832 144.051, 148.250 143.760 L 192.500 143.500 192.757 71.750 L 193.013 0 96.507 0 L 0 0 0 72 M 0.474 72.500 C 0.474 112.100, 0.598 128.154, 0.750 108.176 C 0.901 88.198, 0.901 55.798, 0.750 36.176 C 0.598 16.554, 0.474 32.900, 0.474 72.500 M 99 67.450 C 99 68.212, 99.288 69.586, 99.639 70.502 C 100.149 71.831, 100.449 71.898, 101.124 70.834 C 102.400 68.821, 102.171 67.279, 100.500 66.638 C 99.611 66.297, 99 66.628, 99 67.450 M 82 73.059 C 82 74.844, 82.417 75.861, 83 75.500 C 83.550 75.160, 84 73.784, 84 72.441 C 84 71.098, 83.550 70, 83 70 C 82.450 70, 82 71.377, 82 73.059 M 90.341 136.919 C 88.604 137.987, 85.679 139.004, 83.841 139.180 C 81.238 139.429, 80.428 140.006, 80.175 141.792 C 79.856 144.042, 79.999 144.078, 88.175 143.792 L 96.500 143.500 96.500 139.514 C 96.500 134.757, 94.935 134.098, 90.341 136.919" stroke="none" fill="black" fill-rule="evenodd"/>
</svg>