<svg xmlns="http://www.w3.org/2000/svg" width="192" height="144" viewBox="0 0 192 144" version="1.1">
	<path d="M 87.022 107.696 C 90.011 112.409, 90.866 116, 89 116 C 88.450 116, 88 115.550, 88 115 C 88 114.450, 86.088 114.016, 83.750 114.035 C 79.561 114.070, 79.536 114.091, 82 115.500 C 83.375 116.286, 84.073 116.945, 83.550 116.965 C 83.027 116.984, 83.140 117.540, 83.800 118.200 C 85.284 119.684, 85.350 121, 83.941 121 C 83.359 121, 83.195 120.438, 83.579 119.750 C 83.962 119.063, 83.251 119.475, 81.999 120.667 C 79.378 123.161, 79.894 126, 82.969 126 C 84.615 126, 85 126.649, 85 129.429 C 85 131.314, 84.325 133.532, 83.500 134.357 C 82.675 135.182, 82 136.603, 82 137.515 C 82 138.917, 82.926 139.114, 88 138.790 C 91.300 138.579, 94 138.703, 94 139.065 C 94 139.427, 95.237 139.539, 96.750 139.314 C 99.454 138.912, 99.448 138.929, 96.370 140.354 C 88.958 143.785, 90.979 144.002, 129.691 143.933 C 170.206 143.860, 169.610 143.968, 152.500 139.796 C 149.750 139.125, 146.903 137.994, 146.173 137.283 C 144.912 136.053, 143.231 136.110, 138.336 137.551 C 136.778 138.010, 135.874 137.633, 135.111 136.208 C 134.529 135.119, 132.374 133.164, 130.323 131.864 C 124.238 128.006, 122.327 126.648, 118.826 123.693 C 116.997 122.150, 113.250 119.350, 110.500 117.473 C 107.750 115.595, 102.545 112.041, 98.933 109.574 C 92.345 105.075, 88.091 103, 85.457 103 C 84.462 103, 84.925 104.389, 87.022 107.696 M 80.629 128.477 C 80.951 129.315, 81.841 130, 82.607 130 C 84.560 130, 84.341 129.253, 82.023 128.012 C 80.409 127.149, 80.153 127.234, 80.629 128.477" stroke="none" fill="black" fill-rule="evenodd"/>
</svg>