<svg xmlns="http://www.w3.org/2000/svg" width="192" height="144" viewBox="0 0 192 144" version="1.1">
	<path d="M 116.510 8.876 C 112.216 9.795, 110.376 13.975, 111.951 19.231 C 112.604 21.411, 112.995 23.278, 112.819 23.380 C 112.644 23.483, 111.188 24.226, 109.585 25.033 C 104.489 27.597, 98.134 34.777, 96.952 39.305 C 96.350 41.612, 95.481 44.962, 95.022 46.750 C 94.537 48.640, 94.566 50, 95.094 50 C 95.592 50, 96 51.055, 96 52.345 C 96 55.024, 98.074 57.099, 102.750 59.099 C 106.322 60.626, 106.533 61.136, 104.873 64.237 C 103.969 65.926, 104.068 66.577, 105.373 67.531 C 106.268 68.185, 107 69.069, 107 69.496 C 107 69.922, 108.125 71.313, 109.500 72.588 C 111.731 74.655, 112.848 79.631, 112.118 84.250 C 112.053 84.662, 112.450 85, 113 85 C 114.363 85, 114.267 92.321, 112.863 95.401 C 112.007 97.280, 110.834 97.970, 108.113 98.198 C 104.802 98.475, 104.458 98.799, 104 102.079 C 103.725 104.048, 102.276 107.104, 100.780 108.870 C 98.210 111.905, 97.906 112.007, 95.280 110.726 C 93.751 109.979, 88.900 108.305, 84.500 107.005 C 80.100 105.706, 75.938 103.962, 75.250 103.130 C 74.563 102.298, 74 99.883, 74 97.763 C 74 92.297, 70.191 88.545, 65.427 89.318 C 63.140 89.689, 61.995 89.479, 61.985 88.687 C 61.975 87.950, 61.624 88.046, 61.058 88.940 C 60.557 89.732, 58.651 91.086, 56.823 91.948 C 52.538 93.970, 50.863 98.604, 52.320 104.412 C 54.195 111.887, 58.926 116, 65.649 116 C 66.942 116, 68 116.438, 68 116.972 C 68 119.388, 63.106 136.893, 61.637 139.735 C 60.737 141.476, 60 143.148, 60 143.450 C 60 143.753, 70.301 144, 82.892 144 L 105.784 144 107.293 138.250 L 108.801 132.500 108.901 138.250 L 109 144 135 144 C 149.300 144, 161 143.757, 161 143.460 C 161 143.163, 160.112 141.180, 159.026 139.052 C 157.941 136.924, 156.763 133.369, 156.408 131.151 C 155.783 127.243, 155.864 127.092, 159.035 126.271 C 160.835 125.804, 163.012 124.362, 163.872 123.066 C 165.413 120.745, 165.391 120.717, 162.469 121.261 C 160.836 121.565, 158.568 122.111, 157.429 122.476 C 155.532 123.084, 155.209 122.444, 153.570 114.820 C 152.586 110.244, 151.630 105.967, 151.446 105.315 C 151.263 104.663, 151.602 103.966, 152.200 103.767 C 152.973 103.509, 152.956 102.787, 152.143 101.268 C 150.630 98.440, 150.581 87.865, 152.091 90 C 152.991 91.272, 153.238 91.285, 153.715 90.084 C 154.102 89.109, 154.872 89.732, 156.188 92.084 L 158.099 95.500 157.534 92.500 C 157.028 89.813, 157.113 89.683, 158.345 91.250 C 159.101 92.212, 160.030 93, 160.409 93 C 160.787 93, 160.895 84.787, 160.649 74.750 C 160.183 55.726, 158.759 46.270, 155.061 37.643 C 153.928 34.998, 153 32.179, 153 31.377 C 153 28.508, 148.955 22.068, 145.496 19.429 C 142.564 17.193, 141.247 16.825, 137.629 17.233 C 132.785 17.779, 131.331 17.157, 124.814 11.750 C 122.328 9.688, 120.115 8.053, 119.897 8.118 C 119.679 8.183, 118.154 8.525, 116.510 8.876 M 120.779 78.375 C 120.503 79.819, 120.638 81, 121.080 81 C 122.525 81, 123.127 79.049, 122.195 77.383 C 121.432 76.021, 121.198 76.185, 120.779 78.375" stroke="none" fill="black" fill-rule="evenodd"/>
</svg>