<svg xmlns="http://www.w3.org/2000/svg" width="192" height="144" viewBox="0 0 192 144" version="1.1">
	<path d="M 0 72 L 0 144 40.352 144 L 80.704 144 81.547 135.750 C 82.010 131.213, 82.282 119.175, 82.150 109 C 81.867 87.111, 81.263 85.458, 75.701 91.355 C 72.098 95.175, 69.331 95.837, 64.552 94.020 C 63.134 93.481, 59.219 92.596, 55.853 92.054 C 49.862 91.089, 46 88.901, 46 86.473 C 46 85.803, 44.134 84.957, 41.853 84.593 C 36.928 83.805, 28 80.121, 28 78.877 C 28 78.395, 28.450 78, 29 78 C 29.550 78, 30.014 77.213, 30.032 76.250 C 30.062 74.616, 30.155 74.620, 31.443 76.320 C 32.777 78.079, 32.857 78.079, 33.881 76.320 C 34.513 75.233, 34.951 75.029, 34.970 75.813 C 34.986 76.535, 35.788 77.028, 36.750 76.909 C 37.712 76.790, 39.400 77.029, 40.500 77.440 C 46.013 79.500, 47.717 79.870, 50.195 79.543 C 51.677 79.348, 55.502 80.224, 58.695 81.489 C 69.094 85.611, 68.453 85.699, 71.905 79.666 C 73.607 76.691, 75 73.557, 75 72.701 C 75 71.846, 76.586 69.838, 78.525 68.240 C 80.464 66.642, 82.250 64.246, 82.494 62.917 C 82.738 61.588, 84.302 59.342, 85.969 57.927 C 89.349 55.058, 90.035 52.537, 87.190 53.440 C 85.011 54.131, 79.500 48.395, 79.500 45.436 C 79.500 44.187, 78.698 43.386, 77.239 43.179 C 75.936 42.994, 74.322 41.589, 73.430 39.865 C 72.029 37.155, 72.034 36.415, 73.482 32.053 C 74.362 29.403, 76 26.405, 77.121 25.391 C 78.580 24.070, 79.005 22.774, 78.616 20.829 C 77.997 17.735, 80.115 16.489, 84.235 17.523 C 86.307 18.043, 86.893 17.564, 88.475 14.055 C 89.485 11.816, 90.804 10.082, 91.406 10.202 C 92.007 10.322, 93.450 9.893, 94.612 9.248 C 96.395 8.260, 97.028 8.422, 98.677 10.289 C 102.251 14.334, 104.137 18.106, 104.194 21.320 C 104.225 23.069, 105.101 25.437, 106.142 26.582 C 109.035 29.766, 111.617 38.344, 113.386 50.640 C 114.389 57.619, 116.484 66.009, 118.994 73.106 C 122.920 84.207, 123.881 88.663, 122.114 87.571 C 120.759 86.733, 120.095 91.975, 121.168 95.051 C 121.880 97.095, 121.618 99.308, 120.127 103.851 C 119.031 107.190, 117.831 112.076, 117.461 114.710 C 117.090 117.345, 116.172 119.991, 115.421 120.590 C 114.497 121.328, 113.835 125.294, 113.376 132.852 L 112.698 144.023 152.599 143.762 L 192.500 143.500 192.757 71.750 L 193.013 0 96.507 0 L 0 0 0 72 M 0.474 72.500 C 0.474 112.100, 0.598 128.154, 0.750 108.176 C 0.901 88.198, 0.901 55.798, 0.750 36.176 C 0.598 16.554, 0.474 32.900, 0.474 72.500" stroke="none" fill="black" fill-rule="evenodd"/>
</svg>