<svg xmlns="http://www.w3.org/2000/svg" width="192" height="144" viewBox="0 0 192 144" version="1.1">
	<path d="M 0 72 L 0 144 39.250 143.990 L 78.500 143.981 81.861 135.240 C 83.709 130.433, 85.457 124.700, 85.746 122.500 C 86.034 120.300, 86.626 118.044, 87.061 117.487 C 88.321 115.873, 88.992 102, 87.810 102 C 87.247 102, 87.067 101.268, 87.410 100.373 C 87.754 99.479, 87.513 98.118, 86.876 97.350 C 85.949 96.233, 86.045 96.080, 87.359 96.584 C 88.271 96.934, 89 96.723, 89 96.107 C 89 94.609, 87.053 94.724, 83.818 96.412 C 81.701 97.516, 81.241 97.537, 81.635 96.509 C 81.910 95.793, 81.092 94.477, 79.818 93.585 C 77.732 92.124, 77.388 92.116, 76.369 93.510 C 75.352 94.901, 75.177 94.902, 74.646 93.521 C 73.203 89.761, 79.225 81.673, 85.551 78.875 C 88.897 77.394, 89.891 76.307, 90.863 73.063 C 91.521 70.868, 92.874 68.494, 93.871 67.786 C 94.868 67.079, 96.146 65.150, 96.711 63.500 L 97.738 60.500 98.942 63.058 C 99.604 64.466, 101.462 66.113, 103.069 66.720 C 104.676 67.327, 106.781 69.210, 107.746 70.905 C 108.711 72.600, 110.206 73.990, 111.068 73.994 C 114.083 74.006, 122.818 77.033, 124.820 78.759 C 125.931 79.717, 127.115 81.863, 127.451 83.529 C 128.003 86.267, 127.804 86.580, 125.382 86.780 C 123.908 86.902, 122.038 87.554, 121.225 88.228 C 119.961 89.278, 120.110 89.601, 122.262 90.481 C 124.366 91.341, 123.617 91.543, 117.667 91.723 C 105.849 92.080, 102.449 93.418, 107.250 95.821 C 109.356 96.875, 109.321 96.909, 106.699 96.352 L 103.899 95.758 104.583 101.129 C 104.960 104.083, 105.627 107.200, 106.065 108.055 C 107.275 110.417, 105.981 118, 104.368 118 C 103.616 118, 103 118.155, 103 118.343 C 103 119.539, 107.121 130.318, 108.946 133.895 C 110.152 136.259, 111.177 139.505, 111.222 141.108 L 111.305 144.022 151.902 143.761 L 192.500 143.500 192.757 71.750 L 193.013 0 157.007 0 L 121 0 121 5.290 C 121 17.245, 116.323 28.182, 106.506 39.185 C 102.917 43.208, 99.047 48.408, 97.906 50.740 L 95.831 54.980 93.330 50.275 C 91.954 47.688, 89.595 43.980, 88.089 42.035 C 82.512 34.837, 75.606 22.612, 74.323 17.664 C 73.595 14.859, 73 9.737, 73 6.282 L 73 0 36.500 0 L 0 0 0 72 M 0.474 72.500 C 0.474 112.100, 0.598 128.154, 0.750 108.176 C 0.901 88.198, 0.901 55.798, 0.750 36.176 C 0.598 16.554, 0.474 32.900, 0.474 72.500" stroke="none" fill="black" fill-rule="evenodd"/>
</svg>