<svg xmlns="http://www.w3.org/2000/svg" width="192" height="144" viewBox="0 0 192 144" version="1.1">
	<path d="M 0 28 C 0 43.400, 0.337 55.987, 0.750 55.970 C 1.163 55.954, 2.625 54.566, 4 52.887 C 5.375 51.207, 7.512 48.890, 8.750 47.736 C 9.987 46.583, 11 45.211, 11 44.687 C 11 44.163, 11.804 43.007, 12.786 42.117 C 13.768 41.228, 15.586 39.179, 16.825 37.565 C 21.785 31.106, 32.136 20.982, 43.183 11.785 C 49.585 6.455, 55.115 1.623, 55.471 1.047 C 55.916 0.327, 47.352 0, 28.059 0 L 0 0 0 28 M 137 0.845 C 137 1.310, 137.900 2.505, 139 3.500 C 140.100 4.495, 141 6.559, 141 8.085 C 141 10.740, 140.859 10.820, 137.757 9.930 C 130.901 7.964, 130.885 8.098, 136.464 21 C 140.779 30.980, 142.421 40.248, 141.695 50.527 C 140.797 63.260, 136.101 71.357, 126.891 76.056 C 121.341 78.887, 116.998 78.052, 112.729 73.332 C 106.563 66.516, 99.816 60.480, 94.195 56.750 C 87.994 52.636, 86 52.130, 86 54.671 C 86 55.591, 83.975 58.283, 81.500 60.655 C 77.073 64.896, 75.942 67, 78.090 67 C 79.650 67, 82.500 70.585, 86.510 77.594 C 88.428 80.946, 90.887 84.493, 91.975 85.478 C 93.063 86.462, 93.749 87.597, 93.500 88 C 93.251 88.403, 93.956 89.555, 95.067 90.560 C 96.853 92.177, 97.011 92.192, 96.436 90.694 C 96.079 89.762, 95.309 89, 94.726 89 C 94.144 89, 93.933 88.734, 94.258 88.409 C 94.583 88.084, 97.709 89.417, 101.205 91.372 C 113.384 98.183, 123.311 98.091, 140.319 91.011 C 146.858 88.289, 147.940 87.424, 151.289 82.245 C 153.332 79.085, 157.547 71.417, 160.656 65.205 C 163.804 58.915, 166.690 54.290, 167.168 54.768 C 168.376 55.976, 166.290 62.205, 161.114 72.845 C 159.951 75.234, 159 78.449, 159 79.989 C 159 82.713, 159.102 82.766, 162.750 81.919 C 169.308 80.396, 171.048 80.812, 175.118 84.882 C 178.875 88.639, 179 88.987, 179 95.642 L 179 102.519 182.250 102.510 C 184.360 102.503, 185.409 102.948, 185.241 103.778 C 185.098 104.481, 185.661 105.316, 186.491 105.635 C 189.735 106.880, 187.730 108, 182.250 108.004 L 176.500 108.007 171.808 113.813 C 165.121 122.088, 155.918 129.310, 139 139.561 L 132.500 143.500 161.935 143.765 C 179.081 143.920, 191.756 143.644, 192.297 143.103 C 192.863 142.537, 192.935 114.516, 192.480 71.088 L 191.735 -0 164.368 -0 C 149.315 -0, 137 0.380, 137 0.845 M 51.558 62.334 C 49.838 63.591, 47.688 72.355, 48.821 73.488 C 49.654 74.320, 53.998 67.262, 54.645 64.023 C 55.302 60.742, 54.406 60.252, 51.558 62.334 M 1 109.809 L 1 144 28 144 C 42.850 144, 55 143.763, 55 143.473 C 55 143.183, 51.625 138.978, 47.500 134.128 C 43.375 129.278, 40 124.967, 40 124.549 C 40 124.130, 38.741 122.148, 37.201 120.144 C 35.662 118.140, 31.949 112.540, 28.951 107.700 C 23.222 98.452, 16.852 91.185, 10.807 87 C 8.821 85.625, 7.422 84.132, 7.699 83.683 C 7.975 83.233, 7.256 82.618, 6.101 82.316 C 4.945 82.014, 3.986 81.257, 3.968 80.633 C 3.951 80.010, 3.276 78.626, 2.468 77.559 C 1.168 75.840, 1 79.531, 1 109.809" stroke="none" fill="black" fill-rule="evenodd"/>
</svg>