<svg xmlns="http://www.w3.org/2000/svg" width="192" height="144" viewBox="0 0 192 144" version="1.1">
	<path d="M 0.023 60 C 0.067 101.703, 0.410 120, 1.150 120 C 1.735 120, 1.954 119.322, 1.636 118.494 C 1.205 117.371, 3.452 115.869, 10.465 112.592 C 17.450 109.328, 21.459 106.653, 26.038 102.200 C 31.825 96.572, 32.159 95.998, 31.484 92.852 C 30.473 88.142, 30.099 87.748, 27.160 88.310 C 23.793 88.953, 15.579 84.830, 12.113 80.757 C 8.473 76.480, 7.165 72.491, 7.076 65.407 C 6.893 50.779, 16.667 35.929, 30.332 30.072 C 45.699 23.485, 63.756 26.516, 70.448 36.805 C 73.954 42.196, 75.421 48.608, 74.143 52.953 C 73.569 54.904, 72.845 57.729, 72.535 59.232 C 72.225 60.734, 70.688 63.434, 69.120 65.232 C 67.553 67.029, 65.958 69.501, 65.576 70.724 C 65.194 71.947, 63.830 73.775, 62.544 74.787 C 60.854 76.116, 60.340 77.326, 60.689 79.152 C 61.328 82.498, 55.833 87.426, 52.417 86.569 L 50.151 86 52.177 91.750 C 54.049 97.066, 54.166 99.254, 53.727 120.757 L 53.252 144.014 122.876 143.757 L 192.500 143.500 192.783 71.750 L 193.067 0 134.394 0 C 79.687 0, 75.631 0.118, 74.392 1.750 C 73.127 3.417, 73.062 3.417, 73.032 1.750 C 73.002 0.116, 70.582 0, 36.481 0 L -0.039 0 0.023 60 M 0.468 57 C 0.468 88.075, 0.594 100.788, 0.749 85.250 C 0.904 69.713, 0.904 44.288, 0.749 28.750 C 0.594 13.213, 0.468 25.925, 0.468 57 M 142.510 5.016 C 142.856 5.575, 143.557 5.774, 144.069 5.457 C 145.456 4.600, 145.198 4, 143.441 4 C 142.584 4, 142.165 4.457, 142.510 5.016 M 111 19 C 111 19.550, 112.098 20, 113.441 20 C 114.784 20, 116.160 19.550, 116.500 19 C 116.861 18.417, 115.844 18, 114.059 18 C 112.377 18, 111 18.450, 111 19 M 132.667 33.667 C 132.300 34.033, 132 34.798, 132 35.367 C 132 35.993, 132.466 35.934, 133.183 35.217 C 133.834 34.566, 134.134 33.801, 133.850 33.517 C 133.566 33.233, 133.033 33.300, 132.667 33.667 M 80.500 70 C 79.718 71.266, 81.042 71.266, 83 70 C 84.293 69.165, 84.266 69.029, 82.809 69.015 C 81.879 69.007, 80.840 69.450, 80.500 70 M 108 77 C 108 77.550, 108.477 78, 109.059 78 C 109.641 78, 109.840 77.550, 109.500 77 C 109.160 76.450, 108.684 76, 108.441 76 C 108.198 76, 108 76.450, 108 77 M 146.582 80.316 C 144.709 81.686, 144.706 85.070, 146.578 85.693 C 147.980 86.160, 150.027 81.662, 149.098 80.158 C 148.565 79.296, 147.922 79.337, 146.582 80.316 M 116.531 89.293 C 116.103 90.279, 116.034 91.367, 116.376 91.710 C 117.392 92.725, 118.211 91.299, 117.743 89.328 C 117.329 87.581, 117.275 87.580, 116.531 89.293 M 136.429 97.429 C 135.370 98.203, 134.851 99.184, 135.275 99.609 C 135.700 100.033, 136.798 99.631, 137.714 98.714 C 139.876 96.553, 138.926 95.603, 136.429 97.429 M 12 98 C 12 98.550, 12.423 99, 12.941 99 C 13.459 99, 14.160 98.550, 14.500 98 C 14.840 97.450, 14.416 97, 13.559 97 C 12.702 97, 12 97.450, 12 98 M 178.500 106 C 178.160 106.550, 178.359 107, 178.941 107 C 179.523 107, 180 106.550, 180 106 C 180 105.450, 179.802 105, 179.559 105 C 179.316 105, 178.840 105.450, 178.500 106 M 114.248 110.250 C 115.068 111.487, 116.509 112.653, 117.451 112.839 C 119.063 113.158, 119.064 113.027, 117.466 110.589 C 116.533 109.165, 115.092 108, 114.263 108 C 112.925 108, 112.923 108.252, 114.248 110.250 M 0.195 117.500 C 0.215 119.150, 0.439 119.704, 0.693 118.731 C 0.947 117.758, 0.930 116.408, 0.656 115.731 C 0.382 115.054, 0.175 115.850, 0.195 117.500 M 1 134.378 L 1 144 18.861 144 L 36.723 144 36.251 141.532 C 35.981 140.118, 34.866 138.804, 33.640 138.453 C 32.463 138.116, 29.975 137.151, 28.110 136.307 C 25.675 135.205, 23.140 134.950, 19.110 135.402 C 15.607 135.795, 11.810 135.541, 9 134.727 C 5.023 133.575, 4.464 133.059, 4.192 130.286 C 4.023 128.561, 3.235 126.610, 2.442 125.952 C 1.203 124.924, 1 126.109, 1 134.378 M 169 126 C 169 126.550, 169.675 127, 170.500 127 C 171.325 127, 172 126.550, 172 126 C 172 125.450, 171.325 125, 170.500 125 C 169.675 125, 169 125.450, 169 126 M 186.086 126 C 186.116 126.825, 186.527 128.400, 187 129.500 L 187.859 131.500 187.914 129.500 C 187.945 128.400, 187.533 126.825, 187 126 C 186.138 124.667, 186.037 124.667, 186.086 126 M 60.750 127.973 C 58.849 130.659, 58.525 133.701, 59.908 135.885 C 61.275 138.044, 63.178 133.663, 62.808 129.208 L 62.500 125.500 60.750 127.973 M 120 130.500 C 118.988 131.720, 119.035 132, 120.255 132 C 121.080 132, 122.315 131.325, 123 130.500 C 124.012 129.280, 123.965 129, 122.745 129 C 121.920 129, 120.685 129.675, 120 130.500 M 43.655 138.829 C 40.933 141.836, 41.545 144, 45.117 144 C 47.861 144, 48.161 143.731, 47.630 141.750 C 47.299 140.512, 47.021 138.938, 47.014 138.250 C 46.994 136.462, 45.575 136.707, 43.655 138.829" stroke="none" fill="black" fill-rule="evenodd"/>
</svg>