<svg xmlns="http://www.w3.org/2000/svg" width="192" height="144" viewBox="0 0 192 144" version="1.1">
	<path d="M -0 72.005 L -0 144.010 96.250 143.755 L 192.500 143.500 192.757 71.750 L 193.013 0 96.507 0 L 0 0 -0 72.005 M 0.474 72.500 C 0.474 112.100, 0.598 128.154, 0.750 108.176 C 0.901 88.198, 0.901 55.798, 0.750 36.176 C 0.598 16.554, 0.474 32.900, 0.474 72.500 M 92 31.417 C 92 32.746, 91.485 34.005, 90.857 34.214 C 89.999 34.500, 89.999 35.129, 90.857 36.732 C 91.485 37.907, 92 41.977, 92 45.776 L 92 52.683 88.190 53.825 C 83.773 55.148, 81.071 57.784, 77.969 63.794 C 75.147 69.260, 75.656 72.601, 80.567 80.844 C 85.432 89.012, 87.605 90.443, 93.878 89.611 L 98.720 88.968 100.930 95.029 C 102.146 98.363, 103.394 102.652, 103.703 104.560 C 104.145 107.279, 104.832 108.152, 106.883 108.598 C 108.322 108.911, 110.048 109.335, 110.718 109.540 C 111.388 109.745, 112.206 109.475, 112.537 108.940 C 112.868 108.405, 113.552 108.223, 114.058 108.536 C 115.178 109.228, 114.032 105.984, 112.556 104.285 C 109.987 101.328, 109.310 100.134, 106.729 94 C 103.668 86.724, 103.402 83.659, 105.514 80 L 106.957 77.500 107.595 79.750 C 108.400 82.587, 109.468 82.598, 111.435 79.789 C 112.889 77.713, 112.801 77.390, 109.992 74.492 C 108.346 72.794, 107 70.587, 107 69.589 C 107 67.266, 103.269 60.277, 100.207 56.863 C 98.375 54.820, 97.789 52.904, 97.606 48.363 C 97.477 45.138, 97.792 41.938, 98.308 41.250 C 98.922 40.430, 98.847 40, 98.087 40 C 97.253 40, 97.218 39.460, 97.965 38.066 C 100.234 33.826, 98.086 29, 93.929 29 C 92.556 29, 92 29.697, 92 31.417" stroke="none" fill="black" fill-rule="evenodd"/>
</svg>