<svg xmlns="http://www.w3.org/2000/svg" width="192" height="144" viewBox="0 0 192 144" version="1.1">
	<path d="M 67.872 1.662 C 66.144 3.755, 66.252 15.715, 68.029 19.099 C 68.722 20.420, 70.519 23.075, 72.021 25 C 75.377 29.301, 76.749 36.232, 74.920 39.650 C 73.792 41.757, 73.877 42.321, 75.579 44.024 C 78.139 46.583, 92.579 50.198, 98.682 49.807 C 103.402 49.505, 103.485 49.441, 104.099 45.634 C 105.002 40.039, 110.270 35.487, 116.856 34.614 C 127.220 33.239, 133.470 29.806, 136.614 23.763 C 137.853 21.381, 137.843 20.560, 136.538 17.436 C 135.107 14.013, 134.835 13.859, 130.643 14.117 C 127.076 14.336, 125.634 13.870, 122.982 11.638 C 118.325 7.720, 111.312 4.370, 102.859 2.028 C 93.013 -0.700, 70.022 -0.941, 67.872 1.662 M 127.105 18.373 C 126.478 19.129, 126.246 20.479, 126.590 21.373 C 126.992 22.422, 126.690 23, 125.740 23 C 124.929 23, 123.075 24.800, 121.619 27 C 118.608 31.550, 119.490 32.076, 125.746 29.462 C 131.999 26.849, 135.741 22.094, 134.365 18.509 C 133.640 16.619, 128.639 16.525, 127.105 18.373" stroke="none" fill="black" fill-rule="evenodd"/>
</svg>