<svg xmlns="http://www.w3.org/2000/svg" width="192" height="144" viewBox="0 0 192 144" version="1.1">
	<path d="M 106.620 15.131 C 105.669 16.491, 104.532 17.034, 103.485 16.632 C 102.116 16.107, 101.948 16.487, 102.479 18.906 C 102.833 20.517, 102.665 22.089, 102.102 22.437 C 101.544 22.782, 101.314 23.655, 101.591 24.377 C 102.220 26.015, 96.515 30.434, 92.500 31.419 C 90.850 31.824, 88.757 32.826, 87.848 33.644 C 86.939 34.463, 85.364 34.990, 84.348 34.816 C 81.722 34.367, 81.406 38.260, 83.743 42.266 C 85.315 44.960, 85.599 47.300, 85.444 56.284 C 85.286 65.459, 85.514 67.249, 86.971 68.284 C 87.912 68.953, 89.233 70.537, 89.905 71.804 C 90.578 73.070, 92.477 74.928, 94.127 75.931 L 97.127 77.755 94.428 79.878 C 92.944 81.045, 90.531 82, 89.065 82 C 86.003 82, 84 83.632, 84 86.127 C 84 87.078, 82.875 88.740, 81.500 89.821 C 80.125 90.903, 79 92.270, 79 92.859 C 79 93.448, 77.603 95.521, 75.896 97.465 C 72.274 101.591, 69.599 101.909, 63.141 98.978 C 58.611 96.922, 52 96.306, 52 97.939 C 52 98.455, 49.863 99.155, 47.250 99.493 C 38.879 100.579, 38.035 100.970, 34.991 105.171 C 31.153 110.469, 31.140 112.097, 34.938 111.808 C 36.877 111.660, 38.046 110.931, 38.378 109.663 C 38.817 107.982, 39.543 107.810, 44.190 108.280 C 47.111 108.576, 50.400 109.024, 51.500 109.276 C 52.600 109.527, 57.830 110.316, 63.122 111.027 C 72.408 112.276, 72.867 112.245, 76.240 110.160 C 80.606 107.462, 80.997 107.470, 81.011 110.250 C 81.017 111.487, 81.691 114.705, 82.508 117.401 C 84.140 122.778, 83.166 125.538, 79.936 124.694 C 78.999 124.448, 77.457 125.153, 76.510 126.259 C 74.897 128.143, 74.036 128.227, 62.985 127.581 C 51.901 126.932, 48.367 126.211, 24.750 119.778 C 22.688 119.216, 21 118.169, 21 117.450 C 21 113.462, 14.079 111.935, 3.750 113.642 L -0 114.262 -0 129.131 L 0 144 60 144 C 93 144, 120 143.732, 120 143.404 C 120 143.077, 119.173 141.614, 118.163 140.154 C 115.440 136.221, 114.940 134.237, 116.518 133.631 C 119.840 132.357, 121.999 125.376, 122.035 115.790 C 122.057 110.095, 122.574 105.592, 123.372 104.153 C 124.349 102.392, 124.431 100.579, 123.700 96.883 C 122.891 92.790, 123.003 91.654, 124.363 90.151 C 125.264 89.156, 126 87.909, 126 87.379 C 126 86.850, 123.300 85.177, 120 83.662 C 116.700 82.147, 114.012 80.591, 114.028 80.204 C 114.043 79.817, 115.584 78.375, 117.452 77 C 125.505 71.074, 127.695 63.477, 124.342 53.097 C 122.732 48.111, 122.744 47.901, 124.756 45.732 C 128.219 41.999, 128.108 38, 124.540 38 C 122.165 38, 119.376 35.505, 112.521 27.250 C 108.823 22.797, 111.460 23.067, 116.121 27.618 L 119.826 31.236 121.476 28.046 C 123.519 24.095, 122.841 23.136, 115.458 19.523 C 111.660 17.665, 110 16.267, 110 14.926 C 110 12.387, 108.478 12.479, 106.620 15.131 M 189.250 139.498 C 186.438 143.839, 186.447 144, 189.500 144 C 191.750 144, 192 143.600, 192 140 C 192 137.800, 191.887 136.006, 191.750 136.012 C 191.613 136.019, 190.488 137.588, 189.250 139.498" stroke="none" fill="black" fill-rule="evenodd"/>
</svg>