<svg xmlns="http://www.w3.org/2000/svg" width="192" height="144" viewBox="0 0 192 144" version="1.1">
	<path d="M 0 16.485 L 0 32.971 3.250 30.989 C 8.960 27.507, 15.075 29.203, 10.500 33 C 9.675 33.685, 9 34.563, 9 34.951 C 9 35.757, 25.042 40.331, 35.500 42.508 C 44.029 44.283, 46.769 44.333, 53.996 42.840 C 58.538 41.902, 61.709 41.983, 70.580 43.263 C 87.090 45.647, 100.156 50.680, 118.140 61.585 C 123.575 64.881, 127.641 66.759, 128.178 66.222 C 128.675 65.725, 129.144 61.534, 129.220 56.909 C 129.304 51.824, 129.880 47.720, 130.679 46.527 C 131.406 45.443, 132 43.620, 132 42.477 C 132 41.335, 132.399 39.972, 132.888 39.450 C 133.376 38.927, 134.081 37.487, 134.455 36.250 C 135.002 34.438, 134.744 34, 133.126 34 C 129.287 34, 129.913 32.038, 133.959 31.391 C 137.578 30.812, 138.389 30.121, 141.539 24.937 C 143.869 21.100, 145.818 19.024, 147.283 18.815 C 151.937 18.153, 169.524 20.113, 171.695 21.536 C 173.727 22.867, 174.027 22.818, 175 21 C 176.397 18.390, 178 18.441, 178 21.096 C 178 22.248, 178.787 24.547, 179.750 26.205 C 181.461 29.152, 181.450 29.252, 179.250 30.731 C 175.840 33.024, 176.526 34.607, 181.537 36.010 C 187.547 37.693, 186.773 39.477, 180.183 39.127 L 175 38.852 175 42.361 C 175 47.189, 173.350 51.096, 171.057 51.695 C 167.628 52.592, 167.821 54.898, 171.451 56.415 C 173.314 57.194, 175.366 58.816, 176.011 60.021 C 178.535 64.737, 174.754 72, 169.775 72 C 168.477 72, 169.080 72.981, 171.997 75.616 C 175.031 78.357, 176.004 79.992, 176.018 82.366 C 176.034 85.011, 179.259 91.245, 182.846 95.563 C 186.636 100.125, 187.070 106.137, 183.777 108.443 C 182.555 109.299, 179.630 110, 177.277 110 C 174.925 110, 173 110.204, 173 110.452 C 173 110.701, 174.798 114.320, 176.996 118.493 C 179.194 122.666, 182.206 130.135, 183.689 135.089 C 186.343 143.955, 186.433 144.093, 189.339 143.799 L 192.292 143.500 192.570 71.750 L 192.848 0 96.424 0 L 0 0 0 16.485 M 0.407 17 C 0.407 26.075, 0.559 29.788, 0.744 25.250 C 0.929 20.712, 0.929 13.287, 0.744 8.750 C 0.559 4.212, 0.407 7.925, 0.407 17 M 1.116 52.679 C 1.180 59.180, 1.439 63.600, 1.693 62.500 C 1.946 61.400, 3.007 56.900, 4.052 52.500 C 5.220 47.575, 5.568 44.370, 4.957 44.161 C 4.411 43.974, 3.297 43.154, 2.482 42.339 C 1.173 41.030, 1.014 42.234, 1.116 52.679 M 50 52.008 C 46.425 53.099, 40.955 53.994, 37.844 53.996 L 32.188 54 30.558 58.750 C 28.143 65.791, 22.191 96.167, 20.890 108.098 C 19.689 119.107, 20.088 130.081, 22.005 138.750 L 23.166 144 65.333 143.977 L 107.500 143.954 111.435 134.786 C 113.599 129.744, 117.577 122.702, 120.275 119.137 C 124.966 112.939, 127.524 108.191, 126.646 107.313 C 125.887 106.554, 121.093 108.183, 119.919 109.598 C 117.193 112.883, 111 109.352, 111 104.514 C 111 103.146, 113.021 98.373, 115.492 93.906 C 118.568 88.346, 119.806 85.076, 119.419 83.535 C 119.109 82.297, 119.541 79.641, 120.380 77.634 C 122.124 73.459, 123.266 74.649, 110 66.820 C 87.013 53.254, 64.291 47.645, 50 52.008 M 161 93.878 C 161 96.501, 163.394 98.203, 166.547 97.822 L 169.216 97.500 166.656 94.750 C 163.699 91.574, 161 91.158, 161 93.878 M 152.004 109.330 C 152.002 110.887, 153.300 115.844, 154.890 120.348 C 156.479 124.851, 158.341 132.015, 159.027 136.267 L 160.274 144 169.637 144 C 174.787 144, 179 143.802, 179 143.560 C 179 142.271, 173.405 127.812, 171.257 123.549 C 166.693 114.490, 165.144 113, 160.297 113 C 156.489 113, 155.733 112.611, 153.989 109.750 L 152.007 106.500 152.004 109.330 M 1.026 135.250 L 1 144 4.117 144 C 6.639 144, 7.123 143.666, 6.654 142.250 C 6.335 141.287, 4.944 137.350, 3.563 133.500 L 1.052 126.500 1.026 135.250" stroke="none" fill="black" fill-rule="evenodd"/>
</svg>