<svg xmlns="http://www.w3.org/2000/svg" width="192" height="144" viewBox="0 0 192 144" version="1.1">
	<path d="M 100 22.539 C 100 28.770, 95.787 51.441, 94.314 53.139 C 93.443 54.142, 92.953 56.664, 93.050 59.639 C 93.137 62.313, 92.474 67.875, 91.577 72 C 88.697 85.234, 86.895 92.449, 85.957 94.500 C 83.462 99.952, 82.977 102.267, 84.057 103.568 C 84.869 104.547, 84.468 108.505, 82.524 118.697 C 78.940 137.493, 78.359 140.224, 77.515 142.250 C 76.899 143.728, 77.347 144, 80.393 144 C 83.991 144, 84.792 143.249, 83.114 141.450 C 81.797 140.037, 87.556 105, 89.106 105 C 90.356 105, 90.232 106.960, 88.429 115.689 C 86.520 124.931, 86.811 125.271, 96.148 124.693 C 100.956 124.395, 103.667 123.662, 105.942 122.041 L 109.088 119.801 108.394 122.651 C 108.013 124.218, 106.643 129.067, 105.350 133.426 C 104.058 137.786, 103 141.948, 103 142.676 C 103 143.720, 106.445 144, 119.315 144 L 135.630 144 135.315 129.256 C 135.111 119.727, 134.448 112.611, 133.438 109.138 C 131.954 104.034, 131.992 103.256, 134.188 93.632 C 136.130 85.121, 136.500 80.699, 136.500 66 C 136.500 49.648, 136.354 48.265, 134.275 44.922 C 130.422 38.727, 123.239 37.254, 115.399 41.049 C 111.209 43.077, 109.519 44.975, 107.264 50.185 C 106.264 52.497, 106.431 53.356, 108.466 56.354 C 109.766 58.270, 110.594 60.073, 110.306 60.361 C 110.018 60.649, 110.780 62.287, 112 64 C 113.220 65.713, 113.895 67.427, 113.500 67.808 C 113.105 68.188, 112.101 67.487, 111.269 66.250 C 110.437 65.013, 109.146 64, 108.401 64 C 107.656 64, 106.296 62.763, 105.380 61.250 C 104.463 59.737, 102.804 57.181, 101.692 55.568 C 99.800 52.824, 99.750 52.153, 100.911 45.068 C 101.594 40.906, 103.049 33.796, 104.146 29.268 C 105.243 24.740, 105.857 20.578, 105.511 20.018 C 105.165 19.458, 103.784 19, 102.441 19 C 100.313 19, 100 19.454, 100 22.539 M 96.628 67.112 C 95.784 71.328, 96.712 72.068, 99.119 69.099 C 101.266 66.450, 101.150 64.658, 98.802 64.203 C 97.775 64.003, 97.057 64.965, 96.628 67.112 M 94.649 75.758 C 93.983 76.836, 91 91.549, 91 93.758 C 91 95.186, 92.677 96.093, 98.479 97.800 C 108.129 100.639, 109 100.606, 109 97.404 C 109 93.195, 106.150 89.249, 103.479 89.759 C 101.642 90.110, 100.700 89.344, 98.632 85.815 C 97.220 83.406, 95.955 79.987, 95.820 78.218 C 95.562 74.837, 95.413 74.523, 94.649 75.758" stroke="none" fill="black" fill-rule="evenodd"/>
</svg>