<svg xmlns="http://www.w3.org/2000/svg" width="192" height="144" viewBox="0 0 192 144" version="1.1">
	<path d="M 0 72 L 0 144 39.880 144 L 79.760 144 80.379 137.750 C 82.012 121.275, 82.200 116.560, 81.541 108.655 L 80.831 100.132 76.666 100.571 C 63.975 101.910, 59.563 103.284, 55.652 107.114 C 52.287 110.410, 51.345 110.822, 48.152 110.392 C 46.143 110.121, 43.263 109.854, 41.750 109.798 C 37.985 109.658, 38.295 108.094, 43 103.500 C 47.448 99.157, 48.301 96.452, 44.882 97.538 C 43.350 98.024, 42.888 97.835, 43.215 96.855 C 43.475 96.073, 46.571 94.973, 50.529 94.254 C 54.304 93.568, 57.844 92.556, 58.396 92.004 C 58.948 91.452, 62.599 91, 66.509 91 C 75.838 91, 76.953 90.106, 77.557 82.140 C 77.821 78.659, 78.928 73.853, 80.018 71.460 C 81.108 69.067, 82 65.908, 82 64.440 C 82 62.666, 83.174 60.694, 85.500 58.564 C 89.358 55.030, 89.962 53.560, 87.193 54.439 C 84.892 55.169, 79.500 49.729, 79.500 46.677 C 79.500 45.219, 78.798 44.400, 77.374 44.197 C 76.205 44.030, 74.250 42.830, 73.029 41.531 C 70.862 39.224, 70.847 39.040, 72.381 33.760 C 73.246 30.786, 74.888 27.506, 76.031 26.472 C 77.456 25.183, 78.013 23.636, 77.804 21.546 C 77.519 18.692, 77.717 18.497, 80.934 18.447 C 82.823 18.417, 84.472 17.967, 84.597 17.447 C 84.722 16.926, 85.094 15.278, 85.423 13.785 C 85.834 11.919, 86.483 11.248, 87.502 11.639 C 88.342 11.962, 89.249 11.513, 89.599 10.604 C 89.937 9.722, 90.787 9, 91.488 9 C 92.976 9, 97.408 14.551, 99.195 18.654 C 99.877 20.219, 101.909 23.264, 103.710 25.421 C 108.034 30.599, 110.546 37.595, 112.398 49.623 C 113.256 55.197, 115.477 63.574, 117.494 68.851 C 119.799 74.879, 121.100 80.031, 121.157 83.351 C 121.319 92.817, 120.307 101.462, 118.565 105.500 C 115.357 112.935, 111.561 133.753, 112.507 138.719 C 112.694 139.698, 112.881 141.293, 112.923 142.261 C 112.995 143.917, 115.386 144.007, 152.750 143.761 L 192.500 143.500 192.757 71.750 L 193.013 0 96.507 0 L 0 0 0 72 M 0.474 72.500 C 0.474 112.100, 0.598 128.154, 0.750 108.176 C 0.901 88.198, 0.901 55.798, 0.750 36.176 C 0.598 16.554, 0.474 32.900, 0.474 72.500" stroke="none" fill="black" fill-rule="evenodd"/>
</svg>