<svg xmlns="http://www.w3.org/2000/svg" width="192" height="144" viewBox="0 0 192 144" version="1.1">
	<path d="M 0 72 L 0 144 52.500 144 C 99.674 144, 105 143.840, 105 142.421 C 105 141.186, 104.345 140.985, 102.005 141.499 C 98.274 142.318, 97.572 140.776, 96.586 129.602 C 96.169 124.870, 95.111 120.261, 93.946 118.102 C 92.877 116.121, 91.535 112.587, 90.963 110.250 C 90.391 107.912, 89.545 106, 89.083 106 C 88.262 106, 86.782 109.205, 85.491 113.777 C 85.138 115.029, 83.824 116.724, 82.573 117.544 C 80.578 118.851, 80.356 119.652, 80.777 124.036 C 81.224 128.687, 78.610 138.943, 77.309 137.642 C 77.046 137.379, 75.546 137.611, 73.976 138.158 C 72.048 138.830, 71.308 139.638, 71.695 140.647 C 72.190 141.938, 70.930 142.044, 62.384 141.425 C 43.793 140.080, 34.542 138.625, 34.261 137 C 34.028 135.654, 36.950 131.601, 41.645 126.757 C 43.711 124.626, 44.592 115.804, 43.231 110.873 C 42.625 108.679, 42.571 103.907, 43.090 98.409 C 43.552 93.509, 44.655 80.725, 45.542 70 C 47.847 42.107, 48.459 39.082, 53.098 32.603 C 58.421 25.170, 58.082 21.671, 51.925 20.486 C 46.251 19.393, 47.517 16.812, 54.951 14.318 C 61.357 12.168, 62.374 10.447, 57.803 9.493 C 48.037 7.456, 42.311 1.584, 49.250 0.723 C 51.038 0.502, 40.688 0.248, 26.250 0.160 L 0 0 0 72 M 61.192 1.075 C 61.389 1.666, 61.876 2.116, 62.275 2.075 C 62.674 2.034, 63.675 2, 64.500 2 C 65.325 2, 66 1.550, 66 1 C 66 0.450, 64.838 0, 63.417 0 C 61.996 0, 60.995 0.484, 61.192 1.075 M 72 1.500 C 72 3.341, 72.779 3.341, 76 1.500 L 78.500 0.071 75.250 0.035 C 73.012 0.011, 72 0.467, 72 1.500 M 82.425 2.475 C 81.533 3.836, 78.485 6.407, 75.651 8.189 L 70.500 11.429 76 12.259 C 87.008 13.922, 89.484 15.742, 84.009 18.145 C 80.129 19.848, 78.892 23.723, 81.603 25.683 C 86.730 29.389, 92.063 35.567, 92.978 38.860 C 94.335 43.747, 94.265 45.608, 92.483 52.032 C 91.296 56.310, 88.111 73.408, 88.018 76 C 88.008 76.275, 89.978 76.500, 92.395 76.500 C 95.298 76.500, 97.497 77.140, 98.874 78.386 C 100.522 79.877, 101.049 79.982, 101.393 78.886 C 101.632 78.124, 102.992 74.340, 104.414 70.479 C 105.836 66.617, 107 62.706, 107 61.788 C 107 60.869, 107.430 59.852, 107.956 59.527 C 108.482 59.202, 108.646 58.242, 108.321 57.393 C 107.448 55.119, 110.963 44.008, 113.762 40.193 C 115.576 37.722, 116.015 36.206, 115.501 34.193 C 114.494 30.243, 114.869 14.863, 116.006 13.493 C 116.543 12.845, 116.649 11.958, 116.241 11.521 C 115.834 11.084, 116.175 10.937, 117 11.194 C 118.125 11.546, 118.562 13.517, 118.748 19.081 C 118.884 23.162, 119.251 28.011, 119.563 29.857 L 120.131 33.214 125.481 32.546 C 133.028 31.603, 138.593 33.358, 143.447 38.212 L 147.467 42.232 151.233 37.987 C 155.668 32.990, 155.848 31.339, 152.500 26.405 C 151.125 24.379, 150 22.334, 150 21.860 C 150 21.387, 151.970 21, 154.378 21 C 157.783 21, 159.108 20.500, 160.339 18.750 L 161.921 16.500 163.711 18.557 C 164.695 19.689, 166.738 21.142, 168.250 21.786 C 171.567 23.199, 171.752 25.222, 168.813 27.960 L 166.626 29.997 164.313 27.824 C 162.052 25.700, 162 25.696, 162 27.659 C 162 28.763, 161.662 30.004, 161.250 30.417 C 160.838 30.829, 160.480 31.467, 160.455 31.833 C 160.321 33.807, 155.319 41.833, 152.696 44.284 C 149.995 46.807, 149.685 47.686, 149.870 52.309 C 150.088 57.785, 144.011 93.208, 141.485 101.188 C 140.668 103.766, 140 108.393, 140 111.470 C 140 114.547, 139.288 118.737, 138.417 120.782 C 134.860 129.137, 136.809 137.757, 142.803 140.182 C 144.286 140.783, 146.829 141.854, 148.453 142.563 C 150.514 143.463, 157.538 143.885, 171.703 143.960 L 192 144.068 192 72.034 L 192 0 138.023 0 L 84.046 0 82.425 2.475" stroke="none" fill="black" fill-rule="evenodd"/>
</svg>