<svg xmlns="http://www.w3.org/2000/svg" width="192" height="144" viewBox="0 0 192 144" version="1.1">
	<path d="M 102 27.777 C 102 29.305, 101.286 31.574, 100.413 32.820 C 99.147 34.628, 99.074 35.384, 100.049 36.559 C 100.873 37.551, 101.064 39.797, 100.636 43.440 C 100.071 48.245, 100.277 49.176, 102.483 51.797 C 105.439 55.311, 105.336 57.642, 101.570 72.500 C 99.517 80.596, 99.235 83.115, 100.088 85.730 C 100.668 87.507, 100.866 89.407, 100.529 89.953 C 100.192 90.498, 99.263 94.660, 98.465 99.201 L 97.013 107.457 99.549 109.808 C 101.207 111.345, 101.883 112.794, 101.502 113.995 C 100.810 116.173, 104.296 119, 107.674 119 C 108.900 119, 112.494 119.675, 115.661 120.500 C 123.206 122.465, 127.678 122.522, 126.110 120.633 C 125.247 119.593, 125.335 118.967, 126.477 118.019 C 128.648 116.217, 127.623 115.320, 122.512 114.554 C 120.031 114.182, 118 113.584, 118 113.226 C 118 112.868, 119.224 111.599, 120.721 110.406 C 123.068 108.534, 123.257 108.014, 122.098 106.618 C 121.278 105.630, 119.226 105, 116.828 105 L 112.900 105 113.355 101.250 C 114.819 89.167, 115.161 88.139, 118.051 87.132 C 122.391 85.619, 123.278 82.987, 120.815 78.936 C 117.361 73.257, 115.141 63.538, 115.753 56.784 L 116.298 50.782 121.075 51.416 C 126.001 52.069, 128.030 51.001, 126.222 48.706 C 125.236 47.454, 124.954 44, 125.838 44 C 126.115 44, 127.137 44.719, 128.108 45.598 C 130.406 47.677, 132 46.613, 132 43 C 132 39.749, 130.383 38.217, 128.713 39.887 C 127.329 41.271, 123 41.357, 123 40 C 123 38.741, 119.284 38.675, 118.833 39.926 C 118.650 40.435, 117.194 41.176, 115.599 41.572 L 112.698 42.293 113.351 38.207 C 113.746 35.737, 113.592 33.866, 112.961 33.476 C 112.388 33.122, 112.192 31.970, 112.527 30.916 C 112.973 29.508, 112.652 28.999, 111.317 28.996 C 110.318 28.994, 108.027 28.094, 106.226 26.996 C 102.055 24.453, 102 24.464, 102 27.777 M 48.786 31.024 C 47.723 32.893, 45.988 34.252, 44.214 34.607 C 41.523 35.145, 41.371 35.444, 41.613 39.724 C 41.754 42.224, 42.349 44.749, 42.935 45.335 C 43.521 45.921, 44 47.210, 44 48.200 C 44 49.190, 44.450 50, 45 50 C 45.550 50, 46 50.450, 46 51 C 46 51.550, 45.342 52, 44.539 52 C 43.657 52, 42.646 53.685, 41.989 56.250 C 41.391 58.587, 40.713 61.062, 40.483 61.748 C 39.971 63.275, 30.757 67.448, 25.876 68.363 C 23.057 68.892, 21.728 68.574, 19.527 66.843 C 16.857 64.742, 16.433 64.704, 9.122 65.914 C 4.930 66.608, 1.103 67.556, 0.617 68.021 C -1.009 69.577, 0.919 72.036, 5.229 73.904 C 7.578 74.923, 11.975 76.897, 15 78.291 C 32.898 86.541, 36.534 88, 39.192 88 C 41.522 88, 42.029 88.364, 41.624 89.750 C 41.344 90.713, 40.847 93.525, 40.520 96 C 39.945 100.357, 40.086 100.664, 44.963 105.650 L 50.001 110.799 46.426 114.374 C 44.459 116.341, 43.118 118.382, 43.444 118.910 C 44.413 120.477, 39.296 124.831, 34.959 126.130 C 31.041 127.304, 30.771 127.224, 24.814 123.113 L 18.694 118.890 10.847 121.678 C 6.531 123.211, 3.021 124.923, 3.047 125.483 C 3.073 126.042, 7.188 129.875, 12.192 134 C 17.197 138.125, 21.881 142.075, 22.601 142.777 C 23.572 143.723, 27.741 143.982, 38.706 143.777 L 53.500 143.500 48.750 140.057 C 43.251 136.072, 42.716 134.771, 47.092 136.026 C 48.793 136.514, 51.432 136.664, 52.958 136.358 C 55.815 135.787, 61 131.662, 61 129.960 C 61 129.432, 61.605 129, 62.345 129 C 63.893 129, 67 125.853, 67 124.285 C 67 123.704, 65.313 122.441, 63.250 121.480 C 61.188 120.518, 59.396 119.650, 59.269 119.551 C 59.141 119.452, 58.366 115.860, 57.545 111.569 C 56.724 107.278, 55.535 103.145, 54.904 102.385 C 52.658 99.679, 55.520 95.640, 61.083 93.664 C 63.847 92.682, 66.354 91.241, 66.653 90.461 C 66.953 89.681, 65.803 86.776, 64.099 84.006 C 62.394 81.236, 61 78.590, 61 78.125 C 61 77.660, 59.986 75.754, 58.747 73.890 C 56.202 70.062, 55.298 62.181, 57.032 58.941 C 57.893 57.332, 57.798 56.340, 56.608 54.525 C 55.277 52.492, 55.264 52.026, 56.513 50.989 C 58.376 49.443, 57.812 39.998, 55.674 36.946 C 54.836 35.749, 54.397 34.130, 54.697 33.348 C 55.199 32.039, 52.470 27.992, 51.095 28.006 C 50.768 28.010, 49.729 29.368, 48.786 31.024 M 165.250 29.910 C 165.632 31.301, 157.669 38.076, 156.275 37.547 C 155.070 37.090, 155.092 38.398, 156.478 49.750 C 156.758 52.044, 156.467 53, 155.489 53 C 154.727 53, 152.889 54.125, 151.405 55.500 C 148.304 58.374, 146.756 58.616, 145 56.500 C 143.128 54.244, 141.068 54.690, 139.966 57.590 C 139.111 59.838, 139.392 60.564, 142.096 63.090 C 145.753 66.506, 148.240 66.760, 151 64 C 154.535 60.465, 156.940 62.189, 156.986 68.293 C 157.001 70.186, 151.039 78.737, 145.194 85.207 L 141.710 89.063 144.050 91.553 C 145.337 92.923, 147.765 94.398, 149.445 94.831 C 152.993 95.745, 153.883 98.645, 151.705 102.191 C 150.925 103.461, 149.500 107.102, 148.540 110.282 C 147.580 113.461, 146.132 116.725, 145.324 117.533 C 142.455 120.402, 144.340 122.884, 151.500 125.668 C 153.002 126.252, 152.365 126.526, 148.938 126.770 C 145.056 127.046, 144.102 127.558, 142.540 130.202 C 140.758 133.218, 140.758 133.350, 142.543 134.655 C 145.085 136.514, 147.362 136.387, 146.611 134.428 C 146.279 133.563, 146.498 131.937, 147.099 130.815 C 148.880 127.486, 155.343 129.082, 160.152 134.037 C 162.268 136.218, 164 138.443, 164 138.982 C 164 139.521, 165.107 140.240, 166.459 140.579 C 167.811 140.919, 169.442 141.827, 170.081 142.598 C 170.721 143.369, 172.588 144, 174.229 144 C 176.549 144, 177.078 143.645, 176.603 142.407 C 176.267 141.531, 175.720 139.731, 175.387 138.407 C 175.055 137.083, 174.366 136, 173.856 136 C 173.347 136, 173.434 135.058, 174.050 133.906 C 174.966 132.195, 174.802 131.416, 173.152 129.656 C 170.861 127.210, 169.161 123.325, 167.831 117.500 C 166.723 112.648, 166.753 113.875, 167.425 100.500 C 167.729 94.450, 168.204 84.852, 168.479 79.172 C 168.754 73.491, 169.235 68.429, 169.548 67.922 C 169.862 67.415, 171.164 67, 172.442 67 C 175.609 67, 176.565 62.464, 173.882 60.167 C 172.847 59.281, 172 57.903, 172 57.106 C 172 56.310, 171.314 54.900, 170.476 53.974 C 168.849 52.175, 169.043 52.065, 181.197 47.903 C 183.230 47.206, 184.647 46.238, 184.346 45.750 C 184.044 45.263, 183.281 45.072, 182.649 45.326 C 182.017 45.580, 179.080 46.752, 176.123 47.930 L 170.746 50.071 171.187 44.763 C 171.580 40.021, 171.330 39.141, 168.849 36.511 C 166.858 34.402, 166.233 32.920, 166.644 31.284 C 166.982 29.934, 166.763 29, 166.108 29 C 165.499 29, 165.113 29.410, 165.250 29.910 M 112.813 43.683 C 113.534 43.972, 114.397 43.936, 114.729 43.604 C 115.061 43.272, 114.471 43.036, 113.417 43.079 C 112.252 43.127, 112.015 43.364, 112.813 43.683 M 116.500 44 C 116.840 44.550, 117.568 45, 118.118 45 C 118.668 45, 118.840 44.550, 118.500 44 C 118.160 43.450, 117.432 43, 116.882 43 C 116.332 43, 116.160 43.450, 116.500 44 M 37 69.500 C 33.565 71.340, 33.024 71.920, 34.716 71.955 C 37.288 72.007, 44 69.014, 44 67.815 C 44 66.431, 41.694 66.987, 37 69.500 M 42.573 74.951 C 40.879 75.566, 40.845 75.727, 42.291 76.281 C 43.196 76.629, 44.220 76.452, 44.568 75.890 C 45.461 74.446, 44.809 74.139, 42.573 74.951 M 103.460 94.488 C 102.583 97.507, 102.008 101.219, 102.182 102.738 C 102.445 105.025, 103.044 105.553, 105.665 105.807 C 109.332 106.163, 109.519 105.775, 110.499 95.750 L 111.159 89 108.108 89 C 105.270 89, 104.944 89.385, 103.460 94.488 M 46.177 97.553 C 46.629 99.725, 48.404 99.858, 48.810 97.750 C 49.020 96.655, 48.530 96, 47.500 96 C 46.539 96, 45.988 96.647, 46.177 97.553 M 158.525 99.756 C 158.163 101.198, 157.048 103.530, 156.048 104.939 C 154.582 107.003, 151 114.486, 151 115.485 C 151 115.915, 161.142 115.191, 161.606 114.728 C 162.539 113.794, 163.079 106.341, 162.503 102.339 C 161.793 97.403, 159.491 95.908, 158.525 99.756 M 115.500 117 C 115.132 117.595, 116.323 118, 118.441 118 C 120.398 118, 122 117.550, 122 117 C 122 116.450, 120.677 116, 119.059 116 C 117.441 116, 115.840 116.450, 115.500 117 M 129.183 123.611 C 130.077 124.505, 131.301 124.932, 131.904 124.559 C 133.778 123.401, 133.116 122.446, 130.279 122.211 C 127.766 122.003, 127.682 122.111, 129.183 123.611 M 37.250 127.491 C 35.462 128.268, 34 129.157, 34 129.466 C 34 130.313, 40.312 133.992, 41.771 133.996 C 43.893 134.003, 45.521 129.332, 44.025 127.530 C 42.482 125.671, 41.450 125.666, 37.250 127.491" stroke="none" fill="black" fill-rule="evenodd"/>
</svg>