<svg xmlns="http://www.w3.org/2000/svg" width="192" height="144" viewBox="0 0 192 144" version="1.1">
	<path d="M 87.445 15.068 C 85.765 15.557, 83.447 16.979, 82.296 18.228 C 79.849 20.882, 77 28.810, 77 32.964 C 77 35.252, 76.110 36.459, 72.750 38.726 C 70.412 40.304, 67.637 41.925, 66.583 42.330 C 65.122 42.891, 64.943 43.343, 65.833 44.233 C 66.475 44.875, 67 46.210, 67 47.200 C 67 48.190, 67.462 49, 68.026 49 C 68.590 49, 71.290 50.671, 74.026 52.713 C 79.320 56.666, 80.160 59.061, 77.345 62.171 C 75.805 63.873, 75.805 64, 77.345 64 C 78.444 64, 79 64.840, 79 66.500 C 79 69.102, 80.371 69.827, 81.583 67.865 C 82.036 67.132, 82.753 67.575, 83.607 69.115 C 84.334 70.427, 84.945 71.093, 84.965 70.595 C 84.984 70.097, 85.900 70.505, 87 71.500 C 88.933 73.250, 89.001 73.247, 89.022 71.405 C 89.042 69.725, 89.269 69.793, 90.944 71.972 C 91.989 73.332, 92.627 74.794, 92.363 75.222 C 92.098 75.650, 89.644 76, 86.909 76 C 80.108 76, 76.187 77.890, 71.647 83.359 C 68.531 87.111, 67.180 88, 64.593 88 C 61.111 88, 57.079 84.453, 53.223 78 C 52.073 76.075, 49.527 72.949, 47.566 71.054 C 45.507 69.064, 44 66.634, 44 65.304 C 44 61.888, 42.675 62.466, 38.387 67.750 C 33.015 74.371, 27.475 79.516, 20.750 84.130 C 17.587 86.299, 15 88.508, 15 89.037 C 15 89.567, 16.391 90, 18.090 90 C 20.272 90, 21.954 90.882, 23.813 93 C 27.021 96.656, 29.229 96.809, 31 93.500 C 32.655 90.407, 33.570 90.341, 34.439 93.250 L 35.110 95.500 36.208 93.250 C 36.812 92.013, 37.860 91, 38.538 91 C 39.968 91, 42.590 94.698, 43.178 97.542 C 43.473 98.972, 44.244 99.408, 46.041 99.157 C 51.050 98.459, 51.450 98.535, 51.475 100.189 C 51.501 101.914, 54.075 104.630, 57.555 106.603 C 59.160 107.514, 59.587 109.143, 60 115.937 C 60.403 122.566, 60.878 124.442, 62.441 125.583 C 64.813 127.314, 69.173 127.427, 70.800 125.800 C 73.898 122.702, 70.805 136.256, 67.392 140.730 L 64.898 144 89.022 144 L 113.145 144 111.073 141.365 C 108.150 137.649, 108.417 135.099, 111.856 133.900 C 114.419 133.007, 114.885 132.121, 116.386 125.290 C 117.599 119.770, 118.767 117.018, 120.633 115.289 C 122.232 113.807, 123.024 112.201, 122.724 111.051 C 122.405 109.833, 123.175 108.508, 124.971 107.179 L 127.703 105.160 133.102 107.889 C 136.071 109.391, 141.359 112.728, 144.853 115.305 C 151.052 119.876, 151.897 120.053, 155 117.426 C 158.453 114.503, 161.438 114.757, 166.910 118.439 C 172.368 122.112, 174 122.708, 174 121.026 C 174 119.175, 179.917 117, 184.950 117 C 189.670 117, 190 117.163, 190 119.500 C 190 120.875, 190.450 122, 191 122 C 191.635 122, 192 114.278, 192 100.833 C 192 89.192, 191.708 79.959, 191.351 80.316 C 190.994 80.673, 190.207 81.930, 189.601 83.109 C 188.909 84.456, 186.455 85.894, 183 86.976 C 179.975 87.923, 173.177 90.791, 167.892 93.349 C 159.664 97.332, 157.405 98, 152.157 98 C 148.786 98, 144.017 97.462, 141.559 96.805 C 137.660 95.762, 136.846 95.829, 135.185 97.333 C 133.719 98.659, 132.703 98.838, 130.779 98.106 C 128.738 97.330, 128.160 96.261, 127.633 92.291 C 126.785 85.901, 125.050 83.630, 119.819 82.067 C 114.170 80.380, 108 77.212, 108 75.999 C 108 74.884, 112.715 73.475, 115.192 73.850 C 116.123 73.991, 117.652 72.934, 118.591 71.502 C 119.650 69.885, 120.652 69.252, 121.233 69.833 C 121.748 70.348, 123.020 70.546, 124.060 70.274 C 125.539 69.887, 125.741 69.385, 124.984 67.970 C 124.302 66.696, 124.383 66.038, 125.258 65.743 C 126.227 65.417, 126.206 64.968, 125.162 63.704 C 123.664 61.890, 124.294 57.353, 126.693 52.659 C 127.979 50.144, 127.965 49.619, 126.573 48.080 C 124.357 45.632, 124.475 42.573, 126.750 43.496 C 130.161 44.879, 139.323 48, 139.972 48 C 141.271 48, 145.003 40.171, 144.424 38.662 C 143.978 37.499, 144.772 36.952, 147.666 36.430 C 149.775 36.049, 151.812 35.561, 152.194 35.344 C 152.575 35.128, 151.466 32.664, 149.728 29.869 C 147.879 26.895, 146.347 22.860, 146.034 20.143 C 145.531 15.766, 145.314 15.482, 142.252 15.187 C 140.067 14.976, 136.550 16.071, 131.496 18.534 L 123.986 22.195 120.521 19.152 C 118.614 17.478, 115.355 15.637, 113.277 15.060 C 108.770 13.808, 91.761 13.814, 87.445 15.068" stroke="none" fill="black" fill-rule="evenodd"/>
</svg>