<svg xmlns="http://www.w3.org/2000/svg" width="192" height="144" viewBox="0 0 192 144" version="1.1">
	<path d="M 63.364 5.750 C 64.139 12.908, 62.071 23.127, 58.171 31.412 C 50.413 47.892, 32.067 59.374, 13.500 59.368 C 9.100 59.366, 4.263 59.049, 2.750 58.663 L 0 57.962 0 100.981 L 0 144 52.906 144 L 105.812 144 106.519 138.861 C 106.908 136.035, 108.772 129.172, 110.662 123.611 C 112.553 118.050, 115.226 108.100, 116.603 101.500 C 119.625 87.019, 119.289 80.481, 115.344 77.051 C 113.510 75.457, 112.930 74.145, 113.271 72.361 C 113.651 70.372, 113.425 70.019, 112.122 70.571 C 108.686 72.025, 106 72.217, 106 71.010 C 106 70.333, 105.330 70.043, 104.500 70.362 C 103.675 70.678, 103 70.442, 103 69.837 C 103 69.125, 101.542 68.932, 98.866 69.291 C 96.592 69.596, 92.107 69.423, 88.899 68.906 C 77.752 67.111, 75.053 67.082, 74.120 68.749 C 72.975 70.797, 70 69.645, 70 67.154 C 70 63.346, 72.097 62.879, 85.909 63.608 C 97.721 64.232, 99.208 64.122, 101.006 62.495 C 102.103 61.502, 103.007 61.097, 103.015 61.595 C 103.024 62.093, 103.458 61.825, 103.980 61 C 104.616 59.994, 106.670 59.475, 110.214 59.424 C 113.121 59.382, 116.810 58.803, 118.411 58.137 L 121.322 56.927 118.161 53.666 C 116.422 51.872, 115 49.894, 115 49.270 C 115 48.646, 114.101 47.849, 113.002 47.501 C 110.825 46.810, 109.418 42.959, 110.404 40.389 C 110.745 39.501, 110.087 37.258, 108.942 35.405 C 106.408 31.307, 107.075 29.898, 111.301 30.422 C 113.061 30.640, 117.200 31.142, 120.500 31.537 C 128.962 32.549, 131.813 34.281, 134.142 39.821 C 135.224 42.394, 137.077 46.525, 138.260 49 C 139.741 52.098, 140.370 55.213, 140.279 59 C 140.206 62.025, 140.648 66.075, 141.261 68 C 141.874 69.925, 142.427 74.650, 142.490 78.500 C 142.554 82.350, 142.968 91.575, 143.411 99 C 144.204 112.284, 144.301 112.700, 149.499 125 C 152.404 131.875, 155.093 138.973, 155.475 140.772 L 156.169 144.044 174.334 143.772 L 192.500 143.500 192.825 129 C 193.003 121.025, 192.837 88.737, 192.455 57.250 L 191.761 0 127.251 -0 L 62.742 -0 63.364 5.750 M 0.459 101 C 0.459 124.925, 0.589 134.713, 0.749 122.750 C 0.908 110.788, 0.908 91.213, 0.749 79.250 C 0.589 67.288, 0.459 77.075, 0.459 101" stroke="none" fill="black" fill-rule="evenodd"/>
</svg>