<svg xmlns="http://www.w3.org/2000/svg" width="192" height="144" viewBox="0 0 192 144" version="1.1">
	<path d="M 0 72 L 0 144 8.433 144 C 17.892 144, 17.351 144.472, 18.528 135.200 C 19.262 129.422, 17.737 124, 15.379 124 C 13.095 124, 13.817 121.549, 17 118.500 C 18.650 116.919, 20 114.767, 20 113.717 C 20 112.667, 20.772 110.502, 21.716 108.904 C 23.337 106.160, 23.336 105.840, 21.713 103.091 C 20.017 100.220, 20.032 100.151, 22.819 97.806 C 24.372 96.499, 25.447 94.841, 25.208 94.123 C 24.968 93.404, 25.836 90.100, 27.136 86.781 C 28.898 82.283, 30.594 79.906, 33.796 77.447 L 38.093 74.149 38.296 65.687 C 38.481 58.009, 38.731 57.033, 41 55.146 C 42.375 54.002, 43.921 53.052, 44.436 53.033 C 44.950 53.015, 47.506 51.200, 50.115 49 C 53.378 46.249, 55.809 45, 57.902 45 C 62.292 45, 72.317 40.087, 71.048 38.558 C 69.730 36.970, 71.522 30.537, 73.922 28.243 C 74.925 27.285, 76.535 24.925, 77.500 23 C 78.465 21.075, 79.373 19.362, 79.517 19.193 C 79.662 19.025, 83.465 18.515, 87.969 18.061 C 97.750 17.075, 102.275 18.173, 105.166 22.234 C 106.523 24.138, 107.918 24.993, 109.351 24.796 C 111.199 24.541, 111.544 25.060, 111.817 28.500 C 111.991 30.700, 112.554 32.927, 113.067 33.450 C 113.580 33.972, 114 36.055, 114 38.078 C 114 40.165, 114.664 42.306, 115.536 43.030 C 116.821 44.097, 117.590 43.831, 120.241 41.402 L 123.410 38.500 120.205 42.285 C 116.807 46.298, 115.751 52, 118.406 52 C 119.346 52, 119.629 52.702, 119.260 54.113 C 118.754 56.050, 118.908 56.126, 121.104 55.020 C 122.422 54.357, 120.912 56.311, 117.750 59.363 C 114.588 62.415, 112 65.695, 112 66.652 C 112 67.806, 114.007 66.307, 117.969 62.195 C 121.252 58.788, 124.538 56, 125.273 56 C 127.154 56, 132.222 50.439, 135.982 44.250 C 137.736 41.362, 139.344 39, 139.554 39 C 140.147 39, 138.817 42.280, 137.334 44.473 C 135.560 47.095, 135.636 48.547, 137.466 47.028 C 138.529 46.146, 139.699 46.090, 141.716 46.827 L 144.500 47.842 141.394 47.921 C 137.693 48.015, 128.600 54.514, 129.368 56.516 C 129.646 57.241, 129.199 58.094, 128.373 58.410 C 127.548 58.727, 127.124 59.392, 127.431 59.888 C 127.738 60.384, 127.339 61.040, 126.545 61.344 C 125.582 61.714, 125.287 61.416, 125.658 60.449 C 125.964 59.652, 125.730 59, 125.139 59 C 123.227 59, 116 69.549, 116 72.341 C 116 75.469, 116.283 75.537, 120.059 73.306 C 121.671 72.354, 123.189 70.414, 123.527 68.875 C 123.858 67.370, 124.775 65.602, 125.564 64.947 C 127.266 63.535, 127.339 63.978, 125.992 67.521 C 125.438 68.979, 125.325 69.991, 125.742 69.771 C 126.159 69.550, 127.942 68.800, 129.704 68.103 C 137.140 65.163, 141.513 62.416, 141.806 60.500 C 142.479 56.104, 144.242 53.187, 146.484 52.758 C 150.587 51.974, 153.892 55.060, 150.389 56.404 C 149.209 56.857, 148.941 56.596, 149.389 55.428 C 149.780 54.411, 149.548 53.985, 148.751 54.253 C 147.560 54.652, 147.383 55.193, 147.115 59.250 C 147.052 60.212, 146.438 61.002, 145.750 61.005 C 145.063 61.007, 142.787 62.582, 140.694 64.505 C 138.601 66.427, 136.202 68, 135.363 68 C 133.267 68, 121.985 74.711, 119.752 77.286 C 118.752 78.439, 118.173 80.009, 118.467 80.773 C 118.760 81.538, 119 82.407, 119 82.704 C 119 83.002, 119.685 82.676, 120.523 81.981 C 121.800 80.921, 121.942 80.989, 121.400 82.400 C 120.867 83.789, 121.782 83.615, 126.627 81.408 C 129.857 79.936, 134.762 78.394, 137.527 77.982 C 142.921 77.178, 152 71.850, 152 69.488 C 152 67.480, 153.559 66.849, 153.641 68.823 C 153.680 69.746, 154.049 71.288, 154.462 72.250 C 155.067 73.657, 154.712 74, 152.654 74 C 149.834 74, 145 75.913, 145 77.029 C 145 77.720, 149.458 77.451, 153.488 76.517 C 154.595 76.261, 153.876 76.808, 151.891 77.733 C 149.906 78.659, 147.784 80.560, 147.177 81.958 C 146.570 83.356, 145.510 85.266, 144.822 86.202 C 142.860 88.871, 144.612 89.450, 147.582 87.114 C 149.060 85.951, 151.040 85, 151.982 85 C 152.924 85, 154.183 83.987, 154.780 82.750 C 155.643 80.959, 155.878 80.857, 155.932 82.250 C 156.092 86.386, 160 82.336, 160 78.034 C 160 76.881, 159.325 75.678, 158.500 75.362 C 157.675 75.045, 157.014 74.047, 157.032 73.143 C 157.060 71.675, 157.206 71.688, 158.400 73.261 C 159.596 74.837, 159.871 74.860, 161.015 73.481 C 162.004 72.290, 162.034 71.370, 161.147 69.423 C 159.521 65.855, 159.725 64.266, 161.515 66.559 C 162.962 68.413, 163.004 68.382, 162.441 65.886 C 162.033 64.079, 162.314 63.094, 163.347 62.697 C 164.606 62.214, 164.750 63.023, 164.259 67.812 C 163.724 73.032, 163.812 73.387, 165.338 72.128 C 166.303 71.330, 167 71.197, 167 71.810 C 167 72.390, 166.149 73.135, 165.108 73.466 C 163.486 73.980, 162.061 76.645, 162.014 79.250 C 161.978 81.233, 164.982 79.663, 166.113 77.107 C 166.817 75.516, 167.869 74.396, 168.450 74.619 C 169.031 74.842, 171.483 72.985, 173.899 70.491 C 176.315 67.998, 178.531 66.198, 178.823 66.490 C 179.115 66.782, 178.488 67.654, 177.429 68.429 C 174.505 70.567, 176.387 71.368, 179.975 69.513 C 183.715 67.579, 186.126 67.937, 183.631 70.055 C 182.696 70.850, 181.303 72.063, 180.537 72.750 C 179.770 73.437, 178.661 74, 178.071 74 C 177.482 74, 176.999 74.338, 176.997 74.750 C 176.996 75.162, 175.623 76.400, 173.948 77.500 C 171.675 78.993, 171.009 80.085, 171.323 81.808 C 171.620 83.435, 171.349 83.964, 170.404 83.602 C 169.667 83.319, 168.829 83.468, 168.541 83.933 C 168.254 84.398, 166.777 85.086, 165.259 85.462 C 158.312 87.184, 147.734 93.201, 141.565 98.940 C 137.982 102.273, 134.414 105, 133.636 105 C 132.858 105, 131.159 105.868, 129.861 106.928 L 127.500 108.857 130 109.865 L 132.500 110.873 129.750 110.937 C 127.729 110.983, 127 111.508, 127 112.917 C 127 113.971, 127.563 115.060, 128.250 115.338 C 128.985 115.634, 128.766 115.875, 127.719 115.921 C 126.739 115.964, 125.678 115.325, 125.362 114.500 C 124.470 112.175, 123.295 112.715, 122.160 115.972 C 121.443 118.029, 121.448 121.029, 122.178 125.718 C 122.758 129.444, 122.998 135.082, 122.711 138.246 L 122.190 144 154.708 144 L 187.227 144 186.540 139.250 C 186.117 136.326, 185.095 133.908, 183.880 132.961 C 181.408 131.032, 181.279 128.847, 183.254 122.374 C 184.679 117.707, 184.677 117.105, 183.232 115.661 C 181.783 114.212, 181.813 113.760, 183.573 110.461 L 185.500 106.848 183.172 104.950 C 180.209 102.536, 180.713 99.825, 184.364 98.541 C 186.843 97.669, 187.497 97.876, 189.457 100.155 C 191.608 102.656, 191.715 103.632, 191.914 122.612 C 192.028 133.526, 192.319 142.653, 192.561 142.894 C 192.802 143.136, 193 111.083, 193 71.667 L 193 0 96.500 0 L 0 0 0 72 M 0.474 72.500 C 0.474 112.100, 0.598 128.154, 0.750 108.176 C 0.901 88.198, 0.901 55.798, 0.750 36.176 C 0.598 16.554, 0.474 32.900, 0.474 72.500 M 40 23.941 C 40 24.459, 40.450 25.160, 41 25.500 C 41.550 25.840, 42 25.416, 42 24.559 C 42 23.702, 41.550 23, 41 23 C 40.450 23, 40 23.423, 40 23.941 M 144 32 C 144 32.550, 144.450 33, 145 33 C 145.550 33, 146 32.550, 146 32 C 146 31.450, 145.550 31, 145 31 C 144.450 31, 144 31.450, 144 32 M 50 40 C 50 40.550, 50.450 41, 51 41 C 51.550 41, 52 40.550, 52 40 C 52 39.450, 51.550 39, 51 39 C 50.450 39, 50 39.450, 50 40 M 141.500 45 C 141.160 45.550, 141.332 46, 141.882 46 C 142.432 46, 143.160 45.550, 143.500 45 C 143.840 44.450, 143.668 44, 143.118 44 C 142.568 44, 141.840 44.450, 141.500 45 M 147.500 46 C 147.160 46.550, 147.332 47, 147.882 47 C 148.432 47, 149.160 46.550, 149.500 46 C 149.840 45.450, 149.668 45, 149.118 45 C 148.568 45, 147.840 45.450, 147.500 46 M 133 55.059 C 133 55.641, 133.450 55.840, 134 55.500 C 134.550 55.160, 135 54.684, 135 54.441 C 135 54.198, 134.550 54, 134 54 C 133.450 54, 133 54.477, 133 55.059 M 141.500 66.432 L 138.500 67.773 141.750 67.734 C 143.790 67.710, 145 67.194, 145 66.348 C 145 64.758, 145.257 64.751, 141.500 66.432 M 155.500 70 C 155.160 70.550, 155.332 71, 155.882 71 C 156.432 71, 157.160 70.550, 157.500 70 C 157.840 69.450, 157.668 69, 157.118 69 C 156.568 69, 155.840 69.450, 155.500 70 M 178.636 78.506 C 177.060 79.328, 175.223 80, 174.553 80 C 173.883 80, 173.409 81.013, 173.500 82.250 C 173.591 83.487, 174.078 84.343, 174.583 84.150 C 175.087 83.958, 175.387 83.395, 175.250 82.900 C 175.113 82.405, 175.597 82, 176.326 82 C 177.055 82, 178.708 80.875, 180 79.500 C 182.723 76.601, 182.542 76.469, 178.636 78.506 M 141.198 79.559 C 139.439 80.298, 138 81.600, 138 82.452 C 138 83.490, 137.095 83.978, 135.250 83.932 C 132.549 83.866, 132.540 83.845, 134.750 82.780 C 135.988 82.183, 137 81.313, 137 80.847 C 137 79.405, 132.315 79.915, 131 81.500 C 130.072 82.618, 130.056 83, 130.937 83 C 131.586 83, 131.812 83.495, 131.438 84.101 C 131.058 84.715, 129.524 84.955, 127.966 84.643 C 124.234 83.897, 121.642 87.573, 122.536 92.341 C 123.545 97.720, 124.211 98.240, 127.798 96.451 C 131.465 94.622, 132.455 93.399, 131 92.500 C 130.432 92.149, 130.226 91.443, 130.543 90.931 C 131.229 89.821, 133.051 89.680, 132.882 90.750 C 132.413 93.718, 133.186 93.946, 137.049 91.975 C 139.276 90.839, 141.391 89.144, 141.751 88.207 C 142.110 87.271, 143.438 85.471, 144.702 84.207 C 148.970 79.939, 146.882 77.169, 141.198 79.559 M 140 83.031 C 140 83.564, 140.675 84, 141.500 84 C 142.325 84, 143 83.823, 143 83.607 C 143 83.391, 142.325 82.955, 141.500 82.638 C 140.675 82.322, 140 82.499, 140 83.031 M 149.165 88.250 C 148.486 88.938, 144.683 91.075, 140.715 93 C 134.633 95.950, 133.450 96.932, 133.184 99.250 C 133.010 100.763, 133.193 102, 133.591 102 C 134.705 102, 145 93.860, 145 92.980 C 145 92.553, 146.912 91.050, 149.250 89.641 C 151.588 88.231, 152.803 87.060, 151.950 87.039 C 151.097 87.018, 149.844 87.563, 149.165 88.250 M 126.662 99.618 C 125.100 100.464, 124.056 101.389, 124.340 101.673 C 125.373 102.706, 131 100.803, 131 99.421 C 131 97.646, 130.237 97.680, 126.662 99.618 M 161.485 100.048 C 161.127 101.174, 161.377 102.749, 162.040 103.548 C 162.703 104.347, 162.875 105, 162.422 105 C 161.970 105, 162.104 105.504, 162.720 106.120 C 163.548 106.948, 164.902 106.751, 167.895 105.370 C 172.589 103.204, 172.971 101.866, 169.535 99.615 C 166.046 97.329, 162.284 97.531, 161.485 100.048 M 127.189 102.714 C 124.962 103.139, 123.189 105.522, 124.284 106.617 C 125.041 107.375, 131 104.143, 131 102.974 C 131 102.438, 130.662 102.061, 130.250 102.136 C 129.838 102.211, 128.460 102.471, 127.189 102.714 M 172.583 104.866 C 172.152 105.563, 172.070 106.403, 172.400 106.733 C 173.295 107.628, 174.271 106.312, 173.787 104.862 C 173.449 103.846, 173.213 103.846, 172.583 104.866 M 29.409 110.500 C 31.106 117.437, 31.157 119.832, 29.656 122.138 C 27.063 126.123, 26.491 134.380, 28.452 139.514 L 30.165 144 69.511 144 L 108.856 144 109.447 138.250 C 109.772 135.088, 110.525 131.150, 111.122 129.500 C 111.718 127.850, 112.605 124.250, 113.093 121.500 C 114.150 115.536, 112.854 114, 106.761 114 C 103.939 114, 102.287 114.666, 100.604 116.482 C 97.447 119.889, 86.170 121.009, 70.743 119.449 C 66.661 119.037, 63.495 119.162, 62.743 119.766 C 60.731 121.383, 52.749 120.920, 50 119.026 C 48.625 118.079, 45.298 116.763, 42.607 116.101 C 39.768 115.404, 35.816 113.345, 33.194 111.200 L 28.675 107.500 29.409 110.500 M 112 112 C 113.939 113.253, 115 113.253, 115 112 C 115 111.450, 113.987 111.007, 112.750 111.015 C 110.931 111.028, 110.787 111.216, 112 112" stroke="none" fill="black" fill-rule="evenodd"/>
</svg>