<svg xmlns="http://www.w3.org/2000/svg" width="192" height="144" viewBox="0 0 192 144" version="1.1">
	<path d="M 75.750 6.648 C 74.237 6.915, 73 7.553, 73 8.066 C 73 8.580, 72.395 9, 71.655 9 C 68.962 9, 67 12.566, 67 17.463 C 67 24.243, 68.781 29.384, 72.726 33.993 C 77.007 38.994, 78.422 43.521, 76.878 47.276 C 75.923 49.597, 76.032 50.378, 77.544 52.049 C 80.012 54.775, 88.657 57.129, 96.649 57.250 C 102.069 57.333, 103.522 57.007, 104.657 55.454 C 105.420 54.411, 105.812 52.953, 105.529 52.215 C 104.995 50.824, 107.370 45.487, 109.447 43.410 C 110.100 42.757, 115.013 40.092, 120.364 37.489 C 127.675 33.933, 130.704 31.859, 132.547 29.146 C 135.480 24.829, 135.674 21.054, 133.124 17.905 C 131.395 15.769, 130.948 15.680, 127.409 16.767 C 124.052 17.797, 123.315 17.712, 121.535 16.089 C 115.594 10.673, 103.169 6.961, 89.500 6.519 C 83.450 6.323, 77.263 6.381, 75.750 6.648 M 126.529 20.355 C 125.321 21.238, 124.912 22.328, 125.355 23.482 C 125.729 24.456, 125.603 25.774, 125.075 26.410 C 124.547 27.045, 123.648 28.796, 123.076 30.299 L 122.037 33.032 124.930 31.536 C 130.767 28.518, 134.199 21.058, 130.418 19.607 C 128.402 18.833, 128.685 18.779, 126.529 20.355" stroke="none" fill="black" fill-rule="evenodd"/>
</svg>