<svg xmlns="http://www.w3.org/2000/svg" width="192" height="144" viewBox="0 0 192 144" version="1.1">
	<path d="M 92.447 5.750 C 92.591 8.912, 92.153 12.625, 91.475 14 C 90.796 15.375, 89.901 18.075, 89.486 19.999 C 88.959 22.443, 86.888 25.253, 82.616 29.321 C 78.628 33.118, 77.805 34.208, 80.250 32.453 C 82.313 30.973, 84 29.418, 84 28.996 C 84 28.575, 85.013 27.567, 86.250 26.757 C 88.499 25.286, 88.500 25.289, 88.516 31.437 C 88.529 36.326, 89.004 38.190, 90.830 40.511 C 92.735 42.933, 93.028 44.208, 92.545 47.966 C 92.225 50.460, 92.388 53.148, 92.908 53.941 C 93.540 54.904, 93.352 56.352, 92.341 58.308 C 91.509 59.917, 91.073 62.170, 91.372 63.315 C 91.743 64.732, 90.860 66.689, 88.606 69.448 C 86.785 71.677, 84.555 74.937, 83.651 76.694 C 81.053 81.740, 69.059 96, 67.413 96 C 67.044 96, 64.410 98.427, 61.561 101.392 C 57.106 106.029, 56.143 107.764, 54.694 113.768 L 53.008 120.751 56.563 127.147 C 60.990 135.111, 64.934 137.924, 73.193 139.006 C 85.495 140.617, 94.523 142.223, 96.236 143.106 C 97.191 143.598, 100.229 144, 102.986 144 C 106.812 144, 108 143.639, 108 142.475 C 108 140.569, 110.523 139.607, 119.892 137.942 C 125.512 136.944, 127.398 136.194, 127.759 134.814 C 128.305 132.726, 129.640 132.421, 130.249 134.247 C 130.518 135.054, 132.631 134.009, 136.241 131.283 C 140.171 128.316, 142.573 125.512, 144.377 121.787 C 146.881 116.617, 146.902 116.394, 145.340 111.720 C 144.389 108.873, 142.562 106.041, 140.825 104.720 C 133.727 99.320, 131.803 96.973, 127.534 88.509 C 125.040 83.564, 123 78.892, 123 78.128 C 123 77.364, 121.464 74.601, 119.587 71.989 C 117.710 69.376, 115.524 65.947, 114.729 64.369 C 112.947 60.833, 113.568 54, 115.671 54 C 116.837 54, 117.091 52.372, 116.959 45.750 C 116.868 41.212, 117.119 35.771, 117.517 33.659 C 117.971 31.249, 117.798 28.992, 117.055 27.603 C 116.404 26.385, 115.981 24.964, 116.117 24.445 C 116.253 23.925, 115.844 21.725, 115.209 19.556 C 114.574 17.387, 114.155 15.587, 114.277 15.556 C 116.057 15.107, 118.712 12.871, 119.487 11.168 C 120.030 9.976, 120.835 9, 121.276 9 C 122.590 9, 118.746 5.454, 115.250 3.441 C 113.463 2.411, 112 1.216, 112 0.784 C 112 0.353, 107.542 0, 102.093 0 L 92.186 0 92.447 5.750 M 74.500 38 C 73.505 39.100, 73.102 40, 73.604 40 C 74.107 40, 75.081 39.100, 75.768 38 C 76.455 36.900, 76.858 36, 76.663 36 C 76.469 36, 75.495 36.900, 74.500 38" stroke="none" fill="black" fill-rule="evenodd"/>
</svg>