<svg xmlns="http://www.w3.org/2000/svg" width="192" height="144" viewBox="0 0 192 144" version="1.1">
	<path d="M 0.211 8.721 L 0.500 17.442 4.949 18.319 C 8.475 19.014, 9.989 18.847, 12.251 17.511 C 15.658 15.498, 18 16.136, 18 19.076 C 18 20.755, 18.376 21.040, 19.750 20.402 C 25.020 17.956, 31.885 20.680, 31.968 25.250 C 31.986 26.212, 32.378 27, 32.839 27 C 34.404 27, 36.058 32.023, 35.089 33.833 C 33.896 36.062, 35.319 38.589, 38.800 40.422 C 40.285 41.204, 44.124 44.283, 47.331 47.265 L 53.162 52.686 52.033 56.879 C 50.384 63.002, 52.042 72.767, 58.097 92.604 C 64.717 114.289, 64.948 115.302, 64.976 122.750 C 64.995 127.662, 64.677 129, 63.493 129 C 62.665 129, 61.005 130.129, 59.805 131.509 C 57.843 133.766, 57.128 133.953, 52.709 133.367 C 46.916 132.599, 46.038 133.436, 46.015 139.750 L 46 144 65.500 144 C 77.833 144, 85 143.632, 85 143 C 85 142.450, 84.568 142, 84.040 142 C 82.289 142, 78 136.556, 78 134.333 C 78 133.130, 76.988 131.325, 75.750 130.323 C 73.774 128.722, 73.537 127.728, 73.800 122.163 C 73.965 118.677, 73.680 115.302, 73.166 114.663 C 72.652 114.023, 71.710 108.775, 71.073 103 C 70.436 97.225, 69.449 90.025, 68.881 87 C 68.034 82.490, 68.130 80.960, 69.418 78.500 C 70.491 76.449, 70.990 72.758, 70.994 66.833 C 70.998 61.682, 71.425 58.025, 72.049 57.817 C 73.567 57.311, 73.353 38.709, 71.775 34 C 67.986 22.696, 65 12.544, 65 10.969 C 65 9.886, 64.601 9, 64.114 9 C 63.626 9, 62.923 6.975, 62.552 4.500 L 61.877 0 30.900 0 L -0.078 0 0.211 8.721 M -0 43.933 L -0 69.084 6.999 58.792 C 14.634 47.564, 14.868 46.646, 12.924 35.485 C 11.918 29.710, 11.691 29.336, 9.436 29.767 C 6.478 30.333, 5.266 27.906, 6.813 24.512 C 8.059 21.777, 7.076 20.559, 2.744 19.472 L 0 18.783 -0 43.933 M 35.729 63.604 C 35.328 64.005, 35.018 66.396, 35.040 68.917 L 35.080 73.500 36.603 70.690 C 38.110 67.911, 37.376 61.958, 35.729 63.604 M 28.630 69.250 C 28.299 70.487, 28.021 72.768, 28.014 74.317 C 28.002 76.677, 27.675 77.032, 26 76.500 C 24.309 75.963, 24 76.320, 24 78.808 C 24 84.352, 22.818 88.089, 21.117 87.925 C 17.886 87.614, 17.177 88.053, 16.150 91 C 15.575 92.650, 14.666 94, 14.131 94 C 12.641 94, 11.624 87.976, 12.899 86.701 C 14.274 85.326, 14.362 76, 13 76 C 12.450 76, 10.200 77.800, 8 80 C 5.800 82.200, 3.100 84, 2 84 C 0.044 84, 0 84.667, 0 114 L 0 144 14.870 144 L 29.740 144 30.305 139.250 C 30.961 133.735, 29.407 131.769, 25.076 132.635 C 22.892 133.072, 22.177 132.685, 21.198 130.535 C 20.135 128.203, 19.535 127.946, 15.967 128.303 C 13.750 128.525, 11.695 128.316, 11.400 127.839 C 10.534 126.437, 12.958 116.850, 15.321 112.333 C 30.220 83.844, 29.686 85.190, 29.843 75.750 C 29.992 66.819, 29.701 65.256, 28.630 69.250 M 37.206 136.689 C 36.695 137.685, 35.981 139.738, 35.619 141.250 C 35.011 143.797, 35.190 144, 38.038 144 C 41.031 144, 41.107 143.887, 40.807 139.828 C 40.475 135.321, 38.702 133.775, 37.206 136.689" stroke="none" fill="black" fill-rule="evenodd"/>
</svg>