<svg xmlns="http://www.w3.org/2000/svg" width="192" height="144" viewBox="0 0 192 144" version="1.1">
	<path d="M 30.979 32.929 C 24.767 34.083, 19.060 36.980, 16.694 40.181 C 15.189 42.217, 14.702 44.501, 14.669 49.681 C 14.614 58.158, 16.746 63.023, 21.657 65.621 C 26.208 68.029, 27.546 71.237, 25.378 74.546 C 24.493 75.896, 23.406 77, 22.962 77 C 22.517 77, 20.789 78.148, 19.121 79.552 C 17.452 80.956, 15.827 82.060, 15.509 82.007 C 15.190 81.954, 13.820 82.783, 12.465 83.849 C 9.287 86.349, 9.141 91.639, 12.145 95.457 C 16.010 100.371, 16.052 103.875, 12.313 109.362 C 9.987 112.777, 9 115.364, 9 118.051 C 9 121.865, 9.016 121.879, 13.750 122.480 C 16.363 122.812, 20.181 123.584, 22.235 124.197 C 24.901 124.991, 33.635 125.060, 52.735 124.438 C 78.634 123.593, 88.922 123.560, 131.500 124.181 C 149.172 124.439, 151.885 124.265, 154.803 122.684 C 163.245 118.109, 163.968 114.124, 157.941 105.385 C 154.275 100.069, 153.924 99.027, 154.308 94.615 C 154.718 89.895, 156.480 87.527, 159.614 87.485 C 160.227 87.477, 161.453 86.869, 162.338 86.134 C 163.703 85.002, 171.186 84.202, 191.250 83.043 C 192.635 82.963, 192.017 80, 190.615 80 C 189.853 80, 188.525 78.924, 187.663 77.608 C 186.690 76.123, 183.996 74.556, 180.560 73.475 C 177.515 72.517, 174.513 71.119, 173.890 70.367 C 173.266 69.615, 172.166 69, 171.445 69 C 169.831 69, 168.426 64.987, 169.738 64.125 C 170.262 63.781, 170.488 61.830, 170.240 59.789 C 169.710 55.418, 165.573 51.738, 159.431 50.173 C 146.457 46.869, 134.289 46.461, 119.198 48.824 C 110.304 50.217, 103.105 48.660, 95.854 43.775 C 87.944 38.445, 82.730 36.004, 79.216 35.985 C 77.722 35.977, 74.481 35.268, 72.013 34.409 C 66.803 32.595, 38.310 31.568, 30.979 32.929" stroke="none" fill="black" fill-rule="evenodd"/>
</svg>