<svg xmlns="http://www.w3.org/2000/svg" width="192" height="144" viewBox="0 0 192 144" version="1.1">
	<path d="M 0 72 L 0 144 42.067 144 C 82.867 144, 84.117 143.943, 83.535 142.110 C 83.205 141.070, 84.088 137.156, 85.497 133.413 C 86.905 129.670, 88.711 122.983, 89.509 118.554 C 90.307 114.124, 91.247 109.485, 91.598 108.245 C 91.949 107.004, 91.807 105.429, 91.282 104.745 C 90.757 104.060, 90.441 101.186, 90.579 98.358 C 90.823 93.372, 90.740 93.198, 87.833 92.617 C 86.185 92.287, 84.003 92.463, 82.984 93.009 C 80.360 94.413, 79 94.239, 79 92.500 C 79 91.675, 78.325 91, 77.500 91 C 76.675 91, 76 90.315, 76 89.478 C 76 87.284, 83.526 79.439, 87.019 77.992 C 89.172 77.100, 90.260 75.748, 90.982 73.066 C 91.530 71.033, 93.108 68.308, 94.489 67.011 C 95.905 65.680, 97.002 63.528, 97.005 62.076 L 97.010 59.500 99.255 62.164 C 100.490 63.629, 102.473 65.109, 103.661 65.453 C 104.850 65.797, 107.010 67.636, 108.462 69.539 C 110.391 72.068, 111.874 73, 113.968 73 C 117.118 73, 124.362 75.891, 127.500 78.401 C 129.459 79.967, 129.461 80.030, 127.602 81.469 C 126.032 82.683, 125.923 83.203, 126.974 84.469 C 128.079 85.800, 127.726 86, 124.271 86 C 121.953 86, 118.339 87.042, 115.596 88.500 C 113.010 89.875, 109.528 91, 107.859 91 C 104.840 91, 104.828 91.022, 105.560 95.250 C 105.964 97.588, 106.411 100.487, 106.553 101.693 C 106.695 102.899, 107.108 104.365, 107.470 104.952 C 107.833 105.538, 108.319 108.039, 108.550 110.509 C 108.875 113.973, 108.637 115, 107.511 115 C 105.272 115, 106.614 120.241, 111.189 129.364 C 114.166 135.301, 115.020 138.061, 114.675 140.626 L 114.217 144.023 153.358 143.762 L 192.500 143.500 192.757 71.750 L 193.013 0 150.439 0 C 110.360 0, 107.896 0.103, 108.387 1.750 C 111.716 12.907, 111.683 23.443, 108.294 31.016 C 107.190 33.482, 104.214 38.240, 101.680 41.588 C 99.146 44.937, 96.598 48.928, 96.016 50.458 L 94.959 53.239 92.229 49.311 C 77.511 28.124, 75.989 25.007, 76.012 16.091 C 76.018 13.566, 76.688 9.025, 77.500 6 C 78.312 2.975, 78.982 0.388, 78.988 0.250 C 78.995 0.112, 61.225 0, 39.500 0 L 0 0 0 72 M 0.474 72.500 C 0.474 112.100, 0.598 128.154, 0.750 108.176 C 0.901 88.198, 0.901 55.798, 0.750 36.176 C 0.598 16.554, 0.474 32.900, 0.474 72.500 M 116 91 C 116.825 91.533, 118.175 91.945, 119 91.914 C 119.989 91.878, 119.819 91.567, 118.500 91 C 115.751 89.819, 114.172 89.819, 116 91" stroke="none" fill="black" fill-rule="evenodd"/>
</svg>