<svg xmlns="http://www.w3.org/2000/svg" width="192" height="144" viewBox="0 0 192 144" version="1.1">
	<path d="M 0 72 L 0 144 52.026 144 L 104.051 144 102.389 140.750 C 101.474 138.963, 99.431 135.852, 97.849 133.838 C 95.365 130.677, 92 124.172, 92 122.532 C 92 121.593, 105.439 121.964, 111.414 123.069 C 114.594 123.657, 117.440 123.893, 117.739 123.594 C 118.567 122.766, 115.038 109.152, 112.516 103.445 C 110.156 98.103, 107.694 87.296, 107.825 82.854 C 107.868 81.398, 108.774 78.776, 109.838 77.026 C 111.633 74.074, 111.740 70, 110.022 70 C 109.612 70, 109.477 68.955, 109.721 67.679 C 109.965 66.402, 109.484 63.140, 108.652 60.429 C 107.820 57.718, 107.108 56.025, 107.070 56.667 C 106.941 58.822, 99.070 53.622, 97.506 50.349 C 95.470 46.089, 95.612 42.071, 97.982 36.859 C 99.959 32.513, 99.959 32.496, 97.982 31.128 C 95.447 29.373, 95.485 28.178, 98.164 25.325 C 100.232 23.124, 100.251 22.935, 98.582 21.090 C 96.911 19.244, 96.927 19.109, 98.956 18.023 C 100.124 17.399, 102.073 17.025, 103.289 17.194 C 104.932 17.421, 105.581 16.927, 105.817 15.271 C 106.116 13.165, 106.265 13.127, 108.500 14.592 C 110.372 15.818, 111.314 15.902, 113.011 14.994 C 114.191 14.363, 115.909 14.138, 116.828 14.494 C 117.748 14.850, 120.300 15.518, 122.500 15.977 C 144.261 20.517, 148.973 24.985, 151.932 43.884 C 152.482 47.395, 153.622 51.030, 154.466 51.962 C 156.400 54.100, 156.410 55, 154.500 55 C 153.491 55, 152.974 56.063, 152.921 58.250 C 152.878 60.038, 152.615 60.938, 152.338 60.250 C 151.367 57.844, 150.467 59.031, 150.630 62.500 C 150.720 64.425, 150.391 66, 149.897 66 C 149.404 66, 149 65.550, 149 65 C 149 64.450, 148.325 64, 147.500 64 C 146.663 64, 146 64.890, 146 66.014 C 146 67.717, 145.521 67.944, 142.906 67.484 C 140.674 67.090, 139.931 67.292, 140.237 68.210 C 140.470 68.909, 142.874 69.851, 145.580 70.304 C 151.250 71.252, 154.005 73.468, 156.560 79.133 L 158.374 83.156 160.165 80.828 C 162.277 78.083, 162.480 76.327, 160.754 75.751 C 160.068 75.523, 161.418 74.130, 163.754 72.655 C 166.089 71.181, 168 69.602, 168 69.146 C 168 68.691, 167.330 66.109, 166.511 63.409 C 164.809 57.800, 164.519 49.415, 165.995 48.503 C 166.542 48.165, 166.917 46.451, 166.828 44.694 C 166.739 42.937, 167.015 40.712, 167.440 39.750 C 168.067 38.333, 167.718 38, 165.607 38 C 162.543 38, 162.105 36.047, 165 35.290 C 167.369 34.670, 167.515 32.055, 165.934 18.500 C 164.808 8.842, 165.449 0.049, 167.154 1.754 C 167.701 2.301, 168.903 9.443, 169.825 17.625 C 171.410 31.701, 171.621 32.517, 173.750 32.820 C 176.536 33.215, 176.644 34.585, 174 36 C 171.440 37.370, 171.440 39.041, 174 39.710 C 175.100 39.998, 176 40.874, 176 41.656 C 176 43.914, 179.822 50.801, 181.640 51.818 C 183.011 52.585, 183.203 53.881, 182.762 59.372 C 182.296 65.177, 182.444 66, 183.948 66 C 187.048 66, 186.907 67.143, 183.428 70.198 C 180.364 72.888, 179.998 73.754, 179.985 78.354 C 179.966 84.566, 178.829 86.933, 176.709 85.173 C 174.878 83.654, 174.698 83.885, 168.240 96 C 161.818 108.048, 161.462 110.139, 165.598 111.490 C 169.943 112.910, 172 114.862, 172 117.563 C 172 118.839, 172.450 120.160, 173 120.500 C 174.740 121.575, 174.082 124.166, 171.926 124.730 C 170.291 125.157, 169.983 125.796, 170.471 127.742 C 171.131 130.369, 168.811 135, 166.836 135 C 165.407 135, 156 142.143, 156 143.228 C 156 143.677, 164.212 143.922, 174.250 143.773 L 192.500 143.500 192.757 71.750 L 193.013 0 96.507 0 L 0 0 0 72 M 0.474 72.500 C 0.474 112.100, 0.598 128.154, 0.750 108.176 C 0.901 88.198, 0.901 55.798, 0.750 36.176 C 0.598 16.554, 0.474 32.900, 0.474 72.500 M 113.100 69.250 C 113.004 71.897, 113.188 72, 118 72 C 120.750 72, 123 71.550, 123 71 C 123 70.450, 122.438 69.942, 121.750 69.871 C 116.960 69.377, 114.987 69.545, 114.900 70.454 C 114.845 71.029, 114.440 70.375, 114 69 L 113.199 66.500 113.100 69.250" stroke="none" fill="black" fill-rule="evenodd"/>
</svg>