<svg xmlns="http://www.w3.org/2000/svg" width="192" height="144" viewBox="0 0 192 144" version="1.1">
	<path d="M 0 72 L 0 144 37 144 L 74 144 74 141.650 C 74 140.358, 72.697 137.502, 71.105 135.304 C 67.178 129.883, 65 125.511, 65 123.050 C 65 120.558, 67.846 120.429, 79 122.415 C 83.125 123.150, 86.689 123.581, 86.920 123.372 C 87.621 122.740, 81.349 104.657, 77.894 97.350 C 75.571 92.436, 74.633 88.988, 74.578 85.150 C 74.505 80.148, 74.746 79.594, 78.277 76.627 C 80.652 74.632, 81.711 73.092, 81.130 72.477 C 80.621 71.940, 79.951 69.700, 79.641 67.500 C 78.415 58.804, 77.744 56, 76.891 56 C 76.401 56, 76 56.634, 76 57.409 C 76 59.857, 68.247 55.379, 66.442 51.888 C 63.996 47.158, 63.937 45.379, 66.008 38.727 C 67.376 34.330, 67.603 32.373, 66.802 31.878 C 65.985 31.373, 66.033 30.335, 66.978 28.053 C 68.158 25.205, 68.069 24.702, 65.992 22.491 L 63.709 20.061 66.346 19.059 C 67.796 18.507, 69.662 18.317, 70.491 18.635 C 71.543 19.039, 72 18.573, 72 17.099 C 72 15.263, 72.254 15.142, 73.919 16.181 C 75.424 17.121, 76.169 17.104, 77.375 16.104 C 78.279 15.353, 79.445 15.170, 80.206 15.660 C 82.012 16.822, 91.794 18.857, 96 18.946 C 103.685 19.108, 115.309 27.421, 118.094 34.747 C 118.646 36.200, 119.525 40.752, 120.046 44.862 C 120.603 49.258, 121.676 53.090, 122.652 54.168 C 123.821 55.459, 123.932 56, 123.030 56 C 122.145 56, 121.933 56.913, 122.342 58.961 C 122.730 60.902, 122.429 62.429, 121.467 63.390 C 120.660 64.197, 120 65.339, 120 65.929 C 120 66.518, 119.550 67, 119 67 C 118.450 67, 118 66.550, 118 66 C 118 65.450, 117.325 65, 116.500 65 C 115.675 65, 115 65.645, 115 66.433 C 115 67.221, 114.100 68.151, 113 68.500 C 110.215 69.384, 110.497 71, 113.435 71 C 117.746 71, 120.856 72.825, 123.592 76.960 C 125.063 79.182, 126.624 81, 127.061 81 C 128.744 81, 131.042 77.708, 130.516 76.052 C 130.211 75.089, 130.877 73.154, 132.010 71.714 C 136.257 66.315, 147.083 67.499, 148.596 73.528 C 148.912 74.784, 150.029 76.036, 151.080 76.311 C 154.549 77.218, 154.357 79.710, 150.522 83.545 C 148.514 85.553, 146.112 87.303, 145.185 87.435 C 144.258 87.566, 142.987 89.209, 142.361 91.087 C 141.464 93.773, 140.682 94.500, 138.687 94.500 C 136.840 94.500, 135.282 95.701, 132.940 98.930 L 129.727 103.360 131.863 105.090 C 133.038 106.042, 134 107.725, 134 108.831 C 134 110.240, 134.875 111.033, 136.926 111.484 C 139.704 112.094, 143.776 116.557, 142.615 117.718 C 142.316 118.018, 142.696 119.155, 143.460 120.246 C 145.176 122.697, 144.417 125, 141.893 125 C 140.414 125, 140 125.730, 140 128.336 C 140 131.161, 139.226 132.272, 134.946 135.586 C 132.167 137.739, 128.679 140.502, 127.196 141.727 L 124.500 143.954 158.500 143.727 L 192.500 143.500 192.757 71.750 L 193.013 0 96.507 0 L 0 0 0 72 M 0.474 72.500 C 0.474 112.100, 0.598 128.154, 0.750 108.176 C 0.901 88.198, 0.901 55.798, 0.750 36.176 C 0.598 16.554, 0.474 32.900, 0.474 72.500 M 83.079 69.583 C 83.127 70.748, 83.364 70.985, 83.683 70.188 C 83.972 69.466, 83.936 68.603, 83.604 68.271 C 83.272 67.939, 83.036 68.529, 83.079 69.583 M 87.028 71.176 C 83.974 72.052, 83.777 72.295, 85.387 73.197 C 87.414 74.331, 92 72.822, 92 71.021 C 92 69.834, 91.671 69.845, 87.028 71.176" stroke="none" fill="black" fill-rule="evenodd"/>
</svg>