<svg xmlns="http://www.w3.org/2000/svg" width="192" height="144" viewBox="0 0 192 144" version="1.1">
	<path d="M 0 25.579 L 0 51.159 3.250 50.329 C 5.038 49.873, 13.475 49.509, 22 49.520 C 34.424 49.536, 39.544 49.994, 47.796 51.826 L 58.093 54.112 60.948 51.056 C 62.518 49.375, 64.297 48, 64.901 48 C 65.506 48, 66 46.875, 66 45.500 C 66 43.702, 65.461 43, 64.082 43 C 61.223 43, 59 41.941, 59 40.580 C 59 39.224, 63.187 35.175, 67.067 32.779 C 69.011 31.578, 69.938 29.774, 70.888 25.347 C 72.561 17.540, 73.932 14.962, 77.794 12.360 C 82.743 9.025, 93.572 6, 100.564 6 C 106.789 6, 106.795 6.003, 111.983 11.390 L 117.174 16.780 124.579 16.667 C 129.990 16.585, 132.392 16.964, 133.504 18.075 C 134.865 19.437, 134.809 19.827, 132.974 21.797 C 131.846 23.008, 129.171 24.892, 127.030 25.985 C 124.888 27.077, 122.864 28.411, 122.532 28.948 C 122.200 29.485, 123.100 32.237, 124.532 35.064 C 125.964 37.890, 126.710 39.939, 126.190 39.617 C 125.669 39.296, 124.995 40.275, 124.691 41.793 C 124.312 43.689, 122.865 45.270, 120.070 46.841 C 115.567 49.372, 115.379 49.769, 117.395 52.525 C 118.637 54.224, 118.473 54.817, 115.895 57.944 C 114.034 60.202, 113 62.601, 113 64.663 C 113 68.744, 111.393 72.992, 109.259 74.552 C 107.801 75.618, 108.266 76.193, 113.049 79.234 C 120.618 84.047, 122.569 85, 124.855 85 C 127.583 85, 143 95.766, 143 97.672 C 143 98.519, 144.237 100.170, 145.750 101.340 C 147.262 102.511, 150.572 105.388, 153.104 107.734 C 155.636 110.080, 158.393 112, 159.231 112 C 160.069 112, 161.315 112.675, 162 113.500 C 162.685 114.325, 163.752 115.008, 164.372 115.017 C 166.583 115.051, 171.095 121.176, 171.403 124.561 C 171.457 125.145, 174.425 129.776, 178 134.852 C 184.496 144.076, 184.502 144.081, 188.500 143.791 L 192.500 143.500 192.688 71.750 L 192.877 0 96.438 0 L 0 0 0 25.579 M 0.435 26 C 0.435 40.025, 0.575 45.763, 0.747 38.750 C 0.919 31.738, 0.919 20.263, 0.747 13.250 C 0.575 6.238, 0.435 11.975, 0.435 26 M 6.413 59.943 C 4.715 60.349, 2.802 61.004, 2.163 61.399 C 1.310 61.927, 1 73.024, 1 103.059 L 1 144 40.133 144 L 79.265 144 78.601 124.250 C 77.741 98.726, 77.191 93.713, 75.329 94.427 C 74.146 94.881, 74.021 93.914, 74.592 88.737 C 74.970 85.307, 75.667 81.458, 76.140 80.185 C 77.389 76.824, 77.214 76, 75.250 75.996 C 73.114 75.992, 67.421 72.661, 63.903 69.357 C 60.861 66.501, 45.081 61.674, 33.536 60.068 C 24.973 58.877, 11.137 58.813, 6.413 59.943 M 115.874 98.576 C 117.494 103.134, 117.501 103.140, 117.820 99.981 C 118.219 96.033, 117.483 94, 115.655 94 C 114.477 94, 114.513 94.746, 115.874 98.576 M 136.193 111.268 C 135.432 112.184, 135.669 113.223, 137.048 115.018 C 139.477 118.179, 139.469 119.265, 137 121.500 C 133.580 124.595, 134.573 125.329, 141.250 124.639 C 147.254 124.019, 150.078 122.370, 149.953 119.559 C 149.897 118.308, 139.735 110, 138.260 110 C 137.702 110, 136.771 110.570, 136.193 111.268 M 160.150 135.340 C 158.941 136.627, 157.544 139.102, 157.046 140.840 L 156.140 144 164.129 144 C 170.234 144, 171.950 143.705, 171.404 142.750 C 169.919 140.150, 163.834 133, 163.107 133 C 162.690 133, 161.359 134.053, 160.150 135.340 M 117.158 141 L 114.940 144 129.220 143.961 C 142.490 143.924, 143.267 143.821, 140.208 142.491 C 137.506 141.318, 122.636 138, 120.078 138 C 119.692 138, 118.378 139.350, 117.158 141" stroke="none" fill="black" fill-rule="evenodd"/>
</svg>