<svg xmlns="http://www.w3.org/2000/svg" width="192" height="144" viewBox="0 0 192 144" version="1.1">
	<path d="M 93 7.922 C 85.672 9.370, 81.848 14.165, 80.205 23.967 C 79.589 27.642, 78.772 28.898, 75.598 31.053 C 73.281 32.627, 70.843 33.501, 69.492 33.243 C 67.956 32.950, 66.730 33.547, 65.622 35.129 C 63.254 38.510, 63.620 39.974, 67 40.650 C 68.650 40.980, 70 41.880, 70 42.650 C 70 43.420, 71.107 44.470, 72.459 44.984 C 73.812 45.499, 75.863 47.771, 77.017 50.034 C 78.805 53.537, 79.343 53.960, 80.646 52.879 C 81.983 51.770, 82.152 52.169, 81.995 56.055 C 81.896 58.500, 81.871 61.850, 81.939 63.500 C 82.056 66.310, 82.153 66.382, 83.482 64.627 C 84.837 62.837, 84.928 62.865, 85.530 65.263 C 85.982 67.066, 86.671 67.637, 87.978 67.296 C 88.978 67.034, 90.947 67.574, 92.354 68.496 C 93.761 69.418, 95.382 69.882, 95.956 69.527 C 96.530 69.172, 96.993 69.246, 96.985 69.691 C 96.944 71.854, 94.982 72.819, 89.294 73.473 C 83.496 74.139, 82.848 74.480, 79.417 78.666 C 77.245 81.318, 75.379 82.779, 74.847 82.247 C 74.353 81.753, 72.898 78.457, 71.615 74.924 C 70.332 71.391, 68.320 66.925, 67.145 65 C 65.969 63.075, 65.006 60.712, 65.004 59.750 C 64.995 55.874, 61.853 58.298, 56.461 66.339 C 54.307 69.550, 50.540 74.241, 48.090 76.762 C 43.648 81.332, 43.641 81.350, 45.817 82.795 C 48.577 84.627, 48.643 87, 45.934 87 C 41.089 87, 38.304 90.904, 41.133 93.733 C 42.883 95.483, 41.349 98, 38.531 98 C 35.174 98, 35.336 99.339, 39.037 102.174 C 40.707 103.453, 43.567 105.727, 45.393 107.227 C 47.218 108.727, 48.889 109.799, 49.106 109.610 C 49.323 109.420, 51.149 108.967, 53.164 108.603 C 56.688 107.967, 56.853 108.067, 57.485 111.221 C 59.215 119.865, 61.079 123.790, 64.039 125.016 C 65.659 125.687, 68.147 126.014, 69.569 125.742 C 72.145 125.250, 72.151 125.265, 71.453 130.374 C 70.681 136.016, 69.840 138.370, 67.388 141.750 L 65.756 144 88.853 144 L 111.950 144 110.975 141.435 C 109.316 137.070, 109.931 132.793, 113.340 125 C 116.355 118.107, 116.837 117.526, 119.299 117.820 C 121.797 118.119, 121.937 117.934, 121.367 115.086 C 120.883 112.664, 121.144 111.898, 122.628 111.392 C 123.658 111.041, 125.483 109.601, 126.684 108.193 L 128.867 105.633 135.365 108.932 C 138.939 110.746, 145.454 115.103, 149.844 118.615 C 154.233 122.127, 158.323 125, 158.933 125 C 159.544 125, 161.821 123.823, 163.995 122.385 C 168.709 119.265, 170.828 119.575, 177.073 124.296 C 183.060 128.822, 184.681 129.328, 185.323 126.874 C 185.609 125.780, 187.228 124.363, 188.921 123.724 L 192 122.562 192 105.281 C 192 89.742, 191.830 88, 190.315 88 C 189.388 88, 184.279 90.485, 178.961 93.522 C 166.383 100.706, 161.147 101.840, 150.552 99.674 C 143.766 98.286, 142.377 98.251, 141.052 99.434 C 139.727 100.618, 138.842 100.597, 135 99.295 C 129.508 97.432, 129.035 96.756, 129.015 90.750 C 128.997 85.103, 128.043 83.969, 118.728 78.520 C 115.028 76.355, 112 73.973, 112 73.225 C 112 72.339, 112.669 72.078, 113.919 72.474 C 115.282 72.907, 116.022 72.506, 116.471 71.093 C 117.170 68.888, 120 69.300, 120 71.607 C 120 73.935, 121.921 73.162, 122.571 70.572 C 123.343 67.497, 125.641 66.564, 126.955 68.792 C 128.600 71.579, 130.001 68.286, 129.311 63.254 C 128.861 59.967, 129.136 58.507, 130.487 57.015 C 131.669 55.709, 132.027 54.313, 131.573 52.783 C 130.229 48.249, 129.783 40, 130.883 40 C 131.472 40, 134.995 41.145, 138.712 42.543 C 146.313 45.405, 148.463 44.967, 152.134 39.812 C 153.660 37.669, 153.864 36.615, 153.049 35.092 C 151.570 32.328, 151.552 32.345, 156.166 32.165 C 158.457 32.075, 160.489 31.845, 160.680 31.653 C 160.872 31.461, 159.795 28.649, 158.288 25.402 C 156.781 22.156, 155.312 17.025, 155.024 14 L 154.500 8.500 148.637 8.377 C 143.179 8.263, 137.982 9.614, 130.740 13.029 C 128.282 14.188, 127.733 14.098, 125.726 12.213 C 121.510 8.252, 116.707 6.992, 106.282 7.115 C 100.902 7.178, 94.925 7.541, 93 7.922" stroke="none" fill="black" fill-rule="evenodd"/>
</svg>