<svg xmlns="http://www.w3.org/2000/svg" width="192" height="144" viewBox="0 0 192 144" version="1.1">
	<path d="M 172 107.551 C 172 109.249, 166.687 111.832, 162.177 112.326 C 160.075 112.556, 155.827 116.048, 146.068 125.569 C 138.778 132.681, 132.169 139.738, 131.381 141.250 L 129.949 144 147.353 144 L 164.757 144 166 141 C 166.683 139.350, 167.581 138, 167.994 138 C 168.406 138, 169.032 136.200, 169.384 134 L 170.024 130 174.902 130 C 179.753 130, 179.785 129.979, 180.457 126.250 C 181.781 118.908, 181.657 110.082, 180.222 109.532 C 179.480 109.247, 179.124 108.608, 179.431 108.112 C 180.109 107.015, 177.701 106, 174.418 106 C 172.900 106, 172 106.577, 172 107.551" stroke="none" fill="black" fill-rule="evenodd"/>
</svg>