<svg xmlns="http://www.w3.org/2000/svg" width="192" height="144" viewBox="0 0 192 144" version="1.1">
	<path d="M 0 72 L 0 144 38.464 144 L 76.928 144 73.808 138.094 C 71.478 133.681, 70.026 132.055, 68.068 131.664 C 60.595 130.169, 53.877 126.622, 47.565 120.839 C 39.806 113.729, 37 108.869, 37 102.540 C 37 97.406, 38.084 96.827, 40.703 100.562 C 46.720 109.144, 51.142 112.186, 59.285 113.346 L 63.069 113.885 59.035 109.302 C 53.797 103.352, 53.581 100.232, 58.750 105.195 C 62.928 109.208, 70.738 113.324, 82 117.449 C 89.550 120.215, 95 124.643, 95 128.012 C 95 130.191, 96.996 132, 99.400 132 C 100.841 132, 101.096 132.304, 100.312 133.088 C 99.713 133.687, 94.650 134.428, 89.060 134.736 C 83.212 135.059, 79.270 135.670, 79.776 136.176 C 81.088 137.488, 92.661 139.213, 99.500 139.116 C 107.633 139, 110.794 139.777, 111.522 142.069 C 112.026 143.657, 113.077 144, 117.444 144 L 122.752 144 123.246 138.750 C 123.517 135.863, 124.092 132.600, 124.524 131.500 C 125.062 130.129, 124.474 130.444, 122.656 132.500 C 121.196 134.150, 120.002 135.838, 120.001 136.250 C 119.998 138.077, 117.466 136.681, 113.884 132.876 C 109.632 128.362, 109.344 127.410, 111.341 124.473 C 112.078 123.388, 113.517 120.137, 114.538 117.250 C 115.559 114.362, 116.644 112, 116.948 112.001 C 117.251 112.001, 119.799 112.875, 122.608 113.942 C 128.223 116.077, 130 115.449, 130 111.331 C 130 109.726, 130.438 109.231, 131.500 109.638 C 132.325 109.955, 133 109.716, 133 109.107 C 133 108.498, 133.392 108, 133.871 108 C 134.350 108, 135.038 110.232, 135.400 112.959 C 135.762 115.686, 136.453 118.162, 136.935 118.460 C 137.418 118.758, 137.605 119.794, 137.352 120.763 C 137.098 121.732, 138.303 126.569, 140.028 131.512 C 141.753 136.455, 143.405 141.287, 143.699 142.250 C 144.152 143.735, 145.503 144, 152.617 144 C 157.539 144, 161 143.587, 161 143 C 161 142.450, 159.408 142, 157.461 142 C 152.952 142, 145.452 135.591, 146.566 132.689 C 146.947 131.697, 147.852 131.113, 148.578 131.392 C 149.307 131.671, 150.175 131.025, 150.516 129.949 C 150.856 128.877, 151.799 128, 152.611 128 C 153.423 128, 154.015 127.437, 153.925 126.750 C 153.588 124.151, 154.046 123, 155.417 123 C 156.196 123, 156.983 122.609, 157.167 122.132 C 157.350 121.655, 158.481 120.960, 159.680 120.587 C 161.569 120, 162.395 120.827, 165.876 126.788 C 170.520 134.740, 171.423 135.624, 178.359 139.008 C 181.187 140.388, 183.379 142.100, 183.231 142.814 C 183.035 143.765, 184.233 144.030, 187.731 143.806 L 192.500 143.500 192.757 71.750 L 193.013 0 96.507 0 L 0 0 0 72 M 0.474 72.500 C 0.474 112.100, 0.598 128.154, 0.750 108.176 C 0.901 88.198, 0.901 55.798, 0.750 36.176 C 0.598 16.554, 0.474 32.900, 0.474 72.500 M 30.281 12.062 C 31.033 17.665, 29.819 19.750, 24.414 22.141 C 20.056 24.069, 20 24.156, 20 29.026 C 20 33.727, 20.177 34.048, 23.750 35.835 C 25.813 36.867, 28.908 37.979, 30.629 38.306 C 33.687 38.888, 33.796 38.777, 35.510 33.330 C 37.169 28.054, 37.171 27.460, 35.551 22.129 C 34.610 19.033, 33.539 14.737, 33.170 12.581 C 32.802 10.426, 31.870 8.454, 31.100 8.198 C 29.989 7.829, 29.821 8.625, 30.281 12.062 M 123 84.043 C 123 86.283, 132.308 94.885, 136.786 96.784 C 144.003 99.844, 148 100.493, 148 98.605 C 148 97.751, 146.537 96.299, 144.750 95.380 C 142.963 94.461, 139.935 92.424, 138.022 90.854 C 136.109 89.284, 133.349 88, 131.887 88 C 130.156 88, 128.659 87.128, 127.592 85.500 C 125.957 83.005, 123 82.067, 123 84.043 M 157.287 115.318 C 163.599 121.082, 171.950 122.483, 187.750 120.430 C 191.710 119.915, 192 119.667, 192 116.799 L 192 113.720 186.342 114.304 C 182.263 114.725, 179.855 114.459, 177.712 113.351 C 174.998 111.948, 174.396 111.969, 170.792 113.594 C 167.312 115.163, 166.293 115.220, 162.173 114.076 C 153.333 111.620, 153.258 111.640, 157.287 115.318" stroke="none" fill="black" fill-rule="evenodd"/>
</svg>