<svg xmlns="http://www.w3.org/2000/svg" width="192" height="144" viewBox="0 0 192 144" version="1.1">
	<path d="M 14.051 4.750 C 14.079 7.362, 14.478 14.382, 14.938 20.349 L 15.774 31.199 12.887 33.958 C 10.755 35.995, 10 37.653, 10 40.299 C 10 44.385, 11.852 46.282, 12.695 43.060 C 13.382 40.430, 14.759 40.796, 17.378 44.305 C 19.267 46.834, 19.289 47.171, 17.773 50.350 C 16.621 52.766, 15.297 53.891, 13.084 54.333 C 10.033 54.943, 8.718 57, 11.378 57 C 12.135 57, 13.339 57.704, 14.053 58.564 C 14.833 59.503, 16.212 59.913, 17.505 59.588 C 19.100 59.188, 20.241 59.835, 21.903 62.083 C 23.598 64.376, 24.803 65.043, 26.824 64.809 C 29.386 64.513, 29.488 64.277, 29.223 59.277 C 28.958 54.282, 29.099 53.955, 32.459 51.777 C 36.265 49.311, 36.617 47.311, 33.157 47.813 C 30.534 48.193, 30.513 47.901, 32.841 43.210 C 33.854 41.170, 34.773 37.389, 34.884 34.808 C 35.055 30.839, 34.733 29.921, 32.793 28.848 C 31.532 28.151, 29.938 27.695, 29.250 27.834 C 27.309 28.228, 27.773 25.137, 30.178 21.654 C 31.375 19.919, 34.525 16.164, 37.178 13.310 C 42.616 7.457, 43.584 3.398, 39.750 2.527 C 30.546 0.437, 27.656 0.046, 21.250 0.024 L 14 0 14.051 4.750 M 96 72 L 96 144 128.972 144 L 161.944 144 163.397 138.750 C 165.189 132.277, 166.457 119.989, 165.330 120.032 C 164.873 120.049, 163.626 120.724, 162.559 121.532 C 159.114 124.137, 158 123.366, 158 118.378 C 158 114.357, 157.802 113.919, 156.481 115.016 C 154.037 117.044, 151.221 113.863, 151.819 109.752 C 152.415 105.658, 154.449 102.511, 159.389 98.037 C 161.529 96.100, 164.088 92.628, 165.076 90.322 C 166.065 88.016, 168.044 85.362, 169.474 84.425 C 171.983 82.781, 172.164 82.805, 174.629 85.111 C 179.308 89.487, 179.526 90.862, 176.102 94.395 C 173.047 97.547, 173.037 97.593, 174.964 99.538 C 176.033 100.617, 177.491 103.231, 178.204 105.347 C 179.499 109.191, 181.778 110.337, 181.187 106.847 C 180.717 104.072, 182.907 104.626, 184.025 107.565 C 186.301 113.552, 184.426 118.424, 178.588 121.691 C 176.820 122.680, 176.853 123.050, 179.372 130.615 C 180.817 134.955, 182 139.743, 182 141.253 C 182 143.883, 182.214 144, 187 144 L 192 144 192 72 L 192 0 144 0 L 96 0 96 72" stroke="none" fill="black" fill-rule="evenodd"/>
</svg>