<svg xmlns="http://www.w3.org/2000/svg" width="192" height="144" viewBox="0 0 192 144" version="1.1">
	<path d="M 53.500 20.881 C 49.054 23.658, 44.307 29.007, 42.551 33.218 C 37.260 45.903, 46.366 59, 60.477 59 L 66.279 59 62.890 61.259 C 61.025 62.502, 58.263 64.067, 56.750 64.738 C 54.938 65.541, 53.988 66.732, 53.965 68.229 C 53.945 69.478, 53.286 71.625, 52.500 73 C 50.428 76.624, 50.660 77.234, 53.841 76.535 C 57.791 75.667, 59.503 77.802, 57.819 81.498 C 56.773 83.793, 56.827 84.400, 58.165 85.379 C 59.322 86.225, 59.935 89.103, 60.431 96.019 C 60.805 101.234, 61.612 106.513, 62.224 107.750 C 63.068 109.455, 63.022 110.591, 62.033 112.439 C 61.125 114.134, 60.934 116.699, 61.404 120.855 C 61.871 124.980, 61.719 127.055, 60.916 127.552 C 60.109 128.051, 59.955 130.256, 60.414 134.737 C 60.859 139.083, 60.696 141.662, 59.916 142.601 C 58.964 143.749, 59.316 144, 61.878 144 C 64.840 144, 66.013 142.744, 64.134 141.583 C 63.103 140.945, 63.861 136.204, 65.119 135.426 C 66.369 134.654, 66.212 129.312, 64.877 127.175 C 64.011 125.789, 64.126 124.657, 65.377 122.238 C 67.202 118.708, 67.507 114.431, 66 113.500 C 64.588 112.627, 64.756 108.437, 66.250 107.258 C 66.938 106.715, 70.049 106.021, 73.165 105.717 L 78.830 105.162 77.456 108.450 C 75.433 113.294, 74.650 123.500, 75.466 134.392 L 76.187 144 91.629 144 C 106.586 144, 107.038 143.939, 106.035 142.066 C 105.466 141.002, 105 137.490, 105 134.262 C 105 129.332, 105.518 127.599, 108.232 123.446 L 111.464 118.500 111.821 121.485 L 112.178 124.470 113.457 122.081 C 114.636 119.877, 114.863 120.384, 116.370 128.596 C 118.319 139.218, 118.380 141.220, 116.800 142.800 C 115.867 143.733, 118.414 144, 128.265 144 C 139.763 144, 141.025 143.822, 141.965 142.066 C 144.604 137.134, 142.626 130.448, 136.094 122.216 L 131.900 116.933 133.046 108.716 C 134.358 99.308, 136.539 90.042, 138.610 85.084 C 139.925 81.936, 140.140 81.809, 141.352 83.466 C 142.597 85.170, 142.804 85.175, 145.271 83.558 C 148.752 81.277, 152.542 76.181, 155.529 69.766 C 158.575 63.224, 158.623 60.662, 155.750 57.966 C 153.459 55.816, 149.895 55.696, 142.750 57.528 C 141.120 57.946, 140 57.828, 140 57.238 C 140 55.522, 154.665 45.065, 155.666 46.066 C 157.131 47.531, 161.132 47.315, 165.997 45.509 C 168.470 44.591, 170.637 43.696, 170.813 43.520 C 170.989 43.345, 170.090 42.227, 168.816 41.036 C 166.638 38.999, 166.608 38.809, 168.305 37.854 C 169.689 37.076, 169.848 36.522, 168.986 35.483 C 167.494 33.686, 168.731 31.493, 173.968 26.649 C 176.258 24.531, 177.920 22.587, 177.663 22.329 C 176.932 21.599, 169.944 25.428, 159.266 32.410 C 153.895 35.922, 146.431 40.304, 142.679 42.147 C 136.395 45.235, 135.782 45.361, 134.880 43.749 C 133.575 41.417, 132.190 41.544, 130.045 44.192 C 128.347 46.289, 128.031 46.327, 122.754 45.061 C 116.388 43.534, 109.495 44.269, 106.455 46.798 C 103.412 49.331, 100.975 56.078, 102.338 58.202 C 103.725 60.365, 102.745 61.371, 100.075 60.524 C 98.369 59.982, 98 59.043, 98 55.244 C 98 47.928, 92.027 41, 85.718 41 C 82.629 41, 81.725 39.784, 80.144 33.500 C 78.758 27.990, 74.643 23.008, 69.440 20.539 C 64.942 18.404, 57.199 18.571, 53.500 20.881 M 97.079 62.583 C 97.127 63.748, 97.364 63.985, 97.683 63.188 C 97.972 62.466, 97.936 61.603, 97.604 61.271 C 97.272 60.939, 97.036 61.529, 97.079 62.583 M 70.160 72.434 C 69.139 75.259, 69.175 76.483, 70.364 79.329 C 71.234 81.411, 71.447 83.153, 70.899 83.701 C 70.014 84.586, 71.153 93.487, 72.298 94.631 C 73.063 95.397, 93.232 91.168, 94.404 89.996 C 94.939 89.461, 96.386 86.656, 97.621 83.762 L 99.866 78.500 97.391 76.170 C 95.782 74.656, 95.120 73.197, 95.500 72.001 C 96.332 69.379, 92.817 68.526, 89.100 70.448 C 85.302 72.412, 78.356 72.434, 74.636 70.494 C 73.060 69.672, 71.688 69, 71.587 69 C 71.485 69, 70.843 70.545, 70.160 72.434 M 63 105 C 63 105.550, 63.450 106, 64 106 C 64.550 106, 65 105.550, 65 105 C 65 104.450, 64.550 104, 64 104 C 63.450 104, 63 104.450, 63 105 M 62 117.500 C 62 119.056, 62.567 120, 63.500 120 C 64.433 120, 65 119.056, 65 117.500 C 65 115.944, 64.433 115, 63.500 115 C 62.567 115, 62 115.944, 62 117.500 M 62.250 129.662 C 61.563 129.940, 61 131.062, 61 132.157 C 61 134.952, 64.407 134.134, 64.820 131.240 C 65.138 129.011, 64.633 128.701, 62.250 129.662 M 113 143 C 113 143.550, 113.450 144, 114 144 C 114.550 144, 115 143.550, 115 143 C 115 142.450, 114.550 142, 114 142 C 113.450 142, 113 142.450, 113 143" stroke="none" fill="black" fill-rule="evenodd"/>
</svg>