<svg xmlns="http://www.w3.org/2000/svg" width="192" height="144" viewBox="0 0 192 144" version="1.1">
	<path d="M 0 72 L 0 144 25.750 143.971 L 51.500 143.943 55.890 136.567 C 58.305 132.511, 60.385 127.857, 60.514 126.225 C 60.642 124.593, 62.783 119.038, 65.272 113.879 C 72.250 99.412, 73.113 95.909, 72.785 83.386 L 72.500 72.500 69.666 72.801 C 67.171 73.066, 66.914 72.845, 67.516 70.949 C 67.892 69.765, 68.996 66.010, 69.970 62.605 L 71.741 56.413 69.312 53.456 C 65.487 48.801, 60 37.351, 60 34.025 C 60 30.083, 61.999 30.073, 69.090 33.982 C 72.066 35.622, 75.226 36.972, 76.112 36.982 C 76.999 36.992, 79.416 35.656, 81.483 34.014 C 88.030 28.811, 95.561 27.789, 104.500 30.889 C 111.882 33.450, 113.320 36.691, 112.535 49 C 112 57.394, 111.643 58.767, 109.465 60.790 C 105.555 64.424, 106.875 72, 111.418 72 C 113.431 72, 119.645 78.542, 124.057 85.307 C 127.874 91.159, 128.085 91.877, 127.885 98.343 C 127.676 105.108, 127.710 105.203, 130.822 106.711 L 133.970 108.235 133.331 126.133 L 132.692 144.030 162.596 143.765 L 192.500 143.500 192.757 71.750 L 193.013 0 145.507 0 C 103.945 0, 98 0.188, 98 1.500 C 98 2.333, 97.111 3, 96 3 C 94.889 3, 94 2.333, 94 1.500 C 94 0.188, 88.111 0, 47 0 L 0 0 0 72 M 0.474 72.500 C 0.474 112.100, 0.598 128.154, 0.750 108.176 C 0.901 88.198, 0.901 55.798, 0.750 36.176 C 0.598 16.554, 0.474 32.900, 0.474 72.500 M 91.500 138 C 91.120 139.729, 91.018 141.351, 91.273 141.606 C 91.528 141.861, 92.024 140.632, 92.375 138.875 C 93.209 134.707, 92.401 133.899, 91.500 138" stroke="none" fill="black" fill-rule="evenodd"/>
</svg>