<svg xmlns="http://www.w3.org/2000/svg" width="192" height="144" viewBox="0 0 192 144" version="1.1">
	<path d="M 0 72 L 0 144 15.560 144 L 31.121 144 30.810 140.250 C 30.510 136.623, 30.364 136.490, 26.330 136.196 C 23.246 135.972, 21.754 135.274, 20.603 133.516 C 19.278 131.495, 18.364 131.185, 14.490 131.444 L 9.934 131.749 10.177 127.626 C 10.415 123.593, 13.908 114.982, 16.516 112 C 17.237 111.175, 20.729 104.840, 24.274 97.922 C 30.559 85.661, 32.801 78.250, 31.360 74.497 C 30.677 72.717, 30.621 72.720, 29.895 74.573 C 29.345 75.977, 29.108 75.414, 29.022 72.500 C 28.909 68.712, 28.755 68.930, 26.133 76.591 C 24.351 81.798, 23.517 85.990, 23.793 88.352 C 24.142 91.341, 23.937 91.913, 22.687 91.434 C 20.852 90.729, 19 93.743, 19 97.434 C 19 100.599, 17.449 100.806, 16.630 97.750 C 15.667 94.154, 15.906 91.704, 17.524 88.601 C 19.033 85.707, 18.632 83.359, 17.062 85.899 C 16.396 86.978, 16.051 86.914, 15.300 85.571 C 14.483 84.112, 14.219 84.223, 13.204 86.451 C 12.541 87.907, 11.212 89, 10.105 89 C 9.039 89, 8.017 89.436, 7.833 89.968 C 7.624 90.577, 6.944 90.588, 6 89.998 C 4.801 89.248, 4.555 87.114, 4.775 79.375 C 5.063 69.261, 5.774 67.067, 12.476 55.630 C 15.241 50.913, 15.624 47.296, 14.471 36.802 L 13.734 30.103 10.867 30.677 C 8.307 31.189, 8 30.975, 8 28.684 C 8 27.273, 8.450 25.840, 9 25.500 C 9.550 25.160, 10 24.222, 10 23.416 C 10 22.123, 8.951 21.519, 3.107 19.447 C 0.074 18.372, 2.798 18.199, 7.380 19.177 C 10.975 19.943, 12.820 19.899, 14.486 19.007 C 17.600 17.341, 20.513 18.110, 20.442 20.581 C 20.389 22.424, 20.882 22.564, 26.107 22.186 C 31.664 21.784, 31.877 21.862, 33.436 24.875 C 34.318 26.582, 35.022 28.213, 35 28.500 C 34.978 28.787, 35.652 30.359, 36.498 31.995 C 37.744 34.406, 37.802 35.344, 36.804 36.943 C 35.756 38.621, 35.926 39.292, 37.944 41.440 C 39.249 42.829, 41.145 44.229, 42.158 44.550 C 43.171 44.872, 44 45.551, 44 46.059 C 44 46.876, 46.626 49.579, 51.594 53.876 C 52.669 54.805, 52.983 56.103, 52.561 57.876 C 50.274 67.492, 51.034 72.517, 58.552 97.500 C 64.577 117.524, 64.976 119.274, 64.988 125.750 C 64.997 130.570, 64.666 132, 63.539 132 C 62.735 132, 61.134 133.012, 59.981 134.250 C 58.327 136.025, 56.789 136.500, 52.692 136.500 L 47.500 136.500 47.190 140.250 L 46.879 144 81.406 144 L 115.932 144 113.019 139.684 C 111.417 137.310, 107.238 132.169, 103.733 128.260 C 100.228 124.351, 95.946 118.531, 94.219 115.326 C 92.491 112.122, 88.585 107.097, 85.539 104.161 C 82.492 101.224, 80 98.384, 80 97.849 C 80 97.314, 79.254 94.595, 78.342 91.808 C 76.898 87.393, 76.847 85.824, 77.940 79.620 C 78.631 75.704, 79.494 69.751, 79.859 66.391 C 80.614 59.429, 81.540 57.946, 86.296 56.080 C 90.377 54.479, 91.998 50.742, 92.004 42.929 C 92.006 39.269, 92.658 36.433, 94.004 34.226 C 95.102 32.425, 96 29.903, 96 28.622 C 96 27.340, 97.125 25.078, 98.500 23.595 C 99.875 22.111, 101 19.795, 101 18.448 C 101 17.102, 101.378 16, 101.839 16 C 103.458 16, 105 10.855, 105 5.453 L 105 0 52.500 0 L 0 0 0 72 M 46.675 1.742 C 46.093 2.715, 43.685 14.182, 43.786 15.500 C 43.940 17.532, 47.843 31.456, 47.920 30.250 C 47.971 29.453, 49.585 29, 52.378 29 C 55.231 29, 57.233 28.424, 58.128 27.346 C 60.103 24.964, 59.311 15.211, 56.893 12.137 C 55.852 10.813, 55 9.168, 55 8.480 C 55 7.793, 53.938 6.534, 52.640 5.684 C 51.342 4.834, 49.571 3.428, 48.704 2.561 C 47.837 1.694, 46.924 1.326, 46.675 1.742 M 38.412 138.765 C 37.814 139.169, 37.069 140.512, 36.756 141.750 C 36.264 143.698, 36.578 144, 39.094 144 C 42.030 144, 42.639 142.830, 41.393 139.582 C 40.725 137.841, 40.053 137.657, 38.412 138.765" stroke="none" fill="black" fill-rule="evenodd"/>
</svg>