<svg xmlns="http://www.w3.org/2000/svg" width="192" height="144" viewBox="0 0 192 144" version="1.1">
	<path d="M 79.661 4.250 C 79.349 6.588, 78.777 15.700, 78.389 24.500 C 77.837 36.988, 77.481 39.746, 76.765 37.065 C 76.069 34.460, 75.628 33.976, 74.939 35.065 C 74.439 35.854, 74.024 37.737, 74.015 39.250 C 74.005 41.021, 73.466 42, 72.500 42 C 71.675 42, 71 42.675, 71 43.500 C 71 46.139, 69.233 45.108, 68.078 41.795 C 67.464 40.032, 66.245 37.497, 65.371 36.163 C 63.137 32.754, 61.890 35.090, 62.523 41.500 C 63 46.341, 62.976 46.399, 61.758 43.322 C 59.553 37.752, 58.707 38.238, 59.270 44.750 C 59.567 48.188, 59.667 51, 59.493 51 C 59.318 51, 57.932 47.748, 56.413 43.773 C 53.649 36.538, 51.995 35.702, 53.869 42.486 C 54.804 45.873, 54.738 46.052, 52.796 45.435 C 50.669 44.760, 50.640 45.564, 52.559 52.074 C 53.168 54.140, 46.526 57.120, 33.865 60.459 C 26.086 62.510, 21.896 63, 12.115 63 L 0 63 0 103.500 L 0 144 37.341 144 L 74.682 144 75.913 138.496 C 77.186 132.808, 79.639 130.264, 82.713 131.443 C 84.020 131.945, 84.178 131.363, 83.701 127.805 C 83.388 125.476, 82.428 123.055, 81.566 122.425 C 79.345 120.801, 79.610 118.726, 82.691 113.626 C 84.684 110.326, 86.135 109.060, 88.284 108.745 C 91.972 108.204, 92.796 110.108, 90.739 114.421 C 89.417 117.193, 89.364 118.849, 90.369 125.883 L 91.544 134.105 98.022 136.377 C 105.649 139.052, 109 140.998, 109 142.752 C 109 143.763, 117.522 143.969, 150.750 143.761 L 192.500 143.500 192.762 103 L 193.024 62.500 171.543 62.788 L 150.063 63.075 144.071 59.957 C 140.775 58.242, 135.569 56.498, 132.501 56.081 C 129.434 55.665, 126.438 54.838, 125.844 54.244 C 125.069 53.469, 125.647 50.848, 127.881 44.996 C 129.597 40.504, 131 36.558, 131 36.227 C 131 35.896, 128.931 38.409, 126.402 41.812 C 121.485 48.428, 119 49.647, 119 45.441 C 119 43.990, 118.567 43.149, 118 43.500 C 117.450 43.840, 117 43.641, 117 43.059 C 117 40.701, 114.805 42.222, 113.419 45.540 C 111.068 51.165, 109.949 48.747, 110.480 39.190 C 110.863 32.301, 110.733 31.018, 109.857 33 C 109.249 34.375, 107.172 36.532, 105.242 37.793 L 101.733 40.085 102.438 32.936 C 103 27.227, 102.876 25.873, 101.821 26.217 C 101.094 26.454, 99.845 27.964, 99.044 29.574 L 97.587 32.500 96.851 28.500 C 96.446 26.300, 96.084 20.675, 96.047 16 C 96.009 11.325, 95.699 5.813, 95.358 3.750 L 94.738 0 87.483 0 L 80.227 0 79.661 4.250 M 0.457 103.500 C 0.456 126.050, 0.588 135.418, 0.749 124.317 C 0.909 113.216, 0.910 94.766, 0.749 83.317 C 0.589 71.868, 0.457 80.950, 0.457 103.500 M 91 88.059 C 91 88.641, 91.450 88.840, 92 88.500 C 92.550 88.160, 93 87.684, 93 87.441 C 93 87.198, 92.550 87, 92 87 C 91.450 87, 91 87.477, 91 88.059 M 95.070 93.750 C 95.133 96.187, 95.238 96.272, 96 94.500 C 97.174 91.769, 97.174 91, 96 91 C 95.450 91, 95.032 92.237, 95.070 93.750" stroke="none" fill="black" fill-rule="evenodd"/>
</svg>