<svg xmlns="http://www.w3.org/2000/svg" width="192" height="144" viewBox="0 0 192 144" version="1.1">
	<path d="M 66.990 14.019 C 66.264 15.376, 65.937 19.086, 66.159 23.471 C 66.476 29.755, 67.019 31.491, 70.355 36.895 C 74.366 43.394, 74.334 43.162, 72.817 54.966 C 72.584 56.781, 73.159 57.753, 75 58.649 C 79.487 60.834, 95.415 65.323, 99 65.412 C 102.147 65.491, 102.534 65.206, 102.832 62.590 C 103.237 59.034, 105.869 54.801, 107.172 55.607 C 107.697 55.931, 108.885 55.537, 109.813 54.731 C 110.841 53.839, 114.704 53.033, 119.698 52.669 C 129.463 51.956, 133.661 50.379, 137.297 46.059 C 140.635 42.092, 140.841 37.339, 137.841 33.525 C 135.989 31.170, 135.144 30.851, 131.908 31.286 C 129.326 31.632, 127.974 31.376, 127.628 30.474 C 126.260 26.907, 103.361 17.355, 89.500 14.569 C 87.850 14.238, 85.375 13.698, 84 13.370 C 82.625 13.042, 78.504 12.551, 74.843 12.279 C 68.719 11.824, 68.090 11.964, 66.990 14.019 M 129.419 37.351 C 129.134 38.094, 129.035 39.331, 129.200 40.101 C 129.398 41.023, 128.733 41.419, 127.252 41.262 C 125.747 41.103, 123.874 42.258, 121.582 44.759 C 119.700 46.813, 118.240 48.573, 118.337 48.670 C 118.957 49.290, 132.191 46.086, 133.501 44.999 C 138.076 41.202, 137.729 36, 132.901 36 C 131.271 36, 129.704 36.608, 129.419 37.351" stroke="none" fill="black" fill-rule="evenodd"/>
</svg>