<svg xmlns="http://www.w3.org/2000/svg" width="192" height="144" viewBox="0 0 192 144" version="1.1">
	<path d="M 114.242 10.034 C 110.850 11.397, 109.610 14.926, 110.891 19.566 C 111.757 22.703, 111.688 23.595, 110.528 24.244 C 106.382 26.565, 100.369 31.917, 98.702 34.770 C 96.472 38.589, 93.952 49.852, 95.161 50.600 C 95.622 50.885, 96 51.954, 96 52.975 C 96 53.996, 97.800 56.258, 100 58 C 102.200 59.742, 104 60.815, 104 60.384 C 104 59.953, 104.492 60.092, 105.093 60.693 C 105.883 61.483, 105.848 62.416, 104.966 64.063 C 103.951 65.960, 104.020 66.541, 105.373 67.531 C 106.268 68.185, 107 69.155, 107 69.686 C 107 70.217, 108.074 71.660, 109.386 72.893 C 111.437 74.819, 111.868 76.426, 112.454 84.317 C 113.311 95.865, 112.504 98.373, 107.905 98.446 C 104.772 98.496, 104.460 98.786, 104 102.079 C 103.725 104.048, 102.276 107.104, 100.780 108.870 C 98.210 111.905, 97.906 112.007, 95.280 110.726 C 93.751 109.979, 88.900 108.305, 84.500 107.005 C 80.100 105.706, 75.938 103.962, 75.250 103.130 C 74.563 102.298, 74 99.883, 74 97.763 C 74 92.297, 70.191 88.545, 65.427 89.318 C 63.542 89.624, 62 89.453, 62 88.937 C 62 88.422, 61.100 88.900, 60 90 C 58.900 91.100, 57.395 92, 56.655 92 C 53.775 92, 51.617 95.944, 51.695 101.069 C 51.822 109.520, 57.878 116, 65.649 116 C 66.942 116, 68 116.414, 68 116.921 C 68 119.354, 63.698 135.539, 61.996 139.510 L 60.071 144 83.036 144 C 95.666 144, 106.020 143.662, 106.044 143.250 C 106.068 142.838, 106.751 140.250, 107.561 137.500 L 109.034 132.500 108.589 138.250 L 108.145 144 134.548 144 L 160.950 144 159.917 141.283 C 159.349 139.788, 158.461 138.055, 157.943 137.432 C 157.426 136.808, 156.722 134.254, 156.380 131.755 C 155.769 127.298, 155.816 127.199, 158.887 126.525 C 161.873 125.869, 164.837 122.504, 163.556 121.223 C 163.223 120.889, 161.341 121.198, 159.376 121.909 C 157.410 122.620, 155.461 122.819, 155.044 122.351 C 153.663 120.799, 150.915 104.528, 151.974 104.175 C 152.571 103.976, 152.376 102.694, 151.485 100.971 C 149.800 97.713, 149.492 90.432, 151 89.500 C 151.550 89.160, 152.032 89.696, 152.070 90.691 C 152.133 92.297, 152.230 92.276, 152.943 90.500 C 153.664 88.703, 153.902 88.855, 155.291 92 C 156.670 95.123, 156.846 95.237, 156.918 93.059 C 156.998 90.685, 157.043 90.672, 158.540 92.559 C 159.935 94.318, 160.039 92.535, 159.648 73.500 C 159.207 51.979, 158.451 46.968, 153.994 36 C 152.989 33.525, 151.872 30.172, 151.513 28.549 C 151.155 26.926, 148.884 23.621, 146.467 21.204 C 142.386 17.122, 141.734 16.827, 137.287 17.034 C 130.526 17.350, 130.722 17.417, 125.377 13 C 120.483 8.956, 118.343 8.386, 114.242 10.034 M 120.695 76.639 C 120.313 77.021, 120 78.480, 120 79.881 C 120 82.222, 120.130 82.298, 121.609 80.820 C 122.724 79.705, 122.937 78.710, 122.303 77.578 C 121.801 76.679, 121.077 76.257, 120.695 76.639" stroke="none" fill="black" fill-rule="evenodd"/>
</svg>