<svg xmlns="http://www.w3.org/2000/svg" width="192" height="144" viewBox="0 0 192 144" version="1.1">
	<path d="M 0 72 L 0 144 35.265 144 L 70.531 144 72.880 134.750 C 74.172 129.662, 76.356 122.800, 77.734 119.500 C 79.510 115.244, 80.276 111.473, 80.369 106.527 L 80.500 99.554 77.293 99.293 C 75.530 99.149, 70.170 97.674, 65.383 96.016 C 60.596 94.357, 55.936 93, 55.027 93 C 54.118 93, 52.138 91.709, 50.627 90.132 C 48.567 87.983, 46.610 87.114, 42.812 86.664 C 35.024 85.742, 27.003 80.738, 32.769 80.398 C 39.226 80.018, 38.925 80.230, 37.945 76.750 C 37.442 74.963, 36.482 72.458, 35.811 71.185 C 34.853 69.365, 34.853 68.709, 35.811 68.117 C 36.521 67.678, 36.960 65.504, 36.862 62.914 C 36.769 60.466, 37.321 57.460, 38.087 56.232 C 39.563 53.870, 41 53.291, 41 55.059 C 41 55.641, 41.450 55.840, 42 55.500 C 42.550 55.160, 43 54.087, 43 53.115 C 43 52.144, 44.125 50.292, 45.500 49 L 48 46.651 48 49.326 C 48 50.797, 48.450 52, 49 52 C 49.550 52, 50 51.325, 50 50.500 C 50 49.675, 50.395 49, 50.878 49 C 54.175 49, 56.032 58.495, 53.492 62.371 C 52.060 64.557, 52.016 65, 53.230 65 C 54.345 65, 54.648 66.217, 54.510 70.136 C 54.286 76.502, 52.818 77.547, 42 79.043 C 39.551 79.381, 49.187 81.110, 53.118 81.038 C 55.247 80.999, 59.238 82.212, 62.812 83.986 C 66.154 85.643, 69.117 87, 69.397 87 C 70.134 87, 71.984 79.936, 72.017 77 C 72.032 75.625, 72.881 73.411, 73.904 72.081 C 75.279 70.292, 75.626 68.628, 75.233 65.704 C 74.843 62.794, 75.105 61.521, 76.220 60.896 C 77.313 60.285, 77.940 57.469, 78.459 50.839 C 79.209 41.247, 81.858 30.896, 84.436 27.486 C 86.371 24.925, 86.398 23.633, 84.500 24.362 C 81.873 25.370, 80 23.912, 80 20.860 C 80 17.299, 84.555 7.983, 86.267 8.044 C 89.146 8.146, 95.138 10.941, 98.948 13.959 C 102.583 16.837, 103.527 17.134, 107.274 16.571 C 119.607 14.719, 120 14.717, 120 16.505 C 120 17.443, 119.312 20.868, 118.470 24.115 C 117.371 28.355, 117.230 30.562, 117.970 31.944 C 118.537 33.003, 119 34.918, 119 36.200 C 119 38.846, 115.717 45.482, 114.381 45.535 C 113.897 45.555, 112.468 46.144, 111.207 46.844 C 109.272 47.918, 108.951 48.827, 109.149 52.663 C 109.286 55.297, 109.935 57.421, 110.692 57.712 C 111.412 57.988, 112 58.786, 112 59.485 C 112 60.183, 112.753 61.373, 113.673 62.128 C 114.592 62.882, 117.087 66.188, 119.217 69.473 C 122.792 74.989, 123.041 75.831, 122.467 80.473 C 122.125 83.238, 122.300 86.689, 122.857 88.142 C 123.785 90.566, 124.473 90.839, 131.184 91.452 C 135.208 91.819, 139.737 92.597, 141.250 93.181 C 143.246 93.952, 144.783 93.918, 146.859 93.058 C 148.431 92.407, 151.244 91.837, 153.109 91.792 C 154.974 91.746, 156.819 91.216, 157.208 90.613 C 158.463 88.671, 160.315 91.607, 159.610 94.419 C 158.841 97.483, 150.490 102.130, 146.252 101.851 C 144.738 101.752, 142.150 101.975, 140.500 102.348 C 138.846 102.721, 134.360 102.354, 130.500 101.530 C 126.650 100.707, 121.782 100.027, 119.683 100.017 C 116.204 100.002, 115.920 100.200, 116.484 102.250 C 117.034 104.247, 116.957 104.313, 115.802 102.837 C 115.086 101.922, 113.984 100.347, 113.354 99.337 C 112.490 97.953, 111.913 97.780, 111.016 98.637 C 110.174 99.441, 110.144 99.971, 110.913 100.446 C 111.511 100.816, 112 103.346, 112 106.068 C 112 109.578, 113.136 113.707, 115.903 120.259 C 118.050 125.342, 120.841 132.768, 122.104 136.763 L 124.402 144.026 158.451 143.763 L 192.500 143.500 192.757 71.750 L 193.013 0 96.507 0 L 0 0 0 72 M 0.474 72.500 C 0.474 112.100, 0.598 128.154, 0.750 108.176 C 0.901 88.198, 0.901 55.798, 0.750 36.176 C 0.598 16.554, 0.474 32.900, 0.474 72.500 M 111 92.500 C 111 93.325, 111.436 94, 111.969 94 C 112.501 94, 112.678 93.325, 112.362 92.500 C 112.045 91.675, 111.609 91, 111.393 91 C 111.177 91, 111 91.675, 111 92.500" stroke="none" fill="black" fill-rule="evenodd"/>
</svg>