<svg xmlns="http://www.w3.org/2000/svg" width="192" height="144" viewBox="0 0 192 144" version="1.1">
	<path d="M 0 72 L 0 144 39.402 144 L 78.804 144 79.452 137.750 C 79.808 134.313, 80.802 125.425, 81.661 118 C 82.519 110.575, 83.015 101.245, 82.762 97.266 C 82.366 91.028, 82.490 90.270, 83.665 91.766 C 84.873 93.304, 84.997 93.073, 84.764 89.729 C 84.619 87.655, 84.083 85.992, 83.572 86.034 C 83.062 86.075, 81.782 83.298, 80.727 79.861 C 79.024 74.313, 78.949 72.935, 80.058 67.557 C 80.745 64.226, 82.473 59.250, 83.898 56.500 C 85.323 53.750, 86.606 51.266, 86.751 50.981 C 86.895 50.695, 85.488 49.641, 83.625 48.637 C 81.137 47.297, 80.369 46.306, 80.735 44.906 C 81.142 43.348, 80.692 43, 78.272 43 C 72.389 43, 70.387 37.072, 73.577 29.099 C 74.848 25.923, 74.920 24.720, 73.951 22.908 C 72.950 21.038, 73.029 20.452, 74.420 19.435 C 75.340 18.762, 77.022 18.455, 78.158 18.752 C 80.016 19.238, 80.154 18.977, 79.532 16.147 C 78.981 13.636, 79.134 13.114, 80.289 13.558 C 81.202 13.908, 81.943 13.325, 82.295 11.982 C 82.999 9.287, 84.999 10.226, 91.400 16.258 C 93.876 18.591, 97.291 21.561, 98.988 22.857 C 103.107 26.002, 106.604 33.176, 109.060 43.517 C 110.171 48.194, 111.999 54.153, 113.123 56.760 C 114.247 59.367, 116.005 64.833, 117.028 68.906 C 118.731 75.681, 118.758 76.568, 117.339 79.311 C 116.362 81.201, 115.997 83.593, 116.352 85.780 C 116.755 88.267, 116.166 90.984, 114.270 95.375 C 111.710 101.303, 111.632 102.061, 111.832 119 C 111.945 128.625, 112.295 138.193, 112.609 140.261 L 113.180 144.023 152.840 143.761 L 192.500 143.500 192.757 71.750 L 193.013 0 96.507 0 L 0 0 0 72 M 0.474 72.500 C 0.474 112.100, 0.598 128.154, 0.750 108.176 C 0.901 88.198, 0.901 55.798, 0.750 36.176 C 0.598 16.554, 0.474 32.900, 0.474 72.500" stroke="none" fill="black" fill-rule="evenodd"/>
</svg>