<svg xmlns="http://www.w3.org/2000/svg" width="192" height="144" viewBox="0 0 192 144" version="1.1">
	<path d="M 186.750 9.673 C 184.137 12.684, 182 15.784, 182 16.563 C 182 17.341, 182.900 20.346, 183.999 23.239 C 185.099 26.133, 185.999 29.108, 185.999 29.851 C 186 30.594, 184.002 33.294, 181.560 35.851 C 175.208 42.502, 171.451 47.994, 167.549 56.328 C 162.738 66.604, 162.565 67.823, 164.959 74.586 C 166.111 77.839, 167.703 82.834, 168.498 85.688 C 169.368 88.815, 171.244 92.217, 173.221 94.254 C 175.024 96.113, 176.993 98.493, 177.594 99.543 C 178.652 101.389, 178.750 101.393, 180.505 99.638 C 182.117 98.025, 182.418 97.996, 183.192 99.379 C 184.135 101.063, 190.769 104.565, 191.545 103.788 C 191.806 103.528, 191.902 81.013, 191.759 53.757 L 191.500 4.199 186.750 9.673 M 62.207 26.750 C 62.847 28.262, 64.782 31.075, 66.507 33 C 68.232 34.925, 70.346 37.625, 71.205 39 C 72.064 40.375, 78.953 47.933, 86.516 55.794 L 100.265 70.089 97.958 72.544 C 96.583 74.008, 94.530 75, 92.875 75 C 91.349 75, 89.740 75.625, 89.300 76.389 C 88.860 77.152, 87.628 77.940, 86.563 78.140 C 83.694 78.678, 82.359 84.634, 84.562 87.068 C 85.748 88.379, 86.031 89.734, 85.531 91.710 C 83.191 100.963, 84.661 116.022, 89.173 129 C 90.799 133.675, 92.625 138.963, 93.232 140.750 L 94.336 144 108.175 144 L 122.015 144 116.008 132.015 C 112.703 125.424, 110 119.339, 110 118.494 C 110 117.649, 111.096 115.279, 112.435 113.229 C 113.774 111.178, 115.662 107.490, 116.630 105.033 C 118.499 100.291, 121.699 96, 123.366 96 C 123.919 96, 125.477 97.012, 126.830 98.250 L 129.288 100.500 128.466 97 C 128.014 95.075, 127.612 90.575, 127.572 87 C 127.507 81.151, 127.300 80.511, 125.500 80.615 C 124.400 80.678, 122.765 81.044, 121.866 81.427 C 120.454 82.030, 120.301 81.512, 120.740 77.611 C 121.420 71.579, 119.241 64.643, 115.172 59.889 C 109.302 53.029, 107.472 55.672, 110.421 66.750 C 111.190 69.638, 111.469 72, 111.042 72 C 110.614 72, 106.273 66.938, 101.395 60.750 C 96.518 54.563, 90.271 47.081, 87.513 44.124 C 82.450 38.694, 63.839 24, 62.024 24 C 61.427 24, 61.498 25.076, 62.207 26.750 M 187.959 99.924 C 189.102 102.058, 191 102.752, 191 101.035 C 191 100.505, 190.066 99.570, 188.924 98.959 C 187.025 97.943, 186.943 98.025, 187.959 99.924 M 190.181 110.280 C 189.096 111.588, 189.092 112.285, 190.159 114.186 L 191.456 116.500 191.799 114.238 C 191.988 112.994, 191.998 111.237, 191.821 110.333 C 191.528 108.833, 191.384 108.828, 190.181 110.280 M 172.054 140.619 C 165.828 143.237, 167.608 144, 179.941 144 C 189.993 144, 192 143.750, 192 142.500 C 192 141.675, 191.662 140.968, 191.250 140.929 C 177.227 139.599, 174.583 139.556, 172.054 140.619" stroke="none" fill="black" fill-rule="evenodd"/>
</svg>