<svg xmlns="http://www.w3.org/2000/svg" width="192" height="144" viewBox="0 0 192 144" version="1.1">
	<path d="M 0 72 L 0 144 34.607 144 C 64.829 144, 69.142 143.812, 68.643 142.512 C 68.326 141.685, 69.165 139.846, 70.536 138.366 C 73.968 134.664, 73.949 129.311, 70.500 128 C 69.125 127.477, 68 126.379, 68 125.560 C 68 124.741, 67.100 123.589, 66 123 C 62.638 121.200, 63.420 115.546, 68.468 105.175 C 70.961 100.053, 72.669 95.300, 72.332 94.423 C 72 93.558, 72.802 90.559, 74.113 87.758 C 75.833 84.085, 76.155 82.552, 75.267 82.256 C 74.590 82.030, 73.536 79.992, 72.926 77.726 C 71.956 74.121, 72.044 73.441, 73.634 72.279 C 75.113 71.197, 75.234 70.604, 74.284 69.083 C 73.349 67.586, 73.597 65.857, 75.538 60.358 C 76.869 56.586, 77.978 52.375, 78.003 51 C 78.027 49.625, 79.152 45.813, 80.502 42.528 C 82.103 38.635, 82.616 36.216, 81.978 35.578 C 80.416 34.016, 80.838 33, 83.050 33 C 84.177 33, 86.358 32.349, 87.896 31.554 C 89.435 30.758, 91.617 30.348, 92.745 30.643 C 93.873 30.938, 95.810 30.637, 97.049 29.974 C 98.962 28.950, 99.214 28.999, 98.718 30.294 C 97.976 32.225, 99.890 38.945, 101.840 41.256 C 103.535 43.266, 103.557 43.235, 99.351 44.907 C 94.826 46.706, 94.194 50.681, 97.906 54 C 99.444 55.375, 101.496 58.675, 102.466 61.333 C 104.378 66.576, 104.556 65.603, 99.505 77.563 C 98.634 79.625, 98.525 81.186, 99.172 82.342 C 100.615 84.920, 106 100.116, 106 101.609 C 106 102.325, 107.382 105.804, 109.072 109.341 C 112.873 117.298, 112.846 122.335, 109 122.806 C 107.625 122.974, 105.037 123.571, 103.250 124.133 L 100 125.155 100 134.588 L 100 144.020 146.250 143.760 L 192.500 143.500 192.757 71.750 L 193.013 0 96.507 0 L 0 0 0 72 M 0.474 72.500 C 0.474 112.100, 0.598 128.154, 0.750 108.176 C 0.901 88.198, 0.901 55.798, 0.750 36.176 C 0.598 16.554, 0.474 32.900, 0.474 72.500 M 95.690 63.643 C 94.737 64.596, 94.817 72, 95.781 72 C 96.210 72, 97.108 70.552, 97.776 68.781 C 98.750 66.201, 98.733 65.304, 97.686 64.258 C 96.968 63.540, 96.070 63.263, 95.690 63.643 M 91.681 128.653 C 91.322 129.011, 89.559 129.247, 87.764 129.177 C 83.203 128.997, 79.296 130.771, 78.609 133.332 C 78.289 134.524, 78.021 137.412, 78.014 139.750 L 78 144 86 144 L 94 144 94 136 C 94 128.668, 93.440 126.894, 91.681 128.653" stroke="none" fill="black" fill-rule="evenodd"/>
</svg>