<svg xmlns="http://www.w3.org/2000/svg" width="192" height="144" viewBox="0 0 192 144" version="1.1">
	<path d="M 0 72 L 0 144 32.059 144 C 52.226 144, 63.899 143.645, 63.526 143.043 C 62.728 141.751, 67.802 139.236, 73.799 137.950 C 77.355 137.187, 79.297 136.090, 80.878 133.951 C 83.318 130.651, 88.773 128, 93.122 128 L 96 128 96 64 L 96 0 48 0 L 0 0 0 72 M 97.250 128.708 C 96.404 129.019, 96 131.559, 96 136.574 L 96 143.981 112.750 143.864 L 129.500 143.748 123.500 140.923 C 120.200 139.370, 116.817 138.076, 115.982 138.049 C 115.147 138.022, 112.285 136.200, 109.623 134 C 106.960 131.800, 103.796 130, 102.591 130 C 101.386 130, 99.973 129.606, 99.450 129.125 C 98.927 128.644, 97.938 128.456, 97.250 128.708 M 70.500 143 C 68.824 143.720, 69.026 143.871, 71.750 143.930 C 73.537 143.968, 75 143.550, 75 143 C 75 141.813, 73.263 141.813, 70.500 143" stroke="none" fill="black" fill-rule="evenodd"/>
</svg>