<svg xmlns="http://www.w3.org/2000/svg" width="192" height="144" viewBox="0 0 192 144" version="1.1">
	<path d="M 120.035 1.250 C 120.055 1.938, 120.714 3.625, 121.500 5 C 123.422 8.361, 123.348 9, 121.037 9 C 118.046 9, 109.283 12.709, 104.501 15.999 C 99.711 19.295, 94.537 26.476, 92.818 32.214 C 92.190 34.309, 91.074 36.524, 90.338 37.134 C 88.636 38.547, 88.596 40.092, 90.279 39.447 C 91.222 39.085, 91.456 40.011, 91.173 42.978 C 90.935 45.479, 91.208 47, 91.895 47 C 92.503 47, 93 47.628, 93 48.396 C 93 49.902, 99.444 56, 101.035 56 C 102.640 56, 102.123 58.574, 99.968 61.313 L 97.937 63.896 99.968 64.983 C 101.086 65.581, 102 66.964, 102 68.057 C 102 69.205, 103.055 70.523, 104.500 71.182 C 105.875 71.808, 107 72.913, 107 73.636 C 107 74.360, 107.898 76.425, 108.996 78.226 C 110.094 80.027, 110.994 82.737, 110.996 84.250 C 110.998 85.763, 111.367 87, 111.815 87 C 112.264 87, 113.105 90.263, 113.685 94.250 C 114.640 100.814, 114.562 101.687, 112.870 103.472 C 111.012 105.431, 110.988 105.428, 109.250 103.006 C 104.208 95.980, 102 90.590, 102 85.308 C 102 79.038, 100.010 73.611, 97.150 72.080 C 96.040 71.486, 92.852 71, 90.066 71 C 86.144 71, 85 70.648, 85 69.441 C 85 68.584, 84.570 68.148, 84.044 68.473 C 83.518 68.798, 83.332 69.702, 83.631 70.482 C 83.994 71.426, 82.905 72.431, 80.374 73.488 C 75.108 75.688, 73.160 77.693, 71.961 82.145 C 69.962 89.569, 74.914 101.168, 81.628 104.786 C 83.864 105.990, 83.924 106.246, 82.589 108.828 C 81.805 110.344, 80.672 114.266, 80.071 117.542 C 79.471 120.819, 78.339 125.610, 77.556 128.190 C 76.651 131.171, 76.341 134.905, 76.706 138.440 L 77.280 144 88.390 143.998 L 99.500 143.995 102.373 138.498 C 103.953 135.474, 105.696 133, 106.246 133 C 106.849 133, 107.066 135.192, 106.792 138.500 L 106.335 144 140.918 143.952 C 171.915 143.909, 175.863 143.721, 179 142.139 C 180.925 141.168, 182.372 139.793, 182.215 139.082 C 182.058 138.371, 182.451 137.162, 183.087 136.395 C 185.227 133.817, 180.086 134.804, 174.384 138.066 C 168.804 141.259, 167 141.227, 167 137.936 C 167 136.866, 165.404 129.869, 163.453 122.387 C 161.502 114.906, 160.099 108.270, 160.336 107.642 C 160.573 107.014, 161.129 107.400, 161.572 108.500 C 162.014 109.600, 163.001 110.969, 163.764 111.542 C 164.528 112.116, 166.016 114.366, 167.071 116.542 L 168.990 120.500 168.448 112.500 C 168.035 106.422, 168.177 104.860, 169.037 106 C 169.920 107.171, 170.032 106.732, 169.545 104 C 169.202 102.075, 168.698 98.475, 168.425 96 C 167.940 91.595, 168.015 91.677, 171.973 99.909 C 176.082 108.455, 177.762 110.144, 175.983 103.940 C 174.141 97.519, 174.747 96.163, 177.589 100.346 C 179.013 102.441, 180.335 103.998, 180.528 103.805 C 180.721 103.612, 180.473 98.740, 179.977 92.977 C 179.481 87.215, 178.631 76.200, 178.090 68.500 C 177.089 54.268, 174.687 41.678, 171.112 31.914 C 170.022 28.936, 168.657 24.673, 168.078 22.441 C 165.683 13.203, 158.339 6, 151.314 6 C 149.171 6, 147.976 5.230, 146.659 3 L 144.887 -0 132.443 -0 C 123.136 -0, 120.009 0.315, 120.035 1.250" stroke="none" fill="black" fill-rule="evenodd"/>
</svg>