<svg xmlns="http://www.w3.org/2000/svg" width="192" height="144" viewBox="0 0 192 144" version="1.1">
	<path d="M 0 72 L 0 144 42.417 144 L 84.834 144 85.840 139.250 C 88.813 125.204, 89.279 122.170, 88.699 120.658 C 87.521 117.587, 84.560 118.916, 81.025 124.102 C 79.114 126.907, 76.231 130.311, 74.619 131.667 C 71.716 134.110, 71.670 134.115, 69.744 132.188 C 68.079 130.523, 67.977 129.902, 69.036 127.872 C 71.539 123.075, 77.210 116, 78.554 116 C 79.315 116, 79.710 115.409, 79.433 114.687 C 79.156 113.965, 79.847 112.543, 80.969 111.528 C 82.751 109.916, 85.678 102.293, 84.816 101.512 C 84.642 101.355, 82.317 101.930, 79.649 102.791 C 75.841 104.019, 74.394 104.103, 72.913 103.178 C 71.876 102.530, 70.199 102, 69.188 102 C 66.864 102, 64.672 99.588, 57.452 89.083 C 54.270 84.454, 50.842 79.842, 49.833 78.833 C 48.825 77.825, 48 76.528, 48 75.950 C 48 73.906, 50.995 69.149, 53.546 67.142 C 55.078 65.938, 56.295 63.820, 56.532 61.948 C 57.038 57.947, 57.320 57.619, 70.281 45.938 C 78.737 38.317, 82.041 35.975, 85.603 35.078 C 88.495 34.350, 89.959 33.492, 89.632 32.717 C 89.350 32.048, 88.376 29.105, 87.468 26.178 L 85.816 20.855 81.916 21.514 C 78.850 22.032, 77.247 21.698, 74.418 19.950 C 71.082 17.887, 69.048 15.553, 60.739 4.250 L 57.615 0 28.807 0 L 0 0 0 72 M 186.469 5.750 C 186.908 9.542, 186.601 14.054, 185.568 19 C 183.389 29.433, 183.494 30.100, 188 34.500 L 192 38.406 192 19.203 L 192 0 188.902 -0 L 185.804 -0 186.469 5.750 M 65.247 4.241 C 65.858 6.074, 71.677 9.210, 73.726 8.809 C 74.973 8.566, 74.052 7.651, 70.624 5.731 C 65.093 2.633, 64.672 2.516, 65.247 4.241 M 68 10.500 C 68 13.496, 75.985 20.014, 79.618 19.985 C 83.682 19.952, 84.445 18.434, 82.074 15.103 C 80.233 12.518, 79.196 12, 75.866 12 C 73.667 12, 70.998 11.534, 69.934 10.965 C 68.870 10.395, 68 10.186, 68 10.500 M 88 23.825 C 88 25.593, 90.218 31, 90.943 31 C 91.914 31, 95.447 27.100, 94.911 26.621 C 93.442 25.309, 88 23.107, 88 23.825 M 86.571 40.571 C 85.512 41.346, 84.961 42.295, 85.347 42.680 C 85.732 43.066, 86.798 42.631, 87.714 41.714 C 89.873 39.556, 89.065 38.748, 86.571 40.571 M 71.506 55.994 C 66.356 61.184, 64.920 63.212, 65.700 64.195 C 67.281 66.186, 67.167 72.278, 65.560 71.661 C 63.739 70.962, 61.729 75.637, 62.918 77.807 C 63.429 78.738, 65.793 81.368, 68.173 83.652 C 72.924 88.211, 78.195 89.740, 83.500 88.100 L 86.500 87.172 83.233 87.086 L 79.966 87 82.500 82 C 83.894 79.250, 85.432 77, 85.920 77 C 86.407 77, 88.231 78.688, 89.974 80.750 L 93.141 84.500 92.579 79 C 92.270 75.975, 92.013 71.334, 92.009 68.686 C 92 63.897, 91.975 63.861, 87.138 61.686 C 82.231 59.479, 79.257 55.470, 79.832 51.839 C 80.405 48.224, 78.051 49.399, 71.506 55.994 M 131 52.486 C 131 53.303, 131.543 56.003, 132.207 58.486 C 133.244 62.360, 133.775 62.994, 135.957 62.955 C 137.356 62.930, 139.837 62.340, 141.471 61.643 L 144.442 60.376 138.471 55.689 C 132.035 50.637, 131 50.193, 131 52.486 M 140 64 C 139.175 64.533, 137.460 64.976, 136.189 64.985 C 133.602 65.002, 133.596 64.697, 136.524 83 C 140.498 107.840, 142.247 115.160, 148.216 131.931 L 152.500 143.969 172.250 143.985 L 192 144 192 122.052 C 192 100.175, 191.992 100.094, 189.562 97.473 C 188.221 96.026, 186.833 93.517, 186.478 91.898 C 185.512 87.504, 179.911 84.947, 172.846 85.676 C 164.611 86.526, 157.741 82.462, 153.617 74.300 C 152.728 72.539, 152 70.472, 152 69.705 C 152 68.938, 150.973 67.116, 149.718 65.656 C 147.332 62.878, 142.903 62.124, 140 64 M 153.559 70.250 C 156.132 78.591, 162.636 84, 170.091 84 C 172.726 84, 175.160 83.550, 175.500 83 C 175.840 82.450, 175.703 82, 175.195 82 C 174.687 82, 173.003 80.169, 171.452 77.930 C 168.496 73.665, 166.099 72.068, 158.870 69.551 C 153.122 67.549, 152.742 67.599, 153.559 70.250 M 188 90.889 C 188 91.928, 188.885 93.841, 189.967 95.139 L 191.933 97.500 191.967 93.250 C 191.995 89.656, 191.691 89, 190 89 C 188.706 89, 188 89.667, 188 90.889" stroke="none" fill="black" fill-rule="evenodd"/>
</svg>