<svg xmlns="http://www.w3.org/2000/svg" width="192" height="144" viewBox="0 0 192 144" version="1.1">
	<path d="M 0 72 L 0 144 14.500 144 C 22.475 144, 29 143.743, 29 143.428 C 29 143.114, 27.862 140.915, 26.472 138.542 C 22.392 131.580, 18.176 118.835, 15.785 106.239 C 13.979 96.720, 13.552 90.883, 13.529 75.375 L 13.500 56.249 10.795 55.229 C 9.099 54.588, 7.831 53.173, 7.394 51.434 C 6.812 49.116, 7.229 48.184, 9.929 45.772 C 11.707 44.184, 13.912 43.050, 14.830 43.252 C 16.536 43.627, 16.640 44.236, 15.498 47.169 C 14.956 48.562, 15.767 48.952, 20.413 49.532 C 30.244 50.761, 45.946 49.561, 51.055 47.191 C 58.270 43.845, 68.544 42.658, 79.750 43.876 C 86.629 44.624, 89.761 44.613, 90.694 43.839 C 92.551 42.298, 92.310 41, 90.167 41 C 86.990 41, 86.954 39.817, 90.023 36.321 C 92.437 33.571, 93 32.027, 93 28.152 C 93 22.603, 95.253 19.880, 103.399 15.584 C 109.574 12.327, 112.433 12.330, 116.719 15.599 C 119.603 17.799, 120.694 18.080, 123.814 17.427 C 131.681 15.780, 133.072 17.318, 127.533 21.543 L 123.960 24.268 125.980 27.691 C 128.497 31.957, 128.542 34.507, 126.131 36.196 C 125.062 36.945, 124.224 38.787, 124.173 40.502 C 124.015 45.833, 122.802 52.467, 121.745 53.774 C 120.572 55.225, 120.533 55.179, 124.325 56.810 C 125.879 57.479, 127.576 57.762, 128.097 57.440 C 129.070 56.839, 138.690 62.318, 140.492 64.500 C 142.678 67.149, 150.998 72, 153.353 72 C 156.651 72, 162 76.579, 162 79.402 C 162 80.625, 163.386 82.948, 165.080 84.563 C 168.940 88.244, 175.850 97.855, 179.791 105.028 C 181.445 108.038, 183.856 112.424, 185.149 114.776 C 186.488 117.211, 188.469 119.303, 189.750 119.635 C 191.763 120.155, 192 120.838, 192 126.108 C 192 129.349, 191.641 132, 191.203 132 C 189.111 132, 182.681 123.514, 177.941 114.500 C 171.550 102.345, 168.472 97.741, 162.128 90.841 C 157.863 86.203, 157.053 85.711, 155.628 86.894 C 154.733 87.637, 154 89.306, 154 90.603 C 154 93.230, 152.873 93.653, 144 94.350 C 140.975 94.588, 135.908 95.305, 132.740 95.944 C 129.571 96.583, 126.585 96.862, 126.103 96.564 C 125.622 96.266, 124.993 96.917, 124.707 98.011 C 124.421 99.105, 123.411 100, 122.462 100 C 120.562 100, 120.499 98.853, 123.430 117.500 C 124.294 123, 125.293 131.218, 125.649 135.763 L 126.297 144.027 159.399 143.763 L 192.500 143.500 192.757 71.750 L 193.013 0 96.507 0 L 0 0 0 72 M 0.474 72.500 C 0.474 112.100, 0.598 128.154, 0.750 108.176 C 0.901 88.198, 0.901 55.798, 0.750 36.176 C 0.598 16.554, 0.474 32.900, 0.474 72.500 M 59 50.874 C 57.075 51.299, 52.989 53.076, 49.919 54.823 C 46.850 56.570, 42.967 58, 41.292 58 C 35.683 58, 35.497 58.905, 35.535 85.905 C 35.574 113.070, 36.408 120.163, 41.279 134.750 L 44.368 144 64.054 144 L 83.740 144 84.950 137.750 C 87.019 127.065, 90.769 116.994, 95.223 110.163 L 99.500 103.602 99.813 85.203 C 100.028 72.558, 99.798 67.007, 99.078 67.452 C 98.384 67.881, 98.243 66.984, 98.659 64.800 C 99.004 62.985, 99.454 61.306, 99.659 61.068 C 99.863 60.831, 98.111 59.679, 95.765 58.509 C 93.419 57.339, 91.068 55.423, 90.539 54.252 C 90.011 53.081, 88.661 51.841, 87.539 51.496 C 84.280 50.494, 62.840 50.027, 59 50.874 M 122.642 65.087 C 123.271 65.864, 124.026 67.400, 124.322 68.500 C 124.659 69.757, 124.792 69.413, 124.679 67.577 C 124.581 65.970, 123.825 64.434, 123 64.164 C 121.821 63.780, 121.745 63.977, 122.642 65.087 M 137 72.671 C 137 73.040, 137.709 74.126, 138.576 75.084 C 140.029 76.690, 139.864 77.145, 136.460 80.913 C 132.411 85.394, 133.219 85.994, 139.434 83.120 C 141.670 82.087, 144.287 80.976, 145.250 80.652 C 148.231 79.648, 147.192 77.197, 142.662 74.542 C 138.174 71.912, 137 71.524, 137 72.671" stroke="none" fill="black" fill-rule="evenodd"/>
</svg>