<svg xmlns="http://www.w3.org/2000/svg" width="192" height="144" viewBox="0 0 192 144" version="1.1">
	<path d="M 152 6.668 C 150.075 8.124, 144.900 12.774, 140.500 17.001 C 134.018 23.229, 116.847 37, 115.563 37 C 115.391 37, 114.980 35.650, 114.650 34 C 113.946 30.482, 110.548 29.795, 109.710 33 C 109.303 34.557, 108.336 35.005, 105.344 35.022 C 100.961 35.047, 93.315 38.200, 91.405 40.770 C 89.531 43.292, 88.573 49.973, 89.896 51.296 C 91.421 52.821, 91.277 54, 89.567 54 C 88.779 54, 87.840 53.070, 87.479 51.934 C 86.363 48.419, 81.071 43.179, 77.420 41.974 C 74.878 41.135, 73.100 41.118, 70.821 41.913 C 69.105 42.511, 67.586 43, 67.445 43 C 67.303 43, 65.616 40.812, 63.695 38.138 C 57.679 29.764, 45.403 26.155, 37.259 30.366 C 29.286 34.489, 24.185 45.317, 25.449 55.436 C 26.022 60.026, 26.864 61.951, 29.647 65.031 C 33.925 69.766, 40.257 72.340, 46.424 71.850 C 51.251 71.466, 51.958 71.960, 49.500 74 C 48.675 74.685, 48 75.871, 48 76.636 C 48 77.401, 47.455 78.901, 46.788 79.968 C 45.196 82.517, 46.764 84.043, 48.515 81.648 C 49.912 79.738, 52.431 80.290, 51.683 82.342 C 51.451 82.979, 51.917 84.254, 52.718 85.176 C 53.520 86.097, 54.536 89.697, 54.977 93.176 C 55.417 96.654, 56.575 101.470, 57.549 103.879 C 58.838 107.065, 59.039 108.708, 58.287 109.912 C 56.494 112.784, 55.749 117.993, 56.929 119.414 C 58.086 120.809, 57.398 124, 55.940 124 C 54.684 124, 53.157 130.370, 53.715 133.287 C 54.065 135.118, 53.645 136.120, 52.205 136.890 C 51.108 137.477, 49.727 139.344, 49.137 141.037 L 48.063 144.117 51.782 143.808 C 55.458 143.503, 55.503 143.446, 55.805 138.750 C 56.017 135.446, 56.544 134, 57.536 134 C 59.644 134, 61.025 127.271, 59.600 123.942 C 59.206 123.020, 59.765 121.424, 60.967 120.039 C 63.277 117.375, 63.580 113.901, 61.757 110.983 C 59.849 107.928, 61.669 106.164, 69.500 103.482 C 73.350 102.164, 76.746 101.066, 77.046 101.042 C 77.347 101.019, 77.617 103.813, 77.646 107.250 C 77.675 110.688, 78.040 118.450, 78.457 124.500 L 79.214 135.500 76.090 139.765 L 72.965 144.031 101.584 143.765 L 130.203 143.500 134.792 134.965 L 139.380 126.430 138.048 121.670 C 137.112 118.327, 134.673 114.547, 129.857 108.974 C 123.786 101.948, 123 100.569, 123 96.938 C 123 93.315, 128.383 68.807, 129.617 66.810 C 129.879 66.387, 130.992 66.594, 132.091 67.270 C 133.814 68.331, 134.359 68.156, 136.056 66 C 141.547 59.022, 144.913 44.832, 141.708 42.173 C 138.694 39.671, 133.387 39.588, 130.014 41.990 C 124.597 45.847, 125.378 43.187, 131.469 37.031 C 136.533 31.914, 137.704 31.191, 140.140 31.678 C 143.821 32.414, 152.180 28.632, 151.394 26.585 C 151.092 25.799, 150.093 24.863, 149.173 24.506 C 147.636 23.910, 147.647 23.749, 149.308 22.526 C 151.035 21.255, 151.021 21.128, 149.007 19.718 C 146.919 18.255, 146.949 18.173, 151.949 11.567 C 154.727 7.897, 157 4.693, 157 4.447 C 157 3.421, 155.292 4.180, 152 6.668 M 83.213 68.569 C 79.119 72.872, 73.191 74.731, 67.990 73.343 C 64.534 72.420, 64.098 72.518, 63.627 74.317 C 63.340 75.416, 63.684 77.707, 64.391 79.408 C 65.099 81.108, 65.478 83.091, 65.235 83.813 C 64.991 84.534, 65.081 87.055, 65.435 89.415 L 66.078 93.704 74.789 90.271 C 79.580 88.384, 84.006 86.313, 84.625 85.669 C 85.244 85.026, 86.725 81.219, 87.916 77.210 C 90.028 70.101, 90.036 69.861, 88.237 67.574 L 86.392 65.228 83.213 68.569 M 58.380 114.452 C 57.691 116.249, 58.808 118.237, 60.069 117.457 C 61.336 116.674, 61.253 113, 59.969 113 C 59.401 113, 58.686 113.653, 58.380 114.452 M 119.750 120.572 C 119.338 120.991, 119 124.408, 119 128.167 C 119 131.925, 119.338 134.984, 119.750 134.964 C 120.162 134.945, 121.776 132.193, 123.335 128.849 C 125.469 124.271, 125.885 122.489, 125.017 121.635 C 124.156 120.786, 123.524 120.962, 122.513 122.331 C 121.225 124.076, 121.145 124.059, 120.830 121.986 C 120.649 120.789, 120.162 120.153, 119.750 120.572 M 56 129 C 56 130.100, 56.398 131, 56.883 131 C 57.369 131, 58.002 130.100, 58.290 129 C 58.630 127.700, 58.320 127, 57.406 127 C 56.633 127, 56 127.900, 56 129 M 51.459 141.067 C 51.096 141.653, 51.040 142.373, 51.333 142.667 C 52.050 143.383, 54 142.121, 54 140.941 C 54 139.663, 52.274 139.748, 51.459 141.067" stroke="none" fill="black" fill-rule="evenodd"/>
</svg>