<svg xmlns="http://www.w3.org/2000/svg" width="192" height="144" viewBox="0 0 192 144" version="1.1">
	<path d="M 0 72 L 0 144 46.567 144 C 91.458 144, 93.114 143.933, 92.546 142.146 C 92.223 141.126, 90.665 134.552, 89.085 127.537 L 86.212 114.782 89.725 104.641 C 91.794 98.666, 94.113 93.804, 95.369 92.805 C 96.891 91.595, 97.500 89.994, 97.500 87.201 L 97.500 83.292 77 82.599 C 56.301 81.900, 27.782 79.601, 25.978 78.486 C 23.749 77.109, 25.184 75.803, 28.500 76.190 C 30.425 76.415, 32 76.297, 32 75.928 C 32 74.977, 37.160 74.527, 89 70.960 C 124.694 68.504, 163.966 64.377, 178.500 61.554 C 182.900 60.699, 187.738 60, 189.250 60 L 192 60 192 67.439 L 192 74.877 187.250 75.567 C 180.668 76.521, 179 77.586, 179 80.835 C 179 82.356, 178.527 84.073, 177.949 84.651 C 177.214 85.386, 177.677 86.213, 179.488 87.400 C 180.913 88.334, 182.699 90.538, 183.456 92.299 C 184.213 94.060, 185.513 97.075, 186.345 99 C 187.176 100.925, 187.927 102.950, 188.013 103.500 C 188.100 104.050, 188.673 105.106, 189.288 105.848 C 191.137 108.075, 191.062 110.454, 188.880 118.665 C 187.736 122.974, 186.401 128.300, 185.914 130.500 C 185.427 132.700, 184.583 136.300, 184.038 138.500 C 182.618 144.237, 182.549 144.139, 187.750 143.805 L 192.500 143.500 192.757 71.750 L 193.013 0 96.507 0 L 0 0 0 72 M 0.474 72.500 C 0.474 112.100, 0.598 128.154, 0.750 108.176 C 0.901 88.198, 0.901 55.798, 0.750 36.176 C 0.598 16.554, 0.474 32.900, 0.474 72.500 M 147 81.014 C 143.975 81.438, 136.185 82.049, 129.688 82.372 C 123.191 82.695, 117.454 83.219, 116.938 83.538 C 114.854 84.827, 116.134 89.345, 119.750 93.465 C 122.525 96.626, 124.212 100.093, 126.238 106.794 C 129.252 116.760, 129.205 117.815, 125.073 133.232 C 123.933 137.484, 123 141.647, 123 142.482 C 123 143.776, 125.347 144, 138.895 144 L 154.789 144 154.019 140.750 C 149.683 122.461, 147 110.326, 147 109.006 C 147 105.403, 154.031 90.388, 156.942 87.774 C 159.653 85.340, 159.855 84.777, 158.829 82.524 C 157.577 79.777, 156.664 79.661, 147 81.014" stroke="none" fill="black" fill-rule="evenodd"/>
</svg>