<svg xmlns="http://www.w3.org/2000/svg" width="192" height="144" viewBox="0 0 192 144" version="1.1">
	<path d="M 0.667 0.667 C 0.300 1.033, -0 33.433, -0 72.667 L 0 144 20.500 144 C 31.775 144, 41 143.633, 41 143.184 C 41 142.735, 40.511 139.722, 39.913 136.489 C 39.020 131.658, 39.142 129.086, 40.597 122.055 C 41.570 117.350, 42.773 113.225, 43.269 112.888 C 43.765 112.552, 44.190 111.877, 44.213 111.388 C 44.430 106.792, 49.605 97.470, 55 91.958 C 66.953 79.746, 80.280 73.528, 96.897 72.410 C 119.557 70.885, 138.145 59.147, 148.750 39.664 C 149.988 37.391, 151 34.837, 151 33.988 C 151 33.139, 151.612 31.557, 152.360 30.473 C 153.108 29.388, 154.257 24.176, 154.914 18.891 C 155.991 10.232, 155.900 7.504, 154.340 1.750 C 153.893 0.103, 149.386 0, 77.599 0 C 35.653 0, 1.033 0.300, 0.667 0.667 M 85.500 2.403 C 80.643 4.546, 78.707 7.482, 78.212 13.455 C 77.850 17.820, 78.192 19.575, 79.963 22.440 C 81.173 24.398, 82.801 26, 83.582 26 C 84.362 26, 85 26.394, 85 26.875 C 85 28.374, 91.090 29.053, 95.026 27.993 C 97.091 27.437, 100.223 25.524, 101.987 23.741 C 105 20.695, 105.164 20.162, 104.703 14.877 C 104.433 11.785, 103.398 8.011, 102.402 6.491 C 99.154 1.534, 91.605 -0.292, 85.500 2.403 M 94 112.735 C 90.718 113.996, 86.096 118.277, 84.590 121.451 C 81.191 128.614, 83.855 137.368, 90.823 141.936 C 93.748 143.853, 95.303 144.150, 100.638 143.810 C 108.220 143.328, 111.525 141.242, 114.738 134.910 C 117.525 129.418, 117.060 124.521, 113.238 119.130 C 109.173 113.396, 100.113 110.384, 94 112.735" stroke="none" fill="black" fill-rule="evenodd"/>
</svg>