<svg xmlns="http://www.w3.org/2000/svg" width="192" height="144" viewBox="0 0 192 144" version="1.1">
	<path d="M 0 37 C 0 60.269, 0.360 74, 0.971 74 C 3.335 74, 18.881 67.697, 25.565 64.029 C 29.602 61.813, 33.439 60, 34.091 60 C 35.913 60, 49.438 70.603, 58.746 79.328 C 70.248 90.108, 74.613 91.985, 87.833 91.831 L 98.094 91.711 99.472 88.413 C 102.961 80.062, 108.591 74.576, 116.236 72.076 C 121.307 70.418, 121.769 69.199, 118.377 66.425 C 114.606 63.340, 114 63.416, 114 66.969 C 114 69.197, 113.626 69.794, 112.500 69.362 C 111.675 69.045, 111 68.159, 111 67.393 C 111 66.627, 110.599 66, 110.108 66 C 109.618 66, 108.907 64.765, 108.528 63.256 C 107.632 59.686, 106.178 58, 103.994 58 C 102.092 58, 100.533 53.142, 101.961 51.666 C 103.098 50.491, 101.981 46.840, 100.623 47.289 C 99.935 47.516, 99.298 51.695, 98.977 58.080 C 98.690 63.811, 97.903 69.483, 97.227 70.684 C 96.552 71.886, 96 73.633, 96 74.567 C 96 76.272, 92.450 80, 90.826 80 C 90.348 80, 89.445 78.875, 88.818 77.500 C 88.192 76.125, 87.360 75, 86.969 75 C 86.579 75, 85.721 73.074, 85.062 70.721 C 83.740 65.999, 84.124 58.143, 85.904 53.500 C 88.688 46.237, 89.294 45.001, 90.608 43.911 C 92.844 42.055, 92.276 41.337, 87.519 40.005 C 81.260 38.253, 80.580 37.123, 82.613 31.856 C 85.659 23.970, 94.246 16.991, 98.260 19.139 C 99.279 19.684, 100.453 21.051, 100.869 22.176 C 101.587 24.116, 101.718 24.075, 103.450 21.360 C 108.185 13.935, 115.250 11.480, 129.869 12.179 C 136.932 12.517, 139.633 13.070, 141.755 14.610 C 145.782 17.535, 149.348 25.332, 149.437 31.406 C 149.480 34.302, 150.214 37.579, 151.139 39 C 153.477 42.592, 154.246 49.968, 152.359 50.693 C 151.551 51.002, 150.965 52.211, 151.056 53.378 C 151.448 58.408, 149.838 59.915, 148.522 55.750 C 147.873 53.696, 147.711 53.820, 146.656 57.168 C 145.130 62.011, 144 63.008, 144 59.512 C 144 56.815, 143.917 56.766, 142.124 58.388 C 141.092 59.322, 139.985 61.529, 139.663 63.293 C 139.341 65.057, 138.784 67.507, 138.426 68.737 C 137.859 70.680, 138.413 71.248, 142.637 73.058 C 149.237 75.888, 150.818 77.491, 154.039 84.625 L 156.804 90.750 170.837 90.415 C 180.011 90.197, 186.049 89.588, 188.276 88.658 L 191.682 87.235 192.341 76.462 C 192.703 70.537, 193 50.909, 193 32.844 L 193 0 96.500 0 L 0 0 0 37 M 0.453 37.500 C 0.453 57.850, 0.586 66.033, 0.749 55.685 C 0.912 45.336, 0.911 28.686, 0.748 18.685 C 0.585 8.683, 0.452 17.150, 0.453 37.500 M 29.676 68.574 C 25.733 71.253, 25.449 72.948, 28.270 76.975 C 31.434 81.493, 31.331 85.019, 27.624 98.954 C 25.679 106.264, 23.854 112.479, 23.568 112.766 C 22.837 113.496, 22.399 112.013, 19.531 99.116 C 16.500 85.480, 16.438 83.525, 18.892 78.711 C 19.933 76.670, 20.495 74.999, 20.142 74.997 C 19.789 74.996, 16.800 76.089, 13.500 77.428 C 10.200 78.766, 6.263 80.126, 4.750 80.450 C 1.484 81.149, 1.300 82.803, 3.996 87.226 C 6.635 91.554, 6.536 93.513, 3.022 106.500 C 0.433 116.067, 0.043 119.226, 0.023 130.750 L 0 144 48.500 144 L 97 144 97.001 138.750 C 97.002 135.863, 97.651 129.818, 98.443 125.319 C 99.860 117.267, 99.911 103.284, 98.532 101.052 C 98.145 100.425, 98.408 99.213, 99.118 98.358 C 100.267 96.974, 99.700 96.842, 93.954 97.160 C 90.404 97.356, 87.407 97.842, 87.293 98.240 C 87.180 98.638, 87.803 100.659, 88.679 102.732 C 90.206 106.348, 90.140 107.035, 87.033 119.750 C 85.252 127.037, 83.391 133, 82.897 133 C 82.404 133, 82 132.736, 82 132.414 C 82 132.092, 80.819 126.500, 79.375 119.987 C 76.601 107.475, 76.689 102.454, 79.733 99.410 C 81.272 97.871, 81.267 97.669, 79.673 96.502 C 77.865 95.181, 70.062 93.604, 69.267 94.400 C 69.010 94.656, 69.303 96.389, 69.918 98.252 C 70.861 101.107, 70.553 103.660, 67.953 114.569 C 66.257 121.681, 64.494 127.883, 64.034 128.351 C 63.029 129.374, 62.836 128.745, 59.499 113.606 C 56.761 101.183, 56.929 98.338, 60.665 93.921 C 62.876 91.306, 62.227 89.469, 57.199 84.114 C 51.297 77.827, 49.543 77.453, 51.461 82.890 C 52.730 86.487, 52.583 87.775, 49.509 99.965 C 46.358 112.458, 45.508 114.884, 44.616 113.917 C 44.405 113.688, 42.844 107.425, 41.148 100 L 38.063 86.500 41.040 80.592 C 42.678 77.343, 43.901 74.621, 43.759 74.544 C 43.617 74.467, 41.212 72.533, 38.415 70.247 L 33.331 66.091 29.676 68.574 M 183.500 93.727 C 179.110 94.352, 178.775 95.159, 180.996 99.756 C 182.098 102.037, 183 104.951, 183 106.230 C 183 108.826, 177.470 130.863, 176.601 131.732 C 175.843 132.490, 175.477 131.315, 172.047 117.142 L 169.057 104.785 171.029 100.705 C 172.113 98.460, 173 96.484, 173 96.312 C 173 96.140, 169.400 96, 165 96 C 157.317 96, 155.967 96.484, 157.879 98.550 C 158.363 99.073, 159.290 101.166, 159.941 103.201 C 160.945 106.345, 160.768 108.453, 158.763 117.201 C 157.002 124.889, 156.498 129.592, 156.778 135.750 L 157.152 144 174.576 144 L 192 144 192 130.917 C 192 120.935, 191.506 115.898, 189.916 109.670 C 188.220 103.028, 188.034 100.832, 188.916 97.887 C 190.549 92.437, 190.863 92.678, 183.500 93.727" stroke="none" fill="black" fill-rule="evenodd"/>
</svg>