<svg xmlns="http://www.w3.org/2000/svg" width="192" height="144" viewBox="0 0 192 144" version="1.1">
	<path d="M -0.002 27.750 L -0.004 55.500 12.248 55.207 C 19.278 55.040, 28.900 55.535, 34.823 56.369 C 44.260 57.698, 45.399 57.681, 48.096 56.162 C 50.023 55.076, 50.951 53.831, 50.773 52.572 C 50.552 51.008, 49.653 50.630, 46.018 50.572 C 39.929 50.474, 39.798 48.553, 45.453 42.263 L 49.993 37.214 49.361 29.741 C 48.561 20.280, 49.988 17.585, 58.992 11.548 C 71.199 3.363, 77.873 2.615, 85.668 8.560 L 89.179 11.238 96.535 9.055 C 102.182 7.378, 104.359 7.122, 105.908 7.951 C 108.472 9.323, 107.872 11.096, 102.731 17.329 L 98.748 22.158 102.577 26.079 C 104.683 28.235, 105.812 30, 105.086 30 C 104.225 30, 103.964 30.753, 104.334 32.169 C 104.727 33.671, 103.935 35.557, 101.759 38.304 L 98.617 42.271 100.926 44.141 C 102.488 45.406, 102.940 46.414, 102.324 47.256 C 101.823 47.940, 100.573 50.975, 99.547 54 C 98.521 57.025, 97.078 60.388, 96.341 61.473 C 95.603 62.557, 95 64.437, 95 65.650 C 95 66.863, 93.860 68.752, 92.466 69.848 C 89.467 72.207, 89.142 71.935, 101.757 77.630 C 106.848 79.929, 111.798 81.608, 112.757 81.361 C 114.936 80.801, 131 89.794, 131 91.574 C 131 93.383, 148.839 105.567, 150.968 105.213 C 151.917 105.055, 153.268 105.618, 153.969 106.463 C 154.671 107.308, 155.661 108, 156.170 108 C 157.674 108, 162 113.151, 162.641 115.706 C 162.967 117.005, 165.639 120.640, 168.579 123.784 C 171.519 126.928, 176.304 132.753, 179.212 136.728 C 184.356 143.760, 184.609 143.950, 188.500 143.728 L 192.500 143.500 192.701 71.750 L 192.902 -0 96.451 -0 L 0 0 -0.002 27.750 M 0.440 28.500 C 0.440 43.900, 0.579 50.060, 0.748 42.189 C 0.917 34.319, 0.917 21.719, 0.747 14.189 C 0.578 6.660, 0.439 13.100, 0.440 28.500 M 6.750 65.720 L 1 66.100 1 105.050 L 1 144 36.883 144 L 72.767 144 73.349 141.773 C 74.021 139.204, 72.402 121.889, 71.049 117.172 C 70.547 115.421, 69.206 112.806, 68.068 111.360 C 66.402 109.242, 66 107.297, 66 101.365 C 66 95.747, 65.671 94, 64.611 94 C 62.885 94, 61.758 88.459, 62.614 84.181 C 63.172 81.390, 62.985 81, 61.085 81 C 56.505 81, 46 73.377, 46 70.053 C 46 67.934, 18.766 64.927, 6.750 65.720 M 105.564 95.293 C 105.940 96.279, 106.499 96.834, 106.807 96.526 C 107.115 96.219, 106.808 95.412, 106.124 94.733 C 105.136 93.753, 105.022 93.868, 105.564 95.293 M 125.579 105.655 C 125.198 106.647, 125.756 108.176, 126.972 109.470 C 129.003 111.632, 129.659 113.972, 128.250 114.031 C 127.838 114.049, 126.642 115.239, 125.594 116.676 L 123.689 119.289 131.094 118.598 C 136.782 118.067, 138.905 117.430, 140.245 115.849 C 141.204 114.718, 141.759 113.419, 141.477 112.962 C 140.658 111.637, 128.633 104, 127.365 104 C 126.732 104, 125.928 104.745, 125.579 105.655 M 152.686 127.539 C 151.030 128.995, 149.642 131.434, 149.312 133.464 C 149.004 135.362, 147.934 137.654, 146.935 138.559 C 145.242 140.091, 144.584 140.026, 137.295 137.598 C 132.931 136.145, 125.058 134.562, 119.487 134.018 L 109.500 133.043 107.255 135.772 C 106.020 137.272, 105.008 139.738, 105.005 141.250 L 105 144 139.093 144 L 173.186 144 168.914 138.750 C 163.761 132.418, 156.789 124.988, 156.042 125.032 C 155.744 125.049, 154.234 126.177, 152.686 127.539" stroke="none" fill="black" fill-rule="evenodd"/>
</svg>