<svg xmlns="http://www.w3.org/2000/svg" width="192" height="144" viewBox="0 0 192 144" version="1.1">
	<path d="M -0 72.005 L -0 144.010 96.250 143.755 L 192.500 143.500 192.757 71.750 L 193.013 0 96.507 0 L 0 0 -0 72.005 M 0.474 72.500 C 0.474 112.100, 0.598 128.154, 0.750 108.176 C 0.901 88.198, 0.901 55.798, 0.750 36.176 C 0.598 16.554, 0.474 32.900, 0.474 72.500 M 85 37.214 C 85 37.646, 84.334 38, 83.520 38 C 82.315 38, 82.406 38.602, 84.012 41.250 C 87.301 46.673, 87.404 47.231, 85.672 50.249 C 84.752 51.851, 84 54.668, 84 56.510 C 84 58.351, 83.438 60.452, 82.750 61.179 C 81.946 62.028, 81.510 65.536, 81.528 71 C 81.546 76.666, 80.963 81.167, 79.778 84.500 C 77.674 90.420, 77.531 93.483, 79.281 95.118 C 80.866 96.598, 80.298 102.899, 78.383 105.081 C 76.626 107.083, 77.535 108, 81.275 108 C 83.844 108, 84.144 107.709, 83.640 105.704 C 83.323 104.441, 83.420 102.078, 83.854 100.454 C 84.583 97.727, 85 97.498, 89.275 97.472 L 93.906 97.445 93.672 103.199 C 93.504 107.322, 93.826 109.103, 94.809 109.480 C 97.325 110.446, 97.979 108.945, 97.679 102.898 C 97.324 95.728, 98.405 93.847, 103.928 92.024 C 107.253 90.926, 108 90.219, 108 88.169 C 108 86.788, 107.341 84.929, 106.536 84.040 C 105.730 83.150, 103.521 79.447, 101.626 75.811 C 97.882 68.629, 97.529 63.938, 100.422 59.808 C 102.683 56.580, 102.396 54.804, 99 51 C 96.020 47.663, 95.084 43.684, 97 42.500 C 97.550 42.160, 98 40.811, 98 39.502 C 98 37.446, 97.422 37.056, 93.750 36.632 C 88.291 36.002, 85 36.221, 85 37.214" stroke="none" fill="black" fill-rule="evenodd"/>
</svg>