<svg xmlns="http://www.w3.org/2000/svg" width="192" height="144" viewBox="0 0 192 144" version="1.1">
	<path d="M 160.225 43.107 C 160.376 43.797, 158.167 45.518, 155.315 46.931 L 150.131 49.500 150.417 54.750 C 150.625 58.570, 150.345 60, 149.387 60 C 148.663 60, 147.571 60.934, 146.960 62.075 C 146.040 63.793, 145.217 64.049, 142.175 63.565 C 137.973 62.895, 135.324 64.098, 136.568 66.110 C 137.022 66.844, 137.273 69.099, 137.127 71.120 C 136.786 75.846, 138.215 76.648, 142.386 74.070 C 144.229 72.932, 146.133 72, 146.618 72 C 148.057 72, 146.486 86.170, 144.572 90.450 C 143.601 92.623, 141.238 96.314, 139.321 98.654 C 137.404 100.993, 135.985 103.715, 136.168 104.703 C 136.357 105.726, 138.870 107.654, 141.998 109.178 L 147.497 111.856 147.147 122.178 C 146.954 127.855, 146.591 132.838, 146.339 133.250 C 146.088 133.662, 144.360 134, 142.500 134 C 138.067 134, 137.498 135.190, 139.626 140.013 L 141.385 144 154.561 144 L 167.737 144 168.284 139.920 C 168.598 137.580, 168.279 134.488, 167.537 132.670 C 166.657 130.515, 166.476 127.747, 166.971 124.024 C 167.451 120.413, 167.244 116.835, 166.362 113.524 C 165.626 110.761, 165.013 107.375, 164.999 106 C 164.986 104.625, 163.700 99.123, 162.142 93.773 C 158.926 82.726, 159.116 76.884, 162.813 73.187 C 165.402 70.598, 165.461 70.104, 163.520 67.332 C 162.184 65.424, 162.239 64.965, 164.093 62.609 C 165.347 61.014, 167.186 59.973, 168.823 59.930 C 170.295 59.891, 172.400 59.457, 173.500 58.965 C 174.804 58.382, 173.619 58.285, 170.095 58.685 L 164.690 59.299 165.284 55.634 C 165.777 52.600, 165.449 51.540, 163.377 49.468 C 161.721 47.811, 161.079 46.325, 161.479 45.068 C 161.810 44.023, 161.602 42.872, 161.016 42.510 C 160.430 42.148, 160.074 42.416, 160.225 43.107 M 95.038 47.399 C 94.537 48.719, 93.213 50.438, 92.097 51.220 C 90.441 52.379, 90.180 53.334, 90.679 56.408 C 91.015 58.479, 91.900 60.408, 92.645 60.694 C 94.490 61.402, 94.369 65, 92.500 65 C 91.675 65, 91 65.723, 91 66.607 C 91 67.611, 90.448 68.002, 89.529 67.649 C 87.914 67.030, 84.682 69.677, 85.480 70.967 C 86.267 72.241, 83.190 74.287, 81.475 73.629 C 79.112 72.722, 78.500 75.790, 80.585 78.094 C 82.753 80.489, 86.596 79.980, 89.160 76.957 C 91.434 74.277, 92.689 74.497, 94.440 77.884 C 95.817 80.547, 95.753 81.141, 93.608 85.634 C 90.155 92.867, 86.827 103.107, 87.424 104.663 C 87.713 105.415, 89.085 106.462, 90.474 106.990 C 93.225 108.036, 93.531 109.850, 92.376 118.276 C 91.924 121.568, 91.231 122.968, 89.876 123.322 C 86.804 124.126, 87.707 126.980, 91.540 128.581 C 95.285 130.146, 95.366 131.990, 91.691 132.015 C 88.179 132.040, 86.642 133.451, 87.762 135.623 C 88.294 136.655, 88.566 137.950, 88.365 138.500 C 88.143 139.109, 90.865 139.500, 95.323 139.500 C 101.489 139.500, 103.226 139.105, 106.316 137 C 110.073 134.441, 111.155 132, 108.531 132 C 106.628 132, 107.691 129.077, 110.391 126.887 C 112.373 125.280, 112.372 125.270, 110.309 124.165 C 108.787 123.351, 107.908 121.312, 106.997 116.483 C 106.315 112.868, 105.924 109.818, 106.128 109.705 C 110.087 107.521, 110.487 107.016, 110.342 104.376 C 110.255 102.794, 109.498 99.157, 108.660 96.294 C 107.822 93.430, 106.891 87.893, 106.593 83.989 C 106.294 80.085, 105.777 76.448, 105.443 75.908 C 105.110 75.368, 105.738 73.196, 106.841 71.081 L 108.845 67.236 106.819 66.333 C 105.107 65.569, 104.762 64.379, 104.586 58.635 C 104.387 52.180, 104.218 51.741, 101.188 49.822 C 99.435 48.712, 98 47.173, 98 46.402 C 98 44.133, 96.028 44.797, 95.038 47.399 M 40 48.918 C 40 50.160, 38.641 51.480, 36.139 52.668 C 32.563 54.365, 32.286 54.796, 32.399 58.500 C 32.466 60.700, 32.966 63.175, 33.510 64 C 36.830 69.034, 36.800 69.971, 33.087 76.985 C 32.299 78.475, 26.818 80.514, 19.673 81.976 C 16.703 82.584, 15.718 82.430, 15.280 81.288 C 14.844 80.152, 13.663 79.959, 10.108 80.446 C 0.010 81.826, -0.141 81.900, 0.193 85.263 C 0.489 88.231, 1.025 88.555, 15 94.210 C 22.975 97.437, 31.075 100.437, 33 100.876 C 35.291 101.400, 36.371 102.163, 36.126 103.088 C 35.920 103.864, 35.667 106.300, 35.564 108.500 C 35.461 110.700, 34.794 113.572, 34.082 114.883 C 32.866 117.121, 33.142 117.605, 38.596 122.804 C 43.928 127.887, 44.248 128.430, 42.491 129.421 C 41.439 130.014, 39.298 131.727, 37.735 133.227 C 35.715 135.165, 32.528 136.514, 26.725 137.888 C 19.462 139.609, 18.249 139.663, 15.766 138.379 C 13.276 137.091, 12.300 137.142, 6.737 138.848 C 2.845 140.041, 0.378 141.369, 0.177 142.380 C -0.106 143.798, 1.290 144, 11.395 144 C 20.877 144, 22.841 143.750, 22.400 142.600 C 22.043 141.670, 22.977 140.850, 25.181 140.157 C 31.647 138.125, 33.338 138.287, 33.987 141 C 34.557 143.383, 34.968 143.514, 42.792 143.790 C 47.307 143.950, 51 143.710, 51 143.256 C 51 142.802, 52.350 141.634, 54 140.659 C 57.308 138.705, 57.787 136.898, 55.500 135 C 54.675 134.315, 54 132.980, 54 132.033 C 54 131.085, 53.100 129.495, 52 128.500 C 50.900 127.505, 50 126.397, 50 126.038 C 50 125.680, 47.962 123.198, 45.471 120.523 C 40.217 114.882, 40.611 113.745, 47.905 113.488 C 53.791 113.281, 58.488 110.677, 57.485 108.176 C 57.116 107.254, 56.186 104.135, 55.418 101.245 C 54.651 98.355, 53.271 94.305, 52.352 92.245 C 51.433 90.185, 50.614 88.275, 50.533 88 C 48.019 79.484, 46.606 75.158, 45.876 73.739 C 45.265 72.552, 45.445 71.246, 46.428 69.739 C 48.375 66.750, 47.903 57.656, 45.673 55.191 C 44.753 54.174, 44 52.455, 44 51.371 C 44 49.373, 42.263 47, 40.800 47 C 40.360 47, 40 47.863, 40 48.918 M 179.500 57 C 179.160 57.550, 179.610 58, 180.500 58 C 181.390 58, 181.840 57.550, 181.500 57 C 181.160 56.450, 180.710 56, 180.500 56 C 180.290 56, 179.840 56.450, 179.500 57 M 29.322 83.326 C 24.791 85, 24.187 86, 27.708 86 C 32.829 86, 37 84.822, 37 83.375 C 37 81.723, 33.718 81.702, 29.322 83.326 M 97.256 110.750 C 96.882 111.713, 96.558 114.706, 96.538 117.403 C 96.502 122.068, 96.641 122.326, 99.407 122.708 C 101.101 122.943, 102.665 122.566, 103.155 121.805 C 104.153 120.258, 103.317 115.592, 101.354 111.750 C 99.741 108.594, 98.238 108.227, 97.256 110.750 M 153.522 112 C 152.383 113.934, 150.892 124.381, 151.166 128.495 L 151.500 133.490 156.299 134.362 C 158.939 134.842, 161.324 135.009, 161.600 134.734 C 162.755 133.579, 162.374 117.318, 161.121 114.293 C 160.013 111.616, 159.311 111.129, 156.807 111.298 C 155.162 111.409, 153.684 111.725, 153.522 112 M 81 140.893 C 81 142.625, 84.362 143.067, 85.892 141.537 C 87.274 140.154, 87.106 140, 84.214 140 C 82.446 140, 81 140.402, 81 140.893" stroke="none" fill="black" fill-rule="evenodd"/>
</svg>