<svg xmlns="http://www.w3.org/2000/svg" width="192" height="144" viewBox="0 0 192 144" version="1.1">
	<path d="M -0 29.750 L -0 59.500 18.750 59.500 C 29.062 59.500, 40.315 59.860, 43.756 60.300 C 49.826 61.077, 50.039 61.027, 50.958 58.611 C 51.478 57.242, 52.826 55.628, 53.952 55.026 C 55.078 54.423, 56 52.993, 56 51.848 C 56 50.119, 55.537 49.855, 53.261 50.291 C 50.339 50.849, 47 49.586, 47 47.922 C 47 47.368, 49.026 44.748, 51.502 42.101 L 56.004 37.288 55.445 30.394 C 54.654 20.637, 56.781 17.814, 70.333 10.625 C 79.576 5.722, 84.033 5.718, 90.439 10.609 L 95.165 14.217 100.898 12.609 C 113.060 9.196, 115.460 11.803, 107.493 19.770 C 102.596 24.667, 102.586 24.389, 107.887 30.250 C 109.366 31.885, 109.850 33, 109.080 33 C 108.305 33, 108.032 33.641, 108.399 34.598 C 108.773 35.571, 107.791 37.739, 105.889 40.140 C 102.992 43.798, 102.882 44.212, 104.374 45.861 C 105.862 47.505, 105.723 48.267, 102.509 56.069 C 100.599 60.706, 99.028 65.255, 99.018 66.177 C 99.008 67.100, 97.824 68.780, 96.387 69.911 C 94.780 71.174, 93.999 72.556, 94.360 73.496 C 95.152 75.560, 109.994 82.235, 112.395 81.607 C 114.826 80.971, 129.990 88.802, 130.858 91.140 C 131.774 93.612, 148.080 104.364, 150.644 104.187 C 151.823 104.106, 153.341 104.706, 154.017 105.520 C 154.692 106.334, 155.661 107, 156.170 107 C 157.549 107, 161.839 111.910, 162.601 114.361 C 162.967 115.538, 166.269 119.672, 169.939 123.548 C 173.609 127.425, 178.780 133.637, 181.432 137.352 C 185.809 143.487, 186.540 144.080, 189.376 143.804 L 192.500 143.500 192.703 71.750 L 192.907 0 96.453 0 L 0 0 -0 29.750 M 0.443 30.500 C 0.443 47, 0.580 53.890, 0.748 45.812 C 0.915 37.733, 0.916 24.233, 0.748 15.812 C 0.581 7.390, 0.444 14, 0.443 30.500 M 5.500 69.892 L 1.500 70.500 1.238 107.250 L 0.975 144 37.926 144 L 74.877 144 75.538 139.598 C 76.243 134.894, 74.491 115.422, 73.013 111.533 C 72.524 110.247, 71.646 108.899, 71.062 108.538 C 70.467 108.170, 70 104.611, 70 100.441 C 70 94.493, 69.699 93, 68.500 93 C 67.320 93, 67 91.608, 67 86.469 C 67 81.110, 66.686 79.845, 65.250 79.425 C 63.677 78.965, 61.416 77.857, 52.886 73.365 C 46.778 70.150, 17.784 68.024, 5.500 69.892 M 126.395 105.561 C 125.919 107.459, 126.321 108.650, 127.950 110.168 L 130.147 112.215 127.823 114.720 L 125.500 117.224 132.809 116.826 C 139.847 116.443, 142.018 115.415, 141.944 112.500 C 141.920 111.575, 129.016 103, 127.648 103 C 127.312 103, 126.749 104.152, 126.395 105.561 M 152.589 127.077 C 151.165 128.769, 150 130.773, 150 131.530 C 150 134.296, 147.631 138, 145.862 138 C 144.863 138, 141.190 136.925, 137.700 135.611 C 134.106 134.259, 126.832 132.727, 120.927 132.079 L 110.500 130.936 108.255 133.718 C 106.825 135.489, 106.008 137.862, 106.005 140.250 L 106 144 140.557 144 L 175.113 144 173.609 141.853 C 170.492 137.403, 157.573 124, 156.400 124 C 155.728 124, 154.013 125.385, 152.589 127.077" stroke="none" fill="black" fill-rule="evenodd"/>
</svg>