<svg xmlns="http://www.w3.org/2000/svg" width="192" height="144" viewBox="0 0 192 144" version="1.1">
	<path d="M 0.014 72 L 0.023 144 3.512 144 C 5.968 144, 7 143.550, 7 142.479 C 7 140.337, 11.693 138.293, 13.185 139.785 C 14.025 140.625, 13.987 141.311, 13.035 142.458 C 11.905 143.819, 12.479 144, 17.926 144 C 24.412 144, 25.114 143.739, 39.500 135.981 C 64.627 122.431, 63.004 123.763, 65.080 114.991 C 66.124 110.578, 66.485 107.123, 65.959 106.583 C 65.423 106.032, 64.810 106.332, 64.426 107.333 C 63.474 109.812, 62 109.349, 62 106.571 C 62 104.471, 61.220 103.919, 56.250 102.497 C 40.086 97.871, 23 91.618, 23 90.327 C 23 87.520, 26.116 87.968, 40.651 92.864 C 62.215 100.127, 62.822 100.257, 64.276 97.929 C 65.832 95.438, 67 95.469, 67 98 C 67 99.129, 67.667 100, 68.531 100 C 71.738 100, 71.083 96.937, 66.668 91.285 L 62.149 85.500 62.485 73.211 C 62.742 63.808, 63.216 60.320, 64.502 58.357 C 66.816 54.825, 74.966 47.130, 77.920 45.688 C 81.540 43.920, 81.828 41.903, 78.316 42.905 C 76.767 43.348, 74.600 43.387, 73.500 42.993 C 72.400 42.599, 70.972 42.474, 70.327 42.716 C 68.404 43.436, 67 39.508, 67 33.412 C 67 23.085, 73.872 12.847, 82.776 9.909 C 86.790 8.584, 89.489 9.164, 94.204 12.364 L 97.762 14.779 102.131 8.682 C 104.534 5.328, 106.860 2.003, 107.300 1.292 C 107.950 0.242, 97.982 0, 54.052 0 L 0.004 0 0.014 72 M 112 3.040 C 112 4.712, 112.887 7.818, 113.970 9.942 C 116.016 13.951, 115.700 14.911, 111.889 16.260 C 110.762 16.659, 110.070 18.662, 109.589 22.915 C 108.881 29.175, 108.157 30.100, 106 27.500 C 103.675 24.699, 103 25.986, 102.985 33.250 C 102.976 37.237, 102.533 41.175, 102 42 C 101.195 43.246, 101.022 43.161, 100.980 41.500 C 100.935 39.718, 100.774 39.772, 99.500 42 C 98.635 43.513, 98.051 43.908, 98.020 43 C 97.975 41.667, 97.860 41.667, 96.985 43 C 96.269 44.090, 95.793 44.182, 95.244 43.335 C 94.681 42.469, 93.995 42.530, 92.566 43.575 C 90.737 44.913, 90.797 45.033, 93.822 46.088 C 95.570 46.697, 97 47.894, 97 48.748 C 97 49.603, 99.475 52.699, 102.500 55.628 C 105.699 58.727, 108.059 61.906, 108.142 63.228 C 108.219 64.477, 108.332 66.607, 108.392 67.960 C 108.485 70.078, 109.750 70.951, 117.500 74.241 C 122.450 76.343, 128.380 78.994, 130.677 80.132 L 134.854 82.200 145.677 74.804 C 151.630 70.737, 158.582 65.919, 161.128 64.098 C 166.182 60.482, 169.130 60.506, 171.095 64.178 C 172.341 66.506, 171.318 82.315, 169.976 81.485 C 169.526 81.207, 168.348 77.834, 167.358 73.990 C 166.367 70.145, 165.319 67.021, 165.029 67.048 C 164.738 67.074, 158.425 71.246, 151 76.320 C 138.027 85.184, 137.479 85.700, 136.965 89.522 C 136.059 96.258, 133.686 97.798, 129.683 94.250 C 127.779 92.562, 127.747 92.573, 128.785 94.554 C 129.422 95.770, 129.506 97.181, 128.991 98.014 C 128.262 99.193, 127.810 99.138, 126.187 97.669 C 124.325 95.984, 123.890 96.130, 114.626 101.554 C 105.619 106.827, 103.549 108.985, 106.026 110.516 C 107.545 111.455, 128.751 116.750, 142.477 119.618 C 149.064 120.994, 154.622 122.288, 154.827 122.494 C 155.032 122.699, 154.904 123.347, 154.541 123.933 C 153.029 126.380, 139.679 124.679, 116.504 119.087 C 112.107 118.026, 108.313 117.354, 108.074 117.592 C 107.470 118.197, 111.823 130.514, 114.656 136.217 C 115.945 138.811, 117 141.623, 117 142.467 C 117 143.817, 121.472 144, 154.500 144 L 192 144 191.921 83.750 C 191.878 50.612, 191.615 24.062, 191.338 24.750 C 190.401 27.072, 189.442 26.021, 188.143 21.250 C 186.162 13.973, 185.129 11.889, 182.458 9.788 C 180.729 8.428, 180 6.870, 180 4.534 C 180 2.429, 179.421 0.992, 178.418 0.607 C 177.548 0.273, 162.248 0, 144.418 0 L 112 0 112 3.040 M 191.079 21.583 C 191.127 22.748, 191.364 22.985, 191.683 22.188 C 191.972 21.466, 191.936 20.603, 191.604 20.271 C 191.272 19.939, 191.036 20.529, 191.079 21.583 M 98.714 81.646 C 100.112 87.776, 100.100 88.365, 98.554 89.230 C 97.278 89.944, 97.042 90.915, 97.566 93.301 C 98.389 97.048, 100.108 100, 101.467 100 C 102.009 100, 106.580 97.502, 111.626 94.450 C 120.230 89.244, 120.756 88.736, 120.096 86.265 C 119.370 83.552, 119.144 83.439, 108.705 80.532 C 105.518 79.644, 102.155 78.036, 101.233 76.959 C 97.902 73.069, 97.099 74.564, 98.714 81.646 M 151.500 106 C 152.600 106.473, 154.175 106.884, 155 106.914 C 156.333 106.963, 156.333 106.862, 155 106 C 154.175 105.467, 152.600 105.055, 151.500 105.086 L 149.500 105.141 151.500 106 M 50.500 139.114 L 41.500 143.972 49.672 143.986 L 57.845 144 58.997 140.508 C 61.131 134.042, 60.184 133.887, 50.500 139.114" stroke="none" fill="black" fill-rule="evenodd"/>
</svg>