<svg xmlns="http://www.w3.org/2000/svg" width="192" height="144" viewBox="0 0 192 144" version="1.1">
	<path d="M 0 72 L 0 144 23 144 C 38.037 144, 46 143.645, 46 142.975 C 46 141.736, 41.714 140, 38.654 140 C 37.122 140, 36.097 139.095, 35.331 137.066 C 34.445 134.718, 33.453 134.010, 30.362 133.520 C 28.238 133.183, 25.076 132.203, 23.335 131.342 C 21.594 130.481, 19.679 130.080, 19.078 130.452 C 18.477 130.823, 17.769 130.536, 17.504 129.813 C 16.868 128.082, 19.482 120.673, 20.895 120.202 C 21.503 119.999, 22 119.284, 22 118.613 C 22 117.129, 27.823 111.526, 30.250 110.676 C 31.212 110.339, 32 109.469, 32 108.744 C 32 108.018, 34.235 105.224, 36.966 102.533 C 41.724 97.847, 41.850 97.583, 39.966 96.264 C 37.306 94.401, 37.493 91.026, 40.503 86.591 C 42.770 83.250, 42.946 82.270, 42.377 76.145 C 41.888 70.890, 42.116 68.676, 43.400 66.193 C 44.308 64.437, 44.815 62.944, 44.526 62.875 C 42.222 62.327, 41.124 62.808, 38.500 65.517 C 36.850 67.220, 34.694 69.713, 33.708 71.057 L 31.916 73.500 32.319 70.750 C 32.541 69.237, 32.569 68, 32.382 68 C 32.194 68, 30.686 70.362, 29.030 73.250 C 27.374 76.138, 25.999 77.825, 25.974 77 C 25.947 76.097, 25.361 76.495, 24.500 78 C 23.409 79.908, 23.062 80.086, 23.035 78.750 C 22.991 76.564, 22.166 76.540, 19.829 78.655 C 18.755 79.626, 18 79.838, 18 79.167 C 18 78.538, 16.987 78.131, 15.750 78.262 C 13.736 78.475, 13.512 78.081, 13.616 74.500 C 13.753 69.776, 17.218 60.264, 20.168 56.514 C 21.315 55.055, 25.010 51.598, 28.377 48.832 C 35.616 42.885, 40 37.477, 40 34.491 C 40 33.308, 41.123 30.125, 42.496 27.419 C 45.503 21.491, 45.547 21, 43.059 21 C 39.807 21, 39.759 19.176, 42.967 17.517 C 46.772 15.550, 46.785 14.457, 43.030 12.515 C 41.396 11.671, 39.557 10.041, 38.944 8.895 C 37.930 7.002, 38.042 6.875, 40.164 7.509 C 43.072 8.379, 50.705 12.713, 51.449 13.918 C 51.753 14.410, 52.789 14.624, 53.751 14.393 C 54.713 14.163, 56.157 14.402, 56.960 14.926 C 58.213 15.743, 58.158 16.168, 56.574 17.918 C 54.778 19.903, 54.779 19.974, 56.614 20.528 C 57.651 20.841, 60.075 21.870, 62 22.815 C 65.657 24.609, 65.905 25.659, 64.638 34 C 64.429 35.375, 64.200 37.257, 64.129 38.183 C 64.058 39.108, 63.100 40.151, 62 40.500 C 59.188 41.393, 59.501 42.883, 63.250 46.453 C 65.037 48.155, 67.271 50.887, 68.213 52.524 C 69.155 54.161, 70.885 56.677, 72.058 58.116 C 74.115 60.640, 74.130 60.847, 72.489 64.022 C 70.077 68.685, 70.314 76.401, 73.332 91.500 C 76.903 109.361, 78.768 123.367, 78.526 130.500 C 78.354 135.566, 77.980 136.673, 76.123 137.611 C 74.913 138.223, 73.323 139.543, 72.590 140.546 C 71.553 141.964, 70.118 142.317, 66.128 142.135 C 63.066 141.995, 61 142.324, 61 142.951 C 61 143.665, 73.173 144, 99.108 144 L 137.217 144 136.556 141.368 C 135.859 138.592, 132.862 135.506, 129.473 134.075 C 126.092 132.648, 125.098 124.081, 125.460 99.500 C 125.638 87.400, 126.091 75.700, 126.466 73.500 C 126.846 71.275, 126.636 67.503, 125.993 65 C 123.257 54.354, 122.824 55.633, 133.250 43.603 C 136.948 39.336, 137.930 37, 136.026 37 C 134.243 37, 131.760 30.994, 132.950 29.561 C 133.736 28.613, 133.613 27.924, 132.490 26.991 C 129.384 24.414, 133.110 18.647, 139.026 16.874 C 142.058 15.966, 143.095 14.928, 144.764 11.133 L 146.801 6.500 146.964 10.500 C 147.117 14.248, 147.192 14.343, 148.158 12 C 148.725 10.625, 149.303 9.050, 149.443 8.500 C 150.419 4.666, 151.143 4.154, 154.122 5.192 C 157.396 6.334, 157.474 8, 154.322 9.428 C 153.195 9.939, 151.724 11.875, 151.053 13.731 C 149.934 16.824, 150.038 17.311, 152.306 19.578 C 153.666 20.938, 155.230 23.277, 155.781 24.776 C 156.333 26.274, 157.511 29.525, 158.399 32 C 159.288 34.475, 162.521 39.425, 165.583 43 C 173.959 52.777, 175.709 56.316, 177.092 66.276 C 178.073 73.346, 178.061 75.518, 177.025 77.453 C 175.946 79.469, 175.444 79.670, 173.895 78.702 C 172.488 77.824, 171.759 77.841, 170.825 78.775 C 169.169 80.431, 168 80.318, 168 78.500 C 168 76.595, 166.599 76.574, 165.037 78.455 C 163.189 80.682, 159.887 78.297, 160.644 75.282 C 161.345 72.488, 160.320 68, 158.981 68 C 158.441 68, 158 68.900, 158 70 C 158 71.111, 157.333 72, 156.500 72 C 155.474 72, 155 73.028, 155 75.250 C 155.001 77.903, 156.300 79.878, 162.073 86 C 176.883 101.707, 179.949 107.186, 180.124 118.253 C 180.201 123.136, 179.859 124.302, 177.858 125.969 C 176.561 127.050, 174.576 127.948, 173.446 127.967 C 172.317 127.985, 169.866 129.575, 168 131.500 C 165.693 133.880, 163.700 135, 161.772 135 C 160.212 135, 157.375 135.652, 155.468 136.449 C 152.578 137.657, 152 138.410, 152 140.970 L 152 144.041 172.250 143.771 L 192.500 143.500 192.757 71.750 L 193.013 0 96.507 0 L 0 0 0 72 M 0.474 72.500 C 0.474 112.100, 0.598 128.154, 0.750 108.176 C 0.901 88.198, 0.901 55.798, 0.750 36.176 C 0.598 16.554, 0.474 32.900, 0.474 72.500 M 48.991 52.242 C 45.901 56.888, 45.738 57.254, 46.933 56.856 C 48.408 56.364, 52.498 50, 51.339 50 C 50.867 50, 49.810 51.009, 48.991 52.242 M 45.540 59.347 C 44.142 60.370, 44.002 60.883, 44.960 61.475 C 46.133 62.200, 47.948 60.565, 47.985 58.750 C 48.006 57.713, 47.659 57.798, 45.540 59.347 M 141.477 65.072 C 140.679 67.587, 141.687 73.688, 143.039 74.524 C 143.609 74.877, 144 72.882, 144 69.618 C 144 63.897, 142.632 61.433, 141.477 65.072 M 53.577 69.250 C 52.270 75.623, 52.026 78.898, 52.823 79.391 C 54.175 80.226, 56 75.380, 56 70.953 C 56 66.709, 54.337 65.541, 53.577 69.250 M 142.370 140.250 C 142.701 141.488, 142.979 142.838, 142.986 143.250 C 142.994 143.662, 143.636 144, 144.413 144 C 145.568 144, 145.620 143.452, 144.694 141 C 143.382 137.524, 141.474 136.908, 142.370 140.250" stroke="none" fill="black" fill-rule="evenodd"/>
</svg>