<svg xmlns="http://www.w3.org/2000/svg" width="192" height="144" viewBox="0 0 192 144" version="1.1">
	<path d="M 101.295 25.750 C 98.790 42.869, 96.729 52.556, 95.362 53.638 C 94.475 54.340, 93.761 57.256, 93.497 61.254 C 92.895 70.354, 87.103 94.711, 84.851 97.609 C 84.377 98.219, 83.369 100.778, 82.611 103.297 C 81.492 107.016, 81.476 107.969, 82.526 108.372 C 83.536 108.759, 83.167 111.884, 80.834 122.684 C 76.398 143.224, 76.323 144, 78.789 144 C 80.946 144, 81.262 143.127, 82.497 133.748 C 83.058 129.490, 83.318 129.100, 84.996 129.998 C 86.026 130.549, 90.303 131, 94.501 131 C 101.102 131, 102.577 130.662, 105.411 128.500 C 107.214 127.125, 108.955 126, 109.281 126 C 109.767 126, 107.803 134.201, 105.390 142.250 C 104.904 143.869, 106.149 144, 122.021 144 L 139.176 144 138.636 140.250 C 138.338 138.188, 137.820 132.450, 137.483 127.500 C 137.146 122.550, 136.165 116.592, 135.303 114.260 C 133.810 110.220, 133.864 109.492, 136.444 98.867 C 138.299 91.226, 139.434 82.992, 140.049 72.721 C 141.261 52.468, 140.307 46.585, 134.987 41.488 C 132.388 38.997, 131.246 38.641, 125.760 38.603 C 118.409 38.553, 114.754 40.131, 110.940 45 C 107.015 50.011, 106.699 51.984, 109.180 56.003 C 110.366 57.927, 111.455 60.504, 111.598 61.731 C 111.742 62.957, 112.566 64.970, 113.430 66.203 C 115.214 68.750, 115.481 71, 114 71 C 113.450 71, 113 70.315, 113 69.479 C 113 68.642, 111.839 67.428, 110.420 66.782 C 109.001 66.135, 106.923 63.782, 105.803 61.553 C 104.683 59.324, 103.082 56.721, 102.245 55.768 C 100.355 53.617, 100.818 49.746, 104.982 32.910 C 106.664 26.110, 107.820 19.973, 107.551 19.273 C 107.283 18.573, 106.020 18, 104.746 18 C 102.620 18, 102.336 18.640, 101.295 25.750 M 96.625 70.750 C 94.173 78.335, 91.145 91.163, 90.809 95.387 L 90.500 99.274 98.955 102.137 C 103.605 103.712, 107.767 105, 108.205 105 C 109.596 105, 109.060 99.531, 107.443 97.223 C 106.587 96, 105.218 95, 104.401 95 C 102.161 95, 97.002 83.301, 97.001 78.219 C 97 75.414, 97.497 73.747, 98.440 73.385 C 99.232 73.081, 100.629 71.688, 101.545 70.290 C 102.921 68.191, 102.975 67.599, 101.855 66.890 C 99.241 65.233, 98.148 66.040, 96.625 70.750 M 85.456 117.554 C 84.531 121.709, 84.019 125.353, 84.318 125.651 C 84.897 126.230, 89 113.737, 89 111.395 C 89 110.628, 88.581 110, 88.068 110 C 87.556 110, 86.380 113.399, 85.456 117.554" stroke="none" fill="black" fill-rule="evenodd"/>
</svg>