<svg xmlns="http://www.w3.org/2000/svg" width="192" height="144" viewBox="0 0 192 144" version="1.1">
	<path d="M 0 72 L 0 144 37 144 C 78.640 144, 76.389 144.489, 71.538 136.500 C 67.218 129.387, 66.292 127.548, 65.621 124.750 C 64.972 122.040, 65.032 122, 69.731 122.020 C 72.354 122.031, 77.605 122.488, 81.400 123.037 C 85.194 123.585, 88.506 123.827, 88.759 123.574 C 89.390 122.943, 81.402 99.712, 77.847 91.841 C 75.177 85.927, 75.911 81.243, 80.176 76.977 C 82.495 74.659, 82.990 73.590, 82.138 72.738 C 81.512 72.112, 81 69.726, 81 67.436 C 81 62.953, 77.883 58.705, 73.649 57.417 C 66.504 55.244, 64.122 47.575, 67.562 37.825 C 68.655 34.726, 68.695 33.484, 67.750 31.971 C 66.814 30.472, 66.819 29.781, 67.775 28.825 C 69.466 27.134, 69.311 24.057, 67.500 23.362 C 64.076 22.048, 66.579 19, 71.082 19 C 72.137 19, 73 18.321, 73 17.492 C 73 16.255, 73.345 16.199, 74.919 17.181 C 76.412 18.114, 77.161 18.111, 78.297 17.168 C 79.328 16.313, 80.510 16.243, 82.320 16.932 C 83.730 17.467, 88.397 18.221, 92.691 18.605 C 102.226 19.459, 107.552 21.624, 113.415 27.028 C 118.385 31.610, 120.549 36.750, 121.612 46.500 C 121.971 49.800, 122.882 53.212, 123.635 54.081 C 124.388 54.951, 124.679 55.987, 124.282 56.385 C 123.885 56.782, 123.693 58.658, 123.856 60.554 C 124.080 63.150, 123.765 64, 122.577 64 C 121.619 64, 121 64.864, 121 66.200 C 121 67.911, 120.733 68.133, 119.800 67.200 C 118.131 65.531, 116 65.700, 116 67.500 C 116 68.325, 115.287 69, 114.417 69 C 111.337 69, 113.717 71.501, 117.360 72.094 C 121.063 72.695, 122.207 73.699, 126.082 79.750 C 128.429 83.415, 129.013 83.797, 128.373 81.250 C 128.081 80.089, 128.921 78.946, 130.866 77.854 C 133.613 76.313, 133.800 75.818, 133.800 70.077 C 133.800 63.636, 135.037 61, 138.059 61 C 139.375 61, 139.959 60.107, 140.187 57.750 C 140.359 55.962, 140.950 54.725, 141.500 55 C 142.050 55.275, 142.387 56.318, 142.250 57.317 C 142.052 58.757, 142.447 58.993, 144.151 58.452 C 145.907 57.895, 146.181 58.087, 145.639 59.497 C 144.918 61.378, 148.170 67.436, 150.644 68.821 C 151.463 69.279, 152.522 71.194, 152.999 73.077 C 153.475 74.960, 154.161 77.468, 154.523 78.651 C 155.073 80.446, 154.685 80.910, 152.174 81.462 C 150.520 81.825, 148.908 82.798, 148.591 83.624 C 148.274 84.451, 147.570 84.852, 147.026 84.516 C 146.469 84.172, 145.752 85.700, 145.380 88.026 C 144.789 91.721, 144.481 92.087, 142.399 91.564 C 140.414 91.066, 139.478 91.883, 135.952 97.191 C 132.049 103.067, 131.926 103.473, 133.664 104.748 C 134.674 105.489, 135.365 106.943, 135.199 107.978 C 134.976 109.374, 136.074 110.382, 139.449 111.874 C 143.552 113.690, 144.522 114.821, 144.100 117.305 C 144.025 117.748, 144.634 119.067, 145.453 120.237 C 147.069 122.543, 145.998 125, 143.378 125 C 142.444 125, 142 126.251, 142 128.879 C 142 132.321, 141.634 132.904, 138.750 134.060 C 136.963 134.777, 134.022 136.631, 132.215 138.181 C 130.409 139.732, 128.496 141, 127.965 141 C 127.434 141, 127 141.681, 127 142.514 C 127 143.840, 131.058 143.995, 159.750 143.764 L 192.500 143.500 192.757 71.750 L 193.013 0 96.507 0 L 0 0 0 72 M 0.474 72.500 C 0.474 112.100, 0.598 128.154, 0.750 108.176 C 0.901 88.198, 0.901 55.798, 0.750 36.176 C 0.598 16.554, 0.474 32.900, 0.474 72.500 M 91.761 70.573 C 91.377 70.956, 90.074 71.322, 88.864 71.385 C 85.836 71.543, 85.175 74.004, 88.167 73.985 C 91.135 73.965, 93.358 72.574, 92.851 71.053 C 92.635 70.405, 92.144 70.189, 91.761 70.573" stroke="none" fill="black" fill-rule="evenodd"/>
</svg>