<svg xmlns="http://www.w3.org/2000/svg" width="192" height="144" viewBox="0 0 192 144" version="1.1">
	<path d="M 74.808 47.525 C 74.519 47.814, 75.148 51.077, 76.206 54.775 C 77.415 59.002, 78.149 64.768, 78.184 70.298 C 78.225 77.049, 78.617 79.473, 79.869 80.717 C 81.788 82.626, 86.009 102.645, 85.055 105.316 C 84.699 106.314, 84.846 110.065, 85.382 113.651 C 86.074 118.286, 85.987 123.188, 85.080 130.614 C 83.485 143.659, 83.688 144, 93.035 144 L 99.824 144 100.502 139.991 C 101.056 136.711, 100.708 135.177, 98.589 131.562 C 95.328 125.997, 95.351 125.380, 98.849 124.680 C 103.792 123.692, 105.099 120.340, 104.058 111.316 C 103.563 107.017, 102.432 100.800, 101.545 97.500 C 100.017 91.816, 99.887 89.197, 100.216 70.844 C 100.318 65.146, 99.918 62.524, 98.653 60.594 C 95.049 55.092, 86.024 59.371, 87.341 65.957 C 88.049 69.497, 86.717 69.892, 83.198 67.184 C 81.026 65.513, 80.509 63.904, 77.434 49.250 C 76.982 47.096, 75.929 46.404, 74.808 47.525 M 185.770 63.520 C 178.062 69.175, 178.184 72.992, 186.349 81.682 L 191.500 87.164 192.030 108.332 L 192.560 129.500 192.773 101.500 C 192.977 74.599, 192.389 59.972, 191.105 60.025 C 190.772 60.038, 188.372 61.611, 185.770 63.520 M 1.120 99.750 C 1.237 128.669, 1.352 129.517, 3.621 118.143 C 4.009 116.200, 4.566 115.873, 6.796 116.279 C 8.283 116.550, 10.983 117.379, 12.795 118.122 C 15.631 119.284, 16.221 119.266, 17.030 117.986 C 18.710 115.329, 18.066 114.054, 14.250 112.481 C 8.068 109.932, 7.660 108.616, 11.004 101.992 C 13.558 96.933, 14.597 92.378, 14.139 88.250 C 14.062 87.559, 12.659 87, 11 87 C 8.449 87, 8 86.617, 8 84.443 C 8 81.049, 5.963 72.821, 4.733 71.250 C 4.195 70.563, 3.135 70, 2.378 70 C 1.236 70, 1.021 75.089, 1.120 99.750 M 84.503 79.991 C 83.821 82.138, 84.544 84, 86.059 84 C 86.577 84, 87 82.650, 87 81 C 87 77.605, 85.458 76.982, 84.503 79.991 M 85.100 89.750 C 85.155 90.713, 85.560 92.625, 86 94 C 86.680 96.124, 86.816 95.860, 86.900 92.250 C 86.955 89.912, 86.550 88, 86 88 C 85.450 88, 85.045 88.787, 85.100 89.750" stroke="none" fill="black" fill-rule="evenodd"/>
</svg>