<svg xmlns="http://www.w3.org/2000/svg" width="192" height="144" viewBox="0 0 192 144" version="1.1">
	<path d="M 0 72 L 0 144 34.214 144 C 66.798 144, 68.345 143.917, 66.682 142.250 C 65.722 141.287, 63.488 140.012, 61.718 139.416 C 59.948 138.820, 58.032 137.406, 57.461 136.273 C 56.889 135.140, 55.811 133.477, 55.064 132.577 C 53.900 131.175, 54 130.625, 55.766 128.721 C 56.898 127.499, 57.977 125.404, 58.162 124.064 C 58.566 121.149, 64.237 117.583, 77.736 111.755 C 86.715 107.878, 96 100.947, 96 98.121 C 96 97.440, 95.662 97.090, 95.250 97.344 C 94.837 97.597, 94.380 96.177, 94.234 94.186 C 94.087 92.196, 93.525 90.125, 92.984 89.584 C 91.440 88.040, 91.833 78.223, 93.574 74.857 C 94.439 73.184, 94.905 71.572, 94.609 71.276 C 94.314 70.980, 90.793 70.535, 86.786 70.286 C 81.648 69.968, 76.949 68.825, 70.847 66.412 C 66.088 64.529, 60.688 62.703, 58.847 62.354 C 50.818 60.830, 50.145 58.004, 57.809 57.993 C 60.389 57.989, 66.241 57.089, 70.813 55.993 C 75.386 54.897, 81.273 54, 83.897 54 C 89.242 54, 90.510 53.319, 88.862 51.334 C 88.168 50.497, 88.009 48.558, 88.444 46.242 C 88.831 44.184, 89.093 40.392, 89.027 37.816 C 88.907 33.134, 89.771 31.395, 94.480 26.839 C 98.949 22.514, 106.287 23.285, 110.924 28.566 C 112.616 30.493, 114.053 32.616, 114.118 33.285 C 114.182 33.953, 114.337 37.505, 114.461 41.178 C 114.673 47.474, 114.524 47.976, 111.843 49.958 C 110.279 51.114, 109 52.641, 109 53.350 C 109 54.060, 111.918 56.980, 115.485 59.838 C 119.052 62.697, 122.222 66.040, 122.530 67.268 C 122.838 68.495, 122.388 71.487, 121.531 73.916 C 120.088 78.003, 120.226 83.717, 121.834 86.482 C 122.148 87.023, 122.476 88.148, 122.562 88.982 C 122.648 89.817, 123.660 95.675, 124.811 102 C 125.962 108.325, 127.375 117.550, 127.949 122.500 C 128.524 127.450, 129.498 134.319, 130.113 137.764 L 131.232 144.029 161.866 143.764 L 192.500 143.500 192.757 71.750 L 193.013 0 96.507 0 L 0 0 0 72 M 0.474 72.500 C 0.474 112.100, 0.598 128.154, 0.750 108.176 C 0.901 88.198, 0.901 55.798, 0.750 36.176 C 0.598 16.554, 0.474 32.900, 0.474 72.500 M 99.382 87.865 C 98.847 89.866, 98.665 92.580, 98.975 93.895 C 99.533 96.259, 99.579 96.243, 102.770 92.609 C 106.738 88.090, 106.826 86.484, 103.176 85.211 C 100.492 84.276, 100.305 84.407, 99.382 87.865" stroke="none" fill="black" fill-rule="evenodd"/>
</svg>