<svg xmlns="http://www.w3.org/2000/svg" width="192" height="144" viewBox="0 0 192 144" version="1.1">
	<path d="M 63.364 5.750 C 64.139 12.908, 62.071 23.127, 58.171 31.412 C 50.413 47.892, 32.067 59.374, 13.500 59.368 C 9.100 59.366, 4.263 59.049, 2.750 58.663 L 0 57.962 0 100.981 L 0 144 52.871 144 L 105.742 144 106.437 138.761 C 106.820 135.880, 108.885 128.117, 111.027 121.511 C 113.169 114.905, 115.832 104.675, 116.945 98.778 C 119.393 85.812, 118.912 79.643, 115.265 77.254 C 113.307 75.971, 112.899 74.992, 113.210 72.327 C 113.662 68.457, 113.809 68.530, 109.773 70.617 C 107.143 71.977, 106.474 72.017, 105.572 70.865 C 104.941 70.058, 102.034 69.357, 98.500 69.160 C 95.200 68.976, 88.322 68.257, 83.216 67.563 C 75.105 66.459, 73.825 66.490, 73.090 67.804 C 71.950 69.840, 69 68.587, 69 66.067 C 69 62.697, 71.844 62.121, 84.926 62.840 C 94.787 63.382, 97.911 63.222, 100.392 62.052 C 102.101 61.245, 103.788 60.170, 104.139 59.663 C 104.491 59.155, 106.243 58.955, 108.034 59.218 C 112.241 59.836, 120.005 58.179, 119.983 56.669 C 119.973 56.026, 118.848 54.440, 117.483 53.145 C 116.117 51.850, 115 50.214, 115 49.510 C 115 48.806, 113.830 47.464, 112.401 46.527 C 110.194 45.081, 109.873 44.271, 110.271 41.162 C 110.594 38.642, 110.131 36.486, 108.789 34.250 C 106.992 31.258, 106.970 30.949, 108.519 30.354 C 111.068 29.376, 126.608 32.084, 129.886 34.077 C 131.763 35.218, 133.370 37.519, 134.488 40.665 C 135.433 43.324, 137.060 47.136, 138.103 49.136 C 139.303 51.436, 140 54.818, 140 58.337 C 140 61.398, 140.655 66.416, 141.455 69.487 C 142.255 72.559, 142.680 75.670, 142.400 76.400 C 142.120 77.129, 142.580 83.976, 143.423 91.615 C 144.265 99.254, 144.698 107.086, 144.384 109.020 C 143.938 111.771, 144.722 114.596, 147.993 122.018 C 150.292 127.233, 153.129 134.322, 154.297 137.772 L 156.422 144.043 174.461 143.772 L 192.500 143.500 192.825 129 C 193.003 121.025, 192.837 88.737, 192.455 57.250 L 191.761 0 127.251 -0 L 62.742 -0 63.364 5.750 M 0.459 101 C 0.459 124.925, 0.589 134.713, 0.749 122.750 C 0.908 110.788, 0.908 91.213, 0.749 79.250 C 0.589 67.288, 0.459 77.075, 0.459 101" stroke="none" fill="black" fill-rule="evenodd"/>
</svg>