<svg xmlns="http://www.w3.org/2000/svg" width="192" height="144" viewBox="0 0 192 144" version="1.1">
	<path d="M 0 72 L 0 144 70 144 C 108.500 144, 140 143.722, 140 143.382 C 140 142.040, 125.482 115.345, 120.339 107.231 C 118.503 104.332, 117 101.765, 117 101.525 C 117 101.284, 115.649 98.797, 113.998 95.996 C 112.347 93.196, 109.422 86.383, 107.498 80.856 C 103.597 69.649, 102.876 59.831, 105.416 52.500 C 106.630 48.994, 107.225 48.463, 110.232 48.200 C 114.378 47.837, 123.618 52.403, 133.309 59.602 C 138.403 63.386, 140.836 66.127, 144.009 71.653 C 147.674 78.039, 155.419 96, 154.507 96 C 153.827 96, 158.807 107.551, 166.892 124.727 C 171.351 134.203, 175 142.433, 175 143.016 C 175 143.706, 178.064 143.977, 183.750 143.789 L 192.500 143.500 192.757 71.750 L 193.013 0 96.507 0 L 0 0 0 72 M 0.474 72.500 C 0.474 112.100, 0.598 128.154, 0.750 108.176 C 0.901 88.198, 0.901 55.798, 0.750 36.176 C 0.598 16.554, 0.474 32.900, 0.474 72.500" stroke="none" fill="black" fill-rule="evenodd"/>
</svg>