<svg xmlns="http://www.w3.org/2000/svg" width="192" height="144" viewBox="0 0 192 144" version="1.1">
	<path d="M 81.181 8.919 C 82.125 10.430, 82.101 11.174, 81.067 12.419 C 80.346 13.288, 79.135 14, 78.378 14 C 77.620 14, 77 14.343, 77 14.763 C 77 15.183, 74.591 17.408, 71.646 19.708 C 67.979 22.572, 65.652 23.722, 64.259 23.357 C 61.312 22.587, 60.730 24.366, 62.627 28.344 C 63.953 31.125, 64.084 32.626, 63.279 35.799 C 62.397 39.275, 62.548 40.130, 64.490 42.636 C 65.711 44.211, 67.260 47.188, 67.933 49.250 C 68.680 51.542, 69.805 53.025, 70.828 53.063 C 74.868 53.217, 68.033 54.790, 60.393 55.466 L 52.287 56.183 51.668 53.091 C 51.088 50.192, 50.774 50, 46.596 50 C 44.147 50, 41.548 50.588, 40.821 51.306 C 40.095 52.024, 38.739 52.900, 37.808 53.252 C 35.596 54.090, 32.650 58.624, 33.463 59.940 C 33.813 60.506, 35.539 61.351, 37.299 61.819 C 40.291 62.615, 40.479 62.925, 40.177 66.571 C 40 68.716, 39.465 70.712, 38.990 71.006 C 37.678 71.817, 36 76.789, 36 79.865 C 36 81.369, 35.490 83.110, 34.867 83.733 C 33.242 85.358, 34.572 88, 37.016 88 C 38.160 88, 40.161 86.850, 41.464 85.444 C 42.767 84.038, 44.658 82.953, 45.666 83.031 C 50.928 83.442, 60.132 83.421, 64.983 82.989 C 69.890 82.551, 70.499 82.710, 70.784 84.500 C 70.960 85.600, 71.586 87.476, 72.177 88.669 C 73.041 90.413, 72.835 91.423, 71.127 93.822 C 68.051 98.141, 57.266 122.853, 56.009 128.459 C 55.421 131.085, 55.183 134, 55.480 134.938 C 55.778 135.875, 58.716 137.931, 62.011 139.505 C 65.305 141.080, 68 142.735, 68 143.184 C 68 143.633, 73.611 144, 80.470 144 C 94.138 144, 98.053 142.803, 102.745 137.187 C 105.555 133.824, 105.546 133.195, 102.552 123.763 C 101.206 119.520, 99.825 114.126, 99.483 111.775 C 98.533 105.232, 97.073 98.799, 95.835 95.700 C 95.003 93.620, 95.011 92.334, 95.865 90.700 C 96.750 89.008, 96.669 86.421, 95.518 79.500 C 93.677 68.436, 92.504 62.318, 91.556 58.848 C 90.916 56.503, 91.161 56.127, 93.666 55.602 C 101.161 54.031, 111.636 53.029, 114.649 53.594 C 117.308 54.093, 118 53.894, 118 52.634 C 118 51.761, 116.983 50.380, 115.739 49.565 C 113.757 48.266, 112.494 48.259, 105.489 49.507 C 93.887 51.574, 94.126 51.622, 94.390 47.250 C 94.515 45.188, 94.252 41.510, 93.806 39.078 C 93.182 35.668, 93.364 34.093, 94.603 32.202 C 95.937 30.166, 95.980 29.595, 94.855 28.846 C 91.939 26.903, 91.361 26.331, 87.191 21.250 C 84.483 17.952, 83.172 15.536, 83.662 14.750 C 85.764 11.382, 84.468 7, 81.369 7 C 80.253 7, 80.216 7.374, 81.181 8.919 M 0 72.012 L 0 127.093 4.926 126.662 C 10.591 126.166, 10.832 126.495, 13.045 137.750 L 14.273 144 18.744 144 C 22.592 144, 23.120 143.757, 22.538 142.250 C 22.166 141.287, 21.811 137.206, 21.750 133.179 L 21.639 125.858 28.810 122.389 C 35.997 118.913, 41 113.767, 41 109.850 C 41 108.922, 38.935 105.764, 36.412 102.832 C 33.889 99.899, 30.008 93.900, 27.788 89.500 C 25.567 85.100, 22.867 80.250, 21.787 78.722 C 20.173 76.437, 20.008 75.416, 20.860 72.973 C 21.852 70.127, 20.959 60.361, 19.490 57.984 C 18.597 56.539, 23.535 54.957, 26.861 55.622 C 29.899 56.230, 36 53.747, 36 51.904 C 36 51.329, 34.309 48.753, 32.243 46.179 C 30.177 43.606, 27.923 40.487, 27.235 39.250 C 26.058 37.135, 26.166 37, 29.037 37 C 32.306 37, 37 33.229, 37 30.603 C 37 29.784, 36.042 27.491, 34.871 25.506 C 32.911 22.183, 32.418 21.921, 28.654 22.199 C 25.281 22.447, 24.166 23.095, 22.283 25.898 C 21.027 27.767, 20 28.806, 20 28.208 C 20 27.610, 18.313 26.981, 16.250 26.810 C 12.717 26.518, 12.517 26.321, 12.793 23.408 C 13.164 19.492, 11.784 18.429, 5.250 17.599 L 0 16.931 0 72.012" stroke="none" fill="black" fill-rule="evenodd"/>
</svg>