<svg xmlns="http://www.w3.org/2000/svg" width="192" height="144" viewBox="0 0 192 144" version="1.1">
	<path d="M 0 72 L 0 144 16.639 144 L 33.279 144 32.690 139.029 C 32.307 135.800, 30.353 130.805, 27.114 124.779 C 24.371 119.675, 21.011 112.125, 19.646 108 C 14.080 91.176, 13.567 63.719, 18.452 44.101 C 20.846 34.487, 20.919 33.568, 19.423 31.914 C 17.323 29.594, 18.376 28, 22.007 28 C 25.728 28, 39.787 32.440, 47.500 36.051 C 50.800 37.596, 58.373 40.129, 64.328 41.680 C 74.549 44.342, 75.228 44.402, 76.438 42.750 C 77.144 41.788, 78.168 41, 78.714 41 C 79.527 41, 87.253 33.437, 97.250 22.853 C 98.213 21.834, 99.743 21, 100.650 21 C 101.558 21, 104.717 19.818, 107.671 18.373 C 114.109 15.223, 118.101 15.542, 124.928 19.751 C 128.585 22.007, 129.562 23.202, 129.809 25.730 C 129.979 27.468, 129.407 29.976, 128.537 31.304 C 127.259 33.254, 127.202 33.923, 128.241 34.785 C 129.066 35.470, 129.392 37.533, 129.153 40.548 C 128.864 44.174, 128.336 45.361, 126.837 45.753 C 125.542 46.092, 124.996 46.966, 125.198 48.380 C 125.425 49.973, 126.866 50.942, 131 52.281 C 134.025 53.260, 137.508 55.192, 138.740 56.574 C 140.646 58.714, 142.936 59.428, 154.152 61.380 C 162.618 62.853, 168.688 63.423, 171.140 62.974 C 175.383 62.198, 184.242 63.842, 186.160 65.760 C 186.842 66.442, 188.435 67, 189.700 67 C 191.516 67, 192 67.553, 192 69.625 C 192 72.006, 191.722 72.194, 189.012 71.652 C 186.455 71.141, 185.812 71.463, 184.563 73.879 C 181.943 78.944, 176.551 82.556, 163.742 87.822 C 150.118 93.424, 148.361 93.755, 144.068 91.535 C 141.284 90.096, 141.225 90.123, 140.618 93.160 C 139.528 98.611, 139.949 101.512, 142.097 103.351 C 143.371 104.442, 144 105.890, 143.700 107.039 C 143.411 108.146, 144.588 111.126, 146.536 114.216 C 155.231 128.011, 155.320 128.184, 154.121 128.925 C 153.228 129.477, 153.375 131.422, 154.719 136.845 L 156.500 144.034 174.500 143.767 L 192.500 143.500 192.757 71.750 L 193.013 0 96.507 0 L 0 0 0 72 M 0.474 72.500 C 0.474 112.100, 0.598 128.154, 0.750 108.176 C 0.901 88.198, 0.901 55.798, 0.750 36.176 C 0.598 16.554, 0.474 32.900, 0.474 72.500 M 42.307 44.750 C 38.051 54.785, 35.844 65.578, 35.290 79.073 C 34.578 96.425, 35.692 102.705, 42.587 120.221 C 48.244 134.592, 48.339 135.309, 45.501 142.250 C 44.888 143.752, 45.379 144, 48.964 144 C 52.353 144, 54.025 143.264, 57.821 140.101 C 60.394 137.957, 71.557 131.614, 82.627 126.007 C 99.322 117.549, 103.713 114.860, 108.377 110.232 C 111.470 107.164, 114 103.934, 114 103.055 C 114 102.175, 110.625 98.639, 106.500 95.197 C 99.733 89.550, 99 88.588, 99 85.364 C 99 83.047, 100.056 80.226, 102 77.345 C 103.650 74.900, 105 71.662, 105 70.150 C 105 68.637, 105.562 66.794, 106.250 66.053 C 107.277 64.946, 107.143 64.834, 105.500 65.423 C 100.189 67.327, 98.349 67.165, 95.199 64.514 C 92.737 62.442, 92.104 61.199, 92.354 58.921 C 92.530 57.310, 92.973 55.694, 93.337 55.329 C 95.101 53.566, 93.653 52.825, 89.623 53.429 C 86.223 53.939, 85.118 53.751, 84.671 52.584 C 84.354 51.759, 81.711 50.430, 78.797 49.631 C 75.884 48.832, 67.774 46.564, 60.775 44.589 C 53.776 42.615, 47.115 41, 45.974 41 C 44.525 41, 43.418 42.132, 42.307 44.750 M 140.013 64.250 C 140.020 64.388, 141.370 67.151, 143.013 70.391 C 144.656 73.631, 146 77.063, 146 78.018 C 146 81.733, 148.261 81.785, 159.250 78.323 C 168.899 75.283, 170 74.696, 170 72.591 C 170 71.300, 169.438 69.800, 168.750 69.256 C 166.948 67.829, 139.956 63.127, 140.013 64.250 M 109.521 82.976 C 107.754 84.930, 107.753 85.070, 109.500 87 C 111.972 89.732, 113.003 89.510, 112.985 86.250 C 112.960 81.821, 111.670 80.602, 109.521 82.976" stroke="none" fill="black" fill-rule="evenodd"/>
</svg>