<svg xmlns="http://www.w3.org/2000/svg" width="192" height="144" viewBox="0 0 192 144" version="1.1">
	<path d="M 110.790 1.964 C 109.940 3.326, 108.880 3.757, 107.335 3.369 C 106.109 3.062, 103.490 3.343, 101.514 3.995 C 98.883 4.864, 97.566 4.885, 96.589 4.074 C 93.473 1.488, 79.311 2.894, 76.430 6.077 C 74.893 7.776, 74.836 8.473, 75.957 11.868 C 76.657 13.992, 78.433 17.927, 79.903 20.614 C 82.053 24.544, 83.035 25.449, 84.919 25.239 C 87.127 24.992, 87.234 25.233, 86.763 29.406 C 86.405 32.586, 86.699 34.270, 87.806 35.377 C 89.138 36.710, 89.168 37.460, 88.029 40.913 C 87.218 43.370, 86.941 46.858, 87.311 49.974 C 87.986 55.674, 85.434 68, 83.579 68 C 82.955 68, 81.486 68.672, 80.314 69.493 C 78.454 70.795, 78.312 71.406, 79.198 74.292 C 80.076 77.153, 79.721 78.787, 76.568 86.405 C 74.563 91.248, 71.592 97.846, 69.966 101.068 C 67.502 105.949, 67.191 107.325, 68.102 109.324 C 68.953 111.193, 68.842 112.405, 67.597 114.812 C 66.719 116.511, 66 118.753, 66 119.795 C 66 122.076, 69.005 125, 71.350 125 C 72.281 125, 73.528 126.237, 74.122 127.750 C 74.715 129.262, 76.047 132.406, 77.081 134.736 C 78.491 137.915, 78.722 139.601, 78.005 141.486 L 77.050 144 112.150 144 L 147.250 144 146.557 140.750 C 146.176 138.963, 145.674 133.798, 145.440 129.274 C 145.207 124.750, 144.917 120.700, 144.796 120.274 C 144.674 119.848, 145.145 118.472, 145.841 117.216 C 146.962 115.193, 146.534 113.686, 142.077 103.975 C 139.311 97.949, 136.363 90.065, 135.526 86.456 C 134.188 80.687, 134.180 79.552, 135.462 77.073 C 137.103 73.900, 136.661 73, 133.463 73 C 131.464 73, 131.193 72.341, 130.562 65.933 C 129.875 58.960, 129.457 58.160, 124.729 54.767 C 122.531 53.190, 122.316 48.842, 123.958 39.187 C 125.017 32.962, 125.559 31.738, 127.601 30.962 C 130.514 29.854, 130.602 28.430, 128 24.500 C 125.416 20.599, 125.478 20.194, 128.710 19.816 C 132.030 19.429, 132.763 17.230, 132.900 7.250 L 133 0 122.508 0 C 113.164 0, 111.883 0.215, 110.790 1.964 M 121.052 93.500 C 120.616 99.191, 121.152 106.503, 122.075 107.450 C 123.164 108.568, 123.150 104.019, 122.042 96 C 121.527 92.277, 121.207 91.469, 121.052 93.500" stroke="none" fill="black" fill-rule="evenodd"/>
</svg>