<svg xmlns="http://www.w3.org/2000/svg" width="192" height="144" viewBox="0 0 192 144" version="1.1">
	<path d="M 0 72 L 0 144 15.001 144 L 30.002 144 27.016 138.250 C 25.373 135.088, 22.455 129.072, 20.532 124.882 C 18.187 119.775, 15.874 116.379, 13.517 114.581 C 11.583 113.105, 10 111.246, 10 110.449 C 10 109.652, 9.550 109, 9 109 C 6.944 109, 8.095 107.014, 10.500 106.411 C 11.875 106.066, 13 105.664, 13 105.517 C 13 105.371, 12.325 103.338, 11.500 101 C 9.438 95.155, 9.621 87.446, 12 80 C 13.100 76.557, 14 73.004, 14 72.105 C 14 71.206, 13.100 68.791, 12 66.739 C 9.548 62.163, 9.507 61.112, 11.750 60.317 C 17.315 58.343, 18.410 52.834, 15.476 41.571 C 13.848 35.318, 13.707 35.889, 18.478 29.387 C 19.617 27.834, 16.612 25.083, 13.719 25.032 C 12.739 25.014, 11.651 24.212, 11.302 23.250 C 10.952 22.288, 9.153 19.796, 7.302 17.713 C 4.148 14.162, 4.034 13.790, 5.469 11.741 C 7.558 8.758, 7.390 6.261, 5 4.768 C 3.900 4.081, 3 2.727, 3 1.759 C 3 0.792, 2.325 0, 1.500 0 C 0.181 0, 0 8.667, 0 72 M 123.238 22.377 C 122.660 23.646, 122.556 25.281, 123.006 26.010 C 123.958 27.550, 122.347 30.292, 117.423 35.512 C 113.452 39.723, 113.214 41.028, 116.089 42.823 C 117.878 43.941, 118.116 44.871, 117.746 49.314 C 117.508 52.166, 116.687 55.983, 115.921 57.795 C 114.724 60.626, 114.728 61.214, 115.949 61.969 C 117.095 62.676, 117.129 63.140, 116.126 64.348 C 115.117 65.564, 115.262 66.593, 116.893 69.790 C 117.999 71.959, 120.101 75.155, 121.564 76.893 C 125.210 81.226, 126.196 86.192, 124.415 91.242 C 123.141 94.852, 123.163 95.399, 124.622 96.465 C 126.097 97.544, 125.955 98.264, 123.126 104.064 C 121.407 107.587, 120 111.691, 120 113.184 C 120 115.763, 115.698 138.225, 114.453 142.148 C 113.892 143.915, 114.950 144, 137.500 144 C 159.540 144, 161.100 143.882, 160.616 142.250 C 160.330 141.287, 158.227 133.750, 155.943 125.500 C 153.658 117.250, 150.641 108.142, 149.238 105.261 C 146.765 100.183, 146.737 99.906, 148.320 96.261 C 150.741 90.691, 152.290 83.431, 151.789 80.013 C 151.393 77.320, 151.620 77.005, 153.923 77.042 C 155.340 77.066, 159.627 78.159, 163.449 79.471 C 168.428 81.180, 170.910 81.584, 172.199 80.893 C 174.318 79.759, 174.501 76.245, 172.574 73.704 C 170.863 71.448, 171.602 68.489, 174.632 65.459 C 176.011 64.080, 176.734 62.469, 176.383 61.556 C 175.019 58.001, 181.706 60.405, 185.584 64.863 C 187.464 67.024, 188.206 67.300, 189.689 66.395 C 191.149 65.504, 191.556 63.738, 191.788 57.299 C 192.112 48.305, 190.901 45.912, 187.064 47.966 C 185.929 48.573, 185 49.456, 185 49.927 C 185 51.108, 177.514 54, 174.455 54 C 172.738 54, 171.666 53.252, 171.047 51.623 C 170.550 50.315, 168.804 48.779, 167.168 48.208 C 164.684 47.342, 163.844 47.497, 162.074 49.145 C 160.909 50.231, 160.209 51.529, 160.519 52.030 C 161.275 53.254, 157.837 53.987, 150.035 54.268 C 144.571 54.464, 143.515 54.229, 143.212 52.751 C 143.015 51.789, 143.787 49.815, 144.927 48.366 C 147.137 45.556, 147.728 39.568, 145.906 38.442 C 144.836 37.780, 145.049 35.142, 146.438 31.856 C 146.947 30.652, 146.271 29.783, 143.913 28.606 C 140.393 26.851, 137 26.493, 137 27.878 C 137 28.361, 135.425 28.042, 133.500 27.170 C 131.575 26.297, 130 25.258, 130 24.860 C 130 24.462, 128.715 23.221, 127.145 22.103 L 124.289 20.070 123.238 22.377 M 141.511 58.368 C 139.699 59.693, 139.706 59.773, 141.754 60.868 C 144.295 62.228, 149 62.367, 149 61.082 C 149 57.108, 145.144 55.711, 141.511 58.368 M 152 59.941 C 152 62.775, 153.599 63.309, 156.463 61.432 C 159.529 59.423, 158.898 58, 154.941 58 C 152.696 58, 152 58.460, 152 59.941 M 170 62.333 C 170 63.617, 170.583 64.667, 171.296 64.667 C 172.008 64.667, 172.678 63.617, 172.784 62.333 C 172.907 60.847, 172.437 60, 171.489 60 C 170.596 60, 170 60.934, 170 62.333" stroke="none" fill="black" fill-rule="evenodd"/>
</svg>