<svg xmlns="http://www.w3.org/2000/svg" width="192" height="144" viewBox="0 0 192 144" version="1.1">
	<path d="M 103.020 36.448 C 102.508 37.794, 100.936 39.651, 99.527 40.574 C 97.548 41.871, 97.219 42.559, 98.079 43.596 C 99.137 44.870, 99.052 46.592, 97.440 56.587 C 96.784 60.652, 98.899 67, 100.909 67 C 102.054 67, 103.133 71.283, 102.160 71.964 C 101.739 72.259, 100.325 74.300, 99.017 76.500 C 97.710 78.700, 94.921 82.696, 92.820 85.381 C 88.010 91.526, 87.951 93.491, 92.526 95.146 C 95.052 96.059, 95.881 96.858, 95.449 97.960 C 95.117 98.807, 94.187 103.550, 93.382 108.500 C 92.577 113.450, 91.487 117.650, 90.959 117.833 C 90.432 118.017, 90 118.783, 90 119.536 C 90 120.782, 95.605 122.981, 98.817 122.994 C 99.691 122.998, 99.915 123.693, 99.482 125.056 C 98.770 127.300, 102.872 132, 105.543 132 C 106.335 132, 107.545 132.900, 108.232 134 C 108.919 135.100, 110.078 136, 110.808 136 C 111.680 136, 111.917 136.686, 111.500 138 C 110.959 139.703, 111.320 140, 113.933 140 C 117.149 140, 118.064 138.622, 115.500 137.638 C 113.052 136.699, 113.786 134.029, 116.994 132.203 C 120.637 130.130, 120.690 129.544, 117.500 126.588 C 116.125 125.313, 115 123.774, 115 123.166 C 115 122.559, 114.137 120.360, 113.083 118.281 C 110.663 113.509, 110.430 100.689, 112.571 90.133 C 113.591 85.105, 113.893 79.720, 113.522 73.172 C 113.116 66.024, 113.267 63.867, 114.111 64.711 C 114.734 65.334, 115.864 65.606, 116.622 65.315 C 118.129 64.737, 118.550 61, 117.108 61 C 116.618 61, 115.931 59.860, 115.581 58.466 C 115.231 57.072, 113.846 55.431, 112.504 54.820 C 111.161 54.208, 110.330 53.276, 110.656 52.748 C 110.982 52.220, 111.315 49.473, 111.396 46.644 C 111.509 42.697, 111.116 41.186, 109.708 40.149 C 108.699 39.406, 107.463 37.719, 106.962 36.399 C 105.791 33.321, 104.201 33.340, 103.020 36.448 M 161.160 35.957 C 160.971 37.675, 154.037 43.953, 152.297 43.981 C 151.202 43.998, 151.273 50.080, 152.438 56.137 C 152.681 57.395, 151.472 58.031, 147.210 58.887 C 139.414 60.452, 136.933 60.286, 134.538 58.035 C 133.204 56.783, 131.665 56.275, 130.292 56.634 C 126.518 57.621, 126.185 62, 129.885 62 C 130.856 62, 132.738 63.156, 134.066 64.570 C 136.079 66.713, 137.213 67.086, 140.896 66.820 C 145.105 66.515, 145.364 66.654, 146.428 69.800 C 147.041 71.615, 148.051 73.415, 148.672 73.800 C 150.569 74.977, 150.530 77.353, 148.563 80.500 C 147.532 82.150, 145.702 85.075, 144.497 87 C 137.927 97.498, 137.989 99.338, 145.020 102.509 C 148.668 104.154, 149.089 104.682, 148.557 106.938 C 148.224 108.347, 147.712 112.425, 147.418 116 C 146.625 125.636, 146.243 126.825, 143.827 127.181 C 139.773 127.777, 140.310 129.800, 145.500 133.490 C 147.313 134.780, 146.915 134.907, 141.239 134.849 C 136.845 134.804, 134.171 135.313, 132.273 136.557 L 129.569 138.328 131.806 139.326 C 133.509 140.087, 134.335 139.957, 135.271 138.782 C 137.026 136.579, 141.037 135.895, 145.299 137.072 C 148.960 138.083, 151.640 141.156, 150.487 143.021 C 150.107 143.636, 153.768 144, 160.334 144 C 168.942 144, 170.893 143.721, 171.393 142.418 C 172.263 140.151, 172.297 140.205, 168.910 138.454 C 166.046 136.972, 165.936 136.728, 167.410 135.099 C 169.668 132.604, 169.405 131.425, 166.059 129.042 C 162.107 126.228, 161.577 123.967, 163.400 117.695 C 164.283 114.660, 164.690 110.863, 164.355 108.797 C 163.863 105.770, 164.124 105.004, 165.985 104.008 C 167.551 103.170, 168.052 102.191, 167.694 100.661 C 167.417 99.473, 166.101 94.225, 164.771 89 C 162.121 78.589, 162.048 71.383, 164.553 67.560 C 165.789 65.674, 165.896 64.674, 165.036 63.067 C 163.992 61.117, 164.190 61, 168.524 61 C 171.527 61, 172.889 60.630, 172.458 59.932 C 172.095 59.345, 170.227 59.076, 168.308 59.334 C 165.100 59.767, 164.876 59.631, 165.533 57.652 C 165.926 56.469, 166.304 53.264, 166.374 50.532 C 166.471 46.690, 166.003 45.028, 164.307 43.198 C 163.101 41.896, 161.935 39.407, 161.717 37.666 C 161.499 35.924, 161.248 35.155, 161.160 35.957 M 44.878 38.595 C 44.119 40.193, 41.939 42.278, 40.035 43.229 C 36.821 44.833, 36.594 45.256, 36.871 49.100 C 37.036 51.378, 38.062 54.830, 39.152 56.771 C 40.705 59.536, 40.857 60.470, 39.853 61.091 C 38.623 61.851, 38.258 63.817, 38.081 70.635 C 38.008 73.473, 37.550 73.913, 33.250 75.286 C 25.101 77.887, 22.018 78.250, 18.934 76.973 C 17.320 76.304, 16 75.310, 16 74.762 C 16 73.801, 4.335 74.550, 1.326 75.705 C 0.597 75.985, -0 77.467, -0 78.998 C -0 81.667, 0.741 82.085, 17.984 89.141 C 29.341 93.788, 35.973 97.024, 35.984 97.921 C 35.993 98.703, 36.748 100.169, 37.661 101.178 C 38.575 102.188, 39.436 104.248, 39.574 105.757 C 39.712 107.266, 41.024 111.353, 42.489 114.840 C 43.954 118.328, 45.006 121.271, 44.826 121.381 C 44.647 121.491, 42.748 122.872, 40.608 124.450 C 37.259 126.918, 36.934 127.478, 38.279 128.462 C 40.892 130.373, 39.736 133.347, 35.253 136.250 C 32.917 137.762, 30.535 139, 29.959 139 C 29.383 139, 25.954 136.975, 22.340 134.500 C 18.725 132.025, 15.327 130, 14.789 130 C 14.251 130, 10.703 130.944, 6.905 132.097 C -1.218 134.565, -1.783 136.053, 3.596 140.816 L 7.193 144 29.929 144 L 52.665 144 55.823 140.070 C 57.560 137.909, 59.885 135.854, 60.991 135.503 C 64.005 134.546, 63.417 132.179, 59.606 129.930 C 57.712 128.813, 55.672 126.508, 54.989 124.714 C 52.607 118.457, 50.695 114.466, 48.753 111.696 C 46.873 109.015, 46.864 108.808, 48.549 106.946 C 49.517 105.876, 51.478 104.967, 52.905 104.927 C 55.873 104.843, 60.859 102.171, 62.296 99.893 C 63 98.777, 62.402 96.533, 60.135 91.782 C 58.411 88.170, 57 84.806, 57 84.307 C 57 83.808, 56.438 82.837, 55.750 82.150 C 55.063 81.463, 54.419 79.685, 54.320 78.200 C 54.091 74.770, 51.334 63.001, 50.584 62.251 C 50.272 61.939, 50.576 61.011, 51.259 60.188 C 53.193 57.856, 52.843 47.880, 50.744 45.555 C 49.779 44.486, 49.203 42.911, 49.464 42.055 C 49.725 41.200, 49.111 39.418, 48.098 38.095 L 46.258 35.690 44.878 38.595 M 39.166 82.876 C 38.102 83.551, 38.169 83.851, 39.498 84.361 C 41.720 85.214, 41.702 85.219, 42.362 83.500 C 42.990 81.863, 41.289 81.531, 39.166 82.876 M 98.514 103.250 C 97.655 106.138, 96.680 110.188, 96.348 112.250 L 95.744 116 101.372 116 C 107.367 116, 107.273 116.096, 107.273 110 C 107.273 100.855, 106.011 98, 101.967 98 C 100.553 98, 99.684 99.320, 98.514 103.250 M 152.509 112.316 C 150.275 122.357, 150.700 126.407, 154.029 126.795 C 156.429 127.075, 156.642 126.689, 158.224 119.163 C 160.134 110.078, 159.515 105.669, 156.264 105.191 C 154.407 104.918, 153.970 105.747, 152.509 112.316 M 48 126 C 47.207 126.490, 46.783 127.116, 47.058 127.391 C 47.333 127.666, 48.207 127.490, 49 127 C 49.793 126.510, 50.217 125.884, 49.942 125.609 C 49.667 125.334, 48.793 125.510, 48 126 M 35.750 138.572 C 32.400 140.389, 32.189 142, 35.300 142 C 37.845 142, 40 140.303, 40 138.300 C 40 136.657, 39.184 136.709, 35.750 138.572" stroke="none" fill="black" fill-rule="evenodd"/>
</svg>