<svg xmlns="http://www.w3.org/2000/svg" width="192" height="144" viewBox="0 0 192 144" version="1.1">
	<path d="M 40.445 2.061 C 38.869 3.802, 38.802 4.260, 40.014 5.008 C 41.199 5.741, 41.037 6.332, 39.077 8.418 C 37.119 10.502, 36.925 11.205, 37.965 12.458 C 38.694 13.336, 38.958 15.031, 38.593 16.487 C 38.080 18.531, 38.328 19, 39.922 19 C 42.799 19, 43.230 20.482, 40.953 22.543 C 39.433 23.918, 39.258 24.541, 40.221 25.137 C 41.179 25.728, 41.003 26.277, 39.508 27.370 C 37.671 28.714, 37.645 28.954, 39.145 30.660 C 40.035 31.672, 41.072 33.511, 41.448 34.748 C 41.825 35.984, 43.228 37.270, 44.567 37.606 C 47.325 38.298, 47.337 38.338, 46.070 42.757 C 45.276 45.523, 45.394 46, 46.870 46 C 50.161 46, 50.942 47.914, 49.415 52.241 C 46.788 59.687, 48.065 71.725, 52.015 76.746 C 54.213 79.540, 53.832 81.400, 49.157 90.687 C 47.168 94.639, 45.839 98.172, 46.205 98.538 C 46.571 98.904, 48.029 99.270, 49.446 99.352 C 52.140 99.507, 52.458 100.046, 53.582 106.379 C 54.040 108.956, 54.897 110.422, 56.136 110.746 C 57.603 111.129, 58 112.182, 58 115.684 C 58 119.493, 58.256 120.053, 59.776 119.571 C 61.321 119.081, 61.501 119.546, 61.157 123.151 C 60.808 126.811, 60.980 127.234, 62.631 126.770 C 67.660 125.355, 67.435 125.041, 68.343 134.750 L 69.208 144 100.442 144 L 131.676 144 135.049 133.750 C 139.217 121.084, 139.630 111.537, 136.382 103 C 134.021 96.797, 134.042 90.900, 136.447 84.124 C 138.427 78.545, 138.440 68.511, 136.473 62.876 C 135.633 60.469, 132.703 53.983, 129.963 48.463 C 124.335 37.123, 122.302 28.266, 121.310 10.750 L 120.700 -0 81.505 -0 C 43.193 0, 42.268 0.046, 40.445 2.061" stroke="none" fill="black" fill-rule="evenodd"/>
</svg>