<svg xmlns="http://www.w3.org/2000/svg" width="192" height="144" viewBox="0 0 192 144" version="1.1">
	<path d="M 0 72 L 0 144 42 144 L 84 144 84 103.889 L 84 63.777 87.750 64.478 C 92.234 65.315, 91.632 64.768, 92.719 69 C 94.012 74.035, 97.395 74.362, 98.965 69.605 C 99.614 67.639, 100.976 65.855, 102.062 65.548 C 103.128 65.247, 104.900 64.745, 106 64.433 C 107.943 63.881, 108 64.344, 108.004 80.683 L 108.007 97.500 109.946 94.320 C 112.795 89.649, 115.051 80.180, 115.385 71.500 C 115.477 69.107, 115.045 68.435, 113.250 68.180 C 110.690 67.817, 110.401 66.332, 112.332 63.473 C 115.069 59.421, 119.065 47.777, 118.449 45.650 C 118.107 44.468, 116.033 39.817, 113.841 35.316 C 109.627 26.665, 109.182 22.526, 112.259 20.601 C 114.814 19.001, 119.090 21.701, 121.258 26.284 C 123.327 30.658, 124.789 30.890, 128.834 27.486 C 133.412 23.634, 138.893 21.757, 145.573 21.753 C 152.233 21.750, 161.674 25.101, 160.473 27.043 C 160.103 27.642, 160.573 28.699, 161.519 29.390 C 163.007 30.478, 163.097 31.304, 162.190 35.558 C 161.614 38.260, 161.475 40.702, 161.883 40.985 C 162.290 41.268, 162.625 42.400, 162.628 43.500 C 162.631 44.600, 162.971 47.648, 163.382 50.274 L 164.130 55.048 160.495 56.567 C 157.108 57.982, 156.908 58.305, 157.557 61.293 C 158.664 66.384, 159.861 69, 161.082 69 C 162.949 69, 177.002 83.176, 179.725 87.807 C 181.773 91.291, 182.258 93.437, 182.263 99.037 L 182.270 105.960 186.885 107.268 L 191.500 108.575 191.349 115.538 C 191.266 119.367, 190.870 127.395, 190.469 133.377 C 189.862 142.413, 189.972 144.176, 191.119 143.794 C 192.273 143.409, 192.542 131.564, 192.757 71.667 L 193.013 0 150.507 0 L 108 0 108 3.500 C 108 5.425, 107.550 7, 107 7 C 106.450 7, 106 5.425, 106 3.500 C 106 -0.516, 103.571 -1.411, 102.648 2.265 C 102.141 4.285, 101.425 4.545, 96.035 4.669 C 90.433 4.798, 89.946 4.632, 89.387 2.404 C 89.055 1.082, 88.122 -0, 87.313 -0 C 86.229 -0, 85.930 0.957, 86.172 3.656 C 86.377 5.940, 86.031 7.472, 85.250 7.739 C 84.384 8.035, 84 6.911, 84 4.083 L 84 0 42 0 L 0 0 0 72 M 0.474 72.500 C 0.474 112.100, 0.598 128.154, 0.750 108.176 C 0.901 88.198, 0.901 55.798, 0.750 36.176 C 0.598 16.554, 0.474 32.900, 0.474 72.500 M 84 33.476 C 84 43.721, 85.476 48, 89.010 48 C 92.275 48, 92.160 40.592, 88.765 32.252 C 87.143 28.265, 85.407 24.751, 84.907 24.443 C 84.388 24.122, 84 27.987, 84 33.476 M 106.354 26.091 C 103.774 29.265, 99.980 40.073, 100.592 42.509 C 100.936 43.879, 101.618 45, 102.108 45 C 102.599 45, 103 45.675, 103 46.500 C 103 48.770, 104.573 48.301, 106.422 45.478 C 107.718 43.500, 108.013 40.988, 107.787 33.819 C 107.566 26.769, 107.238 25.004, 106.354 26.091 M 84 53.607 C 84 54.662, 84.544 55.005, 85.582 54.607 C 86.452 54.273, 87.603 54, 88.141 54 C 88.678 54, 88.840 53.550, 88.500 53 C 87.493 51.370, 84 51.841, 84 53.607 M 104.250 53.250 C 104.880 55.142, 108 55.411, 108 53.573 C 108 52.646, 107.145 52, 105.917 52 C 104.695 52, 104.005 52.517, 104.250 53.250" stroke="none" fill="black" fill-rule="evenodd"/>
</svg>