<svg xmlns="http://www.w3.org/2000/svg" width="192" height="144" viewBox="0 0 192 144" version="1.1">
	<path d="M 0 55.607 C 0 99.707, 0.259 111.105, 1.250 110.687 C 1.938 110.397, 5.425 108.932, 9 107.433 C 17.807 103.737, 41.360 97.301, 52.721 95.484 C 57.825 94.668, 66.218 93.325, 71.374 92.500 C 76.529 91.675, 82.492 90.993, 84.624 90.985 C 86.756 90.976, 88.989 90.639, 89.588 90.235 C 91.373 89.029, 91.907 85.168, 90.455 83.963 C 89.353 83.048, 89.486 82.203, 91.206 79.176 C 97.861 67.463, 99.694 63.551, 103.165 53.653 C 106.740 43.459, 107 41.952, 107 31.418 C 107 24.206, 106.598 19.869, 105.888 19.431 C 105.277 19.053, 104.489 19.184, 104.138 19.722 C 102.831 21.727, 98.986 23, 94.240 23 C 90.439 23, 88.894 22.499, 87.309 20.750 C 81.714 14.580, 84.797 4.368, 92.640 3.094 C 94.673 2.763, 96.523 1.932, 96.751 1.246 C 97.079 0.263, 86.930 0, 48.583 0 L 0 0 0 55.607 M 187 0.306 C 187 0.474, 188.125 2.136, 189.500 4 L 192 7.389 192 3.694 C 192 0.420, 191.716 0, 189.500 0 C 188.125 0, 187 0.138, 187 0.306 M 128.250 20.745 C 125.505 22.112, 124.995 22.917, 124.971 25.931 C 124.902 34.277, 121.094 53.831, 118.064 61.400 C 114.708 69.783, 112.341 78.916, 111.818 85.500 L 111.500 89.500 120.324 90 L 129.147 90.500 130.934 86.500 C 132.567 82.843, 132.585 82.344, 131.138 80.676 C 129.678 78.992, 129.803 78.373, 132.751 72.676 C 138.508 61.550, 144.628 40.170, 143.520 35.055 C 143.215 33.650, 142.763 31.424, 142.514 30.110 C 142.265 28.795, 141.074 26.995, 139.868 26.110 C 138.662 25.224, 136.523 23.262, 135.115 21.750 C 132.168 18.585, 132.495 18.633, 128.250 20.745 M 162.500 38.750 C 162.500 44.002, 161.785 47.308, 159.277 53.647 C 155.802 62.433, 154.405 67.768, 153.384 76.153 C 153.027 79.094, 152.204 83.075, 151.556 85 C 150.908 86.925, 150.630 89.810, 150.939 91.410 C 151.446 94.040, 152.300 94.589, 159.795 97.107 L 168.090 99.893 168.948 97.637 C 171.958 89.719, 172.203 87.220, 171.168 74.923 C 168.956 48.631, 165.800 32, 163.023 32 C 162.735 32, 162.500 35.038, 162.500 38.750 M 111.450 100.941 C 110.579 101.804, 106.072 102.001, 86.500 102.030 C 80.765 102.038, 61.668 104.733, 47.573 107.524 C 39.177 109.186, 26.081 113.126, 16 117.024 C 12.975 118.193, 9.320 119.518, 7.877 119.969 C 6.434 120.419, 4.072 121.562, 2.627 122.509 C 0.084 124.175, 0 124.547, 0 134.115 L 0 144 82.500 144 L 165 144 165.166 140.750 C 165.257 138.963, 165.369 131.106, 165.416 123.291 L 165.500 109.083 161.500 107.671 C 153.535 104.860, 149.065 103.720, 146.309 103.799 C 144.764 103.844, 141.345 103.947, 138.711 104.030 C 136.076 104.112, 133.376 103.742, 132.711 103.207 C 129.625 100.727, 113.410 98.999, 111.450 100.941" stroke="none" fill="black" fill-rule="evenodd"/>
</svg>