<svg xmlns="http://www.w3.org/2000/svg" width="192" height="144" viewBox="0 0 192 144" version="1.1">
	<path d="M 0 57 L 0 114 3.955 114 C 7.690 114, 7.946 113.804, 8.573 110.465 C 8.937 108.520, 8.982 105.661, 8.672 104.110 C 7.974 100.619, 10.031 97.460, 13.583 96.568 C 15.838 96.003, 16.151 95.479, 15.772 92.901 C 15.450 90.704, 15.825 89.629, 17.165 88.911 C 18.174 88.371, 19 87.045, 19 85.965 C 19 84.884, 19.450 84, 20 84 C 20.550 84, 21 85.088, 21 86.417 C 21 87.746, 21.563 89.022, 22.250 89.253 C 22.938 89.484, 23.500 91.198, 23.500 93.063 C 23.500 95.668, 23.963 96.537, 25.500 96.811 C 28.847 97.409, 29.994 100.040, 30.134 107.441 C 30.255 113.863, 30.327 114.094, 30.930 110 C 31.563 105.702, 33.755 101, 35.126 101 C 36.416 101, 39 105.996, 39 108.490 C 39 112.089, 42.127 113, 54.488 113 C 64.173 113, 65.047 113.168, 67.923 115.589 L 71 118.178 71 111.224 C 71 105.592, 71.415 103.743, 73.180 101.498 L 75.360 98.727 77.180 100.974 C 78.807 102.983, 79 105.384, 79 123.611 L 79 144 135.340 144 L 191.681 144 192.338 120.750 C 192.700 107.963, 192.996 75.563, 192.998 48.750 L 193 0 96.500 0 L 0 0 0 57 M 0.468 57.500 C 0.468 88.850, 0.595 101.530, 0.750 85.679 C 0.904 69.827, 0.904 44.177, 0.749 28.679 C 0.594 13.180, 0.468 26.150, 0.468 57.500 M 120.880 34 C 119.112 36.200, 117.039 38, 116.274 38 C 115.508 38, 115.140 38.418, 115.456 38.928 C 115.771 39.438, 115.123 40.144, 114.015 40.495 C 110.813 41.511, 111.531 43.722, 114.901 43.228 C 118.430 42.710, 119.504 45.056, 118.490 51.061 C 117.992 54.006, 118.310 56.006, 119.713 58.769 C 120.755 60.821, 121.449 63.230, 121.255 64.122 C 120.882 65.837, 114.659 71.204, 111.817 72.260 C 110.402 72.786, 110.320 73.280, 111.301 75.357 C 111.942 76.717, 112.862 77.585, 113.345 77.287 C 113.828 76.988, 114.595 77.345, 115.049 78.079 C 115.503 78.814, 117.140 79.434, 118.687 79.458 C 120.848 79.490, 121.576 80.035, 121.827 81.808 C 122.306 85.187, 125.202 84.158, 126.215 80.248 C 126.678 78.462, 127.382 77.007, 127.779 77.015 C 129.532 77.053, 130.880 78.757, 131.720 82 C 132.841 86.326, 135.657 87.216, 136.580 83.536 C 137.103 81.455, 137.656 81.064, 139.366 81.570 C 140.540 81.918, 142.063 82.918, 142.750 83.792 C 143.978 85.354, 144.123 85.260, 144.376 82.750 C 144.448 82.029, 145.750 81.552, 147.450 81.622 C 150.370 81.743, 153.479 79.812, 152.286 78.619 C 151.945 78.279, 152.754 77.993, 154.083 77.985 C 155.459 77.976, 156.021 77.653, 155.388 77.235 C 154.777 76.831, 154.067 75.037, 153.811 73.250 C 153.456 70.769, 153.719 69.992, 154.923 69.968 C 156.201 69.942, 156.132 69.658, 154.559 68.468 C 153.491 67.661, 153.041 66.990, 153.559 66.977 C 154.076 66.964, 152.763 65.389, 150.640 63.477 C 147.477 60.628, 145.990 60, 142.415 60 C 138.053 60, 138.050 59.998, 138.679 56.853 C 139.276 53.872, 139.173 53.740, 136.747 54.349 C 135.338 54.702, 133.469 55.267, 132.593 55.603 C 129.995 56.600, 130.659 52.536, 133.434 50.452 C 135.298 49.053, 135.650 48.214, 134.935 46.879 C 134.216 45.535, 134.460 44.989, 136.001 44.500 C 139.257 43.466, 138.296 41.278, 134.252 40.520 C 130.008 39.723, 129.037 38.660, 129.015 34.785 C 129.006 33.136, 128.241 31.664, 127.066 31.035 C 124.368 29.592, 124.456 29.549, 120.880 34" stroke="none" fill="black" fill-rule="evenodd"/>
</svg>