<svg xmlns="http://www.w3.org/2000/svg" width="192" height="144" viewBox="0 0 192 144" version="1.1">
	<path d="M 56.238 5.111 C 46.755 9.805, 40.757 20.669, 43.016 29.059 C 44.996 36.413, 53.999 43.889, 61 43.993 C 64.505 44.046, 61.748 45.698, 56.745 46.543 C 53.710 47.056, 52.686 47.816, 51.630 50.342 C 50.904 52.079, 49.565 54.118, 48.655 54.872 C 46.564 56.606, 46.442 59.428, 48.492 58.642 C 50.211 57.982, 54.821 62.472, 55.532 65.500 C 55.791 66.600, 55.804 69.525, 55.562 72 C 54.139 86.556, 53.836 106.287, 54.912 114.319 C 55.989 122.361, 60.337 141.118, 61.596 143.156 C 62.644 144.851, 63.801 143.940, 63.380 141.750 L 62.948 139.500 64.127 141.750 C 64.775 142.988, 65.717 144, 66.220 144 C 66.723 144, 66.810 142.988, 66.413 141.750 C 60.715 123.989, 57.921 100.921, 59.476 84.495 L 60.234 76.500 62.481 81.500 C 66.045 89.430, 69.624 91.785, 81.500 94.012 C 90.967 95.788, 91.022 95.815, 90.066 98.303 C 89.602 99.511, 87.614 102.883, 85.648 105.796 C 83.682 108.709, 81.840 112.534, 81.554 114.296 C 80.453 121.085, 80.081 130.777, 80.671 137.250 L 81.287 144 96.152 144 L 111.017 144 110.381 138.581 C 109.858 134.133, 110.149 132.323, 112.006 128.488 C 113.409 125.588, 114.544 124.262, 114.996 124.993 C 115.396 125.641, 116.091 126.020, 116.540 125.835 C 117.615 125.394, 118.689 129.586, 119.542 137.543 L 120.233 144 130.116 144 C 141.520 144, 141.330 144.232, 137.551 134.932 C 135.555 130.022, 135.194 127.754, 135.604 122.702 C 137.045 104.919, 144.073 82.536, 146.352 88.474 C 147.394 91.189, 149.939 90.110, 155.133 84.750 C 160.353 79.364, 164.973 71.194, 164.990 67.318 C 165.002 64.801, 160.015 60.823, 156.692 60.699 C 155.486 60.654, 153.037 60.964, 151.250 61.388 C 145.713 62.701, 147.513 60.350, 155.660 55.628 C 162.078 51.909, 163.687 51.356, 165.582 52.219 C 167.164 52.940, 168.815 52.912, 171.071 52.125 C 172.846 51.506, 175.356 51, 176.649 51 C 179.293 51, 179.926 48.293, 177.500 47.362 C 176.675 47.045, 176 46.159, 176 45.393 C 176 44.627, 176.675 44, 177.500 44 C 179.200 44, 179.452 42.859, 178.064 41.450 C 177.478 40.855, 179.529 38.630, 183.549 35.500 C 187.796 32.192, 189.434 30.384, 188.388 30.158 C 187.518 29.970, 179.784 33.290, 171.201 37.537 C 153.087 46.498, 138.685 52.111, 141.344 49.172 C 142.255 48.166, 143 46.351, 143 45.140 C 143 42.398, 140.090 41.088, 138.864 43.278 C 138.376 44.151, 136.589 45.558, 134.893 46.404 C 132.381 47.656, 131.035 47.734, 127.630 46.823 C 125.189 46.171, 121.466 46.003, 118.682 46.420 C 114.597 47.033, 113.481 47.733, 110.891 51.309 C 108.416 54.725, 107.983 56.096, 108.503 58.867 C 109.111 62.107, 109.028 62.224, 106.569 61.607 C 104.516 61.091, 104 61.327, 104 62.781 C 104 63.781, 103.604 65.027, 103.121 65.550 C 102.637 66.072, 101.676 68.268, 100.984 70.430 C 99.812 74.090, 99.882 74.486, 102.004 76.204 C 104.277 78.045, 104.278 78.057, 102.450 82.111 C 100.751 85.880, 100.397 86.126, 97.559 85.516 C 89.522 83.788, 77.633 82.108, 76.853 82.591 C 75.798 83.243, 67.901 66.969, 68.669 65.726 C 68.966 65.245, 68.246 63.826, 67.068 62.572 C 64.975 60.345, 64.967 60.219, 66.713 57.152 C 68.409 54.172, 70 53.042, 70 54.816 C 70 56.282, 77.700 60, 80.737 60 C 82.367 60, 85.153 59.494, 86.927 58.876 C 89.314 58.043, 90.443 58.043, 91.276 58.876 C 92.851 60.451, 95.956 60.277, 96.608 58.578 C 96.908 57.796, 96.665 56.242, 96.067 55.124 C 95.237 53.574, 95.377 52.099, 96.657 48.898 C 98.091 45.315, 98.157 44.035, 97.108 40.115 C 95.592 34.445, 93.704 32.248, 88.250 29.808 C 85.912 28.762, 83.955 27.590, 83.901 27.203 C 83.846 26.816, 83.628 24.583, 83.416 22.240 C 82.470 11.783, 73.743 2.999, 64.300 3.001 C 62.210 3.001, 58.582 3.951, 56.238 5.111 M 50.500 56 C 50.160 56.550, 50.359 57, 50.941 57 C 51.523 57, 52 56.550, 52 56 C 52 55.450, 51.802 55, 51.559 55 C 51.316 55, 50.840 55.450, 50.500 56 M 57.583 72.866 C 57.152 73.563, 57.070 74.403, 57.400 74.733 C 58.295 75.628, 59.271 74.312, 58.787 72.862 C 58.449 71.846, 58.213 71.846, 57.583 72.866 M 56.651 79.468 C 56.341 80.275, 56.518 81.202, 57.044 81.527 C 57.570 81.852, 58 81.191, 58 80.059 C 58 77.644, 57.444 77.401, 56.651 79.468 M 56.015 87.250 C 56.028 89.069, 56.216 89.213, 57 88 C 58.253 86.061, 58.253 85, 57 85 C 56.450 85, 56.007 86.013, 56.015 87.250 M 56.158 94 C 56.158 95.375, 56.385 95.938, 56.662 95.250 C 56.940 94.563, 56.940 93.438, 56.662 92.750 C 56.385 92.063, 56.158 92.625, 56.158 94 M 56.158 101 C 56.158 102.375, 56.385 102.938, 56.662 102.250 C 56.940 101.563, 56.940 100.438, 56.662 99.750 C 56.385 99.063, 56.158 99.625, 56.158 101 M 56 107.941 C 56 109.073, 56.450 110, 57 110 C 57.550 110, 58 109.352, 58 108.559 C 58 107.766, 57.550 106.840, 57 106.500 C 56.450 106.160, 56 106.809, 56 107.941 M 57.158 115 C 57.158 116.375, 57.385 116.938, 57.662 116.250 C 57.940 115.563, 57.940 114.438, 57.662 113.750 C 57.385 113.063, 57.158 113.625, 57.158 115 M 58 122.059 C 58 123.191, 58.430 123.852, 58.956 123.527 C 59.482 123.202, 59.659 122.275, 59.349 121.468 C 58.556 119.401, 58 119.644, 58 122.059 M 59 127.941 C 59 128.459, 59.450 129.160, 60 129.500 C 60.550 129.840, 61 129.416, 61 128.559 C 61 127.702, 60.550 127, 60 127 C 59.450 127, 59 127.423, 59 127.941 M 61 135.441 C 61 136.298, 61.450 137, 62 137 C 62.550 137, 63 136.577, 63 136.059 C 63 135.541, 62.550 134.840, 62 134.500 C 61.450 134.160, 61 134.584, 61 135.441" stroke="none" fill="black" fill-rule="evenodd"/>
</svg>