<svg xmlns="http://www.w3.org/2000/svg" width="192" height="144" viewBox="0 0 192 144" version="1.1">
	<path d="M 0 72 L 0 144 34.783 144 L 69.566 144 74.310 134.750 C 76.919 129.662, 79.042 125.162, 79.027 124.750 C 79.012 124.337, 78.161 123.161, 77.136 122.136 C 74.854 119.854, 71.696 110.185, 72.161 106.901 C 72.478 104.653, 72.916 104.497, 79 104.450 L 85.500 104.401 85.360 99.165 C 85.258 95.375, 84.506 92.853, 82.635 90.024 C 80.259 86.435, 79.765 86.164, 76.544 86.687 C 72.545 87.335, 68.537 85.268, 67.508 82.027 C 67.155 80.912, 66.221 80, 65.433 80 C 62.998 80, 63.677 75.082, 66.250 74.083 C 72.097 71.810, 77.051 70.796, 79.411 71.388 C 81.763 71.979, 82 71.765, 82 69.054 C 82 67.094, 81.314 65.703, 80 65 C 78.363 64.124, 78 62.906, 78 58.294 C 78 54.545, 77.467 52.069, 76.410 50.900 C 74.505 48.796, 75.413 44.561, 77.590 45.396 C 78.476 45.736, 79 45.279, 79 44.169 C 79 41.733, 80.954 40, 83.700 40 C 84.965 40, 86 39.580, 86 39.067 C 86 37.561, 89.764 36.803, 91.809 37.898 C 93.111 38.594, 94.037 38.563, 94.804 37.796 C 95.595 37.005, 96.287 36.993, 97.208 37.754 C 97.918 38.342, 99.850 38.975, 101.500 39.162 C 103.825 39.424, 104.578 40.063, 104.846 42 C 105.036 43.375, 105.588 44.983, 106.072 45.574 C 106.592 46.208, 106.508 47.092, 105.868 47.732 C 105.110 48.490, 105.090 49.819, 105.803 52.158 C 106.363 53.996, 107.098 57.452, 107.436 59.837 C 107.963 63.551, 107.778 64.245, 106.150 64.671 C 103.547 65.352, 100.955 70.144, 102.847 70.779 C 103.588 71.028, 105.613 72.445, 107.347 73.929 C 109.081 75.413, 111.962 77.642, 113.750 78.882 C 115.615 80.175, 117 82.004, 117 83.173 C 117 85.208, 120.728 93.346, 123.422 97.193 C 124.947 99.369, 124.592 101.456, 122.227 104.213 C 121.419 105.155, 121.010 106.585, 121.320 107.391 C 121.977 109.104, 114.092 116, 111.475 116 C 110.264 116, 109.986 116.495, 110.492 117.750 C 111.934 121.321, 115.842 135.641, 116.500 139.762 L 117.180 144.024 154.840 143.762 L 192.500 143.500 192.757 71.750 L 193.013 0 96.507 0 L 0 0 0 72 M 0.474 72.500 C 0.474 112.100, 0.598 128.154, 0.750 108.176 C 0.901 88.198, 0.901 55.798, 0.750 36.176 C 0.598 16.554, 0.474 32.900, 0.474 72.500 M 85 69.972 C 85 71.328, 86.777 72.170, 87.425 71.121 C 87.735 70.620, 87.316 69.952, 86.494 69.636 C 85.672 69.321, 85 69.472, 85 69.972 M 111 99 C 111 102.289, 112.918 103.008, 115 100.500 C 115.993 99.303, 115.993 98.697, 115 97.500 C 112.918 94.992, 111 95.711, 111 99" stroke="none" fill="black" fill-rule="evenodd"/>
</svg>