<svg xmlns="http://www.w3.org/2000/svg" width="192" height="144" viewBox="0 0 192 144" version="1.1">
	<path d="M 154 105.038 C 141.625 106.582, 124.075 108.366, 115 109.003 C 105.925 109.639, 96.340 110.573, 93.701 111.079 C 91.061 111.586, 86.759 112, 84.139 112 C 80.759 112, 78.754 112.581, 77.230 114 C 75.826 115.308, 73.701 116, 71.089 116 C 65.619 116, 61.811 117.830, 62.536 120.112 C 62.982 121.518, 62.209 122.157, 58.848 123.164 L 54.596 124.438 57.994 125.133 C 64.116 126.385, 88.209 125.210, 101.500 123.012 C 108.650 121.829, 122.375 119.338, 132 117.475 C 148.810 114.222, 154.790 113.151, 169 110.847 C 172.575 110.267, 176.534 109.389, 177.797 108.896 C 179.060 108.403, 181.085 107.964, 182.297 107.921 C 183.509 107.878, 183.906 107.605, 183.180 107.314 C 182.218 106.930, 182.422 106.393, 183.930 105.337 C 189.806 101.221, 184.965 101.173, 154 105.038" stroke="none" fill="black" fill-rule="evenodd"/>
</svg>