<svg xmlns="http://www.w3.org/2000/svg" width="192" height="144" viewBox="0 0 192 144" version="1.1">
	<path d="M 102.859 27.012 C 96.956 30.131, 94.802 40.075, 99.250 43.677 C 100.487 44.680, 102.145 46.750, 102.933 48.277 C 103.722 49.804, 105.409 51.316, 106.683 51.635 C 109.867 52.434, 109.627 53.162, 104.932 56.934 C 102.380 58.985, 101.073 60.748, 101.425 61.665 C 101.733 62.469, 101.273 64.506, 100.401 66.192 C 99.529 67.877, 99.020 70.324, 99.269 71.628 C 99.802 74.415, 99.880 74.394, 95.605 72.608 C 92.117 71.151, 90.351 66.984, 91.984 64.064 C 92.426 63.274, 92.301 61.559, 91.705 60.253 C 90.837 58.346, 90.118 58.002, 88.062 58.510 C 86.653 58.857, 85.098 59.534, 84.607 60.014 C 83.162 61.425, 82.106 77.086, 83.124 82 C 83.822 85.367, 83.675 87.759, 82.539 91.500 C 80.499 98.223, 80.583 100, 82.943 100 C 84.042 100, 85.657 101.304, 86.659 103 C 87.818 104.962, 89.234 106, 90.751 106 C 92.760 106, 92.927 105.733, 92 104 C 91.023 102.175, 91.240 102, 94.465 102 L 98 102 97.940 97.250 C 97.908 94.638, 97.501 90.250, 97.037 87.500 C 96.072 81.782, 97.121 79.692, 99.674 82.245 C 102.044 84.615, 101.786 93.716, 99.071 103.500 C 97.850 107.900, 94.635 118.327, 91.926 126.672 C 89.217 135.016, 87 142.329, 87 142.922 C 87 143.667, 95.495 144, 114.475 144 L 141.950 144 141.372 140.750 C 140.131 133.773, 138.684 129.317, 135.811 123.626 C 134.167 120.368, 131.264 113.607, 129.362 108.601 C 127.459 103.596, 124.292 96.800, 122.324 93.500 C 119.164 88.203, 118.756 86.748, 118.839 81.080 C 118.890 77.549, 119.413 74.363, 120 74 C 120.587 73.637, 120.773 72.572, 120.413 71.633 C 120.037 70.655, 120.430 69.182, 121.332 68.185 C 123.279 66.034, 123.833 59.433, 122.204 57.804 C 120.502 56.102, 120.701 54.650, 123 52 C 125.397 49.237, 125.403 49.086, 123.493 39.815 C 122.197 33.524, 121.433 31.975, 118.032 28.750 C 113.409 24.366, 108.854 23.844, 102.859 27.012" stroke="none" fill="black" fill-rule="evenodd"/>
</svg>