<svg xmlns="http://www.w3.org/2000/svg" width="192" height="144" viewBox="0 0 192 144" version="1.1">
	<path d="M 121.405 7.106 C 119.973 8.689, 119.500 10.716, 119.500 15.271 L 119.500 21.330 115.054 22.814 C 108.760 24.914, 101.893 32.099, 99.726 38.851 C 97.363 46.213, 98.260 51.143, 102.664 55.010 C 104.537 56.655, 106.556 58, 107.150 58 C 107.765 58, 107.501 59.112, 106.537 60.585 C 104.992 62.942, 104.982 63.322, 106.422 64.913 C 107.290 65.873, 108 66.978, 108 67.369 C 108 68.099, 112.016 74.101, 113.106 75 C 113.439 75.275, 114.193 78.782, 114.780 82.793 C 115.734 89.304, 115.638 90.565, 113.878 94.543 C 112.385 97.917, 111.359 99, 109.653 99 C 106.417 99, 105.093 100.776, 105.650 104.368 C 106.026 106.790, 105.498 108.246, 103.318 110.793 L 100.500 114.086 89.025 111.479 C 82.714 110.045, 77.033 108.443, 76.402 107.918 C 75.770 107.394, 74.959 104.746, 74.599 102.033 C 73.785 95.900, 70.476 92.755, 65.817 93.687 C 63.782 94.094, 62.510 93.836, 61.914 92.895 C 61.185 91.744, 61.028 91.774, 61.015 93.070 C 61.007 93.933, 59.543 95.283, 57.762 96.070 C 53.406 97.994, 51.793 101.389, 52.569 107 C 53.706 115.227, 57.668 119.284, 65.841 120.591 C 68.129 120.956, 70 121.411, 70 121.600 C 70 122.436, 65.142 140.676, 64.500 142.250 C 63.826 143.903, 66.570 144, 113.960 144 L 164.135 144 163.436 141.750 C 163.052 140.512, 161.956 138.375, 161 137 C 157.311 131.693, 157.346 126, 161.067 126 C 163.097 126, 167 122.711, 167 121 C 167 119.531, 164.325 119.780, 160.857 121.574 C 159.184 122.439, 157.610 122.943, 157.360 122.693 C 156.595 121.929, 152.899 96.767, 153.468 96.199 C 153.761 95.906, 154.029 96.529, 154.063 97.583 C 154.119 99.253, 154.243 99.210, 155.031 97.250 C 156.073 94.657, 158.507 94.273, 159.386 96.563 C 159.716 97.423, 160.376 97.885, 160.853 97.591 C 161.331 97.296, 161.109 94.694, 160.361 91.809 C 159.612 88.924, 159.018 85.425, 159.039 84.032 C 159.078 81.542, 159.101 81.549, 160.434 84.500 C 161.179 86.150, 162.540 88.400, 163.458 89.500 C 165.053 91.411, 165.106 91.281, 164.665 86.559 L 164.203 81.617 166.079 84.059 C 168.246 86.878, 168.301 86.570, 167.069 78.500 C 166.566 75.200, 165.911 69.347, 165.615 65.494 C 164.931 56.616, 162.654 45.743, 160.036 38.855 C 158.917 35.910, 158.001 32.695, 158.001 31.710 C 158 28.878, 154.308 22.387, 151.393 20.095 C 149.657 18.729, 147.279 18, 144.561 18 C 140.688 18, 139.979 17.537, 134.613 11.500 C 128.230 4.319, 124.922 3.218, 121.405 7.106 M 148.079 107.583 C 148.127 108.748, 148.364 108.985, 148.683 108.188 C 148.972 107.466, 148.936 106.603, 148.604 106.271 C 148.272 105.939, 148.036 106.529, 148.079 107.583" stroke="none" fill="black" fill-rule="evenodd"/>
</svg>