<svg xmlns="http://www.w3.org/2000/svg" width="192" height="144" viewBox="0 0 192 144" version="1.1">
	<path d="M 0 72 L 0 144 52.417 144 L 104.834 144 105.917 138.951 C 106.513 136.174, 107 132.514, 107 130.819 C 107 129.123, 107.889 126.297, 108.976 124.539 C 110.208 122.545, 111.055 119.166, 111.226 115.555 L 111.500 109.768 106 108.002 C 99.931 106.052, 98.878 106.401, 96.408 111.177 C 95.124 113.661, 94.390 114, 90.290 114 C 87.728 114, 83.030 114.730, 79.850 115.622 C 74.517 117.118, 73.753 117.118, 70.014 115.622 C 65.063 113.641, 62.068 113.569, 59.473 115.366 C 56.384 117.504, 48.109 116.879, 43.768 114.180 C 41.716 112.904, 39.608 112.125, 39.083 112.449 C 36.993 113.740, 28.430 110.823, 25.128 107.695 C 21.508 104.265, 18.058 97.812, 18.022 94.405 C 18.010 93.253, 17.100 91.495, 16 90.500 C 13.503 88.240, 13.291 82.496, 15.656 81.173 C 16.683 80.598, 17.278 79.061, 17.223 77.123 C 17.174 75.405, 17.441 73.993, 17.817 73.984 C 18.193 73.975, 20.075 72.575, 22 70.872 C 23.925 69.169, 26.430 67.419, 27.567 66.982 C 29.515 66.234, 29.575 65.824, 28.598 59.917 C 27.803 55.110, 27.845 53.552, 28.780 53.240 C 29.451 53.016, 30 51.992, 30 50.964 C 30 48.650, 32.053 44, 33.076 44 C 35.372 44, 45.462 33.445, 45.614 30.883 C 45.677 29.824, 46.465 28.144, 47.364 27.150 C 48.264 26.156, 49 24.800, 49 24.136 C 49 22, 52.339 17.671, 59.250 10.845 C 62.962 7.179, 66 3.491, 66 2.650 C 66 1.619, 67.223 0.993, 69.750 0.728 C 71.813 0.513, 56.962 0.261, 36.750 0.168 L 0 0 0 72 M 98.026 2.048 C 99.457 4.722, 103.797 6.413, 105.533 4.973 C 107.371 3.447, 108.418 5.545, 108.143 10.202 C 107.976 13.033, 108.306 14, 109.440 14 C 110.283 14, 111.238 15.226, 111.581 16.750 C 113.316 24.452, 114.157 27, 114.966 27 C 115.454 27, 117.258 25.313, 118.973 23.250 C 120.688 21.188, 121.779 20.337, 121.397 21.359 C 121.015 22.382, 119.659 24.344, 118.383 25.721 C 117.108 27.097, 115.809 29.185, 115.497 30.361 C 113.675 37.233, 112.557 40.609, 111.826 41.450 C 111.372 41.972, 111 43.040, 111 43.822 C 111 44.969, 111.289 45.005, 112.489 44.009 C 113.308 43.329, 113.731 42.374, 113.430 41.887 C 113.129 41.399, 113.385 41, 114 41 C 114.615 41, 114.881 40.616, 114.591 40.147 C 114.301 39.678, 114.710 38.441, 115.500 37.397 C 116.814 35.661, 116.939 35.649, 116.968 37.250 C 117.005 39.288, 118.100 39.500, 119.800 37.800 C 120.726 36.874, 121 36.872, 121 37.794 C 121 41.450, 130.282 34.995, 131.394 30.566 C 132.287 27.008, 137.158 16.825, 137.705 17.372 C 137.980 17.647, 137.059 20.376, 135.658 23.436 C 134.257 26.496, 133.370 29, 133.687 29 C 134.932 29, 141 24.783, 141 23.918 C 141 23.413, 141.527 23, 142.171 23 C 142.815 23, 144.249 22.213, 145.356 21.250 C 146.714 20.069, 146.497 20.668, 144.690 23.088 C 143.216 25.062, 142.304 26.971, 142.665 27.331 C 143.025 27.691, 141.822 28.286, 139.992 28.652 C 137.990 29.052, 134.739 31.173, 131.832 33.975 C 126.594 39.024, 125.311 41.960, 129.250 39.885 C 130.488 39.234, 131.813 38.218, 132.196 37.629 C 132.578 37.040, 133.162 36.828, 133.492 37.158 C 133.822 37.489, 132.370 39.051, 130.266 40.630 C 127.137 42.976, 126.382 44.217, 126.128 47.426 C 125.956 49.586, 125.408 52.428, 124.908 53.741 C 124.409 55.055, 124 56.285, 124 56.473 C 124 56.662, 127.263 55.237, 131.250 53.306 C 135.238 51.375, 139.625 49.277, 141 48.644 C 142.562 47.924, 144.841 44.867, 147.073 40.496 C 149.103 36.521, 151.400 33.355, 152.393 33.163 C 154.038 32.846, 154.044 33.014, 152.497 36.006 C 150.875 39.142, 151.344 41.887, 153.007 38.992 C 153.478 38.171, 154.570 36.600, 155.434 35.500 C 156.715 33.869, 156.892 33.825, 156.391 35.261 C 155.907 36.650, 156.172 36.883, 157.639 36.364 C 160.176 35.467, 158.058 37.777, 154.834 39.424 C 153.550 40.080, 152.550 41.303, 152.611 42.142 C 152.672 42.980, 152.169 43.667, 151.492 43.667 C 149.785 43.667, 141.871 50.420, 143.082 50.844 C 143.622 51.033, 145.175 50.460, 146.532 49.571 C 149.009 47.948, 149.658 48.416, 148.174 50.753 C 147.736 51.442, 145.381 52.248, 142.939 52.544 C 135.632 53.429, 134.266 53.888, 129.640 57.010 C 127.203 58.655, 124.825 60.013, 124.355 60.030 C 123.885 60.046, 121.569 61.734, 119.210 63.780 L 114.920 67.500 117.767 70.900 L 120.613 74.299 123.457 72.436 C 125.021 71.412, 126.886 70.487, 127.602 70.382 C 128.317 70.277, 131.501 68.962, 134.678 67.459 C 138.059 65.860, 142.121 64.738, 144.476 64.754 C 148.452 64.780, 153.564 62.435, 156.044 59.447 C 157.107 58.166, 156.776 57.365, 154.010 54.510 C 151.035 51.441, 150.920 51.118, 152.853 51.264 C 154.034 51.353, 155 51.905, 155 52.490 C 155 53.076, 155.716 54.577, 156.590 55.825 C 157.876 57.661, 158.458 57.865, 159.635 56.888 C 161.745 55.137, 159.679 47.134, 156.500 44.750 C 155.873 44.280, 156.060 43.637, 157 43.026 C 158.158 42.274, 158.576 42.559, 158.835 44.276 C 159.019 45.499, 159.632 46.950, 160.197 47.500 C 160.896 48.180, 161.024 47.833, 160.598 46.417 C 160.156 44.947, 160.417 44.333, 161.486 44.333 C 162.629 44.333, 163 45.516, 163 49.167 C 163 54.056, 164.271 55.329, 166.713 52.887 C 168.209 51.391, 169.914 52.577, 169.393 54.751 C 168.850 57.018, 170.453 59.456, 171.900 58.562 C 172.518 58.180, 174.527 55.535, 176.365 52.684 C 178.204 49.833, 180.751 46.600, 182.026 45.500 C 184.673 43.216, 184.148 44.306, 179.160 51.451 C 177.259 54.173, 176.155 56.552, 176.706 56.735 C 177.258 56.919, 177.477 58.292, 177.193 59.785 C 176.771 62.007, 176.934 62.303, 178.089 61.418 C 178.865 60.822, 181.525 58.797, 184 56.918 C 186.475 55.038, 188.642 53.188, 188.815 52.806 C 188.988 52.425, 189.775 52.360, 190.565 52.663 C 191.790 53.133, 192 49.315, 192 26.607 L 192 0 144.465 0 L 96.930 0 98.026 2.048 M 148 25 C 146.625 26.076, 146.081 26.966, 146.792 26.978 C 147.502 26.990, 149.050 26.100, 150.230 25 C 152.986 22.433, 151.282 22.433, 148 25 M 110.081 30.849 C 108.784 33.273, 108.655 37, 109.869 37 C 110.746 37, 112.271 29.938, 111.550 29.217 C 111.337 29.003, 110.676 29.738, 110.081 30.849 M 160.500 36 C 160.840 36.550, 161.316 37, 161.559 37 C 161.802 37, 162 36.550, 162 36 C 162 35.450, 161.523 35, 160.941 35 C 160.359 35, 160.160 35.450, 160.500 36 M 104.703 44.598 C 103.715 45.919, 103.269 47, 103.713 47 C 104.585 47, 107.345 43.002, 106.819 42.501 C 106.644 42.333, 105.691 43.277, 104.703 44.598 M 122.208 43.676 C 121.153 44.100, 121.153 44.485, 122.208 45.784 C 123.299 47.128, 123.250 47.281, 121.890 46.773 C 120.033 46.078, 113.542 53.900, 112.571 58.003 C 111.491 62.567, 113.251 63.498, 117.678 60.704 C 121.740 58.139, 123.875 53.676, 124.591 46.250 C 124.904 43.001, 124.630 42.704, 122.208 43.676 M 111.250 46.031 C 109.322 46.806, 107.954 50, 109.550 50 C 111.236 50, 115.974 46.767, 115.474 45.957 C 114.773 44.824, 114.231 44.833, 111.250 46.031 M 99.936 51.039 C 99.146 51.528, 98.483 53.792, 98.388 56.331 C 98.244 60.168, 98.670 61.192, 101.541 63.900 C 103.368 65.623, 105.062 66.688, 105.306 66.266 C 105.550 65.845, 105.389 63.025, 104.948 60 C 104.507 56.975, 104.113 53.761, 104.073 52.857 C 103.983 50.843, 101.804 49.885, 99.936 51.039 M 188.985 57.527 C 188.241 58.917, 185.711 61.328, 183.363 62.883 L 179.093 65.712 181.465 66.981 C 182.770 67.680, 185.224 68.047, 186.919 67.799 C 189.401 67.434, 190 67.702, 190 69.173 C 190 70.178, 189.550 71, 189 71 C 188.450 71, 188 70.498, 188 69.883 C 188 69.239, 187.106 69.001, 185.885 69.320 C 184.721 69.624, 182.994 69.389, 182.047 68.797 C 179.802 67.395, 168.932 70.826, 160.259 75.674 C 152.845 79.818, 151.773 81.073, 156.273 80.343 C 159.179 79.872, 159.758 80.158, 160.942 82.652 C 162.871 86.718, 163.047 89.555, 161.499 91.665 C 160.344 93.240, 160.445 93.996, 162.211 97 C 163.343 98.925, 165.123 101.258, 166.165 102.185 C 167.864 103.695, 167.940 104.351, 166.896 108.499 C 165.596 113.663, 166.975 117.998, 169.919 118.002 C 170.962 118.003, 171.571 119.025, 171.710 121.002 C 171.989 124.992, 171.090 124.753, 167.500 119.883 C 163.679 114.699, 163.053 116.952, 165.965 125.407 C 169.025 134.290, 168.833 135.157, 163.975 134.380 L 159.949 133.736 160.975 136.433 C 161.539 137.917, 162 140.226, 162 141.565 L 162 144 177 144 L 192 144 192 103.965 C 192 66.161, 191.902 63.980, 190.250 64.826 C 187.164 66.408, 183 67.093, 183 66.019 C 183 65.459, 183.879 65, 184.953 65 C 186.027 65, 188.052 64.478, 189.453 63.839 C 191.539 62.889, 192 61.983, 192 58.839 C 192 54.399, 190.913 53.926, 188.985 57.527 M 164.222 58.893 C 164.156 61.201, 164.491 61.749, 165.685 61.291 C 167.001 60.786, 167.053 61.032, 166.035 62.934 C 165.377 64.165, 165.107 65.440, 165.436 65.769 C 166.638 66.972, 168.142 64.162, 168.319 60.381 C 168.470 57.132, 168.159 56.451, 166.404 56.201 C 164.690 55.956, 164.292 56.448, 164.222 58.893 M 173.405 59.250 L 171.500 61.500 173.750 59.595 C 174.988 58.547, 176 57.535, 176 57.345 C 176 56.545, 175.195 57.136, 173.405 59.250 M 179.181 62.114 C 173.194 66.709, 172.734 68.477, 178.553 64.528 C 181.670 62.413, 185.951 57.955, 184.807 58.016 C 184.638 58.025, 182.107 59.869, 179.181 62.114 M 155 62.237 L 152.500 63.347 154.823 63.753 C 157.772 64.268, 160.315 63.319, 159.504 62.007 C 158.749 60.784, 158.209 60.812, 155 62.237 M 149.490 67.016 C 149.144 67.575, 148.509 67.815, 148.078 67.548 C 147.647 67.282, 146.441 67.710, 145.397 68.500 C 143.600 69.861, 143.644 69.938, 146.250 69.968 C 147.762 69.986, 149 70.424, 149 70.943 C 149 71.461, 146.863 71.889, 144.250 71.893 C 141.637 71.897, 138.102 72.323, 136.394 72.839 C 134.686 73.355, 132.048 73.541, 130.533 73.251 C 128.008 72.768, 127.841 72.924, 128.533 75.104 C 129.211 77.240, 129.117 77.342, 127.625 76.104 C 126.195 74.917, 125.685 74.975, 123.981 76.517 C 122.892 77.503, 122 78.929, 122 79.686 C 122 81.349, 124.939 82.653, 125.851 81.396 C 126.483 80.523, 130.581 78, 131.365 78 C 131.581 78, 132.317 79.350, 133 81 C 133.683 82.650, 134.550 84, 134.926 84 C 135.301 84, 137.609 82.727, 140.054 81.171 C 144.401 78.405, 147.966 75, 146.517 75 C 146.116 75, 147.186 73.694, 148.894 72.099 C 150.602 70.503, 152 68.478, 152 67.599 C 152 65.811, 150.456 65.453, 149.490 67.016 M 157.750 68.217 C 155.781 70.681, 155.519 72, 157 72 C 157.550 72, 158 71.568, 158 71.039 C 158 70.510, 158.985 69.160, 160.189 68.039 C 161.712 66.620, 161.940 66.004, 160.939 66.013 C 160.147 66.021, 158.713 67.012, 157.750 68.217 M 137.250 68.099 C 136.012 68.559, 135 69.625, 135 70.468 C 135 72.295, 134.890 72.283, 138.851 70.902 C 140.583 70.298, 142 69.447, 142 69.009 C 142 67.672, 139.623 67.217, 137.250 68.099 M 154 69 C 154 69.550, 154.450 70, 155 70 C 155.550 70, 156 69.550, 156 69 C 156 68.450, 155.550 68, 155 68 C 154.450 68, 154 68.450, 154 69 M 150.861 72.914 C 149.562 73.967, 148.808 75.137, 149.183 75.514 C 150.098 76.433, 151.756 75.325, 153.030 72.944 C 154.337 70.501, 153.845 70.494, 150.861 72.914 M 126.500 82.178 C 123.687 83.749, 123.749 83.634, 124.476 85.925 C 125.261 88.397, 126.771 88.549, 129.759 86.456 C 131.635 85.143, 131.781 84.622, 130.741 82.956 C 129.334 80.705, 129.186 80.677, 126.500 82.178 M 139.500 84.773 C 136.140 86.606, 134.395 88.238, 134.180 89.750 C 133.711 93.058, 136.344 92.595, 140.217 88.688 C 147.588 81.254, 147.440 80.444, 139.500 84.773 M 111.015 85.750 C 111.042 87.070, 112.450 88.627, 114.199 89.272 C 115.490 89.748, 115.748 89.490, 115.272 88.199 C 114.356 85.714, 110.975 83.768, 111.015 85.750 M 146 86.500 C 144.980 87.729, 145.049 88, 146.378 88 C 147.270 88, 148 87.325, 148 86.500 C 148 85.675, 147.830 85, 147.622 85 C 147.415 85, 146.685 85.675, 146 86.500 M 127.861 90.914 C 125.075 93.173, 125.863 94.502, 129.453 93.601 C 131.110 93.185, 132 92.270, 132 90.981 C 132 88.493, 130.869 88.475, 127.861 90.914 M 141.500 92.082 C 140.950 92.953, 138.025 94.978, 135 96.582 C 131.975 98.187, 129.609 99.945, 129.741 100.489 C 129.874 101.032, 132.292 101.560, 135.115 101.663 C 141.578 101.896, 144.354 104, 138.200 104 C 133.415 104, 133.236 104.264, 136.001 107.232 C 137.391 108.724, 137.653 109.596, 136.859 110.087 C 136.203 110.492, 134.011 109.108, 131.729 106.849 C 129.537 104.678, 127.072 103.037, 126.252 103.201 C 125.431 103.366, 123.966 105.526, 122.994 108.002 C 121.443 111.955, 121.359 113.637, 122.298 121.820 C 123.053 128.395, 123.055 132.658, 122.307 136.309 C 121.725 139.154, 121.465 142.049, 121.731 142.741 C 122.094 143.687, 126.572 144, 139.724 144 L 157.233 144 156.593 141.750 C 156.240 140.512, 155.681 138.262, 155.351 136.750 C 154.901 134.691, 154.154 134, 152.375 134 C 150.820 134, 149.963 133.396, 149.894 132.250 C 149.661 128.400, 150.209 124.261, 151.576 119.548 C 152.621 115.944, 152.835 112.080, 152.362 105.350 C 151.679 95.626, 150.743 93.997, 146.993 96.004 C 143.964 97.625, 143.144 97.183, 142.813 93.750 C 142.562 91.141, 142.303 90.812, 141.500 92.082 M 113.500 93 C 113.840 93.550, 114.541 94, 115.059 94 C 115.577 94, 116 93.550, 116 93 C 116 92.450, 115.298 92, 114.441 92 C 113.584 92, 113.160 92.450, 113.500 93 M 127.543 95.931 C 126.536 97.560, 128.450 97.876, 130.452 96.411 C 132.336 95.034, 132.331 95, 130.250 95 C 129.077 95, 127.859 95.419, 127.543 95.931 M 107.521 97.934 C 107.163 99.061, 107.132 100.405, 107.452 100.922 C 107.771 101.439, 107.575 102.144, 107.016 102.490 C 105.208 103.608, 105.926 104.487, 109.579 105.631 C 114.056 107.032, 114.868 105.642, 112.721 100.250 C 111.032 96.007, 108.492 94.876, 107.521 97.934" stroke="none" fill="black" fill-rule="evenodd"/>
</svg>