<svg xmlns="http://www.w3.org/2000/svg" width="192" height="144" viewBox="0 0 192 144" version="1.1">
	<path d="M 90.745 92.506 C 82.970 99.748, 81.831 102.747, 84.952 107.759 C 87.299 111.528, 92.481 114.991, 95.782 114.996 C 99.319 115.002, 104.445 112.511, 107.357 109.371 C 111.103 105.331, 110.949 100.670, 106.958 97.311 C 105.285 95.903, 104.161 94.505, 104.462 94.205 C 104.762 93.905, 106.106 94.691, 107.449 95.952 L 109.890 98.245 109.594 95.468 C 109.431 93.940, 108.629 92.198, 107.811 91.595 C 106.993 90.993, 106.062 89.825, 105.741 89 C 105.275 87.801, 105.142 87.851, 105.079 89.250 C 104.976 91.532, 102.471 91.496, 100.807 89.189 C 98.421 85.882, 97.549 86.169, 90.745 92.506" stroke="none" fill="black" fill-rule="evenodd"/>
</svg>