<svg xmlns="http://www.w3.org/2000/svg" width="192" height="144" viewBox="0 0 192 144" version="1.1">
	<path d="M 50 72 L 50 144 120.862 144 L 191.723 144 192.196 106.750 C 192.457 86.262, 192.459 53.863, 192.201 34.750 L 191.732 0 120.866 0 L 50 0 50 72 M 110.390 43.653 C 105.659 46.879, 99.950 48.312, 96.718 47.083 C 94.599 46.277, 94.204 46.547, 93.120 49.544 C 92.118 52.314, 92.166 53.420, 93.387 55.782 C 95.091 59.076, 105.362 65, 109.371 65 C 113.414 65, 113.818 68.854, 110.468 75.475 C 105.338 85.615, 105.728 85.478, 86.289 83.993 C 53.391 81.481, 55.083 81.419, 57.035 85.066 C 57.753 86.407, 59.133 87, 61.535 87 C 63.667 87, 65.770 87.770, 67 89 C 69.057 91.057, 71.603 91.784, 70.500 90 C 69.104 87.741, 76.478 89.216, 83 92.500 C 86.823 94.425, 90.411 96, 90.975 96 C 92.905 96, 92.001 94.322, 89.444 93.156 C 88.038 92.516, 87.140 91.582, 87.450 91.081 C 87.759 90.580, 87.447 89.943, 86.756 89.664 C 84.888 88.911, 99.792 89.042, 105 89.824 C 107.932 90.265, 109.547 91.023, 109.635 92 C 109.709 92.825, 109.821 94.236, 109.885 95.135 C 109.971 96.356, 111.456 96.947, 115.750 97.469 C 127.524 98.900, 130.391 99.870, 132.203 103.030 C 134.336 106.747, 135.981 106.841, 136.062 103.250 C 136.113 100.951, 136.986 100.074, 141.379 97.905 C 146.607 95.324, 146.678 95.318, 154.568 96.761 C 158.930 97.558, 165.366 99.536, 168.868 101.154 C 174.880 103.933, 176.331 104.076, 176.625 101.917 C 176.694 101.413, 176.806 100.550, 176.875 100 C 176.944 99.450, 177.873 99, 178.941 99 C 180.009 99, 181.148 98.570, 181.473 98.044 C 181.798 97.518, 182.623 97.302, 183.305 97.564 C 184.013 97.835, 185.044 96.721, 185.704 94.972 C 187.044 91.424, 185.676 86, 183.443 86 C 181.783 86, 176.923 80.934, 177.573 79.882 C 178.400 78.543, 169.169 77.747, 162.239 78.560 C 158.532 78.994, 155.105 79.252, 154.623 79.132 C 154.140 79.013, 150.157 78.408, 145.772 77.788 L 137.799 76.660 138.427 72.731 C 138.773 70.570, 139.718 68.139, 140.528 67.329 C 141.337 66.520, 142 65.733, 142 65.582 C 142 64.412, 138.662 59, 137.940 59 C 137.036 59, 133.795 52.552, 133.601 50.366 C 133.545 49.742, 131.037 47.379, 128.027 45.116 C 121.211 39.990, 116.350 39.587, 110.390 43.653 M 1.036 70.477 L 1 84.455 3.451 81.977 C 9.034 76.335, 9.079 66.188, 3.552 59.500 L 1.072 56.500 1.036 70.477 M 128.188 70.063 C 128.428 70.784, 129.216 71.572, 129.938 71.813 C 130.688 72.063, 131.063 71.688, 130.813 70.938 C 130.572 70.216, 129.784 69.428, 129.063 69.188 C 128.313 68.938, 127.938 69.313, 128.188 70.063 M 115.998 78.505 C 114.644 82.068, 114.703 82.202, 117 80.768 C 119.158 79.420, 119.608 77.494, 117.998 76.499 C 117.447 76.158, 116.547 77.061, 115.998 78.505" stroke="none" fill="black" fill-rule="evenodd"/>
</svg>