<svg xmlns="http://www.w3.org/2000/svg" width="192" height="144" viewBox="0 0 192 144" version="1.1">
	<path d="M 63.755 4.805 C 65.052 18.301, 58.381 35.523, 48.086 45.257 C 35.961 56.720, 13.657 63.077, 1.750 58.464 C 0.100 57.825, 0 60.247, 0 100.893 L 0 144 52.279 144 L 104.558 144 105.794 136.250 C 106.474 131.987, 108.112 125.544, 109.433 121.930 C 112.792 112.747, 117.104 89.474, 116.367 84.500 C 115.953 81.701, 114.833 79.693, 112.638 77.814 L 109.500 75.127 111.126 70.564 C 112.020 68.054, 112.414 66, 112.002 66 C 111.589 66, 109.338 66.675, 107 67.500 C 101.571 69.416, 100 69.392, 100 67.393 C 100 66.375, 99.450 65.997, 98.500 66.362 C 97.675 66.678, 97 66.548, 97 66.071 C 97 65.595, 94.041 64.690, 90.424 64.060 C 84.127 62.964, 74.436 59.950, 70.764 57.947 C 69.809 57.426, 68.153 57, 67.085 57 C 64.798 57, 61.732 54.242, 62.550 52.919 C 63.488 51.401, 66.738 51.866, 72.780 54.382 C 79.962 57.372, 96.186 59.942, 96.772 58.183 C 96.992 57.525, 97.602 57.254, 98.129 57.580 C 98.656 57.906, 99.712 57.654, 100.476 57.020 C 101.491 56.177, 102.888 56.153, 105.682 56.929 C 111.863 58.645, 115.686 58.310, 116.290 56 C 116.626 54.713, 116.320 54, 115.432 54 C 113.911 54, 110.628 48.411, 111.408 47.149 C 111.677 46.713, 111.021 45.606, 109.949 44.688 C 107.663 42.731, 107.454 40.129, 109.372 37.506 C 110.537 35.912, 110.527 35.112, 109.303 32.184 C 107.261 27.296, 108.691 26.339, 114.665 28.596 C 117.324 29.601, 120.625 31, 122 31.705 C 123.375 32.411, 124.978 32.990, 125.563 32.994 C 126.148 32.997, 127.829 34.255, 129.299 35.790 C 131.849 38.452, 133.678 45.077, 135.704 59 C 135.984 60.925, 137.443 63.850, 138.945 65.500 C 140.749 67.481, 141.741 69.755, 141.866 72.194 C 141.970 74.225, 142.668 77.375, 143.417 79.194 C 144.166 81.012, 145.098 85.425, 145.489 89 C 145.879 92.575, 146.788 98.083, 147.508 101.240 C 148.827 107.021, 148.528 111.444, 146.886 110.430 C 146.399 110.128, 146 110.411, 146 111.058 C 146 111.741, 145.162 112.014, 144 111.710 C 142.900 111.423, 142 111.342, 142 111.531 C 142 111.720, 144.675 117.914, 147.945 125.295 C 151.215 132.676, 154.191 139.914, 154.559 141.379 L 155.228 144.043 173.864 143.772 L 192.500 143.500 192.825 129 C 193.003 121.025, 192.837 88.737, 192.455 57.250 L 191.761 0 127.527 -0 L 63.294 -0 63.755 4.805 M 0.459 101 C 0.459 124.925, 0.589 134.713, 0.749 122.750 C 0.908 110.788, 0.908 91.213, 0.749 79.250 C 0.589 67.288, 0.459 77.075, 0.459 101 M 137.425 90.319 C 137.805 95.170, 138.491 100.120, 138.950 101.319 C 139.763 103.443, 139.803 103.430, 140.481 100.827 C 141.148 98.270, 138.643 83.255, 137.352 82.068 C 137.012 81.755, 137.045 85.469, 137.425 90.319" stroke="none" fill="black" fill-rule="evenodd"/>
</svg>