<svg xmlns="http://www.w3.org/2000/svg" width="192" height="144" viewBox="0 0 192 144" version="1.1">
	<path d="M 118 2.532 C 118 3.925, 118.675 6.680, 119.500 8.654 C 121.423 13.257, 121.392 13.664, 119.072 14.271 C 117.322 14.729, 117.188 15.500, 117.614 22.637 C 118.202 32.501, 118.386 33, 121.437 33 C 123.364 33, 123.790 33.384, 123.295 34.674 C 122.813 35.931, 123.060 36.191, 124.290 35.719 C 125.562 35.231, 126.079 35.905, 126.612 38.746 C 127.065 41.161, 126.908 42.531, 126.149 42.784 C 125.517 42.994, 125 43.653, 125 44.247 C 125 44.841, 121.381 48.907, 116.957 53.284 C 109.781 60.383, 107.585 63.981, 110.875 63.250 C 112.415 62.908, 112.393 62.990, 109.001 70.160 C 105.464 77.637, 105.344 80.137, 107.993 91.187 C 109.089 95.759, 109.989 101.399, 109.993 103.719 C 110 107.764, 109.762 108.091, 104.250 111.629 C 93.705 118.396, 87.118 120.911, 81.500 120.315 C 76.659 119.801, 76.428 119.630, 74.250 114.933 C 71.822 109.699, 71.403 106.487, 73.016 105.490 C 73.575 105.144, 73.772 104.440, 73.453 103.924 C 73.134 103.408, 73.560 102.722, 74.399 102.401 C 76.933 101.428, 77.140 98.570, 75.023 93.785 L 73.014 89.244 68.257 89.735 C 59.752 90.612, 57.708 93.048, 55.869 104.500 C 55.339 107.800, 53.802 114.550, 52.453 119.500 C 49.782 129.306, 49.440 134.443, 51.068 140.307 C 52.072 143.921, 52.311 144.098, 55.790 143.807 C 59.274 143.515, 59.492 143.283, 60.199 139.112 C 60.987 134.462, 61.597 133.264, 62.643 134.309 C 62.996 134.663, 62.749 135.597, 62.094 136.387 C 61.216 137.444, 61.200 138.006, 62.032 138.520 C 62.665 138.911, 62.898 140.270, 62.562 141.609 L 61.962 144 73.981 144 C 83.686 144, 86 143.727, 86 142.583 C 86 141.133, 90.306 139.264, 99.932 136.538 C 108.159 134.208, 108.336 134.277, 107.552 139.500 L 106.877 144 134.534 144 L 162.191 144 158.954 138.250 C 157.174 135.088, 153.981 129.937, 151.858 126.805 C 149.736 123.673, 148 120.415, 148 119.566 C 148 118.716, 147.100 115.654, 146.001 112.761 C 143.556 106.330, 143.105 90.281, 145.345 89.421 C 146.204 89.091, 146.655 87.359, 146.595 84.620 C 146.518 81.153, 147.108 79.642, 149.681 76.711 C 151.626 74.496, 153.054 73.556, 153.355 74.294 C 153.712 75.168, 154.148 75.087, 154.939 74 C 155.982 72.566, 155.659 63.586, 154.309 56.520 C 153.814 53.927, 153.939 53.705, 155.273 54.811 C 156.515 55.842, 156.891 55.838, 157.257 54.792 C 157.598 53.813, 158.186 53.924, 159.683 55.250 C 162.274 57.546, 163 57.458, 163 54.845 C 163 52.738, 163.046 52.731, 165.043 54.539 C 167.031 56.338, 167.067 56.338, 166.369 54.520 C 165.805 53.050, 166.008 52.789, 167.326 53.295 C 169.159 53.998, 169.743 51.577, 168 50.500 C 165.994 49.260, 167.004 47.932, 169.099 49.053 C 171.082 50.114, 171.161 49.993, 170.524 46.838 C 170.154 45.002, 168.916 41.173, 167.774 38.329 L 165.698 33.158 168.966 24.094 C 171.804 16.224, 172.145 14.271, 171.558 9.265 C 170.355 -0.988, 173.300 -0, 143.933 -0 L 118 0 118 2.532" stroke="none" fill="black" fill-rule="evenodd"/>
</svg>