<svg xmlns="http://www.w3.org/2000/svg" width="192" height="144" viewBox="0 0 192 144" version="1.1">
	<path d="M -0 72.005 L -0 144.010 96.250 143.755 L 192.500 143.500 192.757 71.750 L 193.013 0 96.507 0 L 0 0 -0 72.005 M 0.474 72.500 C 0.474 112.100, 0.598 128.154, 0.750 108.176 C 0.901 88.198, 0.901 55.798, 0.750 36.176 C 0.598 16.554, 0.474 32.900, 0.474 72.500 M 169.643 58.028 C 168.071 58.499, 165.985 59.608, 165.008 60.493 C 163.383 61.963, 161.812 61.972, 146.744 60.596 C 129.776 59.046, 124.536 59.444, 122.022 62.473 C 120.483 64.327, 121.198 65.391, 125.283 67.330 C 128.085 68.660, 132.388 68.851, 153.049 68.564 C 186.434 68.101, 183.762 68.327, 184.530 65.907 C 185.091 64.137, 185.719 63.912, 188.597 64.452 L 192 65.091 192 61.045 L 192 57 182.250 57.086 C 176.887 57.133, 171.214 57.557, 169.643 58.028" stroke="none" fill="black" fill-rule="evenodd"/>
</svg>