<svg xmlns="http://www.w3.org/2000/svg" width="192" height="144" viewBox="0 0 192 144" version="1.1">
	<path d="M 0 72 L 0 144 37.361 144 L 74.723 144 74.255 141.552 C 73.798 139.164, 78.087 121.098, 80.223 116.409 C 81.007 114.689, 80.976 113.676, 80.109 112.631 C 78.485 110.675, 78.887 104.820, 81.206 96.638 C 84.453 85.186, 86.080 76.886, 86.673 68.750 C 87.158 62.090, 87.014 61, 85.645 61 C 83.377 61, 80.645 55.520, 82.276 54.244 C 84.903 52.189, 95.699 50.908, 101.928 51.911 C 111.147 53.396, 111.639 54.124, 107.516 60.191 C 105.296 63.458, 105.128 64.359, 105.930 68.657 C 106.425 71.303, 106.648 73.760, 106.427 74.118 C 105.799 75.135, 107.881 85.697, 110.446 94.500 C 113.008 103.296, 113.595 110.578, 111.905 112.614 C 111.102 113.582, 111.338 115.591, 112.796 120.215 C 116.290 131.293, 118.242 139.965, 117.704 142.022 C 117.187 144.002, 117.601 144.021, 154.840 143.762 L 192.500 143.500 192.757 71.750 L 193.013 0 96.507 0 L 0 0 0 72 M 0.474 72.500 C 0.474 112.100, 0.598 128.154, 0.750 108.176 C 0.901 88.198, 0.901 55.798, 0.750 36.176 C 0.598 16.554, 0.474 32.900, 0.474 72.500" stroke="none" fill="black" fill-rule="evenodd"/>
</svg>