<svg xmlns="http://www.w3.org/2000/svg" width="192" height="144" viewBox="0 0 192 144" version="1.1">
	<path d="M 0 72 L 0 144 19 144 C 29.450 144, 38 143.735, 38 143.411 C 38 143.087, 35.696 138.024, 32.880 132.161 C 23.145 111.892, 20.605 100.682, 19.085 71.295 L 18.247 55.090 14.874 51.514 C 12.486 48.983, 10.573 45.136, 8.330 38.354 C 6.586 33.083, 5.321 27.931, 5.518 26.904 C 6.133 23.715, 9.398 20.064, 11.667 20.031 C 12.858 20.014, 14.008 19.477, 14.221 18.837 C 14.434 18.198, 15.259 17.577, 16.054 17.457 C 16.849 17.337, 25.065 13.360, 34.311 8.619 L 51.121 0 25.561 0 L 0 0 0 72 M 155 2.322 C 155 3.600, 156.349 7.136, 157.998 10.180 C 164.700 22.555, 168.876 35.553, 167.392 39.421 C 166.557 41.596, 165.143 41.398, 163.051 38.815 C 161.326 36.685, 161.263 36.921, 160.554 48.065 C 159.862 58.946, 157.906 70.200, 156.077 73.827 C 155.613 74.747, 154.631 76.850, 153.894 78.500 C 151.467 83.940, 144.222 93.487, 139.838 97.023 C 134.267 101.518, 131.881 102.753, 124.049 105.194 C 110.471 109.426, 95 103.242, 95 93.582 C 95 91.197, 96.009 89.229, 98.750 86.270 C 100.813 84.043, 103.850 80.360, 105.500 78.084 C 107.150 75.808, 108.982 73.395, 109.572 72.722 C 111.426 70.606, 114.269 62.144, 113.659 60.555 C 113.338 59.718, 112.448 59.275, 111.681 59.569 C 110.904 59.867, 108.339 58.320, 105.893 56.079 C 103.477 53.865, 101.178 52.041, 100.785 52.027 C 100.392 52.012, 99.550 53.012, 98.913 54.250 C 97.298 57.389, 92.860 62, 91.454 62 C 89.451 62, 81.337 69.773, 80.019 72.953 C 79.331 74.615, 78.483 75.798, 78.134 75.583 C 77.354 75.101, 76.999 78.376, 76.841 87.500 C 76.687 96.406, 79.122 101.970, 85.982 108.386 C 100.881 122.323, 122.707 124.678, 140.315 114.250 C 142.405 113.013, 144.454 112, 144.869 112 C 145.283 112, 146.495 111.212, 147.561 110.250 C 148.628 109.287, 151.363 107.236, 153.639 105.691 C 155.915 104.146, 159.355 101.221, 161.282 99.191 C 166.428 93.770, 168 92.612, 168 94.238 C 168 94.963, 167.213 96.266, 166.250 97.135 C 165.287 98.004, 163.777 99.566, 162.894 100.607 C 160.092 103.910, 151.678 110.903, 146.500 114.235 C 137.401 120.089, 137.463 120.334, 147.819 119.514 C 155.453 118.910, 157.443 119.060, 159.477 120.393 C 163.884 123.280, 164.152 125.111, 160.926 130.293 C 157.852 135.232, 157.524 136.075, 158.750 135.882 C 161.846 135.393, 164.004 136.525, 166.558 139.976 C 169.235 143.595, 169.912 143.955, 174.081 143.976 C 177.956 143.996, 178.868 143.615, 180 141.500 C 180.736 140.125, 181.651 139, 182.033 139 C 182.415 139, 183.975 137.200, 185.500 135 C 187.025 132.800, 188.616 131, 189.037 131 C 189.457 131, 190.250 132.688, 190.797 134.750 C 191.488 137.349, 191.825 117.254, 191.897 69.250 L 192 0 173.500 0 L 155 0 155 2.322 M 70.815 31.035 C 64.908 34.155, 65.629 34.672, 73.821 33.191 C 84.362 31.286, 84.814 31.127, 82.972 29.962 C 80.565 28.440, 74.758 28.952, 70.815 31.035 M 169 90.059 C 169 90.641, 169.450 90.840, 170 90.500 C 170.550 90.160, 171 89.684, 171 89.441 C 171 89.198, 170.550 89, 170 89 C 169.450 89, 169 89.477, 169 90.059 M 156 137.892 C 156 138.382, 154.988 139.056, 153.750 139.389 C 152.512 139.722, 150.375 140.885, 149 141.975 L 146.500 143.956 154.809 143.978 C 160.099 143.992, 162.893 143.637, 162.500 143 C 162.160 142.450, 161.234 142, 160.441 142 C 159.571 142, 159 141.010, 159 139.500 C 159 137.944, 158.433 137, 157.500 137 C 156.675 137, 156 137.401, 156 137.892 M 190.500 143 C 190.160 143.550, 190.359 144, 190.941 144 C 191.523 144, 192 143.550, 192 143 C 192 142.450, 191.802 142, 191.559 142 C 191.316 142, 190.840 142.450, 190.500 143" stroke="none" fill="black" fill-rule="evenodd"/>
</svg>