<svg xmlns="http://www.w3.org/2000/svg" width="192" height="144" viewBox="0 0 192 144" version="1.1">
	<path d="M 161 0.465 C 161 0.721, 161.732 3.083, 162.626 5.715 C 163.988 9.724, 164.069 11.493, 163.124 16.624 C 162.022 22.610, 161.760 22.982, 151.498 33.096 C 139.994 44.435, 138.936 45.158, 129.635 48.031 C 121.406 50.573, 117.645 53.448, 118.434 56.595 C 118.890 58.410, 118.332 59.432, 115.912 61.213 C 114.203 62.471, 112.129 64.802, 111.303 66.393 C 109.871 69.150, 109.896 69.260, 111.826 68.756 C 113.270 68.378, 113.698 68.624, 113.318 69.613 C 113.025 70.376, 111.990 71, 111.018 71 C 110.046 71, 107.939 71.262, 106.337 71.583 C 103.712 72.108, 102.974 71.590, 98.855 66.333 C 94.085 60.246, 92.245 54.504, 94.754 53.541 C 95.867 53.114, 95.729 52.471, 94.075 50.368 C 92.934 48.917, 92 47.186, 92 46.520 C 92 45.855, 91.184 44.571, 90.186 43.669 C 88.113 41.792, 86 43.070, 86 46.200 C 86 48.400, 84.799 48.465, 80.950 46.474 C 77.705 44.796, 77.397 45.062, 79.214 47.971 C 80.236 49.607, 80.070 50.296, 78.172 52.316 C 73.271 57.533, 73.282 63.117, 78.214 74 C 79.336 76.475, 81.242 81.875, 82.449 86 C 85.688 97.063, 89.042 103.794, 91.640 104.446 C 94.688 105.211, 96.691 104.254, 97.428 101.681 C 98.033 99.566, 98.099 99.585, 99.586 102.303 C 102.289 107.245, 106.968 121.339, 107.619 126.500 C 107.965 129.250, 109.095 132.907, 110.130 134.627 C 111.903 137.575, 112.281 137.724, 116.755 137.245 C 119.365 136.965, 122.175 136.402, 123 135.994 C 123.825 135.585, 125.400 135.589, 126.500 136.002 C 127.600 136.415, 129.073 136.295, 129.773 135.735 C 130.745 134.957, 130.883 135.164, 130.357 136.609 C 129.978 137.649, 129.067 139.388, 128.334 140.473 C 127.600 141.557, 127 142.795, 127 143.223 C 127 143.650, 141.625 144, 159.500 144 L 192 144 192 72 L 192 0 176.500 0 C 167.975 0, 161 0.209, 161 0.465 M 160.500 52.222 C 158.850 53.941, 156.600 56.824, 155.500 58.627 C 152.598 63.387, 133.621 82.362, 133.156 80.969 C 132.940 80.320, 134.213 77.700, 135.984 75.145 L 139.206 70.500 133.129 76.443 C 129.787 79.711, 126.782 82.116, 126.452 81.786 C 125.551 80.885, 128.451 75.834, 131.497 73 C 132.975 71.625, 134.626 69.600, 135.167 68.500 C 135.708 67.400, 132.952 69.763, 129.042 73.750 C 125.133 77.737, 121.674 81, 121.356 81 C 121.038 81, 121.073 79.425, 121.434 77.501 L 122.090 74.002 119.295 75.196 C 117.758 75.853, 115.992 76.763, 115.372 77.217 C 114.751 77.671, 112.990 77.567, 111.459 76.984 C 107.933 75.644, 106.336 77.089, 108.840 79.355 C 110.817 81.144, 122.134 86.131, 135.211 90.975 C 139.452 92.546, 143.939 94.545, 145.183 95.416 C 146.427 96.287, 147.982 97, 148.639 97 C 149.308 97, 152.912 87.650, 156.829 75.750 C 166.380 46.738, 166.500 45.971, 160.500 52.222 M 117.004 70.496 C 115.714 71.869, 114.911 73.245, 115.220 73.554 C 115.529 73.862, 116.762 72.739, 117.959 71.058 C 120.596 67.354, 120.183 67.112, 117.004 70.496 M 131.459 132.067 C 131.096 132.653, 131.014 133.348, 131.276 133.610 C 131.538 133.872, 132.019 133.392, 132.345 132.543 C 133.021 130.781, 132.445 130.471, 131.459 132.067" stroke="none" fill="black" fill-rule="evenodd"/>
</svg>