<svg xmlns="http://www.w3.org/2000/svg" width="192" height="144" viewBox="0 0 192 144" version="1.1">
	<path d="M 0 72 L 0 144 42.629 144 L 85.257 144 84.531 132.790 C 84.131 126.624, 83.663 120.845, 83.490 119.948 C 82.418 114.379, 81.500 78.556, 81.500 42.250 L 81.500 -0 40.750 -0 L 0 0 0 72 M 189.086 12.750 C 183.029 37.538, 181.558 57.331, 182.305 104 C 182.617 123.525, 183.179 140.512, 183.553 141.750 C 184.106 143.580, 184.958 144, 188.117 144 L 192 144 192 74 C 192 35.500, 191.825 4, 191.612 4 C 191.398 4, 190.262 7.938, 189.086 12.750" stroke="none" fill="black" fill-rule="evenodd"/>
</svg>