<svg xmlns="http://www.w3.org/2000/svg" width="192" height="144" viewBox="0 0 192 144" version="1.1">
	<path d="M 0 72 L 0 144 35 144 C 55.981 144, 70 143.626, 70 143.067 C 70 142.554, 70.900 141.849, 72 141.500 C 74.353 140.753, 74.597 138.740, 72.541 137.034 C 71.355 136.050, 71.155 133.286, 71.477 122.308 C 71.694 114.876, 72.110 108.556, 72.401 108.266 C 72.692 107.975, 72.270 106.796, 71.465 105.646 C 69.339 102.611, 69.663 97.819, 72.414 91.599 C 74.752 86.311, 78.576 83, 82.343 83 C 83.137 83, 84.059 82.288, 84.393 81.418 C 85.587 78.306, 84.971 62.677, 83.418 56.682 C 82.547 53.323, 82.076 49.368, 82.371 47.894 C 82.873 45.383, 82.632 45.172, 78.559 44.561 C 76.167 44.202, 73.038 44.203, 71.605 44.563 C 70.172 44.923, 69 44.818, 69 44.331 C 69 43.142, 71.735 39.120, 74.824 35.767 C 77.192 33.197, 77.242 32.925, 75.671 31.188 C 73.483 28.771, 73.563 28, 76 28 C 78.275 28, 78.440 26.620, 76.941 20.118 C 76.385 17.708, 76.210 15.458, 76.551 15.118 C 76.893 14.778, 79.271 16.868, 81.836 19.762 L 86.500 25.024 92.500 23.994 C 95.800 23.427, 104.222 23.052, 111.215 23.161 C 123.922 23.358, 123.932 23.356, 126.043 20.673 C 127.205 19.196, 129.062 17.502, 130.171 16.909 C 132.135 15.857, 132.169 16.022, 131.480 23.367 L 130.774 30.905 133.637 31.540 C 141.621 33.310, 147.172 35.217, 146.383 35.919 C 145.897 36.352, 143.380 37.275, 140.790 37.971 C 138.199 38.668, 136.174 39.744, 136.290 40.362 C 136.411 41.009, 134.018 41.883, 130.650 42.420 L 124.801 43.354 125.491 47.427 C 127.295 58.083, 127.937 65.391, 127.967 75.595 L 128 86.690 132.089 93.016 C 135.671 98.559, 136.107 99.847, 135.604 103.421 C 134.783 109.272, 134.771 108.854, 135.954 116.500 C 137.403 125.865, 138.844 130, 140.657 130 C 141.808 130, 142.004 130.706, 141.495 133.022 C 141.130 134.684, 141.135 137.841, 141.507 140.039 L 142.182 144.034 167.341 143.767 L 192.500 143.500 192.757 71.750 L 193.013 0 96.507 0 L 0 0 0 72 M 0.474 72.500 C 0.474 112.100, 0.598 128.154, 0.750 108.176 C 0.901 88.198, 0.901 55.798, 0.750 36.176 C 0.598 16.554, 0.474 32.900, 0.474 72.500 M 87 137.059 C 87 137.641, 87.450 137.840, 88 137.500 C 88.550 137.160, 89 136.684, 89 136.441 C 89 136.198, 88.550 136, 88 136 C 87.450 136, 87 136.477, 87 137.059" stroke="none" fill="black" fill-rule="evenodd"/>
</svg>