<svg xmlns="http://www.w3.org/2000/svg" width="192" height="144" viewBox="0 0 192 144" version="1.1">
	<path d="M 47 1.402 C 47 3.273, 42.763 5.230, 40.551 4.381 C 39.568 4.004, 38.869 4.673, 38.433 6.409 C 38.076 7.834, 37.184 9, 36.451 9 C 34.162 9, 33.848 10.833, 35.642 13.722 C 36.667 15.374, 36.806 15.993, 35.983 15.250 C 35.223 14.563, 34.204 14, 33.721 14 C 32.469 14, 33.866 19.929, 35.986 23.620 C 38.196 27.465, 37.246 29.737, 34.127 28.068 C 32.957 27.442, 32 26.568, 32 26.125 C 32 24.746, 27.076 23, 23.203 23.006 C 16.188 23.016, 12.243 24.801, 8.552 29.636 L 5.078 34.185 6.937 39.077 C 7.960 41.767, 10.015 45.417, 11.505 47.188 C 12.994 48.958, 15.353 52.899, 16.747 55.946 C 20.214 63.525, 21.247 64.183, 28.736 63.580 C 34.261 63.135, 35.095 63.309, 36.056 65.105 C 36.653 66.219, 39.082 67.964, 41.455 68.981 C 45.030 70.513, 46.069 71.613, 47.514 75.397 C 48.698 78.498, 49.101 81.599, 48.768 85.060 C 48.366 89.247, 48.605 90.361, 50.104 91.297 C 52.288 92.661, 51.725 96.410, 48.858 99.575 C 47.277 101.322, 32.760 142.979, 33.459 143.763 C 33.588 143.908, 48.857 143.908, 67.390 143.763 L 101.086 143.500 96.417 136.538 C 91.301 128.911, 89.449 125.009, 84.531 111.500 C 82.729 106.550, 80.645 101.028, 79.900 99.229 C 78.775 96.511, 78.769 95.599, 79.867 93.841 C 81.660 90.970, 81.459 70.035, 79.595 65.573 C 78.412 62.743, 78.447 62.084, 79.870 60.376 C 82.009 57.808, 89.440 54.363, 94.641 53.527 C 99.181 52.797, 101.314 50.877, 105.230 43.999 C 106.640 41.523, 108.739 38.641, 109.896 37.594 C 111.053 36.547, 112 34.635, 112 33.345 C 112 32.055, 112.509 31, 113.132 31 C 113.880 31, 114.076 29.605, 113.711 26.882 L 113.159 22.764 116.472 23.302 C 120.578 23.968, 124 21.790, 124 18.511 C 124 15.664, 120.638 14.225, 118.376 16.103 C 117.138 17.130, 116.693 17.121, 116.033 16.053 C 115.373 14.985, 114.774 15.045, 112.886 16.367 C 109.880 18.472, 109 18.427, 109 16.167 C 109 15.158, 108.753 14.086, 108.451 13.784 C 107.394 12.728, 103.016 15.516, 103.008 17.250 C 103.004 18.212, 102.522 19, 101.937 19 C 101.353 19, 101.015 18.029, 101.187 16.843 C 101.885 12.028, 98.691 14.286, 96.440 20.199 C 95.787 21.914, 85.956 25.350, 78.911 26.325 C 75.405 26.811, 75.272 26.704, 73.177 21.745 C 71.583 17.972, 71.314 16.327, 72.129 15.345 C 73.530 13.657, 72.374 7.106, 70.260 4.750 C 69.397 3.788, 67.690 3, 66.467 3 C 65.245 3, 62.629 2.325, 60.654 1.500 C 56.287 -0.325, 51.318 -0.450, 50.746 1.250 C 50.418 2.225, 49.959 2.198, 48.663 1.128 C 47.230 -0.055, 47 -0.017, 47 1.402 M 96.729 28.604 C 96.328 29.005, 96 30.023, 96 30.867 C 96 31.992, 96.296 32.104, 97.112 31.288 C 97.724 30.676, 98.052 29.657, 97.842 29.025 C 97.631 28.392, 97.130 28.203, 96.729 28.604 M 31 35.212 C 27.975 35.749, 25.121 36.547, 24.657 36.986 C 23.637 37.954, 27.869 50, 29.230 50 C 29.759 50, 31.520 49.054, 33.144 47.898 C 35.393 46.296, 36.918 45.950, 39.548 46.443 C 42.300 46.959, 43 46.770, 43 45.512 C 43 43.465, 38.191 33.964, 37.233 34.119 C 36.830 34.184, 34.025 34.676, 31 35.212 M 86.638 37.335 L 78.776 40.500 84.019 41.412 C 87.178 41.962, 89.826 41.962, 90.682 41.412 C 92.481 40.256, 96.484 33.971, 95.348 34.085 C 94.882 34.132, 90.962 35.594, 86.638 37.335" stroke="none" fill="black" fill-rule="evenodd"/>
</svg>