<svg xmlns="http://www.w3.org/2000/svg" width="192" height="144" viewBox="0 0 192 144" version="1.1">
	<path d="M 163.927 14.831 C 161.491 16.376, 155.674 20.581, 150.999 24.176 C 143.657 29.821, 126.662 41, 125.421 41 C 125.189 41, 125 40.380, 125 39.622 C 125 38.865, 124.382 37.732, 123.626 37.105 C 122.550 36.212, 121.900 36.504, 120.621 38.456 C 119.225 40.586, 118.619 40.806, 116.429 39.973 C 109.492 37.336, 100.014 40.638, 97.542 46.555 C 95.700 50.962, 95.570 53.690, 97.177 54.226 C 97.824 54.441, 98.018 55.161, 97.608 55.825 C 96.333 57.888, 95.290 56.246, 94.608 51.103 C 93.844 45.347, 89.954 40.452, 85.402 39.520 C 79.823 38.378, 77.702 37.489, 77.011 36 C 72.506 26.300, 71.223 24.463, 67.143 21.876 C 57.717 15.898, 47.968 17.747, 41.623 26.716 C 33.169 38.668, 34.331 50.052, 44.708 56.934 C 49.127 59.864, 50.061 60.091, 56.707 59.846 C 60.670 59.700, 64.233 59.900, 64.623 60.290 C 65.014 60.681, 64.432 61, 63.331 61 C 60.582 61, 51.997 67.828, 52.640 69.503 C 52.921 70.238, 52.404 71.980, 51.490 73.375 C 49.479 76.444, 50.572 79.306, 52.662 76.447 C 53.925 74.720, 54.135 74.706, 55.674 76.245 C 57.049 77.621, 57.109 78.164, 56.026 79.469 C 54.944 80.772, 55.001 81.344, 56.362 82.847 C 57.513 84.119, 58.009 86.568, 58.031 91.079 C 58.054 95.790, 58.705 98.811, 60.474 102.423 C 62.214 105.976, 62.623 107.836, 61.943 109.107 C 60.618 111.583, 60.770 116.660, 62.241 119.014 C 63.228 120.595, 63.228 121.405, 62.241 122.986 C 60.649 125.535, 60.649 130.465, 62.241 133.014 C 63.228 134.595, 63.228 135.405, 62.241 136.986 C 61.558 138.079, 61.061 140.216, 61.136 141.736 C 61.257 144.181, 61.323 144.233, 61.713 142.192 C 62.233 139.471, 65.673 139.564, 65.206 142.286 C 65.045 143.229, 65.382 144, 65.956 144 C 67.525 144, 67.211 140.252, 65.413 137.508 C 63.964 135.296, 63.964 134.889, 65.413 132.821 C 67.434 129.935, 67.442 125.604, 65.431 122.535 C 63.999 120.350, 64.007 119.919, 65.519 117.611 C 67.225 115.007, 66.808 109, 64.921 109 C 64.414 109, 64 108.089, 64 106.975 C 64 104.603, 66.344 103.562, 73.877 102.591 C 78.831 101.952, 79.184 102.039, 78.377 103.699 C 77.894 104.689, 77.500 113.375, 77.500 123 C 77.500 132.625, 77.114 141.287, 76.643 142.250 C 75.843 143.884, 76.987 144, 93.863 144 L 111.940 144 109.373 140.250 C 107.019 136.812, 106.843 135.835, 107.251 128.500 C 107.656 121.215, 110.179 113, 112.012 113 C 112.365 113, 113.870 117.932, 115.357 123.961 C 118.221 135.574, 118.227 135.465, 114.219 143.250 C 114.007 143.662, 118.033 143.957, 123.167 143.905 L 132.500 143.811 138.250 137.433 C 146.334 128.465, 145.893 124.399, 135.636 113.321 C 130.915 108.221, 130 106.636, 130 103.558 C 130 95.418, 134.298 74, 135.932 74 C 136.299 74, 137.134 74.534, 137.787 75.187 C 139.590 76.990, 143.451 72.821, 147.534 64.659 C 151.277 57.177, 151.920 52.062, 149.429 49.571 C 146.991 47.133, 141.125 47.217, 137.268 49.744 C 135.694 50.776, 134.563 50.963, 133.901 50.301 C 133.239 49.639, 135.258 47.380, 139.912 43.572 C 145.341 39.130, 147.398 37.992, 149.048 38.515 C 151.554 39.311, 161 35.188, 161 33.299 C 161 32.623, 160.082 31.579, 158.959 30.978 C 156.930 29.892, 156.931 29.876, 159.209 27.976 C 160.469 26.926, 160.938 26.052, 160.250 26.033 C 158.020 25.974, 158.906 24.264, 164.132 18.546 C 166.955 15.458, 169.060 12.726, 168.810 12.477 C 168.560 12.227, 166.363 13.286, 163.927 14.831 M 87 67.603 C 84.098 69.680, 82.645 70.037, 78.500 69.689 C 75.750 69.459, 72.516 68.939, 71.314 68.535 C 69.384 67.886, 69.045 68.245, 68.417 71.591 C 68.024 73.688, 68.166 76.601, 68.735 78.109 C 69.374 79.802, 69.410 81.190, 68.828 81.772 C 68.304 82.296, 68.194 84.982, 68.578 87.879 C 69.127 92.012, 69.589 92.951, 70.882 92.553 C 72.567 92.035, 82.581 89.599, 87.110 88.605 C 89.300 88.124, 90.170 86.800, 92.508 80.389 C 95.036 73.458, 95.142 72.659, 93.648 71.823 C 92.698 71.291, 92 69.651, 92 67.950 C 92 64.403, 91.518 64.369, 87 67.603 M 63.250 111.662 C 61.508 112.365, 61.684 115.665, 63.500 116.362 C 64.626 116.794, 65 116.197, 65 113.969 C 65 112.336, 64.888 111.036, 64.750 111.079 C 64.612 111.122, 63.938 111.385, 63.250 111.662 M 63.250 125.662 C 61.508 126.365, 61.684 129.665, 63.500 130.362 C 64.626 130.794, 65 130.197, 65 127.969 C 65 126.336, 64.888 125.036, 64.750 125.079 C 64.612 125.122, 63.938 125.385, 63.250 125.662" stroke="none" fill="black" fill-rule="evenodd"/>
</svg>