<svg xmlns="http://www.w3.org/2000/svg" width="192" height="144" viewBox="0 0 192 144" version="1.1">
	<path d="M 0 72 L 0 144 34.981 144 L 69.962 144 70.603 141.250 C 72.589 132.724, 75.379 123.412, 77.541 118.091 C 78.894 114.763, 80 111.187, 80 110.145 C 80 107.434, 75.520 107.609, 74.112 110.375 C 73.249 112.070, 73.152 111.538, 73.629 107.750 C 74.126 103.799, 73.956 103, 72.614 103 C 71.553 103, 71 102.131, 71 100.464 C 71 98.402, 70.138 97.559, 66.380 95.949 C 63.840 94.860, 59.677 93.464, 57.130 92.848 C 54.584 92.231, 51.600 90.735, 50.500 89.523 C 49.203 88.094, 46.765 87.085, 43.564 86.653 C 38.228 85.933, 31.820 83.185, 31.264 81.378 C 31.045 80.666, 32.643 80.221, 35.626 80.161 C 41.709 80.039, 42.864 78.825, 39.452 76.141 C 37.356 74.492, 36.475 72.529, 35.470 67.262 C 34.123 60.207, 34.778 57.741, 37.416 59.931 C 38.673 60.974, 39.023 60.755, 39.567 58.588 C 39.924 57.165, 40.814 56, 41.544 56 C 42.273 56, 43.431 54.450, 44.116 52.556 C 45.233 49.467, 45.494 49.286, 46.649 50.806 C 47.357 51.738, 47.951 52.147, 47.968 51.715 C 47.986 51.283, 48.843 51.381, 49.873 51.932 C 50.903 52.483, 52.239 54.891, 52.841 57.283 C 53.443 59.675, 54.851 62.460, 55.968 63.471 C 57.086 64.482, 58 65.743, 58 66.273 C 58 67.535, 51.798 75.070, 48.434 77.896 C 46.892 79.191, 46.905 79.367, 48.621 80.328 C 49.639 80.897, 52.154 81.264, 54.211 81.143 C 56.348 81.016, 59.030 81.629, 60.468 82.571 C 63.583 84.612, 65.544 83.951, 66.392 80.574 C 66.749 79.151, 69.093 74.662, 71.601 70.599 C 75.822 63.759, 76.300 62.283, 78.046 50.707 C 79.989 37.821, 82.618 29.185, 85.602 25.888 C 87.242 24.075, 87.184 24, 84.155 24 C 81.338 24, 81 23.688, 81 21.092 C 81 17.723, 85.752 8, 87.399 8 C 90.584 8, 95.676 10.313, 99.640 13.562 C 103.557 16.771, 104.535 17.130, 107.795 16.558 C 119.119 14.570, 120 14.619, 120 17.240 C 120 18.583, 119.347 21.850, 118.550 24.500 C 117.575 27.738, 117.411 29.900, 118.050 31.093 C 119.608 34.005, 119.127 39.280, 116.981 42.799 C 115.874 44.614, 114.526 45.825, 113.985 45.490 C 113.443 45.156, 113 45.359, 113 45.941 C 113 46.523, 112.373 47, 111.607 47 C 109.808 47, 109 49.196, 109 54.082 C 109 56.898, 109.422 58, 110.500 58 C 111.325 58, 112 58.493, 112 59.097 C 112 59.700, 113.764 62.197, 115.920 64.647 C 121.271 70.726, 124.193 76.771, 122.926 79.139 C 122.345 80.224, 122.270 82.900, 122.743 85.733 L 123.537 90.500 132.019 91.551 C 136.683 92.129, 141.252 92.951, 142.172 93.378 C 143.140 93.827, 144.824 93.597, 146.172 92.832 C 147.452 92.104, 149.175 91.497, 150 91.481 C 150.860 91.465, 151.375 90.716, 151.206 89.726 C 150.861 87.698, 152.061 87.487, 153.912 89.250 C 154.983 90.270, 155.100 90.086, 154.545 88.250 C 153.805 85.802, 154.895 85.295, 156.800 87.200 C 160.254 90.654, 156.357 97.266, 150.088 98.590 C 148.664 98.891, 145.581 100.041, 143.236 101.145 C 139.152 103.070, 138.681 103.088, 132.039 101.577 C 128.225 100.710, 123.539 100, 121.625 100 C 117.647 100, 114.901 97.232, 112.883 91.188 L 111.652 87.500 110.281 92.857 C 109.116 97.410, 109.119 98.536, 110.296 100.357 C 111.081 101.570, 111.501 104.018, 111.265 106 C 110.999 108.227, 111.654 111.319, 113.065 114.500 C 114.285 117.250, 117.194 124.900, 119.528 131.500 L 123.773 143.500 158.137 143.500 L 192.500 143.500 192.757 71.750 L 193.013 0 96.507 0 L 0 0 0 72 M 0.474 72.500 C 0.474 112.100, 0.598 128.154, 0.750 108.176 C 0.901 88.198, 0.901 55.798, 0.750 36.176 C 0.598 16.554, 0.474 32.900, 0.474 72.500 M 68 84.500 C 68 85.325, 68.177 86, 68.393 86 C 68.609 86, 69.045 85.325, 69.362 84.500 C 69.678 83.675, 69.501 83, 68.969 83 C 68.436 83, 68 83.675, 68 84.500" stroke="none" fill="black" fill-rule="evenodd"/>
</svg>