<svg xmlns="http://www.w3.org/2000/svg" width="192" height="144" viewBox="0 0 192 144" version="1.1">
	<path d="M 39.010 14.481 C 38.269 15.866, 36.838 17, 35.831 17 C 33.835 17, 33.373 18.495, 35.049 19.530 C 35.765 19.973, 35.727 20.624, 34.926 21.589 C 33.974 22.736, 34.199 23.003, 36.128 23.014 C 37.432 23.021, 39.513 23.299, 40.750 23.630 C 42.417 24.077, 43 23.806, 43 22.585 C 43 21.679, 43.675 20.678, 44.500 20.362 C 46.667 19.530, 46.343 18, 44 18 C 42.768 18, 41.994 17.328, 41.985 16.250 C 41.954 12.724, 40.434 11.820, 39.010 14.481 M 98.040 26.452 C 97.377 27.251, 97.120 28.802, 97.468 29.898 C 98.287 32.479, 94.198 67.402, 93.029 67.810 C 91.621 68.301, 86 79.693, 86 82.055 C 86 83.230, 86.960 85.539, 88.132 87.186 L 90.265 90.180 87.073 105.840 C 85.318 114.453, 83.634 122.962, 83.332 124.750 C 83.029 126.537, 82.264 128, 81.631 128 C 80.229 128, 77.742 131.773, 78.420 132.871 C 78.689 133.305, 78.295 135.987, 77.545 138.830 L 76.181 144 121.731 144 L 167.282 144 166.696 135.750 C 166.373 131.213, 165.414 121.875, 164.564 115 C 163.063 102.868, 163.083 102.147, 165.234 90.500 C 168.426 73.220, 168.224 59.114, 164.632 48.507 C 161.500 39.260, 158.983 35.212, 154.421 32.086 C 150.734 29.560, 142.993 27, 139.041 27 C 137.588 27, 135.954 26.554, 135.408 26.008 C 134.459 25.059, 133.119 25.339, 124.925 28.199 C 123.509 28.693, 120.144 31.123, 117.447 33.599 C 113.802 36.945, 112.887 38.312, 113.879 38.925 C 114.812 39.502, 114.881 39.956, 114.107 40.434 C 112.921 41.167, 112.607 46.812, 113.607 49.418 C 113.941 50.288, 114.953 51.015, 115.857 51.033 C 117.179 51.060, 117.064 51.431, 115.267 52.930 C 113.249 54.614, 113.083 55.443, 113.548 61.543 C 114.139 69.293, 114.428 70, 117 70 C 119.132 70, 120.708 71.896, 119.378 72.862 C 118.895 73.213, 118.384 75.075, 118.242 77 C 118.081 79.176, 117.099 81.283, 115.645 82.570 C 114.359 83.708, 113.014 85.733, 112.657 87.070 C 111.843 90.107, 108.354 94.687, 107.501 93.835 C 107.152 93.485, 106.223 90.117, 105.437 86.350 C 104.651 82.582, 103.331 77.803, 102.504 75.730 C 101.677 73.656, 101 69.067, 101 65.531 C 101 58.013, 103.590 37.153, 105.190 31.782 C 106.044 28.913, 106.007 27.713, 105.026 26.532 C 103.419 24.595, 99.617 24.552, 98.040 26.452 M 94.172 103.205 C 93.503 107.102, 93.191 110.525, 93.478 110.812 C 93.765 111.099, 94 110.616, 94 109.739 C 94 108.862, 95.395 107.053, 97.101 105.718 C 100.155 103.328, 100.178 103.245, 98.608 100.209 C 97.731 98.514, 96.648 96.900, 96.200 96.624 C 95.753 96.347, 94.840 99.309, 94.172 103.205 M 91.622 125.825 C 91.179 127.104, 91.083 128.417, 91.409 128.742 C 92.445 129.779, 93.174 128.250, 92.794 125.836 L 92.426 123.500 91.622 125.825" stroke="none" fill="black" fill-rule="evenodd"/>
</svg>