<svg xmlns="http://www.w3.org/2000/svg" width="192" height="144" viewBox="0 0 192 144" version="1.1">
	<path d="M 0 72 L 0 144 7.481 144 C 16.207 144, 15.898 144.439, 16.270 131.500 C 16.489 123.884, 16.392 123.485, 14.250 123.180 C 11.213 122.749, 11.400 121.974, 15.500 118 C 17.425 116.134, 19.003 113.908, 19.006 113.054 C 19.010 112.199, 19.693 110.196, 20.524 108.602 C 21.882 105.997, 21.873 105.456, 20.439 103.267 C 18.967 101.020, 18.978 100.682, 20.577 98.915 C 21.530 97.862, 23.189 97, 24.263 97 C 25.849 97, 26.098 96.528, 25.587 94.492 C 25.193 92.920, 25.713 90.326, 26.979 87.546 C 28.090 85.106, 29 82.656, 29 82.101 C 29 81.546, 31.055 79.522, 33.567 77.604 L 38.135 74.117 38.317 66.137 C 38.476 59.208, 38.819 57.818, 40.924 55.579 C 42.258 54.160, 43.804 53, 44.360 53 C 44.916 53, 47.506 51.200, 50.115 49 C 53.353 46.269, 55.814 45, 57.870 45 C 59.526 45, 63.482 43.650, 66.663 42 C 69.843 40.350, 71.836 39, 71.091 39 C 68.662 39, 70.489 31.140, 73.734 27.629 C 75.325 25.908, 77.151 23.262, 77.792 21.750 C 78.553 19.953, 79.745 18.971, 81.229 18.916 C 82.478 18.869, 86.199 18.496, 89.499 18.086 C 96.925 17.162, 101.471 18.448, 104.166 22.234 C 105.523 24.138, 106.918 24.993, 108.351 24.796 C 110.088 24.557, 110.556 25.075, 110.790 27.500 C 110.950 29.150, 111.493 31.625, 111.996 33 C 112.499 34.375, 113.126 37.023, 113.389 38.884 C 114.142 44.205, 115.522 44.817, 119.161 41.443 L 122.335 38.500 119.126 42.594 C 116.682 45.710, 115.973 47.535, 116.155 50.237 C 116.334 52.890, 116.765 53.644, 117.861 53.223 C 118.883 52.831, 119.081 53.060, 118.515 53.976 C 117.887 54.992, 118.315 55.138, 120.396 54.615 C 122.656 54.048, 122.215 54.710, 117.665 58.720 C 112.929 62.893, 110.004 67, 111.768 67 C 112.087 67, 115.195 64.010, 118.674 60.355 C 122.153 56.700, 125 54.310, 125 55.042 C 125 55.805, 126.320 55.120, 128.092 53.437 C 130.805 50.859, 132.753 47.944, 136.487 40.870 C 137.030 39.841, 137.827 39, 138.257 39 C 138.688 39, 138.146 40.754, 137.052 42.898 C 135.099 46.726, 135.098 46.787, 136.999 46.290 C 138.063 46.012, 139.454 45.157, 140.090 44.392 C 142.112 41.955, 143.168 42.897, 141.297 45.469 C 140.309 46.826, 138.714 47.951, 137.753 47.969 C 135.316 48.012, 127.793 55.019, 128.422 56.658 C 128.706 57.396, 128.501 58, 127.969 58 C 127.436 58, 127 58.675, 127 59.500 C 127 60.325, 126.339 61, 125.531 61 C 124.632 61, 124.288 60.414, 124.643 59.489 C 125.856 56.326, 122.421 59.189, 119 64.191 C 115.505 69.302, 113.763 73.430, 114.705 74.372 C 114.979 74.646, 116.724 74.145, 118.582 73.259 C 120.842 72.182, 122.323 70.552, 123.053 68.338 C 124.438 64.142, 126.492 62.648, 125.784 66.351 C 125.505 67.808, 125.327 68.998, 125.389 68.995 C 125.896 68.974, 136.955 64.174, 138.574 63.273 C 139.715 62.638, 141.180 60.341, 141.831 58.169 C 143.057 54.078, 148 49.469, 148 52.418 C 148 53.223, 147.550 54.160, 147 54.500 C 146.450 54.840, 146.015 55.654, 146.033 56.309 C 146.052 56.964, 146.970 56.415, 148.073 55.090 C 149.557 53.307, 150.372 52.972, 151.203 53.803 C 152.033 54.633, 151.697 55.185, 149.913 55.923 C 148.586 56.472, 145.762 58.689, 143.638 60.851 C 141.513 63.013, 138.588 65.323, 137.138 65.984 C 128.479 69.928, 121.171 74.189, 118.874 76.635 C 116.695 78.953, 116.928 82.781, 119.163 81.399 C 119.958 80.908, 120.132 81.212, 119.701 82.336 C 118.841 84.579, 119.099 84.519, 127.595 80.487 C 133.872 77.508, 136.252 76.928, 143.249 76.671 C 147.787 76.505, 152.361 75.984, 153.414 75.514 C 154.722 74.931, 155.114 75.006, 154.653 75.753 C 154.281 76.354, 152.632 77.142, 150.989 77.503 C 149.345 77.864, 148 78.764, 148 79.503 C 148 80.242, 146.875 82.184, 145.500 83.818 C 142.537 87.339, 142.030 90.188, 144.815 87.667 C 145.813 86.764, 148.063 85.525, 149.815 84.915 C 151.598 84.293, 153 83.103, 153 82.211 C 153 80.908, 153.273 80.971, 154.500 82.559 C 155.985 84.480, 156.015 84.480, 157.500 82.559 C 159.347 80.169, 159.422 77.570, 157.694 75.821 C 156.976 75.095, 156.052 73.613, 155.640 72.528 C 155.102 71.109, 154.677 70.904, 154.126 71.796 C 153.704 72.478, 152.041 73.431, 150.430 73.914 C 148.818 74.397, 146.639 75.140, 145.586 75.566 C 142.230 76.923, 144.789 74.194, 148.542 72.413 C 150.444 71.510, 152 70.373, 152 69.886 C 152 69.399, 153.111 69, 154.469 69 C 156.121 69, 156.767 69.443, 156.423 70.340 C 156.140 71.077, 156.599 72.252, 157.443 72.952 C 159.627 74.765, 160.536 71.977, 159.102 67.863 C 157.704 63.852, 157.741 62.949, 159.202 65.468 C 160.264 67.298, 160.434 67.194, 161.649 63.968 C 162.912 60.614, 162.935 60.689, 162.362 66.250 C 161.958 70.167, 162.125 72, 162.885 72 C 163.498 72, 164 71.523, 164 70.941 C 164 70.359, 164.514 70.200, 165.143 70.588 C 165.873 71.040, 165.332 71.794, 163.643 72.679 C 161.700 73.697, 161 74.842, 161 77.001 C 161 80.902, 163.621 80.003, 164.548 75.783 C 165.048 73.504, 165.446 73.083, 166.124 74.117 C 166.844 75.217, 167.605 74.885, 169.837 72.500 C 171.381 70.850, 173.736 68.600, 175.072 67.500 L 177.500 65.500 175.589 67.756 C 172.857 70.983, 174.077 71.392, 178.846 68.846 C 181.117 67.634, 183.318 67.009, 183.738 67.458 C 184.157 67.907, 183.974 68.463, 183.331 68.693 C 182.688 68.924, 179.767 71.337, 176.840 74.056 C 173.914 76.775, 171.177 79, 170.760 79 C 170.342 79, 170 79.675, 170 80.500 C 170 81.333, 170.889 82, 172 82 C 173.100 82, 173.888 81.494, 173.750 80.875 C 173.613 80.256, 174.004 79.563, 174.619 79.335 C 175.323 79.074, 175.565 79.825, 175.271 81.362 C 174.852 83.552, 174.496 83.716, 171.816 82.947 C 170.087 82.451, 168.127 82.476, 167.164 83.006 C 166.249 83.509, 162.125 85.342, 158 87.079 C 150.018 90.441, 141.893 95.988, 139.417 99.768 C 138.589 101.031, 135.377 103.185, 132.279 104.555 C 126.740 107.005, 126.265 108.268, 130.500 109.287 C 131.795 109.598, 131.354 109.809, 129.250 109.884 C 127.463 109.948, 126 110.450, 126 111 C 126 111.550, 126.375 112, 126.833 112 C 127.292 112, 127.667 112.675, 127.667 113.500 C 127.667 115.680, 126.251 115.337, 124.910 112.832 L 123.750 110.664 122.420 113.082 C 121.431 114.879, 121.207 118.839, 121.546 128.500 C 121.798 135.650, 122.003 142.063, 122.002 142.750 C 122 143.722, 128.691 144, 152.129 144 L 182.258 144 181.578 138.750 C 181.150 135.442, 180.205 132.945, 179.024 132 C 176.541 130.013, 176.383 128.550, 177.937 121.913 C 178.917 117.726, 178.965 115.803, 178.127 114.237 C 177.245 112.590, 177.378 111.485, 178.754 109.020 C 180.466 105.955, 180.454 105.856, 178.172 103.973 C 175.211 101.531, 175.712 98.825, 179.364 97.541 C 181.810 96.681, 182.476 96.869, 184.105 98.881 C 185.147 100.168, 186 102.340, 186 103.706 C 186 105.963, 189.175 111.644, 191.241 113.083 C 191.701 113.404, 191.593 114.939, 191.002 116.496 C 190.259 118.450, 190.247 119.647, 190.963 120.363 C 192.488 121.888, 192.225 123.024, 190.500 122.362 C 188.602 121.633, 188.602 123.111, 190.500 127.654 C 192.471 132.372, 192.400 133, 189.892 133 C 188.117 133, 187.887 133.414, 188.440 135.617 C 188.801 137.056, 189.360 139.548, 189.681 141.156 C 190.003 142.763, 190.768 143.911, 191.383 143.706 C 192.189 143.437, 192.572 123.362, 192.757 71.667 L 193.013 0 96.507 0 L 0 0 0 72 M 0.474 72.500 C 0.474 112.100, 0.598 128.154, 0.750 108.176 C 0.901 88.198, 0.901 55.798, 0.750 36.176 C 0.598 16.554, 0.474 32.900, 0.474 72.500 M 36 28 C 36 28.550, 36.450 29, 37 29 C 37.550 29, 38 28.550, 38 28 C 38 27.450, 37.550 27, 37 27 C 36.450 27, 36 27.450, 36 28 M 135 36 C 135 36.550, 135.477 37, 136.059 37 C 136.641 37, 136.840 36.550, 136.500 36 C 136.160 35.450, 135.684 35, 135.441 35 C 135.198 35, 135 35.450, 135 36 M 45 43 C 45 43.550, 45.423 44, 45.941 44 C 46.459 44, 47.160 43.550, 47.500 43 C 47.840 42.450, 47.416 42, 46.559 42 C 45.702 42, 45 42.450, 45 43 M 111.986 45.191 C 111.979 46.461, 111.693 48.625, 111.350 50 C 110.934 51.672, 111.060 52.169, 111.732 51.500 C 113.195 50.042, 114.098 44.179, 112.967 43.480 C 112.435 43.151, 111.994 43.921, 111.986 45.191 M 147 45.059 C 147 45.641, 147.450 45.840, 148 45.500 C 148.550 45.160, 149 44.684, 149 44.441 C 149 44.198, 148.550 44, 148 44 C 147.450 44, 147 44.477, 147 45.059 M 141 47.059 C 141 47.641, 141.450 47.840, 142 47.500 C 142.550 47.160, 143 46.684, 143 46.441 C 143 46.198, 142.550 46, 142 46 C 141.450 46, 141 46.477, 141 47.059 M 141.500 65.536 L 138.500 66.910 141.143 66.955 C 142.603 66.980, 144.044 66.329, 144.362 65.500 C 144.678 64.675, 144.839 64.037, 144.719 64.081 C 144.598 64.126, 143.150 64.781, 141.500 65.536 M 177.500 78 C 177.160 78.550, 177.610 79, 178.500 79 C 179.390 79, 179.840 78.550, 179.500 78 C 179.160 77.450, 178.710 77, 178.500 77 C 178.290 77, 177.840 77.450, 177.500 78 M 140.250 79.031 C 139.012 79.529, 138 80.625, 138 81.468 C 138 82.488, 137.081 82.979, 135.250 82.937 L 132.500 82.873 135 81.872 C 137.283 80.957, 137.344 80.783, 135.709 79.863 C 134.356 79.101, 133.136 79.383, 130.709 81.021 C 128.944 82.212, 128.273 82.939, 129.218 82.637 C 130.163 82.335, 131.202 82.518, 131.527 83.044 C 131.865 83.590, 130.429 84, 128.174 84 C 122.690 84, 120.729 86.945, 122.299 92.824 C 123.537 97.463, 123.882 97.630, 127.919 95.542 C 130.167 94.379, 130.640 93.568, 130.253 91.542 C 129.967 90.047, 130.227 89, 130.883 89 C 131.498 89, 132 89.900, 132 91 C 132 93.456, 132.178 93.460, 136.793 91.106 C 140.441 89.245, 146 82.183, 146 79.410 C 146 77.829, 143.629 77.673, 140.250 79.031 M 139 82.393 C 139 82.609, 139.698 83.054, 140.552 83.382 C 141.442 83.723, 141.843 83.555, 141.493 82.989 C 140.906 82.038, 139 81.583, 139 82.393 M 150 87.059 C 150 87.641, 150.450 87.840, 151 87.500 C 151.550 87.160, 152 86.684, 152 86.441 C 152 86.198, 151.550 86, 151 86 C 150.450 86, 150 86.477, 150 87.059 M 145.872 89.664 C 144.628 91.172, 144.710 91.216, 146.750 90.129 C 149.077 88.889, 149.650 88, 148.122 88 C 147.640 88, 146.627 88.749, 145.872 89.664 M 137.714 93.273 C 133.157 95.393, 131.210 98.129, 132.181 101.044 C 132.580 102.239, 144 93.381, 144 91.878 C 144 90.586, 143.016 90.805, 137.714 93.273 M 158.933 97.581 C 157.887 98.841, 157.869 99.561, 158.844 101.122 C 159.517 102.200, 159.857 103.422, 159.600 103.838 C 159.343 104.255, 159.486 105.168, 159.918 105.868 C 160.515 106.834, 161.644 106.497, 164.602 104.473 C 168.656 101.698, 168.908 100.683, 166.266 97.750 C 164.304 95.571, 160.670 95.488, 158.933 97.581 M 126.750 98.620 C 124.541 99.780, 124 100.759, 124 103.600 L 124 107.136 127 105 C 130.569 102.459, 130.840 101.194, 127.750 101.501 C 126.431 101.632, 126.249 101.543, 127.311 101.285 C 129 100.875, 130.713 98.374, 129.874 97.545 C 129.668 97.342, 128.262 97.826, 126.750 98.620 M 27.513 107.979 C 27.180 108.518, 27.444 109.961, 28.100 111.187 C 29.736 114.243, 29.470 118.352, 27.437 121.456 C 25.025 125.137, 24.920 136.603, 27.266 140.080 C 28.224 141.499, 28.705 142.961, 28.337 143.330 C 27.968 143.698, 45.685 144, 67.708 144 L 107.750 144 108.375 140.875 C 108.719 139.156, 109 136.209, 109 134.325 C 109 132.442, 109.650 129.643, 110.445 128.107 C 111.239 126.570, 112.196 123.003, 112.571 120.179 C 113.223 115.261, 113.139 115.003, 110.561 114.023 C 105.791 112.210, 102.322 112.776, 99.982 115.750 C 98.105 118.135, 97 118.541, 91.659 118.806 C 81.609 119.306, 76.827 119.229, 70.752 118.470 C 67.195 118.026, 64.526 118.146, 63.752 118.783 C 61.592 120.562, 52.386 120.091, 49.811 118.070 C 48.540 117.072, 45.575 115.931, 43.223 115.535 C 40.522 115.080, 37.123 113.375, 34.002 110.908 C 28.600 106.638, 28.398 106.546, 27.513 107.979 M 111 111 C 111 111.550, 111.675 112, 112.500 112 C 113.325 112, 114 111.550, 114 111 C 114 110.450, 113.325 110, 112.500 110 C 111.675 110, 111 110.450, 111 111" stroke="none" fill="black" fill-rule="evenodd"/>
</svg>