<svg xmlns="http://www.w3.org/2000/svg" width="192" height="144" viewBox="0 0 192 144" version="1.1">
	<path d="M -0 28.477 L -0 56.954 2.623 58.673 L 5.246 60.391 2.623 62.648 C 1.127 63.935, 0 65.951, 0 67.341 C 0 70.089, 3.429 74.898, 4.574 73.756 C 4.985 73.347, 4.574 72.187, 3.661 71.177 C 1.494 68.783, 1.565 68, 3.948 68 C 7.573 68, 13.999 75.653, 14.001 79.973 C 14.002 81.851, 16.863 85.387, 25.139 93.741 L 36.276 104.982 40.054 101.741 C 42.131 99.959, 43.869 97.996, 43.915 97.379 C 43.962 96.762, 45.553 95.194, 47.451 93.893 C 49.349 92.593, 51.154 90.523, 51.463 89.293 C 52.178 86.444, 54.409 85.282, 64.371 82.572 C 73.758 80.019, 73.746 80.038, 73.900 67.200 C 73.971 61.288, 73.526 57.984, 72.352 55.714 C 71.446 53.961, 70.640 51.621, 70.562 50.514 C 70.416 48.465, 69.861 48.322, 66.750 49.533 C 65.713 49.936, 65 49.753, 65 49.082 C 65 48.460, 63.875 47.523, 62.500 47 C 58.989 45.665, 59.378 44.358, 63.985 42.007 C 66.177 40.889, 68.687 38.880, 69.563 37.544 C 71.067 35.249, 70.984 34.752, 68.078 28.663 C 66.385 25.116, 65 21.674, 65 21.014 C 65 20.354, 67.177 21.637, 69.838 23.864 C 74.107 27.438, 74.901 27.762, 76.588 26.614 C 80.953 23.643, 94.773 20.960, 105.353 21.029 C 107.229 21.041, 109.540 19.842, 112.105 17.524 C 114.251 15.586, 116.426 14, 116.940 14 C 118.023 14, 117.277 19.869, 115.527 25.126 L 114.319 28.752 121.462 28.835 C 125.390 28.881, 129.706 29.329, 131.052 29.832 C 133.456 30.730, 133.430 30.776, 129.628 32.373 C 127.498 33.268, 124.902 34, 123.859 34 C 122.349 34, 122.086 34.496, 122.573 36.433 C 123.101 38.538, 122.599 39.161, 118.842 41.056 C 116.454 42.260, 114.404 43.324, 114.287 43.420 C 114.169 43.515, 114.756 45.822, 115.591 48.547 C 116.426 51.271, 117.793 60.025, 118.629 68 C 120.086 81.896, 120.329 82.833, 124.463 90.500 C 128.727 98.409, 128.773 98.602, 128.533 107.500 C 128.336 114.843, 128.748 117.881, 130.771 124 C 132.135 128.125, 133.532 134.200, 133.876 137.500 L 134.500 143.500 163.500 143.500 L 192.500 143.500 192.671 71.750 L 192.842 0 96.421 0 L 0 0 -0 28.477 M 0.441 29 C 0.441 44.675, 0.579 51.087, 0.748 43.250 C 0.917 35.412, 0.917 22.587, 0.748 14.750 C 0.579 6.912, 0.441 13.325, 0.441 29 M 0.232 67 C 0.232 68.925, 0.438 69.713, 0.689 68.750 C 0.941 67.787, 0.941 66.213, 0.689 65.250 C 0.438 64.287, 0.232 65.075, 0.232 67 M 80.908 73.751 C 80.616 77.502, 80.857 79.001, 81.750 79.001 C 83.111 79, 83.263 75.058, 82.058 71 C 81.461 68.989, 81.236 69.527, 80.908 73.751 M 1.045 115.250 L 1 144 29 144 C 46.508 144, 57 143.635, 57 143.026 C 57 141.255, 62.819 139.002, 70.454 137.815 L 77.977 136.645 76.027 133.573 C 70.187 124.368, 69.741 122.918, 69.774 113.217 C 69.802 104.889, 69.624 103.939, 68.153 104.572 C 67.244 104.963, 65.150 105.497, 63.500 105.758 C 61.850 106.019, 59.260 107.392, 57.743 108.810 C 55.679 110.739, 54.700 111.100, 53.846 110.246 C 52.993 109.393, 51.675 109.812, 48.603 111.916 C 41.760 116.603, 36.273 119, 32.388 119 C 29.251 119, 27.925 118.210, 23.573 113.750 C 17.072 107.087, 11.620 100.533, 2.795 88.773 C 1.174 86.613, 1.087 87.928, 1.045 115.250" stroke="none" fill="black" fill-rule="evenodd"/>
</svg>