<svg xmlns="http://www.w3.org/2000/svg" width="192" height="144" viewBox="0 0 192 144" version="1.1">
	<path d="M 113.518 2.981 C 111.927 4.641, 111.070 6, 111.612 6 C 112.155 6, 112.422 7.511, 112.206 9.358 C 111.960 11.470, 112.601 14.257, 113.935 16.872 L 116.055 21.029 113.505 21.998 C 111.515 22.755, 111.074 23.467, 111.502 25.234 C 111.803 26.480, 112.376 30.180, 112.775 33.455 C 113.413 38.695, 113.800 39.486, 116 40.044 C 117.375 40.392, 118.387 41.200, 118.250 41.839 C 118.112 42.477, 118.900 43, 120 43 C 121.550 43, 122 43.667, 122 45.961 C 122 48.351, 120.264 50.674, 113 58 C 104.816 66.255, 102.315 70, 104.987 70 C 105.530 70, 104.850 72.544, 103.475 75.653 C 99.862 83.821, 99.599 87.389, 101.944 96.410 C 103.075 100.760, 104 105.974, 104 107.996 L 104 111.673 96.161 113.463 C 88.012 115.324, 75.900 115.300, 74.018 113.418 C 73.474 112.874, 72.561 109.971, 71.987 106.965 C 70.913 101.335, 71.839 97.559, 74.748 95.700 C 76.219 94.761, 76.395 90.712, 75.073 88.236 C 74.563 87.281, 73.909 85.731, 73.620 84.792 C 73.180 83.360, 72.235 83.177, 67.797 83.661 C 58.160 84.711, 58.672 83.865, 52.486 108.985 C 48.308 125.950, 49.152 137.387, 54.940 142.250 C 56.682 143.713, 59.082 144, 69.599 144 L 82.176 144 81.479 139.876 C 80.571 134.502, 81.419 134.031, 92 134.031 C 102.581 134.031, 103.429 134.502, 102.521 139.876 L 101.824 144 127.027 144 L 152.230 144 150.772 141.750 C 143.476 130.489, 140.579 125.260, 139.914 122.151 C 139.484 120.143, 138.664 116.700, 138.090 114.500 C 136.889 109.890, 136.681 99.010, 137.765 97.427 C 138.169 96.837, 139.307 96.056, 140.293 95.692 C 141.724 95.163, 141.876 94.636, 141.043 93.081 C 139.257 89.743, 139.868 86.477, 142.750 83.949 C 144.262 82.623, 146.050 81.659, 146.722 81.806 C 148.705 82.242, 149.254 77.633, 148.090 70.327 C 147.492 66.572, 146.744 62.563, 146.428 61.417 C 146.023 59.945, 146.316 59.333, 147.427 59.333 C 148.292 59.333, 149 59.761, 149 60.283 C 149 60.806, 149.996 60.973, 151.213 60.655 C 152.552 60.304, 154.132 60.714, 155.213 61.693 C 156.879 63.200, 157 63.157, 157 61.048 C 157 59.448, 157.439 58.955, 158.500 59.362 C 161.333 60.449, 163.200 58.935, 162.504 56.114 C 161.984 54.007, 162.105 53.742, 163.129 54.750 C 165.228 56.815, 165.911 56.176, 165 53 C 164.527 51.350, 164.308 50, 164.514 50 C 164.721 50, 163.776 47.568, 162.415 44.595 L 159.940 39.190 162.605 31.473 C 164.883 24.878, 165.189 22.685, 164.713 16.383 C 164.331 11.337, 163.414 7.666, 161.809 4.755 L 159.463 0.500 137.936 0.231 L 116.410 -0.038 113.518 2.981" stroke="none" fill="black" fill-rule="evenodd"/>
</svg>