<svg xmlns="http://www.w3.org/2000/svg" width="192" height="144" viewBox="0 0 192 144" version="1.1">
	<path d="M 114.467 4.401 C 113.307 5.249, 111.282 5.595, 109.335 5.279 C 106.507 4.821, 105.869 5.165, 104.063 8.129 C 102.932 9.983, 101.993 12.400, 101.975 13.500 C 101.937 15.786, 92.031 23.452, 87.713 24.536 C 86.221 24.910, 85 25.510, 85 25.868 C 85 27.144, 88.947 28.957, 90.460 28.377 C 92.826 27.469, 92.294 28.843, 89.274 31.441 C 86.811 33.559, 86.672 34.019, 87.838 36.198 C 88.548 37.524, 90.505 40.082, 92.187 41.881 L 95.244 45.153 92.232 48.326 C 89.687 51.008, 89.381 51.849, 90.262 53.750 C 90.836 54.987, 91.938 56, 92.712 56 C 93.535 56, 93.817 56.488, 93.391 57.177 C 92.991 57.824, 92.561 60.411, 92.435 62.927 C 92.265 66.337, 90.417 77.603, 89.035 83.653 C 89.016 83.737, 86.638 85.386, 83.750 87.317 C 76.805 91.962, 71.395 97.795, 70.597 101.500 C 68.774 109.964, 69.162 114.038, 72.531 121.821 C 74.360 126.045, 77.150 130.909, 78.732 132.632 C 81.557 135.707, 81.789 135.767, 91.555 135.948 C 108.543 136.262, 107.456 135.974, 107.810 140.250 C 108.118 143.968, 108.158 144, 112.522 144 C 116.756 144, 116.962 143.858, 117.961 140.250 C 119.459 134.840, 119.920 134.425, 126 133.013 C 132.344 131.540, 135.036 130.303, 136.642 128.124 C 137.515 126.940, 138.107 126.844, 139.157 127.715 C 140.870 129.137, 152.405 124.303, 158.630 119.554 C 162.769 116.396, 174 104.149, 174 102.793 C 174 102.395, 173.130 101.605, 172.068 101.036 C 171.005 100.467, 169.865 99.149, 169.534 98.107 C 168.848 95.947, 157.254 89.584, 152 88.484 C 142.857 86.571, 126.397 74.513, 122.400 66.800 C 120.541 63.213, 120.598 63, 123.429 63 C 126.067 63, 128.926 60.706, 129.125 58.429 C 129.194 57.643, 129.306 56.438, 129.375 55.750 C 129.453 54.971, 131.448 54.387, 134.669 54.201 C 137.511 54.036, 140.338 53.298, 140.950 52.561 C 143.194 49.856, 134.889 39.927, 129.468 38.834 C 127.825 38.503, 127.551 37.750, 127.811 34.276 C 127.982 31.987, 127.359 27.072, 126.426 23.352 C 125.212 18.511, 125.053 16.482, 125.865 16.212 C 128.219 15.427, 126.937 10.907, 123.250 6.989 C 119.225 2.711, 117.480 2.197, 114.467 4.401 M 94.666 27.127 C 92.558 28.353, 93.076 32.302, 95.733 35.250 C 97.927 37.684, 99.306 37.441, 97.927 34.863 C 97.298 33.687, 97.028 31.212, 97.329 29.363 C 97.912 25.766, 97.542 25.455, 94.666 27.127 M 105.323 32.601 C 104.615 34.445, 107.034 36.366, 108.374 35.026 C 109.466 33.934, 108.464 31, 107 31 C 106.415 31, 105.661 31.720, 105.323 32.601 M 117.667 33.667 C 117.300 34.033, 117 34.798, 117 35.367 C 117 35.993, 117.466 35.934, 118.183 35.217 C 118.834 34.566, 119.134 33.801, 118.850 33.517 C 118.566 33.233, 118.033 33.300, 117.667 33.667 M 100.631 66.097 C 99.803 70.236, 100.581 71.014, 102.135 67.602 C 102.970 65.771, 103.024 64.624, 102.310 63.910 C 101.597 63.197, 101.075 63.876, 100.631 66.097" stroke="none" fill="black" fill-rule="evenodd"/>
</svg>