<svg xmlns="http://www.w3.org/2000/svg" width="192" height="144" viewBox="0 0 192 144" version="1.1">
	<path d="M 0 72 L 0 144 39.442 144 L 78.884 144 78.370 137.250 C 78.088 133.537, 78.270 125.550, 78.776 119.500 C 79.281 113.450, 79.313 108.072, 78.847 107.550 C 77.684 106.246, 77.777 90.266, 78.971 86.101 C 79.505 84.239, 79.737 82.383, 79.485 81.976 C 79.234 81.570, 77.079 81.939, 74.696 82.796 C 66.379 85.786, 64.207 82.422, 68.920 73.850 C 70.699 70.613, 71.972 67.415, 71.747 66.742 C 71.523 66.070, 72.400 64.687, 73.695 63.668 L 76.050 61.816 71.869 58.158 C 69.570 56.146, 66.746 54.491, 65.595 54.481 C 64.197 54.468, 62.957 53.310, 61.863 50.994 C 60.883 48.918, 59.277 47.301, 57.863 46.968 C 56.131 46.559, 55.488 45.702, 55.454 43.760 C 55.429 42.302, 54.642 40.262, 53.704 39.226 C 51.564 36.861, 51.559 34.993, 53.680 30.544 C 56.411 24.819, 61.888 24.613, 60.464 30.289 C 59.993 32.163, 59.364 32.696, 58.158 32.240 C 57.246 31.895, 58.296 33.265, 60.491 35.284 C 62.685 37.304, 64.485 39.753, 64.491 40.728 C 64.497 41.932, 65.417 42.605, 67.364 42.827 C 68.996 43.014, 70.422 43.874, 70.679 44.827 C 71.175 46.665, 81.735 54.728, 86.378 56.815 C 88.794 57.901, 89.447 57.901, 90.136 56.815 C 91.320 54.947, 91.196 51.232, 89.935 50.812 C 89.350 50.617, 88.615 48.551, 88.303 46.222 C 87.778 42.312, 88.019 41.718, 91.431 38.500 C 93.464 36.583, 94.835 34.542, 94.477 33.963 C 93.388 32.201, 96.030 29.969, 98.479 30.584 C 99.987 30.962, 100.928 30.629, 101.333 29.574 C 102.111 27.548, 104.885 27.538, 105.660 29.557 C 105.989 30.414, 106.892 30.872, 107.667 30.574 C 108.442 30.277, 109.332 30.701, 109.645 31.517 C 109.958 32.333, 111.034 33, 112.036 33 C 114.713 33, 117 35.745, 117 38.957 C 117 40.505, 117.672 43.060, 118.494 44.636 C 120.380 48.253, 120.382 50.666, 118.500 56 C 117.675 58.338, 117 61.515, 117 63.058 C 117 64.987, 116.374 66.064, 115 66.500 C 113.900 66.849, 113 67.765, 113 68.536 C 113 69.360, 112.392 69.704, 111.526 69.371 C 109.360 68.540, 107 71.413, 107 74.880 C 107 76.543, 105.425 81.485, 103.500 85.864 C 101.575 90.242, 100 94.668, 100 95.700 C 100 96.731, 102.286 99.808, 105.081 102.538 C 111.646 108.950, 114.381 114.154, 113.541 118.633 C 113.072 121.134, 113.889 124.848, 116.704 133.008 L 120.500 144.010 156.500 143.755 L 192.500 143.500 192.757 71.750 L 193.013 0 96.507 0 L 0 0 0 72 M 0.474 72.500 C 0.474 112.100, 0.598 128.154, 0.750 108.176 C 0.901 88.198, 0.901 55.798, 0.750 36.176 C 0.598 16.554, 0.474 32.900, 0.474 72.500 M 81 66 C 81 66.550, 81.675 67, 82.500 67 C 83.325 67, 84 66.550, 84 66 C 84 65.450, 83.325 65, 82.500 65 C 81.675 65, 81 65.450, 81 66 M 106 114.941 C 106 115.459, 106.445 116.157, 106.989 116.493 C 107.555 116.843, 107.723 116.442, 107.382 115.552 C 106.717 113.820, 106 113.503, 106 114.941 M 110.564 130.500 C 111.643 135.086, 113.068 137.080, 112.351 133 C 112.012 131.075, 111.313 129.050, 110.797 128.500 C 110.208 127.872, 110.121 128.617, 110.564 130.500" stroke="none" fill="black" fill-rule="evenodd"/>
</svg>