<svg xmlns="http://www.w3.org/2000/svg" width="192" height="144" viewBox="0 0 192 144" version="1.1">
	<path d="M 63.719 10.291 C 63.137 20.561, 60.677 29.461, 57.421 33.079 C 56.639 33.947, 56 35.181, 56 35.821 C 56 37.532, 46.651 47.969, 43.839 49.398 C 41.358 50.659, 38.222 52.571, 36.857 53.656 C 36.110 54.249, 32.800 55.759, 29.500 57.013 C 23.198 59.406, 8.533 60.348, 2.750 58.731 L 0 57.962 0 100.981 L 0 144 78.462 144 L 156.925 144 156.329 137.623 C 156.002 134.116, 156.308 127.479, 157.009 122.873 C 157.710 118.268, 158.386 111.800, 158.511 108.500 C 158.637 105.200, 159.245 99.800, 159.864 96.500 C 160.482 93.200, 160.991 87.994, 160.994 84.930 C 160.999 80.232, 160.609 79.021, 158.500 77.187 C 155.431 74.519, 155.433 73.780, 158.522 67.500 C 159.875 64.750, 160.986 61.986, 160.991 61.357 C 160.996 60.728, 161.675 59.955, 162.500 59.638 C 164.700 58.794, 164.339 56, 162.030 56 C 160.946 56, 159.062 54.650, 157.842 53 C 156.622 51.350, 154.864 50, 153.934 50 C 151.282 50, 149.749 47.421, 150.464 44.163 C 150.995 41.746, 150.638 40.903, 148.390 39.266 C 143.550 35.740, 145.632 34.314, 156.786 33.515 C 164.856 32.938, 167.288 33.097, 169.741 34.366 C 172.666 35.879, 178 41.387, 178 42.895 C 178 43.303, 179.613 45.406, 181.585 47.568 C 183.557 49.731, 185.970 53.306, 186.948 55.514 C 187.927 57.722, 189.463 60.140, 190.363 60.887 C 191.770 62.054, 192 64.821, 192 80.563 C 192 91.697, 191.608 99.124, 191 99.500 C 190.450 99.840, 189.977 99.754, 189.949 99.309 C 189.678 94.990, 188.725 88.685, 187.786 85 C 186.682 80.670, 183.134 74.038, 181.908 74.012 C 181.582 74.006, 181.405 78.613, 181.514 84.250 C 181.709 94.317, 181.800 94.679, 186.597 104.500 L 191.482 114.500 192.044 129 C 192.929 151.867, 193.126 93.787, 192.336 42.750 L 191.674 0 127.988 0 L 64.301 0 63.719 10.291 M 0.459 101 C 0.459 124.925, 0.589 134.713, 0.749 122.750 C 0.908 110.788, 0.908 91.213, 0.749 79.250 C 0.589 67.288, 0.459 77.075, 0.459 101" stroke="none" fill="black" fill-rule="evenodd"/>
</svg>