<svg xmlns="http://www.w3.org/2000/svg" width="192" height="144" viewBox="0 0 192 144" version="1.1">
	<path d="M 166.445 88.088 C 165.953 88.885, 166.482 89.941, 167.866 90.928 C 169.078 91.793, 171.067 93.253, 172.285 94.172 L 174.500 95.845 171.631 96.943 C 170.053 97.547, 164.712 98.460, 159.763 98.972 C 154.813 99.484, 150.479 100.189, 150.132 100.538 C 149.016 101.659, 153.810 104.744, 157.715 105.417 C 159.797 105.776, 165.922 107.275, 171.326 108.749 C 180.699 111.303, 181.220 111.590, 182.632 114.963 C 185.349 121.457, 187.748 129.534, 188.447 134.542 C 188.827 137.269, 189.771 140.625, 190.544 142 C 191.777 144.193, 191.922 141.510, 191.725 120.124 L 191.500 95.748 184.177 92.936 C 180.149 91.389, 176.324 89.686, 175.677 89.151 C 173.581 87.420, 167.305 86.697, 166.445 88.088 M 74.500 138.399 C 70.124 139.783, 64 142.773, 64 143.526 C 64 143.787, 78.500 144, 96.223 144 C 126.723 144, 128.316 143.910, 126.039 142.315 C 120.662 138.549, 111.340 136.997, 94.522 137.067 C 84.563 137.108, 76.986 137.613, 74.500 138.399" stroke="none" fill="black" fill-rule="evenodd"/>
</svg>