<svg xmlns="http://www.w3.org/2000/svg" width="192" height="144" viewBox="0 0 192 144" version="1.1">
	<path d="M 52.710 2 C 52.386 3.239, 51.346 4, 49.977 4 C 47.714 4, 47.664 4.666, 49.556 9.500 C 50.309 11.423, 50.262 11.432, 48.341 9.750 C 47.242 8.788, 46.113 8, 45.833 8 C 45.553 8, 45.248 10.021, 45.154 12.492 C 45.024 15.926, 45.499 17.499, 47.168 19.168 C 50.154 22.154, 50.635 31.021, 47.850 31.749 C 46.833 32.016, 46 32.981, 46 33.894 C 46 34.808, 45.100 36.326, 44 37.268 C 42.900 38.210, 42 39.893, 42 41.009 C 42 43.208, 38.745 55.910, 37.017 60.455 C 35.669 64, 36.424 66.402, 39.694 68.974 C 43.278 71.793, 45.879 71.510, 49.610 67.894 L 52.815 64.787 54.499 67.358 C 57.008 71.187, 57.621 80.992, 55.657 85.898 C 54.115 89.753, 54.132 89.979, 56.066 91.334 C 58.362 92.942, 58.173 96.280, 55.559 100.269 C 54.676 101.617, 52.389 110.030, 50.477 118.964 C 48.566 127.899, 46.126 137.186, 45.057 139.604 L 43.112 144 74.575 144 L 106.038 144 105.364 141.250 C 104.994 139.737, 102.934 134.225, 100.788 129 C 98.642 123.775, 95.295 115.521, 93.350 110.658 C 91.405 105.794, 88.731 100.219, 87.407 98.268 C 84.654 94.211, 84.436 92.713, 86.366 91.111 C 89.302 88.674, 91.053 69.713, 88.956 63.049 C 88.280 60.897, 94.601 59.006, 98.463 60.205 C 100.133 60.723, 103.868 61.854, 106.762 62.717 L 112.023 64.285 118.968 61.084 C 122.787 59.324, 127.097 57.669, 128.545 57.406 C 132.570 56.676, 137 52.959, 137 50.312 C 137 47.455, 138.502 47.399, 142.915 50.089 C 145.693 51.783, 146.777 51.967, 148.728 51.078 C 150.661 50.198, 151.065 49.357, 150.813 46.743 C 150.539 43.905, 149.813 43.170, 145 40.862 C 141.975 39.411, 139.360 38.351, 139.188 38.507 C 139.017 38.663, 137.695 37.695, 136.250 36.356 C 133.894 34.172, 133.528 34.092, 132.695 35.581 C 132.184 36.493, 131.481 36.848, 131.133 36.370 C 130.785 35.891, 129.477 34.927, 128.227 34.227 C 126.304 33.150, 125.861 33.197, 125.348 34.535 C 125.015 35.404, 124.162 35.892, 123.454 35.621 C 122.745 35.349, 121.960 35.662, 121.709 36.317 C 121.375 37.187, 118.727 37.330, 111.876 36.848 C 106.719 36.485, 100.723 36.146, 98.550 36.094 C 91.089 35.916, 96.386 34.200, 112.402 31.605 C 121.148 30.188, 128.547 28.787, 128.843 28.491 C 129.139 28.195, 128.732 27.303, 127.938 26.509 C 126.680 25.252, 125.273 25.254, 116.997 26.529 C 111.774 27.334, 102.693 28.591, 96.818 29.323 L 86.135 30.653 86.700 25.884 C 87.146 22.119, 86.817 20.355, 85.139 17.512 C 83.232 14.279, 83.163 13.682, 84.463 11.697 C 86.133 9.147, 86.232 5.483, 84.716 2.250 C 83.691 0.061, 83.246 0, 68.448 0 C 54.074 0, 53.204 0.111, 52.710 2 M 114 29.028 C 104.056 31.112, 105.187 31.518, 116.250 29.834 C 120.513 29.185, 124 28.282, 124 27.827 C 124 27.372, 123.662 27.055, 123.250 27.123 C 122.838 27.190, 118.675 28.048, 114 29.028 M 98 32 L 95.500 32.801 98 32.801 C 99.375 32.801, 101.625 32.440, 103 32 L 105.500 31.199 103 31.199 C 101.625 31.199, 99.375 31.560, 98 32 M 90.250 33.689 C 91.213 33.941, 92.787 33.941, 93.750 33.689 C 94.713 33.438, 93.925 33.232, 92 33.232 C 90.075 33.232, 89.287 33.438, 90.250 33.689 M 105 48.383 C 105 49.293, 108.898 49.679, 110.139 48.893 C 111.064 48.307, 110.460 48.026, 108.250 48.015 C 106.463 48.007, 105 48.173, 105 48.383" stroke="none" fill="black" fill-rule="evenodd"/>
</svg>