<svg xmlns="http://www.w3.org/2000/svg" width="192" height="144" viewBox="0 0 192 144" version="1.1">
	<path d="M 0 72 L 0 144 32.363 144 L 64.727 144 65.980 137.750 C 66.670 134.313, 68.056 128.800, 69.061 125.500 C 70.817 119.734, 70.890 119.648, 70.944 123.309 C 70.977 125.582, 71.403 126.869, 72 126.500 C 72.550 126.160, 73 125.009, 73 123.941 C 73 122.873, 73.403 122, 73.895 122 C 74.417 122, 74.427 123.562, 73.919 125.750 C 73.440 127.812, 73.037 130.963, 73.024 132.750 C 73.008 134.962, 72.521 136, 71.500 136 C 70.417 136, 70 137.111, 70 140 L 70 144 85.500 144 C 96.889 144, 101 143.682, 101 142.800 C 101 141.867, 101.267 141.867, 102.200 142.800 C 103.750 144.350, 114 144.409, 114 142.868 C 114 142.245, 111.075 138.978, 107.500 135.608 C 102.295 130.701, 101.003 128.885, 101.015 126.490 C 101.039 121.952, 102.318 120.461, 104.402 122.545 C 105.333 123.476, 106.186 124.072, 106.298 123.869 C 106.409 123.666, 106.991 122.600, 107.592 121.500 C 108.887 119.127, 108.367 117, 106.490 117 C 103.665 117, 99.624 105.106, 99.787 97.273 C 99.824 95.498, 100.524 93.090, 101.343 91.921 C 102.161 90.753, 102.633 88.707, 102.392 87.376 C 102.111 85.825, 102.498 84.746, 103.469 84.373 C 104.503 83.977, 104.794 83.029, 104.384 81.396 C 103.995 79.845, 104.215 79, 105.008 79 C 105.778 79, 106.020 78.183, 105.658 76.802 C 105.342 75.593, 105.508 74.093, 106.027 73.468 C 106.642 72.726, 106.145 70.626, 104.593 67.416 C 103.286 64.712, 101.963 61.373, 101.651 59.996 C 101.340 58.619, 99.301 55.635, 97.120 53.365 C 94.939 51.095, 91.992 47.047, 90.571 44.369 C 85.530 34.868, 76.151 20.512, 74.091 19.144 C 72.044 17.785, 72 17.889, 71.983 24.128 L 71.966 30.500 69.889 27.256 C 68.746 25.472, 67.561 22.144, 67.254 19.860 C 66.707 15.775, 66.741 15.718, 69.349 16.373 L 72 17.038 72 8.519 L 72 0 36 0 L 0 0 0 72 M 72 48.242 C 72 59.826, 71.679 63.940, 70.750 64.250 C 69.988 64.504, 69.500 66.489, 69.500 69.333 C 69.500 72.258, 69.059 74, 68.317 74 C 66.155 74, 65.647 80.853, 67.483 85.250 C 67.885 86.213, 67.788 87, 67.268 87 C 66.115 87, 63.992 91.448, 64.022 93.797 C 64.034 94.734, 64.891 96.602, 65.926 97.949 C 67.803 100.390, 67.798 100.410, 64.536 104.449 C 62.737 106.677, 60.777 109.442, 60.181 110.593 C 58.241 114.341, 53.975 135.134, 54.832 136.665 C 56.268 139.230, 57.697 136.035, 58.261 129 C 58.987 119.941, 62.312 111.830, 67.588 106.245 C 70.014 103.676, 72 101.129, 72 100.584 C 72 100.040, 70.548 98.098, 68.774 96.267 C 66.143 93.552, 65.753 92.622, 66.655 91.220 C 67.264 90.274, 68.689 89.533, 69.822 89.573 C 70.955 89.613, 71.855 89.388, 71.823 89.073 C 71.299 84.025, 72.231 65.025, 72.979 65.487 C 74.437 66.388, 78.154 64.205, 81.144 60.691 C 83.545 57.869, 84.029 57.692, 86.394 58.770 C 90.509 60.645, 89.754 57.627, 83.993 49.172 C 81.247 45.142, 79 41.430, 79 40.922 C 79 40.415, 78.550 40, 78 40 C 77.450 40, 77 39.403, 77 38.674 C 77 37.945, 75.875 36.292, 74.500 35 L 72 32.651 72 48.242 M 72 95 C 72 96.824, 72.415 97.862, 73 97.500 C 73.550 97.160, 74 96.035, 74 95 C 74 93.965, 73.550 92.840, 73 92.500 C 72.415 92.138, 72 93.176, 72 95 M 95.667 96.667 C 94.516 97.817, 94.938 99, 96.500 99 C 97.325 99, 98 98.325, 98 97.500 C 98 95.938, 96.817 95.516, 95.667 96.667" stroke="none" fill="black" fill-rule="evenodd"/>
</svg>