<svg xmlns="http://www.w3.org/2000/svg" width="192" height="144" viewBox="0 0 192 144" version="1.1">
	<path d="M 97 102.826 C 97 103.830, 95.925 105.661, 94.612 106.895 C 93.298 108.129, 92.370 109.895, 92.550 110.819 C 92.730 111.744, 93.108 114.862, 93.391 117.750 C 93.799 121.910, 93.604 123, 92.453 123 C 91.654 123, 91 123.472, 91 124.050 C 91 125.739, 93.971 131, 94.925 131 C 96.021 131, 96.804 140.003, 95.764 140.646 C 95.344 140.906, 95 141.766, 95 142.559 C 95 143.660, 96.474 144, 101.250 143.998 L 107.500 143.996 107.773 136.808 C 107.923 132.855, 108.219 129.448, 108.430 129.237 C 108.641 129.025, 110.247 129.593, 111.997 130.499 C 115.537 132.329, 118.519 131.796, 117.635 129.492 C 117.301 128.620, 117.628 128, 118.424 128 C 119.995 128, 121 125.854, 121 122.502 C 121 119.614, 119.052 118.781, 116.826 120.717 C 115.344 122.005, 114.798 121.911, 112.069 119.893 C 109.681 118.128, 108.717 117.883, 107.793 118.807 C 107.137 119.463, 106.240 120, 105.800 120 C 104.802 120, 104.743 116.590, 105.724 115.609 C 106.948 114.385, 106.607 107.001, 105.327 107.001 C 104.682 107, 102.804 105.650, 101.154 104 C 97.669 100.515, 97 100.326, 97 102.826 M 157.231 102.111 C 157.764 103.618, 154.390 111.078, 152.680 112.174 C 151.950 112.641, 151.947 113.253, 152.670 114.174 C 153.556 115.302, 156 123.616, 156 125.502 C 156 125.841, 155.550 125.840, 155 125.500 C 153.661 124.672, 153.690 132.552, 155.035 135.066 C 155.605 136.130, 156.681 137, 157.428 137 C 158.926 137, 160 139.123, 160 142.082 C 160 143.780, 160.761 144, 166.620 144 L 173.240 144 172.800 137.906 C 172.251 130.327, 173.270 129.492, 184.250 128.517 C 191.805 127.847, 192 127.762, 192.001 125.165 L 192.001 122.500 182.900 122.853 L 173.800 123.206 174.522 120.853 C 174.920 119.559, 176.716 114.563, 178.513 109.750 C 180.311 104.938, 181.493 101.004, 181.141 101.008 C 180.788 101.013, 178.740 105.929, 176.589 111.933 C 173.617 120.230, 172.188 122.979, 170.633 123.386 C 167.918 124.096, 167.881 123.998, 169.224 119.621 C 170.123 116.692, 170.105 115.398, 169.144 113.859 C 168.463 112.768, 168.182 111.003, 168.520 109.937 C 168.987 108.465, 168.658 108, 167.148 108 C 164.530 108, 159.014 104.822, 159.006 103.309 C 159.003 102.654, 158.492 101.804, 157.870 101.420 C 157.180 100.993, 156.932 101.263, 157.231 102.111 M 38.233 105.756 C 37.555 105.982, 37 106.945, 37 107.895 C 37 109.743, 31.953 114, 29.763 114 C 27.870 114, 28.208 121.587, 30.315 126.398 C 31.950 130.131, 31.943 130.352, 30.149 131.608 C 29.119 132.330, 27.707 134.294, 27.011 135.973 C 26.176 137.988, 24.855 139.196, 23.123 139.529 C 21.681 139.805, 18.581 140.475, 16.236 141.016 C 13.890 141.557, 11.104 142, 10.045 142 C 8.985 142, 7.846 142.440, 7.514 142.977 C 7.129 143.600, 13.630 143.944, 25.455 143.925 L 44 143.896 43.985 139.198 C 43.976 136.614, 43.565 133.862, 43.072 133.082 C 42.491 132.165, 42.706 130.851, 43.681 129.365 C 44.735 127.755, 44.988 125.888, 44.523 123.136 C 44.093 120.593, 44.263 118.955, 45.005 118.497 C 45.792 118.010, 45.502 117.184, 44.075 115.856 C 42.934 114.792, 42 113.091, 42 112.075 C 42 109.274, 39.626 105.291, 38.233 105.756 M 0.750 143.662 C 1.438 143.940, 2.563 143.940, 3.250 143.662 C 3.938 143.385, 3.375 143.158, 2 143.158 C 0.625 143.158, 0.062 143.385, 0.750 143.662" stroke="none" fill="black" fill-rule="evenodd"/>
</svg>