<svg xmlns="http://www.w3.org/2000/svg" width="192" height="144" viewBox="0 0 192 144" version="1.1">
	<path d="M -0 45.122 L -0 90.244 2.250 88.615 C 3.487 87.719, 5.478 86.285, 6.673 85.429 C 7.867 84.572, 11.355 83.612, 14.423 83.296 C 19.567 82.765, 20 82.880, 20 84.771 C 20 89.454, 11.257 93.716, 3.506 92.811 L -0 92.402 -0 118.201 L 0 144 28.025 144 L 56.050 144 57.031 141.419 C 58.168 138.428, 60.354 138.664, 60.820 141.828 C 61.126 143.911, 61.605 144, 72.500 144 C 83.484 144, 83.876 143.925, 84.303 141.750 L 84.746 139.500 85.492 141.759 L 86.238 144.017 139.369 143.759 L 192.500 143.500 192.754 71.750 L 193.008 -0 122.004 -0 C 51.667 -0, 51 0.019, 51 2 C 51 3.100, 50.438 3.993, 49.750 3.985 C 47.639 3.959, 45.706 2.285, 46.431 1.112 C 46.928 0.308, 40.590 0, 23.559 0 L 0 0 -0 45.122 M 0.460 45.500 C 0.460 70.250, 0.590 80.232, 0.749 67.682 C 0.908 55.132, 0.908 34.882, 0.749 22.682 C 0.590 10.482, 0.460 20.750, 0.460 45.500 M 30.083 6.845 C 29.072 8.733, 31.087 13, 32.989 13 C 34.498 13, 35.161 9.169, 34.020 7.038 C 32.666 4.508, 31.368 4.445, 30.083 6.845 M 43.630 7.857 C 42.202 9.434, 42.160 9.888, 43.348 10.874 C 45.005 12.249, 47.610 11.459, 48.426 9.332 C 49.751 5.880, 46.362 4.837, 43.630 7.857 M 60.010 9.892 C 58.302 10.368, 57.912 10.828, 58.769 11.357 C 60.258 12.277, 64 11.258, 64 9.933 C 64 8.896, 63.605 8.892, 60.010 9.892 M 66.258 10.648 C 64.337 11.442, 66.665 15, 69.105 15 C 70.640 15, 71.061 14.451, 70.820 12.760 C 70.502 10.533, 68.631 9.667, 66.258 10.648 M 124 15 C 124 17.951, 125.282 18.970, 126.506 16.991 C 127.310 15.689, 126.148 12, 124.933 12 C 124.420 12, 124 13.350, 124 15 M 46 16 C 46 16.550, 47.152 17, 48.559 17 C 50.010 17, 50.851 16.567, 50.500 16 C 50.160 15.450, 49.009 15, 47.941 15 C 46.873 15, 46 15.450, 46 16 M 36.510 17.016 C 36.856 17.575, 37.557 17.774, 38.069 17.457 C 39.456 16.600, 39.198 16, 37.441 16 C 36.584 16, 36.165 16.457, 36.510 17.016 M 116 24.418 C 116 30.023, 118.274 31.687, 120.190 27.483 C 121.160 25.352, 121.042 24.744, 119.418 23.515 C 116.709 21.465, 116 21.652, 116 24.418 M 77 30.500 C 75.988 31.720, 76.035 32, 77.255 32 C 78.080 32, 79.315 31.325, 80 30.500 C 81.012 29.280, 80.965 29, 79.745 29 C 78.920 29, 77.685 29.675, 77 30.500 M 124.441 37.552 C 122.576 39.043, 122.597 39.078, 125 38.439 C 128.085 37.620, 130.005 36, 127.891 36 C 127.061 36, 125.509 36.698, 124.441 37.552 M 43 44 C 43 44.550, 43.648 45, 44.441 45 C 45.234 45, 46.160 44.550, 46.500 44 C 46.840 43.450, 46.191 43, 45.059 43 C 43.927 43, 43 43.450, 43 44 M 16 45.532 C 16 47.354, 20.306 49.278, 20.888 47.716 C 21.275 46.675, 18.338 44, 16.809 44 C 16.364 44, 16 44.690, 16 45.532 M 76.667 45.667 C 75.210 47.123, 76.138 48.117, 78.673 47.816 C 82.117 47.409, 83.038 45, 79.750 45 C 78.421 45, 77.033 45.300, 76.667 45.667 M 155.020 54.476 C 154.231 55.426, 154.155 56, 154.819 56 C 156.027 56, 157.436 54.103, 156.743 53.409 C 156.491 53.158, 155.716 53.638, 155.020 54.476 M 189.667 62.667 C 188.602 63.731, 188.887 65.468, 190.468 67.559 C 191.844 69.378, 191.938 69.264, 191.968 65.750 C 191.998 62.222, 191.192 61.142, 189.667 62.667 M 86 75.559 C 86 76.416, 86.457 76.835, 87.016 76.490 C 87.575 76.144, 87.774 75.443, 87.457 74.931 C 86.600 73.544, 86 73.802, 86 75.559 M 168.807 76.750 C 165.851 80.192, 165.729 81.456, 168.589 79.015 C 170.190 77.648, 171.928 76.186, 172.450 75.765 C 172.988 75.332, 172.730 75, 171.855 75 C 171.005 75, 169.634 75.787, 168.807 76.750 M 6.727 78.606 C 5.761 79.573, 7.105 82, 8.607 82 C 9.373 82, 10 81.605, 10 81.122 C 10 79.875, 7.432 77.901, 6.727 78.606 M 73.446 80.087 C 72.328 81.896, 74.535 83.155, 77.513 82.407 C 80.145 81.747, 80.203 81.622, 78.467 80.352 C 76.233 78.719, 74.353 78.619, 73.446 80.087 M 95 84.226 C 95 87.861, 97.027 91.523, 98.688 90.888 C 99.364 90.629, 99.335 89.031, 98.600 86.074 C 97.231 80.568, 95 79.422, 95 84.226 M 77.122 88.101 C 75.882 89.256, 75.136 90.469, 75.464 90.798 C 75.792 91.126, 77.274 90.180, 78.758 88.697 C 81.913 85.541, 80.445 85.006, 77.122 88.101 M 21.354 89.480 C 21.709 90.406, 22 91.352, 22 91.582 C 22 91.812, 22.708 92, 23.573 92 C 25.798 92, 24.932 88.611, 22.593 88.160 C 21.174 87.887, 20.868 88.214, 21.354 89.480 M 82.750 91.577 C 82.338 91.993, 82 93.248, 82 94.367 C 82 95.838, 82.302 96.098, 83.094 95.306 C 83.695 94.705, 84.033 93.449, 83.844 92.517 C 83.655 91.584, 83.162 91.161, 82.750 91.577 M 0.437 118 C 0.437 132.575, 0.577 138.537, 0.747 131.250 C 0.918 123.962, 0.918 112.037, 0.747 104.750 C 0.577 97.462, 0.437 103.425, 0.437 118 M 153.494 95.006 C 152.496 96.110, 152.002 97.335, 152.396 97.729 C 153.291 98.625, 158.194 95.941, 158.753 94.250 C 159.419 92.237, 155.489 92.803, 153.494 95.006 M 53 95.772 C 53 97.207, 56.929 100.404, 57.721 99.613 C 58.110 99.223, 57.947 98.138, 57.357 97.202 C 56.186 95.342, 53 94.296, 53 95.772 M 111 98.465 C 111 98.720, 112.013 99.469, 113.250 100.129 C 115.290 101.216, 115.372 101.172, 114.128 99.664 C 112.850 98.115, 111 97.406, 111 98.465 M 148.975 102.565 C 148.439 103.976, 148 106.676, 148 108.565 C 148 110.454, 147.523 112, 146.941 112 C 146.359 112, 146.160 112.450, 146.500 113 C 146.840 113.550, 148.190 114, 149.500 114 C 150.810 114, 152.160 113.550, 152.500 113 C 152.840 112.450, 152.394 112, 151.509 112 C 150.134 112, 149.999 111.128, 150.580 106 C 151.293 99.694, 150.617 98.247, 148.975 102.565 M 44.250 105.250 C 44.478 105.938, 45.514 106.664, 46.551 106.865 C 48.182 107.181, 48.256 107.013, 47.096 105.615 C 45.510 103.704, 43.656 103.466, 44.250 105.250 M 187.008 106.986 C 185.758 109.321, 186.402 114, 187.974 114 C 188.488 114, 189.211 112.391, 189.580 110.425 C 190.410 106.002, 188.733 103.761, 187.008 106.986 M 52.750 109.689 C 50.157 110.367, 50.629 112, 53.418 112 C 56.480 112, 59 111.049, 59 109.893 C 59 108.977, 55.866 108.875, 52.750 109.689 M 102 114 C 102.825 114.533, 104.175 114.969, 105 114.969 C 106.333 114.969, 106.333 114.862, 105 114 C 104.175 113.467, 102.825 113.031, 102 113.031 C 100.667 113.031, 100.667 113.138, 102 114 M 143.518 119.971 C 142.771 121.179, 147.463 122.450, 149.050 121.469 C 149.906 120.940, 149.855 120.523, 148.857 119.890 C 147.032 118.734, 144.256 118.776, 143.518 119.971 M 28 124.810 C 28 125.347, 28.713 126.059, 29.584 126.394 C 30.557 126.767, 31.015 126.544, 30.771 125.813 C 30.273 124.318, 28 123.495, 28 124.810 M 156.729 126.092 C 154.068 127.641, 155.625 129, 160.059 129 C 164.138 129, 164.861 128.261, 162.800 126.200 C 161.346 124.746, 159.109 124.706, 156.729 126.092 M 25.750 129.572 C 22.351 131.416, 22.334 131.796, 25.595 133.036 C 27.378 133.714, 29.415 133.656, 32.095 132.853 C 36.439 131.552, 36.943 130.575, 34.066 129.035 C 31.449 127.635, 29.033 127.791, 25.750 129.572 M 64.738 129.695 C 63.769 129.946, 63.233 130.567, 63.547 131.076 C 64.314 132.317, 69.723 132.258, 70.500 131 C 70.840 130.450, 70.678 130, 70.141 130 C 69.603 130, 68.564 129.828, 67.832 129.619 C 67.099 129.409, 65.707 129.443, 64.738 129.695" stroke="none" fill="black" fill-rule="evenodd"/>
</svg>