<svg xmlns="http://www.w3.org/2000/svg" width="192" height="144" viewBox="0 0 192 144" version="1.1">
	<path d="M 0 72 L 0 144 40 144 C 62 144, 80 143.611, 80 143.135 C 80 142.659, 76.962 141.263, 73.250 140.032 C 65.374 137.421, 63.341 136.236, 56.209 130.100 C 49.169 124.043, 45.085 117.517, 44.327 111.109 C 43.822 106.849, 43.986 106, 45.314 106 C 46.190 106, 47.715 107.153, 48.703 108.562 C 54.847 117.325, 60.199 121, 66.815 121 L 70.255 121 66.240 116.644 C 62.332 112.405, 59.388 108, 60.462 108 C 60.755 108, 62.799 109.631, 65.006 111.624 C 69.244 115.453, 77.241 119.631, 88 123.637 C 97.560 127.197, 98.444 127.779, 100.418 131.816 C 101.409 133.842, 102.551 136.165, 102.955 136.977 C 103.359 137.790, 104.772 138.740, 106.095 139.090 C 109.805 140.069, 106.808 140.775, 95.750 141.525 C 79.407 142.634, 84.725 144, 105.385 144 L 124.770 144 121.306 140.250 C 119.401 138.188, 117.481 135.825, 117.040 135 C 116.100 133.246, 117.465 129, 118.968 129 C 119.535 129, 119.918 128.662, 119.818 128.250 C 119.655 127.578, 122.021 118.982, 122.592 118.172 C 122.719 117.991, 125.954 118.973, 129.781 120.353 C 137.046 122.974, 139 122.651, 139 118.831 C 139 117.670, 139.515 117.260, 140.500 117.638 C 141.325 117.955, 142 117.716, 142 117.107 C 142 116.498, 142.372 116, 142.827 116 C 143.282 116, 144.209 119.038, 144.887 122.750 C 145.564 126.463, 147.062 132.762, 148.214 136.750 C 150.058 143.134, 150.593 144, 152.689 144 C 154.644 144, 154.904 143.687, 154.142 142.250 C 153.500 141.041, 153.644 140.101, 154.607 139.211 C 155.373 138.501, 156 138.198, 156 138.537 C 156 138.876, 157.128 137.813, 158.506 136.175 C 159.986 134.416, 160.763 132.545, 160.403 131.607 C 160.014 130.595, 160.467 129.767, 161.646 129.331 C 162.666 128.954, 163.765 128.253, 164.090 127.773 C 164.414 127.293, 165.645 126.827, 166.824 126.738 C 168.910 126.581, 168.896 126.500, 166.307 123.799 C 163.019 120.367, 163.949 119.128, 168.267 121.187 C 173.928 123.887, 177.817 124.315, 181.370 122.629 C 184.036 121.364, 185.329 121.288, 188.370 122.221 C 191.859 123.292, 192.080 123.596, 191.799 126.933 L 191.500 130.500 184.983 130.361 C 181.398 130.284, 176.716 129.491, 174.579 128.597 C 172.442 127.704, 170.506 127.161, 170.277 127.390 C 169.478 128.189, 174.115 136.121, 177.701 140.090 C 181.192 143.955, 181.504 144.080, 186.907 143.795 L 192.500 143.500 192.757 71.750 L 193.013 0 96.507 0 L 0 0 0 72 M 0.474 72.500 C 0.474 112.100, 0.598 128.154, 0.750 108.176 C 0.901 88.198, 0.901 55.798, 0.750 36.176 C 0.598 16.554, 0.474 32.900, 0.474 72.500 M 28.496 14.007 C 28.154 14.561, 28.830 16.357, 30 18 L 32.126 20.986 29.563 22.153 C 27.449 23.116, 27 24.006, 27 27.226 C 27 29.374, 27.467 32.004, 28.038 33.070 C 29.183 35.211, 40.393 41.274, 41.380 40.287 C 41.721 39.946, 42 37.251, 42 34.298 C 42 28.628, 41.409 27.337, 34.659 18.250 C 30.713 12.937, 29.621 12.185, 28.496 14.007 M 129 89.441 C 129 91.746, 137.162 99.386, 142.108 101.711 C 151.077 105.927, 158.069 105.618, 151.250 101.308 C 149.738 100.352, 146.523 98.091, 144.106 96.285 C 141.690 94.478, 138.685 93, 137.429 93 C 136.173 93, 134.260 91.875, 133.179 90.500 C 130.999 87.729, 129 87.222, 129 89.441 M 132.579 135.566 C 130.537 137.059, 127.018 141.954, 127.007 143.316 C 127.003 143.765, 128.191 143.990, 129.646 143.816 C 131.821 143.556, 132.525 142.706, 133.603 139.040 C 134.323 136.587, 134.819 134.486, 134.705 134.372 C 134.591 134.257, 133.634 134.795, 132.579 135.566" stroke="none" fill="black" fill-rule="evenodd"/>
</svg>