<svg xmlns="http://www.w3.org/2000/svg" width="192" height="144" viewBox="0 0 192 144" version="1.1">
	<path d="M 24.322 12.419 C 22.695 14.273, 24.457 16.583, 31.688 22.078 C 34.885 24.507, 37.725 26.748, 38 27.056 C 38.275 27.365, 42.325 30.738, 47 34.551 C 51.675 38.365, 60.972 46.069, 67.661 51.671 C 74.349 57.273, 81.324 62.618, 83.161 63.549 C 84.997 64.480, 87.175 65.767, 88 66.410 C 88.825 67.053, 91.204 68.349, 93.286 69.290 C 96.883 70.916, 97.024 70.914, 96.120 69.251 C 94.269 65.841, 82.278 54.973, 65 41.046 C 55.375 33.288, 46.825 26.385, 46 25.707 C 38.742 19.743, 27.045 11.007, 26.356 11.038 C 25.885 11.059, 24.970 11.680, 24.322 12.419" stroke="none" fill="black" fill-rule="evenodd"/>
</svg>