<svg xmlns="http://www.w3.org/2000/svg" width="192" height="144" viewBox="0 0 192 144" version="1.1">
	<path d="M 66.022 3.750 C 66.052 8.920, 68.983 14.900, 73.378 18.759 L 77.070 22 71.052 22 C 65.300 22, 64.832 22.195, 60.426 26.416 C 56.033 30.625, 55.914 30.884, 57.874 31.932 C 60.776 33.486, 62.690 40.333, 61.272 44.090 C 60.407 46.383, 60.452 47, 61.486 47 C 63.068 47, 64.040 55.407, 62.845 58.763 C 62.402 60.008, 61.790 64.733, 61.485 69.263 C 61.180 73.793, 60.719 80.425, 60.460 84 C 59.972 90.740, 59.856 121.520, 60.266 135.500 C 60.496 143.348, 60.550 143.506, 63.159 143.808 L 65.817 144.115 65.422 131.308 C 64.806 111.345, 64.831 98.247, 65.502 89 C 65.842 84.325, 66.092 77.800, 66.059 74.500 L 65.998 68.500 68.725 72 C 71.816 75.968, 73.577 77.751, 83.845 87.308 L 91.160 94.115 82.122 107.869 C 70.453 125.624, 68.022 130.857, 68.010 138.250 L 68 144 71.423 144 C 73.616 144, 75.915 143.101, 77.818 141.500 C 81.577 138.337, 83 138.337, 83 141.500 L 83 144 108 144 L 133 144 132.974 140.250 C 132.960 138.188, 132.495 132, 131.941 126.500 C 131.387 121, 131.213 113.951, 131.555 110.836 C 132.080 106.052, 132.527 105.085, 134.432 104.606 C 137.715 103.782, 146.231 96.717, 149.328 92.248 C 151.428 89.218, 151.999 87.227, 151.994 82.946 C 151.990 79.951, 151.328 76.235, 150.521 74.689 C 149.065 71.896, 149.083 71.865, 153.278 69.961 C 158.692 67.503, 159.671 67.552, 164.500 70.526 C 170.114 73.984, 170.973 73.601, 166.946 69.435 C 163.690 66.067, 163.644 65.924, 166.100 66.853 C 168.533 67.773, 168.706 67.643, 168.785 64.840 C 168.856 62.343, 168.304 61.607, 165.467 60.422 C 160.990 58.551, 156.937 58.666, 148.781 60.893 C 145.085 61.903, 141.861 62.528, 141.616 62.283 C 140.934 61.600, 145.774 54.846, 148.127 53.199 C 149.273 52.396, 150.845 50.222, 151.619 48.369 C 152.393 46.516, 153.635 45, 154.379 45 C 155.122 45, 156.916 44.067, 158.365 42.927 C 160.296 41.409, 161 39.939, 161 37.427 C 161 33.329, 160.021 33.149, 156.331 36.569 C 154.806 37.982, 152.308 39.388, 150.779 39.694 C 149.251 40, 148 40.599, 148 41.026 C 148 42.173, 140.986 46.109, 140.013 45.508 C 138.731 44.716, 136 46.060, 136 47.485 C 136 48.183, 135.296 49.340, 134.435 50.054 C 133.125 51.141, 131.979 50.916, 127.413 48.676 C 123.080 46.552, 120.518 46, 114.978 46 C 111.140 46, 108.099 46.338, 108.221 46.750 C 108.342 47.163, 106.992 49.063, 105.221 50.973 C 102.055 54.387, 101.571 55.636, 101.970 59.380 C 102.134 60.928, 101.714 61.145, 99.585 60.611 C 97.675 60.131, 97 60.349, 97 61.445 C 97 62.261, 95.875 64.944, 94.500 67.407 C 91.435 72.897, 91.397 74.329, 94.208 78.346 L 96.416 81.500 91.958 77.736 C 89.506 75.665, 85.240 72.315, 82.479 70.291 L 77.458 66.610 75.730 56.055 C 74.738 50, 74.394 45.369, 74.922 45.193 C 75.428 45.024, 75.108 43.608, 74.212 42.047 C 72.845 39.665, 72.797 38.949, 73.914 37.604 C 75.808 35.321, 76.588 35.591, 78.008 39.020 C 79.680 43.056, 84.263 46.771, 88.565 47.578 C 91.053 48.045, 92.503 49.073, 93.561 51.118 C 94.381 52.703, 95.602 53.993, 96.276 53.985 C 98.718 53.954, 100.284 52.196, 99.736 50.100 C 99.323 48.518, 100.325 46.903, 103.772 43.600 C 108.024 39.525, 108.387 38.780, 108.770 33.353 C 109.125 28.307, 108.825 26.977, 106.591 23.706 C 103.480 19.149, 103.397 17.547, 105.978 11.859 C 107.066 9.462, 107.966 5.813, 107.978 3.750 L 108 0 87 0 L 66 0 66.022 3.750 M 60.583 29.866 C 60.152 30.563, 60.070 31.403, 60.400 31.733 C 61.295 32.628, 62.271 31.312, 61.787 29.862 C 61.449 28.846, 61.213 28.846, 60.583 29.866 M 63.531 63.293 C 63.103 64.279, 63.034 65.367, 63.376 65.710 C 64.392 66.725, 65.211 65.299, 64.743 63.328 C 64.329 61.581, 64.275 61.580, 63.531 63.293 M 62 78.500 C 62 80.056, 62.567 81, 63.500 81 C 64.433 81, 65 80.056, 65 78.500 C 65 76.944, 64.433 76, 63.500 76 C 62.567 76, 62 76.944, 62 78.500 M 61 93.583 C 61 96.716, 63.348 96.373, 63.820 93.172 C 64.032 91.729, 63.612 91, 62.570 91 C 61.549 91, 61 91.903, 61 93.583 M 61 108.583 C 61 111.716, 63.348 111.373, 63.820 108.172 C 64.032 106.729, 63.612 106, 62.570 106 C 61.549 106, 61 106.903, 61 108.583 M 61.667 121.667 C 60.409 122.925, 61 126, 62.500 126 C 63.433 126, 64 125.056, 64 123.500 C 64 121.072, 63.026 120.307, 61.667 121.667 M 62 139.583 C 62 142.716, 64.348 142.373, 64.820 139.172 C 65.032 137.729, 64.612 137, 63.570 137 C 62.549 137, 62 137.903, 62 139.583" stroke="none" fill="black" fill-rule="evenodd"/>
</svg>