<svg xmlns="http://www.w3.org/2000/svg" width="192" height="144" viewBox="0 0 192 144" version="1.1">
	<path d="M 0 72 L 0 144 84.500 144 C 154.617 144, 169 143.771, 169 142.655 C 169 140.854, 172.253 138, 174.306 138 C 175.213 138, 178.328 136.722, 181.227 135.160 C 184.127 133.599, 187.716 132.021, 189.202 131.653 C 191.896 130.988, 191.905 131.004, 192.259 137.243 C 192.455 140.684, 192.701 111.213, 192.807 71.750 L 193 0 182.572 0 L 172.144 0 171.322 5.750 C 170.870 8.912, 170.615 19.969, 170.756 30.319 C 170.946 44.303, 170.625 50.807, 169.506 55.631 C 168.634 59.388, 168 66.907, 168 73.476 L 168 84.828 174.410 88.412 C 177.935 90.384, 181.985 93.382, 183.410 95.075 C 186.313 98.525, 186.801 102.478, 184.437 103.386 C 182.714 104.047, 177 101.480, 177 100.046 C 177 98.557, 170.373 92, 168.869 92 C 165.302 92, 163.086 111.229, 166.250 114.724 C 168.556 117.272, 168.465 118.282, 166 117.500 C 163.172 116.602, 163.479 118.383, 167.048 123.570 C 168.724 126.006, 169.657 128, 169.121 128 C 167.817 128, 164 123.078, 164 121.397 C 164 120.663, 161.247 114.639, 157.882 108.009 C 152.853 98.099, 150.720 95.009, 145.889 90.638 C 138.009 83.507, 130.774 81.484, 122.076 83.978 C 119.308 84.772, 118.084 84.600, 115.583 83.067 C 105.806 77.073, 91.362 76.534, 79.617 81.724 C 73.655 84.358, 72.249 84.631, 69.117 83.764 C 67.127 83.213, 62.712 83.022, 59.304 83.339 C 53.755 83.855, 53.043 83.710, 52.486 81.957 C 51.845 79.937, 50 79.227, 50 81 C 50 81.550, 49.343 82, 48.540 82 C 47.681 82, 46.576 80.250, 45.855 77.750 C 45.182 75.412, 44.039 72.612, 43.315 71.527 C 42.592 70.443, 42 67.581, 42 65.169 C 42 60.990, 41.882 60.813, 39.500 61.411 C 38.125 61.756, 37 61.735, 37 61.365 C 37 60.995, 38.575 57.876, 40.500 54.434 C 42.425 50.991, 44 47.911, 44 47.588 C 44 47.264, 43.048 47, 41.884 47 C 40.683 47, 38.146 45.225, 36.014 42.892 C 32.497 39.045, 31.984 38.815, 27.937 39.283 C 21.886 39.982, 18.692 38.383, 19.505 35.062 C 19.849 33.653, 20.771 31.847, 21.553 31.048 C 23.825 28.728, 34.461 28.595, 42.170 30.789 C 47.716 32.367, 49.316 32.481, 51.670 31.465 C 55.910 29.635, 59.321 25.277, 62.468 17.671 C 64.198 13.488, 67.213 8.740, 70.247 5.421 L 75.201 0 37.600 0 L 0 0 0 72 M 0.474 72.500 C 0.474 112.100, 0.598 128.154, 0.750 108.176 C 0.901 88.198, 0.901 55.798, 0.750 36.176 C 0.598 16.554, 0.474 32.900, 0.474 72.500" stroke="none" fill="black" fill-rule="evenodd"/>
</svg>