<svg xmlns="http://www.w3.org/2000/svg" width="192" height="144" viewBox="0 0 192 144" version="1.1">
	<path d="M 0 34.500 C 0 57.764, 0.339 69, 1.042 69 C 7.283 69, 28.519 62.250, 39.210 56.868 C 41.251 55.840, 43.571 55, 44.365 55 C 45.160 55, 52.933 62.044, 61.640 70.654 C 78.674 87.500, 82.339 89.943, 90.625 89.978 C 95.418 89.999, 95.787 89.822, 96.321 87.250 C 97.448 81.824, 103.280 73.810, 107.710 71.600 C 110.025 70.445, 112.135 68.974, 112.398 68.331 C 112.956 66.964, 109.785 63, 108.133 63 C 107.510 63, 107 62.502, 107 61.893 C 107 61.284, 106.296 61.056, 105.435 61.387 C 104.232 61.848, 104.016 61.524, 104.504 59.989 C 104.926 58.657, 104.608 57.787, 103.549 57.380 C 102.542 56.994, 102.059 55.807, 102.230 54.135 C 102.460 51.891, 102.068 51.451, 99.590 51.168 C 95.755 50.731, 92 48.200, 92 46.052 C 92 44.184, 89.237 43.692, 87.302 45.216 C 86.531 45.822, 85.130 45.684, 83.376 44.829 C 80.390 43.374, 79.034 41, 81.188 41 C 81.934 41, 84.705 39.016, 87.347 36.590 C 92.060 32.263, 92.137 32.096, 91.471 27.653 C 90.797 23.160, 90.837 23.079, 96.646 17.210 C 103.070 10.718, 106.355 8.695, 113.311 6.943 C 117.690 5.841, 120.838 6.081, 132.661 8.423 C 135.349 8.955, 143.033 17.086, 144.863 21.335 C 145.803 23.517, 146.039 26.540, 145.623 31.069 C 145.076 37.022, 145.255 37.957, 147.530 41.041 C 148.911 42.912, 150.706 44.816, 151.520 45.271 C 153.145 46.181, 153.557 49, 152.065 49 C 151.551 49, 149.976 48.561, 148.565 48.025 C 146.156 47.109, 146 47.236, 146 50.132 C 146 52.555, 145.656 53.082, 144.389 52.596 C 143.207 52.142, 142.941 52.404, 143.392 53.579 C 144.322 56.004, 143.068 57.299, 141.242 55.799 C 139.844 54.649, 139.736 54.872, 140.306 57.750 C 140.916 60.827, 139.839 62.167, 138.500 60 C 137.455 58.309, 136 58.891, 136 61 C 136 63.070, 133.587 63.760, 132.500 62 C 131.696 60.699, 128 60.699, 128 62 C 128 62.550, 128.450 63, 129 63 C 129.550 63, 130 63.844, 130 64.875 C 130 66.230, 131.454 67.272, 135.250 68.635 C 140.710 70.596, 141.089 71.069, 145.452 81.383 L 147.095 85.266 153.797 84.562 C 157.484 84.174, 164.278 83.643, 168.896 83.381 C 178.268 82.850, 182.344 81.479, 188.088 76.930 L 192 73.832 192 76.716 C 192 78.302, 191.449 80.151, 190.775 80.825 C 189.808 81.792, 189.808 82.464, 190.775 84.011 C 193.352 88.138, 191.545 116.945, 188.876 114.276 C 188.406 113.806, 186.634 108.784, 184.939 103.117 C 182.606 95.319, 182.021 91.837, 182.533 88.805 C 183.138 85.222, 183.014 84.854, 181.355 85.325 C 180.335 85.614, 178.014 86.150, 176.197 86.516 C 174.380 86.883, 173.054 87.479, 173.250 87.841 C 177.260 95.269, 177.354 96.065, 175.513 107 C 174.540 112.775, 173.514 118.100, 173.233 118.834 C 172.427 120.936, 171.369 118.703, 167.904 107.589 C 165.010 98.303, 164.768 95.323, 166.537 90.750 C 167.140 89.192, 166.491 89, 160.607 89 C 156.973 89, 154 89.436, 154 89.969 C 154 90.502, 154.863 92.640, 155.917 94.719 C 157.715 98.264, 157.749 99.062, 156.462 107.500 C 154.046 123.343, 153.374 124.226, 150.567 115.250 C 148.718 109.338, 145.484 102.571, 146.386 106.500 C 147.367 110.775, 148.418 128.881, 148.115 136.269 L 147.795 144.039 170.148 143.769 L 192.500 143.500 192.732 71.750 L 192.964 0 96.482 0 L 0 0 0 34.500 M 0.450 35 C 0.450 53.975, 0.584 61.737, 0.748 52.250 C 0.913 42.762, 0.913 27.237, 0.748 17.750 C 0.584 8.262, 0.450 16.025, 0.450 35 M 39.171 63.042 C 35.494 65.278, 35.123 67.896, 38.102 70.593 C 42.739 74.789, 43.275 77.366, 42.504 91.759 C 42.109 99.143, 41.413 104.806, 40.957 104.343 C 40.502 103.879, 37.625 98.432, 34.564 92.237 C 28.861 80.694, 27.455 73.945, 30.183 71.217 C 32.589 68.811, 29.952 68.894, 22.329 71.465 C 18.023 72.917, 13.966 74.281, 13.314 74.497 C 12.605 74.731, 13.510 76.397, 15.564 78.640 C 18.916 82.300, 19.004 82.611, 19.149 91.445 C 19.231 96.425, 19.344 102.409, 19.399 104.741 C 19.507 109.263, 18.237 110.453, 16.536 107.423 C 15.966 106.407, 14.558 103.984, 13.408 102.038 C 5.582 88.806, 4.761 86.799, 5.456 82.603 C 6.750 74.799, 6.697 74.500, 4 74.500 L 1.500 74.500 1.237 109.250 L 0.974 144 46.987 144 C 72.294 144, 93 143.836, 93 143.636 C 93 143.437, 93.440 140.955, 93.977 138.122 C 94.738 134.111, 94.632 132.255, 93.499 129.735 C 92.699 127.956, 90.224 121.813, 87.999 116.085 C 84.323 106.622, 84.059 105.343, 85.107 102.085 C 85.742 100.113, 86.726 97.915, 87.294 97.200 C 88.850 95.244, 86.246 93.211, 81.150 92.403 L 76.800 91.712 78.466 94.935 C 79.940 97.785, 80.010 99.594, 79.066 110.633 C 78.480 117.495, 78 123.534, 78 124.054 C 78 127.400, 75.589 123.354, 71.125 112.517 C 66.440 101.145, 66.065 99.665, 66.912 95.896 C 67.423 93.620, 68.327 91.273, 68.921 90.679 C 70.930 88.670, 70.015 86.209, 65.447 81.347 C 62.850 78.582, 61.385 77.509, 62.035 78.849 C 63.268 81.387, 62.359 109, 61.043 109 C 60.350 109, 59.541 107.319, 52.536 91.325 C 49.229 83.773, 49.039 82.822, 50.047 78.825 C 50.647 76.446, 51.390 73.457, 51.699 72.181 C 52.117 70.454, 51.398 68.968, 48.880 66.349 C 43.925 61.199, 42.821 60.823, 39.171 63.042 M 146.094 90.387 C 145.276 91.372, 145.234 92.026, 145.959 92.474 C 146.539 92.833, 147.292 92.404, 147.631 91.520 C 148.475 89.320, 147.547 88.636, 146.094 90.387 M 94 96.476 C 94 96.738, 94.850 98.350, 95.890 100.059 C 97.197 102.209, 98.014 102.786, 98.542 101.931 C 98.986 101.214, 98.628 100.201, 97.688 99.513 C 96.456 98.613, 96.348 98.052, 97.235 97.165 C 98.122 96.278, 97.875 96, 96.200 96 C 94.990 96, 94 96.214, 94 96.476" stroke="none" fill="black" fill-rule="evenodd"/>
</svg>