<svg xmlns="http://www.w3.org/2000/svg" width="192" height="144" viewBox="0 0 192 144" version="1.1">
	<path d="M 121.743 19.090 L 116.987 23.167 113.964 20.623 C 112.301 19.224, 109.267 17.764, 107.221 17.379 C 101.758 16.349, 85.683 18.322, 82.491 20.414 C 78.543 23.001, 75.670 30.214, 76.237 36.116 C 76.622 40.123, 76.336 41.275, 74.536 42.967 C 73.345 44.085, 71.890 45, 71.302 45 C 70.714 45, 69.957 46.013, 69.620 47.250 C 68.886 49.946, 73.443 54.313, 76.263 53.616 C 79.112 52.912, 80.348 56.427, 78.505 59.991 C 77.620 61.703, 77.391 63, 77.974 63 C 78.538 63, 79 63.702, 79 64.559 C 79 65.481, 79.471 65.827, 80.152 65.406 C 80.785 65.015, 81.798 65.359, 82.402 66.172 C 84.125 68.490, 90.191 70.309, 91.130 68.790 C 91.693 67.878, 92.060 67.993, 92.535 69.230 C 93.521 71.801, 92.543 72.584, 86.087 74.396 C 79.567 76.225, 76.068 79.403, 73.864 85.500 C 72.762 88.546, 72.166 89, 69.267 89 C 64.458 89, 60.366 87.003, 53 81.061 C 49.425 78.178, 44.813 74.950, 42.750 73.889 C 40.329 72.643, 39 71.258, 39 69.980 C 39 68.891, 38.817 68, 38.594 68 C 38.370 68, 35.128 71.169, 31.388 75.043 C 25.771 80.862, 11.113 91.798, 2.486 96.607 C 1.394 97.216, 0.355 98.450, 0.178 99.349 C -0.101 100.768, 0.635 100.903, 5.729 100.370 C 10.551 99.867, 12.347 100.137, 15.761 101.878 C 18.049 103.045, 20.382 104, 20.946 104 C 21.510 104, 23.140 102.234, 24.569 100.075 C 28.090 94.755, 29.956 94.209, 32.739 97.688 C 34.233 99.554, 34.992 99.979, 34.995 98.950 C 34.998 98.098, 35.517 96.883, 36.149 96.251 C 37.667 94.733, 42.081 96.968, 44.719 100.589 C 46.602 103.174, 46.717 103.198, 49.773 101.617 C 54.190 99.333, 56.119 99.579, 60.889 103.034 L 65.077 106.069 69.598 102.822 C 75.372 98.676, 76.184 99.678, 75.791 110.454 C 75.507 118.210, 75.568 118.447, 78.238 119.953 C 80.476 121.215, 81.340 121.269, 82.974 120.248 C 84.073 119.562, 85.168 119, 85.406 119 C 86.187 119, 83.831 126.464, 82.565 128 C 81.886 128.825, 80.726 131.023, 79.988 132.884 C 78.815 135.844, 78.848 136.415, 80.251 137.442 C 81.346 138.242, 81.566 139.074, 80.943 140.058 C 78.535 143.864, 79.281 144, 102.500 144 C 114.875 144, 125 143.766, 125 143.480 C 125 143.194, 123.941 141.282, 122.647 139.230 C 120.816 136.327, 120.510 135.017, 121.267 133.323 C 122.024 131.630, 121.753 130.462, 120.048 128.067 C 117.497 124.484, 117.685 121.679, 120.511 121.154 C 124.798 120.358, 125.298 119.032, 124.622 110.241 C 124.104 103.499, 124.255 101.839, 125.432 101.388 C 126.587 100.945, 126.656 100.339, 125.772 98.399 C 124.847 96.369, 124.981 95.726, 126.582 94.515 C 129.555 92.265, 131.889 92.689, 140.264 97.002 C 149.168 101.587, 150.031 101.728, 152.500 99 C 154.721 96.545, 158.850 96.433, 162.832 98.718 C 165.737 100.386, 165.880 100.371, 167.663 98.221 C 168.673 97.003, 170.963 95.723, 172.750 95.378 C 175.483 94.850, 176.001 95.048, 176.005 96.625 C 176.009 98.164, 176.428 97.978, 178.339 95.589 C 181.059 92.190, 182.552 92.683, 184.634 97.666 C 186.240 101.510, 188.487 102.815, 190.886 101.297 C 192.201 100.464, 192.436 98.814, 192.155 92.388 C 191.847 85.355, 191.468 84.050, 188.655 80.347 C 186.920 78.063, 184.274 74.125, 182.775 71.597 C 179.840 66.647, 178.514 65.925, 177.747 68.859 C 177.480 69.881, 175.965 71.037, 174.381 71.428 C 172.796 71.818, 168.131 74.244, 164.014 76.819 C 153.464 83.415, 151.748 84, 142.944 84 C 138.640 84, 134.840 84.450, 134.500 85 C 134.160 85.550, 132.566 86, 130.958 86 C 128.469 86, 127.671 85.284, 125.595 81.187 C 122.379 74.840, 121.337 74.104, 113.875 72.903 C 106.714 71.749, 106.534 71.657, 107.339 69.558 C 107.738 68.519, 108.920 68.146, 111.034 68.392 C 113.520 68.682, 114.315 68.303, 115 66.500 C 115.679 64.714, 116.486 64.319, 118.888 64.599 C 121.314 64.881, 121.798 64.637, 121.314 63.375 C 120.981 62.508, 121.319 61.421, 122.065 60.960 C 123.168 60.278, 123.079 59.745, 121.592 58.101 C 119.370 55.647, 120.086 51.559, 123.012 49.994 C 125.558 48.631, 125.553 45.811, 123 43.500 C 119.867 40.665, 120.634 39.960, 125.126 41.544 C 127.395 42.345, 129.395 43, 129.571 43 C 129.747 43, 130.028 40.862, 130.195 38.250 C 130.465 34.039, 130.784 33.462, 133 33.165 C 137.294 32.590, 137.419 31.307, 133.613 26.861 C 131.403 24.279, 129.718 21.091, 129.351 18.796 C 129.018 16.708, 128.239 15.003, 127.622 15.006 C 127.005 15.010, 124.360 16.848, 121.743 19.090 M 0.079 99.583 C 0.127 100.748, 0.364 100.985, 0.683 100.188 C 0.972 99.466, 0.936 98.603, 0.604 98.271 C 0.272 97.939, 0.036 98.529, 0.079 99.583" stroke="none" fill="black" fill-rule="evenodd"/>
</svg>