<svg xmlns="http://www.w3.org/2000/svg" width="192" height="144" viewBox="0 0 192 144" version="1.1">
	<path d="M 0 72 L 0 144 50 144 L 100 144 100 141.500 C 100 138.742, 99.370 138.529, 95.535 139.987 C 93.278 140.845, 92.824 140.667, 92.047 138.623 C 91.555 137.330, 90.440 135.999, 89.568 135.664 C 88.696 135.330, 87.478 133.806, 86.861 132.278 C 86.244 130.750, 85.053 128.098, 84.215 126.385 C 82.801 123.495, 82.845 122.954, 84.828 118.885 C 86.003 116.473, 89.450 110.713, 92.487 106.084 C 97.289 98.767, 97.830 97.461, 96.633 96.084 C 93.657 92.659, 92.892 90.146, 94.191 88.065 C 95.246 86.376, 95.078 85.712, 93.049 83.552 C 91.073 81.449, 90.593 79.690, 90.216 73.165 L 89.761 65.310 95.131 54.803 C 103.114 39.181, 104.551 35.684, 103.174 35.225 C 101.170 34.557, 101.884 33, 104.195 33 C 105.403 33, 107.540 31.919, 108.945 30.598 L 111.500 28.196 116.754 30.543 C 121.508 32.667, 124.016 35.529, 124.416 39.286 C 124.462 39.719, 125.175 40.500, 126 41.021 C 127.273 41.826, 127.230 41.972, 125.719 41.985 C 124.739 41.993, 123.685 42.658, 123.376 43.462 C 123.068 44.266, 121.957 45.196, 120.908 45.529 C 119.858 45.862, 119 46.731, 119 47.460 C 119 48.189, 118.325 49.045, 117.500 49.362 C 115.542 50.113, 115.569 52.897, 117.543 53.655 C 119.621 54.452, 123.224 61.694, 122.593 63.807 C 122.315 64.738, 122.701 66.615, 123.451 67.979 C 124.623 70.108, 124.592 70.883, 123.236 73.479 C 121.101 77.563, 121.075 80.645, 123.126 86.069 C 124.077 88.582, 125.560 94.359, 126.423 98.908 C 127.286 103.456, 128.288 107.658, 128.651 108.244 C 129.013 108.831, 129.479 110.841, 129.685 112.711 C 129.891 114.582, 131.163 119.045, 132.512 122.629 C 135.135 129.596, 135.226 131.818, 133.002 134.498 C 131.958 135.755, 130.668 136.043, 127.993 135.615 C 123.235 134.854, 120 137.061, 120 141.069 L 120 144.025 156.250 143.762 L 192.500 143.500 192.757 71.750 L 193.013 0 96.507 0 L 0 0 0 72 M 0.474 72.500 C 0.474 112.100, 0.598 128.154, 0.750 108.176 C 0.901 88.198, 0.901 55.798, 0.750 36.176 C 0.598 16.554, 0.474 32.900, 0.474 72.500 M 102.147 71.139 C 100.245 74.466, 100.053 75.419, 101.147 76.112 C 103.380 77.527, 103.880 77.158, 104.547 73.600 C 105.661 67.665, 104.698 66.677, 102.147 71.139 M 109.200 139.200 C 107.047 141.353, 107.763 144, 110.500 144 C 112.611 144, 113 143.533, 113 141 C 113 137.855, 111.334 137.066, 109.200 139.200" stroke="none" fill="black" fill-rule="evenodd"/>
</svg>