<svg xmlns="http://www.w3.org/2000/svg" width="192" height="144" viewBox="0 0 192 144" version="1.1">
	<path d="M 140.189 2.526 C 124.754 6.450, 118.274 12.210, 115.797 24.205 C 115.138 27.392, 114.076 30, 113.435 30 C 112.794 30, 111.060 30.952, 109.581 32.115 C 107.472 33.774, 107.017 34.801, 107.472 36.874 C 107.964 39.114, 107.542 39.792, 104.702 41.321 C 102.431 42.545, 100.454 42.901, 98.568 42.428 C 95.247 41.594, 94.038 43.016, 94.015 47.781 C 93.998 51.511, 95.804 52.711, 98.922 51.042 C 100.607 50.140, 101 50.220, 101 51.465 C 101 52.426, 101.913 53, 103.443 53 C 105.098 53, 106.459 53.969, 107.659 56 C 108.634 57.650, 110.207 59, 111.154 59 C 114.458 59, 114.789 72.932, 111.880 89.500 C 110.829 95.485, 105.679 112.467, 104.252 114.652 C 103.839 115.286, 101.427 116.114, 98.894 116.494 L 94.289 117.184 87.520 108.415 L 80.751 99.646 80.601 90.401 C 80.488 83.468, 80.047 80.699, 78.834 79.328 C 77.945 78.323, 75.783 73.900, 74.029 69.500 C 70.283 60.101, 67.498 54.666, 66.205 54.235 C 65.695 54.065, 64.511 55.097, 63.573 56.529 C 61.926 59.043, 61.974 59.385, 64.975 66.595 C 68.160 74.244, 68.189 76, 65.134 76 C 64.172 76, 62.061 77.086, 60.443 78.412 C 58.824 79.739, 56.489 81.652, 55.253 82.662 C 54.017 83.673, 52.725 85.953, 52.382 87.729 C 51.835 90.559, 52.082 91.081, 54.379 91.954 C 55.821 92.502, 57 93.412, 57 93.975 C 57 94.539, 56.994 95.228, 56.987 95.507 C 56.937 97.401, 63.377 108.008, 69.429 116 C 80.903 131.151, 81.557 132.470, 80.169 137.656 C 79.526 140.061, 79 142.472, 79 143.014 C 79 143.650, 99.029 144, 135.443 144 L 191.887 144 191.955 80.111 L 192.022 16.221 186.509 11.183 C 174.762 0.446, 159.549 -2.397, 140.189 2.526 M 124.792 91.750 C 124.519 99, 124.651 99.580, 126.840 100.737 C 130.246 102.539, 132.677 100.844, 133.241 96.275 C 133.641 93.034, 133.197 91.912, 130.103 88.344 C 128.122 86.059, 126.181 84.146, 125.792 84.094 C 125.403 84.042, 124.953 87.487, 124.792 91.750" stroke="none" fill="black" fill-rule="evenodd"/>
</svg>