<svg xmlns="http://www.w3.org/2000/svg" width="192" height="144" viewBox="0 0 192 144" version="1.1">
	<path d="M 92.435 30.503 C 92.976 33.390, 92.566 34.770, 90.103 38.350 C 85.623 44.861, 85.344 47.165, 88.798 49.104 C 91.001 50.342, 92.037 52.072, 93.327 56.670 C 95.489 64.375, 95.462 64.667, 92.500 65.411 C 89.359 66.199, 89.348 68.059, 92.448 74.715 C 94.193 78.464, 95.594 80.111, 97.428 80.571 C 100.439 81.327, 102.528 87.360, 101.651 92.766 C 101.262 95.159, 101.527 96.265, 102.584 96.671 C 104.224 97.300, 103.658 100.474, 101.455 103 C 99.930 104.750, 97.137 113.621, 93.915 126.951 C 92.659 132.149, 90.854 137.999, 89.904 139.951 L 88.177 143.500 113.738 143.767 C 127.797 143.914, 139.461 143.873, 139.658 143.675 C 139.855 143.478, 138.664 140.035, 137.010 136.025 C 135.357 132.015, 132.637 124.182, 130.966 118.617 C 129.295 113.053, 127.269 107.306, 126.464 105.846 C 124.752 102.742, 124.580 99.820, 126.024 98.376 C 127.586 96.814, 127.769 78.643, 126.241 76.796 C 125.154 75.482, 125.616 75.187, 129.631 74.637 C 132.187 74.287, 136.579 73.993, 139.390 73.985 C 148.586 73.959, 152.114 70.351, 148.167 65.012 C 147.052 63.504, 145.435 60.585, 144.575 58.525 C 143.046 54.866, 143.068 54.735, 145.505 52.817 C 148.167 50.724, 148.771 47.171, 146.800 45.200 C 144.951 43.351, 152.421 43.649, 156.140 45.572 C 160.970 48.070, 162.382 46.874, 161.672 40.882 C 160.499 30.971, 154.752 25.711, 151.651 31.709 C 148.198 38.385, 141.128 42.382, 139.638 38.500 C 138.863 36.479, 133.567 36.576, 131.494 38.649 C 130.587 39.556, 130.069 41.156, 130.343 42.204 C 130.701 43.572, 130.125 44.382, 128.303 45.075 C 126.907 45.606, 124.632 46.931, 123.247 48.020 C 119.331 51.101, 118 50.580, 118 45.965 C 118 43.745, 117.273 40.820, 116.384 39.463 C 115.491 38.100, 114.981 35.880, 115.244 34.502 C 115.628 32.496, 115.131 31.713, 112.707 30.504 C 109.246 28.777, 105.402 28.541, 104.500 30 C 103.522 31.583, 100.329 31.171, 96.774 29.004 C 92.271 26.258, 91.677 26.463, 92.435 30.503 M 142 47.441 C 142 49.055, 143.416 50.250, 144.292 49.375 C 145.072 48.595, 143.997 46, 142.893 46 C 142.402 46, 142 46.648, 142 47.441 M 127.186 50.055 C 125.913 50.565, 125.141 51.420, 125.471 51.954 C 126.154 53.058, 131 51.205, 131 49.839 C 131 48.809, 130.177 48.855, 127.186 50.055 M 118.250 52.662 C 116.613 53.323, 116.655 55.468, 118.332 56.861 C 120.218 58.426, 123.339 56.047, 122.447 53.724 C 121.788 52.004, 120.616 51.708, 118.250 52.662 M 189.655 60.829 C 188.745 61.835, 188 63.608, 188 64.770 C 188 65.931, 187.528 67.174, 186.951 67.530 C 186.304 67.930, 186.253 68.622, 186.817 69.339 C 187.371 70.042, 187.343 73.559, 186.748 78.256 C 185.688 86.610, 186.439 89, 190.122 89 C 191.876 89, 192 88.007, 192 74 C 192 65.750, 191.845 59, 191.655 59 C 191.465 59, 190.565 59.823, 189.655 60.829" stroke="none" fill="black" fill-rule="evenodd"/>
</svg>