<svg xmlns="http://www.w3.org/2000/svg" width="192" height="144" viewBox="0 0 192 144" version="1.1">
	<path d="M 58.105 29.047 C 56.788 29.595, 54.937 29.797, 53.992 29.497 C 52.647 29.070, 52.005 29.912, 51.036 33.371 C 49.823 37.705, 50.298 42, 51.990 42 C 53.148 42, 55.311 48.776, 55.216 52.108 C 55.174 53.589, 53.533 56.904, 51.570 59.477 C 47.472 64.845, 47.162 66.931, 50.070 69.564 C 51.724 71.060, 52.011 72.148, 51.496 74.969 C 51.142 76.911, 50.210 79.497, 49.426 80.715 C 48.642 81.933, 48 83.866, 48 85.011 C 48 86.155, 46.884 89.188, 45.520 91.749 C 43.833 94.918, 43.395 96.626, 44.148 97.092 C 44.945 97.584, 44.658 102.848, 43.128 115.840 C 41.958 125.776, 41 136.176, 41 138.952 L 41 144 60 144 C 81.562 144, 79.875 144.855, 77.971 134.886 C 77.405 131.924, 76.295 125.215, 75.504 119.978 C 74.714 114.741, 72.900 106.641, 71.474 101.978 C 70.049 97.315, 68.770 92.750, 68.633 91.833 C 68.496 90.917, 67.794 89.457, 67.073 88.588 C 65.981 87.272, 66.054 86.567, 67.514 84.339 C 69.865 80.750, 70.470 61.158, 68.386 56.111 C 66.824 52.331, 67.840 50, 71.049 50 C 73.438 50, 76.229 44.319, 75.491 40.959 C 75.176 39.526, 73.024 36.241, 70.709 33.660 C 66.221 28.656, 62.404 27.259, 58.105 29.047 M 125.586 58.828 C 119.524 60.980, 117.893 63.119, 120.292 65.770 C 121.231 66.808, 122 67.970, 122 68.351 C 122 68.733, 119.661 71.276, 116.803 74.002 L 111.606 78.959 107.182 76.366 C 103.670 74.308, 102.588 74.049, 101.933 75.108 C 101.480 75.842, 100.788 76.122, 100.396 75.730 C 100.005 75.338, 99.086 75.514, 98.355 76.121 C 97.624 76.727, 96.416 76.990, 95.672 76.704 C 94.928 76.419, 93.684 76.603, 92.909 77.113 C 90.868 78.456, 95.258 82.007, 98.055 81.275 C 99.544 80.886, 100.264 81.293, 100.642 82.740 C 101.059 84.335, 102.317 84.879, 106.795 85.406 C 118.152 86.741, 129.537 91.436, 128.428 94.328 C 128.136 95.089, 128.862 97.347, 130.043 99.348 C 132.325 103.216, 132.345 108.157, 130.099 113 C 129.461 114.375, 127.674 120.362, 126.127 126.304 L 123.315 137.107 125.380 138.554 C 126.516 139.349, 128.466 140, 129.714 140 C 130.962 140, 132.545 140.900, 133.232 142 C 135.014 144.853, 144.522 144.936, 145.262 142.106 C 145.559 140.970, 147.042 139.930, 148.969 139.507 C 151.666 138.914, 152.081 138.456, 151.556 136.651 C 151.213 135.468, 149.597 125.950, 147.967 115.500 C 146.336 105.050, 144.584 95.290, 144.074 93.811 C 143.432 91.950, 143.509 90.828, 144.323 90.165 C 146.400 88.476, 153.282 86.843, 161.500 86.090 C 170.011 85.311, 175.500 83.353, 175.500 81.097 C 175.500 80.341, 173.183 78.842, 170.352 77.766 L 165.204 75.810 154.852 79.998 C 149.158 82.301, 143.938 84.417, 143.250 84.700 C 142.414 85.044, 142 84.224, 142 82.226 C 142 79.988, 142.876 78.570, 145.487 76.578 C 150.841 72.494, 151.460 70.646, 148.590 67.310 C 146.566 64.956, 145.387 64.498, 141.337 64.485 C 135.905 64.467, 133.610 63.458, 134.389 61.428 C 134.894 60.112, 132.583 56.956, 131.179 57.042 C 130.805 57.064, 128.289 57.868, 125.586 58.828" stroke="none" fill="black" fill-rule="evenodd"/>
</svg>