<svg xmlns="http://www.w3.org/2000/svg" width="192" height="144" viewBox="0 0 192 144" version="1.1">
	<path d="M 0 72 L 0 144 35.421 144 L 70.841 144 71.530 140.750 C 71.909 138.963, 73.554 133.297, 75.186 128.159 C 76.817 123.022, 78.005 118.747, 77.826 118.659 C 77.647 118.572, 76.440 117.904, 75.145 117.176 C 73.850 116.448, 73.089 116.336, 73.454 116.926 C 73.880 117.614, 72.840 118, 70.559 118 C 67.433 118, 67 117.697, 67 115.509 C 67 114.138, 68.463 111.097, 70.250 108.750 C 75.978 101.230, 80.130 90.792, 80.884 82.022 C 81.256 77.695, 81.209 74.371, 80.780 74.636 C 79.594 75.369, 79.844 74.177, 81.394 71.715 C 82.161 70.497, 83.099 66.869, 83.478 63.653 C 84.087 58.491, 83.934 57.642, 82.167 56.405 C 79.712 54.685, 76.327 46.262, 77.596 45.032 C 78.093 44.551, 83.675 43.920, 90 43.631 C 96.325 43.341, 103.629 42.796, 106.230 42.419 C 110.135 41.853, 111.072 42.025, 111.602 43.404 C 112.391 45.462, 109.266 53.961, 107.466 54.652 C 106.744 54.929, 106.135 56.583, 106.114 58.328 C 106.093 60.072, 105.787 63.648, 105.435 66.274 C 104.978 69.683, 105.253 72.013, 106.397 74.425 C 107.279 76.283, 108 80.340, 108 83.441 C 108 89.799, 109.303 92.702, 117.007 103.499 C 122.657 111.419, 123.154 113.672, 119.453 114.601 C 116.630 115.310, 115.532 114.658, 115.513 112.266 C 115.485 108.817, 113.167 110.051, 112.524 113.857 C 112.032 116.772, 112.534 119.966, 114.428 125.960 C 115.842 130.439, 117.003 134.643, 117.006 135.302 C 117.009 135.961, 117.481 138.193, 118.056 140.262 L 119.101 144.025 155.800 143.762 L 192.500 143.500 192.757 71.750 L 193.013 0 96.507 0 L 0 0 0 72 M 0.474 72.500 C 0.474 112.100, 0.598 128.154, 0.750 108.176 C 0.901 88.198, 0.901 55.798, 0.750 36.176 C 0.598 16.554, 0.474 32.900, 0.474 72.500" stroke="none" fill="black" fill-rule="evenodd"/>
</svg>