<svg xmlns="http://www.w3.org/2000/svg" width="192" height="144" viewBox="0 0 192 144" version="1.1">
	<path d="M 51.997 31.951 C 50.581 37.047, 50.748 38.462, 53.006 40.506 C 54.110 41.504, 54.790 42.543, 54.519 42.814 C 54.248 43.085, 54.957 44.813, 56.095 46.653 C 57.918 49.603, 57.975 50.072, 56.582 50.607 C 55.712 50.941, 55 51.802, 55 52.520 C 55 53.238, 53.425 56.217, 51.500 59.140 C 47.418 65.339, 47.308 66.063, 50.070 68.564 C 51.728 70.064, 52.009 71.137, 51.482 73.950 C 51.119 75.882, 50.331 78.371, 49.729 79.482 C 49.128 80.592, 48.519 82.561, 48.375 83.859 C 48.231 85.156, 47.389 87.018, 46.503 87.997 C 45.018 89.638, 44.748 90.992, 45.109 95 C 45.183 95.825, 44.273 102.342, 43.088 109.483 C 41.312 120.175, 38 142.432, 38 143.674 C 38 143.853, 47.061 144, 58.136 144 L 78.272 144 77.590 139.250 C 77.215 136.637, 76.240 128.875, 75.423 122 C 74.038 110.340, 69.962 91.492, 68.057 87.940 C 67.551 86.997, 67.793 85.022, 68.669 82.940 C 69.466 81.048, 70.053 77.250, 69.974 74.500 C 69.894 71.750, 69.908 69.050, 70.004 68.500 C 70.422 66.096, 69.773 57.694, 68.945 54.809 C 67.922 51.242, 69.130 49, 72.075 49 C 73.320 49, 74.218 47.869, 74.882 45.466 C 76.016 41.358, 73.818 35.254, 69.544 30.642 C 67.205 28.118, 66.507 27.937, 60.002 28.160 L 52.983 28.401 51.997 31.951 M 154.250 125.610 C 153.563 125.916, 153 126.949, 153 127.905 C 153 131.337, 149.807 138.925, 148.170 139.385 C 147.252 139.643, 144.588 140.151, 142.250 140.515 C 139.569 140.932, 138 141.697, 138 142.588 C 138 143.752, 141.180 144, 156.111 144 C 173.456 144, 174.137 143.926, 172.216 142.250 C 169.901 140.229, 168.521 135.414, 169.996 134.502 C 172.741 132.806, 170.030 127.319, 166 126.416 C 161.688 125.450, 155.552 125.029, 154.250 125.610" stroke="none" fill="black" fill-rule="evenodd"/>
</svg>