<svg xmlns="http://www.w3.org/2000/svg" width="192" height="144" viewBox="0 0 192 144" version="1.1">
	<path d="M 0 72 L 0 144 23.500 144 C 36.425 144, 47 143.794, 47 143.542 C 47 143.291, 43.922 142.168, 40.160 141.048 C 36.398 139.927, 32.532 138.141, 31.571 137.078 C 30.609 136.015, 27.972 134.833, 25.711 134.451 C 21.332 133.711, 14.989 130.161, 15.079 128.500 C 15.109 127.950, 16.380 125.250, 17.903 122.500 C 21.055 116.811, 25.246 113.551, 30.726 112.525 C 32.802 112.137, 36.388 110.959, 38.695 109.909 C 41.002 108.859, 43.179 108, 43.532 108 C 45.157 108, 53.341 101.225, 57.098 96.768 L 61.266 91.826 59.468 86.536 C 57.772 81.548, 57.763 80.855, 59.311 74.373 C 62.149 62.490, 62.413 59.270, 60.691 57.549 C 59.840 56.697, 58.669 56, 58.090 56 C 57.510 56, 55.415 54.425, 53.432 52.500 C 51.450 50.575, 49.662 49, 49.460 49 C 49.257 49, 47.966 50.125, 46.591 51.500 C 45.216 52.875, 43.159 54, 42.021 54 C 40.665 54, 39.614 54.949, 38.976 56.750 C 37.311 61.447, 36.417 62.464, 32.936 63.621 C 30.411 64.460, 29.362 65.524, 28.757 67.858 C 28.254 69.798, 26.861 71.538, 25.065 72.466 C 23.479 73.287, 21.944 74.530, 21.655 75.229 C 21.284 76.124, 20.541 75.831, 19.142 74.236 C 16.782 71.545, 15.435 61.461, 16.372 53.492 C 17.286 45.711, 22.296 34.396, 28.164 26.856 C 31.556 22.498, 31.618 21.870, 28.907 19.416 C 25.937 16.728, 24.483 13.864, 26.477 14.629 C 27.315 14.951, 28 15.564, 28 15.992 C 28 16.420, 29.153 17.526, 30.563 18.449 C 33.038 20.071, 33.284 20.026, 37.813 17.131 C 44.145 13.081, 54.772 8.137, 58.750 7.389 C 62.070 6.764, 62.991 5.530, 60.750 4.708 C 59.764 4.347, 59.758 3.976, 60.723 2.952 C 61.685 1.931, 62.496 1.905, 64.529 2.831 C 65.950 3.479, 66.836 4.457, 66.497 5.004 C 66.123 5.610, 67.688 6, 70.498 6 C 76.295 6, 84.035 7.827, 85.989 9.656 C 87.561 11.128, 87.903 10.661, 78.048 20.486 C 76.700 21.830, 74.337 23.206, 72.798 23.544 C 68.921 24.396, 69.008 27.623, 72.931 28.485 C 74.543 28.839, 76.398 29.775, 77.053 30.564 C 77.709 31.354, 79.202 32.036, 80.372 32.079 C 81.543 32.122, 81.971 32.374, 81.325 32.637 C 80.452 32.993, 80.522 34.006, 81.598 36.581 C 83.251 40.535, 82.293 43.455, 79.001 44.500 C 77.787 44.885, 77 46.013, 77 47.367 C 77 50.235, 75.209 52, 72.300 52 C 71.035 52, 70 52.450, 70 53 C 70 53.550, 70.414 54, 70.920 54 C 72.870 54, 82.544 65.322, 83.502 68.725 C 84.053 70.683, 85.366 72.783, 86.421 73.392 C 87.475 74.001, 89.637 75.939, 91.226 77.697 C 94.338 81.142, 97 81.153, 97 77.722 C 97 76.586, 96.253 74.832, 95.339 73.823 C 93.299 71.567, 94.132 70.465, 96.799 71.893 C 99.641 73.413, 100.441 77.678, 98.453 80.712 C 97.107 82.766, 96.275 83.105, 93.798 82.610 C 91.543 82.159, 90.085 82.573, 88.025 84.253 C 86.508 85.489, 84.529 86.950, 83.626 87.500 C 82.205 88.365, 82.120 89.311, 82.991 94.500 C 83.778 99.184, 85.886 132.836, 85.982 142.259 C 85.999 143.918, 89.009 144.003, 139.250 143.759 L 192.500 143.500 192.757 71.750 L 193.013 0 96.507 0 L 0 0 0 72 M 0.474 72.500 C 0.474 112.100, 0.598 128.154, 0.750 108.176 C 0.901 88.198, 0.901 55.798, 0.750 36.176 C 0.598 16.554, 0.474 32.900, 0.474 72.500 M 111.029 3.961 C 110.220 4.473, 109.863 5.196, 110.236 5.569 C 111.151 6.484, 114 5.320, 114 4.031 C 114 2.761, 112.965 2.737, 111.029 3.961 M 124.500 42 C 124.840 42.550, 126.104 42.993, 127.309 42.985 C 129.090 42.972, 129.219 42.788, 128 42 C 126.030 40.727, 123.713 40.727, 124.500 42 M 181.482 55.030 C 181.093 55.659, 181.163 56.550, 181.637 57.010 C 182.858 58.193, 188.160 56.985, 187.715 55.625 C 187.209 54.082, 182.354 53.618, 181.482 55.030 M 183.813 65.683 C 184.534 65.972, 185.397 65.936, 185.729 65.604 C 186.061 65.272, 185.471 65.036, 184.417 65.079 C 183.252 65.127, 183.015 65.364, 183.813 65.683 M 31 77.941 C 31 80.128, 32.562 81.518, 33.434 80.107 C 34.165 78.924, 33.067 76, 31.893 76 C 31.402 76, 31 76.873, 31 77.941 M 151 79.186 C 151 79.974, 151.661 81.491, 152.468 82.559 C 153.908 84.462, 153.937 84.458, 153.968 82.372 C 153.986 81.202, 153.325 79.685, 152.500 79 C 151.285 77.992, 151 78.028, 151 79.186 M 147.163 92.929 C 147.414 93.714, 148.371 94.832, 149.291 95.412 C 150.575 96.222, 151.373 96.019, 152.731 94.538 C 154.423 92.694, 154.423 92.668, 152.731 93.943 C 151.223 95.080, 150.649 94.998, 148.835 93.388 C 147.386 92.102, 146.853 91.955, 147.163 92.929 M 121.667 93.667 C 121.300 94.033, 121 95.213, 121 96.289 C 121 97.914, 121.254 98.034, 122.500 97 C 123.325 96.315, 124 95.135, 124 94.378 C 124 92.920, 122.783 92.550, 121.667 93.667 M 179 97.987 C 179 98.816, 181.435 100, 183.141 100 C 183.678 100, 183.873 99.604, 183.575 99.121 C 182.841 97.934, 179 96.982, 179 97.987 M 11.250 111.662 C 10.563 111.940, 10 113.084, 10 114.205 C 10 116.080, 10.176 116.127, 12.195 114.786 C 16.081 112.206, 15.408 109.984, 11.250 111.662 M 3.656 116.206 C 2.916 119.036, 3.230 119.284, 5.476 117.641 C 6.482 116.905, 6.985 115.785, 6.594 115.152 C 5.486 113.359, 4.289 113.788, 3.656 116.206 M 5 130.878 C 5 132.156, 7.940 134.393, 8.667 133.667 C 9.393 132.940, 7.156 130, 5.878 130 C 5.395 130, 5 130.395, 5 130.878 M 181 138.031 C 181 139.979, 183.504 141.829, 184.624 140.709 C 185.376 139.958, 183.141 136, 181.965 136 C 181.434 136, 181 136.914, 181 138.031 M 123.028 138.962 C 121.758 139.765, 121.782 139.979, 123.205 140.525 C 125.573 141.434, 129.273 140.713, 129.755 139.250 C 130.245 137.763, 125.262 137.549, 123.028 138.962" stroke="none" fill="black" fill-rule="evenodd"/>
</svg>