<svg xmlns="http://www.w3.org/2000/svg" width="192" height="144" viewBox="0 0 192 144" version="1.1">
	<path d="M 0 72 L 0 144 37.979 144 L 75.957 144 74.899 141.677 C 74.072 139.864, 74.427 137.201, 76.519 129.523 C 77.992 124.116, 79.831 117.897, 80.604 115.705 C 81.521 113.105, 81.676 111.314, 81.048 110.558 C 79.669 108.897, 80.402 101.687, 82.833 93 C 85.666 82.876, 87.342 72.518, 87.094 66.669 C 86.981 64.012, 87.419 61.200, 88.067 60.419 C 88.776 59.565, 88.840 59, 88.229 59 C 87.671 59, 86.955 59.675, 86.638 60.500 C 85.869 62.504, 83.095 62.412, 82.306 60.355 C 81.534 58.344, 84.440 56, 87.705 56 C 88.982 56, 90.876 55.470, 91.913 54.822 C 94.161 53.419, 107.238 55.377, 108.888 57.364 C 110.086 58.808, 109.184 60.393, 106.625 61.340 C 105.031 61.929, 104.854 62.669, 105.445 66.267 C 105.827 68.595, 106.538 74.100, 107.024 78.500 C 107.511 82.900, 109.016 90.021, 110.369 94.324 C 112.514 101.146, 112.713 102.965, 111.924 108.534 C 111.387 112.327, 111.385 115.883, 111.920 117.291 C 112.416 118.594, 114.020 124.204, 115.485 129.758 C 117.586 137.725, 117.913 140.295, 117.032 141.939 L 115.917 144.024 154.208 143.762 L 192.500 143.500 192.757 71.750 L 193.013 0 96.507 0 L 0 0 0 72 M 0.474 72.500 C 0.474 112.100, 0.598 128.154, 0.750 108.176 C 0.901 88.198, 0.901 55.798, 0.750 36.176 C 0.598 16.554, 0.474 32.900, 0.474 72.500" stroke="none" fill="black" fill-rule="evenodd"/>
</svg>