<svg xmlns="http://www.w3.org/2000/svg" width="192" height="144" viewBox="0 0 192 144" version="1.1">
	<path d="M 0 72 L 0 144 30.250 143.970 C 51.289 143.948, 59.967 143.629, 58.750 142.920 C 57.788 142.359, 57 140.757, 57 139.360 C 57 137.789, 55.855 135.815, 54 134.187 C 51.112 131.653, 49.931 128, 52 128 C 52.550 128, 53 126.905, 53 125.567 C 53 122.709, 57.977 118.356, 68.500 112.011 C 77.208 106.760, 81.484 102.917, 79.786 101.868 C 78.962 101.359, 79.400 100.798, 81.138 100.138 C 82.552 99.600, 85.851 96.652, 88.471 93.586 L 93.233 88.011 91.570 84.506 C 90.335 81.903, 89.274 81, 87.453 81 C 84.272 81, 84.318 79.632, 87.548 78.160 C 90.090 77.002, 90.095 76.974, 89.798 65.541 C 89.522 54.921, 89.339 53.996, 87.303 52.901 C 84.588 51.440, 83.625 49.156, 85.018 47.479 C 85.597 46.781, 85.942 45.817, 85.785 45.336 C 85.628 44.855, 86.552 43.345, 87.837 41.981 C 89.122 40.616, 91.009 37.881, 92.029 35.903 C 94.715 30.696, 98.301 28.661, 103.715 29.271 C 113.051 30.324, 119.247 42.645, 111.428 44.607 C 109.974 44.972, 108.340 46.588, 107.381 48.610 C 106.298 50.891, 105.073 52.005, 103.636 52.015 C 101.766 52.028, 101.957 52.432, 105.169 55.265 C 109.816 59.362, 113.079 66.738, 112.319 71.425 C 111.349 77.402, 118.971 89.992, 122.695 88.564 C 123.629 88.205, 125.941 89.019, 128.156 90.485 C 130.269 91.883, 135.079 93.675, 138.845 94.467 C 147.132 96.211, 152.013 98.115, 167 105.453 C 173.325 108.549, 177.150 110.849, 175.500 110.564 C 173.850 110.279, 166.650 109.547, 159.500 108.938 C 150.320 108.156, 144.443 107.088, 139.500 105.302 C 135.650 103.911, 129.837 102.555, 126.581 102.289 C 121.241 101.853, 117.263 100.070, 118.615 98.719 C 118.900 98.433, 117.499 97.660, 115.500 97 C 113.501 96.340, 111.728 95.958, 111.560 96.150 C 111.138 96.632, 114.267 117.119, 117.014 131.854 L 119.282 144.024 155.891 143.762 L 192.500 143.500 192.675 71.500 C 192.771 31.900, 192.621 0.062, 192.341 0.750 C 192.062 1.437, 191.394 2, 190.858 2 C 190.321 2, 190.160 1.550, 190.500 1 C 190.903 0.348, 185.022 -0, 173.594 -0 C 157.094 -0, 156.008 0.117, 155 2 C 154.411 3.100, 153.480 4, 152.930 4 C 152.286 4, 152.312 3.286, 153 2 C 154.066 0.008, 153.760 0, 77.035 0 L 0 0 0 72 M 0.474 72.500 C 0.474 112.100, 0.598 128.154, 0.750 108.176 C 0.901 88.198, 0.901 55.798, 0.750 36.176 C 0.598 16.554, 0.474 32.900, 0.474 72.500 M 5.443 30.418 C 4.376 31.198, 3.776 32.109, 4.108 32.442 C 5.096 33.430, 8 31.901, 8 30.393 C 8 28.663, 7.841 28.664, 5.443 30.418 M 61.500 32 C 60.684 33.320, 61.880 35.192, 63.069 34.457 C 64.284 33.707, 64.276 31, 63.059 31 C 62.541 31, 61.840 31.450, 61.500 32 M 142.764 37.454 C 142.491 38.880, 142.545 40.209, 142.884 40.406 C 144.213 41.180, 148 38.973, 148 37.425 C 148 36.443, 147.447 35.998, 146.622 36.315 C 145.864 36.606, 144.797 36.397, 144.252 35.852 C 143.596 35.196, 143.092 35.739, 142.764 37.454 M 24 50.559 C 24 51.416, 24.450 51.840, 25 51.500 C 25.550 51.160, 26 50.459, 26 49.941 C 26 49.423, 25.550 49, 25 49 C 24.450 49, 24 49.702, 24 50.559 M 15 63 C 15 63.550, 15.450 64, 16 64 C 16.550 64, 17 63.550, 17 63 C 17 62.450, 16.550 62, 16 62 C 15.450 62, 15 62.450, 15 63 M 13.597 78.844 C 13.251 79.404, 13.455 80.163, 14.050 80.531 C 15.588 81.481, 16.580 80.180, 15.296 78.896 C 14.578 78.178, 14.019 78.161, 13.597 78.844 M 180.500 125 C 180.840 125.550, 181.793 126, 182.618 126 C 183.443 126, 183.840 125.550, 183.500 125 C 183.160 124.450, 182.207 124, 181.382 124 C 180.557 124, 180.160 124.450, 180.500 125 M 180.750 139.662 C 181.438 139.940, 182.563 139.940, 183.250 139.662 C 183.938 139.385, 183.375 139.158, 182 139.158 C 180.625 139.158, 180.063 139.385, 180.750 139.662" stroke="none" fill="black" fill-rule="evenodd"/>
</svg>