<svg xmlns="http://www.w3.org/2000/svg" width="192" height="144" viewBox="0 0 192 144" version="1.1">
	<path d="M 0 72 L 0 144 36.250 143.980 L 72.500 143.960 75.792 131.230 C 77.603 124.228, 79.346 117.469, 79.667 116.208 C 79.987 114.948, 79.855 113.989, 79.375 114.077 C 78.894 114.165, 77.880 114.184, 77.122 114.118 C 75.250 113.958, 76.171 108.575, 80.529 94.198 C 82.413 87.982, 84.104 81.441, 84.286 79.661 C 84.469 77.882, 84.923 75.933, 85.296 75.329 C 86.629 73.173, 86.571 61.692, 85.225 61.243 C 83.754 60.751, 81 54.647, 81 51.878 C 81 50.316, 81.800 49.986, 85.750 49.915 C 88.362 49.868, 94.853 49.630, 100.174 49.387 C 105.494 49.143, 110.098 49.350, 110.405 49.847 C 111.099 50.969, 108.101 60, 107.035 60 C 106.607 60, 105.952 62.305, 105.578 65.121 C 104.861 70.530, 105.836 75.766, 111.052 94.500 C 115.363 109.985, 115.538 111.559, 113.180 113.578 C 111.522 114.998, 111.343 115.764, 112.169 117.902 C 114.164 123.067, 118.912 142.333, 118.396 143.169 C 118.105 143.639, 134.659 143.906, 155.183 143.762 L 192.500 143.500 192.757 71.750 L 193.013 0 96.507 0 L 0 0 0 72 M 0.474 72.500 C 0.474 112.100, 0.598 128.154, 0.750 108.176 C 0.901 88.198, 0.901 55.798, 0.750 36.176 C 0.598 16.554, 0.474 32.900, 0.474 72.500" stroke="none" fill="black" fill-rule="evenodd"/>
</svg>