<svg xmlns="http://www.w3.org/2000/svg" width="192" height="144" viewBox="0 0 192 144" version="1.1">
	<path d="M 0 53.034 L 0 106.069 4.750 105.518 C 16.470 104.160, 30.657 103, 35.559 103 C 40.207 103, 41.142 102.657, 42.703 100.377 C 43.691 98.935, 46.413 95.625, 48.750 93.023 C 53.581 87.646, 53.777 86.966, 51 85.232 C 49.900 84.545, 49 83.181, 49 82.200 C 49 81.220, 53.334 76.161, 58.632 70.959 C 75.559 54.336, 94.036 29.113, 95.046 21.250 L 95.592 17 90.970 17 C 87.453 17, 85.837 16.455, 84.208 14.722 C 81.951 12.318, 79 5.040, 79 1.874 C 79 0.074, 77.450 0, 39.500 0 L 0 0 0 53.034 M 128 0.802 C 128 1.960, 123.298 29.938, 122.505 33.500 C 121.094 39.840, 119.357 42.904, 110.033 55.500 C 104.740 62.650, 98.943 70.827, 97.152 73.670 C 93.592 79.320, 83.758 101.091, 84.452 101.785 C 85.164 102.497, 110.010 104.210, 111.475 103.648 C 112.220 103.362, 114.515 100.062, 116.573 96.314 C 118.632 92.566, 121.237 88.473, 122.363 87.218 L 124.410 84.935 121.663 82.388 C 119.644 80.517, 119.093 79.281, 119.585 77.732 C 120.305 75.464, 125.405 67.168, 130.892 59.340 C 140.067 46.250, 156.820 7.422, 155.525 2.250 C 154.976 0.056, 154.628 0, 141.481 0 C 134.066 0, 128 0.361, 128 0.802 M 189.923 22.157 C 189.056 23.996, 185.138 31.800, 181.218 39.500 C 172.846 55.942, 169.936 63.350, 167.062 75.542 C 164.069 88.236, 160.139 98.151, 157.863 98.746 C 156.297 99.156, 156 100.227, 156 105.466 L 156 111.698 166.750 114.494 C 172.662 116.032, 180.613 118.349, 184.419 119.643 C 188.224 120.937, 191.491 121.843, 191.678 121.655 C 191.865 121.468, 191.902 98.252, 191.759 70.065 C 191.519 22.536, 191.385 19.057, 189.923 22.157 M 76.778 123.750 C 75.692 125.996, 74.786 126.500, 71.841 126.500 C 69.815 126.500, 67.382 127.267, 66.289 128.250 C 63.769 130.516, 62.435 130.459, 60.720 128.011 C 59.352 126.057, 59.302 126.066, 57.994 128.511 C 56.367 131.551, 53.618 131.720, 51.644 128.902 L 50.174 126.804 48.472 129.402 C 47.536 130.831, 46.179 132, 45.456 132 C 43.200 132, 41 128.985, 41 125.893 C 41 123.162, 40.830 123.021, 38.829 124.091 C 37.037 125.051, 36.432 124.944, 35.361 123.479 C 34.142 121.812, 33.043 121.783, 17.032 122.998 L 0 124.289 0 134.150 L 0 144.010 96.250 143.755 L 192.500 143.500 192.561 133 L 192.623 122.500 192.274 131.750 C 192.081 136.859, 191.488 141, 190.949 141 C 190.412 141, 185.367 139.497, 179.737 137.660 C 174.107 135.823, 165.352 133.302, 160.282 132.056 C 151.615 129.927, 150.964 129.894, 149.369 131.488 C 148.259 132.598, 146.752 133, 145.007 132.651 C 142.918 132.234, 141.768 132.772, 139.688 135.142 C 137.430 137.716, 136.572 138.065, 133.930 137.485 C 131.441 136.938, 130.535 137.219, 129.356 138.901 C 127.862 141.036, 123.591 141.765, 122.541 140.066 C 122.223 139.552, 120.405 139.385, 118.499 139.694 C 114.257 140.382, 113.164 138.517, 115.342 134.306 C 116.160 132.725, 117.133 129.805, 117.506 127.819 C 118.176 124.249, 118.139 124.200, 114.342 123.586 C 109.309 122.772, 87.666 121.036, 82.305 121.016 C 78.710 121.002, 77.919 121.394, 76.778 123.750 M 0.370 134 C 0.370 139.775, 0.535 142.137, 0.737 139.250 C 0.939 136.363, 0.939 131.637, 0.737 128.750 C 0.535 125.862, 0.370 128.225, 0.370 134 M 134 129.059 C 134 129.641, 134.450 129.840, 135 129.500 C 135.550 129.160, 136 128.684, 136 128.441 C 136 128.198, 135.550 128, 135 128 C 134.450 128, 134 128.477, 134 129.059 M 124.667 130.667 C 124.300 131.033, 124 131.798, 124 132.367 C 124 132.993, 124.466 132.934, 125.183 132.217 C 125.834 131.566, 126.134 130.801, 125.850 130.517 C 125.566 130.232, 125.033 130.300, 124.667 130.667" stroke="none" fill="black" fill-rule="evenodd"/>
</svg>