<svg xmlns="http://www.w3.org/2000/svg" width="192" height="144" viewBox="0 0 192 144" version="1.1">
	<path d="M 0 72 L 0 144 34.932 144 L 69.864 144 71.932 141.096 C 73.069 139.498, 74 137.305, 74 136.223 C 74 135.140, 74.980 132.060, 76.178 129.377 C 77.918 125.483, 78.313 122.887, 78.139 116.500 C 77.857 106.162, 77.092 102, 75.475 102 C 74.513 102, 74.255 100.402, 74.487 95.887 C 74.731 91.131, 75.684 88.039, 78.783 81.952 L 82.766 74.129 80.288 71.814 C 74.897 66.780, 72.903 57.361, 77 56.290 C 79.263 55.698, 79.724 54, 77.622 54 C 76.865 54, 75.734 53.385, 75.110 52.633 C 73.489 50.679, 76.083 48.506, 77.925 50.274 C 78.959 51.266, 79.071 50.329, 78.516 45.362 C 77.747 38.488, 78.864 36.662, 82.063 39.557 C 83.867 41.190, 84.125 41.197, 85.829 39.655 C 86.835 38.745, 88.349 38, 89.194 38 C 90.039 38, 91.916 37.067, 93.365 35.927 L 96 33.855 96 16.927 L 96 0 48 0 L 0 0 0 72 M 96 89 L 96 144 109.082 144 L 122.163 144 120 140.500 C 118.810 138.575, 118.097 137, 118.414 137 C 118.732 137, 118.094 134.637, 116.996 131.750 C 115.564 127.981, 115.001 124.072, 115.001 117.890 C 115 105.537, 115.881 100.017, 117.740 100.730 C 120.012 101.602, 118.442 91.807, 115.218 85 C 110.768 75.602, 110.726 75.076, 114.109 71.223 C 116.988 67.944, 119 64.083, 119 61.836 C 119 61.268, 117.602 59.497, 115.894 57.901 C 113.709 55.860, 113.265 55, 114.394 55 C 115.885 55, 116.354 54.052, 115.750 52.257 C 115.612 51.848, 114.923 51.646, 114.218 51.808 C 113.365 52.004, 113.095 51.333, 113.410 49.801 C 114.696 43.563, 114.884 40.369, 114.045 39.040 C 113.252 37.785, 112.846 37.830, 111.156 39.359 C 109.267 41.068, 109.023 41.053, 104.908 38.953 C 102.552 37.751, 100.003 36.145, 99.241 35.384 C 98.480 34.623, 97.439 34, 96.929 34 C 96.368 34, 96 55.821, 96 89 M 76.351 61.527 C 75.262 64.365, 82.954 73.502, 84.426 71.119 C 85.146 69.955, 82.025 65.867, 80.932 66.542 C 79.943 67.153, 79.664 65.918, 79.961 62.250 C 80.171 59.652, 77.292 59.075, 76.351 61.527 M 112.650 64 C 113.158 66.540, 112.941 67, 111.232 67 C 109.390 67, 108 68.756, 108 71.082 C 108 73.116, 110.970 71.798, 113.896 68.465 C 117.754 64.071, 118.013 61, 114.525 61 C 112.308 61, 112.113 61.313, 112.650 64 M 87.583 72.866 C 87.152 73.563, 87.070 74.403, 87.400 74.733 C 88.295 75.628, 89.271 74.312, 88.787 72.862 C 88.449 71.846, 88.213 71.846, 87.583 72.866 M 102 73.417 C 102 74.287, 102.713 75, 103.583 75 C 105.349 75, 105.042 72.847, 103.188 72.229 C 102.534 72.011, 102 72.546, 102 73.417 M 80 118.559 C 80 119.416, 80.457 119.835, 81.016 119.490 C 81.575 119.144, 81.774 118.443, 81.457 117.931 C 80.600 116.544, 80 116.802, 80 118.559" stroke="none" fill="black" fill-rule="evenodd"/>
</svg>