<svg xmlns="http://www.w3.org/2000/svg" width="192" height="144" viewBox="0 0 192 144" version="1.1">
	<path d="M 161.260 12 C 158.929 13.616, 153.079 18.139, 148.260 22.051 C 143.442 25.963, 136.487 30.964, 132.805 33.163 C 129.123 35.363, 125.580 37.801, 124.933 38.581 C 123.157 40.721, 122.168 40.301, 121.816 37.259 C 121.426 33.876, 118.491 33.015, 117.697 36.051 C 117.201 37.947, 116.671 38.120, 113.180 37.530 C 108.204 36.690, 101.858 38.357, 98.266 41.449 C 95.842 43.536, 95.507 44.522, 95.553 49.415 C 95.617 56.185, 93.902 56.820, 92.249 50.640 C 90.504 44.116, 85.376 40, 78.994 40 L 74.059 40 71.411 34.403 C 67.260 25.629, 57.144 20.492, 47.980 22.504 C 39.940 24.270, 32.027 35.962, 32.010 46.102 C 31.998 52.800, 34.357 56.899, 40.851 61.463 C 44.561 64.071, 46.067 64.500, 51.501 64.500 C 58.316 64.500, 58.511 65.039, 53.250 69.316 C 52.013 70.322, 50.986 71.900, 50.968 72.823 C 50.951 73.745, 50.290 75.354, 49.500 76.397 C 47.541 78.985, 48.749 80.537, 51.081 78.427 C 52.625 77.030, 53.237 76.952, 54.494 77.995 C 55.670 78.971, 55.758 79.586, 54.874 80.651 C 53.990 81.717, 54.102 82.455, 55.362 83.847 C 56.263 84.843, 57 87.287, 57 89.280 C 57 93.846, 58.762 102.778, 60.262 105.812 C 61.128 107.564, 61.113 108.589, 60.202 110.048 C 58.803 112.288, 58.598 117.634, 59.881 118.426 C 61.139 119.204, 61.897 123.945, 60.866 124.583 C 59.604 125.363, 59.805 132.761, 61.110 133.568 C 62.200 134.242, 61.875 138.719, 60.478 142.250 C 60.071 143.280, 60.242 144, 60.893 144 C 61.502 144, 62 143.325, 62 142.500 C 62 141.675, 62.675 141, 63.500 141 C 64.325 141, 65 141.675, 65 142.500 C 65 143.325, 65.450 144, 66 144 C 67.479 144, 67.220 142.181, 65.272 138.884 C 63.857 136.488, 63.767 135.603, 64.772 133.993 C 66.489 131.244, 66.301 126.875, 64.346 124.084 C 63.039 122.218, 62.934 121.335, 63.846 119.875 C 65.264 117.605, 65.366 111.344, 64 110.500 C 63.450 110.160, 63 108.801, 63 107.480 C 63 105.485, 63.721 104.899, 67.250 104.027 C 69.588 103.449, 73.127 102.531, 75.116 101.988 C 80.062 100.637, 80.085 100.647, 78.920 103.710 C 78.260 105.446, 78.140 111.895, 78.586 121.639 C 79.242 135.999, 79.163 137.059, 77.175 140.429 L 75.067 144 103.413 144 L 131.759 144 135.630 139.327 C 141.923 131.727, 142.986 129.716, 142.993 125.400 C 143.001 120.690, 140.253 116.430, 132.116 108.538 C 125.959 102.566, 125.913 102.079, 129.974 86.158 C 134.530 68.300, 133.970 69.663, 135.994 71.494 C 137.597 72.945, 137.965 72.804, 140.705 69.683 C 146.848 62.687, 150.891 49.983, 148.060 46.572 C 145.816 43.868, 141.346 43.678, 137.031 46.103 C 130.622 49.705, 131.081 47.426, 138.054 41.018 C 142.538 36.897, 145.329 35.080, 147.223 35.047 C 150.675 34.987, 159.137 30.929, 158.700 29.544 C 158.519 28.970, 157.387 28.056, 156.185 27.513 C 153.429 26.268, 153.412 25.387, 156.130 24.676 C 157.567 24.300, 158.062 23.605, 157.653 22.537 C 157.272 21.544, 158.418 19.381, 160.730 16.728 C 166.742 9.828, 167.354 8.998, 166.405 9.032 C 165.907 9.049, 163.592 10.385, 161.260 12 M 87.027 67.471 C 82.932 71.830, 77.306 72.777, 69.349 70.448 C 67.562 69.925, 67.087 70.328, 66.536 72.836 C 66.114 74.758, 66.422 76.916, 67.385 78.778 C 68.321 80.589, 68.542 82.058, 67.964 82.636 C 66.790 83.810, 68.139 92.094, 69.500 92.072 C 72.741 92.020, 87.179 87.449, 88.347 86.105 C 89.114 85.222, 90.757 81.400, 91.998 77.611 C 94.052 71.344, 94.109 70.640, 92.628 69.812 C 91.732 69.311, 91 68.023, 91 66.950 C 91 64.339, 89.825 64.493, 87.027 67.471 M 61 115.469 C 61 117.252, 61.416 117.777, 62.500 117.362 C 63.325 117.045, 64 115.934, 64 114.893 C 64 113.852, 63.325 113, 62.500 113 C 61.572 113, 61 113.941, 61 115.469 M 108.667 119.667 C 107.452 120.881, 108.012 134.432, 109.350 136.192 C 110.425 137.607, 110.613 136.423, 110.496 128.954 C 110.360 120.185, 109.996 118.338, 108.667 119.667 M 123.707 120.734 C 122.113 123.570, 120.601 135, 121.821 135 C 122.314 135, 124.329 132.571, 126.301 129.603 C 129.622 124.600, 129.760 124.099, 128.192 122.755 C 125.597 120.530, 124.181 119.892, 123.707 120.734 M 62.250 126.662 C 60.482 127.376, 60.691 131, 62.500 131 C 63.433 131, 64 130.056, 64 128.500 C 64 127.125, 63.888 126.036, 63.750 126.079 C 63.612 126.122, 62.938 126.385, 62.250 126.662" stroke="none" fill="black" fill-rule="evenodd"/>
</svg>