<svg xmlns="http://www.w3.org/2000/svg" width="192" height="144" viewBox="0 0 192 144" version="1.1">
	<path d="M 84.476 4.155 C 80.228 7.885, 77.307 13.230, 76.393 18.945 C 75.727 23.110, 73.840 24.993, 70.316 25.008 C 69.317 25.012, 67.943 26.215, 67.263 27.680 C 66.166 30.042, 66.314 30.723, 68.564 33.672 C 69.960 35.503, 71.727 37, 72.492 37 C 74.889 37, 75.050 38.667, 72.914 41.382 C 71.204 43.557, 71.121 44, 72.427 44 C 73.292 44, 74 44.675, 74 45.500 C 74 46.325, 74.450 47, 75 47 C 75.550 47, 76 47.480, 76 48.067 C 76 50.136, 81.262 56, 83.119 56 C 84.187 56, 85 56.701, 85 57.622 C 85 58.963, 85.265 59.025, 86.524 57.980 C 87.362 57.284, 88.362 57.029, 88.745 57.412 C 89.128 57.795, 88.877 58.458, 88.187 58.884 C 87.497 59.311, 87.202 60.363, 87.532 61.222 C 87.976 62.381, 86.933 63.242, 83.492 64.556 C 80.940 65.531, 77.778 67.173, 76.465 68.206 L 74.078 70.084 71.502 66.003 C 69.038 62.100, 68.765 61.955, 65.213 62.660 C 63.171 63.065, 58.918 63.379, 55.762 63.357 C 50.652 63.322, 48.517 62.542, 36.224 56.221 L 22.424 49.124 14.962 53.593 C 10.858 56.052, 5.813 58.570, 3.750 59.190 L 0 60.317 0.030 66.408 C 0.050 70.395, 0.365 71.982, 0.940 71 C 1.424 70.175, 1.784 69.275, 1.741 69 C 1.517 67.577, 4.184 64.185, 5.875 63.743 C 7.575 63.298, 7.706 63.561, 6.942 65.868 C 5.747 69.481, 4.244 87, 5.130 87 C 5.524 87, 8.591 82.841, 11.946 77.758 L 18.045 68.516 17.397 62.794 C 16.785 57.381, 16.884 57.010, 19.236 55.938 C 21.221 55.034, 22.366 55.138, 24.908 56.453 L 28.094 58.100 25.547 61.127 C 23.461 63.606, 23 65.199, 23 69.930 C 23 77.930, 24.133 88, 25.032 88 C 25.444 88, 27.679 83.276, 29.999 77.502 C 34.087 67.332, 34.324 65.614, 32.353 60.478 C 31.807 59.056, 32.100 58.892, 34.099 59.501 C 35.419 59.903, 37.943 61.313, 39.707 62.634 L 42.915 65.037 40.457 68.658 C 37.660 72.780, 37.634 73.054, 39.023 83.678 C 41.024 98.992, 41.141 99.010, 46.063 84.774 C 49.048 76.143, 49.305 74.596, 48.352 71.024 L 47.278 67 54.139 67 C 57.913 67, 61 67.205, 61 67.456 C 61 67.706, 59.841 69.619, 58.424 71.706 C 56.750 74.172, 56.010 76.375, 56.312 78 C 58.190 88.121, 60.414 97.642, 61.071 98.377 C 61.502 98.860, 62.358 97.384, 62.974 95.097 C 63.590 92.810, 64.498 91.190, 64.993 91.496 C 65.504 91.811, 65.333 93.662, 64.598 95.776 C 63.885 97.824, 62.530 102.685, 61.586 106.577 L 59.869 113.654 49.585 120.327 C 43.929 123.997, 38.895 126.985, 38.400 126.967 C 37.905 126.949, 35.700 125.118, 33.500 122.897 C 28.330 117.679, 26.135 116.459, 24.643 117.975 C 23.783 118.847, 23.983 119.491, 25.446 120.571 C 28.192 122.597, 26.547 123.649, 19.500 124.376 C 13.066 125.038, 11.441 124.534, 10.866 121.697 C 10.319 119.001, 8.833 119.491, 7.429 122.830 C 6.281 125.560, 6.456 126.203, 9.618 130.898 C 11.588 133.825, 13.809 136, 14.827 136 C 15.802 136, 17.092 136.492, 17.693 137.093 C 18.483 137.883, 19.352 137.882, 20.832 137.090 C 22.361 136.271, 24.472 136.371, 29.189 137.483 C 38.737 139.734, 40.508 139.437, 50.910 133.844 C 66.606 125.404, 69.321 122.553, 72.075 111.617 C 73.662 105.314, 74.624 105.105, 75.392 110.897 C 76.466 118.992, 74.974 129.840, 71.816 136.894 C 70.242 140.411, 69.122 143.456, 69.327 143.661 C 69.532 143.866, 81.657 143.913, 96.272 143.767 L 122.845 143.500 119.846 136.500 C 117.420 130.837, 116.748 127.615, 116.324 119.629 C 115.951 112.591, 116.116 109.954, 116.900 110.438 C 117.505 110.812, 118 111.529, 118 112.032 C 118 112.534, 119.129 115.330, 120.509 118.245 C 123.319 124.179, 126.191 126.388, 142.257 134.972 C 151.676 140.005, 152.110 140.131, 157.724 139.441 C 160.901 139.051, 164.595 138.322, 165.934 137.821 C 167.547 137.217, 169.362 137.322, 171.318 138.132 C 173.838 139.176, 174.447 139.109, 175.494 137.677 C 176.169 136.755, 177.675 136, 178.841 136 C 180.333 136, 181.151 135.185, 181.600 133.250 C 181.951 131.738, 182.875 129.479, 183.654 128.232 C 184.809 126.381, 184.850 125.232, 183.876 121.982 C 182.470 117.287, 181.578 117.018, 179.795 120.750 C 178.603 123.245, 177.919 123.527, 172.399 123.794 C 167.709 124.020, 166.004 123.709, 164.946 122.435 C 163.771 121.019, 163.820 120.605, 165.288 119.532 C 167.497 117.916, 167.488 116, 165.271 116 C 164.321 116, 161.283 118.494, 158.521 121.542 L 153.500 127.083 141.799 120.292 L 130.098 113.500 128.952 108.125 C 128.322 105.169, 126.946 100.248, 125.893 97.190 C 124.391 92.824, 124.251 91.460, 125.240 90.836 C 126.115 90.284, 126.806 91.079, 127.500 93.439 C 128.765 97.737, 129.669 98.649, 130.362 96.325 C 131.657 91.985, 134.121 76.667, 133.921 74.199 C 133.387 67.619, 136.091 64, 141.541 64 C 143.705 64, 144.071 64.333, 143.466 65.750 C 141.496 70.356, 141.918 73.259, 146.049 83.506 C 148.395 89.325, 150.660 93.729, 151.082 93.293 C 151.504 92.857, 152.164 87.312, 152.547 80.972 C 153.243 69.463, 153.240 69.439, 150.551 66.242 C 149.069 64.482, 148.137 62.587, 148.480 62.032 C 149.287 60.727, 157.966 55.633, 158.490 56.157 C 158.710 56.376, 158.496 58.302, 158.015 60.435 C 157.222 63.951, 157.602 65.236, 162.079 74.157 C 164.796 79.571, 167.464 84, 168.009 84 C 168.605 84, 169 79.505, 169 72.723 C 169 61.661, 168.944 61.385, 166.084 58.253 L 163.167 55.060 166.610 52.932 C 169.870 50.917, 170.187 50.892, 172.590 52.467 C 174.925 53.997, 175.079 54.544, 174.522 59.315 L 173.917 64.500 181.198 73.482 C 189.336 83.521, 189.976 83.334, 187.557 71.624 C 185.566 61.983, 185.556 59.892, 187.505 60.640 C 189.011 61.218, 191.466 65.740, 192.316 69.500 C 192.565 70.600, 192.820 68.774, 192.884 65.441 C 193.018 58.463, 191.992 56.693, 186.879 55.075 C 184.887 54.445, 180.299 52.146, 176.683 49.965 C 173.068 47.784, 169.668 46, 169.127 46 C 167.906 46, 156.913 51.726, 151.372 55.248 C 147.050 57.994, 140.461 61, 138.761 61 C 138.214 61, 138.020 60.032, 138.329 58.850 C 138.638 57.667, 138.465 54.452, 137.944 51.704 C 137.292 48.266, 137.335 46.302, 138.081 45.403 C 138.677 44.684, 138.880 43.197, 138.531 42.098 C 138.182 40.999, 138.595 38.750, 139.448 37.100 C 140.302 35.449, 141 31.807, 141 29.004 C 141 24.928, 140.509 23.418, 138.545 21.455 C 135.605 18.514, 134.525 18.438, 129.814 20.840 L 126.204 22.680 125.618 19.011 C 124.871 14.339, 121.362 9.115, 117.427 6.818 C 113.131 4.308, 99.506 1.034, 93.285 1.015 C 88.847 1.002, 87.534 1.471, 84.476 4.155 M 122.250 42.498 C 119.740 46.374, 119.407 49.007, 121.200 50.800 C 122.133 51.733, 121.911 52, 120.200 52 C 118.646 52, 118 52.604, 118 54.059 C 118 55.191, 117.591 55.865, 117.090 55.556 C 115.694 54.693, 113 56.044, 113 57.607 C 113 58.373, 112.535 59, 111.968 59 C 111.400 59, 110.580 59.961, 110.145 61.136 C 109.396 63.161, 109.290 63.115, 108.105 60.254 L 106.855 57.236 104.350 59.741 C 101.542 62.549, 101.920 63.254, 107.129 64.917 C 109.125 65.554, 111.557 66.958, 112.534 68.038 C 113.511 69.117, 114.647 70, 115.060 70 C 115.472 70, 116.997 67.975, 118.447 65.500 C 119.951 62.934, 121.823 61, 122.804 61 C 124.309 61, 124.557 59.628, 124.798 50 C 124.949 43.950, 124.944 39.006, 124.787 39.012 C 124.629 39.019, 123.487 40.588, 122.250 42.498 M 90 49.886 C 90 50.708, 95.023 53.310, 95.565 52.769 C 95.733 52.600, 94.550 51.704, 92.935 50.778 C 91.321 49.851, 90 49.450, 90 49.886 M 0.320 66 C 0.320 69.575, 0.502 71.037, 0.723 69.250 C 0.945 67.463, 0.945 64.537, 0.723 62.750 C 0.502 60.962, 0.320 62.425, 0.320 66 M 121.299 69.904 C 119.639 72.011, 119.381 72.981, 120.249 73.849 C 121.965 75.565, 122.717 75.263, 123.387 72.593 C 123.720 71.269, 124.267 69.469, 124.603 68.593 C 125.560 66.098, 123.723 66.827, 121.299 69.904 M 65.522 69.750 C 65.926 70.713, 66.477 72.513, 66.745 73.750 C 67.315 76.379, 69.505 76.733, 70.421 74.345 C 70.809 73.334, 70.199 71.776, 68.854 70.345 C 66.260 67.583, 64.477 67.265, 65.522 69.750 M 124 85.441 C 124 86.298, 124.450 87, 125 87 C 125.550 87, 126 86.577, 126 86.059 C 126 85.541, 125.550 84.840, 125 84.500 C 124.450 84.160, 124 84.584, 124 85.441" stroke="none" fill="black" fill-rule="evenodd"/>
</svg>