<svg xmlns="http://www.w3.org/2000/svg" width="192" height="144" viewBox="0 0 192 144" version="1.1">
	<path d="M 0 25.598 L 0 51.197 3.428 48.348 C 5.313 46.782, 6.888 45.038, 6.928 44.473 C 6.968 43.908, 8.238 42.304, 9.750 40.909 C 11.263 39.514, 14.059 35.801, 15.964 32.657 C 19.833 26.272, 31.082 14.415, 37.379 10.084 C 39.645 8.525, 44.575 5.618, 48.333 3.625 L 55.166 0 27.583 0 L 0 0 0 25.598 M 136.635 6.250 C 139.908 9.688, 143.526 13.850, 144.675 15.500 C 149.882 22.979, 157 36.891, 157 39.591 C 157 40.328, 157.760 42.526, 158.689 44.474 C 159.930 47.077, 160.843 47.867, 162.135 47.457 C 163.549 47.008, 164.197 47.923, 165.446 52.131 C 166.301 55.009, 167.007 58.294, 167.015 59.432 C 167.043 63.158, 168.413 64.201, 172.318 63.468 C 174.304 63.096, 176.433 62.183, 177.050 61.440 C 177.937 60.371, 178.570 60.339, 180.085 61.285 C 182.536 62.816, 182.838 72.060, 180.500 74 C 179.675 74.685, 179 75.639, 179 76.121 C 179 76.846, 174.182 82.289, 165 91.937 C 164.175 92.804, 161.063 96.886, 158.085 101.007 C 148.459 114.328, 136.757 124.106, 124.500 129.070 C 118.958 131.314, 117.201 131.499, 101.500 131.491 C 86.727 131.484, 83.624 131.196, 77.811 129.292 C 58.888 123.098, 42.725 110.216, 34.784 95 C 31.112 87.963, 30.782 87.814, 32.560 94 C 33.354 96.762, 38.003 106.924, 39.193 108.500 C 44.902 116.059, 50.872 122.549, 54.055 124.655 C 56.225 126.091, 58 127.431, 58 127.633 C 58 130.179, 47.406 121.160, 41.572 113.647 C 36.542 107.169, 30.429 95.803, 29.009 90.286 L 28.034 86.500 28.509 90.627 C 29.188 96.522, 33.875 107.460, 38.878 114.824 C 43.954 122.294, 55.395 134.673, 57.982 135.494 C 59.467 135.966, 59.702 136.799, 59.267 140.043 L 58.735 144.014 125.617 143.757 L 192.500 143.500 192.831 134 C 193.013 128.775, 192.846 96.487, 192.461 62.250 L 191.760 0 161.221 0 L 130.683 0 136.635 6.250 M 1 105 L 1 144 26.500 144 L 52 144 52 140 C 52 137.710, 51.520 136, 50.878 136 C 48.592 136, 36.639 125.292, 31.901 119 C 27.043 112.548, 20.198 100.067, 19.511 96.408 C 19.314 95.358, 19.062 94.388, 18.952 94.250 C 18.841 94.112, 18.662 93.662, 18.555 93.250 C 18.448 92.838, 17.859 90.700, 17.246 88.500 C 16.633 86.300, 15.889 82.874, 15.593 80.886 C 15.297 78.899, 14.591 76.055, 14.025 74.567 C 13.111 72.163, 12.829 72.028, 11.498 73.359 C 10.674 74.183, 10 75.789, 10 76.929 C 10 78.068, 9.622 79, 9.161 79 C 8.468 79, 5.944 74.828, 5.529 73 C 5.255 71.787, 1.902 66, 1.474 66 C 1.213 66, 1 83.550, 1 105 M 27.079 83.583 C 27.127 84.748, 27.364 84.985, 27.683 84.188 C 27.972 83.466, 27.936 82.603, 27.604 82.271 C 27.272 81.939, 27.036 82.529, 27.079 83.583 M 61.483 130.973 C 61.750 131.405, 62.876 131.996, 63.986 132.286 C 65.095 132.576, 65.784 132.460, 65.517 132.027 C 65.250 131.595, 64.124 131.004, 63.014 130.714 C 61.905 130.424, 61.216 130.540, 61.483 130.973" stroke="none" fill="black" fill-rule="evenodd"/>
</svg>