<svg xmlns="http://www.w3.org/2000/svg" width="192" height="144" viewBox="0 0 192 144" version="1.1">
	<path d="M 42.270 1.876 C 40.240 3.902, 41.100 8.324, 43.750 9.487 C 46.250 10.584, 46.452 11.288, 45.028 13.948 C 44.360 15.195, 44.561 17.919, 45.669 22.633 C 47.715 31.344, 47.755 35.489, 45.813 37.727 C 44.967 38.702, 43.999 40.962, 43.662 42.750 C 43.168 45.375, 43.375 46, 44.737 46 C 45.666 46, 47.387 44.793, 48.563 43.319 L 50.701 40.637 52.351 47.941 C 54.901 59.234, 54.799 59.668, 47.500 68.550 C 38.501 79.501, 31.100 85.893, 23.210 89.532 C 18.969 91.487, 13.925 94.344, 12 95.881 C 10.075 97.418, 7.582 99.164, 6.460 99.760 C 3.135 101.529, 1.465 105.530, 2.814 108.491 C 3.443 109.871, 4.619 111, 5.429 111 C 6.238 111, 7.260 111.578, 7.700 112.284 C 8.465 113.512, 17.575 117.548, 25 119.948 C 28.114 120.954, 47.799 122.918, 55.377 122.977 C 58.236 123, 58.251 123.033, 57.760 128.146 C 57.398 131.913, 56.673 133.738, 55.053 134.960 C 53.192 136.364, 52.950 137.216, 53.531 140.315 L 54.223 144 61.912 144 L 69.601 144 72.477 139.450 C 76.471 133.132, 77.197 133.033, 76.417 138.913 L 75.742 144 79.832 144 L 83.922 144 84.211 135.250 L 84.500 126.500 90.195 126.202 C 95.432 125.927, 96.033 126.121, 97.657 128.600 C 98.710 130.206, 99.588 133.870, 99.830 137.664 L 100.235 144.031 127.867 143.766 L 155.500 143.500 155.813 136.500 C 155.986 132.650, 155.373 123.458, 154.452 116.073 C 153.446 108, 153.010 99.825, 153.361 95.573 C 155.758 66.456, 155.191 51.873, 151.340 43.655 C 144.090 28.180, 137.993 24.282, 122.548 25.245 C 112.900 25.847, 107.586 28.182, 103.275 33.712 C 99.607 38.419, 96.823 44, 98.144 44 C 98.689 44, 98.860 44.867, 98.523 45.927 C 97.702 48.515, 100.508 55, 102.449 55 C 104.431 55, 104.454 57.378, 102.488 59.010 C 101.569 59.773, 101.315 60.704, 101.840 61.383 C 102.315 61.997, 103.534 64.862, 104.549 67.750 C 105.565 70.638, 106.955 73, 107.639 73 C 109.264 73, 110.506 75.042, 109.378 75.862 C 108.895 76.213, 108.466 78.184, 108.425 80.241 C 108.384 82.299, 108.125 84.208, 107.849 84.484 C 107.573 84.760, 105.582 84.142, 103.424 83.111 C 101.266 82.079, 97.925 80.913, 96 80.519 C 88.313 78.948, 88 78.343, 88 65.049 C 88 58.502, 88.478 49.705, 89.063 45.501 C 89.900 39.482, 89.852 37.527, 88.837 36.304 C 88.128 35.449, 87.683 33.456, 87.849 31.875 L 88.151 29 81.075 29 C 75.453 29, 74 28.692, 74 27.500 C 74 26.372, 75.209 26, 78.878 26 C 83.730 26, 86.848 24.182, 85.563 22.102 C 85.228 21.559, 82.959 20.816, 80.522 20.451 C 77.279 19.965, 75.616 19.078, 74.321 17.143 C 73.348 15.689, 72.504 14.275, 72.444 14 C 72.050 12.166, 70.754 6.916, 69.914 3.750 C 69.014 0.356, 68.600 -0, 65.553 -0 C 62.680 -0, 62.264 0.293, 62.710 2 C 63.085 3.432, 62.741 4, 61.500 4 C 60.247 4, 59.915 3.434, 60.301 1.956 C 60.813 -0.002, 60.472 -0.076, 52.242 0.206 C 46.626 0.398, 43.171 0.977, 42.270 1.876 M 75 35.469 C 75 36.346, 75.675 38.680, 76.500 40.654 C 78.680 45.872, 78.433 47, 75.107 47 C 67.968 47, 70.406 60.929, 78.855 68.411 C 80.041 69.461, 81.224 70.109, 81.484 69.850 C 81.917 69.417, 82.049 46.152, 81.665 38 C 81.515 34.823, 81.200 34.471, 78.250 34.187 C 75.810 33.951, 75 34.271, 75 35.469" stroke="none" fill="black" fill-rule="evenodd"/>
</svg>