<svg xmlns="http://www.w3.org/2000/svg" width="192" height="144" viewBox="0 0 192 144" version="1.1">
	<path d="M 127.450 55.840 C 126.927 56.302, 124.925 57.285, 123 58.025 C 118.581 59.725, 93.013 73.651, 85.569 78.412 C 82.485 80.386, 79.632 82.013, 79.231 82.028 C 78.829 82.043, 76.732 83.393, 74.572 85.028 C 72.411 86.663, 70.221 88, 69.704 88 C 69.187 88, 67.226 89.350, 65.347 91 C 63.468 92.650, 61.496 94, 60.965 94 C 60.434 94, 60 94.661, 60 95.469 C 60 96.449, 60.582 96.720, 61.750 96.285 C 62.712 95.926, 61.762 97.386, 59.637 99.529 C 57.513 101.672, 56.281 103.594, 56.900 103.800 C 58.203 104.234, 61.802 102.224, 83 89.220 C 109.531 72.944, 118.958 66.842, 122.087 63.918 C 123.749 62.366, 126.659 60.137, 128.555 58.966 C 130.450 57.795, 132 56.424, 132 55.918 C 132 54.768, 128.726 54.712, 127.450 55.840" stroke="none" fill="black" fill-rule="evenodd"/>
</svg>