<svg xmlns="http://www.w3.org/2000/svg" width="192" height="144" viewBox="0 0 192 144" version="1.1">
	<path d="M 0 40.564 L 0 81.128 3.831 78.975 C 7.507 76.909, 10.317 74.607, 18.039 67.338 L 21.577 64.007 29.539 67.396 C 33.917 69.259, 40.425 72.182, 44 73.891 C 50.892 77.186, 56.536 77.812, 63.042 76.005 C 65.240 75.394, 67.790 75.366, 69.760 75.931 C 72.712 76.778, 73.087 76.595, 75.107 73.326 C 78.082 68.513, 81.159 65.591, 84.870 64.054 C 87.105 63.128, 88 62.094, 88 60.438 C 88 57.320, 86.312 56.442, 85.463 59.118 C 84.993 60.597, 84.547 60.886, 84.029 60.047 C 83.615 59.377, 82.917 58.980, 82.477 59.165 C 82.038 59.349, 81.159 57.925, 80.525 56 C 79.764 53.691, 78.267 51.937, 76.125 50.847 C 74.302 49.918, 73.344 48.906, 73.939 48.538 C 75.944 47.298, 74.994 46.090, 71.500 45.434 C 69.575 45.073, 68 44.549, 68 44.271 C 68 43.992, 69.317 42.264, 70.926 40.432 C 73.529 37.467, 73.842 36.403, 73.763 30.800 C 73.661 23.617, 75.559 18.990, 79.727 16.259 C 81.924 14.820, 84.660 14.500, 94.782 14.500 L 107.153 14.500 110.798 18.477 C 113.402 21.319, 115.109 22.367, 116.777 22.148 C 123.675 21.244, 130.757 33.171, 127.363 39.974 C 126.175 42.357, 126.120 44.023, 127.053 49.385 C 127.932 54.428, 127.906 56.759, 126.942 59.700 C 124.196 68.077, 120.470 70.389, 117.998 65.250 C 117.270 63.737, 116.397 57.550, 116.057 51.500 C 115.480 41.239, 115.345 40.687, 114.047 43.277 C 113.014 45.336, 112.946 46.346, 113.780 47.180 C 115.291 48.691, 113.359 52.352, 111.439 51.615 C 109.840 51.001, 108 53.848, 108 56.934 C 108 58.070, 107.550 59, 107 59 C 106.450 59, 106 59.702, 106 60.559 C 106 61.416, 105.550 61.840, 105 61.500 C 104.450 61.160, 104 59.684, 104 58.219 L 104 55.556 101.861 57.695 C 99.222 60.333, 99.967 62.716, 103.707 63.602 C 107.757 64.560, 112.270 68.229, 114.504 72.378 C 116.059 75.265, 116.857 75.857, 118.475 75.320 C 119.589 74.950, 122.300 74.804, 124.500 74.996 C 135.735 75.971, 138.577 75.478, 145.650 71.322 C 153.191 66.890, 163.570 62, 165.434 62 C 166.089 62, 167.948 63.397, 169.563 65.105 C 173.928 69.720, 189.731 80, 192.460 80 C 192.757 80, 193 62, 193 40 L 193 0 96.500 0 L 0 0 0 40.564 M 0.456 41 C 0.456 63.275, 0.588 72.388, 0.749 61.250 C 0.910 50.113, 0.910 31.888, 0.749 20.750 C 0.588 9.613, 0.456 18.725, 0.456 41 M 160.250 68.175 C 157.762 69.713, 157 70.882, 157 73.158 C 157 77.524, 155.845 79.092, 147.895 85.516 C 141.088 91.015, 140.739 91.175, 141.413 88.489 C 141.979 86.235, 141.856 85.857, 140.813 86.655 C 130.823 94.297, 126.812 97.145, 126.493 96.826 C 125.976 96.309, 132.263 82.593, 133.949 80.562 C 135.778 78.357, 134.518 77.432, 131.250 78.581 C 129.602 79.161, 128.500 80.312, 128.441 81.517 C 128.386 82.608, 128.265 84.195, 128.171 85.045 C 128.077 85.894, 125.750 88.305, 123 90.402 C 116.941 95.023, 116.840 95.985, 120.999 109.497 C 122.649 114.856, 125.217 124.817, 126.706 131.634 L 129.414 144.028 160.957 143.764 L 192.500 143.500 192.640 114.214 L 192.780 84.928 188.930 82.964 C 186.812 81.884, 184.854 81, 184.578 81 C 184.303 81, 183.592 82.801, 182.999 85.003 C 182.323 87.516, 180.913 89.647, 179.211 90.730 C 177.720 91.678, 176.275 92.693, 176 92.986 C 174.502 94.582, 166.722 99.074, 165.920 98.807 C 165.403 98.634, 167.053 94.952, 169.586 90.623 C 172.886 84.986, 175.017 82.442, 177.097 81.657 C 178.693 81.055, 180 80.297, 180 79.973 C 180 78.953, 171.200 73.134, 170.586 73.748 C 170.264 74.070, 170 75.404, 170 76.712 C 170 78.020, 168.946 80.083, 167.659 81.295 C 162.080 86.548, 154.884 92.126, 154.072 91.826 C 153.587 91.647, 154.947 87.800, 157.093 83.277 C 159.930 77.298, 161.798 74.639, 163.934 73.534 C 167.944 71.461, 168.503 70.213, 166.443 67.937 C 164.353 65.627, 164.372 65.627, 160.250 68.175 M 19.523 71.250 C 18.031 73.361, 18.070 73.593, 20.162 75 C 21.388 75.825, 23.153 77.175, 24.084 78 C 25.906 79.616, 32.444 97, 31.230 97 C 30.827 97, 27.235 93.896, 23.249 90.102 C 16.858 84.020, 16 82.776, 16 79.587 L 16 75.970 11.057 79.735 C 8.338 81.806, 6.106 83.725, 6.095 84 C 6.085 84.275, 7.466 85.400, 9.163 86.500 C 11.002 87.692, 12.824 90.116, 13.671 92.500 C 16.534 100.554, 17.916 105.418, 17.467 105.866 C 17.215 106.118, 13.969 103.439, 10.254 99.913 C 5.006 94.930, 3.230 92.497, 2.288 89 C 1.193 84.931, 1.110 85.650, 1.419 96.500 C 1.607 103.100, 2.110 109.583, 2.538 110.906 C 3.093 112.624, 2.984 113.108, 2.158 112.597 C 1.299 112.067, 1 116.033, 1 127.941 L 1 144 35.342 144 L 69.685 144 72.480 134.750 C 74.018 129.662, 76.279 123.025, 77.506 120 C 78.983 116.357, 79.787 112.137, 79.886 107.500 L 80.036 100.500 77.742 104.490 C 75.866 107.752, 73.628 109.435, 65.474 113.716 C 56.023 118.678, 55.107 118.952, 48 118.954 C 39.636 118.956, 37.661 117.968, 34.097 112 C 31.780 108.119, 31.616 107.155, 32.925 105.088 C 33.684 103.888, 34.058 103.915, 35.409 105.266 C 36.284 106.141, 37 107.231, 37 107.688 C 37 108.824, 41.056 111.277, 41.764 110.569 C 42.077 110.256, 41.753 110, 41.044 110 C 40 110, 40.004 109.700, 41.063 108.424 C 42.578 106.599, 47.843 107.205, 52.046 109.687 C 54.478 111.123, 54.885 110.989, 61.046 106.742 C 64.596 104.295, 67.446 101.605, 67.380 100.763 C 67.315 99.921, 65.580 96.700, 63.526 93.606 C 60.442 88.959, 59.858 87.285, 60.172 83.990 L 60.553 80 56.121 80 C 51.970 80, 51.789 80.111, 53.259 81.750 C 55.059 83.759, 60.345 99.464, 59.786 101.143 C 59.581 101.758, 56.356 98.845, 52.619 94.670 C 46.651 88.001, 45.806 86.564, 45.663 82.845 C 45.521 79.153, 45.060 78.354, 42.067 76.606 C 38.698 74.640, 38.648 74.639, 39.436 76.551 C 42.576 84.171, 45.701 94.067, 45.087 94.446 C 44.681 94.697, 41.296 91.826, 37.565 88.065 C 31.640 82.095, 30.716 80.660, 30.275 76.744 C 29.834 72.835, 29.332 72.052, 26.351 70.630 C 21.923 68.519, 21.421 68.565, 19.523 71.250 M 144.860 75.673 C 143.986 76.678, 143.011 79.300, 142.695 81.500 L 142.119 85.500 144.617 80.674 C 147.308 75.476, 147.443 72.704, 144.860 75.673 M 117.105 80.373 C 116.478 81.129, 116.246 82.479, 116.590 83.373 C 117.273 85.153, 119 85.602, 119 84 C 119 83.450, 119.900 82.100, 121 81 L 123 79 120.622 79 C 119.315 79, 117.732 79.618, 117.105 80.373 M 66.826 82.314 C 68.022 83.587, 69 85.252, 69 86.014 C 69 87.042, 69.291 87.109, 70.127 86.273 C 70.763 85.637, 70.973 84.027, 70.608 82.573 C 70.117 80.617, 69.325 80, 67.307 80 L 64.651 80 66.826 82.314 M 188.044 89.250 C 184.600 93.239, 178.063 103.921, 178.793 104.370 C 179.182 104.609, 182.303 103.161, 185.729 101.152 L 191.959 97.500 191.979 92.250 C 192.002 86.527, 191.033 85.788, 188.044 89.250 M 111.116 111.290 C 111.052 113.374, 111.849 116.749, 112.888 118.790 C 113.926 120.830, 115.768 125.875, 116.981 130 C 119.401 138.230, 121 140.935, 121 136.799 C 121 135.368, 119.028 129.091, 116.618 122.849 C 114.208 116.607, 112.010 110.600, 111.734 109.500 C 111.442 108.338, 111.183 109.087, 111.116 111.290" stroke="none" fill="black" fill-rule="evenodd"/>
</svg>