<svg xmlns="http://www.w3.org/2000/svg" width="192" height="144" viewBox="0 0 192 144" version="1.1">
	<path d="M 63.755 4.805 C 65.071 18.500, 58.319 35.724, 47.835 45.412 C 35.421 56.884, 13.613 63.060, 1.750 58.464 C 0.100 57.825, 0 60.248, 0 100.902 L 0 144.018 52.727 143.759 L 105.455 143.500 106.559 137 C 107.167 133.425, 109.050 126.225, 110.745 121 C 112.439 115.775, 114.769 106.303, 115.921 99.951 C 118.448 86.027, 117.992 79.880, 114.250 77.428 C 112.112 76.027, 111.837 75.252, 112.287 71.900 C 112.574 69.755, 112.613 68, 112.373 68 C 112.132 68, 110.272 68.695, 108.238 69.545 C 104.851 70.960, 104.437 70.950, 103.321 69.425 C 102.473 68.265, 99.733 67.515, 94.302 66.957 C 90.011 66.516, 84.475 65.681, 82 65.102 C 76.098 63.721, 70.675 63.725, 69.287 65.113 C 67.813 66.587, 66 65.375, 66 62.916 C 66 60.445, 70.149 58.759, 74.373 59.515 C 83.104 61.075, 96.607 61.726, 98.500 60.678 C 99.600 60.069, 100.815 59.555, 101.200 59.535 C 101.585 59.516, 102.418 58.982, 103.051 58.349 C 103.842 57.558, 105.189 57.484, 107.351 58.112 C 111.435 59.298, 119 58.207, 119 56.432 C 119 55.694, 117.835 53.925, 116.410 52.501 C 114.986 51.077, 114.063 49.279, 114.359 48.507 C 114.676 47.681, 114.095 46.848, 112.951 46.485 C 110.516 45.712, 109.407 41.597, 110.806 38.526 C 111.608 36.766, 111.525 35.749, 110.465 34.350 C 109.694 33.332, 109.049 31.655, 109.032 30.621 C 109.003 28.932, 109.530 28.812, 114.250 29.428 C 119.517 30.116, 126.615 32.188, 130.109 34.058 C 132.485 35.330, 134.626 39.455, 135.548 44.535 C 135.944 46.716, 136.906 49.761, 137.686 51.302 C 138.466 52.843, 139.117 56.743, 139.133 59.970 C 139.154 64.305, 139.627 66.257, 140.946 67.451 C 142.221 68.605, 142.660 70.272, 142.481 73.283 C 142.343 75.603, 142.668 78.333, 143.204 79.350 C 144.790 82.364, 146.322 108.998, 145.068 111.751 C 144.162 113.739, 144.828 116, 149.358 126.302 C 152.307 133.011, 155.019 139.748, 155.385 141.272 L 156.049 144.045 174.275 143.772 L 192.500 143.500 192.825 129 C 193.003 121.025, 192.837 88.737, 192.455 57.250 L 191.761 0 127.527 -0 L 63.294 -0 63.755 4.805 M 0.459 101 C 0.459 124.925, 0.589 134.713, 0.749 122.750 C 0.908 110.788, 0.908 91.213, 0.749 79.250 C 0.589 67.288, 0.459 77.075, 0.459 101" stroke="none" fill="black" fill-rule="evenodd"/>
</svg>