<svg xmlns="http://www.w3.org/2000/svg" width="192" height="144" viewBox="0 0 192 144" version="1.1">
	<path d="M 0 72 L 0 144 40.352 144 L 80.704 144 81.548 135.750 C 82.749 124.010, 82.254 92.023, 80.829 89.261 C 79.683 87.040, 79.643 87.054, 75.990 91.011 C 71.734 95.621, 70.210 95.824, 61.161 92.987 C 57.674 91.894, 53.777 91, 52.500 91 C 51.145 91, 49.121 89.744, 47.639 87.983 C 45.909 85.926, 43.077 84.341, 38.743 83.002 C 32.375 81.035, 25.645 76, 29.385 76 C 30.338 76, 30.840 75.550, 30.500 75 C 30.160 74.450, 30.332 74, 30.882 74 C 31.432 74, 32.190 74.498, 32.566 75.107 C 33.043 75.879, 33.515 75.803, 34.125 74.857 C 34.858 73.720, 35.145 73.726, 35.899 74.896 C 36.394 75.663, 37.489 76.026, 38.334 75.702 C 39.179 75.378, 40.012 75.425, 40.185 75.806 C 40.901 77.385, 47.827 79.756, 50.327 79.278 C 51.940 78.970, 55.124 79.669, 58.261 81.020 C 68.660 85.500, 68.561 85.511, 71.971 79.550 C 73.637 76.639, 75 73.557, 75 72.701 C 75 71.846, 76.586 69.838, 78.525 68.240 C 80.464 66.642, 82.250 64.246, 82.494 62.917 C 82.738 61.588, 84.302 59.342, 85.969 57.927 C 89.349 55.058, 90.035 52.537, 87.190 53.440 C 84.990 54.138, 79.334 48.218, 79.815 45.720 C 80.023 44.643, 79.232 43.845, 77.532 43.419 C 76.101 43.059, 74.280 41.509, 73.486 39.973 C 72.234 37.552, 72.230 36.553, 73.459 32.470 C 74.239 29.880, 75.790 26.788, 76.906 25.600 C 78.168 24.257, 78.854 22.314, 78.718 20.469 C 78.508 17.607, 78.645 17.506, 82.536 17.668 C 86.227 17.822, 86.740 17.523, 88.541 14.168 C 89.624 12.151, 91.235 10.493, 92.120 10.485 C 93.005 10.477, 94.507 9.824, 95.459 9.034 C 96.996 7.759, 97.409 7.872, 99.164 10.049 C 102.189 13.802, 105.230 20.959, 104.551 22.728 C 104.203 23.636, 104.816 25.240, 105.988 26.488 C 109.063 29.761, 111.682 38.279, 113.400 50.599 C 114.388 57.679, 116.389 65.741, 118.971 73.041 C 122.948 84.286, 123.884 88.664, 122.071 87.544 C 120.732 86.716, 120.264 91.016, 121.334 94.324 C 122.002 96.390, 121.698 99.075, 120.202 104.324 C 119.076 108.271, 117.858 113.300, 117.493 115.500 C 117.129 117.700, 116.250 120.175, 115.540 121 C 113.949 122.849, 112.649 135.611, 113.558 140.458 L 114.227 144.023 153.363 143.762 L 192.500 143.500 192.757 71.750 L 193.013 0 96.507 0 L 0 0 0 72 M 0.474 72.500 C 0.474 112.100, 0.598 128.154, 0.750 108.176 C 0.901 88.198, 0.901 55.798, 0.750 36.176 C 0.598 16.554, 0.474 32.900, 0.474 72.500" stroke="none" fill="black" fill-rule="evenodd"/>
</svg>