<svg xmlns="http://www.w3.org/2000/svg" width="192" height="144" viewBox="0 0 192 144" version="1.1">
	<path d="M -0 72.005 L -0 144.010 96.250 143.755 L 192.500 143.500 192.757 71.750 L 193.013 0 148.002 0 L 102.990 0 103.076 5.750 C 103.154 11.040, 101.828 16.159, 97.894 25.750 C 97.161 27.538, 96.315 29, 96.014 29 C 95.712 29, 93.898 25.084, 91.983 20.297 C 89.301 13.595, 88.525 10.260, 88.611 5.797 L 88.721 0 44.361 0 L 0 0 -0 72.005 M 0.474 72.500 C 0.474 112.100, 0.598 128.154, 0.750 108.176 C 0.901 88.198, 0.901 55.798, 0.750 36.176 C 0.598 16.554, 0.474 32.900, 0.474 72.500 M 98.032 37.615 C 98.014 38.778, 97.062 40.923, 95.915 42.381 C 94.768 43.839, 93.415 46.534, 92.908 48.371 C 92.227 50.837, 90.670 52.528, 86.951 54.840 C 83.366 57.069, 81.358 59.198, 79.980 62.235 C 77.348 68.033, 77.432 69.359, 80.386 68.618 C 82.917 67.983, 85.657 70.128, 84.567 71.892 C 83.994 72.819, 88.794 71.864, 90.736 70.663 C 91.176 70.391, 91.660 75.042, 91.812 80.998 C 91.967 87.086, 91.672 92.085, 91.138 92.415 C 90.615 92.738, 90.396 93.798, 90.650 94.771 C 90.905 95.744, 89.933 100.273, 88.492 104.837 C 85.172 115.346, 85.633 118.303, 90.793 119.600 C 94.271 120.473, 94.487 120.754, 94.294 124.140 C 94.094 127.660, 94.191 127.762, 98.249 128.307 C 103.344 128.990, 104.174 128.543, 103.417 125.527 C 102.919 123.540, 103.421 122.901, 106.664 121.402 C 112.400 118.750, 115.377 116.162, 115.731 113.521 C 115.907 112.204, 114.522 108.351, 112.606 104.828 C 110.713 101.347, 108.477 96.138, 107.636 93.250 C 106.164 88.192, 106.179 88, 108.054 88 C 110.192 88, 110.758 84.285, 109.095 81.177 C 108.597 80.246, 108.034 77.463, 107.845 74.993 C 107.655 72.522, 107.102 70.211, 106.615 69.857 C 105.096 68.755, 110.205 66.714, 115.152 66.447 C 117.752 66.307, 120.316 65.923, 120.849 65.593 C 121.383 65.263, 122.648 65.281, 123.660 65.631 C 125.387 66.230, 125.384 66.179, 123.606 64.792 C 121.766 63.359, 121.780 63.268, 124.078 61.658 C 125.380 60.746, 127.293 60, 128.329 60 C 129.643 60, 130.029 59.517, 129.603 58.407 C 129.267 57.531, 128.728 55.764, 128.406 54.480 C 127.751 51.871, 122.717 49.440, 115.765 48.375 C 112.720 47.909, 110.604 46.761, 108.365 44.361 C 106.641 42.512, 104.278 41, 103.115 41 C 101.952 41, 101 40.636, 101 40.191 C 101 39.746, 100.339 38.509, 99.532 37.441 C 98.092 35.537, 98.063 35.540, 98.032 37.615 M 98.430 122.321 C 97.630 124.408, 98.630 125.770, 99.975 124.425 C 100.543 123.857, 100.558 122.903, 100.012 122.020 C 99.245 120.778, 99.005 120.824, 98.430 122.321" stroke="none" fill="black" fill-rule="evenodd"/>
</svg>