<svg xmlns="http://www.w3.org/2000/svg" width="192" height="144" viewBox="0 0 192 144" version="1.1">
	<path d="M 0 28.131 L 0 56.262 3.750 55.673 C 5.813 55.350, 11.080 53.267, 15.455 51.045 L 23.410 47.005 27.183 49.503 C 29.259 50.876, 31.226 52, 31.555 52 C 31.884 52, 35.381 54.146, 39.326 56.768 C 49.359 63.436, 51.008 64, 60.474 64 C 68.266 64, 68.996 64.179, 70.861 66.550 C 71.964 67.953, 73.026 69.579, 73.221 70.164 C 73.424 70.772, 75.187 70.134, 77.337 68.675 C 79.406 67.271, 82.651 65.610, 84.549 64.984 C 86.821 64.234, 88 63.216, 88 62.004 C 88 60.992, 88.303 59.374, 88.674 58.408 C 89.183 57.081, 88.959 56.802, 87.756 57.263 C 86.783 57.637, 85.919 57.230, 85.529 56.215 C 85.029 54.911, 84.718 54.837, 84.080 55.870 C 83.410 56.954, 82.894 56.951, 81.134 55.852 C 79.960 55.119, 79 54.060, 79 53.499 C 79 52.938, 77.875 51.266, 76.500 49.783 C 75.125 48.301, 74 46.618, 74 46.044 C 74 45.470, 73.325 45, 72.500 45 C 70.559 45, 70.603 44.096, 72.655 41.829 C 74.033 40.306, 74.064 40, 72.842 40 C 72.035 40, 70.116 38.687, 68.579 37.082 C 65.812 34.194, 65.802 34.139, 67.633 31.712 C 68.650 30.363, 70.724 28.547, 72.241 27.676 C 74.554 26.349, 75.012 25.398, 75.076 21.797 C 75.181 15.849, 76.958 11.489, 80.936 7.421 C 85.398 2.857, 87.408 2.481, 99.391 3.964 C 114.451 5.828, 119.161 8.355, 122.510 16.369 C 123.822 19.511, 124.346 19.958, 125.547 18.961 C 127.636 17.227, 132.479 19.451, 135.640 23.595 C 138.940 27.922, 140.566 37.909, 138.264 39.714 C 137.413 40.382, 136.295 41.068, 135.780 41.240 C 135.256 41.415, 135.784 45.239, 136.977 49.910 C 138.151 54.507, 138.856 58.933, 138.544 59.745 C 137.782 61.732, 142.699 60.559, 145.500 58.086 C 146.600 57.115, 150.425 54.376, 154 51.999 C 157.575 49.622, 161.719 46.850, 163.210 45.839 C 164.700 44.827, 166.362 44, 166.904 44 C 167.446 44, 171.333 45.570, 175.543 47.488 C 179.753 49.406, 185.065 51.478, 187.348 52.091 C 189.632 52.705, 191.831 53.723, 192.235 54.353 C 192.639 54.984, 192.976 43.013, 192.985 27.750 L 193 0 96.500 0 L 0 0 0 28.131 M 0.440 28.500 C 0.440 43.900, 0.579 50.060, 0.748 42.189 C 0.917 34.319, 0.917 21.719, 0.747 14.189 C 0.578 6.660, 0.439 13.100, 0.440 28.500 M 120.651 43.606 C 119.329 46.378, 119.199 47.534, 120.088 48.606 C 121.002 49.707, 120.879 50, 119.506 50 C 118.237 50, 117.914 50.562, 118.310 52.079 C 118.683 53.502, 118.452 54.004, 117.579 53.669 C 116.128 53.112, 109 59.069, 109 60.838 C 109 61.477, 108.550 62, 108 62 C 107.450 62, 106.986 60.763, 106.968 59.250 C 106.937 56.565, 106.899 56.547, 105.353 58.500 C 104.257 59.886, 103.627 60.116, 103.302 59.250 C 103.044 58.563, 102.083 58.007, 101.167 58.015 C 99.814 58.028, 99.763 58.197, 100.896 58.914 C 101.690 59.417, 102.017 60.514, 101.654 61.458 C 101.163 62.739, 102.224 63.651, 106.299 65.453 C 109.203 66.738, 112.206 68.544, 112.972 69.466 C 114.238 70.991, 114.793 70.675, 119.119 65.970 C 123.365 61.351, 123.768 60.520, 122.886 58.199 C 122.312 56.691, 122.183 52.325, 122.578 47.800 C 122.952 43.510, 123.058 40, 122.814 40 C 122.570 40, 121.597 41.623, 120.651 43.606 M 164.758 51.317 L 162.017 53.562 164.674 56.219 C 167.093 58.639, 167.400 59.840, 168.099 69.641 C 169.114 83.859, 168.145 85.260, 163.583 76.168 C 162.295 73.601, 160.246 69.524, 159.029 67.109 C 157.576 64.225, 156.939 61.434, 157.173 58.978 C 157.470 55.873, 157.258 55.345, 155.927 55.869 C 153.962 56.642, 148 61.631, 148 62.502 C 148 62.849, 149.125 64.608, 150.500 66.411 C 152.467 68.991, 153 70.862, 153 75.198 C 153 82.437, 151.876 93.003, 151.108 92.990 C 150.773 92.984, 148.541 88.414, 146.147 82.835 C 142.582 74.527, 141.905 71.994, 142.409 68.845 C 142.986 65.235, 142.869 65, 140.490 65 C 138.767 65, 137.597 65.789, 136.832 67.469 C 136.214 68.826, 135.253 69.656, 134.698 69.313 C 134.037 68.905, 133.960 69.868, 134.474 72.095 C 135.721 77.502, 134.675 98.007, 133.152 97.995 C 132.793 97.992, 130.537 92.961, 128.137 86.816 C 124.325 77.052, 123.903 75.222, 124.794 72.321 C 126.063 68.183, 124.440 67.838, 120.989 71.511 L 118.630 74.023 121.815 77.309 C 125.312 80.917, 125.604 82.061, 123.775 84.989 C 122.748 86.634, 122.855 87.174, 124.441 88.333 C 126.226 89.638, 126.233 89.770, 124.576 90.698 C 122.912 91.629, 122.925 92.016, 124.822 98.159 C 125.923 101.723, 127.129 106.677, 127.503 109.170 C 128.116 113.257, 128.589 113.892, 132.341 115.658 C 134.628 116.735, 139.828 119.381, 143.896 121.537 L 151.292 125.458 155.896 120.393 C 158.428 117.608, 161.273 115.049, 162.218 114.708 C 164.655 113.828, 165.658 116.046, 163.527 117.604 C 160.098 120.111, 162.422 122, 168.939 122 C 174.447 122, 175.122 121.754, 177.158 119 C 178.378 117.350, 179.692 116, 180.079 116 C 181.505 116, 181.588 123.419, 180.209 127.607 C 178.300 133.407, 173.710 136.174, 165 136.777 C 148.981 137.886, 149.487 137.985, 135.500 130.975 L 122.500 124.459 119.500 118.255 C 117.850 114.843, 116.152 112.039, 115.727 112.025 C 115.301 112.011, 115.234 115.713, 115.577 120.250 C 116.020 126.115, 117.111 130.736, 119.350 136.236 L 122.500 143.971 157.500 143.736 L 192.500 143.500 192.779 109 C 192.933 90.025, 192.832 73.570, 192.556 72.434 C 192.280 71.298, 191.142 69.317, 190.027 68.031 C 188.679 66.477, 188 64.278, 188 61.464 C 188 57.735, 187.701 57.176, 185.476 56.751 C 182.899 56.258, 181.477 57.148, 182.777 58.439 C 183.835 59.491, 185.945 78.367, 185.104 79.256 C 183.985 80.438, 172.669 62.841, 172.721 60 C 172.746 58.625, 173.014 56.267, 173.316 54.759 C 173.729 52.694, 173.333 51.646, 171.710 50.509 C 168.890 48.534, 168.035 48.634, 164.758 51.317 M 91 53 C 91.825 53.533, 92.950 53.969, 93.500 53.969 C 94.050 53.969, 93.825 53.533, 93 53 C 92.175 52.467, 91.050 52.031, 90.500 52.031 C 89.950 52.031, 90.175 52.467, 91 53 M 19.076 54.409 C 18.322 55.317, 18.135 57.536, 18.549 60.660 C 19.139 65.106, 18.899 65.914, 15.625 70.502 C 13.664 73.251, 11.316 76.970, 10.408 78.766 C 6.547 86.404, 5.384 83.264, 7.281 70.322 C 8.073 64.920, 8.592 60.346, 8.436 60.159 C 8.279 59.971, 7.217 60.114, 6.075 60.476 C 4.398 61.009, 4 61.961, 4 65.445 C 4 68.056, 3.409 70.246, 2.500 71 C 1.218 72.064, 1 77.451, 1 108.122 L 1 144 35.250 143.975 L 69.500 143.950 72.786 136.083 C 75.875 128.689, 76.055 127.607, 75.786 118.058 C 75.469 106.784, 75.485 106.781, 70.437 118.832 C 68.403 123.688, 64.736 126.550, 53 132.441 C 42.364 137.780, 41.052 138.044, 33.287 136.420 C 29.554 135.639, 25.318 135, 23.872 135 C 20.120 135, 14.020 132.240, 13.304 130.218 C 12.970 129.273, 11.996 127.686, 11.140 126.691 C 9.543 124.835, 9.400 119.200, 10.911 117.689 C 11.375 117.225, 12.755 118.251, 13.977 119.968 C 16.105 122.956, 16.464 123.078, 22.340 122.795 C 27.251 122.559, 28.547 122.150, 28.813 120.750 C 29.016 119.684, 28.532 119, 27.573 119 C 26.708 119, 26 118.325, 26 117.500 C 26 114.386, 30.480 116.042, 35.520 121.020 L 40.604 126.040 48.552 121.256 C 52.923 118.625, 57.651 115.965, 59.057 115.345 C 61.210 114.397, 61.810 113.155, 62.855 107.485 C 63.537 103.782, 64.724 98.927, 65.493 96.696 C 66.721 93.132, 66.704 92.504, 65.355 91.517 C 63.978 90.511, 63.984 90.258, 65.410 89.075 C 67.388 87.433, 67.460 85.390, 65.566 84.664 C 64.527 84.265, 63.388 86.094, 61.431 91.307 C 59.946 95.263, 58.377 98.892, 57.945 99.371 C 57.101 100.305, 56.424 95.992, 55.517 83.927 C 54.993 76.948, 55.150 76.057, 57.524 72.560 C 58.940 70.473, 59.964 68.637, 59.799 68.479 C 59.635 68.322, 56.863 67.867, 53.640 67.468 L 47.781 66.742 48.498 70.986 C 48.924 73.510, 48.781 76.095, 48.143 77.365 C 47.554 78.539, 45.545 83.253, 43.678 87.841 C 41.663 92.792, 40.053 95.581, 39.716 94.703 C 39.404 93.890, 38.845 88.561, 38.473 82.862 C 37.815 72.776, 37.867 72.397, 40.437 68.649 C 43.441 64.267, 43.172 63.589, 37.068 60.158 L 33.022 57.885 33.624 62.275 C 34.160 66.186, 33.696 67.666, 29.370 75.833 C 26.699 80.875, 24.174 85, 23.757 85 C 23.341 85, 23 80.205, 23 74.344 C 23 64.357, 23.166 63.471, 25.651 60.213 L 28.303 56.737 25.901 54.891 C 23.014 52.671, 20.656 52.504, 19.076 54.409 M 65.558 72.750 C 65.984 74.263, 66.302 76.571, 66.264 77.880 L 66.195 80.259 68.798 77.657 L 71.400 75.055 69.026 72.527 C 65.911 69.212, 64.585 69.297, 65.558 72.750" stroke="none" fill="black" fill-rule="evenodd"/>
</svg>