<svg xmlns="http://www.w3.org/2000/svg" width="192" height="144" viewBox="0 0 192 144" version="1.1">
	<path d="M 70.250 11.392 C 72.830 13.351, 72.407 14, 68.547 14 C 63.653 14, 60.318 15.795, 58.039 19.658 C 56.862 21.653, 55.272 23, 54.093 23 C 51.283 23, 50.371 25.067, 52.496 26.620 C 53.943 27.679, 54.058 28.225, 53.081 29.402 C 51.821 30.921, 53.338 33.094, 57.338 35.500 C 59.794 36.977, 60.308 44.029, 58.372 49.699 C 57.471 52.340, 56.598 57.698, 56.433 61.606 C 56.161 68.021, 55.688 69.444, 51.566 76.233 C 49.055 80.369, 47 84.277, 47 84.916 C 47 85.556, 47.932 87.906, 49.070 90.138 C 51.043 94.004, 51.332 94.178, 55.155 93.814 L 59.169 93.431 58.725 96.966 C 58.481 98.909, 56.846 105.793, 55.091 112.262 C 52.056 123.457, 49.004 138.484, 49.001 142.250 C 49 143.863, 50.702 144, 70.755 144 L 92.511 144 91.797 131.750 C 91.404 125.012, 90.413 109.236, 89.595 96.690 C 88.778 84.145, 88.387 73.155, 88.728 72.267 C 89.068 71.379, 90.220 69.780, 91.286 68.714 C 92.710 67.290, 93.084 65.907, 92.695 63.506 C 92.172 60.287, 92.932 58.081, 96.363 52.848 L 98.102 50.195 91.801 45.421 C 88.335 42.795, 85.389 40.578, 85.253 40.493 C 84.308 39.905, 84.203 26.489, 85.130 24.757 C 86.131 22.887, 85.539 21.963, 79.737 16.328 C 75.401 12.119, 72.429 10.011, 70.860 10.032 C 68.685 10.061, 68.637 10.168, 70.250 11.392" stroke="none" fill="black" fill-rule="evenodd"/>
</svg>