<svg xmlns="http://www.w3.org/2000/svg" width="192" height="144" viewBox="0 0 192 144" version="1.1">
	<path d="M 53 1.040 C 53 2.732, 56.725 9.527, 58.427 10.939 C 60.635 12.772, 60.699 25, 58.500 25 C 57.252 25, 57 26.973, 57 36.757 C 57 43.223, 56.593 49.932, 56.096 51.665 C 55.335 54.320, 55.479 54.892, 57.013 55.293 C 59.818 56.027, 60.295 69.850, 57.728 76 C 56.695 78.475, 55.455 82.875, 54.973 85.779 C 54.490 88.682, 53.174 92.351, 52.048 93.933 C 50.922 95.515, 50 97.357, 50 98.027 C 50 98.697, 47.706 101.343, 44.901 103.908 C 40.356 108.065, 39.748 109.110, 39.302 113.536 C 39.026 116.266, 37.271 121.705, 35.401 125.623 C 33.530 129.540, 32 133.259, 32 133.886 C 32 135.001, 31.506 136.190, 29.156 140.736 C 28.520 141.966, 28 143.204, 28 143.486 C 28 143.769, 56.787 144, 91.971 144 L 155.943 144 156.881 140.750 L 157.820 137.500 157.910 140.750 L 158 144 175.120 144 L 192.240 144 191.579 137.750 C 190.806 130.450, 190.806 130.195, 191.599 118.750 L 192.205 110 185.754 110 L 179.303 110 177.177 101.750 C 176.008 97.212, 174.402 89.675, 173.608 85 C 171.684 73.666, 170.934 71.992, 165.721 67.403 C 162.084 64.202, 161.062 62.517, 160.135 58.193 C 159.511 55.283, 159.061 51.686, 159.136 50.201 C 159.255 47.844, 159.328 47.786, 159.706 49.750 C 159.944 50.988, 160.558 52, 161.070 52 C 162.288 52, 162.367 52.514, 159.522 41.884 C 158.159 36.790, 157.225 32.441, 157.448 32.219 C 157.670 31.996, 158.594 33.248, 159.500 35 C 162.037 39.907, 162.197 38.092, 159.989 29.457 C 157.437 19.478, 156.413 8.871, 157.768 6.450 C 158.421 5.282, 159.973 4.591, 162.020 4.556 C 164.211 4.518, 165.724 3.779, 166.744 2.250 L 168.244 0 110.622 0 C 71.402 0, 53 0.332, 53 1.040 M 70.642 34.750 C 70.301 36.813, 70.017 42.385, 70.011 47.133 C 70.001 54.921, 69.804 55.818, 68 56.290 C 66.330 56.726, 66 57.654, 66 61.906 C 66 64.708, 66.219 67, 66.487 67 C 67.586 67, 71.657 59.136, 73.216 54 C 77.025 41.458, 77.110 40.044, 74.344 35.323 C 72.950 32.945, 71.687 31, 71.536 31 C 71.385 31, 70.983 32.688, 70.642 34.750 M 152 58.500 C 152 59.325, 152.661 60, 153.469 60 C 154.363 60, 154.712 59.414, 154.362 58.500 C 154.045 57.675, 153.384 57, 152.893 57 C 152.402 57, 152 57.675, 152 58.500" stroke="none" fill="black" fill-rule="evenodd"/>
</svg>