<svg xmlns="http://www.w3.org/2000/svg" width="192" height="144" viewBox="0 0 192 144" version="1.1">
	<path d="M 99.750 10.459 C 96.840 13.968, 96.403 16.015, 97.947 18.902 C 98.668 20.248, 98.225 21.490, 96.101 24.086 C 92.125 28.944, 91.198 31.005, 90.482 36.577 C 89.963 40.621, 90.271 42.288, 92.209 45.913 C 94.583 50.353, 95.182 50.870, 100.288 52.889 C 102.686 53.837, 102.924 54.273, 101.997 56.005 C 101.091 57.698, 101.285 58.163, 103.210 58.920 C 104.469 59.416, 106.968 61.404, 108.762 63.338 C 111.626 66.424, 112.380 66.752, 114.937 66.018 C 116.539 65.559, 118.117 65.451, 118.445 65.778 C 119.241 66.574, 111.933 74, 110.354 74 C 109.672 74, 108.505 74.869, 107.761 75.931 C 105.739 78.818, 90.539 79.958, 85.564 77.597 C 82.385 76.089, 81.758 76.074, 79.112 77.442 C 77.500 78.276, 76.028 79.358, 75.840 79.847 C 75.653 80.336, 74.582 81.020, 73.461 81.368 C 71.736 81.903, 70.839 80.922, 67.641 75.002 C 63.851 67.984, 61.155 65.959, 57.480 67.369 C 54.626 68.464, 54.828 70.868, 58.304 77.188 C 60.629 81.416, 62.111 85.811, 62.792 90.500 C 64.052 99.180, 65.452 102.890, 67.735 103.600 C 68.706 103.901, 70.625 104.803, 72 105.604 C 73.375 106.404, 76.431 108.004, 78.791 109.159 C 81.161 110.319, 83.744 112.537, 84.559 114.115 C 85.371 115.685, 88.953 119.308, 92.518 122.164 C 96.083 125.021, 99 127.771, 99 128.275 C 99 128.779, 98.265 130.436, 97.366 131.958 C 96.143 134.027, 95.907 135.893, 96.427 139.362 L 97.123 144 122.561 144 C 142.538 144, 148 143.726, 148 142.723 C 148 141.201, 145.253 137.099, 142.829 135 C 140.939 133.364, 139 121.915, 139 112.396 C 139 108.466, 138.580 106.776, 137.500 106.362 C 134.321 105.142, 136.210 104.067, 140.500 104.655 C 143.554 105.074, 145 104.907, 145 104.136 C 145 103.511, 146.125 103, 147.500 103 C 148.875 103, 150 102.550, 150 102 C 150 101.450, 150.911 101, 152.025 101 C 153.302 101, 154.454 99.984, 155.144 98.250 C 155.927 96.283, 156.390 95.927, 156.769 97 C 157.061 97.825, 157.701 98.763, 158.192 99.085 C 158.711 99.425, 158.671 101.507, 158.098 104.058 C 156.957 109.138, 157.392 110.144, 159.555 107.427 C 160.970 105.650, 161.041 105.901, 160.466 110.642 C 160.053 114.046, 160.229 116.023, 160.986 116.491 C 161.615 116.880, 162.053 118.391, 161.959 119.849 C 161.696 123.930, 161.887 124.339, 163.450 123.041 C 164.687 122.015, 164.812 122.382, 164.300 125.541 L 163.699 129.243 166.304 127.536 L 168.909 125.829 168.092 128.681 C 167.525 130.656, 167.680 131.911, 168.595 132.766 C 170.430 134.481, 170.724 134.367, 172.526 131.250 C 174.089 128.545, 174.106 128.541, 173.561 131 C 173.256 132.375, 172.718 135.863, 172.365 138.750 L 171.725 144 181.862 144 L 192 144 192 110.586 L 192 77.172 185.510 73.543 C 178.197 69.453, 168.735 61.111, 164.535 55.051 C 162.991 52.823, 161.452 51.016, 161.114 51.036 C 160.776 51.055, 158.066 54.436, 155.090 58.548 C 148.975 67, 140.539 75.344, 138.716 74.744 C 137.383 74.306, 136.506 66.730, 137.491 64.164 C 137.990 62.862, 138.267 62.813, 138.942 63.906 C 140.293 66.091, 142 64.157, 142 60.441 C 142 56.712, 143.296 55.962, 144.920 58.750 C 145.730 60.140, 145.956 60.192, 146.020 59 C 146.065 58.175, 146.349 55.556, 146.652 53.179 C 147.102 49.649, 146.655 47.818, 144.209 43.179 C 142.562 40.056, 140.887 35.925, 140.485 34 C 140.084 32.075, 138.895 28.800, 137.844 26.723 C 135.356 21.809, 125.337 14.402, 119.946 13.491 C 117.045 13.001, 115.562 12.132, 114.811 10.486 C 113.642 7.919, 111.254 6.998, 106 7.086 C 103.296 7.131, 101.875 7.898, 99.750 10.459 M 101 79.987 C 99.075 80.420, 95.775 81.077, 93.666 81.448 C 90.576 81.991, 89.969 82.449, 90.536 83.811 C 90.922 84.740, 91.711 87.300, 92.290 89.500 C 93.323 93.429, 97.671 101.008, 98.883 100.991 C 99.875 100.978, 103.039 89.793, 103.018 86.372 C 103.008 84.652, 103.675 82.685, 104.500 82 C 106.075 80.693, 106.531 78.929, 105.250 79.100 C 104.838 79.156, 102.925 79.555, 101 79.987 M 79 92.500 C 83.508 97.094, 84.692 97.972, 83.380 95.750 C 80.988 91.699, 77.548 88, 76.173 88 C 75.139 88, 76.127 89.573, 79 92.500 M 134.750 112.580 C 133.532 113.803, 133.979 121.257, 135.464 124.500 L 136.838 127.500 136.861 123.500 C 136.893 118.024, 135.664 111.663, 134.750 112.580" stroke="none" fill="black" fill-rule="evenodd"/>
</svg>