<svg xmlns="http://www.w3.org/2000/svg" width="192" height="144" viewBox="0 0 192 144" version="1.1">
	<path d="M 90.945 46.566 C 89.891 47.836, 89.884 48.789, 90.906 51.615 C 91.986 54.602, 91.927 55.462, 90.498 57.644 C 89.435 59.265, 89.062 61.110, 89.468 62.727 C 89.818 64.124, 89.441 67.344, 88.630 69.883 C 86.771 75.703, 85 87.501, 85 94.070 C 85 98.894, 85.147 99.164, 88.569 100.593 C 92.482 102.228, 92.669 104.134, 89 105 C 85.827 105.749, 85.390 107.604, 88.209 108.359 C 91.274 109.180, 97.035 109.041, 99.478 108.087 C 101.399 107.336, 101.392 107.280, 99.228 106.122 C 96.124 104.461, 96.336 101.205, 99.602 100.385 C 102.168 99.741, 102.195 99.641, 101.527 93.116 C 101.155 89.477, 100.214 83.350, 99.438 79.500 C 98.661 75.650, 98.116 69.125, 98.226 65 C 98.336 60.874, 98.093 56.959, 97.685 56.300 C 97.241 55.580, 97.775 54.656, 99.020 53.989 C 100.555 53.168, 100.922 52.307, 100.430 50.689 C 98.835 45.451, 93.717 43.226, 90.945 46.566 M 189.139 88.087 C 187.841 89.139, 185.639 90, 184.247 90 C 182.855 90, 178.602 90.927, 174.798 92.060 C 167.952 94.099, 164 96.758, 164 99.326 C 164 100.744, 167.124 103.734, 170.674 105.711 C 172.636 106.804, 173.048 106.584, 174.890 103.461 C 176.867 100.111, 177.878 99.529, 180.958 99.973 C 181.759 100.089, 184.124 99.619, 186.213 98.930 C 188.301 98.241, 190.272 97.939, 190.593 98.260 C 191.328 98.995, 186.113 108, 184.952 108 C 184.480 108, 183.636 109.658, 183.077 111.684 C 181.888 115.991, 183.186 118.393, 186.189 117.440 C 187.238 117.107, 188.760 117.386, 189.572 118.060 C 190.384 118.734, 191.274 119.059, 191.550 118.784 C 191.825 118.508, 191.927 111.058, 191.775 102.228 L 191.500 86.174 189.139 88.087" stroke="none" fill="black" fill-rule="evenodd"/>
</svg>