<svg xmlns="http://www.w3.org/2000/svg" width="192" height="144" viewBox="0 0 192 144" version="1.1">
	<path d="M 0 72 L 0 144 26 144 L 52 144 52 139.432 C 52 132.791, 56.964 113.144, 59.790 108.599 C 61.124 106.454, 63.878 102.968, 65.910 100.854 L 69.604 97.009 66.412 81.254 C 64.656 72.589, 62.523 63.308, 61.671 60.630 C 59.672 54.339, 54.616 46.746, 44.823 35.325 C 36.613 25.750, 32.357 17.886, 31.331 10.396 C 30.750 6.161, 30.825 6, 33.364 6 C 35.626 6, 36 5.575, 36 3 L 36 0 18 0 L 0 0 0 72 M 57.506 6.321 C 62.724 11.539, 64.869 14.809, 69.806 25.071 C 78.763 43.691, 80.976 51.656, 83.523 74.449 C 84.325 81.627, 84.985 87.742, 84.990 88.038 C 84.996 88.334, 89.162 88.559, 94.250 88.538 C 99.338 88.517, 104.625 88.725, 106 89 C 108.465 89.493, 108.511 89.380, 109.280 81 C 111.087 61.309, 113.737 52.031, 119.520 45.159 C 125.025 38.616, 140.264 30.267, 151.801 27.473 C 158.137 25.938, 159.852 25.872, 164.772 26.974 C 171.416 28.460, 177.467 33.516, 176.358 36.655 C 174.087 43.087, 164.210 48.668, 148.416 52.445 C 142.357 53.894, 135.929 55.973, 134.132 57.066 C 129.587 59.830, 127.346 65.586, 125.572 79.054 C 124.743 85.349, 123.773 91.942, 123.416 93.705 C 122.943 96.044, 123.272 97.560, 124.634 99.314 C 137.804 116.281, 140.463 122.332, 140.426 135.250 L 140.401 144 166.201 144 L 192 144 192 72 L 192 0 121.593 0 L 51.185 0 57.506 6.321" stroke="none" fill="black" fill-rule="evenodd"/>
</svg>