<svg xmlns="http://www.w3.org/2000/svg" width="192" height="144" viewBox="0 0 192 144" version="1.1">
	<path d="M 88.500 1 C 92.913 2.123, 106.262 2.123, 108 1 C 109.010 0.347, 105.578 0.064, 97.500 0.134 C 89.835 0.199, 86.584 0.512, 88.500 1 M 139.500 1 C 139.840 1.550, 140.538 2, 141.052 2 C 142.716 2, 150 5.448, 150 6.236 C 150 6.656, 150.620 7, 151.378 7 C 152.135 7, 153.311 7.670, 153.991 8.489 C 154.671 9.308, 155.595 9.751, 156.044 9.473 C 156.494 9.195, 157.151 9.435, 157.504 10.006 C 159.795 13.713, 179.267 20, 188.458 20 L 192 20 192 10 L 192 0 165.441 0 C 147.990 0, 139.094 0.343, 139.500 1 M 63.500 123.404 C 58.550 124.132, 53.214 125.333, 51.643 126.073 C 48.962 127.336, 48.823 127.694, 49.399 131.895 C 49.737 134.357, 50.797 137.975, 51.756 139.936 L 53.500 143.500 75.900 143.770 C 96.142 144.013, 98.487 143.869, 100.252 142.272 C 103.307 139.507, 104.985 135.503, 105.253 130.335 C 105.480 125.965, 105.264 125.468, 102.565 124.149 C 98.480 122.151, 75.056 121.705, 63.500 123.404" stroke="none" fill="black" fill-rule="evenodd"/>
</svg>