<svg xmlns="http://www.w3.org/2000/svg" width="192" height="144" viewBox="0 0 192 144" version="1.1">
	<path d="M 0 72 L 0 144 36.335 144 L 72.669 144 75.387 135.975 C 77.936 128.446, 78.061 127.268, 77.407 116.932 C 76.816 107.595, 76.423 105.762, 74.827 104.907 C 73.791 104.353, 73.185 103.510, 73.478 103.035 C 73.772 102.559, 74.206 100.112, 74.442 97.597 C 74.677 95.081, 76.203 90.430, 77.831 87.262 C 82.315 78.535, 82.333 78.297, 78.852 73.965 C 76.406 70.922, 75.724 69.119, 75.755 65.781 C 75.815 59.282, 75.888 59, 77.500 59 C 79.963 59, 79.198 57.267, 76.429 56.572 C 73.344 55.797, 73.780 53.393, 76.940 53.752 C 79.093 53.997, 79.139 53.809, 78.463 47.502 C 77.884 42.090, 78.017 41, 79.261 41 C 80.083 41, 81.266 41.616, 81.891 42.368 C 82.841 43.513, 83.718 43.405, 87.263 41.707 C 96.192 37.429, 96 37.955, 96 17.826 L 96 0 48 0 L 0 0 0 72 M 96 89.965 L 96 144 108.019 144 L 120.038 144 119.379 141.250 C 119.016 139.738, 117.848 136.132, 116.783 133.239 C 115.079 128.607, 114.933 126.482, 115.560 115.479 C 116.127 105.518, 116.531 103.196, 117.547 104.039 C 118.351 104.706, 119.043 104.740, 119.419 104.132 C 120.364 102.602, 117.460 91.638, 114.705 86.334 C 110.636 78.501, 110.630 78.152, 114.487 73.882 C 118.698 69.222, 118.963 65.952, 115.500 61.411 C 112.487 57.460, 112.477 57.370, 115 56.710 C 117.636 56.021, 117.576 54, 114.921 54 C 113.173 54, 112.937 53.561, 113.443 51.250 C 114.324 47.229, 114.431 41.097, 113.634 40.301 C 113.255 39.922, 112.016 40.539, 110.882 41.673 L 108.820 43.735 104.660 41.618 C 102.372 40.453, 100.348 39.157, 100.163 38.739 C 99.977 38.320, 98.965 37.516, 97.913 36.953 C 96.040 35.951, 96 37.060, 96 89.965 M 113.274 64.940 C 114.071 67.987, 113.162 70, 110.991 70 C 109.895 70, 108.788 71.169, 108.150 73 C 106.622 77.382, 108.925 76.932, 113.405 71.974 C 116.387 68.672, 116.857 67.602, 116.016 66.029 C 114.399 63.008, 112.580 62.285, 113.274 64.940 M 77.667 64.667 C 76.081 66.252, 77.242 69.842, 80.298 72.804 C 83.933 76.327, 86.295 77.008, 85.317 74.250 C 84.389 71.635, 81.852 68.974, 80.866 69.583 C 80.390 69.877, 80 68.741, 80 67.059 C 80 64.140, 79.108 63.225, 77.667 64.667 M 102 76.500 C 102 77.325, 102.450 78, 103 78 C 103.550 78, 104 77.325, 104 76.500 C 104 75.675, 103.550 75, 103 75 C 102.450 75, 102 75.675, 102 76.500 M 80.079 122.583 C 80.127 123.748, 80.364 123.985, 80.683 123.188 C 80.972 122.466, 80.936 121.603, 80.604 121.271 C 80.272 120.939, 80.036 121.529, 80.079 122.583" stroke="none" fill="black" fill-rule="evenodd"/>
</svg>