<svg xmlns="http://www.w3.org/2000/svg" width="192" height="144" viewBox="0 0 192 144" version="1.1">
	<path d="M 92.746 81.395 C 90.011 83.471, 88.734 88.170, 90 91.500 C 90.972 94.057, 90.744 94.688, 87.682 97.918 C 85.814 99.888, 83.995 102.330, 83.638 103.345 C 82.783 105.779, 86.032 112.859, 89.445 116 C 91.799 118.167, 93.088 118.500, 99.117 118.500 C 107.047 118.500, 108.295 117.551, 107.664 112 C 107.381 109.516, 107.835 107.872, 109.227 106.335 C 110.494 104.936, 110.962 103.457, 110.549 102.155 C 110.028 100.513, 109.303 100.239, 106.629 100.673 C 101.871 101.445, 97.488 96.890, 101.883 95.741 C 103.266 95.379, 103.886 94.087, 104.217 90.874 C 104.738 85.829, 104.294 84, 102.548 84 C 101.867 84, 100.495 83.100, 99.500 82 C 97.413 79.694, 95.243 79.500, 92.746 81.395" stroke="none" fill="black" fill-rule="evenodd"/>
</svg>