<svg xmlns="http://www.w3.org/2000/svg" width="192" height="144" viewBox="0 0 192 144" version="1.1">
	<path d="M 109 16.031 C 109 16.599, 109.675 17.322, 110.500 17.638 C 113.080 18.628, 112.147 20.545, 108.431 21.889 C 104.666 23.250, 101.010 28.006, 101.004 31.550 C 101.002 32.678, 100.511 34.089, 99.913 34.687 C 99.130 35.470, 99.130 35.962, 99.913 36.446 C 103.065 38.394, 98.333 44.605, 92.301 46.435 C 90.918 46.855, 90.308 47.640, 90.658 48.551 C 91.342 50.335, 98.082 50.518, 99.800 48.800 C 100.733 47.867, 101 48.056, 101 49.654 C 101 50.784, 102.210 53.011, 103.688 54.604 C 106.838 57.997, 107.987 66.294, 106.775 76.886 C 106.093 82.848, 105.687 83.647, 100.659 88.919 C 93.651 96.266, 92.856 98.676, 96.489 101.573 C 99.123 103.674, 99.182 103.917, 97.953 107.631 C 97.249 109.759, 95.240 117.094, 93.488 123.931 C 90.892 134.070, 90.480 137.052, 91.254 140.101 L 92.203 143.840 119.993 143.952 L 147.784 144.065 148.230 140.282 C 148.475 138.202, 149.706 132.685, 150.964 128.022 C 153.596 118.268, 153.448 113.245, 149.994 95.198 C 148.208 85.865, 147.895 81.209, 148.195 68.470 C 148.517 54.818, 148.773 52.887, 150.424 51.680 C 152.234 50.356, 152.229 50.274, 150.256 48.892 C 147.894 47.238, 146.014 41.267, 146.006 35.398 C 145.993 26.447, 138.021 20.376, 124.870 19.302 C 119.959 18.901, 116.704 18.083, 115.115 16.850 C 112.529 14.844, 109 14.371, 109 16.031" stroke="none" fill="black" fill-rule="evenodd"/>
</svg>