<svg xmlns="http://www.w3.org/2000/svg" width="192" height="144" viewBox="0 0 192 144" version="1.1">
	<path d="M 53.206 16.669 C 51.395 17.562, 48.138 20.309, 45.968 22.773 C 37.113 32.834, 38.296 45.044, 48.844 52.458 C 52.373 54.939, 54.168 55.500, 58.582 55.500 C 61.559 55.500, 63.995 55.726, 63.997 56.002 C 63.999 56.277, 61.276 57.789, 57.948 59.361 C 53.596 61.416, 52.004 62.680, 52.281 63.859 C 52.494 64.762, 51.811 66.954, 50.763 68.732 C 48.730 72.183, 49.177 74.928, 51.462 73.031 C 54.509 70.503, 57.646 74.576, 56.419 79.466 C 55.959 81.298, 56.241 82.468, 57.342 83.301 C 59.473 84.915, 61.881 105.510, 60.755 112.500 C 60.489 114.150, 60.861 117.176, 61.582 119.224 C 62.378 121.486, 62.521 123.178, 61.946 123.533 C 60.578 124.379, 60.783 131.680, 62.241 134.014 C 63.228 135.595, 63.228 136.405, 62.241 137.986 C 60.750 140.373, 60.605 144, 62 144 C 62.550 144, 63 143.325, 63 142.500 C 63 140.408, 65.753 140.616, 66.311 142.750 C 66.598 143.851, 66.811 143.502, 66.884 141.809 C 66.948 140.329, 66.550 138.840, 66 138.500 C 64.703 137.699, 64.703 133.301, 66 132.500 C 67.462 131.596, 67.221 126.654, 65.558 123.450 C 64.363 121.146, 64.340 120.353, 65.424 118.806 C 66.370 117.454, 66.497 115.689, 65.883 112.403 C 65.417 109.908, 64.832 107.537, 64.584 107.135 C 64.335 106.733, 64.517 105.781, 64.989 105.018 C 65.590 104.045, 68.100 103.613, 73.423 103.566 C 77.590 103.530, 81 103.587, 81 103.693 C 81 103.799, 80.083 105.439, 78.963 107.338 C 76.374 111.726, 74.984 123.727, 75.730 135.250 L 76.296 144 91.623 144 L 106.950 144 105.975 141.435 C 104.124 136.566, 104.859 130.779, 108.030 125.250 C 111.494 119.209, 112.951 118.636, 113.116 123.250 C 113.180 125.037, 113.438 125.713, 113.689 124.750 C 114.607 121.239, 115.627 123.185, 117.359 131.750 C 118.332 136.563, 119.355 141.287, 119.631 142.250 C 120.071 143.779, 121.514 144, 131.067 144 L 142 144 142 140.149 C 142 136.336, 138.796 129.099, 134.935 124.191 C 131.857 120.277, 132.725 107.297, 137.035 92.801 C 139.220 85.452, 140.498 83.931, 142.355 86.470 C 143.442 87.957, 144.156 87.529, 148.824 82.593 C 154.146 76.966, 158.972 68.291, 158.990 64.323 C 159.011 59.679, 150.874 56.392, 145.921 59.042 C 144.813 59.635, 143.330 59.725, 142.482 59.250 C 141.349 58.616, 142.816 57.147, 148.597 53.128 C 155.613 48.251, 156.419 47.931, 158.997 48.999 C 161.271 49.941, 162.742 49.819, 166.896 48.343 C 172.385 46.394, 173.275 44.753, 169.840 42.914 C 167.752 41.797, 167.743 41.724, 169.590 40.732 C 172.460 39.189, 172.567 38.972, 170.971 37.942 C 169.786 37.177, 170.624 35.902, 175.292 31.372 C 178.477 28.280, 180.909 25.576, 180.695 25.362 C 179.952 24.618, 173.018 28.032, 162.792 34.175 C 153.791 39.583, 139.201 47, 137.566 47 C 137.254 47, 137 46.380, 137 45.622 C 137 44.865, 136.328 43.687, 135.506 43.005 C 134.280 41.987, 133.684 42.169, 132.188 44.017 C 130.233 46.431, 128.484 46.620, 118.888 45.456 C 111.261 44.531, 106.817 46.646, 103.833 52.621 C 102.135 56.019, 101.902 57.302, 102.815 58.215 C 104.664 60.064, 104.223 61, 101.500 61 C 99.806 61, 99 61.552, 99 62.714 C 99 64.273, 98.857 64.286, 97.429 62.857 C 96.158 61.587, 96.027 60.350, 96.745 56.393 C 97.232 53.702, 97.264 50.084, 96.814 48.354 C 95.735 44.199, 91.026 39.268, 87.402 38.498 C 81.671 37.280, 80.505 35.981, 79.497 29.690 C 78.781 25.221, 73.566 18.971, 68.575 16.603 C 64.265 14.557, 57.431 14.587, 53.206 16.669 M 68.992 68.525 C 68.307 70.598, 68.155 73.320, 68.615 75.253 C 69.040 77.039, 69.446 79.625, 69.518 81 C 69.591 82.375, 70.007 85.654, 70.444 88.286 L 71.238 93.072 76.869 92.495 C 79.966 92.178, 84.075 91.742, 86 91.527 C 87.925 91.311, 90.462 91.105, 91.637 91.067 C 93.296 91.015, 94.396 89.538, 96.548 84.474 L 99.322 77.949 97.190 75.963 C 95.425 74.318, 95.230 73.525, 96.057 71.350 C 96.607 69.905, 96.931 68.651, 96.778 68.564 C 92.879 66.336, 90.751 66.117, 88.342 67.695 C 84.564 70.171, 76.742 69.925, 73.076 67.214 L 70.141 65.044 68.992 68.525 M 53 70 C 53 70.550, 53.477 71, 54.059 71 C 54.641 71, 54.840 70.550, 54.500 70 C 54.160 69.450, 53.684 69, 53.441 69 C 53.198 69, 53 69.450, 53 70 M 62 101 C 62 101.550, 62.477 102, 63.059 102 C 63.641 102, 63.840 101.550, 63.500 101 C 63.160 100.450, 62.684 100, 62.441 100 C 62.198 100, 62 100.450, 62 101 M 62 113.893 C 62 114.934, 62.675 116.045, 63.500 116.362 C 64.584 116.777, 65 116.252, 65 114.469 C 65 112.941, 64.428 112, 63.500 112 C 62.675 112, 62 112.852, 62 113.893 M 62.667 126.667 C 61.409 127.925, 62 131, 63.500 131 C 64.433 131, 65 130.056, 65 128.500 C 65 126.072, 64.026 125.307, 62.667 126.667" stroke="none" fill="black" fill-rule="evenodd"/>
</svg>