<svg xmlns="http://www.w3.org/2000/svg" width="192" height="144" viewBox="0 0 192 144" version="1.1">
	<path d="M -0 72.005 L -0 144.010 96.250 143.755 L 192.500 143.500 192.757 71.750 L 193.013 0 96.507 0 L 0 0 -0 72.005 M 0.474 72.500 C 0.474 112.100, 0.598 128.154, 0.750 108.176 C 0.901 88.198, 0.901 55.798, 0.750 36.176 C 0.598 16.554, 0.474 32.900, 0.474 72.500 M 93.011 26.487 C 91.345 28.494, 92.517 32.671, 95.138 34.074 C 99.355 36.331, 104.441 31.197, 102.639 26.502 C 101.871 24.499, 94.670 24.488, 93.011 26.487" stroke="none" fill="black" fill-rule="evenodd"/>
</svg>