<svg xmlns="http://www.w3.org/2000/svg" width="192" height="144" viewBox="0 0 192 144" version="1.1">
	<path d="M 92.359 28.506 C 92.044 29.328, 92.059 30.711, 92.392 31.579 C 93.361 34.103, 91.973 37.874, 89.825 38.555 C 88.738 38.900, 88.092 39.426, 88.389 39.723 C 88.686 40.020, 88.270 41.204, 87.465 42.354 C 85.333 45.397, 85.662 47.481, 88.514 49.008 C 90.342 49.986, 91.571 52.109, 93.014 56.782 C 95.497 64.818, 95.506 64.656, 92.500 65.411 C 90.868 65.820, 90 66.738, 90 68.052 C 90 71.560, 94.716 79.427, 97.863 81.169 C 101.118 82.970, 102.680 87.660, 101.712 92.726 C 101.373 94.500, 101.736 95.818, 102.773 96.576 C 104.179 97.604, 104.072 98.202, 101.772 102.127 C 99.109 106.670, 97.501 111.819, 94.504 125.397 C 93.545 129.740, 91.695 135.702, 90.393 138.647 L 88.025 144 114.013 144 C 128.306 144, 140 143.757, 140 143.460 C 140 143.163, 139.183 141.251, 138.185 139.210 C 137.187 137.170, 134.887 130.775, 133.076 125 C 131.264 119.225, 128.704 111.800, 127.388 108.500 C 124.787 101.980, 124.490 99.911, 125.948 98.450 C 127.182 97.214, 127.740 81.278, 126.669 77.869 C 125.894 75.402, 126.082 75.194, 129.671 74.553 C 131.777 74.176, 135.300 73.911, 137.500 73.963 C 143.807 74.114, 147.417 73.163, 148.771 70.995 C 149.850 69.268, 149.507 68.005, 146.302 61.886 L 142.580 54.781 145.290 52.807 C 148.151 50.723, 148.842 47.242, 146.800 45.200 C 145.002 43.402, 151.182 43.631, 155.729 45.531 C 157.745 46.374, 159.981 46.838, 160.697 46.563 C 164.107 45.254, 160.154 30.818, 156.027 29.508 C 153.783 28.796, 151 30.417, 151 32.435 C 151 34.264, 145.815 38.779, 142.886 39.503 C 141.004 39.968, 140.102 39.708, 139.667 38.574 C 139.015 36.876, 134.410 36.454, 132.150 37.886 C 131.408 38.357, 130.489 40.262, 130.109 42.121 C 129.729 43.979, 128.874 45.556, 128.209 45.625 C 127.544 45.694, 126.619 45.806, 126.153 45.875 C 125.687 45.944, 124.268 46.900, 123 48 C 119.390 51.131, 118 50.565, 118 45.965 C 118 43.745, 117.273 40.820, 116.384 39.463 C 115.465 38.061, 114.980 35.886, 115.260 34.423 C 115.671 32.268, 115.199 31.586, 112.357 30.230 C 109.546 28.890, 108.395 28.817, 105.660 29.806 C 101.825 31.193, 98 31.370, 98 30.161 C 98 29.699, 96.860 28.802, 95.466 28.167 C 93.397 27.224, 92.827 27.286, 92.359 28.506 M 142 47.441 C 142 49.055, 143.416 50.250, 144.292 49.375 C 145.072 48.595, 143.997 46, 142.893 46 C 142.402 46, 142 46.648, 142 47.441 M 127.186 50.055 C 125.913 50.565, 125.141 51.420, 125.471 51.954 C 126.154 53.058, 131 51.205, 131 49.839 C 131 48.809, 130.177 48.855, 127.186 50.055 M 118.250 52.662 C 116.613 53.323, 116.655 55.468, 118.332 56.861 C 120.218 58.426, 123.339 56.047, 122.447 53.724 C 121.788 52.004, 120.616 51.708, 118.250 52.662 M 189.428 60.750 C 188.995 61.712, 188.559 63.279, 188.458 64.232 C 188.357 65.185, 187.757 66.587, 187.125 67.349 C 186.249 68.405, 186.295 69, 187.319 69.850 C 188.438 70.779, 188.378 72.092, 186.954 77.732 C 185.056 85.252, 185.835 88.216, 189.865 88.820 C 191.965 89.134, 192 88.891, 192 74.070 C 192 59.994, 191.329 56.519, 189.428 60.750" stroke="none" fill="black" fill-rule="evenodd"/>
</svg>