<svg xmlns="http://www.w3.org/2000/svg" width="192" height="144" viewBox="0 0 192 144" version="1.1">
	<path d="M 90.437 77.497 C 88.963 81.024, 89.301 87.601, 91.140 91.189 C 91.642 92.170, 91.619 93.118, 91.084 93.448 C 90.577 93.761, 88.503 96.984, 86.476 100.609 C 82.255 108.157, 82.286 111.601, 86.615 116.120 C 88.034 117.601, 89.151 119.080, 89.098 119.407 C 88.671 121.999, 89.521 123.225, 92.960 124.980 C 99.601 128.367, 103.366 127.136, 105.423 120.904 C 106.154 118.690, 107.104 117.592, 108.140 117.763 C 109.016 117.908, 110.238 117.419, 110.854 116.676 C 112.307 114.925, 107.862 110.455, 105.551 111.342 C 104.521 111.737, 104 111.360, 103.999 110.219 C 103.999 109.273, 103.119 106.185, 102.044 103.355 C 100.102 98.246, 100.102 98.214, 102.049 98.723 C 105.469 99.617, 106.910 97.369, 106.495 91.789 C 106.037 85.638, 104.633 83.788, 102.523 86.554 C 101.238 88.238, 100.903 88.298, 100.034 87 C 98.740 85.065, 98.722 82.290, 100 81.500 C 101.382 80.646, 101.256 76.656, 99.800 75.200 C 99.140 74.540, 97.092 74, 95.249 74 C 92.365 74, 91.694 74.487, 90.437 77.497" stroke="none" fill="black" fill-rule="evenodd"/>
</svg>