<svg xmlns="http://www.w3.org/2000/svg" width="192" height="144" viewBox="0 0 192 144" version="1.1">
	<path d="M 183.385 2.750 C 184.175 4.263, 186.196 6.806, 187.875 8.403 C 189.555 10, 190.713 11.656, 190.448 12.084 C 190.184 12.512, 190.425 13.144, 190.984 13.490 C 191.635 13.893, 192 11.586, 192 7.059 L 192 0 186.974 -0 L 181.949 -0 183.385 2.750 M 18.933 26.250 C 18.895 26.387, 18.675 27.951, 18.444 29.724 C 18.091 32.425, 18.467 33.189, 20.761 34.434 C 22.668 35.468, 22.978 35.932, 21.781 35.960 C 20.728 35.985, 20.270 36.541, 20.600 37.399 C 20.895 38.168, 20.656 39.095, 20.068 39.458 C 17.565 41.005, 19.153 42.900, 23.500 43.552 C 25.975 43.923, 28 44.626, 28 45.114 C 28 45.601, 27.502 46, 26.893 46 C 26.284 46, 26.024 46.620, 26.315 47.378 C 26.606 48.136, 26.369 49.231, 25.789 49.811 C 25.209 50.391, 25.016 51.599, 25.360 52.495 C 25.865 53.812, 26.837 53.997, 30.422 53.459 C 35.163 52.748, 38.225 53.625, 35.937 55.039 C 34.741 55.778, 33.881 60.665, 34.679 62.186 C 34.877 62.564, 37.518 61.776, 40.548 60.436 C 48.462 56.936, 51.423 57.213, 56.541 61.931 C 58.886 64.092, 62.761 66.426, 65.152 67.115 C 70.909 68.776, 73.285 70.461, 73.763 73.223 C 73.980 74.475, 74.312 76.175, 74.502 77 C 74.692 77.825, 74.881 78.776, 74.923 79.112 C 74.966 79.449, 77.563 80.026, 80.696 80.394 C 92.322 81.761, 120.109 88.577, 130.414 92.590 C 133.771 93.898, 136.472 93.960, 149.414 93.027 C 165.437 91.872, 189.987 89.126, 191.246 88.348 C 191.661 88.092, 192 80.484, 192 71.441 L 192 55 182.699 55 C 173.373 55, 168.023 56.359, 168.008 58.731 C 168.004 59.408, 166.988 60.147, 165.750 60.373 C 164.512 60.599, 160.800 61.313, 157.500 61.959 C 138.888 65.602, 140.964 65.659, 123.500 61.030 C 106.931 56.638, 87.314 50.380, 85.408 48.878 C 84.807 48.405, 84.031 48.303, 83.682 48.651 C 83.334 49, 82.417 48.761, 81.646 48.121 C 80.534 47.198, 80.137 47.367, 79.726 48.941 C 79.373 50.291, 78.558 50.800, 77.176 50.534 C 75.092 50.133, 56.898 41.031, 56 39.941 C 55.358 39.162, 33.921 29.736, 27.967 27.615 C 24.042 26.217, 19.141 25.476, 18.933 26.250 M 148.750 136.662 C 149.438 136.940, 150.563 136.940, 151.250 136.662 C 151.938 136.385, 151.375 136.158, 150 136.158 C 148.625 136.158, 148.063 136.385, 148.750 136.662 M 134.183 140.497 C 133.406 142.203, 132.422 142.992, 131.509 142.642 C 130.714 142.337, 129.798 142.518, 129.473 143.044 C 129.105 143.639, 135.779 144, 147.141 144 C 157.183 144, 164.973 143.621, 164.450 143.157 C 162.517 141.441, 152.247 139.082, 143.957 138.450 L 135.413 137.798 134.183 140.497" stroke="none" fill="black" fill-rule="evenodd"/>
</svg>