<svg xmlns="http://www.w3.org/2000/svg" width="192" height="144" viewBox="0 0 192 144" version="1.1">
	<path d="M 0 72 L 0 144 37.500 144 L 75 144 75 141.353 C 75 139.897, 75.857 136.184, 76.905 133.103 C 77.952 130.021, 79.295 122.775, 79.889 117 C 81.615 100.215, 81.616 97.925, 79.893 96.647 C 77.628 94.967, 76.937 91.206, 78.589 89.554 C 79.365 88.778, 80.010 87.773, 80.022 87.321 C 80.034 86.870, 82.054 84.300, 84.511 81.610 L 88.977 76.720 84.489 72.540 C 79.313 67.721, 78.849 65.060, 82.538 61.371 C 84.989 58.920, 85.007 58.815, 83.049 58.303 C 80.584 57.658, 81.346 56, 84.109 56 C 85.950 56, 86.049 55.551, 85.420 50 C 84.727 43.870, 85.517 42.508, 88.019 45.523 C 89.150 46.886, 89.525 46.886, 91.606 45.523 C 92.884 44.685, 94.395 44, 94.965 44 C 95.633 44, 96 49.420, 96 59.300 C 96 69.747, 96.375 74.975, 97.183 75.783 C 97.834 76.434, 98.035 77.299, 97.629 77.704 C 97.223 78.110, 96.522 77.845, 96.071 77.114 C 95.496 76.185, 95.045 76.119, 94.566 76.893 C 94.190 77.502, 94.359 78, 94.941 78 C 95.665 78, 96 88.441, 96 111 L 96 144 107.919 144 L 119.839 144 118.879 140.526 C 118.128 137.805, 118.272 136.514, 119.543 134.575 C 120.524 133.077, 120.902 131.267, 120.499 129.997 C 120.020 128.488, 120.561 127.167, 122.416 125.311 C 123.837 123.890, 125 122.427, 125 122.060 C 125 121.694, 127.738 119.463, 131.085 117.103 C 136.539 113.256, 137.103 112.536, 136.530 110.156 C 135.779 107.037, 133.433 105, 130.593 105 C 129.480 105, 126.399 107.137, 123.747 109.749 C 118.668 114.752, 116.779 114.609, 117.793 109.300 L 118.285 106.729 119.494 108.988 C 120.648 111.145, 120.725 111.158, 121.218 109.275 C 121.501 108.191, 121.169 106.249, 120.478 104.960 C 119.549 103.222, 119.509 102.158, 120.325 100.851 C 121.160 99.515, 121.010 97.927, 119.708 94.294 C 118.763 91.657, 117.992 88.093, 117.995 86.372 C 118.001 82.623, 116.389 81.100, 111.589 80.321 C 109.007 79.902, 108 79.231, 108 77.928 C 108 75.521, 109.856 74.462, 110.614 76.437 C 112.541 81.459, 126.956 73.576, 126.956 67.500 C 126.956 66.400, 126.076 64.375, 125 63 C 123.924 61.625, 123.034 59.712, 123.022 58.750 C 123.010 57.788, 122.537 57, 121.972 57 C 121.305 57, 121.178 54.716, 121.610 50.500 C 122.307 43.701, 121.856 42.915, 118.829 45.655 C 117.126 47.196, 116.871 47.193, 115.124 45.612 C 114.092 44.678, 111.505 43.646, 109.374 43.318 C 107.243 42.990, 104.740 42.333, 103.811 41.858 C 102.795 41.339, 101.874 41.395, 101.502 41.997 C 101.161 42.549, 99.784 43, 98.441 43 L 96 43 96 21.500 L 96 0 48 0 L 0 0 0 72 M 120.655 65.458 C 120.329 66.306, 120.322 67.675, 120.638 68.500 C 121.057 69.591, 120.521 70, 118.674 70 C 116.982 70, 115.915 70.693, 115.476 72.075 C 114.493 75.172, 115.375 75.359, 119.952 73.025 C 124.485 70.712, 125.853 68.575, 124.338 66.174 C 122.946 63.967, 121.346 63.656, 120.655 65.458 M 82.015 66.180 C 82.037 68.071, 83.056 69.286, 86.827 71.921 C 89.210 73.587, 90.461 73.939, 91.235 73.165 C 92.646 71.754, 90.373 68.868, 88.140 69.237 C 87.132 69.403, 86.539 68.766, 86.524 67.500 C 86.508 66.197, 85.716 65.389, 84.250 65.180 C 82.887 64.987, 82.006 65.381, 82.015 66.180 M 81.729 113 C 81.410 113.825, 80.909 116.750, 80.615 119.500 L 80.080 124.500 81.533 119.500 C 82.936 114.672, 83.093 109.473, 81.729 113 M 83.720 115.332 C 82.606 118.165, 82.788 119.612, 84.094 118.306 C 84.695 117.705, 85.020 116.377, 84.814 115.356 C 84.454 113.566, 84.415 113.565, 83.720 115.332" stroke="none" fill="black" fill-rule="evenodd"/>
</svg>