<svg xmlns="http://www.w3.org/2000/svg" width="192" height="144" viewBox="0 0 192 144" version="1.1">
	<path d="M 50.697 18.654 C 51.247 20.086, 50.748 20.230, 46.969 19.723 C 42.413 19.112, 36 20.998, 36 22.949 C 36 23.527, 34.200 24, 32 24 C 27.754 24, 27.010 24.933, 29.564 27.053 C 30.597 27.911, 30.918 29.190, 30.509 30.821 C 30.030 32.727, 30.609 34.033, 33.046 36.548 C 36.052 39.649, 36.155 40.013, 35.186 44.153 C 34.626 46.544, 32.974 51.807, 31.515 55.849 C 30.056 59.891, 29.116 63.859, 29.425 64.666 C 30.164 66.590, 26.972 73.502, 23.088 78.389 C 21.390 80.526, 20 82.561, 20 82.910 C 20 83.259, 21.383 85.222, 23.073 87.272 C 26.512 91.445, 31.043 92.346, 33.015 89.250 C 33.885 87.886, 34.001 88.602, 33.546 92.500 C 31.909 106.511, 30.089 125.566, 29.557 134.250 L 28.960 144 36.373 144 C 42.001 144, 43.923 143.643, 44.355 142.517 C 44.773 141.427, 45.793 141.204, 48.212 141.676 C 50.020 142.029, 51.650 142.696, 51.833 143.159 C 52.017 143.621, 55.553 144, 59.692 144 C 66.993 144, 67.200 143.933, 66.664 141.750 C 66.360 140.512, 64.492 125.100, 62.514 107.500 C 60.537 89.900, 58.504 73.967, 57.997 72.094 C 56.794 67.649, 57.367 66.935, 61.030 68.317 C 66.703 70.459, 69.727 66.234, 66.133 61.187 C 64.141 58.389, 64.140 58.336, 66.054 55.431 C 67.117 53.819, 67.990 52.241, 67.993 51.925 C 67.997 51.609, 65.535 49.584, 62.522 47.425 C 59.508 45.266, 57.033 42.922, 57.022 42.215 C 56.998 40.791, 59.914 35.879, 61.407 34.830 C 63.155 33.600, 62.904 30.621, 60.935 29.242 C 59.864 28.492, 58.264 26.443, 57.377 24.689 C 54.641 19.274, 48.969 14.148, 50.697 18.654" stroke="none" fill="black" fill-rule="evenodd"/>
</svg>