<svg xmlns="http://www.w3.org/2000/svg" width="192" height="144" viewBox="0 0 192 144" version="1.1">
	<path d="M -0 72.005 L -0 144.010 96.250 143.755 L 192.500 143.500 192.757 71.750 L 193.013 0 96.507 0 L 0 0 -0 72.005 M 0.474 72.500 C 0.474 112.100, 0.598 128.154, 0.750 108.176 C 0.901 88.198, 0.901 55.798, 0.750 36.176 C 0.598 16.554, 0.474 32.900, 0.474 72.500 M 92 30.500 C 89.749 32.896, 86.219 34.073, 87.500 32 C 88.252 30.783, 85.025 30.698, 83.152 31.885 C 82.410 32.355, 81.960 33.537, 82.152 34.513 C 82.529 36.434, 83.914 37.437, 88.382 39.026 C 91.125 40.001, 91.182 40.141, 89.569 41.924 C 87.970 43.690, 87.982 43.875, 89.774 45.149 C 90.820 45.892, 91.952 48.230, 92.290 50.345 C 92.779 53.400, 92.399 54.992, 90.440 58.095 C 87.580 62.626, 88.548 62.514, 69.572 60.501 C 61.912 59.688, 55.435 59.232, 55.180 59.487 C 54.185 60.482, 57.370 63, 59.622 63 C 60.930 63, 62 63.436, 62 63.970 C 62 64.503, 63.462 64.911, 65.250 64.877 C 67.037 64.843, 70.729 65.515, 73.453 66.371 C 78.961 68.101, 80.334 67.772, 77.427 65.419 C 75.623 63.958, 75.754 63.895, 79.500 64.419 C 81.700 64.726, 85.188 64.983, 87.250 64.989 C 89.912 64.997, 91 65.435, 91 66.500 C 91 68.127, 91.114 68.156, 98.500 68.361 C 103.206 68.492, 103.519 68.666, 103.824 71.329 C 104.058 73.371, 104.567 73.996, 105.656 73.579 C 106.485 73.260, 107.802 73, 108.582 73 C 109.428 73, 110 71.991, 110 70.500 C 110 68.787, 110.551 67.999, 111.750 67.997 C 113.823 67.994, 125.580 70.542, 132.117 72.411 C 135.899 73.492, 137.166 73.498, 139.117 72.440 C 140.428 71.729, 142.287 70.904, 143.250 70.605 C 146.232 69.681, 145.362 65.295, 141.413 61.346 L 137.825 57.758 129.362 58.203 C 124.708 58.447, 120.671 58.276, 120.391 57.823 C 120.111 57.371, 120.434 57, 121.108 57 C 124.129 57, 120.450 55.529, 116.208 55.041 C 111.759 54.530, 111.483 54.321, 111.187 51.250 C 110.851 47.766, 109.060 47.018, 107 49.500 C 105.333 51.508, 104.335 51.390, 103.740 49.113 C 103.321 47.510, 103.982 47.127, 108.123 46.578 C 113.371 45.882, 114.600 43.926, 111 42 C 109.900 41.411, 109 40.289, 109 39.505 C 109 38.709, 107.234 37.551, 105 36.882 C 102.215 36.047, 101 35.124, 101 33.842 C 101 31.757, 102.070 31.470, 103.713 33.112 C 104.324 33.724, 105.364 34.045, 106.024 33.825 C 107.885 33.205, 99.707 28, 96.871 28 C 95.473 28, 93.301 29.115, 92 30.500 M 93.583 42.866 C 93.152 43.563, 93.070 44.403, 93.400 44.733 C 94.295 45.628, 95.271 44.312, 94.787 42.862 C 94.449 41.846, 94.213 41.846, 93.583 42.866 M 94.098 56.559 C 91.199 61.471, 91.472 62.512, 95 60 C 96.650 58.825, 98 57.021, 98 55.991 C 98 52.660, 96.248 52.915, 94.098 56.559 M 112 58 C 112.825 58.533, 113.950 58.969, 114.500 58.969 C 115.050 58.969, 114.825 58.533, 114 58 C 113.175 57.467, 112.050 57.031, 111.500 57.031 C 110.950 57.031, 111.175 57.467, 112 58" stroke="none" fill="black" fill-rule="evenodd"/>
</svg>