<svg xmlns="http://www.w3.org/2000/svg" width="192" height="144" viewBox="0 0 192 144" version="1.1">
	<path d="M 0 55.500 C 0 86.025, 0.337 111.034, 0.750 111.076 C 1.163 111.118, 6.675 111.498, 13 111.921 C 19.325 112.344, 25.175 112.872, 26 113.095 C 27.476 113.493, 27.562 113.100, 27.914 104.361 C 27.961 103.184, 28.814 101.216, 29.810 99.987 C 31.554 97.832, 31.734 97.811, 34.795 99.394 C 36.657 100.357, 38.242 102.116, 38.626 103.647 C 38.987 105.083, 38.963 114.750, 38.573 125.129 L 37.864 144 114.772 144 L 191.679 144 192.340 118.338 C 192.703 104.224, 193 71.824, 193 46.338 L 193 0 96.500 0 L 0 0 0 55.500 M 0.467 56 C 0.467 86.525, 0.594 99.012, 0.749 83.750 C 0.905 68.487, 0.905 43.512, 0.749 28.250 C 0.594 12.987, 0.467 25.475, 0.467 56 M 128.113 32.887 C 127.075 33.925, 125.768 35.591, 125.210 36.590 C 124.373 38.085, 123.925 38.183, 122.674 37.144 C 121.396 36.084, 121.102 36.247, 120.827 38.167 C 120.647 39.422, 119.375 41.009, 118 41.692 C 114.571 43.395, 114.746 45.588, 118.279 45.175 C 121.586 44.788, 125.298 48.543, 124.031 50.992 C 123.601 51.822, 123.348 53.850, 123.469 55.500 C 123.589 57.150, 123.757 59.513, 123.843 60.750 C 123.930 61.987, 124.627 63, 125.393 63 C 126.892 63, 128 65.091, 128 67.921 C 128 68.887, 126.763 71.324, 125.250 73.336 L 122.500 76.995 114.750 76.368 C 109.289 75.927, 107 76.075, 107 76.871 C 107 78.261, 110.718 82.089, 111.750 81.762 C 112.163 81.631, 113.977 82.142, 115.782 82.897 C 119.209 84.330, 121.522 83.613, 118.971 81.909 C 117.873 81.176, 118.262 80.999, 120.500 81.213 C 122.370 81.392, 123.502 82.065, 123.505 83 C 123.508 83.991, 124.525 84.511, 126.505 84.533 C 129.027 84.560, 129.679 85.113, 130.631 88.033 C 131.253 89.940, 132.041 91.388, 132.381 91.250 C 132.722 91.112, 133.450 91, 134 91 C 134.550 91, 135 90.137, 135 89.082 C 135 82.945, 138.681 82.153, 139.630 88.086 C 140.342 92.541, 142.152 93.949, 144.577 91.936 C 145.581 91.103, 145.916 89.800, 145.525 88.244 C 144.991 86.115, 145.183 85.916, 147.211 86.505 C 148.470 86.870, 150.656 87.984, 152.069 88.980 C 153.744 90.162, 155.624 90.603, 157.475 90.250 C 159.450 89.872, 160.688 90.220, 161.545 91.393 C 162.688 92.955, 162.899 92.959, 164.417 91.440 C 165.624 90.234, 166.399 90.087, 167.359 90.883 C 168.325 91.685, 169.210 91.453, 170.789 89.982 C 171.959 88.892, 173.192 88, 173.530 88 C 174.833 88, 177.096 84.964, 176.505 84.008 C 176.162 83.453, 176.374 83, 176.976 83 C 177.763 83, 177.758 82.416, 176.958 80.922 C 176.346 79.779, 176.087 78.217, 176.381 77.451 C 176.674 76.685, 176.227 75.370, 175.386 74.529 C 174.545 73.688, 174.114 73, 174.429 73 C 175.501 73, 171.353 69.349, 169.452 68.620 C 168.010 68.067, 167.868 67.700, 168.859 67.087 C 171.950 65.177, 159.229 64.327, 154.132 66.104 C 152.390 66.711, 149.872 66.934, 148.536 66.598 C 146.178 66.007, 146.149 65.887, 147.553 62.526 C 150.137 56.344, 149.125 55.623, 142.564 58.968 C 138.108 61.239, 137 60.902, 137 57.274 C 137 55.840, 137.287 54.953, 137.637 55.304 C 137.988 55.654, 139.450 55.061, 140.887 53.986 C 147.330 49.166, 147.356 49.134, 146.113 47.637 C 145.462 46.852, 145.058 45.657, 145.215 44.979 C 145.382 44.258, 143.637 43.283, 141 42.624 C 137.417 41.729, 136.431 41.014, 136.163 39.113 C 135.977 37.800, 136.427 36.329, 137.163 35.843 C 138.214 35.148, 137.995 34.536, 136.139 32.980 C 133.174 30.493, 130.537 30.463, 128.113 32.887 M 117.500 39 C 117.840 39.550, 118.568 40, 119.118 40 C 119.668 40, 119.840 39.550, 119.500 39 C 119.160 38.450, 118.432 38, 117.882 38 C 117.332 38, 117.160 38.450, 117.500 39 M 144.269 68.693 C 145.242 68.947, 146.592 68.930, 147.269 68.656 C 147.946 68.382, 147.150 68.175, 145.500 68.195 C 143.850 68.215, 143.296 68.439, 144.269 68.693" stroke="none" fill="black" fill-rule="evenodd"/>
</svg>