<svg xmlns="http://www.w3.org/2000/svg" width="192" height="144" viewBox="0 0 192 144" version="1.1">
	<path d="M 0 72 L 0 144 34.917 144 L 69.834 144 70.949 138.803 C 71.562 135.944, 73.399 129.619, 75.032 124.746 C 78.286 115.033, 78.989 108.935, 76.628 110.894 C 75.529 111.806, 75.135 111.424, 74.644 108.972 C 74.110 106.298, 73.785 106.045, 72.069 106.963 C 70.247 107.938, 70.083 107.635, 69.803 102.761 C 69.520 97.861, 69.265 97.396, 66 95.825 C 64.075 94.899, 60.250 93.595, 57.500 92.928 C 54.750 92.260, 51.102 90.498, 49.393 89.013 C 47.243 87.144, 44.697 86.124, 41.123 85.701 C 35.618 85.049, 29.743 82.230, 30.344 80.529 C 30.544 79.963, 31.521 79.649, 32.515 79.831 C 33.510 80.013, 35.880 79.870, 37.783 79.513 L 41.244 78.864 38.438 75.935 C 35.841 73.224, 35.632 72.410, 35.632 65.003 C 35.632 60.601, 35.264 57, 34.816 57 C 33.650 57, 33.804 53.239, 35 52.500 C 35.550 52.160, 36 52.809, 36 53.941 C 36 55.333, 36.648 56, 38 56 C 39.528 56, 40.030 55.292, 40.125 53 C 40.194 51.350, 40.362 49.550, 40.500 49 C 40.638 48.450, 40.806 47.186, 40.875 46.191 C 40.944 45.196, 41.651 43.509, 42.446 42.441 C 43.833 40.578, 43.936 40.625, 44.995 43.612 C 45.603 45.324, 47.203 47.227, 48.552 47.842 C 56.155 51.306, 57.339 67.603, 50.418 73.514 C 49.121 74.621, 47.934 76.646, 47.780 78.014 C 47.521 80.315, 47.841 80.516, 52.070 80.713 C 54.584 80.830, 59.084 82.063, 62.070 83.453 C 68.281 86.344, 70 86.589, 70 84.582 C 70 83.802, 70.263 82.339, 70.584 81.332 C 71.038 79.905, 70.706 80.022, 69.084 81.861 C 65.583 85.827, 66.600 81.950, 71.494 72.672 C 75.561 64.963, 76.177 62.850, 77.968 50.473 C 79.799 37.823, 80.779 34.597, 85.785 24.750 C 85.995 24.337, 85.004 24, 83.583 24 C 81.485 24, 81 23.524, 81 21.467 C 81 19.477, 84.998 9.889, 86.553 8.151 C 86.725 7.959, 88.673 8.107, 90.882 8.480 C 93.513 8.925, 96.477 10.548, 99.474 13.186 C 103.556 16.779, 104.450 17.149, 107.774 16.617 C 121.915 14.353, 120.900 13.737, 118.470 23.115 C 117.371 27.355, 117.230 29.562, 117.970 30.944 C 119.617 34.021, 119.168 38.992, 116.915 42.638 C 115.768 44.494, 114.486 45.800, 114.066 45.541 C 113.646 45.281, 112.335 45.971, 111.151 47.074 C 108.494 49.549, 107.990 58, 110.500 58 C 111.325 58, 112 58.609, 112 59.354 C 112 60.099, 113.153 61.952, 114.563 63.473 C 120.557 69.941, 122.362 74.092, 122.527 81.792 C 122.613 85.802, 123.092 89.492, 123.592 89.991 C 124.091 90.491, 127.875 91.406, 132 92.027 C 136.125 92.647, 140.757 93.832, 142.294 94.660 C 144.374 95.781, 145.802 95.916, 147.883 95.190 C 149.421 94.654, 151.876 94.445, 153.339 94.725 C 155.163 95.073, 156.010 94.803, 156.032 93.867 C 156.054 92.919, 156.486 93.058, 157.443 94.320 C 158.700 95.978, 158.904 95.994, 159.736 94.507 C 160.563 93.029, 160.774 93.023, 161.948 94.437 C 163.007 95.714, 163.009 96.285, 161.955 97.555 C 159.699 100.273, 156.708 101.316, 148.500 102.246 C 137.312 103.514, 136.554 103.482, 126.806 101.330 C 117.405 99.255, 114.466 97.397, 113.480 92.908 C 112.491 88.408, 111.333 88.620, 110.097 93.527 C 109.184 97.154, 109.241 98.565, 110.388 100.783 C 111.171 102.297, 111.577 104.760, 111.291 106.256 C 110.941 108.089, 112.252 112.645, 115.314 120.238 C 117.813 126.432, 120.676 134.317, 121.678 137.760 L 123.500 144.021 158 143.760 L 192.500 143.500 192.757 71.750 L 193.013 0 96.507 0 L 0 0 0 72 M 0.474 72.500 C 0.474 112.100, 0.598 128.154, 0.750 108.176 C 0.901 88.198, 0.901 55.798, 0.750 36.176 C 0.598 16.554, 0.474 32.900, 0.474 72.500" stroke="none" fill="black" fill-rule="evenodd"/>
</svg>