<svg xmlns="http://www.w3.org/2000/svg" width="192" height="144" viewBox="0 0 192 144" version="1.1">
	<path d="M 0 72 L 0 144 39 144 L 78 144 78 98.500 L 78 53 83 53 C 88.739 53, 89.231 53.792, 84.994 56.203 C 81.874 57.979, 81.065 61.013, 83.250 62.747 C 83.938 63.293, 86.127 64.263, 88.115 64.903 C 90.899 65.798, 91.942 66.805, 92.652 69.283 C 93.361 71.755, 94.130 72.500, 95.974 72.500 C 97.824 72.500, 98.559 71.781, 99.186 69.361 C 99.846 66.816, 100.648 66.101, 103.428 65.579 C 107.733 64.772, 111.308 61.967, 110.550 59.991 C 110.235 59.171, 108.664 57.618, 107.060 56.540 C 103.305 54.017, 104.023 53, 109.559 53 L 114 53 114 98.500 L 114 144 117.429 144 C 120.781 144, 120.884 143.876, 122.001 138.494 C 122.630 135.465, 123.052 130.628, 122.940 127.744 C 122.553 117.799, 124.902 111.262, 132.370 101.500 C 135.536 97.362, 136.461 96.241, 142.284 89.500 C 148.142 82.717, 152.794 74.583, 154.433 68.258 C 156.380 60.743, 156.394 61, 154.059 61 C 150.936 61, 150.884 59.576, 153.835 54.896 C 158.343 47.749, 160.295 42.060, 158.841 40.309 C 158.086 39.399, 157.672 36.071, 157.766 31.665 C 157.880 26.269, 157.393 23.330, 155.793 19.761 C 154.044 15.860, 153.871 14.579, 154.813 12.511 C 157.075 7.546, 164.715 10.253, 168.710 17.435 C 169.757 19.316, 169.952 19.295, 175.866 16.641 C 179.210 15.140, 184.205 13.645, 186.966 13.318 L 191.985 12.723 192.250 78.112 L 192.515 143.500 192.757 71.750 L 193 0 153.500 0 L 114 0 113.894 7.250 C 113.805 13.285, 113.615 14.067, 112.760 11.919 C 112.195 10.499, 110.443 8.851, 108.866 8.256 C 106.445 7.342, 106 6.617, 106 3.587 C 106 -0.753, 103.527 -1.380, 102.698 2.750 C 102.170 5.375, 101.866 5.505, 96.020 5.612 C 90.046 5.722, 89.881 5.654, 89.322 2.862 C 88.450 -1.500, 86 -0.780, 86 3.839 C 86 6.953, 85.533 7.892, 83.528 8.805 C 79.269 10.746, 79.411 13.887, 84.175 23.118 C 90.616 35.601, 91.712 38.885, 91.228 44.250 L 90.799 49 85.981 49 C 77.443 49, 78 50.753, 78 23.893 L 78 0 39 0 L 0 0 0 72 M 0.474 72.500 C 0.474 112.100, 0.598 128.154, 0.750 108.176 C 0.901 88.198, 0.901 55.798, 0.750 36.176 C 0.598 16.554, 0.474 32.900, 0.474 72.500 M 109.811 21.125 C 102.331 32.025, 98.145 45, 102.108 45 C 102.599 45, 103 45.900, 103 47 C 103 48.689, 103.662 48.998, 107.250 48.985 C 114.167 48.960, 114.085 49.180, 113.776 31.550 L 113.500 15.751 109.811 21.125 M 142.071 141.415 C 141.325 142.313, 141.012 143.345, 141.374 143.707 C 142.308 144.641, 144.306 142.417, 143.826 140.978 C 143.550 140.150, 143.008 140.285, 142.071 141.415 M 159.200 141.200 C 157.567 142.833, 157.692 144, 159.500 144 C 160.333 144, 161 143.111, 161 142 C 161 139.669, 160.814 139.586, 159.200 141.200" stroke="none" fill="black" fill-rule="evenodd"/>
</svg>