<svg xmlns="http://www.w3.org/2000/svg" width="192" height="144" viewBox="0 0 192 144" version="1.1">
	<path d="M 51.572 30.531 C 50.707 31.850, 49.998 33.958, 49.996 35.215 C 49.994 36.472, 49.094 38.973, 47.996 40.774 C 46.898 42.575, 46 44.628, 46 45.336 C 46 46.929, 51.362 51, 53.460 51 C 55.736 51, 55.330 52.680, 52.899 53.316 C 51.642 53.645, 51.084 54.326, 51.509 55.014 C 51.899 55.646, 51.113 57.363, 49.763 58.831 C 43.636 65.488, 42.567 69.329, 46.018 72.283 C 48.178 74.133, 48.082 76.255, 45.532 83 C 43.480 88.427, 41.203 97.634, 39.474 107.500 C 38.606 112.450, 37.447 118.477, 36.897 120.894 C 36.348 123.311, 35.316 129.498, 34.604 134.644 L 33.309 144 53.263 144 L 73.217 144 72.650 141.741 C 72.338 140.498, 71.779 134.086, 71.408 127.491 C 71.034 120.844, 69.722 111.302, 68.464 106.081 C 66.518 98, 66.395 96.462, 67.598 95.259 C 68.369 94.488, 69 93.108, 69 92.193 C 69 91.278, 70.217 88.123, 71.705 85.182 C 74.377 79.902, 74.390 79.776, 72.776 75.167 C 71.877 72.600, 70.835 68.700, 70.459 66.500 C 70.084 64.300, 68.702 60.620, 67.388 58.322 C 66.075 56.024, 65 53.886, 65 53.572 C 65 53.257, 66.340 53, 67.977 53 C 70.052 53, 71.452 52.240, 72.599 50.489 C 74.060 48.260, 74.095 47.305, 72.916 41.991 C 71.017 33.430, 66.610 29.245, 58.815 28.601 C 53.671 28.176, 52.997 28.355, 51.572 30.531 M 138.454 59.047 C 134.765 62.825, 134.175 63.075, 129.603 62.797 C 123.646 62.436, 122.452 64.225, 126.965 66.749 C 129.346 68.080, 129.997 69.045, 129.682 70.774 C 129.455 72.024, 129.643 73.279, 130.101 73.563 C 130.560 73.846, 130.679 75.356, 130.367 76.917 C 130.046 78.519, 130.278 80.054, 130.899 80.438 C 132.803 81.614, 132.100 83.997, 129.500 85.182 C 128.125 85.808, 127 86.772, 127 87.323 C 127 87.874, 125.568 90.556, 123.819 93.282 C 120.714 98.121, 120.665 98.373, 121.797 103.767 C 122.434 106.807, 123.631 110.040, 124.456 110.952 C 125.727 112.356, 125.810 114.283, 124.998 123.524 C 124.374 130.629, 124.381 134.781, 125.019 135.419 C 125.559 135.959, 126 138.110, 126 140.200 C 126 143.724, 126.210 144, 128.892 144 C 131.142 144, 131.922 143.446, 132.411 141.500 C 132.756 140.125, 133.431 139, 133.911 139 C 134.391 139, 135.066 140.125, 135.411 141.500 C 135.900 143.451, 136.678 144, 138.952 144 C 140.936 144, 142.058 143.394, 142.468 142.099 C 142.800 141.054, 144.181 139.921, 145.536 139.580 C 148.638 138.802, 148.642 137.495, 145.577 125.701 L 143.155 116.376 146.125 110.384 C 147.758 107.088, 149.117 103.516, 149.143 102.446 C 149.170 101.376, 147.996 97.202, 146.534 93.171 C 144.734 88.207, 144.083 84.899, 144.517 82.921 C 145.259 79.543, 146.106 79.359, 150.086 81.710 C 152.230 82.977, 153.272 83.128, 154.106 82.294 C 154.939 81.461, 154.555 80.283, 152.623 77.750 L 150.015 74.331 152.233 68.243 C 154.442 62.177, 154.443 62.147, 152.477 59.975 C 150.279 57.545, 145.815 55, 143.753 55 C 143.012 55, 140.627 56.821, 138.454 59.047 M 141.697 98.393 C 141.288 99.434, 141.189 100.522, 141.476 100.810 C 142.389 101.722, 143.191 100.227, 142.809 98.328 C 142.459 96.588, 142.405 96.591, 141.697 98.393" stroke="none" fill="black" fill-rule="evenodd"/>
</svg>