<svg xmlns="http://www.w3.org/2000/svg" width="192" height="144" viewBox="0 0 192 144" version="1.1">
	<path d="M 0 72 L 0 144 29.500 144 C 55.072 144, 59 143.800, 59 142.498 C 59 139.672, 64.843 124.131, 69.884 113.551 C 74.817 103.195, 79.813 88.695, 82.042 78.259 C 83.008 73.740, 82.934 72.791, 81.509 71.366 C 80.458 70.316, 80.069 68.861, 80.441 67.379 C 80.979 65.235, 80.781 65.094, 78.012 65.648 C 75.153 66.219, 74.876 65.976, 72.648 60.927 C 71.169 57.575, 70.088 56.140, 69.728 57.052 C 69.391 57.908, 69.134 57.479, 69.100 56 C 69.012 52.184, 73.612 40.042, 76.182 37.306 C 81.603 31.536, 91.726 27.702, 101.237 27.817 C 106.269 27.878, 107.806 28.428, 113.737 32.291 C 122.038 37.698, 123.259 39.055, 126.063 46 C 127.893 50.533, 128.282 53.435, 128.273 62.500 C 128.266 68.550, 127.527 77.883, 126.631 83.239 C 124.151 98.050, 124.376 100.874, 128.452 106.086 C 130.351 108.514, 137.632 115.900, 144.632 122.500 C 151.632 129.100, 158.904 136.650, 160.793 139.277 L 164.226 144.054 178.363 143.777 L 192.500 143.500 192.757 71.750 L 193.013 0 96.507 0 L 0 0 0 72 M 0.474 72.500 C 0.474 112.100, 0.598 128.154, 0.750 108.176 C 0.901 88.198, 0.901 55.798, 0.750 36.176 C 0.598 16.554, 0.474 32.900, 0.474 72.500 M 75.158 142 C 75.158 143.375, 75.385 143.938, 75.662 143.250 C 75.940 142.563, 75.940 141.438, 75.662 140.750 C 75.385 140.063, 75.158 140.625, 75.158 142 M 124 142.500 C 124 143.325, 124.730 144, 125.622 144 C 126.951 144, 127.020 143.729, 126 142.500 C 125.315 141.675, 124.585 141, 124.378 141 C 124.170 141, 124 141.675, 124 142.500" stroke="none" fill="black" fill-rule="evenodd"/>
</svg>