<svg xmlns="http://www.w3.org/2000/svg" width="192" height="144" viewBox="0 0 192 144" version="1.1">
	<path d="M 0 72 L 0 144 54.875 144 L 109.751 144 113.875 135.405 C 116.143 130.678, 118.899 125.546, 119.999 124.001 C 121.100 122.456, 122 120.451, 122 119.547 C 122 117.413, 108.212 95.774, 103.295 90.191 C 99.977 86.424, 98.620 85.686, 92.500 84.316 C 86.651 83.006, 84.872 82.093, 81.682 78.761 C 79.582 76.568, 77.435 73.644, 76.910 72.263 C 75.419 68.343, 76.852 63.536, 80.591 59.912 C 82.466 58.095, 84 55.994, 84 55.245 C 84 54.495, 84.478 54.178, 85.063 54.539 C 85.648 54.900, 87.035 54.373, 88.147 53.367 C 90.905 50.871, 96.998 51.150, 100.935 53.954 C 106.536 57.942, 109.976 67.564, 107.505 72.328 C 106.152 74.937, 106.312 75.176, 116.063 85.064 C 121.528 90.606, 126 94.461, 126 93.629 C 126 92.798, 125.550 91.840, 125 91.500 C 122.832 90.160, 124.007 84.697, 127.345 80.603 C 131.961 74.939, 133 72.711, 133 68.473 C 133 66.330, 133.828 63.763, 135 62.273 C 137.415 59.203, 137.517 57.183, 135.411 54.176 C 134.537 52.928, 134.097 51.189, 134.434 50.312 C 134.944 48.983, 134.792 48.928, 133.523 49.981 C 132.259 51.030, 132 50.951, 132 49.515 C 132 48.277, 131.503 47.978, 130.250 48.463 C 125.292 50.381, 123.192 50.228, 121.946 47.857 C 120.572 45.244, 116.254 39.723, 112.851 36.230 C 111.152 34.486, 110.913 33.687, 111.820 32.780 C 113.755 30.845, 113.235 30.239, 108.214 28.571 C 105.582 27.697, 102.662 26.086, 101.724 24.991 C 100.787 23.896, 99.356 23, 98.545 23 C 97.733 23, 95.577 21.689, 93.753 20.088 C 91.928 18.486, 88.299 16.040, 85.688 14.651 C 76.056 9.529, 69.247 3.557, 69.841 0.750 C 69.929 0.337, 54.250 0, 35 0 L 0 0 0 72 M 189.507 82.132 C 190.665 85.953, 192.200 86.909, 191.827 83.577 C 191.647 81.970, 190.890 80.454, 190.145 80.209 C 189.139 79.878, 188.975 80.373, 189.507 82.132 M 144.995 120.505 C 143.764 121.815, 141.240 123.608, 139.385 124.488 C 136.917 125.659, 135.215 127.694, 133.043 132.072 C 131.410 135.364, 129.382 139.044, 128.537 140.251 C 127.692 141.458, 127 142.795, 127 143.223 C 127 143.650, 133.715 144, 141.922 144 L 156.845 144 158.003 140.490 C 159.074 137.245, 158.880 136.473, 155.421 130.240 C 153.364 126.533, 150.680 122.290, 149.457 120.812 L 147.233 118.123 144.995 120.505" stroke="none" fill="black" fill-rule="evenodd"/>
</svg>