<svg xmlns="http://www.w3.org/2000/svg" width="192" height="144" viewBox="0 0 192 144" version="1.1">
	<path d="M 0 22.067 L 0 44.135 2.250 43.413 C 14.548 39.468, 23.115 40.448, 29.158 46.491 C 32.231 49.565, 32.663 50.629, 32.790 55.440 C 32.872 58.558, 32.307 62.101, 31.473 63.700 C 30.670 65.240, 30.010 67.203, 30.006 68.063 C 30.003 68.923, 28.650 70.919, 27 72.500 C 23.671 75.689, 23.210 78.099, 25.555 80.045 C 30.250 83.942, 29.323 87.853, 23.114 90.338 L 19.170 91.916 20.502 96.339 C 21.859 100.850, 22.787 129.141, 21.671 132 C 21.349 132.825, 20.677 135.862, 20.179 138.750 L 19.273 144 35.776 144 C 50.308 144, 52.442 143.791, 53.642 142.250 C 54.940 140.583, 54.976 140.583, 54.395 142.250 C 53.821 143.898, 56.175 144, 94.823 144 L 135.861 144 136.180 141.750 C 136.595 138.830, 138.406 138.841, 138.822 141.766 L 139.143 144.032 165.642 143.766 L 192.141 143.500 192.453 71.750 L 192.765 0 96.383 0 L 0 0 0 22.067 M 0.426 22.500 C 0.427 34.600, 0.571 39.413, 0.747 33.195 C 0.923 26.977, 0.922 17.077, 0.746 11.195 C 0.569 5.313, 0.425 10.400, 0.426 22.500 M 87.218 4.154 C 87.737 5.712, 89.974 5.984, 90.053 4.500 C 90.082 3.950, 89.355 3.345, 88.438 3.154 C 87.395 2.939, 86.938 3.313, 87.218 4.154 M 58.667 6.667 C 58.300 7.033, 58 7.798, 58 8.367 C 58 8.993, 58.466 8.934, 59.183 8.217 C 59.834 7.566, 60.134 6.801, 59.850 6.517 C 59.566 6.232, 59.033 6.300, 58.667 6.667 M 119.813 18.683 C 120.534 18.972, 121.397 18.936, 121.729 18.604 C 122.061 18.272, 121.471 18.036, 120.417 18.079 C 119.252 18.127, 119.015 18.364, 119.813 18.683 M 190.531 27.293 C 190.103 28.279, 190.034 29.367, 190.376 29.710 C 191.392 30.725, 192.211 29.299, 191.743 27.328 C 191.329 25.581, 191.275 25.580, 190.531 27.293 M 120 35.893 C 120 36.907, 123.046 38.288, 123.743 37.590 C 123.995 37.339, 123.904 36.653, 123.541 36.067 C 122.743 34.776, 120 34.641, 120 35.893 M 44.667 43.667 C 43.690 44.644, 43.853 48, 44.878 48 C 45.360 48, 46.299 47.345, 46.964 46.544 C 48.740 44.403, 46.605 41.729, 44.667 43.667 M 58.667 76.667 C 57.545 77.788, 57.923 79, 59.393 79 C 60.159 79, 61.045 78.325, 61.362 77.500 C 61.939 75.996, 59.951 75.382, 58.667 76.667 M 121 80 C 121 80.550, 121.450 81, 122 81 C 122.550 81, 123 80.550, 123 80 C 123 79.450, 122.550 79, 122 79 C 121.450 79, 121 79.450, 121 80 M 20.015 81.750 C 20.024 82.162, 20.423 83.120, 20.904 83.878 C 22.013 85.630, 24.101 84.427, 23.349 82.468 C 22.777 80.977, 19.987 80.376, 20.015 81.750 M 182.500 82 C 185.263 83.187, 187 83.187, 187 82 C 187 81.450, 185.537 81.032, 183.750 81.070 C 181.026 81.129, 180.824 81.280, 182.500 82 M 125 85.443 C 125 87.912, 128.599 91.366, 130.163 90.399 C 131.531 89.554, 131.116 86.259, 129.429 84.571 C 127.077 82.220, 125 82.629, 125 85.443 M 156.500 84 C 155.447 85.704, 156.985 87, 160.059 87 C 163.676 87, 163.855 85.711, 160.453 84.161 C 157.360 82.751, 157.274 82.748, 156.500 84 M 85 91.500 C 85 92.325, 85.675 93, 86.500 93 C 87.325 93, 88 92.325, 88 91.500 C 88 90.675, 87.325 90, 86.500 90 C 85.675 90, 85 90.675, 85 91.500 M 1.032 98.250 C 1.061 101.250, 1.171 101.358, 2.463 99.653 C 3.233 98.637, 3.620 97.174, 3.324 96.403 C 2.347 93.857, 0.999 94.943, 1.032 98.250 M 107 100 C 107 100.550, 107.450 101, 108 101 C 108.550 101, 109 100.550, 109 100 C 109 99.450, 108.550 99, 108 99 C 107.450 99, 107 99.450, 107 100 M 163 100 C 161.781 100.788, 161.910 100.972, 163.691 100.985 C 164.896 100.993, 166.160 100.550, 166.500 100 C 167.287 98.727, 164.970 98.727, 163 100 M 101 102.583 C 101 104.349, 103.153 104.042, 103.771 102.188 C 103.989 101.534, 103.454 101, 102.583 101 C 101.713 101, 101 101.713, 101 102.583 M 104 106 C 104 106.550, 104.648 107, 105.441 107 C 106.234 107, 107.160 106.550, 107.500 106 C 107.840 105.450, 107.191 105, 106.059 105 C 104.927 105, 104 105.450, 104 106 M 165.046 109.914 C 164.272 111.361, 164.257 112, 164.996 112 C 166.209 112, 167.529 109.195, 166.705 108.371 C 166.406 108.073, 165.660 108.767, 165.046 109.914 M 53.250 124.662 C 51.392 125.412, 51.738 128.674, 53.750 129.384 C 54.712 129.724, 56.063 130.263, 56.750 130.584 C 58.090 131.209, 58.457 128.354, 57.393 125.582 C 56.784 123.993, 55.573 123.725, 53.250 124.662 M 120.441 126.555 C 118.577 128.049, 118.589 128.067, 120.750 127.020 C 121.987 126.420, 123 125.720, 123 125.465 C 123 124.700, 122.481 124.921, 120.441 126.555 M 151.676 130.402 C 151.051 132.031, 151.891 133.186, 153.139 132.414 C 154.275 131.712, 154.250 129, 153.107 129 C 152.616 129, 151.972 129.631, 151.676 130.402 M 1 137.500 L 1 144 4.321 144 L 7.641 144 7.010 139.081 C 6.347 133.906, 4.680 131, 2.378 131 C 1.349 131, 1 132.646, 1 137.500 M 11.701 131.632 C 11.316 132.018, 11 134.958, 11 138.167 C 11 143.751, 11.109 144, 13.548 144 C 16.038 144, 16.089 143.858, 15.798 137.760 C 15.574 133.081, 15.113 131.446, 13.951 131.225 C 13.099 131.063, 12.087 131.246, 11.701 131.632 M 91.600 135.600 C 91.244 136.527, 91.178 137.511, 91.453 137.786 C 91.728 138.061, 92.244 137.527, 92.600 136.600 C 92.956 135.673, 93.022 134.689, 92.747 134.414 C 92.472 134.139, 91.956 134.673, 91.600 135.600" stroke="none" fill="black" fill-rule="evenodd"/>
</svg>