<svg xmlns="http://www.w3.org/2000/svg" width="192" height="144" viewBox="0 0 192 144" version="1.1">
	<path d="M 0 56.002 L 0 112.088 5.160 118.294 C 7.998 121.707, 14.146 128.887, 18.822 134.250 L 27.323 144 109.501 144 L 191.680 144 192.340 119.838 C 193.119 91.327, 192.883 -4.250, 192.064 7.766 L 191.500 16.032 187 19.012 C 184.375 20.750, 181.170 21.993, 179.309 21.996 C 175.963 22, 174.093 23.447, 176.244 24.366 C 177.052 24.712, 176.252 25.896, 174 27.688 C 165.041 34.816, 151.588 51.029, 153.973 51.824 C 154.702 52.067, 153.882 53.558, 151.891 55.612 C 148.220 59.400, 148.470 59.666, 153.654 57.500 C 159.651 54.994, 160.251 55.430, 157.788 60.500 C 156.500 63.150, 154.919 65, 153.940 65 C 151.506 65, 145.100 60.482, 140.358 55.421 C 138.081 52.989, 135.698 51, 135.063 51 C 132.416 51, 129.324 55.761, 128.039 61.815 C 126.575 68.716, 124.860 70.583, 119.034 71.619 C 114.360 72.450, 111.179 75.498, 110.382 79.910 C 108.804 88.638, 104.742 92.364, 97.379 91.837 C 92.942 91.519, 92.627 91.663, 91.899 94.336 C 91.474 95.896, 88.847 99.583, 86.060 102.530 C 77.741 111.326, 77.423 114.460, 83.549 127.243 C 88.182 136.910, 87.896 138.394, 82.691 131.691 C 72.298 118.308, 55.009 99.549, 42.422 88 C 24.207 71.287, 25 72.453, 25 62.384 C 25 54.979, 20.907 27.550, 16.735 7 L 15.416 0.500 7.708 0.208 L 0 -0.084 0 56.002 M 57.997 2.144 C 61.509 5.065, 70.170 9.295, 79.170 12.484 C 83.389 13.979, 87.705 16.008, 88.762 16.993 C 89.991 18.138, 91.333 21.982, 92.486 27.661 C 93.925 34.750, 94.791 36.919, 96.785 38.422 C 98.648 39.828, 99.700 40.044, 100.931 39.275 C 101.838 38.709, 104.932 37.922, 107.806 37.527 C 111.342 37.040, 113.351 36.213, 114.016 34.970 C 114.557 33.959, 115 29.294, 115 24.605 C 115 14.467, 114.847 14.668, 127.948 7.576 C 132.950 4.869, 137.539 2.056, 138.144 1.326 C 139.056 0.228, 132.047 0.006, 97.372 0.033 L 55.500 0.067 57.997 2.144 M 0.468 57 C 0.468 88.075, 0.594 100.788, 0.749 85.250 C 0.904 69.713, 0.904 44.288, 0.749 28.750 C 0.594 13.213, 0.468 25.925, 0.468 57 M 96.958 45.078 C 95.509 47.786, 96.414 50, 98.969 50 C 101.046 50, 101.626 47.795, 100.393 44.582 C 99.561 42.414, 98.285 42.599, 96.958 45.078 M 163.500 58 C 158.262 63.318, 158.113 64.448, 163.138 60.750 C 165.630 58.916, 169.905 53, 168.738 53 C 168.566 53, 166.209 55.250, 163.500 58" stroke="none" fill="black" fill-rule="evenodd"/>
</svg>