<svg xmlns="http://www.w3.org/2000/svg" width="192" height="144" viewBox="0 0 192 144" version="1.1">
	<path d="M 115.020 13.476 C 114.130 14.548, 112.832 14.924, 111.324 14.545 C 108.727 13.893, 108.537 14.266, 110.035 17.066 C 110.754 18.409, 110.743 19.612, 110 21 C 109.121 22.642, 109.240 23, 110.658 23 C 111.609 23, 109.118 25.304, 105.121 28.119 C 98.857 32.533, 97.383 33.162, 94.428 32.682 C 91.483 32.204, 91 32.407, 91 34.122 C 91 35.220, 90.550 35.840, 90 35.500 C 88.168 34.368, 88.968 37.200, 91.955 42.421 C 94.835 47.456, 94.872 47.692, 93.428 51.883 C 92.614 54.247, 91.579 58.874, 91.129 62.164 L 90.311 68.146 95.211 73.020 C 98.642 76.433, 100.619 77.702, 101.806 77.253 C 103.323 76.679, 103.341 76.772, 101.979 78.148 C 99.646 80.505, 96.395 82, 93.600 82 C 92.152 82, 89.792 83.248, 88.086 84.916 C 86.445 86.520, 84.179 88.126, 83.051 88.484 C 81.923 88.842, 80.996 89.667, 80.992 90.317 C 80.982 91.663, 73.401 96.068, 72.554 95.221 C 72.249 94.916, 72 93.857, 72 92.867 C 72 90.340, 68.846 84.008, 67.565 83.961 C 66.979 83.940, 65.600 82.509, 64.500 80.782 C 62.252 77.252, 59.241 75.579, 60.354 78.479 C 61.056 80.311, 60.291 80.309, 52.828 78.459 C 50.404 77.858, 49.873 78.292, 47.088 83.148 C 45.160 86.509, 44.015 89.904, 44.009 92.276 L 44 96.051 46.929 94.537 C 52.758 91.522, 59.151 95.343, 62.764 104 C 63.567 105.925, 64.737 107.831, 65.362 108.235 C 67.435 109.573, 72.025 109.028, 76.074 106.962 C 84.854 102.483, 84.732 102.459, 84.788 108.651 C 84.815 111.677, 85.376 116.397, 86.033 119.140 C 87.155 123.813, 87.086 124.280, 84.941 126.563 C 83.682 127.903, 81.653 129, 80.433 129 C 79.212 129, 77.934 129.729, 77.593 130.619 C 77.053 132.027, 75.433 132.172, 65.236 131.725 C 54.990 131.275, 51.431 130.596, 37.212 126.378 C 22.881 122.126, 20.853 121.264, 20.335 119.200 C 19.497 115.858, 15.824 114.842, 7.359 115.609 L 0 116.276 0 130.138 L 0 144 61.082 144 L 122.163 144 120.009 140.514 L 117.855 137.029 120.336 134.764 C 123.170 132.177, 125.450 125.615, 127.025 115.516 C 127.623 111.675, 128.859 107.709, 129.770 106.702 C 130.920 105.431, 131.458 102.912, 131.529 98.467 C 131.604 93.836, 132.125 91.519, 133.414 90.095 C 135.708 87.560, 135.048 86.629, 128.712 83.462 C 121.565 79.891, 121.369 79.527, 125.530 77.553 C 132.152 74.410, 134.527 65.321, 131.637 54.180 C 130.295 49.007, 130.319 48.860, 133.137 44.970 C 136.542 40.269, 136.736 38.368, 133.901 37.469 C 130.012 36.234, 117.063 23.812, 118.994 23.169 C 119.648 22.951, 121.941 24.489, 124.090 26.588 C 128.207 30.608, 129.368 30.488, 130.494 25.926 C 131.229 22.943, 130.639 22.342, 123.162 18.466 C 120.226 16.944, 117.502 14.827, 117.107 13.761 C 116.447 11.976, 116.283 11.954, 115.020 13.476" stroke="none" fill="black" fill-rule="evenodd"/>
</svg>