<svg xmlns="http://www.w3.org/2000/svg" width="192" height="144" viewBox="0 0 192 144" version="1.1">
	<path d="M 52.535 15.104 C 50.144 17.203, 49 19.072, 49 20.881 C 49 22.352, 48.350 24.484, 47.554 25.619 C 46.280 27.438, 46.340 28.605, 48.055 35.470 C 49.849 42.648, 49.884 43.653, 48.501 48.310 C 46.596 54.722, 46.596 58.420, 48.500 60 C 49.325 60.685, 50 60.815, 50 60.290 C 50 58.827, 53.186 59.400, 56.239 61.411 C 58.225 62.719, 58.744 63.635, 58.126 64.740 C 57.628 65.629, 57.735 67.488, 58.383 69.204 C 59.341 71.743, 59.230 72.292, 57.569 73.222 C 54.957 74.683, 48.028 82.228, 48.012 83.628 C 48.006 84.248, 47.295 85.340, 46.434 86.055 C 40.868 90.674, 40.931 98.847, 46.558 102.167 C 49.779 104.067, 49.998 104.528, 49.976 109.349 C 49.942 116.747, 48.677 121.206, 45.118 126.480 C 43.033 129.569, 42.174 131.845, 42.540 133.307 C 42.842 134.513, 42.414 137.412, 41.589 139.750 L 40.089 144 63.294 143.996 L 86.500 143.991 90.348 136.496 C 92.465 132.373, 94.650 129, 95.205 129 C 95.760 129, 95.926 129.750, 95.574 130.667 C 95.222 131.584, 94.660 134.959, 94.325 138.167 L 93.715 144 101.858 144 C 106.336 144, 110 143.698, 110 143.329 C 110 142.960, 109.406 141.947, 108.679 141.079 C 107.867 140.108, 107.590 138.345, 107.961 136.500 L 108.564 133.500 110.407 136.265 C 111.421 137.786, 112.250 140.149, 112.250 141.515 L 112.250 144 124.278 144 L 136.306 144 135.692 132.536 C 135.229 123.900, 134.578 120.093, 133.053 117.104 C 131.940 114.921, 130.572 112.854, 130.014 112.509 C 128.754 111.730, 128.700 102.022, 129.946 100.054 C 130.505 99.170, 130.485 97.906, 129.895 96.804 C 129.263 95.622, 129.276 95, 129.933 95 C 130.486 95, 130.711 94.411, 130.435 93.692 C 130.159 92.972, 130.848 91.328, 131.967 90.039 C 133.085 88.749, 134 87.165, 134 86.518 C 134 85.647, 135.699 85.569, 140.550 86.219 C 144.152 86.702, 149.665 86.963, 152.800 86.798 L 158.500 86.500 158.810 82.758 C 159.219 77.817, 156.254 75.070, 145.975 70.867 C 139.147 68.076, 138.113 67.317, 137.593 64.716 C 136.501 59.254, 136.899 53, 138.339 53 C 139.808 53, 142 48.914, 142 46.175 C 142 41.315, 135.764 38.225, 119.140 34.847 L 112.780 33.554 110.390 36.333 C 108.908 38.056, 108 40.373, 108 42.431 C 108 44.257, 106.436 49.181, 104.525 53.375 L 101.050 61 92.966 61 C 87.487 61, 85.095 60.656, 85.542 59.932 C 85.905 59.344, 86.777 59.084, 87.479 59.354 C 88.182 59.623, 89.261 59.339, 89.878 58.722 C 90.707 57.893, 91 57.916, 91 58.809 C 91 60.877, 97.748 55.751, 99.295 52.508 C 102.965 44.812, 101.858 38.716, 95.220 30.065 C 93.724 28.116, 92.050 25.166, 91.500 23.510 C 90.703 21.110, 88.981 19.755, 83 16.820 C 75.132 12.961, 69.458 12.115, 64.380 14.046 C 62.177 14.883, 61.458 14.784, 60.766 13.546 C 59.419 11.140, 56.398 11.711, 52.535 15.104 M 79.218 111.654 C 76.505 120.782, 75.600 125.370, 76.643 124.702 C 77.114 124.400, 79.300 120.759, 81.500 116.610 L 85.500 109.067 83.376 106.938 L 81.253 104.809 79.218 111.654" stroke="none" fill="black" fill-rule="evenodd"/>
</svg>