<svg xmlns="http://www.w3.org/2000/svg" width="192" height="144" viewBox="0 0 192 144" version="1.1">
	<path d="M 0 72.011 L 0 144.022 41.250 143.761 L 82.500 143.500 83.804 138.500 C 86.035 129.946, 86.427 114.411, 84.606 106.688 C 82.420 97.417, 82.570 94.425, 85.622 86.397 C 87.064 82.604, 88.338 78.417, 88.455 77.094 C 88.571 75.770, 90.027 73.472, 91.689 71.987 C 96.415 67.763, 96.578 65.060, 92.471 58.957 C 90.366 55.829, 89.174 53.028, 89.504 51.988 C 89.877 50.811, 89.410 50.079, 88.061 49.726 C 86.963 49.439, 85.300 47.599, 84.364 45.638 C 82.746 42.244, 82.755 41.869, 84.564 37.859 C 88.173 29.855, 95.305 25.733, 105.299 25.874 C 113.355 25.987, 118.308 29.304, 121.912 37 C 124.286 42.068, 124.502 43.677, 124.668 57.500 C 124.820 70.172, 125.877 89.619, 126.556 92.250 C 126.663 92.662, 126.806 104.481, 126.875 118.514 L 127 144.027 159.750 143.764 L 192.500 143.500 192.757 71.750 L 193.013 0 96.507 0 L 0 0 0 72.011 M 0.474 72.500 C 0.474 112.100, 0.598 128.154, 0.750 108.176 C 0.901 88.198, 0.901 55.798, 0.750 36.176 C 0.598 16.554, 0.474 32.900, 0.474 72.500" stroke="none" fill="black" fill-rule="evenodd"/>
</svg>