<svg xmlns="http://www.w3.org/2000/svg" width="192" height="144" viewBox="0 0 192 144" version="1.1">
	<path d="M 0 72 L 0 144 14 144 C 22.817 144, 28 143.624, 28 142.984 C 28 142.161, 30.829 136.008, 37.827 121.611 C 38.065 121.122, 37.764 121.028, 37.159 121.402 C 35.366 122.510, 34.938 118.381, 35.306 103.500 C 35.635 90.177, 35.854 88.895, 39.831 77 C 42.130 70.125, 44.506 60.675, 45.111 56 C 46.545 44.927, 48.242 40.246, 52.715 35.020 C 56.691 30.375, 61.185 28, 65.999 28 C 69.810 28, 70.784 25.846, 68.530 22.406 C 66.536 19.362, 67.038 18.415, 69.849 19.919 C 74.524 22.421, 83 19.757, 83 15.785 C 83 13.372, 89.344 4.301, 89.746 6.140 C 89.943 7.042, 89.214 9.245, 88.125 11.035 C 86.412 13.851, 86.338 14.481, 87.571 15.714 C 88.804 16.947, 88.649 17.594, 86.416 20.522 C 83.335 24.561, 83.780 26.991, 88.370 31.206 L 91.500 34.080 87.754 33.836 C 82.109 33.468, 81.137 35.147, 84.328 39.752 C 85.787 41.857, 87.268 45.676, 87.619 48.238 C 88.206 52.522, 88.007 53.147, 85.134 56.020 C 82.849 58.305, 81.269 59.058, 79.255 58.822 C 76.915 58.549, 76.536 58.839, 76.738 60.750 C 76.888 62.160, 76.434 63, 75.523 63 C 72.075 63, 70.861 70.897, 73.519 76.036 C 74.354 77.652, 75.256 81.547, 75.524 84.692 C 75.792 87.837, 76.404 90.804, 76.885 91.285 C 77.989 92.389, 87.264 88.471, 89.563 85.930 C 90.787 84.578, 91.108 83.051, 90.699 80.530 C 89.946 75.890, 91.994 73.789, 96.874 74.197 C 100.346 74.487, 100.509 74.670, 100.712 78.500 C 101.123 86.227, 101.571 86.725, 111.682 90.698 C 112.972 91.204, 115.652 86.702, 116.349 82.858 C 116.590 81.532, 117.510 78.716, 118.393 76.601 C 121.039 70.269, 120.015 63, 116.477 63 C 115.568 63, 115.113 62.162, 115.262 60.762 C 115.466 58.846, 115.069 58.558, 112.500 58.759 C 110.674 58.902, 108.574 58.211, 107.134 56.993 C 105.008 55.195, 104.808 54.349, 105.170 48.666 C 105.509 43.345, 106.083 41.723, 108.787 38.443 C 110.554 36.299, 112 33.988, 112 33.307 C 112 32.626, 110.610 30.486, 108.911 28.552 C 107.212 26.617, 106.029 24.463, 106.281 23.767 C 106.534 23.070, 106.140 21.021, 105.406 19.213 C 104.600 17.229, 104.496 16.188, 105.143 16.588 C 105.860 17.032, 105.969 16.477, 105.471 14.908 C 104.760 12.668, 104.880 12.696, 108.184 15.532 C 110.085 17.165, 113.101 21.109, 114.885 24.297 C 117.475 28.923, 118.521 29.983, 120.065 29.547 C 121.129 29.246, 122.848 28.761, 123.885 28.469 C 127.170 27.544, 134.112 29.734, 137.199 32.668 C 142.942 38.127, 145.091 43.211, 146.627 54.973 C 147.414 61.003, 149.492 70.564, 151.245 76.218 C 154.115 85.478, 154.485 88.135, 154.966 102.943 L 155.500 119.386 161 121.020 C 164.025 121.918, 167.612 123.251, 168.972 123.981 C 172.904 126.092, 179.576 133.825, 182.083 139.177 C 184.338 143.991, 184.474 144.090, 188.443 143.798 L 192.500 143.500 192.757 71.750 L 193.013 0 96.507 0 L 0 0 0 72 M 0.474 72.500 C 0.474 112.100, 0.598 128.154, 0.750 108.176 C 0.901 88.198, 0.901 55.798, 0.750 36.176 C 0.598 16.554, 0.474 32.900, 0.474 72.500 M 84.500 97.061 C 80.633 99.528, 80.590 101.566, 84.410 101.290 C 87.716 101.051, 88.495 100.427, 89.455 97.250 C 90.299 94.457, 88.677 94.395, 84.500 97.061 M 102 96.965 C 102 99.877, 105.307 101.340, 106.732 99.058 C 107.672 97.553, 107.450 97.070, 105.382 96.128 C 102.119 94.642, 102 94.671, 102 96.965 M 110.667 100.667 C 110.300 101.033, 110 101.798, 110 102.367 C 110 102.993, 110.466 102.934, 111.183 102.217 C 111.834 101.566, 112.134 100.801, 111.850 100.517 C 111.566 100.233, 111.033 100.300, 110.667 100.667 M 93.978 104.567 C 93.297 106.630, 91.789 108.595, 90.400 109.227 C 87.502 110.548, 87.494 110.658, 89.989 114.750 C 92.655 119.122, 94.457 118.879, 101.545 113.190 C 103.904 111.296, 104.159 110.713, 102.961 109.955 C 101.002 108.716, 100.520 108.756, 96.314 110.513 C 91.725 112.431, 90.905 111.760, 94.931 109.382 C 97.937 107.606, 98.609 105.750, 97.393 102.582 C 96.421 100.049, 95.243 100.734, 93.978 104.567 M 116.188 104.063 C 116.428 104.784, 117.216 105.572, 117.938 105.813 C 118.688 106.063, 119.063 105.688, 118.813 104.938 C 118.572 104.216, 117.784 103.428, 117.063 103.188 C 116.313 102.938, 115.938 103.313, 116.188 104.063 M 83.566 112.892 C 82.689 114.312, 84.412 117.502, 89.126 123.187 C 95.146 130.447, 91.969 129.790, 84.993 122.333 C 78.865 115.782, 78.722 115.699, 75.564 116.841 C 73.801 117.478, 71.108 118, 69.581 118 L 66.804 118 67.489 124.250 C 67.865 127.688, 68.846 133.537, 69.667 137.250 L 71.160 144 98.080 144 L 125 144 124.986 138.750 C 124.967 131.396, 124.162 129, 121.709 129 L 119.651 129 121.738 126.750 C 123.436 124.918, 123.581 124.279, 122.518 123.310 C 121.800 122.656, 120.940 122.393, 120.607 122.727 C 120.273 123.060, 120 122.898, 120 122.367 C 120 121.835, 120.432 120.968, 120.960 120.440 C 121.573 119.827, 119.532 118.243, 115.311 116.054 L 108.702 112.627 104.935 114.795 C 98.424 118.542, 91 121.146, 91 119.682 C 91 117.718, 84.342 111.637, 83.566 112.892 M 162.500 143 C 162.840 143.550, 163.316 144, 163.559 144 C 163.802 144, 164 143.550, 164 143 C 164 142.450, 163.523 142, 162.941 142 C 162.359 142, 162.160 142.450, 162.500 143" stroke="none" fill="black" fill-rule="evenodd"/>
</svg>