<svg xmlns="http://www.w3.org/2000/svg" width="192" height="144" viewBox="0 0 192 144" version="1.1">
	<path d="M 0 72 L 0 144 43 144 L 86 144 86.046 141.750 C 86.071 140.512, 87.108 134.459, 88.350 128.299 L 90.609 117.098 87.554 116.799 C 83.743 116.426, 82.967 113.074, 85.571 108.238 C 88.345 103.088, 90.843 105.771, 88.484 111.366 C 87.796 112.998, 87.953 113.096, 89.732 112.143 C 92.412 110.709, 93.661 104.421, 91.717 102.150 C 89.050 99.033, 84 88.643, 84 86.273 C 84 83.397, 86.467 78.398, 88.428 77.300 C 90.057 76.388, 94.455 60.545, 93.506 59.009 C 93.163 58.454, 89.791 58, 86.012 58 C 79.629 58, 78.897 57.769, 75.682 54.737 C 73.618 52.790, 71.701 49.663, 70.931 46.987 C 69.301 41.326, 69.252 41.273, 67.641 43.476 C 66.818 44.602, 65.812 45.002, 65.026 44.516 C 63.479 43.560, 64.241 33.620, 66.026 31.469 C 66.662 30.702, 69.729 29.107, 72.841 27.923 C 77.997 25.963, 79.760 25.823, 92.667 26.353 L 106.834 26.934 114.047 20.893 C 122.906 13.472, 124.910 12.664, 132.500 13.443 C 136.828 13.887, 138.082 13.767, 137 13.009 C 135.710 12.106, 135.815 11.695, 137.750 10.069 C 138.988 9.030, 140 7.937, 140 7.641 C 140 6.755, 144.987 1.653, 145.423 2.093 C 145.645 2.317, 145.461 4.494, 145.014 6.932 C 144.568 9.369, 144.438 11.978, 144.726 12.730 C 145.015 13.481, 144.441 14.688, 143.452 15.411 C 141.764 16.645, 141.822 16.837, 144.384 18.516 C 149.299 21.736, 151 26.719, 151 37.893 L 151 47.867 158.909 55.535 C 169.460 65.765, 172.570 72.203, 172.335 83.332 C 172.244 87.640, 171.882 91.452, 171.530 91.803 C 170.932 92.401, 169.454 90.702, 168.700 88.551 C 168.517 88.029, 166.978 88.592, 165.279 89.801 C 163.581 91.010, 160.886 92, 159.291 92 C 154.831 92, 147.811 87.013, 145.498 82.201 C 144.399 79.915, 142.901 77.809, 142.169 77.522 C 139.822 76.602, 121.123 78.235, 120.698 79.397 C 120.477 80.004, 121.123 85.225, 122.134 91 C 125.756 111.682, 126.204 116.450, 125.561 127.500 C 125.209 133.550, 124.677 139.743, 124.378 141.263 L 123.835 144.026 158.168 143.763 L 192.500 143.500 192.757 71.750 L 193.013 0 96.507 0 L 0 0 0 72 M 0.474 72.500 C 0.474 112.100, 0.598 128.154, 0.750 108.176 C 0.901 88.198, 0.901 55.798, 0.750 36.176 C 0.598 16.554, 0.474 32.900, 0.474 72.500 M 68 36 C 68 36.550, 68.450 37, 69 37 C 69.550 37, 70 36.550, 70 36 C 70 35.450, 69.550 35, 69 35 C 68.450 35, 68 35.450, 68 36 M 65.683 37.650 C 64.686 38.648, 64.847 42, 65.893 42 C 67.199 42, 68.209 38.809, 67.216 37.816 C 66.749 37.349, 66.059 37.274, 65.683 37.650 M 73.750 42.744 C 69.619 43.694, 74.057 52.289, 80.244 55.323 C 84.532 57.426, 88.242 56.832, 87.272 54.199 C 86.928 53.264, 86.192 52.197, 85.637 51.826 C 84.988 51.393, 85.108 50.575, 85.972 49.534 C 86.858 48.466, 86.979 47.579, 86.325 46.925 C 84.723 45.323, 75.652 42.307, 73.750 42.744 M 87.500 49 C 87.160 49.550, 87.385 50, 88 50 C 88.615 50, 88.840 50.450, 88.500 51 C 87.838 52.071, 89.269 52.398, 90.264 51.402 C 91.043 50.623, 90.031 48, 88.952 48 C 88.493 48, 87.840 48.450, 87.500 49 M 120 70 L 120 76 123.750 75.991 C 129.387 75.978, 138 74.811, 138 74.060 C 138 73.148, 122.747 64, 121.227 64 C 120.394 64, 120 65.927, 120 70 M 95.047 68.376 C 93.779 71.713, 92.197 78.215, 92.219 80 C 92.230 80.825, 91.911 82.287, 91.512 83.250 C 90.312 86.141, 92.817 85.258, 94.349 82.250 C 95.800 79.398, 97.619 66, 96.555 66 C 96.222 66, 95.544 67.069, 95.047 68.376 M 146.729 80.073 C 147.530 83.135, 153.211 88.764, 156.278 89.534 C 158.095 89.990, 160.408 89.497, 163.520 87.990 C 168.636 85.514, 168.934 83.517, 164.196 83.466 C 162.180 83.444, 160.047 82.462, 158.225 80.716 C 155.981 78.566, 154.432 78, 150.789 78 C 146.626 78, 146.239 78.198, 146.729 80.073 M 159 79.848 C 159 80.353, 159.900 81.002, 161 81.290 C 162.100 81.577, 163 81.646, 163 81.442 C 163 81.237, 162.100 80.589, 161 80 C 159.895 79.409, 159 79.341, 159 79.848" stroke="none" fill="black" fill-rule="evenodd"/>
</svg>