<svg xmlns="http://www.w3.org/2000/svg" width="192" height="144" viewBox="0 0 192 144" version="1.1">
	<path d="M 84.524 4.250 C 85.625 10.937, 87.655 14.918, 90.517 16.006 C 96.938 18.448, 121.131 16.504, 128.011 12.995 C 132.607 10.650, 134 8.457, 134 3.566 L 134 0 108.912 0 L 83.824 0 84.524 4.250 M 94.925 55.282 C 92.079 57.483, 89.929 61.645, 90.624 63.609 C 91.753 66.798, 96.254 71, 98.541 71 C 102.157 71, 106 66.621, 106 62.500 C 106 56.337, 99.249 51.937, 94.925 55.282 M 183.750 93.739 C 180.588 93.937, 178 94.470, 178 94.922 C 178 95.374, 176.285 96.019, 174.188 96.354 C 166.603 97.567, 155.580 110.269, 148.025 126.500 C 145.283 132.391, 141.530 137.057, 137.191 139.971 C 135.986 140.780, 135 142.017, 135 142.721 C 135 143.730, 141.019 144, 163.500 144 L 192 144 192 118.500 C 192 98.666, 191.722 93.042, 190.750 93.189 C 190.063 93.293, 186.912 93.541, 183.750 93.739" stroke="none" fill="black" fill-rule="evenodd"/>
</svg>