<svg xmlns="http://www.w3.org/2000/svg" width="192" height="144" viewBox="0 0 192 144" version="1.1">
	<path d="M 63.825 6.909 C 64.273 14.831, 63.062 19.434, 57.226 32 C 54.781 37.266, 45.034 49.854, 42.871 50.541 C 41.826 50.873, 41.188 51.495, 41.453 51.924 C 41.718 52.352, 40.136 53.242, 37.938 53.900 C 35.741 54.559, 34.170 55.466, 34.448 55.915 C 34.990 56.793, 25.663 58.935, 20.583 59.100 C 17.594 59.196, 17.576 59.224, 20 60 C 21.679 60.538, 19.707 60.810, 14 60.830 C 8.293 60.850, 6.157 60.571, 7.500 59.982 C 9.197 59.237, 9.046 59.116, 6.500 59.185 C 4.850 59.230, 2.713 58.934, 1.750 58.526 C 0.099 57.828, 0 60.223, 0 100.893 L 0 144 61.500 144 C 95.325 144, 123 143.769, 123 143.486 C 123 143.204, 122.512 142.191, 121.917 141.236 C 121.032 139.818, 121.994 137.747, 127.167 129.934 C 130.650 124.673, 134.820 117.586, 136.434 114.184 L 139.368 108 136.759 102.250 C 133.071 94.120, 131.129 75.208, 133.426 69.782 C 134.292 67.737, 135 64.234, 135 61.997 C 135 58.161, 139.198 48.732, 144.528 40.598 C 147.523 36.026, 155.167 33, 163.719 33 C 172.144 33, 173.804 34.451, 170.005 38.495 C 168.220 40.395, 167.887 41.586, 168.392 44.276 C 168.982 47.423, 168.659 47.977, 163.844 52.082 C 160.993 54.512, 157.829 56.970, 156.814 57.543 C 155.164 58.477, 155.329 58.717, 158.380 59.821 C 161.869 61.082, 164.909 65.991, 167.927 75.236 C 168.597 77.291, 169.563 79.230, 170.073 79.545 C 172.165 80.838, 170.874 84.142, 167.500 86.133 C 165.575 87.268, 164 88.630, 164 89.158 C 164 89.687, 165.742 93.805, 167.872 98.310 C 170.001 102.814, 172.574 108.300, 173.590 110.500 C 174.606 112.700, 177.590 118.170, 180.221 122.656 C 182.853 127.142, 185.789 133.797, 186.745 137.444 C 188.217 143.057, 188.793 144.031, 190.492 143.788 C 192.380 143.517, 192.519 142.630, 192.825 129 C 193.003 121.025, 192.837 88.737, 192.455 57.250 L 191.761 0 127.598 0 L 63.435 0 63.825 6.909 M 0.459 101 C 0.459 124.925, 0.589 134.713, 0.749 122.750 C 0.908 110.788, 0.908 91.213, 0.749 79.250 C 0.589 67.288, 0.459 77.075, 0.459 101 M 144 90.122 C 144 92.765, 144.227 93.056, 145.479 92.017 C 146.577 91.106, 146.697 90.302, 145.944 88.895 C 144.508 86.212, 144 86.533, 144 90.122" stroke="none" fill="black" fill-rule="evenodd"/>
</svg>