<svg xmlns="http://www.w3.org/2000/svg" width="192" height="144" viewBox="0 0 192 144" version="1.1">
	<path d="M 159.250 46.115 C 159.387 46.728, 157.181 48.406, 154.346 49.844 L 149.192 52.458 149.736 57.729 C 150.205 62.272, 150.041 63, 148.546 63 C 147.593 63, 146.584 63.874, 146.305 64.943 C 145.717 67.191, 141.479 68.409, 137.615 67.440 C 136.120 67.064, 134.384 67.266, 133.615 67.905 C 132.489 68.839, 132.720 69.934, 134.959 74.267 C 136.446 77.145, 138.347 79.633, 139.183 79.795 C 140.020 79.957, 141.783 78.952, 143.102 77.562 C 144.421 76.172, 145.786 75.027, 146.135 75.017 C 146.484 75.008, 146.535 78.037, 146.248 81.750 C 145.675 89.173, 143.076 96.866, 139.577 101.500 C 135.041 107.506, 135.733 110.099, 142.664 113.070 L 147.186 115.009 146.590 119.754 C 146.261 122.364, 146.365 127.060, 146.821 130.188 C 147.785 136.815, 146.873 139.241, 143.697 138.496 C 140.814 137.819, 138.713 139.267, 139.164 141.620 C 139.497 143.351, 140.774 143.522, 155.263 143.775 C 164.167 143.931, 171 143.659, 171 143.148 C 171 142.651, 170.371 140.727, 169.602 138.872 C 168.833 137.017, 167.900 132.125, 167.527 128 C 167.155 123.875, 166.367 118.827, 165.777 116.782 C 165.020 114.163, 165.016 112.684, 165.761 111.782 C 166.517 110.867, 166.396 109.354, 165.341 106.500 C 164.528 104.300, 163.068 100.022, 162.096 96.993 C 161.125 93.964, 159.841 90.571, 159.242 89.452 C 157.796 86.750, 159.547 78.453, 162.103 75.897 C 164.393 73.607, 164.580 70.160, 162.457 69.345 C 161.075 68.815, 161.080 68.569, 162.508 66.991 C 164.159 65.167, 168.356 63.860, 173.428 63.590 C 175.038 63.504, 176.559 62.823, 176.808 62.076 C 177.136 61.091, 176.606 60.875, 174.880 61.291 C 166.081 63.408, 165.297 63.335, 164.724 60.336 C 164.425 58.776, 164.537 56.864, 164.972 56.086 C 165.505 55.133, 164.824 53.881, 162.884 52.249 C 160.667 50.384, 160.145 49.272, 160.611 47.413 C 160.979 45.949, 160.781 45, 160.108 45 C 159.499 45, 159.113 45.502, 159.250 46.115 M 96 50.845 C 96 52.874, 93.044 56, 91.126 56 C 89.553 56, 90.685 62.847, 92.627 65.079 C 93.382 65.947, 94 67.196, 94 67.853 C 94 69.374, 89.200 71.372, 86.250 71.080 C 84.575 70.914, 84 71.381, 84 72.909 C 84 74.951, 80.870 76.480, 78.061 75.812 C 75.866 75.290, 75.816 77.558, 77.966 80.099 C 79.959 82.454, 80.028 82.462, 81.499 80.559 C 82.810 78.863, 83 78.832, 83 80.309 C 83 82.404, 85.328 82.515, 87 80.500 C 89.183 77.870, 91.753 78.722, 92.996 82.488 C 94.187 86.098, 93.648 88.043, 87.044 103.931 C 84.874 109.153, 85.176 110.416, 88.975 111.989 C 91.232 112.925, 91.876 113.905, 92.153 116.831 C 92.779 123.452, 92.049 127, 90.059 127 C 89.061 127, 87.644 127.724, 86.910 128.608 C 85.775 129.976, 85.868 130.431, 87.538 131.652 C 88.617 132.441, 90.513 133.341, 91.750 133.652 C 95.368 134.560, 94.355 135.824, 89.416 136.565 C 85.364 137.172, 84.899 137.498, 85.403 139.376 C 85.716 140.544, 85.979 142.001, 85.986 142.613 C 85.995 143.340, 89.117 143.755, 95 143.811 C 99.950 143.858, 104 143.500, 104 143.015 C 104 142.531, 104.858 141.862, 105.908 141.529 C 108.572 140.684, 109.373 137.993, 107.392 136.544 C 105.918 135.467, 106.045 135.109, 108.624 133.079 L 111.500 130.815 108.868 128.657 C 106.823 126.981, 106.088 125.259, 105.569 120.933 C 104.930 115.600, 105.013 115.315, 107.550 114.159 C 109.946 113.067, 110.150 112.552, 109.695 108.726 C 109.419 106.402, 108.244 100.900, 107.085 96.500 C 105.925 92.100, 105.051 87.600, 105.142 86.500 C 105.233 85.400, 104.984 83.339, 104.588 81.919 C 104.077 80.087, 104.495 78.275, 106.030 75.674 C 107.793 72.686, 107.930 71.910, 106.772 71.466 C 105.985 71.164, 105.313 69.491, 105.263 67.711 C 105.040 59.822, 104.230 56.969, 101.633 54.926 C 100.185 53.787, 99 51.988, 99 50.927 C 99 49.867, 98.325 49, 97.500 49 C 96.675 49, 96 49.830, 96 50.845 M 39.838 53.601 C 39.102 55.108, 37.088 57.052, 35.362 57.921 C 32.671 59.275, 32.249 59.999, 32.400 63.002 C 32.496 64.928, 33.006 67.178, 33.532 68.002 C 36.854 73.201, 36.920 73.836, 34.604 78.216 C 32.935 81.373, 31.462 82.740, 28.925 83.489 C 27.041 84.045, 25.050 84.794, 24.500 85.153 C 23.009 86.126, 16.216 86.549, 15.387 85.720 C 14.508 84.841, 8.824 84.803, 3.750 85.642 C 0.309 86.211, -0 86.530, -0 89.528 L 0 92.794 16.503 99.397 C 25.580 103.029, 33.692 106, 34.529 106 C 35.866 106, 35.850 106.389, 34.403 109.188 C 33.108 111.692, 33.002 112.773, 33.908 114.225 C 34.813 115.674, 34.732 116.545, 33.531 118.259 C 31.009 121.860, 31.730 123.692, 37.444 128.203 C 40.438 130.566, 42.908 132.725, 42.932 133 C 42.956 133.275, 41.406 134.517, 39.488 135.759 C 37.569 137.002, 36 138.637, 36 139.394 C 36 140.304, 34.219 140.992, 30.741 141.427 C 19.444 142.838, 23.180 143.809, 40.348 143.923 C 61.139 144.062, 61.087 144.102, 52.339 134.653 C 46.474 128.318, 41 121.234, 41 119.979 C 41 119.583, 43.599 118.964, 46.775 118.605 C 49.952 118.246, 53.986 117.079, 55.740 116.012 L 58.929 114.073 55.913 107.286 C 54.254 103.554, 52.025 98.700, 50.961 96.500 C 49.896 94.300, 48.089 88.710, 46.944 84.078 C 45.061 76.454, 45.015 75.571, 46.456 74.765 C 48.759 73.476, 48.254 62.254, 45.781 59.781 C 44.801 58.801, 43.986 57.212, 43.968 56.250 C 43.951 55.288, 43.315 53.681, 42.556 52.680 C 41.255 50.963, 41.101 51.015, 39.838 53.601 M 139.979 70.013 C 138.836 70.720, 138.780 71.180, 139.726 72.126 C 140.671 73.071, 141.078 72.961, 141.591 71.624 C 142.426 69.447, 141.842 68.862, 139.979 70.013 M 28.582 87.975 L 23.664 89.767 26.898 90.478 C 30.456 91.259, 36.301 89.403, 35.725 87.676 C 35.169 86.007, 33.831 86.063, 28.582 87.975 M 96.630 116.250 C 96.299 117.487, 96.021 120.412, 96.014 122.750 C 96.001 126.809, 96.135 127, 99 127 C 101.674 127, 102 126.670, 102 123.968 C 102 120.434, 99.526 114, 98.168 114 C 97.654 114, 96.962 115.013, 96.630 116.250 M 153.879 114.647 C 152.819 114.941, 152.041 116.684, 151.629 119.688 C 150.781 125.880, 150.859 136.232, 151.765 137.648 C 152.169 138.280, 155.157 139.128, 158.405 139.533 L 164.309 140.269 163.740 132.885 C 163.427 128.823, 162.345 123.025, 161.335 120 C 159.483 114.450, 158.118 113.470, 153.879 114.647 M 89.188 139.063 C 89.428 139.784, 90.216 140.572, 90.938 140.813 C 91.688 141.063, 92.063 140.688, 91.813 139.938 C 91.572 139.216, 90.784 138.428, 90.063 138.188 C 89.313 137.938, 88.938 138.313, 89.188 139.063 M 8 143 C 6.903 143.709, 7.658 143.973, 10.809 143.985 C 13.430 143.994, 14.876 143.608, 14.500 143 C 13.716 141.731, 9.963 141.731, 8 143" stroke="none" fill="black" fill-rule="evenodd"/>
</svg>