<svg xmlns="http://www.w3.org/2000/svg" width="192" height="144" viewBox="0 0 192 144" version="1.1">
	<path d="M -0 72.005 L -0 144.010 96.250 143.755 L 192.500 143.500 192.512 71.500 C 192.520 22.777, 192.437 16.859, 192.254 53.195 L 191.983 106.891 188.241 105.346 C 181.315 102.486, 181 101.835, 181 90.406 C 181 82.237, 181.635 77.588, 184.088 67.811 C 187.066 55.939, 187.196 54.510, 187.725 27.750 L 188.273 0 94.137 0 L 0 0 -0 72.005 M 0.474 72.500 C 0.474 112.100, 0.598 128.154, 0.750 108.176 C 0.901 88.198, 0.901 55.798, 0.750 36.176 C 0.598 16.554, 0.474 32.900, 0.474 72.500 M 176 97.441 C 176 98.298, 176.450 99, 177 99 C 177.550 99, 178 98.577, 178 98.059 C 178 97.541, 177.550 96.840, 177 96.500 C 176.450 96.160, 176 96.584, 176 97.441" stroke="none" fill="black" fill-rule="evenodd"/>
</svg>