<svg xmlns="http://www.w3.org/2000/svg" width="192" height="144" viewBox="0 0 192 144" version="1.1">
	<path d="M 54.615 7.496 C 49.909 9.145, 43.558 15.089, 40.807 20.421 C 37.943 25.974, 38.609 34.488, 42.285 39.307 C 45.846 43.975, 50.967 47.010, 56.753 47.881 L 61.500 48.595 56 50.680 C 51.774 52.282, 50.419 53.306, 50.152 55.099 C 49.961 56.383, 48.954 58.514, 47.916 59.834 C 45.883 62.419, 46.292 64.486, 48.657 63.578 C 49.463 63.269, 51.249 64.159, 52.667 65.576 C 54.652 67.561, 55.094 68.781, 54.643 71.034 C 54.249 73.004, 54.527 74.195, 55.506 74.744 C 56.583 75.346, 57.220 79.356, 58.012 90.526 C 58.597 98.762, 59.520 107.300, 60.063 109.500 C 60.946 113.071, 62.264 134.128, 62.051 141.250 C 61.984 143.465, 62.409 144, 64.234 144 C 66.007 144, 66.529 143.402, 66.632 141.250 C 66.705 139.738, 66.845 137.600, 66.944 136.500 C 67.249 133.101, 66.068 116.786, 65.357 114.584 C 64.987 113.438, 64.596 110.475, 64.488 108 C 64.380 105.525, 63.945 101.832, 63.522 99.794 C 62.274 93.782, 63.152 92.831, 67.820 95.141 C 69.995 96.217, 74.975 97.366, 78.887 97.694 C 84.681 98.179, 86 98.605, 86 99.990 C 86 100.925, 85.142 102.467, 84.092 103.416 C 79.056 107.974, 77.585 115.885, 77.893 136.750 L 78 144 93.072 144 L 108.144 144 107.472 138.621 C 106.935 134.322, 107.217 132.299, 108.876 128.547 C 110.018 125.965, 111.386 124.120, 111.915 124.447 C 112.444 124.774, 113.324 124.245, 113.871 123.271 C 115.087 121.105, 115.278 121.615, 116.950 131.500 C 117.602 135.350, 118.365 139.738, 118.647 141.250 L 119.159 144 130.579 144 C 136.861 144, 141.997 143.662, 141.994 143.250 C 141.975 140.652, 139.372 134.036, 136.321 128.830 L 132.764 122.761 133.957 115.131 C 135.740 103.725, 137.614 96.064, 139.957 90.599 C 141.915 86.033, 142.153 85.828, 143.444 87.593 C 144.778 89.418, 144.970 89.374, 148.635 86.408 C 150.728 84.714, 154.230 80.708, 156.417 77.505 C 159.580 72.875, 160.405 70.746, 160.447 67.112 C 160.496 62.846, 160.253 62.408, 156.792 60.535 C 153.602 58.809, 152.640 58.697, 149.897 59.733 C 148.122 60.403, 146.068 60.578, 145.264 60.128 C 144.206 59.536, 145.861 58.047, 151.453 54.562 C 157.534 50.771, 159.630 49.941, 161.766 50.478 C 164.597 51.188, 176 49.096, 176 47.866 C 176 47.470, 174.875 46.260, 173.500 45.179 C 170.528 42.840, 170.351 42, 172.833 42 C 175.438 42, 176.217 40.885, 174.511 39.599 C 173.311 38.695, 174.102 37.615, 178.982 33.500 C 189.066 24.996, 182.277 27.029, 161.723 38.666 C 157.446 41.088, 150.537 44.383, 146.369 45.987 C 138.948 48.845, 138.803 48.861, 139.354 46.755 C 139.663 45.572, 139.430 44.018, 138.836 43.302 C 137.515 41.710, 134.905 41.575, 135.250 43.116 C 135.387 43.730, 134.049 45.064, 132.276 46.081 C 129.304 47.786, 128.722 47.813, 124.810 46.433 C 115.057 42.992, 104.361 49.512, 105.204 58.385 C 105.456 61.037, 105.192 61.458, 103.426 61.217 C 101.323 60.930, 101.172 61.272, 98.305 72.881 C 97.904 74.503, 98.240 75.555, 99.358 76.181 C 101.525 77.393, 101.429 79.239, 98.946 84.105 L 96.893 88.131 91.696 87.529 C 88.838 87.198, 83.380 86.749, 79.566 86.530 L 72.632 86.132 69.967 78.581 C 68.501 74.429, 67.503 70.830, 67.749 70.585 C 67.994 70.339, 67.404 68.800, 66.437 67.163 C 64.923 64.599, 64.857 63.760, 65.961 61.094 C 67.411 57.594, 68.545 57.278, 71.161 59.646 C 73.883 62.109, 81.970 62.584, 85.971 60.515 C 88.753 59.077, 89.649 59.009, 91.666 60.089 C 93.696 61.175, 94.310 61.119, 95.713 59.716 C 97.251 58.178, 97.246 57.929, 95.638 56.153 C 94.128 54.484, 94.059 53.650, 95.092 49.550 C 97.258 40.946, 93.050 33.168, 85.067 31.018 C 80.627 29.823, 79.591 28.346, 78.502 21.660 C 77.734 16.951, 71.236 9.526, 66.670 8.141 C 60.468 6.260, 58.452 6.152, 54.615 7.496 M 59.177 91.553 C 59.629 93.725, 61.404 93.858, 61.810 91.750 C 62.020 90.655, 61.530 90, 60.500 90 C 59.539 90, 58.988 90.647, 59.177 91.553 M 61 106 C 61 107.100, 61.450 108, 62 108 C 62.550 108, 63 107.100, 63 106 C 63 104.900, 62.550 104, 62 104 C 61.450 104, 61 104.900, 61 106 M 62.177 119.667 C 62.663 122.176, 65 122.520, 65 120.083 C 65 118.855, 64.354 118, 63.427 118 C 62.495 118, 61.985 118.680, 62.177 119.667 M 63 134 C 63 135.111, 63.667 136, 64.500 136 C 65.333 136, 66 135.111, 66 134 C 66 132.889, 65.333 132, 64.500 132 C 63.667 132, 63 132.889, 63 134" stroke="none" fill="black" fill-rule="evenodd"/>
</svg>