<svg xmlns="http://www.w3.org/2000/svg" width="192" height="144" viewBox="0 0 192 144" version="1.1">
	<path d="M 0 72 L 0 144 81.822 144 L 163.643 144 165.655 139.250 C 174.483 118.405, 174.734 117.060, 169.809 117.015 C 166.778 116.988, 166.793 115.027, 169.861 110.396 C 172.988 105.676, 175.873 95.226, 175.827 88.795 C 175.812 86.757, 176.118 82.780, 176.506 79.957 L 177.212 74.825 167.356 75.507 C 158.361 76.130, 156.829 75.963, 149.824 73.595 C 145.602 72.168, 141.295 71, 140.254 71 C 139.213 71, 137.382 69.875, 136.187 68.500 C 134.991 67.125, 133.560 66, 133.007 66 C 132.453 66, 132 65.577, 132 65.060 C 132 63.336, 139.420 63.479, 146.500 65.340 C 150.350 66.352, 154.747 67.417, 156.271 67.706 C 159.700 68.358, 175.164 67.134, 176.877 66.076 C 179.010 64.758, 178.795 61.627, 176.446 59.779 C 174.539 58.279, 174.325 57.492, 175.004 54.480 C 175.443 52.535, 176.297 50.347, 176.902 49.618 C 178.502 47.690, 174.184 43.396, 169.330 42.089 C 161.807 40.063, 159.596 36.599, 165.941 36.779 C 169.251 36.873, 176 39.758, 176 41.079 C 176 41.547, 176.900 42.411, 178 43 C 179.668 43.893, 180 43.760, 180 42.204 C 180 40.461, 177.962 38.972, 173.707 37.606 C 172.249 37.137, 172.116 36.653, 172.992 35.015 C 175.318 30.669, 182.575 34.674, 183.866 41.016 C 184.408 43.680, 185.391 44.887, 188.038 46.143 L 191.500 47.786 192.015 95.643 C 192.525 143.136, 192.531 142.955, 192.765 71.750 L 193 0 96.500 0 L 0 0 0 72 M 0.474 72.500 C 0.474 112.100, 0.598 128.154, 0.750 108.176 C 0.901 88.198, 0.901 55.798, 0.750 36.176 C 0.598 16.554, 0.474 32.900, 0.474 72.500 M 40.250 66.250 C 40.572 67.217, 49.876 67.559, 81.333 67.761 C 117.064 67.991, 122 67.839, 122 66.511 C 122 65.187, 116.904 65, 80.917 65 C 48.495 65, 39.921 65.264, 40.250 66.250 M 181.293 125.751 C 180.079 128.363, 177.513 133.200, 175.591 136.500 C 173.668 139.800, 172.074 142.838, 172.048 143.250 C 171.961 144.619, 185.988 144.121, 186.128 142.750 C 186.199 142.063, 186.366 136.887, 186.499 131.250 C 186.709 122.366, 186.526 121, 185.121 121.001 C 184.164 121.002, 182.595 122.949, 181.293 125.751" stroke="none" fill="black" fill-rule="evenodd"/>
</svg>