<svg xmlns="http://www.w3.org/2000/svg" width="192" height="144" viewBox="0 0 192 144" version="1.1">
	<path d="M 0 72 L 0 144 38 144 L 76 144 76 141.049 C 76 139.426, 76.491 135.809, 77.091 133.011 C 77.925 129.121, 77.893 127.576, 76.955 126.445 C 75.138 124.256, 75.465 117.762, 77.614 113.368 C 79.451 109.610, 80.724 108.837, 87.250 107.518 C 92.174 106.523, 90.816 99.904, 83.760 90.500 C 80.029 85.527, 79.028 81.372, 81.070 79.330 C 82.913 77.487, 81.078 70.980, 78.431 69.974 C 76.208 69.129, 76.131 68.751, 76.586 60.935 C 76.858 56.272, 76.638 52.269, 76.073 51.588 C 74.734 49.975, 75.881 46, 77.684 46 C 78.653 46, 78.935 45.371, 78.533 44.105 C 77.707 41.502, 80.673 38.701, 83.503 39.411 C 84.968 39.779, 86.328 39.295, 87.515 37.984 C 89.454 35.841, 92.489 35.364, 93.525 37.041 C 93.879 37.613, 94.967 37.828, 95.943 37.518 C 96.924 37.207, 98.283 37.636, 98.981 38.477 C 99.676 39.315, 101.063 40, 102.063 40 C 103.064 40, 104.168 40.463, 104.518 41.029 C 104.867 41.594, 105.288 48.081, 105.452 55.444 C 105.721 67.455, 105.573 68.878, 104.017 69.285 C 103.063 69.535, 102.051 70.954, 101.767 72.438 C 101.368 74.526, 102.149 76.273, 105.208 80.143 C 107.384 82.897, 109.763 86.578, 110.495 88.325 C 112.091 92.133, 116.458 96.453, 117.846 95.595 C 118.393 95.257, 119.728 96.110, 120.814 97.490 C 121.900 98.871, 123.264 100, 123.847 100 C 124.868 100, 126.370 102.842, 129.023 109.795 C 130.544 113.783, 129.239 117.472, 125.936 118.520 C 123.193 119.391, 121.937 117.564, 122.691 113.797 C 123.164 111.428, 122.921 111, 121.100 111 C 119.727 111, 118.607 110.097, 118 108.500 C 117.437 107.018, 116.259 106, 115.108 106 C 114.040 106, 112.940 105.437, 112.662 104.750 C 112.385 104.063, 112.122 105.323, 112.079 107.550 C 112.036 109.777, 111.550 112.050, 111 112.600 C 110.333 113.267, 110.681 116.583, 112.045 122.550 C 113.170 127.473, 114.612 134.318, 115.250 137.762 L 116.410 144.023 154.455 143.762 L 192.500 143.500 192.757 71.750 L 193.013 0 96.507 0 L 0 0 0 72 M 0.474 72.500 C 0.474 112.100, 0.598 128.154, 0.750 108.176 C 0.901 88.198, 0.901 55.798, 0.750 36.176 C 0.598 16.554, 0.474 32.900, 0.474 72.500" stroke="none" fill="black" fill-rule="evenodd"/>
</svg>