<svg xmlns="http://www.w3.org/2000/svg" width="192" height="144" viewBox="0 0 192 144" version="1.1">
	<path d="M 0 72 L 0 144 36 144 C 70.516 144, 72 143.923, 72 142.128 C 72 139.897, 76.896 123.837, 80.028 115.796 C 82.317 109.917, 82.140 105.809, 79.686 107.846 C 78.977 108.434, 77.408 108.658, 76.200 108.342 C 74.933 108.011, 72.913 108.482, 71.429 109.455 C 68.893 111.116, 68.872 111.109, 70.013 108.976 C 71.057 107.025, 70.966 106.876, 69.086 107.473 C 67.292 108.042, 67 107.720, 67 105.174 C 67 102.158, 64.578 100.122, 63.588 102.306 C 63.291 102.963, 63.149 101.724, 63.274 99.553 L 63.500 95.605 57.500 93.797 C 54.200 92.803, 50.567 90.934, 49.427 89.645 C 48.025 88.059, 45.876 87.133, 42.788 86.785 C 37.859 86.230, 30.822 83.193, 30.265 81.382 C 30.045 80.666, 31.791 80.221, 35.113 80.146 C 37.968 80.082, 40.538 79.796, 40.823 79.511 C 41.108 79.225, 40.364 77.952, 39.171 76.682 C 36.809 74.168, 36.319 70.081, 38.158 68.242 C 39.034 67.366, 38.981 66.682, 37.939 65.426 C 34.512 61.297, 33.148 50.218, 36.399 52.916 C 37.048 53.455, 38.164 53.517, 38.912 53.055 C 39.950 52.413, 40.096 50.518, 39.553 44.718 C 39.084 39.715, 39.208 36.990, 39.925 36.547 C 40.569 36.148, 41 36.776, 41 38.112 C 41 39.339, 41.715 41.132, 42.588 42.097 C 43.490 43.094, 44.414 46.478, 44.727 49.926 C 45.316 56.420, 47 58.327, 47 52.500 C 47 50.575, 47.450 49, 48 49 C 48.550 49, 49 49.398, 49 49.883 C 49 50.369, 49.900 51.002, 51 51.290 C 52.322 51.635, 53 52.654, 53 54.292 C 53 55.656, 53.672 58.060, 54.494 59.636 C 56.392 63.276, 56.394 65.428, 54.500 67 C 53.675 67.685, 52.996 68.752, 52.991 69.372 C 52.986 69.993, 51.897 72.739, 50.572 75.477 C 49.247 78.214, 48.386 80.815, 48.659 81.257 C 48.932 81.700, 50.635 81.784, 52.442 81.445 C 54.880 80.988, 57.059 81.503, 60.885 83.442 C 64.651 85.350, 66.147 85.710, 66.433 84.777 C 66.648 84.075, 67.316 81.965, 67.916 80.088 C 69.169 76.178, 68.714 75.163, 66.524 76.980 C 63.421 79.555, 65.094 75.997, 69.987 69.614 C 76.100 61.637, 77.606 57.884, 79.032 47.073 C 80.278 37.626, 82.334 30.773, 85.088 26.889 L 86.939 24.277 83.219 24.389 C 79.952 24.486, 79.464 24.193, 79.205 21.975 C 79.043 20.587, 80.054 16.865, 81.452 13.705 C 83.833 8.321, 84.165 8.001, 86.746 8.613 C 91.585 9.761, 95.411 11.622, 98.793 14.474 C 102.309 17.438, 102.617 17.451, 115.337 15.161 C 121.428 14.065, 121.739 14.735, 119.297 23.679 C 117.905 28.780, 117.684 31.203, 118.424 33.288 C 119.946 37.578, 117.334 44.105, 113.336 46 C 110.700 47.250, 110.060 48.241, 109.496 51.947 C 108.967 55.416, 109.168 56.650, 110.409 57.557 C 111.284 58.197, 112 59.056, 112 59.466 C 112 59.876, 113.147 61.574, 114.548 63.239 C 119.986 69.702, 121.466 73.916, 121.484 82.985 L 121.500 91.470 128.500 93.321 C 132.350 94.338, 136.735 95.785, 138.245 96.536 C 140.422 97.619, 142.252 97.679, 147.075 96.830 C 151.106 96.120, 153.494 96.094, 154.152 96.752 C 154.811 97.411, 154.254 97.970, 152.502 98.410 C 148.752 99.351, 149.864 101.149, 155.373 103.052 C 157.977 103.952, 160.136 105.096, 160.171 105.594 C 160.238 106.547, 152.264 109.881, 148 110.682 C 146.360 110.990, 144.165 110.246, 141.621 108.519 C 139.487 107.070, 137.099 106.132, 136.313 106.433 C 135.527 106.735, 133.209 106.127, 131.162 105.083 C 129.115 104.038, 124.753 102.429, 121.470 101.507 C 118.186 100.584, 114.753 98.968, 113.840 97.915 C 112.927 96.862, 111.914 96, 111.590 96 C 110.582 96, 110.944 100.847, 112 101.500 C 112.550 101.840, 113 104.174, 113 106.688 C 113 109.771, 114.267 114.224, 116.896 120.379 C 119.039 125.395, 121.785 132.768, 122.998 136.763 L 125.203 144.026 158.851 143.763 L 192.500 143.500 192.757 71.750 L 193.013 0 96.507 0 L 0 0 0 72 M 0.474 72.500 C 0.474 112.100, 0.598 128.154, 0.750 108.176 C 0.901 88.198, 0.901 55.798, 0.750 36.176 C 0.598 16.554, 0.474 32.900, 0.474 72.500 M 46 44 C 46 45.100, 46.450 46, 47 46 C 47.550 46, 48 45.100, 48 44 C 48 42.900, 47.550 42, 47 42 C 46.450 42, 46 42.900, 46 44 M 38.507 56.989 C 38.157 57.555, 38.558 57.723, 39.448 57.382 C 41.180 56.717, 41.497 56, 40.059 56 C 39.541 56, 38.843 56.445, 38.507 56.989 M 33.638 63.500 C 33.322 64.325, 33.499 65, 34.031 65 C 34.564 65, 35 64.325, 35 63.500 C 35 62.675, 34.823 62, 34.607 62 C 34.391 62, 33.955 62.675, 33.638 63.500" stroke="none" fill="black" fill-rule="evenodd"/>
</svg>