<svg xmlns="http://www.w3.org/2000/svg" width="192" height="144" viewBox="0 0 192 144" version="1.1">
	<path d="M 0 39.068 L 0 78.136 2.750 76.173 C 4.263 75.093, 7.206 72.362, 9.290 70.104 C 11.375 67.847, 13.451 66, 13.903 66 C 15.504 66, 28.608 71.746, 36.249 75.799 C 45.753 80.840, 49.840 81.682, 56.989 80.071 C 63.742 78.550, 63.797 78.547, 67.500 79.345 C 70.269 79.942, 70.809 79.558, 74.500 74.371 C 77.406 70.289, 79.936 68.044, 83.750 66.167 C 87.804 64.172, 89 63.061, 89 61.292 C 89 58.096, 88.687 57.471, 87.250 57.801 C 86.562 57.959, 85.986 57.505, 85.968 56.794 C 85.946 55.887, 85.572 55.975, 84.718 57.087 C 82.662 59.766, 80.339 58.896, 78.517 54.766 C 77.389 52.209, 76.314 51.049, 75.398 51.401 C 74.497 51.746, 74 51.248, 74 50 C 74 48.579, 73.534 48.233, 72.250 48.701 C 70.583 49.309, 70.583 49.244, 72.250 47.341 C 74.564 44.698, 74.516 42.701, 72.157 43.450 C 71.058 43.799, 69.141 43.146, 67.407 41.831 C 65.808 40.619, 64.351 39.525, 64.169 39.400 C 63.380 38.855, 66.194 35, 67.380 35 C 70.298 35, 72 31.424, 72 25.293 C 72 15.859, 75.518 9.642, 82.315 7.067 C 83.863 6.480, 89.731 6, 95.353 6 C 107.612 6, 113.248 8.162, 116.417 14.080 L 118.334 17.660 124.600 17.271 C 129.868 16.944, 131.021 17.171, 131.835 18.691 C 133.004 20.877, 133.573 34.845, 132.585 37.126 C 132.198 38.021, 132.583 41.461, 133.441 44.771 C 134.298 48.081, 135 51.910, 135 53.280 C 135 57.076, 131.931 65.753, 129.956 67.540 C 128.340 69.002, 128.038 68.957, 126.197 66.981 C 123.328 63.902, 121.664 56.975, 121.035 45.500 L 120.487 35.500 119.059 39.839 C 117.935 43.252, 117.885 44.586, 118.824 46.089 C 119.800 47.653, 119.743 48, 118.508 48 C 117.667 48, 117 48.884, 117 50 C 117 51.100, 116.663 51.929, 116.250 51.841 C 114.897 51.555, 112 53.192, 112 54.242 C 112 55.221, 107.392 60, 106.448 60 C 106.202 60, 106 59.400, 106 58.667 C 106 57.902, 105.041 57.405, 103.750 57.500 C 102.513 57.591, 101.612 57.966, 101.750 58.333 C 102.036 59.096, 102.175 59.905, 102.365 61.926 C 102.439 62.710, 104.839 64.735, 107.697 66.426 C 110.555 68.117, 114.556 71.642, 116.587 74.259 C 120.175 78.881, 120.428 79.015, 125.391 78.899 C 128.201 78.834, 133.734 79.113, 137.686 79.520 L 144.871 80.260 160.270 72.630 C 168.740 68.433, 176.237 65, 176.931 65 C 177.625 65, 181.140 67.700, 184.741 71 C 188.343 74.300, 191.674 77, 192.145 77 C 192.615 77, 193 59.675, 193 38.500 L 193 0 96.500 0 L 0 0 0 39.068 M 0.455 39.500 C 0.455 60.950, 0.587 69.583, 0.749 58.684 C 0.911 47.785, 0.910 30.235, 0.748 19.684 C 0.587 9.133, 0.454 18.050, 0.455 39.500 M 171.750 72.068 C 168.043 74.025, 167.163 75.365, 168.887 76.430 C 169.374 76.731, 170.067 78.544, 170.426 80.457 C 170.909 83.030, 170.272 86.226, 167.983 92.718 C 166.280 97.548, 164.523 101.867, 164.079 102.314 C 163.635 102.762, 162.522 98.321, 161.607 92.445 C 159.981 82.007, 159.989 81.684, 161.938 78.381 C 163.035 76.521, 163.700 75, 163.417 75 C 162.542 75, 156.646 78.166, 153.816 80.156 L 151.131 82.043 153.060 86.402 L 154.988 90.762 151.936 100.381 C 150.258 105.671, 148.461 110, 147.942 110 C 147.424 110, 147 109.718, 147 109.374 C 147 109.029, 146.289 104.577, 145.420 99.479 C 143.995 91.120, 143.991 89.917, 145.380 87.232 C 146.227 85.594, 146.638 83.972, 146.293 83.627 C 145.689 83.022, 135 82.702, 135 83.289 C 135 83.447, 135.845 85.235, 136.879 87.262 C 138.906 91.239, 139.048 89.918, 134.469 109.791 C 133.576 113.668, 132.486 111.533, 130.013 101.055 C 127.754 91.487, 127.718 90.814, 129.284 87.531 C 131.090 83.744, 130.376 82.616, 126.751 83.526 C 123.482 84.347, 121.491 87.681, 123.107 89.629 C 124.081 90.803, 124.017 91.411, 122.789 92.640 C 121.440 93.989, 121.420 94.744, 122.625 98.748 C 123.381 101.262, 124.007 104.484, 124.015 105.909 C 124.029 108.168, 125.306 109.170, 133.992 113.737 C 143.516 118.744, 144.207 118.949, 149.727 118.392 C 155.938 117.766, 161.441 119.197, 160.738 121.256 C 160.505 121.940, 159.231 122.340, 157.907 122.145 C 155.580 121.801, 155.558 121.854, 157.266 123.741 C 159.507 126.218, 165.407 128, 171.366 128 C 173.915 128, 176 128.438, 176 128.974 C 176 130.885, 169.411 133.309, 162.966 133.770 C 157.112 134.189, 155.760 133.908, 150.237 131.119 C 146.838 129.404, 143.482 127.989, 142.779 127.976 C 140.407 127.931, 122.052 119.406, 119.444 117.138 C 118.021 115.901, 116.380 113.521, 115.797 111.848 C 114.135 107.079, 112.935 110.455, 113.611 118 C 113.972 122.036, 115.483 127.573, 117.596 132.608 C 119.468 137.067, 121 141.460, 121 142.370 C 121 143.884, 124.046 144.003, 156.750 143.763 L 192.500 143.500 192.603 121.500 C 192.660 109.400, 192.431 101.750, 192.095 104.500 L 191.483 109.500 190.746 101.648 C 190.005 93.766, 190.339 91.473, 192.069 92.543 C 192.591 92.865, 192.983 91.223, 192.962 88.809 C 192.928 84.932, 192.526 84.224, 188.950 81.751 L 184.977 79.002 185.585 82.807 C 186.052 85.727, 185.434 88.574, 182.926 95.056 C 181.129 99.700, 179.334 103.880, 178.936 104.344 C 178.115 105.301, 175.945 93.532, 175.680 86.686 C 175.550 83.321, 176.045 81.557, 177.603 79.828 C 180.764 76.321, 181.285 73.972, 179.369 71.855 C 177.292 69.560, 176.457 69.583, 171.750 72.068 M 12.677 72.804 C 10.446 75.269, 10.550 76.248, 13.500 80.595 C 16.167 84.525, 16.533 87.397, 15.083 93 C 14.584 94.925, 13.884 98.638, 13.527 101.250 C 13.170 103.862, 12.492 106, 12.021 106 C 11.550 106, 9.712 101.638, 7.936 96.308 C 5.264 88.286, 4.890 86.131, 5.767 83.808 C 6.994 80.557, 6.379 80.333, 3.293 82.908 C 1.112 84.730, 1.086 85.082, 1.031 114.375 L 0.976 144 35.988 144 C 66.592 144, 71 143.809, 71 142.486 C 71 141.653, 72.575 137.065, 74.500 132.291 C 77.485 124.888, 78 122.434, 78 115.610 L 78 107.608 75.050 112.260 C 70.838 118.902, 58.720 125.985, 41.396 131.932 C 31.130 135.456, 27.711 135.688, 22.359 133.222 C 12.622 128.737, 11.470 126.358, 19.249 126.795 C 25.061 127.121, 33.121 125.138, 33.758 123.225 C 34.019 122.443, 33.317 122.086, 31.834 122.247 C 30.314 122.412, 29.500 121.977, 29.500 121 C 29.500 119.092, 36.425 118.471, 41.642 119.912 C 44.879 120.805, 45.962 120.601, 50.192 118.299 C 57.510 114.316, 57.462 114.476, 54.911 102.520 C 52.764 92.461, 52.736 91.777, 54.327 88.440 C 55.247 86.510, 56 84.722, 56 84.466 C 56 84.210, 53.525 84, 50.500 84 C 47.475 84, 45 84.170, 45 84.378 C 45 84.586, 45.636 86.278, 46.414 88.139 C 47.670 91.145, 47.602 92.635, 45.809 101.511 C 43.780 111.548, 43.403 112.736, 42.522 111.856 C 41.653 110.987, 37 94.013, 37.006 91.735 C 37.010 90.506, 37.701 88.180, 38.542 86.566 C 39.384 84.952, 39.884 83.140, 39.653 82.538 C 39.128 81.169, 29.049 75.618, 28.353 76.314 C 28.071 76.596, 28.634 78.039, 29.605 79.520 C 31.207 81.966, 31.256 83.009, 30.130 90.857 C 28.626 101.350, 28.006 104, 27.055 104 C 26.655 104, 24.922 99.443, 23.203 93.873 C 20.276 84.385, 20.171 83.527, 21.539 80.251 C 23.637 75.232, 23.428 74.567, 19.250 72.956 C 17.188 72.161, 15.242 71.384, 14.927 71.231 C 14.612 71.077, 13.599 71.785, 12.677 72.804 M 60.920 85.403 C 63.758 88.823, 63.875 92.767, 61.404 101.706 C 60.067 106.543, 59.091 111.006, 59.236 111.624 C 59.396 112.306, 60.974 111.810, 63.250 110.359 C 66.054 108.573, 67.011 107.281, 67.044 105.235 C 67.068 103.731, 67.735 100.700, 68.526 98.500 C 69.817 94.910, 69.797 94.375, 68.334 93.281 C 67.147 92.394, 66.992 91.714, 67.763 90.781 C 68.346 90.077, 68.585 88.263, 68.295 86.750 C 67.824 84.296, 67.336 84, 63.761 84 C 60.437 84, 59.953 84.239, 60.920 85.403" stroke="none" fill="black" fill-rule="evenodd"/>
</svg>