<svg xmlns="http://www.w3.org/2000/svg" width="192" height="144" viewBox="0 0 192 144" version="1.1">
	<path d="M 112.395 2.560 C 111.770 5.051, 112.269 10.417, 113.506 14.528 C 113.998 16.161, 113.459 16.794, 110.739 17.777 C 106.787 19.206, 99.998 24.790, 96.869 29.184 C 94.113 33.055, 90.747 45.131, 92.057 46.450 C 92.576 46.972, 93.010 48.322, 93.022 49.450 C 93.059 52.861, 99.534 58.985, 102.278 58.203 C 104 57.712, 104.042 61.006, 102.347 63.593 C 101.121 65.464, 100.912 66.471, 101.694 66.731 C 103.947 67.482, 111 77.706, 111 80.220 C 111 81.614, 111.720 85.941, 112.599 89.835 C 114.094 96.457, 114.084 97.214, 112.435 101.531 C 110.934 105.462, 110.362 106.049, 108.586 105.486 C 103.302 103.811, 102.529 104.244, 101.959 109.208 C 101.661 111.797, 101.154 114.179, 100.833 114.501 C 100.239 115.094, 96 108.571, 96 107.063 C 96 106.611, 93.975 104.582, 91.500 102.554 C 87.108 98.955, 87 98.727, 87 93.068 C 87 85.036, 84.610 82, 78.288 82 C 75.111 82, 73.316 81.467, 72.392 80.250 C 71.147 78.609, 71.062 78.625, 71.032 80.501 C 71.010 81.853, 69.621 83.166, 66.750 84.547 C 63.475 86.122, 62.217 87.447, 61.267 90.324 C 58.600 98.395, 63.853 109.476, 71.550 112.016 C 73.447 112.643, 75 113.233, 74.999 113.328 C 74.999 113.422, 74.119 115.815, 73.044 118.644 C 71.969 121.473, 70.627 127.323, 70.061 131.644 C 69.496 135.965, 68.748 140.513, 68.400 141.750 L 67.767 144 88.207 144 L 108.647 144 109.648 140.250 L 110.649 136.500 111.436 140.250 L 112.223 144 138.111 144 L 164 144 164 140 C 164 137.169, 164.425 136, 165.453 136 C 168.184 136, 171.499 133.907, 172.656 131.453 C 173.699 129.239, 173.596 129, 171.594 129 C 170.374 129, 167.448 129.932, 165.091 131.070 C 162.735 132.209, 160.581 132.914, 160.305 132.638 C 160.029 132.362, 158.513 125.940, 156.937 118.366 C 154.164 105.047, 153.817 100.309, 156.093 106.838 C 156.700 108.577, 157.553 110, 157.991 110 C 159.342 110, 160.124 106.724, 159.033 105.633 C 158.465 105.065, 158.016 102.102, 158.035 99.050 C 158.069 93.733, 158.131 93.605, 159.500 96 C 160.901 98.452, 160.931 98.413, 161.011 94 L 161.094 89.500 163.013 94.417 C 165.161 99.918, 167.703 103.227, 166.533 99 C 164.755 92.573, 164.805 92.389, 167.485 95.500 L 170.070 98.500 169.559 91 C 169.278 86.875, 168.791 77.425, 168.478 70 C 167.819 54.426, 166.027 44.586, 161.919 34 C 160.319 29.875, 159.007 25.801, 159.005 24.946 C 158.997 22.267, 153.189 14.088, 149.771 11.943 C 147.317 10.403, 145.382 10.005, 142.028 10.347 C 137.760 10.783, 137.289 10.557, 131.721 5.402 C 125.921 0.032, 125.848 -0, 119.462 -0 C 113.403 -0, 113.002 0.146, 112.395 2.560 M 121 82 C 121 83.867, 121.267 84.133, 122.200 83.200 C 123.133 82.267, 123.133 81.733, 122.200 80.800 C 121.267 79.867, 121 80.133, 121 82" stroke="none" fill="black" fill-rule="evenodd"/>
</svg>