<svg xmlns="http://www.w3.org/2000/svg" width="192" height="144" viewBox="0 0 192 144" version="1.1">
	<path d="M 110 11.950 C 110 12.473, 110.738 13.314, 111.640 13.819 C 113.492 14.855, 112.657 17, 110.401 17 C 109.587 17, 107.203 17.876, 105.103 18.947 C 101.424 20.824, 99.862 23.249, 98.622 29.010 C 98.067 31.590, 92.827 35.494, 91.586 34.253 C 91.204 33.871, 90.473 34.220, 89.961 35.029 C 88.650 37.102, 88.775 41, 90.152 41 C 90.786 41, 93.247 42.463, 95.621 44.250 L 99.938 47.500 99.969 55.750 C 99.997 63.260, 99.826 64, 98.059 64 C 96.991 64, 95.847 64.438, 95.517 64.973 C 94.518 66.589, 87.556 68.033, 80.102 68.170 C 74.106 68.281, 72.740 68.647, 70.859 70.650 C 69.645 71.943, 67.605 73, 66.326 73 C 63.448 73, 63.319 74.566, 66.057 76.242 C 67.189 76.934, 68.824 78.982, 69.692 80.794 C 71.301 84.153, 75.444 87, 78.722 87 C 79.724 87, 82.187 85.646, 84.196 83.990 C 86.204 82.335, 89.307 80.689, 91.091 80.332 C 93.992 79.752, 94.257 79.885, 93.597 81.591 C 93.190 82.641, 92.614 85.542, 92.315 88.038 C 91.846 91.951, 92.145 93.019, 94.483 95.798 C 97.038 98.834, 97.132 99.294, 96.111 103.760 C 95.515 106.367, 94.809 115.025, 94.541 123 C 94.274 130.975, 93.624 138.963, 93.097 140.750 L 92.140 144 112.070 144 L 132 144 132 139.571 C 132 136.731, 132.612 134.531, 133.705 133.438 C 135.313 131.830, 135.457 131.870, 136.209 134.128 C 136.649 135.446, 137.906 137.085, 139.004 137.770 C 140.863 138.931, 141.004 138.759, 141.063 135.258 C 141.120 131.926, 141.232 131.762, 142.055 133.814 C 143.145 136.533, 144.987 135.838, 145.030 132.691 C 145.058 130.722, 145.164 130.677, 146.080 132.250 C 149.808 138.651, 152.410 124.355, 149.843 111.573 C 148.939 107.069, 148.955 105.646, 149.917 105.051 C 150.870 104.463, 150.773 103.409, 149.488 100.395 C 148.575 98.253, 146.494 92.595, 144.864 87.823 L 141.901 79.146 145.129 73.426 C 148.698 67.101, 148.789 67.416, 142.118 62.992 C 140.139 61.680, 139.772 60.383, 139.289 52.992 C 138.984 48.322, 138.320 43.698, 137.815 42.718 C 137.309 41.738, 136.508 37.474, 136.033 33.243 C 135.224 26.030, 134.922 25.317, 131.205 21.851 C 129.025 19.817, 125.314 17.575, 122.959 16.870 C 120.604 16.164, 117.646 14.555, 116.384 13.293 C 114.098 11.007, 110 10.145, 110 11.950 M 107 59.500 C 107 62.120, 108.470 62.658, 111 60.966 C 112.298 60.097, 112.239 59.763, 110.559 58.481 C 107.822 56.393, 107 56.628, 107 59.500" stroke="none" fill="black" fill-rule="evenodd"/>
</svg>