<svg xmlns="http://www.w3.org/2000/svg" width="192" height="144" viewBox="0 0 192 144" version="1.1">
	<path d="M 0 9.104 L 0 18.208 7.956 17.504 C 16.730 16.727, 16.375 16.479, 17.220 23.987 C 17.444 25.977, 18.248 26.625, 21.250 27.237 C 23.313 27.656, 26.651 28.339, 28.668 28.754 C 33.274 29.700, 34.361 32, 30.202 32 C 27.950 32, 26.552 32.901, 24.386 35.750 C 22.818 37.813, 20.244 40.766, 18.667 42.314 C 16.532 44.409, 15.971 45.686, 16.470 47.314 C 16.838 48.516, 17.700 55.350, 18.386 62.500 C 19.071 69.650, 20.165 76.767, 20.816 78.315 C 21.467 79.863, 22 82.226, 22 83.565 C 22 84.904, 22.450 86, 23 86 C 23.550 86, 24 86.873, 24 87.941 C 24 89.009, 24.450 90.160, 25 90.500 C 25.550 90.840, 26 91.936, 26 92.937 C 26 93.937, 26.675 95.315, 27.500 96 C 28.713 97.006, 29 100.149, 29 112.400 C 29 124.481, 29.315 128.005, 30.553 129.772 C 31.407 130.991, 32.137 133.904, 32.175 136.244 C 32.213 138.585, 32.445 141.287, 32.690 142.250 C 33.109 143.898, 37.754 144, 112.567 144 L 192 144 192.004 84.750 C 192.006 52.162, 192.301 19.762, 192.658 12.750 L 193.309 -0 96.654 -0 L 0 0 0 9.104 M 0.355 9.500 C 0.352 14.450, 0.521 16.601, 0.731 14.280 C 0.940 11.959, 0.943 7.909, 0.736 5.280 C 0.530 2.651, 0.358 4.550, 0.355 9.500" stroke="none" fill="black" fill-rule="evenodd"/>
</svg>