<svg xmlns="http://www.w3.org/2000/svg" width="192" height="144" viewBox="0 0 192 144" version="1.1">
	<path d="M 0 72 L 0 144 8.500 144 L 17 144 17 140.008 C 17 137.389, 15.096 131.570, 11.463 123.090 C 4.263 106.281, 2.747 99.059, 2.733 81.500 C 2.721 66.480, 3.656 59.580, 7.597 45.635 C 9.923 37.404, 9.985 36.641, 8.468 34.965 C 6.947 33.284, 6.977 33.082, 8.905 32.051 C 11.480 30.673, 23.317 34.384, 32.678 39.504 C 36.075 41.362, 45.525 44.992, 53.678 47.571 C 61.830 50.149, 69.056 52.472, 69.736 52.731 C 70.416 52.991, 71.401 52.076, 71.924 50.699 C 72.448 49.321, 73.359 47.896, 73.948 47.532 C 74.538 47.168, 76.839 43.555, 79.063 39.504 C 81.286 35.452, 84.883 30.532, 87.055 28.569 C 90.873 25.120, 91.266 25, 98.753 25.015 C 107.926 25.032, 110.295 26.054, 114.771 31.922 C 118.681 37.048, 118.538 40.160, 114.229 43.721 C 112.208 45.390, 111.826 46.226, 112.688 47.088 C 114.597 48.997, 109.040 57.760, 106.798 56.375 C 106.359 56.104, 106 56.333, 106 56.884 C 106 58.308, 110.102 61, 112.270 61 C 113.274 61, 115.135 62.121, 116.405 63.492 C 118.234 65.465, 121.399 66.592, 131.607 68.906 C 138.698 70.513, 146.643 71.710, 149.262 71.567 C 154.046 71.305, 161 72.868, 161 74.206 C 161 75.243, 166.880 76.591, 180.250 78.618 L 192 80.400 192 83.700 C 192 85.515, 191.587 87, 191.082 87 C 190.577 87, 183.853 85.425, 176.139 83.500 C 168.425 81.575, 161.751 80.017, 161.307 80.038 C 160.863 80.059, 159.305 81.805, 157.845 83.918 C 154.841 88.265, 149.187 91.345, 135.610 96.030 C 128.346 98.537, 126.190 98.913, 123.821 98.087 C 121.207 97.176, 120.827 97.326, 119.961 99.603 C 118.503 103.436, 118.792 105.502, 121.074 107.567 C 122.380 108.749, 122.989 110.276, 122.719 111.691 C 122.483 112.926, 123.012 115.003, 123.895 116.307 C 135.306 133.151, 135.234 133, 131.893 133 C 130.501 133, 129.968 133.474, 130.322 134.396 C 130.616 135.164, 131.413 137.645, 132.091 139.911 L 133.325 144.029 162.913 143.765 L 192.500 143.500 192.757 71.750 L 193.013 0 96.507 0 L 0 0 0 72 M 0.474 72.500 C 0.474 112.100, 0.598 128.154, 0.750 108.176 C 0.901 88.198, 0.901 55.798, 0.750 36.176 C 0.598 16.554, 0.474 32.900, 0.474 72.500 M 29.652 47.750 C 26.908 53.144, 23.010 65.873, 22.033 72.631 C 21.486 76.409, 21.031 85.019, 21.020 91.765 C 21 103.816, 21.087 104.292, 25.998 119.191 C 31.096 134.655, 31.203 135.642, 28.501 142.250 C 27.834 143.883, 29.156 144, 48.272 144 L 68.757 144 73.627 138.250 C 76.305 135.088, 79.847 130.999, 81.498 129.165 C 83.149 127.330, 87.300 121.930, 90.722 117.165 C 97.478 107.755, 97.742 106.143, 93.115 102.538 C 81.918 93.813, 81.042 91.479, 86.019 83.631 C 87.679 81.013, 88.761 78.423, 88.423 77.875 C 88.084 77.327, 88.352 75.565, 89.017 73.959 C 89.682 72.353, 89.945 69.917, 89.601 68.546 C 89.042 66.318, 88.719 66.171, 86.549 67.160 C 84.600 68.048, 83.801 67.944, 82.490 66.633 C 81.592 65.735, 80.481 65, 80.022 65 C 79.563 65, 79.448 63.987, 79.767 62.750 C 80.301 60.678, 80.203 60.618, 78.529 61.992 C 76.867 63.357, 76.766 63.312, 77.350 61.473 C 77.934 59.633, 76.137 58.847, 56.220 52.231 C 44.247 48.254, 33.686 45, 32.751 45 C 31.816 45, 30.422 46.237, 29.652 47.750 M 73.970 53.019 C 73.259 53.458, 73.871 54.002, 75.550 54.423 C 77.056 54.801, 78.706 54.694, 79.215 54.185 C 80.358 53.042, 75.633 51.991, 73.970 53.019 M 119 72.365 C 119 73.116, 120.002 75.004, 121.226 76.560 C 122.451 78.118, 123.690 81.436, 123.982 83.945 C 124.588 89.152, 123.880 89.036, 136 85.918 C 146.027 83.339, 147.818 82.090, 146.293 78.743 C 145.397 76.778, 143.425 75.987, 133.741 73.706 C 120.630 70.618, 119 70.470, 119 72.365 M 92.126 89.348 C 91.272 90.377, 91.482 91.126, 93.010 92.509 C 95.461 94.727, 95.982 94.326, 95.295 90.750 C 94.711 87.710, 93.815 87.313, 92.126 89.348" stroke="none" fill="black" fill-rule="evenodd"/>
</svg>