<svg xmlns="http://www.w3.org/2000/svg" width="192" height="144" viewBox="0 0 192 144" version="1.1">
	<path d="M -0 72.005 L -0 144.010 96.250 143.755 L 192.500 143.500 192.757 71.750 L 193.013 0 139.507 0 C 109.834 0, 86 0.388, 86 0.870 C 86 3.225, 92.396 22.847, 94.547 27.092 C 97.210 32.349, 97.958 36.758, 95.718 34 C 95.048 33.175, 92.571 31.190, 90.214 29.589 C 84.921 25.994, 76.120 16.669, 69.060 7.175 L 63.725 -0 31.863 -0 L 0 0 -0 72.005 M 0.474 72.500 C 0.474 112.100, 0.598 128.154, 0.750 108.176 C 0.901 88.198, 0.901 55.798, 0.750 36.176 C 0.598 16.554, 0.474 32.900, 0.474 72.500 M 95.459 69.067 C 95.096 69.653, 95.014 70.348, 95.276 70.610 C 95.538 70.872, 96.019 70.392, 96.345 69.543 C 97.021 67.781, 96.445 67.471, 95.459 69.067" stroke="none" fill="black" fill-rule="evenodd"/>
</svg>