<svg xmlns="http://www.w3.org/2000/svg" width="192" height="144" viewBox="0 0 192 144" version="1.1">
	<path d="M 0 72 L 0 144 32 144 L 64 144 64 72 L 64 0 32 0 L 0 0 0 72 M 86 3.430 C 86 6.227, 85.584 6.920, 83.750 7.180 C 82.098 7.415, 81.260 8.470, 80.598 11.150 C 79.809 14.343, 80.107 15.528, 82.977 20.614 C 88.960 31.214, 91.816 39.452, 91.250 44.474 C 90.673 49.590, 90.892 49.515, 77.968 49.052 C 70.972 48.802, 70.311 49.270, 68.495 55.750 C 67.657 58.744, 68.948 58.598, 71.489 55.412 C 73.510 52.877, 73.726 52.839, 81.897 53.551 C 89.634 54.226, 90.032 54.367, 87.370 55.486 C 80.529 58.363, 80.607 62.624, 87.537 64.569 C 90.805 65.486, 91.519 66.211, 92.462 69.570 C 93.349 72.733, 94.028 73.500, 95.943 73.500 C 97.772 73.500, 98.592 72.691, 99.493 70 C 100.421 67.226, 101.476 66.231, 104.582 65.201 C 106.737 64.487, 109.145 63.263, 109.933 62.482 C 111.177 61.250, 111.110 60.778, 109.433 58.916 C 108.370 57.736, 106.375 56.297, 105 55.718 C 102.624 54.719, 102.724 54.629, 107 53.907 C 116.090 52.374, 119.537 52.766, 121 55.500 C 122.784 58.833, 124.202 58.684, 123.381 55.250 C 121.933 49.194, 121.594 49, 112.465 49 L 104 49 104 46 C 104 44.069, 103.492 43, 102.573 43 C 101.789 43, 100.978 42.212, 100.771 41.250 C 100.253 38.832, 105.070 28.260, 109.993 21.011 C 113.459 15.906, 113.990 14.464, 113.455 11.610 C 112.950 8.918, 112.185 8.053, 109.661 7.320 C 106.959 6.535, 106.501 5.937, 106.510 3.201 C 106.517 0.858, 106.066 0, 104.829 0 C 103.856 0, 103.004 0.926, 102.820 2.183 C 102.533 4.140, 101.879 4.373, 96.500 4.433 C 91.204 4.492, 90.384 4.236, 89.513 2.250 C 88.002 -1.195, 86 -0.522, 86 3.430 M 128 72 L 128 144 160 144 L 192 144 192 72 L 192 0 160 0 L 128 0 128 72" stroke="none" fill="black" fill-rule="evenodd"/>
</svg>