<svg xmlns="http://www.w3.org/2000/svg" width="192" height="144" viewBox="0 0 192 144" version="1.1">
	<path d="M 0 33 C 0 37.685, 1.054 39.340, 2.523 36.963 C 3.400 35.544, 2.044 28, 0.912 28 C 0.410 28, 0 30.250, 0 33 M 55.950 56.750 C 55.855 61.939, 54.955 71.501, 54.424 72.972 C 53.956 74.268, 53.781 74.268, 52.962 72.972 C 52.290 71.910, 52.026 72.544, 52.015 75.250 C 52.007 77.313, 52.450 79, 53 79 C 53.550 79, 54 79.575, 54 80.277 C 54 80.980, 55.322 83.001, 56.937 84.770 C 59.037 87.069, 60.391 87.790, 61.687 87.299 C 65.975 85.674, 66.235 84.585, 65.478 71.453 C 64.685 57.714, 63.185 54, 58.427 54 C 56.458 54, 55.990 54.519, 55.950 56.750 M 12.289 81.867 C 11.305 82.894, 8.911 84.021, 6.969 84.372 C 0.035 85.622, -0 85.784, -0 116.511 L 0 144 15 144 L 30 144 30 141.582 C 30 140.252, 30.273 138.451, 30.607 137.581 C 31.316 135.733, 24.210 132.058, 19.858 132.022 C 17.884 132.006, 17.058 131.369, 16.589 129.500 C 16.068 127.423, 15.330 126.980, 12.231 126.882 C 10.179 126.816, 7.948 126.834, 7.274 126.920 C 3.751 127.370, 8.566 110.661, 13.612 104.921 C 14.375 104.053, 15 102.628, 15 101.755 C 15 100.881, 15.357 100.017, 15.793 99.833 C 17.343 99.181, 20.767 92.441, 21.424 88.750 C 21.790 86.688, 22.590 85, 23.201 85 C 23.811 85, 23.004 83.876, 21.406 82.501 C 17.950 79.529, 14.743 79.306, 12.289 81.867 M 79.690 126.159 C 80.257 129.125, 77.561 134, 75.354 134 C 74.575 134, 73.699 134.620, 73.409 135.378 C 73.085 136.222, 70.508 137.024, 66.753 137.448 C 63.384 137.830, 59.383 138.785, 57.863 139.571 C 56.343 140.357, 53.550 141, 51.657 141 C 49.519 141, 47.996 141.569, 47.638 142.500 C 47.138 143.803, 49.748 144, 67.531 144 L 88 144 88 141.122 C 88 139.540, 87.325 137.685, 86.500 137 C 85.675 136.315, 85 134.910, 85 133.878 C 85 132.845, 84.599 132, 84.108 132 C 83.618 132, 82.963 130.988, 82.652 129.750 C 82.341 128.512, 81.435 126.609, 80.638 125.519 C 79.253 123.625, 79.211 123.653, 79.690 126.159 M 36.946 140.101 C 35.420 142.953, 35.837 144, 38.500 144 C 40.578 144, 41 143.522, 41 141.167 C 41 137.913, 38.472 137.249, 36.946 140.101" stroke="none" fill="black" fill-rule="evenodd"/>
</svg>