<svg xmlns="http://www.w3.org/2000/svg" width="192" height="144" viewBox="0 0 192 144" version="1.1">
	<path d="M 63.755 4.805 C 65.455 22.496, 53.553 44.974, 38.500 52.500 C 36.300 53.600, 34.275 54.744, 34 55.042 C 33.363 55.733, 27.035 57.577, 20.132 59.084 C 14.923 60.221, 5.308 59.908, 1.750 58.486 C 0.100 57.826, 0 60.239, 0 100.893 L 0 144 52.853 144 L 105.707 144 106.901 136.750 C 107.557 132.762, 109.164 126.531, 110.471 122.903 C 111.777 119.275, 114.027 110.120, 115.471 102.560 C 118.357 87.440, 118.177 80.961, 114.793 78.127 C 111.376 75.266, 110.804 73.280, 112.470 70.059 C 113.311 68.431, 114 66.859, 114 66.564 C 114 66.270, 111.751 66.916, 109.003 67.999 C 104.026 69.960, 103.990 69.960, 100.472 67.984 C 98.529 66.893, 95.597 66, 93.956 66 C 92.316 66, 86.246 64.256, 80.468 62.125 C 74.691 59.994, 69.732 58.624, 69.450 59.082 C 68.681 60.326, 66 58.997, 66 57.372 C 66 56.594, 67.144 55.436, 68.541 54.799 C 70.644 53.841, 71.808 53.994, 75.291 55.684 C 77.606 56.808, 83.119 58.509, 87.542 59.463 C 95.442 61.169, 95.648 61.163, 99.228 59.153 C 102.296 57.429, 103.973 57.198, 109.828 57.689 C 116.220 58.225, 116.877 58.099, 117.927 56.136 C 118.845 54.421, 118.791 54, 117.650 54 C 115.860 54, 112.684 49.265, 113.336 47.566 C 113.605 46.867, 112.964 45.557, 111.912 44.657 C 109.589 42.668, 109.444 39.272, 111.580 36.912 C 112.801 35.563, 112.914 34.708, 112.080 33.149 C 111.486 32.039, 111 30.153, 111 28.957 C 111 27.093, 111.392 26.877, 113.750 27.439 C 119.323 28.768, 130.883 34.892, 132.512 37.379 C 133.433 38.783, 134.548 42.760, 134.992 46.216 C 135.435 49.672, 136.294 53.767, 136.899 55.315 C 137.505 56.863, 138.001 59.113, 138.003 60.315 C 138.005 61.628, 139.201 63.298, 141 64.500 C 143.753 66.339, 144.179 67.485, 143.980 72.510 C 143.969 72.791, 144.644 74.344, 145.480 75.961 C 146.480 77.895, 147.025 81.909, 147.073 87.700 C 147.113 92.540, 147.482 98.862, 147.894 101.750 C 148.305 104.638, 148.286 107, 147.852 107 C 147.418 107, 147.345 107.788, 147.691 108.750 C 148.036 109.713, 147.968 110.184, 147.540 109.798 C 147.112 109.411, 146.110 109.747, 145.313 110.545 C 143.539 112.319, 143.841 113.357, 150.132 127.082 C 152.800 132.901, 155.270 139.099, 155.621 140.854 L 156.259 144.044 174.379 143.772 L 192.500 143.500 192.825 129 C 193.003 121.025, 192.837 88.737, 192.455 57.250 L 191.761 0 127.527 -0 L 63.294 -0 63.755 4.805 M 0.459 101 C 0.459 124.925, 0.589 134.713, 0.749 122.750 C 0.908 110.788, 0.908 91.213, 0.749 79.250 C 0.589 67.288, 0.459 77.075, 0.459 101" stroke="none" fill="black" fill-rule="evenodd"/>
</svg>