<svg xmlns="http://www.w3.org/2000/svg" width="192" height="144" viewBox="0 0 192 144" version="1.1">
	<path d="M 74 3.015 C 74 5.336, 73.262 6.478, 70.791 7.981 C 68.841 9.167, 66.682 9.707, 65.291 9.358 C 63.461 8.899, 63 9.196, 63 10.833 C 63 11.960, 62.550 13.160, 62 13.500 C 61.450 13.840, 61 14.685, 61 15.379 C 61 17.529, 68.049 25, 70.078 25 C 72.704 25, 72.489 26.642, 69.500 29.412 C 66.477 32.214, 66.368 33, 69 33 C 70.460 33, 71 33.667, 71 35.469 C 71 37.016, 71.466 37.770, 72.250 37.488 C 72.970 37.230, 74.304 38.785, 75.395 41.151 C 76.438 43.413, 78.125 45.481, 79.145 45.748 C 80.165 46.015, 81 46.657, 81 47.176 C 81 47.694, 81.419 47.859, 81.932 47.542 C 82.444 47.226, 83.569 47.974, 84.432 49.206 C 85.294 50.437, 86 50.895, 86 50.223 C 86 49.550, 86.679 49, 87.508 49 C 88.635 49, 88.780 49.443, 88.081 50.750 C 87.567 51.712, 86.920 53.242, 86.643 54.149 C 86.366 55.056, 84.421 56.341, 82.320 57.004 C 80.219 57.667, 76.754 59.332, 74.621 60.704 C 70.441 63.393, 70.510 63.421, 67.474 57.821 L 66.022 55.141 54.726 55.321 C 43.845 55.493, 43.210 55.385, 37.465 52.372 C 34.184 50.652, 27.077 46.934, 21.671 44.109 L 11.842 38.975 5.921 42.630 L 0 46.284 0 54.177 C 0 59.088, 0.515 62.907, 1.362 64.285 C 7.650 74.508, 11.410 80, 12.123 80 C 12.588 80, 12.795 78.088, 12.583 75.750 C 12.372 73.412, 12.154 68.478, 12.099 64.785 C 12.011 58.822, 11.664 57.687, 9 54.653 C 5.358 50.505, 5.238 48.730, 8.454 46.622 C 10.751 45.117, 11.142 45.151, 14.533 47.152 C 17.429 48.861, 18.027 49.713, 17.511 51.395 C 14.925 59.818, 14.903 59.676, 20.526 70.321 C 23.472 75.898, 26.310 80.603, 26.831 80.777 C 27.388 80.963, 27.834 76.228, 27.911 69.297 C 28.024 59.092, 27.771 57.061, 26.035 54.250 C 24.569 51.874, 24.389 51, 25.365 51 C 27.002 51, 35 56.688, 35 57.853 C 35 58.315, 34.271 60.153, 33.381 61.939 C 32.358 63.988, 31.952 66.533, 32.279 68.842 C 32.987 73.840, 40.837 90.577, 41.930 89.418 C 42.407 88.913, 43.267 83.561, 43.841 77.524 C 44.807 67.358, 44.741 66.317, 42.942 63.406 C 41.874 61.678, 41 59.934, 41 59.530 C 41 58.820, 55.083 59.836, 55.911 60.606 C 56.136 60.816, 55.536 61.856, 54.576 62.916 C 51.205 66.641, 51.499 71.680, 55.719 82.542 C 58.845 90.588, 59.452 93.173, 58.768 95.542 C 58.299 97.169, 56.922 102.266, 55.708 106.868 L 53.500 115.236 44 121.217 C 38.775 124.507, 32.637 128.293, 30.360 129.630 L 26.221 132.061 20.190 126.030 C 14.382 120.222, 10.942 118.666, 9.406 121.152 C 9.015 121.785, 9.541 122.922, 10.575 123.679 C 13.325 125.690, 11.227 128.475, 6.877 128.588 C -0.393 128.776, -0 128.330, 0 136.399 L 0 143.797 17.375 143.924 L 34.751 144.051 45.125 137.939 C 50.831 134.577, 56.969 130.712, 58.765 129.351 C 62.453 126.555, 65.689 120.641, 68.943 110.750 C 70.164 107.038, 71.304 104, 71.476 104 C 72.159 104, 71.907 121.942, 71.124 129 C 70.667 133.125, 69.546 138.188, 68.633 140.250 L 66.973 144 95.974 144 L 124.975 144 122.713 138.750 C 120.891 134.521, 120.392 131.263, 120.145 122 C 119.829 110.160, 120.581 108.711, 123.001 116.500 C 126.231 126.898, 128.062 128.565, 148.145 139.388 L 156.789 144.047 174.645 143.774 L 192.500 143.500 192.792 135.750 L 193.084 128 187.113 128 C 179.526 128, 176.776 125.973, 179.817 122.623 C 180.878 121.455, 181.540 119.938, 181.289 119.250 C 180.301 116.542, 177.060 118.282, 171.974 124.250 C 169.045 127.688, 166.324 130.882, 165.926 131.348 C 165.529 131.814, 159.084 128.552, 151.603 124.098 C 144.123 119.644, 137.655 116, 137.230 116 C 136.805 116, 135.243 110.788, 133.757 104.418 L 131.057 92.836 135.528 81.712 C 137.988 75.593, 140 69.828, 140 68.900 C 140 67.973, 140.675 66.955, 141.500 66.638 C 142.325 66.322, 143 65.463, 143 64.731 C 143 63.998, 143.562 62.188, 144.250 60.707 C 145.177 58.711, 146.236 58.014, 148.349 58.008 L 151.198 58 149.024 61.683 C 147.083 64.974, 146.917 66.281, 147.473 73.933 C 148.479 87.775, 149.008 90.443, 150.435 88.858 C 152.554 86.504, 159.232 70.686, 159.756 66.781 C 160.094 64.259, 159.710 62.207, 158.576 60.476 C 156.174 56.810, 157.402 54.337, 163.041 51.479 C 165.732 50.116, 168.160 49, 168.437 49 C 168.713 49, 167.815 50.658, 166.440 52.684 C 164.079 56.163, 163.955 57.011, 164.220 67.934 C 164.374 74.295, 164.885 79.500, 165.356 79.500 C 165.827 79.500, 168.658 75, 171.647 69.500 C 177.263 59.166, 177.415 58.380, 175.433 49.903 C 174.927 47.740, 175.376 46.959, 178.121 45.220 C 181.242 43.244, 181.565 43.221, 184.209 44.782 C 187.738 46.867, 187.709 48.039, 184 53.159 C 181.105 57.154, 181 57.681, 181 68.150 C 181 74.118, 181.338 78.995, 181.750 78.988 C 182.162 78.981, 184.881 74.949, 187.791 70.028 L 193.082 61.081 192.791 52.803 L 192.500 44.526 186.843 40.642 L 181.187 36.757 170.343 42.547 C 156.015 50.198, 148.640 53.950, 147.876 53.978 C 147.532 53.990, 147.237 52.087, 147.220 49.750 C 147.202 47.413, 147.123 41.225, 147.043 36 C 146.925 28.254, 147.277 25.724, 148.949 22.298 C 152.356 15.317, 150.932 2.258, 146.724 1.894 C 142.830 1.557, 139.173 2.355, 136.790 4.060 C 133.058 6.733, 132 6.499, 132 3 L 132 0 103 0 L 74 0 74 3.015 M 127.750 31.593 C 124.835 36.396, 124.371 38.493, 126 39.500 C 127.728 40.568, 127.090 42, 124.887 42 C 123.107 42, 122.843 42.474, 123.213 45 C 123.455 46.650, 123.282 48, 122.827 48 C 122.372 48, 122 47.550, 122 47 C 122 45.173, 120.347 45.961, 116.653 49.548 C 114.644 51.500, 112.964 53.862, 112.919 54.798 C 112.875 55.734, 112.023 54.751, 111.027 52.614 C 109.283 48.873, 109.172 48.809, 108.056 50.896 C 107.418 52.088, 106.178 52.937, 105.302 52.782 C 104.425 52.627, 103.517 53.044, 103.284 53.709 C 103.038 54.412, 105.503 56.118, 109.180 57.790 C 112.656 59.370, 116.118 61.414, 116.872 62.331 C 118.915 64.814, 119.540 64.469, 122.905 59 C 125.205 55.262, 126.582 54, 128.361 54 C 130.627 54, 130.735 53.700, 130.621 47.750 C 130.554 44.313, 130.865 38.237, 131.311 34.250 C 131.756 30.262, 131.756 27.014, 131.311 27.032 C 130.865 27.049, 129.262 29.102, 127.750 31.593 M 89 38.893 C 89 39.384, 89.739 40.069, 90.641 40.416 C 92.014 40.943, 92.076 40.796, 91.019 39.523 C 89.579 37.788, 89 37.607, 89 38.893 M 0.355 54.500 C 0.352 59.450, 0.521 61.601, 0.731 59.280 C 0.940 56.959, 0.943 52.909, 0.736 50.280 C 0.530 47.651, 0.358 49.550, 0.355 54.500 M 126.587 63.652 C 124.548 66.206, 124.076 67.476, 124.871 68.271 C 126.128 69.528, 125.968 69.672, 128.769 64.778 C 131.565 59.893, 130.163 59.169, 126.587 63.652 M 61 61.353 C 61 63.244, 65.190 70, 66.038 69.476 C 67.745 68.422, 67.069 66.441, 64 63.500 C 62.350 61.919, 61 60.953, 61 61.353 M 0.343 136.500 C 0.346 140.900, 0.522 142.576, 0.733 140.224 C 0.945 137.872, 0.942 134.272, 0.727 132.224 C 0.512 130.176, 0.339 132.100, 0.343 136.500" stroke="none" fill="black" fill-rule="evenodd"/>
</svg>