<svg xmlns="http://www.w3.org/2000/svg" width="192" height="144" viewBox="0 0 192 144" version="1.1">
	<path d="M -0 72.005 L -0 144.010 96.250 143.755 L 192.500 143.500 192.567 71.500 C 192.604 31.900, 192.379 3.264, 192.067 7.863 C 191.505 16.157, 191.484 16.209, 189.607 14.127 C 187.915 12.249, 186.858 12.069, 179.607 12.423 C 175.148 12.640, 170.316 13.278, 168.870 13.839 C 165.317 15.217, 152.088 14.288, 149.305 12.464 C 147.965 11.586, 147.295 10.394, 147.639 9.498 C 147.983 8.602, 147.645 8, 146.797 8 C 146.018 8, 143.833 6.210, 141.940 4.023 L 138.500 0.045 69.250 0.023 L 0 0 -0 72.005 M 0.474 72.500 C 0.474 112.100, 0.598 128.154, 0.750 108.176 C 0.901 88.198, 0.901 55.798, 0.750 36.176 C 0.598 16.554, 0.474 32.900, 0.474 72.500 M 170.364 40.170 C 168.265 41.186, 166 44.901, 166 47.327 C 166 48.005, 163.753 49.432, 161.006 50.498 C 158.017 51.658, 156.110 52.985, 156.256 53.805 C 156.407 54.653, 154.205 56.044, 150.471 57.458 C 147.155 58.714, 142.112 60.923, 139.264 62.366 L 134.086 64.990 129.793 62.121 C 127.432 60.543, 124.375 58.908, 123 58.489 C 121.625 58.070, 115.892 55.763, 110.259 53.363 C 97.673 48.001, 94.728 47.911, 83.839 52.560 C 68.830 58.968, 62.556 68.257, 67.832 76.258 C 69.868 79.346, 70.981 78.938, 71.039 75.083 C 71.077 72.576, 71.119 72.593, 72.458 75.671 C 73.216 77.415, 74.840 79.379, 76.065 80.035 C 78.134 81.142, 78.240 81.059, 77.553 78.863 C 76.223 74.617, 75.766 71.053, 76.353 69.522 C 76.821 68.304, 77.400 68.491, 79.419 70.510 C 80.789 71.880, 82.380 73, 82.955 73 C 83.530 73, 84 73.450, 84 74 C 84 74.550, 83.065 75, 81.922 75 C 79.927 75, 79.858 75.428, 80.172 85.750 C 80.353 91.662, 80.275 97.161, 80 97.968 C 79.376 99.799, 85.160 100.944, 89.386 99.825 C 93.319 98.785, 93.381 98.637, 91.463 94.929 C 89.831 91.772, 89.916 84.460, 91.670 77.250 C 92.148 75.282, 91.827 75, 89.108 75 C 85.651 75, 84.933 73.474, 87.941 72.519 C 89.009 72.180, 91.483 69.674, 93.440 66.951 C 95.396 64.228, 97.560 62.014, 98.248 62.031 C 98.937 62.048, 104.225 66.150, 110 71.147 C 121.656 81.233, 124.851 83, 131.429 83 C 135.851 83, 147.970 80.454, 157.210 77.583 C 161.811 76.153, 161.962 76.175, 163.710 78.514 C 165.394 80.768, 165.788 80.846, 170.383 79.845 C 174.689 78.907, 175.710 79.031, 179.019 80.891 C 183.274 83.282, 185.785 83.510, 189.453 81.839 L 192 80.679 192 59.839 L 192 39 182.250 39.068 C 176.887 39.105, 171.539 39.601, 170.364 40.170 M 83.086 65.184 C 82.230 67.639, 82.265 68.550, 83.238 69.168 C 85.037 70.310, 85.656 70.201, 87.429 68.429 C 89.544 66.313, 89.408 64.289, 87.066 63.035 C 84.374 61.595, 84.328 61.619, 83.086 65.184" stroke="none" fill="black" fill-rule="evenodd"/>
</svg>