<svg xmlns="http://www.w3.org/2000/svg" width="192" height="144" viewBox="0 0 192 144" version="1.1">
	<path d="M 0 72 L 0 144 13.575 144 L 27.150 144 26.544 134.750 C 26.211 129.662, 25.457 118.668, 24.868 110.317 C 24.077 99.112, 24.097 93.347, 24.944 88.317 C 25.575 84.568, 26.231 78.259, 26.403 74.297 C 26.808 64.916, 30.391 57.610, 38.627 49.370 C 47.443 40.550, 60.802 33.020, 69.050 32.224 C 75.001 31.649, 86.520 33.474, 93.560 36.108 C 98.619 38.001, 99.107 38.439, 98.564 40.603 C 98.233 41.921, 98.372 43, 98.872 43 C 100 43, 103 50.312, 103 53.061 C 103 54.172, 102.019 56.407, 100.821 58.028 C 98.229 61.534, 98.636 62.148, 103.682 62.349 C 107.085 62.484, 107.471 62.761, 107.235 64.902 C 107.089 66.224, 107.590 68.251, 108.348 69.408 C 109.136 70.611, 109.522 72.899, 109.249 74.755 C 108.987 76.540, 109.213 78, 109.751 78 C 110.288 78, 111.016 80.100, 111.368 82.667 C 112.025 87.458, 110.362 91, 107.456 91 C 106.777 91, 105.198 91.829, 103.946 92.842 C 100.975 95.248, 100.260 105.419, 102.856 108.352 C 105.912 111.806, 109.795 113.153, 114.609 112.431 C 118.462 111.854, 119.462 112.086, 121.543 114.041 C 123.426 115.809, 123.719 116.633, 122.844 117.688 C 121.952 118.763, 123.093 120.472, 128.241 125.775 C 131.831 129.474, 136.958 135.056, 139.634 138.180 L 144.500 143.860 168.500 143.680 L 192.500 143.500 192.757 71.750 L 193.013 0 96.507 0 L 0 0 0 72 M 0.474 72.500 C 0.474 112.100, 0.598 128.154, 0.750 108.176 C 0.901 88.198, 0.901 55.798, 0.750 36.176 C 0.598 16.554, 0.474 32.900, 0.474 72.500" stroke="none" fill="black" fill-rule="evenodd"/>
</svg>