<svg xmlns="http://www.w3.org/2000/svg" width="192" height="144" viewBox="0 0 192 144" version="1.1">
	<path d="M -0 72.005 L -0 144.010 96.250 143.755 L 192.500 143.500 192.757 71.750 L 193.013 0 96.507 0 L 0 0 -0 72.005 M 0.474 72.500 C 0.474 112.100, 0.598 128.154, 0.750 108.176 C 0.901 88.198, 0.901 55.798, 0.750 36.176 C 0.598 16.554, 0.474 32.900, 0.474 72.500 M 88.588 38.858 C 88.296 39.329, 88.487 41.212, 89.012 43.041 C 89.537 44.871, 89.752 46.581, 89.492 46.842 C 89.231 47.103, 89.435 47.819, 89.944 48.433 C 90.454 49.047, 91.168 51.789, 91.529 54.525 C 92.082 58.706, 91.847 59.932, 90.057 62.204 C 88.885 63.692, 87.340 64.684, 86.623 64.409 C 84.323 63.526, 82.833 66.430, 84.005 69.513 C 84.581 71.029, 84.960 73.671, 84.847 75.385 C 84.439 81.539, 85.046 83.712, 87.972 86.583 C 90.632 89.193, 90.947 90.158, 90.972 95.750 C 90.988 99.269, 90.563 102, 90 102 C 87.802 102, 89.189 104.176, 92.192 105.439 C 95.127 106.673, 95.522 106.606, 97.093 104.609 C 98.033 103.414, 99.123 99.863, 99.516 96.718 C 100.184 91.373, 100.491 90.852, 104.205 88.764 C 108.116 86.566, 112 80.663, 112 76.916 C 112 74.376, 106.286 60.806, 104.792 59.798 C 104.081 59.319, 102.347 58.301, 100.939 57.535 C 98.757 56.350, 98.209 55.058, 97.245 48.827 C 96.408 43.422, 95.546 41.051, 93.945 39.755 C 91.601 37.856, 89.431 37.493, 88.588 38.858" stroke="none" fill="black" fill-rule="evenodd"/>
</svg>