<svg xmlns="http://www.w3.org/2000/svg" width="192" height="144" viewBox="0 0 192 144" version="1.1">
	<path d="M 0 72 L 0 144 43 144 C 83.284 144, 86 143.889, 86.003 142.250 C 86.005 141.287, 86.485 135.393, 87.070 129.152 C 88.036 118.835, 87.973 117.628, 86.379 115.866 C 84.875 114.205, 84.796 113.454, 85.821 110.619 C 88.043 104.474, 89.184 91.345, 87.875 86.977 C 86.928 83.816, 86.960 81.814, 88.032 77.248 C 88.774 74.087, 89.408 71.200, 89.440 70.833 C 89.473 70.467, 89.837 69.829, 90.250 69.417 C 90.662 69.004, 91 67.470, 91 66.008 C 91 63.306, 88.360 60.209, 84.250 58.090 C 79.851 55.821, 81.723 48.099, 87.659 44.032 C 91.787 41.203, 96.671 40.899, 100.256 43.248 C 107.043 47.695, 111.615 69.065, 113.039 103 C 113.558 115.375, 114.740 129.668, 115.665 134.762 L 117.347 144.024 154.923 143.762 L 192.500 143.500 192.519 71.500 C 192.530 31.900, 192.410 12.629, 192.254 28.676 L 191.970 57.852 189.226 57.065 C 178.908 54.106, 165.454 42.692, 160.861 33 C 156.012 22.770, 154.564 16.989, 154.662 8.250 L 154.754 0 77.377 0 L 0 0 0 72 M 0.474 72.500 C 0.474 112.100, 0.598 128.154, 0.750 108.176 C 0.901 88.198, 0.901 55.798, 0.750 36.176 C 0.598 16.554, 0.474 32.900, 0.474 72.500" stroke="none" fill="black" fill-rule="evenodd"/>
</svg>