<svg xmlns="http://www.w3.org/2000/svg" width="192" height="144" viewBox="0 0 192 144" version="1.1">
	<path d="M 159 7.821 C 157.625 8.703, 151.666 13.584, 145.759 18.669 C 139.851 23.754, 132.256 29.846, 128.882 32.207 C 125.508 34.568, 121.904 37.117, 120.874 37.872 C 119.180 39.112, 119 39.011, 119 36.822 C 119 32.338, 114.415 30.061, 113.820 34.250 C 113.543 36.198, 112.997 36.456, 109.737 36.172 C 102.174 35.514, 93 41.620, 93 47.312 C 93 49.830, 91.742 49.357, 89.500 45.997 C 86.952 42.179, 81.898 39.765, 77.315 40.178 C 73.904 40.485, 73.566 40.220, 70.110 34.527 C 57.880 14.383, 31.681 22.961, 31.539 47.157 C 31.504 53.108, 31.825 54.222, 34.558 57.657 C 38.788 62.972, 45.067 65.993, 51.962 66.029 L 57.500 66.059 54 69.240 C 52.075 70.989, 50.618 72.941, 50.763 73.577 C 50.908 74.213, 50.345 75.298, 49.513 75.989 C 47.994 77.250, 47.416 80, 48.671 80 C 49.040 80, 50.137 79.281, 51.108 78.402 C 52.079 77.523, 53.352 77.100, 53.937 77.461 C 55.284 78.294, 55.331 81, 53.998 81 C 53.447 81, 53.897 82.681, 54.998 84.735 C 56.099 86.790, 57 90, 57 91.869 C 57 95.540, 58.558 102.098, 60.312 105.812 C 61.120 107.521, 61.091 108.625, 60.202 110.048 C 58.645 112.542, 58.664 117.489, 60.241 120.014 C 61.228 121.595, 61.228 122.405, 60.241 123.986 C 58.649 126.535, 58.649 131.465, 60.241 134.014 C 61.228 135.595, 61.228 136.405, 60.241 137.986 C 58.765 140.348, 58.600 144, 59.969 144 C 60.501 144, 60.678 143.325, 60.362 142.500 C 59.541 140.360, 62.656 140.579, 63.920 142.750 C 64.795 144.253, 64.943 144.120, 64.970 141.809 C 64.986 140.329, 64.550 138.840, 64 138.500 C 62.703 137.699, 62.703 133.301, 64 132.500 C 65.300 131.697, 65.300 125.303, 64 124.500 C 62.703 123.699, 62.703 119.301, 64 118.500 C 64.550 118.160, 65 116.360, 65 114.500 C 65 112.640, 64.550 110.840, 64 110.500 C 63.450 110.160, 63 108.838, 63 107.562 C 63 105.097, 63.891 104.614, 73.800 101.707 L 79.100 100.152 78.440 104.551 C 78.077 106.971, 78.339 114.288, 79.021 120.813 C 80.368 133.690, 79.778 137.714, 75.937 141.837 L 73.922 144 105.461 144 C 122.807 144, 137 143.745, 137 143.434 C 137 143.123, 136.555 142.036, 136.010 141.019 C 135.234 139.568, 135.772 138.053, 138.510 133.985 C 142.940 127.402, 143.099 123.100, 139.141 116.946 C 137.568 114.501, 135.093 111.409, 133.641 110.076 C 131.061 107.708, 131 107.366, 131 95.367 C 131 82.403, 132.643 68, 134.122 68 C 134.605 68, 135 68.450, 135 69 C 135 71.283, 137.909 69.739, 140.412 66.128 C 146.708 57.042, 148.775 46.357, 144.777 43.557 C 141.977 41.595, 136.975 41.552, 134.441 43.468 C 133.374 44.276, 131.839 44.951, 131.031 44.968 C 130.224 44.986, 132.234 42.300, 135.500 39 C 139.358 35.102, 142.249 33, 143.754 33 C 145.028 33, 148.335 31.707, 151.103 30.126 L 156.136 27.252 153.406 25.105 C 150.769 23.031, 150.741 22.910, 152.586 21.560 C 153.637 20.792, 154.178 19.844, 153.788 19.455 C 153.398 19.065, 155.134 16.075, 157.645 12.812 C 160.156 9.548, 162.051 6.729, 161.856 6.548 C 161.660 6.367, 160.375 6.940, 159 7.821 M 93 53.559 C 93 54.416, 93.457 54.835, 94.016 54.490 C 94.575 54.144, 94.774 53.443, 94.457 52.931 C 93.600 51.544, 93 51.802, 93 53.559 M 88.241 66.620 C 85.765 71.098, 74.895 73.620, 69.807 70.897 C 67.047 69.420, 65.771 71.361, 66.452 76 C 66.735 77.925, 67.086 82.050, 67.233 85.167 C 67.380 88.283, 67.828 91.162, 68.229 91.563 C 68.936 92.270, 81.400 88.894, 85.558 86.870 C 88.214 85.577, 93.292 70.275, 91.424 69.195 C 90.763 68.813, 90.041 67.600, 89.818 66.500 C 89.421 64.540, 89.389 64.542, 88.241 66.620 M 110.640 113.556 C 108.219 119.410, 107.432 128.748, 108.967 133.400 C 110.089 136.799, 114.475 142, 116.221 142 C 116.628 142, 117.234 140.918, 117.566 139.594 C 117.898 138.271, 119.031 136.964, 120.085 136.688 C 121.138 136.413, 121.995 135.358, 121.988 134.344 C 121.963 130.502, 119.198 122.352, 116.649 118.610 C 115.192 116.471, 113.993 113.996, 113.985 113.110 C 113.947 109.144, 112.378 109.353, 110.640 113.556 M 60.688 112.646 C 59.147 114.186, 60.040 117, 62.070 117 C 63.625 117, 64.060 116.461, 63.820 114.828 C 63.488 112.573, 61.880 111.453, 60.688 112.646 M 61.250 126.662 C 59.482 127.376, 59.691 131, 61.500 131 C 62.433 131, 63 130.056, 63 128.500 C 63 127.125, 62.888 126.036, 62.750 126.079 C 62.612 126.122, 61.938 126.385, 61.250 126.662" stroke="none" fill="black" fill-rule="evenodd"/>
</svg>