<svg xmlns="http://www.w3.org/2000/svg" width="192" height="144" viewBox="0 0 192 144" version="1.1">
	<path d="M -0 72.005 L -0 144.010 96.250 143.755 L 192.500 143.500 192.757 71.750 L 193.013 0 96.507 0 L 0 0 -0 72.005 M 0.474 72.500 C 0.474 112.100, 0.598 128.154, 0.750 108.176 C 0.901 88.198, 0.901 55.798, 0.750 36.176 C 0.598 16.554, 0.474 32.900, 0.474 72.500 M 88.155 42.179 C 79.908 43.212, 71.461 46.063, 67.563 49.129 C 64.007 51.927, 61.493 56.893, 62.915 58.315 C 63.512 58.912, 64 60.183, 64 61.141 C 64 64.472, 66.143 64.169, 69.624 60.346 L 73.126 56.500 72.422 59.500 C 71.536 63.274, 71.685 66.041, 72.954 69.379 C 74.484 73.404, 75.673 72.520, 76.433 66.793 L 77.124 61.585 79.312 65.465 C 82.652 71.387, 83.938 71.113, 83.859 64.497 C 83.770 57.033, 86.363 53.866, 91.850 54.739 C 93.858 55.058, 96.518 56.035, 97.762 56.910 C 99.747 58.306, 99.949 59.080, 99.418 63.250 C 98.912 67.221, 99.080 68, 100.442 68 C 101.413 68, 102.827 66.235, 103.944 63.630 C 105.332 60.393, 106.646 58.971, 109.010 58.146 C 112.736 56.847, 114.234 57.602, 130.500 68.980 C 145.661 79.584, 152.996 83.788, 158.500 85.028 C 164.991 86.491, 176.054 85.587, 189.750 82.473 C 191.972 81.968, 192 81.754, 192 65.481 C 192 56.416, 191.717 49, 191.371 49 C 191.026 49, 186.635 50.755, 181.613 52.901 C 176.592 55.046, 171.809 56.956, 170.984 57.146 C 170.159 57.335, 166.659 56.223, 163.207 54.673 C 159.755 53.124, 151.659 50.734, 145.215 49.362 C 138.772 47.990, 129.164 45.547, 123.864 43.934 C 113.406 40.750, 103.459 40.261, 88.155 42.179 M 87.419 90.780 C 86.974 93.566, 86.185 94.980, 84.886 95.320 C 83.592 95.658, 83.004 96.705, 83.012 98.656 C 83.028 102.633, 85.413 110.754, 87.957 115.500 C 89.590 118.546, 89.959 120.492, 89.503 123.661 C 88.789 128.620, 89.764 129.510, 95.472 129.111 C 98.675 128.887, 103.642 126.821, 106.874 124.369 C 107.080 124.212, 106.051 122.661, 104.587 120.922 C 101.064 116.734, 99.016 111.642, 99.049 107.154 C 99.065 105.144, 98.712 101.025, 98.265 98 C 97.424 92.299, 97.424 92.299, 92 93.121 C 89.865 93.445, 89.500 93.112, 89.500 90.839 C 89.500 86.468, 88.115 86.429, 87.419 90.780" stroke="none" fill="black" fill-rule="evenodd"/>
</svg>