<svg xmlns="http://www.w3.org/2000/svg" width="192" height="144" viewBox="0 0 192 144" version="1.1">
	<path d="M 52 15.500 C 53.076 16.797, 52.611 17, 48.557 17 C 43.451 17, 40.226 18.294, 38.193 21.159 C 37.441 22.219, 35.664 23, 34.002 23 C 30.430 23, 29.308 24.551, 31.770 26.089 C 33.042 26.883, 33.493 28.094, 33.217 29.976 C 32.914 32.041, 33.481 33.233, 35.535 34.849 C 37.841 36.663, 38.240 37.703, 38.159 41.704 C 38.101 44.620, 37.349 47.391, 36.191 48.961 C 34.943 50.651, 34.077 54.150, 33.601 59.423 C 32.814 68.136, 32.427 69.125, 26.838 76.707 C 24.727 79.571, 23 82.393, 23 82.977 C 23 83.562, 24.150 85.861, 25.555 88.087 C 27.905 91.809, 28.367 92.080, 31.305 91.450 C 35.625 90.524, 35.750 90.415, 36.518 86.917 C 36.888 85.234, 37.382 84.049, 37.616 84.283 C 37.850 84.517, 36.946 91.412, 35.608 99.604 C 34.269 107.797, 32.684 119, 32.086 124.500 C 31.488 130, 30.765 136.585, 30.480 139.134 L 29.962 143.767 50.531 143.750 L 71.100 143.733 70.567 141.116 C 69.857 137.633, 66.429 109.196, 64.465 90.500 C 63.598 82.250, 62.435 73.767, 61.879 71.649 C 61.323 69.531, 61.040 67.626, 61.250 67.416 C 61.460 67.207, 63.029 67.562, 64.736 68.206 C 67.189 69.132, 68.171 69.103, 69.420 68.067 C 71.418 66.408, 71.461 62.628, 69.500 61 C 67.482 59.325, 67.612 57.364, 69.996 53.507 L 71.992 50.278 66.496 46.629 C 62.020 43.657, 61 42.462, 61 40.189 C 61 37.159, 63.041 32.020, 64.250 32.008 C 65.646 31.993, 65.011 26.941, 63.542 26.378 C 62.740 26.070, 60.933 23.855, 59.527 21.455 C 57.094 17.304, 53.605 14, 51.655 14 C 51.160 14, 51.315 14.675, 52 15.500" stroke="none" fill="black" fill-rule="evenodd"/>
</svg>