<svg xmlns="http://www.w3.org/2000/svg" width="192" height="144" viewBox="0 0 192 144" version="1.1">
	<path d="M 0 36.527 L 0 73.054 14.250 72.967 C 24.244 72.906, 32.233 73.491, 41 74.928 C 68.498 79.436, 98.683 81.405, 106.500 79.202 C 112.089 77.627, 110.809 75.326, 103.062 73.018 C 99.178 71.862, 96 70.554, 96 70.113 C 96 69.671, 96.906 68.490, 98.014 67.487 C 99.232 66.385, 99.804 64.959, 99.462 63.880 C 99.070 62.646, 100.586 60.258, 104.379 56.132 C 107.395 52.851, 110.568 48.802, 111.431 47.133 C 114.309 41.567, 112.960 32.546, 108.652 28.553 C 105.830 25.938, 99.035 21.602, 98.596 22.136 C 96.303 24.928, 94.731 39.903, 94.546 60.700 C 94.467 69.649, 92.743 64.750, 91.765 52.795 C 90.426 36.425, 92.420 16.928, 95.422 17.041 C 96.015 17.063, 98.058 18.413, 99.962 20.041 C 101.866 21.668, 104 23, 104.704 23 C 105.408 23, 106.779 21.313, 107.750 19.250 C 109.390 15.767, 109.835 15.493, 114.008 15.397 C 122.013 15.215, 124.809 18.634, 120.938 23.869 C 119.743 25.487, 119.068 27.302, 119.440 27.903 C 120.341 29.360, 129.660 33.639, 133.803 34.498 C 135.645 34.879, 136.935 35.695, 136.720 36.341 C 136.065 38.307, 133.336 38.209, 128.886 36.059 C 123.712 33.559, 123.474 33.546, 123.255 35.750 C 123.160 36.712, 122.797 38.896, 122.449 40.602 C 121.987 42.869, 122.510 45.073, 124.392 48.786 C 127.739 55.392, 128.943 64.424, 126.595 65.325 C 125.428 65.773, 125.128 66.661, 125.560 68.385 C 125.896 69.721, 125.666 71.756, 125.050 72.907 C 124.434 74.058, 124.086 75, 124.276 75 C 124.467 75, 131.743 72.975, 140.445 70.500 C 149.263 67.992, 158.390 66, 161.062 66 C 166.432 66, 167.242 65.415, 171.884 58.180 C 175.461 52.607, 177.281 51.428, 179.039 53.546 C 180.989 55.897, 179.465 59.161, 169.170 74.685 C 158.209 91.213, 152.104 98.898, 143.150 107.438 C 131.823 118.243, 127.334 120.237, 123.609 116.120 C 122.495 114.889, 120.108 114.091, 116.697 113.808 C 113.525 113.545, 109.033 112.129, 105.214 110.188 C 99.710 107.391, 97.957 107, 90.928 107 C 86.521 107, 79.484 106.291, 75.290 105.425 C 67.734 103.864, 67.577 103.874, 57.960 106.560 C 51.422 108.386, 47.154 109.063, 44.878 108.635 C 39.885 107.696, 30.251 102.847, 24.027 98.139 C 20.966 95.824, 17.440 94, 16.027 93.999 C 11.991 93.998, 3.888 90.499, 1.884 87.893 C 0.085 85.553, 0.044 86.147, 0.022 114.755 L -0 144.010 96.250 143.755 L 192.500 143.500 192.722 71.750 L 192.944 -0 96.472 -0 L 0 0 0 36.527 M 0.452 37 C 0.452 57.075, 0.585 65.288, 0.749 55.250 C 0.912 45.213, 0.912 28.788, 0.749 18.750 C 0.585 8.713, 0.452 16.925, 0.452 37 M 0.442 115 C 0.442 131.225, 0.580 137.862, 0.748 129.750 C 0.916 121.637, 0.916 108.362, 0.748 100.250 C 0.580 92.137, 0.442 98.775, 0.442 115" stroke="none" fill="black" fill-rule="evenodd"/>
</svg>