<svg xmlns="http://www.w3.org/2000/svg" width="192" height="144" viewBox="0 0 192 144" version="1.1">
	<path d="M 94.882 107.750 C 94.816 108.162, 94.802 108.795, 94.850 109.155 C 94.898 109.516, 93.354 111.018, 91.419 112.494 C 89.042 114.307, 88.198 115.553, 88.816 116.338 C 89.319 116.977, 89.978 119.449, 90.281 121.832 C 90.700 125.128, 90.433 126.504, 89.166 127.586 C 87.824 128.732, 87.564 130.465, 87.829 136.504 L 88.158 144 96.512 144 C 106.128 144, 105.944 144.193, 105.806 134.273 C 105.734 129.124, 105.397 127.943, 103.859 127.455 C 102.002 126.866, 101.937 124.412, 103.565 116.319 C 103.881 114.748, 103.164 113.541, 101.002 112.001 C 99.351 110.826, 98 109.219, 98 108.432 C 98 106.989, 95.102 106.355, 94.882 107.750 M 159.714 111.987 C 159.431 113.068, 157.917 114.500, 156.350 115.169 C 150.751 117.561, 150.112 118.657, 150.716 124.832 C 151.021 127.949, 151.758 131.114, 152.353 131.865 C 153.172 132.898, 152.896 133.666, 151.218 135.025 C 149.673 136.276, 149 137.910, 149 140.410 L 149 144 161 144 C 167.600 144, 173 143.818, 173 143.595 C 173 141.651, 167.996 134.569, 166.119 133.855 C 163.850 132.993, 163.818 132.858, 165.450 131.055 C 166.393 130.013, 167.060 128.112, 166.933 126.831 C 166.806 125.549, 167.056 123.678, 167.487 122.674 C 168.088 121.278, 167.409 120.137, 164.601 117.823 C 162.018 115.693, 161.100 114.259, 161.506 112.982 C 161.822 111.985, 161.664 110.911, 161.154 110.595 C 160.645 110.280, 159.996 110.907, 159.714 111.987 M 32.383 112.556 C 32.998 114.158, 30.057 117.743, 26.466 119.767 C 24.891 120.655, 24.748 121.126, 25.750 122.138 C 26.438 122.832, 27 124.656, 27 126.192 C 27 127.900, 27.776 129.468, 29 130.232 C 31.926 132.060, 31.452 133.696, 27.629 134.957 C 24.520 135.984, 24.266 136.380, 24.363 140.066 L 24.468 144.063 34.955 143.781 L 45.443 143.500 45.609 140.150 C 45.750 137.314, 45.250 136.490, 42.345 134.776 C 39.058 132.837, 38.987 132.672, 40.637 130.849 C 42.893 128.356, 43.438 119.105, 41.376 118.314 C 40.513 117.983, 40.172 117.034, 40.521 115.934 C 40.944 114.601, 40.286 113.682, 38.101 112.552 C 34.165 110.517, 31.601 110.519, 32.383 112.556" stroke="none" fill="black" fill-rule="evenodd"/>
</svg>