<svg xmlns="http://www.w3.org/2000/svg" width="192" height="144" viewBox="0 0 192 144" version="1.1">
	<path d="M 179.475 100.250 C 177.434 105.774, 172 121.303, 172 121.612 C 172 121.825, 171.372 122, 170.605 122 C 169.249 122, 168.042 117.108, 167.817 110.697 C 167.747 108.714, 167.304 108.053, 166.303 108.437 C 164.626 109.081, 157.902 106.444, 156.800 104.711 C 156.300 103.924, 156.025 104.239, 156.015 105.610 C 156.007 106.771, 154.838 109.433, 153.418 111.525 C 151.156 114.859, 151.032 115.439, 152.418 116.214 C 153.288 116.701, 154 118.007, 154 119.115 C 154 120.224, 154.515 122.093, 155.143 123.268 C 156.001 124.871, 156.001 125.500, 155.143 125.786 C 154.515 125.995, 154 128.054, 154 130.361 C 154 133.769, 154.562 135.048, 157 137.187 C 158.650 138.635, 160 140.760, 160 141.910 C 160 143.835, 160.564 144, 167.142 144 L 174.285 144 173.660 138.022 C 173.114 132.800, 173.296 131.802, 175.101 130.120 C 177.362 128.014, 184.129 126, 188.943 126 C 191.787 126, 192 125.749, 192 122.393 C 192 119.923, 191.606 118.934, 190.750 119.257 C 187.329 120.546, 173.955 123.288, 173.468 122.801 C 173.160 122.494, 174.712 117.013, 176.916 110.621 C 179.120 104.230, 180.701 99, 180.430 99 C 180.159 99, 179.729 99.563, 179.475 100.250 M 97 101.854 C 97 102.874, 95.942 104.849, 94.649 106.245 C 93.239 107.766, 92.586 109.325, 93.018 110.141 C 93.415 110.888, 94.038 113.862, 94.404 116.750 C 94.954 121.091, 94.803 122, 93.534 122 C 90.810 122, 92.367 128.054, 95.730 130.535 C 97.544 131.874, 98.612 139.504, 97.114 140.429 C 96.501 140.808, 96 141.766, 96 142.559 C 96 143.673, 97.549 144, 102.824 144 L 109.648 144 109.301 137.250 C 109.111 133.537, 108.754 129.938, 108.509 129.250 C 107.948 127.679, 110.128 127.645, 113.480 129.173 C 116.813 130.692, 118.693 129.164, 117.117 126.218 C 116.246 124.590, 116.385 124.132, 117.872 123.744 C 120.546 123.045, 121.137 119.390, 119.003 116.755 C 117.203 114.532, 117.176 114.530, 115.039 116.464 C 113.260 118.075, 112.554 118.203, 110.958 117.206 C 109.896 116.543, 108.453 116, 107.751 116 C 106.870 116, 106.506 114.419, 106.575 110.891 C 106.668 106.133, 106.479 105.714, 103.816 104.786 C 102.244 104.238, 100.501 102.937, 99.944 101.895 C 98.648 99.473, 97 99.450, 97 101.854 M 40.278 107.045 C 39.719 109.182, 33.298 113.009, 31.410 112.331 C 29.956 111.809, 30.337 123.893, 31.865 126.748 C 33.270 129.373, 33.288 130, 31.958 130 C 31.385 130, 29.950 130.900, 28.770 132 C 27.071 133.583, 25.149 134.021, 19.561 134.100 C 11.773 134.210, 7.982 134.976, 7.691 136.500 C 7.586 137.050, 8.625 137.658, 10 137.851 C 11.375 138.044, 12.725 138.514, 13 138.896 C 13.275 139.278, 17.100 139.311, 21.500 138.968 C 25.900 138.626, 29.903 138.693, 30.395 139.118 C 31.568 140.130, 27.132 141.216, 23.459 140.815 C 21.416 140.592, 20.472 140.981, 20.233 142.143 C 19.935 143.590, 21.378 143.803, 32.395 143.937 L 44.896 144.088 44.627 138.738 C 44.479 135.796, 44.024 132.848, 43.615 132.187 C 43.206 131.524, 43.604 130.253, 44.503 129.354 C 45.543 128.315, 46.038 126.406, 45.870 124.084 C 45.726 122.082, 45.939 119.907, 46.345 119.250 C 46.751 118.594, 46.356 116.947, 45.468 115.591 C 44.580 114.236, 43.933 112.311, 44.032 111.313 C 44.284 108.754, 42.951 105, 41.790 105 C 41.252 105, 40.572 105.920, 40.278 107.045" stroke="none" fill="black" fill-rule="evenodd"/>
</svg>