<svg xmlns="http://www.w3.org/2000/svg" width="192" height="144" viewBox="0 0 192 144" version="1.1">
	<path d="M 112.828 4.923 C 111.359 5.397, 109.577 6.143, 108.869 6.581 C 106.999 7.737, 96.616 7.400, 94.197 6.105 C 91.690 4.764, 81.060 4.647, 77.701 5.923 C 74.358 7.195, 73.989 8.760, 75.418 15.594 C 77.215 24.182, 78.490 26.166, 81.694 25.362 C 84.554 24.644, 84.505 23.937, 82.278 33.750 C 81.913 35.355, 82.223 36, 83.358 36 C 84.263 36, 85.793 37.851, 86.902 40.285 C 89.615 46.239, 90.469 50, 89.108 50 C 88.499 50, 88 50.910, 88 52.021 C 88 53.202, 86.970 54.512, 85.526 55.170 C 83.068 56.290, 80.376 61.833, 79.785 66.990 C 79.605 68.563, 78.764 69.611, 77.500 69.837 C 74.245 70.418, 73.617 71.662, 74.953 74.886 C 76.486 78.587, 75.657 81.465, 69.018 95.500 C 64.539 104.966, 64.295 105.919, 64.440 113.347 C 64.560 119.461, 64.955 121.395, 66.229 122.108 C 67.129 122.612, 68.605 125.569, 69.509 128.679 C 70.824 133.202, 70.938 135.191, 70.077 138.610 C 69.484 140.962, 69 143.136, 69 143.443 C 69 143.749, 82.050 144, 98 144 C 113.950 144, 127 143.786, 127 143.523 C 127 143.261, 125.455 138.874, 123.567 133.773 C 121.679 128.673, 119.627 122.475, 119.008 120 C 118.388 117.525, 117.618 114.604, 117.296 113.508 C 116.797 111.807, 116.937 111.703, 118.251 112.793 C 119.098 113.496, 120.094 115.688, 120.465 117.664 C 121.387 122.582, 125.365 131.347, 129.804 138.241 C 133.460 143.920, 133.552 143.983, 138.317 143.991 C 142.434 143.999, 143.061 143.746, 142.627 142.250 C 140.624 135.349, 140.021 131.764, 140.525 129.757 C 140.845 128.482, 140.612 125.232, 140.008 122.536 C 139.220 119.020, 139.214 116.897, 139.987 115.032 C 140.919 112.781, 140.400 111.022, 136.130 101.965 C 130.433 89.883, 128.124 80.505, 129.988 77.022 C 131.295 74.580, 130.587 73.388, 127.500 72.837 C 125.865 72.545, 125.407 71.477, 124.989 66.990 C 124.709 63.971, 124.038 60.825, 123.499 60 C 122.960 59.175, 122.457 53.775, 122.382 48 C 122.306 42.225, 122.074 34.704, 121.865 31.288 C 121.523 25.681, 121.682 25.047, 123.493 24.788 C 124.987 24.574, 126.057 22.838, 127.677 18 C 130.408 9.846, 130.498 7.337, 128.105 6.056 C 125.396 4.606, 115.977 3.908, 112.828 4.923 M 113.818 81.690 C 111.902 86.259, 112.498 104.341, 114.686 108.046 L 116.497 111.112 117.213 107.806 C 118.116 103.635, 116.982 80.107, 115.844 79.403 C 115.378 79.115, 114.466 80.144, 113.818 81.690" stroke="none" fill="black" fill-rule="evenodd"/>
</svg>