<svg xmlns="http://www.w3.org/2000/svg" width="192" height="144" viewBox="0 0 192 144" version="1.1">
	<path d="M 0 57 L 0 114 3.939 114 C 7.827 114, 7.886 113.944, 8.537 109.599 C 8.900 107.178, 8.926 104.342, 8.594 103.296 C 7.869 101.011, 9.634 98.368, 13.017 96.673 C 14.755 95.803, 15.512 94.587, 15.541 92.621 C 15.565 91.046, 16.333 89.393, 17.291 88.857 C 18.231 88.331, 19 87.023, 19 85.950 C 19 84.878, 19.450 84, 20 84 C 20.550 84, 21 85.077, 21 86.393 C 21 87.709, 21.603 89.017, 22.340 89.300 C 23.212 89.635, 23.521 90.900, 23.225 92.919 C 22.823 95.659, 23.132 96.150, 25.856 97.100 C 29.368 98.324, 30.633 102.244, 29.718 109.063 C 29.428 111.228, 29.598 113.251, 30.095 113.559 C 30.593 113.866, 31 112.473, 31 110.463 C 31 106.939, 33.630 101, 35.190 101 C 36.403 101, 39 106.674, 39 109.325 C 39 112.390, 41.666 113, 55.048 113 C 64.131 113, 65.071 113.189, 67.923 115.589 L 71 118.178 71 111.493 C 71 106.973, 71.556 103.868, 72.716 101.904 C 74.805 98.367, 75.323 98.318, 77.385 101.465 C 78.736 103.527, 79 107.206, 79 123.965 L 79 144 135.340 144 L 191.681 144 192.338 120.750 C 192.700 107.963, 192.996 75.563, 192.998 48.750 L 193 0 96.500 0 L 0 0 0 57 M 0.468 57.500 C 0.468 88.850, 0.595 101.530, 0.750 85.679 C 0.904 69.827, 0.904 44.177, 0.749 28.679 C 0.594 13.180, 0.468 26.150, 0.468 57.500 M 121.031 34.184 C 119.942 36.008, 117.465 38.571, 115.526 39.879 C 111.652 42.493, 110.827 44.507, 114.048 43.485 C 117.644 42.344, 118.962 44.597, 118.756 51.532 C 118.613 56.370, 118.986 58.327, 120.333 59.815 C 122.751 62.487, 121.586 66.646, 117.883 68.561 C 116.297 69.381, 115 70.490, 115 71.026 C 115 71.562, 114.048 72, 112.883 72 C 111.176 72, 110.883 72.435, 111.370 74.250 C 111.701 75.487, 111.979 76.886, 111.986 77.357 C 111.994 77.828, 112.638 77.969, 113.417 77.670 C 114.197 77.371, 115.095 77.804, 115.412 78.632 C 115.754 79.523, 116.707 79.915, 117.745 79.592 C 119.986 78.894, 121.669 79.978, 122.134 82.417 C 122.803 85.925, 124.852 85.225, 126.099 81.064 C 126.769 78.829, 127.583 77.007, 127.908 77.015 C 129.666 77.061, 131.279 79.129, 131.891 82.121 C 132.719 86.171, 136.289 86.989, 136.820 83.250 C 136.995 82.013, 137.312 81, 137.522 81 C 138.744 81, 143 83.456, 143 84.161 C 143 84.622, 143.450 85, 144 85 C 144.550 85, 145 84.277, 145 83.393 C 145 82.314, 145.539 81.993, 146.641 82.416 C 148.661 83.191, 153.312 80.314, 152.407 78.849 C 151.978 78.156, 152.490 78.021, 153.875 78.460 C 155.136 78.860, 156 78.701, 156 78.067 C 156 77.480, 155.498 77, 154.883 77 C 154.269 77, 153.985 76.164, 154.253 75.142 C 154.520 74.120, 154.325 72.545, 153.820 71.642 C 153.118 70.388, 153.326 69.996, 154.700 69.985 C 156.113 69.973, 156.204 69.782, 155.122 69.096 C 154.364 68.616, 154.053 67.723, 154.431 67.112 C 154.809 66.500, 154.620 66, 154.011 66 C 153.403 66, 151.801 64.809, 150.451 63.353 C 148.608 61.364, 146.741 60.585, 142.943 60.221 C 139.183 59.859, 138.030 59.384, 138.444 58.367 C 138.750 57.615, 139.273 56.325, 139.607 55.500 C 140.406 53.526, 137.794 53.538, 133.950 55.526 C 131.086 57.007, 131 56.982, 131 54.695 C 131 53.201, 131.920 51.845, 133.512 50.994 C 135.323 50.024, 135.854 49.116, 135.416 47.736 C 135.004 46.436, 135.514 45.329, 137.006 44.283 C 138.738 43.070, 138.917 42.562, 137.852 41.887 C 137.108 41.416, 135.600 41.017, 134.500 41 C 131.213 40.950, 129.754 39.424, 129.098 35.354 C 128.571 32.086, 128.061 31.452, 125.743 31.184 C 123.550 30.931, 122.620 31.523, 121.031 34.184" stroke="none" fill="black" fill-rule="evenodd"/>
</svg>