<svg xmlns="http://www.w3.org/2000/svg" width="192" height="144" viewBox="0 0 192 144" version="1.1">
	<path d="M 63.728 9.250 C 63.163 18.861, 59.961 30.958, 57.426 33.061 C 56.642 33.712, 56 34.887, 56 35.671 C 56 37.529, 41.529 52, 39.671 52 C 38.887 52, 37.733 52.616, 37.108 53.370 C 34.741 56.222, 22.824 59.321, 13.500 59.508 C 8.550 59.608, 3.488 59.320, 2.250 58.869 L 0 58.050 0 101.025 L 0 144 53.371 144 L 106.742 144 107.441 137.816 C 107.826 134.415, 109.259 128.228, 110.626 124.066 C 114.519 112.212, 118.757 88.489, 117.942 83.116 C 117.564 80.624, 116.739 78.413, 116.109 78.203 C 113.473 77.324, 111.867 74.666, 112.485 72.204 C 113.102 69.743, 113.067 69.726, 110.656 71.306 C 108.765 72.545, 107.444 72.701, 104.933 71.981 C 103.138 71.466, 100.718 71.284, 99.555 71.576 C 98.392 71.868, 93.854 70.996, 89.470 69.639 C 77.033 65.790, 75 65.508, 75 67.635 C 75 69.280, 74.868 69.296, 73.397 67.826 C 71.455 65.883, 72.307 62.355, 74.919 61.526 C 75.918 61.209, 77.888 61.387, 79.296 61.922 C 80.703 62.458, 85.542 63.595, 90.047 64.449 L 98.239 66.003 101.309 63.002 C 103.315 61.041, 105.401 60, 107.324 60 C 111.915 60, 118.018 57.835, 119.094 55.824 C 119.810 54.487, 119.718 54, 118.751 54 C 117.094 54, 113.669 48.345, 114.506 46.991 C 114.847 46.438, 114.464 45.731, 113.654 45.421 C 111.335 44.531, 110.693 40.118, 112.484 37.384 C 113.655 35.597, 113.795 34.486, 113.030 33.056 C 111.772 30.706, 111.677 27, 112.874 27 C 113.355 27, 115.718 27.686, 118.124 28.525 C 130.894 32.976, 134.485 36.061, 136.022 43.901 C 136.625 46.980, 137.770 51.525, 138.565 54 C 139.359 56.475, 140.008 59.727, 140.005 61.227 C 140.002 63.036, 140.842 64.505, 142.500 65.592 C 144.363 66.813, 145 68.105, 145 70.665 C 145 72.554, 145.599 75.314, 146.332 76.800 C 147.196 78.553, 147.709 83.827, 147.793 91.840 C 147.864 98.626, 148.213 105.095, 148.568 106.215 C 149.043 107.710, 148.875 108.041, 147.937 107.461 C 147.029 106.900, 146.845 107.153, 147.299 108.336 C 147.723 109.440, 147.424 110, 146.410 110 C 145.569 110, 145.136 110.412, 145.447 110.915 C 145.758 111.418, 145.529 111.990, 144.937 112.188 C 144.316 112.395, 146.210 117.543, 149.424 124.382 C 152.482 130.892, 155.513 137.979, 156.158 140.132 L 157.330 144.045 174.915 143.772 L 192.500 143.500 192.825 129 C 193.003 121.025, 192.837 88.737, 192.455 57.250 L 191.761 0 128.017 0 L 64.273 0 63.728 9.250 M 0.459 101 C 0.459 124.925, 0.589 134.713, 0.749 122.750 C 0.908 110.788, 0.908 91.213, 0.749 79.250 C 0.589 67.288, 0.459 77.075, 0.459 101 M 133 86.941 C 133 87.459, 133.445 88.157, 133.989 88.493 C 134.555 88.843, 134.723 88.442, 134.382 87.552 C 133.717 85.820, 133 85.503, 133 86.941" stroke="none" fill="black" fill-rule="evenodd"/>
</svg>