<svg xmlns="http://www.w3.org/2000/svg" width="192" height="144" viewBox="0 0 192 144" version="1.1">
	<path d="M 0 26.305 L 0 52.609 13.750 52.621 C 22.340 52.629, 30.877 53.264, 36.500 54.313 C 47.483 56.364, 47.493 56.364, 49.386 54.471 C 51.889 51.969, 50.365 50.149, 46.183 50.645 C 40.849 51.278, 39.416 50.023, 41.316 46.383 C 42.144 44.797, 44.227 42.164, 45.945 40.530 L 49.069 37.560 48.406 29.397 L 47.744 21.233 52.103 16.504 C 54.501 13.903, 57.371 11.359, 58.481 10.850 C 59.592 10.341, 62.300 8.830, 64.500 7.493 C 66.700 6.155, 70.415 4.770, 72.754 4.416 C 76.479 3.852, 77.774 4.228, 83.149 7.429 L 89.288 11.086 95.338 9.043 C 102.398 6.659, 104.358 6.521, 105.836 8.303 C 107.210 9.958, 105.139 14.189, 100.689 18.817 L 97.500 22.134 101.439 25.754 C 103.658 27.793, 104.860 29.547, 104.191 29.770 C 103.471 30.010, 103.242 31.118, 103.610 32.583 C 103.944 33.912, 103.789 35, 103.266 35 C 102.743 35, 101.457 36.607, 100.407 38.571 C 98.529 42.087, 98.529 42.163, 100.425 43.559 C 102.016 44.731, 102.159 45.369, 101.247 47.238 C 100.640 48.482, 99.401 51.857, 98.495 54.738 C 97.589 57.619, 96.431 60.233, 95.924 60.547 C 95.416 60.861, 95 62.156, 95 63.424 C 95 64.693, 94.049 66.940, 92.886 68.418 C 91.723 69.896, 90.936 71.237, 91.136 71.398 C 93.206 73.064, 111.673 80.956, 112.636 80.586 C 114.471 79.882, 130.198 89.041, 130.745 91.133 C 130.998 92.101, 134.517 95.181, 138.564 97.979 C 142.612 100.777, 146.192 103.502, 146.521 104.033 C 146.849 104.565, 148.235 105, 149.601 105 C 150.967 105, 152.780 105.563, 153.631 106.250 C 158.264 109.994, 162 114.120, 162 115.493 C 162 116.352, 165.318 121.040, 169.374 125.913 C 173.429 130.785, 178.192 136.871, 179.957 139.437 C 183.085 143.984, 183.286 144.095, 187.833 143.801 L 192.500 143.500 192.696 71.750 L 192.893 -0 96.446 -0 L 0 0 0 26.305 M 0.437 27 C 0.437 41.575, 0.577 47.537, 0.747 40.250 C 0.918 32.962, 0.918 21.037, 0.747 13.750 C 0.577 6.462, 0.437 12.425, 0.437 27 M 1 103.500 L 1 144 37 144 L 73 144 72.963 135.750 C 72.913 124.573, 70.870 114.459, 68.150 111.925 C 66.295 110.197, 66 108.821, 66 101.902 C 66 96.800, 65.635 94.107, 64.998 94.501 C 63.570 95.384, 62 90.637, 62 85.435 C 62 81.471, 61.755 81, 59.696 81 C 55.720 81, 48.447 75.605, 46.383 71.125 C 45.347 68.876, 43.825 66.816, 43 66.547 C 38.109 64.952, 20.958 63.007, 11.750 63.004 L 1 63 1 103.500 M 104.804 91.634 C 105.870 93.627, 106 94.154, 106 96.500 C 106 97.325, 106.379 98, 106.843 98 C 108.207 98, 106.620 90.707, 105.149 90.216 C 104.125 89.875, 104.043 90.211, 104.804 91.634 M 125.964 105.066 C 125.018 106.834, 125.207 107.591, 127.095 109.601 L 129.361 112.013 126.504 114.996 C 124.932 116.637, 123.930 118.263, 124.278 118.611 C 125.412 119.746, 137.979 117.879, 139.509 116.348 C 141.994 113.864, 141.252 112.464, 135.250 108.309 C 127.083 102.656, 127.228 102.706, 125.964 105.066 M 152.353 127.822 C 150.319 129.552, 148.983 131.792, 148.576 134.150 C 147.538 140.172, 146.200 140.564, 137.063 137.521 C 132.554 136.019, 124.783 134.442, 119.278 133.911 C 109.505 132.967, 109.499 132.968, 107.250 135.539 C 106.009 136.958, 105 139.431, 105 141.056 L 105 144 138.529 144 L 172.058 144 165.641 136.250 C 155.893 124.478, 156.116 124.619, 152.353 127.822" stroke="none" fill="black" fill-rule="evenodd"/>
</svg>