<svg xmlns="http://www.w3.org/2000/svg" width="192" height="144" viewBox="0 0 192 144" version="1.1">
	<path d="M 0 38.500 C 0 59.675, 0.296 77, 0.658 77 C 1.689 77, 11.184 69.468, 14.437 66.069 C 16.052 64.381, 18.065 63, 18.908 63 C 19.752 63, 26.919 66.209, 34.835 70.132 C 50.189 77.741, 49.198 77.524, 65.343 76.806 L 73.187 76.457 76.727 71.678 C 78.904 68.738, 82.140 65.949, 85.133 64.432 C 90.391 61.768, 90.917 60.671, 88.314 57.795 C 86.684 55.993, 86.588 56.023, 85.395 58.716 C 84.473 60.798, 84.142 61.028, 84.081 59.628 C 84.014 58.079, 83.741 57.970, 82.500 59 C 81.225 60.058, 81 59.809, 81 57.345 C 81 54.083, 78.356 49.662, 76.932 50.542 C 76.419 50.859, 76 50.431, 76 49.590 C 76 48.547, 75.446 48.275, 74.253 48.733 C 72.592 49.371, 72.591 49.273, 74.242 46.754 C 75.196 45.297, 75.564 43.848, 75.058 43.536 C 74.552 43.223, 73.880 43.385, 73.565 43.895 C 72.949 44.891, 67 43.066, 67 41.881 C 67 41.506, 68.625 39.575, 70.612 37.588 C 73.977 34.223, 74.179 33.678, 73.568 29.605 C 72.670 23.615, 74.576 16.780, 78.081 13.422 C 80.804 10.813, 81.716 10.601, 93.611 9.802 C 108.290 8.816, 111.769 9.814, 115.880 16.192 C 117.952 19.407, 118.446 19.697, 119.701 18.442 C 121.665 16.478, 122.108 16.571, 126.751 19.934 C 130.699 22.795, 132.013 25.287, 133.508 32.750 C 133.899 34.705, 133.756 36, 133.147 36 C 132.033 36, 130.432 39.914, 130.897 41.500 C 131.058 42.050, 131.816 45.478, 132.581 49.117 C 133.790 54.870, 133.776 56.391, 132.476 60.768 C 131.654 63.536, 130.191 66.778, 129.225 67.971 C 127.519 70.078, 127.408 70.088, 125.411 68.320 C 122.102 65.392, 120.007 57.162, 119.936 46.812 L 119.872 37.500 118.229 40.804 C 116.901 43.475, 116.819 44.480, 117.802 46.054 C 118.533 47.225, 118.616 48, 118.008 48 C 117.454 48, 117 48.955, 117 50.122 C 117 51.852, 116.734 52.025, 115.567 51.056 C 114.066 49.810, 113.937 49.952, 109.877 57.345 C 107.925 60.899, 106.598 61.194, 106.170 58.168 C 105.853 55.934, 105.758 55.909, 103.920 57.573 C 101.049 60.171, 101.565 61.737, 106.044 64.022 C 108.268 65.157, 111.080 67.265, 112.294 68.708 C 120.299 78.225, 119.869 77.898, 123.138 76.960 C 125.201 76.369, 127.974 76.540, 131.585 77.480 C 138.454 79.269, 142.807 78.555, 151.500 74.213 C 155.350 72.290, 162.009 69.213, 166.298 67.376 L 174.096 64.035 179.298 69.118 C 182.159 71.914, 186.132 75.500, 188.128 77.088 L 191.755 79.974 192.378 76.862 C 192.720 75.150, 193 57.156, 193 36.875 L 193 0 96.500 0 L 0 0 0 38.500 M 0.454 39 C 0.454 60.175, 0.587 68.838, 0.749 58.250 C 0.911 47.663, 0.911 30.338, 0.749 19.750 C 0.587 9.163, 0.454 17.825, 0.454 39 M 16.172 70.097 C 15.028 71.928, 15.187 72.662, 17.431 75.901 C 20.181 79.869, 20.504 82.886, 19.354 93.888 C 18.999 97.288, 18.284 99.928, 17.766 99.755 C 17.248 99.583, 15.245 95.635, 13.317 90.984 C 10.312 83.739, 9.953 82.060, 10.810 79.267 C 11.561 76.822, 11.518 76.193, 10.642 76.753 C 5.032 80.336, 2.023 82.634, 2.012 83.342 C 2.006 83.806, 2.900 85.329, 4 86.727 C 5.186 88.234, 6 90.784, 6 92.988 C 6 99.484, 4.746 109, 3.889 109 C 3.435 109, 2.393 107.763, 1.572 106.250 C 0.207 103.734, 0.077 105.224, 0.040 123.750 L 0 144 35.389 144 L 70.777 144 71.461 140.250 C 71.837 138.188, 73.687 132.619, 75.572 127.876 C 78.389 120.789, 78.999 117.938, 78.996 111.876 L 78.993 104.500 77.107 107.593 C 71.658 116.528, 42.950 133.041, 32.975 132.978 C 29.154 132.954, 21 129.659, 21 128.139 C 21 127.612, 22.920 127.210, 25.266 127.245 C 30.250 127.321, 36.328 125.515, 38.042 123.449 C 39.031 122.258, 38.852 122, 37.039 122 C 35.712 122, 35.004 121.502, 35.263 120.750 C 35.548 119.920, 37.903 119.500, 42.265 119.500 C 48.673 119.500, 49.017 119.364, 55.954 114.098 C 59.868 111.126, 63.296 108.329, 63.573 107.882 C 63.849 107.435, 62.429 103.116, 60.418 98.284 C 57.110 90.341, 56.861 89.117, 57.815 85.500 C 58.396 83.300, 58.537 81.159, 58.128 80.743 C 57.720 80.326, 55.263 80.276, 52.669 80.632 L 47.952 81.278 49.590 83.777 C 50.877 85.742, 51.084 87.583, 50.560 92.388 C 49.456 102.513, 48.787 105.987, 48.033 105.520 C 47.639 105.277, 45.827 101.225, 44.006 96.516 C 41.016 88.783, 40.808 87.584, 41.848 84.112 C 42.482 81.998, 43 80.006, 43 79.685 C 43 78.686, 36.625 74.270, 34.049 73.485 L 31.598 72.738 33.407 75.498 C 34.960 77.869, 35.115 79.465, 34.501 86.830 C 34.108 91.544, 33.431 96.324, 32.996 97.451 C 32.236 99.422, 32.168 99.405, 31.211 97 C 30.664 95.625, 28.967 91.394, 27.441 87.599 C 24.899 81.275, 24.767 80.322, 25.865 76.214 C 26.525 73.748, 26.937 71.624, 26.782 71.493 C 25.647 70.534, 19.848 68, 18.790 68 C 18.070 68, 16.892 68.944, 16.172 70.097 M 169 70.782 C 167.075 71.691, 165.325 72.549, 165.112 72.689 C 164.899 72.828, 165.296 74.987, 165.996 77.485 C 167.163 81.652, 167.032 82.812, 164.418 91.514 C 162.850 96.731, 161.274 101, 160.914 101 C 160.256 101, 158.667 93.573, 157.435 84.748 C 156.930 81.128, 157.176 79.381, 158.466 77.411 C 160.766 73.901, 159.922 73.489, 155.280 75.857 C 149.373 78.871, 148.743 79.998, 150.096 85.135 C 151.144 89.112, 150.958 90.321, 147.998 98.750 C 144.742 108.021, 143.109 110.173, 142.875 105.500 C 142.806 104.125, 142.670 102.662, 142.572 102.250 C 142.474 101.838, 142.049 98.501, 141.627 94.836 C 141.028 89.639, 141.198 87.517, 142.399 85.195 C 143.872 82.347, 143.843 82.191, 141.719 81.622 C 138.958 80.882, 134.508 80.826, 133.811 81.522 C 133.524 81.809, 133.736 83.721, 134.281 85.772 C 135.161 89.079, 134.845 90.484, 131.484 98.214 C 127.170 108.138, 127.067 107.736, 135.398 113.474 C 139.739 116.464, 141.694 117.161, 146.222 117.334 C 151.450 117.534, 155 119.093, 155 121.190 C 155 121.710, 154.047 121.832, 152.882 121.462 C 151.351 120.977, 150.887 121.166, 151.209 122.145 C 151.892 124.217, 158.993 127.863, 163.750 128.584 C 168.649 129.325, 169.185 130.589, 165.250 132.118 C 161.124 133.722, 152.358 132.499, 148.141 129.732 C 146.139 128.418, 141.876 126.148, 138.669 124.689 C 129.245 120.402, 116.165 112.094, 115.490 109.967 C 115.146 108.885, 114.188 108, 113.361 108 C 111.011 108, 112.581 117.913, 116.529 128 C 118.359 132.675, 120.163 138.188, 120.539 140.250 L 121.223 144 156.611 144 L 192 144 192 127.941 C 192 117.470, 191.651 112.097, 190.998 112.501 C 189.612 113.358, 188.502 109.928, 187.008 100.176 C 185.786 92.202, 185.822 91.732, 187.866 88.967 C 189.040 87.380, 189.994 85.725, 189.988 85.290 C 189.977 84.615, 183.998 80.168, 181.759 79.170 C 181.351 78.988, 181.280 80.148, 181.599 81.747 C 182.176 84.628, 177.212 102.996, 175.857 102.999 C 174.764 103.001, 174.067 100.234, 172.838 91.001 L 171.654 82.107 174.405 78.137 C 177.063 74.301, 177.099 74.081, 175.463 71.584 C 173.506 68.597, 173.599 68.608, 169 70.782 M 64.990 84.258 C 66.683 87.129, 66.824 88.615, 66.174 96.758 C 65.186 109.113, 66.982 109.330, 70.055 97.226 C 71.380 92.009, 71.423 90.766, 70.312 89.844 C 69.464 89.140, 69.313 88.326, 69.899 87.617 C 70.407 87.003, 70.585 85.263, 70.295 83.750 C 69.844 81.402, 69.277 81, 66.417 81 L 63.067 81 64.990 84.258 M 121.934 83.672 C 121.376 85.142, 121.170 86.999, 121.476 87.799 C 121.783 88.599, 121.589 89.790, 121.044 90.446 C 119.852 91.883, 121.838 104.116, 123.445 105.235 C 125.555 106.704, 125.740 105.844, 125.232 96.938 C 124.767 88.780, 124.929 87.587, 126.858 84.979 C 129.628 81.231, 129.577 81, 125.975 81 C 123.617 81, 122.727 81.589, 121.934 83.672" stroke="none" fill="black" fill-rule="evenodd"/>
</svg>