<svg xmlns="http://www.w3.org/2000/svg" width="192" height="144" viewBox="0 0 192 144" version="1.1">
	<path d="M 0 35.846 L 0 71.692 7.528 73.346 C 17.119 75.453, 18.494 75.427, 28.177 72.955 C 33.904 71.493, 36.549 71.211, 37.461 71.967 C 38.380 72.731, 39.084 72.604, 39.990 71.512 C 40.680 70.681, 41.654 70, 42.155 70 C 42.655 70, 44.737 69.256, 46.782 68.346 C 48.827 67.436, 50.885 66.776, 51.355 66.881 C 51.826 66.985, 52.881 66.514, 53.700 65.834 C 55.474 64.362, 82.760 64.492, 109.899 66.102 C 124.067 66.943, 127.454 66.890, 128.134 65.817 C 129.547 63.589, 129.114 62.499, 126.113 60.726 C 124.152 59.567, 122.810 57.609, 121.926 54.614 C 121.118 51.877, 120.157 50.386, 119.390 50.680 C 117.176 51.530, 114.185 49.090, 112.985 45.455 C 111.971 42.382, 112.110 41.156, 114.004 36.491 C 116.567 30.174, 120.757 26.558, 128.006 24.406 C 134.446 22.493, 139.647 23.783, 145.001 28.620 C 149.246 32.455, 150.122 34.525, 152.565 46.500 C 155.203 59.427, 155.138 58.783, 153.602 56.750 C 151.329 53.742, 150 54.727, 150 59.417 C 150 61.846, 149.519 63.994, 148.932 64.189 C 148.344 64.385, 150.119 66.898, 152.875 69.773 C 155.632 72.648, 157.692 75, 157.453 75 C 157.214 75, 158.298 76.237, 159.861 77.750 C 163.787 81.547, 165 84.189, 165 88.945 C 165 96.593, 168.094 100.998, 179.044 108.933 C 184.520 112.902, 189 116.735, 189 117.452 C 189 118.169, 189.675 119.315, 190.500 120 C 191.582 120.898, 192 123.272, 192 128.511 C 192 134.817, 191.769 135.759, 190.250 135.639 C 189.123 135.549, 188.330 136.389, 188.022 138 C 187.757 139.378, 187.308 137.392, 187.021 133.578 C 186.521 126.942, 186.376 126.618, 183.500 125.711 C 181.850 125.190, 178.250 122.646, 175.500 120.057 C 168.991 113.929, 164.078 110, 162.923 110 C 161.741 110, 161.711 114.703, 162.889 115.432 C 163.378 115.734, 164.071 117.148, 164.429 118.574 C 164.787 120, 166.191 122.926, 167.549 125.078 C 168.907 127.229, 171.314 132.254, 172.898 136.245 L 175.777 143.500 184.138 143.500 L 192.500 143.500 192.718 71.750 L 192.936 0 96.468 0 L 0 0 0 35.846 M 0.451 36.500 C 0.451 56.300, 0.585 64.542, 0.748 54.815 C 0.912 45.088, 0.912 28.888, 0.749 18.815 C 0.586 8.742, 0.452 16.700, 0.451 36.500 M 189 5.500 C 188.282 6.365, 188.185 7, 188.771 7 C 189.329 7, 190.045 6.325, 190.362 5.500 C 190.678 4.675, 190.781 4, 190.591 4 C 190.401 4, 189.685 4.675, 189 5.500 M 168.250 62.718 C 166.532 63.334, 166.672 65, 168.441 65 C 170.097 65, 171.408 63.351, 170.266 62.704 C 169.845 62.465, 168.938 62.472, 168.250 62.718 M 70.500 76.520 C 69.400 76.724, 65.800 77.193, 62.500 77.564 C 57.810 78.090, 56.977 78.417, 58.685 79.062 C 63.403 80.844, 64.864 87.844, 61.694 93.484 C 59.118 98.066, 55.357 99.866, 51.332 98.443 C 47.038 96.925, 47.241 95, 51.694 95 C 53.818 95, 56.504 94.335, 57.663 93.523 C 60.265 91.701, 61.396 87.608, 60.012 85.023 C 58.677 82.528, 52.602 81.340, 49.545 82.976 C 47.988 83.809, 46.647 83.894, 45.375 83.240 C 42.371 81.696, 37.757 80.798, 38.431 81.888 C 38.760 82.420, 38.063 83.163, 36.882 83.537 C 35.615 83.939, 35.178 84.492, 35.815 84.886 C 36.422 85.261, 36.543 86.122, 36.091 86.853 C 35.451 87.888, 33.573 87.629, 26.893 85.581 C 18.856 83.117, 18.140 83.061, 10 84.254 L 1.500 85.500 1.235 114.750 L 0.970 144 61.752 144 L 122.535 144 124.950 137.919 C 126.278 134.575, 128.872 129.737, 130.714 127.169 C 132.776 124.293, 133.874 121.752, 133.573 120.552 C 133.304 119.481, 133.554 118.038, 134.128 117.346 C 135.587 115.588, 134.555 114.361, 131.021 113.654 C 127.705 112.991, 127.107 110.986, 129.606 108.912 C 131.909 107.001, 131.022 98.854, 127.762 91.961 C 126.324 88.922, 124.839 85.208, 124.463 83.708 C 124.086 82.208, 123.442 80.773, 123.030 80.519 C 120.335 78.853, 76.097 75.486, 70.500 76.520 M 43.500 114 C 43.160 114.550, 43.359 115, 43.941 115 C 44.523 115, 45 114.550, 45 114 C 45 113.450, 44.802 113, 44.559 113 C 44.316 113, 43.840 113.450, 43.500 114 M 57.500 126 C 58.495 127.100, 59.706 128, 60.190 128 C 60.674 128, 60.589 127.100, 60 126 C 59.411 124.900, 58.201 124, 57.310 124 C 55.880 124, 55.902 124.235, 57.500 126" stroke="none" fill="black" fill-rule="evenodd"/>
</svg>