<svg xmlns="http://www.w3.org/2000/svg" width="192" height="144" viewBox="0 0 192 144" version="1.1">
	<path d="M 26 1.582 C 26 2.453, 27.350 6.242, 29.001 10.003 C 31.731 16.222, 31.982 17.703, 31.783 26.389 L 31.563 35.938 28.531 37.165 C 26.864 37.839, 23.138 40.157, 20.252 42.314 C 14.526 46.595, 14.400 47.159, 17.545 54.500 C 18.487 56.700, 19.771 60.525, 20.399 63 C 21.228 66.269, 22.013 67.462, 23.270 67.361 C 24.221 67.285, 25 67.874, 25 68.670 C 25 69.478, 25.492 69.814, 26.112 69.431 C 26.723 69.053, 27.593 69.341, 28.044 70.071 C 28.949 71.535, 34.098 71.706, 40.825 70.495 C 44.384 69.854, 45.852 70.111, 49.110 71.942 C 54.174 74.788, 61.283 74.921, 64.900 72.238 C 66.666 70.927, 67.927 68.575, 68.832 64.904 C 69.564 61.932, 71.105 58.488, 72.256 57.250 C 74.996 54.304, 73.695 54.403, 68.324 57.550 C 64.067 60.045, 62 60.088, 62 57.682 C 62 57.021, 62.895 55.922, 63.988 55.239 C 66.290 53.802, 71 46.692, 71 44.655 C 71 41.981, 67.033 38.229, 63.508 37.567 C 60.265 36.959, 60.073 36.732, 61.132 34.754 C 64.202 29.017, 62.618 10.960, 58.802 8.193 C 57.811 7.475, 57 6.049, 57 5.025 C 57 0.089, 56.714 -0, 40.893 -0 C 27.977 -0, 26 0.210, 26 1.582 M 142 72 L 142 144 159.250 143.993 L 176.500 143.986 178.732 140.707 C 181.796 136.206, 182.495 131.777, 181.103 125.671 C 179.418 118.281, 178.247 105.219, 179.139 103.775 C 179.708 102.854, 180.596 103.044, 182.699 104.538 C 184.997 106.171, 186.084 106.354, 188.750 105.557 L 192 104.586 192 52.293 L 192 0 167 0 L 142 0 142 72 M 32.583 45.909 C 31.633 46.958, 29.538 48.363, 27.928 49.030 C 24.689 50.372, 24.363 51.575, 26.482 54.372 C 27.819 56.139, 28.251 55.899, 34.118 50.122 C 40.312 44.023, 40.324 44, 37.323 44 C 35.628 44, 33.554 44.835, 32.583 45.909" stroke="none" fill="black" fill-rule="evenodd"/>
</svg>