<svg xmlns="http://www.w3.org/2000/svg" width="192" height="144" viewBox="0 0 192 144" version="1.1">
	<path d="M 0.015 34.250 C 0.024 53.087, 0.361 68.028, 0.765 67.452 C 1.756 66.039, 5.798 65.864, 6.623 67.199 C 7.019 67.840, 7.795 67.318, 8.554 65.899 L 9.823 63.529 11.661 66.811 C 15.293 73.294, 19.830 79.084, 20.469 78.050 C 20.826 77.472, 20.866 76.592, 20.558 76.093 C 20.249 75.595, 20.844 75.408, 21.878 75.678 C 22.913 75.949, 24.218 77.595, 24.778 79.335 C 25.366 81.164, 25.839 81.732, 25.898 80.680 C 25.971 79.386, 26.649 78.954, 28.250 79.184 C 32.272 79.761, 30.660 83.922, 24.057 90.006 C 20.615 93.178, 18.382 95.977, 18.790 96.607 C 19.181 97.209, 21.413 98.899, 23.750 100.363 C 26.921 102.349, 28 103.665, 28 105.545 C 28 107.864, 29.649 112.325, 31.864 116 C 35.343 121.771, 35.442 122.835, 33.342 131.793 C 32.219 136.582, 30.959 141.287, 30.543 142.250 C 29.885 143.772, 30.383 144, 34.370 144 C 38.156 144, 39.239 143.565, 40.592 141.500 C 41.969 139.398, 43.008 139, 47.115 139 C 51.659 139, 52 139.175, 52 141.500 C 52 143.136, 52.559 144, 53.617 144 C 54.828 144, 55.063 143.437, 54.552 141.750 C 54.177 140.512, 53.616 135.387, 53.304 130.359 C 52.843 122.900, 53.114 119.956, 54.778 114.359 C 55.899 110.587, 57.131 105.925, 57.516 104 C 58.424 99.460, 61.082 95.153, 66.033 90.202 C 68.226 88.009, 69.811 85.604, 69.556 84.858 C 69.300 84.111, 67.916 77.200, 66.479 69.500 C 63.122 51.512, 60.170 41.762, 53.008 25.019 C 49.820 17.565, 46.611 8.886, 45.878 5.733 L 44.545 0 22.273 0 L 0 0 0.015 34.250 M 70.723 4.750 C 77.091 24.553, 81.261 43.699, 82.975 61 C 83.547 66.775, 84.236 72.850, 84.506 74.500 L 84.998 77.500 96.499 77.500 L 108 77.500 108.077 74 C 108.119 72.075, 108.280 69.825, 108.435 69 C 108.590 68.175, 109.027 63.589, 109.406 58.809 C 110.992 38.800, 119.669 19.304, 134.801 1.750 C 136.234 0.088, 134.620 0, 102.753 0 L 69.196 0 70.723 4.750 M 154.945 4.696 C 152.797 12.367, 149.219 18.946, 141.803 28.857 C 128.820 46.209, 126.143 53.058, 122.869 77.309 L 121.680 86.119 127.234 91.809 C 132.772 97.484, 136.024 104.233, 139.130 116.500 C 140.075 120.231, 139.034 135.031, 137.357 141.714 L 136.783 144 164.392 144 L 192 144 192 84.450 C 192 16.288, 193.086 23.969, 181.265 8.499 C 180.844 7.949, 179.240 5.811, 177.699 3.749 L 174.898 0 165.579 0 L 156.260 0 154.945 4.696" stroke="none" fill="black" fill-rule="evenodd"/>
</svg>