<svg xmlns="http://www.w3.org/2000/svg" width="192" height="144" viewBox="0 0 192 144" version="1.1">
	<path d="M 0 72 L 0 144 29.250 144 L 58.500 144 61.235 140.573 C 62.739 138.687, 65.703 136.171, 67.821 134.980 C 73.491 131.794, 77.065 125.793, 76.381 120.609 C 75.695 115.410, 79.756 105.558, 82.927 104.729 C 86.446 103.809, 85.202 95.993, 80.788 91.281 C 78.968 89.338, 78.790 88.286, 79.357 82.856 C 79.714 79.443, 80.695 75.889, 81.538 74.958 C 84.245 71.967, 80.810 61.763, 77.736 63.663 C 77.263 63.956, 77.006 60.663, 77.164 56.347 C 77.326 51.922, 76.974 47.675, 76.357 46.608 C 75.009 44.279, 75.745 41, 77.617 41 C 78.377 41, 79 40.100, 79 39 C 79 37.900, 79.930 36.070, 81.067 34.933 C 82.802 33.198, 83.386 33.076, 84.704 34.169 C 86.031 35.271, 86.504 35.126, 87.759 33.236 C 89.476 30.651, 92.203 30.335, 94.010 32.512 C 94.909 33.596, 95.623 33.728, 96.527 32.978 C 97.429 32.229, 98.225 32.368, 99.323 33.465 C 100.167 34.309, 101.763 35, 102.870 35 C 103.976 35, 105.160 35.450, 105.500 36 C 105.840 36.550, 106.267 43.025, 106.449 50.389 C 106.777 63.639, 106.756 63.790, 104.418 64.855 C 100.379 66.696, 100.292 70.417, 104.175 75.261 C 111.313 84.167, 111.437 84.529, 111.832 97.602 L 112.198 109.704 115.599 111.039 C 117.469 111.773, 119.057 113.077, 119.128 113.937 C 119.487 118.335, 119.803 119.764, 120.853 121.726 C 122.669 125.118, 122.206 127.692, 119.382 129.914 C 116.004 132.572, 114.634 131.644, 115.357 127.186 C 115.900 123.840, 114.794 121, 112.948 121 C 112.504 121, 112.134 125.728, 112.125 131.508 C 112.116 137.287, 111.829 142.467, 111.488 143.019 C 111.076 143.686, 124.564 143.935, 151.684 143.761 L 192.500 143.500 192.757 71.750 L 193.013 0 96.507 0 L 0 0 0 72 M 0.474 72.500 C 0.474 112.100, 0.598 128.154, 0.750 108.176 C 0.901 88.198, 0.901 55.798, 0.750 36.176 C 0.598 16.554, 0.474 32.900, 0.474 72.500 M 77.668 128.266 C 75.740 131.713, 72.288 136.663, 69.997 139.266 L 65.830 144 73.370 144 L 80.909 144 81.424 140.750 C 82.280 135.354, 82.587 122, 81.855 122 C 81.480 122, 79.595 124.820, 77.668 128.266" stroke="none" fill="black" fill-rule="evenodd"/>
</svg>