<svg xmlns="http://www.w3.org/2000/svg" width="192" height="144" viewBox="0 0 192 144" version="1.1">
	<path d="M 0 72 L 0 144 26.500 144 L 53 144 53 140.521 C 53 138.608, 53.880 134.220, 54.956 130.771 C 56.032 127.322, 57.610 121.946, 58.463 118.823 C 59.604 114.644, 61.309 111.729, 64.927 107.770 C 69.755 102.488, 69.827 102.315, 68.997 97.947 C 68.532 95.501, 67.166 88.246, 65.961 81.825 C 63.287 67.581, 61.621 64.495, 55.796 62.997 C 47.880 60.961, 46.631 60.386, 44.798 57.932 C 41.013 52.862, 43.526 38.547, 48.539 36.623 C 54.167 34.464, 65.208 38.435, 71.698 44.953 C 79.214 52.501, 81.100 59.183, 84.414 90 C 84.681 92.475, 84.921 94.535, 84.949 94.578 C 84.977 94.621, 87.693 94.223, 90.985 93.693 C 94.974 93.050, 98.726 93.077, 102.235 93.774 C 105.131 94.349, 107.666 94.656, 107.870 94.457 C 108.073 94.257, 108.629 90.136, 109.106 85.297 C 110.166 74.539, 111.737 67.418, 113.880 63.655 C 117.432 57.417, 129.964 54.483, 142.249 57.014 C 156.637 59.978, 164.209 67.099, 165.128 78.532 L 165.447 82.500 161.288 82.317 C 158.949 82.214, 150.963 79.675, 143.047 76.519 C 135.302 73.430, 128.495 71.194, 127.921 71.549 C 126.139 72.650, 125.175 76.407, 124.050 86.638 C 123.454 92.062, 122.737 97.850, 122.458 99.500 C 122.026 102.046, 122.707 103.321, 126.954 107.926 C 130.416 111.679, 132.781 115.533, 134.623 120.426 C 136.088 124.317, 137.708 128.040, 138.223 128.699 C 138.739 129.358, 139.237 133.074, 139.330 136.956 L 139.500 144.013 166 143.757 L 192.500 143.500 192.757 71.750 L 193.013 0 96.507 0 L 0 0 0 72 M 0.474 72.500 C 0.474 112.100, 0.598 128.154, 0.750 108.176 C 0.901 88.198, 0.901 55.798, 0.750 36.176 C 0.598 16.554, 0.474 32.900, 0.474 72.500" stroke="none" fill="black" fill-rule="evenodd"/>
</svg>