<svg xmlns="http://www.w3.org/2000/svg" width="192" height="144" viewBox="0 0 192 144" version="1.1">
	<path d="M 63.755 4.805 C 65.071 18.500, 58.319 35.724, 47.835 45.412 C 35.421 56.884, 13.613 63.060, 1.750 58.464 C 0.100 57.825, 0 60.247, 0 100.893 L 0 144 52.455 144 L 104.909 144 105.553 140.250 C 106.615 134.071, 109.087 124.730, 110.648 121 C 111.454 119.075, 113.429 110.886, 115.036 102.802 C 118.330 86.242, 118.082 80.146, 113.998 77.286 C 112.083 75.945, 111.850 75.111, 112.356 71.419 L 112.946 67.116 108.426 68.791 C 105.508 69.872, 103.657 70.110, 103.203 69.463 C 101.980 67.717, 97.041 66, 93.203 65.987 C 91.166 65.980, 85.250 65.097, 80.056 64.025 C 74.862 62.954, 70.137 62.425, 69.556 62.850 C 67.609 64.274, 65.503 63.521, 65.185 61.285 C 64.762 58.312, 68.581 57.385, 75.357 58.816 C 83.792 60.598, 97.651 61.374, 98.433 60.108 C 98.810 59.499, 99.991 59, 101.059 59 C 102.127 59, 103 58.618, 103 58.150 C 103 57.683, 106.367 57.516, 110.481 57.780 C 119.220 58.341, 120.865 56.956, 116.565 52.656 C 115.154 51.245, 114 49.170, 114 48.045 C 114 46.920, 113.397 46, 112.661 46 C 110.348 46, 109.044 41.720, 110.518 38.967 C 111.593 36.958, 111.574 36.076, 110.407 33.821 C 107.610 28.411, 108.740 27.084, 114.601 28.896 C 116.195 29.389, 120.024 30.537, 123.110 31.445 C 126.322 32.392, 129.805 34.252, 131.258 35.799 C 134.275 39.008, 138.045 51.005, 138.707 59.500 C 139.005 63.330, 139.824 66.223, 140.971 67.500 C 142.113 68.771, 142.681 70.768, 142.531 72.980 C 142.401 74.894, 142.903 77.917, 143.647 79.698 C 144.391 81.479, 145.038 86.438, 145.084 90.718 C 145.131 94.998, 145.492 101.088, 145.887 104.250 C 146.282 107.412, 146.293 110, 145.911 110 C 145.529 110, 144.935 111.124, 144.590 112.498 C 144.141 114.286, 145.297 117.906, 148.658 125.239 C 151.240 130.872, 153.886 137.286, 154.537 139.491 L 155.721 143.500 174.110 143.500 L 192.500 143.500 192.825 129 C 193.003 121.025, 192.837 88.737, 192.455 57.250 L 191.761 0 127.527 -0 L 63.294 -0 63.755 4.805 M 0.459 101 C 0.459 124.925, 0.589 134.713, 0.749 122.750 C 0.908 110.788, 0.908 91.213, 0.749 79.250 C 0.589 67.288, 0.459 77.075, 0.459 101" stroke="none" fill="black" fill-rule="evenodd"/>
</svg>