<svg xmlns="http://www.w3.org/2000/svg" width="192" height="144" viewBox="0 0 192 144" version="1.1">
	<path d="M 59.179 49.890 C 59.242 54.424, 59.871 55.169, 65.250 57.074 C 67.313 57.804, 69 58.761, 69 59.201 C 69 59.926, 67.853 60.121, 61.453 60.486 C 59.075 60.621, 53.810 64, 55.977 64 C 57.084 64, 57.133 64.267, 56.200 65.200 C 55.540 65.860, 55 67.210, 55 68.200 C 55 69.733, 55.889 70, 61 70 C 67.452 70, 68.472 70.874, 64.500 73 C 63.125 73.736, 62 75.192, 62 76.235 C 62 77.278, 61.514 79.040, 60.919 80.151 C 59.309 83.160, 60.430 83.518, 67.133 82.133 C 72.865 80.950, 75.709 81.254, 73.411 82.804 C 72.053 83.721, 71.545 93, 72.853 93 C 73.405 93, 74.466 92.438, 75.210 91.750 C 79.626 87.669, 81.386 86.670, 85.520 85.897 C 89.590 85.137, 90.732 85.370, 95.564 87.949 C 98.791 89.671, 103.358 91.116, 106.758 91.491 C 117.958 92.727, 117.858 92.676, 118.196 97.272 L 118.500 101.410 131.500 103.565 C 147.435 106.207, 151.845 107.394, 185.399 118.077 C 192.337 120.286, 192.075 120.997, 191.773 100.753 L 191.500 82.507 187.869 81.318 C 185.871 80.664, 180.471 79.410, 175.869 78.531 C 163.809 76.229, 159.024 75.251, 154.500 74.165 C 152.300 73.637, 148.925 72.871, 147 72.463 C 145.075 72.055, 141.728 70.884, 139.562 69.860 C 137.396 68.837, 134.830 68, 133.859 68 C 132.888 68, 131.005 67.504, 129.674 66.897 C 128.018 66.143, 126.658 66.113, 125.370 66.802 C 124.052 67.507, 122.438 67.421, 119.994 66.514 C 110.782 63.097, 102.379 59.606, 101.250 58.728 C 100.397 58.064, 100 58.155, 100 59.014 C 100 59.707, 97.789 58.205, 95.086 55.678 C 90.059 50.975, 84.935 48.695, 84.219 50.842 C 83.626 52.623, 80.580 52.231, 74.656 49.611 C 71.685 48.298, 66.975 46.909, 64.189 46.526 L 59.123 45.829 59.179 49.890" stroke="none" fill="black" fill-rule="evenodd"/>
</svg>