<svg xmlns="http://www.w3.org/2000/svg" width="192" height="144" viewBox="0 0 192 144" version="1.1">
	<path d="M -0 39.559 C -0 70.928, 0.259 78.967, 1.250 78.389 C 5.253 76.054, 11.124 71.575, 15.423 67.578 C 18.131 65.060, 20.904 63, 21.585 63 C 23.238 63, 38.168 69.422, 44.374 72.802 C 48.506 75.053, 50.503 75.485, 56.414 75.410 C 60.311 75.361, 64.625 75.187, 66 75.023 C 67.375 74.859, 69.850 75.029, 71.500 75.401 C 74.268 76.025, 74.747 75.695, 77.687 71.145 C 80.128 67.368, 81.942 65.806, 85.437 64.471 C 89.031 63.098, 90 62.239, 90 60.423 C 90 57.981, 88.083 55.962, 87.882 58.191 C 87.816 58.911, 87.816 59.837, 87.882 60.250 C 87.947 60.663, 87.662 60.993, 87.250 60.985 C 85.733 60.954, 84.238 59.420, 82.591 56.207 C 81.663 54.395, 79.819 52.419, 78.493 51.815 C 76.577 50.942, 76.278 50.348, 77.041 48.924 C 78.420 46.346, 78.395 46.319, 74 45.616 C 71.800 45.264, 70 44.827, 70 44.645 C 70 44.463, 71.463 42.676, 73.250 40.674 C 76.255 37.309, 76.500 36.511, 76.500 30.093 C 76.500 24.611, 76.941 22.558, 78.596 20.326 C 82.176 15.501, 84.370 14.919, 97.867 15.222 L 110.233 15.500 113.473 19.250 C 115.674 21.799, 117.548 23, 119.323 23 C 122.770 23, 128.570 28.834, 130.057 33.797 C 130.849 36.438, 130.897 38.712, 130.215 41.183 C 129.632 43.294, 129.593 45.314, 130.118 46.127 C 133.476 51.313, 134.542 62.887, 132.036 66.942 C 129.116 71.666, 121.181 59.755, 119.984 48.851 C 119.563 45.020, 118.920 41.587, 118.555 41.222 C 117.523 40.190, 115.961 43.222, 116.093 46 C 116.337 51.126, 116.029 52.225, 114.515 51.644 C 112.836 51, 111 53.763, 111 56.934 C 111 58.070, 110.550 59, 110 59 C 109.450 59, 109 59.702, 109 60.559 C 109 61.416, 108.550 61.840, 108 61.500 C 107.450 61.160, 107 59.705, 107 58.267 L 107 55.651 104.500 58 C 100.980 61.307, 101.359 62.590, 106.427 64.525 C 111.243 66.365, 114.014 68.851, 116.413 73.487 C 117.782 76.132, 118.562 76.518, 123.229 76.854 C 137.587 77.888, 139.179 77.676, 145.570 73.879 C 148.909 71.896, 154.368 69.049, 157.702 67.553 L 163.764 64.833 170.632 71.687 C 177.529 78.569, 190.054 86.278, 191.688 84.646 C 192.135 84.200, 192.643 64.972, 192.819 41.918 L 193.137 0 96.569 0 L 0 0 -0 39.559 M 0.455 40 C 0.455 61.725, 0.587 70.612, 0.749 59.750 C 0.910 48.887, 0.910 31.112, 0.749 20.250 C 0.587 9.387, 0.455 18.275, 0.455 40 M 19.527 68.970 C 17.858 70.815, 17.848 71.160, 19.372 74.371 C 20.267 76.258, 20.999 78.184, 20.998 78.651 C 20.995 80.241, 11.182 90.503, 10.404 89.731 C 9.977 89.308, 9.733 86.945, 9.860 84.481 C 10.113 79.600, 9.370 79.070, 6.045 81.762 C 4.212 83.247, 4.029 83.945, 4.883 86.193 C 5.717 88.386, 5.510 89.362, 3.717 91.680 C 2.518 93.231, 1.191 94.650, 0.768 94.833 C 0.346 95.017, 0 106.154, 0 119.583 L 0 144 31.283 144 L 62.566 144 63.884 136.750 C 65.536 127.663, 68.787 113.756, 70.488 108.500 C 71.200 106.300, 72.079 102.475, 72.442 100 C 72.971 96.398, 72.853 95.749, 71.851 96.750 C 71.163 97.438, 70.231 98, 69.781 98 C 68.941 98, 69.129 96.828, 71.613 86.574 C 73.216 79.960, 72.741 79.043, 67.699 79.015 C 65.464 79.003, 64.617 79.673, 63.507 82.330 C 62.742 84.161, 61.500 86.170, 60.748 86.795 C 58.353 88.782, 44.607 93.993, 41.750 93.997 C 40.237 93.998, 39 94.450, 39 95 C 39 95.550, 38.325 96, 37.500 96 C 35.541 96, 35.599 95.203, 38.098 87.754 C 39.262 84.284, 41.295 80.569, 42.665 79.409 L 45.134 77.318 42.561 75.632 C 41.146 74.705, 38.911 73.536, 37.595 73.036 C 35.359 72.186, 35.208 72.345, 35.296 75.453 C 35.370 78.086, 34.473 79.742, 30.996 83.390 C 28.580 85.925, 26.242 88, 25.801 88 C 25.361 88, 25 85.075, 25 81.500 C 25 76.247, 25.400 74.600, 27.083 72.917 C 28.229 71.771, 29.017 70.703, 28.833 70.544 C 28.271 70.055, 22.125 67, 21.705 67 C 21.488 67, 20.508 67.887, 19.527 68.970 M 160.608 70.540 C 159.568 71.303, 158.294 72.069, 157.778 72.241 C 157.242 72.419, 157.394 73.771, 158.134 75.394 C 159.332 78.024, 159.222 78.412, 156.658 80.618 C 152.910 83.841, 151.291 83.614, 150.462 79.750 C 149.458 75.069, 149.166 74.845, 146.416 76.647 C 144.164 78.123, 144.077 78.427, 145.468 79.965 C 147.340 82.033, 147.418 87.865, 145.606 90.253 C 144.601 91.577, 143.448 91.855, 140.888 91.389 C 132.681 89.898, 129.525 88.305, 127.500 84.633 C 125.977 81.871, 124.863 81.005, 122.832 81.003 C 118.778 80.999, 116.761 82.007, 117.951 83.441 C 119.025 84.735, 122 97.775, 122 101.188 C 122 102.903, 121.751 103.038, 120.500 102 C 119.226 100.942, 119.002 101.187, 119.013 103.628 C 119.020 105.207, 119.864 109.200, 120.888 112.500 C 121.912 115.800, 123.819 124.237, 125.125 131.249 L 127.500 143.998 159.750 143.999 L 192 144 192 120.019 L 192 96.038 189.250 95.450 C 187.738 95.126, 184.552 94.167, 182.171 93.318 L 177.842 91.774 180.653 88.840 C 182.949 86.444, 183.201 85.743, 182.030 85.019 C 180.305 83.953, 179 84.601, 179 86.524 C 179 88.648, 175.547 90.059, 172.056 89.361 C 169.455 88.841, 169.053 88.394, 169.592 86.620 C 169.947 85.454, 170.941 83.698, 171.801 82.719 C 173.224 81.099, 173.214 80.785, 171.683 79.255 C 170.652 78.223, 170 78.034, 170 78.765 C 170 79.944, 163.057 84, 161.040 84 C 160.468 84, 160 82.457, 160 80.571 C 160 77.014, 162.096 74, 164.571 74 C 166.504 74, 166.370 72.644, 164.250 70.731 C 162.742 69.371, 162.238 69.345, 160.608 70.540 M 50.374 80.467 C 49.255 83.384, 50.631 84.212, 52.319 81.637 C 53.832 79.326, 53.854 79, 52.492 79 C 51.637 79, 50.684 79.660, 50.374 80.467 M 136.500 82 C 136.840 82.550, 137.316 83, 137.559 83 C 137.802 83, 138 82.550, 138 82 C 138 81.450, 137.523 81, 136.941 81 C 136.359 81, 136.160 81.450, 136.500 82 M 190 90 C 190 90.550, 190.450 91, 191 91 C 191.550 91, 192 90.550, 192 90 C 192 89.450, 191.550 89, 191 89 C 190.450 89, 190 89.450, 190 90 M 79.175 108.575 C 78.997 110.689, 74.755 123.870, 73.085 127.500 C 70.431 133.269, 69.318 139, 70.852 139 C 71.320 139, 72.523 135.963, 73.524 132.250 C 74.526 128.537, 76.415 123.073, 77.723 120.107 C 79.348 116.423, 79.982 113.413, 79.725 110.607 C 79.519 108.348, 79.271 107.434, 79.175 108.575 M 111.071 114.500 C 111.071 115.050, 111.714 116.625, 112.500 118 C 113.286 119.375, 113.929 120.050, 113.929 119.500 C 113.929 118.950, 113.286 117.375, 112.500 116 C 111.714 114.625, 111.071 113.950, 111.071 114.500" stroke="none" fill="black" fill-rule="evenodd"/>
</svg>