<svg xmlns="http://www.w3.org/2000/svg" width="192" height="144" viewBox="0 0 192 144" version="1.1">
	<path d="M 60 2.241 C 60 3.397, 59.345 5.067, 58.544 5.952 C 57.248 7.383, 57.594 8.200, 61.671 13.339 C 64.472 16.870, 66.788 18.912, 67.627 18.590 C 69.990 17.683, 69.160 21.223, 66.313 24.195 L 63.626 27 66.313 27 C 68.542 27, 69 27.444, 69 29.607 C 69 31.438, 69.419 32.053, 70.408 31.674 C 71.316 31.325, 72.041 32.029, 72.449 33.652 C 73.136 36.391, 76.523 40.500, 78.094 40.500 C 78.632 40.500, 79.444 41.101, 79.898 41.835 C 80.352 42.570, 81.123 43.070, 81.612 42.948 C 82.100 42.825, 83.004 43.712, 83.621 44.920 C 84.571 46.781, 84.836 46.869, 85.364 45.494 C 85.706 44.603, 86.487 44.183, 87.100 44.562 C 87.904 45.059, 87.883 45.455, 87.021 45.987 C 86.364 46.393, 85.979 47.730, 86.164 48.959 C 86.453 50.884, 85.606 51.531, 80.044 53.629 C 76.493 54.968, 72.857 56.724, 71.965 57.532 C 69.463 59.796, 68.312 59.328, 65.924 55.079 L 63.720 51.158 51.610 51.329 C 38.034 51.521, 41.541 52.685, 17.761 40.091 L 6.021 33.874 3.011 35.653 C 0.810 36.953, 0 38.180, 0 40.216 C -0 43.339, 0.255 43.469, 3.245 41.869 C 4.928 40.968, 6.050 41.111, 8.757 42.569 C 11.660 44.132, 12.059 44.772, 11.490 46.950 C 9.282 55.393, 9.620 57.276, 15.420 68.841 C 18.498 74.978, 21.395 80, 21.858 80 C 22.924 80, 24.276 56.918, 23.358 54.385 C 22.982 53.348, 21.848 51.306, 20.837 49.846 C 18.198 46.033, 18.527 45.707, 22.750 47.957 C 29.744 51.683, 31.772 54.370, 29.390 56.753 C 28.691 57.452, 27.842 59.931, 27.503 62.262 C 26.994 65.761, 27.565 68.156, 30.777 76 C 35.995 88.740, 37.708 91.904, 38.359 90 C 38.641 89.175, 39.391 83.050, 40.027 76.389 C 41.131 64.818, 41.089 64.094, 39.071 60.139 L 36.959 56 44.421 56 C 51.981 56, 54.089 56.851, 51.614 58.906 C 50.863 59.528, 49.692 62.030, 49.010 64.464 C 47.835 68.661, 47.990 69.513, 52.023 80.949 L 56.275 93.009 54.123 100.754 C 52.939 105.014, 51.640 110.186, 51.235 112.247 C 50.538 115.803, 49.709 116.479, 35 125.481 L 19.500 134.967 13.560 128.887 C 6.932 122.102, 3.580 120.274, 1.276 122.186 C -0.012 123.255, 0.069 123.638, 1.897 125.118 C 4.529 127.249, 4.557 128.635, 2 130.232 C 0.346 131.265, 0 132.564, 0 137.741 L 0 144 17.927 144 L 35.853 144 44.177 138.909 C 59.631 129.455, 60.904 128.002, 65.558 114.500 C 67.075 110.100, 68.660 106.107, 69.081 105.627 C 69.502 105.146, 69.669 112.232, 69.451 121.374 C 69.154 133.825, 68.665 138.748, 67.501 140.997 L 65.949 144 95.474 144 C 115.706 144, 125 143.665, 125 142.934 C 125 142.348, 124.470 140.886, 123.821 139.684 C 122.426 137.099, 121.396 110.996, 122.748 112.500 C 123.242 113.050, 124.739 116.353, 126.073 119.841 C 129.270 128.194, 132.872 131.705, 145.156 138.440 L 155.373 144.043 173.937 143.771 L 192.500 143.500 192.698 136.500 C 192.807 132.650, 192.657 130.063, 192.365 130.750 C 192.072 131.437, 190.858 131.964, 189.667 131.921 C 188.475 131.878, 188.065 131.614, 188.756 131.336 C 189.676 130.965, 189.481 130.156, 188.027 128.308 L 186.043 125.785 188.181 124.055 C 190.653 122.052, 189.894 119.993, 186.691 120.015 C 183.921 120.035, 182.913 120.773, 180.562 124.500 C 179.521 126.150, 177.843 128.400, 176.832 129.500 C 175.821 130.600, 174.429 132.301, 173.739 133.279 C 172.580 134.922, 171.491 134.476, 159.492 127.448 C 152.346 123.263, 144.813 118.965, 142.750 117.899 C 140.164 116.561, 138.983 115.267, 138.946 113.730 C 138.916 112.503, 137.899 107.700, 136.686 103.056 L 134.479 94.612 139.490 79.556 C 142.245 71.275, 145.026 63.942, 145.669 63.259 C 146.313 62.577, 147.360 60.439, 147.997 58.509 C 148.979 55.533, 149.611 55, 152.159 55 L 155.163 55 152.941 58.596 C 150.878 61.934, 150.766 62.943, 151.394 72.645 C 152.147 84.292, 152.891 89, 153.980 89 C 154.382 89, 157.073 83.642, 159.959 77.093 C 164.533 66.714, 165.119 64.661, 164.517 61.098 C 164.137 58.850, 163.415 56.757, 162.913 56.446 C 162.411 56.136, 162.010 54.896, 162.021 53.691 C 162.044 51.394, 167.473 46.899, 171.885 45.523 L 174.270 44.780 171.635 48.234 C 169.098 51.560, 169 52.178, 169 64.785 C 169 71.988, 169.345 78.095, 169.766 78.356 C 170.997 79.116, 183.001 56.369, 182.994 53.291 C 182.990 51.756, 182.315 49.211, 181.494 47.636 C 179.438 43.693, 179.507 43.489, 183.750 40.979 C 187.261 38.903, 187.675 38.862, 190.250 40.334 C 192.960 41.884, 193 41.868, 192.985 39.203 C 192.964 35.614, 192.009 34.291, 188.869 33.503 C 186.126 32.815, 176.609 37.066, 163 45.060 C 155.139 49.677, 151 50.922, 151 48.667 C 151 47.815, 151.481 46.821, 152.068 46.458 C 152.656 46.095, 152.852 45.056, 152.504 44.150 C 152.156 43.243, 151.680 37.486, 151.447 31.357 C 151.051 20.963, 151.187 19.916, 153.477 15.820 C 154.828 13.404, 156.236 8.841, 156.608 5.681 L 157.283 -0.064 108.641 0.038 L 60 0.140 60 2.241 M 131.073 24.372 C 127.937 29.853, 127.212 33.395, 129 34.500 C 130.803 35.614, 130.047 36.981, 127.762 36.738 C 125.801 36.529, 125.563 36.902, 125.837 39.750 C 126.145 42.944, 124.728 44.202, 123.583 41.750 C 123.117 40.750, 122.883 40.750, 122.417 41.750 C 122.096 42.438, 121.358 43, 120.777 43 C 119.458 43, 117.287 45.645, 115.629 49.272 L 114.362 52.045 113.272 49.772 C 112.672 48.523, 111.881 46.600, 111.514 45.500 C 110.895 43.647, 110.737 43.706, 109.365 46.299 C 108.263 48.384, 107.389 48.941, 105.942 48.482 C 104.631 48.065, 104 48.335, 104 49.310 C 104 51.213, 105.534 52.299, 111.153 54.374 C 113.713 55.319, 117.025 57.221, 118.515 58.601 C 120.004 59.981, 121.344 60.973, 121.492 60.805 C 121.640 60.637, 123.229 58.096, 125.023 55.157 C 127.940 50.381, 128.591 49.860, 131.170 50.238 L 134.055 50.662 133.799 45.081 C 133.659 42.011, 133.920 34.888, 134.380 29.250 C 134.840 23.612, 134.975 19, 134.681 19 C 134.387 19, 132.764 21.417, 131.073 24.372 M 90.500 34.410 C 92.150 35.829, 94.400 36.957, 95.500 36.916 C 96.925 36.863, 97.069 36.685, 96 36.296 C 95.175 35.996, 92.925 34.868, 91 33.791 L 87.500 31.831 90.500 34.410 M 0.232 40 C 0.232 41.925, 0.438 42.712, 0.689 41.750 C 0.941 40.788, 0.941 39.212, 0.689 38.250 C 0.438 37.288, 0.232 38.075, 0.232 40 M 102.500 45 C 102.160 45.550, 102.359 46, 102.941 46 C 103.523 46, 104 45.550, 104 45 C 104 44.450, 103.802 44, 103.559 44 C 103.316 44, 102.840 44.450, 102.500 45 M 0.027 59.250 C 0.012 65.713, 0.390 71, 0.867 71 C 1.344 71, 2.953 72.841, 4.442 75.092 C 5.931 77.342, 7.396 78.937, 7.698 78.636 C 7.999 78.335, 7.917 72.834, 7.516 66.413 C 6.800 54.962, 6.721 54.668, 3.420 51.119 L 0.054 47.500 0.027 59.250 M 189.565 49.578 C 186.666 52.477, 186.136 54.555, 185.423 65.812 C 184.909 73.946, 185.027 77, 185.858 77 C 186.486 77, 187.001 76.662, 187.001 76.250 C 187.002 75.838, 188.127 74.193, 189.501 72.594 C 191.834 69.882, 192 68.969, 192 58.844 C 192 52.880, 191.807 48, 191.571 48 C 191.336 48, 190.433 48.710, 189.565 49.578 M 129.069 60.429 C 126.090 63.503, 125.628 66, 128.039 66 C 129.033 66, 133.393 58.060, 132.751 57.418 C 132.538 57.205, 130.881 58.559, 129.069 60.429 M 60.217 62.510 C 62.162 66.514, 62.576 66.852, 63.905 65.524 C 65.233 64.196, 65.077 63.690, 62.513 61.014 C 58.442 56.764, 57.670 57.267, 60.217 62.510 M 0.328 137.500 C 0.333 141.350, 0.513 142.802, 0.730 140.728 C 0.946 138.653, 0.943 135.503, 0.722 133.728 C 0.501 131.952, 0.324 133.650, 0.328 137.500" stroke="none" fill="black" fill-rule="evenodd"/>
</svg>