<svg xmlns="http://www.w3.org/2000/svg" width="192" height="144" viewBox="0 0 192 144" version="1.1">
	<path d="M 0 72 L 0 144 34.841 144 L 69.682 144 70.958 138.250 C 71.660 135.088, 73.990 127.561, 76.137 121.525 C 79.918 110.894, 80.568 105.177, 77.525 109.310 C 75.801 111.651, 74.918 110.313, 73.486 103.194 L 72.419 97.888 64.008 94.944 C 59.381 93.325, 54.871 92, 53.985 92 C 53.099 92, 51.138 90.710, 49.628 89.134 C 47.474 86.886, 45.700 86.146, 41.400 85.702 C 36.128 85.158, 29.814 82.443, 29.602 80.629 C 29.546 80.150, 31.734 79.566, 34.464 79.331 C 37.195 79.097, 39.632 78.701, 39.881 78.452 C 40.130 78.203, 38.836 76.136, 37.006 73.858 L 33.678 69.716 34.850 60.911 C 36.133 51.274, 36.816 48.768, 37.965 49.478 C 38.381 49.735, 40.353 48.128, 42.347 45.906 C 44.342 43.684, 46.419 42.141, 46.962 42.476 C 47.517 42.820, 47.695 44.946, 47.368 47.332 C 46.963 50.284, 47.199 51.916, 48.143 52.688 C 50.084 54.278, 52 52.168, 52 48.441 C 52 47.528, 52.473 47.174, 53.141 47.587 C 53.937 48.079, 54.097 51.110, 53.670 57.609 C 53.192 64.887, 52.492 68.008, 50.468 71.879 C 49.043 74.604, 47.155 77.110, 46.272 77.449 C 43.411 78.547, 46.590 80.330, 51.994 80.660 C 54.768 80.829, 58.465 81.706, 60.210 82.609 C 65.109 85.142, 68.878 86.006, 69.641 84.772 C 70.039 84.128, 69.842 83.980, 69.155 84.405 C 66.976 85.751, 67.998 81.573, 72.067 72.500 C 75.374 65.124, 76.358 61.424, 77.517 52 C 79.188 38.426, 80.335 33.955, 83.590 28.317 L 86.006 24.133 83.253 23.817 C 79.620 23.399, 79.228 20.452, 82.057 14.827 C 85.765 7.453, 86.402 7.030, 91.287 8.697 C 93.604 9.487, 97.159 11.741, 99.186 13.707 C 103.123 17.525, 102.639 17.469, 113.738 15.385 C 119.590 14.286, 120.034 14.982, 118.308 22.552 C 117.148 27.637, 117.048 29.811, 117.892 31.662 C 118.501 33, 119 35.024, 119 36.161 C 119 38.798, 114.944 46.084, 113.852 45.408 C 112.229 44.406, 109.082 48.633, 108.434 52.685 C 107.867 56.234, 108.070 56.967, 109.887 57.940 C 111.049 58.562, 112 59.651, 112 60.361 C 112 61.071, 113.168 62.742, 114.595 64.076 C 119.633 68.782, 122.490 74.981, 122.184 80.544 C 121.692 89.525, 122.598 90.565, 132.129 91.958 C 136.679 92.624, 141.260 93.769, 142.309 94.504 C 143.453 95.305, 145.550 95.623, 147.552 95.298 C 152.765 94.452, 160 95.839, 160 97.684 C 160 98.914, 160.299 98.997, 161.411 98.074 C 163.110 96.664, 164.821 98.579, 163.258 100.142 C 161.989 101.411, 149.121 103.230, 146.319 102.537 C 145.120 102.240, 142.915 102.462, 141.419 103.031 C 139.328 103.826, 136.599 103.564, 129.600 101.896 C 116.534 98.781, 116.140 98.565, 113.769 93.245 L 111.655 88.500 110.743 91.965 C 110.242 93.871, 110.113 97.021, 110.457 98.965 C 110.800 100.909, 111.058 104.120, 111.028 106.100 C 110.996 108.201, 113.048 114.857, 115.956 122.090 C 118.696 128.905, 121.489 136.628, 122.161 139.253 L 123.385 144.025 157.942 143.763 L 192.500 143.500 192.757 71.750 L 193.013 0 96.507 0 L 0 0 0 72 M 0.474 72.500 C 0.474 112.100, 0.598 128.154, 0.750 108.176 C 0.901 88.198, 0.901 55.798, 0.750 36.176 C 0.598 16.554, 0.474 32.900, 0.474 72.500 M 49.739 57.889 C 49.467 58.928, 49.621 60.387, 50.081 61.131 C 51.344 63.175, 53.354 60.691, 52.532 58.101 C 51.703 55.490, 50.393 55.391, 49.739 57.889 M 149.604 83.590 C 148.737 85.848, 149.735 87, 152.559 87 C 155.296 87, 155.439 86.689, 153.965 83.934 C 152.711 81.591, 150.440 81.412, 149.604 83.590" stroke="none" fill="black" fill-rule="evenodd"/>
</svg>