<svg xmlns="http://www.w3.org/2000/svg" width="192" height="144" viewBox="0 0 192 144" version="1.1">
	<path d="M -0 72.005 L -0 144.010 96.250 143.755 L 192.500 143.500 192.757 71.750 L 193.013 0 165.648 -0 L 138.283 -0 137.772 10.783 C 137.316 20.406, 136.887 22.370, 133.790 29.033 C 129.655 37.927, 124.807 43.939, 117.615 49.089 C 109.570 54.850, 101.831 57.978, 92.553 59.220 C 85.507 60.162, 83.162 60.081, 77.551 58.696 C 58.543 54.005, 46.733 43.714, 39.542 25.576 C 37.190 19.642, 36.815 17.321, 36.917 9.326 L 37.037 0 18.518 0 L 0 0 -0 72.005 M 0.474 72.500 C 0.474 112.100, 0.598 128.154, 0.750 108.176 C 0.901 88.198, 0.901 55.798, 0.750 36.176 C 0.598 16.554, 0.474 32.900, 0.474 72.500" stroke="none" fill="black" fill-rule="evenodd"/>
</svg>