<svg xmlns="http://www.w3.org/2000/svg" width="192" height="144" viewBox="0 0 192 144" version="1.1">
	<path d="M 0 72 L 0 144 43.509 144 L 87.017 144 86.468 138.250 C 85.462 127.709, 85.049 125.415, 83.018 119.056 C 80.350 110.704, 80.463 107.939, 83.871 98.202 C 85.449 93.691, 86.284 90, 85.725 90 C 85.165 90, 85.899 88.896, 87.354 87.548 C 89.818 85.264, 90.481 83.813, 90.070 81.605 C 89.978 81.113, 91.102 79.460, 92.566 77.931 C 95.292 75.086, 97.354 66, 95.273 66 C 93.797 66, 87.014 55.109, 88.080 54.451 C 89.708 53.444, 89.068 52.142, 86.286 50.805 C 84.794 50.087, 82.881 48.150, 82.036 46.500 C 81.191 44.850, 80.148 43.240, 79.718 42.921 C 78.501 42.020, 82.865 31.620, 86.116 27.676 C 91.205 21.501, 105.908 17.548, 114.832 19.954 C 117.823 20.760, 120.784 22.740, 124.391 26.347 C 132.156 34.113, 133.152 38.474, 134.135 69 C 134.792 89.432, 136.725 140.624, 136.938 143.266 C 136.972 143.687, 149.488 143.912, 164.750 143.766 L 192.500 143.500 192.757 71.750 L 193.013 0 96.507 0 L 0 0 0 72 M 0.474 72.500 C 0.474 112.100, 0.598 128.154, 0.750 108.176 C 0.901 88.198, 0.901 55.798, 0.750 36.176 C 0.598 16.554, 0.474 32.900, 0.474 72.500" stroke="none" fill="black" fill-rule="evenodd"/>
</svg>