<svg xmlns="http://www.w3.org/2000/svg" width="192" height="144" viewBox="0 0 192 144" version="1.1">
	<path d="M 0 72 L 0 144 37 144 L 74 144 74 141.017 C 74 138.203, 79.432 116.729, 80.636 114.780 C 80.944 114.281, 80.474 113.077, 79.593 112.102 C 77.768 110.086, 78.400 105.088, 82.013 92.957 C 84.780 83.664, 85.950 77.704, 86.629 69.432 C 87.197 62.527, 87.138 62.292, 84.105 59.259 C 82.397 57.551, 81 55.658, 81 55.052 C 81 52.462, 92.659 50.751, 102.989 51.825 C 110.612 52.618, 111.430 53.958, 107.831 59.760 C 106.556 61.817, 105.573 63.725, 105.648 64 C 105.722 64.275, 106.045 68.325, 106.366 73 C 106.898 80.765, 109.457 92.813, 111.989 99.472 C 113.300 102.920, 113.293 111.307, 111.978 112.622 C 111.281 113.319, 111.559 115.694, 112.850 120.072 C 116.637 132.917, 118.217 140.062, 117.704 142.022 C 117.187 144.002, 117.601 144.021, 154.840 143.762 L 192.500 143.500 192.757 71.750 L 193.013 0 96.507 0 L 0 0 0 72 M 0.474 72.500 C 0.474 112.100, 0.598 128.154, 0.750 108.176 C 0.901 88.198, 0.901 55.798, 0.750 36.176 C 0.598 16.554, 0.474 32.900, 0.474 72.500" stroke="none" fill="black" fill-rule="evenodd"/>
</svg>