<svg xmlns="http://www.w3.org/2000/svg" width="192" height="144" viewBox="0 0 192 144" version="1.1">
	<path d="M 0 72 L 0 144 42.858 144 L 85.715 144 86.358 137.853 C 87.423 127.661, 87.138 122.810, 85.358 120.844 C 83.840 119.166, 83.839 118.635, 85.341 113.765 C 87.944 105.329, 88.780 95.061, 87.368 88.895 C 86.317 84.307, 86.376 82.677, 87.760 78 C 88.656 74.975, 89.293 71.989, 89.176 71.364 C 89.060 70.739, 89.648 69.965, 90.482 69.645 C 93.593 68.452, 92.236 63.556, 87.508 58.912 C 81.870 53.376, 81.514 49.762, 86.093 44.547 C 92.125 37.676, 100.330 37.633, 105.526 44.445 C 110.487 50.949, 114.108 74.989, 114.648 105 C 115.020 125.684, 115.861 136.208, 117.628 142.262 C 118.109 143.910, 120.547 144.007, 155.321 143.762 L 192.500 143.500 192.521 71.500 C 192.533 31.900, 192.412 11.087, 192.254 25.250 C 192.096 39.413, 191.734 51, 191.450 51 C 189.155 51, 180.398 45.068, 175.417 40.140 C 166.463 31.280, 160 16.209, 160 4.186 L 160 0 80 0 L 0 0 0 72 M 0.474 72.500 C 0.474 112.100, 0.598 128.154, 0.750 108.176 C 0.901 88.198, 0.901 55.798, 0.750 36.176 C 0.598 16.554, 0.474 32.900, 0.474 72.500" stroke="none" fill="black" fill-rule="evenodd"/>
</svg>