<svg xmlns="http://www.w3.org/2000/svg" width="192" height="144" viewBox="0 0 192 144" version="1.1">
	<path d="M 0.082 79.405 C 0.003 111.222, 0.060 112.255, 1.829 110.655 C 2.835 109.745, 4.440 109, 5.396 109 C 7.604 109, 6.885 111.536, 2.887 117.839 C 0.607 121.434, -0 123.547, 0 127.883 L 0 133.374 2.750 130.845 C 9.929 124.243, 17.825 120.169, 18.687 122.622 C 19.080 123.740, 16.982 126.057, 7.080 135.441 C 1.862 140.386, -0.805 144, 0.765 144 C 1.224 144, 2.028 143.586, 2.550 143.080 C 4.127 141.553, 14.609 139.208, 17.653 139.701 C 22.870 140.546, 23.359 140.863, 21.990 142.512 C 20.904 143.821, 23.031 143.998, 39.628 143.981 L 58.500 143.962 47.433 133.231 C 41.346 127.329, 35.559 121.266, 34.573 119.759 C 33.588 118.251, 32.377 117.267, 31.883 117.573 C 31.388 117.878, 30.149 116.180, 29.129 113.800 C 28.108 111.419, 26.475 108.809, 25.500 108 C 24.525 107.191, 22.860 104.506, 21.800 102.034 C 20.741 99.562, 19.540 97.306, 19.132 97.020 C 18.724 96.734, 16.310 92.440, 13.766 87.479 C 8.722 77.637, 3.984 64.328, 1.652 53.447 C 0.218 46.757, 0.160 47.717, 0.082 79.405" stroke="none" fill="black" fill-rule="evenodd"/>
</svg>