<svg xmlns="http://www.w3.org/2000/svg" width="192" height="144" viewBox="0 0 192 144" version="1.1">
	<path d="M 0 72 L 0 144 41.167 144 C 63.808 144, 82.098 143.765, 81.811 143.478 C 81.524 143.191, 78.877 142.178, 75.928 141.228 C 71.297 139.735, 70.438 139.049, 69.622 136.192 C 69.005 134.032, 67.606 132.340, 65.589 131.315 C 60.518 128.739, 58.583 126.186, 59.788 123.661 C 60.355 122.473, 61.070 120.713, 61.377 119.752 C 62.087 117.530, 69.580 112.225, 75.779 109.556 C 83.208 106.356, 86.967 103.651, 94.188 96.304 L 100.876 89.500 99.743 84.500 C 99.120 81.750, 97.969 79.110, 97.185 78.633 C 96.045 77.940, 96.334 77.308, 98.630 75.474 C 101.366 73.288, 101.498 72.809, 101.455 65.228 C 101.414 58.098, 101.133 56.947, 98.731 54.092 C 93.715 48.131, 93.076 40, 97.622 40 C 98.439 40, 99 38.942, 99 37.400 C 99 34.153, 104.873 28.045, 108.150 27.885 C 113.834 27.606, 119.342 30.353, 120.516 34.051 C 121.222 36.276, 135.418 37.471, 138.500 35.565 C 141.134 33.937, 145.155 32.941, 144.442 34.093 C 144.134 34.592, 143.121 35.014, 142.191 35.032 C 139.807 35.077, 137 37.417, 137 39.360 C 137 41.706, 133.129 45.263, 131.328 44.573 C 130.414 44.221, 128.739 45.138, 127.111 46.881 C 125.626 48.471, 122.068 50.604, 119.205 51.621 C 116.022 52.751, 114.004 54.058, 114.010 54.985 C 114.015 55.818, 115.573 58.454, 117.472 60.843 C 122.195 66.784, 122.506 68.327, 119.916 72.936 L 117.699 76.880 119.973 93.190 C 121.224 102.160, 122.478 117.268, 122.760 126.763 L 123.274 144.026 157.887 143.763 L 192.500 143.500 192.757 71.750 L 193.013 0 96.507 0 L 0 0 0 72 M 0.474 72.500 C 0.474 112.100, 0.598 128.154, 0.750 108.176 C 0.901 88.198, 0.901 55.798, 0.750 36.176 C 0.598 16.554, 0.474 32.900, 0.474 72.500 M 184 3 C 184 3.550, 184.927 4, 186.059 4 C 187.191 4, 187.840 3.550, 187.500 3 C 186.698 1.702, 184 1.702, 184 3 M 31.192 45.075 C 31.389 45.666, 31.978 46.150, 32.500 46.150 C 33.023 46.150, 33.611 45.666, 33.808 45.075 C 34.005 44.484, 33.417 44, 32.500 44 C 31.583 44, 30.995 44.484, 31.192 45.075 M 14.079 47.583 C 14.127 48.748, 14.364 48.985, 14.683 48.188 C 14.972 47.466, 14.936 46.603, 14.604 46.271 C 14.272 45.939, 14.036 46.529, 14.079 47.583 M 11 62.882 C 11 63.982, 11.450 65.160, 12 65.500 C 12.550 65.840, 13 65.218, 13 64.118 C 13 63.018, 12.550 61.840, 12 61.500 C 11.450 61.160, 11 61.782, 11 62.882 M 57 106 C 57 106.550, 57.450 107, 58 107 C 58.550 107, 59 106.550, 59 106 C 59 105.450, 58.550 105, 58 105 C 57.450 105, 57 105.450, 57 106 M 129.500 110 C 129.160 110.550, 129.610 111, 130.500 111 C 131.390 111, 131.840 110.550, 131.500 110 C 131.160 109.450, 130.710 109, 130.500 109 C 130.290 109, 129.840 109.450, 129.500 110" stroke="none" fill="black" fill-rule="evenodd"/>
</svg>