<svg xmlns="http://www.w3.org/2000/svg" width="192" height="144" viewBox="0 0 192 144" version="1.1">
	<path d="M 96.227 9.870 C 92.776 10.893, 87.747 13.102, 85.050 14.778 L 80.146 17.827 74.155 15.406 C 65.920 12.080, 56.879 11.194, 53.536 13.384 C 50.248 15.539, 50.237 19.044, 53.485 29.500 C 54.852 33.900, 55.977 37.556, 55.985 37.625 C 55.993 37.694, 54.704 38.009, 53.121 38.326 C 49.075 39.135, 47 41.580, 47 45.536 C 47 47.954, 47.600 49.251, 49.088 50.047 C 50.600 50.856, 51.019 51.789, 50.607 53.430 C 50.119 55.372, 50.590 55.860, 53.909 56.855 C 57.197 57.840, 57.877 58.532, 58.425 61.451 C 58.805 63.479, 59.801 65.120, 60.856 65.454 C 64.145 66.498, 69.188 72.383, 81.165 89.152 C 87.707 98.311, 93.721 106.353, 94.529 107.024 C 96.655 108.788, 97.356 108.020, 110.852 89.152 C 124.100 70.630, 126.129 68.218, 130.779 65.472 C 133.194 64.045, 134 62.864, 134 60.753 C 134 57.865, 134.603 57.375, 139.094 56.623 C 143.184 55.938, 144.280 57.358, 145.133 64.446 C 145.572 68.086, 147.051 74.171, 148.420 77.967 C 153.443 91.891, 155.396 113.101, 152.983 127.500 C 152.149 132.473, 152.261 134.142, 153.640 137.250 C 155.616 141.705, 156.741 141.991, 157.574 138.250 C 158.796 132.760, 159.163 131.983, 160.224 132.639 C 160.970 133.099, 161.099 132.019, 160.640 129.153 C 159.887 124.442, 160.562 123.718, 162.053 127.639 C 162.605 129.090, 163.281 130.052, 163.556 129.777 C 163.831 129.502, 163.659 128.202, 163.174 126.889 C 162.690 125.575, 161.979 123.204, 161.595 121.620 C 160.975 119.062, 161.126 118.800, 162.948 119.276 C 165.381 119.912, 165.625 118.764, 163.442 116.952 C 157.927 112.375, 154.977 100.341, 156.460 88.472 L 157.176 82.742 161.838 83.377 C 164.402 83.727, 167.724 84.284, 169.221 84.617 C 171.465 85.116, 172.145 84.775, 173.102 82.675 C 174.651 79.276, 173.801 77.474, 169.741 75.547 C 167.882 74.665, 164.440 71.986, 162.092 69.593 L 157.823 65.244 159.619 61.872 C 162.600 56.274, 162.132 46.746, 158.525 39.629 C 147.425 17.721, 117.675 3.510, 96.227 9.870 M 43.816 65.504 C 43.189 66.882, 42.962 68.296, 43.313 68.647 C 44.332 69.665, 47 66.937, 47 64.878 C 47 62.196, 45.158 62.558, 43.816 65.504" stroke="none" fill="black" fill-rule="evenodd"/>
</svg>