<svg xmlns="http://www.w3.org/2000/svg" width="192" height="144" viewBox="0 0 192 144" version="1.1">
	<path d="M 158.105 46.593 C 156.788 47.903, 154.241 49.507, 152.445 50.156 C 149.203 51.328, 149.183 51.376, 149.730 56.668 C 150.185 61.083, 150.009 62, 148.707 62 C 147.842 62, 146.865 62.850, 146.535 63.890 C 145.854 66.036, 141.102 67.321, 139.314 65.842 C 138.533 65.196, 137.424 65.238, 136.064 65.966 C 133.892 67.128, 133.411 68.518, 134.869 69.419 C 135.346 69.714, 136.023 71.740, 136.371 73.920 C 137.171 78.923, 138.495 79.741, 141.845 77.304 C 146.814 73.688, 146.749 73.640, 146.454 80.774 C 146.142 88.342, 143.833 94.516, 139.120 100.388 C 134.252 106.453, 135.342 109.824, 142.904 112.089 L 146.719 113.232 146.609 124.866 L 146.500 136.500 143.132 136.668 C 138.514 136.898, 137.295 138.314, 138.989 141.480 C 140.334 143.993, 140.377 144, 154.650 144 C 168.934 144, 168.963 143.995, 169.566 141.593 C 169.898 140.269, 169.681 138.272, 169.083 137.154 C 168.485 136.037, 167.804 131.383, 167.569 126.811 C 167.335 122.240, 166.638 116.806, 166.021 114.737 C 165.404 112.667, 165.164 110.544, 165.488 110.019 C 166.098 109.033, 160.336 89.125, 159.028 87.696 C 157.705 86.251, 160.060 76.647, 162.084 75.228 C 164.227 73.728, 164.618 70.018, 162.824 68.224 C 161.082 66.482, 164.295 63.373, 168.815 62.427 C 170.842 62.002, 172.838 61.564, 173.250 61.453 C 173.662 61.341, 175.125 61.194, 176.500 61.125 C 177.875 61.056, 179 60.494, 179 59.875 C 179 59.128, 177.907 58.986, 175.750 59.452 C 166.671 61.414, 165.325 61.349, 164.688 58.914 C 164.356 57.644, 164.507 56.094, 165.024 55.472 C 165.653 54.713, 164.986 53.403, 163.004 51.504 C 160.795 49.388, 160.194 48.077, 160.631 46.334 C 161.336 43.526, 161.171 43.543, 158.105 46.593 M 94.742 51.102 C 93.774 52.801, 92.098 54.423, 91.015 54.706 C 89.460 55.113, 89.252 55.603, 90.024 57.045 C 90.561 58.048, 91 59.743, 91 60.812 C 91 61.881, 91.675 63.315, 92.500 64 C 94.412 65.587, 94.442 68, 92.550 68 C 91.752 68, 90.740 68.617, 90.300 69.370 C 89.860 70.124, 88.375 70.687, 87 70.620 C 85.123 70.530, 84.420 71.061, 84.180 72.750 C 83.920 74.584, 83.227 75, 80.430 75 C 76.461 75, 76.005 76.561, 78.929 80.139 C 80.409 81.950, 81.136 82.227, 82.051 81.328 C 82.707 80.684, 83.889 80.404, 84.678 80.707 C 85.467 81.009, 87.014 80.289, 88.116 79.106 C 90.481 76.567, 91.587 77.033, 93.387 81.327 C 94.502 83.988, 94.493 84.945, 93.330 87.255 C 90.963 91.957, 86.036 107.249, 86.596 108.155 C 86.888 108.627, 88.340 109.641, 89.822 110.408 C 92.360 111.720, 92.505 112.171, 92.301 118.137 C 92.183 121.621, 91.680 124.607, 91.185 124.772 C 90.689 124.937, 89.432 125.731, 88.392 126.537 C 86.555 127.959, 86.568 128.059, 88.861 130.001 C 90.159 131.100, 91.884 132, 92.694 132 C 95.865 132, 93.118 134.530, 89.422 135.014 C 86.605 135.383, 85.604 135.946, 85.869 137.014 C 86.844 140.936, 86.477 141.502, 82.750 141.810 C 80.688 141.981, 79 142.602, 79 143.191 C 79 143.896, 80.281 144.003, 82.750 143.506 C 84.813 143.090, 90.225 142.603, 94.777 142.424 C 101.248 142.168, 103.704 141.635, 106.027 139.980 C 108.895 137.939, 110.059 135, 108 135 C 106.161 135, 106.972 132.928, 109.750 130.529 L 112.500 128.154 109.778 127.112 C 106.999 126.049, 106.487 124.838, 105.681 117.424 C 105.273 113.680, 105.471 113.261, 108.119 112.261 C 111.406 111.021, 111.948 107.763, 109.626 103.200 C 108.018 100.039, 104.847 85.057, 105.547 83.925 C 105.810 83.499, 105.513 82.024, 104.886 80.648 C 103.929 78.548, 104.110 77.558, 106.017 74.472 C 107.892 71.439, 108.045 70.642, 106.894 69.914 C 106.127 69.428, 105.275 69.022, 105 69.010 C 104.725 68.999, 104.500 65.955, 104.500 62.245 C 104.500 55.912, 104.325 55.390, 101.643 53.700 C 100.072 52.710, 98.557 51.022, 98.277 49.950 C 97.571 47.253, 96.787 47.509, 94.742 51.102 M 39.489 52.237 C 38.945 53.472, 37.092 55.386, 35.370 56.491 C 32.823 58.126, 32.248 59.151, 32.281 62 C 32.303 63.925, 32.794 66.110, 33.371 66.857 C 36.301 70.640, 36.515 72.340, 34.585 76.497 C 32.886 80.157, 31.964 80.868, 26.398 82.811 C 19.548 85.201, 15 85.630, 15 83.885 C 15 83.116, 13.216 82.979, 9.250 83.444 C 0.314 84.493, -0.156 84.743, 0.193 88.265 C 0.490 91.263, 0.983 91.555, 16 97.629 C 24.525 101.077, 32.565 103.922, 33.867 103.949 C 35.871 103.992, 36.118 104.344, 35.478 106.250 C 35.063 107.487, 34.667 110.075, 34.599 112 C 34.530 113.925, 33.902 116.513, 33.202 117.750 C 31.495 120.768, 32.834 123.102, 38.515 127.010 C 40.982 128.707, 43 130.371, 43 130.707 C 43 131.043, 40.872 133.272, 38.272 135.659 C 35.137 138.537, 32.635 140, 30.848 140 C 29.366 140, 25.876 140.526, 23.093 141.168 C 19.223 142.061, 17.425 142.059, 15.450 141.159 C 13.363 140.208, 11.777 140.320, 7.184 141.741 L 1.500 143.500 11.493 143.789 C 16.989 143.948, 22.389 143.647, 23.493 143.120 C 27.339 141.284, 31.769 141.016, 33.035 142.542 C 34.751 144.610, 54.508 144.635, 56.571 142.571 C 57.357 141.786, 58 140.838, 58 140.466 C 58 139.715, 55.087 135.990, 48.721 128.601 C 45.007 124.290, 41 118.588, 41 117.615 C 41 117.429, 43.587 117.038, 46.750 116.745 C 52.848 116.180, 58 114.326, 58 112.697 C 58 111.659, 51.242 94.205, 50.179 92.500 C 49.837 91.950, 49.437 91.050, 49.291 90.500 C 44.831 73.673, 44.831 73.674, 46.426 72.782 C 47.629 72.108, 47.907 70.540, 47.652 65.864 C 47.470 62.538, 46.820 59.507, 46.207 59.128 C 45.594 58.749, 44.509 56.687, 43.796 54.546 C 42.257 49.922, 40.843 49.164, 39.489 52.237 M 141.015 69.750 C 141.024 70.749, 141.351 71.071, 141.777 70.500 C 142.187 69.950, 142.931 69.162, 143.428 68.750 C 143.926 68.338, 143.583 68, 142.667 68 C 141.740 68, 141.007 68.777, 141.015 69.750 M 28.250 86.347 C 22.099 88.365, 25.490 89.852, 32.875 88.375 C 34.594 88.031, 36 87.131, 36 86.375 C 36 84.792, 33.025 84.781, 28.250 86.347 M 96.630 115.250 C 96.299 116.487, 96.021 119.188, 96.014 121.250 C 96.001 124.753, 96.198 125, 99 125 C 101.754 125, 102 124.717, 102 121.547 C 102 114.826, 98.001 110.136, 96.630 115.250 M 153.830 113.674 C 152.550 114.013, 152.004 115.797, 151.495 121.308 C 151.130 125.264, 150.981 130.269, 151.165 132.430 C 151.496 136.311, 151.569 136.376, 157 137.594 C 160.025 138.273, 162.618 138.712, 162.762 138.569 C 163.702 137.637, 163.381 126.498, 162.271 121.564 C 160.414 113.304, 159.270 112.234, 153.830 113.674 M 90 138 C 90 138.550, 90.450 139, 91 139 C 91.550 139, 92 138.550, 92 138 C 92 137.450, 91.550 137, 91 137 C 90.450 137, 90 137.450, 90 138" stroke="none" fill="black" fill-rule="evenodd"/>
</svg>