<svg xmlns="http://www.w3.org/2000/svg" width="192" height="144" viewBox="0 0 192 144" version="1.1">
	<path d="M -0 8.333 L -0 16.666 5.516 17.665 C 9.847 18.450, 11.271 18.379, 12.139 17.333 C 12.747 16.600, 14.315 16, 15.622 16 C 17.501 16, 18 16.532, 18 18.535 C 18 20.732, 18.258 20.932, 19.934 20.035 C 25.187 17.224, 32 19.930, 32 24.829 C 32 26.023, 32.461 27, 33.025 27 C 34.676 27, 36.212 32.040, 35.004 33.495 C 33.545 35.253, 34.778 37.826, 37.871 39.476 C 39.317 40.247, 43.366 43.550, 46.868 46.816 L 53.237 52.753 52.041 56.376 C 51.133 59.126, 51.115 61.743, 51.964 67.249 C 53.024 74.120, 59.055 96.797, 63.126 109.218 C 64.238 112.613, 65 117.795, 65 121.968 C 65 128.291, 64.802 129, 63.035 129 C 61.955 129, 60.589 129.900, 60 131 C 59.117 132.650, 57.906 133, 53.081 133 C 46.650 133, 46.043 133.666, 46.014 140.750 L 46 144 66.557 144 L 87.113 144 85.557 141.777 C 84.701 140.555, 84 138.393, 84 136.972 C 84 135.551, 82.875 132.864, 81.500 131 C 80.125 129.136, 79 126.814, 79 125.840 C 79 124.865, 78.263 122.365, 77.361 120.284 C 76.460 118.203, 75.355 115.600, 74.905 114.500 C 73.841 111.898, 71 96.093, 71 92.778 C 71 91.268, 72.305 88.830, 74.170 86.856 C 78.413 82.364, 79.153 75.351, 76.185 67.766 C 75.052 64.870, 73.832 60.587, 73.474 58.250 C 73.117 55.913, 72.482 54, 72.064 54 C 70.907 54, 68 44.225, 68 40.336 C 68 38.446, 67.265 35.479, 66.366 33.741 C 64.691 30.502, 64.713 28.328, 66.630 7.250 L 67.290 0 33.645 0 L 0 0 -0 8.333 M -0 41.270 C -0 53.991, 0.367 63.972, 0.815 63.450 C 1.264 62.927, 4.301 59.397, 7.565 55.605 C 13.207 49.050, 13.495 48.458, 13.391 43.605 C 13.331 40.797, 13.022 36.925, 12.705 35 C 12.387 33.075, 12.099 30.938, 12.064 30.250 C 12.028 29.542, 10.699 29, 9 29 C 5.741 29, 5.163 27.433, 7.093 23.827 C 8.404 21.376, 7.520 20.296, 3.183 19.052 L 0 18.140 -0 41.270 M 35.493 65.166 C 35.140 66.082, 35.023 68.107, 35.233 69.666 L 35.614 72.500 36.812 69.671 C 37.593 67.827, 37.684 66.260, 37.073 65.171 C 36.198 63.613, 36.091 63.613, 35.493 65.166 M 28.240 67.211 C 26.061 69.837, 22.780 80.357, 22.919 84.276 C 23.042 87.778, 22.880 88.008, 20.668 87.453 C 18.686 86.955, 17.906 87.493, 16.050 90.639 C 13.982 94.145, 13.737 94.281, 12.730 92.481 C 12.132 91.413, 11.613 87.042, 11.577 82.769 C 11.542 78.496, 11.285 75.002, 11.006 75.004 C 9.775 75.013, 4 79.064, 4 79.918 C 4 80.439, 3.100 81.151, 2 81.500 C 0.057 82.117, 0 83.013, 0 113.067 L 0 144 14.903 144 L 29.807 144 30.153 138.994 C 30.618 132.277, 30.447 132, 25.823 132 C 22.610 132, 21.705 131.589, 21.272 129.933 C 20.809 128.163, 20.066 127.906, 16.116 128.146 L 11.500 128.427 11.500 124.019 C 11.500 120.686, 12.666 117.403, 16.281 110.556 C 26.227 91.715, 30.198 82.865, 29.649 80.766 C 29.349 79.617, 29.541 77.857, 30.077 76.855 C 30.650 75.785, 30.730 73.111, 30.270 70.370 C 29.614 66.458, 29.287 65.949, 28.240 67.211 M 13.697 82.393 C 13.288 83.434, 13.189 84.522, 13.476 84.810 C 14.389 85.722, 15.191 84.227, 14.809 82.328 C 14.459 80.588, 14.405 80.591, 13.697 82.393 M 37.206 136.689 C 36.695 137.685, 35.981 139.738, 35.619 141.250 C 35.011 143.797, 35.190 144, 38.038 144 C 41.031 144, 41.107 143.887, 40.807 139.828 C 40.475 135.321, 38.702 133.775, 37.206 136.689" stroke="none" fill="black" fill-rule="evenodd"/>
</svg>