<svg xmlns="http://www.w3.org/2000/svg" width="192" height="144" viewBox="0 0 192 144" version="1.1">
	<path d="M 0 57.057 L 0 114.115 4.250 113.807 L 8.500 113.500 9 106.168 C 9.503 98.785, 11.062 96, 14.691 96 C 15.518 96, 16 94.723, 16 92.535 C 16 90.076, 16.590 88.755, 18.032 87.983 C 19.149 87.385, 19.937 86.274, 19.782 85.513 C 19.627 84.753, 19.950 84.147, 20.500 84.166 C 21.050 84.185, 21.369 84.661, 21.208 85.225 C 21.048 85.789, 21.714 87.132, 22.689 88.209 C 23.743 89.374, 24.339 91.334, 24.159 93.047 C 23.909 95.429, 24.306 96.039, 26.455 96.578 C 30.048 97.480, 31.194 100.167, 30.820 106.815 C 30.444 113.498, 32.242 115.087, 33.047 108.783 C 33.545 104.875, 35.740 99.991, 36.991 100.006 C 38.152 100.021, 41 106.366, 41 108.939 C 41 111.603, 41.248 111.741, 47.147 112.358 C 50.527 112.711, 56.524 113, 60.472 113 C 66.837 113, 67.918 113.284, 70 115.500 C 73.669 119.406, 74.327 118.654, 73.723 111.250 C 73.263 105.624, 73.504 103.959, 75.167 101.250 C 76.265 99.463, 77.341 98, 77.559 98 C 77.776 98, 78.733 99.189, 79.686 100.643 C 81.212 102.972, 81.383 105.705, 81.123 123.643 L 80.829 144 136.255 144 L 191.681 144 192.338 120.750 C 192.700 107.963, 192.996 75.563, 192.998 48.750 L 193 0 96.500 0 L 0 0 0 57.057 M 0.468 57.500 C 0.468 88.850, 0.595 101.530, 0.750 85.679 C 0.904 69.827, 0.904 44.177, 0.749 28.679 C 0.594 13.180, 0.468 26.150, 0.468 57.500 M 119.880 33 C 118.112 35.200, 116.039 37, 115.274 37 C 114.508 37, 114.140 37.418, 114.456 37.928 C 114.771 38.438, 114.123 39.144, 113.015 39.495 C 110.012 40.448, 110.581 42, 113.933 42 C 117.458 42, 118.468 44.272, 117.497 50.020 C 117.036 52.744, 117.320 54.934, 118.416 57.132 C 119.287 58.878, 120 60.966, 120 61.771 C 120 63.479, 112.762 71, 111.118 71 C 109.856 71, 109.656 72.990, 110.765 74.500 C 111.169 75.050, 113.525 76.175, 116 77 C 119.335 78.112, 120.583 79.083, 120.820 80.750 C 121.282 84.005, 123.728 83.513, 124.497 80.011 C 125.691 74.577, 129.136 74.976, 130.584 80.717 C 131.776 85.444, 133.782 86.037, 135.268 82.102 C 136.191 79.654, 136.864 79.130, 138.468 79.603 C 139.586 79.932, 141.007 80.842, 141.627 81.624 C 142.566 82.808, 142.850 82.680, 143.327 80.859 C 143.810 79.010, 144.139 78.870, 145.449 79.958 C 146.450 80.788, 147 80.858, 147 80.154 C 147 79.554, 147.634 79.306, 148.410 79.604 C 149.257 79.929, 150.082 79.318, 150.477 78.072 C 150.875 76.818, 151.996 75.994, 153.317 75.985 C 155.062 75.972, 155.203 75.782, 154.020 75.034 C 152.357 73.982, 151.725 68.288, 153.173 67.393 C 153.690 67.073, 152.513 65.258, 150.557 63.358 C 148.600 61.458, 147 59.513, 147 59.036 C 147 58.559, 145.313 58.177, 143.250 58.187 C 135.844 58.223, 135.925 58.259, 137.184 55.496 C 138.729 52.104, 137.881 51.605, 133.608 53.390 C 130.134 54.842, 130 54.820, 130 52.807 C 130 51.657, 131.264 49.509, 132.808 48.033 C 134.353 46.557, 135.454 44.862, 135.255 44.266 C 135.057 43.671, 135.368 42.890, 135.947 42.533 C 137.948 41.296, 136.986 40.220, 133.252 39.520 C 129.008 38.723, 128.037 37.660, 128.015 33.785 C 128.006 32.136, 127.241 30.664, 126.066 30.035 C 123.368 28.592, 123.456 28.549, 119.880 33" stroke="none" fill="black" fill-rule="evenodd"/>
</svg>