<svg xmlns="http://www.w3.org/2000/svg" width="192" height="144" viewBox="0 0 192 144" version="1.1">
	<path d="M 0.303 38.750 C 0.694 73.872, 1.100 82.734, 2.416 84.864 C 2.656 85.252, 3.581 93.429, 4.472 103.035 C 5.363 112.641, 6.339 121.327, 6.642 122.339 C 6.990 123.505, 6.445 124.700, 5.153 125.605 C 3.513 126.754, 3.279 127.566, 3.952 129.766 C 4.412 131.270, 5.318 135.088, 5.966 138.250 L 7.143 144 99.572 144 L 192 144 192 126.165 C 192 116.355, 192.299 83.955, 192.664 54.165 L 193.327 0 188.550 0 L 183.773 0 184.414 4.278 C 185.490 11.448, 183.370 22.726, 179.436 30.759 C 172.635 44.649, 157.846 55.976, 142.508 59.044 C 127.005 62.144, 109.192 56.329, 97.335 44.295 C 87.682 34.498, 83.028 22.951, 83.011 8.750 L 83 0 41.436 -0 L -0.127 -0 0.303 38.750 M 0.452 37 C 0.452 57.075, 0.585 65.288, 0.749 55.250 C 0.912 45.213, 0.912 28.788, 0.749 18.750 C 0.585 8.713, 0.452 16.925, 0.452 37" stroke="none" fill="black" fill-rule="evenodd"/>
</svg>