<svg xmlns="http://www.w3.org/2000/svg" width="192" height="144" viewBox="0 0 192 144" version="1.1">
	<path d="M 0 33.981 L 0 67.962 4.750 67.368 C 15.011 66.086, 27.874 62.736, 35.500 59.359 C 50.300 52.807, 47.865 52.611, 56.549 61.052 C 60.764 65.148, 67.296 72.163, 71.065 76.641 C 78.894 85.942, 84.306 89.188, 92.986 89.787 L 98.500 90.168 101 85.348 C 104.530 78.542, 108.569 74.252, 114.073 71.463 C 118.038 69.454, 118.733 68.693, 118.258 66.879 C 117.715 64.801, 117.630 64.786, 116.345 66.543 C 115.520 67.671, 115 67.880, 115 67.084 C 115 66.341, 114.359 66.032, 113.500 66.362 C 112.595 66.709, 112 66.367, 112 65.500 C 112 64.629, 111.405 64.291, 110.489 64.643 C 109.377 65.069, 109.153 64.766, 109.640 63.495 C 110.221 61.982, 110.026 61.916, 108.076 62.959 C 105.971 64.086, 105.915 64.028, 107.051 61.905 C 108.025 60.085, 107.978 59.453, 106.807 58.579 C 106.012 57.986, 105.393 56.150, 105.431 54.500 C 105.487 52.069, 105.121 51.545, 103.500 51.737 C 99.863 52.168, 97.358 51.080, 96.215 48.573 C 95.399 46.781, 94.486 46.214, 92.908 46.518 C 91.710 46.748, 90.508 47.158, 90.238 47.429 C 89.606 48.061, 84 45.182, 84 44.224 C 83.999 43.826, 86.312 41.461, 89.138 38.968 L 94.277 34.437 92.576 31.147 C 90.781 27.676, 91.663 25, 94.602 25 C 95.349 25, 96.842 23.270, 97.921 21.155 C 100.367 16.360, 106.026 11.318, 111.858 8.739 C 115.462 7.144, 117.878 6.848, 124.450 7.193 C 134.564 7.724, 140.571 10.419, 145.760 16.755 C 149.437 21.244, 149.500 21.466, 149.501 29.936 C 149.501 38.991, 150.768 42.048, 156.053 45.750 C 158.645 47.565, 157.483 49.338, 154.236 48.523 C 151.260 47.776, 149.686 49.545, 151.052 52.098 C 151.789 53.474, 151.601 53.708, 150.079 53.310 C 148.703 52.951, 148.233 53.316, 148.346 54.658 C 148.449 55.886, 147.884 56.448, 146.652 56.345 C 145.212 56.224, 144.905 56.721, 145.263 58.595 C 145.731 61.041, 143.755 62.031, 142.490 59.984 C 141.468 58.331, 140.143 59.833, 140.711 62.001 C 141.334 64.386, 140.285 64.568, 137.973 62.476 C 137.047 61.638, 135.549 61.236, 134.645 61.583 C 132.858 62.269, 132.388 64, 133.988 64 C 134.532 64, 134.869 64.987, 134.738 66.194 C 134.547 67.954, 135.589 68.917, 140.001 71.058 C 144.920 73.444, 145.818 74.389, 148.495 79.989 L 151.488 86.252 159.494 85.594 C 163.897 85.231, 170.875 84.800, 175 84.635 C 180.536 84.415, 183.678 83.715, 187 81.966 C 189.475 80.662, 191.788 79.670, 192.140 79.761 C 192.492 79.852, 192.848 61.943, 192.931 39.963 L 193.081 0 96.540 0 L 0 0 0 33.981 M 0.449 34.500 C 0.449 53.200, 0.584 60.709, 0.749 51.186 C 0.913 41.663, 0.913 26.363, 0.748 17.186 C 0.583 8.009, 0.449 15.800, 0.449 34.500 M 43.327 61.942 C 40.816 63.473, 40.273 64.358, 40.722 66.188 C 41.034 67.460, 41.615 68.950, 42.014 69.500 C 44.389 72.774, 45.031 77.840, 43.615 82.116 C 42.816 84.527, 41.184 89.875, 39.988 94 C 36.444 106.222, 36.357 106.145, 32.962 87.781 L 30.795 76.061 33.384 71.429 C 35.519 67.608, 35.669 66.913, 34.237 67.464 C 33.281 67.832, 29.575 69.064, 26 70.204 C 22.425 71.343, 19.382 72.369, 19.238 72.483 C 19.094 72.597, 19.933 74.855, 21.103 77.499 L 23.230 82.308 19.440 95.203 C 17.356 102.295, 15.293 108.319, 14.855 108.590 C 13.914 109.171, 13.637 108.052, 11.010 93.092 L 9.006 81.683 11.503 77.216 C 12.876 74.759, 14 72.516, 14 72.232 C 14 71.607, 1.867 72.800, 1.174 73.493 C 0.905 73.761, 0.469 89.735, 0.204 108.991 L -0.277 144 45.823 144 L 91.923 144 93.011 139.750 C 93.610 137.412, 94.766 133.475, 95.581 131 C 96.396 128.525, 97.967 120.882, 99.071 114.016 C 100.847 102.984, 100.906 101.405, 99.583 100.437 C 98.264 99.473, 98.285 99.143, 99.757 97.671 C 101.319 96.110, 101.222 96, 98.275 96 L 95.121 96 96.688 100.598 C 98.295 105.315, 98.239 105.816, 94.964 116 C 94.522 117.375, 93.387 121.088, 92.443 124.250 C 90.637 130.300, 89.319 131.506, 88.619 127.750 C 86.560 116.698, 85 106.945, 85 105.124 C 85 103.912, 85.900 101.156, 87 99 C 88.100 96.844, 89 94.683, 89 94.198 C 89 93.280, 82.399 91, 79.740 91 C 78.467 91, 78.374 91.637, 79.185 94.831 C 80.145 98.611, 79.748 100.480, 73.343 122.351 C 72.397 125.582, 71.086 122.732, 69.484 113.965 C 66.515 97.708, 66.508 95.932, 69.402 91.706 C 70.831 89.619, 72 87.222, 72 86.380 C 72 84.662, 63.987 74, 62.696 74 C 62.239 74, 62.156 75.013, 62.512 76.250 C 62.868 77.487, 63.358 79.223, 63.601 80.106 C 64.017 81.618, 57.629 105.704, 56.517 106.817 C 55.480 107.853, 54.966 106.105, 52.579 93.422 L 50.146 80.500 53.150 75 L 56.153 69.500 51.706 64.750 C 49.260 62.138, 47.088 60.002, 46.879 60.004 C 46.671 60.006, 45.072 60.878, 43.327 61.942 M 182.750 87.287 C 180.137 87.798, 178 88.533, 178 88.920 C 178 89.308, 178.937 91.563, 180.081 93.932 C 182.083 98.075, 182.103 98.504, 180.608 105.124 C 178.281 115.427, 175.951 123, 175.108 123 C 174.695 123, 173.104 117.221, 171.572 110.157 C 168.944 98.040, 168.877 97.138, 170.393 94.206 C 171.277 92.498, 172 90.857, 172 90.562 C 172 89.710, 159.037 90.131, 158.499 91.001 C 158.234 91.431, 158.924 93.835, 160.034 96.345 L 162.052 100.906 159.026 112.561 C 157.362 118.971, 156 124.392, 156 124.608 C 156 124.824, 155.627 125, 155.170 125 C 154.714 125, 153.567 121.400, 152.621 117 C 151.676 112.600, 150.648 109, 150.337 109 C 150.026 109, 150.030 112.263, 150.346 116.250 C 150.662 120.237, 150.939 128.113, 150.961 133.750 L 151 144 171.500 144 L 192 144 191.954 130.250 C 191.914 118.667, 191.463 114.688, 189.092 105 C 186.605 94.843, 186.429 93.123, 187.578 90.272 C 188.294 88.496, 188.569 86.889, 188.190 86.700 C 187.810 86.511, 185.363 86.775, 182.750 87.287 M 150.459 92.067 C 150.096 92.653, 150.040 93.373, 150.333 93.667 C 151.050 94.383, 153 93.121, 153 91.941 C 153 90.663, 151.274 90.748, 150.459 92.067" stroke="none" fill="black" fill-rule="evenodd"/>
</svg>