<svg xmlns="http://www.w3.org/2000/svg" width="192" height="144" viewBox="0 0 192 144" version="1.1">
	<path d="M 48 43.918 C 48 44.973, 47.727 46.548, 47.393 47.418 C 46.951 48.570, 47.394 49, 49.022 49 C 51.140 49, 51.221 49.277, 50.569 54.250 C 49.844 59.778, 48.867 61.764, 44.669 66.250 C 42.817 68.229, 41.121 69, 38.619 69 C 36.707 69, 34.405 69.738, 33.503 70.640 C 31.387 72.756, 28.616 76.983, 29.115 77.335 C 32.315 79.595, 34.771 79.604, 39.217 77.370 C 44.541 74.695, 45.676 74.443, 44.278 76.250 C 42.409 78.665, 42.006 80.935, 43.551 80.342 C 44.348 80.036, 44.990 79.947, 44.978 80.143 C 44.950 80.599, 40.129 99.025, 36.029 114.345 C 32.766 126.538, 32.701 129, 35.643 129 C 37.116 129, 37.052 129.316, 35.174 131.314 C 33.978 132.587, 33 134.162, 33 134.814 C 33 136.320, 37.145 136.347, 40.404 134.862 C 42.461 133.924, 42.954 132.910, 43.201 129.112 C 43.473 124.911, 43.745 124.472, 46.250 124.184 C 48.652 123.907, 49.015 124.224, 49.118 126.684 C 49.184 128.233, 49.122 129.950, 48.982 130.500 C 47.632 135.790, 47.700 136, 50.758 136 C 53.220 136, 53.848 135.513, 54.306 133.250 C 54.612 131.738, 55.837 130.050, 57.028 129.500 C 59.097 128.545, 59.220 127.698, 59.787 110.500 C 60.113 100.600, 60.347 89.037, 60.306 84.804 C 60.239 77.755, 60.407 77.083, 62.306 76.804 C 63.856 76.577, 64.684 75.296, 65.593 71.722 C 66.261 69.093, 67.531 65.838, 68.416 64.488 C 69.927 62.182, 69.903 61.956, 68.012 60.776 C 65.134 58.978, 65.408 55.176, 68.500 54 C 70.871 53.099, 72.181 49, 70.099 49 C 69.603 49, 68.268 47.425, 67.133 45.500 L 65.067 42 56.534 42 C 48.788 42, 48 42.177, 48 43.918" stroke="none" fill="black" fill-rule="evenodd"/>
</svg>