<svg xmlns="http://www.w3.org/2000/svg" width="192" height="144" viewBox="0 0 192 144" version="1.1">
	<path d="M 176 72 L 176 144 184 144 L 192 144 192 72 L 192 0 184 0 L 176 0 176 72 M 94.345 39.456 C 96.583 45.288, 96.483 45.451, 89.934 46.695 C 82.983 48.016, 79.642 50.526, 77.930 55.712 C 75.937 61.752, 79.170 73.502, 84.556 79.794 L 88.045 83.870 97.449 83.819 C 109.071 83.756, 111.663 82.431, 115.495 74.600 C 117.883 69.719, 118.173 68.107, 117.843 61.566 C 117.278 50.366, 113.215 46.005, 103.131 45.776 C 98.441 45.669, 98.240 45.542, 97.385 42.158 C 96.898 40.230, 95.866 38.444, 95.091 38.189 C 94.099 37.864, 93.878 38.240, 94.345 39.456" stroke="none" fill="black" fill-rule="evenodd"/>
</svg>