<svg xmlns="http://www.w3.org/2000/svg" width="192" height="144" viewBox="0 0 192 144" version="1.1">
	<path d="M 64 0.868 C 64 3.426, 69.271 5.509, 71.946 4.008 C 73.228 3.288, 73.792 4.306, 75.168 9.818 C 76.120 13.633, 76.606 18.264, 76.301 20.611 C 75.851 24.068, 76.119 24.970, 77.982 26.275 C 82.254 29.267, 83.334 32.815, 83.587 44.687 C 83.718 50.840, 84.079 56.690, 84.390 57.687 C 85.086 59.924, 84.383 60.980, 80.290 63.838 C 75.095 67.465, 72.921 71.410, 71.784 79.274 C 70.634 87.226, 69.725 89, 66.801 89 C 65.726 89, 63.474 90.372, 61.798 92.048 C 59.132 94.714, 58.817 95.602, 59.290 99.126 C 59.587 101.342, 60.605 104.011, 61.551 105.056 C 63.085 106.752, 63.130 107.475, 61.964 111.729 C 61.245 114.353, 58.221 121.900, 55.243 128.500 C 52.265 135.100, 49.590 141.287, 49.298 142.250 C 48.796 143.904, 52.263 144, 112.440 144 L 176.113 144 174.582 141.250 C 173.077 138.548, 170 122.518, 170 117.382 C 170 115.899, 171.301 113.282, 173 111.347 C 174.650 109.468, 176 107.271, 176 106.465 C 176 104.121, 172.427 101.192, 168.167 100.045 C 163.450 98.775, 163.032 97.649, 163.014 86.151 C 162.997 76.110, 161.305 71.892, 155.844 68.278 C 152.197 65.865, 152 65.465, 152 60.489 C 152 56.445, 152.443 54.930, 153.932 53.872 C 155.633 52.664, 155.761 51.876, 154.999 47.290 C 154.523 44.425, 154.001 39.138, 153.840 35.540 C 153.678 31.943, 153.249 29, 152.886 29 C 152.524 29, 152.019 27.582, 151.765 25.849 C 151.446 23.681, 151.862 22.138, 153.098 20.902 C 156.424 17.576, 158.167 12.826, 158.334 6.637 L 158.500 0.500 111.250 0.240 C 84.221 0.092, 64 0.360, 64 0.868" stroke="none" fill="black" fill-rule="evenodd"/>
</svg>