<svg xmlns="http://www.w3.org/2000/svg" width="192" height="144" viewBox="0 0 192 144" version="1.1">
	<path d="M 114.211 7.187 C 109.768 8.390, 108.384 11.566, 109.850 17.195 C 110.802 20.856, 110.732 21.650, 109.378 22.500 C 104.036 25.855, 98.909 30.412, 97 33.499 C 94.553 37.459, 91.851 48.790, 93.161 49.600 C 93.622 49.885, 94 51.184, 94 52.486 C 94 55.071, 97.869 58.678, 101.662 59.630 C 104.161 60.257, 104.604 62.003, 103.018 64.967 C 102.221 66.455, 102.884 67.720, 106.520 71.651 C 110.065 75.484, 110.918 77.076, 110.590 79.245 C 110.362 80.755, 110.558 82.227, 111.024 82.515 C 111.491 82.803, 111.862 83.818, 111.849 84.770 C 111.837 85.721, 112.134 88.096, 112.511 90.048 C 112.968 92.413, 112.664 94.868, 111.600 97.415 C 110.276 100.584, 109.630 101.136, 107.804 100.659 C 104.667 99.839, 103 101.673, 103 105.948 C 103 108.579, 102.295 110.314, 100.564 111.940 C 98.135 114.221, 98.121 114.222, 95.314 112.302 C 93.766 111.242, 89.805 109.053, 86.511 107.438 C 79.195 103.849, 78.072 102.560, 78.032 97.700 C 78.014 95.611, 77.313 92.573, 76.474 90.950 C 75.100 88.293, 74.462 88, 70.058 88 C 67.081 88, 64.969 87.511, 64.662 86.750 C 64.349 85.973, 64.128 86.133, 64.079 87.172 C 64.033 88.155, 62.589 89.311, 60.580 89.974 C 55.757 91.565, 54.557 93.469, 54.642 99.389 C 54.770 108.236, 59.363 114.210, 67.034 115.506 C 69.220 115.875, 70.764 116.573, 70.465 117.057 C 70.166 117.540, 69.484 122.338, 68.949 127.718 C 68.414 133.098, 67.706 138.963, 67.375 140.750 L 66.773 144 112.887 144 C 138.249 144, 158.984 143.662, 158.965 143.250 C 158.945 142.838, 158.286 141.375, 157.500 140 C 156.714 138.625, 156.055 136.055, 156.035 134.289 C 156.004 131.414, 156.393 130.971, 159.750 130.064 C 161.813 129.507, 164.066 128.140, 164.758 127.026 C 165.895 125.197, 165.775 125, 163.529 125 C 162.160 125, 159.213 125.731, 156.979 126.625 C 154.745 127.519, 152.782 128.082, 152.618 127.875 C 151.849 126.912, 148.082 100.591, 148.640 100.080 C 148.989 99.761, 149.453 99.999, 149.673 100.608 C 149.893 101.218, 150.694 102.567, 151.454 103.607 C 153.034 105.767, 154.623 104.936, 153.330 102.626 C 152.861 101.788, 152.642 99.032, 152.843 96.503 C 153.175 92.329, 153.340 92.070, 154.627 93.702 C 155.896 95.311, 155.981 95.079, 155.435 91.500 C 155.100 89.300, 154.584 86.600, 154.288 85.500 C 153.469 82.449, 154.981 84.370, 157.597 89.707 L 159.947 94.500 159.430 89.500 L 158.913 84.500 160.535 87.338 C 161.427 88.900, 162.323 90.010, 162.527 89.806 C 162.731 89.603, 162.481 81.800, 161.973 72.468 C 161.009 54.795, 159.608 46.953, 155.569 36.629 C 154.250 33.258, 152.877 29.061, 152.517 27.302 C 152.158 25.543, 150.146 22.168, 148.046 19.802 C 144.410 15.705, 143.949 15.494, 138.364 15.364 C 135.139 15.289, 131.999 15.176, 131.388 15.114 C 130.776 15.051, 128.526 13.606, 126.388 11.903 C 120.357 7.098, 117.965 6.171, 114.211 7.187 M 120.015 79.250 C 120.007 80.763, 120.450 82, 121 82 C 122.264 82, 122.264 79.957, 121 78 C 120.245 76.831, 120.027 77.107, 120.015 79.250" stroke="none" fill="black" fill-rule="evenodd"/>
</svg>