<svg xmlns="http://www.w3.org/2000/svg" width="192" height="144" viewBox="0 0 192 144" version="1.1">
	<path d="M 63.364 5.750 C 64.139 12.908, 62.071 23.127, 58.171 31.412 C 50.413 47.892, 32.067 59.374, 13.500 59.368 C 9.100 59.366, 4.263 59.049, 2.750 58.663 L 0 57.962 0 100.990 L 0 144.018 52.727 143.759 L 105.455 143.500 106.540 137 C 107.138 133.425, 109.039 126.225, 110.766 121 C 112.493 115.775, 114.831 106.303, 115.961 99.951 C 118.442 86.016, 117.975 79.869, 114.250 77.428 C 112.112 76.027, 111.837 75.252, 112.287 71.900 C 112.885 67.437, 113.042 67.538, 108.482 69.443 C 105.418 70.723, 104.851 70.708, 103.454 69.311 C 102.478 68.335, 98.955 67.436, 94.190 66.946 C 89.960 66.511, 84.475 65.681, 82 65.102 C 76.098 63.721, 70.675 63.725, 69.287 65.113 C 67.829 66.571, 66 65.385, 66 62.980 C 66 61.604, 67.115 60.777, 70.023 59.994 C 72.236 59.398, 74.491 59.186, 75.036 59.522 C 77.148 60.827, 96.479 61.768, 98.500 60.663 C 99.600 60.063, 100.815 59.555, 101.200 59.535 C 101.585 59.516, 102.415 58.985, 103.044 58.356 C 103.849 57.551, 105.223 57.499, 107.685 58.179 C 112.594 59.534, 118.673 58.357, 119.308 55.929 C 119.627 54.710, 119.303 54, 118.429 54 C 116.712 54, 113.611 49.439, 114.428 48.116 C 114.759 47.581, 114.124 46.857, 113.017 46.505 C 110.524 45.714, 109.392 41.629, 110.806 38.526 C 111.608 36.766, 111.525 35.749, 110.465 34.350 C 109.694 33.332, 109.049 31.655, 109.032 30.621 C 109.003 28.931, 109.527 28.812, 114.250 29.436 C 126.059 30.996, 133.295 35, 134.544 40.665 C 134.888 42.224, 136.236 46.709, 137.541 50.632 C 139.163 55.512, 139.725 58.919, 139.319 61.422 C 138.860 64.248, 139.182 65.581, 140.736 67.289 C 142.200 68.899, 142.653 70.553, 142.405 73.376 C 142.218 75.508, 142.540 78.140, 143.121 79.226 C 144.783 82.331, 146.359 108.918, 145.051 111.788 C 144.129 113.810, 144.634 115.669, 148.324 123.839 C 150.723 129.153, 153.471 135.872, 154.431 138.772 L 156.175 144.044 174.338 143.772 L 192.500 143.500 192.825 129 C 193.003 121.025, 192.837 88.737, 192.455 57.250 L 191.761 0 127.251 -0 L 62.742 -0 63.364 5.750 M 0.459 101 C 0.459 124.925, 0.589 134.713, 0.749 122.750 C 0.908 110.788, 0.908 91.213, 0.749 79.250 C 0.589 67.288, 0.459 77.075, 0.459 101" stroke="none" fill="black" fill-rule="evenodd"/>
</svg>