<svg xmlns="http://www.w3.org/2000/svg" width="192" height="144" viewBox="0 0 192 144" version="1.1">
	<path d="M 0 72 L 0 144 27.174 144 L 54.349 144 52.279 141.750 C 51.140 140.513, 49.257 135.990, 48.094 131.701 C 46.931 127.411, 44.588 121.145, 42.887 117.776 C 39.861 111.782, 39.556 108.717, 41.498 103.813 C 42.003 102.536, 41.150 101.607, 37.988 99.994 C 34.774 98.354, 33.313 96.739, 31.655 92.989 C 30.470 90.309, 28.458 87.548, 27.184 86.854 C 25.910 86.160, 24.617 84.333, 24.309 82.796 C 23.927 80.884, 23.135 80, 21.804 80 C 19.235 80, 16.547 77.222, 16.310 74.323 C 16.151 72.376, 16.596 72, 19.060 72 C 21.646 72, 22 71.646, 22 69.065 C 22 64.626, 20.367 61.212, 16.499 57.564 C 14.574 55.749, 12.943 53.417, 12.872 52.382 C 12.721 50.150, 12.373 47.820, 11.435 42.758 C 10.559 38.032, 12.119 36, 16.622 36 C 18.480 36, 20 35.619, 20 35.153 C 20 33.844, 23.601 30, 24.827 30 C 25.428 30, 26.448 28.237, 27.094 26.082 C 27.747 23.901, 29.034 21.963, 29.996 21.711 C 34.027 20.657, 36.093 4.951, 32.653 1.510 C 31.403 0.260, 30.599 0.144, 29.024 0.987 C 27.615 1.741, 26.412 1.756, 25.066 1.035 C 24.002 0.466, 17.927 -0, 11.566 -0 L 0 0 0 72 M 51.746 4.035 C 52.781 6.670, 53.881 7.980, 54.915 7.810 C 55.787 7.667, 56.954 7.836, 57.508 8.185 C 59.045 9.152, 67.211 9.429, 69.750 8.600 C 70.987 8.196, 72 7.051, 72 6.055 C 72 3.791, 74.389 1.728, 76.502 2.167 C 77.789 2.435, 78.142 4.104, 78.310 10.718 C 78.426 15.238, 78.049 19.580, 77.474 20.367 C 76.899 21.153, 76.599 23.590, 76.808 25.780 C 77.126 29.113, 77.497 29.683, 79.083 29.268 C 80.125 28.996, 80.750 28.405, 80.472 27.955 C 80.195 27.506, 80.380 26.883, 80.883 26.572 C 81.387 26.261, 82.360 23.642, 83.045 20.753 C 83.730 17.864, 85.301 14.286, 86.537 12.802 C 88.750 10.144, 88.810 10.133, 90.542 12.047 C 92.207 13.886, 92.212 14.380, 90.633 21.245 C 88.085 32.325, 87.079 44, 88.671 44 C 90.280 44, 91.263 47.705, 90.829 52.135 C 90.520 55.293, 90.693 55.506, 93.638 55.600 C 95.364 55.655, 97.416 55.946, 98.198 56.246 C 98.980 56.546, 102.093 55.376, 105.115 53.646 C 110.569 50.523, 110.603 50.474, 109.724 47 C 109.237 45.075, 108.678 40.125, 108.483 36 C 108.009 25.983, 107.854 25.467, 104.447 22.539 C 102.826 21.146, 101.500 19.593, 101.500 19.087 C 101.500 18.581, 101.162 17.829, 100.750 17.417 C 100.338 17.004, 100.002 14.829, 100.005 12.583 C 100.009 9.654, 100.734 7.652, 102.572 5.500 L 105.133 2.500 104.515 7 C 104.176 9.475, 103.471 11.928, 102.949 12.450 C 101.465 13.936, 101.836 17, 103.500 17 C 104.466 17, 105.005 16.021, 105.015 14.250 C 105.024 12.738, 105.423 10.880, 105.904 10.122 C 107.023 8.354, 109 9.553, 109 12 C 109 14.278, 110.594 15.466, 111.558 13.906 C 112 13.191, 113.497 14.177, 115.663 16.612 C 118.450 19.745, 119.385 20.250, 120.786 19.380 C 124.290 17.204, 126.498 9.054, 125.291 2.744 L 124.767 0 87.464 0 L 50.161 0 51.746 4.035 M 168 5.014 C 168 10.380, 168.916 12.608, 173.250 17.785 C 174.962 19.830, 176 20.490, 176 19.535 C 176 16.793, 177.995 17.916, 178.158 20.750 C 178.345 23.996, 178.380 23.413, 177.136 37.916 C 176.396 46.546, 175.771 49.549, 174.578 50.216 C 173.710 50.702, 173 51.752, 173 52.550 C 173 54.667, 171.458 54.322, 169.806 51.835 C 168.476 49.832, 168.135 49.773, 165.261 51.045 C 161.986 52.494, 160.672 55.662, 162.207 58.405 C 162.698 59.282, 163.815 60, 164.689 60 C 167.162 60, 168.933 63.110, 168.968 67.510 C 169.005 72.190, 166.852 74.941, 159.581 79.500 L 154.797 82.500 158.145 82.832 C 159.986 83.014, 162.056 83.632, 162.746 84.204 C 164.653 85.787, 164.251 89.122, 162.085 89.688 C 161.032 89.963, 158.901 92.198, 157.349 94.653 C 155.375 97.777, 153.119 99.764, 149.840 101.268 C 145.961 103.047, 145.312 103.715, 146.077 105.143 C 147.609 108.006, 147.128 112.455, 144.674 118.126 C 143.395 121.082, 141.766 126.200, 141.053 129.500 C 140.340 132.800, 139.364 137.075, 138.884 139 C 138.404 140.925, 138.009 142.838, 138.006 143.250 C 138.003 143.662, 150.150 144, 165 144 L 192 144 192 72 L 192 0 180 0 L 168 0 168 5.014 M 14.180 18.250 C 14.356 19.488, 15.175 20.500, 16 20.500 C 16.825 20.500, 17.644 19.488, 17.820 18.250 C 18.065 16.518, 17.646 16, 16 16 C 14.354 16, 13.935 16.518, 14.180 18.250 M 119.321 90.328 C 119.648 92.709, 120.226 99.474, 120.607 105.362 C 121.313 116.289, 122.966 121.002, 123.042 112.309 C 123.066 109.664, 123.646 105.095, 124.333 102.156 C 125.504 97.139, 125.425 96.484, 123.040 91.460 C 121.643 88.516, 120.101 86.083, 119.614 86.054 C 119.127 86.024, 118.995 87.948, 119.321 90.328 M 69 87.808 C 69 88.678, 62.044 92, 60.223 92 C 57.890 92, 58.027 94.084, 60.618 97.999 C 62.491 100.829, 63.492 103.936, 63.905 108.204 C 64.232 111.579, 64.950 114.481, 65.500 114.654 C 68.032 115.448, 69.035 112.845, 70.012 102.947 C 71.541 87.457, 71.540 87, 70 87 C 69.450 87, 69 87.363, 69 87.808" stroke="none" fill="black" fill-rule="evenodd"/>
</svg>