<svg xmlns="http://www.w3.org/2000/svg" width="192" height="144" viewBox="0 0 192 144" version="1.1">
	<path d="M 0 72 L 0 144 25.500 144 C 45.526 144, 51 143.726, 51 142.723 C 51 140.210, 47.931 137.133, 44.247 135.950 C 42.186 135.288, 39.795 134.134, 38.934 133.385 C 38.073 132.637, 36.048 131.757, 34.434 131.432 C 30.479 130.634, 26.620 127.419, 27.649 125.778 C 28.089 125.075, 28.305 123.621, 28.128 122.547 C 27.853 120.884, 28.036 120.785, 29.362 121.885 C 30.690 122.988, 31.013 122.796, 31.570 120.577 C 32.475 116.970, 35.971 114.801, 47 111.004 C 59.174 106.812, 63.939 104.003, 71.162 96.757 L 77.017 90.885 74.377 86.380 L 71.737 81.876 73.344 74.188 C 74.727 67.570, 74.888 64.378, 74.142 58.348 C 74.064 57.714, 72.762 56.790, 71.250 56.293 C 66.997 54.898, 62.009 57.032, 60.096 61.066 C 58.879 63.632, 57.610 64.641, 54.750 65.315 C 52.233 65.908, 51 66.758, 51 67.899 C 51 70.403, 48.975 72, 45.800 72 C 43.978 72, 43 72.524, 43 73.500 C 43 75.917, 38.266 75.345, 36.796 72.750 C 34.668 68.991, 35.093 49.551, 37.436 43.500 C 43.403 28.084, 55.217 16.086, 70.500 9.921 C 75.605 7.861, 78.170 7.500, 87.700 7.500 C 93.870 7.500, 99.324 7.949, 99.845 8.500 C 100.364 9.050, 101.097 10.960, 101.473 12.745 C 102.076 15.607, 101.852 16.106, 99.578 16.970 C 97.495 17.762, 97 18.613, 97 21.398 C 97 24.451, 96.600 24.977, 93.500 26 C 90.781 26.897, 90 27.696, 90 29.578 C 90 30.910, 90.382 32, 90.848 32 C 91.315 32, 92.511 33.808, 93.508 36.017 C 95.066 39.472, 95.133 40.382, 93.991 42.517 C 93.260 43.883, 92.128 45, 91.476 45 C 90.823 45, 89.872 46.462, 89.363 48.250 C 88.649 50.754, 87.812 51.573, 85.718 51.816 C 84.223 51.990, 83 52.286, 83 52.473 C 83 52.659, 86.150 55.853, 90 59.570 C 93.850 63.287, 97.012 66.817, 97.028 67.414 C 97.043 68.011, 98.703 69.625, 100.717 71 C 102.731 72.375, 106.114 75.228, 108.234 77.340 C 110.522 79.617, 112.682 80.952, 113.545 80.621 C 115.458 79.887, 115.423 75.100, 113.500 74.362 C 111.946 73.765, 111.380 71, 112.811 71 C 114.202 71, 118 75.007, 118 76.474 C 118 79.297, 116.063 82.843, 114.307 83.235 C 113.313 83.457, 111.443 83.264, 110.150 82.806 C 108.306 82.153, 106.920 82.621, 103.703 84.987 C 101.450 86.644, 98.733 88, 97.667 88 C 95.927 88, 95.797 88.488, 96.394 92.750 C 96.760 95.362, 97.284 103.350, 97.558 110.500 C 97.832 117.650, 98.580 128.117, 99.220 133.760 L 100.383 144.020 146.442 143.760 L 192.500 143.500 192.757 71.750 L 193.013 0 96.507 0 L 0 0 0 72 M 0.474 72.500 C 0.474 112.100, 0.598 128.154, 0.750 108.176 C 0.901 88.198, 0.901 55.798, 0.750 36.176 C 0.598 16.554, 0.474 32.900, 0.474 72.500 M 115 10 C 113.718 10.828, 113.754 10.972, 115.250 10.985 C 116.213 10.993, 117 10.550, 117 10 C 117 8.780, 116.887 8.780, 115 10 M 136.694 9.639 C 135.895 10.438, 136.798 12, 138.059 12 C 138.577 12, 139 11.325, 139 10.500 C 139 8.954, 137.820 8.513, 136.694 9.639 M 17.496 24.007 C 17.153 24.561, 17.596 25.292, 18.480 25.631 C 20.394 26.365, 21.461 25.556, 20.541 24.067 C 19.711 22.723, 18.306 22.696, 17.496 24.007 M 144.031 24.500 C 144.031 25.600, 144.467 27.175, 145 28 C 145.803 29.242, 145.969 29.156, 145.969 27.500 C 145.969 26.400, 145.533 24.825, 145 24 C 144.197 22.758, 144.031 22.844, 144.031 24.500 M 190 32.382 C 190 33.207, 190.450 34.160, 191 34.500 C 191.550 34.840, 192 34.443, 192 33.618 C 192 32.793, 191.550 31.840, 191 31.500 C 190.450 31.160, 190 31.557, 190 32.382 M 106 42.500 C 106 43.325, 106.450 44, 107 44 C 107.550 44, 108 43.325, 108 42.500 C 108 41.675, 107.550 41, 107 41 C 106.450 41, 106 41.675, 106 42.500 M 135.459 50.067 C 135.096 50.653, 135.014 51.348, 135.276 51.610 C 135.538 51.872, 136.019 51.392, 136.345 50.543 C 137.021 48.781, 136.445 48.471, 135.459 50.067 M 112 67 C 112 67.550, 112.702 68, 113.559 68 C 114.416 68, 114.840 67.550, 114.500 67 C 114.160 66.450, 113.459 66, 112.941 66 C 112.423 66, 112 66.450, 112 67 M 188 72.059 C 188 73.191, 188.450 73.840, 189 73.500 C 189.550 73.160, 190 72.234, 190 71.441 C 190 70.648, 189.550 70, 189 70 C 188.450 70, 188 70.927, 188 72.059 M 96.777 71.588 C 95.930 73.015, 94.782 79, 95.355 79 C 96.897 79, 101 76.918, 101 76.136 C 101 74.562, 97.347 70.628, 96.777 71.588 M 13 85.893 C 13 87.002, 16.076 88.257, 16.864 87.469 C 17.182 87.151, 16.780 86.473, 15.971 85.961 C 14.101 84.778, 13 84.753, 13 85.893 M 174 109.772 C 174 111.207, 177.929 114.404, 178.721 113.613 C 179.110 113.223, 178.947 112.138, 178.357 111.202 C 177.186 109.342, 174 108.296, 174 109.772 M 188.500 119 C 188.840 119.550, 189.568 120, 190.118 120 C 190.668 120, 190.840 119.550, 190.500 119 C 190.160 118.450, 189.432 118, 188.882 118 C 188.332 118, 188.160 118.450, 188.500 119 M 110.244 120.250 C 110.470 120.938, 111.944 121.651, 113.520 121.835 C 116.037 122.129, 116.226 121.977, 115.071 120.585 C 113.508 118.702, 109.648 118.434, 110.244 120.250 M 24.904 137.615 C 23.744 139.013, 23.818 139.181, 25.449 138.865 C 26.486 138.664, 27.522 137.938, 27.750 137.250 C 28.344 135.466, 26.490 135.704, 24.904 137.615 M 125.675 137.658 C 124.662 138.671, 127.023 141, 129.063 141 C 131.743 141, 132.351 139.258, 130.094 138.050 C 127.829 136.838, 126.604 136.729, 125.675 137.658" stroke="none" fill="black" fill-rule="evenodd"/>
</svg>