<svg xmlns="http://www.w3.org/2000/svg" width="192" height="144" viewBox="0 0 192 144" version="1.1">
	<path d="M 77.750 18.790 C 76.787 18.986, 75.948 19.676, 75.885 20.323 C 75.821 20.970, 75.709 22.155, 75.635 22.956 C 75.561 23.757, 74.005 24.720, 72.178 25.095 C 68.416 25.867, 65 29.027, 65 31.736 C 65 32.736, 65.690 34.540, 66.534 35.744 C 67.377 36.949, 68.059 39.411, 68.049 41.217 C 68.039 43.023, 68.077 46.189, 68.133 48.253 C 68.195 50.537, 67.155 54.141, 65.476 57.461 L 62.716 62.916 65.108 68.551 C 66.581 72.021, 68.414 74.619, 69.880 75.313 C 72.583 76.592, 76 83.722, 76 88.083 C 76 89.687, 76.450 91, 77 91 C 78.686 91, 78.119 93.546, 75.608 97.246 C 74.292 99.185, 71.523 104.536, 69.455 109.136 C 65.508 117.916, 59.606 127.442, 54.980 132.500 C 53.471 134.150, 51.053 137.412, 49.606 139.750 L 46.975 144 74.879 144 L 102.783 144 103.478 141.250 C 104.267 138.129, 104.243 116.310, 103.444 111 C 103.155 109.075, 102.178 104.873, 101.274 101.661 C 99.951 96.965, 99.869 95.440, 100.852 93.865 C 102.172 91.752, 101.596 78.886, 99.949 73.684 L 99.058 70.868 107.055 71.565 C 113.953 72.167, 115.323 72.017, 117.026 70.476 C 118.112 69.494, 118.999 68.197, 118.998 67.595 C 118.997 66.993, 117.219 63.049, 115.047 58.832 C 110.772 50.528, 110.876 49.787, 116.506 48.449 C 123.815 46.712, 126.573 38.541, 121.869 32.560 C 118.356 28.095, 115.646 27.639, 109.906 30.548 C 107.156 31.941, 104.589 33.851, 104.203 34.791 C 103.705 36.002, 102.262 36.525, 99.250 36.586 C 94.782 36.677, 94.224 35.841, 95.900 31.561 C 97.385 27.767, 93.036 22.282, 89.590 23.604 C 88.113 24.170, 83.145 21.976, 80.845 19.740 C 80.105 19.021, 78.713 18.594, 77.750 18.790 M 188.559 22.532 C 187.491 23.339, 185.593 24, 184.340 24 C 182.727 24, 182.231 24.437, 182.638 25.500 C 182.955 26.325, 182.716 27, 182.107 27 C 180.195 27, 180.892 29.113, 183.955 32.601 C 186.622 35.639, 186.853 36.445, 186.327 40.887 C 185.496 47.901, 186.669 54.063, 189.490 57.517 L 191.928 60.500 191.964 40.750 C 191.984 29.887, 191.662 21.014, 191.250 21.032 C 190.838 21.049, 189.626 21.724, 188.559 22.532 M 138 58.666 C 132.142 59.589, 131.066 60.162, 129.573 63.154 C 128.708 64.888, 128 66.655, 128 67.080 C 128 68.260, 134.011 71, 136.597 71 C 138.073 71, 140.062 72.456, 142.194 75.098 C 151.839 87.053, 150.753 86.297, 157.459 85.726 C 160.782 85.443, 165.750 84.226, 168.500 83.022 C 171.386 81.758, 175.826 80.770, 179 80.685 L 184.500 80.539 185.159 91.142 C 185.566 97.696, 186.425 102.921, 187.409 104.823 C 189.572 109.006, 189.458 109.687, 185.981 113.373 C 184.320 115.134, 181.665 119.316, 180.080 122.667 C 178.495 126.018, 176.751 129.036, 176.203 129.375 C 175.655 129.713, 174.255 131.817, 173.091 134.051 C 171.926 136.284, 170.080 139.071, 168.987 140.244 C 167.894 141.417, 167 142.742, 167 143.189 C 167 143.635, 172.625 144, 179.500 144 L 192 144 192 102.385 L 192 60.770 186.750 61.392 C 177.915 62.439, 158.731 63.983, 154.500 63.987 C 151.432 63.990, 149.756 63.293, 147.304 60.995 C 144.197 58.083, 143.234 57.842, 138 58.666 M 160.269 66.693 C 161.242 66.947, 162.592 66.930, 163.269 66.656 C 163.946 66.382, 163.150 66.175, 161.500 66.195 C 159.850 66.215, 159.296 66.439, 160.269 66.693 M 154.772 68.685 C 153.175 69.104, 153.165 69.322, 154.637 71.569 C 155.513 72.906, 156.727 74, 157.335 74 C 159.034 74, 167.962 69.598, 167.982 68.750 C 168.001 67.960, 157.729 67.910, 154.772 68.685" stroke="none" fill="black" fill-rule="evenodd"/>
</svg>