<svg xmlns="http://www.w3.org/2000/svg" width="192" height="144" viewBox="0 0 192 144" version="1.1">
	<path d="M -0 72.005 L -0 144.010 96.250 143.755 L 192.500 143.500 192.757 71.750 L 193.013 0 146.654 0 L 100.294 0 99.677 9.250 C 99.036 18.853, 96.833 29.156, 95.783 27.459 C 94.515 25.407, 92 10.836, 92 5.542 L 92 0 46 0 L 0 0 -0 72.005 M 0.474 72.500 C 0.474 112.100, 0.598 128.154, 0.750 108.176 C 0.901 88.198, 0.901 55.798, 0.750 36.176 C 0.598 16.554, 0.474 32.900, 0.474 72.500 M 99.027 37.798 C 99.012 39.062, 97.849 41.162, 96.442 42.466 C 95.035 43.770, 93.449 46.412, 92.917 48.338 C 92.201 50.931, 90.818 52.503, 87.581 54.400 C 85.177 55.808, 82.038 58.354, 80.605 60.057 C 78.014 63.137, 77.189 66, 78.893 66 C 80.438 66, 81.128 69.297, 79.784 70.257 C 78.946 70.855, 79.369 70.942, 81 70.506 C 86.887 68.934, 87.916 68.853, 89.653 69.825 C 91.407 70.807, 91.958 73.510, 92.235 82.500 C 92.402 87.920, 89.900 101.159, 87.397 108.098 C 84.419 116.354, 84.875 120, 88.886 120 C 90.354 120, 92.557 120.702, 93.781 121.559 C 95.628 122.853, 95.820 123.468, 94.911 125.167 C 93.389 128.010, 94.927 129.203, 99.618 128.818 C 103.147 128.529, 103.475 128.260, 103.230 125.863 C 103.023 123.840, 103.488 123.093, 105.230 122.652 C 106.478 122.336, 109.412 120.835, 111.750 119.315 C 117.272 115.726, 117.298 113.098, 111.909 103.335 C 109.326 98.656, 108.132 95.477, 108.669 94.712 C 109.808 93.090, 109.210 75.500, 108.016 75.500 C 107.933 75.500, 107.668 73.985, 107.428 72.133 C 107.024 69.020, 107.175 68.800, 109.420 69.229 C 111.021 69.535, 112.777 68.896, 114.573 67.353 C 117.203 65.093, 122.734 63.017, 126.156 63.006 C 127.335 63.002, 127.658 62.407, 127.274 60.941 C 126.879 59.428, 127.301 58.734, 128.868 58.324 C 130.041 58.018, 131 57.374, 131 56.894 C 131 55.087, 120.354 49.059, 116 48.400 C 112.584 47.883, 110.820 46.910, 108.677 44.359 C 107.125 42.512, 105.091 41, 104.159 41 C 103.226 41, 101.696 39.763, 100.758 38.250 C 99.107 35.587, 99.052 35.572, 99.027 37.798 M 98 123.500 C 98 124.325, 98.450 125, 99 125 C 99.550 125, 100 124.325, 100 123.500 C 100 122.675, 99.550 122, 99 122 C 98.450 122, 98 122.675, 98 123.500" stroke="none" fill="black" fill-rule="evenodd"/>
</svg>