<svg xmlns="http://www.w3.org/2000/svg" width="192" height="144" viewBox="0 0 192 144" version="1.1">
	<path d="M 0 72 L 0 144 36.250 143.980 L 72.500 143.960 75.792 131.230 C 77.603 124.228, 79.346 117.469, 79.667 116.208 C 79.987 114.948, 79.855 113.989, 79.375 114.077 C 78.894 114.165, 77.880 114.184, 77.122 114.118 C 75.250 113.958, 76.171 108.575, 80.529 94.198 C 82.413 87.982, 84.104 81.441, 84.286 79.661 C 84.469 77.882, 84.923 75.933, 85.296 75.329 C 86.494 73.391, 86.570 61.973, 85.390 61.214 C 83.754 60.162, 81 54.413, 81 52.050 C 81 50.283, 81.656 49.988, 85.750 49.915 C 88.362 49.868, 94.853 49.630, 100.174 49.387 C 105.530 49.141, 110.101 49.355, 110.417 49.865 C 111.130 51.019, 108.309 59.191, 106.895 60.065 C 105.236 61.090, 105.525 73.835, 107.381 81.500 C 108.313 85.350, 110.162 92.100, 111.490 96.500 C 112.817 100.900, 114.201 106.370, 114.564 108.655 C 115.131 112.219, 114.930 112.967, 113.144 113.923 C 111.355 114.880, 111.211 115.419, 112.118 117.768 C 114.154 123.044, 118.919 142.322, 118.396 143.169 C 118.105 143.639, 134.659 143.906, 155.183 143.762 L 192.500 143.500 192.757 71.750 L 193.013 0 96.507 0 L 0 0 0 72 M 0.474 72.500 C 0.474 112.100, 0.598 128.154, 0.750 108.176 C 0.901 88.198, 0.901 55.798, 0.750 36.176 C 0.598 16.554, 0.474 32.900, 0.474 72.500" stroke="none" fill="black" fill-rule="evenodd"/>
</svg>