<svg xmlns="http://www.w3.org/2000/svg" width="192" height="144" viewBox="0 0 192 144" version="1.1">
	<path d="M 110.362 14.500 C 110.033 15.356, 108.541 16, 106.885 16 C 104.233 16, 104.091 16.173, 105.232 18 C 106.211 19.567, 106.220 20.417, 105.277 21.929 C 104.336 23.435, 104.338 23.960, 105.286 24.325 C 106.885 24.941, 103.408 27.610, 95.666 31.709 C 91.203 34.071, 89.266 34.636, 88.319 33.850 C 87.345 33.042, 86.786 33.432, 86.017 35.456 C 84.705 38.905, 84.611 38.424, 87.489 42.983 C 89.459 46.104, 89.784 47.438, 89.046 49.379 C 88.533 50.729, 88.131 54.081, 88.152 56.828 C 88.173 59.576, 87.911 62.704, 87.570 63.780 C 87.160 65.071, 87.789 66.716, 89.418 68.618 C 90.776 70.203, 92.700 72.533, 93.693 73.795 C 94.687 75.058, 96.463 76.162, 97.639 76.250 C 99.639 76.399, 99.680 76.559, 98.266 78.716 C 97.435 79.985, 95.572 81.260, 94.127 81.549 C 88.296 82.714, 86.488 83.622, 86.213 85.523 C 86.055 86.614, 84.592 88.271, 82.963 89.207 C 81.333 90.142, 79.984 91.490, 79.964 92.203 C 79.920 93.745, 73.255 99, 71.342 99 C 70.607 99, 68.317 97.492, 66.253 95.648 C 62.406 92.213, 57.544 90.311, 56.584 91.865 C 56.287 92.344, 53.304 93.047, 49.955 93.426 C 41.961 94.330, 41.448 94.576, 39.046 98.646 C 36.904 102.277, 36.360 106.486, 37.910 107.444 C 39.393 108.361, 41.765 107.005, 42.308 104.931 C 42.716 103.369, 43.710 103, 47.502 103 C 50.081 103, 53.386 103.612, 54.846 104.360 C 62.358 108.210, 69.285 110.997, 71.272 110.969 C 72.497 110.952, 75.299 109.833, 77.498 108.482 L 81.495 106.027 83.191 114.642 C 85.038 124.024, 84.489 126, 80.040 126 C 78.883 126, 77.667 126.705, 77.336 127.566 C 76.831 128.883, 74.881 129.096, 65.118 128.903 C 54.959 128.702, 51.499 128.130, 37.563 124.343 C 22.546 120.262, 20.052 119.127, 20.015 116.357 C 19.992 114.630, 17.475 113.999, 10.668 114.014 C -0.661 114.039, -0 113.072, -0 129.617 L 0 144 60.622 144 L 121.244 144 119.607 141.750 C 116.028 136.832, 115.460 134.882, 117.303 133.850 C 120.582 132.015, 122.954 125.457, 123.646 116.310 C 124.018 111.383, 124.955 106.508, 125.771 105.250 C 126.837 103.607, 127.052 101.569, 126.568 97.697 C 125.997 93.126, 126.188 92.140, 127.953 90.543 C 129.079 89.524, 130 88.304, 130 87.832 C 130 87.360, 127.544 85.811, 124.542 84.390 C 119.086 81.806, 115.614 79, 117.875 79 C 120.208 79, 126.700 71.939, 128.007 67.979 C 129.324 63.990, 128.632 55.477, 126.623 50.940 C 126.205 49.996, 126.933 47.905, 128.466 45.645 C 130.943 41.995, 131.966 37.285, 130.021 38.487 C 129.482 38.820, 128.101 38.589, 126.951 37.974 C 124.616 36.724, 114.054 25.922, 114.021 24.750 C 113.972 22.994, 116.496 24.246, 119.565 27.500 C 121.380 29.425, 123.066 31, 123.312 31 C 123.557 31, 124.317 29.650, 125 27.999 C 126.598 24.142, 125.416 22.621, 118.284 19.359 C 114.511 17.632, 113 16.378, 113 14.971 C 113 12.656, 111.193 12.333, 110.362 14.500 M 190.638 142.500 C 190.322 143.325, 190.499 144, 191.031 144 C 191.564 144, 192 143.325, 192 142.500 C 192 141.675, 191.823 141, 191.607 141 C 191.391 141, 190.955 141.675, 190.638 142.500" stroke="none" fill="black" fill-rule="evenodd"/>
</svg>