<svg xmlns="http://www.w3.org/2000/svg" width="192" height="144" viewBox="0 0 192 144" version="1.1">
	<path d="M 0 14 C 0 22.667, 0.381 28, 1 28 C 1.550 28, 2.010 27.663, 2.022 27.250 C 2.034 26.837, 4.058 25.150, 6.520 23.500 C 8.982 21.850, 10.997 20.236, 10.998 19.913 C 10.999 19.590, 12.687 17.476, 14.750 15.215 C 16.813 12.954, 19.056 10.432, 19.735 9.610 C 20.415 8.788, 21.540 7.748, 22.235 7.298 C 22.931 6.849, 24.822 5.023, 26.437 3.240 L 29.374 0 14.687 0 L 0 0 0 14 M 128.277 6.775 C 131.975 10.501, 135 14.101, 135 14.775 C 135 15.449, 135.385 16, 135.855 16 C 137.232 16, 144.847 32.041, 146.062 37.500 C 146.674 40.250, 147.585 43.882, 148.087 45.571 C 148.589 47.260, 149 52.296, 149 56.762 C 149 64.535, 150.213 67.892, 151.985 65.025 C 152.559 64.095, 153.256 64.066, 154.830 64.909 C 157.410 66.290, 158.681 72.209, 157.129 75.615 C 155.703 78.746, 147.091 88, 145.604 88 C 144.986 88, 143.859 89.013, 143.100 90.250 C 138.796 97.260, 123.120 114.301, 118.635 116.846 C 116.361 118.136, 113.350 120.273, 111.945 121.596 C 110.540 122.918, 108.808 124, 108.096 124 C 107.385 124, 105.384 124.627, 103.651 125.394 C 95.995 128.782, 90.100 129.876, 78.500 130.063 C 66.342 130.258, 58.137 129.558, 54.500 128.014 C 52.399 127.122, 47.355 125.389, 42.800 123.995 C 40.337 123.241, 40 123.468, 38.972 126.584 C 37.909 129.805, 38.028 130.155, 41.076 132.749 C 42.852 134.262, 44.800 135.838, 45.403 136.250 C 47.135 137.434, 44.052 138.912, 40.728 138.491 C 35.804 137.868, 33.270 135.440, 31.621 129.769 C 30.776 126.860, 29.952 122.526, 29.792 120.139 C 29.547 116.497, 28.647 114.853, 24.205 109.941 C 17.433 102.453, 8 88.225, 8 85.499 C 8 84.345, 7.601 82.973, 7.113 82.450 C 5.870 81.119, 3.010 69.074, 2.953 64.936 C 2.928 63.046, 2.306 58.575, 1.573 55 C 0.383 49.203, 0.226 53.667, 0.119 96.255 L 0 144.010 96.250 143.755 L 192.500 143.500 192.819 120 C 192.995 107.075, 192.829 74.788, 192.451 48.250 L 191.763 0 156.658 -0 L 121.554 -0 128.277 6.775 M 0.462 96.500 C 0.463 122.900, 0.592 133.556, 0.749 120.181 C 0.907 106.805, 0.907 85.205, 0.749 72.181 C 0.591 59.156, 0.462 70.100, 0.462 96.500" stroke="none" fill="black" fill-rule="evenodd"/>
</svg>