<svg xmlns="http://www.w3.org/2000/svg" width="192" height="144" viewBox="0 0 192 144" version="1.1">
	<path d="M 63.755 4.805 C 65.435 22.287, 53.628 44.814, 38.750 52.514 C 36.688 53.581, 35 54.751, 35 55.114 C 35 55.476, 33.763 56.010, 32.250 56.301 C 30.738 56.591, 26.125 57.589, 22 58.519 C 14.802 60.142, 5.855 60.127, 1.750 58.486 C 0.100 57.826, 0 60.239, 0 100.893 L 0 144 60.500 144 C 93.775 144, 121 143.876, 121 143.724 C 121 140.134, 123.519 125.858, 125.010 121 C 128.068 111.031, 131.482 91.182, 131.268 84.605 C 131.122 80.116, 130.561 78.162, 128.916 76.411 C 126.603 73.948, 126.829 70.026, 129.460 67 C 130.177 66.175, 131.095 64.375, 131.500 63 C 131.905 61.625, 132.891 59.753, 133.691 58.841 C 134.991 57.358, 134.770 56.839, 131.614 53.967 C 129.672 52.200, 128.176 50.358, 128.291 49.875 C 128.406 49.392, 127.375 48.420, 126 47.715 C 123.976 46.677, 123.492 45.670, 123.460 42.426 C 123.432 39.664, 122.733 37.733, 121.210 36.210 C 116.927 31.927, 117.458 31.693, 130.955 31.916 C 141.732 32.093, 144.465 33.581, 148.623 41.530 C 150.340 44.813, 152.703 49.283, 153.873 51.461 C 155.043 53.640, 156 56.623, 156 58.091 C 156 59.558, 157.144 63.257, 158.542 66.311 C 160.905 71.473, 161.062 72.743, 160.774 84.370 C 160.501 95.382, 160.215 97.153, 158.381 99.188 C 157.235 100.460, 156.006 102.324, 155.649 103.331 C 154.822 105.667, 158.690 115.361, 164.974 126.701 C 167.657 131.540, 170.615 137.428, 171.548 139.785 L 173.245 144.069 182.872 143.785 L 192.500 143.500 192.825 129 C 193.003 121.025, 192.837 88.737, 192.455 57.250 L 191.761 0 127.527 -0 L 63.294 -0 63.755 4.805 M 0.459 101 C 0.459 124.925, 0.589 134.713, 0.749 122.750 C 0.908 110.788, 0.908 91.213, 0.749 79.250 C 0.589 67.288, 0.459 77.075, 0.459 101 M 147.015 83.191 C 147.032 89.142, 148.415 92.687, 149.558 89.710 C 150.394 87.530, 149.204 79.244, 147.942 78.464 C 147.397 78.127, 147.006 80.120, 147.015 83.191" stroke="none" fill="black" fill-rule="evenodd"/>
</svg>