<svg xmlns="http://www.w3.org/2000/svg" width="192" height="144" viewBox="0 0 192 144" version="1.1">
	<path d="M 63.755 4.805 C 65.054 18.318, 58.343 35.765, 48.255 45.103 C 45.048 48.071, 40.191 51.625, 37.462 53 C 34.733 54.375, 32.275 55.783, 32 56.129 C 31.725 56.475, 27.533 57.541, 22.683 58.500 C 14.372 60.142, 7.692 60.128, 2.250 58.457 L 0 57.767 0 100.883 L 0 144 55.531 144 C 99.113 144, 111.134 143.731, 111.395 142.750 C 111.578 142.063, 112.233 139.378, 112.851 136.783 C 113.469 134.189, 116.444 127.646, 119.462 122.242 C 125.552 111.340, 133 92.352, 133 87.731 C 133 84.822, 132.900 84.760, 129.117 85.365 C 126.559 85.774, 124.884 85.562, 124.209 84.743 C 123.171 83.483, 123.226 77.441, 124.285 76.382 C 124.602 76.064, 124.615 75.161, 124.314 74.375 C 123.815 73.075, 127.092 67.276, 130.927 62.673 C 131.999 61.387, 132.521 58.130, 132.692 51.673 C 133.106 35.985, 133.400 33.916, 135.366 32.815 C 138.357 31.141, 152.155 30.703, 154.902 32.195 C 158.985 34.413, 159.735 36.582, 157.326 39.205 C 155.831 40.834, 155.356 42.375, 155.689 44.513 C 156.046 46.811, 155.427 48.446, 153.079 51.401 C 151.385 53.532, 149.993 56.001, 149.985 56.888 C 149.972 58.174, 149.795 58.225, 149.110 57.143 C 148.472 56.137, 148.063 56.090, 147.525 56.960 C 147.126 57.605, 146.957 58.216, 147.150 58.317 C 147.342 58.417, 148.806 59.175, 150.401 60 C 151.997 60.825, 153.614 62.175, 153.994 63 C 154.375 63.825, 155.769 66.737, 157.093 69.472 C 158.417 72.207, 159.337 74.907, 159.139 75.472 C 158.940 76.037, 158.577 78.750, 158.332 81.500 C 157.996 85.274, 157.249 87.073, 155.287 88.837 L 152.686 91.174 154.973 95.837 C 156.433 98.814, 157.739 104.350, 158.587 111.149 C 159.318 117.006, 161.110 126.806, 162.571 132.926 L 165.226 144.055 178.863 143.777 L 192.500 143.500 192.825 129 C 193.003 121.025, 192.837 88.737, 192.455 57.250 L 191.761 0 127.527 -0 L 63.294 -0 63.755 4.805 M 0.459 101 C 0.459 124.925, 0.589 134.713, 0.749 122.750 C 0.908 110.788, 0.908 91.213, 0.749 79.250 C 0.589 67.288, 0.459 77.075, 0.459 101" stroke="none" fill="black" fill-rule="evenodd"/>
</svg>