<svg xmlns="http://www.w3.org/2000/svg" width="192" height="144" viewBox="0 0 192 144" version="1.1">
	<path d="M 0 40 C 0 62, 0.382 80, 0.849 80 C 2.165 80, 17.226 68.524, 19.743 65.603 C 20.977 64.171, 22.384 63, 22.869 63 C 24.136 63, 34.170 67.435, 43.664 72.191 C 51.644 76.189, 51.995 76.266, 59.164 75.615 C 63.199 75.248, 66.958 74.885, 67.518 74.807 C 68.078 74.730, 69.728 74.966, 71.184 75.331 C 73.517 75.917, 74.272 75.397, 77.529 70.961 C 79.561 68.192, 82.944 65.049, 85.044 63.977 C 90.037 61.431, 90.526 60.452, 88.417 57.232 L 86.661 54.553 85.406 58.026 C 84.717 59.937, 84.118 60.713, 84.076 59.750 C 84.034 58.788, 83.438 58.113, 82.750 58.250 C 82.034 58.393, 81.359 57.260, 81.169 55.597 C 80.895 53.195, 78 48.509, 78 50.468 C 78 50.804, 77.373 50.499, 76.607 49.789 C 75.671 48.924, 75.507 47.947, 76.107 46.816 C 77.379 44.417, 77.361 44.400, 73.533 44.400 C 68.605 44.400, 68.314 43.545, 71.867 39.499 C 75.264 35.630, 75.251 35.673, 75.022 28.879 C 74.826 23.104, 77.026 17.684, 80.484 15.419 C 83.314 13.564, 98.020 12.472, 105.187 13.583 C 108.852 14.151, 112.759 16.960, 114.695 20.419 C 115.512 21.880, 116.097 22.018, 117.739 21.140 C 119.412 20.244, 120.483 20.567, 123.789 22.962 C 127.116 25.372, 127.995 26.750, 128.901 30.975 C 129.814 35.233, 129.734 36.476, 128.418 38.485 C 126.978 40.682, 126.984 41.540, 128.476 48.249 C 130.021 55.191, 130.011 55.905, 128.306 60.967 C 127.313 63.917, 125.760 66.786, 124.856 67.343 C 120.590 69.972, 116.377 58.180, 117.520 46.806 C 117.928 42.736, 117.825 40, 117.262 40 C 115.795 40, 114.123 44.464, 114.992 46.064 C 116.152 48.202, 114.384 52.085, 112.568 51.388 C 111.534 50.991, 110.519 51.941, 109.344 54.404 C 108.401 56.382, 107.263 58, 106.815 58 C 106.367 58, 105.963 58.788, 105.919 59.750 C 105.866 60.893, 105.390 60.486, 104.547 58.575 C 103.289 55.723, 103.229 55.703, 102.129 57.760 C 101.508 58.920, 101 60.097, 101 60.376 C 101 60.655, 103.599 62.268, 106.776 63.961 C 110.601 66, 113.363 68.351, 114.951 70.920 C 117.240 74.625, 117.599 74.808, 122.924 74.980 C 140.463 75.545, 138.466 75.964, 152.818 68.721 C 160.143 65.024, 166.452 62, 166.838 62 C 167.225 62, 170.214 64.448, 173.480 67.440 C 179.823 73.250, 190.771 80.260, 192.160 79.401 C 192.622 79.116, 193 61.134, 193 39.441 L 193 0 96.500 0 L 0 0 0 40 M 0.456 40.500 C 0.456 62.500, 0.588 71.358, 0.749 60.183 C 0.910 49.009, 0.910 31.009, 0.749 20.183 C 0.587 9.358, 0.455 18.500, 0.456 40.500 M 162.856 68.328 L 159.213 70.546 161.606 73.329 C 163.745 75.816, 164 77.063, 164 85.056 C 164 89.975, 163.818 94, 163.595 94 C 163.201 94, 160.498 89.559, 156.035 81.579 C 154.407 78.669, 154.007 76.774, 154.484 74.232 L 155.127 70.806 150.064 73.562 C 147.279 75.078, 145 76.712, 145 77.194 C 145 77.676, 145.732 79.188, 146.627 80.554 C 147.917 82.522, 148.108 84.328, 147.551 89.268 C 146.592 97.755, 145.888 101, 145.005 101 C 143.446 101, 138.794 85.659, 139.337 82.311 L 139.874 79 135.161 79 L 130.447 79 130.813 82.840 C 131.107 85.923, 130.445 87.847, 127.455 92.590 C 125.406 95.841, 122.844 99.479, 121.760 100.676 C 119.889 102.743, 119.868 103.093, 121.347 107.676 C 122.204 110.329, 124.070 118.575, 125.494 126 C 126.918 133.425, 128.300 140.519, 128.564 141.764 L 129.045 144.028 160.773 143.764 L 192.500 143.500 192.584 116 C 192.630 100.875, 192.488 90.478, 192.269 92.895 L 191.871 97.290 187.435 92.937 C 183.588 89.161, 183 88.029, 183 84.399 C 183 80.480, 181.917 79, 179.049 79 C 178.617 79, 178.871 81.588, 179.616 84.750 C 182.224 95.835, 181.221 96.585, 174.870 88.296 C 168.334 79.766, 168.168 79.350, 169.254 74.259 C 170.074 70.413, 169.945 69.504, 168.356 67.939 C 166.557 66.167, 166.387 66.179, 162.856 68.328 M 21.200 69.200 C 19.610 70.790, 19.731 73.060, 21.532 75.441 C 22.339 76.509, 23 78.186, 23 79.169 C 23 81.242, 17.904 92, 16.922 92 C 16.262 92, 13.501 80.174, 13.828 78.750 C 14.115 77.500, 12.957 77.894, 9.856 80.102 C 7.049 82.101, 6.980 82.321, 8.452 84.567 C 10.526 87.732, 10.428 88.739, 7.444 94.924 C 4.717 100.577, 4.165 100.658, 2.326 95.678 C 1.373 93.097, 1.138 97.338, 1.076 118.250 L 1 144 35.391 144 L 69.783 144 71.329 140.137 C 72.179 138.012, 73.612 133.426, 74.514 129.947 C 75.415 126.467, 76.966 122.018, 77.959 120.060 C 79.920 116.194, 81.733 100.571, 80.322 99.699 C 79.846 99.405, 78.631 101.159, 77.622 103.598 C 76.053 107.392, 74.367 108.979, 65.950 114.582 C 55.920 121.259, 43.023 127.018, 38.186 126.978 C 35.166 126.953, 27 123.532, 27 122.292 C 27 121.848, 28.946 121.640, 31.325 121.830 C 35.954 122.198, 45.092 119.083, 41.750 118.276 C 40.788 118.044, 40 117.170, 40 116.335 C 40 115.112, 41.133 114.881, 45.809 115.151 C 51.588 115.483, 51.655 115.455, 59.167 109.459 C 63.319 106.144, 67.713 102.770, 68.931 101.962 L 71.146 100.491 66.073 93.790 C 61.917 88.299, 61 86.358, 61 83.044 L 61 79 56 79 C 50.587 79, 50.431 79.116, 52.150 81.869 C 53.045 83.301, 52.899 85.195, 51.493 90.386 C 50.500 94.058, 49.228 96.909, 48.669 96.723 C 47.194 96.231, 43.822 85.856, 44.372 83.500 C 44.629 82.400, 45.135 80.553, 45.498 79.395 C 46.021 77.727, 45.467 76.886, 42.829 75.338 C 36.452 71.599, 35.836 71.610, 36.558 75.456 C 37.035 78.001, 36.546 80.312, 34.656 84.441 C 33.256 87.499, 31.677 90, 31.146 90 C 30.616 90, 29.618 86.844, 28.928 82.987 C 27.731 76.285, 27.771 75.873, 29.838 73.673 L 32 71.371 28.466 69.685 C 24.275 67.686, 22.811 67.589, 21.200 69.200 M 66 79.500 C 66 79.775, 66.900 80.900, 68 82 C 69.132 83.132, 70.031 85.411, 70.070 87.250 C 70.109 89.037, 70.486 91.384, 70.908 92.464 C 71.597 94.225, 71.749 94.137, 72.381 91.618 C 72.798 89.955, 72.625 88.254, 71.957 87.448 C 71.336 86.700, 71.105 85.639, 71.445 85.090 C 71.784 84.541, 71.774 82.946, 71.422 81.546 C 70.960 79.706, 70.120 79, 68.392 79 C 67.076 79, 66 79.225, 66 79.500 M 118 80.500 C 117.004 81.700, 117.017 82.315, 118.063 83.576 C 118.985 84.686, 119.047 85.353, 118.275 85.830 C 117.486 86.318, 117.526 88.185, 118.418 92.504 C 119.776 99.081, 120.074 98.601, 121.525 87.500 C 121.884 84.750, 122.882 81.713, 123.744 80.750 C 125.199 79.124, 125.096 79, 122.277 79 C 120.610 79, 118.685 79.675, 118 80.500 M 0 85.559 C 0 86.416, 0.450 86.840, 1 86.500 C 1.550 86.160, 2 85.459, 2 84.941 C 2 84.423, 1.550 84, 1 84 C 0.450 84, 0 84.702, 0 85.559 M 112.136 111.117 C 112.011 114.429, 115.758 125.575, 116.685 124.648 C 116.904 124.429, 116.191 121.606, 115.100 118.375 C 114.008 115.144, 112.926 111.375, 112.694 110 C 112.384 108.163, 112.236 108.459, 112.136 111.117 M 117.709 129 C 118.022 130.925, 118.895 133.850, 119.648 135.500 L 121.018 138.500 120.555 135.356 C 120.301 133.627, 119.428 130.702, 118.616 128.856 L 117.140 125.500 117.709 129" stroke="none" fill="black" fill-rule="evenodd"/>
</svg>