<svg xmlns="http://www.w3.org/2000/svg" width="192" height="144" viewBox="0 0 192 144" version="1.1">
	<path d="M 0 6.868 L 0 13.736 6.087 15.444 C 11.883 17.071, 12.268 17.067, 14.146 15.368 C 15.670 13.989, 16.501 13.833, 17.809 14.680 C 18.739 15.283, 19.442 16.474, 19.371 17.327 C 19.266 18.599, 20.096 18.776, 23.997 18.314 C 27.968 17.844, 29.101 18.101, 30.875 19.875 C 32.044 21.044, 33 22.900, 33 24 C 33 25.100, 33.351 26, 33.781 26 C 35.366 26, 36.716 31.501, 35.584 33.350 C 34.696 34.801, 35.042 35.570, 37.500 37.607 C 39.150 38.975, 42.308 41.873, 44.518 44.047 C 46.728 46.221, 49.074 48, 49.733 48 C 52.038 48, 52.836 51.638, 52.287 59.645 C 51.950 64.567, 52.220 69.825, 52.979 73.110 C 54.393 79.234, 61.089 101.232, 63.598 108 C 64.516 110.475, 65.489 115.987, 65.762 120.250 C 66.183 126.850, 66.023 128, 64.680 128 C 63.813 128, 61.883 129.131, 60.391 130.513 C 58.019 132.712, 57.089 132.948, 52.968 132.401 C 47.490 131.675, 47.140 132.020, 46.316 138.976 L 45.721 144 70.725 144 L 95.728 144 96.342 139.524 C 96.679 137.061, 96.664 134.249, 96.307 133.274 C 95.414 130.827, 91.338 125.995, 90.704 126.629 C 90.066 127.267, 86.707 124.416, 78.387 116.174 C 74.874 112.694, 72 110.358, 72 110.983 C 72 111.607, 71.550 111.840, 71 111.500 C 70.450 111.160, 70 109.304, 70 107.375 C 70 105.447, 69.534 102.998, 68.965 101.934 C 68.367 100.817, 68.322 100, 68.860 100 C 69.371 100, 69.997 98.312, 70.250 96.250 C 70.503 94.188, 71.428 89.315, 72.305 85.422 C 73.182 81.530, 73.999 73.430, 74.119 67.422 C 74.306 58.109, 74.032 55.874, 72.261 52.252 C 71.118 49.916, 70.576 47.762, 71.055 47.466 C 71.535 47.169, 71.043 46.043, 69.964 44.964 C 67.608 42.608, 67 42.513, 67 44.500 C 67 47.340, 64.497 45.970, 62.869 42.239 C 59.900 35.430, 59 32.922, 59 31.453 C 59 29.157, 62.891 25.831, 64.850 26.452 C 66.868 27.093, 75 21.539, 75 19.520 C 75 18.802, 75.600 17.984, 76.333 17.703 C 77.801 17.139, 82 5.638, 82 2.180 L 82 0 41 0 L 0 0 0 6.868 M 178 2.379 C 178 4.079, 178.856 5.112, 181 6 C 182.650 6.683, 184 7.638, 184 8.121 C 184 9.912, 185.620 8.913, 187.284 6.096 C 190.298 0.994, 189.680 0, 183.500 0 C 178.375 0, 178 0.162, 178 2.379 M 0.040 40.250 C 0.077 63.524, 0.200 65.278, 1.615 62.668 C 2.459 61.111, 5.591 56.677, 8.575 52.815 C 14.354 45.335, 14.418 45.079, 13.346 33.729 C 12.774 27.666, 12.508 27.021, 10.805 27.562 C 9.760 27.894, 8.262 27.633, 7.478 26.982 C 6.245 25.959, 6.252 25.413, 7.526 22.949 C 8.337 21.382, 9 19.861, 9 19.570 C 9 19.033, 1.533 15, 0.540 15 C 0.243 15, 0.018 26.362, 0.040 40.250 M 28.002 65.250 C 27.277 67.588, 25.860 72.058, 24.853 75.184 C 23.704 78.754, 23.262 82.062, 23.666 84.081 C 24.280 87.152, 24.193 87.265, 21.686 86.636 C 19.469 86.080, 18.822 86.444, 17.506 88.989 C 15.340 93.178, 13 92.942, 13 88.535 C 13 86.094, 13.591 84.754, 15 84 C 18.163 82.307, 19.739 78.967, 20.424 72.500 C 20.950 67.540, 20.838 66.771, 19.780 68.062 C 19.076 68.921, 17.715 69.918, 16.756 70.278 C 14.664 71.063, 11.009 76.784, 11.004 79.281 C 11.002 80.261, 10.325 81.322, 9.500 81.638 C 8.675 81.955, 8 82.855, 8 83.638 C 8 87.431, 2.701 85.850, 0.952 81.535 C 0.492 80.400, 0.099 93.770, 0.063 111.750 L 0 144 14.862 144 L 29.725 144 30.388 138.359 C 30.752 135.256, 30.802 132.469, 30.498 132.165 C 30.194 131.861, 28.236 131.713, 26.147 131.836 C 22.904 132.028, 22.172 131.673, 21.142 129.412 C 20.122 127.173, 19.481 126.854, 17.006 127.349 C 15.395 127.671, 13.835 127.541, 13.538 127.061 C 13.241 126.581, 12.099 126.423, 11.001 126.710 C 9.222 127.175, 9.067 126.865, 9.583 123.866 C 9.901 122.015, 10.535 119.600, 10.990 118.500 C 11.446 117.400, 12.089 115.825, 12.420 115 C 12.751 114.175, 13.805 112.306, 14.761 110.846 C 17.791 106.223, 24.023 95.158, 27.169 88.819 C 29.898 83.317, 30.233 81.607, 30.494 71.850 C 30.653 65.883, 30.454 61, 30.052 61 C 29.649 61, 28.727 62.913, 28.002 65.250 M 35.630 66.915 C 34.803 72.083, 35.459 73.282, 37.119 69.638 C 37.948 67.819, 38.009 66.336, 37.319 64.790 C 36.424 62.784, 36.256 62.996, 35.630 66.915 M 38.337 134.816 C 37.372 135.434, 36.985 136.400, 35.353 142.250 C 34.965 143.642, 35.492 144, 37.933 144 C 40.895 144, 41 143.848, 41 139.559 C 41 135.006, 40.217 133.611, 38.337 134.816" stroke="none" fill="black" fill-rule="evenodd"/>
</svg>