<svg xmlns="http://www.w3.org/2000/svg" width="192" height="144" viewBox="0 0 192 144" version="1.1">
	<path d="M 111.280 12.020 C 108.473 13.149, 107.354 17.450, 108.841 21.390 C 109.813 23.965, 109.731 24.571, 108.300 25.372 C 105.250 27.079, 97.874 34.344, 96.507 36.986 C 94.342 41.173, 93.050 50.049, 94.259 52.430 C 94.838 53.568, 95.616 55.175, 95.989 56 C 96.363 56.825, 98.430 58.400, 100.584 59.500 C 102.738 60.600, 104.686 61.611, 104.912 61.746 C 105.139 61.881, 104.803 63.137, 104.165 64.537 C 103.109 66.855, 103.369 67.460, 107.069 71.291 C 110.397 74.738, 111.053 76.043, 110.694 78.500 C 110.453 80.150, 110.943 83.642, 111.783 86.260 C 113.020 90.116, 113.089 91.759, 112.146 94.907 C 111.092 98.423, 110.677 98.779, 107.780 98.646 C 104.857 98.513, 104.527 98.807, 103.983 102.029 C 103.462 105.112, 99.444 112, 98.165 112 C 97.913 112, 93.492 110.650, 88.341 109 C 83.191 107.350, 78.469 106, 77.848 106 C 75.877 106, 74.065 102.622, 74.032 98.885 C 74.013 96.758, 73.129 94.162, 71.884 92.579 C 70.072 90.276, 69.172 89.945, 65.634 90.277 C 60.895 90.723, 55.013 93.038, 53.394 95.095 C 51.558 97.429, 51.168 100.649, 52.158 105.294 C 53.389 111.064, 58.003 115.523, 64 116.739 C 67.098 117.367, 68.395 118.095, 68.162 119.076 C 67.975 119.859, 67.463 123.875, 67.022 128 C 66.581 132.125, 65.984 136.175, 65.694 137 C 65.404 137.825, 64.896 139.738, 64.564 141.250 L 63.962 144 111.481 144 C 137.616 144, 159 143.757, 159 143.460 C 159 143.163, 158.091 141.139, 156.981 138.962 C 154.563 134.222, 153.843 129.355, 155.383 128.150 C 155.997 127.669, 157.625 127.005, 159 126.675 C 160.375 126.345, 162.100 125.104, 162.833 123.918 C 164.128 121.822, 164.058 121.780, 160.333 122.394 C 152.091 123.753, 152.784 124.294, 150.855 115 C 148.629 104.271, 148.586 102.904, 150.500 103.638 C 152.426 104.377, 152.401 104.162, 149.931 98.578 C 148.539 95.431, 148.075 92.936, 148.511 90.951 C 149.120 88.178, 151 86.749, 151 89.059 C 151 89.641, 151.429 89.853, 151.953 89.529 C 152.476 89.206, 153.583 90.192, 154.412 91.720 C 155.255 93.274, 155.952 93.838, 155.992 93 C 156.047 91.855, 156.439 91.974, 157.649 93.500 C 159.106 95.338, 159.188 93.917, 158.656 76 C 158.055 55.735, 156.516 45.215, 152.984 37.230 C 151.893 34.764, 151 32.110, 151 31.333 C 151 28.551, 146.957 22.069, 143.647 19.544 C 140.772 17.351, 139.406 17.011, 134.371 17.235 C 129.152 17.468, 127.899 17.121, 123.562 14.249 C 118.616 10.972, 115.354 10.381, 111.280 12.020 M 119 79 C 119 81.951, 120.282 82.970, 121.506 80.991 C 122.310 79.689, 121.148 76, 119.933 76 C 119.420 76, 119 77.350, 119 79" stroke="none" fill="black" fill-rule="evenodd"/>
</svg>