<svg xmlns="http://www.w3.org/2000/svg" width="192" height="144" viewBox="0 0 192 144" version="1.1">
	<path d="M 0 4.874 L 0 9.747 3.250 9.083 C 5.038 8.717, 6.455 7.874, 6.400 7.209 C 6.345 6.544, 6.232 4.650, 6.150 3 C 6.018 0.367, 5.633 0, 3 0 C 0.077 0, 0 0.125, 0 4.874 M 14.786 4.573 C 17.379 7.088, 21.653 10.253, 24.284 11.607 C 30.409 14.758, 36.276 20.639, 39.358 26.716 C 43.385 34.657, 44.905 35.520, 54.609 35.373 C 59.224 35.303, 63 35.615, 63 36.066 C 63 37.435, 58.669 44.423, 57.061 45.650 C 55.911 46.527, 55.623 48.498, 55.846 53.965 C 56.142 61.205, 55.770 62.206, 50.274 68.971 C 50.063 69.230, 49.473 68.780, 48.961 67.971 C 48.207 66.779, 48.031 66.879, 48.032 68.500 C 48.034 70.667, 51.204 83.333, 52.504 86.366 C 53.216 88.028, 53.065 88.105, 51.131 87.070 C 48.277 85.542, 46.691 86.633, 47.438 89.609 C 47.874 91.344, 47.622 92, 46.519 92 C 45.684 92, 45 92.695, 45 93.545 C 45 94.395, 43.895 96.195, 42.545 97.545 C 40.659 99.432, 39.038 100, 35.545 100 C 31.386 100, 31 100.208, 31 102.455 C 31 104.455, 31.602 105.002, 34.250 105.408 C 54.757 108.557, 58.222 109.454, 59.134 111.852 C 59.703 113.350, 59.672 114.690, 59.050 115.440 C 58.377 116.251, 58.516 117.291, 59.481 118.670 C 60.265 119.788, 62.068 123.791, 63.488 127.564 C 66.269 134.953, 67.447 136.283, 70.396 135.363 C 72.007 134.861, 72.183 135.128, 71.566 137.136 C 71.166 138.436, 70.597 140.513, 70.303 141.750 L 69.767 144 130.883 144 L 192 144 192 72 L 192 0 101.036 0 L 10.073 0 14.786 4.573 M 92 47.736 C 92 48.783, 93.848 52.083, 96.107 55.069 C 100.488 60.861, 100.699 59.341, 96.666 51.045 C 94.348 46.277, 92 44.612, 92 47.736 M 104.029 69.961 C 103.220 70.473, 102.803 71.136, 103.102 71.435 C 103.401 71.735, 104.513 71.323, 105.573 70.521 C 107.681 68.926, 106.400 68.461, 104.029 69.961" stroke="none" fill="black" fill-rule="evenodd"/>
</svg>