<svg xmlns="http://www.w3.org/2000/svg" width="192" height="144" viewBox="0 0 192 144" version="1.1">
	<path d="M 0 72 L 0 144 36.187 144 L 72.374 144 69.602 141.106 C 67.711 139.133, 66.936 137.396, 67.165 135.649 C 67.381 133.998, 66.824 132.592, 65.599 131.696 C 63.940 130.483, 63.844 129.886, 64.849 127.004 C 66.791 121.434, 66.236 120.080, 59.183 113.175 C 53.381 107.494, 52.057 105.532, 50.296 100 C 48.736 95.102, 47.578 93.176, 45.594 92.186 C 42.790 90.787, 42.954 89, 45.885 89 C 46.856 89, 48.708 87.875, 50 86.500 C 52.838 83.479, 54 83.334, 54 86 C 54 88.531, 55.778 88.556, 58.436 86.063 C 59.571 84.998, 61.800 83.892, 63.389 83.604 C 67.664 82.832, 73.665 78.492, 76.358 74.225 C 78.921 70.164, 81.750 67.416, 82.546 68.213 C 82.819 68.486, 82.471 70.463, 81.771 72.605 C 80.883 75.323, 79.847 76.593, 78.343 76.807 C 77.104 76.984, 75.952 78.055, 75.633 79.328 C 74.366 84.376, 63.498 92, 57.570 92 C 54.484 92, 53.739 93.175, 54.935 96.158 C 55.754 98.203, 55.881 98.251, 55.937 96.532 C 55.988 94.938, 56.863 95.440, 60.543 99.172 C 63.042 101.707, 70.195 107.226, 76.439 111.437 C 88.029 119.254, 88.960 120.391, 88.986 126.771 C 88.997 129.285, 89.580 130.307, 91.504 131.184 C 92.882 131.811, 94.236 132.098, 94.513 131.820 C 94.791 131.543, 93.725 128.432, 92.144 124.908 C 86.717 112.806, 81.602 91.958, 83.607 90.114 C 83.974 89.776, 84.485 90.093, 84.743 90.818 C 85.694 93.489, 96.973 106.878, 100.604 109.644 C 104.048 112.269, 104.945 112.477, 111.676 112.222 C 115.883 112.062, 119 112.352, 119 112.904 C 119 113.432, 117.650 114.825, 116 116 C 112.350 118.599, 112.273 119.348, 115.500 120.818 C 116.875 121.445, 118 121.547, 118 121.046 C 118 120.545, 118.912 119.845, 120.027 119.492 C 121.910 118.894, 129.344 110.673, 133.155 104.975 L 134.810 102.500 138.697 106.250 C 142.784 110.193, 145.675 111.012, 146.638 108.500 C 146.955 107.675, 147.616 107, 148.107 107 C 149.497 107, 149.159 109.167, 147.478 111.024 C 146.092 112.556, 146.381 113.071, 150.728 116.815 C 161.147 125.788, 161.101 125.733, 160.410 128.715 C 160.054 130.247, 158.488 132.820, 156.930 134.433 C 154.575 136.870, 153.105 137.437, 148.232 137.790 C 143.361 138.142, 141.032 137.679, 134.487 135.058 L 126.607 131.903 124.053 133.966 C 122.649 135.100, 120.375 136.520, 119 137.121 C 117.625 137.722, 115.825 138.618, 115 139.113 C 111.641 141.127, 110.838 141.163, 108.873 139.385 C 107.743 138.363, 105.510 137.461, 103.910 137.380 C 101.240 137.246, 101 137.514, 101 140.627 L 101 144.020 146.750 143.760 L 192.500 143.500 192.757 71.750 L 193.013 0 96.507 0 L 0 0 0 72 M 0.474 72.500 C 0.474 112.100, 0.598 128.154, 0.750 108.176 C 0.901 88.198, 0.901 55.798, 0.750 36.176 C 0.598 16.554, 0.474 32.900, 0.474 72.500 M 100.625 86.125 C 99.487 91.816, 99.974 97.030, 102.020 101.040 C 103.804 104.536, 104.478 105.013, 107.770 105.114 C 115.896 105.363, 122.442 104.878, 123.567 103.944 C 124.772 102.944, 127.595 94.188, 126.888 93.645 C 126.675 93.482, 123.575 92.320, 120 91.064 C 116.425 89.807, 111.195 87.479, 108.378 85.890 C 105.561 84.300, 102.805 83, 102.253 83 C 101.701 83, 100.969 84.406, 100.625 86.125 M 152.863 125.682 C 152.113 126.595, 149.564 128.574, 147.198 130.080 C 142.476 133.085, 143.011 134.464, 148.501 133.434 C 153.413 132.512, 158.005 126.357, 155.113 124.570 C 154.626 124.269, 153.613 124.769, 152.863 125.682" stroke="none" fill="black" fill-rule="evenodd"/>
</svg>