<svg xmlns="http://www.w3.org/2000/svg" width="192" height="144" viewBox="0 0 192 144" version="1.1">
	<path d="M 63.426 8.750 C 63.302 23.436, 58.088 35.981, 48.321 45.089 C 42.992 50.060, 34.136 55.458, 29.500 56.561 C 27.850 56.954, 25.907 57.744, 25.182 58.317 C 23.671 59.510, 4.386 59.703, 1.750 58.551 C 0.099 57.829, 0 60.214, 0 100.893 L 0 144 52.406 144 L 104.812 144 105.513 138.750 C 105.898 135.863, 107.738 128.775, 109.602 123 C 111.466 117.225, 114.025 106.864, 115.288 99.976 C 117.838 86.067, 117.413 81.326, 113.250 77.219 C 110.759 74.762, 110.460 72.878, 112.081 69.849 C 113.619 66.975, 112.846 66.717, 107.878 68.444 C 104.038 69.779, 103.365 69.786, 102.403 68.501 C 101.778 67.666, 98.223 66.599, 94.136 66.019 C 90.192 65.460, 85.061 64.519, 82.733 63.929 C 80.405 63.338, 75.435 62.275, 71.689 61.567 C 64.166 60.144, 61.855 58.745, 63.805 56.795 C 64.746 55.854, 66.273 55.869, 70.755 56.862 C 83.441 59.673, 95.236 60.946, 97.412 59.739 C 98.560 59.102, 100.063 58.695, 100.750 58.834 C 101.438 58.974, 102 58.632, 102 58.075 C 102 57.426, 104.819 57.280, 109.848 57.668 C 117.272 58.240, 117.726 58.158, 118.254 56.136 C 118.612 54.769, 118.348 54, 117.521 54 C 115.908 54, 112.715 49.270, 113.486 48.022 C 113.800 47.515, 113.195 46.640, 112.143 46.077 C 109.666 44.751, 108.635 40.557, 110.178 38.086 C 111.119 36.580, 111.123 35.565, 110.194 33.527 C 107.322 27.223, 108.973 26.756, 120.636 30.574 C 130.233 33.715, 133.553 36.834, 134.578 43.670 C 134.973 46.308, 135.905 49.922, 136.649 51.701 C 137.392 53.480, 138 57.036, 138 59.603 C 138 63.259, 138.526 64.758, 140.426 66.519 C 142.342 68.294, 142.786 69.581, 142.539 72.634 C 142.366 74.760, 142.849 77.715, 143.612 79.200 C 144.376 80.686, 145.010 84.286, 145.022 87.200 C 145.033 90.115, 145.629 96.395, 146.345 101.156 C 147.561 109.238, 147.526 109.900, 145.824 111.127 C 144.821 111.850, 144 113.160, 144 114.038 C 144 114.916, 146.268 120.702, 149.040 126.894 C 151.813 133.087, 154.346 139.479, 154.670 141.098 L 155.259 144.043 173.879 143.772 L 192.500 143.500 192.825 129 C 193.003 121.025, 192.837 88.737, 192.455 57.250 L 191.761 0 127.630 0 L 63.500 0 63.426 8.750 M 0.459 101 C 0.459 124.925, 0.589 134.713, 0.749 122.750 C 0.908 110.788, 0.908 91.213, 0.749 79.250 C 0.589 67.288, 0.459 77.075, 0.459 101 M 139.158 98 C 139.158 99.375, 139.385 99.938, 139.662 99.250 C 139.940 98.563, 139.940 97.438, 139.662 96.750 C 139.385 96.063, 139.158 96.625, 139.158 98" stroke="none" fill="black" fill-rule="evenodd"/>
</svg>