<svg xmlns="http://www.w3.org/2000/svg" width="192" height="144" viewBox="0 0 192 144" version="1.1">
	<path d="M 0 72 L 0 144 36.155 144 C 70.905 144, 72.247 143.930, 70.681 142.200 C 69.786 141.211, 68.361 138.439, 67.515 136.042 C 66.141 132.149, 66.139 131.437, 67.489 129.377 C 70.241 125.177, 69.398 121.515, 64.377 115.862 C 58.766 109.544, 56.970 105.509, 55.982 97 C 55.566 93.425, 54.902 89.263, 54.505 87.750 L 53.783 85 62.642 84.989 C 67.514 84.983, 73.132 84.708, 75.126 84.378 C 78.735 83.781, 78.765 83.806, 81.415 89.595 C 82.937 92.921, 86.608 98.046, 89.988 101.566 L 95.899 107.721 95.317 101.488 C 94.997 98.060, 95.044 93.193, 95.422 90.673 C 96.055 86.449, 96.281 86.160, 98.304 86.972 C 116.324 94.206, 122.547 97.131, 122.833 98.501 C 123.016 99.380, 122.363 102.330, 121.382 105.057 C 119.851 109.316, 119.098 110.156, 116.049 111.003 C 114.097 111.545, 111.150 111.998, 109.500 112.010 C 107.850 112.021, 105.900 112.411, 105.166 112.876 C 102.902 114.311, 106.683 115.107, 112.377 114.393 C 116.607 113.863, 117.282 113.982, 116.250 115.076 C 114.644 116.777, 114.655 118, 116.277 118 C 117.701 118, 122.190 111.493, 124.728 105.750 C 125.639 103.688, 126.670 102, 127.018 102 C 127.367 102, 130.317 104.013, 133.576 106.473 C 136.834 108.934, 139.956 110.959, 140.513 110.973 C 141.070 110.988, 141.970 111.999, 142.513 113.221 C 143.139 114.628, 144.776 115.698, 146.984 116.142 C 150.857 116.921, 155 121.037, 155 124.105 C 155 127.790, 151.990 131.964, 147.789 134.108 C 143.501 136.295, 139.864 136.335, 123.658 134.371 C 120.675 134.009, 118.391 134.209, 117.708 134.892 C 117.099 135.501, 115.770 136, 114.755 136 C 112.509 136, 108 140.316, 108 142.465 C 108 143.853, 112.570 143.993, 150.250 143.761 L 192.500 143.500 192.757 71.750 L 193.013 0 96.507 0 L 0 0 0 72 M 0.474 72.500 C 0.474 112.100, 0.598 128.154, 0.750 108.176 C 0.901 88.198, 0.901 55.798, 0.750 36.176 C 0.598 16.554, 0.474 32.900, 0.474 72.500 M 67.051 103.555 C 71.143 107.910, 81 115.150, 81 113.801 C 81 113.068, 80.188 110.954, 79.195 109.104 C 77.758 106.424, 76.110 105.275, 71.110 103.464 L 64.830 101.190 67.051 103.555 M 144.278 122.122 C 143.661 122.739, 143.350 123.751, 143.588 124.372 C 143.825 124.992, 142.158 126.400, 139.884 127.500 C 135.007 129.859, 135.063 131.645, 140 131.147 C 145.977 130.544, 150 127.439, 150 123.429 C 150 121.561, 149.469 121, 147.700 121 C 146.435 121, 144.895 121.505, 144.278 122.122" stroke="none" fill="black" fill-rule="evenodd"/>
</svg>