<svg xmlns="http://www.w3.org/2000/svg" width="192" height="144" viewBox="0 0 192 144" version="1.1">
	<path d="M 36 72 L 36 144 114 144 L 192 144 192 72 L 192 0 114 0 L 36 0 36 72 M 101.937 57.118 C 100.925 59.008, 101.446 59.842, 106.774 64.868 L 112.745 70.500 112.623 76.685 C 112.516 82.078, 112.124 83.262, 109.563 85.935 C 105.949 89.706, 104.394 89.746, 85.500 86.554 C 77.800 85.253, 71.332 84.351, 71.126 84.551 C 70.026 85.620, 72.343 88.119, 74.912 88.632 C 76.540 88.958, 78.116 89.860, 78.414 90.637 C 78.782 91.595, 79.770 91.845, 81.485 91.414 C 84.366 90.691, 88.282 92.759, 91.706 96.811 C 92.919 98.247, 94.188 99.146, 94.525 98.808 C 95.445 97.888, 93.035 94.500, 90.096 92.582 C 87.558 90.927, 87.656 90.902, 94.500 91.475 C 106.772 92.504, 108.500 92.944, 109.535 95.302 C 110.310 97.068, 111.478 97.562, 115.475 97.814 C 121.234 98.177, 123 99.306, 123 102.622 C 123 105.154, 124.446 105.829, 125.417 103.750 C 125.883 102.750, 126.117 102.750, 126.583 103.750 C 127.698 106.138, 130 105.091, 130 102.195 C 130 99.488, 130.166 99.397, 134.750 99.584 C 137.363 99.691, 142.875 100.752, 147 101.941 C 157.833 105.064, 159.909 105.372, 162.331 104.216 C 163.524 103.647, 165.287 102.930, 166.250 102.622 C 169.588 101.555, 168.366 97.007, 163.482 92.329 C 158.802 87.844, 158.259 87.688, 148.345 87.983 C 145.510 88.067, 142.360 87.647, 141.345 87.049 C 140.330 86.452, 137.700 85.366, 135.500 84.636 C 131.780 83.403, 131.478 83.020, 131.193 79.172 C 130.991 76.440, 130.219 74.566, 128.921 73.657 C 127.779 72.858, 127.200 71.643, 127.538 70.761 C 128.083 69.340, 124.579 65.693, 121.770 64.757 C 121.132 64.544, 120.935 63.611, 121.317 62.615 C 121.950 60.967, 122.171 60.989, 124.650 62.939 C 128.185 65.720, 128.803 64.809, 125.867 61.144 C 121.629 55.853, 116.989 54.734, 111.795 57.750 C 108.848 59.461, 108.748 59.450, 107.269 57.250 C 105.371 54.427, 103.403 54.379, 101.937 57.118 M 113.652 85.572 C 112.085 87.457, 111.115 89, 111.497 89 C 113.053 89, 118 84.764, 118 83.432 C 118 81.221, 116.761 81.831, 113.652 85.572 M 130 86.465 C 130 86.720, 131.012 87.469, 132.250 88.129 C 134.290 89.216, 134.372 89.172, 133.128 87.664 C 131.850 86.115, 130 85.406, 130 86.465 M 137.500 88 C 137.840 88.550, 138.568 89, 139.118 89 C 139.668 89, 139.840 88.550, 139.500 88 C 139.160 87.450, 138.432 87, 137.882 87 C 137.332 87, 137.160 87.450, 137.500 88" stroke="none" fill="black" fill-rule="evenodd"/>
</svg>