<svg xmlns="http://www.w3.org/2000/svg" width="192" height="144" viewBox="0 0 192 144" version="1.1">
	<path d="M 0 72 L 0 144 26.500 144 L 53 144 53 138.108 C 53 129.949, 56.707 112.217, 59.286 108.040 C 60.462 106.137, 63.502 102.366, 66.042 99.660 C 70.584 94.823, 70.647 94.664, 69.837 90.121 C 63.417 54.136, 63.359 53.955, 51.564 33 C 43.815 19.234, 40 9.467, 40 3.395 L 40 0 20 0 L 0 0 0 72 M 68.767 2.750 C 72.368 7.953, 74.884 14.535, 78.876 29.194 C 83.118 44.770, 84.447 52.517, 85.574 68.231 C 85.957 73.584, 86.378 78.984, 86.508 80.231 C 86.638 81.479, 86.802 83.557, 86.872 84.848 C 86.995 87.105, 87.223 87.171, 92.750 86.553 C 95.912 86.198, 100.935 86.381, 103.912 86.959 C 106.888 87.537, 109.458 87.875, 109.622 87.711 C 109.786 87.547, 110.377 82.590, 110.936 76.694 C 112.740 57.656, 115.787 49.216, 123.387 42.211 C 131.386 34.838, 146.202 26.754, 154.125 25.440 C 155.981 25.133, 159.386 24.406, 161.692 23.827 C 169.438 21.879, 182 26.911, 182 31.962 C 182 34.640, 174.222 41.278, 166.944 44.813 C 163.400 46.534, 155.550 49.354, 149.500 51.080 C 143.450 52.805, 137.370 54.799, 135.989 55.510 C 130.678 58.247, 128.543 65.190, 124.463 93 C 124 96.153, 124.537 97.176, 129.883 103.322 C 133.147 107.075, 136.267 111.350, 136.816 112.822 C 140.451 122.567, 141.313 127.003, 141.173 135.250 L 141.025 144 166.512 144 L 192 144 192 72 L 192 0 129.432 0 L 66.864 0 68.767 2.750" stroke="none" fill="black" fill-rule="evenodd"/>
</svg>