<svg xmlns="http://www.w3.org/2000/svg" width="192" height="144" viewBox="0 0 192 144" version="1.1">
	<path d="M -0 72.005 L -0 144.010 96.250 143.755 L 192.500 143.500 192.585 71.500 C 192.632 31.900, 192.495 1.152, 192.280 3.172 C 191.918 6.568, 191.595 6.893, 187.981 7.503 C 185.832 7.866, 183.597 7.869, 183.014 7.509 C 182.432 7.149, 179.828 7.539, 177.228 8.376 C 171.678 10.162, 156.797 9.906, 154.482 7.985 C 153.667 7.309, 153 5.910, 153 4.878 C 153 3.845, 152.373 3, 151.607 3 C 150.841 3, 149.955 2.325, 149.638 1.500 C 149.134 0.185, 139.859 0, 74.531 0 L 0 0 -0 72.005 M 0.474 72.500 C 0.474 112.100, 0.598 128.154, 0.750 108.176 C 0.901 88.198, 0.901 55.798, 0.750 36.176 C 0.598 16.554, 0.474 32.900, 0.474 72.500 M 180 37.268 C 178.625 37.949, 176.517 40.560, 175.315 43.071 C 173.521 46.822, 172.388 47.882, 168.968 49.011 C 166.298 49.892, 164.489 51.213, 163.927 52.692 C 163.444 53.962, 162.568 55, 161.980 55 C 161.392 55, 156.018 57.183, 150.039 59.851 L 139.167 64.702 134.397 61.733 C 131.773 60.100, 127.348 57.971, 124.563 57.002 C 121.778 56.032, 115.588 53.611, 110.807 51.620 C 106.025 49.629, 100.692 48, 98.954 48 C 94.547 48, 80.160 54.958, 75.083 59.544 C 70.847 63.371, 67 69.538, 67 72.500 C 67 74.663, 70.826 82, 71.954 82 C 72.456 82, 73.035 80.763, 73.241 79.250 L 73.614 76.500 74.787 79.262 C 75.432 80.782, 77.034 82.514, 78.348 83.113 C 80.356 84.028, 80.837 85.162, 81.368 90.247 C 81.832 94.682, 81.596 97.103, 80.486 99.329 C 78.621 103.067, 79.368 103.646, 86.313 103.842 C 93.557 104.048, 94.547 103.214, 92.401 98.715 C 90.902 95.572, 90.835 94.265, 91.862 88.310 C 93.787 77.159, 93.830 77.538, 90.596 77.169 L 87.693 76.838 90.096 75.641 C 91.418 74.983, 93.942 72.244, 95.704 69.554 C 101.309 60.998, 100.256 60.876, 113.042 71.568 C 125.571 82.046, 130.574 84.945, 136.185 84.978 C 140.677 85.005, 150.630 82.925, 161.998 79.585 L 170.496 77.089 172.498 79.483 C 174.401 81.758, 174.785 81.825, 180.269 80.836 C 185.098 79.964, 186.436 80.056, 188.484 81.397 C 189.829 82.279, 191.170 83, 191.465 83 C 191.759 83, 192 72.425, 192 59.500 L 192 36 187.250 36.015 C 184.637 36.023, 181.375 36.587, 180 37.268 M 85.420 66.575 C 84.598 70.957, 85.912 72.653, 88.893 71.057 C 91.573 69.623, 91.677 65.432, 89.066 64.035 C 86.283 62.546, 86.160 62.632, 85.420 66.575 M 78.432 72.318 C 78.121 73.128, 78.439 75.750, 79.140 78.145 C 80.295 82.097, 80.446 82.246, 80.773 79.750 C 81.025 77.822, 81.711 77, 83.066 77 C 85.729 77, 85.409 75.911, 81.943 73.173 C 79.531 71.268, 78.894 71.112, 78.432 72.318" stroke="none" fill="black" fill-rule="evenodd"/>
</svg>