<svg xmlns="http://www.w3.org/2000/svg" width="192" height="144" viewBox="0 0 192 144" version="1.1">
	<path d="M -0 72.005 L -0 144.010 96.250 143.755 L 192.500 143.500 192.757 71.750 L 193.013 0 96.507 0 L 0 0 -0 72.005 M 0.474 72.500 C 0.474 112.100, 0.598 128.154, 0.750 108.176 C 0.901 88.198, 0.901 55.798, 0.750 36.176 C 0.598 16.554, 0.474 32.900, 0.474 72.500 M 90 31.393 C 90 32.277, 89.550 33, 89 33 C 86.879 33, 88.160 35.634, 91.743 38.643 L 95.486 41.786 93.099 43.719 L 90.711 45.653 92.908 47.700 C 96.307 50.866, 97.020 54.878, 94.928 59.067 C 92.013 64.903, 91.539 65.058, 79.772 64.024 C 73.953 63.513, 66.899 62.790, 64.096 62.418 C 59.798 61.848, 59 61.995, 59 63.352 C 59 64.282, 60.161 65.239, 61.750 65.619 C 63.263 65.980, 65.041 66.701, 65.702 67.221 C 66.363 67.740, 67.788 67.885, 68.867 67.542 C 69.947 67.199, 73.452 67.804, 76.656 68.885 C 82.920 71, 84.504 70.869, 81.427 68.489 C 79.684 67.142, 80.169 67.059, 86.500 67.616 C 91.208 68.031, 93.924 68.768, 94.794 69.866 C 95.778 71.108, 97.396 71.418, 101.544 71.158 L 107 70.815 107 73.908 C 107 76.906, 107.889 77.778, 109.404 76.263 C 109.809 75.857, 110.897 75.520, 111.821 75.513 C 112.966 75.504, 113.405 74.810, 113.201 73.333 C 112.830 70.640, 115.338 69.940, 119.500 71.575 C 121.150 72.223, 124.733 73.076, 127.463 73.470 C 130.192 73.864, 134.108 74.860, 136.165 75.683 C 139.524 77.027, 140.138 77.017, 142.175 75.590 C 143.424 74.715, 145.245 74, 146.223 74 C 148.922 74, 148.750 67.009, 146.033 66.298 C 144.951 66.016, 143.803 64.956, 143.482 63.943 C 143.161 62.931, 141.971 61.808, 140.839 61.449 C 138.257 60.629, 128.279 60.709, 126.902 61.561 C 126.337 61.910, 125.115 61.515, 124.187 60.683 C 123.259 59.850, 120.760 58.846, 118.632 58.451 L 114.765 57.733 115.346 53.489 C 115.816 50.066, 115.548 48.901, 113.964 47.467 C 112.884 46.490, 112 45.064, 112 44.299 C 112 43.533, 110.653 42.140, 109.006 41.203 C 106.091 39.544, 105.309 38.025, 106.670 36.663 C 107.039 36.295, 108.428 36.706, 109.757 37.576 C 113.577 40.080, 113.418 38.574, 109.499 35.133 C 105.488 31.612, 100.775 30.989, 97.892 33.598 C 95.888 35.411, 93.801 34.683, 94.651 32.468 C 94.960 31.661, 94.753 31, 94.189 31 C 93.625 31, 92.452 30.727, 91.582 30.393 C 90.544 29.995, 90 30.338, 90 31.393 M 96.154 46.438 C 96.345 47.355, 96.950 48.082, 97.500 48.053 C 98.984 47.974, 98.712 45.737, 97.154 45.218 C 96.313 44.938, 95.939 45.395, 96.154 46.438 M 107.500 53 C 107.840 53.550, 108.541 54, 109.059 54 C 109.577 54, 110 53.550, 110 53 C 110 52.450, 109.298 52, 108.441 52 C 107.584 52, 107.160 52.450, 107.500 53 M 97.083 60.066 C 94.200 65.196, 95.153 66.308, 99.073 62.388 C 101.072 60.389, 101.865 58.812, 101.434 57.689 C 100.454 55.136, 99.588 55.609, 97.083 60.066 M 120 61.094 C 120 61.592, 120.900 62, 122 62 C 123.100 62, 124 61.827, 124 61.617 C 124 61.406, 123.100 60.998, 122 60.710 C 120.900 60.423, 120 60.595, 120 61.094" stroke="none" fill="black" fill-rule="evenodd"/>
</svg>