<svg xmlns="http://www.w3.org/2000/svg" width="192" height="144" viewBox="0 0 192 144" version="1.1">
	<path d="M 70.604 5.016 C 72.889 9.386, 73.137 10.746, 72.534 15.578 C 72.141 18.716, 71.264 21.345, 70.512 21.634 C 69.589 21.988, 68.961 25.402, 68.456 32.799 C 68.057 38.659, 67.359 44.749, 66.905 46.331 C 66.229 48.687, 66.410 49.295, 67.903 49.685 C 70.548 50.377, 71.618 63.966, 69.601 71.262 C 68.805 74.143, 67.865 79.056, 67.513 82.180 C 66.825 88.292, 66.069 89.349, 61.622 90.413 C 60.039 90.792, 57.451 92.395, 55.872 93.974 C 52.307 97.539, 52.038 102.707, 55.155 107.751 C 57.270 111.173, 57.278 111.331, 55.570 116.369 C 53.866 121.394, 52.977 123.722, 51.035 128.250 C 49.908 130.875, 46 142.689, 46 143.468 C 46 143.761, 70.011 144, 99.358 144 L 152.715 144 153.318 138.235 C 154.292 128.914, 156.072 121.858, 157.344 122.276 C 158.615 122.695, 158.620 122.720, 159.538 135.250 L 160.180 144 176.186 144 L 192.193 144 191.550 134.250 C 190.754 122.188, 190.754 116.395, 191.547 107.802 L 192.166 101.105 186.333 100.802 L 180.500 100.500 179.248 95.500 C 178.560 92.750, 177.367 85.775, 176.598 80 C 175.829 74.225, 174.625 68.247, 173.923 66.715 C 172.693 64.030, 163.038 56.782, 158.975 55.492 C 156.656 54.756, 156.541 53.427, 158.500 50 C 160.453 46.583, 160.346 45, 158.161 45 C 157.149 45, 155.799 43.854, 155.161 42.453 C 153.862 39.602, 153.595 35.636, 154.750 36.339 C 155.162 36.590, 155.637 33.896, 155.805 30.352 C 155.973 26.808, 156.913 22.016, 157.894 19.704 C 158.874 17.392, 160.482 12.499, 161.465 8.830 C 162.560 4.748, 163.700 2.332, 164.405 2.602 C 165.039 2.845, 166.444 2.374, 167.529 1.554 C 169.284 0.227, 163.932 0.060, 118.740 0.032 L 67.981 0 70.604 5.016 M 82 45.918 C 82 49.100, 80.886 51, 79.021 51 C 77.725 51, 77.080 52.100, 76.595 55.134 C 76.231 57.407, 76.109 59.443, 76.324 59.657 C 77.260 60.594, 79.621 58.746, 80.697 56.234 C 82.085 52.996, 83.494 44, 82.614 44 C 82.276 44, 82 44.863, 82 45.918" stroke="none" fill="black" fill-rule="evenodd"/>
</svg>