<svg xmlns="http://www.w3.org/2000/svg" width="192" height="144" viewBox="0 0 192 144" version="1.1">
	<path d="M 0 72 L 0 144 35.433 144 L 70.865 144 71.614 141.750 C 72.514 139.044, 73.195 125.611, 73.010 114.234 C 72.920 108.732, 73.565 103.306, 74.937 98.010 C 77.453 88.307, 77.467 88.997, 74.750 89.014 C 70.838 89.037, 68 90.181, 68 91.733 C 68 92.884, 67.360 93.059, 65.250 92.486 C 63.738 92.075, 58.942 91.685, 54.592 91.619 C 49.250 91.539, 46.547 91.094, 46.259 90.250 C 46.021 89.551, 46.641 88.998, 47.667 88.994 C 51.679 88.982, 57 86.875, 57 85.298 C 57 83.838, 57.168 83.842, 58.829 85.345 C 61.534 87.793, 63.560 87.377, 66.361 83.798 L 68.867 80.596 61.870 77.305 C 58.022 75.495, 55.134 73.592, 55.452 73.077 C 55.775 72.555, 58.898 73.439, 62.494 75.070 C 66.048 76.681, 69.152 78, 69.392 78 C 69.632 78, 71.217 75.743, 72.914 72.985 C 75.131 69.383, 76 66.734, 76 63.584 C 76 59.699, 76.523 58.682, 80.573 54.689 C 84.073 51.239, 84.824 49.984, 83.773 49.341 C 81.466 47.928, 78 42.320, 78 40 C 78 34.779, 85.778 28.333, 90.878 29.327 C 92.320 29.608, 95.327 29.354, 97.559 28.763 C 99.792 28.171, 102.873 28.002, 104.407 28.387 C 106.741 28.973, 107.097 29.477, 106.594 31.482 C 106.263 32.800, 106.436 34.152, 106.979 34.487 C 108.033 35.138, 103.341 43, 101.898 43 C 101.439 43, 101.347 43.740, 101.694 44.645 C 102.464 46.652, 99.562 49, 96.309 49 C 92.504 49, 93.676 50.339, 100.093 53.326 C 105.016 55.617, 106.455 56.847, 107.695 59.826 C 108.536 61.847, 111.032 65.525, 113.241 68 C 122.716 78.615, 125.767 81.578, 126.850 81.217 C 127.482 81.006, 128 81.726, 128 82.818 C 128 84.015, 130.479 86.923, 134.250 90.149 C 167.598 118.679, 182.723 132.155, 184.900 135.279 L 186.448 137.500 183.474 135.571 C 181.009 133.972, 155.107 111.370, 142 99.382 C 133.260 91.388, 126.408 86.040, 125.389 86.418 C 124.267 86.835, 122.629 85.390, 116.976 79 C 114.532 76.237, 114.008 75.961, 114.489 77.691 C 115.053 79.724, 114.518 80.006, 107.049 81.611 C 102.491 82.590, 99 83.854, 99 84.524 C 99 87.439, 104.049 90.878, 112.004 93.382 C 116.579 94.822, 120.898 96, 121.602 96 C 123.653 96, 123.996 97.432, 122.896 101.415 C 121.586 106.160, 115.662 112.764, 110.500 115.235 C 102.699 118.970, 102.115 119.454, 103.155 121.313 C 103.685 122.260, 104.341 126.290, 104.612 130.268 C 104.883 134.246, 105.327 138.967, 105.600 140.761 L 106.095 144.021 149.297 143.761 L 192.500 143.500 192.757 71.750 L 193.013 0 96.507 0 L 0 0 0 72 M 0.474 72.500 C 0.474 112.100, 0.598 128.154, 0.750 108.176 C 0.901 88.198, 0.901 55.798, 0.750 36.176 C 0.598 16.554, 0.474 32.900, 0.474 72.500 M 128.500 9.053 C 119.711 11.034, 117.590 11.091, 113.500 9.459 C 111.552 8.682, 111.548 8.715, 113.324 10.740 C 115.939 13.723, 118.826 14.155, 128.667 13.037 C 133.459 12.492, 137.535 12.202, 137.725 12.391 C 137.914 12.581, 137.658 14.566, 137.156 16.802 C 136.425 20.054, 136.590 21.442, 137.980 23.727 C 140.826 28.407, 144.617 30.337, 149.388 29.536 C 151.649 29.156, 154.400 28.795, 155.500 28.734 C 158.038 28.593, 159.189 26.933, 157.860 25.332 C 156.564 23.769, 157.636 20.149, 160.237 17.305 C 162.705 14.607, 161.999 10.605, 158.748 8.865 C 154.724 6.711, 138.443 6.813, 128.500 9.053 M 102 11 C 102 12.100, 102.450 13, 103 13 C 103.550 13, 104 12.100, 104 11 C 104 9.900, 103.550 9, 103 9 C 102.450 9, 102 9.900, 102 11 M 27.161 53.306 C 26.565 54.025, 25.960 56.612, 25.816 59.056 C 25.644 61.994, 24.456 65.268, 22.311 68.717 L 19.067 73.934 21.167 75.404 C 22.651 76.444, 23.095 77.530, 22.681 79.112 C 22.318 80.499, 22.656 81.759, 23.569 82.427 C 24.761 83.298, 24.861 84.458, 24.090 88.502 C 23.567 91.251, 22.857 94.228, 22.513 95.119 C 22.076 96.247, 22.572 96.916, 24.150 97.329 C 28.068 98.354, 25.157 99.458, 15.266 100.701 C 3.993 102.116, 0.613 104, 9.345 104 C 17.884 104, 35.321 100.921, 34.040 99.640 C 33.468 99.068, 33 97.735, 33 96.678 C 33 95.069, 33.249 94.961, 34.524 96.020 C 36.691 97.818, 37.288 96.713, 36.239 92.844 C 35.740 91.005, 35.235 86.940, 35.117 83.811 C 34.934 78.975, 35.209 77.958, 36.951 77.026 C 39.509 75.657, 39.520 74.626, 37.009 71.210 C 35.530 69.196, 34.983 66.757, 34.880 61.716 C 34.764 56.058, 34.393 54.688, 32.648 53.466 C 30.063 51.656, 28.567 51.612, 27.161 53.306 M 111.980 60.524 C 110.251 62.607, 111.526 63.617, 113.452 61.690 C 114.304 60.839, 115 59.886, 115 59.571 C 115 58.461, 113.228 59.020, 111.980 60.524 M 97.994 67.250 C 97.991 69.037, 97.509 72.230, 96.922 74.344 C 96.335 76.458, 96.121 78.455, 96.448 78.781 C 97.107 79.440, 111.038 76.130, 112.294 75.016 C 112.731 74.629, 111.156 72.563, 108.794 70.426 L 104.500 66.539 103.935 70.520 L 103.369 74.500 102.192 71.706 C 101.545 70.169, 100.739 67.807, 100.400 66.456 C 99.514 62.929, 98.001 63.429, 97.994 67.250 M 78.412 73 C 76.816 76.025, 75.385 78.760, 75.230 79.078 C 75.075 79.395, 76.097 80.179, 77.502 80.819 C 79.826 81.878, 80.147 81.743, 81.067 79.324 C 81.810 77.369, 81.749 76.463, 80.835 75.898 C 79.851 75.290, 79.867 74.617, 80.912 72.664 C 81.638 71.307, 82.025 69.590, 81.772 68.849 C 81.516 68.099, 80.024 69.941, 78.412 73 M 120.909 69.077 C 119.884 69.727, 120.249 69.974, 122.250 69.985 C 125.236 70.001, 125.774 69.511, 123.659 68.700 C 122.922 68.417, 121.684 68.587, 120.909 69.077 M 28.638 97.500 C 28.322 98.325, 28.499 99, 29.031 99 C 29.564 99, 30 98.325, 30 97.500 C 30 96.675, 29.823 96, 29.607 96 C 29.391 96, 28.955 96.675, 28.638 97.500 M 78.545 131.654 C 77.615 137.319, 77.139 142.415, 77.486 142.977 C 77.854 143.573, 82.683 144, 89.059 144 C 101.770 144, 101.034 144.976, 98.489 131.500 C 96.438 120.640, 96.689 121.055, 92.707 121.953 C 90.823 122.378, 87.247 122.417, 84.759 122.039 L 80.235 121.353 78.545 131.654" stroke="none" fill="black" fill-rule="evenodd"/>
</svg>