<svg xmlns="http://www.w3.org/2000/svg" width="192" height="144" viewBox="0 0 192 144" version="1.1">
	<path d="M 0 56 C 0 86.800, 0.112 112.032, 0.250 112.071 C 0.388 112.110, 4.325 112.537, 9 113.021 C 13.675 113.504, 20.911 114.341, 25.080 114.882 C 29.249 115.422, 38.249 116.354, 45.080 116.952 C 51.911 117.550, 59.525 118.235, 62 118.474 C 64.475 118.713, 70.591 119.196, 75.591 119.548 L 84.681 120.187 89.185 115.038 C 91.662 112.206, 95.340 106.919, 97.358 103.289 C 100.569 97.511, 100.850 96.489, 99.610 95.094 C 98.769 94.148, 97.904 89.966, 97.483 84.804 L 96.773 76.109 93.651 75.423 C 88.701 74.336, 86 72.094, 86 69.072 C 86 65.845, 90.641 61, 93.732 61 C 96.578 61, 100.270 65.808, 99.702 68.777 C 99.097 71.944, 102.358 75.992, 104.119 74.260 C 104.812 73.578, 105.472 72.453, 105.585 71.760 C 105.697 71.067, 105.911 70.050, 106.059 69.500 C 106.207 68.950, 105.998 67.331, 105.594 65.902 C 105.015 63.855, 104.366 63.399, 102.532 63.749 C 100.791 64.082, 99.613 63.396, 97.864 61.030 C 96.578 59.290, 95.520 57.148, 95.513 56.269 C 95.505 55.336, 94.570 54.601, 93.265 54.504 C 92.035 54.412, 90.235 53.618, 89.265 52.741 C 88.294 51.863, 84.688 49.750, 81.250 48.045 C 77.813 46.339, 75 44.507, 75 43.972 C 75 43.437, 74.335 43, 73.523 43 C 71.560 43, 68.802 38.680, 69.539 36.760 C 70.003 35.550, 70.879 35.414, 73.811 36.095 C 75.840 36.567, 78.573 36.963, 79.885 36.976 L 82.270 37 79.718 34.993 C 77.660 33.374, 77.167 32.118, 77.167 28.500 C 77.167 23.665, 78.427 21.700, 79.325 25.135 C 79.762 26.806, 80.392 27.118, 82.341 26.629 C 85.316 25.883, 91 26.891, 91 28.165 C 91 28.669, 90.019 30.407, 88.821 32.028 C 87.623 33.649, 86.888 35.221, 87.188 35.521 C 87.488 35.821, 89.582 35.771, 91.842 35.409 C 94.945 34.913, 96.603 33.898, 98.610 31.267 C 101.988 26.838, 108.105 24.050, 114.507 24.022 C 122.112 23.989, 124.909 25.172, 136.089 33.150 C 146.051 40.259, 146.283 40.510, 143.176 40.815 C 141.261 41.002, 137.699 40.093, 134.360 38.565 C 131.279 37.154, 127.688 36, 126.379 36 C 124.230 36, 124 36.430, 124 40.454 L 124 44.907 133.046 47.622 C 139.513 49.563, 142.922 51.186, 145.002 53.313 C 147.665 56.037, 147.788 56.465, 146.456 58.367 C 145.655 59.510, 145 60.763, 145 61.152 C 145 61.540, 147.393 62.554, 150.318 63.404 C 156.453 65.188, 159.392 67.509, 159.758 70.860 C 159.987 72.963, 159.715 73.150, 157.258 72.568 C 154.631 71.947, 154.660 72.015, 157.863 74.012 C 161.694 76.400, 161.568 77.547, 157.639 76.053 C 155.943 75.408, 155 75.398, 155 76.025 C 155 76.561, 152.948 77, 150.441 77 C 147.243 77, 146.095 77.345, 146.597 78.158 C 147.088 78.951, 146.634 79.138, 145.156 78.751 C 142.517 78.061, 142.384 79.132, 144.833 81.349 C 146.235 82.618, 147.738 82.861, 151.227 82.382 C 155.399 81.810, 155.856 81.959, 156.585 84.129 C 157.023 85.433, 157.431 89.420, 157.491 92.990 L 157.600 99.480 171.440 102.490 C 183.721 105.161, 185.378 105.765, 186.147 107.857 C 186.835 109.725, 187.513 110.088, 189.424 109.608 C 190.913 109.235, 192.027 109.481, 192.338 110.252 C 192.615 110.938, 192.878 86.413, 192.921 55.750 L 193 0 96.500 0 L 0 0 0 56 M 0.467 56.500 C 0.467 87.300, 0.594 100.044, 0.749 84.821 C 0.904 69.598, 0.905 44.398, 0.749 28.821 C 0.594 13.244, 0.467 25.700, 0.467 56.500 M 130 78.416 C 130 78.568, 130.647 79.999, 131.439 81.596 C 132.230 83.193, 133.344 85.737, 133.914 87.250 C 135.207 90.681, 136.766 90.780, 137.593 87.484 C 137.941 86.100, 139.279 84.139, 140.569 83.125 L 142.912 81.281 140.392 80.133 C 138.468 79.256, 138.045 79.263, 138.600 80.162 C 139.114 80.994, 138.766 81.113, 137.414 80.566 C 134.615 79.434, 130 78.096, 130 78.416 M 109.545 93.250 C 109.329 93.938, 108.612 96.300, 107.952 98.500 C 107.293 100.700, 105.046 104.750, 102.960 107.500 C 98.575 113.280, 96.372 117.705, 97.377 118.710 C 99.159 120.492, 115.194 108.115, 116.521 103.934 C 116.949 102.586, 116.109 100.287, 113.975 96.962 C 110.570 91.655, 110.155 91.307, 109.545 93.250 M 154.487 108.021 C 153.663 109.355, 159.193 111.621, 165.500 112.533 C 171.705 113.431, 171.261 112.928, 162.922 109.614 C 155.461 106.650, 155.348 106.628, 154.487 108.021 M 173.500 109.529 C 175.700 110.321, 178.625 110.936, 180 110.896 C 181.617 110.847, 180.733 110.330, 177.500 109.430 C 170.984 107.617, 168.372 107.681, 173.500 109.529 M 0 133.945 L 0 144 25.622 144 C 54.014 144, 53.489 144.171, 44.254 137.939 C 38.322 133.935, 31.457 130.511, 26.221 128.946 C 22.356 127.790, 21.680 127.857, 19.221 129.642 C 17.725 130.729, 15.150 131.592, 13.500 131.559 C 10.848 131.507, 10.442 131.093, 10 128 C 9.517 124.616, 9.343 124.490, 4.750 124.195 L 0 123.890 0 133.945 M 49 129.264 C 52.478 130.834, 52.438 130.767, 50.925 132.590 C 49.742 134.016, 49.950 134.542, 52.532 136.635 C 54.165 137.958, 56.794 140.157, 58.376 141.520 L 61.251 144 91.876 143.970 C 112.221 143.949, 121.940 143.613, 120.832 142.966 C 119.915 142.431, 114.390 142.107, 108.554 142.246 C 96.594 142.532, 95.802 142.119, 96.191 135.793 C 96.480 131.082, 95.866 130.529, 90.167 130.370 C 87.600 130.299, 79.425 129.737, 72 129.123 C 64.575 128.508, 55.800 128.034, 52.500 128.070 C 47.207 128.128, 46.795 128.268, 49 129.264 M 169 143 C 169 143.550, 170.463 143.993, 172.250 143.985 C 174.716 143.973, 175.138 143.736, 174 143 C 172.035 141.730, 169 141.730, 169 143" stroke="none" fill="black" fill-rule="evenodd"/>
</svg>