<svg xmlns="http://www.w3.org/2000/svg" width="192" height="144" viewBox="0 0 192 144" version="1.1">
	<path d="M -0 72.005 L -0 144.010 96.250 143.755 L 192.500 143.500 192.757 71.750 L 193.013 0 96.507 0 L 0 0 -0 72.005 M 0.474 72.500 C 0.474 112.100, 0.598 128.154, 0.750 108.176 C 0.901 88.198, 0.901 55.798, 0.750 36.176 C 0.598 16.554, 0.474 32.900, 0.474 72.500 M 102.455 41.288 C 100.252 43.844, 100.011 44.930, 101.110 47.342 C 102.004 49.303, 101.899 50.848, 100.617 54.611 C 99.526 57.814, 99.320 59.720, 99.994 60.394 C 101.195 61.595, 101.295 65.987, 100.162 67.772 C 99.528 68.771, 98.386 68.616, 94.842 67.048 C 90.772 65.248, 89.221 65.133, 79 65.871 C 65.706 66.832, 64 67.959, 64 75.777 C 64 80.225, 64.241 80.572, 74.167 90.417 C 79.758 95.962, 86.621 102.225, 89.417 104.334 C 94.486 108.157, 94.519 108.166, 101.500 107.497 C 105.350 107.129, 110.721 106.661, 113.435 106.458 C 121.274 105.873, 123.533 104.482, 125.900 98.787 C 127.055 96.007, 128 93.300, 128 92.771 C 128 92.242, 128.942 90.486, 130.093 88.869 C 132.732 85.163, 131.972 83, 128.031 83 C 125.330 83, 125 82.674, 125 80 C 125 77.651, 124.559 77, 122.969 77 C 121.851 77, 120.681 77.667, 120.369 78.482 C 119.935 79.612, 119.343 79.719, 117.872 78.932 C 116.812 78.364, 116.179 77.520, 116.465 77.056 C 116.961 76.254, 115.053 69.790, 113.054 65.500 C 112.542 64.400, 111.827 58.663, 111.465 52.750 C 110.784 41.614, 110.760 41.564, 106.250 41.731 C 105.563 41.757, 105 41.378, 105 40.889 C 105 39.644, 103.697 39.848, 102.455 41.288" stroke="none" fill="black" fill-rule="evenodd"/>
</svg>