<svg xmlns="http://www.w3.org/2000/svg" width="192" height="144" viewBox="0 0 192 144" version="1.1">
	<path d="M 0 72 L 0 144 36.981 144 L 73.962 144 74.613 141.250 C 74.972 139.738, 76.408 134.225, 77.805 129 C 79.202 123.775, 80.653 115.450, 81.029 110.500 C 81.406 105.550, 82.464 98.800, 83.382 95.500 C 85.519 87.812, 87.187 77.055, 87.362 69.821 C 87.493 64.443, 87.406 64.227, 85.727 65.747 C 84.404 66.944, 83.664 67.064, 82.819 66.219 C 81.103 64.503, 83.387 62.338, 87.783 61.513 C 89.825 61.130, 91.747 60.410, 92.054 59.913 C 92.969 58.432, 97.169 58.733, 102.670 60.675 C 108.787 62.834, 109.451 63.382, 108.612 65.569 C 108.068 66.986, 107.738 67.028, 106.325 65.863 C 104.816 64.618, 104.737 64.891, 105.413 69 C 105.820 71.475, 106.545 77.325, 107.024 82 C 107.503 86.675, 109.016 94.056, 110.385 98.401 C 112.556 105.287, 112.748 106.997, 111.877 111.709 C 111.095 115.936, 111.205 118.138, 112.382 121.807 C 114.662 128.921, 117.355 140.280, 117.232 142.262 C 117.129 143.920, 119.352 144.008, 154.811 143.762 L 192.500 143.500 192.757 71.750 L 193.013 0 96.507 0 L 0 0 0 72 M 0.474 72.500 C 0.474 112.100, 0.598 128.154, 0.750 108.176 C 0.901 88.198, 0.901 55.798, 0.750 36.176 C 0.598 16.554, 0.474 32.900, 0.474 72.500" stroke="none" fill="black" fill-rule="evenodd"/>
</svg>