<svg xmlns="http://www.w3.org/2000/svg" width="192" height="144" viewBox="0 0 192 144" version="1.1">
	<path d="M 0 72 L 0 144 33.869 144 L 67.737 144 66.362 138.250 C 63.741 127.289, 60.183 103.428, 58.952 88.545 C 56.850 63.139, 59.009 28.242, 64.028 6.500 C 64.536 4.300, 64.962 1.938, 64.976 1.250 C 64.995 0.275, 57.846 0, 32.500 0 L 0 0 0 72 M 133.604 0.832 C 131.591 4.089, 123.779 31.625, 121.568 43.257 C 119.627 53.468, 117.730 89.722, 118.442 103 C 119.247 118.015, 120.170 130.415, 120.527 131.021 C 120.697 131.308, 121.120 133.558, 121.468 136.021 C 122.714 144.842, 118.902 144, 157.567 144 L 192 144 192 72 L 192 0 163.059 0 C 147.141 0, 133.887 0.374, 133.604 0.832" stroke="none" fill="black" fill-rule="evenodd"/>
</svg>