<svg xmlns="http://www.w3.org/2000/svg" width="192" height="144" viewBox="0 0 192 144" version="1.1">
	<path d="M 0 72 L 0 144 41.500 144 C 64.325 144, 83.014 143.662, 83.031 143.250 C 83.048 142.838, 83.702 137.117, 84.485 130.537 C 85.267 123.957, 85.816 118.504, 85.704 118.420 C 85.592 118.335, 82.350 117.775, 78.500 117.176 C 68.665 115.646, 53.678 111.384, 49.783 109.009 C 47.977 107.908, 45.712 107.006, 44.750 107.004 C 43.788 107.002, 43 106.352, 43 105.559 C 43 103.116, 43.719 102.864, 60.492 99.430 C 71.158 97.246, 75.266 95.021, 77.877 90.012 C 80.395 85.180, 80.420 85, 78.559 85 C 76.641 85, 76.104 83.972, 75.497 79.140 C 74.904 74.420, 76.508 73, 82.434 73 C 85.818 73, 86 72.827, 86 69.625 C 86 62.978, 84.889 60.091, 81.724 58.512 C 80.057 57.680, 78.553 57, 78.381 57 C 78.210 57, 76.415 58.452, 74.394 60.227 C 71.252 62.986, 65.290 65.934, 62.750 65.985 C 62.337 65.993, 62 65.096, 62 63.991 C 62 62.159, 61.540 62.035, 56.750 62.582 C 52.273 63.092, 51.169 62.867, 49.250 61.051 C 46.591 58.535, 46.474 57.682, 48.547 55.961 C 49.729 54.980, 49.803 54.496, 48.862 53.914 C 47.036 52.786, 49.466 50.261, 54.784 47.762 C 57.201 46.625, 59.408 45.101, 59.686 44.375 C 59.965 43.649, 61.837 42.796, 63.847 42.481 C 71.467 41.284, 79.552 34.575, 77.032 31.539 C 76.103 30.419, 76.411 29.777, 78.553 28.373 L 81.240 26.613 79.009 24.806 L 76.778 23 80.273 23 C 82.926 23, 83.893 22.519, 84.290 21 C 84.993 18.312, 86.784 18.459, 87.180 21.237 C 87.427 22.960, 88.359 23.612, 91.247 24.079 C 93.307 24.412, 95.818 25.430, 96.825 26.342 C 97.833 27.254, 99.130 28, 99.707 28 C 101.097 28, 103.374 33.585, 102.537 34.940 C 102.177 35.523, 101.286 36, 100.558 36 C 99.249 36, 98.040 38.931, 98.014 42.167 C 98.005 43.223, 99.619 44.453, 102.411 45.519 C 106.120 46.936, 107.660 47.024, 112.086 46.075 C 117.238 44.970, 118.929 45.503, 118.985 48.250 C 118.993 48.663, 121.063 49, 123.583 49 C 128.963 49, 129.084 50.399, 123.947 53.197 C 121.242 54.670, 119.423 54.928, 115.500 54.396 C 109.753 53.618, 102.228 53.741, 100.778 54.637 C 99.330 55.532, 102.013 56.967, 105.168 56.985 C 108.649 57.005, 111.127 57.985, 110.453 59.076 C 110.158 59.553, 107.911 60.831, 105.459 61.915 C 103.006 63, 101 64.095, 101 64.348 C 101 64.601, 102.064 67.953, 103.364 71.797 C 105.829 79.081, 109.495 83.489, 115.500 86.387 C 117.294 87.253, 123.060 88.052, 129.846 88.375 C 138.031 88.764, 142.350 89.450, 145.346 90.837 C 147.631 91.894, 150.255 93.012, 151.178 93.320 C 153.169 93.987, 153.904 98.391, 152.671 102.269 C 151.051 107.367, 145.123 109.679, 131.882 110.379 C 122.261 110.888, 119.509 111.405, 115.882 113.383 C 113.472 114.698, 108.538 116.311, 104.917 116.968 C 99.417 117.967, 98.065 118.621, 96.692 120.944 C 94.627 124.439, 93.533 133.400, 94.436 139.419 L 95.125 144.019 143.813 143.759 L 192.500 143.500 192.757 71.750 L 193.013 0 96.507 0 L 0 0 0 72 M 0.474 72.500 C 0.474 112.100, 0.598 128.154, 0.750 108.176 C 0.901 88.198, 0.901 55.798, 0.750 36.176 C 0.598 16.554, 0.474 32.900, 0.474 72.500" stroke="none" fill="black" fill-rule="evenodd"/>
</svg>