<svg xmlns="http://www.w3.org/2000/svg" width="192" height="144" viewBox="0 0 192 144" version="1.1">
	<path d="M 0 72 L 0 144 81.567 144 L 163.135 144 162.452 141.750 C 162.077 140.512, 160.922 138.571, 159.885 137.436 C 158.848 136.300, 158 134.225, 158 132.825 C 158 131.425, 156.810 128.529, 155.355 126.390 C 153.900 124.250, 152.308 121.053, 151.817 119.284 C 151.326 117.515, 150.379 115.490, 149.712 114.784 C 149.046 114.078, 147.720 111.813, 146.766 109.750 C 145.813 107.688, 144.575 106, 144.016 106 C 143.457 106, 143 105.118, 143 104.039 C 143 102.960, 142.178 101.273, 141.173 100.289 C 139.535 98.685, 135.974 83.878, 135.993 78.750 C 136.003 76.246, 139.527 73.064, 141.676 73.620 C 144.655 74.390, 146.404 69.223, 144.625 64.907 C 143.852 63.033, 142.743 55.425, 142.160 48 C 141.577 40.575, 140.319 26.737, 139.363 17.250 L 137.627 -0 68.813 -0 L 0 0 0 72" stroke="none" fill="black" fill-rule="evenodd"/>
</svg>