<svg xmlns="http://www.w3.org/2000/svg" width="192" height="144" viewBox="0 0 192 144" version="1.1">
	<path d="M -0 72.005 L -0 144.010 96.250 143.755 L 192.500 143.500 192.757 71.750 L 193.013 0 96.507 0 L 0 0 -0 72.005 M 0.474 72.500 C 0.474 112.100, 0.598 128.154, 0.750 108.176 C 0.901 88.198, 0.901 55.798, 0.750 36.176 C 0.598 16.554, 0.474 32.900, 0.474 72.500 M 90 63.300 C 90 68.325, 85.428 69.556, 82.758 65.250 L 81.053 62.500 81.027 65.781 C 80.992 70.056, 78.651 70.960, 75.437 67.941 L 72.976 65.629 73.589 68.693 C 74.254 72.018, 72.733 73.853, 70.706 72.171 C 68.885 70.659, 69.317 75.811, 71.338 79.700 C 74.283 85.370, 73.620 87.368, 67.905 90.045 C 41.304 102.504, 62.352 123.592, 99.500 121.701 C 133.329 119.979, 147.639 101.720, 124.040 90.388 C 117.411 87.205, 116.518 85.179, 119.851 80.885 C 120.869 79.573, 122.293 77.375, 123.015 76 C 124.241 73.665, 124.211 73.596, 122.565 74.954 C 120.892 76.335, 120.881 76.221, 122.350 72.704 C 124.003 68.749, 123.303 67.683, 121.232 71 C 119.059 74.480, 117.686 73.401, 118.367 68.750 L 118.991 64.500 116.593 67.394 C 113.387 71.264, 111.001 70.363, 110.996 65.281 L 110.993 61.500 108.971 64.816 C 106.243 69.290, 102.644 68.990, 102.187 64.250 C 101.796 60.194, 100.776 60.106, 99.306 64 C 98.466 66.227, 97.532 67, 95.685 67 C 93.818 67, 92.934 66.250, 92.150 64 C 90.902 60.422, 90 60.128, 90 63.300" stroke="none" fill="black" fill-rule="evenodd"/>
</svg>