<svg xmlns="http://www.w3.org/2000/svg" width="192" height="144" viewBox="0 0 192 144" version="1.1">
	<path d="M 0 72 L 0 144 18.887 144 L 37.773 144 38.214 140.994 C 38.746 137.367, 38.445 137, 34.931 137 C 32.813 137, 31.968 136.347, 31.187 134.108 C 30.335 131.662, 29.509 131.132, 25.840 130.672 C 18.890 129.802, 15.019 128.839, 14.391 127.824 C 12.918 125.441, 21.167 112.319, 25.645 109.922 C 26.940 109.229, 28 108.300, 28 107.857 C 28 107.414, 30.925 103.428, 34.500 99 C 41.292 90.587, 42.350 88, 39 88 C 37.616 88, 36.976 87.307, 36.921 85.750 C 36.878 84.513, 36.624 84.036, 36.358 84.690 C 36.091 85.345, 36.315 87.483, 36.856 89.440 C 37.853 93.052, 37.305 93.905, 35.285 91.885 C 34.465 91.065, 33.710 91.661, 32.431 94.135 C 30.751 97.387, 28.301 99.902, 26.750 99.968 C 24.912 100.046, 26.232 92.552, 28.904 87.735 C 30.501 84.856, 32.301 80.115, 32.904 77.200 C 33.507 74.285, 34.703 70.542, 35.561 68.882 C 36.419 67.222, 36.939 65.332, 36.717 64.682 C 36.494 64.032, 35.125 65.831, 33.675 68.679 C 30.492 74.930, 27.613 77.150, 25.881 74.687 C 25.541 74.203, 24.765 75.234, 24.157 76.979 C 23.549 78.723, 22.637 79.894, 22.131 79.581 C 21.624 79.268, 20.944 79.703, 20.620 80.549 C 20.154 81.762, 19.602 81.857, 18 81 C 16.449 80.170, 15.849 80.229, 15.456 81.253 C 15.174 81.989, 13.718 82.566, 12.221 82.535 C 9.611 82.481, 9.506 82.275, 9.643 77.489 C 9.895 68.694, 13.341 61.754, 22.038 52.520 C 27.735 46.472, 30.010 43.290, 30.381 40.852 C 31.633 32.635, 32.027 30.322, 32.631 27.639 C 33.213 25.057, 33.067 24.844, 31.133 25.458 C 28.039 26.440, 27.076 23.335, 29.869 21.380 C 33.012 19.178, 32.485 17.523, 28 15.500 C 25.800 14.508, 24 13.266, 24 12.740 C 24 11.538, 28.170 12.552, 33.179 14.972 C 35.276 15.986, 37.887 16.581, 38.981 16.295 C 41.948 15.519, 44.636 16.764, 43.167 18.233 C 41.022 20.378, 41.815 21.985, 44.750 21.436 C 46.533 21.103, 48.685 21.660, 50.871 23.020 C 53.897 24.903, 54.185 25.471, 53.684 28.559 C 53.377 30.452, 53.547 32, 54.063 32 C 55.586 32, 55.132 37.646, 53.500 39 C 51.265 40.855, 51.650 42.311, 55.250 45.618 C 59.708 49.714, 67.003 57.895, 66.985 58.777 C 66.977 59.175, 66.359 61.255, 65.613 63.399 C 63.867 68.415, 64.451 74.504, 68.116 89.500 C 73.666 112.206, 74.427 117.097, 74.145 128.250 C 74.021 133.165, 73.726 134, 72.115 134 C 71.078 134, 69.507 135.104, 68.622 136.454 C 67.158 138.688, 66.557 138.853, 61.910 138.303 C 56.557 137.669, 55.048 138.533, 55.015 142.250 C 55.001 143.890, 57.760 144, 99.079 144 L 143.159 144 142.505 140.750 C 141.152 134.031, 141.125 134, 136.555 134 C 133.819 134, 131.759 133.414, 130.914 132.396 C 130.181 131.514, 128.579 130.410, 127.352 129.944 C 125.179 129.117, 125.135 128.797, 125.617 117.298 C 125.890 110.809, 126.747 103.250, 127.523 100.500 C 128.299 97.750, 129.386 91.900, 129.938 87.500 C 130.490 83.100, 131.490 75.831, 132.160 71.346 C 133.232 64.178, 133.176 62.675, 131.697 58.910 C 129.687 53.794, 129.726 53.718, 139.404 43.584 C 145.525 37.174, 145.893 36.539, 144.430 34.923 C 143.216 33.581, 142.967 31.741, 143.350 26.943 C 143.981 19.040, 146.118 16.568, 152.354 16.528 C 156.034 16.504, 157.138 15.990, 159.479 13.208 C 162.815 9.243, 163.763 9.624, 161.491 14.017 C 159.235 18.379, 161.291 16.891, 165.033 11.453 C 168.074 7.032, 168.103 7.018, 170.152 8.927 C 172.427 11.047, 171.894 13, 169.040 13 C 167.974 13, 166.274 14.565, 165.008 16.711 C 162.915 20.258, 162.893 20.549, 164.500 23.269 C 165.458 24.890, 166.511 29.739, 166.949 34.535 L 167.716 42.955 173.608 49.540 C 176.849 53.162, 180.937 58.235, 182.693 60.813 C 184.450 63.391, 187.103 66.987, 188.589 68.804 C 191.758 72.678, 191.081 73.911, 185.368 74.677 C 182.103 75.115, 180.654 74.632, 176.146 71.599 C 173.205 69.619, 170.507 67.999, 170.150 67.998 C 169.342 67.996, 170.496 84.897, 171.719 91 C 172.215 93.475, 173.824 97.310, 175.293 99.523 C 177.746 103.216, 180.926 116.138, 180.982 122.643 C 181.007 125.550, 177.933 126.620, 176.210 124.304 C 175.004 122.683, 174.936 122.779, 175.542 125.250 C 176.183 127.863, 176.039 128, 172.643 128 C 170.098 128, 168.086 128.864, 165.653 131 C 163.774 132.650, 161.508 134, 160.618 134 C 158.880 134, 158.617 135.834, 159.630 140.899 L 160.260 144.048 176.380 143.774 L 192.500 143.500 192.757 71.750 L 193.013 0 96.507 0 L 0 0 0 72 M 0.474 72.500 C 0.474 112.100, 0.598 128.154, 0.750 108.176 C 0.901 88.198, 0.901 55.798, 0.750 36.176 C 0.598 16.554, 0.474 32.900, 0.474 72.500 M 147.022 66 C 147.031 70.269, 148.135 72.908, 150.183 73.558 C 151.265 73.902, 152.295 74.029, 152.472 73.841 C 152.648 73.654, 151.493 71.250, 149.904 68.500 C 147.494 64.328, 147.017 63.914, 147.022 66 M 46.348 74 C 43.455 79.049, 43.249 82.200, 45.920 80.549 C 47.882 79.337, 50.127 73.930, 49.810 71.184 C 49.524 68.711, 49.253 68.932, 46.348 74 M 158.015 73.691 C 158.007 74.896, 158.450 76.160, 159 76.500 C 160.273 77.287, 160.273 74.970, 159 73 C 158.212 71.781, 158.028 71.910, 158.015 73.691 M 148.231 136.552 C 147.753 137.406, 147.556 139.431, 147.794 141.052 C 148.161 143.553, 148.675 144, 151.181 144 C 153.526 144, 154.028 143.639, 153.615 142.250 C 153.329 141.287, 152.800 139.262, 152.439 137.750 C 151.718 134.728, 149.590 134.123, 148.231 136.552 M 45.200 141.200 C 43.336 143.064, 43.770 144, 46.500 144 C 48.333 144, 49 143.467, 49 142 C 49 139.772, 47.040 139.360, 45.200 141.200" stroke="none" fill="black" fill-rule="evenodd"/>
</svg>