<svg xmlns="http://www.w3.org/2000/svg" width="192" height="144" viewBox="0 0 192 144" version="1.1">
	<path d="M 0 72 L 0 144 42.858 144 L 85.715 144 86.358 137.853 C 87.277 129.055, 87.150 120, 86.107 120 C 84.596 120, 83.951 116.960, 85.033 114.939 C 87.054 111.162, 88.745 94.447, 87.648 89.089 C 86.488 83.426, 88.278 71.579, 90.653 69.204 C 93.239 66.618, 92.132 63.662, 86.800 58.912 L 81.600 54.279 82.832 50.166 C 85.099 42.600, 94.347 38.060, 100.749 41.370 C 102.431 42.240, 104.704 44.425, 105.799 46.226 C 107.677 49.311, 108.333 51.861, 111.012 66.500 C 113.194 78.428, 114.942 99.827, 115.014 115.500 C 115.054 124.300, 115.649 134.200, 116.335 137.500 L 117.582 143.500 155.041 143.500 L 192.500 143.500 192.520 71.500 C 192.531 31.900, 192.411 11.762, 192.254 26.750 C 192.035 47.570, 191.677 53.989, 190.734 53.955 C 188.300 53.866, 180.818 49.331, 175.069 44.460 C 165.038 35.962, 158.518 22.470, 157.329 7.750 L 156.704 0 78.352 0 L 0 0 0 72 M 0.474 72.500 C 0.474 112.100, 0.598 128.154, 0.750 108.176 C 0.901 88.198, 0.901 55.798, 0.750 36.176 C 0.598 16.554, 0.474 32.900, 0.474 72.500" stroke="none" fill="black" fill-rule="evenodd"/>
</svg>