<svg xmlns="http://www.w3.org/2000/svg" width="192" height="144" viewBox="0 0 192 144" version="1.1">
	<path d="M 0 72 L 0 144 34.500 144 L 69 144 69 141.460 C 69 140.062, 68.043 137.625, 66.874 136.044 C 65.370 134.009, 64.921 132.339, 65.337 130.334 C 65.661 128.775, 66.225 125.925, 66.589 124 C 66.953 122.075, 67.650 119.998, 68.136 119.385 C 68.672 118.710, 68.430 117.131, 67.524 115.385 C 66.700 113.798, 66.263 111.750, 66.554 110.834 C 66.844 109.918, 66.630 108.889, 66.078 108.548 C 64.889 107.813, 66.781 102.926, 68.729 101.700 C 69.428 101.260, 70 99.802, 70 98.459 C 70 97.100, 70.887 95.463, 72 94.768 C 73.717 93.696, 74 92.436, 74 85.866 C 74 79.987, 74.347 78.081, 75.500 77.638 C 76.325 77.322, 77.010 76.261, 77.022 75.281 C 77.034 74.302, 77.954 71.494, 79.066 69.041 C 81.013 64.751, 81.043 63.920, 79.862 46.984 C 78.248 23.848, 79.850 15.578, 84.562 22.713 C 86.135 25.095, 86.464 28.167, 86.826 43.857 C 87.059 53.954, 87.531 61.759, 87.875 61.202 C 88.219 60.645, 88.658 46.647, 88.851 30.095 L 89.202 0 44.601 0 L 0 0 0 72 M 85.250 86.780 C 84.013 86.977, 83 87.783, 83 88.570 C 83 90.365, 83.967 90.340, 86.427 88.479 C 88.690 86.767, 88.355 86.284, 85.250 86.780 M 88 116.500 L 88 144 97.655 144 C 107.018 144, 107.259 143.943, 105.620 142.133 C 104.383 140.766, 103.952 138.556, 104.010 133.883 C 104.055 130.372, 103.958 124.831, 103.795 121.569 C 103.583 117.313, 103.950 115.053, 105.094 113.569 C 106.986 111.114, 106.798 106.015, 104.655 101.627 C 103.815 99.907, 102.888 97.713, 102.595 96.750 C 102.227 95.538, 101.034 95, 98.718 95 C 96.308 95, 94.572 94.162, 92.500 92 C 90.919 90.350, 89.260 89, 88.813 89 C 88.366 89, 88 101.375, 88 116.500 M 97.573 127.671 C 97.243 128.529, 98.016 129.436, 99.584 130.032 C 103.066 131.356, 103.183 131.309, 102.820 128.750 C 102.456 126.187, 98.458 125.365, 97.573 127.671 M 67.015 128.972 C 66.242 130.417, 66.237 131.575, 67 133 C 68.632 136.049, 70 135.392, 70 131.559 C 70 127.443, 68.520 126.160, 67.015 128.972 M 71.158 134 C 71.158 135.375, 71.385 135.938, 71.662 135.250 C 71.940 134.563, 71.940 133.438, 71.662 132.750 C 71.385 132.063, 71.158 132.625, 71.158 134" stroke="none" fill="black" fill-rule="evenodd"/>
</svg>