<svg xmlns="http://www.w3.org/2000/svg" width="192" height="144" viewBox="0 0 192 144" version="1.1">
	<path d="M 0 72 L 0 144 8.864 144 L 17.728 144 18.364 139.360 C 18.714 136.809, 19 134.109, 19 133.360 C 19 130.779, 17.023 132.010, 15.564 135.500 C 14.760 137.425, 13.937 139, 13.736 139 C 13.534 139, 13.460 137.312, 13.570 135.250 C 13.889 129.310, 16.660 123.567, 19.775 122.392 C 22.358 121.417, 22.492 121.046, 22.342 115.288 C 22.255 111.947, 21.602 108.152, 20.890 106.856 C 19.412 104.165, 19.339 103.936, 18.190 98.453 C 17.487 95.093, 17.810 93.254, 20.095 87.613 C 21.608 83.877, 22.993 80.714, 23.173 80.584 C 23.353 80.453, 25.623 78.853, 28.218 77.027 C 30.813 75.201, 32.686 73.300, 32.379 72.804 C 31.307 71.070, 31.466 59.481, 32.592 57.235 C 34.070 54.289, 37.892 51, 39.839 51 C 40.682 51, 43.506 49.200, 46.115 47 C 49.853 43.848, 51.675 43, 54.707 43 C 56.823 43, 59.443 42.389, 60.527 41.642 C 61.612 40.895, 64.204 39.972, 66.286 39.590 C 69.931 38.922, 70.048 38.774, 69.455 35.610 C 68.795 32.095, 70.338 27.841, 74.258 22.371 C 75.491 20.649, 76.955 18.469, 77.512 17.525 C 78.331 16.136, 80.312 15.750, 87.897 15.503 C 99.040 15.141, 103.762 16.464, 106.053 20.590 C 106.942 22.190, 108.460 23.503, 109.427 23.507 C 111.787 23.516, 114.873 30.071, 115.657 36.740 C 116.313 42.322, 117.428 43.972, 119.287 42.113 C 119.899 41.501, 120.846 41, 121.391 41 C 121.936 41, 121.633 41.563, 120.717 42.250 C 119.278 43.331, 116 50.807, 116 53.009 C 116 53.426, 117.012 54.034, 118.250 54.361 C 119.844 54.783, 121.037 54.306, 122.343 52.728 C 124.011 50.712, 124.121 50.690, 123.496 52.500 C 123.117 53.600, 122.725 54.950, 122.625 55.500 C 122.293 57.332, 120.872 59.039, 120.084 58.552 C 119.656 58.287, 118.025 59.408, 116.460 61.042 C 114.279 63.318, 113.888 64.288, 114.788 65.188 C 115.689 66.089, 116.894 65.385, 119.942 62.182 C 122.130 59.882, 124.388 58, 124.960 58 C 125.532 58, 126 57.523, 126 56.941 C 126 56.359, 126.478 56.178, 127.063 56.539 C 128.539 57.451, 131.349 54.685, 136.716 47.037 C 139.240 43.442, 141.741 40.050, 142.274 39.500 C 143.622 38.111, 141.142 42.893, 138.729 46.336 L 136.741 49.173 140.967 47.017 C 143.292 45.831, 145.468 45.135, 145.803 45.470 C 146.138 45.805, 145.307 46.374, 143.956 46.733 L 141.500 47.387 144 48.094 L 146.500 48.801 143.815 48.900 C 139.684 49.054, 136.631 50.523, 133.094 54.060 C 130.910 56.243, 130.238 57.529, 131.025 58.015 C 131.748 58.463, 131.191 58.986, 129.554 59.397 C 128.104 59.761, 127.169 60.464, 127.475 60.960 C 127.782 61.456, 127.575 62.144, 127.016 62.490 C 126.457 62.835, 126 62.304, 126 61.309 C 126 59.993, 124.913 60.691, 122 63.877 C 119.800 66.284, 118 68.546, 118 68.904 C 118 70.410, 121.214 73.986, 122.084 73.448 C 122.604 73.127, 123.749 71.207, 124.627 69.182 C 125.567 67.012, 126.429 66.049, 126.724 66.838 C 127 67.573, 126.724 68.676, 126.113 69.287 C 123.840 71.560, 125.115 71.983, 128.750 70.162 C 130.813 69.129, 133.681 68.001, 135.124 67.655 C 139.777 66.538, 142.045 63.858, 142.799 58.583 C 143.185 55.879, 143.964 53.512, 144.529 53.324 C 146.037 52.821, 149.298 58.698, 147.967 59.520 C 147.227 59.977, 147.260 60.608, 148.074 61.589 C 149.026 62.736, 148.801 63.001, 146.872 63.005 C 145.568 63.007, 142.899 64.480, 140.942 66.277 C 138.986 68.075, 136.458 69.615, 135.325 69.701 C 134.191 69.786, 130.733 71.475, 127.640 73.454 C 123.032 76.402, 122.181 77.363, 122.935 78.776 C 123.440 79.724, 124.098 81.287, 124.395 82.249 C 124.911 83.914, 125.117 83.914, 128.718 82.249 C 130.798 81.287, 132.620 80.254, 132.766 79.953 C 132.912 79.652, 134.533 79.581, 136.368 79.795 C 138.766 80.075, 141.267 79.302, 145.262 77.047 C 150.398 74.149, 153.339 71, 150.910 71 C 150.344 71, 150.165 70.543, 150.510 69.984 C 151.434 68.488, 153.232 69.954, 152.574 71.667 C 152.147 72.780, 152.524 72.968, 154.151 72.452 C 156.257 71.784, 156.260 71.804, 154.394 73.790 C 153.353 74.898, 150.588 76.317, 148.250 76.941 C 143.082 78.322, 142.463 80.379, 147.500 79.434 C 149.794 79.004, 151 79.160, 151 79.889 C 151 80.500, 150.287 81, 149.417 81 C 148.546 81, 148.038 81.563, 148.289 82.250 C 148.540 82.938, 147.757 84.850, 146.549 86.500 C 143.347 90.874, 142.695 93.039, 144.801 92.309 C 145.735 91.985, 146.962 91.160, 147.526 90.475 C 148.090 89.791, 151.446 88.489, 154.983 87.583 C 161.854 85.823, 165.210 83.601, 164.827 81.066 C 164.697 80.205, 165.162 78.461, 165.862 77.191 C 166.611 75.831, 166.876 73.572, 166.506 71.691 C 166.093 69.592, 166.196 68.960, 166.807 69.845 C 167.508 70.861, 167.902 70.527, 168.416 68.477 C 168.791 66.985, 169.349 66.016, 169.656 66.323 C 170.318 66.985, 168.207 76.694, 166.824 79.347 C 165.445 81.993, 166.644 82.633, 168.994 80.506 C 170.097 79.507, 171.045 77.522, 171.100 76.095 C 171.197 73.570, 171.217 73.562, 171.850 75.809 C 172.207 77.079, 172.725 78.196, 173 78.291 C 173.952 78.620, 177.634 75.493, 178.255 73.828 C 178.654 72.756, 179.584 72.340, 180.843 72.669 C 182.270 73.042, 182.766 72.708, 182.654 71.449 C 182.569 70.496, 183.134 69.493, 183.909 69.221 C 184.883 68.880, 185.125 69.233, 184.691 70.364 C 184.230 71.565, 184.652 72.022, 186.281 72.082 C 188.143 72.150, 187.977 72.392, 185.250 73.584 C 183.463 74.366, 182 75.352, 182 75.775 C 182 76.199, 180.521 77.341, 178.714 78.315 C 176.907 79.288, 174.854 81.005, 174.151 82.129 C 172.996 83.979, 173.071 84.112, 174.937 83.520 C 176.141 83.138, 177 83.309, 177 83.933 C 177 84.520, 176.564 85, 176.031 85 C 175.499 85, 175.304 85.629, 175.600 86.399 C 176.230 88.042, 174.420 89.488, 173.532 88.051 C 172.831 86.918, 161.371 90.807, 152.960 95.033 C 149.913 96.564, 145.178 99.832, 142.438 102.296 C 139.698 104.760, 135.328 107.776, 132.728 108.998 C 130.128 110.220, 128 111.846, 128 112.610 C 128 113.375, 127.103 114, 126.006 114 C 124.492 114, 124.105 114.541, 124.395 116.250 C 124.634 117.653, 124.018 119.103, 122.760 120.101 C 120.881 121.593, 120.820 122.147, 121.871 128.183 C 122.492 131.748, 123 136.770, 123 139.345 L 123 144.026 157.750 143.763 L 192.500 143.500 192.757 71.750 L 193.013 0 96.507 0 L 0 0 0 72 M 0.474 72.500 C 0.474 112.100, 0.598 128.154, 0.750 108.176 C 0.901 88.198, 0.901 55.798, 0.750 36.176 C 0.598 16.554, 0.474 32.900, 0.474 72.500 M 81.401 3.160 C 80.403 4.775, 81.842 5.376, 84.194 4.327 L 86.406 3.340 84.204 2.764 C 82.993 2.447, 81.731 2.625, 81.401 3.160 M 150.029 46.961 C 149.220 47.473, 148.818 48.152, 149.136 48.470 C 149.455 48.788, 150.284 48.362, 150.980 47.524 C 152.423 45.786, 152.146 45.622, 150.029 46.961 M 148.392 54.174 C 147.689 55.313, 150.751 58.272, 151.898 57.563 C 153.276 56.711, 152.066 53.333, 150.383 53.333 C 149.574 53.333, 148.678 53.712, 148.392 54.174 M 144 59.559 C 144 60.416, 144.450 60.840, 145 60.500 C 145.550 60.160, 146 59.459, 146 58.941 C 146 58.423, 145.550 58, 145 58 C 144.450 58, 144 58.702, 144 59.559 M 140.656 68.750 C 140.403 69.162, 141.501 69.594, 143.097 69.710 C 144.694 69.825, 146 69.488, 146 68.960 C 146 67.834, 141.333 67.650, 140.656 68.750 M 179.427 81.479 C 177.735 82.759, 177.706 82.940, 179.191 82.968 C 180.121 82.986, 181.179 82.520, 181.541 81.933 C 182.630 80.171, 181.482 79.924, 179.427 81.479 M 138.025 82.022 C 136.113 82.472, 134.202 82.625, 133.776 82.362 C 133.351 82.099, 132.003 82.585, 130.779 83.442 C 129.556 84.299, 129.105 85, 129.777 85 C 130.450 85, 131 85.450, 131 86 C 131 86.550, 129.634 87, 127.965 87 C 125.274 87, 125.047 87.219, 125.965 88.934 C 126.534 89.998, 127.007 92.136, 127.015 93.684 C 127.035 97.355, 128.276 99.215, 130.209 98.473 C 131.739 97.886, 132.054 92.721, 130.646 91.313 C 130.291 90.957, 130 90.242, 130 89.723 C 130 89.203, 130.848 89.826, 131.885 91.107 C 132.922 92.387, 133.549 94.012, 133.278 94.717 C 133.008 95.423, 133.443 96, 134.245 96 C 136.005 96, 142.565 91.718, 141.941 90.976 C 141.698 90.688, 142.738 89.117, 144.250 87.486 C 145.762 85.855, 147 84.006, 147 83.377 C 147 82.402, 143.548 80.841, 142 81.116 C 141.725 81.165, 139.936 81.573, 138.025 82.022 M 134.750 84.392 C 132.453 86.136, 132.528 86.936, 134.931 86.308 C 135.993 86.030, 137.104 85.172, 137.399 84.401 C 138.069 82.658, 137.039 82.654, 134.750 84.392 M 139 85.713 C 139.825 86.019, 141.175 86.771, 142 87.384 C 143.303 88.354, 143.320 88.271, 142.128 86.750 C 141.373 85.787, 140.023 85.036, 139.128 85.079 C 137.766 85.145, 137.745 85.249, 139 85.713 M 149.760 90.975 C 148.379 92.061, 144.550 94.120, 141.250 95.551 C 135.484 98.052, 133 100.760, 133 104.547 C 133 106.903, 134.252 106.296, 141.171 100.589 C 144.779 97.613, 149.561 94.244, 151.798 93.103 C 154.034 91.962, 156.146 90.572, 156.491 90.014 C 157.620 88.188, 152.345 88.941, 149.760 90.975 M 130.543 100.931 C 130.226 101.443, 130.425 102.144, 130.984 102.490 C 131.543 102.835, 132 102.416, 132 101.559 C 132 99.802, 131.400 99.544, 130.543 100.931 M 128.250 106.346 C 125.298 109.264, 125.396 110.232, 128.500 108.818 C 129.875 108.192, 131 106.851, 131 105.839 C 131 103.600, 131.032 103.594, 128.250 106.346 M 178.250 106.175 C 174.248 108.649, 173.898 112.232, 177.433 114.548 C 180.599 116.622, 184 115.026, 184 111.465 C 184 109.985, 184.576 109, 185.441 109 C 187.551 109, 188.354 107.131, 186.964 105.456 C 185.332 103.490, 182.171 103.751, 178.250 106.175 M 106.065 119.099 C 104.726 119.634, 103.081 119.861, 102.409 119.604 C 101.738 119.346, 100.444 119.957, 99.535 120.961 C 98.335 122.287, 95.776 122.965, 90.191 123.435 C 78.520 124.418, 77.144 124.398, 68.219 123.118 C 61.351 122.133, 59.600 122.167, 57.958 123.317 C 55.286 125.188, 46.247 124.300, 43.115 121.859 C 41.803 120.837, 39.758 120, 38.570 120 C 36.801 120, 36.365 120.652, 36.167 123.591 C 36.034 125.566, 35.081 128.379, 34.050 129.841 C 33.018 131.304, 31.878 135.088, 31.515 138.250 L 30.856 144 69.928 144 L 109 144 109 139.723 C 109 137.370, 109.665 134.495, 110.478 133.335 C 111.291 132.174, 112.248 128.745, 112.604 125.715 C 113.180 120.812, 113.024 120.083, 111.191 119.102 C 108.828 117.838, 109.223 117.838, 106.065 119.099" stroke="none" fill="black" fill-rule="evenodd"/>
</svg>