<svg xmlns="http://www.w3.org/2000/svg" width="192" height="144" viewBox="0 0 192 144" version="1.1">
	<path d="M 63.364 5.750 C 64.139 12.908, 62.071 23.127, 58.171 31.412 C 50.413 47.892, 32.067 59.374, 13.500 59.368 C 9.100 59.366, 4.263 59.049, 2.750 58.663 L 0 57.962 0 100.981 L 0 144 55.364 144 L 110.728 144 111.351 139.454 C 111.694 136.954, 114.879 128.966, 118.428 121.704 C 126.045 106.122, 132.134 88.878, 130.241 88.247 C 129.559 88.020, 129 86.782, 129 85.497 C 129 83.294, 128.794 83.218, 125.369 84.164 C 121.030 85.362, 118.137 83.453, 119.556 80.328 C 120.012 79.322, 120.423 78.050, 120.469 77.500 C 120.515 76.950, 120.905 75.938, 121.335 75.250 C 121.766 74.563, 121.834 73.541, 121.488 72.980 C 121.141 72.419, 123.609 68.770, 126.973 64.872 C 132.799 58.119, 133.018 57.676, 131.596 55.506 C 129.903 52.923, 129.384 46.252, 130.456 40.865 C 130.914 38.564, 130.779 36.982, 130.090 36.556 C 126.471 34.319, 133.287 31, 141.500 31 C 151.158 31, 157.195 34.918, 153.621 38.866 C 152.676 39.910, 152 42.383, 152 44.795 C 152 48.829, 149.505 55.739, 147.500 57.257 C 146.888 57.721, 147.326 58.691, 148.630 59.757 C 152.923 63.269, 157.503 75.881, 155.982 80 C 155.880 80.275, 155.886 82.061, 155.994 83.968 C 156.149 86.701, 155.597 87.910, 153.388 89.671 L 150.585 91.906 152.412 95.703 C 153.417 97.791, 155.090 105.100, 156.130 111.944 C 157.169 118.788, 158.668 126.663, 159.461 129.444 C 160.253 132.225, 161.435 136.649, 162.088 139.276 L 163.274 144.052 177.887 143.776 L 192.500 143.500 192.825 129 C 193.003 121.025, 192.837 88.737, 192.455 57.250 L 191.761 0 127.251 -0 L 62.742 -0 63.364 5.750 M 0.459 101 C 0.459 124.925, 0.589 134.713, 0.749 122.750 C 0.908 110.788, 0.908 91.213, 0.749 79.250 C 0.589 67.288, 0.459 77.075, 0.459 101" stroke="none" fill="black" fill-rule="evenodd"/>
</svg>