<svg xmlns="http://www.w3.org/2000/svg" width="192" height="144" viewBox="0 0 192 144" version="1.1">
	<path d="M -0 72.005 L -0 144.010 96.250 143.755 L 192.500 143.500 192.757 71.750 L 193.013 0 135.383 0 L 77.752 0 78.338 5.750 C 80.346 25.430, 88.841 59.530, 93.514 66.661 C 95.206 69.244, 95.494 73, 94 73 C 93.450 73, 93 72.610, 93 72.133 C 93 71.656, 91.182 70.063, 88.960 68.592 C 84.064 65.352, 75.616 56.631, 69.497 48.500 C 64.332 41.636, 51.482 16.774, 47.918 6.750 L 45.518 0 22.759 0 L 0 0 -0 72.005 M 0.474 72.500 C 0.474 112.100, 0.598 128.154, 0.750 108.176 C 0.901 88.198, 0.901 55.798, 0.750 36.176 C 0.598 16.554, 0.474 32.900, 0.474 72.500" stroke="none" fill="black" fill-rule="evenodd"/>
</svg>