<svg xmlns="http://www.w3.org/2000/svg" width="192" height="144" viewBox="0 0 192 144" version="1.1">
	<path d="M -0 38.627 L -0 77.255 4.750 72.899 C 7.362 70.503, 10.243 67.639, 11.151 66.535 C 12.662 64.696, 13.127 64.637, 16.651 65.836 C 18.768 66.556, 25.450 69.559, 31.500 72.510 C 46.222 79.689, 49.855 80.536, 57.937 78.668 C 62.617 77.587, 65.060 77.474, 67.246 78.236 C 69.906 79.163, 70.457 78.972, 72.612 76.384 C 73.933 74.798, 75.779 72.269, 76.714 70.764 C 77.650 69.259, 80.795 66.784, 83.705 65.264 C 87.703 63.175, 88.996 61.950, 88.998 60.250 C 88.999 59.013, 89.477 58, 90.059 58 C 90.641 58, 90.859 57.581, 90.543 57.070 C 90.102 56.356, 84.500 56.304, 84.500 57.014 C 84.500 57.098, 83.487 57.279, 82.250 57.416 C 81.013 57.553, 80 57.135, 80 56.486 C 80 54.908, 76.016 50.434, 74.891 50.750 C 74.401 50.887, 74 50.362, 74 49.583 C 74 48.804, 73.438 47.960, 72.750 47.708 C 71.750 47.342, 71.750 46.985, 72.750 45.925 C 74.552 44.015, 74.337 41.657, 72.428 42.389 C 71.527 42.735, 69.440 41.912, 67.539 40.462 C 64.551 38.183, 64.334 37.686, 65.360 35.473 C 65.987 34.122, 66.993 33.012, 67.595 33.008 C 70.058 32.990, 72 29.256, 72 24.537 C 72 17.584, 73.808 12.579, 77.671 8.834 C 80.993 5.614, 81.271 5.540, 91.521 5.161 C 97.274 4.948, 103.547 5.068, 105.461 5.427 C 109.675 6.217, 114.469 10.073, 116.788 14.538 L 118.500 17.833 122.500 16.432 C 127.517 14.674, 128.170 14.673, 130.559 16.420 C 132.286 17.683, 132.513 19.197, 132.618 30.170 C 132.683 36.951, 133.174 44.566, 133.709 47.090 C 135.207 54.158, 131.334 67, 127.704 67 C 124.390 67, 120.785 54.446, 120.905 43.325 C 120.955 38.746, 120.773 35, 120.500 35 C 119.075 35, 117.367 41.694, 118.210 43.979 C 118.815 45.619, 118.765 46.578, 118.062 46.813 C 117.478 47.007, 117 48.240, 117 49.552 C 117 51.206, 116.563 51.770, 115.574 51.390 C 114.738 51.069, 113.454 51.904, 112.465 53.413 C 111.539 54.826, 110.408 55.752, 109.952 55.470 C 109.496 55.189, 108.757 55.611, 108.311 56.409 C 107.421 57.998, 103.912 58.075, 102.804 56.529 C 101.577 54.816, 101.042 56.508, 101.848 59.550 C 102.384 61.574, 103.950 63.234, 106.839 64.838 C 109.154 66.124, 112.950 69.554, 115.274 72.460 L 119.500 77.744 127 77.928 C 148.635 78.460, 146.684 78.830, 159.500 71.759 C 162.800 69.938, 167.975 67.360, 171 66.030 C 174.025 64.699, 176.743 63.467, 177.040 63.292 C 177.337 63.117, 180.705 65.904, 184.524 69.487 C 188.343 73.069, 191.812 76, 192.234 76 C 192.655 76, 193 58.900, 193 38 L 193 0 96.500 0 L 0 0 -0 38.627 M 0.454 39 C 0.454 60.175, 0.587 68.838, 0.749 58.250 C 0.911 47.663, 0.911 30.338, 0.749 19.750 C 0.587 9.163, 0.454 17.825, 0.454 39 M 172.741 70.411 C 167.678 73.474, 167.762 73.315, 169.476 76.601 C 171.512 80.506, 171.424 81.690, 168.322 92.053 C 165.605 101.128, 164.411 102.813, 163.575 98.750 C 163.320 97.513, 162.377 92.996, 161.479 88.712 C 159.891 81.137, 159.902 80.831, 161.890 77.462 C 164.254 73.456, 163.233 73.104, 158.118 76.165 C 150.936 80.462, 150.807 80.701, 153.158 85.310 L 155.235 89.382 152.496 99.191 C 150.989 104.586, 149.448 109, 149.072 109 C 148.695 109, 147.360 104.514, 146.105 99.030 C 144.032 89.975, 143.959 88.789, 145.305 86.091 C 146.120 84.457, 146.535 82.868, 146.227 82.560 C 145.569 81.902, 135 81.792, 135 82.443 C 135 82.686, 135.895 84.402, 136.988 86.255 C 138.884 89.469, 138.908 89.988, 137.495 97.562 C 134.616 112.989, 134.570 113.003, 130.546 99.660 C 127.966 91.104, 127.804 85.857, 130.077 84.452 C 132.225 83.125, 130.732 81.902, 127.316 82.190 C 124.183 82.454, 123.514 82.945, 122.842 85.476 C 122.387 87.191, 122.459 88.859, 123.012 89.412 C 123.626 90.026, 123.483 90.937, 122.614 91.936 C 121.513 93.205, 121.468 94.757, 122.378 100.155 C 123.476 106.667, 123.616 106.891, 128.882 110.513 C 131.843 112.549, 136.264 115.742, 138.709 117.608 C 142.210 120.280, 144.145 121.021, 147.827 121.100 C 154.290 121.238, 157.428 122.269, 157.837 124.390 C 158.116 125.842, 157.753 126.056, 155.974 125.492 C 154.362 124.980, 153.875 125.157, 154.177 126.145 C 154.911 128.554, 163.755 132.259, 168.541 132.162 C 170.994 132.113, 173 132.434, 173 132.876 C 173 134.247, 167.734 136.167, 162.478 136.712 C 157.955 137.181, 156.517 136.759, 147.978 132.459 C 125.860 121.320, 116.885 115.365, 115.463 110.884 C 115.129 109.832, 114.415 109.243, 113.876 109.576 C 112.092 110.679, 114.121 123.991, 117.063 130.479 C 118.586 133.837, 120.145 138.258, 120.529 140.305 L 121.227 144.025 156.864 143.763 L 192.500 143.500 192.641 120 C 192.719 107.075, 192.474 97.850, 192.096 99.500 C 191.454 102.307, 191.365 102.188, 190.710 97.647 C 189.987 92.633, 190.452 90.543, 192.069 91.543 C 192.590 91.865, 193 90.169, 193 87.692 C 193 83.636, 192.665 83.044, 189 80.619 C 184.612 77.715, 184.566 77.728, 185.975 81.434 C 186.745 83.459, 186.318 85.735, 183.947 92.249 C 182.295 96.787, 180.721 101.127, 180.448 101.893 C 179.561 104.389, 178.771 102.236, 176.998 92.490 L 175.254 82.904 177.527 79.555 C 181.075 74.327, 181.300 72.629, 178.759 70.251 L 176.500 68.136 172.741 70.411 M 12.465 72.038 C 10.665 74.027, 10.686 74.206, 13.327 79.421 L 16.034 84.766 13.879 94.883 C 12.695 100.447, 11.427 105, 11.063 105 C 9.343 105, 4.638 86.560, 5.394 82.780 C 5.948 80.010, 5.930 79.999, 3.477 81.607 L 1 83.230 1 113.615 L 1 144 35.889 144 L 70.777 144 71.425 140.551 C 71.780 138.654, 73.405 133.867, 75.036 129.913 C 77.344 124.315, 78 121.193, 78 115.798 L 78 108.872 73.865 113.415 C 65.174 122.965, 37.535 138.062, 28.931 137.959 C 25.269 137.915, 16.820 134.217, 16.274 132.419 C 16.071 131.749, 17.083 131.505, 18.937 131.778 C 22.235 132.262, 31.781 130.308, 33.750 128.747 C 35.611 127.271, 35.264 126, 33 126 C 31.900 126, 31 125.559, 31 125.019 C 31 123.496, 35.684 122.684, 40.906 123.302 C 45.594 123.858, 45.746 123.783, 55.050 116.354 C 60.223 112.224, 64.931 108.542, 65.513 108.172 C 66.094 107.803, 67.308 104.350, 68.210 100.500 C 69.625 94.463, 69.657 93.285, 68.439 91.936 C 67.587 90.992, 67.388 90.002, 67.937 89.436 C 68.437 88.921, 68.603 87.263, 68.306 85.750 C 67.831 83.326, 67.315 83, 63.960 83 L 60.153 83 61.677 86.054 C 63.464 89.637, 63.109 93.702, 60.161 103.385 C 56.904 114.080, 56.635 113.943, 54.325 100.405 C 52.732 91.067, 52.731 90.245, 54.314 87.073 C 55.241 85.214, 56 83.537, 56 83.346 C 56 83.156, 53.495 83, 50.433 83 C 45.084 83, 44.897 83.088, 45.683 85.250 C 46.132 86.487, 46.468 89.300, 46.429 91.500 C 46.339 96.542, 43.064 111, 42.012 111 C 41.578 111, 40.235 106.838, 39.027 101.750 C 37.819 96.662, 36.676 91.986, 36.488 91.357 C 36.299 90.728, 37.086 88.311, 38.237 85.986 L 40.329 81.757 37.915 79.901 C 34.739 77.460, 28.968 74.698, 28.345 75.322 C 28.074 75.593, 28.604 77.268, 29.524 79.046 C 30.597 81.121, 30.979 83.390, 30.591 85.388 C 28.596 95.673, 26.698 103, 26.029 103 C 25.606 103, 24.020 98.322, 22.504 92.605 C 19.880 82.704, 19.826 82.055, 21.375 78.951 C 23.663 74.364, 23.460 73.590, 19.466 71.685 C 15 69.555, 14.699 69.571, 12.465 72.038" stroke="none" fill="black" fill-rule="evenodd"/>
</svg>