<svg xmlns="http://www.w3.org/2000/svg" width="192" height="144" viewBox="0 0 192 144" version="1.1">
	<path d="M 57 0.684 C 57 2.228, 61.246 10, 62.089 10 C 62.590 10, 63 12.939, 63 16.531 C 63 21.415, 62.621 23.208, 61.500 23.638 C 60.326 24.089, 59.984 26.200, 59.927 33.357 C 59.887 38.386, 59.518 44.858, 59.108 47.740 C 58.459 52.293, 58.597 53.055, 60.160 53.551 C 61.150 53.865, 61.879 54.432, 61.780 54.811 C 61.681 55.190, 61.933 58.665, 62.340 62.534 C 62.960 68.437, 62.761 70.286, 61.105 74.034 C 60.020 76.490, 58.805 80.968, 58.406 83.984 C 57.365 91.854, 54.610 97.505, 51.107 98.956 C 45.702 101.195, 43.514 104.551, 43.368 110.830 C 43.228 116.818, 43.043 117.577, 39.791 125.500 C 36.339 133.910, 33 142.770, 33 143.520 C 33 143.784, 60.675 144, 94.500 144 L 156 144 156.015 139.750 C 156.036 134.067, 157.500 131.751, 158.359 136.044 C 158.711 137.807, 159 140.319, 159 141.625 L 159 144 175.609 144 L 192.219 144 191.579 136.250 C 190.794 126.742, 190.795 125.580, 191.586 115.172 L 192.219 106.845 186.359 107.134 L 180.500 107.422 178.321 100.961 C 177.123 97.408, 175.636 90.675, 175.017 86 C 174.398 81.325, 173.205 75.592, 172.367 73.261 C 170.554 68.219, 164.475 62.599, 157.750 59.747 C 153.103 57.777, 151.818 55.848, 154.181 54.388 C 154.870 53.962, 155.961 54.562, 156.803 55.829 C 157.595 57.023, 158.827 58, 159.539 58 C 160.251 58, 161.060 58.562, 161.338 59.250 C 162.836 62.964, 161.721 56.502, 160 51.500 C 158.900 48.303, 158.018 44.745, 158.040 43.593 C 158.075 41.747, 158.256 41.824, 159.572 44.250 C 162.053 48.824, 162.010 47.381, 159.440 39.825 C 156.600 31.474, 156.515 30.804, 158.639 33.500 C 160.155 35.424, 160.196 35.387, 159.725 32.500 C 159.456 30.850, 158.683 26.125, 158.007 22 C 156.486 12.720, 158.228 3.613, 161.557 3.442 C 165.962 3.215, 166.813 2.931, 167.362 1.500 C 167.869 0.178, 161.363 0, 112.469 0 C 81.961 0, 57 0.308, 57 0.684 M 73.642 31.209 C 73.306 32.469, 72.731 38.323, 72.367 44.217 C 72.002 50.112, 71.317 54.696, 70.845 54.404 C 69.796 53.756, 69.283 55.204, 68.587 60.771 C 68.089 64.752, 68.184 64.972, 69.986 64.008 C 72.445 62.691, 76.229 54.403, 78.021 46.404 C 79.074 41.706, 77.858 34.219, 75.472 30.709 C 74.335 29.037, 74.214 29.071, 73.642 31.209" stroke="none" fill="black" fill-rule="evenodd"/>
</svg>