<svg xmlns="http://www.w3.org/2000/svg" width="192" height="144" viewBox="0 0 192 144" version="1.1">
	<path d="M 0 72 L 0 144 18.418 144 L 36.837 144 39.055 137.250 C 41.944 128.455, 43.395 125.668, 48.646 118.826 C 52.168 114.236, 53 112.362, 53 109.017 C 53 106.238, 52.635 105.107, 51.888 105.569 C 51.087 106.064, 50.961 103.916, 51.438 97.878 C 51.802 93.270, 52.318 78.989, 52.585 66.142 C 53.090 41.797, 53.268 40.766, 58.158 33.905 C 60.105 31.172, 58.356 27.021, 54.973 26.345 C 51.924 25.735, 50.762 23, 53.552 23 C 55.240 23, 62.980 18.851, 62.992 17.939 C 62.997 17.631, 60.863 16.821, 58.250 16.139 C 53.289 14.845, 51.502 13.774, 49 10.593 C 47.565 8.769, 47.666 8.717, 51.321 9.402 C 53.423 9.795, 55.851 10.389, 56.718 10.722 C 57.810 11.141, 57.481 10.130, 55.647 7.431 C 54.191 5.289, 53 2.740, 53 1.768 C 53 0.122, 51.173 0, 26.500 0 L 0 0 0 72 M 60.684 6.136 L 65.500 12.273 66.067 8.386 C 66.379 6.249, 66.972 3.487, 67.385 2.250 C 68.108 0.080, 67.918 0, 62.001 0 L 55.867 0 60.684 6.136 M 71.539 4.592 C 71.160 7.117, 71.067 9.401, 71.333 9.667 C 71.599 9.932, 73.667 8.925, 75.929 7.429 C 78.190 5.932, 80.317 4.984, 80.656 5.322 C 81.702 6.369, 78.086 10.962, 73.983 13.799 C 69.628 16.809, 69.050 18, 71.941 18 C 73.009 18, 74.178 18.479, 74.540 19.065 C 74.902 19.651, 76.578 19.988, 78.265 19.815 C 80.075 19.629, 81.503 20.012, 81.749 20.750 C 81.979 21.437, 81.711 22, 81.155 22 C 79.314 22, 77 25.104, 77 27.571 C 77 28.907, 77.449 30, 77.997 30 C 80.088 30, 86.940 37.289, 88.071 40.715 C 88.785 42.879, 89.010 46.634, 88.638 50.193 C 87.869 57.551, 89.010 80, 90.154 80 C 90.619 80, 91 78.290, 91 76.200 C 91 71.756, 92.411 69.994, 95.950 70.015 C 100.174 70.041, 101.423 71.459, 101.159 75.932 C 101.023 78.237, 101.370 80, 101.959 80 C 103.007 80, 103.288 74.881, 103.512 51.749 C 103.612 41.371, 103.878 39.656, 105.791 37.069 C 107.857 34.275, 107.884 33.966, 106.375 30.356 C 104.286 25.356, 104.947 15.914, 107.799 10 C 109.925 5.593, 109.957 5.572, 109.349 9 C 108.387 14.418, 108.710 25.187, 109.929 28.352 C 110.761 30.510, 111.450 31.028, 112.764 30.483 C 120.715 27.181, 127.695 27.968, 132.424 32.697 L 135.115 35.388 137.527 32.444 C 141.196 27.964, 141.357 26.489, 138.513 23.419 C 135.324 19.979, 135.704 18.641, 140.050 18 C 142.986 17.567, 143.603 16.963, 144.644 13.500 C 145.391 11.013, 145.875 10.320, 145.923 11.668 C 146.055 15.390, 147.130 17, 149.485 17 C 150.733 17, 152.336 17.700, 153.045 18.555 C 154.123 19.853, 153.987 20.457, 152.222 22.222 C 150.442 24.003, 149.860 24.129, 148.530 23.025 C 146.637 21.454, 146.672 21.416, 145.152 26.710 C 144.487 29.026, 142.451 32.876, 140.627 35.265 C 138.079 38.603, 137.497 40.110, 138.111 41.772 C 138.552 42.962, 139.131 54.412, 139.398 67.218 C 139.666 80.023, 140.188 93.541, 140.559 97.257 C 140.972 101.388, 140.783 105.803, 140.075 108.618 C 138.368 115.397, 139.764 116.892, 151.008 120.328 C 159.198 122.830, 160.807 123.724, 165.007 128.105 C 167.764 130.980, 170.583 135.243, 171.735 138.277 L 173.717 143.500 182.858 143.788 L 192 144.075 192 72.038 L 192 0 132.114 0 L 72.227 0 71.539 4.592 M 94.119 95.558 C 93.525 97.762, 91.492 101.255, 89.601 103.321 C 86.564 106.636, 86.105 107.861, 85.684 113.788 C 85.421 117.479, 84.781 122.300, 84.262 124.500 L 83.317 128.500 82.575 125.500 C 81.113 119.589, 80.842 119.565, 78.944 125.181 C 77.038 130.818, 77.038 130.914, 79.051 137.431 L 81.080 144 97.902 144 L 114.724 144 115.389 137.506 C 115.919 132.330, 115.718 130.499, 114.396 128.481 C 113.484 127.089, 112.409 124.499, 112.009 122.725 C 111.256 119.392, 110.890 119.777, 109.371 125.500 C 108.577 128.487, 108.573 128.483, 108.220 124.500 C 108.026 122.300, 107.446 120.072, 106.933 119.550 C 106.420 119.027, 106 116.007, 106 112.839 C 106 107.444, 105.746 106.825, 102 103.117 C 99.800 100.939, 98 98.308, 98 97.270 C 98 96.232, 97.370 94.520, 96.599 93.466 C 95.287 91.672, 95.130 91.805, 94.119 95.558 M 75.610 119.417 C 75.276 120.747, 75.424 122.884, 75.938 124.167 C 76.721 126.120, 76.884 125.726, 76.937 121.750 C 77.006 116.523, 76.542 115.705, 75.610 119.417 M 115.169 122.500 C 115.179 128.001, 115.260 128.222, 116.143 125.158 C 116.762 123.006, 116.758 120.868, 116.131 119.158 C 115.314 116.926, 115.160 117.463, 115.169 122.500" stroke="none" fill="black" fill-rule="evenodd"/>
</svg>