<svg xmlns="http://www.w3.org/2000/svg" width="192" height="144" viewBox="0 0 192 144" version="1.1">
	<path d="M 56.336 28.717 C 53.359 29.090, 53.130 29.418, 52.466 34.250 C 51.839 38.803, 52.009 39.589, 53.956 41.165 C 55.164 42.144, 55.899 43.354, 55.590 43.855 C 55.280 44.355, 55.915 45.893, 56.999 47.272 C 58.754 49.503, 58.803 49.919, 57.440 51.050 C 56.598 51.749, 56.158 52.969, 56.462 53.761 C 56.770 54.563, 56.014 55.997, 54.757 56.998 C 53.516 57.987, 51.636 60.427, 50.580 62.422 C 48.665 66.037, 48.665 66.056, 50.830 68.983 C 53.489 72.580, 53.512 74.275, 50.978 79.859 C 49.890 82.257, 49 84.815, 49 85.544 C 49 86.987, 47.699 90.130, 45.539 93.903 C 44.366 95.952, 44.372 96.515, 45.582 97.725 C 46.363 98.506, 46.783 100.125, 46.516 101.322 C 45.544 105.685, 43.077 125.733, 42.404 134.750 L 41.713 144 61.436 144 L 81.159 144 80.563 141.250 C 80.235 139.738, 79.095 132.650, 78.031 125.500 C 75.521 108.649, 70.748 90.812, 67.797 87.255 C 67.063 86.371, 67.300 85.210, 68.614 83.255 C 70.080 81.071, 70.505 78.325, 70.663 70 C 70.773 64.225, 70.379 57.947, 69.787 56.048 C 69.034 53.631, 69.028 52.491, 69.768 52.244 C 71.914 51.529, 75.937 47.099, 76.508 44.824 C 77.293 41.695, 74.547 35.262, 70.713 31.250 C 67.504 27.891, 65.597 27.555, 56.336 28.717 M 123.828 59.604 C 119.906 61.257, 118.282 63.682, 119.967 65.367 C 122.016 67.416, 120.914 70.542, 116.997 73.793 C 112.792 77.285, 111.323 77.205, 106.769 73.233 C 105.286 71.941, 104.797 71.923, 103.365 73.112 C 102.445 73.875, 101.649 74.358, 101.596 74.185 C 101.543 74.012, 100.706 74.176, 99.735 74.548 C 98.764 74.921, 97.051 74.985, 95.928 74.691 C 94.634 74.353, 94.026 74.587, 94.269 75.329 C 94.480 75.973, 96.307 76.917, 98.329 77.427 C 100.666 78.016, 101.914 78.880, 101.753 79.795 C 101.582 80.767, 103.186 81.673, 106.678 82.579 C 116.556 85.141, 129.532 92.170, 128.646 94.479 C 128.362 95.221, 129 97.538, 130.064 99.626 C 131.129 101.714, 132 104.150, 132 105.039 C 132 105.928, 129.952 113.490, 127.450 121.842 C 124.947 130.195, 123.173 137.471, 123.507 138.012 C 123.841 138.552, 125.925 139.284, 128.137 139.638 C 130.438 140.006, 132.655 141.076, 133.320 142.140 C 134.207 143.562, 135.694 144, 139.624 144 C 143.926 144, 144.852 143.673, 145.290 142 C 145.577 140.900, 146.642 139.993, 147.656 139.985 C 151.673 139.951, 152.060 138.833, 150.618 131.449 C 149.872 127.627, 148.701 120.675, 148.017 116 C 146.778 107.531, 144.395 94.945, 143.453 91.896 C 142.804 89.794, 152.599 85.323, 161.154 83.816 C 167.124 82.764, 174 79.656, 174 78.008 C 174 76.916, 171.027 75.865, 169.903 76.560 C 169.398 76.872, 168.717 76.426, 168.388 75.569 C 168.059 74.712, 167.368 74.273, 166.851 74.592 C 166.335 74.911, 165.370 74.747, 164.706 74.228 C 163.888 73.588, 160.312 75.005, 153.578 78.637 C 148.122 81.581, 143.565 83.880, 143.453 83.745 C 143.340 83.610, 142.962 82.567, 142.613 81.427 C 142.120 79.818, 142.877 78.630, 145.989 76.129 C 153.185 70.347, 150.041 64.627, 139.619 64.542 C 134.749 64.502, 134.499 64.366, 134.007 61.500 C 133.580 59.018, 132.974 58.462, 130.496 58.278 C 128.848 58.155, 125.848 58.752, 123.828 59.604" stroke="none" fill="black" fill-rule="evenodd"/>
</svg>