<svg xmlns="http://www.w3.org/2000/svg" width="192" height="144" viewBox="0 0 192 144" version="1.1">
	<path d="M 0 72 L 0 144 13.750 143.972 L 27.500 143.945 29.766 140.722 C 31.013 138.950, 34.163 134.608, 36.766 131.073 C 39.370 127.538, 42.850 122.749, 44.500 120.430 C 46.150 118.112, 51.033 112.075, 55.351 107.015 C 62.734 98.364, 63.390 97.849, 66.351 98.371 C 71.706 99.315, 74.179 97.100, 75.847 89.863 C 77.761 81.557, 77.735 77.752, 75.715 70.637 C 73.892 64.216, 74.490 61.614, 78.047 60.485 C 79.174 60.127, 80.709 60.344, 81.459 60.966 C 83.743 62.861, 84.310 60.468, 84.801 46.857 C 85.187 36.180, 85.560 33.803, 87.068 32.438 C 88.061 31.539, 89.336 31.089, 89.900 31.438 C 91.775 32.597, 92.989 39.389, 92.994 48.750 C 92.997 53.837, 93.353 58, 93.785 58 C 94.217 58, 96.019 55.063, 97.789 51.474 C 101.183 44.590, 108.311 36, 110.627 36 C 112.727 36, 112.270 39.533, 109.451 45.096 C 106.692 50.540, 101 64.876, 101 66.379 C 101 66.888, 103.588 64.856, 106.750 61.864 C 113.682 55.305, 118.257 52, 120.404 52 C 123.476 52, 121.972 55.916, 116.684 61.693 C 111.222 67.658, 108 71.909, 108 73.148 C 108 73.535, 110.785 72.760, 114.190 71.426 C 120.244 69.053, 128 68.165, 128 69.845 C 128 71.376, 124.601 73.692, 117.500 77 C 108.482 81.201, 107.291 82.315, 106.446 87.339 C 105.395 93.589, 101.769 101.042, 97.660 105.400 C 93.548 109.759, 93.304 108.858, 100.989 117.675 C 103.470 120.521, 106.850 125.350, 108.500 128.408 C 111.030 133.095, 111.309 134.273, 110.280 135.921 C 109.375 137.373, 109.336 138.666, 110.132 140.949 L 111.203 144.022 151.852 143.761 L 192.500 143.500 192.529 71.500 C 192.545 31.900, 192.422 6.973, 192.256 16.107 L 191.953 32.714 189.383 32.222 C 187.969 31.952, 184.193 29.204, 180.992 26.115 C 177.791 23.027, 174.346 20.008, 173.336 19.408 C 172.326 18.807, 170.861 17.011, 170.079 15.416 C 169.298 13.821, 168.023 11.880, 167.246 11.103 C 165.410 9.267, 164 5.501, 164 2.435 L 164 0 82 0 L 0 0 0 72 M 0.474 72.500 C 0.474 112.100, 0.598 128.154, 0.750 108.176 C 0.901 88.198, 0.901 55.798, 0.750 36.176 C 0.598 16.554, 0.474 32.900, 0.474 72.500" stroke="none" fill="black" fill-rule="evenodd"/>
</svg>