<svg xmlns="http://www.w3.org/2000/svg" width="192" height="144" viewBox="0 0 192 144" version="1.1">
	<path d="M 50.348 28.250 C 50.092 28.663, 50.137 29.412, 50.448 29.916 C 50.760 30.420, 50.572 31.997, 50.030 33.420 C 49.023 36.070, 50.408 41, 52.161 41 C 52.622 41, 53 41.758, 53 42.686 C 53 43.613, 53.974 45.408, 55.164 46.675 C 57.239 48.883, 57.256 49.060, 55.567 50.927 C 54.597 51.998, 54.080 53.321, 54.418 53.868 C 54.756 54.415, 53.905 56.079, 52.526 57.567 C 51.147 59.054, 49.575 61.880, 49.032 63.845 C 48.196 66.873, 48.348 67.741, 50.023 69.524 C 52.361 72.014, 52.546 75.685, 50.561 80.216 C 48.975 83.837, 47.572 89.055, 47.851 90.296 C 47.950 90.734, 47.381 93.659, 46.587 96.796 C 45.792 99.933, 44.839 105.200, 44.468 108.500 C 44.097 111.800, 42.945 120.125, 41.907 127 C 40.870 133.875, 40.016 140.512, 40.011 141.750 L 40 144 60.107 144 C 75.961 144, 80.111 143.731, 79.726 142.729 C 79.458 142.029, 78.708 137.192, 78.060 131.979 C 77.412 126.765, 76.445 119.575, 75.910 116 C 74.819 108.695, 70.387 91.454, 68.891 88.693 C 68.148 87.323, 68.648 85.527, 70.956 81.265 C 72.630 78.174, 74 75.074, 74 74.375 C 74 73.677, 72.875 70.990, 71.500 68.404 C 70.125 65.818, 69 62.486, 69 61 C 69 59.514, 68.523 56.929, 67.939 55.255 C 66.957 52.437, 67.178 51.897, 70.939 47.943 C 73.173 45.595, 75 43.307, 75 42.857 C 75 40.412, 71.299 33.068, 68.637 30.231 C 65.650 27.046, 65.379 26.968, 58.192 27.231 C 54.134 27.379, 50.604 27.837, 50.348 28.250" stroke="none" fill="black" fill-rule="evenodd"/>
</svg>