<svg xmlns="http://www.w3.org/2000/svg" width="192" height="144" viewBox="0 0 192 144" version="1.1">
	<path d="M 0 72 L 0 144 27.030 144 L 54.060 144 51.798 140.941 C 48.981 137.130, 48.935 130.924, 51.696 127.157 C 59.330 116.744, 83.068 110.271, 104.760 112.688 C 116.063 113.947, 128.411 117.811, 134.481 121.987 C 142.080 127.215, 144.057 136.117, 138.850 141.660 L 136.621 144.032 164.561 143.766 L 192.500 143.500 192.757 71.750 L 193.013 0 96.507 0 L 0 0 0 72 M 0.474 72.500 C 0.474 112.100, 0.598 128.154, 0.750 108.176 C 0.901 88.198, 0.901 55.798, 0.750 36.176 C 0.598 16.554, 0.474 32.900, 0.474 72.500 M 101 118.514 C 101 118.647, 101.675 120.371, 102.500 122.346 C 103.325 124.320, 104 127.323, 104 129.019 C 104 131.625, 103.432 132.340, 100.324 133.638 C 96.287 135.325, 88.865 134.794, 87.220 132.701 C 85.569 130.600, 85.066 126.619, 85.954 122.691 L 86.816 118.881 83.658 119.563 C 74.359 121.568, 68 126.571, 68 131.881 C 68 135.090, 72.578 139.725, 78.284 142.296 C 81.263 143.637, 85.016 144, 95.920 144 C 109.092 144, 110.029 143.865, 115.021 141.250 C 121.681 137.761, 124.598 133.057, 122.554 129.104 C 119.922 124.015, 114.478 120.723, 106.212 119.220 C 103.345 118.699, 101 118.382, 101 118.514" stroke="none" fill="black" fill-rule="evenodd"/>
</svg>