<svg xmlns="http://www.w3.org/2000/svg" width="192" height="144" viewBox="0 0 192 144" version="1.1">
	<path d="M 29.750 8.071 C 27.752 9.594, 27 11.048, 27 13.390 C 27 15.826, 25.904 17.790, 22.512 21.432 C 18.144 26.123, 16.017 30.891, 16.006 36.018 C 16 38.586, 20.472 46.145, 21.779 45.778 C 22.176 45.666, 23.552 46.158, 24.838 46.870 C 26.551 47.819, 27.028 48.753, 26.623 50.367 C 26.219 51.977, 27.111 53.743, 29.937 56.929 C 33.358 60.785, 34.163 61.217, 36.903 60.669 C 38.606 60.329, 40 60.436, 40 60.909 C 40 62.027, 32.281 69, 31.043 69 C 29.278 69, 23 78.266, 22.985 80.894 C 22.956 85.748, 21.472 86.466, 19.251 82.701 C 17.543 79.807, 14 69.614, 14 67.596 C 14 67.268, 17.375 67, 21.500 67 C 25.833 67, 29 66.578, 29 66 C 29 65.431, 25.873 64.971, 21.750 64.934 C 17.614 64.896, 12.137 64.089, 9 63.054 C 1.606 60.616, 0 61.505, 0 68.035 C 0 72.664, 0.169 73, 2.500 73 C 3.875 73, 5 73.492, 5 74.092 C 5 74.693, 5.900 76.329, 7 77.727 C 8.100 79.126, 9 81.255, 9 82.460 C 9 83.664, 10.125 87.957, 11.500 92 C 12.875 96.043, 14 99.527, 14 99.743 C 14 99.959, 12.693 99.206, 11.096 98.068 C 9.498 96.931, 7.710 96, 7.121 96 C 6.182 96, 3 91.020, 3 89.550 C 3 89.247, 3.825 89, 4.833 89 C 8.062 89, 7.980 87.905, 4.203 80.631 L 0.500 73.500 0.219 86.424 C -0.121 102.039, 0.417 103.509, 10.155 113.576 C 16.914 120.562, 18.303 123.286, 15.632 124.311 C 14.635 124.694, 14.233 127.177, 14.147 133.490 C 14.082 138.250, 13.771 142.562, 13.455 143.072 C 13.109 143.633, 22.982 144, 38.441 144 C 61.940 144, 66.323 143.554, 63 141.500 C 61.046 140.293, 62.042 139.353, 64.840 139.763 C 68.268 140.266, 73.477 136.353, 72.516 133.997 C 71.526 131.573, 64.874 127, 62.339 127 C 60.365 127, 60.001 126.492, 60.007 123.750 C 60.011 121.963, 61.381 116.520, 63.051 111.655 C 65.416 104.764, 65.829 102.499, 64.921 101.405 C 62.509 98.498, 61.197 100.019, 59.488 107.701 C 56.189 122.529, 52.992 124.486, 53.006 111.668 C 53.015 103.180, 54.506 99.349, 58.079 98.634 C 60.062 98.238, 60.880 97.614, 60.411 96.856 C 59.889 96.011, 60.592 95.868, 62.950 96.340 C 65.594 96.869, 66.102 96.709, 65.637 95.496 C 65.288 94.586, 65.638 94, 66.531 94 C 67.339 94, 68 93.550, 68 93 C 68 92.450, 68.900 92, 70 92 C 71.100 92, 71.887 91.494, 71.750 90.875 C 71.612 90.256, 72.063 89.544, 72.750 89.292 C 73.562 88.994, 74.006 89.827, 74.017 91.667 C 74.028 93.368, 75.027 95.441, 76.517 96.855 C 77.883 98.150, 79 98.658, 79 97.983 C 79 97.069, 79.343 97.040, 80.342 97.869 C 81.080 98.481, 81.915 98.752, 82.197 98.469 C 82.480 98.187, 82.493 100.216, 82.228 102.978 C 81.907 106.323, 82.122 108, 82.873 108 C 83.493 108, 84 109.350, 84 111 C 84 113, 84.500 114, 85.500 114 C 86.435 114, 87 114.946, 87 116.514 C 87 118.622, 87.550 120.111, 89.726 123.893 C 89.850 124.108, 90.638 123.716, 91.476 123.020 C 92.757 121.957, 93 122.081, 93 123.796 C 93 124.918, 93.278 126.560, 93.617 127.444 C 94.126 128.770, 94.504 128.828, 95.781 127.776 C 97.160 126.638, 97.259 127.243, 96.692 133.346 C 96.174 138.936, 96.310 140.095, 97.437 139.663 C 98.303 139.330, 99.044 140.039, 99.427 141.567 C 100.335 145.181, 102.679 144.514, 104.054 140.250 C 104.719 138.188, 105.452 136.167, 105.684 135.760 C 106.426 134.458, 109.797 138.409, 110.155 141 L 110.500 143.500 139.250 143.765 C 155.062 143.911, 167.997 143.686, 167.993 143.265 C 167.989 142.844, 164.164 134.690, 159.493 125.144 C 154.822 115.598, 151 107.521, 151 107.194 C 151 106.867, 151.540 107.140, 152.200 107.800 C 153.924 109.524, 156.334 109.314, 155.638 107.500 C 155.042 105.945, 156.127 105.460, 157.386 106.720 C 158.611 107.944, 166 108.066, 166 106.862 C 166 106.114, 166.487 106.159, 167.500 107 C 168.678 107.978, 169 107.981, 169 107.015 C 169 106.339, 169.563 106.016, 170.250 106.297 C 174.925 108.209, 174.869 108.213, 174.281 105.966 C 173.763 103.987, 173.917 103.885, 175.854 104.922 C 178.538 106.358, 178.564 105.601, 175.955 101.937 L 173.910 99.064 177.548 100.584 C 183.357 103.012, 183.824 101.661, 178.448 97.983 C 175.726 96.122, 168.775 90.047, 163 84.484 C 150.628 72.566, 137.124 60.697, 133.836 58.850 C 132.140 57.898, 126.293 57.533, 112.500 57.519 C 94.964 57.501, 93.057 57.321, 87.749 55.178 C 84.586 53.901, 81.415 52.273, 80.703 51.560 C 79.274 50.131, 74.776 48.477, 74.023 49.103 C 73.761 49.321, 73.419 50.339, 73.262 51.365 C 72.899 53.742, 69.816 59, 68.784 59 C 67.487 59, 67.902 55.199, 69.250 54.746 C 70.221 54.419, 70.234 54.003, 69.311 52.883 C 68.656 52.090, 68.149 50.104, 68.184 48.471 C 68.279 43.935, 61.211 27.447, 56.756 21.811 C 54.340 18.754, 51.121 16.056, 48.514 14.903 C 46.095 13.833, 44.010 12.145, 43.715 11.017 C 42.669 7.020, 33.632 5.113, 29.750 8.071 M 64.032 58.731 C 64.006 61.331, 63.512 62.084, 61.500 62.589 C 59.705 63.040, 59 63.891, 59 65.608 C 59 68.918, 61.295 68.627, 64.411 64.923 C 67.387 61.386, 67.574 60.141, 65.532 57.441 C 64.142 55.604, 64.062 55.674, 64.032 58.731 M 55.070 65.691 C 55.109 66.136, 55.527 67.400, 56 68.500 C 56.829 70.428, 56.862 70.421, 56.930 68.309 C 56.968 67.104, 56.550 65.840, 56 65.500 C 55.450 65.160, 55.032 65.246, 55.070 65.691" stroke="none" fill="black" fill-rule="evenodd"/>
</svg>