<svg xmlns="http://www.w3.org/2000/svg" width="192" height="144" viewBox="0 0 192 144" version="1.1">
	<path d="M 0 72 L 0 144 51.500 144 C 86.235 144, 103 143.664, 103 142.968 C 103 140.844, 100.169 135.312, 96.150 129.584 C 93.868 126.331, 92 122.852, 92 121.853 C 92 118.625, 98.318 118.297, 115.400 120.641 L 120.299 121.313 119.604 115.906 C 119.222 112.933, 117.592 105.550, 115.983 99.500 C 112.922 87.988, 112.293 81.033, 113.521 72.250 C 114.054 68.437, 113.927 67, 113.060 67 C 112.312 67, 112.108 66.236, 112.513 64.958 C 112.870 63.835, 112.874 61.216, 112.524 59.140 C 112.041 56.285, 111.106 54.918, 108.693 53.538 C 100.474 48.837, 98.250 42.870, 101.523 34.299 C 103.155 30.027, 103.164 29.593, 101.643 28.481 C 99.421 26.856, 99.576 24.473, 102.054 22.164 C 103.911 20.434, 103.959 20.102, 102.554 18.697 C 101.699 17.842, 101 16.737, 101 16.240 C 101 14.657, 105.685 12.765, 107.881 13.462 C 109.573 13.999, 110 13.718, 110 12.067 C 110 9.867, 111.558 9.435, 113.977 10.965 C 114.981 11.600, 115.995 11.409, 117.144 10.370 C 118.334 9.293, 119.376 9.115, 120.667 9.768 C 121.675 10.279, 125.875 11.464, 130 12.402 C 134.125 13.340, 138.512 14.609, 139.748 15.222 C 140.985 15.835, 142.248 16.085, 142.555 15.778 C 143.652 14.681, 151.881 23.246, 153.416 27.083 C 154.277 29.233, 155.486 34.256, 156.104 38.246 C 156.721 42.236, 158.106 46.737, 159.182 48.250 C 161.132 50.994, 161.131 51, 159.068 51 C 157.062 51, 156.428 53.054, 156.909 58 C 157.015 59.092, 156.639 58.972, 155.527 57.559 C 154.083 55.723, 154 55.818, 154 59.309 C 154 63.379, 153.583 63.725, 151.357 61.500 C 149.168 59.311, 148 59.659, 148 62.500 C 148 63.875, 147.494 64.887, 146.875 64.750 C 146.256 64.612, 145.544 65.063, 145.292 65.750 C 144.980 66.601, 145.963 67, 148.370 67 C 155.180 67, 159.070 70.731, 160.621 78.750 C 160.967 80.537, 161.605 82, 162.040 82 C 163.714 82, 170.007 72.148, 169.757 69.918 C 169.588 68.412, 170.236 67.245, 171.643 66.523 C 175.284 64.653, 177.010 62.824, 176.254 61.637 C 175.856 61.012, 175.505 60.275, 175.473 60 C 175.441 59.725, 174.828 57.787, 174.111 55.693 C 173.348 53.466, 173.039 49.940, 173.365 47.193 C 174.974 33.634, 174.987 34, 172.929 34 C 170.544 34, 170.418 32.425, 172.700 31.148 C 174.275 30.266, 174.296 29.396, 172.987 19.348 C 172.210 13.382, 171.674 6.588, 171.796 4.250 L 172.019 0 86.009 0 L 0 0 0 72 M 174.069 1.750 C 174.107 2.712, 175.122 8.894, 176.325 15.487 C 178.199 25.757, 178.798 27.527, 180.506 27.835 C 183.769 28.423, 184.734 29.995, 182.233 30.649 C 179.673 31.319, 179.253 33.776, 181.546 34.656 C 182.397 34.983, 184.148 37.331, 185.438 39.875 C 186.728 42.419, 188.732 45.357, 189.892 46.405 L 192 48.310 192 24.155 L 192 0 183 0 C 175.069 0, 174.008 0.208, 174.069 1.750 M 191.079 58.583 C 191.127 59.748, 191.364 59.985, 191.683 59.188 C 191.972 58.466, 191.936 57.603, 191.604 57.271 C 191.272 56.939, 191.036 57.529, 191.079 58.583 M 115.543 63.931 C 115.226 64.443, 115.425 65.144, 115.984 65.490 C 116.543 65.835, 117 65.416, 117 64.559 C 117 62.802, 116.400 62.544, 115.543 63.931 M 120.615 65.560 C 120.325 66.316, 121.267 66.959, 123.048 67.220 C 127.392 67.858, 128.376 66.607, 124.487 65.390 C 121.906 64.582, 120.975 64.623, 120.615 65.560 M 190.161 67.547 C 189.522 68.948, 188.993 71.760, 188.985 73.797 C 188.965 78.520, 187.931 80.108, 185.094 79.770 C 183.218 79.546, 181.803 81.126, 176.828 89 C 173.526 94.225, 169.259 99.938, 167.345 101.697 C 164.500 104.310, 163.923 105.494, 164.183 108.188 C 164.411 110.555, 165.063 111.585, 166.500 111.845 C 169.301 112.351, 172 114.964, 172 117.169 C 172 118.191, 172.563 119.948, 173.250 121.074 C 174.304 122.801, 174.219 123.330, 172.704 124.455 C 171.395 125.426, 171.089 126.505, 171.573 128.434 C 172.589 132.483, 169.777 134.991, 164.479 134.760 C 158.953 134.519, 157.279 135.949, 157.806 140.460 L 158.219 144 175.109 144 L 192 144 192 104.500 C 192 82.775, 191.847 65, 191.661 65 C 191.474 65, 190.799 66.146, 190.161 67.547" stroke="none" fill="black" fill-rule="evenodd"/>
</svg>