<svg xmlns="http://www.w3.org/2000/svg" width="192" height="144" viewBox="0 0 192 144" version="1.1">
	<path d="M 0 9.371 L 0 18.742 4.986 19.404 C 8.691 19.895, 10.581 19.666, 12.345 18.510 C 15.095 16.708, 18 17.442, 18 19.939 C 18 21.421, 18.783 21.600, 23.546 21.205 C 29.417 20.718, 31.895 22.202, 31.968 26.250 C 31.986 27.212, 32.406 28, 32.902 28 C 34.557 28, 35.808 33.357, 34.610 35.311 C 33.689 36.813, 34.010 37.541, 36.500 39.593 C 38.150 40.952, 41.300 43.738, 43.500 45.782 C 45.700 47.827, 48.569 50.193, 49.875 51.039 C 51.647 52.187, 52.177 53.330, 51.962 55.539 C 50.824 67.234, 51.873 74.567, 57.038 91 C 63.962 113.027, 65.147 118.202, 64.796 124.865 C 64.535 129.842, 64.237 130.537, 62.248 130.820 C 61.009 130.996, 59.511 132.046, 58.918 133.153 C 57.981 134.905, 57.213 135.079, 53 134.500 C 48.784 133.920, 48.020 134.095, 47.080 135.851 C 46.486 136.961, 46 139.248, 46 140.934 L 46 144 60 144 L 74 144 74 135.965 C 74 130.331, 73.529 127.210, 72.422 125.522 C 71.436 124.016, 70.780 120.563, 70.672 116.307 C 70.531 110.725, 70.919 108.825, 72.832 105.750 C 74.390 103.244, 75.899 102, 77.382 102 C 81.294 102, 81.576 100.738, 80.450 88.292 C 79.529 78.107, 79.017 75.970, 76.692 72.610 C 74.706 69.741, 74 67.492, 74 64.037 C 74 59.462, 73.913 59.331, 70.275 58.426 C 68.023 57.866, 66.109 56.613, 65.436 55.256 C 64.823 54.022, 64.076 53.258, 63.775 53.558 C 63.475 53.859, 63.311 52.619, 63.411 50.802 C 63.634 46.760, 60.892 34.590, 58.837 30.500 C 56.452 25.755, 53.732 14.277, 54.214 10.994 C 54.476 9.212, 54.207 8, 53.550 8 C 52.866 8, 52.592 6.480, 52.829 4 L 53.210 0 26.605 0 L 0 0 0 9.371 M 0 81.892 L 0 144 14.868 144 L 29.737 144 30.301 139.795 C 30.611 137.482, 30.644 135.232, 30.373 134.795 C 30.103 134.358, 27.956 134, 25.601 134 C 21.963 134, 21.144 133.610, 20.137 131.401 C 19.076 129.072, 18.488 128.839, 14.479 129.158 C 12.018 129.354, 9.863 129.089, 9.689 128.568 C 8.697 125.592, 11.341 117.953, 16.522 108.827 C 30.935 83.438, 30.821 83.769, 28.718 73.212 C 27.462 66.908, 26.045 68.101, 26 75.500 C 25.982 78.452, 25.637 79.976, 25.158 79.222 C 23.818 77.110, 22.026 82.387, 22.692 86.487 C 23.254 89.952, 23.171 90.081, 20.778 89.480 C 18.556 88.923, 18.085 89.331, 16.568 93.122 C 15.263 96.382, 14.644 97.049, 13.945 95.946 C 13.442 95.150, 13.024 93.713, 13.015 92.750 C 13.006 91.679, 12.233 91, 11.026 91 C 8.080 91, 6.221 86.393, 5.764 77.963 C 5.325 69.869, 6.043 66.933, 10.942 56.774 C 14.203 50.012, 14.834 45.812, 13.460 40 C 12.466 35.796, 12.349 35.114, 12.152 32.389 C 12.031 30.704, 11.497 30.373, 9.512 30.753 C 6.464 31.336, 5.095 28.679, 6.930 25.741 C 8.442 23.320, 7.001 21.500, 2.750 20.457 L 0 19.783 0 81.892 M 35.015 69.750 C 35.026 73.185, 35.299 74.085, 36 73 C 37.278 71.023, 37.278 65, 36 65 C 35.450 65, 35.007 67.138, 35.015 69.750 M 38.366 136.816 C 37.795 137.192, 36.827 138.963, 36.216 140.750 C 35.127 143.933, 35.165 144, 38.052 144 C 40.745 144, 41 143.702, 41 140.559 C 41 136.944, 40.104 135.671, 38.366 136.816" stroke="none" fill="black" fill-rule="evenodd"/>
</svg>