<svg xmlns="http://www.w3.org/2000/svg" width="192" height="144" viewBox="0 0 192 144" version="1.1">
	<path d="M 63.755 4.805 C 65.052 18.301, 58.381 35.523, 48.086 45.257 C 35.961 56.720, 13.657 63.077, 1.750 58.464 C 0.100 57.825, 0 60.247, 0 100.893 L 0 144 52.385 144 L 104.770 144 105.479 138.250 C 105.869 135.088, 107.509 128.362, 109.123 123.305 C 113.173 110.619, 117.104 89.594, 116.370 84.548 C 115.953 81.688, 114.859 79.712, 112.640 77.814 L 109.500 75.127 111.126 70.564 C 112.020 68.054, 112.429 66, 112.035 66 C 111.641 66, 109.109 66.670, 106.409 67.489 C 101.929 68.847, 101.392 68.832, 100.260 67.312 C 99.579 66.396, 98.737 65.929, 98.391 66.275 C 98.045 66.622, 97.108 66.251, 96.310 65.452 C 95.511 64.654, 93.399 64, 91.616 64 C 88.786 64, 81.425 61.758, 67.614 56.690 C 65.476 55.906, 63.316 54.530, 62.814 53.632 C 61.417 51.137, 66.864 51.504, 73.780 54.372 C 81.178 57.439, 96.186 59.941, 96.766 58.203 C 96.988 57.535, 97.633 57.273, 98.197 57.622 C 98.762 57.971, 99.577 57.684, 100.010 56.984 C 100.630 55.980, 101.757 55.953, 105.341 56.856 C 112.313 58.611, 115.676 58.348, 116.290 56 C 116.626 54.713, 116.320 54, 115.432 54 C 113.788 54, 110.657 48.364, 111.523 46.964 C 111.855 46.426, 111.464 45.731, 110.654 45.421 C 108.335 44.531, 107.693 40.118, 109.484 37.384 C 110.655 35.597, 110.795 34.486, 110.030 33.056 C 109.463 31.997, 109 30.153, 109 28.957 C 109 27.088, 109.385 26.878, 111.750 27.461 C 117.106 28.782, 126.538 33.361, 129.300 35.982 C 131.513 38.082, 132.294 40.012, 133.029 45.198 C 133.540 48.806, 134.417 52.967, 134.979 54.444 C 135.540 55.922, 136 58.420, 136 59.997 C 136 62.041, 136.861 63.477, 139 65 C 141.473 66.761, 142 67.835, 142 71.118 C 142 73.308, 142.628 76.314, 143.395 77.800 C 144.162 79.285, 145.118 83.650, 145.519 87.500 C 145.920 91.350, 146.837 97.355, 147.556 100.845 C 148.861 107.173, 148.638 110, 146.834 110 C 146.310 110, 146.200 110.515, 146.590 111.145 C 147.076 111.932, 146.492 112.136, 144.724 111.798 L 142.150 111.306 144.060 116.151 C 145.110 118.816, 147.272 123.585, 148.863 126.748 C 150.455 129.912, 152.572 135.097, 153.568 138.271 L 155.379 144.043 173.939 143.771 L 192.500 143.500 192.825 129 C 193.003 121.025, 192.837 88.737, 192.455 57.250 L 191.761 0 127.527 -0 L 63.294 -0 63.755 4.805 M 0.459 101 C 0.459 124.925, 0.589 134.713, 0.749 122.750 C 0.908 110.788, 0.908 91.213, 0.749 79.250 C 0.589 67.288, 0.459 77.075, 0.459 101 M 137.486 90.692 C 137.882 94.923, 138.565 99.310, 139.003 100.442 C 140.666 104.739, 141.258 99.089, 139.996 90.972 C 138.375 80.553, 136.516 80.346, 137.486 90.692" stroke="none" fill="black" fill-rule="evenodd"/>
</svg>