<svg xmlns="http://www.w3.org/2000/svg" width="192" height="144" viewBox="0 0 192 144" version="1.1">
	<path d="M 63.426 8.750 C 63.302 23.436, 58.088 35.981, 48.321 45.089 C 42.992 50.060, 34.136 55.458, 29.500 56.561 C 27.850 56.954, 25.907 57.744, 25.182 58.317 C 23.671 59.510, 4.386 59.703, 1.750 58.551 C 0.099 57.829, 0 60.214, 0 100.893 L 0 144 52.385 144 L 104.770 144 105.453 138.529 C 105.829 135.521, 107.661 128.307, 109.523 122.498 C 111.386 116.690, 113.856 106.664, 115.011 100.219 C 117.524 86.205, 117.083 79.940, 113.414 77.536 C 110.821 75.836, 110.249 72.272, 112.035 68.934 C 113.275 66.617, 112.542 66.545, 107.146 68.449 C 103.536 69.722, 102.860 69.717, 101.550 68.407 C 100.730 67.588, 96.559 66.301, 92.280 65.548 C 82.125 63.760, 64.855 59.255, 63.689 58.089 C 62.399 56.799, 63.759 55, 66.024 55 C 67.072 55, 69.858 55.650, 72.215 56.445 C 77.623 58.268, 80.040 58.692, 89.973 59.558 C 96.058 60.089, 98 59.959, 98 59.022 C 98 58.334, 98.665 58.041, 99.500 58.362 C 100.325 58.678, 101 58.514, 101 57.998 C 101 57.470, 104.571 57.155, 109.136 57.279 C 116.214 57.471, 117.308 57.272, 117.548 55.750 C 117.699 54.788, 117.285 54, 116.627 54 C 115.252 54, 111.771 48.562, 112.610 47.724 C 112.916 47.417, 112.185 46.185, 110.985 44.985 C 109.344 43.344, 108.973 42.148, 109.485 40.152 C 110.351 36.778, 110.345 34.209, 109.466 30.750 C 108.560 27.188, 110.010 27.166, 120.091 30.592 C 129.198 33.686, 132.704 36.611, 133.464 41.748 C 133.770 43.812, 134.757 47.525, 135.659 50 C 136.561 52.475, 137.413 56.642, 137.553 59.259 C 137.734 62.644, 138.479 64.716, 140.135 66.436 C 141.847 68.215, 142.383 69.777, 142.162 72.343 C 141.997 74.261, 142.568 77.197, 143.431 78.866 C 144.294 80.535, 145.030 84.061, 145.066 86.700 C 145.102 89.340, 145.690 95.438, 146.372 100.250 C 147.055 105.062, 147.264 109, 146.838 109 C 146.412 109, 146.350 109.749, 146.701 110.664 C 147.070 111.625, 146.930 112.075, 146.370 111.729 C 145.837 111.399, 144.901 111.930, 144.290 112.908 C 143.395 114.340, 144.029 116.475, 147.554 123.892 C 149.960 128.955, 152.705 135.560, 153.654 138.570 L 155.379 144.043 173.939 143.771 L 192.500 143.500 192.825 129 C 193.003 121.025, 192.837 88.737, 192.455 57.250 L 191.761 0 127.630 0 L 63.500 0 63.426 8.750 M 0.459 101 C 0.459 124.925, 0.589 134.713, 0.749 122.750 C 0.908 110.788, 0.908 91.213, 0.749 79.250 C 0.589 67.288, 0.459 77.075, 0.459 101 M 138.477 93.755 C 138.587 97.195, 138.974 100.308, 139.338 100.672 C 140.230 101.564, 139.994 93.135, 139.039 90 C 138.537 88.354, 138.345 89.636, 138.477 93.755" stroke="none" fill="black" fill-rule="evenodd"/>
</svg>