<svg xmlns="http://www.w3.org/2000/svg" width="192" height="144" viewBox="0 0 192 144" version="1.1">
	<path d="M 121.655 0.678 C 121.282 1.051, 118.822 1.258, 116.188 1.138 C 111.659 0.931, 111.216 1.148, 108.003 5.146 C 104.491 9.516, 103.696 13.847, 105.737 17.494 C 106.846 19.476, 106.281 23, 104.854 23 C 104.352 23, 101.664 21.200, 98.881 19 C 96.098 16.800, 93.017 15, 92.035 15 C 91.053 15, 88.885 14.727, 87.217 14.393 C 83.948 13.740, 82.918 14.816, 81.619 20.250 C 81.074 22.531, 81.293 23, 82.901 23 C 84.233 23, 85.043 23.918, 85.485 25.931 C 86.264 29.478, 87.433 30.527, 92 31.779 L 95.500 32.739 92.724 33.855 C 89.746 35.052, 89.262 35.849, 88.697 40.495 C 88.353 43.324, 87.932 43.584, 81.127 45.165 C 74.838 46.627, 73.575 46.660, 71.210 45.426 C 69.720 44.649, 67.600 44.010, 66.500 44.008 C 63.920 44.002, 57.505 47.199, 57.485 48.500 C 57.476 49.050, 57.154 49.995, 56.769 50.599 C 56.088 51.667, 57.315 52.470, 63.306 54.880 C 64.850 55.501, 65.833 56.461, 65.491 57.015 C 65.149 57.568, 67.114 61.377, 69.857 65.478 C 72.600 69.580, 75.123 73.812, 75.463 74.884 C 75.803 75.956, 77.452 77.310, 79.126 77.894 C 83.276 79.341, 87.440 77.488, 93.225 71.620 C 98.674 66.092, 100.286 65.745, 99.583 70.250 C 99.304 72.037, 98.798 77.803, 98.459 83.062 C 97.942 91.069, 98.098 92.837, 99.421 93.934 C 101.507 95.666, 101.414 98.268, 99.105 102.795 C 98.062 104.838, 96.245 111.088, 95.067 116.683 C 92.621 128.294, 90.803 135.092, 88.908 139.712 C 88.183 141.478, 87.839 143.172, 88.143 143.476 C 88.446 143.780, 103.177 143.909, 120.877 143.764 L 153.059 143.500 149.563 138 C 146.492 133.170, 143.315 125.849, 135.818 106.329 C 134.725 103.485, 132.995 100.401, 131.973 99.475 C 129.361 97.112, 128.414 92.176, 130.286 90.680 C 131.240 89.916, 131.973 86.788, 132.362 81.816 C 133.003 73.624, 135.278 66.491, 137.525 65.629 C 138.279 65.339, 139.642 63.658, 140.555 61.893 C 142.516 58.101, 141.808 49.311, 139.400 47.550 C 138.108 46.606, 138.203 45.760, 140.139 40.983 C 141.361 37.967, 142.469 35.348, 142.602 35.161 C 143.034 34.556, 165.439 29.044, 167.559 29.022 C 168.691 29.010, 170.427 28.408, 171.416 27.685 C 173.111 26.446, 173.072 26.277, 170.732 24.744 C 168.388 23.208, 167.594 23.301, 156.375 26.422 L 144.500 29.726 143.153 26.633 C 142.062 24.127, 142.046 23.156, 143.068 21.520 C 144.779 18.781, 145.354 13, 143.915 13 C 143.207 13, 143.018 12.064, 143.411 10.500 C 143.916 8.486, 143.666 8, 142.126 8 C 141.074 8, 139.955 7.325, 139.638 6.500 C 139.322 5.675, 138.406 5, 137.604 5 C 136.802 5, 135.260 3.875, 134.179 2.500 C 132.555 0.436, 131.350 0, 127.273 0 C 124.556 0, 122.028 0.305, 121.655 0.678 M 2.692 23.257 L -0.031 28.500 -0.016 86.250 L 0 144 16.500 144 C 25.575 144, 33 143.696, 33 143.325 C 33 142.954, 31.872 139.382, 30.493 135.387 C 29.114 131.392, 27.130 123.933, 26.083 118.812 C 25.037 113.690, 23.027 107.362, 21.618 104.750 C 19.592 100.993, 19.370 100, 20.560 100 C 23.156 100, 23.148 97.584, 20.532 91.668 C 17.179 84.086, 17.332 81.469, 21.500 75.140 C 25.370 69.264, 25.724 68, 23.500 68 C 22.675 68, 22.112 67.455, 22.250 66.789 C 22.597 65.108, 24.371 63.132, 25.125 63.587 C 25.469 63.794, 25.751 62.734, 25.753 61.232 C 25.755 59.661, 24.562 57.136, 22.946 55.292 C 19.308 51.140, 18.079 44.055, 20.386 40.533 C 22.476 37.345, 22.476 37.347, 19.250 36.689 C 14.857 35.793, 7.803 27.888, 7.402 23.411 C 6.880 17.601, 5.651 17.560, 2.692 23.257 M 157 28.028 C 155.625 28.507, 151.879 29.638, 148.676 30.542 C 145.473 31.445, 143.090 32.424, 143.382 32.715 C 144.064 33.397, 162.193 29.019, 163.450 27.869 C 164.664 26.758, 160.342 26.865, 157 28.028 M 86.813 46.683 C 87.534 46.972, 88.397 46.936, 88.729 46.604 C 89.061 46.272, 88.471 46.036, 87.417 46.079 C 86.252 46.127, 86.015 46.364, 86.813 46.683 M 84 48.792 C 80.425 49.655, 77.409 50.409, 77.297 50.467 C 77.185 50.525, 78.444 53.406, 80.094 56.870 C 82.780 62.511, 83.271 63.029, 84.797 61.834 C 87.297 59.876, 87.968 58.740, 87.985 56.434 C 87.995 55.070, 89.374 53.596, 92.047 52.094 C 95.327 50.250, 95.873 49.552, 94.925 48.409 C 93.523 46.720, 92.430 46.758, 84 48.792" stroke="none" fill="black" fill-rule="evenodd"/>
</svg>