<svg xmlns="http://www.w3.org/2000/svg" width="192" height="144" viewBox="0 0 192 144" version="1.1">
	<path d="M 0 72 L 0 144 8.120 144 L 16.240 144 15.807 138.250 C 15.511 134.321, 14.035 129.542, 11.146 123.159 C 4.787 109.105, 2.694 99.186, 2.674 83 C 2.655 67.953, 3.936 58.905, 8.012 45.307 C 10.432 37.234, 10.597 35.870, 9.368 34.115 C 7.155 30.956, 10.165 29.860, 16.162 31.641 C 22.048 33.389, 33.955 38.671, 35.998 40.440 C 37.815 42.013, 75.340 55, 78.069 55 C 79.333 55, 80 54.309, 80 53 C 80 51.119, 78.608 50.569, 74.250 50.731 C 72.131 50.810, 72.854 48.218, 76.250 43.562 C 78.037 41.112, 80.981 37.052, 82.792 34.540 C 84.602 32.028, 87.752 28.871, 89.792 27.525 C 93.281 25.221, 93.976 25.125, 101.565 25.894 C 111.384 26.889, 114.138 28.539, 117.520 35.451 C 119.695 39.897, 119.913 41.097, 118.935 43.243 C 118.300 44.638, 116.660 46.290, 115.292 46.913 C 113.603 47.683, 113.002 48.563, 113.421 49.654 C 114.199 51.683, 109.518 57.988, 107.199 58.033 C 105.815 58.060, 105.938 58.431, 107.861 60.033 C 109.159 61.115, 110.812 62, 111.534 62 C 112.256 62, 114.162 63.107, 115.769 64.459 C 119.386 67.503, 140.261 73.007, 149.869 73.450 C 156.555 73.759, 160 74.614, 161.096 76.237 C 161.423 76.722, 168.511 78.518, 176.846 80.229 L 192 83.339 192 86.776 C 192 89.642, 191.709 90.101, 190.250 89.536 C 189.287 89.164, 182.366 87.256, 174.868 85.296 L 161.236 81.733 157.436 85.939 C 155.346 88.252, 152.031 90.950, 150.068 91.934 C 143.051 95.453, 127.224 100.112, 123.336 99.804 C 119.544 99.503, 119.496 99.544, 119.183 103.364 C 118.946 106.249, 119.416 107.814, 121.038 109.540 C 122.232 110.812, 122.920 112.320, 122.567 112.892 C 121.816 114.107, 125.159 121.057, 127.382 122.902 C 128.874 124.140, 134 132.293, 134 133.428 C 134 133.743, 132.922 134, 131.604 134 C 129.241 134, 129.224 134.068, 130.419 138.750 L 131.631 143.500 162.065 143.500 L 192.500 143.500 192.757 71.750 L 193.013 0 96.507 0 L 0 0 0 72 M 0.474 72.500 C 0.474 112.100, 0.598 128.154, 0.750 108.176 C 0.901 88.198, 0.901 55.798, 0.750 36.176 C 0.598 16.554, 0.474 32.900, 0.474 72.500 M 30.143 46.750 C 27.665 51.428, 23.061 66.458, 21.934 73.550 C 21.238 77.922, 20.638 86.450, 20.600 92.500 C 20.534 103.028, 20.742 104.156, 25.450 118.783 L 30.369 134.066 28.270 139.033 L 26.172 144 48.336 143.937 L 70.500 143.875 78.838 133.561 C 89.359 120.546, 96.024 110.438, 95.917 107.657 C 95.864 106.284, 93.592 103.662, 89.667 100.443 C 82.125 94.258, 81.322 91.125, 85.620 84.656 C 87.138 82.370, 88.294 79.422, 88.189 78.104 C 88.084 76.786, 88.479 75.127, 89.067 74.419 C 89.655 73.710, 89.993 71.639, 89.818 69.815 C 89.525 66.759, 89.255 66.523, 86.369 66.798 C 82.838 67.134, 79.551 64.612, 80.454 62.260 C 80.846 61.238, 80.553 60.957, 79.511 61.357 C 78.674 61.679, 77.996 61.394, 77.990 60.719 C 77.980 59.402, 36.989 44.983, 33.285 44.994 C 32.067 44.997, 30.653 45.788, 30.143 46.750 M 119.031 73.250 C 119.048 73.938, 120.171 76.300, 121.526 78.500 C 122.881 80.700, 123.992 83.936, 123.995 85.691 C 123.998 87.446, 124.378 89.116, 124.841 89.402 C 125.798 89.993, 145.038 85.093, 146.377 83.917 C 146.859 83.493, 146.980 82.058, 146.646 80.728 C 146.106 78.574, 144.692 77.962, 133.770 75.151 C 120.028 71.615, 118.987 71.481, 119.031 73.250 M 91.994 89.507 C 90.864 90.869, 90.990 91.434, 92.832 93.277 L 95 95.444 94.985 92.972 C 94.961 89.120, 93.612 87.557, 91.994 89.507" stroke="none" fill="black" fill-rule="evenodd"/>
</svg>