<svg xmlns="http://www.w3.org/2000/svg" width="192" height="144" viewBox="0 0 192 144" version="1.1">
	<path d="M 0 72 L 0 144 63.500 144 C 104.382 144, 127 143.650, 127 143.018 C 127 142.478, 125.432 140.421, 123.515 138.448 C 117.196 131.941, 113.961 124.252, 112.447 112.141 C 111.908 107.830, 108.760 100.397, 105.207 95.047 C 103.946 93.148, 103.046 90.673, 103.207 89.547 C 103.519 87.369, 96.595 80.035, 94.205 80.012 C 93.276 80.004, 93.089 79.045, 93.542 76.628 C 94.156 73.354, 94.063 73.235, 90.337 72.554 C 85.333 71.639, 82.526 69.762, 80.706 66.113 C 79.034 62.762, 79.484 55.223, 81.599 51.147 C 83.254 47.956, 82.626 47, 78.873 47 L 75.864 47 77.932 44.096 C 79.069 42.498, 80 40.780, 80 40.276 C 80 39.773, 81.800 39.372, 84 39.385 C 86.597 39.400, 88 39.863, 88 40.704 C 88 42.168, 90.590 42.473, 91.432 41.109 C 92.315 39.681, 101.256 35.277, 105.709 34.078 C 111.686 32.469, 118.744 34.290, 126.082 39.336 C 132.281 43.598, 133.347 44.949, 137.114 53.316 C 139.235 58.026, 139.373 58.127, 143.391 57.880 C 146.141 57.711, 147.417 58.019, 147.250 58.813 C 147.113 59.466, 147.498 60, 148.107 60 C 148.716 60, 148.966 60.647, 148.662 61.438 C 148.308 62.362, 148.894 63.031, 150.305 63.311 L 152.500 63.746 150.250 64.490 C 147.925 65.258, 147.283 66.583, 148.955 67.167 C 149.490 67.353, 149.215 68.929, 148.330 70.750 C 147.207 73.061, 146.064 74, 144.375 74 C 143.069 74, 142 74.434, 142 74.965 C 142 77.402, 137.910 78.124, 132.702 76.606 L 127.500 75.090 130 77.070 L 132.500 79.051 129.500 78.463 C 126.744 77.923, 127.029 78.372, 133 83.982 C 136.575 87.340, 141.075 90.931, 143 91.961 C 144.925 92.991, 147.072 94.781, 147.772 95.938 C 148.957 97.899, 153.548 100.378, 163.668 104.523 C 169.122 106.756, 176 113.377, 176 116.393 C 176 117.669, 174.538 120.700, 172.750 123.130 C 169.498 127.550, 167 131.584, 167 132.415 C 167 132.658, 167.707 133.564, 168.571 134.429 C 169.807 135.664, 172.464 136, 181.011 136 L 191.879 136 192.272 139.750 C 192.487 141.813, 192.739 111.213, 192.832 71.750 L 193 0 96.500 0 L 0 0 0 72 M 0.474 72.500 C 0.474 112.100, 0.598 128.154, 0.750 108.176 C 0.901 88.198, 0.901 55.798, 0.750 36.176 C 0.598 16.554, 0.474 32.900, 0.474 72.500" stroke="none" fill="black" fill-rule="evenodd"/>
</svg>