<svg xmlns="http://www.w3.org/2000/svg" width="192" height="144" viewBox="0 0 192 144" version="1.1">
	<path d="M 0 8.906 L 0 17.812 4.896 18.486 C 8.329 18.958, 10.645 18.728, 12.646 17.717 C 15.999 16.022, 18 16.471, 18 18.916 C 18 20.426, 18.757 20.602, 23.546 20.205 C 29.417 19.718, 31.895 21.202, 31.968 25.250 C 31.986 26.212, 32.406 27, 32.902 27 C 33.398 27, 34.298 28.417, 34.902 30.148 C 35.730 32.523, 35.699 33.658, 34.777 34.769 C 33.774 35.977, 34.063 36.624, 36.389 38.371 C 37.948 39.542, 40.814 42.075, 42.758 44 C 44.702 45.925, 47.464 48.280, 48.896 49.234 C 51.402 50.902, 51.505 51.356, 51.641 61.234 C 51.778 71.113, 52.419 74.456, 57.453 91.500 C 60.112 100.503, 62.218 105.983, 62.865 105.586 C 63.764 105.033, 64.386 111.088, 64.447 120.983 C 64.495 128.678, 64.315 129.503, 62.510 129.853 C 61.416 130.065, 59.891 131.138, 59.122 132.236 C 57.945 133.916, 57.007 134.136, 53.215 133.616 C 47.460 132.827, 46 134.043, 46 139.622 L 46 144 63.839 144 L 81.679 144 82.839 141.453 C 83.478 140.052, 84 137.400, 84 135.561 C 84 132.721, 83.244 131.638, 78.994 128.397 C 76.240 126.298, 72.859 122.874, 71.480 120.790 C 70.100 118.705, 68.565 117, 68.069 117 C 65.244 117, 64.129 95.104, 66.032 77.031 C 67.211 65.831, 68.536 61.720, 72.250 57.738 C 74.023 55.836, 75.008 53.671, 75.022 51.644 C 75.034 49.915, 75.934 46.538, 77.022 44.141 C 78.110 41.743, 79 38.293, 79 36.474 C 79 34.655, 79.556 32.981, 80.235 32.755 C 81.212 32.429, 81.199 30.997, 80.172 25.922 C 77.974 15.056, 76.839 12.084, 74.617 11.378 C 70.007 9.915, 67 6.731, 67 3.312 L 67 0 33.500 0 L 0 0 0 8.906 M 0 49.167 C 0 65.758, 0.255 79.078, 0.567 78.766 C 0.879 78.454, 1.718 75.689, 2.431 72.620 C 3.144 69.551, 6.039 63.036, 8.864 58.141 C 14.441 48.479, 14.737 46.832, 12.767 36.450 C 11.870 31.721, 11.122 29.991, 10.017 30.092 C 9.183 30.168, 7.938 30.178, 7.250 30.115 C 5.766 29.978, 5.561 25.389, 7 24.500 C 8.879 23.339, 8.002 21.899, 4.532 20.449 C 2.625 19.652, 0.825 19, 0.532 19 C 0.239 19, 0 32.575, 0 49.167 M 35 68.500 C 35 70.975, 35.209 73, 35.465 73 C 36.699 73, 37.977 68.757, 37.416 66.521 C 36.399 62.469, 35 63.616, 35 68.500 M 24.690 74.366 C 24.310 75.355, 23.955 77.814, 23.900 79.832 C 23.731 86.066, 22.652 88.537, 20.248 88.196 C 18.709 87.978, 17.663 88.751, 16.528 90.946 C 14.776 94.334, 13.523 94.805, 12.607 92.418 C 11.599 89.792, 11.914 87.752, 13.619 85.869 C 14.735 84.636, 15.024 83.233, 14.551 81.349 L 13.866 78.617 10.484 82.308 C 7.802 85.236, 6.367 86, 3.551 86 L 0 86 0 115 L 0 144 14.870 144 L 29.740 144 30.275 139.251 C 30.570 136.639, 30.602 134.164, 30.346 133.751 C 30.091 133.338, 28.160 133, 26.056 133 C 23.075 133, 21.867 132.446, 20.587 130.493 C 19.133 128.273, 18.478 128.060, 14.882 128.635 L 10.820 129.284 11.391 123.993 C 11.976 118.567, 13.110 116.007, 23.877 95.805 L 30.109 84.111 29.175 78.305 C 28.576 74.580, 28.182 73.575, 28.076 75.500 L 27.910 78.500 26.645 75.534 C 25.568 73.009, 25.277 72.835, 24.690 74.366 M 36.647 137.750 C 36.378 138.713, 35.868 140.512, 35.512 141.750 C 34.941 143.735, 35.227 144, 37.933 144 C 40.845 144, 41 143.797, 41 140 C 41 136.713, 40.655 136, 39.067 136 C 38.004 136, 36.915 136.787, 36.647 137.750" stroke="none" fill="black" fill-rule="evenodd"/>
</svg>