<svg xmlns="http://www.w3.org/2000/svg" width="192" height="144" viewBox="0 0 192 144" version="1.1">
	<path d="M 0 72 L 0 144 14.928 144 L 29.856 144 30.534 138.576 C 30.907 135.592, 30.912 132.667, 30.547 132.076 C 30.181 131.484, 27.936 131, 25.558 131 C 22.074 131, 21.132 130.611, 20.710 129 C 20.296 127.417, 19.346 127, 16.153 127 C 13.934 127, 11.840 126.550, 11.500 126 C 11.160 125.450, 9.988 125, 8.896 125 C 7.144 125, 6.991 124.556, 7.599 121.250 C 7.978 119.188, 8.703 117.230, 9.211 116.900 C 9.718 116.570, 10.233 115.670, 10.356 114.900 C 10.581 113.483, 13.917 107.920, 15.093 107 C 16.416 105.966, 27.997 86.447, 27.999 85.250 C 28 83.531, 25.341 83.669, 24.668 85.422 C 24.349 86.255, 23.320 86.635, 22.189 86.339 C 20.833 85.985, 19.599 86.755, 18.059 88.917 C 15.209 92.920, 14 92.817, 14 88.573 C 14 86.052, 14.704 84.591, 16.662 83.051 C 19.242 81.022, 19.265 80.913, 17.412 79.507 C 16.360 78.709, 14.896 78.271, 14.157 78.532 C 9.462 80.197, 8 80.178, 8 78.453 C 8 76.786, 7.891 76.789, 5.994 78.506 C 4.890 79.504, 3.747 80.080, 3.452 79.785 C 1.931 78.264, 5.217 66.248, 8.831 60.115 C 14.652 50.240, 15.293 47.472, 14.488 35.672 L 13.791 25.437 11.145 25.469 C 8.033 25.506, 6.957 22.111, 9.431 20.057 C 11.471 18.364, 9.950 15.543, 5.855 13.425 C 3.627 12.273, 3.073 11.527, 3.861 10.739 C 4.650 9.950, 5.490 10.134, 6.889 11.399 C 7.953 12.363, 9.427 13.242, 10.162 13.354 C 10.898 13.465, 12.082 13.920, 12.794 14.364 C 13.521 14.818, 14.701 14.663, 15.489 14.009 C 17.783 12.106, 21.536 13.153, 21.284 15.627 C 21.088 17.558, 21.454 17.703, 25.388 17.260 C 27.763 16.992, 30.632 17.268, 31.763 17.873 C 34.502 19.339, 38.162 30.768, 36.661 33.171 C 35.799 34.552, 36.778 35.970, 42.191 41.175 C 45.808 44.654, 49.563 47.970, 50.533 48.545 C 52.036 49.435, 52.326 51.288, 52.488 61.045 C 52.661 71.443, 53.103 73.931, 57.276 88 C 59.805 96.525, 62.803 106.649, 63.937 110.497 C 66.411 118.888, 66.731 128, 64.552 128 C 63.755 128, 61.917 129.099, 60.467 130.443 C 58.177 132.566, 57.190 132.810, 52.937 132.306 C 47.441 131.655, 47.430 131.668, 46.702 139.250 L 46.246 144 70.206 144 C 83.384 144, 93.994 143.662, 93.782 143.250 C 93.571 142.838, 92.340 140.250, 91.047 137.500 C 89.754 134.750, 87.713 130.925, 86.512 129 C 85.310 127.075, 83.475 123.251, 82.433 120.503 C 78.836 111.009, 74.338 103.412, 69.681 98.964 C 67.111 96.509, 65.006 93.938, 65.004 93.250 C 65.002 92.563, 64.623 92, 64.162 92 C 63.701 92, 63.267 90.471, 63.196 88.603 C 63.126 86.735, 62.969 84.822, 62.847 84.353 C 62.724 83.884, 62.989 81.495, 63.435 79.043 C 64.171 74.996, 65.952 71.601, 69.881 66.759 C 70.658 65.801, 71.393 63.760, 71.514 62.222 C 71.831 58.197, 74.918 48, 75.821 48 C 76.242 48, 77.409 45.412, 78.415 42.250 C 79.421 39.087, 80.916 35.132, 81.737 33.460 C 82.932 31.024, 83.099 28.037, 82.577 18.460 C 82.218 11.882, 81.863 5.037, 81.787 3.250 L 81.650 -0 40.825 -0 L 0 0 0 72 M 36.015 67.250 C 36.027 69.716, 36.264 70.138, 37 69 C 38.270 67.035, 38.270 64, 37 64 C 36.450 64, 36.007 65.463, 36.015 67.250 M 28.313 72 C 28.676 73.375, 28.979 74.838, 28.986 75.250 C 28.994 75.662, 29.450 76, 30 76 C 31.621 76, 31.143 72.362, 29.327 70.872 C 27.824 69.640, 27.721 69.755, 28.313 72 M 37.122 136.250 C 36.666 137.488, 35.993 139.738, 35.627 141.250 C 35.013 143.790, 35.193 144, 37.981 144 C 40.937 144, 41 143.896, 41 139 C 41 135.186, 40.638 134, 39.475 134 C 38.637 134, 37.578 135.012, 37.122 136.250" stroke="none" fill="black" fill-rule="evenodd"/>
</svg>