<svg xmlns="http://www.w3.org/2000/svg" width="192" height="144" viewBox="0 0 192 144" version="1.1">
	<path d="M 84.372 3.926 C 84.956 7.575, 84.861 7.723, 81.237 8.834 C 79.182 9.464, 76.166 10.096, 74.536 10.240 C 72.039 10.459, 71.462 11.040, 70.876 13.924 C 70.066 17.915, 71.308 21.827, 73.978 23.697 C 75.701 24.904, 76.519 27.686, 78.383 38.681 C 78.916 41.822, 78.879 41.855, 75.481 41.303 C 70.981 40.573, 67 43.067, 67 46.616 C 67 50.910, 72.116 63.992, 74.240 65.129 C 76.161 66.156, 76.158 66.204, 74.096 68.125 C 70.442 71.529, 72.156 78.162, 77.138 79.898 C 79.042 80.562, 80 81.588, 80 82.962 C 80 84.098, 80.450 85.809, 81 86.764 C 81.549 87.719, 82.448 89.765, 82.998 91.310 C 83.547 92.856, 84.438 93.847, 84.978 93.514 C 85.605 93.126, 85.555 92.260, 84.838 91.113 C 83.538 89.031, 84.449 82.710, 86.327 80.782 C 87.014 80.077, 88.131 77.064, 88.808 74.086 C 89.953 69.054, 89.894 68.516, 87.961 66.458 L 85.881 64.244 87.937 60.872 C 89.355 58.546, 89.994 55.785, 89.996 51.973 C 89.998 48.892, 90.612 45.571, 91.383 44.471 C 92.143 43.385, 93.978 39.615, 95.461 36.093 C 96.943 32.572, 99.409 28.437, 100.941 26.905 C 102.955 24.891, 103.916 22.690, 104.411 18.958 C 105.220 12.862, 103.528 9.429, 98.926 7.824 C 96.477 6.970, 96 6.259, 96 3.454 L 96 0.104 89.885 0.134 L 83.770 0.163 84.372 3.926" stroke="none" fill="black" fill-rule="evenodd"/>
</svg>