<svg xmlns="http://www.w3.org/2000/svg" width="192" height="144" viewBox="0 0 192 144" version="1.1">
	<path d="M 187 5.567 C 187 7.752, 183.999 10, 181.084 10 C 179.535 10, 177.470 10.929, 176.407 12.102 C 175.361 13.259, 173.266 14.845, 171.752 15.628 C 170.239 16.411, 169 17.715, 169 18.526 C 169 19.337, 168.550 20, 168 20 C 166.327 20, 166.869 21.691, 169.572 24.903 C 171.708 27.441, 172.230 29.277, 172.651 35.730 C 173.712 52.001, 174.092 50.393, 169 51.162 C 166.525 51.535, 161.293 52.133, 157.374 52.491 C 153.455 52.848, 149.405 53.287, 148.374 53.467 C 139.694 54.978, 133.967 55.121, 132.575 53.862 C 128.675 50.334, 127.615 49.758, 124.180 49.300 C 122.156 49.029, 118.925 49.222, 117 49.728 C 114.188 50.466, 113.561 51.074, 113.813 52.823 C 113.985 54.021, 113.690 55, 113.156 55 C 112.623 55, 112.398 55.806, 112.656 56.791 C 113.078 58.405, 119.532 62, 122.008 62 C 122.554 62, 126.356 65.488, 130.456 69.750 C 137.578 77.154, 138.103 77.495, 142.206 77.380 C 144.567 77.314, 149.200 76.266, 152.500 75.050 C 158.245 72.933, 168.721 71.739, 169.565 73.105 C 169.786 73.463, 170.164 78.785, 170.404 84.930 C 170.645 91.076, 171.272 96.643, 171.798 97.302 C 174.333 100.475, 174.045 102.757, 170.587 106.895 C 168.681 109.178, 166.820 112.047, 166.452 113.273 C 165.514 116.397, 155.133 136.946, 152.871 140.154 C 151.842 141.614, 151 143.077, 151 143.404 C 151 143.732, 160.225 144, 171.500 144 L 192 144 192 74.617 L 192 5.233 189.500 4.755 C 187.878 4.445, 187 4.731, 187 5.567 M 68.521 15.967 C 68.158 16.553, 67.393 16.743, 66.819 16.388 C 65.470 15.555, 63.905 18.046, 64.524 20.042 C 64.857 21.115, 62.955 22.769, 58.251 25.493 C 54.538 27.643, 51.194 29.851, 50.820 30.398 C 50.111 31.435, 51.471 34.614, 53.487 36.629 C 55.375 38.517, 53.013 55.618, 50.207 60.373 C 48.232 63.721, 48.061 64.835, 48.854 69.199 C 49.354 71.946, 49.556 74.983, 49.303 75.948 C 48.570 78.752, 51.536 80.948, 55.257 80.357 C 58.151 79.897, 58.648 80.183, 59.875 83.014 C 60.631 84.759, 61.250 87.277, 61.250 88.611 C 61.250 89.945, 61.644 91.280, 62.125 91.577 C 63.676 92.536, 63.060 95.944, 60.646 99.770 C 59.351 101.821, 56.519 106.875, 54.353 111 C 49.362 120.506, 45.912 125.892, 41.858 130.509 C 40.093 132.519, 37.624 136.377, 36.371 139.082 L 34.092 144 60.415 144 L 86.738 144 87.368 140.250 C 88.776 131.863, 89.193 110.449, 88.034 106 C 87.390 103.525, 86.609 100.455, 86.301 99.178 C 85.992 97.901, 86.289 95.829, 86.961 94.573 C 87.843 92.925, 87.932 90.635, 87.280 86.329 C 86.140 78.799, 86.438 78, 90.383 78 C 96.656 78, 97.694 73.991, 92.951 68.089 C 91.274 66.002, 89.977 63.891, 90.069 63.397 C 90.685 60.097, 89.695 57.732, 87.065 56.223 C 85.054 55.069, 83.765 53.234, 82.970 50.394 C 81.812 46.257, 82.071 36.400, 83.444 32.374 C 84.065 30.552, 83.285 29.711, 78 26.500 C 73.297 23.643, 71.946 22.315, 72.313 20.911 C 72.882 18.736, 69.519 14.351, 68.521 15.967 M 140 57 L 135.500 57.700 139.500 57.776 C 141.700 57.818, 145.525 57.491, 148 57.051 L 152.500 56.250 148.500 56.275 C 146.300 56.289, 142.475 56.615, 140 57 M 141.250 58.732 C 136.383 59.171, 136.088 59.794, 139.314 62.826 C 141.693 65.060, 146 65.801, 146 63.975 C 146 63.091, 150.130 60.832, 152.200 60.584 C 152.585 60.538, 153.463 59.938, 154.150 59.250 C 155.445 57.955, 151.596 57.800, 141.250 58.732" stroke="none" fill="black" fill-rule="evenodd"/>
</svg>