<svg xmlns="http://www.w3.org/2000/svg" width="192" height="144" viewBox="0 0 192 144" version="1.1">
	<path d="M 58 0.915 C 58 3.129, 64.418 18.355, 66.382 20.800 C 67.575 22.285, 69.405 26.101, 70.448 29.281 C 72.306 34.942, 72.307 35.180, 70.470 40.781 C 69.438 43.926, 68.725 48.400, 68.885 50.721 C 69.178 54.985, 68.833 55.924, 63.213 66.180 C 58.608 74.583, 56.035 84.223, 55.789 94 C 55.516 104.819, 56.514 123.970, 57.469 126.232 C 57.871 127.185, 57.591 129.885, 56.847 132.232 C 56.102 134.579, 55.634 138.188, 55.807 140.250 L 56.121 144 63.096 144 L 70.071 144 72.144 139.250 C 77.476 127.029, 80.833 110.830, 81.100 96.026 C 81.176 91.771, 81.382 91.075, 81.994 93 C 83.325 97.189, 82.019 115.003, 79.977 120.500 C 78.956 123.250, 77.224 128.875, 76.128 133 C 75.033 137.125, 73.833 141.287, 73.461 142.250 C 72.827 143.894, 74.719 144, 104.771 144 C 129.139 144, 137.002 143.702, 137.791 142.750 C 138.360 142.063, 139.036 138.125, 139.292 134 C 139.549 129.875, 140.082 125.302, 140.479 123.838 C 141.027 121.812, 140.140 118.830, 136.758 111.338 C 128.149 92.270, 126.118 84.002, 128.517 77.801 C 129.025 76.489, 128.418 75.906, 125.850 75.241 C 122.683 74.420, 122.475 74.074, 121.453 67.940 C 120.129 59.998, 118.944 57.747, 114.707 55.128 C 111.036 52.859, 110.924 51.840, 112.715 37 C 113.474 30.714, 113.614 30.463, 116.956 29.383 C 118.856 28.769, 120.582 27.755, 120.790 27.130 C 120.998 26.505, 119.781 24.107, 118.084 21.800 C 116.388 19.493, 115 17.353, 115 17.043 C 115 16.734, 116.437 16.485, 118.194 16.490 C 121.959 16.502, 122.745 14.709, 122.900 5.750 L 123 0 90.500 0 C 71.524 0, 58 0.381, 58 0.915 M 64.809 84.559 C 63.533 86.515, 62.591 101.371, 63.790 100.630 C 64.392 100.258, 65.169 98.051, 65.518 95.727 C 66.273 90.688, 65.789 83.058, 64.809 84.559" stroke="none" fill="black" fill-rule="evenodd"/>
</svg>