<svg xmlns="http://www.w3.org/2000/svg" width="192" height="144" viewBox="0 0 192 144" version="1.1">
	<path d="M 159.928 10.889 C 157.493 12.465, 153.025 15.866, 150 18.445 C 141.430 25.754, 141.083 26.019, 130.750 33.167 C 121.796 39.360, 121 39.721, 121 37.578 C 121 34.533, 118.377 32.223, 116.758 33.842 C 116.121 34.479, 115.970 35, 116.422 35 C 116.875 35, 116.740 35.609, 116.122 36.353 C 115.353 37.279, 113.491 37.561, 110.221 37.247 C 104.003 36.650, 98.646 38.893, 96.026 43.190 C 93.910 46.660, 93.288 52, 95 52 C 95.550 52, 96 52.675, 96 53.500 C 96 56.813, 93.382 54.674, 91.500 49.823 C 89.023 43.439, 85.478 40.707, 78.784 40.024 C 73.915 39.527, 73.532 39.272, 71.308 35.059 C 67.124 27.131, 63.780 24.665, 54.935 22.988 C 50.961 22.234, 49.077 22.359, 46.185 23.567 C 39.073 26.538, 33.770 33.311, 31.964 41.732 C 29.246 54.404, 38.124 65, 51.460 65 C 54.507 65, 57 65.287, 57 65.638 C 57 65.988, 55.431 67.616, 53.513 69.254 C 51.595 70.892, 50.264 72.618, 50.554 73.088 C 50.845 73.559, 50.328 75.095, 49.406 76.503 C 47.339 79.657, 48.295 80.948, 50.931 78.563 C 53.400 76.328, 55.354 77.454, 54.552 80.649 C 54.184 82.113, 54.550 83.947, 55.471 85.262 C 56.312 86.463, 57 89.296, 57 91.557 C 57 93.819, 57.897 98.402, 58.994 101.742 C 60.428 106.113, 60.809 109.116, 60.351 112.457 C 59.928 115.542, 60.165 117.941, 61.059 119.611 C 62.120 121.593, 62.150 122.530, 61.202 124.048 C 59.674 126.495, 59.678 129.467, 61.215 133.719 C 62.169 136.357, 62.169 137.499, 61.215 139.027 C 59.743 141.384, 59.630 144, 61 144 C 61.550 144, 62 143.325, 62 142.500 C 62 140.408, 64.753 140.616, 65.311 142.750 C 65.653 144.059, 65.797 143.930, 65.884 142.236 C 65.948 140.991, 65.442 139.079, 64.759 137.986 C 63.772 136.405, 63.772 135.595, 64.759 134.014 C 66.247 131.632, 66.405 125.368, 65 124.500 C 63.650 123.666, 63.731 119.669, 65.125 118.275 C 66.428 116.972, 65.442 110, 63.955 110 C 62.561 110, 62.787 106.421, 64.259 105.200 C 65.256 104.373, 77.573 101, 79.597 101 C 79.857 101, 79.580 101.916, 78.981 103.035 C 78.239 104.421, 78.114 110.129, 78.589 120.935 C 79.261 136.216, 79.205 136.933, 77.062 140.400 L 74.837 144 103.350 144 L 131.863 144 137.431 136.375 C 140.535 132.125, 143 127.684, 143 126.343 C 143 121.868, 140.064 116.872, 133.346 109.913 L 126.655 102.982 128.405 92.741 C 129.367 87.109, 131.068 79.366, 132.184 75.535 C 134.039 69.166, 134.331 68.733, 135.599 70.466 C 136.949 72.313, 137.047 72.305, 139.349 70.142 C 145.165 64.678, 150.034 49.156, 147.058 45.569 C 144.870 42.933, 140.259 42.650, 136.419 44.915 C 130.208 48.580, 130.385 47.174, 136.973 40.527 C 141.415 36.045, 144.070 34.111, 145.604 34.238 C 147.932 34.431, 157.894 30.025, 157.961 28.773 C 157.983 28.373, 156.825 27.277, 155.390 26.336 C 152.882 24.693, 152.860 24.596, 154.812 23.874 C 156.131 23.386, 156.683 22.486, 156.385 21.311 C 156.090 20.152, 157.602 17.593, 160.582 14.202 C 163.143 11.289, 165.040 8.706, 164.797 8.464 C 164.554 8.221, 162.363 9.312, 159.928 10.889 M 88.300 66.397 C 87.860 67.165, 85.794 68.795, 83.709 70.020 C 80.739 71.764, 78.896 72.138, 75.209 71.744 C 72.619 71.468, 69.740 70.925, 68.811 70.537 C 66.253 69.470, 65.210 76.146, 67.411 79.504 C 68.462 81.108, 68.634 82, 67.894 82 C 67.083 82, 66.948 83.549, 67.436 87.232 C 67.818 90.109, 68.233 92.566, 68.358 92.691 C 68.717 93.050, 84.251 88.087, 86.730 86.822 C 88.265 86.038, 89.630 83.560, 91.109 78.874 C 93.159 72.378, 93.181 71.901, 91.582 68.532 C 89.708 64.583, 89.438 64.408, 88.300 66.397 M 62.250 112.662 C 60.508 113.365, 60.684 116.665, 62.500 117.362 C 63.626 117.794, 64 117.197, 64 114.969 C 64 113.336, 63.888 112.036, 63.750 112.079 C 63.612 112.122, 62.938 112.385, 62.250 112.662 M 108.639 119.694 C 107.476 120.857, 108.032 133.458, 109.321 135.153 C 110.368 136.529, 110.618 135.407, 110.812 128.476 C 111.025 120.866, 110.319 118.014, 108.639 119.694 M 123.026 123.422 C 122.336 125.511, 122.218 128.061, 122.720 130 L 123.541 133.167 126.908 128.478 C 130.431 123.573, 130.438 123.619, 125.826 120.972 C 124.456 120.186, 123.947 120.631, 123.026 123.422 M 62 129.333 C 62 130.741, 62.595 131.667, 63.500 131.667 C 64.405 131.667, 65 130.741, 65 129.333 C 65 127.926, 64.405 127, 63.500 127 C 62.595 127, 62 127.926, 62 129.333" stroke="none" fill="black" fill-rule="evenodd"/>
</svg>