<svg xmlns="http://www.w3.org/2000/svg" width="192" height="144" viewBox="0 0 192 144" version="1.1">
	<path d="M 73 0.977 C 73 2.606, 68.065 5.305, 65.196 5.245 C 63.065 5.201, 62.143 5.937, 60.795 8.760 L 59.090 12.330 63.138 17.165 C 65.377 19.839, 68.038 22, 69.093 22 C 71.667 22, 71.493 23.261, 68.411 26.923 C 65.920 29.884, 65.901 30, 67.911 30 C 69.466 30, 70 30.632, 70 32.469 C 70 34.252, 70.416 34.777, 71.500 34.362 C 72.385 34.022, 73 34.350, 73 35.161 C 73 37.283, 77.987 44.126, 79.054 43.467 C 79.574 43.145, 80 43.328, 80 43.874 C 80 44.419, 80.900 45.151, 82 45.500 C 83.100 45.849, 84 46.835, 84 47.690 C 84 48.970, 84.270 49.021, 85.524 47.980 C 86.362 47.284, 87.362 47.029, 87.745 47.412 C 88.128 47.795, 87.925 48.428, 87.293 48.819 C 86.661 49.210, 86.224 50.383, 86.322 51.427 C 86.457 52.871, 85.066 53.905, 80.500 55.751 C 77.200 57.086, 73.790 58.813, 72.921 59.589 C 70.461 61.788, 69.299 61.305, 66.937 57.101 L 64.745 53.202 53.123 53.351 C 40.148 53.517, 42.804 54.399, 21 42.684 C 15.225 39.582, 9.928 37.033, 9.229 37.021 C 8.529 37.010, 6.167 38.185, 3.979 39.633 L 0 42.266 0 53.645 L 0 65.024 4.647 72.012 C 7.202 75.855, 9.740 79, 10.286 79 C 10.897 79, 11.036 76.981, 10.648 73.750 C 10.301 70.862, 10.013 65.976, 10.009 62.891 C 10.001 57.995, 9.556 56.723, 6.510 52.891 C 2.332 47.635, 2.229 46.735, 5.556 44.555 C 7.964 42.977, 8.295 42.989, 11.306 44.764 C 14.655 46.739, 14.682 46.871, 13.468 55.500 C 12.980 58.974, 13.603 60.807, 18.203 69.439 C 21.116 74.905, 24.063 79.555, 24.750 79.772 C 25.704 80.073, 26 77.221, 26 67.718 C 26 56.560, 25.781 54.991, 23.886 52.582 C 21.063 48.994, 21.977 48.438, 26.720 50.857 C 32.261 53.684, 33.594 55.512, 32.136 58.284 C 29.113 64.030, 29.002 66.947, 31.586 72.828 C 37.091 85.363, 39.385 90, 40.082 90 C 40.861 90, 41.560 85.201, 42.588 72.800 C 43.154 65.965, 42.979 64.702, 41.031 61.550 L 38.837 58 46.359 58 C 54.083 58, 56.095 58.846, 53.496 61.003 C 52.681 61.680, 51.530 64.030, 50.939 66.227 C 49.962 69.853, 50.250 71.277, 54.057 81.655 L 58.251 93.088 56.094 99.921 C 54.908 103.679, 53.610 108.674, 53.209 111.022 C 52.491 115.229, 52.282 115.414, 38.490 124.087 C 30.796 128.925, 23.983 132.910, 23.350 132.942 C 22.718 132.974, 19.941 130.527, 17.179 127.505 C 12.210 122.068, 8.673 119.875, 6.250 120.727 C 4.516 121.337, 4.682 123.941, 6.500 124.638 C 8.480 125.398, 8.425 128.623, 6.418 129.393 C 5.548 129.727, 3.748 130, 2.418 130 C 0.091 130, 0 130.263, 0 137 L 0 144 17.630 144 L 35.260 144 47.261 136.750 C 60.940 128.486, 62.319 126.861, 66.968 113.536 C 68.688 108.606, 70.300 104.366, 70.551 104.115 C 70.802 103.865, 70.794 111.159, 70.532 120.324 C 70.183 132.561, 69.651 137.775, 68.528 139.945 C 67.688 141.571, 67 143.148, 67 143.450 C 67 143.753, 80.050 144, 96 144 C 111.950 144, 125 143.830, 125 143.622 C 125 143.414, 124.260 141.502, 123.356 139.372 C 121.359 134.670, 120.173 108.633, 122.155 113 C 122.779 114.375, 124.521 118.249, 126.026 121.609 C 129.184 128.657, 131.228 130.392, 145.801 138.391 L 156.103 144.045 174.301 143.772 L 192.500 143.500 192.794 136.250 L 193.088 129 189.199 129 C 186.532 129, 184.719 128.347, 183.431 126.923 C 181.584 124.883, 181.592 124.816, 183.920 123.061 C 186.665 120.990, 185.963 119, 182.488 119 C 181.036 119, 179.386 120.024, 178.297 121.600 C 177.309 123.031, 174.659 126.225, 172.409 128.700 L 168.317 133.198 159.409 128.075 C 154.509 125.257, 147.620 121.275, 144.099 119.226 L 137.698 115.500 135.310 105.500 C 133.997 100, 132.922 94.825, 132.922 94 C 132.922 93.175, 134.329 88.900, 136.050 84.500 C 137.771 80.100, 139.868 74.250, 140.709 71.500 C 141.551 68.750, 142.786 65.825, 143.455 65 C 144.124 64.175, 145.249 62.038, 145.957 60.250 C 146.904 57.855, 147.868 57, 149.621 57 C 152.423 57, 152.569 57.742, 150.385 60.861 C 149.006 62.830, 148.874 64.985, 149.485 75.587 C 149.879 82.418, 150.621 88.266, 151.133 88.582 C 151.645 88.899, 154.366 84.285, 157.179 78.329 C 162.590 66.874, 163.295 62.626, 160.496 58.353 C 158.102 54.700, 161.135 50.800, 168.563 47.976 C 171.333 46.923, 171.292 47.159, 167.836 52.154 C 166.314 54.355, 166 56.783, 166 66.345 C 166 72.690, 166.423 78.143, 166.940 78.463 C 167.457 78.782, 170.617 74.196, 173.963 68.272 C 178.896 59.537, 179.936 56.933, 179.459 54.500 C 177.631 45.174, 177.590 45.456, 181.104 43.231 C 184.243 41.244, 184.564 41.220, 187.209 42.782 C 190.781 44.893, 190.735 47.001, 187.032 50.966 C 185.399 52.713, 183.834 55.574, 183.553 57.322 C 182.596 63.280, 182.198 78, 182.994 78 C 183.430 78, 185.861 74.962, 188.396 71.250 L 193.005 64.500 192.987 53 C 192.977 46.675, 192.639 41.026, 192.235 40.447 C 191.831 39.868, 189.805 38.364, 187.733 37.105 L 183.965 34.815 174.733 39.537 C 169.655 42.135, 162.965 45.777, 159.866 47.631 C 156.768 49.486, 152.813 51.287, 151.077 51.635 C 147.979 52.254, 147.943 52.219, 149.111 49.655 C 150.030 47.639, 150.030 45.409, 149.114 39.859 C 148.383 35.435, 148.284 32.316, 148.856 31.744 C 149.367 31.233, 149.564 29.165, 149.293 27.148 C 148.930 24.441, 149.483 22.198, 151.401 18.591 C 154.146 13.427, 154.780 7.181, 153.025 2.565 C 152.103 0.140, 151.658 0, 144.853 0 C 139.561 0, 137.174 0.438, 135.829 1.655 C 134.127 3.195, 134 3.195, 134 1.655 C 134 0.151, 131.214 0, 103.500 0 C 84.313 0, 73 0.362, 73 0.977 M 129.282 28.326 C 126.250 33.394, 125.724 38, 128.176 38 C 128.694 38, 128.866 38.408, 128.558 38.906 C 128.250 39.404, 127.058 39.566, 125.909 39.266 C 124.118 38.798, 123.848 39.133, 124.016 41.610 C 124.308 45.922, 124.048 46.687, 122.938 44.782 C 122.051 43.261, 121.480 43.534, 117.968 47.152 C 115.786 49.401, 114 51.888, 114 52.680 C 114 55.392, 112.078 52.931, 111.408 49.362 L 110.739 45.795 108.535 48.559 C 107.250 50.170, 105.845 51.022, 105.166 50.602 C 104.436 50.152, 104 50.584, 104 51.757 C 104 53.090, 105.612 54.300, 109.573 55.942 C 112.638 57.212, 116.399 59.306, 117.931 60.595 L 120.716 62.938 123.363 58.074 C 125.969 53.286, 127.536 52.010, 130.832 51.990 C 132.301 51.982, 132.530 50.248, 132.752 37.490 C 132.891 29.521, 132.884 23, 132.736 23 C 132.588 23, 131.034 25.397, 129.282 28.326 M 88.443 35.908 C 89.210 37.149, 94.998 40.335, 95.526 39.807 C 95.713 39.620, 94.042 38.418, 91.813 37.135 C 89.583 35.852, 88.067 35.300, 88.443 35.908 M 0.385 54 C 0.385 60.875, 0.545 63.688, 0.740 60.250 C 0.936 56.813, 0.936 51.188, 0.740 47.750 C 0.545 44.313, 0.385 47.125, 0.385 54 M 102 48.059 C 102 48.641, 102.450 48.840, 103 48.500 C 103.550 48.160, 104 47.684, 104 47.441 C 104 47.198, 103.550 47, 103 47 C 102.450 47, 102 47.477, 102 48.059 M 127.503 62.585 C 125.627 65.045, 125.092 66.492, 125.800 67.200 C 126.507 67.907, 127.641 66.945, 129.415 64.135 C 132.227 59.680, 132.453 59, 131.119 59 C 130.634 59, 129.007 60.613, 127.503 62.585 M 60 60.466 C 60 61.682, 63.460 68, 64.126 68 C 66.005 68, 65.946 65.733, 63.995 62.993 C 62.145 60.396, 60 59.038, 60 60.466 M 0.336 137 C 0.336 141.125, 0.513 142.813, 0.728 140.750 C 0.944 138.688, 0.944 135.313, 0.728 133.250 C 0.513 131.188, 0.336 132.875, 0.336 137" stroke="none" fill="black" fill-rule="evenodd"/>
</svg>