<svg xmlns="http://www.w3.org/2000/svg" width="192" height="144" viewBox="0 0 192 144" version="1.1">
	<path d="M 94.397 2.517 C 93.078 4.530, 92.463 4.799, 91.331 3.860 C 89.651 2.466, 88.818 3.243, 86.963 7.934 C 85.915 10.583, 85.883 11.461, 86.820 11.773 C 87.489 11.996, 88.761 12.904, 89.648 13.791 C 91.130 15.273, 90.988 15.493, 87.880 16.533 C 81.940 18.519, 77.912 27.022, 81.500 30 C 82.325 30.685, 83 31.659, 83 32.165 C 83 33.447, 84.714 35.482, 90.489 41.061 C 94.659 45.089, 95.192 45.989, 93.739 46.547 C 91.800 47.291, 91.476 50.153, 93.008 53.015 C 93.745 54.392, 93.559 55.857, 92.318 58.459 C 91.193 60.819, 90.955 62.355, 91.614 63.014 C 92.273 63.673, 91.867 67.019, 90.413 72.932 C 88.407 81.089, 87.701 82.456, 82.194 88.855 C 78.881 92.704, 74.942 98.024, 73.441 100.677 C 71.940 103.330, 69.651 107.099, 68.356 109.054 C 67.060 111.008, 66 113.444, 66 114.466 C 66 116.509, 70.661 124.994, 71.792 125.011 C 72.181 125.017, 74.300 126.732, 76.500 128.823 C 81.677 133.743, 92.004 140.712, 95.368 141.556 C 96.816 141.920, 98 142.618, 98 143.108 C 98 143.599, 101.108 144, 104.906 144 C 111.320 144, 111.775 143.857, 111.290 142 C 110.905 140.528, 111.259 140, 112.633 139.999 C 116.791 139.997, 137.258 128.255, 139.099 124.815 C 139.944 123.235, 139.935 120.773, 139.060 115.100 C 138.416 110.920, 137.693 106.227, 137.454 104.671 C 137.214 103.115, 134.877 97.940, 132.259 93.171 C 129.642 88.402, 126.785 82.665, 125.912 80.421 C 125.038 78.178, 122.407 73.805, 120.065 70.703 L 115.808 65.063 116.990 52.282 C 117.640 45.252, 118.179 37.813, 118.186 35.750 C 118.194 33.688, 118.605 32, 119.100 32 C 120.954 32, 119.919 23.369, 117.422 18.003 C 114.455 11.629, 112.413 9.120, 109.190 7.887 C 107.919 7.401, 107.161 6.549, 107.504 5.993 C 107.848 5.437, 107.836 4.059, 107.478 2.931 C 106.948 1.260, 106.286 0.998, 103.913 1.519 C 102.100 1.917, 101 1.751, 101 1.079 C 101 -1.095, 96.059 -0.019, 94.397 2.517 M 97.188 3.063 C 97.428 3.784, 98.216 4.572, 98.938 4.813 C 99.688 5.063, 100.063 4.688, 99.813 3.938 C 99.572 3.216, 98.784 2.428, 98.063 2.188 C 97.313 1.938, 96.938 2.312, 97.188 3.063" stroke="none" fill="black" fill-rule="evenodd"/>
</svg>