<svg xmlns="http://www.w3.org/2000/svg" width="192" height="144" viewBox="0 0 192 144" version="1.1">
	<path d="M 0 72 L 0 144 87.500 144 L 175 144 175.014 138.750 C 175.033 131.120, 175.709 129.501, 179.318 128.438 C 182.384 127.534, 182.493 127.318, 182.306 122.500 C 181.717 107.378, 177.889 67.230, 176.439 60.978 C 175.904 58.670, 176.452 58.168, 182.940 55.029 L 190.025 51.601 186.121 47.551 C 182.329 43.617, 182.136 43.068, 179.448 28.500 C 177.925 20.250, 176.369 11.250, 175.989 8.500 C 175.610 5.750, 174.959 2.713, 174.543 1.750 C 173.830 0.103, 168.693 0, 86.893 0 L 0 0 0 72 M 138.600 65.765 C 140.233 66.856, 142 70.582, 142 72.934 C 142 74.070, 142.439 75, 142.975 75 C 144.038 75, 143.287 69.612, 141.824 66.750 C 141.332 65.787, 140.158 65.007, 139.215 65.015 C 138.150 65.025, 137.917 65.309, 138.600 65.765 M 144 81.441 C 144 82.298, 144.450 83, 145 83 C 145.550 83, 146 82.577, 146 82.059 C 146 81.541, 145.550 80.840, 145 80.500 C 144.450 80.160, 144 80.584, 144 81.441 M 148.938 81 C 148.489 86.468, 149.349 91.835, 151.054 94.210 C 152.124 95.700, 153 97.403, 153 97.995 C 153 98.586, 153.724 100.176, 154.609 101.527 C 157.751 106.321, 157.751 102.875, 154.610 93.254 C 151.211 82.843, 149.152 78.394, 148.938 81 M 157.032 106.750 C 157.049 107.162, 157.724 108.374, 158.532 109.441 C 160.029 111.421, 160.487 110.433, 159.393 107.582 C 158.782 105.990, 156.973 105.353, 157.032 106.750" stroke="none" fill="black" fill-rule="evenodd"/>
</svg>