<svg xmlns="http://www.w3.org/2000/svg" width="192" height="144" viewBox="0 0 192 144" version="1.1">
	<path d="M 137.112 82.910 C 136.053 83.580, 136.706 84.439, 139.862 86.527 C 142.138 88.033, 144 89.601, 144 90.012 C 144 91.510, 138.288 92.975, 129.500 93.728 C 122.510 94.328, 120.500 94.835, 120.500 96 C 120.500 97.613, 122.560 98.368, 138.500 102.603 C 148.998 105.392, 152.076 106.587, 151.834 107.780 C 151.753 108.176, 152.822 110.975, 154.208 114 C 155.595 117.025, 157.513 122.650, 158.471 126.500 C 160.823 135.949, 162.512 138.898, 166.534 140.579 C 172.395 143.028, 178.701 142.133, 188.750 137.428 L 192 135.906 192 122.453 C 192 114.632, 191.603 109, 191.051 109 C 190.529 109, 188.908 110.565, 187.449 112.477 C 185.991 114.390, 183.411 116.646, 181.716 117.492 C 177.425 119.633, 177.269 119.303, 175.455 104.300 C 175.109 101.440, 174.190 98.573, 173.413 97.928 C 172.636 97.283, 172 95.701, 172 94.413 C 172 91.541, 168.982 89.768, 164.683 90.115 C 161.579 90.365, 155.101 88.282, 146 84.108 C 141.049 81.837, 139.199 81.588, 137.112 82.910" stroke="none" fill="black" fill-rule="evenodd"/>
</svg>