<svg xmlns="http://www.w3.org/2000/svg" width="192" height="144" viewBox="0 0 192 144" version="1.1">
	<path d="M 112.232 15.923 C 110.984 18.586, 108.401 22.730, 106.492 25.132 C 102.638 29.979, 102.292 31, 104.500 31 C 107.325 31, 106.001 32.783, 101.980 34.391 C 99.769 35.276, 97.294 36, 96.480 36 C 95.568 36, 95 36.960, 95 38.500 C 95 40.450, 95.512 41, 97.326 41 C 99.664 41, 104 44.703, 104 46.699 C 104 47.288, 105.013 48.434, 106.250 49.245 C 108.107 50.463, 108.544 51.761, 108.749 56.670 C 109.160 66.481, 108.750 66.702, 93.360 64.981 C 78.380 63.306, 64.584 63.335, 59.255 65.051 C 57.190 65.716, 53.700 67.698, 51.500 69.455 C 49.300 71.213, 46.052 73.493, 44.281 74.522 C 40.800 76.547, 39.504 78.575, 41.072 79.545 C 42.078 80.166, 55.730 75.433, 57.450 73.865 C 57.973 73.389, 59.020 73, 59.778 73 C 60.869 73, 61.121 75.129, 60.989 83.250 C 60.898 88.888, 60.863 93.851, 60.912 94.280 C 60.960 94.709, 63.924 93.058, 67.498 90.611 C 76.756 84.272, 81.444 82.980, 93.365 83.482 C 98.791 83.710, 103.371 84.037, 103.543 84.209 C 103.715 84.381, 102.313 89.009, 100.428 94.493 C 98.543 99.977, 97 104.990, 97 105.634 C 97 106.278, 98.439 107.306, 100.199 107.919 L 103.398 109.035 98.199 114.299 C 95.339 117.194, 93 119.886, 93 120.281 C 93 121.848, 95.551 120.866, 97.562 118.526 C 99.435 116.346, 99.910 116.214, 101.555 117.416 C 103.143 118.578, 103.246 119.164, 102.248 121.355 C 101.501 122.994, 101.431 124.148, 102.054 124.533 C 102.592 124.866, 102.852 125.445, 102.631 125.819 C 102.411 126.194, 101.918 130.438, 101.536 135.250 L 100.841 144 121.314 144 L 141.787 144 140.754 139.750 C 140.186 137.412, 139.716 134.825, 139.711 134 C 139.697 132.030, 143.835 117.522, 145.762 112.785 C 146.775 110.293, 147.057 107.657, 146.618 104.785 C 145.102 94.870, 145.158 94.046, 147.599 90.449 C 150.555 86.094, 150.556 86.162, 147.500 85 C 144.503 83.861, 144.503 83.857, 146.680 67.685 C 148.390 54.980, 148.429 54.864, 151.202 54.310 C 154.656 53.619, 154.688 52.995, 151.423 49.927 C 149.351 47.981, 148.970 46.917, 149.479 44.503 C 151.735 33.818, 151.125 31.461, 144.277 24.405 C 138.416 18.366, 131.937 15.613, 123.438 15.551 C 116.665 15.502, 116.393 15.408, 116.804 13.250 C 117.587 9.141, 114.588 10.895, 112.232 15.923" stroke="none" fill="black" fill-rule="evenodd"/>
</svg>