<svg xmlns="http://www.w3.org/2000/svg" width="192" height="144" viewBox="0 0 192 144" version="1.1">
	<path d="M -0 37.446 L -0 74.892 5.750 72.939 C 8.912 71.865, 16.730 68.460, 23.122 65.372 L 34.744 59.757 42.593 65.946 C 46.911 69.350, 54.434 75.803, 59.312 80.287 C 64.191 84.771, 68.929 88.951, 69.841 89.577 C 73.272 91.931, 78.812 92.987, 88.795 93.189 L 99.090 93.398 101.414 88.384 C 104.940 80.773, 109.192 76.569, 116.508 73.459 C 120.078 71.942, 123 70.392, 123 70.015 C 123 69.261, 117.322 64, 116.509 64 C 116.229 64, 115.964 65.688, 115.921 67.750 C 115.878 69.813, 115.614 70.935, 115.336 70.244 C 115.057 69.553, 114.418 69.242, 113.915 69.553 C 113.412 69.864, 113 69.416, 113 68.559 C 113 67.702, 112.614 67, 112.142 67 C 111.670 67, 110.883 65.088, 110.392 62.750 C 109.582 58.891, 109.197 58.471, 106.204 58.183 C 103.460 57.919, 103.010 57.543, 103.521 55.933 C 103.907 54.716, 103.665 54, 102.867 54 C 101.882 54, 101.867 53.733, 102.800 52.800 C 104.231 51.369, 104.391 47.360, 103.050 46.531 C 101.223 45.402, 100.195 49.566, 100.713 56.007 C 101.107 60.922, 100.722 64.159, 99.132 69.308 C 97.338 75.118, 94.033 80.905, 93.985 78.321 C 93.976 77.870, 93.577 78.120, 93.096 78.878 C 91.987 80.630, 90 79.456, 90 77.048 C 90 76.039, 89.388 74.979, 88.640 74.692 C 85.680 73.556, 84.147 57.003, 86.706 53.809 C 87.283 53.089, 88.094 51.375, 88.509 50 C 88.923 48.625, 90.103 46.306, 91.131 44.846 C 92.159 43.386, 93 41.994, 93 41.754 C 93 41.513, 91.219 40.783, 89.042 40.131 C 86.865 39.479, 84.876 38.608, 84.621 38.196 C 84.023 37.227, 86.400 26.990, 87.855 24.271 C 89.406 21.372, 95.502 17.790, 98.225 18.178 C 99.529 18.364, 101.056 19.702, 101.842 21.348 L 103.203 24.196 104.975 21.348 C 109.842 13.525, 115.563 11.011, 128.500 11.011 C 137.353 11.011, 143.534 12.340, 146.356 14.849 C 150.133 18.207, 152.401 24.217, 152.452 31 C 152.483 35.248, 153.065 38.366, 154.130 40 C 156.551 43.714, 157.228 49.698, 155.310 50.434 C 154.294 50.824, 153.933 51.867, 154.246 53.506 C 154.867 56.755, 152.567 58.835, 151.151 56.305 C 150.240 54.677, 150.036 54.776, 149.070 57.315 C 148.482 58.863, 148 60.802, 148 61.624 C 148 64.299, 146.002 61.961, 145.921 59.191 C 145.874 57.599, 145.609 57.112, 145.271 58 C 144.957 58.825, 144.389 59.725, 144.010 60 C 143.311 60.505, 140 69.699, 140 71.131 C 140 71.558, 142.132 72.849, 144.738 74.002 C 151.109 76.820, 153.600 79.359, 156.637 86.127 L 159.198 91.833 171.849 91.834 C 178.807 91.835, 186.118 91.424, 188.096 90.921 L 191.692 90.006 192.346 77.846 C 192.706 71.158, 193 50.907, 193 32.843 L 193 0 96.500 0 L 0 0 -0 37.446 M 0.453 38 C 0.453 58.625, 0.586 67.063, 0.749 56.750 C 0.911 46.438, 0.911 29.563, 0.749 19.250 C 0.586 8.938, 0.453 17.375, 0.453 38 M 29.500 68.989 C 25.790 71.434, 25.541 74.234, 28.630 78.786 C 29.933 80.707, 31.005 83.454, 31.010 84.890 C 31.025 88.706, 24.834 114, 23.885 114 C 22.993 114, 22.250 111.458, 18.650 96.096 C 16.091 85.175, 16.303 81.789, 19.802 77.744 C 22.127 75.055, 20.615 74.647, 16.347 76.811 C 14.231 77.884, 9.912 79.572, 6.750 80.563 C 2.520 81.889, 1 82.846, 1 84.183 C 1 85.182, 1.401 86, 1.891 86 C 2.382 86, 3.501 87.795, 4.379 89.989 C 5.910 93.815, 5.853 94.492, 2.987 106.553 C 0.505 117.001, 0 121.230, 0 131.564 L 0 144 49 144 L 98 144 98.003 140.250 C 98.005 138.188, 98.675 132.675, 99.492 128 C 100.975 119.512, 101.133 103.800, 99.749 102.416 C 99.347 102.013, 99.519 101.080, 100.131 100.342 C 101.045 99.241, 99.967 99, 94.122 99 C 90.041 99, 87 99.427, 87 100 C 87 100.550, 87.379 101, 87.842 101 C 88.305 101, 89.233 102.834, 89.905 105.076 C 90.995 108.715, 90.781 110.591, 87.909 122.576 C 86.140 129.959, 84.311 136, 83.846 136 C 83.381 136, 82.995 135.662, 82.988 135.250 C 82.982 134.838, 81.653 128.769, 80.035 121.765 C 76.980 108.538, 77.073 105.074, 80.591 100.977 C 82.720 98.498, 80.704 96.928, 74.581 96.296 L 68.850 95.705 70.347 99.288 C 71.750 102.645, 71.644 103.729, 68.672 116.498 C 66.927 123.993, 65.050 130.125, 64.500 130.124 C 63.370 130.121, 58.108 109.160, 58.042 104.399 C 58.019 102.693, 59.127 99.179, 60.503 96.590 C 62.304 93.203, 62.746 91.395, 62.080 90.149 C 61.125 88.365, 51.474 79, 50.591 79 C 50.318 79, 50.822 80.961, 51.711 83.357 C 53.278 87.587, 53.231 88.119, 50.085 101.601 C 46.795 115.702, 46.442 116.776, 45.430 115.763 C 44.674 115.008, 39 90.420, 39 87.902 C 39 85.812, 41.160 80.599, 43.171 77.835 C 44.201 76.419, 43.644 75.492, 39.441 71.625 C 36.723 69.125, 34.050 67.065, 33.500 67.046 C 32.950 67.028, 31.150 67.902, 29.500 68.989 M 185 95.895 C 182.005 96.728, 181.995 97.165, 184.830 103.185 L 187.036 107.870 183.969 120.185 C 180.037 135.969, 180.017 136.023, 178.916 133.500 C 178.436 132.400, 176.686 126.021, 175.026 119.324 L 172.008 107.148 173.909 102.713 L 175.810 98.277 168.240 97.637 C 164.076 97.286, 160.457 97.209, 160.198 97.468 C 159.939 97.727, 160.715 100.234, 161.921 103.039 L 164.115 108.138 161.615 118.319 C 159.586 126.582, 159.225 129.960, 159.702 136.250 L 160.289 144 176.181 144 L 192.073 144 191.927 119.500 C 191.782 95.143, 191.768 95.001, 189.640 95.100 C 188.463 95.155, 186.375 95.512, 185 95.895" stroke="none" fill="black" fill-rule="evenodd"/>
</svg>