<svg xmlns="http://www.w3.org/2000/svg" width="192" height="144" viewBox="0 0 192 144" version="1.1">
	<path d="M 118.389 8.529 C 117.132 10.448, 116.879 12.319, 117.344 16.279 L 117.956 21.500 113.550 23.319 C 103.413 27.505, 95.544 40.880, 97.954 49.830 C 98.990 53.678, 104.976 59.691, 106.377 58.290 C 107.375 57.292, 107.095 59.953, 105.983 62.031 C 105.164 63.563, 105.745 65.052, 108.982 69.715 C 111.239 72.967, 112.998 76.679, 112.999 78.191 C 112.999 79.671, 113.450 81.160, 114 81.500 C 115.510 82.433, 115.199 91.280, 113.513 95.314 C 112.298 98.222, 111.431 98.929, 108.763 99.186 C 105.738 99.477, 105.477 99.792, 105.183 103.500 C 104.817 108.101, 100.565 113.433, 98.038 112.458 C 97.192 112.132, 92.306 110.799, 87.180 109.497 C 82.054 108.195, 77.277 106.645, 76.565 106.054 C 75.852 105.462, 74.981 102.879, 74.629 100.312 C 73.766 94.012, 71.761 92, 66.345 92 C 63.573 92, 61.975 91.547, 61.930 90.750 C 61.891 90.063, 61.546 90.293, 61.162 91.262 C 60.779 92.231, 58.921 93.806, 57.034 94.762 C 53.129 96.739, 51.665 100.485, 52.640 106 C 53.928 113.292, 58.185 117.415, 65.852 118.800 L 69.726 119.500 67.804 126 C 66.748 129.575, 64.818 135.088, 63.516 138.250 L 61.150 144 83.977 144 L 106.804 144 107.850 141 C 109.187 137.164, 109.776 137.164, 109.213 141 L 108.773 144 135.887 144 C 154.508 144, 163 143.664, 163 142.928 C 163 142.339, 161.845 139.885, 160.433 137.476 C 156.985 131.592, 157.351 126.937, 161.345 125.877 C 162.910 125.462, 164.789 124.307, 165.521 123.311 C 166.657 121.765, 166.606 121.409, 165.176 120.878 C 164.254 120.536, 162.221 120.906, 160.657 121.702 C 159.093 122.497, 157.637 122.970, 157.420 122.754 C 157.204 122.537, 156.362 118.791, 155.550 114.430 C 154.738 110.068, 153.789 105.150, 153.442 103.500 C 151.936 96.354, 151.867 95.200, 152.904 94.559 C 153.507 94.187, 154 94.359, 154 94.941 C 154 95.523, 154.930 96, 156.067 96 C 157.564 96, 157.994 95.517, 157.624 94.250 C 156.605 90.755, 155.763 82.518, 156.495 83.207 C 156.909 83.596, 158.322 86.071, 159.637 88.707 C 161.788 93.020, 161.979 93.179, 161.546 90.289 C 161.032 86.857, 162.654 84.839, 164.092 87.122 C 165.164 88.824, 164.268 65.044, 162.920 56 C 161.746 48.130, 157.581 33.278, 154.693 26.670 C 152.041 20.600, 147.946 17.570, 142.248 17.463 C 138.400 17.391, 137.336 16.780, 132.193 11.691 C 125.464 5.032, 121.304 4.080, 118.389 8.529 M 148.079 107.583 C 148.127 108.748, 148.364 108.985, 148.683 108.188 C 148.972 107.466, 148.936 106.603, 148.604 106.271 C 148.272 105.939, 148.036 106.529, 148.079 107.583" stroke="none" fill="black" fill-rule="evenodd"/>
</svg>