<svg xmlns="http://www.w3.org/2000/svg" width="192" height="144" viewBox="0 0 192 144" version="1.1">
	<path d="M 14 2.417 C 14 3.746, 14.540 5.013, 15.199 5.233 C 16.815 5.772, 17.043 14.001, 15.512 16.500 C 14.039 18.903, 12.969 30, 14.210 30 C 14.691 30, 15.628 29.542, 16.292 28.981 C 20.952 25.052, 22.459 23.989, 24.119 23.462 C 25.153 23.134, 26 22.446, 26 21.933 C 26 21.420, 26.408 21, 26.906 21 C 28.330 21, 25.674 25.894, 24 26.355 C 22.869 26.666, 22.930 26.796, 24.250 26.884 C 26.393 27.026, 26.453 27.690, 24.500 29.643 C 23.675 30.468, 23 30.874, 23 30.546 C 23 30.217, 21.672 30.635, 20.050 31.474 C 16.520 33.300, 15.638 33.394, 16.595 31.845 C 17.051 31.108, 16.868 30.963, 16.088 31.446 C 15.416 31.861, 15.115 32.448, 15.418 32.751 C 15.721 33.054, 15.212 33.856, 14.286 34.533 C 12.856 35.578, 13.197 35.744, 16.552 35.632 C 20.218 35.509, 20.497 35.693, 20.464 38.209 C 20.429 40.818, 20.491 40.850, 22.144 39.076 C 24.305 36.756, 32.879 34.648, 37.777 35.231 C 40.564 35.562, 42.436 35.057, 45.225 33.220 C 49.544 30.376, 52 30.849, 52 34.525 C 52 36.611, 52.831 37.480, 56.285 39.008 C 62.299 41.668, 67.621 47.372, 69.985 53.689 C 72.270 59.796, 72.401 62.977, 70.576 68 C 69.530 70.879, 69.545 71.870, 70.660 73.587 C 71.846 75.411, 71.763 75.967, 70.008 77.990 C 68.508 79.721, 68 81.733, 68 85.953 C 68 89.059, 68.480 92.080, 69.066 92.666 C 69.653 93.253, 70.354 95.139, 70.625 96.857 C 71.024 99.388, 70.821 99.869, 69.559 99.384 C 68.349 98.920, 68 99.497, 68 101.964 C 68 105.438, 65.549 108.939, 64.656 106.741 C 64.265 105.778, 63.942 105.799, 63.214 106.835 C 62.698 107.570, 61.888 108.099, 61.413 108.010 C 60.938 107.922, 60.389 108.334, 60.192 108.925 C 59.995 109.516, 60.685 110, 61.726 110 C 64.580 110, 67.829 112.744, 66.228 113.804 C 65.227 114.466, 65.388 115.624, 66.985 119.232 C 68.100 121.755, 69.297 125.885, 69.643 128.409 C 70.148 132.098, 70.659 133, 72.243 133 C 73.752 133, 74.030 133.410, 73.430 134.750 C 72.998 135.713, 72.613 138.075, 72.573 140 L 72.500 143.500 132.119 143.758 L 191.738 144.016 192.342 139.258 C 192.674 136.641, 192.762 126.625, 192.536 117 C 192.311 107.375, 192.098 77.112, 192.063 49.750 L 192 0 172 0 C 154.889 0, 152 0.217, 152 1.500 C 152 2.333, 151.111 3, 150 3 C 148.889 3, 148 2.333, 148 1.500 C 148 0.182, 139.889 0, 81 0 L 14 0 14 2.417 M 27.636 27.506 C 27.321 28.328, 27.472 29, 27.972 29 C 29.328 29, 30.170 27.223, 29.121 26.575 C 28.620 26.265, 27.952 26.684, 27.636 27.506 M 26 30.883 C 26 31.783, 29.330 32.962, 31.941 32.986 C 32.964 32.996, 32.819 32.574, 31.441 31.532 C 29.287 29.902, 26 29.511, 26 30.883 M 14.272 37.279 C 13.047 37.833, 11.779 39.122, 11.455 40.143 C 11.130 41.164, 10.221 42, 9.433 42 C 8.645 42, 8 42.375, 8 42.833 C 8 44.434, 9.277 44.922, 11.021 43.989 C 12.408 43.247, 12.920 43.518, 13.447 45.274 C 14.012 47.155, 14.360 46.725, 15.692 42.500 C 16.560 39.750, 17.463 38.038, 17.699 38.695 C 17.936 39.352, 17.649 40.787, 17.062 41.884 C 16.380 43.159, 16.346 44.096, 16.968 44.480 C 17.869 45.037, 18.527 43.323, 19.222 38.614 C 19.547 36.407, 17.452 35.842, 14.272 37.279 M 154.262 78.690 C 155.192 79.620, 156.233 80.100, 156.576 79.757 C 157.561 78.773, 156.050 77, 154.227 77 C 152.700 77, 152.703 77.132, 154.262 78.690 M 61.079 103.583 C 61.127 104.748, 61.364 104.985, 61.683 104.188 C 61.972 103.466, 61.936 102.603, 61.604 102.271 C 61.272 101.939, 61.036 102.529, 61.079 103.583 M 12 107.583 C 12 108.454, 12.534 108.989, 13.188 108.771 C 15.042 108.153, 15.349 106, 13.583 106 C 12.713 106, 12 106.713, 12 107.583 M 2.250 108.662 C 1.347 109.027, 1 112.526, 1 121.283 C 1 134.630, 1.954 135.649, 4.619 125.148 C 5.771 120.608, 5.901 118.585, 5.101 117.622 C 4.280 116.632, 4.505 115.853, 6.004 114.497 C 8.411 112.318, 8.472 111.615, 6.429 109.571 C 4.789 107.932, 4.316 107.829, 2.250 108.662" stroke="none" fill="black" fill-rule="evenodd"/>
</svg>