<svg xmlns="http://www.w3.org/2000/svg" width="192" height="144" viewBox="0 0 192 144" version="1.1">
	<path d="M -0 72.005 L -0 144.010 96.250 143.755 L 192.500 143.500 192.757 71.750 L 193.013 0 151.757 -0.001 L 110.500 -0.003 110.853 5.682 C 111.047 8.809, 110.694 13.079, 110.067 15.171 C 108.930 18.966, 97.396 33.575, 95.500 33.623 C 93.841 33.665, 82.825 19.859, 80.720 15.100 C 79.235 11.743, 78.890 9.357, 79.305 5.329 L 79.855 0 39.928 0 L 0 0 -0 72.005 M 0.474 72.500 C 0.474 112.100, 0.598 128.154, 0.750 108.176 C 0.901 88.198, 0.901 55.798, 0.750 36.176 C 0.598 16.554, 0.474 32.900, 0.474 72.500 M 90.983 44.250 C 90.973 45.487, 89.906 47.504, 88.612 48.731 C 87.317 49.958, 85.996 52.271, 85.676 53.870 C 85.300 55.748, 83.871 57.534, 81.644 58.911 C 76.555 62.056, 71 68.612, 71 71.471 C 71 73.254, 71.416 73.778, 72.502 73.361 C 73.374 73.026, 74.871 73.774, 76.067 75.142 C 77.482 76.761, 78.291 77.108, 78.648 76.250 C 78.933 75.563, 80.479 75, 82.083 75 C 84.383 75, 85 75.446, 85 77.108 C 85 78.883, 84.564 79.125, 82.250 78.635 C 79.818 78.120, 79.741 78.175, 81.589 79.107 C 83.521 80.083, 83.669 80.958, 83.570 90.831 C 83.464 101.394, 83.421 101.579, 79.187 109.500 C 73.536 120.070, 73.993 122.106, 83.102 126.968 C 85.216 128.096, 87.629 128.648, 88.942 128.305 C 90.976 127.773, 91.149 128.028, 90.840 131.110 C 90.505 134.448, 90.564 134.504, 94.700 134.736 C 99.116 134.984, 100.877 133.762, 99.133 131.660 C 98.561 130.971, 98.168 129.416, 98.260 128.204 C 98.398 126.362, 99.029 126, 102.096 126 C 105.272 126, 105.835 125.643, 106.273 123.351 C 106.558 121.862, 105.701 117.593, 104.317 113.601 C 102.963 109.696, 101.247 102.900, 100.504 98.500 C 99.762 94.100, 98.841 89.600, 98.458 88.500 C 98.075 87.400, 98.957 88.188, 100.417 90.250 C 101.877 92.313, 103.436 94, 103.881 94 C 105.722 94, 108.224 90.032, 107.484 88.287 C 106.817 86.718, 106.647 86.795, 106.085 88.926 C 105.219 92.208, 103 92.825, 103 89.783 C 103 88.472, 102.609 86.972, 102.130 86.450 C 101.652 85.927, 101.005 83.813, 100.693 81.750 C 100.230 78.688, 100.435 77.988, 101.813 77.937 C 103.031 77.891, 102.874 77.622, 101.250 76.969 C 100.013 76.471, 99 75.432, 99 74.660 C 99 72.945, 104.388 72.024, 112 72.437 C 117.115 72.715, 117.298 72.651, 114.621 71.515 L 111.742 70.294 114.093 68.647 C 115.387 67.741, 117.433 67, 118.641 67 C 119.848 67, 121.561 66.722, 122.448 66.382 C 123.895 65.826, 123.878 65.625, 122.279 64.401 C 120.724 63.209, 120.689 62.907, 122 61.995 C 125.087 59.850, 114.664 54, 107.753 54 C 106.054 54, 104.372 52.866, 102.574 50.508 C 101.109 48.587, 98.793 46.735, 97.429 46.393 C 96.064 46.050, 94.493 44.922, 93.938 43.885 C 92.564 41.317, 91.004 41.510, 90.983 44.250 M 93.543 128.931 C 93.226 129.443, 93.425 130.144, 93.984 130.490 C 94.543 130.835, 95 130.416, 95 129.559 C 95 127.802, 94.400 127.544, 93.543 128.931" stroke="none" fill="black" fill-rule="evenodd"/>
</svg>