<svg xmlns="http://www.w3.org/2000/svg" width="192" height="144" viewBox="0 0 192 144" version="1.1">
	<path d="M 140.314 4.035 C 137.239 7.203, 136.106 9.406, 135.042 14.285 C 134.194 18.177, 132.668 21.678, 130.959 23.653 C 129.459 25.387, 128.067 27.242, 127.866 27.776 C 127.329 29.200, 116.981 34.415, 113.535 34.998 C 111.097 35.411, 110.416 36.151, 109.707 39.157 C 109.228 41.189, 109.225 44.742, 109.699 47.157 C 110.532 51.390, 110.666 51.513, 114.987 52 C 118.691 52.418, 119.521 52.911, 120.032 55 C 120.473 56.801, 121.237 57.436, 122.766 57.272 C 124.089 57.129, 125.660 58.072, 126.934 59.772 C 130.570 64.623, 131.043 65, 133.501 65 C 137.217 65, 138.151 70.438, 138.140 92.009 L 138.129 110.748 134.815 114.217 C 130.658 118.566, 119.814 124.130, 117.880 122.905 C 115.918 121.662, 109.543 121.795, 106.591 123.141 C 104.215 124.223, 103.477 123.652, 92.075 111.891 C 80.618 100.073, 80.061 99.305, 80.031 95.279 C 79.988 89.365, 75.873 80.709, 70.735 75.723 C 68.341 73.400, 63.749 68.350, 60.529 64.500 C 53.927 56.606, 52.122 55.184, 51.003 56.994 C 49.737 59.043, 51.119 62.249, 55.528 67.500 C 61.880 75.062, 63.474 78.603, 60.038 77.512 C 57.790 76.799, 54 78.505, 54 80.230 C 54 80.869, 52.879 82.561, 51.509 83.991 C 49.916 85.653, 48.786 88.283, 48.375 91.281 C 47.678 96.366, 48.914 99, 51.998 99 C 53.038 99, 55.823 101.947, 58.849 106.250 C 61.654 110.237, 67.579 117.325, 72.016 122 C 76.453 126.675, 82.652 133.529, 85.792 137.231 L 91.500 143.961 141.750 143.981 L 192 144 192 72 L 192 0 168.115 0 L 144.230 0 140.314 4.035 M 156.033 92.720 C 156.077 97.893, 157.689 110.022, 158.430 110.763 C 159.859 112.192, 160.957 108.951, 161.569 101.494 L 162.225 93.500 159.113 91.220 L 156 88.940 156.033 92.720" stroke="none" fill="black" fill-rule="evenodd"/>
</svg>