<svg xmlns="http://www.w3.org/2000/svg" width="192" height="144" viewBox="0 0 192 144" version="1.1">
	<path d="M 0 72 L 0 144 36.332 144 L 72.665 144 76.280 135.676 C 82.835 120.585, 86.035 104.376, 82.849 102.406 C 82.046 101.911, 82.236 101.301, 83.474 100.395 C 84.572 99.593, 85.004 98.452, 84.604 97.411 C 84.073 96.026, 83.074 95.831, 78.979 96.316 C 74.200 96.882, 74 96.807, 74 94.453 C 74 91.110, 72.233 91.339, 71.716 94.750 C 71.453 96.489, 71.245 95.787, 71.150 92.843 C 71.008 88.440, 71.277 87.936, 76.060 83.636 C 78.844 81.133, 82.631 78.540, 84.476 77.873 C 86.935 76.983, 88.230 75.642, 89.327 72.848 C 90.178 70.683, 91.898 68.548, 93.310 67.905 C 94.871 67.194, 96.049 65.605, 96.476 63.636 C 97.128 60.628, 97.192 60.592, 98.053 62.769 C 98.546 64.017, 100.427 65.910, 102.233 66.975 C 104.039 68.041, 106.319 70.270, 107.299 71.929 C 108.556 74.058, 110.318 75.268, 113.290 76.043 C 118.065 77.290, 128 83.440, 128 85.150 C 128 85.771, 127.213 86.892, 126.250 87.640 C 124.583 88.935, 124.583 89.065, 126.250 90.360 C 127.213 91.108, 128 91.898, 128 92.116 C 128 92.334, 125.438 92.652, 122.307 92.824 C 119.176 92.995, 115.720 93.615, 114.627 94.200 C 112.694 95.234, 112.691 95.301, 114.511 96.632 C 115.540 97.384, 117.271 98, 118.358 98 C 119.444 98, 120.036 98.298, 119.672 98.662 C 119.308 99.026, 117.203 98.727, 114.994 97.998 C 111.214 96.750, 110.818 96.814, 108.269 99.086 C 106.779 100.414, 106.106 100.784, 106.772 99.908 C 108.321 97.871, 107.414 97, 103.745 97 C 100.937 97, 100.846 97.145, 101.383 100.750 C 103.178 112.797, 103.220 116.016, 101.615 118.465 C 99.185 122.174, 99.649 127.162, 103.250 136.021 L 106.500 144.019 149.500 143.759 L 192.500 143.500 192.757 71.750 L 193.013 0 165.007 0 C 139.422 0, 137 0.146, 137 1.683 C 137 4.119, 133.208 14.430, 130.673 18.889 C 129.478 20.991, 126.925 24.632, 125 26.981 C 123.075 29.330, 121.275 31.544, 121 31.901 C 120.725 32.257, 116.173 36.003, 110.885 40.224 C 104.051 45.678, 100.667 49.142, 99.185 52.199 C 97.753 55.153, 97.084 55.855, 97.050 54.439 C 97.022 53.306, 92.442 45.254, 86.872 36.546 C 76.261 19.960, 72.359 11.899, 71.339 4.459 L 70.728 0 35.364 0 L 0 0 0 72 M 0.474 72.500 C 0.474 112.100, 0.598 128.154, 0.750 108.176 C 0.901 88.198, 0.901 55.798, 0.750 36.176 C 0.598 16.554, 0.474 32.900, 0.474 72.500 M 77 97.656 C 77 98.225, 77.900 99.505, 79 100.500 C 80.100 101.495, 81 101.996, 81 101.613 C 81 101.230, 80.100 99.950, 79 98.770 C 77.900 97.589, 77 97.088, 77 97.656" stroke="none" fill="black" fill-rule="evenodd"/>
</svg>