<svg xmlns="http://www.w3.org/2000/svg" width="192" height="144" viewBox="0 0 192 144" version="1.1">
	<path d="M 0 72 L 0 144 52.500 144 C 100.472 144, 111.578 143.457, 101.655 141.595 C 98.869 141.072, 98.119 140.342, 97.171 137.234 C 96.545 135.180, 96.115 130.919, 96.216 127.765 C 96.357 123.331, 95.928 121.393, 94.322 119.222 C 93.180 117.677, 91.943 114.624, 91.574 112.436 C 91.204 110.249, 90.474 107.793, 89.951 106.980 C 89.113 105.676, 88.878 105.678, 87.973 107 C 87.408 107.825, 86.678 109.731, 86.351 111.236 C 86.023 112.740, 84.748 114.990, 83.517 116.236 C 81.759 118.014, 81.173 120.009, 80.788 125.535 C 80.227 133.591, 77.478 140.641, 75.528 139.024 C 74.659 138.302, 73.759 138.609, 72.426 140.082 C 70.370 142.354, 69.994 142.350, 46 139.847 C 32.815 138.471, 31.599 137.410, 36.810 131.836 C 43.762 124.399, 45.157 119.690, 43.071 110.705 C 42.560 108.504, 42.567 102.830, 43.088 97.205 C 43.581 91.867, 44.929 77.184, 46.084 64.575 C 47.238 51.966, 48.623 40.491, 49.161 39.075 C 49.699 37.659, 51.844 34.242, 53.927 31.481 C 56.846 27.615, 57.535 25.974, 56.928 24.334 C 56.028 21.903, 54.920 21.062, 51.827 20.467 C 48.833 19.890, 47.330 18.270, 48.606 16.994 C 49.160 16.440, 52.029 15.203, 54.982 14.244 C 61.315 12.187, 62.362 10.458, 57.871 9.472 C 56.091 9.081, 53.142 7.922, 51.318 6.898 C 49.493 5.873, 48 5.307, 48 5.640 C 48 5.972, 47.352 5.707, 46.559 5.049 C 44.295 3.170, 45.828 1.147, 49.836 0.723 C 51.851 0.510, 41.462 0.261, 26.750 0.168 L 0 0 0 72 M 61.192 1.075 C 61.389 1.666, 61.876 2.116, 62.275 2.075 C 62.674 2.034, 63.675 2, 64.500 2 C 65.325 2, 66 1.550, 66 1 C 66 0.450, 64.838 0, 63.417 0 C 61.996 0, 60.995 0.484, 61.192 1.075 M 72 1.500 C 72 3.341, 72.779 3.341, 76 1.500 L 78.500 0.071 75.250 0.035 C 73.012 0.011, 72 0.467, 72 1.500 M 81.165 3.625 C 79.332 5.543, 76.294 7.846, 74.415 8.742 C 72.537 9.637, 71 10.681, 71 11.060 C 71 11.891, 76.171 13, 80.043 13 C 86.566 13, 88.090 16.303, 82.924 19.243 C 79.207 21.359, 79.625 23.973, 84.313 27.915 C 94.219 36.247, 95.827 41.660, 92.106 54.145 C 91.064 57.640, 89.962 62.750, 89.657 65.500 C 89.352 68.250, 88.798 71.963, 88.426 73.750 C 87.761 76.948, 87.800 76.990, 90.842 76.382 C 93.038 75.942, 94.968 76.374, 97.503 77.869 C 100.811 79.821, 101.112 79.848, 101.621 78.238 C 101.923 77.282, 102.777 74.925, 103.520 73 C 104.263 71.075, 105.384 67.700, 106.011 65.500 C 106.639 63.300, 107.414 60.825, 107.734 60 C 108.054 59.175, 108.203 57.841, 108.065 57.035 C 107.614 54.404, 111.278 43.578, 113.767 40.186 C 115.763 37.467, 116.070 36.212, 115.483 33.186 C 113.861 24.831, 115.442 11, 118.019 11 C 118.316 11, 118.667 15.046, 118.800 19.990 C 118.933 24.935, 119.460 30.080, 119.971 31.423 C 120.831 33.686, 121.169 33.792, 124.542 32.861 C 131.415 30.963, 139.748 33.535, 144.316 38.964 C 145.721 40.634, 147.107 42, 147.396 42 C 148.354 42, 152.146 37.546, 153.675 34.624 C 155.084 31.935, 155.014 31.442, 152.609 27.023 C 151.194 24.423, 150.328 22.005, 150.685 21.648 C 151.042 21.292, 153.044 21, 155.135 21 C 158.238 21, 159.193 20.510, 160.334 18.331 L 161.733 15.662 163.442 18.272 C 164.383 19.707, 166.084 21.020, 167.224 21.190 C 168.363 21.361, 169.787 22.283, 170.387 23.241 C 171.262 24.637, 170.986 25.454, 168.989 27.373 C 166.508 29.758, 166.493 29.759, 164.348 27.800 L 162.195 25.835 161.530 28.865 C 160.597 33.113, 155.567 42.119, 152.539 44.963 C 150.339 47.030, 150 48.193, 150 53.680 C 150 59.544, 142.789 98.914, 141.263 101.383 C 140.891 101.986, 140.298 106.084, 139.946 110.490 C 139.594 114.895, 138.470 121.489, 137.449 125.142 L 135.592 131.785 138.236 135.780 C 140.480 139.172, 141.897 140.095, 147.609 141.888 C 153.459 143.724, 156.795 144, 173.168 144 L 192 144 192 72 L 192 0 138.250 0.069 L 84.500 0.137 81.165 3.625" stroke="none" fill="black" fill-rule="evenodd"/>
</svg>