<svg xmlns="http://www.w3.org/2000/svg" width="192" height="144" viewBox="0 0 192 144" version="1.1">
	<path d="M 68.557 79.223 C 67.701 80.445, 67 82.444, 67 83.665 C 67 86.980, 70.849 92.871, 74.120 94.562 C 76.078 95.575, 77 96.819, 77 98.449 C 77 100.574, 81.248 106.945, 83.259 107.836 C 83.676 108.021, 85.877 109.726, 88.150 111.625 C 90.560 113.639, 93.142 114.957, 94.346 114.789 C 97.119 114.401, 101.098 121.258, 100.330 125.102 C 99.906 127.220, 100.548 128.627, 103.317 131.649 C 107.096 135.772, 106.548 135.729, 114.250 132.516 C 115.463 132.010, 116 132.246, 116 133.286 C 116 134.931, 118.044 136, 121.189 136 C 122.559 136, 123.032 136.475, 122.650 137.469 C 122.340 138.277, 122.665 140.053, 123.372 141.416 C 124.653 143.885, 124.702 143.850, 136.098 132.197 C 144.704 123.397, 147.842 119.480, 148.769 116.384 C 149.927 112.512, 150.427 104.051, 149.338 106.750 C 149.060 107.438, 148.176 108, 147.374 108 C 146.571 108, 143.825 110.267, 141.272 113.039 C 137.063 117.608, 136.345 118.011, 133.565 117.357 C 131.879 116.960, 129.375 116.566, 128 116.481 C 124.045 116.236, 124.477 113.507, 129.436 107.420 C 131.952 104.330, 134.274 100.758, 134.594 99.480 C 135.426 96.167, 134.624 93.440, 132.941 93.855 C 132.148 94.051, 130.375 94.196, 129 94.178 C 127.625 94.160, 122.129 95.486, 116.786 97.125 C 104.589 100.866, 101.258 100.458, 95.250 94.487 C 92.912 92.164, 91 89.863, 91 89.374 C 91 88.885, 93.059 87.242, 95.576 85.721 C 100.645 82.659, 100.918 80.657, 96.329 80.198 C 94.071 79.972, 92.245 80.789, 89.062 83.448 C 86.724 85.402, 84.553 87, 84.239 87 C 83.924 87, 83.949 86.718, 84.293 86.373 C 85.245 85.422, 82.302 80.325, 79.783 78.561 C 76.385 76.180, 70.442 76.530, 68.557 79.223 M 91 107.882 C 91 108.432, 91.450 109.160, 92 109.500 C 92.550 109.840, 93 109.668, 93 109.118 C 93 108.568, 92.550 107.840, 92 107.500 C 91.450 107.160, 91 107.332, 91 107.882 M 119.366 124.841 C 118.087 128.229, 119.599 131, 122.727 131 C 124.790 131, 130.434 123.767, 129.275 122.609 C 128.941 122.274, 126.815 122, 124.553 122 C 120.951 122, 120.305 122.354, 119.366 124.841" stroke="none" fill="black" fill-rule="evenodd"/>
</svg>