<svg xmlns="http://www.w3.org/2000/svg" width="192" height="144" viewBox="0 0 192 144" version="1.1">
	<path d="M 68 2.878 C 68 6.913, 70.435 12.287, 74.213 16.589 L 77.430 20.253 74.465 19.680 C 64.235 17.703, 63.434 17.753, 62.208 20.444 C 61.567 21.850, 60.471 23.010, 59.771 23.022 C 59.072 23.034, 57.386 23.901, 56.023 24.948 L 53.547 26.851 56.160 29.272 C 59.091 31.989, 60.567 38.142, 59.477 43.103 C 58.996 45.293, 59.123 46.042, 59.893 45.566 C 61.004 44.879, 61.713 51.578, 61.103 57 C 60.449 62.811, 59.057 86.511, 58.723 97.500 C 58.590 101.900, 58.102 106.093, 57.639 106.818 C 57.177 107.542, 56.629 111.142, 56.423 114.818 C 55.946 123.298, 54.327 137.665, 53.444 141.250 C 53.010 143.013, 53.168 144, 53.883 144 C 54.498 144, 55 143.325, 55 142.500 C 55 141.675, 55.675 141, 56.500 141 C 57.325 141, 58 141.675, 58 142.500 C 58 143.325, 58.501 144, 59.114 144 C 59.865 144, 60.010 142.550, 59.558 139.538 C 59.159 136.875, 59.333 134.246, 59.991 133.017 C 60.597 131.885, 61.289 127.705, 61.529 123.729 C 61.769 119.753, 62.443 112.450, 63.027 107.500 C 64.268 96.991, 65.040 85.252, 65.114 75.762 L 65.167 69.023 69.493 74.762 C 71.872 77.918, 77.684 84.266, 82.409 88.869 C 87.134 93.472, 91 97.676, 91 98.210 C 91 98.745, 89.408 101.042, 87.463 103.314 C 85.518 105.587, 83.652 108.583, 83.318 109.973 C 82.983 111.363, 81.025 115.878, 78.966 120.008 C 74.812 128.337, 72 136.884, 72 141.182 L 72 144 103.561 144 L 135.123 144 134.427 139.364 C 133.472 132.990, 133.367 116.085, 134.264 112.828 C 134.794 110.900, 136.044 109.816, 138.750 108.936 C 145.086 106.877, 155.442 97.913, 158.648 91.713 C 159.858 89.375, 159.914 87.902, 158.968 83.348 C 158.337 80.308, 156.916 76.916, 155.811 75.811 C 153.399 73.399, 153.925 72.831, 160.794 70.426 C 165.081 68.926, 166.459 68.804, 168.044 69.787 C 172.505 72.554, 180.009 75.325, 180.826 74.507 C 181.078 74.255, 179.421 72.186, 177.144 69.908 C 173.315 66.080, 173.563 65.566, 178.301 67.513 C 179.830 68.141, 180.007 67.876, 179.474 65.751 C 178.932 63.594, 179.296 63.093, 182.110 62.112 C 192.021 58.656, 170.170 57.211, 158.296 60.537 C 148.034 63.411, 147.999 63.414, 148.006 61.367 C 148.010 60.340, 149.368 58.729, 151.024 57.786 C 152.971 56.679, 154.251 54.995, 154.645 53.023 C 155.090 50.798, 155.964 49.807, 157.878 49.356 C 163.968 47.920, 167.254 41.277, 163 39 C 161.459 38.175, 161 38.240, 161 39.280 C 161 40.573, 155.091 44, 152.860 44 C 152.271 44, 150.469 45.110, 148.856 46.467 C 146.663 48.313, 145.201 48.790, 143.054 48.361 C 140.734 47.897, 139.949 48.238, 138.957 50.143 C 138.282 51.440, 137.582 52.670, 137.403 52.879 C 137.223 53.087, 134.842 51.824, 132.111 50.071 C 128.016 47.443, 125.835 46.792, 119.664 46.352 C 111.413 45.764, 111.284 45.827, 105.594 53.288 C 103.501 56.032, 103.037 57.340, 103.822 58.286 C 105.531 60.345, 103.669 62.206, 100.655 61.450 C 98.429 60.891, 98 61.114, 98 62.833 C 98 63.960, 97.597 65.131, 97.104 65.436 C 95.807 66.237, 92 73.794, 92 75.566 C 92 76.393, 92.757 78.292, 93.681 79.785 C 95.028 81.959, 94.480 81.686, 90.931 78.414 C 88.494 76.167, 84.385 72.643, 81.799 70.584 C 77.747 67.356, 77.008 66.196, 76.439 62.170 C 76.077 59.601, 75.183 54.575, 74.453 51 C 73.723 47.425, 73.501 44.119, 73.960 43.652 C 74.419 43.186, 74.054 41.490, 73.148 39.883 C 71.693 37.304, 71.675 36.849, 73 35.996 C 75.275 34.531, 75.702 34.761, 76.305 37.774 C 77.019 41.345, 83.032 47.540, 86.669 48.453 C 90.241 49.350, 91.996 50.800, 92.015 52.872 C 92.024 53.768, 92.417 55.109, 92.888 55.853 C 94.081 57.736, 98 55.585, 98 53.047 C 98 50.384, 99.041 48, 100.203 48 C 102.500 48, 107.368 43.400, 109.095 39.599 C 111.685 33.894, 111.455 29.604, 108.251 23.904 C 105.959 19.826, 105.708 18.722, 106.740 17.257 C 109.684 13.082, 111.993 7.895, 112.601 4.092 L 113.256 0 90.628 0 L 68 0 68 2.878 M 58.469 27.050 C 57.519 28.588, 58.820 29.580, 60.104 28.296 C 60.822 27.578, 60.839 27.019, 60.156 26.597 C 59.596 26.251, 58.837 26.455, 58.469 27.050 M 62 62.882 C 62 63.982, 62.450 65.160, 63 65.500 C 63.550 65.840, 64 65.218, 64 64.118 C 64 63.018, 63.550 61.840, 63 61.500 C 62.450 61.160, 62 61.782, 62 62.882 M 61.667 76.667 C 60.409 77.925, 61 81, 62.500 81 C 63.433 81, 64 80.056, 64 78.500 C 64 76.072, 63.026 75.307, 61.667 76.667 M 60.184 94.531 C 60.358 95.923, 60.950 97.062, 61.500 97.062 C 62.050 97.062, 62.642 95.923, 62.816 94.531 C 63.042 92.727, 62.664 92, 61.500 92 C 60.336 92, 59.958 92.727, 60.184 94.531 M 58.656 111.206 C 57.964 113.853, 58.399 114.445, 60.457 113.655 C 62.374 112.919, 62.508 109, 60.617 109 C 59.856 109, 58.974 109.993, 58.656 111.206 M 56.656 127.206 C 56.339 128.420, 56.276 129.609, 56.515 129.849 C 57.250 130.583, 60 127.843, 60 126.378 C 60 124.135, 57.283 124.809, 56.656 127.206" stroke="none" fill="black" fill-rule="evenodd"/>
</svg>