<svg xmlns="http://www.w3.org/2000/svg" width="192" height="144" viewBox="0 0 192 144" version="1.1">
	<path d="M 0 72.026 L 0 144.052 15.059 143.776 L 30.117 143.500 33.519 135.675 C 35.983 130.005, 36.754 127.022, 36.319 124.844 C 35.907 122.784, 35.465 122.248, 34.913 123.140 C 34.471 123.856, 33.753 124.086, 33.318 123.651 C 32.882 123.216, 31.766 124.579, 30.837 126.680 C 29.354 130.035, 29.139 130.195, 29.074 127.997 C 29.033 126.620, 29.900 122.346, 31 118.500 C 33.456 109.912, 33.580 107.874, 31.485 110.559 C 30.554 111.753, 30.944 109.841, 32.501 105.590 C 34.285 100.717, 34.844 97.684, 34.397 95.300 C 33.683 91.499, 35.023 85.802, 39.060 75.465 C 40.572 71.596, 42.084 66.646, 42.422 64.465 C 42.760 62.284, 43.280 58.925, 43.578 57 C 44.753 49.419, 46.353 43.337, 48.077 39.905 C 50.386 35.307, 55.806 30.549, 60.500 29 L 64.171 27.788 61.586 25.089 C 60.164 23.605, 59 21.869, 59 21.230 C 59 19.199, 62.687 18, 68.934 18 C 74.043 18, 75.001 17.724, 75.004 16.250 C 75.010 13.410, 78.734 8.133, 82.241 5.995 C 86.446 3.431, 87.803 3.455, 85.453 6.052 C 83.612 8.087, 83.619 8.095, 86.363 7.052 C 91.611 5.057, 91.942 6.013, 87.440 10.162 C 82.686 14.544, 82.668 16.837, 87.402 15.037 C 90.654 13.801, 93 13.698, 93 14.793 C 93 15.229, 91.021 16.114, 88.603 16.761 C 86.184 17.408, 83.456 18.687, 82.540 19.603 C 80.986 21.157, 81.158 21.456, 85.115 24.076 C 90.960 27.946, 91.888 29.862, 89.035 32.172 C 87.794 33.178, 85.703 34, 84.389 34 C 81.664 34, 81.312 35.184, 83.497 36.997 C 85.316 38.507, 88.012 47.210, 87.968 51.432 C 87.942 53.965, 87.182 54.958, 83.607 57.125 C 79.571 59.573, 79.158 60.236, 77.526 66.893 C 76.564 70.821, 76.086 75.040, 76.466 76.268 C 78.045 81.380, 78.683 86.078, 77.867 86.582 C 77.387 86.879, 77.460 87.992, 78.031 89.058 C 79.033 90.930, 79.268 90.894, 85.034 87.983 C 90.732 85.107, 91 84.802, 91 81.208 C 91 76.460, 93.353 73, 96.581 73 C 99.398 73, 101 76.068, 101 81.464 C 101 84.522, 101.492 85.053, 106.964 87.901 L 112.927 91.005 114.107 88.800 C 114.954 87.217, 114.975 86.492, 114.182 86.227 C 112.886 85.795, 113.650 80.767, 115.603 76.877 C 116.327 75.434, 116.674 74.007, 116.373 73.706 C 116.072 73.405, 115.385 71.435, 114.848 69.329 C 114.310 67.223, 113.562 64.291, 113.185 62.812 C 112.808 61.334, 110.956 59.084, 109.069 57.812 C 103.481 54.047, 102.735 46.458, 107.233 39.141 L 109.298 35.782 106.177 29.641 C 103.235 23.852, 99.553 12.114, 100.410 11.256 C 100.626 11.041, 102.238 13.707, 103.992 17.182 C 108.452 26.019, 112.312 31.996, 113.559 31.998 C 114.141 31.999, 115.466 31.380, 116.503 30.621 C 118.280 29.322, 118.293 29.097, 116.731 26.713 C 114.840 23.827, 115.614 22.727, 120.331 21.598 C 123.022 20.955, 123.131 20.712, 122.535 16.711 C 121.918 12.575, 121.939 12.537, 123.704 14.584 C 127.942 19.502, 130.418 23.269, 130.722 25.261 C 131.100 27.739, 133.791 31, 135.459 31 C 137.419 31, 142.800 37.279, 144.884 42 C 145.977 44.475, 147.406 50.550, 148.059 55.500 C 148.772 60.901, 150.638 68.099, 152.725 73.500 C 156.398 83.007, 159.191 94.339, 158.381 96.450 C 158.115 97.142, 158.820 100.137, 159.948 103.105 C 162.302 109.297, 162.459 110.402, 160.842 109.403 C 160.027 108.899, 159.886 109.398, 160.366 111.094 C 160.741 112.417, 161.575 115.682, 162.218 118.349 C 163.016 121.653, 164.044 123.447, 165.446 123.980 C 168.581 125.171, 176.691 134.311, 179.204 139.483 L 181.441 144.087 186.970 143.793 L 192.500 143.500 192.757 71.750 L 193.013 0 96.507 0 L 0 0 0 72.026 M 0.474 72.500 C 0.474 112.100, 0.598 128.154, 0.750 108.176 C 0.901 88.198, 0.901 55.798, 0.750 36.176 C 0.598 16.554, 0.474 32.900, 0.474 72.500 M 71.500 66 C 71.101 66.646, 71.224 67.624, 71.774 68.174 C 72.441 68.841, 73.016 68.783, 73.500 68 C 73.899 67.354, 73.776 66.376, 73.226 65.826 C 72.559 65.159, 71.984 65.217, 71.500 66 M 118.154 66.438 C 118.345 67.355, 118.950 68.082, 119.500 68.053 C 120.984 67.974, 120.712 65.737, 119.154 65.218 C 118.313 64.938, 117.939 65.395, 118.154 66.438 M 82.516 98.006 C 75.426 103.548, 75.693 104.801, 83.127 100.870 C 86.632 99.016, 89.500 96.862, 89.500 96.083 C 89.500 93.524, 87.572 94.054, 82.516 98.006 M 102.510 94.984 C 102.165 95.543, 102.166 96.460, 102.514 97.022 C 103.397 98.451, 115 104.210, 115 103.220 C 115 102.499, 107.359 96.359, 104.319 94.636 C 103.670 94.268, 102.856 94.425, 102.510 94.984 M 94.497 102.016 C 94.132 103.675, 92.859 105.716, 91.667 106.553 C 83.800 112.074, 75.092 117.197, 72.750 117.681 C 70.701 118.105, 70 118.843, 70 120.576 C 70 123.405, 71.661 131.649, 73.662 138.750 L 75.142 144 98.071 144 L 121 144 121 138.651 C 121 135.709, 121.291 129.859, 121.647 125.651 C 122.288 118.067, 122.272 118, 119.897 117.987 C 117.885 117.976, 109.545 113.109, 100.333 106.570 C 99.141 105.724, 97.868 103.675, 97.503 102.016 C 97.139 100.357, 96.463 99, 96 99 C 95.537 99, 94.861 100.357, 94.497 102.016" stroke="none" fill="black" fill-rule="evenodd"/>
</svg>