<svg xmlns="http://www.w3.org/2000/svg" width="192" height="144" viewBox="0 0 192 144" version="1.1">
	<path d="M 0 57 L 0 114 4 114 L 8 114 8 107.934 C 8 100.816, 9.018 98.463, 12.474 97.596 C 14.551 97.075, 15 96.362, 15 93.588 C 15 91.511, 15.577 89.993, 16.500 89.638 C 17.325 89.322, 18 88.149, 18 87.031 C 18 85.914, 18.450 85, 19 85 C 19.550 85, 20 86.088, 20 87.417 C 20 88.746, 20.563 90.023, 21.250 90.254 C 21.938 90.486, 22.500 91.968, 22.500 93.548 C 22.500 95.575, 23.203 96.775, 24.885 97.620 C 27.981 99.176, 28.962 100.816, 29.002 104.500 L 29.034 107.500 31.115 104.250 C 32.260 102.463, 33.361 101, 33.563 101 C 34.402 101, 36.411 105.746, 36.949 109 L 37.528 112.500 50.195 113.011 C 61.547 113.469, 63.110 113.755, 65.246 115.761 C 66.557 116.993, 67.937 118, 68.314 118 C 68.692 118, 69.003 114.963, 69.007 111.250 C 69.011 106.346, 69.524 103.725, 70.880 101.668 L 72.747 98.836 74.764 101.668 C 76.670 104.345, 76.751 105.581, 76.244 124.250 L 75.708 144 133.694 144 L 191.681 144 192.338 120.750 C 192.700 107.963, 192.996 75.563, 192.998 48.750 L 193 0 96.500 0 L 0 0 0 57 M 0.468 57.500 C 0.468 88.850, 0.595 101.530, 0.750 85.679 C 0.904 69.827, 0.904 44.177, 0.749 28.679 C 0.594 13.180, 0.468 26.150, 0.468 57.500 M 123.727 36.250 C 122.420 37.487, 121.042 39.339, 120.663 40.363 C 120.192 41.641, 119.332 42.059, 117.931 41.692 C 116.310 41.268, 116.116 41.435, 116.995 42.495 C 117.850 43.524, 117.633 43.982, 116.053 44.483 C 113.250 45.373, 113.460 47, 116.378 47 C 120.016 47, 121.241 49.209, 120.466 54.375 C 119.981 57.613, 120.242 59.778, 121.396 62.092 C 122.278 63.860, 123 66.296, 123 67.505 C 123 70.619, 117.644 75.981, 115.177 75.336 C 114.104 75.055, 112.924 75.314, 112.555 75.911 C 111.772 77.178, 114.364 81.302, 115.334 80.333 C 115.693 79.973, 116.890 80.496, 117.994 81.494 C 119.097 82.493, 120 82.960, 120 82.533 C 120 81.111, 123.194 84.381, 124.079 86.709 C 125.351 90.054, 126.526 89.526, 127.882 85 C 128.541 82.800, 129.457 81, 129.918 81 C 131.346 81, 132.960 83.549, 133.619 86.845 C 134.354 90.522, 137.844 91.313, 138.710 88 C 138.998 86.900, 139.385 86, 139.570 86 C 140.755 86, 145 88.471, 145 89.161 C 145 89.622, 145.450 90, 146 90 C 146.550 90, 147 89.084, 147 87.965 C 147 86.237, 147.303 86.092, 149.007 87.004 C 150.655 87.886, 151.470 87.621, 153.571 85.520 C 154.978 84.113, 156.550 83.222, 157.065 83.540 C 158.177 84.228, 158.326 82.659, 157.250 81.584 C 156.098 80.432, 156.222 75.602, 157.427 74.674 C 158.172 74.101, 158.116 73.692, 157.244 73.338 C 156.553 73.058, 156.223 72.448, 156.511 71.982 C 156.800 71.515, 155.677 70.332, 154.018 69.351 C 152.358 68.371, 151 66.952, 151 66.199 C 151 65.145, 149.499 64.907, 144.498 65.165 C 138.017 65.499, 137.205 65.251, 138.888 63.450 C 139.376 62.928, 140.101 61.425, 140.499 60.112 C 141.142 57.991, 140.959 57.781, 138.861 58.234 C 137.563 58.514, 135.713 59.074, 134.750 59.478 C 133.398 60.047, 133 59.725, 133 58.065 C 133 55.911, 133.823 54.593, 137.439 50.952 C 138.505 49.878, 139.012 49, 138.566 49 C 138.120 49, 138.324 48.314, 139.020 47.476 C 140.580 45.597, 140.451 45.482, 135.500 44.351 C 131.880 43.523, 131.468 43.107, 131.168 39.972 C 130.575 33.773, 127.805 32.388, 123.727 36.250" stroke="none" fill="black" fill-rule="evenodd"/>
</svg>