<svg xmlns="http://www.w3.org/2000/svg" width="192" height="144" viewBox="0 0 192 144" version="1.1">
	<path d="M 54.491 18.865 C 46.915 22.307, 41.004 31.185, 40.839 39.370 C 40.733 44.677, 42.728 48.618, 47.876 53.269 C 51.715 56.737, 54.353 57.668, 61.956 58.240 C 65.412 58.500, 65.412 58.500, 59.228 61.500 C 54.509 63.790, 53.085 64.974, 53.215 66.500 C 53.309 67.600, 52.642 69.905, 51.733 71.623 C 49.856 75.170, 50.331 76.206, 53.473 75.418 C 56.641 74.622, 58.624 77.335, 57.184 80.495 C 56.317 82.397, 56.384 83.241, 57.486 84.344 C 58.263 85.120, 59.161 87.948, 59.482 90.628 C 61.034 103.582, 61.280 106.973, 61.105 112.988 C 61 116.621, 61.465 120.499, 62.161 121.800 C 63.133 123.617, 63.142 124.543, 62.202 126.048 C 60.665 128.509, 60.665 132.523, 62.202 135.316 C 63.796 138.213, 64.020 139.869, 62.911 140.555 C 60.800 141.859, 62.098 143.863, 65 143.781 C 67.936 143.697, 69.084 141.788, 66.979 140.487 C 66.346 140.096, 66.204 137.470, 66.604 133.564 C 67.037 129.338, 66.879 127.043, 66.124 126.577 C 64.731 125.716, 64.642 121.340, 66 120.500 C 67.463 119.596, 67.220 114.653, 65.556 111.445 C 63.073 106.658, 64.896 105, 72.642 105 C 78.519 105, 79.135 105.185, 78.466 106.750 C 75.263 114.249, 74.073 127.958, 75.636 139.360 L 76.272 144 91.155 144 L 106.038 144 105.519 141.500 C 105.234 140.125, 104.771 137.893, 104.491 136.540 C 103.643 132.443, 109.579 119.031, 112.250 119.007 C 112.662 119.003, 113.014 120.688, 113.032 122.750 C 113.062 126.264, 113.156 126.378, 114.532 124.559 C 115.339 123.491, 116 122.837, 116 123.106 C 116 123.374, 116.920 127.809, 118.044 132.960 C 119.691 140.506, 119.837 142.491, 118.794 143.168 C 118.067 143.640, 122.756 143.897, 129.500 143.754 L 141.500 143.500 141.459 138.276 C 141.423 133.780, 140.813 132.177, 137.082 126.776 L 132.746 120.500 133.381 111.432 C 134.035 102.076, 135.810 93.769, 138.550 87.245 C 139.907 84.014, 140.259 83.740, 141.111 85.250 C 141.655 86.213, 142.444 87, 142.865 87 C 144.680 87, 153.278 77.131, 155.603 72.379 C 159.029 65.377, 158.602 61.238, 154.189 58.671 C 151.150 56.903, 150.571 56.865, 147.149 58.209 C 145.099 59.015, 142.579 59.379, 141.551 59.018 C 140.032 58.485, 141.072 57.387, 147.091 53.165 C 153.691 48.535, 154.904 48.033, 158.206 48.565 C 160.245 48.893, 163.620 48.611, 165.706 47.939 C 167.793 47.267, 170.130 46.544, 170.900 46.333 C 171.974 46.037, 171.799 45.415, 170.150 43.659 C 167.617 40.963, 167.446 40, 169.500 40 C 171.327 40, 171.429 38.832, 169.750 37.141 C 168.748 36.131, 169.646 34.852, 174.278 30.691 C 177.455 27.836, 180.043 25.156, 180.028 24.737 C 179.981 23.437, 172.965 26.828, 162.888 33.020 C 153.553 38.756, 136.974 47.480, 136.656 46.823 C 134.543 42.455, 132 40.608, 132 43.441 C 132 45.830, 127.297 47.299, 123.683 46.039 C 119.279 44.504, 112.275 44.776, 108.358 46.634 C 104.317 48.552, 101.609 53.943, 102.545 58.205 C 103.098 60.724, 102.893 61, 100.472 61 C 98.495 61, 97.938 61.396, 98.362 62.500 C 98.678 63.325, 98.498 64, 97.962 64 C 97.367 64, 97.210 61.362, 97.559 57.250 C 98.043 51.534, 97.816 50.001, 96.075 47.241 C 93.735 43.533, 88.524 40.009, 85.372 40.004 C 82.601 39.999, 81.413 38.381, 80.679 33.612 C 79.835 28.125, 75.729 22.715, 70.073 19.636 C 64.410 16.554, 60.053 16.339, 54.491 18.865 M 69.889 70.782 C 69.319 72.277, 69.104 74.850, 69.410 76.500 C 69.717 78.150, 70.138 82.480, 70.346 86.122 C 70.554 89.765, 70.998 93.187, 71.332 93.728 C 71.715 94.349, 73.885 94.395, 77.220 93.853 C 80.124 93.382, 84.750 92.719, 87.500 92.380 C 90.250 92.042, 92.784 91.599, 93.131 91.397 C 93.479 91.194, 95.016 88.080, 96.548 84.475 L 99.333 77.922 97.087 76.348 C 95.444 75.197, 94.997 74.147, 95.426 72.440 C 96.335 68.815, 93.531 67.855, 88.590 70.099 C 83.397 72.457, 80.563 72.438, 75.213 70.010 L 70.926 68.065 69.889 70.782 M 54 73.059 C 54 73.641, 54.450 73.840, 55 73.500 C 55.550 73.160, 56 72.684, 56 72.441 C 56 72.198, 55.550 72, 55 72 C 54.450 72, 54 72.477, 54 73.059 M 62 104.059 C 62 104.641, 62.450 104.840, 63 104.500 C 63.550 104.160, 64 103.684, 64 103.441 C 64 103.198, 63.550 103, 63 103 C 62.450 103, 62 103.477, 62 104.059 M 62 116.500 C 62 118.056, 62.567 119, 63.500 119 C 64.433 119, 65 118.056, 65 116.500 C 65 114.944, 64.433 114, 63.500 114 C 62.567 114, 62 114.944, 62 116.500 M 64.163 128.889 C 63.427 129.349, 62.977 130.676, 63.163 131.837 C 63.399 133.316, 63.901 133.698, 64.837 133.111 C 65.573 132.651, 66.023 131.324, 65.837 130.163 C 65.601 128.684, 65.099 128.302, 64.163 128.889" stroke="none" fill="black" fill-rule="evenodd"/>
</svg>