<svg xmlns="http://www.w3.org/2000/svg" width="192" height="144" viewBox="0 0 192 144" version="1.1">
	<path d="M 0 48.519 L 0 97.038 2.250 96.545 C 3.488 96.274, 11.250 95.328, 19.500 94.443 C 27.750 93.558, 43.725 91.547, 55 89.973 C 108.784 82.465, 141.678 81.571, 166.473 86.944 C 171.694 88.075, 179.546 89, 183.922 89 L 191.879 89 192.272 92.750 C 192.487 94.813, 192.643 74.675, 192.617 48 C 192.591 21.325, 192.329 7.375, 192.035 17 C 191.502 34.448, 191.490 34.519, 188.141 41 C 186.294 44.575, 183.854 48.512, 182.719 49.749 C 180.861 51.772, 180.487 51.846, 178.984 50.485 C 177.487 49.131, 176.828 49.189, 172.645 51.039 C 165.477 54.210, 165.046 53.261, 169.332 43.750 C 170.509 41.137, 172.041 39, 172.736 39 C 173.431 39, 174 38.586, 174 38.079 C 174 37.573, 175.399 36.852, 177.110 36.476 C 179.756 35.895, 180.667 34.806, 183.226 29.162 C 184.879 25.516, 186.458 20.042, 186.734 16.998 C 187.200 11.861, 186.988 11.143, 183.786 6.982 C 179.983 2.040, 178.323 1.768, 174.612 5.479 C 171.693 8.398, 168 7.898, 168 4.583 C 168 3.383, 168.540 1.860, 169.200 1.200 C 170.133 0.267, 166.711 -0, 153.800 -0 L 137.201 -0 134.612 8.024 C 132.256 15.328, 129.101 21.260, 126.500 23.274 C 125.950 23.700, 122.941 23.772, 119.813 23.434 L 114.126 22.818 112.971 27.159 C 111.379 33.147, 106.070 42.892, 103.715 44.153 C 102.234 44.945, 101.386 44.815, 100.179 43.607 C 98.841 42.270, 98.781 41.495, 99.796 38.689 C 101.638 33.593, 101.372 32.710, 98.551 34.559 C 95.613 36.484, 93.554 42.083, 94.626 45.234 C 95.050 46.480, 95.323 47.789, 95.234 48.143 C 95.145 48.496, 96.180 49.982, 97.536 51.444 C 100.952 55.130, 100.694 56.353, 96.659 55.596 L 93.318 54.969 93.409 60.235 C 93.499 65.422, 93.187 65.806, 89.917 64.531 C 88.634 64.031, 88.418 64.491, 88.780 66.957 C 89.319 70.625, 88.408 70.735, 84.676 67.452 C 79.840 63.199, 78.707 54.777, 81.515 43.942 C 83.900 34.739, 86.618 29.263, 93.424 19.955 L 99.753 11.301 96.414 7.401 C 94.578 5.255, 93.058 2.712, 93.038 1.750 C 93.002 0.109, 90.105 0, 46.500 0 L 0 0 0 48.519 M 0.463 49 C 0.463 75.675, 0.592 86.588, 0.749 73.250 C 0.907 59.913, 0.907 38.088, 0.749 24.750 C 0.592 11.413, 0.463 22.325, 0.463 49 M -0 122.926 L -0 144.010 96.250 143.755 L 192.500 143.500 192.586 122 C 192.633 110.175, 192.494 102.412, 192.278 104.750 L 191.885 109 184.693 109.004 C 180.737 109.006, 171.650 110.212, 164.500 111.685 C 152.455 114.165, 149.626 114.366, 126 114.416 C 99.683 114.471, 94.850 114.091, 57 108.989 C 45.175 107.395, 28.750 105.386, 20.500 104.525 C 12.250 103.664, 4.263 102.708, 2.750 102.400 L 0 101.841 -0 122.926 M 0.425 123 C 0.425 134.825, 0.569 139.662, 0.746 133.750 C 0.923 127.838, 0.923 118.163, 0.746 112.250 C 0.569 106.338, 0.425 111.175, 0.425 123" stroke="none" fill="black" fill-rule="evenodd"/>
</svg>