<svg xmlns="http://www.w3.org/2000/svg" width="192" height="144" viewBox="0 0 192 144" version="1.1">
	<path d="M 0 57 L 0 114 3.956 114 L 7.912 114 8.206 106.827 C 8.485 100.019, 8.652 99.571, 11.500 98.003 C 13.575 96.861, 14.604 95.449, 14.837 93.426 C 15.022 91.817, 15.809 90.140, 16.587 89.700 C 17.364 89.260, 18 88.023, 18 86.950 C 18 85.878, 18.450 85, 19 85 C 19.550 85, 20 86.088, 20 87.417 C 20 88.746, 20.545 90.015, 21.211 90.237 C 21.878 90.459, 22.440 91.951, 22.461 93.551 C 22.490 95.689, 23.201 96.800, 25.142 97.734 C 27.733 98.981, 29.636 103.161, 28.472 105.046 C 27.227 107.060, 29.838 105.885, 31.351 103.750 C 32.938 101.512, 32.954 101.511, 34.516 103.500 C 35.380 104.600, 36.330 106.625, 36.627 108 C 36.924 109.375, 37.315 110.995, 37.495 111.601 C 37.699 112.288, 42.584 112.907, 50.488 113.248 C 61.541 113.726, 63.438 114.063, 65.391 115.898 C 66.622 117.054, 67.955 118, 68.355 118 C 68.754 118, 68.977 114.963, 68.850 111.250 C 68.674 106.065, 69.053 103.841, 70.486 101.657 L 72.352 98.815 74.154 101.157 C 75.751 103.234, 75.958 105.796, 75.978 123.750 L 76 144 133.840 144 L 191.681 144 192.338 120.750 C 192.700 107.963, 192.996 75.563, 192.998 48.750 L 193 0 96.500 0 L 0 0 0 57 M 0.468 57.500 C 0.468 88.850, 0.595 101.530, 0.750 85.679 C 0.904 69.827, 0.904 44.177, 0.749 28.679 C 0.594 13.180, 0.468 26.150, 0.468 57.500 M 123.807 36.938 C 123.098 38.072, 121.926 39, 121.200 39 C 120.475 39, 120.119 39.384, 120.409 39.853 C 120.699 40.322, 119.375 42.007, 117.468 43.597 C 113.436 46.959, 113.045 48.278, 116.324 47.455 C 119.885 46.561, 121.377 49.098, 120.625 54.767 C 120.138 58.437, 120.437 60.344, 121.935 63.140 C 123.122 65.355, 123.642 67.680, 123.275 69.130 C 122.457 72.357, 118.395 76, 115.615 76 C 114.360 76, 113.086 76.247, 112.784 76.549 C 111.845 77.489, 114.374 81.794, 115.590 81.327 C 116.224 81.084, 117.475 81.618, 118.371 82.514 C 119.267 83.410, 120 83.870, 120 83.536 C 120 81.847, 123.906 85.315, 124.180 87.248 C 124.669 90.688, 127.320 89.978, 128.093 86.199 C 128.464 84.384, 128.981 82.686, 129.241 82.426 C 130.363 81.304, 133.064 83.437, 133.592 85.860 C 134.593 90.454, 134.901 91, 136.493 91 C 137.349 91, 138.495 89.827, 139.041 88.393 L 140.032 85.787 143.516 88.444 C 146.784 90.937, 147 90.978, 147 89.098 C 147 87.436, 147.533 87.162, 150.128 87.491 C 153.126 87.870, 156.602 85.935, 155.286 84.619 C 154.945 84.279, 155.754 83.993, 157.083 83.985 C 158.444 83.976, 159.021 83.648, 158.405 83.235 C 157.051 82.327, 155.720 74.709, 157.059 75.537 C 157.577 75.856, 158 75.641, 158 75.059 C 158 74.477, 157.564 74, 157.031 74 C 156.499 74, 156.322 73.325, 156.638 72.500 C 156.960 71.663, 156.665 71, 155.972 71 C 155.288 71, 153.687 69.875, 152.412 68.500 C 150.429 66.359, 149.218 66, 143.991 66 L 137.887 66 139.443 63.777 C 140.299 62.555, 141 60.725, 141 59.710 C 141 58.262, 140.516 58.011, 138.750 58.545 C 137.512 58.919, 136.073 59.624, 135.550 60.112 C 133.897 61.657, 133 61.082, 133 58.479 C 133 56.742, 133.799 55.593, 135.567 54.788 C 137.427 53.940, 137.991 53.072, 137.615 51.634 C 137.310 50.469, 137.758 49.166, 138.701 48.477 C 140.723 46.998, 139.576 45.005, 136.691 44.985 C 133.220 44.960, 131.765 43.496, 131.098 39.354 C 130.574 36.103, 130.055 35.451, 127.785 35.188 C 125.924 34.972, 124.697 35.512, 123.807 36.938" stroke="none" fill="black" fill-rule="evenodd"/>
</svg>