<svg xmlns="http://www.w3.org/2000/svg" width="192" height="144" viewBox="0 0 192 144" version="1.1">
	<path d="M 0 29.557 L 0 59.114 5.861 52.307 C 9.084 48.563, 12.650 43.673, 13.784 41.440 C 16.632 35.835, 26.977 22.133, 31.105 18.500 C 38.719 11.798, 49.215 5.290, 57.871 1.904 C 62.496 0.095, 62.472 0.094, 31.250 0.047 L 0 0 0 29.557 M 139.804 6.750 C 147.790 14.754, 153.431 23.070, 159.608 35.946 C 163.026 43.069, 164.373 45.036, 165.089 43.946 C 165.887 42.729, 166.280 42.817, 167.562 44.500 C 168.401 45.600, 169.332 47.625, 169.631 49 C 172.145 60.555, 174.162 62.528, 180.133 59.273 C 185.837 56.164, 188 57.408, 188 63.799 C 188 69.208, 184.688 74.863, 174.998 86 C 171.887 89.575, 168.070 94.750, 166.516 97.500 C 157.402 113.630, 141.615 127.420, 126.318 132.613 C 119.468 134.939, 91.613 134.985, 83.500 132.684 C 64.047 127.166, 49.677 115.109, 41.366 97.332 C 36.903 87.785, 35.041 79.386, 34.975 68.500 C 34.923 59.925, 34.849 59.630, 33.420 62.265 C 31.484 65.835, 31.120 88.487, 32.945 91.897 C 33.614 93.148, 33.923 94.410, 33.631 94.702 C 33.339 94.994, 32.422 93.718, 31.592 91.866 C 30.090 88.515, 30.086 88.514, 30.676 91.500 C 32.885 102.669, 40.131 116.594, 48.830 126.389 C 55.857 134.302, 63.030 140.913, 66.684 142.845 C 68.267 143.682, 85.826 144, 130.466 144 C 185.067 144, 192.130 143.825, 192.655 142.457 C 192.981 141.608, 192.912 109.208, 192.503 70.457 L 191.759 0 162.414 0 L 133.069 0 139.804 6.750 M 1 107.878 L 1 144 29.500 144 C 45.175 144, 58 143.791, 58 143.535 C 58 143.279, 54.962 141.071, 51.250 138.628 C 36.498 128.921, 24.205 111.143, 19.007 92 C 16.683 83.441, 14.836 79.891, 13.349 81.125 C 12.607 81.741, 12 83.319, 12 84.631 C 12 88.451, 8.933 85.741, 6 79.327 C 1.044 68.491, 1 68.740, 1 107.878 M 36.453 103.467 C 41.289 114.077, 51.021 125.462, 59.357 130.261 L 62.500 132.070 60 130.031 C 58.625 128.910, 56.258 126.981, 54.739 125.746 C 49.578 121.547, 41.068 110.370, 37.935 103.675 C 36.218 100.005, 34.404 96.749, 33.904 96.441 C 33.404 96.132, 34.552 99.294, 36.453 103.467" stroke="none" fill="black" fill-rule="evenodd"/>
</svg>