<svg xmlns="http://www.w3.org/2000/svg" width="192" height="144" viewBox="0 0 192 144" version="1.1">
	<path d="M 141.500 1.525 C 140.950 1.727, 138.653 2.366, 136.395 2.946 C 132.997 3.818, 132.130 4.556, 131.364 7.227 C 130.566 10.008, 129.864 10.553, 126.295 11.162 C 120.454 12.160, 117.027 14.162, 112.198 19.401 C 108.236 23.699, 108 24.294, 108 29.978 C 108 34.667, 108.443 36.443, 110 38 C 112.432 40.432, 112.560 42.587, 110.346 43.827 C 109.164 44.488, 108.933 45.288, 109.538 46.626 C 110.004 47.657, 110.441 48.950, 110.509 49.500 C 110.904 52.701, 112.371 57.674, 113.238 58.750 C 113.792 59.438, 115.990 60, 118.122 60 L 122 60 122 64.313 C 122 68.368, 121.643 68.919, 115.999 73.563 C 112.699 76.278, 109.774 79.175, 109.499 80 C 109.223 80.825, 107.199 82.254, 104.999 83.176 C 102.232 84.335, 101 85.465, 101 86.844 C 101 88.042, 99.607 89.698, 97.506 90.996 C 95.585 92.184, 93.595 93.902, 93.084 94.814 C 92.291 96.231, 92.079 96.111, 91.624 93.986 C 90.809 90.178, 90.304 67, 91.036 67 C 91.392 67, 93.891 67.670, 96.591 68.489 C 107.301 71.738, 107.629 69.686, 96.990 65.996 C 91.644 64.143, 89.446 62.830, 88.444 60.891 C 86.432 57.001, 82.322 55.638, 76.796 57.030 C 73.645 57.823, 71.168 57.864, 68.636 57.165 C 63.961 55.874, 63.841 57.480, 68.449 59.677 C 71.127 60.954, 71.965 62.012, 72.199 64.411 C 72.416 66.636, 73.072 67.582, 74.546 67.793 C 75.671 67.954, 77.354 69.529, 78.287 71.293 C 79.778 74.112, 79.865 75.893, 79.008 86 C 77.458 104.272, 77.672 111.393, 79.829 113.345 C 83.092 116.298, 89.714 114.935, 97.243 109.759 C 98.752 108.722, 100.394 108.125, 100.891 108.433 C 102.204 109.244, 103.314 122.184, 102.489 127.064 L 101.785 131.229 92.426 130.820 C 84.860 130.489, 82.628 130.026, 80.783 128.403 C 79.527 127.299, 76.775 125.519, 74.666 124.448 C 72.558 123.377, 68.508 120.428, 65.666 117.895 C 51.518 105.286, 46.400 101.033, 45.354 101.017 C 44.116 100.999, 38 107.542, 38 108.885 C 38 109.333, 40.669 112.022, 43.931 114.859 C 47.193 117.696, 50.495 121.251, 51.268 122.759 C 58.198 136.275, 59.329 137.321, 68.735 138.903 C 79.218 140.667, 83.798 141.864, 84.517 143.027 C 84.887 143.625, 97.669 144, 117.714 144 C 148.682 144, 150.233 143.913, 148.759 142.250 C 146.727 139.957, 144.843 130.519, 144.455 120.686 C 144.249 115.467, 143.640 112.259, 142.646 111.159 C 141.264 109.629, 141.692 109.500, 148.159 109.494 C 153.668 109.489, 155.444 109.114, 156.445 107.744 C 157.147 106.785, 158.669 106, 159.829 106 C 161.403 106, 161.782 105.556, 161.327 104.250 C 160.781 102.687, 160.884 102.660, 162.287 104 C 163.537 105.193, 163.686 106.422, 163.016 110 C 162.046 115.183, 162.308 115.820, 164.620 113.900 C 166.114 112.660, 166.213 112.754, 165.563 114.801 C 165.164 116.059, 165.154 120.470, 165.542 124.603 C 166.084 130.386, 166.564 131.998, 167.623 131.591 C 168.631 131.204, 169 132.002, 169 134.567 C 169 137.760, 169.177 137.976, 171 137 C 172.776 136.049, 173.002 136.241, 173.015 138.715 C 173.024 140.247, 173.361 141.981, 173.765 142.568 C 174.169 143.156, 178.438 143.749, 183.250 143.886 L 192 144.136 192 109.068 C 192 87.244, 191.636 74, 191.037 74 C 189.336 74, 177.632 62.410, 173.500 56.635 C 171.300 53.559, 169.193 51.033, 168.817 51.022 C 168.442 51.010, 167.849 51.900, 167.500 53 C 167.151 54.100, 166.462 55, 165.969 55 C 165.476 55, 163.916 56.687, 162.503 58.750 L 159.934 62.500 160.217 45.500 C 160.476 29.927, 160.322 28.122, 158.382 24 C 157.217 21.525, 155.160 18.242, 153.812 16.705 C 152.114 14.771, 151.484 13.060, 151.765 11.149 C 152.091 8.926, 151.372 7.666, 148.082 4.693 C 144.063 1.062, 143.499 0.791, 141.500 1.525 M 140.134 124 C 140.077 127.025, 140.467 130.175, 141 131 C 142.180 132.827, 142.180 126.139, 141 121.500 C 140.362 118.994, 140.220 119.405, 140.134 124" stroke="none" fill="black" fill-rule="evenodd"/>
</svg>