<svg xmlns="http://www.w3.org/2000/svg" width="192" height="144" viewBox="0 0 192 144" version="1.1">
	<path d="M 0 72 L 0 144 35.941 144 C 55.709 144, 72.116 143.621, 72.402 143.158 C 72.688 142.696, 71.365 140.807, 69.461 138.962 C 67.557 137.117, 66 134.991, 66 134.237 C 66 133.483, 64.875 131.392, 63.500 129.589 C 62.125 127.786, 61 125.740, 61 125.042 C 61 124.344, 60.171 122.136, 59.159 120.136 C 55.119 112.160, 52.870 104.075, 50.358 88.500 C 48.986 79.996, 48.913 76.390, 49.866 64.395 C 50.482 56.638, 51.664 48.369, 52.493 46.020 C 53.322 43.671, 54 40.707, 54 39.433 C 54 38.160, 54.395 36.874, 54.877 36.576 C 55.359 36.278, 56.276 33.960, 56.914 31.426 C 57.552 28.892, 59.038 25.515, 60.216 23.921 C 61.394 22.328, 62.064 20.731, 61.706 20.372 C 61.347 20.014, 62.391 18.031, 64.027 15.966 C 65.662 13.901, 67 11.531, 67 10.699 C 67 9.866, 69.299 7.119, 72.108 4.593 L 77.216 0 38.608 0 L 0 0 0 72 M 79 0.547 C 79 1.072, 103.654 30.050, 116.300 44.389 C 119.642 48.178, 124.330 53.677, 126.718 56.608 C 130.713 61.513, 131.316 61.889, 134.280 61.326 C 136.051 60.990, 138.771 60.075, 140.325 59.293 C 142.160 58.369, 146.367 57.874, 152.325 57.881 C 157.371 57.886, 168.363 57.636, 176.750 57.324 L 192 56.758 192 28.379 L 192 0 135.500 0 C 104.425 0, 79 0.246, 79 0.547 M 163 80.496 C 158.901 83.633, 149.524 89.870, 146.136 91.714 C 142.877 93.487, 136 93.416, 136 91.609 C 136 89.534, 129.290 89.006, 127.605 90.948 C 126.864 91.802, 119.158 102.850, 110.480 115.500 C 101.803 128.150, 93.839 139.738, 92.783 141.250 L 90.864 144 141.432 144 L 192 144 192 111.500 C 192 93.625, 191.887 78.983, 191.750 78.963 C 191.613 78.942, 185.875 78.676, 179 78.371 C 166.597 77.821, 166.473 77.837, 163 80.496" stroke="none" fill="black" fill-rule="evenodd"/>
</svg>