<svg xmlns="http://www.w3.org/2000/svg" width="192" height="144" viewBox="0 0 192 144" version="1.1">
	<path d="M 0 72 L 0 144 34.468 144 L 68.936 144 74.208 127.750 C 80.887 107.165, 80.723 107.961, 77.440 112.037 C 75.907 113.942, 72.171 118.073, 69.139 121.218 C 64.903 125.611, 63.323 126.683, 62.313 125.845 C 61.591 125.246, 61 124.135, 61 123.378 C 61 121.749, 59.811 121.589, 58.375 123.025 C 56.984 124.416, 51 125.100, 51 123.868 C 51 123.326, 50.550 123.160, 50 123.500 C 48.454 124.456, 48.787 123.677, 51.500 120 C 54.362 116.121, 54.689 114.522, 52.445 115.383 C 51.590 115.711, 53.353 113.396, 56.362 110.240 C 66.656 99.442, 69.920 95.498, 71.043 92.500 C 71.661 90.850, 72.579 88.719, 73.083 87.764 C 74.535 85.014, 74.158 82.224, 72.143 80.807 C 68.848 78.487, 68.569 75.328, 71.491 73.414 C 75.229 70.965, 76.106 68.737, 76.574 60.513 C 76.958 53.751, 76.847 53.227, 75.122 53.678 C 73.181 54.186, 71.807 51.636, 69.977 44.129 C 68.556 38.295, 68.963 38.092, 81.969 38.148 C 88.455 38.175, 94.603 37.767, 95.631 37.240 C 98.358 35.842, 103.744 34.965, 105.489 35.634 C 107.479 36.398, 107.436 41.365, 105.388 47.376 C 104.501 49.979, 104.013 52.346, 104.303 52.637 C 104.594 52.927, 103.749 55.490, 102.426 58.332 C 98.920 65.861, 99.170 69.234, 103.380 71.242 C 106.856 72.899, 107.603 74.953, 109.711 88.651 C 110.072 90.998, 111.382 92.632, 114.848 95.057 C 122.637 100.507, 126.108 104.165, 124.886 105.637 C 124.088 106.598, 124.498 107.557, 126.499 109.412 C 127.974 110.779, 128.889 112.371, 128.532 112.949 C 127.380 114.812, 122.978 114.069, 120.501 111.592 C 118.422 109.513, 117.926 109.385, 116.874 110.652 C 116.203 111.460, 115.449 114.595, 115.199 117.618 C 114.856 121.745, 114.401 122.984, 113.371 122.589 C 111.583 121.903, 111.631 122.487, 113.950 129.556 C 115.022 132.825, 116.391 137.418, 116.991 139.762 L 118.084 144.024 155.292 143.762 L 192.500 143.500 192.757 71.750 L 193.013 0 96.507 0 L 0 0 0 72 M 0.474 72.500 C 0.474 112.100, 0.598 128.154, 0.750 108.176 C 0.901 88.198, 0.901 55.798, 0.750 36.176 C 0.598 16.554, 0.474 32.900, 0.474 72.500 M 83.015 85.691 C 83.007 86.896, 83.450 88.160, 84 88.500 C 85.273 89.287, 85.273 86.970, 84 85 C 83.212 83.781, 83.028 83.910, 83.015 85.691 M 82.731 101.920 C 82.296 103.583, 82.426 103.974, 83.168 103.232 C 83.750 102.650, 84.028 101.585, 83.788 100.863 C 83.538 100.114, 83.085 100.568, 82.731 101.920" stroke="none" fill="black" fill-rule="evenodd"/>
</svg>