<svg xmlns="http://www.w3.org/2000/svg" width="192" height="144" viewBox="0 0 192 144" version="1.1">
	<path d="M 156.785 2.572 C 155.885 4.547, 155.890 5.314, 156.804 5.879 C 157.616 6.381, 156.856 7.707, 154.411 10.057 C 150.652 13.670, 147.467 18.800, 148.402 19.735 C 148.704 20.038, 149.638 19.716, 150.476 19.020 C 152.266 17.535, 152.430 18.327, 150.919 21.151 C 148.759 25.187, 151.173 24.264, 156.698 18.941 C 161.996 13.838, 162.118 13.775, 158.673 17.930 C 155.265 22.040, 154.024 25, 155.708 25 C 156.097 25, 158.205 23.313, 160.392 21.250 C 163.878 17.962, 164.153 17.847, 162.621 20.311 C 160.124 24.328, 161.129 25.780, 164.247 22.662 C 165.901 21.008, 167.141 20.419, 167.556 21.090 C 168.418 22.486, 172.816 18.279, 177.167 11.895 C 180.173 7.484, 182 5.878, 182 7.647 C 182 8.003, 180.430 10.210, 178.512 12.551 C 175.155 16.647, 172.508 21.841, 173.348 22.681 C 173.570 22.903, 175.327 21.378, 177.253 19.292 C 186.579 9.193, 187.189 8.589, 185.626 11 C 182.276 16.166, 179.992 21, 180.900 21 C 181.417 21, 184.126 18.435, 186.920 15.300 C 191.530 10.129, 192 9.156, 192 4.800 L 192 0 174.979 -0 L 157.957 -0 156.785 2.572 M 187.593 22.750 C 182.431 37.956, 177.515 49.864, 171.389 62 C 164.739 75.174, 163.719 76.631, 164.265 72.188 C 164.614 69.344, 164.125 68.407, 160.804 65.564 C 157.259 62.530, 156.206 62.200, 148.218 61.621 C 143.423 61.274, 135.570 60.934, 130.767 60.867 C 125.183 60.789, 121.396 60.262, 120.267 59.404 C 118.583 58.126, 118.585 58.062, 120.309 58.032 C 121.304 58.014, 121.840 57.550, 121.500 57 C 121.160 56.450, 121.385 56, 122 56 C 124.427 56, 121.726 54.039, 118.454 53.425 C 116.542 53.067, 114.749 52.403, 114.470 51.951 C 114.190 51.499, 115.430 51.550, 117.224 52.064 C 121.243 53.217, 123.096 53.225, 124.874 52.099 C 125.940 51.423, 125.410 50.439, 122.499 47.693 C 119.205 44.586, 118.458 44.290, 116.348 45.251 C 114.411 46.134, 112.839 45.897, 108.223 44.027 C 100.358 40.840, 97.706 38.300, 98.274 34.500 C 98.583 32.436, 97.888 30.097, 96.046 27.001 C 92.889 21.694, 90.361 20.714, 89.427 24.434 C 88.676 27.427, 88.213 27.538, 85.223 25.443 C 82.840 23.775, 82.136 25.087, 83.910 27.889 C 84.519 28.850, 84.013 29.945, 82.266 31.447 C 78.861 34.377, 78.020 42.134, 80.535 47.432 C 81.548 49.568, 86.587 54.973, 92.398 60.158 C 97.954 65.116, 102.891 70.371, 103.368 71.836 C 104.921 76.599, 106.376 78.618, 114.841 87.747 C 119.428 92.695, 124.421 98.614, 125.935 100.902 C 130.205 107.352, 132.625 109.271, 134.932 108.037 C 135.997 107.466, 138.833 107, 141.234 107 C 146.123 107, 148 105.696, 148 102.300 C 148 101.035, 148.406 100, 148.902 100 C 149.398 100, 150.775 98.537, 151.961 96.750 L 154.119 93.500 153.480 96.750 C 152.811 100.155, 153.677 100.857, 155.947 98.750 C 157.054 97.723, 157.167 97.857, 156.582 99.500 C 155.308 103.076, 152 115.429, 152 116.609 C 152 117.789, 155.839 119.710, 159.652 120.437 C 160.836 120.663, 163.198 121.568, 164.902 122.449 C 166.606 123.330, 168 123.803, 168 123.500 C 168 123.197, 169.342 123.643, 170.983 124.491 C 173.768 125.931, 174.100 125.900, 175.983 124.017 C 177.092 122.908, 178 121.550, 178 121 C 178 120.450, 178.956 120, 180.125 120 C 181.953 120, 182.166 120.420, 181.650 123 L 181.050 126 186.525 126 L 192 126 192 69 C 192 37.650, 191.830 12, 191.622 12 C 191.413 12, 189.601 16.837, 187.593 22.750 M 154.600 90.600 C 154.244 91.527, 154.178 92.511, 154.453 92.786 C 154.728 93.061, 155.244 92.527, 155.600 91.600 C 155.956 90.673, 156.022 89.689, 155.747 89.414 C 155.472 89.139, 154.956 89.673, 154.600 90.600" stroke="none" fill="black" fill-rule="evenodd"/>
</svg>