<svg xmlns="http://www.w3.org/2000/svg" width="192" height="144" viewBox="0 0 192 144" version="1.1">
	<path d="M -0 72.005 L -0 144.010 96.250 143.755 L 192.500 143.500 192.757 71.750 L 193.013 0 96.507 0 L 0 0 -0 72.005 M 0.474 72.500 C 0.474 112.100, 0.598 128.154, 0.750 108.176 C 0.901 88.198, 0.901 55.798, 0.750 36.176 C 0.598 16.554, 0.474 32.900, 0.474 72.500 M 98.100 48.011 C 85.817 53.951, 79.634 58.429, 75.634 64.280 C 71.244 70.703, 69.739 77.850, 72.613 78.624 C 73.651 78.903, 75.175 80.565, 76 82.316 C 77.851 86.244, 79.396 86.402, 79.821 82.707 L 80.141 79.914 82.321 83.113 C 86.353 89.033, 91.132 89.879, 87.697 84.065 C 85.989 81.173, 85.466 75.555, 86.624 72.537 C 87.171 71.113, 87.428 71.165, 88.685 72.961 C 89.475 74.089, 91.444 75.695, 93.061 76.531 C 96.470 78.294, 96.907 80, 93.950 80 C 92.035 80, 91.942 80.409, 92.539 86.250 C 92.889 89.688, 94.115 94.852, 95.263 97.727 C 97.045 102.192, 97.182 103.499, 96.204 106.687 C 95.424 109.229, 95.388 110.622, 96.091 111.056 C 97.694 112.047, 107.186 110.899, 110.250 109.344 C 112.932 107.983, 113.982 106, 112.020 106 C 111.482 106, 110.133 104.220, 109.023 102.045 C 107.459 98.979, 106.983 96.003, 106.906 88.795 C 106.846 83.186, 106.368 79.229, 105.701 78.816 C 105.092 78.439, 103.223 78.369, 101.547 78.661 L 98.500 79.190 101.727 76.540 C 103.503 75.083, 105.834 72.002, 106.907 69.695 C 107.981 67.388, 109.705 64.456, 110.738 63.179 L 112.615 60.859 126.057 72.026 C 142.101 85.353, 146.991 87.977, 155.822 87.990 C 161.430 87.999, 177.747 84.877, 188.250 81.787 L 192 80.683 192 64.842 C 192 56.129, 191.827 49, 191.616 49 C 190.688 49, 171.072 57.440, 165.718 60.142 L 159.811 63.124 152.155 59.165 C 147.945 56.987, 141.575 54.405, 138 53.428 C 134.425 52.451, 126.881 49.930, 121.236 47.826 C 115.592 45.722, 109.943 44, 108.684 44 C 107.424 44, 102.662 45.805, 98.100 48.011 M 190.583 45.866 C 190.152 46.563, 190.070 47.403, 190.400 47.733 C 191.295 48.628, 192.271 47.312, 191.787 45.862 C 191.449 44.846, 191.213 44.846, 190.583 45.866 M 94.968 65.585 C 92.796 71.296, 94.680 74.312, 98.980 72.011 C 101.945 70.424, 101.442 65.062, 98.218 63.878 C 96.314 63.179, 95.775 63.463, 94.968 65.585" stroke="none" fill="black" fill-rule="evenodd"/>
</svg>