<svg xmlns="http://www.w3.org/2000/svg" width="192" height="144" viewBox="0 0 192 144" version="1.1">
	<path d="M 16.947 3.750 C 16.283 5.813, 15.409 7.950, 15.005 8.500 C 14.601 9.050, 12.859 13.198, 11.135 17.718 C 8.081 25.724, 8 26.360, 8 42.418 C 8 55.615, 8.283 59.060, 9.420 59.700 C 10.201 60.140, 10.989 62.075, 11.170 64 L 11.500 67.500 13.210 64.500 C 14.981 61.393, 15.042 61.461, 15.402 67 C 15.456 67.825, 16.484 68.640, 17.686 68.811 C 19.537 69.075, 19.981 69.992, 20.591 74.811 C 21.283 80.282, 19.499 131.009, 18.308 139.750 L 17.728 144 68.715 144 L 119.701 144 121.587 136.250 C 122.924 130.753, 123.476 124.794, 123.486 115.750 L 123.500 103 129.097 103 C 134.187 103, 135.034 102.669, 138.466 99.336 C 144.899 93.089, 146.634 86.347, 143 81.727 C 141.900 80.329, 141 78.707, 141 78.124 C 141 77.540, 140.371 77.304, 139.601 77.600 C 138.832 77.895, 137.905 77.656, 137.542 77.068 C 137.179 76.481, 134.665 76, 131.955 76 C 127.368 76, 126.858 76.258, 124.558 79.750 C 123.199 81.813, 121.785 85.413, 121.416 87.750 C 120.710 92.220, 120.153 92.753, 118.217 90.817 C 116.868 89.468, 110.629 89.543, 94.500 91.102 L 83.500 92.164 75.758 87.503 C 69.519 83.747, 67.857 82.226, 67.195 79.671 C 66.734 77.888, 65.343 75.985, 64.018 75.323 C 60.430 73.532, 59.905 71.729, 60.908 64.648 C 61.414 61.070, 61.584 56.321, 61.286 54.093 C 60.804 50.506, 61.098 49.711, 63.858 47.133 C 66.544 44.623, 66.768 44.053, 65.487 42.989 C 64.669 42.310, 64.003 41.473, 64.006 41.128 C 64.014 40.396, 69.153 37.351, 70.231 37.440 C 72.143 37.597, 74.285 32.399, 74.274 27.627 C 74.257 19.718, 72.409 16.119, 62.134 3.978 L 58.767 -0 38.461 -0 L 18.155 -0 16.947 3.750 M 54 63 C 54 63.550, 54.450 64, 55 64 C 55.550 64, 56 63.550, 56 63 C 56 62.450, 55.550 62, 55 62 C 54.450 62, 54 62.450, 54 63" stroke="none" fill="black" fill-rule="evenodd"/>
</svg>