<svg xmlns="http://www.w3.org/2000/svg" width="192" height="144" viewBox="0 0 192 144" version="1.1">
	<path d="M 0 72 L 0 144 29.684 144 C 57.729 144, 59.607 143.885, 63.676 141.915 C 66.045 140.768, 70.462 139.493, 73.491 139.082 C 76.520 138.671, 79.288 138.046, 79.641 137.692 C 79.994 137.339, 79.555 133.326, 78.663 128.775 C 77.772 124.224, 76.747 116.827, 76.385 112.338 C 76.023 107.849, 75.381 103.616, 74.957 102.930 C 74.352 101.952, 72.883 102.050, 68.114 103.388 C 63.794 104.600, 61.501 104.803, 60.170 104.091 C 58.439 103.165, 53.566 103.535, 39.984 105.624 C 36.794 106.115, 36.160 105.783, 33.151 102.039 C 31.328 99.769, 29.442 96.542, 28.962 94.867 C 27.608 90.146, 30.039 88.450, 55.500 76.347 C 62.695 72.927, 64.238 72.560, 70.834 72.702 L 78.169 72.861 77.532 68.180 C 77.105 65.036, 77.405 62.064, 78.448 59.124 C 79.302 56.718, 80 52.166, 80 49.009 C 80 44.668, 80.519 42.610, 82.129 40.564 C 85.176 36.689, 83.444 35.441, 75.446 35.747 C 71.901 35.882, 69 35.585, 69 35.086 C 69 33.926, 74.743 29.074, 77.723 27.716 C 80.846 26.293, 80.617 25.566, 76.021 22.315 C 73.833 20.767, 72.033 19.096, 72.021 18.603 C 72.009 18.097, 75.254 17.982, 79.464 18.338 L 86.929 18.968 88.699 13.984 C 89.673 11.243, 90.997 9, 91.642 9 C 92.287 9, 93.405 11.302, 94.126 14.115 C 94.847 16.929, 95.901 19.368, 96.469 19.535 C 97.036 19.703, 101.744 21.019, 106.932 22.459 C 118.673 25.720, 122.915 27.600, 125.617 30.739 L 127.733 33.198 131.035 28.601 C 132.851 26.072, 134.447 24.115, 134.582 24.252 C 134.716 24.388, 134.473 26.427, 134.041 28.783 C 133.370 32.448, 133.543 33.267, 135.241 34.457 C 136.459 35.310, 137.291 37.129, 137.393 39.166 C 137.503 41.352, 138.118 42.592, 139.195 42.799 C 142.287 43.395, 141.915 45.731, 138.428 47.609 C 136.029 48.901, 135.168 49.955, 135.545 51.141 C 136.359 53.708, 134.843 54.041, 129.170 52.545 C 124.120 51.213, 124 51.231, 123.985 53.341 C 123.977 54.528, 123.397 57.145, 122.697 59.155 C 120.658 65.007, 122.872 85.774, 126.334 93.279 C 129.093 99.258, 129.808 105.792, 127.911 107.689 C 126.501 109.099, 125.967 121.297, 127.131 125.514 C 127.684 127.514, 128.834 128.985, 130.106 129.317 C 131.788 129.757, 132.025 130.297, 131.359 132.180 C 130.908 133.456, 130.530 136.525, 130.519 139 L 130.500 143.500 161.500 143.500 L 192.500 143.500 192.757 71.750 L 193.013 0 96.507 0 L 0 0 0 72 M 0.474 72.500 C 0.474 112.100, 0.598 128.154, 0.750 108.176 C 0.901 88.198, 0.901 55.798, 0.750 36.176 C 0.598 16.554, 0.474 32.900, 0.474 72.500" stroke="none" fill="black" fill-rule="evenodd"/>
</svg>