<svg xmlns="http://www.w3.org/2000/svg" width="192" height="144" viewBox="0 0 192 144" version="1.1">
	<path d="M 0.082 18.750 C 0.153 35.239, 0.324 37.138, 1.494 34.500 C 3.266 30.508, 7.279 26.913, 14.191 23.124 C 21.796 18.957, 29.783 17, 39.191 17 C 46.448 17, 46.992 16.851, 47.418 14.750 C 48.802 7.927, 49.136 6.966, 49.951 7.470 C 51.420 8.378, 62.577 30.211, 64.443 35.828 C 66.372 41.637, 69.497 44, 75.250 44 C 80.231 44, 81.205 45.538, 78.804 49.608 C 76.296 53.858, 75.293 54.488, 73.456 52.964 C 72.235 51.950, 72 52.249, 72 54.812 C 72 60.676, 69.308 65.211, 64.848 66.861 C 62.910 67.577, 62.539 68.500, 62.358 73.052 C 62.241 75.995, 62.628 79.324, 63.218 80.451 C 64.265 82.451, 64.242 82.457, 62.236 80.677 C 60.233 78.900, 60.163 78.913, 59.478 81.177 C 59.092 82.455, 57.596 84.759, 56.154 86.298 C 53.883 88.723, 53.030 89.012, 49.766 88.461 C 47.498 88.077, 46 88.222, 46 88.824 C 46 89.374, 47.913 90.142, 50.250 90.530 C 56.693 91.600, 57.169 91.700, 62.004 92.993 C 67.527 94.470, 69.209 95.765, 68.501 97.996 C 67.904 99.878, 74.010 109.640, 75.562 109.285 C 76.078 109.167, 79.224 107.947, 82.554 106.575 C 97.269 100.508, 112.543 101.068, 127.323 108.215 C 131.810 110.385, 135.711 112.474, 135.991 112.856 C 136.271 113.239, 138.446 115.067, 140.825 116.919 C 146.392 121.254, 154.065 131.406, 157.112 138.469 L 159.500 144.005 176 143.753 L 192.500 143.500 192.677 71.750 L 192.854 0 96.427 0 L 0 0 0.082 18.750 M 0.415 19 C 0.415 29.175, 0.564 33.337, 0.745 28.250 C 0.927 23.162, 0.927 14.837, 0.745 9.750 C 0.564 4.662, 0.415 8.825, 0.415 19 M 1.071 66 C 1.127 79.214, 1.163 79.430, 2.771 76.196 C 4.018 73.688, 4.150 72.469, 3.317 71.136 C 2.501 69.829, 2.575 68.537, 3.610 66.075 C 5.497 61.589, 5.350 59.048, 3 55.500 L 1.013 52.500 1.071 66 M 130 60.532 C 130 62.668, 133.199 68, 134.480 68 C 136.874 68, 137.419 65.289, 135.587 62.492 C 134.200 60.375, 130 58.902, 130 60.532 M 12.293 96.107 C 11.684 96.716, 8.894 97.279, 6.094 97.357 L 1.002 97.500 1.001 109.809 C 1 116.610, 1.392 121.875, 1.877 121.576 C 3.355 120.663, 5.021 112.356, 4.375 109.124 C 3.326 103.880, 4.616 101.332, 9.575 98.856 C 14.018 96.637, 16.006 95, 14.259 95 C 13.787 95, 12.902 95.498, 12.293 96.107 M 1.252 127.500 C 1.263 129.700, 1.468 130.482, 1.707 129.238 C 1.946 127.994, 1.937 126.194, 1.687 125.238 C 1.437 124.282, 1.241 125.300, 1.252 127.500 M 1.195 141.500 C 1.215 143.150, 1.439 143.704, 1.693 142.731 C 1.947 141.758, 1.930 140.408, 1.656 139.731 C 1.382 139.054, 1.175 139.850, 1.195 141.500" stroke="none" fill="black" fill-rule="evenodd"/>
</svg>