<svg xmlns="http://www.w3.org/2000/svg" width="192" height="144" viewBox="0 0 192 144" version="1.1">
	<path d="M 116 13.717 C 116 14.203, 116.563 15.206, 117.250 15.947 C 118.278 17.056, 118.145 17.155, 116.500 16.508 C 115.400 16.076, 112.003 15.512, 108.952 15.255 C 104.087 14.846, 103.031 15.103, 100.368 17.344 C 98.583 18.846, 96.541 19.709, 95.415 19.437 C 94.362 19.182, 92.854 19.396, 92.064 19.911 C 90.842 20.708, 90.833 21.094, 92.006 22.507 C 93.640 24.476, 94.071 27.908, 92.947 29.999 C 92.448 30.928, 92.722 32.141, 93.668 33.185 C 94.903 34.550, 95.165 37.602, 95.042 49.186 C 94.958 57.059, 94.302 66.279, 93.584 69.675 C 92.867 73.071, 92.486 78.021, 92.740 80.675 C 93.130 84.766, 91.749 108.087, 89.419 136.750 L 88.829 144 110.552 144 L 132.275 144 131.629 138.750 C 131.274 135.862, 128.965 125.416, 126.497 115.535 C 121.299 94.719, 119.728 82, 122.356 82 C 123.260 82, 124 82.648, 124 83.441 C 124 84.234, 124.498 85.190, 125.107 85.566 C 125.861 86.032, 125.987 85.533, 125.501 84.002 C 125.108 82.765, 124.712 81.246, 124.620 80.626 C 124.528 80.007, 123.841 78.023, 123.092 76.218 C 121.515 72.415, 122.269 71.063, 125.012 72.776 C 129.254 75.425, 135.199 69.355, 132.064 65.577 C 131.126 64.447, 131.474 64.055, 133.883 63.526 C 137.850 62.654, 139.202 60.816, 138.818 56.815 C 138.534 53.858, 138.203 53.531, 135.750 53.788 C 133.938 53.977, 133 53.604, 133 52.694 C 133 51.175, 123.784 43, 122.071 43 C 121.482 43, 121 41.931, 121 40.625 C 121 39.070, 122.444 37.021, 125.180 34.694 L 129.360 31.139 126.180 28.168 C 124.280 26.393, 123 24.211, 123 22.747 C 123 21.399, 121.987 18.801, 120.750 16.975 C 118.542 13.717, 116 11.973, 116 13.717" stroke="none" fill="black" fill-rule="evenodd"/>
</svg>