<svg xmlns="http://www.w3.org/2000/svg" width="192" height="144" viewBox="0 0 192 144" version="1.1">
	<path d="M 0 72 L 0 144 42.383 144 C 84.576 144, 84.769 143.991, 85.315 141.904 C 86.007 139.256, 85.171 137, 83.497 137 C 81.737 137, 82.181 130.369, 84.201 126.500 C 87.486 120.206, 88.347 112.955, 87.006 102.888 C 84.734 85.844, 84.734 85.722, 86.917 79.978 C 88.062 76.965, 88.999 73.782, 88.999 72.905 C 89 72.028, 89.900 70.495, 91 69.500 C 93.754 67.007, 93.536 62.852, 90.500 60 C 89.125 58.708, 88 56.830, 88 55.826 C 88 54.822, 87.395 54, 86.655 54 C 84.557 54, 82 50.605, 82 47.820 C 82 43.222, 84.088 39.211, 87.816 36.646 C 95.372 31.448, 100.116 30.813, 106.134 34.195 C 112.184 37.596, 114.493 43.563, 116.499 60.991 C 117.415 68.947, 118.374 75.796, 118.630 76.210 C 119.754 78.030, 121.632 116.811, 121.223 129.763 L 120.772 144.026 156.636 143.763 L 192.500 143.500 192.757 71.750 L 193.013 0 96.507 0 L 0 0 0 72 M 0.474 72.500 C 0.474 112.100, 0.598 128.154, 0.750 108.176 C 0.901 88.198, 0.901 55.798, 0.750 36.176 C 0.598 16.554, 0.474 32.900, 0.474 72.500" stroke="none" fill="black" fill-rule="evenodd"/>
</svg>