<svg xmlns="http://www.w3.org/2000/svg" width="192" height="144" viewBox="0 0 192 144" version="1.1">
	<path d="M 125.946 3.366 C 124.464 4.120, 123.623 5.309, 123.812 6.383 C 124.006 7.490, 123.350 8.357, 122.062 8.694 C 118.504 9.624, 119.571 20, 123.224 20 C 124.707 20, 125.043 20.445, 124.543 21.748 C 122.884 26.071, 121.919 33.590, 121.236 47.500 L 120.500 62.500 114.750 62.384 C 111.588 62.320, 109 62.417, 109 62.599 C 109 63.293, 113.628 65.374, 116.478 65.960 C 119.289 66.539, 119.438 66.813, 119.146 70.866 C 118.917 74.036, 119.288 75.490, 120.566 76.425 C 122.200 77.620, 122.191 77.879, 120.398 81.095 C 119.354 82.968, 118.216 84.632, 117.868 84.794 C 117.521 84.956, 114.654 86.643, 111.497 88.544 C 108.340 90.445, 105.362 92, 104.879 92 C 104.395 92, 104 90.722, 104 89.160 C 104 87.598, 103.170 82.985, 102.156 78.910 C 100.284 71.390, 99.949 57.463, 101.547 53.593 C 103.447 48.992, 96.193 43.653, 93.102 47.378 C 92.124 48.556, 92.180 49.448, 93.378 51.765 C 94.714 54.347, 94.715 54.996, 93.387 57.554 C 92.565 59.139, 92.129 61.378, 92.418 62.529 C 92.707 63.680, 92.539 66.169, 92.046 68.061 C 90.984 72.127, 89.929 81.025, 89.468 89.801 C 89.158 95.695, 89.294 96.161, 91.568 97.026 C 94.593 98.176, 94.641 99.307, 91.750 101.334 C 89.825 102.684, 89.717 103.061, 91 103.941 C 92.932 105.265, 103 105.315, 103 104 C 103 103.450, 102.373 103, 101.607 103 C 100.177 103, 99 100.931, 99 98.418 C 99 96.588, 101.953 96.650, 104.441 98.532 C 105.509 99.339, 107.871 100, 109.691 100 C 112.341 100, 113 99.599, 113 97.985 C 113 96.863, 114.234 95.202, 115.787 94.235 C 122.091 90.309, 126.394 86.105, 131.377 79 C 134.271 74.875, 136.930 70.713, 137.288 69.750 C 138.222 67.234, 140.505 67.595, 142.452 70.567 C 144.374 73.500, 144.643 72.986, 136.204 82.482 C 132.914 86.185, 131.058 89.113, 131.334 90.168 C 131.579 91.104, 131.237 92.687, 130.574 93.685 C 124.501 102.835, 122.104 123.144, 125.475 136.897 L 127.215 144 152.034 144 C 180.404 144, 179.525 144.322, 175.182 135.509 C 171.042 127.109, 168.910 117.381, 166.962 98 C 166.326 91.675, 164.725 82.450, 163.405 77.500 C 160.668 67.235, 160.243 60, 162.379 60 C 164.212 60, 166.349 54.673, 165.539 52.121 C 165.185 51.007, 163.418 48.612, 161.612 46.798 C 158.491 43.664, 156.027 38, 157.785 38 C 158.874 38, 164.177 43.756, 166.430 47.383 C 167.415 48.969, 168.733 52.339, 169.360 54.871 C 170.560 59.718, 172.056 60.705, 176.509 59.587 C 178.570 59.070, 178.757 58.640, 178.026 56.091 C 176.301 50.074, 171.355 43.176, 161.470 33 C 155.860 27.225, 150.294 20.475, 149.100 18 C 144.153 7.746, 142.974 6, 140.992 6 C 139.896 6, 139 5.355, 139 4.567 C 139 2.669, 135.541 1.640, 133.262 2.860 C 132.221 3.417, 130.797 3.466, 129.920 2.975 C 128.996 2.458, 127.426 2.612, 125.946 3.366 M 147.500 38 C 147.840 38.550, 148.568 39, 149.118 39 C 149.668 39, 149.840 38.550, 149.500 38 C 149.160 37.450, 148.432 37, 147.882 37 C 147.332 37, 147.160 37.450, 147.500 38 M 128 50 C 128 56.444, 128.292 58, 129.500 58 C 130.550 58, 131 56.941, 131 54.465 C 131 52.520, 131.726 49.821, 132.614 48.467 C 134.145 46.129, 134.108 45.905, 131.864 44.036 C 130.564 42.953, 129.162 42.052, 128.750 42.033 C 128.338 42.015, 128 45.600, 128 50 M 128 62.417 C 128 63.288, 128.713 64, 129.583 64 C 130.454 64, 130.989 63.466, 130.771 62.813 C 130.153 60.958, 128 60.651, 128 62.417" stroke="none" fill="black" fill-rule="evenodd"/>
</svg>