<svg xmlns="http://www.w3.org/2000/svg" width="192" height="144" viewBox="0 0 192 144" version="1.1">
	<path d="M 0 72 L 0 144 35.339 144 L 70.679 144 71.777 141.591 C 72.386 140.254, 72.640 136.805, 72.349 133.841 C 72.060 130.903, 72.271 126.565, 72.817 124.199 C 73.689 120.423, 73.578 119.753, 71.905 118.709 C 69.532 117.227, 69.421 112.830, 71.606 106.876 C 73.797 100.904, 77.002 88.669, 76.505 88.172 C 76.283 87.950, 71.016 88.534, 64.800 89.471 C 53.081 91.237, 46.896 91.238, 46.319 89.475 C 46.122 88.874, 50.822 87.746, 57.664 86.752 C 74.030 84.374, 75.181 82.404, 63.057 77.523 C 59.118 75.937, 55.649 74.241, 55.348 73.753 C 54.083 71.707, 56.182 72.062, 62.635 74.989 C 66.885 76.916, 70.343 77.880, 71.743 77.528 C 74.385 76.865, 74.438 76.500, 72.641 71.376 C 71.840 69.092, 71.606 66.679, 72.071 65.500 C 72.504 64.400, 72.891 62.301, 72.930 60.835 C 72.980 58.940, 74.422 56.929, 77.925 53.868 C 83.097 49.350, 83.455 48, 79.481 48 C 77.556 48, 76.848 47.226, 75.909 44.091 C 74.432 39.162, 75.204 36.064, 78.891 32.117 C 81.350 29.484, 82.531 29, 86.497 29 C 89.533 29, 92.150 28.318, 93.905 27.068 C 97.278 24.666, 102.628 23.893, 102.211 25.867 C 102.052 26.619, 102.407 28.702, 102.999 30.496 C 103.910 33.256, 103.746 34.315, 101.939 37.379 C 100.764 39.371, 99.185 41, 98.430 41 C 97.675 41, 96.681 42.462, 96.221 44.250 C 95.512 47.006, 94.872 47.550, 92.007 47.827 L 88.629 48.154 93.007 50.114 C 95.643 51.295, 98.425 51.846, 100 51.500 C 102.279 50.999, 103.018 51.548, 105.754 55.770 C 107.480 58.434, 111.830 63.738, 115.421 67.557 C 119.012 71.376, 121.961 75.135, 121.975 75.911 C 122 77.308, 130.517 89.090, 135.117 94.091 C 141.773 101.329, 143.980 104, 143.302 104 C 142.891 104, 143.563 104.706, 144.794 105.568 C 146.026 106.431, 146.833 107.461, 146.588 107.858 C 146.343 108.255, 147.459 109.461, 149.068 110.540 C 150.678 111.618, 151.996 112.895, 151.997 113.378 C 152 114.297, 154.949 117.965, 163.750 127.998 C 168.730 133.675, 170.279 137, 167.944 137 C 166.222 137, 161.796 131.720, 143.681 108.054 C 124.071 82.436, 120.333 78, 118.352 78 C 117.574 78, 116.650 77.253, 116.300 76.340 C 115.740 74.879, 115.575 74.916, 114.933 76.653 C 114.380 78.147, 112.234 79.076, 106.101 80.477 C 101.646 81.495, 98 82.411, 98 82.514 C 98 82.617, 98.471 84.051, 99.046 85.701 C 100.010 88.466, 101.027 88.993, 112.046 92.432 C 123.444 95.990, 126.876 98, 121.552 98 C 120.205 98, 115.438 96.842, 110.958 95.427 C 106.478 94.012, 102.656 93.010, 102.465 93.201 C 102.274 93.393, 103.412 96.238, 104.995 99.525 C 109.684 109.261, 109.740 111.175, 105.475 115.895 C 102.123 119.606, 101.906 120.206, 102.823 123.219 C 103.372 125.023, 104.054 129.650, 104.338 133.500 C 105.206 145.243, 100.007 144.059, 149.361 143.761 L 192.500 143.500 192.757 71.750 L 193.013 0 171.600 0 L 150.187 0 151.264 3.507 C 152.148 6.389, 153.021 7.198, 156.160 8.043 C 158.951 8.795, 160.146 9.735, 160.598 11.534 C 161.582 15.453, 160.492 16.715, 154.662 18.410 C 148.395 20.232, 144.392 20.443, 143.500 19 C 143.160 18.450, 141.169 18, 139.076 18 C 132.105 18, 126.327 11.054, 127.295 3.837 L 127.810 0 63.905 0 L 0 0 0 72 M 0.474 72.500 C 0.474 112.100, 0.598 128.154, 0.750 108.176 C 0.901 88.198, 0.901 55.798, 0.750 36.176 C 0.598 16.554, 0.474 32.900, 0.474 72.500 M 91.510 13.984 C 90.773 15.177, 91.709 17, 93.059 17 C 94.276 17, 94.284 14.293, 93.069 13.543 C 92.557 13.226, 91.856 13.425, 91.510 13.984 M 145.583 28.866 C 145.152 29.563, 145.070 30.403, 145.400 30.733 C 146.295 31.628, 147.271 30.312, 146.787 28.862 C 146.449 27.846, 146.213 27.846, 145.583 28.866 M 67 38.882 C 67 39.432, 67.450 40.160, 68 40.500 C 68.550 40.840, 69 40.668, 69 40.118 C 69 39.568, 68.550 38.840, 68 38.500 C 67.450 38.160, 67 38.332, 67 38.882 M 26.200 53.200 C 25.540 53.860, 25 56.340, 25 58.711 C 25 62.834, 21.815 71.378, 19.819 72.612 C 19.284 72.942, 19.602 74.008, 20.547 75.052 C 22.661 77.388, 23.380 85.874, 21.922 91.290 C 20.974 94.809, 21.058 95.569, 22.509 96.630 C 25.186 98.588, 23.530 99.683, 16.772 100.425 C 8.751 101.306, 2.897 103.024, 3.667 104.270 C 4.345 105.368, 10.451 104.817, 25.617 102.290 C 35.258 100.684, 35.638 100.528, 33.708 98.964 C 31.275 96.995, 32.160 94.968, 35.115 95.740 C 36.964 96.224, 37.132 95.993, 36.459 93.896 C 33.753 85.455, 33.173 77, 35.300 77 C 36.015 77, 37.137 76.463, 37.793 75.807 C 38.717 74.883, 38.509 74.106, 36.868 72.360 C 34.676 70.026, 32.671 62.321, 34.036 61.477 C 34.931 60.925, 34.323 57.515, 32.748 54.250 C 31.566 51.800, 28.148 51.252, 26.200 53.200 M 96.115 68.612 C 96.250 71.850, 96.007 75.287, 95.574 76.250 C 94.529 78.571, 95.998 78.520, 106.553 75.873 C 112.814 74.303, 114.777 73.437, 114.053 72.564 C 111.890 69.958, 102.198 63.990, 99.132 63.376 L 95.869 62.724 96.115 68.612 M 78.120 65.905 C 76.794 66.744, 77.055 72.880, 78.646 78.319 C 79.161 80.078, 79.224 80.078, 80.543 78.319 C 81.708 76.767, 81.683 76.329, 80.375 75.332 C 79.185 74.426, 79.084 73.712, 79.921 72.148 C 81.152 69.847, 81.376 64.992, 80.250 65.015 C 79.838 65.024, 78.879 65.424, 78.120 65.905 M 100 67 C 99.411 68.100, 99.305 69, 99.765 69 C 100.828 69, 103 66.852, 103 65.800 C 103 64.248, 101.057 65.025, 100 67 M 55.500 84 C 55.160 84.550, 55.610 85, 56.500 85 C 57.390 85, 57.840 84.550, 57.500 84 C 57.160 83.450, 56.710 83, 56.500 83 C 56.290 83, 55.840 83.450, 55.500 84 M 27 98.500 C 27 99.325, 27.675 100, 28.500 100 C 29.325 100, 30 99.325, 30 98.500 C 30 97.675, 29.325 97, 28.500 97 C 27.675 97, 27 97.675, 27 98.500 M 187.500 101 C 187.840 101.550, 188.316 102, 188.559 102 C 188.802 102, 189 101.550, 189 101 C 189 100.450, 188.523 100, 187.941 100 C 187.359 100, 187.160 100.450, 187.500 101 M 86.257 121.740 C 79.208 122.141, 79.832 121.234, 78.037 133.692 C 76.409 144.981, 75.401 144, 88.636 144 L 100.272 144 99.666 139.579 C 99.333 137.148, 98.335 131.973, 97.450 128.079 C 96.203 122.595, 95.463 121.043, 94.170 121.193 C 93.251 121.299, 89.691 121.545, 86.257 121.740" stroke="none" fill="black" fill-rule="evenodd"/>
</svg>