<svg xmlns="http://www.w3.org/2000/svg" width="192" height="144" viewBox="0 0 192 144" version="1.1">
	<path d="M 74 75 C 74 75.550, 72.627 76, 70.949 76 L 67.898 76 70.398 79.278 C 71.774 81.081, 75.164 83.668, 77.934 85.028 C 80.703 86.388, 82.976 87.978, 82.984 88.562 C 83 89.602, 102.606 101.087, 110.500 104.679 C 112.700 105.681, 114.725 106.781, 115 107.124 C 115.275 107.467, 119.325 109.663, 124 112.003 C 128.675 114.344, 135.875 118.159, 140 120.480 C 160.469 131.999, 162.788 133.013, 166.758 132.181 L 170.500 131.396 166 128.119 C 163.525 126.317, 154.975 120.992, 147 116.285 C 139.025 111.579, 128.675 105.202, 124 102.114 C 119.325 99.026, 115.069 96.319, 114.542 96.097 C 114.015 95.876, 110.409 93.561, 106.527 90.954 C 100.426 86.855, 94.395 83.677, 84 79.084 C 82.625 78.476, 80.150 77.116, 78.500 76.062 C 75.032 73.847, 74 73.603, 74 75" stroke="none" fill="black" fill-rule="evenodd"/>
</svg>