<svg xmlns="http://www.w3.org/2000/svg" width="192" height="144" viewBox="0 0 192 144" version="1.1">
	<path d="M 95.534 79.349 C 90.453 80.881, 85 87.665, 85 92.455 C 85 94.270, 84.337 96.305, 83.526 96.978 C 81.630 98.552, 80.618 103.982, 81.485 107.930 C 83.163 115.572, 97.696 126.648, 107.493 127.752 C 115.157 128.616, 120.121 125.105, 124.643 115.621 C 126.487 111.755, 127.715 111.094, 128.629 113.474 C 129.119 114.753, 129.405 114.738, 130.778 113.365 C 132.223 111.920, 132.159 111.628, 130.046 110.035 C 127.818 108.354, 127.779 108.089, 129.012 102.949 C 129.717 100.012, 130.256 96.300, 130.211 94.700 C 129.893 83.546, 110.334 74.888, 95.534 79.349" stroke="none" fill="black" fill-rule="evenodd"/>
</svg>