<svg xmlns="http://www.w3.org/2000/svg" width="192" height="144" viewBox="0 0 192 144" version="1.1">
	<path d="M 0 72 L 0 144 34.420 144 L 68.841 144 73.512 129.250 C 76.082 121.137, 79.223 112.414, 80.493 109.864 C 81.972 106.896, 82.881 103.119, 83.021 99.364 C 83.340 90.765, 83.204 89.984, 81.500 90.638 C 80.501 91.022, 80 92.597, 79.999 95.357 C 79.998 100.794, 75.299 110.652, 70.845 114.563 C 65.542 119.219, 54.771 126.536, 53.702 126.208 C 53.178 126.048, 52.019 126.547, 51.125 127.317 C 48.722 129.389, 45.315 129.951, 43.447 128.585 C 41.949 127.490, 42.035 127.037, 44.401 123.551 C 47.459 119.044, 47.616 118.011, 45.250 117.968 C 43.691 117.940, 43.669 117.803, 45.052 116.718 C 48.373 114.112, 63.784 96.330, 65.348 93.300 C 67.440 89.248, 67.499 86.871, 65.489 87.643 C 64.381 88.068, 64.153 87.766, 64.634 86.510 C 65.011 85.530, 64.727 84.449, 63.971 83.982 C 62.992 83.377, 63.718 82.209, 66.780 79.460 C 71.311 75.393, 72.844 70.496, 72.794 60.250 C 72.773 55.903, 72.464 55, 70.998 55 C 68.397 55, 62.909 41.574, 64.475 39.041 C 64.785 38.538, 70.318 38.179, 76.770 38.242 C 85.424 38.327, 89.755 37.917, 93.285 36.678 C 99.759 34.407, 101.877 34.545, 102.926 37.306 C 104.354 41.061, 102.977 52.046, 100.382 57.596 C 96.676 65.524, 97.154 68.520, 102.567 71.292 C 104.554 72.309, 106.262 74.383, 107.418 77.181 C 108.399 79.556, 109.831 82.978, 110.601 84.784 C 111.370 86.590, 112 88.868, 112 89.845 C 112 90.823, 114.955 94.067, 118.566 97.054 C 124.840 102.245, 125.103 102.639, 124.486 105.928 C 123.955 108.759, 124.235 109.669, 126.064 111.048 C 128.371 112.788, 127.997 115, 125.396 115 C 124.578 115, 122.763 113.854, 121.363 112.454 C 118.240 109.331, 116.348 110.418, 115.449 115.850 C 114.440 121.943, 114.180 122.394, 112.488 120.990 C 110.596 119.420, 110.638 120.002, 113.023 128.500 C 114.104 132.350, 115.496 137.418, 116.116 139.762 L 117.243 144.024 154.872 143.762 L 192.500 143.500 192.757 71.750 L 193.013 0 96.507 0 L 0 0 0 72 M 0.474 72.500 C 0.474 112.100, 0.598 128.154, 0.750 108.176 C 0.901 88.198, 0.901 55.798, 0.750 36.176 C 0.598 16.554, 0.474 32.900, 0.474 72.500" stroke="none" fill="black" fill-rule="evenodd"/>
</svg>