<svg xmlns="http://www.w3.org/2000/svg" width="192" height="144" viewBox="0 0 192 144" version="1.1">
	<path d="M 0 72 L 0 144 31.067 144 L 62.135 144 61.440 141.750 C 61.057 140.512, 58.054 133.742, 54.765 126.705 C 49.945 116.389, 48.905 113.288, 49.401 110.705 C 50.647 104.199, 50.748 103.411, 50.888 99 C 51.065 93.433, 52.360 90.960, 54.158 92.758 C 54.841 93.441, 56.616 94, 58.102 94 C 60.173 94, 61.036 93.335, 61.797 91.153 C 62.771 88.357, 70.705 81, 72.746 81 C 74.502 81, 75 78.220, 75 68.418 C 75 59.123, 74.968 59, 72.581 59 C 68.551 59, 63.849 55.819, 64.452 53.500 C 64.739 52.400, 64.979 50.938, 64.986 50.250 C 64.994 49.563, 65.914 49, 67.031 49 C 70.172 49, 70.364 46.625, 67.557 42.490 C 66.151 40.417, 65 38.187, 65 37.535 C 65 36.040, 69.235 32, 70.802 32 C 71.447 32, 73.177 30.096, 74.645 27.770 C 79.740 19.700, 84.943 17.201, 96.912 17.077 C 103.103 17.013, 105.028 17.413, 108.597 19.504 C 110.947 20.881, 113.805 23.322, 114.949 24.928 C 116.093 26.535, 118.710 28.670, 120.764 29.674 C 125.638 32.056, 126.325 36.272, 122.566 40.740 L 120.025 43.758 122.513 47.424 C 125.523 51.860, 125.769 55, 123.107 55 C 120.124 55, 119.821 57.506, 121.058 71.963 C 122.078 83.896, 122.610 86.329, 125.541 92.500 C 129.037 99.856, 130.957 112.038, 129.078 114.941 C 128.461 115.894, 128.661 117.378, 129.669 119.327 C 131.129 122.151, 131.082 122.366, 128.502 124.583 C 125.849 126.863, 125.821 127.012, 126.525 135.461 L 127.239 144.027 159.869 143.764 L 192.500 143.500 192.757 71.750 L 193.013 0 96.507 0 L 0 0 0 72 M 0.474 72.500 C 0.474 112.100, 0.598 128.154, 0.750 108.176 C 0.901 88.198, 0.901 55.798, 0.750 36.176 C 0.598 16.554, 0.474 32.900, 0.474 72.500 M 119.667 31.730 C 118.888 32.990, 120.016 37, 121.148 37 C 121.651 37, 122.335 36.290, 122.668 35.422 C 123.340 33.672, 120.571 30.267, 119.667 31.730 M 68.497 35.379 C 66.699 36.693, 66.691 36.880, 68.329 39.379 C 70.764 43.096, 72 42.631, 72 38 C 72 33.683, 71.415 33.245, 68.497 35.379 M 70 108 C 70 109.348, 69.333 110, 67.956 110 C 66.568 110, 66.007 110.558, 66.206 111.741 C 66.380 112.768, 65.578 113.890, 64.250 114.478 C 61.486 115.702, 61.461 115.403, 65.330 127 C 67.702 134.109, 68.981 136.589, 70.409 136.854 C 72.232 137.192, 72.289 136.655, 71.664 125.044 C 71.138 115.247, 71.301 112.318, 72.505 109.990 C 74.430 106.268, 74.396 106, 72 106 C 70.667 106, 70 106.667, 70 108 M 126 119.941 C 126 120.459, 126.450 121.160, 127 121.500 C 127.550 121.840, 128 121.416, 128 120.559 C 128 119.702, 127.550 119, 127 119 C 126.450 119, 126 119.423, 126 119.941" stroke="none" fill="black" fill-rule="evenodd"/>
</svg>