<svg xmlns="http://www.w3.org/2000/svg" width="192" height="144" viewBox="0 0 192 144" version="1.1">
	<path d="M 94.335 109.826 C 94.072 110.831, 92.500 112.455, 90.841 113.435 C 88.447 114.849, 87.968 115.660, 88.523 117.359 C 90.029 121.974, 89.826 128.023, 88.135 128.925 C 86.805 129.635, 86.562 131.121, 86.832 136.899 L 87.164 144 95.873 144 L 104.582 144 104.724 136.581 C 104.821 131.520, 104.475 129.012, 103.636 128.690 C 102.754 128.352, 102.573 126.465, 102.998 122.025 C 103.551 116.233, 103.421 115.691, 100.989 113.645 C 99.559 112.441, 98.091 110.679, 97.726 109.728 C 96.856 107.462, 94.939 107.517, 94.335 109.826 M 32.875 112.500 C 32.806 112.775, 32.638 113.450, 32.500 114 C 32.362 114.550, 32.194 115.592, 32.125 116.315 C 32.056 117.038, 30.425 118.381, 28.500 119.299 C 25.058 120.940, 23.775 124.125, 26 125.500 C 26.550 125.840, 27 127.456, 27 129.090 C 27 130.810, 27.632 132.305, 28.500 132.638 C 30.317 133.335, 30.490 134.991, 28.750 135.022 C 28.063 135.034, 26.518 135.822, 25.318 136.772 C 23.687 138.063, 23.274 139.195, 23.684 141.250 L 24.233 144 34.503 144 L 44.773 144 45.232 140.875 C 45.628 138.175, 45.237 137.483, 42.362 135.786 C 39.574 134.141, 39.253 133.604, 40.380 132.478 C 42.137 130.720, 43.515 120.672, 42.065 120.188 C 41.479 119.993, 41 118.964, 41 117.902 C 41 115.536, 33.382 110.471, 32.875 112.500 M 154.511 117.256 C 149.582 120.487, 149.563 120.520, 149.866 125.409 C 150.034 128.109, 150.538 131.284, 150.987 132.465 C 151.554 133.956, 151.272 135.314, 150.062 136.918 C 149.073 138.229, 148.518 140.258, 148.777 141.613 C 149.223 143.946, 149.466 144, 159.617 144 C 165.327 144, 170 143.619, 170 143.154 C 170 141.292, 166.854 136.158, 165.363 135.586 C 164.254 135.160, 164.073 134.603, 164.764 133.738 C 165.308 133.057, 166.046 130.025, 166.405 127 C 167.039 121.648, 166.972 121.446, 163.939 119.500 C 162.225 118.400, 160.516 116.715, 160.141 115.756 C 159.532 114.194, 158.940 114.352, 154.511 117.256" stroke="none" fill="black" fill-rule="evenodd"/>
</svg>