<svg xmlns="http://www.w3.org/2000/svg" width="192" height="144" viewBox="0 0 192 144" version="1.1">
	<path d="M 94.550 88.030 C 92.928 89.066, 90.969 91.120, 90.197 92.594 C 89.424 94.069, 87.624 96.280, 86.196 97.508 C 82.311 100.849, 82.611 105.972, 86.953 110.452 C 88.797 112.354, 91.475 114.317, 92.903 114.813 C 96.748 116.149, 104.287 113.636, 107.348 109.999 C 109.544 107.388, 109.831 106.194, 109.611 100.590 C 109.471 97.059, 108.714 93.205, 107.929 92.025 L 106.500 89.879 104.060 92.155 C 102.279 93.817, 101.795 93.977, 102.267 92.748 C 102.622 91.822, 102.482 90.798, 101.956 90.473 C 101.430 90.148, 101 89.009, 101 87.941 C 101 85.487, 98.478 85.522, 94.550 88.030" stroke="none" fill="black" fill-rule="evenodd"/>
</svg>