<svg xmlns="http://www.w3.org/2000/svg" width="192" height="144" viewBox="0 0 192 144" version="1.1">
	<path d="M 0 25.430 L 0 50.861 10.750 50.304 C 21.782 49.733, 38.722 51.563, 48.047 54.332 C 51.860 55.464, 52.967 55.437, 55.750 54.142 C 60.354 52, 60.097 49.212, 55.258 48.810 C 49.587 48.340, 49.778 45.750, 55.905 39.996 L 61 35.213 61 28.183 C 61 22.183, 61.359 20.727, 63.449 18.243 C 68.697 12.006, 85.852 5.237, 91.967 6.991 C 93.629 7.467, 97.013 9.516, 99.487 11.543 C 103.294 14.662, 104.487 15.133, 107.243 14.607 C 116.103 12.913, 118.535 12.869, 120.500 14.366 C 122.439 15.844, 122.323 16.058, 116.685 21.420 L 110.870 26.951 113.983 31.475 C 115.695 33.964, 116.576 36, 115.940 36 C 115.227 36, 115.008 36.897, 115.370 38.337 C 115.831 40.176, 115.214 41.267, 112.478 43.448 C 108.541 46.587, 108.289 47.556, 110.710 50.232 C 111.834 51.474, 112.057 52.358, 111.360 52.811 C 109.648 53.923, 104 64.712, 104 66.869 C 104 67.957, 102.896 70.158, 101.548 71.761 L 99.095 74.676 107.798 79.588 C 112.584 82.290, 117.629 84.516, 119.010 84.536 C 120.390 84.556, 123.990 86.413, 127.010 88.663 C 130.029 90.912, 133.512 93.274, 134.750 93.911 C 135.988 94.549, 137 95.862, 137 96.830 C 137 97.797, 139.137 100.234, 141.750 102.245 C 144.362 104.256, 147.718 107.049, 149.206 108.451 C 150.695 109.853, 152.846 111, 153.988 111 C 155.129 111, 156.322 111.675, 156.638 112.500 C 156.955 113.325, 157.677 114, 158.242 114 C 159.862 114, 164.284 119.198, 165.473 122.500 C 166.068 124.150, 169.658 129.682, 173.453 134.793 L 180.352 144.086 186.426 143.793 L 192.500 143.500 192.688 71.750 L 192.877 0 96.438 0 L 0 0 0 25.430 M 0.435 26 C 0.435 40.025, 0.575 45.763, 0.747 38.750 C 0.919 31.738, 0.919 20.263, 0.747 13.250 C 0.575 6.238, 0.435 11.975, 0.435 26 M 4.250 60.664 L 1 61.127 1 102.563 L 1 144 37.941 144 C 58.259 144, 75.068 143.662, 75.295 143.250 C 75.523 142.838, 75.356 137.550, 74.926 131.500 C 74.495 125.450, 73.857 115.775, 73.508 110 C 72.681 96.322, 72.321 94.663, 70.340 95.423 C 68.960 95.953, 68.853 95.187, 69.477 89.264 C 69.870 85.544, 70.260 82.088, 70.345 81.584 C 70.430 81.081, 69.001 80.343, 67.170 79.944 C 62.848 79.004, 56.902 74.235, 55 70.183 C 53.822 67.673, 52.440 66.666, 48.563 65.492 C 37.412 62.115, 12.859 59.440, 4.250 60.664 M 109.385 95.465 C 110.273 96.820, 111 98.845, 111 99.965 C 111 101.084, 111.509 102, 112.131 102 C 113.658 102, 112.491 94.929, 110.785 93.846 C 108.366 92.311, 107.770 93, 109.385 95.465 M 130.472 111.087 C 130.012 112.539, 130.472 113.791, 131.984 115.200 L 134.158 117.225 131.579 119.917 C 130.161 121.398, 129 122.975, 129 123.421 C 129 123.868, 131.979 124.043, 135.621 123.811 C 140.653 123.491, 142.576 122.933, 143.634 121.485 C 144.400 120.438, 144.908 119.227, 144.763 118.795 C 144.313 117.452, 133.580 109, 132.324 109 C 131.670 109, 130.837 109.939, 130.472 111.087 M 154.819 134.750 C 153.414 136.262, 151.991 138.963, 151.657 140.750 L 151.050 144 159.647 144 C 166.348 144, 168.043 143.724, 167.328 142.750 C 163.640 137.721, 158.740 132, 158.120 132 C 157.710 132, 156.224 133.238, 154.819 134.750 M 111.158 141 L 108.940 144 124.720 143.960 C 138.667 143.925, 140.207 143.760, 137.978 142.548 C 134.943 140.896, 121.412 138, 116.730 138 C 114.163 138, 112.856 138.704, 111.158 141" stroke="none" fill="black" fill-rule="evenodd"/>
</svg>