<svg xmlns="http://www.w3.org/2000/svg" width="192" height="144" viewBox="0 0 192 144" version="1.1">
	<path d="M 63.755 4.805 C 65.435 22.287, 53.628 44.814, 38.750 52.514 C 36.688 53.581, 35 54.751, 35 55.114 C 35 55.476, 33.763 56.010, 32.250 56.301 C 30.738 56.591, 26.125 57.589, 22 58.519 C 14.802 60.142, 5.855 60.127, 1.750 58.486 C 0.100 57.826, 0 60.239, 0 100.893 L 0 144 58.928 144 L 117.856 144 118.496 138.250 C 118.848 135.088, 120.205 128, 121.512 122.500 C 124.584 109.564, 128 88.962, 128 83.365 C 128 80.218, 127.436 78.497, 126 77.268 C 123.175 74.849, 123.494 72.116, 127.500 64.431 C 129.425 60.737, 131 57.301, 131 56.793 C 131 56.286, 129.672 54.754, 128.050 53.388 C 126.311 51.925, 125.328 50.309, 125.656 49.453 C 125.996 48.567, 125.608 48, 124.664 48 C 122.046 48, 120.081 44.203, 121.015 40.947 C 121.655 38.715, 121.388 37.491, 119.825 35.504 C 116.668 31.491, 118.036 29.748, 123.743 30.511 C 140.596 32.765, 143.315 34.235, 146.547 42.840 C 147.510 45.403, 149.115 48.672, 150.114 50.105 C 151.113 51.538, 152.234 54.688, 152.605 57.105 C 152.977 59.522, 154.365 63.378, 155.690 65.673 C 157.868 69.445, 159.992 78.767, 161.665 91.895 C 162.304 96.912, 160.505 103.632, 157.813 106.289 C 156.067 108.011, 156 107.960, 156 104.917 C 156 102.303, 155.755 101.959, 154.584 102.930 C 152.925 104.307, 152.491 103.285, 151.436 95.500 C 150.839 91.099, 148.744 83.882, 145.773 76 L 144.831 73.500 142.937 77.162 C 141.241 80.441, 141.181 81.278, 142.363 85.162 C 143.089 87.548, 144.847 91.204, 146.271 93.286 C 147.695 95.369, 150.063 100.769, 151.533 105.286 C 153.003 109.804, 157.024 118.675, 160.468 125 C 163.912 131.325, 167.336 138.201, 168.077 140.280 L 169.423 144.060 180.962 143.780 L 192.500 143.500 192.825 129 C 193.003 121.025, 192.837 88.737, 192.455 57.250 L 191.761 0 127.527 -0 L 63.294 -0 63.755 4.805 M 0.459 101 C 0.459 124.925, 0.589 134.713, 0.749 122.750 C 0.908 110.788, 0.908 91.213, 0.749 79.250 C 0.589 67.288, 0.459 77.075, 0.459 101" stroke="none" fill="black" fill-rule="evenodd"/>
</svg>