<svg xmlns="http://www.w3.org/2000/svg" width="192" height="144" viewBox="0 0 192 144" version="1.1">
	<path d="M 118.500 0.664 C 110.087 1.685, 109.224 2.062, 106.748 5.804 C 104.429 9.308, 104.332 9.951, 105.303 15.309 C 106.778 23.445, 105.527 24.253, 99.198 19.251 C 95.593 16.401, 92.859 15.115, 89.394 14.641 C 83.896 13.887, 82.578 14.757, 81.652 19.750 C 81.196 22.214, 81.405 23, 82.517 23 C 83.324 23, 84.775 24.688, 85.742 26.750 C 87.002 29.438, 88.420 30.771, 90.750 31.457 C 94.714 32.624, 94.796 33.160, 91.250 34.728 C 88.965 35.739, 88.500 36.570, 88.500 39.644 L 88.500 43.343 81.500 45.086 C 75.193 46.657, 74.264 46.679, 72.121 45.308 C 70.475 44.254, 68.530 43.980, 65.801 44.416 C 61.359 45.126, 56.735 47.762, 57.568 49.109 C 57.870 49.599, 57.615 50, 57 50 C 54.836 50, 57.133 51.965, 61.615 53.948 C 64.292 55.132, 65.874 56.395, 65.479 57.034 C 65.112 57.628, 66.816 61.127, 69.267 64.807 C 71.718 68.488, 74.303 72.625, 75.011 74 C 76.734 77.344, 77.845 77.967, 82.115 77.985 C 86.026 78.001, 89.054 76.056, 95.106 69.640 C 97.108 67.517, 98.944 66.167, 99.187 66.640 C 99.429 67.113, 99.186 73.007, 98.648 79.738 C 97.800 90.341, 97.877 92.212, 99.229 93.738 C 100.935 95.665, 100.950 98.117, 99.279 102.059 C 97.831 105.476, 96.464 110.590, 93.950 122 C 92.799 127.225, 90.989 133.903, 89.928 136.839 C 88.868 139.775, 88 142.588, 88 143.089 C 88 143.618, 101.417 144, 120 144 C 141.114 144, 152 143.653, 152 142.979 C 152 142.417, 150.884 140.270, 149.519 138.209 C 147.106 134.562, 137.017 110.706, 136.983 108.568 C 136.974 107.981, 134.958 104.161, 132.504 100.080 C 128.162 92.861, 128.095 92.622, 130.020 91.273 C 131.535 90.213, 132 88.736, 132 84.992 C 132 77.468, 135.114 66.554, 137.525 65.629 C 138.279 65.340, 139.642 63.658, 140.555 61.893 C 142.529 58.077, 141.803 49.307, 139.366 47.526 C 138.030 46.548, 138.126 45.734, 140.174 40.685 C 142.797 34.220, 141.655 34.785, 160.911 30.431 C 166.638 29.137, 171.748 27.652, 172.268 27.132 C 172.862 26.538, 172.311 25.594, 170.784 24.594 C 168.561 23.138, 167.894 23.139, 162.927 24.614 C 153.594 27.387, 144.005 29.788, 143.875 29.386 C 143.806 29.174, 143.677 28.663, 143.587 28.250 C 143.497 27.837, 143.077 26.193, 142.654 24.595 C 142.144 22.670, 142.288 21.440, 143.082 20.950 C 143.740 20.543, 144.472 18.282, 144.707 15.926 C 145.091 12.090, 144.969 11.781, 143.536 12.970 C 142.104 14.158, 142.045 14.013, 142.968 11.584 C 144.229 8.267, 144.238 8, 143.087 8 C 141.454 8, 132.001 1.332, 132.677 0.656 C 133.342 -0.009, 124 -0.004, 118.500 0.664 M 3.598 21.163 C 2.765 22.353, 2.285 23.652, 2.531 24.050 C 2.777 24.448, 2.308 25.329, 1.489 26.009 C 0.201 27.078, 0 35.143, 0 85.622 L 0 144 16.500 144 C 25.575 144, 33 143.659, 33 143.242 C 33 142.825, 31.695 138.792, 30.099 134.280 C 28.504 129.769, 26.884 123.697, 26.499 120.789 C 25.815 115.617, 21.706 103.734, 19.743 101.250 C 19.036 100.356, 19.226 100, 20.409 100 C 23.163 100, 23.204 97.637, 20.547 91.931 C 19.157 88.944, 18.015 85.319, 18.010 83.876 C 18 81.304, 22.266 72.571, 24.080 71.450 C 25.562 70.534, 25.136 68, 23.500 68 C 22.675 68, 22 67.518, 22 66.929 C 22 65.329, 24.645 62.990, 25.541 63.798 C 25.970 64.184, 25.966 63.887, 25.532 63.138 C 25.079 62.355, 25.246 61.466, 25.925 61.046 C 26.741 60.542, 26.046 59.047, 23.674 56.208 C 19.406 51.100, 18.119 44.605, 20.472 40.053 C 22.013 37.074, 21.995 37, 19.738 37 C 17.077 37, 7.559 27.902, 7.398 25.204 C 7.342 24.267, 7.229 22.488, 7.148 21.250 C 6.961 18.409, 5.552 18.374, 3.598 21.163 M 152.821 29.326 C 148.598 30.522, 144.810 31.837, 144.404 32.250 C 143.290 33.383, 145.156 33.160, 150.591 31.511 C 153.291 30.692, 156.400 29.996, 157.500 29.966 C 158.600 29.935, 160.850 29.292, 162.500 28.536 C 165.411 27.203, 165.426 27.162, 163 27.157 C 161.625 27.154, 157.044 28.130, 152.821 29.326 M 82.813 47.683 C 83.534 47.972, 84.397 47.936, 84.729 47.604 C 85.061 47.272, 84.471 47.036, 83.417 47.079 C 82.252 47.127, 82.015 47.364, 82.813 47.683 M 88.500 48 C 87.400 48.473, 85.517 48.891, 84.315 48.930 C 83.113 48.968, 81.028 49.419, 79.681 49.931 L 77.232 50.862 80.178 57.047 L 83.124 63.232 85.451 61.046 C 86.731 59.844, 88.029 57.604, 88.336 56.069 C 88.727 54.117, 89.980 52.763, 92.507 51.564 C 95.454 50.165, 95.902 49.587, 94.937 48.425 C 93.625 46.843, 91.517 46.704, 88.500 48" stroke="none" fill="black" fill-rule="evenodd"/>
</svg>