<svg xmlns="http://www.w3.org/2000/svg" width="192" height="144" viewBox="0 0 192 144" version="1.1">
	<path d="M 0 72.013 L 0 144.025 35.641 143.763 L 71.282 143.500 74.602 135 C 76.778 129.431, 77.936 124.732, 77.961 121.372 C 77.986 118.107, 78.537 115.799, 79.479 115.017 C 80.577 114.106, 80.697 113.302, 79.944 111.895 C 78.541 109.273, 76.014 109.497, 75.937 112.250 L 75.873 114.500 74.969 112.250 C 74.447 110.951, 73.205 110, 72.032 110 C 70.915 110, 70 109.587, 70 109.082 C 70 108.577, 69.718 107.429, 69.374 106.531 C 68.859 105.189, 69.215 105.016, 71.374 105.558 C 72.818 105.920, 74.037 105.831, 74.083 105.358 C 74.128 104.886, 74.241 102.362, 74.333 99.750 L 74.500 95 70.905 95 C 66.531 95, 64.599 93.049, 62.990 87.011 C 62.332 84.542, 60.715 80.495, 59.397 78.019 C 57.709 74.847, 57.171 72.608, 57.576 70.444 C 57.976 68.317, 57.668 66.969, 56.576 66.063 C 55.709 65.344, 55 63.737, 55 62.493 C 55 61.183, 53.947 59.540, 52.500 58.592 C 51.125 57.691, 50 56.463, 50 55.863 C 50 54.810, 51.762 54.958, 58.250 56.556 C 61.879 57.450, 61.781 55.834, 58.107 54.208 C 55.234 52.936, 54.040 50.602, 54.014 46.208 C 54.006 44.948, 52.624 40.974, 50.943 37.377 C 47.430 29.864, 47.256 24.692, 50.500 24.191 C 51.600 24.022, 53.311 22.781, 54.302 21.434 C 55.895 19.270, 55.987 18.140, 55.091 11.701 C 54.534 7.695, 54.338 3.423, 54.656 2.209 L 55.233 -0 27.617 -0 L 0 0 0 72.013 M 58.243 2.250 C 59.371 3.957, 60.871 4.574, 64.456 4.809 C 69.886 5.163, 75.472 9.367, 76.484 13.860 C 76.947 15.918, 78.338 17.028, 82.789 18.896 C 91.486 22.545, 98.123 22.614, 106 19.138 C 111.861 16.552, 112.471 16.009, 112.208 13.610 C 112.048 12.147, 112.575 9.724, 113.380 8.225 C 114.185 6.726, 115.089 4.713, 115.390 3.750 C 116.208 1.135, 118.345 1.573, 117.654 4.214 C 117.215 5.892, 117.953 7.231, 120.708 9.754 C 122.705 11.584, 125.019 12.950, 125.849 12.791 C 126.679 12.631, 127.167 12.275, 126.933 12 C 126.699 11.725, 127.519 10.081, 128.754 8.346 C 129.989 6.611, 131 4.500, 131 3.655 C 131 2.810, 131.390 1.877, 131.866 1.583 C 133.372 0.652, 135.581 4.305, 136.957 10 C 137.687 13.025, 138.559 15.725, 138.893 16 C 140.578 17.388, 142.414 24.092, 142.379 28.734 C 142.351 32.416, 141.781 34.584, 140.455 36.049 C 139.043 37.610, 138.544 39.776, 138.464 44.699 C 138.379 49.938, 137.967 51.558, 136.429 52.713 C 134.533 54.136, 134.534 54.157, 136.500 53.965 C 141.734 53.454, 142.488 55.042, 138.500 58.179 C 137.125 59.260, 136 60.957, 136 61.950 C 136 62.943, 135.344 64.299, 134.542 64.965 C 133.585 65.759, 133.283 67.164, 133.662 69.060 C 133.992 70.711, 133.554 73.658, 132.637 75.950 C 131.755 78.153, 130.312 83.131, 129.429 87.012 C 127.706 94.589, 124.953 97.744, 120.975 96.704 C 118.656 96.097, 116.731 99.716, 115.502 106.988 C 114.785 111.230, 114.804 111.266, 117.389 110.617 C 119.789 110.015, 120 110.216, 120 113.106 C 120 116.038, 119.806 116.211, 117.115 115.673 C 114.519 115.154, 114.169 115.404, 113.615 118.173 C 112.474 123.879, 113.057 127.467, 116.428 135.500 L 119.785 143.500 155.893 143.762 L 192 144.025 192 72.012 L 192 0 124.378 0 L 56.756 0 58.243 2.250 M 115 62.909 C 115 68.434, 115.351 70.198, 116.543 70.655 C 118.817 71.527, 119.448 70.396, 119.475 65.394 C 119.496 61.618, 119.778 60.977, 121.250 61.359 C 122.478 61.677, 123 61.225, 123 59.844 C 123 58.396, 123.572 57.957, 125.157 58.187 C 126.343 58.359, 127.506 57.938, 127.740 57.250 C 128.251 55.752, 121.309 55.519, 119.034 56.958 C 118.104 57.546, 117.097 57.496, 116.284 56.820 C 115.259 55.970, 115 57.200, 115 62.909 M 64.079 58.583 C 64.127 59.748, 64.364 59.985, 64.683 59.188 C 64.972 58.466, 64.936 57.603, 64.604 57.271 C 64.272 56.939, 64.036 57.529, 64.079 58.583 M 68 61.122 C 68 63.785, 68.221 64.061, 69.500 63 C 70.775 61.942, 71 62.194, 71 64.686 C 71 68.483, 73.202 71.520, 75.355 70.694 C 76.630 70.205, 77 68.706, 77 64.031 L 77 58 72.500 58 C 68.127 58, 68 58.088, 68 61.122" stroke="none" fill="black" fill-rule="evenodd"/>
</svg>