<svg xmlns="http://www.w3.org/2000/svg" width="192" height="144" viewBox="0 0 192 144" version="1.1">
	<path d="M 63.755 4.805 C 65.055 18.327, 58.423 35.414, 48.038 45.301 C 44.746 48.436, 41.807 51, 41.506 51 C 41.206 51, 39.282 52.035, 37.230 53.300 C 28.168 58.889, 9.560 61.609, 1.750 58.486 C 0.100 57.826, 0 60.239, 0 100.893 L 0 144 52.858 144 L 105.715 144 106.321 138.250 C 106.655 135.088, 108.296 128, 109.968 122.500 C 111.640 117, 114.026 106.875, 115.268 100 C 117.793 86.035, 117.337 80.925, 113.278 77.677 C 110.822 75.713, 110.334 72.112, 112.081 68.849 C 113.673 65.874, 112.654 65.585, 107.507 67.551 C 102.984 69.278, 102.811 69.270, 98.851 67.157 C 96.629 65.970, 93.565 65, 92.042 65 C 90.518 65, 85.048 63.377, 79.886 61.394 C 74.724 59.411, 69.250 57.558, 67.722 57.277 C 64.974 56.770, 62.471 53.862, 63.714 52.620 C 64.677 51.657, 71.014 53.026, 75.103 55.081 C 79.993 57.537, 95.882 60.763, 96.796 59.485 C 98.520 57.074, 101.860 56.099, 105.157 57.045 C 106.989 57.570, 110.422 58, 112.787 58 C 117.748 58, 118.143 56.338, 114.148 52.278 C 112.678 50.783, 111.988 49.154, 112.308 47.930 C 112.645 46.640, 112.136 45.608, 110.811 44.899 C 109.145 44.007, 108.913 43.199, 109.455 40.162 C 110.325 35.291, 110.478 31.929, 109.942 29.500 C 109.585 27.883, 109.985 27.530, 112.033 27.659 C 116.025 27.908, 129.813 34.786, 131.509 37.373 C 132.353 38.661, 133.451 42.591, 133.949 46.107 C 135.657 58.158, 137.040 62.363, 140.105 64.822 C 142.333 66.610, 143.008 67.992, 143.035 70.822 C 143.055 72.845, 143.714 75.625, 144.500 77 C 145.286 78.375, 145.946 82.199, 145.966 85.500 C 145.986 88.800, 146.649 94.875, 147.439 99 C 148.229 103.125, 148.479 106.642, 147.994 106.815 C 147.509 106.988, 147.389 107.849, 147.726 108.729 C 148.170 109.885, 147.968 110.098, 147 109.500 C 146.040 108.907, 145.829 109.112, 146.255 110.223 C 146.698 111.375, 146.356 111.644, 144.925 111.270 C 143.866 110.993, 143 111.251, 143 111.842 C 143 112.433, 145.197 117.611, 147.883 123.347 C 150.568 129.084, 153.533 136.087, 154.470 138.911 L 156.175 144.044 174.338 143.772 L 192.500 143.500 192.825 129 C 193.003 121.025, 192.837 88.737, 192.455 57.250 L 191.761 0 127.527 -0 L 63.294 -0 63.755 4.805 M 0.459 101 C 0.459 124.925, 0.589 134.713, 0.749 122.750 C 0.908 110.788, 0.908 91.213, 0.749 79.250 C 0.589 67.288, 0.459 77.075, 0.459 101 M 138.026 80 C 137.946 80.825, 137.511 83.750, 137.060 86.500 C 136.461 90.144, 136.652 92.781, 137.762 96.221 C 140.012 103.195, 141.304 101.087, 140.481 91.785 C 139.795 84.039, 138.321 76.962, 138.026 80" stroke="none" fill="black" fill-rule="evenodd"/>
</svg>