<svg xmlns="http://www.w3.org/2000/svg" width="192" height="144" viewBox="0 0 192 144" version="1.1">
	<path d="M 51.725 30.590 C 50.776 31.847, 50 33.822, 50 34.978 C 50 36.134, 49.083 38.877, 47.962 41.074 C 45.611 45.682, 45.843 46.357, 50.542 48.587 C 54.162 50.305, 55.103 52, 52.437 52 C 51.490 52, 50.994 52.704, 51.177 53.789 C 51.344 54.772, 49.797 57.631, 47.740 60.142 C 43.833 64.910, 42.948 68.659, 45.500 69.638 C 47.235 70.304, 47.617 77.983, 45.996 79.604 C 43.603 81.997, 38.206 113.503, 36.464 135.250 L 35.763 144 54.998 144 L 74.233 144 73.626 141.750 C 73.291 140.512, 72.313 132.823, 71.450 124.662 C 70.588 116.501, 68.846 106.243, 67.579 101.868 C 65.206 93.674, 65.348 87.955, 68.050 82.906 C 68.795 81.515, 68.893 78.337, 68.351 73.170 C 67.908 68.952, 67.663 64.499, 67.807 63.276 C 67.950 62.053, 67.152 59.259, 66.034 57.066 C 63.335 51.775, 63.411 50.826, 66.445 51.979 C 68.319 52.692, 69.423 52.478, 71.168 51.065 C 73.378 49.276, 73.407 49.033, 72.145 42.925 C 70.140 33.216, 66.188 29.368, 57.475 28.640 C 54.220 28.368, 53.119 28.741, 51.725 30.590 M 138.225 60.084 C 135.200 62.939, 133.372 63.955, 131.975 63.559 C 130.889 63.252, 129.098 62.744, 127.995 62.431 C 124.704 61.497, 124.180 64.927, 127.234 67.410 C 130.598 70.144, 132.965 82.756, 130.466 84.624 C 129.639 85.242, 127.120 88.598, 124.869 92.082 C 120.785 98.400, 120.778 98.429, 121.942 103.631 C 122.584 106.499, 123.784 109.406, 124.609 110.090 C 125.827 111.102, 125.979 112.848, 125.418 119.417 C 125.038 123.863, 124.362 128.481, 123.915 129.680 C 123.333 131.242, 123.655 132.563, 125.051 134.338 C 126.161 135.749, 127 138.361, 127 140.408 C 127 143.732, 127.223 144, 130 144 C 132.514 144, 133 143.605, 133 141.559 C 133 137.928, 134.738 137.533, 135.498 140.991 C 136.049 143.499, 136.646 144, 139.079 144 C 141.321 144, 142 143.541, 142 142.026 C 142 140.832, 143.218 139.421, 145.081 138.458 C 147.329 137.296, 147.978 136.410, 147.482 135.182 C 147.108 134.257, 145.928 129.293, 144.860 124.151 C 143.339 116.825, 143.178 114.491, 144.116 113.361 C 144.774 112.567, 146.377 109.622, 147.677 106.816 L 150.040 101.714 146.986 94.150 C 142.812 83.811, 143.958 78.385, 149.441 82.532 C 153.874 85.885, 155.809 82.115, 152.085 77.381 C 150.190 74.972, 150.194 74.883, 152.455 69.116 C 155.040 62.518, 154.707 61.218, 149.626 58.078 C 144.909 55.162, 143.104 55.480, 138.225 60.084 M 141.708 98.010 C 141.006 100.693, 141.579 101.854, 142.903 100.433 C 143.382 99.920, 143.450 98.624, 143.054 97.554 C 142.389 95.752, 142.289 95.786, 141.708 98.010" stroke="none" fill="black" fill-rule="evenodd"/>
</svg>