<svg xmlns="http://www.w3.org/2000/svg" width="192" height="144" viewBox="0 0 192 144" version="1.1">
	<path d="M 0 72 L 0 144 35.031 144 C 62.195 144, 70.145 143.719, 70.428 142.750 C 71.861 137.848, 77.230 120.565, 77.704 119.328 C 78.213 118.003, 77.999 117.980, 76.084 119.151 C 74.177 120.317, 73.710 120.274, 72.635 118.827 C 71.502 117.301, 71.304 117.295, 70.382 118.756 C 69.669 119.887, 68.804 120.111, 67.436 119.520 C 66.371 119.059, 65.109 118.772, 64.631 118.881 C 64.153 118.990, 64.082 117.375, 64.473 115.292 C 65.098 111.960, 65.866 110.784, 68.079 109.766 C 69.466 109.129, 77.942 93.928, 78.905 90.352 C 80.069 86.031, 79.949 73.920, 78.750 74.657 C 77.438 75.464, 77.943 73.721, 79.530 71.967 C 80.882 70.473, 82.978 61.336, 82.994 56.867 C 82.997 55.968, 82.159 55.013, 81.132 54.745 C 78.935 54.170, 75.216 45.375, 76.596 44.019 C 77.482 43.149, 83.201 42.565, 101.760 41.446 C 109.462 40.982, 111.118 41.143, 111.601 42.403 C 112.466 44.657, 110.141 50.788, 107.798 52.429 C 106.248 53.514, 105.909 54.499, 106.404 56.472 C 106.820 58.130, 106.501 59.874, 105.529 61.262 C 103.303 64.440, 103.545 71.278, 105.960 73.464 C 107.038 74.440, 107.885 75.522, 107.842 75.869 C 107.799 76.216, 107.816 79.722, 107.882 83.659 L 108 90.819 114.077 98.159 C 117.419 102.197, 120.729 105.952, 121.431 106.504 C 123.615 108.219, 124.727 113.909, 122.750 113.250 C 122.337 113.112, 122 113.450, 122 114 C 122 114.550, 120.906 115, 119.570 115 C 117.840 115, 117.047 114.374, 116.820 112.828 C 116.217 108.736, 114.402 109.967, 113.331 115.192 C 112.391 119.784, 112.546 121.255, 114.612 127.330 C 115.905 131.132, 117.255 136.443, 117.612 139.133 L 118.261 144.024 155.380 143.762 L 192.500 143.500 192.757 71.750 L 193.013 0 96.507 0 L 0 0 0 72 M 0.474 72.500 C 0.474 112.100, 0.598 128.154, 0.750 108.176 C 0.901 88.198, 0.901 55.798, 0.750 36.176 C 0.598 16.554, 0.474 32.900, 0.474 72.500" stroke="none" fill="black" fill-rule="evenodd"/>
</svg>