<svg xmlns="http://www.w3.org/2000/svg" width="192" height="144" viewBox="0 0 192 144" version="1.1">
	<path d="M -0 72.005 L -0 144.010 96.250 143.755 L 192.500 143.500 192.757 71.750 L 193.013 0 96.507 0 L 0 0 -0 72.005 M 0.474 72.500 C 0.474 112.100, 0.598 128.154, 0.750 108.176 C 0.901 88.198, 0.901 55.798, 0.750 36.176 C 0.598 16.554, 0.474 32.900, 0.474 72.500 M 88.331 33.420 C 88.664 34.289, 88.501 35, 87.969 35 C 85.849 35, 87.182 37.990, 90.250 40.118 C 92.037 41.358, 95.021 43.901, 96.880 45.770 C 99.992 48.899, 100.132 49.297, 98.645 50.784 C 97.158 52.271, 96.978 52.141, 96.380 49.148 C 95.864 46.569, 95.294 45.959, 93.625 46.198 C 90.899 46.589, 90.298 49.642, 92.791 50.434 C 95.725 51.365, 97.453 58.224, 95.637 61.735 C 92.381 68.032, 92.225 68.065, 74.148 66.362 C 65.179 65.517, 57.588 65.079, 57.278 65.389 C 56.231 66.436, 59.229 69, 61.500 69 C 62.740 69, 64.331 69.694, 65.035 70.542 C 65.837 71.509, 66.668 71.732, 67.258 71.142 C 67.849 70.551, 70.684 70.909, 74.847 72.099 C 82.521 74.294, 83 74.347, 83 73 C 83 72.450, 82.325 72, 81.500 72 C 80.675 72, 80 71.641, 80 71.203 C 80 70.764, 83.037 70.583, 86.750 70.801 C 92.069 71.113, 93.843 71.633, 95.120 73.252 C 96.491 74.991, 97.447 75.211, 101.324 74.679 C 106.379 73.986, 109 75.507, 109 79.130 C 109 80.485, 109.398 80.860, 110.250 80.309 C 110.938 79.864, 112.400 79.500, 113.500 79.500 C 115.114 79.500, 115.435 78.946, 115.163 76.630 C 114.841 73.889, 114.975 73.785, 118.163 74.303 C 121.762 74.888, 127.850 76.250, 137.754 78.686 C 143.451 80.087, 144.228 80.081, 146.469 78.612 C 147.822 77.725, 149.620 77, 150.465 77 C 151.934 77, 152.488 75.217, 152.018 72.003 C 151.898 71.180, 150.171 68.930, 148.181 67.003 L 144.563 63.500 135.684 63.724 C 128.395 63.908, 126.903 63.696, 127.347 62.539 C 127.754 61.477, 126.546 60.962, 122.444 60.450 C 118.308 59.933, 117 59.370, 117 58.107 C 117 57.193, 116.299 55.445, 115.443 54.223 C 113.984 52.138, 114.017 52, 115.975 52 C 118.347 52, 120.074 48.858, 118.069 48.190 C 117.358 47.953, 115.875 46.721, 114.772 45.452 C 113.669 44.184, 111.469 42.608, 109.883 41.952 C 108.075 41.202, 107 40.017, 107 38.772 C 107 37.273, 107.429 36.963, 108.750 37.506 C 113.677 39.535, 114.461 39.104, 111.168 36.178 C 106.630 32.146, 102.329 31.380, 98.814 33.980 C 95.453 36.464, 93.176 36.577, 93.361 34.250 C 93.459 33.021, 92.640 32.402, 90.612 32.170 C 88.321 31.909, 87.850 32.167, 88.331 33.420 M 109 54.441 C 109 55.234, 109.399 56.129, 109.887 56.430 C 110.988 57.111, 113.229 54.562, 112.325 53.658 C 111.135 52.468, 109 52.971, 109 54.441 M 97.997 62.506 C 95.051 67.898, 95.720 68.948, 99.874 65.452 C 103.242 62.618, 103.752 60.869, 101.704 59.169 C 100.707 58.342, 99.849 59.115, 97.997 62.506 M 116 62.864 C 116 63.873, 119.445 64.982, 122.500 64.956 C 124.103 64.943, 124.202 64.774, 123 64.105 C 120.478 62.701, 116 61.908, 116 62.864" stroke="none" fill="black" fill-rule="evenodd"/>
</svg>