<svg xmlns="http://www.w3.org/2000/svg" width="192" height="144" viewBox="0 0 192 144" version="1.1">
	<path d="M 0 72 L 0 144 7.500 144 C 15.484 144, 15.904 143.671, 13.621 139.200 C 12.863 137.715, 11.196 132.450, 9.916 127.500 C 7.834 119.443, 7.585 116.194, 7.545 96.500 C 7.501 74.766, 8.146 68.093, 11.697 53.572 L 13.147 47.644 10.074 44.771 C 6.117 41.074, 5.949 36.972, 9.635 34.073 C 13.153 31.305, 18 31.263, 18 34 C 18 35.100, 17.550 36, 17 36 C 16.450 36, 16 36.604, 16 37.343 C 16 38.258, 20.176 39.565, 29.106 41.447 C 42.665 44.303, 42.076 44.287, 63.951 42.396 C 76.866 41.279, 92.688 44.987, 109.950 53.176 C 115.697 55.902, 120.795 58.216, 121.278 58.317 C 121.762 58.417, 123.488 56.046, 125.114 53.046 L 128.070 47.592 125.505 46.249 C 122.413 44.629, 122.997 43.314, 127.299 42.210 C 129.356 41.682, 131.215 40.197, 132.500 38.053 C 133.600 36.218, 135.703 33.430, 137.173 31.858 C 139.756 29.096, 140.171 29, 149.489 29 C 154.792 29, 160.001 29.465, 161.064 30.034 C 162.127 30.603, 164.069 33.179, 165.380 35.759 C 167.535 39.998, 168.223 40.547, 172.551 41.474 C 179.040 42.865, 179.205 44.512, 173.002 46 L 167.911 47.221 168.549 51.476 C 169.136 55.391, 168.947 55.901, 166.189 57.865 C 164.540 59.039, 162.521 60, 161.703 60 C 160.884 60, 159.941 60.712, 159.607 61.582 C 158.733 63.861, 158.804 64, 160.845 64 C 163.510 64, 166 67.192, 166 70.606 C 166 74.321, 163.484 78, 160.943 78 C 158.222 78, 158.521 80.640, 161.461 82.566 C 163.678 84.019, 165.264 86.775, 165.450 89.500 C 165.487 90.050, 168.552 93.645, 172.259 97.488 C 175.967 101.331, 179.001 105.156, 179.003 105.988 C 179.004 106.820, 180.592 110.131, 182.530 113.346 C 187.968 122.364, 191.336 130.913, 192.047 137.500 C 192.404 140.800, 192.764 111.213, 192.848 71.750 L 193 0 96.500 0 L 0 0 0 72 M 0.474 72.500 C 0.474 112.100, 0.598 128.154, 0.750 108.176 C 0.901 88.198, 0.901 55.798, 0.750 36.176 C 0.598 16.554, 0.474 32.900, 0.474 72.500 M 60.500 49.690 C 59.400 49.942, 56.121 51.015, 53.212 52.074 C 50.304 53.133, 45.681 54, 42.938 54 C 38.472 54, 37.846 54.275, 36.950 56.631 C 35.846 59.536, 34.440 65.608, 33.624 71 C 33.333 72.925, 32.130 80.575, 30.952 88 C 28.366 104.291, 27.907 125.195, 29.891 136.250 L 31.283 144 70.891 143.959 L 110.500 143.918 112.704 139.209 C 113.915 136.619, 117.032 131.640, 119.630 128.145 C 123.624 122.770, 124.424 120.928, 124.815 116.213 L 125.278 110.636 122.504 112.818 C 119.125 115.476, 116.837 115.583, 114.667 113.184 C 112.664 110.971, 111.350 105.042, 112.664 104.149 C 114.892 102.635, 118.736 94.072, 118.274 91.654 C 117.789 89.114, 118.118 88.296, 123.858 77.790 L 126.977 72.080 122.739 69.170 C 116.571 64.936, 100.590 57.092, 92.500 54.327 C 80.978 50.390, 66.564 48.301, 60.500 49.690 M 150.020 111.960 C 147.462 116.974, 147.501 118.417, 150.500 130 C 151.853 135.225, 152.969 140.512, 152.980 141.750 C 153 143.994, 153.043 144, 170 144 C 179.350 144, 187 143.857, 187 143.682 C 187 141.475, 182.847 130.703, 179.418 124.012 C 172.889 111.274, 173.171 111.512, 164.532 111.474 C 158.982 111.450, 156.673 111.014, 155.244 109.721 C 152.614 107.341, 152.311 107.471, 150.020 111.960" stroke="none" fill="black" fill-rule="evenodd"/>
</svg>