<svg xmlns="http://www.w3.org/2000/svg" width="192" height="144" viewBox="0 0 192 144" version="1.1">
	<path d="M 0 51.395 L 0 102.789 3.750 101.846 C 5.813 101.327, 10.487 100.532, 14.138 100.079 C 22.201 99.080, 24.004 98.207, 21.615 96.461 C 20.033 95.303, 20.035 94.680, 21.657 86.428 C 22.673 81.255, 22.997 77.492, 22.443 77.298 C 19.085 76.121, 18.958 75.392, 21.001 68.998 C 22.196 65.257, 22.665 62.265, 22.140 61.740 C 21.065 60.665, 22.312 54.534, 24.024 52.472 C 25.540 50.645, 27.082 50.608, 29.452 52.341 C 30.890 53.393, 31.334 55.215, 31.503 60.769 C 31.696 67.094, 32.009 68.104, 34.423 70.180 C 37.226 72.591, 37.208 76, 34.393 76 C 32.682 76, 32.678 75.658, 34.500 86 C 36.351 96.509, 36.351 96.536, 34.424 94.937 C 32.128 93.032, 30.521 95.813, 32.594 98.104 C 33.925 99.575, 33.893 99.828, 32.293 100.447 C 30.177 101.267, 18.649 102.775, 7.750 103.658 L 0 104.286 0 124.143 L 0 144 35.421 144 L 70.841 144 71.343 141.250 C 71.620 139.738, 71.836 134.583, 71.824 129.795 L 71.803 121.090 68.415 119.972 C 66.552 119.357, 64.779 118.452, 64.475 117.960 C 64.172 117.468, 65.260 114.464, 66.894 111.283 C 69.387 106.430, 72.093 96, 70.859 96 C 70.657 96, 66.741 97.819, 62.157 100.043 C 57.573 102.266, 52.624 104.304, 51.161 104.570 C 48.516 105.051, 44.582 103.238, 46.500 102.422 C 52.711 99.779, 54.480 98.359, 54.187 96.250 C 53.827 93.658, 55.477 93.242, 56.793 95.594 C 57.579 96.998, 58.395 96.829, 63.652 94.176 C 70.701 90.617, 73.055 88.342, 70.646 87.418 C 69.777 87.084, 68.489 87.020, 67.783 87.275 C 67.077 87.530, 65.825 87.193, 65 86.526 C 64.175 85.859, 60.125 84.739, 56 84.037 C 47.372 82.570, 44.300 81.300, 45.785 79.815 C 46.440 79.160, 47.426 79.151, 48.643 79.790 C 49.664 80.326, 53.818 81.318, 57.872 81.994 C 63.979 83.011, 65.388 82.990, 66.081 81.869 C 66.747 80.792, 67.170 80.770, 68.158 81.758 C 69.854 83.454, 72.663 83.322, 73.357 81.513 C 73.670 80.695, 73.656 77.126, 73.325 73.581 C 72.726 67.163, 72.714 67.141, 70.464 68.616 C 67.706 70.423, 66.311 76.465, 68.143 78.672 C 69.220 79.970, 69.049 80.142, 66.972 79.846 C 64.102 79.438, 62.393 75.554, 63.371 71.659 C 63.733 70.217, 65.372 67.507, 67.013 65.638 C 69.466 62.844, 69.885 61.673, 69.363 59.066 C 68.845 56.474, 69.230 55.370, 71.463 53.039 L 74.197 50.185 71.848 46.981 C 70.557 45.218, 63.650 39.372, 56.500 33.989 C 49.350 28.606, 42.150 22.737, 40.500 20.946 C 36.431 16.531, 38.357 17.711, 53.284 28.783 C 60.315 33.998, 66.217 38.093, 66.398 37.883 C 66.580 37.672, 67.255 36.489, 67.898 35.253 C 68.541 34.018, 70.933 32.054, 73.214 30.891 C 76.638 29.144, 77.939 28.953, 80.680 29.794 C 82.951 30.491, 85.073 30.484, 87.394 29.771 C 89.260 29.198, 91.848 28.996, 93.144 29.322 C 95.115 29.817, 95.491 30.533, 95.443 33.707 C 95.381 37.802, 92.625 44, 90.866 44 C 90.210 44, 90.031 44.986, 90.411 46.500 C 90.874 48.345, 90.640 49, 89.519 49 C 87.050 49, 87.786 51.968, 90.512 53.005 C 91.894 53.530, 93.541 55.093, 94.172 56.479 C 94.803 57.864, 97.177 60.086, 99.447 61.416 C 101.716 62.746, 104.204 65.012, 104.974 66.452 C 105.833 68.057, 106.932 68.856, 107.814 68.518 C 109.252 67.966, 112 69.586, 112 70.986 C 112 71.393, 107.725 74.313, 102.500 77.474 C 97.275 80.635, 93 83.567, 93 83.988 C 93 85.980, 96.538 86.860, 109.250 88.033 C 122.415 89.246, 125.360 90.116, 120.997 91.501 C 119.066 92.114, 104.871 91.378, 100.250 90.426 C 97.202 89.797, 97.332 92.024, 100.519 95.018 C 101.905 96.320, 104.406 99.516, 106.077 102.120 C 108.845 106.433, 109.023 107.202, 108.071 110.736 C 107.270 113.712, 106.097 115.139, 103.043 116.856 C 100.852 118.087, 98.836 119.457, 98.562 119.900 C 98.288 120.343, 98.747 124.484, 99.582 129.103 C 100.961 136.731, 101.698 141.195, 101.919 143.260 C 101.963 143.678, 122.363 143.903, 147.250 143.760 L 192.500 143.500 192.758 71.750 L 193.017 0 172.751 0 L 152.486 0 152.860 4.705 C 153.351 10.883, 150.948 15.322, 145.710 17.914 C 142.430 19.536, 140.304 19.815, 134.098 19.435 C 120.834 18.624, 116.907 16.825, 108.798 7.844 L 101.715 0 50.858 0 L 0 0 0 51.395 M 116.988 2.606 C 122.996 5.333, 126.316 5.147, 128.006 1.988 C 129.032 0.072, 128.751 0.002, 120.285 0.058 L 111.500 0.115 116.988 2.606 M 0.465 52 C 0.465 80.325, 0.593 91.913, 0.749 77.750 C 0.906 63.588, 0.906 40.413, 0.749 26.250 C 0.593 12.088, 0.465 23.675, 0.465 52 M 128 36.441 C 128 37.298, 128.450 38, 129 38 C 129.550 38, 130 37.577, 130 37.059 C 130 36.541, 129.550 35.840, 129 35.500 C 128.450 35.160, 128 35.584, 128 36.441 M 180.496 52.007 C 179.713 53.273, 182.497 54.407, 184.500 53.638 C 185.325 53.322, 186 52.599, 186 52.031 C 186 50.703, 181.315 50.682, 180.496 52.007 M 90.186 61.728 C 87.036 62.116, 86.905 62.294, 87.556 65.318 C 87.933 67.068, 88.921 69.830, 89.753 71.456 C 90.813 73.529, 90.926 74.525, 90.132 74.789 C 88.781 75.240, 88.628 77.652, 89.900 78.438 C 91.223 79.256, 103.980 71.736, 103.991 70.132 C 104.003 68.271, 96.570 60.961, 94.868 61.160 C 94.115 61.248, 92.008 61.504, 90.186 61.728 M 25.218 97.154 C 25.464 97.895, 26.468 98.655, 27.448 98.846 C 28.588 99.066, 29.069 98.706, 28.782 97.846 C 28.536 97.105, 27.532 96.345, 26.552 96.154 C 25.412 95.934, 24.931 96.294, 25.218 97.154 M 0.422 124 C 0.422 135.275, 0.568 139.887, 0.746 134.250 C 0.924 128.613, 0.924 119.388, 0.746 113.750 C 0.568 108.112, 0.422 112.725, 0.422 124 M 79.054 124.358 C 78.540 125.710, 77.806 130.683, 77.422 135.408 L 76.725 144 86.969 144 C 96.335 144, 97.152 143.850, 96.492 142.250 C 96.094 141.287, 95.606 139.375, 95.406 138 C 95.206 136.625, 94.206 132.575, 93.184 129 L 91.326 122.500 85.657 122.200 C 80.428 121.923, 79.916 122.090, 79.054 124.358 M 186.694 125.639 C 185.651 126.682, 186.972 128, 189.059 128 C 190.127 128, 191 127.325, 191 126.500 C 191 125.017, 187.930 124.403, 186.694 125.639" stroke="none" fill="black" fill-rule="evenodd"/>
</svg>