<svg xmlns="http://www.w3.org/2000/svg" width="192" height="144" viewBox="0 0 192 144" version="1.1">
	<path d="M 0 72 L 0 144 41.250 143.956 C 76.557 143.919, 81.970 143.723, 78.821 142.598 C 76.797 141.876, 74.402 140.545, 73.499 139.642 C 72.596 138.739, 71.269 138, 70.551 138 C 69.833 138, 68.654 137.288, 67.933 136.419 C 66.903 135.179, 66.877 134.427, 67.810 132.932 C 68.465 131.884, 69 130.178, 69 129.141 C 69 127.079, 74.100 122.070, 83.653 114.748 C 89.400 110.344, 91.783 107.527, 102.750 92.178 C 107.298 85.812, 108.061 83.009, 105.250 82.985 C 101.507 82.952, 100.746 81.579, 102.054 77.215 C 102.724 74.979, 102.979 72.389, 102.622 71.458 C 102.065 70.006, 101.660 70.162, 99.776 72.558 C 98.122 74.660, 97.539 76.852, 97.418 81.425 C 97.248 87.782, 96.400 91, 94.893 91 C 94.402 91, 94 90.298, 94 89.441 C 94 88.584, 93.631 88.110, 93.181 88.388 C 92.730 88.667, 92.552 87.598, 92.785 86.014 C 93.028 84.357, 92.527 82.162, 91.604 80.845 C 89.087 77.252, 89.642 75.233, 95 68.500 C 99.169 63.261, 100 61.534, 100 58.108 C 100 54.199, 98.695 52.575, 97.703 55.250 C 97.365 56.161, 96.733 56.017, 95.370 54.716 C 93.859 53.275, 93.443 51.160, 93.203 43.716 C 92.857 32.976, 94.578 28.910, 100.522 26.426 C 102.725 25.506, 104 24.291, 104 23.114 C 104 22.091, 104.854 19.285, 105.899 16.877 C 108.155 11.674, 109.699 4.671, 108.076 7 C 107.217 8.232, 107.028 8.087, 107.015 6.184 C 107.007 4.911, 107.466 2.998, 108.035 1.934 C 109.053 0.033, 108.143 0, 54.535 0 L 0 0 0 72 M 119.475 3.001 C 119.684 4.652, 119.325 6.564, 118.677 7.251 C 118.030 7.938, 116.844 9.850, 116.042 11.500 C 115.240 13.150, 113.724 15.217, 112.673 16.094 C 111.052 17.446, 110.946 18.031, 111.976 19.956 C 112.644 21.203, 112.985 23.296, 112.735 24.607 C 112.447 26.115, 113.164 28.186, 114.688 30.245 C 116.867 33.189, 117.032 34.120, 116.419 40 C 116.044 43.600, 115.165 46.837, 114.449 47.256 C 113.738 47.672, 112.864 49.345, 112.506 50.974 C 111.929 53.598, 112.498 54.596, 117.489 59.718 C 123.657 66.049, 123.370 64.745, 121.370 77.341 C 121.034 79.454, 121.203 82.154, 121.745 83.341 C 122.908 85.890, 126.566 108.421, 128.049 122.165 C 128.622 127.481, 129.520 133.328, 130.045 135.158 C 130.570 136.989, 131 139.727, 131 141.243 L 131 144 161.500 144 L 192 144 192 72 L 192 0 155.548 0 L 119.095 0 119.475 3.001 M 75.500 65 C 75.840 65.550, 76.568 66, 77.118 66 C 77.668 66, 77.840 65.550, 77.500 65 C 77.160 64.450, 76.432 64, 75.882 64 C 75.332 64, 75.160 64.450, 75.500 65 M 36.500 88 C 36.840 88.550, 37.541 89, 38.059 89 C 38.577 89, 39 88.550, 39 88 C 39 87.450, 38.298 87, 37.441 87 C 36.584 87, 36.160 87.450, 36.500 88 M 14 91 C 14 91.550, 14.450 92, 15 92 C 15.550 92, 16 91.550, 16 91 C 16 90.450, 15.550 90, 15 90 C 14.450 90, 14 90.450, 14 91 M 19.459 104.067 C 18.383 105.808, 19.608 106.177, 20.980 104.524 C 21.769 103.574, 21.845 103, 21.181 103 C 20.597 103, 19.821 103.480, 19.459 104.067" stroke="none" fill="black" fill-rule="evenodd"/>
</svg>