<svg xmlns="http://www.w3.org/2000/svg" width="192" height="144" viewBox="0 0 192 144" version="1.1">
	<path d="M 104.161 9.469 C 101.632 12.350, 101.211 13.524, 101.677 16.395 C 102.171 19.441, 101.808 20.230, 98.630 23.020 C 95.145 26.080, 92 33.339, 92 38.322 C 92 43.213, 96.993 49.949, 101 50.466 C 103.181 50.747, 103.926 52.269, 102.859 54.263 C 101.997 55.874, 101.998 56.499, 102.864 56.788 C 103.496 56.999, 105.765 58.957, 107.904 61.140 C 111.803 65.118, 113.985 65.908, 117.250 64.527 C 118.564 63.970, 119 64.262, 119 65.697 C 119 67.934, 113.477 73.485, 110.301 74.441 C 109.092 74.805, 107.792 76.092, 107.414 77.301 C 107.035 78.511, 105.866 80.600, 104.816 81.944 C 103.766 83.288, 103.023 85.313, 103.164 86.444 C 103.442 88.669, 99.863 100.977, 98.934 100.991 C 97.893 101.007, 91.051 85.095, 89.724 79.570 C 89.601 79.058, 92.808 77.850, 96.851 76.885 C 108.846 74.024, 107.166 73.025, 93.835 75.094 C 88.735 75.885, 86.485 75.885, 85.694 75.094 C 83.850 73.250, 79.562 73.872, 76 76.500 C 74.136 77.875, 72.516 79, 72.400 79 C 72.284 79, 70.478 76.075, 68.387 72.500 C 64.786 66.344, 64.387 66, 60.860 66 C 55.286 66, 54.950 68.639, 59.546 76.304 C 61.589 79.712, 63.343 83.175, 63.443 84 C 63.824 87.135, 65.207 93.626, 66.158 96.737 C 66.998 99.487, 68.436 100.617, 75.699 104.237 C 81.865 107.311, 84.884 109.476, 86.524 112 C 87.774 113.925, 91.093 117.733, 93.898 120.462 C 99.369 125.784, 99.925 127.626, 97.366 131.958 C 96.143 134.027, 95.907 135.893, 96.427 139.362 L 97.123 144 122.561 144 C 140.335 144, 148 143.670, 148 142.904 C 148 140.951, 144.613 136.012, 142.901 135.468 C 140.948 134.849, 139 123.842, 139 113.428 C 139 108.581, 138.620 106.791, 137.500 106.362 C 134.321 105.142, 136.210 104.067, 140.500 104.655 C 143.554 105.074, 145 104.907, 145 104.136 C 145 103.511, 146.125 103, 147.500 103 C 148.875 103, 150 102.550, 150 102 C 150 101.450, 150.911 101, 152.025 101 C 153.295 101, 154.425 100.013, 155.056 98.352 C 156.021 95.815, 156.121 95.783, 157.453 97.602 C 158.407 98.904, 158.674 101.071, 158.303 104.500 C 157.785 109.288, 157.834 109.415, 159.451 107.500 C 161.066 105.586, 161.117 105.727, 160.617 110.750 C 160.316 113.776, 160.498 116, 161.047 116 C 161.571 116, 162 117.855, 162 120.122 C 162 123.854, 162.158 124.115, 163.669 122.872 C 165.182 121.628, 165.278 121.802, 164.694 124.750 C 163.985 128.326, 164.189 128.504, 167.160 126.914 C 168.954 125.954, 169.113 126.070, 168.527 127.914 C 166.895 133.056, 170.490 135.361, 172.858 130.692 C 173.784 128.866, 173.883 129.251, 173.452 133 C 173.167 135.475, 172.783 138.963, 172.598 140.750 L 172.262 144 182.131 144 L 192 144 192 110 C 192 85.586, 191.684 76, 190.881 76 C 188.822 76, 177.555 68.629, 172.701 64.106 C 170.062 61.647, 166.260 57.398, 164.253 54.663 C 161.915 51.478, 160.440 50.196, 160.149 51.096 C 159.412 53.377, 149.340 66.425, 144.849 70.916 C 142.566 73.198, 140.204 74.904, 139.599 74.705 C 138.995 74.506, 138.361 72.186, 138.190 69.548 C 137.890 64.900, 137.956 64.772, 140.336 65.369 C 143.025 66.044, 143.914 64.821, 144.116 60.168 C 144.190 58.475, 144.399 58.139, 144.689 59.250 C 144.941 60.212, 145.515 61, 145.965 61 C 147.115 61, 148.121 56.478, 147.392 54.579 C 147.059 53.711, 147.293 53, 147.912 53 C 149.371 53, 148.333 48.489, 145.955 44.500 C 144.972 42.850, 143.419 38.595, 142.503 35.044 C 141.588 31.494, 140.202 27.358, 139.424 25.853 C 137.367 21.875, 127.473 14.179, 123.444 13.423 C 120.917 12.949, 119.821 12.134, 119.387 10.405 C 118.970 8.745, 117.702 7.734, 115.146 7.024 C 109.232 5.381, 107.391 5.791, 104.161 9.469 M 134 68.382 C 134 69.207, 134.450 70.160, 135 70.500 C 135.550 70.840, 136 70.443, 136 69.618 C 136 68.793, 135.550 67.840, 135 67.500 C 134.450 67.160, 134 67.557, 134 68.382 M 77 86.378 C 77 86.585, 77.787 87.373, 78.750 88.128 C 80.336 89.371, 80.371 89.336, 79.128 87.750 C 77.821 86.084, 77 85.555, 77 86.378 M 134.667 112.667 C 133.372 113.961, 134.002 122.621, 135.532 124.559 C 136.934 126.334, 137.008 125.903, 136.409 119.500 C 135.695 111.875, 135.647 111.686, 134.667 112.667 M 189.079 135.583 C 189.127 136.748, 189.364 136.985, 189.683 136.188 C 189.972 135.466, 189.936 134.603, 189.604 134.271 C 189.272 133.939, 189.036 134.529, 189.079 135.583" stroke="none" fill="black" fill-rule="evenodd"/>
</svg>