<svg xmlns="http://www.w3.org/2000/svg" width="192" height="144" viewBox="0 0 192 144" version="1.1">
	<path d="M 0 57.057 L 0 114.115 4.250 113.807 L 8.500 113.500 8.573 107.500 C 8.673 99.315, 9.478 97.354, 13.030 96.644 C 15.655 96.119, 16 95.637, 16 92.494 C 16 90.255, 16.556 88.724, 17.500 88.362 C 18.325 88.045, 19 86.961, 19 85.952 C 19 84.943, 19.450 83.840, 20 83.500 C 20.565 83.151, 21 83.973, 21 85.391 C 21 86.771, 21.639 88.260, 22.420 88.700 C 23.201 89.140, 23.989 91.075, 24.170 93 C 24.426 95.720, 24.991 96.570, 26.703 96.813 C 29.565 97.220, 30.446 100.058, 30.099 107.750 C 29.918 111.770, 30.207 114, 30.909 114 C 31.509 114, 32 112.366, 32 110.368 C 32 108.370, 32.958 105.186, 34.129 103.291 L 36.259 99.845 38.123 102.673 C 39.148 104.228, 39.990 106.901, 39.993 108.614 C 40 111.559, 40.251 111.763, 44.640 112.364 C 47.191 112.714, 53.007 113, 57.563 113 C 64.940 113, 66.172 113.274, 68.818 115.500 C 70.452 116.875, 72.061 118, 72.394 118 C 72.727 118, 73.010 114.513, 73.022 110.250 C 73.039 104.342, 73.473 101.943, 74.846 100.157 L 76.648 97.815 78.500 100.640 C 80.171 103.191, 80.327 105.437, 80.101 123.733 L 79.851 144 135.766 144 L 191.681 144 192.338 120.750 C 192.700 107.963, 192.996 75.563, 192.998 48.750 L 193 0 96.500 0 L 0 0 0 57.057 M 0.468 57.500 C 0.468 88.850, 0.595 101.530, 0.750 85.679 C 0.904 69.827, 0.904 44.177, 0.749 28.679 C 0.594 13.180, 0.468 26.150, 0.468 57.500 M 118.999 34.001 C 116.562 36.752, 113.766 39.257, 112.784 39.568 C 109.971 40.461, 110.703 42, 113.941 42 C 117.438 42, 118.173 42.949, 118.019 47.263 C 117.764 54.439, 117.988 56.145, 119.462 58.249 C 121.594 61.293, 121.444 62.058, 117.786 66.818 C 115.671 69.570, 113.791 71, 112.286 71 C 110.921 71, 110 71.604, 110 72.500 C 110 73.325, 110.450 74, 111 74 C 111.550 74, 112 74.702, 112 75.559 C 112 76.416, 112.453 76.838, 113.006 76.496 C 114.858 75.352, 120.892 78.251, 121.205 80.434 C 121.663 83.641, 124.277 82.868, 125.215 79.250 C 126.440 74.524, 131 75.509, 131 80.500 C 131 81.655, 131.505 83.105, 132.122 83.722 C 133.812 85.412, 136 84.098, 136 81.393 C 136 80.077, 136.204 79, 136.453 79 C 137.729 79, 142 81.434, 142 82.161 C 142 82.622, 142.450 83, 143 83 C 143.550 83, 144 82.295, 144 81.433 C 144 80.368, 144.588 80.052, 145.831 80.446 C 147.859 81.090, 152.420 77.778, 151.232 76.524 C 150.829 76.099, 151.512 76.063, 152.750 76.443 C 154.110 76.861, 155 76.713, 155 76.067 C 155 75.480, 154.599 75, 154.109 75 C 153.620 75, 153.035 73.425, 152.810 71.500 C 152.500 68.839, 152.773 67.993, 153.951 67.970 C 155.163 67.946, 155.093 67.703, 153.630 66.853 C 152.120 65.976, 152.024 65.599, 153.130 64.898 C 154.220 64.208, 154.158 64.027, 152.823 64.015 C 151.900 64.007, 150.193 62.789, 149.029 61.310 C 147.218 59.007, 146.194 58.630, 141.933 58.694 L 136.953 58.770 137.588 55.385 C 138.311 51.531, 138.192 51.475, 133.468 53.449 C 130.073 54.867, 130 54.847, 130 52.506 C 130 50.925, 130.986 49.530, 132.907 48.396 C 134.730 47.319, 135.605 46.133, 135.252 45.216 C 134.944 44.411, 135.436 43.336, 136.346 42.827 C 139.038 41.319, 138.259 40.220, 133.987 39.498 C 129.721 38.777, 128 36.815, 128 32.673 C 128 30.527, 126.392 29, 124.133 29 C 123.746 29, 121.436 31.250, 118.999 34.001" stroke="none" fill="black" fill-rule="evenodd"/>
</svg>