<svg xmlns="http://www.w3.org/2000/svg" width="192" height="144" viewBox="0 0 192 144" version="1.1">
	<path d="M 0 72.055 L 0 144.110 4.683 143.805 C 8.918 143.529, 9.441 143.218, 10.147 140.560 C 10.577 138.942, 10.520 137.127, 10.021 136.526 C 8.700 134.934, 9.259 132.757, 11.829 129.490 C 13.623 127.210, 14.002 125.707, 13.645 122.287 C 13.280 118.780, 13.553 117.774, 15.098 116.948 C 16.144 116.388, 17 115.249, 17 114.417 C 17 113.584, 17.900 111.041, 19 108.764 C 21.361 103.876, 21.343 103.993, 19.750 104.027 C 19.063 104.042, 17.408 105.824, 16.074 107.987 C 13.338 112.424, 11.384 113.563, 9.373 111.895 C 7.245 110.129, 7.746 106.988, 10.500 104.821 C 11.875 103.740, 13 101.988, 13 100.927 C 13 99.867, 13.340 99, 13.756 99 C 14.172 99, 15.046 97.762, 15.700 96.250 C 18.328 90.167, 20.789 83.325, 21.455 80.250 C 22.072 77.400, 21.903 77, 20.079 77 C 17.574 77, 17.588 77.584, 19.938 70.962 C 21.659 66.111, 21.711 65.276, 20.410 63.500 C 16.944 58.772, 15.590 54.315, 15.549 47.500 C 15.497 38.806, 17.305 35.471, 24.972 30.120 C 33.884 23.901, 38.436 22.040, 48.969 20.311 L 58.903 18.680 59.202 14.090 L 59.500 9.500 63.500 15.831 C 65.700 19.313, 68.935 23.936, 70.690 26.104 C 72.444 28.271, 74.182 31.047, 74.551 32.273 C 77.071 40.633, 78.667 41.847, 89.334 43.520 C 92.224 43.974, 93.024 44.496, 92.584 45.643 C 92.263 46.479, 92 47.802, 92 48.582 C 92 49.544, 90.840 50, 88.389 50 C 84.791 50, 84.780 50.013, 85.446 53.565 C 86.224 57.710, 82.757 66.228, 80.625 65.410 C 78.462 64.579, 76.924 69.175, 77.358 75.174 C 77.645 79.134, 77.426 80.719, 76.634 80.418 C 76.011 80.182, 74.600 81.679, 73.500 83.744 C 71.670 87.181, 71.097 87.526, 66.750 87.805 C 62.931 88.050, 62 88.467, 62 89.933 C 62 92.296, 68.911 94.991, 78.995 96.559 C 81.467 96.944, 84.227 98.108, 85.128 99.147 C 86.685 100.943, 87.054 100.959, 92.633 99.470 C 100.166 97.461, 115.676 97.470, 123.500 99.488 C 140.471 103.866, 155.922 116.390, 165.306 133.376 C 166.788 136.058, 168 138.429, 168 138.645 C 168 138.862, 165.638 140.124, 162.750 141.451 L 157.500 143.863 175 143.681 L 192.500 143.500 192.757 71.750 L 193.013 0 96.507 0 L 0 0 0 72.055 M 0.474 72.500 C 0.474 112.100, 0.598 128.154, 0.750 108.176 C 0.901 88.198, 0.901 55.798, 0.750 36.176 C 0.598 16.554, 0.474 32.900, 0.474 72.500 M 116.180 60.057 C 114.562 60.706, 113.956 61.648, 114.180 63.165 C 114.647 66.343, 116.339 66.427, 119.877 63.450 C 124.385 59.657, 122.193 57.646, 116.180 60.057 M 13 70.059 C 13 70.641, 13.450 70.840, 14 70.500 C 14.550 70.160, 15 69.684, 15 69.441 C 15 69.198, 14.550 69, 14 69 C 13.450 69, 13 69.477, 13 70.059" stroke="none" fill="black" fill-rule="evenodd"/>
</svg>