<svg xmlns="http://www.w3.org/2000/svg" width="192" height="144" viewBox="0 0 192 144" version="1.1">
	<path d="M 0 72 L 0 144 43.500 144 L 87 144 87 140.953 C 87 138.623, 86.301 137.507, 84.026 136.203 C 82.289 135.209, 80.800 133.356, 80.447 131.750 C 80.114 130.238, 79.447 129, 78.966 129 C 78.484 129, 77.806 127.484, 77.459 125.631 C 76.780 122.012, 77.655 119.748, 84.339 107.833 C 87.117 102.881, 87.914 100.504, 87.434 98.594 C 86.998 96.854, 87.470 94.869, 88.894 92.454 C 91.605 87.860, 91.578 87.602, 87.902 83.027 C 85.313 79.806, 84.919 78.644, 85.509 75.961 C 86.046 73.513, 85.915 72.934, 84.958 73.526 C 83.978 74.132, 83.859 73.116, 84.417 68.901 C 85.136 63.468, 86.759 59.308, 91.403 51 C 92.787 48.525, 95.003 43.986, 96.329 40.913 C 98.517 35.843, 98.590 35.224, 97.120 34.222 C 95.727 33.273, 95.842 33.109, 97.936 33.059 C 99.275 33.026, 101.300 32.139, 102.436 31.087 C 105.215 28.511, 106.753 28.414, 111.718 30.504 C 115.054 31.907, 116.176 33.034, 117.079 35.889 C 117.707 37.875, 118.932 40.063, 119.801 40.750 C 121.236 41.884, 121.236 42, 119.809 42 C 118.283 42, 110 49.536, 110 50.925 C 110 51.305, 112.025 53.042, 114.500 54.787 C 116.975 56.531, 119 58.481, 119 59.120 C 119 59.758, 119.943 62.169, 121.095 64.476 L 123.190 68.671 119.569 75.997 L 115.949 83.323 118.396 89.912 C 121.228 97.537, 122.276 100.899, 122.478 103 C 122.558 103.825, 123.142 105.453, 123.776 106.619 C 124.411 107.784, 124.721 108.946, 124.466 109.200 C 124.212 109.455, 125.570 113.655, 127.485 118.533 C 129.868 124.603, 130.616 127.619, 129.855 128.089 C 129.244 128.467, 129.021 129.226, 129.361 129.775 C 130.384 131.430, 127.224 133.273, 124.525 132.596 C 120.679 131.630, 117.997 133.853, 118.015 137.991 C 118.024 139.921, 118.391 142.068, 118.832 142.763 C 119.459 143.750, 127.585 143.968, 156.067 143.763 L 192.500 143.500 192.757 71.750 L 193.013 0 96.507 0 L 0 0 0 72 M 0.474 72.500 C 0.474 112.100, 0.598 128.154, 0.750 108.176 C 0.901 88.198, 0.901 55.798, 0.750 36.176 C 0.598 16.554, 0.474 32.900, 0.474 72.500 M 113 69.778 C 113 72.650, 113.213 75, 113.474 75 C 113.735 75, 114.677 73.592, 115.567 71.870 C 117.106 68.894, 117.083 68.639, 115.093 66.648 L 113 64.556 113 69.778 M 96.015 73.250 C 96.027 75.716, 96.264 76.138, 97 75 C 98.270 73.035, 98.270 70, 97 70 C 96.450 70, 96.007 71.463, 96.015 73.250 M 106.500 137.602 C 105.125 138.659, 103.331 138.958, 100.760 138.560 C 97.835 138.106, 96.582 138.418, 95.010 139.990 C 91.573 143.427, 92.556 144, 101.893 144 C 111.481 144, 112.217 143.584, 111.280 138.687 C 110.701 135.654, 109.413 135.362, 106.500 137.602" stroke="none" fill="black" fill-rule="evenodd"/>
</svg>