<svg xmlns="http://www.w3.org/2000/svg" width="192" height="144" viewBox="0 0 192 144" version="1.1">
	<path d="M -0 72.005 L -0 144.010 96.250 143.755 L 192.500 143.500 192.757 71.750 L 193.013 0 96.507 0 L 0 0 -0 72.005 M 0.474 72.500 C 0.474 112.100, 0.598 128.154, 0.750 108.176 C 0.901 88.198, 0.901 55.798, 0.750 36.176 C 0.598 16.554, 0.474 32.900, 0.474 72.500 M 75 29.707 C 69.424 31.625, 64.351 35.320, 63.467 38.104 C 62.745 40.380, 64.770 49, 66.026 49 C 66.448 49, 68.182 47.418, 69.879 45.485 L 72.966 41.969 72.357 46.409 C 71.681 51.346, 72.609 58, 73.974 58 C 74.460 58, 75.651 55.413, 76.619 52.250 C 77.991 47.773, 78.460 47.053, 78.737 49 C 79.231 52.471, 81.087 57, 82.014 57 C 83.126 57, 84 54.300, 84 50.869 C 84 47.817, 86.486 41.988, 87.776 42.015 C 89.682 42.055, 96.750 44.672, 98.712 46.065 C 100.475 47.316, 100.874 48.494, 100.708 51.957 C 100.432 57.707, 102.345 58.205, 104.967 53.065 C 106.371 50.313, 107.701 49, 109.086 49 C 110.211 49, 111.913 48.582, 112.868 48.071 C 114.794 47.040, 120.086 49.803, 146.857 65.815 C 158.996 73.075, 161.585 73.954, 170.918 73.978 C 175.548 73.990, 182.186 73.504, 185.668 72.897 L 192 71.795 192 53.442 L 192 35.089 185.055 38.045 C 176.850 41.536, 175.627 41.612, 169.104 39.041 C 164.017 37.036, 159.738 36.210, 140.500 33.518 C 134.450 32.671, 125.900 31.088, 121.500 30.001 C 111.084 27.427, 82.157 27.243, 75 29.707 M 79.853 99.063 C 79.497 99.923, 79.437 101.836, 79.720 103.313 C 80.002 104.791, 79.817 106, 79.308 106 C 78.799 106, 77.610 106.565, 76.665 107.256 C 75.051 108.436, 75.076 108.900, 77.070 114.976 C 78.238 118.532, 80.603 123.405, 82.327 125.805 C 84.526 128.868, 85.615 131.709, 85.980 135.335 L 86.500 140.500 90 140.155 C 93.790 139.782, 101.904 135.194, 101.963 133.390 C 101.984 132.779, 100.437 130.623, 98.528 128.598 C 95.035 124.895, 94.132 122.543, 91.961 111.500 C 90.156 102.314, 90.543 102.796, 85.578 103.541 L 81.142 104.206 80.821 100.853 C 80.614 98.690, 80.270 98.055, 79.853 99.063" stroke="none" fill="black" fill-rule="evenodd"/>
</svg>