<svg xmlns="http://www.w3.org/2000/svg" width="192" height="144" viewBox="0 0 192 144" version="1.1">
	<path d="M 72 43.577 C 60.346 45.411, 51.642 47.858, 24 57.074 C 12.175 61.017, 1.918 64.406, 1.208 64.606 C 0.260 64.873, -0.007 67.040, 0.208 72.728 L 0.500 80.487 13 83.749 C 19.875 85.543, 31.350 88.579, 38.500 90.494 C 69.161 98.709, 89.867 101.067, 113.500 99.035 C 132.156 97.432, 146.752 93.543, 178.938 81.603 C 188.389 78.097, 191.567 77.291, 192.172 78.245 C 192.611 78.935, 192.976 76.067, 192.985 71.872 L 193 64.243 189.250 63.228 C 187.188 62.669, 175.150 59.039, 162.500 55.161 C 122.077 42.768, 122.136 42.780, 100.500 42.408 C 87.094 42.178, 78.703 42.522, 72 43.577 M 94.398 52.902 C 88.942 53.437, 87.700 54.010, 82.648 58.327 C 79.542 60.982, 77 63.940, 77 64.899 C 77 65.859, 76.284 68.746, 75.408 71.316 C 73.907 75.721, 73.927 76.232, 75.754 80.244 C 76.819 82.585, 78.168 85.666, 78.752 87.092 C 79.335 88.517, 81.317 90.440, 83.156 91.364 C 84.995 92.288, 87.645 93.953, 89.044 95.064 C 91.318 96.869, 92.331 96.994, 98.609 96.244 C 104.784 95.507, 106.317 94.870, 111.316 90.966 C 115.484 87.710, 117.012 85.856, 117.044 84.013 C 117.068 82.631, 117.734 79.700, 118.523 77.500 C 119.872 73.739, 119.799 73.094, 117.296 66.686 C 114.772 60.226, 114.289 59.667, 108.009 55.936 C 104.365 53.771, 101.185 52.069, 100.942 52.152 C 100.699 52.236, 97.754 52.574, 94.398 52.902 M 0.343 72.500 C 0.346 76.900, 0.522 78.576, 0.733 76.224 C 0.945 73.872, 0.942 70.272, 0.727 68.224 C 0.512 66.176, 0.339 68.100, 0.343 72.500" stroke="none" fill="black" fill-rule="evenodd"/>
</svg>