<svg xmlns="http://www.w3.org/2000/svg" width="192" height="144" viewBox="0 0 192 144" version="1.1">
	<path d="M 70.250 56.224 C 66.684 60.036, 67.495 68.515, 71.901 73.500 C 72.874 74.600, 74.626 79.482, 75.795 84.350 C 78.449 95.398, 79.112 96.240, 84.835 95.824 L 89.302 95.500 91.650 102 C 94.138 108.886, 94.453 111.514, 93.417 116.745 C 92.776 119.980, 96.001 129, 97.798 129 C 98.232 129, 102.596 127.838, 107.496 126.417 C 115.960 123.963, 116.470 123.923, 117.703 125.608 C 119.246 127.718, 119.400 130, 118 130 C 117.450 130, 117 130.605, 117 131.345 C 117 132.085, 116.100 133.505, 115 134.500 C 113.900 135.495, 113 137.396, 113 138.722 C 113 140.756, 113.353 141.029, 115.250 140.463 C 117.730 139.723, 118.198 139.420, 129 131.560 C 133.125 128.559, 137.131 126.080, 137.902 126.052 C 140.809 125.945, 147.767 119.443, 149.862 114.876 C 153.853 106.177, 153.188 105.730, 143.389 110.527 C 138.652 112.846, 134.490 115.160, 134.139 115.669 C 132.115 118.607, 124 122.450, 124 120.471 C 124 118.935, 130.150 108.112, 132.394 105.698 C 133.827 104.158, 135 102.676, 135 102.407 C 135 102.137, 135.921 100.928, 137.046 99.720 C 138.543 98.113, 139.012 96.459, 138.796 93.552 C 138.517 89.803, 138.274 89.530, 134.500 88.708 C 132.300 88.228, 126.044 88.123, 120.598 88.474 C 111.640 89.052, 110.190 88.892, 105.407 86.806 C 102.223 85.418, 99.679 83.548, 99.016 82.108 C 97.922 79.733, 97.946 79.721, 102.494 80.344 C 106.592 80.906, 107.161 80.740, 107.888 78.773 C 108.682 76.627, 108.281 73, 107.249 73 C 106.965 73, 104.956 73.532, 102.784 74.183 C 98.953 75.331, 98.764 75.272, 96.346 72.183 C 94.578 69.924, 92.715 68.818, 89.928 68.372 C 87.623 68.004, 86 67.190, 86 66.404 C 86 65.623, 86.626 65.303, 87.500 65.638 C 89.377 66.359, 89.415 64.704, 87.602 61.198 C 85.361 56.864, 82.827 55.178, 77.495 54.476 C 73.054 53.891, 72.250 54.085, 70.250 56.224" stroke="none" fill="black" fill-rule="evenodd"/>
</svg>