<svg xmlns="http://www.w3.org/2000/svg" width="192" height="144" viewBox="0 0 192 144" version="1.1">
	<path d="M 103.250 17.662 C 102.563 17.940, 102 19.277, 102 20.634 C 102 25.775, 95.783 56.545, 94.547 57.517 C 93.049 58.696, 91.475 66.132, 91.798 70.500 C 91.921 72.150, 89.978 81.150, 87.482 90.500 C 84.985 99.850, 82.665 108.625, 82.325 110 C 81.986 111.375, 81.099 112.860, 80.354 113.300 C 79.609 113.740, 79 114.968, 79 116.029 C 79 117.091, 78.268 119.790, 77.373 122.026 C 75.857 125.815, 75.862 126.178, 77.444 127.335 C 79.023 128.490, 79.032 129.052, 77.571 135.350 C 75.557 144.033, 75.554 144, 78.455 144 C 80.511 144, 81.013 143.391, 81.549 140.250 C 82.733 133.312, 84.071 129, 85.039 129 C 86.340 129, 86.237 130.528, 84.500 137 C 83.688 140.025, 83.018 142.838, 83.012 143.250 C 83.005 143.662, 97.205 144, 114.567 144 L 146.135 144 145.446 141.750 C 145.068 140.512, 144.427 138.884, 144.023 138.131 C 143.608 137.358, 144.520 133.873, 146.117 130.131 C 148.605 124.298, 148.951 122.236, 148.992 113 C 149.040 102.180, 151.213 80.562, 152.962 73.500 C 155.307 64.029, 152.991 47.495, 148.321 40.367 C 145.925 36.711, 139.092 33.983, 131.897 33.810 C 122.496 33.584, 118.815 35.177, 113.629 41.714 C 109.526 46.887, 109.284 47.515, 110.285 50.395 C 110.879 52.103, 111.958 54.095, 112.683 54.821 C 114.256 56.400, 114.425 59, 112.955 59 C 110.693 59, 113.828 69.394, 116.737 71.541 C 117.868 72.374, 117.917 73.089, 116.984 75.135 C 116.053 77.180, 115.291 77.590, 113.160 77.195 C 109.908 76.592, 109.568 76.103, 106.916 68.196 C 105.753 64.729, 103.883 61.038, 102.761 59.992 C 100.407 57.799, 100.642 55.961, 106.262 32.620 C 109.269 20.130, 109.307 19.697, 107.491 18.370 C 105.504 16.917, 105.217 16.869, 103.250 17.662 M 96.753 75.250 C 96.490 76.487, 94.661 83.800, 92.691 91.500 C 90.720 99.200, 88.814 107.592, 88.455 110.149 C 87.803 114.798, 87.803 114.798, 91.152 115.450 C 92.993 115.808, 97.330 117.261, 100.788 118.679 C 104.246 120.097, 107.320 121.014, 107.618 120.716 C 107.915 120.418, 106.571 116.873, 104.631 112.837 C 98.797 100.703, 96.230 87.170, 99.200 84.200 C 99.860 83.540, 101.484 83, 102.808 83 C 104.926 83, 105.139 82.668, 104.571 80.250 C 103.953 77.622, 99.803 73, 98.061 73 C 97.606 73, 97.017 74.013, 96.753 75.250" stroke="none" fill="black" fill-rule="evenodd"/>
</svg>