<svg xmlns="http://www.w3.org/2000/svg" width="192" height="144" viewBox="0 0 192 144" version="1.1">
	<path d="M 84.362 1.250 C 80.087 7.304, 78.781 13.193, 81.378 14.700 C 83.383 15.864, 84.208 21.183, 82.689 23.158 C 81.988 24.069, 79.184 25.144, 76.457 25.546 C 70.646 26.404, 70.036 27.087, 70.015 32.759 C 70.003 36.140, 70.619 37.666, 73.002 40.159 C 75.900 43.192, 77.126 46.305, 78.550 54.250 C 79.206 57.907, 79.145 58.003, 76.111 58.125 C 74.400 58.194, 72.514 58.306, 71.919 58.375 C 70.077 58.588, 68 62.243, 68 65.274 C 68 69.447, 73.718 82.125, 76.748 84.670 C 78.794 86.388, 79.374 87.846, 79.533 91.670 C 79.860 99.522, 82.031 111.329, 83.594 113.750 C 86.334 117.995, 87.328 116.456, 86.699 108.948 C 86.191 102.887, 86.346 101.812, 87.804 101.301 C 88.737 100.974, 90.690 99.609, 92.145 98.267 C 94.548 96.050, 94.699 95.490, 93.785 92.163 C 93.232 90.148, 92.112 87.204, 91.297 85.620 C 89.965 83.033, 89.990 82.349, 91.541 78.908 C 92.742 76.245, 93.107 73.641, 92.738 70.366 C 92.324 66.692, 92.959 63.383, 95.619 55.348 C 97.496 49.680, 100.126 43.430, 101.464 41.458 C 107.967 31.875, 103.728 19.196, 94.519 20.691 C 90.694 21.311, 90.295 20.828, 89.001 14.004 C 88.229 9.937, 88.337 8.249, 89.512 5.977 C 91.794 1.563, 91.431 0, 88.122 0 C 86.540 0, 84.848 0.563, 84.362 1.250" stroke="none" fill="black" fill-rule="evenodd"/>
</svg>