<svg xmlns="http://www.w3.org/2000/svg" width="192" height="144" viewBox="0 0 192 144" version="1.1">
	<path d="M 99 16.752 C 97.062 17.720, 94.831 19.916, 94 21.673 C 92.903 23.994, 91.613 25.016, 89.197 25.479 C 85.270 26.230, 84.139 28.391, 86.379 30.866 C 87.328 31.915, 88 34.386, 88 36.829 C 88 39.718, 88.638 41.638, 90.077 43.077 C 91.220 44.220, 91.919 45.770, 91.630 46.522 C 91.087 47.936, 94.735 55.950, 96.500 57.220 C 97.050 57.615, 98.536 57.753, 99.803 57.526 C 104.489 56.686, 104.405 65.330, 99.702 67.931 C 97.324 69.246, 90 78.195, 90 79.785 C 90 80.319, 89.417 81.239, 88.704 81.831 C 87.707 82.658, 86.840 81.866, 84.954 78.404 C 82.604 74.092, 75.938 67.619, 71.316 65.161 C 67.874 63.331, 64.276 63.767, 62.557 66.223 C 60.577 69.049, 60.545 73.612, 62.500 74.362 C 63.414 74.712, 64 74.363, 64 73.469 C 64 72.661, 64.346 72, 64.768 72 C 66.214 72, 73 77.071, 73 78.152 C 73 78.746, 74.518 81.317, 76.373 83.866 C 78.229 86.415, 80.037 89.441, 80.391 90.592 C 80.745 91.742, 82.093 93.678, 83.387 94.894 C 86.526 97.843, 90.126 96.903, 95.024 91.856 C 97.082 89.735, 99.044 88, 99.383 88 C 99.722 88, 100 89.125, 100 90.500 C 100 91.875, 100.889 93.889, 101.975 94.975 C 104.259 97.259, 104.756 98.973, 105.866 108.398 C 106.626 114.856, 106.441 115.974, 102.963 125.898 C 98.634 138.250, 96.930 142.220, 95.520 143.235 C 94.959 143.639, 109.350 143.946, 127.500 143.917 C 151.473 143.879, 159.901 143.575, 158.308 142.806 C 155.394 141.397, 154.605 139.082, 156.767 138.285 C 160.570 136.883, 160.899 133.618, 158.083 125.218 C 155.123 116.388, 154.496 112, 156.194 112 C 158.514 112, 164.371 107.191, 166.250 103.742 C 170.092 96.692, 168.025 89.342, 159.156 78.522 C 155.990 74.660, 151.564 68.800, 149.319 65.500 C 145.641 60.092, 136.369 50.023, 135.032 49.985 C 134.740 49.976, 133.892 49.584, 133.149 49.114 C 130.972 47.734, 134.806 44, 138.401 44 C 142.197 44, 148.005 41.909, 147.985 40.549 C 147.976 39.972, 147.639 39.050, 147.235 38.500 C 145.861 36.631, 132.519 28.167, 128.309 26.495 C 126.005 25.579, 123.441 23.796, 122.612 22.531 C 120.461 19.248, 111.400 15, 106.554 15.002 C 104.324 15.002, 100.925 15.790, 99 16.752 M 139 113.755 C 139 114.305, 139.675 115.315, 140.500 116 C 141.337 116.694, 142 116.803, 142 116.245 C 142 115.695, 141.325 114.685, 140.500 114 C 139.663 113.306, 139 113.197, 139 113.755" stroke="none" fill="black" fill-rule="evenodd"/>
</svg>