<svg xmlns="http://www.w3.org/2000/svg" width="192" height="144" viewBox="0 0 192 144" version="1.1">
	<path d="M 0 72 L 0 144 29.929 144 L 59.859 144 65.679 140.114 C 73.351 134.993, 78.150 127.354, 77.374 121.500 C 76.980 118.533, 77.500 116.028, 79.386 111.802 C 81.633 106.767, 82.340 106.027, 85.459 105.442 L 88.989 104.779 86.389 102.734 C 84.276 101.072, 83.886 100.089, 84.308 97.491 C 84.739 94.836, 84.309 93.839, 81.781 91.621 C 78.991 89.173, 78.787 88.571, 79.351 84.457 C 79.689 81.987, 80.742 78.511, 81.689 76.733 C 82.636 74.955, 83.271 73.050, 83.100 72.500 C 82.716 71.262, 82.179 68.760, 82.077 67.729 C 82.034 67.304, 80.914 66.462, 79.586 65.857 C 77.272 64.803, 77.195 64.456, 77.729 57.403 C 78.112 52.334, 77.904 49.589, 77.060 48.572 C 75.529 46.728, 76.610 43, 78.674 43 C 79.575 43, 79.993 42.425, 79.682 41.615 C 78.809 39.338, 81.944 35.752, 84.276 36.362 C 85.470 36.674, 87.334 36.096, 88.765 34.970 C 90.790 33.377, 91.585 33.249, 93.357 34.227 C 94.536 34.877, 96.291 35.289, 97.257 35.141 C 98.223 34.993, 99.284 35.576, 99.614 36.436 C 99.944 37.296, 101.264 38, 102.548 38 C 103.832 38, 105.153 38.438, 105.484 38.974 C 105.815 39.510, 106.197 45.468, 106.333 52.215 L 106.580 64.483 103.790 66.830 C 100.048 69.978, 100.271 72.358, 104.875 78.408 C 111.049 86.522, 111.435 87.670, 111.469 98 C 111.496 106.358, 111.707 107.484, 113.219 107.366 C 114.165 107.293, 115.198 108.049, 115.515 109.047 C 115.832 110.045, 117.387 111.146, 118.972 111.494 C 122.373 112.241, 125.096 115.917, 124.353 118.760 C 124.063 119.868, 124.315 121.077, 124.913 121.446 C 125.511 121.816, 126 123.615, 126 125.444 C 126 127.876, 125.337 129.204, 123.535 130.385 C 119.461 133.054, 118.659 132.502, 119.345 127.500 C 119.823 124.010, 119.646 123, 118.558 123 C 117.785 123, 115.881 121.929, 114.327 120.620 L 111.500 118.240 111.500 126.870 C 111.500 131.616, 111.122 137.418, 110.660 139.761 L 109.820 144.022 151.160 143.761 L 192.500 143.500 192.757 71.750 L 193.013 0 96.507 0 L 0 0 0 72 M 0.474 72.500 C 0.474 112.100, 0.598 128.154, 0.750 108.176 C 0.901 88.198, 0.901 55.798, 0.750 36.176 C 0.598 16.554, 0.474 32.900, 0.474 72.500 M 77.564 131.750 C 75.497 136.012, 72.872 140.512, 71.729 141.750 L 69.651 144 75.759 144 L 81.867 144 82.184 133.998 C 82.358 128.497, 82.235 123.997, 81.910 123.998 C 81.586 123.999, 79.630 127.487, 77.564 131.750" stroke="none" fill="black" fill-rule="evenodd"/>
</svg>