<svg xmlns="http://www.w3.org/2000/svg" width="192" height="144" viewBox="0 0 192 144" version="1.1">
	<path d="M 0 72 L 0 144 64 144 C 99.200 144, 128 143.836, 128 143.636 C 128 143.435, 126.151 138.373, 123.892 132.386 C 121.633 126.399, 119.704 121.050, 119.607 120.500 C 119.320 118.882, 109.898 96.685, 108.571 94.500 C 106.547 91.167, 103.883 83.804, 103.435 80.300 C 103.202 78.483, 101.794 73.734, 100.305 69.748 C 96.558 59.716, 96.796 50.206, 101 42 C 102.130 39.795, 107.875 40.300, 113.512 43.100 C 119.818 46.232, 133.772 60.006, 137.725 67 C 142.649 75.711, 146.704 90.827, 146.088 98.178 C 145.965 99.651, 147.174 103.926, 148.775 107.678 C 150.375 111.430, 153.876 121.148, 156.554 129.274 L 161.423 144.049 176.962 143.774 L 192.500 143.500 192.757 71.750 L 193.013 0 96.507 0 L 0 0 0 72 M 0.474 72.500 C 0.474 112.100, 0.598 128.154, 0.750 108.176 C 0.901 88.198, 0.901 55.798, 0.750 36.176 C 0.598 16.554, 0.474 32.900, 0.474 72.500" stroke="none" fill="black" fill-rule="evenodd"/>
</svg>