<svg xmlns="http://www.w3.org/2000/svg" width="192" height="144" viewBox="0 0 192 144" version="1.1">
	<path d="M 0 72 L 0 144 55.933 144 C 108.412 144, 111.900 143.892, 112.423 142.243 C 112.730 141.276, 115.010 136.924, 117.490 132.572 C 122.016 124.631, 122.742 122.215, 121.134 120.450 C 120.658 119.928, 118.925 117.025, 117.282 114 C 109.567 99.795, 102.727 89.452, 100.149 88.093 C 99.242 87.615, 95.800 86.676, 92.500 86.007 C 87.361 84.965, 85.819 84.089, 81.750 79.899 C 77.350 75.367, 77 74.633, 77 69.930 C 77 65.279, 77.332 64.555, 80.973 61.287 C 83.158 59.326, 84.706 57.334, 84.414 56.860 C 84.121 56.387, 84.753 56, 85.819 56 C 86.884 56, 88.315 55.325, 89 54.500 C 91.117 51.949, 98.343 52.576, 101.967 55.626 C 108.039 60.735, 111.237 71.898, 107.514 74.988 C 106.246 76.041, 106.868 77.051, 111.764 81.883 C 114.919 84.997, 119.461 89.924, 121.857 92.832 C 126.277 98.197, 128.559 99.310, 125.470 94.594 C 123.280 91.252, 124.113 87.999, 128.381 83.225 C 132.870 78.204, 133.996 75.827, 134.022 71.316 C 134.035 69.077, 134.853 66.467, 136 65 C 138.394 61.940, 138.462 60.634, 136.390 57.473 C 135.505 56.121, 135.060 54.287, 135.401 53.396 C 135.838 52.259, 135.593 51.942, 134.576 52.332 C 133.780 52.638, 132.966 52.398, 132.767 51.800 C 132.512 51.036, 131.241 51.095, 128.503 51.999 C 124.863 53.200, 124.500 53.139, 123.052 51.072 C 122.198 49.854, 120.263 47.368, 118.750 45.547 C 117.237 43.726, 116 41.788, 116 41.240 C 116 40.692, 114.988 39.557, 113.750 38.717 C 111.777 37.379, 111.658 36.928, 112.782 35.058 C 113.959 33.099, 113.778 32.805, 110.564 31.462 C 108.639 30.658, 106.600 30, 106.032 30 C 105.464 30, 104.195 29.195, 103.211 28.211 C 102.227 27.227, 99.416 25.377, 96.966 24.099 C 94.515 22.822, 90.989 20.442, 89.132 18.811 C 87.274 17.180, 84.572 15.334, 83.127 14.709 C 78.230 12.590, 69.018 4.922, 68.397 2.446 L 67.783 0 33.892 0 L 0 0 0 72 M 189.035 80.667 C 189.055 81.125, 189.737 82.625, 190.551 84 L 192.030 86.500 191.765 83.577 C 191.619 81.970, 190.938 80.470, 190.250 80.244 C 189.563 80.018, 189.016 80.208, 189.035 80.667 M 145.119 124.373 C 143.820 125.756, 141.316 127.571, 139.554 128.407 C 137.173 129.537, 135.454 131.734, 132.858 136.964 L 129.365 144 144.683 144 C 155.377 144, 160 143.660, 160 142.873 C 160 141.272, 152.201 127.345, 149.631 124.358 L 147.482 121.859 145.119 124.373" stroke="none" fill="black" fill-rule="evenodd"/>
</svg>