<svg xmlns="http://www.w3.org/2000/svg" width="192" height="144" viewBox="0 0 192 144" version="1.1">
	<path d="M 0 72 L 0 144 32.250 143.932 C 55.466 143.884, 63.800 143.575, 62 142.830 C 57.342 140.903, 56.502 140.307, 55.411 138.159 C 54.812 136.979, 53.576 135.188, 52.663 134.180 C 51.105 132.458, 51.156 132.202, 53.501 129.999 C 54.876 128.708, 56 126.853, 56 125.877 C 56 123.156, 61.719 119.387, 72.510 114.996 C 84.450 110.138, 89.469 107.243, 93.842 102.692 C 96.768 99.648, 97.039 98.941, 96.011 97.021 C 95.366 95.815, 95.101 94.566, 95.422 94.244 C 95.744 93.923, 95.402 92.724, 94.661 91.580 C 92.170 87.729, 91.812 80.214, 93.895 75.504 L 95.783 71.236 91.142 70.557 C 88.589 70.184, 85.600 69.952, 84.500 70.043 C 75.959 70.745, 68.928 69.965, 62.735 67.630 C 59.015 66.227, 55.746 65.091, 55.471 65.107 C 54.761 65.148, 44.464 63.186, 38.218 61.820 C 35.312 61.185, 33.287 60.316, 33.718 59.889 C 34.148 59.462, 39.358 58.620, 45.295 58.018 C 51.232 57.415, 58.207 56.491, 60.795 55.962 C 63.383 55.434, 67.897 54.523, 70.826 53.936 C 74.284 53.244, 77.675 53.195, 80.492 53.796 C 82.879 54.305, 85.295 54.436, 85.860 54.086 C 86.426 53.737, 86.874 51.212, 86.857 48.475 C 86.807 40.668, 88.376 31.601, 90.279 28.696 C 94.254 22.631, 103.541 21.355, 108.693 26.168 C 112.655 29.869, 114.063 33.558, 114.289 40.832 C 114.491 47.318, 114.374 47.694, 111.570 49.555 C 109.959 50.625, 108.480 51.998, 108.285 52.607 C 108.089 53.216, 111.100 56.309, 114.976 59.480 C 118.852 62.652, 122.288 66.298, 122.610 67.583 C 122.933 68.867, 122.453 71.865, 121.545 74.244 C 120.185 77.804, 120.090 79.359, 121.006 83.034 C 121.618 85.490, 122.284 88.400, 122.485 89.500 C 122.687 90.600, 124.451 100.500, 126.406 111.500 C 128.362 122.500, 130.504 134.319, 131.167 137.764 L 132.373 144.029 162.436 143.764 L 192.500 143.500 192.757 71.750 L 193.013 0 96.507 0 L 0 0 0 72 M 0.474 72.500 C 0.474 112.100, 0.598 128.154, 0.750 108.176 C 0.901 88.198, 0.901 55.798, 0.750 36.176 C 0.598 16.554, 0.474 32.900, 0.474 72.500 M 100.630 88.250 C 99.732 91.603, 99.877 95, 100.918 95 C 101.424 95, 102.839 93.379, 104.063 91.398 C 105.902 88.423, 106.046 87.643, 104.894 86.914 C 102.594 85.457, 101.267 85.873, 100.630 88.250 M 87.500 101 C 87.840 101.550, 88.316 102, 88.559 102 C 88.802 102, 89 101.550, 89 101 C 89 100.450, 88.523 100, 87.941 100 C 87.359 100, 87.160 100.450, 87.500 101" stroke="none" fill="black" fill-rule="evenodd"/>
</svg>