<svg xmlns="http://www.w3.org/2000/svg" width="192" height="144" viewBox="0 0 192 144" version="1.1">
	<path d="M 103.945 21.968 C 99.939 24.086, 98.473 26.664, 97.470 33.353 C 96.808 37.764, 96.914 38.043, 99.883 39.733 C 101.590 40.705, 102.990 42.209, 102.994 43.076 C 103.002 45.119, 107.143 49, 109.314 49 C 111.890 49, 111.370 50.233, 106.988 54.512 C 104.782 56.666, 103.145 58.895, 103.351 59.465 C 103.557 60.034, 103.060 61.816, 102.247 63.424 C 101.434 65.032, 100.792 68.015, 100.820 70.053 L 100.871 73.758 96.186 71.971 L 91.500 70.184 91.500 63.645 C 91.500 60.049, 91.011 56.615, 90.413 56.016 C 88.983 54.582, 84.451 56.267, 83.191 58.702 C 81.603 61.772, 80.795 79.135, 82.071 82.783 C 83.043 85.565, 82.879 86.976, 80.995 92.014 C 78.585 98.458, 78.837 101, 81.887 101 C 83.037 101, 84.725 102.436, 86 104.500 C 87.278 106.567, 88.963 108, 90.117 108 C 91.726 108, 91.891 107.665, 91.053 106.100 C 89.901 103.946, 91.326 103, 95.726 103 C 98.268 103, 98.284 102.949, 97.683 96.750 C 97.349 93.313, 96.773 88.362, 96.402 85.750 C 95.793 81.455, 95.918 81, 97.709 81 C 100.659 81, 102.654 83.975, 102.877 88.710 C 103.154 94.570, 98.656 113.891, 93.409 129.379 C 90.984 136.536, 89 142.754, 89 143.196 C 89 143.638, 102.059 144, 118.019 144 L 147.038 144 146.429 141.250 C 146.094 139.738, 143.202 133.100, 140.003 126.500 C 136.804 119.900, 133.002 111.294, 131.554 107.376 C 130.106 103.458, 127.467 97.833, 125.690 94.876 C 120.279 85.875, 118.564 77.346, 121.389 73.483 C 122.153 72.438, 122.546 70.980, 122.262 70.241 C 121.979 69.502, 122.769 67.810, 124.018 66.481 C 126.142 64.220, 126.217 63.705, 125.177 58.528 C 124.094 53.134, 124.400 50, 126.009 50 C 126.447 50, 127.284 48.624, 127.870 46.942 C 128.676 44.631, 128.595 42.858, 127.538 39.692 C 126.769 37.386, 125.825 33.771, 125.441 31.657 C 125 29.230, 123.373 26.374, 121.026 23.907 C 117.671 20.380, 116.832 20.004, 112.405 20.044 C 109.612 20.069, 105.969 20.898, 103.945 21.968" stroke="none" fill="black" fill-rule="evenodd"/>
</svg>