<svg xmlns="http://www.w3.org/2000/svg" width="192" height="144" viewBox="0 0 192 144" version="1.1">
	<path d="M 63.364 5.750 C 64.139 12.908, 62.071 23.127, 58.171 31.412 C 50.413 47.892, 32.067 59.374, 13.500 59.368 C 9.100 59.366, 4.263 59.049, 2.750 58.663 L 0 57.962 0 100.981 L 0 144 52.383 144 L 104.767 144 105.370 141.750 C 105.701 140.512, 105.979 138.524, 105.986 137.332 C 105.994 136.139, 107.610 130.064, 109.577 123.832 C 111.545 117.599, 114.191 106.737, 115.458 99.693 C 118.088 85.072, 117.650 80.323, 113.324 76.602 C 110.898 74.516, 110.780 74.069, 111.848 71.005 C 112.487 69.174, 112.838 67.505, 112.629 67.296 C 112.421 67.087, 110.329 67.685, 107.982 68.624 C 103.897 70.258, 103.657 70.252, 102.358 68.474 C 101.611 67.453, 101 67.019, 101 67.509 C 101 67.999, 100.460 67.860, 99.800 67.200 C 99.140 66.540, 97.002 65.999, 95.050 65.997 C 93.097 65.995, 86.775 65.074, 81 63.951 C 75.225 62.827, 69.733 62.106, 68.796 62.348 C 66.681 62.895, 63.466 60.673, 64.336 59.265 C 65.286 57.729, 71.701 56.770, 73.738 57.860 C 74.709 58.380, 80.156 59.271, 85.841 59.841 C 95.662 60.825, 100.027 60.311, 102 57.940 C 102.275 57.609, 106.052 57.375, 110.393 57.419 C 117.178 57.489, 118.324 57.254, 118.555 55.750 C 118.702 54.788, 118.285 54, 117.627 54 C 116.089 54, 113.126 48.887, 113.716 47.250 C 113.964 46.563, 113.526 46, 112.744 46 C 111.961 46, 110.783 44.820, 110.126 43.377 C 109.148 41.230, 109.216 40.319, 110.505 38.352 C 111.924 36.187, 111.927 35.734, 110.539 33.753 C 108.498 30.838, 108.574 28, 110.693 28 C 111.625 28, 116.059 29.145, 120.548 30.543 C 130.707 33.710, 133.693 36.517, 134.950 44.081 C 135.446 47.061, 136.599 51.268, 137.514 53.430 C 138.464 55.674, 138.992 58.891, 138.745 60.930 C 138.409 63.701, 138.820 64.977, 140.583 66.634 C 142.334 68.281, 142.781 69.650, 142.539 72.634 C 142.366 74.760, 142.789 77.625, 143.478 79 C 144.167 80.375, 145.005 86, 145.340 91.500 C 145.675 97, 146.122 103.413, 146.334 105.750 C 146.546 108.088, 146.306 110, 145.801 110 C 145.295 110, 145.160 110.450, 145.500 111 C 145.840 111.550, 145.641 112, 145.059 112 C 143.085 112, 143.987 115.272, 148.937 126.055 C 151.652 131.972, 154.179 138.439, 154.552 140.428 L 155.231 144.043 173.865 143.772 L 192.500 143.500 192.825 129 C 193.003 121.025, 192.837 88.737, 192.455 57.250 L 191.761 0 127.251 -0 L 62.742 -0 63.364 5.750 M 0.459 101 C 0.459 124.925, 0.589 134.713, 0.749 122.750 C 0.908 110.788, 0.908 91.213, 0.749 79.250 C 0.589 67.288, 0.459 77.075, 0.459 101" stroke="none" fill="black" fill-rule="evenodd"/>
</svg>