<svg xmlns="http://www.w3.org/2000/svg" width="192" height="144" viewBox="0 0 192 144" version="1.1">
	<path d="M -0 72.005 L -0 144.010 96.250 143.755 L 192.500 143.500 192.757 71.750 L 193.013 0 151.492 0 L 109.971 0 110.528 3.161 C 111.463 8.465, 108.333 16.133, 102.506 22.815 C 99.588 26.160, 96.963 29.483, 96.672 30.199 C 96.029 31.779, 91.964 27.336, 85.449 17.935 C 81.484 12.214, 80.875 10.641, 80.700 5.687 L 80.500 0.003 40.250 0.002 L 0 0 -0 72.005 M 0.474 72.500 C 0.474 112.100, 0.598 128.154, 0.750 108.176 C 0.901 88.198, 0.901 55.798, 0.750 36.176 C 0.598 16.554, 0.474 32.900, 0.474 72.500 M 94 40.145 C 94 41.828, 93.120 43.347, 91.547 44.377 C 90.042 45.363, 88.834 47.367, 88.423 49.558 C 87.925 52.214, 86.811 53.725, 84.084 55.447 C 79.244 58.502, 74 64.559, 74 67.094 C 74 68.207, 74.450 68.840, 75 68.500 C 75.550 68.160, 76 68.293, 76 68.795 C 76 69.875, 80.605 75, 81.575 75 C 81.943 75, 81.689 74.330, 81.010 73.512 C 80.010 72.307, 80.082 71.906, 81.390 71.404 C 83.797 70.480, 88 71.825, 88 73.519 C 88 74.334, 87.513 75, 86.917 75 C 86.321 75, 86.033 75.563, 86.278 76.250 C 86.522 76.938, 85.885 79.170, 84.861 81.210 C 83.838 83.251, 82.997 85.501, 82.994 86.210 C 82.990 86.920, 82.288 88.841, 81.434 90.480 C 80.431 92.403, 80.256 93.585, 80.940 93.813 C 81.523 94.008, 82.003 95.142, 82.006 96.333 C 82.010 97.525, 82.685 99.790, 83.507 101.366 C 84.927 104.089, 84.852 104.436, 82.001 108.313 C 78.140 113.563, 78.054 117.224, 81.750 118.936 C 91.264 123.345, 91.052 123.165, 90.818 126.633 C 90.543 130.713, 91.238 131.478, 93.914 130.046 C 96.172 128.838, 96.587 127.481, 95 126.500 C 94.450 126.160, 94 125.009, 94 123.941 C 94 122.522, 94.693 122, 96.578 122 C 98.949 122, 99.130 122.301, 98.828 125.750 C 98.544 128.996, 98.802 129.543, 100.749 129.819 C 102.843 130.117, 102.982 129.805, 102.749 125.319 C 102.514 120.775, 102.651 120.482, 105.152 120.193 C 108.971 119.751, 110.618 115.388, 109.095 109.750 C 103.571 89.302, 101.776 81.130, 104.059 86.824 C 105.361 90.073, 108.407 89.293, 108.830 85.604 C 109.090 83.331, 108.830 82.851, 107.595 83.325 C 105.592 84.094, 104 81.190, 104 76.766 C 104 74.915, 103.499 72.899, 102.887 72.287 C 101.130 70.530, 102.855 68.933, 106.325 69.104 C 108.071 69.190, 110.242 68.946, 111.149 68.562 C 112.056 68.178, 113.095 68.344, 113.458 68.932 C 113.821 69.519, 115.104 69.964, 116.309 69.921 C 118.238 69.852, 118.171 69.722, 115.750 68.838 C 114.237 68.285, 113 67.437, 113 66.952 C 113 65.587, 116.311 64.134, 120.604 63.614 C 122.747 63.355, 124.668 63.110, 124.872 63.071 C 125.077 63.032, 124.644 62.276, 123.910 61.392 C 122.777 60.027, 122.857 59.578, 124.436 58.423 C 125.922 57.337, 126.055 56.771, 125.097 55.617 C 123.369 53.535, 116.175 50.357, 111.373 49.555 C 108.727 49.113, 106.237 47.813, 104.436 45.933 C 102.890 44.320, 101.053 43, 100.353 43 C 99.654 43, 97.938 41.767, 96.540 40.260 L 94 37.520 94 40.145" stroke="none" fill="black" fill-rule="evenodd"/>
</svg>