<svg xmlns="http://www.w3.org/2000/svg" width="192" height="144" viewBox="0 0 192 144" version="1.1">
	<path d="M 118.299 2.898 C 113.054 6.698, 110.757 12.336, 110.521 21.983 L 110.339 29.466 105.583 33.233 C 102.967 35.305, 100.191 37, 99.414 37 C 97.808 37, 97.516 38.583, 98.956 39.473 C 99.482 39.798, 99.659 40.725, 99.349 41.532 C 98.978 42.501, 99.423 43, 100.661 43 C 101.692 43, 104.245 44.162, 106.335 45.581 C 108.424 47.001, 110.795 47.909, 111.605 47.598 C 112.461 47.270, 113.343 47.758, 113.715 48.767 C 114.066 49.720, 114.825 50.814, 115.401 51.197 C 116.062 51.638, 115.628 52.767, 114.224 54.262 C 111.597 57.058, 111.432 58, 113.567 58 C 114.680 58, 114.950 58.581, 114.500 60 C 114.136 61.147, 114.320 62, 114.933 62 C 115.520 62, 116 62.886, 116 63.969 C 116 65.363, 116.467 65.758, 117.601 65.323 C 118.481 64.985, 119.572 65.308, 120.025 66.040 C 120.606 66.981, 121.237 67.070, 122.174 66.345 C 123.831 65.063, 130.170 65.486, 133.144 67.077 L 135.380 68.274 133.248 70 C 132.075 70.950, 128.896 72.021, 126.183 72.381 C 120.478 73.138, 115.759 76.241, 107.018 84.982 L 101.081 90.919 92.900 83.408 C 88.401 79.277, 82.982 75.011, 80.860 73.928 C 78.737 72.845, 77 71.293, 77 70.480 C 77 67.032, 73.687 69.511, 68.608 76.760 C 63.170 84.519, 55.655 92.186, 44.455 101.399 L 38.500 106.297 45.829 105.700 C 52.022 105.196, 53.828 105.428, 57.473 107.199 C 59.846 108.352, 62.403 109.059, 63.155 108.771 C 63.907 108.482, 65.597 106.095, 66.910 103.466 L 69.297 98.687 71.235 101.349 C 73.332 104.226, 75 104.046, 75 100.941 C 75 97.395, 76.463 98.952, 80 106.264 C 83.340 113.170, 83.671 113.514, 87.246 113.810 C 90.394 114.071, 91.084 114.550, 91.565 116.810 C 92.810 122.651, 94.619 126.373, 97.120 128.240 C 99.685 130.155, 100.750 130.323, 108.147 129.973 C 110.153 129.878, 112.788 130.115, 114.003 130.501 C 116.079 131.160, 116.170 131.586, 115.526 137.601 L 114.841 144 141.997 144 L 169.154 144 172.077 141.077 C 174.920 138.233, 175 137.880, 175 128.088 C 175 120.009, 175.340 117.626, 176.722 116.011 C 177.669 114.905, 179.019 114, 179.722 114 C 181.446 114, 181.336 112.524, 179.500 111 C 175.113 107.359, 180.562 106.238, 186.939 109.469 L 192 112.034 191.985 104.767 C 191.975 100.261, 191.639 98.021, 191.100 98.872 C 190.459 99.884, 189.513 100.004, 187.489 99.330 C 185.345 98.615, 184.264 97.118, 182.530 92.458 C 177.886 79.978, 176.682 78.814, 163.951 74.483 C 156.270 71.871, 154 70.508, 154 68.509 C 154 67.711, 155.087 67.389, 157.017 67.614 C 159.131 67.860, 160.702 67.298, 162.260 65.740 C 163.817 64.183, 165.690 63.512, 168.493 63.507 C 172.245 63.500, 172.500 63.316, 172.500 60.605 C 172.500 58.692, 173.126 57.489, 174.347 57.058 C 176.014 56.469, 176.040 56.278, 174.614 55.095 C 173.745 54.374, 172.589 52.172, 172.046 50.203 C 171.208 47.170, 171.458 45.731, 173.677 40.784 L 176.298 34.946 174.149 32.658 C 169.854 28.087, 172.236 26.761, 179.892 29.462 C 182.171 30.266, 184.697 30.670, 185.507 30.359 C 187.459 29.610, 189.286 22.580, 188.482 18.916 C 187.934 16.424, 188.144 16, 189.921 16 C 191.808 16, 191.997 15.423, 191.968 9.750 C 191.915 -0.656, 194.349 0, 155.790 -0 L 122.300 -0 118.299 2.898" stroke="none" fill="black" fill-rule="evenodd"/>
</svg>