<svg xmlns="http://www.w3.org/2000/svg" width="192" height="144" viewBox="0 0 192 144" version="1.1">
	<path d="M 68.423 87.758 C 69.075 89.811, 68.816 90, 65.355 90 L 61.576 90 65.038 92.959 C 66.942 94.587, 69.266 95.937, 70.203 95.959 C 72.285 96.009, 76.966 97.951, 79 99.610 C 80.862 101.128, 101.742 107.517, 121 112.461 C 133.190 115.590, 148.890 119.937, 162.500 123.951 C 168.684 125.775, 172 126.169, 172 125.079 C 172 124.486, 172.938 124, 174.083 124 C 175.229 124, 175.999 123.498, 175.795 122.885 C 175.324 121.471, 169.413 119.171, 150 112.849 C 141.475 110.073, 125.500 104.508, 114.500 100.483 C 92.042 92.265, 83.963 89.738, 81.312 90.103 C 79.130 90.403, 71.055 88.074, 69.106 86.583 C 67.976 85.718, 67.847 85.942, 68.423 87.758" stroke="none" fill="black" fill-rule="evenodd"/>
</svg>