<svg xmlns="http://www.w3.org/2000/svg" width="192" height="144" viewBox="0 0 192 144" version="1.1">
	<path d="M 165.784 23.581 C 165.417 25.276, 163.800 28.073, 162.190 29.796 C 160.580 31.520, 159.534 33.201, 159.866 33.533 C 160.198 33.864, 160.957 36.580, 161.554 39.568 C 162.470 44.158, 162.412 45, 161.179 45 C 160.001 45, 159.834 46.105, 160.312 50.734 C 160.637 53.888, 161.405 56.635, 162.017 56.839 C 162.629 57.043, 163.565 58.355, 164.097 59.756 C 164.861 61.763, 164.671 62.746, 163.199 64.401 C 162.172 65.555, 160.132 68.606, 158.665 71.179 C 157.199 73.753, 155.407 76.453, 154.685 77.179 C 151.395 80.486, 151.046 82.408, 153.301 84.815 L 155.470 87.129 153.262 90.965 C 152.048 93.075, 150.564 96.758, 149.965 99.151 C 146.753 111.968, 146.753 111.974, 148.434 114.539 C 149.321 115.893, 150.583 117, 151.240 117 C 151.896 117, 154.390 117.747, 156.782 118.661 C 161.121 120.318, 161.131 120.333, 160.832 124.911 L 160.532 129.500 167.677 133.253 C 171.721 135.377, 175.512 136.741, 176.411 136.396 C 178.948 135.422, 178.262 134.272, 174.750 133.608 C 170.703 132.843, 164.020 128.858, 165.775 128.255 C 167.123 127.791, 173.884 129.814, 183 133.409 C 189.784 136.083, 192 135.777, 192 132.163 C 192 129.910, 191.170 129.078, 186.898 127.050 C 179.012 123.306, 177 121.362, 177 117.484 C 177 113.714, 174.168 111, 170.232 111 C 168.099 111, 167.962 110.693, 168.558 107.250 C 168.916 105.188, 169.856 101.514, 170.648 99.086 C 171.440 96.658, 171.853 94.060, 171.567 93.313 C 171.012 91.867, 174.283 88, 176.062 88 C 177.260 88, 177.190 72.182, 175.972 67.916 C 175.567 66.495, 175.648 64.594, 176.152 63.692 C 176.657 62.791, 177.204 59.566, 177.368 56.527 C 177.532 53.487, 178.005 50.663, 178.420 50.250 C 178.834 49.838, 181.947 49.500, 185.337 49.500 C 191.242 49.500, 191.513 49.390, 191.804 46.881 C 192.138 43.996, 190.269 43.039, 184.250 43.014 C 182.463 43.006, 181 42.539, 181 41.975 C 181 41.411, 182.604 37.765, 184.564 33.873 C 186.524 29.980, 187.903 26.570, 187.627 26.294 C 187.352 26.018, 185.310 29.406, 183.090 33.821 C 178.755 42.443, 177.999 43.321, 175.673 42.428 C 174.382 41.933, 174.352 41.392, 175.462 38.675 C 176.199 36.869, 176.433 34.638, 176.005 33.500 C 175.590 32.400, 175.661 30.712, 176.161 29.750 C 176.890 28.346, 176.649 28, 174.939 28 C 171.772 28, 167.135 24.913, 166.770 22.561 C 166.526 20.982, 166.295 21.221, 165.784 23.581 M 107 25.927 C 107 26.988, 105.839 28.768, 104.419 29.885 C 102.715 31.225, 102.031 32.524, 102.406 33.708 C 102.719 34.693, 102.342 36.718, 101.569 38.206 C 100.796 39.694, 100.417 41.878, 100.726 43.058 C 101.046 44.285, 100.735 45.546, 99.999 46.001 C 98.996 46.620, 99.202 47.591, 100.928 50.383 C 102.374 52.723, 102.911 54.705, 102.473 56.084 C 102.104 57.247, 101.690 59.167, 101.552 60.350 C 101.414 61.532, 100.260 67.411, 98.986 73.413 L 96.671 84.326 99.465 86.554 C 102.003 88.578, 102.199 89.185, 101.602 93.168 C 101.240 95.580, 100.306 98.783, 99.526 100.286 C 98.200 102.843, 98.282 103.182, 100.804 105.535 C 103.073 107.652, 103.263 108.199, 102 108.991 C 100.763 109.767, 101.113 110.452, 104 112.905 C 107.307 115.714, 107.951 115.870, 115.693 115.723 C 122.372 115.596, 123.682 115.322, 122.785 114.241 C 121.982 113.273, 121.997 112.603, 122.842 111.758 C 124.733 109.867, 124.180 109, 121.082 109 C 117.567 109, 115 108.111, 115 106.893 C 115 106.402, 115.589 106, 116.309 106 C 119.004 106, 121.270 103.425, 120.555 101.174 C 120.053 99.593, 119.065 99, 116.933 99 L 114 99 114 92.685 C 114 86.453, 114.046 86.349, 117.500 84.701 C 119.808 83.601, 121 82.339, 121 80.996 C 121 79.876, 118.955 74.888, 116.455 69.910 C 111.568 60.179, 111.441 58.068, 115.581 55.355 C 117.526 54.081, 118.306 54.009, 119.492 54.994 C 120.308 55.670, 121.600 55.984, 122.365 55.690 C 123.130 55.396, 124.250 55.650, 124.855 56.255 C 125.652 57.052, 126.507 56.851, 127.976 55.521 C 130.531 53.210, 130.582 51, 128.082 51 C 124.819 51, 122.886 49.829, 121.909 47.262 C 121.299 45.655, 120.451 44.997, 119.474 45.372 C 117.323 46.197, 113 43.972, 113 42.039 C 113 41.138, 113.555 39.845, 114.234 39.166 C 116.571 36.829, 115.948 32.324, 112.879 29.384 C 111.296 27.867, 110 26.035, 110 25.313 C 110 24.591, 109.325 24, 108.500 24 C 107.675 24, 107 24.867, 107 25.927 M 44 31.418 C 44 33.104, 42.939 34.493, 40.500 36 C 37.124 38.087, 35.928 40, 38 40 C 38.550 40, 39 41.155, 39 42.567 C 39 43.978, 40.111 46.590, 41.469 48.371 C 43.914 51.577, 43.919 51.625, 41.969 53.294 C 40.880 54.227, 40 56.232, 40 57.783 C 40 60.285, 39.437 60.765, 34.750 62.258 C 25.671 65.148, 25.504 65.153, 21.725 62.588 C 18.166 60.173, 18.036 60.161, 10.312 61.538 C 6.016 62.304, 2.388 62.946, 2.250 62.965 C 2.112 62.984, 2 63.924, 2 65.054 C 2 66.732, 5.424 68.754, 20.730 76.111 C 31.746 81.405, 40.232 84.911, 41.334 84.623 C 42.925 84.207, 43.110 84.537, 42.561 86.816 C 39.508 99.489, 39.556 99.712, 46 103 C 51.338 105.723, 52.551 107.495, 50.218 109.160 C 49.185 109.897, 47.589 111.658, 46.671 113.074 C 45.464 114.934, 42.916 116.302, 37.484 118.005 L 29.968 120.362 25.385 117.132 L 20.802 113.902 12.901 116.533 C 8.555 117.980, 5 119.504, 5 119.920 C 5 120.335, 11.289 125.924, 18.975 132.338 L 32.949 144 43.364 144 C 51.978 144, 54.170 143.683, 56.045 142.164 L 58.312 140.329 55.620 138.414 C 47.553 132.679, 47.643 132.779, 49.613 131.677 C 50.613 131.117, 52.797 130.382, 54.466 130.044 C 56.831 129.564, 57.570 128.830, 57.816 126.714 C 58.066 124.576, 58.659 124, 60.616 124 C 63.849 124, 68.585 121.524, 69.396 119.410 C 70.098 117.580, 68.472 116.025, 63.162 113.444 C 61.071 112.428, 59.272 110.502, 58.347 108.287 C 57.534 106.343, 55.551 103.345, 53.939 101.626 C 52.328 99.907, 51.007 98.007, 51.005 97.405 C 50.996 95.389, 54.454 93.265, 59.768 92.023 C 62.665 91.346, 66.026 89.990, 67.237 89.010 L 69.438 87.227 65.775 83.173 C 63.761 80.944, 61.344 77.630, 60.403 75.810 C 59.462 73.989, 58.082 72.050, 57.335 71.500 C 56.473 70.865, 55.855 67.869, 55.643 63.288 C 55.459 59.322, 54.734 55.384, 54.032 54.538 C 53.008 53.305, 53.003 52.701, 54.007 51.492 C 54.841 50.486, 55.018 48.734, 54.536 46.242 C 54.138 44.184, 53.742 41.496, 53.656 40.269 C 53.570 39.042, 52.487 37.329, 51.250 36.462 C 50.013 35.596, 49 34.307, 49 33.598 C 49 32.292, 45.901 29, 44.671 29 C 44.302 29, 44 30.088, 44 31.418 M 35.654 66.420 L 32.809 67.678 35.885 68.952 C 37.577 69.653, 40.105 69.940, 41.503 69.589 C 43.672 69.044, 43.889 68.662, 42.987 66.975 C 41.792 64.742, 39.792 64.591, 35.654 66.420 M 106.585 89.835 C 105.713 91.521, 105 94.273, 105 95.950 C 105 98.537, 105.380 99, 107.500 99 C 110.168 99, 110.290 98.683, 110.017 92.500 C 109.780 87.115, 108.504 86.125, 106.585 89.835 M 159.027 91.715 C 151.918 104.060, 150.611 109.070, 153.526 112.795 C 154.215 113.675, 163.194 110.497, 163.899 109.123 C 165.319 106.359, 167.329 90.924, 166.383 90.045 C 165.897 89.594, 164.534 88.934, 163.353 88.578 C 161.611 88.053, 160.795 88.644, 159.027 91.715 M 126.918 116.051 C 125.919 116.668, 125.825 117.225, 126.591 117.991 C 127.710 119.110, 131 118.370, 131 117 C 131 115.716, 128.427 115.118, 126.918 116.051 M 35 121.033 C 33.733 121.880, 33.936 122.421, 36.306 124.518 C 39.693 127.515, 40.188 127.555, 42.483 125.019 C 43.950 123.397, 44.047 122.762, 43.016 121.519 C 41.586 119.796, 37.244 119.533, 35 121.033" stroke="none" fill="black" fill-rule="evenodd"/>
</svg>