<svg xmlns="http://www.w3.org/2000/svg" width="192" height="144" viewBox="0 0 192 144" version="1.1">
	<path d="M 0 72 L 0 144 35.810 144 L 71.619 144 75.215 131.250 C 77.192 124.238, 78.965 117.846, 79.155 117.047 C 79.361 116.177, 78.742 115.575, 77.612 115.547 C 74.810 115.477, 73.355 112.639, 74.674 109.815 C 76.698 105.486, 82.231 86.533, 84.109 77.500 C 86.582 65.599, 86.564 61.372, 84.034 60.018 C 81.974 58.916, 79.497 51.753, 80.380 49.452 C 80.767 48.444, 83.159 48.174, 90.087 48.355 C 95.144 48.488, 101.469 48.148, 104.142 47.600 C 110.520 46.294, 111.541 47.260, 109.980 53.123 C 109.339 55.530, 108.182 58.209, 107.410 59.076 C 105.107 61.660, 104.463 72.061, 106.377 75.762 C 107.270 77.488, 108 80.268, 108 81.938 C 108 83.609, 109.449 89.369, 111.220 94.738 C 112.991 100.107, 114.460 105.031, 114.483 105.679 C 114.506 106.328, 114.857 107.191, 115.263 107.596 C 117.456 109.789, 115.069 115.348, 112.378 114.315 C 110.626 113.643, 110.620 113.582, 113.022 120.565 C 114.135 123.798, 115.974 130.399, 117.109 135.234 L 119.172 144.024 155.836 143.762 L 192.500 143.500 192.757 71.750 L 193.013 0 96.507 0 L 0 0 0 72 M 0.474 72.500 C 0.474 112.100, 0.598 128.154, 0.750 108.176 C 0.901 88.198, 0.901 55.798, 0.750 36.176 C 0.598 16.554, 0.474 32.900, 0.474 72.500" stroke="none" fill="black" fill-rule="evenodd"/>
</svg>