<svg xmlns="http://www.w3.org/2000/svg" width="192" height="144" viewBox="0 0 192 144" version="1.1">
	<path d="M -0 31.904 L -0 63.808 4.860 61.961 C 12.795 58.946, 29.083 57.649, 43.027 58.922 C 49.645 59.526, 55.560 60.128, 56.174 60.260 C 56.787 60.392, 57.684 59.048, 58.167 57.273 C 58.650 55.498, 59.935 53.570, 61.023 52.988 C 62.110 52.406, 63 51.107, 63 50.101 C 63 48.642, 62.261 48.295, 59.354 48.386 C 57.324 48.449, 55.521 47.968, 55.287 47.300 C 55.056 46.640, 56.697 44.115, 58.933 41.688 C 62.908 37.376, 63 37.112, 63 30.039 C 63 23.167, 63.164 22.649, 66.250 19.752 C 70.697 15.578, 82.611 10, 87.078 10 C 89.713 10, 92.012 10.993, 95.439 13.609 L 100.165 17.217 106.166 15.534 C 116.162 12.729, 117.799 15.165, 110.461 21.929 L 105.922 26.113 108.865 29.830 C 112.298 34.164, 112.157 37.565, 108.399 41.095 C 105.661 43.667, 105.391 45.250, 107.406 46.922 C 108.594 47.908, 108.363 48.977, 105.919 53.795 C 104.327 56.933, 103.020 60.497, 103.013 61.715 C 103.006 62.934, 101.662 65.454, 100.027 67.316 L 97.054 70.702 99.277 72.776 C 102.018 75.333, 111.467 79.142, 113.313 78.433 C 115.182 77.716, 129.175 84.961, 129.697 86.916 C 130.193 88.775, 146.018 99, 148.399 99 C 151.917 99, 158.357 104.378, 159.608 108.361 C 159.977 109.538, 163.748 114.170, 167.987 118.655 C 174.827 125.892, 184.061 138.389, 185.673 142.591 C 186.061 143.601, 187.298 144.006, 189.378 143.804 L 192.500 143.500 192.713 71.750 L 192.926 0 96.463 0 L 0 0 -0 31.904 M 0.446 32.500 C 0.447 50.100, 0.583 57.159, 0.749 48.187 C 0.914 39.215, 0.914 24.815, 0.748 16.187 C 0.581 7.559, 0.446 14.900, 0.446 32.500 M 13.500 68.949 C 11.300 69.424, 7.588 70.579, 5.250 71.515 L 1 73.217 1 108.609 L 1 144 36.789 144 L 72.577 144 75.694 138.750 C 77.409 135.863, 79.109 132.489, 79.472 131.253 C 80.469 127.863, 78.042 105.981, 76.294 102.601 C 75.285 100.650, 74.934 98.086, 75.262 95.071 C 75.810 90.043, 75.322 87.683, 73.915 88.553 C 73.397 88.872, 73 86.276, 73 82.578 C 73 76.274, 72.901 76.014, 70.250 75.361 C 68.737 74.988, 66.588 74.094, 65.474 73.373 C 61.408 70.744, 49.407 68.916, 33.500 68.501 C 24.700 68.272, 15.700 68.474, 13.500 68.949 M 126.083 99.845 C 125.291 101.325, 125.502 102.144, 127.032 103.529 C 129.536 105.795, 129.503 106.443, 126.750 109.067 L 124.500 111.212 131.262 110.808 C 135.963 110.527, 138.555 109.870, 139.762 108.654 C 141.413 106.992, 141.388 106.819, 139.251 105.202 C 138.015 104.266, 134.775 102.249, 132.052 100.721 C 127.295 98.050, 127.062 98.016, 126.083 99.845 M 151.133 119.359 C 149.914 120.656, 148.457 123.381, 147.896 125.414 C 147.335 127.447, 146.172 129.380, 145.313 129.710 C 144.454 130.040, 140.770 129.304, 137.126 128.075 C 133.481 126.845, 126.029 125.410, 120.563 124.884 C 111.335 123.997, 110.488 124.068, 108.679 125.877 C 106.866 127.689, 106.811 128.366, 107.887 135.601 C 108.524 139.878, 109.190 143.523, 109.369 143.702 C 109.547 143.881, 124.884 143.908, 143.450 143.763 L 177.207 143.500 172.437 137 C 167.630 130.450, 155.238 117, 154.010 117 C 153.646 117, 152.351 118.061, 151.133 119.359" stroke="none" fill="black" fill-rule="evenodd"/>
</svg>