<svg xmlns="http://www.w3.org/2000/svg" width="192" height="144" viewBox="0 0 192 144" version="1.1">
	<path d="M 0 72 L 0 144 37.979 144 L 75.957 144 74.899 141.677 C 74.072 139.864, 74.427 137.201, 76.519 129.523 C 77.992 124.116, 79.765 118.073, 80.459 116.096 C 81.272 113.777, 81.475 110.611, 81.030 107.180 C 80.493 103.038, 80.865 100.050, 82.709 93.684 C 85.547 83.884, 87.345 73.066, 87.100 67.258 C 87.001 64.925, 87.405 62.113, 87.996 61.008 C 88.754 59.591, 88.757 59, 88.004 59 C 87.417 59, 86.678 59.675, 86.362 60.500 C 85.494 62.760, 82 62.390, 82 60.039 C 82 58.564, 83.055 57.814, 86.250 57.016 C 88.588 56.432, 91.281 55.514, 92.236 54.977 C 94.501 53.703, 99 53.718, 99 55 C 99 55.550, 100.096 56, 101.435 56 C 105.656 56, 109 57.787, 109 60.043 C 109 61.729, 108.583 62.002, 106.848 61.452 C 104.788 60.798, 104.726 60.976, 105.400 65.634 C 105.786 68.311, 106.509 74.100, 107.006 78.500 C 107.503 82.900, 109.022 90.038, 110.381 94.363 C 112.548 101.257, 112.733 102.966, 111.885 108.232 C 111.133 112.900, 111.248 115.268, 112.398 118.869 C 116.587 131.971, 118.168 139.818, 117.043 141.920 L 115.917 144.024 154.208 143.762 L 192.500 143.500 192.757 71.750 L 193.013 0 96.507 0 L 0 0 0 72 M 0.474 72.500 C 0.474 112.100, 0.598 128.154, 0.750 108.176 C 0.901 88.198, 0.901 55.798, 0.750 36.176 C 0.598 16.554, 0.474 32.900, 0.474 72.500" stroke="none" fill="black" fill-rule="evenodd"/>
</svg>