<svg xmlns="http://www.w3.org/2000/svg" width="192" height="144" viewBox="0 0 192 144" version="1.1">
	<path d="M 0 72 L 0 144 11.476 144 L 22.952 144 28.560 136.550 C 32.739 130.997, 34 128.577, 33.514 127.044 C 32.769 124.696, 34.707 114.128, 36.226 112.255 C 36.782 111.571, 36.987 110.059, 36.683 108.895 C 36.286 107.376, 36.663 106.639, 38.022 106.284 C 39.980 105.772, 42.458 100.029, 42.225 96.546 C 42.060 94.091, 43.714 92.059, 46.848 90.868 C 48.184 90.360, 49.073 89.739, 48.823 89.489 C 48.573 89.239, 46.991 89.554, 45.309 90.190 C 42.671 91.185, 41.726 91.036, 38.458 89.108 L 34.666 86.871 31.874 88.935 C 28.093 91.731, 27.490 91.531, 29.801 88.250 C 32.202 84.841, 36.530 72.387, 38.380 63.565 C 39.664 57.440, 39.641 56.979, 38.086 57.473 C 37.160 57.767, 34.381 56.725, 31.910 55.158 C 27.585 52.415, 27.433 52.152, 27.819 48.097 C 28.165 44.472, 28.519 43.925, 30.363 44.167 C 31.542 44.321, 33.871 43.882, 35.540 43.190 C 38.413 42.001, 38.583 41.612, 38.741 35.907 C 38.913 29.730, 42.274 20.567, 45.797 16.671 C 48.422 13.768, 54.405 11.070, 60.047 10.247 C 64.641 9.576, 65.516 9.018, 68.676 4.750 L 72.192 0 36.096 0 L 0 0 0 72 M 77.167 4.961 C 79.745 9.108, 81.073 10.196, 85.262 11.587 C 91.561 13.679, 97.414 18.911, 100.691 25.377 C 102.670 29.282, 103.265 32.058, 103.398 38.009 C 103.539 44.284, 103.975 46.153, 105.859 48.548 L 108.150 51.460 105.939 53.251 C 103.910 54.894, 103.785 55.595, 104.416 61.770 C 104.794 65.472, 105.765 69.513, 106.575 70.750 C 107.384 71.987, 107.665 73, 107.200 73 C 106.411 73, 107.974 84.392, 109.533 90 L 110.228 92.500 108.446 90 C 107.465 88.625, 106.563 87.361, 106.440 87.191 C 106.317 87.022, 104.500 87.600, 102.403 88.476 C 100.062 89.454, 97.415 89.826, 95.545 89.440 C 93.540 89.026, 94.719 89.953, 99 92.156 C 105.341 95.418, 105.504 95.601, 105.643 99.616 C 105.722 101.880, 106.284 104.663, 106.893 105.800 C 107.502 106.938, 108 109.065, 108 110.528 C 108 112.346, 108.632 113.353, 110 113.710 C 112.339 114.322, 112.288 114.113, 110.959 117.609 C 110.386 119.115, 110.196 121.616, 110.537 123.167 C 111.073 125.609, 111.420 125.845, 113.127 124.932 C 114.524 124.184, 116.096 124.207, 118.529 125.010 C 120.417 125.633, 122.410 125.865, 122.958 125.526 C 123.855 124.972, 132.647 126.525, 142 128.891 C 145.302 129.726, 153.766 133.514, 158.757 136.391 C 159.998 137.106, 162.574 139.111, 164.480 140.846 L 167.947 144 179.973 144 L 192 144 192 72 L 192 0 133.041 -0 L 74.083 -0 77.167 4.961 M 129.014 50.250 C 129.040 52.699, 130.248 56, 131.117 56 C 131.602 56, 132 54.425, 132 52.500 C 132 50.056, 131.548 49, 130.500 49 C 129.675 49, 129.006 49.563, 129.014 50.250 M 11 109 C 11 109.550, 11.675 110, 12.500 110 C 13.325 110, 14 109.550, 14 109 C 14 108.450, 13.325 108, 12.500 108 C 11.675 108, 11 108.450, 11 109" stroke="none" fill="black" fill-rule="evenodd"/>
</svg>