<svg xmlns="http://www.w3.org/2000/svg" width="192" height="144" viewBox="0 0 192 144" version="1.1">
	<path d="M 0 72 L 0 144 34.841 144 L 69.682 144 70.958 138.250 C 71.660 135.088, 73.884 127.775, 75.900 122 L 79.566 111.500 77.587 107.512 C 76.498 105.318, 75.341 101.943, 75.015 100.012 C 74.546 97.234, 74.017 96.572, 72.487 96.845 C 69.333 97.408, 50.692 90.774, 48.791 88.412 C 47.559 86.882, 45.521 86.127, 41.500 85.712 C 35.980 85.142, 29.799 82.435, 29.602 80.501 C 29.496 79.459, 29.806 79.401, 36.780 79.152 L 41.060 79 38.800 75.750 C 37.557 73.963, 35.505 71.336, 34.239 69.913 C 31.841 67.217, 32.041 64, 34.607 64 C 35.373 64, 36 63.100, 36 62 C 36 60.900, 35.550 60, 35 60 C 34.450 60, 34 58.383, 34 56.406 C 34 53.754, 34.483 52.686, 35.846 52.330 C 37.006 52.027, 38.214 50.110, 39.096 47.174 C 40.977 40.912, 42.587 42.077, 42.140 49.377 C 41.759 55.594, 43.231 56.597, 44.370 50.898 C 44.894 48.282, 45.244 47.958, 46.458 48.965 C 47.261 49.631, 48.281 52.014, 48.725 54.260 C 49.583 58.599, 51.574 60.319, 52.253 57.308 C 52.478 56.313, 52.451 57.750, 52.195 60.500 C 51.938 63.250, 51.114 66.715, 50.364 68.200 C 49.614 69.686, 49 72.010, 49 73.367 C 49 75.135, 48.166 76.201, 46.052 77.137 L 43.104 78.442 45.802 79.584 C 47.286 80.212, 49.894 80.514, 51.597 80.257 C 53.708 79.937, 56.251 80.617, 59.589 82.394 C 65.644 85.617, 68 85.743, 68 82.842 C 68 81.655, 69.783 76.812, 71.963 72.080 C 75.121 65.226, 76.137 61.546, 76.963 53.988 C 78.384 40.987, 79.751 35.402, 83.019 29.250 L 85.808 24 83.526 24 C 79.097 24, 78.583 21.678, 81.551 15.066 C 84.696 8.059, 86.505 6.105, 88.242 7.842 C 88.879 8.479, 90.294 9, 91.386 9 C 92.478 9, 95.561 10.847, 98.238 13.103 C 102.565 16.752, 103.514 17.140, 106.802 16.603 C 115.580 15.171, 120 14.795, 120 15.478 C 120 15.882, 119.285 18.969, 118.412 22.340 C 117.178 27.103, 117.063 29.266, 117.896 32.047 C 119.070 35.965, 118.220 40.421, 115.579 44.191 C 114.711 45.431, 114 46.110, 114 45.699 C 114 45.289, 112.910 45.668, 111.577 46.542 C 108.392 48.628, 106.966 55.771, 109.382 57.537 C 110.272 58.188, 111 59.155, 111 59.686 C 111 60.217, 112.134 61.716, 113.519 63.018 C 114.905 64.320, 117.475 67.624, 119.231 70.361 C 122.119 74.860, 122.398 75.974, 122.153 81.996 C 121.966 86.556, 122.294 88.995, 123.190 89.730 C 123.911 90.320, 128.100 91.342, 132.500 92 C 136.900 92.658, 141.112 93.699, 141.861 94.313 C 142.649 94.959, 146.066 95.313, 149.978 95.153 C 155.163 94.942, 157.114 95.257, 158.367 96.510 C 159.265 97.408, 160 98.547, 160 99.040 C 160 99.533, 160.653 99.686, 161.452 99.380 C 162.251 99.074, 163.434 99.150, 164.081 99.550 C 166.504 101.048, 161.414 102.362, 152.265 102.601 C 147.166 102.734, 141.742 103.117, 140.213 103.453 C 138.674 103.791, 135.530 103.393, 133.171 102.560 C 130.828 101.734, 126.665 100.759, 123.920 100.395 C 119.235 99.774, 114 96.922, 114 94.993 C 114 94.518, 113.493 92.863, 112.874 91.315 L 111.748 88.500 110.900 91.476 C 110.414 93.181, 110.437 94.837, 110.953 95.353 C 111.460 95.860, 111.488 97.218, 111.015 98.460 C 110.554 99.674, 110.557 101.283, 111.022 102.036 C 111.488 102.790, 111.616 104.671, 111.307 106.217 C 110.908 108.212, 112.220 112.731, 115.819 121.764 C 118.611 128.769, 121.463 136.643, 122.158 139.263 L 123.422 144.025 157.961 143.763 L 192.500 143.500 192.757 71.750 L 193.013 0 96.507 0 L 0 0 0 72 M 0.474 72.500 C 0.474 112.100, 0.598 128.154, 0.750 108.176 C 0.901 88.198, 0.901 55.798, 0.750 36.176 C 0.598 16.554, 0.474 32.900, 0.474 72.500 M 148.571 82.571 C 146.586 84.557, 146.553 86.891, 148.500 87.638 C 149.325 87.955, 150 89.066, 150 90.107 C 150 92.553, 151.486 92.502, 155.096 89.932 C 158.606 87.432, 158.698 86.194, 155.592 83.250 C 152.800 80.603, 150.739 80.404, 148.571 82.571" stroke="none" fill="black" fill-rule="evenodd"/>
</svg>