<svg xmlns="http://www.w3.org/2000/svg" width="192" height="144" viewBox="0 0 192 144" version="1.1">
	<path d="M 62.039 3.136 C 62.892 6.111, 64 8.106, 64 6.667 C 64 6.300, 64.900 6.900, 66 8 C 67.100 9.100, 68 10.450, 68 11 C 68 12.989, 69.870 11.945, 70.238 9.750 C 70.530 8.006, 70.922 8.512, 71.980 12 C 72.913 15.079, 73.480 15.901, 73.773 14.605 C 74.117 13.086, 74.378 12.986, 75.086 14.105 C 75.718 15.103, 75.974 15.144, 75.985 14.250 C 75.993 13.563, 76.450 13, 77 13 C 77.550 13, 78.010 14.912, 78.022 17.250 L 78.044 21.500 79.865 19.133 L 81.686 16.765 81.593 21.050 C 81.502 25.229, 81.390 25.368, 77 26.735 C 69.230 29.154, 64.651 31.276, 59.928 34.646 L 55.356 37.909 52.360 32.704 L 49.364 27.500 43.432 28 C 40.169 28.275, 32.325 28.500, 26 28.500 C 15.100 28.500, 14.142 28.330, 7.638 25.250 C 3.863 23.462, 0.601 22, 0.388 22 C -0.742 22, 0.223 28.940, 1.500 30 C 3.431 31.603, 3.431 34.621, 1.500 35.362 C 0.234 35.847, -0 39.141, -0 56.469 L 0 77 4.250 76.995 L 8.500 76.989 12.374 63.561 C 16.546 49.097, 16.611 46.582, 12.991 39.482 C 11.896 37.335, 11 35.466, 11 35.331 C 11 34.684, 32.936 35.598, 33.608 36.273 C 34.032 36.698, 33.342 37.773, 32.074 38.661 C 30.805 39.549, 28.676 42.745, 27.342 45.762 L 24.915 51.248 27.061 62.374 C 28.241 68.493, 29.603 73.988, 30.088 74.584 C 30.573 75.181, 33.110 75.520, 35.734 75.339 C 50.231 74.340, 105.110 73, 131.532 73 L 162.050 73 162.883 70.750 C 163.341 69.513, 164.698 62.978, 165.898 56.229 C 167.098 49.479, 168.484 42.954, 168.977 41.729 L 169.873 39.500 169.937 41.885 L 170 44.270 171.902 41.852 C 172.948 40.522, 173.961 38.324, 174.152 36.967 C 174.446 34.885, 175.120 34.449, 178.472 34.176 C 182.250 33.869, 182.364 33.941, 180.819 35.676 C 179.926 36.679, 178.510 39.828, 177.674 42.674 C 176.204 47.675, 176.248 48.175, 179.004 57.674 C 183.552 73.352, 183.347 73, 187.902 73 C 190.824 73, 191.972 73.456, 192.311 74.750 C 192.562 75.712, 192.820 67.218, 192.884 55.872 C 192.981 38.657, 192.752 35.039, 191.500 34 C 190.675 33.315, 190 31.896, 190 30.846 C 190 29.796, 190.675 28.678, 191.500 28.362 C 192.985 27.792, 193.653 21.986, 192.380 20.713 C 192.038 20.372, 189.068 21.451, 185.778 23.112 C 182.489 24.772, 179.603 25.937, 179.366 25.699 C 178.540 24.874, 180.285 16.858, 181.570 15.573 C 182.518 14.624, 182.681 12.449, 182.181 7.390 L 181.500 0.500 167.750 0.222 L 154 -0.056 154.015 7.222 C 154.023 11.225, 154.708 17.378, 155.537 20.895 C 156.366 24.412, 156.892 27.441, 156.706 27.627 C 156.520 27.813, 153.579 27.474, 150.169 26.873 C 142.809 25.577, 142.514 25.746, 137.371 34.212 L 133.751 40.172 129.625 36.191 C 125.152 31.874, 119.977 28.963, 113.146 26.922 C 108.367 25.494, 107.283 24.066, 108.886 21.311 C 109.842 19.667, 109.942 19.714, 109.970 21.823 C 110.017 25.444, 112.880 24.117, 115.465 19.277 C 117.991 14.547, 119 14.688, 119 19.774 C 119 22.354, 119.359 23.076, 120.437 22.662 C 121.272 22.342, 122.062 22.821, 122.321 23.805 C 122.567 24.737, 122.834 24.150, 122.914 22.500 C 123.044 19.840, 123.184 19.712, 124.146 21.367 C 125.141 23.080, 125.358 22.970, 126.783 20.029 C 127.637 18.265, 129.391 16.422, 130.680 15.932 C 131.970 15.441, 133.541 13.906, 134.173 12.520 C 135.625 9.332, 136.141 9.361, 138.242 12.750 L 139.947 15.500 139.973 9.250 L 140 3 144.750 2.968 C 149.144 2.939, 149.355 2.826, 147.559 1.468 C 145.923 0.231, 138.970 0, 103.379 0 L 61.140 0 62.039 3.136 M 106.079 17.583 C 106.127 18.748, 106.364 18.985, 106.683 18.188 C 106.972 17.466, 106.936 16.603, 106.604 16.271 C 106.272 15.939, 106.036 16.529, 106.079 17.583 M 0.252 25.500 C 0.263 27.700, 0.468 28.482, 0.707 27.238 C 0.946 25.994, 0.937 24.194, 0.687 23.238 C 0.437 22.282, 0.241 23.300, 0.252 25.500 M 0.423 56.500 C 0.424 68.050, 0.570 72.638, 0.747 66.696 C 0.924 60.753, 0.923 51.303, 0.745 45.696 C 0.567 40.088, 0.422 44.950, 0.423 56.500 M 144.263 39.942 C 141.160 43.558, 141.101 43.782, 142.842 45.357 C 143.840 46.261, 145.072 46.995, 145.579 46.990 C 146.914 46.975, 149.997 39.156, 149.341 37.447 C 148.549 35.383, 147.902 35.701, 144.263 39.942 M 41.685 38.378 C 41.394 39.136, 41.559 40.159, 42.052 40.652 C 42.545 41.145, 43.522 43.200, 44.224 45.219 L 45.500 48.890 47.924 47.059 L 50.349 45.228 47.090 41.114 C 43.617 36.729, 42.529 36.178, 41.685 38.378 M 76.500 88.051 C 63.300 88.424, 48.060 88.790, 42.633 88.864 L 32.767 89 33.275 91.658 C 33.555 93.121, 32.999 96.608, 32.040 99.408 C 31.081 102.209, 29.469 108.608, 28.458 113.629 L 26.620 122.758 21.060 125.334 C 18.002 126.751, 12.013 129.997, 7.750 132.548 C 0.508 136.883, 0 137.410, 0 140.593 L 0 144 18.750 143.969 L 37.500 143.938 40.650 139.719 C 43.851 135.433, 46.821 128.907, 51.104 116.750 C 52.412 113.037, 53.824 110, 54.241 110 C 54.658 110, 55 117.650, 55 127 L 55 144 96.018 144 L 137.036 144 136.418 133.250 C 136.078 127.338, 136.208 121.446, 136.706 120.158 C 137.517 118.062, 137.910 118.587, 140.455 125.158 C 142.018 129.196, 144.359 134.346, 145.657 136.603 C 150.081 144.293, 149.275 144.075, 172.102 143.771 L 192.500 143.500 192.778 139.500 C 192.931 137.300, 192.701 136.028, 192.267 136.672 C 191.707 137.504, 189.215 136.568, 183.700 133.456 C 179.422 131.043, 172.822 127.631, 169.033 125.876 L 162.144 122.684 161.450 117.592 C 160.567 111.109, 157.566 99.589, 154.915 92.502 L 152.856 87 126.678 87.186 C 112.280 87.289, 89.700 87.678, 76.500 88.051 M 156 88.878 C 156 89.910, 156.675 91.315, 157.500 92 C 158.325 92.685, 159.006 92.852, 159.014 92.372 C 159.021 91.893, 159.299 90.487, 159.630 89.250 C 160.117 87.435, 159.824 87, 158.117 87 C 156.713 87, 156 87.632, 156 88.878 M 0.252 140.500 C 0.263 142.700, 0.468 143.482, 0.707 142.238 C 0.946 140.994, 0.937 139.194, 0.687 138.238 C 0.437 137.282, 0.241 138.300, 0.252 140.500" stroke="none" fill="black" fill-rule="evenodd"/>
</svg>