<svg xmlns="http://www.w3.org/2000/svg" width="192" height="144" viewBox="0 0 192 144" version="1.1">
	<path d="M 43 30.012 C 43 30.635, 41.438 30.774, 38.933 30.373 C 35.750 29.864, 34.283 30.152, 32.183 31.697 C 30.707 32.783, 28.263 33.979, 26.750 34.355 C 23.660 35.123, 23.297 36.172, 25.490 37.992 C 26.451 38.789, 26.762 40.101, 26.365 41.682 C 25.909 43.499, 26.300 44.522, 27.875 45.625 C 30.651 47.570, 30.688 52.855, 27.949 56.338 C 26.821 57.772, 25.469 61.605, 24.946 64.855 C 24.422 68.106, 23.286 72.730, 22.421 75.133 C 20.451 80.605, 19.693 84.457, 19.640 89.263 C 19.593 93.554, 21.950 96.617, 24.535 95.625 C 25.965 95.076, 26.020 94.730, 24.894 93.373 C 23.746 91.990, 23.824 91.820, 25.461 92.135 C 27.252 92.480, 27.337 93.426, 26.969 109 C 26.223 140.577, 26.212 140.374, 28.750 141.487 C 29.987 142.030, 31 142.818, 31 143.237 C 31 143.657, 32.752 144, 34.893 144 C 39.263 144, 40.485 142.405, 39.036 138.594 C 37.925 135.672, 38.510 135, 42.167 135 C 44.858 135, 45 135.225, 45 139.500 C 45 143.976, 45.019 144, 48.500 144 C 50.721 144, 52 143.521, 52 142.688 C 52 141.966, 53.391 140.348, 55.091 139.091 C 57.437 137.356, 58.037 136.286, 57.578 134.653 C 56.337 130.234, 52.017 103.960, 50.004 88.584 C 47.765 71.484, 47.965 70.276, 52.732 72.088 C 57.727 73.987, 60.822 69.671, 57.276 65.752 C 55.654 63.960, 55.652 63.672, 57.240 60.904 L 58.929 57.961 54.715 54.877 C 52.397 53.180, 49.938 51.566, 49.250 51.289 C 47.343 50.522, 47.744 48.755, 50.500 45.783 C 53.286 42.779, 53.724 40.215, 51.590 39.396 C 50.815 39.099, 49.925 37.836, 49.612 36.590 C 48.541 32.324, 43 26.811, 43 30.012" stroke="none" fill="black" fill-rule="evenodd"/>
</svg>