<svg xmlns="http://www.w3.org/2000/svg" width="192" height="144" viewBox="0 0 192 144" version="1.1">
	<path d="M 43.861 2.049 L 41.500 4.099 44.500 2.687 C 46.150 1.910, 48.175 1.023, 49 0.716 C 50.028 0.334, 49.826 0.133, 48.361 0.079 C 47.184 0.036, 45.159 0.922, 43.861 2.049 M 84.816 2.644 C 96.568 8.329, 106.241 21.803, 107.733 34.568 C 109.455 49.292, 105.610 60.873, 95.180 72.382 C 84.658 83.992, 80.593 96.204, 82.706 109.853 C 84.760 123.125, 91.714 133.644, 102.945 140.466 L 108.798 144.022 150.649 143.761 L 192.500 143.500 192.539 94.500 C 192.565 60.643, 192.411 53.226, 192.039 70.500 L 191.500 95.500 188 100.455 C 182.088 108.826, 176.736 115.195, 169.476 122.500 C 162.407 129.612, 160.533 130.656, 164.989 125 C 170.448 118.072, 178.152 101.802, 180.615 92 C 181.973 86.597, 182.492 81.004, 182.472 72 C 182.436 55.777, 180.143 46.150, 172.899 31.801 C 168.413 22.914, 163.443 16.566, 154.065 7.743 L 145.834 -0 112.667 0.037 L 79.500 0.073 84.816 2.644 M 23.345 19.750 C 17.824 25.113, 10.538 33.251, 7.153 37.837 L 1 46.173 1 95.087 L 1 144 23.750 143.966 L 46.500 143.933 42.505 140.716 C 31.076 131.515, 22.418 120.521, 16.497 107.692 C 10.606 94.927, 9.534 89.329, 9.570 71.500 C 9.599 56.998, 9.850 54.728, 12.246 47.260 C 15.829 36.087, 21.858 24.811, 28.571 16.723 C 31.640 13.025, 33.979 10, 33.768 10 C 33.556 10, 28.866 14.387, 23.345 19.750 M 59.225 31.004 C 50.834 36.120, 53.047 49.793, 62.554 51.576 C 67.073 52.424, 69.912 51.613, 73.204 48.533 C 78.588 43.497, 77.756 34.866, 71.514 31.009 C 67.397 28.464, 63.394 28.462, 59.225 31.004 M 120.775 94.559 C 117.495 96.339, 115.995 98.899, 116.014 102.684 C 116.044 108.966, 118.844 112.416, 124.761 113.458 C 131.718 114.684, 138.258 105.603, 134.924 99.346 C 133.275 96.252, 128.400 92.991, 125.500 93.044 C 124.400 93.064, 122.274 93.746, 120.775 94.559" stroke="none" fill="black" fill-rule="evenodd"/>
</svg>