<svg xmlns="http://www.w3.org/2000/svg" width="192" height="144" viewBox="0 0 192 144" version="1.1">
	<path d="M 0 72 L 0 144 42.275 144 L 84.549 144 85.884 136.250 C 86.617 131.988, 87.436 127.327, 87.702 125.893 C 88.046 124.034, 87.684 123.093, 86.439 122.615 C 85.146 122.119, 83.402 123.394, 79.719 127.525 C 76.161 131.518, 74.142 133.020, 72.623 132.803 C 69.254 132.322, 69.669 128.940, 73.753 123.603 C 75.814 120.910, 77.936 118.117, 78.469 117.395 C 79.144 116.480, 78.741 115.141, 77.138 112.972 C 74.920 109.973, 74.897 109.738, 76.478 106.405 C 78.618 101.896, 77.962 100.360, 71.706 95.233 C 68.843 92.886, 62.900 87.639, 58.500 83.572 C 49.655 75.398, 49.466 74.451, 56 71.067 C 66.573 65.591, 73.250 63.824, 83.750 63.724 C 88.838 63.676, 93 63.500, 93 63.335 C 93 63.169, 90.815 61.927, 88.145 60.573 C 82.482 57.704, 80.410 53.958, 81.442 48.457 L 82.113 44.880 79.471 46.611 C 77.226 48.082, 76.694 48.129, 75.930 46.921 C 75.435 46.139, 75.024 44.903, 75.015 44.173 C 74.987 41.685, 80.790 37.048, 85.516 35.785 C 90.920 34.339, 92.709 31.476, 91.294 26.535 C 90.488 23.720, 90.204 23.585, 85.670 23.864 C 79.548 24.240, 75.263 21.176, 71.582 13.789 C 69.939 10.492, 68.311 8.518, 67.229 8.511 C 66.077 8.504, 65.051 7.082, 64.155 4.250 L 62.810 0 31.405 0 L 0 0 0 72 M 190.015 0.750 C 190.024 1.163, 190.467 2.175, 191 3 C 191.784 4.213, 191.972 4.069, 191.985 2.250 C 191.993 1.012, 191.550 0, 191 0 C 190.450 0, 190.007 0.337, 190.015 0.750 M 70.988 5.977 C 72.257 8.349, 75.108 10, 77.934 10 C 81.082 10, 80.415 8.602, 76.114 6.184 C 71.135 3.386, 69.567 3.323, 70.988 5.977 M 73 13.215 C 73 14.328, 79.066 20.965, 81.055 22.030 C 83.619 23.402, 89.001 22.111, 88.995 20.125 C 88.992 19.231, 87.939 17.187, 86.655 15.581 C 84.589 13, 83.665 12.653, 78.659 12.581 C 75.547 12.537, 73 12.822, 73 13.215 M 189.830 28.952 C 188.310 34.623, 188.324 34.983, 190.118 36.606 C 191.945 38.260, 192 38.087, 192 30.655 C 192 26.445, 191.871 23, 191.712 23 C 191.554 23, 190.707 25.678, 189.830 28.952 M 92.636 26.494 C 92.952 27.316, 93.612 27.740, 94.105 27.435 C 95.517 26.563, 95.149 25, 93.531 25 C 92.639 25, 92.288 25.587, 92.636 26.494 M 83.643 38.028 C 80.231 39.051, 77 41.787, 77 43.655 C 77 44.395, 77.270 45, 77.599 45 C 78.369 45, 90 37.832, 90 37.358 C 90 36.766, 86.687 37.116, 83.643 38.028 M 86.690 41.474 C 85.695 42.208, 85.266 43.047, 85.738 43.338 C 86.942 44.082, 89.321 42.448, 88.872 41.186 C 88.632 40.512, 87.856 40.615, 86.690 41.474 M 133.769 54.565 C 133.163 55.170, 135.492 64.826, 136.482 65.816 C 137.386 66.720, 148 66.755, 148 65.854 C 148 63.823, 134.902 53.432, 133.769 54.565 M 136.667 71.750 C 136.964 73.813, 138.077 79.775, 139.141 85 C 140.204 90.225, 141.795 98.042, 142.677 102.371 C 143.559 106.700, 146.064 114.800, 148.244 120.371 C 150.424 125.942, 153.173 133.533, 154.354 137.240 L 156.500 143.980 174.250 143.990 L 192 144 192 124.408 C 192 106.290, 191.849 104.623, 189.988 102.257 C 188.881 100.850, 187.696 97.951, 187.354 95.813 C 186.538 90.712, 184.314 89.589, 176.589 90.381 C 169.202 91.137, 164.604 89.945, 160.734 86.270 C 157.197 82.912, 154 76.941, 154 73.695 C 154 69.525, 151.118 68, 143.234 68 L 136.126 68 136.667 71.750 M 155.022 73.250 C 155.063 75.610, 158.738 82.501, 161.118 84.683 C 165.350 88.563, 172.467 90.054, 178.734 88.374 C 180.962 87.777, 180.963 87.768, 179.032 85.314 C 176.148 81.647, 169.208 76.889, 163 74.322 C 156.698 71.716, 154.991 71.487, 155.022 73.250 M 189.367 96.085 C 190.394 101.222, 192.200 102.322, 191.817 97.577 C 191.635 95.329, 190.902 93.458, 190.098 93.193 C 189 92.832, 188.842 93.459, 189.367 96.085 M 149.656 139.500 C 150.302 143.739, 150.688 144.645, 151.504 143.829 C 151.781 143.552, 151.342 141.565, 150.528 139.413 L 149.048 135.500 149.656 139.500" stroke="none" fill="black" fill-rule="evenodd"/>
</svg>