<svg xmlns="http://www.w3.org/2000/svg" width="192" height="144" viewBox="0 0 192 144" version="1.1">
	<path d="M -0 72.005 L -0 144.010 96.250 143.755 L 192.500 143.500 192.757 71.750 L 193.013 0 132.945 0 L 72.877 0 73.435 4.250 C 73.742 6.588, 74.454 13, 75.019 18.500 C 77.425 41.947, 84.925 73.502, 90.037 81.688 C 91.345 83.783, 90.800 87, 89.136 87 C 86.939 87, 68.962 67.822, 63.827 60 C 54.722 46.133, 46.411 27.787, 40.594 8.716 L 37.936 0 18.968 0 L 0 0 -0 72.005 M 0.474 72.500 C 0.474 112.100, 0.598 128.154, 0.750 108.176 C 0.901 88.198, 0.901 55.798, 0.750 36.176 C 0.598 16.554, 0.474 32.900, 0.474 72.500" stroke="none" fill="black" fill-rule="evenodd"/>
</svg>