<svg xmlns="http://www.w3.org/2000/svg" width="192" height="144" viewBox="0 0 192 144" version="1.1">
	<path d="M 0 51.395 L 0 102.789 3.750 101.761 C 5.813 101.195, 10.425 100.546, 14 100.320 C 22.666 99.770, 24.057 99.267, 21.706 97.536 C 20.047 96.314, 20.005 95.566, 21.158 87.593 C 22.371 79.203, 22.347 78.931, 20.254 77.465 C 18.188 76.018, 18.163 75.793, 19.625 71.729 C 20.463 69.403, 21.130 65.034, 21.109 62.021 C 21.066 55.970, 22.964 52, 25.901 52 C 28.998 52, 30.375 54.823, 30.532 61.494 C 30.662 67.046, 31.014 68.108, 33.404 70.163 C 36.186 72.557, 36.229 76, 33.476 76 C 31.348 76, 31.285 77.873, 33.090 87.433 C 34.031 92.420, 34.632 96.677, 34.425 96.893 C 34.218 97.108, 33.382 96.732, 32.568 96.056 C 30.223 94.111, 28.552 95.847, 30.595 98.105 C 31.545 99.154, 32.102 100.231, 31.834 100.499 C 30.623 101.710, 3.608 104.919, 0.750 104.191 C 0.337 104.086, 0 113, 0 124 L 0 144 35.891 144 L 71.783 144 73.391 139.980 C 74.276 137.769, 75.020 134.731, 75.044 133.230 C 75.068 131.728, 75.735 128.700, 76.527 126.500 C 77.843 122.840, 77.808 122.284, 76.106 119.957 C 73.704 116.673, 72.694 110.377, 73.906 106.250 C 74.657 103.692, 74.567 103, 73.480 103 C 72.721 103, 71.740 103.562, 71.300 104.250 C 70.421 105.624, 61.616 109.178, 58.601 109.376 C 55.596 109.573, 55.674 107.469, 58.724 106.085 C 65.772 102.888, 77.356 95.277, 78.300 93.223 C 79.657 90.268, 77.863 88.039, 75.623 89.898 C 74.465 90.859, 73.989 90.818, 73.331 89.699 C 72.837 88.860, 69.143 87.772, 64.232 87.018 C 56.877 85.890, 53.940 84.727, 55.218 83.448 C 55.449 83.218, 59.394 83.690, 63.987 84.498 C 70.271 85.603, 72.676 85.684, 73.711 84.825 C 74.741 83.970, 75.375 83.975, 76.242 84.842 C 78.063 86.663, 80.745 86.202, 82.443 83.777 C 84.412 80.967, 84.435 79, 82.500 79 C 80.757 79, 80.717 78.752, 80.970 69.500 C 81.100 64.728, 81.827 61.149, 83.254 58.257 C 84.406 55.923, 85.157 53.882, 84.924 53.720 C 84.132 53.171, 76.532 48.227, 63.500 39.784 C 56.350 35.152, 49.825 30.532, 49 29.517 C 47.581 27.772, 47.635 27.742, 50 28.962 C 51.375 29.671, 53.850 31.245, 55.500 32.461 C 57.150 33.677, 63.507 37.852, 69.627 41.740 C 80.040 48.355, 80.686 48.627, 79.684 45.975 C 78.273 42.235, 79.909 38.640, 84.230 35.987 C 86.997 34.287, 88.699 34.053, 95.300 34.461 C 99.590 34.726, 103.469 35.172, 103.921 35.451 C 105.937 36.697, 105.984 42.362, 104.006 45.714 C 102.903 47.584, 102 49.691, 102 50.397 C 102 51.102, 100.875 52.192, 99.500 52.818 C 95.971 54.426, 96.392 55.759, 100.801 56.946 C 104.643 57.981, 109 62.491, 109 65.434 C 109 67.098, 113.848 69.960, 115.600 69.329 C 116.205 69.112, 117.249 69.595, 117.919 70.403 C 119.472 72.274, 117.712 75.966, 115.215 76.074 C 112.762 76.181, 101.500 84.284, 101.500 85.943 C 101.500 87.996, 105.171 88.782, 118.250 89.527 C 124.713 89.896, 130 90.583, 130 91.053 C 130 92.601, 122.847 93.292, 113.302 92.665 L 103.915 92.048 105.708 95.097 C 107.359 97.905, 117.356 107.436, 120.606 109.300 C 122.203 110.216, 122.500 113, 121 113 C 120.450 113, 120 113.638, 120 114.419 C 120 115.199, 117.803 116.830, 115.118 118.043 L 110.237 120.249 110.750 128.875 C 111.032 133.619, 111.652 138.255, 112.128 139.178 C 112.603 140.100, 112.719 141.568, 112.385 142.439 C 111.836 143.871, 115.656 143.998, 152.139 143.761 L 192.500 143.500 192.758 71.750 L 193.017 0 151.808 -0 C 129.144 -0, 111.027 0.376, 111.550 0.835 C 112.072 1.294, 114.556 2.425, 117.070 3.349 C 119.583 4.272, 123.183 6.499, 125.070 8.296 C 130.589 13.555, 143.213 28, 142.290 28 C 140.701 28, 136.502 24.664, 132 19.823 C 127.242 14.708, 126 14.030, 126 16.550 C 126 22.307, 118.781 27.744, 112.662 26.596 C 107.822 25.688, 105.759 21.736, 105.611 13.092 C 105.520 7.813, 105.086 6.207, 103.250 4.358 C 102.013 3.111, 101 1.620, 101 1.045 C 101 0.332, 84.964 0, 50.500 0 L 0 0 0 51.395 M 0.465 52 C 0.465 80.325, 0.593 91.913, 0.749 77.750 C 0.906 63.588, 0.906 40.413, 0.749 26.250 C 0.593 12.088, 0.465 23.675, 0.465 52 M 19 13.393 C 19 14.159, 18.296 15.056, 17.437 15.386 C 16.577 15.716, 16.130 16.401, 16.443 16.908 C 16.757 17.416, 15.922 19.128, 14.587 20.714 L 12.162 23.597 15.331 27.236 C 17.938 30.230, 19.920 31.264, 26.500 33.064 C 34.758 35.323, 44.513 35.887, 46.197 34.203 C 47.650 32.750, 42.748 23.864, 38.380 20.028 C 31.426 13.923, 19 9.668, 19 13.393 M 141.500 36 C 141.840 36.550, 142.316 37, 142.559 37 C 142.802 37, 143 36.550, 143 36 C 143 35.450, 142.523 35, 141.941 35 C 141.359 35, 141.160 35.450, 141.500 36 M 184.813 36.683 C 185.534 36.972, 186.397 36.936, 186.729 36.604 C 187.061 36.272, 186.471 36.036, 185.417 36.079 C 184.252 36.127, 184.015 36.364, 184.813 36.683 M 99.464 72.275 C 99.821 76.219, 100.221 79.555, 100.355 79.688 C 100.775 80.108, 112 71.877, 112 71.148 C 112 70.333, 106.904 67.775, 102.158 66.208 L 98.816 65.104 99.464 72.275 M 0.422 124 C 0.422 135.275, 0.568 139.887, 0.746 134.250 C 0.924 128.613, 0.924 119.388, 0.746 113.750 C 0.568 108.112, 0.422 112.725, 0.422 124 M 96.500 124 C 94.850 124.420, 91.399 124.817, 88.832 124.882 L 84.164 125 81.582 132.753 C 77.575 144.786, 76.811 144, 92.500 144 L 106 144 106 140.623 C 106 138.765, 105.276 134.040, 104.391 130.123 C 102.678 122.534, 102.575 122.454, 96.500 124" stroke="none" fill="black" fill-rule="evenodd"/>
</svg>