<svg xmlns="http://www.w3.org/2000/svg" width="192" height="144" viewBox="0 0 192 144" version="1.1">
	<path d="M 30 1 C 30 2.302, 34.695 2.302, 35.500 1 C 35.861 0.417, 34.844 0, 33.059 0 C 31.377 0, 30 0.450, 30 1 M 0 55.800 C 0 61.933, 0.399 66, 1 66 C 2.688 66, 2.628 48.272, 0.934 46.550 C 0.354 45.960, 0 49.468, 0 55.800 M 55.750 67.689 C 54.788 67.941, 54 68.807, 54 69.613 C 54 70.420, 53.056 72.930, 51.902 75.192 L 49.804 79.304 52.986 90.902 C 56.821 104.885, 58.069 107.403, 61.368 107.811 C 63.386 108.060, 64.171 109.043, 65.364 112.811 C 66.180 115.390, 67.152 120.622, 67.523 124.437 C 68.209 131.476, 70.169 136, 72.532 136 C 73.248 136, 73.998 136.494, 74.199 137.098 C 74.401 137.702, 76.688 138.436, 79.283 138.728 C 82.292 139.068, 84 139.745, 84 140.599 C 84 141.378, 84.627 141.697, 85.501 141.361 C 86.710 140.897, 86.986 138.764, 86.918 130.382 C 86.834 119.822, 85.905 117, 82.512 117 C 81.772 117, 81.017 116.563, 80.833 116.029 C 80.650 115.496, 79.375 114.933, 78 114.779 C 76.597 114.623, 74.294 113.014, 72.750 111.112 C 70.305 108.101, 69.993 106.879, 69.937 100.112 C 69.902 95.926, 69.517 88.757, 69.079 84.183 C 68.310 76.132, 68.146 75.724, 63.934 71.433 C 59.617 67.034, 59.123 66.808, 55.750 67.689 M 0 128 L 0 144 14.174 144 L 28.349 144 26.026 141.528 C 24.749 140.168, 21.324 138.364, 18.416 137.519 C 14.852 136.482, 12.923 135.333, 12.497 133.991 C 12.115 132.786, 10.984 132, 9.633 132 C 6.184 132, 5 130.060, 5 124.407 C 5 120.713, 4.567 119.048, 3.500 118.638 C 2.623 118.302, 2 116.803, 2 115.031 C 2 113.364, 1.550 112, 1 112 C 0.375 112, 0 118, 0 128" stroke="none" fill="black" fill-rule="evenodd"/>
</svg>