<svg xmlns="http://www.w3.org/2000/svg" width="192" height="144" viewBox="0 0 192 144" version="1.1">
	<path d="M 0 72 L 0 144 76.111 144 C 151.327 144, 152.194 143.977, 149.861 142.079 L 147.500 140.159 149.433 136.829 C 150.496 134.998, 153.758 130.487, 156.683 126.803 C 159.607 123.120, 162 119.248, 162 118.199 C 162 117.150, 163.125 115.078, 164.500 113.595 C 165.875 112.111, 167 110.470, 167 109.948 C 167 109.427, 167.436 109, 167.969 109 C 168.501 109, 168.700 108.381, 168.409 107.623 C 168.074 106.750, 168.817 106.012, 170.440 105.604 C 171.848 105.251, 173 104.613, 173 104.188 C 173 103.762, 175.229 100.777, 177.954 97.555 C 181.980 92.793, 182.722 91.350, 181.919 89.848 C 181.050 88.224, 179.608 88, 170.048 88 C 163.251 88, 159.034 87.601, 158.812 86.937 C 158.581 86.243, 149.859 85.689, 133.739 85.344 L 109.020 84.815 103.793 88.657 C 94.695 95.345, 90.452 96.595, 87.357 93.500 C 86.532 92.675, 85.537 92, 85.145 92 C 84.532 92, 78.792 99.573, 62.027 122.500 C 52.235 135.890, 50.488 138, 49.188 138 C 47.328 138, 39.857 132.040, 40.472 131.046 C 40.736 130.618, 40.026 129.429, 38.894 128.404 C 37.761 127.379, 36.206 125.181, 35.438 123.520 C 34.669 121.859, 33.647 119.825, 33.167 119 C 31.527 116.186, 29.241 110.506, 28.136 106.500 C 22.826 87.265, 22.992 71.781, 28.700 54 C 33.254 39.812, 44.397 23.273, 47.930 25.457 C 48.449 25.777, 52.836 30.868, 57.680 36.770 C 62.524 42.671, 67.245 48.400, 68.171 49.500 C 69.097 50.600, 72.627 54.875, 76.015 59 C 87.669 73.189, 86.333 72.071, 90.129 70.809 C 91.983 70.193, 100.925 69.545, 110 69.369 C 119.075 69.194, 130.775 68.655, 136 68.172 C 141.225 67.689, 148.650 67.469, 152.500 67.685 C 157.558 67.967, 160.520 67.616, 163.177 66.419 C 166.578 64.886, 167.210 64.883, 171.605 66.381 C 174.218 67.271, 178.301 68, 180.678 68 L 185 68 185 63.500 C 185 60.167, 184.611 59, 183.500 59 C 182.675 59, 182 58.536, 182 57.969 C 182 57.401, 182.675 56.678, 183.500 56.362 C 184.486 55.983, 185 54.421, 185 51.799 C 185 48.505, 184.609 47.711, 182.750 47.226 C 181.512 46.904, 177.819 45.220, 174.541 43.484 C 169.630 40.882, 168.427 39.727, 167.701 36.914 C 167.216 35.036, 166.346 32.927, 165.767 32.226 C 164.999 31.295, 165.418 29.963, 167.323 27.286 C 169.014 24.910, 169.606 23.230, 169.007 22.508 C 168.428 21.811, 168.583 20.430, 169.422 18.813 C 171.364 15.069, 170.203 13.939, 165.503 14.999 C 161.279 15.952, 159.625 15.468, 162.029 13.982 C 162.838 13.482, 163.561 12.719, 163.635 12.286 C 164.087 9.644, 165.369 7.073, 166.439 6.662 C 167.206 6.368, 167.507 5.002, 167.227 3.093 L 166.773 0 83.387 0 L 0 0 0 72 M 169 1.941 C 169 4.624, 170.354 5.205, 172.603 3.487 C 174.248 2.230, 174.301 1.905, 173 1.034 C 170.640 -0.545, 169 -0.173, 169 1.941 M 172.441 6.468 C 171.374 7.276, 170.976 7.951, 171.559 7.968 C 172.141 7.986, 173.491 7.339, 174.559 6.532 C 175.626 5.724, 176.024 5.049, 175.441 5.032 C 174.859 5.014, 173.509 5.661, 172.441 6.468 M 171.273 127.250 C 170.697 128.488, 167.458 132.779, 164.075 136.787 L 157.925 144.073 167.649 143.787 L 177.374 143.500 178.668 138.500 C 180.849 130.072, 180.500 128.107, 176.532 126.449 C 172.189 124.634, 172.514 124.585, 171.273 127.250" stroke="none" fill="black" fill-rule="evenodd"/>
</svg>