<svg xmlns="http://www.w3.org/2000/svg" width="192" height="144" viewBox="0 0 192 144" version="1.1">
	<path d="M 101 14.338 C 101 15.154, 99.709 16.908, 98.132 18.236 C 95.425 20.513, 95.309 20.927, 96.072 25.574 C 97.254 32.776, 97.225 32.940, 94.531 34.168 C 93.174 34.786, 92.300 35.676, 92.589 36.145 C 93.196 37.127, 94.051 46.080, 93.960 50.500 C 93.809 57.864, 93.971 65.156, 94.472 73.500 C 94.769 78.450, 95.038 88.122, 95.070 94.992 C 95.134 108.530, 95.534 109.673, 101.248 112.628 C 103.883 113.991, 105.089 117, 103 117 C 102.450 117, 102 117.450, 102 118 C 102 118.550, 103.350 119, 105 119 C 107.886 119, 108.980 117.724, 107.094 116.558 C 105.758 115.732, 107.005 112, 108.617 112 C 109.377 112, 110 111.127, 110 110.059 C 110 108.991, 110.450 107.840, 111 107.500 C 112.322 106.683, 112.281 102.681, 110.938 101.338 C 110.188 100.587, 110.783 100.093, 112.961 99.658 C 116.874 98.875, 117.866 96.456, 115.267 94.034 C 113.811 92.678, 113.085 90.245, 112.567 84.987 C 112.178 81.032, 111.620 77.173, 111.328 76.412 C 111 75.558, 111.804 74.645, 113.424 74.029 C 118.266 72.188, 117.903 68.616, 112.116 61.176 C 107.647 55.429, 104.654 49.345, 105.374 47.469 C 105.892 46.117, 106.315 46.017, 107.468 46.973 C 109.877 48.972, 111 47.168, 111 41.301 C 111 37.187, 110.550 35.391, 109.288 34.468 C 108.077 33.583, 107.863 32.818, 108.558 31.858 C 109.098 31.111, 109.477 28.336, 109.400 25.690 C 109.290 21.930, 108.664 20.259, 106.532 18.034 C 105.032 16.468, 103.873 14.807, 103.955 14.343 C 104.038 13.880, 103.407 13.355, 102.553 13.177 C 101.699 12.999, 101 13.521, 101 14.338 M 41.736 17.598 C 41.407 17.927, 41.389 18.849, 41.695 19.649 C 42.327 21.293, 38.347 26, 36.326 26 C 34.803 26, 34.527 28.590, 35.956 29.473 C 36.482 29.798, 36.662 30.718, 36.355 31.517 C 36.048 32.317, 36.993 34.392, 38.455 36.129 C 40.321 38.347, 40.798 39.602, 40.056 40.344 C 39.475 40.925, 39 43.140, 39 45.266 C 39 50.417, 37.671 52.623, 33.217 54.862 C 26.841 58.066, 22.415 58.415, 19.912 55.912 C 17.762 53.762, 17.693 53.759, 10.125 55.422 C 5.933 56.343, 2.110 57.490, 1.629 57.971 C -0.109 59.709, 5.871 63.647, 23.696 72.500 C 40.840 81.015, 41.821 81.657, 41.908 84.408 C 41.964 86.187, 43.615 89.408, 46.163 92.711 L 50.326 98.107 46.777 101.033 C 44.824 102.642, 42.957 105.035, 42.627 106.350 C 42.208 108.019, 40.530 109.386, 37.078 110.871 C 30.756 113.591, 30.636 113.581, 25.559 109.935 L 21.291 106.870 13.896 109.711 C 9.828 111.273, 6.500 113.042, 6.500 113.641 C 6.500 114.240, 10.960 118.504, 16.411 123.115 C 21.862 127.727, 29.512 134.309, 33.411 137.742 C 37.310 141.175, 41.062 143.988, 41.750 143.992 C 43.818 144.005, 58 135.698, 58 134.474 C 58 133.848, 55.862 131.915, 53.250 130.177 C 44.802 124.556, 43.331 123, 46.466 123 C 49.096 123, 54.966 119.682, 55.541 117.871 C 55.850 116.898, 57.092 115.801, 58.301 115.433 C 61.371 114.498, 64 112.001, 64 110.019 C 64 109.100, 62.875 107.292, 61.500 106 C 60.125 104.708, 59 103.211, 59 102.672 C 59 101.556, 54.534 92.306, 52.840 89.913 C 52.177 88.977, 51.986 86.888, 52.375 84.817 C 52.937 81.817, 53.595 81.138, 56.898 80.149 C 63.297 78.232, 63.355 77.418, 57.763 68 C 51.757 57.886, 50.688 54.573, 51.979 50.075 C 52.770 47.317, 52.590 46.295, 50.950 44.209 C 48.963 41.683, 48.963 41.683, 51.061 39.728 C 52.674 38.226, 52.985 37.162, 52.406 35.137 C 51.992 33.686, 51.576 31.177, 51.482 29.559 C 51.369 27.616, 50.580 26.292, 49.156 25.656 C 47.970 25.127, 46.985 23.976, 46.967 23.097 C 46.936 21.630, 43.739 17, 42.756 17 C 42.524 17, 42.064 17.269, 41.736 17.598 M 166.079 18.770 C 165.984 21.499, 161.428 29, 159.865 29 C 159.111 29, 159.075 29.401, 159.754 30.250 C 161.150 31.996, 162.388 43, 161.189 43 C 159.740 43, 158.914 47.329, 160.209 48.129 C 160.833 48.515, 161.302 50.331, 161.253 52.165 C 161.084 58.412, 160.859 59.058, 153.702 73.846 C 150.234 81.012, 150.597 82.872, 155.767 84.438 C 159.264 85.496, 160.527 88.317, 158.324 90.146 C 154.188 93.578, 150.013 107.173, 152.378 109.506 C 152.995 110.114, 154.911 111.441, 156.635 112.454 C 158.471 113.532, 159.812 115.166, 159.872 116.398 C 160.277 124.766, 160.496 125.449, 163 126.146 C 169.789 128.037, 176.030 129.099, 176.962 128.524 C 178.753 127.416, 178.099 126.506, 175.399 126.350 C 173.969 126.267, 172.282 125.647, 171.650 124.972 C 170.043 123.256, 178.172 124.521, 182.226 126.617 C 186.267 128.707, 192 127.724, 192 124.942 C 192 123.555, 190.598 122.356, 187.250 120.881 C 173.928 115.009, 172.299 113.867, 175.500 112.638 C 179.232 111.206, 174.581 104, 169.924 104 C 167.045 104, 166.886 102.616, 169.007 95.977 C 170.103 92.546, 171.017 88.786, 171.039 87.620 C 171.062 86.353, 172.369 84.673, 174.289 83.445 C 178.161 80.967, 178.197 78.845, 174.557 67.384 C 172.122 59.715, 172.119 59.664, 174.055 57.203 C 175.125 55.843, 176 53.216, 176 51.365 C 176 47.362, 176.537 47.278, 182.365 50.377 C 188.504 53.641, 192 52.954, 192 48.483 C 192 45.369, 191.741 45.137, 187 44 C 184.250 43.340, 182 42.447, 182 42.015 C 182 41.583, 184.089 38.692, 186.642 35.591 C 189.196 32.489, 191.051 29.717, 190.764 29.431 C 190.478 29.145, 187.877 31.884, 184.985 35.519 C 181.271 40.187, 179.415 41.815, 178.663 41.063 C 178.079 40.479, 176.565 40, 175.300 40 C 172.550 40, 172.522 39.805, 174.693 35.700 C 176.659 31.982, 177.076 25.001, 175.331 25.001 C 172.915 24.999, 167.979 21.408, 167.086 19 C 166.181 16.562, 166.156 16.556, 166.079 18.770 M 35.297 58.331 C 30.390 60.863, 29.909 62.003, 33.750 61.993 C 37.091 61.985, 41.861 58.975, 41.265 57.250 C 40.714 55.654, 40.358 55.718, 35.297 58.331 M 99.208 84.750 L 99.500 92.500 104.500 92.500 C 108.926 92.500, 109.537 92.241, 109.820 90.247 C 109.996 89.007, 109.421 85.520, 108.542 82.497 C 106.948 77.013, 106.935 77, 102.930 77 L 98.916 77 99.208 84.750 M 164.729 86.604 C 164.328 87.005, 164 88.154, 164 89.158 C 164 90.162, 162.425 93.046, 160.500 95.568 C 156.281 101.095, 155.925 104, 159.465 104 C 162.472 104, 163.448 102.301, 165.014 94.338 C 166.222 88.195, 166.112 85.221, 164.729 86.604 M 100.500 109 C 100.840 109.550, 101.879 109.993, 102.809 109.985 C 104.266 109.971, 104.293 109.835, 103 109 C 101.042 107.734, 99.718 107.734, 100.500 109 M 36.750 113.162 C 33.317 114.416, 33.235 116.253, 36.535 118.019 C 38.790 119.226, 39.290 119.155, 41.074 117.371 C 42.302 116.143, 42.828 114.715, 42.432 113.683 C 41.708 111.797, 40.732 111.708, 36.750 113.162" stroke="none" fill="black" fill-rule="evenodd"/>
</svg>