<svg xmlns="http://www.w3.org/2000/svg" width="192" height="144" viewBox="0 0 192 144" version="1.1">
	<path d="M 106.950 15.094 C 106.195 16.504, 105.182 17.019, 103.852 16.672 C 102.133 16.222, 101.956 16.524, 102.496 18.982 C 102.838 20.537, 102.660 22.092, 102.102 22.437 C 101.544 22.782, 101.314 23.655, 101.591 24.377 C 102.220 26.015, 96.515 30.434, 92.500 31.419 C 90.850 31.824, 88.757 32.826, 87.848 33.644 C 86.939 34.463, 85.364 34.990, 84.348 34.816 C 81.601 34.346, 81.440 38.358, 84.038 42.562 C 85.857 45.504, 86.067 46.709, 85.300 49.796 C 84.793 51.833, 84.742 55.075, 85.184 57 C 85.627 58.925, 85.753 61.927, 85.464 63.672 C 85.072 66.038, 85.414 67.181, 86.811 68.172 C 87.840 68.902, 89.233 70.537, 89.905 71.804 C 90.578 73.070, 92.477 74.928, 94.127 75.931 L 97.127 77.755 94.428 79.878 C 92.944 81.045, 90.531 82, 89.065 82 C 86.003 82, 84 83.632, 84 86.127 C 84 87.078, 82.875 88.740, 81.500 89.821 C 80.125 90.903, 79 92.270, 79 92.859 C 79 93.448, 77.603 95.521, 75.896 97.465 C 72.274 101.591, 69.599 101.909, 63.141 98.978 C 58.611 96.922, 52 96.306, 52 97.939 C 52 98.455, 49.863 99.155, 47.250 99.493 C 38.879 100.579, 38.035 100.970, 34.991 105.171 C 31.134 110.495, 31.136 112.098, 35 111.803 C 37.205 111.635, 38 111.069, 38 109.667 C 38 107.951, 38.578 107.812, 43.750 108.281 C 46.913 108.567, 50.400 109.011, 51.500 109.267 C 52.600 109.524, 57.830 110.316, 63.122 111.027 C 72.408 112.276, 72.867 112.245, 76.240 110.160 C 80.606 107.462, 80.997 107.470, 81.011 110.250 C 81.017 111.487, 81.691 114.705, 82.508 117.401 C 84.140 122.778, 83.166 125.538, 79.936 124.694 C 78.999 124.448, 77.468 125.140, 76.534 126.231 C 74.962 128.068, 73.971 128.171, 63.168 127.622 C 51.980 127.054, 49.910 126.631, 24.750 119.778 C 22.688 119.216, 21 118.169, 21 117.450 C 21 113.462, 14.079 111.935, 3.750 113.642 L -0 114.262 -0 129.131 L 0 144 60 144 C 93 144, 120 143.732, 120 143.404 C 120 143.077, 119.173 141.614, 118.163 140.154 C 115.440 136.221, 114.940 134.237, 116.518 133.631 C 119.840 132.357, 121.999 125.376, 122.035 115.790 C 122.057 110.095, 122.574 105.592, 123.372 104.153 C 124.349 102.392, 124.431 100.579, 123.700 96.883 C 122.891 92.790, 123.003 91.654, 124.363 90.151 C 125.264 89.156, 126 87.909, 126 87.379 C 126 86.850, 123.300 85.177, 120 83.662 C 114.752 81.253, 112.265 79, 114.854 79 C 116.187 79, 120.732 74.483, 123.494 70.414 C 126.493 65.995, 126.813 59.741, 124.386 52.969 C 122.785 48.502, 122.799 48.386, 125.327 44.660 C 128.224 40.392, 127.903 38, 124.433 38 C 122.181 38, 119.255 35.360, 112.521 27.250 C 108.823 22.797, 111.460 23.067, 116.121 27.618 L 119.826 31.236 121.476 28.046 C 123.519 24.095, 122.841 23.136, 115.458 19.523 C 111.660 17.665, 110 16.267, 110 14.926 C 110 12.381, 108.353 12.471, 106.950 15.094 M 189.250 139.498 C 186.438 143.839, 186.447 144, 189.500 144 C 191.750 144, 192 143.600, 192 140 C 192 137.800, 191.887 136.006, 191.750 136.012 C 191.613 136.019, 190.488 137.588, 189.250 139.498" stroke="none" fill="black" fill-rule="evenodd"/>
</svg>