<svg xmlns="http://www.w3.org/2000/svg" width="192" height="144" viewBox="0 0 192 144" version="1.1">
	<path d="M 0 72 L 0 144 27.362 144 L 54.724 144 55.375 137.642 C 56.394 127.701, 59.898 112.954, 62.226 108.812 C 64.005 105.647, 64.155 104.636, 63.171 102.476 C 61.320 98.414, 61.773 96.073, 65.045 92.801 C 67.755 90.092, 67.929 89.577, 66.628 88.128 C 64.268 85.499, 64.946 76, 67.494 76 C 68.560 76, 68.798 75.240, 68.383 73.164 C 68.004 71.271, 68.355 69.788, 69.437 68.706 C 73.241 64.902, 73.511 66.868, 73.219 96.208 C 73.064 111.711, 73.241 125.094, 73.612 125.948 C 74.450 127.874, 74.065 133.324, 73.044 134 C 72.629 134.275, 72.054 136.637, 71.767 139.250 L 71.246 144 91.283 144 L 111.321 144 105.652 138.750 C 101.160 134.589, 99.989 132.878, 100.007 130.500 C 100.043 125.948, 101.319 124.462, 103.402 126.545 C 104.333 127.476, 105.186 128.072, 105.298 127.869 C 105.409 127.666, 105.991 126.600, 106.592 125.500 C 107.880 123.140, 107.369 121, 105.518 121 C 103.527 121, 100 113.437, 100 109.169 C 100 107.096, 99.489 104.889, 98.864 104.264 C 98.016 103.416, 98.143 101.860, 99.364 98.126 C 100.264 95.375, 101 91.971, 101 90.562 C 101 88.906, 101.552 88, 102.563 88 C 103.467 88, 104.034 87.263, 103.909 86.250 C 103.790 85.287, 104.047 83.680, 104.481 82.678 C 105.017 81.440, 104.580 79.923, 103.117 77.945 C 101.901 76.300, 101.058 73.819, 101.179 72.239 C 101.442 68.782, 100.414 67, 98.157 67 C 96.006 67, 93 62.074, 93 58.550 C 93 57.042, 91.889 54.798, 90.410 53.319 C 88.385 51.294, 88.112 50.544, 89.160 49.880 C 90.190 49.227, 90.093 49.027, 88.741 49.015 C 87.492 49.004, 85.193 45.380, 80.803 36.500 C 77.405 29.625, 74.259 24, 73.812 24 C 73.365 24, 72.997 27.262, 72.994 31.250 L 72.988 38.500 71.369 35.500 C 63.451 20.823, 60.452 12.075, 62.832 10.604 C 64.132 9.800, 70.682 15.424, 71.520 18.062 C 72.973 22.642, 74 19.305, 74 10 L 74 0 37 0 L 0 0 0 72 M 73.850 53.500 C 73.767 59.825, 73.655 65.556, 73.600 66.236 C 73.431 68.320, 76.432 68.178, 78.779 65.992 C 82.233 62.774, 81.868 54.959, 77.925 47.678 C 76.234 44.555, 74.659 42, 74.425 42 C 74.191 42, 73.933 47.175, 73.850 53.500 M 65.200 95.200 C 64.540 95.860, 64 97.129, 64 98.020 C 64 100.051, 68.715 104.271, 69.523 102.962 C 69.850 102.433, 69.668 102, 69.118 102 C 68.544 102, 68.698 100.883, 69.480 99.376 C 70.229 97.932, 70.604 96.132, 70.314 95.376 C 69.663 93.681, 66.817 93.583, 65.200 95.200 M 94.667 99.667 C 93.516 100.817, 93.938 102, 95.500 102 C 96.325 102, 97 101.325, 97 100.500 C 97 98.938, 95.817 98.516, 94.667 99.667 M 64.210 111.841 C 61.332 116.961, 59.033 127.073, 59.015 134.691 C 59.007 138.096, 58.550 141.160, 58 141.500 C 55.689 142.929, 57.315 144, 61.794 144 L 66.587 144 67.846 138.250 C 71.883 119.818, 71.906 119.632, 70.679 115 C 68.513 106.824, 67.349 106.256, 64.210 111.841" stroke="none" fill="black" fill-rule="evenodd"/>
</svg>