<svg xmlns="http://www.w3.org/2000/svg" width="192" height="144" viewBox="0 0 192 144" version="1.1">
	<path d="M 0 72 L 0 144 56 144 C 107.969 144, 114.560 143.700, 111 141.500 C 110.450 141.160, 109.977 136.746, 109.949 131.691 C 109.878 119.081, 108.650 109.020, 107.062 108.039 C 106.337 107.590, 103.481 106.924, 100.716 106.557 C 91.738 105.366, 86.277 100.982, 84.988 93.932 C 84.291 90.121, 84.507 89.442, 87.467 86.129 C 89.251 84.133, 90.492 81.875, 90.225 81.111 C 89.932 80.269, 90.182 79.995, 90.861 80.414 C 92.377 81.351, 96.929 77.918, 96.969 75.809 C 96.986 74.879, 97.450 73.840, 98 73.500 C 98.550 73.160, 99 72.219, 99 71.409 C 99 69.619, 94.912 67.900, 93.448 69.073 C 91.980 70.250, 87.847 69.063, 85.711 66.852 C 84.727 65.833, 82.927 64.997, 81.711 64.994 C 80.495 64.990, 78.150 64.281, 76.500 63.418 C 74.850 62.555, 71.025 61.397, 68 60.846 C 64.975 60.295, 60.531 58.754, 58.124 57.422 C 55.717 56.090, 52.887 55, 51.834 55 C 50.781 55, 48.630 54.047, 47.055 52.882 C 45.479 51.717, 43.697 51.069, 43.095 51.441 C 41.668 52.323, 41.677 50.723, 43.107 49.293 C 43.917 48.483, 43.606 47.859, 41.947 46.972 C 39.892 45.872, 39.840 45.669, 41.396 44.799 C 42.747 44.042, 42.861 43.538, 41.933 42.419 C 41.231 41.574, 41.164 41, 41.766 41 C 42.346 41, 42.649 38.985, 42.478 36.266 C 42.314 33.662, 42.663 30.625, 43.253 29.516 C 44.630 26.930, 47.337 24.927, 48.001 26.002 C 48.284 26.459, 50.658 26.343, 53.277 25.744 C 56.749 24.949, 59.685 24.960, 64.115 25.784 C 71.689 27.193, 73.288 28.413, 72.465 32.159 C 71.709 35.601, 72.280 35.665, 80.430 33.058 C 83.768 31.989, 88.209 30.840, 90.297 30.504 C 93.551 29.979, 94.602 29.097, 97.646 24.339 C 103.173 15.699, 108.031 10.889, 113.825 8.320 C 124.532 3.573, 144.267 2.794, 153.167 6.768 C 155.550 7.832, 161.827 11.645, 167.116 15.243 C 172.404 18.841, 180.179 23.070, 184.392 24.642 C 191.344 27.235, 192.028 27.732, 191.777 30 C 191.523 32.288, 190.926 32.577, 184.722 33.411 C 178.355 34.267, 177.421 34.124, 169.316 31.045 C 159 27.127, 153.268 26.129, 152.514 28.121 C 152.227 28.879, 152.331 32.839, 152.746 36.920 L 153.500 44.341 163.500 46.635 C 169 47.897, 177.550 49.970, 182.500 51.243 L 191.500 53.556 191.765 83.855 L 192.030 114.155 187.765 113.860 C 185.419 113.697, 181.925 113.007, 180 112.326 C 174.692 110.448, 173.425 110.760, 176.510 113.186 C 178.836 115.017, 179.020 115.467, 177.635 115.953 C 176.231 116.445, 176.439 117.035, 179.004 119.844 L 182.028 123.154 185.091 120.577 C 186.775 119.160, 189.005 118, 190.047 118 C 191.789 118, 191.965 119.016, 192.253 130.750 C 192.425 137.762, 192.663 111.213, 192.783 71.750 L 193 0 96.500 0 L 0 0 0 72 M 0.474 72.500 C 0.474 112.100, 0.598 128.154, 0.750 108.176 C 0.901 88.198, 0.901 55.798, 0.750 36.176 C 0.598 16.554, 0.474 32.900, 0.474 72.500 M 115.160 85.240 C 114.522 85.878, 114 87.690, 114 89.266 C 114 90.842, 113.511 93.044, 112.914 94.160 C 112.047 95.780, 112.221 96.623, 113.778 98.344 C 114.850 99.530, 116.251 101.400, 116.892 102.500 C 117.976 104.363, 118.038 104.321, 117.789 101.881 C 117.642 100.440, 118.177 98.037, 118.978 96.541 C 120.274 94.120, 120.249 93.499, 118.754 90.895 C 117.831 89.285, 117.314 87.346, 117.606 86.585 C 118.318 84.728, 116.611 83.789, 115.160 85.240 M 173.489 123.979 C 174.877 126.717, 176.942 131.442, 178.078 134.479 C 179.214 137.515, 180.561 140, 181.072 140 C 181.582 140, 181.994 136.512, 181.986 132.250 L 181.971 124.500 176.985 121.750 C 174.243 120.237, 171.767 119, 171.483 119 C 171.199 119, 172.102 121.240, 173.489 123.979 M 126 142.417 C 126 143.287, 126.712 144, 127.583 144 C 128.454 144, 128.989 143.466, 128.771 142.813 C 128.153 140.958, 126 140.651, 126 142.417" stroke="none" fill="black" fill-rule="evenodd"/>
</svg>