<svg xmlns="http://www.w3.org/2000/svg" width="192" height="144" viewBox="0 0 192 144" version="1.1">
	<path d="M 0 72 L 0 144 43 144 C 83.284 144, 86 143.889, 86.003 142.250 C 86.005 141.287, 86.485 135.396, 87.069 129.158 C 88.034 118.862, 87.974 117.701, 86.419 116.565 C 85.137 115.627, 84.888 114.583, 85.426 112.406 C 88.115 101.542, 89.030 92.311, 87.907 87.375 C 86.789 82.463, 86.934 81.014, 89.542 71 C 89.614 70.725, 90.007 69.745, 90.415 68.823 C 91.842 65.601, 90.505 62.577, 86.311 59.537 C 80.900 55.614, 80.536 51.737, 85.093 46.547 C 89.219 41.847, 94.576 40.212, 98.759 42.375 C 104.158 45.168, 105.999 49.071, 109.097 64.301 C 111.472 75.976, 112.166 82.766, 113 102.500 C 113.593 116.530, 114.715 130.140, 115.701 135.262 L 117.387 144.024 154.943 143.762 L 192.500 143.500 192.519 71.500 C 192.530 31.900, 192.410 12.629, 192.254 28.676 L 191.970 57.852 189.226 57.065 C 178.908 54.106, 165.454 42.692, 160.861 33 C 156.012 22.770, 154.564 16.989, 154.662 8.250 L 154.754 0 77.377 0 L 0 0 0 72 M 0.474 72.500 C 0.474 112.100, 0.598 128.154, 0.750 108.176 C 0.901 88.198, 0.901 55.798, 0.750 36.176 C 0.598 16.554, 0.474 32.900, 0.474 72.500" stroke="none" fill="black" fill-rule="evenodd"/>
</svg>