<svg xmlns="http://www.w3.org/2000/svg" width="192" height="144" viewBox="0 0 192 144" version="1.1">
	<path d="M 36 10.505 C 31.866 12.288, 26.415 19.850, 25.477 25.100 C 25.083 27.305, 25.447 30.767, 26.417 34.032 C 27.330 37.107, 28 43.036, 28 48.045 L 28 56.726 33.750 60.658 C 39.136 64.342, 39.520 64.871, 39.819 69.031 C 40.129 73.347, 39.957 73.640, 33.672 79.486 C 18.298 93.785, 16.822 98.831, 25.331 108 C 27.135 109.944, 29.041 113.619, 29.511 116.059 C 30.056 118.886, 27.133 126.773, 23.419 132.500 C 21.635 135.250, 19.876 138.963, 19.509 140.750 L 18.841 144 85.421 144 L 152 144 152 136.553 C 152 130.536, 151.521 128.206, 149.508 124.419 C 148.137 121.841, 146.235 119.161, 145.280 118.463 C 142.627 116.523, 142.999 103.970, 145.887 98 C 150.161 89.163, 149.253 89.559, 166.493 89 C 174.969 88.725, 182.364 88.039, 182.926 87.476 C 184.116 86.284, 183.167 82.347, 181 79.483 C 179.362 77.318, 173.210 74.066, 165.713 71.401 C 159.223 69.095, 156 65.120, 156 59.423 C 156 56.455, 156.608 54.392, 157.848 53.152 C 158.864 52.136, 159.997 49.423, 160.364 47.123 C 160.941 43.515, 160.694 42.603, 158.562 40.471 C 157.203 39.112, 155.318 38, 154.374 38 C 153.430 38, 151.947 37.376, 151.079 36.613 C 148.652 34.480, 135.969 32, 127.493 32 L 119.880 32 114.594 37 C 111.686 39.750, 108.883 42, 108.365 42 C 107.243 42, 101.451 35.184, 97.561 29.285 C 96.032 26.967, 93.255 23.906, 91.390 22.484 C 89.526 21.062, 87.994 19.359, 87.987 18.699 C 87.975 17.575, 80.950 13.977, 73 11.022 C 67.519 8.984, 40.402 8.605, 36 10.505" stroke="none" fill="black" fill-rule="evenodd"/>
</svg>