<svg xmlns="http://www.w3.org/2000/svg" width="192" height="144" viewBox="0 0 192 144" version="1.1">
	<path d="M 0 72 L 0 144 37 144 L 74 144 74 141.624 C 74 140.318, 75.177 136.605, 76.615 133.374 C 78.948 128.132, 79.167 126.667, 78.647 119.764 C 78.317 115.372, 77.391 111, 76.506 109.650 C 75.649 108.341, 75.048 105.960, 75.170 104.357 C 75.292 102.754, 75.066 100.916, 74.668 100.272 C 74.270 99.628, 74.856 96.397, 75.969 93.091 L 77.994 87.080 75.497 83.401 C 74.124 81.377, 73 79.133, 73 78.415 C 73 77.697, 71.768 76.519, 70.262 75.797 C 64.545 73.057, 66.667 68.062, 75.494 63.485 C 78.660 61.843, 81.899 59.521, 82.691 58.325 C 84.308 55.884, 88.864 54, 93.149 54 L 96 54 96 27 L 96 0 48 0 L 0 0 0 72 M 96 99.500 L 96 144 107 144 C 117.916 144, 118 143.982, 118 141.622 C 118 140.314, 117.325 137.629, 116.500 135.654 C 114.878 131.772, 114.636 125.610, 115.640 113.736 C 116.164 107.537, 116.553 106.275, 117.797 106.752 C 119.080 107.245, 119.224 106.496, 118.732 101.917 C 118.412 98.938, 117.168 94.166, 115.968 91.313 C 113.839 86.253, 113.828 86.016, 115.529 81.563 C 116.766 78.324, 117.832 77, 119.202 77 C 122.415 77, 125 75.062, 125 72.652 C 125 70.031, 121.072 66.021, 116 63.464 C 114.075 62.493, 110.523 60.192, 108.106 58.349 C 104.878 55.889, 102.689 55, 99.856 55 L 96 55 96 99.500 M 73.130 68.067 C 69.550 70.244, 69.419 72.318, 72.828 72.820 C 74.397 73.050, 75 72.620, 75 71.270 C 75 70.241, 75.532 68.868, 76.183 68.217 C 78.291 66.109, 76.495 66.021, 73.130 68.067 M 116.306 70 C 117.108 72.125, 118.103 73, 119.719 73 C 122.728 73, 122.604 71.620, 119.365 69.073 C 115.755 66.233, 114.974 66.470, 116.306 70 M 80.079 123.583 C 80.127 124.748, 80.364 124.985, 80.683 124.188 C 80.972 123.466, 80.936 122.603, 80.604 122.271 C 80.272 121.939, 80.036 122.529, 80.079 123.583" stroke="none" fill="black" fill-rule="evenodd"/>
</svg>