<svg xmlns="http://www.w3.org/2000/svg" width="192" height="144" viewBox="0 0 192 144" version="1.1">
	<path d="M 0 72 L 0 144 34.659 144 L 69.317 144 63.311 137.746 C 60.008 134.306, 56.608 130.143, 55.756 128.494 C 54.142 125.374, 52.245 112.672, 53.681 114.600 C 54.131 115.205, 55.011 115.880, 55.637 116.100 C 56.262 116.320, 58.287 118.483, 60.137 120.907 C 64.788 127.002, 67.695 128.914, 73.771 129.875 C 76.647 130.329, 79 130.474, 79 130.197 C 79 129.920, 76.820 127.388, 74.155 124.570 C 71.490 121.753, 68.756 118.412, 68.079 117.148 C 66.963 115.063, 67.019 114.940, 68.674 115.832 C 69.678 116.374, 71.575 117.966, 72.889 119.371 C 75.473 122.134, 84.426 126.744, 94.758 130.633 C 105.012 134.493, 106.621 135.596, 108.368 139.962 L 109.984 144 118.114 144 C 125.216 144, 126.088 143.811, 125.004 142.505 C 124.005 141.301, 124.078 140.529, 125.382 138.540 C 126.272 137.182, 127 135.522, 127 134.851 C 127 134.180, 127.954 131.662, 129.119 129.254 C 130.711 125.966, 131.644 125.043, 132.869 125.541 C 144.204 130.156, 151.081 130.837, 152.372 127.473 C 153.179 125.370, 155 125.651, 155 127.877 C 155 128.910, 155.724 132.960, 156.609 136.877 L 158.217 144 162.027 144 C 167.520 144, 169 143.165, 169 140.067 C 169 136.549, 172.970 132.680, 175.595 133.641 C 177.465 134.326, 177.465 134.300, 175.589 132.163 C 174.539 130.967, 173.898 129.768, 174.166 129.500 C 174.434 129.232, 177.517 130.135, 181.016 131.506 C 184.516 132.878, 188.419 134, 189.690 134 C 191.654 134, 192 134.513, 192 137.430 C 192 140.770, 191.921 140.838, 188.984 139.995 C 187.325 139.520, 184.552 138.424, 182.821 137.561 C 181.091 136.698, 179.472 136.195, 179.224 136.443 C 178.975 136.692, 179.774 138.516, 180.999 140.498 C 183.099 143.896, 183.488 144.083, 187.863 143.800 L 192.500 143.500 192.757 71.750 L 193.013 0 96.507 0 L 0 0 0 72 M 0.474 72.500 C 0.474 112.100, 0.598 128.154, 0.750 108.176 C 0.901 88.198, 0.901 55.798, 0.750 36.176 C 0.598 16.554, 0.474 32.900, 0.474 72.500 M 29 21.812 C 29 22.809, 30.349 24.622, 31.999 25.841 C 33.648 27.060, 35.629 29.571, 36.402 31.419 C 37.415 33.844, 38.805 35.111, 41.388 35.963 C 43.357 36.613, 45.858 38.275, 46.944 39.656 C 49.195 42.518, 51.380 41.906, 50.480 38.666 C 48.635 32.024, 44.411 25.582, 40.112 22.856 C 34.810 19.493, 29 18.947, 29 21.812 M 135 94.120 C 135 96.398, 140.207 102.117, 145.337 105.473 C 151.842 109.728, 161 112.627, 161 110.431 C 161 109.628, 159.537 108.104, 157.750 107.045 C 155.963 105.985, 154.050 104.747, 153.500 104.294 C 148.761 100.385, 146.412 99, 144.520 99 C 143.305 99, 141.458 98.058, 140.416 96.907 C 137.816 94.035, 135 92.585, 135 94.120 M 143.250 140.674 C 140.524 142.576, 140.348 144, 142.839 144 C 143.851 144, 145.192 142.875, 145.818 141.500 C 147.119 138.645, 146.462 138.434, 143.250 140.674" stroke="none" fill="black" fill-rule="evenodd"/>
</svg>