<svg xmlns="http://www.w3.org/2000/svg" width="192" height="144" viewBox="0 0 192 144" version="1.1">
	<path d="M 0 72 L 0 144 43 144 C 83.284 144, 86 143.889, 86.003 142.250 C 86.005 141.287, 86.488 135.361, 87.076 129.081 C 88.020 119.011, 87.960 117.557, 86.573 116.781 C 84.829 115.805, 84.519 112.772, 85.897 110.184 C 87.652 106.889, 88.963 91.452, 87.836 87.367 C 86.730 83.362, 88.401 70.488, 90.169 69.396 C 92.581 67.905, 89.219 59, 86.245 59 C 85.731 59, 84.512 58.118, 83.536 57.040 C 78.565 51.547, 88.199 39.877, 96.430 41.421 C 99.620 42.019, 103.801 45.635, 105.784 49.510 C 107.481 52.824, 111.785 77.655, 112.889 90.500 C 113.456 97.100, 113.948 108.125, 113.981 115 C 114.017 122.560, 114.707 130.765, 115.728 135.762 L 117.415 144.024 154.958 143.762 L 192.500 143.500 192.519 71.500 C 192.530 31.900, 192.410 12.629, 192.254 28.676 L 191.970 57.852 189.226 57.065 C 178.908 54.106, 165.454 42.692, 160.861 33 C 156.012 22.770, 154.564 16.989, 154.662 8.250 L 154.754 0 77.377 0 L 0 0 0 72 M 0.474 72.500 C 0.474 112.100, 0.598 128.154, 0.750 108.176 C 0.901 88.198, 0.901 55.798, 0.750 36.176 C 0.598 16.554, 0.474 32.900, 0.474 72.500" stroke="none" fill="black" fill-rule="evenodd"/>
</svg>