<svg xmlns="http://www.w3.org/2000/svg" width="192" height="144" viewBox="0 0 192 144" version="1.1">
	<path d="M 0 72 L 0 144 30.083 144 C 46.629 144, 59.995 143.662, 59.784 143.250 C 53.916 131.741, 49.699 121.966, 48.030 116 C 41.036 91.009, 41.279 61.394, 48.707 33.637 C 51.134 24.563, 51.212 23.698, 49.673 22.837 C 47.352 21.538, 47.580 18.295, 50.086 16.954 C 51.677 16.103, 53.933 16.229, 59.589 17.488 C 69.556 19.705, 84.752 24.689, 88.477 26.962 C 90.140 27.977, 100.725 31.073, 112 33.843 C 137.894 40.203, 139 40.417, 139 39.079 C 139 38.486, 138.100 38, 137 38 C 135.900 38, 135 37.745, 135 37.434 C 135 35.688, 137.286 33.124, 139.753 32.102 C 141.309 31.458, 143.402 29.409, 144.404 27.549 C 146.382 23.875, 153.755 16, 155.216 16 C 155.713 16, 158.470 13.777, 161.343 11.060 C 164.216 8.343, 169.476 4.744, 173.033 3.061 L 179.500 0.002 89.750 0.001 L 0 0 0 72 M 80.495 37.667 C 78.154 43.269, 74.234 56.645, 72.502 64.939 C 70.366 75.166, 70.333 102.906, 72.444 112.825 C 73.302 116.854, 76.141 125.513, 78.752 132.067 L 83.500 143.985 116.500 143.979 L 149.500 143.973 157.500 137.299 C 161.900 133.628, 167.943 127.720, 170.929 124.170 L 176.357 117.716 164.679 106.484 C 150.188 92.547, 149.968 91.294, 159.781 78.602 C 162.578 74.986, 164.489 71.482, 164.473 70 C 164.449 67.821, 164.045 67.531, 161.327 67.742 C 159.277 67.902, 158.006 67.458, 157.619 66.449 C 157.163 65.262, 156.588 65.150, 155.081 65.957 C 151.812 67.706, 151.152 67.186, 150.369 62.250 C 149.437 56.374, 149.746 53.993, 151.729 51.771 C 154.292 48.899, 151.073 48.253, 140.832 49.582 C 136.518 50.142, 136.139 50.014, 135.832 47.900 C 135.527 45.799, 133.655 45.138, 113 39.844 C 100.625 36.673, 88.594 34.060, 86.263 34.039 C 82.316 34.003, 81.922 34.251, 80.495 37.667 M 156 42 C 155.207 42.490, 154.890 43.223, 155.296 43.629 C 155.701 44.035, 156.558 43.842, 157.200 43.200 C 158.711 41.689, 157.868 40.846, 156 42 M 169.562 87.361 L 165.624 90.693 170.062 95.846 C 172.503 98.680, 174.725 100.999, 175 101 C 175.970 101, 176.322 88.591, 175.431 85.784 C 174.663 83.363, 174.113 83.511, 169.562 87.361" stroke="none" fill="black" fill-rule="evenodd"/>
</svg>