<svg xmlns="http://www.w3.org/2000/svg" width="192" height="144" viewBox="0 0 192 144" version="1.1">
	<path d="M 179.574 98.880 C 179.275 99.365, 177.460 104.378, 175.541 110.021 C 173.622 115.665, 171.845 120.489, 171.592 120.741 C 170.635 121.699, 169.207 119.911, 168.615 117.012 C 168.277 115.356, 167.725 112.655, 167.388 111.010 C 167.051 109.366, 166.428 108.235, 166.003 108.498 C 164.674 109.320, 158.583 106.870, 156.750 104.777 C 155.018 102.799, 155 102.805, 155 105.324 C 155 108.499, 153.250 113.227, 151.727 114.169 C 150.897 114.682, 150.995 115.378, 152.083 116.689 C 154.450 119.540, 156.505 126.332, 155.138 126.787 C 154.512 126.996, 154 128.749, 154 130.682 C 154 133.299, 154.767 134.914, 157 137 C 158.650 138.541, 160 140.747, 160 141.901 C 160 143.837, 160.555 144, 167.142 144 L 174.285 144 173.660 138.022 C 172.794 129.736, 174.309 128.381, 188 125.198 C 191.034 124.493, 191.543 123.942, 191.823 121.057 C 192.103 118.184, 191.898 117.827, 190.323 118.445 C 186.586 119.910, 173.564 122.897, 173.069 122.402 C 172.787 122.120, 174.417 116.514, 176.693 109.944 C 180.424 99.173, 181.174 96.291, 179.574 98.880 M 96.736 100.598 C 96.407 100.927, 96.345 101.736, 96.598 102.396 C 96.852 103.056, 95.938 104.649, 94.568 105.936 C 92.797 107.600, 92.322 108.742, 92.924 109.888 C 93.389 110.775, 94.089 113.862, 94.479 116.750 C 95.094 121.305, 94.962 122, 93.485 122 C 92.130 122, 91.922 122.560, 92.466 124.750 C 92.841 126.263, 94.026 128.440, 95.098 129.590 C 98.104 132.812, 99.295 138.016, 97.484 140.017 C 94.614 143.189, 95.709 144, 102.860 144 L 109.720 144 109.440 135.951 L 109.159 127.901 113.579 128.564 C 117.195 129.106, 118 128.944, 118 127.673 C 118 126.818, 117.550 125.840, 117 125.500 C 115.397 124.510, 115.840 123.275, 118 122.710 C 120.499 122.057, 120.759 116.875, 118.392 114.910 C 117.032 113.782, 116.590 113.840, 115.532 115.288 C 114.150 117.178, 111.463 117.558, 110.500 116 C 110.160 115.450, 109.110 115, 108.167 115 C 106.790 115, 106.456 114.086, 106.476 110.361 C 106.498 106.181, 106.226 105.626, 103.729 104.756 C 102.205 104.224, 100.501 102.937, 99.944 101.895 C 98.912 99.967, 97.811 99.522, 96.736 100.598 M 41.250 105.741 C 40.563 105.975, 40 106.793, 40 107.558 C 40 109.022, 35.096 112, 32.686 112 C 31.028 112, 29.506 120.661, 30.858 122.396 C 31.331 123.003, 31.973 124.850, 32.284 126.500 C 32.795 129.212, 32.497 129.649, 29.175 131.054 C 26.621 132.134, 24.432 132.371, 22 131.829 C 15.953 130.484, 6.039 132.635, 7.487 134.979 C 7.743 135.393, 9.088 135.515, 10.476 135.249 C 12.037 134.951, 13 135.223, 13 135.963 C 13 136.768, 13.968 136.946, 15.962 136.508 C 17.591 136.151, 19.728 136.326, 20.712 136.899 C 21.695 137.471, 21.938 137.953, 21.250 137.970 C 19.137 138.021, 19.868 140, 22 140 C 23.100 140, 24 140.450, 24 141 C 24 141.550, 25.098 142, 26.441 142 C 27.784 142, 29.160 142.450, 29.500 143 C 29.840 143.550, 33.441 144, 37.502 144 L 44.885 144 44.845 138.751 C 44.822 135.865, 44.408 132.762, 43.923 131.856 C 43.323 130.735, 43.534 129.802, 44.585 128.930 C 45.536 128.140, 46.052 126.279, 45.930 124.075 C 45.821 122.109, 46.052 119.749, 46.442 118.831 C 46.851 117.869, 46.474 116.127, 45.553 114.722 C 44.674 113.380, 44.230 111.564, 44.567 110.687 C 45.325 108.710, 42.947 105.164, 41.250 105.741 M 26.813 137.683 C 27.534 137.972, 28.397 137.936, 28.729 137.604 C 29.061 137.272, 28.471 137.036, 27.417 137.079 C 26.252 137.127, 26.015 137.364, 26.813 137.683" stroke="none" fill="black" fill-rule="evenodd"/>
</svg>