<svg xmlns="http://www.w3.org/2000/svg" width="192" height="144" viewBox="0 0 192 144" version="1.1">
	<path d="M 0 72 L 0 144 16.629 144 L 33.258 144 32.563 138.761 C 32.180 135.880, 31.066 132.167, 30.085 130.511 C 27.364 125.913, 24.353 117.450, 21.901 107.500 C 19.690 98.531, 19.030 83.961, 19.728 59.500 C 20.011 49.602, 19.673 46.724, 18.171 46.224 C 17.527 46.009, 17 45.210, 17 44.448 C 17 43.668, 16.385 43.299, 15.592 43.603 C 14.060 44.191, 12.128 38.605, 9.952 27.299 C 8.874 21.698, 8.945 20.778, 10.681 17.799 C 11.982 15.565, 13.878 14.092, 16.551 13.236 C 18.723 12.541, 21.400 11.577, 22.500 11.094 C 23.600 10.611, 29 8.276, 34.500 5.906 C 40 3.535, 44.927 1.237, 45.450 0.798 C 45.972 0.359, 35.960 -0, 23.200 -0 L 0 0 0 72 M 159.155 4 C 159.285 6.200, 159.780 8, 160.255 8 C 160.729 8, 160.865 8.410, 160.555 8.911 C 160.245 9.413, 160.627 11.100, 161.403 12.661 C 165.529 20.956, 168.101 28.235, 169.557 35.736 C 170.554 40.874, 170.669 43.740, 169.955 45.618 C 168.979 48.184, 168.890 48.210, 166.968 46.471 C 165.879 45.486, 164.754 44.913, 164.468 45.199 C 164.182 45.485, 163.478 49.719, 162.902 54.609 C 160.787 72.594, 155.535 85.234, 145.730 95.936 C 138.408 103.926, 126.966 109.712, 116.601 110.663 C 105.494 111.682, 93.256 106.273, 89.696 98.773 C 86.966 93.019, 88.534 89.299, 95.101 85.948 C 101.015 82.931, 107.823 78.083, 111.586 74.208 C 115.357 70.325, 117.098 65.866, 115.102 65.201 C 113.212 64.571, 110.258 61.062, 108.503 57.365 C 106.696 53.556, 105.520 53.160, 104.070 55.870 C 102.801 58.241, 97.760 60.644, 91.023 62.088 C 87.487 62.847, 84.527 64.336, 81.977 66.639 C 79.585 68.801, 78.036 69.609, 77.777 68.832 C 77.514 68.042, 77.127 68.228, 76.695 69.352 C 76.293 70.400, 76.420 70.858, 77.011 70.493 C 77.555 70.157, 78 70.359, 78 70.941 C 78 71.523, 77.610 72, 77.133 72 C 75.185 72, 72 82.339, 72 88.667 C 72 96.590, 74.971 102.975, 82.231 110.651 C 87.710 116.444, 98.451 122.260, 107.094 124.114 C 112.756 125.328, 122.062 124.175, 131.857 121.046 C 140.914 118.152, 151.818 111.839, 159.905 104.806 C 162.327 102.699, 164.546 101.213, 164.836 101.503 C 165.779 102.446, 158.666 109.010, 151.500 113.811 C 147.650 116.390, 144.350 118.837, 144.167 119.250 C 143.983 119.662, 142.965 120, 141.903 120 C 139.744 120, 136.545 121.666, 133.934 124.150 C 132.317 125.689, 132.978 125.791, 143.671 125.650 C 154.078 125.514, 155.282 125.686, 156.634 127.500 C 158.490 129.991, 157.764 134.263, 154.978 137.255 C 153.534 138.804, 153.288 139.596, 154.161 139.887 C 154.847 140.116, 156.302 141.135, 157.393 142.151 C 159.040 143.686, 161.024 144, 169.070 144 L 178.763 144 181.432 140.500 C 183.864 137.312, 186.176 135.882, 185.882 137.750 C 185.816 138.162, 185.816 139.738, 185.882 141.250 C 185.983 143.613, 186.423 144, 189 144 L 192 144 192 72 L 192 0 175.459 0 L 158.919 0 159.155 4 M 77.500 27.464 C 75.850 28.219, 74.725 28.880, 75 28.932 C 75.275 28.984, 79.158 29.193, 83.629 29.397 C 93.078 29.827, 96.304 28.733, 90.411 27.097 C 85.256 25.666, 81.174 25.782, 77.500 27.464 M 149 143 C 147.793 143.780, 147.951 143.972, 149.809 143.985 C 151.097 143.993, 151.845 143.558, 151.500 143 C 150.757 141.798, 150.861 141.798, 149 143" stroke="none" fill="black" fill-rule="evenodd"/>
</svg>