<svg xmlns="http://www.w3.org/2000/svg" width="192" height="144" viewBox="0 0 192 144" version="1.1">
	<path d="M 108.158 23 C 106.938 24.650, 105.166 26, 104.220 26.001 C 102.755 26.002, 102.500 27.053, 102.500 33.082 C 102.500 38.866, 102.155 40.414, 100.612 41.542 C 99.017 42.708, 98.894 43.353, 99.820 45.711 C 101.504 50, 99.693 66.247, 96.564 74.919 C 95.031 79.169, 95.050 79.424, 97.067 81.572 C 98.881 83.503, 99.082 84.587, 98.549 89.591 C 98.209 92.773, 97.450 95.958, 96.860 96.668 C 96.064 97.628, 96.459 98.757, 98.394 101.057 C 99.827 102.760, 101 104.800, 101 105.591 C 101 107.765, 107.101 112.863, 110.510 113.537 C 112.166 113.865, 114.791 113.650, 116.344 113.059 C 118.566 112.215, 119.908 112.337, 122.642 113.635 C 125.317 114.904, 126.389 115.011, 127.300 114.100 C 128.211 113.189, 128.151 112.711, 127.039 112.024 C 126.245 111.534, 125.232 111.356, 124.789 111.631 C 122.792 112.865, 120 110.782, 120 108.058 C 120 105.692, 119.490 105.148, 116.762 104.602 L 113.524 103.955 116.512 101.477 L 119.500 99 116.750 96.712 C 114.286 94.663, 114 93.773, 114 88.164 C 114 82.735, 114.333 81.612, 116.507 79.702 L 119.013 77.500 115.648 68 C 113.797 62.775, 111.967 57.768, 111.581 56.873 C 111.068 55.682, 111.544 55.080, 113.361 54.624 C 114.725 54.282, 116.597 54.292, 117.521 54.647 C 118.446 55.001, 119.547 54.733, 119.969 54.051 C 120.485 53.216, 120.949 53.659, 121.387 55.405 C 122.167 58.513, 124.032 58.727, 126.506 55.994 C 128.527 53.760, 128.579 53.869, 124.697 52.200 C 123.102 51.514, 121.459 49.746, 120.884 48.097 C 120.329 46.504, 118.944 44.957, 117.807 44.660 C 116.506 44.320, 115.948 43.578, 116.301 42.658 C 116.643 41.767, 116.134 41.007, 114.996 40.709 C 113.664 40.361, 113.288 39.616, 113.681 38.111 C 113.985 36.950, 114.631 36, 115.117 36 C 115.602 36, 116 34.902, 116 33.559 C 116 32.216, 116.455 30.837, 117.011 30.493 C 117.588 30.137, 116.729 28.575, 115.011 26.857 C 113.355 25.201, 112 22.981, 112 21.923 C 112 19.181, 110.715 19.541, 108.158 23 M 164.289 21 C 164.767 22.641, 162.637 27.498, 160.241 30.231 C 159.192 31.429, 159.032 32.354, 159.723 33.231 C 161.288 35.218, 162.061 42.221, 160.874 43.652 C 159.469 45.345, 160.743 52.757, 162.620 53.807 C 164.552 54.888, 163.952 60.529, 161.444 64.851 C 160.375 66.693, 158.037 70.686, 156.250 73.722 C 152.344 80.356, 152.217 82.239, 155.500 84.821 C 157.967 86.762, 158.843 90.361, 157.108 91.433 C 155.657 92.330, 150 104.693, 150 106.968 C 150 108.168, 152.135 111.130, 155 113.906 C 159.538 118.303, 160 119.166, 160 123.241 C 160 126.279, 160.675 128.588, 162.088 130.385 C 165.707 134.985, 173 137.736, 173 134.500 C 173 133.655, 172.106 133, 170.952 133 C 168.403 133, 164 128.388, 164 125.718 C 164 123.951, 164.475 123.794, 168.250 124.321 C 170.588 124.647, 175.235 126.030, 178.578 127.395 C 184.383 129.765, 191.514 130.641, 190.407 128.849 C 190.118 128.382, 190.359 128, 190.941 128 C 191.523 128, 192 127.416, 192 126.703 C 192 125.990, 188.625 123.693, 184.500 121.598 C 180.375 119.504, 177 117.356, 177 116.824 C 177 116.292, 177.656 115.201, 178.458 114.400 C 179.259 113.598, 179.655 112.264, 179.336 111.434 C 178.570 109.437, 173.740 107, 170.550 107 C 167.495 107, 167.464 106.624, 169.908 99.254 C 170.957 96.089, 172.079 92.309, 172.401 90.853 C 172.756 89.249, 174.369 87.390, 176.493 86.136 C 180.070 84.026, 180.830 82.230, 178.944 80.344 C 178.363 79.763, 177.252 75.642, 176.474 71.186 C 175.226 64.041, 175.240 62.576, 176.590 58.792 C 177.431 56.431, 177.883 53.280, 177.593 51.789 C 176.903 48.241, 177.926 47.751, 183.440 48.987 C 189.046 50.243, 192 48.824, 192 44.876 C 192 41.867, 190.102 41.036, 183.182 41.014 L 178.864 41 181.041 37.942 C 184.127 33.609, 182.840 33.225, 179.456 37.469 C 175.972 41.839, 173.449 42.234, 174.474 38.250 C 174.863 36.737, 175.253 33.363, 175.341 30.750 C 175.474 26.769, 175.206 26, 173.684 26 C 171.188 26, 167.857 24.183, 165.676 21.633 C 164.606 20.381, 164.033 20.120, 164.289 21 M 44.633 24.701 C 44.285 25.049, 44 26.080, 44 26.992 C 44 28.856, 40.493 32.349, 37.583 33.384 C 36.122 33.903, 35.943 34.343, 36.833 35.233 C 37.475 35.875, 38 37.885, 38 39.700 C 38 41.515, 38.378 43, 38.839 43 C 39.301 43, 40.205 44.154, 40.847 45.564 C 41.803 47.662, 41.728 48.415, 40.435 49.708 C 39.458 50.685, 39.076 52.167, 39.434 53.594 C 39.930 55.568, 39.380 56.181, 35.622 57.843 C 33.207 58.911, 29.413 60.092, 27.191 60.468 C 23.867 61.029, 22.782 60.782, 21.075 59.075 C 18.659 56.659, 16.637 56.561, 8.650 58.469 C 1.746 60.118, 1.538 60.269, 2.839 62.700 C 4.167 65.180, 38.689 82.462, 41.802 82.204 C 43.744 82.044, 44.068 82.344, 43.469 83.752 C 43.060 84.714, 42.229 87.243, 41.623 89.374 C 40.613 92.923, 40.714 93.384, 42.821 94.874 C 44.086 95.768, 46.332 97.475, 47.811 98.666 L 50.500 100.832 48.145 103.342 C 46.850 104.723, 46.089 106.335, 46.454 106.926 C 46.819 107.517, 46.641 108, 46.059 108 C 45.477 108, 45 108.602, 45 109.338 C 45 110.889, 35.098 116, 32.092 116 C 30.974 116, 28.063 114.593, 25.624 112.874 L 21.190 109.749 14.044 112.552 C 10.114 114.094, 6.690 115.693, 6.435 116.105 C 6.180 116.517, 9.889 120.150, 14.676 124.177 C 19.464 128.205, 26.651 134.313, 30.648 137.750 C 37.641 143.764, 38.116 143.997, 43.208 143.921 C 47.095 143.864, 49.674 143.128, 52.924 141.150 C 55.357 139.669, 57.527 137.918, 57.747 137.260 C 57.966 136.601, 56.088 134.611, 53.573 132.838 C 51.058 131.066, 49.005 129.364, 49.010 129.057 C 49.016 128.751, 50.781 127.761, 52.933 126.857 C 55.977 125.579, 56.919 124.592, 57.173 122.415 C 57.427 120.244, 58.192 119.438, 60.581 118.823 C 62.276 118.387, 64.443 117.168, 65.396 116.115 C 67.049 114.288, 67.025 114.101, 64.876 112.099 C 63.637 110.945, 62.252 110, 61.798 110 C 61.344 110, 59.793 107.412, 58.350 104.250 C 56.907 101.087, 54.648 97.495, 53.330 96.266 C 51.072 94.163, 51.024 93.893, 52.511 91.624 C 53.472 90.157, 55.759 88.795, 58.361 88.139 C 60.710 87.548, 63.424 86.189, 64.391 85.121 C 66.082 83.251, 65.993 82.893, 62.032 75.676 C 59.768 71.550, 57.259 67.630, 56.457 66.965 C 55.466 66.142, 55 63.760, 55 59.512 C 55 54.793, 54.514 52.652, 53.009 50.738 C 51.328 48.601, 51.250 48.118, 52.509 47.635 C 54.245 46.969, 54.474 42.754, 52.931 39.870 C 52.168 38.446, 52.173 37.496, 52.948 36.563 C 53.772 35.569, 53.427 34.854, 51.517 33.603 C 50.133 32.696, 49 31.248, 49 30.385 C 49 28.418, 45.487 23.846, 44.633 24.701 M 37 61.732 C 32.525 63.601, 32.246 63.911, 34.029 65.039 C 36.222 66.426, 41.597 66.191, 42.874 64.652 C 43.723 63.629, 43.571 62.938, 42.246 61.787 C 40.703 60.447, 40.093 60.441, 37 61.732 M 102.955 87.168 C 101.311 93.272, 102.768 96.003, 107.178 95.086 C 110.377 94.420, 110.492 94.231, 110.283 90.006 C 109.987 83.999, 109.458 83, 106.570 83 C 104.491 83, 103.891 83.692, 102.955 87.168 M 163.835 89.588 C 163.137 91.190, 161.143 94.300, 159.405 96.500 C 153.764 103.638, 153.751 108.620, 159.377 107.458 C 162.670 106.778, 165.316 104.320, 164.382 102.809 C 164.077 102.316, 164.252 101.370, 164.770 100.706 C 165.288 100.043, 166.251 97.291, 166.910 94.590 C 167.924 90.439, 167.877 89.449, 166.607 88.178 C 165.271 86.842, 164.964 86.998, 163.835 89.588 M 35.556 117.336 C 33.838 118.591, 33.915 118.803, 36.838 120.885 C 39.331 122.660, 40.349 122.884, 41.974 122.014 C 44.308 120.765, 44.362 120.544, 42.965 117.934 C 41.766 115.695, 38.194 115.406, 35.556 117.336" stroke="none" fill="black" fill-rule="evenodd"/>
</svg>