<svg xmlns="http://www.w3.org/2000/svg" width="192" height="144" viewBox="0 0 192 144" version="1.1">
	<path d="M 0 72 L 0 144 39.858 144 L 79.716 144 80.984 134.750 C 82.071 126.823, 82.288 115.197, 81.521 106 C 81.406 104.625, 81.242 101.574, 81.156 99.220 L 81 94.940 78.250 96.962 C 75.755 98.797, 74.901 98.887, 69.049 97.938 C 65.501 97.362, 61.451 96.998, 60.049 97.127 C 58.647 97.257, 56.504 97.031, 55.288 96.626 C 54.044 96.212, 52.135 96.393, 50.927 97.039 C 48.462 98.359, 33 97.373, 33 95.896 C 33 95.403, 33.660 95, 34.466 95 C 36.981 95, 43 91.695, 43 90.315 C 43 89.579, 41.899 89, 40.500 89 C 39.125 89, 38 88.578, 38 88.061 C 38 86.843, 46.282 85.603, 49.322 86.366 C 50.613 86.690, 53.178 86.523, 55.021 85.994 C 57.461 85.294, 59.729 85.436, 63.367 86.516 C 72.221 89.146, 73.393 88.768, 75.317 82.662 C 76.243 79.726, 77 76.506, 77 75.506 C 77 74.507, 78.131 72.206, 79.514 70.393 C 80.897 68.580, 82.197 65.641, 82.404 63.862 C 82.651 61.746, 83.860 59.741, 85.900 58.064 C 89.470 55.128, 90.005 52.924, 86.954 53.722 C 84.352 54.403, 78.991 48.752, 79.692 46.069 C 80.040 44.739, 79.344 43.967, 77.086 43.180 C 72.458 41.567, 71.403 38.314, 73.479 32.064 C 74.481 29.045, 76.179 26.273, 77.593 25.347 C 79.194 24.298, 80 22.826, 80 20.948 C 80 18.508, 80.431 18.084, 83.192 17.813 C 85.871 17.550, 86.523 16.962, 87.244 14.163 C 87.816 11.938, 88.561 11.001, 89.478 11.353 C 90.235 11.644, 91.392 11.233, 92.049 10.441 C 93.633 8.532, 94.982 8.623, 96.662 10.750 C 99.106 13.843, 102 19.863, 102 21.853 C 102 22.916, 102.696 24.053, 103.546 24.379 C 106.639 25.566, 110.832 37.011, 112.426 48.619 C 113.272 54.777, 115.241 63.255, 116.837 67.619 C 120.698 78.173, 122.623 88.544, 121.069 90.417 C 120.431 91.186, 119.995 93.545, 120.101 95.658 C 120.266 98.942, 118.584 105.750, 113.918 120.674 C 113.372 122.419, 112.649 128.387, 112.311 133.935 L 111.696 144.023 152.098 143.761 L 192.500 143.500 192.757 71.750 L 193.013 0 96.507 0 L 0 0 0 72 M 0.474 72.500 C 0.474 112.100, 0.598 128.154, 0.750 108.176 C 0.901 88.198, 0.901 55.798, 0.750 36.176 C 0.598 16.554, 0.474 32.900, 0.474 72.500" stroke="none" fill="black" fill-rule="evenodd"/>
</svg>