<svg xmlns="http://www.w3.org/2000/svg" width="192" height="144" viewBox="0 0 192 144" version="1.1">
	<path d="M 101.502 9.998 C 97.858 13.730, 97.706 14.134, 98.710 17.406 C 99.667 20.526, 99.524 21.094, 97.254 23.183 C 88.194 31.521, 89.442 49.235, 99.270 51.794 C 101.836 52.462, 102.500 53.155, 102.500 55.161 C 102.500 56.829, 103.689 58.673, 106 60.587 C 107.925 62.182, 110.132 64.090, 110.904 64.826 C 111.822 65.702, 113.465 65.948, 115.654 65.537 C 117.931 65.110, 119 65.291, 119 66.104 C 119 67.723, 112.846 73.597, 110.305 74.403 C 108.001 75.134, 102.990 84.033, 103.018 87.342 C 103.040 89.818, 99.752 100.980, 99 100.988 C 98.176 100.996, 93.266 90.798, 92.025 86.500 C 91.390 84.300, 90.655 81.992, 90.392 81.371 C 90.090 80.658, 92.414 79.782, 96.707 78.992 C 109.580 76.622, 108.449 75.329, 94.828 76.845 C 89.954 77.388, 87.680 77.239, 86.387 76.294 C 83.721 74.345, 80.761 74.725, 77 77.500 C 75.136 78.875, 73.136 79.997, 72.556 79.993 C 71.975 79.989, 69.913 77.183, 67.974 73.758 C 63.764 66.323, 60.207 64.348, 56.929 67.626 L 54.902 69.654 58.867 76.577 C 61.661 81.455, 63.047 85.263, 63.559 89.469 C 64.802 99.690, 65.813 101.085, 75.430 105.850 C 81.447 108.832, 84.435 110.941, 85.466 112.934 C 86.273 114.495, 89.648 118.229, 92.967 121.232 C 96.285 124.235, 99 127.254, 99 127.941 C 99 128.629, 98.265 130.436, 97.366 131.958 C 96.143 134.027, 95.907 135.893, 96.427 139.362 L 97.123 144 122.561 144 C 140.335 144, 148 143.670, 148 142.904 C 148 140.967, 144.620 136.014, 142.932 135.479 C 141.089 134.893, 138.997 122.788, 138.999 112.719 C 139 108.501, 138.594 106.782, 137.500 106.362 C 134.321 105.142, 136.210 104.067, 140.500 104.655 C 143.554 105.074, 145 104.907, 145 104.136 C 145 103.511, 146.125 103, 147.500 103 C 148.875 103, 150 102.550, 150 102 C 150 101.450, 150.911 101, 152.025 101 C 153.292 101, 154.473 99.972, 155.182 98.250 C 156.077 96.078, 156.402 95.868, 156.731 97.250 C 156.959 98.213, 157.599 99, 158.153 99 C 159.089 99, 158.762 102.235, 157.292 107.500 C 156.737 109.489, 156.747 109.489, 158.930 107.538 L 161.125 105.577 160.434 110.788 C 159.932 114.571, 160.073 116, 160.948 116 C 161.678 116, 162.083 117.282, 161.975 119.250 C 161.705 124.192, 161.874 124.542, 163.523 122.441 C 164.941 120.632, 165.002 120.756, 164.411 124.250 C 163.807 127.824, 165.011 129.409, 166.500 127 C 167.475 125.423, 169.001 125.835, 168.361 127.502 C 168.044 128.328, 168.062 130.113, 168.402 131.467 C 169.134 134.380, 171.523 133.932, 172.362 130.724 C 173.364 126.894, 173.916 129.444, 172.969 133.528 C 172.462 135.713, 172.037 138.963, 172.024 140.750 L 172 144 182 144 L 192 144 192 110.586 L 192 77.172 185.570 73.576 C 177.971 69.327, 169.532 61.855, 164.336 54.777 C 161.952 51.529, 160.439 50.199, 160.149 51.096 C 158.841 55.146, 142.005 75, 139.879 75 C 138.450 75, 137 71.237, 137 67.528 C 137 64.194, 137.205 63.946, 139.750 64.212 C 142.270 64.476, 142.542 64.166, 143.006 60.500 C 143.452 56.975, 143.646 56.728, 144.640 58.418 C 145.664 60.159, 145.837 60.021, 146.524 56.918 C 147.733 51.450, 147.302 48.378, 144.680 43.794 C 143.329 41.432, 141.697 37.212, 141.052 34.416 C 140.408 31.620, 139.032 27.938, 137.996 26.233 C 135.243 21.706, 126.395 15.098, 121.242 13.720 C 118.186 12.902, 116.500 11.816, 115.920 10.290 C 115.453 9.061, 113.930 7.818, 112.535 7.528 C 111.141 7.238, 108.955 6.787, 107.678 6.526 C 105.941 6.171, 104.385 7.045, 101.502 9.998 M 133 67.941 C 133 68.459, 133.450 69.160, 134 69.500 C 134.550 69.840, 135 69.416, 135 68.559 C 135 67.702, 134.550 67, 134 67 C 133.450 67, 133 67.423, 133 67.941 M 79.500 91 C 83.517 95.113, 84.676 95.937, 83.373 93.750 C 80.997 89.762, 78.434 87, 77.109 87 C 76.154 87, 77.039 88.479, 79.500 91 M 134.750 112.577 C 133.533 113.805, 133.979 121.257, 135.464 124.500 L 136.838 127.500 136.845 124 C 136.856 118.633, 135.590 111.730, 134.750 112.577" stroke="none" fill="black" fill-rule="evenodd"/>
</svg>