<svg xmlns="http://www.w3.org/2000/svg" width="192" height="144" viewBox="0 0 192 144" version="1.1">
	<path d="M 1.250 1.496 C 0.275 2.603, 0 18.448, 0 73.458 L 0 144 35.383 144 L 70.767 144 71.370 141.750 C 71.701 140.512, 72.024 135.675, 72.086 131 C 72.148 126.325, 72.527 121.375, 72.927 120 C 73.470 118.133, 73.065 116.784, 71.327 114.673 C 68.338 111.042, 68.373 107.447, 71.500 97 C 72.875 92.406, 74 88.502, 74 88.324 C 74 87.431, 71.161 88.252, 66.311 90.546 C 58.646 94.172, 42.580 99.540, 35.269 100.919 C 16.168 104.519, 0.250 106.023, 1.429 104.115 C 1.978 103.226, 5.505 102.325, 12 101.414 C 20.747 100.188, 22 99.831, 22 98.562 C 22 97.820, 21.341 96.961, 20.536 96.652 C 19.423 96.225, 19.283 95.421, 19.952 93.295 C 21.789 87.455, 21.939 83.065, 20.331 82.166 C 19.023 81.433, 18.991 80.987, 20.121 79.177 C 21.128 77.566, 21.169 76.769, 20.292 75.892 C 19.415 75.015, 19.603 73.545, 21.067 69.830 C 22.130 67.133, 23 62.950, 23 60.534 C 23 55.789, 24.868 53, 28.048 53 C 30.256 53, 33.497 57.388, 32.491 59.015 C 32.116 59.622, 31.827 62.397, 31.848 65.182 C 31.878 68.971, 32.405 70.729, 33.944 72.162 C 36.527 74.569, 36.598 77, 34.083 77 C 33.029 77, 31.996 77.513, 31.787 78.140 C 31.482 79.055, 36.603 95.538, 37.600 96.850 C 37.746 97.042, 39.502 96.659, 41.502 95.999 C 43.940 95.195, 44.960 94.339, 44.600 93.400 C 44.284 92.577, 44.692 92, 45.590 92 C 46.431 92, 46.840 92.450, 46.500 93 C 46.160 93.550, 46.257 94, 46.716 94 C 48.799 94, 69.636 84.659, 70.750 83.226 C 72.446 81.044, 72.325 79, 70.500 79 C 69.675 79, 69 78.346, 69 77.548 C 69 76.741, 65.665 74.424, 61.500 72.337 C 57.375 70.270, 54 68.009, 54 67.314 C 54 66.536, 56.941 67.599, 61.647 70.078 C 69.969 74.460, 72.215 74.250, 69.669 69.327 C 68.304 66.688, 68.346 65.880, 70.129 60.462 C 71.516 56.245, 73.273 53.402, 76.131 50.750 C 78.353 48.687, 80.620 47, 81.169 47 C 81.718 47, 81.977 46.437, 81.746 45.750 C 81.514 45.059, 80.165 44.640, 78.731 44.813 C 73.359 45.460, 72.353 37.574, 76.991 31.171 C 80.370 26.507, 83.233 25.378, 87.534 27.013 C 90.227 28.037, 90.726 27.871, 93.157 25.150 C 94.625 23.508, 96.765 21.661, 97.913 21.047 C 99.702 20.089, 100 20.212, 100 21.906 C 100 22.993, 100.482 24.180, 101.071 24.544 C 101.741 24.958, 101.884 26.756, 101.454 29.353 C 100.539 34.879, 99.253 37.123, 97.198 36.782 C 95.868 36.561, 95.532 37.204, 95.647 39.750 C 95.744 41.871, 95.330 43, 94.456 43 C 93.720 43, 92.821 43.480, 92.459 44.067 C 91.282 45.971, 92.766 46.200, 95.344 44.510 C 96.729 43.603, 99.839 42.691, 102.256 42.485 C 104.672 42.278, 108.866 41.240, 111.575 40.177 C 114.284 39.114, 118.309 37.942, 120.520 37.573 C 127.039 36.485, 127.328 36.018, 124.940 30.427 C 119.965 18.776, 120.126 19, 116.703 18.996 C 109.203 18.988, 104.081 12.146, 105.400 3.897 L 106.024 0 54.262 0.038 C 10.840 0.070, 2.299 0.305, 1.250 1.496 M 142.850 5.232 C 145.683 8.109, 148 10.798, 148 11.207 C 148 11.615, 149.345 11.681, 150.988 11.352 C 153.027 10.945, 154.854 11.341, 156.738 12.600 C 158.257 13.614, 159.838 14.345, 160.250 14.222 C 161.429 13.873, 161.125 16.804, 159.904 17.559 C 159.301 17.932, 158.116 17.544, 157.270 16.698 C 155.886 15.314, 155.405 15.316, 152.471 16.715 C 148.176 18.764, 145.201 17.899, 140.136 13.128 C 131.777 5.256, 130.047 4.980, 128.468 11.271 C 128.087 12.790, 126.701 14.877, 125.388 15.910 C 124.074 16.943, 123 18.526, 123 19.429 C 123 22.228, 129.351 36, 130.642 36 C 132.387 36, 136.109 41.552, 135.474 43.207 C 135.181 43.971, 136.079 45.665, 137.471 46.972 C 138.862 48.279, 140 49.763, 140 50.270 C 140 50.777, 140.812 52.386, 141.804 53.846 C 142.796 55.306, 144.476 58.525, 145.536 61 C 146.596 63.475, 149.008 68.200, 150.897 71.500 C 152.785 74.800, 156.191 81.100, 158.465 85.500 C 165.446 99.008, 167.953 102.339, 170.426 101.390 C 171.292 101.058, 172 101.174, 172 101.648 C 172 102.392, 169.308 103.570, 164.119 105.094 C 161.256 105.935, 147.412 81.303, 134.137 51.750 C 132.071 47.150, 130.531 44.975, 129.303 44.921 C 128.253 44.875, 128.023 44.631, 128.750 44.338 C 130.412 43.667, 130.337 41.525, 128.602 40.084 C 127.511 39.179, 125.150 39.733, 117.852 42.610 C 112.708 44.637, 107.375 47.322, 106 48.576 C 104.625 49.831, 102.150 51.156, 100.500 51.522 C 93.931 52.976, 93.850 53.034, 94.443 55.837 C 94.753 57.301, 95.083 61.700, 95.177 65.611 C 95.324 71.746, 95.579 72.661, 97.036 72.280 C 99.543 71.625, 100.377 75.745, 97.897 76.533 C 95.729 77.221, 95.564 78.450, 97.060 82.741 C 98.176 85.943, 103.373 88.801, 114.738 92.465 C 117.619 93.393, 120.214 94.537, 120.505 95.007 C 121.796 97.096, 118.533 96.811, 110.579 94.138 C 105.860 92.552, 102 91.502, 102 91.804 C 102 92.659, 109.407 103.459, 110.250 103.833 C 110.662 104.017, 111 105.276, 111 106.631 C 111 109.273, 106.988 113.650, 103.250 115.086 C 100.605 116.102, 100.535 116.895, 102.511 123.409 C 103.330 126.109, 104 130.700, 104 133.612 C 104 136.524, 104.522 140.052, 105.161 141.453 L 106.321 144 149.161 144 L 192 144 192 72 L 192 0 164.850 0 L 137.700 0 142.850 5.232 M 45.500 4 C 45.160 4.550, 45.332 5, 45.882 5 C 46.432 5, 47.160 4.550, 47.500 4 C 47.840 3.450, 47.668 3, 47.118 3 C 46.568 3, 45.840 3.450, 45.500 4 M 71 21 C 71 21.550, 71.477 22, 72.059 22 C 72.641 22, 72.840 21.550, 72.500 21 C 72.160 20.450, 71.684 20, 71.441 20 C 71.198 20, 71 20.450, 71 21 M 51 44 C 51 44.550, 51.477 45, 52.059 45 C 52.641 45, 52.840 44.550, 52.500 44 C 52.160 43.450, 51.684 43, 51.441 43 C 51.198 43, 51 43.450, 51 44 M 88.500 45 C 88.160 45.550, 88.584 46, 89.441 46 C 90.298 46, 91 45.550, 91 45 C 91 44.450, 90.577 44, 90.059 44 C 89.541 44, 88.840 44.450, 88.500 45 M 188.229 48.188 C 188.847 50.042, 191 50.349, 191 48.583 C 191 47.712, 190.287 47, 189.417 47 C 188.546 47, 188.011 47.534, 188.229 48.188 M 76.126 63.366 C 74.062 65.563, 73.988 66.080, 75.088 70.616 C 76.573 76.741, 77.502 77.799, 78.977 75.043 C 79.869 73.375, 79.854 72.529, 78.912 71.394 C 77.982 70.274, 77.966 69.634, 78.842 68.758 C 80.158 67.442, 80.434 61, 79.174 61 C 78.720 61, 77.348 62.065, 76.126 63.366 M 32.015 96.250 C 32.024 96.938, 32.401 98.084, 32.854 98.797 C 33.513 99.838, 33.924 99.797, 34.924 98.591 C 35.611 97.764, 35.882 96.618, 35.527 96.044 C 34.624 94.583, 31.997 94.737, 32.015 96.250 M 25.245 98.250 C 25.471 98.938, 26.725 99.656, 28.030 99.846 C 30.103 100.148, 30.236 99.990, 29.080 98.596 C 27.514 96.709, 24.652 96.451, 25.245 98.250 M 79.035 122 C 78.535 123.925, 77.814 129.662, 77.434 134.750 L 76.742 144 88.371 144 C 101.891 144, 101.060 145.087, 97.928 131.500 C 94.676 117.391, 95.276 118.116, 87.027 118.322 L 79.944 118.500 79.035 122" stroke="none" fill="black" fill-rule="evenodd"/>
</svg>