<svg xmlns="http://www.w3.org/2000/svg" width="192" height="144" viewBox="0 0 192 144" version="1.1">
	<path d="M 0 72 L 0 144 35.338 144 L 70.677 144 72.878 135.250 C 74.088 130.438, 76.458 122.906, 78.143 118.514 C 81.350 110.154, 81.464 107.152, 78.931 97.743 L 77.864 93.780 75.617 95.890 C 72.733 98.599, 70.836 98.541, 63.500 95.519 C 60.200 94.160, 56.491 93.037, 55.258 93.024 C 54.024 93.011, 51.866 91.710, 50.462 90.134 C 48.508 87.941, 46.714 87.126, 42.827 86.666 C 35.026 85.742, 26.997 80.738, 32.769 80.398 C 39.185 80.020, 38.858 80.285, 37.885 76.250 C 37.388 74.188, 36.765 69.913, 36.501 66.750 C 36.100 61.940, 36.283 61, 37.626 61 C 38.982 61, 39.127 60.171, 38.561 55.641 C 37.848 49.933, 38.596 45, 40.176 45 C 40.703 45, 40.843 45.919, 40.487 47.042 C 40.130 48.165, 40.166 50.978, 40.567 53.292 C 40.968 55.606, 41.516 56.825, 41.785 56 C 42.054 55.175, 43.096 53.711, 44.100 52.746 C 45.104 51.781, 46.409 49.194, 47.001 46.996 C 47.593 44.798, 48.457 43, 48.922 43 C 49.873 43, 50.966 46.460, 50.986 49.539 C 50.994 50.660, 51.874 53.291, 52.941 55.385 C 54.814 59.058, 54.969 66.475, 53.267 71 C 52.957 71.825, 52.803 73.524, 52.926 74.776 C 53.099 76.531, 52.412 77.309, 49.922 78.177 C 46.997 79.197, 46.857 79.422, 48.433 80.574 C 49.419 81.296, 51.546 81.623, 53.348 81.331 C 55.660 80.956, 58.148 81.657, 62.485 83.908 C 65.763 85.608, 68.774 87, 69.175 87 C 70.119 87, 71.987 80.279, 71.994 76.861 C 71.997 75.409, 72.855 73.166, 73.899 71.876 C 75.276 70.176, 75.646 68.592, 75.244 66.116 C 74.841 63.635, 75.138 62.372, 76.327 61.503 C 77.540 60.616, 78.119 57.995, 78.559 51.403 C 79.245 41.115, 82.036 30.495, 85.065 26.645 L 87.169 23.969 83.975 24.235 C 78.700 24.673, 78.174 22.362, 81.789 14.637 C 83.497 10.987, 85.481 8.020, 86.197 8.044 C 89.134 8.143, 95.098 10.910, 98.948 13.959 C 102.583 16.837, 103.527 17.134, 107.274 16.571 C 119.802 14.690, 120.001 14.691, 119.988 16.649 C 119.982 17.667, 119.328 20.936, 118.536 23.913 C 117.415 28.125, 117.338 30.235, 118.191 33.423 C 119.143 36.982, 119.003 38.074, 117.126 41.754 C 115.937 44.083, 114.636 45.920, 114.233 45.835 C 113.830 45.751, 112.712 46.027, 111.750 46.448 C 110.394 47.041, 110 48.429, 110 52.607 C 110 55.573, 110.450 58, 111 58 C 111.550 58, 112 58.620, 112 59.378 C 112 60.135, 112.749 61.373, 113.666 62.128 C 114.582 62.882, 116.928 65.975, 118.880 69 C 122.262 74.240, 122.417 74.867, 122.167 82.257 C 121.862 91.251, 121.811 91.203, 132.990 92.437 C 136.560 92.831, 140.062 93.636, 140.773 94.226 C 141.699 94.995, 143.161 94.937, 145.934 94.022 C 150.107 92.645, 161 93.404, 161 95.072 C 161 96.582, 157.357 99.778, 153.291 101.835 C 150.317 103.340, 147.776 103.697, 141.500 103.492 C 137.100 103.348, 132.375 102.784, 131 102.239 C 129.625 101.694, 126.025 100.917, 123 100.512 C 119.975 100.107, 116.995 99.369, 116.377 98.871 C 115.759 98.373, 114.521 98.246, 113.627 98.590 C 110.504 99.788, 111.514 108.957, 115.907 119.301 C 118.055 124.360, 120.868 131.989, 122.157 136.252 L 124.500 144.005 158.500 143.752 L 192.500 143.500 192.757 71.750 L 193.013 0 96.507 0 L 0 0 0 72 M 0.474 72.500 C 0.474 112.100, 0.598 128.154, 0.750 108.176 C 0.901 88.198, 0.901 55.798, 0.750 36.176 C 0.598 16.554, 0.474 32.900, 0.474 72.500 M 41.813 79.683 C 42.534 79.972, 43.397 79.936, 43.729 79.604 C 44.061 79.272, 43.471 79.036, 42.417 79.079 C 41.252 79.127, 41.015 79.364, 41.813 79.683 M 111 94 C 111 95.100, 111.633 96, 112.406 96 C 113.320 96, 113.630 95.300, 113.290 94 C 113.002 92.900, 112.369 92, 111.883 92 C 111.398 92, 111 92.900, 111 94" stroke="none" fill="black" fill-rule="evenodd"/>
</svg>