<svg xmlns="http://www.w3.org/2000/svg" width="192" height="144" viewBox="0 0 192 144" version="1.1">
	<path d="M 0 26.362 L 0 52.723 16.750 53.277 C 25.963 53.582, 36.147 54.353, 39.382 54.991 C 46.856 56.464, 50 55.757, 50 52.604 C 50 50.411, 49.694 50.280, 45.630 50.738 C 38.656 51.524, 38.643 49.001, 45.578 40.492 C 48.809 36.528, 48.838 36.397, 48.288 28.371 L 47.732 20.258 52.106 16.013 C 54.512 13.678, 57.385 11.353, 58.490 10.846 C 59.596 10.340, 62.300 8.830, 64.500 7.493 C 66.700 6.155, 70.429 4.768, 72.787 4.411 C 76.567 3.839, 77.774 4.194, 82.984 7.409 L 88.894 11.057 95.073 8.975 C 106.435 5.148, 108.959 8.077, 101.946 16.949 L 97.793 22.203 101.599 26.102 C 103.693 28.246, 104.856 30, 104.184 30 C 103.380 30, 103.176 30.855, 103.589 32.500 C 103.934 33.875, 103.789 35, 103.266 35 C 102.743 35, 101.457 36.607, 100.407 38.571 C 98.529 42.087, 98.529 42.163, 100.425 43.559 C 102.001 44.719, 102.156 45.388, 101.281 47.238 C 100.693 48.482, 99.426 51.750, 98.465 54.500 C 97.505 57.250, 96.394 59.950, 95.997 60.500 C 95.600 61.050, 94.954 62.850, 94.560 64.500 C 94.166 66.150, 93.132 68.290, 92.262 69.256 C 91.391 70.222, 90.864 71.186, 91.089 71.397 C 92.658 72.868, 111.335 80.809, 112.329 80.427 C 114.064 79.761, 129.267 88.509, 130.568 90.923 C 132.139 93.836, 148.128 104.982, 150.750 104.992 C 151.988 104.996, 153 105.450, 153 106 C 153 106.550, 153.671 107, 154.492 107 C 155.312 107, 156.545 107.900, 157.232 109 C 157.919 110.100, 159.012 111, 159.661 111 C 160.310 111, 161.161 112.463, 161.553 114.250 C 161.944 116.038, 164.427 119.869, 167.071 122.764 C 172.441 128.644, 180.190 138.619, 181.965 141.934 C 182.946 143.767, 183.855 144.057, 187.813 143.802 L 192.500 143.500 192.692 71.750 L 192.883 0 96.442 0 L 0 0 0 26.362 M 0.437 27 C 0.437 41.575, 0.577 47.537, 0.747 40.250 C 0.918 32.962, 0.918 21.037, 0.747 13.750 C 0.577 6.462, 0.437 12.425, 0.437 27 M 3.250 63.706 L 1 64.139 1 104.070 L 1 144 37 144 L 73 144 72.963 135.750 C 72.917 125.372, 70.792 114.052, 68.587 112.440 C 66.116 110.633, 64.947 105.306, 65.670 99.150 C 66.142 95.136, 66.005 93.879, 65.154 94.405 C 63.591 95.371, 62 90.951, 62 85.642 C 62 81.484, 61.927 81.395, 57.551 80.225 C 52.614 78.904, 46.395 73.424, 45.419 69.532 C 44.922 67.552, 43.853 66.907, 39.654 66.051 C 28.221 63.719, 9.458 62.510, 3.250 63.706 M 105.539 94.220 C 106.340 98.769, 107 98.971, 107 94.667 C 107 92.650, 106.544 91, 105.986 91 C 105.393 91, 105.207 92.337, 105.539 94.220 M 126.174 104.226 C 124.494 105.906, 124.707 107.059, 127.181 109.692 L 129.361 112.013 126.504 114.996 C 124.932 116.637, 123.943 118.276, 124.306 118.639 C 124.669 119.002, 128.222 118.761, 132.202 118.104 C 144.289 116.108, 143.994 113.131, 130.924 105.217 C 128.187 103.560, 127.073 103.327, 126.174 104.226 M 152 127.573 C 150.625 128.922, 149.031 131.932, 148.458 134.263 C 147.171 139.495, 145.087 139.971, 136.500 136.996 C 133.200 135.853, 125.775 134.464, 120 133.910 L 109.500 132.902 107.250 135.507 C 106.013 136.939, 105 139.436, 105 141.056 L 105 144 138.568 144 L 172.136 144 170.172 141.250 C 167.333 137.276, 155.942 124.989, 155.161 125.060 C 154.798 125.094, 153.375 126.224, 152 127.573" stroke="none" fill="black" fill-rule="evenodd"/>
</svg>