<svg xmlns="http://www.w3.org/2000/svg" width="192" height="144" viewBox="0 0 192 144" version="1.1">
	<path d="M 0 56.500 L 0 113 5.500 113 L 11 113 11 105.582 C 11 96.362, 11.418 95.270, 15.621 93.514 C 18.551 92.290, 19 91.635, 19 88.586 C 19 86.094, 19.582 84.759, 21 84 C 22.170 83.374, 23 81.906, 23 80.465 C 23 79.109, 23.450 78, 24 78 C 24.550 78, 25 79.334, 25 80.965 C 25 82.801, 25.688 84.298, 26.807 84.897 C 28.156 85.619, 28.513 86.736, 28.213 89.301 C 27.852 92.395, 28.123 92.847, 30.921 93.823 C 34.917 95.216, 35.817 97.829, 35.212 106.288 L 34.721 113.148 38.110 112.824 C 41.385 112.511, 41.518 112.330, 42.029 107.500 C 42.520 102.856, 45.272 97, 46.963 97 C 48.043 97, 50.893 104.032, 51.219 107.500 C 51.475 110.229, 51.906 110.561, 56 111.176 C 58.475 111.548, 64.072 111.885, 68.438 111.926 C 74.946 111.987, 76.972 112.405, 79.681 114.250 C 81.499 115.487, 82.989 116.838, 82.993 117.250 C 82.997 117.662, 83.450 118, 84 118 C 84.589 118, 85 114.488, 85 109.465 C 85 103.292, 85.447 100.247, 86.615 98.465 C 88.654 95.352, 89.360 95.374, 91.485 98.617 C 92.981 100.901, 93.182 103.951, 93.059 122.617 L 92.920 144 142.300 144 L 191.680 144 192.340 119.838 C 192.703 106.549, 193 74.149, 193 47.838 L 193 0 96.500 0 L 0 0 0 56.500 M 0.468 57 C 0.468 88.075, 0.594 100.788, 0.749 85.250 C 0.904 69.713, 0.904 44.288, 0.749 28.750 C 0.594 13.213, 0.468 25.925, 0.468 57 M 115.540 35.937 C 114.129 38.172, 112.498 40, 111.916 40 C 111.334 40, 110.222 40.635, 109.446 41.411 C 108.671 42.187, 107.465 43.052, 106.768 43.335 C 104.739 44.156, 107.827 45.858, 110.213 45.234 C 113.132 44.471, 114.072 46.779, 113.391 53.040 C 112.915 57.427, 113.123 58.857, 114.395 59.913 C 117.026 62.096, 116.300 65.744, 112.500 69.434 C 110.575 71.304, 108.490 73.003, 107.867 73.211 C 106.053 73.816, 107.827 77.706, 110.283 78.508 C 111.502 78.905, 112.838 79.348, 113.250 79.490 C 113.662 79.633, 114.419 79.806, 114.930 79.875 C 115.442 79.944, 116.005 81.013, 116.180 82.250 C 116.656 85.600, 119.291 84.969, 120.357 81.250 C 120.870 79.463, 121.809 78, 122.445 78 C 124.261 78, 126 80.201, 126 82.500 C 126 83.655, 126.505 85.105, 127.122 85.722 C 128.669 87.269, 131 86.183, 131 83.914 C 131 82.281, 131.318 82.188, 133.500 83.182 C 134.875 83.808, 136.029 84.811, 136.063 85.411 C 136.098 86.010, 136.512 85.545, 136.984 84.379 C 137.581 82.900, 138.577 82.338, 140.274 82.525 C 141.751 82.687, 143.246 82.046, 144.075 80.896 C 144.827 79.853, 146.355 78.993, 147.471 78.985 C 149.120 78.972, 149.223 78.794, 148.020 78.034 C 146.351 76.978, 145.688 71, 147.239 71 C 147.807 71, 147.703 70.347, 147 69.500 C 146.315 68.675, 146.078 68, 146.472 68 C 146.867 68, 145.304 66.425, 143 64.500 C 139.769 61.801, 137.909 61, 134.870 61 C 131.206 61, 131.007 60.856, 132.028 58.948 C 132.632 57.819, 132.986 56.246, 132.813 55.453 C 132.542 54.206, 132.113 54.213, 129.636 55.506 C 125.960 57.423, 126 57.433, 126 54.573 C 126 53.183, 127.055 51.316, 128.466 50.205 C 129.822 49.138, 130.650 47.984, 130.306 47.639 C 129.961 47.294, 130.498 46.107, 131.500 45 C 133.672 42.600, 133.606 42.519, 128.523 41.350 C 125.010 40.543, 124.417 39.973, 123.438 36.468 C 121.853 30.793, 118.911 30.596, 115.540 35.937" stroke="none" fill="black" fill-rule="evenodd"/>
</svg>