<svg xmlns="http://www.w3.org/2000/svg" width="192" height="144" viewBox="0 0 192 144" version="1.1">
	<path d="M 84.524 4.250 C 85.625 10.937, 87.655 14.918, 90.517 16.006 C 96.945 18.451, 121.231 16.440, 128.217 12.885 C 132.610 10.649, 134 8.409, 134 3.566 L 134 0 108.912 0 L 83.824 0 84.524 4.250 M 94.925 55.282 C 92.079 57.483, 89.929 61.645, 90.624 63.609 C 91.753 66.798, 96.254 71, 98.541 71 C 102.157 71, 106 66.621, 106 62.500 C 106 56.337, 99.249 51.937, 94.925 55.282 M 183.750 93.739 C 180.588 93.937, 178 94.470, 178 94.922 C 178 95.374, 176.285 96.019, 174.188 96.354 C 166.584 97.570, 155.420 110.454, 148.068 126.500 C 145.610 131.866, 138.001 141, 135.989 141 C 135.563 141, 134.955 141.675, 134.638 142.500 C 134.135 143.812, 137.692 144, 163.031 144 L 192 144 192 118.500 C 192 98.666, 191.722 93.042, 190.750 93.189 C 190.063 93.293, 186.912 93.541, 183.750 93.739" stroke="none" fill="black" fill-rule="evenodd"/>
</svg>