<svg xmlns="http://www.w3.org/2000/svg" width="192" height="144" viewBox="0 0 192 144" version="1.1">
	<path d="M 68.334 49.575 C 66.037 51.872, 65.814 52.740, 66.229 57.744 C 66.606 62.296, 67.190 63.739, 69.347 65.459 C 71.372 67.074, 72 68.465, 72 71.332 C 72 73.398, 72.743 78.045, 73.650 81.658 C 75.129 87.546, 75.650 88.374, 78.673 89.637 C 81.255 90.716, 82.539 90.782, 84.150 89.920 C 86.779 88.513, 87.503 89.516, 89.156 96.847 C 90.068 100.891, 90.086 103.205, 89.229 106.347 C 88.265 109.882, 88.405 111.422, 90.165 116.696 C 92.413 123.429, 94.064 124.492, 101.305 123.869 C 104.098 123.628, 105.216 124.233, 108.314 127.662 C 111.961 131.700, 112.936 134, 111 134 C 110.450 134, 110 134.900, 110 136 C 110 138.252, 111.965 138.635, 113.850 136.750 C 114.537 136.063, 115.415 135.463, 115.800 135.418 C 116.185 135.373, 118.674 134.361, 121.330 133.169 C 124.190 131.886, 127.109 131.240, 128.486 131.586 C 131.783 132.413, 135.223 129.991, 144.812 120.086 C 155.944 108.587, 157.596 105.510, 150.226 110.004 C 148.425 111.102, 145.823 112, 144.444 112 C 139.869 112, 129.812 117.244, 120.839 124.309 C 116.909 127.404, 114.542 127.361, 111.630 124.143 C 110.096 122.449, 110.241 122.141, 113.982 119.135 C 117.877 116.004, 118.037 115.968, 121.056 117.529 C 123.465 118.775, 124.457 118.865, 125.572 117.940 C 127.496 116.344, 127.374 115.374, 124.944 112.944 L 122.888 110.888 128.401 104.934 C 132.315 100.706, 134.093 97.896, 134.532 95.240 C 134.873 93.183, 135.632 90.237, 136.220 88.694 C 137.010 86.621, 136.977 85.577, 136.094 84.694 C 134.498 83.098, 116.226 83.124, 113.393 84.726 C 111.874 85.585, 110.268 85.637, 107.643 84.912 C 103.796 83.850, 103.288 83.112, 105.133 81.267 C 107.075 79.325, 105.313 77.202, 99.584 74.581 C 94.922 72.449, 93.711 71.315, 91.783 67.278 C 89.975 63.494, 88.925 62.434, 86.733 62.182 C 85.211 62.007, 84.230 61.437, 84.552 60.916 C 84.874 60.394, 85.557 60.226, 86.069 60.543 C 87.599 61.488, 87.085 57.784, 85.070 53.347 C 83.078 48.959, 82.081 48.372, 75.201 47.531 C 71.531 47.083, 70.528 47.381, 68.334 49.575 M 100 80 C 101.958 81.266, 103.282 81.266, 102.500 80 C 102.160 79.450, 101.121 79.007, 100.191 79.015 C 98.734 79.029, 98.707 79.165, 100 80" stroke="none" fill="black" fill-rule="evenodd"/>
</svg>