<svg xmlns="http://www.w3.org/2000/svg" width="192" height="144" viewBox="0 0 192 144" version="1.1">
	<path d="M 0 72 L 0 144 33 144 C 62.081 144, 66 143.817, 66 142.456 C 66 141.607, 67.123 139.701, 68.496 138.221 C 69.882 136.726, 72.389 131.298, 74.134 126.015 C 75.863 120.782, 78.141 114.779, 79.197 112.675 C 80.253 110.572, 80.962 108.387, 80.773 107.820 C 80.257 106.271, 74.107 104.431, 68.486 104.143 C 65.744 104.003, 63.073 103.463, 62.550 102.944 C 61.951 102.349, 62.043 102, 62.800 102 C 63.460 102, 64 101.014, 64 99.809 C 64 97.729, 64.068 97.711, 65.344 99.456 C 67.092 101.846, 70.811 100.972, 75.232 97.133 C 77.029 95.572, 79.063 94.491, 79.750 94.730 C 80.609 95.030, 81 93.961, 81 91.307 C 81 87.498, 80.950 87.448, 77.250 87.528 C 75.188 87.573, 72.033 88.386, 70.241 89.335 C 64.182 92.543, 60.762 88.115, 65.069 82.640 C 66.288 81.090, 66.898 79.255, 66.555 78.172 C 65.847 75.944, 67.909 74.065, 73.923 71.458 C 77.207 70.034, 78.452 69.857, 78.757 70.770 C 79.601 73.303, 89.305 71.253, 90.437 68.303 C 90.766 67.447, 90.353 66.241, 89.520 65.623 C 88.686 65.005, 87.914 63.150, 87.804 61.500 C 87.694 59.850, 86.994 57.531, 86.250 56.346 C 85.288 54.816, 85.050 52.102, 85.426 46.976 C 85.995 39.215, 87.295 36.582, 90.183 37.337 C 91.200 37.604, 92.388 37.130, 92.872 36.264 C 93.576 35.007, 94.311 34.913, 96.760 35.767 C 98.960 36.533, 100.100 36.504, 100.958 35.660 C 101.853 34.778, 102.467 34.950, 103.522 36.379 C 104.408 37.579, 105.647 38.064, 106.955 37.722 C 109.077 37.167, 113 40.950, 113 43.552 C 113 44.257, 113.464 44.988, 114.032 45.177 C 114.599 45.366, 115.342 49.470, 115.683 54.296 C 116.270 62.624, 116.182 63.182, 113.943 65.267 C 112.646 66.476, 110.929 67.473, 110.128 67.482 C 107.579 67.513, 107.741 69.951, 110.358 70.946 C 113.681 72.209, 115 74.885, 115 80.361 C 115 84.231, 114.535 85.246, 111.647 87.677 C 108.206 90.574, 104.980 98.001, 105.022 102.928 C 105.042 105.204, 105.934 105.846, 112.772 108.504 C 120.014 111.319, 120.487 111.687, 120.300 114.340 C 120.190 115.898, 118.469 119.163, 116.475 121.596 L 112.849 126.020 115.095 129.760 C 116.331 131.817, 119.177 135.845, 121.421 138.712 L 125.500 143.924 159 143.712 L 192.500 143.500 192.757 71.750 L 193.013 0 96.507 0 L 0 0 0 72 M 0.474 72.500 C 0.474 112.100, 0.598 128.154, 0.750 108.176 C 0.901 88.198, 0.901 55.798, 0.750 36.176 C 0.598 16.554, 0.474 32.900, 0.474 72.500 M 92 67.500 C 92 68.362, 92.902 69, 94.122 69 C 95.896 69, 96.040 68.753, 95 67.500 C 94.315 66.675, 93.360 66, 92.878 66 C 92.395 66, 92 66.675, 92 67.500 M 116 142.500 C 116 143.533, 117.012 143.989, 119.250 143.965 L 122.500 143.929 120 142.500 C 116.779 140.659, 116 140.659, 116 142.500" stroke="none" fill="black" fill-rule="evenodd"/>
</svg>