<svg xmlns="http://www.w3.org/2000/svg" width="192" height="144" viewBox="0 0 192 144" version="1.1">
	<path d="M 14.469 2.098 C 13.848 4.054, 14.409 16.669, 15.576 27 C 16.046 31.156, 15.852 31.653, 13.045 33.500 C 10.571 35.128, 10.005 36.186, 10.003 39.191 C 10 43.334, 11.839 45.331, 12.684 42.101 C 12.986 40.945, 13.427 40, 13.665 40 C 14.802 40, 18.941 45.717, 18.968 47.327 C 19.007 49.553, 13.760 55, 11.577 55 C 10.710 55, 10 55.353, 10 55.784 C 10 57.102, 15.729 60.041, 17.198 59.478 C 17.956 59.187, 19.881 60.310, 21.475 61.974 C 25.186 65.848, 28.682 65.968, 30.087 62.271 C 30.813 60.363, 30.805 59.435, 30.062 59.187 C 27.608 58.369, 29.035 53.996, 32.487 51.759 C 36.257 49.316, 36.575 47.356, 33.140 47.738 C 30.558 48.026, 30.331 45.806, 32.516 41.618 C 36.137 34.673, 35.319 28, 30.846 28 C 26.030 28, 28.224 22.772, 36.720 14 C 40.992 9.590, 42.611 6.334, 41.777 3.831 C 41.233 2.200, 30.326 0.140, 21.817 0.062 C 15.881 0.007, 15.060 0.234, 14.469 2.098 M 96 72.014 L 96 144.027 128.668 143.764 L 161.336 143.500 162.569 138.500 C 164.437 130.925, 166.175 120.842, 165.696 120.363 C 165.462 120.129, 163.851 120.739, 162.116 121.719 C 159.342 123.285, 158.840 123.319, 157.952 122 C 157.397 121.175, 157.099 119.286, 157.290 117.803 C 157.482 116.319, 157.266 115.336, 156.811 115.617 C 155.406 116.485, 153 113.281, 153 110.539 C 153 106.413, 155.433 101.821, 159.884 97.547 C 162.148 95.373, 164 92.991, 164 92.253 C 164 91.516, 165.592 89.193, 167.537 87.090 C 170.649 83.726, 171.459 83.346, 174.287 83.920 C 176.974 84.466, 177.654 85.190, 178.440 88.344 C 179.319 91.869, 179.171 92.293, 176.165 94.859 L 172.949 97.604 175.497 99.997 C 176.898 101.313, 178.400 103.764, 178.835 105.443 C 179.270 107.123, 180.350 108.636, 181.235 108.807 C 182.445 109.040, 182.701 108.574, 182.270 106.924 C 181.854 105.334, 182.082 104.858, 183.098 105.191 C 183.869 105.443, 184.926 107.825, 185.448 110.485 L 186.395 115.322 182.012 119.211 L 177.629 123.101 179.961 130.800 C 181.244 135.035, 182.504 139.738, 182.760 141.250 C 183.186 143.761, 183.608 144, 187.613 144 L 192 144 192 72 L 192 0 144 0 L 96 0 96 72.014" stroke="none" fill="black" fill-rule="evenodd"/>
</svg>