<svg xmlns="http://www.w3.org/2000/svg" width="192" height="144" viewBox="0 0 192 144" version="1.1">
	<path d="M 68.959 61.544 C 64.913 65.850, 66.481 76.895, 71.461 79.164 C 74.119 80.375, 74.490 81.151, 75.487 87.584 C 76.261 92.578, 79.413 98, 81.544 98 C 82.409 98, 84.974 100.041, 87.245 102.536 C 89.564 105.084, 91.959 106.846, 92.712 106.557 C 93.530 106.243, 94.684 107.366, 95.670 109.434 C 96.991 112.204, 97.089 113.608, 96.205 117.090 C 95.226 120.946, 95.371 121.777, 97.718 125.782 C 100.074 129.802, 100.600 130.164, 103.424 129.706 C 106.150 129.264, 117.801 122.796, 124.959 117.752 C 126.366 116.760, 127.793 116.393, 128.294 116.894 C 129.406 118.006, 126.581 123.557, 123.403 126.502 C 122.081 127.727, 121 129.528, 121 130.504 C 121 131.481, 120.318 132.779, 119.483 133.390 C 117.417 134.903, 116.745 140.688, 118.555 141.383 C 119.799 141.860, 125.990 137.647, 126.833 135.750 C 127.017 135.338, 127.797 135, 128.568 135 C 129.339 135, 131.664 132.801, 133.735 130.112 C 135.992 127.182, 138.557 124.998, 140.139 124.659 C 146.888 123.214, 150.498 116, 144.472 116 C 142.972 116, 142.146 115.572, 142.510 114.984 C 142.856 114.425, 143.523 114.205, 143.993 114.495 C 144.463 114.786, 145.826 113.648, 147.023 111.968 L 149.199 108.912 146.349 109.549 C 140.975 110.750, 139.591 111.266, 138.314 112.543 C 137.059 113.798, 133 113.438, 133 112.071 C 133 111.688, 134.125 109.042, 135.500 106.192 C 136.875 103.342, 138 100.327, 138 99.492 C 138 97.080, 128.337 93.402, 120.213 92.721 C 115.524 92.328, 111 91.199, 107.525 89.555 C 104.554 88.150, 101.676 87, 101.129 87 C 100.102 87, 93 78.812, 93 77.628 C 93 77.262, 94.125 77.195, 95.500 77.481 C 96.875 77.766, 99.066 78.219, 100.369 78.486 C 101.971 78.815, 103.589 78.183, 105.369 76.534 C 108.675 73.470, 108.679 72.267, 105.390 70.768 C 103.192 69.766, 102.584 69.849, 101.530 71.290 C 100.138 73.194, 97.359 73.577, 96.813 71.940 C 96.393 70.678, 91.780 70.437, 87.250 71.440 C 85.277 71.876, 84 71.767, 84 71.163 C 84 70.615, 84.506 69.998, 85.125 69.792 C 85.857 69.548, 85.998 68.268, 85.530 66.136 C 84.062 59.451, 73.638 56.563, 68.959 61.544 M 89.446 96.087 C 89.077 96.685, 89.275 97.675, 89.887 98.287 C 90.704 99.104, 91 98.815, 91 97.200 C 91 94.785, 90.481 94.413, 89.446 96.087" stroke="none" fill="black" fill-rule="evenodd"/>
</svg>