<svg xmlns="http://www.w3.org/2000/svg" width="192" height="144" viewBox="0 0 192 144" version="1.1">
	<path d="M 63.755 4.805 C 65.054 18.318, 58.343 35.765, 48.255 45.103 C 45.048 48.071, 40.191 51.625, 37.462 53 C 34.733 54.375, 32.275 55.783, 32 56.129 C 31.725 56.475, 27.533 57.541, 22.683 58.500 C 14.372 60.142, 7.692 60.128, 2.250 58.457 L 0 57.767 0 100.883 L 0 144 55.371 144 L 110.742 144 111.385 139.250 C 111.738 136.638, 113.301 132.025, 114.859 129 C 122.281 114.585, 123.990 110.711, 127.610 100.089 C 130.437 91.796, 131.158 88.563, 130.250 88.256 C 129.563 88.023, 129 86.782, 129 85.497 C 129 83.294, 128.794 83.218, 125.369 84.164 C 121.030 85.362, 118.137 83.453, 119.556 80.328 C 120.012 79.322, 120.423 78.050, 120.469 77.500 C 120.515 76.950, 120.905 75.938, 121.335 75.250 C 121.766 74.563, 121.858 73.579, 121.540 73.064 C 121.222 72.550, 123.679 68.884, 127 64.919 C 132.553 58.289, 132.929 57.539, 131.676 55.604 C 129.672 52.511, 128.862 45.695, 130.081 42.196 C 130.858 39.968, 130.830 38.550, 129.975 36.954 C 128.071 33.395, 130.679 31.784, 139.238 31.235 C 145.408 30.839, 147.298 31.111, 150.806 32.901 C 155.213 35.149, 155.998 36.927, 153.500 39 C 152.675 39.685, 152 41.713, 152 43.508 C 152 47.697, 148.980 57.106, 147.857 56.412 C 146.100 55.326, 147.076 58.759, 149.027 60.524 C 150.142 61.533, 152.337 64.884, 153.905 67.970 C 156.435 72.949, 156.706 74.365, 156.305 80.541 C 155.918 86.505, 155.484 87.809, 153.267 89.665 L 150.681 91.830 152.735 96.665 C 153.865 99.324, 155.315 105.550, 155.958 110.500 C 156.601 115.450, 158.507 125.024, 160.194 131.776 L 163.261 144.052 177.880 143.776 L 192.500 143.500 192.825 129 C 193.003 121.025, 192.837 88.737, 192.455 57.250 L 191.761 0 127.527 -0 L 63.294 -0 63.755 4.805 M 0.459 101 C 0.459 124.925, 0.589 134.713, 0.749 122.750 C 0.908 110.788, 0.908 91.213, 0.749 79.250 C 0.589 67.288, 0.459 77.075, 0.459 101" stroke="none" fill="black" fill-rule="evenodd"/>
</svg>