<svg xmlns="http://www.w3.org/2000/svg" width="192" height="144" viewBox="0 0 192 144" version="1.1">
	<path d="M 0 14.687 L 0 29.374 3.227 26.437 C 7.485 22.562, 24.979 5.036, 27.405 2.215 L 29.310 0 14.655 0 L 0 0 0 14.687 M 126.136 4.470 C 128.685 6.903, 131.759 10.493, 132.967 12.447 C 134.175 14.401, 135.505 16, 135.923 16 C 136.931 16, 141.628 24.702, 143.564 30.156 C 147.168 40.307, 149 49.308, 149 56.859 C 149 62.658, 149.398 65.086, 150.500 66 C 151.698 66.994, 152.308 66.989, 153.531 65.974 C 154.797 64.923, 155.311 65.032, 156.499 66.602 C 160.111 71.374, 157.807 76.601, 147.691 86.583 C 143.186 91.029, 136.393 98.457, 132.595 103.089 C 126.572 110.436, 118.381 118, 116.446 118 C 116.096 118, 114.395 119.013, 112.667 120.250 C 103.478 126.831, 91.027 130.209, 75.500 130.332 C 63.161 130.430, 56.209 129.019, 44.683 124.078 C 41.202 122.586, 40.255 122.502, 39.235 123.594 C 36.885 126.109, 37.853 129.635, 41.896 133.287 C 46.056 137.045, 45.830 139, 41.234 139 C 36.546 139, 32.091 135.307, 32.032 131.372 C 32.014 130.202, 31.305 127.581, 30.456 125.549 C 29.607 123.516, 29.162 121.066, 29.467 120.103 C 30.295 117.495, 27.822 113.347, 20.476 105.026 C 9.520 92.615, 3.780 77.991, 2.494 59.218 C 2.257 55.763, 1.613 52.163, 1.062 51.218 C 0.383 50.053, 0.051 64.717, 0.030 96.755 L 0 144.010 96.250 143.755 L 192.500 143.500 192.820 121 C 192.996 108.625, 192.830 76.338, 192.451 49.250 L 191.763 0 156.631 0.023 L 121.500 0.046 126.136 4.470 M 0.462 97 C 0.462 123.125, 0.591 133.813, 0.749 120.750 C 0.907 107.688, 0.907 86.313, 0.749 73.250 C 0.591 60.188, 0.462 70.875, 0.462 97" stroke="none" fill="black" fill-rule="evenodd"/>
</svg>