<svg xmlns="http://www.w3.org/2000/svg" width="192" height="144" viewBox="0 0 192 144" version="1.1">
	<path d="M -0 34.349 L -0 68.697 5.592 67.820 C 14.277 66.458, 25.859 63.060, 33 59.779 C 36.575 58.137, 40.997 56.144, 42.827 55.351 L 46.155 53.909 62.300 70.085 C 79.371 87.189, 83.024 89.702, 91.453 90.138 C 93.933 90.267, 96.096 90.176, 96.261 89.936 C 96.426 89.696, 97.867 86.689, 99.463 83.253 C 102.862 75.936, 104.665 74.068, 111.750 70.522 C 114.637 69.077, 117 67.217, 117 66.388 C 117 65.560, 116.550 65.160, 116 65.500 C 115.450 65.840, 115 65.684, 115 65.153 C 115 64.622, 114.100 64.423, 113 64.710 C 111.805 65.023, 111 64.741, 111 64.010 C 111 63.333, 110.330 63.043, 109.500 63.362 C 108.554 63.725, 108 63.350, 108 62.346 C 108 61.017, 107.743 60.968, 106.437 62.052 C 105.068 63.188, 104.957 63.019, 105.543 60.684 C 106.037 58.718, 105.785 57.855, 104.586 57.395 C 103.548 56.996, 103.058 55.832, 103.230 54.174 C 103.466 51.908, 103.049 51.501, 99.966 50.981 C 95.663 50.255, 94 49.303, 94 47.563 C 94 45.075, 91.364 43.756, 89.152 45.137 C 86.824 46.591, 81.946 44.961, 82.074 42.771 C 82.115 42.072, 84.478 39.664, 87.324 37.419 L 92.500 33.339 92.164 27.669 C 91.896 23.140, 92.131 22, 93.332 22 C 94.160 22, 95.755 20.515, 96.877 18.699 C 98.874 15.468, 105.530 10.112, 109.500 8.541 C 114.584 6.529, 119.927 6.136, 127.500 7.214 C 135.087 8.295, 135.723 8.587, 139.822 12.858 C 142.199 15.336, 145.073 19.182, 146.207 21.406 C 148.055 25.029, 148.155 26.063, 147.169 31.368 C 146.174 36.717, 146.261 37.557, 148.071 40.100 C 149.173 41.648, 151.217 43.812, 152.613 44.910 C 154.540 46.426, 154.926 47.310, 154.214 48.582 C 153.577 49.721, 153.054 49.896, 152.579 49.128 C 152.196 48.508, 150.816 48, 149.514 48 C 147.474 48, 147.197 48.409, 147.519 50.948 C 147.811 53.260, 147.564 53.770, 146.371 53.312 C 145.289 52.897, 144.944 53.272, 145.175 54.614 C 145.404 55.945, 144.985 56.414, 143.750 56.206 C 142.447 55.987, 142 56.594, 142 58.579 C 142 60.893, 141.792 61.072, 140.424 59.937 C 138.838 58.621, 137.896 59.260, 136.647 62.500 C 136.405 63.126, 135.465 63.030, 134.131 62.242 C 132.959 61.549, 131.994 61.324, 131.986 61.742 C 131.979 62.159, 131.715 63.460, 131.400 64.634 C 130.915 66.440, 131.539 67.040, 135.451 68.534 C 139.798 70.195, 145 74.902, 145 77.176 C 145 77.738, 145.755 79.789, 146.678 81.733 L 148.356 85.269 156.428 84.490 C 160.867 84.061, 166.300 83.779, 168.500 83.862 C 175.456 84.127, 182.778 82.053, 187.432 78.500 L 191.820 75.151 191.894 95.325 C 191.943 108.823, 191.646 114.957, 190.995 113.859 C 188.348 109.392, 183.409 92.346, 184.083 90 C 185.409 85.381, 185.209 85.010, 181.750 85.674 C 179.963 86.017, 177.492 86.668, 176.261 87.120 L 174.021 87.942 176.511 91.611 C 177.880 93.628, 179.005 95.779, 179.012 96.390 C 179.047 99.778, 175.548 120, 174.926 120 C 174.520 120, 173.510 118.088, 172.680 115.750 C 171.851 113.413, 170.004 108.233, 168.577 104.241 C 166.133 97.408, 166.069 96.770, 167.490 93.369 C 168.321 91.382, 169 89.524, 169 89.241 C 169 88.612, 156.083 89.583, 155.403 90.263 C 155.137 90.530, 155.905 92.420, 157.112 94.464 C 159.247 98.084, 159.271 98.480, 158.031 109.606 C 157.330 115.890, 156.353 121.282, 155.858 121.588 C 154.883 122.190, 153.285 118.749, 150.365 109.757 C 148.366 103.602, 146.325 101.876, 147.400 107.250 C 147.757 109.037, 148.335 118.046, 148.683 127.269 L 149.316 144.038 170.908 143.769 L 192.500 143.500 192.735 71.750 L 192.970 -0 96.485 -0 L 0 0 -0 34.349 M 0.450 35 C 0.450 53.975, 0.584 61.737, 0.748 52.250 C 0.913 42.762, 0.913 27.237, 0.748 17.750 C 0.584 8.262, 0.450 16.025, 0.450 35 M 40.250 62.745 C 38.462 63.635, 37 64.997, 37 65.772 C 37 66.548, 38.575 69.022, 40.500 71.271 L 44 75.360 43.882 85.930 C 43.817 91.743, 43.460 97.850, 43.090 99.500 L 42.417 102.500 41.067 100 C 29.174 77.979, 29.624 79.139, 30.876 73.719 C 31.513 70.959, 31.914 68.586, 31.767 68.446 C 31.620 68.306, 27.675 69.489, 23 71.075 C 18.325 72.660, 14.353 73.967, 14.173 73.979 C 13.993 73.990, 15.231 75.385, 16.923 77.077 C 18.616 78.770, 20.199 81.132, 20.441 82.327 C 21.331 86.726, 21.786 105.014, 21.016 105.490 C 20.579 105.760, 17.161 101.373, 13.421 95.741 C 6.495 85.312, 6.080 83.964, 7.585 76.750 C 8.127 74.155, 7.957 74, 4.579 74 L 1 74 1 109 L 1 144 47 144 C 72.300 144, 93 143.858, 93 143.684 C 93 143.510, 93.479 140.778, 94.064 137.613 C 94.711 134.112, 94.770 131.397, 94.213 130.679 C 93.711 130.031, 91.431 124.181, 89.148 117.681 C 84.910 105.613, 84.694 102.981, 87.565 98.367 C 89.485 95.283, 87.440 93.003, 82.114 92.288 L 77.798 91.710 79.329 94.669 C 80.675 97.272, 80.702 99.220, 79.550 110.860 C 78.831 118.137, 77.975 124.358, 77.649 124.684 C 77.323 125.011, 76.562 123.977, 75.959 122.389 C 75.355 120.800, 73.074 114.927, 70.889 109.338 C 66.716 98.662, 66.588 96.432, 69.827 90.791 C 71.646 87.624, 70.988 85.909, 65.499 79.500 C 62.211 75.661, 62.116 75.621, 63.147 78.500 C 64.468 82.187, 63.027 106.570, 61.500 106.366 C 60.950 106.293, 58.189 101.118, 55.364 94.866 C 49.974 82.941, 49.754 81.312, 52.521 73.897 L 53.866 70.293 49.149 65.647 C 46.554 63.091, 44.222 61.029, 43.966 61.064 C 43.710 61.099, 42.038 61.856, 40.250 62.745 M 147.459 91.067 C 147.096 91.653, 147.040 92.373, 147.333 92.667 C 148.050 93.383, 150 92.121, 150 90.941 C 150 89.663, 148.274 89.748, 147.459 91.067 M 95 96.941 C 95 98.673, 96.760 98.994, 98.009 97.489 C 99.038 96.250, 98.889 96, 97.122 96 C 95.955 96, 95 96.423, 95 96.941 M 97.393 101.582 C 97.727 102.452, 98.007 103.464, 98.015 103.832 C 98.036 104.726, 99.965 101.707, 99.985 100.750 C 99.993 100.338, 99.277 100, 98.393 100 C 97.338 100, 96.995 100.544, 97.393 101.582" stroke="none" fill="black" fill-rule="evenodd"/>
</svg>