<svg xmlns="http://www.w3.org/2000/svg" width="192" height="144" viewBox="0 0 192 144" version="1.1">
	<path d="M 71.634 2.793 C 72.882 7.992, 76.016 12.914, 80.424 16.598 L 84.865 20.311 82.463 23.459 C 78.087 29.197, 76.763 33.931, 76.229 45.750 C 75.866 53.799, 76.045 57, 76.861 57 C 77.487 57, 78 57.675, 78 58.500 C 78 59.325, 78.415 60, 78.923 60 C 79.431 60, 81.191 61.132, 82.835 62.515 C 84.800 64.168, 85.962 64.615, 86.227 63.819 C 86.509 62.974, 87.703 63.271, 90.183 64.804 C 94.419 67.422, 95.752 67.615, 93.872 65.337 C 92.695 63.912, 92.714 63.747, 94 64.180 C 95.060 64.537, 95.500 66.120, 95.500 69.579 C 95.500 73.277, 95.892 74.548, 97.106 74.782 C 98.407 75.032, 98.842 77.116, 99.401 85.765 C 99.781 91.635, 100.508 96.696, 101.018 97.011 C 101.528 97.326, 102.616 102.365, 103.436 108.208 C 104.765 117.677, 104.762 119.626, 103.403 126.143 C 102.565 130.165, 101.732 133.602, 101.552 133.781 C 101.373 133.960, 96.457 132.958, 90.627 131.554 C 84.798 130.149, 79.009 128.985, 77.764 128.967 C 74.959 128.926, 71 125.745, 71 123.533 C 71 119.648, 68.593 112.853, 66.367 110.451 C 64.191 108.103, 63.362 107.884, 57.764 108.176 C 51.479 108.505, 50.841 108.815, 44.450 114.650 C 41.337 117.492, 41.001 118.323, 41.006 123.150 C 41.014 131.040, 42.746 135.981, 46.992 140.227 L 50.765 144 107.526 144 L 164.287 144 163.642 137.062 C 163.288 133.246, 162.604 129.083, 162.123 127.812 C 161.642 126.540, 160.911 123.036, 160.499 120.024 C 159.843 115.223, 159.935 114.701, 161.248 115.791 C 162.684 116.983, 166 116.511, 166 115.116 C 166 114.748, 164.236 112.098, 162.079 109.228 C 159.923 106.358, 157.703 102.545, 157.146 100.755 C 156.063 97.275, 155.112 81.989, 155.981 82.017 C 156.266 82.026, 157.601 84.575, 158.946 87.680 C 160.291 90.786, 161.588 92.736, 161.829 92.014 C 162.131 91.106, 162.868 91.441, 164.218 93.101 L 166.170 95.500 165.658 93.171 C 165.278 91.441, 165.513 90.983, 166.573 91.390 C 168.403 92.092, 168.440 92.353, 165.440 83.415 C 162.735 75.358, 162.752 72.929, 165.479 77.662 C 167.037 80.366, 167.087 80.382, 166.533 78 C 164.993 71.377, 164.822 69.486, 165.900 71 C 167.474 73.208, 167.342 71.197, 164.999 57.236 C 162.447 42.030, 158.188 29.288, 153.326 22.315 C 151.222 19.296, 148.040 14.527, 146.255 11.717 C 144.471 8.906, 141.600 5.151, 139.876 3.372 L 136.741 0.138 103.863 0.112 L 70.984 0.087 71.634 2.793 M 118.195 83.750 C 118.394 86.853, 118.034 88.866, 117.155 89.556 C 116.415 90.137, 115.965 91.560, 116.155 92.718 C 116.460 94.580, 116.934 94.322, 120.254 90.487 L 124.008 86.151 121.754 82.618 C 120.514 80.675, 119.138 79.066, 118.695 79.042 C 118.253 79.019, 118.028 81.138, 118.195 83.750 M 150.727 79.633 C 150.005 80.801, 151.753 89.135, 152.978 90.371 C 153.464 90.861, 153.594 89.328, 153.275 86.871 C 152.560 81.363, 151.507 78.371, 150.727 79.633 M 110.235 92.991 C 110.535 95.129, 110.239 96.872, 109.471 97.491 C 108.782 98.046, 107.936 101.875, 107.590 106 L 106.963 113.500 109.863 106.809 C 112.406 100.942, 112.655 99.535, 111.881 95.391 C 110.843 89.835, 109.522 87.909, 110.235 92.991" stroke="none" fill="black" fill-rule="evenodd"/>
</svg>