<svg xmlns="http://www.w3.org/2000/svg" width="192" height="144" viewBox="0 0 192 144" version="1.1">
	<path d="M -0 71.955 L -0 144.010 96.250 143.755 L 192.500 143.500 192.757 71.750 L 193.013 0 123.156 0 L 53.299 0 52.647 12.750 C 50.952 45.867, 58.839 96.934, 68.634 116.264 C 70.724 120.390, 70.843 121.123, 69.503 121.637 C 67.648 122.349, 61.977 118.715, 56.607 113.373 C 37.038 93.906, 20.511 55.115, 13.169 11.414 L 11.336 0.500 5.668 0.200 L -0 -0.100 -0 71.955 M 0.474 72.500 C 0.474 112.100, 0.598 128.154, 0.750 108.176 C 0.901 88.198, 0.901 55.798, 0.750 36.176 C 0.598 16.554, 0.474 32.900, 0.474 72.500" stroke="none" fill="black" fill-rule="evenodd"/>
</svg>