<svg xmlns="http://www.w3.org/2000/svg" width="192" height="144" viewBox="0 0 192 144" version="1.1">
	<path d="M 0 72 L 0 144 14.919 144 C 27.290 144, 30.363 143.701, 32.913 142.250 C 34.604 141.287, 35.990 140.044, 35.994 139.487 C 35.997 138.929, 40.544 132.404, 46.098 124.987 C 61.826 103.982, 66 94.437, 66 79.477 C 66 70.637, 65.864 70, 63.981 70 C 61.836 70, 61.839 69.785, 64.091 61 C 65.289 56.328, 65.249 56, 63.478 56 C 59.730 56, 51.439 37.586, 53.868 34.659 C 54.910 33.404, 56.102 33.484, 62.861 35.264 L 70.654 37.316 76.250 34.579 C 81.023 32.243, 82.798 31.900, 88.324 32.245 C 94.304 32.617, 95.079 32.941, 98.390 36.452 C 100.362 38.543, 102.382 41.724, 102.878 43.520 C 104.247 48.477, 101.459 58.806, 97.913 61.917 C 96.602 63.067, 96.479 64.049, 97.260 67.126 C 98.019 70.115, 98.889 71.138, 101.369 71.957 C 105.576 73.345, 109.840 77.434, 110.571 80.780 C 110.898 82.276, 111.578 84.805, 112.083 86.399 C 112.587 87.994, 113 91.906, 113 95.092 C 113 100.679, 113.201 101.123, 118.633 107.526 L 124.266 114.165 122.940 118.183 C 121.675 122.015, 121.727 122.285, 124.057 124.046 C 125.899 125.438, 126.217 126.176, 125.351 127.045 C 123.671 128.731, 120.482 127.354, 119.114 124.352 C 117.023 119.761, 116.666 122.686, 117.999 133.495 L 119.298 144.024 155.899 143.762 L 192.500 143.500 192.757 71.750 L 193.013 0 96.507 0 L 0 0 0 72 M 0.474 72.500 C 0.474 112.100, 0.598 128.154, 0.750 108.176 C 0.901 88.198, 0.901 55.798, 0.750 36.176 C 0.598 16.554, 0.474 32.900, 0.474 72.500 M 77 130.788 C 77 131.286, 76.100 132.732, 75 134 C 73.223 136.049, 73 136.100, 73 134.462 C 73 132.670, 72.962 132.670, 71.652 134.462 C 70.910 135.476, 69.840 136.019, 69.274 135.669 C 68.409 135.135, 63 141.869, 63 143.479 C 63 143.765, 65.908 144, 69.461 144 L 75.923 144 76.906 140.250 C 79.015 132.207, 79.136 131.202, 78.081 130.550 C 77.486 130.183, 77 130.290, 77 130.788" stroke="none" fill="black" fill-rule="evenodd"/>
</svg>