<svg xmlns="http://www.w3.org/2000/svg" width="192" height="144" viewBox="0 0 192 144" version="1.1">
	<path d="M 0 32.500 C 0 50.375, 0.337 64.975, 0.750 64.944 C 2.364 64.824, 9.991 53.973, 13.834 46.330 C 24.437 25.243, 39.084 11.611, 60.500 2.902 L 67.500 0.056 33.750 0.028 L 0 0 0 32.500 M 142.199 7.250 C 149.890 14.780, 155.571 22.428, 161.008 32.568 C 165.028 40.065, 165.561 40.609, 167.395 39.087 C 168.620 38.071, 169.122 38.346, 170.304 40.679 C 171.090 42.231, 172.276 45.300, 172.940 47.500 C 175.571 56.219, 175.965 56.803, 179.057 56.589 C 180.652 56.479, 182.980 55.462, 184.229 54.330 C 185.973 52.749, 187.139 52.452, 189.250 53.049 L 192 53.827 192 26.914 L 192 0 163.398 0 L 134.795 0 142.199 7.250 M 47.012 41.724 C 36.893 53.220, 31.693 73.991, 35.052 89.500 C 35.767 92.800, 36.465 96.109, 36.603 96.853 C 36.741 97.598, 38.733 101.966, 41.030 106.561 C 45.861 116.221, 52.097 123.848, 60.250 130.067 C 63.413 132.479, 66 134.562, 66 134.695 C 66 135.128, 62.538 133.629, 61.050 132.550 C 60.253 131.973, 56.203 128.115, 52.050 123.978 C 46.203 118.153, 43.405 114.317, 39.649 106.978 C 34.479 96.878, 34.082 99.117, 39.114 110 C 43.250 118.947, 52.052 130.132, 60.893 137.676 L 68.305 144 75.712 144 C 81.371 144, 82.941 143.705, 82.367 142.750 C 81.773 141.762, 81.942 141.764, 83.171 142.759 C 84.387 143.743, 96.480 143.961, 138.613 143.759 L 192.500 143.500 192.811 116.500 C 193.188 83.832, 192.288 63.244, 190.647 67 C 190.047 68.375, 189.294 69.725, 188.975 70 C 188.656 70.275, 187.369 72.188, 186.116 74.250 C 184.862 76.313, 183.454 78, 182.986 78 C 182.518 78, 181.852 78.890, 181.507 79.977 C 181.162 81.065, 179.332 83.808, 177.440 86.072 C 175.548 88.337, 174 90.631, 174 91.170 C 174 92.688, 166.074 105.976, 162.171 111 C 153.556 122.090, 135.841 134.053, 128.351 133.838 C 127.333 133.808, 121.679 134.570, 115.787 135.530 C 105.764 137.162, 104.349 137.170, 93.834 135.652 C 85.351 134.428, 80.792 133.173, 75.243 130.538 C 52.729 119.846, 40 100.258, 40 76.302 C 40 62.189, 41.610 56.739, 51.094 38.750 C 52.623 35.851, 51.393 36.746, 47.012 41.724 M 1 111.378 L 1 144 28.250 143.953 L 55.500 143.906 52 141.227 C 37.998 130.510, 28.190 116.273, 19.942 94.696 C 18.356 90.546, 17.312 89.050, 16.280 89.446 C 15.486 89.751, 14.648 90, 14.418 90 C 14.188 90, 14 91.125, 14 92.500 C 14 93.875, 13.654 95, 13.232 95 C 12.809 95, 10.480 91.840, 8.056 87.977 C 5.633 84.114, 3.053 80.459, 2.325 79.855 C 1.230 78.946, 1 84.410, 1 111.378 M 67.412 135.858 C 68.247 137.208, 74.001 140.333, 74.582 139.752 C 74.799 139.534, 73.115 138.309, 70.838 137.029 C 68.561 135.749, 67.019 135.222, 67.412 135.858 M 76 140.393 C 76 140.609, 76.698 141.054, 77.552 141.382 C 78.442 141.723, 78.843 141.555, 78.493 140.989 C 77.906 140.038, 76 139.583, 76 140.393" stroke="none" fill="black" fill-rule="evenodd"/>
</svg>