<svg xmlns="http://www.w3.org/2000/svg" width="192" height="144" viewBox="0 0 192 144" version="1.1">
	<path d="M 0 48.968 L 0 97.936 2.250 97.110 C 3.743 96.562, 4.605 95.311, 4.812 93.392 C 4.984 91.801, 5.719 90.039, 6.446 89.475 C 7.172 88.911, 7.996 87.561, 8.277 86.475 C 8.779 84.535, 8.800 84.536, 9.456 86.539 C 9.823 87.661, 11.086 89.011, 12.263 89.539 C 13.440 90.068, 14.754 91.880, 15.183 93.567 C 15.926 96.490, 23.313 103, 25.888 103 C 27.372 103, 30.259 108.883, 29.608 110.580 C 28.900 112.424, 31.163 112.857, 44 113.332 C 49.775 113.546, 55.549 114.071, 56.832 114.499 C 59.103 115.256, 59.146 115.158, 58.488 110.770 C 57.998 107.500, 58.257 105.404, 59.432 103.132 C 61.362 99.399, 64.053 99.088, 67.066 102.250 C 69.144 104.430, 69.197 105.112, 68.761 124.250 L 68.311 144 129.994 144 L 191.676 144 192.336 108.750 C 192.700 89.363, 192.998 56.962, 192.998 36.750 L 193 0 96.500 0 L 0 0 0 48.968 M 0.463 49.500 C 0.463 76.450, 0.592 87.331, 0.749 73.681 C 0.907 60.030, 0.906 37.980, 0.749 24.681 C 0.592 11.381, 0.463 22.550, 0.463 49.500 M 124.440 37.750 C 122.088 41.363, 119.940 42.889, 118.042 42.294 C 116.728 41.883, 116.714 41.963, 117.948 42.837 C 119.134 43.677, 118.909 44.085, 116.698 45.092 C 112.972 46.789, 113.323 47.823, 117.750 48.190 L 121.500 48.500 121.540 55.860 C 121.571 61.618, 121.952 63.492, 123.290 64.470 C 125.432 66.037, 125.512 70.501, 123.428 72.211 C 122.564 72.920, 120.989 74.287, 119.928 75.250 C 118.868 76.213, 116.725 77, 115.167 77 C 113.608 77, 112.057 77.277, 111.719 77.615 C 110.678 78.656, 114.067 82.912, 115.499 82.362 C 116.240 82.078, 117.363 82.809, 117.993 83.987 C 118.774 85.446, 119.516 85.829, 120.320 85.188 C 122.110 83.761, 125.384 85.391, 126.004 88.018 C 126.307 89.302, 127.102 90.534, 127.771 90.757 C 128.832 91.111, 129.501 89.944, 131.492 84.267 C 132.343 81.839, 135.023 84.290, 135.624 88.047 C 136.291 92.224, 138.187 93.670, 140.268 91.589 C 142.650 89.208, 145.951 88.738, 148.514 90.417 C 151.509 92.380, 152 92.391, 152 90.500 C 152 88.692, 153.167 88.567, 154.800 90.200 C 155.733 91.133, 156 91.120, 156 90.141 C 156 89.449, 156.486 89.182, 157.080 89.549 C 157.674 89.916, 158.824 89.268, 159.637 88.108 C 160.449 86.949, 161.763 86, 162.557 86 C 163.351 86, 164 85.550, 164 85 C 164 84.450, 163.645 84, 163.211 84 C 161.949 84, 162.105 77.004, 163.368 76.968 C 163.991 76.951, 163.667 76.306, 162.650 75.535 C 161.632 74.764, 161.096 73.653, 161.459 73.067 C 161.821 72.480, 161.647 72, 161.070 72 C 159.419 72, 156.042 68.740, 156.659 67.742 C 156.979 67.226, 153.754 66.982, 149.106 67.170 C 144.645 67.352, 141.011 67.275, 141.029 67 C 141.048 66.725, 141.724 65.626, 142.532 64.559 C 144.224 62.321, 144.485 59, 142.968 59 C 142.400 59, 140.320 59.675, 138.346 60.500 C 136.371 61.325, 134.628 62, 134.471 62 C 133.609 62, 135.534 57.372, 136.681 56.689 C 137.429 56.242, 137.811 55.504, 137.530 55.048 C 137.248 54.592, 138.198 53.445, 139.640 52.500 C 141.503 51.280, 141.904 50.559, 141.025 50.016 C 140.144 49.471, 140.106 49.052, 140.893 48.566 C 142.937 47.303, 142.026 46.096, 138.536 45.441 C 134.483 44.680, 132.567 42.762, 133.251 40.147 C 134.644 34.821, 127.595 32.903, 124.440 37.750" stroke="none" fill="black" fill-rule="evenodd"/>
</svg>