<svg xmlns="http://www.w3.org/2000/svg" width="192" height="144" viewBox="0 0 192 144" version="1.1">
	<path d="M -0 72.005 L -0 144.010 96.250 143.755 L 192.500 143.500 192.757 71.750 L 193.013 0 96.507 0 L 0 0 -0 72.005 M 0.474 72.500 C 0.474 112.100, 0.598 128.154, 0.750 108.176 C 0.901 88.198, 0.901 55.798, 0.750 36.176 C 0.598 16.554, 0.474 32.900, 0.474 72.500 M 89.500 66.807 C 71.823 75.904, 71.713 77.362, 88.580 78.958 C 97.424 79.795, 101.472 81.141, 107.154 85.134 C 108.614 86.160, 110.230 87, 110.745 87 C 111.902 87, 116.511 78.499, 117.397 74.729 C 117.755 73.206, 117.573 71.070, 116.991 69.984 C 115.425 67.056, 105.908 60.989, 103.013 61.073 C 101.631 61.113, 95.550 63.693, 89.500 66.807" stroke="none" fill="black" fill-rule="evenodd"/>
</svg>