<svg xmlns="http://www.w3.org/2000/svg" width="192" height="144" viewBox="0 0 192 144" version="1.1">
	<path d="M 67.373 40.848 C 66.900 43.353, 67.376 45.430, 69.266 49.098 C 70.656 51.794, 71.389 54, 70.896 54 C 70.403 54, 70 54.685, 70 55.521 C 70 56.358, 68.862 58.763, 67.471 60.864 C 65.058 64.510, 64.932 68, 67.212 68 C 68.622 68, 67.740 73.894, 64.670 85 C 62.055 94.456, 58 119.065, 58 125.473 C 58 129.193, 60.850 131.534, 68.500 134.099 C 72.016 135.278, 72.198 135.479, 70 135.762 C 62.491 136.731, 57 138.274, 57 139.416 C 57 140.117, 57.823 141.435, 58.829 142.345 C 60.336 143.709, 62.976 144, 73.829 144 C 86.516 144, 87 143.923, 87 141.913 C 87 140.517, 86.016 139.455, 84.027 138.704 C 79.724 137.080, 79.501 135.235, 83.409 133.602 C 85.250 132.833, 87.045 131.737, 87.398 131.165 C 88.417 129.516, 86.058 98.172, 84.375 91 C 83.537 87.425, 82.683 83.702, 82.478 82.726 C 82.273 81.750, 82.776 79.051, 83.596 76.727 C 84.933 72.938, 84.918 71.830, 83.453 66.001 C 82.555 62.425, 81.141 58.231, 80.312 56.681 C 79.483 55.130, 78.961 53.780, 79.153 53.681 C 84.473 50.913, 85.385 46.977, 81.983 41.472 C 79.667 37.726, 77.601 36.874, 71.753 37.255 C 68.364 37.477, 67.946 37.820, 67.373 40.848" stroke="none" fill="black" fill-rule="evenodd"/>
</svg>