<svg xmlns="http://www.w3.org/2000/svg" width="192" height="144" viewBox="0 0 192 144" version="1.1">
	<path d="M 0 72 L 0 144 38.035 144 C 75.616 144, 76.058 143.976, 75.012 142.023 C 73.958 140.053, 76.732 126.704, 80.315 116.500 C 81.294 113.711, 81.497 110.836, 80.986 107 C 80.582 103.975, 80.582 100.825, 80.986 100 C 83.284 95.307, 87.194 74.123, 87.387 65.321 C 87.492 60.522, 87.376 60.254, 85.813 61.669 C 83.998 63.312, 82 62.720, 82 60.539 C 82 59.142, 86.932 57, 90.149 57 C 91.167 57, 92 56.559, 92 56.019 C 92 54.250, 96.726 53.777, 99.156 55.303 C 100.445 56.113, 103.215 57.077, 105.312 57.445 C 108.508 58.006, 109.074 58.468, 108.812 60.307 C 108.595 61.830, 107.923 62.400, 106.610 62.174 C 104.912 61.881, 104.792 62.287, 105.430 66.174 C 105.820 68.553, 106.523 74.100, 106.992 78.500 C 107.461 82.900, 108.972 90.035, 110.350 94.356 C 112.555 101.271, 112.739 102.931, 111.886 108.224 C 111.133 112.901, 111.247 115.267, 112.398 118.869 C 116.587 131.971, 118.168 139.818, 117.043 141.920 L 115.917 144.024 154.208 143.762 L 192.500 143.500 192.757 71.750 L 193.013 0 96.507 0 L 0 0 0 72 M 0.474 72.500 C 0.474 112.100, 0.598 128.154, 0.750 108.176 C 0.901 88.198, 0.901 55.798, 0.750 36.176 C 0.598 16.554, 0.474 32.900, 0.474 72.500" stroke="none" fill="black" fill-rule="evenodd"/>
</svg>