<svg xmlns="http://www.w3.org/2000/svg" width="192" height="144" viewBox="0 0 192 144" version="1.1">
	<path d="M 82.500 29 C 82.160 29.550, 82.157 30.445, 82.494 30.990 C 83.478 32.582, 87.099 52.027, 87.465 57.684 C 87.650 60.536, 88.126 63.395, 88.524 64.039 C 89.225 65.173, 90.603 76.339, 91.528 88.385 C 91.776 91.622, 92.403 94.781, 92.922 95.405 C 93.440 96.030, 94.640 101.706, 95.588 108.020 C 97.501 120.748, 97.468 120.304, 97.079 128 C 96.878 131.977, 96.613 132.828, 96.123 131.074 C 95.750 129.740, 94.827 128.442, 94.071 128.190 C 93.038 127.846, 92.880 128.324, 93.435 130.116 C 93.841 131.427, 94.524 134.300, 94.952 136.500 C 96.511 144.503, 95.538 144.084, 111.867 143.776 L 126.500 143.500 126.526 136 C 126.540 131.875, 126.911 126.475, 127.349 124 C 127.868 121.073, 127.735 118.451, 126.969 116.500 C 126.321 114.850, 125.861 110.016, 125.947 105.758 C 126.033 101.499, 125.594 95.424, 124.971 92.258 C 124.046 87.553, 124.128 85.254, 125.420 79.688 C 127.748 69.652, 127.557 63.311, 124.478 48.422 C 124.242 47.279, 122.934 45.142, 121.572 43.672 C 115.725 37.364, 103 43.170, 103 52.146 C 103 53.380, 104.194 55.637, 105.654 57.160 L 108.308 59.930 105.904 61.932 C 103.515 63.921, 103.490 63.921, 101.840 61.967 C 100.927 60.885, 99.429 60, 98.513 60 C 97.596 60, 95.472 58.626, 93.793 56.947 C 90.648 53.802, 89.154 48.290, 87.507 33.750 C 86.973 29.033, 86.520 28, 84.987 28 C 83.959 28, 82.840 28.450, 82.500 29 M 99.695 78.667 C 92.974 85.027, 93.391 87.390, 101.305 87.802 L 107.110 88.103 106.442 84.302 C 106.075 82.211, 105.487 79.064, 105.137 77.310 L 104.500 74.119 99.695 78.667 M 96.802 95.532 C 96.509 95.824, 96.644 98.187, 97.102 100.782 C 99.183 112.592, 100.354 117.046, 101.164 116.236 C 102.755 114.645, 102.380 104.628, 100.548 99.750 C 98.858 95.252, 98.022 94.311, 96.802 95.532" stroke="none" fill="black" fill-rule="evenodd"/>
</svg>