<svg xmlns="http://www.w3.org/2000/svg" width="192" height="144" viewBox="0 0 192 144" version="1.1">
	<path d="M 0 72 L 0 144 36.393 144 C 75.608 144, 74 144.216, 74 138.947 C 74 137.907, 75.163 134.457, 76.585 131.279 C 78.968 125.950, 79.117 124.806, 78.497 116.591 C 78.058 110.764, 77.306 107.164, 76.326 106.183 C 75.430 105.287, 75.026 103.646, 75.321 102.103 C 75.592 100.683, 75.397 98.742, 74.888 97.790 C 74.248 96.596, 74.619 94.270, 76.084 90.280 C 78.917 82.562, 79.442 80, 78.189 80 C 77.615 80, 76.368 78.239, 75.418 76.086 C 74.468 73.934, 72.523 71.572, 71.096 70.838 C 69.668 70.104, 68.169 69.052, 67.765 68.502 C 65.213 65.022, 69.388 60.028, 76.949 57.517 C 79.569 56.647, 82.756 54.824, 84.031 53.467 C 85.874 51.505, 87.337 51, 91.174 51 L 96 51 96 97.500 L 96 144 107.475 144 L 118.950 144 118.320 140.750 C 117.974 138.963, 117.085 135.756, 116.345 133.624 C 114.871 129.378, 114.656 122.376, 115.640 110.736 C 116.164 104.537, 116.553 103.275, 117.797 103.752 C 120.990 104.978, 117.287 88.303, 113.391 83.911 C 112.169 82.534, 112.282 81.639, 114.241 77.185 C 115.880 73.457, 117.056 72.041, 118.527 72.024 C 121.613 71.988, 125 69.159, 125 66.618 C 125 63.705, 121.793 60.733, 115.500 57.811 C 112.750 56.535, 108.764 54.413, 106.642 53.097 C 104.520 51.780, 101.370 50.414, 99.642 50.061 L 96.500 49.419 96.233 24.709 L 95.965 0 47.983 0 L 0 0 0 72 M 72.250 62.674 C 69.437 64.637, 69.364 66.663, 72.075 67.524 C 74.516 68.299, 74.399 68.402, 75.800 64.250 C 77.055 60.528, 75.999 60.059, 72.250 62.674 M 116.810 65.500 C 117.266 69.406, 117.755 69.667, 120.559 67.499 C 122.464 66.027, 122.456 65.961, 120.139 63.999 C 116.870 61.230, 116.340 61.469, 116.810 65.500 M 80.079 121.583 C 80.127 122.748, 80.364 122.985, 80.683 122.188 C 80.972 121.466, 80.936 120.603, 80.604 120.271 C 80.272 119.939, 80.036 120.529, 80.079 121.583" stroke="none" fill="black" fill-rule="evenodd"/>
</svg>