<svg xmlns="http://www.w3.org/2000/svg" width="192" height="144" viewBox="0 0 192 144" version="1.1">
	<path d="M -0 72.005 L -0 144.010 96.250 143.755 L 192.500 143.500 192.757 71.750 L 193.013 0 96.507 0 L 0 0 -0 72.005 M 0.474 72.500 C 0.474 112.100, 0.598 128.154, 0.750 108.176 C 0.901 88.198, 0.901 55.798, 0.750 36.176 C 0.598 16.554, 0.474 32.900, 0.474 72.500 M 131 49.466 C 131 50.310, 130.347 51, 129.550 51 C 128.752 51, 127.740 51.574, 127.300 52.275 C 125.900 54.505, 114.385 59.979, 108.906 61.018 C 103.234 62.094, 100.500 61.100, 102.800 58.800 C 104.934 56.666, 104.145 55, 101 55 C 99.350 55, 98 55.407, 98 55.905 C 98 56.403, 96.088 57.415, 93.750 58.155 C 91.147 58.979, 89.122 60.361, 88.525 61.722 C 87.989 62.944, 86.283 64.468, 84.735 65.110 C 83.187 65.751, 81.287 67.180, 80.513 68.285 C 79.370 69.917, 77.643 70.385, 71.303 70.783 C 67.011 71.052, 63.163 71.774, 62.750 72.386 C 62.202 73.200, 61.798 73.190, 61.250 72.351 C 59.790 70.113, 55.595 70.399, 53.250 72.896 C 50.294 76.044, 50.407 76.847, 54.017 78.365 C 55.676 79.063, 56.688 80.013, 56.267 80.476 C 55.845 80.939, 56.400 80.980, 57.500 80.566 C 61.715 78.980, 70.214 77, 72.805 77 C 75.081 77, 75.877 77.797, 77.811 82.011 C 79.639 85.996, 81.173 87.632, 85.305 90.002 C 93.317 94.597, 97.129 94.182, 106.140 87.733 C 114.979 81.407, 116.733 77.907, 114.221 71.608 C 112.760 67.943, 112.781 67.632, 114.584 66.296 C 115.638 65.515, 117.737 64.623, 119.250 64.313 C 120.763 64.003, 122 63.449, 122 63.082 C 122 62.715, 124.588 61.566, 127.750 60.530 C 134.650 58.270, 134.786 58.169, 135.214 55 C 135.399 53.625, 135.922 51.908, 136.375 51.183 C 137.419 49.518, 136.583 48.679, 133.462 48.261 C 131.773 48.035, 131 48.413, 131 49.466" stroke="none" fill="black" fill-rule="evenodd"/>
</svg>