<svg xmlns="http://www.w3.org/2000/svg" width="192" height="144" viewBox="0 0 192 144" version="1.1">
	<path d="M 0 45.079 L 0 90.159 2.750 89.622 C 4.263 89.326, 8.650 88.800, 12.500 88.454 C 16.350 88.107, 30.975 86.265, 45 84.361 C 107.798 75.834, 135.909 75.083, 164 81.181 C 171.470 82.803, 175.464 83.117, 182.691 82.652 L 191.883 82.061 192.273 85.781 C 192.488 87.826, 192.695 69.250, 192.732 44.500 C 192.770 19.750, 192.498 0.583, 192.127 1.907 C 190.883 6.353, 185 6.741, 185 2.377 L 185 -0.032 157.750 0.234 L 130.500 0.500 130.180 3.284 C 129.958 5.223, 130.943 7.573, 133.430 11.036 C 135.394 13.769, 137 16.197, 137 16.433 C 137 16.668, 136.028 17.005, 134.841 17.180 C 133.653 17.356, 132.562 18.323, 132.418 19.328 C 131.880 23.061, 131.028 24.144, 129.110 23.535 C 127.734 23.098, 127.251 23.394, 127.355 24.608 C 127.607 27.524, 125.289 27.214, 123.020 24.028 C 119.771 19.466, 117 10.718, 117 5.025 L 117 0 58.500 0 L 0 0 0 45.079 M 0.460 45.500 C 0.460 70.250, 0.590 80.232, 0.749 67.682 C 0.908 55.132, 0.908 34.882, 0.749 22.682 C 0.590 10.482, 0.460 20.750, 0.460 45.500 M -0 119.986 L -0 144.010 96.250 143.755 L 192.500 143.500 192.579 119 C 192.622 105.525, 192.489 96.540, 192.283 99.034 L 191.908 103.567 182.015 103.170 C 175.381 102.903, 169.712 103.291, 164.811 104.347 C 149.230 107.704, 143.865 108.186, 123.024 108.101 C 99.615 108.004, 80.850 106.474, 48.500 102.023 C 36.950 100.434, 22.325 98.639, 16 98.034 C 9.675 97.429, 3.488 96.715, 2.250 96.448 L 0 95.962 -0 119.986 M 0.432 120 C 0.432 133.475, 0.574 138.988, 0.747 132.250 C 0.920 125.513, 0.920 114.487, 0.747 107.750 C 0.574 101.013, 0.432 106.525, 0.432 120" stroke="none" fill="black" fill-rule="evenodd"/>
</svg>