<svg xmlns="http://www.w3.org/2000/svg" width="192" height="144" viewBox="0 0 192 144" version="1.1">
	<path d="M 0 72 L 0 144 37.500 144 L 75 144 75 141.622 C 75 140.314, 75.675 137.629, 76.500 135.654 C 78.586 130.662, 78.373 127.026, 75.837 124.327 C 73.316 121.643, 73.212 117.865, 75.455 110.500 C 77.494 103.806, 77.425 103.492, 74.351 105.506 L 71.702 107.242 72.316 104.171 C 72.653 102.483, 74.976 98.321, 77.478 94.923 C 79.979 91.525, 82.272 87.565, 82.573 86.122 C 82.874 84.680, 83.544 82.717, 84.062 81.761 C 84.782 80.430, 84.161 78.919, 81.416 75.322 C 78.758 71.840, 77.935 69.894, 78.241 67.811 C 78.468 66.265, 78.282 65, 77.827 65 C 76.084 65, 77.100 61.787, 79 61.290 C 81.760 60.568, 81.503 59.343, 78.429 58.572 C 75.387 57.808, 75.725 55.361, 78.811 55.807 C 80.844 56.102, 80.909 55.832, 80.323 49.557 C 79.681 42.683, 80.126 41.999, 83.640 44.461 C 85.450 45.728, 85.975 45.732, 87.613 44.492 C 88.651 43.707, 90.140 43.049, 90.921 43.032 C 91.703 43.014, 93.165 42.255, 94.171 41.345 C 95.941 39.744, 96 41.381, 96 91.845 L 96 144 107.862 144 C 121.275 144, 121.158 144.101, 117.615 135.620 C 115.067 129.522, 115.826 106.612, 118.541 107.654 C 119.874 108.166, 120.840 101.771, 121.283 89.500 L 121.500 83.500 118.454 83.435 C 112.748 83.314, 112.570 82.167, 117.448 76.952 C 122.989 71.029, 123.322 68.037, 118.901 63.908 C 116.354 61.528, 116.087 60.904, 117.401 60.400 C 118.281 60.062, 119 59.111, 119 58.286 C 119 57.330, 118.427 57.006, 117.421 57.392 C 116.041 57.922, 115.928 57.187, 116.529 51.578 C 117.356 43.849, 116.717 42.300, 113.556 44.371 C 111.505 45.716, 110.832 45.628, 106.199 43.410 C 103.394 42.068, 100.825 40.527, 100.491 39.985 C 100.156 39.443, 99.009 39, 97.941 39 C 96.086 39, 96 38.136, 96 19.500 L 96 0 48 0 L 0 0 0 72 M 80.667 65.667 C 79 67.333, 80.174 71.792, 82.990 74.490 C 84.634 76.065, 86.226 77.108, 86.527 76.806 C 87.560 75.773, 84.664 70.915, 83.322 71.430 C 81.947 71.957, 81.653 71.053, 81.961 67.250 C 82.149 64.925, 81.816 64.517, 80.667 65.667 M 116.367 67.197 C 115.917 67.914, 115.680 69.288, 115.838 70.251 C 116.017 71.341, 115.210 72.350, 113.699 72.924 C 111.672 73.695, 110 75.800, 110 77.582 C 110 78.871, 113.772 77.648, 116.712 75.406 C 119.482 73.293, 120.056 72.241, 119.806 69.733 C 119.476 66.411, 117.686 65.092, 116.367 67.197 M 91 79 C 91 79.550, 91.450 80, 92 80 C 92.550 80, 93 79.550, 93 79 C 93 78.450, 92.550 78, 92 78 C 91.450 78, 91 78.450, 91 79 M 104.229 79.188 C 104.847 81.042, 107 81.349, 107 79.583 C 107 78.713, 106.287 78, 105.417 78 C 104.546 78, 104.011 78.534, 104.229 79.188 M 83.574 115.667 C 83.222 116.584, 83.399 117.799, 83.967 118.367 C 84.678 119.078, 85 118.557, 85 116.700 C 85 113.615, 84.501 113.253, 83.574 115.667" stroke="none" fill="black" fill-rule="evenodd"/>
</svg>