<svg xmlns="http://www.w3.org/2000/svg" width="192" height="144" viewBox="0 0 192 144" version="1.1">
	<path d="M 100.644 9.991 C 96.619 13.745, 96.540 13.943, 97.761 17.176 C 98.874 20.124, 98.788 20.783, 97.003 23 C 91.762 29.507, 91.500 30.234, 91.500 38.242 C 91.500 42.708, 91.961 46.380, 92.573 46.786 C 93.163 47.179, 93.940 48.298, 94.300 49.273 C 94.660 50.248, 95.752 51.297, 96.727 51.604 C 102.489 53.420, 103.105 53.935, 101.994 56.010 C 101.116 57.651, 101.250 58.145, 102.707 58.644 C 103.693 58.982, 106.111 60.991, 108.079 63.108 C 111.351 66.628, 111.930 66.881, 114.816 66.053 C 116.552 65.555, 118.185 65.491, 118.445 65.911 C 119.027 66.852, 112.165 73.481, 109.726 74.335 C 108.750 74.676, 107.595 75.920, 107.159 77.099 C 106.550 78.745, 105.338 79.338, 101.933 79.654 C 92.485 80.530, 87.378 80.343, 84.338 79.012 C 81.386 77.720, 80.947 77.803, 77.707 80.275 C 75.798 81.730, 73.717 83.051, 73.080 83.210 C 72.444 83.370, 70.027 80.157, 67.708 76.071 C 62.922 67.636, 59.570 65.608, 56.331 69.186 C 54.597 71.103, 54.658 71.396, 58.233 78.333 C 60.291 82.325, 62.195 87.715, 62.531 90.500 C 63.845 101.366, 64.573 102.522, 72.733 106.692 C 76.831 108.787, 81.155 111.525, 82.342 112.778 C 85.859 116.489, 93.284 123.582, 96.417 126.225 C 99.314 128.667, 99.376 129.617, 96.868 133.082 C 96.133 134.097, 95.973 136.336, 96.423 139.332 L 97.123 144 122.561 144 C 142.538 144, 148 143.726, 148 142.723 C 148 141.190, 145.239 137.080, 142.811 135 C 140.981 133.432, 139 121.341, 139 111.745 C 139 108.394, 138.546 106.763, 137.500 106.362 C 134.321 105.142, 136.210 104.067, 140.500 104.655 C 143.554 105.074, 145 104.907, 145 104.136 C 145 103.511, 146.125 103, 147.500 103 C 148.875 103, 150 102.550, 150 102 C 150 101.450, 150.911 101, 152.025 101 C 153.302 101, 154.454 99.984, 155.144 98.250 C 155.927 96.283, 156.390 95.927, 156.769 97 C 157.061 97.825, 157.701 98.763, 158.192 99.085 C 158.711 99.425, 158.671 101.507, 158.098 104.058 C 156.956 109.143, 157.390 110.140, 159.566 107.427 C 160.991 105.651, 161.063 105.950, 160.484 111.250 C 160.067 115.065, 160.217 117, 160.928 117 C 161.518 117, 162 118.630, 162 120.622 C 162 123.811, 162.189 124.088, 163.581 122.933 C 164.993 121.761, 165.084 122.038, 164.429 125.525 L 163.697 129.429 166.378 127.672 C 169.037 125.930, 169.055 125.934, 168.478 128.231 C 167.757 131.105, 169.155 135.168, 170.535 134.209 C 171.096 133.819, 172.115 132.375, 172.798 131 C 174.029 128.526, 174.035 128.531, 173.419 131.500 C 173.077 133.150, 172.643 136.637, 172.455 139.250 L 172.113 144 182.056 144 L 192 144 192 110.586 L 192 77.172 185.250 73.399 C 178.854 69.824, 167.979 60.052, 163.106 53.500 C 161.771 51.705, 160.675 50.974, 160.377 51.680 C 157.926 57.497, 141.018 75.501, 138.716 74.744 C 137.383 74.306, 136.506 66.730, 137.491 64.164 C 137.990 62.862, 138.267 62.813, 138.942 63.906 C 140.293 66.091, 142 64.157, 142 60.441 C 142 56.758, 143.310 55.882, 144.531 58.750 C 145.173 60.259, 145.380 60.156, 146.038 58 C 147.514 53.162, 147.014 48.277, 144.591 43.876 C 143.267 41.469, 141.376 36.575, 140.390 33.001 C 138.946 27.767, 137.662 25.567, 133.796 21.701 C 128.851 16.756, 122.221 13.061, 118.225 13.022 C 116.737 13.008, 115.625 12.145, 115.011 10.528 C 114.429 8.998, 113.010 7.832, 111.285 7.468 C 109.753 7.144, 107.664 6.711, 106.641 6.505 C 105.510 6.277, 103.164 7.641, 100.644 9.991 M 96 82.408 C 90.023 83.695, 90.083 83.561, 92.117 91 C 93.287 95.278, 97.646 102, 99.250 102 C 99.662 102, 100 101.109, 100 100.020 C 100 98.931, 100.639 96.344, 101.420 94.270 C 103.343 89.162, 104.095 80.966, 102.627 81.112 C 102.007 81.174, 99.025 81.757, 96 82.408 M 77 90.813 C 77 91.260, 78.425 92.948, 80.166 94.563 L 83.332 97.500 80.547 93.750 C 77.723 89.947, 77 89.348, 77 90.813 M 134.750 112.580 C 133.532 113.803, 133.979 121.257, 135.464 124.500 L 136.838 127.500 136.861 123.500 C 136.893 118.024, 135.664 111.663, 134.750 112.580 M 189.079 136.583 C 189.127 137.748, 189.364 137.985, 189.683 137.188 C 189.972 136.466, 189.936 135.603, 189.604 135.271 C 189.272 134.939, 189.036 135.529, 189.079 136.583" stroke="none" fill="black" fill-rule="evenodd"/>
</svg>