<svg xmlns="http://www.w3.org/2000/svg" width="192" height="144" viewBox="0 0 192 144" version="1.1">
	<path d="M 55.184 2.635 C 48.084 8.230, 44.652 17.385, 46.994 24.483 C 49.190 31.136, 56.785 38, 61.950 38 C 65.841 38, 63.987 39.879, 59.420 40.564 C 56.566 40.992, 54.616 41.863, 54.244 42.875 C 53.916 43.769, 52.563 45.943, 51.238 47.707 C 48.848 50.888, 48.897 53.361, 51.331 52.426 C 53.255 51.688, 56.865 58.975, 57.085 64.040 C 57.268 68.241, 55.462 82.444, 54.559 83.904 C 53.400 85.780, 52.515 99.194, 52.641 113 C 52.760 125.970, 53.127 129.474, 54.891 134.465 C 56.051 137.746, 57 141.234, 57 142.215 C 57 144.241, 59.570 144.653, 60.338 142.750 C 60.741 141.750, 60.858 141.750, 60.921 142.750 C 60.964 143.438, 61.681 144, 62.513 144 C 63.862 144, 63.860 143.602, 62.499 140.343 C 57.324 127.957, 55.910 105.890, 59.061 86.672 C 60.127 80.166, 61 74.654, 61 74.422 C 61 74.190, 61.389 74, 61.864 74 C 62.339 74, 63.505 76.033, 64.453 78.517 C 67.053 85.324, 73.196 88.919, 89.291 93.053 L 94.083 94.283 92.041 96.456 C 90.919 97.651, 90 99.051, 90 99.568 C 90 100.084, 88.433 102.711, 86.517 105.406 C 84.601 108.100, 82.799 111.699, 82.513 113.403 C 81.358 120.268, 81.104 126.931, 81.681 135.250 L 82.287 144 97.050 144 L 111.812 144 111.656 137.750 C 111.506 131.740, 113.322 125, 115.092 125 C 116.217 125, 120.996 135.167, 121.014 137.596 C 121.057 143.628, 121.621 144, 130.733 144 C 139.119 144, 139.222 143.970, 138.433 141.750 C 136.796 137.147, 136.819 114.001, 138.469 105.858 C 140.175 97.438, 143.807 87, 145.030 87 C 145.444 87, 146.066 88.125, 146.411 89.500 C 147.326 93.147, 149.038 92.612, 154.717 86.902 C 161.132 80.454, 165.233 73.092, 164.813 68.780 C 164.349 64.013, 158.987 60.632, 153.250 61.488 C 150.912 61.837, 149.005 61.757, 149.011 61.311 C 149.017 60.865, 152.279 58.845, 156.261 56.822 C 161.330 54.247, 165.324 52.983, 169.583 52.605 C 172.928 52.308, 176.440 51.768, 177.387 51.405 C 178.964 50.800, 178.931 50.556, 177 48.500 C 175.194 46.578, 175.115 46.170, 176.446 45.659 C 177.301 45.331, 178 44.412, 178 43.617 C 178 42.821, 180.250 40.519, 183 38.500 C 185.750 36.481, 188 34.584, 188 34.284 C 188 32.325, 178.709 35.756, 161.500 44.069 C 155.191 47.117, 142.880 51.213, 142.168 50.502 C 141.939 50.272, 142.932 48.681, 144.376 46.966 C 147.276 43.519, 147.596 41.996, 145.800 40.200 C 144.014 38.414, 142.300 38.745, 141.713 40.988 C 141.427 42.081, 140.072 43.402, 138.702 43.923 C 137.331 44.444, 136.050 45.346, 135.855 45.927 C 135.442 47.156, 132.818 47.267, 124.468 46.410 C 118.091 45.756, 110.215 47.921, 111.487 49.979 C 111.834 50.541, 111.696 51, 111.180 51 C 109.471 51, 107.630 56.850, 108.870 58.343 C 110.242 59.996, 109.353 61, 106.518 61 C 104.771 61, 103.931 62.243, 102.018 67.661 L 99.667 74.322 102.260 76.411 C 104.705 78.380, 104.776 78.684, 103.497 81.699 L 102.140 84.898 96.820 83.038 C 93.894 82.016, 88.125 80.398, 83.999 79.444 L 76.498 77.709 74.150 72.104 C 72.859 69.022, 71.263 64.589, 70.605 62.254 C 69.946 59.918, 68.866 57.466, 68.204 56.804 C 66.777 55.377, 66.608 53, 67.933 53 C 68.446 53, 69.156 52.084, 69.511 50.965 C 70.129 49.018, 70.304 49.060, 73.557 51.916 C 77.615 55.479, 82.331 56.555, 87.561 55.111 C 90.641 54.260, 91.721 54.342, 93.028 55.526 C 95.105 57.405, 96.432 57.389, 98.028 55.466 C 99.049 54.236, 99.054 53.470, 98.055 51.602 C 97.026 49.679, 97.087 48.733, 98.404 46.186 C 102.285 38.680, 99.203 29.463, 91.466 25.436 C 87.674 23.464, 87.472 23.112, 86.873 17.436 C 86.063 9.757, 85.439 8.263, 81.154 3.750 L 77.594 0 68.047 0.011 C 59.275 0.021, 58.231 0.234, 55.184 2.635 M 59 68.059 C 59 68.641, 59.450 68.840, 60 68.500 C 60.550 68.160, 61 67.684, 61 67.441 C 61 67.198, 60.550 67, 60 67 C 59.450 67, 59 67.477, 59 68.059 M 58 74.559 C 58 75.416, 58.450 75.840, 59 75.500 C 59.550 75.160, 60 74.459, 60 73.941 C 60 73.423, 59.550 73, 59 73 C 58.450 73, 58 73.702, 58 74.559 M 57.079 81.583 C 57.127 82.748, 57.364 82.985, 57.683 82.188 C 57.972 81.466, 57.936 80.603, 57.604 80.271 C 57.272 79.939, 57.036 80.529, 57.079 81.583 M 55.639 86.694 C 54.686 87.647, 54.867 90, 55.893 90 C 57.120 90, 58.105 87.183, 57.096 86.559 C 56.647 86.282, 55.991 86.342, 55.639 86.694 M 55.079 94.583 C 55.127 95.748, 55.364 95.985, 55.683 95.188 C 55.972 94.466, 55.936 93.603, 55.604 93.271 C 55.272 92.939, 55.036 93.529, 55.079 94.583 M 54 102.059 C 54 103.191, 54.450 103.840, 55 103.500 C 55.550 103.160, 56 102.234, 56 101.441 C 56 100.648, 55.550 100, 55 100 C 54.450 100, 54 100.927, 54 102.059 M 54.079 109.583 C 54.127 110.748, 54.364 110.985, 54.683 110.188 C 54.972 109.466, 54.936 108.603, 54.604 108.271 C 54.272 107.939, 54.036 108.529, 54.079 109.583 M 54 116.500 C 54 117.325, 54.450 118, 55 118 C 55.550 118, 56 117.325, 56 116.500 C 56 115.675, 55.550 115, 55 115 C 54.450 115, 54 115.675, 54 116.500 M 55.079 123.583 C 55.127 124.748, 55.364 124.985, 55.683 124.188 C 55.972 123.466, 55.936 122.603, 55.604 122.271 C 55.272 121.939, 55.036 122.529, 55.079 123.583 M 56 130.441 C 56 131.298, 56.450 132, 57 132 C 57.550 132, 58 131.577, 58 131.059 C 58 130.541, 57.550 129.840, 57 129.500 C 56.450 129.160, 56 129.584, 56 130.441" stroke="none" fill="black" fill-rule="evenodd"/>
</svg>