<svg xmlns="http://www.w3.org/2000/svg" width="192" height="144" viewBox="0 0 192 144" version="1.1">
	<path d="M 0 51.105 L 0 102.210 3.750 101.629 C 5.813 101.309, 9.525 100.797, 12 100.490 C 23.580 99.056, 25.100 98.256, 21.397 95.548 C 19.953 94.493, 19.940 93.932, 21.263 89.938 C 23.708 82.553, 24.270 77, 22.571 77 C 20.106 77, 19.868 75.300, 21.467 69.126 C 22.315 65.855, 22.935 62.352, 22.846 61.340 C 22.122 53.147, 24.882 49.382, 29.428 52.361 C 31.371 53.634, 31.801 54.974, 32.241 61.131 C 32.679 67.248, 33.147 68.723, 35.199 70.449 C 37.757 72.602, 37.897 76, 35.427 76 C 33.667 76, 33.649 79.045, 35.352 88.750 C 36.611 95.924, 36.425 97.025, 34.313 94.913 C 32.678 93.278, 31.536 95.736, 33.072 97.586 C 33.828 98.498, 33.955 99.445, 33.395 100.005 C 32.442 100.958, 19.863 102.739, 7.250 103.707 L -0 104.263 -0 124.132 L 0 144 35.025 144 L 70.050 144 71.032 141.416 C 71.572 139.995, 71.785 138.462, 71.505 138.008 C 70.770 136.819, 70.675 123.601, 71.385 121.362 C 71.811 120.019, 71.338 119.182, 69.757 118.484 C 66.261 116.940, 65.544 113.214, 66.577 101.954 C 67.089 96.377, 67.277 91.671, 66.997 91.498 C 66.716 91.324, 62.664 92.441, 57.993 93.979 C 47.130 97.556, 43.828 98.208, 42.122 97.110 C 40.076 95.794, 41.606 94.165, 45.588 93.418 C 48.849 92.806, 49.060 92.548, 48.474 89.880 C 47.949 87.490, 48.119 87.109, 49.478 87.630 C 50.416 87.990, 50.872 88.892, 50.545 89.743 C 50.077 90.963, 50.644 91.102, 53.738 90.524 C 55.807 90.137, 57.950 89.492, 58.500 89.091 C 59.050 88.689, 61.413 87.757, 63.750 87.020 C 66.088 86.283, 68 85.350, 68 84.947 C 68 83.653, 65.088 83.048, 64.379 84.195 C 63.914 84.949, 63.323 84.795, 62.534 83.715 C 61.895 82.842, 57.351 81.151, 52.436 79.958 C 47.521 78.764, 43.123 77.436, 42.663 77.007 C 40.766 75.237, 44.063 75.216, 50.819 76.953 C 54.768 77.969, 58.037 78.733, 58.082 78.650 C 58.127 78.568, 58.377 77.150, 58.638 75.500 C 58.898 73.850, 60.139 70.925, 61.395 69 C 66.795 60.727, 67.090 59.998, 66.439 56.529 C 65.912 53.719, 66.242 52.667, 68.294 50.615 C 70.651 48.258, 70.693 48.032, 69.050 46.545 C 68.093 45.679, 66.156 42.615, 64.746 39.735 C 62.898 35.964, 60.267 32.976, 55.340 29.053 C 43.024 19.246, 29.250 7.031, 27.504 4.366 C 26.365 2.627, 26.245 2.021, 27.146 2.553 C 28.386 3.285, 46.846 18.747, 48 20.021 C 48.275 20.324, 51.994 23.403, 56.265 26.862 L 64.030 33.153 67.092 30.576 C 70.772 27.480, 74.050 26.535, 77.750 27.503 C 79.263 27.898, 82.975 28.285, 86 28.361 L 91.500 28.500 91.614 33 C 91.709 36.806, 91.216 38.040, 88.412 41 C 86.588 42.925, 85.200 45.194, 85.326 46.041 C 85.657 48.260, 89.774 55, 90.799 55 C 91.275 55, 93.112 56.800, 94.880 59 C 98.995 64.121, 96.562 64.496, 91.575 59.509 C 88.535 56.468, 87.753 56.143, 85.519 56.993 C 82.682 58.071, 82.701 59.465, 85.665 67.783 C 86.735 70.788, 86.881 72.439, 86.152 73.316 C 85.528 74.069, 85.465 75.135, 85.996 75.993 C 86.921 77.490, 91.390 76.048, 103.260 70.425 C 107.903 68.226, 108.046 68.218, 109.044 70.082 C 110.122 72.096, 108.968 72.805, 94.750 78.864 C 86.176 82.517, 88.684 84.382, 105.035 86.514 C 120.051 88.472, 121.162 88.763, 118.774 90.104 C 117.098 91.045, 97.895 89.664, 94.491 88.358 C 93.671 88.043, 93 88.210, 93 88.727 C 93 89.822, 100.285 100.487, 103.205 103.668 C 106.749 107.529, 104.093 113.493, 97.757 115.902 C 95.370 116.810, 95.147 117.237, 96.024 119.222 C 97.428 122.402, 100.131 136.827, 100.059 140.760 L 100 144.020 146.250 143.760 L 192.500 143.500 192.759 71.750 L 193.018 0 181.639 0 L 170.260 0 169.729 4.716 C 169.304 8.479, 168.481 10.088, 165.647 12.684 C 161.057 16.891, 157.838 17.624, 151.037 16.009 C 144.489 14.454, 142.558 14.405, 129.804 15.475 C 117.777 16.483, 115.496 15.663, 109.974 8.350 C 106.867 4.234, 105.414 3.051, 104.013 3.496 C 102.717 3.907, 101.967 3.471, 101.513 2.042 C 100.872 0.022, 100.331 -0, 50.433 -0 L 0 0 0 51.105 M 116.139 2.015 L 118.500 4.031 115.500 3.447 C 112.644 2.892, 112.593 2.939, 114.441 4.432 C 115.509 5.294, 117.469 6, 118.797 6 C 121.849 6, 131.686 3.471, 136.120 1.545 C 139.324 0.155, 138.829 0.076, 126.639 0.039 L 113.778 0 116.139 2.015 M 0.464 51.500 C 0.464 79.550, 0.592 91.169, 0.749 77.320 C 0.906 63.471, 0.906 40.521, 0.749 26.320 C 0.593 12.119, 0.465 23.450, 0.464 51.500 M 120.188 37.063 C 120.428 37.784, 121.216 38.572, 121.938 38.813 C 122.688 39.063, 123.063 38.688, 122.813 37.938 C 122.572 37.216, 121.784 36.428, 121.063 36.188 C 120.313 35.938, 119.938 36.313, 120.188 37.063 M 158.813 43.683 C 159.534 43.972, 160.397 43.936, 160.729 43.604 C 161.061 43.272, 160.471 43.036, 159.417 43.079 C 158.252 43.127, 158.015 43.364, 158.813 43.683 M 170.496 54.007 C 169.701 55.292, 172.510 56.402, 174.563 55.614 C 176.567 54.845, 175.464 53, 173 53 C 171.965 53, 170.838 53.453, 170.496 54.007 M 66.073 68.635 C 62.317 73.409, 64.028 80.719, 68.690 79.821 C 70.697 79.435, 71.537 76.743, 70.446 74.192 C 70.048 73.261, 69.820 71.037, 69.938 69.250 C 70.199 65.315, 68.853 65.100, 66.073 68.635 M 29 95 C 29 95.550, 28.063 96, 26.917 96 C 24.189 96, 24.964 98.398, 27.828 98.820 C 29.577 99.077, 30 98.638, 30 96.570 C 30 95.156, 29.775 94, 29.500 94 C 29.225 94, 29 94.450, 29 95 M 0.422 124 C 0.422 135.275, 0.568 139.887, 0.746 134.250 C 0.924 128.613, 0.924 119.388, 0.746 113.750 C 0.568 108.112, 0.422 112.725, 0.422 124 M 85.586 120.091 C 83.983 120.544, 82.336 120.708, 81.926 120.454 C 80.243 119.414, 78.023 121.391, 77.557 124.347 C 76.688 129.855, 76.211 140.092, 76.732 142.081 C 77.182 143.803, 78.208 144, 86.724 144 C 95.362 144, 96.151 143.843, 95.515 142.250 C 95.130 141.287, 94.686 139.375, 94.529 138 C 94.183 134.985, 89.905 120.752, 89.083 119.883 C 88.763 119.544, 87.189 119.638, 85.586 120.091 M 179.667 127.667 C 178.399 128.934, 179.008 130, 181 130 C 182.111 130, 183 129.333, 183 128.500 C 183 126.978, 180.885 126.449, 179.667 127.667" stroke="none" fill="black" fill-rule="evenodd"/>
</svg>