<svg xmlns="http://www.w3.org/2000/svg" width="192" height="144" viewBox="0 0 192 144" version="1.1">
	<path d="M 51.984 31 C 50.570 36.086, 50.763 37.816, 52.949 39.688 C 54.021 40.606, 54.667 41.730, 54.386 42.185 C 54.104 42.641, 54.802 44.318, 55.937 45.911 C 58.411 49.386, 58.486 50, 56.437 50 C 55.487 50, 54.994 50.704, 55.178 51.796 C 55.346 52.783, 54.009 55.371, 52.207 57.546 C 47.772 62.901, 47.066 65.968, 49.844 67.812 C 52.640 69.669, 52.567 70.756, 48.927 81.500 C 47.249 86.450, 45.707 92.075, 45.499 94 C 45.292 95.925, 44.670 100.425, 44.118 104 C 43.232 109.742, 42.308 116.120, 39.161 138.250 L 38.343 144 58.543 144 L 78.742 144 77.853 139.250 C 77.364 136.637, 76.285 128.650, 75.455 121.500 C 74.011 109.058, 70.200 91.859, 67.897 87.386 C 67.078 85.796, 67.152 84.557, 68.198 82.386 C 69.720 79.227, 69.980 57.771, 68.557 52.737 C 67.858 50.263, 68.098 49.862, 70.847 48.903 C 73.605 47.942, 74.920 46.089, 75.608 42.195 C 76.005 39.951, 72.256 32.619, 69.227 29.718 C 66.568 27.170, 65.778 26.965, 59.643 27.221 L 52.957 27.500 51.984 31 M 157.328 130.250 C 156.893 130.938, 155.823 134.313, 154.951 137.750 L 153.364 144 163.701 144 L 174.038 144 173.434 141.593 C 173.102 140.269, 173.289 138.328, 173.850 137.280 C 175.409 134.368, 173.094 130.511, 169.752 130.454 C 168.280 130.429, 166.758 130.092, 166.371 129.704 C 165.173 128.506, 158.163 128.929, 157.328 130.250" stroke="none" fill="black" fill-rule="evenodd"/>
</svg>