<svg xmlns="http://www.w3.org/2000/svg" width="192" height="144" viewBox="0 0 192 144" version="1.1">
	<path d="M 0 52 C 0 110.732, -0.812 105.609, 8 102.500 C 10.338 101.675, 14.445 101, 17.126 101 C 20.718 101, 22 100.618, 22 99.550 C 22 98.752, 21.334 97.727, 20.520 97.271 C 19.361 96.623, 19.237 95.687, 19.949 92.971 C 21.620 86.593, 21.893 78.156, 20.467 76.972 C 19.386 76.076, 19.491 74.887, 21.049 70.359 C 22.093 67.323, 22.888 64.087, 22.815 63.169 C 22.343 57.207, 23.393 54.615, 26.699 53.584 C 30.906 52.271, 34.403 59.156, 31.780 63.586 C 30.708 65.395, 32.275 71.077, 34.118 72.063 C 36.688 73.439, 36.603 77, 34 77 C 31.279 77, 31.399 79.883, 34.498 88.994 C 36.975 96.277, 37.062 98.462, 34.783 96.183 C 32.675 94.075, 31.726 94.923, 32.292 98.411 L 32.845 101.822 26.673 102.858 C 13.028 105.149, 3.890 106.204, 1.996 105.709 C 0.052 105.201, 0 105.692, 0 124.594 L 0 144 36.826 144 L 73.651 144 75.630 141.750 C 77.971 139.089, 83 131.329, 83 130.379 C 83 130.014, 85.078 127.283, 87.618 124.310 C 90.159 121.336, 92.011 118.678, 91.735 118.402 C 91.459 118.126, 88.495 118.823, 85.148 119.950 C 78.080 122.331, 73 122.627, 73 120.658 C 73 119.920, 74.757 118.790, 76.903 118.147 C 80.174 117.167, 80.717 116.633, 80.252 114.855 C 79.850 113.318, 80.083 112.873, 81.098 113.241 C 81.869 113.521, 82.388 114.256, 82.250 114.875 C 81.865 116.606, 84.075 116.236, 91.078 113.394 C 97.515 110.781, 98.956 109.647, 98.985 107.171 C 98.996 106.212, 98.162 106.025, 96 106.500 C 93.636 107.019, 93 106.818, 93 105.548 C 93 104.662, 92.213 103.667, 91.250 103.337 C 86.106 101.574, 78 97.614, 78 96.863 C 78 95.544, 79.126 95.785, 85.980 98.570 C 89.722 100.091, 93.242 100.905, 94.600 100.564 C 95.983 100.217, 97.213 100.517, 97.697 101.320 C 99.323 104.015, 101.732 103.889, 104.538 100.961 C 106.794 98.605, 107.079 97.801, 106.083 96.600 C 105.266 95.616, 105.170 94.526, 105.792 93.314 C 107.334 90.309, 108.070 82.162, 106.867 81.418 C 106.228 81.023, 106.020 79.265, 106.361 77.124 C 107.020 72.975, 106.256 71.322, 102.885 69.603 C 101.122 68.704, 100.532 67.612, 100.623 65.416 L 100.747 62.444 84.123 62.810 C 74.980 63.011, 63.097 63.720, 57.716 64.385 C 49.026 65.459, 47.965 65.422, 48.228 64.055 C 48.882 60.657, 53.441 59.951, 78.699 59.336 C 96.038 58.914, 104.252 58.341, 106 57.433 C 108.982 55.884, 117.838 53, 119.612 53 C 120.302 53, 121.010 54.238, 121.184 55.750 C 121.407 57.694, 122.086 58.523, 123.500 58.578 C 127.535 58.735, 134.534 60.254, 135.750 61.236 C 137.200 62.406, 137.381 66.849, 136.064 68.931 C 135.396 69.987, 134.974 69.377, 134.453 66.601 C 133.636 62.247, 131.687 61.068, 129.131 63.382 C 127.693 64.683, 127.426 66.097, 127.791 70.487 C 128.215 75.603, 128.037 76.163, 125.123 78.886 C 122.187 81.627, 122.006 82.213, 122.100 88.651 C 122.155 92.418, 122.492 96.513, 122.850 97.750 L 123.500 100.001 131.216 96.350 C 137.626 93.317, 139.192 92.914, 140.466 93.972 C 141.310 94.672, 142 95.591, 142 96.014 C 142 96.436, 137.613 98.692, 132.250 101.027 C 126.888 103.362, 122.333 105.415, 122.130 105.589 C 121.926 105.764, 122.034 106.999, 122.369 108.333 C 122.911 110.494, 124.344 111.117, 135.489 114.036 C 142.370 115.839, 148 117.694, 148 118.157 C 148 119.646, 140.185 119.058, 132.807 117.014 C 128.865 115.921, 125.463 115.204, 125.247 115.419 C 125.032 115.635, 128.263 119.641, 132.428 124.322 C 136.592 129.003, 140 133.446, 140 134.194 C 140 136.340, 137.052 139.996, 133.633 142.091 C 130.507 144.006, 130.565 144.009, 161.500 143.755 L 192.500 143.500 192.759 71.750 L 193.017 0 155.919 -0 L 118.820 -0 123.910 4.023 C 126.710 6.236, 129 8.385, 129 8.800 C 129 9.214, 132.262 12.953, 136.250 17.110 C 142.407 23.527, 144.559 25.069, 150.523 27.334 C 157.324 29.917, 165 35.114, 165 37.135 C 165 37.679, 163.088 36.789, 160.750 35.156 C 158.143 33.336, 154.567 31.925, 151.500 31.507 C 146.398 30.812, 139.186 27.708, 134.901 24.364 C 133.587 23.339, 129.360 19.422, 125.506 15.660 C 116.827 7.186, 115.880 6.670, 110.675 7.578 C 100.652 9.327, 95.932 7.978, 93.018 2.534 L 91.662 0 45.831 0 L 0 0 0 52 M 0.465 52.500 C 0.465 81.100, 0.593 92.656, 0.749 78.180 C 0.906 63.704, 0.906 40.304, 0.749 26.180 C 0.593 12.056, 0.465 23.900, 0.465 52.500 M 26.262 99.690 C 27.192 100.620, 28.233 101.100, 28.576 100.757 C 29.561 99.773, 28.050 98, 26.227 98 C 24.700 98, 24.703 98.132, 26.262 99.690 M 0.420 124.500 C 0.419 135.500, 0.565 140.136, 0.745 134.803 C 0.924 129.470, 0.925 120.470, 0.746 114.803 C 0.568 109.136, 0.421 113.500, 0.420 124.500 M 83.807 139.750 C 80.275 143.863, 80.478 144.005, 89.691 143.884 C 94.536 143.820, 97.600 143.552, 96.500 143.287 C 95.400 143.022, 94.073 142.400, 93.550 141.903 C 93.027 141.406, 91.845 141, 90.922 141 C 90 141, 88.685 140.325, 88 139.500 C 86.394 137.565, 85.645 137.610, 83.807 139.750" stroke="none" fill="black" fill-rule="evenodd"/>
</svg>