<svg xmlns="http://www.w3.org/2000/svg" width="192" height="144" viewBox="0 0 192 144" version="1.1">
	<path d="M 113 8.525 C 112.175 9.355, 109.786 11.447, 107.691 13.173 C 102.432 17.505, 99.979 22.594, 101.266 26.500 C 101.810 28.150, 103.171 30.508, 104.292 31.740 C 106.228 33.869, 106.244 34.073, 104.599 35.890 C 103.468 37.140, 103.238 38.029, 103.935 38.460 C 104.521 38.822, 105.022 39.879, 105.048 40.809 C 105.128 43.627, 108.427 49.491, 110.013 49.635 C 110.831 49.709, 112.010 49.821, 112.633 49.885 C 113.257 49.948, 114.007 50.920, 114.302 52.045 C 114.711 53.610, 113.070 55.852, 107.313 61.590 C 101.621 67.264, 99.918 69.578, 100.316 71.101 C 100.605 72.207, 99.904 75.370, 98.758 78.128 C 96.888 82.628, 96.791 83.773, 97.812 89.263 C 98.438 92.629, 98.787 95.546, 98.588 95.746 C 98.389 95.945, 95.509 95.004, 92.188 93.654 C 88.867 92.305, 84.342 90.896, 82.133 90.522 C 77.653 89.766, 76.959 89.099, 75.176 83.839 C 74.074 80.590, 74.172 79.754, 76.044 76.422 C 78.090 72.779, 78.101 72.551, 76.418 68.818 C 74.767 65.157, 74.507 65, 71.091 65.596 C 65.145 66.635, 62.940 69.646, 61.919 78.118 C 61.430 82.178, 60.584 87.300, 60.039 89.500 C 59.494 91.700, 59.037 96.258, 59.024 99.628 C 58.990 108.264, 62.865 116.782, 64.311 111.250 C 64.696 109.776, 64.786 109.816, 64.883 111.500 C 64.946 112.600, 63.873 118.141, 62.499 123.814 C 59.944 134.358, 59.419 138.941, 60.750 139.077 C 63.735 139.381, 65.704 140.144, 68.128 141.936 C 71.458 144.399, 74.064 144.535, 78.079 142.459 C 79.718 141.612, 81.440 141.154, 81.907 141.442 C 82.373 141.730, 84.272 140.929, 86.127 139.661 C 89.193 137.565, 89.478 136.953, 89.255 132.928 C 89.121 130.492, 87.818 123.428, 86.360 117.229 C 84.902 111.030, 83.994 105.673, 84.343 105.324 C 84.691 104.975, 88.244 106.675, 92.238 109.102 C 99.066 113.250, 99.519 113.747, 99.820 117.423 C 99.996 119.573, 99.241 124.970, 98.142 129.416 C 97.043 133.862, 95.851 138.963, 95.492 140.750 L 94.841 144 119.421 144 C 133.659 144, 144 143.614, 144 143.083 C 144 141.081, 139.874 132.733, 134.633 124.130 C 130.396 117.176, 128.712 113.203, 127.389 107.049 C 125.764 99.485, 125.762 98.628, 127.366 91.984 C 129.135 84.654, 132.459 77.878, 133.198 80.095 C 133.876 82.127, 136 80.104, 136 77.426 C 136 76.075, 135.262 72.315, 134.360 69.071 C 132.537 62.513, 133.032 58.952, 135.484 60.987 C 136.646 61.951, 137.271 61.872, 138.544 60.599 C 139.423 59.720, 140.552 59, 141.052 59 C 141.553 59, 142.265 57.763, 142.635 56.250 C 143.005 54.737, 143.771 53.198, 144.336 52.828 C 145.021 52.381, 145.053 50.544, 144.432 47.328 C 143.861 44.367, 143.855 39.679, 144.419 35.206 C 145.936 23.162, 142.122 14.162, 133.655 9.806 C 128.273 7.037, 115.279 6.231, 113 8.525" stroke="none" fill="black" fill-rule="evenodd"/>
</svg>