<svg xmlns="http://www.w3.org/2000/svg" width="192" height="144" viewBox="0 0 192 144" version="1.1">
	<path d="M 64 8.822 C 64 18.184, 62.691 23.592, 58.152 32.989 C 55.477 38.526, 45.710 49.261, 41.679 51.095 C 38.784 52.412, 35.526 54.323, 33.857 55.684 C 33.110 56.293, 28.699 57.560, 24.053 58.501 C 15.964 60.140, 7.506 60.129, 2.250 58.475 L -0 57.767 -0 100.883 L 0 144 61.500 144 C 95.325 144, 123 143.769, 123 143.486 C 123 143.204, 122.493 142.161, 121.873 141.168 C 120.932 139.661, 121.621 138.138, 126.053 131.932 C 131.250 124.654, 139 110.383, 139 108.091 C 139 107.454, 137.826 104.618, 136.392 101.787 C 132.742 94.585, 131.233 77.748, 133.465 69.136 C 134.309 65.877, 135 62.025, 135 60.576 C 135 58.135, 142.476 42.551, 145.272 39.164 C 148.041 35.809, 156.818 33, 164.529 33 C 171.153 33, 172 33.211, 172 34.865 C 172 35.891, 171.051 37.936, 169.892 39.410 C 168.480 41.205, 167.952 42.969, 168.293 44.751 C 168.706 46.911, 168.020 48.145, 164.651 51.302 C 162.368 53.441, 159.218 56.003, 157.652 56.995 L 154.803 58.798 157.828 59.462 C 161.396 60.246, 163.287 62.869, 166.565 71.578 C 167.895 75.109, 169.471 78.787, 170.068 79.750 C 171.648 82.297, 169.653 87, 166.993 87 C 165.862 87, 164.719 87.568, 164.453 88.262 C 163.877 89.762, 172.233 108.172, 180.324 123.232 C 183.495 129.134, 186.630 136.238, 187.290 139.019 C 188.282 143.195, 188.840 144.025, 190.496 143.787 C 192.379 143.517, 192.520 142.622, 192.825 129 C 193.003 121.025, 192.837 88.737, 192.455 57.250 L 191.761 0 127.880 0 L 64 0 64 8.822 M 0.459 101 C 0.459 124.925, 0.589 134.713, 0.749 122.750 C 0.908 110.788, 0.908 91.213, 0.749 79.250 C 0.589 67.288, 0.459 77.075, 0.459 101 M 144.015 90.309 C 144.006 92.597, 144.399 93.871, 145 93.500 C 146.264 92.719, 146.264 89.956, 145 88 C 144.280 86.887, 144.027 87.481, 144.015 90.309" stroke="none" fill="black" fill-rule="evenodd"/>
</svg>