<svg xmlns="http://www.w3.org/2000/svg" width="192" height="144" viewBox="0 0 192 144" version="1.1">
	<path d="M 39 0.529 C 39 0.819, 40.290 3.632, 41.866 6.779 C 44.039 11.115, 44.894 14.558, 45.397 21 C 45.762 25.675, 46.523 32.727, 47.087 36.672 C 48.054 43.432, 47.967 44.131, 45.570 48.862 C 41.558 56.780, 37.309 68.089, 36.501 73 C 36.094 75.475, 35.095 79.176, 34.282 81.223 C 32.956 84.563, 32.969 85.112, 34.402 86.545 C 36.318 88.461, 36.462 91.110, 34.750 92.925 C 33.750 93.985, 33.750 94.342, 34.750 94.708 C 35.438 94.960, 36 96.056, 36 97.142 C 36 98.229, 36.403 98.869, 36.895 98.565 C 37.388 98.260, 38.095 98.796, 38.467 99.756 C 39.092 101.369, 39.253 101.350, 40.611 99.505 C 41.851 97.820, 42.220 97.738, 42.985 98.976 C 43.483 99.782, 44.240 100.093, 44.666 99.667 C 45.647 98.686, 45.104 91.853, 43.931 90.426 C 43.120 89.440, 44.055 80.722, 45.371 77 C 45.663 76.175, 46.394 73.574, 46.997 71.220 C 47.627 68.762, 48.528 67.208, 49.115 67.571 C 49.677 67.918, 49.896 68.829, 49.602 69.596 C 48.842 71.575, 52.477 79.585, 54.484 80.356 C 57.961 81.690, 60.936 80.895, 64.915 77.571 C 68.041 74.959, 70.325 73.978, 74.494 73.458 C 77.504 73.081, 80.730 73.066, 81.662 73.424 C 84.111 74.363, 93.509 71.151, 95.968 68.534 C 97.778 66.608, 98.106 64.844, 98.366 55.651 C 98.532 49.793, 98.296 45, 97.842 45 C 97.025 45, 93.205 48.969, 90.622 52.503 C 89.800 53.627, 88.650 54.080, 87.622 53.685 C 86.075 53.091, 86.071 52.773, 87.576 49.273 C 91.944 39.116, 92.058 34.905, 88.077 30.923 C 86.469 29.315, 84.230 28, 83.102 28 C 81.338 28, 81.129 27.543, 81.612 24.750 C 81.920 22.962, 82.411 20.825, 82.702 20 C 84.550 14.757, 84.853 10.982, 83.846 5.750 L 82.740 0 60.870 0 C 48.841 0, 39 0.238, 39 0.529 M 156 72 L 156 144 174 144 L 192 144 192 72 L 192 0 174 0 L 156 0 156 72" stroke="none" fill="black" fill-rule="evenodd"/>
</svg>