<svg xmlns="http://www.w3.org/2000/svg" width="192" height="144" viewBox="0 0 192 144" version="1.1">
	<path d="M 0 104.250 L 0 144 10.485 144 L 20.971 144 19.055 139.250 C 18.001 136.637, 15.092 129.550, 12.589 123.500 C 10.087 117.450, 8.023 111.150, 8.004 109.500 C 7.964 106.018, 7.366 104.976, 4.150 102.778 C 1.903 101.242, 2.070 101.196, 7.948 101.729 C 11.339 102.037, 15.084 101.828, 16.298 101.263 C 17.509 100.701, 24.046 99.228, 30.824 97.991 C 44.595 95.478, 54.414 95.612, 59.780 98.386 L 63.045 100.075 60.640 103.287 C 59.317 105.054, 57.551 108.750, 56.716 111.500 C 55.881 114.250, 54.302 118.975, 53.207 122 C 52.111 125.025, 50.916 129.075, 50.550 131 L 49.885 134.500 52.020 132 L 54.155 129.500 53.655 133.500 C 53.380 135.700, 52.839 138.963, 52.452 140.750 L 51.750 144 96.125 144.001 L 140.500 144.001 140.145 138.877 C 139.899 135.317, 140.128 133.961, 140.895 134.435 C 141.503 134.811, 142 135.688, 142 136.385 C 142 137.603, 146.052 142, 147.176 142 C 147.657 142, 144.566 132.515, 137.087 111.040 C 135.850 107.487, 134.005 103.412, 132.988 101.983 L 131.139 99.386 134.319 98.147 C 140.162 95.872, 150.457 95.581, 159.788 97.427 C 164.580 98.375, 170.660 99.567, 173.299 100.075 C 175.939 100.584, 181.217 101, 185.029 101 L 191.960 101 192.251 122.250 C 192.411 133.938, 192.553 125.500, 192.567 103.500 C 192.581 81.500, 192.442 67.180, 192.257 71.677 L 191.921 79.853 186.211 77.177 C 180.788 74.635, 179.717 74.500, 165 74.500 C 143.650 74.500, 128.727 77.967, 118.945 85.199 L 116.006 87.372 109.321 85.012 C 100.763 81.991, 92.483 82.119, 83.035 85.420 C 77.088 87.498, 75.944 87.637, 74.923 86.407 C 72.614 83.625, 61.010 78.935, 51.316 76.867 C 40.828 74.629, 22.734 73.862, 15.250 75.338 C 11.790 76.020, 11 75.901, 11 74.699 C 11 73.886, 10.115 72.159, 9.034 70.861 L 7.068 68.500 8.017 71.934 C 8.539 73.822, 8.800 75.533, 8.598 75.735 C 8.396 75.937, 6.379 73.492, 4.115 70.301 L 0 64.500 0 104.250 M 0.456 104.500 C 0.456 126.500, 0.588 135.358, 0.749 124.183 C 0.910 113.009, 0.910 95.009, 0.749 84.183 C 0.587 73.358, 0.455 82.500, 0.456 104.500" stroke="none" fill="black" fill-rule="evenodd"/>
</svg>