<svg xmlns="http://www.w3.org/2000/svg" width="192" height="144" viewBox="0 0 192 144" version="1.1">
	<path d="M 91.500 81.417 C 90.950 81.629, 88.025 82.558, 85 83.481 C 81.975 84.403, 77.534 86.298, 75.131 87.691 C 71.518 89.786, 69.353 90.249, 62.631 90.367 C 56.366 90.476, 53.423 91.038, 49.807 92.816 C 42.167 96.572, 28.757 109.554, 23.274 118.500 C 19.438 124.761, 15.026 135.128, 14.444 139.250 L 13.773 144 25.849 144 L 37.925 144 42.040 137.941 C 44.303 134.609, 47.748 128.528, 49.695 124.427 C 51.642 120.327, 53.632 116.727, 54.117 116.427 C 55.384 115.645, 55.210 116.693, 53.539 119.925 C 52.735 121.478, 51.194 126.069, 50.113 130.125 L 48.149 137.500 50.649 134.500 L 53.150 131.500 52.502 136 C 52.145 138.475, 51.631 141.287, 51.360 142.250 C 50.894 143.898, 53.490 144, 95.933 144 L 141 144 141.040 141.250 L 141.080 138.500 142.572 141.250 C 143.393 142.762, 144.733 144, 145.551 144 C 146.645 144, 146.887 143.273, 146.467 141.250 L 145.896 138.500 147.480 141.250 L 149.064 144 163.126 144 L 177.188 144 176.477 138.833 C 174.926 127.554, 165.176 111.054, 153.888 100.603 C 145.115 92.481, 138.355 89.611, 129.500 90.250 C 124.577 90.605, 122.872 90.291, 120 88.498 C 114.335 84.961, 105.078 81.922, 98.566 81.461 C 95.230 81.225, 92.050 81.205, 91.500 81.417" stroke="none" fill="black" fill-rule="evenodd"/>
</svg>