<svg xmlns="http://www.w3.org/2000/svg" width="192" height="144" viewBox="0 0 192 144" version="1.1">
	<path d="M 100.738 30.596 C 100.408 30.926, 100.381 31.830, 100.679 32.605 C 100.976 33.381, 100.449 35.192, 99.507 36.630 C 98.170 38.671, 98.031 39.713, 98.876 41.373 C 101.711 46.942, 102.093 49.211, 100.405 50.446 C 98.901 51.545, 98.896 51.899, 100.346 54.701 C 101.215 56.382, 102.618 58.023, 103.463 58.347 C 105.437 59.105, 105.460 65.572, 103.500 69 C 102.714 70.375, 102.055 72.364, 102.035 73.420 C 102.016 74.476, 100.582 78.416, 98.850 82.175 C 95.846 88.693, 95.780 89.099, 97.429 90.922 C 98.679 92.303, 98.900 93.342, 98.226 94.667 C 97.712 95.675, 96.702 100.051, 95.980 104.392 L 94.669 112.283 97.334 114.225 C 98.800 115.293, 100.007 116.692, 100.015 117.333 C 100.049 119.929, 102.068 121.374, 106.663 122.092 C 115.217 123.429, 126.866 126.465, 128.072 127.672 C 129.378 128.978, 132.305 128.302, 131.435 126.895 C 131.131 126.403, 130.099 126, 129.141 126 C 126.135 126, 124.799 123.880, 126.572 121.921 C 128 120.343, 127.735 120.117, 123.058 118.918 C 120.276 118.205, 118 117.357, 118 117.033 C 118 116.709, 118.900 115.674, 120 114.732 C 123.701 111.563, 122.354 108.933, 116.951 108.780 C 115.289 108.732, 113.685 108.300, 113.388 107.818 C 113.090 107.337, 113.159 104.027, 113.541 100.463 C 114.191 94.393, 114.443 93.884, 117.518 92.424 C 119.324 91.567, 121.001 90.103, 121.245 89.171 C 121.489 88.238, 120.378 83.431, 118.775 78.488 C 116.825 72.472, 115.802 67.117, 115.681 62.294 L 115.500 55.088 120.500 54.794 C 125.785 54.483, 126.186 53.864, 124.575 48.500 C 124.244 47.400, 124.396 45.854, 124.911 45.064 C 125.675 43.893, 126.130 43.863, 127.380 44.900 C 129.508 46.666, 131 45.433, 131 41.910 C 131 38.378, 128.264 36.778, 126.775 39.438 C 126.017 40.792, 125.035 41.042, 122.404 40.548 C 119.779 40.056, 118.515 40.374, 116.817 41.956 C 113.374 45.163, 112.291 44.482, 111.562 38.651 C 110.922 33.527, 110.765 33.298, 107.846 33.215 C 106.170 33.167, 104.020 32.423, 103.068 31.562 C 102.116 30.700, 101.068 30.266, 100.738 30.596 M 50.012 34.983 C 48.795 36.692, 46.562 38.338, 45.049 38.640 C 42.490 39.152, 42.309 39.515, 42.460 43.845 C 42.615 48.292, 43.201 50.700, 44.928 53.995 C 45.422 54.937, 45.127 55.918, 44.132 56.646 C 43.263 57.281, 42.090 60.191, 41.526 63.112 C 40.644 67.677, 39.938 68.811, 36.500 71.178 C 34.300 72.694, 31.319 73.949, 29.876 73.967 C 26.568 74.009, 19.116 71.415, 16.973 69.476 C 15.633 68.263, 14.305 68.189, 9.423 69.058 C 0.663 70.616, -0.003 70.918, 0.029 73.317 C 0.054 75.180, 2.658 76.638, 17.779 83.254 C 27.526 87.519, 36.737 91.007, 38.250 91.004 C 41.391 90.999, 41.617 91.674, 39.489 94.712 C 38.573 96.021, 38.363 97.106, 38.957 97.473 C 39.494 97.806, 39.663 99.437, 39.330 101.100 C 38.839 103.556, 39.290 104.719, 41.743 107.311 C 43.402 109.065, 45.315 111.578, 45.994 112.897 C 47.044 114.936, 46.970 115.437, 45.501 116.259 C 42.058 118.186, 40.145 120.838, 40.691 122.926 C 41.022 124.191, 40.756 125, 40.008 125 C 39.221 125, 38.994 125.842, 39.374 127.356 C 39.878 129.361, 39.377 129.977, 36.006 131.497 L 32.047 133.282 24.573 128.116 L 17.099 122.949 9.049 125.666 C 4.622 127.160, 1 128.714, 1 129.119 C 1 129.523, 4.712 133.035, 9.250 136.923 L 17.500 143.991 32 143.955 L 46.500 143.919 43.250 141.137 C 41.463 139.606, 40 138.050, 40 137.677 C 40 136.607, 44.814 136.890, 45.500 138 C 46.875 140.224, 54.098 138.993, 60.793 135.394 C 70.142 130.369, 70.406 130.106, 68.366 127.852 C 67.440 126.829, 64.841 125.497, 62.591 124.892 C 58.084 123.681, 57.038 122.620, 57.015 119.236 C 57.007 117.991, 56.627 116.191, 56.172 115.236 C 55.716 114.281, 54.382 111.548, 53.206 109.162 C 51.242 105.173, 51.194 104.634, 52.614 102.466 C 53.697 100.814, 55.770 99.774, 59.548 98.990 C 62.512 98.375, 65.934 97.064, 67.152 96.078 L 69.367 94.284 65.855 89.892 C 59.629 82.106, 56.629 75.928, 56.286 70.190 C 56.111 67.269, 56.386 64.133, 56.896 63.220 C 57.514 62.117, 57.361 60.665, 56.439 58.881 C 55.250 56.583, 55.257 56.032, 56.485 55.012 C 58.242 53.554, 57.961 43.863, 56.097 41.617 C 55.413 40.793, 54.992 39.305, 55.160 38.310 C 55.328 37.314, 54.737 35.460, 53.845 34.188 L 52.225 31.876 50.012 34.983 M 161.969 35.250 C 161.933 36.694, 153.898 43, 152.093 43 C 151.427 43, 151.192 43.501, 151.570 44.113 C 151.948 44.725, 152.380 47.483, 152.528 50.242 C 152.683 53.100, 153.380 55.626, 154.150 56.114 C 155.169 56.760, 155.028 56.973, 153.571 56.985 C 152.510 56.993, 150.074 57.562, 148.158 58.250 C 145.659 59.147, 144.568 59.187, 144.301 58.392 C 142.751 53.787, 139.596 53.214, 137.171 57.098 C 136.185 58.677, 136.158 59.485, 137.054 60.566 C 137.698 61.341, 137.967 62.643, 137.653 63.461 C 136.834 65.596, 139.876 66.998, 142.864 65.861 C 145.932 64.695, 146.963 66.044, 146.985 71.250 C 147 75.057, 148.479 76.121, 150.687 73.913 C 153.034 71.566, 153.048 75.073, 150.704 78.244 C 145.628 85.111, 140.783 93.993, 141.333 95.424 C 141.648 96.246, 144.177 98.070, 146.953 99.476 C 151.778 101.921, 153.559 104.919, 151.092 106.443 C 150.593 106.751, 149.385 109.590, 148.408 112.752 C 147.430 115.913, 145.564 119.514, 144.259 120.754 C 141.474 123.401, 141.855 124.333, 146.815 127.002 L 150.500 128.986 145.500 128.397 L 140.500 127.809 140.500 131.141 C 140.500 135.104, 143.763 136.621, 144.688 133.087 C 145.384 130.423, 147.428 130.428, 150.100 133.100 C 151.627 134.627, 151.900 135.500, 151.100 136.300 C 149.726 137.674, 149.655 141, 151 141 C 151.550 141, 152 141.675, 152 142.500 C 152 143.542, 153.048 144, 155.433 144 C 158.027 144, 159.026 143.494, 159.523 141.927 C 160.085 140.158, 160.721 139.946, 163.869 140.478 C 166.948 140.998, 167.935 140.698, 169.851 138.658 L 172.146 136.216 169.705 133.858 C 166.908 131.157, 165.881 127.964, 167.105 125.777 C 167.640 124.822, 167.244 122.811, 166.026 120.289 C 163.653 115.378, 163.594 102.208, 165.937 100.376 C 167.154 99.426, 167.182 98.392, 166.123 93.658 C 164.728 87.426, 164.400 72.043, 165.506 64.750 L 166.227 60 174.114 60 C 178.576 60, 182 59.576, 182 59.024 C 182 58.417, 178.725 58.280, 173.340 58.663 C 165.115 59.246, 164.720 59.182, 165.490 57.389 C 165.935 56.350, 166.600 53.076, 166.968 50.112 C 167.577 45.197, 167.402 44.469, 164.968 41.804 C 163.118 39.779, 162.443 38.133, 162.766 36.441 C 163.023 35.099, 162.956 34, 162.617 34 C 162.277 34, 161.986 34.563, 161.969 35.250 M 116 45 C 116 45.550, 116.477 46, 117.059 46 C 117.641 46, 117.840 45.550, 117.500 45 C 117.160 44.450, 116.684 44, 116.441 44 C 116.198 44, 116 44.450, 116 45 M 112 46.417 C 112 47.288, 112.713 48, 113.583 48 C 114.454 48, 114.989 47.466, 114.771 46.813 C 114.153 44.958, 112 44.651, 112 46.417 M 42.143 77.890 C 41.197 78.490, 41.122 78.957, 41.893 79.434 C 43.162 80.218, 45 79.334, 45 77.941 C 45 76.778, 43.928 76.759, 42.143 77.890 M 102.194 96.689 C 99.696 101.674, 98.769 105.696, 99.550 108.158 C 100.097 109.882, 100.732 110.053, 104.340 109.450 C 106.628 109.068, 108.755 108.355, 109.067 107.865 C 109.378 107.376, 109.603 103.943, 109.567 100.238 C 109.502 93.682, 109.427 93.492, 106.802 93.189 C 104.545 92.928, 103.791 93.500, 102.194 96.689 M 45.079 101.583 C 45.127 102.748, 45.364 102.985, 45.683 102.188 C 45.972 101.466, 45.936 100.603, 45.604 100.271 C 45.272 99.939, 45.036 100.529, 45.079 101.583 M 157 104.398 C 157 105.168, 155.650 108.363, 154 111.500 C 150.012 119.081, 150.107 120, 154.875 120 C 158.415 120, 158.804 119.730, 159.375 116.875 C 160.158 112.962, 160.155 108.182, 159.370 105.250 C 158.708 102.782, 157 102.168, 157 104.398 M 49.149 120.666 C 47.361 122.606, 48.446 123.553, 51.099 122.369 C 52.829 121.597, 52.968 121.221, 51.858 120.312 C 50.841 119.480, 50.161 119.569, 49.149 120.666 M 114.500 121 C 114.840 121.550, 116.415 122, 118 122 C 119.585 122, 121.160 121.550, 121.500 121 C 121.874 120.395, 120.491 120, 118 120 C 115.509 120, 114.126 120.395, 114.500 121 M 38 133 L 34.500 134.916 39.083 134.958 C 44.120 135.004, 45.133 134.510, 44.324 132.402 C 43.615 130.554, 42.228 130.685, 38 133" stroke="none" fill="black" fill-rule="evenodd"/>
</svg>