<svg xmlns="http://www.w3.org/2000/svg" width="192" height="144" viewBox="0 0 192 144" version="1.1">
	<path d="M 63.755 4.805 C 65.054 18.318, 58.343 35.765, 48.255 45.103 C 45.048 48.071, 40.191 51.625, 37.462 53 C 34.733 54.375, 32.275 55.783, 32 56.129 C 31.725 56.475, 27.533 57.541, 22.683 58.500 C 14.372 60.142, 7.692 60.128, 2.250 58.457 L 0 57.767 0 100.883 L 0 144 57 144 L 114 144 114 139.928 C 114 135.698, 115.989 131.565, 123.233 120.741 C 125.352 117.574, 128.637 111.746, 130.533 107.791 C 133.722 101.137, 133.932 100.112, 133.354 94.050 C 133.010 90.448, 132.402 87.275, 132.003 87 C 131.604 86.725, 130.950 84.279, 130.550 81.565 C 129.070 71.531, 134.482 45.900, 139.737 38.054 C 140.678 36.649, 141.460 35.054, 141.474 34.510 C 141.511 33.099, 146.317 32.255, 155.095 32.118 C 161.347 32.021, 162.990 32.331, 164.386 33.874 C 165.991 35.648, 165.946 35.911, 163.541 38.769 C 161.848 40.781, 161 42.992, 161 45.394 C 161 49.054, 160.537 49.688, 154.250 54.625 C 150.293 57.733, 150.239 58.274, 153.750 59.601 C 155.419 60.232, 157.248 62.187, 158.402 64.571 C 159.448 66.732, 160.883 69.648, 161.591 71.051 C 163.010 73.864, 163.186 80, 161.848 80 C 161.382 80, 161 81.800, 161 84 C 161 86.200, 160.662 88.007, 160.250 88.015 C 159.838 88.024, 158.899 88.412, 158.163 88.878 C 157.093 89.556, 157.342 90.742, 159.412 94.826 C 160.834 97.632, 162.459 103.184, 163.023 107.165 C 163.588 111.146, 164.962 118.700, 166.076 123.951 C 167.191 129.203, 168.595 135.877, 169.196 138.781 L 170.289 144.063 181.394 143.781 L 192.500 143.500 192.825 129 C 193.003 121.025, 192.837 88.737, 192.455 57.250 L 191.761 0 127.527 -0 L 63.294 -0 63.755 4.805 M 0.459 101 C 0.459 124.925, 0.589 134.713, 0.749 122.750 C 0.908 110.788, 0.908 91.213, 0.749 79.250 C 0.589 67.288, 0.459 77.075, 0.459 101" stroke="none" fill="black" fill-rule="evenodd"/>
</svg>