<svg xmlns="http://www.w3.org/2000/svg" width="192" height="144" viewBox="0 0 192 144" version="1.1">
	<path d="M 0 72 L 0 144 10.416 144 L 20.832 144 23.916 140.106 C 27.136 136.040, 27.767 133.592, 25.892 132.433 C 25.184 131.996, 25.029 130.260, 25.461 127.624 C 25.833 125.356, 26.326 121.127, 26.555 118.227 C 26.785 115.326, 27.661 111.623, 28.501 109.997 C 29.528 108.013, 29.825 105.756, 29.405 103.132 C 28.840 99.599, 29.073 99.006, 31.826 96.971 C 35.598 94.182, 36.680 89.003, 34.975 81.896 C 34.097 78.234, 33.115 76.554, 31.395 75.770 C 29.012 74.684, 28.832 72.577, 30.620 66.696 C 30.954 65.598, 29.804 62.859, 27.678 59.696 C 25.759 56.838, 23.645 52.765, 22.981 50.644 C 21.221 45.018, 22.146 36.210, 24.939 32 C 27.103 28.739, 29.086 27.086, 39.500 19.859 C 41.847 18.230, 47.425 16.084, 53 14.664 L 62.500 12.245 62.233 7.373 L 61.966 2.500 66.233 7.425 C 68.580 10.134, 72.538 14.470, 75.029 17.061 C 77.520 19.653, 80.845 24.317, 82.418 27.426 C 85.706 33.923, 87.859 35.437, 92.560 34.555 C 97.112 33.701, 100.004 35.623, 99.985 39.491 C 99.964 43.577, 98.680 45.351, 96.292 44.593 C 94.557 44.042, 94.333 44.457, 94.328 48.236 C 94.323 52.809, 91.645 59.141, 89.885 58.743 C 87.489 58.200, 86.582 61.774, 87.581 67.817 C 88.366 72.559, 88.305 73.671, 87.283 73.278 C 85.595 72.630, 85.704 74.025, 87.532 76.441 C 89.772 79.402, 89.401 81.139, 86.676 80.455 C 85.201 80.084, 83.877 80.443, 83.053 81.436 C 82.339 82.296, 80.888 83, 79.828 83 C 77.231 83, 71.806 85.878, 72.448 86.915 C 72.730 87.372, 77.582 89.008, 83.230 90.550 C 95.073 93.785, 97.250 95.156, 96.334 98.805 C 95.787 100.983, 95.961 101.228, 97.600 100.593 C 106.695 97.070, 119.680 96.043, 130.110 98.021 C 133.071 98.582, 139.674 101.075, 144.782 103.560 C 152.134 107.137, 155.588 109.601, 161.345 115.377 C 168.046 122.100, 174 130.353, 174 132.918 C 174 133.503, 169.613 136.218, 164.250 138.952 L 154.500 143.923 173.500 143.712 L 192.500 143.500 192.757 71.750 L 193.013 0 96.507 0 L 0 0 0 72 M 0.474 72.500 C 0.474 112.100, 0.598 128.154, 0.750 108.176 C 0.901 88.198, 0.901 55.798, 0.750 36.176 C 0.598 16.554, 0.474 32.900, 0.474 72.500 M 111.177 60.643 C 111.355 61.546, 112.279 62.776, 113.231 63.376 C 114.573 64.221, 115.360 64.068, 116.731 62.697 C 118.277 61.151, 118.311 60.808, 117 59.979 C 114.455 58.370, 110.811 58.785, 111.177 60.643 M 87.975 140.565 C 86.711 143.890, 86.728 144, 88.500 144 C 89.500 144, 90 143, 90 141 C 90 137.323, 89.268 137.166, 87.975 140.565" stroke="none" fill="black" fill-rule="evenodd"/>
</svg>