<svg xmlns="http://www.w3.org/2000/svg" width="192" height="144" viewBox="0 0 192 144" version="1.1">
	<path d="M 0 72 L 0 144 23.250 143.875 C 36.038 143.806, 44.584 143.438, 42.241 143.056 C 39.899 142.675, 36.579 141.326, 34.864 140.057 C 32.310 138.170, 30.907 137.848, 27.123 138.285 C 21.276 138.961, 15.345 136.433, 15.802 133.462 C 15.968 132.383, 16.236 130.150, 16.398 128.500 C 16.560 126.850, 17.226 124.150, 17.876 122.500 C 18.527 120.850, 19.247 118.964, 19.476 118.308 C 19.705 117.653, 22.954 116.204, 26.696 115.088 C 36.658 112.118, 43.443 107.562, 50.316 99.231 L 56.312 91.961 54.485 86.587 C 52.690 81.306, 52.695 81.070, 54.782 72.857 C 57.736 61.236, 57.995 58.852, 56.466 57.324 C 54.697 55.554, 54.684 55.558, 50.989 59.010 C 47.763 62.024, 46.057 62.713, 40.558 63.226 C 38.172 63.448, 37.458 64.113, 36.782 66.737 C 35.862 70.316, 32.870 71.686, 28.417 70.568 C 26.355 70.051, 25.726 70.332, 25.300 71.960 C 24.648 74.455, 23.851 74.510, 21.063 72.250 C 19.450 70.943, 18.653 68.693, 17.915 63.361 C 16.150 50.613, 19.834 38.980, 30.150 24.731 C 35.250 17.686, 35.422 16.255, 31.555 13.045 C 30.700 12.336, 30.019 11.248, 30.042 10.628 C 30.065 10.007, 31.616 11.235, 33.489 13.356 L 36.895 17.211 39.697 15.293 C 44.248 12.178, 54.111 8.179, 61.558 6.430 C 69.395 4.589, 78.955 5.014, 86.057 7.520 C 92.331 9.734, 96.529 14, 92.433 14 C 91.320 14, 91.050 14.581, 91.500 16 C 92.608 19.492, 91.133 21.884, 87.444 22.577 C 84.630 23.104, 84 23.671, 84 25.677 C 84 28.609, 82.264 32.173, 80.262 33.351 C 79.239 33.954, 78.997 35.169, 79.435 37.507 C 79.960 40.306, 79.625 41.170, 77.242 43.156 C 75.694 44.445, 73.777 46.791, 72.982 48.368 C 72.186 49.946, 70.692 51.548, 69.660 51.930 C 68.030 52.533, 68.735 53.726, 75.050 61.062 C 84.926 72.534, 92.167 79.233, 93.379 78.021 C 94.001 77.399, 93.851 76.065, 92.955 74.277 C 92.190 72.750, 91.400 71.162, 91.199 70.750 C 90.998 70.337, 91.384 70, 92.056 70 C 95.512 70, 97.422 78.575, 94.505 80.996 C 93.683 81.678, 92.134 82.007, 91.064 81.727 C 89.822 81.402, 87.965 82.246, 85.938 84.055 C 84.191 85.616, 81.802 87.040, 80.630 87.220 C 79.419 87.406, 78.634 88.155, 78.810 88.954 C 80.458 96.431, 81 101.835, 81 110.805 C 81 124.891, 82.564 133.791, 85.613 137.055 C 88.631 140.285, 88.611 140.840, 85.500 140.245 C 83.468 139.856, 83 140.164, 83 141.892 L 83 144.017 137.750 143.759 L 192.500 143.500 192.757 71.750 L 193.013 0 96.507 0 L 0 0 0 72 M 0.474 72.500 C 0.474 112.100, 0.598 128.154, 0.750 108.176 C 0.901 88.198, 0.901 55.798, 0.750 36.176 C 0.598 16.554, 0.474 32.900, 0.474 72.500 M 130 11.893 C 130 12.907, 133.046 14.288, 133.743 13.590 C 133.995 13.339, 133.904 12.653, 133.541 12.067 C 132.743 10.776, 130 10.641, 130 11.893 M 101 20.015 C 99.667 20.891, 99.667 21.110, 101 21.989 C 101.825 22.534, 103.099 22.759, 103.832 22.489 C 104.564 22.220, 105.632 22, 106.204 22 C 106.834 22, 106.754 21.408, 106 20.500 C 104.561 18.766, 103.116 18.626, 101 20.015 M 100.750 54.689 C 99.787 54.941, 99 55.564, 99 56.073 C 99 57.532, 101.626 57.155, 103 55.500 C 104.259 53.983, 103.919 53.861, 100.750 54.689 M 156.750 67.662 C 157.438 67.940, 158.563 67.940, 159.250 67.662 C 159.938 67.385, 159.375 67.158, 158 67.158 C 156.625 67.158, 156.063 67.385, 156.750 67.662 M 79.093 74.163 C 77.861 77.696, 78.186 78.526, 80.457 77.655 C 82.113 77.019, 82.590 72.483, 81.097 71.560 C 80.601 71.253, 79.699 72.425, 79.093 74.163 M 176.762 106.707 C 178.006 106.946, 179.806 106.937, 180.762 106.687 C 181.718 106.437, 180.700 106.241, 178.500 106.252 C 176.300 106.263, 175.518 106.468, 176.762 106.707 M 143.250 113.662 C 141.509 114.365, 141.684 116, 143.500 116 C 144.325 116, 145 115.325, 145 114.500 C 145 113.675, 144.887 113.036, 144.750 113.079 C 144.613 113.122, 143.938 113.385, 143.250 113.662 M 105 129.727 C 105 132.220, 106.543 133.548, 107.549 131.920 C 107.927 131.309, 107.508 130.080, 106.618 129.190 C 105.127 127.699, 105 127.741, 105 129.727 M 188.441 134.468 C 186.582 135.874, 186.616 135.938, 189.250 135.968 C 191.042 135.989, 192 135.477, 192 134.500 C 192 132.607, 190.915 132.597, 188.441 134.468 M 160.500 135 C 160.840 135.550, 161.568 136, 162.118 136 C 162.668 136, 162.840 135.550, 162.500 135 C 162.160 134.450, 161.432 134, 160.882 134 C 160.332 134, 160.160 134.450, 160.500 135 M 17.446 140.425 C 15.591 141.790, 15.585 141.890, 17.317 142.561 C 19.533 143.420, 21.872 141.472, 20.396 139.996 C 19.725 139.325, 18.749 139.466, 17.446 140.425" stroke="none" fill="black" fill-rule="evenodd"/>
</svg>