<svg xmlns="http://www.w3.org/2000/svg" width="192" height="144" viewBox="0 0 192 144" version="1.1">
	<path d="M 100 12.500 C 101.085 13.807, 100.404 14, 94.699 14 C 89.176 14, 87.689 14.391, 85.182 16.500 C 83.548 17.875, 81.094 19, 79.728 19 C 78.362 19, 76.706 19.650, 76.046 20.444 C 75.086 21.601, 75.239 22.132, 76.818 23.118 C 78.363 24.083, 78.695 25.158, 78.358 28.093 C 78.010 31.119, 78.356 32.136, 80.161 33.400 C 83.032 35.411, 83.868 43.622, 81.681 48.321 C 80.502 50.853, 80.385 53.028, 81.105 59 C 82.320 69.079, 82.296 69.653, 80.032 84 C 78.139 96.002, 74.752 123.106, 73.379 137.250 L 72.724 144 94.950 144 L 117.176 144 116.495 139.750 C 116.120 137.412, 113.605 124.348, 110.907 110.719 C 106.070 86.290, 105.071 78, 106.965 78 C 107.495 78, 108.432 78.939, 109.046 80.086 C 111.307 84.310, 110.839 81.253, 108.490 76.458 C 105.092 69.517, 105.168 66.025, 108.643 69.500 C 110.466 71.323, 114.383 71.460, 115.766 69.750 C 116.322 69.063, 117.318 65.800, 117.980 62.500 C 118.641 59.200, 119.816 55.306, 120.591 53.846 C 122.685 49.902, 122.469 49.419, 116.659 45.032 C 110.982 40.746, 108.571 40.069, 107.638 42.500 C 107.322 43.325, 106.681 44, 106.214 44 C 104.597 44, 106.511 36.121, 108.750 33.559 C 109.987 32.143, 111 30.538, 111 29.992 C 111 29.447, 111.647 29, 112.438 29 C 115.065 29, 113.752 24.732, 110.779 23.610 C 108.770 22.852, 107.839 21.661, 107.392 19.274 C 106.591 15.004, 103.403 11, 100.805 11 C 99.096 11, 98.962 11.250, 100 12.500" stroke="none" fill="black" fill-rule="evenodd"/>
</svg>