<svg xmlns="http://www.w3.org/2000/svg" width="192" height="144" viewBox="0 0 192 144" version="1.1">
	<path d="M 83.265 4.392 C 78.977 13.217, 79.507 21.320, 84.589 24.650 C 87.406 26.496, 87.604 28.483, 85.408 32.885 C 83.059 37.593, 84.021 39.109, 88.564 37.855 C 91.133 37.145, 92.565 37.165, 93.320 37.920 C 93.914 38.514, 95.435 39, 96.700 39 C 97.965 39, 99 39.384, 99 39.852 C 99 40.321, 102.909 41.005, 107.687 41.373 C 112.465 41.740, 116.587 42.254, 116.848 42.515 C 117.109 42.776, 116.056 46.254, 114.507 50.245 C 111.933 56.880, 110.680 58.490, 99.846 69.086 C 93.331 75.458, 88 81.349, 88 82.177 C 88 83.005, 85.795 84.882, 83.101 86.349 C 77.031 89.652, 67 100.256, 67 103.369 C 67 105.400, 67.464 105.615, 71.675 105.536 C 74.858 105.475, 76.500 104.977, 76.818 103.974 C 77.891 100.590, 81.220 97.111, 83.962 96.508 C 85.576 96.154, 88.533 94.563, 90.533 92.974 C 93.258 90.809, 94.860 90.222, 96.924 90.635 C 99.256 91.101, 100.529 90.349, 105.220 85.733 C 108.267 82.733, 113.965 77.691, 117.880 74.527 C 121.796 71.363, 125 68.426, 125 68 C 125 67.573, 126.575 64.935, 128.500 62.136 C 130.425 59.338, 132 56.642, 132 56.147 C 132 55.651, 132.646 54.709, 133.435 54.054 C 135.344 52.470, 138.996 45.379, 139.015 43.219 C 139.028 41.744, 139.168 41.713, 140 43 C 140.781 44.209, 140.972 44.057, 140.985 42.215 C 140.993 40.958, 141.764 38.708, 142.697 37.215 C 143.631 35.722, 144.464 34.379, 144.549 34.232 C 144.634 34.084, 148.032 35.352, 152.102 37.050 C 163.520 41.812, 170.016 44.023, 175.825 45.122 C 180.484 46.003, 181.828 45.848, 186.575 43.881 L 192 41.632 192 20.816 L 192 0 138.699 0 L 85.399 0 83.265 4.392" stroke="none" fill="black" fill-rule="evenodd"/>
</svg>