<svg xmlns="http://www.w3.org/2000/svg" width="192" height="144" viewBox="0 0 192 144" version="1.1">
	<path d="M 158.106 101.785 C 157.990 104.277, 155.499 108.787, 153.172 110.719 C 152.148 111.568, 152.008 112.326, 152.707 113.219 C 154.447 115.439, 156.276 124.408, 155.071 124.810 C 153.702 125.266, 153.676 132.526, 155.035 135.066 C 155.605 136.130, 156.679 137, 157.424 137 C 158.179 137, 159.068 138.547, 159.434 140.500 L 160.091 144 166.598 144 L 173.106 144 172.892 137.408 C 172.635 129.464, 173.056 129.081, 182.250 128.890 C 191.749 128.693, 191.467 128.785, 191.816 125.750 L 192.133 123 183.625 123 C 178.946 123, 174.894 122.637, 174.620 122.194 C 174.346 121.750, 175.903 116.959, 178.081 111.547 C 180.259 106.135, 181.819 101.486, 181.548 101.215 C 181.278 100.944, 180.658 101.798, 180.171 103.111 C 179.684 104.425, 178.314 108.124, 177.126 111.331 C 173.846 120.191, 172.147 123, 170.068 123 C 168.382 123, 168.298 122.639, 169.258 119.510 C 170.027 117.006, 170.019 115.338, 169.232 113.610 C 168.628 112.285, 168.382 110.256, 168.684 109.101 C 169.111 107.466, 168.774 107, 167.164 107 C 163.696 107, 160.382 104.970, 159.269 102.164 C 158.263 99.627, 158.208 99.609, 158.106 101.785 M 97 102.686 C 97 103.613, 96.014 105.420, 94.810 106.703 C 93.044 108.582, 92.666 110.050, 92.861 114.267 C 92.994 117.145, 93.335 120.287, 93.619 121.250 C 93.955 122.392, 93.590 123, 92.567 123 C 90.327 123, 90.630 125.467, 93.397 129.771 C 95.718 133.383, 96.445 139.889, 94.719 141.614 C 92.927 143.406, 94.498 144, 101.035 144 C 107.681 144, 108.013 143.893, 107.035 142.065 C 106.336 140.760, 106.325 139.276, 107 137.500 C 107.550 136.054, 108 133.774, 108 132.435 C 108 129.560, 108.837 129.425, 112.748 131.670 C 115.625 133.321, 115.693 133.303, 118.829 130.022 C 122.089 126.610, 122.654 124.582, 121.050 122.046 C 120.261 120.800, 119.764 120.788, 117.561 121.967 C 115.256 123.201, 114.762 123.127, 112.746 121.251 C 111.162 119.776, 109.690 119.318, 107.750 119.697 C 105.507 120.134, 105 119.874, 105 118.283 C 105 117.211, 105.338 115.996, 105.750 115.584 C 106.162 115.172, 106.527 113.138, 106.561 111.065 C 106.614 107.802, 106.233 107.149, 103.732 106.205 C 102.143 105.605, 100.601 104.189, 100.305 103.057 C 99.660 100.590, 97 100.291, 97 102.686 M 36 107.460 C 36 109.384, 30.970 114, 28.872 114 C 27.548 114, 27.278 114.868, 27.502 118.417 C 27.655 120.847, 28.165 123.434, 28.635 124.167 C 31.886 129.236, 31.960 129.949, 29.486 132.423 C 28.163 133.746, 26.788 135.995, 26.430 137.423 C 25.995 139.155, 24.901 140.210, 23.139 140.596 C 21.688 140.914, 18.700 141.775, 16.500 142.509 C 12.801 143.742, 13.647 143.848, 27.731 143.921 L 42.962 144 43.594 141.482 C 43.942 140.096, 43.921 137.734, 43.549 136.232 C 43.176 134.729, 42.929 132.825, 43.001 132 C 43.072 131.175, 43.274 127.954, 43.449 124.842 C 43.625 121.730, 44.083 118.675, 44.468 118.052 C 44.860 117.417, 44.006 116.006, 42.523 114.839 C 40.900 113.563, 40.104 112.170, 40.463 111.235 C 41.043 109.724, 38.469 106, 36.845 106 C 36.380 106, 36 106.657, 36 107.460 M 0 143 C 0 143.550, 0.900 144, 2 144 C 3.100 144, 4 143.550, 4 143 C 4 142.450, 3.100 142, 2 142 C 0.900 142, 0 142.450, 0 143" stroke="none" fill="black" fill-rule="evenodd"/>
</svg>