<svg xmlns="http://www.w3.org/2000/svg" width="192" height="144" viewBox="0 0 192 144" version="1.1">
	<path d="M -0 72.005 L -0 144.010 96.250 143.755 L 192.500 143.500 192.757 71.750 L 193.013 0 96.507 0 L 0 0 -0 72.005 M 0.474 72.500 C 0.474 112.100, 0.598 128.154, 0.750 108.176 C 0.901 88.198, 0.901 55.798, 0.750 36.176 C 0.598 16.554, 0.474 32.900, 0.474 72.500 M 156.750 63.572 C 153.102 65.551, 153.281 67.393, 157.368 69.918 C 160.404 71.795, 162.277 72, 176.368 72 L 192 72 192 68.686 L 192 65.371 178.750 63.673 C 162.884 61.639, 160.335 61.627, 156.750 63.572" stroke="none" fill="black" fill-rule="evenodd"/>
</svg>