<svg xmlns="http://www.w3.org/2000/svg" width="192" height="144" viewBox="0 0 192 144" version="1.1">
	<path d="M 122 72 L 122 144 157 144 L 192 144 192 73.469 C 192 7.169, 191.895 2.905, 190.250 2.396 C 189.287 2.098, 187.719 1.437, 186.764 0.927 C 185.803 0.414, 170.953 -0, 153.514 -0 L 122 0 122 72 M 54.393 49.419 C 54.036 50.349, 51.766 52.040, 49.350 53.176 C 43.784 55.792, 41.275 58.984, 40.447 64.502 C 38.641 76.549, 48.812 88, 61.319 88 C 73.122 88, 81 81.360, 81 71.411 C 81 65.607, 79.563 62.209, 75.190 57.668 C 70.494 52.790, 67.054 51, 62.378 51 C 60.332 51, 57.844 50.264, 56.850 49.364 C 55.174 47.848, 54.994 47.852, 54.393 49.419" stroke="none" fill="black" fill-rule="evenodd"/>
</svg>