<svg xmlns="http://www.w3.org/2000/svg" width="192" height="144" viewBox="0 0 192 144" version="1.1">
	<path d="M 0 24 L 0 48 2.891 48 C 4.480 48, 10.218 46.832, 15.641 45.404 C 24.739 43.009, 26.619 42.850, 40 43.343 C 49.306 43.686, 57.706 44.616, 63.449 45.939 C 74.531 48.491, 74.537 48.491, 74.742 45.769 C 74.893 43.770, 76.217 42.254, 79.619 40.182 C 80.234 39.807, 81.045 38.511, 81.420 37.302 C 82.015 35.383, 81.588 34.966, 78.051 34.014 C 75.823 33.414, 74 32.344, 74 31.636 C 74 30.029, 77.271 27.009, 82.559 23.732 C 86.076 21.552, 86.866 20.367, 88.479 14.858 C 90.553 7.776, 92.819 4.702, 98 1.949 C 101.454 0.113, 100.830 0.088, 50.750 0.044 L 0 0 0 24 M 129 0.542 C 129 0.840, 130.463 3.036, 132.250 5.421 L 135.500 9.757 143.787 10.201 C 149.691 10.518, 152.547 11.119, 153.720 12.292 C 155.248 13.820, 155.228 14.091, 153.433 16.078 C 152.370 17.255, 148.943 19.511, 145.817 21.090 L 140.133 23.961 142.492 29.981 C 144.364 34.755, 144.557 36, 143.426 36 C 142.642 36, 142 36.925, 142 38.056 C 142 39.532, 140.729 40.675, 137.500 42.103 C 132.772 44.194, 132.351 44.919, 134.035 48.065 C 134.895 49.672, 134.472 50.546, 131.535 53.242 C 128.763 55.786, 128 57.252, 128 60.032 C 128 61.982, 127.161 65.223, 126.136 67.234 L 124.271 70.891 133.492 76.469 C 139.175 79.908, 143.330 81.811, 144.323 81.430 C 145.323 81.046, 147.558 82.097, 150.217 84.202 C 152.573 86.067, 156.412 88.871, 158.750 90.432 C 161.088 91.994, 163.004 93.998, 163.010 94.886 C 163.020 96.679, 175.513 108.391, 179.171 110.038 C 189.649 114.753, 192.007 119.263, 191.963 134.500 L 191.937 143.500 189.718 140.501 C 188.498 138.852, 186.324 136.180, 184.886 134.562 L 182.273 131.622 179.187 134.061 C 177.490 135.402, 175.854 137.287, 175.551 138.250 C 173.564 144.560, 172.938 144.105, 183.170 143.789 L 192.500 143.500 192.829 133 C 193.011 127.225, 192.844 94.938, 192.459 61.250 L 191.760 -0 160.380 -0 C 143.121 -0, 129 0.244, 129 0.542 M 18.500 55.972 C 12.666 58.188, 4.046 61.190, 2.250 61.630 C 1.275 61.870, 1 70.974, 1 102.969 L 1 144 46.375 144 L 91.750 144 92.352 140.988 C 92.684 139.331, 92.544 128.869, 92.041 117.738 C 91.539 106.607, 91.266 95.138, 91.434 92.250 C 91.734 87.114, 90.839 85.370, 89.583 88.643 C 89.237 89.547, 88.754 90.087, 88.510 89.844 C 88.267 89.600, 89.093 84.839, 90.347 79.262 L 92.626 69.123 90.063 68.491 C 88.653 68.143, 85.475 66.569, 83 64.992 C 69.410 56.336, 31.499 51.034, 18.500 55.972 M 131.462 90.750 C 132.059 92.295, 134 101.480, 134 102.759 C 134 103.026, 134.723 102.645, 135.606 101.912 C 137.784 100.104, 136.953 92.436, 134.367 90.477 C 131.814 88.544, 130.652 88.653, 131.462 90.750 M 156.496 109.007 C 156.154 109.561, 156.855 111.393, 158.056 113.078 L 160.238 116.143 157.537 118.962 C 154.259 122.383, 155.166 123.123, 161.690 122.350 C 165.250 121.929, 167.042 121.162, 167.980 119.660 C 169.184 117.733, 168.852 117.165, 163.956 112.780 C 158.377 107.783, 157.520 107.350, 156.496 109.007 M 134.104 139.535 C 132.397 141.479, 131 143.279, 131 143.535 C 131 143.791, 138.306 144, 147.235 144 L 163.470 144 159.756 142.009 C 155.633 139.799, 142.746 136, 139.374 136 C 138.146 136, 135.863 137.531, 134.104 139.535" stroke="none" fill="black" fill-rule="evenodd"/>
</svg>