<svg xmlns="http://www.w3.org/2000/svg" width="192" height="144" viewBox="0 0 192 144" version="1.1">
	<path d="M 63.755 4.805 C 65.034 18.110, 58.973 34.038, 48.712 44.341 C 45.295 47.772, 40.700 51.461, 38.500 52.539 C 36.300 53.618, 34.275 54.744, 34 55.042 C 33.363 55.733, 27.035 57.577, 20.132 59.084 C 14.923 60.221, 5.308 59.908, 1.750 58.486 C 0.100 57.826, 0 60.239, 0 100.893 L 0 144 53.429 144 L 106.858 144 108.033 138.250 C 108.679 135.088, 110.491 128.450, 112.058 123.500 C 114.357 116.243, 119 94.387, 119 90.825 C 119 89.254, 117.483 90.025, 113.651 93.544 C 110.537 96.404, 109.922 97.552, 110.426 99.561 C 111.199 102.643, 108.582 104.010, 106.293 101.721 C 103.790 99.219, 105.467 95.603, 112.667 87.970 C 119.728 80.486, 119.763 80.334, 115.782 74.782 C 114.763 73.361, 115.022 72.132, 117.275 67.682 C 118.774 64.722, 120 61.852, 120 61.305 C 120 60.758, 120.882 59.512, 121.960 58.536 C 124.359 56.365, 124.230 55.623, 120.801 51.860 C 119.317 50.231, 118.352 48.246, 118.658 47.449 C 119.003 46.549, 118.596 46, 117.582 46 C 115.195 46, 113.788 41.559, 115.196 38.470 C 116.117 36.448, 116.020 35.265, 114.707 32.511 C 113.637 30.269, 113.426 28.855, 114.099 28.439 C 116.271 27.097, 133.072 31.850, 136.217 34.696 C 137.223 35.607, 138.737 38.860, 139.580 41.926 C 140.424 44.992, 141.733 49.075, 142.489 51 C 144.329 55.681, 145.539 71.203, 146.311 100 L 146.752 116.500 150.912 125 C 153.200 129.675, 155.765 135.873, 156.614 138.773 L 158.155 144.047 175.328 143.773 L 192.500 143.500 192.825 129 C 193.003 121.025, 192.837 88.737, 192.455 57.250 L 191.761 0 127.527 -0 L 63.294 -0 63.755 4.805 M 0.459 101 C 0.459 124.925, 0.589 134.713, 0.749 122.750 C 0.908 110.788, 0.908 91.213, 0.749 79.250 C 0.589 67.288, 0.459 77.075, 0.459 101" stroke="none" fill="black" fill-rule="evenodd"/>
</svg>