<svg xmlns="http://www.w3.org/2000/svg" width="192" height="144" viewBox="0 0 192 144" version="1.1">
	<path d="M 0 72 L 0 144 21.549 144 L 43.098 144 39.549 137.654 C 36.032 131.366, 34.855 124.826, 37 123.500 C 38.752 122.417, 38.083 120.993, 35.250 119.777 C 29.773 117.428, 27.207 114.944, 24.626 109.491 C 23.179 106.435, 21.321 103.677, 20.498 103.361 C 18.830 102.721, 18.534 99.758, 19.882 97.184 C 21.013 95.024, 19.916 92.379, 16.075 88 C 14.386 86.075, 13.004 83.986, 13.002 83.357 C 13.001 82.728, 12.325 81.955, 11.500 81.638 C 9.560 80.894, 9.534 75.242, 11.452 71.397 C 13.451 67.390, 11.767 55.512, 8.063 47.491 C 4.072 38.850, 3.742 37.436, 3.871 29.576 C 4.052 18.634, 3.919 19, 7.726 19 C 9.591 19, 10.871 19.399, 10.570 19.887 C 9.666 21.349, 13.377 20.618, 15.068 19 C 16.425 17.703, 18.788 11.508, 19.607 7.103 C 20.066 4.628, 22.703 2.786, 26.875 2.023 C 29.114 1.613, 30.707 1.666, 30.414 2.139 C 30.121 2.613, 30.359 3, 30.941 3 C 31.523 3, 32 2.325, 32 1.500 C 32 0.229, 29.556 0, 16 0 L 0 0 0 72 M 66.500 1.396 C 69.069 2.525, 69.830 3.814, 71.798 10.375 C 73.062 14.588, 73.857 18.422, 73.565 18.894 C 72.803 20.128, 75.891 30, 77.039 30 C 77.567 30, 78 30.675, 78 31.500 C 78 32.325, 78.658 33, 79.461 33 C 80.322 33, 81.369 34.657, 82.008 37.030 C 82.666 39.475, 83.518 40.798, 84.172 40.394 C 84.897 39.946, 85.082 40.838, 84.737 43.114 C 83.783 49.403, 83.072 51.340, 78.540 60 L 76.185 64.500 78.343 66.228 C 79.529 67.178, 82.112 67.966, 84.083 67.978 C 86.054 67.990, 87.974 68.307, 88.349 68.683 C 88.725 69.058, 92.287 69.472, 96.266 69.602 C 101.891 69.786, 104.235 69.412, 106.807 67.919 C 108.626 66.864, 111.176 66, 112.474 66 C 115.606 66, 115.773 65.133, 114.369 56.152 C 112.801 46.127, 111.109 41.262, 108.999 40.710 C 106.840 40.145, 104 41.682, 104 43.413 C 104 45.381, 98.996 50, 96.864 50 C 95.353 50, 95 49.235, 95 45.960 C 95 41.948, 98.255 34, 99.899 34 C 100.371 34, 101.317 32.650, 102 31 C 103.134 28.263, 104.264 27.614, 107.701 27.723 C 108.594 27.752, 108.751 25.288, 108.313 18.098 C 107.824 10.075, 108.020 7.863, 109.463 5.071 C 110.791 2.504, 111.408 2.039, 112.073 3.104 C 112.726 4.152, 113.372 4.232, 114.662 3.429 C 118.919 0.775, 117.234 -0, 107.208 -0 L 97.250 -0 96.625 3.125 C 96.281 4.844, 96 8.417, 96 11.066 C 96 15.998, 94.670 18.070, 92.741 16.141 C 91.994 15.394, 91.945 13.407, 92.582 9.778 C 94.376 -0.433, 95.008 -0.006, 78.180 0.039 C 65.162 0.074, 63.840 0.227, 66.500 1.396 M 160.810 3.750 C 160.561 6.762, 160.057 7.563, 158.250 7.820 C 156.539 8.063, 156 7.644, 156 6.070 C 156 3.532, 151.548 3.129, 150.607 5.582 C 148.903 10.023, 150.809 16, 153.929 16 C 154.518 16, 155.034 16.563, 155.077 17.250 C 155.274 20.479, 156.007 22.532, 157.299 23.476 C 158.074 24.044, 159.030 25.518, 159.422 26.754 C 159.898 28.255, 160.926 29, 162.520 29 C 164.425 29, 165.116 29.756, 165.947 32.750 C 166.520 34.813, 166.991 37.963, 166.994 39.750 C 166.997 41.538, 167.407 42.888, 167.904 42.750 C 168.401 42.613, 170.204 44.413, 171.910 46.750 C 174.086 49.731, 175.737 51, 177.440 51 C 179.344 51, 179.935 51.592, 180.184 53.750 C 180.709 58.316, 177.469 69.684, 174.982 72 C 174.687 72.275, 173.678 74.989, 172.740 78.032 C 171.803 81.074, 169.902 85.099, 168.518 86.976 C 167.133 88.853, 166 91.400, 166 92.635 C 166 93.871, 165.550 95.160, 165 95.500 C 163.210 96.607, 163.944 99.018, 166.415 100.143 C 169.992 101.773, 170.443 105.034, 167.471 107.789 C 166.112 109.050, 165 110.405, 165 110.801 C 165 112.709, 156.673 119.781, 153.201 120.822 L 149.293 121.993 149.757 126.820 C 150.096 130.354, 149.690 132.699, 148.239 135.574 C 147.149 137.733, 145.944 140.512, 145.561 141.750 L 144.865 144 168.433 144 L 192 144 192 72 C 192 3.466, 191.914 0, 190.209 0 C 188.654 0, 188.415 0.956, 188.398 7.250 C 188.365 19.105, 182.651 28.709, 178.088 24.580 C 175.898 22.598, 172 22.509, 172 24.441 C 172 25.234, 171.553 26.158, 171.007 26.496 C 170.457 26.836, 170.024 26.081, 170.038 24.805 C 170.052 23.537, 169.773 21.038, 169.418 19.250 C 168.780 16.036, 169.292 15.500, 172.627 15.897 C 173.711 16.026, 176 8.919, 176 5.424 C 176 4.495, 176.969 2.894, 178.153 1.867 C 180.278 0.024, 180.181 -0, 170.713 -0 L 161.121 -0 160.810 3.750 M 184.250 33.731 C 183.475 34.001, 183 36.067, 183 39.173 C 183 43.051, 182.527 44.562, 180.901 45.879 C 178.828 47.558, 178.844 47.581, 182.289 47.813 C 185.556 48.033, 185.814 47.826, 186.388 44.524 C 186.725 42.586, 187.267 39.489, 187.593 37.643 C 188.197 34.223, 186.966 32.783, 184.250 33.731 M 121.467 119 C 122.175 131.583, 124 138.189, 124 128.168 C 124 125.290, 124.675 121.320, 125.500 119.346 C 127.639 114.226, 127.398 112.749, 123.882 109.437 L 120.764 106.500 121.467 119 M 56 109.941 C 56 111.009, 56.453 112.162, 57.007 112.504 C 59.023 113.750, 61.327 119.628, 61.907 125 C 62.450 130.039, 62.709 130.500, 64.996 130.500 C 67.277 130.500, 67.547 130.026, 68.133 125 C 70.087 108.247, 69.919 106.903, 66.127 108.932 C 64.614 109.742, 64 109.755, 64 108.976 C 64 108.364, 63.457 108.217, 62.768 108.644 C 61.040 109.711, 58 109.832, 58 108.833 C 58 108.375, 57.550 108, 57 108 C 56.450 108, 56 108.873, 56 109.941" stroke="none" fill="black" fill-rule="evenodd"/>
</svg>