<svg xmlns="http://www.w3.org/2000/svg" width="192" height="144" viewBox="0 0 192 144" version="1.1">
	<path d="M 0 9.617 C 0 19.135, 0.023 19.226, 2.250 18.517 C 3.488 18.122, 9.450 17.507, 15.500 17.150 L 26.500 16.500 26.800 10.750 C 26.965 7.588, 27.537 5, 28.072 5 C 28.607 5, 30.368 7.138, 31.987 9.750 C 33.605 12.362, 35.283 14.957, 35.715 15.515 C 40.063 21.138, 46.750 32.050, 48.427 36.260 C 50.826 42.281, 53.745 43.847, 62.750 43.944 C 67.709 43.997, 69.361 45.041, 66.898 46.563 C 66.292 46.938, 65.142 48.810, 64.342 50.724 C 63.226 53.395, 62.436 54.086, 60.944 53.696 C 59.268 53.257, 59 53.716, 59 57.029 C 59 62.064, 57.854 64.882, 54.407 68.324 C 51.891 70.837, 51.510 70.953, 50.957 69.378 C 50.386 67.749, 50.297 67.763, 49.851 69.554 C 49.242 72.003, 50.397 83.832, 51.507 86.500 C 52.333 88.484, 52.322 88.485, 50.127 86.556 C 47.920 84.618, 47.912 84.619, 47.275 87.056 C 46.924 88.400, 46.718 89.612, 46.818 89.750 C 46.918 89.888, 46.100 90.900, 45 92 C 43.900 93.100, 43 94.900, 43 96 C 43 98.366, 42.344 98.447, 37.872 96.630 C 34.152 95.118, 32 95.445, 32 97.522 C 32 98.386, 33.722 99.101, 36.750 99.493 C 51.006 101.340, 60.983 105.417, 58.158 108.242 C 57.233 109.167, 58.796 112.072, 63.014 117.269 C 63.357 117.691, 66.981 116.510, 71.069 114.644 C 81.179 110.027, 87.711 108.667, 99.500 108.728 C 111.885 108.791, 119.641 110.698, 131.802 116.672 C 141.928 121.645, 151.811 129.784, 158.561 138.708 L 162.500 143.916 177.250 143.958 L 192 144 192 85.658 C 192 53.570, 192.295 21.170, 192.655 13.658 L 193.310 0 96.655 0 L 0 0 0 9.617 M 0.360 10 C 0.360 15.225, 0.529 17.363, 0.735 14.750 C 0.941 12.137, 0.941 7.862, 0.735 5.250 C 0.529 2.637, 0.360 4.775, 0.360 10 M 103.607 45.582 C 102.611 48.178, 102.909 50.923, 104.526 54.050 C 107.370 59.550, 110.499 57.145, 109.021 50.593 C 107.735 44.890, 104.885 42.252, 103.607 45.582" stroke="none" fill="black" fill-rule="evenodd"/>
</svg>