<svg xmlns="http://www.w3.org/2000/svg" width="192" height="144" viewBox="0 0 192 144" version="1.1">
	<path d="M 190.638 1.500 C 191.375 3.421, 192 3.421, 192 1.500 C 192 0.675, 191.564 0, 191.031 0 C 190.499 0, 190.322 0.675, 190.638 1.500 M 64.499 20.420 C 64.225 21.289, 63.767 22.732, 63.483 23.627 C 62.797 25.783, 64.727 27.985, 67.372 28.063 C 72.333 28.211, 64.320 30.103, 53.078 31.437 C 39.432 33.057, 38.004 33.523, 37.989 36.357 C 37.983 37.536, 37.709 40.126, 37.380 42.114 C 36.825 45.472, 37.003 45.806, 39.891 46.812 C 42.028 47.557, 43 48.547, 43 49.979 C 43 52.108, 44.501 53.102, 48.338 53.513 C 49.527 53.641, 50.837 53.802, 51.250 53.872 C 51.663 53.943, 52 54.738, 52 55.640 C 52 58.132, 55.064 59.933, 59.367 59.968 C 63.375 60.001, 63.530 60.359, 61.573 65.077 C 61.080 66.265, 61.917 66.982, 64.974 67.991 C 67.204 68.727, 69.527 69.930, 70.137 70.665 C 70.893 71.576, 73.800 72, 79.289 72 C 86.628 72, 87.902 71.688, 93.806 68.442 C 99.700 65.203, 100.511 65.003, 102.889 66.208 C 105.806 67.686, 119.832 76.936, 127.500 82.439 C 139.122 90.779, 142.912 93.026, 150.428 96.035 L 158.355 99.209 169.510 97.604 C 175.645 96.722, 181.008 96, 181.427 96 C 181.846 96, 181.860 106.800, 181.459 120 L 180.729 144 186.364 144 L 192 144 192 98 C 192 71.544, 191.619 52, 191.104 52 C 189.959 52, 184 58.750, 184 60.047 C 184 60.626, 182.374 60.764, 180 60.384 C 176.710 59.858, 176 60.033, 176 61.372 C 176 62.267, 175.583 63, 175.073 63 C 174.564 63, 174.001 63.742, 173.823 64.649 C 173.630 65.637, 171.385 66.987, 168.222 68.017 L 162.943 69.737 158.381 66.254 C 147.682 58.085, 105.655 32, 103.192 32 C 101.173 32, 80.040 24.569, 75.455 22.247 C 69.475 19.218, 65.109 18.491, 64.499 20.420 M 72.903 87.431 C 72.666 87.668, 67.191 87.967, 60.736 88.096 C 47.483 88.361, 47.795 88.107, 50.604 96.350 C 51.616 99.320, 53.428 101.988, 55.517 103.581 C 59.047 106.273, 59.901 107.745, 60.696 112.500 C 61.358 116.465, 62.365 116.967, 69.703 116.985 C 78.538 117.006, 80.727 115.785, 80.727 110.833 C 80.727 107.657, 81.430 106.128, 84.245 103.182 C 88.451 98.780, 90 95.965, 90 92.721 C 90 88.632, 87.100 87, 79.838 87 C 76.260 87, 73.139 87.194, 72.903 87.431" stroke="none" fill="black" fill-rule="evenodd"/>
</svg>