<svg xmlns="http://www.w3.org/2000/svg" width="192" height="144" viewBox="0 0 192 144" version="1.1">
	<path d="M -0 72.016 L 0 144 13.750 143.895 C 26.561 143.797, 27.227 143.700, 23.500 142.472 C 21.300 141.747, 18.523 141.119, 17.329 141.077 C 15.760 141.021, 14.977 140.172, 14.502 138.009 C 14.141 136.364, 12.367 133.776, 10.559 132.259 C 2.759 125.709, 4.073 121.103, 15.273 115.739 C 22.894 112.089, 29.792 106.576, 35.057 99.927 C 38.106 96.079, 38.199 95.684, 37.533 89.464 L 36.841 83 32.670 82.969 C 27.778 82.932, 22.769 80.124, 18.130 74.817 C 9.415 64.848, 13.885 43.468, 27.197 31.441 C 32.616 26.545, 42.328 22.128, 50.454 20.863 C 59.637 19.433, 70.014 21.570, 77.226 26.376 C 81.542 29.252, 82.909 30.903, 84.750 35.468 C 85.988 38.536, 87 42.400, 87 44.055 C 87 49.173, 83.123 59.318, 80.143 62 C 78.615 63.375, 76.393 66.110, 75.207 68.078 C 74.020 70.046, 71.938 72.163, 70.580 72.782 C 68.461 73.747, 68.189 74.392, 68.664 77.319 C 69.157 80.354, 68.818 81.037, 65.607 83.486 C 62.754 85.662, 61.699 85.995, 60.587 85.072 C 58.093 83.003, 57.858 85.647, 59.996 91.698 C 61.823 96.867, 62.545 101.685, 64.539 122 C 64.836 125.025, 65.370 129.300, 65.725 131.500 C 66.081 133.700, 66.256 136.117, 66.115 136.870 C 65.973 137.624, 66.394 139.537, 67.050 141.120 L 68.243 144 81.562 144 C 89.363 144, 95.138 143.586, 95.500 143 C 95.840 142.450, 96.654 142.007, 97.309 142.015 C 98.025 142.025, 97.901 142.418, 97 143 C 96.020 143.633, 111.875 143.975, 142.750 143.985 C 176.637 143.996, 190 143.687, 190 142.893 C 190 142.284, 190.675 142.045, 191.500 142.362 C 192.825 142.870, 193 134.586, 193 71.473 L 193 0.010 96.500 0.020 L -0 0.031 -0 72.016 M 0.474 72.500 C 0.474 112.100, 0.598 128.154, 0.750 108.176 C 0.901 88.198, 0.901 55.798, 0.750 36.176 C 0.598 16.554, 0.474 32.900, 0.474 72.500 M 133.459 5.067 C 133.096 5.653, 132.998 6.331, 133.240 6.573 C 133.984 7.318, 140 5.806, 140 4.875 C 140 3.622, 134.247 3.791, 133.459 5.067 M 104.500 10 C 103.718 11.266, 105.042 11.266, 107 10 C 108.293 9.165, 108.266 9.029, 106.809 9.015 C 105.879 9.007, 104.840 9.450, 104.500 10 M 83.500 25 C 83.840 25.550, 84.316 26, 84.559 26 C 84.802 26, 85 25.550, 85 25 C 85 24.450, 84.523 24, 83.941 24 C 83.359 24, 83.160 24.450, 83.500 25 M 93.813 65.683 C 94.534 65.972, 95.397 65.936, 95.729 65.604 C 96.061 65.272, 95.471 65.036, 94.417 65.079 C 93.252 65.127, 93.015 65.364, 93.813 65.683 M 154.750 79.392 C 152.960 80.751, 152.322 84, 153.845 84 C 155.046 84, 158 80.567, 158 79.171 C 158 77.659, 156.937 77.732, 154.750 79.392 M 122.651 88.468 C 122.341 89.275, 122.518 90.202, 123.044 90.527 C 123.570 90.852, 124 90.191, 124 89.059 C 124 86.644, 123.444 86.401, 122.651 88.468 M 150.980 95.524 C 150.284 96.362, 149.993 97.327, 150.333 97.667 C 151.060 98.393, 154 96.156, 154 94.878 C 154 93.500, 152.370 93.849, 150.980 95.524 M 130.500 98 C 130.840 98.550, 131.316 99, 131.559 99 C 131.802 99, 132 98.550, 132 98 C 132 97.450, 131.523 97, 130.941 97 C 130.359 97, 130.160 97.450, 130.500 98 M 184.813 107.683 C 185.534 107.972, 186.397 107.936, 186.729 107.604 C 187.061 107.272, 186.471 107.036, 185.417 107.079 C 184.252 107.127, 184.015 107.364, 184.813 107.683 M 126.500 115 C 127.495 116.100, 128.694 117, 129.163 117 C 129.633 117, 129.455 116.100, 128.768 115 C 128.081 113.900, 126.882 113, 126.104 113 C 125.017 113, 125.109 113.462, 126.500 115 M 3.607 115.582 C 3.273 116.452, 3.014 117.914, 3.032 118.832 C 3.059 120.271, 3.265 120.233, 4.532 118.559 C 6.171 116.392, 6.473 114, 5.107 114 C 4.616 114, 3.941 114.712, 3.607 115.582 M 110.813 119.683 C 111.534 119.972, 112.397 119.936, 112.729 119.604 C 113.061 119.272, 112.471 119.036, 111.417 119.079 C 110.252 119.127, 110.015 119.364, 110.813 119.683 M 122.892 135.942 L 120.500 137.933 122.781 137.967 C 124.036 137.985, 125.329 137.306, 125.655 136.457 C 126.599 133.997, 125.477 133.788, 122.892 135.942 M 61.531 141.293 C 61.103 142.279, 61.034 143.367, 61.376 143.710 C 62.392 144.725, 63.211 143.299, 62.743 141.328 C 62.329 139.581, 62.275 139.580, 61.531 141.293 M 71 141 C 70.099 141.582, 69.975 141.975, 70.691 141.985 C 71.346 141.993, 72.160 141.550, 72.500 141 C 73.267 139.758, 72.921 139.758, 71 141 M 33.500 143 C 31.121 143.605, 31.806 143.788, 36.809 143.882 C 40.788 143.956, 42.890 143.631, 42.500 143 C 41.800 141.868, 37.948 141.868, 33.500 143" stroke="none" fill="black" fill-rule="evenodd"/>
</svg>