<svg xmlns="http://www.w3.org/2000/svg" width="192" height="144" viewBox="0 0 192 144" version="1.1">
	<path d="M -0 14.934 L -0 29.867 3.106 34.864 C 6.450 40.243, 6.153 40.119, 19.203 41.580 C 24.081 42.126, 25.295 41.913, 27.588 40.109 C 30.959 37.457, 34.007 37.431, 37.306 40.026 C 41.138 43.040, 41.723 45.946, 38.923 48.058 C 36.734 49.709, 36.673 50.070, 37.775 54.844 C 38.788 59.234, 38.695 60.442, 37.054 64.193 C 36.018 66.562, 34.855 71.088, 34.470 74.250 C 33.837 79.447, 33.540 80, 31.385 80 C 29.491 80, 28.965 80.567, 28.829 82.750 C 28.735 84.263, 28.599 86.175, 28.528 87 C 28.427 88.167, 24.828 94.444, 22.237 97.971 C 22.047 98.230, 21.452 97.780, 20.915 96.971 C 20.186 95.871, 20.059 96.131, 20.415 98 C 20.677 99.375, 21.180 102.719, 21.534 105.431 C 22.017 109.136, 22.928 111.064, 25.194 113.181 C 27.953 115.759, 28.031 116, 26.106 116 C 24.948 116, 24 116.243, 24 116.540 C 24 117.485, 28.188 125.396, 30.199 128.250 C 32.886 132.064, 31.363 131.689, 25.123 127 C 18.025 121.667, 16.801 121.713, 18.501 127.250 C 19.218 129.588, 20.312 132.800, 20.931 134.389 C 22.345 138.020, 21.843 138.590, 19.506 136.006 C 17.293 133.561, 14.515 133.294, 15.404 135.611 C 15.847 136.764, 15.593 137.058, 14.511 136.643 C 13.319 136.185, 13 136.901, 13 140.031 L 13 144 102.500 144 L 192 144 192 94.662 C 192 67.525, 192.297 35.125, 192.660 22.662 L 193.319 0 96.660 0 L 0 0 -0 14.934 M 0.402 16 C 0.402 24.525, 0.556 28.013, 0.743 23.750 C 0.931 19.488, 0.931 12.513, 0.743 8.250 C 0.556 3.988, 0.402 7.475, 0.402 16 M 90.044 58.782 C 89.986 61.806, 92.274 67.155, 94.369 68.893 C 96.971 71.050, 97.272 69.615, 94.861 66.550 C 93.669 65.035, 92.108 62.154, 91.391 60.148 C 90.405 57.389, 90.077 57.056, 90.044 58.782 M 20.158 92 C 20.158 93.375, 20.385 93.938, 20.662 93.250 C 20.940 92.563, 20.940 91.438, 20.662 90.750 C 20.385 90.063, 20.158 90.625, 20.158 92" stroke="none" fill="black" fill-rule="evenodd"/>
</svg>