<svg xmlns="http://www.w3.org/2000/svg" width="192" height="144" viewBox="0 0 192 144" version="1.1">
	<path d="M 0 72 L 0 144 40 144 L 80 144 80 141.500 C 80 139.875, 79.440 139, 78.400 139 C 77.520 139, 75.270 137.470, 73.400 135.600 C 69.490 131.690, 68.877 127.048, 71.733 122.973 C 72.686 121.613, 73.328 119.686, 73.160 118.690 C 72.992 117.695, 73.342 116.293, 73.938 115.575 C 74.728 114.623, 74.614 113.489, 73.517 111.385 C 72.689 109.798, 72.010 107.061, 72.006 105.303 C 72 102.160, 75.640 94.160, 78.529 90.968 C 79.536 89.855, 80 87.078, 80 82.158 C 80 78.206, 80.430 74.191, 80.956 73.236 C 81.482 72.281, 82.594 69.002, 83.426 65.949 C 84.924 60.456, 84.894 60.198, 80.492 41.078 C 76.850 25.257, 76.205 21.041, 76.933 17.801 C 78.023 12.950, 78.542 12.375, 80.423 13.936 C 82.960 16.041, 84.840 22.948, 87.494 39.913 C 89.335 51.674, 90.521 56.661, 91.683 57.510 C 92.930 58.422, 93.014 58.874, 92.045 59.472 C 91.041 60.093, 91.051 60.413, 92.091 61.056 C 92.974 61.602, 93.430 64.464, 93.500 69.900 C 93.557 74.320, 93.918 78.251, 94.302 78.635 C 94.686 79.019, 95 61.483, 95 39.667 L 95 0 47.500 0 L 0 0 0 72 M 93.475 82.041 C 93.121 82.613, 92.023 82.825, 91.034 82.511 C 89.910 82.154, 89.004 82.547, 88.615 83.560 C 87.724 85.883, 88.814 87.163, 90.811 86.138 C 91.740 85.661, 93.063 85.472, 93.750 85.718 C 94.543 86.003, 95 85.222, 95 83.583 C 95 80.834, 94.520 80.349, 93.475 82.041 M 95 115.500 L 95 144 108.500 144 C 116.833 144, 122 143.617, 122 143 C 122 142.450, 120.987 141.988, 119.750 141.972 C 118.513 141.957, 116.188 140.607, 114.583 138.972 C 112.979 137.338, 111.292 136, 110.833 136 C 110.375 136, 110 133.728, 110 130.950 C 110 128.173, 109.337 124.618, 108.526 123.051 C 107.269 120.619, 107.257 120.032, 108.446 119.044 C 109.262 118.367, 109.684 116.650, 109.462 114.902 C 109.210 112.910, 109.722 111.278, 111 110 C 113.696 107.304, 112.997 103.128, 108.476 94.923 C 107.695 93.505, 105.356 91.526, 103.278 90.526 C 101.200 89.525, 98.719 88.322, 97.764 87.853 C 96.809 87.384, 95.796 87, 95.514 87 C 95.231 87, 95 99.825, 95 115.500 M 72.582 125.235 C 70.685 128.130, 71.236 130.094, 74.870 133.382 C 79.871 137.909, 81.823 131.608, 77.153 126.014 L 74.306 122.604 72.582 125.235 M 103 124 C 103 124.550, 103.927 125, 105.059 125 C 106.191 125, 106.840 124.550, 106.500 124 C 106.160 123.450, 105.234 123, 104.441 123 C 103.648 123, 103 123.450, 103 124" stroke="none" fill="black" fill-rule="evenodd"/>
</svg>