<svg xmlns="http://www.w3.org/2000/svg" width="192" height="144" viewBox="0 0 192 144" version="1.1">
	<path d="M -0 8.385 L -0 16.770 5.581 17.467 C 10.190 18.043, 11.505 17.853, 13.139 16.374 C 14.669 14.989, 15.500 14.832, 16.809 15.680 C 17.739 16.283, 18.438 17.499, 18.362 18.382 C 18.249 19.697, 18.920 19.876, 22.065 19.374 C 27.763 18.463, 30.852 19.556, 31.649 22.765 C 32.023 24.269, 33.232 26.727, 34.336 28.227 C 35.998 30.487, 36.149 31.377, 35.216 33.426 C 34.208 35.637, 34.427 36.166, 37.295 38.449 C 39.058 39.852, 43.249 43.542, 46.610 46.650 C 52.713 52.295, 52.719 52.306, 51.817 56.319 C 50.468 62.321, 52.419 72.812, 59.103 95.500 C 63.535 110.546, 64.995 117.054, 64.997 121.775 C 65 127.452, 64.775 128.135, 62.636 128.948 C 61.336 129.442, 60.001 130.556, 59.668 131.423 C 59.211 132.613, 57.612 133, 53.156 133 C 47.341 133, 47.240 133.048, 46.625 136.125 C 46.281 137.844, 46 140.319, 46 141.625 L 46 144 68 144 C 89.110 144, 90 143.922, 90 142.059 C 90 140.991, 89.598 139.869, 89.106 139.565 C 87.365 138.490, 85.288 120, 86.907 120 C 88.696 120, 88.146 116.270, 86.250 115.542 C 85.288 115.173, 84.275 114.856, 84 114.837 C 83.725 114.818, 82.749 114.401, 81.831 113.909 C 80.715 113.312, 80.008 113.428, 79.700 114.258 C 78.639 117.113, 77.240 109.706, 76.598 97.843 C 76.222 90.881, 75.483 83.684, 74.957 81.849 C 74.431 80.014, 73.984 75.810, 73.965 72.507 C 73.945 69.203, 73.226 62.450, 72.366 57.500 C 69.329 40.011, 69.182 31.602, 71.712 20.120 C 72.971 14.411, 74 7.549, 74 4.870 L 74 0 37 0 L 0 0 -0 8.385 M 0 40.622 L 0 63.282 4.250 58.458 C 14.329 47.019, 14.278 47.117, 13.567 40.500 C 13.212 37.200, 12.826 33.150, 12.711 31.500 C 12.525 28.855, 12.174 28.538, 9.746 28.822 C 6.465 29.206, 5.313 27.152, 7.021 23.961 C 8.425 21.337, 7.049 19.611, 2.750 18.605 L 0 17.962 0 40.622 M 35.533 66.817 C 34.687 71.808, 35.433 73.339, 37.017 69.863 C 37.725 68.308, 37.785 66.595, 37.187 64.983 C 36.328 62.668, 36.216 62.793, 35.533 66.817 M 28.423 65.098 C 26.199 68, 22.293 81.636, 22.765 84.851 C 23.214 87.910, 23.094 88.062, 20.693 87.459 C 18.555 86.922, 17.887 87.317, 16.547 89.910 C 15.668 91.609, 14.519 93, 13.993 93 C 12.463 93, 11.730 88.372, 12.911 86.166 C 14.003 84.126, 13.452 81, 12 81 C 11.568 81, 10.955 81.675, 10.638 82.500 C 10.322 83.325, 9.559 84, 8.943 84 C 8.192 84, 8.046 82.687, 8.500 80 C 9.247 75.578, 8.285 74.923, 5.523 77.974 C 4.540 79.060, 2.896 80.216, 1.868 80.542 C 0.096 81.104, 0 82.753, 0 112.567 L 0 144 14.903 144 L 29.807 144 30.223 138.750 C 30.452 135.863, 30.469 133.162, 30.260 132.750 C 30.052 132.338, 28.066 132, 25.847 132 C 22.654 132, 21.704 131.583, 21.290 130 C 20.857 128.344, 19.926 128, 15.873 128 L 10.979 128 11.439 123.312 C 11.691 120.734, 13.199 116.121, 14.790 113.062 C 28.870 85.985, 29.973 83.606, 29.833 80.644 C 29.750 78.915, 29.946 76.150, 30.268 74.500 C 30.590 72.850, 30.548 69.744, 30.176 67.598 C 29.645 64.545, 29.264 64.001, 28.423 65.098 M 36.561 137.750 C 36.200 139.262, 35.671 141.287, 35.385 142.250 C 34.969 143.649, 35.480 144, 37.933 144 C 40.901 144, 41 143.855, 41 139.500 C 41 135.753, 40.684 135, 39.108 135 C 37.871 135, 36.990 135.950, 36.561 137.750" stroke="none" fill="black" fill-rule="evenodd"/>
</svg>