<svg xmlns="http://www.w3.org/2000/svg" width="192" height="144" viewBox="0 0 192 144" version="1.1">
	<path d="M 88.684 3.449 C 86.585 4.197, 84.009 5.587, 82.959 6.537 C 80.243 8.995, 76.885 16.344, 76.779 20.060 C 76.712 22.426, 75.956 23.664, 73.767 24.995 C 72.160 25.973, 69.980 26.546, 68.923 26.270 C 67.643 25.935, 67 26.280, 67 27.300 C 67 28.143, 66.462 29.013, 65.804 29.232 C 65.059 29.480, 65.886 31.219, 67.998 33.848 C 69.948 36.274, 71.958 37.846, 72.731 37.550 C 75.138 36.626, 75.482 40.191, 73.167 42.066 C 70.623 44.126, 70.424 45, 72.500 45 C 73.325 45, 74 45.637, 74 46.417 C 74 47.196, 74.357 47.983, 74.793 48.167 C 75.229 48.350, 76.617 50.190, 77.878 52.256 C 79.139 54.322, 80.582 55.758, 81.085 55.447 C 81.588 55.136, 82 55.359, 82 55.941 C 82 56.523, 82.675 57, 83.500 57 C 84.325 57, 85.014 57.788, 85.030 58.750 C 85.059 60.417, 85.109 60.417, 86.080 58.750 C 87.329 56.606, 89 56.463, 89 58.500 C 89 59.325, 88.520 60, 87.933 60 C 87.338 60, 87.133 60.844, 87.470 61.907 C 87.972 63.488, 87.228 64.096, 83.115 65.462 C 80.386 66.368, 77.614 67.760, 76.955 68.555 C 75.170 70.705, 74.181 70.345, 71.991 66.750 L 70.011 63.500 60.028 63.500 L 50.045 63.500 36.762 56.573 L 23.479 49.645 16.489 53.866 C 12.645 56.187, 7.362 58.848, 4.750 59.778 L 0 61.469 0 67.735 C 0 71.181, 0.250 74, 0.556 74 C 0.862 74, 2 71.994, 3.085 69.541 C 4.992 65.229, 7 62.836, 7 64.876 C 7 66.086, 4.161 79.813, 3.407 82.250 C 2.228 86.059, 5.765 83.571, 11.750 76.382 C 17.681 69.259, 18 68.606, 18 63.593 C 18 59.664, 18.489 57.867, 19.909 56.582 C 21.677 54.983, 22.047 54.973, 24.909 56.453 C 28.622 58.373, 28.662 58.678, 25.628 61.945 C 23.520 64.215, 23.188 65.755, 22.651 75.750 C 22.319 81.938, 22.407 87, 22.848 87 C 23.288 87, 26.032 82.686, 28.944 77.413 C 33.501 69.165, 34.167 67.280, 33.715 63.913 C 33.140 59.621, 33.710 59.281, 37.872 61.434 C 43.009 64.090, 43.483 65.500, 40.539 69.360 C 37.935 72.773, 37.915 72.935, 38.600 84.405 C 38.982 90.782, 39.576 96, 39.922 96 C 40.268 96, 42.512 91.492, 44.909 85.982 C 48.656 77.368, 49.181 75.336, 48.653 71.482 L 48.038 67 53.960 67 C 59.573 67, 62.255 68.106, 60.009 69.494 C 59.446 69.842, 58.299 71.454, 57.460 73.077 C 56.159 75.593, 56.095 77.608, 57.024 86.763 C 57.623 92.669, 58.463 97.853, 58.891 98.285 C 59.319 98.716, 60.383 97.254, 61.254 95.035 C 62.767 91.182, 64.277 90.021, 65.402 91.842 C 65.688 92.305, 64.727 97.513, 63.266 103.417 C 60.902 112.971, 60.298 114.312, 57.765 115.622 C 56.200 116.431, 51.498 119.327, 47.316 122.056 L 39.714 127.019 34.417 122.010 C 29.391 117.257, 27.176 116.158, 25.664 117.669 C 25.297 118.037, 25.751 119.172, 26.674 120.192 C 29.025 122.790, 27.534 123.751, 20.524 124.155 C 14.836 124.483, 14.483 124.366, 13.210 121.730 C 11.636 118.473, 10.404 118.883, 9.508 122.965 C 8.625 126.985, 13.212 135, 16.395 135 C 17.608 135, 19.151 135.551, 19.825 136.225 C 20.792 137.192, 21.473 137.185, 23.058 136.196 C 24.691 135.176, 26.027 135.228, 30.214 136.471 C 39.197 139.139, 42.429 138.588, 53.500 132.507 C 65.331 126.009, 69.213 122.172, 71.590 114.630 C 72.995 110.174, 73.621 109.271, 74.689 110.157 C 75.644 110.950, 75.993 113.848, 75.907 120.271 C 75.803 127.973, 75.368 130.156, 72.894 135.387 C 71.303 138.749, 70.001 142.063, 70.001 142.750 C 70 143.718, 75.866 144, 96 144 C 116.134 144, 122 143.718, 121.999 142.750 C 121.999 142.063, 120.654 138.659, 119.012 135.187 C 116.455 129.783, 116.002 127.583, 115.863 119.920 C 115.773 114.995, 115.940 110.727, 116.232 110.435 C 116.525 110.142, 117.605 112.266, 118.632 115.155 C 121.240 122.487, 124.755 125.562, 138.871 132.855 C 150.900 139.069, 151.295 139.194, 156.771 138.509 C 159.850 138.125, 163.432 137.406, 164.731 136.912 C 166.448 136.259, 167.795 136.475, 169.667 137.702 C 172.108 139.301, 172.314 139.291, 173.621 137.503 C 174.380 136.466, 175.743 135.508, 176.650 135.375 C 178.455 135.110, 179.961 133.231, 179.985 131.215 C 179.993 130.508, 180.716 128.838, 181.590 127.503 C 182.910 125.489, 182.982 124.474, 182.013 121.538 C 180.773 117.782, 178 116.678, 178 119.941 C 178 122.645, 176.461 123.334, 170.220 123.423 C 163.459 123.519, 162.052 122.784, 163.750 120.044 C 167.473 114.037, 162.576 114.751, 157.195 121 C 154.827 123.750, 152.456 126, 151.926 126 C 151.397 126, 147.934 124.132, 144.232 121.849 C 140.529 119.566, 135.619 116.620, 133.319 115.302 C 130.190 113.509, 128.979 112.101, 128.504 109.703 C 128.155 107.941, 126.936 103.247, 125.795 99.271 C 124.085 93.312, 123.947 91.769, 125.009 90.489 C 126.082 89.196, 125.980 88.703, 124.398 87.530 C 122.661 86.242, 122.635 85.985, 124.091 84.505 C 125.551 83.022, 125.887 83.446, 128.153 89.631 C 129.511 93.340, 131.111 96.537, 131.708 96.736 C 132.426 96.975, 133.042 92.787, 133.528 84.357 C 134.361 69.916, 135.698 65.482, 139.438 64.767 C 142.725 64.139, 142.917 64.436, 141.958 68.687 C 141.246 71.842, 141.770 73.524, 146.302 82.637 C 149.137 88.337, 151.803 93, 152.228 93 C 152.653 93, 153 87.929, 153 81.732 C 153 71.361, 152.801 70.172, 150.500 66.785 C 149.125 64.762, 148.003 62.745, 148.007 62.303 C 148.014 61.404, 153.556 57.467, 156.245 56.450 C 157.792 55.865, 157.922 56.290, 157.387 60.194 C 156.824 64.300, 157.166 65.186, 162.433 73.266 C 169.613 84.282, 170.432 84.805, 169.676 77.891 C 169.352 74.926, 168.798 69.691, 168.446 66.257 C 167.908 61.014, 167.342 59.624, 164.914 57.581 L 162.023 55.149 165.540 52.975 C 168.554 51.113, 169.303 50.995, 170.778 52.151 C 173.611 54.371, 173.925 55.269, 173.344 59.505 C 172.804 63.448, 172.986 63.756, 180.314 71.277 C 184.453 75.525, 188.101 79, 188.420 79 C 189.490 79, 189.015 75.861, 186.886 68.852 C 183.232 56.822, 187.727 59.107, 192.096 71.500 C 192.949 73.921, 193.240 62.497, 192.405 59.384 C 192.022 57.958, 190.476 56.875, 187.668 56.066 C 185.376 55.405, 179.962 52.834, 175.637 50.353 L 167.774 45.842 161.637 49.104 C 158.262 50.897, 153.250 53.765, 150.500 55.475 C 144.944 58.931, 140.526 61, 138.703 61 C 138.024 61, 137.475 59.584, 137.443 57.750 C 137.412 55.962, 137.128 51.905, 136.812 48.733 C 136.338 43.972, 136.577 42.537, 138.180 40.499 C 142.195 35.395, 141.761 25.200, 137.408 22.348 C 134.974 20.753, 132.409 21.045, 126.387 23.603 C 125.719 23.886, 125.059 22.479, 124.738 20.085 C 123.573 11.397, 117.773 7.155, 102.712 3.976 C 91.920 1.698, 93.434 1.755, 88.684 3.449 M 120.955 44.574 C 119.152 47.491, 118.945 48.584, 119.830 50.526 C 120.721 52.481, 120.654 52.805, 119.457 52.345 C 118.413 51.945, 118 52.517, 118 54.362 C 118 56.257, 117.598 56.783, 116.477 56.353 C 115.523 55.987, 113.656 57.145, 111.474 59.459 C 109.197 61.873, 107.850 62.691, 107.576 61.824 C 107.347 61.096, 107.010 59.971, 106.829 59.324 C 106.625 58.594, 105.439 59.065, 103.703 60.566 L 100.907 62.984 106.325 65.380 C 109.306 66.698, 112.053 68.277, 112.431 68.888 C 113.734 70.997, 115.639 69.988, 117.880 66 C 119.856 62.484, 120.921 61.620, 123.042 61.812 C 123.340 61.839, 123.674 58.405, 123.784 54.181 C 123.894 49.956, 124.151 45.263, 124.354 43.750 C 124.861 39.993, 123.596 40.300, 120.955 44.574 M 90 50.885 C 90 51.782, 93.005 53.328, 93.598 52.736 C 93.769 52.564, 93.030 51.875, 91.955 51.204 C 90.880 50.532, 90 50.389, 90 50.885 M 0.328 67.500 C 0.333 71.350, 0.513 72.802, 0.730 70.728 C 0.946 68.653, 0.943 65.503, 0.722 63.728 C 0.501 61.952, 0.324 63.650, 0.328 67.500 M 121.076 70.111 C 118.783 73.212, 118.782 73.227, 120.760 75.204 C 122.737 77.181, 122.744 77.176, 123.430 73.522 C 123.808 71.507, 124.364 69.215, 124.666 68.429 C 125.643 65.883, 123.439 66.916, 121.076 70.111 M 65.803 68.531 C 65.123 69.210, 67.221 77, 68.084 77 C 69.841 77, 71.100 74.056, 70.124 72.232 C 68.865 69.880, 66.489 67.844, 65.803 68.531 M 64.667 85.667 C 64.300 86.033, 64 86.988, 64 87.789 C 64 88.970, 64.283 89.010, 65.500 88 C 66.325 87.315, 67 86.360, 67 85.878 C 67 84.842, 65.616 84.717, 64.667 85.667" stroke="none" fill="black" fill-rule="evenodd"/>
</svg>