<svg xmlns="http://www.w3.org/2000/svg" width="192" height="144" viewBox="0 0 192 144" version="1.1">
	<path d="M 44.500 1.479 C 42.850 2.257, 40.727 2.666, 39.783 2.390 C 38.570 2.034, 37.881 2.626, 37.434 4.407 C 37.086 5.794, 35.946 7.200, 34.901 7.532 C 32.595 8.263, 32.543 8.902, 34.557 11.777 C 35.413 13, 35.664 14, 35.116 14 C 34.567 14, 33.840 13.550, 33.500 13 C 33.160 12.450, 32.369 12, 31.741 12 C 30.919 12, 30.936 12.336, 31.800 13.200 C 32.460 13.860, 33 15.115, 33 15.989 C 33 16.862, 33.865 19.275, 34.923 21.349 C 37.059 25.539, 37.073 25.525, 29.930 26.371 C 24.304 27.037, 17.762 29.838, 14.715 32.885 C 13.145 34.455, 13.815 42.455, 16.083 49.218 C 17.137 52.364, 18 56.547, 18 58.514 C 18 60.978, 18.763 62.854, 20.455 64.545 C 23.313 67.404, 25.353 67.586, 30.485 65.442 C 33.757 64.075, 34.416 64.063, 35.857 65.342 C 36.761 66.144, 39.118 67.469, 41.095 68.285 C 45.544 70.121, 48 75.551, 48 83.552 C 48 87.644, 48.405 89.218, 49.574 89.667 C 51.514 90.411, 50.774 94.104, 47.869 98.184 C 46.377 100.279, 32 141.453, 32 143.630 C 32 143.834, 47.075 144, 65.500 144 C 86.551 144, 99 143.638, 99 143.027 C 99 142.492, 97.871 140.129, 96.491 137.777 C 91.012 128.439, 87.692 121.309, 84.339 111.675 C 82.409 106.132, 80.194 100.687, 79.415 99.576 C 77.610 96.999, 77.660 94.034, 79.549 91.535 C 80.750 89.947, 80.911 87.546, 80.388 79.035 C 80.033 73.241, 79.158 66.758, 78.446 64.628 C 77.284 61.157, 77.344 60.547, 79.021 58.747 C 80.683 56.963, 83.534 55.004, 86.500 53.608 C 87.050 53.349, 89.975 52.448, 93 51.605 C 97.745 50.284, 99.095 49.309, 102.833 44.505 C 105.217 41.443, 108.254 38.224, 109.583 37.353 C 110.913 36.483, 112 34.977, 112 34.007 C 112 33.038, 112.613 31.736, 113.361 31.115 C 114.209 30.412, 114.573 28.631, 114.327 26.399 L 113.932 22.813 117.830 23.471 C 120.757 23.966, 122.135 23.722, 123.364 22.493 C 126.990 18.867, 124.008 13.764, 119.470 15.832 C 117.960 16.520, 117 16.577, 117 15.979 C 117 14.477, 114.397 14.817, 113 16.500 C 111.285 18.567, 110 18.378, 110 16.059 C 110 14.991, 109.613 13.879, 109.140 13.587 C 107.645 12.663, 103.095 15.417, 102.675 17.500 C 102.389 18.921, 102.233 18.704, 102.136 16.750 C 101.960 13.188, 99.936 13.246, 97.874 16.872 C 96.208 19.800, 90.249 21.890, 87.828 20.394 C 87.196 20.003, 86.963 20.132, 87.304 20.683 C 87.664 21.266, 86.322 21.738, 84.052 21.827 C 81.927 21.910, 78.958 22.446, 77.455 23.017 C 74.258 24.233, 74.219 24.205, 71.941 19.116 C 70.741 16.437, 70.515 14.885, 71.220 14.180 C 72.776 12.624, 71.173 4.128, 68.967 2.240 C 66.357 0.005, 48.787 -0.542, 44.500 1.479 M 74.813 26.683 C 75.534 26.972, 76.397 26.936, 76.729 26.604 C 77.061 26.272, 76.471 26.036, 75.417 26.079 C 74.252 26.127, 74.015 26.364, 74.813 26.683 M 96.030 28.550 C 96.057 31.136, 96.193 31.272, 97.134 29.654 C 97.903 28.330, 97.895 27.495, 97.104 26.704 C 96.299 25.899, 96.008 26.399, 96.030 28.550 M 87.237 36.127 C 81.500 38.332, 81.179 40, 86.491 40 C 89.097 40, 90.349 39.318, 92 37 C 94.495 33.497, 94.215 33.445, 87.237 36.127 M 36.769 38.564 C 36.459 38.874, 34.809 39.168, 33.103 39.216 C 30.071 39.302, 30 39.416, 30 44.152 C 30 46.818, 30.265 49, 30.590 49 C 30.914 49, 31.983 48.007, 32.966 46.794 C 34.596 44.781, 35.085 44.691, 38.575 45.762 C 40.678 46.407, 42.553 46.781, 42.741 46.592 C 42.929 46.404, 42.341 44.393, 41.433 42.125 C 39.930 38.368, 38.249 37.084, 36.769 38.564" stroke="none" fill="black" fill-rule="evenodd"/>
</svg>