<svg xmlns="http://www.w3.org/2000/svg" width="192" height="144" viewBox="0 0 192 144" version="1.1">
	<path d="M 0 57.500 L 0 115 4.955 115 C 9.824 115, 9.921 114.940, 10.565 111.506 C 10.925 109.585, 11.009 106.322, 10.752 104.256 C 10.117 99.172, 12.152 95.420, 15.957 94.659 C 18.738 94.102, 19 93.706, 19 90.060 C 19 87.094, 19.513 85.796, 21 85 C 22.197 84.360, 23 82.906, 23 81.381 C 23 79.782, 23.466 78.992, 24.250 79.260 C 24.938 79.494, 25.363 80.637, 25.194 81.800 C 25.011 83.069, 25.684 84.410, 26.879 85.157 C 28.374 86.090, 28.731 87.096, 28.311 89.197 C 27.670 92.398, 29.364 95, 32.087 95 C 35.037 95, 36.269 98.748, 36.089 107.174 L 35.922 115 38.831 115 C 41.516 115, 41.777 114.669, 42.224 110.709 C 42.653 106.899, 46.576 99.045, 48.066 99.012 C 49.346 98.984, 53 106.993, 53 109.827 C 53 111.507, 53.389 113.122, 53.864 113.416 C 54.339 113.710, 60.752 114.224, 68.114 114.560 C 81.382 115.164, 81.529 115.197, 84.750 118.281 L 88 121.392 88 112.101 C 88 104.310, 88.334 102.340, 90.068 99.904 C 92.642 96.290, 93.149 96.290, 95.284 99.904 C 96.756 102.395, 97 105.742, 97 123.404 L 97 144 144.340 144 L 191.681 144 192.340 121.338 C 192.703 108.875, 193 76.475, 193 49.338 L 193 0 96.500 0 L 0 0 0 57.500 M 0.468 58 C 0.468 89.625, 0.595 102.562, 0.749 86.750 C 0.904 70.937, 0.904 45.062, 0.749 29.250 C 0.595 13.437, 0.468 26.375, 0.468 58 M 117.028 31.186 C 115.917 33.009, 115.006 34.807, 115.004 35.183 C 115.002 35.558, 114.052 36.166, 112.893 36.534 C 107.312 38.305, 104.685 43.713, 109.913 42.667 C 114.118 41.826, 115.115 43.605, 114.381 50.631 C 113.882 55.399, 114.078 56.820, 115.381 57.901 C 118.221 60.258, 117.253 63.527, 112.200 68.641 C 108.108 72.782, 107.555 73.795, 108.450 75.500 C 109.027 76.600, 109.950 77.526, 110.500 77.557 C 113.392 77.722, 116.819 80.144, 117.392 82.427 C 118.367 86.312, 120.770 85.568, 122 81 C 122.592 78.800, 123.397 77.007, 123.789 77.015 C 125.484 77.052, 126.892 78.730, 127.559 81.510 C 127.953 83.155, 128.697 85.036, 129.211 85.691 C 130.641 87.511, 133 86.080, 133 83.393 C 133 80.481, 133.954 80.389, 137.253 82.984 L 139.775 84.968 140.337 82.820 C 140.789 81.091, 141.177 80.902, 142.323 81.853 C 143.812 83.089, 147 82.434, 147 80.893 C 147 80.402, 147.787 79.964, 148.750 79.921 C 149.795 79.874, 149.997 79.639, 149.250 79.338 C 147.167 78.497, 147.852 76.818, 150 77.500 C 151.147 77.864, 152 77.680, 152 77.067 C 152 76.480, 151.498 76, 150.883 76 C 150.269 76, 149.985 75.164, 150.253 74.142 C 150.520 73.120, 150.325 71.545, 149.820 70.642 C 149.141 69.430, 149.307 69, 150.450 69 C 151.303 69, 152 68.550, 152 68 C 152 67.450, 151.550 67, 151 67 C 150.450 67, 150 66.325, 150 65.500 C 150 64.675, 149.489 64, 148.865 64 C 148.240 64, 146.687 62.875, 145.412 61.500 C 143.589 59.532, 142.117 59, 138.502 59 L 133.909 59 134.586 55.391 C 135.304 51.567, 135.170 51.524, 129.379 53.695 C 128.763 53.926, 127.964 53.349, 127.605 52.413 C 126.972 50.764, 129.034 47.436, 131.771 45.689 C 132.470 45.242, 132.779 44.452, 132.458 43.931 C 132.136 43.411, 132.577 42.716, 133.437 42.386 C 136.435 41.235, 135.086 39.037, 130.978 38.380 C 126.443 37.655, 125.849 37.020, 125.046 32.034 C 124.574 29.107, 124.010 28.446, 121.762 28.186 C 119.597 27.935, 118.640 28.542, 117.028 31.186" stroke="none" fill="black" fill-rule="evenodd"/>
</svg>