<svg xmlns="http://www.w3.org/2000/svg" width="192" height="144" viewBox="0 0 192 144" version="1.1">
	<path d="M 63.650 8.749 C 63.733 13.562, 63.454 17.950, 63.031 18.500 C 62.607 19.050, 61.938 21.289, 61.543 23.476 C 60.051 31.734, 48.830 46.933, 40.768 51.615 C 28.635 58.661, 9.861 61.990, 1.750 58.532 C 0.099 57.828, 0 60.221, 0 100.893 L 0 144 79.341 144 L 158.683 144 157.934 139.250 C 157.162 134.353, 157.366 130.829, 159.020 120.500 C 161.498 105.033, 163.320 89.041, 163.122 84.504 C 162.956 80.724, 162.293 78.872, 160.398 76.893 C 157.732 74.111, 157.791 70.248, 160.534 67.972 C 161.270 67.361, 162.154 65.574, 162.500 64 C 162.846 62.426, 163.775 60.602, 164.564 59.947 C 166.737 58.143, 166.290 56.290, 163.513 55.593 C 162.145 55.249, 160.293 53.850, 159.398 52.484 C 158.502 51.118, 157.115 50, 156.314 50 C 153.675 50, 151.801 47.182, 152.456 44.200 C 152.933 42.030, 152.507 40.886, 150.534 39.032 C 146.163 34.925, 147.109 34.253, 158.340 33.488 C 166.651 32.921, 169.250 33.080, 171.590 34.296 C 175.171 36.159, 178.237 39.454, 180.435 43.801 C 181.353 45.617, 182.779 47.362, 183.603 47.678 C 184.428 47.994, 186.669 51.364, 188.584 55.166 L 192.065 62.079 191.936 82.544 C 191.830 99.276, 191.542 103.157, 190.358 103.820 C 189.140 104.501, 189.114 105.098, 190.192 107.565 C 190.970 109.346, 191.695 116.989, 192.035 127 C 192.929 153.336, 193.139 94.630, 192.336 42.750 L 191.674 0 127.587 -0.001 L 63.500 -0.001 63.650 8.749 M 0.459 101 C 0.459 124.925, 0.589 134.713, 0.749 122.750 C 0.908 110.788, 0.908 91.213, 0.749 79.250 C 0.589 67.288, 0.459 77.075, 0.459 101 M 182.863 76.750 C 182.007 87.701, 182.496 91.648, 185.372 97 C 189.071 103.886, 188.926 103.731, 190.039 101.971 C 191.354 99.892, 191.218 98.979, 189.682 99.568 C 188.666 99.958, 188.321 98.177, 188.174 91.787 C 188.054 86.606, 187.330 81.908, 186.241 79.254 C 184.411 74.789, 183.093 73.813, 182.863 76.750" stroke="none" fill="black" fill-rule="evenodd"/>
</svg>