<svg xmlns="http://www.w3.org/2000/svg" width="192" height="144" viewBox="0 0 192 144" version="1.1">
	<path d="M -0 72.005 L -0 144.010 96.250 143.755 L 192.500 143.500 192.757 71.750 L 193.013 0 151.123 0 L 109.233 0 108.826 6.398 C 108.476 11.883, 107.853 13.607, 104.459 18.472 C 102.282 21.594, 99.600 25.446, 98.500 27.032 C 97.400 28.619, 96.085 29.797, 95.579 29.651 C 95.072 29.505, 91.951 25.486, 88.644 20.720 C 83.238 12.928, 82.588 11.446, 82.196 6.027 L 81.760 0 40.880 0 L 0 0 -0 72.005 M 0.474 72.500 C 0.474 112.100, 0.598 128.154, 0.750 108.176 C 0.901 88.198, 0.901 55.798, 0.750 36.176 C 0.598 16.554, 0.474 32.900, 0.474 72.500 M 95 39.572 C 95 41.414, 94.266 42.977, 93.044 43.741 C 91.968 44.413, 90.618 46.706, 90.044 48.836 C 89.255 51.767, 87.959 53.368, 84.719 55.416 C 82.119 57.059, 79.369 60.023, 77.718 62.959 C 74.411 68.842, 74.402 69, 77.378 69 C 80.208 69, 82.488 71.388, 81.394 73.206 C 80.857 74.099, 81.164 74.055, 82.383 73.066 C 83.964 71.782, 84.449 71.952, 87.001 74.682 L 89.852 77.734 87.299 86.074 C 85.655 91.445, 85.127 94.542, 85.817 94.772 C 86.406 94.969, 86.670 95.698, 86.403 96.392 C 86.136 97.087, 86.384 98.879, 86.952 100.374 C 87.802 102.609, 87.543 103.968, 85.500 107.999 C 82.797 113.335, 82.571 117.963, 84.978 118.710 C 89.962 120.255, 91 121.358, 91 125.110 C 91 129.572, 92.011 130.497, 94.603 128.405 C 95.956 127.313, 96.141 126.725, 95.250 126.354 C 93.921 125.800, 93.482 121.991, 94.750 122.014 C 95.162 122.021, 96.546 122.307, 97.824 122.650 C 99.725 123.159, 100.033 123.731, 99.516 125.791 C 99.122 127.362, 99.364 128.607, 100.158 129.098 C 102.266 130.400, 103.897 128.144, 103.346 124.688 C 102.895 121.862, 103.216 121.309, 106.169 119.819 C 108.001 118.894, 110.519 117.849, 111.765 117.497 C 113.010 117.144, 113.790 116.469, 113.498 115.997 C 113.206 115.525, 113.426 114.855, 113.987 114.508 C 115.375 113.650, 114.293 109.663, 110.742 102.553 C 107.861 96.784, 105.700 91.417, 103.976 85.750 C 102.901 82.214, 104.695 82.067, 106.031 85.581 C 106.571 87.001, 107.572 87.978, 108.256 87.753 C 110.295 87.082, 110.256 83.320, 108.190 81.342 C 107.132 80.329, 105.962 77.819, 105.590 75.765 C 104.998 72.486, 105.134 72.093, 106.708 72.546 C 107.698 72.831, 107.494 72.532, 106.250 71.878 C 105.013 71.227, 104 70.329, 104 69.882 C 104 68.415, 107.798 67, 111.734 67 C 113.860 67, 116.121 66.479, 116.758 65.842 C 117.634 64.966, 118.289 64.995, 119.458 65.965 C 120.370 66.722, 121 66.820, 121 66.206 C 121 65.634, 120.438 64.977, 119.750 64.746 C 117.753 64.074, 120.624 61.242, 124.069 60.485 C 127.170 59.804, 127.574 58.640, 126.078 54.705 C 125.030 51.949, 119.969 49.622, 112.731 48.567 C 109.273 48.063, 107.531 47.213, 106.392 45.475 C 105.528 44.157, 103.849 42.785, 102.661 42.427 C 101.472 42.068, 99.263 40.617, 97.750 39.201 L 95 36.626 95 39.572 M 86.229 72.188 C 86.847 74.042, 89 74.349, 89 72.583 C 89 71.713, 88.287 71, 87.417 71 C 86.546 71, 86.011 71.534, 86.229 72.188" stroke="none" fill="black" fill-rule="evenodd"/>
</svg>