<svg xmlns="http://www.w3.org/2000/svg" width="192" height="144" viewBox="0 0 192 144" version="1.1">
	<path d="M 0 35 C 0 54.250, 0.337 70.001, 0.750 70.001 C 1.163 70.002, 5.301 70.672, 9.946 71.489 C 24.032 73.968, 53.901 76.962, 65.535 77.060 C 71.566 77.112, 82.114 76.416, 88.975 75.514 C 107.761 73.046, 108.449 72.850, 108.801 69.866 C 109.089 67.431, 108.772 67.256, 102.109 66.155 C 98.262 65.520, 93.964 65, 92.557 65 C 89.142 65, 89.334 63.282, 93.196 59.298 C 95.630 56.786, 95.988 56, 94.696 56 C 91.812 56, 92.779 53.992, 98.750 47.581 C 109.301 36.252, 110.383 34.084, 110.654 23.730 L 110.891 14.670 106.797 10.927 C 104.461 8.791, 100.193 6.327, 96.861 5.189 L 91.020 3.195 88.890 9.847 C 87.191 15.156, 86.678 19.733, 86.353 32.500 C 85.768 55.461, 85.755 55, 87.056 56.568 C 88.945 58.843, 86.516 58.228, 84.405 55.895 C 82.897 54.230, 82.465 52.091, 82.330 45.645 C 82.237 41.165, 81.675 35.928, 81.080 34.007 C 79.474 28.812, 79.786 20.655, 82 10 C 83.086 4.775, 83.980 0.388, 83.987 0.250 C 83.994 0.112, 65.100 0, 42 0 L 0 0 0 35 M 92 0.364 C 92 0.564, 94.076 1.521, 96.613 2.490 C 100.474 3.964, 101.369 4.027, 102.098 2.876 C 103.676 0.385, 103.060 0, 97.500 0 C 94.475 0, 92 0.164, 92 0.364 M 124 0.938 C 124 1.454, 122.662 3.341, 121.027 5.132 C 119.392 6.922, 118.282 8.615, 118.561 8.895 C 118.840 9.174, 121.416 9.745, 124.284 10.164 C 139.517 12.389, 148.260 13.927, 148.812 14.478 C 149.151 14.818, 148.939 15.862, 148.340 16.798 C 147.024 18.856, 143.803 18.739, 135.295 16.326 L 129.090 14.566 126.666 16.844 C 125.195 18.226, 123.858 21.060, 123.267 24.046 C 122.386 28.502, 122.558 29.493, 125.076 34.485 C 130.264 44.771, 132.911 57.947, 129.529 56.649 C 128.321 56.186, 128.097 57.150, 128.279 62.028 C 128.455 66.765, 128.804 67.887, 130 67.554 C 130.825 67.324, 135.100 66.173, 139.500 64.997 C 143.900 63.820, 152.962 61.315, 159.637 59.429 C 168.261 56.993, 173.819 56, 178.839 56 L 185.904 56 188.952 51.570 L 192 47.140 192 23.570 L 192 0 158 0 C 137.491 0, 124 0.372, 124 0.938 M 121 14 C 121 14.550, 121.450 15, 122 15 C 122.550 15, 123 14.550, 123 14 C 123 13.450, 122.550 13, 122 13 C 121.450 13, 121 13.450, 121 14 M 186.562 69.518 C 173.247 88.345, 158.891 103.906, 143.408 116.295 C 131.594 125.749, 126.186 126.975, 117.581 122.152 C 114.611 120.487, 110.194 119.039, 106.949 118.667 C 99.665 117.830, 91.798 115.053, 85 110.917 C 79.544 107.598, 79.395 107.570, 66.500 107.458 C 59.350 107.396, 50.025 106.732, 45.779 105.982 L 38.057 104.620 24.727 108.381 L 11.396 112.142 5.948 110.072 C 2.952 108.933, 0.388 108.001, 0.250 108.001 C 0.112 108, 0 116.100, 0 126 L 0 144 96.031 144 C 179.291 144, 192.137 143.806, 192.623 142.540 C 192.931 141.738, 192.804 123.408, 192.342 101.808 L 191.500 62.536 186.562 69.518 M 0.415 126 C 0.415 136.175, 0.564 140.338, 0.745 135.250 C 0.927 130.162, 0.927 121.837, 0.745 116.750 C 0.564 111.662, 0.415 115.825, 0.415 126" stroke="none" fill="black" fill-rule="evenodd"/>
</svg>