<svg xmlns="http://www.w3.org/2000/svg" width="192" height="144" viewBox="0 0 192 144" version="1.1">
	<path d="M -0 72.005 L -0 144.010 96.250 143.755 L 192.500 143.500 192.757 71.750 L 193.013 0 96.507 0 L 0 0 -0 72.005 M 0.474 72.500 C 0.474 112.100, 0.598 128.154, 0.750 108.176 C 0.901 88.198, 0.901 55.798, 0.750 36.176 C 0.598 16.554, 0.474 32.900, 0.474 72.500 M 86.877 34.823 C 85.992 37.150, 86.220 37.783, 88.682 39.831 C 90.232 41.120, 93.024 43.452, 94.886 45.013 C 97.229 46.977, 98.072 48.370, 97.624 49.538 C 97.098 50.908, 96.697 50.993, 95.488 49.990 C 94.670 49.311, 94 47.862, 94 46.771 C 94 45.372, 93.533 44.965, 92.418 45.393 C 91.548 45.727, 90.648 46, 90.418 46 C 89.255 46, 90.217 49.022, 91.632 49.814 C 92.530 50.316, 93.792 52.262, 94.437 54.138 C 95.447 57.078, 95.324 58.097, 93.540 61.524 L 91.472 65.500 84.986 65.473 C 81.419 65.459, 73.829 65.059, 68.121 64.585 C 59.441 63.865, 57.816 63.951, 58.199 65.112 C 58.451 65.875, 59.746 66.656, 61.078 66.846 C 62.410 67.036, 64.069 67.659, 64.764 68.230 C 65.460 68.801, 67.581 69.363, 69.479 69.478 C 71.377 69.593, 74.745 70.889, 76.965 72.358 C 81.321 75.241, 82.236 74.704, 78.961 71.189 L 76.922 69 82.336 69 C 89.846 69, 94 69.968, 94 71.717 C 94 72.831, 95.142 73.131, 98.750 72.963 C 105.658 72.642, 106 72.759, 106 75.441 C 106 78.013, 107.234 79.432, 108.431 78.236 C 108.822 77.845, 109.897 77.520, 110.821 77.513 C 111.796 77.505, 112.634 76.556, 112.820 75.250 C 113.046 73.654, 113.814 73, 115.463 73 C 119.307 73, 133.304 76.130, 136.275 77.654 C 138.704 78.900, 139.326 78.885, 141.248 77.539 C 142.456 76.692, 144.245 76, 145.223 76 C 146.200 76, 147.069 75.213, 147.152 74.250 C 147.236 73.287, 147.358 71.825, 147.424 71 C 147.490 70.175, 145.734 67.768, 143.522 65.652 L 139.500 61.803 131.788 62.368 C 127.546 62.678, 123.841 62.552, 123.555 62.089 C 123.268 61.625, 121.001 60.734, 118.517 60.109 C 114.514 59.101, 114 58.654, 114 56.186 C 114 54.654, 114.563 52.828, 115.250 52.129 C 116.253 51.109, 116.055 50.494, 114.250 49.019 C 113.013 48.007, 112 46.674, 112 46.056 C 112 45.438, 110.425 44.003, 108.500 42.867 C 106.575 41.732, 105 40.119, 105 39.285 C 105 37.788, 106.226 37.837, 110.250 39.494 C 113.348 40.769, 112.074 38.582, 108.069 35.750 C 103.397 32.446, 100.853 32.310, 96.306 35.120 C 92.879 37.238, 92.875 37.238, 92.345 35.212 C 91.485 31.924, 88.072 31.681, 86.877 34.823 M 107 54.500 C 107 55.417, 107.484 56.005, 108.075 55.808 C 108.666 55.611, 109.150 55.023, 109.150 54.500 C 109.150 53.977, 108.666 53.389, 108.075 53.192 C 107.484 52.995, 107 53.583, 107 54.500 M 96.461 60.750 C 95.411 62.813, 94.390 64.838, 94.193 65.250 C 93.442 66.816, 95.997 65.907, 98.572 63.691 C 100.600 61.947, 101.086 60.847, 100.561 59.191 C 99.579 56.097, 98.651 56.450, 96.461 60.750 M 119.500 63 C 119.840 63.550, 120.879 63.993, 121.809 63.985 C 123.266 63.971, 123.293 63.835, 122 63 C 120.042 61.734, 118.718 61.734, 119.500 63" stroke="none" fill="black" fill-rule="evenodd"/>
</svg>