<svg xmlns="http://www.w3.org/2000/svg" width="192" height="144" viewBox="0 0 192 144" version="1.1">
	<path d="M 0 72 L 0 144 35.893 144 C 76.017 144, 72.068 144.766, 74.529 136.500 C 75.184 134.300, 76.366 130.925, 77.156 129 C 79.087 124.292, 77.597 102.557, 75.401 103.400 C 74.303 103.821, 74.113 102.659, 74.446 97.559 C 74.820 91.832, 75.540 89.759, 79.855 82 C 82.836 76.639, 82.833 76.572, 79.463 72.672 C 77.065 69.899, 76.099 67.709, 75.840 64.462 C 75.417 59.136, 75.723 58, 77.583 58 C 79.934 58, 79.175 56.261, 76.535 55.598 C 74.858 55.177, 74.257 54.494, 74.654 53.460 C 75.035 52.467, 75.927 52.159, 77.228 52.573 C 79.115 53.171, 79.183 52.889, 78.525 47.214 C 77.758 40.607, 78.875 38.672, 81.883 41.394 C 83.432 42.796, 83.868 42.811, 85.570 41.524 C 86.631 40.721, 88.222 40.049, 89.104 40.032 C 89.986 40.014, 91.899 38.896, 93.354 37.548 L 96 35.095 96 17.548 L 96 0 48 0 L 0 0 0 72 M 96 90 L 96 144 108.508 144 C 120.089 144, 120.952 143.870, 120.140 142.250 C 117.777 137.533, 115.609 129.952, 115.222 125.052 C 114.753 119.108, 116 99.726, 116.721 101.750 C 116.966 102.437, 117.637 103, 118.212 103 C 120.973 103, 116.898 88.806, 110.987 77.836 C 110.319 76.596, 110.678 75.786, 112.395 74.660 C 113.664 73.830, 115.502 71.461, 116.482 69.397 C 118.191 65.796, 118.190 65.509, 116.474 62.322 C 115.490 60.495, 114.306 59, 113.843 59 C 113.379 59, 113 58.550, 113 58 C 113 57.450, 113.675 57, 114.500 57 C 115.898 57, 116.344 56.021, 115.750 54.257 C 115.612 53.848, 114.963 53.637, 114.306 53.788 C 113.425 53.990, 113.266 52.216, 113.701 47.031 C 114.025 43.164, 113.984 40, 113.610 40 C 113.236 40, 111.809 40.734, 110.439 41.632 C 108.136 43.141, 107.813 43.141, 106.146 41.632 C 105.154 40.734, 103.660 40, 102.826 40 C 101.992 40, 100.495 39.100, 99.500 38 C 98.505 36.900, 97.310 36, 96.845 36 C 96.380 36, 96 60.300, 96 90 M 78.200 63.200 C 76.334 65.066, 76.747 66.643, 80.104 70.465 C 83.362 74.176, 85 74.909, 85 72.655 C 85 70.946, 81.558 67.775, 80.669 68.664 C 79.939 69.395, 79.677 67.761, 79.961 64.250 C 80.169 61.683, 79.886 61.514, 78.200 63.200 M 112.636 65.929 C 113.155 68.523, 112.945 69, 111.286 69 C 109.258 69, 106.421 73.524, 107.883 74.427 C 108.326 74.702, 110.369 73.389, 112.420 71.509 C 116.412 67.853, 117.062 63.818, 113.761 63.189 C 112.314 62.913, 112.125 63.374, 112.636 65.929 M 102 75.441 C 102 76.298, 102.450 77, 103 77 C 103.550 77, 104 76.577, 104 76.059 C 104 75.541, 103.550 74.840, 103 74.500 C 102.450 74.160, 102 74.584, 102 75.441 M 80 120.559 C 80 121.416, 80.457 121.835, 81.016 121.490 C 81.575 121.144, 81.774 120.443, 81.457 119.931 C 80.600 118.544, 80 118.802, 80 120.559" stroke="none" fill="black" fill-rule="evenodd"/>
</svg>