<svg xmlns="http://www.w3.org/2000/svg" width="192" height="144" viewBox="0 0 192 144" version="1.1">
	<path d="M 0 72 L 0 144 33.567 144 L 67.135 144 66.441 141.750 C 66.059 140.512, 65.180 138.375, 64.487 137 C 59.032 126.173, 54.175 101.148, 53.327 79.500 C 52.481 57.894, 54.673 41.276, 61.668 16.281 C 63.399 10.094, 63.397 10.051, 61.204 7.717 C 58.738 5.092, 58.413 2.987, 60.200 1.200 C 61.133 0.267, 54.578 0, 30.700 0 L 0 0 0 72 M 76 1.109 C 77.925 1.620, 84.675 3.401, 91 5.067 C 104.300 8.570, 107.556 9.724, 111 12.152 C 113.524 13.932, 178.530 28.408, 179.979 27.513 C 180.385 27.262, 180.962 24.457, 181.262 21.278 C 181.952 13.970, 184.783 7.415, 189.050 3.250 L 192.380 0 132.440 0.090 C 93.528 0.149, 73.728 0.506, 76 1.109 M 105.836 20.737 C 103.578 20.967, 101.912 21.761, 101.495 22.805 C 90.623 50.040, 87.228 69.579, 88.342 98.500 C 88.964 114.657, 90.677 123.613, 95.595 136.413 L 98.500 143.975 145.250 143.988 L 192 144 192 122.191 C 192 104.564, 191.719 100.010, 190.532 98.441 C 188.627 95.922, 188.590 88.925, 190.468 86.441 C 191.644 84.886, 191.943 80.467, 191.968 64.220 L 192 43.940 189.250 45.886 C 187.738 46.956, 185.534 48.110, 184.354 48.450 C 182.343 49.030, 182.203 48.710, 182.140 43.370 C 182.102 40.236, 181.718 37.338, 181.286 36.930 C 180.854 36.522, 174.875 34.978, 168 33.498 C 161.125 32.019, 145.825 28.590, 134 25.877 C 107.548 19.810, 110.195 20.293, 105.836 20.737" stroke="none" fill="black" fill-rule="evenodd"/>
</svg>