<svg xmlns="http://www.w3.org/2000/svg" width="192" height="144" viewBox="0 0 192 144" version="1.1">
	<path d="M 0 72 L 0 144 45 144 C 69.750 144, 89.993 143.662, 89.985 143.250 C 89.940 141.073, 83.364 137, 79.894 137 C 75.119 137, 75.725 129.718, 81.452 118.260 C 86.943 107.274, 89.266 95.959, 86.500 93.674 C 85.852 93.139, 85.940 92.669, 86.750 92.341 C 87.437 92.062, 88 90.971, 88 89.917 C 88 88.466, 87.291 88, 85.082 88 C 81.247 88, 78.860 88.965, 79.626 90.205 C 79.969 90.758, 79.301 90.696, 78.121 90.065 C 76.954 89.440, 76 88.443, 76 87.848 C 76 87.253, 75.129 86.994, 74.065 87.273 C 68.307 88.779, 74.517 77.191, 81.477 73.443 C 84.313 71.915, 85.176 70.752, 85.644 67.822 C 85.969 65.790, 87.307 63.121, 88.618 61.890 C 89.928 60.659, 91 58.497, 91 57.086 L 91 54.520 93.540 57.260 C 94.938 58.767, 96.776 60, 97.626 60 C 98.475 60, 100.565 61.575, 102.269 63.500 C 104.536 66.061, 106.191 67.001, 108.434 67.006 C 112.823 67.014, 118.468 68.749, 121.138 70.910 C 123.099 72.498, 123.240 73.005, 122.105 74.374 C 120.979 75.730, 121.036 76.077, 122.471 76.627 C 124.754 77.503, 122.518 78.963, 118.861 78.985 C 117.409 78.993, 115.159 79.885, 113.861 80.967 C 111.622 82.832, 111.604 82.941, 113.500 83.085 C 116.679 83.326, 110.163 84.745, 105.250 84.882 C 100.955 85.001, 99.454 86.912, 102.250 88.700 C 103.749 89.659, 104.126 94.248, 102.777 95.114 C 102.202 95.484, 102.548 97.774, 103.645 100.864 C 105.428 105.882, 107 107.559, 107 104.441 C 107 103.584, 107.450 103.160, 108 103.500 C 109.711 104.557, 109.098 107.162, 107.010 107.708 C 105.483 108.107, 105.159 108.784, 105.618 110.614 C 105.947 111.926, 105.782 113, 105.251 113 C 103.297 113, 104.485 124.431, 106.834 128.232 C 109.514 132.567, 109.307 137.318, 106.416 137.858 C 103.647 138.374, 102 139.969, 102 142.133 C 102 143.959, 103.472 144.012, 147.250 143.760 L 192.500 143.500 192.757 71.750 L 193.013 0 150.007 0 C 126.353 0, 107.005 0.337, 107.011 0.750 C 107.017 1.163, 107.692 3.709, 108.511 6.409 C 110.394 12.618, 110.416 20.571, 108.563 25.823 C 107.772 28.064, 104.622 33.223, 101.563 37.288 C 98.503 41.352, 96 45.200, 96 45.839 C 96 47.479, 94.323 47.284, 93.665 45.568 C 93.362 44.781, 90.682 40.843, 87.708 36.818 C 79.676 25.947, 78.631 23.518, 78.727 15.946 C 78.772 12.341, 79.527 7.674, 80.405 5.574 C 81.282 3.474, 82 1.361, 82 0.878 C 82 0.388, 63.864 0, 41 0 L 0 0 0 72 M 0.474 72.500 C 0.474 112.100, 0.598 128.154, 0.750 108.176 C 0.901 88.198, 0.901 55.798, 0.750 36.176 C 0.598 16.554, 0.474 32.900, 0.474 72.500 M 117 84 C 116.099 84.582, 115.975 84.975, 116.691 84.985 C 117.346 84.993, 118.160 84.550, 118.500 84 C 119.267 82.758, 118.921 82.758, 117 84 M 81.768 92.168 C 82.350 92.750, 83.415 93.028, 84.137 92.788 C 84.886 92.538, 84.432 92.085, 83.080 91.731 C 81.417 91.296, 81.026 91.426, 81.768 92.168 M 95.250 141.220 C 92.106 142.737, 92.447 144, 96 144 C 98.333 144, 99 143.556, 99 142 C 99 139.763, 98.492 139.657, 95.250 141.220" stroke="none" fill="black" fill-rule="evenodd"/>
</svg>