<svg xmlns="http://www.w3.org/2000/svg" width="192" height="144" viewBox="0 0 192 144" version="1.1">
	<path d="M 0 72 L 0 144 40 144 L 80 144 80.012 138.250 C 80.018 135.088, 80.721 126.425, 81.573 119 C 84.071 97.237, 84.753 88.757, 84.349 84.500 C 84.057 81.431, 84.189 80.965, 84.914 82.500 C 85.719 84.204, 85.870 83.994, 85.930 81.079 C 85.968 79.197, 85.352 76.941, 84.560 76.066 C 83.767 75.190, 82.562 72.392, 81.881 69.847 C 80.822 65.885, 80.902 64.266, 82.436 58.600 C 83.421 54.959, 85.076 50.902, 86.114 49.583 C 88.576 46.453, 88.494 45.602, 85.584 44.045 C 84.256 43.334, 82.948 41.908, 82.678 40.876 C 82.408 39.844, 81.315 39, 80.249 39 C 75.533 39, 73.128 30.117, 76.529 25.262 C 77.455 23.940, 77.816 22.115, 77.444 20.634 C 76.961 18.708, 77.292 18.042, 79 17.500 C 80.688 16.964, 81.037 16.284, 80.572 14.432 C 80.108 12.584, 80.313 12.183, 81.488 12.634 C 82.451 13.003, 83 12.630, 83 11.607 C 83 9.123, 84.633 9.674, 89.022 13.639 C 91.237 15.640, 94.501 18.002, 96.275 18.889 C 100.404 20.952, 105.273 29.075, 107.360 37.382 C 108.241 40.888, 110.783 47.196, 113.011 51.400 C 117.689 60.231, 118.923 65.634, 119.090 78.024 C 119.184 85.013, 118.861 87.282, 117.592 88.551 C 116.102 90.041, 115.860 89.906, 114.526 86.834 C 113.185 83.746, 113.073 83.684, 113.009 86 C 112.946 88.258, 112.836 88.323, 111.873 86.666 C 110.856 84.916, 110.737 84.930, 109.319 86.955 C 108.164 88.604, 108.064 89.746, 108.872 92.064 C 109.445 93.706, 110.228 106.068, 110.612 119.536 L 111.311 144.022 151.905 143.761 L 192.500 143.500 192.757 71.750 L 193.013 0 96.507 0 L 0 0 0 72 M 0.474 72.500 C 0.474 112.100, 0.598 128.154, 0.750 108.176 C 0.901 88.198, 0.901 55.798, 0.750 36.176 C 0.598 16.554, 0.474 32.900, 0.474 72.500" stroke="none" fill="black" fill-rule="evenodd"/>
</svg>