<svg xmlns="http://www.w3.org/2000/svg" width="192" height="144" viewBox="0 0 192 144" version="1.1">
	<path d="M 43.437 5.750 C 42.547 8.912, 40.962 14.352, 39.915 17.838 C 38.068 23.986, 33.227 44.819, 31.047 56 C 28.587 68.616, 27.061 88.937, 27.480 103.500 C 27.872 117.137, 28.487 123.694, 30.758 138.500 L 31.525 143.500 102.262 143.757 C 165.175 143.985, 173 143.844, 173 142.485 C 173 139.118, 179.020 128.021, 185.327 119.759 L 192 111.018 192 73.009 C 192 50.640, 191.623 35, 191.083 35 C 190.579 35, 190.017 35.439, 189.833 35.974 C 189.650 36.510, 188.444 36.672, 187.153 36.333 C 185.122 35.799, 184.896 35.299, 185.474 32.608 C 185.841 30.899, 186.367 27.700, 186.643 25.500 C 186.920 23.300, 187.833 20.050, 188.673 18.279 C 190.054 15.367, 190.047 14.904, 188.600 13.457 C 187.720 12.577, 187 11.232, 187 10.467 C 187 9.688, 185.213 8.596, 182.933 7.982 C 179.958 7.181, 178.320 5.962, 176.834 3.443 L 174.802 -0 109.929 -0 L 45.056 -0 43.437 5.750 M 0.039 140.250 C 0.011 142.934, 0.426 144, 1.500 144 C 3.338 144, 3.338 144.009, 1.539 139.865 L 0.078 136.500 0.039 140.250" stroke="none" fill="black" fill-rule="evenodd"/>
</svg>