<svg xmlns="http://www.w3.org/2000/svg" width="192" height="144" viewBox="0 0 192 144" version="1.1">
	<path d="M 160.951 14.825 C 157.899 16.898, 152.274 21.089, 148.451 24.137 C 144.628 27.186, 138.575 31.461, 135 33.639 C 131.425 35.817, 127.192 38.462, 125.594 39.516 C 123.403 40.963, 122.817 41.073, 123.209 39.967 C 123.894 38.037, 122.288 35, 120.581 35 C 119.840 35, 118.999 35.897, 118.712 36.994 C 118.254 38.744, 117.630 38.911, 113.610 38.360 C 110.956 37.996, 107.141 38.261, 104.543 38.988 C 100.611 40.089, 99.749 40.862, 97.562 45.251 C 95.721 48.946, 95.320 50.730, 96.034 52.063 C 97.399 54.614, 97.263 55, 95 55 C 93.486 55, 92.999 54.332, 92.996 52.250 C 92.992 48.840, 89.910 43.642, 86.610 41.480 C 85.244 40.585, 81.968 39.544, 79.331 39.166 C 74.845 38.525, 74.370 38.165, 71.938 33.563 C 68.496 27.052, 63.848 23.333, 57.329 21.874 C 50.368 20.316, 45.656 21.700, 40.830 26.721 C 35.029 32.755, 33 37.501, 33 45.038 C 33 50.760, 33.386 52.131, 35.994 55.677 C 39.982 61.100, 47.456 64.403, 54.260 63.749 L 59.142 63.280 55.048 67.451 C 52.797 69.745, 51.226 71.893, 51.557 72.224 C 51.889 72.555, 51.388 74.005, 50.444 75.444 C 48.393 78.575, 49.022 79.628, 51.878 77.844 C 54.667 76.102, 57.016 78.071, 55.020 80.476 C 53.951 81.764, 53.987 82.341, 55.223 83.769 C 56.062 84.737, 57.276 89.665, 57.976 94.948 C 58.666 100.144, 59.736 105.206, 60.355 106.198 C 61.201 107.552, 61.173 108.494, 60.241 109.986 C 58.649 112.535, 58.649 117.465, 60.241 120.014 C 61.228 121.595, 61.228 122.405, 60.241 123.986 C 58.649 126.535, 58.649 131.465, 60.241 134.014 C 61.228 135.595, 61.228 136.405, 60.241 137.986 C 58.750 140.373, 58.605 144, 60 144 C 60.550 144, 61 143.325, 61 142.500 C 61 140.408, 63.753 140.616, 64.311 142.750 C 64.598 143.851, 64.811 143.502, 64.884 141.809 C 64.948 140.329, 64.550 138.840, 64 138.500 C 62.703 137.699, 62.703 133.301, 64 132.500 C 65.300 131.697, 65.300 125.303, 64 124.500 C 62.703 123.699, 62.703 119.301, 64 118.500 C 64.550 118.160, 65 116.360, 65 114.500 C 65 112.640, 64.550 110.840, 64 110.500 C 63.450 110.160, 63 108.801, 63 107.480 C 63 105.485, 63.721 104.899, 67.250 104.027 C 69.588 103.449, 73.127 102.531, 75.116 101.988 C 80.068 100.635, 80.088 100.644, 78.884 103.750 C 78.182 105.560, 78.053 111.663, 78.508 121.609 C 79.093 134.432, 78.955 137.185, 77.599 139.809 C 76.719 141.510, 76 143.148, 76 143.450 C 76 143.753, 88.590 144, 103.978 144 L 131.956 144 137.521 137.254 C 140.581 133.543, 143.334 129.517, 143.638 128.307 C 144.717 124.009, 141.834 118.638, 134.266 110.841 L 126.831 103.183 128.498 94.841 C 130.095 86.852, 133.713 73.492, 134.792 71.599 C 135.074 71.103, 135.911 71.525, 136.651 72.537 C 137.931 74.287, 138.145 74.235, 141.028 71.473 C 148.315 64.491, 152.638 49.482, 148.066 47.035 C 145.267 45.538, 139.693 45.765, 137.441 47.468 C 135.267 49.113, 133 49.451, 133 48.131 C 133 47.653, 135.908 44.841, 139.463 41.881 C 144.266 37.882, 146.585 36.584, 148.491 36.825 C 151.475 37.204, 160 33.371, 160 31.651 C 160 31.008, 159.001 29.857, 157.779 29.094 L 155.559 27.707 157.893 26.844 C 159.861 26.116, 160.027 25.738, 158.949 24.439 C 157.864 23.131, 158.453 22.104, 162.835 17.667 C 170.527 9.878, 169.815 8.803, 160.951 14.825 M 87.945 66.566 C 84.528 70.683, 75.555 72.182, 69.811 69.594 C 68.445 68.978, 67.991 69.533, 67.435 72.493 C 67.027 74.668, 67.225 77.198, 67.922 78.729 C 68.625 80.271, 68.732 81.668, 68.188 82.212 C 67.409 82.991, 68.348 91.682, 69.316 92.650 C 69.489 92.823, 74.101 91.510, 79.565 89.732 L 89.500 86.500 92.187 78.820 C 94.497 72.220, 94.672 70.973, 93.437 69.948 C 92.647 69.292, 92 67.910, 92 66.878 C 92 64.596, 89.725 64.421, 87.945 66.566 M 60.688 112.646 C 59.216 114.117, 59.990 117.149, 61.750 116.810 C 62.712 116.624, 63.500 115.616, 63.500 114.570 C 63.500 112.580, 61.869 111.464, 60.688 112.646 M 108.719 119.332 C 107.396 122.702, 107.965 135.370, 109.532 137.441 C 110.867 139.206, 110.995 138.753, 110.942 132.441 C 110.868 123.506, 109.725 116.767, 108.719 119.332 M 124.985 124.750 C 124.976 126.263, 124.533 128.175, 124 129 C 123.220 130.207, 123.028 130.049, 123.015 128.191 C 123.007 126.921, 122.574 126.145, 122.054 126.467 C 121.059 127.081, 121.008 135, 121.999 135 C 122.315 135, 124.275 132.721, 126.355 129.935 C 129.396 125.861, 129.903 124.589, 128.946 123.435 C 126.988 121.076, 125.001 121.736, 124.985 124.750 M 60.688 126.646 C 59.216 128.117, 59.990 131.149, 61.750 130.810 C 62.712 130.624, 63.500 129.616, 63.500 128.570 C 63.500 126.580, 61.869 125.464, 60.688 126.646" stroke="none" fill="black" fill-rule="evenodd"/>
</svg>