<svg xmlns="http://www.w3.org/2000/svg" width="192" height="144" viewBox="0 0 192 144" version="1.1">
	<path d="M 80.714 42.620 C 79.476 43.857, 79.936 47.727, 81.683 50.770 C 83.316 53.615, 83.284 53.840, 80.596 58.426 C 77.989 62.876, 77.925 63.259, 79.504 65.004 C 81.076 66.742, 81.054 67.220, 79.148 72.679 C 76.774 79.479, 75.356 87.281, 74.423 98.689 C 73.493 110.050, 73.996 111.483, 79.491 113.105 C 85.955 115.014, 85.300 117.227, 77.941 118.339 C 75.744 118.670, 73.909 120.043, 74.463 120.940 C 75.701 122.944, 91.562 124.583, 94 122.959 C 95.290 122.099, 95.203 121.710, 93.379 120.174 C 90.667 117.891, 89.320 114, 91.241 114 C 91.998 114, 93.367 113.438, 94.283 112.750 C 95.812 111.602, 95.836 110.399, 94.581 97.972 C 93.829 90.532, 92.671 82.635, 92.009 80.424 C 91.013 77.099, 91.068 75.773, 92.327 72.761 C 93.455 70.059, 93.610 68.197, 92.924 65.559 C 92.416 63.601, 91.582 60.393, 91.072 58.428 C 90.297 55.450, 90.463 54.537, 92.072 52.928 C 94.514 50.486, 94.491 50.026, 91.717 45.898 C 89.849 43.117, 88.708 42.446, 85.431 42.203 C 83.229 42.040, 81.106 42.227, 80.714 42.620 M 191.079 101.583 C 191.127 102.748, 191.364 102.985, 191.683 102.188 C 191.972 101.466, 191.936 100.603, 191.604 100.271 C 191.272 99.939, 191.036 100.529, 191.079 101.583" stroke="none" fill="black" fill-rule="evenodd"/>
</svg>