<svg xmlns="http://www.w3.org/2000/svg" width="192" height="144" viewBox="0 0 192 144" version="1.1">
	<path d="M 0 72 L 0 144 28.107 144 L 56.215 144 55.753 131.250 C 54.987 110.063, 56.759 104.586, 67.956 93.537 C 71.710 89.833, 73.814 86.990, 73.511 86.033 C 73.242 85.186, 72.597 80.669, 72.079 75.996 C 69.891 56.284, 66.960 44.021, 60.488 27.500 C 55.343 14.366, 53 6.644, 53 2.818 L 53 0 26.500 0 L 0 0 0 72 M 83.276 1.276 C 86.240 9.001, 90.604 53.438, 90.982 79.750 C 90.995 80.622, 93.039 81.007, 97.750 81.024 C 101.463 81.037, 106.287 81.462, 108.472 81.969 C 110.656 82.475, 112.616 82.718, 112.826 82.507 C 113.036 82.297, 113.622 78.427, 114.127 73.907 C 116.591 51.891, 120.953 42.291, 132.824 32.767 C 140.453 26.645, 162.225 19, 172.029 19 C 179.206 19, 186.642 21.524, 188.694 24.656 C 190.947 28.094, 189.106 31.109, 181.398 36.610 C 174.298 41.676, 166.449 44.806, 152.824 48.003 C 140.968 50.785, 136.045 53.405, 133.819 58.116 C 132.296 61.340, 129.107 76.377, 127.467 88.074 C 126.826 92.646, 126.828 92.650, 133.339 99.225 C 137.584 103.513, 140.243 107.143, 140.976 109.651 C 141.594 111.768, 142.502 120.250, 142.993 128.500 C 143.485 136.750, 143.912 143.613, 143.943 143.750 C 143.974 143.887, 154.800 144, 168 144 L 192 144 192 72 L 192 0 137.393 0 C 93.532 0, 82.882 0.251, 83.276 1.276" stroke="none" fill="black" fill-rule="evenodd"/>
</svg>