<svg xmlns="http://www.w3.org/2000/svg" width="192" height="144" viewBox="0 0 192 144" version="1.1">
	<path d="M 6 2 C 6 3.100, 6.659 4, 7.465 4 C 9.590 4, 10.615 6.829, 10.468 12.292 C 10.371 15.905, 10.667 16.958, 11.670 16.573 C 12.405 16.291, 13 16.720, 13 17.531 C 13 18.339, 13.916 19.916, 15.036 21.036 C 16.157 22.157, 16.805 23.507, 16.476 24.038 C 15.932 24.920, 7.944 24.571, 2.250 23.418 C 0.704 23.105, 0 23.437, 0 24.481 C 0 25.316, 0.675 26, 1.500 26 C 3.366 26, 3.358 26.943, 1.468 29.441 C 0.218 31.095, 0 39.729, 0 87.691 L 0 144 7.955 144 L 15.909 144 16.552 140.576 L 17.194 137.152 20.246 140.627 C 22.352 143.026, 23.619 143.781, 24.334 143.066 C 24.904 142.496, 25.564 136.959, 25.801 130.761 C 26.141 121.904, 25.887 118.665, 24.616 115.624 C 22.571 110.728, 22.533 110.872, 25.565 112.025 C 31.611 114.323, 37.835 112.206, 36.587 108.275 C 35.815 105.841, 28.135 97.469, 26.092 96.833 C 23.556 96.044, 25.703 91.653, 32.551 83.628 C 39.013 76.054, 39.121 75.834, 37.555 73.443 C 36.674 72.100, 35.557 71, 35.072 71 C 34.586 71, 31.924 74.055, 29.156 77.789 C 26.388 81.524, 23.139 85.461, 21.937 86.539 L 19.750 88.500 20.491 85 C 20.899 83.075, 22.575 78.278, 24.217 74.340 C 27.506 66.449, 28.607 65.710, 35.631 66.673 C 37.973 66.994, 40.701 66.905, 41.694 66.475 C 42.687 66.045, 44.321 65.796, 45.324 65.922 C 46.443 66.062, 47.356 65.353, 47.688 64.087 C 48.474 61.080, 49.642 62.358, 50.391 67.044 C 50.994 70.817, 55 76.975, 55 74.130 C 55 73.443, 55.450 73.160, 56 73.500 C 56.550 73.840, 57 76.368, 57 79.117 C 57 85.576, 58.924 98.225, 60.094 99.450 C 60.592 99.973, 61 101.196, 61 102.169 C 61 103.277, 61.525 103.736, 62.405 103.398 C 63.356 103.033, 64.029 103.855, 64.486 105.938 C 64.858 107.632, 65.547 108.780, 66.017 108.489 C 66.880 107.956, 65.702 113.055, 64.520 114.967 C 64.169 115.535, 64.316 116, 64.847 116 C 65.378 116, 65.558 116.976, 65.246 118.169 C 64.811 119.831, 65.037 120.200, 66.215 119.748 C 67.240 119.355, 67.710 119.715, 67.626 120.829 C 67.419 123.582, 69.751 122.726, 72.459 119.056 C 74.734 115.971, 75 115.846, 75 117.854 C 75 119.087, 75.900 121.959, 77 124.236 C 78.100 126.513, 79 129.191, 79 130.188 C 79 131.185, 79.394 132, 79.875 132 C 80.356 132, 81.028 133.389, 81.367 135.086 C 81.736 136.931, 82.487 138.004, 83.233 137.756 C 85.176 137.108, 87.213 139.753, 86.501 141.997 C 85.879 143.955, 86.310 144, 105.855 144 L 125.846 144 125.378 136.250 C 125.121 131.988, 124.455 123.212, 123.897 116.749 C 123.339 110.286, 123.097 104.652, 123.359 104.228 C 124.216 102.842, 131.077 103.760, 133.024 105.521 C 134.117 106.511, 135.635 106.970, 136.593 106.603 C 137.561 106.231, 140.059 107.016, 142.549 108.476 C 145.602 110.265, 146.962 110.631, 147.272 109.744 C 147.590 108.837, 148.243 108.974, 149.685 110.252 C 150.773 111.216, 151.934 111.732, 152.266 111.400 C 152.599 111.068, 153.808 111.453, 154.955 112.256 C 156.101 113.058, 158.140 113.505, 159.487 113.247 C 161.860 112.794, 161.892 112.676, 160.518 109.390 C 158.825 105.337, 159.138 105.241, 163.411 108.500 C 166.517 110.869, 169 111.714, 169 110.403 C 169 110.075, 166.337 106.901, 163.083 103.349 C 159.829 99.798, 155.066 93.790, 152.500 90 C 146.926 81.768, 134.014 63.938, 127.355 55.279 C 119.759 45.404, 118.824 44.929, 102 42.407 C 85.660 39.959, 78.038 36.574, 68.308 27.446 C 65.115 24.451, 62.378 22, 62.227 22 C 62.075 22, 61.541 23.077, 61.040 24.394 C 60.272 26.415, 54.269 30.602, 53.394 29.727 C 53.239 29.572, 53.475 26.773, 53.918 23.506 C 54.361 20.239, 54.499 13.614, 54.223 8.783 L 53.723 0 29.861 0 C 6.667 0, 6 0.056, 6 2 M 46.981 29.045 C 45.577 32.437, 45.946 33.342, 48.357 32.417 C 50.082 31.755, 50.634 27.510, 49.116 26.572 C 48.630 26.271, 47.669 27.384, 46.981 29.045 M 37.250 32.662 C 35.295 33.451, 35.786 36, 37.893 36 C 39.461 36, 41 34.226, 41 32.418 C 41 31.876, 38.851 32.016, 37.250 32.662" stroke="none" fill="black" fill-rule="evenodd"/>
</svg>