<svg xmlns="http://www.w3.org/2000/svg" width="192" height="144" viewBox="0 0 192 144" version="1.1">
	<path d="M -0 72.005 L -0 144.010 96.250 143.755 L 192.500 143.500 192.757 71.750 L 193.013 0 96.507 0 L 0 0 -0 72.005 M 0.474 72.500 C 0.474 112.100, 0.598 128.154, 0.750 108.176 C 0.901 88.198, 0.901 55.798, 0.750 36.176 C 0.598 16.554, 0.474 32.900, 0.474 72.500 M 82.109 62.218 C 73.112 69.117, 71.626 70, 69.013 70 C 67.091 70, 65.985 70.737, 65.148 72.575 C 63.852 75.418, 64.357 77, 66.559 77 C 67.352 77, 68 77.408, 68 77.906 C 68 78.405, 70.227 79.119, 72.950 79.493 C 75.672 79.867, 78.485 80.879, 79.200 81.742 C 80.869 83.755, 86.236 86, 89.379 86 C 93.801 86, 102.811 81.837, 108.032 77.380 C 110.854 74.971, 113.972 73, 114.960 73 C 120.214 73, 128.027 66.693, 125.680 64.346 C 125.325 63.992, 121.903 64.218, 118.075 64.851 C 108.377 66.452, 106.757 66.324, 102.806 63.643 C 100.845 62.312, 97.193 61.059, 94.417 60.764 C 91.713 60.477, 88.800 59.948, 87.945 59.589 C 86.982 59.184, 84.759 60.185, 82.109 62.218" stroke="none" fill="black" fill-rule="evenodd"/>
</svg>