<svg xmlns="http://www.w3.org/2000/svg" width="192" height="144" viewBox="0 0 192 144" version="1.1">
	<path d="M 93.508 7.974 C 93.164 9.059, 91.671 10.528, 90.191 11.238 C 87.598 12.481, 87.511 12.782, 87.816 19.514 C 87.990 23.356, 89.041 29.248, 90.153 32.607 C 91.828 37.671, 91.989 39.378, 91.092 42.607 C 90.498 44.748, 90.009 46.903, 90.006 47.395 C 89.996 48.906, 103.784 47.241, 106.997 45.343 C 110.456 43.300, 110.619 42.757, 108.342 40.872 C 104.504 37.697, 103.175 32.253, 103.739 22.022 C 104.255 12.656, 104.189 12.246, 101.914 10.653 C 100.617 9.744, 98.755 9, 97.777 9 C 96.800 9, 96 8.325, 96 7.500 C 96 5.325, 94.243 5.659, 93.508 7.974" stroke="none" fill="black" fill-rule="evenodd"/>
</svg>