<svg xmlns="http://www.w3.org/2000/svg" width="192" height="144" viewBox="0 0 192 144" version="1.1">
	<path d="M 0 72 L 0 144 33 144 L 66 144 66 141.500 C 66 138.975, 64.639 138.158, 63.500 140 C 62.364 141.837, 57.188 141.029, 54.249 138.556 C 52.040 136.698, 50.801 134.130, 49.077 127.840 C 47.830 123.290, 45.462 116.896, 43.814 113.631 C 40.926 107.911, 40.620 105.055, 42.441 100.814 C 42.986 99.544, 42.139 98.481, 38.997 96.498 C 36.231 94.752, 34.186 92.415, 32.920 89.552 C 31.870 87.179, 29.884 84.499, 28.506 83.596 C 27.128 82.693, 26 81.055, 26 79.956 C 26 78.806, 24.961 77.484, 23.555 76.843 C 19.979 75.214, 19.593 73.044, 22.353 70.087 C 23.873 68.460, 24.657 66.573, 24.468 65 C 24.302 63.625, 24.129 61.970, 24.083 61.322 C 24.037 60.675, 22.200 59.351, 20 58.380 C 17.800 57.409, 16 56.246, 16 55.794 C 16 54.700, 18.284 50.658, 19.337 49.887 C 20.604 48.960, 19.631 44.464, 18.226 44.750 C 16.454 45.111, 16.682 39.509, 18.500 38 C 19.325 37.315, 20.039 37.148, 20.086 37.628 C 20.133 38.107, 20.571 37.162, 21.059 35.527 C 22.002 32.368, 20.681 26.077, 18.337 22.558 C 17.376 21.116, 17.205 17.958, 17.673 10.308 L 18.304 0 9.152 0 L 0 0 0 72 M 52.487 3.622 C 53.319 5.614, 54 7.414, 54 7.622 C 54 7.830, 54.605 8, 55.345 8 C 56.085 8, 57.505 8.900, 58.500 10 C 60.436 12.139, 68 12.899, 68 10.955 C 68 10.380, 69.134 8.775, 70.519 7.390 C 71.905 6.004, 72.810 4.501, 72.530 4.049 C 71.995 3.183, 75.249 2.037, 78.307 2.014 C 79.857 2.002, 80.076 2.750, 79.845 7.250 C 79.647 11.092, 80.089 13.274, 81.492 15.387 C 82.752 17.284, 83.537 17.798, 83.784 16.887 C 85.241 11.495, 85.998 12.863, 88.082 24.646 C 88.969 29.662, 88.874 31.942, 87.566 37.049 C 86.033 43.031, 86.190 47, 87.959 47 C 88.412 47, 89.051 48.067, 89.378 49.372 C 89.887 51.398, 90.736 51.816, 95.211 52.246 C 99.565 52.665, 101.260 52.307, 105.264 50.125 C 109.515 47.809, 110.005 47.206, 109.433 45 C 109.077 43.625, 108.572 39.985, 108.312 36.912 C 107.924 32.332, 107.222 30.630, 104.419 27.480 C 100.500 23.075, 100.067 19.767, 103.129 17.622 C 104.670 16.543, 105.121 15.416, 104.763 13.542 C 104.063 9.881, 105.353 9.567, 109.731 12.330 C 113.481 14.697, 119 23.066, 119 26.385 C 119 27.273, 119.450 28, 120 28 C 120.550 28, 121 26.403, 121 24.450 C 121 22.498, 121.714 19.521, 122.586 17.834 C 123.458 16.147, 124.423 11.444, 124.730 7.383 L 125.289 0 107.844 0 C 95.610 0, 90.042 0.358, 89.200 1.200 C 88.267 2.133, 87.733 2.133, 86.800 1.200 C 85.959 0.359, 80.419 -0, 68.287 -0 L 50.973 0 52.487 3.622 M 163.482 1.750 C 163.864 2.712, 164.410 6.425, 164.694 10 C 165.254 17.031, 166.290 19.771, 169.159 21.807 C 170.171 22.525, 171 24.265, 171 25.673 C 171 27.619, 171.420 28.123, 172.750 27.775 C 174.336 27.359, 174.475 28.169, 174.230 36.408 C 173.967 45.232, 172.627 52.190, 170.697 54.750 C 170.179 55.437, 170.053 56, 170.417 56 C 170.781 56, 170.499 56.632, 169.789 57.404 C 169.080 58.177, 168.275 58.798, 168 58.786 C 165.472 58.671, 165.067 59.549, 164.796 65.737 L 164.500 72.474 159.743 75.987 L 154.985 79.500 158.122 80.150 C 160.989 80.744, 162.946 82.384, 162.985 84.224 C 162.993 84.623, 161.682 85.630, 160.071 86.463 C 158.460 87.296, 156.871 88.831, 156.540 89.873 C 155.537 93.033, 150.101 98.030, 146.988 98.652 C 144.527 99.145, 144.213 99.530, 145.029 101.054 C 146.639 104.063, 146.138 108.635, 143.464 115.313 C 142.069 118.797, 140.096 125.797, 139.079 130.869 C 138.049 136.001, 136.444 140.957, 135.459 142.045 C 133.707 143.981, 133.977 144, 162.845 144 L 192 144 192 72 L 192 0 177.393 0 C 163.883 0, 162.838 0.131, 163.482 1.750 M 34.500 7 C 34.160 7.550, 34.359 8, 34.941 8 C 35.523 8, 36 7.550, 36 7 C 36 6.450, 35.802 6, 35.559 6 C 35.316 6, 34.840 6.450, 34.500 7 M 22.820 11.495 C 21.937 13.434, 21.916 14.916, 22.737 17.299 C 23.343 19.060, 24.133 22.371, 24.492 24.658 C 25.106 28.571, 27.394 33.095, 28.205 31.998 C 33.711 24.553, 35.842 18.987, 35.956 11.750 C 36.005 8.678, 34.887 8.256, 32.643 10.500 C 30.732 12.411, 29.011 12.397, 26.226 10.446 C 24.132 8.979, 23.940 9.038, 22.820 11.495 M 164 55.059 C 164 55.641, 164.450 55.840, 165 55.500 C 165.550 55.160, 166 54.684, 166 54.441 C 166 54.198, 165.550 54, 165 54 C 164.450 54, 164 54.477, 164 55.059 M 159.638 58.500 C 159.288 59.414, 159.637 60, 160.531 60 C 161.339 60, 162 59.325, 162 58.500 C 162 57.675, 161.598 57, 161.107 57 C 160.616 57, 159.955 57.675, 159.638 58.500 M 163.079 61.583 C 163.127 62.748, 163.364 62.985, 163.683 62.188 C 163.972 61.466, 163.936 60.603, 163.604 60.271 C 163.272 59.939, 163.036 60.529, 163.079 61.583 M 119 82.411 C 119 85.021, 119.491 92.633, 120.090 99.328 C 121.245 112.217, 122.986 117.342, 123.019 107.950 C 123.030 104.953, 123.619 100.262, 124.328 97.528 C 125.531 92.886, 125.442 92.105, 122.983 85.785 C 119.610 77.116, 119 76.600, 119 82.411 M 68.798 85.453 C 67.118 87.719, 62 89.532, 62 87.861 C 62 86.190, 60.127 87.025, 59.509 88.972 C 59.118 90.204, 59.844 92.584, 61.441 95.310 C 62.849 97.711, 64.006 101.211, 64.014 103.088 C 64.034 108.255, 65.065 111.135, 66.772 110.798 C 67.605 110.634, 68.628 109.825, 69.047 109 C 70.223 106.683, 72.182 84.779, 71.290 83.919 C 70.856 83.500, 69.734 84.190, 68.798 85.453" stroke="none" fill="black" fill-rule="evenodd"/>
</svg>