<svg xmlns="http://www.w3.org/2000/svg" width="192" height="144" viewBox="0 0 192 144" version="1.1">
	<path d="M 0 72 L 0 144 15.509 144 L 31.017 144 28.068 138.750 C 23.803 131.156, 20.212 119.292, 17.852 105 C 16.122 94.522, 15.865 89.547, 16.259 74.250 C 16.613 60.536, 16.434 56, 15.540 56 C 13.671 56, 10 51.587, 10 49.341 C 10 47.185, 11.996 45.036, 15.857 43.036 C 19.092 41.360, 21.009 43.154, 19.156 46.122 C 18.444 47.262, 18.037 48.370, 18.251 48.584 C 18.465 48.798, 25.134 49.508, 33.070 50.162 L 47.500 51.350 56.245 48.559 C 64.460 45.937, 65.792 45.797, 78.245 46.244 C 86.141 46.527, 94.371 47.447, 98.603 48.518 C 105.523 50.270, 105.772 50.267, 108.311 48.408 C 111.149 46.330, 113 42.231, 113 38.025 C 113 34.653, 115.976 31.841, 123 28.576 C 130.256 25.204, 134.912 25.209, 138.076 28.594 C 140.316 30.992, 140.937 31.140, 146.262 30.543 C 151.131 29.998, 152.124 30.161, 152.674 31.594 C 153.302 33.230, 152.868 33.738, 147.596 37.533 C 145.761 38.854, 145.754 39.068, 147.409 43.400 C 149.340 48.458, 148.729 50.637, 144.626 53.326 C 142.977 54.406, 142.335 55.565, 142.672 56.854 C 142.948 57.910, 142.685 59.077, 142.087 59.446 C 139.813 60.852, 141.206 63.617, 145.768 66.748 C 148.371 68.534, 153.823 72.697, 157.884 75.998 C 162.122 79.443, 166.244 82, 167.561 82 C 169.898 82, 174 86.185, 174 88.569 C 174 89.283, 176.279 92.708, 179.065 96.179 C 181.851 99.651, 185.920 105.732, 188.107 109.693 C 191.947 116.649, 192.073 117.175, 191.791 125.059 L 191.500 133.222 187.572 123.929 C 183.368 113.981, 176.085 102.328, 171.112 97.591 C 167.894 94.525, 168.125 94.427, 166.512 99.551 C 166.243 100.404, 164.078 101.963, 161.700 103.015 C 159.321 104.067, 156.546 105.844, 155.533 106.964 C 153.341 109.386, 147.823 109.696, 146 107.500 C 144.155 105.276, 143.391 105.644, 142.363 109.250 C 141.649 111.754, 140.812 112.573, 138.718 112.816 C 135.382 113.205, 135.333 114.164, 138 127 C 139.086 132.225, 139.980 138.195, 139.987 140.267 L 140 144.033 166.250 143.767 L 192.500 143.500 192.757 71.750 L 193.013 0 96.507 0 L 0 0 0 72 M 0.474 72.500 C 0.474 112.100, 0.598 128.154, 0.750 108.176 C 0.901 88.198, 0.901 55.798, 0.750 36.176 C 0.598 16.554, 0.474 32.900, 0.474 72.500 M 65 52.951 C 63.075 53.348, 59.025 54.896, 56 56.392 C 52.975 57.888, 48.382 59.372, 45.793 59.690 L 41.086 60.268 40.082 65.384 C 39.530 68.198, 38.794 79.050, 38.445 89.500 C 37.744 110.562, 38.960 122.379, 43.233 136 L 45.585 143.500 74.177 143.765 L 102.768 144.030 103.425 139.652 C 103.795 137.186, 106.302 131.402, 109.167 126.405 C 114.739 116.687, 114.721 116.775, 115.411 96.250 C 115.814 84.270, 115.660 82, 114.445 82 C 112.720 82, 112.542 78.334, 114.072 74.315 C 114.964 71.972, 114.853 71.332, 113.408 70.500 C 109.300 68.134, 106.033 64.315, 105.709 61.500 C 105.405 58.859, 104.713 58.278, 99.932 56.641 C 89.377 53.030, 73.011 51.301, 65 52.951 M 150.581 81.351 C 150.888 82.151, 150.166 84.715, 148.975 87.048 C 147.135 90.655, 146.992 91.680, 148.021 93.895 C 149.154 96.337, 149.301 96.384, 150.365 94.642 C 153.108 90.151, 155.280 88, 157.073 88 C 159.912 88, 159.426 86.417, 155.750 83.698 C 150.907 80.117, 149.939 79.677, 150.581 81.351" stroke="none" fill="black" fill-rule="evenodd"/>
</svg>