<svg xmlns="http://www.w3.org/2000/svg" width="192" height="144" viewBox="0 0 192 144" version="1.1">
	<path d="M -0 72.005 L -0 144.010 96.250 143.755 L 192.500 143.500 192.757 71.750 L 193.013 0 96.507 0 L 0 0 -0 72.005 M 0.474 72.500 C 0.474 112.100, 0.598 128.154, 0.750 108.176 C 0.901 88.198, 0.901 55.798, 0.750 36.176 C 0.598 16.554, 0.474 32.900, 0.474 72.500 M 75 29.707 C 69.424 31.625, 64.351 35.320, 63.467 38.104 C 62.807 40.182, 64.722 49, 65.832 49 C 66.147 49, 67.853 47.596, 69.623 45.881 L 72.842 42.761 72.298 46.817 C 71.665 51.534, 72.667 58, 74.031 58 C 74.548 58, 75.483 55.967, 76.109 53.483 C 77.324 48.654, 79 46.575, 79 49.894 C 79 52.299, 81.020 57, 82.054 57 C 83.129 57, 84 54.256, 84 50.869 C 84 47.817, 86.486 41.988, 87.776 42.015 C 89.648 42.054, 96.731 44.659, 98.611 46 C 100.240 47.161, 100.691 48.493, 100.607 51.899 C 100.467 57.651, 102.341 58.212, 104.906 53.185 C 106.684 49.699, 107.449 49.160, 111.472 48.557 C 115.616 47.935, 116.703 48.261, 123.576 52.187 C 137.430 60.100, 138.466 60.714, 145 64.880 C 156.288 72.077, 159.674 73.322, 169.206 73.778 C 173.994 74.008, 181.081 73.661, 184.956 73.007 L 192 71.819 192 53.454 L 192 35.089 185.055 38.045 C 181.235 39.670, 177.331 41, 176.380 41 C 175.429 41, 171.467 39.915, 167.575 38.589 C 163.684 37.263, 154.650 35.441, 147.500 34.539 C 140.350 33.637, 129.695 31.797, 123.822 30.450 C 114.641 28.343, 110.786 28.011, 96.322 28.079 C 83.909 28.137, 78.321 28.564, 75 29.707 M 79.853 99.063 C 79.497 99.923, 79.437 101.836, 79.720 103.313 C 80.002 104.791, 79.817 106, 79.308 106 C 78.799 106, 77.610 106.565, 76.665 107.256 C 75.051 108.436, 75.076 108.900, 77.070 114.976 C 78.238 118.532, 80.603 123.405, 82.327 125.805 C 84.526 128.868, 85.615 131.709, 85.980 135.335 L 86.500 140.500 90 140.155 C 93.790 139.782, 101.904 135.194, 101.963 133.390 C 101.984 132.779, 100.437 130.623, 98.528 128.598 C 95.035 124.895, 94.132 122.543, 91.961 111.500 C 90.156 102.314, 90.543 102.796, 85.578 103.541 L 81.142 104.206 80.821 100.853 C 80.614 98.690, 80.270 98.055, 79.853 99.063" stroke="none" fill="black" fill-rule="evenodd"/>
</svg>