<svg xmlns="http://www.w3.org/2000/svg" width="192" height="144" viewBox="0 0 192 144" version="1.1">
	<path d="M 153.282 4.714 C 153.002 10.781, 154.888 13, 160.326 13 C 162.736 13, 165.110 13.695, 166.262 14.737 C 168.087 16.389, 168.248 16.381, 169.578 14.563 C 170.346 13.512, 171.257 11.145, 171.603 9.302 C 172.342 5.365, 175.054 3.184, 180.250 2.348 C 188.373 1.041, 183.262 0, 168.750 0.007 L 153.500 0.014 153.282 4.714 M 186.240 9.750 C 186.520 15.113, 186.917 20.138, 187.124 20.917 C 187.514 22.387, 190.624 26, 191.500 26 C 191.775 26, 192 20.150, 192 13 L 192 0 188.866 0 L 185.733 0 186.240 9.750" stroke="none" fill="black" fill-rule="evenodd"/>
</svg>