<svg xmlns="http://www.w3.org/2000/svg" width="192" height="144" viewBox="0 0 192 144" version="1.1">
	<path d="M 94 2.191 C 94 4.330, 94.034 4.336, 95.433 2.441 C 96.520 0.968, 97.148 0.779, 98.039 1.656 C 98.932 2.536, 98.108 3.301, 94.594 4.855 C 92.054 5.979, 89.719 7.708, 89.403 8.699 C 87.608 14.341, 85.326 18.344, 82.930 20.050 C 79.050 22.813, 79.871 28.032, 85.077 33.691 C 87.197 35.996, 89.207 39.146, 89.544 40.691 C 89.880 42.236, 90.508 44.400, 90.939 45.500 C 93.846 52.918, 94.104 54.898, 92.557 57.890 C 91.525 59.885, 91.292 61.616, 91.852 63.129 C 92.372 64.534, 92.175 67.091, 91.331 69.897 C 90.584 72.377, 89.513 78.477, 88.949 83.453 C 87.985 91.963, 87.698 92.737, 84.116 96.500 C 82.022 98.700, 79.299 102.191, 78.067 104.258 C 76.835 106.326, 74.065 109.796, 71.913 111.969 C 69.761 114.143, 68 116.817, 68 117.910 C 68 121.461, 77.879 126.940, 91.635 131.018 C 95.751 132.238, 95.772 132.271, 96.434 138.122 L 97.099 144 107.609 144 C 114.360 144, 117.897 143.642, 117.500 143 C 117.160 142.450, 116.282 142, 115.548 142 C 113.993 142, 112.704 139.301, 113.904 138.559 C 114.353 138.282, 115.051 138.380, 115.455 138.777 C 115.858 139.175, 118.733 139.500, 121.844 139.500 C 127.149 139.500, 127.733 139.252, 131.261 135.500 C 133.329 133.300, 136.682 128.216, 138.712 124.202 C 142.144 117.416, 142.311 116.680, 141.103 113.702 C 140.388 111.941, 138.823 107.800, 137.624 104.500 C 135.098 97.545, 130.485 88.418, 129.046 87.529 C 128.501 87.191, 127.595 85.247, 127.034 83.208 C 126.473 81.169, 123.696 76.423, 120.862 72.663 L 115.710 65.825 116.440 56.163 C 117.392 43.563, 117.191 38.942, 115.583 36.508 C 114.438 34.775, 114.591 34.092, 116.762 31.245 C 118.751 28.638, 119.138 27.241, 118.671 24.363 C 118.200 21.456, 118.499 20.417, 120.202 19.038 C 122.616 17.083, 121.899 15, 118.812 15 C 117.674 15, 114.953 13.384, 112.767 11.408 C 109.272 8.251, 108.364 7.897, 105.261 8.479 C 102.059 9.080, 101.779 8.952, 102.262 7.106 C 102.953 4.462, 99.159 0, 96.218 0 C 94.602 0, 94 0.595, 94 2.191 M 100 60.441 C 100 62.398, 100.450 64, 101 64 C 101.550 64, 102 62.677, 102 61.059 C 102 59.441, 101.550 57.840, 101 57.500 C 100.405 57.132, 100 58.323, 100 60.441" stroke="none" fill="black" fill-rule="evenodd"/>
</svg>