<svg xmlns="http://www.w3.org/2000/svg" width="192" height="144" viewBox="0 0 192 144" version="1.1">
	<path d="M 127.904 5.104 C 123.833 9.509, 123.019 11.118, 121.960 16.854 C 120.946 22.346, 120.126 24.064, 117.240 26.750 C 115.320 28.538, 113.236 30, 112.609 30 C 111.983 30, 109.902 30.832, 107.985 31.849 C 106.068 32.867, 103.864 33.480, 103.087 33.212 C 100.764 32.411, 99 36.045, 99 41.632 C 99 47.352, 99.715 48.249, 104.397 48.400 C 106.816 48.478, 107.570 48.996, 107.820 50.750 C 108.046 52.341, 108.815 53, 110.447 53 C 112.807 53, 114.570 54.555, 116.523 58.357 C 117.214 59.703, 118.427 60.413, 119.785 60.266 C 123.882 59.824, 124.500 63, 124.500 84.500 C 124.500 101.575, 124.243 105.012, 122.745 108 C 120.620 112.235, 113.837 116.469, 109 116.580 C 107.075 116.624, 103.700 116.942, 101.500 117.286 C 97.633 117.892, 97.354 117.739, 93.119 112.706 C 90.709 109.843, 86.659 105.250, 84.119 102.500 L 79.500 97.500 79.798 90.021 C 80.014 84.620, 79.600 81.286, 78.310 78.021 C 77.015 74.745, 76.536 70.856, 76.571 63.900 L 76.619 54.300 73.560 54.400 C 70.653 54.495, 70.488 54.725, 70.257 59 C 70.123 61.475, 69.753 65.863, 69.435 68.750 L 68.856 74.001 64.966 73.379 C 61.365 72.803, 60.779 73.067, 57.061 76.936 C 52.358 81.831, 49.999 88.089, 51.965 90.457 C 52.659 91.294, 53.568 91.767, 53.985 91.509 C 54.402 91.252, 56.444 95.097, 58.523 100.054 C 60.823 105.539, 63.716 110.521, 65.914 112.783 C 70.584 117.588, 82.957 131.653, 85.840 135.434 C 87.469 137.570, 87.910 139.135, 87.460 141.184 L 86.841 144 139.421 144 L 192 144 192 72 L 192 0 162.310 -0 L 132.621 -0 127.904 5.104 M 140.348 89.750 C 140.699 93.463, 140.989 97.737, 140.993 99.250 C 141.006 104.507, 143.576 102.170, 145.188 95.434 L 146.759 88.867 144.291 85.934 C 140.436 81.353, 139.629 82.134, 140.348 89.750" stroke="none" fill="black" fill-rule="evenodd"/>
</svg>