<svg xmlns="http://www.w3.org/2000/svg" width="192" height="144" viewBox="0 0 192 144" version="1.1">
	<path d="M 54.500 18.391 C 51.033 19.907, 44.491 26.291, 42.455 30.145 C 40.311 34.203, 39.648 40.403, 40.940 44.317 C 43.351 51.625, 55.127 59.189, 61.573 57.571 C 62.840 57.253, 64.157 57.444, 64.498 57.996 C 64.839 58.548, 64.671 59, 64.125 59 C 63.580 59, 60.835 60.428, 58.026 62.174 C 54.718 64.231, 53.110 65.844, 53.460 66.756 C 53.757 67.529, 53.325 69.126, 52.500 70.304 C 49.968 73.919, 50.865 77.735, 53.604 74.996 C 54.275 74.325, 55.242 74.457, 56.527 75.396 C 58.248 76.655, 58.303 77.066, 57.059 79.390 C 55.859 81.633, 55.878 82.217, 57.205 83.740 C 58.230 84.917, 58.923 88.533, 59.297 94.649 C 59.605 99.681, 60.447 104.744, 61.169 105.899 C 62.221 107.583, 62.235 108.394, 61.241 109.986 C 59.672 112.499, 59.632 118.232, 61.173 119.773 C 62.070 120.670, 62.070 121.551, 61.173 123.520 C 59.648 126.866, 59.678 131.512, 61.241 134.014 C 62.228 135.595, 62.228 136.405, 61.241 137.986 C 59.750 140.373, 59.605 144, 61 144 C 61.550 144, 62 143.325, 62 142.500 C 62 140.408, 64.753 140.616, 65.311 142.750 C 65.598 143.851, 65.811 143.502, 65.884 141.809 C 65.948 140.329, 65.550 138.840, 65 138.500 C 63.747 137.725, 63.685 133.313, 64.916 132.552 C 66.120 131.808, 65.589 125.415, 64.182 123.720 C 63.372 122.743, 63.466 121.655, 64.541 119.583 C 66.218 116.351, 66.468 111.407, 65 110.500 C 63.312 109.457, 63.858 105.177, 65.750 104.619 C 67.272 104.170, 76.231 103.661, 78.199 103.911 C 78.583 103.960, 78.246 105.561, 77.449 107.468 C 76.382 110.022, 76 115.294, 76 127.468 L 76 144 92 144 C 100.800 144, 108 143.640, 108 143.200 C 108 142.760, 107.524 141.924, 106.942 141.342 C 106.361 140.761, 105.628 137.799, 105.315 134.761 C 104.834 130.103, 105.173 128.318, 107.478 123.369 C 109.727 118.542, 110.341 117.847, 110.941 119.456 C 111.624 121.287, 111.733 121.299, 112.655 119.652 C 113.425 118.276, 114.114 119.961, 115.820 127.384 C 118.402 138.625, 118.512 140.410, 116.575 139.667 C 115.750 139.350, 114.479 140.146, 113.552 141.560 L 111.954 144 124.281 144 L 136.608 144 139.804 140.702 C 145.343 134.988, 144.085 128.666, 135.480 118.977 C 133.016 116.203, 131 113.306, 131 112.539 C 131 106.373, 134.648 87.669, 137.108 81.228 C 138.112 78.598, 138.200 78.569, 139.567 80.431 C 140.954 82.320, 141.046 82.309, 143.714 79.931 C 147.867 76.231, 148.805 74.972, 152.025 68.779 C 155.655 61.798, 155.921 56.759, 152.777 54.557 C 150.205 52.755, 145.742 52.532, 142.883 54.063 C 141.790 54.647, 139.918 54.985, 138.721 54.813 C 136.915 54.553, 137.853 53.441, 144.230 48.277 C 148.456 44.854, 152.186 42.491, 152.516 43.027 C 153.408 44.469, 156.629 44.214, 162.116 42.265 C 167.494 40.355, 168.152 38.923, 164.750 36.532 L 162.500 34.951 164.750 34.359 C 167.367 33.670, 167.690 32.202, 165.417 31.330 C 164.193 30.860, 165.266 29.277, 170.138 24.361 C 174.355 20.106, 175.871 18, 174.716 18 C 173.767 18, 166.738 22.246, 159.096 27.435 C 147.831 35.084, 137.919 41.025, 131.750 43.826 C 131.338 44.013, 131 43.440, 131 42.552 C 131 39.929, 128.161 39.579, 126.230 41.965 C 124.586 43.995, 124.138 44.064, 119.745 42.957 C 114.034 41.519, 107.026 42.405, 103.754 44.979 C 100.826 47.282, 97.929 55.143, 99.781 55.760 C 101.781 56.427, 101.161 59, 99 59 C 97.325 59, 97 58.333, 97 54.901 C 97 47.232, 91.383 40.014, 85.405 40.004 C 82.790 39.999, 80 37.023, 80 34.236 C 80 23.113, 65.005 13.795, 54.500 18.391 M 69.340 70.909 C 68.176 73.995, 68.618 78.646, 70.168 79.604 C 70.716 79.942, 70.634 80.736, 69.970 81.536 C 69.231 82.427, 69.084 84.826, 69.544 88.507 C 70.096 92.920, 70.566 93.997, 71.745 93.544 C 72.570 93.228, 77.303 92.312, 82.263 91.510 C 87.223 90.708, 91.517 89.817, 91.804 89.530 C 92.091 89.243, 93.566 86.068, 95.082 82.474 L 97.839 75.940 95.394 74.338 C 93.703 73.231, 93.132 72.159, 93.543 70.863 C 94.402 68.159, 91.630 67.473, 87.591 69.390 C 83.351 71.402, 78.984 71.438, 74.346 69.500 C 72.371 68.675, 70.684 68, 70.597 68 C 70.510 68, 69.944 69.309, 69.340 70.909 M 61 114.500 C 61 116.056, 61.567 117, 62.500 117 C 63.433 117, 64 116.056, 64 114.500 C 64 112.944, 63.433 112, 62.500 112 C 61.567 112, 61 112.944, 61 114.500 M 62.250 126.662 C 60.482 127.376, 60.691 131, 62.500 131 C 63.433 131, 64 130.056, 64 128.500 C 64 127.125, 63.888 126.036, 63.750 126.079 C 63.612 126.122, 62.938 126.385, 62.250 126.662" stroke="none" fill="black" fill-rule="evenodd"/>
</svg>