<svg xmlns="http://www.w3.org/2000/svg" width="192" height="144" viewBox="0 0 192 144" version="1.1">
	<path d="M 0 57 L 0 114 4 114 L 8 114 8 107.934 C 8 100.816, 9.018 98.463, 12.474 97.596 C 14.551 97.075, 15 96.362, 15 93.588 C 15 91.511, 15.577 89.993, 16.500 89.638 C 17.325 89.322, 18 88.149, 18 87.031 C 18 85.914, 18.450 85, 19 85 C 19.550 85, 20 86.088, 20 87.417 C 20 88.746, 20.563 90.023, 21.250 90.254 C 21.938 90.486, 22.500 91.968, 22.500 93.548 C 22.500 95.575, 23.203 96.775, 24.885 97.620 C 27.981 99.176, 28.962 100.816, 29.002 104.500 L 29.034 107.500 31.115 104.250 C 32.260 102.463, 33.361 101, 33.563 101 C 34.402 101, 36.411 105.746, 36.949 109 L 37.529 112.500 50.822 113.110 C 62.901 113.664, 64.252 113.915, 65.614 115.860 C 68.139 119.464, 69 118.294, 69.007 111.250 C 69.011 106.346, 69.524 103.725, 70.880 101.668 L 72.747 98.836 74.821 101.749 C 76.804 104.534, 76.868 105.518, 76.292 124.330 L 75.688 144 133.684 144 L 191.681 144 192.338 120.750 C 192.700 107.963, 192.996 75.563, 192.998 48.750 L 193 0 96.500 0 L 0 0 0 57 M 0.468 57.500 C 0.468 88.850, 0.595 101.530, 0.750 85.679 C 0.904 69.827, 0.904 44.177, 0.749 28.679 C 0.594 13.180, 0.468 26.150, 0.468 57.500 M 123.727 36.250 C 122.420 37.487, 121.042 39.339, 120.663 40.363 C 120.192 41.641, 119.332 42.059, 117.931 41.692 C 116.310 41.268, 116.116 41.435, 116.995 42.495 C 117.850 43.524, 117.633 43.982, 116.053 44.483 C 113.212 45.385, 113.476 47, 116.465 47 C 119.757 47, 121.323 50.131, 120.491 55.053 C 120.037 57.741, 120.325 59.945, 121.416 62.132 C 122.287 63.878, 123 66.296, 123 67.505 C 123 70.619, 117.644 75.981, 115.177 75.336 C 114.104 75.055, 112.924 75.314, 112.555 75.911 C 111.772 77.178, 114.364 81.302, 115.334 80.333 C 115.693 79.973, 116.778 80.358, 117.744 81.187 C 118.710 82.017, 120.294 82.978, 121.265 83.322 C 122.236 83.667, 123.462 85.085, 123.990 86.474 C 125.350 90.051, 126.499 89.615, 127.882 85 C 128.541 82.800, 129.457 81, 129.918 81 C 131.346 81, 132.960 83.549, 133.619 86.845 C 134.354 90.522, 137.844 91.313, 138.710 88 C 138.998 86.900, 139.385 86, 139.570 86 C 140.755 86, 145 88.471, 145 89.161 C 145 89.622, 145.450 90, 146 90 C 146.550 90, 147 89.084, 147 87.965 C 147 86.237, 147.303 86.092, 149.007 87.004 C 150.655 87.886, 151.470 87.621, 153.571 85.520 C 154.978 84.113, 156.550 83.222, 157.065 83.540 C 158.177 84.228, 158.326 82.659, 157.250 81.584 C 156.098 80.432, 156.222 75.602, 157.427 74.674 C 158.172 74.101, 158.116 73.692, 157.244 73.338 C 156.553 73.058, 156.223 72.448, 156.511 71.982 C 156.800 71.515, 155.677 70.332, 154.018 69.351 C 152.358 68.371, 151 66.952, 151 66.199 C 151 65.145, 149.499 64.907, 144.498 65.165 C 140.922 65.349, 137.997 65.439, 137.998 65.364 C 137.999 65.290, 138.672 63.940, 139.494 62.364 C 141.977 57.604, 141.515 56.758, 137.378 58.487 C 135.386 59.319, 133.586 60, 133.378 60 C 132.450 60, 133.124 55.719, 134.250 54.463 C 137.393 50.959, 138.500 49.498, 138.500 48.858 C 138.500 48.478, 138.838 47.829, 139.250 47.417 C 140.715 45.951, 139.952 45.214, 136.252 44.520 C 132.050 43.731, 131.038 42.654, 131.015 38.950 C 130.985 33.923, 127.534 32.645, 123.727 36.250" stroke="none" fill="black" fill-rule="evenodd"/>
</svg>