<svg xmlns="http://www.w3.org/2000/svg" width="192" height="144" viewBox="0 0 192 144" version="1.1">
	<path d="M -0 72.005 L -0 144.010 96.250 143.755 L 192.500 143.500 192.757 71.750 L 193.013 0 147.148 0 L 101.282 0 100.766 8.264 C 100.278 16.097, 97.392 28, 95.981 28 C 94.693 28, 91.733 15.351, 91.243 7.750 L 90.743 0 45.372 0 L 0 0 -0 72.005 M 0.474 72.500 C 0.474 112.100, 0.598 128.154, 0.750 108.176 C 0.901 88.198, 0.901 55.798, 0.750 36.176 C 0.598 16.554, 0.474 32.900, 0.474 72.500 M 99.027 37.798 C 99.012 39.062, 97.849 41.162, 96.442 42.466 C 95.035 43.770, 93.449 46.412, 92.917 48.338 C 92.210 50.900, 90.818 52.505, 87.725 54.324 C 81.398 58.046, 76.665 64.057, 78.950 65.469 C 79.424 65.762, 79.582 66.881, 79.301 67.955 C 78.850 69.682, 79.186 69.844, 82.211 69.353 C 86.541 68.651, 93.299 71.899, 91.972 74.045 C 91.465 74.866, 91.557 75.967, 92.200 76.741 C 92.797 77.460, 93 78.334, 92.651 78.682 C 92.303 79.031, 92.504 79.902, 93.099 80.619 C 93.862 81.538, 93.873 82.893, 93.139 85.211 C 92.566 87.020, 91.603 91.425, 90.998 95 C 90.393 98.575, 88.782 104.471, 87.418 108.103 C 84.352 116.264, 85.133 120, 89.904 120 C 92.625 120, 96 122.143, 96 123.871 C 96 124.272, 95.460 125.140, 94.800 125.800 C 92.887 127.713, 95.226 129.178, 99.618 128.818 C 103.133 128.530, 103.472 128.257, 103.201 125.924 C 102.954 123.791, 103.556 123.050, 106.701 121.614 C 116.225 117.268, 117.503 113.097, 112.194 103.690 C 110.542 100.763, 108.627 96.486, 107.938 94.187 C 106.830 90.490, 106.891 89.778, 108.466 88.038 C 109.729 86.642, 110.053 85.261, 109.581 83.285 C 106.649 71.022, 106.646 69, 109.561 69 C 110.454 69, 112.317 68.109, 113.702 67.020 C 115.086 65.931, 118.396 64.751, 121.056 64.398 C 124.979 63.878, 125.950 63.355, 126.196 61.628 C 126.385 60.303, 127.349 59.379, 128.750 59.180 C 131.861 58.739, 131.579 57.580, 127.434 53.774 C 123.818 50.453, 118.543 48.217, 114 48.077 C 112.399 48.028, 110.496 46.742, 108.707 44.500 C 107.171 42.575, 105.138 41, 104.189 41 C 103.240 41, 101.696 39.763, 100.758 38.250 C 99.107 35.587, 99.052 35.572, 99.027 37.798 M 99 123.500 C 99 124.325, 99.436 125, 99.969 125 C 100.501 125, 100.678 124.325, 100.362 123.500 C 100.045 122.675, 99.609 122, 99.393 122 C 99.177 122, 99 122.675, 99 123.500" stroke="none" fill="black" fill-rule="evenodd"/>
</svg>