<svg xmlns="http://www.w3.org/2000/svg" width="192" height="144" viewBox="0 0 192 144" version="1.1">
	<path d="M 47.672 2.750 C 49.413 14.870, 51.182 18.019, 55.351 16.419 C 58.200 15.326, 58.336 18.693, 55.588 22.295 C 52.338 26.557, 52.313 28.730, 55.500 30.182 C 57.922 31.285, 58.001 31.638, 58.044 41.411 C 58.071 47.557, 58.650 53.063, 59.526 55.500 C 60.835 59.140, 60.809 59.608, 59.232 60.704 C 54.218 64.190, 53 66.389, 52.986 71.979 C 52.966 80.069, 52.265 81.757, 48.395 83.035 C 44.422 84.346, 44.389 84.485, 47.008 88.781 C 48.834 91.777, 48.912 92.686, 47.898 99.222 C 46.998 105.023, 45.385 109.001, 39.393 120.199 C 35.327 127.799, 32 134.633, 32 135.386 C 32 136.139, 32.711 137.345, 33.580 138.067 C 34.502 138.832, 34.977 140.341, 34.719 141.689 L 34.277 144 82.620 144 L 130.962 144 131.583 141.524 C 131.925 140.163, 131.519 137.036, 130.680 134.575 C 129.492 131.088, 129.393 129.330, 130.230 126.601 C 131.164 123.559, 130.939 122.275, 128.515 116.800 C 117.484 91.894, 115.889 87.539, 116.947 85.216 C 119.272 80.115, 117.652 76, 113.319 76 C 111.648 76, 110.873 75.265, 110.419 73.250 C 108.535 64.885, 107.710 62.917, 105.290 61.013 C 102.715 58.988, 102.631 58.596, 102.720 49.048 C 102.801 40.322, 103.113 38.664, 105.406 34.751 C 107.070 31.911, 108 28.837, 108 26.174 C 108 22.466, 108.240 22.049, 110.250 22.262 C 112.072 22.455, 113.017 21.453, 115.217 17 C 117.544 12.290, 121 2.487, 121 0.596 C 121 0.268, 104.412 -0, 84.139 -0 L 47.277 -0 47.672 2.750" stroke="none" fill="black" fill-rule="evenodd"/>
</svg>