<svg xmlns="http://www.w3.org/2000/svg" width="192" height="144" viewBox="0 0 192 144" version="1.1">
	<path d="M 93.281 40.435 C 84.561 42.548, 80.249 46.454, 77.117 55.077 C 75.840 58.592, 65.472 61.528, 57.975 60.497 C 53.404 59.868, 52.812 60.003, 52.348 61.779 C 52.050 62.916, 50.155 64.421, 47.914 65.302 C 41.199 67.939, 41.645 71.415, 49.706 79.259 C 53.871 83.312, 54.038 83.699, 53.479 88 C 53.039 91.382, 53.559 94.487, 55.571 100.500 C 59.745 112.978, 62.597 117.476, 65.602 116.323 C 67.419 115.625, 66.149 132.363, 63.880 139 L 62 144.500 65.951 140.500 C 68.124 138.300, 69.924 135.938, 69.951 135.250 C 69.978 134.563, 70.450 134, 71 134 C 71.550 134, 72 136.231, 72 138.958 L 72 143.916 111.436 143.977 L 150.872 144.038 151.557 139.471 C 151.933 136.959, 151.945 129.608, 151.583 123.136 C 151.185 116.030, 151.361 108.554, 152.027 104.262 C 152.864 98.868, 152.834 95.750, 151.901 91.327 C 151.225 88.122, 150.803 83.925, 150.962 82 C 151.122 80.075, 151.305 75.125, 151.371 71 C 151.480 64.113, 151.232 63.132, 148.342 59 C 141.765 49.597, 135.032 44.379, 125.199 41.067 C 118.028 38.651, 101.954 38.333, 93.281 40.435" stroke="none" fill="black" fill-rule="evenodd"/>
</svg>