<svg xmlns="http://www.w3.org/2000/svg" width="192" height="144" viewBox="0 0 192 144" version="1.1">
	<path d="M 76.376 2.137 L 70.252 4.098 70.162 8.556 C 70.090 12.140, 70.651 13.672, 73.022 16.372 C 75.125 18.767, 76.405 21.797, 77.485 26.931 C 78.318 30.891, 79 34.315, 79 34.540 C 79 34.766, 77.655 34.681, 76.012 34.352 C 72.560 33.662, 68.498 35.857, 67.519 38.941 C 66.514 42.106, 71.826 56.840, 74.634 58.680 L 77.015 60.240 74.902 63.658 C 73.055 66.647, 72.945 67.454, 74.032 70.077 C 74.715 71.727, 76.052 73.493, 77.004 74.002 C 77.992 74.531, 79.014 76.686, 79.389 79.034 C 80.074 83.312, 82.563 88, 84.150 88 C 84.657 88, 84.585 87.093, 83.989 85.979 C 83.394 84.868, 83.224 83.446, 83.611 82.820 C 83.999 82.193, 84.248 79.973, 84.167 77.885 C 84.068 75.367, 84.543 73.796, 85.578 73.216 C 87.466 72.159, 88.289 63.436, 86.735 60.948 C 85.923 59.647, 86.236 58.359, 88.088 55.378 C 89.671 52.831, 90.714 49.270, 91.127 45 C 91.837 37.664, 97.178 23.953, 101.178 19.201 C 104.784 14.915, 105.829 6.590, 103.204 3.067 C 101.405 0.653, 100.729 0.490, 91.895 0.338 C 84.956 0.219, 80.899 0.689, 76.376 2.137" stroke="none" fill="black" fill-rule="evenodd"/>
</svg>