<svg xmlns="http://www.w3.org/2000/svg" width="192" height="144" viewBox="0 0 192 144" version="1.1">
	<path d="M -0 34.545 L -0 69.091 3.750 68.447 C 13.240 66.818, 24.058 63.673, 31.439 60.396 C 46.262 53.816, 43.686 53.564, 53.622 62.559 C 58.446 66.927, 65.792 74.053, 69.947 78.396 C 77.993 86.809, 82.403 89.396, 90.500 90.459 L 95.500 91.116 97.226 86.241 C 99.765 79.071, 104.165 73.582, 109.410 71.044 C 114.761 68.453, 115.155 66.795, 111 64.341 C 109.350 63.366, 108 62.168, 108 61.677 C 108 61.187, 107.325 61.045, 106.500 61.362 C 105.475 61.755, 105 61.304, 105 59.937 C 105 58.837, 104.344 57.686, 103.543 57.378 C 102.525 56.987, 102.261 55.943, 102.668 53.910 C 103.221 51.144, 103.078 51, 99.780 51 C 96.415 51, 93 48.622, 93 46.278 C 93 44.596, 90.047 43.904, 87.861 45.075 C 86.341 45.888, 85.286 45.762, 83.433 44.548 C 80.327 42.513, 80.374 41.804, 83.750 39.793 C 85.263 38.891, 87.958 36.640, 89.741 34.789 C 92.625 31.794, 92.882 31.074, 92.073 28.255 C 91.006 24.535, 91.702 21, 93.502 21 C 94.199 21, 95.553 19.762, 96.510 18.250 C 98.767 14.684, 101.455 12.468, 107 9.606 C 113.005 6.507, 118.509 5.782, 125.617 7.156 C 128.853 7.781, 132.269 8.256, 133.209 8.211 C 135.728 8.092, 144.763 18.477, 146.140 23.074 C 147.018 26.005, 147.048 28.265, 146.252 31.740 C 144.977 37.312, 146.185 40.434, 151.102 44.283 C 153.610 46.245, 154.045 47.096, 153.260 48.499 C 152.597 49.684, 152.049 49.889, 151.579 49.128 C 149.683 46.060, 145.315 49.053, 146.643 52.511 C 147.065 53.613, 146.765 53.847, 145.536 53.376 C 144.272 52.890, 143.931 53.201, 144.175 54.614 C 144.404 55.945, 143.985 56.414, 142.750 56.206 C 141.447 55.987, 141 56.594, 141 58.579 C 141 60.893, 140.792 61.072, 139.424 59.937 C 137.839 58.622, 136.795 59.336, 135.680 62.500 C 135.465 63.110, 134.288 62.946, 132.665 62.082 C 130.109 60.720, 127.391 61.374, 129.663 62.804 C 130.271 63.187, 130.933 64.341, 131.134 65.369 C 131.361 66.526, 133.213 67.858, 136 68.869 C 140.140 70.370, 140.780 71.088, 144 77.860 L 147.500 85.220 155 84.526 C 159.125 84.144, 165.875 83.688, 170 83.512 C 178.900 83.133, 182.002 82.059, 187.718 77.375 L 192 73.866 192 77.433 C 192 79.395, 191.550 81, 191 81 C 190.450 81, 190 81.675, 190 82.500 C 190 83.325, 190.450 84, 191 84 C 191.622 84, 192 89.667, 192 99 C 192 110.350, 191.696 113.993, 190.750 113.969 C 189.709 113.944, 182.198 93.605, 182.640 92.007 C 182.718 91.728, 183.090 90.042, 183.468 88.260 C 184.152 85.034, 184.140 85.022, 180.827 85.658 C 178.997 86.010, 176.492 86.668, 175.261 87.120 L 173.021 87.942 175.511 91.611 C 176.880 93.628, 178.003 95.779, 178.006 96.390 C 178.023 99.823, 174.603 119, 173.972 119 C 173.560 119, 171.553 114.456, 169.513 108.903 C 165.912 99.099, 165.481 95.298, 167.455 90.750 C 168.134 89.184, 167.525 89, 161.666 89 C 158.065 89, 154.850 89.434, 154.522 89.965 C 154.194 90.496, 155.021 92.633, 156.359 94.715 L 158.793 98.500 157.093 110 C 156.157 116.325, 155.017 121.500, 154.559 121.500 C 154.101 121.500, 152.325 117.450, 150.613 112.500 C 146.844 101.603, 146.186 103.421, 148.032 119.639 C 148.750 125.955, 149.005 133.648, 148.620 137.408 L 147.940 144.038 170.220 143.769 L 192.500 143.500 192.732 71.750 L 192.964 0 96.482 0 L 0 0 -0 34.545 M 0.450 35 C 0.450 53.975, 0.584 61.737, 0.748 52.250 C 0.913 42.762, 0.913 27.237, 0.748 17.750 C 0.584 8.262, 0.450 16.025, 0.450 35 M 39.750 63.098 C 37.688 64.170, 36 65.483, 36 66.015 C 36 66.547, 37.575 69.046, 39.500 71.568 L 43 76.153 43 89.577 C 43 96.959, 42.663 102.988, 42.250 102.974 C 41.837 102.960, 38.681 97.792, 35.236 91.491 C 29.490 80.981, 29.025 79.680, 29.622 75.767 C 29.980 73.420, 30.717 70.938, 31.259 70.250 C 31.801 69.563, 31.852 68.997, 31.372 68.993 C 29.391 68.978, 13.004 74.559, 13.002 75.250 C 13.001 75.662, 13.389 76, 13.864 76 C 14.339 76, 15.866 77.688, 17.256 79.750 C 19.490 83.064, 19.861 84.925, 20.452 95.750 C 20.820 102.487, 20.756 107.984, 20.310 107.964 C 19.865 107.944, 16.191 103.038, 12.147 97.062 C 5.434 87.141, 4.842 85.861, 5.333 82.347 C 5.629 80.231, 6.156 77.757, 6.504 76.850 C 7.297 74.783, 5.993 73.927, 3.174 74.665 L 1 75.233 1 109.627 L 1 144.020 47.241 143.760 L 93.482 143.500 94.331 138.160 C 95.086 133.420, 94.840 131.959, 92.148 125.160 C 84.506 105.865, 84.635 106.413, 86.439 100.897 C 87.335 98.159, 87.808 95.499, 87.492 94.987 C 86.718 93.734, 79.151 91.516, 78.358 92.309 C 78.012 92.655, 78.445 94.030, 79.320 95.366 C 80.689 97.454, 80.780 99.379, 79.972 109.147 C 79.455 115.391, 79.025 121.550, 79.016 122.833 C 78.990 126.538, 76.901 124.856, 74.821 119.455 C 73.771 116.730, 72.299 113.150, 71.551 111.500 C 66.490 100.340, 66.017 97.409, 68.506 92.636 C 69.328 91.060, 70 88.886, 70 87.804 C 70 85.756, 63.095 76.572, 62.216 77.450 C 61.941 77.726, 62.243 78.588, 62.888 79.366 C 64.164 80.903, 63.321 108, 61.998 108 C 61.614 108, 58.716 102.538, 55.557 95.861 C 50.417 84.997, 49.883 83.267, 50.465 79.385 C 50.823 76.999, 51.540 74.785, 52.058 74.464 C 54.098 73.203, 52.788 70.217, 48.250 65.787 L 43.500 61.148 39.750 63.098 M 146 91.500 C 146 92.325, 146.402 93, 146.893 93 C 147.384 93, 148.045 92.325, 148.362 91.500 C 148.712 90.586, 148.363 90, 147.469 90 C 146.661 90, 146 90.675, 146 91.500 M 95 96.941 C 95 98.617, 96.774 99.033, 97.364 97.494 C 97.712 96.587, 97.361 96, 96.469 96 C 95.661 96, 95 96.423, 95 96.941 M 97 100.941 C 97 101.459, 97.450 102.160, 98 102.500 C 98.550 102.840, 99 102.416, 99 101.559 C 99 100.702, 98.550 100, 98 100 C 97.450 100, 97 100.423, 97 100.941" stroke="none" fill="black" fill-rule="evenodd"/>
</svg>