<svg xmlns="http://www.w3.org/2000/svg" width="192" height="144" viewBox="0 0 192 144" version="1.1">
	<path d="M 109.750 9.674 C 112.863 11.846, 112.588 12.652, 108.250 14.074 C 102.218 16.051, 100.088 17.942, 98.913 22.360 C 98.308 24.637, 97.384 27.316, 96.859 28.313 C 96.334 29.309, 96.151 30.900, 96.452 31.847 C 97.033 33.681, 92.617 37, 89.596 37 C 88.683 37, 88 37.831, 88 38.941 C 88 41.286, 89.147 42.145, 90.862 41.085 C 93.348 39.549, 96.887 41.231, 99.510 45.195 C 101.816 48.679, 102.220 50.528, 102.712 59.860 C 103.241 69.884, 103.104 70.978, 100.477 77.702 C 98.939 81.642, 96.582 86.133, 95.241 87.683 C 93.901 89.232, 91.253 92.826, 89.358 95.669 C 86.468 100.005, 85.858 101.900, 85.576 107.419 C 85.267 113.480, 85.960 115.492, 87.500 113 C 88.359 111.610, 90.154 111.802, 92.439 113.530 C 94.329 114.960, 94.307 115.070, 91.559 117.939 C 88.281 121.360, 88.640 123.983, 92.290 123.285 C 95.548 122.662, 96.250 125.558, 95.379 136.013 L 94.712 144 124.731 144 L 154.750 144 155.390 140.798 C 156.377 135.865, 155.036 107.291, 153.475 100 C 152.710 96.425, 150.681 89.247, 148.966 84.050 C 146.134 75.463, 145.811 73.164, 145.432 58.885 C 145.203 50.242, 144.568 41.995, 144.023 40.560 C 143.477 39.124, 142.556 34.979, 141.976 31.349 C 140.743 23.629, 139.052 19.973, 135.382 17.086 C 132.422 14.758, 124.068 12, 119.973 12 C 118.509 12, 116.495 11.100, 115.500 10 C 114.402 8.787, 112.472 8.021, 110.595 8.052 L 107.500 8.105 109.750 9.674 M 111 61.750 C 111 62.529, 111.534 62.989, 112.188 62.771 C 114.001 62.166, 114.257 60.333, 112.528 60.333 C 111.688 60.333, 111 60.971, 111 61.750" stroke="none" fill="black" fill-rule="evenodd"/>
</svg>