<svg xmlns="http://www.w3.org/2000/svg" width="192" height="144" viewBox="0 0 192 144" version="1.1">
	<path d="M -0 72.005 L -0 144.010 96.250 143.755 L 192.500 143.500 192.757 71.750 L 193.013 0 96.507 0 L 0 0 -0 72.005 M 0.474 72.500 C 0.474 112.100, 0.598 128.154, 0.750 108.176 C 0.901 88.198, 0.901 55.798, 0.750 36.176 C 0.598 16.554, 0.474 32.900, 0.474 72.500 M 101.989 51.572 C 88.308 58.129, 70.660 78.975, 69.235 90.264 C 68.939 92.608, 69.311 93.113, 71.693 93.591 C 75.105 94.276, 77.401 95.905, 78.289 98.273 C 78.655 99.248, 79.665 100.318, 80.533 100.651 C 82.809 101.525, 90.569 97.240, 96.439 91.869 C 105.051 83.988, 117.933 59.625, 117.707 51.646 C 117.605 48.064, 117.532 48, 113.524 48 C 110.903 48, 106.778 49.278, 101.989 51.572" stroke="none" fill="black" fill-rule="evenodd"/>
</svg>