<svg xmlns="http://www.w3.org/2000/svg" width="192" height="144" viewBox="0 0 192 144" version="1.1">
	<path d="M 0 57 L 0 114 3.956 114 L 7.912 114 8.206 106.827 C 8.485 100.022, 8.654 99.570, 11.500 97.990 C 13.680 96.781, 14.511 95.572, 14.541 93.569 C 14.564 92.044, 15.346 90.386, 16.291 89.857 C 17.231 89.331, 18 88.023, 18 86.950 C 18 85.878, 18.480 85, 19.067 85 C 19.654 85, 19.869 85.836, 19.545 86.859 C 19.204 87.932, 19.598 89.252, 20.477 89.981 C 21.315 90.676, 22 92.563, 22 94.174 C 22 96.530, 22.587 97.309, 25 98.150 C 27.866 99.149, 28.496 100.362, 28.170 104.250 C 27.956 106.805, 29.300 106.390, 31.159 103.326 L 32.782 100.652 34.891 104.786 C 36.051 107.060, 37 109.773, 37 110.815 C 37 112.544, 38.087 112.756, 49.444 113.246 C 60.096 113.706, 62.328 114.097, 64.944 115.960 L 68 118.136 68 111.291 C 68 101.854, 71.282 97.062, 74.191 102.250 C 75.122 103.910, 75.367 109.680, 75.123 124.250 L 74.792 144 133.236 144 L 191.681 144 192.338 120.750 C 192.700 107.963, 192.996 75.563, 192.998 48.750 L 193 0 96.500 0 L 0 0 0 57 M 0.468 57.500 C 0.468 88.850, 0.595 101.530, 0.750 85.679 C 0.904 69.827, 0.904 44.177, 0.749 28.679 C 0.594 13.180, 0.468 26.150, 0.468 57.500 M 125.227 37.023 C 121.539 41.244, 120.181 42.584, 117.203 44.941 C 113.696 47.715, 113.791 48.954, 117.458 48.253 C 119.488 47.865, 120.164 48.302, 121.021 50.555 C 121.722 52.398, 121.753 54.269, 121.114 56.103 C 120.366 58.249, 120.581 59.718, 122.075 62.646 C 123.134 64.723, 124 67.430, 124 68.661 C 124 71.491, 118.227 76.989, 115.250 76.995 C 112.924 77, 112.233 78.408, 114.016 79.510 C 114.575 79.856, 114.726 80.634, 114.352 81.239 C 113.918 81.941, 114.258 82.115, 115.289 81.719 C 116.341 81.316, 117.646 82.042, 119.027 83.800 C 120.194 85.285, 120.863 85.938, 120.515 85.250 C 120.167 84.563, 120.246 84.007, 120.691 84.015 C 122.179 84.043, 123.530 85.476, 124.808 88.379 C 126.235 91.623, 127.015 91.272, 128.589 86.678 C 130.177 82.046, 133.024 82.446, 134.442 87.500 C 135.684 91.928, 137.837 92.711, 139.515 89.345 C 140.388 87.595, 140.956 87.384, 142.545 88.220 C 143.620 88.786, 145.077 89.973, 145.782 90.859 C 146.933 92.306, 147.123 92.244, 147.643 90.259 C 148.110 88.471, 148.572 88.236, 150.058 89.031 C 151.491 89.798, 152.446 89.463, 154.402 87.507 C 155.781 86.128, 157.406 85, 158.014 85 C 158.652 85, 158.785 84.473, 158.327 83.750 C 157.075 81.770, 157.092 76.573, 158.353 75.765 C 159.159 75.249, 159.097 75.026, 158.143 75.015 C 157.350 75.006, 157.025 74.377, 157.362 73.500 C 157.678 72.675, 157.440 72, 156.833 72 C 156.226 72, 154.687 70.875, 153.412 69.500 C 151.431 67.362, 150.216 67, 145.022 67 L 138.949 67 140.474 64.050 C 143.205 58.769, 142.026 57.695, 136.601 60.524 C 135.007 61.355, 133.562 61.896, 133.391 61.724 C 132.710 61.043, 134.281 57.056, 135.045 57.528 C 135.494 57.805, 136.149 57.568, 136.500 57 C 136.851 56.432, 137.557 56.226, 138.069 56.543 C 139.515 57.436, 139.168 55.685, 137.398 53.158 C 136.517 51.900, 135.954 50.787, 136.148 50.685 C 141.181 48.035, 141.461 46.779, 137.212 45.910 C 132.956 45.039, 132.002 44.178, 131.985 41.191 C 131.956 36.120, 128.096 33.739, 125.227 37.023" stroke="none" fill="black" fill-rule="evenodd"/>
</svg>