<svg xmlns="http://www.w3.org/2000/svg" width="192" height="144" viewBox="0 0 192 144" version="1.1">
	<path d="M 156.429 14.893 C 152.122 16.849, 146 23.385, 146 26.028 C 146 28.126, 144.019 30, 141.800 30 C 140.810 30, 139.068 30.932, 137.928 32.072 L 135.856 34.144 138.428 36.354 C 140.152 37.835, 141 39.576, 141 41.633 C 141 45.118, 142.839 51.034, 143.838 50.759 C 144.202 50.658, 145.467 51.201, 146.648 51.965 C 148.332 53.054, 148.570 53.716, 147.749 55.030 C 146.930 56.341, 147.428 57.774, 150.035 61.603 C 154.147 67.645, 154.760 68.091, 158.485 67.763 C 161.877 67.464, 162.800 69.411, 160.616 72.259 C 159.414 73.826, 158.463 73.909, 151.884 73.025 C 143.363 71.880, 141.763 72.025, 139.298 74.162 C 138.309 75.019, 134.681 76.257, 131.235 76.913 L 124.969 78.107 113.735 71.712 C 107.556 68.195, 100.392 64.320, 97.815 63.101 C 95.238 61.882, 91.463 59.560, 89.427 57.942 C 85.691 54.973, 83 54.160, 83 56 C 83 56.550, 80.766 57, 78.035 57 C 74 57, 72.858 57.397, 71.935 59.121 C 71.138 60.611, 71.127 61.039, 71.900 60.562 C 72.505 60.188, 73 60.332, 73 60.882 C 73 61.432, 72.550 62.160, 72 62.500 C 70.475 63.443, 70.808 65, 72.535 65 C 73.785 65, 73.861 65.391, 72.947 67.099 C 71.896 69.063, 72.017 69.155, 74.835 68.536 C 77.521 67.946, 77.787 68.097, 77.306 69.938 C 76.734 72.126, 78.535 72.874, 79.260 70.750 C 79.598 69.762, 80.402 69.785, 83.094 70.858 C 84.967 71.605, 88.075 72.533, 90 72.920 C 91.926 73.307, 93.386 74.164, 93.245 74.826 C 93.105 75.487, 94.680 76.809, 96.745 77.764 C 98.810 78.719, 100.725 79.761, 101 80.081 C 101.275 80.400, 103.586 81.692, 106.136 82.951 C 108.686 84.210, 112.008 86.302, 113.518 87.600 C 117.304 90.853, 121.431 91.409, 135.431 90.549 C 142.069 90.142, 149.075 89.739, 151 89.654 L 154.500 89.500 155.111 96.500 C 155.447 100.350, 156.051 104.400, 156.452 105.500 C 157.921 109.527, 159.541 112.545, 161.250 114.439 C 162.213 115.505, 163 116.967, 163 117.689 C 163 118.410, 163.450 119, 164 119 C 164.550 119, 165.003 119.787, 165.006 120.750 C 165.016 123.962, 167.056 129.913, 168.716 131.573 C 170.347 133.204, 169.983 136.486, 167.531 142.250 C 166.844 143.864, 167.770 144, 179.412 144 L 192.038 144 191.709 95.750 C 191.529 69.212, 191.009 46.217, 190.555 44.650 C 190.044 42.887, 190.217 39.763, 191.010 36.459 C 192.539 30.086, 191.482 26.647, 186.200 20.800 C 179.770 13.682, 165.381 10.827, 156.429 14.893" stroke="none" fill="black" fill-rule="evenodd"/>
</svg>