<svg xmlns="http://www.w3.org/2000/svg" width="192" height="144" viewBox="0 0 192 144" version="1.1">
	<path d="M 169.120 1.750 C 168.581 2.712, 167.877 3.353, 167.554 3.174 C 166.431 2.551, 160.712 4.230, 156.706 6.358 C 151.813 8.959, 147.928 13.720, 149.771 14.859 C 150.652 15.403, 150.119 16.462, 147.911 18.561 C 146.209 20.177, 143.949 23.188, 142.888 25.250 C 140.994 28.933, 141.434 30.166, 143.800 27.800 C 145.293 26.307, 145.352 27.474, 143.919 30.151 C 141.821 34.072, 144.106 33.321, 149.129 28.440 L 154.212 23.500 150.924 28.235 C 146.861 34.087, 147.793 35.531, 152.665 30.932 C 156.196 27.599, 156.338 27.757, 154.297 32.750 C 153.605 34.443, 155.474 34.338, 156.914 32.603 C 157.552 31.835, 158.891 31.420, 159.889 31.681 C 161.237 32.034, 163.190 30.184, 167.456 24.515 C 174.366 15.334, 176.124 15.166, 169.599 24.309 C 165.106 30.605, 164.086 33, 165.896 33 C 166.763 33, 169.493 30.080, 175.250 22.998 C 178.893 18.516, 178.731 19.691, 174.844 25.944 C 170.764 32.507, 172.001 33.704, 176.930 27.965 C 188.554 14.429, 188.549 14.429, 183.946 27.096 C 182.266 31.718, 180.010 38.090, 178.933 41.255 C 175.691 50.784, 171.216 61.620, 167.365 69.268 C 164.170 75.613, 163.627 76.225, 162.913 74.294 C 162.465 73.084, 160.389 70.965, 158.300 69.586 C 154.888 67.334, 152.872 66.965, 138.553 65.968 C 128.204 65.247, 121.709 64.343, 120.053 63.392 L 117.500 61.927 119.992 62.608 C 122.120 63.189, 122.304 63.071, 121.248 61.799 C 120.568 60.979, 118.204 59.494, 115.996 58.498 C 113.787 57.502, 112.166 56.501, 112.393 56.274 C 112.620 56.046, 114.663 56.808, 116.933 57.966 C 120.470 59.770, 121.333 59.880, 122.966 58.736 C 124.834 57.428, 124.832 57.376, 122.869 56.151 C 121.768 55.463, 121.063 54.360, 121.303 53.700 C 122.205 51.219, 119.046 49.184, 115.111 49.712 C 111.261 50.228, 105.958 48.176, 99.645 43.727 C 97.177 41.987, 96.859 41.225, 97.299 38.107 C 98.098 32.451, 90.970 21.768, 89.501 26.417 C 89.225 27.288, 88.783 28.691, 88.518 29.535 C 88.085 30.915, 87.736 30.915, 85.068 29.535 C 80.996 27.429, 80.506 27.598, 82.381 30.459 C 83.909 32.791, 83.867 33.042, 81.562 35.347 C 78.428 38.481, 77.399 44.033, 78.967 49.346 C 79.888 52.466, 82.369 55.615, 88.939 62 C 93.749 66.675, 98.881 71.510, 100.343 72.743 C 101.910 74.067, 103 76.010, 103 77.483 C 103 79.146, 105.644 83.105, 110.920 89.344 C 115.275 94.495, 120.401 101.138, 122.311 104.105 C 128.199 113.257, 129.097 113.993, 133.233 113.060 C 135.217 112.613, 138.003 112.469, 139.426 112.741 C 142.534 113.335, 145.249 111.361, 144.513 109.042 C 144.196 108.041, 144.976 106.431, 146.450 105.047 L 148.918 102.728 148.301 106.532 C 147.771 109.799, 147.918 110.246, 149.342 109.699 C 150.254 109.349, 151 109.170, 151 109.301 C 151 109.569, 147.198 123.554, 146.405 126.203 C 146.002 127.548, 148.133 128.961, 156.555 132.934 L 167.214 137.962 169.830 134.981 C 173.639 130.640, 175.413 131.018, 174.616 136 L 173.976 140 182.988 140 L 192 140 192 70 L 192 0 181.050 0 C 171.661 0, 169.960 0.249, 169.120 1.750" stroke="none" fill="black" fill-rule="evenodd"/>
</svg>