<svg xmlns="http://www.w3.org/2000/svg" width="192" height="144" viewBox="0 0 192 144" version="1.1">
	<path d="M 0 72 L 0 144 9.588 144 L 19.176 144 18.618 140.250 C 18.311 138.188, 17.537 128.175, 16.896 118 C 15.989 103.591, 16.002 97.952, 16.952 92.500 C 17.624 88.650, 18.342 82.164, 18.549 78.088 C 18.995 69.303, 22.081 62.350, 28.901 54.765 C 35.705 47.197, 49.232 38.678, 58.500 36.124 C 63.705 34.689, 78.091 36.368, 86.437 39.384 C 91.652 41.269, 92.464 41.897, 92.246 43.877 C 92.106 45.144, 92.838 47.377, 93.872 48.840 C 97.031 53.312, 97.469 57.588, 95.078 60.628 C 91.905 64.661, 92.384 66, 97 66 C 100.717 66, 101 66.199, 101 68.809 C 101 70.354, 101.624 72.470, 102.386 73.513 C 103.450 74.968, 103.517 75.966, 102.675 77.813 C 101.794 79.748, 101.894 80.449, 103.186 81.394 C 104.180 82.121, 104.927 84.460, 105.146 87.534 C 105.494 92.413, 105.434 92.532, 101.705 94.354 C 96.960 96.672, 94.600 100.126, 95.291 103.741 C 95.579 105.247, 95.449 107.162, 95.002 107.997 C 94.075 109.728, 96.369 113.057, 99.726 114.853 C 100.904 115.484, 104.528 116, 107.779 116 C 112.218 116, 114.099 116.452, 115.331 117.814 C 116.578 119.191, 116.693 119.907, 115.811 120.789 C 114.929 121.671, 116.053 123.220, 120.479 127.225 C 123.685 130.126, 129.051 135.078, 132.404 138.229 L 138.500 143.958 165.500 143.729 L 192.500 143.500 192.757 71.750 L 193.013 0 96.507 0 L 0 0 0 72 M 0.474 72.500 C 0.474 112.100, 0.598 128.154, 0.750 108.176 C 0.901 88.198, 0.901 55.798, 0.750 36.176 C 0.598 16.554, 0.474 32.900, 0.474 72.500" stroke="none" fill="black" fill-rule="evenodd"/>
</svg>