<svg xmlns="http://www.w3.org/2000/svg" width="192" height="144" viewBox="0 0 192 144" version="1.1">
	<path d="M 112.790 34.250 C 111.998 35.487, 111.042 37.336, 110.665 38.358 C 109.940 40.325, 108.795 40.308, 99.133 38.185 C 90.276 36.239, 83.862 40.408, 80.054 50.586 C 77.736 56.782, 77.289 68.289, 79.088 75.436 C 80.631 81.563, 85.198 86.760, 89.792 87.615 C 91.831 87.995, 95.215 89.197, 97.312 90.286 C 102.837 93.157, 111.311 92.258, 117.249 88.173 C 126.300 81.945, 132.480 70.376, 132.492 59.636 C 132.500 52.937, 132.409 52.693, 128.733 49.515 C 125.575 46.785, 120.854 44.481, 114.251 42.448 C 113.306 42.157, 113.427 41.144, 114.751 38.282 C 115.713 36.202, 116.838 34.350, 117.250 34.167 C 118.743 33.503, 117.955 32, 116.115 32 C 115.078 32, 113.582 33.013, 112.790 34.250" stroke="none" fill="black" fill-rule="evenodd"/>
</svg>