<svg xmlns="http://www.w3.org/2000/svg" width="192" height="144" viewBox="0 0 192 144" version="1.1">
	<path d="M -0 72.005 L -0 144.010 96.250 143.755 L 192.500 143.500 192.757 71.750 L 193.013 0 96.507 0 L 0 0 -0 72.005 M 0.474 72.500 C 0.474 112.100, 0.598 128.154, 0.750 108.176 C 0.901 88.198, 0.901 55.798, 0.750 36.176 C 0.598 16.554, 0.474 32.900, 0.474 72.500 M 100.709 51.624 C 100.319 52.014, 100 53.413, 100 54.733 C 100 56.761, 100.426 57.084, 102.750 56.816 C 104.932 56.565, 105.500 55.984, 105.500 54 C 105.500 52.245, 104.891 51.413, 103.459 51.208 C 102.336 51.047, 101.099 51.235, 100.709 51.624 M 117.571 52.571 C 115.675 54.468, 115.888 55.896, 118.291 57.412 C 120.686 58.922, 123.922 55.686, 122.412 53.291 C 120.896 50.888, 119.468 50.675, 117.571 52.571 M 82.362 53.500 C 81.390 56.031, 82.815 58.165, 85.246 57.820 C 86.861 57.591, 87.590 56.721, 87.816 54.750 C 88.090 52.375, 87.779 52, 85.535 52 C 84.106 52, 82.678 52.675, 82.362 53.500 M 66.569 54.573 C 65.706 55.437, 65 56.529, 65 57 C 65 57.471, 65.706 58.563, 66.569 59.427 C 68.546 61.404, 72 59.860, 72 57 C 72 54.140, 68.546 52.596, 66.569 54.573 M 133.115 55.632 C 130.646 57.361, 130.410 59.265, 132.452 60.960 C 135.303 63.326, 139.728 60.061, 138.391 56.577 C 137.548 54.379, 135.442 54.002, 133.115 55.632 M 50.930 58.584 C 49.364 60.471, 50.729 63.306, 53.463 63.844 C 56.008 64.344, 57.348 62.523, 56.608 59.573 C 55.869 56.628, 52.972 56.124, 50.930 58.584 M 144.200 60.200 C 141.650 62.750, 143.568 67, 147.267 67 C 148.748 67, 148.988 67.466, 148.424 69.250 C 148.033 70.487, 146.878 72.088, 145.857 72.807 C 142.404 75.236, 144.185 80, 148.545 80 C 150.977 80, 154 77.115, 154 74.794 C 154 73.942, 154.675 72.685, 155.500 72 C 158.749 69.304, 156.040 64.233, 151.926 65.309 C 150.365 65.717, 149.986 65.478, 150.417 64.355 C 151.854 60.612, 147.019 57.381, 144.200 60.200 M 40.750 63.392 C 39.788 64.123, 39 65.683, 39 66.860 C 39 68.037, 38.580 69, 38.067 69 C 37.554 69, 36.839 69.932, 36.477 71.072 C 35.775 73.285, 38.324 77, 40.547 77 C 41.227 77, 42.053 78.075, 42.383 79.390 C 43.464 83.696, 49.254 83.960, 50.354 79.754 C 50.958 77.443, 48.623 74, 46.452 74 C 44.445 74, 43.826 70.849, 45.476 69.027 C 47.412 66.887, 47.400 65.543, 45.429 63.571 C 43.543 61.686, 43.023 61.666, 40.750 63.392 M 129.977 79.023 C 126.050 82.950, 131.718 87.725, 136.549 84.560 C 139.379 82.705, 139.659 80.802, 137.429 78.571 C 135.282 76.425, 132.401 76.599, 129.977 79.023 M 57.200 80.200 C 56.540 80.860, 56 82.345, 56 83.500 C 56 88.346, 62.337 89.874, 64.025 85.435 C 65.869 80.583, 60.746 76.654, 57.200 80.200 M 106 84 C 104.900 85.100, 104 85.550, 104 85 C 104 83.086, 102.489 84.032, 100.797 87.006 C 99.481 89.319, 98.389 90, 96 90 C 93.611 90, 92.519 89.319, 91.203 87.006 C 89.528 84.061, 88 83.082, 88 84.953 C 88 85.478, 86.624 85.140, 84.942 84.203 C 81.921 82.521, 81.856 82.534, 79.649 85.257 C 77.903 87.410, 77.149 87.749, 76.207 86.807 C 75.264 85.864, 75 86.257, 75 88.600 C 75 94.117, 70.526 95.782, 66.318 91.829 C 63.618 89.293, 62.343 89.904, 63.974 92.952 C 66.444 97.567, 61.303 101.480, 58 97.500 C 55.685 94.711, 54.847 95.977, 57.004 99.006 C 59.461 102.456, 59.290 105.649, 56.672 105.197 C 55.181 104.939, 55.096 105.180, 56.107 106.800 C 57 108.230, 57.020 109.503, 56.188 111.891 C 53.537 119.496, 61.664 127.775, 75.626 131.693 C 81.669 133.389, 104.374 134.155, 110.500 132.871 C 121.842 130.493, 130.260 126.187, 133.838 120.933 C 135.734 118.149, 136.066 116.677, 135.594 113.151 C 135.133 109.714, 135.432 108.266, 137.020 106.248 C 139.387 103.238, 139.017 102.348, 136.143 104.143 C 132.929 106.150, 132.317 104.240, 134.796 99.933 C 137.165 95.816, 136.713 94.993, 133.441 97.468 C 129.080 100.767, 126.064 98.591, 127.987 93.534 C 129.415 89.779, 128.517 89.166, 125.600 91.906 C 123.999 93.410, 122.264 94.045, 120.354 93.826 C 117.907 93.547, 117.453 93.007, 117.171 90.042 C 116.804 86.180, 113.049 82, 109.948 82 C 108.877 82, 107.100 82.900, 106 84 M 87.500 103.435 C 86.950 103.649, 85.271 104.096, 83.768 104.427 C 80.264 105.199, 74 110.677, 74 112.969 C 74 116.993, 82.840 123.685, 84.535 120.944 C 84.869 120.402, 86.402 120.674, 88.168 121.587 C 92.640 123.899, 108.694 122.366, 112.902 119.224 C 118.854 114.780, 118.157 110.005, 110.979 106.044 C 107.306 104.017, 104.881 103.525, 97.500 103.308 C 92.550 103.163, 88.050 103.220, 87.500 103.435" stroke="none" fill="black" fill-rule="evenodd"/>
</svg>