<svg xmlns="http://www.w3.org/2000/svg" width="192" height="144" viewBox="0 0 192 144" version="1.1">
	<path d="M 70.580 2.250 C 69.400 4.060, 69.294 5.870, 70.036 11.500 C 71.563 23.088, 72.161 24.454, 75.862 24.817 C 79.399 25.164, 79.450 26.156, 76.249 32.440 C 74.872 35.144, 74.903 35.506, 76.634 36.940 C 80.322 39.997, 83.610 55.355, 81.198 58.261 C 80.520 59.078, 80.231 60.438, 80.555 61.283 C 80.929 62.259, 80.436 63.044, 79.204 63.435 C 75.610 64.576, 74.047 67.494, 73.266 74.517 C 72.572 80.761, 72.264 81.469, 70 82.015 C 67.918 82.517, 67.560 83.109, 67.862 85.559 C 69.174 96.230, 68.386 100.165, 62.008 114.797 C 56.093 128.366, 55.862 129.190, 57.471 130.968 C 58.404 131.999, 59.082 134.115, 58.978 135.671 C 58.873 137.227, 58.836 139.738, 58.894 141.250 L 59 144 101.889 144 C 142.528 144, 144.901 143.900, 147.124 142.101 C 149.348 140.300, 149.405 139.962, 148.228 135.564 C 147.546 133.014, 147.268 129.179, 147.609 127.043 C 148.155 123.628, 147.384 121.430, 141.219 108.830 C 132.874 91.773, 131.943 89.126, 132.684 84.557 C 133.168 81.576, 132.906 80.914, 130.875 79.989 C 129.471 79.349, 126.867 75.857, 124.505 71.446 C 120.541 64.046, 120.510 63.899, 120.505 53.006 C 120.501 44.822, 120.837 41.897, 121.822 41.517 C 122.823 41.131, 122.973 39.632, 122.439 35.362 L 121.734 29.716 124.298 30.360 C 126.360 30.877, 127.232 30.465, 128.755 28.252 C 131.075 24.880, 135 14.098, 135 11.096 C 135 6.280, 118.584 3.228, 111.811 6.785 C 109.306 8.100, 107.795 8.395, 107.103 7.703 C 106.543 7.143, 103.928 6.629, 101.292 6.562 C 98.656 6.495, 95.375 5.689, 94 4.771 C 90.823 2.650, 80.722 0, 75.813 0 C 73.008 0, 71.672 0.574, 70.580 2.250 M 116.675 97.750 C 116.063 101.704, 117.058 111.245, 118.924 119.315 C 119.537 121.963, 119.784 124.540, 119.474 125.041 C 119.165 125.543, 119.621 127.201, 120.488 128.726 L 122.065 131.500 121.594 128.500 C 121.335 126.850, 120.846 119.875, 120.508 113 C 119.826 99.122, 119.155 94, 118.017 94 C 117.598 94, 116.994 95.688, 116.675 97.750" stroke="none" fill="black" fill-rule="evenodd"/>
</svg>