<svg xmlns="http://www.w3.org/2000/svg" width="192" height="144" viewBox="0 0 192 144" version="1.1">
	<path d="M 0 72 L 0 144 35.433 144 C 68.314 144, 70.902 143.874, 71.383 142.250 C 72.520 138.405, 72.362 118.962, 71.184 117.784 C 70.533 117.133, 70 114.713, 70 112.407 C 70 107.177, 67.863 105.992, 64.794 109.522 C 62.282 112.411, 60.477 112.685, 59.567 110.315 C 58.883 108.531, 59.351 108.015, 69.149 99.771 C 73.442 96.159, 74.930 94.186, 75.449 91.419 C 75.823 89.426, 75.888 87.555, 75.595 87.261 C 75.301 86.967, 70.639 87.463, 65.236 88.363 C 54.272 90.190, 46.410 90.473, 45.544 89.072 C 44.883 88.002, 46.676 87.393, 53 86.537 C 73.069 83.820, 74.571 82.125, 62 76.379 C 57.600 74.367, 54 72.334, 54 71.861 C 54 70.389, 55.841 70.891, 62.185 74.094 C 66.454 76.248, 69.155 77.019, 71.087 76.633 C 72.732 76.304, 74.014 76.541, 74.239 77.216 C 74.447 77.842, 75.172 78.012, 75.849 77.593 C 76.727 77.051, 76.036 75.675, 73.443 72.806 C 70.025 69.022, 69.848 68.500, 70.498 64.140 C 71.393 58.147, 73.546 54.586, 78.247 51.329 C 81.736 48.911, 82.250 47.693, 79.917 47.375 C 79.412 47.306, 78.397 47.194, 77.661 47.125 C 75.984 46.969, 74 42.739, 74 39.321 C 74 36.251, 77.423 30.379, 80.024 28.987 C 81.038 28.444, 83.811 27.990, 86.184 27.978 C 88.921 27.964, 91.415 27.240, 93 26 C 95.815 23.798, 101.221 23.282, 100.855 25.250 C 100.727 25.938, 100.955 27.901, 101.361 29.613 C 102.337 33.733, 99.371 40.330, 96.840 39.668 C 95.469 39.310, 95.044 39.968, 94.804 42.818 C 94.560 45.715, 94.010 46.539, 92 47.022 L 89.500 47.623 91.684 48.811 C 92.886 49.465, 95.033 50, 96.456 50 C 97.879 50, 100.721 51.077, 102.771 52.394 C 106.617 54.864, 114.882 57.075, 118.629 56.638 C 121.296 56.326, 124.179 54.366, 130.362 48.660 C 135.614 43.814, 135.641 42.971, 130.641 39.923 C 128.124 38.388, 127.897 38.007, 129.500 38.007 C 131.919 38.007, 138 41.568, 138 42.985 C 138 44.183, 136.529 45.677, 128.249 52.894 C 124.845 55.861, 122.293 58.665, 122.576 59.124 C 123.343 60.363, 121.053 64.151, 119.950 63.469 C 119.427 63.146, 119 63.359, 119 63.941 C 119 64.523, 118.380 65, 117.622 65 C 116.865 65, 115.627 65.761, 114.872 66.692 C 113.940 67.842, 113.901 68.143, 114.750 67.633 C 115.438 67.220, 116 67.328, 116 67.874 C 116 68.419, 115.100 69.151, 114 69.500 C 112.019 70.129, 111.183 72, 112.883 72 C 114.459 72, 114.862 75.995, 113.431 77.426 C 112.666 78.191, 110.118 79.173, 107.770 79.607 L 103.500 80.396 107 81.008 L 110.500 81.619 107 83.152 C 103.665 84.614, 101.331 83.891, 102.625 81.798 C 102.896 81.359, 102.402 81, 101.528 81 C 99.434 81, 98.592 83.370, 99.851 85.721 C 100.716 87.339, 108.859 90.512, 120.750 93.865 C 121.988 94.214, 123.014 94.950, 123.031 95.500 C 123.087 97.303, 118.465 97.136, 110.988 95.064 C 106.946 93.944, 103.459 93.207, 103.240 93.427 C 103.020 93.647, 103.603 94.991, 104.535 96.413 C 105.468 97.836, 106.457 101.827, 106.735 105.282 C 107.198 111.051, 107.014 111.830, 104.479 114.842 C 101.969 117.826, 101.815 118.454, 102.777 121.811 C 103.359 123.840, 104.121 128.425, 104.470 132 C 104.819 135.575, 105.343 139.742, 105.634 141.261 L 106.164 144.021 149.332 143.761 L 192.500 143.500 192.757 71.750 L 193.013 0 169.007 0 L 145 0 145 2.378 C 145 5.361, 146.547 6.526, 151 6.893 C 155.115 7.232, 157.568 9.185, 159.928 14 C 161.637 17.485, 161.655 21, 159.966 21 C 159.477 21, 158.203 20.061, 157.134 18.914 C 155.558 17.222, 154.807 17.033, 153.161 17.914 C 148.669 20.318, 145.800 19.259, 139.844 13 C 135.704 8.650, 133.415 7, 131.518 7 C 128.095 7, 123.336 4.496, 121.994 1.990 C 120.950 0.037, 119.801 0, 60.465 0 L 0 0 0 72 M 0.474 72.500 C 0.474 112.100, 0.598 128.154, 0.750 108.176 C 0.901 88.198, 0.901 55.798, 0.750 36.176 C 0.598 16.554, 0.474 32.900, 0.474 72.500 M 148.750 9.662 C 149.438 9.940, 150.563 9.940, 151.250 9.662 C 151.938 9.385, 151.375 9.158, 150 9.158 C 148.625 9.158, 148.063 9.385, 148.750 9.662 M 85 17.500 C 85 18.325, 85.450 19, 86 19 C 86.550 19, 87 18.325, 87 17.500 C 87 16.675, 86.550 16, 86 16 C 85.450 16, 85 16.675, 85 17.500 M 138 30.559 C 138 31.416, 138.450 31.840, 139 31.500 C 139.550 31.160, 140 30.459, 140 29.941 C 140 29.423, 139.550 29, 139 29 C 138.450 29, 138 29.702, 138 30.559 M 61 41 C 61 41.550, 61.450 42, 62 42 C 62.550 42, 63 41.550, 63 41 C 63 40.450, 62.550 40, 62 40 C 61.450 40, 61 40.450, 61 41 M 25.571 53.571 C 24.599 54.544, 23.992 56.927, 23.978 59.821 C 23.966 62.395, 23.058 66.479, 21.961 68.898 C 20.190 72.801, 20.090 73.981, 21.071 79.393 C 22.099 85.063, 21.849 90.624, 20.395 94.413 C 19.995 95.457, 20.336 96, 21.393 96 C 22.300 96, 23 96.820, 23 97.883 C 23 99.455, 21.803 99.943, 15.750 100.838 C 4.914 102.440, 2 103.134, 2 104.113 C 2 105.569, 9.730 105.041, 22.887 102.687 C 33.618 100.768, 35.054 100.290, 33.637 99.113 C 30.960 96.892, 31.562 94.852, 34.664 95.631 C 36.989 96.214, 37.235 96.057, 36.593 94.400 C 35.190 90.777, 33 81.568, 33 79.290 C 33 77.690, 33.585 77, 34.941 77 C 38.133 77, 38.329 75.120, 35.520 71.438 C 33.168 68.354, 32.922 67.297, 33.340 62.068 C 33.674 57.883, 33.386 55.569, 32.348 54.087 C 30.613 51.609, 27.752 51.391, 25.571 53.571 M 95.347 68.227 C 95.431 73.050, 95.797 76.997, 96.160 76.998 C 97.194 77.001, 113 63.876, 113 63.014 C 113 61.013, 109.563 59.905, 102.699 59.691 L 95.193 59.458 95.347 68.227 M 76.975 65.530 C 75.994 66.712, 75.967 67.632, 76.857 69.586 C 78.365 72.895, 80 71.779, 80 67.441 C 80 63.733, 78.994 63.097, 76.975 65.530 M 54.500 83 C 54.160 83.550, 54.610 84, 55.500 84 C 56.390 84, 56.840 83.550, 56.500 83 C 56.160 82.450, 55.710 82, 55.500 82 C 55.290 82, 54.840 82.450, 54.500 83 M 26 98.094 C 26 99.333, 26.699 100, 28 100 C 29.100 100, 30 99.377, 30 98.617 C 30 97.856, 29.100 96.998, 28 96.710 C 26.517 96.322, 26 96.680, 26 98.094 M 91.762 120.571 C 91.448 120.886, 88.673 121.143, 85.595 121.143 C 80.369 121.143, 80 121.300, 80 123.523 C 80 124.832, 79.325 128.494, 78.500 131.661 C 77.675 134.829, 77 138.901, 77 140.710 L 77 144 88.625 144 L 100.250 144 99.528 140.750 C 99.131 138.963, 98.171 134.575, 97.394 131 C 96.618 127.425, 95.796 123.825, 95.568 123 C 95.340 122.175, 95.119 121.162, 95.077 120.750 C 94.987 119.871, 92.592 119.742, 91.762 120.571" stroke="none" fill="black" fill-rule="evenodd"/>
</svg>