<svg xmlns="http://www.w3.org/2000/svg" width="192" height="144" viewBox="0 0 192 144" version="1.1">
	<path d="M 51.701 38.338 C 50.663 41.042, 54.481 46.208, 64.156 55.194 C 69.607 60.257, 75.194 65.876, 76.570 67.681 L 79.073 70.963 76.787 70.109 C 71.754 68.230, 66 72.533, 66 78.176 C 66 81.257, 65.526 82.259, 63.665 83.107 C 60.605 84.501, 57.799 89.354, 58.074 92.777 C 58.194 94.275, 57.776 96.767, 57.146 98.315 C 56.516 99.863, 56.010 103.463, 56.022 106.315 C 56.056 114.117, 59.779 117.784, 65.887 116.032 C 68.711 115.222, 69.131 115.492, 72.973 120.580 C 75.218 123.554, 78.281 127.244, 79.778 128.779 C 81.275 130.314, 84.930 134.366, 87.900 137.785 L 93.300 144 132.900 143.967 C 171.230 143.935, 172.431 143.875, 170.336 142.126 C 169.145 141.132, 158.062 134.082, 145.706 126.461 L 123.240 112.603 122.559 105.089 C 121.761 96.282, 119.392 88.677, 113.862 77.162 C 110.041 69.206, 109.606 68.709, 104.350 66.303 C 100.691 64.628, 97.892 63.972, 96.011 64.348 C 93.895 64.771, 92.288 64.230, 89.655 62.207 C 80.822 55.423, 78.113 53.250, 72.500 48.454 C 69.200 45.634, 64.520 41.903, 62.100 40.163 C 57.537 36.883, 52.592 36.015, 51.701 38.338" stroke="none" fill="black" fill-rule="evenodd"/>
</svg>