<svg xmlns="http://www.w3.org/2000/svg" width="192" height="144" viewBox="0 0 192 144" version="1.1">
	<path d="M 0 72 L 0 144 27.479 144 L 54.957 144 53.791 141.250 C 53.149 139.738, 51.953 137.941, 51.131 137.257 C 49.822 136.168, 49.891 135.736, 51.688 133.757 C 52.815 132.516, 54.025 130.283, 54.377 128.795 C 55.254 125.078, 60.128 121.630, 69.008 118.442 C 78.619 114.991, 85.459 111.529, 90.215 107.707 C 94.359 104.376, 98.774 97.758, 97.201 97.234 C 96.657 97.052, 96.438 96.042, 96.713 94.988 C 96.989 93.934, 96.553 92.410, 95.745 91.602 C 93.407 89.265, 92.739 80.991, 94.487 76.037 C 96.371 70.696, 96.373 70, 94.500 70 C 93.675 70, 93 70.390, 93 70.867 C 93 72.006, 85.528 71.353, 82.984 69.992 C 81.563 69.231, 80.392 69.255, 78.857 70.076 C 75.352 71.953, 64.898 71.323, 53.637 68.557 C 40.640 65.364, 34.660 64.197, 25 62.967 C 20.875 62.441, 15.025 61.491, 12 60.856 C 6.714 59.745, 6.617 59.668, 9.500 58.870 C 11.150 58.413, 19.700 57.582, 28.500 57.023 C 37.300 56.465, 48.325 55.331, 53 54.505 C 63.555 52.639, 72.279 52.648, 77.500 54.529 C 82.904 56.476, 83.500 56.392, 84.818 53.500 C 85.670 51.630, 85.670 50.370, 84.818 48.500 C 83.937 46.565, 83.984 45.378, 85.029 43.250 C 85.771 41.738, 86.277 38.700, 86.153 36.500 C 85.521 25.264, 99.745 17.748, 107.660 25.134 C 110.686 27.959, 114.321 34.722, 113.692 36.360 C 113.446 37.001, 113.567 39.646, 113.960 42.239 C 114.663 46.865, 114.606 47.001, 110.891 49.575 C 107.691 51.793, 107.279 52.473, 108.221 53.983 C 108.834 54.964, 110.498 56.477, 111.918 57.346 C 113.338 58.214, 116.412 60.723, 118.750 62.922 C 123.429 67.324, 123.920 69.554, 121.488 75.375 C 119.950 79.055, 120.342 86.475, 122.131 87.581 C 122.609 87.876, 123 89.238, 123 90.607 C 123 93.756, 126.348 111.362, 130.397 129.500 L 133.522 143.500 163.011 143.500 L 192.500 143.500 192.757 71.750 L 193.013 0 96.507 0 L 0 0 0 72 M 0.474 72.500 C 0.474 112.100, 0.598 128.154, 0.750 108.176 C 0.901 88.198, 0.901 55.798, 0.750 36.176 C 0.598 16.554, 0.474 32.900, 0.474 72.500 M 101.425 90.443 C 100.422 94.440, 101.996 95.554, 104.111 92.345 C 106.490 88.736, 106.475 88, 104.019 88 C 102.752 88, 101.817 88.881, 101.425 90.443 M 61.813 97.683 C 62.534 97.972, 63.397 97.936, 63.729 97.604 C 64.061 97.272, 63.471 97.036, 62.417 97.079 C 61.252 97.127, 61.015 97.364, 61.813 97.683 M 84.500 102 C 84.840 102.550, 85.568 103, 86.118 103 C 86.668 103, 86.840 102.550, 86.500 102 C 86.160 101.450, 85.432 101, 84.882 101 C 84.332 101, 84.160 101.450, 84.500 102 M 28.507 128.989 C 28.157 129.555, 28.558 129.723, 29.448 129.382 C 31.180 128.717, 31.497 128, 30.059 128 C 29.541 128, 28.843 128.445, 28.507 128.989" stroke="none" fill="black" fill-rule="evenodd"/>
</svg>