<svg xmlns="http://www.w3.org/2000/svg" width="192" height="144" viewBox="0 0 192 144" version="1.1">
	<path d="M -0 72.005 L -0 144.010 96.250 143.755 L 192.500 143.500 192.757 71.750 L 193.013 0 96.507 0 L 0 0 -0 72.005 M 0.474 72.500 C 0.474 112.100, 0.598 128.154, 0.750 108.176 C 0.901 88.198, 0.901 55.798, 0.750 36.176 C 0.598 16.554, 0.474 32.900, 0.474 72.500 M 123.391 36.751 C 122.781 37.163, 121.678 39.188, 120.940 41.250 C 120.202 43.313, 119.239 45, 118.799 45 C 118.360 45, 118 45.450, 118 46.001 C 118 47.218, 110.113 55, 108.879 55 C 108.396 55, 108 55.702, 108 56.559 C 108 57.416, 107.544 57.836, 106.987 57.492 C 106.430 57.148, 104.676 57.514, 103.090 58.305 C 99.550 60.071, 96.933 58.990, 98.928 56.586 C 100.034 55.255, 99.874 54.884, 97.864 54.113 C 95.812 53.326, 94.873 53.856, 90.750 58.127 C 88.138 60.833, 86 63.642, 86 64.369 C 86 65.095, 85.038 66.547, 83.862 67.595 C 82.686 68.643, 81.108 70.955, 80.356 72.733 C 79.013 75.907, 72.920 80, 69.540 80 C 68.693 80, 68 80.391, 68 80.870 C 68 81.348, 65.289 82.273, 61.975 82.925 C 58.661 83.577, 56.194 84.504, 56.491 84.986 C 56.789 85.468, 56.575 86.144, 56.016 86.490 C 55.457 86.835, 55 88.268, 55 89.673 C 55 91.937, 55.337 92.177, 57.976 91.790 C 59.612 91.550, 61.159 91.837, 61.413 92.427 C 61.698 93.089, 62.382 92.881, 63.199 91.885 C 64.694 90.062, 76.253 84, 78.234 84 C 78.945 84, 79.970 84.986, 80.513 86.191 C 82.878 91.439, 96.795 94.873, 103.437 91.847 C 105.982 90.687, 114.050 79.696, 115.835 74.957 C 116.917 72.085, 115.404 67.410, 112.653 65.127 C 111.744 64.373, 111 63.215, 111 62.555 C 111 61.185, 120.547 52, 121.971 52 C 124.838 52, 129.978 43.722, 127.906 42.442 C 127.408 42.134, 127 41.432, 127 40.882 C 127 40.332, 127.444 40.156, 127.987 40.492 C 128.616 40.880, 128.665 40.268, 128.124 38.801 C 127.225 36.368, 125.236 35.506, 123.391 36.751" stroke="none" fill="black" fill-rule="evenodd"/>
</svg>