<svg xmlns="http://www.w3.org/2000/svg" width="192" height="144" viewBox="0 0 192 144" version="1.1">
	<path d="M 68.635 40.073 C 67.107 41.275, 66 43.145, 66 44.526 C 66 45.835, 65.523 47.952, 64.940 49.231 C 63.478 52.441, 65.134 56.375, 68.879 58.588 C 71.358 60.052, 71.783 60.833, 71.333 63.086 C 71.033 64.585, 71.326 69.004, 71.984 72.904 C 72.940 78.572, 73.710 80.413, 75.818 82.071 C 78.331 84.048, 79.491 84.106, 84.574 82.510 C 86.475 81.913, 86.734 82.430, 87.671 88.679 C 88.342 93.158, 88.360 96.702, 87.721 99 C 87.186 100.925, 86.684 105.200, 86.606 108.500 C 86.409 116.805, 88.556 119, 96.873 119 C 102.638 119, 102.911 119.120, 105.054 122.587 C 106.273 124.560, 108.107 126.953, 109.128 127.904 C 110.730 129.397, 110.814 130, 109.742 132.309 C 109.059 133.781, 108.162 134.988, 107.750 134.992 C 107.338 134.996, 107 135.390, 107 135.866 C 107 136.342, 109.477 135.914, 112.505 134.915 C 117.651 133.218, 118.198 133.207, 120.882 134.747 C 123.712 136.371, 123.854 136.331, 130.627 132.012 C 134.407 129.601, 138.429 126.812, 139.564 125.814 C 140.700 124.816, 141.899 124, 142.230 124 C 142.801 124, 146.280 121.262, 149.868 117.986 C 150.781 117.154, 152.983 115.436, 154.764 114.168 C 158.199 111.722, 159.276 109.334, 156.250 110.873 C 153.432 112.307, 144.726 114.273, 141.858 114.123 C 140.405 114.047, 138.155 114.383, 136.858 114.870 C 133.453 116.149, 127.872 113.051, 125.817 108.743 C 124.230 105.414, 124.255 105.147, 126.528 101.336 C 130.005 95.504, 135.413 78.013, 134.134 76.734 C 132.238 74.838, 118.359 75.648, 113.647 77.929 C 108.194 80.568, 107.175 80.534, 107.712 77.726 C 108.146 75.454, 105.031 72.313, 97.789 67.723 C 96.093 66.648, 94.679 64.521, 94.011 62.039 C 92.831 57.660, 89.895 55.042, 86.027 54.921 C 84.637 54.878, 84.063 54.615, 84.750 54.338 C 85.481 54.043, 86 52.030, 86 49.493 C 86 46.264, 85.326 44.352, 83.365 42.022 C 81.915 40.299, 80.130 39.120, 79.397 39.401 C 78.664 39.683, 77.798 39.482, 77.473 38.956 C 76.440 37.284, 71.365 37.925, 68.635 40.073 M 116.283 113.416 C 114.630 114.806, 112.053 116.409, 110.556 116.979 L 107.834 118.014 110.417 121.084 C 111.838 122.772, 113 124.794, 113 125.577 C 113 127.706, 115.078 127.308, 119.518 124.326 C 124.961 120.670, 125.197 120.072, 122.785 116.030 C 119.627 110.735, 119.520 110.692, 116.283 113.416" stroke="none" fill="black" fill-rule="evenodd"/>
</svg>