<svg xmlns="http://www.w3.org/2000/svg" width="192" height="144" viewBox="0 0 192 144" version="1.1">
	<path d="M 0 6.868 L 0 13.736 5.969 15.411 C 11.535 16.973, 12.110 16.974, 14.474 15.425 C 16.466 14.120, 17.318 14.019, 18.446 14.955 C 19.235 15.610, 19.623 16.820, 19.307 17.644 C 18.834 18.874, 19.379 19.019, 22.359 18.460 C 28.722 17.267, 30.710 18.420, 33.922 25.163 C 36.319 30.195, 36.630 31.628, 35.669 33.206 C 34.671 34.846, 34.939 35.487, 37.500 37.595 C 39.150 38.954, 42.322 41.777, 44.550 43.871 C 46.777 45.964, 49.449 48.152, 50.486 48.732 C 52.162 49.670, 52.382 51.116, 52.456 61.644 C 52.545 74.280, 52.309 73.216, 61.208 101 C 65.753 115.192, 67.414 128, 64.708 128 C 63.853 128, 61.781 129.154, 60.105 130.565 C 57.467 132.785, 56.461 133.042, 52.646 132.470 C 50.221 132.106, 47.985 132.215, 47.678 132.712 C 47.371 133.208, 46.810 135.952, 46.431 138.807 L 45.742 144 70.713 144 L 95.683 144 96.870 140.038 C 98.252 135.427, 97.505 131.299, 95.151 130.538 C 94.243 130.245, 91.883 128.541, 89.907 126.752 C 87.931 124.964, 85.006 122.343, 83.407 120.930 C 75.674 114.092, 70.180 107.025, 69.508 103.049 C 68.807 98.898, 69.634 91.286, 70.980 89.500 C 71.395 88.950, 72.048 86.036, 72.431 83.025 C 72.815 80.014, 73.600 76.982, 74.176 76.288 C 74.810 75.524, 74.906 73.936, 74.418 72.263 C 73.976 70.743, 73.484 67.025, 73.327 64 C 72.690 51.790, 71.794 46.794, 69.902 44.902 C 67.608 42.608, 67 42.524, 67 44.500 C 67 47.583, 63.835 45.851, 61.973 41.750 C 58.516 34.134, 59.551 27.469, 64.352 26.438 C 66.083 26.066, 68.175 25.161, 69 24.427 C 75.754 18.419, 79 14.690, 79 12.941 C 79 11.809, 79.400 11.129, 79.888 11.431 C 80.376 11.733, 81.068 10.522, 81.425 8.740 C 81.781 6.958, 82.333 4.262, 82.650 2.750 L 83.227 -0 41.613 -0 L 0 0 0 6.868 M 180 1.614 C 180 2.501, 180.978 4.967, 182.172 7.093 C 183.864 10.102, 184.639 10.714, 185.672 9.857 C 186.403 9.251, 187 8.135, 187 7.378 C 187 6.620, 187.450 6, 188 6 C 188.550 6, 189 4.650, 189 3 C 189 0.111, 188.833 0, 184.500 0 C 181.026 0, 180 0.368, 180 1.614 M 0.040 40.250 C 0.078 64.061, 0.172 65.329, 1.692 62.500 C 2.579 60.850, 5.711 56.416, 8.652 52.648 C 14.353 45.343, 14.418 45.080, 13.346 33.729 C 12.819 28.141, 12.427 27.045, 11.103 27.456 C 10.222 27.730, 8.831 27.535, 8.014 27.022 C 6.776 26.246, 6.729 25.556, 7.732 22.898 C 8.395 21.143, 8.695 19.316, 8.400 18.838 C 7.940 18.094, 1.474 15, 0.378 15 C 0.170 15, 0.018 26.362, 0.040 40.250 M 26.254 71.250 C 24.195 77.801, 23.249 82.492, 23.633 84.248 C 24.182 86.767, 23.999 86.978, 21.444 86.766 C 19.910 86.639, 18.467 87.098, 18.238 87.785 C 17.680 89.461, 15.083 92, 13.929 92 C 13.418 92, 13 90.719, 13 89.153 C 13 87.253, 14.164 85.109, 16.500 82.703 C 18.425 80.721, 20.005 78.064, 20.011 76.800 C 20.017 75.535, 20.279 72.700, 20.592 70.500 L 21.162 66.500 19.218 68.894 C 18.149 70.210, 16.835 71.016, 16.299 70.684 C 15.314 70.076, 11 76.786, 11 78.927 C 11 80.691, 6.786 86, 5.385 86 C 4.703 86, 3.212 84.814, 2.073 83.365 L 0 80.730 0 112.365 L 0 144 15 144 C 29.886 144, 30 143.983, 30.011 141.750 C 30.017 140.512, 30.301 137.813, 30.642 135.750 L 31.262 132 26.791 132 C 22.993 132, 22.150 131.624, 21.182 129.500 C 20.278 127.516, 19.265 126.976, 16.271 126.885 C 9.444 126.676, 9.481 126.695, 9.793 123.500 C 9.954 121.850, 10.475 119.600, 10.952 118.500 C 11.429 117.400, 12.102 115.825, 12.449 115 C 13.359 112.832, 15.390 109.440, 16.783 107.761 C 17.446 106.962, 20.737 101.022, 24.096 94.559 L 30.203 82.810 30.456 71.905 C 30.595 65.907, 30.431 61, 30.092 61 C 29.753 61, 28.026 65.612, 26.254 71.250 M 36.054 65 C 36.009 66.375, 35.728 68.625, 35.429 70 C 34.913 72.371, 34.970 72.352, 36.540 69.625 C 37.788 67.457, 37.941 66.229, 37.165 64.625 C 36.163 62.558, 36.133 62.568, 36.054 65 M 38.385 134.765 C 37.771 135.169, 36.948 136.625, 36.555 138 C 36.163 139.375, 35.622 141.287, 35.353 142.250 C 34.965 143.642, 35.492 144, 37.933 144 C 40.947 144, 41 143.913, 41 139 C 41 134.055, 40.556 133.335, 38.385 134.765" stroke="none" fill="black" fill-rule="evenodd"/>
</svg>