<svg xmlns="http://www.w3.org/2000/svg" width="192" height="144" viewBox="0 0 192 144" version="1.1">
	<path d="M 161.951 15.825 C 158.899 17.898, 153.274 22.088, 149.451 25.135 C 143.169 30.143, 125.903 41.479, 125.617 40.783 C 123.886 36.583, 121.350 34.950, 120.819 37.695 C 120.520 39.243, 119.406 39.500, 112.985 39.500 C 108.294 39.500, 104.382 40.064, 102.504 41.012 C 97.908 43.330, 93.950 53.150, 97.177 54.226 C 97.824 54.441, 98.018 55.161, 97.608 55.825 C 96.333 57.888, 95.290 56.246, 94.608 51.103 C 93.844 45.347, 89.954 40.452, 85.402 39.520 C 79.823 38.378, 77.702 37.489, 77.011 36 C 72.506 26.300, 71.223 24.463, 67.143 21.876 C 57.717 15.898, 47.968 17.747, 41.623 26.716 C 33.169 38.668, 34.331 50.052, 44.708 56.934 C 49.127 59.864, 50.061 60.091, 56.707 59.846 C 60.670 59.700, 64.233 59.900, 64.623 60.290 C 65.014 60.681, 64.401 61, 63.261 61 C 60.653 61, 52.503 67.723, 52.491 69.885 C 52.486 70.773, 51.902 72.522, 51.194 73.771 C 49.519 76.727, 50.778 79.024, 52.662 76.447 C 53.925 74.720, 54.135 74.706, 55.674 76.245 C 57.049 77.621, 57.109 78.164, 56.026 79.469 C 54.944 80.772, 55.001 81.344, 56.362 82.847 C 57.513 84.119, 58.009 86.568, 58.031 91.079 C 58.054 95.790, 58.705 98.811, 60.474 102.423 C 62.214 105.976, 62.623 107.836, 61.943 109.107 C 60.618 111.583, 60.770 116.660, 62.241 119.014 C 63.228 120.595, 63.228 121.405, 62.241 122.986 C 61.558 124.079, 61 126.335, 61 128 C 61 129.665, 61.558 131.921, 62.241 133.014 C 63.228 134.595, 63.228 135.405, 62.241 136.986 C 61.558 138.079, 61.061 140.216, 61.136 141.736 C 61.257 144.181, 61.323 144.233, 61.713 142.192 C 62.233 139.471, 65.673 139.564, 65.206 142.286 C 65.045 143.229, 65.382 144, 65.956 144 C 67.525 144, 67.211 140.252, 65.413 137.508 C 63.964 135.296, 63.964 134.889, 65.413 132.821 C 67.434 129.935, 67.442 125.604, 65.431 122.535 C 63.999 120.350, 64.007 119.919, 65.519 117.611 C 67.225 115.007, 66.808 109, 64.921 109 C 64.414 109, 64 108.089, 64 106.975 C 64 104.602, 66.349 103.543, 73.901 102.510 C 78.948 101.819, 79.243 101.893, 78.401 103.635 C 77.905 104.661, 77.500 113.375, 77.500 123 C 77.500 132.625, 77.114 141.287, 76.643 142.250 C 75.843 143.884, 76.987 144, 93.863 144 L 111.940 144 109.383 140.250 C 107.080 136.871, 106.867 135.758, 107.227 129 C 107.586 122.284, 110.384 113, 112.048 113 C 112.546 113, 115.811 125.198, 117.426 133.083 C 117.741 134.625, 117.157 137.231, 115.977 139.545 C 114.890 141.678, 114 143.553, 114 143.711 C 114 143.870, 118.162 143.957, 123.250 143.905 L 132.500 143.811 138.250 137.433 C 146.334 128.465, 145.893 124.399, 135.636 113.321 C 129.197 106.365, 129.031 105.494, 131.393 91 C 133.079 80.648, 134.818 74, 135.839 74 C 136.257 74, 137.153 74.553, 137.829 75.229 C 138.802 76.202, 139.578 75.836, 141.544 73.479 C 148.389 65.273, 152.281 55.107, 150.269 50.691 C 148.662 47.163, 142.932 46.253, 138.561 48.831 C 132.229 52.568, 132.787 49.543, 139.530 43.587 C 144.744 38.980, 146.557 37.923, 148.434 38.394 C 149.917 38.766, 152.931 38.005, 156.568 36.340 L 162.346 33.695 159.609 31.340 C 157.342 29.390, 157.146 28.881, 158.466 28.375 C 159.524 27.969, 159.848 27.097, 159.431 25.781 C 158.995 24.410, 159.684 22.831, 161.670 20.650 C 170.798 10.628, 170.847 9.781, 161.951 15.825 M 87 67.603 C 84.098 69.680, 82.645 70.037, 78.500 69.689 C 75.750 69.459, 72.516 68.939, 71.314 68.535 C 69.384 67.886, 69.045 68.245, 68.417 71.591 C 68.024 73.688, 68.166 76.601, 68.735 78.109 C 69.374 79.802, 69.410 81.190, 68.828 81.772 C 68.303 82.297, 68.195 84.988, 68.582 87.909 C 69.143 92.139, 69.573 92.993, 70.886 92.486 C 72.268 91.952, 75.767 91.118, 87.615 88.497 C 89.211 88.144, 90.398 86.147, 92.455 80.355 C 94.883 73.515, 95.006 72.583, 93.590 71.790 C 92.697 71.291, 92 69.607, 92 67.950 C 92 64.403, 91.518 64.369, 87 67.603 M 63.250 111.662 C 61.508 112.365, 61.684 115.665, 63.500 116.362 C 64.626 116.794, 65 116.197, 65 113.969 C 65 112.336, 64.888 111.036, 64.750 111.079 C 64.612 111.122, 63.938 111.385, 63.250 111.662 M 63.250 125.662 C 61.508 126.365, 61.684 129.665, 63.500 130.362 C 64.626 130.794, 65 130.197, 65 127.969 C 65 126.336, 64.888 125.036, 64.750 125.079 C 64.612 125.122, 63.938 125.385, 63.250 125.662" stroke="none" fill="black" fill-rule="evenodd"/>
</svg>