<svg xmlns="http://www.w3.org/2000/svg" width="192" height="144" viewBox="0 0 192 144" version="1.1">
	<path d="M 101 59.040 C 99.625 60.100, 97.375 61.137, 96 61.342 C 94.138 61.621, 93.576 62.240, 93.798 63.769 C 93.962 64.899, 93.623 66.115, 93.044 66.473 C 92.466 66.830, 92.274 68.242, 92.617 69.611 C 93.199 71.931, 93.048 72.051, 90.371 71.395 C 88.792 71.007, 87.350 70.310, 87.167 69.845 C 86.696 68.652, 83 68.789, 83 70 C 83 71.509, 80.879 71.201, 78.892 69.402 C 76.594 67.323, 75 68.387, 75 72 C 75 75.422, 76.508 76.653, 78.586 74.928 C 81.124 72.822, 82.423 75.187, 81.037 79.388 C 79.437 84.236, 80.226 85.068, 85.711 84.316 C 89.618 83.781, 90.244 83.921, 89.746 85.220 C 89.421 86.065, 89.530 88.416, 89.987 90.444 C 91.012 94.988, 87.138 107.494, 83.289 112.069 C 79.933 116.056, 80.767 119.010, 85.844 121.121 L 89.742 122.741 90.457 131.327 C 90.850 136.049, 90.943 140.284, 90.662 140.738 C 90.382 141.192, 88.663 141.676, 86.842 141.815 C 85.022 141.954, 83.098 142.502, 82.566 143.034 C 81.945 143.655, 85.080 144, 91.359 144 C 97.610 144, 100.896 143.641, 100.500 143 C 100.160 142.450, 98.832 142, 97.548 142 C 94.550 142, 94.281 141.163, 94.101 131.245 L 93.951 123 96.940 123 C 101.155 123, 102.407 125.892, 102.457 135.749 L 102.500 143.999 105.250 143.999 C 106.763 144, 107.986 143.662, 107.968 143.250 C 107.951 142.838, 107.232 137.775, 106.371 132 C 105.511 126.225, 104.857 120.150, 104.919 118.500 C 105.078 114.259, 102.934 97.700, 102.070 96.500 C 100.951 94.945, 100.922 86, 102.036 86 C 103.794 86, 107.019 79.728, 105.934 78.421 C 104.801 77.055, 104.951 71.305, 106.185 68.794 C 106.741 67.662, 106.384 66.036, 105.126 63.966 C 104.082 62.250, 103.454 59.980, 103.730 58.923 C 104.341 56.589, 104.167 56.596, 101 59.040 M 39.681 60.715 C 39.327 62.406, 37.688 64.446, 35.507 65.908 C 33.016 67.578, 32.235 68.635, 32.958 69.358 C 33.531 69.931, 34 71.477, 34 72.792 C 34 74.108, 34.858 76.275, 35.906 77.608 C 37.799 80.015, 37.793 80.073, 34.977 85.887 C 32.764 90.455, 31.081 92.391, 27.320 94.696 C 20.802 98.690, 14.016 100.404, 12.567 98.423 C 11.669 97.197, 10.578 97.151, 5.700 98.131 L -0.101 99.296 0.200 103.221 C 0.493 107.048, 0.672 107.219, 7.500 110.179 C 11.350 111.848, 17.803 114.741, 21.839 116.607 C 25.876 118.473, 29.588 120, 30.089 120 C 30.590 120, 31 120.717, 31 121.594 C 31 122.470, 31.925 123.429, 33.057 123.725 C 34.514 124.106, 34.901 124.735, 34.386 125.881 C 33.987 126.772, 33.499 129.300, 33.302 131.500 C 32.986 135.039, 33.413 135.989, 37.009 139.750 C 40.259 143.150, 41.765 144, 44.536 144 C 48.491 144, 48.745 143.459, 46.146 140.564 C 43.726 137.869, 40.587 128.013, 41.772 126.828 C 42.268 126.332, 43.860 125.712, 45.310 125.449 C 49.844 124.627, 53 123.102, 53 121.735 C 53 119.623, 47.034 101.139, 46.183 100.613 C 45.757 100.350, 45.844 96.691, 46.378 92.483 C 47.175 86.196, 47.094 84.656, 45.924 83.840 C 44.818 83.070, 44.784 82.733, 45.768 82.335 C 48.864 81.081, 50.106 78.759, 49.356 75.626 C 48.944 73.907, 48.670 71.358, 48.747 69.963 C 48.842 68.228, 48.192 67.121, 46.693 66.463 C 45.487 65.933, 44.362 64.534, 44.194 63.354 C 44.026 62.174, 43.073 60.471, 42.076 59.569 C 40.373 58.027, 40.229 58.096, 39.681 60.715 M 160 61.772 C 160 62.249, 158.481 64.414, 156.625 66.583 C 153.262 70.512, 153.254 70.547, 154.207 76.847 C 154.733 80.324, 154.880 83.453, 154.533 83.800 C 154.186 84.147, 151.722 84.336, 149.057 84.220 C 143.308 83.970, 142.396 85.252, 144.153 91.117 C 145.578 95.871, 147.563 97.837, 149.242 96.158 C 152.230 93.170, 152.243 96.423, 149.318 115.417 L 147.637 126.334 150.908 129.065 C 153.549 131.269, 153.992 132.153, 153.206 133.648 C 152.670 134.667, 151.915 137.412, 151.528 139.750 C 150.884 143.637, 151.006 144, 152.948 144 C 154.528 144, 155.593 142.785, 157.112 139.250 C 158.235 136.637, 159.215 133.713, 159.289 132.750 C 159.376 131.638, 160.252 131, 161.694 131 C 164.151 131, 164.814 132.576, 165.271 139.500 C 165.488 142.801, 165.931 143.557, 167.807 143.825 C 170.014 144.140, 170.074 143.929, 169.900 136.442 C 169.758 130.309, 170.046 128.554, 171.312 127.846 C 176.549 124.914, 176.587 123.231, 171.578 116 C 169.863 113.525, 167.372 109.413, 166.042 106.862 C 163.727 102.425, 163.696 102.113, 165.311 99.648 C 166.240 98.230, 167 95.930, 167 94.535 C 167 91.612, 168.496 91.335, 172.636 93.493 C 175.547 95.010, 180.620 94.709, 184.314 92.799 C 185.505 92.183, 186.591 92.245, 187.475 92.979 C 189.271 94.470, 190.603 92.432, 189.053 90.564 C 187.829 89.090, 184.909 87.886, 178 86.010 C 169.084 83.588, 169.024 83.515, 174 81.221 C 178.402 79.191, 178.424 79.158, 175 79.714 C 173.075 80.026, 170.713 80.684, 169.750 81.176 C 168.470 81.830, 168 81.674, 168 80.594 C 168 79.782, 168.413 78.863, 168.918 78.551 C 169.423 78.239, 169.813 75.487, 169.786 72.435 C 169.749 68.350, 169.398 67.017, 168.455 67.379 C 167.750 67.649, 165.560 66.303, 163.587 64.387 C 161.614 62.471, 160 61.294, 160 61.772 M 92 75 C 92 75.550, 92.450 76, 93 76 C 93.550 76, 94 75.550, 94 75 C 94 74.450, 93.550 74, 93 74 C 92.450 74, 92 74.450, 92 75 M 180 78 C 178.793 78.780, 178.951 78.972, 180.809 78.985 C 182.097 78.993, 182.845 78.558, 182.500 78 C 181.757 76.798, 181.861 76.798, 180 78 M 29.077 99.060 C 26.669 100.677, 24.879 102.033, 25.100 102.074 C 25.320 102.115, 26.415 102.322, 27.533 102.535 C 30.087 103.020, 35.287 98.959, 34.223 97.310 C 33.672 96.455, 32.220 96.949, 29.077 99.060" stroke="none" fill="black" fill-rule="evenodd"/>
</svg>