<svg xmlns="http://www.w3.org/2000/svg" width="192" height="144" viewBox="0 0 192 144" version="1.1">
	<path d="M 0 72 L 0 144 31.049 144 L 62.098 144 58.624 137.750 C 54.798 130.866, 50.692 119.762, 48.548 110.500 C 43.969 90.722, 43.972 61.366, 48.557 42.500 C 53.216 23.323, 53.474 21.916, 52.460 21.189 C 51.932 20.810, 50.906 19.741, 50.179 18.812 C 49.026 17.338, 49.250 16.922, 51.945 15.528 C 54.849 14.027, 55.634 14.084, 65.192 16.500 C 77.937 19.722, 90.040 23.755, 92 25.434 C 93.512 26.729, 113.507 32.158, 130.917 36.001 L 140.335 38.079 143.111 35.040 C 144.638 33.368, 146.363 32, 146.944 32 C 147.525 32, 147.999 31.438, 147.998 30.750 C 147.993 27.958, 157.119 16.194, 160.283 14.915 C 162.052 14.200, 165.300 11.766, 167.500 9.506 C 169.700 7.247, 173.292 4.184, 175.482 2.699 L 179.464 -0 89.732 -0 L 0 0 0 72 M 81.053 44.401 C 74.894 62.971, 73.935 69.001, 73.949 89.057 C 73.963 109.943, 75.047 116.110, 81.573 132.417 L 86.208 144 122.215 144 L 158.222 144 163.204 139.829 C 165.944 137.535, 171.361 131.857, 175.240 127.212 L 182.295 118.767 170.147 107.101 C 157.338 94.800, 156.673 93.622, 159.033 87.412 C 159.602 85.918, 162.302 82.115, 165.033 78.962 C 169.902 73.341, 171.622 68.198, 168.750 67.848 C 168.063 67.764, 166.919 67.647, 166.208 67.589 C 165.498 67.530, 164.560 66.907, 164.125 66.203 C 163.530 65.240, 162.657 65.180, 160.602 65.961 C 159.099 66.533, 157.702 67, 157.496 67 C 156.934 67, 155.552 57.652, 155.943 56.500 C 156.130 55.950, 156.245 54.688, 156.200 53.696 C 156.154 52.704, 156.765 51.644, 157.558 51.339 C 158.351 51.035, 159 50.159, 159 49.393 C 159 47.552, 154.986 47.605, 151.364 49.494 C 149.789 50.315, 147.262 50.990, 145.750 50.994 C 143.368 50.999, 143 50.604, 143 48.039 C 143 44.699, 144.549 45.320, 123 40.018 C 116.125 38.327, 106.225 35.855, 101 34.526 C 95.775 33.196, 90.052 32.152, 88.282 32.206 C 85.073 32.302, 85.054 32.335, 81.053 44.401 M 175.891 86.595 C 173.476 88.708, 171.337 90.540, 171.139 90.664 C 170.696 90.940, 180.301 101.970, 181 101.987 C 182.304 102.020, 182.402 86.541, 181.113 84.237 C 180.436 83.028, 179.462 83.468, 175.891 86.595" stroke="none" fill="black" fill-rule="evenodd"/>
</svg>