<svg xmlns="http://www.w3.org/2000/svg" width="192" height="144" viewBox="0 0 192 144" version="1.1">
	<path d="M 90.658 21.675 C 90.296 22.037, 90 23.132, 90 24.108 C 90 26.790, 88.108 27.408, 85.931 25.437 C 83.510 23.246, 82.453 24.109, 84.005 27.009 C 84.988 28.846, 84.820 29.562, 82.942 31.562 C 79.720 34.992, 79.180 42.472, 81.785 47.579 C 83.647 51.229, 92.776 60, 94.714 60 C 96.270 60, 105.689 70.425, 108.064 74.776 C 109.347 77.128, 111.545 79.648, 112.949 80.378 C 123.367 85.792, 132.174 90.934, 135.967 93.818 C 138.424 95.686, 141.408 97.585, 142.598 98.037 C 144.697 98.835, 152.035 97.298, 153.600 95.733 C 154.003 95.330, 155.638 95, 157.232 95 C 163.272 95, 166.148 91.220, 161.856 88.923 C 159.739 87.790, 159.752 87.745, 162.856 85.315 C 166.443 82.508, 166.636 81.779, 164.385 79.528 C 162.929 78.072, 162.921 77.744, 164.309 76.206 C 166.419 73.868, 167.580 62.953, 166.027 60.051 C 165.368 58.819, 162.811 56.919, 160.346 55.829 L 155.862 53.846 143.016 55.997 C 130.030 58.173, 124.394 58.327, 124.628 56.500 C 124.698 55.950, 125.046 53.868, 125.400 51.872 C 125.963 48.706, 125.766 48.172, 123.851 47.671 L 121.658 47.098 124.079 45.069 C 125.651 43.752, 126.124 42.770, 125.427 42.270 C 124.837 41.847, 124.064 40.712, 123.708 39.750 C 122.800 37.287, 119.293 37.576, 115.948 40.390 C 113.348 42.578, 112.702 42.694, 108.318 41.759 C 101.196 40.240, 98.728 38.304, 99.264 34.658 C 99.578 32.516, 98.897 30.466, 96.879 27.475 C 93.606 22.625, 91.588 20.745, 90.658 21.675 M 188.116 49.266 C 184.599 56.339, 184.208 58.518, 186.621 57.592 C 188.409 56.906, 188.430 56.788, 185.126 65.972 C 184.043 68.982, 183.373 71.795, 183.637 72.222 C 183.902 72.650, 185.891 73, 188.059 73 L 192 73 192 58 C 192 49.750, 191.827 43, 191.616 43 C 191.405 43, 189.830 45.820, 188.116 49.266" stroke="none" fill="black" fill-rule="evenodd"/>
</svg>