<svg xmlns="http://www.w3.org/2000/svg" width="192" height="144" viewBox="0 0 192 144" version="1.1">
	<path d="M 77.500 3.491 C 76.950 3.675, 75.251 4.101, 73.725 4.438 C 68.997 5.482, 67 8.362, 67 14.134 C 67 21.318, 68.734 26.329, 72.911 31.212 C 76.280 35.151, 76.500 35.833, 76.500 42.330 C 76.500 50.659, 77.012 51.145, 88.208 53.428 C 100.841 56.004, 104.997 55.209, 105.004 50.215 C 105.012 44.185, 111.134 38.143, 119.500 35.906 C 121.700 35.318, 125.441 33.713, 127.813 32.339 C 138.612 26.086, 138.692 13.839, 127.924 15.283 C 124.349 15.763, 123.227 15.397, 119.456 12.518 C 115.063 9.165, 105.987 5.856, 96.114 4.008 C 91.064 3.063, 79.728 2.748, 77.500 3.491 M 126.036 19.456 C 125.372 20.257, 125.088 21.333, 125.405 21.846 C 125.722 22.360, 124.823 24.855, 123.406 27.390 C 121.988 29.926, 121.165 32, 121.577 32 C 121.988 32, 124.215 30.892, 126.525 29.538 C 130.829 27.016, 133.711 22.296, 132.645 19.518 C 131.904 17.586, 127.622 17.546, 126.036 19.456" stroke="none" fill="black" fill-rule="evenodd"/>
</svg>