<svg xmlns="http://www.w3.org/2000/svg" width="192" height="144" viewBox="0 0 192 144" version="1.1">
	<path d="M 168 0.899 C 167.175 1.359, 163.350 2.036, 159.500 2.401 C 146.784 3.608, 132.362 12.386, 129.181 20.856 C 128.532 22.585, 127.485 25.375, 126.855 27.056 C 125.610 30.383, 117.977 35, 113.724 35 C 109.318 35, 105.198 40.841, 108.310 42.676 C 109.079 43.129, 110.240 44.513, 110.889 45.750 C 111.806 47.496, 112.943 48, 115.968 48 C 118.801 48, 120.017 48.478, 120.422 49.750 C 121.446 52.972, 126.050 57.119, 127.938 56.520 C 128.929 56.205, 130.284 56.638, 130.997 57.496 C 132.049 58.764, 131.985 59.359, 130.638 60.847 C 128.890 62.779, 128.459 65, 129.832 65 C 131.407 65, 137.026 74.768, 136.396 76.412 C 135.926 77.636, 136.199 77.861, 137.533 77.349 C 138.648 76.921, 139.752 77.308, 140.556 78.407 C 141.752 80.044, 141.880 80.039, 142.854 78.320 C 143.846 76.569, 143.937 76.572, 145.284 78.394 C 146.640 80.228, 146.738 80.212, 148.370 77.894 C 149.793 75.873, 150.206 75.734, 151.013 77 C 151.539 77.825, 151.976 78.993, 151.985 79.596 C 152.021 82.168, 148.709 86.930, 145.188 89.370 C 142.087 91.519, 140.259 92, 135.196 92 C 128.705 92, 128.437 92.226, 128.948 97.250 C 129.091 98.660, 128.332 99, 125.044 99 C 121.325 99, 121.008 99.200, 121.477 101.250 C 121.928 103.221, 121.124 103.897, 115.003 106.698 L 108.014 109.895 106.257 107.394 C 102.062 101.421, 87.147 82.372, 85.885 81.374 C 83.706 79.651, 66.434 75.755, 61.217 75.809 C 51.980 75.905, 42.850 77.228, 42.345 78.543 C 41.717 80.179, 43.469 83.551, 47.147 87.785 C 48.716 89.591, 50 92.190, 50 93.560 C 50 95.527, 50.630 96.176, 53 96.650 C 54.650 96.980, 56 97.707, 56 98.266 C 56 98.914, 59.005 99.094, 64.296 98.764 L 72.592 98.247 74.999 101.873 C 76.322 103.868, 80.019 109.775, 83.214 115 C 96.607 136.902, 101.756 139.893, 116.940 134.588 C 120.737 133.262, 124.067 132.400, 124.341 132.674 C 124.614 132.947, 124.586 135.608, 124.279 138.586 L 123.720 144 143.324 144 L 162.928 144 164.771 137.750 L 166.613 131.500 172.557 131.820 C 180.368 132.241, 185.135 133.532, 188.422 136.117 C 189.898 137.278, 191.315 138.018, 191.571 137.762 C 191.827 137.506, 191.916 126.542, 191.768 113.398 L 191.500 89.500 189.715 97.101 C 188.593 101.877, 186.809 106.226, 184.912 108.805 C 182.157 112.552, 181.681 112.812, 179.447 111.794 C 177.442 110.880, 176.994 109.941, 176.967 106.589 C 176.949 104.340, 175.437 98.566, 173.607 93.758 L 170.281 85.016 173.641 85.433 C 176.782 85.822, 177 85.660, 177 82.925 C 177 79.340, 178.237 79.186, 180.408 82.500 C 182.591 85.832, 184 85.659, 184 82.059 C 184 78.784, 185.603 77.203, 187.251 78.851 C 188.020 79.620, 188.853 79.323, 190.164 77.811 C 191.876 75.837, 192 73.132, 192 37.847 L 192 0 180.750 0.030 C 174.563 0.047, 168.825 0.438, 168 0.899" stroke="none" fill="black" fill-rule="evenodd"/>
</svg>