<svg xmlns="http://www.w3.org/2000/svg" width="192" height="144" viewBox="0 0 192 144" version="1.1">
	<path d="M 0 72 L 0 144 6.500 144 L 13 144 13 72 L 13 0 6.500 0 L 0 0 0 72 M 87.006 1.750 C 87.009 2.712, 87.692 8, 88.524 13.500 C 89.945 22.890, 89.780 30.120, 88.083 32.866 C 87.578 33.682, 86.580 33.780, 84.940 33.174 C 82.513 32.276, 81.051 33.315, 76 39.529 C 74.641 41.201, 74.665 41.313, 76.250 40.719 C 77.628 40.202, 78 40.600, 78 42.588 C 78 44.998, 78.102 45.042, 80.223 43.557 C 82.537 41.935, 87.730 41.495, 89.557 42.765 C 91.072 43.818, 93.397 49.937, 92.589 50.744 C 92.215 51.118, 91.011 50.864, 89.914 50.178 C 88.816 49.493, 87.487 49.199, 86.959 49.525 C 86.432 49.851, 86 49.647, 86 49.071 C 86 47.663, 81.842 48.176, 80.135 49.794 C 78.187 51.639, 80.958 54.453, 86.872 56.636 C 93.174 58.962, 94.318 59.912, 92.890 61.633 C 92.266 62.385, 90.798 63.041, 89.628 63.091 C 88.457 63.140, 85.250 64.396, 82.500 65.882 C 78.518 68.032, 77.239 69.374, 76.217 72.472 C 74.576 77.443, 76.109 79.253, 82.205 79.544 C 92.717 80.046, 95.868 81.050, 98.059 84.595 C 101.298 89.837, 104.674 92, 109.612 92 C 114.367 92, 115.908 90.544, 118.122 83.955 C 118.761 82.055, 120.005 79.667, 120.888 78.649 C 122.414 76.889, 122.321 76.815, 118.997 77.149 C 116.112 77.439, 115.455 77.150, 115.244 75.500 C 114.880 72.654, 115.693 71.901, 123.106 68.216 C 133.388 63.104, 133.617 62.871, 131.517 59.667 C 130.081 57.475, 129.018 57, 125.552 57 C 123.232 57, 121.051 56.718, 120.706 56.373 C 119.272 54.938, 123.424 48.144, 128.770 43.177 C 132.861 39.376, 133.871 37.987, 132.302 38.320 C 130.170 38.772, 130.192 38.629, 133.052 33.562 C 136.700 27.097, 136.946 21.855, 133.750 18.660 C 130.300 15.211, 126.627 15.924, 121.290 21.079 L 116.714 25.500 117.216 22.500 C 117.491 20.850, 118.054 18.713, 118.466 17.750 C 119.760 14.722, 116.203 15.707, 114.592 18.823 C 113.789 20.375, 112.362 22.284, 111.422 23.065 C 109.877 24.347, 109.780 24.268, 110.423 22.242 C 111.865 17.698, 109.335 20.168, 107.597 25 C 106.608 27.750, 105.394 30, 104.900 30 C 104.405 30, 104 28.048, 104 25.663 C 104 22.199, 104.807 20.199, 108.006 15.731 C 111.299 11.132, 116 2.127, 116 0.417 C 116 0.188, 109.475 0, 101.500 0 C 88.355 0, 87.001 0.164, 87.006 1.750 M 179 72 L 179 144 185.500 144 L 192 144 192 72 L 192 0 185.500 0 L 179 0 179 72" stroke="none" fill="black" fill-rule="evenodd"/>
</svg>