<svg xmlns="http://www.w3.org/2000/svg" width="192" height="144" viewBox="0 0 192 144" version="1.1">
	<path d="M 68.768 5 C 68.081 6.100, 66.952 7, 66.259 7 C 64.776 7, 64.581 8.623, 65.962 9.477 C 69.533 11.684, 57.317 21.401, 51.250 21.180 C 48.439 21.077, 48 21.390, 48 23.500 C 48 24.842, 48.869 27.486, 49.930 29.376 C 51.706 32.537, 51.747 33.190, 50.444 37.520 L 49.027 42.227 52.428 45.628 C 54.663 47.863, 56.061 50.403, 56.506 53.036 C 57.026 56.111, 57.870 57.398, 60.134 58.569 L 63.085 60.095 57.044 64.129 C 51.879 67.578, 51.088 68.502, 51.589 70.500 C 52.196 72.916, 50.880 80.795, 48.416 89.500 C 47.179 93.870, 46.402 94.832, 42.250 97.132 C 39.638 98.580, 36.375 100.094, 35 100.497 C 33.625 100.900, 31.453 102.191, 30.173 103.365 C 28.338 105.048, 26.012 105.646, 19.173 106.188 C 14.403 106.567, 8.784 107.182, 6.687 107.555 C 3.350 108.149, 2.805 107.969, 2.320 106.117 C 0.872 100.577, 0 105.327, 0 118.763 L 0 133.527 8.750 136.464 C 13.563 138.080, 19.875 140.437, 22.779 141.701 C 27.976 143.965, 28.632 144, 65.500 144 L 102.943 144 108.502 141.542 C 113.143 139.489, 114.382 138.375, 116.008 134.792 C 117.119 132.344, 117.966 128.274, 117.978 125.317 C 117.997 120.817, 117.704 120.038, 115.750 119.402 C 112.901 118.474, 99.153 118.743, 92.198 119.864 L 86.897 120.718 85.055 117.109 C 84.042 115.124, 82.263 112.641, 81.103 111.591 L 78.992 109.683 81.945 107.887 C 85.804 105.541, 87.417 99.717, 86.522 91.362 C 86.127 87.672, 86.272 84.359, 86.880 83.225 C 88.113 80.921, 88.475 70.767, 87.485 66.250 C 86.814 63.186, 86.523 63, 82.387 63 C 77.531 63, 76.439 61.264, 80.750 60.398 C 84.498 59.645, 86.378 58.109, 88.444 54.112 C 90.323 50.475, 90.164 48.283, 87.364 39.273 C 85.865 34.445, 85.865 33.855, 87.370 31.558 C 89.409 28.446, 89.441 27, 87.469 27 C 86.626 27, 85.678 26.325, 85.362 25.500 C 85.045 24.675, 84.247 24, 83.589 24 C 82.332 24, 76 17.912, 76 16.702 C 76 16.316, 76.666 16, 77.481 16 C 78.295 16, 79.262 14.805, 79.628 13.344 C 80.351 10.465, 78.516 8.419, 74.250 7.348 C 72.909 7.011, 72 6.019, 72 4.892 C 72 2.420, 70.345 2.475, 68.768 5 M 72.500 14 C 72.840 14.550, 73.316 15, 73.559 15 C 73.802 15, 74 14.550, 74 14 C 74 13.450, 73.523 13, 72.941 13 C 72.359 13, 72.160 13.450, 72.500 14 M 181.984 23.905 C 181.168 24.232, 180.353 25.400, 180.174 26.500 C 179.695 29.437, 176.625 32.174, 173.613 32.348 C 172.076 32.437, 170.746 33.229, 170.421 34.250 C 170.116 35.212, 169.446 36, 168.933 36 C 167.264 36, 167.949 39.644, 169.961 41.465 C 171.332 42.706, 171.904 44.482, 171.862 47.370 C 171.829 49.641, 172.554 53.680, 173.473 56.345 C 174.392 59.009, 174.999 61.291, 174.822 61.416 C 174.645 61.540, 172.250 62.589, 169.500 63.745 C 166.750 64.902, 164.375 66.451, 164.222 67.187 C 163.954 68.480, 165.757 71.353, 169.115 74.984 C 170.189 76.145, 170.438 77.252, 169.859 78.288 C 169.380 79.144, 168.285 83.546, 167.427 88.070 C 166.073 95.206, 166.056 96.485, 167.298 97.727 C 168.540 98.969, 168.483 100.099, 166.865 106.262 C 165.435 111.707, 165 116.941, 165 128.682 L 165 144 178.458 144 L 191.915 144 191.950 86.171 L 191.984 28.343 189.759 28.421 C 188.535 28.465, 187.470 27.938, 187.392 27.250 C 187.314 26.563, 187.194 25.602, 187.125 25.117 C 186.955 23.916, 183.807 23.174, 181.984 23.905 M 46.701 106.234 C 43.527 107.937, 41.283 109.671, 41.715 110.088 C 42.723 111.061, 48 110.049, 48 108.883 C 48 108.398, 48.870 108, 49.933 108 C 51.605 108, 53.845 104.512, 52.827 103.493 C 52.631 103.298, 49.874 104.531, 46.701 106.234" stroke="none" fill="black" fill-rule="evenodd"/>
</svg>