<svg xmlns="http://www.w3.org/2000/svg" width="192" height="144" viewBox="0 0 192 144" version="1.1">
	<path d="M 0 56.937 L 0 113.874 3.750 113.383 C 5.813 113.113, 8.919 112.679, 10.653 112.419 C 14.451 111.849, 15.989 109.071, 12.948 108.276 C 11.503 107.898, 11.096 107.254, 11.585 106.119 C 13.688 101.247, 15.852 93.790, 16.016 90.854 C 16.301 85.734, 16.119 85, 14.559 85 C 12.148 85, 11.855 83.274, 13.591 79.294 C 14.697 76.759, 15.212 72.973, 15.143 67.887 C 15.024 59.078, 16.665 56.376, 21.409 57.566 C 24.819 58.422, 26.294 61.280, 26.537 67.500 C 26.775 73.596, 28.258 77.520, 30.963 79.209 C 33.575 80.840, 33.546 82.504, 30.874 84.375 C 28.903 85.756, 28.788 86.505, 29.283 94.682 C 29.577 99.532, 30.153 104.579, 30.564 105.897 C 31.250 108.103, 31.098 108.241, 28.655 107.628 C 25.610 106.864, 24.950 108.884, 27.542 111.035 C 28.391 111.739, 28.728 112.639, 28.292 113.035 C 27.857 113.432, 21.313 115.009, 13.750 116.541 L 0 119.326 0 131.663 L 0 144 31.283 144 L 62.565 144 66.375 132.425 C 68.470 126.059, 69.983 120.650, 69.738 120.404 C 69.492 120.159, 65.288 121.815, 60.396 124.085 C 41.248 132.968, 16.723 142, 11.747 142 C 8.700 142, 5 140.446, 5 139.166 C 5 138.746, 6.687 137.834, 8.750 137.140 C 16 134.700, 20.518 132.494, 22.334 130.507 C 23.883 128.811, 24.082 128.771, 23.615 130.250 C 23.311 131.212, 23.207 132, 23.384 132 C 24.188 132, 45.501 122.745, 54.500 118.488 C 60 115.886, 66.419 112.926, 68.763 111.909 C 71.221 110.843, 73.388 109.094, 73.880 107.780 C 76.205 101.567, 76.177 101.316, 73.025 100.010 C 70.610 99.010, 69.695 99.008, 68.499 100.001 C 66.975 101.266, 66.642 100.807, 66.932 97.844 C 67.045 96.682, 63.872 94.549, 56.297 90.694 C 40.061 82.432, 37.017 80.621, 37.008 79.219 C 36.992 76.658, 39.750 76.995, 45.150 80.213 C 55.619 86.453, 69.277 92.584, 69.736 91.250 C 69.973 90.563, 70.804 90, 71.583 90 C 73.371 90, 73.360 89.783, 71.285 83.940 C 69.619 79.250, 69.633 78.916, 71.785 72.235 C 73.003 68.453, 74 63.997, 74 62.332 C 74 59.236, 78.371 53.768, 83.571 50.362 C 84.907 49.486, 86 48.196, 86 47.493 C 86 46.791, 87.237 45.906, 88.749 45.527 C 91.379 44.867, 91.415 44.776, 89.581 43.435 C 88.330 42.521, 87.265 42.365, 86.514 42.988 C 85.760 43.614, 84.612 43.416, 83.182 42.415 C 77.719 38.588, 82.469 20.558, 90.568 14.380 C 95.494 10.623, 102.317 10.380, 106.938 13.796 C 108.646 15.058, 110.434 15.850, 110.912 15.555 C 111.842 14.980, 117 2.640, 117 0.989 C 117 0.348, 96.419 0, 58.500 0 L 0 0 0 56.937 M 119 2.480 C 119 3.844, 119.741 6.812, 120.647 9.075 L 122.294 13.191 119.518 15.404 C 116.891 17.499, 116.748 18.033, 116.835 25.468 C 116.920 32.807, 116.733 33.540, 113.963 36.695 C 112.333 38.551, 111 40.715, 111 41.503 C 111 42.367, 110.404 42.708, 109.500 42.362 C 108.675 42.045, 108 42.284, 108 42.893 C 108 43.502, 107.100 44, 106 44 C 104.900 44, 104 44.345, 104 44.766 C 104 46.195, 114.796 52, 117.452 52 C 120.317 52, 123.566 54.872, 126.112 59.653 C 127.682 62.602, 127.966 62.698, 137.016 63.340 C 142.126 63.703, 148.565 64, 151.325 64 C 154.496 64, 156.985 64.582, 158.090 65.581 C 159.706 67.044, 161.026 66.458, 175.668 57.791 L 191.500 48.420 191.768 24.210 L 192.036 0 155.518 0 L 119 0 119 2.480 M 177.250 61.580 C 169.412 66.287, 163 70.767, 163 71.536 C 163 73.306, 156.916 80, 155.307 80 C 154.643 80, 153.599 79.213, 152.987 78.250 C 152.054 76.783, 151.965 76.934, 152.441 79.189 C 153.106 82.346, 151.755 83.615, 149.991 81.489 C 149.311 80.670, 148.272 80, 147.682 80 C 145.860 80, 128.647 89.122, 126 91.491 C 124.625 92.721, 120.575 95.184, 117 96.965 C 113.425 98.745, 110.352 100.342, 110.171 100.513 C 109.990 100.684, 110.625 103.306, 111.581 106.340 L 113.320 111.855 122.910 116.098 C 128.184 118.431, 138.575 122.684, 146 125.549 C 158.778 130.478, 162.262 132.941, 157.701 133.819 C 155.027 134.334, 143.032 130.475, 129.688 124.808 C 123.191 122.048, 117.658 120.008, 117.392 120.274 C 117.127 120.540, 118.182 122.950, 119.738 125.629 C 121.293 128.308, 123.901 133.525, 125.533 137.223 L 128.500 143.946 160.250 143.973 L 192 144 192 98.500 C 192 73.475, 191.887 53.005, 191.750 53.010 C 191.613 53.016, 185.088 56.872, 177.250 61.580 M 109.510 66.984 C 109.142 67.579, 108.815 72.551, 108.783 78.033 C 108.738 85.749, 108.417 88, 107.362 88 C 106.566 88, 106 89.067, 106 90.567 C 106 93.658, 107.257 93.414, 115.803 88.666 C 118.936 86.925, 121.950 85.491, 122.500 85.481 C 123.454 85.462, 126.711 83.829, 139 77.206 C 147.359 72.701, 146.422 71.506, 134.500 71.468 C 124.594 71.435, 114.522 69.508, 111.604 67.086 C 110.598 66.251, 109.981 66.221, 109.510 66.984 M 80.627 75.446 C 78.678 78.421, 79.740 83.223, 81.799 80.743 C 83.434 78.772, 84.509 73, 83.240 73 C 82.685 73, 81.509 74.101, 80.627 75.446 M 81.500 88 C 81.840 88.550, 82.316 89, 82.559 89 C 82.802 89, 83 88.550, 83 88 C 83 87.450, 82.523 87, 81.941 87 C 81.359 87, 81.160 87.450, 81.500 88 M 73 92.441 C 73 93.298, 73.450 94, 74 94 C 74.550 94, 75 93.577, 75 93.059 C 75 92.541, 74.550 91.840, 74 91.500 C 73.450 91.160, 73 91.584, 73 92.441 M 21.638 107.500 C 21.322 108.325, 20.336 109, 19.448 109 C 17.083 109, 18.279 111.444, 20.828 111.820 C 22.655 112.088, 23 111.651, 23 109.070 C 23 105.713, 22.531 105.173, 21.638 107.500 M 15.667 125.667 C 14.182 127.151, 15.140 129, 17.393 129 C 19.689 129, 21.510 126.843, 20.264 125.598 C 19.460 124.793, 16.495 124.838, 15.667 125.667" stroke="none" fill="black" fill-rule="evenodd"/>
</svg>