<svg xmlns="http://www.w3.org/2000/svg" width="192" height="144" viewBox="0 0 192 144" version="1.1">
	<path d="M 63.755 4.805 C 65.034 18.110, 58.973 34.038, 48.712 44.341 C 45.295 47.772, 40.700 51.461, 38.500 52.539 C 36.300 53.618, 34.275 54.744, 34 55.042 C 33.363 55.733, 27.035 57.577, 20.132 59.084 C 14.923 60.221, 5.308 59.908, 1.750 58.486 C 0.100 57.826, 0 60.239, 0 100.893 L 0 144 53.858 144 L 107.715 144 108.336 138.061 C 108.677 134.794, 110.347 128.157, 112.045 123.311 C 116.324 111.105, 120.974 90.617, 120.988 83.905 C 120.997 79.570, 120.550 77.902, 119 76.500 C 116.862 74.565, 116.291 69.556, 118.083 68.449 C 118.678 68.081, 119.991 65.854, 121 63.500 C 122.009 61.146, 123.322 58.919, 123.917 58.551 C 124.513 58.183, 125 56.757, 125 55.382 C 125 54.007, 124.622 53.116, 124.159 53.402 C 123.696 53.688, 122.333 52.589, 121.129 50.961 C 119.690 49.015, 119.379 47.992, 120.220 47.978 C 120.924 47.966, 120.445 47.144, 119.155 46.152 C 117.745 45.067, 116.855 43.382, 116.922 41.924 C 117.222 35.377, 117.135 33.273, 116.454 30.612 L 115.714 27.724 119.543 28.442 C 121.649 28.837, 126.310 30.137, 129.901 31.330 C 137.190 33.752, 140.511 37.338, 141.507 43.862 C 141.812 45.863, 142.725 49.525, 143.536 52 C 144.347 54.475, 145.013 58.300, 145.016 60.500 C 145.019 62.700, 145.692 66.709, 146.511 69.409 C 147.330 72.109, 148 76.672, 148 79.550 C 148 82.626, 148.815 86.577, 149.978 89.141 C 153.235 96.319, 152.315 112.193, 149 106 C 148.115 104.347, 147.573 104.073, 147.004 104.993 C 146.575 105.688, 145.675 105.917, 145.005 105.503 C 143.104 104.328, 144.683 110.091, 149.249 120.987 C 151.442 126.219, 154.420 133.541, 155.868 137.257 L 158.500 144.014 175.500 143.757 L 192.500 143.500 192.825 129 C 193.003 121.025, 192.837 88.737, 192.455 57.250 L 191.761 0 127.527 -0 L 63.294 -0 63.755 4.805 M 0.459 101 C 0.459 124.925, 0.589 134.713, 0.749 122.750 C 0.908 110.788, 0.908 91.213, 0.749 79.250 C 0.589 67.288, 0.459 77.075, 0.459 101" stroke="none" fill="black" fill-rule="evenodd"/>
</svg>