<svg xmlns="http://www.w3.org/2000/svg" width="192" height="144" viewBox="0 0 192 144" version="1.1">
	<path d="M 104 34.411 C 104 35.187, 102.585 37.013, 100.856 38.467 C 98.497 40.452, 97.998 41.398, 98.856 42.256 C 100.338 43.738, 100.320 49.472, 98.821 53.617 C 97.767 56.533, 97.913 57.279, 100.206 60.688 C 103.182 65.113, 104.452 69.602, 102.985 70.509 C 102.422 70.857, 100.830 73.376, 99.446 76.107 C 98.062 78.837, 95.371 82.798, 93.465 84.907 C 89.196 89.632, 89.113 91.490, 93.081 93.542 C 95.323 94.701, 95.979 95.593, 95.489 96.818 C 95.119 97.743, 94.389 101.650, 93.868 105.500 C 93.346 109.350, 92.488 113.804, 91.960 115.398 C 90.714 119.163, 92.100 120.833, 97.144 121.639 C 99.280 121.981, 100.968 122.764, 100.895 123.380 C 100.457 127.088, 101.284 127.996, 107 130.080 C 110.300 131.284, 113 132.658, 113 133.134 C 113 133.610, 113.942 134, 115.094 134 C 116.346 134, 117.397 134.803, 117.710 136 C 118.261 138.104, 119.632 138.463, 122.668 137.296 C 124.268 136.681, 124.184 136.517, 122.005 136.002 C 118.754 135.233, 118.223 132.233, 120.995 130.291 L 123.172 128.766 119.586 125.810 C 117.614 124.185, 116 121.987, 116 120.927 C 116 119.867, 115.042 118.042, 113.872 116.872 C 112.092 115.092, 111.787 113.745, 112.005 108.622 C 112.149 105.255, 112.203 100.994, 112.126 99.154 C 112.049 97.313, 112.701 93.713, 113.576 91.154 C 114.835 87.467, 115.055 83.851, 114.634 73.750 C 114.341 66.737, 114.439 61, 114.851 61 C 115.263 61, 116.110 61.510, 116.733 62.133 C 118.480 63.880, 121.181 62.332, 120.886 59.754 C 120.743 58.514, 120.973 56.466, 121.396 55.202 C 122.519 51.846, 120.445 49.893, 116.106 50.225 L 112.500 50.500 112.499 44.658 C 112.497 39.303, 112.268 38.696, 109.749 37.376 C 108.237 36.584, 107 35.275, 107 34.468 C 107 33.661, 106.325 33, 105.500 33 C 104.675 33, 104 33.635, 104 34.411 M 46.314 36.750 C 45.589 38.785, 41.003 42.911, 39.408 42.964 C 38.086 43.008, 37.796 51.756, 39.090 52.556 C 39.591 52.865, 40 54.006, 40 55.090 C 40 56.175, 40.695 57.330, 41.545 57.656 C 42.846 58.155, 42.767 58.475, 41.045 59.681 C 39.423 60.817, 39 62.208, 39 66.402 C 39 70.205, 38.509 72.108, 37.250 73.177 C 34.729 75.320, 28.544 78, 26.119 78 C 23.182 78, 16 74.986, 16 73.754 C 16 73.090, 13.973 72.963, 10.292 73.396 C 0.950 74.493, -0 74.906, 0 77.858 C 0.001 80.322, 1.093 80.964, 16.250 87.400 C 25.188 91.195, 33.288 94.510, 34.250 94.767 C 35.212 95.023, 36 95.795, 36 96.482 C 36 97.168, 36.832 98.803, 37.849 100.115 C 39.628 102.409, 45.658 119.773, 44.879 120.361 C 44.671 120.519, 43.038 121.658, 41.250 122.892 C 37.900 125.205, 36.905 128, 39.432 128 C 40.396 128, 40.768 128.893, 40.572 130.733 C 40.344 132.874, 39.250 133.979, 35.522 135.839 C 30.539 138.324, 28.336 138.021, 24 134.254 C 23.175 133.537, 20.916 131.920, 18.979 130.661 L 15.458 128.371 7.729 130.772 C -1.459 133.626, -1.879 134.838, 4.450 140.247 L 8.834 143.995 31.049 143.937 C 53.970 143.877, 54.128 143.850, 56.500 139.641 C 57.050 138.665, 58.850 137.109, 60.500 136.183 C 65.958 133.121, 65.666 131.093, 59.440 128.842 C 56.901 127.924, 55.923 126.876, 55.447 124.563 C 54.419 119.560, 51.982 112.665, 50.359 110.165 C 48.987 108.053, 49.008 107.649, 50.577 105.915 C 51.530 104.862, 52.933 104, 53.695 104 C 55.998 104, 63.057 100.016, 63.693 98.357 C 64.026 97.491, 62.194 92.665, 59.554 87.453 C 56.950 82.310, 55.088 77.667, 55.417 77.135 C 55.745 76.603, 55.523 74.893, 54.923 73.334 C 52.999 68.335, 51.826 58.914, 52.958 57.550 C 54.473 55.725, 53.670 46.795, 51.744 44.044 C 50.830 42.741, 50.343 41.254, 50.660 40.742 C 51.345 39.633, 49.037 35, 47.800 35 C 47.325 35, 46.657 35.788, 46.314 36.750 M 161.132 36.781 C 160.953 38.522, 153.932 44.535, 152.284 44.358 C 151.022 44.222, 151.131 49.543, 152.534 56.568 C 152.882 58.310, 152.204 58.819, 148.223 59.799 C 138.762 62.129, 137.985 62.094, 135.516 59.224 C 133.379 56.739, 133.027 56.648, 130.607 57.943 C 127.321 59.702, 127.087 63.004, 130.250 62.991 C 131.530 62.986, 133.578 64.269, 135 65.966 C 137.291 68.700, 137.814 68.877, 141.255 68.079 C 145.511 67.092, 145.559 67.131, 146.532 72.318 C 147.039 75.020, 147.655 75.963, 148.660 75.577 C 152.047 74.277, 150.703 78.419, 145.068 86.645 C 141.732 91.515, 139.001 96.218, 139.001 97.095 C 139 99.208, 141.707 101.562, 146.389 103.518 C 149.619 104.868, 150.098 105.448, 149.514 107.306 C 149.134 108.513, 148.301 112.873, 147.662 116.995 C 146.545 124.200, 146.385 124.509, 143.512 125.002 C 139.136 125.754, 139.097 128.535, 143.428 131.090 C 145.393 132.249, 147 133.281, 147 133.384 C 147 133.486, 144.370 133.554, 141.156 133.535 C 135.395 133.500, 129.570 135.495, 130.593 137.151 C 131.436 138.515, 135.013 138.130, 136.643 136.500 C 138.402 134.741, 141.075 134.615, 146.238 136.049 C 149.554 136.970, 153.546 141, 151.142 141 C 150.632 141, 149.955 141.675, 149.638 142.500 C 149.148 143.777, 150.692 144, 160.031 144 L 171 144 171 141.161 C 171 139.102, 170.312 138.008, 168.500 137.182 C 165.633 135.876, 165.368 134.769, 167.500 133 C 169.818 131.076, 169.292 129.202, 165.948 127.473 C 162.743 125.816, 160.694 122.197, 162 120.500 C 163.183 118.962, 164.345 112.864, 164.134 109.300 C 163.996 106.985, 164.505 105.800, 165.972 105.015 C 168.537 103.642, 168.522 101.481, 165.896 93.718 C 163.032 85.253, 162.249 71.487, 164.491 69.010 C 165.394 68.012, 165.990 66.364, 165.816 65.348 C 165.549 63.787, 166.094 63.536, 169.326 63.729 C 171.987 63.888, 173.025 63.584, 172.734 62.729 C 172.504 62.053, 171.007 61.463, 169.408 61.418 C 162.546 61.223, 162.633 61.282, 164.927 58.366 C 167.616 54.947, 167.392 47.532, 164.500 44.187 C 163.400 42.916, 162.222 40.441, 161.882 38.687 C 161.542 36.934, 161.204 36.076, 161.132 36.781 M 40.459 82.067 C 40.096 82.653, 40.040 83.373, 40.333 83.667 C 41.050 84.383, 43 83.121, 43 81.941 C 43 80.663, 41.274 80.748, 40.459 82.067 M 99.397 99.593 C 98.620 101.451, 97.497 105.245, 96.901 108.024 C 95.479 114.658, 96.401 115.775, 102.707 115.051 L 107.500 114.500 107.500 106.041 L 107.500 97.582 104.154 96.898 C 101.048 96.262, 100.708 96.455, 99.397 99.593 M 153.093 112.668 C 151.942 116.336, 151 120.611, 151 122.168 C 151 124.612, 151.389 125, 153.840 125 C 156.558 125, 156.735 124.707, 157.978 118.118 C 160.381 105.382, 156.677 101.250, 153.093 112.668 M 47.688 124.646 C 46.383 125.950, 47.006 127, 49.083 127 C 50.247 127, 50.992 126.476, 50.771 125.813 C 50.284 124.351, 48.614 123.719, 47.688 124.646 M 116.114 127.929 C 115.255 128.461, 115.152 128.976, 115.824 129.391 C 116.395 129.744, 117.163 129.545, 117.531 128.950 C 118.449 127.464, 117.719 126.938, 116.114 127.929 M 36 138.016 C 33.107 139.525, 32.804 139.961, 34.252 140.529 C 36.723 141.497, 41 140.237, 41 138.540 C 41 136.219, 39.705 136.083, 36 138.016" stroke="none" fill="black" fill-rule="evenodd"/>
</svg>