<svg xmlns="http://www.w3.org/2000/svg" width="192" height="144" viewBox="0 0 192 144" version="1.1">
	<path d="M -0 72.005 L -0 144.010 96.250 143.755 L 192.500 143.500 192.757 71.750 C 192.999 3.857, 192.919 0.004, 191.257 0.079 C 190.211 0.126, 190.006 0.362, 190.750 0.662 C 191.679 1.037, 192 5.386, 192 17.583 C 192 26.613, 191.773 34, 191.496 34 C 191.219 34, 179.586 26.350, 165.645 17 L 140.298 0 70.149 0 L 0 0 -0 72.005 M 0.474 72.500 C 0.474 112.100, 0.598 128.154, 0.750 108.176 C 0.901 88.198, 0.901 55.798, 0.750 36.176 C 0.598 16.554, 0.474 32.900, 0.474 72.500 M 82.345 37.094 C 79.880 37.808, 79.302 38.438, 79.703 39.971 C 79.985 41.051, 80.843 42.454, 81.608 43.090 C 83.412 44.587, 83.339 48.968, 81.468 51.441 C 80.661 52.509, 80 55.070, 80 57.132 C 80 59.195, 79.569 61.148, 79.043 61.474 C 78.516 61.799, 78.132 63.288, 78.189 64.783 C 78.474 72.238, 77.646 81.040, 76.213 85.777 C 74.913 90.077, 74.838 91.664, 75.809 94.348 C 77.510 99.051, 77.309 103.728, 75.360 104.819 C 73.165 106.047, 74.516 108, 77.559 108 C 79.593 108, 80 107.510, 80 105.065 C 80 103.451, 80.437 100.982, 80.970 99.579 C 81.796 97.405, 82.291 97.160, 84.304 97.925 C 85.698 98.455, 87.248 98.456, 88.083 97.927 C 90.401 96.460, 90.515 96.737, 90.161 102.996 C 89.888 107.828, 90.140 109.116, 91.454 109.621 C 93.921 110.567, 94.296 109.617, 94.221 102.608 C 94.146 95.591, 94.854 94.422, 100.690 91.928 C 105.028 90.074, 105.274 88.056, 101.884 82.121 C 100.298 79.343, 99 76.563, 99 75.943 C 99 75.323, 98.138 73.719, 97.084 72.380 C 94.764 69.430, 94.944 63.260, 97.463 59.416 C 98.899 57.225, 98.974 56.353, 97.946 53.870 C 97.275 52.249, 95.887 50.475, 94.863 49.927 C 92.867 48.858, 92.243 43.586, 93.985 42.509 C 94.526 42.175, 94.882 40.842, 94.775 39.547 C 94.620 37.683, 93.843 37.072, 91.040 36.608 C 86.788 35.904, 86.373 35.927, 82.345 37.094 M 94 57.500 C 94 58.325, 94.177 59, 94.393 59 C 94.609 59, 95.045 58.325, 95.362 57.500 C 95.678 56.675, 95.501 56, 94.969 56 C 94.436 56, 94 56.675, 94 57.500" stroke="none" fill="black" fill-rule="evenodd"/>
</svg>