<svg xmlns="http://www.w3.org/2000/svg" width="192" height="144" viewBox="0 0 192 144" version="1.1">
	<path d="M -0 72.005 L -0 144.010 96.250 143.755 L 192.500 143.500 192.757 71.750 L 193.013 0 96.507 0 L 0 0 -0 72.005 M 0.474 72.500 C 0.474 112.100, 0.598 128.154, 0.750 108.176 C 0.901 88.198, 0.901 55.798, 0.750 36.176 C 0.598 16.554, 0.474 32.900, 0.474 72.500 M 92.032 38.385 C 92.012 40.149, 91.028 42.172, 89.500 43.588 C 88.125 44.862, 87 47.019, 87 48.381 C 87 51.181, 85.576 52.863, 80.597 55.940 C 77.189 58.046, 73 64.907, 73 68.383 C 73 69.700, 73.514 69.972, 75.072 69.477 C 76.375 69.064, 77.825 69.436, 78.980 70.482 C 80.499 71.857, 81.473 71.964, 84.602 71.099 C 89.075 69.864, 89.890 70.346, 88.120 73.179 C 87.403 74.328, 87.195 75.545, 87.658 75.884 C 90.413 77.899, 88.434 86.514, 81.773 101.500 C 78.356 109.188, 77.898 111.009, 78.636 113.993 C 79.267 116.546, 80.173 117.643, 82 118.068 C 83.375 118.387, 85.988 119.286, 87.806 120.065 C 90.679 121.295, 91.076 121.900, 90.836 124.687 C 90.504 128.535, 91.183 129.394, 93.879 128.538 C 95.633 127.982, 95.757 127.561, 94.792 125.443 C 93.489 122.584, 93.612 122.387, 97.252 121.473 C 99.530 120.901, 100 121.109, 100 122.692 C 100 123.741, 99.441 125.159, 98.758 125.842 C 97.770 126.830, 97.820 127.278, 99.008 128.040 C 102.087 130.016, 103.519 128.697, 103.163 124.214 C 102.845 120.220, 103.023 119.889, 106.194 118.563 C 110.429 116.794, 110.750 114.136, 107.418 108.450 C 104.883 104.124, 104.324 96.338, 106.440 94.822 C 107.022 94.404, 106.927 93.135, 106.193 91.525 C 105.537 90.084, 105 87.373, 105 85.500 C 105 83.627, 104.443 80.871, 103.762 79.376 C 102.817 77.304, 102.804 76.565, 103.706 76.265 C 104.356 76.048, 104.622 75.179, 104.298 74.334 C 103.974 73.489, 104.337 72.400, 105.104 71.914 C 106.241 71.194, 106.195 71.028, 104.857 71.015 C 103.142 70.999, 101.561 68.390, 102.801 67.623 C 103.560 67.154, 109.978 65.862, 113.431 65.482 C 116.967 65.094, 117.133 65.023, 116.583 64.134 C 115.806 62.877, 119.199 60.110, 122.052 59.674 C 123.399 59.469, 124.392 58.896, 124.261 58.400 C 122.462 51.632, 119.702 49.560, 110.941 48.398 C 106.646 47.828, 104.937 47.015, 102.416 44.343 C 100.682 42.504, 98.304 41, 97.132 41 C 95.959 41, 95 40.636, 95 40.191 C 95 39.746, 94.339 38.509, 93.532 37.441 C 92.131 35.589, 92.062 35.632, 92.032 38.385" stroke="none" fill="black" fill-rule="evenodd"/>
</svg>