<svg xmlns="http://www.w3.org/2000/svg" width="192" height="144" viewBox="0 0 192 144" version="1.1">
	<path d="M 0 57 L 0 114 4.441 114 C 6.910 114, 9.229 113.445, 9.665 112.750 C 10.095 112.063, 10.492 108.800, 10.546 105.500 C 10.679 97.469, 11.436 95.609, 15.262 93.925 C 18.007 92.717, 18.478 92.010, 18.356 89.284 C 18.251 86.928, 18.719 85.907, 20.106 85.466 C 21.281 85.093, 22 83.941, 22 82.433 C 22 81.095, 22.450 80, 23 80 C 23.550 80, 24 81.139, 24 82.531 C 24 83.924, 24.675 85.322, 25.500 85.638 C 26.480 86.014, 27 87.572, 27 90.132 C 27 93.661, 27.290 94.108, 29.919 94.634 C 33.454 95.341, 34.321 97.883, 34.052 106.750 C 33.867 112.844, 33.926 113, 36.431 113 C 38.775 113, 39 112.638, 39 108.868 C 39 105.033, 42.149 98, 43.866 98 C 45.242 98, 48 103.858, 48 106.782 C 48 108.417, 48.563 110.201, 49.250 110.746 C 49.938 111.291, 56.058 111.981, 62.852 112.279 C 74.414 112.786, 75.376 112.986, 77.907 115.410 C 79.393 116.835, 80.989 118, 81.453 118 C 81.917 118, 82.024 114.462, 81.690 110.137 C 81.135 102.937, 81.282 102.006, 83.437 99.086 L 85.790 95.896 87.895 98.852 C 89.875 101.633, 90 103.061, 90 122.904 L 90 144 140.840 144 L 191.681 144 192.338 120.750 C 192.700 107.963, 192.996 75.563, 192.998 48.750 L 193 0 96.500 0 L 0 0 0 57 M 0.468 57.500 C 0.468 88.850, 0.595 101.530, 0.750 85.679 C 0.904 69.827, 0.904 44.177, 0.749 28.679 C 0.594 13.180, 0.468 26.150, 0.468 57.500 M 117.655 37.829 C 116.745 38.835, 116 40.194, 116 40.850 C 116 41.506, 114.875 42.555, 113.500 43.182 C 112.125 43.808, 111 44.668, 111 45.093 C 111 45.518, 110.055 46.165, 108.899 46.532 C 106.240 47.376, 107.589 48.747, 111.500 49.173 L 114.500 49.500 114.500 56.416 C 114.500 61.059, 114.911 63.469, 115.750 63.749 C 119.468 64.991, 114.153 76, 109.836 76 C 108.891 76, 107.939 76.338, 107.720 76.750 C 107.159 77.807, 109.296 81.491, 110.500 81.544 C 112.920 81.650, 117 84.472, 117 86.038 C 117 86.982, 117.668 88.309, 118.483 88.986 C 119.714 90.008, 120.140 89.762, 120.983 87.544 C 121.543 86.073, 122 84.224, 122 83.435 C 122 82.646, 122.585 82, 123.300 82 C 125.270 82, 127 84.141, 127 86.578 C 127 89.076, 129.410 91.482, 130.956 90.527 C 131.530 90.172, 132 89.203, 132 88.374 C 132 87.269, 132.602 87.052, 134.250 87.565 C 135.488 87.950, 136.650 88.655, 136.833 89.132 C 137.379 90.554, 139 90.116, 139 88.548 C 139 87.516, 139.869 87.205, 141.999 87.475 C 144.458 87.786, 145.103 87.437, 145.579 85.542 C 146.027 83.758, 146.656 83.357, 148.330 83.788 C 150.095 84.243, 150.293 84.081, 149.391 82.923 C 147.922 81.038, 146.810 75, 147.931 75 C 148.416 75, 148.577 74.100, 148.290 73 C 148.002 71.900, 147.374 71, 146.895 71 C 145.447 71, 142.066 67.703, 142.610 66.822 C 142.890 66.370, 140.568 66, 137.452 66 C 132.448 66, 131.870 65.796, 132.506 64.250 C 132.903 63.288, 133.472 61.641, 133.771 60.592 C 134.330 58.635, 133.313 58.615, 128.750 60.494 C 125.815 61.702, 126.607 56.876, 129.944 53.223 C 131.563 51.450, 132.633 50, 132.321 50 C 132.010 50, 132.311 49.330, 132.990 48.512 C 134.324 46.905, 134.576 47.088, 128.500 45.252 C 126.194 44.555, 125.422 43.669, 125.162 41.423 C 124.534 36.008, 120.884 34.261, 117.655 37.829" stroke="none" fill="black" fill-rule="evenodd"/>
</svg>