<svg xmlns="http://www.w3.org/2000/svg" width="192" height="144" viewBox="0 0 192 144" version="1.1">
	<path d="M 118 1.050 C 118 1.627, 118.717 3.487, 119.594 5.182 C 121.293 8.468, 120.464 9.950, 116.910 9.985 C 116.035 9.993, 112.566 11.376, 109.201 13.058 C 101.364 16.974, 95 23.992, 92.117 31.898 C 90.907 35.217, 89.486 38.200, 88.958 38.526 C 87.518 39.416, 87.806 41.012, 89.303 40.437 C 90.262 40.069, 90.499 40.852, 90.201 43.402 C 89.966 45.415, 90.363 47.541, 91.148 48.475 C 94.233 52.146, 98.613 56.042, 100.250 56.570 C 102.531 57.306, 102.457 58.149, 99.816 61.507 L 97.632 64.283 99.816 66.052 C 101.017 67.025, 102 68.578, 102 69.504 C 102 70.430, 102.900 71.423, 104 71.710 C 105.100 71.998, 106 72.886, 106 73.683 C 106 74.481, 107.071 76.566, 108.380 78.317 C 109.690 80.068, 111.005 82.850, 111.303 84.500 C 114.215 100.617, 114.333 101.894, 113.046 103.444 C 110.544 106.459, 109.424 105.491, 103.142 94.882 C 101.642 92.349, 101 89.594, 101 85.697 C 101 75.108, 98.488 72, 89.929 72 C 85.226 72, 84 71.678, 84 70.441 C 84 69.584, 83.570 69.148, 83.044 69.473 C 82.518 69.798, 82.324 70.680, 82.612 71.432 C 82.953 72.319, 81.967 73.186, 79.811 73.897 C 71.686 76.579, 68.797 83.135, 71.438 92.900 C 72.891 98.273, 77.559 104.408, 81.035 105.511 C 82.565 105.997, 82.553 106.474, 80.868 111.768 C 77.845 121.268, 75.995 131.141, 75.997 137.750 L 76 144 87.250 143.970 L 98.500 143.941 101.919 137.970 C 103.799 134.687, 105.669 132, 106.074 132 C 106.479 132, 106.566 134.700, 106.266 138 L 105.722 144 140.901 144 C 174.651 144, 176.247 143.915, 180.191 141.903 C 182.982 140.479, 183.899 139.555, 183.045 139.028 C 182.153 138.477, 182.109 138.051, 182.893 137.566 C 184.729 136.431, 184.140 135, 181.838 135 C 180.648 135, 177.497 136.398, 174.835 138.106 C 169.834 141.315, 166.998 141.378, 167.003 138.281 C 167.006 135.999, 164.308 124.337, 161.882 116.145 C 159.785 109.062, 159.423 105.023, 161.220 108.750 C 161.817 109.987, 162.678 111, 163.132 111 C 163.587 111, 164.878 112.800, 166 115 C 167.122 117.200, 168.299 119, 168.614 119 C 169.222 119, 168.250 109.874, 167.283 106.508 C 166.761 104.689, 166.870 104.646, 168.529 106.008 C 170.217 107.393, 170.296 107.322, 169.637 105 C 169.246 103.625, 168.697 100.025, 168.417 97 L 167.908 91.500 170.367 97.208 C 171.720 100.347, 173.591 103.947, 174.525 105.208 C 176.212 107.486, 176.218 107.479, 175.505 104 C 175.111 102.075, 174.592 99.375, 174.352 98 L 173.916 95.500 175.708 97.946 C 176.694 99.291, 178.325 101.316, 179.334 102.446 C 181.130 104.458, 181.154 104.459, 180.513 102.500 C 180.153 101.400, 179.215 91.065, 178.427 79.534 C 176.688 54.071, 175.320 46.432, 169.382 29.044 C 163.214 10.979, 159.156 6, 150.606 6 C 147.785 6, 146.772 5.423, 145.341 3 L 143.569 0 130.784 0 C 122.525 0, 118 0.372, 118 1.050" stroke="none" fill="black" fill-rule="evenodd"/>
</svg>