<svg xmlns="http://www.w3.org/2000/svg" width="192" height="144" viewBox="0 0 192 144" version="1.1">
	<path d="M 47.082 2.413 C 45.943 3.625, 44.618 6.724, 44.137 9.298 C 43.656 11.873, 42.712 14.642, 42.039 15.452 C 41.065 16.626, 41.271 19.080, 43.050 27.518 C 44.868 36.137, 45.081 38.798, 44.194 41.805 C 43.594 43.837, 42.839 47.750, 42.516 50.500 C 42.036 54.587, 42.296 55.956, 43.942 58 L 45.956 60.500 45.993 58 C 46.020 56.183, 46.269 55.876, 46.904 56.878 C 47.384 57.636, 48.190 58, 48.696 57.688 C 49.202 57.375, 50.888 58.133, 52.443 59.373 C 54.778 61.235, 55.088 61.967, 54.226 63.578 C 53.467 64.996, 53.562 66.431, 54.574 68.838 C 55.953 72.119, 55.927 72.183, 51.594 76.127 C 49.189 78.315, 46.160 82.219, 44.862 84.803 C 43.563 87.386, 41.424 90.716, 40.108 92.203 C 36.978 95.740, 36.072 103.654, 38.393 107.196 C 39.284 108.556, 41.189 110.298, 42.625 111.067 C 45.237 112.465, 45.238 112.469, 44.800 123.085 C 44.419 132.348, 44.020 134.291, 41.681 138.281 C 40.207 140.797, 39 143.114, 39 143.428 C 39 143.743, 61.500 144, 89 144 L 139 144 138.976 140.750 C 138.932 134.913, 136.978 128.582, 133.873 124.215 C 131.031 120.219, 130.867 119.512, 131.431 113.715 C 131.764 110.297, 132.107 106.037, 132.193 104.250 C 132.280 102.463, 132.671 101, 133.064 101 C 133.457 101, 133.757 100.438, 133.731 99.750 C 133.608 96.436, 134.124 95, 135.437 95 C 136.327 95, 136.993 93.763, 137.187 91.750 C 137.547 88.013, 136.782 88.105, 151.572 90.035 C 157.112 90.759, 162.400 91.061, 163.322 90.707 C 164.548 90.236, 165 88.853, 165 85.574 C 165 81.653, 164.563 80.736, 161.542 78.326 C 159.641 76.809, 154.583 73.752, 150.303 71.534 C 142.955 67.725, 142.481 67.277, 141.818 63.500 C 141.431 61.300, 141.089 57.341, 141.058 54.702 C 141.010 50.772, 141.458 49.506, 143.534 47.702 C 146.980 44.707, 147.677 39.428, 145.156 35.404 C 143.098 32.119, 139.299 30.393, 126.500 26.929 C 113.315 23.360, 110.237 24.789, 109.016 35.047 C 108.592 38.603, 106.715 45.092, 104.834 49.500 L 101.421 57.500 93.126 57.792 C 84.382 58.099, 82.531 56.651, 90.518 55.751 C 96.127 55.119, 98.421 53.146, 100.440 47.221 C 103.396 38.547, 101.911 31.072, 95.131 20.500 C 93.721 18.300, 92.513 16.275, 92.447 16 C 92.203 14.979, 90.786 11.432, 89.784 9.331 C 89.215 8.138, 86.668 6.215, 84.124 5.057 C 81.581 3.898, 78.375 2.302, 77 1.509 C 75.161 0.448, 71.151 0.085, 61.826 0.138 C 50.103 0.204, 48.996 0.375, 47.082 2.413 M 79.669 115.770 C 78.910 117.076, 75.953 127.927, 75.075 132.627 C 74.361 136.451, 74.440 136.985, 75.553 135.855 C 77.250 134.131, 84 120.478, 84 118.768 C 84 117.263, 80.292 114.697, 79.669 115.770" stroke="none" fill="black" fill-rule="evenodd"/>
</svg>