<svg xmlns="http://www.w3.org/2000/svg" width="192" height="144" viewBox="0 0 192 144" version="1.1">
	<path d="M 0 9.428 L 0 18.856 5.429 19.534 C 9.570 20.052, 11.386 19.843, 13.084 18.654 C 15.975 16.629, 19.402 18.157, 18.481 21.061 C 17.847 23.058, 19.400 23.780, 20.500 22 C 20.840 21.450, 22.954 21, 25.199 21 C 29.468 21, 31.907 22.892, 31.968 26.250 C 31.986 27.212, 32.395 28, 32.879 28 C 33.362 28, 34.317 29.350, 35 31.001 C 36.009 33.437, 35.992 34.305, 34.906 35.613 C 33.749 37.008, 34.036 37.632, 37.034 40.244 C 38.940 41.904, 43.098 45.566, 46.272 48.381 L 52.045 53.500 51.425 60 C 50.677 67.856, 52.053 75.964, 56.421 89.422 C 58.220 94.965, 61.111 103.886, 62.846 109.247 C 66.631 120.942, 67.236 131, 64.155 131 C 63.140 131, 61.495 131.900, 60.500 133 C 59.092 134.556, 57.420 135, 52.970 135 C 47.364 135, 47.238 135.062, 46.625 138.125 C 45.386 144.321, 44.454 144.004, 63.750 143.958 L 81.500 143.917 77.583 140.458 C 75.429 138.556, 73.097 137, 72.401 137 C 71.706 137, 70.244 135.747, 69.153 134.215 C 67.495 131.886, 67.145 129.637, 67.017 120.465 C 66.847 108.287, 68.012 101.238, 70.965 96.594 C 75.993 88.687, 77.198 85.174, 76.731 79.783 C 76.480 76.877, 75.542 72.025, 74.649 69 C 72.591 62.036, 72.574 51.239, 74.609 43.500 C 75.476 40.200, 76.706 32.869, 77.343 27.208 C 78.064 20.796, 79.002 16.608, 79.832 16.099 C 80.807 15.500, 80.978 14.034, 80.469 10.640 C 79.868 6.632, 79.453 6, 77.420 6 C 76.064 6, 73.583 7.483, 71.567 9.500 C 67.889 13.178, 63 14.319, 63 11.500 C 63 10.675, 62.582 10, 62.070 10 C 61.559 10, 61.244 7.750, 61.370 5 L 61.600 0 30.800 0 L 0 0 0 9.428 M 0 81.981 L 0 144 14.869 144 L 29.738 144 30.337 140.313 C 31.095 135.639, 29.739 134, 25.115 134 C 22.355 134, 21.235 133.477, 20.487 131.839 C 19.680 130.071, 18.590 129.656, 14.500 129.561 L 9.500 129.444 9.809 125.472 C 10.155 121.028, 12.850 115.091, 19.555 104 C 29.369 87.764, 31.621 80.209, 30.133 68.500 L 29.370 62.500 28.567 69.264 C 28.125 72.984, 27.367 76.273, 26.882 76.573 C 26.397 76.873, 25.967 76.529, 25.926 75.809 C 25.885 75.089, 25.026 76.300, 24.016 78.500 C 22.770 81.216, 22.359 83.740, 22.736 86.364 C 23.257 89.985, 23.154 90.184, 21.098 89.531 C 19.216 88.934, 18.676 89.415, 17.300 92.917 C 15.348 97.886, 14.293 98.078, 13.456 93.617 C 12.959 90.967, 12.424 90.338, 10.986 90.714 C 7.933 91.512, 6.043 86.289, 5.755 76.249 C 5.504 67.532, 5.576 67.230, 9.897 58.725 L 14.293 50.071 13.528 41.785 C 13.106 37.228, 12.786 32.730, 12.816 31.788 C 12.859 30.423, 12.278 30.194, 9.950 30.660 C 6.475 31.355, 5.215 29.334, 7.021 25.961 C 8.425 23.337, 7.049 21.611, 2.750 20.605 L 0 19.962 0 81.981 M 36.058 66 C 35.925 66.275, 35.600 68.075, 35.336 70 C 34.974 72.630, 35.141 73.220, 36.006 72.372 C 36.638 71.751, 36.964 69.951, 36.728 68.372 C 36.492 66.792, 36.191 65.725, 36.058 66 M 36.630 139.250 C 35.588 143.139, 35.927 144, 38.500 144 C 40.690 144, 41 143.567, 41 140.500 C 41 137.739, 40.602 137, 39.117 137 C 38.009 137, 36.985 137.927, 36.630 139.250" stroke="none" fill="black" fill-rule="evenodd"/>
</svg>