<svg xmlns="http://www.w3.org/2000/svg" width="192" height="144" viewBox="0 0 192 144" version="1.1">
	<path d="M 0.044 28.250 C 0.088 56.367, 0.097 56.483, 1.943 53 C 5.432 46.417, 11.879 40.185, 18.648 36.852 C 23.965 34.235, 26.719 33.552, 33.345 33.207 C 43.934 32.655, 48.753 34.024, 53.941 39.059 C 56.959 41.988, 58.643 42.931, 60.053 42.483 C 62.559 41.688, 62.551 43.084, 60.037 45.236 C 58.364 46.669, 58.233 47.369, 59.146 49.989 C 59.896 52.141, 59.904 53.876, 59.171 55.781 C 58.596 57.276, 57.815 60.075, 57.435 62 C 57.056 63.925, 55.452 66.978, 53.872 68.785 C 52.293 70.591, 51 72.581, 51 73.206 C 51 73.831, 50.246 75.176, 49.324 76.195 C 48.038 77.615, 47.922 78.322, 48.824 79.224 C 50.903 81.303, 50.086 83.977, 46.750 86.011 C 44.962 87.101, 42.732 87.994, 41.794 87.996 C 40.218 88, 40.203 88.322, 41.596 92.250 C 42.845 95.772, 43.006 100.570, 42.534 120.256 L 41.963 144.013 117.203 143.756 L 192.443 143.500 192.688 71.750 L 192.932 0 96.466 0 L 0 0 0.044 28.250 M 0.440 28.500 C 0.440 43.900, 0.579 50.060, 0.748 42.189 C 0.917 34.319, 0.917 21.719, 0.747 14.189 C 0.578 6.660, 0.439 13.100, 0.440 28.500 M 69.729 3.604 C 69.328 4.005, 69 5.023, 69 5.867 C 69 6.992, 69.296 7.104, 70.112 6.287 C 70.724 5.676, 71.052 4.658, 70.842 4.025 C 70.631 3.393, 70.130 3.203, 69.729 3.604 M 96.500 27 C 96.840 27.550, 97.766 28, 98.559 28 C 99.352 28, 100 27.550, 100 27 C 100 26.450, 99.073 26, 97.941 26 C 96.809 26, 96.160 26.450, 96.500 27 M 130 35.941 C 130 36.459, 130.450 37.160, 131 37.500 C 131.550 37.840, 132 37.416, 132 36.559 C 132 35.702, 131.550 35, 131 35 C 130.450 35, 130 35.423, 130 35.941 M 72.459 74.067 C 71.370 75.829, 72.518 76.076, 74.573 74.521 C 76.265 73.241, 76.294 73.060, 74.809 73.032 C 73.879 73.014, 72.821 73.480, 72.459 74.067 M 184.014 73.992 C 181.172 75.748, 185.228 79.894, 188.543 78.622 C 189.721 78.170, 189.846 77.581, 189.071 76.132 C 187.822 73.799, 185.747 72.920, 184.014 73.992 M 102 82 C 102 82.550, 102.450 83, 103 83 C 103.550 83, 104 82.550, 104 82 C 104 81.450, 103.550 81, 103 81 C 102.450 81, 102 81.450, 102 82 M 140.667 82.667 C 139.476 83.857, 139.962 87.724, 141.459 88.966 C 142.661 89.963, 143.032 89.721, 143.567 87.590 C 144.570 83.592, 142.780 80.553, 140.667 82.667 M 1 98.022 L 1 113.135 3.250 112.481 C 6.789 111.452, 15.629 105.154, 19.416 100.961 C 22.310 97.758, 22.745 96.689, 22.115 94.322 C 21.586 92.331, 20.649 91.421, 18.933 91.230 C 12.093 90.472, 9.845 89.662, 5.612 86.430 L 1 82.908 1 98.022 M 123.013 84.029 C 124.841 85.185, 126 85.256, 126 84.213 C 126 83.780, 124.993 83.350, 123.763 83.257 C 122.004 83.125, 121.844 83.290, 123.013 84.029 M 112.531 94.293 C 112.103 95.279, 112.034 96.367, 112.376 96.710 C 113.392 97.725, 114.211 96.299, 113.743 94.328 C 113.329 92.581, 113.275 92.580, 112.531 94.293 M 10.459 96.067 C 10.096 96.653, 10.040 97.373, 10.333 97.667 C 11.050 98.383, 13 97.121, 13 95.941 C 13 94.663, 11.274 94.748, 10.459 96.067 M 126.029 100.961 C 125.220 101.473, 124.893 102.226, 125.303 102.636 C 125.712 103.046, 126.808 102.620, 127.738 101.690 C 129.545 99.883, 128.464 99.421, 126.029 100.961 M 175.020 108.476 C 174.231 109.426, 174.155 110, 174.819 110 C 176.027 110, 177.436 108.103, 176.743 107.409 C 176.491 107.158, 175.716 107.638, 175.020 108.476 M 95.763 113.200 C 94.992 115.492, 96.124 117.799, 98.299 118.368 C 101.159 119.116, 101.413 118.626, 99.841 115.400 C 98.326 112.290, 96.415 111.259, 95.763 113.200 M 50.750 122.080 C 49.787 122.641, 48.288 124.477, 47.417 126.160 C 46.547 127.843, 46.322 128.919, 46.917 128.551 C 47.513 128.183, 48.014 128.471, 48.032 129.191 C 48.068 130.701, 50.404 127.920, 52.602 123.750 C 54.131 120.850, 53.633 120.401, 50.750 122.080 M 122 128.500 C 121.306 129.337, 121.197 130, 121.755 130 C 122.305 130, 123.315 129.325, 124 128.500 C 124.694 127.663, 124.803 127, 124.245 127 C 123.695 127, 122.685 127.675, 122 128.500 M 158.469 132.050 C 157.519 133.588, 158.820 134.580, 160.104 133.296 C 160.822 132.578, 160.839 132.019, 160.156 131.597 C 159.596 131.251, 158.837 131.455, 158.469 132.050 M 1 138.250 L 1 144 14.057 144 L 27.115 144 26.807 139.750 C 26.508 135.617, 26.389 135.485, 22.500 134.945 C 20.300 134.640, 17.498 133.842, 16.272 133.172 C 14.985 132.468, 11.291 132.069, 7.523 132.227 L 1.001 132.500 1 138.250 M 98.459 133.067 C 98.096 133.653, 98.014 134.348, 98.276 134.610 C 98.538 134.872, 99.019 134.392, 99.345 133.543 C 100.021 131.781, 99.445 131.471, 98.459 133.067 M 170.195 134.500 C 170.215 136.150, 170.439 136.704, 170.693 135.731 C 170.947 134.758, 170.930 133.408, 170.656 132.731 C 170.382 132.054, 170.175 132.850, 170.195 134.500 M 32 139 C 32 143.667, 32.167 144, 34.500 144 C 36.833 144, 37 143.667, 37 139 C 37 134.333, 36.833 134, 34.500 134 C 32.167 134, 32 134.333, 32 139 M 63.564 141.707 C 63.022 143.132, 63.136 143.247, 64.124 142.267 C 64.808 141.588, 65.115 140.781, 64.807 140.474 C 64.499 140.166, 63.940 140.721, 63.564 141.707" stroke="none" fill="black" fill-rule="evenodd"/>
</svg>