<svg xmlns="http://www.w3.org/2000/svg" width="192" height="144" viewBox="0 0 192 144" version="1.1">
	<path d="M 0 56.969 C 0 107.810, 0.165 113.874, 1.537 113.347 C 2.383 113.023, 3.928 113.530, 4.970 114.473 C 6.799 116.128, 6.923 116, 8.451 110.854 C 9.322 107.920, 10.492 101.465, 11.051 96.510 C 12.500 83.662, 13.503 80.547, 16.654 79.112 C 19.796 77.680, 20.867 78.728, 21.142 83.500 C 21.381 87.644, 21.385 87.543, 20.571 96.880 C 20.133 101.903, 20.210 104.988, 20.765 104.645 C 21.271 104.332, 23.730 100.558, 26.229 96.258 C 28.727 91.957, 32.624 86.765, 34.889 84.720 C 42.825 77.550, 43.029 80.783, 35.580 95.668 C 32.599 101.626, 29.844 107.850, 29.459 109.500 C 28.810 112.274, 29.275 112.001, 35.629 105.879 C 42.095 99.648, 49.514 94, 51.232 94 C 53.686 94, 51.254 98.961, 46.166 104.337 C 40.402 110.426, 37 114.802, 37 116.126 C 37 116.500, 40.038 115.735, 43.750 114.424 C 51.065 111.843, 54.658 111.466, 57 113.036 C 59.274 114.559, 55.367 117.382, 47.245 120.085 C 38.791 122.898, 35.898 125.792, 33.083 134.252 C 31.851 137.951, 30.429 141.235, 29.922 141.548 C 29.415 141.862, 29 142.541, 29 143.059 C 29 143.639, 60.241 144, 110.500 144 L 192 144 192 134.062 L 192 124.125 181.250 123.706 C 172.268 123.356, 162.197 121.687, 155 119.357 C 154.175 119.089, 153.500 118.977, 153.500 119.106 C 153.500 119.235, 151.700 118.241, 149.500 116.896 C 147.300 115.552, 143.700 113.846, 141.500 113.106 C 139.300 112.366, 136.600 110.960, 135.500 109.981 C 134.400 109.002, 131.475 107.519, 129 106.685 C 120.805 103.924, 118.916 102.572, 111.847 94.409 C 110.938 93.359, 108.630 91.381, 106.719 90.014 C 104.808 88.647, 103.463 86.956, 103.732 86.257 C 104.036 85.464, 103.519 85.082, 102.360 85.242 C 101.337 85.384, 100.285 85.050, 100.021 84.500 C 99.758 83.950, 98.046 82.485, 96.218 81.244 C 92.326 78.603, 88.077 73.990, 88.032 72.357 C 88.014 71.728, 87.325 70.955, 86.500 70.638 C 85.675 70.322, 85 69.374, 85 68.531 C 85 67.689, 84.570 67, 84.045 67 C 83.520 67, 82.796 65.430, 82.436 63.512 C 82.076 61.594, 80.556 58.781, 79.058 57.262 C 77.560 55.743, 75.754 52.925, 75.046 51 C 74.337 49.075, 72.724 45.250, 71.461 42.500 C 69.481 38.190, 67.675 32.696, 65.280 23.698 C 64.958 22.489, 64.500 18.688, 64.262 15.250 C 64.024 11.813, 63.418 9, 62.915 9 C 62.412 9, 62 6.975, 62 4.500 L 62 0 31 0 L 0 0 0 56.969" stroke="none" fill="black" fill-rule="evenodd"/>
</svg>