<svg xmlns="http://www.w3.org/2000/svg" width="192" height="144" viewBox="0 0 192 144" version="1.1">
	<path d="M 0 72 L 0 144 23.441 144 C 36.334 144, 47.093 143.659, 47.350 143.242 C 47.608 142.825, 48.146 136.741, 48.546 129.722 C 49.194 118.344, 49.084 116.750, 47.525 115.028 C 45.858 113.186, 45.870 112.944, 47.775 109.798 C 50.448 105.386, 51.535 94.398, 49.952 87.800 C 48.980 83.748, 48.995 81.326, 50.027 75.858 C 50.738 72.086, 51.699 69, 52.160 69 C 52.622 69, 52.986 67.763, 52.969 66.250 C 52.946 64.191, 51.843 62.675, 48.578 60.217 C 45.544 57.932, 44.084 56.026, 43.779 53.950 C 42.886 47.865, 49.154 42, 56.550 42 C 61.290 42, 66.331 46.849, 68.048 53.060 C 71.609 65.939, 74.570 83.512, 76.462 103 C 77.290 111.525, 78.180 119.698, 78.441 121.163 C 78.737 122.826, 78.336 124.306, 77.373 125.105 C 75.743 126.458, 75.985 130.765, 78.195 139.758 L 79.242 144.016 135.871 143.758 L 192.500 143.500 192.519 71.500 C 192.529 31.900, 192.410 12.868, 192.254 29.207 L 191.970 58.915 188.393 59.586 C 184.233 60.366, 173.686 59.446, 168.848 57.881 C 156.837 53.995, 145.765 45.800, 140.555 36.941 C 134.825 27.195, 132 17.749, 132 8.330 L 132 0 66 0 L 0 0 0 72 M 0.474 72.500 C 0.474 112.100, 0.598 128.154, 0.750 108.176 C 0.901 88.198, 0.901 55.798, 0.750 36.176 C 0.598 16.554, 0.474 32.900, 0.474 72.500" stroke="none" fill="black" fill-rule="evenodd"/>
</svg>