<svg xmlns="http://www.w3.org/2000/svg" width="192" height="144" viewBox="0 0 192 144" version="1.1">
	<path d="M 156.068 95.703 C 155.979 98.589, 153.916 103.181, 152.012 104.731 C 150.708 105.793, 150.697 106.091, 151.933 106.903 C 153.656 108.035, 156.063 116.843, 154.853 117.591 C 152.544 119.018, 154.838 129, 157.475 129 C 159.190 129, 159.187 128.994, 159.525 134.500 C 159.660 136.700, 159.215 139.175, 158.537 140 C 155.377 143.844, 155.603 144, 164.329 144 L 172.775 144 172.638 133.525 C 172.486 121.981, 172.605 121.779, 178.780 123.101 C 181.120 123.602, 183.483 123.201, 187.030 121.703 C 191.242 119.923, 192 119.192, 192 116.906 L 192 114.210 182.962 114.640 C 177.991 114.877, 173.513 114.817, 173.012 114.507 C 172.511 114.198, 173.034 112.362, 174.174 110.429 C 176.875 105.851, 175.882 104.837, 173.102 109.335 C 171.933 111.227, 170.249 113.378, 169.362 114.115 C 167.904 115.325, 167.817 115.042, 168.467 111.193 C 168.939 108.399, 168.782 106.442, 168.011 105.513 C 167.364 104.734, 167.127 103.174, 167.485 102.048 C 167.970 100.518, 167.693 100, 166.388 100 C 163.069 100, 158.147 97.645, 157.143 95.576 C 156.142 93.513, 156.135 93.514, 156.068 95.703 M 101.551 97.562 C 100.634 98.962, 98.920 100.464, 97.742 100.900 C 95.586 101.697, 94.924 104.665, 94.875 113.750 C 94.866 115.537, 94.552 117.007, 94.179 117.015 C 93.806 117.024, 92.911 117.404, 92.192 117.860 C 91.156 118.517, 91.327 119.441, 93.021 122.310 C 94.526 124.862, 94.927 126.605, 94.378 128.215 C 93.949 129.472, 93.507 131.625, 93.395 133 C 93.283 134.375, 92.864 137.412, 92.464 139.750 L 91.737 144 100.320 144 L 108.904 144 107.383 139.250 C 106.546 136.637, 105.635 133.786, 105.357 132.913 C 105.044 131.929, 105.892 130.645, 107.593 129.531 C 110.129 127.870, 110.424 127.859, 111.540 129.385 C 112.245 130.350, 113.421 130.776, 114.373 130.410 C 115.460 129.993, 116 130.320, 116 131.393 C 116 133.736, 118.635 133.357, 120.472 130.750 C 121.990 128.594, 121.931 128.448, 119.059 127.260 C 117.410 126.577, 115.361 124.665, 114.505 123.010 C 113.649 121.354, 112.285 120, 111.474 120 C 110.663 120, 110 119.314, 110 118.475 C 110 117.637, 108.884 116.526, 107.519 116.007 C 104.912 115.016, 104.943 112.619, 107.577 111.609 C 108.360 111.308, 109 109.950, 109 108.590 C 109 107.231, 109.462 105.833, 110.026 105.484 C 110.618 105.118, 109.773 103.656, 108.026 102.024 C 106.362 100.469, 105 98.505, 105 97.658 C 105 94.974, 103.278 94.926, 101.551 97.562 M 34.044 99.973 C 33.329 100.415, 33.042 101.259, 33.407 101.849 C 34.051 102.891, 28.638 108.500, 26.988 108.500 C 25.361 108.500, 24.737 109.978, 25.816 111.278 C 26.421 112.007, 26.654 113.608, 26.333 114.835 C 26.008 116.077, 26.359 117.827, 27.125 118.783 C 27.881 119.727, 29.038 121.467, 29.695 122.648 C 30.714 124.481, 30.615 124.867, 29.016 125.285 C 27.762 125.614, 27.037 126.861, 26.822 129.064 C 26.556 131.781, 25.758 132.744, 22.238 134.600 C 15.995 137.891, 12.643 138.384, 9.073 136.538 C 7.383 135.664, 6 134.510, 6 133.974 C 6 133.438, 4.650 133, 3 133 C 0.030 133, 0 133.056, 0 138.500 L 0 144 11.750 143.965 C 22.330 143.933, 23.251 143.791, 21 142.537 L 18.500 141.146 23 139.182 L 27.500 137.219 29.232 139.360 C 30.185 140.537, 30.762 142.063, 30.514 142.750 C 30.181 143.673, 31.879 144, 37.011 144 L 43.960 144 43.682 136.750 C 43.529 132.762, 42.869 128.528, 42.215 127.340 C 41.275 125.632, 41.317 124.617, 42.417 122.498 C 43.408 120.588, 43.549 118.915, 42.909 116.681 C 42.414 114.957, 42.275 112.708, 42.600 111.684 C 42.989 110.460, 42.474 109.320, 41.096 108.354 C 39.943 107.547, 39 106.196, 39 105.351 C 39 102.844, 35.516 99.063, 34.044 99.973" stroke="none" fill="black" fill-rule="evenodd"/>
</svg>