<svg xmlns="http://www.w3.org/2000/svg" width="192" height="144" viewBox="0 0 192 144" version="1.1">
	<path d="M 47.116 4.250 C 47.180 6.588, 47.437 7.600, 47.687 6.500 C 47.937 5.400, 49.347 3.490, 50.821 2.255 L 53.500 0.010 50.250 0.005 C 47.074 0, 47.003 0.097, 47.116 4.250 M 96.057 9.250 C 96.084 14.338, 95.997 19.625, 95.861 21 C 95.726 22.375, 95.702 27.197, 95.808 31.717 C 95.996 39.745, 96.084 40.017, 99.676 43.609 L 103.351 47.285 105.216 44.892 C 106.242 43.577, 108.076 41.260, 109.291 39.745 C 113.593 34.380, 114.060 26.622, 110.660 16.990 C 108.962 12.182, 108.579 9.699, 109.194 7.490 C 109.652 5.846, 109.787 3.488, 109.494 2.250 C 109.010 0.203, 108.377 -0, 102.484 -0 L 96.006 0 96.057 9.250 M 178.435 5.676 C 177.993 9.214, 178.154 12.537, 178.863 14.497 C 179.488 16.227, 180 18.799, 180 20.214 C 180 22.893, 181.583 24, 185.413 24 C 190.054 24, 192 32.638, 192 53.244 C 192 66.508, 191.713 69.994, 190.538 70.968 C 189.380 71.929, 189.203 73.819, 189.684 80.062 C 190.327 88.401, 188.910 95.126, 184.766 103.392 C 183.693 105.532, 182.990 108.476, 183.203 109.933 C 183.630 112.836, 179.696 117.928, 176.686 118.370 C 173.435 118.847, 169 122.978, 169 125.530 C 169 126.888, 169.460 128, 170.023 128 C 170.586 128, 170.309 129.125, 169.408 130.500 C 168.081 132.525, 166.985 132.987, 163.635 132.930 C 160.409 132.875, 159.939 132.671, 161.500 132 C 162.780 131.450, 159.371 131.115, 152.033 131.070 C 143.678 131.019, 139.402 131.445, 136.272 132.640 C 132.108 134.231, 131.922 134.216, 130.137 132.158 C 129.125 130.991, 128.065 130.269, 127.780 130.553 C 127.496 130.837, 126.991 129.704, 126.657 128.035 C 126.299 126.247, 125.423 125, 124.525 125 C 123.686 125, 123 124.598, 123 124.107 C 123 123.616, 122.275 122.936, 121.389 122.596 C 120.035 122.076, 119.914 122.418, 120.633 124.739 C 121.103 126.257, 121.491 131.100, 121.494 135.500 L 121.500 143.500 157 143.500 L 192.500 143.500 192.813 98 C 192.985 72.975, 192.822 40.688, 192.450 26.250 L 191.773 0 185.459 -0 L 179.144 -0 178.435 5.676 M 18.713 20.621 C 18.321 21.013, 18 22.351, 18 23.595 C 18 24.839, 17.325 26.532, 16.500 27.357 C 14.458 29.399, 14.615 31.642, 17.082 35.632 C 19.383 39.356, 21.045 39.813, 23.469 37.389 C 24.728 36.129, 25.017 34.110, 24.790 28.139 C 24.511 20.794, 24.402 20.489, 21.963 20.204 C 20.567 20.041, 19.104 20.229, 18.713 20.621 M 1.015 86.250 L 1 144 34.636 144 L 68.272 144 67.636 139.360 C 67.286 136.809, 67 133.758, 67 132.581 C 67 130.684, 66.122 130.303, 59.242 129.221 C 54.975 128.549, 47.553 128, 42.749 128 C 34.211 128, 33.954 127.930, 31.258 124.861 C 29.741 123.134, 28.041 121.221, 27.479 120.611 C 25.542 118.502, 19.415 109.491, 17.989 106.653 C 17.202 105.087, 15.393 102.826, 13.969 101.628 C 10.049 98.329, 5.517 89.146, 4.530 82.500 C 1.832 64.343, 1.876 56, 4.670 56 C 5.467 56, 5.871 56.399, 5.570 56.887 C 5.268 57.375, 5.804 57.712, 6.761 57.637 C 7.905 57.547, 8.737 56.304, 9.192 54 C 10.244 48.686, 10.145 43.793, 9 44.500 C 8.450 44.840, 8 44.416, 8 43.559 C 8 42.702, 7.578 42, 7.062 42 C 6.546 42, 6.158 41.212, 6.198 40.250 C 6.273 38.476, 5.089 35.536, 2.472 31 C 1.203 28.801, 1.028 35.449, 1.015 86.250 M 100 86 C 98.625 87.076, 97.893 87.966, 98.372 87.978 C 98.852 87.990, 98.732 88.618, 98.105 89.373 C 97.478 90.129, 97.246 91.479, 97.590 92.373 C 97.933 93.268, 97.767 94, 97.220 94 C 96.674 94, 96.029 95.349, 95.787 96.999 C 95.445 99.330, 95.871 100.341, 97.703 101.541 C 99.888 102.973, 100.494 102.890, 106.030 100.406 C 111.335 98.025, 113.662 96, 111.092 96 C 110.593 96, 109.608 93.750, 108.903 91 C 108.184 88.194, 107.047 86, 106.311 86 C 105.590 86, 105 85.550, 105 85 C 105 83.416, 102.720 83.872, 100 86" stroke="none" fill="black" fill-rule="evenodd"/>
</svg>