<svg xmlns="http://www.w3.org/2000/svg" width="192" height="144" viewBox="0 0 192 144" version="1.1">
	<path d="M 0.002 26.750 L 0.004 53.500 15.752 53.605 C 25.236 53.668, 34.317 54.290, 38.583 55.169 C 46.689 56.839, 50 56.049, 50 52.442 C 50 50.427, 49.605 50.237, 46.250 50.636 C 40.851 51.278, 39.410 50.035, 41.316 46.383 C 42.144 44.797, 44.201 42.188, 45.888 40.585 L 48.955 37.669 48.337 28.970 L 47.720 20.270 52.100 16.019 C 54.509 13.681, 57.385 11.353, 58.490 10.846 C 59.596 10.340, 62.300 8.830, 64.500 7.493 C 66.700 6.155, 70.415 4.770, 72.754 4.416 C 76.471 3.853, 77.774 4.227, 83.062 7.377 L 89.114 10.983 95.183 8.938 C 106.433 5.149, 108.933 8.110, 101.946 16.949 L 97.793 22.203 101.599 26.102 C 103.693 28.246, 104.834 30, 104.136 30 C 103.316 30, 103.093 30.717, 103.506 32.019 C 103.942 33.391, 103.323 35.015, 101.573 37.095 C 98.569 40.666, 98.333 42.527, 100.717 43.861 C 102.139 44.658, 102.237 45.222, 101.288 47.161 C 100.658 48.447, 99.401 51.857, 98.495 54.738 C 97.589 57.619, 96.431 60.233, 95.924 60.547 C 95.416 60.861, 95 62.182, 95 63.482 C 95 64.783, 93.835 67.231, 92.411 68.923 C 90.987 70.615, 90.261 72, 90.798 72 C 91.334 72, 96.071 74.022, 101.323 76.493 C 106.576 78.964, 111.481 80.753, 112.223 80.468 C 114.036 79.772, 129.222 88.426, 130.568 90.923 C 132.105 93.772, 148.101 104.982, 150.644 104.992 C 151.824 104.996, 154.234 106.350, 156 108 C 157.766 109.650, 159.578 111, 160.026 111 C 160.474 111, 161.143 112.375, 161.512 114.055 C 161.881 115.736, 164.828 120.091, 168.061 123.732 C 171.294 127.374, 176.090 133.420, 178.719 137.167 L 183.500 143.980 188 143.740 L 192.500 143.500 192.698 71.750 L 192.896 0 96.448 0 L 0 0 0.002 26.750 M 0.438 27.500 C 0.437 42.350, 0.576 48.564, 0.747 41.310 C 0.918 34.055, 0.918 21.905, 0.748 14.310 C 0.578 6.714, 0.438 12.650, 0.438 27.500 M 1 104 L 1 144 37 144 L 73 144 72.963 135.750 C 72.917 125.372, 70.792 114.052, 68.587 112.440 C 66.136 110.648, 65.067 105.753, 65.728 99.351 C 66.156 95.197, 66.004 93.880, 65.154 94.405 C 63.568 95.385, 62 90.925, 62 85.435 C 62 81.944, 61.642 81, 60.316 81 C 56.225 81, 49.671 76.604, 46.746 71.898 C 44.745 68.679, 42.904 66.933, 41.134 66.573 C 32.251 64.770, 24.039 64.014, 13.250 64.008 L 1 64 1 104 M 105.634 94.190 C 106.127 98.422, 107 99.084, 107 95.226 C 107 93.516, 106.610 91.877, 106.134 91.583 C 105.658 91.288, 105.433 92.462, 105.634 94.190 M 126.160 104.240 C 124.495 105.905, 124.712 107.064, 127.181 109.692 L 129.361 112.013 126.504 114.996 C 124.932 116.637, 123.943 118.276, 124.306 118.639 C 125.321 119.654, 139.338 117.067, 140.204 115.704 C 141.740 113.288, 140.889 112, 135.250 108.211 C 127.312 102.878, 127.458 102.942, 126.160 104.240 M 152.027 127.555 C 150.666 128.894, 149.091 131.905, 148.527 134.245 C 147.259 139.500, 145.132 139.987, 136.500 136.996 C 133.200 135.853, 125.775 134.464, 120 133.910 L 109.500 132.902 107.250 135.507 C 106.013 136.939, 105 139.436, 105 141.056 L 105 144 138.568 144 L 172.136 144 169.892 140.848 C 167.001 136.788, 155.965 124.981, 155.135 125.060 C 154.786 125.094, 153.387 126.216, 152.027 127.555" stroke="none" fill="black" fill-rule="evenodd"/>
</svg>