<svg xmlns="http://www.w3.org/2000/svg" width="192" height="144" viewBox="0 0 192 144" version="1.1">
	<path d="M -0 72.005 L -0 144.010 96.250 143.755 L 192.500 143.500 192.757 71.750 L 193.013 0 96.507 0 L 0 0 -0 72.005 M 0.474 72.500 C 0.474 112.100, 0.598 128.154, 0.750 108.176 C 0.901 88.198, 0.901 55.798, 0.750 36.176 C 0.598 16.554, 0.474 32.900, 0.474 72.500 M 63.472 46.920 C 64.100 47.962, 63.917 48.182, 62.786 47.748 C 61.938 47.423, 60.673 47.684, 59.975 48.328 C 58.982 49.246, 58.878 49.174, 59.494 48 C 60.121 46.806, 59.929 46.831, 58.556 48.120 C 56.929 49.648, 56.972 49.881, 59.316 52.225 C 60.682 53.591, 62.408 55.009, 63.150 55.376 C 71.047 59.276, 76.476 63.125, 76.301 64.702 C 76.192 65.691, 75.827 68.525, 75.490 71 C 74.981 74.742, 75.358 76.413, 77.731 80.924 C 82.046 89.125, 83.934 90.138, 95.267 90.334 C 104.059 90.487, 105.035 90.310, 107.346 88.141 C 108.781 86.795, 110.143 84.111, 110.518 81.891 C 111.211 77.792, 113.088 76.915, 116.764 78.972 C 117.719 79.506, 121.781 80.880, 125.791 82.026 C 132.637 83.982, 137 83.973, 137 82.004 C 137 81.530, 137.707 80.436, 138.571 79.571 C 141.011 77.132, 138.255 75.015, 132.845 75.175 C 123.949 75.436, 116.050 73.806, 111.448 70.758 C 106.491 67.474, 105.525 64.995, 109.500 65.755 C 112.038 66.240, 112.794 64.766, 111.235 62.372 C 110.150 60.705, 102.755 59.788, 91.890 59.973 C 84.692 60.095, 81.918 59.775, 80.841 58.698 C 78.500 56.357, 73.028 53.865, 71.841 54.598 C 71.194 54.998, 70.927 54.720, 71.192 53.924 C 71.602 52.695, 70.334 51.367, 64.558 46.976 C 62.959 45.761, 62.767 45.751, 63.472 46.920" stroke="none" fill="black" fill-rule="evenodd"/>
</svg>