<svg xmlns="http://www.w3.org/2000/svg" width="192" height="144" viewBox="0 0 192 144" version="1.1">
	<path d="M 0 72 L 0 144 39.545 144 L 79.091 144 78.573 140.750 C 77.956 136.881, 76.315 121.918, 75.585 113.500 C 73.408 88.412, 72.810 44.657, 74.243 15.250 L 74.986 0 37.493 0 L 0 0 0 72 M 179.650 11.250 C 175.391 29.169, 174.074 40.648, 172.875 70.328 C 171.809 96.724, 172.800 137.708, 174.618 142.447 C 175.091 143.680, 176.942 144, 183.607 144 L 192 144 192 72 L 192 0 187.162 0 L 182.324 0 179.650 11.250" stroke="none" fill="black" fill-rule="evenodd"/>
</svg>