<svg xmlns="http://www.w3.org/2000/svg" width="192" height="144" viewBox="0 0 192 144" version="1.1">
	<path d="M 115.969 3.357 C 113.477 4.029, 110.340 5.349, 108.997 6.290 C 107.654 7.230, 105.276 8, 103.712 8 C 102.148 8, 100.025 8.451, 98.995 9.003 C 97.743 9.673, 96.916 9.673, 96.502 9.003 C 95.567 7.490, 84.414 7.800, 80.468 9.449 C 76.017 11.309, 75.955 13.785, 80.154 21.990 C 82.618 26.805, 83.712 28.047, 85.154 27.670 C 86.742 27.255, 87 27.802, 87 31.594 C 87 34.164, 87.464 36, 88.113 36 C 88.856 36, 88.978 37.082, 88.481 39.250 C 88.070 41.038, 87.677 45.650, 87.607 49.500 C 87.440 58.677, 85.565 65, 83.011 65 C 80.413 65, 78.980 67.818, 80.092 70.742 C 81.077 73.332, 78.207 79.801, 71.554 89.990 C 69.180 93.626, 68.033 96.496, 68.157 98.490 C 68.260 100.145, 67.737 103.158, 66.995 105.184 C 65.887 108.210, 65.878 109.148, 66.945 110.434 C 67.660 111.295, 68.842 112, 69.572 112 C 70.397 112, 71.349 114.284, 72.088 118.041 C 73.320 124.303, 76.099 129, 78.573 129 C 80.487 129, 80.395 129.820, 77.624 137.455 L 75.248 144 104.643 144 L 134.038 144 133.373 141.250 C 133.007 139.738, 132.323 137.458, 131.854 136.185 C 130.255 131.848, 130.995 131.693, 133.934 135.750 C 137.609 140.823, 138.697 141.496, 140.629 139.893 C 141.727 138.982, 142.033 137.446, 141.691 134.557 C 139.199 113.483, 139.015 110.417, 140.115 108.324 C 141.087 106.474, 140.568 104.707, 136.658 96.564 C 134.128 91.293, 131.394 84.440, 130.583 81.335 C 129.285 76.366, 129.285 75.350, 130.580 72.845 C 131.462 71.140, 131.640 69.950, 131.026 69.875 C 130.462 69.806, 129.588 69.694, 129.083 69.625 C 127.287 69.380, 126.655 67.922, 125.886 62.249 C 125.270 57.705, 124.531 56.041, 122.361 54.309 C 119.995 52.421, 119.627 51.424, 119.692 47.074 C 119.832 37.840, 120.980 32.818, 123.078 32.269 C 125.558 31.621, 125.511 29.562, 122.918 25.368 L 120.837 22 123.793 22 C 126.305 22, 126.844 21.529, 127.375 18.875 C 127.719 17.156, 128 13.363, 128 10.446 C 128 2.195, 125.575 0.766, 115.969 3.357 M 117.836 83.583 C 117.569 91.577, 118.120 98.431, 119.112 99.469 C 119.975 100.372, 119.227 80.083, 118.361 79.083 C 118.163 78.854, 117.926 80.879, 117.836 83.583 M 80.459 126.067 C 80.096 126.653, 80.014 127.348, 80.276 127.610 C 80.538 127.872, 81.019 127.392, 81.345 126.543 C 82.021 124.781, 81.445 124.471, 80.459 126.067" stroke="none" fill="black" fill-rule="evenodd"/>
</svg>