<svg xmlns="http://www.w3.org/2000/svg" width="192" height="144" viewBox="0 0 192 144" version="1.1">
	<path d="M 0 72 L 0 144 14.364 144 L 28.728 144 30.273 139.750 C 32.017 134.952, 33.299 115.266, 31.898 114.799 C 31.398 114.633, 31.943 111.122, 33.107 106.998 C 34.272 102.874, 35.328 96.350, 35.455 92.500 C 35.618 87.525, 36.856 81.884, 39.733 73 C 41.960 66.125, 44.317 57.350, 44.971 53.500 C 46.631 43.736, 48.559 39.111, 52.823 34.668 C 57.295 30.007, 60.927 28, 64.891 28 C 68.946 28, 69.673 26.346, 66.911 23.405 C 64.775 21.131, 64.729 20.842, 66.263 19.308 C 67.866 17.705, 70.646 18.051, 76.570 20.588 C 78.039 21.218, 81.372 18.145, 83.316 14.369 C 84.910 11.273, 90.374 6, 91.988 6 C 93.492 6, 92.477 8.644, 89.713 11.929 C 86.229 16.070, 86.298 16.757, 90.142 16.192 C 93.879 15.644, 93.365 17.192, 89.244 18.899 C 87.704 19.537, 85.899 20.933, 85.231 22.001 C 84.170 23.700, 84.535 24.439, 88.142 27.905 C 93.247 32.811, 92.956 35.579, 87.430 34.682 C 82.772 33.926, 82.038 35.872, 85.345 40.208 C 86.859 42.192, 88.128 45.510, 88.519 48.507 C 89.128 53.167, 88.967 53.694, 86.107 56.417 C 84.108 58.319, 81.992 59.333, 80.021 59.333 C 77.924 59.333, 77 59.821, 77 60.926 C 77 61.802, 76.140 63.056, 75.090 63.712 C 71.766 65.787, 71.570 70.218, 74.543 76.084 C 76.519 79.984, 77.061 82.237, 76.643 84.811 C 76.334 86.720, 76.492 89.050, 76.994 89.990 C 77.828 91.548, 78.479 91.426, 84.396 88.599 C 90.851 85.515, 90.883 85.479, 90.941 81.250 C 90.998 77.129, 93.530 73, 96 73 C 98.430 73, 101 77.117, 101 81.009 C 101 84.951, 101.110 85.073, 107.545 88.246 C 114.899 91.873, 116.477 91.288, 115.388 85.337 C 114.979 83.099, 115.604 80.404, 117.523 76.127 C 120.566 69.347, 120.342 65.830, 116.737 63.775 C 115.507 63.074, 114.500 61.825, 114.500 61 C 114.500 60.111, 113.278 59.296, 111.500 59 C 105.868 58.061, 104 56.025, 104 50.825 C 104 45.288, 105.329 41.359, 108.260 38.230 L 110.386 35.960 106.248 27.730 C 103.972 23.203, 101.624 18.150, 101.029 16.500 C 99.988 13.610, 100.076 13.646, 103.437 17.500 C 105.355 19.700, 106.942 21.775, 106.962 22.111 C 107.032 23.246, 112 21.778, 111.965 20.633 C 111.945 20.010, 111.286 18.375, 110.500 17 C 106.417 9.858, 112.106 14.440, 117.603 22.720 C 120.831 27.584, 121.412 28, 124.988 28 C 130.271 28, 133.166 29.251, 138.012 33.630 C 143.443 38.536, 144.510 40.819, 146.871 52.586 C 147.966 58.039, 150.466 67.448, 152.428 73.496 C 154.390 79.544, 156.261 87.419, 156.588 90.996 C 156.914 94.573, 157.989 99.975, 158.978 103 C 161.802 111.637, 162.448 115.395, 160.951 114.470 C 159.987 113.874, 159.843 114.467, 160.344 116.970 C 160.705 118.774, 161 120.553, 161 120.924 C 161 121.295, 162.481 122.134, 164.292 122.788 C 168.995 124.489, 178.476 134.199, 180.658 139.551 L 182.500 144.069 187.500 143.784 L 192.500 143.500 192.757 71.750 L 193.013 0 96.507 0 L 0 0 0 72 M 0.474 72.500 C 0.474 112.100, 0.598 128.154, 0.750 108.176 C 0.901 88.198, 0.901 55.798, 0.750 36.176 C 0.598 16.554, 0.474 32.900, 0.474 72.500 M 113.614 28.400 C 112.800 31.644, 113.500 32.900, 115.184 31.216 C 115.992 30.408, 116.035 29.394, 115.330 27.815 C 114.338 25.590, 114.318 25.596, 113.614 28.400 M 83.835 97.253 C 81.451 99.050, 78.159 101.381, 76.520 102.433 C 71.304 105.784, 75.402 105.187, 82.834 101.514 C 89.409 98.265, 91.437 96.006, 89.085 94.553 C 88.582 94.242, 86.219 95.457, 83.835 97.253 M 102.618 94.716 C 100.883 96.451, 102.665 98.301, 109.166 101.514 C 113.108 103.462, 116.806 104.898, 117.384 104.705 C 117.962 104.513, 115.015 102.047, 110.835 99.226 C 106.655 96.406, 102.957 94.376, 102.618 94.716 M 94.477 103.105 C 94.036 105.111, 92.735 106.793, 90.803 107.855 C 89.157 108.760, 84.591 111.405, 80.655 113.733 C 76.720 116.062, 72.429 117.974, 71.121 117.983 C 68.810 118, 68.761 118.170, 69.408 123.893 C 69.775 127.135, 70.846 132.872, 71.788 136.643 L 73.500 143.500 97.750 143.768 L 122 144.036 122.006 139.268 C 122.009 136.646, 122.301 130.787, 122.654 126.250 C 123.294 118.037, 123.286 118, 120.898 117.969 C 119.579 117.952, 114.008 115.333, 108.518 112.150 C 100.201 107.328, 98.383 105.832, 97.623 103.181 C 96.469 99.157, 95.350 99.130, 94.477 103.105" stroke="none" fill="black" fill-rule="evenodd"/>
</svg>