<svg xmlns="http://www.w3.org/2000/svg" width="192" height="144" viewBox="0 0 192 144" version="1.1">
	<path d="M 0 8.421 C 0 16.794, 0.015 16.844, 2.750 17.443 C 9.579 18.939, 10.800 18.946, 12.002 17.498 C 14.385 14.626, 19.509 16.511, 18.248 19.795 C 17.781 21.012, 18.068 21.169, 19.576 20.521 C 23.982 18.629, 27.769 18.769, 29.902 20.902 C 31.056 22.056, 32 23.900, 32 25 C 32 26.100, 32.378 27, 32.839 27 C 33.301 27, 34.197 28.137, 34.831 29.528 C 35.714 31.467, 35.694 32.534, 34.741 34.112 C 33.668 35.891, 33.812 36.394, 35.807 37.835 C 37.075 38.751, 41.478 42.404, 45.591 45.954 C 52.662 52.057, 53.027 52.574, 52.285 55.454 C 50.336 63.020, 52.925 76.749, 61.062 102 C 64.812 113.635, 66.300 129, 63.678 129 C 62.798 129, 61.167 129.977, 60.055 131.172 C 58.397 132.951, 57.057 133.304, 52.644 133.126 C 46.706 132.885, 46.043 133.647, 46.014 140.750 L 46 144 66 144 C 77.559 144, 86 143.610, 86 143.077 C 86 142.569, 84.875 140.816, 83.500 139.182 C 82.125 137.548, 81 135.462, 81 134.547 C 81 133.631, 80.629 133.111, 80.175 133.392 C 78.635 134.344, 75.282 125.535, 73.556 116 C 72.609 110.775, 70.972 102.529, 69.918 97.674 C 68.863 92.820, 68 88.446, 68 87.954 C 68 87.461, 70.017 84.908, 72.483 82.279 C 76.300 78.210, 76.969 76.881, 76.983 73.333 C 76.992 71.042, 76.509 69.003, 75.908 68.803 C 75.307 68.602, 74.781 67.102, 74.738 65.469 C 74.695 63.836, 73.563 58.450, 72.223 53.500 C 70.883 48.550, 69.169 41.350, 68.414 37.500 C 67.658 33.650, 66.325 27.350, 65.450 23.500 C 64.576 19.650, 64.008 14.588, 64.187 12.250 C 64.367 9.913, 64.134 8, 63.669 8 C 63.205 8, 63.128 6.200, 63.500 4 L 64.176 0 32.088 0 L 0 0 0 8.421 M -0 42.542 C -0 55.627, 0.186 66.146, 0.412 65.917 C 3.355 62.943, 13.190 49.092, 13.644 47.280 C 14.175 45.167, 14.012 43.211, 12.583 34.500 C 12.403 33.400, 12.198 31.704, 12.128 30.731 C 12.029 29.361, 11.438 29.103, 9.509 29.587 C 6.392 30.369, 5.228 27.989, 6.916 24.284 C 8.306 21.234, 7.574 20.265, 3.219 19.394 L -0 18.750 -0 42.542 M 35.512 66.196 C 34.567 71.089, 35.378 73.265, 36.923 69.983 C 37.723 68.284, 37.803 66.660, 37.167 64.983 C 36.255 62.576, 36.204 62.613, 35.512 66.196 M 28 66 C 28 67.100, 28.173 68, 28.383 68 C 28.594 68, 29.002 67.100, 29.290 66 C 29.577 64.900, 29.405 64, 28.906 64 C 28.408 64, 28 64.900, 28 66 M 28.242 71.158 C 27.559 71.841, 27 73.421, 27 74.669 C 27 76.187, 26.544 76.762, 25.619 76.407 C 23.781 75.702, 22.132 80.542, 22.758 84.805 C 23.211 87.894, 23.087 88.060, 20.762 87.477 C 18.664 86.950, 17.934 87.441, 16.009 90.677 C 13.968 94.106, 13.657 94.294, 12.988 92.500 C 12.578 91.400, 12.473 87.301, 12.755 83.392 C 13.064 79.108, 12.865 76.035, 12.256 75.658 C 11.699 75.314, 9.080 76.938, 6.435 79.266 C 3.789 81.595, 1.372 83.275, 1.063 83 C 0.753 82.725, 0.381 96.338, 0.236 113.250 L -0.029 144 14.846 144 L 29.721 144 30.338 138.795 C 31.033 132.928, 30.116 131.665, 25.816 132.567 C 23.691 133.013, 22.781 132.595, 21.450 130.565 C 20.035 128.405, 19.115 128.039, 15.635 128.250 C 11.532 128.498, 11.500 128.473, 11.475 125 C 11.450 121.497, 15.272 110.824, 17.563 108 C 20.675 104.164, 30.200 82.874, 29.685 80.905 C 29.382 79.746, 29.625 77.723, 30.224 76.408 C 31.642 73.296, 30.124 69.276, 28.242 71.158 M 37.206 136.689 C 36.695 137.685, 35.981 139.738, 35.619 141.250 C 35.011 143.797, 35.190 144, 38.038 144 C 41.031 144, 41.107 143.887, 40.807 139.828 C 40.475 135.321, 38.702 133.775, 37.206 136.689" stroke="none" fill="black" fill-rule="evenodd"/>
</svg>