<svg xmlns="http://www.w3.org/2000/svg" width="192" height="144" viewBox="0 0 192 144" version="1.1">
	<path d="M 135.362 1.500 C 135.014 2.407, 133.503 3, 131.542 3 C 129.758 3, 126.919 3.481, 125.233 4.069 C 122.754 4.933, 121.528 4.795, 118.833 3.351 C 114.314 0.929, 100.506 1.145, 93.500 3.747 L 88.500 5.604 88.458 10.259 C 88.435 12.819, 89.258 16.703, 90.288 18.890 C 92.154 22.856, 92.153 22.874, 89.887 25.939 C 86.535 30.473, 86.870 36.930, 90.849 44.472 C 94.114 50.661, 94.749 53.584, 92.958 54.181 C 91.739 54.587, 88.822 70.227, 89.823 70.986 C 90.195 71.269, 90.586 73.854, 90.690 76.732 C 90.795 79.609, 91.307 82.726, 91.829 83.659 C 92.569 84.982, 93.058 84.053, 94.054 79.427 C 94.756 76.167, 95.656 73.050, 96.054 72.500 C 96.452 71.950, 97.360 68.863, 98.072 65.641 C 99.226 60.422, 99.511 59.979, 100.684 61.582 C 101.408 62.572, 102 65.556, 102 68.213 C 102 72.407, 101.668 73.194, 99.476 74.193 C 98.040 74.847, 96.727 76.454, 96.431 77.921 C 96.144 79.340, 95.481 82.122, 94.958 84.105 C 94.435 86.088, 93.721 91.931, 93.372 97.090 C 93.003 102.549, 92.136 107.389, 91.298 108.668 C 90.215 110.320, 90.124 111.363, 90.929 112.867 C 91.518 113.968, 92 118.664, 92 123.303 L 92 131.737 85.481 137.868 L 78.962 144 111.500 144 L 144.038 144 143.519 141.500 C 143.234 140.125, 142.793 137.979, 142.539 136.732 C 141.980 133.980, 144.580 121.020, 145.970 119.630 C 147.570 118.030, 148.540 119.906, 147.212 122.032 C 145.685 124.477, 145.660 127.260, 147.151 128.751 C 148.248 129.848, 148.812 133.625, 148.941 140.750 L 149 144 154.605 144 L 160.210 144 159.829 140 C 159.619 137.800, 159.631 136, 159.856 136 C 160.951 136, 164 140.527, 164 142.153 C 164 143.861, 165.052 144, 177.956 144 L 191.912 144 188.398 137.376 C 183.434 128.019, 182.155 126.108, 177.300 120.793 C 173.956 117.132, 173 115.311, 173 112.600 C 173 108.865, 169.983 105.685, 167.385 106.682 C 166.557 107, 166 106.564, 166 105.599 C 166 104.246, 165.682 104.182, 164.045 105.204 C 162.970 105.875, 161.887 106.216, 161.638 105.962 C 160.159 104.452, 151.198 87.927, 150.629 85.658 C 150.222 84.038, 150.575 81.073, 151.497 78.357 C 152.351 75.842, 153.996 68.986, 155.153 63.121 L 157.257 52.459 161.302 52.353 C 163.911 52.285, 165.802 51.624, 166.630 50.491 C 168.118 48.457, 166.947 45.591, 161.530 38 C 156.561 31.038, 156.501 30.860, 159.508 32.003 C 164.547 33.919, 165.756 33.355, 166.182 28.890 C 166.732 23.118, 165.423 11.464, 163.525 5.250 L 161.923 0 148.930 0 C 138.303 0, 135.832 0.273, 135.362 1.500" stroke="none" fill="black" fill-rule="evenodd"/>
</svg>