<svg xmlns="http://www.w3.org/2000/svg" width="192" height="144" viewBox="0 0 192 144" version="1.1">
	<path d="M 117 24 C 113.071 27.308, 111.757 27.617, 110.103 25.625 C 107.519 22.511, 100.614 21.667, 90.997 23.288 C 86.009 24.129, 80.829 25.538, 79.485 26.418 C 75.409 29.089, 73.584 33.747, 73.540 41.594 C 73.500 48.756, 72.202 52, 69.378 52 C 68.579 52, 68 53.039, 68 54.474 C 68 57.135, 72.122 60, 75.950 60 C 78.237 60, 78.602 62.006, 76.897 65.193 C 76.068 66.741, 76.100 67.444, 77.025 68.015 C 77.702 68.434, 77.947 69.277, 77.569 69.888 C 77.191 70.500, 77.359 71, 77.941 71 C 78.523 71, 79 70.480, 79 69.845 C 79 69.154, 79.735 69.355, 80.829 70.345 C 81.835 71.255, 83.185 72, 83.829 72 C 84.473 72, 85 72.450, 85 73 C 85 74.369, 88.743 74.271, 89.203 72.890 C 89.435 72.196, 90.073 72.383, 90.909 73.390 C 92.076 74.797, 91.792 75.189, 88.654 76.500 C 86.680 77.325, 84.216 78, 83.180 78 C 79.590 78, 74.551 82.393, 72 87.746 C 69.870 92.216, 69.088 92.993, 66.718 92.996 C 62.201 93.002, 57.762 90.613, 50.929 84.500 C 47.393 81.337, 43.038 78.047, 41.250 77.189 C 39.350 76.278, 38 74.876, 38 73.815 C 38 72.817, 37.719 72, 37.376 72 C 37.033 72, 32.609 75.937, 27.544 80.750 C 22.119 85.905, 14.586 91.760, 9.211 95 C 3.167 98.643, 0.072 101.115, 0.043 102.322 C 0.005 103.944, 0.588 104.071, 5.351 103.475 C 9.704 102.932, 11.467 103.198, 14.811 104.903 C 17.071 106.057, 19.367 107, 19.912 107 C 20.458 107, 22.297 104.975, 24 102.500 C 27.473 97.452, 29.039 96.971, 31.326 100.250 C 32.553 102.010, 32.907 102.142, 32.948 100.857 C 32.976 99.953, 33.616 98.978, 34.369 98.688 C 35.803 98.138, 41.989 101.412, 42.015 102.735 C 42.024 103.156, 42.408 104.096, 42.870 104.824 C 43.559 105.910, 44.387 105.865, 47.477 104.574 C 52.722 102.382, 53.470 102.527, 57.978 106.599 L 61.962 110.198 67.076 106.444 C 73.392 101.808, 74.344 102.662, 73.490 112.196 C 72.896 118.819, 72.921 118.908, 75.792 120.392 C 77.388 121.218, 79.663 121.640, 80.847 121.330 C 82.779 120.825, 83 121.167, 83 124.661 C 83 126.803, 82.381 129.443, 81.625 130.527 C 79.758 133.207, 78.483 141, 79.912 141 C 80.510 141, 81 141.675, 81 142.500 C 81 143.786, 84.013 144, 102.115 144 L 123.230 144 121.523 141.395 C 120.365 139.627, 120.010 137.759, 120.419 135.580 C 120.906 132.987, 120.538 131.915, 118.511 130.010 C 115.024 126.735, 115.299 123.846, 119.272 122 L 122.500 120.500 122.500 112.226 C 122.500 106.122, 122.876 103.717, 123.936 103.053 C 125.135 102.300, 125.153 101.889, 124.043 100.552 C 120.519 96.305, 127.116 98.004, 137.330 103.973 L 144.127 107.944 148.037 105.357 C 152.267 102.557, 155.863 102.681, 159.260 105.742 C 160.877 107.199, 161.204 107.158, 163.260 105.231 C 164.492 104.077, 166.754 102.658, 168.286 102.078 C 170.741 101.148, 171.170 101.284, 171.887 103.224 L 172.702 105.426 173.886 103.213 C 175.720 99.785, 177.818 100.571, 180.262 105.602 L 182.497 110.204 186.920 109.598 C 189.352 109.264, 191.514 108.820, 191.724 108.610 C 191.934 108.399, 192.194 105.763, 192.303 102.750 C 192.489 97.578, 192.262 97.014, 188.231 92.638 C 185.883 90.089, 181.923 84.852, 179.432 81.002 C 174.774 73.800, 173.641 72.888, 172.628 75.526 C 172.306 76.366, 170.120 77.877, 167.771 78.885 C 165.422 79.893, 160.623 82.578, 157.106 84.851 C 149.112 90.020, 145.404 91.056, 137.524 90.320 C 133.372 89.932, 131.046 90.116, 130.581 90.868 C 129.002 93.424, 126.314 91.982, 124.950 87.848 C 124.196 85.565, 122.212 82.256, 120.540 80.495 C 117.984 77.804, 116.510 77.184, 111.280 76.601 C 107.860 76.220, 104.827 75.529, 104.541 75.067 C 103.810 73.883, 106.693 71.692, 107.956 72.473 C 108.530 72.828, 109 72.593, 109 71.952 C 109 71.311, 109.652 71.036, 110.449 71.342 C 111.335 71.682, 112.147 71.113, 112.539 69.877 C 112.922 68.670, 113.749 68.073, 114.590 68.396 C 115.366 68.694, 116 68.515, 116 68 C 116 67.485, 116.753 67.352, 117.674 67.705 C 118.986 68.209, 119.195 67.949, 118.640 66.504 C 118.218 65.404, 118.440 64.346, 119.190 63.883 C 120.132 63.301, 119.870 62.490, 118.149 60.658 C 116.655 59.068, 116.232 57.975, 116.941 57.536 C 117.541 57.165, 117.755 56.413, 117.416 55.864 C 117.076 55.315, 117.744 54.618, 118.899 54.316 C 121.654 53.596, 121.621 50.290, 118.829 47.318 C 116.031 44.340, 116.621 43.876, 121.201 45.455 L 124.901 46.730 125.201 42.124 C 125.442 38.415, 125.890 37.456, 127.500 37.200 C 132.042 36.479, 132.137 36.042, 128.549 32.347 C 126.588 30.328, 124.466 26.949, 123.833 24.838 C 123.201 22.727, 122.192 21.012, 121.592 21.027 C 120.991 21.042, 118.925 22.380, 117 24 M 0.158 102 C 0.158 103.375, 0.385 103.938, 0.662 103.250 C 0.940 102.563, 0.940 101.438, 0.662 100.750 C 0.385 100.063, 0.158 100.625, 0.158 102" stroke="none" fill="black" fill-rule="evenodd"/>
</svg>