<svg xmlns="http://www.w3.org/2000/svg" width="192" height="144" viewBox="0 0 192 144" version="1.1">
	<path d="M 22.371 6.250 C 22.708 9.688, 23.278 15.615, 23.638 19.423 L 24.293 26.345 21.242 24.173 C 19.564 22.978, 17.752 22, 17.214 22 C 15.905 22, 11 28.508, 11 30.245 C 11 32.141, 14.736 39.719, 16.080 40.549 C 18.094 41.794, 19.164 39.455, 17.875 36.625 C 16.959 34.614, 16.940 33.660, 17.798 32.802 C 18.657 31.943, 19.503 32.386, 21.189 34.579 C 22.424 36.185, 25.147 39.094, 27.239 41.042 L 31.044 44.584 28.217 47.292 C 25.787 49.621, 24.551 50, 19.395 50 C 13.483 50, 11 51.104, 11 53.731 C 11 54.464, 11.788 55.350, 12.750 55.702 C 13.713 56.053, 15.772 57.389, 17.327 58.670 C 18.881 59.952, 20.948 61, 21.918 61 C 23.095 61, 24.062 62.264, 24.819 64.792 C 26.238 69.526, 31.033 74.250, 34.420 74.250 C 35.822 74.250, 38.158 73.406, 39.610 72.375 C 41.062 71.344, 43.386 69.745, 44.775 68.823 L 47.299 67.147 43.649 66.462 C 40.697 65.908, 40 65.335, 40 63.460 C 40 60.116, 42.030 58.552, 48.339 57.039 C 53.288 55.851, 53.800 55.495, 52.920 53.851 C 52.298 52.689, 50.827 52, 48.965 52 C 47.334 52, 46 51.605, 46 51.122 C 46 49.581, 49.075 42.821, 51.006 40.115 C 52.936 37.412, 54.216 25.882, 52.749 24.416 C 52.337 24.004, 51.993 22.054, 51.985 20.083 C 51.973 17.279, 51.739 16.826, 50.909 18 C 50.106 19.135, 49.724 19.194, 49.338 18.244 C 49.058 17.553, 48.418 17.242, 47.915 17.553 C 47.412 17.864, 47 17.056, 47 15.759 C 47 14.462, 46.493 12.893, 45.873 12.273 C 44.321 10.721, 45.491 6.758, 48.589 3.077 L 51.178 0 36.469 -0 L 21.760 -0 22.371 6.250 M 128 72 L 128 144 145.893 144 C 166.265 144, 165.559 144.324, 164.455 135.485 C 163.935 131.325, 164.282 129.269, 166.323 124.422 C 167.701 121.147, 169.071 115.775, 169.368 112.484 C 169.665 109.193, 170.302 105.150, 170.784 103.500 C 171.266 101.850, 171.334 99.035, 170.934 97.245 C 170.191 93.913, 171.126 92.342, 173.119 93.573 C 173.734 93.953, 176.749 94.439, 179.820 94.652 C 182.909 94.867, 186.876 95.909, 188.701 96.986 L 192 98.933 192 49.466 L 192 0 160 0 L 128 0 128 72 M 37.164 21.303 C 35.628 23.153, 35.141 27.775, 36.436 28.196 C 37.437 28.521, 39.333 22.499, 38.766 20.798 C 38.578 20.235, 37.863 20.460, 37.164 21.303 M 189.746 111.095 C 187.895 114.347, 188.169 116, 190.559 116 C 191.573 116, 192 114.816, 192 112 C 192 109.800, 191.887 108.003, 191.750 108.006 C 191.613 108.010, 190.711 109.400, 189.746 111.095" stroke="none" fill="black" fill-rule="evenodd"/>
</svg>