<svg xmlns="http://www.w3.org/2000/svg" width="192" height="144" viewBox="0 0 192 144" version="1.1">
	<path d="M 0 38.500 C 0 59.675, 0.301 77, 0.670 77 C 1.038 77, 4.364 74.080, 8.061 70.512 L 14.781 64.023 21.641 66.863 C 25.413 68.425, 32.550 71.794, 37.500 74.350 C 47.140 79.327, 52.328 80.147, 60.250 77.947 C 62.692 77.269, 65.193 77.235, 67.419 77.850 C 70.774 78.776, 70.926 78.682, 75.434 72.877 C 78.377 69.087, 81.642 66.176, 84.515 64.781 C 87.897 63.137, 89 62.036, 89 60.301 C 89 59.035, 89.477 58, 90.059 58 C 90.641 58, 90.859 57.581, 90.543 57.070 C 89.953 56.115, 85.436 56.231, 84.440 57.226 C 83.466 58.200, 80 56.819, 80 55.456 C 80 54.735, 78.875 53.260, 77.500 52.179 C 76.125 51.097, 75 49.714, 75 49.106 C 75 48.498, 74.235 48, 73.300 48 C 71.978 48, 71.867 47.733, 72.800 46.800 C 74.558 45.042, 74.263 43.001, 72.250 42.995 C 71.287 42.992, 69.264 41.980, 67.754 40.745 C 65.698 39.065, 65.162 37.934, 65.620 36.250 C 65.957 35.013, 66.786 34, 67.462 34 C 70.466 34, 72.499 29.842, 72.590 23.511 C 72.691 16.493, 74.697 12.053, 79.323 8.605 C 81.848 6.723, 83.497 6.500, 94.901 6.500 C 107.449 6.500, 107.718 6.547, 111.477 9.415 C 113.578 11.017, 115.789 13.629, 116.389 15.218 C 117.229 17.446, 117.940 17.978, 119.490 17.540 C 120.595 17.228, 123.367 16.699, 125.649 16.364 C 129.098 15.859, 129.973 16.081, 130.831 17.684 C 132.035 19.933, 132.624 35.181, 131.573 36.882 C 131.180 37.518, 131.404 39.694, 132.072 41.717 C 134.450 48.922, 133.026 60.888, 129.280 65.183 C 127.651 67.050, 125 66.561, 125 64.393 C 125 63.627, 124.643 63, 124.206 63 C 122.722 63, 120.580 50.528, 120.829 43.333 C 121.110 35.185, 119.897 33.253, 118.037 38.889 C 117.076 41.801, 117.049 43.222, 117.923 44.856 C 118.880 46.644, 118.797 47, 117.427 47 C 116.178 47, 115.932 47.594, 116.404 49.473 C 116.879 51.366, 116.687 51.817, 115.587 51.395 C 114.734 51.068, 113.461 51.893, 112.459 53.422 C 111.530 54.840, 110.309 56, 109.745 56 C 109.182 56, 108.123 56.787, 107.392 57.750 C 106.456 58.983, 106.054 59.099, 106.032 58.143 C 106.014 57.380, 105.372 57.027, 104.565 57.337 C 103.775 57.640, 102.937 57.350, 102.702 56.694 C 101.828 54.255, 101.095 56.708, 101.848 59.550 C 102.384 61.574, 103.950 63.234, 106.839 64.838 C 109.154 66.124, 112.950 69.534, 115.274 72.415 L 119.500 77.654 127 77.912 C 146.399 78.577, 144.221 79.019, 160.110 71.194 C 168.146 67.237, 175.291 64, 175.989 64 C 176.686 64, 180.371 66.938, 184.178 70.529 C 187.984 74.119, 191.526 76.793, 192.049 76.470 C 192.623 76.115, 193 60.850, 193 37.941 L 193 0 96.500 0 L 0 0 0 38.500 M 0.454 39 C 0.454 60.175, 0.587 68.838, 0.749 58.250 C 0.911 47.663, 0.911 30.338, 0.749 19.750 C 0.587 9.163, 0.454 17.825, 0.454 39 M 14.011 71.219 C 11.890 73.495, 12.061 75.754, 14.635 79.473 C 16.579 82.282, 16.350 84.994, 13.382 94.296 C 10.405 103.625, 9.334 105.325, 8.596 101.895 C 5.702 88.437, 5.095 83.691, 6.041 81.923 C 7.411 79.363, 6.139 79.549, 2.627 82.421 C 0.071 84.512, -0.172 85.197, 0.418 88.635 C 0.783 90.761, 1.032 93.400, 0.971 94.500 C 0.911 95.600, 0.644 107.188, 0.379 120.250 L -0.103 144 35.337 144 L 70.777 144 71.473 140.250 C 71.855 138.188, 73.463 133.350, 75.046 129.500 C 76.874 125.053, 78 120.393, 78.134 116.722 C 78.396 109.531, 76.842 107.471, 74.529 111.944 C 73.429 114.071, 69.194 117.541, 61.694 122.463 C 49.095 130.729, 35.613 136.472, 29.615 136.127 C 25.762 135.905, 17.998 132.631, 18.002 131.230 C 18.003 130.828, 20.365 130.443, 23.252 130.374 C 28.822 130.239, 36 127.805, 36 126.051 C 36 125.473, 35.100 125, 34 125 C 32.900 125, 32 124.559, 32 124.019 C 32 122.511, 36.609 121.696, 41.810 122.284 C 46.327 122.795, 46.758 122.606, 53.478 117.157 C 57.315 114.046, 62.040 110.340, 63.978 108.922 C 67.061 106.665, 67.659 105.497, 68.777 99.557 C 69.669 94.816, 69.739 92.390, 69.010 91.512 C 68.435 90.820, 68.217 89.599, 68.524 88.799 C 68.830 87.999, 68.624 86.142, 68.066 84.672 C 67.273 82.589, 66.383 82, 64.025 82 C 60.489 82, 60.576 81.740, 62.545 86.454 C 64.007 89.953, 63.942 90.688, 61.331 100.076 C 59.814 105.534, 58.294 110, 57.954 110 C 57.614 110, 56.397 105.612, 55.249 100.250 C 53.229 90.814, 53.219 90.380, 54.942 86.778 C 55.921 84.730, 56.484 82.818, 56.194 82.528 C 55.496 81.829, 50.058 81.878, 47.340 82.607 C 45.339 83.143, 45.274 83.419, 46.459 86.343 C 47.597 89.152, 47.405 90.574, 44.712 99.250 C 43.047 104.612, 41.347 109, 40.935 109 C 40.522 109, 39.398 104.629, 38.436 99.286 C 36.695 89.618, 36.697 89.552, 38.827 85.664 C 40.004 83.515, 40.712 81.343, 40.400 80.838 C 39.502 79.385, 32.185 75, 30.659 75 C 29.548 75, 29.477 75.745, 30.294 78.809 C 31.123 81.914, 30.904 83.956, 29.111 89.861 C 26.105 99.758, 25.048 102.381, 24.348 101.681 C 24.020 101.353, 22.952 96.678, 21.974 91.292 C 20.244 81.760, 20.247 81.412, 22.098 78.193 C 23.144 76.374, 24 74.507, 24 74.044 C 24 73.581, 22.207 72.268, 20.016 71.125 L 16.032 69.049 14.011 71.219 M 170.750 71.068 C 168.688 72.157, 167 73.236, 167 73.467 C 167 73.697, 167.953 75.501, 169.118 77.475 C 171.221 81.040, 171.224 81.127, 169.482 90.282 C 168.517 95.352, 167.395 100.131, 166.989 100.902 C 166.526 101.781, 165.084 98.551, 163.125 92.246 C 159.494 80.558, 159.578 81.332, 161.524 77.601 C 162.355 76.007, 162.832 74.498, 162.582 74.249 C 161.953 73.619, 153.165 78.096, 151.799 79.743 C 150.955 80.759, 151.189 81.995, 152.756 84.794 C 154.790 88.430, 154.799 88.694, 153.208 98.750 C 152.317 104.388, 151.267 109, 150.876 109 C 149.630 109, 143.827 90.130, 144.425 88.023 C 146.282 81.489, 146.609 82, 140.567 82 C 137.505 82, 135 82.156, 135 82.346 C 135 82.537, 135.748 84.192, 136.662 86.023 C 138.171 89.049, 138.194 90.258, 136.912 99.217 C 136.135 104.641, 135.050 109.129, 134.500 109.190 C 133.368 109.316, 128.196 93.841, 128.078 89.973 C 128.035 88.582, 128.659 86.504, 129.465 85.354 C 131.288 82.751, 130.586 82, 126.333 82 C 123.594 82, 122.970 82.401, 122.829 84.250 C 122.735 85.487, 122.592 87.400, 122.510 88.500 C 122.429 89.600, 121.995 91.321, 121.546 92.325 C 121.081 93.362, 121.219 95.787, 121.864 97.941 C 122.489 100.026, 123 102.672, 123 103.821 C 123 105.327, 125.774 107.877, 132.936 112.955 C 141.695 119.165, 143.406 120, 147.371 120 C 149.845 120, 153.024 120.439, 154.435 120.975 C 157.541 122.156, 158.073 125.475, 155 124.500 C 153.817 124.125, 153 124.320, 153 124.979 C 153 126.723, 163.090 130.979, 167.250 130.990 C 169.313 130.996, 171 131.374, 171 131.831 C 171 133.610, 165.559 135.434, 160.161 135.466 C 155.555 135.494, 153.568 134.927, 149.500 132.425 C 146.750 130.734, 143.096 128.865, 141.379 128.272 C 136.765 126.678, 120.009 116.307, 116.160 112.662 L 112.821 109.500 113.548 116.448 C 113.948 120.269, 115.330 125.669, 116.619 128.448 C 117.908 131.227, 119.493 135.863, 120.141 138.750 L 121.318 144 156.711 144 L 192.103 144 191.607 120.250 C 191.334 107.188, 191.061 95.375, 191.001 94 C 190.940 92.625, 191.180 89.896, 191.533 87.936 C 192.118 84.688, 191.853 84.125, 188.548 81.605 L 184.921 78.838 185.550 81.343 C 186.276 84.236, 183.030 104.136, 181.941 103.464 C 181.542 103.217, 179.797 98.595, 178.062 93.193 C 174.758 82.903, 174.766 82.553, 178.463 76.093 C 179.649 74.022, 179.627 73.360, 178.305 71.343 C 176.462 68.529, 175.617 68.499, 170.750 71.068" stroke="none" fill="black" fill-rule="evenodd"/>
</svg>