<svg xmlns="http://www.w3.org/2000/svg" width="192" height="144" viewBox="0 0 192 144" version="1.1">
	<path d="M 0 72 L 0 144 18.776 144 L 37.553 144 37.184 140.130 C 36.270 130.551, 46.519 121.429, 64.259 116.030 C 67.692 114.985, 72.300 113.850, 74.500 113.508 C 83.191 112.154, 82.714 112.559, 82.714 106.523 C 82.714 102.035, 83.158 100.575, 85.107 98.654 C 88.298 95.508, 92.100 93.571, 92.877 94.695 C 93.220 95.190, 94.583 95.664, 95.908 95.748 C 97.232 95.831, 99.594 97.300, 101.158 99.011 C 103.477 101.551, 104 103.032, 104 107.062 C 104 111.841, 104.093 112, 106.893 112 C 117.105 112, 137.588 118.770, 145.444 124.742 C 151.625 129.440, 154.161 133.696, 154.249 139.518 L 154.317 144.042 173.409 143.771 L 192.500 143.500 192.757 71.750 L 193.013 0 96.507 0 L 0 0 0 72 M 0.474 72.500 C 0.474 112.100, 0.598 128.154, 0.750 108.176 C 0.901 88.198, 0.901 55.798, 0.750 36.176 C 0.598 16.554, 0.474 32.900, 0.474 72.500 M 76.347 117.964 C 58.873 122.597, 51.446 129.902, 53.434 140.500 L 54.091 144 95.185 144 C 133.150 144, 136.381 143.867, 137.608 142.250 C 141.482 137.146, 137.177 128.445, 128 122.836 C 123.762 120.245, 113.733 117.182, 106.992 116.420 L 100.569 115.693 102.160 118.122 C 104.527 121.735, 105.595 134.261, 103.672 135.858 C 101.614 137.565, 95.832 138.379, 91.511 137.568 C 86.865 136.696, 85.827 134.092, 87.041 126.348 C 88.662 116.008, 88.714 116.519, 86 116.284 C 84.625 116.165, 80.281 116.921, 76.347 117.964" stroke="none" fill="black" fill-rule="evenodd"/>
</svg>