<svg xmlns="http://www.w3.org/2000/svg" width="192" height="144" viewBox="0 0 192 144" version="1.1">
	<path d="M 55 72 L 55 144 123.353 144 L 191.706 144 192.233 106.274 C 192.523 85.525, 192.523 53.125, 192.232 34.274 L 191.703 0 123.352 0 L 55 0 55 72 M 131.750 37.689 C 129.405 38.302, 129.540 39.652, 132.500 45.212 C 133.875 47.795, 135 50.739, 135 51.754 C 135 52.769, 135.499 54.099, 136.110 54.710 C 136.923 55.523, 136.805 56.579, 135.670 58.660 C 134.817 60.222, 133.851 63.169, 133.523 65.208 C 133.096 67.853, 131.867 69.788, 129.235 71.958 C 127.205 73.631, 125.179 75, 124.733 75 C 123.487 75, 99.716 66.002, 98.538 65.084 C 97.967 64.640, 96.304 63.991, 94.843 63.642 C 93.381 63.294, 91.469 62.733, 90.593 62.397 C 87.509 61.214, 88.783 65.837, 92 67.500 C 93.650 68.353, 95 69.715, 95 70.526 C 95 72.010, 96.028 72.380, 99.245 72.053 C 101.578 71.816, 105.699 76.613, 107.146 81.250 C 107.790 83.313, 108.731 85, 109.238 85 C 110.629 85, 109.022 78.883, 106.808 75.750 C 105.739 74.237, 105.085 73, 105.356 73 C 106.198 73, 125.838 79.782, 126.904 80.441 C 127.459 80.783, 127.681 81.667, 127.399 82.403 C 126.765 84.055, 129.564 87, 131.768 87 C 134.654 87, 140.825 91.954, 140.324 93.869 C 140.018 95.040, 140.731 96.012, 142.480 96.809 C 145.931 98.381, 147 98.311, 147 96.513 C 147 95.696, 148.688 94.315, 150.750 93.446 C 153.840 92.143, 154.852 92.088, 156.500 93.137 C 157.600 93.837, 161.875 96.167, 166 98.316 C 170.125 100.465, 174.445 103.088, 175.599 104.144 C 177.318 105.718, 178.191 105.878, 180.419 105.031 C 181.915 104.462, 184.213 104.266, 185.526 104.596 C 187.541 105.102, 188.011 104.751, 188.540 102.347 C 188.885 100.781, 189.338 98.943, 189.547 98.262 C 189.757 97.582, 188.819 95.829, 187.464 94.366 C 186.109 92.904, 185 90.883, 185 89.874 C 185 87.069, 178.020 84.072, 168.791 82.915 C 161.848 82.044, 160.058 81.411, 156.869 78.695 C 154.806 76.938, 152.824 74.375, 152.466 73 C 152.107 71.625, 151.590 69.680, 151.317 68.678 C 151.043 67.675, 150.230 67.081, 149.511 67.358 C 148.635 67.694, 147.823 66.355, 147.056 63.308 C 145.665 57.784, 146.285 56.717, 148.452 60.907 C 150.374 64.624, 152.383 65.139, 151.025 61.567 C 150.516 60.228, 149.542 58.240, 148.861 57.149 C 147.954 55.696, 147.905 54.538, 148.677 52.832 C 149.712 50.547, 149.765 50.576, 151.316 54.250 C 153.641 59.760, 155.058 58.907, 153.485 52.944 C 151.296 44.647, 148.249 41.734, 142.478 42.421 C 137.479 43.016, 135.559 41.964, 136.460 39.125 C 137.156 36.934, 135.995 36.580, 131.750 37.689 M 1 70.969 C 1 85.745, 1.131 86.891, 2.750 86.322 C 5.955 85.195, 9.945 80.710, 11.602 76.373 C 13.545 71.286, 12.887 66.025, 9.724 61.345 C 7.846 58.566, 3.277 55, 1.596 55 C 1.268 55, 1 62.186, 1 70.969 M 135.149 71.632 C 133.857 73.007, 133.035 74.368, 133.324 74.657 C 134.246 75.579, 139.500 72.528, 139.500 71.070 C 139.500 68.742, 137.639 68.983, 135.149 71.632" stroke="none" fill="black" fill-rule="evenodd"/>
</svg>