<svg xmlns="http://www.w3.org/2000/svg" width="192" height="144" viewBox="0 0 192 144" version="1.1">
	<path d="M 104.122 16.353 C 103.514 17.085, 103.257 17.924, 103.551 18.218 C 103.844 18.511, 102.720 19.899, 101.053 21.302 C 98.572 23.389, 98.110 24.412, 98.510 26.927 C 98.780 28.617, 99.201 31.288, 99.448 32.863 C 99.809 35.175, 99.413 35.947, 97.391 36.868 C 95.758 37.612, 95.161 38.442, 95.674 39.254 C 96.107 39.939, 96.574 53.775, 96.712 70 C 96.850 86.225, 97.117 100.726, 97.306 102.225 C 97.741 105.667, 103.232 111, 106.342 111 C 110.375 111, 114.775 113.033, 115.330 115.153 C 115.747 116.748, 116.354 117.027, 118.180 116.465 C 121.145 115.553, 121.338 115.357, 120.541 114.067 C 120.179 113.480, 119.039 113, 118.008 113 C 115.896 113, 114.625 110.140, 115.604 107.590 C 116.008 106.537, 115.428 105.020, 114.068 103.572 L 111.883 101.246 114.331 100.632 C 117.700 99.786, 118.602 96.976, 116.126 95.041 C 114.724 93.946, 113.972 91.765, 113.524 87.500 C 113.178 84.200, 112.685 80.487, 112.428 79.250 C 112.125 77.788, 112.440 77, 113.326 77 C 114.076 77, 115.479 76.128, 116.443 75.063 C 117.971 73.375, 118.039 72.634, 116.972 69.313 C 116.298 67.216, 115.204 64.825, 114.541 64 C 113.877 63.175, 111.918 59.936, 110.187 56.801 C 107.263 51.505, 107.157 50.986, 108.691 49.452 C 110.225 47.918, 110.453 47.942, 111.921 49.794 C 114.420 52.948, 117.574 53.426, 119.985 51.015 C 122.342 48.658, 121.911 47.297, 118.385 45.956 C 116.011 45.054, 113.480 40.720, 113.883 38.250 C 113.996 37.563, 113.455 37, 112.683 37 C 111.799 37, 111.394 36.165, 111.593 34.750 C 112.695 26.883, 112.675 23, 111.532 23 C 109.847 23, 107 19.689, 107 17.730 C 107 15.496, 105.449 14.754, 104.122 16.353 M 166.063 17.846 C 165.991 20.529, 163.132 26.098, 161.195 27.331 C 160.362 27.861, 160.221 28.585, 160.807 29.331 C 162.043 30.905, 163.127 41, 162.060 41 C 160.347 41, 160.057 44.209, 161.516 47.030 C 163.022 49.944, 163.381 52.778, 162.713 56.500 C 162.221 59.248, 157.574 69.131, 154.441 74.093 C 151.478 78.788, 151.760 80.387, 155.976 82.787 C 159.015 84.516, 160.093 88.207, 157.946 89.533 C 156.656 90.331, 151 102.499, 151 104.478 C 151 107.386, 153.438 111.107, 156.638 113.085 C 159.853 115.072, 160.392 116.347, 161.230 123.945 C 161.448 125.922, 162.641 126.830, 167.464 128.695 C 173.817 131.151, 178 131.656, 178 129.969 C 178 129.401, 177.438 128.779, 176.750 128.587 C 165.352 125.389, 164.782 125.161, 165.453 124.075 C 166.147 122.953, 178.927 125.413, 182.500 127.356 C 186.058 129.291, 189.144 129.456, 190.800 127.800 C 193.133 125.467, 191.922 123.986, 184.750 120.397 C 175.479 115.757, 174.668 115.105, 176.070 113.415 C 178 111.090, 176.021 107.938, 171.384 105.950 C 166.539 103.873, 166.415 103.105, 169.664 95.282 C 170.399 93.512, 171.007 90.812, 171.015 89.282 C 171.034 85.895, 171.789 84.674, 174.870 83.050 C 177.157 81.845, 177.217 81.521, 176.552 73.906 C 176.173 69.564, 175.461 64.608, 174.969 62.892 C 174.271 60.459, 174.527 58.888, 176.133 55.740 C 177.471 53.116, 177.991 50.707, 177.621 48.853 C 176.949 45.496, 177.402 45.420, 183.713 47.822 C 190.126 50.263, 192 49.739, 192 45.506 C 192 42.531, 191.639 42.086, 188.750 41.505 C 181.566 40.059, 181.656 40.267, 185.998 35.118 C 191.626 28.442, 190.983 27.366, 185.239 33.846 C 180.769 38.889, 180.316 39.145, 177.263 38.346 C 174.071 37.512, 174.046 37.460, 175.502 34.656 C 177.533 30.746, 176.857 23.624, 174.409 23.137 C 171.532 22.564, 167.881 19.834, 166.965 17.570 C 166.161 15.584, 166.124 15.596, 166.063 17.846 M 42.917 20.250 C 42.871 20.387, 42.723 21.491, 42.587 22.701 C 42.329 25.012, 38.387 28.910, 36.250 28.967 C 34.754 29.007, 34.594 30.631, 36 31.500 C 36.550 31.840, 37 33.441, 37 35.059 C 37 36.677, 37.378 38, 37.839 38 C 39.380 38, 41.191 43.209, 40.048 44.352 C 39.472 44.928, 39 47.108, 39 49.195 C 39 52.688, 38.663 53.144, 34.750 54.930 C 32.413 55.997, 28.718 57.339, 26.540 57.912 C 23.062 58.828, 22.310 58.700, 20.354 56.863 C 18.160 54.801, 18.018 54.795, 10.583 56.449 C 2.725 58.198, 1.624 58.857, 2.548 61.264 C 3.188 62.932, 37.903 81, 40.467 81 C 41.904 81, 42.069 81.631, 41.506 84.964 C 40.876 88.694, 41.107 89.203, 45.418 93.576 C 47.938 96.132, 50 98.607, 50 99.077 C 50 99.546, 49.064 100.430, 47.921 101.042 C 46.778 101.654, 45.394 103.440, 44.846 105.011 C 43.798 108.018, 40.917 110.359, 34.831 113.148 L 31.161 114.830 26.213 111.366 L 21.265 107.902 14.383 110.600 C 10.597 112.084, 7.085 113.668, 6.579 114.120 C 6.046 114.596, 6.882 115.904, 8.560 117.221 C 10.156 118.475, 17.863 125.013, 25.687 131.750 C 35.507 140.207, 40.670 144, 42.360 144 C 44.517 144, 56.084 138.234, 58.347 136.031 C 58.813 135.577, 56.450 133.271, 53.097 130.906 C 49.744 128.541, 47 126.317, 47 125.963 C 47 125.610, 48.754 124.741, 50.899 124.033 C 53.043 123.326, 55.343 121.727, 56.010 120.481 C 56.677 119.235, 58.973 117.529, 61.112 116.688 C 66.483 114.578, 67.087 112.360, 63.227 108.912 C 61.519 107.385, 58.980 103.642, 57.585 100.593 C 56.191 97.544, 54.156 94.156, 53.064 93.064 C 49.542 89.542, 53.286 83, 58.823 83 C 59.899 83, 61.725 82.212, 62.881 81.250 L 64.984 79.500 60.551 72.143 C 58.112 68.097, 55.373 63.964, 54.463 62.959 C 53.219 61.585, 52.892 59.672, 53.147 55.260 C 53.394 50.968, 53.026 48.689, 51.779 46.786 C 50.268 44.479, 50.245 44.041, 51.578 42.935 C 53.961 40.957, 52.897 30.316, 50.121 28.372 C 48.954 27.555, 47.985 26.350, 47.967 25.693 C 47.912 23.739, 43.382 18.855, 42.917 20.250 M 35.484 59.472 C 31.074 61.508, 30.788 61.817, 33 62.162 C 36.387 62.689, 42 60.961, 42 59.391 C 42 57.114, 40.555 57.132, 35.484 59.472 M 27.813 60.683 C 28.534 60.972, 29.397 60.936, 29.729 60.604 C 30.061 60.272, 29.471 60.036, 28.417 60.079 C 27.252 60.127, 27.015 60.364, 27.813 60.683 M 101.685 79.701 C 100.548 81.540, 99.851 88.046, 100.483 90.922 C 101.111 93.782, 101.466 94, 105.496 94 C 108.011 94, 110.004 93.489, 110.239 92.784 C 110.461 92.116, 110.160 88.853, 109.570 85.534 C 108.542 79.762, 108.358 79.487, 105.342 79.194 C 103.607 79.025, 101.961 79.254, 101.685 79.701 M 164.667 85.667 C 164.300 86.033, 164 87.003, 164 87.822 C 164 88.641, 162.942 90.704, 161.648 92.406 C 155.620 100.338, 154.728 106, 159.508 106 C 160.814 106, 162.195 105.494, 162.577 104.875 C 163.315 103.681, 166.931 88.365, 166.974 86.250 C 167.002 84.903, 165.748 84.586, 164.667 85.667 M 37 114.608 L 33.500 116.138 36.365 118.620 C 39.082 120.973, 39.328 121.014, 41.115 119.396 C 43.228 117.483, 43.678 112.979, 41.750 113.039 C 41.063 113.061, 38.925 113.767, 37 114.608" stroke="none" fill="black" fill-rule="evenodd"/>
</svg>