<svg xmlns="http://www.w3.org/2000/svg" width="192" height="144" viewBox="0 0 192 144" version="1.1">
	<path d="M 0 45.535 L 0 91.070 2.107 89.943 C 4.943 88.425, 6.109 89.793, 6.177 94.717 C 6.242 99.458, 5.066 112.762, 4.361 115.250 C 3.446 118.479, 5.473 117.038, 8.500 112.307 C 10.150 109.728, 11.725 107.070, 12 106.401 C 14.129 101.218, 25.832 90.499, 27.519 92.186 C 28.171 92.837, 25.294 99.754, 23.021 103 C 20.632 106.411, 14.350 118.928, 13.484 122 C 12.851 124.247, 13.221 124.087, 17.140 120.422 C 27.154 111.056, 35.320 105, 37.934 105 C 40.651 105, 38.348 108.694, 31 116.122 C 23.371 123.834, 20.775 128.139, 24.750 126.487 C 32.488 123.271, 42.224 121.935, 43.451 123.920 C 44.352 125.378, 39.185 128.868, 33.720 130.490 C 23.870 133.416, 19.072 137.415, 19.014 142.750 C 19.003 143.739, 33.062 143.981, 86.250 143.910 C 123.237 143.860, 152.150 143.468, 150.500 143.038 C 148.850 142.608, 144.800 141.679, 141.500 140.972 C 138.200 140.266, 134.097 138.858, 132.382 137.844 C 130.667 136.830, 128.455 136, 127.467 136 C 126.479 136, 122.391 134.200, 118.382 132 C 114.374 129.800, 110.398 128, 109.547 128 C 108.696 128, 108 127.558, 108 127.017 C 108 126.476, 105.862 124.942, 103.250 123.607 C 100.637 122.273, 96.956 119.790, 95.070 118.090 C 93.183 116.391, 91.208 115, 90.680 115 C 89.470 115, 64.989 90.020, 63.094 86.851 C 62.321 85.558, 61.196 83.605, 60.594 82.512 C 59.992 81.419, 58.712 79.931, 57.750 79.205 C 56.778 78.473, 56 76.577, 56 74.943 C 56 73.324, 55.527 72, 54.949 72 C 54.371 72, 53.253 70.456, 52.464 68.568 C 51.676 66.681, 50.586 64.862, 50.042 64.526 C 49.499 64.190, 48.575 62.135, 47.989 59.958 C 47.402 57.781, 46.528 56, 46.044 56 C 45.561 56, 44.682 53.744, 44.090 50.986 C 43.499 48.228, 42.337 44.348, 41.508 42.364 C 40.678 40.379, 39.993 37.798, 39.985 36.628 C 39.977 35.458, 39.324 32.645, 38.534 30.378 C 37.744 28.111, 36.558 20.348, 35.899 13.128 L 34.700 -0 17.350 -0 L 0 0 0 45.535" stroke="none" fill="black" fill-rule="evenodd"/>
</svg>