<svg xmlns="http://www.w3.org/2000/svg" width="192" height="144" viewBox="0 0 192 144" version="1.1">
	<path d="M 95.174 53.314 C 93.978 54.587, 93 56.468, 93 57.493 C 93 60.076, 95.229 66, 96.201 66 C 98.105 66, 96.771 67.841, 94.443 68.425 C 92.457 68.923, 92.026 69.507, 92.512 71.038 C 92.893 72.238, 92.622 73.207, 91.819 73.515 C 90.859 73.882, 90.591 75.856, 90.833 80.760 C 91.546 95.188, 90.942 98.790, 86.069 109.147 C 80.772 120.406, 80.712 123.922, 85.742 128.530 C 87.800 130.415, 90.692 132.458, 92.169 133.070 C 94.209 133.915, 95.012 135.114, 95.509 138.055 C 95.869 140.184, 95.875 142.393, 95.523 142.963 C 95.102 143.644, 97.511 144, 102.548 144 C 109.451 144, 110.144 143.826, 109.508 142.250 C 108.032 138.589, 107.705 133, 108.967 133 C 111.748 133, 117.183 129.546, 118.544 126.915 C 120.553 123.031, 120.368 118.944, 117.903 112.761 C 116.750 109.867, 114.450 104.125, 112.793 100 C 111.135 95.875, 109.781 91.825, 109.783 91 C 109.798 86.116, 110.985 72.833, 111.478 72.035 C 111.800 71.514, 110.933 70.347, 109.551 69.442 C 107.551 68.131, 107.239 67.422, 108.020 65.964 C 108.559 64.956, 109 62.155, 109 59.740 C 109 56.443, 108.423 54.807, 106.686 53.174 C 103.514 50.195, 98.043 50.261, 95.174 53.314 M 101 137.941 C 101 139.623, 101.450 141, 102 141 C 102.550 141, 103 139.902, 103 138.559 C 103 137.216, 102.550 135.840, 102 135.500 C 101.417 135.139, 101 136.156, 101 137.941 M 111.079 142.583 C 111.127 143.748, 111.364 143.985, 111.683 143.188 C 111.972 142.466, 111.936 141.603, 111.604 141.271 C 111.272 140.939, 111.036 141.529, 111.079 142.583" stroke="none" fill="black" fill-rule="evenodd"/>
</svg>