<svg xmlns="http://www.w3.org/2000/svg" width="192" height="144" viewBox="0 0 192 144" version="1.1">
	<path d="M 0 72 L 0 144 29.708 144 L 59.416 144 55.324 139.750 C 50.568 134.812, 49.204 131.154, 48.514 121.500 C 48.121 115.998, 47.566 114.130, 45.920 112.769 C 44.021 111.200, 43.555 111.179, 40.922 112.540 C 39.325 113.366, 37.237 115.270, 36.283 116.771 C 33.767 120.725, 32.751 121.131, 31.514 118.679 C 30.823 117.307, 29.658 116.606, 28.369 116.786 C 26.421 117.057, 26.362 116.773, 27.160 110.942 C 28.174 103.527, 28.463 103, 31.522 103 C 34.346 103, 43.704 99.564, 46.320 97.566 C 48.431 95.955, 52.446 82.215, 53.936 71.504 C 54.532 67.223, 56.437 60.829, 58.547 56.029 C 60.526 51.529, 62.323 46.921, 62.541 45.787 C 62.759 44.654, 63.627 42.965, 64.469 42.034 C 65.311 41.104, 66 39.815, 66 39.171 C 66 37.127, 69.907 34, 72.461 34 C 73.814 34, 75.501 34.698, 76.211 35.551 C 76.920 36.404, 79.097 38.767, 81.049 40.801 C 83.001 42.836, 87.726 49.334, 91.549 55.243 C 95.372 61.151, 98.798 65.989, 99.162 65.993 C 99.526 65.997, 101.929 63.051, 104.501 59.446 C 113.085 47.417, 129.701 32, 134.082 32 C 135.062 32, 136.806 30.677, 137.958 29.059 C 140.728 25.169, 143.594 24.323, 146.154 26.640 C 147.645 27.989, 148.059 29.368, 147.755 31.970 C 147.478 34.347, 148.112 36.958, 149.718 40.054 C 154.669 49.596, 156.651 66.714, 153.996 77 C 153.357 79.475, 152.009 85.029, 151 89.343 C 149.991 93.657, 148.615 98.515, 147.943 100.138 C 146.180 104.393, 147.726 106.963, 155.169 112.153 C 161.607 116.643, 165.809 122.727, 165.941 127.750 C 166.024 130.902, 164.477 130.560, 160.297 126.500 C 156.356 122.673, 156.179 122.601, 154.023 123.965 C 153.008 124.607, 151.972 124.380, 150.712 123.239 C 147.868 120.666, 147.381 122.002, 144.497 140.268 L 143.903 144.036 168.201 143.768 L 192.500 143.500 192.757 71.750 L 193.013 0 96.507 0 L 0 0 0 72 M 0.474 72.500 C 0.474 112.100, 0.598 128.154, 0.750 108.176 C 0.901 88.198, 0.901 55.798, 0.750 36.176 C 0.598 16.554, 0.474 32.900, 0.474 72.500" stroke="none" fill="black" fill-rule="evenodd"/>
</svg>