<svg xmlns="http://www.w3.org/2000/svg" width="192" height="144" viewBox="0 0 192 144" version="1.1">
	<path d="M 0 72 L 0 144 55.607 144 C 103.553 144, 111.138 143.802, 110.662 142.562 C 110.359 141.772, 109.621 138.284, 109.023 134.812 C 107.370 125.225, 103.976 110.059, 102.315 104.846 C 100.331 98.617, 97.717 96.546, 90.154 95.208 C 82.997 93.942, 82.193 93.425, 76.811 86.631 C 73.270 82.161, 73 81.384, 73.510 77.136 C 73.947 73.493, 74.909 71.650, 78.033 68.467 C 80.215 66.243, 82 63.831, 82 63.105 C 82 62.380, 82.590 62.013, 83.312 62.289 C 84.033 62.566, 85.721 61.949, 87.062 60.919 C 88.403 59.888, 91.075 59.036, 93 59.026 C 103.239 58.972, 112.321 73.677, 107.536 82.563 C 105.780 85.824, 105.784 85.854, 108.499 88.670 C 110 90.227, 113.011 95.241, 115.191 99.813 L 119.155 108.125 121.327 105.746 C 130.810 95.363, 131 95.069, 131 90.801 C 131 87.896, 131.812 85.435, 133.644 82.792 C 136.200 79.104, 136.228 78.910, 134.495 76.995 C 133.509 75.905, 132.657 73.810, 132.601 72.339 C 132.501 69.682, 130.014 67.617, 129.985 70.167 C 129.973 71.200, 129.764 71.175, 129.056 70.057 C 128.312 68.880, 127.660 68.834, 125.525 69.807 C 120.988 71.874, 119.456 71.239, 115.899 65.821 C 109.841 56.591, 109.133 55.654, 107.555 54.771 C 105.397 53.563, 105.613 51.723, 108.094 50.173 C 110.083 48.931, 110.102 48.770, 108.470 46.967 C 107.525 45.922, 106.020 45.124, 105.126 45.192 C 100.636 45.536, 98.851 44.804, 97.078 41.889 C 96.038 40.177, 92.920 37.483, 90.150 35.901 C 87.379 34.318, 84.750 32.418, 84.306 31.676 C 83.863 30.935, 80.575 28.628, 77 26.550 C 67.811 21.207, 63.492 17.557, 61.572 13.510 C 60.546 11.348, 59.190 10, 58.042 10 C 55.164 10, 50.394 3.838, 50.882 0.750 C 50.947 0.338, 39.525 0, 25.500 0 L 0 0 0 72 M 189.351 4.693 C 187.802 4.995, 187.013 6.116, 186.528 8.702 C 185.818 12.488, 186.852 13.955, 190.250 13.985 C 191.685 13.997, 192 13.101, 192 9 C 192 6.250, 191.887 4.061, 191.750 4.136 C 191.613 4.211, 190.533 4.461, 189.351 4.693 M 138.500 143 C 138.160 143.550, 138.835 144, 140 144 C 141.165 144, 141.840 143.550, 141.500 143 C 141.160 142.450, 140.485 142, 140 142 C 139.515 142, 138.840 142.450, 138.500 143" stroke="none" fill="black" fill-rule="evenodd"/>
</svg>