<svg xmlns="http://www.w3.org/2000/svg" width="192" height="144" viewBox="0 0 192 144" version="1.1">
	<path d="M 0 72 L 0 144 6.250 144.002 L 12.500 144.004 11.926 130.752 C 11.413 118.903, 11.029 116.750, 8.301 110.416 C 2.727 97.473, 1.543 91.083, 1.555 74 C 1.568 56.774, 3.015 47.783, 8.090 33.405 C 10.449 26.721, 10.856 24.532, 9.944 23.433 C 8.501 21.693, 9.411 19, 11.443 19 C 14.035 19, 28.249 24.955, 34 28.451 C 38.620 31.259, 73.302 45, 75.769 45 C 76.480 45, 79.297 38.820, 78.733 38.500 C 78.605 38.427, 76.976 37.658, 75.114 36.790 L 71.729 35.213 74.032 33.356 C 75.299 32.335, 78.397 29.294, 80.918 26.597 C 86.253 20.889, 93.464 16, 96.549 16 C 100.785 16, 112.487 20.946, 115.119 23.849 C 116.559 25.438, 118.297 29.069, 118.980 31.917 C 120.103 36.599, 120.044 37.295, 118.361 39.163 C 117.338 40.300, 115.487 41.617, 114.250 42.090 C 113.012 42.563, 112 43.604, 112 44.402 C 112 45.201, 110.338 47.225, 108.306 48.900 C 106.274 50.574, 104.811 52.070, 105.056 52.222 C 113.133 57.270, 138.295 65.014, 145 64.517 C 148.454 64.260, 155.952 66.556, 157.080 68.216 C 157.400 68.685, 165.387 70.714, 174.830 72.724 L 192 76.378 192 80.296 C 192 83.405, 191.683 84.093, 190.467 83.626 C 188.408 82.835, 167.765 76.459, 161.455 74.665 L 156.411 73.230 153.070 77.208 C 149.471 81.496, 146.019 83.250, 131.816 88.008 C 124.586 90.431, 122.080 90.875, 119.914 90.120 C 118.405 89.594, 116.907 89.427, 116.585 89.748 C 115.343 90.991, 116.039 98.787, 117.500 100 C 118.325 100.685, 119.002 102.427, 119.005 103.872 C 119.011 106.541, 119.586 107.592, 126.250 117.115 C 130.625 123.367, 131.007 125.291, 127.706 124.462 L 125.412 123.887 127.374 133.957 L 129.336 144.028 160.918 143.764 L 192.500 143.500 192.757 71.750 L 193.013 0 96.507 0 L 0 0 0 72 M 0.474 72.500 C 0.474 112.100, 0.598 128.154, 0.750 108.176 C 0.901 88.198, 0.901 55.798, 0.750 36.176 C 0.598 16.554, 0.474 32.900, 0.474 72.500 M 27.739 40.250 C 21.739 54.108, 19.871 62.030, 18.487 79.500 C 17.796 88.213, 19.049 95.893, 23.615 110.930 C 26.448 120.262, 26.370 121.816, 22.631 130.500 C 21.210 133.800, 20.037 138.188, 20.024 140.250 L 20 144 34.040 144 L 48.080 144 51.790 140.250 C 53.831 138.188, 60.161 132.675, 65.857 128 C 71.554 123.325, 78.012 117.944, 80.209 116.041 C 85.959 111.063, 93.008 101.541, 92.953 98.826 C 92.920 97.239, 91.169 95.111, 87.441 92.128 C 84.436 89.723, 81.715 86.714, 81.396 85.441 C 81.017 83.931, 81.859 81.106, 83.819 77.313 C 86.906 71.341, 87.472 69.450, 89 60.027 C 90.001 53.858, 89.640 52.772, 87.521 55.573 C 86.548 56.860, 86.053 57.046, 86.032 56.133 C 86.010 55.212, 85.169 54.926, 83.452 55.254 C 81.442 55.638, 80.370 55.041, 78.376 52.427 C 76.508 49.978, 74.106 48.535, 69.174 46.898 C 65.503 45.681, 56.425 42.282, 49 39.345 C 41.575 36.409, 34.363 34.005, 32.973 34.003 C 30.826 34, 30.037 34.943, 27.739 40.250 M 114.738 62.595 C 114.376 62.957, 115.412 65.647, 117.040 68.572 C 118.668 71.498, 120 75.191, 120 76.779 C 120 78.367, 120.247 79.913, 120.548 80.215 C 121.241 80.907, 140.105 76.158, 141.605 74.913 C 142.219 74.404, 142.517 72.925, 142.269 71.626 C 141.869 69.532, 140.465 68.905, 129.886 66.092 C 123.323 64.347, 117.379 62.699, 116.675 62.429 C 115.971 62.159, 115.100 62.234, 114.738 62.595 M 90.484 82.293 C 89.695 84.229, 90.311 85.424, 91.803 84.854 C 92.314 84.659, 92.390 83.600, 91.973 82.500 C 91.266 80.635, 91.165 80.621, 90.484 82.293" stroke="none" fill="black" fill-rule="evenodd"/>
</svg>