<svg xmlns="http://www.w3.org/2000/svg" width="192" height="144" viewBox="0 0 192 144" version="1.1">
	<path d="M 126.582 25.867 C 126.285 26.348, 124.647 27.021, 122.943 27.361 C 121.028 27.744, 117.861 30.014, 114.648 33.304 C 109.846 38.223, 109.434 39.026, 109.223 43.874 C 108.988 49.280, 110.377 53.503, 112.050 52.469 C 113.625 51.496, 113.117 54.213, 111.362 56.153 C 110.050 57.602, 109.968 58.256, 110.948 59.437 C 111.621 60.249, 111.932 61.301, 111.638 61.776 C 111.345 62.251, 111.691 64.633, 112.407 67.070 C 113.361 70.312, 114.285 71.586, 115.855 71.820 C 117.790 72.108, 119.052 74.992, 117.250 75.006 C 116.838 75.009, 116.428 76.881, 116.340 79.165 C 116.244 81.671, 115.588 83.651, 114.689 84.154 C 113.868 84.613, 111.804 87.457, 110.101 90.474 C 107.164 95.678, 106.877 95.901, 104.507 94.821 C 102.425 93.873, 101.652 94.001, 99.876 95.591 L 97.744 97.500 98.358 93.500 C 98.695 91.300, 99.411 82.155, 99.948 73.177 C 100.899 57.290, 102.545 42.348, 103.669 39.421 C 104.501 37.252, 102.115 35, 98.985 35 C 95.755 35, 94.716 36.917, 95.523 41.384 C 95.833 43.098, 95.366 51.925, 94.486 61 C 93.606 70.075, 92.530 81.444, 92.095 86.265 C 91.660 91.086, 91.067 95.267, 90.777 95.556 C 90.487 95.846, 89.523 94.264, 88.633 92.041 C 87.363 88.866, 86.494 88, 84.576 88 C 82.313 88, 78 83.621, 78 81.323 C 78 79.387, 71.707 73.007, 67.451 70.628 C 62.925 68.099, 62.903 68.097, 60.930 70.070 C 59.370 71.630, 58.984 73.262, 59.110 77.775 C 59.320 85.341, 60.078 86.533, 65.914 88.471 C 72.243 90.574, 73.935 92.429, 70.970 94.016 C 69.782 94.652, 67.668 97.668, 66.271 100.719 C 64.048 105.575, 63.804 107.153, 64.311 113.383 C 65.039 122.320, 67.224 130.846, 70.682 138.250 L 73.368 144 82.684 144 C 89.552 144, 92 143.666, 92 142.729 C 92 141.023, 100.837 126, 101.840 126 C 103.415 126, 107 133.855, 107 137.304 C 107 144.414, 105.171 144, 136.607 144 L 165 144 165 138.207 C 165 135.020, 164.066 125.683, 162.924 117.457 C 160.671 101.218, 160.710 98.667, 163.501 80.093 C 165.862 64.379, 164.859 53.930, 159.980 43.386 C 154.641 31.852, 149.243 27.828, 137.370 26.534 C 134.141 26.183, 130.515 25.692, 129.311 25.444 C 128.107 25.196, 126.879 25.386, 126.582 25.867 M 52 40.500 C 52 42.308, 51.463 43, 50.059 43 C 46.842 43, 46.801 44.735, 49.991 45.847 C 52.090 46.579, 52.802 47.352, 52.383 48.444 C 51.740 50.120, 53.496 50.624, 54.473 49.044 C 54.798 48.518, 55.675 48.322, 56.421 48.608 C 57.393 48.981, 57.888 47.977, 58.165 45.064 C 58.489 41.668, 58.256 41, 56.745 41 C 55.751 41, 54.678 40.325, 54.362 39.500 C 53.454 37.134, 52 37.750, 52 40.500" stroke="none" fill="black" fill-rule="evenodd"/>
</svg>