<svg xmlns="http://www.w3.org/2000/svg" width="192" height="144" viewBox="0 0 192 144" version="1.1">
	<path d="M 0 72.011 L 0 144.022 41.233 143.761 L 82.466 143.500 83.533 135.187 C 84.392 128.493, 84.327 126.157, 83.199 123.187 C 79.275 112.856, 79.369 106.245, 83.603 94.750 C 84.621 91.985, 84.674 91, 83.805 91 C 83.156 91, 83.780 89.763, 85.191 88.250 C 88.525 84.677, 90.723 79.668, 91.559 73.741 C 92.191 69.260, 91.994 68.677, 88.185 63.739 C 85.960 60.856, 84.221 57.614, 84.320 56.536 C 84.432 55.316, 83.773 54.427, 82.573 54.181 C 80.217 53.697, 77.079 50.101, 77.033 47.833 C 77.015 46.917, 76.489 45.996, 75.865 45.788 C 74.306 45.269, 77.074 35.994, 80.155 31.415 C 83.557 26.358, 93.117 21.868, 101.806 21.246 C 109.414 20.702, 112.478 21.786, 119.500 27.509 C 126.680 33.361, 129.979 46.115, 129.992 68.073 C 129.997 74.987, 130.718 87.812, 131.594 96.573 C 132.471 105.333, 132.948 114.750, 132.655 117.500 C 132.198 121.774, 132.682 123.806, 135.989 131.500 C 138.116 136.450, 140.103 141.295, 140.404 142.267 C 140.911 143.906, 142.822 144.014, 166.725 143.767 L 192.500 143.500 192.757 71.750 L 193.013 0 96.507 0 L 0 0 0 72.011 M 0.474 72.500 C 0.474 112.100, 0.598 128.154, 0.750 108.176 C 0.901 88.198, 0.901 55.798, 0.750 36.176 C 0.598 16.554, 0.474 32.900, 0.474 72.500" stroke="none" fill="black" fill-rule="evenodd"/>
</svg>