<svg xmlns="http://www.w3.org/2000/svg" width="192" height="144" viewBox="0 0 192 144" version="1.1">
	<path d="M 0 40 C 0 62, 0.112 79.995, 0.250 79.990 C 0.388 79.984, 9.050 78.850, 19.500 77.469 C 61.612 71.904, 75.318 70.809, 96 71.356 C 111.892 71.776, 117.720 72.352, 127.500 74.471 C 138.186 76.787, 140.376 76.964, 147.500 76.093 C 151.900 75.554, 161.125 73.451, 168 71.419 C 184.089 66.664, 185.509 66.368, 184.517 67.973 C 183.924 68.932, 184.720 69.141, 187.825 68.845 L 191.914 68.455 192.268 73.978 C 192.463 77.015, 192.707 61.613, 192.811 39.750 L 193 0 96.500 0 L 0 0 0 40 M 0.456 40.500 C 0.456 62.500, 0.588 71.358, 0.749 60.183 C 0.910 49.009, 0.910 31.009, 0.749 20.183 C 0.587 9.358, 0.455 18.500, 0.456 40.500 M 185.980 72.524 C 184.048 74.853, 185.426 75.291, 187.494 73.006 C 188.493 71.903, 188.845 71, 188.277 71 C 187.710 71, 186.676 71.686, 185.980 72.524 M 187.667 78.667 C 187.300 79.033, 187 79.798, 187 80.367 C 187 80.993, 187.466 80.934, 188.183 80.217 C 188.834 79.566, 189.134 78.801, 188.850 78.517 C 188.566 78.233, 188.033 78.300, 187.667 78.667 M 0 116.500 L 0 144 96.031 144 C 172.538 144, 192.161 143.743, 192.548 142.735 C 192.815 142.039, 192.914 129.552, 192.767 114.985 L 192.500 88.500 188.500 89.070 L 184.500 89.640 188 91.237 C 191.418 92.796, 191.441 92.846, 189 93.360 C 187.625 93.650, 184.700 94.288, 182.500 94.779 L 178.500 95.671 183 97.004 C 189.724 98.996, 190.039 99.997, 183.950 100.026 L 178.500 100.052 182.500 101.986 C 185.992 103.674, 186.119 103.842, 183.500 103.311 C 181.850 102.976, 174.650 100.929, 167.500 98.760 C 150.327 93.553, 140.649 92.899, 126 95.956 C 104.446 100.454, 79.114 99.651, 31.260 92.953 C 15.728 90.779, 2.340 89, 1.510 89 C 0.200 89, 0 92.643, 0 116.500 M 0.440 116.500 C 0.440 131.900, 0.579 138.060, 0.748 130.189 C 0.917 122.319, 0.917 109.719, 0.747 102.189 C 0.578 94.660, 0.439 101.100, 0.440 116.500" stroke="none" fill="black" fill-rule="evenodd"/>
</svg>