<svg xmlns="http://www.w3.org/2000/svg" width="192" height="144" viewBox="0 0 192 144" version="1.1">
	<path d="M 0 69.570 L 0 139.139 2.172 138.820 C 3.833 138.575, 4.798 137.133, 6.276 132.686 L 8.209 126.872 6.015 120.047 L 3.820 113.222 6.091 110.611 C 8.448 107.900, 14 106.909, 14 109.200 C 14 109.940, 14.331 110.036, 14.864 109.450 C 16.252 107.924, 17.791 100.281, 18.980 89 C 20.154 77.867, 21.914 73.767, 25.764 73.192 C 28.775 72.742, 29.299 75.587, 28.558 88.360 C 27.827 100.956, 28.154 101.039, 34.179 89.788 C 37.384 83.804, 44.469 76, 46.697 76 C 48.937 76, 48.160 78.991, 43.081 89.921 C 40.375 95.743, 37.837 101.855, 37.440 103.503 C 36.781 106.234, 37.373 105.870, 44.109 99.399 C 51.403 92.390, 57.151 88.485, 58.373 89.707 C 59.828 91.161, 58.680 93.274, 53.210 99.213 C 47.205 105.733, 43.387 111.024, 44.727 110.967 C 45.152 110.949, 47.975 110.064, 51 109 C 56.846 106.944, 63.513 106.403, 64.444 107.909 C 65.127 109.014, 59.403 114, 57.452 114 C 54.537 114, 45.105 118.917, 43.718 121.158 C 42.922 122.446, 41.689 125.750, 40.978 128.500 C 40.268 131.250, 38.407 135.435, 36.843 137.800 C 35.280 140.165, 34 142.528, 34 143.050 C 34 143.642, 63.730 144, 112.864 144 L 191.728 144 192.364 139.360 C 192.714 136.809, 192.891 104.296, 192.758 67.110 L 192.517 -0.500 192.250 57.343 L 191.984 115.185 186.742 114.378 C 183.859 113.934, 179.588 113.671, 177.250 113.795 C 174.913 113.918, 173 113.595, 173 113.077 C 173 112.154, 168.664 110.322, 168.331 111.103 C 168.237 111.321, 167.051 110.457, 165.695 109.183 C 163.717 107.325, 162.554 106.993, 159.818 107.506 C 156.757 108.081, 148.604 105.894, 147 104.069 C 146.725 103.756, 144.700 102.626, 142.500 101.558 C 140.300 100.489, 136.925 98.154, 135 96.367 C 133.075 94.581, 130.375 92.643, 129 92.062 C 126.496 91.003, 122.939 88.939, 122 88 C 121.725 87.725, 119.764 86.616, 117.643 85.535 C 115.469 84.427, 111.781 80.936, 109.192 77.535 C 106.665 74.216, 102.900 69.824, 100.824 67.776 C 98.749 65.728, 96.747 62.803, 96.375 61.276 C 96.003 59.749, 94.398 57.001, 92.808 55.168 C 91.218 53.336, 89.659 50.546, 89.344 48.969 C 89.028 47.392, 87.885 45.301, 86.803 44.321 C 84.119 41.892, 82 36.507, 82 32.113 C 82 30.110, 81.100 26.791, 80 24.739 C 78.900 22.686, 78 19.742, 78 18.195 C 78 16.648, 77.339 14.509, 76.532 13.441 C 75.648 12.272, 75.051 9.212, 75.032 5.750 L 75 0 37.500 0 L 0 0 0 69.570 M 0.473 70 C 0.473 108.225, 0.598 123.862, 0.750 104.750 C 0.902 85.637, 0.902 54.362, 0.750 35.250 C 0.598 16.137, 0.473 31.775, 0.473 70" stroke="none" fill="black" fill-rule="evenodd"/>
</svg>