<svg xmlns="http://www.w3.org/2000/svg" width="192" height="144" viewBox="0 0 192 144" version="1.1">
	<path d="M 100.688 9.950 C 96.761 13.613, 96.637 13.912, 97.667 17.266 C 98.657 20.491, 98.482 21.091, 95.427 24.951 C 91.504 29.908, 89.496 37.833, 90.918 42.746 C 92.162 47.040, 95.761 52, 97.634 52 C 98.458 52, 100.008 52.469, 101.078 53.042 C 102.648 53.882, 102.821 54.466, 101.970 56.057 C 101.121 57.643, 101.265 58.150, 102.707 58.644 C 103.693 58.982, 106.111 60.991, 108.079 63.108 C 111.351 66.628, 111.930 66.881, 114.816 66.053 C 116.552 65.555, 118.185 65.491, 118.445 65.911 C 119.035 66.866, 112.150 73.486, 109.655 74.362 C 108.640 74.718, 107.586 75.869, 107.311 76.919 C 106.883 78.556, 105.494 78.926, 97.543 79.522 C 91.040 80.010, 87.605 79.859, 86.032 79.017 C 83.121 77.459, 77.902 78.466, 75.728 81.004 C 74.789 82.102, 73.453 82.997, 72.760 82.993 C 72.067 82.990, 69.772 79.813, 67.659 75.934 C 63.134 67.627, 59.933 65.621, 56.571 68.987 L 54.500 71.061 58.158 77.780 C 60.606 82.277, 62.051 86.485, 62.529 90.500 C 63.485 98.548, 65.220 102.448, 68.647 104.254 C 79.037 109.727, 83.164 112.460, 84.598 114.815 C 85.496 116.292, 89.104 119.913, 92.615 122.861 C 99.242 128.426, 100.030 129.900, 97.500 132 C 95.887 133.339, 95.633 135.914, 96.625 140.875 L 97.250 144 122.625 144 C 142.550 144, 148 143.726, 148 142.723 C 148 141.190, 145.239 137.080, 142.811 135 C 140.981 133.432, 139 121.341, 139 111.745 C 139 108.394, 138.546 106.763, 137.500 106.362 C 134.321 105.142, 136.210 104.067, 140.500 104.655 C 143.554 105.074, 145 104.907, 145 104.136 C 145 103.511, 146.125 103, 147.500 103 C 148.875 103, 150 102.550, 150 102 C 150 101.450, 150.911 101, 152.025 101 C 153.302 101, 154.454 99.984, 155.144 98.250 C 155.927 96.283, 156.390 95.927, 156.769 97 C 157.061 97.825, 157.701 98.763, 158.192 99.085 C 158.711 99.425, 158.671 101.507, 158.098 104.058 C 156.958 109.133, 157.393 110.150, 159.540 107.427 C 160.932 105.663, 161.005 105.986, 160.415 111.250 C 159.972 115.198, 160.119 117, 160.885 117 C 161.500 117, 162 118.625, 162 120.622 C 162 123.811, 162.189 124.088, 163.581 122.933 C 164.993 121.761, 165.084 122.038, 164.429 125.525 L 163.697 129.429 166.318 127.711 C 168.479 126.295, 168.838 126.258, 168.362 127.499 C 167.521 129.689, 168.824 134, 170.326 134 C 171.034 134, 172.141 132.762, 172.785 131.250 L 173.956 128.500 173.376 131.500 C 173.058 133.150, 172.643 136.637, 172.455 139.250 L 172.113 144 182.056 144 L 192 144 192 110.586 L 192 77.172 185.250 73.399 C 178.854 69.824, 167.979 60.052, 163.106 53.500 C 161.771 51.705, 160.675 50.974, 160.377 51.680 C 157.926 57.497, 141.018 75.501, 138.716 74.744 C 137.383 74.306, 136.506 66.730, 137.491 64.164 C 137.990 62.862, 138.267 62.813, 138.942 63.906 C 140.293 66.091, 142 64.157, 142 60.441 C 142 56.758, 143.310 55.882, 144.531 58.750 C 145.173 60.259, 145.380 60.156, 146.038 58 C 147.454 53.357, 147.036 48.106, 144.983 44.774 C 143.874 42.973, 142.093 38.702, 141.026 35.283 C 139.959 31.864, 138.372 27.686, 137.500 25.999 C 135.283 21.712, 124.674 14.131, 119.802 13.352 C 116.902 12.889, 115.607 12.096, 114.957 10.388 C 114.427 8.994, 112.950 7.819, 111.285 7.468 C 109.753 7.144, 107.664 6.711, 106.641 6.505 C 105.512 6.277, 103.176 7.629, 100.688 9.950 M 97.595 81.674 C 93.797 82.391, 90.555 83.112, 90.391 83.275 C 89.645 84.021, 93.546 94.868, 95.768 98.226 C 98.378 102.170, 99.976 102.344, 100.035 98.691 C 100.055 97.486, 100.714 95.375, 101.500 94 C 102.286 92.625, 102.945 89.677, 102.965 87.450 C 102.984 85.223, 103.532 82.868, 104.183 82.217 C 106.038 80.362, 104.995 80.276, 97.595 81.674 M 78.985 93.485 C 80.843 95.402, 82.559 96.774, 82.799 96.535 C 83.567 95.767, 78.554 90.113, 77.054 90.055 C 76.191 90.022, 76.969 91.405, 78.985 93.485 M 134.750 112.580 C 133.532 113.803, 133.979 121.257, 135.464 124.500 L 136.838 127.500 136.861 123.500 C 136.893 118.024, 135.664 111.663, 134.750 112.580 M 189.079 136.583 C 189.127 137.748, 189.364 137.985, 189.683 137.188 C 189.972 136.466, 189.936 135.603, 189.604 135.271 C 189.272 134.939, 189.036 135.529, 189.079 136.583" stroke="none" fill="black" fill-rule="evenodd"/>
</svg>