<svg xmlns="http://www.w3.org/2000/svg" width="192" height="144" viewBox="0 0 192 144" version="1.1">
	<path d="M 0 72 L 0 144 50.607 144 C 108.384 144, 103.016 145.195, 95.517 134 C 89.987 125.745, 89.246 123.374, 91.929 122.522 C 93.547 122.009, 108.955 123.205, 114.270 124.257 C 116.494 124.697, 113.695 112.836, 109.397 103.605 C 108.089 100.797, 107.012 97.150, 107.004 95.500 C 106.995 93.850, 106.283 91.150, 105.421 89.500 C 103.583 85.982, 104.122 82.042, 106.992 78.011 C 109.138 74.997, 109.641 72, 108 72 C 107.450 72, 107 69.729, 107 66.952 C 107 61.423, 104.803 58.404, 99.043 56.018 C 95.764 54.659, 93 49.704, 93 45.182 C 93 43.523, 93.869 40.138, 94.932 37.659 L 96.863 33.153 94.682 31.690 L 92.500 30.226 94.737 27.171 C 96.832 24.310, 96.867 24.010, 95.293 22.436 C 93.720 20.863, 93.736 20.665, 95.557 19.320 C 96.625 18.530, 98.513 18.072, 99.750 18.303 C 101.146 18.563, 102 18.229, 102 17.420 C 102 15.381, 103.733 14.816, 105.878 16.156 C 107.433 17.127, 108.156 17.116, 109.380 16.100 C 110.525 15.149, 111.770 15.078, 114.211 15.824 C 116.020 16.377, 120.473 17.356, 124.106 18.001 C 127.794 18.655, 133.314 20.607, 136.606 22.421 C 144.015 26.504, 146.651 30.952, 148.675 42.780 C 149.691 48.718, 150.834 52.218, 152.258 53.750 L 154.349 56 152.129 56 C 150.121 56, 149.968 56.357, 150.530 59.750 C 150.951 62.297, 150.840 63.056, 150.184 62.117 C 149.446 61.062, 149.054 61.476, 148.529 63.867 C 147.763 67.354, 146.569 67.904, 145.526 65.250 C 144.953 63.792, 144.631 64.001, 143.595 66.500 C 142.911 68.150, 142.048 69.388, 141.676 69.250 C 141.304 69.112, 140.298 69, 139.441 69 C 136.368 69, 139.038 70.750, 143.103 71.400 C 149.028 72.348, 150.274 73.256, 152.922 78.558 C 155.269 83.258, 155.286 83.269, 156.596 80.890 C 157.320 79.575, 157.678 77.715, 157.390 76.755 C 157.022 75.524, 157.918 74.391, 160.434 72.906 C 164.176 70.699, 164.798 69.198, 162.800 67.200 C 161.927 66.327, 161.913 66, 162.748 66 C 163.587 66, 163.617 65.200, 162.860 63.027 C 162.285 61.378, 162.002 55.366, 162.224 49.527 C 162.623 39.076, 162.609 39, 160.313 39 C 157.396 39, 157.257 36.428, 160.133 35.676 C 162.077 35.167, 162.211 34.649, 161.646 29.809 C 160.316 18.406, 159.754 6.115, 160.439 3.388 C 161.591 -1.201, 162.562 2.103, 164.440 17 C 166.552 33.757, 166.624 34.009, 169.200 33.728 C 172.362 33.382, 172.412 35.491, 169.276 36.921 L 166.500 38.187 169.133 40.343 C 170.581 41.530, 172.102 43.625, 172.513 45 C 172.923 46.375, 174.326 49.622, 175.629 52.217 C 177.835 56.605, 178.146 62.309, 176.341 65.252 C 176.087 65.665, 177.139 66.483, 178.678 67.068 L 181.477 68.132 179.290 69.816 C 176.438 72.012, 174.760 76.629, 175.533 80.151 C 175.872 81.693, 175.853 83.889, 175.490 85.030 C 174.941 86.761, 174.579 86.895, 173.308 85.840 C 171.360 84.224, 170.288 85.593, 164.581 97 C 159.628 106.899, 159.669 109.874, 164.783 111.548 C 168.514 112.769, 170.914 115.614, 170.275 118.058 C 170.028 119.002, 170.315 120.077, 170.913 120.446 C 173.503 122.047, 171.854 125.609, 168.750 125.118 C 168.338 125.053, 168 126.759, 168 128.908 C 168 132.111, 167.484 133.148, 165.141 134.658 C 159.571 138.247, 154.075 142.510, 154.038 143.272 C 154.017 143.696, 162.662 143.921, 173.250 143.772 L 192.500 143.500 192.757 71.750 L 193.013 0 96.507 0 L 0 0 0 72 M 0.474 72.500 C 0.474 112.100, 0.598 128.154, 0.750 108.176 C 0.901 88.198, 0.901 55.798, 0.750 36.176 C 0.598 16.554, 0.474 32.900, 0.474 72.500 M 112.309 71.494 C 111.360 72.526, 111.666 72.868, 113.809 73.172 C 117.631 73.714, 120 73.073, 120 71.496 C 120 70.470, 119.283 70.345, 117.055 70.984 C 115.435 71.449, 113.972 71.462, 113.805 71.013 C 113.637 70.564, 112.964 70.781, 112.309 71.494" stroke="none" fill="black" fill-rule="evenodd"/>
</svg>