<svg xmlns="http://www.w3.org/2000/svg" width="192" height="144" viewBox="0 0 192 144" version="1.1">
	<path d="M 90.975 87.204 C 89.711 89.233, 89.108 91.500, 89.407 93.102 C 89.781 95.113, 89.249 96.179, 87.069 97.791 C 83.073 100.745, 82.454 104.257, 85.101 108.966 C 88.403 114.841, 92.293 117.290, 97.333 116.668 C 103.438 115.913, 106.343 114.941, 107.750 113.181 C 109.294 111.250, 109.369 106.559, 107.900 103.814 C 107.098 102.314, 107.099 101.943, 107.907 102.443 C 109.553 103.460, 110.419 100.214, 109.209 97.560 C 108.395 95.774, 107.569 95.360, 105.578 95.740 C 104.160 96.011, 103 96.657, 103 97.176 C 103 97.694, 102.549 97.839, 101.997 97.498 C 101.332 97.087, 101.351 96.212, 102.053 94.901 C 102.635 93.813, 102.974 91.028, 102.806 88.712 L 102.500 84.500 97.763 84.204 C 93.353 83.928, 92.885 84.135, 90.975 87.204" stroke="none" fill="black" fill-rule="evenodd"/>
</svg>