<svg xmlns="http://www.w3.org/2000/svg" width="192" height="144" viewBox="0 0 192 144" version="1.1">
	<path d="M 0 29.155 C 0 56.840, 0.088 58.233, 1.750 56.776 C 4.838 54.068, 9.561 52.117, 20.392 49.076 C 33.826 45.304, 38.514 43.161, 43.500 38.512 C 55.346 27.468, 55.602 27.287, 60.384 26.570 C 65.721 25.769, 66.913 24.141, 64.589 20.824 C 62.456 17.779, 62.586 16.708, 64.934 17.965 C 65.998 18.534, 68.238 19, 69.911 19 C 73.919 19, 75.821 15.998, 76.125 9.193 C 76.256 6.274, 76.919 3.125, 77.600 2.194 C 78.715 0.669, 78.902 0.761, 79.493 3.117 C 79.854 4.555, 80.031 6.354, 79.886 7.116 C 79.741 7.877, 79.939 9.850, 80.325 11.500 C 80.711 13.150, 80.587 16.016, 80.049 17.869 C 78.879 21.900, 80.768 26.444, 83.960 27.279 C 85.082 27.573, 86 28.357, 86 29.023 C 86 29.727, 85.191 30.022, 84.065 29.727 C 83 29.449, 81.189 29.880, 80.039 30.685 L 77.948 32.150 80.436 35.106 C 82.821 37.941, 84.983 43.657, 84.994 47.161 C 85.003 49.751, 79.155 54.184, 76.740 53.417 C 75.048 52.881, 74.799 53.124, 75.255 54.866 C 75.676 56.478, 74.988 57.462, 72.263 59.146 C 70.317 60.349, 68.154 61.333, 67.458 61.333 C 66.761 61.333, 66.421 61.933, 66.702 62.667 C 66.984 63.400, 67.544 64, 67.946 64 C 69.190 64, 70.832 68.544, 71.980 75.168 C 73.220 82.315, 74.841 87, 76.074 87 C 76.532 87, 77.999 86.502, 79.336 85.893 C 81.327 84.986, 81.854 83.867, 82.255 79.702 C 82.631 75.784, 83.359 74.088, 85.427 72.309 C 86.904 71.039, 88.798 70, 89.637 70 C 90.885 70, 90.771 70.634, 89.011 73.482 C 86.821 77.025, 87.001 79, 89.515 79 C 90.701 79, 90.692 79.622, 89.456 83.126 C 88.655 85.395, 87.990 89.332, 87.978 91.876 C 87.966 94.419, 87.110 98.363, 86.076 100.640 C 84.089 105.017, 83.339 105.420, 72.156 108.131 L 66.813 109.426 67.373 112.963 C 67.682 114.908, 68.242 122.688, 68.619 130.250 L 69.304 144 97.633 144 L 125.962 144 126.498 141.750 C 126.792 140.512, 126.688 132.552, 126.267 124.060 L 125.500 108.620 117.500 106.501 C 109.770 104.455, 109.424 104.235, 107.250 99.980 C 105.722 96.988, 104.998 93.800, 104.994 90.038 C 104.990 86.992, 104.315 83.211, 103.494 81.636 C 101.657 78.114, 101.655 78, 103.441 78 C 105.731 78, 106.104 76.429, 104.532 73.400 C 102.809 70.078, 103.105 69.559, 106.270 70.353 C 109.314 71.117, 111.058 74.446, 111.304 79.965 C 111.481 83.935, 111.790 84.439, 114.500 85.171 C 118.339 86.208, 119.617 84.603, 120.470 77.673 C 121.564 68.777, 122.098 67.037, 124.674 63.976 C 126.051 62.339, 126.681 61, 126.075 61 C 123.882 61, 118.024 56.459, 118.012 54.750 C 118.005 53.713, 117.240 53, 116.135 53 C 115.109 53, 113.084 52.067, 111.635 50.927 C 109.568 49.301, 109 47.987, 109 44.829 C 109 39.980, 111.372 34.639, 114.682 32.036 L 117.110 30.126 114.962 24.813 C 111.264 15.669, 111 14.934, 111 13.798 C 111 13.189, 111.923 13.526, 113.052 14.547 C 115.087 16.388, 115.095 16.381, 114.052 13.637 C 113.473 12.115, 113 10.749, 113 10.601 C 113 10.453, 114.994 11.256, 117.431 12.386 C 121.353 14.205, 121.801 14.744, 121.334 17.082 C 121.043 18.535, 121.497 21.060, 122.342 22.695 C 123.787 25.488, 124.238 25.667, 129.861 25.667 C 136.387 25.667, 139.006 26.890, 145 32.740 C 151.777 39.354, 156.811 41.102, 171.915 42.088 C 179.387 42.576, 186.625 43.168, 188 43.404 C 189.375 43.640, 190.817 43.871, 191.204 43.917 C 191.592 43.962, 192.066 47.037, 192.258 50.750 C 192.451 54.462, 192.696 44.563, 192.804 28.750 L 193 0 96.500 0 L 0 0 0 29.155 M 0.441 29.500 C 0.442 45.450, 0.580 51.835, 0.748 43.689 C 0.916 35.543, 0.916 22.493, 0.747 14.689 C 0.579 6.885, 0.441 13.550, 0.441 29.500 M 142.089 66.250 C 143.936 72.570, 145.992 87.594, 145.996 94.800 C 146 102.405, 147.619 107.256, 150.526 108.372 C 151.406 108.709, 155.059 109.666, 158.645 110.497 C 164.728 111.908, 177.648 119.003, 179.454 121.925 C 179.834 122.541, 182.793 124.381, 186.029 126.015 L 191.912 128.984 192.327 136.242 C 192.555 140.234, 192.648 127.410, 192.533 107.745 C 192.417 88.079, 192.091 71.758, 191.808 71.475 C 191.525 71.192, 187.556 70.672, 182.989 70.320 C 176.806 69.843, 174.867 69.976, 175.401 70.840 C 175.795 71.478, 175.615 72, 175 72 C 174.385 72, 174.160 72.450, 174.500 73 C 174.840 73.550, 174.883 74, 174.596 74 C 173.780 74, 164.099 70.104, 158.120 67.369 C 153.607 65.305, 145.068 63, 141.933 63 C 141.497 63, 141.567 64.463, 142.089 66.250 M 45.500 67.824 C 42.750 68.792, 38.520 70.915, 36.100 72.542 C 33.681 74.169, 31 75.950, 30.143 76.500 C 29.286 77.050, 27.971 78.063, 27.221 78.750 C 25.521 80.309, 24.282 80.345, 23.784 78.851 C 23.321 77.464, 11.602 81.904, 5.287 85.861 L 1.073 88.500 1.037 116.250 L 1 144 3.843 144 C 6.547 144, 16.680 137.592, 23.090 131.829 C 26.642 128.636, 44.533 107.741, 45.896 105.194 C 46.503 104.060, 47.008 99.839, 47.017 95.816 C 47.033 89.155, 48.783 75.650, 50.523 68.750 C 50.905 67.237, 51.056 66.015, 50.858 66.033 C 50.661 66.051, 48.250 66.857, 45.500 67.824 M 6.815 80.902 C 2.504 83.636, 0.061 86, 1.547 86 C 2.117 86, 8.511 81.365, 11.450 78.822 C 13.416 77.121, 11.232 78.101, 6.815 80.902 M 75.057 95.086 C 72.662 96.158, 70.934 97.267, 71.218 97.551 C 72.207 98.540, 79.881 96.753, 80.395 95.414 C 81.265 93.146, 79.617 93.044, 75.057 95.086 M 113 94.369 C 113 95.173, 114.527 95.986, 116.697 96.338 C 121.473 97.113, 121.944 96.539, 118.143 94.574 C 114.402 92.640, 113 92.584, 113 94.369" stroke="none" fill="black" fill-rule="evenodd"/>
</svg>