<svg xmlns="http://www.w3.org/2000/svg" width="192" height="144" viewBox="0 0 192 144" version="1.1">
	<path d="M 54.500 19.567 C 44.182 24.914, 37.997 37.269, 41.472 45.588 C 44.897 53.787, 50.999 58, 59.450 58 C 64.899 58, 66.703 59.143, 63.250 60.407 C 58.780 62.044, 53.522 65.810, 53.762 67.203 C 53.906 68.040, 53.347 70.024, 52.518 71.612 C 50.196 76.064, 50.859 78.741, 53.604 75.996 C 54.275 75.325, 55.238 75.454, 56.514 76.387 C 58.143 77.578, 58.250 78.156, 57.248 80.356 C 56.313 82.407, 56.354 83.211, 57.450 84.307 C 58.307 85.165, 59.072 89.222, 59.480 95.091 C 59.841 100.266, 60.646 105.540, 61.270 106.812 C 62.126 108.557, 62.109 109.595, 61.202 111.048 C 59.660 113.517, 59.646 120.246, 61.180 121.780 C 62.050 122.650, 62.074 123.555, 61.270 125.230 C 59.124 129.705, 59.016 131.232, 60.611 134.592 C 62.100 137.731, 62.100 138.198, 60.614 140.466 C 58.493 143.703, 58.505 143.730, 62.043 143.606 C 64.998 143.503, 65.068 143.390, 64.449 139.715 C 64.049 137.335, 64.261 135.391, 65.021 134.475 C 65.783 133.556, 65.971 131.814, 65.531 129.759 C 65.146 127.967, 64.874 125.037, 64.925 123.250 C 65.189 114.057, 65.131 112.245, 64.481 109.262 C 63.653 105.455, 63.947 105.293, 72.617 104.764 L 78.734 104.392 77.226 107.946 C 75.640 111.682, 75.008 123.974, 75.746 136.750 L 76.164 144 92.139 144 L 108.113 144 106.557 141.777 C 104.390 138.684, 104.580 129.521, 106.918 124.373 C 109.015 119.755, 111 117.936, 111 120.632 C 111 122.212, 111.143 122.194, 112.468 120.441 C 113.276 119.374, 113.951 118.825, 113.968 119.222 C 113.986 119.619, 114.945 124.240, 116.100 129.491 C 118.128 138.713, 118.072 144.353, 115.986 140.977 C 115.220 139.737, 114.852 139.819, 113.618 141.505 C 112.181 143.468, 112.369 143.505, 125.329 143.789 C 138.422 144.077, 138.513 144.064, 140.750 141.484 C 145.129 136.433, 143.353 129.114, 135.564 120.111 C 131.856 115.824, 131.011 114.188, 131.433 112.111 C 131.725 110.675, 132.432 106.350, 133.002 102.500 C 134.237 94.174, 137.623 82.351, 139.020 81.487 C 139.567 81.150, 140.284 81.576, 140.614 82.436 C 141.118 83.750, 141.698 83.590, 144.265 81.430 C 150.723 75.997, 156 66.541, 156 60.404 C 156 57.703, 155.427 56.755, 153.050 55.526 C 149.410 53.644, 147.662 53.613, 144.200 55.372 C 142.715 56.127, 140.705 56.456, 139.734 56.103 C 138.331 55.594, 139.503 54.280, 145.421 49.724 C 152.320 44.415, 153.071 44.075, 155.491 45.178 C 157.645 46.159, 158.607 46.073, 160.957 44.685 C 162.525 43.758, 164.414 42.993, 165.154 42.985 C 165.894 42.976, 167.175 42.516, 168 41.961 C 169.263 41.112, 169.045 40.579, 166.620 38.585 C 163.822 36.285, 163.800 36.198, 165.870 35.541 C 168.239 34.789, 168.665 33.414, 166.750 32.702 C 165.987 32.419, 167.826 29.853, 171.469 26.119 C 177.123 20.322, 177.551 18.577, 172.684 21.159 C 171.483 21.796, 164.777 26.069, 157.783 30.654 C 150.789 35.238, 142.543 40.227, 139.460 41.739 C 134.260 44.289, 133.782 44.362, 132.877 42.744 C 131.574 40.416, 130.188 40.546, 128.041 43.197 C 126.405 45.218, 125.940 45.298, 122.265 44.197 C 113.332 41.521, 105.783 43.534, 102.373 49.500 C 99.944 53.749, 99.349 57, 101 57 C 101.550 57, 102 57.708, 102 58.573 C 102 60.583, 98.597 60.041, 98.328 57.989 C 96.966 47.586, 93.536 42.667, 86.387 40.867 C 82.277 39.832, 81.917 39.458, 80.532 34.796 C 78.323 27.357, 75.585 23.636, 70.140 20.673 C 64.542 17.626, 59.002 17.234, 54.500 19.567 M 69.945 70.645 C 68.706 73.903, 68.737 78.720, 70.002 79.501 C 70.576 79.856, 70.738 81.784, 70.382 84.013 C 70.040 86.153, 70.046 89.433, 70.397 91.302 L 71.034 94.698 77.267 93.422 C 80.695 92.721, 85.512 91.776, 87.972 91.323 C 92.360 90.515, 92.498 90.370, 95.321 83.579 L 98.199 76.659 95.943 74.957 C 94.532 73.893, 93.918 72.657, 94.302 71.654 C 95.386 68.830, 92.012 67.990, 88.071 70.102 C 83.567 72.516, 79.421 72.509, 74.656 70.080 L 70.890 68.159 69.945 70.645 M 54.500 73 C 54.160 73.550, 54.359 74, 54.941 74 C 55.523 74, 56 73.550, 56 73 C 56 72.450, 55.802 72, 55.559 72 C 55.316 72, 54.840 72.450, 54.500 73 M 61 116.500 C 61 118.056, 61.567 119, 62.500 119 C 63.433 119, 64 118.056, 64 116.500 C 64 114.944, 63.433 114, 62.500 114 C 61.567 114, 61 114.944, 61 116.500 M 61 130.500 C 61 132.056, 61.567 133, 62.500 133 C 63.433 133, 64 132.056, 64 130.500 C 64 128.944, 63.433 128, 62.500 128 C 61.567 128, 61 128.944, 61 130.500" stroke="none" fill="black" fill-rule="evenodd"/>
</svg>