<svg xmlns="http://www.w3.org/2000/svg" width="192" height="144" viewBox="0 0 192 144" version="1.1">
	<path d="M 118.250 12.572 C 119.763 13.393, 121 14.223, 121 14.417 C 121 14.611, 118.802 14.769, 116.115 14.769 C 108.902 14.769, 104.481 16.605, 100.947 21.067 C 99.056 23.454, 96.981 25.006, 95.666 25.015 C 92.530 25.037, 90.836 26.409, 91.573 28.330 C 91.926 29.248, 92.620 30, 93.115 30 C 93.611 30, 93.502 30.824, 92.873 31.832 C 91.311 34.333, 93.619 39.051, 97.259 40.795 C 100.112 42.163, 100.553 43.986, 99.412 49.692 C 98.948 52.010, 98.047 52.866, 95.162 53.728 C 93.148 54.330, 89.429 55.622, 86.898 56.600 L 82.297 58.378 73.848 55.189 C 69.201 53.435, 64.049 52, 62.400 52 C 60.750 52, 58.972 51.581, 58.450 51.070 C 57.860 50.492, 56.413 51.080, 54.632 52.623 C 52.005 54.898, 51.908 55.212, 53.470 56.354 C 55.062 57.518, 55.028 57.885, 52.959 61.854 C 51.740 64.193, 50.518 68.100, 50.243 70.536 C 49.590 76.332, 50.951 76.835, 61.416 74.666 C 65.862 73.745, 72.425 72.973, 76 72.951 C 79.575 72.930, 84.300 72.264, 86.500 71.471 C 92.340 69.367, 93.332 69.542, 92.578 72.545 C 92.172 74.164, 92.571 76.158, 93.676 78.029 C 95.221 80.645, 95.260 81.385, 94.030 84.735 C 93.269 86.806, 92.336 90.300, 91.957 92.500 C 91.579 94.700, 90.946 97.400, 90.553 98.500 C 89.847 100.472, 89.859 100.472, 91.418 98.559 C 92.288 97.491, 93 95.804, 93 94.809 C 93 93.365, 93.808 93, 97 93 C 101.343 93, 101.978 91.704, 100.082 86.716 C 99.083 84.088, 100.553 79.970, 102.750 79.246 C 104.312 78.730, 104.379 84.068, 102.988 98.211 C 101.729 111.004, 100.636 116.443, 96.373 131.103 C 94.518 137.485, 93 142.997, 93 143.353 C 93 143.709, 103.610 144, 116.577 144 L 140.155 144 139.516 132.750 C 138.633 117.175, 137.416 108.503, 134.501 97.004 C 133.125 91.578, 132 86.685, 132 86.132 C 132 85.546, 133.421 85.356, 135.402 85.678 C 138.250 86.140, 139.069 85.825, 140.435 83.739 C 141.786 81.678, 141.904 80.238, 141.122 75.375 C 140.228 69.812, 140.332 69.256, 143.089 64.912 C 144.690 62.389, 146 59.908, 146 59.399 C 146 58.374, 136.858 51.028, 133.124 49.052 C 130.925 47.888, 130.797 47.387, 131.395 42.292 C 131.751 39.266, 132.524 35.889, 133.114 34.787 C 133.880 33.356, 133.874 32.474, 133.093 31.693 C 131.500 30.100, 131.744 29.300, 134 28.710 C 136.896 27.953, 136.454 25.122, 133.250 23.912 C 130.364 22.823, 126.097 18.333, 126.036 16.323 C 125.976 14.375, 120.912 10.997, 118.115 11.040 L 115.500 11.080 118.250 12.572" stroke="none" fill="black" fill-rule="evenodd"/>
</svg>