<svg xmlns="http://www.w3.org/2000/svg" width="192" height="144" viewBox="0 0 192 144" version="1.1">
	<path d="M 0 72 L 0 144 39.290 144 L 78.581 144 80.236 133.250 C 81.995 121.829, 82.397 112.871, 81.425 106.768 C 80.831 103.043, 80.825 103.039, 78.035 104.482 C 76.498 105.277, 73.883 107.069, 72.226 108.464 C 70.568 109.859, 68.370 111, 67.342 111 C 66.070 111, 64.677 112.674, 62.989 116.231 C 61.623 119.108, 60.624 121.982, 60.770 122.617 C 61.076 123.948, 58.262 125.280, 56.910 124.444 C 56.409 124.135, 56 124.359, 56 124.941 C 56 126.830, 53.828 126.059, 53.284 123.977 C 52.781 122.056, 52.681 122.043, 51.307 123.727 C 50.008 125.318, 49.931 125.090, 50.562 121.500 C 50.948 119.300, 51.328 116.150, 51.405 114.500 C 51.590 110.583, 61.610 100.507, 67.967 97.845 C 74.916 94.936, 78.905 92.690, 79.396 91.410 C 79.641 90.772, 79.102 88.192, 78.198 85.677 C 76.592 81.211, 76.617 80.911, 79.277 72.743 C 80.775 68.144, 82 63.639, 82 62.733 C 82 61.827, 83.575 59.829, 85.500 58.293 C 89.143 55.386, 90.093 53.643, 87.490 54.642 C 85.491 55.409, 78.707 50.207, 79.389 48.430 C 80.002 46.831, 78.288 45.500, 75.615 45.500 C 74.578 45.500, 72.869 44.351, 71.816 42.947 C 70.145 40.716, 70.038 39.792, 70.971 35.630 C 71.558 33.011, 72.974 29.601, 74.118 28.054 C 75.828 25.741, 75.995 24.859, 75.053 23.099 C 73.493 20.183, 74.486 19, 78.496 19 C 81.840 19, 81.868 18.962, 81.271 15.250 C 80.724 11.851, 80.822 11.627, 82.317 12.859 C 83.761 14.047, 84.093 13.884, 84.979 11.555 L 85.992 8.892 89.256 11.381 C 91.051 12.751, 93.780 15.865, 95.321 18.303 C 96.862 20.740, 99.182 23.217, 100.477 23.808 C 103.824 25.333, 109.673 37.850, 111.548 47.500 C 112.403 51.900, 114.840 59.550, 116.962 64.500 C 122.632 77.720, 123.210 80.678, 122.498 92.834 C 121.841 104.075, 119.759 112, 117.463 112 C 116.652 112, 115.841 113.535, 115.482 115.750 C 115.147 117.813, 114.451 120.534, 113.936 121.797 C 113.421 123.060, 113 128.578, 113 134.059 L 113 144.023 152.750 143.761 L 192.500 143.500 192.757 71.750 L 193.013 0 96.507 0 L 0 0 0 72 M 0.474 72.500 C 0.474 112.100, 0.598 128.154, 0.750 108.176 C 0.901 88.198, 0.901 55.798, 0.750 36.176 C 0.598 16.554, 0.474 32.900, 0.474 72.500" stroke="none" fill="black" fill-rule="evenodd"/>
</svg>