<svg xmlns="http://www.w3.org/2000/svg" width="192" height="144" viewBox="0 0 192 144" version="1.1">
	<path d="M 0 40 C 0 62, 0.382 80, 0.850 80 C 2.319 80, 10.292 73.963, 15.517 68.895 L 20.534 64.029 27.517 66.873 C 31.358 68.437, 37.855 71.408, 41.956 73.475 C 49.243 77.148, 49.596 77.219, 57.456 76.608 C 61.880 76.265, 65.950 75.931, 66.500 75.866 C 67.050 75.802, 68.675 76.064, 70.112 76.448 C 72.419 77.066, 73.053 76.627, 75.555 72.671 C 77.255 69.984, 80.310 67.071, 83.194 65.387 C 86.719 63.328, 88 61.969, 88 60.290 C 88 59.030, 87.550 58, 87 58 C 86.450 58, 85.993 58.788, 85.985 59.750 C 85.973 61.120, 85.782 61.204, 85.106 60.137 C 84.377 58.986, 84.171 58.986, 83.787 60.137 C 83.520 60.937, 82.595 59.947, 81.547 57.738 C 80.565 55.669, 78.418 52.847, 76.777 51.466 C 74.325 49.402, 74.011 48.691, 75.019 47.477 C 76.061 46.221, 75.711 46, 72.681 46 C 67.857 46, 67.453 44.797, 71.004 40.996 C 72.652 39.232, 74.034 37.499, 74.076 37.144 C 74.117 36.790, 74.230 33.495, 74.326 29.822 C 74.457 24.798, 75.019 22.446, 76.596 20.322 C 79.958 15.797, 82.545 15.030, 94.500 15.018 C 106.305 15.007, 110.521 16.369, 112.997 20.995 C 113.785 22.467, 114.707 22.910, 116.076 22.476 C 118.486 21.711, 124.163 25.052, 125.828 28.216 C 128.475 33.244, 128.961 37.086, 127.489 41.353 C 126.384 44.558, 126.301 46.399, 127.124 49.458 C 129.742 59.189, 122.920 73.284, 119.239 65.750 C 116.592 60.333, 115.828 55.689, 116.494 49.059 C 116.950 44.520, 116.816 42.004, 116.094 41.558 C 114.391 40.506, 112.590 45.366, 113.827 47.677 C 115.087 50.030, 113.797 52.479, 111.292 52.491 C 110.081 52.497, 109.397 53.396, 109.182 55.267 C 109.007 56.789, 108.246 59.224, 107.492 60.679 L 106.119 63.324 105.421 60.412 C 104.394 56.126, 104.121 55.916, 101.965 57.762 C 98.962 60.334, 99.518 62.686, 103.438 63.979 C 107.843 65.433, 111.728 68.504, 114.104 72.411 C 115.862 75.302, 116.416 75.522, 122.741 75.840 C 136.255 76.520, 137.822 76.272, 144.830 72.343 C 153.527 67.468, 162.749 63, 164.117 63 C 164.714 63, 167.385 65.091, 170.052 67.648 C 175.784 73.141, 178.574 75.111, 186.144 79.013 L 191.787 81.921 192.380 79.711 C 192.706 78.495, 192.979 60.063, 192.986 38.750 L 193 0 96.500 0 L 0 0 0 40 M 0.456 40.500 C 0.456 62.500, 0.588 71.358, 0.749 60.183 C 0.910 49.009, 0.910 31.009, 0.749 20.183 C 0.587 9.358, 0.455 18.500, 0.456 40.500 M 159.250 69.175 C 156.673 70.768, 156 71.851, 156 74.401 C 156 76.170, 155.438 78.320, 154.750 79.178 C 152.788 81.626, 141.294 89, 139.439 89 C 138.520 89, 135.549 90.629, 132.837 92.620 C 130.125 94.610, 127.688 96.022, 127.423 95.756 C 126.758 95.092, 131.981 82.929, 133.901 80.670 C 135.367 78.943, 135.258 78.858, 131.978 79.170 C 128.666 79.484, 128.514 79.667, 128.796 83 C 129.054 86.055, 128.450 87.131, 124.046 91.462 L 119 96.425 119.024 92.962 C 119.058 87.938, 120.649 81.838, 122.178 80.869 C 123.093 80.289, 122.730 80.031, 121 80.031 C 117.799 80.031, 115.544 81.454, 116.443 82.907 C 116.827 83.529, 117.295 87.742, 117.482 92.269 C 117.711 97.803, 118.796 103.613, 120.794 110 C 122.428 115.225, 125.028 125.019, 126.571 131.764 L 129.378 144.028 160.939 143.764 L 192.500 143.500 192.731 114.103 C 192.857 97.934, 192.704 84.963, 192.389 85.278 C 192.074 85.593, 189.792 84.983, 187.318 83.922 C 182.457 81.838, 181 82.080, 181 84.970 C 181 86.893, 175.729 91.974, 173.673 92.034 C 173.028 92.053, 170.700 92.937, 168.500 94 C 164.466 95.948, 162 96.488, 162 95.421 C 162 93.842, 172.833 82.666, 175.366 81.632 L 178.274 80.446 174.644 77.973 C 172.647 76.613, 171.011 75.162, 171.007 74.750 C 170.989 72.784, 169.180 74.320, 168.652 76.750 C 167.795 80.690, 167.262 81.224, 159.563 85.840 C 151.954 90.403, 150.404 90.894, 151.959 88.250 C 158.199 77.641, 159.964 75.311, 162.875 73.838 C 167.420 71.536, 167.561 71.277, 165.506 69.006 C 163.347 66.621, 163.383 66.620, 159.250 69.175 M 18.610 71.472 C 17.044 73.862, 17.084 73.992, 19.818 75.406 C 21.373 76.210, 23.152 77.478, 23.770 78.223 C 25.435 80.229, 31.084 96, 30.138 96 C 29.691 96, 26.103 93.019, 22.163 89.376 C 16.475 84.116, 15 82.159, 15 79.876 C 15 78.294, 14.749 77, 14.441 77 C 14 77, 9.861 80.015, 5 83.877 C 4.725 84.095, 5.056 84.473, 5.737 84.716 C 8.928 85.857, 11.177 89.153, 13.944 96.750 C 17.980 107.828, 17.241 107.743, 4.250 95.637 L 1 92.608 1 118.304 L 1 144 35.500 144 C 54.475 144, 70 143.795, 70 143.545 C 70 141.723, 75.656 123.747, 77.192 120.685 C 78.412 118.254, 79.285 113.900, 79.599 108.685 L 80.090 100.500 77.795 104.411 C 76.093 107.313, 73.316 109.572, 67.041 113.161 C 57.820 118.436, 55.938 118.765, 48.179 116.460 C 41.842 114.579, 39.825 111.838, 39.638 104.856 C 39.514 100.232, 39.724 99.684, 41.685 99.523 C 43.190 99.400, 44.043 100.034, 44.426 101.561 C 44.741 102.816, 46.038 104.044, 47.414 104.389 C 48.752 104.725, 51.228 106.163, 52.918 107.585 C 54.608 109.006, 56.330 110.012, 56.745 109.819 C 57.160 109.626, 59.155 108.437, 61.178 107.178 C 64.686 104.993, 64.807 104.739, 63.783 101.694 C 63.193 99.937, 62.403 98.050, 62.027 97.500 C 61.652 96.950, 60.546 94.339, 59.569 91.697 C 57.875 87.112, 57.864 85.708, 59.494 81.750 C 60.111 80.250, 59.626 80, 56.107 80 C 51.687 80, 51.247 80.467, 53.357 82.921 C 54.104 83.790, 55.473 87.650, 56.401 91.500 C 57.328 95.350, 58.323 99.287, 58.611 100.250 C 59.625 103.636, 57.292 101.928, 51.177 94.805 C 45.706 88.433, 45 87.125, 45 83.362 C 45 80.105, 44.481 78.750, 42.777 77.557 C 41.555 76.701, 40.234 76, 39.841 76 C 39.448 76, 40.446 79.902, 42.058 84.672 C 43.670 89.442, 44.760 93.573, 44.480 93.854 C 43.962 94.371, 39.425 90.341, 33.387 84 C 30.851 81.336, 30.048 79.609, 30.027 76.770 C 30.003 73.443, 29.573 72.823, 26.040 71.020 C 21.010 68.454, 20.570 68.481, 18.610 71.472 M 143.040 77.452 C 142.377 78.251, 142.007 79.713, 142.218 80.702 C 142.519 82.118, 142.968 81.809, 144.326 79.250 C 146.076 75.954, 145.246 74.794, 143.040 77.452 M 65.379 82.250 C 66.162 83.487, 67.134 86.075, 67.539 88 L 68.274 91.500 69.626 87 C 71.330 81.329, 70.833 80, 67.008 80 C 64.085 80, 64.015 80.097, 65.379 82.250 M 182.358 91.123 C 177.222 95.568, 173.512 99.846, 174.198 100.532 C 174.433 100.766, 178.422 99.672, 183.062 98.101 L 191.500 95.244 191.807 91.122 C 192.092 87.311, 191.926 87, 189.618 87 C 188.130 87, 185.198 88.665, 182.358 91.123 M 188.563 100.922 C 185.991 103.617, 185.867 103.998, 187.563 103.985 C 190.590 103.961, 192.206 102.476, 191.837 100.059 C 191.511 97.915, 191.405 97.943, 188.563 100.922 M 110.581 111.160 C 110.724 113.695, 111.769 117.587, 112.904 119.811 C 114.038 122.034, 115.924 127.374, 117.095 131.677 C 119.872 141.884, 121.232 144.067, 120.721 137.500 C 120.508 134.750, 118.398 127.550, 116.034 121.500 C 113.669 115.450, 111.416 109.612, 111.027 108.526 C 110.614 107.372, 110.429 108.467, 110.581 111.160" stroke="none" fill="black" fill-rule="evenodd"/>
</svg>