<svg xmlns="http://www.w3.org/2000/svg" width="192" height="144" viewBox="0 0 192 144" version="1.1">
	<path d="M 112.487 5.250 C 111.718 7.004, 110.839 7.424, 108.500 7.153 L 105.500 6.807 107.836 9.309 C 109.813 11.427, 109.992 12.146, 109.005 13.991 C 107.503 16.796, 108.232 17.465, 111.164 15.975 C 112.449 15.322, 110.074 18.258, 105.886 22.500 C 99.759 28.706, 97.612 30.266, 94.886 30.494 C 92.391 30.703, 91.578 31.205, 91.797 32.402 C 91.960 33.296, 91.398 34.294, 90.547 34.620 C 88.280 35.490, 88.518 36.006, 93.903 41.894 C 98.472 46.890, 98.735 47.461, 97.763 50.249 C 96.717 53.250, 97.250 69.090, 98.495 72 C 98.848 72.825, 100.455 74.546, 102.065 75.823 C 104.317 77.610, 104.844 77.756, 104.345 76.457 C 103.786 75, 103.993 74.926, 105.848 75.919 C 108.620 77.402, 108.584 78.709, 105.750 79.468 C 104.513 79.799, 101.700 80.551, 99.500 81.139 C 97.300 81.727, 93.651 83.061, 91.390 84.104 C 89.130 85.147, 86.746 86, 86.093 86 C 85.439 86, 83.856 87.131, 82.574 88.514 C 79.551 91.776, 71.242 96.200, 70.473 94.957 C 70.149 94.432, 69.620 90.853, 69.297 87.004 C 68.961 82.994, 68.132 79.524, 67.355 78.880 C 66.610 78.261, 66 76.685, 66 75.378 C 66 73.544, 65.459 73, 63.635 73 C 61.191 73, 57.824 70.828, 52.316 65.700 C 50.374 63.892, 48.521 62.970, 47.566 63.336 C 45.546 64.111, 45.545 66.611, 47.563 67.386 C 48.423 67.716, 48.847 68.439, 48.504 68.993 C 47.584 70.482, 46 70.215, 46 68.570 C 46 67.783, 44.987 66.995, 43.750 66.820 C 42.513 66.644, 41.455 65.825, 41.401 65 C 41.346 64.175, 40.896 62.544, 40.401 61.376 C 39.669 59.652, 39.062 59.416, 37.170 60.124 C 35.155 60.877, 34.935 61.434, 35.540 64.247 C 37.266 72.262, 44.304 80, 49.867 80 C 51.403 80, 51.848 80.641, 51.788 82.768 C 51.744 84.291, 52.474 87.017, 53.410 88.826 C 54.346 90.636, 55.988 95.544, 57.060 99.734 C 58.131 103.924, 59.751 108.172, 60.659 109.176 C 63.617 112.445, 71.157 111.356, 83.796 105.834 C 86.383 104.704, 90.525 103.765, 93 103.748 L 97.500 103.716 97.177 109.608 C 96.943 113.877, 97.560 117.703, 99.415 123.500 C 102.542 133.275, 102.537 133, 99.617 133 C 98.027 133, 97.048 133.708, 96.677 135.126 C 96.136 137.195, 95.760 137.238, 82.811 136.723 C 70.431 136.230, 68.336 135.838, 52.867 131.116 C 31.239 124.515, 31.129 124.468, 30.002 121.506 C 28.384 117.250, 25.439 116.609, 13.322 117.875 C 7.370 118.497, 1.938 119.004, 1.250 119.003 C 0.317 119.001, 0 122.165, 0 131.500 L 0 144 70 144 C 121.135 144, 139.933 143.698, 139.750 142.880 C 139.612 142.265, 141.062 141.216, 142.971 140.551 C 149.591 138.243, 152.070 129.731, 149.949 116.586 C 149.005 110.730, 148.999 108.706, 149.924 107.592 C 150.651 106.716, 151.171 102.217, 151.254 96.079 L 151.391 86.003 144.446 82.505 C 140.626 80.580, 136.993 79.005, 136.372 79.003 C 135.752 79.001, 134.728 78.378, 134.097 77.617 C 133.204 76.540, 133.343 76.060, 134.724 75.453 C 135.701 75.024, 136.742 74.634, 137.037 74.586 C 137.332 74.539, 139.112 73.062, 140.993 71.305 C 144.238 68.271, 144.411 67.764, 144.406 61.305 C 144.402 55.725, 143.807 53.215, 141.104 47.362 L 137.807 40.224 139.904 35.485 C 143.066 28.337, 142.678 26.347, 138.237 26.928 C 137.542 27.019, 136.725 26.448, 136.423 25.659 C 136.120 24.870, 133.763 23.642, 131.186 22.930 C 126.726 21.698, 118.122 16.344, 118.039 14.750 C 117.954 13.113, 121.047 14.167, 125.887 17.424 C 131.345 21.097, 131.425 21.084, 132.427 16.409 C 133.287 12.392, 131.851 11.236, 123.255 9.030 C 118.337 7.768, 116.232 6.713, 115.513 5.148 C 114.264 2.430, 113.716 2.448, 112.487 5.250" stroke="none" fill="black" fill-rule="evenodd"/>
</svg>