<svg xmlns="http://www.w3.org/2000/svg" width="192" height="144" viewBox="0 0 192 144" version="1.1">
	<path d="M 98.500 56.537 C 96.850 57.893, 94.938 58.791, 94.250 58.532 C 92.558 57.897, 92.137 64.071, 93.553 68.750 C 94.166 70.777, 93.895 71, 90.817 71 C 88.937 71, 86.830 70.438, 86.133 69.750 C 85.117 68.748, 84.608 68.848, 83.572 70.250 C 82.069 72.285, 79.907 72.507, 78.200 70.800 C 76.391 68.991, 74.759 71.192, 75.555 74.365 C 76.444 77.904, 78.006 78.712, 79.641 76.476 C 81.483 73.958, 82.432 75.301, 82.153 80.027 C 81.898 84.358, 83.064 85.022, 86.441 82.468 C 89.067 80.482, 91.180 80.617, 90.878 82.750 C 90.742 83.713, 90.977 85.974, 91.401 87.775 C 92.207 91.208, 90.424 97.084, 85.411 107.516 C 84.085 110.275, 83 113.078, 83 113.746 C 83 114.413, 84.800 115.878, 87 117 L 91 119.041 91 128.520 L 91 138 87.500 138 C 83.505 138, 82.934 139.642, 86.011 142.278 C 87.610 143.647, 89.982 144, 97.578 144 L 107.134 144 106.427 133.250 C 106.038 127.338, 105.394 121.600, 104.996 120.500 C 104.597 119.400, 104.733 117.485, 105.299 116.244 C 106.399 113.829, 104.867 95.212, 103.369 92.787 C 101.517 89.791, 102.138 83.625, 104.584 80.718 C 106.066 78.956, 106.831 77.007, 106.563 75.673 C 105.309 69.434, 105.094 65.060, 106.015 64.490 C 106.642 64.103, 106.257 62.871, 105.018 61.295 C 103.908 59.885, 103 57.666, 103 56.365 C 103 53.411, 102.270 53.439, 98.500 56.537 M 157.921 57.354 C 157.052 59.084, 155.125 61.094, 153.639 61.820 C 150.751 63.230, 150.824 62.456, 152.548 73.513 C 152.984 76.311, 152.730 77.144, 151.298 77.604 C 150.309 77.921, 148.600 78.585, 147.500 79.077 C 145.094 80.155, 142.722 79.844, 140.728 78.189 C 138.760 76.556, 136.459 77.557, 136.265 80.130 C 136.103 82.281, 140.647 90, 142.076 90 C 142.521 90, 144.552 89.017, 146.589 87.815 L 150.292 85.630 149.542 89.565 C 149.130 91.729, 148.688 94.850, 148.559 96.500 C 148.431 98.150, 147.509 103.862, 146.510 109.194 L 144.695 118.889 147.930 122.573 C 150.327 125.304, 150.987 126.808, 150.477 128.379 C 150.098 129.546, 149.560 133.537, 149.281 137.250 C 148.816 143.444, 148.934 144, 150.720 144 C 152.678 144, 154.098 139.624, 155.668 128.750 C 156.143 125.463, 156.548 125, 158.945 125 C 162.436 125, 163.637 127.544, 164.558 136.890 C 165.208 143.484, 165.429 144, 167.604 144 C 169.600 144, 169.886 143.590, 169.522 141.250 C 169.286 139.737, 168.842 134.844, 168.534 130.377 L 167.974 122.253 170.987 121.005 C 175.046 119.324, 174.883 116.494, 170.440 111.501 C 168.482 109.302, 165.573 105.088, 163.974 102.136 C 161.259 97.122, 161.164 96.584, 162.534 93.935 C 163.340 92.375, 164 90.128, 164 88.941 C 164 87.122, 164.404 86.885, 166.575 87.429 C 169.059 88.053, 175.185 86.543, 177.740 84.677 C 179.527 83.372, 174.981 80.033, 170.406 79.291 C 167.551 78.828, 167.127 78.509, 168.411 77.790 C 170.427 76.661, 173.503 76.013, 177.750 75.822 C 179.537 75.742, 181 75.294, 181 74.826 C 181 74.063, 177.932 74.252, 169.777 75.517 L 167.054 75.939 167.351 69.464 C 167.643 63.070, 167.605 62.965, 164.323 61.028 C 162.343 59.860, 161 58.270, 161 57.093 C 161 53.870, 159.610 53.988, 157.921 57.354 M 40.189 57 C 39.117 59.794, 36.471 62.349, 33.583 63.381 C 32.122 63.903, 31.943 64.343, 32.833 65.233 C 33.475 65.875, 34 67.453, 34 68.740 C 34 70.028, 34.923 72.329, 36.051 73.855 L 38.101 76.628 35.301 82.018 C 33.108 86.238, 31.306 88.116, 27 90.665 C 23.975 92.457, 20.289 93.940, 18.809 93.961 C 17.329 93.982, 15.838 94.453, 15.495 95.008 C 15.110 95.631, 14.286 95.429, 13.338 94.481 C 11.776 92.919, 6.509 93.229, 2.881 95.096 C 1.991 95.555, 0.979 95.645, 0.631 95.298 C 0.284 94.951, 0 96.451, 0 98.633 L 0 102.599 15.597 109.049 C 27.498 113.971, 31.402 116.033, 32.072 117.750 C 32.555 118.987, 33.643 120, 34.489 120 C 35.868 120, 35.871 120.373, 34.513 123.622 C 32.350 128.801, 32.505 129.420, 37.500 135.553 C 39.975 138.592, 42 141.735, 42 142.539 C 42 143.610, 43.235 144, 46.622 144 C 50.754 144, 51.103 143.829, 49.911 142.393 C 47.608 139.618, 45.717 136.053, 42.428 128.287 C 41.250 125.505, 41.274 124.869, 42.605 123.537 C 43.451 122.692, 45.215 122, 46.524 122 C 50.999 122, 54 119.921, 54 116.821 C 54 113.508, 49.630 100.464, 47.766 98.216 C 46.934 97.212, 46.576 94, 46.722 88.844 C 46.851 84.282, 46.537 81, 45.972 81 C 44.154 81, 44.991 78.815, 47.011 78.287 C 49.516 77.632, 50.435 74.275, 49.084 70.720 C 48.518 69.233, 48.320 67.331, 48.642 66.492 C 49 65.557, 48.215 64.170, 46.613 62.911 C 45.176 61.780, 44 60.299, 44 59.619 C 44 58.939, 43.359 57.509, 42.575 56.441 C 41.190 54.555, 41.122 54.571, 40.189 57 M 143 82.059 C 143 82.641, 143.450 82.840, 144 82.500 C 144.550 82.160, 145 81.684, 145 81.441 C 145 81.198, 144.550 81, 144 81 C 143.450 81, 143 81.477, 143 82.059 M 29.806 93.938 C 28.451 95.004, 26.140 96.178, 24.671 96.546 C 20.423 97.613, 21.576 98.864, 26.250 98.261 C 32.653 97.434, 35 96.298, 35 94.025 C 35 91.472, 32.984 91.438, 29.806 93.938 M 17.813 96.683 C 18.534 96.972, 19.397 96.936, 19.729 96.604 C 20.061 96.272, 19.471 96.036, 18.417 96.079 C 17.252 96.127, 17.015 96.364, 17.813 96.683 M 35 102 C 33.718 102.828, 33.754 102.972, 35.250 102.985 C 36.212 102.993, 37 102.550, 37 102 C 37 100.780, 36.887 100.780, 35 102 M 95.212 128.180 L 95.500 137.500 98.750 137.813 L 102 138.127 101.882 131.813 C 101.694 121.805, 100.950 119.553, 97.707 119.180 L 94.923 118.860 95.212 128.180" stroke="none" fill="black" fill-rule="evenodd"/>
</svg>