<svg xmlns="http://www.w3.org/2000/svg" width="192" height="144" viewBox="0 0 192 144" version="1.1">
	<path d="M 0 40 C 0 68.328, 0.320 80, 1.096 80 C 2.734 80, 7.753 76.233, 14.721 69.774 L 20.943 64.007 26.221 66.078 C 29.125 67.217, 35.876 70.203, 41.225 72.714 C 50.710 77.166, 51.116 77.260, 57.725 76.561 C 67.448 75.532, 68.265 75.518, 70.647 76.334 C 72.405 76.936, 73.199 76.414, 75.029 73.452 C 77.826 68.927, 81.562 65.424, 85.197 63.918 C 87.157 63.107, 88 62.042, 88 60.379 C 88 59.070, 87.550 58, 87 58 C 86.450 58, 86 58.730, 86 59.622 C 86 60.866, 85.687 60.985, 84.658 60.131 C 83.920 59.519, 83.080 59.253, 82.793 59.541 C 82.505 59.829, 81.671 58.587, 80.940 56.782 C 79.593 53.458, 76.452 50, 74.780 50 C 74.277 50, 74.151 49.100, 74.500 48 C 75.009 46.395, 74.677 45.997, 72.817 45.985 C 71.543 45.976, 69.830 45.546, 69.012 45.028 C 67.773 44.245, 68.067 43.526, 70.762 40.746 C 73.709 37.705, 74 36.845, 74 31.170 C 74 18.349, 77.754 14.948, 92.426 14.474 C 104.144 14.095, 108.248 15.164, 111.706 19.498 C 113.828 22.158, 114.955 22.798, 116.731 22.353 C 120.470 21.414, 125.660 26.115, 127.417 32.032 C 128.703 36.362, 128.709 37.451, 127.467 40.425 C 126.336 43.132, 126.256 45.019, 127.083 49.493 C 128.271 55.919, 127.653 60.069, 124.811 64.750 C 122.244 68.976, 120.652 68.853, 118.364 64.250 C 116.954 61.413, 116.500 58.269, 116.500 51.336 C 116.500 41.434, 115.766 39.224, 113.865 43.398 C 112.967 45.367, 112.946 46.346, 113.780 47.180 C 115.256 48.656, 113.378 52.359, 111.517 51.645 C 110.695 51.330, 109.730 52.351, 108.993 54.317 C 108.336 56.068, 107.293 58.559, 106.675 59.854 C 105.555 62.199, 105.548 62.196, 104.720 58.999 C 103.916 55.895, 103.826 55.848, 101.944 57.550 C 98.865 60.337, 99.617 61.856, 105.324 64.380 C 109.288 66.133, 111.358 67.854, 113.424 71.117 L 116.200 75.500 126.350 75.807 L 136.500 76.114 150.692 68.807 L 164.883 61.500 169.192 65.579 C 175.373 71.432, 180.753 75.362, 186.655 78.338 C 191.079 80.569, 191.894 80.718, 192.405 79.387 C 192.732 78.534, 193 60.323, 193 38.918 L 193 0 96.500 0 L 0 0 0 40 M 0.456 40.500 C 0.456 62.500, 0.588 71.358, 0.749 60.183 C 0.910 49.009, 0.910 31.009, 0.749 20.183 C 0.587 9.358, 0.455 18.500, 0.456 40.500 M 159.750 68.572 C 158.238 69.393, 156.931 70.837, 156.848 71.782 C 156.764 72.727, 156.591 73.950, 156.463 74.500 C 156.335 75.050, 156.179 76.270, 156.115 77.211 C 155.950 79.667, 140.972 90.574, 139.977 88.963 C 139.426 88.072, 137.524 89.019, 133.232 92.321 C 129.944 94.851, 127.008 96.675, 126.708 96.374 C 126.101 95.767, 132.099 82.790, 134.102 80.377 C 135.208 79.045, 134.926 78.888, 131.937 79.173 C 128.746 79.477, 128.522 79.723, 128.812 82.620 C 129.083 85.336, 128.391 86.366, 123.460 90.578 L 117.798 95.416 118.456 100.381 C 118.818 103.112, 119.502 106.070, 119.975 106.954 C 121.090 109.037, 126.506 129.673, 128.061 137.764 L 129.266 144.028 160.883 143.764 L 192.500 143.500 192.689 114.415 L 192.877 85.331 188.897 83.575 C 184.471 81.622, 182.016 82.027, 181.968 84.719 C 181.951 85.698, 181.367 87.248, 180.672 88.162 C 179.023 90.331, 164.257 98.244, 163.701 97.258 C 162.889 95.819, 172.592 83.495, 175.824 81.860 L 179.066 80.220 174.987 76.990 C 172.743 75.213, 170.765 73.926, 170.591 74.129 C 170.416 74.333, 169.838 75.850, 169.305 77.500 C 168.646 79.539, 165.991 82.182, 161.017 85.750 C 156.992 88.638, 153.286 91, 152.781 91 C 152.277 91, 153.807 87.345, 156.182 82.878 C 159.377 76.869, 161.280 74.421, 163.500 73.466 C 167.772 71.629, 168.220 70.901, 166.347 68.831 C 164.368 66.645, 163.375 66.606, 159.750 68.572 M 19.446 71.060 C 17.534 73.172, 17.538 73.208, 19.919 75.135 C 21.239 76.205, 22.907 77.408, 23.625 77.810 C 25.013 78.587, 32.243 97.014, 31.147 96.980 C 30.791 96.969, 27.216 93.931, 23.201 90.230 C 17.274 84.765, 15.865 82.890, 15.701 80.252 C 15.591 78.466, 15.349 77.003, 15.163 77.002 C 14.442 76.998, 6 83.372, 6.003 83.920 C 6.004 84.239, 7.361 85.400, 9.016 86.500 C 10.672 87.600, 12.435 89.850, 12.934 91.500 C 13.433 93.150, 14.769 96.946, 15.902 99.935 C 17.036 102.925, 17.763 105.571, 17.518 105.816 C 17.063 106.271, 6.845 97.722, 3.828 94.362 C 2.909 93.338, 1.978 90.925, 1.760 89 C 1.543 87.075, 1.292 98.662, 1.204 114.750 L 1.043 144 35.376 144 L 69.709 144 71.914 136.250 C 73.127 131.988, 75.278 125.665, 76.694 122.200 C 78.431 117.948, 79.403 113.395, 79.684 108.200 L 80.100 100.500 77.800 104.403 C 75.937 107.564, 73.629 109.261, 65.650 113.339 L 55.800 118.373 48.650 117.148 C 44.717 116.474, 40.882 115.307, 40.127 114.553 C 38.307 112.736, 35.056 103.019, 35.703 101.331 C 35.984 100.599, 37.246 100, 38.507 100 C 40.432 100, 40.768 100.480, 40.594 102.981 C 40.393 105.896, 40.471 105.948, 44.184 105.355 C 47.303 104.856, 48.595 105.216, 51.423 107.374 C 53.317 108.818, 55.129 110, 55.449 110 C 55.769 110, 58.503 108.359, 61.525 106.352 L 67.019 102.704 62.904 95.208 C 59.407 88.836, 58.883 87.134, 59.407 83.856 L 60.024 80 56.012 80 C 51.635 80, 51.227 80.488, 53.502 83.002 C 55.170 84.846, 60.298 101.036, 59.474 101.859 C 59.187 102.146, 58.351 101.733, 57.617 100.940 C 45.605 87.983, 44.800 86.840, 45.210 83.329 C 45.546 80.449, 45.113 79.432, 42.682 77.386 C 41.069 76.028, 39.573 75.094, 39.357 75.310 C 39.142 75.525, 40.387 79.605, 42.125 84.375 C 43.863 89.145, 44.966 93.367, 44.576 93.757 C 44.186 94.147, 40.747 91.264, 36.934 87.351 C 30.685 80.939, 30 79.840, 30 76.216 C 30 72.738, 29.629 72.061, 27.250 71.200 C 25.738 70.653, 23.797 69.918, 22.937 69.567 C 21.992 69.182, 20.611 69.772, 19.446 71.060 M 143.374 77.551 C 142.308 79.179, 142.050 80.450, 142.661 81.061 C 143.273 81.673, 144.226 80.749, 145.294 78.510 C 147.226 74.458, 145.851 73.771, 143.374 77.551 M 118.145 80.070 C 116.413 80.764, 115.986 81.474, 116.529 82.756 C 116.935 83.715, 117.230 85.850, 117.186 87.500 C 117.109 90.344, 117.181 90.294, 118.578 86.524 C 119.389 84.337, 120.490 82.110, 121.026 81.574 C 123.374 79.226, 122.019 78.518, 118.145 80.070 M 66.385 82.465 C 67.273 83.820, 68 85.620, 68 86.465 C 68 88.889, 69.720 88.252, 70.391 85.579 C 71.277 82.049, 70.134 80, 67.278 80 C 64.842 80, 64.816 80.071, 66.385 82.465 M 187 88.282 C 184.731 90.124, 176 101.104, 176 102.115 C 176 103.375, 176.008 103.372, 184.396 99.389 L 192 95.778 192 91.389 C 192 87.864, 191.656 87.006, 190.250 87.032 C 189.287 87.049, 187.825 87.612, 187 88.282 M 190.200 103.200 C 188.567 104.833, 188.692 106, 190.500 106 C 191.333 106, 192 105.111, 192 104 C 192 101.669, 191.814 101.586, 190.200 103.200 M 111.086 111.626 C 111.039 113.345, 112.048 117.170, 113.328 120.126 C 114.608 123.082, 116.460 128.543, 117.442 132.262 C 118.425 135.980, 119.627 139.269, 120.114 139.571 C 122.253 140.892, 120.670 133.224, 116.853 123.771 C 114.572 118.122, 112.360 112.375, 111.939 111 C 111.206 108.610, 111.168 108.638, 111.086 111.626" stroke="none" fill="black" fill-rule="evenodd"/>
</svg>