<svg xmlns="http://www.w3.org/2000/svg" width="192" height="144" viewBox="0 0 192 144" version="1.1">
	<path d="M 103.548 37.250 C 103.334 37.938, 102.976 39.167, 102.752 39.982 C 102.429 41.160, 100.809 41.400, 94.846 41.151 C 87.985 40.865, 87.082 41.060, 84.244 43.449 C 79.993 47.025, 77.645 54.415, 78.243 62.341 C 78.498 65.729, 78.986 69.175, 79.326 70 C 80.182 72.071, 75.128 75.825, 73.982 73.970 C 72.885 72.196, 40.441 73.323, 11.250 76.149 L -0 77.239 -0 110.619 L 0 144 45.061 144 L 90.123 144 89.450 139.250 C 88.687 133.860, 82.193 100.423, 81.389 97.745 C 81.051 96.619, 81.514 95.780, 82.681 95.404 C 83.681 95.082, 85.400 94.440, 86.500 93.978 C 87.600 93.515, 90.750 92.849, 93.500 92.496 C 104.034 91.145, 109.088 88.985, 116.936 82.480 C 125.621 75.280, 127.989 72.344, 131.487 64.434 C 135.761 54.770, 133.981 52.940, 127.662 60.500 C 125.593 62.975, 123.071 65, 122.057 65 C 121.043 65, 119.955 65.675, 119.638 66.500 C 119.322 67.325, 118.583 68, 117.996 68 C 117.252 68, 117.242 67.416, 117.965 66.066 C 119.448 63.294, 119.241 55.367, 117.602 52.198 C 115.595 48.316, 112.340 45.653, 108.156 44.470 C 104.710 43.495, 104.530 43.237, 104.833 39.720 C 105.140 36.149, 104.359 34.646, 103.548 37.250" stroke="none" fill="black" fill-rule="evenodd"/>
</svg>