<svg xmlns="http://www.w3.org/2000/svg" width="192" height="144" viewBox="0 0 192 144" version="1.1">
	<path d="M 0 72 L 0 144 10.889 144 L 21.777 144 22.458 140.370 C 22.866 138.200, 22.709 136.309, 22.070 135.670 C 20.663 134.263, 20.692 128.308, 22.110 127.432 C 22.749 127.037, 22.996 125.361, 22.691 123.482 C 22.400 121.687, 22.548 118.505, 23.020 116.411 C 23.747 113.189, 23.581 112.395, 21.939 111.245 C 19.488 109.528, 19.457 106.543, 21.865 104.135 C 23.451 102.549, 23.803 100.191, 24.218 88.385 C 24.486 80.748, 24.486 73.904, 24.217 73.176 C 23.907 72.335, 22.866 72.068, 21.364 72.445 C 18.467 73.172, 18.438 72.525, 21.100 66.508 L 23.199 61.761 21.198 59.055 C 18.494 55.397, 15.995 47.750, 16.022 43.215 C 16.051 38.286, 18.995 32.023, 22.781 28.837 C 31.270 21.694, 46.558 16.001, 57.250 16 C 59.843 16, 60 15.742, 60 11.500 C 60 9.025, 60.337 7.001, 60.750 7.002 C 61.163 7.003, 62.838 9.140, 64.474 11.752 C 66.109 14.363, 69.320 18.817, 71.610 21.649 C 73.899 24.481, 76.523 29.059, 77.441 31.822 C 78.359 34.585, 79.730 37.361, 80.487 37.989 C 81.245 38.618, 84.643 39.525, 88.038 40.005 C 91.433 40.485, 94.391 41.057, 94.610 41.277 C 94.830 41.496, 94.501 43.133, 93.880 44.915 C 92.920 47.669, 92.388 48.063, 90.329 47.547 C 86.841 46.671, 86.106 47.535, 86.992 51.467 C 87.956 55.738, 84.824 63, 82.018 63 C 78.895 63, 77.772 65.557, 78.298 71.469 C 78.646 75.384, 78.439 77, 77.587 77 C 76.926 77, 75.601 78.777, 74.643 80.948 C 72.711 85.327, 70.475 86.483, 65.885 85.475 C 63.308 84.909, 62.870 85.081, 63.157 86.545 C 63.418 87.873, 65.618 88.718, 72.372 90.085 C 83.642 92.365, 84.348 92.651, 83.589 94.630 C 83.248 95.517, 84.068 98.565, 85.411 101.404 C 86.754 104.242, 88.160 107.788, 88.535 109.282 C 88.978 111.048, 89.883 112, 91.120 112 C 92.767 112, 92.941 112.517, 92.411 115.828 C 91.956 118.677, 92.227 120.084, 93.471 121.328 C 95.135 122.992, 99.998 123.679, 100.002 122.250 C 100.006 121.033, 113.902 121.558, 130 123.384 C 132.834 123.706, 138.920 125.576, 143.784 127.620 C 145.590 128.379, 147.467 129, 147.956 129 C 149.940 129, 162.625 138.359, 164.364 141.106 L 166.232 144.056 179.366 143.778 L 192.500 143.500 192.757 71.750 L 193.013 0 96.507 0 L 0 0 0 72 M 0.474 72.500 C 0.474 112.100, 0.598 128.154, 0.750 108.176 C 0.901 88.198, 0.901 55.798, 0.750 36.176 C 0.598 16.554, 0.474 32.900, 0.474 72.500 M 97.500 5 C 97.138 5.585, 98.176 6, 100 6 C 101.824 6, 102.862 5.585, 102.500 5 C 102.160 4.450, 101.035 4, 100 4 C 98.965 4, 97.840 4.450, 97.500 5 M 130.269 58.693 C 131.242 58.947, 132.592 58.930, 133.269 58.656 C 133.946 58.382, 133.150 58.175, 131.500 58.195 C 129.850 58.215, 129.296 58.439, 130.269 58.693 M 45 88.969 C 45 89.501, 45.675 89.678, 46.500 89.362 C 47.325 89.045, 48 88.609, 48 88.393 C 48 88.177, 47.325 88, 46.500 88 C 45.675 88, 45 88.436, 45 88.969 M 40.015 140.750 C 40.007 142.537, 40.450 144, 41 144 C 42.270 144, 42.270 140.965, 41 139 C 40.264 137.862, 40.027 138.284, 40.015 140.750" stroke="none" fill="black" fill-rule="evenodd"/>
</svg>