<svg xmlns="http://www.w3.org/2000/svg" width="192" height="144" viewBox="0 0 192 144" version="1.1">
	<path d="M 0 10.025 L 0 20.050 5.838 25.775 C 9.049 28.924, 12.823 33.300, 14.225 35.500 C 15.627 37.700, 18.169 40.816, 19.874 42.425 C 22.763 45.151, 23.505 45.348, 30.738 45.312 C 35.007 45.291, 40.100 44.948, 42.056 44.550 C 46.346 43.677, 49.125 45.822, 46.512 47.990 C 45.681 48.680, 45 50.488, 45 52.008 C 45 53.528, 44.327 56.060, 43.505 57.636 C 42.683 59.211, 41.737 62.075, 41.403 64 C 39.954 72.336, 35.677 84.395, 33.430 86.478 C 31.287 88.464, 31.167 89.027, 32.138 92.583 C 32.727 94.737, 33.679 97.078, 34.254 97.784 C 34.830 98.490, 35.403 100.368, 35.528 101.958 C 35.653 103.547, 36.637 106.120, 37.714 107.674 C 41.060 112.503, 41.466 113.399, 39.905 112.507 C 39.132 112.066, 37.008 110.601, 35.184 109.251 C 33.361 107.902, 31.584 107.083, 31.236 107.431 C 30.634 108.032, 31.808 113.200, 33.523 117.500 C 34.216 119.239, 33.957 119.174, 31.537 117 L 28.754 114.500 29.449 121.183 L 30.145 127.866 27.322 127.083 C 25.276 126.515, 23.809 126.781, 21.987 128.049 C 20.605 129.011, 18.355 129.957, 16.987 130.149 C 15.013 130.428, 14.436 131.159, 14.191 133.694 C 13.901 136.686, 14.121 136.929, 17.691 137.544 C 19.786 137.906, 26.900 139.382, 33.500 140.825 L 45.500 143.449 118.750 143.744 L 192 144.038 192 87.178 C 192 55.905, 192.295 23.496, 192.656 15.159 L 193.312 0 96.656 0 L 0 0 0 10.025 M 0.370 11 C 0.370 16.775, 0.535 19.138, 0.737 16.250 C 0.939 13.363, 0.939 8.638, 0.737 5.750 C 0.535 2.863, 0.370 5.225, 0.370 11 M 89 51.872 C 89 52.599, 99.463 62, 100.272 62 C 100.495 62, 100.621 60.356, 100.551 58.347 C 100.466 55.897, 99.778 54.289, 98.462 53.465 C 96.130 52.005, 89 50.805, 89 51.872 M 31.079 84.583 C 31.127 85.748, 31.364 85.985, 31.683 85.188 C 31.972 84.466, 31.936 83.603, 31.604 83.271 C 31.272 82.939, 31.036 83.529, 31.079 84.583 M 10 134.819 C 10 136.027, 11.897 137.436, 12.591 136.743 C 12.842 136.491, 12.362 135.716, 11.524 135.020 C 10.574 134.231, 10 134.155, 10 134.819" stroke="none" fill="black" fill-rule="evenodd"/>
</svg>