<svg xmlns="http://www.w3.org/2000/svg" width="192" height="144" viewBox="0 0 192 144" version="1.1">
	<path d="M -0 5.167 C -0 8.008, 0.175 10.146, 0.389 9.917 C 0.603 9.688, 2.400 7.362, 4.383 4.750 L 7.987 -0 3.993 -0 L 0 0 -0 5.167 M 134.466 1.750 C 137.249 8.916, 137.494 24.020, 134.956 32.005 C 132.484 39.781, 126.588 49.991, 121.202 55.822 C 114.051 63.564, 106.448 68.078, 93.712 72.141 C 77.635 77.270, 64.990 87.980, 57.612 102.717 C 56.175 105.586, 55 108.554, 55 109.313 C 55 110.072, 54.261 112.174, 53.358 113.985 C 52.002 116.702, 51.828 119.132, 52.360 127.889 C 52.715 133.725, 53.282 139.738, 53.619 141.250 L 54.233 144 118.995 144 L 183.756 144 187.628 138.362 L 191.500 132.724 192.135 137.612 C 192.540 140.729, 192.633 139.602, 192.391 134.500 C 192.183 130.100, 192.009 100.607, 192.006 68.961 L 192 11.421 187.808 5.711 L 183.616 -0 158.701 -0 C 135.380 -0, 133.830 0.112, 134.466 1.750 M 80.135 5.721 C 73.472 6.984, 68 13.176, 68 19.451 C 68 21.091, 68.713 24.299, 69.583 26.579 C 73.821 37.675, 91.725 37.951, 97.872 27.015 C 100.747 21.898, 100.243 16.496, 96.422 11.486 C 92.360 6.162, 87.285 4.365, 80.135 5.721 M 104.284 111.701 C 101.069 112.324, 97.293 117.308, 96.506 121.967 C 95.979 125.085, 96.327 127.044, 98.036 130.574 C 100.647 135.968, 103.468 137.365, 110.441 136.716 C 114.378 136.350, 115.941 135.631, 118.137 133.173 C 121.974 128.879, 122.772 123.797, 120.335 119.170 C 116.961 112.764, 111.625 110.280, 104.284 111.701 M 1 139.500 C 1 143.991, 1.007 144, 4.562 144 L 8.124 144 4.893 139.500 C 3.115 137.025, 1.512 135, 1.330 135 C 1.149 135, 1 137.025, 1 139.500" stroke="none" fill="black" fill-rule="evenodd"/>
</svg>