<svg xmlns="http://www.w3.org/2000/svg" width="192" height="144" viewBox="0 0 192 144" version="1.1">
	<path d="M 0 66.714 C 0 128.049, 0.130 133.299, 1.610 131.818 C 2.669 130.760, 3.315 128.073, 3.495 123.984 C 3.646 120.561, 4.212 117.477, 4.752 117.130 C 6.385 116.083, 9.346 104.615, 8.092 104.197 C 6.094 103.531, 6.964 101.162, 10 99 C 12.743 97.047, 14.521 91.942, 11.893 93.566 C 11.178 94.008, 10.974 93.586, 11.318 92.375 C 12.762 87.290, 13.076 83.692, 12.444 79.477 C 11.904 75.873, 11.229 74.657, 9.376 73.953 C 6.554 72.880, 6.491 72.200, 8.658 66.101 C 10.304 61.466, 10.297 61.406, 7.696 57.467 C 4.519 52.654, 2.563 44.177, 3.476 39.179 C 4.732 32.308, 8.480 27.464, 16.251 22.663 C 25.579 16.900, 30.577 15.294, 41.015 14.703 L 49.500 14.223 50 9.862 L 50.500 5.500 55.261 12.500 C 57.879 16.350, 61.159 20.909, 62.548 22.632 C 63.937 24.354, 66.097 28.404, 67.347 31.632 C 69.807 37.984, 72.255 39.960, 77.691 39.985 C 79.446 39.993, 81.165 40.457, 81.510 41.016 C 81.856 41.575, 82.627 41.730, 83.225 41.361 C 83.972 40.899, 84.101 41.744, 83.637 44.063 C 82.765 48.425, 81.509 49.667, 79.586 48.072 C 77.294 46.170, 75.899 47.605, 77.064 50.667 C 78.396 54.172, 75.128 60.882, 70.935 63.251 C 67.876 64.978, 67.840 65.092, 68.168 71.908 C 68.351 75.707, 68.143 78.593, 67.706 78.322 C 66.293 77.442, 63.937 80.226, 64.525 82.080 C 65.273 84.436, 62.321 86, 57.125 86 C 52.668 86, 50.835 87.675, 53.311 89.485 C 54.200 90.135, 59.454 91.693, 64.987 92.948 C 72.322 94.611, 75.439 95.789, 76.495 97.296 C 77.585 98.853, 77.664 99.700, 76.814 100.724 C 74.337 103.709, 77.627 103.928, 85.027 101.273 C 91.516 98.945, 94.015 98.595, 104 98.615 C 112.422 98.632, 116.838 99.113, 120.500 100.413 C 139.345 107.104, 153.033 118.957, 161.360 135.795 C 164.017 141.167, 164.256 142.229, 162.987 143.045 C 162.014 143.670, 166.864 143.914, 177 143.751 L 192.500 143.500 192.787 71.750 L 193.075 0 96.537 0 L 0 0 0 66.714 M 0.472 67 C 0.472 103.575, 0.597 118.537, 0.750 100.250 C 0.902 81.962, 0.902 52.037, 0.750 33.750 C 0.597 15.462, 0.472 30.425, 0.472 67 M 117.487 55.380 C 115.475 58.451, 115.882 62.230, 118.261 62.573 C 120.455 62.889, 122.224 59.751, 121.812 56.278 C 121.390 52.732, 119.481 52.336, 117.487 55.380 M 4.500 60 C 4.840 60.550, 5.766 61, 6.559 61 C 7.352 61, 8 60.550, 8 60 C 8 59.450, 7.073 59, 5.941 59 C 4.809 59, 4.160 59.450, 4.500 60 M 70.232 141 C 70.232 142.925, 70.438 143.713, 70.689 142.750 C 70.941 141.787, 70.941 140.213, 70.689 139.250 C 70.438 138.287, 70.232 139.075, 70.232 141 M 1.195 141.500 C 1.215 143.150, 1.439 143.704, 1.693 142.731 C 1.947 141.758, 1.930 140.408, 1.656 139.731 C 1.382 139.054, 1.175 139.850, 1.195 141.500" stroke="none" fill="black" fill-rule="evenodd"/>
</svg>