<svg xmlns="http://www.w3.org/2000/svg" width="192" height="144" viewBox="0 0 192 144" version="1.1">
	<path d="M 0 72 L 0 144 40.352 144 L 80.704 144 81.520 135.750 C 82.620 124.646, 82.147 92.144, 80.851 89.722 C 79.888 87.922, 79.537 88.079, 75.782 91.987 C 72.809 95.081, 71.189 96.049, 69.624 95.669 C 68.456 95.385, 63.489 94.291, 58.587 93.238 C 51.552 91.726, 49.192 90.762, 47.385 88.661 C 45.897 86.931, 44.093 86, 42.229 86 C 38.737 86, 29.294 83.285, 28.540 82.064 C 28.239 81.578, 28.273 80.453, 28.614 79.565 C 29.125 78.231, 29.504 78.172, 30.779 79.224 C 31.935 80.178, 32.425 80.203, 32.721 79.324 C 33.174 77.979, 42.153 78.476, 45.008 80.004 C 45.969 80.519, 48.362 80.734, 50.325 80.483 C 52.547 80.198, 55.597 80.756, 58.407 81.960 C 60.888 83.024, 64.400 84.166, 66.209 84.498 C 69.327 85.069, 69.645 84.841, 72.250 80.153 C 73.762 77.432, 75 74.280, 75 73.150 C 75 71.951, 76.681 69.743, 79.033 67.853 C 81.495 65.875, 82.852 64.058, 82.519 63.188 C 82.201 62.361, 83.448 60.371, 85.486 58.449 C 89.322 54.831, 90.010 52.923, 87.216 53.654 C 85.023 54.227, 79.500 48.391, 79.500 45.500 C 79.500 44.184, 78.726 43.390, 77.239 43.179 C 75.936 42.994, 74.322 41.589, 73.430 39.865 C 72.029 37.156, 72.033 36.415, 73.474 32.079 C 74.349 29.444, 76.125 26.291, 77.421 25.074 C 78.964 23.625, 79.593 22.160, 79.245 20.828 C 78.576 18.271, 80.692 16.834, 84.082 17.544 C 86.362 18.022, 86.853 17.602, 88.289 13.945 C 89.288 11.403, 90.414 9.985, 91.208 10.272 C 91.919 10.529, 93.259 10.079, 94.187 9.272 C 95.115 8.464, 96.362 8.106, 96.958 8.474 C 98.792 9.607, 103.981 19.370, 103.991 21.706 C 103.996 22.919, 105.135 25.584, 106.522 27.628 C 109.730 32.354, 111.621 38.914, 113.405 51.500 C 114.184 57, 115.921 64.650, 117.265 68.500 C 122.978 84.871, 123.526 87.057, 122.133 87.918 C 121.314 88.424, 120.724 91.145, 120.572 95.116 C 120.310 101.991, 116.823 116.834, 114.455 121.154 C 113.453 122.983, 113 126.954, 113 133.916 L 113 144.023 152.750 143.761 L 192.500 143.500 192.757 71.750 L 193.013 0 96.507 0 L 0 0 0 72 M 0.474 72.500 C 0.474 112.100, 0.598 128.154, 0.750 108.176 C 0.901 88.198, 0.901 55.798, 0.750 36.176 C 0.598 16.554, 0.474 32.900, 0.474 72.500" stroke="none" fill="black" fill-rule="evenodd"/>
</svg>