<svg xmlns="http://www.w3.org/2000/svg" width="192" height="144" viewBox="0 0 192 144" version="1.1">
	<path d="M 0 72 L 0 144 6.885 144 L 13.770 144 14.474 138.364 C 14.976 134.341, 14.827 132.511, 13.952 131.970 C 13.133 131.464, 12.980 130.264, 13.491 128.356 C 13.912 126.785, 14.375 123.025, 14.520 120 C 14.664 116.975, 15.871 111.539, 17.200 107.920 C 18.925 103.223, 19.334 100.891, 18.627 99.771 C 17.029 97.237, 20.110 93.744, 27.144 90.114 C 30.640 88.309, 32.671 87.098, 31.657 87.421 C 26.164 89.172, 24.983 89.131, 22.400 87.100 C 19.183 84.569, 17.212 84.463, 14.089 86.650 C 12.793 87.558, 11.928 87.895, 12.167 87.400 C 18.431 74.404, 21 66.401, 21 59.884 C 21 56.765, 20.708 56.264, 19.130 56.676 C 18.101 56.945, 14.998 56.019, 12.233 54.618 C 8.420 52.686, 7.204 51.520, 7.194 49.786 C 7.186 48.529, 7.027 46.617, 6.840 45.538 C 6.610 44.209, 7.145 43.462, 8.500 43.220 C 9.600 43.024, 11.918 42.220, 13.651 41.432 C 15.384 40.644, 17.297 40, 17.901 40 C 18.539 40, 19 38.088, 19 35.443 C 19 21.441, 26.501 12.129, 38.879 10.763 C 40.314 10.604, 43.046 8.415, 45.759 5.250 L 50.259 0 25.130 0 L 0 0 0 72 M 52.827 2.750 C 53.864 4.263, 55.391 6.628, 56.220 8.006 C 57.198 9.634, 59.307 10.935, 62.236 11.718 C 68.225 13.320, 74.764 18.449, 78.479 24.456 C 81.144 28.768, 81.502 30.244, 81.519 36.995 C 81.533 42.708, 82.002 45.355, 83.372 47.445 C 84.908 49.790, 85.007 50.619, 83.976 52.546 C 83.006 54.358, 83.001 56.296, 83.951 61.673 C 84.615 65.428, 85.401 69.175, 85.697 70 C 85.994 70.825, 86.374 74.503, 86.543 78.174 C 86.711 81.845, 87.333 85.753, 87.924 86.858 C 89.244 89.324, 89.274 90, 88.067 90 C 87.554 90, 86.849 89.100, 86.500 88 C 85.760 85.669, 84.127 85.455, 81.535 87.351 C 79.794 88.624, 79.870 88.810, 82.844 90.567 C 84.606 91.608, 86 93.262, 86 94.312 C 86 95.347, 87.008 99.300, 88.240 103.097 C 89.899 108.207, 90.943 110, 92.260 110 C 94.035 110, 94.049 110.888, 92.376 117.135 C 92.115 118.108, 93.223 119.852, 95.113 121.441 C 97.495 123.446, 98.002 124.398, 97.144 125.256 C 94.040 128.360, 97.202 133.527, 100.882 131.366 C 101.772 130.844, 104.525 130.711, 107 131.071 C 109.475 131.430, 111.736 131.362, 112.025 130.918 C 112.313 130.474, 114.526 130.555, 116.942 131.098 C 119.358 131.641, 121.951 131.849, 122.704 131.560 C 123.457 131.271, 125.939 131.678, 128.219 132.463 C 130.500 133.249, 132.714 133.677, 133.139 133.414 C 133.564 133.151, 135.562 133.626, 137.578 134.468 C 139.594 135.311, 142.020 136, 142.968 136 C 144.613 136, 149.193 137.845, 153.500 140.242 C 160.032 143.877, 160.705 143.988, 176.250 143.994 L 192 144 192 72 L 192 0 121.470 -0 L 50.940 -0 52.827 2.750 M 116 55 C 116 55.550, 116.900 56, 118 56 C 119.100 56, 120 55.550, 120 55 C 120 54.450, 119.100 54, 118 54 C 116.900 54, 116 54.450, 116 55 M 152.750 63.115 C 149.908 65.235, 149.053 68.012, 151.250 67.985 C 152.828 67.965, 153.894 67.168, 156.924 63.741 C 159.159 61.215, 159.198 61.002, 157.424 61.032 C 156.366 61.049, 154.262 61.987, 152.750 63.115 M 32.015 140.191 C 32.007 141.671, 32.450 143.160, 33 143.500 C 34.277 144.289, 34.277 140.976, 33 139 C 32.242 137.827, 32.027 138.086, 32.015 140.191" stroke="none" fill="black" fill-rule="evenodd"/>
</svg>