<svg xmlns="http://www.w3.org/2000/svg" width="192" height="144" viewBox="0 0 192 144" version="1.1">
	<path d="M 152 11.500 C 152 12.325, 151.520 13, 150.933 13 C 150.347 13, 148.344 14.162, 146.482 15.581 C 144.621 17.001, 142.289 18.282, 141.299 18.429 C 139.716 18.663, 139.524 19.679, 139.696 26.898 C 139.879 34.521, 139.759 35.058, 138.009 34.503 C 136.973 34.174, 135.225 34.467, 134.124 35.154 C 132.516 36.159, 131.645 36.148, 129.687 35.100 C 127.849 34.116, 126.739 34.069, 125.173 34.907 C 123.347 35.885, 123.166 36.650, 123.677 41.259 C 124.462 48.346, 125.215 48.912, 130.282 46.229 C 132.602 45, 134.790 43.996, 135.144 43.997 C 135.498 43.999, 135.356 45.912, 134.829 48.250 C 134.301 50.587, 134.074 53.577, 134.324 54.894 C 134.874 57.798, 130.355 65.910, 125.216 71.243 C 122.040 74.538, 121.722 75.315, 122.554 77.743 C 123.206 79.643, 125.085 81.277, 128.599 83 L 133.697 85.500 133.270 94 C 132.724 104.883, 132.677 104.997, 128.781 105.015 C 123.957 105.038, 122.581 106.239, 123.482 109.644 C 123.898 111.215, 124.350 114.360, 124.487 116.632 C 124.894 123.372, 127.618 125.328, 129.832 120.470 C 130.942 118.034, 131.093 117.997, 133.921 119.459 C 137.680 121.403, 138.733 124.533, 136.469 127.034 C 134.745 128.939, 135.053 132, 136.969 132 C 137.536 132, 138 132.675, 138 133.500 C 138 134.325, 137.325 135, 136.500 135 C 135.448 135, 135 136.062, 135 138.557 L 135 142.113 138.122 140.307 C 140.897 138.701, 142.143 137.118, 146.657 129.462 C 147.293 128.383, 148.358 127.630, 149.023 127.789 C 150.859 128.227, 154.764 125.320, 155.514 122.955 C 155.930 121.645, 155.589 120.203, 154.606 119.117 C 153.443 117.832, 153.249 116.609, 153.864 114.439 C 155.773 107.700, 153.583 78.117, 150.204 65 C 147.562 54.745, 148.220 48.023, 152.068 45.964 C 154.573 44.623, 154.699 39.486, 152.250 38.534 C 150.694 37.929, 150.795 37.598, 153.158 35.554 C 155.303 33.698, 159.972 32.270, 166.167 31.575 C 166.533 31.534, 167.208 31.103, 167.667 30.617 C 168.435 29.804, 163.950 30.308, 158.250 31.677 C 156.198 32.169, 156 31.860, 156 28.167 C 156 25.940, 156.518 23.798, 157.151 23.406 C 157.986 22.891, 157.914 22.393, 156.888 21.597 C 154.098 19.434, 152.203 15.387, 152.719 12.691 C 153.002 11.211, 152.956 10, 152.617 10 C 152.277 10, 152 10.675, 152 11.500 M 78.654 14.285 C 77.795 16.341, 75.963 18.515, 74.544 19.162 C 72.140 20.257, 72.076 20.467, 73.492 22.629 C 74.322 23.894, 75 25.620, 75 26.465 C 75 27.309, 76.004 29.004, 77.232 30.232 L 79.464 32.464 76.805 33.400 C 75.342 33.914, 73.939 35.125, 73.687 36.090 C 73.414 37.133, 72.066 37.978, 70.364 38.173 C 68.197 38.420, 67.500 39.026, 67.500 40.660 C 67.500 43.384, 67.108 43.760, 63.605 44.395 C 59.716 45.100, 59.473 45.546, 61.388 48.469 C 63.333 51.437, 65.983 51.781, 66.670 49.153 C 67.007 47.867, 67.831 47.436, 69.387 47.734 C 70.616 47.969, 72.175 47.493, 72.852 46.678 C 73.938 45.369, 74.431 45.368, 77.042 46.671 C 78.669 47.482, 80 48.568, 80 49.084 C 80 49.600, 78.232 55.149, 76.071 61.416 C 71.936 73.408, 71.957 74.416, 76.390 76.744 C 77.903 77.538, 78.314 78.980, 78.448 83.966 C 78.601 89.628, 78.406 90.276, 76.308 91.073 C 72.915 92.363, 73.275 96.141, 77 98.341 C 81.057 100.737, 80.774 101.853, 75.914 102.630 C 71.404 103.351, 70.292 104.809, 71.927 107.863 C 72.811 109.515, 72.623 110.151, 70.889 111.365 C 69.724 112.181, 68.147 112.610, 67.385 112.318 C 65.204 111.480, 62.969 112.755, 63.624 114.462 C 64.354 116.364, 66.822 116.447, 68.921 114.642 C 71.853 112.119, 76.760 111.020, 80.018 112.156 C 84.162 113.601, 87.006 112.674, 91.534 108.403 C 95.085 105.054, 95.254 104.659, 93.641 103.480 C 92.011 102.287, 92.102 101.953, 94.944 98.717 C 98.377 94.806, 98.708 93.238, 96.445 91.583 C 95.590 90.958, 94.534 88.883, 94.099 86.973 C 93.665 85.063, 93.001 82.540, 92.624 81.366 C 92.070 79.641, 92.431 79.109, 94.503 78.588 C 98.637 77.551, 99.473 74.269, 97.045 68.605 C 94.728 63.199, 91.526 50.141, 92.322 49.345 C 92.605 49.062, 92.392 47.556, 91.850 45.998 C 91.104 43.859, 91.246 42.425, 92.431 40.133 C 94.429 36.269, 94.406 35.225, 92.313 34.822 C 90.657 34.503, 89.992 30.798, 89.887 21.294 C 89.860 18.880, 89.314 17.931, 87.676 17.452 C 86.479 17.102, 84.309 15.411, 82.852 13.695 L 80.204 10.575 78.654 14.285 M 15.390 17.767 C 14.318 21.244, 13.287 22.414, 9.622 24.316 C 6.871 25.744, 6.064 26.684, 6.566 27.878 C 6.941 28.770, 7.347 30.780, 7.469 32.345 C 7.590 33.910, 8.239 35.530, 8.911 35.945 C 11.155 37.332, 12.655 41.518, 12.225 45.197 C 11.876 48.188, 11.236 49.056, 8.650 50.047 C 6.917 50.711, 4.263 51.757, 2.750 52.371 L 0 53.488 0.012 66.494 L 0.025 79.500 3.726 81.899 C 7.031 84.042, 7.860 84.183, 11.464 83.214 C 16.745 81.794, 17.868 82.974, 15.472 87.422 C 13.651 90.804, 13.650 90.956, 15.447 92.941 C 16.463 94.064, 19.301 96.159, 21.755 97.596 L 26.215 100.210 23.108 103.049 C 21.398 104.610, 20 106.313, 20 106.832 C 20 107.352, 18.313 108.062, 16.250 108.410 C 14.188 108.758, 9.688 109.815, 6.250 110.759 L 0 112.475 0 127.038 C 0 137.031, 0.377 141.977, 1.200 142.800 C 2.025 143.625, 7.022 144, 17.200 144 C 35.050 144, 35.420 143.548, 24.937 134.536 C 21.122 131.255, 18 128.271, 18 127.904 C 18 127.538, 20.138 126.700, 22.750 126.044 C 27.952 124.736, 30.774 122.692, 32.076 119.287 C 32.541 118.070, 34.702 115.951, 36.877 114.578 C 39.052 113.204, 41.112 111.628, 41.454 111.075 C 42.228 109.822, 38.776 102.921, 35.756 99.685 C 32.750 96.464, 27 89.247, 27 88.695 C 27 88.453, 28.688 87.979, 30.750 87.640 C 35.692 86.829, 41 83.493, 41 81.197 C 41 80.190, 38.334 73.996, 35.076 67.433 C 31.818 60.870, 27.987 52.842, 26.562 49.594 C 24.108 43.999, 24.062 43.589, 25.682 41.799 C 27.179 40.145, 27.239 39.343, 26.169 35.340 C 25.258 31.937, 25.234 30.422, 26.075 29.410 C 26.958 28.345, 26.658 27.801, 24.692 26.906 C 23.146 26.201, 21.550 24.111, 20.541 21.469 C 18.749 16.776, 16.249 14.979, 15.390 17.767 M 170 30 C 170 30.550, 170.675 31, 171.500 31 C 172.325 31, 173 30.550, 173 30 C 173 29.450, 172.325 29, 171.500 29 C 170.675 29, 170 29.450, 170 30 M 7.250 55.199 C 4.362 56.337, 2 57.585, 2 57.973 C 2 59.611, 7.267 60.925, 11.504 60.344 C 13.977 60.005, 16 59.633, 16 59.518 C 16 59.113, 12.852 53.001, 12.677 53.065 C 12.580 53.101, 10.138 54.061, 7.250 55.199 M 16.397 66.500 C 17.441 67.290, 18.686 67.694, 19.164 67.399 C 20.606 66.507, 19.030 64.998, 16.691 65.032 C 14.572 65.063, 14.562 65.111, 16.397 66.500 M 83.617 80.556 C 83.278 81.440, 83 83.876, 83 85.968 C 83 89.420, 83.275 89.813, 85.962 90.208 C 89.736 90.762, 90.525 88.909, 88.412 84.455 C 86.272 79.947, 84.427 78.446, 83.617 80.556 M 139.017 88.936 C 138.434 91.101, 137.854 95.447, 137.729 98.593 L 137.500 104.313 141.783 105.751 C 148.277 107.931, 149 107.239, 149 98.852 C 149 94.887, 148.460 90.148, 147.799 88.321 C 146.773 85.484, 146.123 85, 143.338 85 C 140.389 85, 139.976 85.376, 139.017 88.936 M 8.676 112.452 C 6.572 113.202, 4.557 114.110, 4.197 114.470 C 3.837 114.829, 5.556 116.874, 8.016 119.014 L 12.490 122.905 15.209 120.299 C 16.705 118.866, 17.621 117.200, 17.245 116.597 C 16.869 115.994, 16.693 114.487, 16.852 113.250 C 17.200 110.563, 14.666 110.315, 8.676 112.452" stroke="none" fill="black" fill-rule="evenodd"/>
</svg>