<svg xmlns="http://www.w3.org/2000/svg" width="192" height="144" viewBox="0 0 192 144" version="1.1">
	<path d="M 0 72 L 0 144 42.500 144 L 85 144 85.026 141.250 C 85.040 139.738, 85.888 134.800, 86.911 130.277 C 88.391 123.736, 88.515 121.842, 87.518 121.015 C 86.585 120.241, 84.808 121.636, 80.548 126.488 C 74.706 133.142, 71.623 134.540, 70.512 131.038 C 69.751 128.641, 70.695 126.797, 75.918 120.476 L 79.968 115.576 77.613 113.038 C 76.318 111.642, 74.518 109.329, 73.612 107.898 C 72.126 105.552, 72.113 105.012, 73.476 102.398 C 74.307 100.804, 74.990 98.964, 74.994 98.309 C 74.997 97.653, 69.713 92.518, 63.250 86.898 C 45.647 71.588, 47.198 73.482, 49.903 70.603 C 53.406 66.874, 64.916 61.712, 72.500 60.469 C 73.050 60.378, 75.690 60.236, 78.367 60.152 C 83.153 60.002, 83.222 59.955, 82.540 57.250 C 82.159 55.737, 81.906 52.336, 81.978 49.692 L 82.108 44.883 79.598 46.528 C 76.768 48.382, 75 47.793, 75 44.997 C 75 41.813, 79.257 37.944, 84.839 36.055 C 90.752 34.053, 93.107 31.012, 92.244 26.495 C 91.750 23.913, 91.493 23.798, 87.465 24.350 C 81.638 25.148, 76.259 21.272, 72.482 13.553 C 69.807 8.085, 68 5.823, 68 7.941 C 68 10.677, 66.128 8.531, 65 4.500 L 63.740 -0 31.870 -0 L 0 0 0 72 M 72 4.776 C 72 7.257, 73.722 8.706, 77.204 9.153 C 81.350 9.685, 80.953 8.084, 76.250 5.307 C 72.194 2.911, 72 2.887, 72 4.776 M 81.500 11.960 C 80.400 12.410, 78.263 12.547, 76.750 12.264 C 72.855 11.536, 73.281 13.214, 78.329 18.482 C 82.474 22.808, 84.893 23.746, 88.418 22.393 C 90.668 21.530, 90.386 19.541, 87.367 14.979 C 84.551 10.724, 84.537 10.716, 81.500 11.960 M 93.500 26 C 93.840 26.550, 94.541 27, 95.059 27 C 95.577 27, 96 26.550, 96 26 C 96 25.450, 95.298 25, 94.441 25 C 93.584 25, 93.160 25.450, 93.500 26 M 190.266 31.250 C 189.325 34.735, 189.378 35.764, 190.559 36.964 C 191.816 38.242, 192 37.700, 192 32.714 C 192 29.571, 191.868 27, 191.707 27 C 191.545 27, 190.897 28.913, 190.266 31.250 M 83.643 38.028 C 82.071 38.499, 79.933 39.655, 78.893 40.597 C 76.926 42.377, 76.334 45, 77.900 45 C 78.646 45, 88.546 38.745, 89.917 37.407 C 90.612 36.728, 86.682 37.117, 83.643 38.028 M 86.690 41.474 C 85.695 42.208, 85.266 43.047, 85.738 43.338 C 86.942 44.082, 89.321 42.448, 88.872 41.186 C 88.632 40.512, 87.856 40.615, 86.690 41.474 M 133.736 55.598 C 133.407 55.927, 133.310 56.714, 133.520 57.348 C 133.729 57.981, 134.391 60.413, 134.989 62.750 L 136.077 67 142.622 67 C 146.407 67, 149.026 66.592, 148.833 66.031 C 148.325 64.554, 136.743 55, 135.460 55 C 134.840 55, 134.064 55.269, 133.736 55.598 M 136.556 72.966 C 136.894 75.460, 138.234 82.225, 139.535 88 C 140.835 93.775, 142.452 101.200, 143.128 104.500 C 143.803 107.800, 146.111 114.775, 148.256 120 C 150.401 125.225, 153.356 132.762, 154.822 136.750 L 157.489 144 174.744 144 L 192 144 191.996 125.250 C 191.992 107.243, 191.893 106.305, 189.496 101.581 C 188.123 98.875, 187 95.621, 187 94.350 C 187 91.441, 183.847 90.530, 176.433 91.295 C 169.150 92.046, 164.962 90.699, 160.193 86.071 C 157.081 83.051, 155.901 80.917, 154.920 76.534 C 154.225 73.428, 152.946 70.514, 152.078 70.058 C 151.210 69.602, 147.224 69.050, 143.221 68.830 L 135.942 68.431 136.556 72.966 M 156 75.162 C 156 79.337, 160.719 85.685, 165.567 88.032 C 169.591 89.980, 170.910 90.148, 176.177 89.378 C 182.145 88.507, 182.178 88.484, 180.346 86.472 C 176.827 82.606, 170.139 77.951, 164.554 75.482 C 157.646 72.427, 156 72.365, 156 75.162 M 189.045 94.781 C 189.070 95.727, 189.708 97.850, 190.464 99.500 L 191.838 102.500 191.919 98.357 C 191.974 95.540, 191.520 94.030, 190.500 93.638 C 189.518 93.262, 189.016 93.656, 189.045 94.781 M 150.586 140 C 151.285 143.779, 151.711 144.622, 152.515 143.818 C 152.799 143.535, 152.335 141.772, 151.484 139.901 L 149.938 136.500 150.586 140" stroke="none" fill="black" fill-rule="evenodd"/>
</svg>