<svg xmlns="http://www.w3.org/2000/svg" width="192" height="144" viewBox="0 0 192 144" version="1.1">
	<path d="M 0 72 L 0 144 4.402 144 L 8.804 144 9.373 138.250 C 10.930 122.528, 11.164 116, 10.171 116 C 8.064 116, 7.954 112.078, 9.957 108.342 C 12.337 103.902, 12.754 92.848, 10.816 85.601 C 9.863 82.037, 9.904 80.327, 11.030 76.837 C 11.799 74.451, 12.488 72.050, 12.561 71.500 C 12.634 70.950, 12.966 69.825, 13.299 69 C 14.918 64.992, 14.414 63.585, 10.282 60.574 C 7.963 58.883, 5.782 56.511, 5.437 55.303 C 4.446 51.832, 6.709 46.703, 10.316 44.250 C 17.864 39.116, 26.578 43.273, 29.299 53.305 C 33.182 67.623, 36.584 88.213, 38.421 108.500 C 39.614 121.680, 39.597 123.705, 38.287 125.192 C 36.964 126.693, 36.976 127.777, 38.398 134.792 C 39.279 139.141, 40 142.995, 40 143.356 C 40 143.717, 74.313 143.897, 116.250 143.756 L 192.500 143.500 192.523 71.500 C 192.536 31.900, 192.421 9.625, 192.268 22 C 192.115 34.375, 191.695 45.175, 191.336 46 C 190.976 46.825, 190.754 47.837, 190.841 48.250 C 190.929 48.663, 190.365 49, 189.588 49 C 188.811 49, 185.099 50.771, 181.338 52.936 C 161.343 64.446, 136.975 61.049, 120.500 44.457 C 110.275 34.159, 105.523 22.687, 105.712 8.750 L 105.830 0 52.915 0 L 0 0 0 72 M 0.474 72.500 C 0.474 112.100, 0.598 128.154, 0.750 108.176 C 0.901 88.198, 0.901 55.798, 0.750 36.176 C 0.598 16.554, 0.474 32.900, 0.474 72.500" stroke="none" fill="black" fill-rule="evenodd"/>
</svg>