<svg xmlns="http://www.w3.org/2000/svg" width="192" height="144" viewBox="0 0 192 144" version="1.1">
	<path d="M 54.252 20.044 C 46.604 23.938, 41.062 32.759, 41.022 41.100 C 40.979 50.109, 49.894 58.361, 60 58.666 C 63.025 58.758, 65.699 58.870, 65.943 58.916 C 66.186 58.962, 63.599 60.449, 60.193 62.220 C 55.739 64.535, 53.990 66.010, 53.965 67.470 C 53.945 68.586, 53.286 70.625, 52.500 72 C 50.381 75.706, 50.620 77.133, 53.250 76.474 C 54.487 76.164, 56.341 76.526, 57.369 77.279 C 58.970 78.451, 59.053 78.942, 57.950 80.708 C 56.876 82.429, 56.939 83.351, 58.331 86.286 C 59.249 88.220, 60 91.135, 60 92.765 C 60 97.058, 61.800 106.132, 63.176 108.770 C 64.085 110.514, 64.086 111.314, 63.180 112.220 C 61.633 113.767, 61.669 119.497, 63.241 122.014 C 64.228 123.595, 64.228 124.405, 63.241 125.986 C 61.653 128.528, 61.634 135.234, 63.210 136.810 C 64.156 137.756, 64.035 138.671, 62.653 141.010 L 60.887 144 63.943 144 C 67.356 144, 67.501 143.775, 65.821 141.085 C 64.877 139.573, 64.977 138.685, 66.321 136.633 C 68.171 133.809, 68.569 128.469, 67 127.500 C 65.703 126.699, 65.703 122.301, 67 121.500 C 68.530 120.555, 68.190 115.219, 66.429 112.532 C 64.267 109.233, 65.990 106, 69.910 106 C 71.472 106, 74.157 105.719, 75.876 105.375 L 79.003 104.749 77.352 108.625 C 75.451 113.091, 74.377 129.857, 75.445 138.406 L 76.144 144 91.694 144 C 103.994 144, 107.039 143.739, 106.259 142.750 C 104.642 140.700, 103.974 133.678, 105.031 129.850 C 106.246 125.449, 111.716 117.706, 113.034 118.521 C 113.565 118.849, 114.007 120.329, 114.015 121.809 C 114.026 123.654, 114.295 124.083, 114.872 123.172 C 115.416 122.315, 116.422 125.151, 117.711 131.172 C 119.513 139.591, 119.558 140.674, 118.170 142.282 C 116.704 143.981, 117.214 144.051, 128.995 143.782 L 141.359 143.500 142.155 140.517 C 143.301 136.225, 141.555 130.940, 136.982 124.853 C 132.534 118.933, 132.305 117.335, 134.047 104.322 C 135.055 96.790, 137.234 88.501, 139.213 84.667 C 140.130 82.891, 140.200 82.891, 141.515 84.667 C 142.788 86.387, 143.144 86.233, 147.315 82.160 C 152.371 77.222, 158 67.084, 158 62.916 C 158 57.832, 150.816 55.304, 144.520 58.173 C 142.770 58.970, 141.619 59.019, 140.926 58.326 C 140.232 57.632, 142.367 55.476, 147.593 51.593 C 153.008 47.568, 155.593 46.193, 156.340 46.940 C 156.923 47.523, 158.238 48, 159.262 48 C 161.617 48, 171 44.962, 171 44.199 C 171 43.886, 170.062 42.630, 168.914 41.409 L 166.829 39.189 168.988 38.504 C 170.993 37.867, 171.031 37.692, 169.527 36.030 C 168.009 34.353, 168.301 33.891, 174.204 28.625 C 177.667 25.536, 179.923 23.007, 179.217 23.004 C 177.261 22.998, 169.015 27.390, 159.685 33.409 C 151.272 38.837, 141.357 44.164, 137.374 45.398 C 135.764 45.896, 135.119 45.564, 134.718 44.028 C 134.046 41.460, 131.394 41.385, 130.732 43.915 C 130.084 46.393, 126.410 46.925, 122.029 45.175 C 117.958 43.549, 110.827 44.228, 107.231 46.584 C 103.810 48.826, 100.840 55.771, 102.302 58.112 C 103.711 60.368, 102.775 61.381, 100.075 60.524 C 98.365 59.981, 97.999 59.042, 97.996 55.183 C 97.990 47.534, 92.421 41, 85.910 41 C 83.235 41, 81.080 38.359, 81.015 35 C 80.989 33.625, 79.958 30.719, 78.725 28.542 C 73.688 19.649, 62.593 15.796, 54.252 20.044 M 97 62.500 C 97 63.325, 97.436 64, 97.969 64 C 98.501 64, 98.678 63.325, 98.362 62.500 C 98.045 61.675, 97.609 61, 97.393 61 C 97.177 61, 97 61.675, 97 62.500 M 70.052 72.841 C 68.972 76.116, 69.021 77.140, 70.389 79.785 C 71.361 81.666, 71.610 83.123, 71.021 83.487 C 70.012 84.111, 70.745 92.924, 71.917 94.237 C 72.662 95.073, 89.286 92.477, 92.807 90.975 C 94.225 90.370, 96.089 87.787, 97.644 84.271 L 100.174 78.550 97.479 76.402 C 95.509 74.831, 94.959 73.703, 95.434 72.207 C 96.333 69.375, 92.978 68.443, 89.100 70.448 C 85.302 72.412, 78.356 72.434, 74.636 70.494 C 73.060 69.672, 71.670 69, 71.546 69 C 71.422 69, 70.750 70.729, 70.052 72.841 M 63 105 C 63 105.550, 63.702 106, 64.559 106 C 65.416 106, 65.840 105.550, 65.500 105 C 65.160 104.450, 64.459 104, 63.941 104 C 63.423 104, 63 104.450, 63 105 M 63 117.500 C 63 119.056, 63.567 120, 64.500 120 C 65.433 120, 66 119.056, 66 117.500 C 66 115.944, 65.433 115, 64.500 115 C 63.567 115, 63 115.944, 63 117.500 M 63.667 129.667 C 62.409 130.925, 63 134, 64.500 134 C 65.433 134, 66 133.056, 66 131.500 C 66 129.072, 65.026 128.307, 63.667 129.667" stroke="none" fill="black" fill-rule="evenodd"/>
</svg>