<svg xmlns="http://www.w3.org/2000/svg" width="192" height="144" viewBox="0 0 192 144" version="1.1">
	<path d="M 0 72 L 0 144 45.750 143.985 C 75.657 143.975, 90.981 143.634, 90 143 C 89.175 142.467, 87.703 142.024, 86.729 142.015 C 85.754 142.007, 84.446 140.879, 83.822 139.510 C 82.679 137, 84.549 124.942, 88.662 108.303 C 89.701 104.097, 89.941 100.723, 89.409 97.803 C 88.978 95.436, 88.694 93.209, 88.778 92.853 C 88.863 92.496, 88.063 92.432, 87.002 92.710 C 85.937 92.988, 84.324 92.467, 83.403 91.546 C 82.373 90.516, 80.541 89.996, 78.617 90.188 C 75.610 90.488, 75.512 90.375, 75.832 86.999 C 76.213 82.980, 79.794 78.695, 85.016 76.007 C 87.848 74.550, 88.777 73.284, 89.789 69.499 C 90.645 66.298, 91.676 64.636, 93.023 64.284 C 94.450 63.910, 95.010 62.896, 95.036 60.633 L 95.072 57.500 97.324 60.250 C 98.562 61.762, 100.323 63, 101.237 63 C 102.151 63, 104.056 64.518, 105.472 66.374 C 107.617 69.187, 108.913 69.863, 113.262 70.440 C 116.131 70.821, 119.833 71.977, 121.489 73.009 C 124.766 75.052, 127.808 79.221, 126.386 79.720 C 123.608 80.695, 120.754 82.620, 120.948 83.388 C 121.307 84.816, 118.757 85.968, 115.200 85.985 C 111.341 86.003, 105.669 88.656, 106.526 90.043 C 106.852 90.569, 106.416 91, 105.559 91 C 103.472 91, 103.595 92.786, 106.028 97.821 C 107.143 100.129, 108.498 104.353, 109.039 107.207 C 109.581 110.061, 110.581 112.766, 111.262 113.217 C 112.209 113.845, 112.119 114.331, 110.877 115.286 C 109.985 115.973, 108.948 118.346, 108.574 120.560 C 107.967 124.155, 108.266 125.055, 111.375 128.983 C 114.947 133.497, 116.031 139, 113.348 139 C 112.607 139, 112 139.351, 112 139.781 C 112 140.210, 110.537 141.223, 108.750 142.031 C 105.820 143.356, 109.679 143.526, 148 143.761 C 171.375 143.905, 191.063 143.806, 191.750 143.542 C 192.734 143.165, 193 127.834, 193 71.531 L 193 0 150 0 C 126.122 0, 107 0.389, 107 0.874 C 107 1.355, 107.675 3.662, 108.500 6 C 110.435 11.484, 110.422 22.420, 108.474 28.072 C 107.634 30.507, 104.484 35.824, 101.474 39.888 C 98.463 43.951, 96 47.888, 96 48.638 C 96 50.882, 94.631 50.171, 92.340 46.738 C 91.152 44.957, 87.984 40.350, 85.298 36.500 C 82.613 32.650, 79.768 27.925, 78.976 26 C 77.165 21.594, 77.379 11.816, 79.416 5.966 C 80.271 3.509, 80.977 1.163, 80.985 0.750 C 80.993 0.337, 62.775 0, 40.500 0 L 0 0 0 72 M 0.474 72.500 C 0.474 112.100, 0.598 128.154, 0.750 108.176 C 0.901 88.198, 0.901 55.798, 0.750 36.176 C 0.598 16.554, 0.474 32.900, 0.474 72.500 M 108.750 91.662 C 109.438 91.940, 110.563 91.940, 111.250 91.662 C 111.938 91.385, 111.375 91.158, 110 91.158 C 108.625 91.158, 108.063 91.385, 108.750 91.662" stroke="none" fill="black" fill-rule="evenodd"/>
</svg>