<svg xmlns="http://www.w3.org/2000/svg" width="192" height="144" viewBox="0 0 192 144" version="1.1">
	<path d="M 0.168 23.250 C 0.261 36.038, 0.512 44.700, 0.728 42.500 C 0.970 40.026, 2.231 37.104, 4.033 34.842 C 5.697 32.753, 7.241 29.320, 7.633 26.842 C 8.012 24.444, 9.121 21.930, 10.111 21.227 C 11.524 20.224, 11.764 19.166, 11.249 16.227 C 10.890 14.177, 10.575 9.688, 10.548 6.250 L 10.500 0 5.250 0 L 0 0 0.168 23.250 M 21 0.917 C 21 1.421, 21.563 2.023, 22.250 2.256 C 23.137 2.555, 23.457 5.192, 23.352 11.339 C 23.216 19.264, 23.878 21.625, 25.500 19 C 25.840 18.450, 27.400 18, 28.968 18 C 31.759 18, 31.814 17.892, 31.659 12.750 C 31.571 9.863, 31.858 5.813, 32.295 3.750 L 33.091 0 27.045 0 C 23.720 0, 21 0.412, 21 0.917 M 77 0.566 C 77 0.877, 77.481 2.031, 78.070 3.130 C 78.908 4.696, 79.765 4.991, 82.031 4.493 C 88.089 3.163, 88.500 4.224, 88.500 21.187 L 88.500 36.508 91.750 41.426 C 94.923 46.226, 95 46.272, 95 43.363 C 95 41.723, 95.621 39.533, 96.379 38.496 C 97.634 36.780, 97.824 37.083, 98.481 41.863 C 99.052 46.013, 98.867 47.489, 97.602 48.887 C 96.721 49.861, 96 51.635, 96 52.829 C 96 54.461, 95.397 55, 93.571 55 C 89.763 55, 88 57.533, 88 63.004 C 88 67.082, 88.342 67.974, 90.125 68.540 C 93.007 69.454, 93.966 67.629, 93.985 61.193 C 94 55.910, 94.010 55.894, 96.223 57.443 C 97.445 58.299, 99.245 59, 100.223 59 C 101.200 59, 102 59.450, 102 60 C 102 60.550, 102.900 61, 104 61 C 105.432 61, 106 60.333, 106 58.654 C 106 55.896, 103.585 50.731, 101.479 48.983 C 100.666 48.308, 100 46.509, 100 44.986 C 100 42.890, 100.589 42.069, 102.421 41.609 C 105.484 40.840, 108 41.779, 108 43.690 C 108 44.502, 108.551 44.983, 109.224 44.759 C 111.079 44.140, 111.966 38.348, 111.482 30 C 111.244 25.875, 111.037 22.158, 111.024 21.741 C 110.990 20.658, 105.459 15.007, 104.392 14.964 C 102.959 14.906, 98.356 10.693, 97.128 8.316 C 96.508 7.114, 96 4.752, 96 3.066 L 96 0 86.500 0 C 81.275 0, 77 0.255, 77 0.566 M 108 0.965 C 108 1.495, 108.957 2.442, 110.127 3.068 C 111.786 3.956, 112.443 3.909, 113.112 2.853 C 114.553 0.579, 114.125 0, 111 0 C 109.350 0, 108 0.434, 108 0.965 M 174 1.417 C 174 2.196, 174.536 3.012, 175.191 3.230 C 175.912 3.471, 176.516 6.362, 176.723 10.564 C 177.102 18.238, 178.831 25.222, 180.151 24.407 C 181.329 23.679, 182.681 27.596, 183.492 34.089 C 184.023 38.343, 183.705 40.938, 182.050 45.852 C 180.123 51.573, 180.028 52.903, 181.030 60.221 C 182.790 73.074, 179.344 98, 175.808 98 C 175.363 98, 175 98.620, 175 99.378 C 175 100.135, 174.330 101.311, 173.511 101.991 C 172.692 102.671, 172.246 103.589, 172.520 104.032 C 173.493 105.607, 158.244 118.890, 155.182 119.134 C 154.257 119.208, 151.543 119.164, 149.151 119.036 C 145.643 118.848, 143.949 119.416, 140.392 121.970 C 134.107 126.484, 132.174 125.870, 128.376 118.154 C 125.477 112.265, 121.501 107.020, 120.721 108.056 C 120.227 108.710, 121.654 133.718, 122.500 139.250 C 123.214 143.917, 123.291 144, 126.864 143.985 C 131.374 143.966, 132.586 143.220, 133.954 139.622 C 134.926 137.065, 135.401 136.830, 138.766 137.246 C 141.299 137.558, 143.304 137.147, 145 135.967 C 146.375 135.010, 149.300 133.728, 151.500 133.119 C 156.947 131.610, 172.266 131.666, 173.800 133.200 C 175.751 135.151, 175.264 139.118, 173 139.710 C 171.877 140.004, 171 141.074, 171 142.150 C 171 143.939, 171.723 144.049, 181.750 143.784 L 192.500 143.500 192.819 119 C 192.995 105.525, 192.829 73.237, 192.451 47.250 L 191.763 -0 182.882 -0 C 175.886 -0, 174 0.301, 174 1.417 M 1 97 L 1 144 9.607 144 C 17.423 144, 18.145 143.839, 17.466 142.250 C 17.054 141.287, 16.505 139.262, 16.245 137.750 C 15.985 136.238, 15.197 135, 14.493 135 C 11.313 135, 12.449 128.627, 15.820 127.557 C 16.893 127.217, 19.734 127.432, 22.135 128.035 C 24.536 128.638, 28.075 129.495, 30 129.938 C 35.360 131.173, 39.281 132.928, 41.665 135.161 C 43.073 136.480, 44.528 136.967, 45.828 136.555 C 47.293 136.090, 48.986 136.996, 52.163 139.948 C 56.046 143.553, 57.035 143.976, 61.609 143.988 L 66.718 144 67.749 134.250 C 68.316 128.887, 68.554 121.487, 68.277 117.804 L 67.774 111.107 64.803 113.304 C 62.442 115.049, 60.461 115.500, 55.166 115.500 C 48.932 115.500, 42 117.471, 42 119.244 C 42 120.514, 36.653 120.017, 34 118.500 C 32.625 117.714, 30.503 117.055, 29.285 117.035 C 27.329 117.004, 24.204 113.463, 25.229 112.438 C 25.443 112.223, 23.270 109.563, 20.398 106.526 C 12.699 98.385, 10.219 91.046, 9.814 75.214 C 9.613 67.333, 9.087 62.671, 8.347 62.214 C 7.713 61.821, 6.051 58.913, 4.652 55.750 C 3.254 52.587, 1.860 50, 1.555 50 C 1.250 50, 1 71.150, 1 97 M 107.477 56.074 C 106.561 58.960, 108.833 64, 111.050 64 C 113.106 64, 116.017 61.442, 115.967 59.679 C 115.908 57.586, 112.239 54, 110.157 54 C 108.989 54, 107.857 54.876, 107.477 56.074 M 101.169 83.196 C 98.530 83.912, 98.070 84.379, 98.956 85.446 C 100.211 86.959, 103.378 86.455, 105.016 84.481 C 106.544 82.640, 105.056 82.143, 101.169 83.196" stroke="none" fill="black" fill-rule="evenodd"/>
</svg>