<svg xmlns="http://www.w3.org/2000/svg" width="192" height="144" viewBox="0 0 192 144" version="1.1">
	<path d="M 161.021 10.133 C 159.158 11.266, 153.104 15.937, 147.567 20.513 C 142.030 25.089, 133.787 31.300, 129.250 34.314 C 121.607 39.392, 121 39.628, 121 37.520 C 121 34.523, 118.363 32.237, 116.758 33.842 C 116.121 34.479, 115.970 35, 116.422 35 C 116.875 35, 116.731 35.619, 116.104 36.375 C 115.323 37.316, 113.585 37.595, 110.600 37.258 C 105.264 36.657, 100.036 38.268, 97.065 41.431 C 94.618 44.036, 92.963 52, 94.868 52 C 95.491 52, 96 52.675, 96 53.500 C 96 56.813, 93.382 54.674, 91.500 49.823 C 89.023 43.439, 85.478 40.707, 78.784 40.024 C 73.915 39.527, 73.532 39.272, 71.308 35.059 C 67.123 27.128, 62.453 23.786, 54.053 22.708 C 43.968 21.414, 34.299 29.876, 31.998 42.010 C 30.781 48.426, 31.967 53.618, 35.645 57.990 C 39.402 62.455, 43.633 64.379, 51 64.975 L 57.500 65.500 53.785 68.903 C 51.742 70.774, 50.299 72.674, 50.577 73.124 C 50.855 73.575, 50.328 75.095, 49.406 76.503 C 47.339 79.657, 48.295 80.948, 50.931 78.563 C 53.323 76.397, 55.357 77.441, 54.603 80.447 C 54.293 81.680, 54.690 83.532, 55.490 84.588 C 56.285 85.640, 56.971 88.525, 57.012 91 C 57.089 95.550, 58.858 103.480, 60.295 105.717 C 60.726 106.387, 60.774 109.226, 60.402 112.027 C 59.938 115.523, 60.146 117.905, 61.065 119.622 C 62.121 121.594, 62.150 122.530, 61.202 124.048 C 59.674 126.495, 59.678 129.467, 61.215 133.719 C 62.169 136.357, 62.169 137.499, 61.215 139.027 C 59.743 141.384, 59.630 144, 61 144 C 61.550 144, 62 143.325, 62 142.500 C 62 140.408, 64.753 140.616, 65.311 142.750 C 65.653 144.059, 65.797 143.930, 65.884 142.236 C 65.948 140.991, 65.442 139.079, 64.759 137.986 C 63.772 136.405, 63.772 135.595, 64.759 134.014 C 66.247 131.632, 66.405 125.368, 65 124.500 C 63.650 123.666, 63.731 119.669, 65.125 118.275 C 66.428 116.972, 65.442 110, 63.955 110 C 62.561 110, 62.787 106.421, 64.259 105.200 C 65.256 104.373, 77.573 101, 79.597 101 C 79.857 101, 79.580 101.916, 78.981 103.035 C 78.239 104.421, 78.114 110.129, 78.589 120.935 C 79.261 136.216, 79.205 136.933, 77.062 140.400 L 74.837 144 103.271 144 L 131.705 144 136.201 138.250 C 141.785 131.108, 143 128.832, 143 125.516 C 143 121.362, 140.283 117.001, 133.186 109.763 L 126.580 103.027 128.758 91.263 C 129.956 84.793, 131.672 77.039, 132.572 74.031 C 134.081 68.986, 134.315 68.710, 135.596 70.463 C 136.950 72.314, 137.045 72.306, 139.349 70.142 C 145.132 64.709, 150.035 49.157, 147.086 45.603 C 144.956 43.037, 141.052 42.796, 136.589 44.957 C 134.268 46.081, 131.961 47, 131.463 47 C 130.965 47, 133.470 44.055, 137.029 40.456 C 141.632 35.802, 144.043 34.053, 145.382 34.397 C 146.874 34.781, 155.617 31.204, 158 29.234 C 158.275 29.007, 157.222 27.799, 155.660 26.551 C 152.942 24.378, 152.909 24.257, 154.914 23.733 C 156.335 23.361, 156.810 22.670, 156.393 21.581 C 155.992 20.537, 157.428 18.044, 160.507 14.440 C 163.108 11.395, 165.050 8.717, 164.822 8.489 C 164.594 8.261, 162.883 9.001, 161.021 10.133 M 88.300 66.379 C 85.666 70.920, 76.033 73.339, 70.543 70.838 C 67.324 69.371, 66.575 70.136, 66.675 74.786 C 66.808 80.951, 67.756 92.089, 68.184 92.518 C 68.671 93.004, 83.602 88.418, 86.730 86.822 C 88.265 86.038, 89.630 83.560, 91.109 78.874 C 93.159 72.378, 93.181 71.901, 91.582 68.532 C 89.711 64.588, 89.441 64.411, 88.300 66.379 M 62.250 112.662 C 60.508 113.365, 60.684 116.665, 62.500 117.362 C 63.626 117.794, 64 117.197, 64 114.969 C 64 113.336, 63.888 112.036, 63.750 112.079 C 63.612 112.122, 62.938 112.385, 62.250 112.662 M 108.639 119.694 C 107.498 120.835, 108.027 133.453, 109.286 135.105 C 110.284 136.416, 110.555 135.193, 110.763 128.419 C 110.997 120.838, 110.311 118.022, 108.639 119.694 M 123.026 123.422 C 122.336 125.511, 122.218 128.061, 122.720 130 L 123.541 133.167 126.908 128.478 C 130.431 123.573, 130.438 123.619, 125.826 120.972 C 124.456 120.186, 123.947 120.631, 123.026 123.422 M 62 129.333 C 62 130.741, 62.595 131.667, 63.500 131.667 C 64.405 131.667, 65 130.741, 65 129.333 C 65 127.926, 64.405 127, 63.500 127 C 62.595 127, 62 127.926, 62 129.333" stroke="none" fill="black" fill-rule="evenodd"/>
</svg>