<svg xmlns="http://www.w3.org/2000/svg" width="192" height="144" viewBox="0 0 192 144" version="1.1">
	<path d="M 103.595 2.500 C 101.715 4.242, 99.761 5, 97.148 5 C 95.087 5, 92.937 5.463, 92.371 6.029 C 91.665 6.735, 90.423 6.580, 88.421 5.535 C 84.673 3.581, 78.911 3.680, 72.107 5.814 C 64.120 8.321, 63.789 9.500, 68.521 18.588 C 70.710 22.790, 73.287 26.735, 74.250 27.355 C 75.213 27.974, 76 29.216, 76 30.113 C 76 31.011, 76.860 33.715, 77.911 36.123 C 79.505 39.772, 79.671 41.415, 78.910 46 C 78.408 49.025, 78.249 53.300, 78.558 55.500 C 79.058 59.065, 78.577 60.329, 74.139 67.127 C 64.130 82.455, 60.942 90.928, 58.444 108.848 C 56.742 121.053, 56.988 124.084, 59.512 121.990 C 60.602 121.086, 61.354 121.049, 62.324 121.854 C 63.878 123.144, 65.981 121.553, 66.030 119.050 C 66.056 117.762, 66.231 117.792, 67.068 119.228 C 67.791 120.468, 67.630 121.815, 66.497 124.006 C 64.630 127.615, 65.378 133.594, 67.892 135.164 C 69.083 135.908, 69.432 137.264, 69.162 140.095 L 68.790 144 105.735 144 L 142.680 144 143.932 140.207 C 144.620 138.121, 145.051 135.084, 144.888 133.457 C 144.726 131.831, 144.943 128.025, 145.370 125 C 146.113 119.742, 145.925 119.032, 141.095 108.868 C 134.126 94.203, 130.854 84.749, 131.206 80.296 C 131.471 76.944, 131.259 76.576, 129.041 76.540 C 126.813 76.504, 126.426 75.815, 124.921 69.203 C 123.962 64.990, 122.360 60.948, 121.130 59.639 C 119.471 57.873, 119.016 56.169, 119.070 51.936 C 119.124 47.817, 119.363 46.985, 120.057 48.500 C 120.652 49.799, 120.765 47.815, 120.378 42.843 C 119.827 35.760, 119.940 35.102, 121.891 34.058 C 124.624 32.596, 124.568 32.139, 121.018 26.900 C 119.378 24.480, 118.028 22.174, 118.018 21.775 C 118.008 21.376, 119.396 21.329, 121.101 21.670 C 125.315 22.513, 125.966 21.134, 125.985 11.332 C 126.007 -0.420, 126.394 0, 115.539 0 C 107.062 0, 106.068 0.208, 103.595 2.500 M 70.747 88.750 C 69.840 91.362, 68.652 95.300, 68.105 97.500 C 66.986 102.009, 65.608 116.725, 66.378 115.956 C 66.652 115.681, 68.705 110.766, 70.939 105.035 C 73.868 97.519, 75 93.133, 75 89.307 C 75 82.498, 73.007 82.237, 70.747 88.750" stroke="none" fill="black" fill-rule="evenodd"/>
</svg>