<svg xmlns="http://www.w3.org/2000/svg" width="192" height="144" viewBox="0 0 192 144" version="1.1">
	<path d="M -0 72.005 L -0 144.010 96.250 143.755 L 192.500 143.500 192.757 71.750 L 193.013 0 96.507 0 L 0 0 -0 72.005 M 0.474 72.500 C 0.474 112.100, 0.598 128.154, 0.750 108.176 C 0.901 88.198, 0.901 55.798, 0.750 36.176 C 0.598 16.554, 0.474 32.900, 0.474 72.500 M 100.040 52.452 C 98.288 54.563, 99.179 57.451, 101.693 57.811 C 104.513 58.214, 106.719 54.571, 104.947 52.436 C 103.424 50.601, 101.571 50.607, 100.040 52.452 M 115.768 53.610 C 114.756 55.830, 114.849 56.416, 116.387 57.541 C 117.381 58.268, 118.809 58.627, 119.559 58.339 C 121.542 57.578, 122.360 54.139, 120.960 52.452 C 119.133 50.251, 117.091 50.706, 115.768 53.610 M 82.611 53.572 C 81.851 55.551, 83.632 59, 85.413 59 C 87.531 59, 89.228 56.292, 88.515 54.048 C 87.734 51.586, 83.504 51.245, 82.611 53.572 M 67.529 54.614 C 65.715 56.427, 65.700 56.570, 67.035 59.066 C 68.979 62.697, 73.811 60.132, 72.545 56.140 C 71.698 53.472, 69.377 52.766, 67.529 54.614 M 130.200 56.200 C 128.506 57.894, 128.710 60.675, 130.582 61.393 C 133.367 62.462, 134.902 62.052, 136.034 59.936 C 138.008 56.247, 133.219 53.181, 130.200 56.200 M 52.309 58.636 C 51.477 60.805, 53.210 63.426, 55.725 63.803 C 58.012 64.146, 59.359 61.707, 58.455 58.859 C 57.714 56.522, 53.184 56.358, 52.309 58.636 M 141.447 61.059 C 139.235 63.502, 140.406 66.307, 143.852 66.820 C 146.669 67.239, 146.566 68.521, 143.500 71.187 C 140.471 73.821, 140.252 77.529, 143.038 79.020 C 145.988 80.599, 148.973 79.271, 150.606 75.654 C 151.389 73.919, 152.583 71.712, 153.260 70.750 C 154.825 68.523, 153.212 65.636, 150.148 65.180 C 148.901 64.995, 148 64.135, 148 63.130 C 148 61.156, 146.150 59, 144.455 59 C 143.825 59, 142.472 59.926, 141.447 61.059 M 43.750 63.080 C 42.788 63.641, 42 64.768, 42 65.585 C 42 66.402, 41.293 68.149, 40.429 69.468 C 38.636 72.205, 39.726 75.461, 42.758 76.423 C 43.726 76.730, 44.964 77.998, 45.509 79.241 C 46.221 80.864, 47.344 81.500, 49.500 81.500 C 52.113 81.500, 52.539 81.106, 52.799 78.445 C 53.035 76.029, 52.564 75.105, 50.549 74.026 C 47.737 72.521, 47.385 70.957, 49.206 68.042 C 50.199 66.452, 50.083 65.749, 48.551 64.056 C 46.442 61.726, 46.170 61.670, 43.750 63.080 M 127.655 77.829 C 125.245 80.492, 125.626 82.907, 128.635 84.051 C 133.470 85.890, 138.216 80.616, 134.800 77.200 C 133.033 75.433, 129.546 75.740, 127.655 77.829 M 60.155 78.604 C 56.856 80.915, 57.310 84.913, 61.031 86.318 C 64.679 87.695, 66.571 92.601, 64.365 94.965 C 63.167 96.249, 62.627 96.211, 59.999 94.659 C 56.594 92.647, 56.314 93.023, 58.610 96.527 C 60.475 99.375, 59.749 102.501, 57.429 101.611 C 56.245 101.157, 56.367 101.706, 57.937 103.912 C 59.368 105.921, 60 108.360, 60 111.870 C 60 118.986, 63.346 122.570, 73.646 126.485 C 80.945 129.260, 82.454 129.472, 95 129.485 C 102.425 129.493, 109.894 129.168, 111.597 128.763 C 116.410 127.617, 125.270 123.414, 127.661 121.142 C 129.794 119.115, 131.718 113.384, 130.630 112.297 C 130.322 111.989, 130.600 110.784, 131.248 109.619 C 131.895 108.453, 132.351 107.226, 132.260 106.892 C 132.169 106.557, 133.423 105.011, 135.047 103.455 C 138.841 99.820, 138.820 98.525, 135 100.500 C 132.177 101.960, 132 101.940, 132 100.161 C 132 99.121, 132.951 97.060, 134.114 95.582 C 136.836 92.122, 135.878 91.164, 132.418 93.886 C 128.531 96.943, 126.707 96.657, 126.772 93 C 126.777 92.725, 127.105 90.925, 127.502 89 L 128.223 85.500 125.219 88.334 C 120.876 92.431, 117.603 91.753, 117.185 86.668 C 116.959 83.925, 116.482 82.985, 115.508 83.359 C 114.759 83.646, 113.603 83.227, 112.939 82.427 C 112.154 81.481, 110.096 81.031, 107.047 81.139 C 103.030 81.281, 102.129 81.711, 100.727 84.152 C 98.385 88.234, 93.567 88.160, 91.203 84.006 C 89.301 80.664, 88 80.133, 88 82.700 C 88 84.022, 87.733 84.133, 86.800 83.200 C 84.868 81.268, 81.182 81.791, 79.904 84.180 C 78.833 86.180, 78.635 86.221, 77.508 84.680 C 75.686 82.188, 75.154 82.596, 74.810 86.750 C 74.548 89.924, 74.109 90.546, 71.957 90.796 C 70.461 90.971, 68.418 90.230, 66.997 88.997 C 64.906 87.184, 64.750 86.630, 65.838 84.888 C 68.495 80.633, 64.137 75.815, 60.155 78.604 M 83.898 106.282 C 81.252 108.060, 80.433 109.359, 80.197 112.155 C 79.973 114.816, 80.340 115.917, 81.617 116.407 C 82.588 116.779, 83.680 116.518, 84.118 115.809 C 84.717 114.839, 85.945 115.061, 89.475 116.775 C 94.873 119.398, 96.513 119.502, 100.409 117.470 C 102.010 116.636, 104.910 116.076, 106.854 116.227 C 109.741 116.450, 110.617 116.053, 111.630 114.063 C 114.500 108.426, 107.268 104, 95.188 104 C 88.630 104, 86.721 104.386, 83.898 106.282" stroke="none" fill="black" fill-rule="evenodd"/>
</svg>