<svg xmlns="http://www.w3.org/2000/svg" width="192" height="144" viewBox="0 0 192 144" version="1.1">
	<path d="M 137.491 6.229 C 133.409 11.838, 133.023 12.136, 133.604 9.229 C 134.311 5.694, 133.433 5.205, 130.441 7.468 C 129.374 8.276, 127.574 8.951, 126.441 8.968 C 122.333 9.032, 120.501 11.474, 120.488 16.905 C 120.480 20.069, 120.949 22.150, 121.738 22.453 C 124.027 23.331, 123.067 24.710, 117.500 28.544 C 114.475 30.628, 112 32.605, 112 32.939 C 112 34.360, 100.670 35.685, 90.248 35.483 C 79.482 35.274, 78.909 35.153, 76.978 32.699 C 75.868 31.288, 73.958 29.991, 72.734 29.817 C 71.310 29.614, 69.886 28.176, 68.782 25.826 C 66.815 21.640, 64.367 20.521, 59.268 21.478 L 55.710 22.145 58.697 23.962 C 60.340 24.961, 63.072 28.191, 64.768 31.139 C 66.464 34.088, 69.010 37.807, 70.426 39.406 C 71.842 41.004, 73 42.691, 73 43.156 C 73 43.620, 73.822 44, 74.826 44 C 75.830 44, 77.597 45.012, 78.753 46.250 C 80.643 48.273, 80.714 48.752, 79.463 51 C 77.509 54.509, 77.709 61.762, 79.890 66.565 C 81.601 70.331, 81.637 71.325, 80.383 80.065 C 79.639 85.254, 78.724 96.007, 78.350 103.960 C 77.726 117.249, 77.484 118.607, 75.364 120.727 C 73.447 122.644, 72.395 122.927, 69.132 122.405 C 58.841 120.760, 48 130.105, 48 140.622 L 48 144 83 144 C 112.066 144, 118 143.766, 118 142.622 C 118 141.864, 118.741 139.502, 119.647 137.372 L 121.294 133.500 122.602 136.500 C 123.321 138.150, 123.930 140.512, 123.955 141.750 C 123.997 143.833, 124.454 144, 130.108 144 L 136.217 144 135.513 141.250 C 133.608 133.805, 128.997 109.377, 128.978 106.627 C 128.956 103.536, 127.279 99.502, 122.595 91.270 L 120.187 87.040 123.258 79.270 C 125.919 72.536, 126.313 70.328, 126.214 62.703 L 126.100 53.907 129.176 56.495 C 130.868 57.918, 132.754 58.915, 133.367 58.711 C 135.861 57.880, 138.070 51.963, 138.649 44.563 C 139.202 37.501, 139.068 36.701, 136.951 34.447 C 135.686 33.101, 133.976 32, 133.151 32 C 131.999 32, 132.141 31.478, 133.763 29.750 C 134.924 28.512, 138.202 22.550, 141.047 16.500 C 143.893 10.450, 147.102 4.263, 148.178 2.750 L 150.136 0 146.080 0 C 142.257 0, 141.762 0.359, 137.491 6.229" stroke="none" fill="black" fill-rule="evenodd"/>
</svg>