<svg xmlns="http://www.w3.org/2000/svg" width="192" height="144" viewBox="0 0 192 144" version="1.1">
	<path d="M 0 72 L 0 144 87.616 144 L 175.233 144 174.521 137.250 C 172.896 121.855, 167.951 109.505, 159.351 99.368 C 154.924 94.149, 154.003 92.408, 154.015 89.280 C 154.026 86.754, 154.319 85.955, 154.898 86.870 C 156.084 88.741, 157.654 83.463, 158.501 74.761 C 158.862 71.054, 159.575 67.762, 160.087 67.447 C 160.598 67.131, 161.967 69.038, 163.129 71.686 C 165.394 76.849, 166.722 76.275, 165.207 70.787 C 164.501 68.229, 164.632 67.133, 165.775 66.066 C 168.227 63.775, 170.154 65.989, 174.063 75.588 C 176.060 80.490, 180.799 90.800, 184.596 98.500 L 191.500 112.500 192.039 128 C 192.335 136.525, 192.672 111.213, 192.789 71.750 L 193 0 96.500 0 L 0 0 0 72 M 0.474 72.500 C 0.474 112.100, 0.598 128.154, 0.750 108.176 C 0.901 88.198, 0.901 55.798, 0.750 36.176 C 0.598 16.554, 0.474 32.900, 0.474 72.500 M 141.752 55.581 C 141.414 55.919, 141.382 56.832, 141.681 57.611 C 141.979 58.389, 141.668 59.695, 140.989 60.513 C 140.005 61.699, 140.033 62.336, 141.128 63.664 C 143.976 67.119, 148.233 71.046, 147.776 69.799 C 147.514 69.084, 146.487 65.800, 145.493 62.500 C 143.574 56.126, 142.743 54.590, 141.752 55.581 M 148.079 74.583 C 148.127 75.748, 148.364 75.985, 148.683 75.188 C 148.972 74.466, 148.936 73.603, 148.604 73.271 C 148.272 72.939, 148.036 73.529, 148.079 74.583" stroke="none" fill="black" fill-rule="evenodd"/>
</svg>