<svg xmlns="http://www.w3.org/2000/svg" width="192" height="144" viewBox="0 0 192 144" version="1.1">
	<path d="M 69.608 5.881 C 68.347 7.274, 67.900 9.603, 67.883 14.864 C 67.871 18.770, 68.143 22.423, 68.489 22.983 C 68.835 23.542, 70.481 24, 72.148 24 L 75.178 24 72.589 27.077 C 69.526 30.717, 69.258 33.630, 71.909 34.471 C 73.614 35.012, 73.818 36.108, 73.818 44.702 C 73.818 52.755, 73.492 54.768, 71.821 57.029 C 70.722 58.515, 69.300 62.379, 68.662 65.615 C 67.624 70.871, 67.259 71.467, 65.250 71.187 C 62.687 70.831, 62.645 70.937, 63.977 74.439 C 65.142 77.504, 62.057 86.893, 55.753 99.469 C 51.986 106.982, 51.817 107.697, 52.797 111.969 C 53.497 115.024, 53.519 119.365, 52.863 125.296 C 51.587 136.824, 52.003 141.995, 54.317 143.398 C 55.820 144.309, 56.536 144.003, 58.452 141.628 L 60.769 138.757 60.268 141.378 L 59.767 144 88.492 144 L 117.217 144 116.579 141.460 C 116.182 139.876, 116.517 138.099, 117.471 136.738 C 118.409 135.398, 119 132.351, 119 128.849 C 119 125.471, 119.536 122.604, 120.315 121.821 C 123.425 118.695, 123.860 116.689, 122.280 112.743 C 120.871 109.220, 120.884 108.805, 122.444 107.665 C 124.028 106.506, 123.966 105.729, 121.522 96.085 C 118.530 84.283, 114.137 70.739, 113.061 70 C 112.661 69.725, 111.071 66.809, 109.529 63.520 C 107.125 58.395, 106.708 56.206, 106.612 48.198 C 106.519 40.477, 106.804 38.582, 108.250 37.273 C 109.213 36.402, 110 34.410, 110 32.845 C 110 31.280, 110.428 30, 110.951 30 C 112.166 30, 119 17.841, 119 15.680 C 119 11.908, 111.422 10.151, 98.500 10.925 C 94.552 11.162, 88.506 9.695, 86.026 7.900 C 83.665 6.190, 76.520 4.080, 72.905 4.024 C 72.028 4.011, 70.544 4.846, 69.608 5.881 M 74.582 82.250 C 74.332 83.487, 73.895 87.875, 73.611 92 C 73.237 97.444, 73.364 98.840, 74.074 97.092 C 75.241 94.221, 76.565 80, 75.666 80 C 75.321 80, 74.833 81.013, 74.582 82.250" stroke="none" fill="black" fill-rule="evenodd"/>
</svg>