<svg xmlns="http://www.w3.org/2000/svg" width="192" height="144" viewBox="0 0 192 144" version="1.1">
	<path d="M 40.737 5.537 C 43.040 10.232, 44.250 11.465, 48.691 13.637 C 53.902 16.187, 54.290 16.699, 55.469 22.585 C 56.050 25.487, 56.475 25.742, 62.621 26.874 C 80.771 30.219, 81.666 34.589, 64.750 37.281 C 61.037 37.872, 58 38.700, 58 39.120 C 58 39.541, 58.921 41.447, 60.047 43.355 C 62.212 47.025, 61.226 49.262, 58.456 46.964 C 57.215 45.934, 56.998 46.476, 56.986 50.628 C 56.969 56.844, 56.021 60.652, 54.930 58.887 C 54.360 57.965, 53.802 58.340, 52.944 60.223 C 52.288 61.663, 51.216 62.636, 50.562 62.386 C 49.909 62.135, 48.545 62.845, 47.532 63.965 C 46.519 65.084, 45.085 66, 44.345 66 C 43.605 66, 43 66.255, 43 66.566 C 43 67.943, 45.409 71.639, 47.273 73.122 C 49.906 75.217, 48.950 77.815, 44.998 79.307 C 43.349 79.929, 42 81.150, 42 82.019 C 42 84.281, 39.970 86, 37.300 86 C 36.035 86, 35 86.450, 35 87 C 35 87.550, 35.675 88, 36.500 88 C 38.432 88, 38.414 89.443, 36.458 91.399 C 35.610 92.247, 34.438 94.313, 33.853 95.991 C 32.210 100.706, 30.402 101.098, 22.245 98.512 L 15 96.215 15 101.229 L 15 106.243 24.128 114.872 C 29.148 119.617, 34.741 124.282, 36.556 125.237 C 38.372 126.193, 40.125 127.819, 40.453 128.851 C 40.780 129.883, 43.285 132.614, 46.019 134.919 C 48.753 137.224, 51.266 140.210, 51.603 141.555 L 52.217 144 95.684 144 L 139.152 144 144.963 139.529 C 149.857 135.763, 157 127.169, 157 125.048 C 157 124.713, 155.650 123.929, 154 123.306 C 148.443 121.209, 151.458 114.343, 159.500 110.782 C 164.939 108.373, 174 102.826, 174 101.905 C 174 101.407, 173.137 101, 172.082 101 C 168.747 101, 166.973 99.851, 165.335 96.629 C 164.460 94.908, 162.227 92.230, 160.372 90.677 C 158.517 89.125, 157 87.197, 157 86.393 C 157 85.590, 155.425 84.003, 153.500 82.867 C 149.353 80.421, 149.214 79.745, 152.424 77.642 C 153.757 76.768, 155.148 75.108, 155.515 73.953 C 156.293 71.502, 154.059 65.287, 153.010 66.984 C 152.507 67.797, 151.526 67.753, 149.409 66.822 C 147.809 66.117, 146.275 65.274, 146 64.947 C 145.725 64.621, 144.738 64.073, 143.806 63.730 C 142.874 63.387, 141.556 61.169, 140.876 58.803 C 139.328 53.417, 139.362 53.455, 137.513 54.990 C 136.198 56.080, 136.015 55.921, 136.238 53.882 C 136.487 51.617, 136.256 51.517, 131.538 51.854 C 127.082 52.171, 126.347 51.919, 124.316 49.372 L 122.055 46.536 118.937 48.378 C 115.039 50.681, 113.135 49.377, 115.148 45.784 C 118.856 39.167, 121.413 35.986, 125.049 33.466 C 127.242 31.946, 128.830 30.496, 128.578 30.244 C 128.155 29.822, 122.111 32.925, 114.315 37.566 C 109.949 40.165, 109.204 38.827, 111.899 33.228 C 117.996 20.563, 131.639 3, 135.380 3 C 137.495 3, 139.778 6.216, 140.527 10.250 C 140.909 12.313, 141.615 14, 142.094 14 C 142.574 14, 144.099 11.862, 145.484 9.250 C 146.869 6.637, 148.731 3.488, 149.623 2.250 L 151.244 0 94.633 -0 L 38.022 -0 40.737 5.537 M 130.823 11.750 C 128.378 14.386, 118 29.439, 118 30.350 C 118 30.592, 121.236 29.530, 125.192 27.991 C 130.370 25.977, 132.625 24.542, 133.245 22.867 C 133.718 21.588, 134.786 19.789, 135.618 18.870 C 136.860 17.497, 136.933 16.466, 136.027 13.099 C 135.420 10.845, 134.574 9, 134.149 9 C 133.723 9, 132.226 10.238, 130.823 11.750 M 45.183 60.217 C 44.532 60.867, 44.018 62.322, 44.040 63.450 C 44.074 65.193, 44.310 65.075, 45.618 62.662 C 47.291 59.576, 47.069 58.331, 45.183 60.217 M 156.183 116.217 C 154.783 117.617, 154.638 119, 155.893 119 C 156.809 119, 158.318 115.984, 157.707 115.374 C 157.520 115.186, 156.834 115.566, 156.183 116.217" stroke="none" fill="black" fill-rule="evenodd"/>
</svg>