<svg xmlns="http://www.w3.org/2000/svg" width="192" height="144" viewBox="0 0 192 144" version="1.1">
	<path d="M 105.654 16.254 C 106.097 18.982, 105.678 19.957, 103.059 22.290 C 101.341 23.821, 99.677 26.367, 99.360 27.948 C 99.003 29.737, 97.976 31.052, 96.643 31.429 C 94.500 32.035, 94.500 32.035, 96.913 34.060 L 99.327 36.085 97.363 38.715 C 96.283 40.162, 94.522 41.830, 93.450 42.423 C 90.641 43.975, 89.965 45.253, 91.180 46.716 C 92.477 48.279, 95.216 48.384, 96.673 46.927 C 97.437 46.163, 98.382 46.882, 99.955 49.427 C 101.169 51.392, 102.850 53, 103.690 53 C 104.809 53, 105.053 53.651, 104.605 55.439 C 104.268 56.780, 104.455 58.163, 105.021 58.513 C 106.505 59.430, 105.030 69.059, 103.093 71.095 C 101.593 72.673, 86.999 79, 84.860 79 C 84.317 79, 81.365 80.147, 78.302 81.548 C 75.238 82.949, 69.980 85.040, 66.616 86.194 C 59.069 88.783, 56.511 91.223, 54.110 98.123 C 53.081 101.080, 51.435 105.428, 50.454 107.785 C 49.243 110.691, 48.997 112.397, 49.687 113.087 C 50.378 113.778, 52.108 112.022, 55.067 107.626 C 57.466 104.063, 59.717 101.325, 60.068 101.542 C 60.420 101.759, 61.018 105.661, 61.397 110.212 C 61.777 114.764, 62.413 118.813, 62.812 119.212 C 63.210 119.610, 68.212 115.563, 73.926 110.218 C 82.385 102.306, 91.097 96, 93.567 96 C 93.805 96, 94 96.814, 94 97.809 C 94 98.804, 94.661 100.491, 95.468 101.559 C 97.575 104.344, 97.335 107.227, 94.669 111.155 C 90.459 117.359, 88.647 125, 91.386 125 C 92.250 125, 93.015 123.397, 93.416 120.750 C 94.187 115.648, 95.961 112.206, 95.985 115.764 C 95.993 117.009, 96.531 118.877, 97.179 119.915 C 98.123 121.427, 98.023 122.315, 96.679 124.367 C 95.756 125.776, 95 127.395, 95 127.965 C 95 129.595, 97.144 129.174, 98.641 127.250 C 99.806 125.753, 99.909 126.836, 99.358 134.750 L 98.713 144 122.642 144 L 146.571 144 148.443 130.163 C 150.577 114.376, 150.249 108.910, 146.366 95.612 C 144.072 87.757, 143.915 86.288, 145.010 82.969 C 146.346 78.922, 145.802 77, 143.320 77 C 141.945 77, 141.846 75.356, 142.484 63.250 C 142.883 55.688, 143.377 49.323, 143.581 49.107 C 143.785 48.892, 144.597 49.251, 145.387 49.906 C 146.499 50.829, 146.991 50.824, 147.571 49.885 C 148.025 49.151, 147.228 47.733, 145.552 46.291 C 144.029 44.981, 142.796 42.917, 142.812 41.705 C 142.828 40.492, 142.948 37.354, 143.079 34.730 C 143.278 30.752, 142.827 29.340, 140.365 26.230 C 138.738 24.174, 134.760 21.165, 131.501 19.525 C 126.487 17.003, 124.412 16.547, 117.846 16.525 C 111.326 16.504, 110.031 16.224, 109.645 14.750 C 109.393 13.787, 108.273 13, 107.156 13 C 105.423 13, 105.203 13.477, 105.654 16.254" stroke="none" fill="black" fill-rule="evenodd"/>
</svg>