<svg xmlns="http://www.w3.org/2000/svg" width="192" height="144" viewBox="0 0 192 144" version="1.1">
	<path d="M 63.364 5.750 C 64.139 12.908, 62.071 23.127, 58.171 31.412 C 50.413 47.892, 32.067 59.374, 13.500 59.368 C 9.100 59.366, 4.263 59.049, 2.750 58.663 L 0 57.962 0 100.981 L 0 144 55.893 144 C 116.446 144, 113 144.310, 113 138.862 C 113 136.618, 117.042 128.284, 122.327 119.633 C 126.188 113.312, 132 100.091, 132 97.629 C 132 96.798, 132.338 95.909, 132.750 95.654 C 134.033 94.860, 133.611 87.503, 132.282 87.501 C 129.991 87.499, 127.132 84.211, 127.662 82.186 C 127.944 81.108, 127.732 79.953, 127.192 79.619 C 125.834 78.779, 127.331 72.710, 130.519 66.129 C 131.950 63.175, 132.904 60.193, 132.639 59.502 C 132.374 58.811, 132.575 56.386, 133.086 54.112 C 133.597 51.838, 134.220 48.374, 134.471 46.415 C 134.722 44.455, 135.619 41.466, 136.464 39.772 C 137.309 38.079, 138 35.903, 138 34.937 C 138 31.427, 156.742 29.881, 160.589 33.074 C 162.561 34.711, 162.346 37.377, 160.077 39.431 C 158.629 40.741, 158.289 42.007, 158.702 44.553 C 159.193 47.576, 158.757 48.414, 154.587 52.467 C 152.022 54.960, 149.491 57, 148.962 57 C 148.433 57, 148 57.450, 148 58 C 148 58.550, 148.875 59, 149.944 59 C 152.959 59, 156.451 62.962, 158.757 69 C 160.866 74.521, 161.454 80, 159.938 80 C 159.491 80, 159.370 81.505, 159.668 83.344 C 160.119 86.123, 159.762 87.042, 157.559 88.775 L 154.908 90.860 157.353 95.680 C 158.818 98.569, 160.251 103.906, 160.927 109 C 161.548 113.675, 163.281 123.474, 164.778 130.776 L 167.500 144.052 180 143.776 L 192.500 143.500 192.825 129 C 193.003 121.025, 192.837 88.737, 192.455 57.250 L 191.761 0 127.251 -0 L 62.742 -0 63.364 5.750 M 0.459 101 C 0.459 124.925, 0.589 134.713, 0.749 122.750 C 0.908 110.788, 0.908 91.213, 0.749 79.250 C 0.589 67.288, 0.459 77.075, 0.459 101" stroke="none" fill="black" fill-rule="evenodd"/>
</svg>