<svg xmlns="http://www.w3.org/2000/svg" width="192" height="144" viewBox="0 0 192 144" version="1.1">
	<path d="M 68.321 1.420 C 65.142 5.043, 66.222 6.365, 76.382 11.285 C 86.267 16.072, 88.352 18.020, 81.594 16.154 C 79.617 15.608, 78 15.532, 78 15.985 C 78 16.439, 76.200 16.568, 74 16.273 C 71.800 15.978, 70 15.974, 70 16.264 C 70 16.554, 74.908 20.454, 80.906 24.930 C 93.266 34.154, 96.935 37.773, 89.567 33.474 C 85.802 31.277, 84.527 30.920, 84.178 31.965 C 83.867 32.898, 82.862 32.281, 81.024 30.030 C 79.541 28.212, 77.770 26.910, 77.089 27.137 C 76.319 27.394, 77.481 29.429, 80.167 32.525 C 82.541 35.261, 83.699 36.882, 82.741 36.128 C 80.599 34.439, 80.566 35.237, 82.479 42.581 C 83.292 45.704, 83.735 48.620, 83.463 49.060 C 83.190 49.501, 83.386 50.120, 83.897 50.436 C 84.925 51.072, 85.881 56.214, 86.193 62.792 C 86.304 65.152, 86.873 67.480, 87.457 67.964 C 90.241 70.275, 109.508 73.125, 113 71.742 C 116.195 70.478, 126.661 69.212, 129.476 69.751 C 132.174 70.266, 135.885 73.411, 135.967 75.250 C 135.985 75.662, 135.213 76.007, 134.250 76.015 C 133.287 76.024, 128.900 76.920, 124.500 78.008 C 120.100 79.095, 115.381 80.249, 114.014 80.571 C 110.641 81.366, 112.162 82.091, 124.404 85.528 L 134.307 88.308 143.904 86.575 C 163.573 83.023, 171.765 82.035, 181.710 82.018 L 191.919 82 192.322 89.750 C 192.543 94.013, 192.561 92.142, 192.362 85.593 C 192.163 79.044, 192 57.107, 192 36.843 L 192 0 130.750 0.038 C 80.758 0.069, 69.283 0.323, 68.321 1.420 M 70 12.893 C 70 13.828, 72.376 15, 74.273 15 C 74.883 15, 74.509 14.339, 73.441 13.532 C 71.204 11.840, 70 11.616, 70 12.893 M 46.405 29.854 C 47.453 31.034, 48.732 32, 49.247 32 C 49.763 32, 51.329 32.900, 52.727 34 C 55.585 36.248, 58.188 36.654, 57.452 34.737 C 57.186 34.042, 54.612 32.354, 51.734 30.987 C 44.359 27.483, 44.287 27.467, 46.405 29.854 M 47.596 36.210 C 49.204 38.930, 55.277 46, 56.004 46 C 56.423 46, 56.993 45.212, 57.270 44.250 C 57.547 43.288, 58.098 41.710, 58.496 40.745 C 59.056 39.383, 58.465 38.684, 55.859 37.628 C 50.167 35.321, 46.720 34.729, 47.596 36.210 M 46.004 48.250 C 46.010 50.489, 49.931 56, 51.517 56 C 54.625 56, 54.434 52.777, 51.151 49.844 C 47.731 46.788, 45.998 46.251, 46.004 48.250 M 4.523 78.406 C 0.975 82.737, 0.918 82.948, 1.206 90.650 L 1.500 98.487 7.661 92.994 C 11.050 89.972, 13.863 86.993, 13.911 86.372 C 13.960 85.752, 14.674 84.686, 15.497 84.002 C 16.792 82.928, 16.522 82.273, 13.497 79.159 C 11.574 77.179, 10 75.208, 10 74.779 C 10 72.910, 7.872 74.319, 4.523 78.406 M 83.929 82.731 C 87.510 85.338, 98.832 90, 103.999 90.994 C 112.281 92.587, 117 93.031, 117 92.217 C 117 90.877, 104.898 85.158, 98.708 83.572 C 95.523 82.756, 90.348 81.834, 87.208 81.525 C 81.552 80.967, 81.522 80.978, 83.929 82.731 M 107.120 140 L 104.872 144 118.686 143.980 L 132.500 143.961 124.442 141.118 C 120.010 139.555, 115.427 137.764, 114.257 137.138 C 110.776 135.274, 109.485 135.792, 107.120 140 M 0 142.500 C 0 143.681, 1.327 143.984, 6.250 143.924 L 12.500 143.848 9 142.500 C 4.136 140.627, 0 140.627, 0 142.500" stroke="none" fill="black" fill-rule="evenodd"/>
</svg>