<svg xmlns="http://www.w3.org/2000/svg" width="192" height="144" viewBox="0 0 192 144" version="1.1">
	<path d="M 0 72 L 0 144 39.955 144 L 79.909 144 80.392 140.750 C 80.657 138.963, 81.326 134.430, 81.878 130.678 C 82.430 126.926, 82.689 123.326, 82.453 122.678 C 82.218 122.030, 81.839 114.750, 81.612 106.500 C 81.385 98.250, 81.138 91.275, 81.064 91 C 80.989 90.725, 79.932 91.674, 78.714 93.109 C 75.070 97.402, 73.322 97.899, 67.098 96.410 C 64.019 95.674, 59.643 95.055, 57.372 95.036 C 54.961 95.015, 52.727 94.376, 52 93.500 C 51.315 92.674, 49.124 91.997, 47.128 91.993 C 45.132 91.989, 40.500 91.702, 36.834 91.356 C 31.646 90.866, 30.289 90.411, 30.713 89.306 C 31.013 88.524, 31.861 88.116, 32.597 88.399 C 33.333 88.681, 34.149 88.567, 34.410 88.145 C 34.671 87.723, 36.261 87.473, 37.942 87.589 C 39.624 87.706, 41 87.396, 41 86.900 C 41 86.405, 39.838 86, 38.417 86 C 36.794 86, 35.988 85.535, 36.250 84.750 C 36.820 83.042, 57.388 82.863, 61.500 84.530 C 63.150 85.199, 66.103 86.033, 68.062 86.383 C 71.589 87.014, 71.645 86.969, 73.812 81.741 C 75.015 78.837, 76 75.684, 76 74.734 C 76 73.783, 77.581 71.256, 79.513 69.118 C 81.780 66.608, 82.804 64.653, 82.401 63.602 C 81.983 62.514, 82.974 60.878, 85.388 58.666 C 89.271 55.110, 90.084 52.904, 87.239 53.648 C 84.969 54.241, 79.500 48.608, 79.500 45.677 C 79.500 44.174, 78.796 43.400, 77.225 43.177 C 75.974 43, 74.215 41.731, 73.315 40.358 C 71.797 38.042, 71.802 37.470, 73.378 32.471 C 74.500 28.911, 76.037 26.398, 77.905 25.068 C 80.077 23.521, 80.621 22.468, 80.250 20.527 C 79.805 18.201, 80.055 18, 83.383 18 C 85.879 18, 87 17.550, 87 16.547 C 87 14.134, 89.229 10.024, 90.209 10.629 C 90.713 10.941, 91.917 10.480, 92.883 9.606 C 94.506 8.138, 94.838 8.226, 97.206 10.758 C 100.174 13.930, 103 19.178, 103 21.517 C 103 22.406, 104.116 24.597, 105.480 26.385 C 109.009 31.011, 110.710 36.496, 112.586 49.289 C 113.489 55.445, 115.457 63.861, 116.959 67.991 C 120.997 79.095, 122.553 87.491, 121.144 90.583 C 120.515 91.964, 120 94.800, 120 96.886 C 120 100.142, 117.983 108.063, 113.942 120.674 C 113.383 122.419, 112.649 128.387, 112.311 133.935 L 111.696 144.023 152.098 143.761 L 192.500 143.500 192.757 71.750 L 193.013 0 96.507 0 L 0 0 0 72 M 0.474 72.500 C 0.474 112.100, 0.598 128.154, 0.750 108.176 C 0.901 88.198, 0.901 55.798, 0.750 36.176 C 0.598 16.554, 0.474 32.900, 0.474 72.500" stroke="none" fill="black" fill-rule="evenodd"/>
</svg>