<svg xmlns="http://www.w3.org/2000/svg" width="192" height="144" viewBox="0 0 192 144" version="1.1">
	<path d="M 81 1.066 C 81 1.652, 82.165 6.641, 83.588 12.153 C 85.586 19.890, 86.033 23.466, 85.547 27.838 C 85.129 31.611, 85.433 35.435, 86.459 39.299 C 87.307 42.488, 88 45.457, 88 45.897 C 88 46.337, 86.291 47.368, 84.202 48.189 C 82.113 49.009, 76.699 52.768, 72.170 56.542 C 64.248 63.143, 63.855 63.671, 61.824 70.452 C 60.662 74.328, 58.636 79.654, 57.320 82.287 C 56.005 84.921, 55.198 87.511, 55.527 88.044 C 56.506 89.628, 52.082 94.942, 49.184 95.663 C 47.708 96.031, 46 97.009, 45.388 97.837 C 44.024 99.684, 44.759 103, 46.533 103 C 47.248 103, 48.017 103.550, 48.241 104.223 C 48.761 105.784, 55.720 100.367, 59.413 95.525 C 60.892 93.586, 62.924 92, 63.928 92 C 66.259 92, 67.564 90.317, 68.316 86.342 C 68.644 84.606, 70.170 79.945, 71.707 75.986 C 74.286 69.337, 74.873 68.597, 79.383 66.309 C 82.068 64.947, 86.343 61.913, 88.883 59.568 C 94.647 54.245, 99.927 52.179, 101.672 54.565 C 103.161 56.603, 102.402 58.738, 99.908 59.529 C 98.099 60.103, 97.362 63.519, 97.820 69.194 C 97.895 70.126, 96.857 71.754, 95.512 72.812 C 87.253 79.308, 81.519 91.696, 85.314 94.846 C 86.575 95.892, 87.767 95.645, 92.140 93.429 C 99.931 89.481, 109.208 89.093, 115.112 92.467 C 122.771 96.846, 135.748 95.435, 139.342 89.834 C 140.165 88.550, 141.148 84.800, 141.526 81.500 C 141.903 78.200, 143.258 73.588, 144.536 71.250 C 147.503 65.822, 146.029 65.756, 139 71 C 136.051 73.200, 133.307 75, 132.901 75 C 131.816 75, 128 68.525, 128 66.685 C 128 65.816, 130.252 62.130, 133.005 58.493 C 139.729 49.610, 141.308 46.490, 139.724 45.223 C 136.768 42.860, 134.081 42.924, 130.078 45.451 C 127.857 46.853, 125.806 48, 125.520 48 C 125.234 48, 125 46.374, 125 44.386 C 125 41.816, 126.358 38.593, 129.703 33.227 C 132.377 28.936, 135.152 22.839, 136.136 19.091 C 137.088 15.466, 138.553 10.700, 139.390 8.500 C 140.227 6.300, 140.932 3.488, 140.956 2.250 C 140.998 0.114, 140.623 0, 133.530 0 C 126.389 0, 125.962 0.132, 123.842 3 C 121.020 6.817, 119.887 6.817, 120.650 3 L 121.250 0 101.125 0 C 87.547 0, 81 0.347, 81 1.066 M 106.043 7.176 C 105.224 8.867, 105.030 10.893, 105.517 12.676 C 106.286 15.492, 106.291 15.489, 107.175 11.528 C 108.379 6.130, 107.740 3.674, 106.043 7.176" stroke="none" fill="black" fill-rule="evenodd"/>
</svg>