<svg xmlns="http://www.w3.org/2000/svg" width="192" height="144" viewBox="0 0 192 144" version="1.1">
	<path d="M 47.750 32.250 C 47.612 49.988, 47.587 70.125, 47.693 77 C 47.800 83.875, 47.912 101.762, 47.943 116.750 L 48 144 119.878 144 L 191.757 144 192.165 106.518 C 192.390 85.903, 192.390 53.503, 192.165 34.518 L 191.757 -0 119.879 -0 L 48 0 47.750 32.250 M 109.790 43.319 C 108.413 44.595, 107.072 46.282, 106.809 47.069 C 106.473 48.075, 104.813 48.479, 101.217 48.428 C 98.404 48.388, 96.331 48.726, 96.610 49.178 C 96.889 49.630, 96.385 50, 95.489 50 C 94.373 50, 93.961 50.707, 94.180 52.250 C 94.544 54.811, 101.165 58.539, 107.229 59.598 C 109.280 59.956, 111.755 60.841, 112.729 61.564 C 114.220 62.671, 114.303 63.202, 113.250 64.926 C 112.563 66.052, 111.996 68.666, 111.991 70.736 C 111.981 74.455, 107.733 83.317, 104.788 85.761 C 103.368 86.939, 91.038 86.329, 69.525 84.016 C 64.588 83.485, 60.186 83.414, 59.742 83.858 C 58.035 85.565, 60.286 87.873, 64.325 88.555 C 66.748 88.964, 69.078 90.093, 69.889 91.251 C 71.138 93.036, 71.379 93.074, 72.192 91.622 C 72.691 90.730, 73.871 90, 74.814 90 C 77.192 90, 83.948 93.686, 87.240 96.779 C 90.381 99.732, 92.260 99.050, 89.472 95.969 C 88.455 94.846, 87.555 92.994, 87.471 91.855 C 87.322 89.838, 87.602 89.802, 97.909 90.497 C 103.734 90.890, 108.856 91.427, 109.291 91.690 C 109.726 91.953, 109.828 92.967, 109.518 93.943 C 108.652 96.673, 110.872 97.732, 118.436 98.195 C 122.571 98.447, 125.533 99.100, 125.770 99.809 C 125.988 100.464, 126.922 101, 127.846 101 C 128.770 101, 129.970 102.010, 130.513 103.244 C 131.056 104.478, 132.345 105.648, 133.378 105.842 C 134.942 106.137, 135.184 105.704, 134.824 103.252 C 134.429 100.563, 134.809 100.117, 139.231 98.088 C 143.189 96.273, 144.657 96.051, 147.285 96.871 C 149.053 97.422, 153.457 98.310, 157.071 98.843 C 160.685 99.376, 165.185 100.752, 167.071 101.902 C 171.331 104.499, 174.196 104.647, 173.794 102.250 C 173.571 100.920, 174.529 100.272, 177.781 99.552 C 180.386 98.974, 181.884 98.141, 181.609 97.423 C 181.360 96.775, 181.537 95.851, 182.001 95.372 C 183.592 93.730, 181.817 88.956, 179.091 87.547 C 177.627 86.790, 175.816 85.025, 175.067 83.624 C 174.044 81.714, 172.617 80.915, 169.352 80.426 C 165.315 79.820, 157.964 80.393, 153.680 81.647 C 152.416 82.017, 151.693 81.541, 151.313 80.090 C 150.854 78.335, 149.995 78, 145.948 78 C 138.052 78, 136.251 76.854, 135.418 71.301 C 134.570 65.647, 134.663 65.393, 137.403 65.848 C 138.556 66.039, 139.184 65.873, 138.798 65.479 C 138.411 65.084, 138.770 64.087, 139.595 63.262 C 140.928 61.929, 140.906 61.553, 139.392 59.881 C 138.456 58.847, 137.163 58, 136.519 58 C 135.875 58, 134.287 56.870, 132.989 55.489 C 131.692 54.108, 128.801 52.486, 126.565 51.885 C 122.789 50.871, 121.053 49.577, 121.015 47.750 C 120.988 46.412, 124.295 46.957, 126.097 48.588 C 127.062 49.461, 128.672 50.014, 129.676 49.818 C 131.084 49.542, 130.283 48.497, 126.160 45.230 C 119.671 40.090, 113.990 39.426, 109.790 43.319 M 1.042 70.250 C 1.019 76.162, 1.248 81, 1.551 81 C 2.731 81, 4.998 73.870, 4.958 70.282 C 4.935 68.202, 4.054 64.925, 3 63 L 1.084 59.500 1.042 70.250 M 126 67.435 C 126 67.674, 126.476 69.121, 127.057 70.651 C 127.904 72.878, 128.300 73.140, 129.042 71.966 C 130.654 69.418, 130.146 67, 128 67 C 126.900 67, 126 67.196, 126 67.435 M 115.306 77.750 C 114.959 78.713, 113.799 80.763, 112.728 82.308 C 109.940 86.329, 111.072 86.517, 115.407 82.750 C 118.100 80.410, 118.957 79.010, 118.467 77.750 C 118.092 76.787, 117.370 76, 116.862 76 C 116.353 76, 115.653 76.787, 115.306 77.750 M 137 80.987 C 137 81.816, 139.435 83, 141.141 83 C 141.678 83, 141.873 82.604, 141.575 82.121 C 140.841 80.934, 137 79.982, 137 80.987" stroke="none" fill="black" fill-rule="evenodd"/>
</svg>