<svg xmlns="http://www.w3.org/2000/svg" width="192" height="144" viewBox="0 0 192 144" version="1.1">
	<path d="M -0 72.005 L -0 144.010 96.250 143.755 L 192.500 143.500 192.637 71.500 C 192.713 31.900, 192.563 0.312, 192.304 1.304 C 191.883 2.913, 190.898 3.058, 183.166 2.653 C 178.400 2.403, 173.233 1.704, 171.685 1.099 C 169.718 0.331, 143.434 0, 84.435 0 L 0 0 -0 72.005 M 0.474 72.500 C 0.474 112.100, 0.598 128.154, 0.750 108.176 C 0.901 88.198, 0.901 55.798, 0.750 36.176 C 0.598 16.554, 0.474 32.900, 0.474 72.500 M 185.201 47.487 C 181.517 49.202, 179.993 50.460, 180.201 51.614 C 180.423 52.846, 177.904 54.462, 170.428 57.887 C 164.888 60.424, 158.797 63.441, 156.891 64.590 L 153.427 66.680 148.464 63.321 C 145.734 61.474, 140.125 58.658, 136 57.064 C 131.875 55.469, 125.138 52.553, 121.028 50.582 C 110.022 45.305, 106.685 45.568, 95.447 52.593 C 84.460 59.462, 82.666 61.093, 78.943 67.600 C 76.073 72.615, 74.796 81, 76.901 81 C 77.397 81, 78.842 82.688, 80.113 84.750 L 82.424 88.500 83.027 84.500 C 83.612 80.629, 83.665 80.580, 84.701 83 C 85.849 85.683, 88.570 88.371, 91 89.221 C 91.936 89.549, 92.979 92.276, 93.774 96.472 C 94.871 102.264, 94.835 103.624, 93.519 106.261 C 92.679 107.946, 92.200 109.533, 92.454 109.787 C 94.129 111.462, 109 110.263, 109 108.453 C 109 108.238, 108.073 106.283, 106.940 104.110 C 105.104 100.586, 104.951 99.069, 105.529 90.079 L 106.176 80 102.338 79.884 C 100.174 79.819, 99.372 79.554, 100.500 79.276 C 103.627 78.508, 104.559 77.394, 107.866 70.471 C 109.566 66.912, 111.479 64, 112.117 64 C 112.755 64, 118.359 68.922, 124.569 74.938 C 130.779 80.954, 137.265 86.603, 138.983 87.491 C 146.508 91.383, 154.744 90.585, 176.345 83.871 C 188.586 80.067, 189.256 79.964, 190.564 81.689 C 191.743 83.245, 191.941 80.785, 191.968 64.250 C 191.986 53.662, 191.662 45.004, 191.250 45.010 C 190.838 45.015, 188.115 46.130, 185.201 47.487 M 96.715 65.709 C 96.466 66.144, 95.958 68.188, 95.586 70.250 C 94.898 74.063, 95.301 74.512, 99 74.049 C 101.290 73.763, 103.084 70.847, 102.380 68.552 C 101.620 66.071, 101.941 66.384, 99.334 65.584 C 98.143 65.218, 96.965 65.274, 96.715 65.709 M 88.485 75.024 C 87.907 75.959, 88.388 79.797, 89.642 84.250 C 90.380 86.872, 92 86.357, 92 83.500 C 92 81.692, 92.537 81, 93.941 81 C 97.149 81, 97.175 79.315, 93.987 77.995 C 92.344 77.314, 91 76.137, 91 75.379 C 91 73.767, 89.401 73.542, 88.485 75.024" stroke="none" fill="black" fill-rule="evenodd"/>
</svg>