<svg xmlns="http://www.w3.org/2000/svg" width="192" height="144" viewBox="0 0 192 144" version="1.1">
	<path d="M 0 72 L 0 144 31.250 143.966 L 62.500 143.933 58.750 140.869 C 56.688 139.185, 55 137.253, 55 136.577 C 55 135.902, 53.875 134.292, 52.500 133 C 51.125 131.708, 50 130.025, 50 129.259 C 50 128.493, 48.875 126.392, 47.500 124.589 C 46.125 122.786, 45 120.732, 45 120.024 C 45 119.315, 44.049 117.197, 42.886 115.315 C 41.723 113.434, 41.032 111.634, 41.351 111.316 C 41.669 110.998, 41.422 109.788, 40.801 108.628 C 38.511 104.349, 36.066 88.387, 36.033 77.500 C 36.003 67.366, 37.530 55.885, 39.891 48.500 C 41.945 42.076, 45.006 34.594, 45.979 33.621 C 46.541 33.059, 47 31.967, 47 31.194 C 47 30.421, 48.125 28.452, 49.500 26.818 C 50.875 25.184, 52 23.244, 52 22.508 C 52 21.772, 54.129 19.296, 56.731 17.006 L 61.462 12.841 64.981 16.703 C 68.097 20.123, 85.409 41.033, 101.023 60.237 C 106.865 67.423, 108.743 68.213, 113.800 65.610 C 115.766 64.598, 121.258 64.182, 134 64.078 C 143.625 64, 158.929 63.286, 168.008 62.491 C 177.088 61.697, 186.200 61.321, 188.258 61.654 L 192 62.262 192 72.743 L 192 83.224 163.657 82.497 L 135.315 81.770 129.065 86.135 C 125.627 88.536, 121.619 91.255, 120.157 92.177 C 116.736 94.336, 110.417 94.530, 109.638 92.500 C 109.322 91.675, 107.966 91, 106.626 91 C 104.583 91, 101.181 95.201, 85.594 116.975 C 75.367 131.261, 67 143.186, 67 143.475 C 67 143.764, 91.445 144, 121.322 144 L 175.645 144 178.322 139.910 C 179.795 137.661, 181 135.448, 181 134.994 C 181 134.539, 181.337 134.017, 181.750 133.833 C 182.162 133.650, 184.525 131.050, 187 128.055 L 191.500 122.611 192.054 133.055 C 192.359 138.800, 192.697 111.213, 192.804 71.750 L 193 0 96.500 0 L 0 0 0 72 M 0.474 72.500 C 0.474 112.100, 0.598 128.154, 0.750 108.176 C 0.901 88.198, 0.901 55.798, 0.750 36.176 C 0.598 16.554, 0.474 32.900, 0.474 72.500" stroke="none" fill="black" fill-rule="evenodd"/>
</svg>