<svg xmlns="http://www.w3.org/2000/svg" width="192" height="144" viewBox="0 0 192 144" version="1.1">
	<path d="M 0 72 L 0 144 93.637 144 L 187.274 144 182.773 139.188 C 173.980 129.788, 174.339 126.194, 183.191 135 C 185.955 137.750, 189.035 140, 190.035 140 C 191.035 140, 192.059 140.788, 192.311 141.750 C 192.562 142.713, 192.820 111.213, 192.884 71.750 L 193 0 96.500 0 L 0 0 0 72 M 0.474 72.500 C 0.474 112.100, 0.598 128.154, 0.750 108.176 C 0.901 88.198, 0.901 55.798, 0.750 36.176 C 0.598 16.554, 0.474 32.900, 0.474 72.500 M 61.750 31.131 C 58.481 33.801, 58 34.742, 58 38.461 C 58 40.807, 58.465 45.151, 59.033 48.114 C 59.602 51.076, 60.322 55.072, 60.634 56.993 C 61.362 61.480, 65.973 69.427, 67.160 68.240 C 67.651 67.749, 69.117 64.413, 70.418 60.826 C 72.902 53.976, 76.309 48.047, 79.962 44.217 L 82.140 41.933 76.942 35.934 C 69.105 26.887, 67.547 26.394, 61.750 31.131" stroke="none" fill="black" fill-rule="evenodd"/>
</svg>