<svg xmlns="http://www.w3.org/2000/svg" width="192" height="144" viewBox="0 0 192 144" version="1.1">
	<path d="M 60.839 28.494 C 60.555 28.778, 58.338 29.140, 55.911 29.299 C 51.512 29.586, 51.497 29.601, 50.585 34.282 C 49.832 38.143, 49.965 39.304, 51.335 40.817 C 52.251 41.829, 53 43.003, 53 43.424 C 53 43.846, 53.976 45.561, 55.168 47.236 C 57.177 50.058, 57.213 50.371, 55.651 51.513 C 54.724 52.191, 54.224 53.420, 54.540 54.244 C 54.856 55.068, 54.480 55.986, 53.704 56.283 C 52.928 56.581, 51.084 58.887, 49.608 61.406 C 47.452 65.085, 47.135 66.383, 47.997 67.994 C 48.587 69.097, 49.552 70, 50.140 70 C 52.212 70, 50.197 79.088, 46.149 88 C 45.275 89.925, 44.495 93.300, 44.417 95.500 C 44.296 98.932, 40.846 131.052, 39.558 140.750 L 39.126 144 58.142 144 L 77.159 144 76.644 141.250 C 75.890 137.228, 75.145 130.843, 74.047 119 C 73.511 113.225, 72.127 104.900, 70.971 100.500 C 67.807 88.458, 67.718 86.592, 70.116 82.527 C 71.695 79.852, 72.059 78.111, 71.541 75.717 C 71.158 73.948, 70.650 70.025, 70.411 67 C 70.172 63.975, 69.274 59.373, 68.416 56.772 C 66.739 51.696, 67.101 50, 69.859 50 C 72.579 50, 74 47.925, 74 43.954 C 74 39.531, 72.021 35.332, 68.288 31.836 C 65.471 29.197, 61.788 27.545, 60.839 28.494 M 128.821 130.040 C 127.574 130.768, 127.143 132.424, 127.143 136.490 C 127.143 139.498, 126.859 142.419, 126.512 142.980 C 126.099 143.649, 129.501 144, 136.390 144 L 146.898 144 145.426 140.477 C 144.338 137.872, 144.230 136.439, 145.012 134.977 C 145.758 133.583, 145.755 132.410, 145 131 C 144.090 129.299, 142.924 129.005, 137.215 129.030 C 133.522 129.047, 129.745 129.502, 128.821 130.040" stroke="none" fill="black" fill-rule="evenodd"/>
</svg>