<svg xmlns="http://www.w3.org/2000/svg" width="192" height="144" viewBox="0 0 192 144" version="1.1">
	<path d="M -0 72.005 L -0 144.010 96.250 143.755 L 192.500 143.500 192.757 71.750 L 193.013 0 96.507 0 L 0 0 -0 72.005 M 0.474 72.500 C 0.474 112.100, 0.598 128.154, 0.750 108.176 C 0.901 88.198, 0.901 55.798, 0.750 36.176 C 0.598 16.554, 0.474 32.900, 0.474 72.500 M 131.480 28.453 C 127.750 32.407, 124.114 33.666, 121.093 32.050 C 119.644 31.274, 119 31.258, 119 31.996 C 119 32.583, 119.675 33.322, 120.500 33.638 C 122.896 34.558, 122.235 36, 119.417 36 C 115.625 36, 116.955 38.398, 121.081 39 C 122.964 39.275, 125.629 40.308, 127.003 41.296 C 129.287 42.940, 129.351 43.178, 127.750 44.096 C 125.640 45.306, 125.450 48.592, 127.426 49.700 C 128.210 50.140, 128.997 52.300, 129.176 54.500 C 129.459 57.999, 129.782 58.461, 131.750 58.187 C 133.278 57.975, 134 58.389, 134 59.477 C 134 61.689, 130.636 68.010, 127.940 70.866 C 125.545 73.403, 124.740 73.419, 103.250 71.365 C 99.189 70.976, 97 71.133, 97 71.812 C 97 73.335, 99.910 76, 101.571 76 C 102.357 76, 103 76.506, 103 77.125 C 103 77.825, 104.062 78.038, 105.811 77.688 C 107.748 77.300, 109.970 77.891, 112.954 79.586 C 115.337 80.940, 117.560 81.750, 117.893 81.386 C 118.227 81.023, 117.938 80.525, 117.250 80.280 C 116.563 80.034, 116 79.196, 116 78.417 C 116 77.354, 117.481 77, 121.930 77 C 127.319 77, 127.890 77.206, 128.180 79.250 C 128.481 81.364, 128.898 81.479, 135.065 81.159 L 141.629 80.818 142.855 84.909 C 143.529 87.159, 144.464 89, 144.933 89 C 146.033 89, 147.164 86.074, 146.487 84.979 C 146.201 84.516, 146.425 83.856, 146.984 83.510 C 147.588 83.136, 148 84.134, 148 85.972 C 148 89.264, 150.336 91.064, 152.195 89.205 C 152.779 88.621, 153.216 86.107, 153.166 83.617 C 153.067 78.687, 153.048 78.692, 159.540 81.554 C 161.212 82.291, 165.708 83.394, 169.531 84.005 C 173.355 84.616, 179.147 86.192, 182.403 87.507 C 191.618 91.229, 192 90.731, 192 74.984 L 192 62.038 189.453 61.399 C 186.575 60.677, 181.726 61.284, 171.403 63.660 C 166.834 64.712, 163.272 65.006, 161.403 64.487 C 158.974 63.812, 158.826 63.609, 160.500 63.243 C 164.137 62.448, 164.201 61.260, 160.643 60.593 C 157.286 59.963, 157.160 59.786, 157.699 56.467 C 158.209 53.324, 158.040 53, 155.881 53.004 C 154.571 53.006, 151.987 53.930, 150.137 55.058 C 148.288 56.185, 146.661 56.971, 146.523 56.804 C 145.683 55.790, 144 51.963, 144 51.066 C 144 49.690, 147.681 49.676, 148.530 51.049 C 148.965 51.753, 149.691 51.671, 150.743 50.799 C 151.603 50.084, 152.463 49.612, 152.654 49.750 C 152.844 49.888, 153.633 50, 154.406 50 C 156.718 50, 155.028 45.988, 151.921 44.098 C 149.178 42.430, 149.165 42.378, 151.183 41.118 C 153.696 39.548, 152.828 38.632, 147 36.704 C 143.316 35.485, 142.441 34.726, 142.174 32.512 C 141.866 29.951, 142.017 29.845, 145.043 30.509 C 149.269 31.438, 148.657 29.358, 143.962 26.840 C 138.682 24.008, 135.254 24.451, 131.480 28.453 M 152.500 64.606 C 154.895 66.379, 158.850 67.484, 159.713 66.620 C 160.678 65.655, 159.792 65.187, 154.971 64.117 C 150.912 63.217, 150.684 63.262, 152.500 64.606" stroke="none" fill="black" fill-rule="evenodd"/>
</svg>