<svg xmlns="http://www.w3.org/2000/svg" width="192" height="144" viewBox="0 0 192 144" version="1.1">
	<path d="M -0 72.005 L -0 144.010 96.250 143.755 L 192.500 143.500 192.757 71.750 L 193.013 0 96.507 0 L 0 0 -0 72.005 M 0.474 72.500 C 0.474 112.100, 0.598 128.154, 0.750 108.176 C 0.901 88.198, 0.901 55.798, 0.750 36.176 C 0.598 16.554, 0.474 32.900, 0.474 72.500 M 90.875 29.594 C 90.806 29.817, 90.673 30.563, 90.580 31.250 C 90.486 31.938, 89.867 32.388, 89.205 32.250 C 86.782 31.747, 88.095 34.964, 91.700 38.365 L 95.400 41.856 93.045 43.762 L 90.690 45.669 92.927 47.236 C 96.365 49.645, 96.770 55.622, 93.791 60 C 91.448 63.443, 91.296 63.499, 84.455 63.468 C 80.630 63.450, 73.053 63.046, 67.618 62.571 C 59.334 61.846, 57.810 61.932, 58.195 63.103 C 58.448 63.871, 59.824 64.639, 61.254 64.809 C 62.684 64.980, 64.364 65.734, 64.989 66.486 C 65.701 67.344, 67.312 67.673, 69.312 67.367 C 71.065 67.100, 74.729 67.566, 77.453 68.404 C 82.495 69.954, 84.630 69.707, 81.971 67.881 C 80.933 67.168, 82.371 66.984, 86.861 67.257 C 91.601 67.545, 93.470 68.089, 94.199 69.392 C 94.886 70.618, 96.271 71.090, 98.839 70.973 C 106.286 70.634, 107 70.849, 107 73.432 C 107 75.494, 107.418 75.816, 109.750 75.550 C 112.133 75.277, 112.480 74.820, 112.353 72.118 C 112.185 68.574, 113.505 68.175, 117.889 70.443 C 119.424 71.236, 123.789 72.412, 127.590 73.056 C 131.390 73.700, 134.928 74.626, 135.450 75.113 C 137.945 77.442, 146.643 73.919, 147.637 70.176 C 148.129 68.321, 147.379 67.037, 143.914 63.806 L 139.574 59.759 131.467 60.417 C 122.862 61.116, 116.760 60.113, 122.500 58.944 C 125.493 58.334, 125.490 58.331, 121.500 57.588 C 114.640 56.312, 114.687 56.357, 115.403 51.879 C 116.006 48.112, 115.761 47.487, 112.278 43.897 C 110.200 41.755, 107.938 40.001, 107.250 40.001 C 106.563 40, 106 39.052, 106 37.893 C 106 36.279, 106.409 35.954, 107.750 36.506 C 112.673 38.533, 113.411 38.089, 110 35.153 C 105.702 31.453, 102.397 30.705, 98.596 32.573 C 94.721 34.477, 93.747 34.372, 94.461 32.124 C 94.885 30.788, 94.472 30.095, 93.028 29.718 C 91.913 29.426, 90.944 29.370, 90.875 29.594 M 96 45.941 C 96 46.459, 96.450 47.160, 97 47.500 C 97.550 47.840, 98 47.416, 98 46.559 C 98 45.702, 97.550 45, 97 45 C 96.450 45, 96 45.423, 96 45.941 M 107.192 52.075 C 107.389 52.666, 107.977 53.150, 108.500 53.150 C 109.023 53.150, 109.611 52.666, 109.808 52.075 C 110.005 51.484, 109.417 51, 108.500 51 C 107.583 51, 106.995 51.484, 107.192 52.075 M 97.169 58.901 C 94.443 64.130, 94.420 65.519, 97.092 63.648 C 100.864 61.006, 102.098 58.516, 100.629 56.508 C 99.454 54.901, 99.141 55.117, 97.169 58.901" stroke="none" fill="black" fill-rule="evenodd"/>
</svg>