<svg xmlns="http://www.w3.org/2000/svg" width="192" height="144" viewBox="0 0 192 144" version="1.1">
	<path d="M 57.530 2.862 C 56.381 8.097, 58.926 14.930, 63.978 20.171 C 66.751 23.048, 69.515 25, 70.816 25 C 72.017 25, 73 25.450, 73 26 C 73 26.550, 70.555 27, 67.567 27 C 62.989 27, 62.034 27.319, 61.492 29.027 C 61.138 30.141, 59.757 31.768, 58.424 32.642 C 55.417 34.612, 55.382 35.679, 58.250 38.003 C 60.112 39.512, 60.491 40.789, 60.447 45.413 C 60.410 49.364, 60.776 51, 61.697 51 C 63.198 51, 63.253 51.931, 63.111 75 C 62.970 97.901, 62.694 102.160, 61.181 104.813 C 60.456 106.085, 60 108.439, 60.169 110.045 C 60.348 111.755, 59.757 113.803, 58.741 114.990 C 57.787 116.104, 56.587 118.882, 56.075 121.164 C 55.562 123.446, 54.007 126.365, 52.619 127.652 C 51.232 128.939, 49.643 131.633, 49.089 133.639 C 48.526 135.680, 46.633 138.501, 44.791 140.045 C 42.922 141.613, 41.883 143.171, 42.387 143.652 C 42.879 144.123, 43.472 143.944, 43.720 143.250 C 44.285 141.668, 46.706 141.618, 47.226 143.177 C 47.883 145.149, 50 143.044, 50 140.420 C 50 138.782, 50.814 137.586, 52.432 136.849 C 54.807 135.767, 57.267 131.418, 57.531 127.832 C 57.603 126.848, 58.864 124.929, 60.331 123.569 C 62.237 121.803, 63 120.101, 63 117.619 C 63 115.642, 63.755 113.388, 64.750 112.393 C 65.953 111.189, 66.503 109.056, 66.510 105.571 C 66.516 102.782, 67.079 99.517, 67.760 98.316 C 69.324 95.560, 69.341 92.519, 67.806 90.061 C 66.880 88.578, 66.880 87.559, 67.806 85.527 C 69.258 82.340, 69.374 76.349, 68 75.500 C 67.450 75.160, 67 74.370, 67 73.745 C 67 73.119, 68.463 73.994, 70.250 75.689 C 73.703 78.964, 88.340 89.613, 90.273 90.258 C 90.997 90.499, 89.839 93.756, 87.138 99.070 C 76.837 119.339, 75.509 131.721, 82.917 138.425 C 84.063 139.462, 85 141.140, 85 142.155 C 85 143.901, 86.392 144, 110.905 144 L 136.810 144 136.398 139.750 L 135.987 135.500 137.577 139.750 C 139.222 144.149, 141.646 145.723, 140.656 141.750 C 140.348 140.512, 139.788 137.475, 139.413 135 C 139.037 132.525, 137.440 125.371, 135.865 119.101 C 132.410 105.356, 132.175 100.397, 134.936 99.520 C 136.001 99.182, 139.356 96.223, 142.392 92.943 C 148.674 86.158, 149.757 82.756, 148.098 75.021 C 147.494 72.206, 147 69.760, 147 69.587 C 147 69.413, 149.047 68.490, 151.548 67.535 L 156.096 65.798 160.048 68.413 C 162.222 69.852, 164 70.599, 164 70.073 C 164 69.548, 163.566 68.850, 163.035 68.521 C 162.504 68.193, 162.308 66.221, 162.599 64.138 C 163.371 58.618, 161.650 57.615, 151.825 57.857 C 147.392 57.966, 142.880 58.529, 141.797 59.109 C 138.883 60.668, 138.347 59.324, 140.829 56.682 C 142.023 55.411, 143 53.868, 143 53.254 C 143 52.639, 144.316 51.199, 145.924 50.054 C 147.559 48.890, 149.142 46.631, 149.516 44.926 C 149.964 42.886, 151.062 41.547, 152.841 40.870 C 157.128 39.241, 159 36.953, 159 33.345 C 159 29.222, 158.108 29.162, 153.989 33.010 C 152.217 34.666, 149.694 36.290, 148.383 36.619 C 147.072 36.948, 146 37.581, 146 38.027 C 146 39.338, 139.452 43, 137.107 43 C 135.746 43, 134.611 43.892, 134.031 45.419 C 132.543 49.331, 130.233 50.010, 125.590 47.901 C 121.234 45.923, 107.358 45.152, 108.469 46.950 C 108.792 47.472, 108.184 48.367, 107.117 48.937 C 104.251 50.471, 100.853 56.453, 101.657 58.548 C 102.215 60.002, 101.936 60.216, 100.107 59.738 C 98.554 59.332, 97.712 59.663, 97.331 60.828 C 97.030 61.747, 95.932 64.408, 94.892 66.739 C 92.532 72.026, 92.508 71.666, 95.500 75.589 C 100.156 81.694, 98.490 82.662, 91.894 77.684 C 89.477 75.860, 84.912 72.902, 81.750 71.110 C 77.025 68.434, 75.994 67.376, 75.964 65.177 C 75.945 63.704, 75.287 59.811, 74.502 56.524 C 73.717 53.237, 73.320 49.574, 73.619 48.383 C 73.918 47.192, 73.676 45.918, 73.081 45.550 C 71.348 44.479, 71.830 41.464, 74.055 39.450 C 76.075 37.622, 76.163 37.646, 79.170 40.863 C 82.860 44.812, 85.715 46, 91.515 46 C 94.499 46, 96.187 46.512, 96.798 47.603 C 97.291 48.484, 98.551 49.029, 99.597 48.814 C 101.055 48.514, 101.442 47.680, 101.252 45.253 C 101.091 43.204, 101.887 40.781, 103.502 38.402 C 107.866 31.971, 106.016 21.611, 99.941 18.470 C 96.662 16.774, 96.096 14.910, 97.242 9.583 C 97.706 7.428, 97.805 4.390, 97.463 2.833 L 96.841 0 77.500 0 L 58.159 0 57.530 2.862 M 59 36 C 59 36.550, 59.450 37, 60 37 C 60.550 37, 61 36.550, 61 36 C 61 35.450, 60.550 35, 60 35 C 59.450 35, 59 35.450, 59 36 M 65 80.500 C 65 82.971, 66.355 83.853, 67.444 82.090 C 68.167 80.921, 67.059 78, 65.893 78 C 65.402 78, 65 79.125, 65 80.500 M 64.380 93.452 C 63.691 95.249, 64.808 97.237, 66.069 96.457 C 67.336 95.674, 67.253 92, 65.969 92 C 65.401 92, 64.686 92.653, 64.380 93.452 M 62.667 106.667 C 61.516 107.817, 61.938 109, 63.500 109 C 64.325 109, 65 108.325, 65 107.500 C 65 105.938, 63.817 105.516, 62.667 106.667 M 58.500 119 C 57.684 120.320, 58.880 122.192, 60.069 121.457 C 61.284 120.707, 61.276 118, 60.059 118 C 59.541 118, 58.840 118.450, 58.500 119 M 51.651 131.468 C 50.899 133.427, 52.987 134.630, 54.096 132.878 C 55.352 130.896, 55.200 130, 53.607 130 C 52.841 130, 51.960 130.661, 51.651 131.468 M 36 143 C 36 143.550, 36.702 144, 37.559 144 C 38.416 144, 38.840 143.550, 38.500 143 C 38.160 142.450, 37.459 142, 36.941 142 C 36.423 142, 36 142.450, 36 143" stroke="none" fill="black" fill-rule="evenodd"/>
</svg>