<svg xmlns="http://www.w3.org/2000/svg" width="192" height="144" viewBox="0 0 192 144" version="1.1">
	<path d="M 0 72 L 0 144 13.304 144 L 26.607 144 31.034 134.312 C 33.469 128.983, 37.339 122.423, 39.634 119.735 C 41.929 117.046, 44.044 113.868, 44.333 112.673 C 44.822 110.650, 44.742 110.669, 43.179 112.946 C 42.256 114.291, 40.715 116.316, 39.755 117.446 C 38.082 119.416, 38.072 119.347, 39.519 115.750 C 40.348 113.688, 40.858 112, 40.653 112 C 40.447 112, 38.387 114.925, 36.075 118.500 C 31.651 125.340, 30.437 126.473, 31.520 122.750 C 32 121.098, 31.071 121.697, 28.025 125 C 23.691 129.701, 23.577 129.572, 25.609 122.250 C 26.059 120.628, 25.808 120, 24.710 120 C 23.068 120, 23.408 116.624, 25.293 114.219 C 27.334 111.613, 31.705 102, 30.847 102 C 30.359 102, 28.088 103.182, 25.800 104.626 C 20.267 108.119, 14.574 110.498, 15.558 108.906 C 16.082 108.059, 15.556 107.852, 13.755 108.196 C 12.062 108.520, 10.791 108.097, 9.951 106.932 C 9.257 105.969, 8.084 105.414, 7.345 105.698 C 5.237 106.507, 5.753 103.203, 7.915 102.045 C 8.969 101.481, 11.556 97.550, 13.665 93.308 C 16.761 87.083, 19.671 83.407, 28.759 74.241 C 40.883 62.013, 42.622 59.380, 45.935 48.234 C 47.484 43.021, 49.282 39.591, 52.297 36.098 C 57.251 30.358, 59.696 29, 65.078 29 C 69.935 29, 71.088 26.960, 68.640 22.696 C 66.658 19.242, 67.021 18.406, 69.849 19.919 C 70.960 20.514, 73.385 21, 75.238 21 C 78.060 21, 79.380 20.123, 83.374 15.592 C 88.056 10.281, 93.366 6.981, 94.782 8.502 C 95.177 8.927, 94.863 9.500, 94.084 9.776 C 93.305 10.052, 91.055 11.778, 89.084 13.612 L 85.500 16.946 89.250 16.973 C 93.863 17.006, 94.177 18.557, 89.740 19.389 C 85.134 20.253, 83.511 23.155, 85.492 26.985 C 86.333 28.611, 87.916 30.420, 89.010 31.006 C 92.177 32.700, 91.390 34.164, 87.686 33.469 C 85.327 33.026, 84.002 33.293, 83.088 34.394 C 82.011 35.692, 82.302 36.542, 84.902 39.698 C 87.507 42.857, 88 44.303, 88 48.776 C 88 53.269, 87.581 54.484, 85.304 56.594 C 83.576 58.196, 81.693 58.986, 80.054 58.796 C 77.527 58.503, 77.500 58.574, 77.539 65.500 C 77.567 70.639, 78.532 88.281, 78.973 91.714 C 78.988 91.832, 81.100 91.029, 83.666 89.929 C 89.774 87.311, 91.077 85.493, 90.760 80.033 L 90.500 75.566 94.924 74.805 C 99.805 73.966, 102.826 75.299, 101.009 77.490 C 98.495 80.519, 104.119 90, 108.430 90 C 109.817 90, 112.524 77.381, 113.633 65.750 C 114.146 60.367, 113.995 58.985, 112.888 58.923 C 106.678 58.581, 104 55.740, 104 49.492 C 104 44.313, 105.605 40.626, 109.405 37.076 C 112.775 33.927, 112.678 32.735, 108.750 29.062 C 106.238 26.712, 105.486 25.169, 105.437 22.261 C 105.403 20.193, 104.981 17.600, 104.500 16.500 C 103.694 14.657, 103.771 14.618, 105.476 16 C 107.208 17.403, 107.252 17.359, 106.164 15.316 C 105.524 14.114, 105.010 12.764, 105.022 12.316 C 105.052 11.232, 108.107 15.057, 113.539 22.975 L 117.981 29.450 125.240 29.161 C 133.352 28.838, 133.681 28.998, 139.884 36.287 C 142.832 39.750, 144.654 43.344, 146.474 49.287 C 149.782 60.085, 151.627 62.890, 159.578 69.209 C 163.239 72.119, 170.866 78.662, 176.527 83.750 C 182.188 88.837, 187.487 93, 188.303 93 C 189.119 93, 190.031 93.639, 190.331 94.419 C 190.933 95.989, 187.916 100, 186.133 100 C 185.510 100, 185 100.450, 185 101 C 185 101.550, 183.875 102, 182.500 102 C 181.125 102, 180 102.387, 180 102.860 C 180 104.110, 164.948 99.975, 162 97.916 C 160.625 96.955, 158.509 95.882, 157.297 95.532 C 155.363 94.973, 155.836 96.321, 161.185 106.612 C 166.169 116.201, 167.073 118.653, 166.161 120.113 C 165.228 121.608, 165.571 122.258, 168.274 124.122 C 173.223 127.535, 178.896 133.986, 181.625 139.305 C 184.036 144.005, 184.182 144.104, 188.295 143.805 L 192.500 143.500 192.757 71.750 L 193.013 0 96.507 0 L 0 0 0 72 M 0.474 72.500 C 0.474 112.100, 0.598 128.154, 0.750 108.176 C 0.901 88.198, 0.901 55.798, 0.750 36.176 C 0.598 16.554, 0.474 32.900, 0.474 72.500 M 67 66.939 C 67 67.352, 67.900 68.505, 69 69.500 C 70.938 71.254, 71 71.247, 71 69.272 C 71 68.074, 70.175 67.017, 69 66.710 C 67.900 66.423, 67 66.525, 67 66.939 M 120 69.280 L 120 72.349 122.500 70 C 125.626 67.063, 125.626 66.536, 122.499 66.356 C 120.345 66.231, 120 66.635, 120 69.280 M 82.233 99.008 C 78.805 101.176, 76 103.411, 76 103.975 C 76 105.369, 76.629 105.307, 83.199 103.268 C 87.636 101.892, 89.033 100.969, 89.505 99.105 C 90.552 94.966, 88.667 94.940, 82.233 99.008 M 102.359 98.043 C 103.162 102.059, 102.953 101.841, 106.704 102.591 C 109.537 103.157, 109.727 103.020, 109.287 100.719 C 108.878 98.584, 107.429 97.377, 102.598 95.148 C 102.091 94.914, 101.986 96.181, 102.359 98.043 M 93.827 105.750 C 92.464 109.210, 91.485 109.882, 81.160 114.438 C 75.005 117.154, 69.258 120.162, 68.388 121.124 C 66.685 123.006, 67.181 126.934, 70.609 138.728 L 72.142 144 97.440 144 L 122.738 144 123.869 135.182 C 124.491 130.333, 125 124.708, 125 122.682 C 125 119.258, 124.790 119, 122 119 C 119.638 119, 119 119.438, 119 121.059 C 119 122.191, 118.550 122.840, 118 122.500 C 116.674 121.681, 116.730 122.109, 118.500 126.346 C 119.325 128.320, 120 130.492, 120 131.172 C 120 133.262, 113.085 121.731, 111.988 117.812 C 111.083 114.576, 110.314 113.890, 105.728 112.222 C 101.358 110.633, 100.172 109.644, 98.500 106.197 C 97.400 103.928, 96.231 102.056, 95.902 102.036 C 95.573 102.016, 94.639 103.688, 93.827 105.750 M 115 103.819 C 115 105.027, 116.897 106.436, 117.591 105.743 C 117.842 105.491, 117.362 104.716, 116.524 104.020 C 115.574 103.231, 115 103.155, 115 103.819 M 150.071 113.500 C 150.071 114.050, 150.714 115.625, 151.500 117 C 152.286 118.375, 152.929 119.050, 152.929 118.500 C 152.929 117.950, 152.286 116.375, 151.500 115 C 150.714 113.625, 150.071 112.950, 150.071 113.500" stroke="none" fill="black" fill-rule="evenodd"/>
</svg>