<svg xmlns="http://www.w3.org/2000/svg" width="192" height="144" viewBox="0 0 192 144" version="1.1">
	<path d="M 56.336 28.717 C 53.359 29.090, 53.130 29.418, 52.466 34.250 C 51.835 38.838, 52.001 39.582, 54.021 41.218 C 55.265 42.226, 56.006 43.327, 55.668 43.665 C 55.330 44.004, 55.795 45.538, 56.703 47.075 C 58.047 49.350, 58.119 50.152, 57.091 51.391 C 56.396 52.228, 56.129 53.400, 56.498 53.996 C 56.866 54.593, 56.117 55.916, 54.834 56.938 C 53.550 57.960, 51.636 60.427, 50.580 62.422 C 48.665 66.037, 48.665 66.056, 50.830 68.983 C 53.488 72.580, 53.519 73.860, 51.086 79.815 C 47.820 87.807, 44.005 110.623, 41.481 137.250 L 40.841 144 60.548 144 L 80.256 144 79.572 139.750 C 79.196 137.412, 78.454 131.900, 77.922 127.500 C 76.141 112.762, 70.595 90.626, 67.856 87.326 C 66.940 86.223, 67.122 85.326, 68.691 83.204 C 70.451 80.823, 70.676 79.090, 70.531 68.996 C 70.440 62.673, 70.010 56.263, 69.574 54.750 C 69.102 53.107, 69.171 52, 69.746 52 C 71.265 52, 75.700 47.521, 76.417 45.261 C 77.315 42.432, 74.326 35.162, 70.656 31.250 C 67.503 27.888, 65.610 27.554, 56.336 28.717 M 123.828 59.604 C 119.906 61.257, 118.282 63.682, 119.967 65.367 C 122.013 67.413, 120.914 70.541, 117.010 73.783 L 113.056 77.066 109.104 74.450 C 105.238 71.892, 105.074 71.871, 101.634 73.503 C 99.417 74.555, 97.267 74.902, 95.817 74.442 C 93.836 73.813, 93.691 73.923, 94.780 75.235 C 95.476 76.073, 97.433 77.037, 99.131 77.376 C 101.310 77.812, 102.050 78.427, 101.650 79.469 C 101.238 80.543, 102.231 81.242, 105.292 82.034 C 116.307 84.882, 128.458 91.431, 128.565 94.577 C 128.601 95.634, 129.389 98.173, 130.315 100.218 C 131.242 102.263, 132 104.470, 132 105.124 C 132 106.338, 126.864 125.288, 124.579 132.500 C 122.894 137.820, 123.429 138.885, 128.163 139.642 C 130.441 140.006, 132.658 141.080, 133.320 142.140 C 134.207 143.562, 135.694 144, 139.624 144 C 143.926 144, 144.852 143.673, 145.290 142 C 145.650 140.622, 146.654 140, 148.518 140 C 151.020 140, 151.180 139.756, 150.651 136.750 C 150.337 134.963, 149.816 130.800, 149.493 127.500 C 148.513 117.491, 145.091 97.355, 143.442 91.896 C 142.846 89.923, 152.206 85.469, 160.777 83.647 C 170.976 81.478, 176.342 77.079, 169.922 76.149 C 168.590 75.956, 167.235 75.371, 166.910 74.849 C 165.697 72.897, 162.238 73.902, 153.048 78.880 C 147.849 81.696, 143.334 84, 143.016 84 C 142.697 84, 142.349 82.942, 142.242 81.648 C 142.103 79.980, 143.201 78.369, 146.023 76.101 C 153.185 70.347, 150.016 64.627, 139.619 64.542 C 134.749 64.502, 134.499 64.366, 134.007 61.500 C 133.580 59.018, 132.974 58.462, 130.496 58.278 C 128.848 58.155, 125.848 58.752, 123.828 59.604" stroke="none" fill="black" fill-rule="evenodd"/>
</svg>