<svg xmlns="http://www.w3.org/2000/svg" width="192" height="144" viewBox="0 0 192 144" version="1.1">
	<path d="M 0 72 L 0 144 26.750 143.998 L 53.500 143.997 57.879 130.748 C 60.288 123.462, 63.170 115.700, 64.285 113.500 C 67.265 107.617, 68.133 103.478, 68.376 94 C 68.613 84.773, 69.773 81.606, 75.164 75.466 C 78.279 71.918, 78.288 71.874, 77.684 63.308 C 77.209 56.588, 76.632 54.237, 75.038 52.541 C 73.868 51.295, 73 49.015, 73 47.186 C 73 44.136, 72.830 44, 69 44 C 64.720 44, 63.803 42.711, 66.903 41.052 C 67.949 40.492, 69.804 37.971, 71.024 35.450 L 73.243 30.866 70.045 26.413 C 68.286 23.964, 66.994 21.523, 67.173 20.989 C 67.353 20.455, 69.525 21.374, 72 23.031 C 75.251 25.208, 77.194 25.875, 79 25.436 C 85.009 23.977, 98.986 22.057, 100.204 22.525 C 100.944 22.809, 103.741 20.801, 106.482 18.018 C 109.200 15.258, 111.819 13, 112.300 13 C 113.094 13, 112.908 15.271, 111.346 24.624 L 110.825 27.748 117.194 28.430 C 125.901 29.363, 126.984 30.253, 122.095 32.457 C 119.908 33.443, 117.897 34.827, 117.626 35.531 C 117.356 36.235, 115.723 37.122, 113.997 37.501 C 112.019 37.935, 111.042 38.666, 111.353 39.477 C 112.997 43.763, 116 54.507, 116 56.105 C 116 57.147, 117.317 62.094, 118.926 67.097 C 120.994 73.529, 122.995 77.558, 125.755 80.847 C 131.571 87.779, 133.324 90.725, 131.912 91.196 C 131.140 91.453, 132.145 94.202, 134.783 99.046 C 137.015 103.146, 139.352 108.441, 139.976 110.813 C 140.600 113.184, 141.372 115.806, 141.691 116.638 C 142.103 117.710, 141.724 118.056, 140.386 117.825 C 139.286 117.635, 138.604 118.021, 138.750 118.750 C 138.888 119.438, 138.448 119.888, 137.774 119.750 C 137.099 119.613, 136.387 120.555, 136.192 121.845 C 135.923 123.614, 135.355 124.065, 133.877 123.678 C 132.312 123.269, 132.040 123.550, 132.524 125.077 C 132.962 126.456, 132.738 126.837, 131.718 126.445 C 130.707 126.057, 129.799 127.511, 128.529 131.546 C 126.781 137.104, 126.702 137.184, 123.346 136.792 C 120.564 136.468, 120.059 136.680, 120.597 137.947 C 120.960 138.801, 121.478 140.518, 121.748 141.763 L 122.238 144.025 157.369 143.763 L 192.500 143.500 192.757 71.750 L 193.013 0 96.507 0 L 0 0 0 72 M 0.474 72.500 C 0.474 112.100, 0.598 128.154, 0.750 108.176 C 0.901 88.198, 0.901 55.798, 0.750 36.176 C 0.598 16.554, 0.474 32.900, 0.474 72.500 M 84 67 C 84 68.100, 84.450 69, 85 69 C 85.550 69, 86 68.100, 86 67 C 86 65.900, 85.550 65, 85 65 C 84.450 65, 84 65.900, 84 67 M 78.137 103.335 C 77.098 104.587, 74.037 113.425, 74.011 115.250 C 74.005 115.662, 75.558 116, 77.462 116 L 80.925 116 80.323 109.250 C 79.992 105.537, 79.623 102.377, 79.503 102.226 C 79.383 102.075, 78.768 102.574, 78.137 103.335 M 68.367 127.144 C 67.788 127.890, 66.284 130.678, 65.025 133.340 C 62.740 138.169, 62.739 138.183, 64.722 140.167 C 66.706 142.150, 66.716 142.146, 69.689 138.327 C 73.870 132.955, 74.121 131.685, 71.620 128.548 C 69.847 126.324, 69.216 126.052, 68.367 127.144" stroke="none" fill="black" fill-rule="evenodd"/>
</svg>