<svg xmlns="http://www.w3.org/2000/svg" width="192" height="144" viewBox="0 0 192 144" version="1.1">
	<path d="M 30.031 1.250 C 30.048 1.938, 31.204 4.750, 32.598 7.500 C 34.030 10.324, 35.515 15.546, 36.009 19.500 C 38.406 38.655, 38.439 37.228, 35.521 40.500 C 31.126 45.428, 26.037 56.774, 25.459 62.935 C 25.172 65.996, 24.707 69.250, 24.428 70.166 C 24.148 71.082, 24.387 72.121, 24.959 72.475 C 26.403 73.367, 26.265 78.315, 24.750 79.947 C 23.750 81.024, 23.750 81.152, 24.750 80.588 C 25.438 80.200, 26 80.391, 26 81.012 C 26 82.915, 28.356 84.498, 31.250 84.539 C 33.335 84.569, 34.022 84.086, 34.091 82.539 C 34.141 81.418, 34.275 76.113, 34.390 70.751 C 34.624 59.767, 36.549 55.019, 36.519 65.501 C 36.503 70.840, 36.880 72.320, 38.728 74.170 C 41.806 77.251, 47.142 77.154, 50.547 73.956 C 53.244 71.422, 53.431 71.400, 67.688 71.925 C 76.974 72.266, 81.620 68.442, 81.284 60.732 C 81.165 58.004, 81.705 54.249, 82.483 52.386 C 84.378 47.852, 82.673 47.937, 77.882 52.615 C 72.898 57.482, 71.123 56.262, 74.473 50.270 C 79.610 41.078, 78.212 34.084, 70.917 32.482 C 68.582 31.969, 68.018 31.419, 68.532 30.155 C 70.404 25.554, 70.611 12.983, 68.867 9.827 C 68.159 8.547, 67.687 6.970, 67.817 6.323 C 67.948 5.675, 66.897 3.988, 65.482 2.573 C 62.927 0.018, 62.797 0, 46.455 0 C 33.941 0, 30.007 0.299, 30.031 1.250 M 148 72 L 148 144 169.097 144 L 190.193 144 189.678 139.250 C 188.085 124.543, 186.803 115.187, 186.052 112.788 C 185.056 109.608, 186.687 107.558, 189.034 109.042 C 189.840 109.552, 190.838 109.976, 191.250 109.985 C 191.662 109.993, 192 85.250, 192 55 L 192 0 170 0 L 148 0 148 72 M 41.638 47.500 C 41.288 48.414, 41.637 49, 42.531 49 C 43.339 49, 44 48.325, 44 47.500 C 44 46.675, 43.598 46, 43.107 46 C 42.616 46, 41.955 46.675, 41.638 47.500" stroke="none" fill="black" fill-rule="evenodd"/>
</svg>