<svg xmlns="http://www.w3.org/2000/svg" width="192" height="144" viewBox="0 0 192 144" version="1.1">
	<path d="M 55.028 29.253 C 53.569 30.008, 52.134 31.988, 51.528 34.086 C 50.962 36.041, 49.689 38.867, 48.697 40.366 C 46.370 43.884, 47.189 46.248, 51.549 48.597 C 54.654 50.268, 54.867 50.624, 53.403 51.695 C 52.459 52.385, 52.010 53.584, 52.358 54.490 C 52.705 55.395, 52.365 56.306, 51.566 56.613 C 49.550 57.386, 45 64.592, 45 67.010 C 45 68.139, 45.675 69.322, 46.500 69.638 C 48.277 70.320, 48.600 78, 46.922 79.678 C 44.377 82.223, 39.523 111.808, 37.557 136.750 L 36.986 144 56.124 144 L 75.262 144 74.622 140.250 C 74.270 138.188, 73.312 130.875, 72.493 124 C 71.675 117.125, 69.860 107.450, 68.460 102.500 C 65.074 90.522, 64.735 87.588, 66.294 83.743 C 68.214 79.007, 67.771 60.251, 65.638 55.976 C 63.484 51.658, 63.454 51.717, 67.524 52.193 C 72.893 52.819, 74.755 50.273, 73.195 44.441 C 72.538 41.983, 72 39.177, 72 38.206 C 72 35.966, 65.307 29.004, 63.136 28.986 C 62.236 28.979, 60.600 28.748, 59.500 28.474 C 58.400 28.200, 56.387 28.550, 55.028 29.253 M 141 55.700 C 140.175 55.998, 137.803 57.863, 135.729 59.844 C 132.624 62.811, 131.336 63.393, 128.429 63.142 C 126.488 62.975, 124.246 63.381, 123.447 64.044 C 122.210 65.071, 122.515 65.828, 125.497 69.128 C 127.424 71.261, 129.059 73.342, 129.130 73.753 C 129.202 74.164, 129.329 75.715, 129.413 77.200 C 129.497 78.685, 129.858 80.191, 130.214 80.548 C 131.099 81.432, 129.950 84.181, 127.936 86 C 127.022 86.825, 124.824 89.932, 123.051 92.905 C 119.971 98.070, 119.882 98.507, 121.057 102.703 C 121.733 105.118, 123.148 108.190, 124.202 109.529 C 126.090 111.930, 126.089 112.088, 124.125 120.732 C 123.028 125.555, 121.847 130.427, 121.499 131.559 C 121.018 133.126, 121.476 133.896, 123.417 134.780 C 125.321 135.648, 126.130 136.963, 126.611 139.971 C 127.190 143.592, 127.547 144, 130.128 144 C 132.652 144, 133 143.637, 133 141 C 133 139.075, 133.509 138, 134.421 138 C 135.202 138, 136.138 139.350, 136.500 141 C 137.049 143.498, 137.647 144, 140.079 144 C 142.374 144, 143 143.553, 143 141.913 C 143 140.513, 143.987 139.454, 146 138.694 C 147.650 138.071, 149 137.003, 149 136.321 C 149 135.638, 147.834 130.467, 146.409 124.830 C 144.073 115.589, 143.961 114.329, 145.273 112.040 C 148.146 107.025, 148.212 100.442, 145.453 93.889 C 143.609 89.507, 143.103 86.970, 143.573 84.465 C 144.201 81.114, 144.317 81.042, 148.750 81.268 C 154.279 81.551, 154.950 80.283, 151.466 76.142 C 148.852 73.035, 148.850 73.026, 150.424 67.612 C 151.291 64.631, 152 61.927, 152 61.602 C 152 60.879, 143.936 54.969, 143.100 55.079 C 142.770 55.122, 141.825 55.402, 141 55.700" stroke="none" fill="black" fill-rule="evenodd"/>
</svg>