<svg xmlns="http://www.w3.org/2000/svg" width="192" height="144" viewBox="0 0 192 144" version="1.1">
	<path d="M -0 24.132 C -0 46.834, 0.123 48.464, 2.082 51.632 C 4.598 55.703, 7.684 56.029, 10.937 52.567 L 13.223 50.134 20.747 56.067 C 24.886 59.330, 29.101 62, 30.116 62 C 31.631 62, 36.755 54.920, 38.240 50.774 C 38.383 50.375, 42.073 51.184, 46.440 52.572 C 51.058 54.040, 56.079 54.972, 58.440 54.798 C 62.477 54.502, 62.500 54.478, 62.412 50.500 C 62.359 48.072, 60.935 43.708, 58.788 39.394 L 55.251 32.288 61.830 27.894 C 65.448 25.477, 68.565 22.980, 68.756 22.344 C 69.072 21.294, 60.907 12.855, 55.175 8.305 L 52.850 6.460 54.925 3.822 C 56.066 2.372, 57 0.918, 57 0.592 C 57 0.267, 44.175 0, 28.500 0 L 0 0 -0 24.132 M 112.887 1.379 C 110.899 2.089, 105.724 3.252, 101.387 3.963 C 91.943 5.510, 89 7.093, 89 10.626 C 89 15.767, 95.042 31.305, 99.423 37.432 C 105.286 45.630, 116.083 54, 120.795 54 C 123.333 54, 126.333 50.314, 128.575 44.442 C 129.508 41.999, 130.661 40, 131.136 40 C 131.611 40, 132.007 43.263, 132.015 47.250 C 132.024 51.237, 132.361 54.995, 132.765 55.600 C 134.147 57.670, 137.709 58.915, 144.104 59.562 C 156.585 60.826, 167.991 57.031, 177.916 48.313 C 184.422 42.597, 191 32.804, 191 28.833 C 191 25.733, 187.340 22.937, 174.182 15.987 C 170.707 14.151, 164.790 9.803, 161.033 6.325 L 154.202 0 135.351 0.044 C 122.584 0.074, 115.334 0.505, 112.887 1.379 M 147.441 71.411 C 146.373 72.163, 144.008 75.698, 142.183 79.267 L 138.867 85.756 131.683 83.274 C 123.151 80.325, 111.672 79.104, 110.488 81.019 C 108.912 83.569, 109.957 87.940, 114.429 97.511 C 116.943 102.891, 119 107.397, 119 107.525 C 119 107.653, 115.631 109.950, 111.513 112.629 C 106.264 116.044, 104.022 118.109, 104.013 119.538 C 103.997 122.020, 118.218 135.906, 122.102 137.201 C 123.053 137.518, 122.795 138.479, 121.131 140.816 L 118.864 144 129.491 144 C 135.618 144, 139.880 143.615, 139.556 143.090 C 139.247 142.590, 139.276 141.445, 139.620 140.547 C 140.191 139.060, 140.433 139.074, 142.324 140.707 C 144.270 142.387, 144.262 142.319, 142.200 139.615 C 140.988 138.026, 140.016 135.332, 140.036 133.615 L 140.072 130.500 142.531 133.500 C 145.587 137.228, 145.645 136.397, 142.750 130.371 C 141.095 126.926, 140.830 125.575, 141.750 125.261 C 142.438 125.026, 143 124.210, 143 123.448 C 143 122.567, 143.606 122.295, 144.664 122.701 C 145.783 123.131, 146.091 122.957, 145.605 122.170 C 145.176 121.475, 145.491 121, 146.382 121 C 147.207 121, 148.160 121.450, 148.500 122 C 148.840 122.550, 149.568 123, 150.118 123 C 150.668 123, 150.869 122.597, 150.565 122.105 C 150.035 121.247, 152.132 120, 154.104 120 C 155.680 120, 163.847 128.014, 166.202 131.871 C 167.420 133.867, 169.110 136.040, 169.958 136.700 C 172.337 138.552, 186.407 144, 188.810 144 C 190.649 144, 190.867 143.583, 190.356 141.031 C 190.030 139.398, 190.127 137.260, 190.572 136.281 C 191.176 134.953, 191.524 135.644, 191.941 139 C 192.460 143.182, 192.668 111.647, 192.206 98.750 C 192.025 93.701, 191.752 93, 189.964 93 C 188.488 93, 187.372 91.697, 185.900 88.250 C 183.584 82.828, 179.392 78, 177 78 C 176.106 78, 174.081 79.350, 172.500 81 C 170.919 82.650, 169.272 84, 168.841 84 C 168.409 84, 165.128 81.667, 161.551 78.816 C 151.211 70.575, 149.731 69.798, 147.441 71.411 M 10.040 78.605 C 7.281 87.540, 7.309 97.337, 10.109 102 C 11.264 103.925, 13.141 106.513, 14.279 107.750 C 16.843 110.537, 16.824 110.536, 9.500 107.519 C 6.200 106.160, 2.938 105.037, 2.250 105.024 C 1.342 105.006, 1 107.432, 1 113.889 L 1 122.777 4.732 123.477 C 6.784 123.862, 9.269 124.609, 10.255 125.136 C 11.837 125.983, 11.881 126.331, 10.635 128.110 C 9.859 129.218, 7.374 131.486, 5.112 133.149 C 1.491 135.812, 1 136.648, 1 140.153 L 1 144.134 5.250 140.691 C 9.981 136.860, 15.149 134, 17.343 134 C 19.136 134, 20 136.141, 20 140.582 L 20 144 30.430 144 L 40.860 144 40.037 141.250 C 39.584 139.738, 38.711 137.220, 38.096 135.656 C 37.120 133.172, 37.761 133.521, 43.160 138.406 L 49.341 144 67.274 144 L 85.207 144 81.922 140.250 C 75.953 133.435, 63.566 122.730, 59.500 120.872 C 57.300 119.867, 54.263 119.034, 52.750 119.022 C 48.849 118.991, 49.356 117.813, 54.261 115.510 C 62.474 111.656, 69.143 103.667, 76.380 89.016 C 80.012 81.664, 82.742 75.409, 82.449 75.116 C 81.566 74.233, 59.056 82.154, 50.795 86.255 C 45.218 89.023, 41.695 91.643, 38.045 95.739 C 33.062 101.330, 33 101.363, 32.978 98.450 C 32.966 96.827, 32.120 93.700, 31.098 91.500 C 28.948 86.870, 15.495 72, 13.457 72 C 12.633 72, 11.261 74.653, 10.040 78.605" stroke="none" fill="black" fill-rule="evenodd"/>
</svg>