<svg xmlns="http://www.w3.org/2000/svg" width="192" height="144" viewBox="0 0 192 144" version="1.1">
	<path d="M -0 72.005 L -0 144.010 96.250 143.755 L 192.500 143.500 192.757 71.750 L 193.013 0 167.257 0.022 C 142.705 0.043, 141.599 0.125, 143.607 1.772 C 160.471 15.598, 176.929 29.015, 179.462 31 C 181.217 32.375, 184.756 35.357, 187.326 37.626 L 192 41.752 192 61.449 C 192 79.679, 191.870 81.120, 190.250 80.787 C 188.996 80.529, 188.539 79.545, 188.637 77.312 C 188.763 74.443, 188.422 74.098, 184.334 72.954 C 180.200 71.796, 179.916 71.499, 180.197 68.640 C 180.409 66.491, 179.813 64.885, 178.211 63.291 C 176.385 61.474, 176.132 60.621, 176.961 59.072 C 177.533 58.005, 178 56.938, 178 56.702 C 178 56.466, 175.188 55.017, 171.750 53.482 C 157.268 47.014, 125.967 32.505, 119.011 29.036 C 114.880 26.976, 110.177 24.970, 108.561 24.579 C 106.945 24.187, 104.470 23.056, 103.061 22.065 C 101.652 21.073, 99.375 19.921, 98 19.504 C 96.625 19.087, 93.025 17.489, 90 15.953 C 84.195 13.006, 81.149 11.736, 79.500 11.575 C 78.341 11.463, 78.307 6.737, 79.437 2.750 L 80.217 0 40.108 0 L 0 0 -0 72.005 M 0.474 72.500 C 0.474 112.100, 0.598 128.154, 0.750 108.176 C 0.901 88.198, 0.901 55.798, 0.750 36.176 C 0.598 16.554, 0.474 32.900, 0.474 72.500 M 79.314 37.509 C 78.207 38.694, 79.212 42.395, 80.930 43.457 C 82.466 44.406, 82.248 48.290, 80.532 50.559 C 79.724 51.626, 79.049 53.992, 79.032 55.816 C 79.014 57.639, 78.474 60.114, 77.831 61.316 C 77.188 62.517, 76.607 67.325, 76.539 72 C 76.471 76.675, 75.801 83.088, 75.048 86.252 C 74.086 90.299, 73.979 92.671, 74.685 94.252 C 75.806 96.759, 75.269 103.716, 73.890 104.568 C 71.790 105.866, 73.103 108, 76 108 C 78.920 108, 79 107.870, 79 103.167 C 79 97.523, 79.543 96.685, 82.258 98.138 C 83.684 98.901, 84.951 98.888, 86.700 98.091 L 89.146 96.976 88.890 102.505 C 88.638 107.953, 89.842 110.834, 91.853 109.591 C 92.418 109.242, 92.870 106.378, 92.858 103.228 C 92.845 100.078, 92.876 96.825, 92.925 96 C 93.014 94.534, 97.230 92, 99.583 92 C 101.849 92, 101.766 88.088, 99.391 82.961 C 98.076 80.123, 97 77.197, 97 76.458 C 97 75.719, 96.071 73.539, 94.935 71.614 C 93.450 69.098, 93.131 67.605, 93.799 66.307 C 94.311 65.313, 94.537 63.965, 94.302 63.311 C 94.067 62.657, 94.598 61.017, 95.483 59.667 C 97.483 56.613, 96.695 52.965, 93.419 50.117 C 90.728 47.777, 90.422 45.930, 92.189 42.684 C 94.570 38.309, 93.986 37.176, 89.078 36.649 C 82.978 35.994, 80.527 36.210, 79.314 37.509 M 92 57.559 C 92 58.416, 92.450 58.840, 93 58.500 C 93.550 58.160, 94 57.459, 94 56.941 C 94 56.423, 93.550 56, 93 56 C 92.450 56, 92 56.702, 92 57.559" stroke="none" fill="black" fill-rule="evenodd"/>
</svg>