<svg xmlns="http://www.w3.org/2000/svg" width="192" height="144" viewBox="0 0 192 144" version="1.1">
	<path d="M 0 37 C 0 57.350, 0.380 74, 0.843 74 C 3.014 74, 14.507 69.495, 24.098 64.884 L 34.696 59.790 43.341 66.463 C 48.096 70.133, 55.252 76.250, 59.243 80.055 C 69.806 90.126, 73.929 91.891, 87.359 92.091 L 98.217 92.253 101.482 85.877 C 104.586 79.815, 111.505 73.089, 114.703 73.024 C 116.892 72.980, 121 70.699, 121 69.528 C 121 68.894, 119.650 67.378, 118 66.158 L 115 63.940 115 66.970 C 115 71.333, 112.825 70.718, 110.641 65.739 C 107.562 58.719, 107.397 58.512, 104.604 58.179 C 102.454 57.923, 102.034 57.469, 102.522 55.929 C 102.893 54.761, 102.665 54, 101.945 54 C 101.084 54, 101.052 53.642, 101.831 52.704 C 102.972 51.329, 103.032 47, 101.910 47 C 99.714 47, 98.873 50.304, 99.523 56.375 C 100.092 61.687, 99.812 64.060, 97.953 69.671 C 94.796 79.197, 90.477 82.650, 88.877 76.926 C 88.504 75.592, 88.136 74.950, 88.060 75.500 C 87.983 76.050, 87.180 75.150, 86.275 73.500 C 84.236 69.781, 83.859 56.361, 85.750 54.792 C 86.437 54.222, 87.002 53.023, 87.005 52.128 C 87.008 51.232, 88.119 48.700, 89.474 46.500 C 90.829 44.300, 91.952 42.234, 91.969 41.908 C 91.986 41.583, 90.219 40.783, 88.042 40.131 C 85.865 39.479, 83.803 38.490, 83.459 37.934 C 82.331 36.108, 85.361 26.912, 87.957 24.284 C 92.469 19.717, 95.978 18.033, 98.546 19.203 C 99.803 19.775, 101.088 21.201, 101.403 22.372 C 101.941 24.371, 102.091 24.313, 103.875 21.411 C 108.538 13.828, 114.445 11.671, 129.225 12.153 C 138.012 12.440, 140.350 12.856, 142.680 14.552 C 146.815 17.561, 150.349 25.290, 150.431 31.503 C 150.469 34.358, 151.064 37.373, 151.753 38.203 C 152.443 39.034, 153.430 41.915, 153.948 44.607 C 154.715 48.595, 154.607 49.716, 153.367 50.667 C 152.531 51.308, 151.932 52.658, 152.038 53.667 C 152.529 58.352, 150.797 59.786, 149.522 55.750 C 148.873 53.696, 148.711 53.820, 147.656 57.168 C 146.130 62.011, 145 63.008, 145 59.512 C 145 56.753, 144.955 56.731, 143 58.500 C 141.900 59.495, 141 61.155, 141 62.187 C 141 63.220, 140.336 65.654, 139.524 67.598 L 138.047 71.131 143.365 73.483 C 149.416 76.159, 152.905 79.832, 155.611 86.374 L 157.487 90.910 172.494 90.661 C 181.517 90.511, 188.335 89.950, 189.594 89.254 C 191.461 88.222, 191.760 86.864, 192.340 76.798 C 192.698 70.584, 192.993 50.763, 192.995 32.750 L 193 0 96.500 0 L 0 0 0 37 M 0.453 37.500 C 0.453 57.850, 0.586 66.033, 0.749 55.685 C 0.912 45.336, 0.911 28.686, 0.748 18.685 C 0.585 8.683, 0.452 17.150, 0.453 37.500 M 28.463 69.299 C 25.113 71.727, 25.007 73.922, 28.051 77.793 C 31.244 81.851, 31.247 85.139, 28.072 97.714 C 24.378 112.349, 23.412 115.066, 22.640 113 C 22.332 112.175, 20.708 105.430, 19.030 98.012 L 15.981 84.523 18.338 79.762 C 19.634 77.143, 20.650 75.009, 20.597 75.020 C 18.370 75.486, 2.550 82.050, 1.768 82.832 C 0.940 83.660, 1.083 84.434, 2.311 85.791 C 6.210 90.099, 6.325 93.106, 3.068 105.561 C 0.383 115.830, 0 118.960, 0 130.647 L 0 144 48.334 144 L 96.669 144 98.041 133.250 C 98.797 127.338, 99.434 116.988, 99.457 110.251 L 99.500 98.001 92.858 98.001 L 86.216 98 88.108 101.711 C 89.149 103.753, 90 106.387, 90 107.566 C 90 110.134, 84.455 132.878, 83.627 133.706 C 82.847 134.486, 82.466 133.274, 79.526 120.661 C 76.481 107.598, 76.451 106.500, 78.996 101.508 C 80.094 99.354, 80.638 97.238, 80.205 96.805 C 79.343 95.943, 69.717 93.950, 69.151 94.516 C 68.958 94.708, 69.333 96.478, 69.983 98.448 C 71.009 101.557, 70.747 103.811, 67.998 115.508 C 66.256 122.921, 64.419 129.241, 63.916 129.552 C 63.412 129.863, 63 129.972, 63 129.794 C 63 129.616, 61.684 123.486, 60.075 116.171 C 57.034 102.347, 57.123 99.011, 60.642 94.921 C 61.389 94.053, 62 92.463, 62 91.387 C 62 89.384, 51.482 78.185, 50.512 79.155 C 50.216 79.451, 50.668 81.355, 51.517 83.386 C 52.982 86.892, 52.902 87.698, 49.950 99.289 C 45.742 115.813, 45.908 115.310, 44.969 114.351 C 44.512 113.883, 42.769 107.561, 41.098 100.303 C 38.197 87.710, 38.130 86.932, 39.641 83.303 C 40.512 81.211, 41.545 79.275, 41.935 79 C 44.427 77.246, 43.577 74.957, 39.001 71.098 C 36.328 68.844, 33.547 67.022, 32.821 67.049 C 32.094 67.076, 30.133 68.089, 28.463 69.299 M 182.250 94.706 C 179.487 95.238, 179.450 96.049, 181.996 100.226 C 183.094 102.027, 183.965 105.075, 183.931 107 C 183.844 111.896, 178.709 132.256, 177.527 132.390 C 176.991 132.450, 175.124 126.469, 173.378 119.097 L 170.202 105.695 172.101 101.265 C 173.145 98.828, 174 96.646, 174 96.417 C 174 96.188, 170.400 96, 166 96 C 161.600 96, 158 96.365, 158 96.812 C 158 97.259, 158.956 99.604, 160.125 102.023 L 162.250 106.421 159.773 117.461 C 157.885 125.875, 157.406 130.343, 157.758 136.250 L 158.219 144 175.109 144 L 192 144 192 128.659 C 192 117.936, 191.552 111.840, 190.511 108.409 C 188.650 102.276, 188.639 100.215, 190.447 96.750 L 191.881 94 188.191 94.136 C 186.161 94.211, 183.488 94.467, 182.250 94.706" stroke="none" fill="black" fill-rule="evenodd"/>
</svg>