<svg xmlns="http://www.w3.org/2000/svg" width="192" height="144" viewBox="0 0 192 144" version="1.1">
	<path d="M 47.153 7.427 C 46.854 16.792, 48.579 26.928, 51.667 33.946 C 54.266 39.852, 54.129 42, 51.154 42 C 50.104 42, 48.627 42.748, 47.872 43.663 C 47.118 44.577, 44.672 46.136, 42.438 47.126 C 38.223 48.995, 33.752 53, 35.880 53 C 38.531 53, 34.871 56.827, 29.734 59.426 C 26.442 61.092, 23.927 63.161, 23.186 64.815 C 22.523 66.292, 20.198 69.975, 18.018 73 C 9.686 84.562, 5.013 101.465, 5.004 120.066 C 5 127.646, 6.116 137.095, 7.623 142.250 C 8.090 143.848, 10.013 143.997, 29.817 143.968 L 51.500 143.937 48.500 141.720 C 42.183 137.052, 38.281 132.933, 35.721 128.229 C 31.018 119.587, 29.867 113.075, 29.275 91.749 L 28.726 71.999 31.803 65.749 C 35.499 58.245, 40.348 53, 43.593 53 C 45.162 53, 46.432 52.064, 47.397 50.199 C 48.194 48.659, 50.566 46.521, 52.669 45.449 C 54.772 44.377, 57.687 42.262, 59.148 40.750 C 61.460 38.355, 62.571 38, 67.763 38 C 72.381 38, 74.907 38.633, 78.981 40.809 C 85.570 44.330, 91.968 50.676, 95.094 56.793 C 97.581 61.659, 97.674 63.074, 96.855 83.500 C 96.652 88.566, 97.104 90.434, 99.760 95.500 C 103.490 102.614, 107.006 106.678, 112.644 110.394 C 119.956 115.214, 130.944 116.846, 140.605 114.547 C 143.670 113.817, 143.742 113.890, 146.180 120.154 C 147.539 123.644, 149.273 128.479, 150.034 130.898 C 150.795 133.317, 152.111 135.493, 152.959 135.733 C 153.807 135.973, 155.850 137.930, 157.500 140.083 C 160.244 143.662, 160.799 143.943, 164 143.368 C 165.925 143.023, 167.950 142.826, 168.500 142.931 C 169.050 143.037, 174.563 143.360, 180.750 143.650 L 192 144.177 192 72.088 L 192 0 187.912 0 L 183.824 0 184.436 3.750 C 186.815 18.339, 186.803 39.359, 184.409 51.500 C 181.787 64.800, 172.758 80.379, 161.787 90.537 C 155.931 95.959, 150.391 99.988, 148.781 99.996 C 147.603 100.002, 149.110 96.789, 152.533 92 C 160.186 81.292, 162 74.303, 162 55.526 C 162 35.924, 158.893 27.718, 147.033 16 C 143.415 12.425, 137.245 7.362, 133.322 4.750 L 126.189 0 86.790 -0 L 47.390 -0 47.153 7.427 M 115.073 59.729 C 111.489 60.403, 108 62.986, 108 64.965 C 108 67.512, 113.564 74.760, 117.280 77.054 C 119.051 78.147, 121.598 78.919, 122.940 78.771 C 124.959 78.547, 125.604 77.635, 126.671 73.500 C 127.381 70.750, 127.970 67.015, 127.981 65.199 C 127.997 62.370, 127.504 61.691, 124.532 60.449 C 121.052 58.995, 119.573 58.882, 115.073 59.729 M 60.250 72.706 C 58.184 73.104, 58 73.685, 58.004 79.820 C 58.008 88.285, 60.589 93.331, 64.497 92.520 C 65.874 92.234, 68.187 91.751, 69.637 91.447 C 72.893 90.763, 79 86.219, 79 84.480 C 79 83.775, 77.537 82.256, 75.750 81.105 C 73.963 79.954, 70.553 77.435, 68.172 75.506 C 65.792 73.578, 63.542 72.061, 63.172 72.136 C 62.803 72.211, 61.487 72.467, 60.250 72.706" stroke="none" fill="black" fill-rule="evenodd"/>
</svg>