<svg xmlns="http://www.w3.org/2000/svg" width="192" height="144" viewBox="0 0 192 144" version="1.1">
	<path d="M 129.073 6.635 C 127.715 8.360, 127 10.734, 127 13.514 C 127 17.385, 126.715 17.864, 123.750 18.973 C 115.250 22.153, 112.212 23.759, 108.664 26.944 C 104.611 30.583, 98.655 41.646, 99.783 43.440 C 100.150 44.023, 100.340 45.175, 100.205 46 C 99.892 47.919, 105.689 55, 107.573 55 C 109.577 55, 109.347 56.653, 107.020 58.980 C 105.047 60.953, 105.050 60.974, 107.895 65.230 C 109.464 67.578, 111.060 70.513, 111.442 71.750 C 111.908 73.263, 112.918 74, 114.527 74 C 116.475 74, 116.916 74.510, 116.898 76.750 C 116.887 78.263, 117.167 80.865, 117.520 82.532 C 118.014 84.860, 117.331 87.223, 114.582 92.701 C 112.612 96.627, 111 100.276, 111 100.811 C 111 101.346, 109.820 102.079, 108.377 102.441 C 105.991 103.040, 105.808 103.430, 106.349 106.761 C 106.807 109.584, 106.375 111.391, 104.462 114.654 L 101.982 118.887 91.241 118.323 C 77.272 117.590, 75.657 116.842, 74.958 110.775 C 74.203 104.227, 70.875 100.745, 66.206 101.621 C 63.812 102.070, 62.517 101.848, 61.906 100.882 C 61.213 99.788, 61.027 99.866, 61.015 101.258 C 61.006 102.368, 59.529 103.605, 57.010 104.613 C 53.741 105.921, 52.837 106.893, 52.001 109.997 C 51.440 112.081, 51.172 114.397, 51.407 115.143 C 51.641 115.889, 52.095 117.703, 52.416 119.173 C 53.742 125.250, 58.806 128.879, 68.136 130.440 L 71.772 131.048 72.466 137.524 L 73.159 144 120.580 144 C 146.661 144, 167.988 143.662, 167.974 143.250 C 167.960 142.838, 166.385 140.046, 164.474 137.046 C 160.070 130.132, 159.904 126.578, 163.923 125.177 C 165.530 124.617, 167.346 123.222, 167.958 122.079 C 168.918 120.284, 168.787 120, 166.995 120 C 165.854 120, 163.085 120.936, 160.841 122.081 C 158.598 123.226, 156.411 123.788, 155.982 123.331 C 155.552 122.874, 154.915 118.225, 154.565 113 C 153.997 104.507, 154.080 103.758, 155.347 105.930 C 156.757 108.349, 156.767 108.341, 157.470 104.180 C 157.858 101.881, 158.723 100, 159.391 100 C 160.059 100, 161.567 101.913, 162.741 104.250 L 164.876 108.500 165.023 103 C 165.104 99.975, 165.149 95.025, 165.122 92 L 165.073 86.500 166.559 90 C 167.377 91.925, 168.706 94.850, 169.512 96.500 C 170.966 99.474, 170.974 99.457, 170.434 94.500 L 169.891 89.500 172.532 93.500 L 175.174 97.500 174.543 89.723 C 173.369 75.265, 169.066 54.183, 164.448 40.263 C 158.415 22.082, 156.829 19.695, 149.997 18.513 C 146.987 17.993, 145.876 16.927, 142.113 10.954 C 138.137 4.643, 137.427 4, 134.438 4 C 132.072 4, 130.562 4.741, 129.073 6.635" stroke="none" fill="black" fill-rule="evenodd"/>
</svg>