<svg xmlns="http://www.w3.org/2000/svg" width="192" height="144" viewBox="0 0 192 144" version="1.1">
	<path d="M -0 72.005 L -0 144.010 96.250 143.755 L 192.500 143.500 192.757 71.750 L 193.013 0 96.507 0 L 0 0 -0 72.005 M 0.474 72.500 C 0.474 112.100, 0.598 128.154, 0.750 108.176 C 0.901 88.198, 0.901 55.798, 0.750 36.176 C 0.598 16.554, 0.474 32.900, 0.474 72.500 M 98.387 59.250 C 91.711 64.254, 76 80.850, 76 82.898 C 76 85.497, 76.672 85.491, 86 82.811 C 93.921 80.535, 101.113 80.046, 109.717 81.199 L 114.934 81.898 116.022 78.199 C 117.806 72.133, 118.358 63.537, 117.112 61.209 C 114.778 56.847, 103.207 55.637, 98.387 59.250" stroke="none" fill="black" fill-rule="evenodd"/>
</svg>