<svg xmlns="http://www.w3.org/2000/svg" width="192" height="144" viewBox="0 0 192 144" version="1.1">
	<path d="M 0 72 L 0 144 44.560 144 L 89.121 144 88.810 140.257 C 88.566 137.315, 87.912 136.234, 85.750 135.203 C 83.896 134.318, 83 133.121, 83 131.529 C 83 130.230, 82.438 128.979, 81.750 128.750 C 80.997 128.499, 80.508 126.576, 80.520 123.917 C 80.535 120.446, 81.679 117.488, 85.859 110.108 C 90.150 102.533, 90.996 100.309, 90.234 98.608 C 89.512 96.998, 89.904 95.370, 91.895 91.714 C 94.319 87.261, 94.379 86.858, 92.750 85.915 C 91.788 85.357, 91 84.073, 91 83.061 C 91 81.924, 90.333 81.275, 89.250 81.361 C 87.948 81.464, 87.491 80.731, 87.464 78.500 C 87.443 76.850, 87.103 74.975, 86.706 74.334 C 85.381 72.189, 88.162 62.573, 92.113 55.643 C 98.186 44.990, 101.433 36.227, 99.964 34.456 C 98.965 33.253, 99.156 33, 101.063 33 C 102.333 33, 104.300 32.139, 105.436 31.087 C 108.251 28.477, 109.803 28.365, 114.702 30.418 C 118.041 31.817, 119.142 32.931, 120.062 35.839 C 120.699 37.853, 121.932 40.063, 122.801 40.750 C 124.236 41.884, 124.236 42, 122.809 42 C 121.283 42, 113 49.536, 113 50.925 C 113 51.305, 115.025 53.042, 117.500 54.787 C 119.975 56.531, 122 58.481, 122 59.120 C 122 59.758, 122.936 62.156, 124.081 64.448 L 126.162 68.615 122.634 76.001 L 119.106 83.387 122.571 93.342 C 124.477 98.817, 125.807 103.526, 125.527 103.807 C 125.247 104.087, 125.492 104.888, 126.073 105.587 C 126.653 106.287, 127.293 108.128, 127.494 109.679 C 127.695 111.231, 129.230 115.855, 130.905 119.957 C 132.580 124.058, 133.563 127.658, 133.091 127.957 C 132.618 128.255, 132.056 129.400, 131.841 130.500 C 131.543 132.030, 130.634 132.511, 127.976 132.546 C 122.462 132.620, 120.998 133.737, 121.015 137.857 C 121.024 139.861, 121.391 142.068, 121.832 142.763 C 122.459 143.750, 130.285 143.969, 157.567 143.763 L 192.500 143.500 192.757 71.750 L 193.013 0 96.507 0 L 0 0 0 72 M 0.474 72.500 C 0.474 112.100, 0.598 128.154, 0.750 108.176 C 0.901 88.198, 0.901 55.798, 0.750 36.176 C 0.598 16.554, 0.474 32.900, 0.474 72.500 M 116 69.778 C 116 72.650, 116.213 75, 116.474 75 C 116.735 75, 117.677 73.592, 118.567 71.870 C 120.106 68.894, 120.083 68.639, 118.093 66.648 L 116 64.556 116 69.778 M 98.639 71.498 C 97.732 73.862, 97.848 76, 98.883 76 C 100.110 76, 100.913 72.478, 100.017 71.027 C 99.489 70.173, 99.096 70.307, 98.639 71.498 M 109.441 137.468 C 108.374 138.276, 105.378 138.951, 102.785 138.968 C 99.168 138.993, 97.829 139.450, 97.035 140.934 C 96.466 141.998, 96 143.123, 96 143.434 C 96 143.745, 100.002 144, 104.893 144 C 114.481 144, 115.217 143.584, 114.280 138.687 C 113.703 135.665, 112.294 135.310, 109.441 137.468" stroke="none" fill="black" fill-rule="evenodd"/>
</svg>