<svg xmlns="http://www.w3.org/2000/svg" width="192" height="144" viewBox="0 0 192 144" version="1.1">
	<path d="M 113.595 17.170 C 115.474 19.310, 115.473 19.329, 113.500 18.577 C 112.400 18.158, 109.011 17.578, 105.968 17.288 C 101.045 16.820, 100.093 17.051, 97.317 19.387 C 95.499 20.917, 93.218 21.905, 91.849 21.756 C 90.008 21.555, 89.560 21.933, 89.778 23.500 C 90.184 26.421, 90.463 27.351, 91.364 28.794 C 91.818 29.520, 91.665 30.698, 91.017 31.480 C 90.181 32.487, 90.157 33.426, 90.931 34.870 C 92.761 38.290, 92.240 58.651, 90.120 66.520 C 89.079 70.384, 88.339 76.046, 88.461 79.203 C 88.582 82.340, 88.344 87.515, 87.930 90.703 C 87.178 96.507, 86.536 105.896, 85.486 126.500 C 85.177 132.550, 84.696 138.963, 84.417 140.750 L 83.909 144 107.022 144 C 128.561 144, 130.100 143.881, 129.627 142.250 C 129.348 141.287, 128.604 138.475, 127.976 136 C 126.732 131.106, 125.700 127.642, 121 112.590 C 117.218 100.480, 115.015 89.371, 115.693 85.827 C 116.316 82.568, 119.667 81.374, 120.533 84.103 C 120.864 85.146, 121.570 86, 122.103 86 C 122.703 86, 122.677 85.266, 122.035 84.066 C 120.531 81.254, 120.727 80.893, 123.395 81.563 C 125.295 82.040, 126.138 81.579, 127.477 79.332 C 128.406 77.774, 130.561 75.825, 132.267 75 C 138.910 71.787, 138.403 67.198, 131.225 65.571 C 125.760 64.333, 124.886 61.282, 128.453 55.892 L 131.006 52.034 125.253 47.518 C 122.089 45.034, 118.906 43.001, 118.180 43.001 C 116.209 43, 117.172 38.890, 119.445 37.602 C 123.997 35.023, 125.228 33.295, 124.063 31.118 C 123.453 29.978, 122.064 28.570, 120.977 27.988 C 119.746 27.329, 119 25.896, 119 24.187 C 119 20.427, 115.253 15.060, 112.595 15.015 C 112.097 15.007, 112.547 15.976, 113.595 17.170" stroke="none" fill="black" fill-rule="evenodd"/>
</svg>