<svg xmlns="http://www.w3.org/2000/svg" width="192" height="144" viewBox="0 0 192 144" version="1.1">
	<path d="M 187.017 2.455 C 186.504 3.805, 186.349 7.153, 186.674 9.894 C 187.178 14.154, 186.633 16.592, 182.918 26.689 C 175.453 46.974, 161.362 73.288, 153.305 81.990 C 152.037 83.359, 150.933 85.047, 150.850 85.740 C 150.767 86.433, 150.655 87.495, 150.600 88.101 C 150.545 88.707, 152.523 89.363, 155 89.561 C 158.992 89.879, 159.811 89.570, 162.250 86.825 L 165 83.729 165 87.210 C 165 89.405, 165.729 91.350, 166.975 92.477 C 168.886 94.206, 168.980 94.183, 169.902 91.759 C 170.756 89.511, 175.473 87.139, 176.682 88.349 C 177.800 89.467, 175.471 96.585, 173.343 98.558 C 167.637 103.846, 150.921 104.962, 131.239 101.369 C 129.275 101.010, 127.386 101.265, 126.489 102.009 C 124.684 103.507, 124.504 109.886, 126.250 110.508 C 128.716 111.386, 135.695 111.859, 147.250 111.929 C 153.713 111.968, 159 112.409, 159 112.908 C 159 114.099, 147.398 118, 143.855 118 C 137.675 118, 131.158 120.110, 129.493 122.651 C 127.947 125.010, 127.958 125.252, 129.673 126.551 C 132.517 128.707, 137.519 128.234, 150.319 124.596 C 162.792 121.051, 171.194 116.410, 174.620 111.172 C 175.581 109.703, 178.468 106.250, 181.036 103.500 C 183.603 100.750, 187.008 96.250, 188.602 93.500 C 191.338 88.779, 191.520 87.752, 191.852 75.085 L 192.204 61.671 186.536 66.514 C 183.418 69.177, 180.164 72.717, 179.304 74.379 C 177.434 77.995, 175.550 80, 174.022 80 C 173.405 80, 171.543 80.702, 169.883 81.561 C 164.842 84.167, 164.668 82.763, 169.186 75.967 C 176.783 64.538, 180.749 57.658, 185.036 48.471 C 191.889 33.787, 192 33.267, 192 15.874 C 192 0.602, 191.923 0, 189.975 0 C 188.746 0, 187.584 0.964, 187.017 2.455 M 92.305 47.647 C 91.957 48.554, 92.171 50.616, 92.781 52.230 C 93.666 54.575, 93.560 55.854, 92.254 58.593 C 91.028 61.164, 90.906 62.306, 91.763 63.163 C 92.461 63.861, 92.575 64.928, 92.056 65.903 C 90.930 68.019, 89.006 84.002, 89.003 91.275 C 89 96.516, 89.231 97.137, 91.500 98 C 94.698 99.216, 94.667 100.375, 91.398 101.864 C 89.253 102.842, 89.012 103.309, 90.021 104.525 C 91.432 106.225, 101.506 106.608, 102.500 105 C 102.840 104.450, 102.405 104, 101.534 104 C 99.795 104, 97.619 99.425, 98.602 97.835 C 98.941 97.287, 100.267 97.101, 101.548 97.423 C 102.829 97.744, 104.077 97.668, 104.322 97.254 C 104.833 96.387, 101.364 76.398, 100.444 74.910 C 99.246 72.971, 99.631 55.149, 100.905 53.615 C 101.878 52.442, 101.881 51.638, 100.920 49.814 C 100.249 48.541, 99.205 47.169, 98.600 46.765 C 96.626 45.447, 92.952 45.962, 92.305 47.647 M 190.625 56.798 C 190.354 57.237, 190.545 58.249, 191.051 59.048 C 191.768 60.182, 191.973 60.007, 191.985 58.250 C 192 55.937, 191.492 55.394, 190.625 56.798 M 187.892 128.750 C 186.077 131.912, 183.580 136.637, 182.342 139.250 L 180.092 144 186.046 144 L 192 144 192 133.500 C 192 127.725, 191.818 123, 191.595 123 C 191.373 123, 189.706 125.588, 187.892 128.750" stroke="none" fill="black" fill-rule="evenodd"/>
</svg>