<svg xmlns="http://www.w3.org/2000/svg" width="192" height="144" viewBox="0 0 192 144" version="1.1">
	<path d="M 0 10 C 0 19.135, 0.760 21.816, 2.535 18.943 C 3.351 17.623, 11.883 13.753, 18.500 11.702 C 43.020 4.103, 71.630 14.447, 85.106 35.785 C 93.005 48.293, 95.125 56.082, 95.504 74 C 95.794 87.679, 96.983 92.852, 102.285 103.500 C 107.983 114.945, 118.682 125.500, 130.175 131.015 C 140.719 136.074, 148.876 137.452, 162.708 136.509 C 172.171 135.864, 173.810 135.433, 182.047 131.424 C 186.996 129.015, 191.234 126.472, 191.464 125.772 C 191.694 125.072, 192.032 96.487, 192.216 62.250 L 192.550 0 96.275 0 L 0 0 0 10 M 0.365 10.500 C 0.368 16, 0.536 18.122, 0.738 15.216 C 0.941 12.311, 0.939 7.811, 0.734 5.216 C 0.528 2.622, 0.363 5, 0.365 10.500 M 144.299 39.900 C 138.398 43.607, 136.145 52.511, 139.476 58.953 C 142.602 64.999, 151.662 67.789, 157.800 64.595 C 167.372 59.615, 168.681 48.630, 160.603 41.083 C 156.974 37.693, 148.760 37.097, 144.299 39.900 M 31.898 76.258 C 26.949 79.547, 23.722 86.340, 24.444 91.950 C 26.440 107.465, 46.022 112.530, 54.350 99.686 C 61.609 88.492, 53.795 74, 40.500 74 C 36.767 74, 34.335 74.639, 31.898 76.258" stroke="none" fill="black" fill-rule="evenodd"/>
</svg>