<svg xmlns="http://www.w3.org/2000/svg" width="192" height="144" viewBox="0 0 192 144" version="1.1">
	<path d="M 0.027 72 L 0.034 144 26.517 144 C 52.333 144, 53 143.950, 53 142 C 53 139.410, 54.679 139.414, 55.502 142.007 C 56.133 143.994, 56.826 144.011, 124.320 143.757 L 192.500 143.500 192.746 71.750 L 192.992 0 163.488 0 C 134.589 0, 134.008 0.040, 135.188 1.930 C 136.212 3.569, 136.031 4.154, 133.988 5.808 C 132.134 7.310, 131.189 7.511, 129.866 6.684 C 128.321 5.719, 128.295 5.331, 129.600 2.806 L 131.051 0 100.936 0 C 71.287 0, 70.793 0.033, 69.072 2.159 C 67.218 4.449, 64.450 3.876, 65.400 1.399 C 66.031 -0.244, 61.497 -0.614, 60.500 1 C 60.160 1.550, 58.757 2, 57.382 2 C 56.005 2, 55.154 1.560, 55.487 1.020 C 55.873 0.396, 50.665 0.069, 41.137 0.119 C 26.792 0.195, 26.159 0.284, 25.629 2.310 L 25.077 4.421 22.724 2.211 C 20.615 0.229, 19.318 0, 10.196 0 L 0.020 0 0.027 72 M 0.454 39 C 0.454 60.175, 0.587 68.838, 0.749 58.250 C 0.911 47.663, 0.911 30.338, 0.749 19.750 C 0.587 9.163, 0.454 17.825, 0.454 39 M 39.750 12.662 C 40.438 12.940, 41.563 12.940, 42.250 12.662 C 42.938 12.385, 42.375 12.158, 41 12.158 C 39.625 12.158, 39.063 12.385, 39.750 12.662 M 74.441 22.468 C 72.889 23.642, 72.813 23.943, 74.059 23.968 C 74.916 23.986, 76.491 23.339, 77.559 22.532 C 79.111 21.358, 79.187 21.057, 77.941 21.032 C 77.084 21.014, 75.509 21.661, 74.441 22.468 M 130.079 25.265 C 128.747 25.944, 127.447 27.138, 127.190 27.917 C 126.886 28.838, 127.822 28.551, 129.861 27.099 C 134.174 24.028, 134.281 23.121, 130.079 25.265 M 39.500 38 C 39.160 38.550, 39.835 39, 41 39 C 42.165 39, 42.840 38.550, 42.500 38 C 42.160 37.450, 41.485 37, 41 37 C 40.515 37, 39.840 37.450, 39.500 38 M 75 38.941 C 75 40.513, 76.978 41.222, 79.557 40.575 C 83.193 39.663, 82.510 38, 78.500 38 C 76.575 38, 75 38.423, 75 38.941 M 6.500 44 C 8.307 45.996, 11 46.715, 11 45.200 C 11 43.742, 8.629 42, 6.645 42 C 4.753 42, 4.749 42.065, 6.500 44 M 158 50.059 C 158 50.641, 158.450 50.840, 159 50.500 C 159.550 50.160, 160 49.684, 160 49.441 C 160 49.198, 159.550 49, 159 49 C 158.450 49, 158 49.477, 158 50.059 M 174.306 75.468 C 170.497 78.819, 173.467 78.845, 178 75.500 C 180.934 73.336, 181.101 73, 179.250 73 C 178.074 73, 175.849 74.111, 174.306 75.468 M 94.909 77.909 C 93.694 81.964, 94.309 87, 96.019 87 C 96.559 87, 97 86.163, 97 85.140 C 97 84.116, 97.286 81.191, 97.636 78.640 C 98.433 72.828, 96.580 72.332, 94.909 77.909 M 69.185 76.750 C 69.403 77.903, 70.623 78.607, 72.758 78.813 C 76.139 79.140, 76.841 78.241, 74.800 76.200 C 72.873 74.273, 68.791 74.673, 69.185 76.750 M 79 78.941 C 79 79.459, 79.445 80.157, 79.989 80.493 C 80.555 80.843, 80.723 80.442, 80.382 79.552 C 79.717 77.820, 79 77.503, 79 78.941 M 0.447 112 C 0.447 129.875, 0.582 137.188, 0.748 128.250 C 0.914 119.312, 0.914 104.687, 0.748 95.750 C 0.582 86.813, 0.447 94.125, 0.447 112 M 164.250 86.648 C 160.690 88.403, 159.988 90, 162.777 90 C 164.865 90, 169 87.304, 169 85.943 C 169 84.641, 168.027 84.786, 164.250 86.648 M 15.154 88.552 C 15.345 89.532, 16.105 90.536, 16.846 90.782 C 17.706 91.069, 18.066 90.588, 17.846 89.448 C 17.655 88.468, 16.895 87.464, 16.154 87.218 C 15.294 86.931, 14.934 87.412, 15.154 88.552 M 71.500 89 C 70.498 90.107, 69.904 91.237, 70.179 91.512 C 70.454 91.787, 71.498 91.107, 72.500 90 C 73.502 88.893, 74.096 87.763, 73.821 87.488 C 73.546 87.213, 72.502 87.893, 71.500 89 M 79.248 91.356 C 77.412 95.385, 77.709 98.184, 79.602 94.692 C 80.439 93.148, 80.983 91.149, 80.810 90.251 C 80.583 89.075, 80.146 89.384, 79.248 91.356 M 111.500 99 C 112.495 100.100, 113.535 101, 113.810 101 C 114.085 101, 113.495 100.100, 112.500 99 C 111.505 97.900, 110.465 97, 110.190 97 C 109.915 97, 110.505 97.900, 111.500 99 M 43.112 99.644 C 41.928 100.981, 41.928 101.339, 43.112 102.083 C 44.375 102.876, 47.770 102.421, 48.998 101.294 C 49.511 100.823, 46.059 97.970, 45.059 98.038 C 44.751 98.059, 43.875 98.781, 43.112 99.644 M 157.074 100.411 C 155.413 102.412, 154.562 108.611, 155.840 109.401 C 157.078 110.166, 158.374 107.996, 159.811 102.750 C 160.615 99.816, 160.557 99, 159.542 99 C 158.829 99, 157.718 99.635, 157.074 100.411 M 58 101.721 C 54.767 102.301, 52.924 104.005, 55.550 103.986 C 58.599 103.965, 62 102.856, 62 101.883 C 62 101.398, 61.663 101.061, 61.250 101.136 C 60.837 101.211, 59.375 101.474, 58 101.721 M 80.500 116 C 80.840 116.550, 81.568 117, 82.118 117 C 82.668 117, 82.840 116.550, 82.500 116 C 82.160 115.450, 81.432 115, 80.882 115 C 80.332 115, 80.160 115.450, 80.500 116 M 97.500 116 C 98.600 116.473, 100.175 116.884, 101 116.914 C 102.333 116.963, 102.333 116.862, 101 116 C 100.175 115.467, 98.600 115.055, 97.500 115.086 L 95.500 115.141 97.500 116 M 146 115.590 C 146 116.917, 150.655 119.936, 152.750 119.967 C 155.476 120.007, 155.621 118.872, 153.171 116.655 C 151.458 115.104, 146 114.294, 146 115.590 M 52.813 123.683 C 53.534 123.972, 54.397 123.936, 54.729 123.604 C 55.061 123.272, 54.471 123.036, 53.417 123.079 C 52.252 123.127, 52.015 123.364, 52.813 123.683 M 20.364 128.506 C 20.767 129.555, 20.571 130.647, 19.906 131.058 C 19.267 131.453, 19.053 132.277, 19.431 132.888 C 21.047 135.503, 30.341 132.970, 29.766 130.072 C 29.554 129.007, 28.332 128.496, 25.977 128.488 C 24.065 128.482, 21.861 128.071, 21.080 127.574 C 19.979 126.875, 19.818 127.084, 20.364 128.506 M 157.511 129.368 C 155.708 130.687, 155.723 130.782, 157.925 131.960 C 160.102 133.125, 167 132.635, 167 131.315 C 167 130.150, 163.466 128.063, 161.441 128.032 C 160.309 128.014, 158.540 128.616, 157.511 129.368 M 93.843 130.667 C 93.141 134.408, 93.470 137, 94.649 137 C 95.392 137, 96.067 136.100, 96.150 135 C 96.233 133.900, 96.345 132.475, 96.400 131.833 C 96.514 130.503, 94.083 129.393, 93.843 130.667 M 58.244 133.250 C 58.881 135.191, 64 135.472, 64 133.566 C 64 132.483, 63.049 132, 60.917 132 C 58.898 132, 57.975 132.432, 58.244 133.250" stroke="none" fill="black" fill-rule="evenodd"/>
</svg>