<svg xmlns="http://www.w3.org/2000/svg" width="192" height="144" viewBox="0 0 192 144" version="1.1">
	<path d="M 0 72 L 0 144 46.500 144 C 72.270 144, 93 143.611, 93 143.128 C 93 142.649, 90.727 138.774, 87.948 134.518 C 85.169 130.261, 83.036 126.041, 83.208 125.139 C 83.606 123.042, 92.508 122.456, 101.854 123.911 C 105.456 124.471, 108.588 124.745, 108.815 124.518 C 109.449 123.885, 105.178 110.449, 102.441 104.465 C 101.099 101.530, 100 97.983, 100 96.584 C 100 95.185, 99.276 92.231, 98.392 90.021 C 96.595 85.531, 97.067 82.119, 100.066 77.907 C 102.186 74.930, 102.553 73, 101 73 C 100.450 73, 99.955 71.313, 99.900 69.250 C 99.725 62.652, 98.725 60.950, 93.077 57.633 C 88.722 55.076, 87.367 53.625, 86.106 50.166 C 84.623 46.099, 84.657 45.551, 86.757 39.787 C 88.848 34.045, 88.875 33.627, 87.237 32.400 C 85.591 31.167, 85.596 30.929, 87.324 27.840 C 88.971 24.895, 88.996 24.470, 87.574 23.430 C 84.453 21.149, 86.397 19, 91.582 19 C 93.065 19, 94 18.420, 94 17.500 C 94 15.715, 94.479 15.651, 97.149 17.080 C 98.697 17.908, 99.555 17.808, 100.834 16.650 C 101.911 15.675, 103.042 15.444, 104.031 15.997 C 104.872 16.468, 109.593 17.609, 114.522 18.532 C 132.588 21.918, 138.514 27.491, 141.071 43.500 C 141.897 48.668, 143.057 52.296, 144.349 53.750 C 146.196 55.828, 146.213 56, 144.565 56 C 143.118 56, 142.858 56.656, 143.186 59.471 C 143.447 61.707, 143.130 63.120, 142.296 63.440 C 141.583 63.713, 141 64.851, 141 65.969 C 141 68.369, 139.471 68.669, 138.614 66.437 C 137.836 64.409, 136 65.549, 136 68.059 C 136 69.127, 135.662 69.947, 135.250 69.882 C 133.417 69.592, 132 70.080, 132 71 C 132 71.550, 133.688 72.014, 135.750 72.032 C 140.180 72.069, 141.769 73.167, 144.964 78.397 L 147.344 82.293 149.165 80.044 C 150.300 78.643, 150.772 76.939, 150.417 75.526 C 149.961 73.709, 150.560 72.817, 153.424 71.047 C 156.830 68.942, 157.803 67.136, 156.326 65.659 C 154.877 64.211, 153.898 41.182, 155.250 40.346 C 156.934 39.304, 155.911 37.033, 153.860 37.262 C 151.045 37.575, 150.305 35.356, 152.945 34.517 C 155.365 33.749, 155.373 33.583, 153.656 20 C 152.926 14.225, 152.525 7.362, 152.765 4.750 L 153.201 -0 76.601 -0 L 0 0 0 72 M 155.391 1.750 C 155.680 2.712, 156.621 8.900, 157.482 15.500 C 159.652 32.131, 159.612 32, 162.519 32 C 165.779 32, 165.764 34.591, 162.500 35.411 C 159.370 36.196, 159.285 37.778, 162.313 38.929 C 163.876 39.523, 165.039 41.218, 165.899 44.154 C 166.600 46.544, 167.866 49.584, 168.713 50.909 C 170.161 53.171, 170.711 62.041, 169.523 63.962 C 169.243 64.416, 170.248 65.098, 171.757 65.478 L 174.500 66.169 172.264 67.984 C 169.137 70.521, 167.940 74.284, 168.638 79.379 C 169.284 84.089, 167.961 86.043, 165.505 84.005 C 164.347 83.043, 163.129 84.769, 158.603 93.795 C 152.270 106.422, 152.126 109.674, 157.816 111.551 C 161.634 112.810, 163.278 114.310, 163.476 116.715 C 163.557 117.697, 164.178 119.522, 164.858 120.771 C 166.211 123.259, 165.652 125, 163.501 125 C 162.628 125, 162.007 126.377, 161.810 128.750 C 161.558 131.801, 160.919 132.790, 158.383 134.058 C 155.011 135.743, 147 142.280, 147 143.346 C 147 143.706, 157.125 144, 169.500 144 L 192 144 192 72 L 192 0 173.433 0 C 156.216 0, 154.903 0.127, 155.391 1.750 M 105.450 71.883 C 104.064 73.269, 105.457 74.083, 108.750 73.810 C 113.018 73.457, 112.977 71.518, 108.700 71.467 C 107.160 71.448, 105.698 71.636, 105.450 71.883" stroke="none" fill="black" fill-rule="evenodd"/>
</svg>