<svg xmlns="http://www.w3.org/2000/svg" width="192" height="144" viewBox="0 0 192 144" version="1.1">
	<path d="M 67.539 3.750 C 68.729 10.839, 70.206 14.140, 73.796 17.729 L 77.393 21.326 70.695 20.700 C 64.353 20.108, 63.911 20.206, 62.383 22.537 C 61.496 23.892, 60.216 25, 59.540 25 C 58.863 25, 57.484 25.913, 56.474 27.029 C 54.687 29.003, 54.695 29.098, 56.742 30.532 C 59.497 32.461, 61.359 38.270, 60.571 42.473 C 60.219 44.349, 60.373 45.965, 60.923 46.157 C 62.009 46.538, 62.217 54.563, 61.439 66 C 61.158 70.125, 60.784 76.425, 60.607 80 C 60.431 83.575, 59.906 88.075, 59.441 90 C 58.975 91.925, 58.449 95.975, 58.271 99 C 58.092 102.025, 57.724 107.875, 57.452 112 C 56.471 126.898, 56.306 144, 57.144 144 C 57.615 144, 58 142.875, 58 141.500 C 58 139.944, 58.567 139, 59.500 139 C 60.433 139, 61 139.944, 61 141.500 C 61 142.875, 61.499 144, 62.109 144 C 62.846 144, 62.989 142.741, 62.534 140.250 C 61.626 135.273, 61.488 130.176, 62.162 126.500 C 62.464 124.850, 62.355 122.533, 61.919 121.352 C 61.452 120.085, 61.709 117.009, 62.545 113.852 C 63.325 110.908, 63.663 107.600, 63.295 106.500 C 62.464 104.012, 62.888 99.873, 64.130 98.358 C 64.645 97.729, 65.057 94.354, 65.046 90.858 C 65.029 85.696, 65.485 75.062, 65.913 70.600 C 65.961 70.105, 67.275 71.455, 68.833 73.600 C 70.391 75.745, 76.213 81.797, 81.769 87.049 L 91.872 96.597 88.686 100.633 C 86.934 102.853, 82.379 110.811, 78.565 118.317 C 72.811 129.642, 71.556 132.990, 71.195 137.983 L 70.760 144 102.380 144 L 134 144 133.964 141.750 C 133.945 140.512, 133.532 135.063, 133.048 129.640 C 132.564 124.217, 132.420 117.329, 132.729 114.333 C 133.279 109.008, 133.399 108.831, 138.109 106.445 C 143.917 103.501, 149.352 98.867, 153.172 93.600 C 156.653 88.799, 156.973 82.332, 154.015 76.530 C 152.923 74.388, 152.136 72.531, 152.265 72.402 C 152.394 72.273, 154.896 71.223, 157.825 70.069 C 163.041 68.013, 163.204 68.008, 165.825 69.832 C 168.699 71.833, 175.069 74.265, 175.722 73.611 C 175.941 73.392, 174.406 71.517, 172.310 69.444 C 170.215 67.371, 169.175 65.930, 170 66.242 C 170.825 66.553, 172.339 67.144, 173.365 67.555 C 174.923 68.179, 175.121 67.957, 174.567 66.212 C 174.077 64.667, 174.482 63.813, 176.120 62.936 L 178.336 61.750 175.918 60.410 C 172.138 58.316, 160.558 58.684, 152.757 61.146 C 149.018 62.326, 145.710 63.043, 145.405 62.739 C 144.473 61.806, 147.961 56, 149.453 56 C 150.224 56, 151.615 54.278, 152.544 52.172 C 153.760 49.417, 155.391 47.806, 158.366 46.422 C 162.007 44.729, 162.537 44.053, 162.810 40.750 C 163.189 36.172, 162.238 36.052, 156.557 39.961 C 154.191 41.589, 151.991 42.658, 151.669 42.336 C 151.348 42.014, 149.681 42.932, 147.966 44.376 C 146.202 45.860, 143.613 47, 142.007 47 C 140.086 47, 138.541 47.859, 137.234 49.653 L 135.301 52.307 128.991 49.153 C 123.903 46.611, 121.453 46, 116.340 46 C 111.371 46, 110 46.324, 110 47.500 C 110 48.325, 109.438 49.003, 108.750 49.007 C 106.655 49.018, 102.572 55.965, 102.812 59.110 C 103.054 62.297, 102.768 62.481, 99.934 60.965 C 98.335 60.109, 98 60.261, 98 61.842 C 98 62.894, 97.325 64.315, 96.500 65 C 95.675 65.685, 95 66.897, 95 67.694 C 95 68.491, 94.325 69.818, 93.500 70.643 C 91.421 72.722, 91.626 76.255, 94 79.273 C 97.687 83.960, 96.050 83.352, 90.250 77.879 C 87.088 74.895, 82.851 71.114, 80.835 69.477 C 77.365 66.659, 77.080 65.967, 75.479 56.500 C 74.548 51, 73.603 46.194, 73.377 45.819 C 73.152 45.445, 73.423 44.857, 73.980 44.512 C 74.627 44.112, 74.419 42.777, 73.402 40.811 C 72.087 38.268, 72.045 37.587, 73.156 36.883 C 75.249 35.556, 75.501 35.742, 77.369 39.976 C 79.239 44.214, 82.627 47.121, 87.500 48.667 C 89.425 49.278, 91.019 50.778, 91.949 52.853 C 93.894 57.192, 97.282 56.889, 98 52.311 C 98.363 49.994, 99.683 48.268, 102.827 45.999 C 110.200 40.677, 112.183 31.677, 107.500 24.785 C 104.407 20.234, 104.409 19.865, 107.535 14.531 C 108.929 12.151, 110.342 7.909, 110.674 5.102 L 111.279 -0 89.094 -0 L 66.909 -0 67.539 3.750 M 58.500 29 C 58.160 29.550, 58.584 30, 59.441 30 C 60.298 30, 61 29.550, 61 29 C 61 28.450, 60.577 28, 60.059 28 C 59.541 28, 58.840 28.450, 58.500 29 M 62.651 63.468 C 62.341 64.275, 62.518 65.202, 63.044 65.527 C 63.570 65.852, 64 65.191, 64 64.059 C 64 61.644, 63.444 61.401, 62.651 63.468 M 62 78.417 C 62 80.097, 62.549 81, 63.570 81 C 64.612 81, 65.032 80.271, 64.820 78.828 C 64.348 75.627, 62 75.284, 62 78.417 M 60.667 92.667 C 59.409 93.925, 60 97, 61.500 97 C 62.433 97, 63 96.056, 63 94.500 C 63 92.072, 62.026 91.307, 60.667 92.667 M 59 110 C 59 111.111, 59.667 112, 60.500 112 C 61.333 112, 62 111.111, 62 110 C 62 108.889, 61.333 108, 60.500 108 C 59.667 108, 59 108.889, 59 110 M 58 125.583 C 58 128.716, 60.348 128.373, 60.820 125.172 C 61.032 123.729, 60.612 123, 59.570 123 C 58.549 123, 58 123.903, 58 125.583" stroke="none" fill="black" fill-rule="evenodd"/>
</svg>