<svg xmlns="http://www.w3.org/2000/svg" width="192" height="144" viewBox="0 0 192 144" version="1.1">
	<path d="M -0 59.122 C -0 115.203, 0.090 118.174, 1.743 116.872 C 2.702 116.118, 4.319 114.476, 5.336 113.224 C 8.331 109.539, 17.874 103.601, 27 99.744 C 42.494 93.195, 67.992 88.504, 90.444 88.070 C 101.204 87.863, 102 87.674, 102 85.322 C 102 84.464, 103.582 81.157, 105.516 77.973 C 110.705 69.432, 115.664 55.399, 115.409 49.983 C 115.293 47.517, 115.153 42.795, 115.099 39.490 C 115.017 34.519, 114.561 33.006, 112.460 30.740 C 110.862 29.017, 108.885 28, 107.134 28 C 103.234 28, 99.985 24.233, 99.808 19.504 C 99.690 16.383, 100.243 15.172, 102.848 12.845 C 104.599 11.280, 107.149 10, 108.516 10 C 110.570 10, 111 9.515, 111 7.200 C 111 3.819, 109.376 2, 106.359 2 C 105.126 2, 103.839 1.549, 103.498 0.997 C 103.084 0.327, 102.257 0.327, 101.005 0.997 C 98.582 2.294, 91.301 2.296, 90.500 1 C 90.103 0.357, 73.823 0, 44.941 0 L 0 0 -0 59.122 M 166.911 4.750 C 167.958 7.362, 170.245 12.875, 171.993 17 C 173.742 21.125, 176.282 27.650, 177.639 31.500 C 179.616 37.108, 181.128 39.445, 185.244 43.250 C 188.069 45.862, 190.745 48, 191.190 48 C 191.636 48, 192 37.200, 192 24 L 192 0 178.504 -0 L 165.008 -0 166.911 4.750 M 131.224 33.823 C 130.390 34.364, 129.643 38.966, 129.064 47.143 C 128.367 56.973, 127.623 60.955, 125.576 65.819 C 122.692 72.672, 120 82.232, 120 85.622 C 120 87.427, 120.722 87.930, 124 88.412 C 137.067 90.333, 135.894 90.430, 136.972 87.337 C 137.515 85.776, 138.608 83.288, 139.401 81.807 C 140.645 79.481, 140.648 78.953, 139.421 77.934 C 137.307 76.180, 137.549 75.646, 143.087 69.836 C 149.035 63.598, 150.486 61.041, 151.376 55.232 C 152.444 48.257, 151.493 46.362, 146.263 45.045 C 141.910 43.949, 137.895 40.706, 134 35.140 C 133.030 33.753, 132.050 33.288, 131.224 33.823 M 91.500 96.678 C 63.543 98.077, 41.425 102.585, 24.783 110.274 C 15.076 114.759, 14.317 115.369, 4.472 126.604 C 0.575 131.052, 0 132.294, 0 136.272 C -0 144.789, -7.456 144, 73.017 144 L 144.820 144 145.439 135.250 C 145.982 127.566, 147.204 116.216, 148.699 104.973 L 149.168 101.446 141.834 99.747 C 131.331 97.313, 120.381 96.439, 118.629 97.893 C 116.926 99.306, 106.322 98.778, 103.236 97.126 C 102.079 96.507, 100.314 96.085, 99.316 96.189 C 98.317 96.293, 94.800 96.513, 91.500 96.678" stroke="none" fill="black" fill-rule="evenodd"/>
</svg>