<svg xmlns="http://www.w3.org/2000/svg" width="192" height="144" viewBox="0 0 192 144" version="1.1">
	<path d="M 74.013 33.167 C 74.020 33.900, 74.931 37.389, 76.038 40.920 C 77.219 44.689, 77.981 49.665, 77.882 52.968 C 77.718 58.425, 79.128 63, 80.974 63 C 81.749 63, 82.190 64.999, 83.397 74 C 83.507 74.825, 84.230 76.625, 85.002 78 C 86.919 81.411, 87.189 96.010, 85.322 95.293 C 83.316 94.524, 83.727 97.473, 86.216 101.720 C 88.050 104.849, 88.438 107.051, 88.466 114.500 C 88.504 124.538, 89.859 127.563, 95.546 130.304 C 98.327 131.645, 98.822 131.605, 101.241 129.843 C 104.789 127.258, 105.999 120.174, 103.535 116.414 C 101.936 113.972, 101.943 113.720, 103.672 111.804 C 105.183 110.129, 105.453 108.367, 105.231 101.639 C 105.083 97.162, 104.554 92.150, 104.056 90.500 C 103.558 88.850, 102.885 78.950, 102.561 68.500 C 101.914 47.650, 101.116 44.836, 95.664 44.185 C 91.934 43.739, 87.639 48.444, 88.382 52.161 C 89.178 56.138, 87.119 56.131, 83.358 52.144 C 80.822 49.455, 79.655 46.848, 78.210 40.640 C 77.182 36.226, 75.814 32.438, 75.170 32.223 C 74.527 32.009, 74.006 32.433, 74.013 33.167 M 85.143 61.890 C 84.206 62.484, 83.998 63.716, 84.473 65.875 C 84.997 68.261, 85.698 69, 87.441 69 C 89.614 69, 89.671 68.810, 88.654 65 C 87.521 60.755, 87.277 60.538, 85.143 61.890" stroke="none" fill="black" fill-rule="evenodd"/>
</svg>