<svg xmlns="http://www.w3.org/2000/svg" width="192" height="144" viewBox="0 0 192 144" version="1.1">
	<path d="M 0 72 L 0 144 31.500 144 C 48.825 144, 63 143.825, 63 143.611 C 63 143.396, 61.264 139.684, 59.142 135.361 C 51.217 119.212, 48.123 105.122, 47.316 81.500 C 46.642 61.766, 47.638 52.420, 52.401 33.808 C 55.568 21.433, 55.615 20.962, 53.837 19.353 C 51.184 16.951, 51.538 14.126, 54.642 12.946 C 56.632 12.190, 59.408 12.459, 65.892 14.036 C 77.931 16.966, 93.029 21.994, 96 24.064 C 97.375 25.021, 109.447 28.343, 122.826 31.446 C 144.836 36.549, 152.028 37.472, 150.498 34.996 C 150.206 34.524, 150.801 33.544, 151.822 32.818 C 152.842 32.093, 153.958 30.375, 154.302 29 C 154.646 27.625, 156.407 24.025, 158.214 21 C 160.770 16.721, 162.610 14.958, 166.500 13.059 C 169.250 11.716, 171.907 9.916, 172.405 9.059 C 172.903 8.201, 175.059 5.813, 177.197 3.750 L 181.084 0 90.542 0 L 0 0 0 72 M 85.019 39.750 C 83.275 44.563, 80.686 53.225, 79.266 59 C 76.947 68.430, 76.679 71.488, 76.645 89 C 76.602 111.116, 77.272 115.005, 84.220 132.991 L 88.473 144 128.028 144 L 167.584 144 171.630 139.750 C 173.855 137.412, 178.428 132.073, 181.791 127.885 L 187.907 120.271 175.916 108.385 C 169.320 101.848, 163.657 95.447, 163.331 94.159 C 162.300 90.092, 164.786 84.577, 170.490 78.274 C 174.530 73.810, 175.918 71.543, 175.658 69.835 C 175.413 68.229, 174.596 67.463, 173.041 67.381 C 171.798 67.316, 170.393 66.641, 169.921 65.881 C 169.204 64.729, 168.708 64.719, 166.933 65.819 C 165.763 66.545, 164.604 66.938, 164.359 66.692 C 163.880 66.214, 162.799 61.315, 162.717 59.250 C 162.689 58.563, 162.276 58, 161.798 58 C 161.320 58, 161.432 57.061, 162.046 55.914 C 162.660 54.767, 162.896 53.563, 162.572 53.239 C 162.247 52.914, 162.953 51.614, 164.141 50.350 C 166.111 48.253, 166.150 47.995, 164.578 47.391 C 163.542 46.994, 161.754 47.545, 160.094 48.773 C 158.575 49.896, 155.795 50.967, 153.916 51.153 C 150.567 51.486, 150.502 51.420, 150.610 47.795 C 150.710 44.428, 150.442 44.040, 147.610 43.460 C 145.899 43.109, 133.585 40.162, 120.243 36.911 C 106.902 33.660, 94.232 31, 92.088 31 L 88.189 31 85.019 39.750 M 181.111 87.101 L 175.960 91.202 182.148 97.851 C 188.791 104.989, 191.249 106.836, 188.480 102.611 C 187.033 100.402, 186.954 99.526, 187.977 97.054 C 188.646 95.441, 188.930 93.696, 188.609 93.176 C 188.288 92.656, 187.946 90.154, 187.850 87.616 C 187.754 85.077, 187.357 83, 186.968 83 C 186.580 83, 183.943 84.845, 181.111 87.101" stroke="none" fill="black" fill-rule="evenodd"/>
</svg>