<svg xmlns="http://www.w3.org/2000/svg" width="192" height="144" viewBox="0 0 192 144" version="1.1">
	<path d="M 184.750 43.324 C 183.238 44.562, 182 46.147, 182 46.847 C 182 47.546, 181.564 47.848, 181.030 47.519 C 179.956 46.855, 177 53.166, 177 56.122 C 177 57.155, 177.525 58, 178.167 58 C 178.808 58, 179.049 58.284, 178.702 58.631 C 178.355 58.979, 178.481 60.031, 178.984 60.970 C 180.290 63.410, 179.157 66.726, 176.807 67.340 C 175.702 67.629, 175.064 68.295, 175.388 68.819 C 175.712 69.343, 175.083 70.007, 173.989 70.293 C 170.742 71.142, 171.726 73, 175.422 73 C 178.387 73, 178.995 73.435, 179.965 76.250 C 180.628 78.175, 183.106 81.059, 186.042 83.323 C 188.769 85.426, 191 87.502, 191 87.936 C 191 88.371, 188.300 89.939, 185 91.420 C 181.700 92.900, 179 94.509, 179 94.994 C 179 95.479, 176.863 95.664, 174.250 95.404 C 160.413 94.029, 146.599 93.877, 144.362 95.074 C 142.461 96.091, 141.220 96.061, 137.760 94.913 C 131.933 92.980, 119.801 93.033, 117.928 95 C 116.102 96.918, 116.114 99.041, 117.962 101.238 C 118.925 102.383, 119.761 102.639, 120.412 101.988 C 120.955 101.445, 122.998 101.003, 124.950 101.007 C 129.517 101.016, 143.227 105.653, 144.287 107.548 C 144.734 108.346, 146.147 109, 147.427 109 C 148.708 109, 150.264 109.613, 150.886 110.363 C 152.862 112.743, 185.857 114.260, 189.750 112.149 L 192 110.930 192 75.965 L 192 41 189.750 41.036 C 188.512 41.056, 186.262 42.085, 184.750 43.324" stroke="none" fill="black" fill-rule="evenodd"/>
</svg>