<svg xmlns="http://www.w3.org/2000/svg" width="192" height="144" viewBox="0 0 192 144" version="1.1">
	<path d="M 0 72 L 0 144 36.500 144 L 73 144 72.995 141.250 C 72.990 138.089, 75.449 124.849, 78.016 114.217 C 79.273 109.010, 79.528 105.874, 78.911 103.217 C 78.436 101.173, 78.037 97.315, 78.024 94.644 L 78 89.788 75.099 92.894 C 73.503 94.602, 71.816 95.997, 71.349 95.992 C 70.882 95.988, 67.575 95.092, 64 94 C 60.425 92.908, 56.228 92.012, 54.673 92.008 C 52.933 92.003, 50.784 90.943, 49.083 89.250 C 46.915 87.092, 45.310 86.473, 41.629 86.374 C 33.894 86.167, 23.051 81, 30.351 81 C 31.644 81, 34.133 80.501, 35.883 79.891 C 38.507 78.976, 38.948 78.406, 38.398 76.641 C 38.031 75.463, 37.402 74.275, 37 74 C 35.682 73.098, 34.807 69, 35.933 69 C 36.520 69, 37 67.930, 37 66.622 C 37 65.315, 37.563 63.802, 38.250 63.260 C 40.258 61.679, 45 60.821, 45 62.040 C 45 62.633, 45.434 62.850, 45.964 62.522 C 46.494 62.194, 48.093 63.770, 49.515 66.024 L 52.102 70.123 49.560 74.671 C 48.162 77.173, 47.247 79.591, 47.527 80.044 C 47.807 80.497, 49.554 80.622, 51.408 80.321 C 53.745 79.942, 56.842 80.600, 61.510 82.467 C 65.211 83.948, 68.582 84.786, 68.999 84.330 C 70.117 83.108, 72.181 76.256, 72.405 73.026 C 72.512 71.483, 74.040 68.580, 75.800 66.575 C 77.560 64.571, 79 62.403, 79 61.757 C 79 61.112, 80.599 58.947, 82.553 56.946 C 86.075 53.339, 86.096 53.266, 84.934 48.654 C 84.290 46.094, 83.423 44, 83.007 44 C 82.591 44, 80.572 42.461, 78.519 40.581 C 74.935 37.299, 74.812 36.968, 75.432 32.331 C 76.359 25.403, 76.472 22.100, 75.956 17 C 75.504 12.543, 75.529 12.501, 78.500 12.630 C 80.150 12.702, 83.750 13.067, 86.500 13.441 C 91.330 14.098, 91.636 13.989, 95.500 10.236 C 97.700 8.099, 100.400 6.097, 101.500 5.789 C 102.600 5.480, 104.258 4.914, 105.186 4.531 C 107.061 3.757, 110.715 8.735, 112.864 14.990 C 113.903 18.013, 113.833 18.649, 112.341 19.740 C 111.393 20.433, 109.556 21, 108.258 21 L 105.898 21 108.323 24.250 C 111.424 28.406, 113.522 35.073, 115.480 47 C 116.685 54.335, 118.154 58.778, 121.927 66.500 C 124.614 72, 127.087 77.850, 127.422 79.500 C 128.028 82.487, 128.023 82.491, 126.265 80.369 C 125.294 79.196, 124.038 77.455, 123.473 76.498 C 122.729 75.240, 122.471 77.764, 122.539 85.629 C 122.610 93.899, 123.131 97.913, 124.713 102.404 C 126.521 107.536, 126.671 109.236, 125.854 115.404 C 125.088 121.181, 124.178 123.560, 120.957 128.201 C 117.053 133.826, 117.015 133.970, 118.086 138.963 L 119.171 144.024 155.835 143.762 L 192.500 143.500 192.757 71.750 L 193.013 0 96.507 0 L 0 0 0 72 M 0.474 72.500 C 0.474 112.100, 0.598 128.154, 0.750 108.176 C 0.901 88.198, 0.901 55.798, 0.750 36.176 C 0.598 16.554, 0.474 32.900, 0.474 72.500 M 79.514 93.250 C 80.304 100.194, 80.414 100.480, 81.933 99.541 C 83.431 98.616, 83.260 94.557, 81.551 90.468 C 79.397 85.314, 78.717 86.242, 79.514 93.250 M 112.518 107.972 C 112.151 108.564, 112.153 110.419, 112.521 112.094 C 113.154 114.977, 113.287 115.050, 115.028 113.475 C 116.333 112.294, 116.640 111.201, 116.087 109.707 C 115.181 107.258, 113.472 106.427, 112.518 107.972" stroke="none" fill="black" fill-rule="evenodd"/>
</svg>