<svg xmlns="http://www.w3.org/2000/svg" width="192" height="144" viewBox="0 0 192 144" version="1.1">
	<path d="M 0 60.371 C 0 72.534, 0.231 74.909, 1.306 73.821 C 3.686 71.413, 3.934 69.128, 2.986 58.339 C 1.541 41.888, 0 42.937, 0 60.371 M 56 97.927 C 56 104.060, 56.277 105.073, 58.414 106.754 C 61.916 109.508, 64 115.357, 64 122.431 C 64 125.890, 64.566 129.392, 65.284 130.374 C 66.662 132.258, 76.722 136.887, 81.250 137.721 C 82.763 137.999, 84 138.704, 84 139.288 C 84 139.871, 85.100 139.316, 86.444 138.053 C 88.772 135.865, 88.811 135.640, 87.260 133.273 C 86.328 131.852, 85.530 128.281, 85.392 124.923 C 85.067 116.957, 84.436 115.423, 80.880 113.950 C 79.201 113.255, 76.754 110.986, 75.442 108.909 C 74.131 106.832, 72.480 104.765, 71.773 104.316 C 71.066 103.867, 69.149 101.700, 67.512 99.500 C 63.376 93.941, 60.035 91, 57.854 91 C 56.227 91, 56 91.849, 56 97.927 M 0.030 121.833 C 0.008 126.397, 0.342 128.053, 1.225 127.758 C 2.600 127.300, 2.392 119.487, 0.938 117 C 0.368 116.025, 0.050 117.718, 0.030 121.833 M 10 140.920 C 10 141.514, 8.650 142, 7 142 C 5.350 142, 4 142.450, 4 143 C 4 143.607, 8.405 144, 15.214 144 C 24.833 144, 26.220 143.802, 24.964 142.607 C 23.115 140.848, 10 139.370, 10 140.920" stroke="none" fill="black" fill-rule="evenodd"/>
</svg>