<svg xmlns="http://www.w3.org/2000/svg" width="192" height="144" viewBox="0 0 192 144" version="1.1">
	<path d="M 0 72 L 0 144 34.386 144 L 68.772 144 74.521 126.250 C 77.683 116.488, 81.109 107.306, 82.135 105.846 C 84.027 103.153, 84.699 98, 83.158 98 C 82.695 98, 81.747 99.902, 81.050 102.227 C 79.198 108.410, 74.994 113.965, 66.849 120.993 C 60.113 126.804, 59.544 127.096, 58.292 125.384 C 57.171 123.851, 56.628 123.751, 54.989 124.775 C 52.859 126.105, 50.060 126.344, 47.611 125.404 C 46.290 124.897, 46.426 124.266, 48.529 121.172 C 51.356 117.012, 51.654 115.535, 49.500 116.362 C 48.675 116.678, 48 116.490, 48 115.944 C 48 115.398, 49.125 114.523, 50.500 114 C 51.875 113.477, 53 112.611, 53 112.075 C 53 111.539, 56.361 107.591, 60.469 103.301 C 64.576 99.010, 68.467 93.925, 69.114 92 C 69.761 90.075, 70.723 88.219, 71.252 87.875 C 72.575 87.015, 71.173 83, 69.549 83 C 68.425 83, 67.059 80.186, 67.014 77.776 C 67.006 77.377, 68.295 76.381, 69.879 75.563 C 73.607 73.635, 74.157 72.174, 74.898 62.228 C 75.485 54.351, 75.418 53.970, 73.507 54.228 C 71.847 54.453, 71.113 53.341, 69.261 47.802 C 65.982 37.990, 66.100 37.879, 79.367 38.310 C 87.166 38.563, 91.292 38.280, 93.145 37.364 C 94.600 36.645, 97.594 35.769, 99.800 35.416 C 105.565 34.494, 106.436 36.521, 104.663 46.735 C 103.916 51.039, 102.700 55.672, 101.960 57.031 C 101.220 58.389, 100.327 61.679, 99.975 64.343 C 99.347 69.094, 99.405 69.230, 103.014 71.509 C 105.933 73.352, 106.948 74.829, 107.930 78.666 C 108.611 81.325, 109.580 84.534, 110.084 85.797 C 110.588 87.060, 111 88.911, 111 89.910 C 111 90.994, 113.806 93.811, 117.968 96.907 C 125.488 102.499, 127.013 104.162, 125.177 104.774 C 123.293 105.402, 123.807 107.470, 126.469 109.971 C 127.827 111.247, 128.701 112.675, 128.410 113.145 C 127.353 114.856, 122.849 113.940, 120.650 111.568 C 118.451 109.194, 118.367 109.183, 117.176 111.090 C 116.505 112.164, 115.680 115.059, 115.342 117.522 C 114.956 120.337, 114.222 122, 113.364 122 C 111.468 122, 111.591 122.871, 115.081 134.106 L 118.163 144.024 155.331 143.762 L 192.500 143.500 192.757 71.750 L 193.013 0 96.507 0 L 0 0 0 72 M 0.474 72.500 C 0.474 112.100, 0.598 128.154, 0.750 108.176 C 0.901 88.198, 0.901 55.798, 0.750 36.176 C 0.598 16.554, 0.474 32.900, 0.474 72.500 M 82.015 87.691 C 82.024 89.236, 82.467 91.175, 83 92 C 83.723 93.118, 83.973 92.560, 83.985 89.809 C 83.993 87.779, 83.550 85.840, 83 85.500 C 82.423 85.143, 82.006 86.070, 82.015 87.691" stroke="none" fill="black" fill-rule="evenodd"/>
</svg>