<svg xmlns="http://www.w3.org/2000/svg" width="192" height="144" viewBox="0 0 192 144" version="1.1">
	<path d="M 0.079 27.250 C 0.122 42.238, 0.391 53.919, 0.676 53.208 C 1.079 52.205, 1.514 52.181, 2.621 53.101 C 5.305 55.328, 5.411 54.886, 6.582 36.737 C 6.904 31.755, 7.547 28.220, 8.074 28.546 C 8.583 28.860, 9 28.277, 9 27.250 C 9 24.843, 11.891 20.790, 12.032 23 C 12.088 23.886, 12.497 23.579, 13.031 22.250 C 13.803 20.330, 14.682 20, 19.019 20 C 23.874 20, 24.167 19.844, 25.551 16.532 C 26.348 14.625, 27 10.125, 27 6.532 L 27 0 18.607 0 C 12.069 0, 10.087 0.332, 9.638 1.500 C 8.892 3.446, 4.385 3.446, 3.638 1.500 C 3.322 0.675, 2.374 0, 1.531 0 C 0.192 0, 0.010 3.412, 0.079 27.250 M 49 1.851 C 49 2.869, 49.503 5.144, 50.117 6.906 C 51.014 9.478, 51.711 10.050, 53.648 9.805 C 54.976 9.637, 56.116 9.050, 56.182 8.500 C 56.248 7.950, 56.884 7.050, 57.596 6.500 C 58.308 5.950, 59.189 4.263, 59.554 2.750 L 60.217 0 54.608 0 C 49.817 0, 49 0.270, 49 1.851 M 97.322 12.750 C 97.876 27.417, 99.312 36.957, 101.136 38.084 C 102.853 39.145, 104.041 38.270, 103.345 36.457 C 102.968 35.475, 103.248 35.158, 104.178 35.515 C 105.118 35.875, 106.017 34.809, 106.908 32.276 C 107.639 30.199, 109.533 26.510, 111.118 24.079 C 112.703 21.647, 114 19.284, 114 18.829 C 114 18.373, 114.626 18, 115.391 18 C 117.361 18, 117.927 11.411, 116.236 8.160 C 115.475 6.697, 115.032 4.263, 115.253 2.750 L 115.654 -0 106.247 -0 L 96.841 -0 97.322 12.750 M 187 1.059 C 187 1.641, 187.417 1.860, 187.926 1.546 C 189.111 0.813, 190.426 11.119, 189.646 15.019 C 189.005 18.226, 189.682 21, 191.107 21 C 191.598 21, 192 16.275, 192 10.500 L 192 0 189.500 0 C 188.125 0, 187 0.477, 187 1.059 M 0.102 108.750 L 0 144 33.364 144 L 66.728 144 67.367 139.337 C 67.719 136.772, 67.893 134.578, 67.753 134.462 C 67.614 134.346, 65.025 134.612, 62 135.053 C 49.826 136.826, 45.565 136.304, 37.119 132 C 32.801 129.800, 28.940 128, 28.538 128 C 26.678 128, 22 123.658, 22 121.932 C 22 120.869, 21.618 120, 21.152 120 C 19.937 120, 17.245 113.198, 16.600 108.500 C 16.172 105.372, 15.010 103.528, 11.276 100.044 C 8.649 97.594, 6.628 95.569, 6.785 95.544 C 6.942 95.520, 6.561 94.038, 5.938 92.251 C 5.315 90.464, 4.466 89.212, 4.051 89.468 C 3.172 90.011, 0.682 82.324, 1.373 81.205 C 1.630 80.790, 1.472 78.887, 1.022 76.975 C 0.543 74.938, 0.162 88.090, 0.102 108.750 M 94.200 79.200 C 92.498 80.902, 92.701 85.948, 94.500 86.638 C 97.056 87.619, 96.168 90.731, 92.067 95.173 C 87.891 99.695, 85.982 104.890, 86.985 109 C 87.484 111.045, 88.224 111.514, 91.047 111.576 C 92.946 111.617, 95.910 111.979, 97.633 112.379 C 100.075 112.947, 102.228 112.417, 107.383 109.981 C 111.023 108.262, 114 106.437, 114 105.927 C 114 105.416, 112.276 103.311, 110.168 101.249 C 107.753 98.886, 105.823 95.743, 104.950 92.750 C 103.973 89.404, 103.042 88, 101.801 88 C 100.687 88, 99.821 86.987, 99.450 85.250 C 98.015 78.545, 96.547 76.853, 94.200 79.200 M 188.441 120.484 C 187.374 121.300, 184.925 122.433, 183 123.003 C 179.827 123.941, 174 130.322, 174 132.858 C 174 135.738, 164.227 138.578, 151.750 139.324 C 150.787 139.381, 150 139.782, 150 140.214 C 150 140.646, 149.100 141, 148 141 C 146.900 141, 146 140.639, 146 140.198 C 146 138.971, 137.165 136.142, 131 135.395 C 127.975 135.028, 124.285 134.114, 122.800 133.364 C 119.031 131.460, 118.920 131.564, 120.551 135.468 C 121.348 137.375, 122 140.075, 122 141.468 L 122 144 157 144 L 192 144 192 131.500 C 192 124.625, 191.636 119, 191.191 119 C 190.746 119, 189.509 119.668, 188.441 120.484" stroke="none" fill="black" fill-rule="evenodd"/>
</svg>