<svg xmlns="http://www.w3.org/2000/svg" width="192" height="144" viewBox="0 0 192 144" version="1.1">
	<path d="M -0 29.331 L -0 58.663 15.498 60.484 L 30.997 62.305 40.182 60.009 C 48.137 58.020, 50.915 57.793, 60.933 58.310 C 77.871 59.183, 92.506 63.355, 117.288 74.374 L 121.077 76.059 120.437 71.239 C 119.877 67.012, 120.201 65.685, 123.071 60.459 C 124.872 57.182, 126.700 52.475, 127.135 50 C 128.827 40.355, 129.295 38.912, 131.034 37.982 C 132.332 37.287, 132.835 35.833, 132.839 32.759 C 132.843 30.417, 133.302 27.309, 133.859 25.853 C 134.979 22.926, 134.522 22, 131.956 22 C 131.015 22, 129.728 21.378, 129.097 20.617 C 127.684 18.914, 129.565 18, 134.481 18 C 137.560 18, 137.930 17.636, 139.611 12.962 C 142.880 3.869, 143.358 3.646, 158.231 4.249 C 170.032 4.728, 171.343 4.973, 173.648 7.136 L 176.168 9.500 178.439 6.863 C 183.077 1.477, 187.998 0.390, 188.004 4.750 C 188.006 6.263, 188.939 9.028, 190.077 10.895 C 192.283 14.513, 191.606 15.952, 187.683 15.985 C 186.247 15.997, 186.021 16.473, 186.606 18.250 C 188.388 23.665, 187.866 24.429, 181.750 25.356 L 176 26.227 176 31.209 C 176 34.127, 175.275 37.454, 174.250 39.238 C 172.736 41.875, 172.701 42.355, 173.990 42.806 C 174.810 43.092, 176.723 44.569, 178.240 46.087 C 181.686 49.532, 181.863 53.885, 178.708 57.553 L 176.417 60.217 179.829 63.629 C 182.726 66.526, 183.147 67.516, 182.614 70.178 C 182.147 72.515, 182.741 74.870, 184.942 79.408 C 189.254 88.298, 190.661 94.254, 189.205 97.450 C 187.951 100.201, 186.826 100.805, 177.608 103.669 C 171.787 105.478, 171.714 105.548, 171.467 109.500 C 171.281 112.501, 171.789 114.124, 173.502 116 C 178.475 121.445, 188 138.979, 188 142.690 C 188 143.566, 188.765 144.013, 189.934 143.820 C 191.818 143.508, 191.883 141.667, 192.456 71.750 L 193.044 -0 96.522 -0 L 0 0 -0 29.331 M 0.442 30 C 0.442 46.225, 0.580 52.862, 0.748 44.750 C 0.916 36.637, 0.916 23.362, 0.748 15.250 C 0.580 7.137, 0.442 13.775, 0.442 30 M 41.500 68.531 C 31.087 72.405, 28.871 73, 24.864 73 C 22.311 73, 21.012 73.526, 20.541 74.750 C 19.550 77.326, 18.076 100.693, 18.033 114.500 C 18.012 121.389, 18.680 130.227, 19.602 135.250 L 21.208 144 63.461 144 L 105.715 144 109.872 134.926 C 112.158 129.936, 114.951 123.113, 116.079 119.764 C 117.207 116.416, 119.226 111.514, 120.565 108.872 C 121.904 106.229, 123 103.644, 123 103.128 C 123 102.612, 121.394 100.266, 119.430 97.916 C 116.903 94.892, 116.034 93.038, 116.454 91.572 C 118.534 84.319, 118.676 84.607, 111.337 81.231 C 92.838 72.718, 74.282 67.651, 57.500 66.529 C 49.406 65.988, 47.795 66.189, 41.500 68.531 M 161.141 82.890 C 159.964 85.425, 158.226 88.712, 157.278 90.193 C 156.329 91.675, 155.893 93.226, 156.308 93.641 C 157.159 94.492, 168.051 92.774, 172.255 91.126 L 175.010 90.046 172.069 85.266 C 170.294 82.382, 167.968 80.049, 166.204 79.383 C 163.359 78.309, 163.221 78.405, 161.141 82.890 M 163.647 118.500 C 164.610 122.848, 168.636 133.349, 171.532 139.063 C 173.687 143.317, 174.447 144, 177.017 144 C 179.121 144, 180 143.514, 180 142.351 C 180 139.600, 171.356 124.650, 167.037 119.930 C 163.044 115.567, 162.993 115.546, 163.647 118.500 M 1.079 142.583 C 1.127 143.748, 1.364 143.985, 1.683 143.188 C 1.972 142.466, 1.936 141.603, 1.604 141.271 C 1.272 140.939, 1.036 141.529, 1.079 142.583" stroke="none" fill="black" fill-rule="evenodd"/>
</svg>