<svg xmlns="http://www.w3.org/2000/svg" width="192" height="144" viewBox="0 0 192 144" version="1.1">
	<path d="M 0 39.500 C 0 61.225, 0.250 79, 0.555 79 C 1.818 79, 13.842 70.278, 18.240 66.171 L 22.980 61.745 28.240 63.985 C 31.133 65.217, 37.775 68.464, 43 71.201 C 52.295 76.070, 52.640 76.164, 59 75.556 C 62.575 75.215, 66.400 74.855, 67.500 74.756 C 68.600 74.657, 70.625 74.856, 72 75.198 C 74.125 75.726, 75.052 75.099, 78.173 71.027 C 80.193 68.391, 83.793 65.148, 86.173 63.820 C 89.353 62.046, 90.407 60.888, 90.150 59.453 C 89.540 56.049, 86 54.730, 86 57.906 C 86 61.265, 82.161 59.290, 81.806 55.749 C 81.630 54, 80.666 52.233, 79.542 51.601 C 76.249 49.749, 74.893 48.184, 75.992 47.505 C 77.494 46.577, 77.211 43.982, 75.672 44.572 C 74.942 44.852, 73.088 44.604, 71.552 44.020 L 68.760 42.958 72.130 39.511 C 75.290 36.278, 75.500 35.638, 75.505 29.229 C 75.512 21.753, 77.020 18.343, 81.670 15.297 C 83.687 13.975, 86.906 13.501, 95.275 13.292 C 107.709 12.982, 111.449 14.105, 114.350 19.016 C 116.178 22.110, 117.440 22.715, 118.498 21.004 C 119.287 19.727, 123.751 21.997, 126.661 25.155 C 127.849 26.445, 129.327 29.405, 129.945 31.733 C 130.879 35.253, 130.799 36.376, 129.475 38.398 C 128.041 40.586, 128.028 41.537, 129.342 47.885 C 130.885 55.342, 130.498 59.221, 127.666 64.687 C 125.428 69.005, 124.621 69.312, 122.329 66.719 C 119.372 63.374, 117.668 54.927, 118.459 47.535 C 119.187 40.737, 118.059 38.380, 116.117 42.643 C 115.259 44.525, 115.239 45.583, 116.040 46.548 C 117.483 48.287, 115.531 52.141, 113.585 51.394 C 112.681 51.047, 111.222 52.659, 109.385 56.034 C 106.803 60.779, 106.492 61.029, 105.620 59.074 C 104.499 56.563, 102.621 56.845, 102.212 59.587 C 101.994 61.048, 103.208 62.127, 107.212 64.032 C 110.972 65.820, 113.367 67.857, 115.500 71.082 C 118.393 75.454, 118.679 75.616, 123.500 75.623 C 126.250 75.626, 130.750 75.972, 133.500 76.391 C 138.163 77.101, 139.140 76.837, 148 72.470 C 153.225 69.895, 159.888 66.724, 162.807 65.424 L 168.114 63.059 174.307 68.789 C 181.339 75.295, 190.725 81.608, 191.788 80.546 C 192.180 80.155, 192.627 61.872, 192.783 39.918 L 193.066 -0 96.533 -0 L 0 0 0 39.500 M 0.455 40 C 0.455 61.725, 0.587 70.612, 0.749 59.750 C 0.910 48.887, 0.910 31.112, 0.749 20.250 C 0.587 9.387, 0.455 18.275, 0.455 40 M 20.784 69.574 C 19.883 71.551, 19.888 72.592, 20.806 74.061 C 21.463 75.112, 22 76.986, 22 78.224 C 22 80.562, 14.151 92.934, 12.641 92.976 C 12.168 92.989, 11.952 89.625, 12.160 85.500 C 12.368 81.375, 12.305 78.010, 12.019 78.022 C 11.734 78.034, 10.487 78.824, 9.249 79.777 C 7.273 81.298, 7.119 81.927, 7.982 84.936 C 8.887 88.093, 8.610 88.882, 4.480 94.932 L -0.005 101.500 -0.002 122.763 L 0 144.026 35.164 143.763 L 70.328 143.500 74.704 130.500 C 78.969 117.833, 81.389 106.115, 80.794 101.020 C 80.535 98.800, 80.202 99.095, 78 103.500 C 75.897 107.707, 74.018 109.483, 66.155 114.699 C 56.246 121.272, 42.921 127.015, 37.665 126.978 C 35.924 126.966, 32.475 125.983, 30 124.794 L 25.500 122.633 32 121.997 C 35.575 121.648, 39.625 120.728, 41 119.953 L 43.500 118.544 41.250 118.202 C 40.013 118.015, 39 117.451, 39 116.950 C 39 115.560, 43.663 114.691, 48.001 115.273 C 51.325 115.719, 52.427 115.329, 55.690 112.553 C 57.786 110.770, 61.936 107.476, 64.912 105.233 C 69.920 101.460, 70.449 100.660, 71.992 94.532 C 73.484 88.605, 73.498 87.819, 72.127 87.051 C 70.987 86.413, 70.873 85.849, 71.682 84.847 C 73.456 82.650, 71.490 79, 68.532 79 C 65.980 79, 65.149 80.356, 67 81.500 C 67.550 81.840, 68 83.527, 68 85.249 C 68 89.079, 65.812 100, 65.044 100 C 64.392 100, 62.695 96.277, 60.508 90.047 C 59.325 86.677, 59.195 84.879, 59.973 82.648 C 60.538 81.027, 61 79.544, 61 79.351 C 61 79.158, 58.714 79, 55.921 79 L 50.841 79 51.493 81.967 C 51.997 84.263, 51.309 86.523, 48.448 91.967 C 46.415 95.835, 44.407 99, 43.985 99 C 43.564 99, 43.017 95.513, 42.771 91.250 C 42.370 84.318, 42.568 83.166, 44.646 80.336 L 46.970 77.173 42.557 74.586 C 36.514 71.045, 35.308 71.197, 35.803 75.438 C 36.125 78.195, 35.353 80.171, 31.908 85.411 C 29.545 89.005, 27.374 91.707, 27.083 91.417 C 26.793 91.126, 26.692 87.426, 26.860 83.194 C 27.119 76.663, 27.532 75.113, 29.589 72.938 L 32.013 70.377 28.473 68.688 C 23.648 66.388, 22.158 66.559, 20.784 69.574 M 163.252 69.817 L 160.004 71.549 162.548 74.094 C 164.463 76.008, 165.537 78.848, 166.889 85.569 C 167.877 90.481, 168.496 94.722, 168.266 94.994 C 167.782 95.562, 163.283 90.397, 158.968 84.320 C 156.973 81.510, 156 78.934, 156 76.461 C 156 72.968, 155.865 72.817, 153.311 73.458 C 150.828 74.081, 145 77.633, 145 78.523 C 145 78.735, 146.085 79.994, 147.411 81.320 C 149.192 83.102, 149.984 85.269, 150.441 89.616 C 150.781 92.852, 151.277 97.188, 151.542 99.250 C 151.807 101.313, 151.638 103, 151.166 103 C 150.694 103, 148.214 99.572, 145.654 95.383 C 142.287 89.873, 141 86.725, 141 84 C 141 79.961, 139.666 79.043, 133.750 79.014 C 130.523 78.998, 130.574 78.839, 132.543 82.785 C 133.940 85.586, 133.929 86.662, 132.424 94.189 C 130.570 103.465, 129.421 106.494, 128.703 104 C 124.116 88.075, 123.953 87.049, 125.431 83.512 C 127.106 79.503, 126.717 79.053, 122.171 79.744 C 118.506 80.301, 117.144 82.264, 118.930 84.415 C 119.797 85.461, 119.799 85.900, 118.934 86.189 C 117.499 86.667, 119.257 99.372, 122.091 109 C 123.143 112.575, 125.274 121.800, 126.827 129.500 L 129.649 143.500 160.825 143.764 L 192 144.028 192 121.012 L 192 97.995 188 94.381 C 184.683 91.384, 184 90.125, 184 87.006 C 184 84.883, 183.347 82.703, 182.500 82 C 180.496 80.337, 180.558 81.429, 182.955 90.081 C 184.031 93.962, 184.584 96.994, 184.184 96.818 C 183.785 96.643, 180.371 93.193, 176.599 89.151 L 169.741 81.803 170.290 76.483 C 170.730 72.216, 170.493 70.851, 169.091 69.582 C 166.991 67.682, 167.275 67.670, 163.252 69.817 M -0 84.059 C -0 84.641, 0.450 84.840, 1 84.500 C 1.550 84.160, 2 83.684, 2 83.441 C 2 83.198, 1.550 83, 1 83 C 0.450 83, -0 83.477, -0 84.059 M 112.058 110.645 C 112.024 113.072, 113.192 117.632, 114.876 121.645 C 116.459 125.415, 118.303 130.863, 118.976 133.750 C 119.649 136.637, 120.605 139, 121.100 139 C 122.601 139, 122.143 136.764, 118.835 127.941 C 117.094 123.299, 114.870 116.575, 113.892 113 C 112.164 106.679, 112.114 106.614, 112.058 110.645" stroke="none" fill="black" fill-rule="evenodd"/>
</svg>