<svg xmlns="http://www.w3.org/2000/svg" width="192" height="144" viewBox="0 0 192 144" version="1.1">
	<path d="M 14.036 5.750 C 14.055 8.912, 14.471 15.977, 14.960 21.449 L 15.848 31.398 12.878 34.436 C 10.549 36.818, 9.971 38.216, 10.204 40.910 C 10.545 44.872, 12.514 46.107, 13.506 42.982 C 14.155 40.935, 14.256 40.922, 16.139 42.626 C 17.531 43.886, 18.011 45.423, 17.799 47.949 C 17.555 50.851, 16.880 51.810, 14.105 53.195 C 9.078 55.704, 8.087 57, 11.193 57 C 12.652 57, 14.056 57.703, 14.402 58.606 C 14.826 59.710, 15.745 60.030, 17.339 59.630 C 19.132 59.180, 20.168 59.736, 21.903 62.083 C 23.598 64.376, 24.803 65.043, 26.824 64.809 C 29.381 64.514, 29.488 64.270, 29.229 59.344 C 28.969 54.399, 29.104 54.099, 32.526 51.984 C 36.347 49.623, 36.698 47.299, 33.157 47.813 C 30.407 48.212, 30.442 47.294, 33.343 42.982 C 37.703 36.502, 35.238 25.956, 29.750 27.608 C 25.379 28.924, 28.573 22.728, 37.193 13.169 C 42.563 7.215, 43.485 3.375, 39.750 2.527 C 30.546 0.437, 27.656 0.046, 21.250 0.024 L 14 0 14.036 5.750 M 96 72 L 96 144 129.025 144 L 162.050 144 163.110 141.250 C 164.702 137.119, 166.864 121.622, 165.983 120.657 C 165.560 120.193, 164.018 120.598, 162.556 121.556 C 159.060 123.846, 157.655 122.416, 158.163 117.087 C 158.551 113.021, 157.736 111.639, 156.638 114.500 C 156.322 115.325, 155.572 116, 154.972 116 C 154.373 116, 154.160 115.550, 154.500 115 C 154.840 114.450, 154.177 114, 153.028 114 C 147.780 114, 150.107 104.685, 156.706 99.278 C 159.086 97.327, 161.702 94.329, 162.520 92.616 C 164.961 87.497, 168.301 84.199, 171.750 83.500 C 174.347 82.974, 175 83.166, 175 84.456 C 175 85.344, 175.722 87.172, 176.604 88.518 C 178.126 90.841, 178.073 91.124, 175.555 94.117 L 172.903 97.268 175.065 99.569 C 176.253 100.834, 177.524 103.328, 177.889 105.110 C 178.253 106.892, 179.150 108.550, 179.881 108.794 C 180.845 109.115, 181.017 108.630, 180.508 107.026 C 179.939 105.234, 180.156 104.882, 181.653 105.166 C 182.980 105.417, 183.767 106.897, 184.448 110.419 L 185.395 115.322 180.970 119.249 L 176.544 123.176 179.272 130.878 C 180.772 135.114, 182 139.799, 182 141.290 C 182 143.875, 182.230 144, 187 144 L 192 144 192 72 L 192 0 144 0 L 96 0 96 72" stroke="none" fill="black" fill-rule="evenodd"/>
</svg>