<svg xmlns="http://www.w3.org/2000/svg" width="192" height="144" viewBox="0 0 192 144" version="1.1">
	<path d="M 63.364 5.750 C 64.139 12.908, 62.071 23.127, 58.171 31.412 C 50.413 47.892, 32.067 59.374, 13.500 59.368 C 9.100 59.366, 4.263 59.049, 2.750 58.663 L 0 57.962 0 100.981 L 0 144 52.433 144 C 101.513 144, 104.897 143.888, 105.360 142.250 C 105.631 141.287, 106.162 138.522, 106.539 136.105 C 106.916 133.688, 108.531 127.847, 110.127 123.124 C 111.723 118.402, 114.152 108.659, 115.523 101.472 C 118.475 86.009, 118.155 79.987, 114.246 77.426 C 112.025 75.971, 111.822 75.317, 112.361 71.380 L 112.966 66.966 110.033 68.483 C 106.616 70.250, 103.319 70.456, 102.812 68.935 C 102.616 68.349, 99.316 67.473, 95.478 66.988 C 91.640 66.502, 84.675 65.435, 80 64.617 C 74.716 63.691, 71.141 63.482, 70.550 64.064 C 69.017 65.574, 66.268 65.141, 65.553 63.276 C 64.339 60.113, 67.769 58.752, 75 59.527 C 78.575 59.910, 84.650 60.553, 88.500 60.956 C 92.350 61.358, 96.400 61.362, 97.500 60.964 C 98.600 60.565, 99.790 60.298, 100.145 60.370 C 100.500 60.441, 101.652 59.720, 102.706 58.766 C 104.257 57.363, 105.266 57.216, 107.994 57.998 C 112.185 59.200, 119 58.221, 119 56.418 C 119 55.688, 117.835 53.925, 116.410 52.501 C 114.986 51.077, 114.063 49.279, 114.359 48.507 C 114.676 47.681, 114.095 46.848, 112.951 46.485 C 110.549 45.722, 109.401 41.610, 110.758 38.631 C 111.501 37.001, 111.381 35.667, 110.310 33.622 C 107.828 28.885, 108.965 28.018, 115.677 29.525 C 128.935 32.502, 133.332 35.100, 134.529 40.665 C 134.865 42.224, 135.844 45.525, 136.706 48 C 137.567 50.475, 138.474 55.425, 138.720 59 C 139.032 63.530, 139.742 66.119, 141.063 67.542 C 142.400 68.983, 142.831 70.588, 142.526 72.997 C 142.288 74.875, 142.716 78.456, 143.477 80.955 C 145.328 87.041, 146.405 109.375, 144.975 112.047 C 144.099 113.684, 144.592 115.636, 147.562 122.285 C 149.580 126.803, 152.368 133.547, 153.757 137.272 L 156.282 144.044 174.391 143.772 L 192.500 143.500 192.825 129 C 193.003 121.025, 192.837 88.737, 192.455 57.250 L 191.761 0 127.251 -0 L 62.742 -0 63.364 5.750 M 0.459 101 C 0.459 124.925, 0.589 134.713, 0.749 122.750 C 0.908 110.788, 0.908 91.213, 0.749 79.250 C 0.589 67.288, 0.459 77.075, 0.459 101" stroke="none" fill="black" fill-rule="evenodd"/>
</svg>