<svg xmlns="http://www.w3.org/2000/svg" width="192" height="144" viewBox="0 0 192 144" version="1.1">
	<path d="M 115 0.540 C 115 0.837, 115.900 2.844, 117 5 C 119.510 9.920, 119.504 10, 116.602 10 C 109.760 10, 94.758 21.807, 92.012 29.352 C 91.382 31.084, 90.034 34.641, 89.016 37.258 C 87.998 39.875, 87.578 41.761, 88.083 41.449 C 88.587 41.137, 89 42.749, 89 45.030 C 89 48.637, 89.592 49.754, 93.538 53.589 C 96.034 56.015, 98.734 58, 99.538 58 C 101.448 58, 101.422 61.405, 99.500 63 C 97.573 64.599, 97.580 66.625, 99.515 67.367 C 100.348 67.687, 101.462 69.085, 101.990 70.474 C 102.518 71.863, 103.637 73, 104.475 73 C 105.314 73, 106 73.752, 106 74.671 C 106 75.590, 106.747 77.168, 107.659 78.176 C 108.572 79.184, 109.677 81.920, 110.116 84.255 C 110.555 86.590, 111.681 91.744, 112.618 95.709 L 114.323 102.918 111.911 104.927 L 109.500 106.936 107.176 104.218 C 101.390 97.453, 99.634 93.875, 99.301 88.173 C 98.879 80.946, 97.343 76.254, 94.986 74.992 C 93.966 74.447, 90.627 74, 87.566 74 C 83.285 74, 82 73.654, 82 72.500 C 82 71.675, 81.520 71, 80.933 71 C 80.343 71, 80.132 71.842, 80.462 72.880 C 80.929 74.351, 80.236 75.106, 77.279 76.353 C 71.750 78.684, 70.312 80.129, 69.122 84.549 C 68.028 88.611, 69.244 95.850, 71.833 100.688 C 72.951 102.778, 78.051 107.498, 79.899 108.154 C 80.469 108.357, 80.106 110.780, 79.023 114 C 78.006 117.025, 76.700 124.260, 76.121 130.077 C 75.543 135.895, 74.781 141.407, 74.428 142.327 C 73.849 143.836, 75.018 144, 86.376 144 L 98.966 144 101.405 139.187 C 105.405 131.293, 106.701 130.981, 106.191 138.034 L 105.760 144 141.630 143.952 C 173.627 143.909, 177.878 143.716, 181 142.166 C 183.189 141.079, 184.396 139.814, 184.223 138.789 C 184.071 137.888, 184.409 136.865, 184.973 136.516 C 185.538 136.167, 186 135.410, 186 134.833 C 186 133.129, 180.941 134.870, 176.585 138.074 C 171.388 141.896, 169.416 141.820, 168.120 137.750 C 166.333 132.142, 160.893 109.773, 161.234 109.433 C 162.008 108.659, 163.887 110.807, 165.886 114.750 C 168.367 119.644, 169.383 120.197, 168.644 116.250 C 167.066 107.825, 166.872 103.803, 168.080 104.550 C 168.989 105.111, 169.135 104.678, 168.632 102.906 C 168.256 101.583, 167.724 98.250, 167.448 95.500 L 166.948 90.500 170.354 97.617 C 172.228 101.531, 174.265 105.045, 174.880 105.426 C 176.265 106.282, 176.283 106.504, 174.487 100.585 C 173.667 97.882, 173.189 95.478, 173.423 95.243 C 173.658 95.009, 175.075 96.667, 176.571 98.929 C 178.068 101.190, 179.470 102.864, 179.686 102.647 C 179.902 102.431, 179.650 99.385, 179.125 95.877 C 178.601 92.370, 177.874 83.650, 177.510 76.500 C 176.264 52.004, 172.196 35.291, 162.841 16.235 C 159.195 8.807, 155.820 6.121, 149.136 5.330 C 145.305 4.876, 143.918 4.215, 142.932 2.373 C 141.693 0.058, 141.337 -0, 128.331 -0 C 120.999 -0, 115 0.243, 115 0.540" stroke="none" fill="black" fill-rule="evenodd"/>
</svg>