<svg xmlns="http://www.w3.org/2000/svg" width="192" height="144" viewBox="0 0 192 144" version="1.1">
	<path d="M 63.831 5.836 C 64.602 19.455, 58.833 34.230, 48.658 44.695 C 45.287 48.163, 42.176 51, 41.745 51 C 41.313 51, 39.282 52.035, 37.230 53.300 C 28.168 58.889, 9.560 61.609, 1.750 58.486 C 0.100 57.826, 0 60.239, 0 100.893 L 0 144 52.410 144 L 104.819 144 106.030 136.820 C 106.696 132.872, 108.298 126.535, 109.589 122.740 C 110.880 118.944, 113.110 109.689, 114.544 102.172 C 117.548 86.440, 117.298 80.897, 113.475 78.392 C 110.191 76.240, 109.598 73.678, 111.522 69.957 C 112.416 68.228, 112.914 66.580, 112.628 66.295 C 112.342 66.009, 109.979 66.501, 107.376 67.388 C 101.523 69.382, 100 69.412, 100 67.531 C 100 66.684, 99.408 66.290, 98.601 66.600 C 97.832 66.895, 96.905 66.656, 96.542 66.068 C 96.179 65.481, 94.671 64.995, 93.191 64.990 C 90.878 64.981, 80.481 61.618, 68 56.840 C 64.586 55.533, 63.046 54.269, 63.015 52.750 C 62.986 51.315, 68.529 52.057, 73 54.087 C 75.475 55.211, 81.222 56.999, 85.770 58.061 C 93.988 59.979, 94.067 59.979, 98.282 57.997 C 101.732 56.376, 103.175 56.190, 106.006 57.002 C 111.796 58.662, 115.693 58.283, 116.290 56 C 116.597 54.827, 116.320 54, 115.622 54 C 114.111 54, 110.692 48.307, 111.459 47.067 C 111.774 46.556, 111.548 45.838, 110.955 45.472 C 108.676 44.063, 107.881 39.830, 109.447 37.440 C 110.641 35.618, 110.724 34.505, 109.850 31.999 C 107.965 26.593, 109.862 26.153, 118.737 29.938 C 129.238 34.416, 132.637 38.039, 133.473 45.642 C 133.827 48.864, 134.540 52.534, 135.058 53.797 C 135.576 55.060, 136 57.390, 136 58.975 C 136 60.975, 136.903 62.564, 138.956 64.178 C 141.237 65.969, 141.965 67.414, 142.144 70.500 C 142.272 72.700, 143.019 75.513, 143.804 76.752 C 144.590 77.991, 145.616 83.166, 146.083 88.252 C 146.551 93.338, 147.344 99.744, 147.844 102.487 C 148.828 107.874, 148.419 110.377, 146.725 109.330 C 146.043 108.908, 145.906 109.313, 146.345 110.456 C 146.893 111.884, 146.627 112.136, 145.015 111.714 C 143.907 111.424, 143 111.638, 143 112.189 C 143 112.740, 145.649 119.111, 148.886 126.346 C 152.123 133.581, 154.942 140.400, 155.150 141.500 C 155.511 143.414, 156.320 143.500, 174.014 143.500 L 192.500 143.500 192.825 129 C 193.003 121.025, 192.837 88.737, 192.455 57.250 L 191.761 0 127.630 -0.002 L 63.500 -0.004 63.831 5.836 M 0.459 101 C 0.459 124.925, 0.589 134.713, 0.749 122.750 C 0.908 110.788, 0.908 91.213, 0.749 79.250 C 0.589 67.288, 0.459 77.075, 0.459 101 M 137.585 85.062 C 137.155 87.658, 137.297 92.155, 137.915 95.496 C 138.512 98.725, 139 101.536, 139 101.743 C 139 101.949, 139.450 101.840, 140 101.500 C 141.338 100.673, 141.189 94.931, 139.623 87 L 138.340 80.500 137.585 85.062" stroke="none" fill="black" fill-rule="evenodd"/>
</svg>