<svg xmlns="http://www.w3.org/2000/svg" width="192" height="144" viewBox="0 0 192 144" version="1.1">
	<path d="M 63.364 5.750 C 64.139 12.908, 62.071 23.127, 58.171 31.412 C 50.413 47.892, 32.067 59.374, 13.500 59.368 C 9.100 59.366, 4.263 59.049, 2.750 58.663 L 0 57.962 0 100.981 L 0 144 53.429 144 L 106.858 144 107.984 138.250 C 108.604 135.088, 110.639 127.934, 112.507 122.353 C 117.205 108.317, 120.422 90.535, 119.541 83.478 C 118.905 78.395, 118.565 77.821, 115.176 76.121 C 113.154 75.107, 111.050 74.386, 110.500 74.517 C 109.950 74.649, 107.652 75.313, 105.394 75.991 C 101.898 77.042, 100.410 76.961, 95.394 75.446 C 87.651 73.109, 81.929 72.903, 82.257 74.973 C 82.585 77.035, 79.980 76.916, 78.651 74.809 C 77.829 73.506, 78.034 72.617, 79.542 70.940 C 81.292 68.995, 82.190 68.824, 88 69.335 C 91.575 69.648, 96.629 70.212, 99.230 70.586 C 103.305 71.172, 104.060 71.005, 104.680 69.383 C 105.818 66.404, 108.345 64.130, 112.063 62.740 C 113.953 62.034, 117.229 60.384, 119.342 59.075 L 123.183 56.694 120.092 54.275 C 118.391 52.944, 117 51.213, 117 50.428 C 117 49.642, 116.155 49, 115.122 49 C 112.394 49, 110.683 46.427, 111.305 43.256 C 111.709 41.196, 111.201 39.821, 109.293 37.810 C 104.884 33.163, 106.531 32, 117.518 32 C 129.430 32, 132.049 33.190, 135.614 40.224 C 137.057 43.072, 139.156 46.644, 140.278 48.162 C 143.654 52.728, 145.497 80.068, 143.604 97.500 C 142.790 105.002, 143.990 109.510, 151.355 126.603 C 154.460 133.809, 157 140.682, 157 141.876 C 157 144.032, 157.119 144.044, 174.750 143.773 L 192.500 143.500 192.825 129 C 193.003 121.025, 192.837 88.737, 192.455 57.250 L 191.761 0 127.251 -0 L 62.742 -0 63.364 5.750 M 0.459 101 C 0.459 124.925, 0.589 134.713, 0.749 122.750 C 0.908 110.788, 0.908 91.213, 0.749 79.250 C 0.589 67.288, 0.459 77.075, 0.459 101" stroke="none" fill="black" fill-rule="evenodd"/>
</svg>