<svg xmlns="http://www.w3.org/2000/svg" width="192" height="144" viewBox="0 0 192 144" version="1.1">
	<path d="M 0 72 L 0 144 16.500 144 L 33 144 33 140.968 C 33 136.103, 35.387 131.710, 40.451 127.252 C 44.575 123.622, 47.511 121.917, 56.500 117.934 C 60.775 116.039, 73.359 113.086, 79.907 112.440 L 86.779 111.763 84.302 108.132 C 82.187 105.030, 81.915 103.770, 82.436 99.500 C 83.522 90.613, 91.475 86.360, 98.433 90.946 C 104.164 94.724, 105.656 101.771, 101.996 107.774 C 100.898 109.575, 100 111.195, 100 111.374 C 100 111.554, 103.938 112.002, 108.750 112.371 C 118.056 113.085, 124.996 114.573, 134.152 117.821 C 141.428 120.401, 143.465 121.483, 149.318 125.880 C 155.311 130.382, 158.054 134.704, 158.264 139.973 L 158.427 144.045 175.463 143.773 L 192.500 143.500 192.757 71.750 L 193.013 0 96.507 0 L 0 0 0 72 M 0.474 72.500 C 0.474 112.100, 0.598 128.154, 0.750 108.176 C 0.901 88.198, 0.901 55.798, 0.750 36.176 C 0.598 16.554, 0.474 32.900, 0.474 72.500 M 82 115.698 C 75.120 116.868, 63.954 120.507, 59.500 123.031 C 52.097 127.225, 47 133.494, 47 138.405 C 47 144.359, 43.888 144, 95.572 144 C 140.693 144, 142.977 143.912, 143.924 142.143 C 146.886 136.607, 139.312 126.429, 128.500 121.417 C 123.214 118.966, 108.327 115, 104.413 115 C 104.212 115, 104.324 119.849, 104.663 125.776 L 105.280 136.551 102.593 137.776 C 98.745 139.529, 90.885 139.308, 88.117 137.370 C 85.916 135.828, 85.825 135.325, 86.438 128.120 C 86.795 123.929, 87.328 119.263, 87.623 117.750 C 88.191 114.837, 87.832 114.706, 82 115.698" stroke="none" fill="black" fill-rule="evenodd"/>
</svg>