<svg xmlns="http://www.w3.org/2000/svg" width="192" height="144" viewBox="0 0 192 144" version="1.1">
	<path d="M 0 8.400 L 0 16.801 5.048 18.012 C 9.480 19.075, 10.326 19.015, 11.974 17.524 C 14.376 15.350, 17.413 15.915, 17.800 18.608 C 18.071 20.500, 18.447 20.606, 21.800 19.742 C 26.995 18.402, 30.864 20.068, 31.647 23.983 C 31.979 25.643, 32.572 27, 32.964 27 C 34.453 27, 36.091 32.186, 35.012 33.485 C 33.536 35.264, 34.520 37.150, 38.266 39.717 C 40.045 40.936, 44.133 44.390, 47.352 47.392 L 53.204 52.851 52.010 56.469 C 49.765 63.272, 51.915 73.480, 63.026 108.771 C 65.496 116.618, 65.782 129, 63.493 129 C 62.665 129, 60.984 130.153, 59.759 131.562 C 57.743 133.880, 57.068 134.060, 52.643 133.451 C 46.884 132.659, 46.038 133.463, 46.015 139.750 L 46 144 65.104 144 L 84.207 144 81.104 140.465 C 79.397 138.521, 78 136.257, 78 135.434 C 78 134.611, 77.400 133.707, 76.667 133.426 C 75.933 133.144, 75.292 132.371, 75.241 131.707 C 75.190 131.043, 74.633 128.025, 74.003 125 C 73.374 121.975, 72.497 116.800, 72.056 113.500 C 71.614 110.200, 70.658 103.675, 69.931 99 C 68.240 88.130, 68.169 78.431, 69.769 76.831 C 70.480 76.120, 71.022 72.835, 71.053 69.050 C 71.082 65.447, 71.676 59.023, 72.372 54.774 C 73.576 47.428, 73.493 45.378, 71.406 31.001 C 71.127 29.076, 70.283 26.269, 69.531 24.761 C 68.779 23.254, 67.874 20.703, 67.521 19.094 C 67.167 17.484, 66.230 15.919, 65.439 15.615 C 64.541 15.270, 63.996 13.641, 63.989 11.281 C 63.983 9.202, 63.699 5.813, 63.358 3.750 L 62.738 0 31.369 0 L 0 0 0 8.400 M -0 44.711 C -0 69.994, 0.030 70.365, 1.780 66.961 C 2.759 65.058, 5.949 60.125, 8.867 56 C 14.076 48.639, 14.164 48.398, 13.590 43 C 12.192 29.849, 11.925 28.889, 9.844 29.550 C 8.777 29.888, 7.262 29.633, 6.478 28.982 C 5.245 27.959, 5.252 27.414, 6.524 24.954 C 7.898 22.296, 7.849 22.008, 5.775 20.555 C 4.554 19.700, 2.755 19, 1.777 19 C 0.120 19, -0 20.740, -0 44.711 M 35.695 64.639 C 35.313 65.021, 35.037 67.171, 35.082 69.417 L 35.163 73.500 36.604 70.202 C 37.963 67.092, 37.299 63.034, 35.695 64.639 M 28.310 69.989 C 27.689 71.634, 27.432 73.935, 27.737 75.103 C 28.200 76.873, 27.957 77.121, 26.278 76.588 C 24.455 76.010, 24.199 76.524, 23.577 82.024 C 22.987 87.236, 22.637 88.020, 21.112 87.536 C 19.273 86.952, 16.801 89.098, 15.683 92.250 C 15.342 93.213, 14.607 94, 14.050 94 C 12.445 94, 11.588 88.890, 12.854 86.863 C 14.195 84.715, 14.409 76, 13.121 76 C 12.637 76, 10.421 77.767, 8.196 79.926 C 5.280 82.755, 3.571 83.700, 2.075 83.309 C 0.008 82.769, 0 82.890, 0 113.383 L 0 144 14.899 144 L 29.799 144 30.234 139.250 C 30.761 133.504, 30.122 132.634, 25.501 132.807 C 22.541 132.919, 21.764 132.509, 20.970 130.421 C 20.090 128.108, 19.633 127.944, 15.439 128.437 L 10.866 128.975 11.323 124.737 C 11.873 119.638, 14.233 113.570, 18.803 105.500 C 28.296 88.738, 29.289 86.074, 29.712 76.250 C 29.931 71.162, 29.959 67, 29.774 67 C 29.590 67, 28.931 68.345, 28.310 69.989 M 37.581 136.562 C 36.711 137.432, 36 138.749, 36 139.490 C 36 140.230, 35.727 141.548, 35.393 142.418 C 34.920 143.651, 35.471 144, 37.893 144 C 40.843 144, 41 143.801, 41 140.059 C 41 135.507, 39.831 134.312, 37.581 136.562" stroke="none" fill="black" fill-rule="evenodd"/>
</svg>