<svg xmlns="http://www.w3.org/2000/svg" width="192" height="144" viewBox="0 0 192 144" version="1.1">
	<path d="M 44.687 1.750 C 45.030 2.712, 45.618 3.950, 45.995 4.500 C 46.371 5.050, 46.707 7.187, 46.740 9.250 C 46.796 12.653, 46.557 13.001, 44.151 13.010 C 42.693 13.016, 38.677 12.029, 35.228 10.817 C 29.589 8.837, 28.427 8.737, 23.728 9.833 C 18.170 11.129, 0.670 14.972, 0.250 14.990 C 0.112 14.995, 0 44.027, 0 79.505 L 0 144.010 96.250 143.755 L 192.500 143.500 192.739 79 C 192.870 43.525, 192.586 13.885, 192.108 13.133 C 191.407 12.032, 190.488 12.276, 187.387 14.383 C 182.263 17.865, 180.056 17.689, 174.368 13.348 C 168.725 9.040, 166.192 8.386, 155.424 8.461 C 147.771 8.513, 147.064 8.712, 141.916 12.258 C 138.928 14.316, 135.276 16, 133.802 16 C 131.153 16, 131.125 15.927, 131.383 9.750 C 131.526 6.312, 131.997 2.713, 132.429 1.750 C 133.170 0.098, 130.817 0, 90.607 0 C 58.135 0, 48 0.285, 48 1.200 C 48 2.133, 47.733 2.133, 46.800 1.200 C 45.051 -0.549, 43.967 -0.267, 44.687 1.750 M 0.472 79.500 C 0.472 115.250, 0.597 129.730, 0.750 111.677 C 0.902 93.625, 0.902 64.375, 0.749 46.677 C 0.596 28.980, 0.471 43.750, 0.472 79.500 M 78.564 86.707 C 78.022 88.132, 78.136 88.247, 79.124 87.267 C 79.808 86.588, 80.115 85.781, 79.807 85.474 C 79.499 85.166, 78.940 85.721, 78.564 86.707 M 84 89 C 84 89.550, 84.477 90, 85.059 90 C 85.641 90, 85.840 89.550, 85.500 89 C 85.160 88.450, 84.684 88, 84.441 88 C 84.198 88, 84 88.450, 84 89 M 95 97 C 95 97.550, 95.450 98, 96 98 C 96.550 98, 97 97.550, 97 97 C 97 96.450, 96.550 96, 96 96 C 95.450 96, 95 96.450, 95 97 M 85.813 99.683 C 86.534 99.972, 87.397 99.936, 87.729 99.604 C 88.061 99.272, 87.471 99.036, 86.417 99.079 C 85.252 99.127, 85.015 99.364, 85.813 99.683 M 87.500 113 C 87.160 113.550, 87.359 114, 87.941 114 C 88.523 114, 89 113.550, 89 113 C 89 112.450, 88.802 112, 88.559 112 C 88.316 112, 87.840 112.450, 87.500 113" stroke="none" fill="black" fill-rule="evenodd"/>
</svg>