<svg xmlns="http://www.w3.org/2000/svg" width="192" height="144" viewBox="0 0 192 144" version="1.1">
	<path d="M 146.994 1.423 C 141.136 3.042, 138 4.758, 138 6.346 C 138 7.047, 139.655 9.443, 141.677 11.670 C 144.637 14.929, 145.391 16.587, 145.542 20.165 C 145.758 25.295, 149.351 31.690, 153.571 34.455 C 156.210 36.184, 156.256 36.340, 154.491 37.630 C 152.753 38.901, 152.742 39.098, 154.313 40.743 C 157.301 43.874, 160.999 48.767, 161.041 49.644 C 161.063 50.115, 162.300 51.918, 163.791 53.650 C 166.598 56.914, 169.274 57.842, 172.199 56.566 C 173.188 56.135, 174.479 56.368, 175.289 57.126 C 176.777 58.515, 176.592 58.913, 172.250 63.641 C 171.012 64.988, 170 66.520, 170 67.045 C 170 68.382, 168.506 68.238, 164.346 66.500 C 162.072 65.550, 157.510 65, 151.901 65 C 143.665 65, 142.936 65.167, 141.478 67.393 C 139.638 70.201, 128.254 73.496, 121 73.321 C 118.630 73.264, 91.712 65.477, 85.666 63.100 C 84.107 62.487, 82.430 62.234, 81.938 62.538 C 81.446 62.842, 77.096 60.159, 72.272 56.575 C 63.454 50.025, 51.462 44.502, 48.513 45.633 C 46.716 46.323, 46.555 47.607, 48.143 48.588 C 48.872 49.039, 48.319 49.801, 46.613 50.695 C 43.711 52.215, 43.952 54, 47.059 54 C 49.386 54, 49.631 55.544, 47.437 56.386 C 45.064 57.296, 46.543 58.692, 50.710 59.473 C 53.780 60.049, 54.137 60.344, 52.721 61.136 C 51.774 61.666, 51 62.677, 51 63.382 C 51 64.323, 52.445 64.545, 56.428 64.214 C 61.565 63.788, 62.054 63.957, 65.541 67.342 C 67.567 69.310, 71.199 71.675, 73.612 72.596 C 77.340 74.020, 78 74.689, 78 77.048 C 78 79.537, 78.440 79.897, 82.250 80.530 C 88.674 81.597, 89.996 81.864, 92 82.500 C 93.012 82.821, 94.664 83.271, 95.670 83.498 C 96.677 83.726, 102 85.533, 107.500 87.514 L 117.500 91.115 135.500 89.919 C 145.400 89.261, 156.425 88.673, 160 88.612 L 166.500 88.500 166.746 93 C 167.455 105.989, 170.334 113.979, 177.328 122.369 C 180.774 126.505, 181.502 128.200, 182.153 133.611 C 183.196 142.275, 184.256 144, 188.535 144 L 192 144 192 72 L 192 0 171.750 0.089 C 158.951 0.146, 149.842 0.637, 146.994 1.423" stroke="none" fill="black" fill-rule="evenodd"/>
</svg>