<svg xmlns="http://www.w3.org/2000/svg" width="192" height="144" viewBox="0 0 192 144" version="1.1">
	<path d="M 6 2.107 C 6 3.536, 6.466 4.035, 7.449 3.658 C 9.238 2.971, 10.264 5.872, 10.400 12 C 10.467 15.027, 10.909 16.418, 11.750 16.250 C 12.500 16.100, 13 17.067, 13 18.667 C 13 20.133, 13.293 21.040, 13.651 20.682 C 14.466 19.868, 16.994 23.200, 16.351 24.241 C 15.912 24.951, 7.355 24.452, 2.250 23.418 C 0.770 23.118, 0 23.442, 0 24.364 C 0 25.136, 1.013 26.033, 2.250 26.359 L 4.500 26.951 2.250 28.532 L 0 30.113 0 87.057 L 0 144 8.500 144 L 17 144 17.029 140.750 L 17.059 137.500 20.116 140.863 C 21.804 142.719, 23.549 143.839, 24.012 143.363 C 24.473 142.888, 25.320 139.076, 25.895 134.890 C 26.964 127.114, 26.162 118.040, 24.060 114.112 C 22.447 111.098, 22.681 110.976, 27.081 112.528 C 30.665 113.793, 31.516 113.785, 34.081 112.458 C 35.686 111.628, 37 110.481, 37 109.909 C 37 107.056, 31.214 99.780, 26.752 97.023 L 24.005 95.325 28.104 89.412 C 30.358 86.161, 33.595 82.039, 35.295 80.252 C 37.981 77.431, 38.261 76.643, 37.420 74.252 C 36.028 70.295, 34.110 70.842, 30.589 76.200 C 28.890 78.785, 26.712 81.178, 25.750 81.518 C 24.787 81.857, 24 82.679, 24 83.345 C 24 84.011, 23.100 85.326, 22 86.268 C 20.239 87.775, 20 87.792, 20 86.407 C 20 83.693, 26.035 69.604, 28.178 67.317 C 29.825 65.558, 30.699 65.315, 32.676 66.067 C 36.024 67.340, 42 67.246, 42 65.921 C 42 65.241, 43.113 65.085, 45 65.500 C 47.649 66.082, 48 65.892, 48 63.879 C 48 60.018, 50.407 63.502, 50.679 67.757 C 50.810 69.800, 51.385 71.628, 51.958 71.819 C 52.531 72.010, 53 72.804, 53 73.583 C 53 74.362, 53.450 75, 54 75 C 54.550 75, 55 74.550, 55 74 C 55 73.450, 55.387 73, 55.859 73 C 56.332 73, 56.732 75.588, 56.748 78.750 C 56.764 81.912, 57.100 85.287, 57.496 86.250 C 57.891 87.213, 57.944 88.704, 57.614 89.563 C 57.284 90.423, 57.704 92.461, 58.548 94.093 C 59.392 95.724, 59.831 97.464, 59.525 97.960 C 59.218 98.456, 59.425 99.144, 59.984 99.490 C 60.543 99.835, 61 101.040, 61 102.166 C 61 103.576, 61.468 104.035, 62.500 103.638 C 63.818 103.133, 64.427 104.062, 64.150 106.154 C 64.103 106.514, 64.700 107.336, 65.478 107.982 C 66.537 108.861, 66.647 109.798, 65.918 111.716 C 65.382 113.125, 65.153 114.486, 65.408 114.742 C 65.663 114.997, 65.462 116.284, 64.961 117.603 C 64.190 119.631, 64.354 120, 66.025 120 C 67.114 120, 68 120.673, 68 121.500 C 68 124.108, 69.991 123.130, 72.158 119.457 C 74.495 115.495, 74.957 115.521, 75.484 119.643 C 75.995 123.630, 77.771 128, 78.882 128 C 79.394 128, 79.589 128.854, 79.316 129.898 C 79.043 130.942, 79.537 132.890, 80.414 134.228 C 81.290 135.565, 81.668 137.033, 81.254 137.489 C 80.839 137.945, 81.321 138.023, 82.324 137.662 C 85.099 136.664, 87.692 139.661, 86.167 142.104 C 85.019 143.942, 85.610 144, 105.567 144 L 126.150 144 125.541 134.750 C 125.206 129.662, 124.448 121.117, 123.855 115.761 C 123.262 110.404, 122.999 105.444, 123.270 104.738 C 123.976 102.900, 130.726 103.442, 133.024 105.521 C 134.133 106.526, 135.630 106.972, 136.618 106.593 C 137.663 106.192, 139.819 106.989, 142.252 108.675 C 145.925 111.220, 146.261 111.284, 147.193 109.619 C 148.132 107.942, 148.287 107.964, 149.701 109.983 C 150.529 111.166, 151.792 111.910, 152.507 111.636 C 153.221 111.362, 154.585 111.707, 155.538 112.404 C 156.491 113.101, 158.320 113.470, 159.603 113.225 C 161.864 112.793, 161.890 112.673, 160.467 109.268 C 158.512 104.588, 158.603 104.290, 161.250 106.701 C 163.467 108.720, 167.296 111, 168.469 111 C 169.501 111, 167.292 107.652, 163.825 103.960 C 159.722 99.590, 153.812 92.319, 152.585 90.131 C 152.082 89.234, 151.407 88.275, 151.085 88 C 150.763 87.725, 148.505 84.575, 146.067 81 C 141.772 74.702, 131.162 60.050, 128.688 57 C 128.019 56.175, 126.448 54.055, 125.196 52.290 C 121.782 47.474, 117.771 45.066, 111.315 43.958 C 82.347 38.988, 78.012 37.309, 68.328 27.308 C 63.637 22.463, 62.694 22.170, 60.745 24.953 C 59.993 26.027, 58.138 27.377, 56.624 27.953 C 53.161 29.269, 52.719 29.264, 53.551 27.918 C 54.238 26.806, 54.362 22.616, 54.132 8.250 L 54 0 30 0 C 6.260 0, 6 0.023, 6 2.107 M 47.068 28.873 C 45.481 31.838, 45.764 32.875, 48 32.290 C 49.100 32.002, 50 31.144, 50 30.383 C 50 29.623, 50.034 28.674, 50.075 28.275 C 50.248 26.599, 48.051 27.036, 47.068 28.873 M 36.500 33 C 36.160 33.550, 36.160 34.450, 36.500 35 C 37.544 36.689, 39.738 36.110, 40.290 34 C 40.673 32.533, 40.320 32, 38.965 32 C 37.949 32, 36.840 32.450, 36.500 33" stroke="none" fill="black" fill-rule="evenodd"/>
</svg>