<svg xmlns="http://www.w3.org/2000/svg" width="192" height="144" viewBox="0 0 192 144" version="1.1">
	<path d="M 87.380 49.751 C 84.965 50.154, 80 58.433, 80 62.057 C 80 63.314, 80.689 65.104, 81.531 66.034 C 82.373 66.964, 83.331 70.003, 83.661 72.786 L 84.260 77.846 79.661 76.192 C 73.849 74.102, 73.031 74.864, 72.731 82.649 C 72.534 87.779, 72.899 89.237, 75.221 92.592 C 77.293 95.587, 78.101 98.234, 78.609 103.701 L 79.276 110.878 75.289 110.823 C 73.096 110.793, 70.309 111.300, 69.096 111.949 C 67.516 112.794, 57.766 113.089, 34.695 112.989 C 16.988 112.912, 1.938 112.883, 1.250 112.924 C 0.307 112.981, 0 116.807, 0 128.500 L 0 144 40.500 144 L 81 144 81 141.406 C 81 139.641, 80.352 138.643, 78.969 138.282 C 77.852 137.990, 75.742 135.669, 74.281 133.125 C 72.819 130.581, 70.808 127.427, 69.812 126.115 C 68.714 124.670, 68 122.037, 68 119.433 C 68 114.797, 68.046 114.760, 75.416 113.511 C 77.816 113.104, 80.074 111.905, 81.246 110.414 C 82.299 109.076, 83.617 108.263, 84.175 108.608 C 84.734 108.954, 86.302 108.641, 87.660 107.914 C 90.868 106.197, 93.622 107.796, 93.201 111.131 C 92.506 116.638, 92.340 136, 92.988 136 C 93.955 136, 98.156 139.706, 98.028 140.445 C 97.971 140.774, 98.299 141.712, 98.758 142.531 C 99.480 143.822, 105.761 143.986, 146.045 143.760 L 192.500 143.500 192.771 128 L 193.041 112.500 145.974 112.363 C 90.365 112.202, 93.629 112.881, 97.610 102.305 C 98.960 98.717, 101.123 94.368, 102.417 92.641 C 105.663 88.304, 106.216 85.915, 105.110 80.994 C 103.818 75.242, 102.839 74.535, 96.534 74.799 L 91.096 75.027 90.343 71.263 C 89.474 66.915, 89.540 60.289, 90.510 54.367 C 91.235 49.948, 90.723 49.193, 87.380 49.751 M 0.405 128.500 C 0.406 137.300, 0.559 140.766, 0.745 136.203 C 0.930 131.639, 0.929 124.439, 0.742 120.203 C 0.555 115.966, 0.404 119.700, 0.405 128.500" stroke="none" fill="black" fill-rule="evenodd"/>
</svg>