<svg xmlns="http://www.w3.org/2000/svg" width="192" height="144" viewBox="0 0 192 144" version="1.1">
	<path d="M 0 72 L 0 144 33.433 144 L 66.866 144 70.332 139.750 C 76.096 132.681, 78.281 127.625, 77.520 123.118 C 77.021 120.163, 77.367 118.201, 78.929 115.139 C 80.068 112.907, 81 110.403, 81 109.575 C 81 107.752, 84.025 106.001, 87.184 105.996 C 89.284 105.993, 89.194 105.806, 86.216 103.991 C 82.037 101.442, 81.538 100.041, 83.305 95.812 C 84.591 92.734, 84.559 92.174, 82.985 90.230 C 79.953 86.486, 79.530 81.127, 82.002 77.784 C 83.851 75.282, 83.998 74.429, 83.049 71.688 C 82.443 69.934, 80.959 67.748, 79.751 66.828 C 77.794 65.338, 77.587 64.381, 77.847 58.014 C 78.007 54.086, 77.709 50.338, 77.184 49.686 C 76.070 48.301, 77.419 44, 78.968 44 C 79.535 44, 80 43.155, 80 42.122 C 80 39.601, 82.469 37.697, 84.784 38.432 C 85.975 38.809, 87.333 38.289, 88.487 37.014 C 90.701 34.568, 91.789 34.499, 94.171 36.655 C 95.265 37.645, 96 37.846, 96 37.155 C 96 35.463, 98.965 35.744, 99.638 37.500 C 99.955 38.325, 101.305 39, 102.638 39 C 103.972 39, 105.286 39.582, 105.559 40.294 C 105.832 41.005, 106.183 46.956, 106.338 53.518 L 106.621 65.448 103.811 67.813 C 99.977 71.039, 100.263 73.888, 105.026 79.914 C 110.108 86.343, 111 88.734, 111 95.930 C 111 100.326, 111.513 102.383, 113.120 104.426 C 114.287 105.909, 115.820 106.899, 116.527 106.628 C 117.273 106.342, 118.323 107.366, 119.028 109.067 C 119.865 111.089, 120.946 112, 122.505 112 C 124.674 112, 126.094 114.188, 126.399 118 C 126.465 118.825, 127.075 120.480, 127.756 121.678 C 129.088 124.023, 128.584 126.467, 126.193 129.250 C 123.362 132.546, 118.823 130.469, 121.077 126.909 C 122.571 124.550, 122.132 123.547, 119 122.160 C 116.861 121.213, 116 120.139, 116 118.416 C 116 117.087, 115.587 116, 115.082 116 C 114.577 116, 113.474 115.735, 112.630 115.412 C 111.303 114.902, 111.124 116.282, 111.298 125.662 C 111.409 131.623, 111.141 138.193, 110.703 140.261 L 109.905 144.022 151.203 143.761 L 192.500 143.500 192.757 71.750 L 193.013 0 96.507 0 L 0 0 0 72 M 0.474 72.500 C 0.474 112.100, 0.598 128.154, 0.750 108.176 C 0.901 88.198, 0.901 55.798, 0.750 36.176 C 0.598 16.554, 0.474 32.900, 0.474 72.500 M 78.534 132.750 C 77.035 137.012, 75.401 140.928, 74.904 141.450 C 73.211 143.229, 73.995 144, 77.500 144 L 81 144 81.060 139.250 C 81.093 136.637, 81.332 132.363, 81.589 129.750 C 81.847 127.138, 81.879 125, 81.659 125 C 81.439 125, 80.033 128.488, 78.534 132.750" stroke="none" fill="black" fill-rule="evenodd"/>
</svg>