<svg xmlns="http://www.w3.org/2000/svg" width="192" height="144" viewBox="0 0 192 144" version="1.1">
	<path d="M 0 72 L 0 144 41 144 L 82 144 82 140.156 C 82 137.527, 81.232 135.417, 79.570 133.483 C 78.135 131.814, 76.880 128.761, 76.504 126.030 C 75.750 120.546, 75.166 119.477, 72.468 118.637 C 70.738 118.098, 70.237 118.676, 69.099 122.530 C 68.364 125.020, 66.916 127.510, 65.881 128.064 C 64.799 128.643, 64 130.147, 64 131.607 C 64 136.290, 61.897 137.261, 55.292 135.625 C 35.256 130.661, 31.849 129.544, 28.997 126.998 L 26 124.322 26.001 112.911 C 26.001 102.720, 26.476 99.617, 30.445 83.881 C 34.500 67.804, 42.885 42.770, 48.267 30.672 C 50.532 25.580, 52.016 23.771, 58.804 17.823 C 61.112 15.801, 63 13.681, 63 13.112 C 63 11.382, 58.746 7.991, 55.531 7.158 C 50.233 5.785, 51.718 3.229, 59 1.186 C 61.499 0.485, 53.563 0.175, 31.250 0.102 L 0 0 0 72 M 83.143 0.890 C 81.307 2.054, 82.546 2.685, 90.127 4.447 C 94.123 5.375, 97.153 6.728, 98.250 8.075 C 100.691 11.069, 100.452 11.960, 97.022 12.646 C 92.805 13.489, 91.421 15.433, 92.832 18.530 C 93.451 19.888, 94.529 21.011, 95.229 21.024 C 97.635 21.069, 105.194 33.542, 105.738 38.367 C 106.624 46.230, 105.410 49.479, 99.206 55.844 C 92.295 62.935, 85.758 70.699, 84.130 73.750 C 83.137 75.612, 83.186 76, 84.414 76 C 86.170 76, 91.989 81.949, 91.995 83.750 C 92.003 85.750, 92.751 85.332, 100.508 78.994 C 108.286 72.638, 108.707 72.165, 118.067 59.264 C 121.354 54.734, 125.320 50.084, 126.881 48.930 C 129.588 46.929, 129.744 46.372, 130.269 36.840 C 130.572 31.344, 131.055 26.611, 131.343 26.323 C 132.864 24.802, 134 27.829, 134 33.404 C 134 40.257, 136.223 43.896, 139.614 42.594 C 141.878 41.726, 151.059 44.472, 154.230 46.966 C 155.630 48.068, 157.676 50.789, 158.777 53.013 L 160.778 57.058 163.750 54.557 C 165.385 53.181, 167.082 52.381, 167.522 52.778 C 167.961 53.175, 167.994 52.933, 167.595 52.240 C 167.189 51.535, 167.778 49.826, 168.935 48.355 C 171.084 45.623, 171.621 41.083, 170.138 38.184 C 169.664 37.258, 169.005 35.361, 168.674 33.968 C 167.384 28.549, 174.490 28.309, 178.524 33.635 C 179.837 35.369, 179.939 35.280, 179.968 32.357 C 180.027 26.550, 185.731 27.167, 188.030 33.229 C 190.085 38.648, 190.149 40.418, 188.339 41.741 C 185.676 43.689, 184.370 43.271, 182.115 39.750 C 180.247 36.834, 180.032 36.731, 180.017 38.750 C 180.008 39.987, 179.559 41, 179.019 41 C 178.480 41, 177.753 42.137, 177.404 43.526 C 176.798 45.939, 173.419 48.689, 171.676 48.188 C 171.222 48.057, 171.087 48.331, 171.374 48.797 C 171.662 49.262, 171.289 50.817, 170.545 52.251 C 169.801 53.685, 169.435 55.101, 169.731 55.398 C 170.028 55.695, 168.863 56.739, 167.142 57.719 C 165.421 58.698, 164.010 60.007, 164.006 60.628 C 164.003 61.248, 163.325 62.315, 162.500 63 C 161.675 63.685, 161 65.557, 161 67.160 C 161 71.091, 155.799 84.184, 146.564 103.500 C 142.357 112.300, 138.441 120.350, 137.863 121.388 C 137.284 122.426, 136.219 127.151, 135.495 131.888 C 134.771 136.625, 133.865 141.287, 133.482 142.250 C 132.829 143.893, 134.597 144, 162.393 144 L 192 144 192 72 L 192 0 138.250 0.015 C 108.688 0.024, 83.889 0.417, 83.143 0.890" stroke="none" fill="black" fill-rule="evenodd"/>
</svg>