<svg xmlns="http://www.w3.org/2000/svg" width="192" height="144" viewBox="0 0 192 144" version="1.1">
	<path d="M 0 72 L 0 144 11.866 144 L 23.732 144 27.237 139.502 C 30.341 135.518, 30.821 134.091, 31.438 127.019 C 31.821 122.628, 32.554 118.776, 33.067 118.458 C 33.580 118.141, 34 116.596, 34 115.024 C 34 113.453, 34.547 111.984, 35.216 111.761 C 35.929 111.524, 36.335 109.900, 36.196 107.839 C 36.046 105.614, 36.653 103.436, 37.847 101.911 C 39.248 100.122, 39.922 96.985, 40.461 89.750 L 41.187 80 38.093 80 C 34.853 80, 34.161 78.508, 35.862 75.184 C 38.224 70.567, 38.051 68.127, 35.125 64.794 C 30.928 60.012, 29 54.603, 29 47.612 C 29 39.213, 31.121 35.721, 40.659 28.423 C 48.258 22.609, 59.096 17.835, 67 16.821 C 69.351 16.519, 69.483 16.187, 69.220 11.250 C 69.066 8.362, 69.291 6.018, 69.720 6.040 C 70.149 6.062, 72.525 8.843, 75 12.219 C 77.475 15.595, 80.999 19.964, 82.832 21.929 C 84.664 23.893, 87.234 27.588, 88.542 30.139 C 92.101 37.079, 93.580 38.194, 98.902 37.952 C 107.650 37.553, 108.117 37.703, 107.616 40.750 C 107.368 42.263, 107.127 44.091, 107.082 44.813 C 107.037 45.535, 106.213 46.046, 105.250 45.948 C 101.013 45.517, 100.720 45.845, 101.421 50.231 C 102.224 55.253, 99.567 61.970, 96.769 61.989 C 94.380 62.004, 93.555 66.088, 94.734 72.054 C 95.515 76.003, 95.443 77, 94.375 77 C 93.640 77, 92.751 78.238, 92.400 79.750 C 91.103 85.339, 89.302 87, 84.536 87 C 79.786 87, 77.926 88.443, 80.132 90.416 C 80.884 91.089, 86 92.896, 91.500 94.432 C 97 95.968, 101.993 97.622, 102.596 98.107 C 103.235 98.622, 106.151 98.527, 109.596 97.880 C 126.233 94.756, 145.446 100.504, 158.949 112.644 C 165.264 118.322, 173.676 128.862, 174.494 132.121 C 175.083 134.465, 174.517 134.918, 165.812 139.064 L 156.500 143.500 173.463 143.775 C 182.793 143.926, 191.006 143.828, 191.713 143.557 C 192.746 143.160, 193 128.923, 193 71.531 L 193 0 96.500 0 L 0 0 0 72 M 0.474 72.500 C 0.474 112.100, 0.598 128.154, 0.750 108.176 C 0.901 88.198, 0.901 55.798, 0.750 36.176 C 0.598 16.554, 0.474 32.900, 0.474 72.500 M 113.607 55.582 C 112.504 58.456, 112.964 59, 116.500 59 C 120.132 59, 121.062 57.462, 118.800 55.200 C 117.106 53.506, 114.325 53.710, 113.607 55.582 M 32 75.441 C 32 76.784, 32.450 78.160, 33 78.500 C 33.583 78.861, 34 77.844, 34 76.059 C 34 74.377, 33.550 73, 33 73 C 32.450 73, 32 74.098, 32 75.441 M 19.469 135.050 C 18.551 136.536, 19.281 137.062, 20.886 136.071 C 21.745 135.539, 21.848 135.024, 21.176 134.609 C 20.605 134.256, 19.837 134.455, 19.469 135.050" stroke="none" fill="black" fill-rule="evenodd"/>
</svg>