<svg xmlns="http://www.w3.org/2000/svg" width="192" height="144" viewBox="0 0 192 144" version="1.1">
	<path d="M 148.667 0.667 C 147.359 1.974, 148.026 3.223, 149.416 2.070 C 150.546 1.132, 150.961 1.302, 151.471 2.910 C 152.386 5.793, 150.861 8.109, 141.351 18.274 C 136.705 23.241, 133.113 27.852, 133.370 28.522 C 133.627 29.191, 132.944 31.208, 131.852 33.003 C 130.606 35.052, 130.219 36.619, 130.812 37.212 C 131.332 37.732, 131.530 40.985, 131.253 44.441 C 130.905 48.774, 131.257 52.259, 132.387 55.660 C 133.837 60.026, 133.864 61.135, 132.616 65.280 C 130.235 73.192, 106.229 95, 99.899 95 C 98.917 95, 97.327 93.670, 96.367 92.044 C 95.406 90.418, 92.697 87.646, 90.347 85.885 C 86.743 83.185, 86.092 82.166, 86.197 79.387 C 86.265 77.574, 86.923 75.860, 87.660 75.577 C 88.397 75.294, 89 74.394, 89 73.576 C 89 70.903, 83.943 64.540, 80.338 62.678 C 76.715 60.806, 74.712 61.112, 76.817 63.217 C 78.376 64.776, 78.319 66, 76.687 66 C 74.767 66, 70.233 71.100, 69.576 74 C 69.265 75.375, 68.818 79.875, 68.583 84 C 68.348 88.125, 67.588 94.566, 66.894 98.313 C 65.076 108.124, 67.817 123.948, 71.585 125.394 C 72.948 125.917, 76.976 120.360, 77.030 117.882 C 77.051 116.943, 77.391 117.068, 78.092 118.271 C 78.659 119.245, 79.545 119.781, 80.061 119.462 C 80.578 119.143, 81 119.734, 81 120.774 C 81 123.367, 81.950 124.097, 83.940 123.032 C 85.726 122.076, 85.707 122.736, 83.474 138.750 L 82.742 144 137.371 144 L 192 144 192 125.931 L 192 107.862 183.302 95.241 C 176.604 85.522, 174.655 81.943, 174.828 79.674 C 174.951 78.054, 174.267 75.552, 173.308 74.114 C 170.897 70.503, 170.901 56.054, 173.314 45.768 C 175.091 38.193, 175.215 37.999, 179.404 36.146 C 183.555 34.309, 183.681 34.116, 183.751 29.487 C 183.809 25.697, 184.355 24.227, 186.412 22.319 C 187.835 20.999, 189 20.248, 189 20.651 C 189 21.053, 189.661 20.509, 190.468 19.441 C 192.141 17.230, 192.505 10.430, 191 9.500 C 190.450 9.160, 190 8.432, 190 7.882 C 190 7.332, 190.450 7.160, 191 7.500 C 191.604 7.873, 192 6.510, 192 4.059 L 192 0 170.667 0 C 158.933 0, 149.033 0.300, 148.667 0.667 M 125.378 103.107 C 115.958 109.215, 112.990 111.815, 113.030 113.924 C 113.047 114.791, 115.479 119.713, 118.434 124.863 C 124.706 135.788, 124.025 136.182, 129.424 118.500 C 132.934 106.999, 134.840 98, 133.764 98 C 133.485 98, 129.711 100.298, 125.378 103.107" stroke="none" fill="black" fill-rule="evenodd"/>
</svg>