<svg xmlns="http://www.w3.org/2000/svg" width="192" height="144" viewBox="0 0 192 144" version="1.1">
	<path d="M 81.190 22.026 C 77.234 24.437, 74.712 29.745, 74.418 36.275 C 74.200 41.120, 72.751 44, 70.533 44 C 69.860 44, 68.515 44.878, 67.543 45.952 C 65.841 47.833, 65.881 47.996, 68.638 50.420 C 70.212 51.804, 72.032 52.951, 72.683 52.968 C 74.718 53.023, 75.266 56.946, 73.594 59.497 C 72.686 60.883, 72.421 62.142, 72.967 62.480 C 73.487 62.801, 73.623 63.837, 73.269 64.782 C 72.707 66.283, 72.838 66.327, 74.313 65.128 C 75.570 64.105, 76 64.068, 76 64.985 C 76 65.661, 76.619 65.976, 77.376 65.686 C 78.193 65.372, 79.218 66.184, 79.904 67.688 C 80.721 69.482, 81.617 70.072, 82.982 69.715 C 84.041 69.438, 85.671 69.770, 86.605 70.453 C 89.006 72.209, 87.003 73.249, 79.520 74.131 C 72.589 74.948, 69.831 77.348, 67.872 84.264 C 66.356 89.621, 64.580 91.721, 62.800 90.264 C 62.085 89.679, 57.450 89.034, 52.500 88.832 L 43.500 88.465 34.597 82.759 C 29.701 79.622, 24.188 76.557, 22.347 75.950 C 20.031 75.185, 19 74.227, 19 72.839 C 19 71.736, 18.618 70.983, 18.151 71.167 C 17.684 71.350, 13.849 75.662, 9.629 80.750 C 5.408 85.838, 1.515 90, 0.978 90 C 0.409 90, 0 93.978, 0 99.500 C 0 108.877, 0.031 109, 2.414 109 C 4.234 109, 5.585 107.770, 7.905 104 C 9.597 101.250, 11.404 99, 11.919 99 C 13.129 99, 16 101.864, 16 103.071 C 16 103.582, 16.450 104, 17 104 C 17.550 104, 18 103.086, 18 101.969 C 18 97.715, 23.939 99.047, 28.084 104.230 C 29.660 106.201, 29.687 106.200, 33.794 104.105 C 39.058 101.420, 39.732 101.454, 44.427 104.644 C 47.503 106.735, 48.652 107.052, 49.909 106.161 C 53.986 103.271, 64.732 97.124, 66.750 96.529 C 68.520 96.007, 69 96.266, 69 97.741 C 69 98.773, 69.661 100.491, 70.468 101.559 C 71.378 102.761, 71.948 105.832, 71.968 109.628 C 71.990 113.823, 72.473 116.148, 73.500 117 C 75.947 119.031, 75.185 126, 72.515 126 C 70.630 126, 68.657 128.670, 69.951 129.470 C 71.669 130.531, 71.137 136.263, 68.996 139.774 C 67.898 141.575, 67 143.262, 67 143.524 C 67 143.786, 77.103 144, 89.452 144 L 111.903 144 110.583 140.861 C 109.500 138.283, 109.495 137.274, 110.560 135.223 C 111.686 133.052, 111.597 132.374, 109.884 130.057 C 108.087 127.627, 107.975 126.414, 108.621 116.445 C 109.359 105.050, 109.603 104.834, 111.409 113.976 C 112.478 119.390, 112.573 119.506, 116.185 119.806 C 120.947 120.203, 122.394 117.760, 121.780 110.357 C 121.535 107.410, 121.538 105, 121.786 105 C 122.033 105, 123.786 106.361, 125.680 108.024 L 129.124 111.048 131.873 109.090 C 136.548 105.761, 139.160 105.619, 143.355 108.466 L 147.147 111.040 148.834 108.957 C 149.857 107.693, 152.187 106.650, 154.760 106.305 C 158.598 105.791, 159 105.939, 159 107.868 C 159 110.587, 159.721 110.558, 162.027 107.750 C 164.292 104.992, 166.439 105.964, 169.119 110.962 C 171.918 116.180, 172.491 116.488, 176.767 115.077 C 181.407 113.546, 184.458 113.370, 188.750 114.388 C 191.737 115.097, 192 114.962, 192 112.727 C 192 110.958, 190.432 109.059, 186.250 105.764 C 178.679 99.799, 168.947 89.780, 164.399 83.270 C 160.991 78.393, 159 77.343, 159 80.423 C 159 81.141, 156.891 82.534, 154.313 83.518 C 151.735 84.503, 147.078 86.826, 143.965 88.680 C 136.896 92.891, 132.668 94.130, 127.943 93.375 C 124.745 92.863, 124.105 92.293, 123.147 89.097 C 121.428 83.360, 115.618 77.235, 110.692 75.967 C 102.510 73.860, 99.901 72.797, 100.261 71.716 C 100.462 71.114, 102.331 70.547, 104.414 70.457 C 106.497 70.367, 108.555 69.721, 108.987 69.021 C 109.419 68.322, 110.975 67.750, 112.445 67.750 C 114.302 67.750, 114.957 67.330, 114.590 66.375 C 114.290 65.593, 114.696 65, 115.531 65 C 117.425 65, 117.410 63.585, 115.500 62 C 113.868 60.646, 113.460 58, 114.883 58 C 115.369 58, 116.013 57.060, 116.313 55.910 C 116.727 54.328, 117.362 53.980, 118.930 54.478 C 120.603 55.009, 121 54.705, 121 52.896 C 121 51.665, 120.253 49.832, 119.339 48.823 C 117.375 46.652, 118.280 45.158, 120.463 46.969 C 122.933 49.019, 125 47.453, 125 43.531 C 125 40.330, 125.262 40, 127.800 40 C 132.352 40, 133.257 38.205, 130.520 34.608 C 129.220 32.898, 127.867 30.150, 127.515 28.500 C 127.163 26.850, 126.663 24.462, 126.404 23.192 L 125.933 20.885 122.217 23.775 C 116.205 28.449, 116.081 28.467, 112.664 25.204 C 108.614 21.336, 103.600 20.012, 93 20.009 C 86.232 20.008, 83.825 20.419, 81.190 22.026" stroke="none" fill="black" fill-rule="evenodd"/>
</svg>