<svg xmlns="http://www.w3.org/2000/svg" width="192" height="144" viewBox="0 0 192 144" version="1.1">
	<path d="M -0 72.005 L -0 144.010 96.250 143.755 L 192.500 143.500 192.757 71.750 L 193.013 0 96.507 0 L 0 0 -0 72.005 M 0.474 72.500 C 0.474 112.100, 0.598 128.154, 0.750 108.176 C 0.901 88.198, 0.901 55.798, 0.750 36.176 C 0.598 16.554, 0.474 32.900, 0.474 72.500 M 88.455 26.455 C 84.841 30.069, 85.101 35.065, 89.077 38.411 C 92.652 41.419, 92.958 41.462, 97.452 39.585 C 101.332 37.963, 103 35.424, 103 31.138 C 103 24.668, 93.349 21.560, 88.455 26.455" stroke="none" fill="black" fill-rule="evenodd"/>
</svg>