<svg xmlns="http://www.w3.org/2000/svg" width="192" height="144" viewBox="0 0 192 144" version="1.1">
	<path d="M 0 72 L 0 144 18.302 144 L 36.605 144 38.434 138.914 C 39.440 136.117, 43.111 130.008, 46.593 125.338 L 52.923 116.847 52.527 103.174 C 52.310 95.653, 51.610 82.075, 50.971 73 C 49.402 50.690, 49.912 43.861, 53.622 37.500 C 57.404 31.014, 57.016 28.624, 51.845 26.555 C 48.559 25.240, 48.024 24.677, 48.972 23.534 C 49.613 22.761, 51.345 21.858, 52.819 21.527 C 54.294 21.196, 56.622 20.070, 57.993 19.024 C 60.733 16.936, 60.714 16.919, 53.452 15.065 C 51.226 14.497, 48.104 12.675, 46.515 11.016 C 43.386 7.750, 44.121 7.314, 49.940 8.983 C 51.825 9.523, 53.532 9.801, 53.733 9.600 C 53.934 9.399, 52.952 7.544, 51.549 5.478 C 50.147 3.411, 49 1.334, 49 0.860 C 49 0.387, 37.975 0, 24.500 0 L 0 0 0 72 M 57.687 5.462 C 62.954 11.439, 62.682 11.530, 64.311 3.250 L 64.950 0 58.912 -0 L 52.875 -0 57.687 5.462 M 69 3.418 C 69 5.298, 68.721 7.563, 68.380 8.451 C 67.953 9.566, 69.349 9.079, 72.891 6.877 C 75.713 5.123, 78.285 3.952, 78.608 4.275 C 79.690 5.356, 75.894 10.471, 71.868 13.357 C 69.675 14.929, 68.066 16.399, 68.291 16.625 C 68.517 16.850, 71.319 17.364, 74.518 17.767 C 80.925 18.574, 82.557 20.334, 78.579 22.146 C 74.160 24.159, 75.070 28.147, 80.930 32.449 C 87.554 37.311, 89.171 41.630, 88.813 53.504 C 88.486 64.362, 89.044 73.909, 90.042 74.526 C 90.444 74.775, 91.314 74.327, 91.974 73.531 C 93.249 71.995, 98.402 72.419, 100.738 74.253 C 102.617 75.728, 102.900 74.098, 103.886 56.141 C 104.656 42.124, 105.077 39.388, 106.822 37.027 C 108.748 34.422, 108.776 34.031, 107.331 29.886 C 105.322 24.119, 106.115 16.537, 109.436 9.767 C 110.857 6.870, 111.779 5.625, 111.483 7 C 109.043 18.357, 110.386 31.892, 113.811 30.462 C 116.608 29.295, 124.659 28.713, 128.372 29.410 C 130.289 29.770, 133.301 31.413, 135.066 33.062 C 138.001 35.804, 138.423 35.927, 139.994 34.506 C 140.938 33.651, 142.508 31.472, 143.482 29.663 C 145.239 26.400, 145.233 26.355, 142.626 23.542 C 138.877 19.496, 139.219 18, 143.893 18 C 148.152 18, 149 16.957, 149 11.718 C 149 7.846, 150.710 9.248, 151.173 13.500 C 151.434 15.898, 152.031 16.562, 154.146 16.806 C 155.601 16.975, 157.537 17.936, 158.448 18.943 C 160.005 20.663, 159.938 20.904, 157.336 22.951 C 154.869 24.891, 154.442 24.958, 153.423 23.564 C 151.710 21.221, 151.306 21.563, 149.553 26.840 C 148.669 29.502, 146.600 33.510, 144.955 35.747 L 141.964 39.814 141.520 59.157 C 141.276 69.796, 140.624 81.650, 140.071 85.500 C 139.518 89.350, 139.051 96.242, 139.033 100.816 C 139.015 105.389, 138.505 110.056, 137.900 111.186 C 137.295 112.317, 137.239 112.970, 137.775 112.639 C 138.311 112.308, 138.750 113.128, 138.750 114.462 C 138.750 119.312, 142.221 123.370, 148.053 125.338 C 151.049 126.349, 155.524 127.892, 157.997 128.765 C 162.694 130.425, 172.500 138.849, 173.537 142.116 C 174.064 143.776, 175.197 144, 183.067 144 L 192 144 192 72 L 192 0 130.500 0 L 69 0 69 3.418 M 94.652 99.707 C 93.743 101.464, 93 103.498, 93 104.228 C 93 104.958, 92.237 106.644, 91.304 107.976 C 89.970 109.881, 89.651 112.323, 89.808 119.448 C 89.995 127.938, 89.919 128.314, 88.587 125.500 C 87.223 122.620, 87.187 122.741, 87.687 128.500 C 88.271 135.235, 87.311 135.127, 84.828 128.179 L 83.155 123.500 83.001 127 C 82.917 128.925, 82.241 132.075, 81.500 134 L 80.152 137.500 80.076 132.250 C 79.993 126.531, 79.057 125.657, 77.042 129.421 C 75.972 131.420, 75.994 132.860, 77.168 137.671 L 78.590 143.500 96.713 143.772 L 114.836 144.044 115.546 137.411 C 115.979 133.367, 115.875 130.528, 115.278 130.138 C 114.740 129.787, 113.818 128.150, 113.229 126.500 C 112.275 123.828, 112.149 124.260, 112.079 130.450 C 111.989 138.392, 110.145 138.466, 109.254 130.564 C 108.552 124.335, 107.498 124.084, 105.887 129.762 L 104.544 134.500 104.216 129.136 C 103.914 124.205, 103.768 123.922, 102.409 125.636 C 101.086 127.304, 100.999 126.585, 101.579 118.803 C 102.168 110.907, 102.033 109.857, 100.114 107.418 C 98.951 105.940, 97.968 103.778, 97.930 102.615 C 97.891 101.452, 97.509 99.603, 97.081 98.507 C 96.370 96.684, 96.162 96.786, 94.652 99.707" stroke="none" fill="black" fill-rule="evenodd"/>
</svg>