<svg xmlns="http://www.w3.org/2000/svg" width="192" height="144" viewBox="0 0 192 144" version="1.1">
	<path d="M 0 72 L 0 144 34.559 144 C 57.500 144, 68.909 143.662, 68.496 142.993 C 68.154 142.439, 68.802 140.682, 69.937 139.089 C 71.072 137.495, 72 135.046, 72 133.647 C 72 130.860, 76.468 115.989, 78.503 112 C 79.205 110.625, 80.074 107.305, 80.435 104.621 C 81.047 100.072, 80.955 99.779, 79.072 100.271 C 77.961 100.561, 75.128 100.358, 72.776 99.818 C 70.424 99.279, 66.153 98.857, 63.285 98.881 C 58.321 98.922, 55.841 97.834, 57.940 96.537 C 58.475 96.206, 58.642 95.231, 58.311 94.369 C 57.799 93.033, 58.005 92.986, 59.704 94.047 C 61.727 95.311, 65.271 94.859, 68 92.991 C 69.310 92.094, 69.278 91.833, 67.750 90.932 C 65.498 89.604, 65.542 87.818, 67.946 83.106 C 69.458 80.143, 69.625 79.021, 68.696 78.079 C 67.764 77.134, 68.495 76.003, 72 72.963 C 76.898 68.714, 78.686 68.192, 80.390 70.511 C 81.347 71.815, 82.119 71.844, 86 70.723 C 90.017 69.563, 90.534 69.077, 90.815 66.190 C 91.035 63.929, 90.735 63.038, 89.815 63.228 C 88.979 63.401, 88.382 62.263, 88.176 60.101 C 87.997 58.232, 87.159 55.646, 86.313 54.356 C 85.208 52.668, 84.982 50.954, 85.509 48.254 C 85.912 46.189, 86.343 43.037, 86.467 41.249 C 86.740 37.300, 89.674 33.762, 92.049 34.516 C 93.048 34.833, 94.003 34.435, 94.338 33.562 C 94.848 32.233, 95.314 32.233, 98.500 33.564 C 100.473 34.389, 102.586 34.756, 103.196 34.379 C 103.805 34.003, 104.889 34.495, 105.604 35.473 C 106.403 36.566, 107.549 37.003, 108.579 36.608 C 110.843 35.739, 113 37.713, 113 40.654 C 113 41.979, 113.620 43.301, 114.377 43.591 C 115.388 43.979, 115.798 46.517, 115.918 53.126 C 116.066 61.217, 115.855 62.369, 113.843 64.459 C 112.612 65.738, 111.064 66.578, 110.403 66.324 C 107.870 65.352, 107.960 68.180, 110.527 70.200 C 112.999 72.144, 113.183 72.774, 112.764 77.829 C 112.402 82.194, 111.767 83.804, 109.705 85.577 C 108.009 87.036, 106.562 89.901, 105.551 93.802 C 103.346 102.311, 103.513 103.873, 106.750 105.045 C 113.750 107.580, 121 112.272, 121 114.267 C 121 114.907, 118.862 117.606, 116.250 120.264 L 111.500 125.098 114.626 130.799 C 116.528 134.268, 119.660 137.969, 122.626 140.253 L 127.500 144.006 160 143.753 L 192.500 143.500 192.757 71.750 L 193.013 0 96.507 0 L 0 0 0 72 M 0.474 72.500 C 0.474 112.100, 0.598 128.154, 0.750 108.176 C 0.901 88.198, 0.901 55.798, 0.750 36.176 C 0.598 16.554, 0.474 32.900, 0.474 72.500 M 92 65.992 C 92 67.333, 92.664 68, 94 68 C 95.100 68, 96 67.658, 96 67.241 C 96 66.823, 95.100 65.919, 94 65.232 C 92.249 64.139, 92 64.233, 92 65.992 M 76.543 87.931 C 75.541 89.552, 77.718 90.045, 79.009 88.489 C 80.014 87.278, 79.953 87, 78.681 87 C 77.822 87, 76.859 87.419, 76.543 87.931 M 115.393 141.582 C 115.727 142.452, 116 143.352, 116 143.582 C 116 143.812, 117.237 143.990, 118.750 143.978 L 121.500 143.956 119 142 C 115.959 139.621, 114.579 139.461, 115.393 141.582" stroke="none" fill="black" fill-rule="evenodd"/>
</svg>