<svg xmlns="http://www.w3.org/2000/svg" width="192" height="144" viewBox="0 0 192 144" version="1.1">
	<path d="M 0 72 L 0 144 35.327 144 L 70.654 144 71.872 134.250 C 72.542 128.887, 73.596 121.025, 74.214 116.777 C 75.107 110.641, 75.065 108.226, 74.009 105.027 C 73.278 102.812, 72.292 101, 71.819 101 C 71.345 101, 70.467 99.925, 69.868 98.610 C 68.964 96.625, 69.133 95.867, 70.867 94.133 C 73.119 91.881, 72.798 88.092, 70.516 89.987 C 69.624 90.727, 68.889 90.571, 67.953 89.443 C 67.230 88.573, 65.806 88.079, 64.787 88.345 C 62.357 88.981, 60.387 85.904, 58.957 79.237 C 58.340 76.357, 57.422 74, 56.917 74 C 56.413 74, 56 74.450, 56 75 C 56 75.550, 55.534 76, 54.965 76 C 54.251 76, 54.251 75.399, 54.965 74.066 C 55.534 73.002, 56 71.381, 56 70.463 C 56 67.032, 63.810 52.275, 67.757 48.248 C 69.999 45.960, 73.897 43.119, 76.417 41.934 C 78.938 40.749, 81 39.344, 81 38.812 C 81 38.279, 79.436 34.592, 77.525 30.618 C 73.229 21.688, 66.781 14.746, 57 8.523 C 52.875 5.899, 48.281 2.907, 46.790 1.876 C 44.341 0.180, 41.965 -0, 22.040 -0 L 0 0 0 72 M 76.620 1.250 C 77.026 1.938, 78.478 3.991, 79.846 5.813 C 82.614 9.499, 85.619 15.566, 90.583 27.485 C 92.412 31.876, 94.273 35.591, 94.720 35.740 C 95.166 35.889, 93.949 27.913, 92.016 18.016 L 88.500 0.022 82.191 0.011 C 77.415 0.003, 76.061 0.304, 76.620 1.250 M 111.423 8.250 C 111.644 12.787, 111.864 20.851, 111.912 26.170 L 112 35.839 116.966 37.489 C 121.844 39.109, 135.227 47.240, 139.849 51.390 C 143.051 54.266, 146.850 62, 149.166 70.357 C 152.312 81.710, 153.867 96.107, 154.608 120.750 L 155.308 144 173.654 144 L 192 144 192 72 L 192 0 151.510 0 L 111.021 0 111.423 8.250 M 87.361 116.828 C 85.237 117.650, 83.440 118.363, 83.367 118.411 C 83.294 118.460, 82.907 120.023, 82.508 121.884 L 81.782 125.268 85.146 122.703 C 86.995 121.292, 89.744 119.667, 91.254 119.093 C 94.094 118.014, 95.061 115.333, 92.611 115.333 C 91.847 115.333, 89.485 116.006, 87.361 116.828" stroke="none" fill="black" fill-rule="evenodd"/>
</svg>