<svg xmlns="http://www.w3.org/2000/svg" width="192" height="144" viewBox="0 0 192 144" version="1.1">
	<path d="M 118.091 15.971 C 115.254 19.786, 111.824 23.780, 110.467 24.847 C 107.697 27.026, 107.237 29, 109.500 29 C 112.846 29, 110.647 31.302, 104.954 33.758 C 100.061 35.869, 98.965 36.761, 99.204 38.433 C 99.491 40.436, 99.948 40.638, 104.750 40.885 C 106.444 40.971, 107 41.610, 107 43.465 C 107 44.886, 107.827 46.372, 108.952 46.975 C 110.559 47.835, 110.840 48.858, 110.541 52.760 C 110.340 55.367, 110.137 58.288, 110.088 59.250 C 109.995 61.093, 105.608 61.793, 104.580 60.129 C 104.284 59.650, 102.795 59.007, 101.271 58.701 C 99.747 58.394, 94.856 56.077, 90.402 53.551 C 85.450 50.743, 79.748 48.424, 75.723 47.582 C 72.103 46.825, 68.596 45.868, 67.930 45.457 C 67.264 45.045, 64.090 44.640, 60.877 44.558 C 55.908 44.430, 54.584 43.975, 52.017 41.517 C 50.358 39.927, 48.963 38.823, 48.918 39.063 C 47.934 44.290, 48.087 44.895, 51.006 47.351 C 52.681 48.761, 56.481 50.680, 59.451 51.616 C 65.346 53.474, 66.270 54.907, 65.503 61 C 64.590 68.256, 64.117 76.783, 64.600 77.267 C 64.877 77.543, 67.442 76.479, 70.301 74.903 C 76.117 71.696, 81.188 71.232, 86.216 73.446 C 88.022 74.242, 92.763 75.854, 96.750 77.030 C 100.737 78.205, 104 79.592, 104 80.112 C 104 80.632, 102.343 84.532, 100.318 88.778 C 95.946 97.945, 95.125 105.461, 98.309 107.165 C 100.811 108.504, 100.136 113.237, 96.726 118.262 C 94.129 122.089, 90.531 131.865, 91.400 132.734 C 92.687 134.020, 94.808 131.835, 95.416 128.598 C 96.019 125.383, 96.272 125.153, 98.009 126.238 C 99.741 127.320, 99.876 128.272, 99.354 135.720 L 98.773 144 123.235 144 L 147.697 144 149.395 139.750 C 150.329 137.412, 152.032 129.967, 153.180 123.205 L 155.266 110.910 153.156 95.705 C 151.397 83.032, 151.204 78.918, 151.996 71 C 152.518 65.775, 152.958 60.712, 152.973 59.750 C 152.990 58.655, 153.776 58, 155.073 58 L 157.145 58 155.073 55.365 C 152.673 52.315, 152.466 48.559, 154.500 45 C 160.808 33.965, 143.753 14.725, 127.774 14.849 C 122.617 14.888, 122.501 14.801, 124.003 11.995 C 124.564 10.946, 124.619 9.882, 124.127 9.578 C 123.644 9.280, 120.928 12.157, 118.091 15.971" stroke="none" fill="black" fill-rule="evenodd"/>
</svg>