<svg xmlns="http://www.w3.org/2000/svg" width="192" height="144" viewBox="0 0 192 144" version="1.1">
	<path d="M 164.154 26.594 C 162.206 27.967, 149.444 46.171, 148.095 49.500 C 147.630 50.648, 141.132 59.002, 139.539 60.500 C 138.954 61.050, 137.907 62.783, 137.213 64.352 C 136.142 66.770, 135.716 67.009, 134.409 65.925 C 133.562 65.221, 132.193 63.340, 131.368 61.744 C 130.539 60.142, 128.287 58.182, 126.339 57.368 C 123.168 56.043, 122.555 56.062, 120.285 57.549 C 118.896 58.459, 117.527 60.094, 117.242 61.182 C 116.851 62.679, 116.210 62.994, 114.612 62.476 C 108.918 60.630, 106.365 60.822, 103.395 63.321 C 101.104 65.249, 100.020 65.591, 98.642 64.819 C 96.456 63.596, 94.266 65.373, 89.979 71.845 C 86.357 77.314, 86.254 79.404, 89.464 82.379 C 91.914 84.650, 91.924 84.735, 91.313 98.249 C 90.677 112.312, 91.960 125.059, 94.509 130.008 C 95.220 131.388, 95.958 133.383, 96.151 134.442 C 96.343 135.500, 98.075 138.092, 100 140.200 L 103.500 144.033 131.629 143.767 L 159.758 143.500 148.908 131.500 C 142.940 124.900, 138.044 119.124, 138.029 118.666 C 138.013 118.207, 140.011 115.271, 142.469 112.143 C 147.252 106.055, 150 98.909, 152.354 86.445 C 153.678 79.432, 153.649 78.823, 151.883 76.578 C 150.847 75.262, 150 73.354, 150 72.339 C 150 70.511, 161.679 46.809, 164.950 42 C 167.974 37.553, 171.119 29.842, 170.806 27.643 C 170.418 24.922, 167.238 24.420, 164.154 26.594" stroke="none" fill="black" fill-rule="evenodd"/>
</svg>