<svg xmlns="http://www.w3.org/2000/svg" width="192" height="144" viewBox="0 0 192 144" version="1.1">
	<path d="M 88.564 12.500 C 86.801 14.425, 84.776 16, 84.065 16 C 82.404 16, 83.541 24.506, 85.593 27.437 C 86.367 28.541, 87 30.444, 87 31.666 C 87 33.073, 88.099 34.536, 90 35.659 C 91.650 36.634, 92.984 37.672, 92.964 37.966 C 92.944 38.260, 91.877 39.784, 90.593 41.354 C 88.610 43.779, 87.948 44.042, 86.195 43.104 C 81.585 40.637, 78 42.750, 78 47.934 C 78 49.713, 78.619 50, 82.465 50 C 87.392 50, 88.375 51.013, 90.718 58.500 C 92.542 64.328, 92.281 68.797, 89.923 72.108 C 88.434 74.199, 88.026 75.840, 88.480 77.909 C 89.782 83.837, 84.171 91.376, 74.773 96.327 C 72.173 97.697, 67.898 100.849, 65.273 103.332 C 62.648 105.815, 59.196 108.928, 57.603 110.249 C 54.369 112.929, 54.491 113.468, 59.640 119.277 C 62.430 122.424, 75.958 130, 78.788 130 C 79.380 130, 80.161 130.930, 80.521 132.068 C 81.019 133.635, 80.189 135.133, 77.089 138.265 C 74.840 140.536, 73 142.756, 73 143.197 C 73 143.639, 75.523 144, 78.606 144 C 84.892 144, 88.874 141.535, 92.056 135.675 C 93.278 133.424, 94.321 132.637, 95.640 132.970 C 100.087 134.095, 120.523 132.240, 124.185 130.380 C 126.630 129.138, 126.927 129.195, 127.506 131.018 C 127.855 132.120, 127.833 135.491, 127.455 138.510 L 126.770 144 131.385 144 L 136 144 136 137.450 C 136 133.469, 135.388 129.716, 134.438 127.881 C 132.877 124.862, 132.878 124.859, 137.438 120.845 C 142.517 116.375, 143.136 113.655, 140.507 107.362 C 139.685 105.396, 139.237 103.426, 139.510 102.984 C 140.594 101.229, 138.492 98.730, 133.617 95.979 C 127.599 92.583, 122.220 86.467, 117.600 77.766 L 114.272 71.500 119.848 70 C 124.262 68.813, 125.911 67.776, 127.764 65.025 C 129.371 62.638, 129.911 60.780, 129.487 59.092 C 128.672 55.846, 123.987 48.252, 115.990 37.217 C 113.873 34.295, 113.089 32.295, 113.524 30.925 C 115.036 26.160, 112.943 20.968, 107.067 14.906 C 101.650 9.318, 101.083 9, 96.555 9 C 92.363 9, 91.372 9.434, 88.564 12.500" stroke="none" fill="black" fill-rule="evenodd"/>
</svg>