<svg xmlns="http://www.w3.org/2000/svg" width="192" height="144" viewBox="0 0 192 144" version="1.1">
	<path d="M -0 72.005 L -0 144.010 96.250 143.755 L 192.500 143.500 192.757 71.750 L 193.013 0 96.507 0 L 0 0 -0 72.005 M 0.474 72.500 C 0.474 112.100, 0.598 128.154, 0.750 108.176 C 0.901 88.198, 0.901 55.798, 0.750 36.176 C 0.598 16.554, 0.474 32.900, 0.474 72.500 M 80 33.941 C 80 35.009, 79.596 36.132, 79.102 36.437 C 78.608 36.742, 79.250 39.131, 80.528 41.746 C 86.858 54.694, 87.054 55.531, 83.999 56.500 C 79.873 57.810, 76.765 63.556, 76.244 70.838 L 75.757 77.634 80.928 82.529 C 83.772 85.222, 87.314 88.226, 88.799 89.206 C 91.708 91.124, 98.492 91.631, 99.497 90.005 C 100.983 87.600, 103.751 87.050, 105.666 88.779 C 109.277 92.042, 115 99.710, 115 101.286 C 115 103.131, 119.229 104.813, 119.772 103.183 C 120.009 102.473, 120.935 102.405, 122.464 102.986 C 123.746 103.474, 125.066 103.601, 125.397 103.269 C 126.302 102.365, 126.123 99, 125.170 99 C 123.687 99, 112.192 88.047, 110.067 84.609 C 108.930 82.769, 108 79.560, 108 77.477 C 108 73.806, 108.059 73.743, 109.920 75.428 C 111.755 77.089, 111.895 77.065, 113.054 74.900 C 114.113 72.921, 113.965 72.411, 111.883 70.869 C 110.572 69.898, 108.825 68.368, 108 67.469 C 102.661 61.653, 97.200 56.854, 95.402 56.395 C 92.443 55.640, 87.042 43.416, 87.011 37.405 C 86.998 34.959, 84.075 32, 81.671 32 C 80.684 32, 80 32.794, 80 33.941" stroke="none" fill="black" fill-rule="evenodd"/>
</svg>