<svg xmlns="http://www.w3.org/2000/svg" width="192" height="144" viewBox="0 0 192 144" version="1.1">
	<path d="M 0 72 L 0 144 15.433 144 C 29.964 144, 30.902 143.884, 31.497 142.009 C 32.442 139.031, 31.300 138, 27.056 138 C 24.092 138, 22.866 137.444, 21.613 135.532 C 20.197 133.371, 19.436 133.121, 15.498 133.519 L 11 133.974 11 129.939 C 11 125.568, 11.617 124.141, 20.795 107.275 C 28.725 92.701, 33.008 82.408, 32.968 78.019 C 32.938 74.638, 32.875 74.578, 31.368 76.500 C 29.875 78.403, 29.818 78.322, 30.190 74.820 C 30.406 72.796, 30.226 71.360, 29.791 71.629 C 29.356 71.898, 29 72.921, 29 73.902 C 29 74.884, 28.109 78.278, 27.019 81.445 C 25.520 85.801, 25.296 87.684, 26.096 89.179 C 27.419 91.652, 26.553 94.149, 24.628 93.411 C 23.280 92.893, 21.703 95.519, 22.084 97.646 C 22.168 98.116, 22.184 99.603, 22.118 100.950 C 22.025 102.880, 21.741 103.141, 20.778 102.178 C 20.084 101.484, 19.544 98.265, 19.528 94.728 C 19.493 86.976, 18.523 85.090, 16.043 87.950 C 15.065 89.078, 13.793 90, 13.216 90 C 12.639 90, 12.017 90.419, 11.833 90.930 C 11.650 91.442, 10.621 91.212, 9.546 90.421 C 7.908 89.214, 7.531 87.486, 7.217 79.740 L 6.841 70.500 11.885 60.260 L 16.928 50.021 16.794 39.469 C 16.688 31.139, 16.380 29.024, 15.330 29.427 C 11.812 30.777, 9.637 27.376, 12.500 25 C 15.056 22.879, 14.179 21.094, 9.500 18.895 C 7.025 17.732, 5 16.616, 5 16.415 C 5 15.809, 11.291 17.187, 14.578 18.513 C 17.042 19.506, 18.130 19.501, 20.028 18.485 C 23.310 16.729, 25.296 17.684, 24.549 20.661 C 24.009 22.812, 24.203 22.987, 26.481 22.415 C 30.776 21.337, 35.575 22.771, 36.820 25.505 C 37.440 26.864, 37.685 28.657, 37.366 29.488 C 37.047 30.320, 37.248 31, 37.814 31 C 39.345 31, 40.403 36.997, 39.101 38.299 C 37.073 40.327, 37.958 41.821, 46 49.939 C 50.400 54.381, 54 58.266, 54 58.573 C 54 58.880, 53.501 60.063, 52.892 61.201 C 52.283 62.340, 51.831 66.344, 51.888 70.099 C 51.989 76.687, 55.231 88.774, 63.537 113.514 C 66.441 122.168, 66.973 133, 64.493 133 C 63.665 133, 62.009 134.125, 60.813 135.500 C 59.004 137.581, 57.748 138, 53.320 138 C 48.076 138, 48 138.043, 48 141 L 48 144 96 144 L 144 144 144 139.934 C 144 134.950, 142.538 132, 140.067 132 C 138.555 132, 137.989 130.758, 137.053 125.383 C 136.419 121.744, 136.107 118.560, 136.359 118.308 C 136.611 118.056, 136.405 116.421, 135.901 114.675 C 135.332 112.704, 135.366 108.655, 135.991 104 C 136.545 99.875, 137.231 90.875, 137.516 84 C 137.801 77.125, 138.280 70.600, 138.580 69.500 C 139.045 67.794, 138.813 67.867, 137 70 C 134.732 72.668, 134.714 72.508, 136.545 66 C 137.245 63.512, 137.238 63.513, 135.010 66.303 C 133.779 67.844, 132.590 68.923, 132.368 68.701 C 132.145 68.478, 133.372 64.967, 135.095 60.898 C 137.189 55.950, 139.951 51.679, 143.434 48 C 150.715 40.312, 152.536 37.351, 151.072 35.587 C 150.124 34.445, 150.101 30.403, 151.028 28 C 151.135 27.725, 151.141 26.498, 151.042 25.273 C 150.737 21.487, 155.215 18, 160.382 18 C 164.236 18, 165.209 17.551, 167.416 14.750 C 170.186 11.236, 170.811 11.957, 168.500 16 C 166.821 18.937, 166.662 20, 167.901 20 C 169.228 20, 173.432 12.825, 173.469 10.500 C 173.489 9.200, 174.287 8.388, 175.750 8.180 C 178.694 7.762, 178.623 8.201, 174.537 15.634 C 171.157 21.783, 171.111 22.021, 172.594 25.570 C 174.568 30.294, 173.783 33.863, 168.980 42 C 164.890 48.931, 163.726 54.760, 165.907 57.388 C 166.973 58.672, 166.994 59.302, 166.011 60.487 C 165.332 61.305, 165.063 62.721, 165.413 63.634 C 165.763 64.546, 166.458 68.176, 166.957 71.700 C 167.654 76.624, 168.588 78.962, 170.993 81.803 C 172.714 83.836, 176.972 89.432, 180.456 94.238 C 185.787 101.591, 186.965 103.980, 187.895 109.319 C 190.061 121.755, 189.145 125.375, 183.568 126.421 C 181.313 126.844, 179.338 128.121, 177.973 130.038 C 176.242 132.469, 175.153 133, 171.892 133 C 169.708 133, 166.094 133.932, 163.862 135.070 C 160.529 136.771, 159.908 137.530, 160.388 139.320 C 160.710 140.519, 160.979 142.074, 160.986 142.775 C 160.997 143.766, 164.511 143.989, 176.750 143.775 L 192.500 143.500 192.757 71.750 L 193.013 0 96.507 0 L 0 0 0 72 M 0.474 72.500 C 0.474 112.100, 0.598 128.154, 0.750 108.176 C 0.901 88.198, 0.901 55.798, 0.750 36.176 C 0.598 16.554, 0.474 32.900, 0.474 72.500 M 159.557 71.851 C 159.113 73.233, 159.247 74.647, 159.884 75.284 C 161.577 76.977, 162.304 75.409, 161.261 72.313 L 160.313 69.500 159.557 71.851 M 150 136.375 C 150 137.131, 149.719 139.156, 149.375 140.875 C 148.779 143.853, 148.900 144, 151.942 144 C 154.514 144, 155.034 143.660, 154.615 142.250 C 154.329 141.287, 153.800 139.262, 153.439 137.750 C 152.774 134.961, 150 133.852, 150 136.375 M 38 142 C 37.060 143.756, 37.240 144, 39.465 144 C 41.333 144, 42 143.474, 42 142 C 42 140.900, 41.341 140, 40.535 140 C 39.730 140, 38.589 140.900, 38 142" stroke="none" fill="black" fill-rule="evenodd"/>
</svg>