<svg xmlns="http://www.w3.org/2000/svg" width="192" height="144" viewBox="0 0 192 144" version="1.1">
	<path d="M 69.206 1.703 C 67.945 2.583, 65.582 3.264, 63.956 3.218 C 61.875 3.159, 61 3.608, 61 4.738 C 61 5.621, 60.340 7.071, 59.534 7.962 C 58.226 9.408, 58.549 10.196, 62.526 15.263 C 65.519 19.075, 67.480 20.753, 68.492 20.365 C 71.105 19.362, 70.231 23.673, 67.365 25.927 C 64.724 28.005, 64.907 28.398, 68.347 28.036 C 69.928 27.869, 70.092 28.307, 69.484 31.071 C 68.881 33.816, 69.022 34.205, 70.425 33.667 C 71.485 33.260, 72.299 33.654, 72.701 34.767 C 73.988 38.339, 77.258 42.115, 78.613 41.595 C 79.408 41.290, 80 41.690, 80 42.531 C 80 43.339, 80.690 44, 81.532 44 C 82.375 44, 83.426 44.977, 83.868 46.171 C 84.400 47.609, 84.915 47.947, 85.394 47.171 C 85.792 46.527, 86.597 46, 87.181 46 C 87.896 46, 87.871 46.451, 87.105 47.373 C 86.478 48.129, 86.242 49.468, 86.581 50.350 C 87.013 51.477, 86.350 52.297, 84.348 53.109 C 82.782 53.744, 78.599 55.627, 75.053 57.292 C 71.507 58.957, 68.467 59.910, 68.298 59.410 C 68.128 58.909, 67.169 57.150, 66.166 55.500 L 64.344 52.500 52.422 52.500 C 39.118 52.500, 42.383 53.603, 18.939 41.184 L 7.377 35.059 3.689 37.566 L 0 40.072 -0 53.401 L -0 66.730 3.880 72.447 C 6.014 75.591, 8.142 78.014, 8.610 77.832 C 9.341 77.547, 9.279 68.821, 8.501 62.500 C 8.366 61.400, 8.198 59.305, 8.128 57.845 C 8.057 56.384, 6.398 53.272, 4.440 50.928 L 0.879 46.666 3.318 44.227 C 5.975 41.571, 7.795 41.719, 11.964 44.932 C 14.096 46.575, 14.274 47.146, 13.289 49.166 C 10.497 54.890, 10.894 57.104, 16.797 68.738 C 19.934 74.919, 22.785 79.981, 23.133 79.988 C 24.380 80.012, 24.973 75.341, 24.986 65.390 C 24.999 56.275, 24.757 54.921, 22.530 51.640 C 19.635 47.374, 20.719 47.059, 26.545 50.473 C 31.504 53.380, 32.492 55.292, 30.587 58.302 C 27.431 63.289, 27.725 66.113, 32.591 77.547 C 37.187 88.350, 38.537 90.797, 39.413 89.920 C 39.659 89.675, 40.410 83.795, 41.083 76.853 C 42.284 64.473, 42.264 64.164, 40.072 60.616 L 37.837 57 45.252 57 C 53.367 57, 54.707 57.530, 52.629 59.919 C 51.872 60.788, 50.707 63.199, 50.040 65.276 C 48.921 68.762, 49.155 69.978, 53.082 81.116 L 57.336 93.180 55.206 99.840 C 54.034 103.503, 52.786 108.350, 52.432 110.612 C 51.619 115.809, 51.260 116.331, 47.003 118.514 C 45.080 119.500, 39.804 122.695, 35.278 125.615 C 20.692 135.024, 22.396 134.874, 14.695 127.434 C 8.380 121.333, 4.932 119.684, 3.461 122.063 C 3.100 122.648, 3.578 123.981, 4.523 125.026 C 6.753 127.490, 5.748 130, 2.531 130 C 0.064 130, 0 130.177, 0 137 L 0 144 17.737 144 L 35.474 144 45.708 137.827 C 59.425 129.554, 61.394 127.331, 66.051 114.857 L 69.919 104.500 69.959 120.290 C 69.995 134.208, 69.761 136.549, 67.980 140.040 L 65.959 144 95.480 144 C 111.716 144, 125 143.761, 125 143.468 C 125 143.175, 124.384 141.462, 123.632 139.662 C 121.887 135.486, 120.420 113.477, 121.828 112.606 C 122.384 112.263, 123.379 113.673, 124.040 115.741 C 127.714 127.245, 131.016 130.611, 147.196 139.349 L 155.891 144.046 174.196 143.773 L 192.500 143.500 192.790 136.417 L 193.081 129.335 190.129 129.768 C 187.790 130.111, 186.825 129.662, 185.475 127.603 C 183.837 125.103, 183.857 124.937, 185.989 123.210 C 187.912 121.653, 188.009 121.253, 186.724 120.186 C 184.621 118.440, 180.472 120.229, 178.560 123.707 C 177.715 125.243, 175.493 128.205, 173.622 130.289 L 170.221 134.078 165.066 131.039 C 162.231 129.368, 159.716 128, 159.475 128 C 159.235 128, 156.668 126.487, 153.769 124.637 C 150.871 122.787, 146.182 120.102, 143.348 118.670 C 138.411 116.174, 138.168 115.859, 137.512 111.088 C 137.136 108.350, 136.044 103.498, 135.087 100.305 L 133.346 94.500 136.790 85 C 138.685 79.775, 140.911 73.250, 141.737 70.500 C 142.563 67.750, 143.786 64.825, 144.455 64 C 145.124 63.175, 146.249 61.038, 146.957 59.250 C 147.987 56.646, 148.808 56, 151.088 56 L 153.933 56 151.848 59.533 C 149.914 62.811, 149.815 63.970, 150.483 75.537 C 150.878 82.395, 151.621 88.266, 152.133 88.582 C 152.645 88.899, 155.548 83.891, 158.584 77.455 C 164.319 65.298, 164.715 62.671, 161.598 57.500 C 160.935 56.400, 160.554 54.756, 160.751 53.847 C 161.140 52.055, 167.113 47.734, 170.835 46.552 C 173.041 45.852, 173.007 46.008, 170.072 50.060 C 167.030 54.259, 167.005 54.398, 167.456 64.400 C 167.706 69.955, 167.931 75.602, 167.956 76.950 C 168.023 80.681, 168.385 80.174, 177.743 63.229 C 181.271 56.842, 181.500 54.706, 179.493 46.901 C 178.917 44.660, 179.330 44.003, 182.490 42.138 L 186.156 39.975 189.078 42.056 C 192.833 44.729, 192.757 46.043, 188.607 50.193 C 185.396 53.404, 185.180 54.067, 184.573 62.543 C 184.221 67.469, 183.734 72.737, 183.491 74.250 C 182.773 78.725, 185.160 77.437, 189.250 71.141 L 193 65.369 193 52.223 C 193 40.011, 192.846 38.934, 190.824 37.050 C 189.627 35.935, 187.808 34.757, 186.783 34.431 C 184.914 33.838, 172.271 39.798, 161 46.585 C 157.975 48.407, 154.264 50.193, 152.754 50.556 C 150.019 51.212, 150.011 51.199, 150.604 46.857 C 150.931 44.461, 150.699 39.802, 150.088 36.504 C 149.438 32.995, 149.354 30.382, 149.887 30.204 C 150.387 30.038, 150.572 28.231, 150.299 26.191 C 149.929 23.435, 150.470 21.222, 152.401 17.591 C 154.414 13.805, 155 11.270, 155 6.351 L 155 0 113.250 0.052 C 76.675 0.098, 71.216 0.303, 69.206 1.703 M 130.084 26.648 C 126.634 32.144, 126.319 34.176, 128.571 36.429 C 130 37.857, 129.909 38, 127.571 38 C 125.359 38, 125 38.435, 125 41.122 C 125 43.560, 124.717 44.010, 123.709 43.174 C 122.183 41.907, 116.198 46.928, 114.379 51 C 113.281 53.459, 113.241 53.429, 111.950 49.173 L 110.637 44.845 109.237 47.518 C 108.249 49.403, 107.271 50.043, 105.918 49.689 C 104.548 49.331, 104 49.705, 104 51 C 104 52.267, 105.423 53.297, 108.730 54.424 C 111.332 55.310, 115.163 57.404, 117.244 59.076 L 121.027 62.116 122.763 58.959 C 126.125 52.850, 128.178 50.801, 130.494 51.244 C 132.668 51.659, 132.713 51.437, 133.330 37.145 C 133.675 29.158, 133.771 22.438, 133.544 22.210 C 133.316 21.983, 131.759 23.980, 130.084 26.648 M 89 34.886 C 89 35.708, 94.023 38.310, 94.565 37.769 C 94.733 37.600, 93.550 36.704, 91.935 35.778 C 90.321 34.851, 89 34.450, 89 34.886 M 0.395 53.500 C 0.396 61.200, 0.553 64.218, 0.743 60.206 C 0.934 56.195, 0.932 49.895, 0.741 46.206 C 0.549 42.518, 0.393 45.800, 0.395 53.500 M 102.667 45.667 C 102.300 46.033, 102 46.798, 102 47.367 C 102 47.993, 102.466 47.934, 103.183 47.217 C 103.834 46.566, 104.134 45.801, 103.850 45.517 C 103.566 45.233, 103.033 45.300, 102.667 45.667 M 128.583 61.084 C 125.954 64.209, 125.648 66.049, 127.648 66.716 C 128.763 67.088, 132.648 59.315, 131.781 58.448 C 131.488 58.155, 130.049 59.341, 128.583 61.084 M 59 59.398 C 59 59.617, 60.057 61.657, 61.349 63.932 C 63.409 67.558, 63.859 67.874, 65.002 66.498 C 66.105 65.168, 65.870 64.474, 63.465 61.964 C 60.958 59.347, 59 58.222, 59 59.398 M 0.336 137 C 0.336 141.125, 0.513 142.813, 0.728 140.750 C 0.944 138.688, 0.944 135.313, 0.728 133.250 C 0.513 131.188, 0.336 132.875, 0.336 137" stroke="none" fill="black" fill-rule="evenodd"/>
</svg>