<svg xmlns="http://www.w3.org/2000/svg" width="192" height="144" viewBox="0 0 192 144" version="1.1">
	<path d="M 84.619 21.052 C 78.274 22.913, 74 29.716, 74 37.953 C 74 42.079, 73.660 42.838, 71.250 44.081 C 66.342 46.613, 65.806 48.154, 68.755 51.250 C 70.196 52.763, 71.917 54, 72.580 54 C 74.574 54, 75.144 57.132, 73.583 59.514 C 71.850 62.158, 72.541 66.113, 74.599 65.324 C 75.369 65.028, 76 65.332, 76 66 C 76 66.668, 76.652 66.964, 77.449 66.658 C 78.325 66.322, 79.142 66.872, 79.516 68.051 C 79.856 69.123, 80.667 70.048, 81.317 70.106 C 81.968 70.165, 83.400 70.277, 84.500 70.356 C 88.424 70.638, 86.644 73.411, 82 74.251 C 73.841 75.726, 73.074 76.004, 70.989 78.243 C 69.852 79.463, 68.244 82.792, 67.416 85.641 C 65.827 91.107, 63.734 92.854, 61.246 90.789 C 60.283 89.990, 57.344 89.655, 53.038 89.854 C 45.346 90.210, 41.941 89.065, 33.303 83.219 C 30.111 81.059, 25.363 78.352, 22.750 77.202 C 20.013 75.998, 18 74.453, 18 73.556 C 18 70.714, 16.223 71.936, 11.178 78.250 C 8.432 81.688, 4.793 85.822, 3.092 87.437 C 0.026 90.350, 0 90.460, 0 100.687 C 0 113.352, 0.783 113.719, 7.216 104.077 C 10.085 99.777, 11.443 99.326, 13.674 101.933 C 15.888 104.517, 16.628 104.531, 17.290 102 C 18.094 98.925, 21.763 99.563, 25.653 103.453 L 29.106 106.906 32.303 104.957 C 36.666 102.297, 40.258 102.505, 43.975 105.632 L 47.103 108.265 51.302 105.271 C 60.746 98.538, 70.013 94.918, 68.638 98.500 C 68.322 99.325, 68.386 100.004, 68.781 100.008 C 70.296 100.024, 72 105.618, 72 110.577 C 72 113.960, 72.520 116.187, 73.500 117 C 76.684 119.643, 74.447 126.588, 69.875 128.250 C 68.772 128.651, 68.747 129.012, 69.750 130.075 C 71.583 132.018, 71.270 136.045, 68.996 139.774 C 67.898 141.575, 67 143.262, 67 143.524 C 67 143.786, 76.900 144, 89 144 C 101.100 144, 111 143.745, 111 143.434 C 111 143.123, 110.512 141.957, 109.916 140.844 C 109.123 139.362, 109.159 138.031, 110.048 135.884 C 111.078 133.396, 111.005 132.663, 109.565 131.072 C 108.137 129.494, 107.917 127.432, 108.183 118.106 C 108.358 112.008, 108.779 107.014, 109.120 107.009 C 109.461 107.004, 110.254 109.616, 110.884 112.814 C 112.151 119.257, 113.357 121, 116.545 121 C 120.538 121, 122.350 117.677, 121.714 111.520 L 121.145 106.009 124.417 108.505 C 128.199 111.389, 129.291 111.559, 130.978 109.526 C 131.651 108.716, 133.734 107.765, 135.608 107.414 C 138.342 106.901, 139.686 107.286, 142.407 109.361 C 145.500 111.720, 145.917 111.805, 147.149 110.319 C 148.992 108.097, 154.541 105.887, 156.444 106.617 C 157.300 106.945, 158 108.091, 158 109.163 C 158 110.864, 158.303 110.759, 160.385 108.338 C 163.277 104.976, 164.744 105.796, 167.919 112.551 C 169.069 114.998, 170.153 117, 170.327 117 C 170.501 117, 172.768 116.276, 175.364 115.392 C 179.968 113.823, 184.002 114.145, 190.371 116.589 C 191.545 117.039, 192 116.650, 192 115.193 C 192 113.912, 189.713 111.351, 185.750 108.194 C 177.761 101.832, 169.592 93.189, 164.063 85.250 C 159.425 78.591, 158.509 77.945, 157.760 80.809 C 157.490 81.841, 155.253 83.395, 152.555 84.426 C 149.952 85.420, 144.833 87.981, 141.177 90.116 C 135.725 93.303, 133.581 94, 129.234 94 C 125.055 94, 123.827 93.631, 123.416 92.250 C 122.125 87.913, 118.425 81.694, 115.844 79.522 C 114.291 78.215, 110.653 76.651, 107.760 76.046 C 101.020 74.638, 99.522 73.687, 100.408 71.379 C 101.007 69.819, 101.255 69.768, 102.130 71.028 C 102.930 72.180, 103.265 72.220, 103.673 71.208 C 104.056 70.261, 104.544 70.207, 105.507 71.006 C 106.491 71.822, 107.156 71.621, 108.160 70.203 C 108.942 69.099, 110.582 68.362, 112.098 68.432 C 114.122 68.526, 114.593 68.161, 114.231 66.776 C 113.922 65.592, 114.330 65, 115.456 65 C 116.925 65, 116.863 64.642, 114.977 62.250 C 113.122 59.897, 113.039 59.453, 114.405 59.177 C 115.282 58.999, 116 57.956, 116 56.859 C 116 55.319, 116.456 55.010, 118.005 55.502 C 120.766 56.378, 121.649 53.640, 119.610 50.527 C 117.356 47.088, 117.578 46.731, 120.903 48.450 C 123.502 49.794, 123.867 49.788, 124.403 48.393 C 124.731 47.537, 125 45.523, 125 43.918 C 125 41.250, 125.300 41, 128.500 41 C 132.546 41, 132.820 40.028, 129.889 36.064 C 128.728 34.493, 127.543 31.126, 127.256 28.581 C 126.969 26.036, 126.348 23.715, 125.876 23.423 C 125.403 23.131, 122.948 24.316, 120.419 26.056 L 115.821 29.219 112.661 26.228 C 110.922 24.583, 107.925 22.775, 106 22.209 C 101.045 20.753, 88.039 20.049, 84.619 21.052" stroke="none" fill="black" fill-rule="evenodd"/>
</svg>