<svg xmlns="http://www.w3.org/2000/svg" width="192" height="144" viewBox="0 0 192 144" version="1.1">
	<path d="M 0 72 L 0 144 86.622 144 C 168.061 144, 173.163 143.898, 171.872 142.298 C 169.025 138.767, 164.419 134.984, 162.250 134.395 C 161.012 134.058, 160 133.426, 160 132.989 C 160 132.553, 158.720 131.749, 157.156 131.204 C 154.448 130.260, 154.280 129.840, 153.656 122.455 C 153.295 118.189, 153 113.112, 153 111.174 C 153 109.140, 151.470 104.554, 149.384 100.331 C 144.664 90.779, 136.303 82.866, 124.634 76.905 C 119.890 74.482, 116.007 71.953, 116.005 71.284 C 116.002 70.615, 117.800 67.283, 120 63.879 C 122.200 60.475, 124 57.310, 124 56.845 C 124 56.380, 122.735 56, 121.190 56 C 118.628 56, 118.199 55.448, 116.330 49.750 C 114.536 44.281, 114.373 42.170, 115.025 32.853 C 115.764 22.304, 115.822 22.114, 121.385 12.289 C 124.473 6.835, 127 1.839, 127 1.186 C 127 0.284, 111.815 0, 63.500 0 L 0 0 0 72" stroke="none" fill="black" fill-rule="evenodd"/>
</svg>