<svg xmlns="http://www.w3.org/2000/svg" width="192" height="144" viewBox="0 0 192 144" version="1.1">
	<path d="M 89.250 11.491 C 87.463 12.268, 86 13.545, 86 14.329 C 86 15.113, 85.325 16.315, 84.500 17 C 82.140 18.959, 82.661 25.036, 85.554 29.294 C 86.958 31.361, 88.533 32.789, 89.054 32.467 C 90.173 31.775, 90.277 33.024, 89.235 34.639 C 88.142 36.332, 80.944 38.068, 79.158 37.069 C 76.445 35.550, 73.091 37.960, 72.430 41.903 C 71.354 48.319, 71.570 50, 73.470 50 C 74.966 50, 81.725 46.550, 83.450 44.906 C 85.098 43.335, 87 43.921, 87 46 C 87 47.100, 87.450 48, 88 48 C 88.550 48, 89 49.548, 89 51.441 C 89 53.334, 89.503 55.193, 90.118 55.573 C 91.679 56.538, 90.468 64.403, 87.960 69.582 C 86.848 71.880, 83.814 76.230, 81.219 79.249 C 73.114 88.676, 72.633 89.342, 69.219 95.859 C 66.127 101.762, 66.004 102.347, 67.504 104.005 C 68.851 105.492, 70.278 105.711, 76.060 105.318 L 83 104.846 82.985 110.173 C 82.967 116.490, 82.406 117.553, 77.912 119.797 C 73.166 122.166, 73.590 124.127, 79.245 125.961 C 81.855 126.807, 83.992 127.817, 83.995 128.205 C 83.998 128.592, 82.313 129.190, 80.250 129.533 C 78.188 129.875, 75.938 130.332, 75.250 130.547 C 73.013 131.246, 73.931 132.859, 76.750 133.184 C 78.489 133.384, 79.461 134.069, 79.395 135.047 C 79.318 136.184, 80.113 136.526, 82.395 136.337 C 84.103 136.195, 90.707 137.251, 97.071 138.684 C 110.084 141.614, 116 141.386, 116 137.955 C 116 136.624, 116.683 136, 118.140 136 C 119.317 136, 120.848 135.222, 121.544 134.271 C 122.239 133.320, 124.989 132.079, 127.654 131.514 C 131.442 130.710, 132.500 130.060, 132.500 128.534 C 132.500 126.601, 131.783 126.235, 121.929 123.126 C 117.634 121.772, 101.456 121.634, 97.399 122.917 C 95.805 123.422, 93.306 124.095, 91.846 124.412 C 88.816 125.072, 88.877 126.639, 91.162 106.666 C 92.552 94.527, 93.546 93, 100.062 93 C 103.442 93, 103.768 93.280, 105.018 97.250 C 105.753 99.588, 107.046 102.850, 107.890 104.500 C 108.735 106.150, 109.667 109.975, 109.963 113 C 110.454 118.027, 110.711 118.500, 112.955 118.500 C 115.797 118.500, 116.745 116.158, 116.900 108.750 C 116.967 105.568, 116.587 103.997, 115.750 103.990 C 115.063 103.985, 116.750 102.924, 119.500 101.632 C 125.082 99.010, 128.553 95.703, 127.504 94.006 C 127.123 93.390, 126.688 91.760, 126.537 90.384 C 126.211 87.417, 121.323 82, 118.972 82 C 118.022 82, 116.186 79.921, 114.659 77.115 C 111.493 71.298, 111.455 71, 113.878 71 C 114.910 71, 116.251 70.403, 116.856 69.673 C 117.972 68.329, 117.648 66.765, 114.433 58 C 113.215 54.679, 112.148 49.523, 111.535 44 C 111.383 42.625, 111.200 41.148, 111.129 40.717 C 111.058 40.286, 109.462 38.396, 107.583 36.516 L 104.165 33.099 106.083 29.338 C 107.137 27.269, 108 24.729, 108 23.693 C 108 21.163, 104.873 16, 103.341 16 C 102.666 16, 101.498 15.121, 100.745 14.047 C 99.532 12.315, 95.039 9.933, 93.185 10.039 C 92.808 10.061, 91.037 10.714, 89.250 11.491 M 105.710 58.623 C 105.367 58.966, 106.192 60.696, 107.543 62.468 C 108.894 64.239, 110 66.182, 110 66.785 C 110 67.388, 110.471 68.173, 111.046 68.528 C 112.293 69.299, 111.831 65.954, 110.041 61.250 C 108.886 58.215, 107.163 57.170, 105.710 58.623" stroke="none" fill="black" fill-rule="evenodd"/>
</svg>