<svg xmlns="http://www.w3.org/2000/svg" width="192" height="144" viewBox="0 0 192 144" version="1.1">
	<path d="M 102.655 9.961 C 99.357 13.610, 99.162 14.166, 100.166 17.047 C 101.169 19.923, 101.002 20.405, 98.084 23.071 C 89.078 31.296, 89.971 47.855, 99.590 51.030 C 102.283 51.918, 102.988 52.651, 102.774 54.336 C 102.582 55.850, 104.039 57.932, 107.627 61.272 C 112.255 65.579, 113.013 65.945, 115.413 65.033 C 122.388 62.381, 117.424 71.513, 110.250 74.531 C 108.371 75.321, 107 76.624, 107 77.620 C 107 78.567, 106.213 80.213, 105.250 81.276 C 104.287 82.339, 103.410 84.850, 103.299 86.855 C 103.090 90.642, 99.913 100.963, 98.949 100.987 C 97.836 101.014, 90 82.369, 90 79.692 C 90 79.487, 93.149 78.758, 96.997 78.070 C 105.449 76.559, 107.573 74.640, 99.837 75.504 C 96.902 75.831, 93.032 76.324, 91.237 76.597 C 89.194 76.909, 87.149 76.517, 85.765 75.548 C 82.768 73.449, 81.229 73.595, 77.594 76.321 C 75.892 77.597, 73.987 78.944, 73.359 79.313 C 72.659 79.724, 70.614 77.284, 68.064 72.992 C 64.498 66.989, 63.514 66, 61.110 66 C 59.570 66, 57.573 66.814, 56.673 67.809 C 55.142 69.501, 55.272 69.998, 58.675 75.439 C 62.028 80.799, 63.315 84.545, 64.534 92.500 C 65.544 99.091, 66.888 100.611, 75.690 105.118 C 81.757 108.225, 84.909 110.519, 86.522 113 C 87.773 114.925, 91.093 118.733, 93.898 121.462 C 99.476 126.888, 99.793 127.849, 97.366 131.958 C 96.143 134.027, 95.907 135.893, 96.427 139.362 L 97.123 144 122.561 144 C 140.335 144, 148 143.670, 148 142.904 C 148 140.951, 144.613 136.012, 142.901 135.468 C 140.948 134.849, 139 123.842, 139 113.428 C 139 108.581, 138.620 106.791, 137.500 106.362 C 134.321 105.142, 136.210 104.067, 140.500 104.655 C 143.554 105.074, 145 104.907, 145 104.136 C 145 103.511, 146.125 103, 147.500 103 C 148.875 103, 150 102.550, 150 102 C 150 101.450, 150.911 101, 152.025 101 C 153.292 101, 154.473 99.972, 155.182 98.250 C 156.077 96.078, 156.402 95.868, 156.731 97.250 C 156.959 98.213, 157.599 99, 158.153 99 C 159.089 99, 158.762 102.235, 157.292 107.500 L 156.734 109.500 158.988 107.500 L 161.242 105.500 160.527 110.750 C 160.041 114.319, 160.163 116, 160.906 116 C 161.524 116, 162 117.824, 162 120.191 C 162 124.127, 162.093 124.264, 163.523 122.441 C 164.941 120.632, 165.002 120.756, 164.411 124.250 C 163.807 127.824, 165.011 129.409, 166.500 127 C 167.475 125.423, 169.001 125.835, 168.361 127.502 C 168.044 128.328, 168.062 130.113, 168.402 131.467 C 169.122 134.333, 171.173 133.979, 172.894 130.692 C 173.933 128.707, 173.983 128.783, 173.419 131.500 C 173.077 133.150, 172.643 136.637, 172.455 139.250 L 172.113 144 182.056 144 L 192 144 192 110.632 L 192 77.264 185.327 73.382 C 177.349 68.741, 169.443 61.733, 164.336 54.777 C 161.952 51.529, 160.439 50.199, 160.149 51.096 C 159.412 53.377, 149.340 66.425, 144.849 70.916 C 142.566 73.198, 140.204 74.904, 139.599 74.706 C 138.369 74.303, 137.550 67.615, 138.445 65.282 C 138.909 64.073, 139.315 64.017, 140.500 65 C 142.230 66.436, 142.725 65.540, 143.263 60 C 143.598 56.545, 143.617 56.532, 144.701 59 C 146.006 61.969, 146.543 60.900, 147.418 53.592 C 147.897 49.584, 147.577 47.934, 145.669 44.592 C 144.384 42.341, 142.504 37.357, 141.492 33.515 C 139.928 27.581, 138.910 25.809, 134.729 21.736 C 129.776 16.912, 123.413 13, 120.518 13 C 119.660 13, 118.445 11.876, 117.819 10.503 C 116.744 8.142, 112.048 6.020, 107.866 6.006 C 106.968 6.003, 104.623 7.782, 102.655 9.961 M 134.015 67.691 C 134.007 68.896, 134.450 70.160, 135 70.500 C 136.273 71.287, 136.273 68.970, 135 67 C 134.212 65.781, 134.028 65.910, 134.015 67.691 M 80 90.500 C 81.866 92.425, 83.552 94, 83.747 94 C 83.942 94, 82.900 92.425, 81.432 90.500 C 79.964 88.575, 78.278 87, 77.685 87 C 77.093 87, 78.134 88.575, 80 90.500 M 134.750 112.577 C 133.478 113.860, 133.991 122.360, 135.500 125 L 136.929 127.500 136.890 124 C 136.829 118.458, 135.572 111.748, 134.750 112.577" stroke="none" fill="black" fill-rule="evenodd"/>
</svg>