<svg xmlns="http://www.w3.org/2000/svg" width="192" height="144" viewBox="0 0 192 144" version="1.1">
	<path d="M 134.557 4.642 C 132.389 7.144, 130.533 9.936, 130.432 10.846 C 130.021 14.571, 128.090 21.331, 127.275 21.895 C 126.796 22.228, 125.424 23.903, 124.228 25.618 C 123.031 27.333, 120.578 29.324, 118.776 30.043 C 116.974 30.761, 114.375 32.106, 113 33.032 C 111.625 33.958, 109.864 34.492, 109.087 34.220 C 106.768 33.407, 105 37.040, 105 42.620 C 105 48.860, 106.678 51, 111.571 51 C 114.562 51, 115 51.319, 115 53.500 C 115 55.555, 115.489 56.004, 117.750 56.021 C 119.815 56.037, 121.217 57.055, 123.375 60.105 C 125.452 63.039, 126.775 64.031, 128.138 63.674 C 131.643 62.758, 132.383 66.477, 132.818 87.210 L 133.232 106.919 130.220 110.710 C 125.962 116.067, 117.241 120.455, 112.588 119.583 C 110.585 119.207, 107.237 119.448, 104.953 120.132 L 100.885 121.351 89.942 110.443 C 79.854 100.386, 79 99.238, 79 95.736 C 79 90.549, 75.354 80.047, 72.496 77 C 71.207 75.625, 67.922 70.225, 65.197 65 C 60.421 55.841, 58.061 53.539, 55.781 55.819 C 55.105 56.495, 56.127 59.762, 58.887 65.755 C 61.149 70.666, 63 75.144, 63 75.706 C 63 76.268, 61.336 76.677, 59.303 76.614 C 56.392 76.524, 55.359 76.986, 54.442 78.788 C 53.801 80.047, 52.597 81.622, 51.767 82.288 C 48.640 84.796, 46.636 95.834, 49.250 96.152 C 49.938 96.236, 51.053 96.354, 51.728 96.413 C 52.404 96.473, 54.981 99.804, 57.454 103.816 C 59.927 107.828, 67.336 116.823, 73.917 123.805 C 80.499 130.787, 87.147 138.171, 88.692 140.214 L 91.500 143.927 141.750 143.964 L 192 144 192 72 L 192 0 165.250 0.047 L 138.500 0.093 134.557 4.642 M 149.677 92.250 C 150.984 107.303, 152.973 111.014, 154.906 102.003 C 156.632 93.957, 156.316 91.374, 153.260 88.540 C 151.753 87.143, 150.209 86, 149.827 86 C 149.446 86, 149.379 88.813, 149.677 92.250" stroke="none" fill="black" fill-rule="evenodd"/>
</svg>