<svg xmlns="http://www.w3.org/2000/svg" width="192" height="144" viewBox="0 0 192 144" version="1.1">
	<path d="M 116.558 24.083 L 112.922 27.276 110.447 24.951 C 107.360 22.050, 99.517 21.300, 89.126 22.913 C 76.827 24.821, 73.563 28.606, 73.701 40.800 C 73.780 47.733, 73.639 48.207, 70.892 50.238 C 66.894 53.194, 67.115 56.207, 71.482 58.290 C 73.398 59.204, 75.648 59.689, 76.482 59.368 C 78.289 58.675, 78.575 62.056, 76.965 65.066 C 76.222 66.453, 76.252 67, 77.072 67 C 77.700 67, 77.944 67.704, 77.613 68.565 C 77.152 69.767, 77.476 69.984, 79.006 69.498 C 80.103 69.150, 81 69.291, 81 69.811 C 81 71.287, 86.628 73.253, 88.842 72.550 C 91.218 71.796, 92.845 73.844, 90.878 75.112 C 90.120 75.601, 87.700 76.462, 85.500 77.026 C 77.429 79.095, 75.340 80.605, 72.489 86.433 C 69.971 91.579, 69.506 92, 66.333 92 C 61.803 92, 57.662 89.770, 51.118 83.809 C 48.158 81.112, 43.995 78.018, 41.868 76.933 C 39.344 75.645, 38 74.271, 38 72.980 C 38 71.891, 37.878 71, 37.728 71 C 37.578 71, 33.416 74.971, 28.478 79.824 C 23.533 84.684, 15.120 91.506, 9.750 95.011 C -1.827 102.568, -2.713 104.511, 5.876 103.514 C 10.822 102.940, 12.434 103.181, 16.070 105.036 L 20.388 107.239 22.251 104.869 C 28.926 96.377, 30.159 95.807, 32.019 100.352 L 32.898 102.500 33.566 100.250 C 33.933 99.013, 35.015 98, 35.971 98 C 38.186 98, 43 102.419, 43 104.452 C 43 106.342, 43.762 106.351, 47 104.500 C 50.982 102.224, 54.589 102.700, 58.347 106 C 60.226 107.650, 62.074 109, 62.452 109 C 62.830 109, 65.174 107.601, 67.660 105.890 C 73.496 101.875, 74.527 102.820, 74.159 111.846 C 73.840 119.642, 75.060 121.512, 79.991 120.788 C 82.919 120.358, 83 120.456, 83 124.451 C 83 126.708, 82.393 129.443, 81.652 130.527 C 79.580 133.559, 78.961 138.514, 80.296 141.389 L 81.500 143.984 102.250 143.992 C 113.662 143.996, 123 143.759, 123 143.465 C 123 143.170, 122.285 141.839, 121.412 140.505 C 120.394 138.953, 120.046 137.068, 120.442 135.262 C 120.898 133.188, 120.508 131.849, 118.965 130.193 C 116.111 127.129, 115.854 122.707, 118.500 122.182 C 122.721 121.344, 123.284 119.973, 122.730 111.884 C 122.310 105.769, 122.519 103.909, 123.766 102.662 C 125.008 101.421, 125.080 100.801, 124.116 99.639 C 120.564 95.360, 129.568 97.743, 138.472 103.439 C 141.534 105.397, 144.285 107, 144.586 107 C 144.887 107, 146.608 105.875, 148.411 104.500 C 152.423 101.440, 154.259 101.379, 158.754 104.157 C 161.948 106.131, 162.324 106.173, 163.177 104.648 C 163.922 103.317, 169.949 100, 171.622 100 C 171.830 100, 172 100.900, 172 102 C 172 104.614, 173.682 104.576, 174.518 101.943 C 175.545 98.709, 178.296 100.057, 180.469 104.860 L 182.437 109.212 186.889 108.602 C 189.338 108.266, 191.554 107.779, 191.814 107.520 C 192.073 107.260, 192.286 104.634, 192.286 101.685 C 192.286 96.817, 191.872 95.815, 187.797 90.811 C 185.328 87.780, 181.599 82.532, 179.512 79.150 C 177.424 75.767, 175.346 73, 174.893 73 C 174.441 73, 173.645 73.795, 173.125 74.767 C 172.605 75.738, 170.452 77.154, 168.340 77.912 C 166.228 78.670, 161.840 81.091, 158.590 83.291 C 150.759 88.592, 145.574 90.072, 137.474 89.315 C 132.927 88.891, 131 89.052, 131 89.855 C 131 90.485, 130.106 91, 129.014 91 C 127.598 91, 126.188 89.335, 124.096 85.190 C 120.352 77.773, 119.401 77.046, 112.103 76.015 C 108.785 75.546, 105.583 74.860, 104.987 74.492 C 103.482 73.562, 105.896 70.746, 107.628 71.411 C 108.347 71.687, 109.232 71.434, 109.593 70.850 C 110.033 70.137, 110.516 70.217, 111.056 71.091 C 111.627 72.014, 112.058 71.616, 112.532 69.729 C 113.099 67.470, 113.657 67.116, 116.185 67.410 C 118.666 67.699, 119.089 67.449, 118.691 65.927 C 118.428 64.920, 118.704 63.932, 119.305 63.732 C 119.983 63.506, 119.639 62.255, 118.397 60.434 C 116.144 57.129, 116.990 53.497, 120.211 52.655 C 122.623 52.024, 122.465 50.852, 119.503 47.406 C 116.588 44.014, 117.586 43.217, 121.932 45.465 C 125.333 47.223, 125.114 47.538, 125.385 40.500 C 125.486 37.875, 125.906 37.461, 128.750 37.187 C 130.537 37.014, 132 36.525, 132 36.099 C 132 35.674, 130.231 33.466, 128.069 31.194 C 125.881 28.893, 123.997 25.833, 123.819 24.289 C 123.371 20.394, 120.842 20.322, 116.558 24.083 M 0.079 102.583 C 0.127 103.748, 0.364 103.985, 0.683 103.188 C 0.972 102.466, 0.936 101.603, 0.604 101.271 C 0.272 100.939, 0.036 101.529, 0.079 102.583" stroke="none" fill="black" fill-rule="evenodd"/>
</svg>