<svg xmlns="http://www.w3.org/2000/svg" width="192" height="144" viewBox="0 0 192 144" version="1.1">
	<path d="M 0 72 L 0 144 36.750 143.973 C 71.395 143.948, 73.347 143.852, 70.826 142.288 C 67.339 140.124, 65.970 136.960, 66.666 132.671 C 67.132 129.798, 66.883 129.098, 65.206 128.566 C 62.649 127.754, 61.717 125.397, 63.004 122.993 C 64.830 119.580, 64.041 118.170, 58.541 115.023 C 48.339 109.187, 40.850 97.613, 41.469 88.641 C 41.702 85.266, 43.128 83.065, 45.114 83.015 C 45.452 83.007, 46.016 85.101, 46.368 87.669 C 47.119 93.150, 51.127 100.472, 54.281 102.127 C 56.428 103.253, 56.443 103.227, 54.762 101.330 C 53.806 100.251, 52.735 97.823, 52.382 95.934 L 51.739 92.500 56.395 96.983 C 61.223 101.632, 70.691 108.005, 79.720 112.683 C 85.170 115.506, 87 118.383, 87 124.124 C 87 126.506, 87.712 127.274, 91.532 129.014 C 96.698 131.368, 98.352 130.976, 97.020 127.714 C 95.355 123.638, 92.853 102.580, 93.192 95.500 L 93.528 88.500 95.334 92.385 C 96.327 94.522, 98.912 99.076, 101.078 102.506 C 105.331 109.240, 106.846 109.963, 116.750 109.989 C 119.088 109.995, 120.990 110.338, 120.979 110.750 C 120.967 111.162, 119.123 112.798, 116.881 114.385 L 112.804 117.271 116.363 120.830 L 119.922 124.389 124.192 120.161 C 128.250 116.144, 128.351 115.905, 126.231 115.350 C 122.577 114.394, 123.543 112.348, 127.434 112.803 C 130.397 113.148, 131.545 112.570, 135.799 108.591 C 140.641 104.062, 140.782 104.006, 143.615 105.483 C 147.355 107.434, 150.465 107.397, 153.566 105.365 C 158.022 102.445, 157.624 105.094, 153 109.138 L 148.500 113.073 152 116.164 C 153.925 117.864, 157.412 120.936, 159.750 122.991 C 163.243 126.062, 164 127.357, 164 130.260 C 164 133.075, 163.256 134.446, 160.339 137.007 C 157.011 139.929, 156.206 140.182, 151.473 139.789 C 147.484 139.459, 144.891 138.425, 140.383 135.368 C 131.782 129.535, 131.565 129.424, 132.255 131.221 C 133.151 133.557, 128.179 137.693, 122.883 139.017 C 118.794 140.039, 117.683 139.919, 113.153 137.971 C 110.341 136.761, 107.372 136.027, 106.557 136.340 C 105.685 136.674, 104.278 135.897, 103.143 134.454 C 100.357 130.913, 99.673 131.404, 100.250 136.527 C 100.680 140.340, 100.427 141.288, 98.644 142.537 C 96.763 143.855, 101.871 143.991, 144.513 143.760 L 192.500 143.500 192.757 71.750 L 193.013 0 96.507 0 L 0 0 0 72 M 0.474 72.500 C 0.474 112.100, 0.598 128.154, 0.750 108.176 C 0.901 88.198, 0.901 55.798, 0.750 36.176 C 0.598 16.554, 0.474 32.900, 0.474 72.500 M 45.554 53.279 C 45.824 53.983, 47.313 55.607, 48.863 56.887 C 50.917 58.583, 51.557 59.864, 51.224 61.608 C 50.973 62.923, 50.144 64, 49.383 64 C 47.633 64, 47.665 64.260, 50.312 71.495 L 52.505 77.490 57.889 77.833 C 64.254 78.239, 65.013 77.452, 63.916 71.582 C 63.117 67.303, 59.435 60, 58.077 60 C 57.678 60, 55.585 58.208, 53.426 56.017 C 49.692 52.229, 44.451 50.406, 45.554 53.279 M 104.981 83.069 C 104.036 86.581, 104.178 87.736, 106.026 91.553 C 107.904 95.433, 108.786 96.156, 113.264 97.486 C 116.068 98.319, 120.554 99, 123.233 99 C 127.864 99, 128.174 98.827, 129.583 95.456 C 131.165 91.670, 130.798 90, 128.386 90 C 126.627 90, 112.799 84.232, 112.028 83.177 C 111.738 82.779, 110.280 81.678, 108.788 80.729 L 106.076 79.004 104.981 83.069 M 155 131.285 C 152.477 132.579, 150.314 132.912, 147.250 132.479 C 142.051 131.743, 141.792 132.597, 146.604 134.608 C 150.786 136.355, 155.030 135.730, 157.499 133.001 C 160.109 130.117, 158.897 129.285, 155 131.285" stroke="none" fill="black" fill-rule="evenodd"/>
</svg>