<svg xmlns="http://www.w3.org/2000/svg" width="192" height="144" viewBox="0 0 192 144" version="1.1">
	<path d="M 65.496 8.750 C 65.505 29.167, 55.537 45.066, 36.732 54.627 C 27.323 59.412, 14.671 60.852, 3.250 58.437 L 0 57.750 0 100.875 L 0 144 64.059 144 C 106.412 144, 127.909 143.662, 127.501 143.002 C 127.162 142.454, 129.342 137.616, 132.345 132.252 C 137.757 122.586, 143 110.837, 143 108.378 C 143 107.675, 141.560 104.966, 139.799 102.358 C 136.824 97.950, 136.550 96.817, 135.906 86.301 C 135.318 76.689, 135.498 74.072, 137.107 68.904 C 138.148 65.559, 139 61.607, 139 60.122 C 139 58.638, 139.829 55.865, 140.841 53.961 C 141.854 52.058, 143.965 48.095, 145.532 45.155 C 150.264 36.282, 156.379 33, 168.181 33 C 176.301 33, 177.757 34.522, 173.737 38.810 C 171.880 40.791, 171.326 42.291, 171.636 44.500 C 172.152 48.171, 171.923 48.495, 164.711 54.323 C 161.527 56.895, 159.608 59, 160.445 59 C 163.403 59, 167.725 64.566, 170.538 72 C 172.100 76.125, 173.755 80.012, 174.218 80.638 C 175.475 82.339, 172.977 87, 170.808 87 C 169.779 87, 168.669 87.699, 168.341 88.553 C 167.485 90.784, 177.777 111.151, 185.411 122.333 C 191.268 130.911, 191.930 132.394, 192.258 137.665 C 192.945 148.694, 192.997 85.460, 192.336 42.750 L 191.674 0 128.584 0 L 65.493 0 65.496 8.750 M 0.459 101 C 0.459 124.925, 0.589 134.713, 0.749 122.750 C 0.908 110.788, 0.908 91.213, 0.749 79.250 C 0.589 67.288, 0.459 77.075, 0.459 101 M 146.200 91 C 146.543 96.712, 147.243 97.242, 148.962 93.091 C 149.862 90.920, 149.883 89.651, 149.049 88.091 C 147.113 84.474, 145.883 85.730, 146.200 91 M 143 103 C 143 103.550, 143.477 104, 144.059 104 C 144.641 104, 144.840 103.550, 144.500 103 C 144.160 102.450, 143.684 102, 143.441 102 C 143.198 102, 143 102.450, 143 103" stroke="none" fill="black" fill-rule="evenodd"/>
</svg>