<svg xmlns="http://www.w3.org/2000/svg" width="192" height="144" viewBox="0 0 192 144" version="1.1">
	<path d="M 0 72 L 0 144 81.433 144 C 161.987 144, 162.872 143.978, 163.500 142 C 164.217 139.741, 165.583 139.380, 166.338 141.250 C 166.741 142.250, 166.858 142.250, 166.921 141.250 C 167.061 139.039, 168.996 139.920, 169.116 142.250 C 169.221 144.291, 169.278 144.314, 169.727 142.500 C 170 141.400, 170.848 140.140, 171.611 139.700 C 173.263 138.749, 173.418 132.959, 172.005 125.060 C 171.458 122.002, 170.763 117.813, 170.460 115.750 C 169.930 112.142, 169.760 112, 165.955 112 C 162.741 112, 162 112.355, 162 113.893 C 162 114.934, 161.325 116.045, 160.500 116.362 C 158.782 117.021, 158.477 119.659, 160.057 120.186 C 161.242 120.581, 160.253 124, 158.953 124 C 158.495 124, 157.981 122.312, 157.810 120.250 C 157.616 117.905, 157.032 116.594, 156.250 116.750 C 155.563 116.888, 155 116.325, 155 115.500 C 155 114.675, 154.659 114, 154.243 114 C 153.826 114, 153.648 110.287, 153.848 105.750 C 154.219 97.319, 155.769 94, 159.336 94 C 160.116 94, 161.315 93.325, 162 92.500 C 162.685 91.675, 163.660 91, 164.168 91 C 164.676 91, 166.126 89.987, 167.392 88.750 C 168.657 87.513, 171.383 85.150, 173.448 83.500 C 175.513 81.850, 177.800 79.938, 178.530 79.250 C 179.260 78.563, 180.339 78, 180.929 78 C 181.588 78, 182 75.311, 182 71 C 182 65.444, 181.690 64, 180.500 64 C 179.675 64, 178.998 63.438, 178.995 62.750 C 178.989 61.138, 172.990 54.600, 170.095 53.051 L 167.863 51.856 170.310 49.589 C 172.365 47.684, 172.821 46.177, 173.160 40.171 C 173.542 33.406, 173.784 32.790, 177.627 28.760 C 179.861 26.417, 182.690 23.038, 183.912 21.251 C 185.681 18.666, 186.494 18.194, 187.891 18.942 C 191.645 20.951, 191.934 25.661, 191.940 84.896 C 191.944 116.457, 192.183 142.517, 192.473 142.807 C 192.763 143.096, 193 111.083, 193 71.667 L 193 0 96.500 0 L 0 0 0 72 M 0.474 72.500 C 0.474 112.100, 0.598 128.154, 0.750 108.176 C 0.901 88.198, 0.901 55.798, 0.750 36.176 C 0.598 16.554, 0.474 32.900, 0.474 72.500" stroke="none" fill="black" fill-rule="evenodd"/>
</svg>