<svg xmlns="http://www.w3.org/2000/svg" width="192" height="144" viewBox="0 0 192 144" version="1.1">
	<path d="M 115.027 13.691 C 115.012 14.346, 115.450 15.160, 116 15.500 C 117.924 16.689, 117.063 18.104, 115.066 17.035 C 114.002 16.466, 110.714 16, 107.760 16 C 103.642 16, 101.620 16.567, 99.094 18.430 C 97.283 19.767, 95.283 20.672, 94.650 20.441 C 94.018 20.210, 92.927 20.387, 92.227 20.834 C 91.212 21.482, 91.272 22.408, 92.527 25.411 C 93.740 28.313, 93.832 29.497, 92.932 30.582 C 92.027 31.673, 92.128 32.547, 93.382 34.460 C 95.545 37.762, 95.573 55.313, 93.430 65.685 C 92.566 69.866, 91.716 77.385, 91.540 82.393 C 91.363 87.402, 90.507 101.400, 89.637 113.500 C 88.767 125.600, 88.043 137.412, 88.027 139.750 L 88 144 110.111 144 L 132.223 144 131.553 140.250 C 131.184 138.188, 128.861 129.075, 126.389 120 C 119.596 95.056, 117.433 82, 120.094 82 C 120.695 82, 121.423 82.900, 121.710 84 C 121.998 85.100, 122.679 86, 123.224 86 C 123.772 86, 123.896 85.218, 123.501 84.250 C 121.196 78.591, 119.860 73.807, 120.426 73.241 C 120.784 72.883, 122.522 73.178, 124.288 73.896 C 130.363 76.367, 132 76.431, 132 74.198 C 132 70.862, 133.099 69, 135.068 69 C 137.819 69, 141.137 64.952, 140.794 62.015 C 140.520 59.667, 140.116 59.493, 134.726 59.393 C 131.551 59.334, 128.699 59.032, 128.388 58.722 C 128.078 58.411, 128.876 56.735, 130.161 54.996 L 132.498 51.835 127.999 47.942 C 125.525 45.801, 122.686 43.774, 121.692 43.439 C 119.323 42.639, 119.801 38.104, 122.412 36.601 C 126.445 34.279, 127.701 32.424, 126.831 30.072 C 126.371 28.829, 125.096 27.576, 123.997 27.289 C 122.495 26.896, 122 25.924, 122 23.369 C 122 20.874, 121.077 18.978, 118.527 16.235 C 116.617 14.181, 115.042 13.036, 115.027 13.691" stroke="none" fill="black" fill-rule="evenodd"/>
</svg>