<svg xmlns="http://www.w3.org/2000/svg" width="192" height="144" viewBox="0 0 192 144" version="1.1">
	<path d="M 0 72 L 0 144 16.862 144 L 33.725 144 37.862 133.612 C 41.826 123.661, 43.170 117.159, 40.984 118.510 C 40.425 118.856, 40.207 119.526, 40.500 120 C 40.793 120.474, 40.619 121.117, 40.114 121.429 C 38.275 122.566, 37.859 110.631, 39.426 101.705 C 40.275 96.868, 40.882 92.593, 40.774 92.205 C 40.666 91.817, 41.548 88.350, 42.735 84.500 C 45.263 76.301, 46.578 68.139, 47.487 55 C 48.448 41.115, 49.564 37.529, 54.147 33.606 C 58.494 29.886, 58.462 28.352, 53.984 25.797 C 48.590 22.718, 50.623 19.920, 59.278 18.513 C 63.210 17.874, 63.513 16.017, 59.691 15.978 C 57.007 15.951, 52.487 12.639, 53.312 11.304 C 53.642 10.770, 55.282 10.535, 56.956 10.780 C 60.550 11.308, 60.616 11.058, 58.004 6.774 C 56.906 4.973, 56.006 2.712, 56.004 1.750 C 56 0.125, 53.999 0, 28 0 L 0 0 0 72 M 61.199 2.750 C 62.614 4.263, 64.585 7.075, 65.578 9 L 67.384 12.500 68.132 8.297 C 68.543 5.985, 69.373 3.172, 69.975 2.047 C 71.024 0.086, 70.808 0, 64.848 0 L 58.626 0 61.199 2.750 M 73.571 5.404 C 72.707 8.376, 72 11.080, 72 11.412 C 72 11.745, 74.495 10.609, 77.546 8.887 C 82.883 5.875, 85.001 5.572, 83.477 8.036 C 83.080 8.680, 80.016 10.938, 76.668 13.054 C 70.484 16.964, 70.478 17.177, 76.500 18.484 C 80.492 19.351, 84 21.701, 84 23.510 C 84 24.315, 82.425 25.631, 80.500 26.436 C 78.575 27.240, 77 28.411, 77 29.039 C 77 29.666, 79.246 32.699, 81.990 35.778 C 88.115 42.651, 89.019 46.264, 86.112 52.269 C 84.107 56.410, 84.062 57.230, 85.105 70.552 C 85.705 78.224, 86.339 84.649, 86.512 84.831 C 86.686 85.013, 87.767 84.660, 88.914 84.046 C 90.528 83.182, 91 81.965, 91 78.665 C 91 73.760, 92.320 72, 96 72 C 99.664 72, 101 73.757, 101 78.578 C 101 82.869, 103.249 86.165, 104.978 84.408 C 105.469 83.908, 106.414 76.918, 107.078 68.873 C 108.166 55.690, 108.123 54.014, 106.643 51.900 C 104.126 48.307, 104.543 42.288, 107.585 38.299 C 109.384 35.941, 109.869 34.544, 109.180 33.705 C 106.855 30.877, 104.767 20.641, 105.406 15.204 C 106.324 7.395, 107.931 5.098, 107.970 11.540 C 108.001 16.671, 110.184 26.607, 112.045 30.084 C 113.055 31.972, 113.137 31.971, 116.996 30.002 C 122.275 27.309, 129.258 27.378, 133.772 30.168 C 137.172 32.269, 137.323 32.279, 138.640 30.477 C 140.324 28.174, 140.372 27, 138.782 27 C 138.112 27, 136.538 25.807, 135.285 24.348 C 132.563 21.180, 133.676 19, 138.015 19 C 141.121 19, 141.949 17.616, 142.105 12.168 L 142.210 8.500 143.466 12.500 C 144.529 15.885, 145.102 16.460, 147.195 16.238 C 148.669 16.082, 150.408 16.794, 151.499 17.999 C 153.280 19.967, 153.265 20.089, 150.940 22.564 C 148.844 24.795, 148.412 24.916, 147.415 23.553 C 145.676 21.175, 145.284 21.611, 144.536 26.750 C 144.155 29.363, 143.189 32.520, 142.388 33.767 C 141.113 35.752, 141.114 36.568, 142.393 40.337 C 143.197 42.704, 144.331 50.589, 144.914 57.859 C 145.932 70.547, 147.657 80.346, 149.921 86.295 C 151.995 91.745, 155 108.407, 155 114.458 L 155 120.598 158.708 121.939 C 164.329 123.972, 172.502 132.261, 175.126 138.590 L 177.368 144 184.684 144 L 192 144 192 72 L 192 0 133.571 0 L 75.142 0 73.571 5.404 M 110.962 65.250 C 110.942 65.938, 110.353 71.139, 109.654 76.809 C 108.512 86.078, 108.797 89.756, 110.451 87.080 C 111.301 85.705, 112.431 64, 111.653 64 C 111.294 64, 110.983 64.563, 110.962 65.250 M 80.434 74.766 C 80.700 80.412, 81.401 85.812, 81.992 86.766 C 82.776 88.032, 82.887 85.800, 82.401 78.500 C 81.487 64.741, 79.812 61.561, 80.434 74.766 M 87.609 93.576 C 87.248 94.517, 87.196 95.529, 87.493 95.826 C 87.790 96.124, 88.566 95.834, 89.217 95.183 C 90.055 94.345, 90.089 93.689, 89.333 92.933 C 88.576 92.176, 88.074 92.364, 87.609 93.576 M 102.531 93.293 C 102.103 94.279, 102.034 95.367, 102.376 95.710 C 103.392 96.725, 104.211 95.299, 103.743 93.328 C 103.329 91.581, 103.275 91.580, 102.531 93.293 M 94.182 99.788 C 93.516 102.011, 91.881 104.503, 90.493 105.413 C 88.973 106.408, 88 107.990, 88 109.464 C 88 112.356, 86.454 113.625, 85.610 111.426 C 85.105 110.110, 84.378 110.309, 81.019 112.681 C 78.824 114.232, 76.771 116.275, 76.456 117.222 C 76.137 118.181, 77.091 121.060, 78.610 123.722 L 81.336 128.500 77.683 125.068 C 75.674 123.181, 73.754 121.912, 73.417 122.249 C 72.746 122.920, 74.209 130.470, 76.609 138.728 L 78.142 144 97.921 144 L 117.699 144 118.371 132.939 C 118.741 126.856, 118.756 121.414, 118.405 120.846 C 118.037 120.251, 115.813 121.655, 113.162 124.156 C 110.629 126.545, 109.283 127.600, 110.169 126.500 C 111.056 125.400, 112.710 122.746, 113.844 120.602 L 115.907 116.704 111.703 113.361 C 106.735 109.411, 105.666 109.252, 104.220 112.250 C 103.234 114.296, 103.129 114.150, 103.068 110.644 C 103.017 107.771, 102.362 106.286, 100.500 104.821 C 99.125 103.740, 98 102.074, 98 101.119 C 98 100.164, 97.410 98.575, 96.689 97.589 C 95.498 95.961, 95.268 96.163, 94.182 99.788 M 151 117 C 151 118.826, 151.519 120, 152.327 120 C 153.232 120, 153.514 119.047, 153.213 117 C 152.971 115.350, 152.374 114, 151.887 114 C 151.399 114, 151 115.350, 151 117" stroke="none" fill="black" fill-rule="evenodd"/>
</svg>