<svg xmlns="http://www.w3.org/2000/svg" width="192" height="144" viewBox="0 0 192 144" version="1.1">
	<path d="M 0 34.094 L 0 68.188 5.250 67.521 C 14.726 66.318, 29.344 62.021, 38.181 57.841 L 46.861 53.734 54.278 60.399 C 58.357 64.064, 65.409 71.113, 69.948 76.062 C 79.192 86.143, 83.796 89, 91.928 89.704 L 97.500 90.186 100.468 84.411 C 104.573 76.424, 107.009 73.806, 112.909 71.042 C 119.154 68.118, 120.038 65.004, 114.500 65.444 C 111.964 65.645, 111 65.317, 111 64.254 C 111 63.383, 110.411 63.012, 109.551 63.342 C 108.582 63.714, 108.286 63.418, 108.658 62.449 C 109.341 60.670, 107.869 60.556, 106.078 62.250 C 104.984 63.284, 104.967 63.089, 105.981 61.123 C 106.971 59.202, 106.947 58.584, 105.853 57.905 C 105.109 57.442, 104.500 55.812, 104.500 54.282 C 104.500 51.998, 104.047 51.482, 101.968 51.402 C 98.169 51.255, 95 49.189, 95 46.858 C 95 45.373, 94.548 44.959, 93.407 45.397 C 89.026 47.078, 87.255 47.027, 84.938 45.151 L 82.503 43.179 85.501 40.863 C 87.151 39.590, 89.713 37.358, 91.196 35.904 C 93.691 33.459, 93.808 32.986, 92.767 29.591 C 91.712 26.156, 91.828 25.740, 94.570 23.085 C 96.182 21.524, 98.323 19.048, 99.328 17.582 C 102.159 13.455, 110.922 8.153, 116.735 7.050 C 120.250 6.384, 123.796 6.400, 127.583 7.100 C 130.678 7.672, 134.115 8.208, 135.221 8.292 C 138.216 8.517, 147.838 19.621, 148.612 23.743 C 148.967 25.635, 148.986 29.470, 148.655 32.266 C 147.979 37.976, 149.979 42.446, 154.549 45.440 C 157.850 47.603, 156.728 49.227, 152.482 48.431 C 149.208 47.816, 149.130 47.880, 149.506 50.848 C 149.802 53.190, 149.557 53.767, 148.446 53.341 C 147.461 52.963, 147 53.472, 147 54.937 C 147 56.431, 146.465 56.998, 145.250 56.794 C 143.946 56.575, 143.580 57.074, 143.813 58.750 C 144.131 61.038, 142.633 61.833, 141.490 59.984 C 140.287 58.038, 139 60.144, 139 64.059 C 139 66.227, 138.550 68, 138 68 C 135.867 68, 137.161 69.706, 140.502 71.299 C 143.193 72.583, 144.755 74.501, 147.252 79.587 L 150.500 86.204 156 85.504 C 159.025 85.118, 166 84.459, 171.500 84.040 C 182.557 83.196, 184.029 82.792, 188.750 79.301 L 192 76.898 192 95.616 C 192 105.910, 191.773 114.107, 191.497 113.830 C 191.220 113.553, 189.614 108.716, 187.928 103.080 C 185.372 94.538, 185.041 92.322, 185.936 89.755 C 186.526 88.061, 186.812 86.479, 186.572 86.239 C 185.944 85.611, 178.726 86.933, 177.019 87.988 C 175.773 88.758, 175.784 89.122, 177.096 90.689 C 180.884 95.211, 181.059 97.413, 178.598 109.529 C 177.307 115.883, 175.999 121.334, 175.692 121.642 C 175.106 122.227, 169.468 105.011, 168.426 99.458 C 168.042 97.411, 168.400 95.127, 169.411 93.171 C 170.285 91.482, 171 89.904, 171 89.665 C 171 89.156, 157.702 90.086, 157.076 90.639 C 156.843 90.845, 157.656 93.024, 158.883 95.480 L 161.113 99.946 158.915 111.223 C 157.705 117.425, 156.365 122.892, 155.936 123.371 C 155.508 123.851, 154.203 120.926, 153.037 116.871 C 149.526 104.664, 148.898 104.422, 149.472 115.500 C 149.757 121, 149.992 129.671, 149.995 134.770 L 150 144.040 171.250 143.770 L 192.500 143.500 192.734 71.750 L 192.968 0 96.484 0 L 0 0 0 34.094 M 0.449 34.500 C 0.449 53.200, 0.584 60.709, 0.749 51.186 C 0.913 41.663, 0.913 26.363, 0.748 17.186 C 0.583 8.009, 0.449 15.800, 0.449 34.500 M 41.250 62.674 C 38.913 64.305, 38.253 67.420, 40.014 68.509 C 40.572 68.854, 41.885 70.814, 42.931 72.866 C 44.735 76.402, 44.759 77.140, 43.381 87.048 C 41.558 100.153, 41.159 102, 40.149 102 C 39.701 102, 38.860 100.537, 38.278 98.750 C 37.697 96.963, 35.813 91.675, 34.091 87 C 31.746 80.628, 31.114 77.563, 31.568 74.755 C 31.901 72.696, 32.585 70.757, 33.087 70.446 C 33.589 70.136, 34 69.318, 34 68.628 C 34 67.747, 31.547 68.204, 25.750 70.166 C 21.212 71.701, 17.381 72.967, 17.236 72.979 C 17.091 72.990, 18.159 74.795, 19.611 76.988 C 22.651 81.582, 22.677 81.954, 20.976 96.313 C 20.187 102.964, 19.296 106.932, 18.639 106.713 C 18.054 106.518, 15.956 102.237, 13.975 97.200 C 11.995 92.163, 10.066 87.732, 9.688 87.354 C 8.468 86.135, 8.968 79.584, 10.506 76.636 C 11.328 75.060, 12 73.598, 12 73.386 C 12 73.174, 9.525 73, 6.500 73 L 1 73 1 108.500 L 1 144 46.872 144 L 92.744 144 93.422 139.750 C 93.794 137.412, 94.940 132.575, 95.967 129 C 96.995 125.425, 98.394 117.621, 99.077 111.657 C 100.108 102.653, 100.090 100.674, 98.973 99.984 C 97.864 99.298, 97.857 98.877, 98.937 97.576 C 100.070 96.210, 99.900 96, 97.663 96 L 95.082 96 96.848 100.159 C 98.565 104.201, 98.550 104.654, 96.288 116.409 C 93.459 131.115, 93.164 132.066, 92.073 130 C 91.638 129.175, 89.817 123.056, 88.027 116.401 L 84.773 104.302 86.878 99.543 C 88.036 96.925, 88.746 94.398, 88.456 93.928 C 87.913 93.051, 81.494 91.016, 79.237 91.006 C 78.248 91.001, 78.280 91.735, 79.384 94.378 C 80.648 97.402, 80.546 99.100, 78.408 110.628 C 77.095 117.707, 76.016 123.612, 76.010 123.750 C 76.005 123.888, 75.624 124, 75.164 124 C 74.704 124, 72.617 117.940, 70.528 110.533 L 66.728 97.066 69.497 91.594 L 72.265 86.122 69.243 82.311 C 67.580 80.215, 65.269 77.642, 64.107 76.592 L 61.994 74.685 63.110 77.885 C 64.578 82.095, 61.176 107, 59.133 107 C 58.731 107, 56.692 101.511, 54.602 94.801 C 50.733 82.377, 50.398 77.635, 53.158 74.310 C 55.467 71.527, 54.935 69.529, 50.745 65.250 C 46.253 60.663, 44.727 60.249, 41.250 62.674 M 149.131 91.342 C 148.519 92.080, 148.310 92.976, 148.667 93.333 C 149.417 94.084, 152 92.181, 152 90.878 C 152 89.561, 150.393 89.821, 149.131 91.342" stroke="none" fill="black" fill-rule="evenodd"/>
</svg>