<svg xmlns="http://www.w3.org/2000/svg" width="192" height="144" viewBox="0 0 192 144" version="1.1">
	<path d="M 81.587 29.859 C 81.259 30.390, 82.342 36.218, 83.993 42.810 C 85.644 49.402, 86.923 55.854, 86.834 57.147 C 86.746 58.441, 87.423 61.653, 88.337 64.285 C 89.252 66.917, 90 71.545, 90 74.570 C 90 77.643, 90.632 81.048, 91.431 82.285 C 92.218 83.503, 92.855 86.673, 92.848 89.329 C 92.840 92.061, 93.448 94.884, 94.250 95.829 C 96.466 98.444, 99.927 118.563, 99.301 125.189 C 98.696 131.585, 96.656 133.534, 94.809 129.480 C 93.528 126.668, 91.486 126.075, 92.298 128.750 C 93.213 131.767, 95.273 137.368, 96.711 140.750 L 98.094 144 110.926 144 L 123.757 144 125.005 140.988 C 125.755 139.177, 126.037 135.889, 125.713 132.738 C 125.416 129.857, 125.646 125.555, 126.223 123.178 C 127.005 119.961, 126.949 117.788, 126.005 114.678 C 125.308 112.380, 124.825 107.267, 124.932 103.316 C 125.039 99.365, 124.618 93.515, 123.996 90.316 C 123.070 85.549, 123.149 83.425, 124.433 78.540 C 126.755 69.709, 126.551 63.282, 123.478 48.422 C 123.242 47.279, 121.934 45.142, 120.572 43.672 C 117.662 40.533, 113.530 40.180, 108.367 42.630 C 104.604 44.416, 103.594 45.854, 102.667 50.743 C 102.151 53.468, 102.553 54.496, 105.185 57.190 C 107.455 59.512, 107.930 60.513, 106.909 60.828 C 106.134 61.066, 104.748 61.915, 103.830 62.713 C 102.348 64.001, 102.033 63.930, 101.044 62.083 C 100.431 60.937, 98.933 59.985, 97.715 59.967 C 92.345 59.886, 89.580 54.603, 87.002 39.500 C 86.345 35.650, 85.481 31.852, 85.082 31.060 C 84.160 29.227, 82.360 28.609, 81.587 29.859 M 99.400 78.643 C 96.347 82.012, 95.425 83.774, 95.770 85.580 C 96.187 87.757, 96.736 88, 101.256 88 L 106.280 88 105.717 82.549 C 104.819 73.850, 104.129 73.423, 99.400 78.643 M 98.552 95.916 C 97.884 96.997, 99.867 107.128, 100.981 108.325 C 102.580 110.042, 103.072 102.107, 101.586 98.553 C 100.040 94.851, 99.500 94.382, 98.552 95.916 M 98.380 137.452 C 97.691 139.249, 98.808 141.237, 100.069 140.457 C 101.336 139.674, 101.253 136, 99.969 136 C 99.401 136, 98.686 136.653, 98.380 137.452" stroke="none" fill="black" fill-rule="evenodd"/>
</svg>