<svg xmlns="http://www.w3.org/2000/svg" width="192" height="144" viewBox="0 0 192 144" version="1.1">
	<path d="M 0 72 L 0 144 33.617 144 L 67.233 144 66.738 141.750 C 58.333 103.543, 55.655 74.696, 57.943 47 C 59.067 33.403, 62.969 8.909, 64.992 2.750 L 65.896 0 32.948 0 L 0 0 0 72 M 125.617 10.750 C 114.451 44.583, 113.553 50.602, 113.643 91 C 113.704 118.484, 114.007 125.043, 115.607 133.500 L 117.500 143.500 154.750 143.762 L 192 144.024 192 72.012 L 192 0 160.583 -0 L 129.165 -0 125.617 10.750" stroke="none" fill="black" fill-rule="evenodd"/>
</svg>