<svg xmlns="http://www.w3.org/2000/svg" width="192" height="144" viewBox="0 0 192 144" version="1.1">
	<path d="M 98.549 3.644 C 96.414 5.490, 94.067 7, 93.333 7 C 92.578 7, 92 8.083, 92 9.500 C 92 10.875, 91.520 12, 90.933 12 C 89.470 12, 90.778 16.004, 93.057 18.502 C 94.613 20.208, 94.798 21.630, 94.309 28.095 L 93.735 35.685 77.118 38.518 C 56.824 41.977, 52 42.496, 52 41.222 C 52 39.635, 46.739 37.961, 43.602 38.549 C 39.948 39.235, 35.128 42.972, 35.055 45.177 C 35.001 46.817, 40.003 50, 42.635 50 C 43.365 50, 44.252 51.237, 44.607 52.750 C 44.962 54.263, 46.919 57.525, 48.956 60 C 50.992 62.475, 53.506 65.850, 54.541 67.500 C 57.584 72.349, 61.805 76, 64.369 76 C 67.458 76, 72.364 73.858, 78 70.050 C 80.475 68.377, 83.175 67.004, 84 66.998 C 84.825 66.992, 86.804 66.307, 88.399 65.476 C 89.993 64.645, 91.436 64.102, 91.604 64.271 C 91.773 64.440, 91.303 66.361, 90.559 68.539 C 89.816 70.718, 88.681 77.435, 88.038 83.466 C 87.006 93.145, 87.053 94.565, 88.435 95.576 C 90.129 96.815, 90.542 101.014, 89.121 102.550 C 87.316 104.500, 86.015 110.846, 85.030 122.500 C 84.472 129.100, 83.772 136.638, 83.473 139.250 L 82.931 144 116.001 144 C 153.601 144, 151.196 144.788, 142.330 135.369 C 135.264 127.863, 135.281 127.890, 128.384 114.233 C 124.896 107.325, 121.199 100.734, 120.170 99.586 C 117.386 96.483, 116.862 94.152, 118.398 91.698 C 119.154 90.489, 120.305 86.350, 120.955 82.500 C 121.605 78.650, 122.382 74.195, 122.681 72.600 C 122.980 71.005, 124.974 67.986, 127.112 65.890 C 130.888 62.189, 131 61.880, 131 55.156 C 131 48.975, 130.776 48.175, 128.910 47.687 C 126.620 47.088, 126.711 46.146, 129.815 38.311 C 131.658 33.657, 130.574 34.024, 151.750 30.879 C 160.350 29.602, 161.812 28.383, 157.969 25.691 C 156.200 24.451, 154.948 24.498, 148.219 26.051 C 134.358 29.250, 131.107 29.490, 130.439 27.362 C 130.118 26.338, 129.493 24.825, 129.049 24 C 128.573 23.114, 128.843 21.326, 129.707 19.633 C 131.801 15.536, 132.123 9.980, 130.369 8.226 C 129.565 7.422, 127.077 5.235, 124.839 3.366 C 120.820 0.007, 120.662 -0.031, 111.601 0.127 C 102.734 0.283, 102.303 0.399, 98.549 3.644 M 1.241 15.986 C 0.287 17.513, 0 32.566, 0 80.986 L 0 144 8.629 144 L 17.258 144 16.572 138.830 C 16.195 135.986, 15.231 131.149, 14.431 128.080 C 13.631 125.011, 12.281 118.494, 11.431 113.598 C 10.581 108.702, 8.919 102.852, 7.738 100.598 C 6.557 98.344, 5.563 96.275, 5.530 96 C 5.497 95.725, 5.093 94.907, 4.634 94.183 C 4.061 93.279, 4.458 92.693, 5.899 92.316 C 8.484 91.640, 8.489 91.306, 6 85.500 C 3.610 79.925, 3.561 76.404, 5.823 72.910 C 6.745 71.485, 8.738 68.456, 10.250 66.179 C 11.762 63.903, 13 61.581, 13 61.020 C 13 60.459, 13.480 60, 14.067 60 C 14.701 60, 14.860 59.136, 14.460 57.875 C 13.953 56.276, 14.110 55.950, 15.096 56.559 C 15.817 57.005, 15.251 55.374, 13.838 52.935 C 12.425 50.496, 10.953 46.757, 10.566 44.626 C 9.956 41.263, 10.220 40.380, 12.572 37.925 L 15.280 35.098 11.833 33.064 C 7.201 30.331, 4 24.426, 4 18.614 C 4 13.628, 3.193 12.860, 1.241 15.986 M 141 29.262 C 135.775 30.372, 131.312 31.442, 131.083 31.640 C 129.269 33.208, 136.815 32.362, 150.750 29.433 C 154.132 28.722, 155.309 26.909, 152.250 27.122 C 151.287 27.189, 146.225 28.152, 141 29.262 M 86.750 39.662 C 87.438 39.940, 88.563 39.940, 89.250 39.662 C 89.938 39.385, 89.375 39.158, 88 39.158 C 86.625 39.158, 86.063 39.385, 86.750 39.662 M 81.269 40.693 C 82.242 40.947, 83.592 40.930, 84.269 40.656 C 84.946 40.382, 84.150 40.175, 82.500 40.195 C 80.850 40.215, 80.296 40.439, 81.269 40.693 M 78 43.126 C 57.957 46.785, 56.965 47.044, 58.113 48.317 C 58.700 48.967, 60.602 52.172, 62.340 55.439 C 64.078 58.705, 66.041 61.548, 66.703 61.756 C 67.364 61.965, 70.451 59.630, 73.563 56.568 C 76.674 53.505, 79.850 51, 80.620 51 C 81.390 51, 82.790 50.100, 83.732 49 C 84.811 47.740, 86.682 47, 88.789 47 C 91.845 47, 92.106 46.764, 91.816 44.259 C 91.639 42.722, 90.840 41.449, 90 41.363 C 89.175 41.279, 83.775 42.072, 78 43.126 M 70.813 42.683 C 71.534 42.972, 72.397 42.936, 72.729 42.604 C 73.061 42.272, 72.471 42.036, 71.417 42.079 C 70.252 42.127, 70.015 42.364, 70.813 42.683 M 62 44 C 60.020 44.634, 59.916 44.801, 61.500 44.801 C 62.600 44.801, 64.625 44.440, 66 44 C 67.980 43.366, 68.084 43.199, 66.500 43.199 C 65.400 43.199, 63.375 43.560, 62 44" stroke="none" fill="black" fill-rule="evenodd"/>
</svg>