<svg xmlns="http://www.w3.org/2000/svg" width="192" height="144" viewBox="0 0 192 144" version="1.1">
	<path d="M 67.706 7.036 C 68.070 11.372, 67.830 15.690, 67.080 18.286 C 64.233 28.154, 63.665 29.768, 61.196 35 C 55.675 46.698, 39.140 59.062, 25.201 61.915 C 18.702 63.245, 7.615 63.323, 3.243 62.070 L 0 61.140 0 102.570 L 0 144 83.500 144 L 167 144 167 139.028 C 167 136.294, 168.324 128.981, 169.943 122.778 C 171.561 116.575, 173.374 107.854, 173.970 103.398 C 174.567 98.941, 175.493 93.769, 176.027 91.904 C 177.787 85.770, 177.233 80.430, 174.500 77.182 C 171.489 73.603, 171.448 72.937, 173.960 68.198 C 178.943 58.796, 180.177 54.611, 177.685 55.567 C 176.962 55.845, 175.049 54.822, 173.435 53.293 C 171.821 51.765, 169.600 50.051, 168.500 49.484 C 167.175 48.802, 166.398 47.238, 166.197 44.852 C 166.008 42.607, 164.971 40.382, 163.447 38.950 C 158.433 34.240, 160.682 33.035, 174.527 33.014 C 183.942 32.999, 186.280 33.812, 190.217 38.469 C 191.850 40.401, 191.935 39.510, 191.967 20.250 L 192 0 129.558 0 L 67.116 0 67.706 7.036" stroke="none" fill="black" fill-rule="evenodd"/>
</svg>