<svg xmlns="http://www.w3.org/2000/svg" width="192" height="144" viewBox="0 0 192 144" version="1.1">
	<path d="M 82 0.435 C 82 0.674, 82.640 3.936, 83.422 7.685 C 89.120 34.990, 88.939 38.881, 81.599 46.876 C 77.758 51.059, 70.660 61.909, 65.842 70.961 C 64.829 72.865, 63.992 76.240, 63.983 78.461 C 63.973 80.683, 63.262 85.650, 62.402 89.500 C 61.542 93.350, 60.678 98.074, 60.482 99.999 C 60.140 103.366, 57.520 106.513, 52.414 109.691 C 50.608 110.815, 50.636 110.886, 52.905 110.941 C 55.249 110.999, 55.264 111.051, 53.494 113.006 C 51.072 115.683, 52.304 116.686, 55.469 114.612 C 58.468 112.647, 58.847 113.923, 56.024 116.479 C 54.937 117.462, 54.312 118.696, 54.636 119.221 C 54.960 119.745, 56.659 118.785, 58.410 117.087 C 62.517 113.106, 63.236 113.191, 61.458 117.447 C 60.666 119.342, 60.413 121.137, 60.896 121.435 C 62.111 122.187, 63.408 120.235, 64.953 115.332 C 65.774 112.726, 67 110.972, 68.223 110.652 C 69.677 110.272, 70.011 109.609, 69.522 108.070 C 68.648 105.315, 69.778 102, 71.592 102 C 73.478 102, 75 97.928, 75 92.882 C 75 90.689, 75.713 85.761, 76.584 81.931 C 77.841 76.403, 79.066 73.914, 82.522 69.866 C 84.916 67.061, 88.477 61.719, 90.433 57.995 C 93.427 52.298, 94.706 50.889, 98.499 49.106 C 102.259 47.338, 103.337 47.194, 105.003 48.234 C 107.659 49.893, 107.657 54.578, 105 56 C 103.464 56.822, 103 58.094, 103 61.485 C 103 64.650, 102.199 67.117, 100.173 70.200 C 96.774 75.368, 94.350 81.849, 93.462 88.137 C 92.690 93.603, 95.755 102, 98.523 102 C 99.422 102, 102.745 99.750, 105.907 97 C 109.327 94.025, 112.615 92, 114.024 92 C 115.327 92, 117.996 90.889, 119.956 89.530 L 123.520 87.060 130.010 89.107 C 138.706 91.850, 146.028 91.332, 153.579 87.441 C 161.262 83.482, 163.340 79.724, 162.396 71.500 C 161.309 62.028, 161.729 56.401, 163.887 51.524 C 164.987 49.036, 165.670 47, 165.403 47 C 163.792 47, 158.482 52.151, 155.049 57.046 C 152.846 60.186, 150.206 62.974, 149.181 63.242 C 147.965 63.560, 145.614 62.249, 142.409 59.466 L 137.500 55.203 138.896 51.851 C 141.587 45.392, 145.282 29.258, 144.648 26.734 C 143.779 23.270, 137.990 22.472, 132.750 25.092 C 130.688 26.124, 129 26.746, 129 26.475 C 129 26.204, 131.025 21.241, 133.500 15.446 C 135.975 9.652, 138 3.806, 138 2.455 L 138 0 110 0 C 94.600 0, 82 0.196, 82 0.435 M 186 72 L 186 144 189 144 L 192 144 192 72 L 192 0 189 0 L 186 0 186 72" stroke="none" fill="black" fill-rule="evenodd"/>
</svg>