<svg xmlns="http://www.w3.org/2000/svg" width="192" height="144" viewBox="0 0 192 144" version="1.1">
	<path d="M -0 72.005 L -0 144.010 96.250 143.755 L 192.500 143.500 192.757 71.750 L 193.013 0 96.507 0 L 0 0 -0 72.005 M 0.474 72.500 C 0.474 112.100, 0.598 128.154, 0.750 108.176 C 0.901 88.198, 0.901 55.798, 0.750 36.176 C 0.598 16.554, 0.474 32.900, 0.474 72.500 M 102 53.905 C 93.816 57.101, 89.088 59.968, 82.137 65.951 C 75.523 71.644, 67 83.205, 67 86.484 C 67 87.338, 68.769 88.724, 71 89.617 C 74.021 90.825, 75 91.772, 75 93.486 C 75 94.734, 75.637 96.284, 76.416 96.930 C 78.406 98.582, 87.598 95.792, 93.708 91.683 C 102.813 85.558, 118.633 63.434, 119.222 56 L 119.500 52.500 113 52.324 C 108.797 52.210, 104.910 52.769, 102 53.905" stroke="none" fill="black" fill-rule="evenodd"/>
</svg>