<svg xmlns="http://www.w3.org/2000/svg" width="192" height="144" viewBox="0 0 192 144" version="1.1">
	<path d="M 0 72 L 0 144 6.265 144 L 12.531 144 14.338 138.911 C 15.592 135.380, 15.939 132.599, 15.471 129.830 C 14.914 126.529, 15.161 125.499, 16.898 123.880 C 18.538 122.352, 19 120.722, 19 116.461 C 19 112.337, 19.358 111, 20.461 111 C 21.330 111, 22.378 109.311, 23.043 106.840 C 23.659 104.553, 24.839 101.650, 25.664 100.389 C 26.494 99.123, 26.886 97.218, 26.541 96.130 C 26.070 94.647, 26.668 93.719, 28.968 92.360 C 30.646 91.369, 31.865 90.095, 31.677 89.529 C 30.928 87.280, 28.266 88.131, 24.384 91.862 C 21.151 94.968, 19.753 95.675, 17.642 95.272 C 15.366 94.837, 14.821 95.216, 13.892 97.881 C 12.633 101.493, 9.993 102.085, 10.015 98.750 C 10.034 96.010, 10.956 94.555, 13.195 93.730 C 14.182 93.366, 15.168 91.518, 15.556 89.303 C 15.922 87.211, 17.072 81.079, 18.111 75.676 C 19.150 70.274, 19.995 65.549, 19.989 65.176 C 19.982 64.804, 18.197 63.647, 16.022 62.605 L 12.066 60.710 14.654 57.605 C 16.077 55.897, 18.289 53.936, 19.568 53.246 C 21.791 52.047, 21.830 51.837, 20.447 48.528 C 18.677 44.291, 18.640 35.752, 20.371 30.910 C 23.977 20.822, 32.248 15.481, 46.605 13.971 C 51.497 13.457, 55.828 13.028, 56.230 13.018 C 56.631 13.008, 57.836 11.282, 58.907 9.183 C 62.422 2.292, 63.531 2.131, 66.703 8.054 C 68.242 10.926, 71.464 15.351, 73.864 17.888 C 78.782 23.085, 81.522 28.630, 82.546 35.457 C 83.152 39.499, 83.600 40.170, 86.017 40.653 C 88.085 41.067, 88.939 41.946, 89.371 44.104 C 90.185 48.175, 89.046 53, 87.270 53 C 86.146 53, 85.882 53.963, 86.171 57 C 86.441 59.822, 86.168 61, 85.245 61 C 83.484 61, 82.537 63.726, 83.765 65.263 C 84.309 65.943, 84.645 68.075, 84.512 70 C 84.379 71.925, 84.868 75.504, 85.598 77.953 C 86.329 80.403, 86.757 82.576, 86.550 82.783 C 86.343 82.990, 85.021 82.405, 83.613 81.482 C 81.171 79.882, 80.881 79.910, 77.337 82.101 C 75.294 83.363, 72.444 84.307, 71.004 84.197 C 69.564 84.087, 67.522 84.629, 66.466 85.401 C 64.701 86.691, 65.150 86.991, 72.023 89.116 C 79.517 91.432, 80.269 91.643, 81.854 91.875 C 84.302 92.233, 88 97.131, 88 100.014 C 88 104.561, 90.999 113, 92.615 113 C 94.294 113, 94.305 113.249, 92.843 118.130 C 91.727 121.853, 91.809 122.112, 95.103 125.312 L 98.521 128.631 113.510 128.479 C 121.755 128.396, 129.625 128.761, 131 129.291 C 132.375 129.820, 135.075 130.382, 137 130.539 C 146.458 131.310, 161.233 137.052, 166.504 142.004 C 168.508 143.886, 169.738 144.041, 180.600 143.783 L 192.500 143.500 192.757 71.750 L 193.013 0 96.507 0 L 0 0 0 72 M 0.474 72.500 C 0.474 112.100, 0.598 128.154, 0.750 108.176 C 0.901 88.198, 0.901 55.798, 0.750 36.176 C 0.598 16.554, 0.474 32.900, 0.474 72.500 M 187 45 C 187 45.550, 187.450 46, 188 46 C 188.550 46, 189 45.550, 189 45 C 189 44.450, 188.550 44, 188 44 C 187.450 44, 187 44.450, 187 45 M 129.913 63.282 C 127.666 65.008, 125.819 68.770, 126.893 69.434 C 128.161 70.217, 131.700 66.934, 132.480 64.250 C 133.204 61.761, 132.326 61.430, 129.913 63.282" stroke="none" fill="black" fill-rule="evenodd"/>
</svg>