<svg xmlns="http://www.w3.org/2000/svg" width="192" height="144" viewBox="0 0 192 144" version="1.1">
	<path d="M -0 72.005 L -0 144.010 96.250 143.755 L 192.500 143.500 192.757 71.750 L 193.013 0 178.507 0 C 170.528 0, 164 0.360, 164 0.800 C 164 1.240, 164.531 2.131, 165.180 2.780 C 166.086 3.686, 166.053 4.533, 165.036 6.432 C 163.949 8.463, 163.943 9.723, 164.998 13.493 C 165.704 16.016, 167.006 18.461, 167.891 18.926 C 168.776 19.391, 173.448 20.291, 178.273 20.926 C 191.576 22.677, 191.771 22.850, 187.116 28.809 C 183.522 33.410, 183.535 35.565, 187.167 37.069 C 190.565 38.477, 190.866 39.995, 187.750 40.014 C 183.479 40.040, 181 41.195, 181 43.160 C 181 44.220, 180.437 45.015, 179.750 44.925 C 176.912 44.557, 175.812 45.068, 176.362 46.500 C 176.789 47.613, 176.215 48, 174.138 48 C 172.227 48, 170.989 48.714, 170.238 50.250 C 169.094 52.591, 167.959 62.626, 168.749 63.416 C 168.998 63.664, 171.798 62.548, 174.973 60.934 C 181.296 57.721, 188.474 55, 190.626 55 C 191.766 55, 192 61.055, 192 90.500 C 192 117.444, 191.711 126, 190.800 126 C 189.867 126, 189.867 126.267, 190.800 127.200 C 191.460 127.860, 191.990 130.898, 191.978 133.950 C 191.956 139.464, 191.944 139.485, 190.182 137.196 L 188.409 134.891 185.653 137.446 C 179.421 143.221, 173.913 138.758, 171.904 126.306 C 170.936 120.307, 170.097 118.067, 168.132 116.247 L 165.606 113.905 164.157 116.703 C 163.361 118.241, 162.371 119.725, 161.957 120 C 161.543 120.275, 160.183 124.229, 158.935 128.787 C 156.202 138.768, 154.853 140.951, 152.359 139.423 C 149.231 137.507, 147.092 133.602, 146.706 129.107 C 146.246 123.742, 144.184 122, 138.294 122 C 134.489 122, 133.733 121.610, 131.989 118.750 C 130.899 116.962, 130.006 114.713, 130.004 113.750 C 130.002 112.787, 129.550 112, 129 112 C 128.450 112, 127.986 110.987, 127.968 109.750 C 127.951 108.513, 127.276 106.626, 126.468 105.559 C 124.181 102.535, 124.690 100.304, 127.923 99.177 C 129.530 98.617, 131.289 97.335, 131.831 96.329 C 132.373 95.323, 135.114 93.150, 137.921 91.500 C 141.215 89.564, 143.249 87.613, 143.654 86 C 143.998 84.625, 144.886 82.297, 145.626 80.827 C 146.827 78.442, 146.641 77.131, 143.910 68.695 L 140.849 59.237 135.174 59.433 C 126.218 59.743, 122.362 61.595, 122.822 65.363 C 123.072 67.418, 122.714 68, 121.199 68 C 119.713 68, 119.109 67.082, 118.632 64.099 C 118.122 60.914, 117.457 60.006, 115.004 59.151 C 110.888 57.716, 110.945 54.065, 115.140 50.536 C 119.024 47.267, 123.340 47.374, 123.820 50.750 C 124.276 53.962, 126.208 53.536, 129.576 49.478 C 131.339 47.354, 133.989 45.552, 136.250 44.939 C 139.486 44.062, 140 43.526, 140 41.027 C 140 39.434, 139.541 36.924, 138.981 35.449 C 137.971 32.794, 137.892 32.775, 130.731 33.398 C 123.809 34, 123.423 33.920, 121.697 31.505 L 119.894 28.983 124.875 25.887 C 128.141 23.857, 129.668 22.298, 129.309 21.362 C 128.853 20.175, 129.193 20.131, 131.325 21.102 C 133.574 22.127, 134.284 21.939, 137.093 19.575 C 138.855 18.092, 141.562 14.204, 143.109 10.934 C 144.655 7.664, 147.043 3.866, 148.415 2.494 L 150.909 -0 75.455 -0 L 0 0 -0 72.005 M 0.474 72.500 C 0.474 112.100, 0.598 128.154, 0.750 108.176 C 0.901 88.198, 0.901 55.798, 0.750 36.176 C 0.598 16.554, 0.474 32.900, 0.474 72.500" stroke="none" fill="black" fill-rule="evenodd"/>
</svg>