<svg xmlns="http://www.w3.org/2000/svg" width="192" height="144" viewBox="0 0 192 144" version="1.1">
	<path d="M 100.294 9.795 C 96.751 13.662, 96.502 14.559, 97.924 18.300 C 98.677 20.280, 98.336 21.355, 96.077 24.115 C 92.126 28.943, 91.197 31.012, 90.482 36.577 C 89.963 40.621, 90.271 42.288, 92.209 45.913 C 94.583 50.353, 95.182 50.870, 100.288 52.889 C 102.688 53.838, 102.925 54.271, 101.994 56.010 C 101.116 57.651, 101.250 58.145, 102.707 58.644 C 103.693 58.982, 106.111 60.991, 108.079 63.108 C 111.351 66.628, 111.930 66.881, 114.816 66.053 C 116.552 65.555, 118.185 65.491, 118.445 65.911 C 119.035 66.866, 112.150 73.486, 109.655 74.362 C 108.640 74.718, 107.586 75.869, 107.311 76.919 C 106.883 78.556, 105.494 78.926, 97.543 79.522 C 91.040 80.010, 87.605 79.859, 86.032 79.017 C 83.121 77.459, 77.902 78.466, 75.728 81.004 C 74.789 82.102, 73.449 83, 72.751 83 C 72.054 83, 69.688 79.648, 67.494 75.552 C 63.782 68.620, 62.084 67.055, 58.229 67.014 C 57.529 67.006, 56.481 68.045, 55.899 69.322 C 55.018 71.256, 55.425 72.714, 58.343 78.072 C 60.661 82.328, 62.080 86.527, 62.543 90.500 C 63.478 98.534, 65.214 102.445, 68.647 104.254 C 79.037 109.727, 83.164 112.460, 84.598 114.815 C 85.496 116.292, 89.104 119.913, 92.615 122.861 C 99.242 128.426, 100.030 129.900, 97.500 132 C 95.887 133.339, 95.633 135.914, 96.625 140.875 L 97.250 144 122.625 144 C 142.550 144, 148 143.726, 148 142.723 C 148 141.190, 145.239 137.080, 142.811 135 C 140.981 133.432, 139 121.341, 139 111.745 C 139 108.394, 138.546 106.763, 137.500 106.362 C 134.321 105.142, 136.210 104.067, 140.500 104.655 C 143.554 105.074, 145 104.907, 145 104.136 C 145 103.511, 146.125 103, 147.500 103 C 148.875 103, 150 102.550, 150 102 C 150 101.450, 150.911 101, 152.025 101 C 153.302 101, 154.454 99.984, 155.144 98.250 C 155.927 96.283, 156.390 95.927, 156.769 97 C 157.061 97.825, 157.701 98.763, 158.192 99.085 C 158.711 99.425, 158.671 101.507, 158.098 104.058 C 156.958 109.133, 157.393 110.150, 159.540 107.427 C 160.932 105.663, 161.005 105.986, 160.415 111.250 C 159.972 115.198, 160.119 117, 160.885 117 C 161.500 117, 162 118.625, 162 120.622 C 162 123.674, 162.229 124.055, 163.450 123.041 C 164.689 122.013, 164.810 122.394, 164.283 125.643 L 163.665 129.449 166.303 127.721 C 168.469 126.302, 168.837 126.262, 168.362 127.499 C 167.521 129.689, 168.824 134, 170.326 134 C 171.034 134, 172.141 132.762, 172.785 131.250 L 173.956 128.500 173.376 131.500 C 173.058 133.150, 172.643 136.637, 172.455 139.250 L 172.113 144 182.056 144 L 192 144 192 110.586 L 192 77.172 185.250 73.399 C 178.854 69.824, 167.979 60.052, 163.106 53.500 C 161.771 51.705, 160.675 50.974, 160.377 51.680 C 157.926 57.497, 141.018 75.501, 138.716 74.744 C 137.383 74.306, 136.506 66.730, 137.491 64.164 C 137.990 62.862, 138.267 62.813, 138.942 63.906 C 140.293 66.091, 142 64.157, 142 60.441 C 142 56.834, 143.340 55.837, 144.417 58.643 C 145.350 61.076, 145.867 59.994, 146.584 54.113 C 147.130 49.626, 146.849 48.132, 144.708 44.166 C 143.323 41.600, 141.514 37.195, 140.687 34.378 C 139.860 31.561, 138.448 27.833, 137.549 26.094 C 135.284 21.716, 124.989 14.343, 119.950 13.492 C 116.930 12.981, 115.642 12.189, 114.973 10.430 C 114.477 9.124, 113.042 7.846, 111.785 7.589 C 104.094 6.016, 103.683 6.095, 100.294 9.795 M 97.595 81.606 C 93.797 82.360, 90.555 83.112, 90.391 83.275 C 89.645 84.021, 93.546 94.868, 95.768 98.226 C 98.378 102.170, 99.976 102.344, 100.035 98.691 C 100.055 97.486, 100.714 95.375, 101.500 94 C 102.286 92.625, 102.945 89.783, 102.965 87.684 C 102.984 85.586, 103.466 82.998, 104.035 81.934 C 104.605 80.870, 104.942 80.053, 104.785 80.117 C 104.628 80.181, 101.393 80.851, 97.595 81.606 M 78.985 93.485 C 80.843 95.402, 82.559 96.774, 82.799 96.535 C 83.567 95.767, 78.554 90.113, 77.054 90.055 C 76.191 90.022, 76.969 91.405, 78.985 93.485 M 134.750 112.580 C 133.532 113.803, 133.979 121.257, 135.464 124.500 L 136.838 127.500 136.861 123.500 C 136.893 118.024, 135.664 111.663, 134.750 112.580 M 189.079 136.583 C 189.127 137.748, 189.364 137.985, 189.683 137.188 C 189.972 136.466, 189.936 135.603, 189.604 135.271 C 189.272 134.939, 189.036 135.529, 189.079 136.583" stroke="none" fill="black" fill-rule="evenodd"/>
</svg>