<svg xmlns="http://www.w3.org/2000/svg" width="192" height="144" viewBox="0 0 192 144" version="1.1">
	<path d="M 66.955 3.638 C 65.254 8.791, 66.410 16.362, 69.715 21.718 C 74.690 29.782, 74.970 30.451, 74.985 34.316 C 74.993 36.414, 74.490 39.084, 73.867 40.249 C 72.917 42.024, 73.093 42.657, 74.959 44.168 C 79.719 48.022, 99.781 52.256, 102.519 49.985 C 103.321 49.318, 103.729 48.370, 103.424 47.878 C 102.372 46.175, 104.092 43.167, 107.685 40.427 C 110.302 38.431, 113.416 37.336, 119.039 36.436 C 123.300 35.754, 128.418 34.421, 130.413 33.474 C 140.450 28.711, 140.676 15.272, 130.705 16.131 C 127.967 16.367, 126.456 15.729, 123.406 13.052 C 118.772 8.982, 110.166 4.972, 99.936 2.113 C 94.144 0.495, 89.536 0, 80.264 0 L 68.155 -0 66.955 3.638 M 128.590 20.311 C 127.546 21.074, 127.014 22.214, 127.406 22.848 C 128.427 24.500, 127.084 26.302, 125.661 25.189 C 124.873 24.573, 123.462 25.680, 121.264 28.641 C 118.775 31.994, 118.402 33, 119.648 33 C 123.248 33, 129.663 30.515, 132.296 28.101 C 137.509 23.322, 134.145 16.249, 128.590 20.311" stroke="none" fill="black" fill-rule="evenodd"/>
</svg>