<svg xmlns="http://www.w3.org/2000/svg" width="192" height="144" viewBox="0 0 192 144" version="1.1">
	<path d="M 63.755 4.805 C 65.435 22.287, 53.628 44.814, 38.750 52.514 C 36.688 53.581, 35 54.751, 35 55.114 C 35 55.476, 33.763 56.010, 32.250 56.301 C 30.738 56.591, 26.125 57.589, 22 58.519 C 14.802 60.142, 5.855 60.127, 1.750 58.486 C 0.100 57.826, 0 60.239, 0 100.893 L 0 144 58.393 144 C 123.513 144, 118 144.665, 118 136.805 C 118 134.588, 118.940 128.887, 120.090 124.137 C 125.630 101.237, 128.107 77, 124.906 77 C 124.447 77, 123.559 76.044, 122.933 74.876 C 121.972 73.080, 122.459 71.469, 126.078 64.462 L 130.359 56.173 127.125 53.451 C 125.271 51.892, 124.119 50.133, 124.426 49.333 C 124.750 48.487, 124.037 47.584, 122.617 47.045 C 119.627 45.908, 118.758 43.625, 120.151 40.567 C 121.058 38.576, 120.869 37.625, 119.061 35.086 C 115.211 29.679, 118.190 28.805, 131.166 31.535 C 139.686 33.327, 142.916 35.862, 145.569 42.840 C 146.543 45.403, 148.389 49.480, 149.670 51.899 C 150.952 54.318, 152 57.159, 152 58.212 C 152 59.265, 153.316 62.910, 154.925 66.313 C 156.534 69.716, 158.127 75.055, 158.465 78.177 C 158.804 81.299, 159.797 85.291, 160.674 87.047 C 162.836 91.382, 161.897 102.044, 159.033 105.685 L 157 108.270 157 105.012 C 157 102.423, 156.729 101.980, 155.676 102.854 C 153.992 104.251, 152.005 102.471, 151.988 99.550 C 151.965 95.527, 144.465 73.045, 142.569 71.313 C 142.063 70.850, 142.003 71.060, 142.430 71.800 C 142.842 72.515, 142.444 74.652, 141.544 76.548 C 139.416 81.032, 140.329 86.096, 144.314 91.928 C 145.979 94.363, 148.832 100.638, 150.654 105.872 C 152.477 111.106, 156.616 120.138, 159.852 125.944 C 163.089 131.750, 166.341 138.201, 167.080 140.279 L 168.423 144.058 180.461 143.779 L 192.500 143.500 192.825 129 C 193.003 121.025, 192.837 88.737, 192.455 57.250 L 191.761 0 127.527 -0 L 63.294 -0 63.755 4.805 M 0.459 101 C 0.459 124.925, 0.589 134.713, 0.749 122.750 C 0.908 110.788, 0.908 91.213, 0.749 79.250 C 0.589 67.288, 0.459 77.075, 0.459 101" stroke="none" fill="black" fill-rule="evenodd"/>
</svg>