<svg xmlns="http://www.w3.org/2000/svg" width="192" height="144" viewBox="0 0 192 144" version="1.1">
	<path d="M 0 72 L 0 144 36.905 144 L 73.811 144 73.271 135.750 C 72.974 131.213, 72.679 127.442, 72.616 127.372 C 72.552 127.302, 70.025 127.001, 67 126.704 C 63.975 126.407, 58.125 125.045, 54 123.677 C 49.875 122.310, 44.450 120.885, 41.944 120.511 L 37.388 119.831 37.944 116.166 C 38.787 110.609, 39.904 109.474, 47.500 106.456 C 56.423 102.910, 60.195 100.191, 59.449 97.841 C 59.038 96.545, 59.565 95.896, 61.403 95.435 C 64.063 94.767, 71.004 87.093, 70.994 84.832 C 70.990 84.099, 70.343 82.264, 69.555 80.753 C 68.252 78.255, 68.292 77.914, 69.995 77.003 C 71.025 76.451, 72.997 76, 74.375 76 C 77.724 76, 78.334 74.713, 77.529 69.345 L 76.852 64.833 71.961 65.505 C 66.418 66.268, 60.999 64.855, 57.373 61.703 C 55.161 59.779, 55.115 59.530, 56.660 57.824 C 57.981 56.364, 58.030 55.987, 56.905 55.932 C 56.132 55.895, 56.512 55.376, 57.750 54.780 C 58.987 54.183, 60 53.097, 60 52.366 C 60 51.636, 61.237 50.728, 62.750 50.348 C 71.039 48.269, 75.026 44.422, 76.356 37.221 C 76.914 34.197, 76.730 33.896, 73.981 33.346 C 70.558 32.662, 70.193 31.521, 72.865 29.852 C 73.987 29.151, 74.539 27.952, 74.249 26.843 C 73.907 25.536, 74.312 25, 75.643 25 C 76.675 25, 78.118 24.040, 78.851 22.867 L 80.183 20.734 81.367 23.117 C 82.301 24.998, 83.704 25.672, 88.025 26.316 C 91.036 26.764, 95.211 27.145, 97.302 27.162 C 101.075 27.193, 101.092 27.211, 99.543 29.575 C 98.054 31.848, 98.097 31.986, 100.491 32.587 C 104.218 33.522, 103.538 34.776, 98.797 35.713 L 94.594 36.545 98.483 40.850 C 100.623 43.218, 104.539 46.253, 107.187 47.595 C 109.834 48.936, 112 50.439, 112 50.935 C 112 51.431, 112.273 52.548, 112.607 53.418 C 114.025 57.113, 108.528 54.788, 101.850 48.867 C 98.045 45.494, 94.727 42.939, 94.477 43.190 C 94.226 43.441, 93.739 45.055, 93.395 46.777 C 92.796 49.769, 93.012 50.028, 98.232 52.588 C 102.452 54.657, 103.972 56.033, 104.912 58.633 C 105.581 60.484, 106.942 62.434, 107.935 62.965 C 108.929 63.497, 114.862 63.891, 121.121 63.841 C 135.774 63.724, 136 63.748, 136 65.378 C 136 68.473, 132.786 69.499, 122.597 69.654 C 110.873 69.832, 106.748 69.003, 102.029 65.522 C 96.805 61.667, 94.997 62.113, 95.015 67.250 C 95.031 71.657, 96.023 74.230, 97.592 73.934 C 100.941 73.303, 101.935 74.076, 101.374 76.879 C 101.047 78.516, 101.273 80.051, 101.899 80.438 C 102.505 80.812, 103 82.360, 103 83.879 C 103 87.350, 108.872 94.394, 113.857 96.901 C 115.861 97.909, 121.325 99.958, 126 101.453 C 135.424 104.469, 138 106.211, 138 109.572 C 138 110.816, 138.562 112.037, 139.250 112.287 C 141.369 113.056, 137.966 118.064, 132.534 122.169 C 128.723 125.050, 126.035 126.158, 120.560 127.107 C 112.232 128.550, 103.365 128.816, 100.349 127.714 C 98.344 126.981, 98.173 127.287, 97.835 132.214 C 97.636 135.121, 97.641 138.967, 97.847 140.760 L 98.221 144.019 145.361 143.760 L 192.500 143.500 192.757 71.750 L 193.013 0 96.507 0 L 0 0 0 72 M 0.474 72.500 C 0.474 112.100, 0.598 128.154, 0.750 108.176 C 0.901 88.198, 0.901 55.798, 0.750 36.176 C 0.598 16.554, 0.474 32.900, 0.474 72.500 M 83.667 127.667 C 83.300 128.033, 83 131.858, 83 136.167 L 83 144 86.783 144 L 90.565 144 90.220 136.750 C 90.030 132.762, 89.692 128.938, 89.469 128.250 C 89.044 126.941, 84.817 126.516, 83.667 127.667" stroke="none" fill="black" fill-rule="evenodd"/>
</svg>