<svg xmlns="http://www.w3.org/2000/svg" width="192" height="144" viewBox="0 0 192 144" version="1.1">
	<path d="M 35.250 0.662 C 33.530 1.356, 33.683 3.492, 35.566 5.054 C 36.863 6.131, 37.618 6.066, 39.970 4.677 C 43.690 2.479, 44 2.543, 44 5.500 C 44 8.198, 42.217 8.764, 40.064 6.750 C 38.964 5.720, 38.857 5.941, 39.459 8 C 39.861 9.375, 41.041 14.174, 42.081 18.664 C 43.800 26.088, 43.837 27.210, 42.486 31.040 C 40.659 36.219, 40.652 36, 42.647 36 C 44.099 36, 44.228 37.112, 43.733 45.405 C 43.424 50.578, 42.663 55.761, 42.042 56.922 C 41.420 58.083, 40.746 63.482, 40.543 68.919 C 40.340 74.357, 39.645 79.794, 38.999 81.002 C 38.353 82.210, 37.825 86.866, 37.827 91.349 C 37.828 95.832, 37.139 102.617, 36.295 106.426 C 35.294 110.941, 34.975 115.465, 35.380 119.426 C 35.762 123.170, 35.425 128.760, 34.501 134 C 32.639 144.564, 32.611 144, 35 144 C 36.550 144, 37 143.333, 37 141.035 C 37 139.094, 37.690 137.701, 39 137 C 40.846 136.012, 41 136.240, 41 139.965 C 41 143.348, 41.327 144, 43.023 144 C 44.944 144, 45.040 143.413, 44.937 132.250 C 44.775 114.787, 45.781 97.177, 47.172 93.101 C 47.848 91.121, 48.423 85.150, 48.451 79.833 C 48.494 71.319, 49.536 66.459, 50.654 69.552 C 52.891 75.738, 64.615 91.008, 84.311 113.391 L 89.122 118.858 86.449 122.897 C 84.979 125.119, 82.999 127.183, 82.048 127.485 C 81.098 127.786, 79.702 129.263, 78.946 130.767 C 78.190 132.270, 76.798 134.652, 75.853 136.061 C 74.907 137.470, 73.829 139.832, 73.458 141.311 L 72.783 144 115.642 143.962 L 158.500 143.924 161.273 139.917 C 164.382 135.424, 166.255 135.599, 165.802 140.341 L 165.500 143.500 175.858 143.786 C 182.686 143.975, 187.201 143.636, 189.108 142.792 L 192 141.512 192 118.256 C 192 95.513, 191.955 95, 189.960 95 C 187.894 95, 182 91.228, 182 89.906 C 182 89.511, 184.250 88.878, 187 88.500 L 192 87.812 192 75.775 L 192 63.738 188.357 64.329 C 185.575 64.781, 184.099 64.435, 182.107 62.865 C 179.925 61.144, 179.449 61.059, 179.189 62.338 C 179.019 63.180, 177.577 64.154, 175.987 64.503 C 173.380 65.075, 172.436 64.440, 166.415 58.057 C 158.928 50.121, 151.396 45.879, 141.617 44.093 C 134.529 42.799, 127.901 43.579, 128.683 45.616 C 128.975 46.377, 128.733 47, 128.145 47 C 126.220 47, 118 55.773, 118 57.829 C 118 58.933, 117.699 60.661, 117.330 61.668 C 116.698 63.399, 116.781 63.395, 118.830 61.595 C 120.523 60.109, 121 60.010, 121 61.145 C 121 65.153, 115.789 66.195, 111.727 63 C 108.397 60.380, 108.089 60.448, 106.825 64.071 C 106.236 65.761, 104.717 67.537, 103.449 68.019 C 101.943 68.592, 101.031 69.869, 100.821 71.698 C 100.589 73.724, 99.874 74.589, 98.238 74.821 C 96.993 74.998, 94.882 76.752, 93.545 78.718 L 91.115 82.294 93.415 86.897 C 94.679 89.429, 96.025 92.850, 96.405 94.500 C 96.997 97.070, 96.062 96.353, 89.881 89.500 C 85.913 85.100, 79.606 78.559, 75.867 74.964 L 69.068 68.427 68.004 59.464 C 67.418 54.534, 66.112 46.563, 65.101 41.750 C 63.309 33.216, 63.309 33, 65.132 33 C 67.540 33, 67.487 32.526, 64.648 28.683 C 60.778 23.446, 60.785 22.473, 64.710 20.601 C 66.656 19.673, 68.328 19.046, 68.426 19.207 C 68.523 19.368, 69.415 22.163, 70.406 25.419 C 72.789 33.242, 78.441 39.227, 86.500 42.460 C 91.220 44.354, 92.689 45.468, 93.385 47.684 C 96.046 56.157, 95.769 55.861, 99.471 54.183 C 102.316 52.894, 102.922 52.006, 103.474 48.322 C 104.053 44.462, 104.700 43.609, 109.313 40.620 C 119.244 34.185, 123 27.824, 123 17.439 C 123 11.536, 121.949 8.076, 118.692 3.257 L 116.500 0.014 76.500 0.086 C 54.500 0.125, 35.938 0.385, 35.250 0.662 M 46 52.559 C 46 53.416, 46.457 53.835, 47.016 53.490 C 47.575 53.144, 47.774 52.443, 47.457 51.931 C 46.600 50.544, 46 50.802, 46 52.559 M 44 62.500 C 44 65.333, 44.381 66, 46 66 C 47.619 66, 48 65.333, 48 62.500 C 48 59.667, 47.619 59, 46 59 C 44.381 59, 44 59.667, 44 62.500 M 43.810 74.500 C 43.585 76.425, 43.712 78, 44.091 78 C 44.471 78, 44.965 76.425, 45.190 74.500 C 45.415 72.575, 45.288 71, 44.909 71 C 44.529 71, 44.035 72.575, 43.810 74.500 M 41.701 83.632 C 41.316 84.018, 41 85.833, 41 87.667 C 41 90.333, 41.400 91, 43 91 C 44.556 91, 45 90.333, 45 88 C 45 86.350, 45.024 84.662, 45.053 84.250 C 45.125 83.231, 42.573 82.761, 41.701 83.632 M 41.750 96.572 C 41.337 96.991, 41.029 98.946, 41.063 100.917 C 41.123 104.278, 41.187 104.348, 42.106 102.047 C 43.190 99.334, 42.932 95.372, 41.750 96.572 M 38.625 112.125 C 37.687 116.815, 37.808 117.166, 40.250 116.820 C 42.057 116.563, 42.561 115.762, 42.810 112.750 C 43.071 109.602, 42.810 109, 41.185 109 C 39.818 109, 39.067 109.917, 38.625 112.125 M 39 126.559 C 39 128.516, 39.352 129.901, 39.781 129.635 C 40.968 128.901, 41.177 123, 40.016 123 C 39.457 123, 39 124.602, 39 126.559" stroke="none" fill="black" fill-rule="evenodd"/>
</svg>