<svg xmlns="http://www.w3.org/2000/svg" width="192" height="144" viewBox="0 0 192 144" version="1.1">
	<path d="M 0 30.500 L 0 61 11.424 61 C 21.804 61, 23.539 60.724, 30.392 57.980 C 39.710 54.249, 50.587 52.790, 62.727 53.643 C 70.574 54.195, 72 54.066, 72 52.803 C 72 51.982, 72.900 50.495, 74 49.500 C 76.875 46.899, 76.632 44.625, 73.561 45.395 C 69.769 46.347, 69.460 44.153, 72.888 40.616 C 75.524 37.896, 76 36.644, 76 32.425 C 76 29.445, 76.653 26.513, 77.627 25.123 C 79.301 22.731, 92.174 16, 95.072 16 C 95.967 16, 98.644 17.408, 101.020 19.130 C 105.109 22.092, 105.585 22.202, 109.920 21.200 C 116.526 19.673, 117.506 21.291, 112.579 25.588 L 108.658 29.007 111.079 31.588 C 113.869 34.562, 113.768 37.478, 110.764 40.721 C 109.109 42.507, 108.944 43.228, 109.920 44.404 C 110.882 45.563, 110.817 46.350, 109.605 48.199 C 108.764 49.483, 107.372 52.528, 106.512 54.967 C 105.651 57.405, 104.219 60.206, 103.329 61.189 C 101.805 62.873, 102.041 63.130, 107.342 65.556 C 110.439 66.974, 113.413 67.863, 113.949 67.531 C 115.157 66.785, 125.204 71.745, 126.301 73.628 C 127.426 75.562, 138.089 82.289, 140.500 82.586 C 141.600 82.722, 142.817 82.871, 143.205 82.917 C 144.328 83.050, 149 87.994, 149 89.050 C 149 89.577, 152.632 93.919, 157.072 98.700 C 161.512 103.480, 167.895 111.868, 171.257 117.339 C 179.128 130.147, 181.566 133, 184.640 133 C 186.504 133, 187.454 133.842, 188.551 136.468 C 189.348 138.375, 190 140.850, 190 141.968 C 190 143.086, 190.450 144, 191 144 C 191.642 144, 192 134.388, 192 117.164 C 192 102.404, 192.298 70.004, 192.663 45.164 L 193.326 0 96.663 0 L 0 0 0 30.500 M 0.444 31 C 0.444 47.775, 0.581 54.637, 0.748 46.250 C 0.915 37.862, 0.915 24.137, 0.748 15.750 C 0.581 7.362, 0.444 14.225, 0.444 31 M 41.194 61.528 C 37.726 62.281, 32.622 64.292, 29.852 65.996 C 27.082 67.700, 22.812 69.469, 20.362 69.927 C 17.912 70.385, 15.613 71.054, 15.253 71.414 C 12.361 74.306, 12.598 124.679, 15.578 140.563 L 16.223 144 43.980 144 L 71.736 144 73.462 137.750 C 75.206 131.433, 77.686 126.376, 84.343 115.559 C 86.757 111.637, 88 108.406, 88 106.053 C 88 99.160, 84.960 76.593, 83.947 75.967 C 83.333 75.588, 83.189 73.671, 83.587 71.184 C 84.150 67.663, 83.966 66.945, 82.375 66.452 C 81.344 66.133, 78.700 64.998, 76.500 63.930 C 72.504 61.991, 59.133 59.929, 51.526 60.079 C 49.312 60.123, 44.662 60.775, 41.194 61.528 M 124 83.800 C 124 84.790, 124.537 86.137, 125.193 86.793 C 126.118 87.718, 125.738 88.664, 123.506 90.993 C 120.902 93.712, 120.818 94, 122.631 94 C 123.734 94, 126.997 93.299, 129.881 92.443 C 136.329 90.528, 136.357 88.761, 129.999 84.894 C 124.569 81.591, 124 81.487, 124 83.800 M 143.053 98.436 C 142.398 99.226, 141.519 101.138, 141.101 102.686 C 140.387 105.332, 140.048 105.486, 135.421 105.271 C 132.714 105.145, 126.675 104.993, 122 104.933 C 117.325 104.874, 112.903 104.331, 112.174 103.727 C 111.189 102.912, 110.614 102.998, 109.939 104.064 C 108.678 106.057, 108.779 109.222, 110.401 118.500 C 111.169 122.900, 112.122 130.438, 112.518 135.250 L 113.237 144 147.118 144 C 165.753 144, 181 143.845, 181 143.656 C 181 143.466, 179.847 142.004, 178.437 140.406 C 177.027 138.807, 173.357 133.225, 170.281 128 C 162.720 115.155, 158.690 109.554, 152.118 102.750 C 146.277 96.705, 144.996 96.095, 143.053 98.436" stroke="none" fill="black" fill-rule="evenodd"/>
</svg>