<svg xmlns="http://www.w3.org/2000/svg" width="192" height="144" viewBox="0 0 192 144" version="1.1">
	<path d="M 0 65.500 C 0 101.525, 0.302 131, 0.671 131 C 1.040 131, 2.115 130.301, 3.059 129.446 C 4.004 128.592, 5.727 127.821, 6.888 127.733 C 8.050 127.646, 9 127.261, 9 126.878 C 9 126.494, 12.432 124.297, 16.627 121.995 C 20.822 119.692, 25.532 116.502, 27.094 114.904 C 28.655 113.307, 30.398 112, 30.966 112 C 31.535 112, 32 111.505, 32 110.901 C 32 109.248, 44.678 97.616, 51.511 93 C 59.177 87.821, 62.014 86, 62.418 86 C 62.670 86, 64.355 84.650, 66.161 83 C 67.968 81.350, 69.965 80, 70.601 80 C 71.236 80, 74.224 77.739, 77.241 74.976 L 82.725 69.953 83.230 61.226 C 83.626 54.388, 84.379 51.093, 86.711 46 C 90.450 37.835, 97.801 28.783, 103.289 25.585 C 111.742 20.662, 124.003 19.634, 135.657 22.872 C 141.551 24.510, 149.210 29.918, 151.157 33.819 C 152.069 35.645, 153.462 37.895, 154.252 38.819 C 156.437 41.374, 159.001 48.646, 158.994 52.270 C 158.986 57.033, 157.106 63.093, 154.578 66.500 C 153.354 68.150, 152.056 70.304, 151.694 71.287 C 151.331 72.269, 149.690 73.844, 148.047 74.787 C 145.732 76.115, 144.828 77.580, 144.030 81.299 C 143.463 83.939, 143 87.426, 143 89.049 C 143 90.672, 142.495 92, 141.878 92 C 139.478 92, 143.225 94.889, 147.526 96.354 C 152.823 98.159, 160.899 103.549, 161.746 105.845 C 162.921 109.027, 173.895 122.725, 182.661 131.951 L 191.500 141.254 192.133 134.877 C 192.481 131.370, 192.819 99.588, 192.883 64.250 L 193 0 96.500 0 L 0 0 0 65.500 M 0.472 66 C 0.472 102.025, 0.597 116.762, 0.750 98.750 C 0.902 80.737, 0.902 51.262, 0.750 33.250 C 0.597 15.237, 0.472 29.975, 0.472 66 M 39.872 106.750 C 38.629 108.336, 38.664 108.371, 40.250 107.128 C 41.916 105.821, 42.445 105, 41.622 105 C 41.415 105, 40.627 105.787, 39.872 106.750 M 33 131.195 C 30.525 132.772, 28.587 134.386, 28.693 134.781 C 28.798 135.176, 27.782 136.738, 26.435 138.250 C 25.087 139.762, 24.316 141, 24.722 141 C 26.155 141, 34.525 134.773, 36.322 132.370 C 39.190 128.534, 37.895 128.076, 33 131.195 M 140.627 139.706 C 140.282 140.051, 140 141.158, 140 142.167 C 140 143.709, 140.824 144, 145.200 144 C 148.477 144, 150.049 143.650, 149.450 143.052 C 147.922 141.528, 141.312 139.021, 140.627 139.706 M 26.559 142.532 C 24.662 143.967, 24.668 144, 26.809 144 C 28.090 144, 29 143.377, 29 142.500 C 29 140.690, 28.993 140.691, 26.559 142.532" stroke="none" fill="black" fill-rule="evenodd"/>
</svg>