<svg xmlns="http://www.w3.org/2000/svg" width="192" height="144" viewBox="0 0 192 144" version="1.1">
	<path d="M 0 72 L 0 144 45.073 144 C 87.462 144, 90.127 143.896, 89.810 142.250 C 89.624 141.287, 89.130 140.631, 88.712 140.792 C 88.293 140.952, 86.724 140.423, 85.225 139.615 C 83.726 138.807, 80.625 137.326, 78.334 136.323 C 72.087 133.589, 72.122 131.355, 78.584 120.042 C 81.556 114.841, 84.218 108.991, 84.500 107.042 C 84.782 105.094, 85.404 101.254, 85.883 98.509 C 86.361 95.764, 86.558 93.012, 86.321 92.394 C 85.890 91.271, 82.072 89.169, 80.855 89.385 C 80.500 89.448, 79.278 88.657, 78.140 87.627 C 76.818 86.430, 75.154 85.929, 73.535 86.238 C 71.659 86.597, 71.012 86.304, 71.048 85.111 C 71.154 81.541, 74.783 76.338, 79.750 72.634 C 83.865 69.565, 85 68.124, 85 65.964 C 85 64.330, 86.010 62.252, 87.483 60.855 C 88.848 59.560, 89.973 57.487, 89.983 56.250 C 90.004 53.465, 91.122 53.365, 92.768 56 C 93.455 57.100, 94.825 58, 95.812 58 C 96.800 58, 99.134 59.575, 101 61.500 C 102.991 63.554, 105.368 65, 106.753 65 C 112.486 65, 118.116 67.286, 120.689 70.658 C 123.541 74.399, 123.361 74.948, 118.777 76.465 C 115.133 77.671, 113.869 80, 116.858 80 C 117.971 80, 119.160 80.450, 119.500 81 C 120.270 82.245, 119.792 82.251, 116.601 81.038 C 114.981 80.422, 113.857 80.422, 113.476 81.038 C 113.149 81.567, 111.671 82.003, 110.191 82.006 C 108.711 82.009, 105.772 82.491, 103.660 83.077 C 100.177 84.045, 99.956 84.300, 101.285 85.822 C 102.091 86.745, 102.607 88.385, 102.432 89.466 C 102.257 90.547, 102.593 92.010, 103.179 92.716 C 103.939 93.632, 103.923 94, 103.122 94 C 101.731 94, 101.632 97.655, 103 98.500 C 103.550 98.840, 104 100.216, 104 101.559 C 104 103.062, 104.576 104, 105.500 104 C 106.325 104, 107 103.235, 107 102.300 C 107 101.034, 107.289 100.889, 108.133 101.733 C 109.719 103.319, 108.451 106, 106.115 106 C 105.043 106, 103.208 104.762, 102.036 103.250 L 99.906 100.500 100.494 103.574 C 100.817 105.265, 101.276 109.175, 101.513 112.262 C 101.749 115.349, 103.075 121.113, 104.457 125.071 C 107.119 132.690, 106.993 136.550, 104.052 137.483 C 102.930 137.839, 102.273 139.111, 102.218 141.029 L 102.133 144.020 147.317 143.760 L 192.500 143.500 192.757 71.750 L 193.013 0 150.007 0 C 126.353 0, 107.007 0.337, 107.015 0.750 C 107.023 1.163, 107.679 3.300, 108.471 5.500 C 110.362 10.749, 110.384 21.146, 108.512 25.625 C 107.694 27.583, 104.776 32.012, 102.027 35.466 C 99.278 38.921, 96.674 42.707, 96.240 43.881 C 95.543 45.764, 94.628 44.892, 88.475 36.473 C 84.639 31.225, 80.882 25.484, 80.127 23.715 C 78.337 19.523, 78.491 10.640, 80.448 5.124 C 81.301 2.718, 82 0.580, 82 0.374 C 82 0.168, 63.550 0, 41 0 L 0 0 0 72 M 0.474 72.500 C 0.474 112.100, 0.598 128.154, 0.750 108.176 C 0.901 88.198, 0.901 55.798, 0.750 36.176 C 0.598 16.554, 0.474 32.900, 0.474 72.500 M 84.750 86.689 C 82.568 87.260, 82.489 88.590, 84.590 89.396 C 86.568 90.155, 88 89.334, 88 87.441 C 88 85.961, 87.754 85.904, 84.750 86.689 M 104.813 87.683 C 105.534 87.972, 106.397 87.936, 106.729 87.604 C 107.061 87.272, 106.471 87.036, 105.417 87.079 C 104.252 87.127, 104.015 87.364, 104.813 87.683 M 93.529 139.805 C 93.238 140.095, 93 141.158, 93 142.167 C 93 143.595, 93.773 144, 96.500 144 C 100.161 144, 100.592 143.487, 99.022 141 C 98.093 139.529, 94.571 138.762, 93.529 139.805" stroke="none" fill="black" fill-rule="evenodd"/>
</svg>