<svg xmlns="http://www.w3.org/2000/svg" width="192" height="144" viewBox="0 0 192 144" version="1.1">
	<path d="M -0 72.005 L -0 144.010 96.250 143.755 L 192.500 143.500 192.757 71.750 L 193.013 0 152.007 0 L 111 0 110.994 4.750 C 110.985 12.456, 109.336 16.323, 102.991 23.510 C 99.696 27.243, 97 30.905, 97 31.648 C 97 34.188, 95.498 32.917, 89.391 25.210 C 80.110 13.498, 79.672 12.623, 79.735 5.930 L 79.790 0 39.895 0 L 0 0 -0 72.005 M 0.474 72.500 C 0.474 112.100, 0.598 128.154, 0.750 108.176 C 0.901 88.198, 0.901 55.798, 0.750 36.176 C 0.598 16.554, 0.474 32.900, 0.474 72.500 M 92.633 39.701 C 92.285 40.049, 92 41.275, 92 42.426 C 92 43.577, 91.120 45.069, 90.044 45.741 C 88.968 46.413, 87.618 48.703, 87.046 50.831 C 86.222 53.890, 84.976 55.337, 81.087 57.755 C 75.474 61.244, 73.504 63.905, 72.563 69.270 L 71.902 73.039 75.946 72.393 C 80.225 71.708, 83.554 73.265, 82.297 75.363 C 81.923 75.988, 82.377 75.882, 83.308 75.128 C 84.808 73.911, 84.996 74.024, 84.965 76.128 C 84.945 77.432, 84.286 79.625, 83.500 81 C 82.714 82.375, 82.055 85.312, 82.035 87.527 C 82.016 89.743, 81.318 92.529, 80.484 93.719 C 79.140 95.638, 79.138 95.978, 80.465 96.721 C 81.288 97.181, 82.231 98.905, 82.560 100.551 C 83.036 102.929, 82.423 104.614, 79.579 108.748 C 77.611 111.610, 76 114.988, 76 116.254 C 76 118.693, 79.101 122, 81.389 122 C 82.140 122, 83.334 122.698, 84.042 123.550 C 84.757 124.412, 86.476 124.967, 87.914 124.800 C 90.252 124.529, 90.505 124.836, 90.552 127.996 C 90.589 130.546, 91.091 131.587, 92.408 131.840 C 94.945 132.329, 96.756 130.356, 95.200 128.800 C 93.215 126.815, 93.750 124, 96.111 124 C 97.969 124, 98.146 124.407, 97.588 127.384 C 96.905 131.024, 98.444 132.585, 101.091 130.938 C 102.251 130.216, 102.275 129.699, 101.227 128.007 C 99.653 125.467, 101.185 122, 103.882 122 C 106.861 122, 107.870 118.198, 106.263 113.032 C 105.087 109.251, 102.017 93.211, 102.004 90.781 C 102.002 90.386, 102.681 90.324, 103.513 90.643 C 104.345 90.963, 105.695 90.668, 106.513 89.989 C 108.178 88.608, 108.552 84, 107 84 C 106.450 84, 106 85.125, 106 86.500 C 106 89.860, 104.369 89.686, 103.658 86.250 C 101.902 77.758, 101.273 73.411, 101.699 72.702 C 101.962 72.263, 104.275 72.132, 106.839 72.411 C 109.402 72.689, 110.600 72.667, 109.500 72.362 C 104.440 70.956, 106.684 68.202, 113.379 67.601 C 115.206 67.437, 117.218 66.983, 117.850 66.593 C 118.483 66.202, 119.563 66.200, 120.250 66.588 C 121.213 67.131, 121.231 67.002, 120.328 66.025 C 118.617 64.172, 119.847 62, 122.607 62 C 125.604 62, 125.591 61.642, 122.448 57.521 C 119.625 53.820, 113.693 51, 108.730 51 C 106.237 51, 104.863 50.201, 102.707 47.500 C 101.171 45.575, 99.292 44, 98.530 44 C 97.768 44, 96.272 42.890, 95.205 41.534 C 94.138 40.178, 92.981 39.353, 92.633 39.701" stroke="none" fill="black" fill-rule="evenodd"/>
</svg>