<svg xmlns="http://www.w3.org/2000/svg" width="192" height="144" viewBox="0 0 192 144" version="1.1">
	<path d="M -0 72.005 L -0 144.010 96.250 143.755 L 192.500 143.500 192.757 71.750 L 193.013 0 147.141 0 L 101.269 0 100.707 6.750 C 100.124 13.743, 99.857 15.276, 97.830 23.250 C 96.512 28.432, 95.506 29.246, 94.740 25.750 C 91.445 10.710, 90.943 7.298, 91.521 3.874 L 92.176 0 46.088 0 L 0 0 -0 72.005 M 0.474 72.500 C 0.474 112.100, 0.598 128.154, 0.750 108.176 C 0.901 88.198, 0.901 55.798, 0.750 36.176 C 0.598 16.554, 0.474 32.900, 0.474 72.500 M 99.027 37.798 C 99.012 39.062, 97.849 41.162, 96.442 42.466 C 95.035 43.770, 93.449 46.412, 92.917 48.338 C 92.201 50.931, 90.818 52.503, 87.581 54.400 C 80.905 58.312, 75.296 66, 79.117 66 C 79.749 66, 80.039 67.018, 79.784 68.350 C 79.366 70.534, 79.527 70.627, 82.055 69.673 C 83.837 69.001, 85.924 68.976, 88.105 69.601 C 91.161 70.478, 91.446 70.901, 91.581 74.761 C 91.661 77.074, 92.279 79.631, 92.954 80.444 C 93.854 81.529, 93.910 82.798, 93.166 85.211 C 92.607 87.020, 91.430 92.202, 90.549 96.727 C 89.669 101.253, 88.042 107.070, 86.934 109.655 C 84.235 115.950, 85.032 120, 88.969 120 C 90.514 120, 92.826 120.848, 94.107 121.885 C 96.130 123.523, 96.255 123.988, 95.060 125.428 C 93.081 127.812, 94.948 129.201, 99.618 128.818 C 103.126 128.531, 103.475 128.251, 103.238 125.914 C 103.012 123.688, 103.549 123.139, 107.094 121.969 C 109.359 121.221, 111.438 120.023, 111.713 119.305 C 111.989 118.587, 112.805 118, 113.528 118 C 114.250 118, 115.151 116.588, 115.530 114.862 C 116.080 112.359, 115.478 110.304, 112.559 104.715 C 108.880 97.672, 106.777 88, 108.925 88 C 110.247 88, 110.339 83.502, 109.066 81.122 C 108.552 80.162, 107.858 76.984, 107.523 74.060 C 106.952 69.065, 107.039 68.777, 108.957 69.278 C 110.079 69.572, 111.269 69.374, 111.600 68.838 C 111.931 68.302, 112.855 68.114, 113.653 68.420 C 114.480 68.738, 114.835 68.543, 114.480 67.968 C 113.722 66.741, 119.948 64, 123.493 64 C 125.277 64, 126.327 63.269, 126.969 61.581 C 127.475 60.250, 128.702 58.675, 129.695 58.081 C 131.383 57.070, 131.338 56.867, 129 54.946 C 127.625 53.817, 125.662 52.203, 124.639 51.361 C 123.615 50.518, 120.190 49.301, 117.027 48.656 C 112.562 47.745, 110.668 46.759, 108.550 44.242 C 107.050 42.459, 105.066 41, 104.143 41 C 103.219 41, 101.696 39.763, 100.758 38.250 C 99.107 35.587, 99.052 35.572, 99.027 37.798 M 99 123.500 C 99 124.325, 99.436 125, 99.969 125 C 100.501 125, 100.678 124.325, 100.362 123.500 C 100.045 122.675, 99.609 122, 99.393 122 C 99.177 122, 99 122.675, 99 123.500" stroke="none" fill="black" fill-rule="evenodd"/>
</svg>