<svg xmlns="http://www.w3.org/2000/svg" width="192" height="144" viewBox="0 0 192 144" version="1.1">
	<path d="M 53.105 11.201 C 50.468 13.780, 49.940 14.951, 50.394 17.219 C 50.873 19.616, 50.231 20.739, 46.078 24.768 C 41.461 29.247, 39.021 34.267, 39.006 39.322 C 38.995 42.896, 43.836 49.562, 47.481 50.993 C 51.252 52.472, 51.442 52.754, 50.095 54.880 C 48.701 57.081, 57.773 66.162, 60.994 65.790 C 65.299 65.292, 64.092 68.895, 58.712 72.602 C 51.534 77.549, 47.007 83.425, 46.968 87.845 C 46.940 91.110, 44.627 96.022, 43.633 94.927 C 42.397 93.565, 38.993 85.731, 37.610 81.068 C 34.912 71.967, 34.890 72, 43.500 72 C 47.833 72, 51 71.578, 51 71 C 51 70.412, 47.395 69.987, 42.250 69.968 C 36.146 69.946, 32.913 69.492, 31.559 68.468 C 28.954 66.498, 24.471 66.615, 20.795 68.750 C 17.848 70.461, 17.748 70.450, 16.269 68.250 C 14.650 65.843, 12.552 65.551, 4.640 66.636 L 0 67.272 0 73.237 C 0 78.552, 0.594 80.310, 5.446 89.351 C 10.428 98.634, 11.491 99.927, 17.908 104.500 C 22.578 107.828, 25.273 110.515, 25.969 112.536 C 26.543 114.205, 29.936 118.467, 33.507 122.007 C 40.127 128.568, 41.147 130.803, 38.520 132.983 C 37.549 133.789, 37.079 135.893, 37.151 139.106 L 37.261 144 66.666 144 C 96.016 144, 96.068 143.996, 94.971 141.946 C 93.640 139.460, 88.211 136.009, 85.621 136.004 C 83.914 136, 83.804 135.445, 84.424 129.968 C 84.799 126.651, 85.914 120.755, 86.902 116.866 C 88.677 109.877, 88.674 109.774, 86.660 107.898 C 84.896 106.254, 84.849 106, 86.311 106 C 87.240 106, 88 105.550, 88 105 C 88 104.450, 89.308 104, 90.906 104 C 93.320 104, 93.724 103.661, 93.290 102 C 92.985 100.833, 93.259 100, 93.949 100 C 96.084 100, 99 102.041, 99 103.535 C 99 104.341, 99.450 105, 100 105 C 100.550 105, 101 104.518, 101 103.929 C 101 103.300, 101.517 103.403, 102.252 104.179 C 102.997 104.965, 103.552 108.506, 103.624 112.920 C 103.710 118.212, 104.169 120.650, 105.226 121.423 C 106.049 122.025, 107.027 125.062, 107.426 128.253 C 107.923 132.231, 108.584 134, 109.572 134 C 110.357 134, 111 133.550, 111 133 C 111 132.450, 111.499 132, 112.108 132 C 112.760 132, 112.983 132.931, 112.650 134.258 C 111.975 136.947, 113.321 139.538, 114.888 138.569 C 115.611 138.122, 116 138.951, 116 140.941 L 116 144 154 144 L 192 144 191.979 138.750 C 191.960 134.246, 191.321 132.517, 187.479 126.586 C 182.768 119.315, 181.765 116.572, 184.829 119.345 C 187.472 121.737, 189 121.382, 189 118.378 C 189 116.160, 189.232 115.947, 190.500 117 C 191.787 118.068, 192 117.725, 192 114.589 C 192 111.718, 190.461 108.632, 184.833 100.217 C 180.891 94.322, 175.087 86.350, 171.935 82.500 C 160.361 68.363, 157.795 67.015, 142.434 67.006 C 127.044 66.996, 113.733 63.290, 109.427 57.815 C 108.366 56.467, 106.599 55.108, 105.499 54.795 C 104.400 54.483, 102.758 53.920, 101.850 53.545 C 100.605 53.030, 99.922 53.676, 99.065 56.181 C 98.440 58.007, 96.876 60.787, 95.590 62.360 L 93.250 65.219 93.250 62.610 C 93.250 61.003, 93.804 60, 94.692 60 C 95.745 60, 95.931 59.392, 95.381 57.750 C 94.967 56.512, 94.544 54.150, 94.442 52.500 C 94.341 50.850, 92.616 45.036, 90.611 39.581 C 85.894 26.751, 79.030 17.905, 72.664 16.451 C 70.761 16.016, 69.506 14.882, 68.852 13.005 C 68.089 10.818, 66.919 9.965, 63.495 9.103 C 57.265 7.534, 56.750 7.638, 53.105 11.201 M 89.505 65.250 C 88.983 67.237, 88.149 68, 86.499 68 C 84.057 68, 83 69.687, 83 73.582 C 83 77.102, 84.395 76.575, 88.574 71.474 C 91.712 67.646, 92.125 66.606, 91.255 64.724 C 90.236 62.520, 90.220 62.524, 89.505 65.250 M 21.972 78.750 C 21.956 79.162, 23.419 82.299, 25.222 85.721 C 27.987 90.968, 28.310 92.248, 27.289 93.895 C 26.317 95.463, 26.381 96.456, 27.615 98.930 C 28.922 101.551, 31.682 104, 33.328 104 C 33.581 104, 32.710 100.608, 31.394 96.462 C 30.077 92.316, 29 88.256, 29 87.440 C 29 84.315, 22.084 75.764, 21.972 78.750 M 78.008 110.968 C 76.414 117.612, 76.484 121.768, 78.260 126.012 L 79.720 129.500 80.899 125.249 C 81.892 121.667, 84.010 107.769, 83.623 107.374 C 83.555 107.305, 82.536 106.953, 81.358 106.591 C 79.454 106.007, 79.081 106.495, 78.008 110.968" stroke="none" fill="black" fill-rule="evenodd"/>
</svg>