<svg xmlns="http://www.w3.org/2000/svg" width="192" height="144" viewBox="0 0 192 144" version="1.1">
	<path d="M 51.757 1.002 C 50.799 1.601, 49.385 1.958, 48.614 1.796 C 47.844 1.633, 46.122 2.673, 44.788 4.106 C 43.453 5.540, 41.766 6.911, 41.037 7.154 C 39.988 7.504, 39.958 8.053, 40.892 9.798 C 42.163 12.172, 41.158 12.758, 39.190 10.790 C 38.244 9.844, 38.110 10.661, 38.575 14.540 C 38.902 17.268, 39.343 20.063, 39.554 20.750 C 39.804 21.568, 38.824 22.008, 36.719 22.024 C 30.075 22.073, 25.823 23.782, 21.722 28.050 C 18.540 31.361, 17.895 32.602, 18.691 33.878 C 19.248 34.770, 19.377 36.400, 18.979 37.500 C 18.575 38.618, 18.814 40.603, 19.521 42 C 20.686 44.302, 23.001 52.976, 24.506 60.676 C 25.642 66.491, 33.057 68.852, 39.055 65.308 C 41.640 63.782, 42.093 63.767, 43.709 65.156 C 44.694 66.003, 46.306 66.983, 47.292 67.333 C 49.517 68.123, 52.949 75.470, 52.978 79.507 C 52.990 81.160, 52.578 83.986, 52.061 85.786 C 51.272 88.539, 51.425 89.249, 53.026 90.248 C 55.287 91.661, 54.858 94.476, 51.462 100.500 C 50.221 102.700, 47.538 110.575, 45.498 118 C 43.459 125.425, 40.732 134.313, 39.440 137.750 L 37.090 144 68.545 144 C 85.845 144, 99.999 143.662, 99.998 143.250 C 99.997 142.838, 98.659 139.964, 97.025 136.864 C 94.336 131.764, 88 112.178, 88 108.968 C 88 108.248, 86.570 104.557, 84.822 100.766 C 81.657 93.898, 81.652 93.859, 83.471 90.780 C 84.931 88.307, 85.308 85.468, 85.354 76.594 C 85.389 69.867, 84.950 64.664, 84.238 63.376 C 83.254 61.594, 83.398 60.949, 85.135 59.376 C 86.779 57.886, 89.147 57.428, 96.628 57.153 L 106.051 56.805 109.275 52.775 C 111.049 50.558, 114.412 46.817, 116.750 44.461 C 119.088 42.106, 121 39.463, 121 38.589 C 121 37.715, 121.501 37, 122.113 37 C 122.785 37, 123.050 35.793, 122.780 33.956 C 122.236 30.249, 123.060 29.614, 126.425 31.148 C 131.863 33.626, 136.850 27.610, 132.411 23.926 C 130.449 22.298, 122.945 21.810, 121.262 23.202 C 120.369 23.940, 119.831 23.706, 119.335 22.363 C 118.956 21.338, 118.163 20.169, 117.573 19.765 C 115.912 18.628, 113.801 18.869, 114.568 20.109 C 115.052 20.893, 114.043 21.014, 111.127 20.521 C 108.315 20.046, 107 20.184, 107 20.954 C 107 24.932, 94.019 29.878, 83.345 29.966 L 79.190 30 79.721 26.045 C 80.117 23.090, 79.701 21.158, 78.073 18.398 C 76.547 15.813, 76.210 14.390, 76.947 13.653 C 78.434 12.166, 78.256 4.733, 76.682 2.580 C 75.589 1.085, 73.492 0.703, 64.432 0.345 C 57.535 0.073, 52.857 0.316, 51.757 1.002 M 40 34.959 C 37.702 35.532, 37.476 36.100, 37.197 41.994 C 36.895 48.382, 36.902 48.399, 38.924 46.568 C 40.422 45.213, 41.878 44.881, 44.477 45.303 C 46.415 45.617, 48 45.625, 48 45.321 C 48 43.579, 44.380 34.983, 43.522 34.687 C 42.960 34.494, 41.375 34.616, 40 34.959 M 95.683 39.619 C 90.401 41.243, 89.985 42.943, 94.565 44.191 C 98.421 45.241, 99.579 44.715, 101.473 41.051 C 103.310 37.500, 102.906 37.400, 95.683 39.619" stroke="none" fill="black" fill-rule="evenodd"/>
</svg>