<svg xmlns="http://www.w3.org/2000/svg" width="192" height="144" viewBox="0 0 192 144" version="1.1">
	<path d="M 136.605 8.060 C 133.303 11.559, 124.327 16.977, 121.809 16.991 C 119.333 17.004, 118.752 18.609, 120.565 20.422 C 122.010 21.867, 122.005 22.061, 120.510 22.635 C 119.609 22.980, 116.655 23.001, 113.945 22.680 C 109.622 22.168, 108.880 22.356, 107.883 24.219 C 106.951 25.960, 107.074 26.581, 108.565 27.671 C 109.564 28.402, 110.746 29, 111.191 29 C 111.636 29, 112 30.098, 112 31.441 C 112 32.784, 112.450 34.160, 113 34.500 C 113.550 34.840, 114 36.161, 114 37.437 C 114 38.712, 114.675 40.315, 115.500 41 C 117.539 42.692, 117.384 43.743, 114.985 44.505 C 113.877 44.856, 113.262 45.615, 113.617 46.190 C 114.778 48.068, 115.759 53.772, 115.103 54.833 C 113.976 56.657, 103.760 49.414, 99.016 43.428 C 96.258 39.948, 92.573 36.711, 89.551 35.114 C 84.884 32.649, 84.596 32.265, 84.500 28.378 C 84.388 23.848, 81.791 19, 79.477 19 C 77.543 19, 77.610 17.469, 79.697 13.935 C 80.631 12.355, 81.102 10.769, 80.744 10.411 C 79.329 8.996, 74.831 11.227, 72.948 14.277 C 69.402 20.021, 69.403 21.912, 72.956 28.562 C 76.542 35.274, 76.754 37.279, 75.490 52.610 C 74.593 63.483, 75.507 64.840, 80.479 60.020 C 84.162 56.451, 85.475 56.651, 89.983 61.471 C 91.349 62.930, 94.049 65.060, 95.983 66.202 C 97.917 67.345, 101.151 69.378, 103.169 70.720 L 106.838 73.159 104.480 77.330 C 97.151 90.296, 96.802 91.187, 97.417 95.396 C 98.493 102.767, 98.146 105.526, 95.701 109.017 C 93.463 112.212, 93.552 113.277, 95.994 112.502 C 97.540 112.011, 97.849 112.229, 97.372 113.472 C 97.034 114.353, 97.480 115.873, 98.363 116.849 C 99.644 118.264, 99.770 119.316, 98.984 122.055 C 98.443 123.942, 98 129.652, 98 134.743 L 98 144 134.253 144 L 170.507 144 170.788 136.689 C 171.101 128.533, 169.552 121.146, 163.128 100.152 C 160.881 92.811, 158.762 84.684, 158.418 82.092 C 157.525 75.364, 160.752 50.997, 162.847 48.642 C 164.061 47.278, 164.496 44.886, 164.484 39.642 C 164.470 33.647, 163.999 31.650, 161.550 27.205 C 157.988 20.738, 151.460 14.723, 145.559 12.469 C 141.850 11.053, 141.180 10.386, 141.326 8.253 C 141.576 4.611, 139.924 4.544, 136.605 8.060 M 135.773 122.560 C 135.152 123.181, 137.147 131.097, 138.908 135 C 139.960 137.330, 140.003 137.263, 139.545 134 C 137.846 121.903, 137.495 120.838, 135.773 122.560" stroke="none" fill="black" fill-rule="evenodd"/>
</svg>