<svg xmlns="http://www.w3.org/2000/svg" width="192" height="144" viewBox="0 0 192 144" version="1.1">
	<path d="M 0 23.768 L 0 47.536 2.536 51.268 C 5.496 55.624, 7.778 55.955, 11.683 52.596 L 14.477 50.193 20.531 54.950 C 31.609 63.656, 31.826 63.650, 36.463 54.486 C 38.010 51.427, 39.777 49.141, 40.388 49.404 C 46.053 51.842, 55.535 54.071, 59.137 53.813 C 65.113 53.384, 65.239 51.138, 59.912 39.931 C 57.578 35.018, 55.855 30.854, 56.084 30.677 C 56.313 30.501, 58.526 29.197, 61.001 27.782 C 67.323 24.166, 69.424 21.661, 68.142 19.265 C 67.582 18.220, 63.966 14.733, 60.105 11.517 C 53.149 5.723, 52.894 5.142, 55.807 1.750 C 57.233 0.089, 55.851 0, 28.655 0 L 0 0 0 23.768 M 109.500 1.092 C 107.850 1.597, 103.350 2.507, 99.500 3.114 C 89.004 4.767, 88.639 5.087, 89.273 12.079 C 90.013 20.236, 94.410 31.110, 99.882 38.315 C 104.915 44.941, 115.676 53, 119.492 53 C 122.324 53, 125.243 49.548, 127.575 43.442 C 128.508 40.999, 129.653 39, 130.118 39 C 130.584 39, 130.862 42.307, 130.736 46.350 C 130.581 51.286, 130.942 54.225, 131.833 55.299 C 134.198 58.148, 139.793 59.241, 149.934 58.834 C 158.421 58.493, 160.490 58.033, 166.206 55.219 C 174.385 51.193, 185.354 40.594, 188.606 33.574 C 191.495 27.338, 190.805 25.958, 182.381 21.130 C 170.645 14.404, 163.971 9.711, 159.308 4.904 L 154.551 0 133.526 0.086 C 121.962 0.133, 111.150 0.586, 109.500 1.092 M 143.478 77.250 C 141.405 81.237, 139.607 84.629, 139.484 84.787 C 139.361 84.944, 137.064 84.210, 134.380 83.155 C 131.696 82.101, 126.051 80.472, 121.836 79.538 C 106.751 76.191, 106.411 80.361, 119.679 106 C 119.821 106.275, 116.534 108.525, 112.374 111 C 102.104 117.110, 101.835 117.840, 107.589 123.992 C 110.154 126.734, 114.446 130.650, 117.126 132.694 C 122.536 136.820, 122.918 137.859, 120 140.500 C 118.900 141.495, 118 142.690, 118 143.155 C 118 143.620, 122.578 144, 128.174 144 L 138.349 144 136.048 141.551 C 133.421 138.754, 133.827 134.781, 136.512 137.010 C 137.347 137.703, 138 137.806, 138 137.245 C 138 136.695, 137.372 135.724, 136.605 135.087 C 135.471 134.146, 133.752 127, 134.660 127 C 134.803 127, 136.079 128.238, 137.497 129.750 L 140.075 132.500 137.550 126.750 C 136.161 123.588, 135.470 121, 136.013 121 C 136.556 121, 137 120.270, 137 119.378 C 137 118.049, 137.271 117.980, 138.500 119 C 139.729 120.020, 140 119.951, 140 118.622 C 140 116.686, 141.134 116.534, 142.842 118.242 C 143.830 119.230, 144.275 119.180, 145.026 117.992 C 145.545 117.171, 145.983 116.950, 146 117.500 C 146.017 118.050, 146.414 117.895, 146.883 117.156 C 148.214 115.055, 152.796 118.002, 157.500 123.984 C 159.700 126.782, 162.400 130.191, 163.500 131.560 C 165.580 134.149, 178.654 139.635, 185.010 140.586 C 188.232 141.068, 188.634 140.839, 189.915 137.805 L 191.310 134.500 191.905 138.500 C 192.452 142.178, 192.679 112.074, 192.205 98.750 C 192.036 94.011, 191.691 93, 190.244 93 C 189.118 93, 187.694 91.269, 186.273 88.172 C 183.319 81.731, 180.270 78, 177.962 78 C 176.921 78, 174.503 79.375, 172.589 81.056 L 169.108 84.112 166.005 81.347 C 159.428 75.487, 151.409 70.021, 149.374 70.011 C 147.744 70.002, 146.368 71.691, 143.478 77.250 M 10.453 75.458 C 9.658 77.361, 8.472 82.042, 7.817 85.862 C 6.365 94.330, 7.438 98.800, 12.522 105.460 C 14.427 107.957, 15.877 109.998, 15.743 109.995 C 15.610 109.993, 12.800 108.879, 9.500 107.519 C 6.200 106.160, 2.938 105.037, 2.250 105.024 C 1.342 105.006, 1 107.431, 1 113.886 L 1 122.773 5.250 123.416 C 11.520 124.364, 12.622 125.274, 10.745 127.954 C 9.909 129.148, 7.374 131.486, 5.112 133.149 C 1.504 135.802, 1 136.656, 1 140.110 L 1 144.047 6.166 139.963 C 16.823 131.539, 20 131.461, 20 139.622 L 20 144 30.500 144 C 37.051 144, 41 143.612, 41 142.968 C 41 142.400, 40.325 140.320, 39.500 138.346 C 37.124 132.660, 37.699 132.298, 42.250 136.615 C 50.166 144.123, 49.999 144.079, 69.251 143.774 L 86.500 143.500 76.922 133.893 C 66.442 123.381, 60.489 119.321, 53.911 118.198 L 49.616 117.464 56.205 113.333 C 59.829 111.061, 64.528 107.007, 66.647 104.325 C 70.348 99.642, 82.809 74.476, 81.885 73.552 C 81.415 73.081, 59.021 80.994, 53 83.759 C 46.733 86.637, 41.012 91.043, 37.074 96.025 L 33.214 100.909 32.578 96.672 C 32.229 94.342, 31.121 91.100, 30.118 89.467 C 27.241 84.790, 14.967 72, 13.355 72 C 12.554 72, 11.248 73.556, 10.453 75.458" stroke="none" fill="black" fill-rule="evenodd"/>
</svg>