<svg xmlns="http://www.w3.org/2000/svg" width="192" height="144" viewBox="0 0 192 144" version="1.1">
	<path d="M 0 72 L 0 144 34.841 144 L 69.682 144 70.936 138.396 C 72.073 133.313, 73.863 127.793, 78.490 115.100 C 79.517 112.282, 79.839 109.587, 79.386 107.600 L 78.680 104.500 77.802 107.786 C 76.779 111.614, 75.511 111.306, 74.654 107.021 C 74.221 104.853, 73.478 104, 72.025 104 C 70.455 104, 70 103.345, 70 101.083 C 70 99.479, 70.563 97.900, 71.250 97.574 C 71.938 97.247, 70.969 97.212, 69.098 97.496 C 66.251 97.927, 64.826 97.354, 60.368 93.988 C 57.438 91.776, 53.888 89.528, 52.479 88.992 C 51.070 88.456, 49.148 86.667, 48.209 85.015 C 47.062 83.001, 45.716 82.011, 44.116 82.006 C 40.308 81.996, 34.172 79.847, 32.418 77.910 C 30.800 76.122, 31.318 73.460, 33.072 74.545 C 33.586 74.862, 36.056 74.814, 38.562 74.438 L 43.119 73.755 41.221 71.628 C 40.178 70.457, 38.852 68.150, 38.275 66.500 C 36.895 62.552, 36.698 52.304, 37.987 51.508 C 38.544 51.164, 39 50.060, 39 49.055 C 39 48.051, 39.672 45.940, 40.494 44.364 C 41.315 42.789, 41.990 40.543, 41.994 39.372 C 42.001 36.978, 44.412 34.518, 45.869 35.419 C 46.395 35.744, 47.123 37.921, 47.486 40.255 C 47.849 42.590, 48.402 45.393, 48.715 46.484 C 49.240 48.317, 49.354 48.279, 50.213 45.984 L 51.143 43.500 53.072 45.861 C 54.666 47.813, 55 49.819, 55 57.455 L 55 66.688 50.895 70.753 C 46.975 74.634, 46.882 74.866, 48.823 75.905 C 49.940 76.503, 51.522 76.737, 52.337 76.424 C 54.265 75.684, 58.741 78.150, 62.432 81.984 C 65.421 85.090, 66.949 84.704, 66.985 80.833 C 66.993 79.916, 67.954 76.991, 69.119 74.333 C 70.285 71.675, 71.464 67.704, 71.740 65.509 C 72.016 63.315, 73.012 60.980, 73.952 60.321 C 75.108 59.512, 76.234 55.938, 77.423 49.311 C 79.603 37.167, 81.717 29.293, 83.013 28.492 C 83.556 28.156, 84 26.973, 84 25.862 C 84 24.174, 83.543 23.941, 81.231 24.449 C 79.564 24.815, 77.718 24.514, 76.595 23.693 C 74.803 22.383, 74.797 22.128, 76.439 17.184 C 77.379 14.354, 78.902 11.133, 79.824 10.025 C 81.409 8.121, 81.732 8.093, 85.777 9.510 C 88.129 10.334, 91.894 12.170, 94.143 13.590 C 99.097 16.717, 103.906 17.297, 109.249 15.412 C 114.024 13.728, 121 13.546, 121 15.106 C 121 17.619, 117.742 28.541, 116.823 29.109 C 116.203 29.493, 116.151 30.995, 116.687 33.112 C 117.982 38.229, 117.181 41.666, 113.935 44.911 C 110.868 47.978, 110.226 51.879, 111.630 58.901 C 112.131 61.407, 112.643 61.931, 114.130 61.459 C 115.634 60.981, 116 61.382, 116 63.505 C 116 64.956, 117.220 68.226, 118.711 70.771 C 120.899 74.503, 121.439 76.704, 121.505 82.158 C 121.550 85.877, 121.874 89.207, 122.224 89.558 C 122.575 89.909, 126.831 90.352, 131.681 90.544 C 144.360 91.044, 143.959 91.047, 150.318 90.399 C 155.593 89.862, 156.187 89.997, 156.670 91.847 C 157.006 93.132, 158.184 94, 159.852 94.193 C 166.828 95.001, 159.280 98.082, 145.500 100.052 C 137.285 101.226, 138.063 101.212, 126.235 100.394 C 117.560 99.795, 116.813 99.566, 114.485 96.800 C 113.118 95.176, 111.993 93.094, 111.985 92.173 C 111.971 90.727, 111.838 90.704, 111 92 C 109.541 94.258, 109.805 96, 111.607 96 C 112.752 96, 113.002 96.503, 112.475 97.750 C 110.556 102.297, 111.708 111.768, 115.261 120.646 C 117.209 125.516, 119.838 132.768, 121.103 136.763 L 123.402 144.025 157.951 143.763 L 192.500 143.500 192.757 71.750 L 193.013 0 96.507 0 L 0 0 0 72 M 0.474 72.500 C 0.474 112.100, 0.598 128.154, 0.750 108.176 C 0.901 88.198, 0.901 55.798, 0.750 36.176 C 0.598 16.554, 0.474 32.900, 0.474 72.500 M 151.551 61.728 C 150.985 63.202, 150.756 63.237, 149.926 61.972 C 149.113 60.735, 148.641 60.880, 146.960 62.885 C 145.464 64.670, 145.115 66.098, 145.576 68.553 C 145.915 70.358, 145.730 72.660, 145.166 73.668 C 144.239 75.325, 144.027 75.213, 142.951 72.500 C 142.297 70.850, 141.560 70.040, 141.314 70.701 C 140.511 72.854, 146.232 85.939, 148.258 86.582 C 149.299 86.912, 150.401 86.932, 150.707 86.626 C 151.013 86.321, 152.091 86.514, 153.104 87.056 C 154.631 87.873, 155.357 87.398, 157.364 84.270 C 159.470 80.988, 162.259 68.407, 160.488 70.178 C 159.519 71.148, 154 64.966, 154 62.911 C 154 60.434, 152.353 59.639, 151.551 61.728 M 152 93.393 C 152 94.342, 154.993 94.820, 155.527 93.956 C 155.852 93.430, 155.191 93, 154.059 93 C 152.927 93, 152 93.177, 152 93.393" stroke="none" fill="black" fill-rule="evenodd"/>
</svg>