<svg xmlns="http://www.w3.org/2000/svg" width="192" height="144" viewBox="0 0 192 144" version="1.1">
	<path d="M 83.297 22.796 C 82.635 23.216, 80.730 25.572, 79.065 28.030 C 75.497 33.295, 75.115 38.312, 78 42 L 79.956 44.500 79.978 41.615 L 80 38.730 82.119 41.424 L 84.238 44.118 81.869 46.647 C 79.778 48.879, 79.525 50.017, 79.717 56.338 C 79.836 60.277, 79.479 65.534, 78.922 68.021 C 78.122 71.598, 78.236 73.320, 79.469 76.271 C 80.326 78.322, 81.471 80, 82.013 80 C 83.784 80, 83.070 81.740, 78.500 88.554 C 76.025 92.245, 74 95.439, 74 95.652 C 74 95.865, 72.848 97.864, 71.440 100.095 C 70.032 102.325, 69.020 105.128, 69.190 106.325 C 69.599 109.193, 77.785 114.619, 83.045 115.508 C 87.237 116.216, 87.783 116.776, 88.238 120.835 C 88.463 122.843, 87.671 123.482, 82.563 125.410 C 78.132 127.083, 76.991 127.886, 78.063 128.576 C 79.919 129.770, 83.310 129.764, 84.173 128.565 C 84.544 128.051, 85.245 129.176, 85.733 131.065 C 86.772 135.097, 89.755 136.046, 93.558 133.554 C 95.160 132.505, 96 132.353, 96 133.115 C 96 134.567, 109.260 133.521, 115.370 131.588 C 117.641 130.869, 121.359 129.765, 123.631 129.136 C 125.904 128.506, 128.315 127.325, 128.990 126.512 C 130.005 125.289, 129.774 124.865, 127.659 124.060 C 121.662 121.780, 98.213 121.038, 96.946 123.088 C 96.582 123.677, 95.793 122.225, 95.193 119.862 C 94.593 117.498, 94.192 115.534, 94.301 115.496 C 94.410 115.458, 96.750 114.654, 99.500 113.709 C 102.250 112.764, 106.582 111.992, 109.128 111.995 C 111.790 111.998, 114.229 111.429, 114.872 110.654 C 115.486 109.914, 117.801 108.492, 120.016 107.493 C 125.358 105.084, 125.943 102.447, 122.634 95.685 C 120.784 91.904, 118.920 89.761, 116.101 88.177 C 112.925 86.392, 111.173 84.119, 107.103 76.501 L 102.049 67.042 104.524 64.567 C 106.978 62.113, 107.947 56.704, 106.134 55.583 C 105.658 55.289, 105.474 53.973, 105.725 52.660 C 106.063 50.892, 105.265 49.382, 102.652 46.845 C 100.068 44.335, 99.371 43.028, 100.046 41.959 C 100.554 41.157, 100.976 38.630, 100.985 36.345 C 100.997 33.024, 100.273 31.316, 97.381 27.845 C 95.391 25.455, 93.253 23.169, 92.631 22.765 C 91.145 21.800, 84.830 21.821, 83.297 22.796 M 84.750 66.571 C 84.338 66.990, 84 68.698, 84 70.367 C 84 72.536, 84.307 73.093, 85.078 72.322 C 85.671 71.729, 86.009 70.021, 85.828 68.526 C 85.648 67.031, 85.162 66.151, 84.750 66.571" stroke="none" fill="black" fill-rule="evenodd"/>
</svg>