<svg xmlns="http://www.w3.org/2000/svg" width="192" height="144" viewBox="0 0 192 144" version="1.1">
	<path d="M 45.131 3.513 C 45.665 5.446, 45.847 7.439, 45.535 7.943 C 44.210 10.087, 34.585 10.162, 28 8.081 C 19.833 5.499, 19.733 5.501, 12.500 8.481 C 9.200 9.840, 5.038 10.963, 3.250 10.976 L 0 11 0 77.505 L 0 144.010 96.250 143.755 L 192.500 143.500 192.675 76.500 C 192.771 39.650, 192.621 10.062, 192.341 10.750 C 191.543 12.715, 188.685 12.239, 181.840 9.001 C 178.353 7.351, 174.528 6.001, 173.339 6.001 C 172.151 6, 168.339 5.116, 164.869 4.036 C 157.471 1.734, 155.171 2.120, 149.224 6.659 C 143.478 11.045, 141.009 11.551, 135.541 9.462 C 131.236 7.818, 131 7.528, 131 3.864 L 131 0 87.581 0 L 44.161 0 45.131 3.513 M 0.472 77.500 C 0.472 114.350, 0.597 129.280, 0.750 110.677 C 0.902 92.075, 0.902 61.925, 0.749 43.677 C 0.597 25.430, 0.472 40.650, 0.472 77.500 M 105.500 84 C 105.160 84.550, 105.359 85, 105.941 85 C 106.523 85, 107 84.550, 107 84 C 107 83.450, 106.802 83, 106.559 83 C 106.316 83, 105.840 83.450, 105.500 84 M 88.500 92 C 88.160 92.550, 88.332 93, 88.882 93 C 89.432 93, 90.160 92.550, 90.500 92 C 90.840 91.450, 90.668 91, 90.118 91 C 89.568 91, 88.840 91.450, 88.500 92 M 96.500 93 C 96.840 93.550, 97.316 94, 97.559 94 C 97.802 94, 98 93.550, 98 93 C 98 92.450, 97.523 92, 96.941 92 C 96.359 92, 96.160 92.450, 96.500 93 M 93.543 104.931 C 93.226 105.443, 93.425 106.144, 93.984 106.490 C 94.543 106.835, 95 106.416, 95 105.559 C 95 103.802, 94.400 103.544, 93.543 104.931 M 86.500 112 C 86.840 112.550, 87.316 113, 87.559 113 C 87.802 113, 88 112.550, 88 112 C 88 111.450, 87.523 111, 86.941 111 C 86.359 111, 86.160 111.450, 86.500 112" stroke="none" fill="black" fill-rule="evenodd"/>
</svg>