<svg xmlns="http://www.w3.org/2000/svg" width="192" height="144" viewBox="0 0 192 144" version="1.1">
	<path d="M 63.938 4.750 C 63.791 15.982, 60.444 30.557, 57.439 33.051 C 56.648 33.707, 56 34.830, 56 35.545 C 56 36.259, 52.962 39.943, 49.250 43.729 C 41.716 51.414, 31.619 56.993, 22 58.787 C 16.441 59.823, 2.840 59.637, 0.999 58.499 C 0.340 58.092, -0 72.528, -0 100.941 L 0 144 53.361 144 L 106.721 144 107.301 139.105 C 107.620 136.413, 109.703 128.876, 111.931 122.355 C 116.673 108.471, 120.868 89.419, 120.604 82.959 C 120.474 79.782, 119.755 77.755, 118.209 76.209 C 116.994 74.994, 116 73.531, 116 72.957 C 116 71.910, 122.506 59.371, 124.021 57.500 C 125.306 55.912, 125.074 55.291, 121.951 51.948 C 120.332 50.215, 119.280 48.356, 119.612 47.818 C 119.945 47.280, 119.268 46.176, 118.108 45.363 C 115.897 43.815, 115.311 39.638, 116.942 37.059 C 117.531 36.129, 117.348 34.641, 116.427 32.859 C 114.433 29.002, 114.634 28, 117.404 28 C 121.715 28, 134.214 32.831, 137.129 35.624 C 138.759 37.185, 140.231 39.878, 140.574 41.925 C 140.903 43.891, 142.037 48.099, 143.094 51.276 C 144.382 55.149, 144.811 58.328, 144.396 60.924 C 144.052 63.078, 144.318 66.434, 144.997 68.491 C 145.668 70.524, 146.169 75.350, 146.110 79.215 C 146.049 83.187, 146.669 88.205, 147.536 90.757 C 149.298 95.949, 148.618 106.239, 146.363 108.494 C 145.614 109.244, 145 110.277, 145 110.790 C 145 111.304, 147.206 117.073, 149.902 123.612 C 152.598 130.150, 155.372 137.423, 156.067 139.772 L 157.330 144.045 174.915 143.772 L 192.500 143.500 192.825 129 C 193.003 121.025, 192.837 88.737, 192.455 57.250 L 191.761 0 127.880 0 L 64 0 63.938 4.750 M 0.459 101 C 0.459 124.925, 0.589 134.713, 0.749 122.750 C 0.908 110.788, 0.908 91.213, 0.749 79.250 C 0.589 67.288, 0.459 77.075, 0.459 101" stroke="none" fill="black" fill-rule="evenodd"/>
</svg>