<svg xmlns="http://www.w3.org/2000/svg" width="192" height="144" viewBox="0 0 192 144" version="1.1">
	<path d="M 0 72 L 0 144 42.648 144 L 85.296 144 84.691 135.250 C 84.358 130.438, 83.166 123.351, 82.043 119.503 C 79.552 110.970, 79.499 106.729, 81.819 101.500 C 82.795 99.300, 84.236 95.475, 85.021 93 C 85.806 90.525, 87.272 87.602, 88.277 86.505 C 89.342 85.342, 89.886 83.674, 89.581 82.505 C 89.213 81.098, 90.048 79.606, 92.382 77.500 C 94.767 75.348, 95.893 73.299, 96.365 70.250 C 96.845 67.152, 96.682 65.995, 95.762 65.980 C 93.823 65.950, 88.070 55.448, 88.691 53.072 C 89.087 51.558, 88.582 50.791, 86.720 50.084 C 83.011 48.674, 80.403 41.339, 81.947 36.661 C 85.027 27.327, 91.284 22.452, 103.314 20.011 C 112.448 18.158, 117.972 19.907, 125.046 26.894 C 133.284 35.030, 134.328 39.671, 134.518 69 C 134.598 81.375, 135.177 102.300, 135.804 115.500 C 136.431 128.700, 136.956 140.520, 136.972 141.766 L 137 144.032 164.750 143.766 L 192.500 143.500 192.757 71.750 L 193.013 0 96.507 0 L 0 0 0 72 M 0.474 72.500 C 0.474 112.100, 0.598 128.154, 0.750 108.176 C 0.901 88.198, 0.901 55.798, 0.750 36.176 C 0.598 16.554, 0.474 32.900, 0.474 72.500" stroke="none" fill="black" fill-rule="evenodd"/>
</svg>