<svg xmlns="http://www.w3.org/2000/svg" width="192" height="144" viewBox="0 0 192 144" version="1.1">
	<path d="M 2 73.944 C -0.137 74.567, 0.300 74.828, 5 75.742 C 8.025 76.330, 13.875 77.334, 18 77.973 C 22.125 78.612, 35.850 81.194, 48.500 83.711 C 76.010 89.183, 80.002 89.865, 79.995 89.091 C 79.992 88.766, 76.054 87.490, 71.245 86.257 C 66.435 85.023, 59.125 83.065, 55 81.906 C 50.875 80.748, 45.925 79.418, 44 78.952 C 42.075 78.486, 36.900 77.179, 32.500 76.048 C 24.172 73.907, 6.345 72.677, 2 73.944 M 164.500 74.471 C 161.200 75.192, 151.525 78.265, 143 81.300 C 134.475 84.334, 125.792 87.137, 123.703 87.529 C 121.615 87.920, 120.135 88.468, 120.414 88.747 C 121 89.334, 135.054 86.083, 149.500 82.018 C 161.409 78.667, 163.194 78.350, 177.706 77.008 C 183.869 76.437, 189.719 75.652, 190.706 75.263 C 196.166 73.108, 173.821 72.433, 164.500 74.471" stroke="none" fill="black" fill-rule="evenodd"/>
</svg>