<svg xmlns="http://www.w3.org/2000/svg" width="192" height="144" viewBox="0 0 192 144" version="1.1">
	<path d="M -0 72.005 L -0 144.010 96.250 143.755 L 192.500 143.500 192.757 71.750 L 193.013 0 96.507 0 L 0 0 -0 72.005 M 0.474 72.500 C 0.474 112.100, 0.598 128.154, 0.750 108.176 C 0.901 88.198, 0.901 55.798, 0.750 36.176 C 0.598 16.554, 0.474 32.900, 0.474 72.500 M 87.439 34.191 C 86.905 35.873, 87.413 36.938, 89.622 38.771 C 97.155 45.021, 99.144 47.182, 98.619 48.550 C 97.687 50.980, 95.985 50.173, 95.350 47 C 94.714 43.819, 92.968 43.128, 91.138 45.333 C 90.294 46.351, 90.597 47.159, 92.416 48.740 C 96.003 51.859, 96.530 56.041, 93.968 61.064 L 91.812 65.289 82.656 64.670 C 77.620 64.330, 69.900 63.741, 65.500 63.362 C 58.113 62.725, 57.605 62.800, 58.872 64.336 C 59.627 65.251, 61.058 66, 62.051 66 C 63.044 66, 64.452 66.563, 65.179 67.250 C 65.905 67.938, 68.157 68.532, 70.182 68.572 C 72.408 68.616, 75.473 69.709, 77.932 71.336 C 82.501 74.360, 83.493 73.329, 79.250 69.966 L 76.500 67.786 84.839 68.154 C 91.490 68.448, 93.449 68.894, 94.517 70.354 C 95.477 71.668, 96.938 72.120, 99.678 71.953 C 106.165 71.558, 107 71.830, 107 74.333 C 107 76.259, 107.524 76.667, 110 76.667 C 112.451 76.667, 113 76.252, 113 74.400 C 113 71.659, 116.867 70.845, 121.500 72.611 C 123.150 73.239, 126.744 74.078, 129.487 74.474 C 132.230 74.870, 135.758 75.858, 137.328 76.669 C 139.868 77.983, 140.373 77.973, 141.920 76.573 C 142.875 75.708, 144.635 75, 145.829 75 C 147.587 75, 148 74.414, 148 71.922 C 148 69.611, 146.948 67.833, 143.785 64.793 L 139.569 60.743 132.457 61.344 C 128.462 61.682, 124.933 61.533, 124.405 61.005 C 123.888 60.488, 121.715 59.702, 119.576 59.257 C 114.554 58.214, 113.107 56.037, 115.037 52.431 C 116.378 49.926, 116.320 49.625, 114.241 48.244 C 113.008 47.426, 112 45.994, 112 45.063 C 112 44.115, 110.470 42.641, 108.521 41.712 C 106.058 40.537, 105.220 39.590, 105.650 38.469 C 105.985 37.598, 106.763 37.093, 107.379 37.347 C 111.360 38.986, 111.996 39.126, 111.964 38.357 C 111.944 37.886, 110.296 36.263, 108.303 34.750 C 104.305 31.717, 99.921 31.185, 98 33.500 C 97.315 34.325, 95.958 35, 94.985 35 C 94.011 35, 92.955 34.325, 92.638 33.500 C 91.760 31.211, 88.236 31.680, 87.439 34.191 M 107.638 53.500 C 107.955 54.325, 108.616 55, 109.107 55 C 109.598 55, 110 54.325, 110 53.500 C 110 52.675, 109.339 52, 108.531 52 C 107.637 52, 107.288 52.586, 107.638 53.500 M 97.122 59.990 C 94.530 64.963, 94.888 65.910, 98.389 63.348 C 101.645 60.966, 102.159 59.599, 100.600 57.467 C 99.466 55.917, 99.111 56.174, 97.122 59.990 M 120.500 62 C 120.840 62.550, 121.541 63, 122.059 63 C 122.577 63, 123 62.550, 123 62 C 123 61.450, 122.298 61, 121.441 61 C 120.584 61, 120.160 61.450, 120.500 62" stroke="none" fill="black" fill-rule="evenodd"/>
</svg>