<svg xmlns="http://www.w3.org/2000/svg" width="192" height="144" viewBox="0 0 192 144" version="1.1">
	<path d="M 98.327 77.353 C 96.772 78.647, 93.752 80.527, 91.615 81.531 C 89.205 82.663, 86.610 85.091, 84.779 87.928 C 82.055 92.147, 81.868 93.020, 82.355 99.242 C 83.044 108.049, 88.516 118.904, 94.445 123.226 C 97.910 125.752, 99.185 126.118, 103.208 125.742 C 106.127 125.469, 109.167 124.361, 111.208 122.827 C 115.231 119.803, 118 118.701, 118 120.124 C 118 121.705, 121.764 126.191, 122.326 125.281 C 122.594 124.849, 122.174 122.696, 121.394 120.497 L 119.975 116.500 124.941 112 C 127.672 109.525, 130.408 106.155, 131.020 104.510 C 133.880 96.827, 127.061 85.368, 115.559 78.532 C 108.215 74.166, 102.615 73.783, 98.327 77.353" stroke="none" fill="black" fill-rule="evenodd"/>
</svg>