<svg xmlns="http://www.w3.org/2000/svg" width="192" height="144" viewBox="0 0 192 144" version="1.1">
	<path d="M 132.930 6.160 C 130.145 6.904, 129.087 7.870, 128.116 10.557 C 127.077 13.428, 126.377 14, 123.903 14 C 117.846 14, 109.056 20.093, 106.889 25.792 C 105.357 29.822, 105.868 35.562, 108 38.273 C 110.457 41.396, 110.511 42.610, 108.250 43.895 C 106.738 44.754, 106.680 45.182, 107.819 47.042 C 108.545 48.226, 108.936 49.397, 108.689 49.645 C 108.441 49.892, 108.795 51.986, 109.474 54.297 C 110.608 58.152, 111.033 58.541, 114.605 59 C 118.265 59.470, 118.519 59.723, 118.806 63.185 C 119.070 66.354, 118.580 67.366, 115.306 70.414 C 113.213 72.363, 110.705 74.225, 109.733 74.551 C 108.761 74.878, 107.308 76.575, 106.503 78.323 C 105.699 80.070, 104.625 82.175, 104.117 83 C 103.609 83.825, 102.660 86.525, 102.008 89 C 101.357 91.475, 99.877 95.382, 98.719 97.683 L 96.615 101.866 93.807 95.212 C 92.043 91.030, 91 86.772, 91 83.751 L 91 78.944 97.750 79.598 C 106.023 80.398, 105.227 78.808, 96.515 77.127 C 92.349 76.324, 89.804 75.189, 88.140 73.396 C 85.632 70.690, 84.753 70.639, 73.750 72.563 C 69.641 73.282, 68.876 74.473, 72 75.290 C 73.100 75.577, 74 76.574, 74 77.505 C 74 78.436, 75.299 80.411, 76.887 81.894 C 78.945 83.817, 80.121 86.264, 80.983 90.420 C 81.649 93.626, 83.051 98.742, 84.099 101.789 C 85.148 104.836, 85.794 107.539, 85.536 107.797 C 85.278 108.055, 83.543 106.928, 81.680 105.292 C 79.817 103.656, 75.414 100.434, 71.896 98.130 C 68.378 95.827, 62.575 90.585, 59 86.482 C 55.425 82.379, 51.712 79.017, 50.750 79.011 C 49.788 79.005, 49 78.550, 49 78 C 49 76.053, 46.206 77.036, 44.548 79.567 C 42.646 82.470, 42.569 82.317, 49.750 89.881 C 52.088 92.343, 54.051 95.065, 54.113 95.929 C 54.175 96.793, 55.862 100.616, 57.863 104.426 L 61.500 111.351 70.994 113.700 C 78.721 115.611, 80.899 116.575, 82.704 118.881 C 83.923 120.439, 87.846 123.620, 91.423 125.950 C 97.860 130.144, 97.909 130.210, 96.337 132.609 C 94.974 134.689, 94.927 135.667, 96.004 139.516 L 97.260 144 122.630 144 C 150.929 144, 150.932 143.999, 144.570 137.636 C 140.604 133.671, 139 127.264, 139 115.388 C 139 109.837, 138.593 107.736, 137.260 106.403 C 135.606 104.749, 135.665 104.699, 138.427 105.392 C 141.425 106.145, 150 104.210, 150 102.782 C 150 102.352, 150.891 102, 151.981 102 C 153.260 102, 154.184 101.114, 154.589 99.500 C 155.366 96.405, 156.223 96.332, 157.546 99.250 C 158.202 100.694, 158.240 102.856, 157.653 105.286 C 156.571 109.767, 157.402 111.113, 159.592 108.427 C 161.140 106.529, 161.154 106.529, 160.531 108.463 C 160.184 109.542, 160.206 113.936, 160.580 118.227 C 161.172 125.007, 161.457 125.866, 162.760 124.784 C 164.059 123.706, 164.165 123.972, 163.551 126.770 C 162.868 129.877, 164.092 131.278, 165.500 129 C 166.781 126.927, 168.144 128.073, 167.581 130.750 C 166.462 136.077, 169.923 137.531, 172.096 132.648 C 172.870 130.907, 172.964 131.164, 172.590 134 C 172.337 135.925, 171.819 138.963, 171.439 140.750 L 170.750 144 181.375 144 L 192 144 192 111.072 L 192 78.145 186.004 74.502 C 178.589 69.998, 170.231 62.445, 165.440 55.918 L 161.809 50.972 159.832 53.486 C 158.745 54.869, 157.540 56, 157.155 56 C 156.009 56, 154.208 43.820, 154.708 39.450 C 155.326 34.054, 152.595 25.023, 148.963 20.453 C 146.842 17.784, 146.189 16.094, 146.618 14.384 C 147.077 12.559, 146.407 11.207, 143.707 8.507 C 140.048 4.848, 138.833 4.584, 132.930 6.160 M 152 54.718 C 152 59.405, 152.835 62.220, 154.010 61.494 C 154.994 60.885, 154.077 52.859, 152.874 51.550 C 152.363 50.995, 152 52.312, 152 54.718 M 134.192 118.979 C 134.592 124.510, 135.380 126.953, 136.427 125.906 C 136.662 125.672, 136.599 122.672, 136.288 119.240 C 135.556 111.170, 133.610 110.928, 134.192 118.979" stroke="none" fill="black" fill-rule="evenodd"/>
</svg>