<svg xmlns="http://www.w3.org/2000/svg" width="192" height="144" viewBox="0 0 192 144" version="1.1">
	<path d="M 0 18.059 C 0 28.519, 0.379 35.884, 0.901 35.561 C 2.472 34.590, 13.257 24.581, 14.911 22.558 C 19.898 16.461, 29.337 7.800, 34.949 4.170 L 41.398 0 20.699 0 L 0 0 0 18.059 M 129.869 6.679 C 137.137 14.731, 145.227 30.289, 147.522 40.626 C 148.392 44.546, 150.206 49.246, 151.552 51.070 C 153.323 53.471, 154 55.675, 154 59.039 C 154 65.465, 158.362 69.238, 161.807 65.793 C 163.308 64.292, 165.837 66.464, 166.127 69.504 C 166.730 75.839, 166.039 77.082, 157.340 85.310 C 152.577 89.814, 147.739 94.572, 146.590 95.883 C 139.933 103.475, 130.850 112.016, 126.500 114.775 C 123.750 116.520, 120.941 118.424, 120.258 119.006 C 117.783 121.115, 103.874 126.364, 93.697 129.031 C 84.307 131.491, 58.840 128.783, 54.550 124.867 C 54.028 124.390, 52.851 124, 51.935 124 C 51.019 124, 49.060 123.049, 47.582 121.886 C 44.661 119.588, 42.926 120.001, 45 122.500 C 46.022 123.731, 46.051 125.467, 45.143 130.967 C 43.735 139.492, 43.732 140, 45.096 140 C 45.698 140, 47.459 140.903, 49.010 142.007 C 51.775 143.976, 53.139 144.009, 122.164 143.757 L 192.500 143.500 192.820 122 C 192.997 110.175, 192.831 77.888, 192.452 50.250 L 191.762 0 157.802 0 L 123.841 -0 129.869 6.679 M 1.077 98.750 L 1 144 20.500 144 L 40 144 40 141 C 40 139.350, 39.602 138, 39.115 138 C 37.744 138, 36.724 127.384, 37.887 125.212 C 38.729 123.639, 38.209 122.639, 34.868 119.406 C 29.149 113.871, 21.649 104.258, 19.053 99.134 C 14.068 89.294, 10 72.128, 10 60.928 C 10 56.454, 8.505 55.798, 6.806 59.526 C 5.273 62.892, 3.774 62.186, 2.336 57.420 C 1.383 54.261, 1.139 62.289, 1.077 98.750" stroke="none" fill="black" fill-rule="evenodd"/>
</svg>