<svg xmlns="http://www.w3.org/2000/svg" width="192" height="144" viewBox="0 0 192 144" version="1.1">
	<path d="M 63.950 4.750 C 63.857 13.507, 62.916 21.373, 61.593 24.449 C 56.965 35.211, 54.755 38.597, 48.164 45.021 C 37.676 55.245, 22.907 60.805, 9.648 59.522 C 5.879 59.157, 2.166 58.617, 1.398 58.322 C 0.214 57.868, 0 64.388, 0 100.893 L 0 144 59.856 144 L 119.713 144 120.383 136.787 C 120.752 132.819, 122.209 125.331, 123.622 120.147 C 126.486 109.632, 128.942 95.827, 129.697 86 C 130.155 80.035, 129.982 79.269, 127.598 76.698 C 126.169 75.158, 125.002 73.583, 125.005 73.198 C 125.008 72.814, 126.119 70.700, 127.474 68.500 C 128.829 66.300, 129.952 63.768, 129.969 62.872 C 129.986 61.977, 130.675 60.685, 131.500 60 C 133.766 58.119, 133.320 56.140, 130 53.347 C 128.350 51.958, 127 50.294, 127 49.648 C 127 49.003, 125.987 48.030, 124.750 47.487 C 122.959 46.702, 122.498 45.683, 122.489 42.500 C 122.483 40.300, 121.696 37.387, 120.739 36.027 C 117.277 31.106, 118.071 30.640, 128.647 31.383 C 134.897 31.822, 139.313 32.662, 141.186 33.769 C 144.534 35.747, 153.467 51.640, 154.587 57.614 C 154.980 59.704, 156.307 63.684, 157.536 66.457 C 159.065 69.905, 160.162 75.406, 161.004 83.846 C 162.199 95.841, 162.174 96.273, 160.117 99.055 C 158.953 100.630, 158 102.596, 158 103.424 C 158 104.252, 157.114 105.404, 156.032 105.983 C 153.505 107.335, 153.762 108.075, 163.727 128.189 L 171.500 143.878 182 143.689 L 192.500 143.500 192.825 129 C 193.003 121.025, 192.837 88.737, 192.455 57.250 L 191.761 0 127.880 0 L 64 0 63.950 4.750 M 0.459 101 C 0.459 124.925, 0.589 134.713, 0.749 122.750 C 0.908 110.788, 0.908 91.213, 0.749 79.250 C 0.589 67.288, 0.459 77.075, 0.459 101 M 144.500 79 C 143.604 83.079, 144.777 87.802, 147.729 92 L 150.190 95.500 149.720 88.500 C 149.268 81.772, 147.512 76, 145.919 76 C 145.501 76, 144.862 77.350, 144.500 79" stroke="none" fill="black" fill-rule="evenodd"/>
</svg>