<svg xmlns="http://www.w3.org/2000/svg" width="192" height="144" viewBox="0 0 192 144" version="1.1">
	<path d="M 53.223 14.039 C 51.389 15.707, 49.667 18.447, 49.312 20.260 C 48.964 22.042, 48.131 24.400, 47.462 25.500 C 46.476 27.119, 46.615 28.928, 48.189 35 C 49.798 41.204, 49.950 43.334, 49.067 47.326 C 47.511 54.366, 47.748 57.462, 50 59.500 C 51.100 60.495, 52 60.852, 52 60.292 C 52 58.939, 54.934 59.220, 57.833 60.848 C 60.035 62.086, 60.072 62.263, 58.483 64.018 C 56.967 65.694, 56.951 66.091, 58.318 68.044 C 59.763 70.107, 59.552 70.488, 53.918 76.001 C 50.663 79.186, 48 82.435, 48 83.222 C 48 84.008, 46.882 85.702, 45.515 86.986 C 40.425 91.768, 41.580 99.749, 47.699 102.076 C 50.274 103.055, 50.289 103.121, 49.706 111.372 C 49.137 119.436, 47.393 124.255, 43.280 129.132 C 42.453 130.112, 42.151 131.755, 42.524 133.240 C 42.875 134.637, 42.460 137.357, 41.573 139.480 C 40.708 141.550, 40 143.414, 40 143.622 C 40 143.830, 50.478 144, 63.284 144 L 86.569 144 89.318 138.250 C 90.830 135.088, 92.939 131.375, 94.004 130 L 95.941 127.500 95.322 135.750 L 94.704 144 115.787 144 L 136.870 144 136.390 134.750 C 135.597 119.474, 135.129 117.323, 131.596 112.694 C 127.819 107.746, 126.323 100.806, 128.623 98.898 C 129.420 98.236, 129.786 96.901, 129.455 95.859 C 129.131 94.836, 129.289 94, 129.808 94 C 130.326 94, 130.750 92.856, 130.750 91.458 C 130.750 88.255, 131.827 87.112, 133.039 89.029 C 133.754 90.159, 133.973 89.903, 133.985 87.925 L 134 85.350 144.993 85.803 C 157.384 86.314, 159 85.704, 159 80.514 C 159 75.998, 155.486 72.839, 146.005 68.834 C 140.671 66.580, 137.939 64.852, 137.572 63.500 C 136.654 60.129, 136.941 52, 137.977 52 C 139.833 52, 142.238 47.085, 141.609 44.577 C 140.447 39.947, 137.314 38.351, 121.921 34.545 C 112.077 32.112, 108 34.381, 108 42.296 C 108 44.181, 106.646 48.711, 104.990 52.362 C 102.115 58.703, 101.824 59, 98.490 59 C 96.571 59, 95 58.550, 95 58 C 95 57.450, 95.563 56.986, 96.250 56.969 C 98.183 56.920, 100.844 52.648, 101.918 47.868 C 103.053 42.816, 101.329 37.980, 95.496 29.862 C 93.573 27.185, 92 24.400, 92 23.672 C 92 21.533, 87.946 18.450, 81.234 15.483 C 75.700 13.036, 74.162 12.780, 68.066 13.291 C 62.603 13.749, 61.049 13.571, 60.613 12.435 C 59.741 10.163, 56.778 10.806, 53.223 14.039 M 91.583 56.866 C 91.152 57.563, 91.070 58.403, 91.400 58.733 C 92.295 59.628, 93.271 58.312, 92.787 56.862 C 92.449 55.846, 92.213 55.846, 91.583 56.866 M 79.100 111.750 C 74.742 126.567, 75.354 127.719, 81.473 116.224 C 84.561 110.423, 84.888 109.191, 83.857 107.250 C 83.200 106.013, 82.307 105, 81.873 105 C 81.440 105, 80.191 108.037, 79.100 111.750 M 108 135.777 C 108 138.676, 110.429 143, 112.057 143 C 113.477 143, 113.194 140.210, 111.386 136.401 C 109.431 132.281, 108 132.017, 108 135.777" stroke="none" fill="black" fill-rule="evenodd"/>
</svg>