<svg xmlns="http://www.w3.org/2000/svg" width="192" height="144" viewBox="0 0 192 144" version="1.1">
	<path d="M 13.648 0.760 C 12.971 1.856, 13.473 10.945, 14.862 22.717 C 16.062 32.889, 16.056 32.950, 13.534 36.947 C 10.812 41.258, 10.302 44.450, 12.152 45.594 C 12.785 45.985, 13.847 45.562, 14.512 44.653 C 16.159 42.401, 16.674 42.565, 17.432 45.585 C 18.440 49.603, 17.295 51.581, 12.978 53.277 C 8.326 55.104, 7.765 57, 11.878 57 C 13.460 57, 15.315 57.675, 16 58.500 C 16.685 59.325, 18.011 60, 18.948 60 C 19.885 60, 21.726 61.144, 23.039 62.542 C 24.383 63.972, 26.292 64.956, 27.405 64.792 C 29.046 64.550, 29.397 63.682, 29.469 59.687 C 29.546 55.367, 29.954 54.539, 33.445 51.608 C 36.628 48.935, 37.031 48.226, 35.667 47.703 C 34.750 47.351, 33.325 47.322, 32.500 47.638 C 30.621 48.359, 30.581 46.604, 32.398 43.154 C 35.264 37.709, 36.313 32.453, 35.016 30.029 C 34.008 28.147, 33.230 27.863, 30.353 28.330 C 27.158 28.849, 26.951 28.726, 27.581 26.695 C 28.531 23.636, 31.632 19.213, 36.168 14.449 C 40.432 9.971, 42.575 4.641, 40.665 3.264 C 40.024 2.802, 38.150 2.283, 36.500 2.110 C 34.850 1.938, 32.742 1.392, 31.816 0.898 C 29.774 -0.191, 14.309 -0.309, 13.648 0.760 M 96 72 L 96 144 129.422 144 L 162.845 144 163.956 140.633 C 165.537 135.841, 167.014 121.661, 166.035 120.657 C 165.584 120.193, 164.027 120.592, 162.576 121.542 C 159.502 123.557, 159.135 123.357, 158.692 119.428 C 158.511 117.817, 157.789 115.440, 157.089 114.143 C 156.052 112.224, 155.269 111.896, 152.870 112.376 C 148.951 113.160, 148.211 111.077, 150.558 105.872 C 151.777 103.167, 153.597 101.226, 156.118 99.940 C 160.723 97.591, 161.064 97.058, 161.270 91.891 C 161.397 88.700, 162 87.391, 163.922 86.131 C 166.956 84.143, 173.115 81.953, 174.049 82.530 C 175.604 83.491, 175.826 91.437, 174.375 94.241 C 172.959 96.981, 173.030 97.270, 175.945 100.591 C 177.625 102.504, 179 105.179, 179 106.535 C 179 107.891, 179.408 109, 179.906 109 C 180.405 109, 180.577 108.100, 180.290 107 C 180.002 105.900, 180.253 105, 180.848 105 C 182.207 105, 183.556 107.534, 184.476 111.816 C 185.120 114.815, 184.785 115.514, 180.962 119.151 L 176.737 123.170 179.381 131.835 C 180.835 136.601, 182.020 141.287, 182.013 142.250 C 182.002 143.685, 182.900 144, 187 144 L 192 144 192 72 L 192 0 144 0 L 96 0 96 72" stroke="none" fill="black" fill-rule="evenodd"/>
</svg>