<svg xmlns="http://www.w3.org/2000/svg" width="192" height="144" viewBox="0 0 192 144" version="1.1">
	<path d="M 0 72 L 0 144 69.750 143.999 L 139.500 143.998 139.477 136.749 C 139.460 131.441, 138.968 128.776, 137.641 126.794 C 136.643 125.306, 136.121 123.614, 136.479 123.034 C 136.837 122.455, 136.201 120.799, 135.065 119.355 C 130.853 114, 133.336 110.036, 139.988 111.497 C 142.779 112.110, 146.466 110.100, 153.708 104.015 C 154.372 103.457, 155.385 103, 155.958 103 C 156.531 103, 157 101.880, 157 100.511 C 157 99.142, 157.872 95.726, 158.938 92.921 C 160.262 89.438, 160.604 87.137, 160.020 85.661 C 159.549 84.472, 157.933 79.555, 156.429 74.732 C 154.925 69.910, 153.201 65.302, 152.597 64.492 C 151.992 63.680, 149.930 63.023, 148 63.029 C 146.075 63.035, 142.925 63.038, 141 63.037 C 139.075 63.035, 135.659 63.735, 133.409 64.592 C 127.057 67.012, 123.093 66.193, 120.853 62 C 118.952 58.441, 117.004 57.489, 116.250 59.750 C 116.021 60.437, 116.433 61, 117.167 61 C 118.153 60.999, 118.458 62.627, 118.338 67.250 C 118.181 73.336, 118.102 73.508, 115.338 73.793 C 112.513 74.084, 112.499 74.056, 112.268 67.841 C 112.128 64.075, 112.479 61.322, 113.153 60.906 C 113.869 60.463, 113.492 59.799, 112.103 59.055 C 110.094 57.980, 109.982 58.082, 110.576 60.448 C 111.280 63.252, 110.548 63.539, 106.565 62.025 C 101.646 60.154, 104.002 53.552, 110.816 50.115 C 117.995 46.493, 118.452 46.542, 123.511 51.458 C 126.081 53.956, 128.736 56, 129.412 56 C 130.087 56, 132.152 54.650, 134 53 C 135.848 51.350, 137.729 50, 138.180 50 C 138.631 50, 139 49.351, 139 48.557 C 139 46.443, 142.989 44.002, 146.473 43.985 C 151.324 43.960, 152.073 42.971, 151.429 37.440 C 150.692 31.098, 148.007 28.033, 143.660 28.572 C 129.393 30.339, 130.504 30.413, 127.590 27.499 L 124.864 24.773 127.182 22.289 C 128.457 20.923, 131.188 18.940, 133.250 17.882 C 135.313 16.825, 137 15.322, 137 14.543 C 137 13.498, 137.868 13.267, 140.305 13.662 C 142.894 14.082, 144.280 13.635, 146.700 11.599 C 148.399 10.170, 150.242 9, 150.797 9 C 151.351 9, 152.252 7.763, 152.800 6.250 C 153.347 4.738, 154.115 2.712, 154.505 1.750 C 155.177 0.092, 151.122 0, 77.607 0 L 0 0 0 72 M 185.459 2.750 C 186.408 6.608, 188.777 10, 190.523 10 C 191.629 10, 192 8.743, 192 5 L 192 0 188.392 0 C 184.958 0, 184.816 0.133, 185.459 2.750 M 190.737 58.750 C 190.443 64.112, 190.606 68.927, 191.101 69.450 C 191.636 70.016, 192 66.071, 192 59.700 C 192 53.815, 191.836 49, 191.636 49 C 191.436 49, 191.032 53.388, 190.737 58.750 M 114 56.500 C 114 57.325, 114.450 58, 115 58 C 115.550 58, 116 57.325, 116 56.500 C 116 55.675, 115.550 55, 115 55 C 114.450 55, 114 55.675, 114 56.500" stroke="none" fill="black" fill-rule="evenodd"/>
</svg>