<svg xmlns="http://www.w3.org/2000/svg" width="192" height="144" viewBox="0 0 192 144" version="1.1">
	<path d="M 0 72 L 0 144 38.750 143.996 L 77.500 143.992 77.697 132.130 C 77.805 125.606, 78.575 117.331, 79.408 113.741 C 80.498 109.039, 80.653 106.277, 79.961 103.863 C 79.432 102.021, 79.064 98.710, 79.142 96.507 L 79.284 92.500 79.892 96.283 C 80.226 98.364, 80.950 100.065, 81.500 100.064 C 83.056 100.061, 83.290 95.114, 81.893 91.741 C 80.779 89.052, 80.545 88.919, 79.886 90.599 C 79.241 92.243, 79.131 92.165, 79.070 90.022 C 79.002 87.632, 78.894 87.673, 75.977 91.212 C 72.130 95.879, 70.365 96.397, 64.917 94.455 C 62.488 93.590, 58.273 92.453, 55.552 91.929 C 52.831 91.405, 49.631 90.063, 48.442 88.946 C 46.763 87.368, 44.555 86.821, 38.538 86.492 C 34.280 86.260, 29.964 85.806, 28.949 85.484 C 26.291 84.640, 27.636 82.250, 30.767 82.250 C 32.224 82.250, 33.585 81.744, 33.792 81.125 C 33.998 80.506, 35.217 80, 36.502 80 C 40.677 80, 42.081 79.021, 40.947 76.900 C 40.387 75.855, 39.270 75, 38.465 75 C 36.697 75, 36.623 73.921, 38.161 70.547 C 39.704 67.159, 43.844 67.141, 47.007 70.508 C 49.286 72.933, 49.310 73.127, 47.738 76.423 C 46.365 79.303, 46.332 79.913, 47.525 80.371 C 48.301 80.669, 49.195 80.493, 49.512 79.981 C 50.348 78.627, 54.659 79.483, 61.473 82.356 C 65.657 84.121, 67.813 84.570, 68.672 83.858 C 70.119 82.656, 72.263 76.534, 72.402 73.205 C 72.456 71.917, 73.740 69.432, 75.254 67.682 C 80.783 61.296, 88 52.192, 88 51.604 C 88 51.272, 87.348 51, 86.551 51 C 84.991 51, 80 45.043, 80 43.181 C 80 42.560, 78.705 41.381, 77.121 40.563 C 74.039 38.969, 73 37.199, 73 33.540 C 73 30.491, 75.484 24.673, 77.500 23 C 78.508 22.163, 79 20.503, 78.808 18.580 C 78.509 15.586, 78.633 15.486, 83.267 15 C 87.327 14.574, 88.326 14.018, 90.002 11.250 C 91.177 9.310, 92.783 8, 93.985 8 C 95.093 8, 96 7.550, 96 7 C 96 6.450, 96.891 6, 97.980 6 C 100.924 6, 106.228 15.510, 105.614 19.688 C 105.320 21.688, 105.663 23.306, 106.535 24.029 C 109.280 26.307, 112.215 36.750, 114.001 50.587 C 115.442 61.759, 116.559 66.464, 119.399 73.324 C 122.387 80.543, 123.016 83.342, 123.200 90.237 C 123.486 100.990, 122.080 113.977, 120.360 116.473 C 119.612 117.557, 119 119.623, 119 121.064 C 119 122.504, 118.335 125.891, 117.522 128.591 C 116.556 131.797, 116.257 135.326, 116.661 138.762 L 117.278 144.024 154.889 143.762 L 192.500 143.500 192.757 71.750 L 193.013 0 96.507 0 L 0 0 0 72 M 0.474 72.500 C 0.474 112.100, 0.598 128.154, 0.750 108.176 C 0.901 88.198, 0.901 55.798, 0.750 36.176 C 0.598 16.554, 0.474 32.900, 0.474 72.500" stroke="none" fill="black" fill-rule="evenodd"/>
</svg>