<svg xmlns="http://www.w3.org/2000/svg" width="192" height="144" viewBox="0 0 192 144" version="1.1">
	<path d="M 0 72 L 0 144 10.500 144 L 21 144 21 75.125 C 21 37.244, 21.281 4.844, 21.625 3.125 L 22.250 0 11.125 0 L 0 0 0 72 M 85 0.938 C 85 2.982, 88.162 15.724, 89.570 19.350 C 90.762 22.422, 90.855 24.330, 90.032 28.784 C 89.464 31.855, 89 36.304, 89 38.671 L 89 42.974 81.250 42.439 C 76.987 42.144, 72.245 41.708, 70.712 41.469 C 68.714 41.158, 67.743 41.526, 67.286 42.767 C 66.934 43.720, 65.602 45.892, 64.324 47.594 C 61.572 51.259, 61.410 52.164, 63.659 51.301 C 65.064 50.762, 65.218 51.158, 64.672 53.891 L 64.027 57.117 67.015 54.989 C 68.659 53.819, 70.469 51.992, 71.037 50.930 C 72.249 48.666, 75.439 48.549, 87.488 50.332 C 93.963 51.290, 95.544 51.868, 95.836 53.388 C 96.364 56.129, 93.963 60, 91.735 60 C 84.779 60, 76 64.813, 76 68.627 C 76 70.497, 86.625 76, 90.237 76 C 93.082 76, 93.808 76.573, 95.861 80.444 C 97.157 82.888, 98.986 85.583, 99.925 86.432 C 102.033 88.340, 107.061 89.348, 108.771 88.205 C 110.580 86.997, 114.243 76.581, 113.005 76.168 C 111.579 75.693, 111.757 71.427, 113.250 70.309 C 113.938 69.794, 117.763 68.125, 121.750 66.598 C 125.763 65.062, 129 63.225, 129 62.483 C 129 59.719, 125.904 58, 120.929 58 C 115.461 58, 115.551 58.080, 117.132 54.610 C 118.147 52.382, 118.481 52.262, 120.382 53.443 C 122.770 54.927, 130.008 56.242, 129.985 55.187 C 129.976 54.809, 129.584 53.891, 129.112 53.148 C 128.564 52.282, 129.093 50.296, 130.582 47.632 C 131.861 45.343, 132.592 42.981, 132.204 42.385 C 131.074 40.643, 126.964 38.800, 125.480 39.369 C 124.448 39.765, 124.558 38.864, 125.935 35.652 C 128.299 30.136, 127.481 24.930, 123.795 22.044 C 120.773 19.677, 119.182 20.141, 113.658 25 C 111.026 27.315, 110.834 27.352, 111.062 25.500 C 111.197 24.400, 110.944 22.658, 110.500 21.628 C 109.740 19.866, 109.586 19.895, 107.868 22.128 C 106.865 23.433, 106.034 23.907, 106.022 23.183 C 106.010 22.459, 107.228 20.256, 108.729 18.289 C 110.230 16.321, 112.897 11.401, 114.657 7.355 L 117.855 0 101.427 0 C 91.867 0, 85 0.392, 85 0.938 M 171 72 L 171 144 181.500 144 L 192 144 192 72 L 192 0 181.500 0 L 171 0 171 72" stroke="none" fill="black" fill-rule="evenodd"/>
</svg>