<svg xmlns="http://www.w3.org/2000/svg" width="192" height="144" viewBox="0 0 192 144" version="1.1">
	<path d="M 0 72 L 0 144 42.481 144 L 84.962 144 85.500 141.750 C 85.797 140.512, 86.445 134.325, 86.940 128 C 87.691 118.427, 87.604 116.366, 86.421 115.700 C 84.805 114.791, 84.518 110.882, 85.962 109.438 C 87.675 107.725, 88.982 91.766, 87.792 87.080 C 86.981 83.885, 87.039 81.091, 88.025 75.867 C 88.747 72.040, 89.712 68.678, 90.169 68.396 C 92.359 67.042, 90.689 63.312, 86.469 60.133 C 82.507 57.148, 82 56.321, 82 52.838 C 82 48.318, 84.879 44.784, 90.462 42.452 C 96.552 39.907, 102.799 43.842, 105.453 51.894 C 110.061 65.875, 112.110 80.206, 112.618 102 C 112.995 118.188, 113.631 126.036, 115.192 133.762 L 117.266 144.024 154.883 143.762 L 192.500 143.500 192.519 71.500 C 192.530 31.900, 192.410 12.629, 192.254 28.676 L 191.970 57.852 189.226 57.065 C 178.908 54.106, 165.454 42.692, 160.861 33 C 156.012 22.770, 154.564 16.989, 154.662 8.250 L 154.754 0 77.377 0 L 0 0 0 72 M 0.474 72.500 C 0.474 112.100, 0.598 128.154, 0.750 108.176 C 0.901 88.198, 0.901 55.798, 0.750 36.176 C 0.598 16.554, 0.474 32.900, 0.474 72.500" stroke="none" fill="black" fill-rule="evenodd"/>
</svg>