<svg xmlns="http://www.w3.org/2000/svg" width="192" height="144" viewBox="0 0 192 144" version="1.1">
	<path d="M 113 12.996 C 113 13.583, 113.675 14.322, 114.500 14.638 C 117.424 15.761, 115.951 16.879, 112.934 15.827 C 107.955 14.091, 100.338 15.302, 97.176 18.331 C 94.889 20.522, 93.842 20.849, 90.723 20.342 C 87.747 19.859, 87 20.054, 87 21.312 C 87 22.178, 87.933 23.540, 89.073 24.339 C 90.300 25.198, 90.726 26.051, 90.117 26.428 C 89.551 26.778, 89.323 27.679, 89.612 28.431 C 89.900 29.183, 89.658 30.093, 89.073 30.455 C 88.381 30.882, 88.881 32.747, 90.505 35.798 C 92.930 40.353, 94.011 49, 92.155 49 C 91.690 49, 90.453 48.049, 89.405 46.887 C 87.744 45.045, 86.705 44.837, 81.296 45.268 C 70.537 46.125, 64.600 51.688, 68.344 57.402 C 70.597 60.841, 75.516 63.242, 80.174 63.178 C 82.278 63.149, 84 63.515, 84 63.991 C 84 65.704, 87.191 68, 89.571 68 C 90.913 68, 92 68.589, 92 69.316 C 92 72.483, 89.693 82.694, 88.422 85.151 C 87.362 87.201, 87.319 87.940, 88.240 88.247 C 88.992 88.497, 89.338 90.194, 89.156 92.727 C 88.994 94.970, 89.307 97.636, 89.851 98.652 C 92.204 103.044, 93.273 117.331, 92.126 129.076 C 91.507 135.417, 91 141.370, 91 142.303 C 91 143.845, 92.907 144, 111.849 144 L 132.697 144 131.852 138.250 C 131.387 135.088, 130.123 127.325, 129.043 121 C 127.964 114.675, 126.592 105.450, 125.994 100.500 C 125.397 95.550, 124.436 88.449, 123.859 84.720 C 122.467 75.730, 122.975 74.418, 127.032 76.517 C 133.346 79.782, 137.745 74.623, 134.024 68.316 C 131.441 63.939, 131.477 63.234, 134.503 58.780 L 137.007 55.096 130.768 50.048 C 127.336 47.272, 123.510 45, 122.264 45 C 119.022 45, 119.364 41.984, 123 38.500 C 124.650 36.919, 126 35.035, 126 34.313 C 126 33.591, 126.675 33, 127.500 33 C 129.967 33, 129.215 31.020, 125.500 27.731 C 123.465 25.929, 122 23.695, 122 22.393 C 122 21.161, 120.826 18.759, 119.392 17.054 C 116.393 13.490, 113 11.336, 113 12.996" stroke="none" fill="black" fill-rule="evenodd"/>
</svg>