<svg xmlns="http://www.w3.org/2000/svg" width="192" height="144" viewBox="0 0 192 144" version="1.1">
	<path d="M 0 72.012 L 0 144 3.422 144 C 6.438 144, 6.980 143.590, 7.984 140.549 C 8.769 138.169, 8.808 136.509, 8.107 135.199 C 7.338 133.763, 7.604 132.351, 9.198 129.401 C 10.561 126.876, 11.271 123.830, 11.209 120.768 C 11.143 117.465, 11.581 115.774, 12.659 115.171 C 14.559 114.108, 18.225 104.490, 18.145 100.781 C 18.098 98.625, 18.956 97.541, 22.293 95.541 C 26.173 93.215, 26.296 93.018, 23.872 93.009 C 22.427 93.004, 20.668 93.695, 19.962 94.546 C 19.257 95.396, 18.089 95.864, 17.367 95.587 C 16.645 95.310, 15.396 96.024, 14.591 97.173 C 13.616 98.566, 12.545 99.040, 11.382 98.593 C 10.170 98.128, 8.950 98.776, 7.393 100.712 C 5.700 102.816, 4.862 103.219, 3.981 102.356 C 3.338 101.727, 2.967 100.425, 3.156 99.463 C 3.494 97.746, 3.938 97.414, 9.028 95.065 C 12.122 93.638, 15.391 87.543, 17.453 79.356 C 19.509 71.189, 19.449 69, 17.167 69 C 14.254 69, 14.009 68.032, 16.068 64.656 C 18.517 60.641, 18.500 57.901, 16 53 C 13.418 47.939, 13.366 38.992, 15.886 33.444 C 19.852 24.712, 30.349 18.792, 44.159 17.499 L 51.817 16.782 52.952 12.275 C 54.064 7.858, 54.127 7.805, 56.076 9.569 C 57.170 10.558, 58.987 12.861, 60.114 14.684 C 61.241 16.508, 62.786 18, 63.547 18 C 65.748 18, 71.938 23.958, 74.062 28.122 C 75.132 30.219, 76.493 34.200, 77.087 36.969 C 78.242 42.355, 80.767 45, 84.754 45 C 87.961 45, 88.577 47.451, 86.146 50.541 C 85.021 51.972, 83.369 55.659, 82.474 58.737 C 81.492 62.117, 79.873 65.098, 78.386 66.268 C 76.528 67.730, 76.191 68.525, 77.011 69.513 C 77.608 70.233, 77.709 71.062, 77.234 71.356 C 76.759 71.649, 76.718 75.139, 77.142 79.110 C 77.566 83.081, 77.677 86.714, 77.387 87.183 C 77.097 87.652, 75.738 87.152, 74.366 86.073 C 71.710 83.984, 70.150 84.184, 65.846 87.163 C 64.386 88.173, 62.361 89.014, 61.346 89.030 C 58.050 89.085, 61.967 90.718, 71.018 93.065 C 82.071 95.930, 82.866 96.508, 83.626 102.239 C 84.319 107.461, 84.584 107.680, 87.635 105.543 C 91.169 103.068, 104.127 99.999, 110.980 100.015 C 134.223 100.067, 156.664 115.162, 166.565 137.403 L 169.500 143.997 181 143.748 L 192.500 143.500 192.757 71.748 L 193.013 -0.004 96.507 0.010 L 0 0.024 0 72.012 M 0.474 72.500 C 0.474 112.100, 0.598 128.154, 0.750 108.176 C 0.901 88.198, 0.901 55.798, 0.750 36.176 C 0.598 16.554, 0.474 32.900, 0.474 72.500 M 132.223 70.557 C 131 71.413, 130 72.538, 130 73.057 C 130 74.426, 136.385 74.215, 137.800 72.800 C 141.204 69.396, 136.551 67.525, 132.223 70.557 M 72.697 137.750 C 72.466 138.162, 71.981 139.738, 71.619 141.250 C 71.122 143.332, 71.331 144, 72.481 144 C 73.550 144, 74 142.964, 74 140.500 C 74 137.110, 73.568 136.198, 72.697 137.750" stroke="none" fill="black" fill-rule="evenodd"/>
</svg>