<svg xmlns="http://www.w3.org/2000/svg" width="192" height="144" viewBox="0 0 192 144" version="1.1">
	<path d="M 0 72 L 0 144 15.563 144 L 31.127 144 30.813 140.750 C 30.521 137.719, 30.223 137.480, 26.387 137.199 C 23.104 136.959, 22.041 136.385, 21.116 134.354 C 20.063 132.044, 19.498 131.842, 14.978 132.155 L 9.999 132.500 9.999 128.309 C 10 126.004, 10.450 123.840, 11 123.500 C 11.550 123.160, 12 122.271, 12 121.524 C 12 120.777, 14.097 116.641, 16.661 112.333 C 23.659 100.570, 30.872 84.773, 31.487 79.860 C 31.884 76.691, 31.774 76.047, 31.087 77.500 C 30.298 79.167, 30.129 78.875, 30.070 75.750 C 29.967 70.235, 28.695 71.169, 26.666 78.250 C 24.838 84.631, 24.713 85.642, 25.214 89.982 C 25.434 91.887, 25.036 92.468, 23.500 92.482 C 21.866 92.497, 21.444 93.277, 21.193 96.750 C 20.797 102.214, 18.487 102.447, 17.633 97.109 C 17.234 94.611, 17.546 91.937, 18.506 89.641 C 20.374 85.170, 20.370 83.927, 18.496 86.403 C 17.197 88.119, 16.992 88.144, 16.421 86.654 C 15.879 85.241, 15.496 85.371, 13.779 87.553 C 12.675 88.957, 11.527 89.861, 11.228 89.561 C 10.929 89.262, 10.031 89.559, 9.234 90.221 C 6.403 92.571, 4.869 88.390, 5.118 79 C 5.333 70.862, 5.573 70.056, 10.740 60.080 L 16.136 49.660 15.435 39.774 C 14.885 32.018, 14.440 30.001, 13.367 30.413 C 9.718 31.813, 7.403 27.570, 10.441 25.049 C 12.577 23.276, 11.293 21.252, 7.162 19.885 C 2.119 18.216, 5.098 17.488, 10.631 19.037 C 13.995 19.979, 15.394 20.006, 16.255 19.145 C 16.885 18.515, 18.435 18, 19.700 18 C 21.864 18, 22.438 18.888, 22.088 21.692 C 21.986 22.507, 23.038 22.706, 25.415 22.320 C 31.792 21.285, 33.526 22.384, 36.013 29.034 C 37.839 33.917, 38.064 35.564, 37.173 37.519 C 36.150 39.766, 36.691 40.566, 44.535 48.392 L 53.002 56.840 51.844 61.856 C 50.210 68.936, 51.729 76.719, 59.096 99 C 66.148 120.326, 67.840 131.281, 64.257 132.419 C 63.161 132.766, 61.460 133.940, 60.477 135.026 C 59.131 136.513, 57.397 137, 53.452 137 C 48.027 137, 47 137.809, 47 142.082 C 47 143.936, 48.161 144, 81.813 144 L 116.627 144 116.720 137.750 C 116.771 134.313, 117.530 129.827, 118.406 127.782 C 120.611 122.639, 120.402 119.726, 117.644 117.135 C 116.348 115.917, 114.044 112.464, 112.524 109.461 C 111.005 106.457, 109.478 103.995, 109.131 103.989 C 108.784 103.982, 107.668 102.070, 106.651 99.739 C 102.957 91.269, 101.593 88.871, 98.822 85.971 C 97.270 84.347, 96 82.636, 96 82.170 C 96 80.944, 91.033 78.862, 89.851 79.592 C 89.302 79.932, 87.760 79.184, 86.426 77.930 C 85.092 76.677, 84 76.010, 84 76.448 C 84 76.886, 83.291 76.656, 82.424 75.937 C 81.118 74.853, 80.673 74.875, 79.829 76.064 C 78.986 77.253, 78.900 77.220, 79.328 75.872 C 79.611 74.976, 79.494 73.851, 79.066 73.372 C 78.204 72.405, 75.624 64.423, 74.421 59 C 73.661 55.574, 73.178 42.829, 72.726 14.249 L 72.500 -0.001 36.250 -0.001 L 0 0 0 72 M 190.667 89.667 C 189.597 90.736, 189.900 107.820, 191 108.500 C 191.641 108.896, 192 105.510, 192 99.059 C 192 89.005, 191.916 88.417, 190.667 89.667 M 191.272 116 C 191.272 118.475, 191.467 119.487, 191.706 118.250 C 191.944 117.013, 191.944 114.987, 191.706 113.750 C 191.467 112.513, 191.272 113.525, 191.272 116 M 152.350 140 C 152.693 141.375, 152.979 142.838, 152.986 143.250 C 152.994 143.662, 153.480 144, 154.067 144 C 155.288 144, 154.345 140.057, 152.752 138.500 C 152.057 137.821, 151.928 138.303, 152.350 140 M 162 140.899 L 162 144 169 144 C 174.428 144, 176 143.676, 176 142.559 C 176 140.181, 173.651 139.153, 166.250 138.293 C 162.058 137.805, 162 137.841, 162 140.899 M 38.738 140.126 C 36.115 141.595, 36.588 144, 39.500 144 C 41.983 144, 42.652 142.574, 41.223 140.327 C 40.711 139.522, 39.931 139.459, 38.738 140.126" stroke="none" fill="black" fill-rule="evenodd"/>
</svg>