<svg xmlns="http://www.w3.org/2000/svg" width="192" height="144" viewBox="0 0 192 144" version="1.1">
	<path d="M 110.767 2.506 C 108.805 4.467, 108.237 6.100, 108.148 10.021 C 107.835 23.911, 95.804 30.913, 74.339 29.698 C 68.483 29.366, 62.957 29.488, 62.059 29.968 C 61.084 30.490, 60.476 31.980, 60.548 33.671 L 60.670 36.500 71.503 37.228 C 84.495 38.102, 93.605 36.543, 101.479 32.098 L 106.725 29.138 107.890 33.027 C 108.531 35.166, 109.445 37.157, 109.921 37.451 C 110.398 37.746, 109.260 40.916, 107.394 44.495 C 105.527 48.075, 104 52.128, 104 53.502 C 104 54.876, 103.541 56, 102.981 56 C 102.401 56, 102.225 57.047, 102.571 58.428 C 102.906 59.763, 102.704 61.675, 102.121 62.678 C 101.265 64.148, 101.055 63.584, 101.030 59.750 C 101.014 57.138, 101.450 55, 102 55 C 103.626 55, 103.080 51.676, 101.056 49.250 C 99.081 46.882, 96.488 46.406, 94.029 47.961 C 92.785 48.748, 92.754 49.432, 93.832 52.412 C 94.842 55.206, 94.852 56.406, 93.880 58.217 C 93.205 59.473, 92.557 62.075, 92.440 64 C 92.069 70.064, 89.877 86.349, 88.928 90.088 C 88.041 93.581, 87.837 93.709, 81.258 94.907 C 71.184 96.741, 64.153 100.617, 60.305 106.459 L 57.110 111.309 61.630 117.062 C 70.344 128.154, 77.383 132.797, 95.367 139.317 L 106.500 143.353 129.632 143.711 L 152.764 144.069 155.968 141.374 C 158.341 139.377, 159.054 138.065, 158.720 136.315 C 158.471 135.016, 158.658 133.711, 159.134 133.417 C 159.610 133.123, 160 133.455, 160 134.155 C 160 136.238, 162.591 132.942, 163.785 129.339 C 164.362 127.601, 164.573 124.238, 164.255 121.867 C 163.752 118.115, 162.619 116.502, 155.533 109.447 C 148.069 102.017, 147.251 100.804, 145.738 94.920 C 144.830 91.389, 144.124 87.266, 144.169 85.758 C 144.214 84.227, 143.074 81.475, 141.586 79.524 C 140.121 77.603, 138.265 74.168, 137.461 71.890 C 135.655 66.772, 135.494 59.665, 137.197 60.232 C 138.572 60.691, 145.621 70.396, 147.015 73.750 C 147.766 75.556, 148.745 76, 151.975 76 C 156.075 76, 156.724 75.073, 156.055 70.164 C 155.726 67.746, 159.390 69.427, 160.069 72.005 C 160.610 74.064, 160.850 74.208, 161.439 72.829 C 162.491 70.368, 167.143 72.278, 169.399 76.098 C 170.387 77.770, 171.410 78.924, 171.672 78.661 C 171.935 78.398, 170.901 76.297, 169.375 73.991 C 167.544 71.224, 164.883 68.960, 161.550 67.334 C 148.437 60.934, 141.007 55.402, 140.994 52.030 C 140.980 48.040, 138.849 43.194, 136.883 42.680 C 135.737 42.380, 135.089 41.664, 135.444 41.090 C 137.357 37.995, 129.687 14.108, 126.097 11.983 C 124.764 11.193, 124.729 10.886, 125.885 10.126 C 128.095 8.673, 126.424 4.746, 122.534 2.250 C 117.902 -0.723, 113.909 -0.636, 110.767 2.506 M 114 60.135 C 114 60.760, 112.875 62.313, 111.500 63.588 C 108.765 66.122, 108.115 71.477, 110.092 75.172 C 111.153 77.154, 111.281 77.120, 114.514 73.986 C 118.522 70.101, 119.465 66.939, 117.967 62.399 C 116.925 59.242, 114 57.573, 114 60.135 M 100.158 70 C 100.158 71.375, 100.385 71.938, 100.662 71.250 C 100.940 70.563, 100.940 69.438, 100.662 68.750 C 100.385 68.063, 100.158 68.625, 100.158 70" stroke="none" fill="black" fill-rule="evenodd"/>
</svg>