<svg xmlns="http://www.w3.org/2000/svg" width="192" height="144" viewBox="0 0 192 144" version="1.1">
	<path d="M 53.892 13.369 C 54.818 14.486, 54.129 14.858, 50.155 15.385 C 45.385 16.018, 42.938 17.712, 41.683 21.250 C 41.281 22.385, 40.018 23, 38.090 23 C 34.543 23, 33.448 24.297, 35.534 26.028 C 36.365 26.718, 36.795 28.071, 36.489 29.036 C 35.912 30.853, 37.752 33.262, 41.078 35.042 C 43.643 36.415, 43.750 44.495, 41.250 48.027 C 40.058 49.711, 39.329 53.212, 38.964 59 C 38.498 66.393, 37.872 68.631, 34.159 76.188 C 30.140 84.366, 29.954 85.116, 30.995 88.982 C 32.231 93.572, 36.072 96.328, 38.227 94.173 C 38.872 93.528, 40.258 93, 41.307 93 C 42.721 93, 43.034 93.452, 42.519 94.750 C 41.052 98.442, 34.873 126.313, 33.661 134.702 L 32.390 143.500 54.342 143.770 C 66.416 143.918, 76.507 143.827, 76.766 143.567 C 77.026 143.308, 76.512 136.661, 75.624 128.798 C 72.835 104.083, 72.065 94.852, 71.779 82.681 C 71.534 72.319, 71.714 70.742, 73.238 69.888 C 76.524 68.047, 77.258 65.246, 75.318 61.961 C 73.433 58.770, 73.371 59.017, 77.716 52.329 C 79.053 50.271, 78.808 49.934, 72.980 45.829 L 66.833 41.500 67.167 31.749 C 67.350 26.386, 67.275 21.994, 67 21.989 C 66.725 21.984, 64.143 19.734, 61.262 16.990 C 58.381 14.245, 55.288 12, 54.390 12 C 53.119 12, 53.008 12.305, 53.892 13.369" stroke="none" fill="black" fill-rule="evenodd"/>
</svg>