<svg xmlns="http://www.w3.org/2000/svg" width="192" height="144" viewBox="0 0 192 144" version="1.1">
	<path d="M 75.483 20.018 C 75.544 20.852, 75.924 22.068, 76.326 22.719 C 76.813 23.506, 75.633 24.329, 72.803 25.177 C 65.610 27.332, 62.912 32.035, 66.557 36.062 C 67.560 37.171, 68.228 40.221, 68.436 44.641 C 68.716 50.593, 68.365 52.309, 65.784 57.619 L 62.810 63.738 65.582 69.399 C 67.256 72.818, 69.373 75.545, 70.927 76.283 C 72.952 77.246, 73.828 78.827, 75.038 83.708 C 75.884 87.119, 76.897 90.230, 77.288 90.621 C 78.607 91.940, 78.015 94.117, 75.197 98.320 C 73.655 100.619, 70.738 106.232, 68.716 110.792 C 65.002 119.166, 61.117 125.418, 56.781 130 C 53.591 133.370, 48 141.603, 48 142.930 C 48 143.664, 56.614 144, 75.421 144 L 102.841 144 103.587 140.750 C 104.544 136.577, 104.226 116.150, 103.092 109 C 102.612 105.975, 101.626 102.049, 100.900 100.275 C 99.814 97.620, 99.810 96.414, 100.880 93.455 C 102.204 89.793, 101.798 81.153, 99.970 74.125 L 99.092 70.750 107.133 71.451 C 113.996 72.050, 115.454 71.899, 117.087 70.421 C 118.139 69.469, 119 68.213, 119 67.631 C 119 67.048, 117.227 63.164, 115.060 58.998 C 112.893 54.833, 111.431 50.920, 111.812 50.304 C 112.193 49.688, 114.226 48.861, 116.331 48.466 C 121.589 47.479, 124 44.626, 124 39.388 C 124 34.778, 120.682 29.673, 117.072 28.729 C 114.519 28.061, 105.171 32.417, 104.232 34.712 C 103.700 36.011, 102.338 36.524, 99.250 36.586 C 94.772 36.677, 94.041 35.661, 95.977 32.042 C 96.666 30.756, 96.511 29.327, 95.453 27.206 C 93.827 23.946, 91.840 22.740, 89.545 23.621 C 88.162 24.152, 80 20.257, 80 19.066 C 80 18.755, 78.958 18.500, 77.686 18.500 C 76.234 18.500, 75.413 19.066, 75.483 20.018 M 189.139 22.033 C 187.841 23.115, 186.253 24, 185.611 24 C 184.354 24, 181 27.509, 181 28.824 C 181 29.265, 182.331 30.901, 183.957 32.459 C 186.848 35.228, 186.902 35.465, 186.363 42.896 C 185.786 50.851, 187.150 56.220, 190.442 58.952 C 191.844 60.115, 192 58.227, 192 40.122 C 192 29.055, 191.887 20.015, 191.750 20.033 C 191.613 20.052, 190.438 20.952, 189.139 22.033 M 140 58.250 C 140 58.663, 138.762 59.007, 137.250 59.015 C 133.473 59.035, 129.733 61.117, 129.409 63.381 C 129.260 64.415, 128.685 65.715, 128.130 66.270 C 126.818 67.582, 133.380 71, 137.211 71 C 138.745 71, 140.007 71.338, 140.016 71.750 C 140.025 72.162, 141.407 74.061, 143.089 75.969 C 144.770 77.877, 146.875 80.672, 147.767 82.182 C 150.504 86.816, 158.977 87.085, 168.842 82.850 C 173.361 80.911, 183.733 79.759, 184.565 81.104 C 184.791 81.470, 185.172 86.434, 185.413 92.135 C 185.696 98.851, 186.402 103.556, 187.419 105.500 C 189.577 109.628, 189.465 110.157, 185.645 113.860 C 183.799 115.648, 181.214 119.449, 179.898 122.306 C 178.583 125.163, 175.143 131.005, 172.254 135.289 C 169.364 139.572, 167 143.285, 167 143.539 C 167 143.792, 172.625 144, 179.500 144 L 192 144 192 102.515 L 192 61.031 186.250 61.608 C 183.088 61.925, 173.975 62.730, 166 63.398 L 151.500 64.610 148.322 62.055 C 146.574 60.650, 145.112 59.050, 145.072 58.500 C 144.989 57.354, 140 57.108, 140 58.250 M 159.250 66.689 C 160.213 66.941, 161.787 66.941, 162.750 66.689 C 163.713 66.438, 162.925 66.232, 161 66.232 C 159.075 66.232, 158.287 66.438, 159.250 66.689 M 154.772 68.685 C 153.175 69.104, 153.165 69.322, 154.637 71.569 C 156.200 73.954, 160 74.968, 160 73 C 160 72.450, 160.654 72, 161.453 72 C 163.520 72, 168 69.837, 168 68.839 C 168 67.983, 157.901 67.865, 154.772 68.685" stroke="none" fill="black" fill-rule="evenodd"/>
</svg>