<svg xmlns="http://www.w3.org/2000/svg" width="192" height="144" viewBox="0 0 192 144" version="1.1">
	<path d="M -0 31.853 C -0 63.030, 0.051 63.848, 2.416 70.367 C 7.961 85.655, 19.807 102.625, 47.360 134.750 L 55.293 144 123.646 144 L 192 144 192 120.164 C 192 107.055, 192.166 74.767, 192.369 48.414 C 192.572 22.061, 192.555 4.479, 192.330 9.342 C 191.968 17.205, 191.733 18.107, 190.211 17.490 C 189.270 17.108, 185.757 16.561, 182.405 16.273 C 177.274 15.834, 176.206 16.022, 175.653 17.462 C 175.164 18.737, 175.764 19.462, 178.007 20.309 C 179.663 20.934, 180.902 21.748, 180.759 22.118 C 180.354 23.169, 163.021 32, 161.363 32 C 160.548 32, 160.145 32.426, 160.467 32.946 C 160.789 33.467, 159.423 35, 157.431 36.353 C 153.759 38.848, 144 49.187, 144 50.582 C 144 51, 143.255 52.165, 142.345 53.171 C 140.803 54.875, 140.807 55, 142.401 55 C 143.729 55, 143.484 55.571, 141.306 57.551 L 138.500 60.103 141.750 59.472 C 144.855 58.869, 145 58.980, 145 61.952 C 145 67.857, 139.364 66.693, 131.730 59.211 C 125.964 53.560, 124.398 54.004, 121.684 62.062 C 119.426 68.767, 118.653 69.703, 114.681 70.547 C 110.592 71.415, 108 73.728, 108 76.507 C 108 77.716, 106.967 80.233, 105.704 82.102 C 103.702 85.066, 102.851 85.510, 99.040 85.578 C 95.381 85.644, 94.527 86.045, 93.786 88.050 C 93.299 89.366, 92.526 90.681, 92.069 90.972 C 91.612 91.262, 89.588 93.480, 87.572 95.900 C 83.294 101.036, 83.350 102.130, 88.471 113.366 C 90.269 117.312, 92.081 122.107, 92.497 124.020 C 93.191 127.213, 92.774 126.881, 87.441 120 C 77.350 106.980, 65.598 93.875, 53.574 82.234 C 47.175 76.038, 41.502 69.821, 40.969 68.419 C 40.436 67.017, 39.998 63.312, 39.996 60.185 C 39.991 53.503, 38.148 41.423, 33.865 20 C 32.160 11.475, 30.762 3.488, 30.758 2.250 C 30.750 0.015, 30.651 0, 15.375 0 L 0 0 -0 31.853 M 55.056 2.104 C 58.530 8.596, 71.832 17.592, 83.601 21.408 C 91.178 23.864, 91.923 24.727, 93.630 33.019 C 94.477 37.134, 95.792 41.194, 96.552 42.042 C 97.312 42.890, 97.836 44.915, 97.717 46.542 C 97.566 48.601, 97.956 49.500, 99 49.500 C 99.893 49.500, 100.561 48.488, 100.651 47 C 100.735 45.625, 100.847 43.977, 100.901 43.338 C 100.956 42.699, 102.912 41.860, 105.250 41.475 C 111.334 40.471, 111.998 39.602, 112.014 32.628 C 112.035 23.133, 112.329 22.665, 121.304 17.855 C 128.743 13.868, 142 2.998, 142 0.885 C 142 0.385, 122.853 0, 97.965 0 L 53.930 0 55.056 2.104 M 0.447 33 C 0.447 50.875, 0.582 58.188, 0.748 49.250 C 0.914 40.312, 0.914 25.687, 0.748 16.750 C 0.582 7.812, 0.447 15.125, 0.447 33 M 149 60.500 C 147.297 62.975, 146.343 65, 146.879 65 C 147.951 65, 154 58.010, 154 56.772 C 154 54.781, 151.813 56.412, 149 60.500" stroke="none" fill="black" fill-rule="evenodd"/>
</svg>