<svg xmlns="http://www.w3.org/2000/svg" width="192" height="144" viewBox="0 0 192 144" version="1.1">
	<path d="M 0 72 L 0 144 45.063 144 L 90.127 144 89.813 140.750 C 89.523 137.736, 89.233 137.498, 85.818 137.466 C 83.784 137.448, 81.287 136.665, 80.239 135.716 C 79.196 134.772, 77.821 134, 77.183 134 C 74.985 134, 72 130.550, 72 128.009 C 72 126.504, 73.668 123.445, 76.082 120.524 C 81.893 113.492, 83 110.875, 83 104.172 C 83 100.912, 83.689 96.594, 84.532 94.578 C 85.374 92.562, 85.817 90.513, 85.516 90.025 C 85.214 89.537, 85.425 88.856, 85.984 88.510 C 87.543 87.546, 87.190 85.713, 85.565 86.337 C 84.775 86.640, 83.984 86.452, 83.807 85.920 C 83.629 85.388, 81.729 84.668, 79.585 84.320 C 75.859 83.715, 75.713 83.793, 76.305 86.057 C 76.839 88.102, 76.519 87.952, 73.964 84.963 C 72.337 83.058, 71.004 80.867, 71.002 80.094 C 70.999 77.818, 75.662 72.369, 79.729 69.898 C 84.193 67.185, 84.964 66.220, 84.985 63.327 C 84.993 62.131, 86.125 59.816, 87.500 58.182 C 88.875 56.548, 90 54.264, 90 53.106 C 90 50.474, 91.658 50.347, 92.473 52.916 C 92.808 53.970, 94.447 55.309, 96.115 55.890 C 97.784 56.472, 100.421 58.310, 101.976 59.974 C 104.170 62.323, 105.664 63.002, 108.651 63.009 C 113.098 63.020, 123 68.203, 123 70.520 C 123 71.334, 122.352 72, 121.559 72 C 119.372 72, 118.667 73.889, 120.164 75.736 C 120.899 76.642, 121.043 77.111, 120.484 76.777 C 118.917 75.842, 109.726 77.845, 108.094 79.478 C 106.822 80.749, 106.945 81.053, 109.070 81.902 C 110.441 82.450, 110.824 82.901, 109.950 82.937 C 109.098 82.971, 107.954 82.554, 107.408 82.008 C 106.753 81.353, 105.387 81.405, 103.379 82.163 C 100.363 83.301, 100.350 83.338, 101.653 87.119 C 102.375 89.213, 102.753 91.506, 102.493 92.214 C 101.765 94.198, 104.646 101.500, 106.157 101.500 C 106.896 101.500, 107.368 100.713, 107.206 99.750 C 107.045 98.788, 107.382 98, 107.956 98 C 109.475 98, 109.235 101.560, 107.627 102.895 C 105.707 104.488, 103.825 103.508, 101.552 99.734 C 99.612 96.513, 99.603 96.510, 99.202 98.981 C 98.659 102.334, 100.780 115.065, 103.175 122.824 C 105.212 129.425, 104.951 134.191, 102.416 136.727 C 101.476 137.667, 101.344 138.774, 101.974 140.431 C 102.468 141.731, 102.596 143.070, 102.259 143.407 C 101.922 143.745, 122.088 143.903, 147.073 143.760 L 192.500 143.500 192.757 71.750 L 193.013 0 150.051 0 L 107.089 0 108.544 4.126 C 110.295 9.088, 110.439 18.420, 108.836 23.101 C 108.196 24.970, 105.254 29.425, 102.299 33 C 99.344 36.575, 96.661 40.542, 96.338 41.815 L 95.751 44.129 94.125 41.636 C 93.231 40.264, 89.916 35.773, 86.757 31.655 C 83.599 27.537, 80.561 22.976, 80.007 21.519 C 78.575 17.753, 78.838 9.194, 80.529 4.500 C 81.321 2.300, 81.977 0.388, 81.985 0.250 C 81.993 0.112, 63.550 0, 41 0 L 0 0 0 72 M 0.474 72.500 C 0.474 112.100, 0.598 128.154, 0.750 108.176 C 0.901 88.198, 0.901 55.798, 0.750 36.176 C 0.598 16.554, 0.474 32.900, 0.474 72.500 M 93.667 136.667 C 92.629 137.704, 92.883 141, 94 141 C 94.550 141, 95 141.675, 95 142.500 C 95 143.325, 95.623 144, 96.383 144 C 97.854 144, 99.134 139.513, 98.290 137.313 C 97.762 135.936, 94.810 135.524, 93.667 136.667" stroke="none" fill="black" fill-rule="evenodd"/>
</svg>