<svg xmlns="http://www.w3.org/2000/svg" width="192" height="144" viewBox="0 0 192 144" version="1.1">
	<path d="M 0 72 L 0 144 8.906 144 L 17.812 144 21.317 139.250 C 40.577 113.141, 45.636 108, 52.063 108 C 56.354 108, 59 105.944, 59 102.610 C 59 101.374, 59.729 97.919, 60.621 94.932 C 62.126 89.884, 62.120 89.031, 60.526 82.860 C 58.500 75.015, 59.309 72.495, 64.266 71.211 C 67.017 70.498, 67.588 69.803, 68.185 66.438 C 68.570 64.272, 68.917 58.900, 68.957 54.500 C 69.037 45.624, 70.457 41.657, 73.720 41.188 C 75.517 40.929, 76.085 41.604, 77.034 45.125 C 77.663 47.462, 77.999 53.115, 77.781 57.687 C 77.563 62.259, 77.743 66, 78.180 66 C 78.617 66, 80.532 62.908, 82.435 59.130 C 86.282 51.490, 91.150 46, 94.077 46 C 96.660 46, 96.500 48.081, 93.451 54.096 C 91.186 58.567, 85 73.779, 85 74.879 C 85 75.113, 87.601 72.824, 90.779 69.792 C 93.958 66.760, 97.985 63.542, 99.729 62.640 C 102.855 61.023, 106 60.477, 106 61.550 C 106 63.154, 102.730 67.923, 99.519 71 C 95.740 74.622, 91.453 80.786, 92.196 81.529 C 92.429 81.762, 94.960 81.063, 97.820 79.976 C 100.681 78.889, 104.817 78, 107.011 78 C 113.705 78, 111.896 80.467, 101.604 85.374 C 96.436 87.838, 91.931 90.302, 91.593 90.850 C 91.254 91.397, 90.532 94.194, 89.988 97.066 C 88.839 103.120, 85.767 109.694, 82.375 113.351 C 81.069 114.760, 80 116.221, 80 116.599 C 80 116.976, 81.924 119.583, 84.275 122.392 C 91.774 131.351, 96.857 140.805, 95.423 143.124 C 95.100 143.647, 115.154 143.911, 143.685 143.760 L 192.500 143.500 192.522 71.500 C 192.535 31.900, 192.414 10.247, 192.254 23.383 L 191.963 47.266 184.771 46.752 C 180.798 46.467, 177.412 45.736, 177.206 45.118 C 177.001 44.503, 176.182 44, 175.385 44 C 174.589 44, 173.678 43.325, 173.362 42.500 C 173.045 41.675, 171.754 41, 170.493 41 C 167.330 41, 160.384 34.144, 157.345 28.022 C 156.941 27.209, 155.661 25.634, 154.499 24.522 C 152.357 22.471, 149 16.109, 149 14.099 C 149 13.494, 148.594 13, 148.098 13 C 146.822 13, 145 7.326, 145 3.351 L 145 0 72.500 0 L 0 0 0 72 M 0.474 72.500 C 0.474 112.100, 0.598 128.154, 0.750 108.176 C 0.901 88.198, 0.901 55.798, 0.750 36.176 C 0.598 16.554, 0.474 32.900, 0.474 72.500" stroke="none" fill="black" fill-rule="evenodd"/>
</svg>