<svg xmlns="http://www.w3.org/2000/svg" width="192" height="144" viewBox="0 0 192 144" version="1.1">
	<path d="M 0 72 L 0 144 34.841 144 L 69.682 144 70.958 138.250 C 71.660 135.088, 73.981 127.587, 76.117 121.582 C 78.253 115.577, 80 110.080, 80 109.366 C 80 108.653, 78.620 106.657, 76.933 104.931 C 75.246 103.205, 74.107 101.165, 74.401 100.397 C 75.326 97.988, 74.029 96.272, 71.631 96.730 C 70.384 96.969, 66.531 96.013, 63.068 94.606 C 59.606 93.199, 55.247 91.762, 53.381 91.412 C 51.420 91.044, 48.964 89.557, 47.559 87.888 C 45.783 85.777, 44.237 84.998, 41.815 84.994 C 36.812 84.986, 31.525 83.238, 29.400 80.889 C 27.530 78.823, 27.531 78.794, 29.500 79.061 C 32.442 79.460, 41.365 77.847, 40.230 77.121 C 39.695 76.780, 37.843 73.688, 36.115 70.250 C 34.386 66.813, 32.528 64, 31.986 64 C 31.444 64, 31.024 62.313, 31.052 60.250 C 31.104 56.550, 31.126 56.530, 32.674 58.750 C 34.904 61.947, 35.653 61.570, 36.404 56.875 C 36.767 54.606, 37.595 51.793, 38.244 50.625 C 38.894 49.456, 39.352 48.229, 39.262 47.898 C 39.172 47.567, 40.193 47.505, 41.531 47.761 C 43.472 48.132, 44.175 47.670, 45.010 45.474 C 46.323 42.020, 46.698 42.416, 48.435 49.099 C 49.905 54.752, 50.060 73.480, 48.655 75.750 C 48.230 76.438, 46.446 77.016, 44.691 77.035 L 41.500 77.071 44 78.500 C 45.375 79.286, 48.427 79.945, 50.783 79.965 C 53.308 79.985, 57.092 81.026, 60 82.500 C 66.049 85.565, 67 85.605, 67 82.794 C 67 81.581, 68.517 77.194, 70.370 73.044 C 74.995 62.691, 76.742 56.710, 77.534 48.517 C 78.360 39.970, 81.286 30.178, 84.070 26.638 L 86.145 24 82.680 24 C 80.551 24, 78.996 23.432, 78.649 22.528 C 77.980 20.785, 79.591 15.816, 82.331 11.166 C 84.135 8.106, 84.591 7.885, 87.898 8.472 C 89.879 8.824, 93.300 10.451, 95.500 12.087 C 102.645 17.402, 103.342 17.556, 111.106 15.542 C 120.137 13.200, 120.671 13.701, 118.687 22.652 C 117.814 26.590, 117.394 31.672, 117.699 34.611 C 118.261 40.043, 116.202 45, 113.385 45 C 112.623 45, 112 45.450, 112 46 C 112 46.550, 111.325 47, 110.500 47 C 109.365 47, 109 48.227, 109 52.042 C 109 54.815, 109.475 57.628, 110.056 58.292 C 110.637 58.956, 113.593 62.832, 116.623 66.905 C 121.437 73.373, 122.104 74.828, 121.897 78.405 C 121.767 80.657, 121.737 84.150, 121.830 86.167 C 121.995 89.727, 122.147 89.866, 127.049 90.917 C 129.826 91.513, 133.539 92.002, 135.299 92.004 C 137.060 92.006, 139.864 92.840, 141.532 93.856 C 143.761 95.216, 145.199 95.470, 146.962 94.818 C 149.702 93.805, 158 94.778, 158 96.114 C 158 96.601, 156.875 97, 155.500 97 C 154.125 97, 153 97.509, 153 98.131 C 153 98.865, 154.229 99.062, 156.500 98.694 C 158.425 98.381, 160 98.505, 160 98.969 C 160 99.433, 160.900 99.577, 162 99.290 C 164.161 98.725, 164.753 100.416, 162.814 101.615 C 161.836 102.219, 144.991 103.256, 137.500 103.173 C 134.092 103.135, 117.661 98.964, 116.225 97.772 C 115.477 97.151, 114.003 95.036, 112.950 93.071 L 111.035 89.500 110.986 93 C 110.959 94.925, 110.951 97.850, 110.968 99.500 C 110.986 101.150, 110.994 104.120, 110.987 106.100 C 110.980 108.120, 113.159 115.135, 115.956 122.090 C 118.696 128.905, 121.489 136.628, 122.161 139.253 L 123.385 144.025 157.942 143.763 L 192.500 143.500 192.757 71.750 L 193.013 0 96.507 0 L 0 0 0 72 M 0.474 72.500 C 0.474 112.100, 0.598 128.154, 0.750 108.176 C 0.901 88.198, 0.901 55.798, 0.750 36.176 C 0.598 16.554, 0.474 32.900, 0.474 72.500 M 148.072 81.081 C 144.836 84.174, 144.548 87, 147.469 87 C 148.435 87, 149 87.922, 149 89.500 C 149 91.512, 149.497 92, 151.548 92 C 154.267 92, 159 87.722, 159 85.264 C 159 83.537, 153.971 78, 152.402 78 C 151.794 78, 149.846 79.387, 148.072 81.081" stroke="none" fill="black" fill-rule="evenodd"/>
</svg>