<svg xmlns="http://www.w3.org/2000/svg" width="192" height="144" viewBox="0 0 192 144" version="1.1">
	<path d="M -0 72.005 L -0 144.010 96.250 143.755 L 192.500 143.500 192.757 71.750 L 193.013 0 164.257 0.028 L 135.500 0.057 140.115 4.278 C 142.653 6.600, 150.904 13.900, 158.451 20.500 C 165.998 27.100, 175.846 35.753, 180.336 39.728 C 184.826 43.703, 189.287 46.966, 190.250 46.978 C 191.862 46.998, 192 48.703, 192 68.583 C 192 85.402, 191.724 90.076, 190.750 89.756 C 190.063 89.531, 189.359 87.918, 189.187 86.173 C 188.912 83.392, 188.507 83, 185.905 83 C 182.440 83, 181.098 80.674, 182.900 77.788 C 184.041 75.962, 183.850 75.857, 179.808 76.088 C 172.721 76.493, 170.212 74.992, 170.882 70.750 C 170.947 70.338, 169.930 70, 168.622 70 C 165.664 70, 164.225 68.270, 164.409 64.934 C 164.517 62.973, 164.095 62.401, 162.619 62.510 C 161.557 62.588, 158.395 62.270, 155.594 61.804 C 152.792 61.338, 146.225 60.511, 141 59.968 C 135.775 59.424, 129.025 58.566, 126 58.062 C 118.996 56.894, 105.257 54.973, 102 54.705 C 100.625 54.592, 98.931 53.825, 98.235 53 C 97.176 51.745, 97.073 51.956, 97.603 54.290 C 98.045 56.234, 97.705 57.669, 96.483 59.018 C 95.519 60.084, 94.608 62.065, 94.459 63.421 C 94.310 64.777, 93.875 66.393, 93.492 67.012 C 93.109 67.632, 93.707 70.020, 94.822 72.320 C 101.742 86.601, 102.873 92, 98.942 92 C 97.939 92, 96.835 92.457, 96.490 93.016 C 96.144 93.575, 95.440 93.772, 94.924 93.453 C 93.477 92.559, 92.765 95.452, 92.627 102.792 C 92.528 108.032, 92.172 109.500, 91 109.500 C 89.858 109.500, 89.429 108.005, 89.202 103.240 C 88.927 97.456, 88.761 97.058, 87.018 97.991 C 85.764 98.661, 84.258 98.668, 82.530 98.011 C 79.535 96.873, 79.179 97.389, 78.744 103.490 C 78.535 106.431, 77.977 107.573, 76.624 107.834 C 74.059 108.328, 72.366 106.468, 73.804 104.736 C 75.112 103.160, 75.470 96.694, 74.467 92.753 C 74.051 91.118, 74.387 88.081, 75.296 85.253 C 76.290 82.164, 76.763 77.262, 76.648 71.255 C 76.542 65.733, 76.880 61.873, 77.486 61.672 C 78.817 61.228, 78.854 52.032, 77.524 51.894 C 76.961 51.836, 75.295 51.866, 73.822 51.962 C 72.020 52.079, 70.781 51.459, 70.036 50.068 C 69.428 48.931, 68.265 48, 67.453 48 C 66.287 48, 66.104 47.106, 66.584 43.750 C 68.287 31.844, 73.424 15.172, 79.833 0.750 C 80.017 0.337, 62.129 -0, 40.083 -0 L 0 0 -0 72.005 M 0.474 72.500 C 0.474 112.100, 0.598 128.154, 0.750 108.176 C 0.901 88.198, 0.901 55.798, 0.750 36.176 C 0.598 16.554, 0.474 32.900, 0.474 72.500" stroke="none" fill="black" fill-rule="evenodd"/>
</svg>