<svg xmlns="http://www.w3.org/2000/svg" width="192" height="144" viewBox="0 0 192 144" version="1.1">
	<path d="M 0 72 L 0 144 39.852 144 L 79.704 144 80.406 134.750 C 80.792 129.662, 81.304 123.700, 81.544 121.500 C 82.156 115.903, 80.956 90.547, 80.007 89.011 C 79.448 88.106, 78.162 88.922, 75.496 91.873 C 71.268 96.553, 69.880 96.772, 62 94 C 58.975 92.936, 55.242 92.051, 53.705 92.033 C 52.057 92.013, 49.837 90.928, 48.298 89.388 C 45.537 86.628, 44.385 86.199, 39.396 86.077 C 35.862 85.989, 30.996 82.057, 31.008 79.298 C 31.012 78.309, 32.176 76.961, 33.594 76.303 C 35.827 75.267, 36.091 75.320, 35.564 76.695 C 35.056 78.017, 35.209 78.071, 36.477 77.019 C 37.749 75.964, 38 76.064, 38 77.628 C 38 79.606, 40.112 80.016, 50.104 79.976 C 52.956 79.964, 56.763 80.913, 60.104 82.469 C 63.072 83.850, 66.224 84.985, 67.108 84.990 C 69.039 85.002, 74.168 75.602, 73.368 73.517 C 73.040 72.663, 74.245 70.723, 76.305 68.785 C 78.226 66.978, 80.475 64.150, 81.304 62.500 C 82.132 60.850, 83.978 58.409, 85.405 57.076 C 88.365 54.310, 88.697 53, 86.435 53 C 84.548 53, 79.501 47.227, 79.498 45.066 C 79.497 44.219, 78.263 42.934, 76.756 42.212 C 71.239 39.567, 70.767 33.569, 75.526 26.556 C 76.887 24.551, 78 21.581, 78 19.956 C 78 17.121, 78.184 17, 82.480 17 C 86.688 17, 87.081 16.761, 88.969 13.061 C 90.174 10.698, 91.682 9.133, 92.739 9.148 C 93.708 9.161, 95.400 8.892, 96.500 8.549 C 99.225 7.699, 104.360 15.771, 104.495 21.115 C 104.547 23.191, 105.318 25.701, 106.209 26.694 C 108.843 29.631, 111.739 39.797, 112.991 50.500 C 113.792 57.352, 115.551 64.533, 118.580 73.313 C 123.503 87.583, 123.626 88.178, 121.500 87.362 C 119.651 86.652, 119.479 89.762, 121.163 93.458 C 122.084 95.480, 121.980 97.439, 120.663 102.898 C 119.748 106.686, 119 111.579, 119 113.771 C 119 116.092, 118.374 118.275, 117.500 119 C 116.675 119.685, 116 121.655, 116 123.379 C 116 125.103, 115.582 127.970, 115.072 129.750 C 114.561 131.531, 114.399 135.471, 114.713 138.505 L 115.282 144.023 153.891 143.762 L 192.500 143.500 192.757 71.750 L 193.013 0 96.507 0 L 0 0 0 72 M 0.474 72.500 C 0.474 112.100, 0.598 128.154, 0.750 108.176 C 0.901 88.198, 0.901 55.798, 0.750 36.176 C 0.598 16.554, 0.474 32.900, 0.474 72.500 M 82.015 96.691 C 82.007 98.996, 82.450 101.160, 83 101.500 C 84.295 102.301, 84.295 96.005, 83 94 C 82.289 92.900, 82.027 93.617, 82.015 96.691" stroke="none" fill="black" fill-rule="evenodd"/>
</svg>