<svg xmlns="http://www.w3.org/2000/svg" width="192" height="144" viewBox="0 0 192 144" version="1.1">
	<path d="M 0 72 L 0 144 42.361 144 L 84.721 144 85.333 139.250 C 85.670 136.637, 86.229 132.887, 86.577 130.914 C 87.163 127.588, 86.978 127.233, 84.020 126.008 C 81.069 124.786, 80.671 124.866, 78.666 127.095 C 74.631 131.580, 73.163 132.380, 71.500 131 C 69.155 129.054, 69.711 126.892, 73.921 121.579 C 78.279 116.079, 78.352 117.215, 72.816 104.556 C 70.767 99.869, 68.398 96.353, 65.762 94.083 C 61.652 90.546, 61.449 89.495, 63.513 82.496 C 63.957 80.994, 63.350 80.047, 61.089 78.711 C 59.430 77.732, 57.492 76.383, 56.781 75.715 C 56.071 75.047, 52.229 72.289, 48.245 69.587 C 44.260 66.885, 41 63.995, 41 63.165 C 41 61.328, 48.640 53.866, 53.763 50.699 C 58.557 47.735, 68.483 44, 71.565 44 C 73.021 44, 75.198 42.631, 77.146 40.489 C 79.006 38.445, 82.046 36.491, 84.421 35.814 C 89.507 34.363, 90.576 33.557, 92.479 29.741 C 95.151 24.385, 94.625 23.457, 89.134 23.838 C 84.650 24.148, 83.987 23.887, 80.720 20.523 C 78.769 18.515, 76.015 14.426, 74.600 11.436 C 71.960 5.861, 71.184 5.216, 69.338 7.062 C 68.588 7.812, 68.084 6.929, 67.626 4.062 L 66.976 -0 33.488 -0 L 0 0 0 72 M 74 3 C 74 4.736, 77.917 8, 80 8 C 82.976 8, 82.427 6.427, 78.632 4.082 C 74.857 1.749, 74 1.549, 74 3 M 78.003 14.005 C 80.584 19.066, 85.731 23.308, 88.414 22.587 C 89.561 22.279, 91.063 22.021, 91.750 22.014 C 93.742 21.992, 93.220 19.738, 90.074 14.777 C 87.162 10.186, 87.120 10.163, 81.620 10.213 L 76.093 10.262 78.003 14.005 M 95.500 25 C 95.840 25.550, 96.316 26, 96.559 26 C 96.802 26, 97 25.550, 97 25 C 97 24.450, 96.523 24, 95.941 24 C 95.359 24, 95.160 24.450, 95.500 25 M 84.500 37.658 C 80.564 39.041, 76.148 42.482, 77.094 43.427 C 77.734 44.067, 87.717 39.266, 88.550 37.918 C 89.600 36.221, 88.744 36.166, 84.500 37.658 M 85.766 41.381 C 84.812 42.105, 84.308 42.975, 84.647 43.314 C 85.455 44.122, 89 42.209, 89 40.965 C 89 39.653, 87.845 39.802, 85.766 41.381 M 134.984 56.519 C 133.634 58.146, 134.237 64.637, 135.892 66.292 C 136.423 66.823, 140.152 67.476, 144.178 67.743 L 151.500 68.229 146.750 63.330 C 144.137 60.636, 140.701 57.664, 139.114 56.726 C 136.560 55.218, 136.084 55.194, 134.984 56.519 M 83.709 71.211 C 78.956 76.203, 77.123 78.817, 77.602 79.922 C 77.978 80.790, 78.381 83.525, 78.498 86 C 78.699 90.270, 83.184 101, 84.767 101 C 85.445 101, 89.559 96.274, 92.928 91.625 C 94.407 89.584, 94.476 86.670, 93.387 72.250 C 92.998 67.105, 92.338 64.015, 91.632 64.039 C 91.009 64.061, 87.444 67.288, 83.709 71.211 M 136.564 74.128 C 138.425 89.144, 144.815 114.099, 150.551 128.749 L 156.500 143.944 174.250 143.972 L 192 144 192 125.024 C 192 107.820, 191.814 105.743, 190.004 102.774 C 188.906 100.973, 188.006 98.293, 188.004 96.817 C 187.999 93.450, 185.693 92.617, 177.211 92.918 C 165.998 93.315, 157.054 86.517, 155.545 76.449 C 155.151 73.825, 154.186 71.637, 153.189 71.107 C 152.260 70.613, 147.990 69.882, 143.699 69.482 L 135.899 68.756 136.564 74.128 M 157 76.162 C 157 80.261, 161.925 87.062, 166.346 89.070 C 170.685 91.040, 183 91.796, 183 90.093 C 183 88.191, 172.512 79.869, 166.498 76.999 C 158.967 73.405, 157 73.232, 157 76.162 M 190.039 98.136 C 191.340 102.673, 192 102.852, 192 98.667 C 192 96.154, 191.550 95, 190.570 95 C 189.442 95, 189.330 95.664, 190.039 98.136" stroke="none" fill="black" fill-rule="evenodd"/>
</svg>