<svg xmlns="http://www.w3.org/2000/svg" width="192" height="144" viewBox="0 0 192 144" version="1.1">
	<path d="M 0 72 L 0 144 28.250 143.994 L 56.500 143.987 51.508 139.744 C 48.762 137.410, 43.223 132.463, 39.198 128.750 C 35.174 125.037, 31.479 122, 30.988 122 C 30.496 122, 29.010 122.494, 27.686 123.097 C 24.963 124.338, 20.459 122.561, 16 118.488 C 14.625 117.232, 11.720 115.266, 9.543 114.118 C 7.367 112.970, 5.021 111.011, 4.329 109.765 C 2.894 107.181, 2.580 99.872, 3.844 98.450 C 5.848 96.194, 9.008 85.875, 9.995 78.364 C 13.709 50.094, 25.406 30.657, 50.750 10.640 C 54.738 7.491, 58 4.534, 58 4.071 C 58 3.607, 56.469 2.502, 54.599 1.614 C 51.744 0.259, 47.085 0, 25.599 0 L 0 0 0 72 M 135.500 1.616 C 147.398 10.701, 151.585 13.133, 154.367 12.577 C 156.832 12.084, 157.872 12.638, 161.380 16.318 C 163.646 18.694, 166.940 22.463, 168.701 24.693 C 170.461 26.923, 173.013 28.961, 174.372 29.220 C 176.476 29.623, 177.185 29.029, 179.138 25.232 C 180.400 22.779, 181.932 20.580, 182.544 20.345 C 184.866 19.454, 189.130 22.076, 190.506 25.242 C 191.815 28.254, 191.925 27.426, 191.961 14.250 L 192 0 162.750 0.045 C 136.308 0.085, 133.692 0.236, 135.500 1.616 M 190.186 38.250 C 186.717 45.023, 182 59.664, 182 63.659 C 182 70.135, 178.308 84.337, 174.418 92.825 C 170.484 101.407, 163.762 109.938, 161.233 109.557 C 160.280 109.413, 157.495 111.054, 155.044 113.205 C 143.635 123.215, 128.994 130.076, 114.596 132.158 C 107.257 133.219, 104.827 133.166, 97.760 131.793 C 86.049 129.517, 79.188 126.673, 71.665 120.979 C 48.752 103.633, 44.752 72.684, 62.993 53.887 C 72.741 43.843, 87.905 42.207, 96.707 50.251 C 98.734 52.104, 98.796 52.479, 97.471 54.884 C 96.678 56.323, 94.149 58.850, 91.852 60.500 C 84.646 65.676, 79.174 71.711, 78.065 75.706 C 76.433 81.581, 76.691 84, 78.949 84 C 80.022 84, 83.042 86.025, 85.663 88.500 C 88.283 90.975, 90.718 93, 91.074 93 C 91.431 93, 91.505 91.859, 91.238 90.465 C 90.547 86.852, 93.125 84.509, 99.875 82.615 C 103.969 81.466, 106.777 79.865, 109.500 77.125 C 113.709 72.891, 113.928 72.313, 114.690 63.418 C 115.117 58.445, 114.808 56.529, 113 52.918 C 107.538 42.009, 98.650 36.942, 85.212 37.078 C 76.088 37.169, 70.567 38.983, 62.882 44.413 C 48.700 54.435, 40.912 73.730, 44.007 91.176 C 46.927 107.631, 60.312 125.541, 75.837 133.768 C 89.202 140.850, 96.264 142.500, 113.215 142.500 C 121.308 142.500, 127.158 142.806, 126.215 143.180 C 125.272 143.554, 139.688 143.891, 158.250 143.930 L 192 144 192 90 C 192 60.300, 191.851 36, 191.669 36 C 191.487 36, 190.819 37.013, 190.186 38.250 M 142.080 69.416 C 141.299 73.770, 139.614 79.395, 138.334 81.916 C 135.486 87.530, 135.352 89.053, 137.974 86.030 C 141.408 82.071, 144.120 73.247, 143.795 67.092 L 143.500 61.500 142.080 69.416 M 67.374 132.466 C 70.055 134.987, 74.948 138.632, 78.248 140.566 C 83.808 143.825, 84.771 144.061, 91.374 143.791 L 98.500 143.500 92 141.851 C 84.427 139.930, 76.124 136.280, 68.157 131.370 L 62.500 127.883 67.374 132.466" stroke="none" fill="black" fill-rule="evenodd"/>
</svg>