<svg xmlns="http://www.w3.org/2000/svg" width="192" height="144" viewBox="0 0 192 144" version="1.1">
	<path d="M 82 10 C 82 10.550, 82.450 11, 83 11 C 83.550 11, 84 11.450, 84 12 C 84 12.550, 82.178 13, 79.950 13 C 74.795 13, 70.198 15.362, 69.435 18.403 C 68.977 20.229, 67.944 20.913, 64.920 21.397 C 60.629 22.083, 60.020 23.184, 62.823 25.193 C 63.907 25.970, 64.616 27.673, 64.573 29.393 C 64.516 31.671, 65.173 32.627, 67.664 33.893 C 72.077 36.134, 72.993 41.978, 69.990 48.726 C 68.821 51.352, 67.682 56.320, 67.459 59.766 C 67.009 66.728, 66.375 68.242, 60.837 75.591 C 56.431 81.437, 55.928 85.367, 59.073 89.365 C 61.329 92.233, 66.591 93.009, 68.800 90.800 C 70.474 89.126, 70.449 89.432, 67 113 C 65.350 124.274, 64 135.860, 64 138.749 L 64 144 83.509 144 L 103.017 144 102.547 138.750 C 100.990 121.372, 99.525 99.934, 99.659 96.500 C 99.744 94.300, 99.857 87.699, 99.908 81.831 C 99.989 72.556, 100.328 70.510, 102.501 66.185 C 103.875 63.449, 105 60.367, 105 59.337 C 105 58.307, 106.107 55.836, 107.459 53.845 L 109.918 50.227 104.288 46.016 C 101.192 43.701, 98.032 41.566, 97.266 41.272 C 95.385 40.550, 95.801 26.407, 97.796 23.260 C 99.071 21.251, 99.026 20.955, 97.358 20.386 C 96.336 20.037, 93.204 17.333, 90.398 14.376 C 85.726 9.453, 82 7.511, 82 10" stroke="none" fill="black" fill-rule="evenodd"/>
</svg>