<svg xmlns="http://www.w3.org/2000/svg" width="192" height="144" viewBox="0 0 192 144" version="1.1">
	<path d="M 0 37.431 L 0 74.863 7.531 72.330 C 11.674 70.938, 19.354 67.594, 24.598 64.899 C 29.843 62.205, 34.589 60, 35.145 60 C 36.678 60, 50.401 71.331, 60.294 80.765 C 71.663 91.608, 74.717 92.948, 88.491 93.144 L 99.213 93.296 102.537 87.074 C 106.922 78.868, 110.589 75.768, 120.265 72.089 C 123.809 70.742, 123.727 68.914, 120 66.158 L 117 63.940 117 66.411 C 117 69.055, 114.883 71.148, 114.220 69.159 C 114.001 68.502, 113.187 67.329, 112.411 66.554 C 111.635 65.778, 111 64.041, 111 62.694 C 111 59.851, 108.456 57.371, 105.971 57.792 C 104.041 58.119, 102.658 53.742, 104.204 52.196 C 105.427 50.973, 104.055 45.816, 102.631 46.286 C 101.932 46.517, 101.276 50.828, 100.914 57.580 C 100.186 71.159, 97.786 78.029, 93.283 79.426 C 91.471 79.988, 90.949 79.647, 90.425 77.557 C 90.072 76.151, 89.417 75, 88.969 75 C 85.743 75, 85.160 58.115, 88.170 51.884 C 89.177 49.801, 90 47.686, 90 47.183 C 90 46.681, 90.899 45.126, 91.998 43.729 L 93.997 41.189 89.748 39.831 C 85.916 38.607, 85.520 38.181, 85.704 35.487 C 86.133 29.220, 87.166 25.956, 89.659 22.994 C 94.902 16.763, 100.861 15.837, 102.500 20.999 C 103.151 23.050, 105 23.793, 105 22.003 C 105 21.454, 106.604 19.230, 108.565 17.060 C 113.127 12.010, 118.909 10.603, 132.810 11.161 C 144.482 11.630, 146.885 12.810, 150.985 20.089 C 152.989 23.645, 153.443 25.759, 153.331 31 C 153.240 35.209, 153.666 38.034, 154.538 39.015 C 155.278 39.848, 156.304 42.396, 156.816 44.677 C 157.571 48.039, 157.441 49.132, 156.124 50.453 C 155.231 51.350, 154.500 53.261, 154.500 54.700 C 154.500 56.139, 153.938 57.508, 153.250 57.742 C 152.563 57.975, 152 57.454, 152 56.583 C 152 53.599, 150.223 54.998, 149.566 58.500 C 148.785 62.662, 147.048 63.148, 146.884 59.250 C 146.813 57.558, 146.592 57.173, 146.311 58.250 C 146.059 59.213, 145.443 60, 144.941 60 C 144.439 60, 143.517 62.033, 142.891 64.517 C 142.266 67.001, 141.359 69.278, 140.877 69.576 C 139.089 70.681, 140.118 71.773, 144.539 73.462 C 151.090 75.963, 154.327 79.109, 157.401 85.959 L 160.113 92.002 175.507 91.718 C 183.973 91.561, 191.233 91.101, 191.639 90.694 C 192.045 90.288, 192.576 69.716, 192.819 44.978 L 193.259 -0 96.630 -0 L 0 0 0 37.431 M 0.453 38 C 0.453 58.625, 0.586 67.063, 0.749 56.750 C 0.911 46.438, 0.911 29.563, 0.749 19.250 C 0.586 8.938, 0.453 17.375, 0.453 38 M 29.206 69.750 C 26.154 72.359, 26.064 72.628, 27.467 75 C 30.189 79.600, 32 83.919, 31.962 85.718 C 31.880 89.569, 25.442 114.126, 24.515 114.120 C 23.548 114.112, 17.113 89.450, 17.038 85.461 C 17.017 84.340, 17.900 81.658, 19 79.500 C 20.100 77.342, 21 75.510, 21 75.428 C 21 75.016, 2.380 82.295, 1.648 82.993 C 1.179 83.439, 1.754 85.101, 2.925 86.685 C 6.420 91.412, 6.449 95.391, 3.084 108.692 C 0.520 118.829, -0 122.831, -0 132.442 L 0 144 49.500 144 L 99 144 99 138.049 C 99 134.776, 99.445 129.939, 99.989 127.299 C 101.325 120.820, 101.834 103, 100.684 103 C 100.179 103, 100.002 102.100, 100.290 101 C 100.773 99.154, 100.320 99, 94.406 99 C 88.216 99, 87.038 99.542, 88.864 101.550 C 89.338 102.072, 90.220 103.978, 90.823 105.784 C 91.737 108.522, 91.396 111.308, 88.770 122.554 C 86.936 130.405, 85.177 135.894, 84.560 135.691 C 83.460 135.329, 78.120 113.427, 78.044 108.961 C 78.020 107.565, 78.898 104.661, 79.996 102.508 C 81.094 100.354, 81.622 98.222, 81.170 97.770 C 80.717 97.317, 78.068 96.677, 75.283 96.347 L 70.220 95.747 71.251 100.252 C 72.136 104.124, 71.826 106.688, 69.041 118.479 C 67.259 126.026, 65.425 131.818, 64.965 131.351 C 64.506 130.883, 62.729 124.650, 61.018 117.500 C 58.282 106.071, 58.046 103.994, 59.065 100.314 C 59.703 98.012, 60.849 95.888, 61.612 95.595 C 64.620 94.441, 63.016 90.279, 57.374 84.591 C 54.279 81.472, 51.573 79.093, 51.361 79.306 C 51.148 79.519, 51.688 81.404, 52.562 83.494 C 54.084 87.137, 54.013 87.894, 50.861 101.660 C 49.005 109.766, 47.124 115.875, 46.543 115.681 C 45.978 115.493, 44.075 109.300, 42.314 101.919 C 39.577 90.444, 39.273 87.955, 40.218 84.738 C 40.826 82.669, 41.926 80.476, 42.662 79.866 C 43.398 79.255, 44 77.983, 44 77.040 C 44 75.065, 35.784 67, 33.771 67 C 33.030 67, 30.976 68.237, 29.206 69.750 M 186 95.895 C 183.008 96.727, 182.997 97.169, 185.812 103.144 L 187.999 107.787 184.935 120.644 C 181.980 133.039, 180.806 136.118, 179.712 134.337 C 179.429 133.877, 177.743 127.415, 175.966 119.977 L 172.734 106.454 174.740 102.301 L 176.746 98.149 169.123 97.808 C 164.930 97.620, 161.326 97.573, 161.114 97.703 C 160.901 97.833, 161.694 100.185, 162.875 102.931 L 165.022 107.922 162.487 118.653 C 160.419 127.404, 160.074 130.731, 160.614 136.692 L 161.276 144 176.638 144 L 192 144 192 119.500 C 192 92.561, 192.395 94.116, 186 95.895" stroke="none" fill="black" fill-rule="evenodd"/>
</svg>