<svg xmlns="http://www.w3.org/2000/svg" width="192" height="144" viewBox="0 0 192 144" version="1.1">
	<path d="M 0 36.617 L 0 73.235 7.250 72.568 C 29.874 70.488, 52.253 69.798, 113 69.309 L 180.500 68.765 182.721 63.806 C 184.673 59.447, 185.218 58.931, 187.221 59.546 C 191.081 60.730, 191.888 61.975, 192.266 67.331 C 192.466 70.174, 192.713 56.188, 192.815 36.250 L 193 0 96.500 0 L 0 0 0 36.617 M 0.452 37 C 0.452 57.075, 0.585 65.288, 0.749 55.250 C 0.912 45.213, 0.912 28.788, 0.749 18.750 C 0.585 8.713, 0.452 16.925, 0.452 37 M 35.500 81.094 C 26.150 81.532, 14.338 82.182, 9.250 82.539 L 0 83.187 0 113.593 C 0 130.317, 0.381 144, 0.847 144 C 1.313 144, 2.188 142.988, 2.792 141.750 L 3.890 139.500 4.563 141.755 L 5.236 144.010 98.868 143.755 L 192.500 143.500 192.642 112.500 C 192.719 95.450, 192.589 82.400, 192.353 83.500 C 192.116 84.600, 191.706 86.513, 191.442 87.750 C 191.111 89.301, 190.239 90, 188.636 90 C 185.049 90, 182.657 86.627, 182.074 80.750 C 181.977 79.770, 57.543 80.062, 35.500 81.094 M 0.445 113.500 C 0.444 130.550, 0.581 137.666, 0.748 129.312 C 0.915 120.959, 0.915 107.009, 0.748 98.312 C 0.582 89.616, 0.445 96.450, 0.445 113.500" stroke="none" fill="black" fill-rule="evenodd"/>
</svg>