<svg xmlns="http://www.w3.org/2000/svg" width="192" height="144" viewBox="0 0 192 144" version="1.1">
	<path d="M 0 72 L 0 144 34.779 144 L 69.557 144 71.397 136.750 C 72.410 132.762, 74.800 125.467, 76.710 120.537 C 80.083 111.832, 80.147 111.407, 78.945 105.740 C 77.734 100.037, 77.643 99.920, 74.853 100.532 C 72.291 101.095, 72 100.896, 72 98.579 C 72 96.464, 72.471 96, 74.617 96 C 76.842 96, 77.143 95.664, 76.630 93.750 C 76.299 92.513, 76.021 90.741, 76.014 89.813 C 76.003 88.445, 75.338 88.233, 72.508 88.692 C 68.277 89.379, 66.518 88.103, 64.895 83.170 C 64.231 81.152, 62.579 77.821, 61.224 75.769 C 59.610 73.326, 58.928 71.156, 59.248 69.484 C 59.594 67.675, 59.191 66.637, 57.868 65.929 C 56.841 65.380, 56 63.851, 56 62.532 C 56 60.992, 55.266 59.902, 53.945 59.483 C 52.815 59.124, 52.076 58.306, 52.304 57.665 C 52.982 55.756, 58.471 56.788, 64.628 59.982 C 67.801 61.628, 70.647 62.571, 70.952 62.078 C 71.257 61.584, 72.855 61.027, 74.503 60.840 C 77.347 60.517, 77.513 60.245, 77.750 55.500 C 78.267 45.176, 80.043 30.787, 81.028 28.948 C 81.960 27.205, 81.765 27.095, 78.774 27.677 C 74.967 28.418, 74.001 29.524, 74.637 32.415 C 76.080 38.983, 76.125 41.562, 74.893 47.115 C 73.369 53.984, 71.209 56.159, 66.318 55.752 C 62.876 55.466, 57.727 50.164, 58.086 47.276 C 58.208 46.299, 58.052 44.825, 57.739 44 C 57.426 43.175, 56.938 40.828, 56.654 38.784 C 56.211 35.601, 56.520 34.788, 58.804 33.124 C 61.058 31.483, 61.488 30.390, 61.577 26.083 C 61.698 20.251, 62.312 19.184, 64.500 21 C 65.352 21.707, 66.334 22, 66.682 21.651 C 67.031 21.303, 67.920 21.519, 68.658 22.131 C 70.955 24.038, 73 21.299, 73 16.316 L 73 11.877 77.750 12.586 C 80.362 12.976, 84.450 14.128, 86.833 15.147 C 92.460 17.553, 97.632 17.493, 103.374 14.953 C 105.919 13.827, 110.215 12.643, 112.920 12.323 L 117.839 11.741 118.499 16.147 C 118.863 18.570, 119.012 22.116, 118.830 24.026 C 118.501 27.490, 118.487 27.500, 113.696 27.333 C 109.719 27.195, 109.089 27.403, 110.036 28.543 C 110.664 29.300, 111.617 34.776, 112.152 40.710 C 114.266 64.148, 113.762 61.998, 116.983 61.353 C 119.359 60.878, 119.888 61.145, 120.166 62.961 L 120.500 65.138 122.708 63.069 C 123.923 61.931, 125.330 61, 125.836 61 C 126.341 61, 127.266 60.385, 127.890 59.633 C 129.624 57.543, 126.787 55.509, 124.125 56.933 C 122.799 57.643, 121.912 57.666, 121.502 57.003 C 121.161 56.451, 121.696 55.986, 122.691 55.968 C 124.355 55.939, 124.340 55.816, 122.500 54.425 C 121.228 53.464, 120.617 52.020, 120.822 50.457 C 120.998 49.106, 120.747 48, 120.263 48 C 119.778 48, 118.577 47.411, 117.593 46.692 C 116.053 45.566, 115.952 44.836, 116.865 41.442 C 117.448 39.274, 118.196 35.354, 118.527 32.731 C 118.858 30.108, 119.508 28.196, 119.971 28.482 C 120.434 28.768, 120.625 28.215, 120.394 27.251 C 120.163 26.288, 120.433 24.825, 120.994 24 C 121.862 22.725, 122.310 22.875, 123.985 25 C 125.069 26.375, 125.966 26.938, 125.978 26.250 C 126.010 24.459, 130.948 24.702, 131.650 26.529 C 132.157 27.850, 132.414 27.817, 133.537 26.281 C 134.251 25.303, 135.174 24.841, 135.588 25.254 C 136.222 25.889, 136.499 32.618, 136.111 38 C 136.051 38.825, 136.262 41.075, 136.579 43 C 137.021 45.680, 136.599 47.320, 134.780 50 C 130.459 56.364, 130.499 57.066, 135.168 56.765 C 139.586 56.481, 141.585 58.362, 138.055 59.483 C 136.714 59.908, 136 60.991, 136 62.599 C 136 63.954, 135.325 65.322, 134.500 65.638 C 133.637 65.970, 133 67.463, 133 69.157 C 133 70.775, 132.349 73.359, 131.552 74.899 C 130.756 76.438, 129.568 79.903, 128.912 82.599 C 128.255 85.295, 127.037 88.287, 126.204 89.250 C 124.323 91.424, 120.653 91.510, 118.571 89.429 C 117.143 88, 117 88.233, 117 91.991 C 117 95.705, 117.229 96.094, 119.250 95.813 C 121.067 95.560, 121.500 95.981, 121.500 98 C 121.500 99.997, 121.047 100.452, 119.250 100.262 C 117.291 100.054, 116.987 100.507, 116.897 103.762 L 116.793 107.500 115.785 103.698 C 115.096 101.101, 114.284 99.992, 113.222 100.198 C 110.420 100.742, 111.412 110.354, 115.316 120.500 C 117.220 125.450, 119.819 132.768, 121.090 136.763 L 123.402 144.025 157.951 143.763 L 192.500 143.500 192.757 71.750 L 193.013 0 96.507 0 L 0 0 0 72 M 0.474 72.500 C 0.474 112.100, 0.598 128.154, 0.750 108.176 C 0.901 88.198, 0.901 55.798, 0.750 36.176 C 0.598 16.554, 0.474 32.900, 0.474 72.500 M 134.195 21.500 C 134.215 23.150, 134.439 23.704, 134.693 22.731 C 134.947 21.758, 134.930 20.408, 134.656 19.731 C 134.382 19.054, 134.175 19.850, 134.195 21.500 M 79 94.500 C 79 95.325, 79.450 96, 80 96 C 80.550 96, 81 95.325, 81 94.500 C 81 93.675, 80.550 93, 80 93 C 79.450 93, 79 93.675, 79 94.500 M 113 94.500 C 113 95.325, 113.450 96, 114 96 C 114.550 96, 115 95.325, 115 94.500 C 115 93.675, 114.550 93, 114 93 C 113.450 93, 113 93.675, 113 94.500 M 79.469 100.050 C 78.519 101.588, 79.820 102.580, 81.104 101.296 C 81.822 100.578, 81.839 100.019, 81.156 99.597 C 80.596 99.251, 79.837 99.455, 79.469 100.050" stroke="none" fill="black" fill-rule="evenodd"/>
</svg>