<svg xmlns="http://www.w3.org/2000/svg" width="192" height="144" viewBox="0 0 192 144" version="1.1">
	<path d="M 0 72 L 0 144 39.852 144 L 79.705 144 80.984 133.629 C 82.066 124.862, 82.075 115.704, 81.021 97.128 C 81.010 96.923, 80.393 97.259, 79.650 97.875 C 78.764 98.611, 74.230 98.874, 66.462 98.642 C 56.422 98.343, 54.160 98.563, 51.562 100.096 C 49.090 101.554, 47.730 101.724, 44.500 100.975 C 42.300 100.465, 38.948 100.037, 37.050 100.024 C 33.001 99.996, 33.607 99.099, 39.934 95.754 C 45.170 92.985, 46.276 91, 42.583 91 C 39.642 91, 39.111 89.417, 41.769 88.573 C 43.653 87.975, 63.881 87.716, 70.395 88.207 C 74.273 88.499, 74.297 88.478, 76.097 83.209 C 77.092 80.299, 77.656 77.267, 77.351 76.471 C 77.045 75.676, 78.195 72.911, 79.906 70.328 C 81.830 67.424, 82.795 64.930, 82.435 63.795 C 82.028 62.512, 82.927 61.009, 85.426 58.796 C 89.374 55.301, 90.133 52.891, 87.031 53.702 C 84.450 54.377, 78.736 48.851, 79.624 46.538 C 80.072 45.370, 79.386 44.594, 77.159 43.754 C 72.535 42.009, 71.214 37.970, 73.356 32.130 C 74.290 29.583, 76.151 26.687, 77.491 25.693 C 79.438 24.249, 79.809 23.295, 79.339 20.943 C 78.775 18.123, 78.900 18, 82.336 18 C 85.679 18, 85.997 17.726, 87.008 13.970 C 87.607 11.747, 88.540 10.216, 89.090 10.556 C 89.639 10.895, 90.737 10.633, 91.531 9.974 C 92.325 9.315, 93.586 9.011, 94.333 9.298 C 96.210 10.018, 102 18.945, 102 21.120 C 102 22.097, 103.112 24.097, 104.471 25.563 C 108.019 29.392, 110.888 37.853, 112.477 49.176 C 113.237 54.592, 115.499 63.771, 117.503 69.576 C 119.727 76.017, 121.136 81.955, 121.118 84.815 C 121.056 94.643, 120.342 101.581, 119.171 103.726 C 116.725 108.205, 112.827 125.746, 112.273 134.761 L 111.705 144.023 152.102 143.761 L 192.500 143.500 192.757 71.750 L 193.013 0 96.507 0 L 0 0 0 72 M 0.474 72.500 C 0.474 112.100, 0.598 128.154, 0.750 108.176 C 0.901 88.198, 0.901 55.798, 0.750 36.176 C 0.598 16.554, 0.474 32.900, 0.474 72.500" stroke="none" fill="black" fill-rule="evenodd"/>
</svg>