<svg xmlns="http://www.w3.org/2000/svg" width="192" height="144" viewBox="0 0 192 144" version="1.1">
	<path d="M 0 72 L 0 144 16.250 143.956 C 31.282 143.916, 32.210 143.809, 28.637 142.535 C 23.454 140.687, 19.624 136.827, 16.830 130.632 C 14.843 126.230, 14.502 123.793, 14.433 113.500 C 14.355 101.918, 14.210 101.134, 10.257 91 C 5.074 77.714, 3.506 67.369, 4.352 52.057 C 5.042 39.587, 7.286 28.727, 11.545 17.245 C 13.716 11.392, 13.998 9.703, 13.006 8.507 C 11.405 6.578, 12.428 4, 14.796 4 C 17.267 4, 27.718 8.288, 37 13.110 C 41.125 15.253, 52.362 19.731, 61.972 23.060 C 78.489 28.784, 79.516 29.016, 80.768 27.307 C 81.967 25.672, 81.732 25.416, 78.297 24.617 C 76.209 24.132, 74.324 23.581, 74.108 23.392 C 73.493 22.854, 84.040 7.748, 86.717 5.332 C 88.038 4.140, 90.105 2.476, 91.310 1.635 C 93.290 0.252, 89.008 0.100, 46.750 0.052 L 0 0 0 72 M 101.500 2 C 103.658 3.100, 105.971 4, 106.640 4 C 107.310 4, 109.408 5.462, 111.302 7.250 C 113.876 9.679, 115.071 11.952, 116.031 16.246 C 117.214 21.533, 117.164 22.162, 115.408 24.111 C 114.359 25.276, 112.425 26.640, 111.111 27.143 C 109.798 27.645, 109.018 28.351, 109.379 28.712 C 109.740 29.073, 108.652 30.796, 106.962 32.540 L 103.888 35.711 106.694 36.846 C 112.894 39.354, 139.786 45.743, 144 45.709 C 146.486 45.689, 150.514 46.592, 153 47.727 C 155.475 48.856, 159.525 50.258, 162 50.841 C 170.245 52.783, 181.439 54.936, 186.750 55.601 L 192 56.258 192 28.129 L 192 0 144.789 -0 L 97.577 -0 101.500 2 M 31.185 22.750 C 24.938 35.374, 22.169 46.467, 21.388 62 C 20.846 72.780, 21.012 74.251, 24.035 85.500 C 28.590 102.447, 28.581 102.315, 25.669 108.804 C 22.083 116.793, 21.533 121.450, 23.351 128.413 C 25.696 137.392, 33.003 144.060, 36.822 140.706 C 37.745 139.895, 40.750 138.075, 43.500 136.662 C 46.250 135.249, 47.728 134.072, 46.785 134.047 C 44.969 133.997, 43 131.162, 43 128.597 C 43 126.945, 50.418 121.130, 58.500 116.447 C 69.882 109.851, 91.001 87.475, 91 82.013 C 90.999 81.181, 88.749 78.563, 86 76.195 C 81.831 72.605, 81 71.326, 81 68.502 C 81 66.639, 81.968 63.474, 83.150 61.470 C 85.355 57.732, 86.709 52.738, 87.545 45.250 C 87.959 41.540, 87.771 41, 86.069 41 C 84.996 41, 83.824 41.476, 83.464 42.058 C 83.101 42.645, 81.937 41.487, 80.848 39.455 C 77.632 33.454, 76.102 32.486, 62 27.516 C 54.575 24.899, 46.346 21.912, 43.713 20.879 C 36.122 17.899, 33.383 18.309, 31.185 22.750 M 112.001 44.250 C 112.003 45.009, 115.804 53.975, 117.300 56.750 C 119.353 60.559, 119.721 60.582, 131.500 57.644 C 139.079 55.753, 140.549 55.060, 140.812 53.255 C 141.071 51.479, 140.385 50.918, 136.812 49.986 C 134.441 49.368, 128.450 47.768, 123.500 46.432 C 115.260 44.207, 111.999 43.588, 112.001 44.250 M 149.986 58.848 C 147.173 61.794, 144.278 63.270, 135.486 66.242 C 121.845 70.854, 119.899 71.179, 116.496 69.414 C 112.786 67.489, 111.727 67.621, 112.925 69.859 C 113.472 70.882, 113.655 73.348, 113.332 75.340 C 112.929 77.823, 113.256 79.742, 114.372 81.445 C 115.268 82.812, 116 84.786, 116 85.833 C 116 86.879, 118.475 91.454, 121.500 96 C 127.321 104.747, 127.836 106, 125.609 106 C 124.503 106, 124.694 107.545, 126.541 113.532 C 130.738 127.135, 131.755 136.936, 129.522 142.250 C 128.934 143.649, 129.293 144, 131.308 144 C 134.761 144, 157.242 139.094, 184.750 132.338 L 192 130.557 192 97.859 L 192 65.161 186.750 63.553 C 183.863 62.668, 180.150 61.524, 178.500 61.009 C 171.437 58.807, 156.379 55.012, 155 55.086 C 154.175 55.130, 151.919 56.823, 149.986 58.848 M 89.583 66.866 C 89.152 67.563, 89.070 68.403, 89.400 68.733 C 90.295 69.628, 91.271 68.312, 90.787 66.862 C 90.449 65.846, 90.213 65.846, 89.583 66.866" stroke="none" fill="black" fill-rule="evenodd"/>
</svg>