<svg xmlns="http://www.w3.org/2000/svg" width="192" height="144" viewBox="0 0 192 144" version="1.1">
	<path d="M 0 72 L 0 144 37.250 143.999 L 74.500 143.997 77.760 132.249 C 79.857 124.693, 81.017 118.265, 81.010 114.237 C 81.005 110.793, 81.915 104.718, 83.033 100.737 C 85.558 91.748, 87.284 80.884, 87.101 75.125 C 87.025 72.718, 87.476 70.131, 88.104 69.375 C 89.710 67.440, 88.033 67.660, 85.805 69.676 C 84.424 70.926, 83.664 71.064, 82.819 70.219 C 81.048 68.448, 83.419 66.349, 88.019 65.613 C 90.208 65.263, 92 64.532, 92 63.988 C 92 62.772, 98.674 62.664, 99.419 63.869 C 99.714 64.346, 101.783 65.029, 104.016 65.387 C 108.028 66.028, 109.817 67.869, 108.500 70.001 C 108.021 70.774, 107.358 70.715, 106.246 69.799 C 104.834 68.635, 104.743 69.021, 105.378 73.500 C 105.768 76.250, 106.487 81.875, 106.976 86 C 107.465 90.125, 108.978 97.100, 110.339 101.500 C 112.410 108.198, 112.676 110.395, 111.972 115 C 111.252 119.710, 111.588 122.188, 114.316 132.260 L 117.500 144.019 155 143.760 L 192.500 143.500 192.757 71.750 L 193.013 0 96.507 0 L 0 0 0 72 M 0.474 72.500 C 0.474 112.100, 0.598 128.154, 0.750 108.176 C 0.901 88.198, 0.901 55.798, 0.750 36.176 C 0.598 16.554, 0.474 32.900, 0.474 72.500" stroke="none" fill="black" fill-rule="evenodd"/>
</svg>