<svg xmlns="http://www.w3.org/2000/svg" width="192" height="144" viewBox="0 0 192 144" version="1.1">
	<path d="M 0 37 L 0 74 6.583 74 C 10.204 74, 16.798 73.073, 21.237 71.939 C 27.398 70.366, 29.484 70.165, 30.055 71.089 C 30.604 71.978, 31.531 71.728, 33.537 70.150 C 35.040 68.967, 37.009 68, 37.912 68 C 38.816 68, 40.496 67.341, 41.646 66.535 C 42.796 65.730, 43.954 65.288, 44.220 65.553 C 44.485 65.819, 46.007 65.349, 47.601 64.510 C 50.053 63.219, 54.050 63.070, 73.500 63.545 C 86.150 63.853, 102.254 64.548, 109.287 65.089 C 116.320 65.630, 122.453 65.838, 122.916 65.552 C 123.380 65.265, 124.005 64.088, 124.307 62.934 C 124.742 61.272, 124.170 60.551, 121.549 59.456 C 118.910 58.353, 117.972 57.157, 116.900 53.528 C 116.162 51.027, 115.095 49.146, 114.529 49.348 C 112.490 50.075, 108.075 45.917, 107.478 42.709 C 106.631 38.154, 110.519 29.930, 115.315 26.134 C 120.246 22.232, 128.555 20.368, 133.598 22.032 C 138.151 23.535, 143.935 28.593, 145.549 32.484 C 146.620 35.064, 147.529 39.234, 150.459 55 C 150.879 57.258, 150.796 57.331, 149.602 55.750 C 147.316 52.724, 146 53.729, 146 58.500 C 146 61.771, 145.603 63, 144.545 63 C 143.495 63, 143.703 63.625, 145.295 65.252 C 146.508 66.490, 148.625 68.859, 150 70.515 C 151.375 72.172, 153.969 74.569, 155.765 75.843 C 160.521 79.215, 162.355 83.358, 161.665 89.177 C 161.321 92.088, 161.593 95.180, 162.353 96.987 C 163.616 99.991, 170.762 105.948, 178.828 110.721 C 181.209 112.129, 183.581 114.231, 184.100 115.391 C 184.618 116.551, 186.368 119.300, 187.988 121.500 C 190.647 125.110, 190.937 126.262, 190.967 133.321 C 190.996 140.274, 190.833 140.976, 189.500 139.643 C 188.675 138.818, 188 137.259, 188 136.178 C 188 135.098, 187.261 133.930, 186.357 133.583 C 184.414 132.838, 184.376 132.867, 183.110 136.037 C 182.312 138.036, 182.115 137.244, 182.063 131.828 L 182 125.155 178.607 124.035 C 176.741 123.419, 171.912 120.010, 167.876 116.458 C 163.840 112.906, 160.192 110, 159.769 110 C 157.758 110, 159.128 114.892, 163.128 122 C 165.700 126.568, 170.064 136.237, 171.196 139.874 L 172.500 144.063 182.500 143.781 L 192.500 143.500 192.728 71.750 L 192.957 0 96.478 0 L 0 0 0 37 M 0.453 37.500 C 0.453 57.850, 0.586 66.033, 0.749 55.685 C 0.912 45.336, 0.911 28.686, 0.748 18.685 C 0.585 8.683, 0.452 17.150, 0.453 37.500 M 153.500 64 C 153.160 64.550, 153.584 65, 154.441 65 C 155.298 65, 156 64.550, 156 64 C 156 63.450, 155.577 63, 155.059 63 C 154.541 63, 153.840 63.450, 153.500 64 M 62.630 76.093 C 57.201 76.541, 52.562 77.105, 52.319 77.347 C 52.077 77.590, 53.031 78.940, 54.439 80.348 C 55.848 81.757, 57.034 83.492, 57.077 84.205 C 57.119 84.917, 57.315 86.365, 57.513 87.422 C 57.895 89.461, 55.766 94.351, 53.242 97.230 C 50.074 100.845, 41 100.278, 41 96.465 C 41 95.401, 42.201 95, 45.389 95 C 52.336 95, 57.040 89.165, 53.734 84.648 C 52.022 82.310, 43.690 81.182, 41.508 82.993 C 40.459 83.864, 39.620 83.932, 38.750 83.216 C 38.063 82.650, 35.250 81.916, 32.500 81.586 C 29.156 81.183, 28.163 81.283, 29.500 81.887 C 31.416 82.752, 31.395 82.834, 29 83.832 C 27.625 84.404, 27.063 84.902, 27.750 84.937 C 28.438 84.971, 29 85.402, 29 85.893 C 29 87.919, 25.466 87.839, 17.710 85.638 C 12.532 84.168, 7.931 83.475, 5.250 83.759 L 1 84.210 1 114.105 L 1 144 59.750 143.996 L 118.500 143.993 120.347 139.501 C 121.363 137.031, 124.027 132.195, 126.268 128.755 C 128.871 124.759, 130.275 121.507, 130.155 119.750 C 130.052 118.237, 130.425 117, 130.984 117 C 131.543 117, 132 116.345, 132 115.545 C 132 114.674, 130.593 113.827, 128.489 113.432 C 124.021 112.594, 123.413 111.544, 125.528 108.317 C 128.511 103.764, 126.475 95.123, 119.106 81.051 C 118.688 80.255, 117.039 79.253, 115.440 78.826 C 112.658 78.081, 76.016 74.850, 73.645 75.140 C 73.015 75.217, 68.058 75.646, 62.630 76.093 M 186.748 81.599 C 185.959 82.876, 188.611 86.296, 190.025 85.825 C 190.781 85.573, 190.513 84.620, 189.248 83.058 C 188.187 81.748, 187.062 81.091, 186.748 81.599 M 40 127.891 C 40 128.462, 40.940 129.433, 42.089 130.048 C 43.879 131.005, 44.128 130.904, 43.828 129.344 C 43.458 127.423, 40 126.111, 40 127.891" stroke="none" fill="black" fill-rule="evenodd"/>
</svg>