<svg xmlns="http://www.w3.org/2000/svg" width="192" height="144" viewBox="0 0 192 144" version="1.1">
	<path d="M -0 71.991 L 0 144 15.383 144 C 30.335 144, 30.783 143.939, 31.335 141.826 C 32.152 138.701, 31.368 138, 27.056 138 C 24.066 138, 22.868 137.447, 21.572 135.469 C 20.525 133.872, 19.099 133.007, 17.707 133.124 C 11.867 133.618, 11 133.156, 11 129.547 C 11 125.830, 12.199 122.527, 15.554 117 C 23.552 103.826, 33 82.828, 33 78.229 C 33 75.820, 31.526 75.221, 30.590 77.250 C 30.273 77.938, 30.146 76.813, 30.306 74.750 C 30.467 72.688, 30.351 71.001, 30.049 71.003 C 28.874 71.010, 25.779 84.756, 25.923 89.332 C 26.030 92.746, 25.737 93.956, 24.925 93.454 C 23.343 92.476, 22.034 94.858, 22.015 98.750 C 22.007 100.537, 21.600 102, 21.111 102 C 19.816 102, 18.771 95.319, 19.527 91.875 C 19.929 90.048, 19.689 88.331, 18.901 87.381 C 17.768 86.016, 17.452 86.069, 16.063 87.862 C 15.203 88.971, 13.299 90.171, 11.832 90.527 C 7.798 91.508, 6.748 88.585, 7.157 77.516 C 7.483 68.704, 7.733 67.800, 12.231 59.198 L 16.963 50.148 16.731 39.589 C 16.520 29.937, 16.346 29.079, 14.702 29.598 C 13.713 29.910, 12.256 29.627, 11.464 28.970 C 10.224 27.941, 10.299 27.389, 12 25 C 14.214 21.891, 13.704 21.016, 8.467 18.939 C 3.821 17.095, 7.470 16.631, 12.672 18.404 C 16.013 19.542, 17.674 19.686, 18.601 18.916 C 20.803 17.089, 24.530 18.211, 24.284 20.627 C 24.088 22.560, 24.452 22.703, 28.417 22.256 C 31.925 21.861, 33.175 22.175, 34.883 23.883 C 36.047 25.047, 37 27.098, 37 28.441 C 37 29.784, 37.396 31.127, 37.881 31.426 C 39.449 32.395, 39.775 36.942, 38.360 38.116 C 37.612 38.737, 37 39.603, 37 40.040 C 37 40.477, 40.661 44.516, 45.136 49.015 L 53.273 57.196 52.010 62.460 C 50.252 69.787, 51.702 77.187, 59.462 100.500 C 62.940 110.950, 66.082 122.315, 66.443 125.756 C 67.063 131.651, 66.968 132.062, 64.800 132.891 C 63.535 133.375, 61.643 134.722, 60.595 135.885 C 59.117 137.526, 57.517 138, 53.459 138 C 48.410 138, 48.212 138.105, 47.787 141 L 47.346 144 96.173 144 C 136.935 144, 145 143.773, 145 142.625 C 145 137.898, 143.479 134.625, 140.451 132.839 C 137.341 131.004, 137.166 130.567, 136.389 122.711 C 135.942 118.195, 135.718 111.688, 135.891 108.250 C 136.064 104.813, 135.819 102, 135.346 102 C 134.359 102, 132 94.995, 132 92.065 C 132 90.983, 131.325 87.506, 130.500 84.339 C 128.634 77.174, 128.611 73.269, 130.415 69.811 C 132.294 66.210, 133.720 51.437, 132.092 52.443 C 131.236 52.972, 130.966 51.205, 131.083 45.833 C 131.278 36.848, 129.819 28.124, 127.927 26.955 C 127.151 26.476, 124.152 25.788, 121.261 25.427 C 116.831 24.873, 115.529 24.200, 112.968 21.135 C 108.813 16.163, 108.803 16.147, 106.139 10.500 C 104.841 7.750, 103.183 4.375, 102.453 3 L 101.126 0.500 50.563 0.241 L -0 -0.018 -0 71.991 M 135.774 13.250 C 135.246 28.369, 135.592 29.956, 138.808 27.166 C 140.014 26.121, 141.008 24.643, 141.017 23.883 C 141.027 23.122, 142.152 21.440, 143.517 20.145 C 145.798 17.981, 146 17.068, 146 8.895 L 146 0 141.118 0 L 136.236 0 135.774 13.250 M 185.710 2 C 185.184 4.012, 184.427 4.172, 174.339 4.405 C 170.598 4.491, 170.939 6, 174.699 6 C 177.479 6, 179.917 8.429, 179.968 11.250 C 179.989 12.419, 179.236 13, 177.699 13 C 175.979 13, 174.871 14.085, 173.308 17.302 C 171.474 21.078, 171.384 21.904, 172.574 24.052 C 175.375 29.110, 173.901 33.966, 167.400 41.095 C 163.415 45.466, 163.236 45.928, 163.737 50.595 C 164.027 53.293, 164.750 56.400, 165.344 57.500 C 165.939 58.600, 166.317 59.873, 166.186 60.329 C 166.055 60.785, 166.488 65.060, 167.149 69.829 C 168.163 77.146, 168.810 78.990, 171.292 81.641 C 172.910 83.368, 175.194 86.395, 176.367 88.367 C 177.540 90.338, 180.256 94.429, 182.403 97.457 C 186.441 103.151, 188.884 111.770, 188.963 120.595 C 189.003 125.072, 186.787 128, 183.358 128 C 182.267 128, 180.081 129.350, 178.500 131 C 176.166 133.436, 174.805 134, 171.263 134 C 168.864 134, 165.618 134.663, 164.050 135.474 C 161.734 136.672, 161.200 137.609, 161.200 140.474 L 161.200 144 176.600 144 L 192 144 192 72 L 192 0 189.117 0 C 187.074 0, 186.081 0.583, 185.710 2 M 160.015 72.750 C 160.007 74.537, 160.450 76, 161 76 C 162.270 76, 162.270 72.965, 161 71 C 160.264 69.862, 160.027 70.284, 160.015 72.750 M 136.195 98.500 C 136.215 100.150, 136.439 100.704, 136.693 99.731 C 136.947 98.758, 136.930 97.408, 136.656 96.731 C 136.382 96.054, 136.175 96.850, 136.195 98.500 M 151 136.406 C 151 137.145, 150.719 139.156, 150.375 140.875 C 149.778 143.859, 149.895 144, 152.982 144 C 155.528 144, 156.084 143.662, 155.603 142.407 C 155.267 141.531, 154.728 139.764, 154.405 138.479 C 153.764 135.923, 151 134.240, 151 136.406 M 38 142 C 37.060 143.756, 37.240 144, 39.465 144 C 41.333 144, 42 143.474, 42 142 C 42 140.900, 41.341 140, 40.535 140 C 39.730 140, 38.589 140.900, 38 142" stroke="none" fill="black" fill-rule="evenodd"/>
</svg>