<svg xmlns="http://www.w3.org/2000/svg" width="192" height="144" viewBox="0 0 192 144" version="1.1">
	<path d="M 154.912 7.778 C 152.939 9.275, 147.089 14.341, 141.912 19.035 C 133.699 26.483, 118.861 38, 117.479 38 C 117.215 38, 117 36.891, 117 35.535 C 117 34.152, 116.180 32.632, 115.131 32.070 C 112.974 30.916, 112 31.567, 112 34.167 C 112 35.672, 111.198 36, 107.520 36 C 100.873 36, 95.457 38.517, 93.577 42.479 C 92.710 44.307, 92 46.522, 92 47.401 C 92 49.807, 90.512 49.325, 88.955 46.416 C 86.747 42.290, 82.871 40.147, 77.008 39.808 C 72.057 39.523, 71.518 39.240, 69.738 36 C 64.967 27.314, 57.965 23.424, 48.516 24.207 C 37.789 25.097, 30.500 34.541, 30.500 47.551 C 30.500 53.796, 30.840 55.101, 33.308 58.337 C 37.280 63.545, 43.211 66.383, 50.220 66.429 L 55.940 66.467 53.203 69.483 C 47.722 75.525, 45.065 82.966, 49.975 78.523 C 51.609 77.043, 52.234 76.950, 53.494 77.995 C 54.670 78.971, 54.758 79.586, 53.874 80.651 C 52.993 81.713, 53.080 82.442, 54.244 83.769 C 55.081 84.721, 56.078 88.533, 56.461 92.239 C 56.844 95.946, 57.572 99.235, 58.078 99.548 C 58.585 99.862, 59 100.844, 59 101.730 C 59 102.617, 59.768 104.191, 60.706 105.227 C 62.098 106.766, 62.190 107.466, 61.206 109.042 C 59.564 111.672, 59.689 116.206, 61.468 118.559 C 63.158 120.793, 63.472 124, 62 124 C 60.499 124, 60.808 129.109, 62.506 132.364 C 64.233 135.674, 64.436 138, 63 138 C 62.450 138, 62 139.350, 62 141 C 62 142.650, 62.450 144, 63 144 C 63.550 144, 64 143.100, 64 142 C 64 139.256, 66.758 139.465, 67.294 142.250 C 67.608 143.877, 67.765 143.600, 67.864 141.250 C 67.939 139.463, 67.602 138, 67.117 138 C 65.464 138, 65.092 133.765, 66.612 132.245 C 68.320 130.537, 67.688 125.980, 65.220 122.213 C 64.078 120.469, 63.986 119.614, 64.851 118.749 C 66.496 117.104, 66.269 111.469, 64.500 110 C 60.809 106.937, 63.365 104.135, 71.813 101.986 C 74.184 101.383, 76.659 100.685, 77.313 100.435 C 78.175 100.106, 78.607 103.205, 78.892 111.741 C 79.730 136.884, 79.775 136.300, 76.699 140.330 L 73.898 144 107.949 144 C 126.677 144, 142 143.757, 142 143.460 C 142 143.163, 141.069 141.095, 139.930 138.863 C 137.943 134.968, 137.874 133.186, 139.757 134.350 C 140.246 134.652, 141.256 136.745, 142 139 C 142.744 141.255, 143.724 143.329, 144.177 143.609 C 145.166 144.221, 145.295 137.629, 144.313 136.646 C 143.935 136.268, 143.543 135.181, 143.442 134.230 C 143.341 133.278, 142.900 131.600, 142.463 130.500 C 141.831 128.909, 142.104 129.011, 143.801 131 C 146.743 134.449, 146.544 133.126, 143.500 129 C 142.125 127.136, 141 124.831, 141 123.878 C 141 122.925, 138.923 115.700, 136.384 107.822 C 132.183 94.786, 131.757 92.557, 131.638 83 C 131.566 77.225, 131.861 71.223, 132.295 69.662 C 132.962 67.256, 133.315 67.017, 134.610 68.092 C 139.375 72.046, 148.431 47.841, 144.128 42.654 C 142.397 40.568, 135.255 40.493, 132.559 42.532 C 131.491 43.339, 129.929 44, 129.088 44 C 128.218 44, 130.339 41.194, 134 37.500 C 138.023 33.441, 141.264 31, 142.631 31 C 144.925 31, 153 26.217, 153 24.858 C 153 24.425, 152.063 23.569, 150.917 22.956 C 148.969 21.913, 148.947 21.759, 150.570 20.572 C 151.525 19.874, 152.041 18.875, 151.717 18.351 C 151.394 17.828, 153.125 14.731, 155.564 11.469 C 158.004 8.208, 160 5.418, 160 5.270 C 160 4.430, 158.073 5.380, 154.912 7.778 M 91.150 52.950 C 91.370 53.610, 91.876 54.116, 92.275 54.075 C 93.471 53.951, 93.239 52.580, 91.950 52.150 C 91.290 51.930, 90.930 52.290, 91.150 52.950 M 84.784 68.200 C 81.826 70.664, 80.094 71.311, 76.284 71.378 C 73.653 71.424, 70.320 71.098, 68.878 70.654 C 66.579 69.947, 66.173 70.175, 65.590 72.496 C 65.190 74.091, 65.505 76.306, 66.382 78.063 C 67.270 79.844, 67.461 81.215, 66.871 81.580 C 66.028 82.101, 66.636 90.797, 67.591 91.879 C 68.114 92.473, 85.247 86.851, 87.639 85.301 C 89.074 84.371, 90.330 81.720, 91.454 77.242 C 92.973 71.197, 92.983 70.461, 91.565 69.424 C 90.704 68.795, 90 67.542, 90 66.640 C 90 64.357, 89.061 64.638, 84.784 68.200 M 110.500 112.645 C 108.310 117.874, 107.528 127.600, 108.894 132.638 C 109.645 135.407, 111.171 137.656, 113.508 139.439 C 116.795 141.945, 117 141.983, 117 140.086 C 117 138.977, 117.860 137.610, 118.911 137.048 C 119.961 136.485, 121.809 134.426, 123.017 132.472 L 125.213 128.919 123.075 123.201 C 121.711 119.553, 119.339 115.908, 116.526 113.136 L 112.115 108.789 110.500 112.645 M 62 114.417 C 62 116.097, 62.549 117, 63.570 117 C 64.612 117, 65.032 116.271, 64.820 114.828 C 64.348 111.627, 62 111.284, 62 114.417 M 63 128.500 C 63 130.056, 63.567 131, 64.500 131 C 65.433 131, 66 130.056, 66 128.500 C 66 126.944, 65.433 126, 64.500 126 C 63.567 126, 63 126.944, 63 128.500" stroke="none" fill="black" fill-rule="evenodd"/>
</svg>