<svg xmlns="http://www.w3.org/2000/svg" width="192" height="144" viewBox="0 0 192 144" version="1.1">
	<path d="M 102.815 8.950 C 99.355 12.410, 99.131 12.970, 100.001 16.003 C 100.843 18.940, 100.609 19.681, 97.848 22.826 C 96.144 24.767, 94.131 27.835, 93.375 29.645 C 89.861 38.056, 93.308 49.550, 99.852 51.243 C 102.578 51.948, 103.104 52.494, 102.667 54.164 C 102.265 55.704, 103.403 57.420, 107.219 61.021 C 111.717 65.267, 112.696 65.761, 115.654 65.281 C 117.586 64.968, 119 65.162, 119 65.742 C 119 66.872, 110.469 74.997, 109.272 75.006 C 108.848 75.010, 107.763 76.308, 106.863 77.891 C 105.303 80.633, 104.789 80.804, 96.026 81.498 C 89.697 81.999, 86.479 81.879, 85.713 81.113 C 83.821 79.221, 79.296 79.880, 76.182 82.500 C 74.548 83.875, 72.796 85, 72.288 85 C 71.780 85, 69.595 81.637, 67.432 77.526 C 62.767 68.659, 59.253 66.303, 55.818 69.738 L 53.778 71.778 57.490 78.417 C 59.532 82.068, 61.341 86.280, 61.509 87.778 C 63.163 102.512, 63.483 103.068, 73.427 108.489 C 78.123 111.049, 82.850 114.385, 83.931 115.903 C 85.011 117.420, 88.833 120.876, 92.423 123.581 C 99.246 128.723, 99.981 129.941, 97.500 132 C 95.887 133.339, 95.633 135.914, 96.625 140.875 L 97.250 144 122.625 144 C 142.550 144, 148 143.726, 148 142.723 C 148 141.232, 145.297 137.155, 142.879 135 C 141.024 133.346, 139 121.570, 139 112.428 C 139 108.470, 138.581 106.777, 137.500 106.362 C 134.467 105.198, 136.125 104.260, 140.370 104.738 C 143.021 105.037, 145.010 104.792, 145.429 104.115 C 145.808 103.502, 146.991 103, 148.059 103 C 149.127 103, 150 102.550, 150 102 C 150 101.450, 151.116 101, 152.481 101 C 154.293 101, 155.131 100.326, 155.589 98.500 C 156.339 95.514, 158 95.170, 158 98 C 158 99.100, 158.419 100, 158.930 100 C 159.504 100, 159.504 101.243, 158.930 103.243 C 158.419 105.027, 158.010 107.390, 158.022 108.493 C 158.043 110.345, 158.202 110.307, 160.085 108 L 162.125 105.500 161.469 107.832 C 161.109 109.114, 161.129 113.306, 161.515 117.147 C 162.054 122.519, 162.537 124.008, 163.608 123.597 C 164.605 123.214, 165 123.906, 165 126.031 C 165 129.233, 165.834 129.723, 167.925 127.750 C 169.013 126.724, 169.157 127.024, 168.730 129.426 C 168.414 131.207, 168.749 132.892, 169.587 133.730 C 170.757 134.900, 171.284 134.609, 173.089 131.804 C 174.257 129.987, 174.925 129.363, 174.574 130.417 C 174.222 131.472, 173.660 134.959, 173.325 138.167 L 172.715 144 182.358 144 L 192 144 192 110.632 L 192 77.264 185.729 73.596 C 177.287 68.659, 171.068 63.195, 165.578 55.892 C 161.781 50.841, 160.893 50.125, 160.323 51.657 C 158.287 57.126, 142.408 75, 139.585 75 C 137.951 75, 136.994 72.829, 137.015 69.168 C 137.033 66.008, 138.886 62.850, 139.641 64.694 C 140.626 67.101, 143 64.768, 143 61.393 C 143 59.527, 143.450 58, 144 58 C 144.550 58, 145 58.450, 145 59 C 145 59.550, 145.408 60, 145.906 60 C 146.405 60, 147.117 57.787, 147.489 55.081 C 148.021 51.210, 147.719 49.153, 146.069 45.424 C 144.916 42.817, 143.268 37.963, 142.406 34.637 C 141.544 31.310, 140.203 27.360, 139.427 25.859 C 137.439 22.014, 127.189 14.397, 122.194 13.052 C 119.887 12.431, 118 11.320, 118 10.584 C 118 8.493, 115.345 6.795, 110.769 5.958 C 106.817 5.235, 106.356 5.408, 102.815 8.950 M 134.079 68.583 C 134.127 69.748, 134.364 69.985, 134.683 69.188 C 134.972 68.466, 134.936 67.603, 134.604 67.271 C 134.272 66.939, 134.036 67.529, 134.079 68.583 M 95.892 83.707 L 89.284 85.218 90.892 90.398 C 92.670 96.125, 98.659 104.321, 99.319 101.931 C 99.537 101.144, 100.430 98.025, 101.305 95 C 103.199 88.449, 104.146 81.961, 103.187 82.098 C 102.809 82.152, 99.526 82.876, 95.892 83.707 M 79 95 C 80.175 96.650, 81.361 98, 81.636 98 C 81.911 98, 81.175 96.650, 80 95 C 78.825 93.350, 77.639 92, 77.364 92 C 77.089 92, 77.825 93.350, 79 95 M 134.723 113.332 C 133.610 116.152, 133.944 121.181, 135.464 124.500 L 136.838 127.500 136.800 122.500 C 136.780 119.750, 136.467 116.150, 136.104 114.500 C 135.557 112.011, 135.322 111.812, 134.723 113.332" stroke="none" fill="black" fill-rule="evenodd"/>
</svg>