<svg xmlns="http://www.w3.org/2000/svg" width="192" height="144" viewBox="0 0 192 144" version="1.1">
	<path d="M 0 72 L 0 144 57.429 144 L 114.858 144 115.813 138.750 C 116.338 135.863, 117.289 130.677, 117.928 127.226 C 119.251 120.072, 118.837 118.752, 115.532 119.581 C 112.199 120.418, 109.272 118.514, 108.502 115.008 C 108.138 113.354, 107.427 112, 106.921 112 C 105.438 112, 105.862 104.574, 107.579 100.466 C 108.447 98.388, 109.773 93.495, 110.524 89.594 C 111.276 85.692, 112.444 80.352, 113.119 77.727 C 114.318 73.070, 114.275 72.875, 111.372 69.727 C 105.982 63.882, 105.734 63.369, 107.077 60.814 C 107.745 59.541, 110.101 56.324, 112.311 53.665 L 116.329 48.830 112.664 42.045 C 108.713 34.729, 108.035 30.584, 110.627 29.590 C 113.148 28.622, 114.519 30.417, 117.495 38.576 C 119.527 44.146, 120.628 45.973, 121.705 45.560 C 122.507 45.252, 123.352 45, 123.582 45 C 123.812 45, 124.003 43.987, 124.006 42.750 C 124.023 35.785, 128.205 29, 132.480 29 C 136.308 29, 136.477 30.913, 132.969 34.532 C 129.981 37.614, 129.765 38.266, 130.337 42.439 C 130.680 44.941, 132.153 49.343, 133.612 52.221 C 135.756 56.453, 136.336 59.180, 136.639 66.477 C 137.091 77.337, 138.383 84.898, 140.577 89.521 C 141.698 91.884, 142.038 94.438, 141.669 97.726 C 141.373 100.352, 141.029 105.802, 140.902 109.837 C 140.701 116.242, 140.407 117.275, 138.586 117.965 C 136.600 118.719, 136.515 119.359, 136.807 131.394 L 137.115 144.031 164.807 143.766 L 192.500 143.500 192.757 71.750 L 193.013 0 96.507 0 L 0 0 0 72 M 0.474 72.500 C 0.474 112.100, 0.598 128.154, 0.750 108.176 C 0.901 88.198, 0.901 55.798, 0.750 36.176 C 0.598 16.554, 0.474 32.900, 0.474 72.500 M 126.315 134.500 C 125.686 136.150, 124.706 138.963, 124.138 140.750 C 123.131 143.915, 123.181 144, 126.052 144 C 129.305 144, 129.528 143.106, 128.172 135.500 L 127.458 131.500 126.315 134.500" stroke="none" fill="black" fill-rule="evenodd"/>
</svg>