<svg xmlns="http://www.w3.org/2000/svg" width="192" height="144" viewBox="0 0 192 144" version="1.1">
	<path d="M 0 72.048 L 0 144.095 6.159 143.798 L 12.317 143.500 14.164 138.055 C 15.401 134.406, 15.679 132.279, 15.005 131.605 C 13.460 130.060, 13.812 125.865, 15.658 123.825 C 16.813 122.549, 17.262 120.438, 17.136 116.876 C 17.036 114.054, 17.501 111.101, 18.173 110.291 C 18.843 109.484, 20.201 106.525, 21.190 103.717 C 22.592 99.736, 22.714 98.439, 21.744 97.834 C 19.770 96.601, 22.023 93.916, 28.108 90.254 C 33.756 86.854, 33.745 86.704, 27.852 86.972 C 25.845 87.064, 23.906 86.657, 23.543 86.069 C 22.483 84.355, 19.811 84.829, 17.314 87.174 C 15.099 89.256, 13.899 88.501, 16.032 86.368 C 16.600 85.800, 18.784 78.847, 20.886 70.918 C 22.987 62.988, 24.885 55.845, 25.103 55.045 C 25.321 54.245, 24.984 53.570, 24.353 53.545 C 23.722 53.520, 21.337 51.998, 19.053 50.163 C 15.492 47.301, 15.085 46.601, 16.200 45.251 C 16.915 44.385, 17.500 42.737, 17.500 41.588 C 17.500 39.825, 18.123 39.494, 21.508 39.459 C 26.853 39.404, 28 38.523, 28 34.469 C 28 29.733, 32.137 20.849, 36.148 16.973 C 41.172 12.117, 45.069 10.848, 54.213 11.090 C 62.118 11.299, 62.252 11.261, 67.125 7.401 C 69.834 5.255, 72.588 3.500, 73.245 3.500 C 73.903 3.500, 75.296 6.362, 76.340 9.861 C 77.765 14.631, 79.196 17.085, 82.062 19.675 C 87.695 24.764, 90 30.248, 90.001 38.566 C 90.001 43.118, 90.700 47.339, 92.036 50.855 C 94.279 56.756, 93.552 59.219, 89.851 58.251 C 87.847 57.727, 87.794 57.984, 88.311 65.604 C 89.112 77.426, 91.090 87.151, 93.220 89.750 C 93.890 90.567, 93.898 91, 93.245 91 C 92.695 91, 91.685 90.325, 91 89.500 C 89.450 87.632, 87.592 87.582, 86.110 89.367 C 85.246 90.408, 85.341 91.038, 86.504 92.003 C 87.345 92.701, 87.913 94.224, 87.767 95.386 C 87.620 96.549, 88.615 100.763, 89.977 104.750 C 91.842 110.211, 92.906 112, 94.286 112 C 95.382 112, 95.840 112.449, 95.427 113.118 C 94.255 115.015, 93.127 121.167, 93.685 122.621 C 93.976 123.380, 94.841 124, 95.607 124 C 96.726 124, 97 121.445, 97 111 L 97 98 101.878 98 C 104.693 98, 107.217 98.557, 107.848 99.317 C 108.497 100.099, 108.753 103.047, 108.477 106.567 C 107.814 115.020, 106 141.670, 106 142.948 C 106 143.700, 118.954 143.943, 149.250 143.761 L 192.500 143.500 192.757 71.750 L 193.013 0 96.507 0 L 0 0 0 72.048 M 0.474 72.500 C 0.474 112.100, 0.598 128.154, 0.750 108.176 C 0.901 88.198, 0.901 55.798, 0.750 36.176 C 0.598 16.554, 0.474 32.900, 0.474 72.500 M 105 8 C 105 8.550, 105.450 9, 106 9 C 106.550 9, 107 8.550, 107 8 C 107 7.450, 106.550 7, 106 7 C 105.450 7, 105 7.450, 105 8 M 18.750 24.749 C 16.576 25.243, 16.567 26.024, 18.685 30.466 C 20.945 35.206, 22 34.917, 22 29.559 C 22 24.828, 21.522 24.120, 18.750 24.749 M 174.500 51 C 174.840 51.550, 175.568 52, 176.118 52 C 176.668 52, 176.840 51.550, 176.500 51 C 176.160 50.450, 175.432 50, 174.882 50 C 174.332 50, 174.160 50.450, 174.500 51 M 151.667 83.667 C 151.300 84.033, 151 84.937, 151 85.675 C 151 86.752, 151.383 86.778, 152.935 85.808 C 154 85.144, 154.648 84.240, 154.376 83.800 C 153.774 82.826, 152.567 82.767, 151.667 83.667 M 95.015 132.191 C 95.024 132.911, 95.467 134.175, 96 135 C 96.788 136.219, 96.972 136.090, 96.985 134.309 C 96.993 133.104, 96.550 131.840, 96 131.500 C 95.450 131.160, 95.007 131.471, 95.015 132.191 M 78.535 136.500 C 78.151 137.600, 77.424 139.534, 76.919 140.797 C 75.712 143.813, 75.744 144, 77.455 144 C 78.321 144, 79.171 142.606, 79.556 140.554 C 80.327 136.443, 79.584 133.493, 78.535 136.500" stroke="none" fill="black" fill-rule="evenodd"/>
</svg>