<svg xmlns="http://www.w3.org/2000/svg" width="192" height="144" viewBox="0 0 192 144" version="1.1">
	<path d="M 0 72 L 0 144 14.939 144 L 29.877 144 30.535 139.617 C 31.611 132.441, 31.113 131.541, 25.879 131.201 C 22.116 130.956, 21.072 130.455, 20.160 128.451 C 19.248 126.450, 18.315 126, 15.080 126 C 12.901 126, 10.833 125.538, 10.484 124.973 C 10.135 124.409, 9.096 124.071, 8.175 124.223 C 6.531 124.495, 6.496 124.227, 7.409 118.351 C 7.507 117.719, 8.061 116.594, 8.639 115.851 C 9.217 115.108, 10.002 113.825, 10.384 113 C 11.786 109.971, 13.843 106.714, 14.732 106.115 C 15.919 105.315, 24.375 92.144, 26.979 87.041 C 29.391 82.313, 29.504 81, 27.500 81 C 26.498 81, 26 82.002, 26 84.019 C 26 86.698, 25.732 86.971, 23.623 86.442 C 21.750 85.971, 20.783 86.497, 19.055 88.923 C 16.112 93.056, 15 92.797, 15 87.979 C 15 84.659, 15.437 83.758, 17.500 82.818 C 20.447 81.475, 20.513 80.860, 18.374 74.586 C 17.106 70.862, 16.914 68.134, 17.502 62.157 C 18.606 50.933, 18.291 43.511, 16.440 37.146 C 15.416 33.626, 15.018 29.894, 15.382 27.235 C 15.939 23.167, 15.859 22.997, 13.659 23.550 C 9.934 24.484, 8.539 21.856, 11.060 18.651 C 13.524 15.519, 12.818 13.757, 9.439 14.605 C 8.030 14.958, 7 14.780, 7 14.182 C 7 13.612, 6.213 12.909, 5.250 12.619 C 4.287 12.328, 6.650 12.247, 10.500 12.439 C 14.350 12.630, 18.255 12.387, 19.178 11.897 C 21.767 10.523, 24.239 11.911, 23.617 14.389 C 23.127 16.340, 23.430 16.480, 27.449 16.161 C 32.500 15.759, 36 18.330, 36 22.441 C 36 23.784, 36.396 25.127, 36.881 25.426 C 38.533 26.448, 38.835 31.308, 37.338 32.805 C 36.069 34.074, 36.948 35.283, 44.325 42.415 L 52.764 50.574 52.504 59.037 C 52.193 69.152, 53.547 76.110, 59.644 95.722 C 63.092 106.816, 64.363 112.681, 64.741 119.250 C 65.221 127.588, 65.147 128, 63.179 128 C 62.043 128, 60.502 128.873, 59.754 129.941 C 58.750 131.374, 56.971 131.963, 52.947 132.191 L 47.500 132.500 46.988 138.250 L 46.476 144 68.681 144 L 90.886 144 87.404 136.359 C 85.489 132.157, 82.252 126.812, 80.211 124.482 C 73.288 116.579, 70.862 103.111, 74.927 95.143 C 77.338 90.417, 78.722 89.265, 82.500 88.838 C 85.383 88.513, 85.512 88.286, 85.811 83.012 C 85.990 79.838, 86.778 76.798, 87.679 75.802 C 88.536 74.856, 89.460 72.101, 89.733 69.680 C 90.282 64.805, 89.264 62.653, 82.787 55 C 80.693 52.525, 78.397 49.800, 77.685 48.945 C 75.093 45.832, 70 17.121, 70 5.622 L 70 0 35 0 L 0 0 0 72 M 37.989 134.250 C 37.983 134.387, 37.330 136.637, 36.537 139.250 L 35.096 144 38.029 144 C 40.323 144, 41.098 143.456, 41.589 141.500 C 42.443 138.100, 41.290 134, 39.481 134 C 38.666 134, 37.995 134.113, 37.989 134.250" stroke="none" fill="black" fill-rule="evenodd"/>
</svg>