<svg xmlns="http://www.w3.org/2000/svg" width="192" height="144" viewBox="0 0 192 144" version="1.1">
	<path d="M 54.500 18.856 C 46.233 22.795, 40 31.891, 40 40.018 C 40 45.190, 41.824 48.705, 46.876 53.269 C 50.804 56.818, 53.484 57.729, 61.500 58.243 L 65.500 58.500 59.500 62.056 C 55.457 64.451, 53.497 66.245, 53.491 67.556 C 53.486 68.625, 52.923 70.483, 52.241 71.684 C 50.746 74.316, 50.624 77, 52 77 C 52.550 77, 53 76.550, 53 76 C 53 74.756, 55.025 74.730, 56.954 75.950 C 58.198 76.737, 58.210 77.238, 57.040 79.425 C 55.863 81.625, 55.886 82.225, 57.205 83.740 C 58.230 84.917, 58.923 88.533, 59.297 94.649 C 59.605 99.681, 60.436 104.726, 61.144 105.859 C 62.149 107.468, 62.178 108.640, 61.275 111.210 C 60.071 114.636, 60.585 120, 62.117 120 C 62.602 120, 63 121.125, 63 122.500 C 63 123.875, 62.550 125, 62 125 C 60.387 125, 60.853 131.345, 62.654 133.916 C 63.961 135.782, 64.066 136.665, 63.154 138.125 C 62.519 139.141, 62.052 140.991, 62.116 142.236 C 62.203 143.930, 62.347 144.059, 62.689 142.750 C 63.247 140.616, 66 140.408, 66 142.500 C 66 143.325, 66.450 144, 67 144 C 68.430 144, 68.235 141.681, 66.526 138.388 C 65.570 136.545, 65.395 135.205, 66.026 134.574 C 67.284 133.316, 67.295 125.301, 66.041 124.525 C 65.488 124.184, 65.332 121.253, 65.672 117.606 C 66.066 113.386, 65.886 111.048, 65.132 110.581 C 63.404 109.514, 63.784 106.183, 65.750 105.160 C 67.248 104.380, 79 102.948, 79 103.546 C 79 103.661, 78.287 105.461, 77.417 107.545 C 76.137 110.608, 75.897 114.470, 76.167 127.667 L 76.500 143.999 92.250 144 C 104.507 144, 108 143.712, 108 142.700 C 108 141.985, 107.499 140.899, 106.887 140.287 C 106.276 139.676, 105.721 136.323, 105.654 132.837 C 105.561 127.958, 106.099 125.350, 107.991 121.500 C 109.686 118.052, 110.560 117.060, 110.808 118.303 C 111.075 119.642, 111.496 119.833, 112.445 119.045 C 113.449 118.212, 114.087 119.861, 115.419 126.742 C 116.352 131.559, 117.344 136.285, 117.623 137.244 C 117.959 138.398, 117.686 138.820, 116.815 138.492 C 116.073 138.212, 114.758 139.304, 113.797 140.998 L 112.093 144 123.919 144 L 135.745 144 139.873 139.522 C 142.227 136.969, 144 134.052, 144 132.734 C 144 129.364, 140.969 123.953, 135.487 117.536 L 130.668 111.896 131.932 102.237 C 133.015 93.954, 136.108 81.336, 137.704 78.690 C 137.972 78.245, 138.794 78.695, 139.529 79.690 C 140.781 81.384, 141.120 81.254, 144.830 77.648 C 151.940 70.738, 156.494 59.660, 154.079 55.148 C 152.502 52.201, 146.662 51.314, 142.355 53.368 C 134.609 57.062, 135.225 54.679, 143.794 47.804 C 149.627 43.124, 151.076 42.409, 154.044 42.745 C 156.172 42.986, 159.361 42.308, 162.342 40.981 L 167.184 38.825 165.008 36.509 C 162.959 34.327, 162.936 34.135, 164.619 33.193 C 166.025 32.406, 166.156 31.893, 165.234 30.782 C 164.289 29.644, 165.123 28.323, 169.531 23.969 C 172.539 20.999, 175 18.206, 175 17.764 C 175 16.417, 167.022 20.911, 157.026 27.888 C 149.160 33.377, 131.567 44, 130.340 44 C 130.153 44, 130 43.311, 130 42.469 C 130 39.957, 127.025 39.520, 125.430 41.797 C 124.204 43.547, 123.500 43.717, 120.750 42.928 C 116.208 41.626, 108.956 41.799, 106.030 43.279 C 101.045 45.802, 96.927 55.073, 100.250 56.292 C 101.202 56.641, 101.223 57.045, 100.337 57.988 C 98.538 59.903, 97 58.245, 97 54.391 C 97 47.703, 92.066 41.606, 85.560 40.254 C 81.264 39.362, 80.392 38.273, 79.497 32.690 C 78.828 28.512, 73.478 21.816, 68.930 19.464 C 64.149 16.992, 58.878 16.769, 54.500 18.856 M 69.302 71.369 C 68.550 73.818, 68.605 75.718, 69.502 78.329 C 70.260 80.534, 70.363 82.046, 69.770 82.243 C 69.183 82.439, 69.085 84.830, 69.520 88.313 C 70.124 93.148, 70.513 93.972, 71.973 93.509 C 72.927 93.206, 77.465 92.297, 82.057 91.490 C 86.649 90.683, 90.937 89.455, 91.585 88.761 C 92.233 88.067, 93.734 84.848, 94.921 81.607 L 97.079 75.713 94.935 73.431 C 93.755 72.175, 93.091 70.662, 93.459 70.067 C 94.646 68.146, 90.861 67.651, 87.984 69.350 C 84.577 71.363, 77.393 71.440, 74 69.500 C 70.557 67.532, 70.468 67.567, 69.302 71.369 M 62 115.500 C 62 117.056, 62.567 118, 63.500 118 C 64.433 118, 65 117.056, 65 115.500 C 65 113.944, 64.433 113, 63.500 113 C 62.567 113, 62 113.944, 62 115.500 M 63 129.500 C 63 131.056, 63.567 132, 64.500 132 C 65.433 132, 66 131.056, 66 129.500 C 66 127.944, 65.433 127, 64.500 127 C 63.567 127, 63 127.944, 63 129.500" stroke="none" fill="black" fill-rule="evenodd"/>
</svg>