<svg xmlns="http://www.w3.org/2000/svg" width="192" height="144" viewBox="0 0 192 144" version="1.1">
	<path d="M 100.397 31.591 C 100.732 32.466, 100.278 34.719, 99.387 36.598 C 98.141 39.222, 98.035 40.337, 98.925 41.410 C 101.052 43.972, 101.836 48.429, 100.397 49.774 C 98.804 51.262, 99.501 53.618, 102.537 57 C 105.007 59.751, 105.254 64.417, 103.188 69.315 C 102.534 70.863, 102 72.812, 102 73.645 C 102 74.477, 100.851 78.032, 99.446 81.544 C 97.450 86.531, 97.125 88.365, 97.959 89.923 C 98.719 91.343, 98.709 93.301, 97.927 96.709 C 97.323 99.344, 96.637 102.625, 96.403 104 C 96.170 105.375, 95.768 107.443, 95.510 108.594 C 95.204 109.958, 95.905 111.502, 97.520 113.019 C 98.884 114.300, 100.007 115.833, 100.015 116.424 C 100.051 118.934, 102.124 120.381, 106.663 121.063 C 116.369 122.520, 126.234 124.834, 127.304 125.904 C 128.675 127.275, 132 127.343, 132 126 C 132 125.450, 131.186 125, 130.191 125 C 129.196 125, 127.509 124.325, 126.441 123.500 C 124.561 122.047, 124.558 121.955, 126.342 120.572 C 128.057 119.243, 127.920 119.071, 124.342 118.078 C 122.229 117.491, 119.938 117.009, 119.250 117.006 C 117.280 116.997, 117.775 115.754, 120.668 113.447 C 124.065 110.739, 123.283 108, 119.113 108 C 112.740 108, 111.905 106.233, 114.121 97.432 C 115.014 93.889, 115.918 92.658, 118.544 91.412 C 122.968 89.313, 123.392 87.666, 120.929 82.155 C 116.780 72.875, 115.622 68.367, 115.562 61.252 L 115.500 54.005 120.281 54.002 C 125.368 54, 127.274 52.240, 125.069 49.583 C 124.406 48.784, 124.196 47.066, 124.577 45.549 C 125.165 43.208, 125.426 43.069, 126.870 44.323 C 129.174 46.325, 131 45.315, 131 42.039 C 131 38.628, 128.357 35.905, 127.419 38.349 C 126.585 40.523, 123.484 41.330, 121.023 40.012 C 119.415 39.152, 118.850 39.228, 118.413 40.367 C 118.106 41.166, 116.753 42.096, 115.406 42.434 C 113.356 42.949, 113.123 43.361, 113.978 44.959 C 115.345 47.514, 115.271 48, 113.511 48 C 112.586 48, 112.083 47.148, 112.183 45.750 C 112.272 44.513, 112.021 41.025, 111.627 38 C 110.914 32.535, 110.887 32.499, 107.316 32.311 C 105.340 32.208, 103.245 31.645, 102.661 31.061 C 101.066 29.466, 99.704 29.785, 100.397 31.591 M 50.125 35.045 C 48.894 36.710, 46.674 38.316, 45.193 38.613 C 42.766 39.101, 42.500 39.582, 42.500 43.492 C 42.500 45.878, 42.837 48.168, 43.250 48.582 C 43.663 48.995, 44 50.383, 44 51.667 C 44 52.950, 44.450 54, 45 54 C 45.550 54, 46 54.450, 46 55 C 46 55.550, 45.361 56, 44.579 56 C 43.797 56, 42.899 57.347, 42.579 59 C 42.261 60.650, 41.761 63.249, 41.470 64.775 C 40.873 67.900, 33.536 73, 29.637 73 C 26.375 73, 18.335 70.109, 16.948 68.437 C 16.301 67.657, 14.810 67.222, 13.636 67.470 C 12.461 67.718, 8.912 68.421, 5.750 69.032 C 0.633 70.020, 0 70.409, 0 72.571 C 0 73.907, 0.415 75, 0.923 75 C 1.431 75, 9.296 78.375, 18.402 82.500 C 29.023 87.312, 36.229 90, 38.505 90 C 42.037 90, 42.046 90.011, 40.689 92.750 C 39.939 94.263, 39.242 97.300, 39.139 99.500 C 38.977 102.974, 39.548 104.148, 43.476 108.423 C 47.889 113.226, 48.879 115, 47.146 115 C 45.440 115, 41.033 119.922, 41.545 121.256 C 41.834 122.010, 41.156 123.454, 40.039 124.465 C 38.625 125.744, 38.309 126.668, 39.001 127.501 C 39.721 128.369, 38.917 129.185, 36.083 130.462 L 32.172 132.226 24.820 127.093 L 17.468 121.960 10.021 124.493 C 5.926 125.886, 2.222 127.378, 1.791 127.809 C 1.361 128.239, 5.148 132.059, 10.208 136.296 L 19.407 144 33.704 144 C 41.567 144, 48 143.781, 48 143.514 C 48 143.247, 46.200 141.837, 44 140.381 C 39.122 137.153, 38.811 135.525, 43.250 136.451 C 51.766 138.228, 54.454 138.115, 58 135.834 C 59.925 134.595, 63.188 132.798, 65.250 131.840 C 67.313 130.882, 69 129.411, 69 128.572 C 69 126.778, 65.643 124.417, 61.724 123.453 C 58.823 122.740, 57.016 120.402, 56.978 117.316 C 56.965 116.317, 55.672 112.871, 54.104 109.659 L 51.253 103.817 53.378 101.347 C 54.754 99.747, 56.957 98.681, 59.630 98.323 C 61.899 98.018, 64.950 96.809, 66.408 95.635 L 69.060 93.500 64.541 87.500 C 62.055 84.200, 60.016 81.085, 60.011 80.579 C 60.005 80.072, 59.276 78.858, 58.391 77.880 C 56.280 75.547, 55.480 66.669, 57.042 62.899 C 58.075 60.405, 58.007 59.666, 56.607 58.118 C 55.099 56.452, 55.092 56.168, 56.529 54.976 C 57.732 53.978, 58.016 52.283, 57.718 47.881 C 57.502 44.700, 56.821 41.490, 56.205 40.747 C 55.588 40.004, 55.318 38.502, 55.603 37.409 C 55.918 36.207, 55.380 34.749, 54.243 33.720 C 52.454 32.101, 52.254 32.166, 50.125 35.045 M 162.496 34.250 C 162.933 35.509, 154.998 42, 153.023 42 C 152.439 42, 152.171 43.013, 152.426 44.250 C 152.682 45.487, 153.154 48.542, 153.475 51.038 C 154.045 55.470, 153.981 55.605, 150.709 56.788 C 146.152 58.436, 145.319 58.326, 144.710 56 C 144.130 53.781, 140.575 53.260, 139.365 55.218 C 138.951 55.888, 138.501 58.340, 138.363 60.669 C 138.078 65.515, 139.832 66.775, 144.433 65.025 C 145.916 64.461, 147.276 64, 147.454 64 C 147.753 64, 149.210 70.208, 149.449 72.500 C 149.507 73.050, 150.526 73.398, 151.715 73.273 C 153.596 73.075, 153.107 74.206, 147.938 82.013 C 140.713 92.924, 140.473 95.008, 146.147 97.566 C 153.108 100.705, 153.262 101.147, 149.935 108.484 C 148.321 112.044, 147 115.645, 147 116.488 C 147 117.330, 146.100 118.790, 145 119.732 C 142.046 122.261, 142.531 123.720, 147.097 126.049 C 152.129 128.617, 151.624 129.515, 146 128 C 143.689 127.378, 141.672 127.011, 141.518 127.184 C 141.363 127.358, 141.460 128.963, 141.732 130.750 C 142.092 133.115, 142.749 134, 144.145 134 C 145.200 134, 146.322 133.325, 146.638 132.500 C 147.460 130.360, 149.639 130.647, 151.374 133.124 C 152.538 134.785, 152.610 135.651, 151.706 137.099 C 150.765 138.606, 150.900 139.206, 152.428 140.323 C 153.461 141.079, 153.985 142.215, 153.594 142.848 C 153.102 143.644, 154.116 144, 156.871 144 C 160.247 144, 160.910 143.654, 161.180 141.750 C 161.427 140.011, 162.181 139.481, 164.500 139.418 C 169.398 139.283, 169.878 139.097, 171.068 136.873 C 172.035 135.065, 171.816 134.384, 169.603 132.333 C 167.482 130.366, 167 129.012, 167 125.025 C 167 122.333, 166.575 119.011, 166.055 117.644 C 165.535 116.276, 165.152 111.859, 165.204 107.829 C 165.256 103.798, 165.372 93.750, 165.463 85.500 C 165.553 77.250, 165.963 67.951, 166.375 64.835 L 167.123 59.169 175.561 58.466 C 180.203 58.080, 184 57.333, 184 56.807 C 184 56.215, 180.519 56.122, 174.891 56.562 C 166.138 57.247, 165.822 57.201, 166.801 55.371 C 167.362 54.324, 167.946 51.419, 168.100 48.916 C 168.324 45.268, 167.854 43.675, 165.729 40.890 C 163.940 38.543, 163.266 36.698, 163.656 35.207 C 163.989 33.932, 163.775 33, 163.148 33 C 162.551 33, 162.258 33.563, 162.496 34.250 M 116 45 C 116 45.550, 116.450 46, 117 46 C 117.550 46, 118 45.550, 118 45 C 118 44.450, 117.550 44, 117 44 C 116.450 44, 116 44.450, 116 45 M 42.667 76.667 C 41.516 77.817, 41.938 79, 43.500 79 C 44.325 79, 45 78.325, 45 77.500 C 45 75.938, 43.817 75.516, 42.667 76.667 M 102.296 96.750 C 101.416 98.813, 100.651 102.300, 100.597 104.500 L 100.500 108.500 104.486 108.177 C 106.678 108, 108.746 107.412, 109.080 106.870 C 109.415 106.329, 109.782 102.987, 109.897 99.443 L 110.106 93 107.002 93 C 104.366 93, 103.656 93.566, 102.296 96.750 M 44.543 100.931 C 44.226 101.443, 44.378 102.115, 44.879 102.425 C 45.380 102.735, 46.048 102.316, 46.364 101.494 C 46.986 99.874, 45.483 99.409, 44.543 100.931 M 158.030 102.412 C 158.014 103.464, 156.682 106.389, 155.071 108.912 C 153.460 111.436, 151.848 114.689, 151.489 116.143 C 150.864 118.677, 151.026 118.801, 155.418 119.150 C 159.899 119.506, 160.003 119.448, 160.148 116.507 C 160.525 108.823, 160.208 104.199, 159.180 102.428 C 158.083 100.539, 158.060 100.538, 158.030 102.412 M 49 120.500 C 48.246 121.408, 48.166 122, 48.796 122 C 50.633 122, 53 120.814, 53 119.893 C 53 118.462, 50.359 118.863, 49 120.500 M 114.500 120 C 114.840 120.550, 116.415 121, 118 121 C 119.585 121, 121.160 120.550, 121.500 120 C 121.874 119.395, 120.491 119, 118 119 C 115.509 119, 114.126 119.395, 114.500 120 M 38.640 131.617 C 37.062 132.479, 36.165 133.558, 36.640 134.023 C 37.973 135.331, 44.500 133.628, 44.500 131.973 C 44.500 129.935, 41.996 129.783, 38.640 131.617" stroke="none" fill="black" fill-rule="evenodd"/>
</svg>