<svg xmlns="http://www.w3.org/2000/svg" width="192" height="144" viewBox="0 0 192 144" version="1.1">
	<path d="M 0.016 35.250 L 0.033 70.500 2.442 66.500 C 13.108 48.791, 15.183 43.351, 13.892 36.473 C 13.379 33.738, 13.233 30.244, 13.568 28.709 C 14.126 26.153, 13.973 25.969, 11.764 26.523 C 8.062 27.452, 6.276 24.755, 8.423 21.477 C 10.430 18.414, 10.073 17.731, 4.970 14.863 C -2.620 10.597, 1.536 10.764, 10.155 15.071 C 11.101 15.544, 13.072 15.422, 14.757 14.785 C 18.653 13.315, 21.341 14.349, 20.501 16.996 C 19.945 18.748, 20.158 18.894, 22.182 18.148 C 26.253 16.649, 31.635 17.903, 32.883 20.643 C 33.497 21.991, 34 23.748, 34 24.547 C 34 25.346, 34.414 26, 34.921 26 C 36.440 26, 37.299 31.934, 36.006 33.493 C 35.078 34.611, 35.320 35.328, 37.167 36.943 C 38.450 38.064, 41.587 40.898, 44.138 43.241 C 46.689 45.583, 49.581 47.979, 50.566 48.563 C 52.100 49.475, 52.382 51.258, 52.539 61.063 C 52.736 73.316, 54.244 80.237, 61.563 102.500 C 65.767 115.285, 67.323 128, 64.683 128 C 63.814 128, 61.883 129.131, 60.391 130.513 C 58.003 132.726, 57.104 132.950, 52.857 132.387 C 47.464 131.671, 47.539 131.590, 46.513 139.250 L 45.877 144 74.939 144 C 107.071 144, 108.356 143.707, 99.250 138.446 C 93.360 135.043, 84.557 125.829, 82.103 120.500 C 77.762 111.071, 77.690 110.541, 78.424 93.536 C 79.169 76.278, 78.513 71.238, 74.819 65.846 C 73.818 64.386, 73 61.454, 73 59.331 C 73 57.208, 72.139 53.863, 71.086 51.899 C 67.914 45.982, 67.870 36.130, 71 33 C 72.100 31.900, 73.004 30.212, 73.010 29.250 C 73.015 28.287, 74.556 25.567, 76.434 23.205 C 79.617 19.201, 79.879 19.065, 80.288 21.205 C 80.571 22.680, 80.776 22.161, 80.864 19.750 C 80.968 16.890, 81.417 16, 82.759 16 C 84.267 16, 84.559 14.858, 84.807 8 L 85.095 0 42.548 0 L 0 0 0.016 35.250 M 29.167 62.750 C 28.670 63.712, 27.940 66.284, 27.546 68.465 C 27.151 70.646, 26.192 73.662, 25.414 75.166 C 24.636 76.670, 24 79.957, 24 82.469 C 24 86.807, 23.877 87.007, 21.572 86.429 C 19.578 85.928, 18.860 86.371, 17.547 88.910 C 16.668 90.609, 15.558 92, 15.081 92 C 13.993 92, 13.008 89.506, 12.975 86.668 C 12.942 83.839, 5.033 75.329, 3.996 77.007 C 2.909 78.765, 1.840 76.591, 2.684 74.340 C 3.292 72.719, 3.173 72.664, 1.687 73.872 C 0.164 75.112, 0 78.578, 0 109.622 L 0 144 14.885 144 L 29.770 144 30.474 138.364 C 31.265 132.035, 30.434 130.796, 25.690 131.233 C 23.778 131.409, 22.339 130.796, 21.190 129.316 C 19.914 127.673, 18.153 127.040, 14 126.730 L 8.500 126.319 8.816 122.410 C 8.990 120.259, 9.553 118.073, 10.066 117.550 C 10.580 117.028, 11 115.776, 11 114.769 C 11 113.761, 11.675 112.678, 12.500 112.362 C 13.325 112.045, 14 111.229, 14 110.548 C 14 109.867, 14.889 108.506, 15.974 107.523 C 17.060 106.540, 18.244 104.783, 18.606 103.618 C 18.967 102.453, 20.072 100.349, 21.062 98.943 C 22.052 97.536, 24.540 93.041, 26.591 88.954 C 30.117 81.928, 30.329 80.965, 30.478 71.262 C 30.564 65.618, 30.508 61, 30.353 61 C 30.197 61, 29.664 61.788, 29.167 62.750 M 21.079 63.583 C 21.127 64.748, 21.364 64.985, 21.683 64.188 C 21.972 63.466, 21.936 62.603, 21.604 62.271 C 21.272 61.939, 21.036 62.529, 21.079 63.583 M 36.098 66.500 C 36.131 69.990, 36.268 70.226, 37.175 68.353 C 37.900 66.853, 37.889 65.646, 37.137 64.353 C 36.242 62.811, 36.067 63.172, 36.098 66.500 M 37.122 136.250 C 36.666 137.488, 35.993 139.738, 35.627 141.250 C 35.013 143.790, 35.193 144, 37.981 144 C 40.937 144, 41 143.896, 41 139 C 41 135.186, 40.638 134, 39.475 134 C 38.637 134, 37.578 135.012, 37.122 136.250" stroke="none" fill="black" fill-rule="evenodd"/>
</svg>