<svg xmlns="http://www.w3.org/2000/svg" width="192" height="144" viewBox="0 0 192 144" version="1.1">
	<path d="M 109.250 10.341 C 106.912 10.915, 105 11.957, 105 12.657 C 105 13.357, 104.144 14.388, 103.098 14.948 C 100.815 16.169, 96 25.473, 96 28.663 C 96 29.934, 97.576 32.510, 99.582 34.515 C 102.393 37.326, 102.919 38.393, 102.026 39.469 C 101.139 40.537, 101.707 41.980, 104.605 46.013 C 107.807 50.470, 108.684 51.113, 110.946 50.661 C 115.778 49.694, 114.132 53.775, 106.765 61.026 C 102.059 65.658, 100.148 68.222, 100.574 69.331 C 100.912 70.214, 100.410 72.979, 99.456 75.475 C 97.761 79.914, 97.807 86.787, 99.563 91.319 C 100.238 93.063, 100.106 93.068, 96.384 91.437 C 94.248 90.502, 89.639 88.911, 86.143 87.902 C 82.647 86.893, 79.217 85.595, 78.521 85.018 C 76.355 83.220, 75.911 76.989, 77.684 73.253 C 79.174 70.114, 79.171 69.583, 77.656 66.404 C 76.218 63.389, 75.669 63.036, 73.256 63.578 C 67.797 64.803, 65.558 67.299, 64.716 73.100 C 64.285 76.070, 63.267 81.907, 62.455 86.072 C 60.976 93.659, 61.127 97.193, 63.236 104.319 C 64.055 107.089, 64.817 108.020, 66.008 107.708 C 67.465 107.327, 67.383 108.408, 65.278 117.338 C 62.241 130.218, 62.445 132.114, 67 133.280 C 68.925 133.773, 71.911 135.712, 73.635 137.588 C 75.359 139.465, 77.497 141, 78.385 141 C 80.318 141, 80.462 139.868, 78.750 138.133 C 77.047 136.406, 79.741 134.457, 84.989 133.618 C 91.693 132.546, 91.873 130.323, 86.935 109.529 C 85.894 105.145, 85.386 101.214, 85.805 100.795 C 87 99.600, 99.655 108.574, 100.311 111.081 C 100.943 113.497, 100.219 117.939, 97.066 131 C 95.937 135.675, 95.011 140.512, 95.007 141.750 L 95 144 119.500 144 C 133.762 144, 144 143.615, 144 143.079 C 144 140.855, 136.746 125.261, 132.659 118.696 C 128.119 111.405, 124.971 101.973, 125.036 95.856 C 125.086 91.127, 127.727 80.591, 128.965 80.178 C 129.534 79.989, 130 78.916, 130 77.794 C 130 76.102, 130.253 75.965, 131.488 76.990 C 132.700 77.996, 133.102 77.897, 133.655 76.456 C 134.233 74.951, 133.477 71.245, 130.218 59.594 C 129.883 58.395, 130.082 57.933, 130.754 58.348 C 131.342 58.711, 133.183 58.228, 134.846 57.274 C 138.589 55.125, 140.538 49.072, 139.568 42.607 C 139.200 40.148, 138.686 35.293, 138.428 31.818 C 137.834 23.843, 137.400 22.484, 133.745 17.148 C 128.744 9.848, 120.547 7.570, 109.250 10.341" stroke="none" fill="black" fill-rule="evenodd"/>
</svg>