<svg xmlns="http://www.w3.org/2000/svg" width="192" height="144" viewBox="0 0 192 144" version="1.1">
	<path d="M 0 2 C 0 3.742, 0.677 4.004, 5.250 4.032 C 13.054 4.079, 28.937 6.597, 33.500 8.511 C 35.700 9.434, 38.712 11.497, 40.194 13.095 C 41.675 14.693, 43.925 16.004, 45.194 16.010 C 46.462 16.015, 49.454 17.573, 51.843 19.472 C 54.231 21.371, 57.043 23.196, 58.090 23.529 C 60.261 24.217, 61.204 27.147, 61.382 33.750 C 61.503 38.229, 61.605 38.368, 65.803 39.768 C 68.166 40.555, 69.930 41.718, 69.722 42.350 C 69.514 42.983, 65.854 43.895, 61.589 44.378 C 54.294 45.204, 53.875 45.382, 54.535 47.378 C 55.784 51.158, 55.139 54.867, 52.387 59.733 C 47.760 67.911, 47.013 69.459, 47.006 70.867 C 47.002 71.754, 46.277 72.044, 44.939 71.694 C 43.560 71.334, 42.706 71.709, 42.358 72.828 C 42.073 73.747, 40.586 76.975, 39.055 80 C 36.729 84.595, 36.182 87.183, 35.731 95.725 L 35.192 105.950 41.489 111.840 C 50.245 120.032, 50.509 120.662, 50.449 133.250 L 50.397 144 121.199 144 L 192 144 191.968 94.250 L 191.937 44.500 189.635 41.888 C 187.025 38.927, 182.858 37.788, 175.280 37.967 C 170.478 38.080, 170.010 37.886, 169.422 35.547 C 168.531 31.994, 169.471 30.171, 172.600 29.385 C 174.077 29.015, 176.512 27.340, 178.009 25.664 C 179.507 23.987, 182.903 21.465, 185.556 20.058 C 190.824 17.265, 191.369 16.112, 192.325 5.750 L 192.855 0 96.428 0 C 0.667 0, 0 0.014, 0 2 M 0.079 2.583 C 0.127 3.748, 0.364 3.985, 0.683 3.188 C 0.972 2.466, 0.936 1.603, 0.604 1.271 C 0.272 0.939, 0.036 1.529, 0.079 2.583 M 29.500 84 C 32.231 85.174, 33 85.174, 33 84 C 33 83.450, 31.762 83.032, 30.250 83.070 C 27.813 83.133, 27.728 83.238, 29.500 84" stroke="none" fill="black" fill-rule="evenodd"/>
</svg>