<svg xmlns="http://www.w3.org/2000/svg" width="192" height="144" viewBox="0 0 192 144" version="1.1">
	<path d="M -0 8.877 L -0 17.777 3.750 18.549 C 5.813 18.974, 8.167 19.449, 8.981 19.606 C 9.796 19.763, 11.225 19.201, 12.157 18.358 C 14.450 16.282, 17.428 17.019, 17.819 19.758 C 18.089 21.652, 18.442 21.834, 20.112 20.940 C 21.197 20.359, 23.747 20.023, 25.778 20.192 C 29.197 20.477, 29.717 20.969, 32.796 26.825 C 35.264 31.520, 35.843 33.484, 35.043 34.448 C 33.548 36.250, 34.749 38.811, 37.871 40.476 C 39.317 41.247, 43.363 44.548, 46.862 47.810 L 53.223 53.741 51.909 57.376 C 50.862 60.271, 50.827 62.588, 51.739 68.755 C 52.759 75.659, 58.011 94.681, 62.714 108.500 C 63.732 111.493, 64.432 116.701, 64.457 121.475 C 64.496 128.656, 64.302 129.490, 62.510 129.845 C 61.416 130.062, 59.944 131.063, 59.238 132.070 C 58.302 133.408, 56.411 133.982, 52.228 134.201 L 46.500 134.500 46.195 139.250 L 45.890 144 63.445 144 L 81 144 81.112 137.750 C 81.173 134.313, 81.384 130.150, 81.579 128.500 C 81.775 126.850, 81.280 124.375, 80.480 123 C 79.681 121.625, 78.270 118.793, 77.345 116.708 C 76.297 114.344, 75.162 113.108, 74.332 113.426 C 73.069 113.911, 72.526 112.252, 72.942 109.178 C 73.040 108.451, 71.164 105.526, 68.773 102.678 C 62.658 95.394, 60.901 89.049, 61.375 75.953 C 61.582 70.250, 62.193 65.436, 62.733 65.256 C 66.325 64.058, 66.914 62.411, 67.098 53.042 C 67.275 44.076, 69.425 35.685, 71.467 35.990 C 72.729 36.179, 77.112 25.549, 79.632 16.187 C 79.827 15.464, 80.387 15.121, 80.878 15.425 C 81.381 15.735, 81.654 12.593, 81.503 8.238 L 81.235 0.500 40.617 0.239 L 0 -0.022 -0 8.877 M 0 81.570 L 0 144 14.899 144 L 29.799 144 30.160 139.460 C 30.592 134.023, 29.762 133, 24.917 133 C 22.074 133, 21.114 132.543, 20.710 131 C 20.283 129.366, 19.346 129, 15.594 129 L 11 129 11 124.554 C 11 121.262, 12.076 118.082, 15.147 112.304 C 30.109 84.147, 30.027 84.338, 29.603 78.378 C 29.116 71.536, 27.058 68.638, 26.884 74.550 C 26.820 76.723, 26.562 77.713, 26.311 76.750 C 25.060 71.966, 23.036 76.584, 23.014 84.269 C 23.001 88.857, 22.905 89.014, 20.495 88.409 C 18.324 87.864, 17.788 88.262, 16.481 91.390 C 15.652 93.376, 14.565 95, 14.066 95 C 12.581 95, 11.780 89.280, 12.957 87.081 C 13.893 85.332, 13.796 85.140, 12.273 85.717 C 11.298 86.086, 9.905 86.976, 9.179 87.694 C 7.438 89.415, 5.533 89.347, 4.009 87.511 C 3.050 86.355, 3.015 83.950, 3.853 76.761 C 4.777 68.837, 5.603 66.213, 9.575 58.582 C 13.931 50.211, 14.179 49.321, 13.611 44.082 C 12.212 31.186, 11.880 29.903, 10.089 30.472 C 9.158 30.767, 7.633 30.445, 6.702 29.755 C 5.159 28.611, 5.144 28.241, 6.533 25.579 C 8.262 22.269, 7.704 21.349, 3.183 20.052 L 0 19.140 0 81.570 M 35.711 64.622 C 34.686 65.648, 34.834 72, 35.883 72 C 36.369 72, 37.014 71.056, 37.315 69.903 C 37.950 67.476, 36.764 63.570, 35.711 64.622 M 36.240 139.952 L 35.213 144 38.167 144 C 40.968 144, 41.105 143.806, 40.810 140.258 C 40.360 134.832, 37.587 134.647, 36.240 139.952" stroke="none" fill="black" fill-rule="evenodd"/>
</svg>