<svg xmlns="http://www.w3.org/2000/svg" width="192" height="144" viewBox="0 0 192 144" version="1.1">
	<path d="M 63.755 4.805 C 65.435 22.287, 53.628 44.814, 38.750 52.514 C 36.688 53.581, 35 54.751, 35 55.114 C 35 55.476, 33.763 56.010, 32.250 56.301 C 30.738 56.591, 26.125 57.589, 22 58.519 C 14.802 60.142, 5.855 60.127, 1.750 58.486 C 0.100 57.826, 0 60.239, 0 100.893 L 0 144 61.305 144 L 122.610 144 123.860 136.250 C 124.548 131.987, 126.169 124.675, 127.462 120 C 130.796 107.952, 133.469 91.608, 133.345 84.035 C 133.256 78.627, 132.893 77.341, 131.120 76.163 C 128.482 74.412, 128.438 71.956, 130.960 67.198 C 133.924 61.606, 136 56.821, 136 55.583 C 136 54.973, 134.988 54.030, 133.750 53.487 C 132.512 52.944, 131.056 51.487, 130.513 50.250 C 129.970 49.013, 128.781 48, 127.870 48 C 125.826 48, 124.639 45.422, 124.943 41.645 C 125.101 39.679, 124.312 37.891, 122.409 35.905 C 120.889 34.319, 119.961 32.706, 120.347 32.320 C 120.732 31.935, 125.424 31.616, 130.774 31.612 C 143.017 31.604, 145.522 32.725, 149.514 40.005 C 151.172 43.027, 153.480 46.993, 154.644 48.817 C 155.808 50.642, 157.068 54.467, 157.445 57.317 C 157.821 60.168, 158.789 64.525, 159.595 67 C 161.061 71.503, 161.091 81.425, 159.646 83.764 C 159.226 84.444, 159.173 85.471, 159.528 86.046 C 160.566 87.725, 158.944 96.913, 157.324 98.533 C 156.017 99.840, 156.045 100.626, 157.566 105.257 C 159.220 110.296, 163.171 118.743, 169.840 131.500 C 171.565 134.800, 173.259 138.979, 173.606 140.786 L 174.236 144.072 183.368 143.786 L 192.500 143.500 192.825 129 C 193.003 121.025, 192.837 88.737, 192.455 57.250 L 191.761 0 127.527 -0 L 63.294 -0 63.755 4.805 M 0.459 101 C 0.459 124.925, 0.589 134.713, 0.749 122.750 C 0.908 110.788, 0.908 91.213, 0.749 79.250 C 0.589 67.288, 0.459 77.075, 0.459 101" stroke="none" fill="black" fill-rule="evenodd"/>
</svg>