<svg xmlns="http://www.w3.org/2000/svg" width="192" height="144" viewBox="0 0 192 144" version="1.1">
	<path d="M 58.599 24.734 C 58.353 24.980, 56.217 25.281, 53.853 25.403 C 49.741 25.614, 49.540 25.773, 49.207 29.062 C 48.561 35.442, 48.807 37.385, 50.406 38.555 C 51.283 39.196, 52 40.276, 52 40.956 C 52 41.635, 52.897 43.451, 53.994 44.991 C 55.734 47.436, 55.790 47.867, 54.430 48.389 C 53.573 48.717, 52.987 49.777, 53.129 50.743 C 53.270 51.709, 51.948 54.726, 50.193 57.446 C 46.522 63.132, 46.145 66.472, 49 68 C 51.547 69.363, 51.523 72.081, 48.902 79.535 C 47.748 82.816, 46.436 87.525, 45.986 90 C 45.536 92.475, 44.228 99.634, 43.078 105.909 C 40.950 117.520, 38 138.516, 38 142.051 C 38 143.920, 38.846 144, 58.500 144 C 74.105 144, 79 143.705, 79 142.765 C 79 141.308, 76.372 122.182, 74.954 113.319 C 74.411 109.920, 72.660 102.603, 71.065 97.059 C 68.479 88.074, 68.312 86.682, 69.524 84.240 C 70.272 82.733, 71.446 79.390, 72.133 76.812 C 73.205 72.787, 73.151 71.655, 71.755 68.812 C 69.450 64.122, 68.812 62.221, 67.472 56.071 L 66.290 50.643 69.631 47.302 C 71.468 45.465, 73.228 42.941, 73.541 41.693 C 74.300 38.671, 70.937 31.148, 67.365 27.875 C 64.740 25.470, 59.677 23.656, 58.599 24.734 M 165.812 130.250 C 164.948 130.938, 163.962 133.705, 163.619 136.399 C 163.277 139.094, 162.493 141.906, 161.876 142.649 C 160.946 143.770, 162.613 144, 171.647 144 L 182.539 144 182.511 137.750 C 182.495 134.313, 182.122 130.938, 181.682 130.250 C 181.171 129.452, 178.439 129, 174.132 129 C 170.236 129, 166.718 129.529, 165.812 130.250" stroke="none" fill="black" fill-rule="evenodd"/>
</svg>