<svg xmlns="http://www.w3.org/2000/svg" width="192" height="144" viewBox="0 0 192 144" version="1.1">
	<path d="M 63.364 5.750 C 64.139 12.908, 62.071 23.127, 58.171 31.412 C 50.413 47.892, 32.067 59.374, 13.500 59.368 C 9.100 59.366, 4.263 59.049, 2.750 58.663 L 0 57.962 0 100.981 L 0 144 52.929 144 L 105.858 144 106.974 138.250 C 107.588 135.088, 109.473 128.450, 111.163 123.500 C 115.363 111.196, 119.711 89.668, 119.201 83.705 C 118.886 80.014, 118.239 78.548, 116.396 77.340 C 114.987 76.416, 114 74.797, 114 73.406 C 114 71.256, 113.777 71.144, 111.530 72.168 C 109.897 72.912, 108.625 72.962, 107.780 72.314 C 107.076 71.775, 104.250 71.393, 101.500 71.464 C 98.750 71.536, 93.433 71.011, 89.685 70.297 C 80.914 68.628, 75.922 68.610, 76.250 70.250 C 76.624 72.121, 73.880 71.757, 72.626 69.769 C 71.785 68.436, 71.914 67.657, 73.186 66.385 C 74.961 64.610, 80.328 64.392, 93.500 65.560 C 100.342 66.167, 100.568 66.112, 103.500 63.118 C 105.823 60.747, 107.387 60.049, 110.429 60.028 C 114.806 59.997, 121 58.067, 121 56.735 C 121 56.260, 119.672 54.754, 118.050 53.388 C 116.311 51.925, 115.328 50.309, 115.656 49.453 C 116.033 48.470, 115.543 48, 114.142 48 C 111.586 48, 109.889 45.035, 110.190 41.090 C 110.323 39.344, 109.662 37.284, 108.587 36.096 C 107.581 34.984, 107.024 33.379, 107.351 32.529 C 108.178 30.374, 125.965 31.276, 129.600 33.657 C 130.960 34.549, 134.018 39.156, 136.394 43.896 C 141.165 53.412, 141.946 58.212, 142.428 81 C 142.960 106.134, 143.646 110.162, 150.003 125.500 C 153.194 133.200, 155.968 140.400, 156.166 141.500 C 156.512 143.412, 157.314 143.500, 174.514 143.500 L 192.500 143.500 192.825 129 C 193.003 121.025, 192.837 88.737, 192.455 57.250 L 191.761 0 127.251 -0 L 62.742 -0 63.364 5.750 M 0.459 101 C 0.459 124.925, 0.589 134.713, 0.749 122.750 C 0.908 110.788, 0.908 91.213, 0.749 79.250 C 0.589 67.288, 0.459 77.075, 0.459 101" stroke="none" fill="black" fill-rule="evenodd"/>
</svg>