<svg xmlns="http://www.w3.org/2000/svg" width="192" height="144" viewBox="0 0 192 144" version="1.1">
	<path d="M 32 1.790 C 32 2.774, 32.675 6.171, 33.500 9.339 C 34.325 12.506, 35 16.371, 35 17.927 C 35 19.483, 34.325 22.371, 33.500 24.346 C 31.658 28.754, 31.653 29, 33.400 29 C 35.561 29, 35.256 44.685, 32.924 53.449 C 31.794 57.692, 31.038 63.934, 31.024 69.124 C 31.009 74.370, 30.386 79.463, 29.432 82.124 C 28.480 84.783, 27.716 91.013, 27.486 98 C 27.234 105.676, 26.558 110.815, 25.455 113.454 C 24.324 116.160, 23.677 121.316, 23.405 129.794 C 23.186 136.606, 22.754 142.589, 22.444 143.090 C 22.133 143.594, 24.300 144, 27.303 144 L 32.725 144 33.383 138.395 C 33.746 135.312, 34.574 131.825, 35.225 130.645 C 35.919 129.385, 36.523 123.027, 36.688 115.231 C 36.902 105.120, 37.372 101.192, 38.661 98.731 C 39.963 96.246, 40.392 92.546, 40.518 82.709 C 40.687 69.518, 41.916 65.020, 43.915 70.277 C 46.836 77.959, 60.716 96.782, 78.645 117.373 C 82.415 121.703, 85.890 125.775, 86.367 126.421 C 87.464 127.906, 80.530 139, 78.504 139 C 77.249 139, 75 141.845, 75 143.434 C 75 143.745, 101.325 144, 133.500 144 L 192 144 192 106.926 L 192 69.852 186.378 63.176 C 183.286 59.504, 178.493 54.621, 175.727 52.325 C 167.157 45.212, 151.688 39.965, 139.500 40.039 C 135.718 40.062, 135.609 40.146, 137.495 41.571 C 139.192 42.854, 139.267 43.205, 137.995 43.923 C 127.468 49.868, 123.924 53.636, 122.405 60.500 C 121.859 62.970, 121.977 63.279, 123.071 62.250 C 125.931 59.560, 127.191 61.666, 124.395 64.463 C 122.491 66.366, 119.841 65.772, 115.392 62.442 C 112.055 59.943, 110 60.626, 110 64.234 C 110 65.269, 108.477 66.966, 106.500 68.133 C 104.575 69.268, 102.993 70.941, 102.985 71.849 C 102.961 74.413, 101.384 76.306, 99.132 76.472 C 97.195 76.615, 91 83.241, 91 85.171 C 91 85.663, 92.064 88.189, 93.364 90.783 C 95.492 95.030, 97.673 103, 96.707 103 C 96.496 103, 93.617 99.513, 90.309 95.250 C 87.001 90.988, 79.994 83.162, 74.738 77.860 L 65.183 68.220 64.483 61.360 C 64.098 57.587, 62.707 48.702, 61.392 41.616 C 58.573 26.430, 58.522 25.603, 60.468 26.349 C 62.131 26.988, 63.533 25.447, 62.097 24.560 C 61.306 24.071, 56 15.294, 56 14.475 C 56 14.021, 63.998 10, 64.901 10 C 65.362 10, 66.251 12.596, 66.875 15.769 C 69.032 26.733, 76.234 34.577, 88.176 38.967 C 93.142 40.793, 93.935 41.457, 94.509 44.277 C 95.479 49.049, 97.305 54, 98.094 54 C 98.475 54, 99.033 53.357, 99.334 52.572 C 99.635 51.787, 101.146 50.999, 102.691 50.822 C 105.326 50.520, 105.519 50.176, 105.802 45.249 C 106.077 40.473, 106.394 39.851, 109.302 38.382 C 116.038 34.980, 122.562 29.220, 125.139 24.399 C 128.631 17.867, 130.374 9.983, 129.547 4.465 L 128.877 0 80.439 0 C 34.562 0, 32 0.095, 32 1.790 M 38.015 47.750 C 38.007 48.987, 38.450 50, 39 50 C 40.253 50, 40.253 48.939, 39 47 C 38.216 45.787, 38.028 45.931, 38.015 47.750 M 35.429 59.526 C 34.931 62.183, 35.124 63.465, 36.118 64.094 C 38.759 65.766, 39.792 64.977, 40.171 61 C 40.381 58.800, 40.240 57, 39.858 57 C 39.476 57, 38.479 56.737, 37.643 56.416 C 36.511 55.982, 35.945 56.779, 35.429 59.526 M 35.750 70.572 C 35.337 70.991, 35 73.148, 35 75.367 C 35 78.227, 35.311 79.089, 36.068 78.332 C 36.656 77.744, 36.993 75.587, 36.818 73.537 C 36.643 71.487, 36.163 70.153, 35.750 70.572 M 32.603 85.844 C 32.384 86.205, 32.046 88.289, 31.852 90.475 C 31.564 93.727, 31.842 94.518, 33.380 94.823 C 35.730 95.290, 36.965 93.421, 36.985 89.367 C 36.996 87.067, 36.468 86.094, 35.001 85.711 C 33.902 85.423, 32.822 85.483, 32.603 85.844 M 31.627 103.261 C 30.709 106.688, 30.872 111.539, 31.870 110.450 C 33.109 109.097, 34.028 102.135, 33.048 101.530 C 32.597 101.251, 31.957 102.030, 31.627 103.261 M 28.661 117.750 C 28.410 118.162, 28.046 120.300, 27.852 122.500 C 27.527 126.194, 27.691 126.500, 30 126.500 C 32.273 126.500, 32.528 126.069, 32.805 121.750 C 33.073 117.568, 32.871 117, 31.114 117 C 30.016 117, 28.912 117.338, 28.661 117.750 M 27.607 135.582 C 26.643 138.094, 26.903 143, 28 143 C 28.550 143, 29 141.687, 29 140.082 C 29 138.477, 29.273 136.452, 29.607 135.582 C 29.941 134.712, 29.764 134, 29.214 134 C 28.664 134, 27.941 134.712, 27.607 135.582" stroke="none" fill="black" fill-rule="evenodd"/>
</svg>