<svg xmlns="http://www.w3.org/2000/svg" width="192" height="144" viewBox="0 0 192 144" version="1.1">
	<path d="M -0 21.304 L -0 42.608 3.588 46.054 C 7.253 49.575, 11.660 56.886, 10.270 57.142 C 9.222 57.334, 6.066 57.623, 2.750 57.829 L 0 58 0 80.395 L 0 102.789 3.750 101.803 C 5.813 101.261, 10.805 100.440, 14.845 99.980 C 23.125 99.037, 24.306 98.428, 21.635 96.475 C 19.988 95.271, 19.894 94.558, 20.819 90.307 C 23.146 79.616, 23.104 77.990, 20.480 76.992 C 18.109 76.091, 18.096 76.015, 19.646 72.306 C 20.512 70.232, 21.381 65.442, 21.576 61.662 C 21.967 54.096, 23.056 52, 26.599 52 C 29.531 52, 32.752 56.389, 31.196 58.264 C 29.336 60.505, 30.879 67.286, 33.865 70 C 36.663 72.542, 37.021 76, 34.486 76 C 32.155 76, 32.083 77.294, 33.897 86.732 L 35.654 95.881 32.827 95.315 C 29.722 94.694, 29.101 96.009, 31.542 98.035 C 34.817 100.753, 30.905 101.657, 7.250 103.652 L -0 104.263 -0 124.132 L 0 144 35.525 144 L 71.050 144 71.909 141.739 C 72.382 140.496, 72.933 135.889, 73.134 131.501 L 73.500 123.524 69.500 121.418 C 65.983 119.567, 65.520 118.913, 65.664 116.003 C 65.754 114.182, 67.053 110.273, 68.549 107.315 C 70.046 104.357, 71.063 101.730, 70.811 101.477 C 70.558 101.224, 67.234 102.587, 63.425 104.506 C 59.616 106.424, 55.514 107.995, 54.309 107.997 C 50.306 108.003, 50.838 106.053, 55.452 103.811 C 58.958 102.108, 59.876 101.184, 59.436 99.799 C 59.062 98.619, 59.376 98, 60.349 98 C 61.166 98, 61.992 98.476, 62.186 99.058 C 62.692 100.577, 71.776 95.272, 73.701 92.334 C 75.639 89.376, 74.105 86.838, 71.623 88.898 C 70.464 89.860, 69.989 89.817, 69.331 88.694 C 68.852 87.878, 64.722 86.584, 59.585 85.640 C 54.682 84.740, 50.444 83.777, 50.168 83.502 C 48.671 82.005, 51.867 81.910, 59.708 83.218 C 65.645 84.209, 68.920 84.360, 69.792 83.685 C 70.669 83.006, 71.457 83.057, 72.242 83.842 C 74.006 85.606, 76.809 85.226, 77.965 83.066 C 79.639 79.938, 79.185 79, 76 79 C 70.047 79, 66.840 72.265, 71 68.500 C 72.356 67.273, 73 65.420, 73 62.745 C 73 59.601, 73.682 58.118, 76.359 55.441 L 79.717 52.083 77.609 50.187 C 76.449 49.144, 69.409 44.206, 61.965 39.212 C 49.803 31.053, 43.460 26, 45.382 26 C 45.762 26, 51.240 29.617, 57.555 34.038 C 70.632 43.194, 72 43.906, 72 41.557 C 72 35.669, 78.694 30.427, 85.115 31.289 C 87.200 31.568, 90.593 31.217, 92.655 30.508 C 97.380 28.883, 99 29.496, 99 32.907 C 99 34.388, 99.474 36.074, 100.053 36.653 C 100.790 37.390, 100.429 38.874, 98.848 41.603 C 97.606 43.746, 96.216 45.761, 95.761 46.080 C 95.305 46.399, 95.187 47.323, 95.498 48.134 C 95.872 49.108, 94.952 50.145, 92.782 51.197 L 89.500 52.787 94.085 54.787 C 97.271 56.177, 99.050 57.707, 99.919 59.805 C 101.363 63.291, 111.315 70.285, 112.766 68.834 C 113.324 68.276, 114.187 68.520, 114.965 69.458 C 116.630 71.464, 115.369 73.019, 109.165 76.610 C 106.599 78.095, 102.780 80.654, 100.677 82.296 C 94.843 86.855, 96.809 87.898, 112.546 88.594 C 127.125 89.240, 128.859 89.541, 127.250 91.150 C 126.098 92.302, 107.825 92.496, 103.469 91.403 C 99.751 90.470, 100.345 92.776, 105.302 98.517 C 107.668 101.258, 110.601 104.931, 111.820 106.679 C 113.964 109.756, 113.981 109.973, 112.347 113.399 C 111.208 115.788, 109.291 117.583, 106.458 118.915 L 102.259 120.888 102.758 128.194 C 103.033 132.212, 103.650 136.258, 104.129 137.184 C 104.608 138.111, 105 140.028, 105 141.445 L 105 144.021 148.750 143.761 L 192.500 143.500 192.787 102.500 C 193.106 56.995, 192.876 53, 189.939 53 C 188.872 53, 188 52.325, 188 51.500 C 188 50.675, 188.836 50, 189.858 50 C 192.339 50, 193 43.452, 193 18.853 L 193 0 163.365 0 L 133.730 0 136.293 2.016 C 142.360 6.789, 141.858 15.498, 135.199 20.988 C 127.624 27.231, 117.012 23.839, 112.036 13.584 C 110.144 9.686, 109.096 8.448, 102.705 2.571 L 99.909 0 49.955 0 L 0 0 -0 21.304 M 117.777 1.557 C 119.789 2.966, 120.211 2.966, 122.223 1.557 C 124.377 0.048, 124.308 0, 120 0 C 115.692 0, 115.623 0.048, 117.777 1.557 M 0.425 22 C 0.425 33.825, 0.569 38.663, 0.746 32.750 C 0.923 26.838, 0.923 17.163, 0.746 11.250 C 0.569 5.338, 0.425 10.175, 0.425 22 M 113 3.765 C 113 4.828, 115.148 7, 116.200 7 C 117.752 7, 116.975 5.057, 115 4 C 113.900 3.411, 113 3.305, 113 3.765 M 132.500 36 C 132.840 36.550, 133.793 37, 134.618 37 C 135.443 37, 135.840 36.550, 135.500 36 C 135.160 35.450, 134.207 35, 133.382 35 C 132.557 35, 132.160 35.450, 132.500 36 M 0.429 80.500 C 0.429 93.150, 0.573 98.187, 0.747 91.694 C 0.922 85.200, 0.921 74.850, 0.746 68.694 C 0.571 62.537, 0.428 67.850, 0.429 80.500 M 92.694 67.379 C 93.019 69.095, 93.925 71.770, 94.706 73.322 C 95.821 75.539, 95.867 76.455, 94.920 77.596 C 92.371 80.668, 95.183 80.103, 100.957 76.382 C 104.378 74.178, 106.986 71.773, 106.991 70.818 C 107.004 68.271, 102.067 65.339, 96.801 64.767 L 92.101 64.257 92.694 67.379 M 25.500 98 C 25.840 98.550, 26.568 99, 27.118 99 C 27.668 99, 27.840 98.550, 27.500 98 C 27.160 97.450, 26.432 97, 25.882 97 C 25.332 97, 25.160 97.450, 25.500 98 M 0.422 124 C 0.422 135.275, 0.568 139.887, 0.746 134.250 C 0.924 128.613, 0.924 119.388, 0.746 113.750 C 0.568 108.112, 0.422 112.725, 0.422 124 M 86.757 123.739 C 81.442 124.073, 80.971 124.301, 80.451 126.800 C 80.142 128.285, 79.231 132.031, 78.428 135.125 C 76.168 143.824, 76.382 144, 89.166 144 C 97.338 144, 99.933 143.700, 99.387 142.818 C 98.986 142.168, 98.588 140.474, 98.503 139.053 C 98.222 134.332, 94.720 122.997, 93.602 123.189 C 92.996 123.293, 89.915 123.540, 86.757 123.739" stroke="none" fill="black" fill-rule="evenodd"/>
</svg>