<svg xmlns="http://www.w3.org/2000/svg" width="192" height="144" viewBox="0 0 192 144" version="1.1">
	<path d="M 159 7.821 C 157.625 8.703, 151.666 13.584, 145.759 18.669 C 139.851 23.754, 132.256 29.846, 128.882 32.207 C 125.508 34.568, 121.904 37.117, 120.874 37.872 C 119.180 39.112, 119 39.011, 119 36.822 C 119 32.349, 114.417 30.059, 113.820 34.234 C 113.541 36.179, 112.983 36.430, 109.500 36.178 C 104.786 35.836, 98.158 38.360, 96.016 41.312 C 95.182 42.462, 94.028 44.934, 93.451 46.806 L 92.401 50.209 89.951 46.609 C 86.964 42.221, 82.103 39.747, 77.315 40.178 C 73.904 40.485, 73.566 40.220, 70.110 34.527 C 57.880 14.383, 31.681 22.961, 31.539 47.157 C 31.504 53.108, 31.825 54.222, 34.558 57.657 C 38.788 62.972, 45.067 65.993, 51.962 66.029 L 57.500 66.059 54 69.240 C 52.075 70.989, 50.618 72.941, 50.763 73.577 C 50.908 74.213, 50.345 75.298, 49.513 75.989 C 47.994 77.250, 47.416 80, 48.671 80 C 49.040 80, 50.137 79.281, 51.108 78.402 C 52.079 77.523, 53.352 77.100, 53.937 77.461 C 55.284 78.294, 55.331 81, 53.998 81 C 53.447 81, 53.897 82.681, 54.998 84.735 C 56.099 86.790, 57 90, 57 91.869 C 57 95.540, 58.558 102.098, 60.312 105.812 C 61.120 107.521, 61.091 108.625, 60.202 110.048 C 58.645 112.542, 58.664 117.489, 60.241 120.014 C 61.228 121.595, 61.228 122.405, 60.241 123.986 C 58.649 126.535, 58.649 131.465, 60.241 134.014 C 61.228 135.595, 61.228 136.405, 60.241 137.986 C 58.765 140.348, 58.600 144, 59.969 144 C 60.501 144, 60.678 143.325, 60.362 142.500 C 59.541 140.360, 62.656 140.579, 63.920 142.750 C 64.795 144.253, 64.943 144.120, 64.970 141.809 C 64.986 140.329, 64.550 138.840, 64 138.500 C 62.703 137.699, 62.703 133.301, 64 132.500 C 65.300 131.697, 65.300 125.303, 64 124.500 C 62.703 123.699, 62.703 119.301, 64 118.500 C 64.550 118.160, 65 116.360, 65 114.500 C 65 112.640, 64.550 110.840, 64 110.500 C 63.450 110.160, 63 108.838, 63 107.562 C 63 105.097, 63.891 104.614, 73.800 101.707 L 79.100 100.152 78.440 104.551 C 78.077 106.971, 78.339 114.288, 79.021 120.813 C 80.368 133.690, 79.778 137.714, 75.937 141.837 L 73.922 144 105.461 144 C 122.807 144, 137 143.745, 137 143.434 C 137 143.123, 136.555 142.036, 136.010 141.019 C 135.234 139.568, 135.772 138.053, 138.510 133.985 C 142.940 127.402, 143.099 123.100, 139.141 116.946 C 137.568 114.501, 135.093 111.409, 133.641 110.076 C 131.061 107.708, 131 107.366, 131 95.367 C 131 82.403, 132.643 68, 134.122 68 C 134.605 68, 135 68.450, 135 69 C 135 71.283, 137.909 69.739, 140.412 66.128 C 146.708 57.042, 148.775 46.357, 144.777 43.557 C 141.977 41.595, 136.975 41.552, 134.441 43.468 C 133.374 44.276, 131.839 44.951, 131.031 44.968 C 130.224 44.986, 132.234 42.300, 135.500 39 C 139.358 35.102, 142.249 33, 143.754 33 C 145.028 33, 148.335 31.707, 151.103 30.126 L 156.136 27.252 153.578 25.240 C 151.335 23.475, 151.208 23.073, 152.543 21.964 C 153.381 21.269, 153.896 20.205, 153.687 19.600 C 153.477 18.995, 155.310 15.885, 157.759 12.689 C 160.207 9.493, 162.051 6.729, 161.856 6.548 C 161.660 6.367, 160.375 6.940, 159 7.821 M 93 53.559 C 93 54.416, 93.457 54.835, 94.016 54.490 C 94.575 54.144, 94.774 53.443, 94.457 52.931 C 93.600 51.544, 93 51.802, 93 53.559 M 85.589 69.182 C 82.580 71.364, 80.592 72, 76.786 72 C 74.081 72, 70.941 71.504, 69.807 70.897 C 67.031 69.411, 65.756 71.387, 66.512 76 C 66.828 77.925, 67.057 80.850, 67.022 82.500 C 66.986 84.150, 67.221 87.009, 67.544 88.854 C 68.194 92.577, 67.504 92.536, 78.500 89.507 C 81.800 88.599, 85.240 87.100, 86.144 86.177 C 87.048 85.255, 88.878 81.297, 90.210 77.382 C 92.436 70.838, 92.504 70.106, 91.053 68.314 C 89.503 66.399, 89.405 66.415, 85.589 69.182 M 110.614 113.683 C 108.283 118.571, 107.430 128.744, 108.963 133.387 C 110.088 136.796, 114.473 142, 116.221 142 C 116.628 142, 117.234 140.918, 117.566 139.594 C 117.898 138.271, 119.031 136.964, 120.085 136.688 C 121.138 136.413, 121.995 135.358, 121.988 134.344 C 121.963 130.502, 119.198 122.352, 116.649 118.610 C 115.192 116.471, 114 113.910, 114 112.919 C 114 109.655, 112.358 110.025, 110.614 113.683 M 60.688 112.646 C 59.147 114.186, 60.040 117, 62.070 117 C 63.625 117, 64.060 116.461, 63.820 114.828 C 63.488 112.573, 61.880 111.453, 60.688 112.646 M 61.250 126.662 C 59.482 127.376, 59.691 131, 61.500 131 C 62.433 131, 63 130.056, 63 128.500 C 63 127.125, 62.888 126.036, 62.750 126.079 C 62.612 126.122, 61.938 126.385, 61.250 126.662" stroke="none" fill="black" fill-rule="evenodd"/>
</svg>