<svg xmlns="http://www.w3.org/2000/svg" width="192" height="144" viewBox="0 0 192 144" version="1.1">
	<path d="M 104.114 14.349 C 99.300 16.476, 98.482 17.300, 96.404 22.114 C 93.150 29.655, 93.232 35.251, 96.635 37.927 C 98.084 39.067, 99.914 40, 100.702 40 C 101.700 40, 101.934 40.634, 101.471 42.091 C 100.555 44.977, 107.383 51.351, 110.709 50.715 C 114.325 50.024, 113.451 51.861, 106.932 58.650 C 103.594 62.126, 101.152 65.437, 101.505 66.008 C 101.858 66.580, 101.379 69.058, 100.441 71.516 C 98.777 75.873, 98.827 81.068, 100.575 85.424 C 101.226 87.044, 101.044 87.219, 99.424 86.534 C 98.366 86.086, 93.900 84.482, 89.500 82.969 C 81.610 80.255, 81.488 80.161, 80.615 76.140 C 79.921 72.945, 80.083 71.522, 81.365 69.566 C 82.882 67.250, 82.879 66.813, 81.312 63.527 C 79.555 59.843, 79.390 59.813, 73.347 62.072 C 70.287 63.216, 69.814 64.348, 68.831 72.892 C 66.569 92.558, 66.577 93.789, 68.989 98.478 L 71.252 102.878 69.126 110.757 C 66.495 120.508, 66.467 122, 68.918 122 C 69.973 122, 73.191 124.010, 76.069 126.466 C 78.946 128.922, 81.722 130.672, 82.238 130.353 C 82.798 130.007, 82.738 129.338, 82.087 128.687 C 80.038 126.638, 81.002 125.090, 84.750 124.414 C 93.040 122.917, 93.349 121.757, 89.843 105.250 C 88.646 99.613, 87.946 94.721, 88.288 94.379 C 88.877 93.790, 95.273 97.182, 99.411 100.278 C 101.779 102.051, 101.860 107.891, 99.636 116.500 C 98.784 119.800, 97.384 126.550, 96.527 131.500 C 95.669 136.450, 94.719 141.287, 94.416 142.250 C 93.901 143.885, 95.540 144, 119.433 144 C 133.495 144, 145 143.639, 145 143.197 C 145 140.947, 134.502 117.222, 130.908 111.349 C 125.266 102.133, 123.633 96.212, 124.294 87.376 C 124.807 80.511, 128.276 70.328, 129.179 73.036 C 129.768 74.804, 132.007 73.327, 131.974 71.191 C 131.960 70.261, 130.913 66.463, 129.648 62.750 C 128.383 59.038, 127.739 56, 128.218 56 C 128.696 56, 130.301 54.875, 131.783 53.500 C 133.266 52.125, 134.092 51, 133.617 51 C 133.143 51, 133.299 50.345, 133.964 49.544 C 134.628 48.743, 134.882 47.618, 134.527 47.044 C 134.172 46.470, 134.298 46, 134.807 46 C 135.790 46, 135.370 43.556, 132.195 30.796 C 130.280 23.101, 127.562 18.727, 122.070 14.504 C 118.260 11.574, 110.546 11.507, 104.114 14.349" stroke="none" fill="black" fill-rule="evenodd"/>
</svg>