<svg xmlns="http://www.w3.org/2000/svg" width="192" height="144" viewBox="0 0 192 144" version="1.1">
	<path d="M 0 72 L 0 144 7.461 144 L 14.923 144 16.036 139.866 C 16.648 137.592, 16.821 134.554, 16.421 133.116 C 15.504 129.827, 15.895 125.692, 17.200 124.881 C 18.082 124.332, 18.339 121.665, 17.961 116.991 C 17.759 114.491, 18.422 112.568, 19.882 111.420 C 21.049 110.503, 21.009 109.943, 19.624 107.829 C 18.081 105.474, 18.098 105.221, 19.922 103.571 C 21.951 101.734, 22.387 98.851, 23.450 80.250 C 23.945 71.573, 23.858 71, 22.033 71 C 20.186 71, 20.162 70.793, 21.544 66.874 C 23.282 61.948, 23.412 58.373, 21.887 57.430 C 17.561 54.756, 15.256 38.274, 18.367 32.257 C 22.308 24.636, 36.605 15.711, 47.541 14.045 C 59.212 12.267, 58.599 12.625, 58.253 7.786 L 57.946 3.500 61.223 7.498 C 63.025 9.697, 66.677 13.658, 69.337 16.301 C 72.183 19.129, 75.360 23.724, 77.057 27.466 C 80.263 34.535, 82.678 36.009, 90.798 35.848 C 93.162 35.801, 95.302 35.968, 95.553 36.219 C 95.804 36.470, 95.499 38.140, 94.875 39.930 C 93.953 42.573, 93.308 43.101, 91.435 42.743 C 87.928 42.072, 86.755 43.226, 87.896 46.226 C 88.431 47.633, 88.596 49.846, 88.264 51.143 C 87.443 54.336, 83.922 59, 82.331 59 C 80.543 59, 79.791 62.681, 80.328 68.809 C 80.584 71.736, 80.391 73.742, 79.882 73.427 C 79.388 73.122, 78.103 74.926, 77.027 77.436 C 75.016 82.129, 74.340 82.486, 68.250 82.067 C 65.422 81.873, 65 82.156, 65 84.250 C 65 86.452, 65.873 86.898, 75.250 89.488 C 88.021 93.015, 90.226 94.251, 89.426 97.437 C 89.098 98.744, 89.393 100.866, 90.081 102.151 C 90.769 103.437, 91.849 106.516, 92.481 108.994 C 93.166 111.679, 94.210 113.511, 95.065 113.527 C 95.947 113.543, 96.408 114.411, 96.262 115.777 C 96.008 118.143, 98.689 118.911, 100.585 117.015 C 102.064 115.536, 124.248 114.895, 132.380 116.096 C 142.687 117.618, 143.095 117.706, 147.631 119.382 C 158.085 123.244, 165.827 128.402, 170.174 134.400 C 173.772 139.365, 173.723 140.274, 169.750 142.272 C 166.593 143.860, 166.872 143.901, 179.500 143.704 L 192.500 143.500 192.757 71.750 L 193.013 0 96.507 0 L 0 0 0 72 M 0.474 72.500 C 0.474 112.100, 0.598 128.154, 0.750 108.176 C 0.901 88.198, 0.901 55.798, 0.750 36.176 C 0.598 16.554, 0.474 32.900, 0.474 72.500 M 113 63 C 113 63.550, 114.125 64, 115.500 64 C 116.875 64, 118 63.550, 118 63 C 118 62.450, 116.875 62, 115.500 62 C 114.125 62, 113 62.450, 113 63 M 6.500 68 C 6.160 68.550, 6.332 69, 6.882 69 C 7.432 69, 8.160 68.550, 8.500 68 C 8.840 67.450, 8.668 67, 8.118 67 C 7.568 67, 6.840 67.450, 6.500 68" stroke="none" fill="black" fill-rule="evenodd"/>
</svg>