<svg xmlns="http://www.w3.org/2000/svg" width="192" height="144" viewBox="0 0 192 144" version="1.1">
	<path d="M 72.414 7.095 C 71.145 8.498, 70.679 10.922, 70.603 16.527 C 70.491 24.762, 71.256 26.056, 75.731 25.201 L 78.333 24.703 75.040 28.801 C 71.798 32.835, 71.466 36, 74.286 36 C 76.490 36, 76.392 55.909, 74.177 58.338 C 73.254 59.349, 71.798 62.949, 70.939 66.338 C 69.576 71.719, 69.103 72.461, 67.202 72.189 C 65.280 71.915, 65.095 72.226, 65.620 74.850 C 66.355 78.523, 65.139 82.362, 58.605 97 C 53.850 107.653, 53.517 108.905, 54.083 114 C 54.419 117.025, 54.473 123.868, 54.204 129.207 C 53.802 137.162, 54.015 139.373, 55.380 141.457 L 57.046 144 87.773 143.969 L 118.500 143.937 120.500 141.219 C 121.938 139.264, 122.547 136.730, 122.669 132.200 C 122.762 128.735, 123.269 125.360, 123.796 124.700 C 125.784 122.212, 126.194 118.618, 124.928 114.780 C 123.856 111.532, 123.860 110.704, 124.956 110.027 C 126.611 109.004, 125.771 100.101, 122.930 88.563 C 120.750 79.711, 117.973 73.167, 112.424 63.808 C 108.810 57.713, 108.692 57.212, 108.916 49 C 109.071 43.326, 109.623 39.975, 110.574 38.921 C 111.358 38.053, 112 36.551, 112 35.584 C 112 34.617, 114.250 30.398, 117 26.209 C 119.750 22.020, 122 18.003, 122 17.282 C 122 13.667, 109.170 9.743, 103.880 11.739 C 100.682 12.946, 95.064 11.809, 87.500 8.424 C 80.329 5.214, 74.575 4.708, 72.414 7.095 M 76.232 85 C 76.232 86.925, 76.438 87.713, 76.689 86.750 C 76.941 85.787, 76.941 84.213, 76.689 83.250 C 76.438 82.287, 76.232 83.075, 76.232 85 M 103.079 91.583 C 103.127 92.748, 103.364 92.985, 103.683 92.188 C 103.972 91.466, 103.936 90.603, 103.604 90.271 C 103.272 89.939, 103.036 90.529, 103.079 91.583" stroke="none" fill="black" fill-rule="evenodd"/>
</svg>