<svg xmlns="http://www.w3.org/2000/svg" width="192" height="144" viewBox="0 0 192 144" version="1.1">
	<path d="M 51.757 1.002 C 50.799 1.601, 49.385 1.958, 48.614 1.796 C 47.844 1.633, 46.122 2.673, 44.788 4.106 C 43.453 5.540, 41.766 6.911, 41.037 7.154 C 39.988 7.504, 39.958 8.053, 40.892 9.798 C 42.163 12.172, 41.158 12.758, 39.190 10.790 C 38.244 9.844, 38.110 10.661, 38.575 14.540 C 38.902 17.268, 39.343 20.063, 39.554 20.750 C 39.804 21.568, 38.824 22.008, 36.719 22.024 C 30.075 22.073, 25.823 23.782, 21.722 28.050 C 18.381 31.526, 17.870 32.562, 18.776 34.013 C 19.379 34.979, 19.626 36.716, 19.323 37.873 C 19.021 39.029, 19.465 41.706, 20.312 43.821 C 21.158 45.935, 22.579 51.228, 23.470 55.583 C 25.293 64.486, 27.312 66.941, 32.846 66.978 C 34.686 66.990, 37.480 66.239, 39.055 65.308 C 41.640 63.782, 42.093 63.767, 43.709 65.156 C 44.694 66.003, 46.306 66.983, 47.292 67.333 C 49.517 68.123, 52.949 75.470, 52.978 79.507 C 52.990 81.160, 52.578 83.986, 52.061 85.786 C 51.268 88.551, 51.424 89.248, 53.061 90.270 C 55.583 91.845, 55.539 92.235, 52.022 99.455 C 50.384 102.816, 47.258 111.888, 45.075 119.614 C 42.891 127.339, 40.188 135.987, 39.067 138.830 L 37.029 144 68.515 144 C 85.832 144, 100 143.747, 100 143.438 C 100 143.129, 98.430 139.642, 96.512 135.688 C 94.594 131.735, 91.623 123.100, 89.910 116.500 C 88.197 109.900, 85.633 102.115, 84.212 99.201 C 81.652 93.953, 81.645 93.871, 83.467 90.787 C 84.949 88.277, 85.312 85.519, 85.335 76.586 C 85.352 70.073, 84.890 64.624, 84.214 63.376 C 83.258 61.610, 83.408 60.941, 85.102 59.408 C 86.672 57.987, 89.336 57.441, 96.707 57.032 L 106.274 56.500 109.387 52.628 C 111.099 50.498, 114.412 46.826, 116.750 44.467 C 119.088 42.108, 121 39.463, 121 38.589 C 121 37.715, 121.501 37, 122.113 37 C 122.785 37, 123.050 35.793, 122.780 33.956 C 122.236 30.249, 123.060 29.614, 126.425 31.148 C 131.863 33.626, 136.850 27.610, 132.411 23.926 C 130.415 22.269, 122.932 21.820, 121.199 23.253 C 120.216 24.067, 119.765 23.818, 119.351 22.234 C 118.714 19.800, 115.974 18.425, 114.976 20.039 C 114.545 20.736, 112.942 20.892, 110.646 20.461 C 108.164 19.996, 107 20.145, 107 20.931 C 107 24.932, 94.051 29.878, 83.345 29.966 L 79.190 30 79.721 26.045 C 80.117 23.090, 79.701 21.158, 78.073 18.398 C 76.547 15.813, 76.210 14.390, 76.947 13.653 C 78.434 12.166, 78.256 4.733, 76.682 2.580 C 75.589 1.085, 73.492 0.703, 64.432 0.345 C 57.535 0.073, 52.857 0.316, 51.757 1.002 M 40 34.959 C 37.702 35.532, 37.476 36.100, 37.197 41.994 C 36.895 48.382, 36.902 48.399, 38.924 46.568 C 40.422 45.213, 41.878 44.881, 44.477 45.303 C 46.415 45.617, 48 45.625, 48 45.321 C 48 43.579, 44.380 34.983, 43.522 34.687 C 42.960 34.494, 41.375 34.616, 40 34.959 M 95.683 39.619 C 90.401 41.243, 89.985 42.943, 94.565 44.191 C 98.421 45.241, 99.579 44.715, 101.473 41.051 C 103.310 37.500, 102.906 37.400, 95.683 39.619" stroke="none" fill="black" fill-rule="evenodd"/>
</svg>