<svg xmlns="http://www.w3.org/2000/svg" width="192" height="144" viewBox="0 0 192 144" version="1.1">
	<path d="M 164.116 22.693 C 163.972 25.419, 160.175 32, 158.746 32 C 158.165 32, 158.376 32.788, 159.214 33.750 C 161.094 35.910, 162.151 43.449, 160.768 44.832 C 159.249 46.351, 160.775 55, 162.561 55 C 165.069 55, 164.659 61.266, 161.897 65.145 C 160.854 66.610, 160 68.130, 160 68.524 C 160 68.917, 158.425 71.831, 156.500 75 C 152.456 81.657, 152.261 83.021, 155 85.500 C 157.501 87.763, 157.541 90.425, 155.126 93.846 C 152.286 97.868, 149 105.597, 149 108.254 C 149 111.233, 150.523 113.111, 155.198 115.896 C 159.051 118.191, 160.458 120.763, 160.177 125 C 159.976 128.035, 163.067 133.353, 166.202 135.367 C 169.529 137.503, 172.373 137.763, 172.746 135.965 C 172.951 134.974, 172.256 134.371, 170.782 134.262 C 168.184 134.070, 163.842 129.250, 164.251 127.011 C 164.593 125.138, 167.610 124.513, 170.381 125.741 C 179.762 129.895, 188.507 131.727, 191 130.060 C 193.382 128.467, 191.242 126.190, 183.676 122.266 L 176.890 118.746 179.031 116.467 C 180.772 114.614, 180.967 113.806, 180.074 112.138 C 179.037 110.200, 173.585 108.018, 169.750 108.006 C 167.553 107.999, 167.559 107.782, 169.949 100.500 C 171.032 97.200, 172.168 93.269, 172.474 91.765 C 172.842 89.957, 173.847 88.826, 175.442 88.425 C 176.768 88.092, 178.611 86.982, 179.539 85.957 C 181.124 84.206, 181.099 83.835, 179.112 79.732 C 177.950 77.332, 177 74.270, 177 72.928 C 177 71.585, 176.603 69.102, 176.117 67.409 C 175.574 65.514, 175.614 63.654, 176.222 62.567 C 176.765 61.597, 177.323 58.260, 177.463 55.151 L 177.715 49.500 183.608 49.482 C 190.675 49.461, 192 48.763, 192 45.066 C 192 42.784, 191.471 42.144, 189.210 41.692 C 187.675 41.385, 184.525 41.388, 182.210 41.699 C 177.485 42.332, 177.220 41.937, 179.836 38.154 C 182.697 34.019, 183.183 33, 182.295 33 C 181.842 33, 180.366 34.790, 179.013 36.978 C 175.903 42.011, 173.464 43.231, 174.445 39.264 C 174.821 37.744, 175.091 35.600, 175.044 34.500 C 174.998 33.400, 174.953 31.230, 174.945 29.678 C 174.936 27.897, 174.483 27.016, 173.715 27.289 C 171.849 27.954, 165.212 24.261, 164.693 22.269 C 164.331 20.881, 164.207 20.972, 164.116 22.693 M 109.805 24.708 C 109.087 26.197, 107.426 27.668, 106.114 27.976 C 104.105 28.448, 103.677 29.245, 103.406 33.018 C 102.783 41.697, 102.487 43.079, 101.064 43.960 C 99.835 44.720, 99.891 45.433, 101.455 48.901 C 102.919 52.147, 103.039 53.248, 102.055 54.433 C 101.380 55.247, 101.120 56.385, 101.477 56.962 C 101.833 57.539, 101.686 59.472, 101.148 61.256 C 95.028 81.582, 94.972 82.084, 98.517 84.667 C 100.968 86.452, 101.003 86.650, 99.879 92.250 C 99.244 95.412, 98.336 98, 97.862 98 C 96.039 98, 97.127 100.782, 99.922 103.273 C 101.970 105.098, 102.684 106.494, 102.306 107.939 C 101.939 109.341, 102.244 110, 103.261 110 C 104.083 110, 105.432 111.013, 106.257 112.250 C 107.643 114.326, 108.421 114.482, 116.333 114.270 C 121.138 114.141, 125.173 114.471, 125.514 115.022 C 125.908 115.660, 126.813 115.635, 128.089 114.953 C 130.777 113.514, 129.423 111.754, 126.155 112.440 C 122.315 113.245, 120.151 111.625, 121.708 109.111 C 122.811 107.330, 122.574 107.104, 118.963 106.494 C 113.857 105.631, 113.431 104.767, 117.054 102.627 C 118.674 101.670, 119.993 100.575, 119.985 100.193 C 119.952 98.695, 118.405 97.213, 116.500 96.856 C 114.814 96.539, 114.452 95.560, 114.196 90.608 C 113.909 85.067, 114.072 84.585, 117.079 82.075 C 120.180 79.486, 120.225 79.335, 118.744 76.457 C 117.906 74.831, 116.242 70.350, 115.044 66.500 C 113.847 62.650, 112.644 58.964, 112.370 58.309 C 111.701 56.706, 117.644 53.615, 118.556 55.091 C 118.924 55.687, 120.075 55.952, 121.113 55.681 C 122.475 55.325, 123 55.718, 123 57.094 C 123 59.662, 124.189 59.493, 126.975 56.526 C 129.448 53.894, 129.593 54.126, 124.477 52.523 C 123.640 52.260, 122.672 51.248, 122.327 50.273 C 121.655 48.378, 117.012 43.666, 114.346 42.174 C 112.904 41.367, 112.960 41.040, 114.865 39.135 C 116.039 37.961, 117 36.127, 117 35.059 C 117 33.991, 117.455 32.837, 118.011 32.493 C 118.588 32.137, 117.729 30.575, 116.011 28.857 C 114.355 27.201, 113 24.981, 113 23.923 C 113 21.148, 111.321 21.560, 109.805 24.708 M 44.669 27.664 C 44.301 28.032, 44 28.981, 44 29.773 C 44 31.323, 39.047 35.665, 37.757 35.246 C 36.179 34.733, 38.387 43.482, 40.693 46.879 C 42.750 49.911, 42.863 50.497, 41.535 51.240 C 40.691 51.713, 40 53.406, 40 55.003 C 40 57.494, 39.343 58.197, 35.373 59.953 C 29.426 62.584, 24.018 62.589, 20.684 59.966 C 18.277 58.072, 17.643 58.016, 11.489 59.150 C 4.003 60.529, 1.621 61.848, 2.495 64.126 C 3.278 66.166, 37.816 83, 41.219 83 L 43.817 83 42.075 88.751 C 41.118 91.914, 40.525 95.076, 40.759 95.778 C 40.993 96.479, 42.965 97.962, 45.141 99.072 C 49.618 101.356, 50.796 103.336, 48.980 105.525 C 48.295 106.349, 47.007 108.470, 46.118 110.237 C 44.788 112.877, 43.273 113.867, 37.613 115.796 L 30.726 118.142 26.449 115.071 C 24.097 113.382, 21.464 112, 20.597 112 C 18.286 112, 6 117.073, 6 118.028 C 6 118.476, 12.412 124.136, 20.250 130.606 C 28.088 137.075, 34.650 142.736, 34.833 143.184 C 35.017 143.633, 38.513 144, 42.603 144 C 48.823 144, 50.691 143.589, 54.020 141.487 C 56.209 140.106, 58 138.572, 58 138.079 C 58 137.587, 55.976 135.905, 53.502 134.342 C 51.028 132.779, 49.003 131.200, 49.002 130.833 C 49.001 130.467, 50.913 129.527, 53.250 128.745 C 57.102 127.456, 57.505 127.010, 57.553 123.969 C 57.596 121.266, 58.087 120.487, 60.085 119.953 C 63.675 118.992, 67 116.720, 67 115.226 C 67 114.514, 65.450 113.018, 63.556 111.900 C 61.277 110.556, 59.710 108.622, 58.923 106.184 C 58.269 104.158, 56.219 100.963, 54.367 99.083 C 52.515 97.204, 51 95.361, 51 94.988 C 51 93.491, 54.706 91.216, 58.149 90.600 C 60.155 90.241, 62.988 89.011, 64.443 87.866 C 67.028 85.833, 67.049 85.724, 65.367 83.157 C 64.421 81.712, 62.346 78.059, 60.757 75.038 C 59.168 72.017, 57.415 69, 56.861 68.333 C 56.308 67.666, 55.676 64.310, 55.457 60.876 C 55.224 57.215, 54.456 54.028, 53.601 53.172 C 52.322 51.894, 52.330 51.427, 53.661 49.395 C 54.887 47.524, 54.965 46.423, 54.063 43.691 C 53.448 41.829, 53.205 39.628, 53.523 38.801 C 53.880 37.870, 53.128 36.659, 51.550 35.625 C 50.148 34.706, 49 33.134, 49 32.132 C 49 30.064, 45.687 26.647, 44.669 27.664 M 36.500 64.055 C 34.300 65.096, 32.783 65.959, 33.128 65.974 C 33.473 65.988, 35.326 66.656, 37.245 67.458 C 40.102 68.652, 41.050 68.684, 42.485 67.634 C 44.012 66.518, 44.062 66.073, 42.878 64.177 C 41.288 61.631, 41.609 61.637, 36.500 64.055 M 105.161 87.547 C 104.522 88.948, 104 91.558, 104 93.346 C 104 96.432, 104.167 96.579, 107.279 96.216 C 110.132 95.882, 110.533 95.486, 110.361 93.166 C 110.252 91.700, 110.126 89.263, 110.081 87.750 C 109.975 84.150, 106.769 84.017, 105.161 87.547 M 162.911 90.237 C 162.265 91.482, 159.747 95.522, 157.315 99.215 C 153.632 104.808, 153.072 106.266, 153.966 107.936 C 154.823 109.538, 155.690 109.822, 158.270 109.344 C 162.908 108.484, 164.122 106.928, 166.113 99.293 C 168.381 90.596, 168.379 90.273, 166.042 89.022 C 164.434 88.162, 163.874 88.379, 162.911 90.237 M 38 117.782 C 34.147 119.033, 33.929 120.234, 37.127 122.594 C 39.545 124.378, 40.714 124.688, 42.140 123.925 C 44.283 122.778, 44.344 122.512, 43.028 120.052 C 41.884 117.915, 40.088 117.104, 38 117.782 M 180.813 124.683 C 181.534 124.972, 182.397 124.936, 182.729 124.604 C 183.061 124.272, 182.471 124.036, 181.417 124.079 C 180.252 124.127, 180.015 124.364, 180.813 124.683" stroke="none" fill="black" fill-rule="evenodd"/>
</svg>