<svg xmlns="http://www.w3.org/2000/svg" width="192" height="144" viewBox="0 0 192 144" version="1.1">
	<path d="M 0 72 L 0 144 24.500 144 C 45.355 144, 49 143.782, 49 142.534 C 49 137.929, 61.882 130.078, 73.716 127.473 C 77.997 126.530, 81.966 125.639, 82.535 125.493 C 83.104 125.347, 84.347 119.587, 85.297 112.692 C 87.024 100.157, 87.024 100.155, 84.880 96.521 C 83.145 93.581, 82.849 91.920, 83.333 87.837 C 83.662 85.060, 84.427 82.191, 85.033 81.461 C 86.776 79.360, 94.748 78.025, 98.373 79.226 C 102.611 80.631, 103.554 81.760, 104.804 86.921 C 105.658 90.450, 105.577 91.917, 104.403 94.188 C 103.124 96.660, 103.117 97.587, 104.345 101.266 C 105.122 103.595, 106.307 110.060, 106.977 115.634 L 108.197 125.768 113.284 126.443 C 124.856 127.978, 140.741 136.457, 142.514 142.045 C 143.125 143.970, 143.947 144.026, 167.823 143.767 L 192.500 143.500 192.757 71.750 L 193.013 0 96.507 0 L 0 0 0 72 M 0.474 72.500 C 0.474 112.100, 0.598 128.154, 0.750 108.176 C 0.901 88.198, 0.901 55.798, 0.750 36.176 C 0.598 16.554, 0.474 32.900, 0.474 72.500 M 78.315 133.944 C 72.272 136.688, 68 140.102, 68 142.188 C 68 143.786, 68.943 144, 76 144 L 84 144 84 138 C 84 134.700, 83.662 132.010, 83.250 132.022 C 82.838 132.034, 80.617 132.899, 78.315 133.944 M 108 138.031 L 108 144 116 144 C 121.938 144, 124 143.662, 124 142.687 C 124 140.824, 119.126 136.514, 115 134.729 C 107.724 131.580, 108 131.450, 108 138.031" stroke="none" fill="black" fill-rule="evenodd"/>
</svg>