<svg xmlns="http://www.w3.org/2000/svg" width="192" height="144" viewBox="0 0 192 144" version="1.1">
	<path d="M 93 47.607 C 83.159 50.246, 77 56.091, 77 62.791 C 77 64.381, 77.670 67.891, 78.489 70.591 C 80.534 77.331, 80.421 77.966, 77.064 78.637 C 73.909 79.268, 72.194 81.754, 74.344 82.579 C 75.065 82.855, 76.931 82.597, 78.490 82.004 C 81.700 80.783, 82.157 81.115, 84 86 C 87.746 95.933, 94.565 99.353, 105.690 96.878 C 108.885 96.167, 111.950 95.234, 112.500 94.805 C 113.050 94.376, 115.483 92.557, 117.906 90.763 C 125.362 85.242, 128.104 81.050, 128.634 74.361 C 128.963 70.217, 128.657 67.767, 127.589 66 C 125.216 62.072, 124.184 59.712, 123.564 56.806 C 122.692 52.712, 117.798 47.973, 113.385 46.949 C 107.749 45.642, 99.312 45.914, 93 47.607" stroke="none" fill="black" fill-rule="evenodd"/>
</svg>