<svg xmlns="http://www.w3.org/2000/svg" width="192" height="144" viewBox="0 0 192 144" version="1.1">
	<path d="M 81 1.249 C 81 1.941, 81.900 5.654, 83 9.500 C 84.343 14.197, 85 19.492, 85 25.621 C 85 31.253, 85.585 36.407, 86.528 39.080 C 88.420 44.442, 88.020 45.547, 83.508 47.432 C 81.539 48.255, 76.141 52.422, 71.512 56.693 C 63.206 64.356, 63.067 64.563, 60.936 72.479 C 59.748 76.891, 57.926 82.170, 56.888 84.210 C 55.849 86.251, 55 88.998, 55 90.314 C 55 93.290, 50.775 98, 48.107 98 C 45.748 98, 44.822 99.275, 44.372 103.144 C 44.105 105.436, 44.430 106, 46.020 106 C 47.109 106, 48 106.450, 48 107 C 48 107.550, 48.378 108, 48.841 108 C 50.063 108, 58.342 99.970, 60.439 96.750 C 61.424 95.237, 63.023 94, 63.993 94 C 66.355 94, 67.362 92.445, 68.850 86.500 C 69.538 83.750, 71.050 78.880, 72.211 75.678 C 74.072 70.542, 74.979 69.444, 79.910 66.355 C 82.985 64.429, 87.075 61.069, 89 58.888 C 92.862 54.513, 99.661 51.486, 101.750 53.212 C 103.844 54.942, 103.188 57.978, 100.500 59 C 98.348 59.818, 98 60.573, 98 64.416 C 98 66.872, 98.418 69.140, 98.929 69.456 C 99.440 69.772, 97.640 72.344, 94.929 75.171 C 92.218 77.999, 90 80.775, 90 81.342 C 90 81.908, 89.039 83.394, 87.864 84.645 C 85.366 87.304, 84.920 94.366, 87.114 96.511 C 88.283 97.654, 89.370 97.350, 94.073 94.563 C 98.154 92.145, 100.926 91.235, 104.427 91.165 C 107.056 91.112, 109.950 90.833, 110.857 90.545 C 111.764 90.258, 114.718 91.142, 117.423 92.511 C 123.259 95.466, 130.352 95.781, 137.350 93.397 C 143.141 91.423, 144.525 88.975, 145.296 79.342 C 145.844 72.486, 146.829 69.581, 149.905 65.750 C 152.700 62.268, 147.863 64.426, 141.500 69.500 C 135.318 74.430, 135.297 74.431, 132.536 70.057 C 131.141 67.847, 130.011 65.468, 130.024 64.770 C 130.038 64.071, 132.970 59, 136.541 53.500 C 142.537 44.264, 142.898 43.401, 141.267 42.207 C 137.613 39.532, 135.200 39.689, 131.362 42.853 C 129.325 44.532, 127.285 45.676, 126.829 45.394 C 124.723 44.093, 126.304 38.228, 130.942 30.129 C 135.321 22.484, 137.628 15.916, 140.715 2.301 L 141.214 0.102 111.107 0.047 C 87.570 0.004, 81 0.267, 81 1.249 M 106.903 3.728 C 105.953 5.084, 105.579 7.368, 105.848 10.165 L 106.265 14.500 107.657 9.074 C 109.276 2.765, 108.991 0.747, 106.903 3.728" stroke="none" fill="black" fill-rule="evenodd"/>
</svg>