<svg xmlns="http://www.w3.org/2000/svg" width="192" height="144" viewBox="0 0 192 144" version="1.1">
	<path d="M 0 72 L 0 144 43 144 L 86 144 86 140.953 C 86 138.616, 85.303 137.511, 83.006 136.203 C 81.360 135.267, 80.010 133.745, 80.006 132.821 C 80.003 131.898, 79.319 130.462, 78.487 129.629 C 74.602 125.745, 75.917 119.846, 83.415 107.513 C 86.095 103.105, 86.902 100.832, 86.477 98.894 C 86.110 97.227, 86.688 94.637, 88.053 91.828 L 90.207 87.394 87.604 83.557 C 86.054 81.275, 85 78.336, 85 76.301 C 85 73.981, 84.631 73.110, 83.851 73.592 C 83.009 74.113, 82.890 72.861, 83.407 68.901 C 84.076 63.772, 86.441 57.776, 90.864 50 C 91.959 48.075, 93.954 43.986, 95.297 40.913 C 97.513 35.846, 97.589 35.223, 96.120 34.222 C 94.727 33.273, 94.842 33.109, 96.936 33.059 C 98.275 33.026, 100.300 32.139, 101.436 31.087 C 104.215 28.511, 105.753 28.414, 110.718 30.504 C 114.054 31.907, 115.176 33.034, 116.079 35.889 C 116.707 37.875, 117.932 40.063, 118.801 40.750 C 120.236 41.884, 120.236 42, 118.809 42 C 117.058 42, 108.771 49.850, 109.217 51.087 C 109.373 51.519, 111.223 53.139, 113.328 54.686 C 116.024 56.668, 117.846 59.218, 119.492 63.314 L 121.829 69.128 118.306 75.975 L 114.784 82.823 118.382 92.941 C 120.361 98.506, 121.889 103.383, 121.778 103.780 C 121.666 104.176, 122.105 105.453, 122.752 106.619 C 123.400 107.784, 123.721 108.946, 123.466 109.200 C 123.212 109.455, 124.499 113.475, 126.328 118.133 C 128.291 123.133, 129.344 127.196, 128.899 128.051 C 128.484 128.848, 127.880 130.342, 127.557 131.372 C 127.091 132.856, 126.342 133.118, 123.944 132.639 C 119.541 131.758, 116.997 133.724, 117.015 137.991 C 117.024 139.921, 117.391 142.068, 117.832 142.763 C 118.459 143.750, 126.684 143.968, 155.567 143.763 L 192.500 143.500 192.757 71.750 L 193.013 0 96.507 0 L 0 0 0 72 M 0.474 72.500 C 0.474 112.100, 0.598 128.154, 0.750 108.176 C 0.901 88.198, 0.901 55.798, 0.750 36.176 C 0.598 16.554, 0.474 32.900, 0.474 72.500 M 112 70.500 C 112 72.975, 112.224 75, 112.497 75 C 113.764 75, 115.665 68.428, 114.738 67.250 C 112.903 64.916, 112 65.988, 112 70.500 M 95.030 72.550 C 95.057 75.136, 95.193 75.272, 96.134 73.654 C 96.903 72.330, 96.895 71.495, 96.104 70.704 C 95.299 69.899, 95.008 70.399, 95.030 72.550 M 105.500 137.602 C 104.125 138.659, 102.331 138.958, 99.760 138.560 C 96.835 138.106, 95.582 138.418, 94.010 139.990 C 90.566 143.434, 91.554 144, 101 144 L 110 144 110 140 C 110 135.649, 108.842 135.032, 105.500 137.602" stroke="none" fill="black" fill-rule="evenodd"/>
</svg>