<svg xmlns="http://www.w3.org/2000/svg" width="192" height="144" viewBox="0 0 192 144" version="1.1">
	<path d="M 63.755 4.805 C 65.054 18.318, 58.343 35.765, 48.255 45.103 C 45.048 48.071, 40.191 51.625, 37.462 53 C 34.733 54.375, 32.275 55.783, 32 56.129 C 31.725 56.475, 27.533 57.541, 22.683 58.500 C 14.372 60.142, 7.692 60.128, 2.250 58.457 L 0 57.767 0 100.883 L 0 144 53.429 144 L 106.858 144 108.006 138.250 C 108.637 135.088, 110.875 127.100, 112.978 120.500 C 117.978 104.812, 120.628 89.192, 119.407 82.616 C 118.649 78.535, 117.955 77.440, 115.188 75.958 C 112.143 74.328, 111.454 74.305, 106.636 75.675 C 101.897 77.024, 100.829 77.005, 95.448 75.480 C 87.906 73.343, 81.775 72.971, 82.435 74.691 C 83.135 76.516, 81.146 77.366, 79.456 75.964 C 77.260 74.141, 77.704 71.496, 80.454 70.024 C 82.864 68.735, 84.829 68.796, 98.729 70.596 C 103.254 71.182, 104.053 71.025, 104.665 69.430 C 105.867 66.298, 109.265 63, 111.291 63 C 112.352 63, 115.439 61.563, 118.150 59.806 L 123.079 56.612 120.039 54.234 C 118.368 52.925, 117 51.213, 117 50.428 C 117 49.642, 116.155 49, 115.122 49 C 112.394 49, 110.683 46.427, 111.305 43.256 C 111.709 41.196, 111.201 39.821, 109.293 37.810 C 104.862 33.140, 106.518 31.999, 117.719 32.004 C 129.568 32.008, 132.592 33.435, 136.049 40.652 C 137.326 43.319, 139.300 46.775, 140.436 48.334 C 141.903 50.348, 142.749 53.675, 143.362 59.834 C 144.415 70.415, 144.507 89.338, 143.546 97.606 C 142.684 105.031, 143.681 108.725, 151.383 126.640 C 154.472 133.826, 157 140.682, 157 141.876 C 157 144.032, 157.119 144.044, 174.750 143.773 L 192.500 143.500 192.825 129 C 193.003 121.025, 192.837 88.737, 192.455 57.250 L 191.761 0 127.527 -0 L 63.294 -0 63.755 4.805 M 0.459 101 C 0.459 124.925, 0.589 134.713, 0.749 122.750 C 0.908 110.788, 0.908 91.213, 0.749 79.250 C 0.589 67.288, 0.459 77.075, 0.459 101" stroke="none" fill="black" fill-rule="evenodd"/>
</svg>