<svg xmlns="http://www.w3.org/2000/svg" width="192" height="144" viewBox="0 0 192 144" version="1.1">
	<path d="M -0 72.005 L -0 144.010 96.250 143.755 L 192.500 143.500 192.757 71.750 L 193.013 0 136.507 0 C 105.428 0, 80.001 0.337, 80.003 0.750 C 80.015 3.587, 83.600 21.365, 86.002 30.500 C 89.428 43.532, 91.978 51.076, 94.877 56.758 C 97.133 61.181, 97.654 65, 96 65 C 95.450 65, 95 64.347, 95 63.548 C 95 62.749, 93.036 60.745, 90.635 59.093 C 84.474 54.854, 73.688 42.924, 67.419 33.413 C 64.487 28.965, 59.296 19.627, 55.884 12.663 L 49.679 0 24.840 0 L 0 0 -0 72.005 M 0.474 72.500 C 0.474 112.100, 0.598 128.154, 0.750 108.176 C 0.901 88.198, 0.901 55.798, 0.750 36.176 C 0.598 16.554, 0.474 32.900, 0.474 72.500" stroke="none" fill="black" fill-rule="evenodd"/>
</svg>