<svg xmlns="http://www.w3.org/2000/svg" width="192" height="144" viewBox="0 0 192 144" version="1.1">
	<path d="M -0 26.065 L -0 52.129 2.969 54.628 C 5.499 56.756, 5.764 57.406, 4.759 59.014 C 3.092 61.684, 5.423 72.377, 8.573 76.506 C 11.664 80.559, 11.628 81.811, 8.384 83.044 L 5.769 84.038 6.234 93.769 C 6.490 99.121, 7.041 104.287, 7.457 105.250 C 8.086 106.704, 7.688 107, 5.107 107 C 2.041 107, 0.766 109.119, 3 110.500 C 4.691 111.545, 4.109 113, 2 113 C 0.086 113, 0 113.667, 0 128.500 L 0 144 46.071 144 C 82.852 144, 92.381 143.735, 93.321 142.686 C 93.970 141.964, 96.271 139.497, 98.435 137.205 C 100.599 134.912, 102.140 132.806, 101.858 132.525 C 101.577 132.243, 97.117 132.936, 91.948 134.064 C 84.769 135.631, 81.994 135.862, 80.196 135.043 C 76.708 133.454, 78.009 131.712, 83.570 130.527 C 88.149 129.551, 88.477 129.281, 88.178 126.738 C 87.948 124.779, 88.304 124, 89.428 124 C 90.844 124, 91.448 125.162, 91.118 127.250 C 90.915 128.541, 94.234 128.070, 101.983 125.707 C 107.851 123.918, 109.792 122.835, 110.983 120.688 C 112.301 118.308, 112.311 117.831, 111.054 117.045 C 110.210 116.517, 108.920 116.508, 107.957 117.023 C 106.192 117.968, 104 116.521, 104 114.411 C 104 113.757, 99.950 111.298, 95 108.945 C 90.050 106.593, 86 104.320, 86 103.893 C 86 101.748, 88.641 102.333, 96.456 106.208 C 103.780 109.841, 105.318 110.282, 106.995 109.235 C 108.686 108.179, 109.179 108.344, 110.540 110.420 C 112.813 113.890, 114.721 114.266, 117.949 111.879 C 120.695 109.849, 120.788 109.494, 120.745 101.140 C 120.721 96.388, 121.034 91.455, 121.441 90.178 C 121.940 88.611, 121.663 87.285, 120.590 86.100 C 118.791 84.112, 118.508 80.892, 120 79.400 C 122.063 77.337, 118.702 72.968, 113 70.297 C 109.975 68.880, 106.487 66.805, 105.250 65.686 C 103.289 63.913, 103 63.867, 103 65.326 C 103 66.247, 102.550 67, 102 67 C 101.450 67, 101 66.479, 101 65.843 C 101 64.977, 93.526 64.868, 71.250 65.412 C 54.887 65.812, 38.462 66.468, 34.750 66.871 C 29.924 67.395, 28 67.278, 28 66.460 C 28 63.323, 50.923 61.058, 83.050 61.021 C 95.342 61.006, 100.960 60.640, 101.800 59.800 C 102.733 58.867, 103 58.886, 103 59.888 C 103 60.843, 104.066 60.996, 107.124 60.479 C 110.119 59.973, 111.483 60.154, 112.110 61.141 C 112.786 62.206, 113.462 61.926, 115.236 59.844 C 118.764 55.706, 127.967 52.033, 134.867 52.011 C 137.801 52.001, 138.162 52.271, 137.682 54.108 C 137.302 55.562, 137.933 56.960, 139.716 58.613 C 142.139 60.858, 142.198 61.124, 140.651 62.833 C 138.642 65.053, 138.567 66.395, 140.367 67.890 C 141.127 68.521, 141.585 70.309, 141.398 71.916 C 141.202 73.601, 141.674 75.315, 142.531 76.026 C 144.629 77.767, 144.345 81.748, 141.901 84.842 C 140.043 87.195, 139.879 88.304, 140.476 94.500 C 141.356 103.637, 142.944 111, 144.035 111 C 144.514 111, 149.725 109.138, 155.616 106.863 C 165.904 102.889, 166.380 102.800, 167.692 104.594 C 170.342 108.218, 168.831 109.352, 154.989 114.121 C 142.436 118.447, 141.522 118.933, 141.823 121.134 C 142 122.436, 142.809 124.015, 143.620 124.645 C 144.432 125.275, 152.162 128.141, 160.798 131.014 C 177.893 136.701, 180.114 137.797, 177.501 139.260 C 175.438 140.414, 168.490 138.851, 155.884 134.397 C 150.595 132.529, 145.939 131, 145.536 131 C 144.535 131, 147.807 135.952, 151.739 140.389 L 154.978 144.044 173.685 143.772 L 192.392 143.500 192.580 71.750 L 192.768 0 96.384 0 L 0 0 -0 26.065 M 0.437 27 C 0.437 41.575, 0.577 47.537, 0.747 40.250 C 0.918 32.962, 0.918 21.037, 0.747 13.750 C 0.577 6.462, 0.437 12.425, 0.437 27 M 164.271 11.940 C 161.851 13.052, 159.178 15.299, 158.024 17.192 C 155.294 21.671, 155.316 28.861, 158.073 32.365 L 160.145 35 156.523 35 C 152.379 35, 147.574 32.814, 146.080 30.250 C 145.414 29.107, 145.050 28.967, 145.030 29.846 C 144.979 32.127, 148.209 36.774, 150.817 38.172 C 153.317 39.511, 167.271 39.821, 184.246 38.914 L 191.992 38.500 191.996 32.870 C 192 27.397, 191.873 27.137, 187.432 23.498 C 184.904 21.426, 181.885 17.688, 180.672 15.127 C 178.532 10.608, 178.364 10.494, 173.490 10.248 C 170.209 10.083, 167.052 10.662, 164.271 11.940 M 0.405 128.500 C 0.406 137.300, 0.559 140.766, 0.745 136.203 C 0.930 131.639, 0.929 124.439, 0.742 120.203 C 0.555 115.966, 0.404 119.700, 0.405 128.500" stroke="none" fill="black" fill-rule="evenodd"/>
</svg>