<svg xmlns="http://www.w3.org/2000/svg" width="192" height="144" viewBox="0 0 192 144" version="1.1">
	<path d="M 0 57 L 0 114 4.500 114 L 9 114 9 107.191 C 9 99.929, 9.969 97.703, 14.017 95.669 C 15.754 94.796, 16.500 93.598, 16.500 91.679 C 16.500 90.170, 17.175 88.515, 18 88.001 C 18.825 87.487, 19.561 86.489, 19.635 85.783 C 19.709 85.077, 19.821 83.911, 19.885 83.191 C 19.948 82.471, 20.468 82.171, 21.041 82.525 C 21.613 82.879, 21.814 84.011, 21.487 85.042 C 21.094 86.279, 21.568 87.338, 22.881 88.158 C 24.367 89.086, 24.730 90.100, 24.317 92.167 C 23.850 94.502, 24.212 95.132, 26.632 96.197 C 30.664 97.972, 30.967 98.668, 30.985 106.191 C 30.993 109.871, 31.450 113.160, 32 113.500 C 32.598 113.869, 33 112.633, 33 110.427 C 33 107.302, 36.219 100, 37.596 100 C 38.712 100, 41.993 106.788, 41.996 109.103 C 42 111.624, 42.243 111.727, 49.651 112.353 C 53.859 112.709, 59.674 113, 62.574 113 C 66.787 113, 68.465 113.520, 70.923 115.589 L 74 118.178 74 110.724 C 74 104.599, 74.385 102.780, 76.161 100.523 L 78.322 97.775 80.139 100.138 C 81.758 102.244, 81.958 104.752, 81.978 123.250 L 82 144 136.840 144 L 191.681 144 192.338 120.750 C 192.700 107.963, 192.996 75.563, 192.998 48.750 L 193 0 96.500 0 L 0 0 0 57 M 0.468 57.500 C 0.468 88.850, 0.595 101.530, 0.750 85.679 C 0.904 69.827, 0.904 44.177, 0.749 28.679 C 0.594 13.180, 0.468 26.150, 0.468 57.500 M 118.153 34.934 C 115.865 37.647, 113.094 40.153, 111.996 40.501 C 108.841 41.503, 109.601 43.330, 112.898 42.670 C 115.395 42.171, 115.960 42.489, 116.988 44.972 C 117.687 46.659, 117.860 48.815, 117.404 50.176 C 116.360 53.298, 116.874 57.151, 118.592 59.079 C 119.367 59.947, 120 61.341, 120 62.175 C 120 64.041, 113.390 71, 111.619 71 C 110.912 71, 110.063 71.270, 109.734 71.600 C 108.832 72.502, 111.154 77.023, 112.190 76.383 C 112.684 76.077, 113.788 76.409, 114.645 77.120 C 115.501 77.831, 116.873 78.511, 117.693 78.631 C 118.512 78.751, 119.255 78.996, 119.342 79.175 C 121.918 84.462, 122.942 84.626, 124.500 80 C 125.148 78.075, 125.987 76.579, 126.364 76.675 C 128.728 77.278, 129.233 77.905, 129.872 81.027 C 130.717 85.161, 134.281 86.042, 134.820 82.250 C 135.192 79.625, 138.090 79.233, 140.357 81.500 C 141.182 82.325, 142.114 83, 142.429 83 C 142.743 83, 143 82.325, 143 81.500 C 143 79.822, 144.562 79.482, 145.476 80.961 C 146.225 82.173, 150 79.044, 150 77.210 C 150 76.320, 150.677 76.080, 152 76.500 C 153.147 76.864, 154 76.680, 154 76.067 C 154 75.480, 153.601 75, 153.113 75 C 151.913 75, 151.107 69.052, 152.215 68.367 C 152.703 68.065, 152.633 67.262, 152.057 66.569 C 151.485 65.880, 151.313 65.020, 151.675 64.658 C 152.037 64.296, 151.813 64, 151.178 64 C 149.514 64, 146.009 60.794, 146.610 59.822 C 146.890 59.370, 144.645 59, 141.622 59 L 136.126 59 136.710 55.398 L 137.295 51.796 134.197 53.398 C 132.493 54.279, 130.627 55, 130.050 55 C 127.916 55, 129.094 51.363, 132.074 48.748 C 133.765 47.264, 134.895 45.640, 134.585 45.138 C 134.276 44.637, 134.687 43.675, 135.500 43 C 137.495 41.345, 136.468 40.003, 133.191 39.985 C 129.363 39.963, 127.802 38.670, 127.621 35.372 C 127.240 28.430, 123.773 28.269, 118.153 34.934" stroke="none" fill="black" fill-rule="evenodd"/>
</svg>