<svg xmlns="http://www.w3.org/2000/svg" width="192" height="144" viewBox="0 0 192 144" version="1.1">
	<path d="M 24.070 1.798 C 15.160 6.218, 14.605 20.797, 23.055 28.431 L 26.878 31.885 24.992 34.283 C 21.473 38.757, 12.926 53.259, 13.481 53.815 C 13.785 54.118, 14.566 53.834, 15.217 53.183 C 17.258 51.142, 17.740 51.821, 19.006 58.530 C 20.063 64.133, 20.497 64.977, 22.064 64.480 C 23.649 63.977, 23.980 64.697, 24.574 69.950 C 25.235 75.798, 26.448 77.602, 27.636 74.505 C 28.136 73.204, 28.585 73.232, 31.106 74.722 C 32.699 75.663, 34.222 77.123, 34.490 77.966 C 34.758 78.810, 36.173 80.788, 37.633 82.361 L 40.287 85.222 41.644 81.996 C 42.390 80.222, 43 76.883, 43 74.576 C 43 68.827, 46.706 54.567, 49.777 48.500 C 52.650 42.825, 53.339 34.193, 51.271 29.800 C 48.346 23.586, 50.468 16.157, 58.001 6.230 C 60.200 3.331, 62 0.744, 62 0.480 C 62 0.216, 54.237 0.022, 44.750 0.048 C 30.586 0.087, 26.886 0.401, 24.070 1.798 M 64 2.566 C 64 3.977, 63.516 6.036, 62.925 7.141 C 62.130 8.626, 62.266 11.209, 63.450 17.050 C 65.084 25.113, 64.816 29.078, 62.506 30.995 C 60.819 32.395, 62.679 39, 64.760 39 C 67.064 39, 77.912 50.633, 86.908 62.750 C 91.502 68.938, 95.571 74, 95.951 74 C 96.330 74, 99.623 69.991, 103.268 65.092 C 113.092 51.888, 122.500 41.450, 125.818 40.076 C 129.992 38.346, 131.250 33.608, 128.695 29.238 C 126.961 26.271, 126.901 25.406, 128.034 19.707 C 128.824 15.732, 129.017 10.979, 128.560 6.719 L 127.841 0 95.920 0 L 64 0 64 2.566 M 133.988 6.391 C 141.774 16.297, 143.789 23.298, 140.729 29.800 C 138.683 34.146, 139.430 42.776, 142.401 49.127 C 143.849 52.222, 145.986 58.519, 147.150 63.120 C 148.932 70.170, 149.145 72.901, 148.501 80.493 C 147.072 97.339, 147.163 107.297, 148.771 110 C 151.085 113.888, 155.271 118.112, 157.776 119.086 C 159.027 119.572, 160.323 120.764, 160.655 121.735 C 160.987 122.706, 162.617 124.668, 164.277 126.095 C 166.636 128.122, 167.155 129.214, 166.656 131.095 C 165.213 136.529, 164.185 136.777, 160.470 132.583 C 157.895 129.677, 157 129.134, 157 130.478 C 157 132.110, 156.307 132.232, 150.037 131.706 L 143.075 131.123 143.495 133.811 C 143.727 135.290, 144.180 138.188, 144.503 140.250 L 145.091 144 153.545 144 C 161.333 144, 162 143.842, 162 142 C 162 140.900, 162.420 140, 162.933 140 C 163.446 140, 164.151 140.900, 164.500 142 C 165.035 143.685, 166.013 144, 170.710 144 L 176.286 144 175.737 136.001 C 175.149 127.416, 176.005 125.182, 178.019 130.045 C 179.877 134.531, 180.256 132.977, 178.511 128.030 C 176.489 122.301, 176.576 121.888, 179.565 123.025 C 183.436 124.497, 183.423 124.365, 179.172 119.250 C 172.616 111.361, 171.832 108.998, 171.243 95.358 C 170.666 82.013, 171.239 80, 175.614 80 C 176.917 80, 178.545 80.900, 179.232 82 C 180.830 84.558, 184.415 84.552, 188.019 81.986 C 193.646 77.980, 192.482 70.247, 185.087 62.500 C 182.987 60.300, 180.026 56.164, 178.507 53.308 C 176.988 50.453, 175.163 47.893, 174.451 47.620 C 173.455 47.237, 173.741 45.447, 175.696 39.823 C 177.743 33.937, 178.119 31.411, 177.635 26.786 C 176.997 20.674, 173.659 11.507, 169.471 4.361 L 166.916 0 147.941 0 L 128.966 0 133.988 6.391 M 41 96.878 L 38.500 99 41 101.122 L 43.500 103.243 43.820 101.122 C 43.995 99.955, 43.995 98.045, 43.820 96.878 L 43.500 94.757 41 96.878" stroke="none" fill="black" fill-rule="evenodd"/>
</svg>