<svg xmlns="http://www.w3.org/2000/svg" width="192" height="144" viewBox="0 0 192 144" version="1.1">
	<path d="M 130.500 2 C 129.417 3.197, 127.420 4, 125.527 4 C 120.509 4, 112.056 6.903, 106.240 10.623 C 102.087 13.280, 100.340 15.221, 98.453 19.274 C 97.114 22.148, 96.015 25.972, 96.010 27.772 C 96.001 30.678, 95.313 31.488, 89.845 35.022 C 86.460 37.210, 83.085 39, 82.345 39 C 80.228 39, 80.769 41.435, 83.444 43.947 C 85.393 45.778, 86.573 46.115, 89.269 45.609 C 92.363 45.029, 92.854 45.293, 95.079 48.738 C 96.607 51.103, 98.435 52.628, 100.005 52.846 C 103.696 53.357, 105.144 54.862, 104.001 56.998 C 103.270 58.363, 103.528 59.107, 105.092 60.145 C 106.832 61.300, 106.982 61.917, 106.094 64.252 C 104.998 67.135, 105.767 67.833, 107.800 65.800 C 108.733 64.867, 109 65.116, 109 66.922 C 109 68.808, 109.265 69.025, 110.411 68.074 C 111.471 67.194, 111.999 67.189, 112.532 68.052 C 112.941 68.714, 114.425 68.965, 116.031 68.644 C 117.994 68.251, 118.994 68.541, 119.410 69.625 C 120.404 72.216, 120.121 72.731, 116.554 74.836 C 114.659 75.954, 111.953 78.698, 110.541 80.934 C 109.130 83.171, 107.418 85.015, 106.737 85.033 C 106.057 85.052, 104.472 85.924, 103.215 86.972 C 101.514 88.390, 101.090 89.509, 101.553 91.356 C 102.026 93.239, 101.671 94.106, 100.079 94.958 C 98.563 95.769, 98.139 96.704, 98.548 98.334 C 98.931 99.859, 98.447 101.191, 97.051 102.454 C 95.916 103.481, 94.860 104.136, 94.704 103.911 C 94.548 103.685, 91.907 100.332, 88.836 96.460 C 83.881 90.212, 82.480 89.114, 76.377 86.700 C 68.063 83.413, 62 82.632, 51.750 83.530 C 43.137 84.284, 42.176 85.411, 46 90.273 C 48.415 93.343, 48.458 93.760, 46.410 94.177 C 45.242 94.414, 46.049 95.745, 49.442 99.182 C 53.441 103.234, 54.777 103.953, 59.362 104.526 C 62.352 104.900, 66.368 104.714, 68.580 104.100 C 70.736 103.501, 72.775 103.009, 73.111 103.006 C 73.813 102.999, 83.813 116.011, 86.555 120.500 C 87.564 122.150, 90.326 125.822, 92.694 128.659 C 97.373 134.265, 98.044 137.477, 95.385 141.535 L 93.770 144 115.393 144 C 136.767 144, 137.002 143.977, 135.768 142 C 135.081 140.900, 134.228 140, 133.873 140 C 133.518 140, 132.502 138.469, 131.614 136.599 C 128.462 129.956, 130.360 118.266, 135.699 111.439 C 138.475 107.890, 138.558 107.861, 145.111 108.204 C 151.077 108.516, 152.266 108.960, 157.298 112.760 C 160.365 115.076, 166.117 120.820, 170.079 125.526 C 179.359 136.546, 180.298 137.051, 184.357 133.212 C 186.086 131.578, 188.512 129.720, 189.750 129.085 C 191.914 127.974, 192 127.418, 192 114.490 L 192 101.050 189.250 102.143 C 183.087 104.593, 179.369 104.946, 171.727 103.806 C 166.103 102.967, 163.651 102.949, 162.860 103.740 C 162.070 104.530, 160.347 103.921, 156.634 101.539 C 153.810 99.727, 151.545 97.739, 151.600 97.122 C 151.655 96.505, 151.767 95.071, 151.850 93.936 C 151.973 92.241, 152.569 91.928, 155.182 92.186 C 157.969 92.461, 158.612 92.035, 160.350 88.766 L 162.335 85.032 159.779 80.266 C 156.158 73.513, 153.612 64.172, 154.953 62.557 C 155.707 61.648, 155.575 60.048, 154.495 56.985 C 153.661 54.622, 153.121 52.545, 153.296 52.371 C 153.470 52.197, 155.329 52.528, 157.426 53.107 C 162.460 54.497, 164.749 52.655, 161.078 50.169 C 159.746 49.266, 157.442 46.613, 155.958 44.272 C 153.331 40.131, 153.294 39.864, 154.579 34.338 C 155.684 29.581, 156.830 27.719, 161.642 22.856 C 164.801 19.664, 167.064 16.731, 166.672 16.338 C 166.279 15.946, 163.267 15.430, 159.979 15.192 C 153.437 14.719, 152.333 13.477, 157.006 11.848 C 160.747 10.544, 161.705 7.263, 159.556 3.108 L 157.949 0 145.129 0 C 133.580 0, 132.131 0.198, 130.500 2 M 146.667 64.667 C 146.300 65.033, 146 66.158, 146 67.167 C 146 69.138, 144.510 69.635, 143.500 68 C 142.627 66.588, 141 66.757, 141 68.259 C 141 68.952, 140.113 70.073, 139.028 70.750 C 137.752 71.547, 137.272 72.603, 137.669 73.741 C 138.504 76.134, 143.374 83.996, 144.023 83.998 C 144.639 84, 146.613 75.492, 147.560 68.750 C 148.210 64.120, 148.031 63.302, 146.667 64.667 M 120.710 68 C 120.423 69.100, 120.595 70, 121.094 70 C 121.592 70, 122 69.100, 122 68 C 122 66.900, 121.827 66, 121.617 66 C 121.406 66, 120.998 66.900, 120.710 68" stroke="none" fill="black" fill-rule="evenodd"/>
</svg>