<svg xmlns="http://www.w3.org/2000/svg" width="192" height="144" viewBox="0 0 192 144" version="1.1">
	<path d="M 44 1.777 C 44 2.755, 44.709 4.567, 45.576 5.805 C 47.126 8.018, 49.137 20.542, 50.542 36.739 C 51.205 44.381, 51.067 45.360, 48.643 50.239 C 44.289 59.001, 40 69.716, 40 71.829 C 40 72.925, 39.129 76.621, 38.064 80.043 C 36.295 85.726, 36.262 86.470, 37.680 88.634 C 39.175 90.916, 39.133 92.286, 37.444 96.414 C 36.891 97.763, 37.006 98.115, 37.830 97.605 C 38.579 97.142, 39 97.624, 39 98.941 C 39 100.105, 39.652 101, 40.500 101 C 41.325 101, 42 101.450, 42 102 C 42 103.862, 43.861 103.014, 44.552 100.837 C 45.160 98.921, 45.344 98.864, 46.169 100.337 C 46.681 101.252, 47.490 102, 47.968 102 C 49.129 102, 48.547 94.891, 47.175 92.328 C 46.337 90.761, 46.650 87.786, 48.533 79.454 C 51.060 68.273, 53 64.026, 53 69.678 C 53 76.217, 57.694 83, 62.220 83 C 63.196 83, 65.716 81.445, 67.820 79.544 C 72.330 75.469, 79.276 73.575, 86.213 74.529 C 90.035 75.055, 91.966 74.704, 96.380 72.684 C 99.376 71.312, 102.325 69.261, 102.932 68.127 C 103.539 66.992, 103.980 63.012, 103.911 59.282 C 103.842 55.552, 104.109 50.813, 104.504 48.750 C 105.541 43.338, 103.181 43.812, 97.945 50.066 C 94.341 54.370, 93.496 54.925, 92.325 53.754 C 91.154 52.582, 91.236 51.708, 92.874 47.938 C 97.432 37.442, 96.245 30.303, 89.538 27.878 C 85.645 26.470, 85.620 25.975, 88.962 16.500 C 89.931 13.750, 90.597 11.050, 90.441 10.500 C 90.285 9.950, 89.869 7.362, 89.517 4.750 L 88.877 0 66.439 0 C 45.603 0, 44 0.127, 44 1.777 M 159 72 L 159 144 175.500 144 L 192 144 192 72 L 192 0 175.500 0 L 159 0 159 72" stroke="none" fill="black" fill-rule="evenodd"/>
</svg>