<svg xmlns="http://www.w3.org/2000/svg" width="192" height="144" viewBox="0 0 192 144" version="1.1">
	<path d="M 0 39.035 L 0 78.070 2.250 76.887 C 6.682 74.556, 13.579 69.509, 18.135 65.262 L 22.770 60.942 31.635 65.304 C 36.511 67.703, 43.133 71.091, 46.352 72.833 C 52.335 76.071, 58.851 76.856, 65 75.078 C 66.375 74.680, 69.059 74.773, 70.964 75.284 C 74.309 76.180, 74.587 76.032, 79.026 70.970 C 81.555 68.087, 85.165 65, 87.049 64.111 C 90.691 62.391, 92.081 59.300, 89.848 57.885 C 87.714 56.532, 87 56.842, 87 59.122 C 87 60.785, 86.709 61.003, 85.658 60.131 C 84.920 59.519, 84.020 59.313, 83.658 59.675 C 83.296 60.037, 82.993 59.471, 82.985 58.417 C 82.964 55.677, 80.547 51.455, 79.168 51.750 C 78.526 51.887, 78 51.298, 78 50.441 C 78 49.584, 77.550 49.160, 77 49.500 C 75.658 50.329, 75.739 49.391, 77.212 47.032 C 78.588 44.828, 77.544 43.056, 75.861 44.739 C 75.061 45.539, 74.095 45.545, 72.377 44.762 C 69.333 43.375, 69.381 42.967, 73 39.500 C 75.736 36.879, 76 36.049, 76.002 30.063 C 76.003 21.945, 78.187 17.163, 83 14.734 C 85.868 13.287, 88.641 13.016, 98.366 13.234 L 110.231 13.500 113.913 17.650 C 116.869 20.982, 118.100 21.704, 120.160 21.310 C 124.297 20.519, 129.589 25.854, 130.946 32.186 C 131.878 36.529, 131.799 37.564, 130.422 39.086 C 128.932 40.732, 128.931 41.389, 130.401 47.252 C 131.280 50.759, 132 54.371, 132 55.279 C 132 57.914, 128.946 66.363, 127.420 67.952 C 123.879 71.638, 118.364 58.778, 119.293 49 C 119.580 45.975, 119.456 42.600, 119.018 41.500 C 118.287 39.668, 118.120 39.752, 117.033 42.500 C 116.245 44.494, 116.172 46.025, 116.816 47.065 C 118.081 49.106, 116.437 52.105, 114.468 51.349 C 113.478 50.969, 112.475 51.892, 111.435 54.141 C 110.580 55.988, 109.262 58.596, 108.506 59.935 L 107.131 62.370 106.474 59.752 C 105.736 56.812, 103.496 56.993, 102.695 60.057 C 102.304 61.555, 103.318 62.583, 107.311 64.738 C 110.165 66.278, 113.942 69.490, 115.850 72 C 118.869 75.970, 119.756 76.517, 123.386 76.648 C 125.649 76.729, 130.485 77.124, 134.134 77.525 C 140.556 78.232, 141.021 78.126, 148.729 74.199 C 153.108 71.967, 159.522 68.991, 162.983 67.585 L 169.275 65.028 175.582 70.928 C 183.030 77.895, 190.657 83.330, 191.905 82.559 C 192.396 82.255, 192.861 63.644, 192.944 41.005 L 193.095 0 96.548 0 L 0 0 0 39.035 M 0.455 39.500 C 0.455 60.950, 0.587 69.583, 0.749 58.684 C 0.911 47.785, 0.910 30.235, 0.748 19.684 C 0.587 9.133, 0.454 18.050, 0.455 39.500 M 20.882 68.266 C 19.394 70.282, 19.394 70.803, 20.876 74.803 L 22.487 79.149 17.824 87.798 C 15.259 92.554, 12.635 96.622, 11.992 96.836 C 11.120 97.127, 11.008 94.623, 11.551 86.974 L 12.277 76.723 9.086 78.608 C 6.682 80.029, 6.038 80.986, 6.472 82.496 C 8.243 88.654, 8.084 89.556, 4.059 96.195 L 0 102.890 0 123.445 L 0 144 34.941 144 C 57.222 144, 70.107 143.637, 70.502 142.997 C 70.843 142.446, 72.256 138.080, 73.644 133.295 C 75.031 128.511, 76.977 122.999, 77.969 121.048 C 79.025 118.971, 79.881 114.804, 80.035 111 C 80.455 100.548, 80.252 99.987, 77.824 104.893 C 76.052 108.473, 73.835 110.464, 65.854 115.643 C 56.131 121.953, 41.967 128.020, 37.059 127.978 C 34.136 127.953, 26 124.505, 26 123.292 C 26 122.848, 27.946 122.640, 30.325 122.830 C 35.017 123.203, 44.097 120.082, 40.695 119.265 C 39.702 119.027, 39.056 118.332, 39.260 117.721 C 39.823 116.030, 45.181 114.901, 48.021 115.873 C 50.216 116.625, 51.833 115.763, 60.487 109.234 L 70.431 101.732 72.040 95.342 C 73.377 90.030, 73.423 88.766, 72.312 87.844 C 71.372 87.064, 71.282 86.365, 72.009 85.489 C 72.707 84.649, 72.719 83.390, 72.046 81.622 C 71.266 79.570, 70.375 79, 67.945 79 C 64.960 79, 64.869 79.124, 65.571 82.250 C 65.973 84.037, 66.309 86.003, 66.318 86.617 C 66.341 88.253, 58.632 102.991, 57.750 102.996 C 57.337 102.998, 57 98.907, 57 93.904 C 57 86.312, 57.342 84.329, 59.068 81.904 L 61.136 79 55.663 79 L 50.190 79 50.720 82.949 C 51.177 86.354, 50.599 88.009, 46.530 94.949 C 43.934 99.377, 41.562 103, 41.258 103 C 40.955 103, 40.961 98.733, 41.272 93.518 C 41.721 85.988, 42.285 83.409, 44.012 80.983 C 45.812 78.455, 45.967 77.665, 44.910 76.392 C 43.304 74.457, 36.033 70.694, 35.903 71.730 C 35.850 72.153, 35.886 74.210, 35.983 76.301 C 36.081 78.391, 35.722 80.641, 35.187 81.301 C 34.651 81.960, 32.773 85.200, 31.012 88.500 C 26.069 97.766, 25.794 97.643, 26.166 86.328 C 26.459 77.417, 26.779 75.860, 28.750 73.764 C 29.988 72.448, 31 71.107, 31 70.784 C 31 70.103, 24.222 65.982, 23.193 66.037 C 22.812 66.058, 21.772 67.061, 20.882 68.266 M 164.250 71.584 C 162.463 72.366, 161 73.249, 161 73.547 C 161 73.844, 162.125 75.301, 163.500 76.783 C 165.054 78.459, 166 80.658, 166 82.593 C 166 84.306, 166.296 88.543, 166.659 92.011 C 167.479 99.859, 166.669 99.497, 160.525 89.276 C 156.480 82.545, 155.977 81.096, 156.536 77.787 C 156.888 75.704, 156.893 74, 156.548 74 C 155.855 74, 149.352 77.353, 147.018 78.914 C 145.768 79.750, 145.973 80.363, 148.324 82.816 C 150.855 85.458, 151.165 86.594, 151.682 95.113 C 152.324 105.683, 152.252 105.696, 146.103 96.095 C 142.911 91.113, 142 88.725, 142 85.345 L 142 81 136.826 81 L 131.651 81 133.780 83.266 C 136.072 85.706, 138.396 97.172, 137.818 103.191 L 137.500 106.500 134.528 101.500 C 132.894 98.750, 130.491 94.925, 129.188 93 C 127.331 90.257, 126.919 88.581, 127.286 85.250 C 127.753 81.012, 127.745 81, 124.445 81 C 122.018 81, 120.966 81.531, 120.503 82.991 C 120.155 84.086, 120.164 85.456, 120.522 86.035 C 120.879 86.614, 120.667 87.696, 120.050 88.439 C 119.228 89.430, 119.218 91.603, 120.012 96.572 C 120.908 102.187, 121.919 104.484, 125.886 109.927 L 130.677 116.500 137.360 116.146 C 141.656 115.918, 144.572 116.230, 145.522 117.018 C 147.737 118.856, 147.302 120.226, 144.750 119.455 C 142.916 118.901, 142.731 119.017, 143.748 120.086 C 144.435 120.807, 146.572 121.352, 148.498 121.297 C 150.424 121.243, 152 121.396, 152 121.639 C 152 122.424, 148.087 129.446, 146.589 131.350 C 145.788 132.368, 144.704 132.935, 144.180 132.611 C 143.656 132.287, 142.671 132.692, 141.991 133.511 C 141.311 134.330, 140.129 135, 139.364 135 C 137.139 135, 131.291 130.763, 129.627 127.945 C 128.787 126.523, 125.113 122.029, 121.462 117.957 C 117.811 113.886, 114.189 109.193, 113.412 107.527 C 112.067 104.643, 112.016 104.830, 112.349 111.508 C 112.559 115.721, 113.424 119.909, 114.519 122.008 C 115.520 123.929, 117.502 129.550, 118.925 134.500 L 121.511 143.500 156.755 143.763 L 192 144.026 192 125.458 L 192 106.890 188 101 C 184.528 95.887, 184 94.381, 184 89.590 C 184 84.990, 183.647 83.881, 181.880 82.936 C 179.779 81.812, 179.764 81.884, 180.184 90.901 C 180.418 95.905, 180.286 100, 179.892 100 C 178.551 100, 170 84.105, 170 81.612 C 170 80.247, 170.450 77.946, 171 76.500 C 171.675 74.724, 171.664 73.240, 170.965 71.935 C 169.764 69.691, 168.706 69.636, 164.250 71.584 M 190.500 88 C 190.840 88.550, 191.316 89, 191.559 89 C 191.802 89, 192 88.550, 192 88 C 192 87.450, 191.523 87, 190.941 87 C 190.359 87, 190.160 87.450, 190.500 88" stroke="none" fill="black" fill-rule="evenodd"/>
</svg>