<svg xmlns="http://www.w3.org/2000/svg" width="192" height="144" viewBox="0 0 192 144" version="1.1">
	<path d="M -0 25.607 C -0 48.034, 0.188 51.142, 1.510 50.635 C 12.105 46.569, 36.250 47.789, 58.250 53.503 C 60.379 54.055, 61 53.865, 61 52.659 C 61 51.803, 62.575 49.900, 64.500 48.432 C 68.440 45.427, 69.204 42, 65.934 42 C 64.798 42, 62.992 41.531, 61.922 40.958 C 59.162 39.481, 60.788 36.917, 66.850 33.187 C 71.843 30.115, 71.883 30.043, 74.045 20.076 C 75.237 14.581, 76.736 12.893, 82.751 10.272 C 90.656 6.828, 96.130 5.532, 102.850 5.516 L 109.250 5.500 114.478 11.250 L 119.706 17 127.230 17 C 139.307 17, 139.932 20.955, 128.750 26.625 C 126.138 27.950, 124 29.266, 124 29.550 C 124 29.834, 125.125 32.287, 126.500 35 C 129.196 40.320, 129.514 41.436, 128.081 40.550 C 127.576 40.238, 126.887 41.236, 126.551 42.769 C 126.105 44.797, 124.859 46.023, 121.969 47.274 C 117.691 49.128, 117.322 49.916, 119.250 53.074 C 120.279 54.760, 120.235 55.332, 119 56.311 C 116.810 58.047, 115.221 61.902, 114.659 66.848 C 114.363 69.449, 113.259 72.160, 111.911 73.594 C 110.672 74.913, 109.848 76.152, 110.079 76.347 C 112.804 78.648, 125.163 85, 126.914 85 C 128.178 85, 130.852 86.269, 132.856 87.820 C 134.860 89.371, 138.188 91.658, 140.250 92.902 C 142.313 94.145, 144 95.955, 144 96.922 C 144 98.878, 159.085 112, 161.333 112 C 162.115 112, 163.315 112.675, 164 113.500 C 164.685 114.325, 165.661 115, 166.170 115 C 167.779 115, 171.924 120.371, 172.887 123.702 C 173.396 125.463, 176.624 130.774, 180.060 135.504 C 185.814 143.422, 186.554 144.080, 189.404 143.802 L 192.500 143.500 192.688 71.750 L 192.877 0 96.438 0 L 0 0 -0 25.607 M 0.435 26 C 0.435 40.025, 0.575 45.763, 0.747 38.750 C 0.919 31.738, 0.919 20.263, 0.747 13.250 C 0.575 6.238, 0.435 11.975, 0.435 26 M 8.942 59.384 C 5.885 60.077, 2.847 60.976, 2.192 61.382 C 1.301 61.932, 1 72.453, 1 103.059 L 1 144 40.601 144 L 80.202 144 79.480 119.250 C 79.083 105.638, 78.548 94.141, 78.290 93.701 C 78.033 93.262, 77.241 93.385, 76.531 93.974 C 74.868 95.355, 75.473 87.661, 77.567 80.812 C 79.379 74.883, 79.392 75, 76.934 75 C 74.349 75, 71.487 73.505, 67 69.813 C 58.398 62.733, 22.555 56.295, 8.942 59.384 M 116.534 95.750 C 116.946 96.713, 117.495 98.737, 117.755 100.250 C 118.015 101.763, 118.626 103, 119.113 103 C 120.440 103, 120.182 96.582, 118.800 95.200 C 117.020 93.420, 115.678 93.746, 116.534 95.750 M 137.976 111.529 C 136.924 112.797, 137.093 113.470, 138.967 115.465 L 141.228 117.871 139.114 120.840 C 137.951 122.473, 137 124.077, 137 124.404 C 137 125.180, 143.817 124.992, 146.891 124.131 C 148.206 123.763, 149.918 122.503, 150.696 121.331 C 152.025 119.330, 151.767 118.920, 146.464 114.600 C 140.194 109.493, 139.788 109.346, 137.976 111.529 M 161.816 135.750 C 160.409 137.262, 158.966 139.738, 158.610 141.250 L 157.962 144 165.481 144 C 169.616 144, 173 143.733, 173 143.407 C 173 142.577, 165.624 133.095, 164.937 133.043 C 164.627 133.019, 163.223 134.238, 161.816 135.750 M 119.807 139.750 C 116.172 143.982, 116.223 144.002, 130.691 143.961 C 143.977 143.923, 144.368 143.864, 141 142.386 C 138.506 141.292, 123.966 138.038, 121.405 138.001 C 121.353 138.001, 120.634 138.787, 119.807 139.750" stroke="none" fill="black" fill-rule="evenodd"/>
</svg>