<svg xmlns="http://www.w3.org/2000/svg" width="192" height="144" viewBox="0 0 192 144" version="1.1">
	<path d="M 63.719 10.291 C 63.137 20.561, 60.677 29.461, 57.421 33.079 C 56.639 33.947, 56 35.181, 56 35.821 C 56 37.532, 46.651 47.969, 43.839 49.398 C 41.358 50.659, 38.222 52.571, 36.857 53.656 C 36.110 54.249, 32.800 55.759, 29.500 57.013 C 23.198 59.406, 8.533 60.348, 2.750 58.731 L 0 57.962 0 100.981 L 0 144 79.061 144 L 158.122 144 157.662 137.750 C 157.409 134.313, 157.620 129.025, 158.131 126 C 159.980 115.062, 162.980 89.386, 162.990 84.424 C 162.998 80.268, 162.538 78.914, 160.448 76.951 C 157.709 74.378, 157.753 71.058, 160.566 67.934 C 161.342 67.073, 162.271 64.897, 162.630 63.098 C 162.990 61.300, 163.895 59.594, 164.642 59.307 C 166.721 58.510, 166.256 56, 164.030 56 C 162.946 56, 161.062 54.650, 159.842 53 C 158.622 51.350, 156.864 50, 155.934 50 C 153.320 50, 151.690 47.370, 152.444 44.368 C 152.979 42.235, 152.490 41.069, 149.969 38.468 C 148.240 36.684, 147.212 34.987, 147.685 34.695 C 148.157 34.403, 153.258 33.858, 159.022 33.483 C 168.989 32.835, 169.671 32.918, 173 35.185 C 174.925 36.496, 177.850 39.603, 179.500 42.090 C 181.150 44.577, 183.487 47.657, 184.693 48.934 C 185.900 50.211, 188.055 53.723, 189.482 56.737 C 192.050 62.161, 192.075 62.438, 191.789 82.777 C 191.562 98.930, 191.211 103.432, 190.153 103.783 C 189.089 104.137, 189.037 103.800, 189.903 102.181 C 191.258 99.649, 191.303 98.695, 190.029 99.482 C 188.849 100.211, 187.558 95.594, 188.359 93.507 C 189.639 90.171, 185.009 73.658, 183.279 75.388 C 182.963 75.703, 182.603 79.683, 182.478 84.231 C 182.291 91.068, 182.590 92.980, 184.208 95.269 C 185.284 96.793, 187.349 100.843, 188.798 104.269 C 191.167 109.872, 191.491 112.163, 192.014 127 C 192.534 141.758, 192.616 140.439, 192.796 114.500 C 192.907 98.550, 192.700 66.263, 192.336 42.750 L 191.674 0 127.988 0 L 64.301 0 63.719 10.291 M 0.459 101 C 0.459 124.925, 0.589 134.713, 0.749 122.750 C 0.908 110.788, 0.908 91.213, 0.749 79.250 C 0.589 67.288, 0.459 77.075, 0.459 101" stroke="none" fill="black" fill-rule="evenodd"/>
</svg>