<svg xmlns="http://www.w3.org/2000/svg" width="192" height="144" viewBox="0 0 192 144" version="1.1">
	<path d="M 0 53.800 L 0 107.600 12.250 108.772 C 18.988 109.417, 30.575 110.598, 38 111.398 C 45.425 112.198, 59.119 113.409, 68.431 114.090 L 85.362 115.326 89.637 110.413 C 91.988 107.711, 94.485 104.375, 95.187 103 C 95.888 101.625, 97.573 98.768, 98.930 96.651 C 101.131 93.216, 101.223 92.704, 99.778 91.895 C 98.657 91.268, 97.955 88.913, 97.499 84.245 C 96.591 74.961, 96.247 74.094, 93.183 73.371 C 86.965 71.903, 84.074 66.094, 87.921 62.800 C 92.354 59.004, 94.025 58.675, 96.594 61.089 C 98.101 62.504, 99.012 64.499, 99.032 66.424 C 99.069 70.001, 101.359 73.514, 102.995 72.503 C 103.616 72.119, 104.571 70.629, 105.117 69.191 C 106.416 65.774, 104.451 61.722, 101.889 62.535 C 99.958 63.148, 95.535 58.109, 95.513 55.269 C 95.505 54.294, 94.545 53.599, 93.051 53.488 C 91.704 53.387, 90.429 52.788, 90.218 52.155 C 90.008 51.523, 87.056 49.719, 83.660 48.147 C 80.264 46.575, 76.871 44.549, 76.120 43.644 C 75.369 42.740, 74.183 42, 73.485 42 C 72.084 42, 71 39.828, 71 37.024 C 71 35.440, 71.475 35.321, 74.750 36.081 C 76.813 36.560, 79.388 36.963, 80.473 36.976 C 82.326 36.999, 82.310 36.906, 80.223 35.443 C 78.468 34.215, 78 32.908, 78 29.243 C 78 25.632, 78.267 24.867, 79.200 25.800 C 79.860 26.460, 82.560 27, 85.200 27 C 89.285 27, 90 27.289, 90 28.941 C 90 30.009, 89.550 31.160, 89 31.500 C 88.450 31.840, 88 32.991, 88 34.059 C 88 35.577, 88.699 36, 91.209 36 C 93.742 36, 95.388 34.982, 99.033 31.160 C 101.994 28.056, 104.833 26.083, 106.950 25.660 C 111.530 24.744, 117.940 24.836, 121.542 25.869 C 124.945 26.845, 142 38.904, 142 40.333 C 142 41.783, 134.367 40.194, 130.756 37.993 C 125.876 35.017, 123.377 35.365, 122.625 39.125 C 121.572 44.391, 121.776 44.627, 129.305 46.814 C 141.241 50.282, 144.892 53.691, 142.553 59.185 C 141.983 60.524, 142.676 61.122, 145.918 62.094 C 148.163 62.766, 150 63.695, 150 64.158 C 150 64.621, 150.707 65, 151.571 65 C 152.436 65, 153.673 65.563, 154.321 66.250 C 155.751 67.766, 156.034 72, 154.707 72 C 154.183 72, 154.339 72.703, 155.052 73.563 C 156.192 74.937, 156.008 75.040, 153.525 74.417 C 151.394 73.882, 150.891 74.015, 151.476 74.961 C 152.048 75.886, 151.672 76.031, 150.038 75.512 C 146.423 74.365, 140.818 75.822, 141.210 77.807 C 141.467 79.108, 142.631 79.502, 146.231 79.509 C 148.808 79.513, 151.444 80.044, 152.089 80.689 C 152.733 81.333, 153.314 84.961, 153.380 88.751 L 153.500 95.641 166.359 98.542 C 177.621 101.083, 179.329 101.736, 180.114 103.800 C 181.045 106.248, 181.244 106.259, 189.660 104.325 C 191.178 103.976, 191.961 104.374, 192.294 105.664 C 192.555 106.674, 192.820 83.313, 192.884 53.750 L 193 0 96.500 0 L 0 0 0 53.800 M 0.466 54.500 C 0.466 84.200, 0.594 96.206, 0.749 81.179 C 0.905 66.153, 0.905 41.853, 0.749 27.179 C 0.593 12.506, 0.466 24.800, 0.466 54.500 M 129.619 80.155 C 132.966 88.462, 133.576 88.951, 135.338 84.734 C 136.149 82.793, 137.639 80.742, 138.648 80.177 C 140.815 78.965, 140.793 78.945, 135 76.882 C 132.525 76.001, 129.727 74.949, 128.781 74.545 C 127.309 73.915, 127.428 74.717, 129.619 80.155 M 108.638 90.007 C 108.371 90.828, 107.632 93.191, 106.996 95.257 C 106.360 97.324, 103.851 101.661, 101.420 104.895 C 96.949 110.843, 95.743 115, 98.489 115 C 100.234 115, 111.428 105.683, 114.248 101.884 C 116.052 99.454, 116.079 99.063, 114.627 96.384 C 113.767 94.798, 112.177 92.378, 111.094 91.007 C 109.560 89.065, 109.017 88.844, 108.638 90.007 M 151 104.025 C 151 105.278, 155.334 107.015, 158.315 106.958 C 160.128 106.923, 159.904 106.590, 157 105 C 153.061 102.844, 151 102.509, 151 104.025 M 166.326 105.510 C 170.173 107.587, 171.695 107.929, 173.826 107.194 C 176.485 106.277, 176.478 106.265, 172.446 105.150 C 170.216 104.533, 166.841 103.775, 164.946 103.466 C 161.607 102.921, 161.650 102.984, 166.326 105.510 M 0 131.015 L 0 144 64.500 144 C 125.268 144, 128.999 143.899, 128.985 142.250 C 128.976 141.287, 128.639 140.028, 128.235 139.451 C 126.774 137.367, 119.059 136, 108.756 136 C 96.899 136, 95.898 135.487, 95.651 129.278 C 95.504 125.599, 95.395 125.495, 91.500 125.293 C 89.300 125.179, 83 124.637, 77.500 124.089 C 63.472 122.691, 50.804 122.311, 52.647 123.342 C 53.643 123.900, 53.966 124.999, 53.582 126.528 C 53.108 128.418, 53.845 129.559, 57.454 132.516 C 61.365 135.721, 61.765 136.403, 60.715 138.084 C 60.057 139.138, 59.100 140, 58.587 140 C 58.075 140, 55.145 137.819, 52.078 135.152 C 45.790 129.688, 43.101 128.150, 33.534 124.549 C 28.092 122.501, 26.416 122.239, 24.662 123.161 C 23.473 123.787, 22.269 124.648, 21.987 125.075 C 21.705 125.501, 20.130 125.996, 18.487 126.175 C 15.758 126.472, 15.473 126.214, 15.182 123.193 C 14.821 119.425, 14.714 119.370, 6.250 118.600 L 0 118.031 0 131.015 M 162.797 139.006 C 161.577 141.150, 160.299 142.028, 158.297 142.100 C 156.758 142.155, 154.375 142.560, 153 143 C 151.559 143.461, 159.294 143.843, 171.250 143.900 C 188.141 143.981, 192 143.747, 192 142.638 C 192 141.693, 189.958 141.067, 185.336 140.593 C 181.671 140.218, 176.060 139.031, 172.867 137.955 C 165.317 135.412, 164.812 135.465, 162.797 139.006 M 135.605 141.588 C 134.750 143.816, 134.818 144, 136.500 144 C 137.325 144, 138 143.352, 138 142.559 C 138 140.443, 136.307 139.757, 135.605 141.588" stroke="none" fill="black" fill-rule="evenodd"/>
</svg>