<svg xmlns="http://www.w3.org/2000/svg" width="192" height="144" viewBox="0 0 192 144" version="1.1">
	<path d="M 138.429 2.055 C 138.429 3.696, 138.889 3.994, 140.714 3.536 C 142.997 2.963, 143.892 4.331, 142 5.500 C 139.969 6.756, 141.025 8.057, 143.152 6.919 C 145.018 5.920, 145.215 5.997, 144.640 7.495 C 144.165 8.734, 144.381 9.068, 145.406 8.674 C 147.378 7.918, 148.235 10.686, 146.845 13.322 C 146.214 14.520, 141.913 19.490, 137.287 24.367 C 131.928 30.016, 129.081 33.769, 129.441 34.708 C 129.752 35.518, 129.077 37.488, 127.940 39.084 C 126.730 40.783, 126.196 42.507, 126.652 43.243 C 127.080 43.934, 127.305 47.295, 127.152 50.712 C 126.980 54.560, 127.533 59.016, 128.607 62.422 C 131.409 71.310, 130.024 74.187, 116.824 86.900 C 110.771 92.730, 104.404 98.287, 102.675 99.250 C 98.233 101.723, 94.327 101.522, 92.964 98.750 C 92.356 97.513, 89.554 94.400, 86.738 91.833 C 82.527 87.994, 81.833 86.907, 82.826 85.709 C 83.491 84.909, 83.754 83.521, 83.410 82.627 C 82.993 81.540, 83.320 81, 84.393 81 C 85.339 81, 86 80.169, 86 78.979 C 86 76.345, 81.346 69.337, 79.183 68.712 C 78.257 68.445, 76.661 67.883, 75.635 67.462 C 74.107 66.836, 73.880 67.047, 74.383 68.630 C 74.858 70.127, 74.315 70.820, 71.981 71.701 C 68.124 73.157, 66.014 78.064, 65.956 85.718 C 65.931 88.898, 65.087 95.915, 64.080 101.311 C 62.475 109.914, 62.406 112.021, 63.518 118.428 C 64.216 122.446, 65.301 126.693, 65.929 127.867 C 67.205 130.252, 70 130.760, 70 128.607 C 70 127.841, 70.597 126.985, 71.326 126.705 C 72.211 126.365, 73.061 122.421, 73.881 114.848 C 75.352 101.263, 77.157 97.885, 76.428 110.085 C 76.151 114.713, 75.685 119.290, 75.393 120.255 C 75.082 121.283, 75.486 122.249, 76.368 122.588 C 77.198 122.906, 77.619 123.829, 77.307 124.642 C 76.951 125.569, 77.479 126.312, 78.724 126.638 C 80.866 127.198, 81.012 129.555, 79.509 139.250 L 78.773 144 98.386 144 C 110.636 144, 118 143.629, 118 143.012 C 118 142.469, 115.654 137.306, 112.786 131.540 L 107.572 121.056 110.536 117.940 C 114.990 113.258, 129.426 104.586, 129.804 106.365 C 130.180 108.136, 127.996 116.660, 123.464 131.115 C 121.559 137.191, 120 142.576, 120 143.082 C 120 143.622, 134.798 144, 156 144 L 192 144 192 133.831 C 192 122.092, 191.774 121.564, 177.913 100.872 C 172.313 92.512, 170.278 88.653, 170.673 87.143 C 170.991 85.928, 170.337 83.542, 169.124 81.486 C 166.339 76.765, 166.064 65.326, 168.476 54.500 C 170.509 45.369, 171.085 44.409, 175.670 42.493 C 178.824 41.175, 179.862 38.745, 179.057 34.564 C 178.574 32.062, 180.187 29, 181.988 29 C 183.400 29, 183.760 28.539, 183.295 27.326 C 182.797 26.028, 183.053 25.807, 184.438 26.338 C 185.747 26.840, 186.073 26.634, 185.662 25.562 C 185.280 24.567, 185.578 24.285, 186.599 24.676 C 187.434 24.997, 188.694 24.433, 189.448 23.401 C 190.627 21.790, 190.492 21.185, 188.400 18.699 C 187.080 17.130, 186 15.180, 186 14.364 C 186 12.231, 187.744 13.618, 189.707 17.313 C 192.543 22.653, 192.437 17.934, 189.560 10.742 C 188.152 7.222, 187 3.366, 187 2.172 C 187 0.002, 186.973 0, 162.714 0 C 138.880 0, 138.429 0.038, 138.429 2.055" stroke="none" fill="black" fill-rule="evenodd"/>
</svg>