<svg xmlns="http://www.w3.org/2000/svg" width="192" height="144" viewBox="0 0 192 144" version="1.1">
	<path d="M 86.587 25.859 C 86.256 26.394, 86.441 28.031, 86.998 29.495 C 88.250 32.789, 89.340 53.801, 89.462 77 C 89.512 86.625, 89.833 94.950, 90.175 95.500 C 91.209 97.161, 91.559 125.885, 90.660 135.250 L 89.820 144 94.910 144 C 98.202 144, 100 143.576, 100 142.800 C 100 141.867, 100.267 141.867, 101.200 142.800 C 102.014 143.614, 106.719 144, 115.836 144 L 129.272 144 128.650 139.462 C 128.303 136.933, 128.561 132.930, 129.233 130.418 C 130.265 126.562, 130.180 125.185, 128.646 120.867 C 127.490 117.610, 127.067 114.524, 127.455 112.161 C 127.786 110.147, 127.624 104.450, 127.095 99.500 C 126.334 92.379, 126.471 88.429, 127.748 80.580 C 130.487 63.757, 127.242 43.842, 121.398 41.599 C 118.263 40.396, 112.428 41.061, 109.567 42.946 C 103.427 46.994, 102.368 53.071, 106.903 58.237 L 109.806 61.544 107.444 62.658 C 105.400 63.623, 104.868 63.448, 103.497 61.355 C 102.625 60.025, 101.428 59.236, 100.836 59.602 C 100.244 59.967, 98.126 58.519, 96.130 56.383 L 92.500 52.500 92 39 C 91.523 26.118, 91.401 25.486, 89.344 25.193 C 88.159 25.024, 86.918 25.324, 86.587 25.859 M 93 63.059 C 93 63.641, 93.450 63.840, 94 63.500 C 94.550 63.160, 95 62.684, 95 62.441 C 95 62.198, 94.550 62, 94 62 C 93.450 62, 93 62.477, 93 63.059 M 101.234 79.078 C 99.438 80.685, 96.851 82, 95.484 82 C 93.511 82, 93 82.507, 93 84.465 C 93 87.638, 95.173 88.694, 102.095 88.886 L 107.689 89.041 106.977 84.770 C 106.585 82.422, 105.867 79.523, 105.382 78.328 C 104.504 76.165, 104.486 76.169, 101.234 79.078 M 94.361 109.215 C 94.729 116.483, 95.473 122.873, 96.015 123.415 C 96.557 123.957, 97 125.633, 97 127.141 C 97 129.590, 98.519 131.815, 99.512 130.821 C 99.721 130.613, 100.610 126.961, 101.489 122.705 L 103.087 114.969 100.044 108.591 C 98.370 105.084, 97 101.528, 97 100.689 C 97 98.304, 95.889 96, 94.739 96 C 94.029 96, 93.907 100.250, 94.361 109.215" stroke="none" fill="black" fill-rule="evenodd"/>
</svg>