<svg xmlns="http://www.w3.org/2000/svg" width="192" height="144" viewBox="0 0 192 144" version="1.1">
	<path d="M 0 72 L 0 144 14.500 144 L 29 144 29 139.071 C 29 135.069, 27.798 131.636, 22.608 120.821 C 13.371 101.569, 12.545 97.663, 12.599 73.500 C 12.639 55.314, 12.874 52.639, 15.186 44.008 C 17.516 35.310, 17.600 34.320, 16.194 32.173 C 14.876 30.162, 14.860 29.702, 16.079 28.931 C 16.861 28.437, 19.075 28.320, 21 28.670 C 25.945 29.569, 40.909 34.710, 43.473 36.390 C 44.654 37.164, 50.543 39.137, 56.560 40.775 C 71.458 44.830, 72 44.940, 72 43.906 C 72 43.408, 71.339 43, 70.531 43 C 69.637 43, 69.288 42.414, 69.638 41.500 C 69.955 40.675, 70.763 40, 71.435 40 C 72.107 40, 76.896 35.963, 82.078 31.029 C 87.260 26.095, 92.175 22.041, 93 22.019 C 93.825 21.998, 96.907 20.860, 99.849 19.490 C 106.944 16.187, 111.278 16.318, 117.750 20.030 C 122.205 22.585, 123 23.484, 123 25.973 C 123 27.586, 122.443 30.129, 121.762 31.624 C 120.777 33.784, 120.777 34.426, 121.762 34.754 C 124.516 35.672, 122.790 46, 119.883 46 C 118.705 46, 118 46.706, 118 47.886 C 118 49.913, 123.320 53, 126.812 53 C 127.918 53, 129.914 54.298, 131.249 55.884 C 133.460 58.512, 134.851 58.965, 146.916 60.986 C 155.455 62.416, 161.729 62.968, 164.585 62.540 C 168.690 61.924, 175.670 63.393, 177.002 65.153 C 177.278 65.517, 180.653 66.195, 184.502 66.658 C 191.152 67.458, 191.516 67.637, 191.816 70.250 C 191.990 71.762, 191.961 73, 191.750 73 C 190.854 73, 179.349 70.844, 177.750 70.377 C 176.622 70.047, 176 70.410, 176 71.398 C 176 74.023, 169.781 80.164, 165.034 82.226 C 145.091 90.889, 140.833 92.051, 136.849 89.919 C 134.274 88.541, 134.138 88.715, 133.363 94.365 C 132.813 98.382, 133.046 99.420, 134.954 101.451 C 136.371 102.959, 136.970 104.518, 136.592 105.710 C 136.220 106.881, 137.033 109.123, 138.748 111.655 C 149.384 127.361, 149.216 127, 145.883 127 C 144.173 127, 143.885 127.432, 144.380 129.250 C 144.718 130.488, 145.525 134.321, 146.173 137.768 L 147.352 144.037 169.926 143.768 L 192.500 143.500 192.757 71.750 L 193.013 0 96.507 0 L 0 0 0 72 M 0.474 72.500 C 0.474 112.100, 0.598 128.154, 0.750 108.176 C 0.901 88.198, 0.901 55.798, 0.750 36.176 C 0.598 16.554, 0.474 32.900, 0.474 72.500 M 38.117 45.228 C 33.425 56.173, 31.580 66.774, 31.544 83 C 31.505 100.224, 32.039 102.822, 39.236 120.427 C 43.639 131.197, 43.899 133.315, 41.604 139.750 L 40.089 144 44.477 144 C 47.946 144, 48.995 143.592, 49.483 142.055 C 49.822 140.985, 52.616 137.810, 55.690 135 C 61.026 130.123, 67.584 126.557, 91.205 115.687 C 96.630 113.191, 100.403 110.576, 103.955 106.852 C 106.730 103.943, 109 101.266, 109 100.903 C 109 100.540, 106.508 98.320, 103.462 95.970 C 92.235 87.309, 91.345 84.741, 96.723 76.527 C 98.154 74.341, 99.432 71.641, 99.563 70.527 C 99.694 69.412, 100.120 67.263, 100.509 65.750 C 101.185 63.124, 99.840 61.832, 98.570 63.887 C 98.269 64.374, 96.430 65.072, 94.483 65.437 C 90.638 66.159, 85.961 63.618, 86.754 61.239 C 87.015 60.455, 86.584 60.222, 85.584 60.606 C 83.857 61.269, 83.453 59.969, 84.914 58.450 C 85.416 57.928, 85.978 56.375, 86.164 55 C 86.474 52.693, 86.155 52.475, 82.016 52.181 C 79.550 52.006, 77.300 51.488, 77.016 51.030 C 76.460 50.133, 48.603 42.082, 43.261 41.274 C 40.224 40.814, 39.903 41.061, 38.117 45.228 M 76.813 45.683 C 77.534 45.972, 78.397 45.936, 78.729 45.604 C 79.061 45.272, 78.471 45.036, 77.417 45.079 C 76.252 45.127, 76.015 45.364, 76.813 45.683 M 133 63.521 C 133 63.821, 134.125 66.287, 135.500 69 C 136.875 71.713, 138 74.653, 138 75.532 C 138 76.412, 138.442 77.958, 138.983 78.967 C 139.916 80.712, 140.449 80.646, 149.733 77.626 C 161.950 73.651, 161.994 73.623, 161.103 70.294 C 160.429 67.772, 159.767 67.489, 150.941 65.948 C 136.085 63.355, 133 62.938, 133 63.521 M 103.596 81.894 C 101.954 83.708, 101.978 83.901, 104.086 85.866 C 106.964 88.547, 108.079 87.763, 106.957 83.851 C 105.781 79.750, 105.621 79.657, 103.596 81.894" stroke="none" fill="black" fill-rule="evenodd"/>
</svg>