<svg xmlns="http://www.w3.org/2000/svg" width="192" height="144" viewBox="0 0 192 144" version="1.1">
	<path d="M 40.494 4.989 C 42.493 8.933, 44.064 10.505, 47.994 12.497 C 51.673 14.361, 53.118 15.730, 53.552 17.758 C 54.895 24.039, 55.465 24.556, 62.468 25.846 C 71.006 27.419, 77 29.817, 77 31.660 C 77 33.717, 71.341 35.807, 63.631 36.597 C 59.984 36.970, 57 37.490, 57 37.752 C 57 38.014, 57.980 39.971, 59.178 42.103 C 61.663 46.524, 61.016 48.229, 57.917 45.424 L 55.821 43.528 56.522 47.264 C 57.458 52.256, 56.348 58.071, 54.587 57.395 C 53.743 57.071, 52.974 57.921, 52.509 59.690 C 51.842 62.230, 51.700 62.308, 51.033 60.500 C 50.313 58.546, 50.280 58.549, 49.609 60.661 C 49.231 61.849, 47.800 63.556, 46.429 64.454 L 43.937 66.088 45.417 62.544 C 46.959 58.853, 45.844 57.554, 44.035 60.934 C 42.144 64.468, 42.806 69.469, 45.500 72 C 49.017 75.304, 48.709 77.806, 44.572 79.534 C 42.330 80.471, 41.032 81.751, 40.822 83.233 C 40.575 84.970, 39.682 85.621, 37 86.018 C 33.778 86.494, 33.659 86.629, 35.500 87.714 C 37.193 88.712, 37.306 89.170, 36.237 90.697 C 35.543 91.688, 34.096 94.412, 33.023 96.750 C 30.729 101.745, 29.254 102.012, 20.539 99.013 C 17.364 97.921, 14.359 97.278, 13.863 97.585 C 13.367 97.891, 13.222 100.473, 13.542 103.321 C 14.023 107.607, 14.673 108.929, 17.311 110.986 C 19.065 112.353, 23.462 116.236, 27.082 119.615 C 30.702 122.994, 34.617 126.061, 35.782 126.431 C 36.947 126.801, 38.803 128.564, 39.907 130.349 C 41.010 132.135, 43.701 135.032, 45.886 136.788 C 48.071 138.544, 50.146 140.885, 50.497 141.991 C 51.123 143.964, 51.943 144, 95.683 144 L 140.232 144 145.160 140.383 C 150.706 136.311, 157 128.626, 157 125.926 C 157 124.834, 156.125 124.015, 154.750 123.820 C 149.774 123.113, 153.055 115.234, 159.723 111.879 C 169.223 107.099, 173.627 101.920, 169.181 100.758 C 168.180 100.496, 166.610 98.698, 165.692 96.763 C 164.774 94.828, 162.857 92.481, 161.433 91.548 C 160.009 90.615, 158.400 88.578, 157.857 87.020 C 157.279 85.361, 155.656 83.686, 153.935 82.973 C 150.265 81.453, 150.268 80.598, 153.957 76.396 C 156.757 73.207, 156.842 72.855, 155.557 69.797 C 154.809 68.020, 153.641 66.380, 152.960 66.153 C 152.243 65.914, 152.016 66.216, 152.420 66.870 C 153.746 69.016, 151.239 67.993, 149.674 65.750 C 148.179 63.607, 148.101 63.595, 148.012 65.500 C 147.935 67.167, 147.659 67.019, 146.355 64.611 C 145.238 62.548, 144.565 62.086, 144.003 62.996 C 142.932 64.728, 141.270 61.544, 140.399 56.091 C 139.749 52.029, 139.687 51.973, 137.766 53.711 C 135.871 55.426, 135.812 55.418, 136.150 53.496 C 136.460 51.729, 135.947 51.500, 131.673 51.500 C 127.560 51.500, 126.549 51.093, 124.839 48.750 C 122.586 45.662, 120.837 45.287, 119 47.500 C 117.181 49.692, 113.598 49.495, 114.449 47.250 C 117.047 40.393, 119.758 35.943, 121.655 35.422 C 122.841 35.097, 124.855 33.719, 126.132 32.360 C 128.221 30.136, 128.255 29.960, 126.476 30.595 C 125.389 30.983, 121.861 33.033, 118.636 35.150 C 108.936 41.519, 108.598 40.096, 116.750 27.215 C 131.496 3.914, 138.604 -1.220, 140.509 10.052 C 141.379 15.205, 142.469 15.722, 144.064 11.737 C 144.777 9.957, 146.651 6.588, 148.228 4.250 L 151.096 0 94.531 0 L 37.966 0 40.494 4.989 M 128.825 16.076 C 121.791 25.665, 120 28.303, 120 29.075 C 120 29.421, 122.630 28.783, 125.845 27.657 C 131.124 25.808, 131.948 25.118, 134.345 20.539 C 137.358 14.784, 137.568 13.159, 135.636 10.517 C 134.372 8.788, 133.874 9.195, 128.825 16.076 M 156.094 117.387 C 155.276 118.372, 155.234 119.026, 155.959 119.474 C 156.539 119.833, 157.292 119.404, 157.631 118.520 C 158.475 116.320, 157.547 115.636, 156.094 117.387 M 28.500 126 C 28.840 126.550, 29.316 127, 29.559 127 C 29.802 127, 30 126.550, 30 126 C 30 125.450, 29.523 125, 28.941 125 C 28.359 125, 28.160 125.450, 28.500 126" stroke="none" fill="black" fill-rule="evenodd"/>
</svg>