<svg xmlns="http://www.w3.org/2000/svg" width="192" height="144" viewBox="0 0 192 144" version="1.1">
	<path d="M 0 72 L 0 144 53.500 144 C 97.116 144, 107 143.756, 107 142.682 C 107 140.704, 104.084 130.955, 102.372 127.210 C 101.545 125.401, 101.038 123.151, 101.245 122.210 C 101.532 120.904, 103.093 121.965, 107.854 126.702 C 111.745 130.572, 114.636 132.693, 115.546 132.344 C 116.363 132.031, 117.789 132.753, 118.786 133.984 C 119.766 135.195, 121.813 136.256, 123.334 136.342 C 125.440 136.462, 125.991 136.918, 125.644 138.250 C 125.393 139.213, 125.543 140, 125.977 140 C 126.411 140, 127.014 140.945, 127.316 142.101 C 128.143 145.265, 130 143.372, 130 139.364 C 130 136.673, 129.236 135.145, 126.750 132.865 C 124.963 131.225, 119.571 125.972, 114.769 121.191 C 107.463 113.919, 106.035 111.979, 106.019 109.309 C 105.996 105.450, 107.816 104.028, 109.620 106.495 C 110.847 108.173, 111.010 108.105, 111.996 105.509 C 112.579 103.977, 112.931 102.621, 112.778 102.497 C 112.625 102.373, 111.487 101.744, 110.250 101.100 C 109.013 100.456, 108 99.454, 108 98.873 C 108 98.291, 107.100 96.671, 106 95.273 C 102.898 91.329, 103.447 89.478, 108.250 87.690 C 110.588 86.821, 114.220 85.803, 116.322 85.430 C 119.136 84.930, 120.394 84.095, 121.089 82.266 C 121.837 80.299, 122.320 80.021, 123.414 80.929 C 124.500 81.830, 125.246 81.503, 126.898 79.403 C 128.054 77.933, 129 76.177, 129 75.500 C 129 74.823, 127.093 71.925, 124.763 69.060 L 120.525 63.851 118.170 66.589 C 116.471 68.564, 115.967 70.087, 116.362 72.060 C 116.858 74.540, 116.520 74.928, 112.704 76.253 C 110.392 77.056, 107.765 78.031, 106.866 78.419 C 105.451 79.030, 105.301 78.512, 105.745 74.571 C 106.069 71.694, 105.799 69.463, 105.011 68.513 C 104.325 67.687, 103.789 65.187, 103.820 62.958 C 103.868 59.493, 103.614 58.988, 102.070 59.478 C 100.550 59.960, 100.163 59.285, 99.621 55.201 C 99.267 52.534, 98.362 49.510, 97.610 48.482 C 96.354 46.764, 96.049 46.737, 93.871 48.149 C 91.157 49.910, 81.451 50.539, 80.510 49.016 C 79.040 46.638, 76.394 48.296, 74.083 53.043 C 71.731 57.873, 71.612 57.960, 69.684 56.254 C 67.731 54.525, 67.711 54.576, 68.304 59.750 C 68.785 63.950, 68.615 65, 67.453 65 C 66.212 65, 66 60.254, 66 32.500 L 66 0 33 0 L 0 0 0 72 M 66 82.538 L 66 98.034 71.047 95.476 C 73.823 94.070, 76.230 92.374, 76.395 91.709 C 76.561 91.044, 77.179 89.029, 77.768 87.232 C 78.700 84.389, 78.544 83.607, 76.569 81.232 C 75.319 79.729, 73.764 77.487, 73.113 76.250 C 72.462 75.013, 71.045 74, 69.965 74 C 67.598 74, 67.396 72.162, 69.587 70.560 C 70.977 69.543, 70.854 69.254, 68.587 68.221 L 66 67.043 66 82.538 M 103.022 74 C 102.885 74.275, 102.620 75.806, 102.434 77.402 C 102.201 79.404, 102.418 79.982, 103.133 79.267 C 103.703 78.697, 103.968 77.166, 103.721 75.865 C 103.474 74.564, 103.160 73.725, 103.022 74 M 69.554 99.136 C 67.276 100.928, 66.643 101.059, 65.873 99.900 C 65.133 98.787, 64.316 99.218, 61.894 102 C 58.477 105.925, 54 114.129, 54 116.467 C 54 119.229, 55.821 118.074, 56.974 114.579 C 58.288 110.596, 63.558 103, 65.006 103 C 65.553 103, 66.010 104.688, 66.023 106.750 L 66.045 110.500 69.510 104.070 C 71.415 100.534, 72.824 97.490, 72.640 97.306 C 72.456 97.123, 71.067 97.946, 69.554 99.136 M 72.030 108.425 C 70.803 111.449, 68.985 116.978, 67.990 120.711 L 66.181 127.500 66.090 121.550 C 65.985 114.623, 64.898 115.052, 62.591 122.932 C 60.459 130.210, 60.569 131.431, 63.500 133 C 65.281 133.953, 66 135.169, 66 137.228 C 66 140.999, 67.787 139.866, 68.387 135.715 C 68.643 133.947, 69.375 128.675, 70.015 124 C 70.654 119.325, 72.083 112.883, 73.190 109.684 C 75.785 102.182, 74.938 101.262, 72.030 108.425 M 77.992 107.030 C 76.396 112.955, 74.814 123.148, 75.399 123.733 C 76.232 124.566, 78.874 117.207, 80.029 110.838 C 81.390 103.334, 79.792 100.346, 77.992 107.030" stroke="none" fill="black" fill-rule="evenodd"/>
</svg>