<svg xmlns="http://www.w3.org/2000/svg" width="192" height="144" viewBox="0 0 192 144" version="1.1">
	<path d="M 75.609 2.788 C 76.648 7.279, 80.831 13.769, 84.478 16.551 L 87.912 19.170 84.027 24.085 C 79.567 29.728, 77.791 36.278, 77.543 48 L 77.384 55.500 81.758 59.693 C 84.333 62.162, 86.725 63.659, 87.574 63.333 C 88.367 63.029, 90.121 63.505, 91.473 64.390 C 92.824 65.276, 94.678 66, 95.593 66 C 96.968 66, 97.147 66.680, 96.627 69.932 C 96.090 73.292, 96.289 73.957, 97.999 74.500 C 99.826 75.080, 100 76.011, 100 85.239 C 100 92.282, 100.409 95.821, 101.352 96.921 C 102.097 97.792, 103.182 103.075, 103.769 108.702 C 104.649 117.122, 104.572 119.916, 103.326 124.702 C 102.496 127.891, 101.687 130.633, 101.529 130.795 C 101.372 130.958, 97.026 129.271, 91.871 127.048 C 86.717 124.824, 81.922 123.004, 81.215 123.002 C 78.440 122.997, 75 119.752, 74.994 117.135 C 74.986 113.113, 73.165 107.424, 71.056 104.830 C 69.412 102.808, 68.270 102.500, 62.429 102.500 C 55.796 102.500, 55.620 102.570, 50.598 107.200 C 45.663 111.749, 45.503 112.069, 45.581 117.200 C 45.710 125.661, 47.408 130.038, 52.390 134.750 C 56.752 138.876, 57.079 139, 63.550 139 C 70.162 139, 70.212 139.021, 69.589 141.500 L 68.962 144 115.394 144 L 161.826 144 161.365 140.750 C 161.112 138.963, 160.458 135.025, 159.913 132 C 159.367 128.975, 158.271 122.844, 157.477 118.375 C 156.683 113.907, 155.717 109.407, 155.330 108.375 C 154.724 106.762, 154.847 106.680, 156.215 107.791 C 157.089 108.501, 158.109 110.299, 158.482 111.785 C 159.428 115.554, 160.854 117, 163.622 117 C 166.770 117, 166.621 115.655, 162.968 111.110 C 158.319 105.324, 155.992 98.138, 156.049 89.739 L 156.098 82.500 159.057 88.500 C 160.684 91.800, 161.829 93.487, 161.601 92.250 C 161.048 89.241, 161.423 89.405, 163.885 93.250 C 165.693 96.073, 165.969 96.215, 165.983 94.333 C 165.992 93.142, 166.468 92.011, 167.039 91.820 C 167.723 91.592, 167.605 90.112, 166.692 87.487 C 165.929 85.294, 165.004 82.150, 164.637 80.500 C 163.992 77.603, 164.025 77.568, 165.603 79.500 C 167.203 81.457, 167.224 81.447, 166.627 79 C 164.687 71.065, 164.695 71.307, 166.444 73.466 C 167.973 75.354, 168.016 75.314, 167.518 72.466 C 167.233 70.835, 166.316 64.353, 165.479 58.061 C 164.642 51.770, 163.259 43.895, 162.406 40.561 C 160.517 33.183, 154.958 21.405, 151.756 18 C 150.463 16.625, 148.374 13.362, 147.113 10.749 C 145.852 8.136, 143.242 4.697, 141.313 3.106 L 137.805 0.215 106.393 0.146 L 74.981 0.077 75.609 2.788 M 118.506 79.990 C 118.170 80.534, 117.825 82.896, 117.740 85.240 C 117.654 87.583, 117.003 90.095, 116.292 90.821 C 115.581 91.548, 115 93.326, 115 94.771 C 115 96.217, 115.360 96.972, 115.800 96.450 C 116.240 95.927, 118.299 93.358, 120.375 90.740 L 124.151 85.980 121.994 82.490 C 119.642 78.685, 119.414 78.521, 118.506 79.990 M 150.642 81.770 C 149.970 82.857, 151.292 87.992, 152.934 90.676 C 153.805 92.101, 153.909 91.406, 153.408 87.500 C 152.747 82.352, 151.666 80.113, 150.642 81.770 M 108.675 101.250 C 108.347 103.588, 107.786 107.075, 107.428 109 C 106.828 112.233, 106.887 112.347, 108.211 110.500 C 110.748 106.959, 112.243 102.106, 111.594 99.519 C 110.640 95.719, 109.344 96.488, 108.675 101.250" stroke="none" fill="black" fill-rule="evenodd"/>
</svg>