<svg xmlns="http://www.w3.org/2000/svg" width="192" height="144" viewBox="0 0 192 144" version="1.1">
	<path d="M 0 50.417 C 0 89.772, 0.274 100.961, 1.250 101.417 C 2.250 101.883, 2.250 102.117, 1.250 102.583 C 0.310 103.022, -0 108.228, -0 123.583 L 0 144 12.295 144 L 24.589 144 28.162 139.250 C 32.421 133.590, 33.049 131.907, 31.489 130.346 C 30.285 129.142, 30.192 115.475, 31.380 114.287 C 31.721 113.946, 32 112.392, 32 110.833 C 32 109.275, 32.406 108, 32.902 108 C 34.221 108, 36 102.273, 36 98.025 C 36 93.146, 38.927 90.553, 46.250 88.945 C 49.413 88.250, 52 87.255, 52 86.734 C 52 86.213, 51.283 86.061, 50.407 86.397 C 49.531 86.733, 47.619 87.268, 46.157 87.586 C 44.696 87.903, 42.326 88.604, 40.892 89.144 C 38.829 89.920, 37.490 89.679, 34.484 87.991 L 30.685 85.857 27.842 87.958 C 25.186 89.922, 23.849 89.565, 25.938 87.450 C 27.220 86.152, 31.610 70.651, 32.447 64.469 L 33.127 59.439 26.570 56.969 C 22.964 55.611, 20.010 53.994, 20.006 53.375 C 20.003 52.756, 19.719 50.844, 19.375 49.125 C 18.800 46.250, 18.964 46, 21.415 46 C 22.880 46, 25.788 45.128, 27.876 44.063 C 31.200 42.367, 31.618 41.761, 31.240 39.184 C 30.550 34.484, 32.840 25.644, 36.064 20.560 C 39.283 15.484, 44.018 12.763, 51.829 11.498 C 54.980 10.988, 57.035 9.842, 59.377 7.286 L 62.595 3.774 65.684 7.293 C 68.099 10.043, 70.003 11.066, 74.407 11.981 C 81.354 13.423, 87.379 17.826, 91.479 24.456 C 94.169 28.808, 94.509 30.242, 94.586 37.560 C 94.653 44.026, 95.122 46.542, 96.788 49.365 L 98.905 52.953 96.847 54.394 C 95.035 55.664, 94.873 56.471, 95.490 61.168 C 95.875 64.101, 96.908 67.625, 97.785 69 C 99.624 71.884, 100.299 76, 98.932 76 C 97.673 76, 97.737 86.719, 99 87.500 C 99.550 87.840, 99.986 89.104, 99.968 90.309 C 99.938 92.399, 99.844 92.376, 97.917 89.795 C 96.144 87.418, 95.601 87.225, 93.449 88.205 C 90.199 89.686, 90.338 90.143, 94.753 92.505 C 98.003 94.244, 98.505 94.987, 98.535 98.115 C 98.554 100.098, 99.239 102.727, 100.056 103.958 C 101.380 105.952, 102.520 106.230, 110.521 106.511 C 128.443 107.140, 141.980 112.984, 154.481 125.487 C 158.891 129.899, 163.850 135.870, 165.500 138.757 L 168.500 144.006 180.500 143.753 L 192.500 143.500 192.759 71.750 L 193.017 0 96.509 0 L 0 0 0 50.417 M 0.464 51 C 0.464 78.775, 0.592 90.138, 0.749 76.250 C 0.906 62.363, 0.906 39.638, 0.749 25.750 C 0.592 11.863, 0.464 23.225, 0.464 51 M 131.612 55.818 C 131.334 56.268, 132.194 58.406, 133.522 60.568 L 135.938 64.500 135.969 61.332 C 135.986 59.589, 135.727 57.452, 135.393 56.582 C 134.750 54.906, 132.462 54.444, 131.612 55.818 M 0.423 123.500 C 0.424 135.050, 0.570 139.638, 0.747 133.696 C 0.924 127.753, 0.923 118.303, 0.745 112.696 C 0.567 107.088, 0.422 111.950, 0.423 123.500" stroke="none" fill="black" fill-rule="evenodd"/>
</svg>