<svg xmlns="http://www.w3.org/2000/svg" width="192" height="144" viewBox="0 0 192 144" version="1.1">
	<path d="M 109.564 2.250 C 109.948 3.488, 111.103 5.694, 112.131 7.154 C 114.466 10.470, 114.467 11, 112.138 11 C 109.807 11, 101.221 15.658, 97.250 19.077 C 92.911 22.813, 89.149 28.928, 87.060 35.635 C 86.056 38.861, 84.880 42.361, 84.447 43.414 C 83.921 44.693, 84.019 45.106, 84.741 44.660 C 85.420 44.241, 86.083 45.577, 86.521 48.246 C 87.050 51.468, 88.214 53.409, 91.320 56.250 C 93.575 58.312, 96.225 60, 97.210 60 C 99.444 60, 99.542 62.781, 97.416 65.817 C 95.920 67.953, 95.976 68.193, 98.416 70.112 C 99.837 71.230, 101 72.787, 101 73.573 C 101 74.358, 101.675 75, 102.500 75 C 103.325 75, 104 75.675, 104 76.500 C 104 77.325, 104.438 78, 104.974 78 C 106.557 78, 109.218 84.057, 108.628 86.315 C 108.329 87.459, 108.493 88.889, 108.992 89.491 C 109.492 90.093, 110.526 93.624, 111.290 97.339 L 112.678 104.093 109.782 106.155 C 108.188 107.290, 106.765 108.057, 106.619 107.859 C 106.473 107.662, 104.249 104.722, 101.677 101.326 C 98.024 96.504, 96.995 94.314, 96.976 91.326 C 96.936 84.812, 95.251 79.626, 92.369 77.140 C 90.073 75.160, 88.846 74.856, 84.733 75.252 C 80.447 75.663, 79.726 75.458, 78.980 73.611 C 78.171 71.609, 78.124 71.629, 78.063 74.006 C 78.013 76.014, 77.014 76.964, 73.029 78.792 C 68.689 80.783, 67.915 81.603, 66.935 85.240 C 66.085 88.397, 66.115 90.874, 67.056 95.454 C 68.119 100.627, 69.009 102.196, 73.219 106.321 L 78.140 111.141 76.518 115.821 C 75.625 118.394, 74.512 125, 74.043 130.500 C 73.574 136, 72.875 141.287, 72.488 142.250 C 71.840 143.864, 72.821 144, 85.143 143.998 L 98.500 143.995 101.373 138.498 C 102.953 135.474, 104.565 133, 104.955 133 C 105.345 133, 105.459 135.475, 105.208 138.500 L 104.752 144 140.916 144 C 175.333 144, 177.273 143.902, 181.075 141.962 C 183.273 140.841, 184.791 139.471, 184.449 138.918 C 184.107 138.365, 184.338 137.297, 184.962 136.545 C 186.515 134.674, 184.757 133.753, 181.834 134.907 C 180.550 135.413, 177.950 136.991, 176.056 138.414 C 174.161 139.836, 171.867 141, 170.958 141 C 168.764 141, 166.626 135.856, 163.478 123 C 162.063 117.225, 160.672 111.712, 160.386 110.750 C 159.314 107.146, 162.053 109.176, 164.434 113.750 C 166.794 118.283, 166.907 118.363, 166.910 115.500 C 166.912 113.850, 166.543 110.588, 166.091 108.250 C 165.470 105.042, 165.581 104, 166.544 104 C 167.562 104, 167.537 102.941, 166.421 98.750 C 163.748 88.707, 165.278 88.069, 169.392 97.512 C 172.423 104.470, 174.794 107.301, 173.598 102.532 C 173.216 101.011, 172.646 98.357, 172.331 96.633 L 171.760 93.500 175 97.796 C 176.783 100.159, 178.400 101.934, 178.593 101.740 C 178.787 101.546, 178.539 99.838, 178.043 97.944 C 177.546 96.050, 176.634 87.975, 176.015 80 C 173.702 50.184, 170.906 39.180, 159.842 16.354 C 155.827 8.071, 147.982 2.962, 141.697 4.540 C 139.872 4.998, 138.929 4.540, 137.637 2.568 C 135.967 0.020, 135.849 0, 122.410 0 L 108.865 0 109.564 2.250" stroke="none" fill="black" fill-rule="evenodd"/>
</svg>