<svg xmlns="http://www.w3.org/2000/svg" width="192" height="144" viewBox="0 0 192 144" version="1.1">
	<path d="M 0 72 L 0 144 17.418 144 L 34.837 144 37.033 137.250 C 38.240 133.537, 40.294 128.544, 41.598 126.153 C 43.526 122.617, 43.758 121.415, 42.842 119.705 C 41.135 116.516, 42.509 93.116, 44.922 84.268 C 46.007 80.291, 47.612 69.134, 48.488 59.476 C 49.365 49.817, 50.483 40.859, 50.974 39.569 C 51.465 38.278, 53.274 35.619, 54.994 33.659 C 57.619 30.669, 57.946 29.768, 57.026 28.048 C 56.423 26.922, 55.303 26, 54.536 26 C 53.770 26, 52.420 25.277, 51.537 24.394 C 49.449 22.306, 51.168 20.018, 54.872 19.955 C 56.318 19.930, 58.850 19.331, 60.500 18.623 L 63.500 17.336 59.500 16.045 C 55.275 14.681, 50.744 11.223, 51.525 9.959 C 51.781 9.546, 53.526 9.555, 55.403 9.978 L 58.818 10.748 56.159 5.384 L 53.500 0.020 26.750 0.010 L 0 0 0 72 M 60.808 3.434 C 62.467 5.323, 64.119 7.798, 64.479 8.934 C 65.446 11.980, 67 11.444, 67 8.065 C 67 6.451, 67.439 3.976, 67.975 2.565 C 68.950 0.002, 68.947 -0, 63.372 -0 L 57.793 0 60.808 3.434 M 72.083 5.049 C 71.487 7.826, 71 10.305, 71 10.558 C 71 10.810, 73.495 9.609, 76.546 7.887 C 79.596 6.166, 82.298 4.965, 82.551 5.217 C 83.361 6.028, 78.635 10.675, 74.213 13.415 C 71.855 14.876, 70.158 16.446, 70.441 16.904 C 70.724 17.363, 72.822 18.036, 75.103 18.400 C 83.133 19.685, 85.578 22.906, 80 24.850 C 77.724 25.644, 77 26.511, 77 28.448 C 77 29.852, 77.395 31, 77.878 31 C 78.360 31, 80.835 33.527, 83.378 36.615 C 88.561 42.912, 89.236 46.593, 86.330 52.718 C 84.866 55.802, 84.777 57.888, 85.612 69.568 C 86.136 76.899, 86.868 83.202, 87.239 83.573 C 87.610 83.944, 88.608 83.981, 89.457 83.655 C 90.566 83.229, 91 81.641, 91 78.007 C 91 73.424, 91.255 72.854, 93.722 71.916 C 98.208 70.210, 101 72.120, 101 76.897 C 101 79.064, 101.273 81.548, 101.607 82.418 C 102.326 84.293, 104.971 84.546, 105.067 82.750 C 105.104 82.063, 105.686 75.727, 106.361 68.671 C 107.382 57.994, 107.357 55.226, 106.212 52.171 C 103.691 45.440, 103.719 44.288, 106.527 39.127 C 109.250 34.124, 109.254 34.092, 107.531 29.803 C 105.367 24.417, 105.255 13.729, 107.313 9 L 108.837 5.500 108.918 13.068 C 109.008 21.343, 111.371 31.021, 113.289 30.965 C 113.955 30.945, 115.625 30.286, 117 29.500 C 121.164 27.119, 129.140 27.606, 133.405 30.500 C 135.431 31.875, 137.282 33, 137.519 33 C 137.955 33, 141 27.460, 141 26.666 C 141 26.428, 140.213 26.027, 139.250 25.774 C 138.287 25.522, 136.846 24.090, 136.046 22.592 C 134.774 20.211, 134.774 19.755, 136.046 18.950 C 136.846 18.444, 138.689 18.024, 140.143 18.015 C 143.028 17.999, 143.935 16.551, 144.120 11.668 C 144.235 8.648, 144.287 8.693, 145.238 12.635 C 146.143 16.387, 146.512 16.757, 149.230 16.635 C 153.756 16.431, 155.085 19.216, 152.020 22.479 C 149.984 24.646, 149.473 24.810, 148.753 23.524 C 147.475 21.240, 146 21.688, 146 24.359 C 146 25.657, 144.686 29.323, 143.081 32.506 C 140.778 37.071, 140.357 38.810, 141.090 40.738 C 141.602 42.082, 142.700 50.679, 143.531 59.841 C 144.363 69.003, 145.758 79.200, 146.631 82.500 C 149.058 91.672, 150.925 104.703, 150.965 112.750 C 150.990 117.859, 151.369 120.003, 152.250 120.010 C 155.194 120.033, 163.822 125.055, 167.684 128.994 C 169.985 131.341, 172.910 135.670, 174.184 138.614 L 176.500 143.966 184.250 143.983 L 192 144 192 72 L 192 0 132.583 0 L 73.166 0 72.083 5.049 M 108.607 81.582 C 107.671 84.020, 107.888 87, 109 87 C 109.550 87, 110 85.425, 110 83.500 C 110 79.705, 109.560 79.099, 108.607 81.582 M 82 83.941 C 82 85.623, 82.450 87, 83 87 C 83.550 87, 84 85.902, 84 84.559 C 84 83.216, 83.550 81.840, 83 81.500 C 82.417 81.139, 82 82.156, 82 83.941 M 102.500 93 C 102.840 93.550, 103.316 94, 103.559 94 C 103.802 94, 104 93.550, 104 93 C 104 92.450, 103.523 92, 102.941 92 C 102.359 92, 102.160 92.450, 102.500 93 M 95.032 96.039 C 95.014 96.885, 94.096 99.350, 92.991 101.517 C 91.247 104.938, 91.115 106.172, 91.989 110.897 C 93.071 116.753, 92.636 118.762, 91.123 114.889 C 90.610 113.575, 89.689 111.211, 89.077 109.636 L 87.963 106.772 82.750 111.250 C 79.882 113.713, 77.236 116.802, 76.868 118.114 C 76.500 119.426, 76.155 119.911, 76.100 119.191 C 76.045 118.471, 75.550 118.160, 75 118.500 C 73.706 119.300, 73.702 123.698, 74.995 124.497 C 75.542 124.835, 76.452 125.976, 77.018 127.033 C 77.849 128.587, 77.754 128.843, 76.523 128.371 C 74.540 127.610, 74.593 129.033, 76.844 137 L 78.681 143.500 97.749 143.771 L 116.817 144.043 117.530 135.477 C 117.923 130.765, 117.902 126.593, 117.485 126.205 C 117.068 125.817, 116.525 126.063, 116.280 126.750 C 116.034 127.438, 115.156 128, 114.328 128 C 113.222 128, 113.509 127.183, 115.411 124.923 C 118.135 121.686, 118.668 119.531, 117 118.500 C 116.450 118.160, 116 118.434, 116 119.108 C 116 119.782, 115.668 120.002, 115.263 119.596 C 114.857 119.191, 114.520 118.132, 114.513 117.244 C 114.506 116.356, 112.101 113.672, 109.170 111.279 L 103.839 106.930 101.304 112.017 C 99.910 114.814, 98.561 116.894, 98.306 116.639 C 98.051 116.384, 98.632 113.671, 99.597 110.611 C 101.238 105.402, 101.244 104.927, 99.675 103.194 C 98.754 102.176, 98 100.676, 98 99.862 C 98 99.048, 97.339 97.509, 96.532 96.441 C 95.377 94.914, 95.057 94.828, 95.032 96.039 M 147 116.941 C 147 117.459, 147.450 118.160, 148 118.500 C 148.550 118.840, 149 118.416, 149 117.559 C 149 116.702, 148.550 116, 148 116 C 147.450 116, 147 116.423, 147 116.941" stroke="none" fill="black" fill-rule="evenodd"/>
</svg>