<svg xmlns="http://www.w3.org/2000/svg" width="192" height="144" viewBox="0 0 192 144" version="1.1">
	<path d="M 0 72 L 0 144 5.896 144 L 11.792 144 12.482 136.200 C 13.141 128.761, 13 127.961, 9.442 118.950 C 3.638 104.249, 1.916 96.722, 1.334 83.500 C 0.678 68.598, 2.620 54.868, 7.392 40.680 C 9.464 34.518, 10.457 30.125, 9.908 29.550 C 9.409 29.027, 9 27.790, 9 26.800 C 9 25.502, 9.767 25.001, 11.750 25.005 C 14.629 25.010, 33.066 32.893, 35.875 35.320 C 37.449 36.680, 73.577 50.463, 77.386 51.156 C 78.465 51.353, 79.407 50.857, 79.586 50 C 79.759 49.175, 80.188 47.532, 80.540 46.349 C 81.076 44.552, 80.676 44.088, 78.102 43.522 C 76.409 43.150, 74.782 42.456, 74.487 41.979 C 73.772 40.822, 89.018 26.243, 94.132 23.193 C 98.140 20.803, 98.227 20.797, 103.838 22.441 C 115.512 25.862, 119.167 29.108, 120.548 37.281 C 121.399 42.323, 119.554 45.939, 115.741 46.702 C 113.953 47.059, 113.076 47.756, 113.389 48.571 C 113.663 49.285, 112.055 51.524, 109.816 53.547 C 106.670 56.389, 106.058 57.423, 107.123 58.097 C 107.880 58.577, 108.926 58.976, 109.446 58.985 C 109.967 58.993, 111.992 60.084, 113.946 61.410 C 118.449 64.464, 138.241 70.047, 145.774 70.389 C 148.923 70.532, 152.512 71.194, 153.750 71.860 C 154.988 72.525, 156 72.760, 156 72.380 C 156 72.001, 156.823 72.435, 157.830 73.346 C 159.244 74.626, 187.576 81.956, 191.250 81.993 C 191.662 81.997, 192 83.575, 192 85.500 C 192 87.425, 191.573 89, 191.052 89 C 190.530 89, 186.368 87.817, 181.802 86.371 C 177.236 84.925, 169.883 82.744, 165.462 81.524 L 157.424 79.306 153.743 83.537 C 150.712 87.021, 148.160 88.517, 139.281 92.012 C 132.093 94.842, 126.691 96.329, 123.071 96.476 C 118.022 96.680, 117.617 96.881, 117.287 99.343 C 117.072 100.948, 117.786 103.145, 119.101 104.923 C 120.294 106.536, 121.008 108.536, 120.689 109.368 C 120.370 110.200, 121.294 112.595, 122.742 114.690 C 133.246 129.885, 133.300 130, 129.893 130 C 128.408 130, 127.960 130.454, 128.376 131.537 C 128.700 132.382, 129.682 135.539, 130.558 138.552 L 132.150 144.029 162.325 143.765 L 192.500 143.500 192.757 71.750 L 193.013 0 96.507 0 L 0 0 0 72 M 0.474 72.500 C 0.474 112.100, 0.598 128.154, 0.750 108.176 C 0.901 88.198, 0.901 55.798, 0.750 36.176 C 0.598 16.554, 0.474 32.900, 0.474 72.500 M 28.597 43.848 C 24.087 52.821, 21.001 63.792, 19.645 75.676 C 17.926 90.743, 18.817 99.980, 23.469 115.328 L 27.033 127.085 24.016 134.618 C 22.357 138.761, 21 142.567, 21 143.076 C 21 143.598, 27.141 144, 35.116 144 L 49.233 144 55.158 138.514 C 58.417 135.497, 66.127 129.703, 72.292 125.638 C 78.456 121.574, 84.901 116.955, 86.612 115.374 C 91.609 110.760, 95.111 105.452, 94.393 103.582 C 94.038 102.658, 91.105 99.380, 87.874 96.299 C 84.643 93.217, 82 89.832, 82 88.777 C 82 87.722, 83.321 84.303, 84.936 81.179 C 87.904 75.437, 89.397 70.741, 90.537 63.560 C 91.094 60.048, 90.990 59.763, 89.581 60.933 C 88.711 61.654, 88 61.818, 88 61.296 C 88 60.774, 86.690 60.539, 85.089 60.774 C 82.818 61.107, 81.817 60.651, 80.540 58.702 C 79.639 57.327, 77.687 55.734, 76.201 55.161 C 60.825 49.235, 36.825 40.535, 34.217 39.942 C 31.065 39.226, 30.841 39.382, 28.597 43.848 M 116.565 68.895 C 116.215 69.462, 117.135 71.838, 118.611 74.175 C 120.086 76.513, 121.512 80.366, 121.780 82.738 C 122.161 86.122, 122.614 86.946, 123.883 86.568 C 124.772 86.302, 129.070 85.141, 133.433 83.988 C 137.796 82.836, 141.733 81.665, 142.183 81.387 C 143.043 80.856, 143.349 75, 142.517 75 C 141.764 75, 120.703 69.216, 118.851 68.500 C 117.944 68.150, 116.916 68.328, 116.565 68.895 M 91.568 86.683 C 91.206 87.626, 91.597 89.025, 92.463 89.892 C 93.846 91.274, 94 91.162, 94 88.773 C 94 85.621, 92.478 84.313, 91.568 86.683" stroke="none" fill="black" fill-rule="evenodd"/>
</svg>