<svg xmlns="http://www.w3.org/2000/svg" width="192" height="144" viewBox="0 0 192 144" version="1.1">
	<path d="M 0 72 L 0 144 37 144 L 74 144 74 141.017 C 74 138.200, 79.432 116.728, 80.638 114.776 C 80.947 114.276, 80.458 113.324, 79.551 112.661 C 77.530 111.183, 78.190 106.444, 82.907 88.576 C 84.638 82.018, 86.331 73.388, 86.668 69.399 C 87.255 62.458, 87.168 62.046, 84.645 59.823 C 83.195 58.545, 81.894 56.375, 81.754 55 C 81.504 52.539, 81.652 52.486, 91.214 51.631 C 96.556 51.153, 102.969 51.068, 105.464 51.442 C 109.269 52.013, 110 52.478, 110 54.329 C 110 55.543, 108.896 58.161, 107.546 60.147 C 106.196 62.133, 105.245 63.925, 105.432 64.129 C 105.620 64.333, 106.024 68.100, 106.331 72.500 C 106.638 76.900, 108.096 85, 109.571 90.500 C 113.639 105.666, 114.179 109.796, 112.445 112.444 C 111.174 114.383, 111.165 115.215, 112.374 118.643 C 114.980 126.029, 118.183 140.194, 117.681 142.113 C 117.194 143.972, 118.194 144.017, 154.840 143.762 L 192.500 143.500 192.757 71.750 L 193.013 0 96.507 0 L 0 0 0 72 M 0.474 72.500 C 0.474 112.100, 0.598 128.154, 0.750 108.176 C 0.901 88.198, 0.901 55.798, 0.750 36.176 C 0.598 16.554, 0.474 32.900, 0.474 72.500" stroke="none" fill="black" fill-rule="evenodd"/>
</svg>