<svg xmlns="http://www.w3.org/2000/svg" width="192" height="144" viewBox="0 0 192 144" version="1.1">
	<path d="M 0 72 L 0 144 38.608 144 L 77.217 144 76.585 141.483 C 76.238 140.099, 74.458 136.611, 72.630 133.733 C 70.802 130.855, 68.989 127.204, 68.601 125.619 L 67.896 122.739 78.698 123.287 C 84.639 123.589, 90.563 124.163, 91.861 124.564 C 94.103 125.255, 94.187 125.119, 93.519 121.896 C 93.132 120.028, 91.057 114.065, 88.908 108.645 C 86.758 103.224, 85 97.914, 85 96.845 C 85 95.776, 84.247 93.461, 83.327 91.700 C 80.722 86.718, 81.932 78.894, 85.646 76.700 C 87.137 75.820, 87.510 73, 86.136 73 C 85.661 73, 85.273 71.208, 85.273 69.017 C 85.273 66.826, 84.711 64.357, 84.024 63.530 C 83.338 62.702, 83.010 61.416, 83.296 60.672 C 83.581 59.928, 83.413 58.684, 82.923 57.909 C 82.204 56.775, 82.028 56.845, 82.015 58.270 C 82.001 59.917, 81.717 59.896, 77.961 57.980 C 70.551 54.200, 68.465 47.860, 71.602 38.654 C 72.809 35.113, 72.925 33.614, 72.073 32.588 C 71.228 31.570, 71.243 30.561, 72.129 28.616 C 73.132 26.415, 73.031 25.692, 71.482 23.980 C 69.274 21.541, 70.520 19.750, 74.425 19.750 C 76.332 19.750, 77 19.232, 77 17.753 C 77 16.073, 77.244 15.957, 78.530 17.025 C 79.713 18.006, 80.632 18.033, 82.587 17.142 C 84.158 16.426, 85.755 16.327, 86.807 16.881 C 87.738 17.370, 91.425 18.083, 95 18.465 C 104.779 19.509, 108.982 20.803, 114.648 24.514 C 121.272 28.852, 125 35.985, 125.745 45.745 C 126.028 49.460, 126.706 53.062, 127.251 53.749 C 127.797 54.436, 128.331 56.826, 128.440 59.061 C 128.587 62.099, 128.178 63.369, 126.818 64.097 C 125.818 64.632, 125 65.745, 125 66.570 C 125 67.743, 124.578 67.845, 123.066 67.035 C 120.361 65.588, 120.111 65.709, 120.751 68.156 C 121.077 69.402, 120.912 70.063, 120.360 69.722 C 119.834 69.398, 118.764 69.528, 117.980 70.012 C 116.399 70.990, 116.869 71.257, 122.229 72.430 C 123.893 72.795, 126.233 74.761, 128.229 77.475 C 130.028 79.921, 131.729 81.940, 132.009 81.961 C 132.290 81.982, 133.138 81.008, 133.896 79.795 C 134.875 78.227, 134.944 77.481, 134.136 77.212 C 132.156 76.552, 132.894 75.229, 136.478 73.013 C 139.867 70.919, 139.944 70.730, 139.448 65.682 C 138.605 57.112, 138.605 54.779, 139.450 48.250 C 140.154 42.810, 140.047 42, 138.629 42 C 136.488 42, 136.504 38.405, 138.649 37.581 C 140.101 37.024, 140.223 35.551, 139.678 25.224 C 139.042 13.166, 140.011 3.848, 141.365 9 C 141.727 10.375, 142.580 16.672, 143.261 22.993 L 144.500 34.486 147.492 35.002 L 150.483 35.517 148.107 37.893 C 146.069 39.931, 145.950 40.392, 147.271 41.132 C 148.119 41.606, 149.612 44.583, 150.589 47.747 C 151.566 50.911, 152.991 54.482, 153.754 55.683 C 154.725 57.210, 154.937 59.241, 154.458 62.433 C 153.828 66.631, 153.944 67, 155.886 67 C 158.933 67, 158.487 69.517, 155 72 C 152.233 73.970, 152 74.606, 152 80.185 C 152 86.093, 151.942 86.222, 149.506 85.756 C 146.511 85.184, 146.414 85.298, 140.969 95.865 C 137.246 103.089, 136.873 104.349, 138.236 105.112 C 139.152 105.625, 139.607 106.787, 139.321 107.882 C 138.929 109.378, 139.787 110.135, 143.461 111.538 C 147.971 113.261, 150.668 116.110, 149.530 117.952 C 149.221 118.452, 149.425 119.144, 149.984 119.490 C 151.861 120.650, 151.131 124, 149 124 C 147.338 124, 147 124.667, 147 127.943 C 147 132.085, 144.450 135, 140.827 135 C 139.877 135, 138.740 135.604, 138.300 136.343 C 137.860 137.081, 136.262 138.483, 134.750 139.458 C 133.238 140.432, 132 141.860, 132 142.630 C 132 143.804, 136.866 143.987, 162.250 143.765 L 192.500 143.500 192.757 71.750 L 193.013 0 96.507 0 L 0 0 0 72 M 0.474 72.500 C 0.474 112.100, 0.598 128.154, 0.750 108.176 C 0.901 88.198, 0.901 55.798, 0.750 36.176 C 0.598 16.554, 0.474 32.900, 0.474 72.500 M 93.500 71.713 C 89.651 72.639, 89.532 74, 93.300 74 C 95.922 74, 97 73.563, 97 72.500 C 97 70.947, 96.837 70.910, 93.500 71.713" stroke="none" fill="black" fill-rule="evenodd"/>
</svg>