<svg xmlns="http://www.w3.org/2000/svg" width="192" height="144" viewBox="0 0 192 144" version="1.1">
	<path d="M -0 72.005 L -0 144.010 96.250 143.755 L 192.500 143.500 192.757 71.750 L 193.013 0 96.507 0 L 0 0 -0 72.005 M 0.474 72.500 C 0.474 112.100, 0.598 128.154, 0.750 108.176 C 0.901 88.198, 0.901 55.798, 0.750 36.176 C 0.598 16.554, 0.474 32.900, 0.474 72.500 M 92.598 46.977 C 79.257 51.368, 72.447 55.457, 68.604 61.385 C 65.838 65.650, 65.109 71, 67.293 71 C 68.004 71, 69.017 72.433, 69.543 74.184 C 70.852 78.542, 72.864 78.931, 73.654 74.981 L 74.292 71.789 75.690 75.115 C 77.156 78.602, 79.798 82, 81.042 82 C 81.444 82, 81.712 78.783, 81.637 74.851 C 81.560 70.842, 81.939 67.561, 82.500 67.381 C 83.050 67.204, 84.625 68.593, 86 70.468 C 87.375 72.343, 89.513 74.138, 90.750 74.457 C 91.987 74.777, 93 75.448, 93 75.950 C 93 76.451, 91.987 77.005, 90.750 77.180 C 88.682 77.474, 88.507 78, 88.592 83.669 C 88.652 87.676, 89.472 91.670, 90.933 95.067 C 92.638 99.030, 93.029 101.319, 92.549 104.524 C 91.811 109.446, 92.384 109.876, 99 109.353 C 104.149 108.946, 109 107.214, 109 105.783 C 109 105.247, 107.987 103.389, 106.750 101.654 C 104.759 98.862, 104.491 97.236, 104.424 87.500 L 104.348 76.500 100.674 76.190 C 98.653 76.019, 97 75.643, 97 75.354 C 97 75.064, 98.368 73.404, 100.039 71.664 C 101.711 69.924, 104.988 66.321, 107.323 63.658 L 111.567 58.816 128.132 71.239 C 137.242 78.071, 146.574 84.413, 148.869 85.331 C 155.754 88.086, 167.799 87.241, 184.250 82.850 L 192 80.781 192 64.890 C 192 56.151, 191.602 49, 191.116 49 C 190.003 49, 171.748 56.578, 166.886 59.058 L 163.251 60.913 156.375 57.512 C 152.594 55.642, 145 52.979, 139.500 51.595 C 134 50.210, 125.563 47.710, 120.752 46.039 C 115.940 44.367, 110.315 43.013, 108.252 43.030 C 106.188 43.046, 99.144 44.822, 92.598 46.977 M 92.052 60.437 C 91.420 61.199, 90.648 63.393, 90.336 65.314 C 89.879 68.135, 90.156 69.013, 91.778 69.881 C 94.448 71.310, 99 67.889, 99 64.453 C 99 61.275, 93.835 58.290, 92.052 60.437" stroke="none" fill="black" fill-rule="evenodd"/>
</svg>