<svg xmlns="http://www.w3.org/2000/svg" width="192" height="144" viewBox="0 0 192 144" version="1.1">
	<path d="M 63.950 4.750 C 63.857 13.507, 62.916 21.373, 61.593 24.449 C 58.314 32.074, 55.577 36.971, 52 41.611 C 49.545 44.796, 40.864 51.427, 35.404 54.288 C 27.744 58.301, 17.836 60.314, 9.648 59.522 C 5.879 59.157, 2.166 58.617, 1.398 58.322 C 0.214 57.868, 0 64.388, 0 100.893 L 0 144 71.500 144 L 143 144 143 135.684 C 143 131.110, 143.413 124.922, 143.918 121.934 C 144.423 118.945, 145.099 114.616, 145.420 112.313 L 146.004 108.125 142.517 108.691 C 139.516 109.178, 138.910 108.931, 138.166 106.920 C 137.481 105.068, 138.304 102.607, 142.142 95.042 C 144.805 89.794, 146.987 84.703, 146.991 83.729 C 146.996 82.754, 145.822 80.177, 144.383 78.002 L 141.766 74.047 144.383 69.042 C 145.822 66.289, 147 63.409, 147 62.641 C 147 61.873, 147.675 60.685, 148.500 60 C 150.183 58.603, 150.585 55.521, 148.952 56.530 C 148.375 56.886, 146.350 55.531, 144.452 53.518 C 142.553 51.505, 141 50.184, 141 50.584 C 141 50.983, 140.076 50.474, 138.946 49.451 C 137.620 48.251, 136.994 46.619, 137.180 44.845 C 137.383 42.909, 136.593 41.185, 134.502 39.002 C 130.697 35.031, 131.931 34.114, 141.500 33.804 C 158.234 33.262, 157.427 32.737, 171.726 53.500 C 173.241 55.700, 176.643 60.136, 179.287 63.358 C 181.930 66.580, 184.358 70.541, 184.682 72.160 C 185.025 73.874, 186.678 76.178, 188.635 77.671 C 191.919 80.176, 192 80.415, 192 87.619 C 192 91.678, 191.623 95, 191.162 95 C 190.700 95, 185.600 90.266, 179.828 84.480 C 168.793 73.418, 167.615 73.154, 170.996 82.500 C 173.734 90.069, 177.157 107.528, 176.452 110.333 C 175.679 113.415, 176.628 115.241, 184.852 126.500 C 189.258 132.532, 191.645 136.819, 192.088 139.500 C 193.002 145.024, 193.132 94.190, 192.336 42.750 L 191.674 0 127.837 0 L 64 0 63.950 4.750 M 0.459 101 C 0.459 124.925, 0.589 134.713, 0.749 122.750 C 0.908 110.788, 0.908 91.213, 0.749 79.250 C 0.589 67.288, 0.459 77.075, 0.459 101 M 162.379 84.206 C 163.450 88.756, 164.903 92, 165.870 92 C 167.100 92, 164.806 84.385, 163.090 82.769 C 161.972 81.717, 161.851 81.963, 162.379 84.206 M 144.769 102.956 C 144.078 105.417, 144.491 106.842, 145.581 105.753 C 145.900 105.433, 146.004 104.121, 145.810 102.836 L 145.459 100.500 144.769 102.956" stroke="none" fill="black" fill-rule="evenodd"/>
</svg>