<svg xmlns="http://www.w3.org/2000/svg" width="192" height="144" viewBox="0 0 192 144" version="1.1">
	<path d="M 0 21.500 C 0 33.325, 0.158 43, 0.351 43 C 0.544 43, 2.074 42.522, 3.751 41.937 C 6.295 41.050, 6.800 40.343, 6.800 37.665 C 6.800 24.735, 16.300 14, 27.742 14 C 32.366 14, 32.823 13.732, 38.849 7.500 C 42.305 3.925, 45.516 1, 45.984 1 C 46.453 1, 48.010 4.487, 49.445 8.750 C 51.853 15.902, 52.366 16.644, 56.087 18.361 C 60.921 20.591, 66.487 26.099, 69.131 31.267 C 71.204 35.320, 71.747 42.605, 70.530 50.039 C 69.943 53.631, 70.123 54.857, 71.394 55.912 C 73.460 57.626, 73.442 59.653, 71.351 60.823 C 70.055 61.549, 69.743 63.106, 69.889 68.123 C 69.992 71.630, 70.456 76.164, 70.921 78.198 C 71.386 80.232, 71.533 83.964, 71.248 86.490 C 70.873 89.820, 71.237 92.025, 72.571 94.503 C 73.584 96.383, 74.033 98.276, 73.569 98.711 C 73.106 99.145, 72.547 99.001, 72.327 98.392 C 72.107 97.782, 71.232 96.432, 70.382 95.392 C 69.065 93.779, 68.916 93.754, 69.375 95.218 C 69.671 96.163, 69.497 97.193, 68.989 97.507 C 68.482 97.820, 69.440 100.310, 71.119 103.039 C 73.400 106.746, 74.774 108, 76.556 108 C 78.684 108, 78.917 108.404, 78.720 111.750 C 78.534 114.922, 78.835 115.547, 80.677 115.810 C 83.721 116.244, 85.672 118.728, 84.158 120.242 C 82.330 122.070, 82.731 123.281, 87.084 129.069 C 89.330 132.056, 92.263 136.637, 93.601 139.250 L 96.034 144 144.017 144 L 192 144 192.083 141.750 C 192.129 140.512, 192.338 108.112, 192.546 69.750 L 192.925 -0 96.463 -0 L 0 0 0 21.500 M 0.425 22 C 0.425 33.825, 0.569 38.663, 0.746 32.750 C 0.923 26.838, 0.923 17.163, 0.746 11.250 C 0.569 5.338, 0.425 10.175, 0.425 22 M 182 40.500 C 182 41.325, 182.177 42, 182.393 42 C 182.609 42, 183.045 41.325, 183.362 40.500 C 183.678 39.675, 183.501 39, 182.969 39 C 182.436 39, 182 39.675, 182 40.500 M 1.040 62.750 C 1.078 68.145, 1.163 68.345, 2.422 66 C 3.159 64.625, 4.077 62.038, 4.461 60.250 C 5.073 57.402, 4.902 57, 3.079 57 C 1.210 57, 1.004 57.581, 1.040 62.750 M 91.813 84.683 C 92.534 84.972, 93.397 84.936, 93.729 84.604 C 94.061 84.272, 93.471 84.036, 92.417 84.079 C 91.252 84.127, 91.015 84.364, 91.813 84.683 M 1 95.048 C 1 100.946, 1.102 101.218, 2.750 99.732 C 3.712 98.864, 7.804 96.572, 11.841 94.639 C 19.164 91.134, 19.174 91.123, 15.841 90.533 C 14.004 90.207, 10.700 90.040, 8.500 90.161 C 6.300 90.283, 3.712 90.023, 2.750 89.584 C 1.185 88.870, 1 89.447, 1 95.048 M 1.300 111 C 1.300 114.025, 1.487 115.263, 1.716 113.750 C 1.945 112.237, 1.945 109.763, 1.716 108.250 C 1.487 106.737, 1.300 107.975, 1.300 111 M 68.427 139.001 C 68.376 142.517, 68.746 144, 69.677 144 C 70.405 144, 71.056 143.100, 71.125 142 C 71.194 140.900, 71.336 139.438, 71.441 138.750 C 71.679 137.197, 70.180 134, 69.215 134.001 C 68.822 134.001, 68.467 136.251, 68.427 139.001" stroke="none" fill="black" fill-rule="evenodd"/>
</svg>