<svg xmlns="http://www.w3.org/2000/svg" width="192" height="144" viewBox="0 0 192 144" version="1.1">
	<path d="M 0 72 L 0 144 31.535 144 C 59.247 144, 63.378 143.799, 65.607 142.338 C 67.002 141.424, 71.373 139.914, 75.321 138.983 L 82.500 137.290 82.445 132.395 C 82.415 129.703, 81.768 122.628, 81.006 116.674 L 79.622 105.848 76.297 106.472 C 74.468 106.815, 68.013 109.578, 61.954 112.611 C 48.773 119.210, 46.921 119.256, 42.241 113.104 C 39.622 109.662, 38.962 107.927, 39.198 105.104 C 39.465 101.921, 40.081 101.186, 44.481 98.814 C 52.490 94.495, 54.943 92.469, 60.306 85.750 C 62.221 83.350, 63.644 82.842, 71.500 81.750 L 80.500 80.500 81.262 63.500 C 81.766 52.244, 82.514 45.415, 83.477 43.288 C 85.334 39.186, 84.473 38.608, 76.221 38.419 C 72.767 38.340, 69.717 38.050, 69.441 37.774 C 69.166 37.499, 71.408 35.300, 74.423 32.887 C 77.438 30.474, 79.927 28.249, 79.953 27.942 C 79.979 27.635, 78.211 26.060, 76.024 24.442 C 73.837 22.824, 72.037 21.163, 72.024 20.750 C 72.011 20.337, 75.065 20, 78.811 20 L 85.622 20 86.903 15 C 87.608 12.250, 88.758 10, 89.459 10 C 90.160 10, 91.662 12.233, 92.796 14.963 C 94.266 18.500, 95.526 20.062, 97.179 20.398 C 98.456 20.658, 103.775 21.612, 109 22.518 C 119.670 24.369, 123.654 25.607, 126.345 27.906 C 128.346 29.615, 128.792 29.292, 133.198 22.946 L 134.895 20.500 134.948 25.250 C 134.985 28.616, 135.583 30.583, 137 32 C 138.100 33.100, 139 34.911, 139 36.025 C 139 37.281, 139.979 38.422, 141.581 39.031 C 144.794 40.252, 144.348 41.808, 140.139 44.065 C 138.309 45.047, 137.347 46.097, 137.942 46.464 C 138.524 46.824, 139 47.829, 139 48.698 C 139 50.023, 138.031 50.190, 133 49.734 C 127.262 49.213, 127 49.289, 127 51.469 C 127 52.723, 126.284 55.718, 125.408 58.124 C 124.143 61.600, 123.944 64.752, 124.438 73.455 C 124.818 80.141, 125.568 85.011, 126.362 85.955 C 128.031 87.935, 131.578 96.533, 132.476 100.774 C 132.988 103.190, 132.640 104.944, 131.150 107.471 C 128.737 111.560, 127.369 123.952, 128.995 126.990 C 129.586 128.096, 130.969 129, 132.067 129 C 134.774 129, 135.594 131.647, 134.049 135.397 C 133.346 137.104, 132.546 139.744, 132.270 141.265 L 131.769 144.030 162.134 143.765 L 192.500 143.500 192.757 71.750 L 193.013 0 96.507 0 L 0 0 0 72 M 0.474 72.500 C 0.474 112.100, 0.598 128.154, 0.750 108.176 C 0.901 88.198, 0.901 55.798, 0.750 36.176 C 0.598 16.554, 0.474 32.900, 0.474 72.500" stroke="none" fill="black" fill-rule="evenodd"/>
</svg>