<svg xmlns="http://www.w3.org/2000/svg" width="192" height="144" viewBox="0 0 192 144" version="1.1">
	<path d="M 84.469 21.071 C 78.190 22.879, 73.987 29.371, 74.015 37.218 C 74.029 41.018, 73.557 41.908, 69.816 45.126 L 65.600 48.752 68.550 51.344 C 70.173 52.770, 72.014 53.951, 72.643 53.968 C 74.611 54.023, 75.112 57.180, 73.535 59.587 C 72.495 61.174, 72.290 62.610, 72.877 64.196 C 73.346 65.463, 73.903 66.358, 74.115 66.185 C 74.856 65.581, 78.510 67.390, 79.675 68.938 C 80.321 69.797, 82.121 70.500, 83.675 70.500 C 85.513 70.500, 86.500 71.021, 86.500 71.992 C 86.500 73.033, 84.656 73.814, 80.409 74.574 C 77.059 75.174, 73.554 75.957, 72.621 76.315 C 70.839 76.999, 66.027 86.329, 66.010 89.133 C 65.997 91.223, 62.051 92.287, 60.154 90.713 C 59.272 89.981, 56.429 89.641, 52.890 89.845 C 45.636 90.263, 41.155 88.821, 33.470 83.598 C 30.153 81.344, 25.091 78.411, 22.220 77.079 C 18.407 75.311, 16.992 74.098, 16.971 72.579 C 16.945 70.774, 16.538 70.961, 13.880 74 C 12.196 75.925, 8.384 80.281, 5.409 83.680 L 0 89.861 0 100.430 C 0 106.897, 0.393 111, 1.012 111 C 1.569 111, 3.608 108.525, 5.543 105.500 C 9.286 99.649, 11.215 98.771, 13.232 102 C 14.678 104.315, 16 104.612, 16 102.622 C 16 101.865, 16.574 100.768, 17.276 100.186 C 18.966 98.783, 24.350 101.359, 26.461 104.581 L 28.019 106.959 31.260 104.983 C 35.589 102.344, 38.918 102.488, 42.991 105.493 C 46.238 107.889, 46.472 107.921, 48.935 106.304 C 56.496 101.343, 62.911 97.968, 65.923 97.365 C 68.377 96.875, 69.113 97.008, 68.592 97.851 C 68.197 98.490, 68.802 100.318, 69.937 101.911 C 71.448 104.033, 72 106.353, 72 110.576 C 72 114.311, 72.531 116.929, 73.508 118.008 C 75.683 120.412, 74.394 125.863, 71.319 127.264 C 69.685 128.009, 69.135 128.856, 69.590 129.928 C 71.167 133.643, 71.045 135.878, 69.089 139.086 C 67.944 140.964, 67.006 142.838, 67.004 143.250 C 67.002 143.662, 76.889 144, 88.975 144 L 110.950 144 109.930 141.316 C 109.208 139.416, 109.253 137.803, 110.087 135.791 C 111.070 133.417, 110.987 132.643, 109.581 131.089 C 108.173 129.533, 107.947 127.413, 108.199 118.116 C 108.364 112.003, 108.786 107.001, 109.136 107.001 C 109.487 107, 110.087 109.096, 110.472 111.659 C 111.619 119.312, 112.586 121, 115.820 121 C 120.416 121, 122.394 117.972, 121.688 112.015 C 121.362 109.257, 121.382 107, 121.733 107 C 122.084 107, 123.416 107.981, 124.692 109.180 L 127.013 111.361 130.893 109.180 C 135.962 106.331, 138.169 106.430, 142.032 109.681 C 144.981 112.162, 145.292 112.229, 146.211 110.587 C 147.455 108.364, 153.369 105.821, 155.444 106.617 C 156.300 106.945, 157 108.091, 157 109.163 C 157 110.880, 157.276 110.791, 159.318 108.417 L 161.636 105.722 163.568 108.262 C 164.631 109.660, 166.293 112.243, 167.262 114.004 C 168.580 116.398, 169.463 117.025, 170.762 116.492 C 174.628 114.906, 180.813 114.867, 185.959 116.395 C 192.429 118.317, 192.002 118.291, 191.993 116.750 C 191.989 116.063, 189.242 113.250, 185.889 110.500 C 177.656 103.748, 168.924 94.159, 163.287 85.680 C 159.003 79.235, 158.549 78.844, 157.661 80.835 C 157.129 82.026, 156.326 83, 155.876 83 C 154.802 83, 145.929 87.185, 139 90.960 C 132.907 94.280, 123 95.325, 123 92.649 C 123 90.414, 118.008 81.624, 115.677 79.754 C 114.480 78.794, 110.463 77.088, 106.750 75.962 C 102.610 74.707, 100 73.375, 100 72.517 C 100 70.616, 101.707 69.686, 102.338 71.244 C 102.736 72.226, 103.056 72.204, 103.799 71.143 C 104.495 70.150, 104.941 70.096, 105.465 70.943 C 105.964 71.750, 106.680 71.522, 107.840 70.187 C 108.877 68.993, 110.509 68.383, 112.190 68.563 C 114.254 68.784, 114.744 68.496, 114.294 67.324 C 113.972 66.485, 114.272 65.450, 114.960 65.025 C 115.929 64.426, 115.823 63.660, 114.490 61.626 C 112.935 59.252, 112.925 59, 114.385 59 C 115.351 59, 116 58.169, 116 56.933 C 116 55.351, 116.450 55.008, 117.916 55.473 C 120.665 56.346, 121.446 54.330, 119.506 51.369 C 117.534 48.360, 118.049 47.421, 120.849 48.919 C 123.834 50.516, 124 50.362, 124 46 C 124 42.108, 124.093 42, 127.441 42 C 131.367 42, 132.643 40.778, 130.540 39.033 C 128.803 37.592, 126.809 31.847, 126.599 27.683 C 126.393 23.576, 125.145 23.433, 119.952 26.921 L 115.537 29.886 112.468 26.535 C 110.658 24.559, 107.779 22.778, 105.450 22.192 C 99.523 20.703, 87.902 20.082, 84.469 21.071" stroke="none" fill="black" fill-rule="evenodd"/>
</svg>