<svg xmlns="http://www.w3.org/2000/svg" width="192" height="144" viewBox="0 0 192 144" version="1.1">
	<path d="M 75.615 39.814 C 75.303 40.319, 77.304 44.780, 80.062 49.726 C 84.076 56.924, 85.138 59.815, 85.382 64.201 C 85.749 70.833, 86.289 71.805, 90.605 73.608 C 94.813 75.367, 95.567 78.088, 94.111 86.261 C 92.182 97.083, 92.138 97.749, 92.953 103.687 C 93.416 107.068, 93.368 109.744, 92.836 110.083 C 92.292 110.430, 92.332 111.744, 92.936 113.333 C 94.137 116.492, 93.029 116.795, 90.500 114 C 89.505 112.900, 87.972 112.014, 87.095 112.032 C 85.812 112.057, 85.891 112.348, 87.500 113.520 C 91.016 116.080, 95 120.297, 95 121.458 C 95 122.076, 97.362 123.805, 100.250 125.300 C 106.497 128.533, 107.376 129.226, 112.250 134.753 C 114.447 137.244, 116 140.040, 116 141.503 C 116 143.990, 116.036 144, 125.500 144 C 133.832 144, 135.016 143.785, 135.129 142.250 C 135.667 134.948, 135.694 135.010, 128.829 128.035 C 119.050 118.099, 113.341 108.877, 112.708 101.989 C 112.431 98.970, 111.888 95.304, 111.503 93.843 C 111.003 91.946, 111.377 90.373, 112.812 88.343 C 115.979 83.861, 116.448 77.201, 114.043 70.873 C 112.583 67.031, 112.001 63.136, 112.001 57.200 C 112 45.870, 109.284 41, 102.966 41 C 100.272 41, 94 47.118, 94 49.745 C 94 50.815, 94.900 52.505, 96 53.500 C 98.585 55.840, 98.526 56.195, 95.244 58.052 C 90.246 60.878, 88.189 59.374, 82.836 48.981 C 78.025 39.639, 76.735 38.002, 75.615 39.814 M 94.015 70.250 C 94.024 70.938, 94.467 72.175, 95 73 C 95.755 74.169, 95.973 73.893, 95.985 71.750 C 95.993 70.237, 95.550 69, 95 69 C 94.450 69, 94.007 69.563, 94.015 70.250 M 108.625 126.858 L 105.749 127.500 109.761 129.750 C 114.862 132.611, 115.200 132.578, 114.816 129.259 C 114.477 126.322, 113.216 125.833, 108.625 126.858" stroke="none" fill="black" fill-rule="evenodd"/>
</svg>