<svg xmlns="http://www.w3.org/2000/svg" width="192" height="144" viewBox="0 0 192 144" version="1.1">
	<path d="M 95.877 14.139 C 94.051 16.044, 93.395 17.617, 93.719 19.313 C 94.040 20.989, 93.454 22.440, 91.843 23.962 C 88.582 27.041, 81.986 30.368, 79 30.440 C 73.602 30.570, 72.466 34.007, 76.167 39.012 C 78.103 41.630, 78.209 42.358, 77.167 45.837 C 75.378 51.808, 75.744 54.357, 78.853 57.560 C 80.422 59.177, 82.001 62.100, 82.362 64.056 C 82.723 66.012, 83.853 69.250, 84.873 71.251 C 86.851 75.130, 86.324 76, 81.996 76 C 80.753 76, 79.758 77.218, 78.932 79.750 C 78.259 81.813, 76.875 84.573, 75.855 85.885 C 74.835 87.197, 74 88.810, 74 89.471 C 74 90.131, 72.375 92.757, 70.390 95.306 C 67.384 99.164, 65.464 100.447, 58.922 102.970 C 54.600 104.636, 50.150 106, 49.032 106 C 47.915 106, 47 106.417, 47 106.927 C 47 108.962, 40.515 111, 34.037 111 C 29.734 111, 26.696 111.519, 25.441 112.468 C 22.781 114.480, 22.191 114.363, 21.820 111.750 C 21.525 109.678, 20.908 109.476, 14 109.194 C 9.875 109.025, 5.038 109.158, 3.250 109.489 L 0 110.091 0 122.895 L 0 135.700 6.750 138.435 C 10.463 139.939, 14.694 141.807, 16.154 142.585 C 18.374 143.768, 30.936 144, 92.904 144 L 167 144 167 140.019 C 167 136.529, 166.661 135.943, 164.250 135.269 C 159.966 134.071, 146.927 134.487, 142.542 135.961 C 137.559 137.637, 134.498 137.552, 124.471 135.457 C 117.670 134.037, 116.120 133.327, 114.338 130.819 L 112.234 127.857 114.537 125.554 C 117.527 122.564, 118.565 115.728, 116.908 109.929 C 116.213 107.493, 115.504 101.900, 115.333 97.500 C 114.529 76.776, 114.996 78.714, 110.500 77.448 C 107.793 76.685, 106.425 75.703, 106.268 74.410 C 106.140 73.360, 106.281 73.037, 106.582 73.694 C 107.437 75.559, 109.998 74.029, 110.015 71.643 C 110.028 69.878, 110.208 69.765, 111.034 71 C 111.913 72.313, 112.204 72.283, 113.368 70.766 C 114.099 69.812, 114.939 69.272, 115.233 69.567 C 115.931 70.264, 117.999 64.315, 118.003 61.601 C 118.005 60.445, 117.034 56.219, 115.845 52.209 L 113.684 44.918 115.888 41.938 C 118.151 38.876, 117.982 37, 115.441 37 C 114.648 37, 114 36.305, 114 35.456 C 114 34.607, 113.438 34.033, 112.750 34.181 C 112.063 34.329, 108.844 31.648, 105.598 28.225 C 100.003 22.324, 98.675 19.467, 103.738 24.224 C 105.745 26.109, 106.247 26.223, 107.037 24.974 C 107.550 24.163, 107.976 22.331, 107.985 20.902 C 107.997 18.832, 107.187 17.937, 104 16.500 C 101.800 15.508, 100 14.116, 100 13.407 C 100 11.094, 98.549 11.351, 95.877 14.139 M 185.877 49.809 C 181.839 54.014, 182.392 61.238, 187.113 65.959 L 190.149 68.995 188.074 71.632 C 185.524 74.875, 185.475 76.215, 187.829 78.345 C 191.675 81.826, 192 80.708, 192 64 C 192 48.056, 191.992 48, 189.750 48.059 C 188.512 48.092, 186.770 48.880, 185.877 49.809 M 72.091 107.996 C 70.216 109.599, 67.291 111.212, 65.591 111.580 C 63.891 111.947, 59.894 113.558, 56.710 115.159 C 53.525 116.760, 50.362 117.941, 49.680 117.785 C 48.999 117.628, 48.454 117.950, 48.470 118.500 C 48.487 119.050, 50.075 119.376, 52 119.225 C 53.925 119.073, 60.337 119.003, 66.250 119.068 C 75.469 119.170, 77 118.960, 77 117.593 C 77 116.717, 77.675 116, 78.500 116 C 79.325 116, 80 115.723, 80 115.384 C 80 114.078, 76.504 105.002, 76.015 105.041 C 75.732 105.063, 73.966 106.393, 72.091 107.996 M 30.813 115.683 C 31.534 115.972, 32.397 115.936, 32.729 115.604 C 33.061 115.272, 32.471 115.036, 31.417 115.079 C 30.252 115.127, 30.015 115.364, 30.813 115.683 M 186.500 125.704 C 178.694 137.682, 178.660 137.764, 180.039 141.095 C 181.157 143.792, 181.627 144, 186.621 144 L 192 144 192 131 C 192 123.850, 191.887 118.007, 191.750 118.016 C 191.613 118.025, 189.250 121.484, 186.500 125.704" stroke="none" fill="black" fill-rule="evenodd"/>
</svg>