<svg xmlns="http://www.w3.org/2000/svg" width="192" height="144" viewBox="0 0 192 144" version="1.1">
	<path d="M 0 72 L 0 144 36.551 144 L 73.102 144 70.444 140.516 C 67.608 136.797, 67.587 136.157, 69.899 124.065 C 70.470 121.076, 70.564 118.151, 70.108 117.565 C 67.450 114.156, 68.462 103.804, 71.570 102.612 C 72.356 102.310, 73 101.297, 73 100.360 C 73 99.424, 73.656 97.932, 74.458 97.046 C 75.333 96.079, 76.191 92.145, 76.602 87.217 C 76.979 82.698, 77.617 79, 78.019 79 C 78.421 79, 79.027 77.614, 79.366 75.920 C 79.705 74.226, 80.728 71.267, 81.641 69.345 C 83.188 66.085, 83.184 65.038, 81.590 53.773 C 79.189 36.806, 78.592 26.018, 79.873 22.750 C 81.262 19.205, 82.146 19.284, 84.435 23.160 C 85.929 25.688, 86.521 29.930, 87.401 44.410 C 88.005 54.359, 88.864 63.063, 89.309 63.750 C 89.754 64.438, 89.906 65.342, 89.648 65.761 C 89.389 66.180, 89.812 67.391, 90.589 68.452 C 91.814 70.127, 92 65.734, 92 35.191 L 92 0 46 0 L 0 0 0 72 M 90.607 74.582 C 90.273 75.452, 90 78.795, 90 82.012 C 90 87.308, 89.788 87.891, 87.760 88.180 C 86.515 88.358, 85.360 89.342, 85.159 90.396 C 84.871 91.903, 85.176 92.132, 86.649 91.512 C 87.667 91.084, 89.287 90.765, 90.250 90.804 C 91.791 90.867, 92 89.811, 92 81.938 C 92 72.989, 91.742 71.625, 90.607 74.582 M 91.650 101.154 C 91.292 106.188, 91 117.888, 91 127.154 L 91 144 99.469 144 C 105.805 144, 107.829 143.685, 107.509 142.750 C 107.022 141.329, 105.851 130.771, 105.762 127 C 105.629 121.338, 106.761 115.553, 108.177 114.660 C 110.056 113.475, 109.115 107.551, 106.054 101.295 C 104.393 97.899, 103.336 96.966, 100.564 96.446 C 98.676 96.092, 96.357 94.947, 95.410 93.901 C 94.464 92.855, 93.377 92, 92.995 92 C 92.612 92, 92.007 96.119, 91.650 101.154 M 100 129.893 C 100 130.779, 102.347 132, 104.050 132 C 104.538 132, 104.678 131.325, 104.362 130.500 C 103.750 128.906, 100 128.384, 100 129.893 M 69.667 130.667 C 67.798 132.535, 71.056 139.701, 73.178 138.390 C 73.630 138.110, 74 138.359, 74 138.941 C 74 139.523, 74.450 140, 75 140 C 76.709 140, 76.100 135.949, 73.932 132.904 C 71.838 129.964, 70.875 129.459, 69.667 130.667" stroke="none" fill="black" fill-rule="evenodd"/>
</svg>