<svg xmlns="http://www.w3.org/2000/svg" width="192" height="144" viewBox="0 0 192 144" version="1.1">
	<path d="M 63.728 9.250 C 63.163 18.861, 59.961 30.958, 57.426 33.061 C 56.642 33.712, 56 34.868, 56 35.629 C 56 36.390, 52.962 40.072, 49.250 43.810 C 41.399 51.715, 30.703 57.515, 21.134 59.056 C 15.180 60.015, 2.888 59.667, 0.976 58.485 C 0.347 58.096, -0 73.186, -0 100.941 L 0 144 52.439 144 L 104.877 144 105.507 139.250 C 105.853 136.638, 107.663 129.325, 109.529 123 C 116.630 98.925, 118.458 79.915, 113.814 78.441 C 110.563 77.409, 109.550 73.771, 111.476 70.046 C 112.395 68.268, 112.899 66.566, 112.596 66.263 C 112.293 65.959, 110.107 66.451, 107.739 67.356 C 102.310 69.429, 100 69.440, 100 67.393 C 100 66.391, 99.447 65.998, 98.532 66.349 C 97.725 66.659, 96.798 66.482, 96.473 65.956 C 96.148 65.430, 94.843 65, 93.573 65 C 90.988 65, 74.090 59.615, 69.939 57.468 C 68.462 56.705, 66.982 56.351, 66.651 56.682 C 65.790 57.543, 63 55.018, 63 53.378 C 63 51.344, 67.773 51.706, 73 54.135 C 80.247 57.503, 92.809 59.959, 96.443 58.717 C 98.124 58.142, 99.792 57.231, 100.148 56.692 C 100.567 56.058, 102.404 56.116, 105.341 56.856 C 112.313 58.611, 115.676 58.348, 116.290 56 C 116.626 54.713, 116.320 54, 115.432 54 C 114.057 54, 110.770 48.765, 111.212 47.280 C 111.340 46.851, 110.581 45.206, 109.526 43.625 C 107.713 40.909, 107.698 40.591, 109.270 37.853 C 110.520 35.675, 110.693 34.322, 109.967 32.412 C 108.253 27.904, 108.684 26.705, 111.750 27.461 C 117.709 28.931, 126.656 33.438, 129.587 36.447 C 132.130 39.057, 132.790 40.716, 133.327 45.854 C 133.686 49.285, 134.434 52.942, 134.989 53.980 C 135.545 55.019, 136 57.114, 136 58.637 C 136 60.340, 137.129 62.577, 138.935 64.452 C 140.882 66.474, 142.020 68.846, 142.316 71.500 C 142.562 73.700, 143.491 77.173, 144.381 79.218 C 145.272 81.263, 146 85.313, 146 88.218 C 146 91.124, 146.644 96.581, 147.432 100.346 C 148.851 107.126, 148.673 110, 146.834 110 C 146.310 110, 146.160 110.450, 146.500 111 C 146.840 111.550, 146.161 112, 144.992 112 C 142.407 112, 142.679 113.184, 147.754 124 C 149.689 128.125, 152.286 134.200, 153.525 137.500 L 155.778 143.500 174.139 143.500 L 192.500 143.500 192.825 129 C 193.003 121.025, 192.837 88.737, 192.455 57.250 L 191.761 0 128.017 0 L 64.273 0 63.728 9.250 M 0.459 101 C 0.459 124.925, 0.589 134.713, 0.749 122.750 C 0.908 110.788, 0.908 91.213, 0.749 79.250 C 0.589 67.288, 0.459 77.075, 0.459 101 M 137.618 84.631 C 136.631 90.042, 138.449 102.459, 140.081 101.450 C 141.338 100.673, 141.159 94.792, 139.639 87 L 138.372 80.500 137.618 84.631" stroke="none" fill="black" fill-rule="evenodd"/>
</svg>