<svg xmlns="http://www.w3.org/2000/svg" width="192" height="144" viewBox="0 0 192 144" version="1.1">
	<path d="M -0 25.066 C -0 40.238, 0.404 50.886, 1.023 52.043 C 3.003 55.743, 5.472 56.169, 9.417 53.492 L 13.049 51.027 20.178 57.014 C 24.100 60.306, 28.034 63, 28.920 63 C 29.824 63, 32.024 60.471, 33.923 57.250 C 35.787 54.087, 37.404 51.375, 37.517 51.222 C 37.630 51.070, 41.788 52.307, 46.758 53.972 C 56.961 57.391, 59.228 57.636, 60.991 55.511 C 62.636 53.529, 61.654 48.643, 57.952 40.393 C 56.328 36.774, 55 33.673, 55 33.501 C 55 33.330, 57.925 31.478, 61.500 29.387 C 70.166 24.317, 70.090 23.058, 60.590 14.351 L 53.180 7.560 56.174 3.780 L 59.168 0 29.584 0 L 0 0 -0 25.066 M 114.537 2.164 C 111.808 3.241, 105.974 4.806, 101.574 5.640 C 97.174 6.475, 92.769 7.588, 91.787 8.114 C 89.226 9.485, 89.538 14.096, 92.831 23.556 C 97.607 37.275, 106.015 47.656, 116.651 52.968 C 123.339 56.308, 124.953 55.593, 129 47.500 L 132.500 40.500 132.750 44.500 C 133.454 55.738, 133.928 57.072, 137.793 58.687 C 143.810 61.201, 159.962 60.137, 167.305 56.743 C 177.784 51.900, 192 35.805, 192 28.783 C 192 25.644, 190.271 24.179, 181 19.459 C 171.949 14.851, 162.729 8.477, 158.054 3.597 L 154.608 -0 137.054 0.102 C 122.138 0.189, 118.754 0.499, 114.537 2.164 M 145.767 72.750 C 144.919 73.713, 142.821 77.305, 141.106 80.733 L 137.988 86.966 133.148 85.058 C 130.486 84.009, 124.622 82.586, 120.118 81.897 C 112.874 80.788, 111.745 80.827, 110.337 82.235 C 108.059 84.512, 109.186 89.170, 114.658 100.101 C 117.272 105.323, 118.818 109.509, 118.267 109.869 C 117.736 110.216, 114.535 112.277, 111.155 114.450 C 101.336 120.759, 101.598 122.183, 114.452 132.334 C 123.305 139.326, 123.611 139.700, 122.212 141.807 L 120.756 144 132.878 144 C 141.834 144, 145.037 143.674, 145.140 142.750 C 145.217 142.063, 145.196 139.700, 145.095 137.500 L 144.910 133.500 146.933 136 C 148.045 137.375, 148.966 138.912, 148.978 139.417 C 148.990 139.921, 149.229 140.104, 149.510 139.824 C 149.790 139.543, 149.063 137.013, 147.895 134.201 C 146.092 129.864, 145.978 128.879, 147.144 127.713 C 147.900 126.958, 149.077 126.526, 149.760 126.753 C 150.545 127.015, 150.778 126.585, 150.394 125.584 C 149.622 123.572, 150.434 123.583, 153.552 125.626 C 155.887 127.156, 155.993 127.146, 155.347 125.462 C 154.875 124.233, 155.027 123.899, 155.830 124.395 C 156.474 124.793, 157 124.641, 157 124.059 C 157 123.477, 157.469 123, 158.043 123 C 159.683 123, 169.018 132.101, 171.671 136.286 C 175.337 142.070, 179.344 144.092, 186.500 143.770 L 192.500 143.500 192.688 128.500 C 192.791 120.250, 192.625 108.888, 192.318 103.250 C 191.795 93.633, 191.630 93, 189.631 92.998 C 188.019 92.996, 186.787 91.534, 184.576 86.999 C 182.144 82.011, 178.603 78, 176.630 78 C 176.387 78, 174.343 79.542, 172.087 81.427 L 167.986 84.854 158.761 77.927 C 153.688 74.117, 149.036 71, 148.424 71 C 147.811 71, 146.616 71.787, 145.767 72.750 M 13.227 73.250 C 11.274 75.649, 8 88.250, 8.004 93.355 C 8.008 98.599, 9.940 103.032, 14.279 107.750 C 16.843 110.537, 16.824 110.536, 9.500 107.519 C 6.200 106.160, 2.938 105.037, 2.250 105.024 C 1.342 105.006, 1 107.434, 1 113.900 L 1 122.801 6 124 C 9.163 124.759, 11 125.735, 11 126.656 C 11 128.340, 5.384 133.743, 2.772 134.573 C 1.422 135.001, 1 136.206, 1 139.634 L 1 144.134 5.250 140.691 C 10.648 136.319, 15.779 133.701, 17.590 134.396 C 18.516 134.752, 19 136.492, 19 139.469 L 19 144 29.500 144 C 35.275 144, 40 143.832, 40 143.626 C 40 143.420, 39.325 141.338, 38.500 139 C 37.675 136.662, 37 134.559, 37 134.327 C 37 134.095, 39.271 136.176, 42.048 138.952 L 47.095 144 65.222 144 L 83.349 144 80.980 141.250 C 76.693 136.273, 65.568 125.842, 61.914 123.374 C 59.942 122.042, 56.376 120.618, 53.988 120.211 L 49.647 119.470 56.459 115.486 C 60.805 112.945, 64.740 109.622, 67.326 106.310 C 71.463 101.014, 84.176 77.509, 83.350 76.684 C 82.833 76.167, 58.552 83.806, 52.550 86.375 C 47.234 88.649, 38.336 95.623, 36.256 99.143 C 34.055 102.870, 33.179 102.755, 33.279 98.750 C 33.323 96.963, 32.568 93.846, 31.601 91.824 C 29.829 88.121, 16.300 72, 14.964 72 C 14.568 72, 13.787 72.563, 13.227 73.250 M 190.340 137.555 C 190.012 138.411, 190.221 140.098, 190.804 141.305 C 191.758 143.280, 191.871 143.124, 191.932 139.750 C 192.003 135.821, 191.351 134.922, 190.340 137.555 M 146 143 C 146 143.550, 146.477 144, 147.059 144 C 147.641 144, 147.840 143.550, 147.500 143 C 147.160 142.450, 146.684 142, 146.441 142 C 146.198 142, 146 142.450, 146 143" stroke="none" fill="black" fill-rule="evenodd"/>
</svg>