<svg xmlns="http://www.w3.org/2000/svg" width="192" height="144" viewBox="0 0 192 144" version="1.1">
	<path d="M 14.535 11.476 C 20.145 16.160, 51.559 32.082, 71.500 40.348 C 77.550 42.856, 86.100 46.499, 90.500 48.442 C 99.658 52.487, 104.580 53.299, 99.250 49.885 C 97.463 48.740, 96 47.595, 96 47.340 C 96 46.859, 101.556 47.599, 105.648 48.626 C 106.942 48.951, 108 48.796, 108 48.281 C 108 47.336, 95.611 41.237, 80 34.498 C 75.325 32.480, 69.025 29.682, 66 28.282 C 54.924 23.153, 28.802 13, 26.681 12.999 C 25.482 12.999, 22.133 12.099, 19.239 10.999 C 12.256 8.345, 10.944 8.478, 14.535 11.476 M 187.237 58.250 C 185.034 61.138, 181.347 67.086, 179.045 71.468 C 174.412 80.288, 174.318 82.388, 178.172 91 C 179.280 93.475, 180.853 97.693, 181.668 100.374 C 182.633 103.545, 184.697 106.816, 187.576 109.736 L 192 114.224 192 83.612 C 192 66.775, 191.830 53, 191.622 53 C 191.413 53, 189.441 55.362, 187.237 58.250 M 81.250 57.097 C 79.463 58.252, 78 59.617, 78 60.130 C 78 62.229, 81.149 68.361, 84.955 73.676 C 87.180 76.783, 89 80.183, 89 81.231 C 89 83.053, 88.870 83.043, 86 81 C 84.350 79.825, 83 79.344, 83 79.932 C 83 80.519, 82.455 80.887, 81.788 80.750 C 79.515 80.281, 74.851 92.092, 73.385 102.029 C 72.745 106.371, 76.135 111.459, 79.144 110.673 C 80.458 110.329, 82.034 111.423, 84.431 114.342 C 86.310 116.629, 89.793 120.540, 92.173 123.033 C 95.070 126.067, 97.599 130.281, 99.824 135.783 L 103.148 144 117.010 144 L 130.871 144 127.064 135.750 C 124.971 131.213, 121.102 121.235, 118.468 113.578 C 113.925 100.375, 113.739 99.424, 114.874 95.183 C 115.531 92.723, 116.958 89.464, 118.043 87.940 C 120.913 83.909, 121.674 79.196, 119.585 78.394 C 117.533 77.607, 114.852 79.942, 111.235 85.666 C 109.731 88.048, 108.164 89.997, 107.753 89.998 C 107.343 89.999, 105.318 87.248, 103.253 83.884 C 101.189 80.520, 98.921 77.161, 98.214 76.420 C 97.507 75.678, 95.593 72.243, 93.961 68.786 C 92.328 65.328, 89.532 60.812, 87.746 58.749 L 84.500 54.998 81.250 57.097" stroke="none" fill="black" fill-rule="evenodd"/>
</svg>