<svg xmlns="http://www.w3.org/2000/svg" width="192" height="144" viewBox="0 0 192 144" version="1.1">
	<path d="M 0.109 37.500 C -0.105 66.543, 0.109 75, 1.056 75 C 1.728 75, 4.564 73.594, 7.358 71.875 L 12.436 68.750 14.968 72.108 C 22.980 82.733, 28.348 86.616, 31.458 84.035 C 32.884 82.851, 34.517 76.463, 35.528 68.106 C 35.820 65.690, 36.273 63.367, 36.534 62.945 C 36.795 62.523, 40.192 62.192, 44.083 62.210 C 47.973 62.228, 51.648 61.752, 52.248 61.152 C 53.036 60.364, 52.703 57.761, 51.051 51.781 C 47.543 39.079, 47.545 39.099, 49.636 38.419 C 58.751 35.455, 58.965 34.311, 51.860 26.537 C 46.304 20.458, 46.386 21.214, 50.501 14.011 C 51.283 12.642, 51.562 11.162, 51.121 10.721 C 50.681 10.281, 46.986 9.364, 42.910 8.685 L 35.500 7.450 35.190 3.725 C 34.891 0.141, 34.737 0, 31.121 0 C 25.419 0, 16.834 2.867, 13.714 5.813 C 10.374 8.966, 8.036 8.103, 6.543 3.165 C 5.788 0.668, 5.037 0, 2.986 0 L 0.386 0 0.109 37.500 M 143.015 0.250 C 143.023 0.388, 143.679 2.300, 144.471 4.500 C 148.639 16.069, 143.035 27.617, 124.771 45.096 L 115.789 53.691 117.318 56.648 C 118.159 58.273, 120.793 61.396, 123.173 63.586 C 134.002 73.554, 143.829 77.942, 157.119 78.743 C 164.964 79.216, 165.929 79.071, 167.869 77.131 C 170.150 74.850, 170.327 73.209, 169.094 65.718 C 168.126 59.837, 169.345 59.946, 172.685 66.040 C 177.199 74.274, 180.186 75.461, 187.750 72.027 L 192 70.098 192 44.049 L 192 18 187.458 18 C 180.361 18, 168.191 15.125, 161.950 11.975 C 156.220 9.082, 151 4.052, 151 1.423 C 151 0.429, 149.793 0, 147 0 C 144.800 0, 143.007 0.112, 143.015 0.250 M 31.598 94.057 C 22.807 102.281, 20.532 107.129, 21.416 115.759 L 22.092 122.351 18.737 117.484 C 15.256 112.432, 8.369 107.021, 3.066 105.173 L -0 104.104 -0 113.112 L 0 122.120 5.172 127.588 C 10.946 133.694, 10.801 134.815, 4.121 135.711 C 0.290 136.224, 0 136.483, 0 139.389 C -0 142.489, 0.038 142.511, 4.592 142.149 C 7.124 141.948, 9.681 142.281, 10.292 142.892 C 11.053 143.653, 20.749 144, 41.272 144 L 71.144 144 75.822 141.298 C 78.395 139.812, 82.750 136.975, 85.500 134.995 C 88.250 133.015, 91.754 130.771, 93.287 130.009 C 98.110 127.610, 96.214 125.898, 86 123.431 C 65.591 118.501, 53.290 118.257, 44.800 122.614 C 40.918 124.606, 40.773 124.417, 42.998 120.265 C 45.497 115.602, 45.520 110.786, 43.097 99.214 C 41.110 89.720, 40.478 88, 38.978 88 C 38.480 88, 35.159 90.726, 31.598 94.057 M 155.158 92.310 C 154.519 93.080, 153.387 95.463, 152.642 97.605 L 151.289 101.500 146.394 101.013 C 143.702 100.745, 138.125 100.520, 134 100.513 L 126.500 100.500 126.306 108.500 C 126.199 112.900, 126.087 117.063, 126.056 117.750 C 126.025 118.438, 125.019 119, 123.821 119 C 119.981 119, 104.187 124.533, 101.750 126.731 C 98.177 129.954, 100.002 133.062, 109.413 139.779 L 115.326 144 153.663 144 L 192 144 192 128.500 C 192 118.833, 191.624 113, 191 113 C 190.450 113, 190 111.798, 190 110.330 C 190 106.494, 184.024 94, 182.190 94 C 181.357 94, 178.763 95.121, 176.425 96.491 L 172.174 98.982 166.987 95.491 C 164.133 93.571, 161.206 92, 160.481 92 C 159.757 92, 158.524 91.755, 157.742 91.454 C 156.960 91.154, 155.797 91.539, 155.158 92.310 M 81 143 C 81 143.550, 81.675 144, 82.500 144 C 83.325 144, 84 143.550, 84 143 C 84 142.450, 83.325 142, 82.500 142 C 81.675 142, 81 142.450, 81 143" stroke="none" fill="black" fill-rule="evenodd"/>
</svg>