<svg xmlns="http://www.w3.org/2000/svg" width="192" height="144" viewBox="0 0 192 144" version="1.1">
	<path d="M 0 72 L 0 144 39.981 144 L 79.962 144 80.430 141.750 C 81.511 136.549, 82.320 124.956, 82.121 117.500 C 82.003 113.100, 81.914 105.675, 81.922 101 C 81.940 90.586, 80.876 88.283, 77.886 92.265 C 74.512 96.761, 72.908 97.163, 65 95.500 C 61.078 94.675, 56.731 94, 55.339 94 C 53.947 94, 51.603 93.142, 50.130 92.093 C 48.216 90.730, 44.820 89.980, 38.226 89.464 C 33.152 89.067, 29.007 88.463, 29.015 88.121 C 29.056 86.480, 30.907 84.825, 31.968 85.480 C 32.665 85.911, 33.772 85.343, 34.635 84.110 C 35.975 82.197, 36.999 82.016, 45.805 82.137 C 51.962 82.222, 57.819 82.951, 61.855 84.135 C 65.351 85.161, 68.815 86, 69.553 86 C 70.982 86, 76 76.885, 76 74.289 C 76 73.438, 77.565 71.010, 79.477 68.894 C 81.592 66.553, 82.724 64.443, 82.365 63.510 C 81.992 62.537, 83.100 60.762, 85.388 58.666 C 89.271 55.110, 90.084 52.904, 87.239 53.648 C 84.969 54.241, 79.500 48.608, 79.500 45.677 C 79.500 44.174, 78.796 43.400, 77.225 43.177 C 75.974 43, 74.215 41.731, 73.315 40.358 C 71.797 38.041, 71.802 37.469, 73.395 32.417 C 74.468 29.010, 76.025 26.374, 77.555 25.372 C 79.213 24.286, 80 22.841, 80 20.885 C 80 18.281, 80.325 18, 83.342 18 C 86.378 18, 86.794 17.632, 87.891 13.971 C 88.566 11.718, 89.545 10.219, 90.112 10.569 C 90.670 10.914, 91.917 10.480, 92.883 9.606 C 94.506 8.138, 94.838 8.226, 97.206 10.758 C 100.193 13.950, 103 19.182, 103 21.556 C 103 22.466, 104.113 24.534, 105.474 26.151 C 108.707 29.993, 111.526 39.313, 112.917 50.760 C 113.533 55.821, 115.308 63.458, 116.863 67.731 C 120.991 79.077, 122.563 87.468, 121.144 90.583 C 120.515 91.964, 120 94.810, 120 96.908 C 120 99.006, 118.875 104.267, 117.500 108.599 C 116.125 112.931, 115 117.404, 115 118.538 C 115 119.672, 114.571 121.029, 114.048 121.552 C 113.524 122.076, 112.782 127.346, 112.400 133.264 L 111.704 144.023 152.102 143.761 L 192.500 143.500 192.757 71.750 L 193.013 0 96.507 0 L 0 0 0 72 M 0.474 72.500 C 0.474 112.100, 0.598 128.154, 0.750 108.176 C 0.901 88.198, 0.901 55.798, 0.750 36.176 C 0.598 16.554, 0.474 32.900, 0.474 72.500" stroke="none" fill="black" fill-rule="evenodd"/>
</svg>