<svg xmlns="http://www.w3.org/2000/svg" width="192" height="144" viewBox="0 0 192 144" version="1.1">
	<path d="M -0 7.393 C -0 15.499, 0.374 16, 6.421 16 C 8.938 16, 10.520 16.909, 13.380 20 C 15.415 22.200, 17.400 24.003, 17.790 24.006 C 18.851 24.016, 22 29.906, 22 31.881 C 22 32.826, 22.401 34.027, 22.891 34.550 C 23.381 35.072, 24.041 38.200, 24.356 41.500 C 24.671 44.800, 25.222 48.969, 25.580 50.765 C 26.132 53.532, 25.819 54.355, 23.526 56.158 C 21.072 58.089, 20.879 58.712, 21.448 62.893 C 21.792 65.427, 22.410 72.225, 22.820 78 C 23.231 83.775, 24.050 89.400, 24.641 90.500 C 28.901 98.435, 28.936 98.613, 29.061 113.100 C 29.130 121.020, 28.885 131.213, 28.517 135.750 L 27.848 144 109.924 144 L 192 144 192 82.656 C 192 48.916, 192.293 16.516, 192.652 10.656 L 193.304 -0 96.652 -0 L 0 0 -0 7.393 M 0.336 8 C 0.336 12.125, 0.513 13.813, 0.728 11.750 C 0.944 9.688, 0.944 6.313, 0.728 4.250 C 0.513 2.188, 0.336 3.875, 0.336 8" stroke="none" fill="black" fill-rule="evenodd"/>
</svg>