<svg xmlns="http://www.w3.org/2000/svg" width="192" height="144" viewBox="0 0 192 144" version="1.1">
	<path d="M 0 35.864 L 0 71.728 4.371 72.327 C 20.690 74.564, 36.989 75.158, 51.368 74.039 C 77.034 72.042, 104.622 68.403, 106.750 66.735 C 108.236 65.570, 108.415 61.374, 107.015 60.509 C 106.473 60.174, 101.073 59.874, 95.015 59.841 C 82.376 59.772, 81.668 59.152, 88.021 53.714 L 92.042 50.272 89.771 48.724 L 87.500 47.176 93.155 41.338 C 98.841 35.467, 109 20.822, 109 18.494 C 109 17.807, 108.325 16.685, 107.500 16 C 105.606 14.428, 105.572 10.593, 107.427 7.715 C 108.250 6.436, 108.622 4.327, 108.305 2.724 L 107.757 -0.052 93.128 0.224 L 78.500 0.500 77.604 7 C 77.019 11.251, 77.103 16.691, 77.849 22.723 C 78.783 30.282, 78.730 32.940, 77.556 37.446 C 76.053 43.219, 76.753 48.611, 79.203 50.125 C 79.884 50.547, 80.186 51.147, 79.874 51.460 C 79.561 51.772, 78.122 51.098, 76.677 49.960 C 73.488 47.452, 71.733 41.524, 72.591 36.159 C 73.013 33.518, 72.630 30.407, 71.446 26.846 C 70.214 23.145, 69.641 18.192, 69.583 10.750 L 69.500 0 34.750 0 L 0 0 0 35.864 M 127.250 2.506 C 125.463 3.958, 124 5.986, 124 7.013 C 124 8.041, 123.550 9.160, 123 9.500 C 122.450 9.840, 122 11.865, 122 14 C 122 16.135, 122.450 18.160, 123 18.500 C 123.550 18.840, 124 19.798, 124 20.629 C 124 21.460, 125.352 24.105, 127.005 26.508 C 128.658 28.910, 129.616 31.119, 129.134 31.417 C 128.652 31.715, 129.099 34.996, 130.129 38.708 C 132.499 47.257, 132.479 49.062, 130.005 49.709 C 128.209 50.179, 128.073 50.793, 128.644 55.865 C 128.992 58.964, 129.424 61.671, 129.603 61.881 C 130.075 62.433, 140.323 59.862, 167.750 52.311 L 192 45.634 192 22.772 L 192 -0.091 174.750 0.338 C 165.262 0.573, 157.050 0.824, 156.500 0.895 C 155.950 0.965, 149.875 0.763, 143 0.445 C 130.591 -0.128, 130.476 -0.113, 127.250 2.506 M 117 64 C 117 64.550, 117.675 65, 118.500 65 C 119.325 65, 120 64.550, 120 64 C 120 63.450, 119.325 63, 118.500 63 C 117.675 63, 117 63.450, 117 64 M 189.676 77.366 C 186.988 81.478, 174.947 94.956, 168.296 101.298 C 165.108 104.338, 156.327 111.785, 148.782 117.846 C 136.951 127.352, 134.408 128.966, 130.290 129.584 C 124.507 130.451, 115.256 128.713, 108.998 125.583 C 106.284 124.226, 101.716 123.096, 97.498 122.739 C 87.893 121.926, 76.606 118.137, 66.224 112.241 C 57.730 107.417, 57.355 107.307, 52 108.070 C 43.127 109.335, 29.234 109.099, 18.653 107.504 C 11.025 106.354, 7.815 106.270, 4.403 107.129 L 0 108.237 -0 126.124 L -0 144.010 96.250 143.755 L 192.500 143.500 192.750 132 C 192.887 125.675, 192.662 110.167, 192.250 97.538 C 191.509 74.842, 191.479 74.609, 189.676 77.366 M 0.415 126 C 0.415 136.175, 0.564 140.338, 0.745 135.250 C 0.927 130.162, 0.927 121.837, 0.745 116.750 C 0.564 111.662, 0.415 115.825, 0.415 126" stroke="none" fill="black" fill-rule="evenodd"/>
</svg>