<svg xmlns="http://www.w3.org/2000/svg" width="192" height="144" viewBox="0 0 192 144" version="1.1">
	<path d="M 134.200 4.956 C 134.482 9.610, 134.644 9.876, 136.861 9.320 C 138.912 8.805, 139.133 9.006, 138.545 10.858 C 138.016 12.525, 138.209 12.857, 139.435 12.387 C 140.447 11.998, 141 12.343, 141 13.362 C 141 14.351, 141.558 14.723, 142.500 14.362 C 143.576 13.949, 143.991 14.452, 143.968 16.143 C 143.929 19.074, 142.875 20.475, 132.963 30.771 C 128.583 35.320, 125 39.509, 125 40.080 C 125 40.651, 125.450 40.840, 126 40.500 C 127.458 39.599, 127.239 40.475, 125.076 44.193 C 123.518 46.873, 123.201 49.112, 123.404 56 C 123.543 60.675, 124.406 67.026, 125.323 70.112 C 127.805 78.465, 126.692 80.526, 112.326 94.180 C 103.067 102.981, 99.369 105.866, 96.881 106.231 C 92.623 106.856, 90 106.127, 90 104.318 C 90 103.522, 87.720 100.649, 84.933 97.935 C 80.789 93.898, 79.996 92.589, 80.580 90.749 C 80.972 89.512, 81.187 88.315, 81.057 88.090 C 80.927 87.864, 81.536 87.279, 82.410 86.790 C 84.578 85.577, 84.411 83.265, 81.799 78.334 C 80.111 75.147, 78.875 74.052, 76.546 73.679 C 74.857 73.409, 73.054 73.712, 72.500 74.360 C 71.950 75.002, 70.285 76.305, 68.800 77.254 C 65.706 79.233, 64.014 84.176, 64.006 91.261 C 64.003 93.879, 63.064 100.179, 61.920 105.261 C 59.630 115.434, 59.863 123.203, 62.683 130.750 C 64.335 135.170, 67 136.522, 67 132.941 C 67 131.809, 67.437 131.152, 67.971 131.482 C 68.505 131.812, 69.172 131.051, 69.453 129.791 C 69.972 127.468, 72.975 106.973, 73.030 105.372 C 73.047 104.892, 73.450 105.175, 73.925 106 C 74.406 106.835, 74.418 111.491, 73.951 116.500 C 73.196 124.615, 73.312 125.837, 75.129 128.929 C 77.313 132.646, 77.681 135.686, 76.560 140.750 L 75.841 144 92.921 144 C 102.314 144, 110.004 143.662, 110.008 143.250 C 110.013 142.838, 108.589 139.034, 106.846 134.798 C 103.043 125.561, 102.767 126.112, 115.359 117.828 C 124.695 111.687, 126 111.143, 126 113.391 C 126 114.826, 121.970 130.870, 119.505 139.250 L 118.108 144 155.054 144 L 192 144 192 141.383 C 192 137.906, 183.167 121.286, 173.654 106.861 C 168.752 99.429, 166.200 94.642, 166.593 93.618 C 166.932 92.735, 166.262 90.196, 165.104 87.976 C 162.454 82.890, 162.247 70.649, 164.631 59.873 C 166.461 51.599, 167.903 49.400, 172.104 48.477 C 174.990 47.843, 175 47.814, 175 40.221 C 175 34.293, 175.267 32.867, 176.200 33.800 C 177.647 35.247, 180.373 35.413, 179.500 34 C 179.160 33.450, 179.190 32.502, 179.566 31.893 C 180.043 31.122, 180.510 31.197, 181.110 32.143 C 181.790 33.217, 181.973 33.154, 181.985 31.844 C 181.995 30.764, 182.609 30.345, 183.750 30.639 C 184.974 30.955, 185.912 30.150, 186.870 27.963 C 188.111 25.131, 187.983 24.060, 185.516 16.635 C 182.895 8.748, 182.852 8.289, 184.396 4.596 C 185.278 2.484, 186 0.586, 186 0.378 C 186 0.170, 174.277 0, 159.950 0 L 133.899 0 134.200 4.956 M 182 20.267 C 182 21.028, 183.182 22.742, 184.627 24.076 L 187.254 26.500 185.634 23.313 C 183.801 19.707, 182 18.198, 182 20.267" stroke="none" fill="black" fill-rule="evenodd"/>
</svg>