<svg xmlns="http://www.w3.org/2000/svg" width="192" height="144" viewBox="0 0 192 144" version="1.1">
	<path d="M 104.925 51.290 C 101.309 52.520, 96.887 54.759, 95.098 56.264 C 93.310 57.769, 91.290 59, 90.610 59 C 89.930 59, 88.052 60.379, 86.437 62.065 C 83.753 64.866, 83.472 65.836, 83.178 73.315 C 82.624 87.379, 88.294 101.028, 96.302 104.904 C 102.027 107.676, 107.699 107.550, 114.596 104.500 C 117.705 103.125, 120.397 102, 120.578 102 C 120.758 102, 121.654 103.575, 122.567 105.500 C 123.585 107.645, 124.946 109, 126.083 109 C 127.320 109, 127.746 108.501, 127.362 107.500 C 127.045 106.675, 126.456 106, 126.054 106 C 125.651 106, 124.830 104.923, 124.230 103.606 C 123.224 101.399, 123.511 100.981, 127.913 98.245 C 138.568 91.621, 142.631 80.392, 138.035 70.268 C 134.303 62.047, 121.366 50.685, 114.429 49.537 C 112.780 49.264, 108.627 50.030, 104.925 51.290" stroke="none" fill="black" fill-rule="evenodd"/>
</svg>