<svg xmlns="http://www.w3.org/2000/svg" width="192" height="144" viewBox="0 0 192 144" version="1.1">
	<path d="M -0 31.756 L -0 63.511 8.250 62.894 C 13.950 62.467, 18.233 61.484, 22.108 59.714 C 31.891 55.243, 51.023 53.845, 64.750 56.598 C 67.619 57.174, 68 56.996, 68 55.077 C 68 53.882, 69.125 51.862, 70.500 50.588 C 73.805 47.525, 73.658 46, 70.059 46 C 65.772 46, 65.642 44.739, 69.539 40.962 C 72.744 37.856, 73 37.156, 73 31.491 C 73 26.110, 73.331 25.064, 75.750 22.797 C 78.978 19.772, 84.944 16.652, 90.335 15.169 C 94.859 13.925, 98.231 14.917, 102.136 18.642 C 104.539 20.934, 105.116 21.061, 108.636 20.084 C 113.663 18.688, 117 18.712, 117 20.143 C 117 20.772, 115.211 22.882, 113.025 24.832 L 109.051 28.378 111.522 31.617 C 114.278 35.231, 114.047 37.046, 110.315 41.095 C 108.218 43.370, 108.108 43.845, 109.429 44.941 C 110.756 46.043, 110.641 46.774, 108.468 51.063 C 107.111 53.742, 106 56.814, 106 57.890 C 106 58.966, 104.879 61.179, 103.508 62.808 C 101.593 65.084, 101.304 65.997, 102.258 66.757 C 104.406 68.466, 113.181 72.006, 114.006 71.496 C 115.199 70.759, 127.999 77.018, 128.009 78.344 C 128.020 79.883, 141.260 88, 143.758 88 C 146.022 88, 153 94.207, 153 96.220 C 153 96.966, 155.291 99.808, 158.092 102.538 C 165.136 109.402, 170.614 116.704, 177.947 129 C 185.476 141.625, 186.626 143, 189.655 143 L 192 143 192.001 118.750 C 192.002 105.412, 192.300 73.237, 192.664 47.250 L 193.326 0 96.663 0 L 0 0 -0 31.756 M 0.446 32.500 C 0.447 50.100, 0.583 57.159, 0.749 48.187 C 0.914 39.215, 0.914 24.815, 0.748 16.187 C 0.581 7.559, 0.446 14.900, 0.446 32.500 M 32.467 64.020 C 30.249 64.461, 25.004 66.628, 20.813 68.835 C 16.622 71.043, 11.120 73.159, 8.586 73.539 C 3.647 74.280, 3.704 74.195, 2.578 82.582 C 1.793 88.430, 1.777 140.254, 2.559 142.293 C 3.159 143.856, 6.074 144, 37.029 144 L 70.845 144 72.073 140.250 C 72.749 138.188, 75.863 132.427, 78.993 127.449 C 82.122 122.471, 84.957 117.296, 85.292 115.949 C 85.627 114.602, 85.475 109.225, 84.953 104 C 84.431 98.775, 83.711 91.013, 83.354 86.750 C 82.996 82.487, 82.320 79, 81.852 79 C 81.383 79, 81 76.750, 81 74 C 81 70.670, 80.583 68.998, 79.750 68.994 C 79.063 68.990, 77.264 68.343, 75.754 67.555 C 68.647 63.848, 43.621 61.804, 32.467 64.020 M 124.461 89.063 C 124.100 89.648, 124.597 91.002, 125.567 92.073 C 127.258 93.943, 127.232 94.126, 124.914 96.646 L 122.500 99.271 128.890 98.718 C 134.524 98.230, 136.927 97.102, 136.985 94.918 C 137.006 94.108, 127.457 88, 126.169 88 C 125.591 88, 124.822 88.478, 124.461 89.063 M 146.250 105.232 C 145.012 106.550, 144 108.338, 144 109.204 C 144 110.070, 143.213 111.749, 142.250 112.935 C 140.549 115.032, 140.375 115.047, 136 113.475 C 133.525 112.586, 127.323 111.598, 122.217 111.280 C 117.111 110.962, 112.684 110.297, 112.378 109.803 C 112.069 109.302, 111.196 109.422, 110.411 110.074 C 108.614 111.565, 108.638 117.279, 110.485 127.500 C 111.280 131.900, 111.946 137.412, 111.965 139.750 L 112 144 145 144 C 163.150 144, 178 143.815, 178 143.590 C 178 142.714, 169.505 128.202, 165.709 122.592 C 163.511 119.343, 158.739 113.569, 155.106 109.760 L 148.500 102.835 146.250 105.232" stroke="none" fill="black" fill-rule="evenodd"/>
</svg>