<svg xmlns="http://www.w3.org/2000/svg" width="192" height="144" viewBox="0 0 192 144" version="1.1">
	<path d="M 129.500 1.867 C 120.770 5.847, 116.469 11.315, 114.483 20.957 C 113.456 25.946, 112.990 26.608, 109.051 28.691 C 104.328 31.189, 102.081 33.589, 102.032 36.187 C 102.006 37.541, 101.334 37.766, 98.633 37.328 C 95.886 36.882, 94.966 37.211, 93.633 39.113 C 92.735 40.396, 92 42.952, 92 44.794 C 92 47.859, 92.233 48.116, 94.750 47.822 C 96.935 47.566, 97.505 47.911, 97.524 49.500 C 97.539 50.789, 98.129 51.403, 99.183 51.227 C 100.946 50.933, 105 55.398, 105 57.635 C 105 58.484, 106.130 59, 107.987 59 C 110.466 59, 111.227 59.606, 112.466 62.573 C 115.754 70.443, 116.998 104.620, 114.127 108.203 C 107.748 116.164, 107.408 116.409, 104.394 115.222 C 102.802 114.594, 99.915 113.807, 97.977 113.472 C 94.795 112.922, 94.084 112.143, 90.623 105.419 L 86.791 97.976 89.021 93.238 C 90.248 90.632, 91.588 85.800, 92 82.500 C 92.412 79.200, 93.876 74.250, 95.254 71.500 C 96.632 68.750, 98.750 64.534, 99.960 62.131 C 101.616 58.844, 101.877 57.482, 101.011 56.631 C 99.519 55.164, 96.477 58.622, 90.978 68.037 C 86.842 75.120, 86.413 75.338, 82.765 72.206 C 81.223 70.883, 80.394 70.917, 75.326 72.511 C 67.826 74.870, 62.205 80.902, 66.250 82.250 C 67.121 82.540, 67.523 85.439, 67.575 91.804 C 67.650 100.913, 67.669 100.979, 73.825 113.543 C 77.221 120.475, 80 126.734, 80 127.452 C 80 128.170, 78.918 131.175, 77.596 134.129 C 76.274 137.083, 74.894 140.512, 74.529 141.750 L 73.865 144 132.933 144 L 192 144 192 78.221 L 192 12.442 188.250 8.578 C 186.188 6.453, 182.821 3.653, 180.770 2.357 C 177.143 0.065, 176.436 0.001, 155.270 0.022 C 136.362 0.041, 132.974 0.284, 129.500 1.867 M 129.375 90.125 C 129.719 91.844, 130 93.869, 130 94.625 C 130 95.381, 130.401 96, 130.891 96 C 132.179 96, 132.783 89.183, 131.599 87.999 C 129.702 86.102, 128.752 87.010, 129.375 90.125" stroke="none" fill="black" fill-rule="evenodd"/>
</svg>