<svg xmlns="http://www.w3.org/2000/svg" width="192" height="144" viewBox="0 0 192 144" version="1.1">
	<path d="M -0 72.005 L -0 144.010 96.250 143.755 L 192.500 143.500 192.757 71.750 L 193.013 0 96.507 0 L 0 0 -0 72.005 M 0.474 72.500 C 0.474 112.100, 0.598 128.154, 0.750 108.176 C 0.901 88.198, 0.901 55.798, 0.750 36.176 C 0.598 16.554, 0.474 32.900, 0.474 72.500 M 55.474 47.395 C 54.062 48.428, 53.145 48.535, 52.229 47.775 C 50.300 46.174, 49.602 47.595, 50.784 50.718 C 51.363 52.248, 52.089 54.625, 52.395 56 C 54.569 65.739, 80.668 83.544, 104.467 91.524 C 119.966 96.721, 136.338 98.707, 138.838 95.695 C 140.011 94.282, 142.394 80.682, 141.788 78.864 C 141.380 77.641, 137.414 75.217, 125.857 69.128 C 117.714 64.837, 106.583 60.352, 90.726 54.973 C 82.716 52.255, 80.847 51.238, 80.370 49.336 C 79.909 47.503, 79.304 47.137, 77.487 47.593 C 76.221 47.910, 74.289 47.690, 73.191 47.102 C 71.447 46.169, 71.265 46.298, 71.744 48.131 C 72.213 49.923, 72.018 50.085, 70.396 49.251 C 69.353 48.714, 66.627 47.988, 64.337 47.639 C 62.048 47.290, 59.560 46.768, 58.809 46.480 C 58.057 46.192, 56.557 46.604, 55.474 47.395" stroke="none" fill="black" fill-rule="evenodd"/>
</svg>