<svg xmlns="http://www.w3.org/2000/svg" width="192" height="144" viewBox="0 0 192 144" version="1.1">
	<path d="M 94 1.540 C 94 3.639, 97.494 10.336, 99.427 11.939 C 100.292 12.657, 101 13.547, 101 13.917 C 101 14.287, 98.698 16.344, 95.885 18.490 C 93.072 20.635, 89.608 24.147, 88.187 26.293 C 85.114 30.937, 79.672 51.063, 81.700 50.285 C 82.598 49.940, 83 50.765, 83 52.952 C 83 54.799, 83.415 55.862, 83.996 55.503 C 84.543 55.164, 85.474 55.925, 86.064 57.194 C 86.654 58.462, 88.828 60.288, 90.896 61.250 C 95.172 63.240, 96.389 63.439, 95.500 62 C 95.160 61.450, 95.350 61, 95.922 61 C 97.579 61, 98.360 65.915, 97.131 68.611 C 96.133 70.801, 96.390 71.456, 99.436 74.502 C 102.712 77.778, 102.842 78.184, 102.381 83.715 C 102.117 86.897, 101.742 90.608, 101.548 91.962 C 101.355 93.315, 101.794 94.890, 102.524 95.462 C 103.255 96.033, 104.159 99.503, 104.534 103.173 L 105.217 109.846 102.358 110.189 C 97.739 110.742, 88.004 102.552, 87.994 98.103 C 87.985 93.638, 86.086 88.384, 83.455 85.546 C 81.223 83.137, 80.321 82.858, 75.714 83.144 C 72.846 83.322, 69.938 83.111, 69.250 82.675 C 68.449 82.167, 68 82.432, 68 83.415 C 68 84.259, 66.761 85.589, 65.248 86.372 C 61.105 88.514, 59.222 91.056, 58.105 96.015 C 56.567 102.844, 58.908 109.739, 64.524 114.915 C 66.961 117.162, 69.790 119, 70.811 119 C 73.709 119, 73.959 119.873, 72.339 124.340 C 71.510 126.628, 70.515 131.988, 70.129 136.250 L 69.427 144 116.016 144 L 162.605 144 159.810 130.250 C 158.273 122.688, 156.782 115.887, 156.497 115.139 C 156.154 114.240, 156.491 113.974, 157.489 114.357 C 158.549 114.764, 159.019 114.275, 159.064 112.719 C 159.119 110.817, 159.359 110.965, 160.745 113.750 C 161.682 115.632, 163.128 117, 164.181 117 C 166.642 117, 166.470 115.854, 163.488 112.406 C 160.550 109.007, 156.993 100.105, 157.017 96.212 L 157.034 93.500 159.134 96.780 C 161.036 99.750, 161.353 99.899, 162.481 98.357 C 163.620 96.800, 163.879 96.886, 165.499 99.358 C 167.837 102.927, 168.583 102.028, 166.548 98.093 C 164.884 94.874, 165.821 93.875, 168.020 96.524 C 169.960 98.862, 170.056 97.891, 168.469 91.953 C 167.668 88.954, 166.773 82, 166.480 76.500 C 166.188 71, 165.741 62.478, 165.488 57.563 C 164.869 45.554, 163.275 37.760, 159.889 30.185 C 158.336 26.711, 156.771 22.211, 156.411 20.185 C 155.552 15.349, 152.865 11.014, 148.003 6.622 C 143.423 2.484, 140.466 1.518, 135.247 2.455 C 129.173 3.546, 124.917 3.234, 123.071 1.564 C 120.526 -0.739, 94 -0.761, 94 1.540 M 115.250 82.220 C 112.981 83.315, 112.622 84.710, 112.672 92.250 C 112.688 94.532, 112.224 96, 111.487 96 C 110.247 96, 108.350 110.683, 109.448 111.781 C 109.752 112.085, 110.007 111.471, 110.015 110.417 C 110.028 108.644, 116.205 95.723, 120.574 88.327 C 122.407 85.223, 122.407 85.107, 120.569 83.077 C 118.452 80.738, 118.357 80.722, 115.250 82.220 M 168.500 141.566 L 163.500 143.974 168.595 143.987 C 172.273 143.996, 174.150 143.491, 175.345 142.171 C 178.906 138.237, 175.954 137.976, 168.500 141.566" stroke="none" fill="black" fill-rule="evenodd"/>
</svg>