<svg xmlns="http://www.w3.org/2000/svg" width="192" height="144" viewBox="0 0 192 144" version="1.1">
	<path d="M 0 23.430 L 0 46.861 2.250 47.294 C 4.478 47.723, 4.479 47.729, 2.324 47.864 L 0.147 48 0.070 96.005 L -0.007 144.010 96.246 143.755 L 192.500 143.500 192.725 71.755 L 192.949 0.011 111.052 0.024 C 47.117 0.034, 29.055 0.307, 28.702 1.269 C 28.346 2.239, 27.970 2.235, 26.925 1.250 C 26.007 0.384, 21.667 -0, 12.800 -0 L 0 0 0 23.430 M 0.430 24 C 0.430 36.925, 0.573 42.212, 0.747 35.750 C 0.921 29.287, 0.921 18.712, 0.747 12.250 C 0.573 5.787, 0.430 11.075, 0.430 24 M 52.729 9.092 C 51.755 9.659, 51.219 10.545, 51.538 11.061 C 52.493 12.607, 53.733 12.129, 54.290 10 C 54.577 8.900, 54.742 8.014, 54.656 8.030 C 54.570 8.047, 53.703 8.525, 52.729 9.092 M 104.872 10.750 C 103.629 12.336, 103.664 12.371, 105.250 11.128 C 106.916 9.821, 107.445 9, 106.622 9 C 106.415 9, 105.627 9.787, 104.872 10.750 M 64.183 13.217 C 62.783 14.617, 62.638 16, 63.893 16 C 64.809 16, 66.318 12.984, 65.707 12.374 C 65.520 12.186, 64.834 12.566, 64.183 13.217 M 134.606 20.416 C 134.941 21.287, 135.653 22, 136.190 22 C 137.505 22, 136.682 19.727, 135.187 19.229 C 134.456 18.985, 134.233 19.443, 134.606 20.416 M 38.386 22.437 C 38.083 23.227, 37.242 23.646, 36.518 23.369 C 34.461 22.579, 33.808 24.665, 35.562 26.419 C 37.564 28.421, 39 28.442, 39 26.469 C 39 25.626, 39.647 24.689, 40.437 24.386 C 41.227 24.083, 41.629 23.197, 41.330 22.417 C 40.628 20.589, 39.091 20.599, 38.386 22.437 M 95.500 24 C 95.160 24.550, 95.161 25.451, 95.502 26.003 C 96.233 27.186, 100 25.479, 100 23.965 C 100 22.690, 96.292 22.719, 95.500 24 M 126 26.810 C 126 27.294, 126.900 28.505, 128 29.500 C 129.765 31.098, 130 31.120, 130 29.690 C 130 28.799, 129.100 27.589, 128 27 C 126.900 26.411, 126 26.326, 126 26.810 M 142.269 29.693 C 143.242 29.947, 144.592 29.930, 145.269 29.656 C 145.946 29.382, 145.150 29.175, 143.500 29.195 C 141.850 29.215, 141.296 29.439, 142.269 29.693 M 34.168 37.084 C 33.238 38.586, 33.153 39.553, 33.885 40.285 C 35.111 41.511, 36.372 39.080, 35.835 36.525 C 35.563 35.234, 35.248 35.340, 34.168 37.084 M 82 39.380 C 76.671 41.768, 73.917 44.195, 75.024 45.528 C 77.780 48.849, 82.906 48.113, 87.750 43.701 C 90.467 41.226, 90.616 40, 88.200 40 C 87.210 40, 85.973 39.608, 85.450 39.130 C 84.906 38.632, 83.430 38.739, 82 39.380 M 2.964 42.836 C 3.623 44.120, 4.436 44.897, 4.771 44.562 C 5.107 44.227, 4.568 43.176, 3.574 42.226 C 1.846 40.576, 1.819 40.603, 2.964 42.836 M 48.008 44.985 C 46.831 45.720, 46.775 46.175, 47.742 47.142 C 49.198 48.598, 50.313 47.781, 49.838 45.605 C 49.597 44.499, 49.071 44.321, 48.008 44.985 M 106.104 47.925 C 105.264 48.451, 104.979 49.502, 105.387 50.566 C 105.865 51.813, 106.379 52.021, 107.127 51.273 C 108.704 49.696, 107.833 46.845, 106.104 47.925 M 154.872 48.750 C 153.603 50.369, 153.650 50.390, 155.500 49.033 C 156.600 48.226, 157.688 47.439, 157.917 47.283 C 158.146 47.127, 157.863 47, 157.289 47 C 156.715 47, 155.627 47.788, 154.872 48.750 M 0.395 61.500 C 0.396 69.200, 0.553 72.218, 0.743 68.206 C 0.934 64.195, 0.932 57.895, 0.741 54.206 C 0.549 50.518, 0.393 53.800, 0.395 61.500 M 97.527 52.956 C 97.202 53.482, 96.197 53.629, 95.294 53.283 C 94.038 52.801, 93.811 53.065, 94.326 54.408 C 94.697 55.374, 95 56.352, 95 56.582 C 95 58.022, 98.042 56.585, 99.408 54.500 C 100.794 52.384, 100.821 52, 99.582 52 C 98.777 52, 97.852 52.430, 97.527 52.956 M 82.384 55.442 C 81.614 57.449, 82.279 60.261, 83.631 60.711 C 84.894 61.131, 86.392 56.444, 85.472 54.954 C 84.601 53.545, 83.016 53.795, 82.384 55.442 M 111 57.500 C 110.076 58.614, 109.996 59.671, 110.717 61.274 C 111.671 63.395, 111.752 63.344, 112.454 60.178 C 113.317 56.288, 112.798 55.333, 111 57.500 M 190 58.941 C 190 59.459, 190.450 60.160, 191 60.500 C 191.550 60.840, 192 60.416, 192 59.559 C 192 58.702, 191.550 58, 191 58 C 190.450 58, 190 58.423, 190 58.941 M 123.987 60.516 C 123.010 61.693, 123.094 62.494, 124.405 64.495 C 127.025 68.494, 130.882 67.355, 129.497 62.990 C 128.566 60.059, 125.506 58.685, 123.987 60.516 M 175.564 60.929 C 174.527 62.075, 173.897 63.230, 174.162 63.496 C 175.029 64.363, 178.287 61.360, 177.862 60.086 C 177.582 59.245, 176.842 59.517, 175.564 60.929 M 52 72.441 C 52 73.298, 52.450 74, 53 74 C 53.550 74, 54 73.577, 54 73.059 C 54 72.541, 53.550 71.840, 53 71.500 C 52.450 71.160, 52 71.584, 52 72.441 M 159.605 76.588 C 159.272 77.454, 159.014 79.814, 159.032 81.832 C 159.062 85.274, 159.154 85.380, 160.532 83.559 C 162.152 81.416, 162.510 76.433, 161.105 75.565 C 160.612 75.260, 159.937 75.721, 159.605 76.588 M 51.733 77.124 C 52.412 77.808, 53.219 78.115, 53.526 77.807 C 53.834 77.499, 53.279 76.940, 52.293 76.564 C 50.868 76.022, 50.753 76.136, 51.733 77.124 M 66.667 76.667 C 65.116 78.217, 66.154 80, 68.607 80 C 70.573 80, 71.065 79.611, 70.607 78.418 C 70.273 77.548, 70 76.648, 70 76.418 C 70 75.744, 67.395 75.938, 66.667 76.667 M 145.244 78.250 C 145.726 79.719, 152 80.574, 152 79.170 C 152 78.018, 149.577 77, 146.835 77 C 145.681 77, 145.007 77.530, 145.244 78.250 M 0.446 112.500 C 0.447 130.100, 0.583 137.159, 0.749 128.187 C 0.914 119.215, 0.914 104.815, 0.748 96.187 C 0.581 87.559, 0.446 94.900, 0.446 112.500 M 54.500 84.594 C 52.524 86.106, 52.523 86.141, 54.441 87.562 C 56.699 89.234, 62 89.496, 62 87.934 C 62 85.755, 59.874 83.001, 58.215 83.032 C 57.272 83.049, 55.600 83.752, 54.500 84.594 M 150 86 C 150 86.550, 150.900 87, 152 87 C 153.100 87, 154 86.550, 154 86 C 154 85.450, 153.100 85, 152 85 C 150.900 85, 150 85.450, 150 86 M 188.200 86.200 C 186.783 87.617, 186.607 90, 187.918 90 C 190.197 90, 192 88.628, 192 86.893 C 192 84.757, 190.006 84.394, 188.200 86.200 M 178.723 86.611 C 177.863 87.470, 179.778 91, 181.105 91 C 181.674 91, 181.995 90.023, 181.820 88.828 C 181.492 86.601, 179.884 85.449, 178.723 86.611 M 37.250 91.630 C 34.454 95.114, 34.416 95.966, 37.085 95.268 C 39.384 94.666, 40.346 92.988, 39.835 90.471 C 39.568 89.161, 39.040 89.398, 37.250 91.630 M 63.972 92.052 C 62.332 95.116, 63.148 98.450, 65.623 98.803 C 67.258 99.036, 67.869 98.464, 68.280 96.314 C 68.836 93.406, 67.606 90, 66 90 C 65.489 90, 64.576 90.923, 63.972 92.052 M 84.667 91.667 C 84.300 92.033, 84 93.233, 84 94.333 C 84 96.787, 84.914 96.045, 85.474 93.135 C 85.909 90.877, 85.748 90.585, 84.667 91.667 M 71 95.122 C 71 97.682, 71.252 98.036, 72.397 97.086 C 73.165 96.448, 73.563 95.043, 73.280 93.963 C 72.480 90.903, 71 91.656, 71 95.122 M 138.496 94.007 C 137.736 95.236, 140.488 96.434, 141.968 95.520 C 142.554 95.158, 142.774 94.443, 142.457 93.931 C 141.694 92.696, 139.277 92.742, 138.496 94.007 M 157.188 95.739 C 157.690 98.345, 161 98.636, 161 96.073 C 161 94.642, 160.358 94, 158.927 94 C 157.496 94, 156.957 94.539, 157.188 95.739 M 119.667 103.667 C 119.300 104.033, 119 105.174, 119 106.202 C 119 107.749, 119.338 107.890, 120.963 107.020 C 122.116 106.402, 122.691 105.357, 122.356 104.485 C 121.745 102.894, 120.744 102.590, 119.667 103.667 M 3.218 106.173 C 3.458 106.903, 4.906 107.647, 6.436 107.827 C 8.397 108.057, 9.089 107.762, 8.782 106.827 C 8.542 106.097, 7.094 105.353, 5.564 105.173 C 3.603 104.943, 2.911 105.238, 3.218 106.173 M 74.825 110.508 C 74.008 111.325, 75.108 116, 76.117 116 C 76.602 116, 76.993 115.213, 76.985 114.250 C 76.966 112.153, 75.581 109.753, 74.825 110.508 M 116 112.385 C 116 114.279, 116.400 114.784, 117.549 114.343 C 119.322 113.662, 119.118 110.872, 117.250 110.250 C 116.468 109.989, 116 110.788, 116 112.385 M 121.336 111.567 C 120.553 113.607, 122.419 115.437, 124.476 114.648 C 125.754 114.157, 125.864 113.614, 125.008 112.015 C 123.717 109.603, 122.162 109.414, 121.336 111.567 M 142 111.500 C 142 112.325, 142.450 113, 143 113 C 143.550 113, 144 112.325, 144 111.500 C 144 110.675, 143.550 110, 143 110 C 142.450 110, 142 110.675, 142 111.500 M 183.719 120.032 C 184.263 122.114, 187.735 124.599, 188.721 123.612 C 189.024 123.310, 188.525 121.923, 187.612 120.531 C 185.586 117.439, 182.952 117.101, 183.719 120.032 M 27.015 119.691 C 27.024 120.136, 27.467 121.175, 28 122 C 28.835 123.293, 28.971 123.266, 28.985 121.809 C 28.993 120.879, 28.550 119.840, 28 119.500 C 27.450 119.160, 27.007 119.246, 27.015 119.691 M 108.015 120.191 C 108.007 121.121, 108.450 122.160, 109 122.500 C 110.266 123.282, 110.266 121.958, 109 120 C 108.165 118.707, 108.029 118.734, 108.015 120.191 M 17.578 128 C 17.112 129.375, 16.229 130.838, 15.615 131.250 C 13.756 132.500, 17.080 134.027, 19.196 132.895 C 21.092 131.881, 21.659 130, 20.070 130 C 19.558 130, 18.979 128.988, 18.783 127.750 C 18.431 125.529, 18.415 125.533, 17.578 128 M 116.813 129.683 C 117.534 129.972, 118.397 129.936, 118.729 129.604 C 119.061 129.272, 118.471 129.036, 117.417 129.079 C 116.252 129.127, 116.015 129.364, 116.813 129.683 M 97 131 C 97 131.550, 97.648 132, 98.441 132 C 99.234 132, 100.160 131.550, 100.500 131 C 100.840 130.450, 100.191 130, 99.059 130 C 97.927 130, 97 130.450, 97 131 M 110 137.441 C 110 141.130, 111.419 142.956, 112.367 140.486 C 112.941 138.989, 111.524 134, 110.525 134 C 110.236 134, 110 135.548, 110 137.441 M 169 136 C 169.825 136.533, 170.950 136.969, 171.500 136.969 C 172.050 136.969, 171.825 136.533, 171 136 C 170.175 135.467, 169.050 135.031, 168.500 135.031 C 167.950 135.031, 168.175 135.467, 169 136" stroke="none" fill="black" fill-rule="evenodd"/>
</svg>