<svg xmlns="http://www.w3.org/2000/svg" width="192" height="144" viewBox="0 0 192 144" version="1.1">
	<path d="M 0 72 L 0 144 32.563 144 L 65.126 144 64.813 141.750 C 64.539 139.781, 64.915 139.519, 67.822 139.655 C 71.095 139.808, 71.136 139.757, 70.620 136.155 C 70.331 134.145, 69.809 128.563, 69.458 123.750 L 68.820 115 65.521 115 C 60.661 115, 58.392 112.391, 55.954 104 C 54.756 99.875, 52.876 94.732, 51.776 92.571 C 50.312 89.693, 49.930 87.529, 50.348 84.479 C 50.864 80.716, 50.634 80.106, 47.959 78.128 C 46.332 76.925, 45 75.015, 45 73.885 C 45 71.499, 40.026 66.821, 33.244 62.827 C 30.635 61.291, 29.063 60.026, 29.750 60.017 C 30.438 60.008, 31 58.864, 31 57.475 C 31 55.702, 31.744 54.667, 33.500 54 C 35.503 53.238, 36 52.360, 36 49.584 C 36 47.678, 35.508 45.814, 34.906 45.442 C 33.739 44.721, 33.983 41.701, 36.088 30.827 L 37.380 24.155 33.487 17.848 C 30.441 12.914, 29.504 10.286, 29.177 5.771 L 28.760 0 14.380 0 L 0 0 0 72 M 36.431 3.250 C 36.794 5.038, 37.429 8.847, 37.844 11.716 C 38.259 14.584, 38.801 17.132, 39.049 17.377 C 39.297 17.623, 40.673 17.598, 42.106 17.323 C 44.664 16.831, 44.713 16.667, 44.751 8.411 L 44.789 0 40.281 0 L 35.773 0 36.431 3.250 M 62 3.571 C 62 5.536, 62.687 7.830, 63.527 8.670 C 64.896 10.039, 65.412 9.923, 68.527 7.547 C 70.825 5.795, 72 4.069, 72 2.449 C 72 0.177, 71.639 0, 67 0 L 62 0 62 3.571 M 80 1.941 C 80 5.082, 81.717 5.264, 85.714 2.548 L 89.464 0 84.732 0 C 80.715 0, 80 0.293, 80 1.941 M 92 6.441 C 92 9.984, 91.519 13.179, 90.932 13.542 C 90.344 13.905, 90.071 14.742, 90.324 15.402 C 90.577 16.061, 90.174 17.703, 89.427 19.050 C 87.561 22.421, 87.552 32.614, 89.415 33.329 C 91.521 34.137, 103.417 32.249, 103.819 31.043 C 104.010 30.469, 104.962 30, 105.934 30 C 106.906 30, 109.143 29.497, 110.905 28.883 C 113.332 28.037, 114.035 27.256, 113.804 25.658 C 113.443 23.159, 108.926 20.502, 107.889 22.180 C 107.153 23.371, 106.472 21.609, 105.500 16 C 104.575 10.655, 104.145 6.824, 104.069 3.250 L 104 0 98 0 L 92 0 92 6.441 M 116 2.893 C 116 5.904, 117.388 7.007, 122.035 7.690 C 124.258 8.016, 124.703 7.566, 125.646 4.031 L 126.722 0 121.361 0 C 116.115 0, 116 0.062, 116 2.893 M 131.855 1.070 C 133.287 1.644, 133.997 2.565, 133.668 3.424 C 132.977 5.224, 135.397 6.203, 136.878 4.722 C 137.495 4.105, 138 2.790, 138 1.800 C 138 0.339, 137.199 0.012, 133.750 0.063 C 130.061 0.118, 129.811 0.251, 131.855 1.070 M 147.019 1.250 C 147.030 1.938, 147.691 7, 148.488 12.500 C 149.285 18, 149.951 25.299, 149.968 28.720 L 150 34.940 153.750 34.720 C 156.949 34.532, 157.451 34.781, 157.169 36.412 C 156.582 39.805, 158.019 45, 159.545 45 C 160.495 45, 161 46.042, 161 48 C 161 49.650, 160.662 50.929, 160.250 50.841 C 159.838 50.754, 158.825 50.943, 158 51.262 C 157.175 51.581, 155.191 52.239, 153.590 52.724 C 151.833 53.257, 149.967 54.936, 148.880 56.964 C 147.890 58.810, 146.615 60.785, 146.047 61.353 C 145.336 62.064, 145.948 62.779, 148.007 63.645 C 151.442 65.089, 151.940 67.567, 148.983 68.505 C 147.874 68.857, 146.056 70.931, 144.943 73.113 C 143.829 75.295, 141.812 77.584, 140.459 78.201 C 137.849 79.390, 137.363 80.488, 139 81.500 C 140.577 82.475, 140.187 85.735, 137.637 92.879 C 136.338 96.521, 134.696 102.621, 133.989 106.435 C 132.544 114.230, 129.611 118, 124.990 118 C 122.514 118, 122.215 118.414, 121.636 122.640 C 121.286 125.191, 121 129.808, 121 132.899 L 121 138.519 124.250 138.510 C 127.176 138.501, 127.481 138.774, 127.312 141.250 L 127.123 144 159.562 144 L 192 144 192 72 L 192 0 169.500 0 C 152.156 0, 147.004 0.286, 147.019 1.250 M 135.158 14 C 135.158 15.375, 135.385 15.938, 135.662 15.250 C 135.940 14.563, 135.940 13.438, 135.662 12.750 C 135.385 12.063, 135.158 12.625, 135.158 14 M 117.894 13.750 C 117.616 15.720, 118.279 20.654, 118.996 21.945 C 119.980 23.719, 122.181 16.636, 121.333 14.425 C 120.767 12.951, 118.081 12.424, 117.894 13.750 M 117.485 68.250 C 117.236 68.938, 117.199 70.850, 117.402 72.500 C 117.606 74.150, 117.823 78.763, 117.886 82.750 C 117.972 88.192, 118.344 90, 119.380 90 C 120.321 90, 120.956 88.173, 121.377 84.250 C 121.717 81.088, 122.276 76.509, 122.619 74.076 C 123.125 70.489, 122.900 69.400, 121.431 68.326 C 119.165 66.669, 118.065 66.648, 117.485 68.250 M 71.500 70.072 C 70.950 70.607, 69.222 72.176, 67.659 73.559 C 64.961 75.947, 64.897 76.194, 66.386 78.466 C 67.248 79.782, 68.247 82.691, 68.605 84.930 C 69.284 89.179, 70.048 89.852, 71.797 87.744 C 72.831 86.499, 73.960 68.947, 73 69.048 C 72.725 69.076, 72.050 69.538, 71.500 70.072" stroke="none" fill="black" fill-rule="evenodd"/>
</svg>