<svg xmlns="http://www.w3.org/2000/svg" width="192" height="144" viewBox="0 0 192 144" version="1.1">
	<path d="M 76.848 45.250 C 77.064 53.088, 77.340 62.200, 77.462 65.500 C 78.064 81.861, 78.063 85.048, 77.448 92 C 77.083 96.125, 75.546 103.194, 74.033 107.709 L 71.283 115.918 74.526 119.459 C 76.527 121.643, 78.676 122.987, 80.135 122.967 C 85.641 122.889, 89.127 116.080, 86.380 110.768 C 84.992 108.084, 85.028 108, 87.568 108 C 89.304 108, 90.355 108.643, 90.686 109.908 C 91.617 113.469, 98.913 114.083, 101.922 110.854 C 104.506 108.080, 104.529 98.443, 101.976 88.500 C 99.854 80.236, 98.775 70, 100.027 70 C 101.665 70, 102.296 62.691, 101.177 56.675 C 99.903 49.824, 96.973 46, 93 46 C 89.887 46, 86 49.724, 86 52.707 C 86 53.851, 85.325 55.045, 84.500 55.362 C 83.542 55.729, 83 55.344, 83 54.297 C 83 53.395, 82.213 51.788, 81.250 50.725 C 79.929 49.267, 79.414 46.610, 79.151 39.896 C 78.917 33.959, 78.411 31, 77.629 31 C 76.769 31, 76.561 34.797, 76.848 45.250 M 81.750 61.080 C 80.052 62.069, 79.240 66.930, 80.750 67.069 C 81.162 67.107, 82.789 67.307, 84.364 67.513 C 87.079 67.868, 87.196 67.729, 86.614 64.819 C 86.276 63.131, 86 61.356, 86 60.875 C 86 59.714, 83.923 59.814, 81.750 61.080 M 79.993 76.250 C 79.990 78.588, 80.518 83.987, 81.166 88.250 C 82.254 95.396, 82.530 96, 84.708 96 C 86.727 96, 86.921 95.721, 86.043 94.081 C 85.455 92.982, 85.299 90.095, 85.678 87.331 C 86.468 81.566, 86.452 81.500, 84.239 81.500 C 82.874 81.500, 82.434 80.479, 82.195 76.750 C 81.817 70.854, 80.002 70.442, 79.993 76.250 M 83.015 100.750 C 83.024 101.162, 83.467 102.175, 84 103 C 84.784 104.213, 84.972 104.069, 84.985 102.250 C 84.993 101.013, 84.550 100, 84 100 C 83.450 100, 83.007 100.338, 83.015 100.750 M 86 104 C 86 104.550, 86.450 105, 87 105 C 87.550 105, 88 104.550, 88 104 C 88 103.450, 87.550 103, 87 103 C 86.450 103, 86 103.450, 86 104 M 188.880 111.500 C 187.494 113.700, 186.023 116.069, 185.612 116.764 C 184.179 119.188, 181 132, 181 135.352 C 181 140.244, 184.289 144, 188.573 144 C 190.615 144, 192.025 143.495, 192.061 142.750 C 192.799 127.668, 192.859 115.570, 192.214 112 L 191.401 107.500 188.880 111.500 M 1.031 122.750 L 1.062 129.500 3.526 125.500 C 4.881 123.300, 5.992 121.133, 5.995 120.684 C 6.006 118.875, 3.840 116, 2.465 116 C 1.320 116, 1.007 117.475, 1.031 122.750" stroke="none" fill="black" fill-rule="evenodd"/>
</svg>