<svg xmlns="http://www.w3.org/2000/svg" width="192" height="144" viewBox="0 0 192 144" version="1.1">
	<path d="M 54 0.325 C 54 1.648, 59.203 15.540, 60.107 16.628 C 60.733 17.383, 62.154 18, 63.266 18 C 65.163 18, 65.247 18.429, 64.639 24.975 C 64.282 28.811, 63.070 34.285, 61.945 37.139 C 60.401 41.058, 60.264 42.025, 61.389 41.092 C 62.690 40.013, 62.749 40.324, 61.861 43.541 C 60.736 47.617, 61.664 57.326, 63.094 56.442 C 64.283 55.707, 64.271 59.320, 63.080 60.550 C 62.282 61.375, 60 68.634, 58.303 75.750 C 58.008 76.988, 57.482 78.007, 57.133 78.015 C 56.785 78.024, 55.890 78.417, 55.145 78.890 C 54.030 79.596, 54.100 80.223, 55.543 82.425 C 58.449 86.860, 56.314 97.586, 49.070 114.945 C 43.475 128.352, 43.158 129.517, 44.652 131.167 C 46.226 132.907, 46.195 134.391, 44.440 141.383 L 43.783 144 53.775 144 C 62.423 144, 63.838 143.765, 64.296 142.250 C 64.587 141.287, 65.733 138.012, 66.843 134.972 C 69.902 126.594, 72.027 112.439, 72.276 98.778 C 72.405 91.685, 72.909 86.500, 73.468 86.500 C 75.522 86.500, 76.905 94.789, 76.790 106.417 C 76.687 116.796, 76.380 118.862, 74.408 122.417 C 73.163 124.663, 71.042 130.438, 69.695 135.250 L 67.245 144 97.988 144 C 128.009 144, 128.795 143.949, 131.486 141.832 C 134.113 139.766, 134.212 139.377, 133.611 133.509 C 133.237 129.859, 133.432 126.058, 134.091 124.168 C 135.088 121.308, 134.740 119.937, 130.680 110.741 C 122.642 92.536, 120.894 85.311, 123.379 80.553 C 124.993 77.460, 124.138 75, 121.449 75 C 118.822 75, 117 71.880, 117 67.379 C 117 61.803, 114.924 57.659, 110.958 55.316 C 108.572 53.907, 108.029 53.020, 108.472 51.256 C 108.949 49.356, 108.635 49, 106.488 49 C 102.596 49, 102.590 46.923, 106.463 40.491 C 108.408 37.261, 110 34.018, 110 33.284 C 110 32.551, 111.125 31.523, 112.500 31 C 115.081 30.019, 116.060 25.773, 114 24.500 C 113.450 24.160, 113 22.316, 113 20.403 C 113 17.216, 113.227 16.948, 115.711 17.212 C 118.792 17.539, 120.782 14.516, 122.104 7.500 C 122.519 5.300, 123.163 2.712, 123.536 1.750 C 124.174 0.104, 122.134 0, 89.107 0 C 69.798 0, 54 0.146, 54 0.325" stroke="none" fill="black" fill-rule="evenodd"/>
</svg>