<svg xmlns="http://www.w3.org/2000/svg" width="192" height="144" viewBox="0 0 192 144" version="1.1">
	<path d="M 0 72 L 0 144 40.352 144 L 80.704 144 81.468 135.750 C 82.677 122.715, 82.413 92.201, 81.073 90.085 C 80.362 88.961, 79.443 89.449, 76.615 92.447 C 72.685 96.613, 73.930 96.510, 58.699 93.941 C 53.389 93.046, 50.196 91.945, 48.699 90.494 C 47.051 88.897, 44.271 88.073, 37.609 87.207 C 28.928 86.079, 26.220 85.183, 28.756 84.278 C 29.447 84.031, 29.728 83.369, 29.381 82.807 C 28.983 82.164, 29.535 82.035, 30.875 82.460 C 32.136 82.860, 33 82.701, 33 82.067 C 33 80.698, 44.468 80.645, 47.005 82.003 C 48.036 82.554, 49.111 82.630, 49.394 82.171 C 50.129 80.982, 55.812 81.542, 60.500 83.265 C 69.455 86.558, 69.500 86.548, 72.907 80.511 C 74.608 77.497, 76 74.212, 76 73.211 C 76 72.211, 77.585 69.856, 79.523 67.978 C 81.492 66.069, 82.811 63.951, 82.514 63.175 C 82.212 62.390, 83.505 60.391, 85.491 58.573 C 89.282 55.099, 90.060 52.910, 87.239 53.648 C 84.969 54.241, 79.500 48.608, 79.500 45.677 C 79.500 44.174, 78.796 43.400, 77.225 43.177 C 75.974 43, 74.215 41.731, 73.315 40.358 C 71.797 38.041, 71.802 37.469, 73.395 32.417 C 74.468 29.010, 76.025 26.374, 77.555 25.372 C 79.213 24.286, 80 22.841, 80 20.885 C 80 18.022, 80.860 17.520, 85.081 17.919 C 86.122 18.017, 87.085 16.661, 87.896 13.952 C 88.727 11.180, 89.574 10.006, 90.492 10.358 C 91.241 10.646, 92.392 10.233, 93.049 9.441 C 93.707 8.648, 94.618 8, 95.074 8 C 96.547 8, 102.012 16.803, 102.650 20.203 C 102.990 22.016, 104.086 24.406, 105.085 25.512 C 108.585 29.388, 111.093 37.071, 112.995 49.732 C 114.090 57.024, 116.281 66.360, 118.104 71.500 C 119.970 76.759, 121.276 82.370, 121.247 85 C 121.143 94.448, 120.251 101.633, 118.744 105.155 C 117.885 107.166, 116.642 111.441, 115.982 114.655 C 115.323 117.870, 114.428 120.950, 113.994 121.500 C 113.560 122.050, 112.880 127.343, 112.483 133.261 L 111.760 144.023 152.130 143.761 L 192.500 143.500 192.757 71.750 L 193.013 0 96.507 0 L 0 0 0 72 M 0.474 72.500 C 0.474 112.100, 0.598 128.154, 0.750 108.176 C 0.901 88.198, 0.901 55.798, 0.750 36.176 C 0.598 16.554, 0.474 32.900, 0.474 72.500" stroke="none" fill="black" fill-rule="evenodd"/>
</svg>