<svg xmlns="http://www.w3.org/2000/svg" width="192" height="144" viewBox="0 0 192 144" version="1.1">
	<path d="M 0 72 L 0 144 14.583 144 C 22.604 144, 28.994 143.662, 28.783 143.250 C 20.182 126.443, 16.400 110.822, 15.405 88 C 15.106 81.125, 15.236 71.450, 15.695 66.500 L 16.530 57.500 12.529 53.876 C 8.644 50.359, 8.570 50.172, 10.002 47.496 C 11.875 43.997, 17.508 41.108, 19.186 42.786 C 20.075 43.675, 19.943 44.405, 18.633 45.853 C 16.297 48.434, 16.924 48.609, 33.828 50.090 C 47.646 51.301, 47.956 51.283, 54.677 48.910 C 64.522 45.433, 84.176 45.438, 98.366 48.922 C 105.338 50.634, 108.696 51.051, 109.815 50.345 C 112.534 48.630, 114.862 44.654, 115.438 40.743 C 116.257 35.179, 117.817 33.355, 124.208 30.487 C 132.153 26.922, 136.669 26.883, 141.205 30.342 C 144.400 32.780, 145.370 33.020, 149.699 32.446 C 153.414 31.953, 154.885 32.156, 155.827 33.292 C 156.860 34.537, 156.387 35.368, 152.994 38.273 L 148.920 41.760 150.571 45.886 C 152.081 49.661, 152.087 50.218, 150.638 52.430 C 149.766 53.760, 148.103 55.150, 146.942 55.518 C 145.319 56.033, 144.967 56.733, 145.421 58.541 C 145.820 60.131, 145.486 61.188, 144.392 61.800 C 142.147 63.057, 143.917 66.167, 148.481 68.988 C 150.410 70.180, 152.328 71.705, 152.744 72.376 C 153.160 73.048, 156.334 75.756, 159.798 78.394 C 165.297 82.582, 167.163 83.578, 170.164 83.923 C 170.530 83.966, 172.235 86.286, 173.954 89.080 C 175.673 91.874, 178.864 96.417, 181.044 99.175 C 183.225 101.934, 186.601 107.037, 188.546 110.516 C 191.911 116.533, 192.069 117.246, 191.792 125.127 L 191.500 133.412 187.626 124.456 C 180.497 107.974, 168 91.735, 168 98.953 C 168 100.028, 166.831 101.715, 165.401 102.703 C 163.972 103.691, 161.105 105.963, 159.030 107.750 C 156.955 109.538, 154.526 111, 153.632 111 C 152.737 111, 150.262 109.425, 148.132 107.500 C 146.001 105.575, 143.992 104, 143.667 104 C 143.343 104, 142.568 105.912, 141.946 108.250 C 141.323 110.587, 140.103 113.296, 139.235 114.269 C 137.793 115.884, 137.845 117.055, 139.831 127.769 C 141.027 134.221, 142.005 140.520, 142.003 141.767 L 142 144.034 167.250 143.767 L 192.500 143.500 192.757 71.750 L 193.013 0 96.507 0 L 0 0 0 72 M 0.474 72.500 C 0.474 112.100, 0.598 128.154, 0.750 108.176 C 0.901 88.198, 0.901 55.798, 0.750 36.176 C 0.598 16.554, 0.474 32.900, 0.474 72.500 M 64.473 53.461 C 61.159 54.188, 56.744 55.740, 54.663 56.909 C 52.582 58.077, 48.544 59.368, 45.689 59.776 L 40.500 60.519 39.315 68.509 C 37.819 78.595, 37.652 115.694, 39.066 123.566 C 39.652 126.830, 41.110 132.762, 42.304 136.750 L 44.476 144 74.738 144 L 105 144 105.022 141.750 C 105.045 139.492, 108.288 132.517, 113.344 123.853 C 115.716 119.788, 116.104 117.907, 116.439 108.853 C 116.650 103.159, 117.145 95.237, 117.540 91.250 C 118.157 85.023, 118.037 84, 116.688 84 C 114.107 84, 113.826 82.327, 115.473 76.778 C 116.333 73.882, 116.691 71.395, 116.269 71.252 C 112.844 70.093, 108.959 66.632, 108.443 64.281 C 108.108 62.751, 107.669 60.963, 107.470 60.307 C 107.039 58.894, 96.587 55.525, 88.340 54.140 C 77.527 52.326, 70.551 52.127, 64.473 53.461 M 151 83.596 C 151 84.473, 150.239 86.480, 149.308 88.055 C 147.708 90.765, 147.715 91.027, 149.437 92.931 C 151.255 94.939, 151.261 94.938, 153.201 92.471 C 154.270 91.112, 155.697 90, 156.373 90 C 157.048 90, 158.123 89.477, 158.762 88.838 C 159.644 87.956, 159.030 87.001, 156.212 84.866 C 151.919 81.615, 151 81.391, 151 83.596" stroke="none" fill="black" fill-rule="evenodd"/>
</svg>