<svg xmlns="http://www.w3.org/2000/svg" width="192" height="144" viewBox="0 0 192 144" version="1.1">
	<path d="M 66.557 44.907 C 65.505 46.610, 65.299 58.491, 66.262 61.981 C 66.790 63.895, 68.569 67.420, 70.216 69.813 C 73.477 74.553, 74.027 78.818, 72.222 85.371 C 71.636 87.501, 71.380 89.827, 71.654 90.541 C 71.928 91.254, 74.480 92.983, 77.326 94.382 C 88.878 100.062, 101.105 101.617, 101.840 97.500 C 102.658 92.918, 105.230 88.938, 107.008 89.503 C 108.010 89.820, 108.990 89.467, 109.293 88.680 C 109.672 87.691, 112.615 87.147, 119.688 86.757 C 131.312 86.116, 136.204 84.355, 138.974 79.810 C 143.327 72.671, 139.632 63.451, 132.809 64.423 C 131.328 64.634, 128.361 63.938, 126.214 62.876 C 124.068 61.814, 121.229 60.742, 119.906 60.493 C 118.583 60.245, 116.600 59.626, 115.500 59.119 C 114.400 58.611, 106.750 56.109, 98.500 53.559 C 90.250 51.010, 80.125 47.810, 76 46.450 C 67.603 43.681, 67.342 43.638, 66.557 44.907 M 131.250 70.662 C 130.563 70.940, 130 72.303, 130 73.692 C 130 75.854, 129.657 76.131, 127.612 75.617 C 125.707 75.139, 124.697 75.709, 122.620 78.431 L 120.017 81.844 125.749 81.353 C 129.656 81.018, 132.053 80.247, 133.279 78.931 C 134.268 77.869, 135.458 77, 135.922 77 C 137.311 77, 138 72.705, 136.836 71.302 C 135.745 69.987, 133.547 69.736, 131.250 70.662" stroke="none" fill="black" fill-rule="evenodd"/>
</svg>