<svg xmlns="http://www.w3.org/2000/svg" width="192" height="144" viewBox="0 0 192 144" version="1.1">
	<path d="M 86.476 10.396 C 84.812 11.121, 82.910 12.903, 82.247 14.357 C 81.585 15.811, 80.413 17, 79.644 17 C 75.327 17, 75.368 25.907, 79.709 31.066 C 81.042 32.650, 82.171 35.314, 82.219 36.987 C 82.266 38.660, 82.533 39.801, 82.811 39.523 C 83.089 39.245, 83.914 39.514, 84.645 40.121 C 85.376 40.727, 86.641 40.968, 87.455 40.656 C 89.820 39.748, 90.234 41.713, 88.301 44.663 C 87.321 46.159, 86.290 49.654, 86.010 52.431 C 85.435 58.122, 83.446 59.438, 80.341 56.180 C 78.077 53.805, 74.625 52.667, 72.108 53.466 C 69.531 54.284, 67.660 59.175, 68.485 62.934 C 69.134 65.886, 69.356 66, 74.472 66 C 78.273 66, 79.950 66.427, 80.362 67.500 C 80.678 68.325, 81.964 69.007, 83.219 69.015 C 87.566 69.044, 88.202 70.244, 87.782 77.613 C 87.566 81.401, 86.875 86.525, 86.247 89 C 85.618 91.475, 84.363 97.100, 83.458 101.500 C 81.824 109.437, 76.433 123, 74.911 123 C 74.475 123, 73.840 122.550, 73.500 122 C 72.421 120.254, 71.425 120.893, 68.667 125.106 C 66.555 128.332, 65.874 130.796, 65.490 136.606 L 65.001 144 103.014 144 C 131.629 144, 141.551 143.691, 143.144 142.750 C 144.838 141.750, 145.352 141.750, 145.714 142.750 C 145.984 143.495, 147.965 144, 150.618 144 L 155.069 144 154.454 138.750 C 153.795 133.131, 145.934 115.456, 143.124 113.277 C 142.231 112.585, 139.250 110.872, 136.500 109.471 C 128.232 105.259, 123.739 100.328, 118.170 89.355 L 116.067 85.210 119.622 84.543 C 131.320 82.349, 133.926 75.095, 127.595 62.353 C 125.723 58.584, 122.863 52.575, 121.241 49 C 119.461 45.078, 116.051 40.148, 112.645 36.569 C 106.338 29.944, 105.572 28.210, 109.950 30.474 C 113.658 32.391, 121.003 32.449, 123.557 30.582 C 124.624 29.802, 125.273 28.972, 124.998 28.737 C 118.973 23.582, 112.563 19.088, 109 17.522 C 106.525 16.435, 103.907 14.741, 103.183 13.758 C 101.534 11.520, 95.600 8.987, 92.128 9.039 C 90.683 9.061, 88.139 9.671, 86.476 10.396" stroke="none" fill="black" fill-rule="evenodd"/>
</svg>