<svg xmlns="http://www.w3.org/2000/svg" width="192" height="144" viewBox="0 0 192 144" version="1.1">
	<path d="M 57.773 24.556 C 57.373 24.958, 55.362 25.335, 53.303 25.393 C 49.778 25.494, 49.541 25.704, 49.235 29 C 48.655 35.257, 48.879 36.476, 50.912 38.126 C 52.014 39.020, 52.629 40.038, 52.279 40.388 C 51.928 40.738, 52.682 42.431, 53.952 44.149 C 56.055 46.993, 56.112 47.358, 54.587 48.211 C 53.582 48.774, 53.135 49.851, 53.470 50.906 C 53.808 51.970, 53.192 53.421, 51.912 54.580 C 46.945 59.075, 45.688 64.968, 49.176 67.411 C 51.548 69.072, 51.574 68.801, 47.691 83 C 44.174 95.864, 40.753 117.313, 39.439 134.750 L 38.742 144 59.186 144 L 79.630 144 77.800 131.750 C 74.876 112.168, 73.067 103.028, 70.490 94.824 L 68.080 87.149 70.540 81.094 C 73.587 73.595, 73.591 72.352, 70.594 65.777 C 69.270 62.875, 67.938 58.925, 67.633 57 C 67.328 55.075, 66.783 52.487, 66.422 51.250 C 65.952 49.635, 66.184 49, 67.247 49 C 68.959 49, 74 42.149, 74 39.823 C 74 37.135, 70.219 29.554, 67.695 27.183 C 65.232 24.870, 59.080 23.240, 57.773 24.556 M 178.068 122.937 C 177.281 123.435, 175.931 126.672, 175.068 130.129 L 173.500 136.415 168.008 137.457 C 164.187 138.183, 162.418 139.013, 162.197 140.186 C 161.714 142.742, 167.784 143.988, 180.750 143.994 L 192 144 192 133.625 L 192 123.250 188.875 122.625 C 184.451 121.740, 179.744 121.876, 178.068 122.937" stroke="none" fill="black" fill-rule="evenodd"/>
</svg>