<svg xmlns="http://www.w3.org/2000/svg" width="192" height="144" viewBox="0 0 192 144" version="1.1">
	<path d="M 135.500 1 C 136.301 2.297, 140.699 2.297, 141.500 1 C 141.869 0.404, 140.657 -0, 138.500 -0 C 136.343 -0, 135.131 0.404, 135.500 1 M 190.180 3.250 C 190.246 5.038, 190.033 7.400, 189.707 8.500 C 189.381 9.600, 188.834 12.856, 188.492 15.735 C 188.149 18.614, 187.462 22.391, 186.964 24.127 C 186.465 25.864, 186.339 27.740, 186.683 28.297 C 187.441 29.523, 188.077 33.515, 188.110 37.250 C 188.123 38.763, 188.584 40, 189.134 40 C 189.685 40, 189.851 40.895, 189.503 41.990 C 189.141 43.130, 189.539 44.932, 190.436 46.212 C 191.873 48.264, 192 46.480, 192 24.223 C 192 9.248, 191.630 0, 191.030 0 C 190.497 0, 190.115 1.462, 190.180 3.250 M 25.607 17.582 C 23.928 21.957, 25.665 26, 29.225 26 C 31.201 26, 33 22.395, 33 18.435 C 33 16.333, 32.535 16, 29.607 16 C 27.435 16, 25.995 16.569, 25.607 17.582 M 0.068 139.750 L 0 144 7.750 143.968 L 15.500 143.937 12.578 141.368 C 10.178 139.259, 8.997 138.905, 5.975 139.388 C 2.841 139.889, 2.135 139.645, 1.215 137.738 C 0.255 135.748, 0.128 135.971, 0.068 139.750" stroke="none" fill="black" fill-rule="evenodd"/>
</svg>