<svg xmlns="http://www.w3.org/2000/svg" width="192" height="144" viewBox="0 0 192 144" version="1.1">
	<path d="M 81.779 54.508 C 75.021 55.919, 71.966 56.949, 49 65.562 C 41.277 68.459, 32.869 70.810, 27 71.715 C 7.958 74.650, 8.408 74.443, 18 75.858 C 22.675 76.547, 37.300 80.285, 50.500 84.164 C 71.904 90.454, 86.075 93.862, 91.250 93.965 C 94.541 94.031, 93.005 92.416, 88.675 91.258 C 85.060 90.291, 83.747 89.193, 80.675 84.566 C 75.746 77.143, 75.560 70.920, 80.055 63.914 C 84.018 57.738, 84.704 57.228, 91.382 55.489 C 96.477 54.162, 97.529 54.187, 102.642 55.762 C 106.019 56.802, 108.928 58.427, 109.891 59.812 C 110.776 61.084, 112.516 63.404, 113.758 64.967 C 115.693 67.401, 115.967 68.756, 115.674 74.413 C 115.420 79.330, 114.811 81.590, 113.291 83.259 C 112.168 84.491, 110.724 86.519, 110.082 87.765 C 109.336 89.210, 107.298 90.463, 104.457 91.223 C 97.304 93.136, 99.215 94.277, 108.250 93.488 C 117.799 92.655, 128.889 89.642, 143.013 84.043 C 157.379 78.349, 165.379 76.170, 174.771 75.393 C 179.320 75.017, 182.873 74.540, 182.667 74.333 C 182.460 74.127, 178.738 73.319, 174.396 72.538 C 170.053 71.756, 158.175 68.379, 148 65.032 C 116.699 54.737, 112.807 53.796, 100 53.432 C 92.737 53.225, 86.024 53.622, 81.779 54.508" stroke="none" fill="black" fill-rule="evenodd"/>
</svg>