<svg xmlns="http://www.w3.org/2000/svg" width="192" height="144" viewBox="0 0 192 144" version="1.1">
	<path d="M 0 72.011 L 0 144 10.750 143.955 L 21.500 143.910 26.266 137.795 C 29.684 133.410, 30.856 131.121, 30.407 129.707 C 29.358 126.403, 33.090 109.716, 35.281 107.917 C 36.484 106.929, 37.407 104.569, 37.738 101.635 C 38.119 98.256, 38.948 96.400, 40.687 95.031 C 43.048 93.175, 43.059 93.102, 41.126 92.067 C 38.845 90.847, 36.400 91.516, 35.609 93.577 C 35.308 94.360, 34.655 95, 34.157 95 C 33.659 95, 34.155 93.172, 35.261 90.938 C 36.413 88.608, 37.366 84.451, 37.495 81.188 C 37.619 78.060, 38.233 74.233, 38.860 72.685 C 39.487 71.137, 40 67.887, 40 65.463 L 40 61.056 34.605 59.487 C 29.709 58.064, 29.168 57.622, 28.765 54.709 C 28.520 52.944, 28.136 50.836, 27.910 50.024 C 27.644 49.066, 28.373 48.416, 29.987 48.173 C 31.355 47.967, 33.702 46.924, 35.203 45.855 C 37.435 44.266, 37.827 43.384, 37.352 41.011 C 36.458 36.540, 40.361 25.106, 44.388 20.402 C 48.199 15.949, 55.259 13, 62.107 13 C 65.219 13, 66.529 12.372, 68.742 9.820 C 70.259 8.072, 72.687 5.274, 74.137 3.604 C 77.487 -0.252, 78.909 0.735, 82.031 9.083 C 83.885 14.041, 84.942 15.440, 88.015 17.008 C 91.985 19.033, 96.114 23.385, 98.569 28.134 C 100.744 32.339, 101.967 39.958, 100.912 42.731 C 100.227 44.533, 100.627 46.304, 102.598 50.193 C 104.866 54.669, 105.023 55.588, 103.882 57.720 C 102.783 59.774, 102.859 60.944, 104.376 65.324 C 107.242 73.597, 113.977 87.054, 115.554 87.659 C 116.349 87.964, 117 88.641, 117 89.164 C 117 89.686, 115.697 89.343, 114.104 88.402 C 111.317 86.756, 111.105 86.772, 108.469 88.846 C 105.252 91.376, 103.357 91.524, 99.404 89.552 C 96.322 88.015, 89.437 88.163, 87.799 89.801 C 87.161 90.439, 88.677 91.388, 92.160 92.531 C 99.954 95.086, 103 97.512, 103 101.164 C 103 106.249, 105.965 115, 107.688 115 C 108.818 115, 109.057 115.604, 108.578 117.250 C 106.589 124.077, 106.714 125.830, 109.363 128.286 C 110.796 129.613, 111.637 131.029, 111.234 131.433 C 110.830 131.836, 110.461 132.467, 110.414 132.833 C 110.366 133.200, 110.002 134.233, 109.603 135.128 C 109.205 136.023, 109.273 138.273, 109.753 140.128 L 110.627 143.500 151.564 143.500 L 192.500 143.500 192.757 71.760 L 193.013 0.019 96.507 0.020 L 0 0.022 0 72.011 M 0.474 72.500 C 0.474 112.100, 0.598 128.154, 0.750 108.176 C 0.901 88.198, 0.901 55.798, 0.750 36.176 C 0.598 16.554, 0.474 32.900, 0.474 72.500 M 165 44 C 165 44.550, 165.477 45, 166.059 45 C 166.641 45, 166.840 44.550, 166.500 44 C 166.160 43.450, 165.684 43, 165.441 43 C 165.198 43, 165 43.450, 165 44 M 132.500 74 C 132.160 74.550, 132.557 75, 133.382 75 C 134.207 75, 135.160 74.550, 135.500 74 C 135.840 73.450, 135.443 73, 134.618 73 C 133.793 73, 132.840 73.450, 132.500 74 M 91.769 140.956 C 91.078 143.417, 91.491 144.842, 92.581 143.753 C 92.900 143.433, 93.004 142.121, 92.810 140.836 L 92.459 138.500 91.769 140.956" stroke="none" fill="black" fill-rule="evenodd"/>
</svg>