<svg xmlns="http://www.w3.org/2000/svg" width="192" height="144" viewBox="0 0 192 144" version="1.1">
	<path d="M 0 72 L 0 144 35.852 144 L 71.703 144 73.481 137.250 C 74.459 133.537, 76.776 126.388, 78.630 121.362 C 80.806 115.460, 82 110.434, 82 107.171 C 82 104.392, 82.450 101.840, 83 101.500 C 83.550 101.160, 84 99.953, 84 98.819 C 84 97.209, 83.706 96.999, 82.663 97.865 C 81.641 98.713, 80.785 98.400, 79.038 96.540 L 76.751 94.106 72.929 97.178 C 69.401 100.013, 68.981 100.124, 67.482 98.625 C 66.588 97.731, 64.989 97, 63.929 97 C 62.868 97, 62 96.613, 62 96.139 C 62 95.666, 59.498 94.567, 56.439 93.697 C 53.101 92.747, 50.119 91.150, 48.980 89.702 C 47.581 87.923, 45.730 87.128, 41.943 86.680 C 33.719 85.706, 25.702 80.755, 31.769 80.398 C 32.721 80.342, 34.962 80.229, 36.750 80.148 C 39.870 80.006, 41.540 78, 38.539 78 C 37.107 78, 35.846 74.540, 34.462 66.815 C 33.775 62.979, 35.290 56.637, 37.523 54 C 38.222 53.175, 38.959 51.600, 39.160 50.500 C 39.411 49.135, 40.316 48.500, 42.014 48.500 C 43.381 48.500, 44.787 48.105, 45.138 47.622 C 46.617 45.587, 48.212 48.383, 47.709 52.129 C 47.115 56.563, 48.272 57.871, 50.668 55.475 C 53.429 52.714, 54.416 55.987, 53.038 63.335 C 52.402 66.726, 51.769 70.175, 51.630 71 C 50.952 75.033, 49.592 77.205, 47.164 78.133 L 44.500 79.151 47 80.498 C 48.375 81.238, 50.758 81.594, 52.296 81.288 C 54.237 80.902, 56.620 81.564, 60.094 83.454 C 65.647 86.477, 68 86.252, 68 82.698 C 68 81.397, 68.330 80.003, 68.733 79.600 C 69.136 79.197, 70.061 76.985, 70.788 74.684 C 71.515 72.383, 72.499 69.281, 72.973 67.791 C 73.807 65.177, 73.730 65.104, 70.761 65.698 C 67.896 66.271, 67.729 66.148, 68.329 63.907 C 68.683 62.583, 68.979 60.887, 68.986 60.139 C 68.996 59.137, 69.886 58.944, 72.355 59.407 L 75.711 60.036 76.922 52.268 C 78.662 41.099, 79.883 36.088, 82.071 31.123 C 84.664 25.240, 84.526 24.479, 80.874 24.490 C 76.148 24.505, 75.479 22.446, 78.015 15.681 C 79.214 12.481, 80.779 9.638, 81.493 9.364 C 83.593 8.558, 90.422 10.796, 94.613 13.663 C 99.461 16.979, 102.741 17.297, 111.071 15.258 C 120.557 12.936, 121.192 13.387, 119.406 21.190 C 118.612 24.660, 117.670 28.175, 117.313 29 C 116.956 29.825, 116.781 32.640, 116.924 35.255 C 117.121 38.852, 116.574 41.051, 114.675 44.291 C 112.499 48.005, 112.255 49.296, 112.837 54.036 C 113.448 59.017, 113.728 59.500, 116.004 59.500 C 117.984 59.500, 118.565 60.069, 118.816 62.250 C 119.050 64.280, 118.695 65, 117.459 65 C 116.261 65, 115.988 65.497, 116.499 66.750 C 118.100 70.680, 119.889 76.927, 121.521 84.278 C 122.993 90.914, 123.510 91.973, 125.035 91.489 C 126.411 91.052, 126.979 91.627, 127.495 93.978 C 127.932 95.969, 129.202 97.570, 131.136 98.571 C 132.770 99.415, 134.933 100.933, 135.944 101.944 C 136.959 102.959, 140.069 104.097, 142.890 104.485 C 148.341 105.235, 150.869 107, 146.492 107 L 143.866 107 147.450 111.374 L 151.034 115.748 148.663 117.301 C 147.359 118.155, 144.764 119.139, 142.896 119.487 C 139.779 120.067, 139.233 119.771, 136.250 115.878 C 134.463 113.545, 133 111.268, 133 110.818 C 133 110.368, 132.255 110, 131.344 110 C 130.434 110, 128.249 108.902, 126.488 107.559 C 121.819 103.998, 112.835 98.832, 112.279 99.388 C 112.015 99.651, 112.182 100.459, 112.650 101.183 C 113.117 101.908, 113.525 104.525, 113.555 107 C 113.589 109.760, 114.810 114.207, 116.712 118.500 C 118.417 122.350, 121.092 129.661, 122.656 134.747 L 125.500 143.994 159 143.747 L 192.500 143.500 192.757 71.750 L 193.013 0 96.507 0 L 0 0 0 72 M 0.474 72.500 C 0.474 112.100, 0.598 128.154, 0.750 108.176 C 0.901 88.198, 0.901 55.798, 0.750 36.176 C 0.598 16.554, 0.474 32.900, 0.474 72.500 M 108.235 53.755 C 107.058 57.132, 107.713 58.413, 109.920 57.050 C 110.899 56.444, 110.998 55.493, 110.298 53.393 L 109.351 50.554 108.235 53.755 M 119.070 89.250 C 119.032 90.763, 119.450 92, 120 92 C 121.174 92, 121.174 91.231, 120 88.500 C 119.238 86.728, 119.133 86.813, 119.070 89.250" stroke="none" fill="black" fill-rule="evenodd"/>
</svg>