<svg xmlns="http://www.w3.org/2000/svg" width="192" height="144" viewBox="0 0 192 144" version="1.1">
	<path d="M 1.050 3.906 C 0.346 5.223, 0 28.603, 0 74.934 L 0 144 17.599 144 L 35.198 144 32.939 140.250 C 31.697 138.188, 29.236 133.575, 27.471 130 C 25.706 126.425, 22.403 121.700, 20.132 119.500 C 17.860 117.300, 16.001 114.938, 16.001 114.250 C 16 113.563, 15.550 113, 15 113 C 14.450 113, 14 112.550, 14 112 C 14 111.450, 14.563 110.993, 15.250 110.985 C 18.582 110.944, 19.193 109.392, 17.448 105.395 C 15.205 100.256, 15.201 91.092, 17.439 82.848 C 19.378 75.701, 19.203 74.776, 14.580 67.750 C 12.967 65.299, 12.945 65, 14.385 65 C 15.273 65, 16 64.657, 16 64.237 C 16 63.818, 17.006 63.030, 18.236 62.487 C 22.226 60.725, 22.691 56.866, 20.122 46.836 L 17.809 37.808 20.484 35.017 L 23.158 32.225 20.891 30.113 C 19.643 28.951, 17.794 28, 16.780 28 C 15.767 28, 14.686 27.345, 14.379 26.545 C 14.072 25.744, 12.302 23.480, 10.447 21.513 C 7.548 18.438, 7.209 17.580, 8.037 15.403 C 9.502 11.549, 9.226 10.183, 6.500 7.813 C 5.125 6.618, 4 5.072, 4 4.379 C 4 2.171, 2.139 1.872, 1.050 3.906 M 130 25.823 C 130 29.108, 129.225 30.440, 124.504 35.276 L 119.008 40.905 121.430 43.519 C 123.389 45.633, 123.746 46.837, 123.297 49.817 C 122.991 51.842, 121.899 54.903, 120.871 56.618 C 118.934 59.846, 118.405 63, 119.799 63 C 120.239 63, 120.425 64.483, 120.214 66.296 C 119.930 68.721, 120.683 70.966, 123.064 74.796 C 124.843 77.658, 126.654 80, 127.088 80 C 127.522 80, 128.188 82.070, 128.567 84.600 C 129.174 88.646, 128.513 92.594, 126.380 97.665 C 126.110 98.306, 126.767 99.109, 127.838 99.449 C 129.730 100.049, 129.715 100.217, 127.323 105.175 C 125.927 108.068, 124.051 115.101, 122.995 121.392 C 121.971 127.501, 120.608 134.894, 119.968 137.819 C 119.328 140.744, 119.007 143.340, 119.254 143.588 C 119.502 143.835, 130.078 143.917, 142.758 143.769 L 165.811 143.500 160.603 128 C 157.739 119.475, 154.185 110.158, 152.704 107.296 L 150.013 102.092 151.896 98.796 C 154.411 94.392, 156.365 85.592, 155.550 82.343 C 154.920 79.834, 155.038 79.744, 158.258 80.267 C 160.110 80.568, 163.669 81.774, 166.167 82.949 C 175.709 87.434, 180.213 85.283, 176.206 78.153 L 173.987 74.205 177.595 72.076 C 180.625 70.289, 181.104 69.550, 180.583 67.474 C 180.241 66.113, 180.218 65, 180.531 65 C 182.323 65, 187.179 68.411, 189.401 71.230 L 191.978 74.500 191.989 65.224 L 192 55.949 188.847 57.579 C 183.410 60.391, 177 60.342, 177 57.489 C 177 55.520, 173.014 53, 169.899 53 C 168.279 53, 166.679 53.851, 165.795 55.183 C 164.754 56.749, 163.097 57.470, 159.923 57.734 C 154.215 58.209, 149.948 58.086, 148.862 57.415 C 147.654 56.668, 147.782 53, 149.016 53 C 150.956 53, 153.321 46.396, 152.471 43.356 C 152.031 41.785, 151.706 40.275, 151.748 40 C 151.790 39.725, 152.109 37.925, 152.458 36 C 153.025 32.872, 152.800 32.367, 150.347 31.250 C 148.837 30.563, 146.362 30, 144.848 30 C 141.720 30, 137 28.099, 137 26.839 C 137 25.434, 133.097 22, 131.500 22 C 130.428 22, 130 23.091, 130 25.823 M 146.008 60.949 C 144.050 62.219, 145.523 63.583, 149.832 64.492 C 152.916 65.143, 153.140 65.020, 152.832 62.848 C 152.467 60.266, 148.684 59.214, 146.008 60.949 M 156.406 63.152 C 156.015 63.785, 156.487 64.883, 157.457 65.592 C 158.828 66.595, 159.638 66.619, 161.109 65.700 C 162.149 65.050, 163 63.952, 163 63.259 C 163 61.670, 157.379 61.578, 156.406 63.152 M 175 67.500 C 175 68.991, 175.431 69.852, 176 69.500 C 176.550 69.160, 177 68.260, 177 67.500 C 177 66.740, 176.550 65.840, 176 65.500 C 175.431 65.148, 175 66.009, 175 67.500" stroke="none" fill="black" fill-rule="evenodd"/>
</svg>