<svg xmlns="http://www.w3.org/2000/svg" width="192" height="144" viewBox="0 0 192 144" version="1.1">
	<path d="M 0.004 28.250 L 0.007 56.500 1.989 53.250 C 3.849 50.200, 7 48.785, 7 51 C 7 51.550, 7.900 52, 9 52 C 11.863 52, 11.473 53.485, 7.867 56.307 C 4.432 58.996, 4.632 60.984, 8.268 60.289 C 10.050 59.949, 11.667 61.006, 15.291 64.880 C 18.058 67.838, 20.003 70.860, 20.006 72.207 C 20.010 73.468, 20.615 75.625, 21.353 77 C 27.281 88.057, 34.313 100.639, 34.926 101.285 C 35.335 101.717, 38.009 99.804, 40.867 97.035 C 43.725 94.266, 46.522 92, 47.083 92 C 47.643 92, 48.740 90.473, 49.520 88.607 C 50.757 85.645, 51.607 85.068, 56.219 84.063 C 59.123 83.430, 63.075 82.502, 65 82 C 66.925 81.499, 70.240 80.814, 72.366 80.477 L 76.233 79.866 75.820 70.683 C 75.468 62.844, 74.995 60.800, 72.590 56.719 C 70.345 52.908, 69.376 52.063, 67.816 52.558 C 66.386 53.012, 65.716 52.629, 65.325 51.136 C 65.032 50.013, 63.686 48.369, 62.335 47.484 C 58.877 45.218, 59.516 41.225, 63.798 38.350 C 65.612 37.131, 67.615 35.962, 68.250 35.750 C 69.042 35.486, 68.713 33.761, 67.202 30.247 C 65.991 27.432, 65 24.875, 65 24.565 C 65 23.284, 67.513 24.154, 70.589 26.500 C 74.529 29.505, 74.498 29.502, 76.961 27.039 C 79.789 24.211, 89.362 21.684, 95.145 22.240 C 98.499 22.562, 100.348 22.285, 101.130 21.344 C 101.837 20.492, 103.615 20.131, 105.880 20.381 C 108.335 20.651, 110.354 20.171, 112.154 18.890 C 113.614 17.850, 115.077 17, 115.404 17 C 116.439 17, 115.964 23.356, 114.655 27.015 L 113.397 30.529 121.846 30.712 C 131.495 30.920, 134.262 32.278, 128.370 33.914 C 126.241 34.505, 123.713 34.991, 122.750 34.994 C 120.757 35.001, 120.492 36.092, 122.093 37.693 C 124.054 39.654, 121.973 42.257, 114.208 47.551 C 114.048 47.661, 114.603 49.494, 115.442 51.625 C 117.397 56.588, 121.472 74.177, 123.059 84.500 C 123.735 88.900, 124.878 93.675, 125.598 95.111 C 127.294 98.493, 131.004 116.264, 130.985 120.909 C 130.973 123.697, 130.736 124.165, 129.926 123 C 128.479 120.921, 129.286 127.433, 131.631 136.765 L 133.457 144.029 162.978 143.765 L 192.500 143.500 192.671 71.750 L 192.842 -0 96.421 -0 L 0 0 0.004 28.250 M 0.440 28.500 C 0.440 43.900, 0.579 50.060, 0.748 42.189 C 0.917 34.319, 0.917 21.719, 0.747 14.189 C 0.578 6.660, 0.439 13.100, 0.440 28.500 M 1 108.797 L 1 144 29.441 144 C 47.606 144, 58.109 143.633, 58.509 142.985 C 59.664 141.117, 66.438 138.891, 72.782 138.295 C 79.732 137.642, 81.285 136.481, 78.409 134.088 C 77.067 132.972, 76.485 131.163, 76.449 128 C 76.387 122.474, 73.984 99.662, 73.401 99.073 C 73.169 98.838, 71.746 99.796, 70.240 101.201 C 66.521 104.668, 63.278 106.223, 61.162 105.551 C 60.133 105.225, 57.984 106.037, 56 107.500 C 53.971 108.997, 51.874 109.778, 50.800 109.436 C 49.779 109.112, 47.730 109.768, 46.072 110.949 C 37.641 116.952, 28.645 118.645, 24.928 114.928 C 22.872 112.872, 13.927 94.770, 10.564 85.862 C 9.602 83.311, 7.056 79.507, 4.907 77.409 L 1 73.594 1 108.797" stroke="none" fill="black" fill-rule="evenodd"/>
</svg>