<svg xmlns="http://www.w3.org/2000/svg" width="192" height="144" viewBox="0 0 192 144" version="1.1">
	<path d="M 117.933 0.250 C 117.078 3.416, 117.330 7.738, 118.502 10.005 C 120.465 13.800, 120.392 14.741, 118.078 15.475 C 116.370 16.017, 116.206 16.832, 116.611 22.793 C 117.307 33.024, 117.656 34, 120.626 34 C 122.564 34, 123.063 34.393, 122.613 35.565 C 122.159 36.750, 122.476 36.984, 123.918 36.526 C 126.607 35.673, 127.898 41.350, 125.594 43.896 C 124.717 44.865, 124 46.185, 124 46.829 C 124 47.473, 123.633 48, 123.184 48 C 122.735 48, 119.247 51.148, 115.434 54.995 C 108.895 61.591, 106.914 64.817, 109.750 64.250 C 111.458 63.908, 111.363 64.349, 108.525 69.951 C 104.752 77.396, 104.436 81.670, 106.933 91.461 C 108.136 96.179, 108.973 102.120, 108.805 104.748 L 108.500 109.500 99.502 114.500 C 90.993 119.228, 90.104 119.500, 83.169 119.500 L 75.834 119.500 73.464 113.695 C 70.904 107.426, 71.286 104.758, 75.327 100.686 C 76.463 99.542, 76.890 98.212, 76.454 97.173 C 76.069 96.253, 75.247 94.150, 74.627 92.500 C 73.206 88.718, 72.065 87.895, 69.870 89.070 C 68.914 89.581, 66.784 90, 65.137 90 C 60.070 90, 56.695 94.918, 55.528 104 C 55.139 107.025, 53.736 113.306, 52.411 117.957 C 50.036 126.287, 49.418 135.690, 50.895 141 C 51.462 143.039, 52.216 143.500, 54.982 143.500 C 57.976 143.500, 58.473 143.115, 59.224 140.214 C 60.268 136.187, 62.448 137.011, 61.626 141.121 L 61.050 144 73.025 144 C 82.365 144, 85 143.705, 85 142.661 C 85 140.908, 88.248 139.490, 97.917 137.021 C 108.254 134.382, 107.947 134.323, 106.919 138.750 C 106.440 140.813, 106.037 142.838, 106.024 143.250 C 106.011 143.662, 118.150 144, 133 144 C 147.850 144, 159.997 143.662, 159.994 143.250 C 159.991 142.838, 157.066 137.834, 153.494 132.130 C 149.922 126.427, 147 121.210, 147 120.537 C 147 119.864, 146.100 116.697, 145 113.500 C 143.717 109.772, 143 105.083, 143 100.425 C 143 92.253, 143.571 90, 145.642 90 C 146.774 90, 146.842 89.573, 145.969 87.941 C 144.414 85.037, 145.584 81.062, 149.153 77.114 C 151.505 74.512, 152.409 74.043, 153.053 75.086 C 153.731 76.183, 154.015 76.125, 154.530 74.783 C 155.181 73.086, 153.662 58.111, 152.473 54.500 C 151.886 52.719, 152.018 52.749, 153.681 54.776 C 155.005 56.391, 155.858 56.742, 156.616 55.984 C 157.374 55.226, 158.057 55.364, 158.965 56.458 C 160.727 58.581, 162 58.389, 162 56 C 162 54.900, 162.450 54, 163 54 C 163.550 54, 164 54.450, 164 55 C 164 55.550, 164.477 56, 165.059 56 C 165.641 56, 165.793 55.474, 165.395 54.830 C 164.909 54.043, 165.217 53.869, 166.336 54.299 C 168.234 55.027, 168.473 53.752, 166.965 50.934 C 165.896 48.937, 167.311 48.076, 168.500 50 C 168.840 50.550, 169.497 51, 169.961 51 C 170.882 51, 169.150 44.772, 166.510 38.591 C 164.867 34.745, 164.892 34.537, 168.038 25.742 C 170.843 17.899, 171.153 16.047, 170.557 10.651 C 170.183 7.268, 169.631 3.488, 169.330 2.250 L 168.783 0 143.392 0 C 129.426 0, 117.970 0.112, 117.933 0.250" stroke="none" fill="black" fill-rule="evenodd"/>
</svg>