<svg xmlns="http://www.w3.org/2000/svg" width="192" height="144" viewBox="0 0 192 144" version="1.1">
	<path d="M 0 72 L 0 144 18.418 144 L 36.837 144 39.055 137.250 C 41.932 128.493, 43.409 125.584, 48.118 119.408 C 51.418 115.079, 51.998 113.580, 51.985 109.408 C 51.974 105.870, 51.699 104.919, 51 106 C 49.610 108.150, 49.705 96.677, 51.133 89.886 C 51.756 86.924, 52.323 75.275, 52.394 64 L 52.523 43.500 55.839 37.628 C 59.735 30.728, 59.517 27.724, 55.006 26.152 C 51.771 25.024, 50.924 23, 53.688 23 C 55.416 23, 61.981 18.975, 61.993 17.908 C 61.997 17.583, 60.261 16.796, 58.135 16.159 C 53.918 14.895, 49 11.473, 49 9.802 C 49 8.757, 52.639 9.140, 56.356 10.578 C 57.941 11.191, 57.832 10.694, 55.606 7.167 C 54.173 4.897, 53 2.356, 53 1.520 C 53 0.198, 49.543 0, 26.500 0 L 0 0 0 72 M 58.152 2.750 C 59.541 4.263, 61.763 7.075, 63.089 9 L 65.500 12.500 66.067 8.500 C 66.379 6.300, 66.972 3.487, 67.385 2.250 C 68.109 0.077, 67.922 0, 61.880 0 L 55.626 0 58.152 2.750 M 71.625 3.125 C 71.281 4.844, 71 7.309, 71 8.604 C 71 10.957, 71.003 10.956, 75.485 7.798 C 77.952 6.059, 80.284 4.951, 80.668 5.335 C 81.680 6.347, 77.868 11.126, 73.908 13.810 C 72.034 15.081, 70.387 16.433, 70.248 16.816 C 69.946 17.650, 77.133 20, 79.984 20 C 82.760 20, 82.512 21.446, 79.500 22.818 C 75.472 24.653, 76.211 28.831, 81.212 32.500 C 87.786 37.322, 89.237 40.963, 88.472 50.713 C 87.711 60.393, 88.871 81.198, 90.127 80.421 C 90.607 80.125, 91 78.199, 91 76.141 C 91 71.742, 92.418 70, 96 70 C 99.582 70, 101 71.742, 101 76.141 C 101 78.199, 101.404 80.132, 101.898 80.437 C 102.761 80.970, 103.820 62.782, 103.841 47.097 C 103.848 41.209, 104.270 39.126, 105.903 36.917 C 107.854 34.279, 107.877 33.949, 106.361 30.322 C 104.291 25.367, 104.985 16.002, 107.871 9.967 C 109.443 6.678, 109.864 6.245, 109.466 8.324 C 108.499 13.372, 108.798 23.857, 110.013 27.541 C 110.922 30.295, 111.587 30.976, 112.850 30.449 C 120.548 27.241, 127.430 27.966, 132.893 32.564 L 135.877 35.075 138.439 31.305 C 139.847 29.232, 141 27.213, 141 26.819 C 141 26.425, 139.864 24.877, 138.475 23.378 C 135.334 19.990, 135.715 18.642, 139.993 18 C 142.874 17.568, 143.483 16.956, 144.476 13.500 L 145.625 9.500 146.358 13.250 C 146.998 16.528, 147.447 17, 149.923 17 C 154.550 17, 155.444 19.201, 152.112 22.392 C 149.753 24.653, 149.158 24.854, 148.662 23.562 C 147.851 21.449, 146.005 21.578, 145.978 23.750 C 145.947 26.245, 142.229 34.124, 139.924 36.579 C 138.114 38.507, 138.054 39.232, 139.094 46.579 C 139.750 51.211, 139.961 59.275, 139.603 66 C 139.175 74.017, 139.440 80.377, 140.477 87 C 142.202 98.018, 142.435 107.613, 141 108.500 C 139.564 109.388, 139.766 115.561, 141.272 116.811 C 141.972 117.392, 145.858 118.785, 149.908 119.907 C 153.958 121.030, 158.364 122.664, 159.700 123.539 C 164.552 126.718, 169.818 133.124, 172.001 138.502 L 174.232 144 183.116 144 L 192 144 192 72 L 192 0 132.125 -0 L 72.250 -0 71.625 3.125 M 87.500 92 C 87.160 92.550, 87.359 93, 87.941 93 C 88.523 93, 89 92.550, 89 92 C 89 91.450, 88.802 91, 88.559 91 C 88.316 91, 87.840 91.450, 87.500 92 M 103 92.559 C 103 93.416, 103.457 93.835, 104.016 93.490 C 104.575 93.144, 104.774 92.443, 104.457 91.931 C 103.600 90.544, 103 90.802, 103 92.559 M 93.959 96.750 C 93.301 98.813, 91.489 101.850, 89.932 103.500 C 87.582 105.991, 86.992 107.688, 86.453 113.500 C 85.236 126.624, 82.936 131.801, 81.566 124.500 C 80.668 119.716, 79.603 120.109, 78.179 125.750 C 77.154 129.811, 77.248 131.443, 78.830 137 L 80.680 143.500 97.700 143.773 L 114.719 144.046 115.328 137.773 C 115.786 133.054, 115.485 130.194, 114.115 126.230 C 113.114 123.332, 112.061 120.727, 111.775 120.442 C 111.490 120.157, 110.684 122.078, 109.985 124.712 L 108.712 129.500 107.727 126 C 107.185 124.075, 106.542 119.125, 106.299 115 C 105.890 108.073, 105.592 107.227, 102.396 103.925 C 100.492 101.958, 98.479 98.696, 97.921 96.675 C 96.629 91.998, 95.468 92.020, 93.959 96.750 M 116.158 122 C 116.158 123.375, 116.385 123.938, 116.662 123.250 C 116.940 122.563, 116.940 121.438, 116.662 120.750 C 116.385 120.063, 116.158 120.625, 116.158 122" stroke="none" fill="black" fill-rule="evenodd"/>
</svg>