<svg xmlns="http://www.w3.org/2000/svg" width="192" height="144" viewBox="0 0 192 144" version="1.1">
	<path d="M -0 31.839 L -0 63.679 2.411 64.777 C 7.130 66.927, 11.929 67.349, 12.573 65.670 C 13.681 62.783, 10.880 53.023, 7.504 48.006 L 4.153 43.027 6.827 41.215 C 10.067 39.018, 13.596 37.394, 21.500 34.460 C 27.393 32.274, 27.505 32.160, 27.807 28.117 C 28.160 23.396, 26.721 22.826, 21.500 25.615 C 18.725 27.097, 4.903 32.989, 4.182 32.997 C 3.214 33.007, 8.713 26.577, 15.039 20.303 L 22.295 13.106 24.136 15.446 C 26.438 18.372, 34.304 22.588, 34.783 21.152 C 35 20.501, 36.414 20.747, 38.546 21.805 C 40.447 22.748, 41.761 24.059, 41.509 24.761 C 41.259 25.454, 41.329 27.395, 41.665 29.073 C 42.095 31.227, 42.588 31.813, 43.337 31.063 C 45.039 29.361, 45.858 29.829, 45.249 32.156 C 44.862 33.634, 45.049 34.088, 45.842 33.597 C 47.674 32.466, 47.197 33.759, 44.750 36.563 C 41.722 40.034, 38.488 52.053, 41 50.500 C 41.550 50.160, 42 50.359, 42 50.941 C 42 51.523, 41.570 52, 41.045 52 C 40.520 52, 39.819 53.688, 39.488 55.750 C 39.156 57.813, 38.677 60.512, 38.423 61.750 C 38.041 63.612, 38.398 64, 40.494 64 C 43.001 64, 43.012 64.036, 41.564 67.500 C 40.238 70.674, 40.255 71, 41.747 71 C 42.945 71, 42.456 71.992, 39.946 74.650 C 38.051 76.658, 37.063 77.981, 37.750 77.591 C 39.509 76.593, 39.311 78.497, 37.500 80 C 35.423 81.724, 35.625 83, 37.975 83 C 39.658 83, 39.857 83.467, 39.319 86.155 C 38.599 89.754, 38.644 89.742, 46.261 84.248 L 51.021 80.814 50.016 83.458 C 48.596 87.192, 47.971 94.864, 49.033 95.520 C 49.548 95.839, 49.518 97.137, 48.962 98.601 C 47.554 102.303, 47.746 103.456, 49.523 101.981 C 50.815 100.909, 50.943 101.004, 50.369 102.609 C 49.996 103.649, 49.445 104.942, 49.143 105.482 C 48.841 106.023, 48.534 107.294, 48.459 108.307 C 48.362 109.630, 48.841 110.013, 50.162 109.668 C 51.452 109.330, 52 109.733, 52 111.020 C 52 112.028, 52.662 112.999, 53.470 113.177 C 54.672 113.441, 54.548 114.117, 52.791 116.877 C 51.609 118.735, 50.525 121.356, 50.381 122.703 C 50.127 125.085, 50.187 125.108, 52.590 123.533 C 54.989 121.961, 55.043 121.981, 54.486 124.207 C 54.171 125.468, 53.777 127.780, 53.612 129.345 C 53.446 130.910, 52.780 132.518, 52.132 132.919 C 51.483 133.319, 50.764 134.628, 50.533 135.827 C 50.302 137.026, 49.809 138.501, 49.436 139.104 C 48.949 139.891, 49.340 139.889, 50.824 139.094 C 51.959 138.487, 53.165 137.542, 53.503 136.995 C 53.841 136.448, 54.568 136, 55.119 136 C 56.149 136, 55.718 141.029, 54.522 142.964 C 54.047 143.733, 58.619 143.970, 70.175 143.775 L 86.500 143.500 90.320 132.500 C 92.421 126.450, 96.149 114.818, 98.604 106.651 C 102.816 92.636, 106.827 82.843, 108.874 81.578 C 109.934 80.923, 108.771 86.724, 106.972 91.067 C 105.691 94.161, 106.324 97.536, 107.993 96.504 C 108.547 96.162, 109 96.632, 109 97.548 C 109 98.618, 109.537 99.008, 110.500 98.638 C 111.325 98.322, 112 98.551, 112 99.148 C 112 99.745, 113.035 100.035, 114.301 99.793 C 116.067 99.456, 116.637 99.831, 116.756 101.412 C 116.841 102.544, 117.381 103.627, 117.956 103.819 C 118.530 104.010, 119 104.859, 119 105.706 C 119 106.894, 119.312 106.986, 120.367 106.110 C 121.407 105.247, 122.033 105.335, 122.981 106.477 C 123.666 107.302, 124.626 107.731, 125.113 107.430 C 125.601 107.129, 126 107.723, 126 108.750 C 126 109.777, 126.617 111.462, 127.371 112.493 C 128.677 114.279, 128.815 114.232, 130.234 111.523 L 131.725 108.678 132.424 113.339 C 133.191 118.456, 133.629 118.857, 135.608 116.250 C 136.854 114.609, 136.940 114.624, 137 116.500 C 137.084 119.132, 139.176 121.785, 140.750 121.254 C 141.437 121.023, 142.007 121.433, 142.015 122.167 C 142.027 123.169, 142.277 123.128, 143.023 122 C 143.571 121.172, 143.757 118.036, 143.438 115 L 142.860 109.500 145.288 114.500 C 148.106 120.301, 152 124.435, 152 121.625 C 152 120.698, 150.925 117.366, 149.611 114.220 C 146.695 107.238, 142.834 95.212, 140.069 84.500 C 135.079 65.162, 128.775 43.088, 126.879 38.313 C 124.416 32.111, 120.086 28.450, 106.988 21.494 C 97.800 16.614, 86.628 7.410, 84.053 2.599 L 82.662 -0 41.331 -0 L 0 0 -0 31.839" stroke="none" fill="black" fill-rule="evenodd"/>
</svg>