<svg xmlns="http://www.w3.org/2000/svg" width="192" height="144" viewBox="0 0 192 144" version="1.1">
	<path d="M 0 72.013 L 0 144.026 35.112 143.763 L 70.223 143.500 72.165 138.294 C 73.235 135.427, 75.472 131.939, 77.146 130.531 C 81.492 126.874, 84.991 119.445, 84.996 113.865 C 84.999 110.022, 84.573 108.950, 82.500 107.592 C 81.125 106.691, 80 105.378, 80 104.673 C 80 103.969, 78.425 101.866, 76.500 100 C 74.575 98.134, 73 95.981, 73 95.214 C 73 94.448, 72.017 93.025, 70.816 92.052 L 68.632 90.283 70.816 87.507 C 74.145 83.274, 73.655 82.167, 68.453 82.167 C 65.952 82.167, 63.179 81.567, 62.291 80.833 C 59.565 78.582, 56.144 69.708, 56.746 66.449 L 57.291 63.500 55.013 65.500 L 52.734 67.500 53.477 65 C 53.886 63.625, 55.890 58.900, 57.930 54.500 C 62.140 45.424, 68.379 38.995, 76.904 34.947 C 79.707 33.616, 82 32.036, 82 31.435 C 82 29.444, 75.855 21.026, 72.205 18.018 C 70.230 16.389, 64.481 13.456, 59.430 11.498 C 54.379 9.541, 47.696 6.154, 44.579 3.970 L 38.911 0 19.456 0 L 0 0 0 72.013 M 76.076 2.750 C 77.409 4.263, 78.612 5.688, 78.750 5.917 C 78.888 6.146, 79.242 6.091, 79.537 5.796 C 80.702 4.631, 77.608 -0, 75.665 -0 C 73.746 0, 73.766 0.130, 76.076 2.750 M 98.583 10.750 C 102.558 29.995, 101.648 28.392, 109.062 29.212 C 115.768 29.955, 126.424 34.627, 134.113 40.197 C 142.198 46.054, 149.025 65.920, 155.006 101 C 157.467 115.436, 159.417 121.546, 165.722 134.589 L 170.272 144 181.136 144 L 192 144 192 72 L 192 0 144.181 0 L 96.362 0 98.583 10.750" stroke="none" fill="black" fill-rule="evenodd"/>
</svg>