<svg xmlns="http://www.w3.org/2000/svg" width="192" height="144" viewBox="0 0 192 144" version="1.1">
	<path d="M 38.651 68.682 C 38.293 69.040, 38 70.080, 38 70.992 C 38 72.869, 33.994 77, 32.174 77 C 30.791 77, 31.718 85.270, 33.164 85.837 C 34.795 86.477, 36.163 90.097, 35.233 91.314 C 34.736 91.966, 33.556 94.975, 32.613 98 C 31.245 102.386, 30.071 104.074, 26.817 106.334 C 21.151 110.270, 16.651 110.857, 12.977 108.141 C 9.917 105.878, 8.188 105.612, 3.125 106.625 C 0.161 107.218, 0 107.490, 0 111.914 L 0 116.577 13.445 122.901 C 23.806 127.774, 26.960 129.705, 27.195 131.321 C 27.381 132.600, 28.475 133.649, 30 134.009 C 32.294 134.552, 32.472 134.987, 32.160 139.300 L 31.820 144 35.879 144 C 38.960 144, 39.807 143.661, 39.396 142.590 C 38.657 140.664, 41.713 135, 43.492 135 C 44.284 135, 46.559 134.224, 48.546 133.276 C 52.917 131.192, 52.822 129.812, 47.521 118.339 C 43.657 109.976, 43.416 108.212, 45.217 101.477 C 46.193 97.828, 46.179 96.516, 45.144 94.859 C 44.023 93.064, 44.127 92.599, 45.936 91.332 C 47.745 90.065, 47.964 89.087, 47.604 83.905 C 47.258 78.942, 46.751 77.592, 44.594 75.895 C 43.167 74.773, 41.986 73.325, 41.968 72.677 C 41.922 70.949, 39.410 67.924, 38.651 68.682 M 100.293 69.107 C 99.684 69.716, 97.681 70.542, 95.843 70.942 C 93.914 71.361, 92.621 72.206, 92.785 72.940 C 92.942 73.639, 92.551 74.836, 91.917 75.600 C 91.283 76.364, 91 77.892, 91.288 78.995 C 91.969 81.599, 91.375 81.524, 87.416 78.504 C 85.542 77.074, 83.471 76.266, 82.569 76.612 C 81.609 76.980, 80.281 76.333, 79.163 74.953 L 77.331 72.690 75.665 75.068 C 73.630 77.973, 73.568 79.397, 75.411 80.926 C 76.376 81.727, 77.027 81.765, 77.470 81.049 C 79.649 77.523, 80.879 82.558, 79.028 87.426 C 77.379 91.763, 78.636 93.177, 83.489 92.449 L 87.731 91.813 87.559 99.157 C 87.433 104.546, 86.489 109.129, 84.011 116.379 C 80.898 125.484, 80.749 126.462, 82.100 128.879 C 82.907 130.320, 84.495 131.635, 85.629 131.799 C 87.305 132.043, 87.861 133.166, 88.596 137.792 C 89.260 141.976, 89.964 143.574, 91.250 143.816 C 92.743 144.098, 93 143.346, 93 138.683 L 93 133.219 96.632 132.795 C 100.054 132.395, 100.370 132.605, 102.110 136.435 C 103.125 138.671, 103.966 141.287, 103.978 142.250 C 103.992 143.329, 104.771 144, 106.012 144 C 107.814 144, 107.956 143.557, 107.375 139.750 C 107.018 137.412, 106.302 134.675, 105.783 133.667 C 105.105 132.347, 105.302 131.324, 106.487 130.015 C 108.023 128.317, 107.964 127.863, 105.612 123.220 C 104.225 120.484, 102.554 116.052, 101.899 113.373 C 101.244 110.693, 100.153 107.375, 99.476 106 C 97.788 102.576, 98.767 97.324, 101.625 94.466 C 104.325 91.766, 104.733 88.495, 102.477 87.630 C 101.408 87.219, 101.209 86.518, 101.808 85.273 C 102.278 84.298, 103.353 82.106, 104.197 80.402 C 105.497 77.779, 105.528 76.935, 104.402 74.902 C 103.670 73.581, 103.055 71.487, 103.035 70.250 C 102.997 67.792, 102.016 67.384, 100.293 69.107 M 163.063 72.264 C 162.976 74.684, 158.786 80.972, 157.250 80.988 C 155.775 81.002, 155.623 82.213, 156.927 83.550 C 157.989 84.637, 158.537 94.746, 157.657 97 C 154.962 103.903, 154.291 107.358, 155.019 110.582 C 155.572 113.036, 155.387 114.949, 154.415 116.812 C 153.643 118.290, 153.009 120.175, 153.005 121 C 153.002 121.825, 151.649 125.353, 149.999 128.840 C 148.350 132.327, 147 135.782, 147 136.517 C 147 138.462, 151.888 142, 154.576 142 C 155.844 142, 157.143 142.422, 157.461 142.938 C 157.780 143.453, 160.957 143.875, 164.520 143.875 C 169.975 143.875, 171 143.604, 171 142.160 C 171 141.216, 171.883 139.688, 172.963 138.764 C 174.536 137.417, 174.750 136.530, 174.042 134.292 C 173.556 132.756, 171.993 127.302, 170.569 122.170 L 167.980 112.841 169.990 110.286 C 171.095 108.880, 172 107.171, 172 106.488 C 172 103.432, 174.598 103.053, 178.162 105.589 C 181.269 107.799, 182.335 108.024, 186.852 107.425 C 191.815 106.767, 192 106.629, 192 103.593 C 192 100.585, 191.719 100.363, 185.750 98.671 C 175.268 95.699, 175.781 96.350, 178.630 89.643 C 181.915 81.913, 180.943 81.149, 177.522 88.772 C 175.172 94.007, 174.580 94.642, 172.432 94.232 C 169.680 93.706, 169.376 92.343, 171.371 89.473 C 172.891 87.286, 173.249 79, 171.823 79 C 170.190 79, 164.792 74.543, 163.950 72.500 C 163.243 70.781, 163.118 70.748, 163.063 72.264 M 84 86 C 84 86.550, 84.450 87, 85 87 C 85.550 87, 86 86.550, 86 86 C 86 85.450, 85.550 85, 85 85 C 84.450 85, 84 85.450, 84 86 M 28.500 110.576 C 26.544 112.150, 26.042 112.992, 27.059 112.995 C 29.213 113.002, 32.359 110.558, 31.888 109.244 C 31.663 108.617, 30.241 109.175, 28.500 110.576" stroke="none" fill="black" fill-rule="evenodd"/>
</svg>