<svg xmlns="http://www.w3.org/2000/svg" width="192" height="144" viewBox="0 0 192 144" version="1.1">
	<path d="M 166.184 15.492 C 163.810 16.849, 157.735 21.054, 152.684 24.836 C 144.216 31.177, 126.888 42.443, 126.617 41.783 C 124.784 37.336, 122.479 36.060, 121.695 39.058 C 121.190 40.989, 120.712 41.124, 116.818 40.437 C 106.851 38.679, 100.449 41.191, 98.093 47.784 C 96.902 51.116, 96.820 52.481, 97.722 53.926 C 98.966 55.919, 98.478 57, 96.333 57 C 95.515 57, 95 55.828, 95 53.968 C 95 46.809, 88.665 39, 82.858 39 C 78.372 39, 76.306 37.443, 75.567 33.506 C 75.201 31.554, 73.504 28.365, 71.795 26.420 C 62.648 16.001, 48.793 16.628, 40.905 27.819 C 33.058 38.951, 34.972 51.383, 45.481 57.542 C 49.298 59.778, 50.876 60.098, 56.904 59.851 C 60.752 59.694, 64.222 59.889, 64.616 60.283 C 65.011 60.677, 64.432 61, 63.331 61 C 60.603 61, 51.783 67.993, 52.420 69.651 C 52.698 70.376, 52.163 72.296, 51.231 73.920 C 49.382 77.142, 50.248 79.410, 52.272 76.643 C 53.351 75.168, 53.781 75.120, 55.388 76.295 C 56.966 77.448, 57.067 78.006, 56.047 79.912 C 55.059 81.758, 55.127 82.483, 56.420 83.912 C 57.468 85.070, 58 87.563, 58 91.318 C 58 94.500, 58.850 99.215, 59.941 102.088 C 61.357 105.814, 61.724 108.535, 61.297 112.144 C 60.910 115.406, 61.169 117.948, 62.057 119.607 C 63.120 121.593, 63.150 122.529, 62.202 124.048 C 60.645 126.542, 60.664 131.489, 62.241 134.014 C 63.228 135.595, 63.228 136.405, 62.241 137.986 C 60.765 140.348, 60.600 144, 61.969 144 C 62.501 144, 62.678 143.325, 62.362 142.500 C 61.966 141.470, 62.423 141, 63.820 141 C 64.938 141, 66.059 141.787, 66.311 142.750 C 66.598 143.851, 66.811 143.502, 66.884 141.809 C 66.948 140.329, 66.550 138.840, 66 138.500 C 64.703 137.699, 64.703 133.301, 66 132.500 C 67.462 131.596, 67.221 126.654, 65.558 123.450 C 64.394 121.205, 64.356 120.329, 65.364 118.891 C 66.715 116.961, 66.345 110, 64.891 110 C 64.140 110, 63.515 105.077, 64.250 104.960 C 64.388 104.938, 67.779 104.345, 71.787 103.642 C 78.339 102.492, 78.995 102.522, 78.287 103.932 C 77.854 104.794, 77.485 113.600, 77.466 123.500 C 77.447 133.400, 77.083 142.063, 76.657 142.750 C 76.048 143.732, 79.694 143.997, 93.691 143.985 C 103.486 143.976, 111.024 143.639, 110.443 143.235 C 106.355 140.392, 105.435 126.433, 108.830 118.750 C 109.984 116.137, 111.153 114, 111.426 114 C 112.033 114, 113.727 120.173, 115.646 129.380 C 116.985 135.802, 116.953 136.517, 115.166 140.130 L 113.251 144 122.973 144 L 132.696 144 138.348 138.074 C 142.949 133.250, 144 131.516, 144 128.746 C 144 124.733, 140.082 118.419, 133.750 112.228 L 129.380 107.957 130.254 100.228 C 131.197 91.881, 133.204 82.216, 134.945 77.641 C 135.864 75.228, 136.270 74.980, 137.558 76.048 C 140.833 78.766, 150.040 65.885, 151.540 56.486 C 152.062 53.213, 151.806 52.134, 150.151 50.636 C 147.662 48.384, 142.080 48.246, 138.858 50.358 C 137.548 51.216, 135.923 51.571, 135.239 51.148 C 134.391 50.623, 136.098 48.566, 140.638 44.642 C 146.268 39.776, 147.701 38.995, 150.053 39.512 C 151.995 39.938, 154.418 39.315, 158.126 37.436 L 163.425 34.751 160.463 32.380 C 158.303 30.652, 157.958 30.009, 159.191 30.005 C 161.474 29.998, 162.586 27.980, 160.885 26.929 C 159.815 26.268, 160.286 25.249, 163.029 22.291 C 168.525 16.361, 171.387 12.999, 170.924 13.012 C 170.691 13.019, 168.558 14.135, 166.184 15.492 M 87.102 67.651 C 83.373 70.229, 75.516 70.882, 71.849 68.919 C 70.738 68.324, 69.589 68.077, 69.297 68.370 C 68.034 69.633, 67.804 78.058, 68.993 79.492 C 69.926 80.616, 69.958 81.345, 69.122 82.354 C 67.897 83.829, 68.703 93, 70.057 93 C 72.188 93, 88.618 88.725, 89.403 87.966 C 89.900 87.486, 91.515 83.986, 92.993 80.188 C 95.566 73.574, 95.602 73.233, 93.840 72.132 C 92.828 71.500, 92 69.888, 92 68.551 C 92 65.137, 91.004 64.954, 87.102 67.651 M 62 114.500 C 62 116.056, 62.567 117, 63.500 117 C 64.433 117, 65 116.056, 65 114.500 C 65 112.944, 64.433 112, 63.500 112 C 62.567 112, 62 112.944, 62 114.500 M 63.250 126.718 C 61.553 127.327, 61.663 130.657, 63.402 131.324 C 65.147 131.994, 66 131.195, 66 128.892 C 66 126.843, 65.033 126.079, 63.250 126.718" stroke="none" fill="black" fill-rule="evenodd"/>
</svg>