<svg xmlns="http://www.w3.org/2000/svg" width="192" height="144" viewBox="0 0 192 144" version="1.1">
	<path d="M 0 57 L 0 114 4.433 114 C 9.584 114, 10.354 112.754, 9.882 105.187 C 9.546 99.802, 10.578 96, 12.376 96 C 15.009 96, 17.312 93.268, 17.226 90.247 C 17.163 88.031, 17.667 87.059, 19.070 86.692 C 20.351 86.357, 21 85.315, 21 83.594 C 21 82.167, 21.502 81, 22.117 81 C 22.748 81, 23.002 81.886, 22.700 83.039 C 22.369 84.306, 22.902 85.762, 24.110 86.888 C 25.226 87.928, 25.796 89.367, 25.450 90.271 C 24.573 92.554, 26.745 96, 29.060 96 C 31.812 96, 32.797 99.336, 32.234 106.750 C 31.790 112.601, 31.895 113, 33.880 113 C 35.651 113, 36 112.402, 36 109.368 C 36 105.955, 39.285 99, 40.896 99 C 42.135 99, 45 105.902, 45 108.884 L 45 111.701 58.247 112.400 C 70.452 113.045, 71.696 113.292, 74.052 115.550 C 75.459 116.897, 76.922 118, 77.305 118 C 77.687 118, 78.003 114.513, 78.007 110.250 C 78.012 104.377, 78.464 101.816, 79.875 99.676 L 81.738 96.851 83.869 99.560 C 85.889 102.129, 86 103.356, 86 123.135 L 86 144 138.840 144 L 191.681 144 192.338 120.750 C 192.700 107.963, 192.996 75.563, 192.998 48.750 L 193 0 96.500 0 L 0 0 0 57 M 0.468 57.500 C 0.468 88.850, 0.595 101.530, 0.750 85.679 C 0.904 69.827, 0.904 44.177, 0.749 28.679 C 0.594 13.180, 0.468 26.150, 0.468 57.500 M 117.339 39.442 C 115.777 41.399, 113.911 43, 113.191 43 C 112.471 43, 112.140 43.418, 112.456 43.928 C 112.771 44.438, 112.123 45.144, 111.015 45.495 C 107.993 46.454, 108.590 48, 111.981 48 C 115.410 48, 115.915 49.323, 115.731 57.822 C 115.656 61.254, 116.083 63.433, 116.933 63.958 C 120.630 66.243, 115.075 76, 110.077 76 C 107.638 76, 107.624 76.055, 109.250 79.155 C 109.938 80.466, 111.205 81.400, 112.067 81.231 C 113.660 80.919, 119.044 84.544, 118.862 85.808 C 118.245 90.117, 121.666 90.067, 122.785 85.750 C 123.960 81.217, 127.167 81.272, 128.102 85.843 C 128.478 87.681, 129.244 89.644, 129.806 90.206 C 131.210 91.610, 133 90.304, 133 87.874 C 133 86.256, 133.438 85.998, 135.250 86.545 C 136.488 86.919, 137.928 87.624, 138.450 88.112 C 139.707 89.287, 141.275 89.254, 140.543 88.069 C 140.226 87.557, 140.394 86.875, 140.915 86.553 C 141.436 86.231, 142.144 86.425, 142.490 86.984 C 142.835 87.543, 143.473 88, 143.906 88 C 145.272 88, 148.994 84.327, 148.315 83.648 C 147.958 83.292, 148.754 82.993, 150.083 82.985 C 151.997 82.973, 152.188 82.772, 151 82.021 C 149.256 80.919, 148.856 75.849, 150.427 74.750 C 151.149 74.246, 151.009 73.678, 150 73.015 C 149.175 72.474, 148.898 72.024, 149.385 72.015 C 149.872 72.007, 148.972 71.003, 147.385 69.784 C 145.798 68.566, 144.200 67.138, 143.834 66.612 C 143.468 66.086, 140.842 65.708, 137.998 65.773 C 133.500 65.875, 132.921 65.670, 133.543 64.195 C 134.716 61.411, 135.280 58, 134.567 58 C 134.200 58, 132.573 58.687, 130.950 59.526 C 128.055 61.023, 128 61.004, 128 58.494 C 128 57.088, 128.675 55.678, 129.500 55.362 C 130.325 55.045, 131 54.034, 131 53.115 C 131 52.196, 131.900 50.674, 133 49.732 C 135.933 47.221, 135.477 46.256, 130.997 45.499 C 126.954 44.816, 126.662 44.424, 125.780 38.500 C 125.584 37.178, 124.584 36.396, 122.830 36.192 C 120.793 35.956, 119.520 36.709, 117.339 39.442" stroke="none" fill="black" fill-rule="evenodd"/>
</svg>