<svg xmlns="http://www.w3.org/2000/svg" width="192" height="144" viewBox="0 0 192 144" version="1.1">
	<path d="M 95.002 44.049 C 87.534 46.734, 80.753 51.541, 77.530 56.435 C 73.881 61.976, 74.395 67.503, 79.267 75.089 C 82.785 80.568, 82.818 80.712, 80.917 82.339 C 79.850 83.253, 78.532 84, 77.989 84 C 76.880 84, 76.647 86.313, 77.653 87.320 C 78.013 87.679, 79.870 87.007, 81.781 85.827 L 85.254 83.680 88.735 87.870 C 96.754 97.524, 106.398 97.563, 117.277 87.988 C 129.740 77.017, 132.032 63.111, 122.949 53.573 C 120.816 51.333, 117.525 47.813, 115.635 45.750 C 112.404 42.223, 111.852 42.002, 106.350 42.036 C 103.132 42.056, 98.026 42.962, 95.002 44.049" stroke="none" fill="black" fill-rule="evenodd"/>
</svg>