<svg xmlns="http://www.w3.org/2000/svg" width="192" height="144" viewBox="0 0 192 144" version="1.1">
	<path d="M 0 72 L 0 144 30.921 144 L 61.841 144 62.388 141.250 C 62.688 139.738, 63.436 135.596, 64.048 132.047 C 64.661 128.498, 65.891 123.548, 66.782 121.047 C 68.502 116.220, 69.026 101.771, 67.669 96.605 C 66.753 93.120, 70.632 84.685, 75.134 80.372 C 77.952 77.671, 78 77.441, 78 66.504 C 78 58.273, 77.618 54.878, 76.532 53.441 C 75.724 52.374, 75.049 49.813, 75.032 47.750 C 75.001 44.092, 74.908 44, 71.250 43.985 C 66.988 43.967, 63.844 42.443, 65.610 41.250 C 66.221 40.837, 67.429 39.117, 68.295 37.427 C 69.160 35.737, 70.581 33.762, 71.453 33.039 C 73.312 31.496, 72.758 26.985, 69.885 20.250 C 67.577 14.842, 68.905 14.764, 75.048 19.943 L 79.725 23.887 86.112 22.964 C 89.626 22.456, 96.931 22.031, 102.347 22.020 L 112.194 22 116.690 17 C 121.208 11.975, 124.613 10.378, 123.619 13.750 C 122.752 16.696, 120.854 28.190, 121.187 28.486 C 121.359 28.639, 123.525 29.016, 126 29.322 C 128.475 29.629, 132.291 30.511, 134.479 31.283 L 138.459 32.687 133.235 34.422 C 130.362 35.376, 127.653 36.798, 127.214 37.582 C 126.776 38.365, 124.411 39.607, 121.959 40.342 C 119.017 41.223, 117.623 42.157, 117.861 43.089 C 118.059 43.865, 118.643 47.875, 119.159 52 C 121.289 69.039, 123.054 78.437, 124.494 80.409 C 130.358 88.439, 133.084 95.349, 133.114 102.264 C 133.119 103.234, 134.275 106.609, 135.683 109.764 C 138.792 116.726, 143 128.815, 143 130.782 C 143 131.623, 142.401 131.984, 141.548 131.657 C 140.046 131.080, 137 135.881, 137 138.825 C 137 139.660, 136.249 141.172, 135.331 142.187 C 133.712 143.975, 134.546 144.023, 163.081 143.765 L 192.500 143.500 192.757 71.750 L 193.013 0 96.507 0 L 0 0 0 72 M 0.474 72.500 C 0.474 112.100, 0.598 128.154, 0.750 108.176 C 0.901 88.198, 0.901 55.798, 0.750 36.176 C 0.598 16.554, 0.474 32.900, 0.474 72.500 M 77.574 124.297 C 77.126 125.835, 77.039 127.372, 77.380 127.713 C 78.499 128.833, 79.158 127.235, 78.770 124.341 L 78.389 121.500 77.574 124.297 M 72 143 C 72 143.550, 72.477 144, 73.059 144 C 73.641 144, 73.840 143.550, 73.500 143 C 73.160 142.450, 72.684 142, 72.441 142 C 72.198 142, 72 142.450, 72 143" stroke="none" fill="black" fill-rule="evenodd"/>
</svg>