<svg xmlns="http://www.w3.org/2000/svg" width="192" height="144" viewBox="0 0 192 144" version="1.1">
	<path d="M 56.336 28.717 C 53.359 29.090, 53.130 29.418, 52.466 34.250 C 51.839 38.803, 52.009 39.589, 53.956 41.165 C 55.164 42.144, 55.899 43.354, 55.590 43.855 C 55.280 44.355, 55.915 45.893, 56.999 47.272 C 58.754 49.503, 58.803 49.919, 57.440 51.050 C 56.598 51.749, 56.158 52.969, 56.462 53.761 C 56.770 54.563, 56.014 55.997, 54.757 56.998 C 53.516 57.987, 51.636 60.427, 50.580 62.422 C 48.665 66.037, 48.665 66.056, 50.830 68.983 C 53.489 72.580, 53.512 74.275, 50.978 79.859 C 49.890 82.257, 49 84.963, 49 85.874 C 49 86.785, 48.061 89.282, 46.912 91.425 C 45.384 94.277, 45.070 95.879, 45.742 97.410 C 46.343 98.779, 46.035 103.963, 44.848 112.443 C 43.852 119.561, 42.674 129.574, 42.230 134.693 L 41.424 144 61.291 144 L 81.159 144 80.563 141.250 C 80.235 139.738, 79.095 132.650, 78.031 125.500 C 75.521 108.649, 70.748 90.812, 67.797 87.255 C 67.063 86.371, 67.300 85.210, 68.614 83.255 C 70.080 81.071, 70.505 78.325, 70.663 70 C 70.773 64.225, 70.379 57.947, 69.787 56.048 C 69.034 53.631, 69.028 52.491, 69.768 52.244 C 71.914 51.529, 75.937 47.099, 76.508 44.824 C 77.293 41.695, 74.547 35.262, 70.713 31.250 C 67.504 27.891, 65.597 27.555, 56.336 28.717 M 123.828 59.604 C 119.906 61.257, 118.282 63.682, 119.967 65.367 C 122.027 67.427, 120.911 70.544, 116.931 73.849 L 112.898 77.198 108.970 74.599 C 105.129 72.057, 104.953 72.035, 101.023 73.607 C 98.813 74.492, 96.328 74.956, 95.502 74.639 C 94.676 74.322, 94 74.481, 94 74.991 C 94 75.502, 95.819 76.465, 98.041 77.131 C 100.514 77.871, 101.899 78.820, 101.610 79.574 C 101.301 80.379, 103.976 81.713, 109.318 83.419 C 119.386 86.634, 128.474 91.902, 128.565 94.577 C 128.601 95.634, 129.389 98.173, 130.315 100.218 C 131.242 102.263, 132 104.548, 132 105.296 C 132 106.044, 129.952 113.490, 127.450 121.842 C 124.947 130.195, 123.173 137.471, 123.507 138.012 C 123.841 138.552, 125.925 139.284, 128.137 139.638 C 130.438 140.006, 132.655 141.076, 133.320 142.140 C 134.207 143.562, 135.694 144, 139.624 144 C 143.926 144, 144.852 143.673, 145.290 142 C 145.577 140.900, 146.642 139.993, 147.656 139.985 C 151.673 139.951, 152.060 138.833, 150.618 131.449 C 149.872 127.627, 148.701 120.675, 148.017 116 C 146.778 107.531, 144.395 94.945, 143.453 91.896 C 142.822 89.850, 152.321 85.431, 160.659 83.891 C 163.872 83.297, 167.975 82.070, 169.777 81.164 C 173.437 79.323, 173.724 76.563, 170.272 76.388 C 169.061 76.327, 167.042 75.613, 165.785 74.803 C 163.651 73.426, 162.843 73.682, 153.578 78.660 C 148.122 81.591, 143.565 83.880, 143.453 83.745 C 143.340 83.610, 142.962 82.567, 142.613 81.427 C 142.120 79.818, 142.877 78.630, 145.989 76.129 C 153.185 70.347, 150.041 64.627, 139.619 64.542 C 134.749 64.502, 134.499 64.366, 134.007 61.500 C 133.580 59.018, 132.974 58.462, 130.496 58.278 C 128.848 58.155, 125.848 58.752, 123.828 59.604" stroke="none" fill="black" fill-rule="evenodd"/>
</svg>