<svg xmlns="http://www.w3.org/2000/svg" width="192" height="144" viewBox="0 0 192 144" version="1.1">
	<path d="M 98.217 76.579 C 92.227 79.564, 84.933 86.577, 82.337 91.845 C 79.673 97.253, 79.935 104.707, 82.936 108.916 C 84.276 110.794, 86.301 114.169, 87.436 116.416 C 91.095 123.656, 100.056 126.372, 111.061 123.577 C 123.480 120.423, 131.020 113.618, 130.979 105.602 C 130.967 103.346, 129.885 98.461, 128.574 94.746 C 126.392 88.564, 126.331 87.911, 127.845 87.027 C 129.206 86.232, 129.024 86.055, 126.817 86.030 C 124.864 86.008, 123.116 84.758, 120.394 81.436 C 113.797 73.385, 107.427 71.990, 98.217 76.579" stroke="none" fill="black" fill-rule="evenodd"/>
</svg>