<svg xmlns="http://www.w3.org/2000/svg" width="192" height="144" viewBox="0 0 192 144" version="1.1">
	<path d="M -0 72.005 L -0 144.010 96.250 143.755 L 192.500 143.500 192.757 71.750 L 193.013 0 96.507 0 L 0 0 -0 72.005 M 0.474 72.500 C 0.474 112.100, 0.598 128.154, 0.750 108.176 C 0.901 88.198, 0.901 55.798, 0.750 36.176 C 0.598 16.554, 0.474 32.900, 0.474 72.500 M 126.357 23.992 C 125.178 24.467, 123.584 25.756, 122.814 26.855 C 120.754 29.797, 116.253 31.653, 114.773 30.173 C 113.013 28.413, 110.835 28.761, 111.162 30.750 C 111.321 31.712, 111.091 33.072, 110.653 33.771 C 110.104 34.646, 110.959 35.503, 113.396 36.521 C 115.343 37.334, 117.550 38, 118.301 38 C 120.500 38, 120.967 39.075, 119.691 41.203 C 118.680 42.890, 118.840 43.422, 120.750 44.717 C 122.314 45.778, 123 47.242, 123 49.515 C 123 51.529, 123.588 53.012, 124.530 53.373 C 125.868 53.886, 125.817 54.436, 124.128 57.730 C 123.065 59.804, 121.068 62.551, 119.692 63.836 L 117.188 66.172 100.040 64.974 C 90.608 64.315, 82.626 64.041, 82.303 64.364 C 81.202 65.464, 84.236 68, 86.654 68 C 87.979 68, 89.321 68.672, 89.636 69.493 C 90.022 70.501, 90.983 70.791, 92.591 70.388 C 93.901 70.059, 97.946 70.308, 101.579 70.940 C 106.391 71.778, 108.546 71.792, 109.512 70.990 C 111.545 69.303, 121.499 70.141, 121.503 72 C 121.504 73.184, 123.006 73.520, 128.626 73.594 C 137.745 73.715, 139 74.232, 139 77.862 C 139 81.016, 141.063 82.537, 142.878 80.722 C 143.495 80.105, 144 77.665, 144 75.300 C 144 70.098, 145.186 69.851, 153.129 73.399 C 156.083 74.718, 162.317 76.333, 166.981 76.987 C 171.646 77.642, 176.298 78.624, 177.319 79.171 C 180.157 80.689, 183.802 81.129, 184.479 80.035 C 184.812 79.495, 186.641 78.315, 188.542 77.413 C 191.883 75.827, 192 75.582, 192 70.130 C 192 64.823, 191.822 64.409, 189 63.160 C 187.350 62.430, 186 61.245, 186 60.527 C 186 58.455, 179.505 57.787, 171.359 59.021 C 164.742 60.024, 163.420 59.950, 160.177 58.393 C 156.548 56.650, 156.533 56.617, 159 55.913 C 160.718 55.422, 159.546 55.168, 155.250 55.100 L 149 55 149 52 C 149 49.778, 148.533 49, 147.200 49 C 146.210 49, 144.935 48.535, 144.367 47.967 C 143.003 46.603, 140.207 47.736, 139.757 49.835 C 139.495 51.055, 138.950 50.655, 137.718 48.335 L 136.036 45.170 140.018 44.497 C 142.208 44.127, 144 43.486, 144 43.072 C 144 42.659, 145.803 41.725, 148.007 40.998 C 154.894 38.725, 152.034 34.942, 142.397 33.579 C 134.921 32.521, 134 32.080, 134 29.555 C 134 27.398, 134.308 27.280, 138.650 27.770 C 141.998 28.147, 143.101 27.973, 142.591 27.147 C 142.201 26.516, 141.285 26, 140.555 26 C 139.826 26, 137.940 25.328, 136.364 24.506 C 133.199 22.855, 129.628 22.672, 126.357 23.992 M 126.684 60.079 C 123.691 64.652, 123.156 66.945, 125.547 64.961 C 128.405 62.589, 130.865 58.400, 130.114 57.184 C 129.620 56.385, 128.464 57.361, 126.684 60.079 M 148.500 59 C 148.840 59.550, 150.243 60, 151.618 60 C 153.030 60, 153.849 59.565, 153.500 59 C 153.160 58.450, 151.757 58, 150.382 58 C 148.970 58, 148.151 58.435, 148.500 59" stroke="none" fill="black" fill-rule="evenodd"/>
</svg>