<svg xmlns="http://www.w3.org/2000/svg" width="192" height="144" viewBox="0 0 192 144" version="1.1">
	<path d="M 0 72 L 0 144 26.893 144 C 50.926 144, 53.853 143.825, 54.417 142.355 C 54.764 141.451, 54.359 139.949, 53.517 139.018 C 51.796 137.117, 52.293 132.472, 54.734 127.624 C 55.530 126.041, 56.379 123.161, 56.619 121.222 C 56.860 119.283, 57.906 115.852, 58.944 113.598 L 60.831 109.500 60.916 126.750 L 61 144 75.969 144 C 89.005 144, 91.435 143.741, 94.785 141.995 C 98.400 140.111, 103 135.177, 103 133.184 C 103 132.691, 101.398 130.189, 99.439 127.624 C 96.861 124.248, 96.061 122.382, 96.543 120.865 C 97.893 116.610, 104.249 104, 105.043 104 C 106.597 104, 110.188 110.069, 109.576 111.662 C 108.677 114.005, 110.887 116.338, 112.633 114.890 C 116.455 111.718, 111.867 100.187, 104.569 94.620 C 102.742 93.227, 100.292 90.253, 99.124 88.013 C 96.594 83.160, 96.574 83, 98.500 83 C 101.047 83, 100.166 80.072, 96.477 76.273 C 94.539 74.278, 93.319 72.281, 93.766 71.834 C 94.459 71.141, 105.358 69.729, 119.279 68.528 C 125.301 68.009, 128 67.072, 128 65.500 C 128 64.696, 129.125 63.756, 130.500 63.411 C 133.705 62.606, 133.744 61, 130.559 61 C 129.216 61, 127.910 60.663, 127.655 60.250 C 127.400 59.837, 120.286 59.893, 111.846 60.374 C 88.307 61.715, 87.578 61.704, 87.272 60 C 87.124 59.175, 87.407 57.871, 87.902 57.102 C 88.666 55.914, 89.409 55.946, 92.833 57.317 C 96.584 58.817, 97.002 58.810, 98.820 57.215 C 99.895 56.272, 101.275 53.970, 101.887 52.101 C 105.010 42.561, 101.841 38.019, 93.330 39.834 C 87.261 41.128, 85.361 40.096, 84.507 35.042 C 84.137 32.851, 82.917 29.893, 81.796 28.468 L 79.759 25.878 77.561 27.943 C 76.352 29.078, 74.269 29.928, 72.931 29.831 C 71.594 29.733, 69.551 29.967, 68.391 30.349 C 67.023 30.801, 65.839 30.511, 65.019 29.523 C 64.324 28.685, 63.135 28, 62.378 28 C 61.273 28, 61 25.225, 61 14 L 61 0 30.500 0 L 0 0 0 72 M 59.118 34 C 57.920 37.999, 56.711 38.959, 55.446 36.913 C 54.176 34.858, 52.722 37.612, 53.907 39.827 C 55.379 42.577, 55.291 46.735, 53.750 47.254 C 52.795 47.575, 52.851 48.099, 53.985 49.473 C 54.802 50.462, 55.477 51.964, 55.485 52.811 C 55.493 53.658, 56.737 54.683, 58.250 55.089 L 61 55.827 61 42.914 C 61 35.811, 60.846 30, 60.658 30 C 60.470 30, 59.777 31.800, 59.118 34 M 90.174 42.716 C 88.462 43.042, 88.028 43.600, 88.532 44.830 C 88.909 45.748, 89.645 47.985, 90.169 49.799 C 91.188 53.330, 95.306 56.094, 97.009 54.391 C 98.336 53.064, 100.750 44.750, 100.247 43.240 C 99.844 42.031, 95.071 41.782, 90.174 42.716 M 61 81.764 L 61 106.464 63.575 102.675 C 69.544 93.890, 70.391 88.077, 66.553 82.229 C 63.668 77.832, 62.372 69.696, 63.918 65.681 C 65.182 62.396, 64.432 58.380, 62.410 57.604 C 61.220 57.147, 61 60.921, 61 81.764 M 96.015 87.191 C 96.007 88.121, 96.450 89.160, 97 89.500 C 98.266 90.282, 98.266 88.958, 97 87 C 96.165 85.707, 96.029 85.734, 96.015 87.191 M 91.218 98.805 C 90.527 100.788, 90.611 102.472, 91.505 104.555 L 92.770 107.500 94.385 103.782 C 96.414 99.110, 96.422 97.376, 94.418 96.607 C 92.209 95.759, 92.302 95.696, 91.218 98.805 M 95.436 104.888 C 93.974 109.062, 93.630 111.465, 94.255 113.138 L 95.137 115.500 97.319 112.566 C 98.518 110.952, 100.065 108.065, 100.755 106.150 C 101.836 103.151, 101.780 102.414, 100.350 100.834 C 99.437 99.825, 98.422 99, 98.095 99 C 97.767 99, 96.571 101.650, 95.436 104.888" stroke="none" fill="black" fill-rule="evenodd"/>
</svg>