<svg xmlns="http://www.w3.org/2000/svg" width="192" height="144" viewBox="0 0 192 144" version="1.1">
	<path d="M 63.938 4.750 C 63.791 15.982, 60.444 30.557, 57.439 33.051 C 56.648 33.707, 56 34.830, 56 35.545 C 56 36.259, 52.962 39.943, 49.250 43.729 C 41.716 51.414, 31.619 56.993, 22 58.787 C 16.441 59.823, 2.840 59.637, 0.999 58.499 C 0.340 58.092, -0 72.528, -0 100.941 L 0 144 53.858 144 L 107.715 144 108.319 138.250 C 108.652 135.088, 110.704 127.100, 112.880 120.500 C 117.449 106.642, 121 90.650, 121 83.930 C 121 80.784, 120.350 78.444, 119 76.727 C 116.234 73.211, 116.423 71.999, 121.120 63.120 L 125.240 55.331 122.620 52.711 C 121.179 51.270, 120 49.395, 120 48.545 C 120 47.695, 119.056 46.056, 117.902 44.902 C 116.339 43.339, 115.978 42.129, 116.485 40.152 C 117.351 36.778, 117.345 34.209, 116.466 30.750 C 115.869 28.402, 116.074 28, 117.862 28 C 120.994 28, 133.121 32.089, 136.136 34.162 C 138.937 36.087, 142 42.479, 142 46.398 C 142 47.695, 142.675 50.371, 143.500 52.346 C 144.325 54.320, 145 57.919, 145 60.342 C 145 62.766, 145.675 66.662, 146.500 69 C 147.325 71.338, 148 75.846, 148 79.017 C 148 82.624, 148.740 86.413, 149.978 89.141 C 152.679 95.094, 152.701 108, 150.010 108 C 149.583 108, 148.956 106.988, 148.617 105.750 C 148.138 104.002, 147.802 103.807, 147.112 104.878 C 146.616 105.647, 145.685 105.923, 145.005 105.503 C 143.249 104.418, 144.571 109.782, 148.194 118.449 C 149.815 122.327, 152.797 129.659, 154.821 134.743 L 158.500 143.985 175.500 143.743 L 192.500 143.500 192.825 129 C 193.003 121.025, 192.837 88.737, 192.455 57.250 L 191.761 0 127.880 0 L 64 0 63.938 4.750 M 0.459 101 C 0.459 124.925, 0.589 134.713, 0.749 122.750 C 0.908 110.788, 0.908 91.213, 0.749 79.250 C 0.589 67.288, 0.459 77.075, 0.459 101" stroke="none" fill="black" fill-rule="evenodd"/>
</svg>