<svg xmlns="http://www.w3.org/2000/svg" width="192" height="144" viewBox="0 0 192 144" version="1.1">
	<path d="M 54.786 66.500 C 53.941 70.350, 52.812 74.850, 52.278 76.500 C 51.566 78.698, 51.763 81.389, 53.015 86.568 C 56.356 100.381, 56.541 100.704, 61.555 101.456 C 67.768 102.388, 69.674 101.553, 70.420 97.573 C 71.523 91.697, 71.200 78.539, 69.878 75.466 C 69.177 73.835, 65.840 69.575, 62.463 66 L 56.323 59.500 54.786 66.500 M 0 121.500 L 0 144 15 144 L 30 144 29.985 141.250 C 29.964 137.449, 29.110 136.477, 24.500 135.002 C 18.253 133.004, 16 131.771, 16 130.350 C 16 128.729, 11.855 127.603, 8.353 128.273 C 5.743 128.772, 5.743 128.771, 6.255 123.122 C 6.537 120.015, 7.913 115.098, 9.312 112.197 L 11.857 106.922 9.743 102.961 C 7.847 99.408, 7.236 99, 3.814 99 L 0 99 0 121.500 M 72.989 117.514 C 72.013 118.690, 71.978 120.306, 72.835 124.764 C 73.441 127.919, 74.212 133.537, 74.548 137.250 L 75.159 144 81.080 144 C 86.372 144, 87 143.784, 87 141.960 C 87 139.377, 83.282 132, 81.980 132 C 81.441 132, 81 129.107, 81 125.571 C 81 121.061, 80.531 118.674, 79.429 117.571 C 77.440 115.582, 74.613 115.557, 72.989 117.514 M 61.500 143 C 60.031 143.631, 60.894 143.878, 64.750 143.930 C 67.638 143.968, 70 143.550, 70 143 C 70 141.797, 64.300 141.797, 61.500 143" stroke="none" fill="black" fill-rule="evenodd"/>
</svg>