<svg xmlns="http://www.w3.org/2000/svg" width="192" height="144" viewBox="0 0 192 144" version="1.1">
	<path d="M -0 72.005 L -0 144.010 96.250 143.755 L 192.500 143.500 192.757 71.750 L 193.013 0 96.507 0 L 0 0 -0 72.005 M 0.474 72.500 C 0.474 112.100, 0.598 128.154, 0.750 108.176 C 0.901 88.198, 0.901 55.798, 0.750 36.176 C 0.598 16.554, 0.474 32.900, 0.474 72.500 M 114.156 41.448 C 111.870 43.887, 110 46.153, 110 46.483 C 110 46.814, 109.550 47.628, 109 48.292 C 108.449 48.956, 107.164 50.594, 106.144 51.931 C 104.426 54.181, 104.056 54.266, 101.161 53.067 C 97.491 51.547, 92.341 52.275, 86.811 55.096 C 81.756 57.675, 80.389 60.109, 79.002 69 C 77.578 78.125, 78.492 81.178, 83.541 84.157 C 86.109 85.672, 86.924 86.719, 86.443 87.882 C 86.074 88.772, 85.526 90.400, 85.224 91.500 C 84.922 92.600, 84.300 93.751, 83.841 94.057 C 83.381 94.364, 82.848 95.968, 82.655 97.623 C 82.463 99.278, 81.847 101.450, 81.288 102.450 C 79.993 104.764, 83.657 110.843, 86.250 110.683 C 87.644 110.596, 88 109.650, 88 106.034 C 88 101.529, 91.256 88.342, 92.731 86.871 C 93.154 86.449, 95.156 85.413, 97.181 84.568 L 100.862 83.031 100.411 85.515 C 99.936 88.139, 101.303 88.726, 103.966 87.042 C 104.953 86.418, 105.337 84.790, 105.141 82.068 C 104.974 79.754, 105.721 75.689, 106.885 72.578 C 108.372 68.605, 108.767 65.827, 108.348 62.295 C 107.781 57.506, 107.834 57.394, 113.323 51.727 C 116.374 48.577, 119.349 46, 119.935 46 C 120.521 46, 121 45.073, 121 43.941 C 121 42.698, 121.436 42.151, 122.100 42.562 C 123.629 43.507, 121.562 39.711, 119.711 38.175 C 118.592 37.247, 117.479 37.903, 114.156 41.448" stroke="none" fill="black" fill-rule="evenodd"/>
</svg>