<svg xmlns="http://www.w3.org/2000/svg" width="192" height="144" viewBox="0 0 192 144" version="1.1">
	<path d="M 0 72 L 0 144 37.500 144 L 75 144 75 141.520 C 75 140.156, 75.637 137.344, 76.415 135.270 C 78.309 130.221, 79.376 125.797, 79.096 124.150 C 78.970 123.407, 79.346 123.096, 79.933 123.459 C 80.611 123.878, 80.974 122.912, 80.930 120.809 C 80.873 118.142, 80.707 117.888, 80.076 119.500 C 78.823 122.698, 77.829 109.176, 78.973 104.500 C 80.462 98.417, 80.328 97.880, 77.500 98.589 C 75.231 99.159, 75 98.927, 75 96.077 C 75 94.175, 75.606 92.705, 76.537 92.347 C 77.382 92.023, 78.689 90.575, 79.441 89.129 C 80.193 87.683, 82.189 85.150, 83.876 83.500 C 85.564 81.850, 86.957 79.975, 86.972 79.333 C 86.987 78.692, 87.490 78.003, 88.089 77.804 C 88.688 77.604, 87.113 75.376, 84.589 72.852 C 79.531 67.794, 79.005 65.535, 82 61.727 C 84.408 58.665, 84.487 58, 82.441 58 C 81.584 58, 81.160 57.550, 81.500 57 C 81.840 56.450, 82.924 56, 83.910 56 C 85.509 56, 85.612 55.438, 84.875 50.775 C 83.930 44.793, 84.975 42.765, 87.726 45.247 C 89.274 46.644, 89.747 46.666, 91.441 45.424 C 95.742 42.269, 96 43.083, 96 59.800 C 96 69.844, 95.604 75.996, 94.913 76.687 C 94.130 77.470, 94.130 77.962, 94.913 78.446 C 95.660 78.908, 96 89.277, 96 111.559 L 96 144 107.946 144 L 119.892 144 118.407 139 C 117.274 135.183, 117.168 133.114, 117.961 130.250 C 119.342 125.264, 119.342 125.263, 128.198 118.650 C 136.467 112.475, 137.608 110.729, 136.050 106.632 C 134.468 102.470, 129.994 102.732, 125.265 107.264 C 123.486 108.968, 121.902 110.169, 121.745 109.932 C 120.473 108.005, 119.344 102.905, 120.088 102.445 C 121.406 101.631, 121.184 98.095, 119.529 93.500 C 118.736 91.300, 118.068 88.049, 118.044 86.276 C 118.009 83.739, 117.371 82.726, 115.050 81.526 C 113.427 80.687, 111.177 80, 110.050 80 C 108.667 80, 108 79.349, 108 78 C 108 75.657, 109.530 75.333, 110.362 77.500 C 111.142 79.534, 114.324 79.386, 118.790 77.106 C 125.989 73.432, 127.945 69.032, 124.694 63.827 C 123.551 61.997, 122.741 59.649, 122.894 58.610 C 123.103 57.196, 122.746 56.884, 121.475 57.371 C 120.154 57.878, 119.931 57.632, 120.471 56.261 C 121.588 53.425, 122.355 44, 121.469 44 C 121.023 44, 119.918 44.669, 119.014 45.487 C 117.554 46.809, 116.938 46.753, 113.474 44.987 C 111.331 43.894, 108.743 43, 107.723 43 C 106.703 43, 105.025 42.549, 103.995 41.997 C 102.743 41.327, 101.916 41.327, 101.502 41.997 C 101.161 42.549, 99.784 43, 98.441 43 L 96 43 96 21.500 L 96 0 48 0 L 0 0 0 72 M 82 66.775 C 82 69.419, 89.194 75.139, 90.667 73.667 C 91.720 72.613, 88.926 69.091, 87.477 69.647 C 86.378 70.069, 86.053 69.598, 86.242 67.863 C 86.437 66.084, 85.949 65.427, 84.250 65.184 C 82.588 64.945, 82 65.361, 82 66.775 M 120.350 68 C 119.955 69.976, 119.146 71, 117.982 71 C 116.360 71, 115 72.852, 115 75.060 C 115 76.487, 120.281 73.912, 122.753 71.279 C 124.542 69.375, 124.793 68.481, 123.968 66.940 C 122.467 64.136, 121.039 64.554, 120.350 68 M 96 77.559 C 96 78.416, 96.457 78.835, 97.016 78.490 C 97.575 78.144, 97.774 77.443, 97.457 76.931 C 96.600 75.544, 96 75.802, 96 77.559 M 118.030 111.450 C 118.008 113.601, 118.299 114.101, 119.104 113.296 C 119.895 112.505, 119.903 111.670, 119.134 110.346 C 118.193 108.728, 118.057 108.864, 118.030 111.450 M 82 120.559 C 82 121.416, 82.450 121.840, 83 121.500 C 83.550 121.160, 84 120.459, 84 119.941 C 84 119.423, 83.550 119, 83 119 C 82.450 119, 82 119.702, 82 120.559" stroke="none" fill="black" fill-rule="evenodd"/>
</svg>