<svg xmlns="http://www.w3.org/2000/svg" width="192" height="144" viewBox="0 0 192 144" version="1.1">
	<path d="M 0 72 L 0 144 54 144 C 88.907 144, 108 143.651, 108 143.012 C 108 141.774, 102.145 127.590, 98.150 119.148 C 95.299 113.124, 95.172 112.321, 95.704 103.648 C 96.012 98.616, 96.612 93.844, 97.038 93.043 C 97.589 92.004, 99.201 91.671, 102.656 91.881 C 105.320 92.044, 107.161 91.835, 106.746 91.418 C 105.126 89.786, 109.942 84.415, 116.244 80.827 C 119.160 79.166, 119.185 79.073, 119.562 68.577 L 119.941 58 117.528 58 C 116.200 58, 113.501 57.048, 111.530 55.885 C 108.685 54.207, 108.181 53.487, 109.085 52.398 C 109.711 51.643, 109.963 50.345, 109.643 49.513 C 109.271 48.541, 109.650 48, 110.703 48 C 111.605 48, 113.157 47.263, 114.153 46.361 C 115.888 44.791, 115.839 44.580, 112.960 41.302 C 109.731 37.624, 109.795 35.285, 113.076 37.040 C 114.638 37.877, 115.158 37.727, 115.669 36.293 C 116.021 35.307, 116.528 34.102, 116.796 33.616 C 117.065 33.129, 115.917 32.932, 114.246 33.177 C 110.195 33.772, 111.012 31.481, 115.363 30.045 C 117.413 29.369, 119.243 27.705, 120.495 25.379 C 124.829 17.332, 131.592 15, 150.596 15 L 163.307 15 168.594 20 C 172.334 23.538, 174.702 25.004, 176.690 25.015 C 178.236 25.024, 180.175 25.467, 181 26 C 182.276 26.824, 182.233 26.972, 180.715 26.985 C 179.261 26.997, 179.122 27.359, 179.965 28.934 C 181.297 31.424, 181.288 35.593, 179.944 38.104 C 179.148 39.592, 179.318 41.050, 180.637 44.038 C 181.598 46.217, 182.748 48, 183.192 48 C 184.579 48, 184.076 50.692, 182.434 52.055 C 178.497 55.322, 178.133 57.811, 179.614 71.318 C 181.019 84.132, 182.129 87.648, 186.648 93.594 C 188.856 96.500, 189 97.539, 189 110.601 C 189 118.253, 188.570 126.011, 188.046 127.841 C 187.521 129.672, 187.363 134.079, 187.695 137.635 C 188.240 143.477, 188.501 144.071, 190.399 143.800 L 192.500 143.500 192.757 71.750 L 193.013 0 96.507 0 L 0 0 0 72 M 0.474 72.500 C 0.474 112.100, 0.598 128.154, 0.750 108.176 C 0.901 88.198, 0.901 55.798, 0.750 36.176 C 0.598 16.554, 0.474 32.900, 0.474 72.500 M 112.775 115.250 C 112.533 115.938, 112.665 117.625, 113.068 119 C 113.705 121.175, 113.814 121.013, 113.900 117.750 C 114.002 113.942, 113.571 112.985, 112.775 115.250 M 114.134 123.913 C 113.115 124.546, 113.034 125.237, 113.816 126.631 C 114.786 128.359, 114.915 128.370, 115.527 126.783 C 116.467 124.344, 115.765 122.899, 114.134 123.913" stroke="none" fill="black" fill-rule="evenodd"/>
</svg>