<svg xmlns="http://www.w3.org/2000/svg" width="192" height="144" viewBox="0 0 192 144" version="1.1">
	<path d="M 0 22.079 L 0 44.159 3.250 43.462 C 7.885 42.468, 8 42.328, 8.001 37.691 C 8.002 32.021, 12.859 21.972, 17.199 18.662 C 20.326 16.277, 28.961 13.618, 32.162 14.054 C 34.853 14.422, 35.761 13.907, 41.080 9.006 C 44.061 6.260, 46.805 4.010, 47.178 4.006 C 47.854 4, 52 14.278, 52 15.960 C 52 16.447, 53.671 17.396, 55.713 18.070 C 57.755 18.744, 61.726 21.596, 64.537 24.406 C 72.130 31.999, 75.015 42.204, 71.493 49.013 C 70.141 51.629, 70.153 52.342, 71.616 55.999 C 73.146 59.823, 73.137 60.191, 71.459 62.045 C 69.879 63.791, 69.796 64.741, 70.743 70.260 C 71.332 73.692, 72.258 78.184, 72.800 80.243 C 73.372 82.414, 73.401 83.748, 72.870 83.419 C 71.258 82.423, 73.106 91.367, 75.100 94.210 C 77.855 98.138, 77.426 100.044, 74.585 96.500 C 72.048 93.336, 70.748 93.578, 70.440 97.270 C 70.285 99.126, 71.348 102.413, 72.566 103.847 C 72.728 104.038, 75.704 102.808, 79.180 101.114 C 102.106 89.940, 129.906 93.520, 148.268 110.012 C 154.459 115.572, 157.960 120.183, 162.847 129.218 C 165.116 133.411, 165.614 135.132, 164.725 135.711 C 164.061 136.145, 160.138 138.167, 156.008 140.205 L 148.500 143.910 170.500 143.705 L 192.500 143.500 192.690 71.750 L 192.879 -0 96.440 -0 L 0 0 0 22.079 M 0.426 22.500 C 0.427 34.600, 0.571 39.413, 0.747 33.195 C 0.923 26.977, 0.922 17.077, 0.746 11.195 C 0.569 5.313, 0.425 10.400, 0.426 22.500 M 102.189 44.039 C 99.588 46.462, 99.339 49.532, 101.670 50.427 C 103.290 51.048, 103.914 50.521, 106.110 46.672 C 107.200 44.763, 106.673 42, 105.220 42 C 104.756 42, 103.392 42.918, 102.189 44.039 M 106.115 55.632 C 103.904 57.180, 103.246 61.416, 105.044 62.527 C 106.506 63.431, 108.663 61.404, 109.844 58.019 C 111.066 54.512, 109.314 53.391, 106.115 55.632 M 1.070 65.250 L 1.141 73.500 3.519 67.500 C 4.827 64.200, 5.920 60.953, 5.948 60.285 C 5.994 59.206, 3.052 57, 1.566 57 C 1.255 57, 1.032 60.712, 1.070 65.250 M 1.070 104.095 C 1.138 119.790, 1.205 120.327, 2.631 116.500 C 3.621 113.842, 3.919 110.821, 3.519 107.497 C 3.112 104.108, 3.334 101.972, 4.209 100.874 C 5.754 98.935, 15.942 93.649, 21.399 91.956 C 24.720 90.926, 25.036 90.600, 23.531 89.757 C 21.895 88.842, 18.406 89.044, 8.705 90.615 C 5.852 91.077, 4.426 90.790, 2.955 89.460 C 1.022 87.710, 1.001 87.876, 1.070 104.095 M 70.951 139.724 C 70.677 142.047, 70.833 143.567, 71.299 143.101 C 71.765 142.635, 71.989 140.735, 71.798 138.877 C 71.459 135.583, 71.438 135.604, 70.951 139.724 M 1.079 139.583 C 1.127 140.748, 1.364 140.985, 1.683 140.188 C 1.972 139.466, 1.936 138.603, 1.604 138.271 C 1.272 137.939, 1.036 138.529, 1.079 139.583" stroke="none" fill="black" fill-rule="evenodd"/>
</svg>