<svg xmlns="http://www.w3.org/2000/svg" width="192" height="144" viewBox="0 0 192 144" version="1.1">
	<path d="M 0 72 L 0 144 35.031 144 C 67.502 144, 70.106 143.872, 70.656 142.250 C 70.983 141.287, 72.994 136.065, 75.125 130.645 C 77.666 124.182, 79 119.180, 79 116.117 C 79 113.547, 79.680 110.474, 80.511 109.287 C 81.901 107.304, 81.847 107.006, 79.848 105.606 C 77.145 103.713, 76.026 104.338, 75.910 107.809 C 75.823 110.407, 75.787 110.389, 74.891 107.289 C 74.272 105.145, 73.496 104.256, 72.558 104.616 C 71.772 104.918, 70.679 104.269, 70.077 103.143 C 68.489 100.177, 68.730 99.715, 71.500 100.411 C 73.890 101.011, 74 100.840, 74 96.519 C 74 92.219, 73.862 92, 71.155 92 C 67.487 92, 65.564 89.756, 63.649 83.243 C 62.799 80.352, 61.405 76.989, 60.552 75.771 C 59.698 74.552, 59 71.630, 59 69.277 C 59 66.925, 58.559 65, 58.019 65 C 57.480 65, 56.745 63.763, 56.388 62.250 C 56.030 60.738, 54.820 58.489, 53.698 57.254 C 50.921 54.196, 52.153 53.418, 57.244 55.015 C 59.585 55.750, 62.077 56.384, 62.783 56.425 C 63.489 56.466, 64.495 57.175, 65.018 58 C 65.708 59.087, 65.974 59.140, 65.985 58.191 C 65.993 57.471, 66.450 57.160, 67 57.500 C 67.550 57.840, 68 59.022, 68 60.126 C 68 61.680, 68.453 61.991, 70 61.500 C 71.641 60.979, 72 61.320, 72 63.397 C 72 65.555, 75.447 68.977, 76.466 67.831 C 76.628 67.649, 76.947 64.800, 77.175 61.500 L 77.591 55.500 71.445 55.463 C 63.610 55.416, 60.825 53.621, 57.420 46.422 C 55.971 43.360, 54.159 40.615, 53.393 40.321 C 52.584 40.010, 52 38.374, 52 36.416 C 52 33.916, 52.652 32.619, 54.526 31.391 C 56.043 30.397, 56.866 29.091, 56.587 28.118 C 55.223 23.365, 54.969 13.497, 56.082 8.523 C 57.515 2.120, 58.392 1.502, 58.760 6.637 C 59.175 12.431, 61.078 15.459, 64.507 15.779 C 66.941 16.007, 67.818 15.493, 69.203 13.029 C 70.140 11.363, 71.571 10, 72.382 10 C 73.791 10, 76.441 12.081, 77.161 13.753 C 77.830 15.309, 91.632 20, 95.540 20 C 97.734 20, 101.098 19.186, 103.015 18.191 C 104.932 17.197, 108.525 15.778, 111 15.038 C 113.475 14.299, 116.261 12.845, 117.192 11.807 C 118.824 9.989, 118.922 10.056, 119.937 13.711 C 120.515 15.795, 120.991 17.993, 120.994 18.595 C 121.001 19.827, 124.799 23.546, 125.402 22.911 C 127.355 20.850, 133 8.739, 133 6.608 C 133 5.045, 133.427 4.146, 134 4.500 C 134.550 4.840, 135 8.536, 135 12.714 C 135 20.142, 135.043 20.271, 136.920 18.572 C 138.751 16.916, 138.891 16.929, 139.920 18.851 C 141.385 21.588, 141.279 24.661, 139.667 26.167 C 138.783 26.992, 138.483 28.971, 138.777 32.030 C 139.102 35.416, 138.658 37.750, 137.110 40.784 C 135.950 43.059, 135 45.773, 135 46.814 C 135 47.856, 133.883 49.913, 132.518 51.386 L 130.036 54.064 135.018 53.403 C 140.481 52.678, 141.534 53.812, 137.816 56.417 C 136.614 57.258, 135.478 58.952, 135.290 60.180 C 135.103 61.408, 134.415 62.744, 133.761 63.148 C 133.107 63.552, 132.489 65.821, 132.387 68.191 C 132.152 73.621, 127.951 89.169, 126.128 91.355 C 125.351 92.286, 123.290 93, 121.378 93 C 118.985 93, 118 93.455, 118 94.559 C 118 95.416, 117.605 95.874, 117.122 95.575 C 116.242 95.031, 115 99.513, 115 103.233 C 115 104.864, 115.457 105.102, 117.570 104.572 C 119.915 103.983, 120.112 104.171, 119.820 106.713 C 119.552 109.050, 119.064 109.471, 116.801 109.319 C 114.356 109.155, 114.044 109.532, 113.491 113.319 C 112.476 120.275, 112.627 121.095, 117.081 132.762 L 121.381 144.025 156.940 143.762 L 192.500 143.500 192.757 71.750 L 193.013 0 96.507 0 L 0 0 0 72 M 0.474 72.500 C 0.474 112.100, 0.598 128.154, 0.750 108.176 C 0.901 88.198, 0.901 55.798, 0.750 36.176 C 0.598 16.554, 0.474 32.900, 0.474 72.500 M 111.768 32.168 C 112.350 32.750, 113.415 33.028, 114.137 32.788 C 114.886 32.538, 114.432 32.085, 113.080 31.731 C 111.417 31.296, 111.026 31.426, 111.768 32.168 M 78 33.059 C 78 33.641, 78.450 33.840, 79 33.500 C 79.550 33.160, 80 32.684, 80 32.441 C 80 32.198, 79.550 32, 79 32 C 78.450 32, 78 32.477, 78 33.059 M 114 51.786 C 114 58.327, 115.235 68, 116.071 68 C 117.930 68, 119.713 64.952, 119.256 62.556 C 118.856 60.466, 119.153 60, 120.883 60 C 122.139 60, 123 59.362, 123 58.433 C 123 57.297, 123.577 57.048, 125.092 57.529 C 126.758 58.058, 127.113 57.817, 126.834 56.347 C 126.451 54.329, 120 52.998, 120 54.937 C 120 55.521, 119.602 56, 119.117 56 C 117.732 56, 117.112 52.288, 118.299 51.101 C 119.555 49.845, 119.265 49.483, 116.250 48.557 C 114.182 47.921, 114 48.182, 114 51.786 M 76 98.500 C 76 99.875, 76.450 101, 77 101 C 77.550 101, 78 99.875, 78 98.500 C 78 97.125, 77.550 96, 77 96 C 76.450 96, 76 97.125, 76 98.500" stroke="none" fill="black" fill-rule="evenodd"/>
</svg>