<svg xmlns="http://www.w3.org/2000/svg" width="192" height="144" viewBox="0 0 192 144" version="1.1">
	<path d="M 106.032 1.538 C 106.990 2.693, 108.369 2.917, 111.562 2.438 C 119.299 1.278, 121.256 2.352, 129.109 12.067 C 133.618 17.645, 137.044 21, 138.231 21 C 140.560 21, 143.800 19.386, 146.623 16.820 C 148.544 15.073, 148.895 15.038, 150.302 16.445 C 152.337 18.480, 152.478 18.446, 154.456 15.427 C 156.085 12.941, 156.057 12.781, 153.636 10.677 C 151.333 8.676, 151.244 8.298, 152.530 6 C 153.300 4.625, 153.945 2.712, 153.965 1.750 C 153.997 0.130, 152.174 0, 129.378 0 C 107.333 0, 104.889 0.161, 106.032 1.538" stroke="none" fill="black" fill-rule="evenodd"/>
</svg>