<svg xmlns="http://www.w3.org/2000/svg" width="192" height="144" viewBox="0 0 192 144" version="1.1">
	<path d="M 72.748 46.586 C 71.301 48.033, 72.022 50, 74 50 C 75.100 50, 76 50.450, 76 51 C 76 51.576, 72.874 52, 68.622 52 C 63.218 52, 60.905 52.409, 59.974 53.531 C 58.923 54.798, 59.031 55.302, 60.595 56.446 C 62.414 57.776, 62.381 57.912, 59.743 59.987 C 58.235 61.174, 57 62.975, 57 63.990 C 57 65.005, 54.906 69.359, 52.347 73.667 C 47.978 81.023, 43 91.798, 43 93.901 C 43 94.418, 44.423 95.154, 46.161 95.535 L 49.322 96.230 45.496 99.442 C 43.196 101.373, 41.958 103.123, 42.393 103.828 C 44.404 107.081, 53 102.708, 53 98.432 C 53 96.937, 53.578 96, 54.500 96 C 55.399 96, 56 96.922, 56 98.300 C 56 99.565, 56.488 101.088, 57.085 101.685 C 57.865 102.465, 57.725 103.632, 56.585 105.835 C 54.594 109.686, 54.576 111.623, 56.523 112.370 C 58.632 113.180, 62 109.535, 62 106.444 C 62 104.849, 63.191 102.799, 65.166 100.996 C 67.844 98.550, 68.133 97.865, 67.042 96.551 C 64.710 93.740, 66.262 84.863, 70.579 76.327 C 75.734 66.134, 77.229 65.161, 89 64.335 C 97.819 63.716, 98.697 63.458, 101.250 60.729 C 104.994 56.725, 104.994 51.828, 101.250 48.352 C 98.754 46.034, 97.992 45.860, 93 46.465 C 86.455 47.259, 83.975 47.256, 77.998 46.447 C 75.521 46.112, 73.159 46.174, 72.748 46.586" stroke="none" fill="black" fill-rule="evenodd"/>
</svg>