<svg xmlns="http://www.w3.org/2000/svg" width="192" height="144" viewBox="0 0 192 144" version="1.1">
	<path d="M 14.669 3.750 C 14.346 5.813, 14.472 12.675, 14.949 19 C 15.849 30.937, 15.549 32.374, 11.910 33.529 C 10.463 33.988, 10 35.074, 10 38.008 C 10 42.377, 11.627 44.181, 12.774 41.083 C 13.480 39.173, 13.716 39.271, 16.336 42.555 C 20.022 47.173, 19.064 50.548, 13.130 53.851 L 8.906 56.202 12.417 58.083 C 14.348 59.118, 16.524 59.736, 17.252 59.457 C 17.980 59.177, 19.881 60.310, 21.475 61.974 C 25.249 65.913, 28.472 65.922, 30.500 62 C 31.885 59.322, 31.888 59, 30.526 59 C 27.467 59, 28.777 54.163, 32.487 51.759 C 36.270 49.308, 36.564 47.453, 33.149 47.579 C 30.449 47.679, 30.320 45.143, 32.859 41.885 C 33.881 40.573, 35.437 38.097, 36.316 36.383 C 38.273 32.566, 36.983 30.284, 32.601 29.812 C 31.006 29.640, 29.227 28.742, 28.647 27.815 C 27.231 25.553, 28.945 22.492, 36.274 14.189 C 40.602 9.287, 42.018 6.955, 41.797 5.094 C 41.532 2.862, 40.796 2.457, 35 1.357 C 31.425 0.678, 25.520 0.096, 21.878 0.062 L 15.256 0 14.669 3.750 M 96 72 L 96 144 128.422 144 L 160.845 144 161.889 140.750 C 162.464 138.963, 163.420 134.386, 164.013 130.579 C 164.607 126.773, 165.324 123.285, 165.605 122.829 C 166.867 120.788, 164.723 120.092, 161.811 121.598 C 158.453 123.334, 157.047 122.459, 157.015 118.616 C 157.007 117.580, 155.837 115.734, 154.416 114.512 C 151.941 112.386, 151.885 112.107, 153.077 107.896 C 153.880 105.064, 156.044 101.710, 159.161 98.469 C 161.823 95.701, 164 92.869, 164 92.175 C 164 91.481, 165.565 89.222, 167.477 87.155 C 170.455 83.936, 171.450 83.454, 174.406 83.799 C 177.568 84.168, 177.916 84.544, 178.544 88.260 C 179.170 91.963, 178.961 92.537, 176.157 94.826 L 173.085 97.333 176.043 100.701 C 177.669 102.554, 179 104.899, 179 105.912 C 179 107.972, 181.323 110.344, 182.342 109.325 C 182.704 108.963, 183 107.527, 183 106.133 C 183 101.490, 185.084 105.413, 185.679 111.176 C 186.240 116.610, 186.222 116.654, 182.017 120.253 L 177.792 123.870 180.396 131.688 C 181.828 135.988, 183 140.518, 183 141.753 C 183 143.749, 183.502 144, 187.500 144 L 192 144 192 72 L 192 0 144 0 L 96 0 96 72" stroke="none" fill="black" fill-rule="evenodd"/>
</svg>