<svg xmlns="http://www.w3.org/2000/svg" width="192" height="144" viewBox="0 0 192 144" version="1.1">
	<path d="M 61.306 43.645 C 60.351 46.133, 63.328 47.715, 71.338 48.977 C 82.535 50.740, 83.624 51.641, 75.500 52.418 C 67.791 53.155, 60 56.169, 60 58.414 C 60 60.366, 62.467 60.731, 68.962 59.740 C 71.966 59.281, 76.241 59.046, 78.462 59.218 L 82.500 59.530 77 62.121 C 70.615 65.128, 67.481 68.206, 68.391 70.576 C 69.089 72.395, 69.431 72.338, 78.687 68.863 C 85.470 66.316, 87.756 66.831, 83.729 69.998 C 80.816 72.290, 79.203 77.603, 80.905 79.305 C 81.715 80.115, 83.287 79.174, 86.756 75.803 C 93.116 69.624, 97.677 68.789, 104.945 72.472 C 108.210 74.127, 112.557 75.308, 116.800 75.694 C 123.877 76.339, 125.238 77.205, 124.402 80.535 C 123.626 83.628, 126.909 85.906, 133.069 86.550 C 142.168 87.501, 160.744 91.611, 175.401 95.917 C 183.046 98.162, 189.909 100, 190.651 100 C 191.725 100, 192 96.843, 192 84.519 L 192 69.038 189.250 68.413 C 177.824 65.818, 150.140 58.664, 144.048 56.733 C 137.946 54.798, 135.844 54.542, 132.452 55.318 C 129.112 56.082, 127.069 55.857, 121.905 54.157 C 115.712 52.118, 101.428 48.426, 88 45.394 C 70.147 41.363, 62.377 40.854, 61.306 43.645" stroke="none" fill="black" fill-rule="evenodd"/>
</svg>