<svg xmlns="http://www.w3.org/2000/svg" width="192" height="144" viewBox="0 0 192 144" version="1.1">
	<path d="M 0 25 C 0 38.750, 0.309 50, 0.686 50 C 1.064 50, 4.776 48.988, 8.936 47.750 C 15.285 45.862, 18.669 45.520, 30 45.622 C 42.375 45.734, 50.137 46.807, 66.704 50.698 C 68.449 51.108, 69.044 50.671, 69.565 48.597 C 69.927 47.156, 71.547 45.034, 73.167 43.881 C 77.087 41.090, 76.678 37.922, 72.250 36.781 C 70.463 36.320, 69 35.298, 69 34.510 C 69 32.620, 72.602 29.289, 77.223 26.906 C 80.526 25.204, 81.189 24.188, 83.093 17.921 C 85.856 8.824, 89.748 5.173, 98.344 3.614 C 99.787 3.352, 101.318 2.921, 101.748 2.656 C 102.178 2.390, 105.484 1.871, 109.096 1.503 C 117.770 0.618, 121.518 2.214, 126.408 8.875 L 130.170 14 136.538 14 C 143.174 14, 148 15.476, 148 17.506 C 148 19.215, 145.231 21.406, 139.336 24.359 L 134.172 26.947 136.086 31.984 C 138.193 37.530, 138.479 39.414, 137.081 38.550 C 136.576 38.238, 135.888 39.232, 135.553 40.760 C 135.140 42.638, 133.900 43.984, 131.721 44.918 C 126.327 47.229, 125.750 47.970, 127.392 50.475 C 128.712 52.489, 128.596 52.888, 125.972 55.365 C 123.541 57.659, 123.121 58.821, 123.154 63.154 C 123.183 66.790, 122.599 69.052, 121.112 71.062 L 119.031 73.877 126.758 78.689 C 131.008 81.335, 135.500 83.500, 136.741 83.500 C 140.037 83.500, 154.869 94.038, 155.039 96.500 C 155.190 98.700, 169.014 111, 171.335 111 C 172.116 111, 173.315 111.675, 174 112.500 C 174.685 113.325, 175.619 114, 176.077 114 C 177.883 114, 182.118 119.351, 182.677 122.338 C 183.002 124.077, 185.083 127.889, 187.301 130.809 C 189.519 133.729, 191.653 137.779, 192.044 139.809 C 192.434 141.839, 192.773 111.213, 192.797 71.750 L 192.841 -0 96.420 -0 L 0 0 0 25 M 0.434 25.500 C 0.433 39.250, 0.574 45.014, 0.747 38.308 C 0.919 31.603, 0.920 20.353, 0.748 13.308 C 0.576 6.264, 0.434 11.750, 0.434 25.500 M 12.449 57.880 C 9.671 58.905, 5.958 60.487, 4.199 61.397 L 1 63.051 1 103.526 L 1 144 44 144 L 87 144 87 136.661 C 87 132.624, 86.704 120.478, 86.342 109.670 C 85.797 93.395, 85.453 90.209, 84.342 91.131 C 83.300 91.996, 83.004 91.826, 83.017 90.372 C 83.034 88.528, 85.298 77.642, 86.578 73.250 C 87.101 71.454, 86.834 71, 85.256 71 C 84.169 71, 81.682 69.916, 79.730 68.592 C 75.467 65.698, 64.588 61.843, 52.422 58.914 C 39.663 55.842, 19.397 55.318, 12.449 57.880 M 125.488 94.250 C 125.884 95.487, 126.436 97.963, 126.714 99.750 C 126.991 101.537, 127.620 103, 128.109 103 C 129.447 103, 129.181 94.581, 127.800 93.200 C 125.878 91.278, 124.706 91.811, 125.488 94.250 M 148.447 110.085 C 148.079 110.682, 148.596 112.691, 149.596 114.549 C 151.390 117.880, 151.385 117.961, 149.208 120.279 C 147.994 121.571, 147 122.937, 147 123.314 C 147 124.322, 154.477 124.149, 157.299 123.077 C 161.928 121.316, 161.594 118.910, 156.006 113.750 C 150.644 108.800, 149.565 108.277, 148.447 110.085 M 170.913 135.344 C 169.489 136.598, 168.038 139.059, 167.688 140.812 L 167.050 144 175.025 144 C 179.411 144, 183 143.763, 183 143.474 C 183 142.270, 175.489 133.003, 174.537 133.032 C 173.966 133.049, 172.336 134.089, 170.913 135.344 M 127.610 139.885 C 126.174 141.384, 125 142.922, 125 143.305 C 125 143.687, 131.637 143.982, 139.750 143.960 C 152.835 143.924, 154.215 143.765, 151.974 142.545 C 149.278 141.078, 139.858 138.551, 133.860 137.686 C 130.823 137.248, 129.787 137.613, 127.610 139.885" stroke="none" fill="black" fill-rule="evenodd"/>
</svg>