<svg xmlns="http://www.w3.org/2000/svg" width="192" height="144" viewBox="0 0 192 144" version="1.1">
	<path d="M 106.750 14.979 C 105.818 16.068, 104.443 16.723, 103.694 16.436 C 102.670 16.043, 102.333 17.034, 102.333 20.444 C 102.333 25.972, 100.459 28.300, 94.128 30.634 C 91.582 31.572, 88.757 32.968, 87.848 33.736 C 86.939 34.504, 85.417 34.990, 84.466 34.816 C 81.852 34.338, 81.678 38.340, 84.132 42.499 C 86.010 45.682, 86.111 46.533, 85.056 50.301 C 84.178 53.435, 84.158 55.285, 84.977 57.439 C 85.585 59.039, 85.792 61.672, 85.436 63.290 C 84.755 66.393, 84.812 66.483, 92.416 74.215 L 96.069 77.931 94.035 79.965 C 92.916 81.084, 90.740 82, 89.200 82 C 86.032 82, 84 83.596, 84 86.085 C 84 87.012, 82.909 88.485, 81.576 89.358 C 80.243 90.232, 78.842 91.971, 78.463 93.223 C 77.356 96.887, 72.898 101.002, 70.063 100.978 C 68.653 100.966, 65.538 100.066, 63.141 98.978 C 57.917 96.608, 55.413 96.512, 50.654 98.500 C 48.680 99.325, 45.575 100, 43.755 100 C 39.666 100, 36.838 101.908, 33.914 106.640 C 31.784 110.086, 31.758 110.350, 33.429 111.572 C 35.669 113.209, 38 112.353, 38 109.893 C 38 108.290, 38.760 108, 42.965 108 C 45.696 108, 49.858 108.632, 52.215 109.405 C 54.572 110.178, 60.325 111.094, 65 111.439 C 72.510 111.994, 73.849 111.832, 76.500 110.040 C 80.326 107.455, 80.998 107.486, 81.011 110.250 C 81.017 111.487, 81.691 114.705, 82.508 117.401 C 84.161 122.849, 83.161 125.537, 79.807 124.660 C 78.652 124.358, 77.573 124.929, 76.892 126.202 C 75.870 128.112, 75.134 128.192, 63.590 127.658 C 54.230 127.224, 48.694 126.351, 39.935 123.929 C 33.646 122.190, 26.813 120.314, 24.750 119.762 C 22.688 119.209, 21 118.169, 21 117.450 C 21 113.440, 15.472 112.151, 4.640 113.636 L 0 114.272 0 129.136 L 0 144 60 144 C 93.098 144, 120 143.612, 120 143.135 C 120 142.659, 119.177 141.197, 118.170 139.885 C 115.431 136.314, 114.919 134.245, 116.614 133.595 C 119.767 132.385, 122.113 124.462, 121.919 115.681 C 121.795 110.016, 122.202 106.492, 123.203 104.582 C 124.350 102.394, 124.458 100.712, 123.698 96.871 C 122.891 92.791, 123.004 91.653, 124.363 90.151 C 126.850 87.404, 126.386 86.422, 121.750 84.619 C 116.559 82.601, 111.716 79.055, 114.105 79.022 C 114.988 79.010, 118.083 76.491, 120.984 73.424 L 126.258 67.847 125.780 61.166 C 125.517 57.491, 124.618 53.138, 123.783 51.492 C 122.347 48.665, 122.394 48.364, 124.632 46.021 C 127.995 42.501, 127.809 38.426, 124.250 37.652 C 120.757 36.893, 120.471 36.657, 114.673 29.750 C 109.329 23.385, 110.309 21.943, 116.121 27.618 L 119.826 31.236 121.476 28.046 C 123.519 24.095, 122.841 23.136, 115.458 19.523 C 111.660 17.665, 110 16.267, 110 14.926 C 110 12.461, 108.890 12.479, 106.750 14.979 M 189.991 138.250 C 186.963 142.820, 186.869 144, 189.532 144 C 191.745 144, 192 143.586, 192 140 C 192 137.800, 191.883 136, 191.741 136 C 191.598 136, 190.810 137.012, 189.991 138.250" stroke="none" fill="black" fill-rule="evenodd"/>
</svg>