<svg xmlns="http://www.w3.org/2000/svg" width="192" height="144" viewBox="0 0 192 144" version="1.1">
	<path d="M 0 72 L 0 144 34.769 144 L 69.538 144 73.395 131.250 C 75.516 124.237, 78.574 115.975, 80.190 112.889 C 82.604 108.282, 83.076 106.292, 82.827 101.760 C 82.552 96.739, 82.321 96.253, 80.263 96.371 C 79.019 96.442, 78.001 96.963, 78.001 97.528 C 77.999 99.778, 71.124 112.684, 68.399 115.552 C 66.805 117.230, 62.111 121.098, 57.969 124.147 C 53.828 127.195, 49.219 131.140, 47.727 132.912 C 44.350 136.926, 39.648 138.505, 37.492 136.349 C 36.661 135.518, 36.304 134.313, 36.698 133.669 C 37.091 133.026, 38.439 130.984, 39.693 129.131 C 42.072 125.615, 41.975 123.689, 39.468 124.651 C 38.661 124.960, 38 124.716, 38 124.107 C 38 123.498, 38.453 123, 39.007 123 C 39.560 123, 41.023 121.800, 42.257 120.334 C 43.490 118.867, 47.773 113.876, 51.772 109.241 C 61.663 97.780, 63.928 93, 59.466 93 C 58.368 93, 58.263 92.437, 59 90.500 C 59.782 88.443, 59.650 88, 58.257 88 C 57.120 88, 58.415 86.106, 62.188 82.250 C 66.971 77.361, 68.004 75.626, 69.084 70.669 C 70.130 65.867, 70.121 64.693, 69.030 64.019 C 67.990 63.376, 67.933 62.304, 68.765 59.027 C 69.638 55.589, 69.582 54.946, 68.448 55.381 C 65.852 56.378, 60 45.268, 60 39.343 C 60 36.056, 61.799 35.617, 69.759 36.959 C 75.714 37.964, 77.770 37.849, 85.992 36.055 C 96.694 33.719, 99.592 33.531, 100.567 35.109 C 102.931 38.933, 100.840 58.745, 97.880 60.574 C 97.396 60.873, 97.005 63.004, 97.010 65.309 C 97.020 69.242, 97.265 69.603, 100.981 71.163 C 105.001 72.851, 105.230 73.195, 110.386 85.284 C 111.274 87.365, 112 89.916, 112 90.953 C 112 91.990, 114.918 95.713, 118.485 99.228 C 124.921 105.570, 124.961 105.643, 123.735 108.902 C 122.572 111.993, 122.669 112.320, 125.380 114.484 C 128.072 116.633, 128.130 116.824, 126.271 117.414 C 123.383 118.330, 120.990 117.101, 119.847 114.114 L 118.846 111.500 116.423 114.306 C 115.090 115.849, 114 117.729, 114 118.484 C 114 119.239, 113.367 120.490, 112.593 121.264 C 111.383 122.474, 111.554 124.171, 113.809 133.347 L 116.431 144.023 154.466 143.762 L 192.500 143.500 192.757 71.750 L 193.013 0 96.507 0 L 0 0 0 72 M 0.474 72.500 C 0.474 112.100, 0.598 128.154, 0.750 108.176 C 0.901 88.198, 0.901 55.798, 0.750 36.176 C 0.598 16.554, 0.474 32.900, 0.474 72.500" stroke="none" fill="black" fill-rule="evenodd"/>
</svg>