<svg xmlns="http://www.w3.org/2000/svg" width="192" height="144" viewBox="0 0 192 144" version="1.1">
	<path d="M 0 72 L 0 144 12.991 144 L 25.982 144 23.032 139.207 C 21.410 136.570, 18.525 129.708, 16.621 123.957 C 11.435 108.289, 9.696 96.391, 9.591 75.845 L 9.500 58.190 6.338 56.485 C 2.592 54.465, 1.674 51.910, 3.671 49.059 C 5.555 46.370, 10.287 43.941, 11.809 44.882 C 12.705 45.436, 12.637 46.098, 11.532 47.559 C 10.724 48.627, 10.049 49.877, 10.032 50.338 C 10.014 50.799, 17.087 50.982, 25.750 50.745 C 40.452 50.343, 41.933 50.123, 48 47.431 C 54.180 44.689, 55.214 44.546, 69 44.524 C 82.245 44.502, 83.649 44.327, 85.217 42.500 C 87.547 39.785, 87.493 37.638, 85.111 38.261 C 84.072 38.533, 82.609 38.347, 81.861 37.848 C 80.795 37.138, 81.176 36.353, 83.621 34.221 C 86.185 31.985, 86.867 30.477, 87.441 25.768 C 88.252 19.109, 90.015 17.261, 98.621 14.041 C 105.835 11.341, 107.524 11.455, 111.919 14.936 C 115.351 17.654, 115.948 17.799, 119.972 16.895 C 125.982 15.545, 126.894 17.008, 122.466 20.896 L 118.829 24.089 120.628 26.795 C 122.846 30.128, 122.523 32.966, 119.672 35.206 C 117.944 36.563, 117.718 37.278, 118.564 38.706 C 119.339 40.013, 119.275 41.179, 118.329 43 C 117.614 44.375, 117.023 46.412, 117.015 47.527 C 117.007 48.643, 116.312 50.537, 115.472 51.737 C 114.029 53.797, 114.110 54.006, 116.922 55.460 C 118.560 56.307, 120.836 57, 121.979 57 C 124.442 57, 136 62.659, 136 63.865 C 136 65.444, 146.193 71.073, 148.009 70.497 C 150.068 69.844, 157.431 76.206, 156.802 78.095 C 156.586 78.742, 158.168 81.123, 160.317 83.386 C 167.246 90.681, 171.933 97.040, 176.727 105.648 C 182.327 115.706, 184.313 118, 187.418 118 C 189.053 118, 190.117 118.867, 190.951 120.881 C 192.599 124.860, 191.955 130.397, 189.797 130.806 C 186.885 131.357, 179.703 123.587, 174.582 114.346 C 167.774 102.058, 163.028 95.320, 157.143 89.586 C 151.628 84.214, 149.795 84.276, 148.675 89.874 C 148.071 92.897, 147.424 93.015, 123.500 94.468 C 117.480 94.833, 116.216 97.655, 117.813 107.167 C 118.823 113.182, 121.992 140.509, 121.998 143.263 C 121.999 143.682, 137.863 143.907, 157.250 143.763 L 192.500 143.500 192.757 71.750 L 193.013 0 96.507 0 L 0 0 0 72 M 0.474 72.500 C 0.474 112.100, 0.598 128.154, 0.750 108.176 C 0.901 88.198, 0.901 55.798, 0.750 36.176 C 0.598 16.554, 0.474 32.900, 0.474 72.500 M 58.982 50.975 C 55.902 51.372, 50.186 53.302, 46.042 55.344 C 41.960 57.355, 37.693 59.007, 36.560 59.015 C 31.540 59.053, 31.493 59.291, 31.602 84.215 C 31.716 110.452, 33.174 121.830, 38.207 135.750 L 41.189 144 59.449 144 L 77.709 144 79.933 136.250 C 84.526 120.252, 86.182 116.133, 91.122 108.419 L 96.193 100.500 95.593 84 C 95.248 74.495, 94.572 67.359, 93.998 67.167 C 93.419 66.973, 93.263 65.208, 93.626 62.940 C 94.203 59.329, 94.039 58.966, 91.374 57.959 C 89.793 57.362, 87.363 55.789, 85.974 54.464 C 82.158 50.825, 71.157 49.403, 58.982 50.975 M 118.393 65.582 C 118.727 66.452, 119 67.352, 119 67.582 C 119 67.812, 119.408 68, 119.906 68 C 120.405 68, 120.577 67.100, 120.290 66 C 120.002 64.900, 119.321 64, 118.776 64 C 118.232 64, 118.059 64.712, 118.393 65.582 M 132.544 71.928 C 132.227 72.442, 132.425 73.144, 132.984 73.490 C 134.861 74.650, 134.024 77.380, 130.750 80.775 L 127.500 84.146 130.500 83.415 C 134.818 82.364, 141.674 79.336, 142.402 78.159 C 142.744 77.606, 141.781 76.282, 140.262 75.218 C 135.643 71.982, 133.164 70.926, 132.544 71.928" stroke="none" fill="black" fill-rule="evenodd"/>
</svg>