<svg xmlns="http://www.w3.org/2000/svg" width="192" height="144" viewBox="0 0 192 144" version="1.1">
	<path d="M -0 72.028 L -0 144.056 13.653 143.778 L 27.306 143.500 30.707 135.528 C 33.122 129.866, 33.860 127.002, 33.254 125.644 C 32.301 123.507, 33.497 115.574, 35.669 109.625 C 36.447 107.494, 36.842 105.509, 36.547 105.214 C 36.252 104.919, 33.790 106.550, 31.076 108.839 C 26.546 112.659, 21.931 114.539, 23.562 111.900 C 24.050 111.111, 23.689 111.096, 22.282 111.849 C 19.964 113.090, 15.736 112.236, 16.675 110.716 C 17.082 110.058, 16.700 109.901, 15.664 110.299 C 14.479 110.753, 14 110.401, 14 109.076 C 14 108.052, 14.634 106.971, 15.410 106.673 C 16.185 106.375, 17.580 103.515, 18.509 100.316 C 19.439 97.117, 20.492 94.275, 20.849 94 C 21.207 93.725, 22.461 91.457, 23.635 88.961 C 24.809 86.464, 28.473 81.019, 31.777 76.861 C 40.942 65.328, 42.990 61.536, 45.477 51.490 C 48.204 40.478, 48.216 40.455, 54.365 34.039 C 58.887 29.320, 59.508 29, 64.128 29 C 69.983 29, 71.246 27.235, 68.640 22.696 C 66.658 19.242, 67.021 18.406, 69.849 19.919 C 75.418 22.900, 80.347 20.695, 85.315 13 C 87.483 9.642, 92.560 6.227, 93.696 7.363 C 93.996 7.662, 92.499 9.588, 90.370 11.643 C 86.925 14.969, 86.719 15.423, 88.500 15.786 C 92.105 16.521, 92.506 17.928, 89.416 19.005 C 84.966 20.556, 83.602 23.330, 85.492 26.985 C 86.333 28.611, 87.916 30.420, 89.010 31.006 C 91.980 32.595, 91.470 34.262, 88.231 33.551 C 86.517 33.174, 84.706 33.494, 83.481 34.391 C 81.513 35.829, 81.514 35.854, 83.625 38.169 C 86.963 41.830, 88 44.511, 88 49.482 C 88 53.208, 87.481 54.576, 85.304 56.594 C 83.576 58.196, 81.693 58.986, 80.054 58.796 C 77.511 58.501, 77.499 58.536, 77.200 67.074 C 76.947 74.302, 78.928 89.261, 80.322 90.656 C 81.048 91.381, 87.571 88.131, 89.363 86.151 C 90.680 84.696, 91.090 82.952, 90.843 79.858 L 90.500 75.579 94.812 74.718 C 99.616 73.760, 102.889 75.224, 101.009 77.490 C 99.536 79.263, 100.874 84.548, 103.361 86.781 C 107.781 90.751, 108.717 90.368, 110.905 83.694 C 113.107 76.981, 114.932 66.251, 114.666 61.577 C 114.523 59.053, 114.082 58.635, 111.435 58.512 C 106.780 58.295, 104 54.907, 104 49.450 C 104 44.311, 105.613 40.619, 109.405 37.076 C 112.737 33.963, 112.671 32.834, 108.911 28.552 C 107.212 26.617, 106.029 24.463, 106.281 23.767 C 106.534 23.070, 106.140 21.021, 105.406 19.213 C 104.530 17.056, 104.457 16.164, 105.193 16.619 C 105.952 17.088, 106.123 16.577, 105.721 15.042 L 105.127 12.771 107.677 15.136 C 109.079 16.436, 111.982 20.188, 114.129 23.474 L 118.033 29.448 125.543 29.135 L 133.053 28.821 137.612 33.661 C 142.426 38.771, 145.941 45.067, 145.978 48.645 C 145.990 49.824, 146.890 53.649, 147.979 57.145 C 149.903 63.326, 155.682 71.427, 169.277 87 C 171.437 89.475, 174.078 93.206, 175.144 95.291 C 176.210 97.377, 178.054 100.054, 179.242 101.242 C 181.366 103.366, 182.555 107.461, 180.718 106.326 C 180.200 106.006, 179.407 106.341, 178.956 107.072 C 178.504 107.802, 176.558 108.400, 174.632 108.400 C 172.624 108.400, 171.385 108.814, 171.729 109.370 C 172.095 109.963, 171.585 110.036, 170.414 109.556 C 169.361 109.126, 167.600 108.536, 166.500 108.246 C 165.400 107.955, 163.825 107.182, 163 106.526 C 162.175 105.870, 159.129 103.908, 156.230 102.164 L 150.960 98.994 151.615 101.747 C 151.975 103.261, 152.837 106.300, 153.531 108.500 C 154.225 110.700, 155.071 114.118, 155.412 116.095 C 155.958 119.260, 156.540 119.850, 160.266 121.025 C 170.420 124.224, 176.836 129.790, 181.914 139.805 C 184.019 143.956, 184.247 144.099, 188.298 143.805 L 192.500 143.500 192.757 71.750 L 193.013 0 96.507 0 L 0 0 -0 72.028 M 0.474 72.500 C 0.474 112.100, 0.598 128.154, 0.750 108.176 C 0.901 88.198, 0.901 55.798, 0.750 36.176 C 0.598 16.554, 0.474 32.900, 0.474 72.500 M 121 68.749 C 121 71.247, 121.049 71.265, 123 69.500 C 124.100 68.505, 125 67.587, 125 67.462 C 125 67.336, 124.100 66.998, 123 66.710 C 121.384 66.288, 121 66.680, 121 68.749 M 67 67.378 C 67 67.585, 67.675 68.315, 68.500 69 C 69.729 70.020, 70 69.951, 70 68.622 C 70 67.730, 69.325 67, 68.500 67 C 67.675 67, 67 67.170, 67 67.378 M 84.760 97.332 C 82.276 98.772, 81.016 100.224, 81.010 101.656 C 81.001 103.672, 81.235 103.741, 84.614 102.704 C 86.729 102.054, 88.667 100.631, 89.287 99.270 C 90.925 95.675, 89.023 94.861, 84.760 97.332 M 102.015 96.667 C 102.024 97.675, 102.455 99.171, 102.974 99.992 C 103.736 101.197, 104.160 101.240, 105.186 100.214 C 106.103 99.297, 106.164 98.484, 105.406 97.282 C 103.889 94.877, 101.997 94.534, 102.015 96.667 M 93.699 105.821 C 92.280 109.038, 91.043 110.040, 85.865 112.164 C 79.897 114.612, 79.668 114.844, 78.030 120.093 C 76.251 125.793, 73.320 132, 72.407 132 C 72.109 132, 72.149 131.106, 72.496 130.013 C 72.843 128.920, 72.829 126.039, 72.464 123.611 C 71.913 119.934, 71.384 119.115, 69.301 118.717 C 66.830 118.245, 66.807 118.301, 67.448 123.429 C 67.805 126.284, 68.900 131.967, 69.883 136.060 L 71.670 143.500 97.252 143.767 L 122.834 144.033 123.379 141.267 C 123.679 139.745, 124.222 133.915, 124.587 128.311 C 125.217 118.620, 125.156 118.146, 123.345 118.620 C 122.298 118.894, 119.279 118.191, 116.638 117.059 C 110.594 114.468, 110.003 114.485, 109.986 117.250 C 109.966 120.618, 108.877 124.042, 107.998 123.499 C 107.572 123.236, 106.893 125.153, 106.489 127.760 C 105.413 134.700, 104.158 130.627, 104.070 119.911 C 104.004 111.846, 103.853 111.254, 101.600 110.227 C 100.211 109.595, 98.703 107.630, 98.022 105.567 C 97.375 103.605, 96.516 102, 96.115 102 C 95.713 102, 94.626 103.719, 93.699 105.821 M 112 103.021 C 112 104.298, 116.780 106.554, 117.647 105.687 C 117.998 105.336, 117.716 104.362, 117.020 103.524 C 115.598 101.811, 112 101.451, 112 103.021 M 73 105 C 73 105.550, 73.450 106, 74 106 C 74.550 106, 75 105.550, 75 105 C 75 104.450, 74.550 104, 74 104 C 73.450 104, 73 104.450, 73 105" stroke="none" fill="black" fill-rule="evenodd"/>
</svg>