<svg xmlns="http://www.w3.org/2000/svg" width="192" height="144" viewBox="0 0 192 144" version="1.1">
	<path d="M 102.770 15.339 C 100.169 16.527, 98.031 17.967, 98.020 18.539 C 98.009 19.110, 97.100 21.342, 96 23.500 C 93.055 29.276, 93.321 35.321, 96.635 37.927 C 98.084 39.067, 99.914 40, 100.702 40 C 101.678 40, 101.933 40.635, 101.503 41.992 C 100.628 44.749, 107.547 51.248, 110.750 50.678 C 114.382 50.031, 113.398 52.039, 106.750 58.841 C 103.006 62.672, 100.995 65.420, 101.735 65.696 C 102.672 66.046, 102.579 66.914, 101.348 69.294 C 99.542 72.787, 99.081 78.994, 100.302 83.380 C 100.998 85.883, 100.868 86.181, 99.302 85.657 C 82.340 79.980, 82.047 79.828, 81.038 76.175 C 80.287 73.455, 80.436 71.882, 81.699 69.221 C 83.206 66.045, 83.207 65.580, 81.706 63.141 C 80.474 61.141, 79.417 60.577, 77.347 60.818 C 72.942 61.331, 71.116 62.810, 70.630 66.262 C 70.379 68.043, 69.605 73.100, 68.910 77.500 C 67.018 89.471, 67.891 97.597, 71.339 100.115 C 71.802 100.453, 71.240 104.082, 70.090 108.179 C 67.400 117.766, 67.362 121, 69.939 121 C 71.006 121, 73.958 122.800, 76.500 125 C 82.318 130.035, 84.350 130.391, 81.978 125.959 C 81.105 124.328, 81.361 123.967, 83.728 123.488 C 91.079 121.999, 91.484 121.686, 91.807 117.243 C 91.976 114.922, 91.188 108.751, 90.057 103.529 C 88.926 98.307, 88 93.802, 88 93.517 C 88 92.236, 90.567 93.269, 95.468 96.523 C 102.001 100.859, 102.473 102.684, 99.992 114 C 98.966 118.675, 97.410 126.661, 96.534 131.747 C 95.657 136.833, 94.680 141.670, 94.363 142.497 C 93.859 143.811, 97.067 144, 119.821 144 L 145.856 144 140.497 130.993 C 135.565 119.021, 130.415 108.708, 127.517 105 C 123.051 99.285, 122.806 80.875, 127.109 74.348 C 128.142 72.782, 128.990 72.159, 128.993 72.964 C 128.999 74.237, 129.195 74.234, 130.493 72.936 C 131.816 71.612, 131.765 70.671, 130.036 64.626 C 128.964 60.877, 127.529 57.137, 126.847 56.316 C 125.841 55.104, 125.880 54.882, 127.054 55.140 C 129.722 55.725, 132.914 51.742, 134.130 46.312 C 135.134 41.823, 135.067 40.451, 133.688 37.261 C 132.794 35.192, 131.769 31.700, 131.410 29.500 C 130.593 24.496, 127.940 20.032, 123.427 16.070 C 120.291 13.316, 119.290 13.009, 113.715 13.089 C 109.630 13.147, 105.879 13.918, 102.770 15.339" stroke="none" fill="black" fill-rule="evenodd"/>
</svg>