<svg xmlns="http://www.w3.org/2000/svg" width="192" height="144" viewBox="0 0 192 144" version="1.1">
	<path d="M 103.200 18.200 C 102.540 18.860, 102 20.865, 102 22.654 C 102 28.380, 96.732 53.459, 95.309 54.508 C 94.476 55.122, 93.765 58.195, 93.489 62.373 C 92.897 71.319, 86.432 97.384, 84.031 100.500 C 82.427 102.583, 80.848 109.152, 81.558 110.791 C 82.601 113.201, 82.257 115.776, 78.933 130.447 C 77.320 137.568, 76 143.530, 76 143.697 C 76 143.864, 77.125 144, 78.500 144 C 80.465 144, 81 143.492, 81 141.625 C 81 140.319, 81.279 137.857, 81.619 136.154 C 82.164 133.432, 82.479 133.186, 84.224 134.120 C 85.317 134.705, 89.650 135.254, 93.855 135.341 C 100.685 135.483, 101.920 135.210, 105.443 132.776 C 107.612 131.279, 109.518 130.185, 109.680 130.346 C 109.841 130.508, 109.140 133.646, 108.121 137.320 L 106.269 144 123.228 144 L 140.187 144 139.483 134.250 C 139.097 128.887, 137.949 122.096, 136.933 119.158 C 135.441 114.840, 135.268 112.860, 136.032 108.831 C 136.552 106.089, 137.167 103.539, 137.398 103.164 C 138.755 100.970, 141.160 84.961, 141.995 72.570 C 143.378 52.059, 141.162 42.218, 134.478 39.172 C 130.607 37.408, 121.051 37.726, 117.026 39.752 C 111.946 42.309, 107.836 48.615, 108.445 52.919 C 108.711 54.800, 109.498 56.690, 110.194 57.120 C 110.890 57.550, 111.527 59.241, 111.609 60.877 C 111.691 62.513, 112.741 65.232, 113.942 66.919 C 115.144 68.606, 115.830 70.466, 115.467 71.053 C 115.039 71.746, 114.397 71.558, 113.637 70.518 C 112.993 69.637, 111.390 68.373, 110.076 67.708 C 108.709 67.017, 107.103 64.807, 106.324 62.544 C 105.575 60.369, 104.030 57.597, 102.892 56.385 C 100.519 53.859, 100.725 52.228, 106.089 31.093 C 108.259 22.541, 108.705 19.349, 107.869 18.343 C 106.489 16.679, 104.773 16.627, 103.200 18.200 M 96.655 72.250 C 92.893 85.529, 91.069 92.853, 90.471 97.080 L 89.824 101.661 98.162 104.476 C 102.748 106.025, 107.063 107.499, 107.750 107.753 C 108.601 108.067, 109 107.086, 109 104.679 C 109 101.985, 108.313 100.593, 106.110 98.822 C 99.125 93.208, 94.041 74, 99.540 74 C 100.367 74, 101.570 72.843, 102.215 71.428 C 103.163 69.346, 103.111 68.683, 101.943 67.944 C 99.172 66.190, 98.131 67.037, 96.655 72.250 M 84.730 120.750 C 83.879 125.013, 83.317 128.638, 83.481 128.806 C 83.961 129.299, 88 116.786, 88 114.806 C 88 113.813, 87.612 113, 87.138 113 C 86.664 113, 85.580 116.487, 84.730 120.750" stroke="none" fill="black" fill-rule="evenodd"/>
</svg>