<svg xmlns="http://www.w3.org/2000/svg" width="192" height="144" viewBox="0 0 192 144" version="1.1">
	<path d="M 11.217 4.743 C 9.028 7.360, 5.610 12.200, 3.621 15.500 L 0.005 21.500 0.003 72.554 L 0 123.608 3.106 128.554 C 4.814 131.274, 8.019 135.863, 10.228 138.750 L 14.243 144 25.238 144 L 36.233 144 35.585 141.250 C 35.229 139.738, 34.511 134.900, 33.991 130.500 C 32.421 117.233, 35.354 105.851, 43.146 94.963 C 48.973 86.820, 54.776 81.767, 62.782 77.864 C 74.791 72.011, 84.305 70.811, 100.665 73.086 C 120.002 75.776, 141.718 65.548, 152.866 48.500 C 154.304 46.300, 155.756 44.275, 156.092 44 C 156.427 43.725, 156.963 42.375, 157.281 41 C 157.600 39.625, 158.371 36.700, 158.995 34.500 C 162.285 22.893, 162.439 12.871, 159.459 4.204 L 158.186 0.500 86.692 0.243 L 15.197 -0.013 11.217 4.743 M 179.244 1.750 C 180.099 2.712, 183.319 7.281, 186.399 11.903 L 192 20.306 192 10.153 L 192 0 184.845 0 C 178.105 0, 177.780 0.102, 179.244 1.750 M 101.220 10.042 C 97 11.737, 94.066 16.128, 94.032 20.800 C 93.967 29.536, 99.426 34.663, 107.787 33.721 C 114.212 32.996, 117.293 29.389, 117.732 22.080 C 118.020 17.272, 117.721 16.118, 115.573 13.740 C 111.604 9.347, 106.333 7.989, 101.220 10.042 M 76.752 109.786 C 75.240 110.729, 74.003 112.030, 74.002 112.679 C 74.001 113.327, 73.330 114.527, 72.511 115.346 C 71.692 116.165, 70.945 118.873, 70.851 121.363 C 70.655 126.545, 73.980 131.904, 79.002 134.501 C 83.181 136.662, 90.819 136.407, 94.810 133.974 C 99.515 131.106, 103.109 122.202, 100.753 119.250 C 100.204 118.563, 100.061 118, 100.434 118 C 101.705 118, 97.841 112.507, 95.171 110.519 C 91.516 107.797, 80.634 107.364, 76.752 109.786 M 189.796 127.250 C 188.930 129.037, 185.937 133.537, 183.145 137.250 L 178.068 144 185.034 144 L 192 144 192 134 C 192 128.500, 191.858 124, 191.685 124 C 191.512 124, 190.662 125.463, 189.796 127.250" stroke="none" fill="black" fill-rule="evenodd"/>
</svg>