<svg xmlns="http://www.w3.org/2000/svg" width="192" height="144" viewBox="0 0 192 144" version="1.1">
	<path d="M 99.800 70.343 C 98.888 71.255, 96.803 72, 95.165 72 C 92.351 72, 92.150 72.273, 91.500 77 C 91.122 79.750, 90.542 82, 90.211 82 C 89.880 82, 88.364 80.806, 86.841 79.348 C 84.591 77.192, 83.797 76.923, 82.606 77.912 C 81.415 78.900, 80.932 78.741, 80.035 77.065 C 78.543 74.278, 76.203 74.461, 74.832 77.470 C 73.275 80.887, 75.273 83.460, 78.248 81.867 C 80.427 80.701, 80.410 80.397, 78.792 91.500 C 78.542 93.212, 79.147 93.542, 83 93.794 L 87.500 94.088 87.354 100.431 C 87.273 103.920, 86.476 109.291, 85.582 112.367 C 81.538 126.276, 81.665 132.577, 86.012 133.713 C 87.490 134.100, 88 135.081, 88 137.535 C 88 141.828, 88.876 144, 90.607 144 C 91.553 144, 92 142.781, 92 140.200 C 92 135.718, 93.407 134, 97.078 134 C 100.219 134, 101.307 135.159, 102.947 140.250 C 104.471 144.980, 107.028 145.301, 106.930 140.750 C 106.891 138.963, 106.493 136.600, 106.046 135.500 C 105.465 134.071, 105.807 132.871, 107.243 131.300 L 109.255 129.100 106.088 124.320 C 104.347 121.690, 102.210 117.055, 101.340 114.020 C 100.470 110.984, 99.405 108.050, 98.974 107.500 C 98.542 106.950, 98.191 104.832, 98.194 102.794 C 98.199 100.073, 98.971 98.280, 101.100 96.053 C 104.254 92.752, 104.963 89, 102.433 89 C 100.722 89, 101.049 86.901, 103.579 81.642 C 104.645 79.428, 104.695 78.301, 103.804 76.642 C 103.171 75.464, 102.383 73.192, 102.054 71.593 C 101.498 68.887, 101.342 68.801, 99.800 70.343 M 37.923 70.250 C 37.881 70.388, 37.693 71.310, 37.505 72.300 C 37.024 74.828, 34.992 77.053, 32.189 78.118 C 30.418 78.792, 29.990 79.479, 30.539 80.764 C 30.947 81.719, 31.331 83.432, 31.391 84.572 C 31.451 85.711, 32.288 87.431, 33.250 88.393 C 35.406 90.549, 35.440 90.051, 32.575 98.500 C 30.579 104.388, 29.510 106.006, 25.851 108.684 C 20.591 112.533, 15.516 112.980, 11.647 109.937 C 9.494 108.244, 8.215 107.995, 4.512 108.550 L -0 109.227 0.027 114.364 L 0.053 119.500 13.138 125.500 C 22.603 129.840, 26.462 132.122, 27.087 133.750 C 27.589 135.058, 28.798 136, 29.975 136 C 31.671 136, 32 136.650, 32 140 C 32 143.986, 32.013 144, 35.921 144 C 39.443 144, 39.906 143.702, 40.485 141.069 C 41.219 137.725, 42.446 136.526, 46 135.681 C 47.375 135.354, 49.365 134.454, 50.422 133.681 C 52.308 132.302, 52.299 132.164, 49.981 126.388 C 48.682 123.149, 46.596 118.552, 45.346 116.171 C 43.181 112.044, 43.136 111.517, 44.386 104.905 C 45.437 99.344, 45.449 97.629, 44.447 96.258 C 43.393 94.817, 43.585 94.187, 45.662 92.262 C 47.513 90.547, 47.947 89.419, 47.405 87.739 C 47.008 86.507, 46.625 83.997, 46.556 82.160 C 46.480 80.172, 45.747 78.438, 44.746 77.878 C 43.821 77.360, 42.323 75.376, 41.418 73.468 C 40.078 70.644, 38.303 69.010, 37.923 70.250 M 161.720 75.651 C 161.389 77.307, 159.800 80.073, 158.190 81.796 C 156.580 83.520, 155.513 85.179, 155.817 85.484 C 156.949 86.615, 157.828 98.502, 156.867 99.661 C 156.331 100.306, 155.718 104.583, 155.503 109.167 C 155.111 117.531, 153.097 124.968, 149.108 132.789 C 144.499 141.822, 146.802 144, 160.964 144 C 170.724 144, 171.396 143.865, 173.631 141.453 L 175.992 138.905 174.118 135.203 C 173.087 133.166, 171.912 129.925, 171.506 128 C 171.100 126.075, 170.139 122.623, 169.371 120.328 C 167.954 116.098, 168.533 114.036, 173.308 106.311 C 173.814 105.492, 175.348 105.894, 178.551 107.684 C 182.301 109.780, 183.846 110.100, 187.540 109.546 C 191.654 108.929, 192 108.650, 192 105.945 C 192 103.158, 191.627 102.903, 184.500 100.806 C 180.375 99.592, 177 98.231, 177 97.780 C 177 97.329, 178.059 95.282, 179.354 93.230 C 181.748 89.436, 183.527 85, 182.653 85 C 182.389 85, 180.506 87.979, 178.470 91.621 C 176.433 95.262, 174.482 97.782, 174.134 97.221 C 173.785 96.661, 172.480 96.044, 171.233 95.851 L 168.966 95.500 170.935 91.843 C 172.924 88.150, 172.853 81, 170.829 81 C 169.185 81, 163.789 76.541, 163.048 74.569 C 162.428 72.921, 162.234 73.079, 161.720 75.651 M 84 88.059 C 84 88.641, 84.450 88.840, 85 88.500 C 85.550 88.160, 86 87.684, 86 87.441 C 86 87.198, 85.550 87, 85 87 C 84.450 87, 84 87.477, 84 88.059 M 28.500 112.475 C 25.762 114.714, 25.686 114.931, 27.628 114.964 C 29.926 115.003, 32.403 112.701, 31.845 111.045 C 31.655 110.483, 30.150 111.126, 28.500 112.475" stroke="none" fill="black" fill-rule="evenodd"/>
</svg>