<svg xmlns="http://www.w3.org/2000/svg" width="192" height="144" viewBox="0 0 192 144" version="1.1">
	<path d="M 63.719 10.291 C 63.137 20.561, 60.677 29.461, 57.421 33.079 C 56.639 33.947, 56 35.181, 56 35.821 C 56 37.532, 46.651 47.969, 43.839 49.398 C 41.358 50.659, 38.222 52.571, 36.857 53.656 C 36.110 54.249, 32.800 55.759, 29.500 57.013 C 23.198 59.406, 8.533 60.348, 2.750 58.731 L 0 57.962 0 100.981 L 0 144 80.839 144 L 161.677 144 161.589 136.750 C 161.540 132.763, 162.088 126.575, 162.807 123 C 166.760 103.349, 169.202 78, 167.142 78 C 166.539 78, 165.314 76.882, 164.419 75.516 C 162.875 73.160, 162.925 72.804, 165.396 68.588 C 166.828 66.144, 168 63.492, 168 62.694 C 168 61.897, 168.675 60.685, 169.500 60 C 171.623 58.238, 171.360 56, 169.030 56 C 167.946 56, 166.062 54.650, 164.842 53 C 163.622 51.350, 162.089 50, 161.434 50 C 159.453 50, 157.504 46.875, 157.849 44.248 C 158.072 42.540, 157.190 40.759, 154.999 38.499 C 153.254 36.699, 152.269 34.952, 152.809 34.618 C 153.350 34.284, 158.452 33.756, 164.146 33.445 C 176.112 32.791, 178.879 33.858, 183.748 41.009 C 185.262 43.231, 187.738 46.675, 189.250 48.662 L 192 52.275 192 26.138 L 192 0 128.151 0 L 64.301 0 63.719 10.291 M 185.031 84 C 185.031 87.916, 185.310 89.068, 186 88 C 186.533 87.175, 186.969 85.375, 186.969 84 C 186.969 82.625, 186.533 80.825, 186 80 C 185.310 78.932, 185.031 80.084, 185.031 84" stroke="none" fill="black" fill-rule="evenodd"/>
</svg>