<svg xmlns="http://www.w3.org/2000/svg" width="192" height="144" viewBox="0 0 192 144" version="1.1">
	<path d="M 0 72 L 0 144 27 144 C 41.850 144, 54 143.706, 54 143.346 C 54 142.986, 52.433 139.889, 50.517 136.464 C 41.816 120.906, 37.432 104.371, 36.353 83.052 C 35.594 68.059, 36.855 56.359, 40.995 40.013 L 43.903 28.526 41.896 26.390 C 39.990 24.361, 39.977 24.166, 41.627 22.516 C 42.972 21.171, 44.353 20.914, 47.740 21.378 C 54.139 22.255, 71.866 27.860, 76.500 30.472 C 78.700 31.711, 89.050 34.856, 99.500 37.458 C 109.950 40.061, 119.287 42.403, 120.250 42.663 C 121.212 42.922, 122 42.654, 122 42.067 C 122 41.480, 121.175 41, 120.167 41 C 119.158 41, 118.069 40.735, 117.745 40.412 C 116.741 39.408, 143.867 13.292, 147.277 11.979 C 149.050 11.297, 152.300 9.928, 154.500 8.938 C 161.244 5.902, 167.030 5.542, 172.602 7.813 C 175.296 8.911, 178.285 10.062, 179.244 10.371 C 181.395 11.064, 184.991 16.783, 184.996 19.518 C 184.998 20.628, 183.876 23.189, 182.503 25.211 C 181.026 27.384, 180.413 29.137, 181.003 29.502 C 181.551 29.841, 182 31.801, 182 33.859 C 182 35.917, 182.540 38.140, 183.200 38.800 C 184.133 39.733, 184.022 40, 182.700 40 C 181.765 40, 181 40.686, 181 41.525 C 181 42.411, 179.774 43.295, 178.074 43.635 C 176.423 43.965, 175.342 44.727, 175.594 45.384 C 176.199 46.960, 184.789 50.833, 188.500 51.202 L 191.500 51.500 192.015 97.500 C 192.511 141.818, 192.539 140.877, 192.765 71.750 L 193 0 96.500 0 L 0 0 0 72 M 0.474 72.500 C 0.474 112.100, 0.598 128.154, 0.750 108.176 C 0.901 88.198, 0.901 55.798, 0.750 36.176 C 0.598 16.554, 0.474 32.900, 0.474 72.500 M 69.661 44.250 C 63.320 62.336, 61.945 70.272, 61.909 88.961 C 61.888 99.794, 62.364 106.570, 63.481 111.333 C 64.999 117.813, 71.392 134.990, 74.577 141.149 L 76.051 144 101.609 144 L 127.166 144 137.833 135.625 C 147.488 128.043, 159 116.454, 159 114.314 C 159 113.850, 154.275 109.058, 148.500 103.665 C 137.188 93.102, 136.537 91.784, 139.625 85.700 C 140.518 83.940, 142.768 80.624, 144.625 78.332 C 146.481 76.039, 148 73.238, 148 72.107 C 148 69.468, 143.140 66.783, 140.767 68.111 C 138.658 69.291, 137.461 67.256, 136.503 60.868 C 136.054 57.872, 136.195 55.997, 136.904 55.559 C 139.044 54.237, 137.953 52.148, 134.750 51.436 C 131.062 50.615, 125.636 50.664, 122.868 51.542 C 121.506 51.974, 121 51.636, 121 50.293 C 121 48.732, 117.616 47.578, 98.750 42.707 C 86.512 39.547, 75.533 36.970, 74.351 36.981 C 72.590 36.997, 71.745 38.306, 69.661 44.250 M 138.655 43.829 C 136.401 46.319, 136.577 47.199, 139.250 46.820 C 140.696 46.614, 141.614 45.696, 141.820 44.250 C 142.206 41.527, 140.896 41.352, 138.655 43.829 M 153.043 87.036 L 149.586 89.991 153.500 94 C 156.722 97.300, 157.567 97.737, 158.275 96.472 C 159.195 94.829, 158.199 83.973, 157.135 84.041 C 156.786 84.063, 154.944 85.411, 153.043 87.036" stroke="none" fill="black" fill-rule="evenodd"/>
</svg>