<svg xmlns="http://www.w3.org/2000/svg" width="192" height="144" viewBox="0 0 192 144" version="1.1">
	<path d="M -0 34.545 L -0 69.091 3.750 68.419 C 13.700 66.637, 27.248 62.511, 34.853 58.947 C 39.486 56.776, 44.097 55, 45.100 55 C 46.122 55, 53.714 61.820, 62.376 70.518 C 78.491 86.702, 82.011 89.145, 91.053 90.421 L 95.606 91.063 97.977 85.341 C 101.055 77.916, 105.792 72.766, 112.001 70.095 C 116.546 68.140, 116.878 67.777, 115.757 65.983 C 115.063 64.872, 113.845 64.232, 112.959 64.513 C 112.095 64.787, 110.457 64.143, 109.318 63.082 C 107.719 61.592, 106.962 61.420, 105.995 62.326 C 105.002 63.256, 104.881 62.912, 105.411 60.667 C 105.955 58.363, 105.707 57.736, 104.086 57.312 C 102.484 56.893, 102.206 56.221, 102.671 53.895 C 103.203 51.234, 103.016 51, 100.348 51 C 97.034 51, 93 48.544, 93 46.527 C 93 44.652, 90.932 44.110, 88.291 45.294 C 86.635 46.036, 85.445 45.867, 83.541 44.619 C 80.529 42.645, 80.312 41.353, 82.858 40.545 C 83.879 40.221, 86.568 38.246, 88.832 36.155 C 92.852 32.444, 92.934 32.237, 92.347 27.285 C 91.807 22.722, 91.959 22.148, 93.873 21.540 C 95.043 21.169, 96 20.480, 96 20.009 C 96 18.230, 101.382 12.860, 105.703 10.328 C 112.143 6.554, 117.105 5.830, 126.851 7.241 L 135.201 8.450 140.557 14.235 C 146.484 20.637, 147.647 24.068, 146.589 32.041 C 145.833 37.741, 147.388 41.659, 151.634 44.752 C 153.563 46.157, 154.128 47.225, 153.629 48.523 C 153.100 49.904, 152.657 50.057, 151.767 49.167 C 151.125 48.525, 149.739 48, 148.687 48 C 147.151 48, 146.856 48.564, 147.192 50.856 C 147.531 53.163, 147.283 53.625, 145.901 53.264 C 144.714 52.953, 144.239 53.379, 144.346 54.658 C 144.451 55.912, 143.931 56.404, 142.718 56.199 C 141.240 55.949, 141.049 56.375, 141.597 58.699 C 142.141 61.003, 142.022 61.278, 140.929 60.250 C 138.935 58.374, 137 58.744, 137 61 C 137 63.289, 135.813 63.525, 133.032 61.788 C 130.498 60.206, 129.891 60.946, 130.833 64.467 C 131.406 66.612, 132.576 67.671, 135.483 68.678 C 140.344 70.361, 142.483 72.273, 144.036 76.322 C 144.706 78.070, 145.759 80.788, 146.377 82.363 L 147.500 85.225 155.500 84.468 C 159.900 84.052, 165.525 83.792, 168 83.889 C 174.670 84.153, 181.493 82.194, 186.928 78.456 L 191.755 75.136 191.914 95.304 C 192.011 107.612, 191.715 115.089, 191.154 114.487 C 190.374 113.650, 184.886 99.202, 183.289 93.781 C 183.011 92.835, 183.245 90.736, 183.810 89.116 C 184.375 87.496, 184.640 85.973, 184.399 85.733 C 183.387 84.720, 174 87.338, 174 88.633 C 174 89.385, 174.367 90, 174.815 90 C 175.263 90, 176.347 91.504, 177.223 93.341 C 178.684 96.405, 178.679 97.602, 177.158 107.760 C 176.246 113.852, 175.212 119.124, 174.859 119.476 C 174.237 120.096, 169.323 108.149, 166.970 100.293 C 166.018 97.116, 166.085 95.733, 167.335 92.740 L 168.867 89.075 162.194 89.126 C 158.524 89.155, 155.187 89.384, 154.778 89.637 C 154.370 89.890, 155.216 91.880, 156.658 94.060 C 159.271 98.008, 159.277 98.057, 158.091 107.261 C 156.492 119.673, 155.976 122.103, 155.064 121.539 C 154.638 121.276, 153.036 117.560, 151.504 113.281 C 147.901 103.219, 146.587 101.860, 147.364 109 C 147.694 112.025, 148.265 121.146, 148.634 129.269 L 149.305 144.038 170.903 143.769 L 192.500 143.500 192.732 71.750 L 192.964 0 96.482 0 L 0 0 -0 34.545 M 0.450 35 C 0.450 53.975, 0.584 61.737, 0.748 52.250 C 0.913 42.762, 0.913 27.237, 0.748 17.750 C 0.584 8.262, 0.450 16.025, 0.450 35 M 39.352 63.050 C 37.077 64.508, 36.347 65.612, 36.719 67.033 C 37.002 68.115, 37.570 69, 37.981 69 C 38.392 69, 39.927 70.731, 41.393 72.846 C 43.955 76.543, 44.051 77.164, 43.877 88.881 C 43.777 95.585, 43.341 101.289, 42.908 101.557 C 42.475 101.824, 39.401 97.196, 36.078 91.272 C 29.848 80.165, 28.670 75.353, 31.081 70.849 C 31.676 69.738, 31.976 68.643, 31.749 68.416 C 31.522 68.189, 28.570 69.128, 25.188 70.502 C 21.807 71.876, 18.157 73, 17.079 73 C 14.478 73, 13.313 75.036, 15.282 76.138 C 19.244 78.355, 20.667 83.128, 20.907 95 C 21.176 108.371, 21.595 108.390, 12.024 94.603 C 5.507 85.216, 5.768 86.196, 7.204 76.500 C 7.441 74.899, 6.852 74.438, 4.250 74.187 L 1 73.873 1 108.937 L 1 144 46.933 144 C 98.365 144, 93.198 144.815, 94.462 136.500 C 94.922 133.478, 94.430 130.911, 92.450 126 C 86.125 110.312, 84.951 105.897, 86.032 101.881 C 86.594 99.793, 87.472 97.826, 87.984 97.510 C 90.607 95.889, 84.849 92, 79.825 92 C 78.097 92, 78.062 92.219, 79.380 94.767 C 80.563 97.055, 80.639 99.783, 79.823 110.517 C 79.279 117.658, 78.483 123.867, 78.052 124.315 C 77.621 124.764, 74.929 119.298, 72.068 112.170 C 67.209 100.060, 66.939 98.941, 67.961 95.146 C 68.562 92.912, 69.492 90.814, 70.027 90.483 C 72.082 89.213, 70.827 86.009, 66.447 81.347 C 63.861 78.593, 62.386 77.512, 63.033 78.844 C 64.363 81.583, 63.303 107, 61.859 107 C 61.373 107, 59.912 104.638, 58.612 101.750 C 57.313 98.862, 54.802 93.412, 53.032 89.637 C 50.055 83.288, 49.901 82.465, 50.980 78.637 C 53.441 69.909, 53.496 70.252, 48.883 65.492 C 46.489 63.021, 44.073 61.008, 43.515 61.017 C 42.957 61.026, 41.084 61.941, 39.352 63.050 M 146.543 90.931 C 145.860 92.036, 147.437 93.230, 148.361 92.306 C 149.311 91.355, 149.134 90, 148.059 90 C 147.541 90, 146.859 90.419, 146.543 90.931 M 95.192 97.075 C 95.389 97.666, 95.977 98.150, 96.500 98.150 C 97.023 98.150, 97.611 97.666, 97.808 97.075 C 98.005 96.484, 97.417 96, 96.500 96 C 95.583 96, 94.995 96.484, 95.192 97.075 M 97 100.941 C 97 101.459, 97.450 102.160, 98 102.500 C 98.550 102.840, 99 102.416, 99 101.559 C 99 100.702, 98.550 100, 98 100 C 97.450 100, 97 100.423, 97 100.941" stroke="none" fill="black" fill-rule="evenodd"/>
</svg>