<svg xmlns="http://www.w3.org/2000/svg" width="192" height="144" viewBox="0 0 192 144" version="1.1">
	<path d="M 107.500 1 C 107.160 1.550, 105.304 2, 103.375 2 C 101.447 2, 98.969 2.481, 97.870 3.069 C 96.427 3.842, 95.487 3.819, 94.485 2.988 C 92.684 1.493, 83.659 1.449, 78.295 2.908 C 72.956 4.361, 70.715 6.524, 71.612 9.355 C 73.157 14.232, 78.733 23.563, 80.605 24.405 C 82.750 25.369, 85.259 32.611, 84.969 37 C 84.878 38.375, 84.719 43.550, 84.616 48.500 C 84.324 62.464, 82.502 69.388, 78.814 70.559 C 77.459 70.989, 76.989 72.022, 77.099 74.326 C 77.183 76.072, 74.485 85.740, 71.104 95.811 C 65.234 113.297, 64.605 116.749, 67.492 115.641 C 68.464 115.269, 68.389 116.146, 67.189 119.201 C 65.604 123.236, 65.610 123.268, 68.354 125.628 C 69.871 126.933, 71.716 128, 72.455 128 C 73.989 128, 78.136 140.481, 77.314 142.624 C 76.872 143.776, 82.496 144, 111.846 144 L 146.906 144 146.482 139.250 C 145.035 123.008, 145.044 120.609, 146.562 118.932 C 147.940 117.409, 147.569 116.077, 142.648 104.875 C 135.851 89.400, 133.627 81.800, 134.514 77.076 C 135.372 72.501, 135.372 72.500, 132.740 72.500 C 130.896 72.500, 130.380 71.737, 129.701 68 C 127.971 58.484, 127.113 56.498, 123.918 54.611 C 122.142 53.561, 121.234 52.473, 121.829 52.106 C 122.463 51.714, 122.764 48.292, 122.589 43.478 C 122.203 32.895, 122.755 30, 125.156 30 C 128.239 30, 128.421 27.235, 125.616 22.997 C 124.177 20.822, 123 18.837, 123 18.585 C 123 18.333, 124.445 17.986, 126.211 17.813 C 130.012 17.442, 130.751 15.621, 130.900 6.250 L 131 0 119.559 0 C 113.010 0, 107.854 0.428, 107.500 1 M 119.755 85.750 C 119.326 89.212, 121.571 106.904, 122.564 107.898 C 123.585 108.918, 123.699 107.160, 122.947 102 C 122.507 98.975, 122.113 93.237, 122.073 89.250 C 121.996 81.599, 120.540 79.401, 119.755 85.750" stroke="none" fill="black" fill-rule="evenodd"/>
</svg>