<svg xmlns="http://www.w3.org/2000/svg" width="192" height="144" viewBox="0 0 192 144" version="1.1">
	<path d="M 100.642 20.180 C 99.577 20.777, 99 22.410, 99 24.833 C 99 31.725, 94.154 58.414, 92.709 59.478 C 91.359 60.473, 89.746 67.481, 89.943 71.500 C 90.296 78.727, 89.234 84.416, 83.318 107 C 81.950 112.225, 80.733 117.041, 80.613 117.702 C 80.494 118.363, 79.633 119.749, 78.698 120.781 C 77.764 121.813, 77 123.329, 77 124.151 C 77 124.972, 76.259 127.819, 75.353 130.478 C 73.823 134.966, 73.823 135.398, 75.353 136.516 C 76.277 137.192, 77 139.099, 77 140.860 C 77 143.551, 77.361 144, 79.525 144 C 81.538 144, 82.173 143.383, 82.658 140.961 C 83.394 137.281, 85.618 137.624, 85.212 141.355 L 84.924 144 119.756 144 L 154.587 144 155.968 137.775 C 157.103 132.663, 157.146 128.539, 156.211 114.707 C 155.099 98.252, 155.131 97.595, 157.607 86.182 C 161.169 69.758, 161.181 57.134, 157.643 47 C 153.433 34.940, 147.492 31.088, 132.632 30.785 C 124.388 30.617, 122.876 31.274, 115.464 38.249 C 111.397 42.077, 111.179 42.561, 111.570 46.902 C 111.839 49.884, 112.677 52.073, 113.954 53.129 C 115.859 54.705, 115.863 54.814, 114.097 56.412 C 112.546 57.815, 112.403 58.778, 113.150 62.783 C 114.432 69.664, 114.978 71, 116.508 71 C 118.598 71, 119.485 73.163, 117.903 74.402 C 117.131 75.006, 116.500 77.075, 116.500 79 C 116.500 82.176, 116.215 82.528, 113.425 82.800 C 110.707 83.066, 110.158 82.659, 108.709 79.300 C 107.807 77.210, 106.368 72.986, 105.511 69.913 C 104.654 66.841, 102.984 63.286, 101.799 62.015 L 99.645 59.703 101.443 49.102 C 102.431 43.271, 104.124 34.987, 105.205 30.694 C 106.286 26.400, 106.945 22.300, 106.670 21.583 C 105.995 19.823, 102.664 19.049, 100.642 20.180 M 92.657 92.750 C 90.713 100.862, 88.870 109.188, 88.561 111.250 C 88.253 113.313, 87.760 116.545, 87.467 118.434 L 86.934 121.868 91.717 122.557 C 94.348 122.936, 98.017 123.866, 99.872 124.623 C 101.727 125.380, 103.635 126, 104.114 126 C 104.592 126, 103.817 122.963, 102.391 119.250 C 98.690 109.609, 96.867 101.284, 97.206 95.571 C 97.482 90.928, 97.701 90.566, 100.701 89.793 C 102.461 89.340, 104.152 88.563, 104.458 88.068 C 105.853 85.811, 100.383 78, 97.408 78 C 96.669 78, 94.807 83.781, 92.657 92.750" stroke="none" fill="black" fill-rule="evenodd"/>
</svg>