<svg xmlns="http://www.w3.org/2000/svg" width="192" height="144" viewBox="0 0 192 144" version="1.1">
	<path d="M 31.357 22.806 C 29.078 23.738, 25.928 25.790, 24.357 27.366 L 21.500 30.233 21.760 43.185 C 22.031 56.716, 23.205 61.257, 26.739 62.455 C 30.187 63.625, 34 67.864, 34 70.529 C 34 73.257, 32.980 74.372, 22.124 83.500 C 16.530 88.204, 16.173 88.767, 16.099 93 C 16.033 96.701, 16.639 98.279, 19.510 101.891 C 24.502 108.171, 23.896 114.319, 17.618 121.090 C 15.910 122.931, 15.035 125.387, 14.527 129.767 L 13.818 135.875 17.659 136.529 C 19.772 136.889, 23.075 137.589, 25 138.086 C 30.779 139.577, 66.388 139.176, 76.500 137.506 C 84.192 136.236, 89.796 136.185, 115.050 137.159 C 131.302 137.785, 146.193 137.999, 148.140 137.634 C 153.451 136.637, 156.247 133.061, 156.785 126.578 C 157.143 122.265, 156.825 120.557, 155.246 118.320 C 151.592 113.142, 148 105.099, 148 102.098 C 148 97.685, 149.737 93.913, 153.189 90.831 C 156.412 87.954, 158.335 87.520, 172.500 86.477 C 185.321 85.533, 186.740 85.139, 187.269 82.374 C 187.815 79.519, 184.698 75.002, 182.177 74.995 C 179.999 74.989, 170.541 71.014, 165.750 68.091 C 162.578 66.155, 162 65.268, 162 62.335 C 162 60.429, 162.433 58.060, 162.961 57.072 C 166.903 49.706, 164.241 46.164, 152.014 42.504 C 141.983 39.502, 126.197 39.065, 119.500 41.604 C 110.302 45.092, 109.366 45.182, 104.764 43.019 C 102.372 41.895, 97.937 38.618, 94.907 35.738 C 84.957 26.278, 84.629 26.091, 72.562 23.020 C 61.971 20.325, 37.732 20.199, 31.357 22.806" stroke="none" fill="black" fill-rule="evenodd"/>
</svg>