<svg xmlns="http://www.w3.org/2000/svg" width="192" height="144" viewBox="0 0 192 144" version="1.1">
	<path d="M 146 3.459 C 138.899 7.025, 131.729 14.010, 129.367 19.664 C 127.651 23.771, 128.251 27.778, 131.129 31.436 L 133.119 33.967 130.059 38.414 C 128.377 40.859, 127 43.151, 127 43.507 C 127 43.862, 128.879 44.017, 131.175 43.851 C 134.856 43.586, 135.448 43.843, 136.176 46.027 C 136.791 47.874, 139.163 49.498, 145.501 52.413 C 150.175 54.563, 154 56.618, 154 56.981 C 154 58.043, 142.580 70, 141.565 70 C 141.056 70, 136.333 72.191, 131.069 74.868 C 125.806 77.546, 120.272 80.027, 118.770 80.382 C 117.269 80.737, 114.733 82.306, 113.135 83.868 C 111.348 85.615, 108.650 86.960, 106.121 87.365 C 100.289 88.297, 91.996 92.324, 88.620 95.863 C 85.938 98.673, 85.854 98.996, 87.395 100.538 C 88.306 101.449, 89.715 101.940, 90.526 101.629 C 91.337 101.317, 92 101.499, 92 102.031 C 92 103.656, 93.346 103.104, 96.793 100.065 C 100.726 96.597, 105.345 95.636, 117.489 95.758 C 122.432 95.808, 126.932 95.473, 127.489 95.013 C 129.231 93.573, 139.393 90.001, 141.750 90.001 C 142.988 90, 144 89.550, 144 89 C 144 88.450, 144.761 88, 145.690 88 C 148.371 88, 160 81.795, 160 80.364 C 160 78.952, 163.410 76.744, 164.268 77.601 C 164.559 77.893, 166.022 76.527, 167.518 74.566 C 169.014 72.605, 171.074 71, 172.096 71 C 173.118 71, 174.622 69.981, 175.438 68.735 C 176.254 67.490, 179.190 64.741, 181.962 62.627 C 185.851 59.661, 187.572 58.927, 189.501 59.411 L 192 60.038 192 33.816 L 192 7.594 188 11.500 C 184.598 14.822, 184 15.103, 184 13.377 C 184 10.739, 181.038 8.160, 172.838 3.658 C 166.907 0.402, 165.424 0.011, 159.338 0.097 C 153.731 0.177, 151.330 0.782, 146 3.459" stroke="none" fill="black" fill-rule="evenodd"/>
</svg>