<svg xmlns="http://www.w3.org/2000/svg" width="192" height="144" viewBox="0 0 192 144" version="1.1">
	<path d="M 63.755 4.805 C 65.052 18.301, 58.381 35.523, 48.086 45.257 C 35.961 56.720, 13.657 63.077, 1.750 58.464 C 0.100 57.825, 0 60.247, 0 100.893 L 0 144 52.296 144 L 104.593 144 105.833 136.750 C 106.515 132.762, 108.366 125.450, 109.947 120.500 C 113.739 108.625, 117.064 89.682, 116.315 84.222 C 115.879 81.037, 114.997 79.422, 112.865 77.904 C 109.632 75.602, 109.340 73.790, 111.524 69.601 C 112.355 68.007, 112.835 66.501, 112.589 66.255 C 112.343 66.009, 109.747 66.517, 106.821 67.383 C 102.208 68.748, 101.356 68.766, 100.420 67.520 C 99.826 66.730, 97.126 65.581, 94.420 64.967 C 89.768 63.910, 73.150 58.778, 66.719 56.411 C 65.091 55.811, 63.341 54.574, 62.830 53.661 C 61.417 51.135, 66.820 51.486, 73.780 54.372 C 81.178 57.439, 96.186 59.941, 96.766 58.203 C 96.988 57.535, 97.633 57.273, 98.197 57.622 C 98.762 57.971, 99.577 57.684, 100.010 56.984 C 100.630 55.980, 101.757 55.953, 105.341 56.856 C 112.313 58.611, 115.676 58.348, 116.290 56 C 116.626 54.713, 116.320 54, 115.432 54 C 114.057 54, 110.770 48.765, 111.212 47.280 C 111.340 46.851, 110.581 45.206, 109.526 43.625 C 107.702 40.894, 107.691 40.603, 109.299 37.802 C 110.535 35.649, 110.723 34.351, 109.996 32.992 C 109.448 31.969, 109 30.153, 109 28.957 C 109 27.088, 109.385 26.878, 111.750 27.461 C 117.051 28.769, 126.526 33.350, 129.229 35.913 C 131.927 38.470, 132.444 40.289, 135.840 59.169 C 136.251 61.457, 137.536 63.650, 139.250 64.992 C 141.425 66.695, 142 67.974, 142 71.108 C 142 73.287, 142.652 76.067, 143.448 77.285 C 144.245 78.503, 145.185 82.650, 145.537 86.500 C 145.889 90.350, 146.780 96.584, 147.517 100.354 C 148.851 107.172, 148.650 110, 146.834 110 C 146.310 110, 146.200 110.515, 146.590 111.145 C 147.076 111.931, 146.494 112.136, 144.732 111.800 C 141.678 111.216, 141.503 110.591, 148.950 126.890 C 151.765 133.053, 154.337 139.434, 154.664 141.070 L 155.259 144.043 173.879 143.772 L 192.500 143.500 192.825 129 C 193.003 121.025, 192.837 88.737, 192.455 57.250 L 191.761 0 127.527 -0 L 63.294 -0 63.755 4.805 M 0.459 101 C 0.459 124.925, 0.589 134.713, 0.749 122.750 C 0.908 110.788, 0.908 91.213, 0.749 79.250 C 0.589 67.288, 0.459 77.075, 0.459 101 M 137.486 90.692 C 137.882 94.923, 138.565 99.310, 139.003 100.442 C 140.666 104.739, 141.258 99.089, 139.996 90.972 C 138.375 80.553, 136.516 80.346, 137.486 90.692" stroke="none" fill="black" fill-rule="evenodd"/>
</svg>