<svg xmlns="http://www.w3.org/2000/svg" width="192" height="144" viewBox="0 0 192 144" version="1.1">
	<path d="M 0 72 L 0 144 34 144 L 68 144 68 140.544 C 68 138.482, 66.964 135.562, 65.430 133.302 C 63.600 130.606, 63.041 128.792, 63.490 127.007 C 63.837 125.628, 64.375 123.150, 64.686 121.500 C 64.997 119.850, 65.700 117.938, 66.248 117.250 C 66.925 116.401, 66.837 115.508, 65.971 114.465 C 65.263 113.611, 64.674 110.229, 64.645 106.850 C 64.603 102.006, 64.977 100.490, 66.482 99.390 C 67.520 98.630, 68.437 97.103, 68.519 95.996 C 68.600 94.889, 69.642 92.946, 70.833 91.677 C 72.586 89.811, 73 88.158, 73 83.014 C 73 79.284, 73.536 76.005, 74.297 75.079 C 75.011 74.210, 76.639 70.887, 77.916 67.693 C 80.149 62.109, 80.211 61.224, 79.520 44.640 C 78.988 31.877, 79.128 26.304, 80.059 23.197 C 80.751 20.889, 81.658 19, 82.075 19 C 82.492 19, 83.756 20.237, 84.885 21.750 L 86.937 24.500 86.968 12.250 L 87 0 43.500 0 L 0 0 0 72 M 86 61 C 86 61.550, 86.450 62, 87 62 C 87.550 62, 88 61.550, 88 61 C 88 60.450, 87.550 60, 87 60 C 86.450 60, 86 60.450, 86 61 M 86 66.941 C 86 68.559, 86.450 70.160, 87 70.500 C 87.595 70.868, 88 69.677, 88 67.559 C 88 65.602, 87.550 64, 87 64 C 86.450 64, 86 65.323, 86 66.941 M 83.250 84.662 C 82.563 84.940, 82 85.894, 82 86.783 C 82 88.041, 82.267 88.133, 83.200 87.200 C 83.860 86.540, 84.760 86, 85.200 86 C 85.640 86, 86 99.050, 86 115 L 86 144 96.687 144 L 107.374 144 104.677 141.185 C 102.216 138.616, 101.990 137.722, 102.088 130.935 C 102.147 126.846, 102.138 122.375, 102.067 121 C 101.760 115.034, 102.156 112.115, 103.416 111.070 C 104.994 109.760, 104.739 101.339, 103.072 99.672 C 102.482 99.082, 102 97.620, 102 96.422 C 102 93.529, 99.566 91.641, 96.747 92.349 C 94.984 92.791, 93.452 91.920, 89.984 88.506 C 85.284 83.878, 85.246 83.857, 83.250 84.662 M 96.750 124.080 C 94.225 125.551, 94.587 126.660, 97.978 127.842 C 101.441 129.050, 102.593 127.977, 101.011 125.021 C 99.795 122.748, 99.245 122.627, 96.750 124.080 M 65 127.800 C 65 130.499, 66.539 133, 68.200 133 C 69.141 133, 69.266 128.855, 68.393 126.582 C 67.362 123.896, 65 124.744, 65 127.800" stroke="none" fill="black" fill-rule="evenodd"/>
</svg>