<svg xmlns="http://www.w3.org/2000/svg" width="192" height="144" viewBox="0 0 192 144" version="1.1">
	<path d="M 0 57 L 0 114 4.500 114 L 9 114 9 107.547 C 9 100.274, 10.495 96, 13.038 96 C 15.444 96, 17.337 93.396, 16.700 90.962 C 16.348 89.614, 16.820 88.505, 18.082 87.716 C 19.137 87.058, 20 85.502, 20 84.259 C 20 83.017, 20.450 82, 21 82 C 21.550 82, 22 83.302, 22 84.893 C 22 86.581, 22.644 88.033, 23.547 88.380 C 24.398 88.706, 25.019 89.542, 24.928 90.237 C 24.507 93.455, 25.117 96, 26.309 96 C 27.029 96, 28.468 96.622, 29.508 97.382 C 31.121 98.561, 31.362 99.895, 31.151 106.481 C 30.972 112.112, 31.228 114.091, 32.101 113.800 C 32.759 113.580, 33.476 111.658, 33.694 109.527 C 34.092 105.654, 36.759 100, 38.190 100 C 39.501 100, 42 105.772, 42 108.802 L 42 111.704 50.250 112.346 C 54.787 112.699, 60.784 112.991, 63.576 112.994 C 67.692 112.999, 69.095 113.472, 71 115.500 C 72.292 116.875, 73.720 118, 74.174 118 C 74.628 118, 75 114.609, 75 110.465 C 75 105.213, 75.489 102.183, 76.615 100.465 C 78.690 97.298, 79.191 97.360, 81.370 101.050 C 83.014 103.833, 83.109 105.845, 82.449 124.050 L 81.726 144 136.703 144 L 191.681 144 192.338 120.750 C 192.700 107.963, 192.996 75.563, 192.998 48.750 L 193 0 96.500 0 L 0 0 0 57 M 0.468 57.500 C 0.468 88.850, 0.595 101.530, 0.750 85.679 C 0.904 69.827, 0.904 44.177, 0.749 28.679 C 0.594 13.180, 0.468 26.150, 0.468 57.500 M 119.034 34.445 C 117.013 37.715, 115.892 38.479, 113.676 38.094 C 113.222 38.015, 113.122 38.389, 113.454 38.925 C 113.785 39.461, 113.143 40.388, 112.028 40.985 C 108.935 42.641, 109.529 44.262, 112.953 43.510 C 115.655 42.917, 115.984 43.145, 116.807 46.181 C 117.302 48.006, 117.365 50.180, 116.946 51.011 C 115.956 52.978, 116.954 58.097, 118.661 59.804 C 119.397 60.540, 120 61.748, 120 62.488 C 120 64.486, 112.648 72, 110.692 72 C 109.761 72, 109 72.675, 109 73.500 C 109 74.325, 109.450 75, 110 75 C 110.550 75, 111 75.633, 111 76.406 C 111 77.292, 111.698 77.630, 112.887 77.319 C 113.925 77.048, 115.077 77.315, 115.446 77.913 C 115.816 78.511, 116.960 79, 117.989 79 C 119.169 79, 119.979 79.832, 120.180 81.250 C 120.656 84.600, 123.291 83.969, 124.357 80.250 C 125.855 75.027, 128.662 76.113, 129.951 82.413 C 130.785 86.492, 134.351 86.793, 134.809 82.823 C 135.098 80.321, 135.312 80.213, 138.059 81.171 C 139.677 81.734, 141.014 82.714, 141.032 83.348 C 141.049 83.982, 141.667 83.705, 142.405 82.733 C 143.142 81.761, 144.420 81.224, 145.244 81.540 C 146.799 82.137, 150 79.634, 150 77.822 C 150 77.252, 150.661 77.040, 151.468 77.349 C 152.275 77.659, 153.178 77.521, 153.474 77.042 C 153.770 76.563, 153.500 76, 152.875 75.792 C 151.454 75.318, 150.863 69, 152.239 69 C 152.860 69, 152.819 68.487, 152.131 67.658 C 151.519 66.920, 151.313 66.020, 151.675 65.658 C 152.037 65.296, 151.787 65, 151.119 65 C 150.451 65, 148.862 63.875, 147.588 62.500 C 145.706 60.469, 144.323 60, 140.222 60 L 135.174 60 136.292 57.038 C 137.744 53.191, 136.894 52.486, 133.143 54.426 C 129.209 56.460, 128.999 56.426, 129.003 53.750 C 129.005 52.362, 130.157 50.733, 132.008 49.500 C 133.659 48.400, 134.809 46.970, 134.564 46.323 C 134.319 45.676, 134.762 44.612, 135.548 43.960 C 137.582 42.272, 136.629 41.356, 132.081 40.629 C 128.364 40.035, 128.065 39.730, 127.282 35.748 C 126.580 32.176, 126.032 31.451, 123.839 31.195 C 121.771 30.953, 120.777 31.625, 119.034 34.445" stroke="none" fill="black" fill-rule="evenodd"/>
</svg>