<svg xmlns="http://www.w3.org/2000/svg" width="192" height="144" viewBox="0 0 192 144" version="1.1">
	<path d="M 0 72 L 0 144 18.500 144 C 29.014 144, 37 143.605, 37 143.085 C 37 140.072, 43.861 125.040, 47.439 120.215 C 51.195 115.149, 51.626 114.018, 51.234 110.256 C 50.990 107.921, 50.421 106.240, 49.969 106.519 C 48.957 107.145, 49.649 93.471, 51.005 86.066 C 51.552 83.078, 52.020 73.403, 52.044 64.566 C 52.095 45.674, 52.769 41.384, 56.540 35.942 C 58.853 32.604, 59.183 31.424, 58.415 29.238 C 57.866 27.679, 56.486 26.351, 55.065 26.015 C 52.279 25.358, 51.030 23, 53.469 23 C 55.285 23, 62.980 18.859, 62.992 17.875 C 62.997 17.531, 61.545 16.959, 59.766 16.603 C 56.129 15.876, 49 11.494, 49 9.986 C 49 8.693, 52.613 8.723, 55.066 10.035 C 57.533 11.356, 57.496 10.750, 54.750 4.886 L 52.500 0.082 26.250 0.041 L 0 0 0 72 M 57 0.491 C 57 1.209, 64.109 10.453, 64.897 10.761 C 65.265 10.905, 66.020 8.542, 66.575 5.511 L 67.585 -0 62.292 -0 C 59.382 -0, 57 0.221, 57 0.491 M 71.223 5.250 C 70.650 8.138, 70.263 10.585, 70.364 10.690 C 70.464 10.794, 72.516 9.557, 74.924 7.940 C 79.957 4.560, 81.190 4.287, 80.317 6.750 C 79.294 9.633, 76.732 12.094, 72.500 14.257 L 68.500 16.302 72.925 18.184 C 75.358 19.219, 78.242 19.939, 79.332 19.783 C 82.289 19.361, 82.425 21.485, 79.526 22.806 C 75.805 24.502, 76.048 29.006, 79.986 31.333 C 85.301 34.472, 88.518 39.723, 88.310 44.918 C 87.907 54.975, 88.109 81.443, 88.593 81.927 C 89.587 82.921, 90.970 79.466, 90.985 75.950 C 91.003 71.731, 92.462 70, 96 70 C 99.538 70, 100.997 71.731, 101.015 75.950 C 101.030 79.371, 102.411 82.943, 103.343 81.971 C 103.782 81.512, 104.223 60.317, 104.076 46.708 C 104.018 41.387, 104.439 39.325, 106.019 37.188 C 107.959 34.564, 107.973 34.277, 106.389 29.627 C 104.372 23.708, 104.959 16.046, 107.905 9.853 C 109.043 7.459, 109.714 6.550, 109.394 7.832 C 108.323 12.133, 108.629 23.462, 109.921 27.319 C 110.907 30.261, 111.579 30.979, 112.850 30.449 C 120.790 27.140, 127.238 27.805, 132.830 32.511 L 135.750 34.968 138.375 31.180 C 141.050 27.320, 141.703 25, 140.115 25 C 139.628 25, 138.461 23.827, 137.522 22.393 C 135.502 19.311, 136.584 17.628, 140.701 17.448 C 142.906 17.351, 143.562 16.654, 144.496 13.416 L 145.625 9.500 146.331 13.108 C 146.931 16.171, 147.378 16.650, 149.297 16.284 C 150.680 16.019, 152.223 16.589, 153.276 17.753 C 154.915 19.564, 154.874 19.769, 152.418 22.077 C 149.911 24.432, 149.800 24.446, 148.447 22.597 C 147.377 21.134, 146.966 21.018, 146.669 22.097 C 145.453 26.513, 143.637 31.567, 143.109 32 C 142.774 32.275, 141.483 33.951, 140.239 35.724 C 138.254 38.555, 138.099 39.470, 138.965 43.224 C 139.507 45.576, 139.973 55.375, 140 65 C 140.027 74.625, 140.523 84.525, 141.102 87 C 142.202 91.697, 142.335 104.145, 141.370 112.189 L 140.808 116.877 149.289 119.464 C 153.954 120.887, 159.644 123.408, 161.933 125.067 C 166.237 128.184, 171.145 134.994, 173.215 140.718 L 174.402 144 183.201 144 L 192 144 192 72 L 192 0 132.133 0 L 72.265 0 71.223 5.250 M 87.500 92 C 87.160 92.550, 87.359 93, 87.941 93 C 88.523 93, 89 92.550, 89 92 C 89 91.450, 88.802 91, 88.559 91 C 88.316 91, 87.840 91.450, 87.500 92 M 103 92.559 C 103 93.416, 103.457 93.835, 104.016 93.490 C 104.575 93.144, 104.774 92.443, 104.457 91.931 C 103.600 90.544, 103 90.802, 103 92.559 M 94.082 96.667 C 93.525 98.683, 91.643 101.805, 89.900 103.603 C 86.755 106.848, 86.733 106.943, 86.924 116.436 C 87.030 121.696, 86.879 126, 86.589 126 C 86.298 126, 85.403 123.862, 84.600 121.250 L 83.139 116.500 83.054 121 C 82.938 127.158, 81.467 129.302, 80.585 124.599 C 79.841 120.636, 78.009 119.685, 77.985 123.250 C 77.976 124.487, 77.590 126.099, 77.126 126.831 C 76.624 127.622, 77.135 131.375, 78.383 136.081 L 80.484 144 97.662 144 L 114.841 144 115.542 137.452 C 116.087 132.365, 115.833 129.631, 114.405 125.202 L 112.566 119.500 111.607 123.250 C 110.208 128.716, 109.016 127.840, 108.888 121.250 L 108.776 115.500 107.556 121 L 106.337 126.500 105.557 117.834 C 105.128 113.068, 105.037 108.750, 105.353 108.238 C 105.670 107.725, 104.543 106, 102.850 104.403 C 101.156 102.806, 98.938 99.588, 97.921 97.250 C 96.903 94.912, 95.851 93, 95.583 93 C 95.314 93, 94.638 94.650, 94.082 96.667" stroke="none" fill="black" fill-rule="evenodd"/>
</svg>