<svg xmlns="http://www.w3.org/2000/svg" width="192" height="144" viewBox="0 0 192 144" version="1.1">
	<path d="M 86.601 50.035 C 83.236 53.430, 80.974 60.106, 79.997 69.525 C 78.972 79.418, 78.320 82, 76.848 82 C 76.331 82, 74.755 83.154, 73.344 84.565 C 71.638 86.271, 70.231 86.890, 69.140 86.414 C 66.156 85.111, 65 85.160, 65 86.588 C 65 87.365, 64.550 88, 64 88 C 63.450 88, 63 89.575, 63 91.500 L 63 95 31.500 95 L 0 95 0 119.500 L 0 144 33.369 144 L 66.738 144 67.289 140.605 C 68.113 135.528, 70.750 133, 75.222 133 L 79 133 79 125.044 C 79 118.208, 78.648 116.571, 76.500 113.405 C 73.943 109.638, 73.387 105.316, 74.647 99.016 C 75.293 95.786, 75.301 95.782, 80.147 96.425 C 83.768 96.905, 84.999 96.743, 84.994 95.784 C 84.982 92.847, 82.676 86.484, 81.245 85.437 C 79.315 84.026, 80.118 80.357, 83.548 74.924 C 85.292 72.161, 86.603 71.105, 88.021 71.321 C 91.805 71.898, 92.541 73.643, 90.662 77.583 C 89.626 79.755, 89.148 82.438, 89.457 84.343 C 89.739 86.079, 90.175 89.686, 90.426 92.358 C 90.677 95.029, 91.174 97.504, 91.531 97.858 C 91.889 98.211, 95.178 98.500, 98.840 98.500 L 105.500 98.500 105.797 104.161 C 106.060 109.174, 105.766 110.205, 103.229 113.161 C 101.653 114.998, 99.754 118.075, 99.011 120 C 98.267 121.925, 96.224 126.425, 94.471 130 C 92.718 133.575, 91.405 136.950, 91.554 137.500 C 91.703 138.050, 92.099 139.742, 92.434 141.259 L 93.043 144.019 142.771 143.759 L 192.500 143.500 192.767 119 L 193.034 94.500 152.767 94.500 L 112.500 94.500 112.853 90.076 C 113.180 85.978, 113.085 85.772, 111.569 87.288 C 109.575 89.282, 105.793 88.165, 102.933 84.736 C 101.447 82.956, 101.060 82.832, 101.033 84.128 C 101.015 85.023, 100.325 86.315, 99.500 87 C 98.206 88.074, 97.999 87.645, 97.992 83.872 C 97.988 81.468, 97.550 76.800, 97.019 73.500 C 96.487 70.200, 95.792 65.700, 95.473 63.500 C 94.427 56.277, 92.036 49.228, 90.422 48.608 C 88.502 47.872, 88.888 47.728, 86.601 50.035 M 0.434 119.500 C 0.433 133.250, 0.574 139.014, 0.747 132.308 C 0.919 125.603, 0.920 114.353, 0.748 107.308 C 0.576 100.264, 0.434 105.750, 0.434 119.500" stroke="none" fill="black" fill-rule="evenodd"/>
</svg>