<svg xmlns="http://www.w3.org/2000/svg" width="192" height="144" viewBox="0 0 192 144" version="1.1">
	<path d="M 111.825 4.508 C 111.546 4.788, 107.533 5.455, 102.908 5.991 C 93.181 7.119, 87.704 8.208, 72.500 12.039 C 48.906 17.984, 31.965 24.194, 8.169 35.619 L 0.086 39.500 0.043 81.648 L 0 123.795 13.705 124.529 C 32.385 125.530, 69.691 124.497, 85.500 122.542 C 107.744 119.792, 129.180 114.959, 150 108.001 C 164.218 103.249, 170.361 100.511, 187.438 91.312 L 191.500 89.123 192.106 105.812 C 192.439 114.990, 192.610 98.038, 192.486 68.140 C 192.312 26.072, 191.980 13.605, 191.017 13.010 C 188.997 11.762, 161.257 6.170, 151.500 5.044 C 142.325 3.985, 112.747 3.586, 111.825 4.508 M 0.458 81.500 C 0.459 105.150, 0.590 114.682, 0.749 102.682 C 0.909 90.683, 0.909 71.333, 0.749 59.682 C 0.589 48.032, 0.458 57.850, 0.458 81.500 M 104 40.568 C 102.075 41.272, 98.648 41.882, 96.385 41.924 C 91.645 42.012, 88.838 43.882, 81.500 51.844 C 76.253 57.537, 73.065 64.804, 75.227 66.140 C 76.077 66.666, 76.057 67.227, 75.148 68.322 C 74.475 69.133, 74.159 70.855, 74.447 72.148 C 74.735 73.442, 75.418 76.660, 75.965 79.301 C 76.511 81.941, 77.643 84.786, 78.479 85.622 C 80.413 87.555, 80.405 86.119, 78.468 83.559 C 76.808 81.363, 76.582 80, 77.879 80 C 78.717 80, 81.394 85.399, 81.597 87.500 C 81.839 90.005, 83.342 91.869, 85.572 92.429 C 86.908 92.764, 88.007 93.592, 88.015 94.269 C 88.026 95.161, 88.264 95.131, 88.880 94.160 C 89.568 93.074, 90.493 93.211, 93.772 94.884 C 95.996 96.018, 98.002 97.506, 98.230 98.190 C 98.752 99.757, 106.148 99.378, 107.166 97.732 C 107.573 97.074, 110.380 96.517, 113.536 96.469 C 118.795 96.388, 119.430 96.110, 122.840 92.389 C 133.045 81.255, 133 81.331, 133 75.209 C 133 72.062, 133.404 68.079, 133.897 66.359 C 134.688 63.600, 134.275 62.424, 130.392 56.388 C 127.971 52.625, 125.741 48.758, 125.435 47.795 C 125.113 46.780, 123.119 45.581, 120.690 44.942 C 118.385 44.335, 115.150 43.062, 113.500 42.112 C 108.747 39.377, 107.716 39.210, 104 40.568" stroke="none" fill="black" fill-rule="evenodd"/>
</svg>