<svg xmlns="http://www.w3.org/2000/svg" width="192" height="144" viewBox="0 0 192 144" version="1.1">
	<path d="M 52 41 C 52 41.550, 50.313 42.015, 48.250 42.033 C 43.157 42.078, 39.600 45.126, 39.600 49.444 C 39.600 51.258, 40.365 53.508, 41.300 54.443 C 43.409 56.552, 43.410 57.157, 41.318 61.782 C 40.393 63.827, 39.144 67.065, 38.542 68.978 C 37.865 71.131, 36.125 73.314, 33.974 74.710 C 28.274 78.410, 27.873 78.975, 28.195 82.841 C 28.469 86.129, 28.774 86.482, 31.203 86.318 C 32.834 86.208, 35.103 84.820, 36.924 82.818 L 39.941 79.500 39.962 83 C 39.973 84.925, 38.843 91.450, 37.452 97.500 C 36.060 103.550, 34.070 112.550, 33.030 117.500 C 31.990 122.450, 30.828 127.306, 30.447 128.291 C 29.914 129.670, 30.466 130.350, 32.854 131.251 L 35.953 132.421 33.872 134.636 C 31.473 137.190, 32.108 139, 35.404 139 C 38.632 139, 41 135.951, 41 131.794 C 41 127.592, 42.570 126.077, 46 126.965 C 48.564 127.630, 48.945 129.435, 47.895 135.959 C 47.613 137.718, 48.012 138.524, 49.298 138.792 C 51.620 139.274, 54 137.280, 54 134.853 C 54 133.742, 55.044 132.554, 56.509 131.997 C 58.922 131.079, 58.999 130.784, 58.517 124.271 C 58.241 120.547, 57.819 108.640, 57.578 97.810 C 57.142 78.186, 57.147 78.120, 59.320 77.810 C 61.135 77.552, 61.508 76.829, 61.550 73.500 C 61.578 71.300, 62.413 68.269, 63.406 66.764 L 65.211 64.028 62.112 62.264 C 58.637 60.286, 58.231 58.059, 60.404 52.889 C 61.777 49.625, 61.719 49.442, 57.811 44.775 C 53.957 40.172, 52 38.900, 52 41" stroke="none" fill="black" fill-rule="evenodd"/>
</svg>