<svg xmlns="http://www.w3.org/2000/svg" width="192" height="144" viewBox="0 0 192 144" version="1.1">
	<path d="M 0 72 L 0 144 40.981 144 L 81.962 144 82.475 141.750 C 83.037 139.287, 85.051 122.235, 85.327 117.603 C 85.493 114.822, 85.158 114.591, 77 111.855 C 72.325 110.288, 65.704 107.595, 62.287 105.872 C 55.084 102.239, 45.500 94.415, 45.500 92.168 C 45.500 89.460, 56.453 85.870, 68.500 84.631 C 75.877 83.873, 80.314 82.924, 81.973 81.750 L 84.445 80 81.742 80 C 78.569 80, 77.487 77.220, 78.823 72.500 C 79.717 69.340, 81.918 68.750, 86.750 70.377 C 88.788 71.063, 88.996 70.822, 88.958 67.817 C 88.935 65.993, 88.091 62.950, 87.082 61.056 L 85.248 57.613 74.374 57.286 C 56.731 56.755, 50.901 55.671, 45.879 51.988 L 41.500 48.776 45 49.305 C 46.925 49.596, 50.461 50.427, 52.857 51.152 C 57.082 52.430, 57.278 52.390, 59.357 49.824 C 60.591 48.300, 63.302 46.715, 65.750 46.089 C 68.088 45.490, 71.780 44.538, 73.955 43.974 C 79.258 42.597, 81 40.624, 81 35.996 C 81 33.013, 80.545 31.990, 79 31.500 C 76.297 30.642, 76.461 28.216, 79.250 27.819 C 81.039 27.564, 81.459 26.916, 81.300 24.661 C 81.166 22.768, 81.509 21.981, 82.331 22.297 C 83.008 22.557, 87.823 22.445, 93.031 22.049 C 98.239 21.653, 102.867 21.525, 103.315 21.764 C 103.763 22.003, 103.425 22.978, 102.563 23.930 C 101.701 24.883, 101.334 26.001, 101.748 26.414 C 102.162 26.828, 102.500 27.560, 102.500 28.040 C 102.500 28.521, 103.372 29.551, 104.437 30.330 C 106.329 31.714, 106.322 31.763, 104.129 32.459 C 100.971 33.461, 101.604 37.376, 105 37.846 C 106.375 38.036, 107.950 38.543, 108.500 38.972 C 109.050 39.402, 112.087 40.066, 115.250 40.449 C 119.092 40.913, 121 41.595, 121 42.505 C 121 43.253, 121.912 44.155, 123.026 44.508 C 124.155 44.867, 124.930 45.864, 124.776 46.760 C 124.355 49.214, 131.237 50.361, 138.261 49.006 C 141.429 48.395, 144.467 48.170, 145.011 48.507 C 146.904 49.677, 145.982 51, 143.250 51.035 C 141.738 51.055, 139.375 51.714, 138 52.500 C 136.485 53.366, 132.545 53.957, 128 54 C 123.455 54.043, 119.515 54.634, 118 55.500 C 116.625 56.286, 114.263 56.945, 112.750 56.965 C 109.905 57.001, 109.059 58.389, 111.250 59.423 C 111.938 59.748, 110.588 59.828, 108.250 59.602 C 104.013 59.192, 104 59.200, 104 62.546 C 104 66.779, 106.319 75.783, 108.492 79.984 C 110.014 82.928, 110.443 83.139, 113.663 82.535 C 116.983 81.912, 117.135 82.002, 116.452 84.188 C 116.055 85.460, 115.326 86.761, 114.831 87.080 C 112.899 88.326, 115.393 90.903, 120.941 93.393 C 124.136 94.827, 127.201 96, 127.753 96 C 129.599 96, 131.343 99.087, 131.458 102.560 L 131.572 106 126.107 106 C 120.893 106, 114 107.715, 114 109.012 C 114 110.678, 109.559 114.042, 106.146 114.961 L 102.300 115.996 101.552 125.248 C 101.140 130.337, 100.666 136.642, 100.498 139.260 L 100.193 144.020 146.347 143.760 L 192.500 143.500 192.757 71.750 L 193.013 0 96.507 0 L 0 0 0 72 M 0.474 72.500 C 0.474 112.100, 0.598 128.154, 0.750 108.176 C 0.901 88.198, 0.901 55.798, 0.750 36.176 C 0.598 16.554, 0.474 32.900, 0.474 72.500 M 80.667 46.667 C 79.405 47.928, 80.004 49, 81.969 49 C 83.308 49, 83.753 48.520, 83.362 47.500 C 82.746 45.896, 81.747 45.587, 80.667 46.667 M 92.166 125.250 C 90.552 134.761, 89.928 144, 90.900 144 C 91.378 144, 92.036 141.637, 92.362 138.750 C 93.650 127.343, 94.233 119, 93.742 119 C 93.459 119, 92.749 121.813, 92.166 125.250" stroke="none" fill="black" fill-rule="evenodd"/>
</svg>