<svg xmlns="http://www.w3.org/2000/svg" width="192" height="144" viewBox="0 0 192 144" version="1.1">
	<path d="M 0 72 L 0 144 34.758 144 L 69.517 144 71.694 135.577 C 72.892 130.945, 75.288 123.632, 77.019 119.327 C 79.660 112.761, 80.064 110.704, 79.524 106.557 C 78.729 100.457, 78.218 99.574, 76.369 101.109 C 74.701 102.493, 73.331 101.482, 72.834 98.500 C 72.574 96.943, 72.998 96.553, 74.750 96.738 C 76.672 96.942, 76.998 96.504, 76.985 93.738 C 76.963 89.233, 75.721 87.426, 74.039 89.453 C 72.679 91.091, 69.295 91.475, 67.313 90.215 C 66.660 89.800, 65.194 87.285, 64.054 84.626 C 62.915 81.968, 61.086 78.654, 59.991 77.262 C 58.896 75.869, 58 73.427, 58 71.834 C 58 70.241, 57.356 68.690, 56.570 68.388 C 55.783 68.087, 54.682 66.526, 54.122 64.920 C 53.562 63.314, 52.631 62, 52.052 62 C 51.473 62, 51 61.264, 51 60.364 C 51 58.991, 51.752 58.831, 55.677 59.369 C 58.249 59.722, 61.097 60.683, 62.006 61.505 C 62.914 62.327, 64.162 63, 64.778 63 C 65.394 63, 67.240 64.435, 68.880 66.190 L 71.861 69.379 71.308 65.262 C 70.762 61.190, 70.793 61.141, 74.128 60.822 C 77.427 60.507, 77.505 60.391, 77.745 55.500 C 78.221 45.767, 80.179 30.534, 81.199 28.628 C 82.053 27.033, 81.950 26.805, 80.605 27.321 C 79.710 27.665, 77.615 27.673, 75.949 27.340 L 72.921 26.734 73.210 19.117 L 73.500 11.500 76.500 11.842 C 78.150 12.031, 81.975 13.101, 85 14.221 C 93.247 17.274, 97.879 17.332, 105.463 14.478 C 109.083 13.115, 113.584 12, 115.465 12 L 118.884 12 118.304 19.250 C 117.984 23.238, 117.533 26.715, 117.301 26.977 C 117.069 27.240, 115.136 27.455, 113.006 27.455 C 110.245 27.455, 109.401 27.778, 110.068 28.582 C 111.043 29.756, 112.470 39.894, 113.557 53.356 L 114.190 61.212 117.095 60.631 C 119.856 60.079, 120 60.223, 120 63.525 C 120 65.436, 119.546 67, 118.992 67 C 118.378 67, 118.451 67.750, 119.178 68.913 C 120.291 70.696, 120.545 70.559, 122.921 66.896 C 124.322 64.734, 125.967 63.157, 126.575 63.390 C 128.236 64.028, 130.357 62.386, 129.553 61.086 C 129.166 60.460, 127.692 60.072, 126.277 60.224 C 124.265 60.440, 123.666 60.029, 123.526 58.340 C 123.428 57.151, 122.488 54.901, 121.438 53.340 C 119.946 51.121, 119.525 48.695, 119.514 42.250 C 119.506 37.713, 119.829 34.001, 120.231 34 C 120.633 34, 121.240 32.893, 121.579 31.541 C 122.338 28.517, 125 25.960, 125 28.255 C 125 29.080, 125.675 30.315, 126.500 31 C 127.725 32.016, 128 31.958, 128 30.681 C 128 27.788, 129.852 27.941, 131.649 30.982 C 133.982 34.932, 134.759 34.789, 135.623 30.250 L 136.336 26.500 137.157 29.500 C 138.293 33.653, 137.987 51.061, 136.735 53.500 C 136.170 54.600, 135.099 55.860, 134.354 56.300 C 133.609 56.740, 133 57.811, 133 58.681 C 133 59.927, 133.736 60.142, 136.482 59.697 C 140.418 59.058, 142.206 60.645, 139.653 62.512 C 138.744 63.177, 138 64.668, 138 65.825 C 138 66.983, 137.100 68.411, 136 69 C 134.771 69.658, 133.988 71.117, 133.968 72.785 C 133.951 74.278, 133.291 76.353, 132.501 77.396 C 131.712 78.439, 130.121 82.131, 128.967 85.600 C 127.573 89.788, 126.218 92.113, 124.934 92.521 C 122.655 93.244, 119 92.266, 119 90.933 C 119 90.420, 118.550 90, 118 90 C 117.450 90, 117 91.399, 117 93.108 C 117 95.925, 117.235 96.158, 119.500 95.589 C 121.671 95.044, 122 95.293, 122 97.481 C 122 99.501, 121.505 100, 119.500 100 C 117.485 100, 117 100.496, 117 102.559 C 117 104.010, 116.567 104.851, 116 104.500 C 115.450 104.160, 115 102.746, 115 101.358 C 115 99.785, 114.529 98.989, 113.750 99.246 C 112.991 99.496, 112.380 101.941, 112.196 105.467 C 111.946 110.243, 112.594 113.163, 115.842 121.888 C 118.015 127.725, 120.598 135.093, 121.583 138.263 L 123.373 144.025 157.937 143.763 L 192.500 143.500 192.757 71.750 L 193.013 0 96.507 0 L 0 0 0 72 M 0.474 72.500 C 0.474 112.100, 0.598 128.154, 0.750 108.176 C 0.901 88.198, 0.901 55.798, 0.750 36.176 C 0.598 16.554, 0.474 32.900, 0.474 72.500 M 59.639 26.056 C 59.287 27.813, 59 31.215, 59 33.617 C 59 36.900, 58.504 38.293, 57 39.232 C 54.025 41.090, 54.435 46.483, 58.030 52.750 C 60.854 57.674, 61.283 58, 64.949 58 C 69.114 58, 72 56.006, 72 53.129 C 72 52.178, 72.406 50.973, 72.902 50.450 C 73.958 49.338, 74.858 34, 73.867 34 C 73.498 34, 72.725 32.650, 72.150 31 C 71.111 28.019, 69.014 26.860, 68.985 29.250 C 68.973 30.170, 68.742 30.141, 68.110 29.143 C 67.595 28.331, 66.451 28.040, 65.261 28.417 C 63.722 28.906, 62.935 28.350, 61.775 25.955 L 60.277 22.863 59.639 26.056 M 113 94.500 C 113 95.325, 113.450 96, 114 96 C 114.550 96, 115 95.325, 115 94.500 C 115 93.675, 114.550 93, 114 93 C 113.450 93, 113 93.675, 113 94.500" stroke="none" fill="black" fill-rule="evenodd"/>
</svg>