<svg xmlns="http://www.w3.org/2000/svg" width="192" height="144" viewBox="0 0 192 144" version="1.1">
	<path d="M 178.928 99.750 C 174.279 112.257, 171.698 118.633, 170.981 119.382 C 170.045 120.359, 167 113.855, 167 110.878 C 167 109.529, 166.278 109, 164.434 109 C 161.454 109, 158.021 107.352, 156.282 105.087 C 155.227 103.712, 155.059 103.839, 155.032 106.039 C 155.014 107.435, 154.104 110.335, 153.008 112.484 C 151.809 114.837, 151.406 116.633, 151.996 116.998 C 153.353 117.836, 156.015 127, 154.902 127 C 154.406 127, 154 128.803, 154 131.007 C 154 134.034, 154.611 135.544, 156.500 137.187 C 157.875 138.382, 159 140.405, 159 141.680 C 159 143.888, 159.341 144, 166.092 144 L 173.184 144 172.963 139.250 C 172.841 136.637, 172.800 134.010, 172.871 133.411 C 173.044 131.949, 177.485 130, 180.643 130 C 182.044 130, 184.386 129.173, 185.846 128.163 C 187.306 127.152, 189.287 126.041, 190.250 125.694 C 192.570 124.857, 192.631 119.456, 190.330 118.573 C 189.411 118.221, 188.385 118.378, 188.048 118.922 C 187.399 119.972, 176.811 123, 173.790 123 C 171.452 123, 171.516 122.309, 174.595 114.273 C 178.802 103.294, 180.925 97, 180.421 97 C 180.162 97, 179.490 98.237, 178.928 99.750 M 96.923 100.250 C 96.881 100.388, 96.689 101.336, 96.496 102.358 C 96.303 103.380, 95.146 105.280, 93.926 106.579 C 92.331 108.277, 91.994 109.301, 92.727 110.221 C 93.288 110.924, 94.052 113.603, 94.424 116.173 C 94.964 119.912, 94.777 121.025, 93.487 121.748 C 91.473 122.874, 92.395 127.463, 95.003 129.289 C 95.978 129.973, 97.225 132.154, 97.772 134.136 C 98.599 137.133, 98.433 138.267, 96.785 140.870 L 94.804 144 102.353 144 L 109.903 144 109.661 135.473 C 109.453 128.143, 109.636 127.031, 110.960 127.544 C 114.973 129.098, 117.730 129.145, 118.297 127.669 C 118.618 126.832, 118.221 125.598, 117.414 124.929 C 116.155 123.884, 116.269 123.550, 118.223 122.576 C 121.011 121.186, 121.355 116.257, 118.777 114.631 C 117.417 113.773, 116.745 113.961, 115.588 115.522 C 114.338 117.209, 113.820 117.316, 112.074 116.250 C 110.948 115.563, 109.384 115, 108.597 115 C 107.810 115, 106.959 115.563, 106.705 116.250 C 106.451 116.938, 106.343 114.688, 106.465 111.250 C 106.605 107.311, 106.283 104.957, 105.594 104.885 C 101.637 104.467, 99 103.071, 99 101.393 C 99 100.276, 97.216 99.294, 96.923 100.250 M 39.971 107.054 C 38.651 109.520, 33.193 113.011, 31.608 112.403 C 30.397 111.938, 30.098 120.235, 31.226 123 C 31.562 123.825, 32.021 125.654, 32.245 127.065 C 32.640 129.558, 32.533 129.612, 28.412 128.987 C 26.081 128.633, 23.033 127.596, 21.640 126.683 C 18.608 124.697, 10.755 125.378, 8.761 127.800 C 7.668 129.128, 7.857 129.243, 10.178 128.665 C 11.942 128.226, 13.351 128.494, 14.309 129.451 C 15.108 130.251, 15.992 130.674, 16.274 130.393 C 16.555 130.111, 18.515 130.808, 20.628 131.941 C 22.741 133.073, 24.955 134, 25.547 134 C 26.139 134, 27.595 134.906, 28.784 136.013 C 30.430 137.547, 30.802 138.738, 30.347 141.013 L 29.750 144 37.506 144 L 45.262 144 44.713 140.618 C 44.411 138.758, 44.619 136.781, 45.175 136.225 C 45.857 135.543, 45.603 134.324, 44.399 132.486 C 42.796 130.040, 42.772 129.640, 44.161 128.624 C 46.313 127.051, 47.179 116.394, 45.283 114.820 C 44.522 114.189, 44.006 112.733, 44.136 111.586 C 44.437 108.934, 43.142 105, 41.968 105 C 41.474 105, 40.576 105.924, 39.971 107.054" stroke="none" fill="black" fill-rule="evenodd"/>
</svg>