<svg xmlns="http://www.w3.org/2000/svg" width="192" height="144" viewBox="0 0 192 144" version="1.1">
	<path d="M 88.684 13.449 C 86.585 14.197, 84.024 15.573, 82.993 16.506 C 80.829 18.464, 78 26.123, 78 30.023 C 78 32.940, 75.289 36, 72.706 36 C 71.806 36, 69.728 37.311, 68.088 38.914 C 65.414 41.528, 65.230 42.090, 66.303 44.368 C 66.962 45.764, 68.495 47.157, 69.710 47.463 C 70.926 47.768, 73.353 49.801, 75.104 51.979 C 76.855 54.158, 78.628 55.730, 79.044 55.473 C 79.460 55.216, 79.705 56.388, 79.588 58.078 C 79.471 59.768, 78.728 61.560, 77.937 62.060 C 76.640 62.881, 77.313 63.424, 79.250 63.118 C 79.662 63.053, 80.014 64.462, 80.032 66.250 C 80.060 69.166, 80.200 69.320, 81.392 67.750 C 83.002 65.629, 84 65.506, 84 67.427 C 84 69.419, 90.129 72.410, 91.075 70.879 C 91.543 70.122, 92.198 70.502, 92.996 71.992 C 94.660 75.103, 93.034 75.965, 85.469 75.985 L 79.437 76 73.500 82 C 70.234 85.300, 67.229 88, 66.820 88 C 65.463 88, 61.853 83.559, 59.504 79 C 58.229 76.525, 55.697 72.475, 53.878 70 C 52.059 67.525, 50.688 64.752, 50.833 63.839 C 51.436 60.023, 48.890 61.466, 43.008 68.270 C 37.250 74.932, 32.913 78.974, 25.387 84.694 L 22.500 86.889 25.187 86.944 C 26.940 86.981, 29.124 88.304, 31.470 90.750 L 35.066 94.500 37.533 91.694 C 39.913 88.988, 40 88.967, 40 91.119 L 40 93.349 42.395 91.099 C 44.713 88.921, 46.964 89.632, 45.459 92.067 C 45.096 92.653, 45.632 93.742, 46.650 94.486 C 48.432 95.789, 48.418 95.926, 46.250 98.234 C 45.013 99.551, 44 100.899, 44 101.229 C 44 101.795, 52.172 107.344, 56.162 109.487 C 57.408 110.156, 58.002 111.606, 58.006 113.987 C 58.015 119.970, 59.782 124.580, 62.550 125.841 C 65.941 127.386, 67.004 127.306, 69.171 125.345 C 70.747 123.919, 71 123.900, 71 125.209 C 71 129.825, 68.663 137.753, 66.444 140.662 L 63.898 144 87.699 143.985 C 100.790 143.976, 110.973 143.634, 110.329 143.225 C 109.685 142.815, 108.834 141.185, 108.436 139.602 C 107.862 137.315, 108.152 136.393, 109.848 135.112 C 111.081 134.181, 112.588 131.177, 113.417 128 C 115.771 118.977, 116.770 117, 118.975 117 C 120.780 117, 121.553 115.199, 121.166 111.892 C 121.127 111.557, 122.378 110.054, 123.947 108.551 L 126.800 105.818 131.150 107.770 C 133.542 108.843, 138.918 112.190, 143.095 115.206 C 147.272 118.222, 151.175 120.990, 151.769 121.357 C 152.363 121.724, 154.931 120.917, 157.476 119.564 C 162.698 116.787, 163.553 116.932, 170.410 121.766 C 175.302 125.214, 175.326 125.219, 176.910 123.165 C 178.935 120.538, 183.055 119, 188.065 119 L 192 119 192 102.098 L 192 85.196 187.250 86.597 C 184.637 87.368, 178 90.218, 172.500 92.931 C 157.697 100.233, 155.588 100.682, 145.882 98.596 C 138.612 97.034, 137.642 97.014, 136.111 98.399 C 134.888 99.507, 133.585 99.718, 131.456 99.152 C 128.814 98.451, 128.377 97.752, 127.344 92.578 C 126.708 89.393, 125.689 86.289, 125.080 85.680 C 124.470 85.070, 120.514 82.755, 116.289 80.536 C 112.063 78.316, 108.413 75.825, 108.178 75 C 107.847 73.840, 108.032 73.765, 108.993 74.668 C 109.955 75.572, 110.747 75.243, 112.488 73.219 L 114.739 70.602 115.437 72.801 C 116.439 75.959, 117.679 75.527, 119.895 71.250 C 121.482 68.186, 121.963 67.820, 122.526 69.250 C 122.904 70.213, 124.011 71, 124.984 71 C 126.485 71, 126.679 70.330, 126.258 66.596 C 125.985 64.173, 126.290 59.158, 126.935 55.450 C 127.758 50.724, 127.794 48.394, 127.055 47.655 C 125.536 46.136, 125.756 43, 127.381 43 C 128.140 43, 131.776 44.135, 135.460 45.521 L 142.158 48.042 145.165 44.824 C 147.514 42.308, 148.049 40.993, 147.611 38.803 C 147.073 36.114, 147.209 36, 150.966 36 C 153.120 36, 155.150 35.567, 155.477 35.037 C 155.804 34.508, 154.997 32.370, 153.682 30.287 C 150.613 25.424, 149.659 22.455, 149.571 17.500 C 149.507 13.889, 149.230 13.469, 146.717 13.180 C 143.609 12.823, 135.224 15.355, 130.220 18.161 C 125.906 20.579, 125.347 20.512, 121.461 17.100 C 119.492 15.371, 116.086 13.755, 113.030 13.100 C 106.064 11.606, 93.340 11.788, 88.684 13.449" stroke="none" fill="black" fill-rule="evenodd"/>
</svg>