<svg xmlns="http://www.w3.org/2000/svg" width="192" height="144" viewBox="0 0 192 144" version="1.1">
	<path d="M 0 72 L 0 144 36.531 144 C 64.920 144, 73.134 143.721, 73.382 142.750 C 73.558 142.063, 74.543 139.250, 75.571 136.500 C 76.824 133.150, 77.371 129.355, 77.227 125 C 77.110 121.425, 77.021 115.709, 77.030 112.298 C 77.044 107.218, 76.703 105.912, 75.148 105.079 C 73.396 104.142, 73.344 103.649, 74.480 98.762 C 75.518 94.296, 78.429 87.027, 82.047 79.865 C 82.633 78.706, 82.137 77.541, 80.345 75.865 C 76.830 72.577, 75.873 70.494, 75.528 65.377 C 75.283 61.748, 75.602 60.748, 77.291 59.844 C 79.309 58.764, 79.297 58.712, 76.713 57.357 C 73.564 55.707, 74.010 52.551, 77.247 53.578 C 79.150 54.182, 79.220 53.917, 78.559 48.626 C 77.701 41.762, 78.316 40.506, 81.509 42.598 C 83.699 44.033, 84.116 44.032, 86.179 42.587 C 87.426 41.714, 89.081 41, 89.858 41 C 90.635 41, 92.335 39.852, 93.635 38.448 C 95.939 35.963, 96 35.434, 96 17.948 L 96 0 48 0 L 0 0 0 72 M 96 90.500 L 96 144 108.019 144 L 120.038 144 119.383 141.250 C 119.022 139.738, 117.888 136.250, 116.863 133.500 C 115.255 129.187, 115.089 126.810, 115.654 116.202 C 116.163 106.653, 116.603 104.018, 117.623 104.409 C 118.345 104.686, 119.184 104.512, 119.487 104.021 C 120.423 102.507, 118.084 94.058, 115.020 87.882 C 113.415 84.647, 112.320 82, 112.586 82 C 112.852 82, 112.624 81.166, 112.078 80.146 C 111.287 78.668, 111.672 77.731, 113.970 75.528 C 118.396 71.288, 119.491 67.849, 117.586 64.166 C 116.721 62.495, 115.561 60.847, 115.007 60.504 C 113.490 59.567, 113.798 58, 115.500 58 C 116.359 58, 117 57.099, 117 55.893 C 117 54.351, 116.560 53.955, 115.360 54.416 C 113.904 54.974, 113.794 54.318, 114.380 48.594 C 115.102 41.546, 114.270 39.997, 110.993 42.292 C 109.218 43.536, 108.406 43.424, 104.041 41.335 C 101.323 40.034, 98.825 38.527, 98.491 37.985 C 96.307 34.452, 96 40.925, 96 90.500 M 77.667 64.667 C 76.085 66.248, 77.235 69.992, 80.190 72.881 C 83.197 75.821, 86 76.951, 86 75.223 C 86 73.562, 82.807 70, 81.318 70 C 80.109 70, 79.887 69.313, 80.350 67 C 80.925 64.124, 79.472 62.861, 77.667 64.667 M 113.645 66.976 C 114.154 69.520, 113.938 70, 112.286 70 C 110.680 70, 108 73.469, 108 75.547 C 108 77.032, 111.062 75.531, 113.804 72.702 C 117.473 68.917, 117.851 66.526, 115.020 65.011 C 113.205 64.039, 113.090 64.202, 113.645 66.976 M 89 77 C 89 77.550, 89.450 78, 90 78 C 90.550 78, 91 77.550, 91 77 C 91 76.450, 90.550 76, 90 76 C 89.450 76, 89 76.450, 89 77 M 102 77 C 102 77.550, 102.702 78, 103.559 78 C 104.416 78, 104.840 77.550, 104.500 77 C 104.160 76.450, 103.459 76, 102.941 76 C 102.423 76, 102 76.450, 102 77 M 79.500 124 C 79.840 124.550, 80.316 125, 80.559 125 C 80.802 125, 81 124.550, 81 124 C 81 123.450, 80.523 123, 79.941 123 C 79.359 123, 79.160 123.450, 79.500 124" stroke="none" fill="black" fill-rule="evenodd"/>
</svg>