<svg xmlns="http://www.w3.org/2000/svg" width="192" height="144" viewBox="0 0 192 144" version="1.1">
	<path d="M 128.750 73.746 C 118.114 74.064, 118 74.093, 118 76.503 C 118 79.233, 114.873 85.343, 111.736 88.741 C 108.574 92.168, 101.863 95.001, 96.934 94.990 C 91.145 94.977, 82.926 91.109, 80.022 87.031 C 78.769 85.271, 77.014 81.791, 76.122 79.298 C 75.230 76.805, 74.162 74.818, 73.750 74.883 C 73.338 74.947, 60.513 75.030, 45.250 75.066 C 19.098 75.128, 17.817 75.215, 23 76.579 C 26.025 77.375, 39.300 83.385, 52.500 89.935 C 79.300 103.233, 83.774 104.850, 96.084 105.689 C 112.334 106.797, 123.043 102.922, 145.160 87.932 C 158.923 78.605, 163.384 76.432, 171 75.350 L 176.500 74.569 171.500 73.872 C 166.536 73.180, 149.369 73.130, 128.750 73.746" stroke="none" fill="black" fill-rule="evenodd"/>
</svg>