<svg xmlns="http://www.w3.org/2000/svg" width="192" height="144" viewBox="0 0 192 144" version="1.1">
	<path d="M 42.640 5.250 C 38.242 20.619, 33.592 43.505, 32.025 57.500 C 29.616 79.001, 31.406 115.465, 35.853 135.500 L 37.628 143.500 110.773 143.756 L 183.919 144.013 185.366 139.256 C 186.163 136.640, 187.868 132.250, 189.157 129.500 L 191.500 124.500 192.129 133.500 C 192.474 138.450, 192.588 132.150, 192.381 119.500 C 192.174 106.850, 192.004 74.788, 192.002 48.250 L 192 0 118.071 0 L 44.142 0 42.640 5.250 M 1.060 129.750 L 1 144 7 144 C 10.300 144, 13 143.818, 13 143.595 C 13 143.371, 12.094 141.459, 10.986 139.345 C 9.878 137.230, 7.205 131, 5.046 125.500 L 1.120 115.500 1.060 129.750" stroke="none" fill="black" fill-rule="evenodd"/>
</svg>