<svg xmlns="http://www.w3.org/2000/svg" width="192" height="144" viewBox="0 0 192 144" version="1.1">
	<path d="M 77.402 31.427 C 74.962 32.489, 73.920 33.916, 72.500 38.138 C 70.254 44.813, 70.404 47.501, 73.255 51.689 C 75.906 55.583, 76.765 55.778, 77.932 52.750 C 78.708 50.737, 78.875 50.686, 79.513 52.267 C 79.906 53.238, 79.878 55.263, 79.451 56.767 C 78.340 60.680, 78.666 71.506, 79.966 73.937 C 80.727 75.358, 82.072 76.005, 84.285 76.015 C 86.053 76.024, 87.950 76.361, 88.500 76.765 C 89.958 77.837, 90.301 93.902, 88.952 98 C 88.319 99.925, 87.234 104.558, 86.542 108.295 C 85.394 114.493, 85.444 115.295, 87.108 117.410 C 90.030 121.124, 94.118 122.282, 102.224 121.690 C 106.226 121.397, 110.649 120.862, 112.053 120.500 C 114.149 119.960, 114.817 120.302, 115.777 122.409 C 117.118 125.353, 116.446 128, 114.358 128 C 112.859 128, 107.936 130.842, 106.888 132.312 C 106.552 132.784, 105.942 133.067, 105.533 132.940 C 104.568 132.640, 101 135.212, 101 136.208 C 101 137.152, 115.926 136.036, 117.999 134.937 C 118.930 134.443, 120.174 134.753, 121.280 135.753 C 123.964 138.183, 128.320 136.347, 129.050 132.478 C 129.358 130.840, 130.127 129.605, 130.758 129.734 C 131.389 129.863, 132.699 128.626, 133.668 126.984 C 134.638 125.343, 135.715 124, 136.063 124 C 136.410 124, 137.732 123.100, 139 122 C 140.268 120.900, 141.886 120, 142.594 120 C 143.302 120, 144.203 119.480, 144.596 118.844 C 145.656 117.129, 135.696 118.522, 129.230 120.993 L 123.960 123.007 122.784 120.426 C 121.880 118.442, 121.883 117.458, 122.798 116.172 C 123.453 115.253, 124.938 112.594, 126.098 110.264 C 127.258 107.934, 129.961 104.221, 132.104 102.013 C 134.247 99.804, 136 97.754, 136 97.455 C 136 97.157, 134.875 95.699, 133.500 94.217 C 132.125 92.734, 131 90.965, 131 90.286 C 131 88.745, 125.834 86, 122.934 86 C 121.743 86, 118.632 84.432, 116.022 82.516 C 111.872 79.470, 111.198 78.459, 110.650 74.464 C 110.285 71.803, 108.723 68.004, 106.910 65.368 C 105.197 62.879, 103.359 59.264, 102.827 57.336 C 102.101 54.707, 100.643 53.074, 97.001 50.810 C 93.841 48.845, 92.334 47.294, 92.688 46.370 C 93.107 45.280, 93.556 45.216, 94.617 46.097 C 95.761 47.047, 96 46.433, 96 42.546 C 96 38.685, 95.478 37.324, 93.078 34.924 C 91.465 33.311, 89.522 32.246, 88.738 32.547 C 87.959 32.846, 86.743 32.396, 86.038 31.546 C 84.479 29.667, 81.536 29.627, 77.402 31.427" stroke="none" fill="black" fill-rule="evenodd"/>
</svg>