<svg xmlns="http://www.w3.org/2000/svg" width="192" height="144" viewBox="0 0 192 144" version="1.1">
	<path d="M 0 72 L 0 144 34.025 144 L 68.050 144 69.005 141.486 C 69.531 140.103, 70.933 137.658, 72.120 136.052 C 73.306 134.447, 74.621 130.962, 75.040 128.308 C 75.460 125.654, 78.544 117.862, 81.893 110.992 C 87.657 99.170, 87.984 98.105, 87.992 91.145 C 87.999 84.785, 87.628 83.229, 85.250 79.645 C 79.918 71.608, 79.329 69.963, 81.277 68.539 C 82.225 67.846, 83 66.793, 83 66.199 C 83 64.637, 80.890 63.566, 80.138 64.746 C 78.695 67.012, 75.238 64.014, 73.035 58.587 L 70.767 52.997 73.397 47.622 C 76.726 40.816, 79.878 37.676, 86.543 34.523 L 91.845 32.015 90.248 27.950 C 87.853 21.851, 81.822 15.632, 75.286 12.520 C 65.352 7.790, 63.618 6.794, 59.332 3.349 L 55.163 0 27.582 0 L 0 0 0 72 M 101.465 3.261 C 102.975 6.877, 105 19.959, 105 26.104 C 105 28.423, 105.518 30.204, 106.250 30.403 C 117.130 33.367, 119.021 34.288, 123.716 38.910 C 127.632 42.765, 129.032 45.052, 130.352 49.757 C 132.313 56.748, 133.931 71.977, 133.990 84 C 134.033 92.776, 134.402 94.646, 140.393 116.437 C 142.350 123.553, 144.249 132.666, 144.613 136.687 L 145.276 144 168.638 144 L 192 144 192 72 L 192 0 146.051 0 L 100.102 0 101.465 3.261" stroke="none" fill="black" fill-rule="evenodd"/>
</svg>