<svg xmlns="http://www.w3.org/2000/svg" width="192" height="144" viewBox="0 0 192 144" version="1.1">
	<path d="M 46.397 2.250 C 46.744 3.488, 47.309 6.422, 47.652 8.772 C 48.191 12.454, 48.052 12.957, 46.647 12.418 C 45.164 11.849, 45.144 12.157, 46.429 15.799 L 47.843 19.807 45.172 19.399 C 30.982 17.236, 27.463 17.805, 18.747 23.670 C 13.380 27.282, 10.899 27.561, 2.750 25.472 L 0 24.767 0 84.383 L 0 144 40.918 144 L 81.837 144 84 140.500 C 86.113 137.080, 88 135.933, 88 138.067 C 88 138.704, 88.866 138.860, 90.148 138.453 C 92.108 137.831, 92.241 138.044, 91.671 140.895 L 91.046 144.018 141.773 143.759 L 192.500 143.500 192.739 83.500 C 192.871 50.500, 192.635 24.037, 192.215 24.694 C 190.923 26.714, 183.356 27.922, 179.469 26.729 C 176.952 25.957, 174.606 25.978, 171.015 26.807 C 165.158 28.159, 163.889 27.806, 158.215 23.249 C 151.785 18.086, 149.528 17.783, 142.737 21.168 C 136.401 24.328, 128.656 25.870, 127.612 24.181 C 127.253 23.600, 128.788 18.317, 131.022 12.441 C 135.564 0.498, 135.828 -3.571, 131.488 5.271 C 127.646 13.098, 126 14.385, 126 9.563 C 126 7.364, 125.597 6.131, 125 6.500 C 124.417 6.861, 124 5.844, 124 4.059 C 124 -1.026, 121.537 0.524, 118.926 7.250 C 115.536 15.984, 113.408 15.778, 113.772 6.750 L 114.044 0 95.522 0 C 79.725 0, 77 0.221, 77 1.500 C 77 2.325, 76.550 3, 76 3 C 75.450 3, 75 2.325, 75 1.500 C 75 0.667, 74.111 0, 73 0 C 71.509 0, 71 0.667, 71 2.619 L 71 5.237 67.567 2.619 C 65.678 1.178, 63.176 0, 62.005 0 C 60.049 0, 59.926 0.383, 60.480 4.750 L 61.082 9.500 59.353 6 L 57.623 2.500 57.244 5.267 C 57.035 6.789, 56.473 7.793, 55.996 7.498 C 55.519 7.203, 55.550 8.430, 56.064 10.224 C 56.579 12.019, 56.970 14.615, 56.932 15.993 C 56.870 18.297, 56.793 18.338, 55.986 16.500 C 55.503 15.400, 53.874 11.238, 52.367 7.250 C 50.270 1.701, 49.174 0, 47.697 0 C 46.175 0, 45.900 0.476, 46.397 2.250 M 0.469 84.500 C 0.469 117.500, 0.596 130.855, 0.750 114.178 C 0.904 97.501, 0.903 70.501, 0.749 54.178 C 0.595 37.855, 0.469 51.500, 0.469 84.500 M 87 96 C 87 96.550, 87.450 97, 88 97 C 88.550 97, 89 96.550, 89 96 C 89 95.450, 88.550 95, 88 95 C 87.450 95, 87 95.450, 87 96 M 98.500 96 C 98.840 96.550, 99.316 97, 99.559 97 C 99.802 97, 100 96.550, 100 96 C 100 95.450, 99.523 95, 98.941 95 C 98.359 95, 98.160 95.450, 98.500 96 M 90 98.167 C 90 98.625, 90.423 99, 90.941 99 C 91.459 99, 92.114 98.625, 92.397 98.167 C 92.680 97.708, 92.257 97.333, 91.456 97.333 C 90.655 97.333, 90 97.708, 90 98.167 M 88.029 100.961 C 87.220 101.473, 86.818 102.152, 87.136 102.470 C 87.455 102.788, 88.284 102.362, 88.980 101.524 C 90.423 99.786, 90.146 99.622, 88.029 100.961" stroke="none" fill="black" fill-rule="evenodd"/>
</svg>