<svg xmlns="http://www.w3.org/2000/svg" width="192" height="144" viewBox="0 0 192 144" version="1.1">
	<path d="M 0 72 L 0 144 15.943 144 L 31.887 144 34.411 139.767 C 37.123 135.219, 36.551 133.100, 33.107 134.943 C 31.672 135.711, 31 135.733, 31 135.014 C 31 134.433, 32.162 133.428, 33.582 132.780 C 35.003 132.133, 37.365 129.944, 38.832 127.914 C 40.300 125.885, 44.491 120.457, 48.147 115.850 C 54.458 107.900, 56.295 103.875, 54.748 101.392 C 54.368 100.783, 55.882 97.858, 58.111 94.892 C 64.765 86.041, 66.282 82.323, 66.803 73.590 C 67.211 66.760, 67.065 65.761, 65.736 66.271 C 63.609 67.087, 62.984 66.185, 63.917 63.647 C 65.858 58.370, 66.058 56, 64.561 56 C 61.692 56, 54.321 39.933, 55.628 36.527 C 56.338 34.678, 61.229 34.525, 67.686 36.151 C 71.444 37.097, 73.080 37.021, 76.879 35.722 C 80.571 34.459, 90.629 32.828, 96.458 32.546 C 98.458 32.450, 102.762 49.345, 101.230 51.278 C 100.697 51.950, 99.965 54.144, 99.603 56.153 C 99.242 58.163, 98.283 60.061, 97.473 60.372 C 96.488 60.750, 96 62.379, 96 65.290 C 96 69.529, 96.128 69.701, 100.855 71.838 C 104.595 73.528, 106.076 74.890, 107.298 77.766 C 109.368 82.633, 112 92.236, 112 94.918 C 112 96.205, 114.342 99.227, 118 102.662 C 124.117 108.404, 124.965 110.444, 122.750 114.077 C 121.659 115.866, 121.843 116.424, 124.206 118.477 C 126.513 120.482, 126.698 121.006, 125.461 122.032 C 124.314 122.985, 123.486 122.893, 121.505 121.595 C 120.127 120.692, 119 119.289, 119 118.477 C 119 116.142, 117.397 116.739, 114.536 120.140 C 112.913 122.068, 112.140 123.901, 112.532 124.890 C 113.544 127.440, 115.964 139.271, 115.983 141.762 L 116 144.024 154.250 143.762 L 192.500 143.500 192.757 71.750 L 193.013 0 96.507 0 L 0 0 0 72 M 0.474 72.500 C 0.474 112.100, 0.598 128.154, 0.750 108.176 C 0.901 88.198, 0.901 55.798, 0.750 36.176 C 0.598 16.554, 0.474 32.900, 0.474 72.500 M 77.278 106.562 C 75.506 107.958, 72.383 112.341, 70.339 116.301 C 67.575 121.654, 64.001 126.128, 56.401 133.750 L 46.180 144 58.840 143.996 L 71.500 143.992 74.368 133.991 C 75.945 128.491, 78.689 121.578, 80.464 118.629 C 82.831 114.699, 83.571 112.438, 83.236 110.158 C 82.841 107.464, 82.527 107.183, 80.890 108.059 C 78.746 109.206, 78.548 108.713, 80.035 105.934 C 81.361 103.457, 81.159 103.502, 77.278 106.562" stroke="none" fill="black" fill-rule="evenodd"/>
</svg>