<svg xmlns="http://www.w3.org/2000/svg" width="192" height="144" viewBox="0 0 192 144" version="1.1">
	<path d="M 0 72 L 0 144 15.883 144 L 31.766 144 34.928 139.750 C 41.981 130.268, 50.589 118.578, 52 116.564 C 55.091 112.154, 64.931 100.223, 68.045 97.109 C 70.256 94.898, 72.100 93.944, 73.888 94.085 C 78.487 94.450, 81.751 92.443, 82.467 88.810 C 82.825 86.989, 83.589 83.245, 84.165 80.490 C 85.102 76.004, 84.938 74.809, 82.605 69.067 C 79.738 62.010, 79.383 59.017, 81.200 57.200 C 83.167 55.233, 85.706 55.825, 87.835 58.748 C 88.936 60.260, 90.183 61.151, 90.605 60.728 C 91.028 60.305, 91.628 53.009, 91.939 44.514 C 92.396 32.008, 92.818 28.754, 94.156 27.416 C 97.872 23.699, 99.986 29.955, 99.994 44.691 C 99.997 50.296, 100.364 55.107, 100.810 55.382 C 101.255 55.658, 103.316 52.422, 105.389 48.191 C 107.463 43.961, 110.332 38.781, 111.764 36.680 C 114.592 32.532, 119.481 29.352, 120.499 30.998 C 120.836 31.543, 119.230 36.154, 116.930 41.244 C 111.315 53.672, 107.792 63.126, 108.509 63.842 C 108.832 64.165, 110.971 62.236, 113.263 59.555 C 117.778 54.272, 128.365 46, 130.610 46 C 133.569 46, 131.755 50.192, 126.190 56.213 C 120.236 62.655, 115.404 69, 116.452 69 C 116.775 69, 119.735 67.905, 123.029 66.567 C 126.322 65.228, 130.926 63.991, 133.259 63.817 C 140.546 63.273, 138.507 65.969, 127.072 72 L 116.644 77.500 114.811 84.301 C 112.652 92.316, 111.177 94.899, 105.160 101.202 L 100.671 105.903 106.144 112.202 C 116.922 124.605, 119.531 129.451, 117.042 132.449 C 116.184 133.483, 116.154 134.418, 116.931 135.870 C 118.514 138.829, 118.231 141.765, 116.250 142.927 C 115.037 143.638, 126.469 143.883, 153.500 143.726 L 192.500 143.500 192.552 71.500 C 192.581 31.900, 192.449 2.987, 192.260 7.250 C 191.936 14.548, 191.783 15, 189.638 15 C 188.385 15, 185.479 13.390, 183.179 11.421 C 180.029 8.725, 178.844 6.876, 178.371 3.921 L 177.744 0 88.872 0 L 0 0 0 72 M 0.474 72.500 C 0.474 112.100, 0.598 128.154, 0.750 108.176 C 0.901 88.198, 0.901 55.798, 0.750 36.176 C 0.598 16.554, 0.474 32.900, 0.474 72.500" stroke="none" fill="black" fill-rule="evenodd"/>
</svg>