<svg xmlns="http://www.w3.org/2000/svg" width="192" height="144" viewBox="0 0 192 144" version="1.1">
	<path d="M 80.643 31.065 C 77.217 32.048, 74 34.779, 74 36.705 C 74 37.472, 73.330 39.395, 72.511 40.979 C 70.578 44.716, 71.447 48.923, 75.029 53.168 L 77.840 56.500 78.755 54.079 C 80.471 49.541, 81.113 53.804, 79.592 59.632 C 78.597 63.441, 78.418 65.913, 79.052 67.098 C 79.574 68.072, 80 70.264, 80 71.969 C 80 78.161, 85.453 82.486, 87.920 78.250 C 89.610 75.348, 89.312 98.490, 87.616 101.800 C 86.855 103.285, 85.912 107.743, 85.519 111.706 L 84.806 118.911 88.153 120.952 C 92.313 123.488, 103.942 123.800, 108.364 121.494 C 112.244 119.470, 112.654 119.570, 113.782 122.804 C 114.504 124.877, 114.399 126.101, 113.380 127.495 C 112.621 128.533, 112 129.042, 112 128.627 C 112 128.212, 110.200 128.884, 108 130.120 C 105.800 131.357, 104 132.762, 104 133.243 C 104 133.724, 103.516 133.819, 102.923 133.453 C 101.909 132.826, 98 136.120, 98 137.603 C 98 137.980, 101.487 137.957, 105.750 137.553 C 110.013 137.148, 115.750 136.708, 118.500 136.575 C 123.230 136.347, 131 132.893, 131 131.018 C 131 130.586, 131.945 129.986, 133.101 129.684 C 134.257 129.381, 134.905 128.655, 134.542 128.067 C 134.179 127.480, 134.359 127, 134.941 127 C 135.523 127, 136 126.325, 136 125.500 C 136 124.675, 136.418 124, 136.929 124 C 137.439 124, 138.467 123.391, 139.211 122.646 C 139.956 121.901, 141.901 120.569, 143.533 119.686 L 146.500 118.080 143.500 118.052 C 140.600 118.025, 127.428 121.002, 123.649 122.539 C 122.464 123.021, 121.480 122.789, 120.914 121.896 C 119.168 119.138, 120.067 116.983, 124 114.500 C 126.200 113.111, 128 111.355, 128 110.597 C 128 109.840, 130.043 106.445, 132.540 103.053 L 137.080 96.885 134.790 94.976 C 133.531 93.926, 132.215 93.052, 131.867 93.033 C 131.518 93.015, 130.999 92.105, 130.713 91.012 C 130.169 88.930, 126.403 87.029, 122.685 86.959 C 121.483 86.937, 118.731 85.654, 116.569 84.109 C 112.992 81.553, 112.612 80.846, 112.337 76.230 C 112.126 72.698, 111.119 69.693, 109.018 66.329 C 107.359 63.673, 105.308 60.007, 104.459 58.183 C 103.537 56.200, 100.923 53.626, 97.959 51.783 C 93.297 48.886, 92.120 47.214, 93.658 45.675 C 94.020 45.313, 94.931 45.528, 95.682 46.151 C 97.699 47.825, 98.328 46.560, 97.546 42.396 C 96.802 38.426, 92.179 33, 89.542 33 C 88.655 33, 86.933 32.380, 85.715 31.623 C 84.207 30.685, 82.588 30.507, 80.643 31.065 M 104 71.378 C 104 72.135, 104.675 73.315, 105.500 74 C 107.090 75.320, 107.452 74.341, 106.393 71.582 C 105.646 69.636, 104 69.495, 104 71.378 M 123.638 127.500 C 123.322 128.325, 123.499 129, 124.031 129 C 124.564 129, 125 128.325, 125 127.500 C 125 126.675, 124.823 126, 124.607 126 C 124.391 126, 123.955 126.675, 123.638 127.500" stroke="none" fill="black" fill-rule="evenodd"/>
</svg>