<svg xmlns="http://www.w3.org/2000/svg" width="192" height="144" viewBox="0 0 192 144" version="1.1">
	<path d="M 74.166 90.534 C 63.616 92.824, 55.741 98.585, 52.475 106.404 C 51.578 108.551, 50.508 114.655, 50.096 119.968 C 49.685 125.281, 49.038 130.129, 48.660 130.741 C 48.282 131.353, 46.291 132.398, 44.236 133.064 C 39.935 134.456, 33.265 137.785, 27.500 141.417 L 23.500 143.938 95.885 143.969 L 168.270 144 165.659 141.947 C 164.224 140.817, 159.101 138.077, 154.275 135.858 C 141.408 129.940, 141 129.426, 141 119.141 C 141 108.673, 139.018 104, 131.841 97.547 C 125.636 91.968, 122.785 91.118, 106.500 89.988 C 89.016 88.776, 81.697 88.899, 74.166 90.534 M 184.958 91.026 C 183.255 92.079, 185.063 94.464, 189.177 96.592 C 191.964 98.033, 192 98.014, 192 95.124 C 192 92.802, 191.408 91.989, 189.144 91.200 C 187.573 90.652, 185.689 90.574, 184.958 91.026 M 188.871 101.012 C 187.976 101.535, 183.926 102.225, 179.871 102.545 C 170.756 103.264, 168 103.802, 168 104.862 C 168 106.165, 173.926 108.723, 181 110.471 C 184.575 111.355, 188.512 112.338, 189.750 112.656 C 191.915 113.211, 192 112.983, 192 106.617 C 192 99.858, 191.716 99.350, 188.871 101.012" stroke="none" fill="black" fill-rule="evenodd"/>
</svg>