<svg xmlns="http://www.w3.org/2000/svg" width="192" height="144" viewBox="0 0 192 144" version="1.1">
	<path d="M 0 72 L 0 144 30.500 144 C 60.788 144, 61 143.985, 61 141.906 C 61 140.739, 60.211 139.607, 59.218 139.347 C 56.091 138.529, 54.595 133.461, 55.761 127.637 C 56.326 124.812, 56.851 120.803, 56.927 118.729 C 57.075 114.698, 57.406 113.665, 61.407 104.732 L 63.991 98.964 61.702 99.539 C 60.158 99.926, 58.833 99.473, 57.634 98.148 C 55.991 96.333, 55.975 95.949, 57.420 93.154 C 58.281 91.489, 59.410 89.864, 59.929 89.544 C 61.182 88.770, 70.001 75.473, 69.996 74.366 C 69.994 73.889, 69.159 74.850, 68.139 76.500 C 65.939 80.063, 62.213 83.546, 61.435 82.769 C 61.131 82.465, 61.573 80.565, 62.416 78.548 L 63.949 74.879 61.224 75.090 C 59.726 75.207, 57.150 75.200, 55.500 75.077 L 52.500 74.852 56 73.176 C 66.978 67.920, 68.199 66.270, 70.366 53.763 C 71.497 47.237, 71.492 45.720, 70.335 44.068 C 69.581 42.991, 69.084 41.562, 69.232 40.893 C 69.379 40.224, 68.375 39.387, 67 39.032 C 64.530 38.395, 64.527 38.380, 66.726 37.793 C 69.877 36.953, 71.784 32.485, 70.125 29.829 C 68.590 27.370, 69.388 26.247, 71.453 27.961 C 73.736 29.856, 86.291 28.346, 89.546 25.785 C 92.687 23.315, 93.468 23.878, 91.844 27.442 C 90.452 30.497, 91.688 31.957, 95.691 31.985 C 96.896 31.993, 98.160 32.450, 98.500 33 C 98.840 33.550, 98.416 34, 97.559 34 C 96.702 34, 96 34.450, 96 35 C 96 35.550, 95.354 36, 94.565 36 C 93.383 36, 93.223 37.634, 93.660 45.250 C 94.169 54.153, 94.313 54.613, 97.485 57.500 C 99.297 59.150, 101.545 62.300, 102.480 64.500 C 103.414 66.700, 104.814 69.694, 105.590 71.154 C 107.531 74.807, 107.355 78.368, 105.135 80.377 C 103.999 81.406, 103.032 84.078, 102.660 87.222 C 101.896 93.677, 99.901 96.044, 96.839 94.131 C 95.015 92.992, 94.791 93.014, 95.278 94.281 C 99.884 106.285, 102.357 115.158, 101.282 115.824 C 99.328 117.034, 99.517 121.932, 101.837 130.261 C 103.027 134.530, 104 139.372, 104 141.022 L 104 144.021 148.250 143.760 L 192.500 143.500 192.757 71.750 L 193.013 0 96.507 0 L 0 0 0 72 M 0.474 72.500 C 0.474 112.100, 0.598 128.154, 0.750 108.176 C 0.901 88.198, 0.901 55.798, 0.750 36.176 C 0.598 16.554, 0.474 32.900, 0.474 72.500 M 75.667 52.667 C 75.300 53.033, 75 53.798, 75 54.367 C 75 54.993, 75.466 54.934, 76.183 54.217 C 76.834 53.566, 77.134 52.801, 76.850 52.517 C 76.566 52.233, 76.033 52.300, 75.667 52.667 M 97 75.500 C 97 76.325, 97.450 77, 98 77 C 98.550 77, 99 76.325, 99 75.500 C 99 74.675, 98.550 74, 98 74 C 97.450 74, 97 74.675, 97 75.500 M 67.079 90.583 C 67.127 91.748, 67.364 91.985, 67.683 91.188 C 67.972 90.466, 67.936 89.603, 67.604 89.271 C 67.272 88.939, 67.036 89.529, 67.079 90.583" stroke="none" fill="black" fill-rule="evenodd"/>
</svg>