<svg xmlns="http://www.w3.org/2000/svg" width="192" height="144" viewBox="0 0 192 144" version="1.1">
	<path d="M 0 38 C 0 63.795, 0.336 76, 1.047 76 C 1.622 76, 10.285 75.049, 20.297 73.886 C 44.911 71.027, 67.251 71.034, 79.289 73.905 C 90.707 76.627, 96.724 76.548, 106.451 73.547 C 112.170 71.782, 115.618 71.260, 118.736 71.687 C 122.255 72.170, 123.488 71.894, 125.286 70.222 C 126.504 69.089, 129.192 67.850, 131.261 67.468 C 133.330 67.086, 135.269 66.374, 135.570 65.887 C 135.871 65.399, 137.104 64.986, 138.309 64.968 C 139.514 64.951, 141.221 64.387, 142.103 63.716 C 143.703 62.497, 154.772 62.719, 181.701 64.508 L 191.902 65.186 192.266 70.343 C 192.466 73.179, 192.713 58.513, 192.815 37.750 L 193 0 96.500 0 L 0 0 0 38 M 0.454 38.500 C 0.453 59.400, 0.586 68.092, 0.748 57.816 C 0.911 47.540, 0.911 30.440, 0.749 19.816 C 0.587 9.192, 0.454 17.600, 0.454 38.500 M 150.500 80.827 L 147.500 81.564 150.386 83.487 C 155.641 86.986, 157.683 96.342, 154.405 101.891 C 150.586 108.356, 140.301 111.730, 136.376 107.805 C 133.437 104.866, 135.314 102.944, 140.437 103.646 C 145.523 104.344, 150.535 102.737, 152.038 99.929 C 153.780 96.674, 153.156 91.495, 150.750 89.239 C 147.540 86.230, 138.612 85.137, 136.066 87.441 C 134.297 89.041, 133.982 89.042, 130.929 87.463 C 129.140 86.538, 124.936 85.595, 121.588 85.369 C 116.311 85.011, 115.833 85.115, 118 86.151 C 120.499 87.347, 120.499 87.347, 118.250 87.743 C 115.543 88.220, 115.433 88.849, 117.750 90.608 C 119.410 91.868, 119.407 91.938, 117.691 91.968 C 116.696 91.986, 116.160 92.450, 116.500 93 C 117.419 94.488, 116.094 94.253, 107.964 91.488 C 96.765 87.679, 90.477 86.935, 82.901 88.523 C 66.681 91.923, 48.708 91.278, 17.250 86.168 L 0 83.366 -0 113.688 L -0 144.010 96.250 143.755 L 192.500 143.500 192.765 113.065 C 192.912 96.209, 192.633 82.233, 192.140 81.740 C 191.025 80.625, 154.573 79.826, 150.500 80.827 M 0.445 113.500 C 0.444 130.550, 0.581 137.666, 0.748 129.312 C 0.915 120.959, 0.915 107.009, 0.748 98.312 C 0.582 89.616, 0.445 96.450, 0.445 113.500" stroke="none" fill="black" fill-rule="evenodd"/>
</svg>