<svg xmlns="http://www.w3.org/2000/svg" width="192" height="144" viewBox="0 0 192 144" version="1.1">
	<path d="M -0 72.005 L -0 144.010 96.250 143.755 L 192.500 143.500 192.532 71.500 C 192.550 31.900, 192.426 6.084, 192.256 14.131 L 191.948 28.762 182.969 30.506 C 176.930 31.679, 171.289 32.094, 165.745 31.774 C 158.436 31.352, 156.024 30.649, 144.500 25.583 C 122.613 15.961, 120.294 15, 118.975 15 C 118.273 15, 115.357 16.146, 112.494 17.547 C 107.409 20.035, 106.122 21.523, 104.004 27.359 C 103.110 29.824, 102.749 30.036, 101.382 28.902 C 100.159 27.887, 99.940 26.510, 100.423 22.871 C 100.957 18.841, 100.718 17.803, 98.774 15.730 C 97.523 14.396, 95.521 12.788, 94.324 12.156 C 89.777 9.758, 84 15.959, 84 23.239 C 84 26.340, 83.083 29, 82.014 29 C 81.093 29, 79.241 24.499, 78.722 21 C 78.295 18.117, 77.696 19.166, 76.011 25.750 C 75.412 28.087, 74.511 30, 74.007 30 C 72.577 30, 71.681 23.347, 72.346 17.659 L 72.948 12.500 69.499 16.500 C 65.561 21.068, 64.613 20.571, 63.533 13.373 C 62.803 8.502, 63.933 5.618, 67.878 2.286 L 70.500 0.072 35.250 0.036 L 0 0 -0 72.005 M 0.474 72.500 C 0.474 112.100, 0.598 128.154, 0.750 108.176 C 0.901 88.198, 0.901 55.798, 0.750 36.176 C 0.598 16.554, 0.474 32.900, 0.474 72.500 M 68.643 89.769 C 68.218 90.456, 68.168 91.954, 68.531 93.098 C 69 94.574, 68.583 95.604, 67.096 96.646 C 65.943 97.453, 65 98.810, 65 99.661 C 65 102.342, 69.874 111.050, 73.993 115.729 C 76.405 118.470, 78.187 121.648, 78.554 123.864 C 79.617 130.288, 79.496 130.242, 86.117 126.744 C 95.019 122.041, 95.395 120.980, 89.888 116.133 C 86.772 113.390, 84.969 110.800, 84.103 107.824 C 83.412 105.446, 81.909 100.882, 80.764 97.681 C 78.813 92.228, 78.520 91.906, 76.091 92.549 C 71.506 93.764, 70.650 93.547, 70.027 91.010 C 69.609 89.312, 69.169 88.917, 68.643 89.769" stroke="none" fill="black" fill-rule="evenodd"/>
</svg>