<svg xmlns="http://www.w3.org/2000/svg" width="192" height="144" viewBox="0 0 192 144" version="1.1">
	<path d="M 0 72 L 0 144 21.067 144 L 42.135 144 41.435 141.750 C 41.050 140.512, 38.149 134.325, 34.990 128 C 27.992 113.992, 26.072 108.088, 23.447 92.500 C 22.635 87.680, 22.736 62.055, 23.587 57.059 C 23.920 55.102, 25.308 48.847, 26.670 43.160 C 29.065 33.161, 29.087 32.753, 27.337 30.819 C 25.589 28.888, 25.591 28.773, 27.387 27.459 C 28.526 26.626, 30.458 26.324, 32.373 26.680 C 38.034 27.733, 54.441 33.171, 57.500 35.009 C 60.826 37.008, 84.170 43.660, 91.086 44.580 C 95.226 45.131, 95.733 44.927, 99.247 41.295 C 101.308 39.165, 104.560 34.965, 106.474 31.961 C 108.388 28.957, 110.709 25.352, 111.631 23.949 C 113.920 20.467, 123.893 15.113, 129.530 14.341 C 133.363 13.816, 135.168 14.190, 140.058 16.528 C 144.901 18.842, 146.167 19.976, 147.114 22.847 C 148.089 25.801, 147.984 26.874, 146.439 29.743 C 145.110 32.211, 144.927 33.337, 145.770 33.858 C 146.466 34.288, 146.818 36.561, 146.649 39.538 C 146.409 43.774, 145.982 44.688, 143.728 45.783 C 142.198 46.527, 141.305 47.631, 141.603 48.408 C 142.192 49.942, 147.963 52.594, 152.738 53.523 C 154.623 53.890, 156.941 55.388, 158.289 57.110 C 160.465 59.890, 161.537 60.227, 176.301 62.767 C 191.154 65.322, 192 65.589, 192 67.734 C 192 70.510, 192.653 70.518, 175.055 67.519 C 167.110 66.165, 160.464 65.203, 160.287 65.380 C 160.109 65.557, 160.645 67.007, 161.476 68.601 C 162.307 70.196, 162.990 72.334, 162.994 73.353 C 163 75.261, 168.066 84.997, 169.054 84.999 C 169.358 85, 174.284 83.425, 180 81.500 C 185.716 79.575, 190.755 78, 191.196 78 C 191.638 78, 192 80.611, 192 83.803 L 192 89.606 182.003 93.303 C 176.505 95.336, 171.443 96.997, 170.753 96.994 C 168.123 96.983, 162.006 94.863, 160.629 93.486 C 159.378 92.235, 159.101 92.825, 158.498 98.014 C 157.859 103.521, 158.010 104.223, 160.456 107.130 C 161.914 108.863, 162.862 110.918, 162.562 111.698 C 161.888 113.456, 165.034 119.762, 170.191 126.989 C 172.680 130.476, 173.924 133.182, 173.603 134.410 C 173.325 135.474, 173.638 138.082, 174.299 140.206 L 175.500 144.068 184 143.784 L 192.500 143.500 192.757 71.750 L 193.013 0 96.507 0 L 0 0 0 72 M 0.474 72.500 C 0.474 112.100, 0.598 128.154, 0.750 108.176 C 0.901 88.198, 0.901 55.798, 0.750 36.176 C 0.598 16.554, 0.474 32.900, 0.474 72.500 M 55.276 40.770 C 53.435 41.070, 52.548 42.715, 50.130 50.316 C 45.529 64.778, 44.677 70.432, 44.606 87 C 44.531 104.499, 45.289 107.956, 53.502 127.559 C 55.976 133.464, 58 139.579, 58 141.148 L 58 144 72.750 143.946 C 89.530 143.884, 92.705 143.055, 101.272 136.500 C 107.058 132.073, 124.231 115.050, 127.742 110.261 L 129.985 107.202 120.888 98.898 C 111.997 90.781, 111.803 90.507, 112.300 86.799 C 112.584 84.686, 114.395 80.797, 116.388 78.023 C 119.357 73.891, 119.809 72.627, 119.041 70.607 C 118.531 69.267, 117.189 67.877, 116.057 67.518 C 114.926 67.159, 114 66.221, 114 65.433 C 114 64.645, 113.491 64, 112.870 64 C 112.124 64, 111.911 62.485, 112.243 59.540 L 112.745 55.080 109.843 56.581 C 106.560 58.279, 105 57.763, 105 54.980 C 105 53.580, 103.877 52.788, 100.750 51.982 C 98.412 51.379, 93.125 49.971, 89 48.853 C 84.875 47.734, 78.125 45.934, 74 44.852 C 69.875 43.770, 64.475 42.328, 62 41.646 C 59.525 40.965, 56.499 40.571, 55.276 40.770 M 123.639 85.109 C 121.881 87.162, 121.906 87.293, 124.610 90.115 C 128.119 93.777, 129.500 92.572, 128.034 87.127 C 126.769 82.429, 126.170 82.153, 123.639 85.109" stroke="none" fill="black" fill-rule="evenodd"/>
</svg>