<svg xmlns="http://www.w3.org/2000/svg" width="192" height="144" viewBox="0 0 192 144" version="1.1">
	<path d="M 75.551 3.533 C 73.773 7.788, 74.549 10.317, 78.899 14.437 C 80.605 16.052, 82 18.242, 82 19.303 C 82 20.873, 79.186 30.416, 78.287 31.893 C 77.655 32.932, 75.175 29.625, 74.662 27.058 C 74.055 24.024, 71.442 22.509, 68.659 23.577 C 67.433 24.048, 67.275 24.646, 68.013 26.025 C 68.551 27.029, 69.010 28.896, 69.035 30.175 C 69.060 31.454, 69.109 33.748, 69.144 35.274 C 69.188 37.147, 68.330 38.739, 66.504 40.176 C 63.790 42.310, 60 49.697, 60 52.851 C 60 54.969, 64.848 62.212, 65.851 61.592 C 66.261 61.339, 67.220 61.518, 67.983 61.990 C 69.131 62.699, 69.145 63.120, 68.063 64.424 C 67.071 65.620, 67.032 66.334, 67.903 67.383 C 68.785 68.446, 68.715 68.896, 67.599 69.324 C 66.800 69.630, 65.584 69.203, 64.896 68.375 C 62.612 65.623, 58.160 64, 52.895 64 C 48.121 64, 47.374 64.332, 43.875 68.011 C 40.077 72.003, 40.038 72.017, 35.430 70.984 C 23.482 68.307, 10.819 76.475, 9.294 87.842 C 8.015 97.381, 16.468 111.059, 24.584 112.582 C 31.243 113.831, 37.741 112.543, 41.987 109.131 C 45.746 106.110, 45.961 106.058, 46.958 107.921 C 47.531 108.992, 48 110.573, 48 111.434 C 48 113.792, 49.678 113.314, 50.400 110.750 C 51.005 108.601, 51.096 108.582, 52.440 110.336 C 53.279 111.431, 53.648 113.448, 53.355 115.336 C 53.085 117.076, 53.522 120.334, 54.326 122.577 C 55.131 124.819, 55.559 127.855, 55.278 129.325 C 54.967 130.953, 55.459 133.051, 56.538 134.699 C 57.512 136.185, 58.256 138.811, 58.191 140.534 C 58.085 143.366, 58.358 143.667, 61.037 143.667 C 64.407 143.667, 64.420 143.645, 62.820 140.684 C 62.170 139.483, 61.537 136.314, 61.412 133.642 C 61.287 130.971, 60.693 128.293, 60.092 127.692 C 59.492 127.092, 59 125.004, 59 123.054 C 59 119.614, 59.153 119.756, 64.141 127.840 C 66.968 132.422, 70.343 136.655, 71.641 137.246 C 74.387 138.497, 74.567 139.284, 72.500 141 C 71.675 141.685, 71 142.640, 71 143.122 C 71 143.605, 82.608 144, 96.796 144 L 122.593 144 123.796 136.981 C 126.375 121.942, 124.948 117.949, 111.777 103.354 C 104.646 95.452, 104.387 94.985, 103.181 87.803 C 102.111 81.437, 102.166 79.423, 103.571 73.449 C 104.470 69.627, 105.272 63.022, 105.353 58.771 C 105.451 53.633, 105.919 50.878, 106.750 50.552 C 108.454 49.885, 108.321 44.443, 106.445 38.126 C 104.359 31.102, 98.070 24.616, 93.933 25.223 L 91.063 25.644 91.430 16.572 C 91.631 11.582, 91.568 5.813, 91.288 3.750 C 90.858 0.569, 90.407 0, 88.319 0 C 85.738 0, 84.088 1.212, 82.300 4.421 C 81.304 6.208, 81.114 6.121, 79.589 3.171 C 78.687 1.427, 77.741 0, 77.488 0 C 77.234 0, 76.363 1.590, 75.551 3.533 M 59.500 94.178 C 56.530 95.837, 56.533 95.826, 58.519 98.021 C 60.353 100.047, 60.362 100.044, 61.679 96.912 C 63.566 92.425, 63.280 92.067, 59.500 94.178 M 105.060 120.203 C 105.163 127.674, 106.636 134.081, 108.732 136.177 L 110.759 138.204 111.880 131.770 C 113.454 122.729, 113.446 122.693, 109 119.120 L 105 115.906 105.060 120.203 M 55 118.500 C 55 119.325, 55.450 120, 56 120 C 56.550 120, 57 119.325, 57 118.500 C 57 117.675, 56.550 117, 56 117 C 55.450 117, 55 117.675, 55 118.500 M 70.643 124.241 L 67.120 128.483 71.310 130.186 C 77.049 132.518, 78.129 132.443, 77.577 129.750 C 77.323 128.512, 76.844 125.813, 76.512 123.750 C 76.181 121.688, 75.517 120, 75.038 120 C 74.558 120, 72.580 121.909, 70.643 124.241 M 57.188 131.063 C 57.428 131.784, 58.216 132.572, 58.938 132.813 C 59.688 133.063, 60.063 132.688, 59.813 131.938 C 59.572 131.216, 58.784 130.428, 58.063 130.188 C 57.313 129.938, 56.938 130.313, 57.188 131.063" stroke="none" fill="black" fill-rule="evenodd"/>
</svg>