<svg xmlns="http://www.w3.org/2000/svg" width="192" height="144" viewBox="0 0 192 144" version="1.1">
	<path d="M -0 72.005 L -0 144.010 96.250 143.755 L 192.500 143.500 192.757 71.750 L 193.013 0 96.507 0 L 0 0 -0 72.005 M 0.474 72.500 C 0.474 112.100, 0.598 128.154, 0.750 108.176 C 0.901 88.198, 0.901 55.798, 0.750 36.176 C 0.598 16.554, 0.474 32.900, 0.474 72.500 M 94.382 46.062 C 93.234 47.211, 90.919 48.164, 89.160 48.215 C 86.131 48.301, 86 48.478, 86 52.490 C 86 56.314, 85.487 57.152, 80.046 62.216 C 76.771 65.264, 74.377 68.044, 74.726 68.393 C 75.076 68.742, 76.630 67.813, 78.181 66.327 C 82.062 62.608, 81.711 64.256, 77.093 71.430 C 72.816 78.075, 69.283 87.998, 70.430 90.142 C 70.829 90.889, 72.809 94.645, 74.828 98.490 C 77.316 103.226, 79.467 105.967, 81.500 106.990 C 83.150 107.820, 84.840 109.027, 85.256 109.672 C 86.522 111.635, 91.937 112.351, 93.817 110.805 C 94.743 110.044, 97.121 108.690, 99.103 107.797 C 101.537 106.699, 104.230 103.956, 107.406 99.336 C 109.991 95.576, 113.646 90.330, 115.526 87.677 C 121.605 79.105, 122.460 71.962, 118.428 63.439 C 115.553 57.362, 115.088 57.139, 104.500 56.754 L 97.500 56.500 97.842 50.250 C 98.209 43.546, 97.616 42.828, 94.382 46.062" stroke="none" fill="black" fill-rule="evenodd"/>
</svg>