<svg xmlns="http://www.w3.org/2000/svg" width="192" height="144" viewBox="0 0 192 144" version="1.1">
	<path d="M 33 72 L 33 144 112.500 144 L 192 144 192 72 L 192 0 112.500 0 L 33 0 33 72 M 107 54 C 104.917 56.083, 101 56.736, 101 55 C 101 53.214, 97.100 53.945, 96.037 55.931 C 94.814 58.215, 96.668 60.503, 101.460 62.622 C 107.097 65.115, 109.305 67.678, 108.465 70.748 C 108.050 72.262, 107.785 74.850, 107.875 76.500 C 107.992 78.626, 107.087 80.562, 104.770 83.146 L 101.500 86.792 92.500 85.889 C 87.550 85.393, 81.340 84.539, 78.701 83.993 C 72.919 82.797, 67 82.699, 67 83.800 C 67 85.322, 69.409 87, 71.593 87 C 72.799 87, 74.057 87.706, 74.388 88.569 C 74.783 89.599, 75.665 89.924, 76.957 89.514 C 79.206 88.800, 81.897 90.033, 87.250 94.229 C 89.523 96.010, 90.982 96.643, 90.954 95.834 C 90.911 94.601, 89.922 93.622, 84.500 89.446 C 82.584 87.970, 82.626 87.926, 85.500 88.393 C 87.150 88.661, 91.959 89.168, 96.187 89.520 C 102.793 90.069, 104.093 90.492, 105.427 92.529 C 106.714 94.493, 107.968 94.951, 112.740 95.200 C 118.436 95.497, 118.503 95.536, 118.813 98.750 C 119.127 102.004, 120.463 103.099, 121.254 100.750 C 121.589 99.754, 121.981 99.752, 123.179 100.741 C 124.998 102.242, 126 101.430, 126 98.458 C 126 94.917, 130.590 94.681, 141.743 97.652 C 155.960 101.438, 155.870 101.427, 157.972 99.525 C 159.018 98.579, 160.321 98.081, 160.868 98.418 C 162.155 99.214, 162.936 97.887, 163.368 94.172 C 163.638 91.858, 163.187 90.903, 161.365 89.928 C 160.071 89.235, 158.353 87.661, 157.545 86.429 C 155.725 83.651, 150.208 82.613, 143.763 83.837 C 140.214 84.511, 138.758 84.413, 137.956 83.447 C 137.367 82.737, 135.214 81.874, 133.172 81.529 C 127.856 80.631, 126.937 79.789, 126.667 75.571 C 126.524 73.338, 125.549 70.905, 124.258 69.564 C 122.767 68.015, 122.412 66.988, 123.122 66.278 C 123.832 65.568, 123.223 64.583, 121.173 63.123 C 119.533 61.955, 117.698 61, 117.096 61 C 116.493 61, 116 60.100, 116 59 C 116 56.628, 117.270 56.416, 119 58.500 C 119.685 59.325, 120.943 60, 121.797 60 C 122.975 60, 122.765 59.375, 120.924 57.405 C 115.845 51.968, 110.371 50.629, 107 54 M 120 75.059 C 120 75.641, 120.450 75.840, 121 75.500 C 121.550 75.160, 122 74.684, 122 74.441 C 122 74.198, 121.550 74, 121 74 C 120.450 74, 120 74.477, 120 75.059 M 109.133 82.105 C 107.831 83.752, 106.975 85.308, 107.230 85.564 C 108.026 86.360, 113 81.932, 113 80.427 C 113 78.255, 111.746 78.799, 109.133 82.105 M 132 84.094 C 132 84.592, 132.900 85, 134 85 C 135.100 85, 136 84.827, 136 84.617 C 136 84.406, 135.100 83.998, 134 83.710 C 132.900 83.423, 132 83.595, 132 84.094" stroke="none" fill="black" fill-rule="evenodd"/>
</svg>