<svg xmlns="http://www.w3.org/2000/svg" width="192" height="144" viewBox="0 0 192 144" version="1.1">
	<path d="M 101 16.001 C 94.849 17.139, 88.447 19.546, 84.959 22.029 C 82.754 23.600, 81.218 23.944, 78.603 23.453 C 70.321 21.900, 65.593 25.750, 64.246 35.145 C 63.493 40.400, 63.404 40.515, 59.489 41.330 C 52.081 42.872, 50.520 44.125, 50.313 48.693 C 50.150 52.300, 50.431 52.891, 52.563 53.427 C 53.903 53.763, 55 54.504, 55 55.074 C 55 55.643, 53.200 59.094, 51 62.742 C 48.800 66.389, 47 69.740, 47 70.187 C 47 71.476, 48.182 71.142, 50.317 69.250 C 52.228 67.556, 52.275 67.579, 51.774 70 C 51.490 71.375, 50.898 73.361, 50.459 74.414 C 49.894 75.767, 50.003 76.116, 50.830 75.605 C 51.558 75.155, 52.002 75.565, 52.006 76.691 C 52.017 80.523, 54.133 86, 55.601 86 C 56.430 86, 58.547 87.350, 60.304 89.001 C 63.307 91.820, 63.520 91.877, 63.827 89.943 C 64.011 88.785, 64.667 88.128, 65.327 88.442 C 65.972 88.748, 67.287 89.276, 68.250 89.616 C 71.283 90.686, 70.352 94.907, 66.250 98.677 L 62.500 102.123 65.759 104.811 C 67.551 106.290, 69.017 108.175, 69.016 109 C 69.016 109.825, 71.033 114.034, 73.501 118.353 C 76.969 124.424, 77.837 126.807, 77.327 128.853 C 76.710 131.331, 76.791 131.407, 78.584 130.047 C 79.638 129.249, 81.513 127.708, 82.750 126.623 C 84.793 124.833, 85 124.811, 85 126.385 C 85 127.338, 85.450 127.840, 86 127.500 C 86.596 127.131, 87 128.343, 87 130.500 C 87 132.674, 87.402 133.870, 88.007 133.496 C 88.561 133.153, 89.301 133.621, 89.651 134.534 C 90.078 135.646, 89.333 136.976, 87.394 138.561 C 83.973 141.359, 82.273 141.557, 79.925 139.432 C 77.970 137.663, 75.264 138.746, 73.140 142.148 C 72.024 143.934, 72.967 144, 99.492 144 C 123.740 144, 127 143.815, 127 142.441 C 127 141.552, 127.478 141.177, 128.112 141.569 C 128.723 141.947, 129.598 141.651, 130.056 140.910 C 130.711 139.850, 131.295 140.034, 132.811 141.782 C 135.315 144.669, 137 144.601, 137 141.615 C 137 140.303, 137.624 137.746, 138.386 135.932 L 139.773 132.635 141.907 136.817 C 143.286 139.520, 144.716 141, 145.948 141 C 147.669 141, 147.798 140.446, 147.272 135.345 C 146.605 128.883, 147.682 128.751, 150.478 134.952 C 151.482 137.178, 152.638 139, 153.047 139 C 153.994 139, 154.954 132.099, 154.993 125 C 155.024 119.501, 155.024 119.501, 156.442 122.500 L 157.861 125.500 157.324 122.344 C 156.901 119.853, 157.164 119.115, 158.572 118.844 C 160.143 118.541, 160.181 118.320, 158.891 117 C 153.520 111.505, 151.508 103.761, 152.593 92.757 L 153.269 85.892 157.707 86.354 C 160.316 86.626, 162.663 87.524, 163.401 88.534 C 164.556 90.113, 164.830 90.032, 166.807 87.519 C 169.203 84.473, 168.506 81.613, 165.106 80.534 C 161.974 79.540, 153.731 70.091, 154.334 68.186 C 154.627 67.259, 155.610 64.475, 156.518 62 C 159.522 53.813, 155.799 43.217, 146.322 32.981 C 135.080 20.838, 115.167 13.378, 101 16.001" stroke="none" fill="black" fill-rule="evenodd"/>
</svg>