<svg xmlns="http://www.w3.org/2000/svg" width="192" height="144" viewBox="0 0 192 144" version="1.1">
	<path d="M 0 32 C 0 61.804, 0.120 64.001, 1.750 64.015 C 3.246 64.028, 3.282 64.172, 2 65 C 0.816 65.765, 1.038 65.973, 3.056 65.985 C 4.461 65.993, 7.104 64.899, 8.929 63.552 C 10.754 62.206, 13.541 60.820, 15.123 60.473 C 16.705 60.125, 18 59.427, 18 58.921 C 18 58.414, 18.916 58, 20.035 58 C 21.155 58, 23.185 57.270, 24.548 56.377 C 26.705 54.964, 29.451 54.835, 45.763 55.387 C 66.877 56.102, 82.099 56.807, 92.693 57.561 L 99.886 58.073 99.557 55.287 C 99.376 53.754, 99.177 52.073, 99.114 51.550 C 99.051 51.028, 98.466 51.134, 97.814 51.786 C 96.899 52.701, 96.213 52.597, 94.814 51.331 C 93.816 50.429, 93 49.985, 93 50.345 C 93 50.705, 92.100 50.100, 91 49 C 89.900 47.900, 89 45.889, 89 44.531 C 89 42.842, 88.564 42.230, 87.619 42.593 C 85.924 43.243, 82 35.604, 82 31.652 C 82 27.862, 84.606 22.027, 87.803 18.658 C 94.588 11.510, 104.428 9.710, 112.090 14.216 C 120.049 18.897, 122.522 22.793, 123.583 32.324 C 123.900 35.171, 124.568 39.074, 125.067 40.998 C 125.949 44.394, 124.262 51.375, 121.761 54.683 C 120.587 56.236, 117 55.938, 117 54.287 C 117 53.579, 116.550 53, 116 53 C 112.637 53, 119.128 59.218, 130.723 67.103 C 139.226 72.884, 140.408 75.464, 138.218 83.452 C 137.457 86.228, 136.879 90.511, 136.934 92.968 C 137.014 96.604, 137.600 97.956, 140.078 100.218 C 141.753 101.748, 143.823 103, 144.678 103 C 145.859 103, 146.042 103.541, 145.440 105.250 C 144.411 108.171, 144.760 124.347, 145.964 129.500 C 146.478 131.700, 147.418 135.871, 148.053 138.769 L 149.209 144.038 170.854 143.769 L 192.500 143.500 192.684 71.750 L 192.867 0 96.434 0 L 0 0 0 32 M 0.446 32.500 C 0.447 50.100, 0.583 57.159, 0.749 48.187 C 0.914 39.215, 0.914 24.815, 0.748 16.187 C 0.581 7.559, 0.446 14.900, 0.446 32.500 M 18 19 C 18 19.550, 18.423 20, 18.941 20 C 19.459 20, 20.160 19.550, 20.500 19 C 20.840 18.450, 20.416 18, 19.559 18 C 18.702 18, 18 18.450, 18 19 M 185.813 30.683 C 186.534 30.972, 187.397 30.936, 187.729 30.604 C 188.061 30.272, 187.471 30.036, 186.417 30.079 C 185.252 30.127, 185.015 30.364, 185.813 30.683 M 1.500 69 C 1.160 69.550, 1.557 70, 2.382 70 C 3.207 70, 4.160 69.550, 4.500 69 C 4.840 68.450, 4.443 68, 3.618 68 C 2.793 68, 1.840 68.450, 1.500 69 M 41.500 71.470 C 37.100 72.229, 33.275 72.884, 33 72.926 C 32.725 72.969, 34.066 73.790, 35.980 74.752 C 43.920 78.741, 46.297 88.057, 41.331 95.717 C 38.522 100.048, 35.479 102, 31.536 102 C 30.233 102, 28.994 102.519, 28.782 103.153 C 28.557 103.830, 27.256 103.165, 25.634 101.543 C 21.839 97.748, 22.807 95.846, 28.385 96.135 C 36.312 96.545, 40.344 91.602, 37.964 84.392 C 36.579 80.194, 34.478 79, 28.476 79 C 24.886 79, 23.413 79.504, 22.039 81.200 C 20.315 83.329, 20.174 83.344, 17.603 81.660 C 16.009 80.615, 12.261 79.742, 8.224 79.476 C 2.291 79.084, 1.882 79.164, 4.750 80.160 C 9.010 81.640, 8.890 83, 4.500 83 C 0.100 83, -0.046 84.492, 4.250 85.550 L 7.500 86.351 4.307 86.735 L 1.115 87.118 1.030 115.569 L 0.946 144.020 47.633 143.760 L 94.320 143.500 99.910 134.462 C 102.984 129.492, 107.041 123.301, 108.924 120.706 C 110.807 118.111, 112.423 114.978, 112.514 113.744 C 112.606 112.510, 112.865 110.825, 113.091 110 C 113.400 108.867, 112.448 108.424, 109.196 108.190 C 104.154 107.827, 103.243 106.364, 105.428 102.140 C 108.629 95.949, 106.900 88.226, 100.072 78.223 C 96.842 73.492, 95.292 72.100, 92.738 71.639 C 84.909 70.225, 49.398 70.109, 41.500 71.470 M 172.750 90.080 C 170.160 91.589, 170.510 94.209, 173.250 93.820 C 174.696 93.614, 175.614 92.696, 175.820 91.250 C 176.168 88.795, 175.436 88.516, 172.750 90.080" stroke="none" fill="black" fill-rule="evenodd"/>
</svg>