<svg xmlns="http://www.w3.org/2000/svg" width="192" height="144" viewBox="0 0 192 144" version="1.1">
	<path d="M 0 72 L 0 144 15.500 144 L 31 144 31 140 L 31 136 26.615 136 C 23.067 136, 21.924 135.533, 20.627 133.553 C 19.263 131.471, 18.351 131.146, 14.512 131.373 L 10 131.638 10 128.007 C 10 123.882, 12.155 119.017, 19.123 107.410 C 28.171 92.340, 32.898 79.715, 31.532 74.271 L 30.837 71.502 29.454 74.001 C 28.215 76.240, 28.060 76.292, 27.965 74.500 C 27.907 73.400, 26.821 75.184, 25.553 78.464 C 24.007 82.465, 23.412 85.654, 23.747 88.153 C 24.201 91.536, 24.057 91.828, 22.169 91.334 C 20.505 90.899, 19.968 91.359, 19.474 93.645 C 19.135 95.215, 18.499 97.400, 18.060 98.500 C 17.377 100.213, 17.107 99.943, 16.174 96.613 C 15.263 93.359, 15.389 92.098, 16.952 88.863 C 17.979 86.738, 18.409 85, 17.909 85 C 17.409 85, 16.986 85.563, 16.968 86.250 C 16.949 87.021, 16.434 86.839, 15.625 85.773 C 14.411 84.175, 14.215 84.230, 12.988 86.523 C 12.259 87.885, 10.838 89, 9.831 89 C 8.824 89, 7.985 89.563, 7.967 90.250 C 7.948 90.938, 7.037 90.424, 5.942 89.108 C 4.152 86.959, 4.015 85.791, 4.596 77.608 C 5.177 69.424, 5.661 67.741, 9.371 61.015 C 15.249 50.358, 15.221 50.477, 14.479 39.907 C 13.809 30.340, 13.800 30.316, 11.297 30.794 C 7.888 31.446, 6.781 29.325, 8.647 25.716 C 10.402 22.322, 10.484 22.454, 5.425 20.502 L 1.500 18.988 7.303 19.573 C 11.122 19.957, 13.596 19.750, 14.540 18.967 C 16.697 17.176, 21.260 18.605, 20.548 20.848 C 20.041 22.446, 20.577 22.586, 25.776 22.210 L 31.569 21.791 34.284 27.877 C 37.292 34.617, 37.527 36.073, 35.877 37.723 C 34.697 38.903, 34.818 39.039, 44.529 47.500 C 47.054 49.700, 50.218 52.492, 51.560 53.705 C 52.902 54.917, 53.998 55.592, 53.996 55.205 C 53.990 53.980, 50.064 48, 49.265 47.998 C 48.844 47.996, 48.379 40.930, 48.232 32.296 C 48.051 21.682, 47.586 16.362, 46.798 15.875 C 44.941 14.727, 52.751 8.259, 60 4.942 C 64.297 2.975, 69.458 2.643, 70.790 4.247 C 72.262 6.021, 72.601 13.665, 71.521 20.750 C 70.865 25.058, 70.984 26, 72.186 26 C 72.992 26, 74.630 27.042, 75.826 28.314 C 77.669 30.276, 78 31.800, 78 38.314 C 78 44.954, 77.694 46.305, 75.750 48.243 C 72.763 51.220, 66 60.237, 66 61.242 C 66 62.446, 60.748 60.947, 58.689 59.155 C 57.243 57.897, 56.717 57.841, 56.078 58.874 C 55.470 59.858, 55.107 59.729, 54.564 58.334 C 53.964 56.791, 53.610 57.056, 52.336 60 C 49.667 66.171, 51.817 76.708, 62.642 110.500 C 63.522 113.250, 64.470 119.212, 64.747 123.750 C 65.227 131.613, 65.153 132, 63.161 132 C 62.011 132, 60.601 132.878, 60.027 133.950 C 59.212 135.472, 57.719 135.967, 53.241 136.200 L 47.500 136.500 47.190 140.250 L 46.879 144 77.190 143.904 C 106.271 143.812, 107.348 143.741, 103.755 142.154 C 101.017 140.945, 100.009 139.889, 100.005 138.229 C 100.002 136.841, 99.117 135.555, 97.732 134.924 C 95.133 133.740, 91 128.139, 91 125.802 C 91 124.937, 90.328 122.940, 89.506 121.364 C 88.685 119.789, 88.004 117.825, 87.993 117 C 87.982 116.175, 87.075 114.375, 85.978 113 C 84.880 111.625, 82.966 108.940, 81.724 107.033 C 80.141 104.604, 78.357 103.305, 75.761 102.691 C 72.564 101.935, 71.966 101.335, 71.400 98.320 C 70.820 95.229, 71.135 94.469, 74.122 91.732 C 77.184 88.926, 77.500 88.117, 77.500 83.069 C 77.500 77.553, 77.530 77.497, 80.652 77.194 C 83.156 76.951, 84.048 76.232, 84.993 73.694 C 87.744 66.305, 87.957 66, 90.356 66 C 91.676 66, 93.299 65.345, 93.963 64.545 C 95.378 62.840, 96.322 30.140, 95.018 28.028 C 94.476 27.151, 93.047 26.893, 90.778 27.261 L 87.357 27.816 86.189 19.158 C 85.546 14.396, 84.733 8.138, 84.381 5.250 L 83.742 0 41.871 0 L 0 0 0 72 M 36.158 71 C 36.158 72.375, 36.385 72.938, 36.662 72.250 C 36.940 71.563, 36.940 70.438, 36.662 69.750 C 36.385 69.063, 36.158 69.625, 36.158 71 M 38.385 138.765 C 37.771 139.169, 36.954 140.512, 36.567 141.750 C 35.944 143.747, 36.210 144, 38.933 144 C 42.036 144, 42.659 142.881, 41.393 139.582 C 40.725 137.840, 40.063 137.660, 38.385 138.765" stroke="none" fill="black" fill-rule="evenodd"/>
</svg>