<svg xmlns="http://www.w3.org/2000/svg" width="192" height="144" viewBox="0 0 192 144" version="1.1">
	<path d="M 86.667 35.667 C 86.300 36.033, 86 37.383, 86 38.667 C 86 41.274, 84.907 41.583, 82.032 39.788 C 79.524 38.221, 78.519 39.257, 80.097 41.784 C 81.138 43.450, 80.991 44.196, 79.166 46.516 C 74.246 52.771, 77.545 62.970, 86.602 69.500 C 96.463 76.610, 100.654 80.396, 104.577 85.740 C 108.412 90.962, 111.132 92.716, 122.093 97.037 C 124.757 98.087, 130.577 100.776, 135.025 103.013 L 143.113 107.079 152.014 105.444 C 160.640 103.858, 163.862 102.204, 162.527 100.044 C 162.172 99.470, 160.784 99, 159.441 99 C 156.066 99, 156.387 97.575, 160.500 94.293 C 164.377 91.199, 164.852 89.576, 162.297 88.146 C 160.866 87.346, 160.805 86.940, 161.911 85.607 C 162.663 84.701, 163.287 81.236, 163.364 77.538 C 163.520 70.094, 162.136 67.975, 155.652 65.734 C 152.307 64.578, 150.869 64.642, 144.652 66.220 C 140.718 67.219, 135.025 68.438, 132 68.929 C 128.975 69.420, 125.213 70.148, 123.639 70.547 C 121.155 71.177, 120.848 71.024, 121.302 69.386 C 121.590 68.349, 122.110 65.813, 122.458 63.750 C 123.035 60.328, 122.890 59.997, 120.795 59.964 C 118.532 59.929, 118.538 59.897, 121.250 57.676 C 124.990 54.614, 124.723 54.094, 119.750 54.757 C 115.874 55.274, 115.621 55.177, 116.872 53.662 C 117.627 52.748, 118.913 52, 119.729 52 C 120.672 52, 120.993 51.423, 120.607 50.418 C 120.273 49.548, 120 48.648, 120 48.418 C 120 47.357, 115.009 48.150, 114.300 49.324 C 113.860 50.052, 112.075 51.684, 110.333 52.951 C 104.797 56.976, 96.022 53.763, 95.975 47.693 C 95.959 45.650, 94.695 42.789, 92.465 39.750 C 89.039 35.080, 87.991 34.342, 86.667 35.667" stroke="none" fill="black" fill-rule="evenodd"/>
</svg>