<svg xmlns="http://www.w3.org/2000/svg" width="192" height="144" viewBox="0 0 192 144" version="1.1">
	<path d="M -0 54.107 C -0 105.272, 0.095 108.171, 1.750 107.423 C 2.712 106.988, 5.975 106.475, 9 106.283 C 12.025 106.091, 15.512 105.715, 16.750 105.448 C 19.312 104.894, 19.844 102, 17.383 102 C 16.127 102, 15.913 101.387, 16.423 99.250 C 16.784 97.737, 17.343 93.283, 17.665 89.352 C 18.208 82.716, 18.093 82.120, 16.060 81.032 C 14.573 80.236, 14.170 79.482, 14.804 78.680 C 16.155 76.973, 17.849 68.294, 17.946 62.585 C 18.040 56.969, 19.245 55, 22.583 55 C 25.708 55, 29.199 58.755, 28.064 60.894 C 27.595 61.777, 27.376 64.525, 27.577 67 C 27.853 70.398, 28.630 72.112, 30.752 74 C 34.054 76.938, 34.182 81.122, 30.945 80.275 C 28.533 79.645, 28.451 82.026, 30.489 93.463 C 31.269 97.843, 31.742 101.592, 31.539 101.794 C 31.337 101.996, 30.278 101.684, 29.186 101.099 C 26.598 99.715, 25.270 102.457, 27.792 103.977 C 29.327 104.902, 29.209 105.248, 26.618 107.396 C 24.085 109.496, 23.023 109.722, 17.875 109.255 C 14.652 108.963, 9.311 109.297, 6.007 109.998 L 0 111.273 0 127.637 L 0 144 35.389 144 L 70.777 144 71.442 140.250 C 71.808 138.188, 72.328 135.742, 72.600 134.817 C 72.936 133.669, 71.658 132.078, 68.585 129.817 C 66.106 127.992, 64.060 125.713, 64.039 124.750 C 64.018 123.787, 63.460 123, 62.800 123 C 61.867 123, 61.867 122.733, 62.800 121.800 C 63.460 121.140, 64 119.966, 64 119.191 C 64 118.416, 66.025 113.131, 68.500 107.447 C 70.975 101.763, 73 96.704, 73 96.205 C 73 94.148, 67.823 95.871, 56.186 101.803 C 49.413 105.255, 41.763 108.924, 39.186 109.956 C 36.609 110.988, 32.700 112.631, 30.500 113.606 C 28.300 114.581, 26.275 115.431, 26 115.496 C 25.725 115.560, 24.019 115.965, 22.209 116.395 C 19.980 116.924, 18.421 116.764, 17.377 115.898 C 16.052 114.798, 16.655 114.225, 21.668 111.822 C 24.875 110.284, 28.020 109.020, 28.656 109.013 C 29.292 109.006, 37.884 104.994, 47.749 100.097 L 65.686 91.195 66.821 86.847 C 67.446 84.456, 68.079 81.781, 68.228 80.901 C 68.395 79.919, 65.800 77.260, 61.500 74.007 C 52.474 67.178, 52.659 67.361, 53.452 66.078 C 53.881 65.383, 56.206 66.574, 59.814 69.338 C 62.942 71.733, 66.513 74.228, 67.750 74.882 C 69.699 75.911, 70 75.824, 70 74.231 C 70 73.219, 71.288 70.361, 72.862 67.878 C 74.436 65.396, 76.262 61.820, 76.920 59.933 C 78.080 56.601, 88.462 47, 90.904 47 C 91.507 47, 92 46.270, 92 45.378 C 92 44.033, 91.737 43.973, 90.466 45.028 C 88.061 47.024, 84 44.439, 84 40.913 C 84 36.796, 88.628 28.385, 92.533 25.407 C 95.985 22.774, 99.685 22.474, 104.250 24.455 C 105.585 25.034, 106 24.742, 106 23.224 C 106 22.074, 106.845 21.012, 108 20.710 C 109.484 20.322, 110 19.346, 110 16.927 C 110 11.969, 111.351 14.387, 111.782 20.116 C 112.060 23.813, 111.719 25.653, 110.508 26.991 C 108.994 28.664, 108.987 29.074, 110.427 31.859 C 112.864 36.571, 112.428 39.559, 108.942 42.041 C 107.261 43.238, 106.133 44.466, 106.436 44.770 C 106.740 45.073, 107.813 44.574, 108.823 43.661 C 109.832 42.747, 111.747 41.988, 113.079 41.974 C 114.410 41.960, 118.425 40.898, 122 39.614 C 145.396 31.211, 146.549 30.878, 150.768 31.316 C 154.890 31.743, 155.327 31.499, 163.610 24.129 C 174.621 14.333, 176.462 13.174, 178.741 14.602 C 181.215 16.152, 181.469 19.634, 179.436 24.141 C 177.267 28.952, 176.425 29.020, 176.294 24.396 C 176.238 22.414, 175.790 20.390, 175.299 19.899 C 173.973 18.573, 157.570 32.762, 157.191 35.564 C 156.826 38.258, 152.496 41.404, 150.308 40.565 C 149.094 40.099, 148.909 40.502, 149.414 42.514 C 149.984 44.782, 149.805 44.989, 147.724 44.467 C 145.842 43.994, 141.945 46.538, 127.294 57.801 C 117.336 65.457, 107.572 72.720, 105.595 73.941 C 103.490 75.242, 102 76.958, 102 78.082 C 102 79.137, 101.550 80, 101 80 C 99.562 80, 99.745 82.563, 101.742 90.412 C 103.490 97.286, 103.538 97.349, 110.173 101.607 C 113.844 103.962, 119.023 106.991, 121.683 108.339 C 124.343 109.687, 127.640 111.770, 129.010 112.967 L 131.500 115.144 127.732 114.632 C 125.659 114.350, 120.494 112.180, 116.253 109.810 C 112.013 107.439, 108.210 105.355, 107.803 105.177 C 107.396 105, 108.589 108.157, 110.454 112.193 C 115.836 123.842, 115.836 123.956, 110.517 129.429 L 105.899 134.180 107.534 139.101 L 109.168 144.022 150.834 143.761 L 192.500 143.500 192.763 71.750 L 193.027 0 181.636 0 L 170.246 0 170.677 4.250 C 171.287 10.251, 168.643 14.924, 163.038 17.750 C 157.849 20.367, 154.046 20.592, 150.038 18.520 C 147.849 17.388, 146.682 15.555, 145.074 10.722 C 143.918 7.247, 142.277 3.413, 141.429 2.202 L 139.887 0 69.943 0 L 0 0 -0 54.107 M 0.466 54.500 C 0.466 84.200, 0.594 96.206, 0.749 81.179 C 0.905 66.153, 0.905 41.853, 0.749 27.179 C 0.593 12.506, 0.466 24.800, 0.466 54.500 M 21.500 16 C 21.160 16.550, 21.332 17, 21.882 17 C 22.432 17, 23.160 16.550, 23.500 16 C 23.840 15.450, 23.668 15, 23.118 15 C 22.568 15, 21.840 15.450, 21.500 16 M 138.500 39.589 C 136.850 40.456, 132.839 42.251, 129.587 43.579 C 126.335 44.906, 122.090 47.577, 120.153 49.514 C 117.768 51.899, 115.334 53.243, 112.609 53.678 C 106.635 54.634, 104 57.779, 104 63.955 C 104 66.730, 104.273 69, 104.606 69 C 104.939 69, 106.852 67.733, 108.856 66.185 C 110.860 64.637, 119.362 58.070, 127.750 51.591 C 141.392 41.053, 144.666 37.986, 142.250 38.006 C 141.838 38.010, 140.150 38.722, 138.500 39.589 M 188.500 63 C 188.840 63.550, 189.316 64, 189.559 64 C 189.802 64, 190 63.550, 190 63 C 190 62.450, 189.523 62, 188.941 62 C 188.359 62, 188.160 62.450, 188.500 63 M 80.322 68.777 C 76.196 72.312, 74.281 78.731, 76.785 80.634 C 79.289 82.536, 80.577 82.295, 82.348 79.592 C 83.697 77.534, 83.722 77.014, 82.522 76.018 C 81.330 75.029, 81.410 74.375, 83.056 71.677 C 85.053 68.401, 85.565 65.980, 84.250 66.027 C 83.838 66.042, 82.070 67.279, 80.322 68.777 M 72.035 84.935 C 70.840 87.168, 72.228 87.776, 74.797 86.146 C 75.840 85.485, 75.805 85.083, 74.617 84.097 C 73.412 83.097, 72.936 83.251, 72.035 84.935 M 0.409 127.500 C 0.408 136.850, 0.558 140.810, 0.743 136.299 C 0.928 131.789, 0.929 124.139, 0.745 119.299 C 0.562 114.460, 0.410 118.150, 0.409 127.500 M 49.728 112.933 C 49.431 114.069, 49.599 115.252, 50.101 115.562 C 51.413 116.374, 52.459 113.059, 51.267 111.867 C 50.602 111.202, 50.087 111.558, 49.728 112.933 M 80 136.402 C 80 137.143, 79.719 139.156, 79.375 140.875 L 78.750 144 89.375 144 C 99.765 144, 100 143.950, 100 141.723 C 100 136.658, 97.883 135.455, 88.597 135.247 C 81.956 135.097, 80 135.360, 80 136.402" stroke="none" fill="black" fill-rule="evenodd"/>
</svg>