<svg xmlns="http://www.w3.org/2000/svg" width="192" height="144" viewBox="0 0 192 144" version="1.1">
	<path d="M 0.025 57 L -0.038 114 2.671 114 C 4.161 114, 7.994 113.460, 11.190 112.800 C 15.674 111.874, 17 111.189, 17 109.800 C 17 108.667, 16.259 108, 15 108 C 12.858 108, 12.430 106.989, 13.919 105.450 C 15.063 104.267, 17.163 93.073, 16.455 91.928 C 16.170 91.466, 15.197 91.371, 14.294 91.717 C 12.986 92.219, 12.815 91.957, 13.455 90.424 C 15.231 86.165, 15.275 84, 13.585 84 C 11.248 84, 10.483 81.239, 12.258 79.213 C 15.686 75.301, 17.393 70.468, 17.146 65.372 C 16.871 59.662, 18.540 57, 22.397 57 C 25.367 57, 29.642 61.475, 28.339 63.221 C 26.529 65.645, 28.293 75.119, 31.321 79.236 C 33.940 82.799, 37.836 84.878, 50.734 89.598 C 68.329 96.037, 68.849 96.145, 70.204 93.657 L 71.377 91.500 71.958 93.893 C 72.538 96.279, 76.499 98.620, 77.424 97.124 C 77.692 96.690, 75.681 93.276, 72.955 89.538 C 67.506 82.063, 67.316 81.075, 69.502 71.649 C 70.328 68.087, 70.745 64.500, 70.429 63.677 C 69.531 61.336, 72.575 56.455, 77.500 52.338 C 79.975 50.269, 82 48.095, 82 47.507 C 82 46.920, 83.350 45.929, 85 45.306 C 86.859 44.604, 87.988 43.475, 87.968 42.337 C 87.938 40.621, 87.851 40.612, 86.639 42.207 C 85.439 43.787, 85.221 43.792, 83.708 42.279 C 82.195 40.767, 82.027 40.767, 81.444 42.285 C 80.861 43.804, 80.630 43.804, 78.305 42.280 C 75.968 40.749, 75.822 40.184, 76.186 34.068 C 77.255 16.103, 91.119 4.797, 102.113 12.925 C 103.656 14.066, 105.157 15, 105.447 15 C 105.971 15, 113 1.530, 113 0.525 C 113 0.236, 87.595 -0, 56.544 -0 L 0.087 -0 0.025 57 M 116.265 3.250 C 116.531 5.038, 117.368 8.004, 118.125 9.843 C 119.439 13.038, 119.379 13.282, 116.750 15.380 C 114.382 17.270, 114 18.300, 114 22.788 C 114 25.654, 113.586 28, 113.079 28 C 112.573 28, 111.864 29.345, 111.503 30.989 C 111.142 32.632, 110.431 34.234, 109.923 34.548 C 109.415 34.861, 109 36.130, 109 37.368 C 109 39.997, 106.105 44.468, 106 42 C 105.943 40.667, 105.801 40.667, 104.718 42 C 104.048 42.825, 102.713 43.500, 101.750 43.500 C 99.145 43.500, 99.145 45.450, 101.750 45.820 C 102.987 45.995, 104 46.721, 104 47.433 C 104 48.144, 106.278 50.857, 109.062 53.461 C 114.508 58.555, 116.181 61.591, 115.332 64.837 C 114.680 67.332, 118.202 69.018, 129.163 71.459 C 133.199 72.358, 138.140 73.909, 140.144 74.906 L 143.789 76.718 155.072 69.825 C 161.278 66.034, 168.526 61.373, 171.180 59.466 C 176.700 55.500, 179.166 55.166, 182 58 C 183.453 59.453, 184 61.333, 184 64.875 C 184 67.556, 184.281 71.156, 184.625 72.875 C 184.978 74.642, 184.832 76, 184.289 76 C 183.085 76, 178 66.083, 178 63.736 C 178 62.781, 177.551 62, 177.003 62 C 176.293 62, 150.688 77.071, 147.219 79.530 C 147.064 79.640, 146.761 80.646, 146.545 81.767 C 146.329 82.888, 145.432 85.198, 144.551 86.902 C 142.836 90.218, 139.365 91.114, 138.362 88.500 C 138.045 87.675, 137.329 87, 136.771 87 C 136.181 87, 136.273 87.624, 136.989 88.487 C 137.668 89.305, 137.937 90.723, 137.586 91.637 C 137.017 93.118, 136.692 93.059, 134.608 91.101 L 132.268 88.903 129.384 91.270 C 127.798 92.572, 122.900 95.578, 118.500 97.950 C 114.100 100.322, 110.385 102.356, 110.245 102.469 C 109.417 103.141, 112.450 109, 113.834 109.402 C 129.853 114.049, 139.308 116.643, 148.714 118.970 C 154.991 120.523, 160.422 122.089, 160.784 122.451 C 161.898 123.565, 158.685 124.969, 155 124.978 C 152.046 124.985, 139.295 122.021, 120.214 116.891 C 117.857 116.257, 115.703 115.964, 115.427 116.240 C 115.151 116.516, 117.619 121.585, 120.911 127.504 C 125.648 136.022, 126.776 138.869, 126.320 141.148 L 125.745 144.027 159.122 143.764 L 192.500 143.500 192.482 130.750 C 192.472 123.737, 192.360 91.450, 192.232 59 L 192 0 153.891 -0 L 115.781 -0 116.265 3.250 M 51 5 C 51 5.550, 51.477 6, 52.059 6 C 52.641 6, 52.840 5.550, 52.500 5 C 52.160 4.450, 51.684 4, 51.441 4 C 51.198 4, 51 4.450, 51 5 M 105.024 75.281 C 105.037 77.052, 105.433 80.160, 105.905 82.189 C 106.559 85.005, 106.435 86.003, 105.381 86.407 C 103.659 87.068, 103.576 92.058, 105.250 94.265 C 106.377 95.750, 107.435 95.378, 116 90.487 C 121.225 87.504, 126.007 85.048, 126.628 85.031 C 127.248 85.014, 128.334 84.302, 129.042 83.450 C 131.178 80.876, 128.151 79.029, 119.409 77.570 C 110.901 76.150, 108 75.242, 108 74 C 108 73.568, 107.325 72.955, 106.500 72.638 C 105.356 72.199, 105.006 72.826, 105.024 75.281 M 78.452 76.093 C 76.619 79.638, 77.456 81.464, 79.582 78.557 C 80.921 76.726, 81.554 73, 80.526 73 C 80.265 73, 79.332 74.392, 78.452 76.093 M 29.343 86.549 C 28.634 88.396, 29.532 102.489, 30.576 105.897 C 31.251 108.101, 31.095 108.241, 28.655 107.628 C 27.195 107.262, 26 107.384, 26 107.899 C 26 110.068, 27.322 112, 28.807 112 C 29.762 112, 30.020 112.342, 29.450 112.854 C 28.476 113.729, 5.439 119, 2.586 119 C 1.223 119, 1 120.755, 1 131.500 L 1 144 4.800 144 C 6.890 144, 9.027 143.631, 9.550 143.181 C 10.072 142.730, 13.779 141.109, 17.787 139.578 C 24.180 137.136, 24.916 136.599, 23.787 135.205 C 22.736 133.908, 22.738 133.759, 23.794 134.394 C 24.505 134.822, 25.753 134.620, 26.567 133.945 C 27.788 132.931, 27.935 133.007, 27.408 134.380 C 26.579 136.540, 33.633 133.567, 55.474 122.555 L 71.447 114.500 73.109 109 L 74.770 103.500 72.185 102.600 C 70.410 101.982, 69.480 102.060, 69.217 102.850 C 68.561 104.818, 66.738 104.109, 67.266 102.091 C 67.686 100.486, 66.552 99.751, 60.133 97.466 C 46.442 92.593, 34.533 87.728, 32.921 86.350 C 30.877 84.602, 30.073 84.647, 29.343 86.549 M 20.500 109 C 19.771 110.180, 20.717 112, 22.059 112 C 22.577 112, 23 111.100, 23 110 C 23 107.891, 21.545 107.309, 20.500 109 M 58 129.592 C 52.225 132.493, 42.800 136.809, 37.056 139.183 L 26.611 143.500 44.982 143.773 C 58.129 143.969, 63.558 143.716, 64.072 142.883 C 65.090 141.236, 69.377 125.028, 68.897 124.640 C 68.679 124.463, 63.775 126.692, 58 129.592 M 20.750 129.080 C 18.175 130.580, 18.572 133, 21.393 133 C 23.770 133, 25.521 130.652, 24.444 128.910 C 23.735 127.763, 22.949 127.799, 20.750 129.080" stroke="none" fill="black" fill-rule="evenodd"/>
</svg>