<svg xmlns="http://www.w3.org/2000/svg" width="192" height="144" viewBox="0 0 192 144" version="1.1">
	<path d="M 63.755 4.805 C 65.455 22.496, 53.553 44.974, 38.500 52.500 C 36.300 53.600, 34.275 54.744, 34 55.042 C 33.363 55.733, 27.035 57.577, 20.132 59.084 C 14.923 60.221, 5.308 59.908, 1.750 58.486 C 0.100 57.826, 0 60.239, 0 100.893 L 0 144 53.455 144 L 106.909 144 107.455 140.500 C 107.755 138.575, 108.254 135.312, 108.565 133.250 C 108.875 131.188, 110.256 125.900, 111.634 121.500 C 115.271 109.882, 118.897 89.264, 118.274 83.742 C 117.829 79.793, 117.209 78.731, 114.126 76.636 C 110.907 74.450, 109.939 74.267, 105.500 75.008 C 102.090 75.577, 98.577 75.410, 94.452 74.482 C 86.031 72.589, 82 72.806, 82 75.152 C 82 77.783, 80.333 77.437, 78.338 74.394 C 76.683 71.867, 76.705 71.728, 79.065 69.850 C 81.115 68.219, 82.369 68.027, 87 68.636 C 95.616 69.769, 102.528 69.654, 102.294 68.383 C 101.979 66.668, 106.083 63.380, 110.170 62.072 C 112.189 61.426, 114.381 60.246, 115.042 59.449 C 115.704 58.652, 116.879 58, 117.654 58 C 120.231 58, 120.157 55.272, 117.500 52.406 C 116.033 50.822, 115.076 48.817, 115.328 47.853 C 115.576 46.905, 115.143 45.885, 114.365 45.587 C 111.945 44.658, 111.097 40.781, 112.651 37.741 C 113.674 35.738, 113.778 34.454, 113.030 33.057 C 111.739 30.643, 111.689 27, 112.948 27 C 113.469 27, 117.738 28.390, 122.434 30.090 C 132.651 33.787, 135.371 36.524, 136.988 44.740 C 137.611 47.908, 138.769 52.197, 139.561 54.270 C 140.352 56.344, 141 59.321, 141 60.885 C 141 62.450, 141.900 64.874, 143 66.273 C 144.100 67.671, 145 69.771, 145 70.940 C 145 72.108, 145.604 74.512, 146.342 76.282 C 147.215 78.376, 147.738 84.380, 147.839 93.473 C 147.997 107.727, 147.575 111.473, 145.928 110.456 C 143.617 109.027, 145.413 115.523, 149.834 124.589 C 152.492 130.040, 155.483 136.648, 156.478 139.273 L 158.289 144.046 175.395 143.773 L 192.500 143.500 192.825 129 C 193.003 121.025, 192.837 88.737, 192.455 57.250 L 191.761 0 127.527 -0 L 63.294 -0 63.755 4.805 M 0.459 101 C 0.459 124.925, 0.589 134.713, 0.749 122.750 C 0.908 110.788, 0.908 91.213, 0.749 79.250 C 0.589 67.288, 0.459 77.075, 0.459 101 M 132.827 82.090 C 132.133 84.005, 133.816 90, 135.048 90 C 135.994 90, 135.566 86.915, 134.020 82.590 C 133.507 81.155, 133.210 81.030, 132.827 82.090" stroke="none" fill="black" fill-rule="evenodd"/>
</svg>