<svg xmlns="http://www.w3.org/2000/svg" width="192" height="144" viewBox="0 0 192 144" version="1.1">
	<path d="M 37.747 3.403 C 36.017 7.032, 36.459 13.710, 39.117 24.078 C 40.150 28.109, 40.053 30.730, 38.507 40.592 L 36.669 52.314 39.027 54.223 C 40.366 55.307, 42.238 55.909, 43.359 55.616 C 44.469 55.326, 46.584 55.992, 48.195 57.139 C 50.693 58.918, 50.976 59.613, 50.414 62.605 C 50.044 64.581, 50.298 67.304, 51.014 69.034 C 52.207 71.915, 52.060 72.244, 47.337 77.267 C 44.189 80.615, 40.311 86.682, 36.573 94.106 C 31.156 104.864, 30.780 106.049, 31.423 110.336 C 32.007 114.230, 32.835 115.550, 36.655 118.680 L 41.193 122.399 40.487 133.199 L 39.781 144 56.797 144 L 73.812 144 74.490 139.074 C 76.141 127.066, 79.555 121.734, 82.064 127.242 C 82.948 129.181, 82.689 130.643, 80.681 135.063 C 79.322 138.053, 77.952 141.287, 77.637 142.250 C 77.098 143.893, 79.059 144, 109.568 144 L 142.074 144 138.124 136.374 C 134.620 129.607, 134.203 128.058, 134.424 122.624 C 134.755 114.499, 136.979 102.871, 138.561 101 C 139.259 100.175, 140.240 97.925, 140.742 96 C 141.790 91.982, 140.897 92.084, 157.307 94.094 C 170.630 95.726, 171.635 95.311, 171.186 88.364 C 170.779 82.070, 166.573 77.561, 155.950 72.035 C 151.733 69.841, 147.786 67.447, 147.179 66.716 C 146.572 65.984, 145.797 61.199, 145.457 56.082 C 144.853 46.986, 144.898 46.716, 147.499 44.001 C 151.007 40.339, 152.096 35.321, 150.433 30.482 C 149.719 28.405, 148.542 26.141, 147.817 25.451 C 146.021 23.738, 131.368 18.008, 128.674 17.965 C 127.478 17.945, 125.375 17.286, 124 16.500 C 119.344 13.838, 116.311 14.589, 112.945 19.235 C 110.429 22.708, 109.921 24.298, 110.121 28.069 C 110.296 31.378, 109.354 35.310, 106.763 42.084 C 104.781 47.263, 102.913 52.288, 102.611 53.250 C 102.157 54.699, 100.852 55, 95.031 55 C 90.521 55, 88 54.600, 88 53.883 C 88 53.245, 88.890 53, 90.077 53.310 C 93.144 54.112, 96.779 50.458, 100.110 43.225 C 103.904 34.988, 103.850 30.050, 99.859 19.949 C 98.131 15.577, 96.331 12, 95.859 12 C 95.386 12, 95 11.508, 95 10.908 C 95 10.307, 94.100 8.671, 93 7.273 C 91.900 5.874, 91 3.666, 91 2.365 L 91 0 65.185 0 L 39.370 0 37.747 3.403" stroke="none" fill="black" fill-rule="evenodd"/>
</svg>