<svg xmlns="http://www.w3.org/2000/svg" width="192" height="144" viewBox="0 0 192 144" version="1.1">
	<path d="M 112.692 9.559 C 110.048 11.321, 106.536 14.597, 104.888 16.837 C 102.334 20.310, 101.992 21.470, 102.570 24.705 C 102.942 26.792, 104.204 29.549, 105.374 30.831 C 107.448 33.104, 107.453 33.195, 105.608 34.545 C 103.752 35.902, 103.753 36.041, 105.645 41.685 C 107.241 46.449, 108.215 47.779, 111.287 49.397 C 113.329 50.472, 115 51.939, 115 52.656 C 115 53.372, 111.614 57.379, 107.474 61.558 C 102.126 66.959, 100.022 69.786, 100.200 71.329 C 100.338 72.523, 99.605 76.049, 98.570 79.164 C 96.939 84.075, 96.843 85.591, 97.845 90.580 C 98.480 93.744, 98.837 96.497, 98.637 96.696 C 98.437 96.896, 95.175 95.969, 91.387 94.637 C 87.599 93.305, 82.592 91.700, 80.260 91.071 C 76.960 90.180, 75.872 89.340, 75.357 87.288 C 73.954 81.697, 74.564 77.240, 76.991 75.340 C 78.296 74.320, 78.198 73.586, 76.208 69.492 C 74.536 66.050, 73.611 65.077, 72.717 65.817 C 72.048 66.370, 70.195 66.975, 68.599 67.162 C 64.203 67.674, 62.103 71.374, 61.022 80.511 C 60.502 84.905, 59.609 90.072, 59.038 91.993 C 57.511 97.131, 57.773 105.393, 59.609 109.980 C 61.253 114.089, 62.441 114.972, 63.338 112.750 C 64.775 109.188, 63.700 116.845, 61.381 126.696 C 58.654 138.274, 58.710 140.659, 61.727 141.596 C 62.702 141.898, 64.281 142.563, 65.236 143.073 C 66.191 143.583, 70.649 144, 75.142 144 C 82.389 144, 83.694 143.708, 86.704 141.412 C 89.930 138.952, 90.065 138.596, 89.465 134.162 C 89.118 131.598, 87.746 125.389, 86.417 120.365 C 83.700 110.095, 83.429 106.999, 85.250 107.003 C 86.824 107.006, 98.247 113.835, 99.235 115.364 C 100.465 117.267, 100.097 121.813, 97.979 130.863 C 96.867 135.613, 95.734 140.512, 95.460 141.750 L 94.962 144 119.481 144 C 135.614 144, 144 143.648, 144 142.971 C 144 141.499, 138.628 131.062, 133.865 123.280 C 131.626 119.621, 129.165 114.214, 128.397 111.265 C 126.923 105.605, 126.476 93.003, 127.750 92.996 C 128.162 92.993, 128.584 91.373, 128.686 89.395 C 128.788 87.417, 129.507 85.057, 130.284 84.150 C 131.061 83.242, 132.014 81.613, 132.402 80.528 C 132.876 79.202, 133.344 78.939, 133.830 79.725 C 134.279 80.451, 135.086 80.565, 135.959 80.026 C 137.148 79.291, 137.050 78.014, 135.323 71.746 C 133.684 65.796, 133.522 64.007, 134.501 62.668 C 135.898 60.757, 137.663 60.488, 138.201 62.103 C 138.403 62.709, 140.018 61.852, 141.789 60.197 C 143.863 58.259, 144.792 56.621, 144.398 55.594 C 144.046 54.679, 144.299 54, 144.991 54 C 145.874 54, 146.011 52.403, 145.503 48.025 C 145.094 44.501, 145.303 39.271, 146.013 35.275 C 147.048 29.448, 146.981 27.694, 145.534 22.738 C 142.512 12.391, 135.994 7.560, 124 6.778 C 118.003 6.386, 117.128 6.601, 112.692 9.559" stroke="none" fill="black" fill-rule="evenodd"/>
</svg>