<svg xmlns="http://www.w3.org/2000/svg" width="192" height="144" viewBox="0 0 192 144" version="1.1">
	<path d="M 0 72 L 0 144 35.961 144 L 71.923 144 73.015 139.750 C 74.748 133.006, 78.891 118.449, 79.613 116.567 C 80.052 115.422, 79.810 114.914, 78.886 115.043 C 75.138 115.567, 74.719 115.064, 75.315 110.750 C 75.638 108.413, 77.510 101.550, 79.474 95.500 C 83.491 83.132, 84.979 76.365, 85.686 67.250 C 86.018 62.972, 85.813 61, 85.036 61 C 83.798 61, 80.057 53.471, 80.022 50.905 C 80.003 49.542, 82.202 49.221, 95.198 48.687 C 103.557 48.344, 110.574 48.241, 110.791 48.457 C 111.493 49.159, 107.974 60, 107.044 60 C 106.549 60, 105.825 62.551, 105.436 65.670 C 104.912 69.862, 105.155 72.534, 106.368 75.920 C 107.271 78.439, 108.008 81.507, 108.005 82.738 C 108.002 83.969, 109.361 89.369, 111.025 94.738 C 116.599 112.724, 116.401 111.812, 115.076 113.408 C 114.404 114.218, 113.212 114.635, 112.427 114.334 C 110.634 113.645, 110.630 113.603, 112.843 120.093 C 113.856 123.067, 115.708 129.668, 116.958 134.762 L 119.230 144.024 155.865 143.762 L 192.500 143.500 192.757 71.750 L 193.013 0 96.507 0 L 0 0 0 72 M 0.474 72.500 C 0.474 112.100, 0.598 128.154, 0.750 108.176 C 0.901 88.198, 0.901 55.798, 0.750 36.176 C 0.598 16.554, 0.474 32.900, 0.474 72.500" stroke="none" fill="black" fill-rule="evenodd"/>
</svg>