<svg xmlns="http://www.w3.org/2000/svg" width="192" height="144" viewBox="0 0 192 144" version="1.1">
	<path d="M 0.017 45.750 L 0.033 91.500 3.883 83.697 C 6 79.405, 8.514 72.880, 9.469 69.197 C 15.453 46.118, 25.066 30.792, 42.603 16.374 C 44.860 14.518, 47.222 13, 47.853 13 C 48.484 13, 49 12.643, 49 12.207 C 49 11.771, 53.612 9.004, 59.250 6.058 C 64.888 3.112, 69.687 0.544, 69.917 0.351 C 70.146 0.158, 54.508 -0, 35.167 -0 L 0 0 0.017 45.750 M 138 2.707 C 139.925 4.184, 145.862 9.638, 151.193 14.827 C 158.998 22.425, 161.313 24.151, 163.074 23.691 C 165.934 22.943, 167.196 24.316, 172.283 33.712 C 176.483 41.468, 176.515 41.499, 180.250 41.190 C 182.313 41.019, 184 40.522, 184 40.086 C 184 38.342, 189.151 33.844, 190.538 34.376 C 191.786 34.855, 192 32.384, 192 17.469 L 192 0 163.250 0.011 L 134.500 0.022 138 2.707 M 82.500 31.652 C 66.508 33.136, 51.699 44.003, 44.228 59.735 C 40.888 66.769, 40.583 68.189, 40.185 78.588 C 39.704 91.161, 41.486 99.251, 47.121 110.079 C 49.989 115.589, 61.086 127.972, 68 133.379 C 69.925 134.884, 70.825 135.789, 70 135.390 C 66.520 133.706, 60.088 128.303, 54.201 122.118 C 47.754 115.343, 46.715 116.266, 52.572 123.567 C 57.516 129.731, 62.884 134.886, 69.282 139.613 L 75.064 143.885 133.782 143.692 L 192.500 143.500 192.741 125.500 C 192.874 115.600, 192.649 95.400, 192.241 80.611 L 191.500 53.723 187.750 61.315 C 185.687 65.491, 184 69.603, 184 70.453 C 184 71.304, 183.632 72, 183.183 72 C 182.733 72, 181.548 75.487, 180.548 79.750 C 178.352 89.117, 175.662 95.417, 170.095 104.232 C 165.397 111.670, 154.884 122, 152.011 122 C 150.980 122, 146.168 123.986, 141.318 126.413 C 118.002 138.081, 98.293 138.853, 78.086 128.889 C 42.216 111.203, 35.806 63.714, 66.500 43.063 C 78.582 34.935, 95.066 35.229, 105.022 43.751 C 110.016 48.026, 112 51.743, 112 56.828 C 112 62.601, 110.398 63.493, 102.766 61.966 C 91.337 59.682, 86.616 59.645, 82.377 61.808 C 78.231 63.925, 73.931 68, 75.845 68 C 76.597 68, 77 70.211, 77 74.333 C 77 81.653, 77.584 82.735, 79.955 79.807 C 82.069 77.197, 84.822 77.729, 91.055 81.952 C 94.699 84.421, 96.529 84.967, 101.209 84.982 C 119.248 85.039, 128.130 63.147, 116.850 46.433 C 110.030 36.327, 96.207 30.379, 82.500 31.652 M 137.523 92.605 C 136.585 94.037, 133.721 97.245, 131.158 99.733 C 128.596 102.221, 127.460 103.762, 128.632 103.156 C 131.051 101.908, 140 92.253, 140 90.892 C 140 89.400, 139.311 89.876, 137.523 92.605 M 1 120.449 L 1 144 28.250 143.968 L 55.500 143.937 52.712 141.858 C 47.888 138.260, 37.397 126.818, 31.170 118.364 C 27.874 113.889, 24.654 109.904, 24.014 109.509 C 23.375 109.114, 21.859 109.723, 20.645 110.864 L 18.439 112.937 12.969 107.469 C 9.961 104.462, 6.038 100.854, 4.250 99.450 L 1 96.898 1 120.449 M 80.550 140.888 C 81.073 141.376, 82.625 142.070, 84 142.429 L 86.500 143.083 84 141.577 C 81.214 139.898, 79.023 139.460, 80.550 140.888" stroke="none" fill="black" fill-rule="evenodd"/>
</svg>