<svg xmlns="http://www.w3.org/2000/svg" width="192" height="144" viewBox="0 0 192 144" version="1.1">
	<path d="M 63.364 5.750 C 64.139 12.908, 62.071 23.127, 58.171 31.412 C 50.413 47.892, 32.067 59.374, 13.500 59.368 C 9.100 59.366, 4.263 59.049, 2.750 58.663 L 0 57.962 0 100.981 L 0 144 52.500 144 C 81.375 144, 105.008 143.662, 105.017 143.250 C 105.078 140.613, 108.341 127.662, 110.574 121.192 C 114.135 110.875, 117.936 89.608, 117.271 83.715 C 116.875 80.198, 116.139 78.666, 114.252 77.429 C 112.035 75.977, 111.823 75.310, 112.351 71.455 L 112.946 67.116 108.426 68.791 C 105.570 69.849, 103.647 70.104, 103.203 69.483 C 101.721 67.411, 97.857 66, 93.665 66 C 91.266 66, 85.107 65.122, 79.979 64.048 C 74.850 62.975, 70.177 62.391, 69.594 62.751 C 67.107 64.288, 65 63.647, 65 61.352 C 65 58.235, 68.362 57.490, 76.261 58.857 C 85.460 60.449, 99 61.337, 99 60.348 C 99 58.553, 104.473 57.071, 108.068 57.892 C 112.493 58.903, 117.997 58.171, 118.644 56.485 C 118.911 55.789, 117.975 54.066, 116.565 52.656 C 115.154 51.245, 114 49.170, 114 48.045 C 114 46.920, 113.397 46, 112.661 46 C 110.348 46, 109.044 41.720, 110.518 38.967 C 111.593 36.958, 111.574 36.076, 110.407 33.821 C 109.633 32.324, 109 30.346, 109 29.425 C 109 27.471, 111.438 27.773, 122.097 31.046 C 130.282 33.560, 133.636 36.827, 134.922 43.540 C 135.445 46.268, 136.576 50.173, 137.436 52.218 C 138.296 54.263, 139 58.130, 139 60.813 C 139 64.344, 139.527 66.167, 140.911 67.420 C 142.258 68.639, 142.738 70.213, 142.536 72.752 C 142.379 74.734, 142.869 77.836, 143.625 79.645 C 144.381 81.455, 145.038 86.438, 145.084 90.718 C 145.131 94.998, 145.492 101.088, 145.887 104.250 C 146.282 107.412, 146.293 110, 145.911 110 C 145.529 110, 144.935 111.121, 144.592 112.491 C 144.142 114.283, 145.400 118.119, 149.074 126.161 C 151.883 132.310, 154.426 138.849, 154.725 140.692 L 155.269 144.043 173.884 143.772 L 192.500 143.500 192.825 129 C 193.003 121.025, 192.837 88.737, 192.455 57.250 L 191.761 0 127.251 -0 L 62.742 -0 63.364 5.750 M 0.459 101 C 0.459 124.925, 0.589 134.713, 0.749 122.750 C 0.908 110.788, 0.908 91.213, 0.749 79.250 C 0.589 67.288, 0.459 77.075, 0.459 101" stroke="none" fill="black" fill-rule="evenodd"/>
</svg>