<svg xmlns="http://www.w3.org/2000/svg" width="192" height="144" viewBox="0 0 192 144" version="1.1">
	<path d="M 60.974 10.675 C 58.318 12.910, 57.879 13.868, 58.306 16.498 C 58.753 19.250, 58.203 20.239, 53.934 24.367 C 50.392 27.793, 48.634 30.495, 47.531 34.206 C 46.047 39.206, 46.072 39.443, 48.649 44.531 C 50.610 48.404, 52.160 50.082, 54.699 51.078 C 57.507 52.180, 58.012 52.814, 57.550 54.656 C 56.719 57.967, 65.347 67.202, 68.526 66.404 C 74.379 64.935, 70.816 71.845, 64.286 74.627 C 62.518 75.380, 60.539 77.010, 59.887 78.248 C 59.236 79.487, 57.607 81.816, 56.268 83.425 C 54.649 85.371, 53.990 87.170, 54.301 88.796 C 54.736 91.071, 52.272 96.979, 50.882 96.994 C 50.234 97, 43.600 80.240, 42.473 75.750 C 41.851 73.271, 42.047 73.121, 46.660 72.531 C 58.498 71.017, 58.808 70.563, 48.500 69.838 C 43 69.451, 36.582 68.832, 34.237 68.461 C 31.035 67.955, 29.323 68.214, 27.359 69.500 C 24.805 71.174, 24.695 71.151, 22.556 68.468 C 20.509 65.901, 20.017 65.765, 14.934 66.358 C 11.945 66.708, 7.835 66.597, 5.800 66.113 C 3.765 65.629, 1.889 65.445, 1.630 65.703 C 1.143 66.190, 17.327 98.735, 18.935 100.500 C 19.436 101.050, 22.805 103.696, 26.423 106.379 C 30.040 109.063, 33 111.902, 33 112.689 C 33 113.476, 35.348 116.680, 38.218 119.810 C 41.088 122.939, 44.507 126.696, 45.816 128.157 L 48.197 130.815 46.024 133.753 C 44.303 136.081, 43.994 137.452, 44.537 140.346 L 45.223 144 73.798 144 L 102.374 144 99.549 141.051 C 97.996 139.430, 95.774 137.967, 94.612 137.801 C 93.004 137.572, 92.419 136.665, 92.160 134 C 91.808 130.383, 93.691 117.189, 95.116 113.284 C 95.680 111.737, 95.443 110.586, 94.332 109.474 C 92.874 108.017, 92.920 107.834, 94.869 107.324 C 96.041 107.017, 97 106.369, 97 105.883 C 97 105.398, 98.308 105, 99.906 105 C 102.396 105, 102.731 104.689, 102.246 102.831 C 101.787 101.078, 102.012 100.791, 103.421 101.331 C 104.379 101.699, 105.352 102, 105.582 102 C 105.812 102, 106 102.695, 106 103.544 C 106 104.393, 106.563 105.015, 107.250 104.925 C 111.260 104.405, 111.878 104.939, 110.960 108.139 C 109.939 111.701, 110.838 123, 112.142 123 C 112.614 123, 113 124.548, 113 126.441 C 113 128.334, 113.450 130.160, 114 130.500 C 114.550 130.840, 115 131.991, 115 133.059 C 115 135.119, 116.467 135.671, 117.500 134 C 118.669 132.109, 119.722 133.003, 119.248 135.483 C 118.987 136.849, 119.055 138.700, 119.398 139.596 C 119.905 140.916, 120.306 140.991, 121.512 139.990 C 122.765 138.950, 123 139.169, 123 141.378 L 123 144 157.500 144 L 192 144 192 126.333 L 192 108.666 188.390 102.083 C 183.989 94.056, 173.082 78.304, 169.857 75.317 C 166.256 71.980, 163.061 71.142, 149.757 70.038 C 143.016 69.479, 135.700 68.516, 133.500 67.898 C 126.505 65.932, 120.078 62.093, 117.747 58.487 C 116.414 56.425, 114.940 55.219, 114.123 55.523 C 113.366 55.804, 112.148 55.538, 111.417 54.931 C 109.758 53.555, 108 54.552, 108 56.869 C 108 58.453, 105.781 61.378, 95.488 73.362 C 92.134 77.268, 90 77.493, 90 73.941 C 90 71.417, 93.747 67.689, 95.577 68.391 C 96.527 68.756, 97 68.244, 97 66.852 C 97 65.259, 97.472 64.890, 99 65.290 C 100.661 65.724, 101 65.320, 101 62.906 C 101 61.063, 101.519 60, 102.419 60 C 103.560 60, 103.648 59.310, 102.869 56.487 C 102.335 54.554, 102.124 52.609, 102.399 52.164 C 102.674 51.719, 101.119 46.512, 98.943 40.593 C 94.037 27.247, 88.109 18.971, 81.704 16.525 C 78.695 15.375, 77.075 14.037, 76.341 12.093 C 75.586 10.091, 74.371 9.124, 72.020 8.654 C 66.385 7.527, 64.251 7.918, 60.974 10.675 M 29.044 80 C 29.039 80.825, 30.369 83.750, 32 86.500 C 35.139 91.792, 35.736 94.588, 33.859 95.214 C 32.485 95.672, 37.472 104, 39.120 104 C 39.767 104, 39.923 103.285, 39.501 102.250 C 38.754 100.420, 36.502 92.291, 35.551 88 C 34.883 84.983, 29.058 77.822, 29.044 80 M 86.083 110.191 C 83.963 116.273, 83.774 122.328, 85.573 126.500 L 87.299 130.500 88.139 127.500 C 88.601 125.850, 89.230 121.800, 89.538 118.500 C 89.845 115.200, 90.296 111.539, 90.539 110.364 C 90.848 108.869, 90.402 108.077, 89.050 107.723 C 87.593 107.342, 86.865 107.947, 86.083 110.191" stroke="none" fill="black" fill-rule="evenodd"/>
</svg>