<svg xmlns="http://www.w3.org/2000/svg" width="192" height="144" viewBox="0 0 192 144" version="1.1">
	<path d="M 0 72 L 0 144 36 144 L 72 144 72 141.446 C 72 140.041, 73.350 133.242, 75 126.338 C 78.398 112.120, 78.606 108.249, 76.531 97.857 C 75.723 93.811, 74.888 86.667, 74.676 81.981 C 74.438 76.721, 73.661 72.246, 72.645 70.281 C 71.740 68.531, 71 66.267, 71 65.250 C 71 64.232, 70.609 62.973, 70.131 62.450 C 69.653 61.928, 69.478 59.800, 69.743 57.721 C 70.137 54.637, 70.481 54.154, 71.613 55.094 C 72.750 56.037, 72.995 55.636, 72.973 52.872 C 72.953 50.412, 71.980 48.461, 69.374 45.657 C 66.191 42.232, 65.433 41.884, 62.401 42.453 C 59.138 43.065, 59 42.967, 59 40.045 C 59 38.183, 59.515 37, 60.326 37 C 61.055 37, 62.728 35.854, 64.044 34.453 C 66.146 32.216, 66.441 30.939, 66.469 23.976 C 66.497 16.743, 66.734 15.813, 69.163 13.383 C 71.084 11.462, 73.732 10.350, 78.663 9.396 C 91.792 6.856, 99.577 7.731, 104.101 12.255 C 106.875 15.029, 107.206 15.124, 108.870 13.618 C 113.984 8.989, 122.102 15.802, 124.446 26.690 C 125.058 29.536, 124.807 30.049, 122.116 31.440 C 120.457 32.298, 117.247 33, 114.982 33 C 111.540 33, 110.946 33.287, 111.360 34.750 C 113.502 42.334, 112.491 55.795, 109.428 60.469 C 108.051 62.572, 108.134 63.246, 110.406 68.384 C 112.740 73.661, 113.101 74, 116.386 74 C 118.309 74, 120.160 73.550, 120.500 73 C 120.840 72.450, 120.586 72, 119.937 72 C 119.030 72, 119.029 71.670, 119.933 70.581 C 121.127 69.142, 131.414 65.701, 138.214 64.466 C 140.257 64.094, 142.450 63.163, 143.087 62.395 C 143.724 61.628, 144.942 61, 145.794 61 C 146.646 61, 148.101 60.314, 149.028 59.475 C 151.223 57.489, 151.985 58.440, 155.458 67.500 C 160.262 80.030, 165.007 90.264, 172.067 103.319 C 175.880 110.369, 179 116.501, 179 116.946 C 179 117.391, 179.642 118.288, 180.428 118.940 C 182.109 120.335, 192.271 141.062, 191.602 141.732 C 191.350 141.983, 189.874 140.239, 188.322 137.857 C 186.770 135.474, 185.220 133.136, 184.879 132.662 C 184.537 132.187, 183.298 132.621, 182.125 133.625 C 178.570 136.668, 168.039 137.818, 150.949 137.029 C 142.452 136.636, 137.412 136.244, 139.750 136.158 C 143.105 136.033, 144 135.624, 144 134.213 C 144 133.231, 146.683 129.813, 149.962 126.619 C 155.592 121.136, 156.136 120.845, 159.712 121.418 C 162.700 121.896, 164.686 121.418, 169.117 119.150 C 173.807 116.751, 174.576 115.994, 173.776 114.565 C 172.874 112.952, 172.709 112.953, 170.909 114.582 C 169.201 116.128, 167.437 116.236, 154.249 115.606 C 146.137 115.219, 137.475 114.567, 135 114.157 L 130.500 113.412 134.692 111.215 C 138.974 108.971, 145.540 104.834, 147.708 103.014 C 148.372 102.456, 150.250 102, 151.882 102 C 156.810 102, 165 99.745, 165 98.387 C 165 96.415, 163.070 95.697, 161.430 97.058 C 158.768 99.267, 130 95.353, 130 92.782 C 130 91.810, 138.433 88, 140.583 88 C 141.362 88, 142 87.591, 142 87.090 C 142 86.590, 145.049 85.666, 148.776 85.038 C 157.281 83.603, 157.996 83.164, 156.844 80.080 C 156.153 78.234, 155.662 77.938, 154.770 78.830 C 153.346 80.254, 144.111 80.373, 140.535 79.013 C 138.272 78.153, 137.824 78.332, 137.033 80.412 C 135.842 83.547, 132.231 86, 128.810 86 C 127.300 86, 122.866 86.999, 118.956 88.221 L 111.846 90.442 112.540 99.691 C 113.166 108.035, 113.027 109.290, 111.119 112.523 C 109.222 115.738, 109.148 116.385, 110.397 118.804 C 111.163 120.287, 112.321 123.525, 112.969 126 C 113.617 128.475, 115.533 133.543, 117.227 137.262 L 120.307 144.025 156.404 143.762 L 192.500 143.500 192.757 71.750 L 193.013 0 96.507 0 L 0 0 0 72 M 0.474 72.500 C 0.474 112.100, 0.598 128.154, 0.750 108.176 C 0.901 88.198, 0.901 55.798, 0.750 36.176 C 0.598 16.554, 0.474 32.900, 0.474 72.500 M 73.975 54.565 C 73.439 55.976, 73 57.268, 73 57.436 C 73 57.604, 76.037 57.797, 79.750 57.864 L 86.500 57.987 83.193 55.859 C 80.528 54.145, 79.433 53.937, 77.555 54.793 C 75.506 55.727, 75.286 55.623, 75.729 53.927 C 76.472 51.087, 75.109 51.582, 73.975 54.565 M 150.500 66 C 150.160 66.550, 150.359 67, 150.941 67 C 151.523 67, 152 66.550, 152 66 C 152 65.450, 151.802 65, 151.559 65 C 151.316 65, 150.840 65.450, 150.500 66 M 113 79 C 113 79.550, 113.423 80, 113.941 80 C 114.459 80, 115.160 79.550, 115.500 79 C 115.840 78.450, 115.416 78, 114.559 78 C 113.702 78, 113 78.450, 113 79" stroke="none" fill="black" fill-rule="evenodd"/>
</svg>