<svg xmlns="http://www.w3.org/2000/svg" width="192" height="144" viewBox="0 0 192 144" version="1.1">
	<path d="M 0 56.500 L 0 113 5.455 113 C 10.895 113, 10.911 112.991, 11.565 109.506 C 11.925 107.585, 12.009 104.322, 11.752 102.256 C 11.117 97.172, 13.152 93.420, 16.957 92.659 C 19.738 92.102, 20 91.706, 20 88.060 C 20 85.073, 20.511 83.797, 22.032 82.983 C 23.149 82.385, 23.996 81.357, 23.913 80.698 C 23.599 78.192, 24.037 76.905, 25 77.500 C 25.550 77.840, 26 79.231, 26 80.590 C 26 81.950, 26.675 83.322, 27.500 83.638 C 28.477 84.013, 29 85.568, 29 88.094 C 29 91.582, 29.353 92.121, 32.500 93.436 C 36.358 95.048, 36.389 95.156, 36.032 105.817 L 35.787 113.133 39.643 112.817 C 43.481 112.502, 43.501 112.478, 43.695 107.900 C 43.876 103.656, 47.224 96, 48.900 96 C 50.149 96, 54 104.969, 54 107.879 C 54 110.698, 54.015 110.705, 62.250 111.346 C 66.787 111.699, 72.622 111.991, 75.215 111.994 C 79.059 111.999, 80.584 112.574, 83.465 115.104 C 86.474 117.745, 87.005 117.931, 87.036 116.354 C 87.299 102.887, 87.631 100.307, 89.446 97.627 L 91.391 94.754 93.696 97.433 C 95.950 100.053, 96 100.587, 96 122.056 L 96 144 143.840 144 L 191.680 144 192.340 119.838 C 192.703 106.549, 193 74.149, 193 47.838 L 193 0 96.500 0 L 0 0 0 56.500 M 0.468 57 C 0.468 88.075, 0.594 100.788, 0.749 85.250 C 0.904 69.713, 0.904 44.288, 0.749 28.750 C 0.594 13.213, 0.468 25.925, 0.468 57 M 116.847 31.706 C 115.998 32.693, 115.022 34.294, 114.678 35.265 C 114.333 36.236, 113.027 37.458, 111.776 37.981 C 105.685 40.526, 104.303 44.751, 109.968 43.507 C 113.483 42.735, 114.269 44.493, 113.385 51.153 C 112.869 55.048, 113.094 56.446, 114.486 57.985 C 116.946 60.702, 115.835 64.013, 110.997 68.384 C 107.712 71.352, 107.083 72.482, 107.591 74.505 C 107.933 75.870, 108.561 76.772, 108.985 76.509 C 110.403 75.633, 115.769 79.007, 116.322 81.123 C 117.092 84.068, 119.252 82.965, 120.249 79.117 C 121.306 75.038, 124.072 75.246, 125.500 79.512 C 127.126 84.370, 127.964 85.275, 129.589 83.926 C 130.365 83.282, 131 82.135, 131 81.378 C 131 79.512, 132.946 79.641, 135.171 81.655 C 136.873 83.195, 137 83.195, 137 81.655 C 137 80.491, 137.870 80, 139.933 80 C 141.987 80, 143.055 79.401, 143.500 78 C 143.863 76.855, 145.013 76, 146.190 76 C 147.694 76, 147.980 75.665, 147.257 74.750 C 146.713 74.063, 146.045 72.263, 145.773 70.750 C 145.402 68.690, 145.682 67.992, 146.889 67.968 C 148.227 67.942, 148.172 67.688, 146.559 66.468 C 145.491 65.661, 144.963 65, 145.386 65 C 145.808 65, 144.747 63.593, 143.028 61.874 C 140.419 59.265, 139.167 58.763, 135.451 58.838 C 131.265 58.922, 129.746 57.893, 132 56.500 C 133.156 55.785, 133.369 51.983, 132.250 52.035 C 131.838 52.055, 130.375 52.714, 129 53.500 C 125.549 55.473, 125 55.355, 125 52.640 C 125 51.287, 126.072 49.475, 127.512 48.393 C 128.894 47.356, 129.839 46.023, 129.612 45.432 C 129.385 44.840, 130.108 43.789, 131.218 43.096 C 133.730 41.527, 132.491 40.052, 127.864 39.106 C 125.055 38.531, 124.373 37.817, 123.437 34.463 C 122.181 29.968, 119.357 28.787, 116.847 31.706" stroke="none" fill="black" fill-rule="evenodd"/>
</svg>