<svg xmlns="http://www.w3.org/2000/svg" width="192" height="144" viewBox="0 0 192 144" version="1.1">
	<path d="M 0 72 L 0 144 15.068 144 L 30.135 144 27.163 138.250 C 25.528 135.088, 22.576 129.068, 20.602 124.874 C 18.245 119.864, 15.810 116.329, 13.506 114.573 C 11.578 113.102, 10 111.246, 10 110.449 C 10 109.652, 9.550 109, 9 109 C 6.944 109, 8.095 107.014, 10.500 106.411 C 13.443 105.672, 13.484 105.404, 11.424 100.472 C 9.472 95.800, 9.936 86.090, 12.529 77.391 C 14.342 71.307, 14.340 71.265, 12.139 67.042 C 9.934 62.812, 10.023 58.707, 12.301 59.541 C 14.108 60.201, 15.554 58.845, 16.739 55.380 C 17.744 52.441, 16.756 44.459, 14.516 37.414 C 14.053 35.960, 14.631 34.403, 16.426 32.270 C 17.842 30.588, 19 28.746, 19 28.178 C 19 27.610, 17.200 26.351, 15 25.380 C 12.800 24.409, 11 23.194, 11 22.679 C 11 22.164, 9.411 19.984, 7.469 17.834 C 4.152 14.163, 4.031 13.794, 5.469 11.741 C 7.638 8.644, 7.377 6.689, 4.459 4.151 C 3.061 2.936, 2.188 1.505, 2.518 0.971 C 2.848 0.437, 2.416 0, 1.559 0 C 0.161 0, 0 7.455, 0 72 M 123.667 21.667 C 123.300 22.033, 123 23.638, 123 25.232 C 123 28.909, 121.793 31.140, 117.463 35.471 C 113.451 39.482, 113.176 41.005, 116.131 42.849 C 118.001 44.017, 118.194 44.828, 117.714 49.478 C 117.414 52.391, 116.439 56.184, 115.549 57.905 C 114.114 60.680, 114.102 61.102, 115.447 61.618 C 116.596 62.059, 116.719 62.656, 115.954 64.086 C 114.791 66.259, 117.152 71.650, 121.564 76.893 C 125.287 81.318, 126.248 86.339, 124.302 91.202 C 122.859 94.811, 122.873 95.186, 124.498 96.375 C 126.141 97.576, 126.054 98.061, 123.126 104.064 C 121.407 107.587, 120 111.545, 120 112.859 C 120 115.112, 115.547 138.474, 114.398 142.250 C 113.901 143.882, 115.454 144, 137.500 144 C 159.545 144, 161.099 143.882, 160.604 142.250 C 160.312 141.287, 158.202 133.762, 155.916 125.527 C 153.630 117.292, 150.615 108.221, 149.217 105.369 L 146.674 100.185 148.988 94.843 C 150.522 91.300, 151.335 87.395, 151.401 83.252 C 151.496 77.273, 151.608 77.005, 154.014 77.002 C 155.397 77.001, 158.997 77.938, 162.014 79.084 C 170.498 82.308, 170.677 82.323, 172.970 80.030 C 175.112 77.888, 175.114 77.858, 173.215 74.640 C 171.139 71.122, 171.650 67.732, 174.416 66.670 C 175.448 66.275, 176 64.831, 176 62.531 C 176 60.589, 176.247 59, 176.550 59 C 178.118 59, 183.540 62.513, 185.566 64.841 C 187.464 67.023, 188.203 67.301, 189.689 66.391 C 192.299 64.793, 192.377 49.271, 189.783 47.635 C 188.394 46.759, 187.488 47.144, 185.038 49.650 C 180.316 54.479, 172.529 55.522, 171.011 51.528 C 169.406 47.306, 162.285 46.728, 160.546 50.678 C 159.532 52.981, 157.559 53.679, 149.397 54.620 C 143.216 55.332, 141.997 53.693, 145.021 48.733 C 147.115 45.299, 147.667 39.530, 146 38.500 C 145.450 38.160, 145 36.810, 145 35.500 C 145 34.190, 145.450 32.840, 146 32.500 C 146.550 32.160, 147 31.480, 147 30.988 C 147 29.502, 140.254 26.784, 138.191 27.439 C 135.598 28.262, 131.158 26.462, 128.374 23.459 C 126.044 20.944, 124.845 20.488, 123.667 21.667 M 141.221 58.608 C 140.237 59.662, 140.379 60.132, 141.930 60.962 C 142.996 61.533, 145.071 62, 146.541 62 C 148.568 62, 149.067 61.617, 148.607 60.418 C 148.273 59.548, 148 58.453, 148 57.985 C 148 56.647, 142.588 57.145, 141.221 58.608 M 152.406 59.385 C 151.396 62.015, 152.790 62.905, 156.013 61.689 C 159.582 60.342, 159.412 58.626, 155.667 58.183 C 153.970 57.982, 152.775 58.422, 152.406 59.385 M 170.393 61.582 C 170.727 62.452, 171 63.378, 171 63.641 C 171 63.903, 171.430 63.852, 171.956 63.527 C 173.117 62.809, 172.185 60, 170.786 60 C 170.236 60, 170.059 60.712, 170.393 61.582" stroke="none" fill="black" fill-rule="evenodd"/>
</svg>