<svg xmlns="http://www.w3.org/2000/svg" width="192" height="144" viewBox="0 0 192 144" version="1.1">
	<path d="M 14.641 3.104 C 14.290 4.972, 14.441 11, 14.976 16.500 C 16.406 31.207, 16.431 31.011, 13 32.306 C 9.812 33.509, 9.645 33.973, 10.625 38.875 C 11.311 42.307, 13 43.149, 13 40.059 C 13 38.991, 13.450 37.840, 14 37.500 C 14.560 37.154, 15 37.932, 15 39.267 C 15 40.578, 16.100 42.684, 17.444 43.947 C 19.757 46.120, 19.802 46.373, 18.291 48.679 C 17.413 50.019, 14.963 51.998, 12.847 53.078 C 10.731 54.157, 9 55.372, 9 55.776 C 9 56.779, 15.200 59.504, 16.741 59.179 C 17.424 59.034, 19.577 60.510, 21.525 62.458 C 23.473 64.406, 25.523 66, 26.081 66 C 27.275 66, 32 61.094, 32 59.854 C 32 59.384, 31.325 59, 30.500 59 C 27.462 59, 28.810 54.280, 32.500 52 C 36.454 49.556, 36.932 48.056, 34 47.290 C 31.396 46.609, 31.471 45.484, 34.250 43.537 C 35.487 42.671, 36.512 41.633, 36.526 41.231 C 36.540 40.829, 37.348 39.310, 38.322 37.856 C 40.961 33.912, 39.727 30.304, 35.574 29.819 C 33.577 29.586, 31.786 30.003, 30.952 30.897 C 29.778 32.153, 29.468 31.885, 28.709 28.957 C 27.676 24.969, 29.173 21.760, 34.988 15.500 C 42.012 7.940, 43.942 2.959, 40.379 1.592 C 39.488 1.250, 33.475 0.686, 27.018 0.339 L 15.277 -0.292 14.641 3.104 M 96 72 L 96 144 128.422 144 L 160.845 144 161.888 140.750 C 162.461 138.963, 163.381 134.800, 163.930 131.500 C 164.480 128.200, 165.242 124.416, 165.623 123.092 C 166.251 120.909, 166.091 120.753, 163.908 121.423 C 157.095 123.513, 157 123.489, 157 119.689 C 157 117.067, 156.326 115.615, 154.408 114.107 L 151.817 112.068 153.497 107.010 C 154.646 103.550, 156.354 101.006, 158.905 98.956 C 160.955 97.309, 163.414 94.190, 164.369 92.025 C 168.339 83.027, 176.455 80.655, 178.719 87.831 C 179.812 91.296, 179.702 91.680, 176.753 94.739 L 173.630 97.977 175.719 100.239 C 176.868 101.482, 178.520 104.227, 179.390 106.338 C 181.061 110.393, 183.500 110.893, 183.500 107.181 C 183.500 103.892, 185.400 104.123, 186.122 107.500 C 187.503 113.960, 187.072 116.715, 184.220 119.644 C 182.690 121.215, 180.689 122.950, 179.773 123.500 C 178.240 124.420, 178.302 125.103, 180.540 132 C 181.878 136.125, 182.979 140.512, 182.987 141.750 C 182.999 143.748, 183.504 144, 187.500 144 L 192 144 192 72 L 192 0 144 0 L 96 0 96 72" stroke="none" fill="black" fill-rule="evenodd"/>
</svg>