<svg xmlns="http://www.w3.org/2000/svg" width="192" height="144" viewBox="0 0 192 144" version="1.1">
	<path d="M 0 50.500 C 0 78.275, 0.175 101, 0.390 101 C 0.604 101, 4.316 100.358, 8.640 99.572 C 17.460 97.971, 32.033 96.366, 45.500 95.514 C 64.496 94.311, 64.265 94.373, 68.431 89.389 C 72.045 85.065, 72.129 84.800, 70.464 82.961 C 68.798 81.120, 68.905 80.814, 73.114 75.407 C 81.795 64.255, 86.234 57.304, 92.157 45.586 C 97.934 34.158, 98.203 33.291, 98.737 24.336 C 99.043 19.201, 98.961 15, 98.555 15 C 98.148 15, 96.671 15.900, 95.273 17 C 93.874 18.100, 91.960 19, 91.019 19 C 90.077 19, 87.891 19.706, 86.161 20.570 C 80.605 23.341, 74.455 19.810, 71.049 11.893 C 69.484 8.254, 69.014 5.737, 69.459 3.365 L 70.091 -0 35.045 -0 L 0 0 0 50.500 M 128 3.202 C 126.075 4.395, 124.437 5.400, 124.360 5.435 C 124.282 5.471, 122.996 14.050, 121.501 24.500 L 118.782 43.500 111.455 57.500 C 105.199 69.454, 101.248 79.780, 97.878 92.980 C 97.571 94.182, 99.744 94.660, 109.500 95.532 C 116.100 96.122, 121.648 96.250, 121.829 95.817 C 122.009 95.383, 123.233 92.904, 124.547 90.308 C 126.801 85.856, 126.841 85.481, 125.245 83.718 C 123.652 81.958, 123.686 81.491, 125.831 75.675 C 132.457 57.707, 133.963 52.292, 135.965 39.229 C 137.169 31.374, 137.863 23.512, 137.509 21.732 C 135.686 12.547, 132.689 1.002, 132.133 1.017 C 131.785 1.026, 129.925 2.009, 128 3.202 M 170.750 5.693 C 164.791 6.839, 163.002 7.567, 163.008 8.842 C 163.013 9.754, 163.465 14.413, 164.013 19.196 C 164.992 27.741, 164.931 28.197, 160.505 45.537 C 156.699 60.443, 155.999 64.682, 155.994 72.841 C 155.988 83.334, 154.699 89.795, 152.438 90.662 C 150.891 91.256, 150.399 99.507, 151.781 101.680 C 152.194 102.329, 157.284 104.467, 163.092 106.431 C 168.901 108.396, 177.669 111.740, 182.577 113.865 L 191.500 117.726 191.791 125.306 L 192.082 132.885 187.791 130.645 C 173.114 122.984, 138.165 112.576, 135.550 115.088 C 134.177 116.406, 131.264 116.208, 130.583 114.750 C 130.117 113.750, 129.883 113.750, 129.417 114.750 C 128.568 116.568, 126.313 116.280, 124.807 114.162 C 123.129 111.802, 120.205 111.115, 106.828 109.941 C 99.408 109.290, 95.279 109.315, 93.964 110.019 C 91.176 111.512, 69.998 111.679, 67.366 110.229 C 65.787 109.360, 61.888 109.298, 52.366 109.993 C 33.921 111.339, 19.763 112.856, 10 114.533 C 5.325 115.336, 1.163 115.995, 0.750 115.997 C 0.337 115.999, 0 122.300, 0 130 L 0 144 95.941 144 C 148.709 144, 192.074 143.662, 192.309 143.250 C 192.543 142.838, 192.508 111.831, 192.230 74.348 L 191.724 6.195 189.315 5.098 C 186.169 3.664, 180.319 3.852, 170.750 5.693 M 0.397 130 C 0.397 137.975, 0.553 141.238, 0.743 137.250 C 0.932 133.262, 0.932 126.737, 0.743 122.750 C 0.553 118.763, 0.397 122.025, 0.397 130" stroke="none" fill="black" fill-rule="evenodd"/>
</svg>