<svg xmlns="http://www.w3.org/2000/svg" width="192" height="144" viewBox="0 0 192 144" version="1.1">
	<path d="M 82.072 45.413 C 81.025 46.674, 81.242 47.023, 83.412 47.567 C 88.287 48.791, 86 50, 78.750 50.032 C 71.193 50.065, 68 51.360, 68 54.392 C 68 55.311, 67.353 56.311, 66.563 56.614 C 65.773 56.917, 65.349 57.747, 65.622 58.458 C 65.895 59.168, 63.453 62.843, 60.195 66.625 C 54.593 73.128, 48 83.863, 48 86.480 C 48 87.140, 49.125 88.192, 50.500 88.818 C 53.876 90.356, 53.651 91.418, 49.421 93.914 C 45.695 96.113, 45.318 98.239, 48.544 98.864 C 51.091 99.357, 56.545 96.294, 57.824 93.651 C 58.679 91.883, 58.877 91.812, 58.932 93.250 C 58.970 94.213, 59.675 95, 60.500 95 C 62.641 95, 62.368 96.487, 59.405 100.964 C 56.667 105.102, 56.865 107, 60.036 107 C 62.296 107, 65.002 103.227, 65.904 98.817 C 66.311 96.824, 67.220 95.585, 68.403 95.411 C 71.438 94.966, 72.314 93.455, 70.980 90.963 C 68.215 85.797, 71.463 78.741, 81.716 67.642 L 85.280 63.785 91.890 64.448 C 105.290 65.792, 110.422 64.432, 111.578 59.232 C 111.913 57.729, 112.371 55.801, 112.598 54.948 C 113.253 52.475, 110.780 50.037, 107.202 49.628 C 105.388 49.421, 103.363 48.558, 102.702 47.710 C 101.877 46.653, 99.145 46.027, 94 45.717 C 89.875 45.468, 85.785 44.960, 84.910 44.587 C 83.990 44.195, 82.795 44.543, 82.072 45.413" stroke="none" fill="black" fill-rule="evenodd"/>
</svg>