<svg xmlns="http://www.w3.org/2000/svg" width="192" height="144" viewBox="0 0 192 144" version="1.1">
	<path d="M 101.709 18.624 C 101.319 19.014, 100.995 20.721, 100.988 22.417 C 100.967 28.003, 96.075 52.470, 94.774 53.496 C 94.039 54.075, 93.405 57.119, 93.276 60.696 C 93.017 67.843, 87.953 89.986, 85.146 96.247 C 82.089 103.062, 81.645 105.163, 83.072 106.045 C 84.094 106.676, 83.688 110.301, 81.095 123.670 C 79.300 132.926, 77.614 141.287, 77.348 142.250 C 77.005 143.493, 77.443 144, 78.861 144 C 81.075 144, 81.187 143.584, 85.130 120.750 C 86.661 111.889, 87.739 108, 88.666 108 C 90.309 108, 90.432 106.945, 87.591 117.270 L 85.182 126.027 87.222 127.119 C 90.779 129.022, 102.084 127.789, 105.884 125.082 L 109.224 122.704 108.525 126.102 C 108.141 127.971, 106.966 132.360, 105.913 135.855 C 104.861 139.351, 104 142.613, 104 143.105 C 104 143.597, 111.490 144, 120.645 144 L 137.291 144 136.609 130.250 C 136.223 122.475, 135.255 114.434, 134.381 111.745 C 133.108 107.827, 133.040 106.069, 133.993 101.745 C 134.629 98.860, 135.772 93.575, 136.533 90 C 137.294 86.425, 138.173 76.300, 138.487 67.500 C 139.031 52.226, 138.954 51.299, 136.779 47.059 C 133.771 41.196, 130.376 38.833, 124.893 38.786 C 117.998 38.728, 112.358 41.533, 109.472 46.458 C 106.477 51.567, 106.353 54.353, 109 57 C 110.100 58.100, 111 59.569, 111 60.265 C 111 60.960, 111.901 63.210, 113.002 65.265 C 115.153 69.278, 113.603 70.797, 111.232 67 C 110.545 65.900, 109.363 65, 108.605 65 C 107.848 65, 106.446 63.313, 105.490 61.250 C 104.534 59.188, 102.871 56.532, 101.795 55.349 C 99.848 53.209, 99.854 53.128, 103.071 38.849 C 107.044 21.213, 107.220 18.603, 104.459 18.208 C 103.336 18.047, 102.099 18.235, 101.709 18.624 M 97.677 65.750 C 97.434 66.162, 96.915 67.993, 96.523 69.817 C 95.857 72.921, 95.937 73.056, 97.758 71.919 C 100.262 70.355, 102.236 67.191, 101.475 65.959 C 100.771 64.820, 98.304 64.684, 97.677 65.750 M 93.224 82.500 C 89.570 98.243, 89.164 97.003, 99 100.137 C 109.591 103.511, 109 103.495, 109 100.404 C 109 97.119, 105.925 91.815, 104.367 92.413 C 101.882 93.366, 98.104 86.962, 96.453 79 L 95.313 73.500 93.224 82.500" stroke="none" fill="black" fill-rule="evenodd"/>
</svg>