<svg xmlns="http://www.w3.org/2000/svg" width="192" height="144" viewBox="0 0 192 144" version="1.1">
	<path d="M 103 19 C 103 19.550, 103.450 20, 104 20 C 104.550 20, 105 20.900, 105 22 C 105 23.100, 104.409 24, 103.687 24 C 101.558 24, 97.266 29.239, 96.528 32.739 C 96.153 34.520, 95.401 36.252, 94.858 36.588 C 94.264 36.955, 94.511 37.907, 95.477 38.975 C 96.971 40.626, 96.865 40.936, 93.966 43.375 C 92.250 44.819, 89.981 46, 88.923 46 C 86.617 46, 86.344 48.811, 88.567 49.664 C 89.430 49.995, 91.187 49.703, 92.472 49.015 C 95.113 47.601, 97 48.326, 97 50.754 C 97 51.654, 98.191 53.634, 99.648 55.154 C 101.915 57.521, 102.366 59.023, 102.789 65.618 C 103.541 77.325, 101.899 79.430, 81.066 93.485 C 76.977 96.243, 71.526 99.919, 68.953 101.653 C 63.169 105.551, 59.595 110.345, 60.343 113.202 C 60.645 114.358, 59.792 118.014, 58.446 121.325 C 55.875 127.652, 55.442 130, 56.845 130 C 58.096 130, 60.485 127.056, 63.216 122.148 C 64.548 119.755, 66.034 117.810, 66.518 117.826 C 67.002 117.842, 68.717 121.488, 70.329 125.928 C 71.941 130.367, 73.764 133.978, 74.380 133.951 C 74.996 133.925, 79.054 128.412, 83.398 121.701 C 87.742 114.991, 92.632 108.410, 94.264 107.078 L 97.232 104.656 99.121 107.078 C 100.472 108.811, 100.862 110.496, 100.491 113 C 99.498 119.700, 98.035 135.528, 98.017 139.750 L 98 144 126.500 144 L 155 144 155.058 139.750 C 155.090 137.412, 155.342 130.463, 155.618 124.308 C 156.161 112.183, 154.869 105.736, 149.432 93.442 C 144.305 81.849, 143.190 76.936, 142.693 63.756 C 142.415 56.388, 142.589 51.246, 143.106 51.565 C 143.598 51.869, 144.462 51.833, 145.026 51.484 C 145.618 51.118, 144.773 49.656, 143.026 48.024 C 140.323 45.499, 140 44.571, 140 39.331 C 140 28.083, 132.864 22.281, 117.757 21.246 C 112.917 20.914, 108.988 20.131, 108.198 19.341 C 106.635 17.778, 103 17.539, 103 19" stroke="none" fill="black" fill-rule="evenodd"/>
</svg>