<svg xmlns="http://www.w3.org/2000/svg" width="192" height="144" viewBox="0 0 192 144" version="1.1">
	<path d="M 66 1.345 C 66 3.476, 63.009 6.218, 61.371 5.589 C 60.617 5.300, 60 5.641, 60 6.347 C 60 8.338, 52.638 12, 48.637 12 C 45.885 12, 44.653 12.600, 43.364 14.566 C 41.771 16.999, 41.789 17.318, 43.714 20.687 C 45.592 23.973, 45.634 24.521, 44.275 27.983 C 42.880 31.532, 42.938 31.976, 45.402 36.604 C 46.831 39.288, 48 42.039, 48 42.716 C 48 44.213, 45.148 45.723, 30.112 52.186 C 17.531 57.594, 15 58.390, 15 56.943 C 15 56.424, 14.293 56, 13.428 56 C 12.563 56, 9.619 53.882, 6.885 51.294 L 1.914 46.587 5.278 44.862 C 9.813 42.535, 11.319 40.513, 11.216 36.889 C 11.055 31.245, 6.252 26.598, 1.787 27.766 C 0.143 28.196, 0 29.901, 0 49.085 C 0 67.050, 0.204 69.859, 1.475 69.371 C 3.587 68.561, 8.946 72.166, 14.574 78.183 C 18.778 82.677, 19.896 83.348, 22.844 83.150 C 27.112 82.862, 31.584 80.645, 35.628 76.810 C 39.064 73.552, 45.693 71.500, 47.618 73.098 C 49.708 74.833, 54.159 85.285, 53.645 87.251 C 53.365 88.320, 53.948 89.948, 54.980 90.980 C 56.644 92.644, 56.677 93.069, 55.336 95.653 C 54.525 97.216, 53.271 99.172, 52.549 99.998 C 51.827 100.824, 49.382 105.246, 47.115 109.824 C 43.121 117.892, 38.051 126.019, 35.209 128.910 C 33.014 131.142, 29.437 137.203, 28.219 140.750 L 27.104 144 57.697 144 L 88.290 144 87.661 137.250 C 87.315 133.537, 86.826 129.150, 86.574 127.500 C 86.321 125.850, 85.607 119.837, 84.987 114.137 C 84.367 108.437, 83.122 102.227, 82.221 100.337 C 80.900 97.568, 80.817 96.523, 81.791 94.963 C 83.456 92.297, 83.277 84.846, 81.347 76.500 C 80.456 72.650, 79.816 66.566, 79.923 62.980 C 80.095 57.219, 79.833 56.191, 77.670 54.160 C 75.419 52.045, 75.333 51.641, 76.593 49.114 C 77.347 47.603, 78.309 43.921, 78.732 40.933 L 79.500 35.500 86 32.316 C 89.575 30.565, 93.711 29.103, 95.191 29.066 C 99.620 28.957, 99.729 26.472, 95.405 24.197 C 93.807 23.357, 92.838 23.425, 91.325 24.485 C 87.782 26.967, 78.053 30.895, 77.533 30.054 C 77.255 29.604, 77.918 28.103, 79.007 26.719 C 80.748 24.504, 80.826 23.894, 79.656 21.638 C 78.684 19.764, 78.028 19.372, 77.219 20.181 C 76.410 20.990, 76.263 20.712, 76.673 19.144 C 77.062 17.656, 76.775 17, 75.733 17 C 73.281 17, 66.732 9.102, 67.578 7.165 C 68.767 4.442, 68.591 0.726, 67.250 0.264 C 66.563 0.027, 66 0.514, 66 1.345 M 85.796 29.433 C 77.737 33.766, 77.393 34.628, 85.006 31.409 C 92.089 28.414, 93.616 27.453, 92.337 26.796 C 91.877 26.560, 88.933 27.746, 85.796 29.433 M 45.750 50.080 C 44.788 50.641, 44 51.527, 44 52.050 C 44 53.746, 46.485 53.054, 47.768 51 C 49.135 48.811, 48.458 48.503, 45.750 50.080 M 35 54.842 C 31.975 56.341, 27.925 58.190, 26 58.951 C 20.072 61.295, 19.826 61.739, 22.050 66.098 C 23.145 68.244, 24.369 69.987, 24.770 69.971 C 26.230 69.912, 32 63.989, 32 62.549 C 32 61.736, 32.830 60.626, 33.845 60.083 C 35.365 59.270, 41.781 51.868, 40.801 52.058 C 40.635 52.091, 38.025 53.343, 35 54.842 M 0.068 113.235 L -0 133.971 5.032 131.987 C 12.003 129.240, 14.615 127.360, 17.142 123.270 L 19.320 119.746 13.161 114.123 C 8.847 110.185, 6.298 106.852, 4.654 103 C 3.363 99.975, 1.818 96.375, 1.221 95 C 0.392 93.092, 0.119 97.406, 0.068 113.235" stroke="none" fill="black" fill-rule="evenodd"/>
</svg>