<svg xmlns="http://www.w3.org/2000/svg" width="192" height="144" viewBox="0 0 192 144" version="1.1">
	<path d="M 0 72 L 0 144 12.500 144 C 19.375 144, 24.979 143.662, 24.952 143.250 C 24.585 137.478, 21.640 119.987, 19.523 111 C 17.314 101.626, 16.826 97.241, 16.883 87.279 C 16.965 72.929, 17.939 66.123, 21.877 52.396 C 23.471 46.839, 25.080 40.487, 25.452 38.282 C 26.171 34.029, 25.351 32.587, 20.360 29.316 C 18.135 27.859, 18 27.185, 18 17.572 C 18 7.704, 18.091 7.287, 20.805 4.687 C 22.728 2.845, 24.692 1.995, 27.055 1.985 C 28.950 1.976, 31.175 1.533, 32 1 C 33.002 0.353, 27.934 0.026, 16.750 0.015 L 0 0 0 72 M 167.008 1.250 C 167.012 1.938, 167.430 5.200, 167.936 8.500 C 168.443 11.800, 169.099 16.395, 169.394 18.712 C 169.689 21.029, 170.885 26.654, 172.051 31.212 C 174.765 41.821, 175.723 55.841, 174.015 59.963 C 172.590 63.404, 171.522 63.799, 170.540 61.250 C 169.900 59.588, 169.815 59.590, 168.871 61.271 C 168.324 62.245, 167.710 63.820, 167.506 64.771 C 166.504 69.431, 161.763 81.665, 158.811 87.206 C 152.500 99.054, 138.421 111.353, 126.500 115.430 C 119.611 117.787, 107.473 118.553, 101.128 117.031 C 93.988 115.318, 85.618 110.572, 81.999 106.186 C 77.496 100.726, 74.724 92.659, 75.895 88.419 C 77.693 81.907, 78.402 81.686, 92.921 83.106 C 102.921 84.084, 106.692 84.102, 109.664 83.187 C 115.914 81.264, 116.627 80.540, 115.096 77.680 C 114.060 75.744, 114.023 74.119, 114.919 69.942 C 115.994 64.931, 115.171 61.297, 113.554 63.913 C 112.300 65.941, 106.304 65.012, 100.435 61.880 C 95.133 59.051, 93.964 58.805, 87.869 59.241 C 77.524 59.982, 69.464 65.564, 65.303 74.871 C 63.057 79.895, 63.066 92.987, 65.320 99.595 C 67.377 105.626, 70.104 109.531, 77.542 117.099 C 84.237 123.910, 90.998 127.301, 101.277 129.004 C 112.029 130.785, 122.947 129.781, 133.756 126.016 C 138.565 124.341, 143.017 122.845, 143.649 122.692 C 144.281 122.538, 145.406 121.917, 146.149 121.311 C 148.702 119.229, 157.173 114.840, 157.673 115.340 C 158.503 116.170, 150.082 121.333, 141 125.562 C 135.982 127.899, 126.089 130.986, 118.500 132.584 C 115.855 133.141, 115.737 133.304, 117.500 133.966 C 118.600 134.379, 122.875 134.786, 127 134.871 C 144.140 135.224, 148 136.153, 148 139.922 C 148 140.845, 147.460 142.140, 146.800 142.800 C 145.867 143.733, 150.756 144, 168.800 144 L 192 144 192 72 L 192 0 179.500 0 C 170.163 0, 167.002 0.316, 167.008 1.250 M 103.193 28.324 C 111.667 32.735, 114.468 33.279, 111.433 29.926 C 108.928 27.158, 101.837 24, 98.127 24 C 95.254 24, 95.828 24.490, 103.193 28.324" stroke="none" fill="black" fill-rule="evenodd"/>
</svg>