<svg xmlns="http://www.w3.org/2000/svg" width="192" height="144" viewBox="0 0 192 144" version="1.1">
	<path d="M 11.217 4.743 C 9.028 7.360, 5.610 12.200, 3.621 15.500 L 0.005 21.500 0.003 72.595 L -0 123.690 4.128 130.095 C 6.398 133.618, 9.586 138.188, 11.212 140.250 L 14.168 144 25.198 144 L 36.227 144 35.612 140.750 C 32.669 125.197, 32.938 117.231, 36.773 106.429 C 40.568 95.739, 51.914 83.157, 62.338 78.079 C 74.622 72.095, 84.388 70.822, 100.665 73.086 C 111.683 74.619, 124.715 71.768, 135.451 65.476 C 140.578 62.471, 149.381 53.899, 152.885 48.500 C 154.313 46.300, 155.756 44.275, 156.092 44 C 156.427 43.725, 156.963 42.375, 157.281 41 C 157.600 39.625, 158.368 36.700, 158.987 34.500 C 161.799 24.516, 162.118 22.088, 161.505 15.380 C 161.147 11.464, 160.254 6.514, 159.520 4.380 L 158.186 0.500 86.692 0.243 L 15.197 -0.013 11.217 4.743 M 179.244 1.750 C 180.099 2.712, 183.319 7.281, 186.399 11.903 L 192 20.306 192 10.153 L 192 0 184.845 0 C 178.105 0, 177.780 0.102, 179.244 1.750 M 101.500 9.949 C 97.722 11.501, 94 16.749, 94 20.523 C 94 33.144, 106.876 38.649, 115.449 29.693 C 116.785 28.297, 117.502 25.904, 117.732 22.079 C 118.020 17.273, 117.721 16.118, 115.573 13.740 C 111.683 9.435, 106.287 7.981, 101.500 9.949 M 76.752 109.841 C 75.240 110.754, 74.003 112.030, 74.002 112.679 C 74.001 113.327, 73.316 114.541, 72.481 115.377 C 71.645 116.212, 70.875 118.889, 70.768 121.325 C 70.547 126.404, 73.987 131.907, 79.002 134.501 C 83.129 136.635, 90.820 136.407, 94.710 134.035 C 99.210 131.292, 102.323 124.870, 101.504 120.021 C 100.816 115.952, 96.179 110.399, 92.208 108.889 C 88.502 107.480, 79.773 108.018, 76.752 109.841 M 189.796 127.250 C 188.930 129.037, 185.937 133.537, 183.145 137.250 L 178.068 144 185.034 144 L 192 144 192 134 C 192 128.500, 191.858 124, 191.685 124 C 191.512 124, 190.662 125.463, 189.796 127.250" stroke="none" fill="black" fill-rule="evenodd"/>
</svg>