<svg xmlns="http://www.w3.org/2000/svg" width="192" height="144" viewBox="0 0 192 144" version="1.1">
	<path d="M 0 72 L 0 144 11 144 C 21.089 144, 22 143.845, 22 142.125 C 22 141.094, 22.281 138.844, 22.625 137.125 C 23.120 134.651, 22.912 134, 21.625 134 C 19.798 134, 19.574 131.537, 20.888 125.884 C 21.378 123.778, 21.340 121.572, 20.797 120.603 C 20.161 119.466, 20.510 117.076, 21.898 113.065 C 23.016 109.835, 23.889 105.092, 23.837 102.526 C 23.757 98.555, 24.225 97.363, 26.978 94.522 C 30.131 91.270, 30.161 91.156, 28.156 90.083 C 26.425 89.157, 25.692 89.420, 23.549 91.731 C 20.591 94.921, 20.644 95.396, 22.512 82.500 C 24.293 70.210, 24.482 58.584, 22.886 59.570 C 22.273 59.949, 19.175 59.017, 16 57.500 C 11.602 55.398, 10.239 54.236, 10.275 52.621 C 10.301 51.454, 9.977 49.712, 9.554 48.750 C 8.968 47.414, 9.254 47, 10.767 47 C 11.857 47, 14.770 45.870, 17.240 44.489 L 21.733 41.978 22.228 35.064 C 23.068 23.319, 28.556 16.283, 38.500 14.202 C 42.068 13.456, 44.073 12.372, 45.500 10.417 C 46.600 8.911, 48.467 6.520, 49.650 5.105 L 51.800 2.531 53.853 5.016 C 54.982 6.382, 56.414 8.694, 57.035 10.154 C 57.849 12.070, 59.163 12.996, 61.760 13.483 C 70.714 15.163, 77.675 20.523, 82.057 29.112 C 83.674 32.281, 84.065 34.671, 83.846 40.038 C 83.601 46.043, 83.854 47.216, 85.857 49.348 C 87.792 51.408, 87.959 52.092, 86.930 53.740 C 85.936 55.332, 86.111 57.005, 87.878 62.824 C 90.893 72.750, 95.691 82.764, 98.033 84.017 C 99.115 84.597, 100 85.808, 100 86.709 C 100 88.055, 99.567 87.942, 97.586 86.081 L 95.172 83.813 92.271 85.958 C 89.609 87.926, 88.842 88.018, 82.993 87.076 C 79.486 86.512, 76.482 86.185, 76.317 86.350 C 76.152 86.515, 79.051 88.244, 82.758 90.191 C 87.632 92.752, 89.452 94.244, 89.326 95.578 C 89.230 96.593, 90.219 100.591, 91.524 104.462 C 93.271 109.643, 94.373 111.512, 95.699 111.547 C 96.784 111.575, 97.337 112.171, 97.090 113.047 C 95.369 119.147, 95.743 121.422, 98.899 124.057 C 101.672 126.371, 101.875 126.859, 100.533 127.973 C 98.504 129.656, 98.581 130.448, 101.453 137.500 L 103.897 143.500 148.199 143.500 L 192.500 143.500 192.757 71.750 L 193.013 0 96.507 0 L 0 0 0 72 M 0.474 72.500 C 0.474 112.100, 0.598 128.154, 0.750 108.176 C 0.901 88.198, 0.901 55.798, 0.750 36.176 C 0.598 16.554, 0.474 32.900, 0.474 72.500 M 168.597 4.844 C 168.251 5.404, 168.455 6.163, 169.050 6.531 C 170.588 7.481, 171.580 6.180, 170.296 4.896 C 169.578 4.178, 169.019 4.161, 168.597 4.844 M 184 46 C 184 46.550, 184.423 47, 184.941 47 C 185.459 47, 186.160 46.550, 186.500 46 C 186.840 45.450, 186.416 45, 185.559 45 C 184.702 45, 184 45.450, 184 46 M 92.750 49.662 C 93.438 49.940, 94.563 49.940, 95.250 49.662 C 95.938 49.385, 95.375 49.158, 94 49.158 C 92.625 49.158, 92.063 49.385, 92.750 49.662" stroke="none" fill="black" fill-rule="evenodd"/>
</svg>