<svg xmlns="http://www.w3.org/2000/svg" width="192" height="144" viewBox="0 0 192 144" version="1.1">
	<path d="M 0 72 L 0 144 23.374 144 C 46.653 144, 46.767 143.989, 51.374 141.415 C 53.918 139.992, 56.034 138.530, 56.077 138.165 C 56.160 137.436, 56.216 137.197, 58.343 128.500 C 59.149 125.200, 60.360 119.800, 61.032 116.500 C 61.705 113.200, 62.444 110.007, 62.675 109.404 C 62.915 108.779, 59.103 106.912, 53.798 105.058 C 34.647 98.364, 27.479 95.579, 26.766 94.554 C 25.480 92.706, 26.546 91.580, 30.327 90.794 C 33.217 90.194, 35.135 90.546, 39.270 92.438 C 42.166 93.762, 46.889 95.780, 49.767 96.923 C 52.645 98.065, 57.264 99.899, 60.032 100.998 C 64.770 102.879, 65.102 102.894, 65.709 101.248 C 66.064 100.287, 66.819 99.190, 67.387 98.811 C 68.044 98.373, 67.762 97.395, 66.612 96.124 C 65.618 95.025, 65.121 93.613, 65.508 92.986 C 65.896 92.359, 66.175 89.130, 66.128 85.809 C 66.065 81.326, 65.393 78.608, 63.521 75.259 C 60.540 69.925, 60.250 64.104, 62.750 59.786 C 65.320 55.346, 70.854 50.075, 73.693 49.362 C 75.919 48.804, 76.014 48.586, 74.635 47.206 C 73.325 45.896, 72.858 45.873, 71.442 47.048 C 70.018 48.230, 69.608 48.185, 68.543 46.728 C 67.861 45.795, 67.053 45.280, 66.749 45.585 C 66.444 45.889, 65.213 45.545, 64.013 44.819 C 61.990 43.596, 61.879 42.989, 62.491 36.500 C 63.196 29.015, 66.103 21, 68.110 21 C 68.783 21, 69.053 20.719, 68.710 20.376 C 68.078 19.744, 72.266 16.652, 77.195 14.110 C 80.600 12.355, 86.446 13.215, 90.256 16.031 L 93.079 18.118 97.789 13.617 C 100.380 11.142, 104.171 7.853, 106.214 6.308 C 108.256 4.764, 109.944 2.712, 109.964 1.750 C 109.998 0.104, 106.728 0, 55 0 L 0 0 0 72 M 96.079 5.583 C 96.127 6.748, 96.364 6.985, 96.683 6.188 C 96.972 5.466, 96.936 4.603, 96.604 4.271 C 96.272 3.939, 96.036 4.529, 96.079 5.583 M 113 13.059 C 113 13.641, 113.450 13.840, 114 13.500 C 114.550 13.160, 115 12.684, 115 12.441 C 115 12.198, 114.550 12, 114 12 C 113.450 12, 113 12.477, 113 13.059 M 102.617 37.241 C 100.819 46.797, 100.513 47.498, 98 47.835 C 94.448 48.310, 93.141 49.864, 95.069 51.317 C 95.932 51.968, 96.607 53.846, 96.569 55.490 C 96.507 58.160, 97.136 58.804, 102.434 61.490 C 105.698 63.146, 108.668 65.175, 109.034 66 C 111.667 71.939, 113.642 74.093, 121.136 79.198 C 125.736 82.332, 130.209 84.919, 131.076 84.948 C 131.942 84.977, 133.668 83.917, 134.911 82.594 C 137.623 79.708, 136.966 77.933, 131.361 73.012 C 126.898 69.094, 122.225 67.013, 117.782 66.965 C 114.738 66.932, 107.973 64.114, 110.750 64.035 C 111.539 64.013, 112 62.501, 112 59.934 C 112 57.698, 112.467 54.995, 113.038 53.928 C 114.562 51.082, 112.281 44, 109.842 44 C 108.478 44, 108 43.251, 108 41.115 C 108 39.148, 107.211 37.713, 105.521 36.606 C 103.146 35.050, 103.025 35.076, 102.617 37.241 M 89.510 49.016 C 89.856 49.575, 90.557 49.774, 91.069 49.457 C 92.456 48.600, 92.198 48, 90.441 48 C 89.584 48, 89.165 48.457, 89.510 49.016 M 94.537 78.750 C 97.065 91.384, 97.259 94.276, 95.638 95.183 C 93.388 96.442, 93.585 100.592, 96.086 104.639 L 98.172 108.014 101.336 105.810 C 115.929 95.647, 117.909 93.795, 117.322 90.859 C 116.917 88.834, 117.151 87.985, 118.125 87.950 C 120.346 87.870, 97.158 77, 94.765 77 C 94.447 77, 94.345 77.787, 94.537 78.750 M 144.054 81.104 C 142.708 81.641, 139.704 83.641, 137.377 85.548 C 133.166 88.998, 133.149 89.039, 133.702 94.399 C 134.209 99.314, 134.065 99.845, 132.053 100.483 C 130.841 100.868, 129.590 100.924, 129.274 100.607 C 128.957 100.290, 128.140 100.794, 127.458 101.726 C 126.441 103.117, 125.778 103.220, 123.759 102.300 C 121.696 101.360, 120.876 101.527, 118.675 103.340 C 117.231 104.528, 114.453 106.625, 112.500 108 C 105.866 112.672, 103.748 114.726, 104.861 115.414 C 105.453 115.780, 109.214 116.987, 113.219 118.097 C 117.223 119.207, 122.075 120.575, 124 121.138 C 125.925 121.700, 130.994 122.956, 135.264 123.927 C 139.534 124.899, 143.285 125.952, 143.599 126.266 C 144.582 127.249, 139.908 129.201, 136.629 129.177 C 134.094 129.159, 111.397 123.788, 103.598 121.361 C 101.852 120.817, 101.750 121.166, 102.353 125.634 C 102.714 128.311, 103.945 133.537, 105.088 137.250 L 107.166 144 149.583 144 L 192 144 192 113.389 L 192 82.779 180.071 83.496 C 169.942 84.104, 167.795 83.970, 165.848 82.606 C 162.964 80.586, 159.117 80.532, 158.362 82.500 C 158.045 83.325, 157.159 84, 156.393 84 C 155.627 84, 155 84.675, 155 85.500 C 155 87.982, 153.264 87.189, 152.560 84.385 C 151.989 82.109, 151.521 81.846, 148.952 82.360 C 146.062 82.938, 144.780 81.659, 147.250 80.662 C 147.938 80.385, 148.050 80.151, 147.500 80.142 C 146.950 80.134, 145.399 80.566, 144.054 81.104" stroke="none" fill="black" fill-rule="evenodd"/>
</svg>