<svg xmlns="http://www.w3.org/2000/svg" width="192" height="144" viewBox="0 0 192 144" version="1.1">
	<path d="M 0 48.500 C 0 77.636, 0.370 97, 0.927 97 C 2.206 97, 6 92.038, 6 90.365 C 6 89.614, 6.525 89, 7.167 89 C 7.808 89, 8.060 88.727, 7.727 88.393 C 7.087 87.754, 8.312 85.967, 11.302 83.180 C 20.821 74.305, 23.798 71.798, 30.341 67.147 C 38.862 61.089, 42.065 57.031, 44.954 48.634 C 47.425 41.451, 49.816 37.517, 54.402 33.085 C 57.362 30.224, 58.847 29.594, 63.549 29.204 C 70.050 28.665, 71.213 27.178, 68.640 22.696 C 66.658 19.242, 67.021 18.406, 69.849 19.919 C 70.960 20.514, 73.359 21, 75.182 21 C 77.859 21, 79.358 20.069, 82.997 16.144 C 85.474 13.474, 88.483 10.774, 89.684 10.144 C 92.377 8.733, 95 8.662, 95 10 C 95 10.550, 94.497 11, 93.882 11 C 93.267 11, 91.226 12.350, 89.347 14 L 85.930 17 89.965 17 C 92.184 17, 94 17.420, 94 17.933 C 94 18.856, 92.982 19.265, 87.860 20.398 C 86.408 20.720, 84.949 21.690, 84.617 22.555 C 83.835 24.593, 86.459 29.640, 89.010 31.006 C 92.177 32.700, 91.390 34.164, 87.686 33.469 C 85.327 33.026, 84.002 33.293, 83.088 34.394 C 82.011 35.692, 82.302 36.542, 84.902 39.698 C 87.507 42.857, 88 44.303, 88 48.776 C 88 53.283, 87.584 54.481, 85.275 56.621 C 83.500 58.266, 81.756 58.995, 80.275 58.712 C 77.846 58.248, 77.860 58.122, 77.541 83.751 C 77.518 85.539, 77.162 87.001, 76.750 87.001 C 76.338 87, 76 88.125, 76 89.500 C 76 91.236, 76.535 91.983, 77.750 91.944 C 80.682 91.851, 88.500 88.316, 88.500 87.084 C 88.500 86.448, 89.128 85.539, 89.895 85.065 C 90.889 84.451, 91.130 83.003, 90.732 80.037 C 90.365 77.304, 90.573 75.748, 91.336 75.513 C 95.006 74.386, 99.698 74.170, 101 75.068 C 102.321 75.980, 102.304 76.238, 100.863 77.226 C 99.520 78.146, 99.414 78.901, 100.276 81.424 C 100.855 83.116, 101.816 84.821, 102.414 85.214 C 103.011 85.606, 103.500 86.446, 103.500 87.081 C 103.500 87.716, 105.691 89.096, 108.369 90.148 L 113.238 92.060 112.576 86.765 C 112.213 83.853, 112.380 76.561, 112.949 70.560 C 113.517 64.559, 113.864 59.530, 113.719 59.385 C 113.574 59.240, 112.166 58.888, 110.590 58.602 C 106.167 57.800, 104 54.799, 104 49.476 C 104 44.165, 105.039 41.769, 109.292 37.275 C 112.052 34.358, 112.228 33.796, 111.134 31.396 C 110.469 29.936, 109.638 29.029, 109.287 29.380 C 108.430 30.236, 104 26.001, 104 24.326 C 104 23.597, 104.502 23, 105.117 23 C 106.249 23, 105.961 20.224, 104.441 16.500 C 103.691 14.659, 103.773 14.619, 105.476 16 C 107.220 17.413, 107.255 17.364, 106.083 15.164 C 102.309 8.084, 110.704 17.357, 115.870 25.976 L 117.953 29.451 125.580 29.133 L 133.207 28.815 138.446 34.223 C 142.263 38.164, 144.423 41.564, 146.406 46.754 C 150.905 58.529, 152.914 60.537, 169.061 69.406 C 176.977 73.754, 184.043 77.901, 184.763 78.621 C 185.484 79.341, 187.406 80.718, 189.036 81.681 C 191.754 83.286, 192 83.891, 192 88.975 C 192 93.175, 191.576 94.782, 190.250 95.603 C 187.813 97.111, 174.492 95.559, 168.035 93.014 C 165.225 91.906, 162.237 91, 161.395 91 C 160.553 91, 163.482 94.584, 167.904 98.965 C 175.922 106.908, 178.190 110.861, 176.143 113.327 C 175.341 114.294, 175.707 115.576, 177.568 118.314 C 180.655 122.857, 179.672 123.003, 174.530 118.765 C 171.971 116.655, 170.837 116.133, 171.271 117.265 C 171.638 118.219, 171.797 119, 171.626 119 C 171.455 119, 168.718 116.525, 165.545 113.500 C 157.629 105.955, 155.681 106.109, 162.377 113.750 C 165.841 117.703, 163.417 116.167, 157.925 110.928 C 155 108.139, 151.345 104.958, 149.803 103.860 L 147 101.864 147 107.416 C 147 114.842, 149.886 117.989, 159.500 121.047 C 163.350 122.271, 168.300 124.566, 170.500 126.147 C 174.740 129.193, 183.982 140.604, 183.993 142.807 C 183.998 143.727, 185.263 144.024, 188.250 143.807 L 192.500 143.500 192.758 71.750 L 193.016 0 96.508 0 L 0 0 0 48.500 M 0.463 49 C 0.463 75.675, 0.592 86.588, 0.749 73.250 C 0.907 59.913, 0.907 38.088, 0.749 24.750 C 0.592 11.413, 0.463 22.325, 0.463 49 M 67 66.635 C 67 66.882, 67.900 68.050, 69 69.230 C 70.999 71.376, 71 71.376, 71 69.305 C 71 68.074, 70.188 67.021, 69 66.710 C 67.900 66.423, 67 66.389, 67 66.635 M 119.684 68.862 C 118.987 72.489, 119.591 72.733, 122.504 69.996 C 125.608 67.080, 125.622 66.536, 122.595 66.362 C 120.741 66.255, 120.074 66.828, 119.684 68.862 M 80.250 100.100 C 72.574 104.391, 70.203 107.798, 76.250 105.848 C 88.588 101.870, 89.956 101.064, 89.985 97.750 C 90.007 95.184, 88.314 95.593, 80.250 100.100 M 102.473 98.748 C 102.852 100.259, 103.238 101.545, 103.331 101.605 C 104.576 102.409, 116.472 105.861, 116.816 105.517 C 117.702 104.632, 114.759 102.009, 109.511 99.006 C 102.866 95.205, 101.572 95.157, 102.473 98.748 M 17.500 101.856 C 11.792 104.441, 7.642 105.388, 8.565 103.894 C 9.094 103.039, 8.560 102.894, 6.649 103.373 C 5.123 103.756, 4 103.619, 4 103.050 C 4 102.507, 3.325 102.322, 2.500 102.638 C 1.235 103.124, 1 106.402, 1 123.607 L 1 144 13.277 144 L 25.554 144 29.892 135.250 C 32.278 130.438, 36.517 123.625, 39.311 120.112 C 43.914 114.325, 44.434 113.151, 44.831 107.655 L 45.270 101.588 40.133 105.889 C 37.308 108.254, 34.209 111.181, 33.248 112.392 C 30.451 115.915, 28.330 116.760, 30.639 113.431 C 31.757 111.819, 33.057 109.825, 33.528 109 C 34.933 106.538, 31.234 109.554, 25.662 115.413 C 23 118.211, 21.097 119.652, 21.432 118.616 C 21.962 116.974, 21.620 117.047, 18.770 119.187 C 13.251 123.330, 12.963 123.301, 14.973 118.813 C 16.348 115.740, 16.562 114.347, 15.738 113.838 C 14.350 112.980, 15.952 109.610, 19.637 105.636 C 20.981 104.186, 21.783 103, 21.418 103 C 21.053 103, 21.315 102.325, 22 101.500 C 23.628 99.538, 22.403 99.635, 17.500 101.856 M 93.872 105.989 C 91.743 109.722, 90.437 110.603, 81.139 114.574 C 75.440 117.009, 69.927 119, 68.889 119 C 65.818 119, 66.573 125.449, 71.610 142.250 C 72.092 143.857, 74.206 144, 97.437 144 L 122.738 144 123.869 135.182 C 124.491 130.333, 125 124.525, 125 122.276 C 125 118.740, 124.741 118.255, 123.085 118.688 C 122.032 118.963, 117.419 117.544, 112.835 115.533 C 108.251 113.522, 103.465 111.454, 102.201 110.938 C 100.936 110.421, 99.078 108.160, 98.073 105.914 L 96.244 101.829 93.872 105.989" stroke="none" fill="black" fill-rule="evenodd"/>
</svg>