<svg xmlns="http://www.w3.org/2000/svg" width="192" height="144" viewBox="0 0 192 144" version="1.1">
	<path d="M 0 57.057 L 0 114.115 4.250 113.807 L 8.500 113.500 8.757 107.500 C 9.146 98.448, 9.610 97.245, 12.999 96.500 C 15.627 95.923, 16 95.412, 16 92.389 C 16 90.243, 16.568 88.719, 17.500 88.362 C 18.325 88.045, 19 86.961, 19 85.952 C 19 84.943, 19.450 83.840, 20 83.500 C 20.568 83.149, 21 84, 21 85.472 C 21 86.897, 21.675 88.322, 22.500 88.638 C 23.423 88.993, 24 90.511, 24 92.588 C 24 95.378, 24.445 96.074, 26.573 96.608 C 29.936 97.452, 30.814 100.123, 30.234 107.750 C 29.913 111.980, 30.122 114, 30.880 114 C 31.496 114, 32 112.451, 32 110.557 C 32 107.628, 35.333 100, 36.613 100 C 37.718 100, 40.993 106.810, 40.996 109.114 C 41 111.465, 41.467 111.792, 45.640 112.364 C 48.191 112.714, 54.007 113, 58.563 113 C 66.016 113, 67.155 113.260, 69.923 115.589 L 73 118.178 73 110.700 C 73 104.675, 73.389 102.763, 75 100.861 L 77 98.500 79.038 100.908 C 80.967 103.186, 81.061 104.417, 80.788 123.659 L 80.500 144.002 136.090 144.001 L 191.681 144 192.338 120.750 C 192.700 107.963, 192.996 75.563, 192.998 48.750 L 193 0 96.500 0 L 0 0 0 57.057 M 0.468 57.500 C 0.468 88.850, 0.595 101.530, 0.750 85.679 C 0.904 69.827, 0.904 44.177, 0.749 28.679 C 0.594 13.180, 0.468 26.150, 0.468 57.500 M 118.999 34.001 C 116.562 36.752, 113.766 39.257, 112.784 39.568 C 109.956 40.466, 110.710 42, 113.981 42 C 117.410 42, 117.915 43.323, 117.731 51.822 C 117.656 55.254, 118.083 57.433, 118.933 57.958 C 121.294 59.418, 120.331 63.399, 116.685 67.250 C 114.732 69.313, 112.429 71, 111.567 71 C 110.705 71, 110.014 71.563, 110.032 72.250 C 110.080 74.139, 112.354 76.725, 113.599 76.305 C 115.753 75.578, 120.052 78.006, 120.993 80.482 C 122.302 83.925, 123.777 83.641, 124.785 79.750 C 125.992 75.093, 129.105 75.322, 130.468 80.168 C 131.036 82.186, 131.827 84.162, 132.226 84.561 C 133.331 85.663, 136 83.011, 136 80.810 C 136 79.262, 136.459 79.002, 138.250 79.534 C 139.488 79.901, 141.063 80.918, 141.750 81.792 C 142.438 82.667, 143.056 83.071, 143.125 82.691 C 143.194 82.311, 143.363 81.550, 143.500 81 C 143.637 80.450, 143.806 79.759, 143.875 79.465 C 143.944 79.170, 144.869 79.395, 145.931 79.963 C 147.388 80.743, 148.246 80.611, 149.431 79.427 C 150.294 78.563, 151 77.439, 151 76.929 C 151 76.418, 151.955 76, 153.122 76 C 154.681 76, 154.982 75.668, 154.257 74.750 C 152.728 72.817, 152.162 68.123, 153.395 67.611 C 154.110 67.314, 153.970 66.778, 153 66.091 C 152.175 65.508, 151.922 65.024, 152.439 65.015 C 152.955 65.007, 152.411 64.100, 151.230 63 C 150.050 61.900, 148.567 61, 147.935 61 C 147.303 61, 147.045 60.325, 147.362 59.500 C 147.834 58.270, 146.866 58, 141.990 58 L 136.043 58 137.184 55.496 C 138.760 52.036, 137.595 51.346, 133.487 53.305 C 130.012 54.962, 130 54.959, 130 52.573 C 130 51.149, 131.195 49.173, 132.945 47.700 C 134.564 46.337, 135.617 44.950, 135.284 44.617 C 134.951 44.285, 135.447 43.164, 136.386 42.126 C 138.025 40.315, 137.942 40.212, 134.296 39.531 C 129.420 38.619, 128 37.390, 128 34.078 C 128 31.312, 126.413 29, 124.515 29 C 123.918 29, 121.436 31.250, 118.999 34.001" stroke="none" fill="black" fill-rule="evenodd"/>
</svg>