<svg xmlns="http://www.w3.org/2000/svg" width="192" height="144" viewBox="0 0 192 144" version="1.1">
	<path d="M 0 72 L 0 144 11.393 144 C 23.553 144, 24.114 143.763, 24.394 138.500 C 24.461 137.234, 25.204 136.498, 26.418 136.496 C 28.779 136.491, 29.598 134.425, 28.001 132.501 C 27.203 131.540, 27.063 129.660, 27.575 126.785 C 27.995 124.428, 28.408 121.600, 28.493 120.500 C 28.756 117.095, 30.063 112.626, 31.650 109.704 C 32.772 107.637, 32.881 106.561, 32.067 105.580 C 30.534 103.733, 31.710 100.971, 35.365 97.833 C 38.226 95.377, 38.460 94.705, 38.323 89.333 C 38.139 82.117, 36.765 78.377, 33.970 77.491 C 31.987 76.861, 31.877 76.367, 32.512 70.900 C 33.164 65.280, 33.047 64.817, 30.125 61.490 C 24.005 54.519, 22.468 41.689, 26.913 34.668 C 27.962 33.011, 32.124 29.017, 36.160 25.793 C 42.225 20.949, 45.144 19.416, 52.960 16.965 C 58.163 15.334, 63.063 14, 63.848 14 C 64.990 14, 65.146 12.900, 64.629 8.500 C 64.273 5.475, 64.145 3, 64.344 3 C 64.542 3, 66.880 5.812, 69.538 9.250 C 72.197 12.688, 76.275 17.578, 78.602 20.117 C 80.928 22.657, 83.998 27.037, 85.424 29.850 C 88.134 35.197, 90.851 36.796, 95.266 35.640 C 98.137 34.889, 103.030 37.038, 102.900 38.994 C 102.612 43.348, 101.317 45.502, 98.951 45.563 C 97.322 45.604, 96.632 46.107, 96.893 47.063 C 98.125 51.566, 95.298 58.956, 91.748 60.514 C 89.372 61.556, 89.191 62.839, 90.298 70.777 C 90.627 73.129, 90.507 74.813, 90.033 74.520 C 88.464 73.550, 88.301 76.447, 89.731 79.885 C 91.090 83.150, 91.064 83.250, 89.013 82.714 C 87.844 82.408, 85.675 82.754, 84.194 83.484 C 82.712 84.213, 80.187 85.190, 78.582 85.655 C 75.423 86.570, 74.014 88.754, 76.167 89.398 C 76.900 89.617, 82 91.011, 87.500 92.496 C 98.640 95.502, 101.092 96.979, 99.042 99.450 C 97.396 101.433, 98.669 101.408, 104.124 99.348 C 110.559 96.918, 127.786 96.937, 135 99.382 C 145.125 102.814, 154.295 108.296, 161.119 114.999 C 167.420 121.187, 174 130.124, 174 132.494 C 174 133.101, 169.387 135.825, 163.750 138.549 L 153.500 143.500 171.968 143.773 C 182.125 143.924, 191.013 143.825, 191.718 143.555 C 192.744 143.161, 193 128.791, 193 71.531 L 193 0 96.500 0 L 0 0 0 72 M 0.474 72.500 C 0.474 112.100, 0.598 128.154, 0.750 108.176 C 0.901 88.198, 0.901 55.798, 0.750 36.176 C 0.598 16.554, 0.474 32.900, 0.474 72.500 M 112.139 58.332 C 111.322 59.317, 111.391 60.153, 112.407 61.542 C 113.623 63.205, 114.108 63.272, 116.637 62.119 L 119.493 60.818 117.136 58.909 C 114.342 56.646, 113.609 56.562, 112.139 58.332 M 90.583 141.866 C 90.152 142.563, 90.070 143.403, 90.400 143.733 C 91.295 144.628, 92.271 143.312, 91.787 141.862 C 91.449 140.846, 91.213 140.846, 90.583 141.866" stroke="none" fill="black" fill-rule="evenodd"/>
</svg>