<svg xmlns="http://www.w3.org/2000/svg" width="192" height="144" viewBox="0 0 192 144" version="1.1">
	<path d="M 83.305 70.945 C 73.464 72.505, 66.509 77.399, 62.910 85.299 C 61.844 87.637, 61.419 87.758, 55.988 87.265 C 48.861 86.619, 34.332 88.610, 31.135 90.672 C 29.181 91.932, 28.866 92.785, 29.319 95.580 C 30.049 100.077, 35.660 108.363, 44.087 117.386 L 50.966 124.752 49.423 129.947 C 47.661 135.881, 48.106 138.998, 50.074 134.500 L 51.386 131.500 51.754 134.198 C 51.957 135.682, 51.681 138.494, 51.142 140.448 C 50.105 144.202, 51.322 145.278, 53.800 142.800 C 54.733 141.867, 55 141.867, 55 142.800 C 55 143.715, 65.111 144, 97.500 144 L 140 144 140.068 141.750 L 140.135 139.500 141.220 141.750 C 142.536 144.478, 146.426 144.924, 145.583 142.250 C 143.586 135.924, 141.318 125.335, 141.729 124.263 C 142 123.559, 143.208 122.735, 144.415 122.432 C 145.622 122.129, 148.063 119.770, 149.839 117.191 C 151.615 114.611, 154.853 110.250, 157.036 107.500 C 159.218 104.750, 161.750 100.559, 162.662 98.188 C 164.250 94.056, 164.238 93.793, 162.368 91.924 C 159.884 89.440, 144.626 86.632, 137 87.256 C 131.534 87.702, 131.481 87.680, 128.465 83.603 C 124.772 78.610, 116.518 73.491, 109.861 72.064 C 102.801 70.550, 89.369 69.984, 83.305 70.945" stroke="none" fill="black" fill-rule="evenodd"/>
</svg>