<svg xmlns="http://www.w3.org/2000/svg" width="192" height="144" viewBox="0 0 192 144" version="1.1">
	<path d="M 63.454 8.751 C 63.406 17.930, 61.079 26.606, 56.684 34 C 54.364 37.902, 47.314 46.796, 45 48.740 C 42.905 50.500, 32.764 56.388, 31.250 56.723 C 30.563 56.875, 29.438 57.125, 28.750 57.278 C 28.063 57.431, 26.842 57.967, 26.038 58.468 C 24.292 59.557, 6.662 59.725, 2.750 58.690 L 0 57.962 0 100.981 L 0 144 59.893 144 C 110.845 144, 119.868 143.787, 120.334 142.573 C 120.635 141.788, 120.255 140.626, 119.489 139.991 C 118.336 139.034, 118.927 137.690, 122.926 132.168 C 128.190 124.898, 134.862 114.087, 136.744 109.777 C 137.762 107.444, 137.581 106.298, 135.476 101.777 C 133.976 98.554, 133.016 94.674, 133.010 91.809 C 133.004 89.229, 132.550 86.840, 132 86.500 C 130.502 85.574, 130.816 75.179, 132.511 69.591 C 133.330 66.891, 134 63.059, 134 61.075 C 134 59.092, 134.908 55.901, 136.019 53.984 C 137.129 52.068, 138.748 48.925, 139.617 47 C 144.149 36.958, 150.624 33, 162.520 33 C 171.201 33, 172.834 34.419, 168.932 38.572 C 167.204 40.412, 166.670 42.031, 166.840 44.916 C 167.059 48.621, 166.780 49.002, 160.459 53.643 L 153.850 58.496 157.127 59.833 C 161.384 61.571, 162.376 62.991, 165.622 72 C 167.108 76.125, 168.649 79.875, 169.046 80.334 C 170.432 81.934, 168.761 84.943, 165.380 86.938 L 161.975 88.948 165.390 95.724 C 167.269 99.451, 170.033 105.650, 171.533 109.500 C 173.033 113.350, 176.044 120.325, 178.224 125 C 180.546 129.977, 182.417 135.696, 182.739 138.799 L 183.290 144.098 187.895 143.799 L 192.500 143.500 192.825 129 C 193.003 121.025, 192.837 88.737, 192.455 57.250 L 191.761 0 127.630 0.001 L 63.500 0.001 63.454 8.751 M 0.459 101 C 0.459 124.925, 0.589 134.713, 0.749 122.750 C 0.908 110.788, 0.908 91.213, 0.749 79.250 C 0.589 67.288, 0.459 77.075, 0.459 101 M 143 89.941 C 143 91.073, 143.450 92, 144 92 C 144.550 92, 145 91.352, 145 90.559 C 145 89.766, 144.550 88.840, 144 88.500 C 143.450 88.160, 143 88.809, 143 89.941" stroke="none" fill="black" fill-rule="evenodd"/>
</svg>