<svg xmlns="http://www.w3.org/2000/svg" width="192" height="144" viewBox="0 0 192 144" version="1.1">
	<path d="M 81 3.257 C 81 5.048, 80.546 8.085, 79.990 10.007 C 79.288 12.438, 79.316 14.315, 80.082 16.179 C 80.934 18.250, 80.823 20.098, 79.592 24.332 C 78.716 27.344, 78 30.751, 78 31.904 C 78 33.057, 77.757 34, 77.460 34 C 75.950 34, 71 29.411, 71 28.012 C 71 25.738, 68.989 24, 66.359 24 C 63.384 24, 62.501 25.644, 64.436 27.579 C 65.296 28.439, 66 30.209, 66 31.512 C 66 32.816, 66.455 34.163, 67.011 34.507 C 68.556 35.461, 67.869 41.251, 65.944 43.500 C 65.003 44.600, 63.554 47.863, 62.726 50.751 C 61.220 55.998, 61.220 56.004, 64.116 60.001 C 66.160 62.823, 67.747 64, 69.506 64 C 72.028 64, 72.979 66.277, 70.975 67.516 C 70.383 67.881, 71.363 69.563, 73.290 71.490 C 75.127 73.327, 77.338 76.632, 78.203 78.834 C 79.698 82.640, 79.671 83.005, 77.662 86.170 C 76.499 88.001, 75.011 90.625, 74.355 92 C 73.379 94.045, 73.148 94.157, 73.081 92.618 C 73.037 91.583, 72.093 89.268, 70.984 87.475 C 69.431 84.961, 69.185 83.644, 69.911 81.733 C 71.429 77.743, 67.678 75.273, 65 78.500 C 64.173 79.496, 61.932 80, 58.328 80 C 49.227 80, 43 84.867, 43 91.980 C 43 96.340, 41.429 97.950, 34.778 100.402 C 24.017 104.371, 18.736 117.421, 24.060 126.893 C 27.508 133.028, 37.071 138.832, 43.934 138.956 C 50.512 139.075, 59.955 131.035, 61.500 123.999 C 62.203 120.800, 64.464 120.842, 65.308 124.069 C 66.023 126.803, 67.808 126.466, 68.184 123.526 C 68.697 119.513, 71.469 122.105, 71.184 126.332 C 71.020 128.769, 71.667 130.639, 73.375 132.669 L 75.798 135.549 73.899 139.453 C 72.855 141.600, 72 143.502, 72 143.679 C 72 143.855, 82.783 144, 95.961 144 L 119.923 144 121.176 139.750 C 121.865 137.412, 122.397 133.025, 122.359 130 C 122.284 124.146, 119.723 118.092, 111.812 105.070 C 109.364 101.041, 108.014 97.684, 108.201 96.091 C 108.478 93.737, 108.854 93.993, 113.246 99.524 C 119.415 107.293, 124.413 116.887, 126.495 124.956 C 128.470 132.609, 130.618 137.078, 132.159 136.743 C 133.375 136.478, 135.235 141.811, 134.398 143.164 C 134.114 143.624, 135.441 144, 137.346 144 C 140.797 144, 140.808 143.986, 140.285 140.085 C 139.810 136.548, 139.988 136.138, 142.130 135.835 C 144.329 135.524, 144.483 135.105, 144.262 130.026 C 144.028 124.633, 142.382 121.294, 134.886 111 C 129.564 103.692, 125.860 97.807, 126.304 97.363 C 126.580 97.087, 127.621 98.243, 128.618 99.931 C 130.222 102.646, 132 103.976, 132 102.460 C 132 101.551, 127.940 93.803, 124.423 88 C 122.590 84.975, 119.081 76.875, 116.626 70 C 114.172 63.125, 111.246 55.185, 110.126 52.355 C 108.119 47.288, 108.118 47.218, 110.044 47.722 C 115.118 49.049, 109.335 31.984, 102.866 26.540 C 100.303 24.384, 99.217 24.097, 95.674 24.637 C 93.378 24.987, 90.938 25.717, 90.250 26.259 C 88.222 27.858, 88.738 17.430, 91.025 10.595 C 92.111 7.347, 93 4.534, 93 4.345 C 93 4.155, 91.650 4, 90 4 C 87.667 4, 87 3.556, 87 2 C 87 0.444, 86.333 0, 84 0 C 81.281 0, 81 0.305, 81 3.257 M 72.517 99.922 C 72.162 101.539, 71.225 103.398, 70.436 104.053 C 68.382 105.758, 68.664 107.679, 71.061 108.306 C 73.322 108.897, 73.557 108.478, 74.419 102.310 C 75.091 97.503, 73.490 95.493, 72.517 99.922 M 73 121.950 C 73 123.023, 73.756 124.324, 74.679 124.840 C 75.768 125.450, 76.429 127.242, 76.560 129.938 C 76.824 135.376, 77.701 136.111, 78.547 131.602 C 79.432 126.884, 78.347 121.347, 76.391 120.597 C 73.788 119.598, 73 119.912, 73 121.950 M 107.200 126.921 C 107.554 133.322, 109.564 134.842, 110.571 129.471 C 111.133 126.480, 110.861 125.420, 109.079 123.657 L 106.900 121.500 107.200 126.921 M 72.695 128.942 C 72.991 130.074, 73.889 131, 74.690 131 C 76.689 131, 75.909 127.606, 73.817 127.203 C 72.579 126.965, 72.294 127.407, 72.695 128.942 M 137 142 C 137 142.550, 137.450 143, 138 143 C 138.550 143, 139 142.550, 139 142 C 139 141.450, 138.550 141, 138 141 C 137.450 141, 137 141.450, 137 142" stroke="none" fill="black" fill-rule="evenodd"/>
</svg>