<svg xmlns="http://www.w3.org/2000/svg" width="192" height="144" viewBox="0 0 192 144" version="1.1">
	<path d="M 0 48.975 L 0 97.950 3.250 97.387 C 8.665 96.448, 13.702 94.219, 19.780 90.070 C 30.203 82.955, 45.971 79.027, 64 79.053 C 73.389 79.067, 91.155 80.425, 96 81.499 C 97.375 81.803, 101.200 82.302, 104.500 82.607 C 110.496 83.161, 110.502 83.159, 112.714 79.650 C 118.024 71.227, 120 64.200, 120 53.735 C 120 45.330, 119.695 43.427, 118 41.273 C 116.900 39.874, 116 37.861, 116 36.798 C 116 35.735, 114.368 33.326, 112.373 31.445 C 109.213 28.465, 108.826 27.603, 109.370 24.762 C 110.132 20.787, 115.128 16, 118.516 16 C 121.463 16, 121.766 14.481, 119.104 13.056 C 118.062 12.498, 116.810 10.344, 116.322 8.271 C 115.497 4.761, 115.162 4.482, 111.468 4.233 C 105.256 3.816, 103 3.083, 103 1.481 C 103 0.192, 96.317 0, 51.500 0 L 0 0 0 48.975 M 161.530 2.750 C 161.153 4.263, 160.189 6.228, 159.388 7.117 C 158.076 8.573, 158.332 8.797, 161.980 9.381 C 166.643 10.126, 170 13.001, 170.001 16.250 C 170.001 17.488, 171.351 21.353, 173.001 24.840 C 176.381 31.985, 176.678 34.588, 174.471 37.738 C 173.630 38.939, 173.175 40.951, 173.461 42.210 C 174.046 44.793, 174.619 48.212, 175.592 54.908 C 176.081 58.276, 177.387 60.833, 180.491 64.500 C 182.819 67.250, 186.338 72.650, 188.312 76.500 L 191.902 83.500 191.951 41.750 L 192 0 177.108 0 L 162.217 0 161.530 2.750 M 132.418 45.750 C 131.875 63.941, 131.638 65.726, 128.753 73.305 C 127.120 77.598, 125.719 82.511, 125.641 84.222 C 125.507 87.190, 125.780 87.420, 131.500 89.154 C 134.800 90.154, 137.802 90.979, 138.170 90.986 C 138.539 90.994, 139.134 87.963, 139.493 84.250 C 139.852 80.537, 141.012 74.024, 142.073 69.776 C 144.345 60.669, 144.581 55, 142.687 55 C 140.710 55, 136.007 49.673, 135.148 46.461 C 134.146 42.716, 132.521 42.293, 132.418 45.750 M 61.777 87.517 C 61.624 87.647, 57.675 87.996, 53 88.292 C 43.545 88.892, 31.824 91.512, 28 93.880 C 26.625 94.731, 23.250 97.422, 20.500 99.859 C 17.750 102.295, 14.038 104.905, 12.250 105.658 C 10.463 106.411, 9 107.449, 9 107.965 C 9 110.322, 13.501 125.130, 18.206 138.250 L 20.268 144 77.134 144 C 130.618 144, 134.001 143.896, 134.021 142.250 C 134.032 141.287, 134.708 134.200, 135.522 126.500 C 136.336 118.800, 137.288 109.719, 137.639 106.321 L 138.276 100.142 134.388 98.442 C 132.250 97.507, 127.800 96.643, 124.500 96.524 C 117.320 96.263, 112.218 95.253, 109.500 93.553 C 106.858 91.902, 99.545 90.322, 88.500 89.017 C 79.914 88.003, 62.361 87.017, 61.777 87.517" stroke="none" fill="black" fill-rule="evenodd"/>
</svg>