<svg xmlns="http://www.w3.org/2000/svg" width="192" height="144" viewBox="0 0 192 144" version="1.1">
	<path d="M 0 9.371 L 0 18.742 4.986 19.404 C 8.691 19.895, 10.581 19.666, 12.345 18.510 C 15.087 16.713, 18 17.440, 18 19.921 C 18 21.385, 18.838 21.567, 23.895 21.201 L 29.789 20.775 31.095 24.387 C 31.814 26.374, 32.689 28, 33.040 28 C 33.392 28, 34.197 29.137, 34.831 30.528 C 35.715 32.468, 35.694 33.529, 34.741 35.091 C 33.650 36.880, 33.863 37.416, 36.500 39.521 C 38.150 40.838, 41.681 43.847, 44.347 46.208 C 53.551 54.358, 52.891 53.263, 51.712 58.415 C 50.192 65.058, 51.840 74.059, 58.593 96 C 62.682 109.287, 64.423 116.684, 64.772 122.250 C 65.182 128.796, 65.016 130, 63.705 130 C 62.852 130, 60.854 131.094, 59.265 132.430 C 56.853 134.460, 55.670 134.765, 52.087 134.285 C 47.070 133.612, 46.038 134.626, 46.015 140.250 L 46 144 59.393 144 C 70.683 144, 72.881 143.752, 73.393 142.418 C 73.727 141.548, 74 136.148, 74 130.418 C 74 124.139, 74.397 120, 75 120 C 75.550 120, 76 119.508, 76 118.908 C 76 118.307, 76.900 116.671, 78 115.273 C 79.100 113.874, 80 111.736, 80 110.520 C 80 109.305, 80.864 107.528, 81.919 106.573 C 83.915 104.767, 83.943 103.644, 82.387 88.250 C 81.875 83.187, 81.748 83, 78.822 83 C 77.078 83, 74.575 81.978, 72.931 80.596 C 71.360 79.273, 69.583 78.028, 68.984 77.828 C 68.385 77.628, 67.506 75.898, 67.031 73.982 C 66.557 72.067, 64.591 66.225, 62.664 61 C 58.317 49.219, 57.541 46.910, 55.572 39.912 C 53.509 32.579, 53.528 23.650, 55.613 20.468 C 56.500 19.114, 57.385 15.417, 57.580 12.253 C 57.775 9.089, 58.194 5.038, 58.512 3.250 L 59.091 0 29.545 0 L 0 0 0 9.371 M 0 81.892 L 0 144 15 144 L 30 144 30 141.582 C 30 140.252, 30.220 138.564, 30.489 137.832 C 31.388 135.388, 29.292 133.665, 25.592 133.804 C 22.797 133.909, 21.649 133.394, 20.388 131.469 C 19.075 129.465, 17.944 129, 14.385 129 C 10.077 129, 10 128.941, 10 125.649 C 10 120.755, 11.638 116.775, 18.274 105.544 C 26.204 92.126, 29.227 86.046, 29.477 83.018 C 29.591 81.633, 30.017 79.468, 30.424 78.206 C 31.267 75.588, 29.107 66, 27.674 66 C 27.117 66, 26.949 68.776, 27.266 72.728 C 27.704 78.180, 27.575 79.139, 26.585 77.785 C 25.487 76.284, 25.185 76.418, 23.601 79.099 C 22.323 81.261, 22.016 83.138, 22.486 85.915 C 23.107 89.594, 23.032 89.729, 20.624 89.268 C 18.501 88.863, 17.883 89.344, 16.609 92.394 C 14.897 96.491, 13.290 97.066, 12.820 93.750 C 12.644 92.513, 11.938 91.444, 11.250 91.375 C 10.563 91.306, 9.585 91.194, 9.078 91.125 C 7.372 90.894, 6.043 84.563, 5.852 75.758 C 5.668 67.270, 5.787 66.770, 9.957 58.584 C 14.566 49.536, 14.573 49.461, 12.398 34.257 C 11.845 30.390, 11.580 30.067, 9.405 30.613 C 6.465 31.351, 5.246 28.951, 6.813 25.512 C 8.059 22.777, 7.076 21.559, 2.744 20.472 L 0 19.783 0 81.892 M 35.750 65.571 C 35.337 65.990, 35 67.923, 35 69.867 C 35 72.382, 35.309 73.091, 36.073 72.327 C 36.663 71.737, 37 69.804, 36.823 68.032 C 36.645 66.259, 36.163 65.152, 35.750 65.571 M 37.512 136.980 C 37.144 137.577, 36.459 139.400, 35.991 141.033 C 35.182 143.851, 35.290 144, 38.130 144 C 40.964 144, 41.105 143.808, 40.810 140.327 C 40.501 136.664, 38.784 134.922, 37.512 136.980" stroke="none" fill="black" fill-rule="evenodd"/>
</svg>