<svg xmlns="http://www.w3.org/2000/svg" width="192" height="144" viewBox="0 0 192 144" version="1.1">
	<path d="M 29 0.768 C 29 1.190, 30.046 3.103, 31.324 5.018 C 32.602 6.933, 36.947 14.800, 40.978 22.500 C 45.010 30.200, 50.564 40.550, 53.321 45.500 C 58.271 54.387, 64 62.134, 64 59.940 C 64 59.319, 65.575 60.696, 67.500 63 C 70.288 66.336, 71 66.779, 71 65.176 C 71 64.068, 70.376 61.888, 69.614 60.331 C 63.092 47.013, 58.986 39.733, 47.598 21.298 C 35.750 2.119, 34.238 0.091, 31.750 0.048 C 30.238 0.022, 29 0.346, 29 0.768" stroke="none" fill="black" fill-rule="evenodd"/>
</svg>