<svg xmlns="http://www.w3.org/2000/svg" width="192" height="144" viewBox="0 0 192 144" version="1.1">
	<path d="M 0 72 L 0 144 30.500 144 L 61 144 61 72 L 61 0 30.500 0 L 0 0 0 72 M 86 2.892 C 86 5.103, 85.440 5.924, 83.619 6.381 C 81.318 6.958, 80.042 9.433, 80.014 13.378 C 80.006 14.411, 81.458 17.786, 83.240 20.878 C 89.106 31.055, 91.857 39.087, 91.268 44.314 C 90.673 49.596, 91.026 49.476, 77.332 49.028 C 70.627 48.809, 69.971 49.296, 68.626 55.500 L 67.976 58.500 70.377 55.622 L 72.778 52.745 81.639 53.514 C 90.086 54.247, 90.357 54.343, 87.432 55.570 C 80.468 58.492, 80.545 62.607, 87.601 64.586 C 90.859 65.501, 91.649 66.260, 92.501 69.297 C 94.492 76.393, 97.276 76.554, 99.578 69.706 C 100.461 67.078, 101.531 66.218, 105.515 64.938 C 108.188 64.079, 110.564 62.809, 110.795 62.116 C 111.301 60.598, 107.189 56, 105.326 56 C 103.152 56, 103.823 54.281, 106.250 53.630 C 107.487 53.299, 111.077 53.021, 114.227 53.014 C 119.240 53.002, 120.158 53.312, 121.592 55.500 C 122.493 56.875, 123.683 58, 124.237 58 C 124.842 58, 124.782 57.443, 124.087 56.605 C 123.451 55.838, 123.035 54.826, 123.163 54.355 C 123.291 53.885, 123.052 52.487, 122.631 51.250 C 121.913 49.142, 121.303 49, 112.933 49 C 104.071 49, 104 48.980, 104 46.500 C 104 45.125, 103.108 43.108, 102.017 42.017 C 100.040 40.040, 100.044 40.013, 103.359 32.740 C 105.187 28.728, 108.329 23.154, 110.342 20.353 C 113.840 15.484, 114.968 10.860, 113.235 8.500 C 112.831 7.950, 111.150 6.798, 109.500 5.940 C 107.493 4.896, 106.526 3.655, 106.579 2.190 C 106.633 0.706, 106.069 -0, 104.829 -0 C 103.823 -0, 103 0.648, 103 1.441 C 103 3.571, 101.312 4.237, 99.021 3.011 C 97.570 2.235, 96.425 2.237, 94.962 3.020 C 92.496 4.340, 89 3.409, 89 1.433 C 89 0.645, 88.325 0, 87.500 0 C 86.512 0, 86 0.988, 86 2.892 M 131 72 L 131 144 161.500 144 L 192 144 192 72 L 192 0 161.500 0 L 131 0 131 72" stroke="none" fill="black" fill-rule="evenodd"/>
</svg>