<svg xmlns="http://www.w3.org/2000/svg" width="192" height="144" viewBox="0 0 192 144" version="1.1">
	<path d="M 74.645 7.155 C 72.710 10.130, 71.549 18.783, 72.445 23.557 C 73.091 27.002, 73.314 27.187, 76.143 26.621 L 79.153 26.019 75.977 30.029 C 72.603 34.290, 72.599 37, 75.969 37 C 77.845 37, 78.001 37.629, 78.015 45.250 C 78.026 50.946, 78.331 53.036, 79 52 C 79.754 50.833, 79.973 51.118, 79.985 53.281 C 79.995 55.218, 78.938 56.993, 76.500 59.134 C 74.549 60.847, 72.998 63.157, 72.994 64.354 C 72.991 65.534, 72.514 68.211, 71.933 70.302 C 71.153 73.111, 70.410 74.026, 69.092 73.802 C 67.171 73.477, 66.708 74.503, 67.561 77.191 C 68.098 78.884, 60.487 98.725, 57.031 104.641 C 55.372 107.481, 55.283 108.965, 56.103 120.141 C 57.261 135.916, 57.714 138.518, 59.572 140.060 C 60.407 140.753, 60.860 141.923, 60.577 142.660 C 60.154 143.761, 65.316 144, 89.541 144 L 119.020 144 114.457 134.914 C 111.947 129.917, 109.071 122.535, 108.065 118.510 C 107.059 114.484, 105.904 110.654, 105.498 109.997 C 105.092 109.340, 104.550 104.215, 104.293 98.608 C 103.940 90.900, 104.193 87.570, 105.331 84.957 C 106.807 81.569, 106.839 81.699, 106.922 91.500 C 107.016 102.533, 108.964 116.087, 111.441 122.940 C 114.579 131.625, 121.979 144, 124.033 144 C 126.531 144, 127.428 140.433, 126.701 133.390 C 126.317 129.675, 126.590 127.096, 127.564 125.229 C 129.418 121.675, 129.373 118.977, 127.413 116.180 C 126.346 114.656, 126.145 113.519, 126.800 112.707 C 128.077 111.125, 126.464 91.669, 124.338 83 C 122.648 76.113, 120.785 71.905, 115.480 63 C 112.729 58.382, 112.114 56.192, 111.640 49.341 C 111.195 42.892, 111.383 40.927, 112.538 39.968 C 113.342 39.301, 114 37.602, 114 36.192 C 114 34.782, 114.868 32.700, 115.929 31.564 C 116.990 30.429, 119.236 26.875, 120.919 23.667 C 123.228 19.269, 123.742 17.387, 123.011 16.021 C 121.713 13.596, 112.977 11.567, 107.665 12.457 C 102.921 13.252, 102.107 13.248, 96.250 12.403 C 93.912 12.066, 92 11.467, 92 11.072 C 92 9.949, 83.895 6.223, 79.835 5.480 C 76.693 4.905, 75.953 5.144, 74.645 7.155" stroke="none" fill="black" fill-rule="evenodd"/>
</svg>