<svg xmlns="http://www.w3.org/2000/svg" width="192" height="144" viewBox="0 0 192 144" version="1.1">
	<path d="M 165.250 6.360 C 164.012 6.973, 163 7.797, 163 8.192 C 163 8.586, 161.425 9.205, 159.500 9.566 C 155.336 10.347, 155.109 11.185, 158.564 13.034 C 160.269 13.947, 160.970 15.008, 160.657 16.203 C 160.369 17.303, 160.733 18, 161.594 18 C 163.597 18, 163.293 21.068, 161 24 C 159.924 25.375, 159.034 27.063, 159.022 27.750 C 159.010 28.438, 158.640 29, 158.201 29 C 157.762 29, 156.299 30.765, 154.951 32.923 C 153.188 35.744, 151.600 37.018, 149.295 37.459 C 147.023 37.895, 146.255 38.500, 146.654 39.540 C 147.019 40.493, 146.216 41.446, 144.358 42.265 C 142.786 42.957, 141.407 44.022, 141.294 44.630 C 141.181 45.238, 142.981 47.246, 145.294 49.091 C 147.607 50.936, 149.963 52.865, 150.529 53.378 C 151.153 53.944, 151.405 58.115, 151.170 63.981 C 150.687 75.994, 152.356 79.939, 160.533 86.112 C 163.569 88.405, 165.929 90.395, 165.777 90.536 C 165.624 90.676, 163.925 91.051, 162 91.368 C 152.886 92.872, 147.246 94.200, 144.500 95.488 C 142.850 96.263, 140.292 97.146, 138.817 97.450 C 137.341 97.755, 135.869 98.837, 135.546 99.855 C 135.223 100.872, 132.648 102.962, 129.824 104.499 C 125.149 107.044, 124.581 107.147, 123.486 105.650 C 122.825 104.746, 121.694 100.517, 120.973 96.253 C 120.168 91.494, 118.993 87.908, 117.929 86.968 C 116.976 86.125, 116.040 84.325, 115.848 82.968 C 115.538 80.771, 114.896 80.437, 110 79.926 C 106.872 79.599, 101.697 77.983, 98 76.177 C 91.411 72.958, 87.600 72.220, 86.527 73.956 C 86.202 74.482, 87.076 75.659, 88.468 76.571 C 91.281 78.414, 91.758 80.495, 89.562 81.338 C 88.771 81.641, 83.934 82.195, 78.812 82.568 C 73.690 82.942, 69.171 83.754, 68.769 84.374 C 67.885 85.735, 70.570 87.900, 74 88.590 C 75.375 88.867, 80.550 90.241, 85.500 91.643 C 90.450 93.045, 95.175 94.370, 96 94.587 C 97.571 95, 103.961 107.629, 106.076 114.500 C 109.296 124.958, 111.843 127.200, 120.509 127.200 C 123.717 127.200, 133.370 124.521, 135.500 123.040 C 138.145 121.201, 145.968 119.078, 150 119.107 C 156.418 119.152, 158 119.803, 158 122.401 C 158 123.647, 158.297 124.964, 158.661 125.328 C 159.025 125.691, 159.410 127.229, 159.518 128.744 C 159.769 132.258, 161.799 141.867, 162.548 143.077 C 162.861 143.585, 169.616 144, 177.559 144 L 192 144 192 84 L 192 24 189.612 24 C 187.267 24, 174 18.304, 174 17.297 C 174 16.404, 179.396 18.068, 182 19.765 C 183.375 20.661, 185.175 21.469, 186 21.560 C 186.825 21.651, 188.137 21.900, 188.916 22.113 C 189.840 22.366, 190.580 21.360, 191.047 19.214 C 192.106 14.348, 189.808 12.113, 182.498 10.899 C 179.199 10.351, 175.053 9.652, 173.284 9.346 C 171.330 9.008, 169.832 8.046, 169.467 6.895 C 168.800 4.794, 168.491 4.755, 165.250 6.360 M 35.956 134.484 C 10.106 138.384, 10 138.413, 10 141.567 L 10 144 51.250 143.910 C 80.022 143.847, 91.441 143.523, 89 142.841 C 75.478 139.058, 75.127 138.906, 74.813 136.697 C 74.370 133.585, 68.616 130.978, 62.500 131.118 C 59.750 131.181, 47.805 132.695, 35.956 134.484" stroke="none" fill="black" fill-rule="evenodd"/>
</svg>