<svg xmlns="http://www.w3.org/2000/svg" width="192" height="144" viewBox="0 0 192 144" version="1.1">
	<path d="M 77.642 3.750 C 77.301 5.813, 76.987 12.900, 76.943 19.500 C 76.882 28.885, 76.628 31.010, 75.780 29.250 C 73.967 25.492, 73.001 26.702, 72.985 32.750 C 72.975 36.416, 72.653 38.001, 72.096 37.122 C 71.616 36.364, 70.766 36.027, 70.207 36.372 C 69.648 36.718, 68.004 34.975, 66.553 32.500 C 65.102 30.025, 63.485 28, 62.958 28 C 61.688 28, 61.748 33.552, 63.069 38.310 C 63.651 40.405, 63.933 42.655, 63.697 43.310 C 63.460 43.964, 62.482 41.800, 61.523 38.500 C 59.230 30.612, 57.823 29.210, 58.553 35.540 C 58.867 38.268, 59.279 41.288, 59.468 42.250 C 59.658 43.212, 59.482 44, 59.077 44 C 58.430 44, 56.697 40.478, 53.174 32 C 52.146 29.525, 52.135 29.532, 52.068 32.685 C 52.030 34.437, 52.439 37.024, 52.975 38.435 C 54.054 41.271, 52.949 41.848, 50.980 39.476 C 48.985 37.072, 48.875 38.278, 50.624 43.409 C 51.539 46.096, 51.864 48.527, 51.371 49.009 C 50.669 49.694, 43.492 51.393, 32.787 53.408 C 32.079 53.542, 28.415 54.629, 24.645 55.825 C 19.739 57.381, 15.259 58, 8.895 58 L 0 58 0 101 L 0 144 37.933 144 L 75.865 144 76.551 141.750 C 77.668 138.085, 80.112 135.901, 82.315 136.600 C 84.131 137.176, 84.247 136.876, 83.719 132.944 C 83.403 130.584, 82.439 128.265, 81.572 127.781 C 79.293 126.505, 79.657 124.107, 82.917 118.917 C 85.330 115.076, 86.299 114.333, 88.898 114.333 C 92.458 114.333, 92.950 116.261, 90.567 120.871 C 89.362 123.201, 89.329 124.906, 90.358 131.562 C 91.515 139.049, 91.743 139.529, 94.541 140.374 C 96.168 140.865, 98.580 141.770, 99.900 142.384 C 101.555 143.153, 116.298 143.500, 147.400 143.500 L 192.500 143.500 192.762 100.500 L 193.023 57.500 174.131 57.791 C 155.729 58.074, 155.095 58.016, 149.696 55.547 C 146.648 54.153, 141.757 52.537, 138.827 51.956 C 132.874 50.775, 125 47.350, 125 45.940 C 125 45.435, 126.181 42.072, 127.624 38.467 C 129.067 34.863, 130.051 31.718, 129.812 31.479 C 129.573 31.239, 127.830 33.396, 125.938 36.272 C 122.258 41.868, 120.821 42.480, 119.957 38.819 C 119.513 36.938, 119.244 36.791, 118.478 38.010 C 117.746 39.176, 117.424 38.848, 116.996 36.500 L 116.449 33.500 114.040 37.750 C 111.065 43, 109.934 43.191, 111.081 38.250 C 112.315 32.938, 112.251 21.063, 111 23 C 110.467 23.825, 110.024 25.461, 110.015 26.635 C 109.999 28.893, 106.187 32, 103.434 32 C 102.007 32, 101.887 31.102, 102.500 25 C 103.240 17.630, 102.360 16.090, 99.965 20.565 C 98.743 22.849, 98.520 22.932, 97.928 21.315 C 97.562 20.317, 96.937 15.113, 96.538 9.750 L 95.813 -0 87.038 -0 L 78.262 0 77.642 3.750 M 0.459 101 C 0.459 124.925, 0.589 134.713, 0.749 122.750 C 0.908 110.788, 0.908 91.213, 0.749 79.250 C 0.589 67.288, 0.459 77.075, 0.459 101 M 91.667 83.667 C 91.300 84.033, 91 84.798, 91 85.367 C 91 85.993, 91.466 85.934, 92.183 85.217 C 92.834 84.566, 93.134 83.801, 92.850 83.517 C 92.566 83.233, 92.033 83.300, 91.667 83.667 M 96 89.059 C 96 89.641, 96.450 89.840, 97 89.500 C 97.550 89.160, 98 88.684, 98 88.441 C 98 88.198, 97.550 88, 97 88 C 96.450 88, 96 88.477, 96 89.059 M 90.500 91 C 90.160 91.550, 90.359 92, 90.941 92 C 91.523 92, 92 91.550, 92 91 C 92 90.450, 91.802 90, 91.559 90 C 91.316 90, 90.840 90.450, 90.500 91 M 84.500 98 C 84.840 98.550, 85.316 99, 85.559 99 C 85.802 99, 86 98.550, 86 98 C 86 97.450, 85.523 97, 84.941 97 C 84.359 97, 84.160 97.450, 84.500 98 M 91.500 103 C 91.160 103.550, 91.359 104, 91.941 104 C 92.523 104, 93 103.550, 93 103 C 93 102.450, 92.802 102, 92.559 102 C 92.316 102, 91.840 102.450, 91.500 103" stroke="none" fill="black" fill-rule="evenodd"/>
</svg>