<svg xmlns="http://www.w3.org/2000/svg" width="192" height="144" viewBox="0 0 192 144" version="1.1">
	<path d="M 41 72 L 41 144 116.500 144 L 192 144 192 72 L 192 0 116.500 0 L 41 0 41 72 M 114 56.393 C 114 57.277, 113.550 58, 113 58 C 111.185 58, 111.953 60.058, 115.500 64.704 C 117.425 67.225, 119 69.898, 119 70.644 C 119 71.390, 119.407 72, 119.904 72 C 120.402 72, 120.789 75.125, 120.765 78.944 C 120.723 85.799, 120.671 85.930, 116.809 89.033 L 112.896 92.178 100.698 89.536 C 81.517 85.381, 77.926 84.741, 77.300 85.367 C 76.337 86.329, 79.105 89, 81.066 89 C 82.067 89, 83.547 89.943, 84.354 91.096 C 85.350 92.517, 86.447 92.993, 87.766 92.574 C 88.900 92.214, 91.956 93.003, 95.105 94.469 C 98.072 95.850, 101.400 96.948, 102.500 96.909 C 103.903 96.859, 103.382 96.316, 100.752 95.088 C 94.854 92.333, 95.348 92.143, 104.207 93.760 C 114.957 95.721, 117 96.536, 117 98.862 C 117 100.381, 117.974 100.910, 121.750 101.443 C 129.408 102.524, 130 102.856, 130 106.067 C 130 107.680, 130.450 109, 131 109 C 131.550 109, 132 108.480, 132 107.845 C 132 107.154, 132.735 107.355, 133.829 108.345 C 136.469 110.735, 137 110.426, 137 106.500 C 137 103.441, 137.313 103, 139.479 103 C 142.151 103, 154.551 106.930, 162.243 110.215 C 166.565 112.060, 167.191 112.105, 169.316 110.713 C 170.598 109.873, 172.739 109.031, 174.073 108.843 C 175.949 108.578, 176.567 107.812, 176.797 105.467 C 177.031 103.083, 176.221 101.489, 173.011 98.012 L 168.928 93.589 159.441 93.174 C 151.277 92.817, 150.123 92.557, 151.163 91.304 C 152.608 89.562, 150.826 88.040, 147.315 88.015 C 142.742 87.983, 140.241 86.308, 140.551 83.486 C 140.712 82.021, 141.088 80.579, 141.387 80.280 C 141.686 79.981, 140.371 77.915, 138.465 75.688 C 136.559 73.462, 135 71.301, 135 70.887 C 135 70.473, 134.100 69.849, 133 69.500 C 130.563 68.726, 130.290 65, 132.671 65 C 133.590 65, 135.168 65.747, 136.177 66.661 C 137.187 67.574, 138.344 67.989, 138.750 67.583 C 139.156 67.177, 137.534 65.023, 135.146 62.795 L 130.803 58.744 124.323 59.408 C 118.121 60.043, 117.870 59.984, 118.489 58.036 C 118.844 56.916, 118.691 56, 118.149 56 C 117.607 56, 116.452 55.727, 115.582 55.393 C 114.544 54.995, 114 55.338, 114 56.393 M 121.222 88.569 C 119.419 90.456, 118.294 91.998, 118.722 91.996 C 120.569 91.987, 126 87.897, 126 86.515 C 126 84.266, 124.867 84.753, 121.222 88.569 M 139 89.879 C 139 90.731, 142.149 92.203, 146.750 93.500 C 151.084 94.722, 148.954 92.172, 144.322 90.594 C 138.845 88.728, 139 88.749, 139 89.879" stroke="none" fill="black" fill-rule="evenodd"/>
</svg>