<svg xmlns="http://www.w3.org/2000/svg" width="192" height="144" viewBox="0 0 192 144" version="1.1">
	<path d="M 68 0.927 C 68 1.438, 69.186 2.788, 70.635 3.927 C 72.923 5.727, 73.016 6, 71.345 6 C 69.685 6, 64.536 4.775, 56.326 2.428 C 54.617 1.939, 53.828 2.431, 52.642 4.725 C 51.618 6.706, 49.865 8.023, 47.185 8.826 C 42.411 10.257, 40.145 12.545, 41.832 14.232 C 42.696 15.096, 43.849 14.966, 46.490 13.706 C 49.867 12.096, 50 12.105, 50 13.957 C 50 16.578, 48.259 17.454, 46.269 15.836 C 44.821 14.659, 44.723 14.738, 45.445 16.500 C 45.895 17.600, 47.125 21.605, 48.178 25.400 C 49.669 30.776, 49.860 32.962, 49.046 35.299 C 47.692 39.181, 47.728 40, 49.250 40 C 50.699 40, 50.410 56.326, 48.911 59.152 C 48.429 60.060, 48.063 64.657, 48.098 69.368 C 48.132 74.078, 47.800 78.509, 47.360 79.216 C 46.580 80.466, 45.710 103.476, 46.007 115 C 46.043 116.375, 45.914 123.463, 45.721 130.750 C 45.474 140.085, 45.702 144, 46.492 144 C 47.109 144, 48.140 142.763, 48.784 141.250 L 49.954 138.500 49.616 141.250 C 49.132 145.181, 51.595 144.760, 52.536 140.750 C 53.343 137.317, 54.149 117.287, 54.055 103 C 54.025 98.325, 54.498 91.700, 55.108 88.279 C 55.783 84.485, 55.875 80.973, 55.343 79.279 C 54.293 75.937, 54.754 70, 56.063 70 C 56.579 70, 57 70.595, 57 71.322 C 57 73.763, 65.402 84.721, 77.805 98.457 L 90.111 112.085 88.044 115.429 C 86.907 117.268, 85.195 118.993, 84.239 119.262 C 82.705 119.694, 79.289 125.505, 76.164 133 C 75.591 134.375, 73.944 137.412, 72.504 139.750 L 69.887 144 107.364 144 L 144.841 144 145.555 140.750 C 146.442 136.705, 151.139 127, 152.208 127 C 152.644 127, 153 128.070, 153 129.378 C 153 132.813, 155.600 134.731, 158.122 133.156 C 159.200 132.483, 160.482 132.180, 160.972 132.482 C 161.461 132.785, 162.144 132.575, 162.490 132.016 C 162.835 131.457, 163.834 131, 164.709 131 C 166.830 131, 176.610 126.175, 178.080 124.403 C 178.721 123.631, 179.693 123, 180.240 123 C 180.788 123, 182.870 121.658, 184.868 120.017 C 192.517 113.735, 192 114.968, 192 103.020 L 192 92.041 187.891 89.945 C 185.632 88.792, 181.794 87.716, 179.363 87.553 C 174.609 87.235, 169.863 84.178, 172.212 82.947 C 172.921 82.576, 177.662 81.480, 182.750 80.512 L 192 78.752 192 70.247 L 192 61.742 185 62.431 C 178.023 63.119, 178 63.113, 178 60.632 C 178 58.163, 175.713 55, 173.929 55 C 173.418 55, 173 55.623, 173 56.383 C 173 57.959, 170 58.966, 165.250 58.986 C 163.463 58.994, 162 59.450, 162 60 C 162 62.116, 159.496 60.814, 154.523 56.110 C 151.680 53.421, 147.553 50.302, 145.353 49.180 C 140.847 46.881, 126 43.767, 126 45.120 C 126 45.604, 124.875 46, 123.500 46 C 122.125 46, 121 46.544, 121 47.208 C 121 47.872, 119.483 50.010, 117.629 51.958 C 113.895 55.881, 111.834 62.384, 114.670 61.296 C 116.697 60.518, 116.035 62.945, 113.842 64.328 C 112.777 65, 111.287 64.791, 108.998 63.649 C 104.680 61.495, 104.330 61.548, 103.597 64.471 C 103.255 65.830, 102.082 67.421, 100.988 68.006 C 99.895 68.592, 99 69.969, 99 71.067 C 99 72.164, 98.213 73.339, 97.250 73.676 C 94.948 74.484, 92.050 78.072, 92.022 80.151 C 92.010 81.059, 93.106 84.190, 94.459 87.109 C 95.811 90.027, 96.739 92.594, 96.520 92.813 C 96.302 93.031, 94.660 91.475, 92.871 89.355 C 91.082 87.235, 85.429 81.424, 80.309 76.441 C 71.531 67.900, 71 67.147, 71 63.257 C 71 60.987, 70.376 56.064, 69.612 52.315 C 66.835 38.673, 66.781 38, 68.455 38 C 69.305 38, 70 37.550, 70 37 C 70 36.450, 69.633 36, 69.185 36 C 68.416 36, 64.583 28.895, 65.207 28.626 C 65.368 28.557, 66.506 27.938, 67.736 27.250 C 70.811 25.532, 70.794 25.521, 71.959 29.846 C 73.773 36.583, 78.338 41.680, 85.759 45.254 C 90.224 47.404, 92.625 49.175, 92.871 50.500 C 93.733 55.153, 95.043 57.357, 96.237 56.163 C 96.877 55.523, 98.210 55, 99.200 55 C 100.396 55, 101.005 54.245, 101.014 52.750 C 101.040 48.450, 102.206 46.157, 104.945 45.023 C 110.019 42.921, 115.968 35.795, 117.558 29.914 C 119.380 23.180, 118.680 18.463, 114.998 12.658 C 111.991 7.917, 111.938 5.053, 114.796 1.750 C 116.232 0.090, 115.070 0, 92.155 0 C 77.979 0, 68 0.383, 68 0.927 M 51 63 C 51 64.100, 50.920 65.338, 50.821 65.750 C 50.723 66.162, 51.398 66.645, 52.321 66.823 C 53.599 67.069, 54 66.412, 54 64.073 C 54 62.008, 53.508 61, 52.500 61 C 51.667 61, 51 61.889, 51 63 M 51.195 74.500 C 51.215 76.150, 51.439 76.704, 51.693 75.731 C 51.947 74.758, 51.930 73.408, 51.656 72.731 C 51.382 72.054, 51.175 72.850, 51.195 74.500 M 49 85 C 49 87.333, 49.444 88, 51 88 C 52.556 88, 53 87.333, 53 85 C 53 82.667, 52.556 82, 51 82 C 49.444 82, 49 82.667, 49 85 M 50.232 96 C 50.232 97.925, 50.438 98.713, 50.689 97.750 C 50.941 96.787, 50.941 95.213, 50.689 94.250 C 50.438 93.287, 50.232 94.075, 50.232 96 M 48.384 105.442 C 47.503 107.737, 48.394 110.500, 50.014 110.500 C 50.960 110.500, 51.614 109.318, 51.813 107.250 C 52.049 104.811, 51.729 104, 50.532 104 C 49.655 104, 48.688 104.649, 48.384 105.442 M 49 119.059 C 49 120.741, 49.390 121.877, 49.866 121.583 C 50.671 121.085, 50.232 116, 49.383 116 C 49.173 116, 49 117.377, 49 119.059 M 48 130.406 C 48 133.320, 48.289 133.737, 50 133.290 C 51.417 132.919, 52 131.926, 52 129.883 C 52 127.667, 51.538 127, 50 127 C 48.391 127, 48 127.667, 48 130.406" stroke="none" fill="black" fill-rule="evenodd"/>
</svg>