<svg xmlns="http://www.w3.org/2000/svg" width="192" height="144" viewBox="0 0 192 144" version="1.1">
	<path d="M 0 71.986 L 0 144 41.893 144 C 76.036 144, 83.881 143.751, 84.301 142.657 C 84.585 141.918, 85.133 138.781, 85.520 135.686 C 86.182 130.384, 86.083 129.995, 83.803 128.956 C 81.639 127.970, 80.949 128.287, 77.299 131.936 C 74.722 134.513, 72.651 135.803, 71.685 135.433 C 68.802 134.326, 68.886 131.703, 71.962 126.754 C 75.568 120.954, 75.558 121.059, 72.952 116.643 L 70.904 113.172 72.952 109.351 C 74.078 107.249, 75 105.119, 75 104.618 C 75 103.826, 69.470 96.528, 66.521 93.427 C 65.959 92.837, 63.700 90.168, 61.500 87.495 C 59.300 84.822, 56.179 81.100, 54.564 79.224 C 52.287 76.578, 51.858 75.441, 52.649 74.156 C 53.634 72.559, 60.821 69.664, 66.672 68.509 C 71.412 67.573, 82.918 67.841, 88.599 69.021 C 91.554 69.634, 94.369 69.890, 94.855 69.589 C 95.729 69.049, 94.927 63.114, 93.529 59.777 C 93.132 58.830, 91.329 57.777, 89.524 57.438 C 87.386 57.037, 85.857 55.981, 85.142 54.411 C 84.537 53.085, 83.557 52, 82.962 52 C 82.368 52, 82.172 51.530, 82.527 50.956 C 82.882 50.382, 82.630 49.259, 81.968 48.462 C 81.306 47.664, 81.005 46.090, 81.299 44.964 C 81.733 43.305, 81.471 43.033, 79.917 43.526 C 77.480 44.300, 77.504 43.325, 80.026 39.190 C 82.043 35.881, 87.136 33, 90.968 33 C 92.600 33, 92.994 32.361, 92.968 29.750 C 92.951 27.962, 92.283 25.636, 91.484 24.581 C 90.123 22.782, 89.915 22.767, 88.187 24.331 C 87.173 25.249, 85.156 26, 83.706 26 C 80.397 26, 74.678 21.087, 72.943 16.755 C 72.226 14.965, 70.349 12.375, 68.772 11 C 67.195 9.625, 65.293 6.700, 64.546 4.500 L 63.187 0.500 31.593 0.236 L 0 -0.028 0 71.986 M 68 1 C 68 1.550, 68.423 2, 68.941 2 C 69.459 2, 70.160 1.550, 70.500 1 C 70.840 0.450, 70.416 0, 69.559 0 C 68.702 0, 68 0.450, 68 1 M 189.674 2.750 C 190.621 4.263, 191.531 5.688, 191.697 5.917 C 191.864 6.146, 192 4.908, 192 3.167 C 192 0.655, 191.582 0, 189.977 0 C 188.020 0, 188.010 0.089, 189.674 2.750 M 72.184 7.053 C 72.757 8.771, 76.819 11.636, 79.992 12.562 C 82.078 13.170, 82.291 13.056, 81.299 11.860 C 79.432 9.611, 71.673 5.518, 72.184 7.053 M 74.893 16.791 C 78.434 23.731, 83.215 25.713, 87.837 22.158 L 90.174 20.360 87.474 17.151 C 85.359 14.638, 84.478 14.188, 83.408 15.076 C 82.086 16.173, 80.769 15.930, 74.657 13.460 C 72.934 12.763, 72.950 12.982, 74.893 16.791 M 190.011 31.950 C 188.739 37.941, 189.063 41, 190.969 41 C 191.585 41, 192 37.985, 192 33.500 C 192 29.375, 191.836 26, 191.637 26 C 191.437 26, 190.705 28.678, 190.011 31.950 M 87.603 35.477 C 85.460 36.240, 82.985 37.625, 82.103 38.553 C 81.221 39.481, 80.952 40.073, 81.505 39.870 C 88 37.478, 92 35.571, 92 34.864 C 92 33.828, 92.375 33.776, 87.603 35.477 M 88.250 38.645 C 85.042 39.988, 83.822 42.021, 86.250 41.978 C 87.770 41.951, 92.665 38.308, 91.985 37.711 C 91.718 37.476, 90.037 37.897, 88.250 38.645 M 135.628 59.750 C 136.865 68.996, 137.137 69.245, 145.008 68.313 L 150.078 67.712 147.789 65.265 C 145.390 62.701, 136.632 56, 135.679 56 C 135.375 56, 135.352 57.688, 135.628 59.750 M 137.572 73.250 C 137.817 75.037, 138.670 84.375, 139.467 94 C 140.449 105.850, 141.945 115.859, 144.103 125 C 145.856 132.425, 147.501 139.738, 147.759 141.250 L 148.227 144 170.113 144 L 192 144 192 124.261 C 192 107.745, 191.714 103.828, 190.250 100.275 C 188.368 95.709, 188.616 95.811, 171.165 92.447 C 166.479 91.543, 159.702 84.639, 157.475 78.500 C 154.574 70.503, 153.831 70, 144.908 70 L 137.126 70 137.572 73.250 M 158 76.040 C 158 76.612, 158.896 78.836, 159.991 80.982 C 162.407 85.717, 167.469 89.757, 172.084 90.630 L 175.500 91.277 172.860 88.389 C 171.408 86.800, 169.307 83.676, 168.190 81.447 C 166.277 77.626, 162.718 75, 159.453 75 C 158.654 75, 158 75.468, 158 76.040 M 171.862 81.674 C 174.372 86.196, 184 93.714, 184 91.153 C 184 90.009, 176 82.606, 173.069 81.037 C 171.067 79.965, 170.948 80.028, 171.862 81.674" stroke="none" fill="black" fill-rule="evenodd"/>
</svg>