<svg xmlns="http://www.w3.org/2000/svg" width="192" height="144" viewBox="0 0 192 144" version="1.1">
	<path d="M -0 1.786 C -0 5.277, 23.125 8.560, 56.589 9.819 C 66.538 10.194, 75.964 10.275, 77.535 10 L 80.391 9.499 77.446 8.063 L 74.500 6.627 80 5.754 C 83.025 5.274, 87.062 4.644, 88.971 4.354 C 91.626 3.951, 92.072 3.620, 90.871 2.948 C 87.573 1.102, 66.248 0.002, 33.750 0.001 C 2.017 0, -0 0.107, -0 1.786 M 75.329 80.585 C 74.635 82.394, 77.271 86.526, 81.903 90.887 C 83.881 92.750, 87.896 96.575, 90.825 99.387 L 96.150 104.500 91.825 105.237 C 83.803 106.603, 82.160 107.751, 81.450 112.488 C 81.076 114.976, 81.267 117.630, 81.904 118.820 C 82.507 119.947, 83.015 122.361, 83.033 124.184 C 83.092 129.999, 89.235 135.366, 94.202 133.942 C 96.682 133.231, 97.797 133.506, 100.366 135.466 C 102.091 136.781, 105.639 138.774, 108.251 139.893 C 110.863 141.013, 113 142.395, 113 142.964 C 113 143.625, 117.703 144, 126 144 C 133.150 144, 139 143.746, 139 143.434 C 139 141.454, 131.264 126.723, 127.326 121.204 C 122.255 114.098, 122.011 112.750, 124.133 103.606 C 125.208 98.972, 125.142 98.614, 122.884 96.878 C 119.233 94.070, 117.216 94.548, 115.513 98.622 C 114.681 100.614, 114 103.089, 114 104.122 C 114 105.155, 113.508 106, 112.907 106 C 111.453 106, 95.224 93.735, 86.727 86.215 C 79.523 79.840, 76.238 78.217, 75.329 80.585 M 190.035 90.934 C 188.603 93.611, 188.817 99.904, 190.464 103.500 C 191.757 106.325, 191.842 105.989, 191.919 97.750 C 191.963 92.938, 191.791 89, 191.535 89 C 191.280 89, 190.605 89.870, 190.035 90.934" stroke="none" fill="black" fill-rule="evenodd"/>
</svg>