<svg xmlns="http://www.w3.org/2000/svg" width="192" height="144" viewBox="0 0 192 144" version="1.1">
	<path d="M 60.250 3.439 C 56.282 7.312, 56.176 8.240, 59.750 7.822 C 62.432 7.508, 62.491 7.611, 62.156 11.990 C 61.819 16.373, 61.858 16.439, 63.745 14.731 C 65.615 13.038, 65.715 13.104, 66.820 16.741 C 68.198 21.276, 73.994 28.503, 73.998 25.691 C 73.999 24.696, 74.450 24.160, 75 24.500 C 75.550 24.840, 76 26, 76 27.078 C 76 28.669, 76.470 28.920, 78.500 28.411 C 80.791 27.836, 81.003 28.064, 81.032 31.142 C 81.060 34.148, 81.203 34.317, 82.392 32.750 C 83.837 30.846, 86 30.397, 86 32 C 86 32.550, 85.550 33, 85 33 C 84.450 33, 84 34.301, 84 35.892 C 84 38.154, 83.447 38.922, 81.459 39.421 C 75.616 40.888, 67.776 44.318, 65.077 46.589 L 62.185 49.022 59.145 44.082 L 56.105 39.141 43.240 39.713 C 27.938 40.394, 25.175 39.690, 11 31.501 C 5.775 28.483, 1.163 26.010, 0.750 26.006 C 0.337 26.003, -0 37.550, -0 51.667 C -0 65.783, 0.267 77.066, 0.593 76.740 C 1.399 75.935, 7.111 50.162, 7.215 46.864 C 7.261 45.413, 6.099 42.083, 4.634 39.461 C 3.169 36.840, 2.140 34.527, 2.347 34.320 C 3.009 33.658, 8.381 36.030, 12.250 38.692 C 16.181 41.396, 16.987 43.936, 14.555 45.955 C 13.760 46.614, 12.412 49.257, 11.559 51.827 C 10.082 56.276, 10.128 56.947, 12.504 65.822 C 13.877 70.949, 15 75.337, 15 75.572 C 15 75.807, 16.995 76, 19.433 76 C 24.371 76, 23.983 76.570, 26.453 65.688 C 28.468 56.815, 28.391 55.426, 25.565 49.657 L 23.192 44.813 32.514 45.157 C 42.301 45.517, 44.629 46.336, 41.784 48.416 C 40.842 49.105, 39.138 51.845, 37.998 54.505 C 36.004 59.157, 35.984 59.629, 37.478 66.853 C 38.332 70.984, 39.229 74.562, 39.471 74.804 C 39.713 75.046, 54.218 74.735, 71.705 74.113 C 89.192 73.490, 114.589 72.985, 128.143 72.991 C 146.944 72.998, 152.899 72.704, 153.261 71.750 C 153.523 71.063, 154.315 67.125, 155.022 63 C 155.835 58.255, 157.064 54.658, 158.366 53.209 C 159.499 51.949, 160.892 49.474, 161.463 47.709 C 162.305 45.102, 163.098 44.442, 165.688 44.191 L 168.876 43.883 166.288 49.191 L 163.699 54.500 165.415 62.952 C 166.359 67.601, 167.354 71.763, 167.625 72.202 C 167.896 72.641, 170.128 73, 172.584 73 C 177.618 73, 177.624 72.991, 180.667 61.573 C 182.106 56.172, 182.178 54.536, 181.127 51.030 C 180.444 48.748, 179.010 46.133, 177.942 45.218 C 175.048 42.741, 175.569 40.569, 179.750 37.682 C 183.882 34.829, 191.436 31.420, 190.804 32.694 C 185.341 43.704, 185.089 44.524, 185.960 48.500 C 186.442 50.700, 187.598 56.325, 188.530 61 C 189.462 65.675, 190.826 71.075, 191.561 73 C 192.734 76.072, 192.903 73.361, 192.948 50.809 C 192.977 36.679, 192.643 24.897, 192.207 24.628 C 191.771 24.358, 186.502 27.032, 180.499 30.569 C 168.813 37.454, 164.351 38.702, 165.545 34.750 C 165.919 33.513, 166.587 32.109, 167.030 31.632 C 167.942 30.650, 167.824 29.296, 165.345 12.250 L 163.563 0 154.800 0 C 144.530 0, 145.471 -1.407, 144.251 15.773 C 143.728 23.150, 143.830 28.944, 144.547 32.535 C 145.150 35.554, 145.490 38.177, 145.303 38.363 C 145.117 38.550, 142.834 38.505, 140.232 38.264 L 135.500 37.825 132.217 43.374 C 130.411 46.426, 128.504 49.188, 127.979 49.513 C 127.454 49.838, 125.781 48.924, 124.262 47.482 C 121.161 44.540, 113.931 40.631, 109.707 39.613 C 106.447 38.828, 105.402 36.862, 106.886 34.311 C 107.848 32.656, 107.942 32.695, 107.970 34.758 C 107.996 36.727, 108.245 36.864, 109.904 35.828 C 110.951 35.174, 112.498 33.257, 113.340 31.569 C 114.638 28.969, 114.882 28.827, 114.936 30.636 C 115.005 32.955, 117.984 39.340, 117.994 37.191 C 117.997 36.471, 118.384 36.119, 118.854 36.410 C 119.323 36.700, 120.214 35.826, 120.832 34.469 C 121.451 33.111, 122.417 32, 122.979 32 C 123.540 32, 124 31.277, 124 30.393 C 124 29.440, 124.560 29.001, 125.376 29.314 C 126.202 29.631, 127.232 28.786, 127.955 27.200 L 129.158 24.558 131.057 27.029 L 132.956 29.500 132.978 24.750 C 132.999 20.144, 133.091 20, 136 20 C 139.590 20, 139.730 19.429, 136.750 16.944 C 135.512 15.911, 135.063 15.052, 135.750 15.033 C 136.438 15.015, 137.002 13.763, 137.005 12.250 C 137.008 10.738, 138.119 7.700, 139.474 5.500 C 140.829 3.300, 141.952 1.163, 141.969 0.750 C 141.986 0.337, 124.338 0.060, 102.750 0.134 L 63.500 0.268 60.250 3.439 M 86 12.723 C 86 14.242, 89.181 16.610, 92.899 17.858 C 98.727 19.816, 99.753 19.029, 94.398 16.710 C 91.593 15.494, 88.555 13.882, 87.648 13.128 C 86.742 12.373, 86 12.190, 86 12.723 M 0.436 51.500 C 0.436 65.800, 0.577 71.511, 0.748 64.191 C 0.919 56.871, 0.918 45.171, 0.747 38.191 C 0.575 31.211, 0.435 37.200, 0.436 51.500 M 104 31.559 C 104 32.416, 104.450 32.840, 105 32.500 C 105.550 32.160, 106 31.459, 106 30.941 C 106 30.423, 105.550 30, 105 30 C 104.450 30, 104 30.702, 104 31.559 M 138.399 48.226 C 133.969 53.278, 133.676 53.905, 135 55.500 C 136.916 57.808, 137.787 57.344, 139.951 52.865 C 142.434 47.727, 141.441 44.758, 138.399 48.226 M 50 48.717 C 50 50.838, 53.449 58.017, 54.327 57.724 C 57.014 56.829, 57.259 54.270, 54.958 51.157 C 52.849 48.304, 50 46.902, 50 48.717 M 76 88.045 C 63.625 88.428, 51.080 88.800, 48.122 88.871 L 42.744 89 43.350 92.786 C 43.754 95.312, 43.046 100.307, 41.224 107.784 L 38.493 118.995 27.496 125.482 C 21.448 129.049, 12.800 134.113, 8.278 136.734 C 3.756 139.355, 0.043 142.063, 0.028 142.750 C 0.007 143.707, 4.418 144, 18.829 144 L 37.658 144 43.044 140.237 C 49.599 135.658, 52.966 130.401, 58.022 116.856 L 61.888 106.500 62.157 114 C 62.305 118.125, 62.276 126.563, 62.093 132.750 L 61.760 144 95.913 144 L 130.067 144 129.382 129.500 C 128.978 120.947, 129.070 115, 129.607 115 C 130.108 115, 131.547 117.869, 132.805 121.376 C 136.159 130.730, 140.181 136.436, 146.270 140.478 L 151.638 144.043 172.056 143.771 C 191.595 143.512, 192.488 143.414, 192.791 141.500 C 192.993 140.222, 192.811 139.927, 192.286 140.684 C 191.703 141.523, 187.113 139.393, 176.482 133.347 C 168.242 128.661, 159 123.553, 155.944 121.997 L 150.387 119.167 149.093 111.333 C 148.382 107.025, 146.578 99.900, 145.085 95.500 L 142.371 87.500 120.436 87.424 C 108.371 87.382, 88.375 87.661, 76 88.045 M 145 88.566 C 145 90.950, 146.979 94.131, 148.050 93.469 C 148.573 93.146, 149 91.559, 149 89.941 C 149 87.667, 148.547 87, 147 87 C 145.852 87, 145 87.667, 145 88.566 M 171 88.059 C 171 88.641, 171.450 88.840, 172 88.500 C 172.550 88.160, 173 87.684, 173 87.441 C 173 87.198, 172.550 87, 172 87 C 171.450 87, 171 87.477, 171 88.059 M 0.079 142.583 C 0.127 143.748, 0.364 143.985, 0.683 143.188 C 0.972 142.466, 0.936 141.603, 0.604 141.271 C 0.272 140.939, 0.036 141.529, 0.079 142.583" stroke="none" fill="black" fill-rule="evenodd"/>
</svg>