<svg xmlns="http://www.w3.org/2000/svg" width="192" height="144" viewBox="0 0 192 144" version="1.1">
	<path d="M 157.291 11.750 C 154.591 13.813, 149.033 18.301, 144.941 21.725 C 134.893 30.132, 119.549 40.619, 120.349 38.532 C 121.165 36.406, 119.389 33, 117.465 33 C 116.659 33, 116 33.900, 116 35 C 116 36.780, 115.333 37, 109.950 37 C 101.080 37, 96.501 39.876, 94.128 46.937 C 93.349 49.258, 93.303 50.703, 93.987 51.387 C 95.272 52.672, 95.305 55, 94.039 55 C 93.510 55, 92.602 53.312, 92.022 51.250 C 89.961 43.923, 85.008 40.017, 77.763 40.007 C 73.283 40, 72.946 39.808, 71.540 36.442 C 70.723 34.485, 69.149 31.613, 68.042 30.059 C 63.277 23.367, 49.624 20.757, 42.940 25.261 C 35.076 30.561, 29.949 41.883, 31.550 50.417 C 33.136 58.868, 45.151 67.132, 53.559 65.555 C 57.961 64.729, 57.935 66.050, 53.481 69.446 C 51.546 70.923, 50.215 72.538, 50.523 73.037 C 50.831 73.536, 50.328 75.095, 49.406 76.503 C 47.309 79.704, 48.310 80.934, 51.017 78.484 C 53.609 76.139, 56.154 77.922, 54.347 80.816 C 53.484 82.197, 53.653 83.089, 55.122 84.902 C 56.277 86.329, 57.004 88.814, 57.011 91.361 C 57.022 95.602, 58.968 103.203, 61.029 107.053 C 61.865 108.616, 61.883 109.517, 61.093 110.307 C 59.619 111.781, 59.707 117.559, 61.241 120.014 C 62.228 121.595, 62.228 122.405, 61.241 123.986 C 59.649 126.535, 59.649 131.465, 61.241 134.014 C 62.228 135.595, 62.228 136.405, 61.241 137.986 C 60.558 139.079, 60.052 140.991, 60.116 142.236 C 60.203 143.930, 60.347 144.059, 60.689 142.750 C 61.247 140.616, 64 140.408, 64 142.500 C 64 143.325, 64.450 144, 65 144 C 66.344 144, 66.262 141.669, 64.806 138.473 C 63.880 136.441, 63.880 135.422, 64.806 133.939 C 66.339 131.485, 66.339 126.515, 64.806 124.061 C 63.880 122.578, 63.880 121.559, 64.806 119.527 C 66.428 115.966, 66.307 112.450, 64.500 110.643 C 60.843 106.986, 63.027 104.733, 72.321 102.578 C 80.725 100.629, 80.285 100.598, 78.981 103.035 C 78.239 104.422, 78.115 110.133, 78.590 120.958 C 79.252 136.004, 79.177 137.035, 77.178 140.423 L 75.067 144 103.439 144 L 131.811 144 136.905 137.129 C 139.706 133.349, 142.264 128.931, 142.588 127.309 C 143.482 122.841, 140.934 118.027, 133.511 110.159 L 126.811 103.057 128.514 92.778 C 130.190 82.667, 132.750 71.284, 133.710 69.685 C 133.979 69.237, 134.956 69.555, 135.882 70.393 C 137.412 71.778, 137.802 71.621, 140.151 68.677 C 144.353 63.411, 147.134 57.097, 147.710 51.517 C 148.193 46.845, 148 46.114, 145.903 44.644 C 142.758 42.441, 139.205 42.578, 135.137 45.058 C 129.655 48.400, 130.214 46.352, 136.526 39.974 C 140.680 35.776, 143.190 34.005, 144.969 34.017 C 148.209 34.039, 156.910 29.880, 156.961 28.285 C 156.983 27.617, 156.019 26.545, 154.820 25.904 C 152.761 24.802, 152.739 24.664, 154.420 23.435 C 155.399 22.719, 155.897 21.643, 155.527 21.043 C 155.156 20.444, 156.610 17.826, 158.757 15.227 C 165.758 6.749, 165.290 5.640, 157.291 11.750 M 86.500 68.161 C 82.777 71.963, 76.091 73.126, 70.398 70.961 C 68.339 70.178, 67.465 70.240, 66.848 71.211 C 65.535 73.280, 65.874 77.375, 67.557 79.777 C 68.611 81.282, 68.731 82, 67.928 82 C 67.076 82, 66.938 83.474, 67.436 87.232 C 67.818 90.109, 68.233 92.566, 68.358 92.691 C 68.703 93.036, 84.200 88.112, 86.578 86.903 C 87.935 86.213, 89.433 83.433, 90.897 78.889 C 92.857 72.802, 92.973 71.561, 91.825 68.966 C 90.296 65.513, 89.249 65.354, 86.500 68.161 M 61 114.893 C 61 115.934, 61.675 117.045, 62.500 117.362 C 63.584 117.777, 64 117.252, 64 115.469 C 64 113.941, 63.428 113, 62.500 113 C 61.675 113, 61 113.852, 61 114.893 M 108.649 119.472 C 107.485 122.506, 107.966 133.706, 109.377 136.426 C 111.250 140.036, 111.786 138.126, 111.491 128.884 C 111.233 120.774, 109.875 116.277, 108.649 119.472 M 123.995 122.514 C 121.990 127.786, 123.486 132.378, 126.195 129.274 C 129.675 125.286, 129.939 123.612, 127.390 121.699 C 125.024 119.924, 124.975 119.936, 123.995 122.514 M 62 129.333 C 62 130.741, 62.595 131.667, 63.500 131.667 C 64.405 131.667, 65 130.741, 65 129.333 C 65 127.926, 64.405 127, 63.500 127 C 62.595 127, 62 127.926, 62 129.333 M 110.079 134.583 C 110.127 135.748, 110.364 135.985, 110.683 135.188 C 110.972 134.466, 110.936 133.603, 110.604 133.271 C 110.272 132.939, 110.036 133.529, 110.079 134.583" stroke="none" fill="black" fill-rule="evenodd"/>
</svg>