<svg xmlns="http://www.w3.org/2000/svg" width="192" height="144" viewBox="0 0 192 144" version="1.1">
	<path d="M 0 72.009 L 0 144.018 51.750 143.759 L 103.500 143.500 104.500 135.500 C 105.050 131.100, 106.227 126.150, 107.116 124.500 C 108.005 122.850, 108.964 119.346, 109.247 116.714 C 109.755 111.999, 109.709 111.905, 106.190 110.435 C 98.896 107.387, 98.362 107.466, 95.485 112.023 C 92.954 116.032, 92.653 116.200, 89.017 115.619 C 86.614 115.234, 83.290 115.626, 80.034 116.678 C 75.241 118.226, 74.527 118.229, 70.183 116.716 C 65.891 115.221, 61.867 115.233, 58 116.751 C 54.474 118.137, 47.438 117.603, 44.738 115.746 C 43.218 114.701, 40.293 113.645, 38.238 113.400 C 32.214 112.680, 28.503 111.139, 25.779 108.227 C 22.493 104.714, 20 99.743, 20 96.705 C 20 95.388, 19.083 93.480, 17.962 92.466 C 15.729 90.445, 16.007 86.294, 18.628 82.527 C 19.382 81.443, 20 79.621, 20 78.480 C 20 77.065, 21.711 75.308, 25.384 72.953 L 30.768 69.500 30.398 64.500 C 30.193 61.750, 30.434 58.375, 30.932 57 C 31.430 55.625, 32.100 53.292, 32.421 51.817 C 32.742 50.341, 33.791 48.882, 34.752 48.575 C 35.714 48.268, 38.675 45.988, 41.334 43.508 C 43.993 41.029, 46.820 39, 47.616 39 C 48.413 39, 49.387 38.213, 49.782 37.250 C 50.177 36.288, 51.971 33.925, 53.769 32 C 63.681 21.388, 68.796 15.154, 69.926 12.310 C 71.088 9.384, 71.660 9.067, 76.847 8.481 C 79.956 8.130, 83.885 7.418, 85.578 6.900 C 89.396 5.732, 95.418 7.990, 98.319 11.678 C 99.799 13.560, 100.992 14.081, 103.107 13.771 C 106.311 13.301, 107.334 14.821, 106.378 18.631 C 105.967 20.269, 106.280 21.507, 107.307 22.301 C 108.159 22.960, 109.338 25.300, 109.928 27.500 C 111.793 34.461, 112.609 34.961, 116.015 31.234 C 119.914 26.968, 119.869 28.631, 115.952 33.560 C 113.507 36.637, 112.963 38.181, 113.202 41.370 C 113.450 44.678, 113.877 45.371, 115.750 45.505 C 116.988 45.593, 118 45.287, 118 44.824 C 118 44.362, 118.924 44.549, 120.054 45.242 C 121.883 46.362, 122.424 46.118, 125.008 43 C 126.603 41.075, 129.166 36.700, 130.704 33.277 C 133.668 26.679, 136.151 24.371, 133.423 30.750 C 132.540 32.813, 131.552 35.152, 131.226 35.949 C 130.798 36.994, 131.591 36.825, 134.067 35.341 C 135.955 34.209, 137.376 32.736, 137.225 32.067 C 137.074 31.398, 137.402 31.131, 137.955 31.472 C 138.507 31.813, 139.980 31.561, 141.229 30.911 C 143.426 29.767, 143.418 29.817, 141 32.445 C 139.625 33.939, 138.725 35.392, 139 35.674 C 139.275 35.955, 137.762 36.784, 135.637 37.514 C 131.681 38.874, 126.634 43.012, 124.798 46.402 C 123.931 48.001, 124.047 48.196, 125.525 47.629 C 126.986 47.068, 127.076 47.204, 126.055 48.433 C 125.380 49.247, 125.086 50.331, 125.403 50.843 C 125.719 51.354, 125.194 51.977, 124.237 52.228 C 122.978 52.557, 122.530 53.626, 122.620 56.092 C 122.688 57.966, 122.296 60.063, 121.749 60.750 C 121.082 61.590, 121.104 62, 121.819 62 C 122.403 62, 123.149 61.569, 123.474 61.042 C 123.800 60.514, 126.781 59.093, 130.099 57.883 C 137.752 55.093, 141 52.556, 141 49.368 C 141 48.001, 141.437 47.152, 141.971 47.482 C 142.505 47.812, 143.224 46.957, 143.569 45.582 C 144.229 42.951, 146.667 40.333, 147.593 41.260 C 147.893 41.560, 147.562 42.729, 146.857 43.857 C 146.152 44.986, 145.958 46.267, 146.425 46.705 C 146.892 47.142, 147.453 47.001, 147.673 46.392 C 148.469 44.181, 150.936 41.489, 150.968 42.795 C 150.986 43.508, 149.866 45.225, 148.481 46.610 C 147.095 47.996, 146.222 49.550, 146.540 50.065 C 146.858 50.579, 146.504 51, 145.754 51 C 145.004 51, 142.671 52.575, 140.570 54.500 C 136.453 58.271, 136.522 58.816, 140.835 56.585 C 143.357 55.281, 143.571 55.320, 143.571 57.085 C 143.571 58.753, 142.818 59, 137.731 59 C 132.753 59, 130.971 59.554, 125.669 62.752 C 122.248 64.816, 117.971 67.661, 116.164 69.074 C 113.150 71.433, 112.979 71.860, 114.076 74.267 C 115.633 77.685, 117.341 78.253, 120.734 76.480 C 128.937 72.192, 135.118 70, 139.002 70 C 142.109 70, 144.314 69.254, 146.906 67.328 C 148.883 65.859, 150.654 64.543, 150.841 64.404 C 151.713 63.757, 149.708 60, 148.492 60 C 147.736 60, 146.840 59.550, 146.500 59 C 146.160 58.450, 146.818 58, 147.962 58 C 149.211 58, 150.498 58.999, 151.182 60.500 C 152.918 64.310, 155.993 63.502, 154.985 59.500 C 154.012 55.637, 153.351 50.982, 153.723 50.611 C 154.932 49.401, 158 54.342, 158 57.500 C 158 61.500, 158.068 61.533, 162.050 59.474 C 165.810 57.530, 165.817 58.503, 162.068 61.868 C 159.230 64.417, 158.642 66.049, 158.885 70.719 C 158.963 72.230, 159.466 72.759, 160.462 72.376 C 162.270 71.683, 163.644 67.715, 162.239 67.246 C 161.030 66.843, 161.825 63, 163.117 63 C 163.602 63, 164 63.627, 164 64.393 C 164 65.159, 164.670 66.043, 165.488 66.357 C 166.306 66.671, 166.872 66.607, 166.744 66.214 C 166.442 65.283, 169.645 60.723, 173.818 56.142 C 175.819 53.945, 176.710 53.371, 176.062 54.694 C 175.472 55.901, 174.540 57.166, 173.992 57.505 C 172.608 58.360, 168.733 67.066, 169.427 67.761 C 169.738 68.072, 172.745 66.189, 176.109 63.577 C 179.472 60.965, 181.922 59.317, 181.553 59.914 C 181.184 60.511, 181.401 61, 182.035 61 C 182.669 61, 183.423 60.100, 183.710 59 C 183.998 57.900, 184.968 57.005, 185.867 57.011 C 186.960 57.018, 186.123 58.339, 183.335 61.005 C 181.045 63.196, 179.020 65.344, 178.835 65.780 C 178.651 66.216, 177.037 67.600, 175.248 68.856 C 172.428 70.836, 172.186 71.329, 173.427 72.569 C 174.213 73.356, 176.239 74, 177.929 74 C 180.852 74, 181.777 74.890, 180.342 76.325 C 179.980 76.687, 179.071 76.474, 178.323 75.853 C 177.574 75.231, 174.607 74.705, 171.731 74.683 C 163.815 74.622, 148.210 82.764, 140.889 90.775 C 137.925 94.018, 133.137 97.942, 130.250 99.495 C 127.362 101.047, 125 102.696, 125 103.159 C 125 103.622, 126.463 104.032, 128.250 104.070 C 130.037 104.109, 132.400 104.527, 133.500 105 C 135.104 105.689, 134.758 105.873, 131.750 105.930 C 127.568 106.008, 127.246 106.509, 129.661 109.177 C 132.942 112.803, 129.814 112.356, 126.372 108.707 C 122.465 104.566, 121.590 104.652, 119.618 109.371 C 118.503 112.041, 118.135 130.726, 118.951 143.250 C 118.978 143.662, 128.450 144, 140 144 L 161 144 160.994 141.250 C 160.984 135.887, 159.042 131, 156.922 131 C 153.925 131, 153.558 128.538, 155.490 121.401 C 156.632 117.181, 157.072 112.939, 156.755 109.214 C 156.487 106.071, 156.676 102.410, 157.175 101.078 C 157.674 99.745, 157.793 97.945, 157.441 97.078 C 156.919 95.794, 156.636 95.924, 155.923 97.776 C 155.202 99.645, 154.371 100.016, 151.273 99.854 C 149.198 99.745, 146.852 99.846, 146.059 100.078 C 143.991 100.684, 143.563 97.315, 145.360 94.574 C 146.199 93.293, 148.148 91.930, 149.693 91.545 C 151.237 91.160, 153.232 90.185, 154.126 89.379 C 155.020 88.574, 157.309 87.662, 159.212 87.353 C 162.354 86.843, 162.788 87.074, 163.949 89.876 C 164.652 91.573, 164.943 94.092, 164.596 95.473 C 163.939 98.092, 167.681 105.394, 170.093 106.198 C 171.016 106.505, 171.014 107.106, 170.082 108.847 C 168.328 112.124, 169.117 116.264, 171.744 117.566 C 172.978 118.178, 173.691 118.976, 173.327 119.339 C 172.964 119.703, 173.192 120, 173.833 120 C 174.475 120, 175 120.450, 175 121 C 175 122.722, 173.019 122.099, 170.209 119.493 C 166.870 116.397, 166.344 117.627, 168.411 123.694 C 170.888 130.962, 170.616 132.373, 166.884 131.627 C 163.999 131.050, 163.823 131.171, 164.505 133.252 C 164.911 134.488, 165.460 137.425, 165.725 139.778 L 166.206 144.057 179.353 143.778 L 192.500 143.500 192.757 71.750 L 193.013 0 96.507 0 L 0 0 0 72.009 M 0.474 72.500 C 0.474 112.100, 0.598 128.154, 0.750 108.176 C 0.901 88.198, 0.901 55.798, 0.750 36.176 C 0.598 16.554, 0.474 32.900, 0.474 72.500 M 120 25.500 C 120 26.325, 120.177 27, 120.393 27 C 120.609 27, 121.045 26.325, 121.362 25.500 C 121.678 24.675, 121.501 24, 120.969 24 C 120.436 24, 120 24.675, 120 25.500 M 143.500 34.189 L 141.500 36.259 143.694 35.124 C 146.004 33.929, 147.686 31.958, 146.309 32.059 C 145.864 32.092, 144.600 33.050, 143.500 34.189 M 108.208 37.252 C 106.623 40.411, 106.329 42.814, 107.483 43.184 C 108.024 43.358, 108.764 41.700, 109.128 39.500 C 109.916 34.730, 109.717 34.244, 108.208 37.252 M 111.150 44.550 C 111.067 45.678, 110.468 47.133, 109.817 47.783 C 109.166 48.434, 108.948 49.282, 109.333 49.667 C 110.642 50.975, 112.158 48.255, 111.728 45.372 C 111.462 43.591, 111.243 43.279, 111.150 44.550 M 129 45.059 C 129 45.641, 129.450 45.840, 130 45.500 C 130.550 45.160, 131 44.684, 131 44.441 C 131 44.198, 130.550 44, 130 44 C 129.450 44, 129 44.477, 129 45.059 M 151 45 C 151 45.550, 151.450 46, 152 46 C 152.550 46, 153 45.550, 153 45 C 153 44.450, 152.550 44, 152 44 C 151.450 44, 151 44.450, 151 45 M 103.188 48.960 C 100.495 52.602, 100.354 53.895, 102.900 51.590 C 104.435 50.202, 106.460 46, 105.594 46 C 105.474 46, 104.391 47.332, 103.188 48.960 M 115.308 55.435 C 111.631 60.197, 108.600 68, 110.429 68 C 111.894 68, 119 63.892, 119 63.045 C 119 62.542, 119.521 60.863, 120.158 59.315 C 121.829 55.254, 122.131 49.999, 120.693 50.004 C 120.037 50.006, 117.614 52.450, 115.308 55.435 M 108.443 52.418 C 107.376 53.198, 106.747 54.080, 107.045 54.379 C 108.044 55.377, 112 53.784, 112 52.383 C 112 50.618, 110.889 50.629, 108.443 52.418 M 98.485 56.457 C 98.218 57.306, 97.802 58.642, 97.559 59.427 C 97.317 60.212, 97.767 61.392, 98.559 62.049 C 99.352 62.707, 100.001 63.752, 100.001 64.372 C 100.002 64.993, 101.189 66.850, 102.638 68.500 L 105.274 71.500 104.618 68.749 C 104.257 67.236, 103.682 63.956, 103.339 61.459 C 102.678 56.634, 99.469 53.328, 98.485 56.457 M 149.080 67.094 C 145.974 68.335, 147.570 70.029, 151.179 69.320 C 152.947 68.973, 153.676 68.319, 153.322 67.397 C 152.707 65.795, 152.387 65.772, 149.080 67.094 M 172.500 68 C 171.505 69.100, 171.140 70, 171.690 70 C 172.240 70, 173.505 69.100, 174.500 68 C 175.495 66.900, 175.860 66, 175.310 66 C 174.760 66, 173.495 66.900, 172.500 68 M 180 70 C 177.525 71.039, 176.310 71.913, 177.300 71.944 C 179.119 72.001, 185 69.350, 185 68.474 C 185 67.871, 185.273 67.788, 180 70 M 151.571 71.571 C 149.777 73.366, 149.686 73.955, 150.904 75.878 C 152.215 77.948, 154.197 76.196, 153.396 73.674 C 152.786 71.749, 152.892 71.666, 154.380 72.900 C 156.311 74.503, 157.515 73.784, 156.655 71.543 C 155.893 69.557, 153.573 69.570, 151.571 71.571 M 141.009 72.764 L 137.518 74.483 140.509 75.013 C 142.476 75.361, 143.072 75.812, 142.250 76.330 C 141.563 76.764, 140.633 76.891, 140.184 76.614 C 139.735 76.336, 136.122 76.591, 132.156 77.180 C 125.463 78.173, 124.992 78.403, 125.605 80.375 C 126.247 82.438, 126.207 82.448, 124.252 80.703 C 122.396 79.046, 122.111 79.032, 120.619 80.524 C 118.957 82.186, 118.411 84.998, 119.750 85.002 C 120.162 85.004, 120.548 86.365, 120.608 88.027 C 120.752 92.089, 121.295 92.416, 124.845 90.580 C 127.599 89.156, 127.822 88.678, 127.282 85.351 C 126.855 82.718, 127.013 81.890, 127.844 82.404 C 128.480 82.797, 129.007 83.654, 129.015 84.309 C 129.024 84.964, 129.410 86.098, 129.873 86.828 C 131.082 88.736, 140.733 82.699, 141.263 79.703 C 141.647 77.537, 141.672 77.542, 142.763 80 C 143.374 81.375, 143.902 82.010, 143.937 81.411 C 143.971 80.811, 145.125 79.808, 146.500 79.182 C 148.068 78.467, 149 77.220, 149 75.834 C 149 73.704, 148.893 73.728, 146 76.500 C 144.350 78.081, 143 78.862, 143 78.237 C 143 77.611, 143.616 76.740, 144.369 76.300 C 145.122 75.860, 146.052 74.487, 146.436 73.250 C 147.293 70.491, 145.883 70.365, 141.009 72.764 M 130.500 74.096 L 127.500 76.180 131.833 75.674 C 136.824 75.091, 138.059 74.282, 135.971 72.961 C 133.986 71.706, 133.925 71.718, 130.500 74.096 M 134.985 88.391 C 131.682 90.151, 130.417 91.469, 130.184 93.391 C 129.750 96.966, 130.946 96.680, 136.359 91.915 C 143.268 85.834, 142.667 84.295, 134.985 88.391 M 109 89.878 C 109 91.181, 111.583 93.084, 112.333 92.333 C 113.084 91.583, 111.181 89, 109.878 89 C 109.395 89, 109 89.395, 109 89.878 M 124.683 93.607 C 122.399 94.845, 122.091 95.405, 123.056 96.567 C 123.902 97.587, 123.921 98, 123.122 98 C 122.505 98, 122 98.675, 122 99.500 C 122 101.397, 123.090 101.403, 125.559 99.519 C 127.239 98.237, 127.298 97.903, 126 97.034 C 124.713 96.173, 124.749 96.028, 126.250 96.015 C 127.328 96.006, 128 95.232, 128 94 C 128 92.900, 127.888 92.018, 127.750 92.040 C 127.612 92.062, 126.232 92.767, 124.683 93.607 M 106.854 103.449 C 105.509 106.416, 105.491 106.974, 106.727 107.449 C 110.727 108.984, 112.626 106.778, 110.997 102.491 C 109.716 99.123, 108.709 99.356, 106.854 103.449 M 101.150 104.950 C 101.370 105.610, 101.876 106.116, 102.275 106.075 C 103.471 105.951, 103.239 104.580, 101.950 104.150 C 101.290 103.930, 100.930 104.290, 101.150 104.950" stroke="none" fill="black" fill-rule="evenodd"/>
</svg>