<svg xmlns="http://www.w3.org/2000/svg" width="192" height="144" viewBox="0 0 192 144" version="1.1">
	<path d="M 94.221 109.413 C 93.617 110.741, 92.173 112.128, 91.012 112.496 C 89.138 113.091, 88.970 113.687, 89.506 117.833 C 89.838 120.400, 90.311 123.482, 90.557 124.682 C 90.877 126.243, 90.414 127.051, 88.930 127.522 C 87.619 127.938, 87.066 128.730, 87.428 129.672 C 87.742 130.492, 88 134.052, 88 137.582 L 88 144 96.433 144 C 106.146 144, 105.996 144.153, 105.826 134.347 C 105.731 128.829, 105.465 128.077, 103.258 127.072 C 101.510 126.275, 101.078 125.595, 101.767 124.725 C 102.301 124.051, 102.968 121.354, 103.248 118.732 C 103.717 114.352, 103.524 113.798, 100.879 111.914 C 99.296 110.786, 98 109.219, 98 108.432 C 98 106.119, 95.417 106.790, 94.221 109.413 M 160.015 111.563 C 160.005 112.987, 158.914 114.053, 156.498 115.001 C 152.272 116.659, 148.368 120.491, 149.925 121.454 C 150.516 121.819, 151 123.696, 151 125.625 C 151 127.553, 151.489 130.044, 152.086 131.160 C 152.961 132.796, 152.768 133.618, 151.086 135.409 C 149.873 136.700, 149 138.962, 149 140.814 L 149 144 161 144 C 167.600 144, 173 143.832, 173 143.626 C 173 141.914, 167.468 133.966, 165.939 133.481 C 164.160 132.916, 164.130 132.728, 165.587 131.270 C 166.562 130.295, 167.018 128.577, 166.763 126.839 C 166.534 125.277, 166.718 124, 167.173 124 C 169.280 124, 167.646 120.217, 164.431 117.652 C 162.467 116.086, 161.076 114.245, 161.338 113.561 C 161.600 112.878, 161.413 111.684, 160.923 110.909 C 160.232 109.818, 160.027 109.966, 160.015 111.563 M 32.383 112.556 C 32.977 114.103, 30.075 117.739, 26.773 119.587 C 25.241 120.445, 25.236 120.883, 26.705 125.346 C 27.579 128.002, 28.904 130.410, 29.648 130.695 C 32.046 131.615, 31.090 133.566, 27.629 134.817 C 24.538 135.935, 24.266 136.368, 24.362 140.018 L 24.466 144 35.033 144 L 45.600 144 45.600 140.348 C 45.600 137.278, 45.075 136.387, 42.303 134.752 L 39.007 132.807 40.920 130.374 C 42.936 127.812, 43.630 119.507, 41.917 118.448 C 41.413 118.137, 41 117.020, 41 115.967 C 41 114.857, 39.759 113.410, 38.050 112.526 C 34.160 110.514, 31.605 110.528, 32.383 112.556" stroke="none" fill="black" fill-rule="evenodd"/>
</svg>