<svg xmlns="http://www.w3.org/2000/svg" width="192" height="144" viewBox="0 0 192 144" version="1.1">
	<path d="M 117.006 1.250 C 117.010 1.938, 117.682 3.784, 118.501 5.354 C 120.178 8.570, 119.736 10, 117.063 10 C 111.470 10, 100.350 17.178, 95.882 23.672 C 92.512 28.569, 87.670 41, 89.132 41 C 89.609 41, 90 42.618, 90 44.596 C 90 48.894, 92.744 53.061, 97.518 56.011 C 101.303 58.350, 101.827 60.030, 99.500 62.357 C 97.470 64.387, 97.614 65.723, 100 67 C 101.100 67.589, 102 68.924, 102 69.968 C 102 71.011, 102.900 72.151, 104 72.500 C 105.100 72.849, 106 73.563, 106 74.087 C 106 74.611, 107.152 76.864, 108.559 79.094 C 109.967 81.323, 110.946 83.902, 110.736 84.824 C 110.525 85.746, 110.896 87.625, 111.559 89 C 112.223 90.375, 113.089 93.889, 113.485 96.809 C 114.073 101.151, 113.884 102.471, 112.447 104.059 C 111.481 105.126, 110.344 106, 109.922 106 C 109.499 106, 107.094 102.902, 104.577 99.116 C 100.625 93.172, 100 91.528, 100 87.083 C 100 81.796, 97.859 75.165, 95.711 73.800 C 95.045 73.377, 91.912 73.024, 88.750 73.015 C 84.312 73.003, 83 72.658, 83 71.500 C 83 70.675, 82.520 70, 81.933 70 C 81.343 70, 81.132 70.842, 81.462 71.880 C 81.929 73.351, 81.236 74.106, 78.279 75.353 C 72.556 77.766, 70.909 79.461, 69.893 83.980 C 68.447 90.417, 70.957 98.596, 75.761 103.100 C 77.873 105.080, 80.201 106.900, 80.933 107.144 C 82.007 107.502, 81.951 108.194, 80.645 110.720 C 78.925 114.046, 76.471 127.384, 75.671 137.750 L 75.190 144 86.845 143.970 L 98.500 143.941 101.919 137.970 C 103.799 134.687, 105.628 132, 105.983 132 C 106.337 132, 106.432 134.700, 106.194 138 L 105.760 144 141.420 144 C 175.659 144, 177.244 143.916, 181.191 141.903 C 183.982 140.479, 184.899 139.555, 184.045 139.028 C 183.153 138.477, 183.109 138.051, 183.893 137.566 C 185.757 136.414, 185.126 135, 182.750 135.004 C 181.512 135.007, 178.475 136.355, 176 138 C 171.282 141.137, 169.505 141.626, 168.534 140.056 C 168.213 139.536, 166.218 132.318, 164.100 124.014 C 160.292 109.082, 160.385 106.427, 164.500 112.707 C 169.253 119.960, 169.077 119.858, 168.449 115 C 168.129 112.525, 167.610 108.972, 167.296 107.105 C 166.854 104.486, 167.019 103.894, 168.018 104.511 C 169.025 105.133, 169.161 104.555, 168.630 101.905 C 167.048 94.014, 166.752 90.507, 167.751 91.500 C 168.305 92.050, 169.264 94.075, 169.882 96 C 171.337 100.534, 176.412 108.619, 175.531 105 C 175.196 103.625, 174.694 100.925, 174.414 99 C 173.936 95.705, 173.994 95.617, 175.410 97.500 C 180.176 103.841, 180.183 103.845, 179.586 99.432 C 179.282 97.194, 178.562 87.744, 177.985 78.432 C 176.836 59.888, 174.945 47.061, 172.059 38.228 C 163.669 12.547, 159.427 6.143, 150.588 5.811 C 147.869 5.709, 146.276 4.928, 144.516 2.836 L 142.129 0 129.565 0 C 120.176 0, 117.002 0.316, 117.006 1.250" stroke="none" fill="black" fill-rule="evenodd"/>
</svg>