<svg xmlns="http://www.w3.org/2000/svg" width="192" height="144" viewBox="0 0 192 144" version="1.1">
	<path d="M -0 72.005 L -0 144.010 96.250 143.755 L 192.500 143.500 192.757 71.750 L 193.013 0 96.507 0 L 0 0 -0 72.005 M 0.474 72.500 C 0.474 112.100, 0.598 128.154, 0.750 108.176 C 0.901 88.198, 0.901 55.798, 0.750 36.176 C 0.598 16.554, 0.474 32.900, 0.474 72.500 M 97.099 73.214 C 95.772 75.338, 95.723 75.342, 94.316 73.438 C 92.948 71.586, 92.839 71.580, 91.862 73.305 C 91.058 74.724, 90.537 74.861, 89.431 73.943 C 88.327 73.026, 87.886 73.134, 87.383 74.445 C 87.030 75.363, 86.182 75.900, 85.497 75.637 C 83.351 74.814, 81.489 79.584, 82.818 82.500 C 83.500 83.997, 83.728 87.189, 83.381 90.371 L 82.798 95.724 87.485 97.993 C 91.279 99.829, 93.219 100.154, 97.664 99.695 C 106.249 98.809, 107.745 97.344, 108.300 89.282 C 108.556 85.552, 109.109 81.196, 109.528 79.601 C 110.074 77.526, 109.965 76.904, 109.145 77.410 C 108.419 77.859, 108 77.320, 108 75.937 C 108 74.166, 107.733 73.977, 106.581 74.933 C 105.460 75.863, 104.938 75.731, 104.099 74.305 C 103.189 72.758, 102.899 72.711, 102.073 73.971 C 101.040 75.548, 100.799 75.441, 99.372 72.776 C 98.527 71.197, 98.335 71.234, 97.099 73.214" stroke="none" fill="black" fill-rule="evenodd"/>
</svg>