<svg xmlns="http://www.w3.org/2000/svg" width="192" height="144" viewBox="0 0 192 144" version="1.1">
	<path d="M 119.847 3.817 C 117.839 5.843, 114.723 8.668, 112.925 10.097 L 109.654 12.693 110.974 17.409 L 112.295 22.124 108.276 26.312 C 106.065 28.615, 103.789 31.386, 103.216 32.469 C 102.398 34.017, 101.318 34.375, 98.156 34.147 C 95.945 33.987, 93.173 34.372, 91.997 35.002 C 89.400 36.392, 85.135 35.135, 82.080 32.080 C 80.936 30.936, 79.418 30, 78.707 30 C 77.996 30, 76.983 28.538, 76.457 26.750 C 75.595 23.821, 75.080 23.470, 71.250 23.193 C 66.373 22.840, 66.036 23.553, 69.517 26.855 C 70.883 28.150, 71.994 29.725, 71.987 30.355 C 71.961 32.499, 77.495 42.892, 78.691 42.946 C 80.946 43.048, 81.136 45.044, 79.199 48.268 C 75.784 53.951, 75.755 56.222, 79.026 61.381 L 82.010 66.085 79.505 84.561 C 78.127 94.723, 77 105.559, 77 108.641 C 77 113.509, 76.803 114.081, 75.500 113 C 74.675 112.315, 74 110.492, 74 108.949 C 74 106.132, 71.783 103, 69.789 103 C 69.201 103, 68.158 103.769, 67.472 104.708 C 66.549 105.970, 65.040 106.343, 61.697 106.138 C 52.564 105.576, 44 113.757, 44 123.045 C 44 125.404, 43.286 126.326, 40.250 127.882 C 34.937 130.607, 30.182 136.236, 28.537 141.750 L 27.865 144 51.957 144 L 76.050 144 77 141.500 C 78.248 138.217, 80.383 138.217, 79.755 141.500 L 79.277 144 98.083 144 L 116.889 144 114.825 139.032 C 112.910 134.426, 112.870 133.790, 114.266 130.290 L 115.771 126.516 117.514 130.508 C 119.204 134.376, 119.529 138.643, 118.409 142.250 C 117.929 143.794, 118.638 144, 124.433 144 L 131 144 130.990 139.750 C 130.985 137.412, 129.428 129.140, 127.531 121.367 C 125.634 113.594, 123.642 104.506, 123.105 101.171 C 122.568 97.837, 121.650 94.214, 121.064 93.120 C 120.479 92.026, 120 90.032, 120 88.688 C 120 87.344, 119.381 85.731, 118.624 85.103 C 117.472 84.147, 117.654 82.957, 119.746 77.776 C 122.568 70.791, 124.191 60.345, 123.325 54.750 C 122.662 50.466, 123.172 50.203, 126.727 53 C 128.126 54.100, 129.774 55, 130.391 55 C 131.848 55, 133.844 48.354, 133.545 44.500 C 133.418 42.850, 133.243 40.072, 133.157 38.327 C 132.944 34.017, 128.728 29.227, 124.440 28.423 C 120.475 27.679, 120.531 27.807, 122.500 24 C 123.325 22.405, 124.502 18.715, 125.117 15.800 C 125.731 12.885, 126.571 10.050, 126.983 9.500 C 127.395 8.950, 127.959 7.375, 128.237 6 C 128.515 4.625, 129.074 2.712, 129.478 1.750 C 130.097 0.279, 129.679 0.011, 126.857 0.067 C 124.368 0.117, 122.555 1.087, 119.847 3.817 M 86.625 79.125 C 85.669 83.907, 86.018 84.816, 87.536 81.500 C 89.141 77.994, 89.355 76, 88.125 76 C 87.644 76, 86.969 77.406, 86.625 79.125" stroke="none" fill="black" fill-rule="evenodd"/>
</svg>