<svg xmlns="http://www.w3.org/2000/svg" width="192" height="144" viewBox="0 0 192 144" version="1.1">
	<path d="M 0 25.817 L 0 51.633 13.750 51.609 C 23.015 51.593, 30.762 52.193, 37.500 53.449 C 50.778 55.924, 51.500 55.926, 51.500 53.500 C 51.500 51.852, 50.920 51.546, 48.203 51.760 C 46.390 51.903, 44.022 51.547, 42.941 50.968 C 40.605 49.718, 41.282 47.954, 46.645 41.316 C 49.953 37.222, 50.012 36.982, 49.387 30.259 C 48.396 19.587, 51.033 16.005, 65.388 8.522 C 74.159 3.951, 77.925 3.933, 84.755 8.431 L 89.964 11.861 95.457 9.931 C 101.426 7.833, 106.529 7.429, 107.487 8.979 C 108.307 10.306, 106.547 13.389, 102.259 18.135 L 98.684 22.092 102.545 26.046 C 104.668 28.221, 105.834 30, 105.136 30 C 104.310 30, 104.093 30.718, 104.515 32.047 C 104.955 33.435, 104.332 35.187, 102.582 37.481 C 99.536 41.475, 99.494 41.783, 101.664 44.181 C 102.983 45.639, 103.101 46.484, 102.235 48.260 C 101.634 49.492, 100.400 52.862, 99.491 55.750 C 98.583 58.637, 97.483 61, 97.047 61 C 96.612 61, 95.971 62.779, 95.624 64.953 C 95.272 67.149, 94.219 69.337, 93.254 69.878 C 92.298 70.412, 91.738 71.057, 92.008 71.310 C 94 73.174, 113.209 81.857, 114.362 81.415 C 115.161 81.108, 118.219 82.396, 121.158 84.276 C 124.096 86.157, 127.737 88.450, 129.250 89.371 C 130.762 90.292, 132 91.598, 132.001 92.273 C 132.001 94.294, 149.573 107.101, 151.388 106.404 C 152.355 106.034, 153.226 106.425, 153.599 107.396 C 153.937 108.278, 154.688 109, 155.268 109 C 156.696 109, 161.812 114.831, 162.621 117.381 C 162.980 118.512, 166.106 122.946, 169.568 127.234 C 173.030 131.522, 177.131 137.047, 178.681 139.511 L 181.500 143.992 187 143.746 L 192.500 143.500 192.695 71.750 L 192.890 0 96.445 0 L 0 0 0 25.817 M 0.436 26.500 C 0.436 40.800, 0.577 46.511, 0.748 39.191 C 0.919 31.871, 0.918 20.171, 0.747 13.191 C 0.575 6.211, 0.435 12.200, 0.436 26.500 M 1 103 L 1 144 36.933 144 C 71.741 144, 72.885 143.939, 73.487 142.040 C 74.079 140.177, 72.521 122.305, 71.305 117 C 70.989 115.625, 70.083 113.752, 69.290 112.838 C 67.471 110.740, 67.171 109.103, 67.077 100.750 C 67.018 95.545, 66.667 94, 65.545 94 C 63.838 94, 62.488 88.188, 63.474 85.082 C 63.955 83.568, 63.636 82.828, 62.319 82.401 C 53.768 79.633, 47.539 74.729, 46.486 69.936 C 46.129 68.312, 45.021 66.547, 44.024 66.013 C 40.577 64.168, 23.458 62.008, 12.250 62.004 L 1 62 1 103 M 106.006 94.527 C 107.157 99.629, 108.212 100.234, 107.825 95.569 C 107.646 93.416, 106.980 91.484, 106.344 91.275 C 105.513 91.003, 105.418 91.920, 106.006 94.527 M 126.961 106.073 C 126.077 107.724, 126.174 108.535, 127.420 109.912 C 129.541 112.256, 129.410 114.319, 127 116.500 C 123.535 119.635, 124.576 120.318, 131.750 119.614 C 136.858 119.113, 138.929 118.440, 140.265 116.847 C 142.457 114.232, 141.772 113.278, 133.831 107.885 C 128.192 104.056, 128.059 104.021, 126.961 106.073 M 151.808 129.750 C 150.397 131.262, 148.950 134.144, 148.594 136.153 C 148.237 138.163, 147.233 140.080, 146.362 140.415 C 145.490 140.749, 140.665 139.723, 135.639 138.134 C 130.347 136.461, 122.922 134.976, 118 134.605 L 109.500 133.965 107.250 137.295 C 102.530 144.279, 101.268 144, 137.568 144 L 170.136 144 167.863 140.750 C 163.824 134.977, 156.650 127, 155.496 127 C 154.879 127, 153.219 128.238, 151.808 129.750" stroke="none" fill="black" fill-rule="evenodd"/>
</svg>