<svg xmlns="http://www.w3.org/2000/svg" width="192" height="144" viewBox="0 0 192 144" version="1.1">
	<path d="M 98.518 105.971 C 97.515 107.593, 100.674 112.536, 105.657 117.140 C 120.433 130.791, 120.629 131.211, 112.860 132.524 C 108.292 133.295, 106.444 135.410, 106.107 140.250 L 105.847 144 126.923 144 L 148 144 148 141.182 C 148 139.631, 148.716 135.952, 149.591 133.005 C 151.168 127.694, 151.162 127.630, 148.841 125.845 C 147.554 124.855, 145.724 124.034, 144.776 124.022 C 142.866 123.998, 140 128.756, 140 131.950 C 140 133.078, 139.496 134, 138.880 134 C 137.504 134, 120.848 121.594, 112 113.980 C 101.902 105.289, 99.735 104.002, 98.518 105.971" stroke="none" fill="black" fill-rule="evenodd"/>
</svg>