<svg xmlns="http://www.w3.org/2000/svg" width="192" height="144" viewBox="0 0 192 144" version="1.1">
	<path d="M 109 14.626 C 100.561 17.260, 96.690 21.980, 95.436 31.162 C 94.803 35.800, 94.821 35.837, 98.900 38.162 C 101.264 39.510, 102.797 41.042, 102.519 41.781 C 101.853 43.559, 108.007 48.935, 110.750 48.971 C 111.987 48.987, 113 49.354, 113 49.788 C 113 50.221, 110.742 52.800, 107.982 55.518 C 105.205 58.253, 103.191 61.057, 103.474 61.794 C 103.756 62.527, 103.260 64.531, 102.372 66.247 C 101.206 68.502, 100.913 70.866, 101.315 74.767 C 101.810 79.564, 101.685 80.084, 100.186 79.442 C 99.259 79.044, 95.802 77.707, 92.505 76.472 C 87.077 74.438, 86.429 73.883, 85.652 70.595 C 85.015 67.903, 85.178 66.377, 86.283 64.690 C 87.591 62.694, 87.596 62.076, 86.321 59.643 C 85.051 57.219, 84.468 56.954, 81.684 57.535 C 77.339 58.443, 76.116 59.848, 75.603 64.515 C 75.363 66.707, 74.815 71.200, 74.385 74.500 C 73.401 82.059, 73.732 86.648, 75.549 90.627 C 76.830 93.432, 76.773 94.348, 74.988 99.533 C 72.364 107.162, 72.355 111, 74.961 111 C 76.040 111, 78.735 112.830, 80.949 115.067 C 83.163 117.303, 85.453 118.838, 86.036 118.478 C 86.775 118.021, 86.753 117.407, 85.962 116.455 C 84.272 114.418, 85.698 113, 89.437 113 C 95.112 113, 95.574 111.417, 93.565 98.849 C 92.594 92.772, 92.182 87.422, 92.649 86.958 C 93.117 86.494, 95.638 87.668, 98.250 89.567 C 102.462 92.628, 102.999 93.443, 102.988 96.760 C 102.982 98.817, 102.309 102.975, 101.493 106 C 100.678 109.025, 99.334 115.655, 98.506 120.734 C 97.679 125.813, 95.939 133.125, 94.639 136.984 L 92.276 144 120.724 144 L 149.172 144 145.740 137.750 C 143.853 134.313, 140.416 126.729, 138.103 120.897 C 135.790 115.065, 132.074 107.190, 129.845 103.397 C 123.181 92.059, 121.848 85.470, 124.096 74.988 C 124.941 71.050, 125.743 69.668, 127.596 68.964 C 128.918 68.461, 130 67.445, 130 66.706 C 130 64.512, 126.881 54.604, 125.757 53.227 C 124.993 52.292, 125.086 52.093, 126.109 52.478 C 126.941 52.791, 128.459 51.590, 129.886 49.490 C 132.496 45.649, 133.015 39.970, 131.183 35.286 C 130.584 33.754, 129.604 30.582, 129.005 28.237 C 127.794 23.498, 123.185 17.664, 118.901 15.449 C 116.164 14.033, 112.006 13.688, 109 14.626" stroke="none" fill="black" fill-rule="evenodd"/>
</svg>