<svg xmlns="http://www.w3.org/2000/svg" width="192" height="144" viewBox="0 0 192 144" version="1.1">
	<path d="M 81.667 0.667 C 81.300 1.033, 80.964 2.271, 80.921 3.417 C 80.878 4.563, 80.615 4.938, 80.338 4.250 C 79.034 1.020, 65.116 4.387, 61.089 8.907 C 55.968 14.654, 52.778 22.573, 52.778 29.537 C 52.778 37.354, 54.998 41.733, 60.278 44.332 C 63.614 45.975, 64 46.564, 64 50.023 C 64 54.578, 65.418 55.837, 67.959 53.537 C 69.173 52.439, 71.831 51.812, 75.822 51.683 C 80.695 51.526, 82.355 51.015, 84.478 49.020 C 86.433 47.184, 87.304 46.874, 87.883 47.810 C 88.310 48.502, 89.376 48.793, 90.250 48.457 C 91.383 48.023, 91.936 48.517, 92.171 50.174 C 92.702 53.917, 91.471 63.088, 90.339 63.824 C 89.767 64.196, 88.742 65.558, 88.060 66.851 C 87.379 68.144, 84.611 72.231, 81.911 75.933 C 79.210 79.635, 77 83.345, 77 84.179 C 77 85.013, 75 87.901, 72.556 90.598 C 70.112 93.294, 67.187 97.230, 66.056 99.345 C 63.887 103.400, 63.314 109.458, 65 110.500 C 65.550 110.840, 66 110.586, 66 109.937 C 66 109.052, 66.374 109.065, 67.488 109.990 C 68.690 110.988, 69.091 110.927, 69.571 109.676 C 69.898 108.824, 70.728 108.342, 71.416 108.606 C 72.258 108.929, 72.667 108.030, 72.667 105.857 C 72.667 103.381, 73.522 101.888, 76.333 99.458 C 78.350 97.714, 80 95.852, 80 95.318 C 80 93.420, 84.666 89.934, 86.345 90.579 C 87.255 90.928, 88 90.748, 88 90.178 C 88 88.875, 95.183 77.877, 99.692 72.275 C 103.736 67.252, 105.569 61.344, 106.448 50.500 C 106.805 46.100, 107.586 39.489, 108.185 35.808 L 109.274 29.117 112.887 29.229 C 114.874 29.290, 121.443 28.283, 127.485 26.990 C 137.758 24.793, 138.780 24.351, 143.235 20.183 C 145.856 17.732, 148 15.137, 148 14.418 C 148 13.698, 149.081 12.522, 150.402 11.805 C 151.723 11.087, 154.390 9.234, 156.330 7.686 C 159.732 4.972, 160.060 4.910, 165.612 5.936 C 168.777 6.521, 176.010 7, 181.684 7 L 192 7 192 3.500 L 192 0 137.167 0 C 107.008 0, 82.033 0.300, 81.667 0.667" stroke="none" fill="black" fill-rule="evenodd"/>
</svg>