<svg xmlns="http://www.w3.org/2000/svg" width="192" height="144" viewBox="0 0 192 144" version="1.1">
	<path d="M 0 72 L 0 144 40.250 144.001 L 80.500 144.002 80.500 136.251 C 80.500 131.988, 80.650 122.875, 80.834 116 C 81.166 103.574, 80.278 88, 79.237 88 C 78.937 88, 77.151 89.800, 75.268 92 C 71.363 96.563, 69.908 96.782, 62 94 C 58.975 92.936, 55.349 92.051, 53.943 92.033 C 52.536 92.015, 49.892 90.763, 48.066 89.250 C 44.446 86.251, 44.597 86.306, 39.423 86.125 C 35.171 85.976, 29.610 81.179, 30.625 78.535 C 30.967 77.643, 31.488 77.154, 31.782 77.448 C 32.075 77.742, 32.920 77.481, 33.658 76.869 C 34.652 76.044, 35 76.062, 35 76.937 C 35 77.586, 35.450 77.840, 36 77.500 C 36.550 77.160, 37 77.493, 37 78.240 C 37 79.132, 38.286 79.617, 40.750 79.654 C 42.813 79.685, 45.625 79.784, 47 79.874 C 48.375 79.964, 50.689 80.033, 52.143 80.027 C 53.597 80.021, 57.322 81.137, 60.422 82.508 C 63.521 83.878, 66.659 85, 67.395 85 C 68.782 85, 73 76.009, 73 73.054 C 73 72.130, 74.390 70.052, 76.089 68.437 C 77.788 66.822, 80.312 63.577, 81.698 61.227 C 83.083 58.877, 85.068 56.499, 86.108 55.942 C 88.204 54.820, 88.753 51.774, 86.719 52.555 C 85.120 53.168, 78.791 46.782, 79.200 44.967 C 79.365 44.234, 78.236 43.004, 76.691 42.234 C 72.151 39.972, 71.303 36.831, 73.493 30.391 C 74.519 27.370, 75.918 24.584, 76.600 24.199 C 77.282 23.815, 77.989 21.925, 78.170 20 C 78.491 16.591, 78.604 16.506, 82.500 16.739 C 86.191 16.960, 86.655 16.690, 88.505 13.239 C 89.608 11.183, 91.183 9.479, 92.005 9.454 C 92.827 9.428, 94.501 8.856, 95.724 8.182 C 97.761 7.060, 98.164 7.300, 100.517 11.027 C 103.832 16.278, 105.220 19.985, 104.537 21.763 C 104.238 22.543, 104.904 24.461, 106.018 26.025 C 109.263 30.583, 110.985 36.626, 112.991 50.500 C 114.184 58.754, 116.116 66.968, 118.284 73 C 123.042 86.238, 123.444 88.108, 121.364 87.310 C 119.964 86.772, 119.817 87.129, 120.423 89.586 C 122.068 96.251, 122.099 98.927, 120.589 104.011 C 119.715 106.954, 119 111.251, 119 113.559 C 119 115.912, 118.392 118.259, 117.616 118.904 C 115.953 120.284, 114.529 134.973, 115.537 140.348 L 116.227 144.024 154.363 143.762 L 192.500 143.500 192.757 71.750 L 193.013 0 96.507 0 L 0 0 0 72 M 0.474 72.500 C 0.474 112.100, 0.598 128.154, 0.750 108.176 C 0.901 88.198, 0.901 55.798, 0.750 36.176 C 0.598 16.554, 0.474 32.900, 0.474 72.500 M 81.809 93.643 C 81.567 94.114, 81.442 95.175, 81.532 96 C 81.622 96.825, 81.764 98.539, 81.848 99.809 C 82.058 102.994, 84.004 101.521, 83.985 98.191 C 83.968 95.275, 82.524 92.255, 81.809 93.643" stroke="none" fill="black" fill-rule="evenodd"/>
</svg>