<svg xmlns="http://www.w3.org/2000/svg" width="192" height="144" viewBox="0 0 192 144" version="1.1">
	<path d="M 83.058 17.204 C 77.707 19.970, 74.758 25.096, 74.513 32.057 C 74.332 37.199, 72.782 40, 70.118 40 C 69.218 40, 67.922 40.896, 67.238 41.990 C 66.151 43.730, 66.384 44.327, 69.093 46.740 C 70.796 48.258, 72.699 49.500, 73.321 49.500 C 73.943 49.500, 74.882 50.724, 75.408 52.220 C 76.166 54.375, 75.983 55.361, 74.527 56.970 C 73.495 58.111, 73.196 59, 73.845 59 C 74.480 59, 75 59.927, 75 61.059 C 75 62.235, 75.448 62.841, 76.044 62.473 C 76.618 62.118, 77.743 62.372, 78.544 63.036 C 79.345 63.701, 80.014 63.852, 80.032 63.372 C 80.049 62.893, 80.733 63.386, 81.551 64.468 C 82.370 65.550, 84.243 66.488, 85.715 66.553 C 87.186 66.617, 88.552 67.156, 88.750 67.750 C 89.164 68.992, 87.471 69.563, 80.587 70.502 C 74.436 71.340, 70.534 74.975, 68.792 81.489 L 67.538 86.177 58.502 85.839 C 49.683 85.508, 49.322 85.397, 43.483 81.221 C 40.192 78.868, 34.921 75.760, 31.768 74.315 C 28.615 72.870, 25.772 70.858, 25.450 69.844 C 25.129 68.830, 24.558 68.022, 24.183 68.048 C 23.807 68.074, 21.700 70.649, 19.500 73.768 C 17.300 76.888, 12.013 82.842, 7.750 86.999 C 0.919 93.660, 0 94.984, 0 98.155 C 0 101.713, 0.068 101.771, 5.909 103.242 C 12.538 104.912, 13.081 104.749, 15.295 100.427 C 16.160 98.737, 17.635 96.718, 18.571 95.941 C 20.071 94.696, 20.451 94.794, 21.759 96.764 C 23.467 99.336, 25 99.684, 25 97.500 C 25 94.967, 29.565 95.791, 32.925 98.930 L 36.062 101.860 40.509 99.893 C 44.596 98.085, 45.195 98.050, 47.915 99.456 C 49.542 100.297, 51.153 101.439, 51.496 101.993 C 52.634 103.835, 54.921 103.041, 61.553 98.500 C 68.323 93.865, 71.389 92.823, 70.359 95.508 C 70.040 96.337, 70.505 98.121, 71.390 99.473 C 72.411 101.031, 73 104.091, 73 107.842 C 73 111.986, 73.468 114.144, 74.564 115.053 C 76.468 116.633, 75.722 120.812, 73.144 123.009 C 71.831 124.128, 71.422 125.806, 71.558 129.509 C 71.689 133.056, 71.051 135.874, 69.354 139.250 L 66.966 144 91.500 144 L 116.034 144 113.443 138.887 C 111.173 134.408, 111.001 133.412, 112.058 130.861 C 113.088 128.373, 113.001 127.658, 111.459 125.954 C 110.054 124.402, 109.710 122.582, 109.907 117.755 C 110.202 110.511, 111.268 108.030, 111.994 112.896 C 112.637 117.209, 114.937 118.764, 118.697 117.427 C 121.485 116.436, 121.500 116.381, 121.500 107.481 C 121.500 96.541, 122.329 96.045, 129.856 102.470 C 132.775 104.962, 135.464 106.997, 135.832 106.993 C 136.199 106.990, 137.850 106.093, 139.500 105 C 143.321 102.469, 146.418 102.477, 150.546 105.028 L 153.828 107.057 157.624 104.481 C 161.805 101.643, 167.399 101.375, 167.635 104 C 167.709 104.825, 167.821 105.903, 167.885 106.396 C 167.948 106.889, 169.135 106.067, 170.523 104.570 C 171.910 103.073, 173.597 102.029, 174.273 102.250 C 174.948 102.470, 177.180 104.864, 179.233 107.570 C 181.286 110.275, 183.343 112.614, 183.804 112.768 C 184.265 112.922, 186.238 112.381, 188.188 111.566 L 191.734 110.084 192.444 101.952 C 192.834 97.479, 192.894 93.560, 192.577 93.243 C 192.259 92.926, 192 93.642, 192 94.833 C 192 96.025, 191.724 97, 191.386 97 C 189.768 97, 178.774 86.357, 174.408 80.563 C 171.709 76.981, 169.046 74.039, 168.491 74.025 C 167.935 74.011, 166.945 74.858, 166.291 75.906 C 165.636 76.954, 163.540 78.327, 161.633 78.956 C 159.725 79.586, 154.651 82.103, 150.356 84.550 C 142.245 89.173, 138.072 89.922, 129 88.385 C 125.840 87.849, 125.217 87.165, 122.584 81.342 C 119.313 74.107, 118.513 73.501, 109.151 71.162 C 104.644 70.036, 102.500 69.016, 102.500 68 C 102.500 66.892, 103.510 66.551, 106.358 66.693 C 109.467 66.849, 110.319 66.497, 110.740 64.887 C 111.047 63.710, 111.826 63.103, 112.631 63.412 C 113.384 63.701, 114 63.515, 114 63 C 114 62.485, 114.753 62.352, 115.674 62.705 C 116.952 63.196, 117.192 62.943, 116.690 61.636 C 116.277 60.559, 116.600 59.707, 117.560 59.339 C 118.894 58.827, 118.867 58.510, 117.342 56.826 C 115.717 55.029, 115.709 54.715, 117.236 52.199 C 118.137 50.715, 119.459 49.500, 120.173 49.500 C 122.204 49.500, 122.361 46.056, 120.427 43.919 C 118.147 41.400, 119.050 40.610, 122.442 42.156 C 125.622 43.605, 126.959 42.299, 126.985 37.719 C 126.994 35.955, 127.640 34.736, 128.750 34.387 C 129.713 34.085, 131.519 33.431, 132.765 32.933 C 135.026 32.031, 135.027 32.027, 133.038 30.038 C 130.596 27.596, 128 21.587, 128 18.378 C 128 15.121, 126.273 15.405, 121.109 19.510 C 118.694 21.429, 116.410 23, 116.034 23 C 115.657 23, 114.304 21.888, 113.027 20.529 C 110.036 17.345, 106.457 16.294, 96 15.529 C 88.384 14.972, 87.038 15.146, 83.058 17.204 M 0.272 98 C 0.272 100.475, 0.467 101.487, 0.706 100.250 C 0.944 99.013, 0.944 96.987, 0.706 95.750 C 0.467 94.513, 0.272 95.525, 0.272 98" stroke="none" fill="black" fill-rule="evenodd"/>
</svg>