<svg xmlns="http://www.w3.org/2000/svg" width="192" height="144" viewBox="0 0 192 144" version="1.1">
	<path d="M -0 72.005 L -0 144.010 96.250 143.755 L 192.500 143.500 192.757 71.750 L 193.013 0 96.507 0 L 0 0 -0 72.005 M 0.474 72.500 C 0.474 112.100, 0.598 128.154, 0.750 108.176 C 0.901 88.198, 0.901 55.798, 0.750 36.176 C 0.598 16.554, 0.474 32.900, 0.474 72.500 M 92.500 35 C 90.364 37.360, 88 37.623, 88 35.500 C 88 32.950, 83.633 33.728, 82.344 36.508 C 81.245 38.878, 81.503 39.208, 87.594 43.212 C 91.510 45.787, 94 48.119, 94 49.212 C 94 51.840, 92.098 51.389, 91 48.500 C 89.918 45.655, 88.780 45.355, 87.036 47.456 C 85.659 49.116, 86.443 51, 88.512 51 C 89.279 51, 90.357 52.633, 90.908 54.628 C 91.726 57.592, 91.559 58.944, 89.997 62.005 C 88.946 64.067, 87.376 66.025, 86.509 66.358 C 85.642 66.691, 78.110 66.309, 69.771 65.510 C 61.432 64.711, 54.408 64.259, 54.162 64.505 C 53.181 65.485, 56.390 68, 58.622 68 C 59.930 68, 61 68.389, 61 68.864 C 61 69.339, 62.688 69.741, 64.750 69.757 C 66.813 69.773, 70.638 70.719, 73.250 71.858 C 77.720 73.807, 80.041 73.241, 76.258 71.125 C 73.329 69.485, 75.256 69.054, 82.712 69.679 C 88.552 70.169, 89.928 70.616, 90.330 72.155 C 90.751 73.764, 91.660 73.996, 96.661 73.767 C 102.325 73.508, 102.509 73.580, 102.809 76.175 C 103.069 78.422, 103.550 78.806, 105.809 78.570 C 107.882 78.353, 108.573 77.682, 108.816 75.645 C 109.018 73.959, 109.743 72.999, 110.816 72.997 C 112.632 72.995, 123.559 75.396, 131.253 77.490 C 135.570 78.664, 136.230 78.607, 138.438 76.870 C 139.776 75.818, 141.462 75.079, 142.185 75.228 C 143.046 75.406, 143.607 74.205, 143.810 71.748 C 144.075 68.556, 143.760 67.859, 141.697 67.075 C 140.364 66.568, 138.987 65.408, 138.637 64.497 C 138.095 63.084, 136.613 62.887, 128.572 63.158 C 123.385 63.333, 118.810 63.143, 118.404 62.738 C 117.999 62.332, 118.443 62, 119.392 62 C 120.341 62, 120.840 61.550, 120.500 61 C 120.160 60.450, 118.370 60, 116.523 60 C 111.407 60, 110 59.114, 110 55.893 C 110 54.253, 109.459 52.994, 108.750 52.985 C 108.063 52.977, 108.589 52.415, 109.921 51.735 C 113.291 50.016, 113.605 48.181, 110.718 47.083 C 109.373 46.572, 108.018 45.489, 107.706 44.677 C 107.395 43.865, 105.534 42.671, 103.570 42.023 C 99.811 40.782, 99.501 40.335, 100.888 38.147 C 101.547 37.108, 102.224 37.050, 103.807 37.897 C 108.736 40.535, 108.082 37.976, 103.114 35.184 C 98.278 32.467, 94.847 32.407, 92.500 35 M 103 54.094 C 103 56.332, 104.285 56.566, 105.899 54.622 C 106.797 53.540, 106.609 53.131, 105.021 52.716 C 103.515 52.322, 103 52.673, 103 54.094 M 93.098 61.559 C 90.199 66.471, 90.472 67.512, 94 65 C 95.650 63.825, 97 62.021, 97 60.991 C 97 57.660, 95.248 57.915, 93.098 61.559" stroke="none" fill="black" fill-rule="evenodd"/>
</svg>