<svg xmlns="http://www.w3.org/2000/svg" width="192" height="144" viewBox="0 0 192 144" version="1.1">
	<path d="M 63.755 4.805 C 65.071 18.500, 58.319 35.724, 47.835 45.412 C 35.421 56.884, 13.613 63.060, 1.750 58.464 C 0.100 57.825, 0 60.247, 0 100.893 L 0 144 52.327 144 L 104.654 144 105.880 137.346 C 106.555 133.686, 108.439 126.533, 110.067 121.450 C 111.695 116.367, 114.044 106.649, 115.287 99.854 C 117.959 85.251, 117.441 78.978, 113.414 77.143 C 110.804 75.954, 110.298 73.181, 112.081 69.849 C 113.664 66.890, 112.604 66.541, 107.833 68.450 C 103.989 69.988, 103.474 70.001, 102.439 68.586 C 101.731 67.617, 98.476 66.628, 93.897 65.989 C 89.829 65.422, 82.900 64.045, 78.500 62.931 C 74.100 61.816, 69.259 60.787, 67.742 60.644 C 64.532 60.342, 62.483 58.645, 63.446 57.087 C 64.310 55.689, 69.073 55.691, 72.685 57.091 C 76.413 58.535, 94.630 60.910, 97.076 60.270 C 98.134 59.993, 99 59.383, 99 58.915 C 99 58.446, 99.675 58.322, 100.500 58.638 C 101.325 58.955, 102 58.730, 102 58.138 C 102 57.411, 104.539 57.258, 109.848 57.668 C 117.272 58.240, 117.726 58.158, 118.254 56.136 C 118.612 54.769, 118.348 54, 117.521 54 C 115.689 54, 112.907 49.405, 113.618 47.552 C 114.007 46.540, 113.646 46, 112.582 46 C 110.206 46, 108.787 41.561, 110.184 38.496 C 111.037 36.623, 111.031 35.364, 110.161 33.453 C 107.325 27.230, 109.008 26.768, 120.636 30.574 C 130.233 33.715, 133.553 36.834, 134.578 43.670 C 134.973 46.308, 135.905 49.922, 136.649 51.701 C 137.392 53.480, 138 57.122, 138 59.794 C 138 63.634, 138.505 65.126, 140.410 66.915 C 142.263 68.656, 142.751 70.025, 142.522 72.840 C 142.359 74.853, 142.789 77.625, 143.479 79 C 144.169 80.375, 145.001 85.325, 145.327 90 C 145.653 94.675, 146.217 101.001, 146.580 104.058 C 147.105 108.476, 146.908 109.949, 145.620 111.237 C 144.729 112.128, 144 113.452, 144 114.179 C 144 114.905, 146.263 120.572, 149.029 126.771 C 151.795 132.969, 154.328 139.392, 154.658 141.042 L 155.259 144.043 173.879 143.772 L 192.500 143.500 192.825 129 C 193.003 121.025, 192.837 88.737, 192.455 57.250 L 191.761 0 127.527 -0 L 63.294 -0 63.755 4.805 M 0.459 101 C 0.459 124.925, 0.589 134.713, 0.749 122.750 C 0.908 110.788, 0.908 91.213, 0.749 79.250 C 0.589 67.288, 0.459 77.075, 0.459 101 M 139.079 97.583 C 139.127 98.748, 139.364 98.985, 139.683 98.188 C 139.972 97.466, 139.936 96.603, 139.604 96.271 C 139.272 95.939, 139.036 96.529, 139.079 97.583" stroke="none" fill="black" fill-rule="evenodd"/>
</svg>