<svg xmlns="http://www.w3.org/2000/svg" width="192" height="144" viewBox="0 0 192 144" version="1.1">
	<path d="M 104 14.453 C 104 14.702, 104.486 15.972, 105.079 17.274 C 106.025 19.351, 105.717 20.083, 102.573 23.227 C 100.601 25.199, 98.709 28.205, 98.369 29.906 C 98.028 31.608, 97.131 33, 96.375 33 C 94.562 33, 94.639 33.943, 96.632 36.146 C 98.141 37.813, 98.140 38.137, 96.622 40.454 C 95.720 41.831, 93.635 43.654, 91.991 44.505 C 90.346 45.355, 89 46.481, 89 47.007 C 89 48.500, 94.006 49.394, 95.273 48.127 C 96.759 46.641, 97.992 46.696, 98.033 48.250 C 98.078 49.919, 101.539 54, 102.910 54 C 105.230 54, 104.571 70.470, 102.148 73.072 C 101.238 74.049, 95.995 77.010, 90.497 79.652 C 84.998 82.295, 80.350 84.804, 80.167 85.229 C 79.983 85.653, 79.153 86, 78.321 86 C 77.489 86, 75.614 86.633, 74.154 87.406 C 72.694 88.179, 69.406 89.550, 66.847 90.452 C 61.183 92.448, 57.306 95.872, 56.415 99.665 C 56.049 101.224, 54.435 105.547, 52.829 109.272 C 50.187 115.398, 49.876 118.050, 51.809 117.972 C 52.189 117.957, 54.297 115.257, 56.494 111.972 C 58.691 108.688, 60.780 106, 61.136 106 C 61.960 106, 62.676 109.030, 63.522 116.096 C 63.890 119.174, 64.533 122.244, 64.949 122.917 C 65.620 124.004, 69.658 120.239, 84.723 104.476 C 86.337 102.788, 93.024 98.670, 93.396 99.136 C 93.556 99.336, 94.739 101.409, 96.024 103.743 L 98.361 107.986 95.680 114.513 C 92.739 121.676, 92.127 128, 94.376 128 C 95.323 128, 95.895 126.275, 96.211 122.465 C 96.818 115.152, 98.526 113.473, 98.415 120.300 C 98.369 123.160, 97.583 126.937, 96.669 128.693 C 95.503 130.934, 95.338 132.091, 96.115 132.571 C 96.725 132.948, 97.651 132.636, 98.173 131.878 C 98.801 130.967, 99.001 132.786, 98.764 137.250 L 98.405 144 124.020 144 L 149.634 144 150.905 129.250 C 152.304 113.010, 151.836 109.226, 146.387 92.727 C 144.237 86.216, 143.999 84.441, 144.922 81.793 C 145.992 78.724, 145.231 77.065, 142.729 77.015 C 142.306 77.007, 142.081 70.908, 142.229 63.461 C 142.499 49.980, 142.510 49.925, 144.750 50.480 C 147.851 51.249, 147.566 49.720, 143.930 46.084 C 141.579 43.733, 141.026 42.494, 141.567 40.790 C 145.669 27.866, 132.812 16.942, 114.619 17.894 C 111.814 18.040, 110.210 17.529, 108.830 16.048 C 107.153 14.247, 104 13.206, 104 14.453" stroke="none" fill="black" fill-rule="evenodd"/>
</svg>