<svg xmlns="http://www.w3.org/2000/svg" width="192" height="144" viewBox="0 0 192 144" version="1.1">
	<path d="M 92.789 64.750 C 90.746 67.102, 89.871 71.176, 91.015 73.008 C 91.679 74.071, 91.389 74.932, 90.006 76 C 88.145 77.438, 88.128 77.778, 89.598 84.180 L 91.131 90.861 86.566 99.766 C 81.007 110.608, 80.512 115.716, 84.646 119.548 C 86.101 120.896, 88.351 122, 89.646 122 C 91.490 122, 92 122.541, 92 124.500 C 92 125.875, 91.535 127, 90.968 127 C 90.400 127, 89.548 128.012, 89.075 129.250 C 88.421 130.961, 88.728 132.062, 90.357 133.845 C 92.296 135.967, 93.071 136.133, 98.500 135.584 C 101.800 135.250, 106.975 134.869, 110 134.738 C 114.429 134.546, 115.449 134.185, 115.237 132.883 C 115.092 131.994, 115.660 130.697, 116.499 130.001 C 117.660 129.037, 117.753 128.408, 116.890 127.367 C 116.266 126.615, 115.187 126, 114.492 126 C 113.797 126, 111.940 125.328, 110.364 124.506 C 108.789 123.685, 106.713 123.010, 105.750 123.006 C 103.606 122.999, 103.492 121.666, 105.493 120.006 C 108.313 117.665, 109.134 111.815, 107.442 106.117 C 106.591 103.251, 106.151 100.100, 106.464 99.114 C 106.777 98.129, 106.410 95.787, 105.648 93.911 C 104.887 92.035, 103.969 87.158, 103.609 83.074 C 103.248 78.990, 102.492 75.093, 101.928 74.413 C 101.226 73.568, 101.233 72.974, 101.951 72.530 C 103.650 71.480, 103.152 66.447, 101.171 64.655 C 98.786 62.496, 94.707 62.543, 92.789 64.750" stroke="none" fill="black" fill-rule="evenodd"/>
</svg>