<svg xmlns="http://www.w3.org/2000/svg" width="192" height="144" viewBox="0 0 192 144" version="1.1">
	<path d="M 0 25.535 L 0 51.070 2.078 49.958 C 3.221 49.346, 4.812 49.098, 5.613 49.405 C 6.863 49.885, 6.836 50.321, 5.420 52.482 L 3.770 55 18.135 54.956 C 28.688 54.924, 33.561 54.498, 36.500 53.352 C 50.284 47.975, 51.369 47.745, 63.710 47.583 C 75.046 47.434, 76.101 47.254, 78.430 45.066 C 81.283 42.385, 80.967 41, 77.500 41 C 73.839 41, 73.687 39.441, 77.069 36.595 C 79.620 34.449, 80.241 33.061, 80.718 28.444 C 81.207 23.706, 81.762 22.521, 84.450 20.470 C 92.292 14.489, 101.024 13.266, 105.076 17.583 C 107.284 19.935, 107.969 20.107, 112.750 19.511 C 117.097 18.969, 118 19.121, 118 20.398 C 118 21.246, 116.652 22.936, 115.006 24.154 C 112.193 26.233, 112.102 26.507, 113.506 28.649 C 115.513 31.712, 115.388 33.692, 112.995 36.734 C 111.576 38.538, 111.289 39.643, 112.012 40.515 C 112.729 41.378, 112.454 42.906, 111.092 45.623 C 110.024 47.755, 108.463 50.988, 107.623 52.806 L 106.097 56.113 110.631 58.056 C 113.125 59.125, 116.240 60, 117.552 60 C 120.017 60, 127.580 63.511, 128.571 65.115 C 130.012 67.446, 140.289 73.043, 142.083 72.474 C 143.155 72.133, 144 72.336, 144 72.933 C 144 73.520, 144.510 74, 145.133 74 C 146.451 74, 150 77.851, 150 79.281 C 150 79.818, 152.982 83.418, 156.627 87.281 C 160.271 91.145, 166.634 99.525, 170.766 105.903 C 178.829 118.351, 179.383 118.961, 182.629 118.985 C 185.262 119.004, 187.276 123.391, 186.822 128.123 C 186.028 136.409, 178.213 130.087, 167.768 112.706 C 163.472 105.557, 157.679 97.615, 153.602 93.284 C 147.212 86.496, 146.577 86.073, 144.967 87.530 C 144.012 88.395, 142.976 90.369, 142.666 91.918 L 142.103 94.733 131.302 95.454 C 125.361 95.851, 118.810 96.180, 116.744 96.187 C 113.593 96.197, 112.889 96.595, 112.371 98.659 C 112.031 100.012, 112.001 103.005, 112.304 105.310 C 114.315 120.613, 115.928 136.822, 115.982 142.262 C 115.999 143.918, 118.296 144.008, 154.250 143.762 L 192.500 143.500 192.693 71.750 L 192.886 0 96.443 0 L 0 0 0 25.535 M 0.435 26 C 0.435 40.025, 0.575 45.763, 0.747 38.750 C 0.919 31.738, 0.919 20.263, 0.747 13.250 C 0.575 6.238, 0.435 11.975, 0.435 26 M 48.803 55.340 C 46.220 56.068, 42.302 57.858, 40.097 59.317 C 37.892 60.776, 34.203 62.394, 31.898 62.911 C 29.594 63.429, 27.296 64.448, 26.791 65.176 C 26.263 65.937, 26.077 76.286, 26.352 89.500 C 26.860 113.836, 28.169 124.256, 32.258 136.514 L 34.589 143.500 53.566 143.771 L 72.544 144.042 76.767 131.271 C 79.842 121.973, 82.420 116.325, 86.245 110.500 C 91.385 102.676, 91.497 102.348, 91.354 95.564 C 91.159 86.275, 88.954 70, 87.890 70 C 87.422 70, 87.307 68.042, 87.635 65.648 C 88.211 61.443, 88.131 61.276, 85.255 60.701 C 83.618 60.374, 80.812 58.871, 79.019 57.363 C 75.955 54.784, 75.091 54.601, 64.630 54.317 C 57.527 54.125, 51.800 54.494, 48.803 55.340 M 1 102.531 L 1 144 9.390 144 L 17.780 144 14.389 136.158 C 7.413 120.021, 3.788 100.179, 3.729 77.797 C 3.696 65.604, 3.386 61.979, 2.343 61.578 C 1.232 61.152, 1 68.230, 1 102.531 M 112.032 66.668 C 111.980 68.568, 113.145 71, 114.107 71 C 115.418 71, 115.199 69.645, 113.532 67.441 C 112.724 66.374, 112.049 66.026, 112.032 66.668 M 126.555 73.910 C 126.213 74.465, 126.496 75.822, 127.186 76.926 C 128.272 78.665, 128.076 79.311, 125.719 81.771 C 122.113 85.535, 122.283 86.036, 126.750 84.809 C 132.569 83.211, 136.158 81.048, 135.812 79.346 C 135.396 77.298, 127.374 72.587, 126.555 73.910" stroke="none" fill="black" fill-rule="evenodd"/>
</svg>