<svg xmlns="http://www.w3.org/2000/svg" width="192" height="144" viewBox="0 0 192 144" version="1.1">
	<path d="M 0 72 L 0 144 18.474 144 L 36.949 144 38.444 141.108 C 42.336 133.582, 55.614 126.895, 74.417 122.990 L 82.334 121.346 84.229 113.423 C 85.271 109.065, 86.099 103.025, 86.070 100 C 85.967 89.653, 85.500 84.500, 84.604 83.851 C 81.135 81.337, 94.603 76.647, 98.816 78.901 C 99.945 79.506, 101.812 80, 102.966 80 C 105.263 80, 106.923 82.812, 105.239 83.852 C 104.518 84.298, 104.606 85.723, 105.520 88.382 C 106.489 91.200, 106.561 92.729, 105.784 93.974 C 105.007 95.219, 105.157 98.252, 106.336 105.093 C 109.091 121.080, 109.384 121.725, 114.274 122.518 C 121.577 123.702, 133.272 127.155, 138.723 129.735 C 144.723 132.576, 152.588 139.126, 153.518 142.057 C 154.122 143.960, 154.949 144.031, 173.324 143.771 L 192.500 143.500 192.757 71.750 L 193.013 0 96.507 0 L 0 0 0 72 M 0.474 72.500 C 0.474 112.100, 0.598 128.154, 0.750 108.176 C 0.901 88.198, 0.901 55.798, 0.750 36.176 C 0.598 16.554, 0.474 32.900, 0.474 72.500 M 75.500 127.450 C 67.371 129.448, 61.387 132.558, 56.033 137.566 C 53.265 140.155, 51 142.662, 51 143.137 C 51 143.612, 57.713 144, 65.917 144 L 80.834 144 81.917 138.951 C 83.401 132.030, 83.323 125.971, 81.750 126.111 C 81.063 126.171, 78.250 126.774, 75.500 127.450 M 109.360 127.504 C 108.681 129.274, 109.526 139.602, 110.574 142.333 C 111.131 143.783, 113.098 144, 125.666 144 C 141.367 144, 140.787 144.315, 136.288 138.232 C 133.648 134.663, 125.030 129.866, 117.975 128.040 C 115.514 127.402, 112.710 126.652, 111.745 126.372 C 110.690 126.065, 109.739 126.517, 109.360 127.504" stroke="none" fill="black" fill-rule="evenodd"/>
</svg>