<svg xmlns="http://www.w3.org/2000/svg" width="192" height="144" viewBox="0 0 192 144" version="1.1">
	<path d="M 0 72 L 0 144 34.889 144 L 69.777 144 70.474 140.250 C 70.857 138.188, 72.925 131.242, 75.069 124.815 L 78.968 113.130 76.494 107.815 C 75.133 104.892, 74.015 101.263, 74.010 99.750 C 74.002 97.523, 73.547 97, 71.619 97 C 70.310 97, 66.249 95.875, 62.596 94.500 C 58.943 93.125, 55.149 92, 54.164 92 C 53.180 92, 51.138 90.710, 49.628 89.134 C 47.474 86.886, 45.700 86.146, 41.400 85.702 C 35.814 85.125, 29.569 82.307, 29.871 80.500 C 30.040 79.493, 30.447 79.418, 37.220 79.148 L 40.940 79 38.396 75.250 C 36.997 73.188, 35.210 71.140, 34.426 70.700 C 32.290 69.502, 32.672 65.899, 35 65.290 C 37.431 64.654, 37.569 63.418, 35.349 62.175 C 32.948 60.832, 34.087 55.608, 38.152 49.322 C 40.580 45.566, 41.981 44.279, 43.250 44.639 C 44.598 45.021, 45 44.532, 45 42.508 C 45 41.012, 45.430 40.148, 46 40.500 C 46.550 40.840, 47 43.356, 47 46.090 C 47 49.721, 47.431 51.228, 48.596 51.675 C 49.778 52.129, 50.035 53.075, 49.586 55.319 C 49.127 57.617, 49.510 58.914, 51.171 60.682 L 53.362 63.014 51.181 68.276 C 49.981 71.171, 49 74.114, 49 74.818 C 49 75.521, 47.656 76.662, 46.014 77.352 L 43.027 78.608 46.264 79.686 C 48.044 80.279, 50.850 80.696, 52.500 80.613 C 54.150 80.530, 57.948 81.682, 60.940 83.172 C 66.563 85.974, 68 86.002, 68 83.312 C 68 82.449, 69.817 77.491, 72.037 72.295 C 75.290 64.680, 76.357 60.559, 77.533 51.061 C 79.033 38.944, 80.663 32.931, 83.968 27.330 L 85.862 24.120 83.181 23.810 C 81.096 23.569, 80.430 22.890, 80.184 20.756 C 79.826 17.649, 84.629 8, 86.534 8 C 90.574 8, 94.556 9.737, 98.526 13.232 C 102.556 16.779, 103.455 17.148, 106.774 16.617 C 117.110 14.962, 118.784 14.841, 119.320 15.710 C 119.640 16.227, 119.213 19.286, 118.372 22.507 C 117.121 27.296, 117.060 29.143, 118.036 32.629 C 119.101 36.432, 118.991 37.386, 117.024 41.450 C 115.811 43.956, 114.466 45.788, 114.035 45.522 C 113.604 45.255, 112.070 46.133, 110.626 47.471 C 108.625 49.326, 108 50.867, 108 53.952 C 108 56.503, 108.462 58.014, 109.250 58.039 C 109.938 58.060, 111.400 59.376, 112.500 60.965 C 113.600 62.553, 116.256 66.367, 118.401 69.440 C 122.092 74.727, 122.292 75.398, 122.103 81.852 C 121.969 86.444, 122.328 89.022, 123.202 89.735 C 123.916 90.318, 128.100 91.360, 132.500 92.051 C 136.900 92.742, 141.293 93.846, 142.261 94.506 C 143.323 95.228, 145.999 95.514, 149 95.226 C 153.983 94.747, 160 96.368, 160 98.189 C 160 98.709, 160.862 98.861, 161.916 98.527 C 162.970 98.192, 164.107 98.364, 164.444 98.909 C 165.637 100.839, 160.767 102.132, 150.977 102.486 C 145.524 102.683, 140.550 103.160, 139.923 103.547 C 139.297 103.935, 136.245 103.523, 133.142 102.633 C 130.039 101.742, 125.025 100.448, 122 99.757 C 116.852 98.580, 116.348 98.194, 114.124 93.709 C 112.818 91.074, 111.562 89.104, 111.335 89.332 C 110.490 90.177, 110.325 101.083, 111.149 101.592 C 111.619 101.883, 111.742 103.781, 111.422 105.810 C 110.973 108.651, 111.618 111.342, 114.221 117.500 C 116.081 121.900, 118.930 129.657, 120.552 134.738 L 123.500 143.976 158 143.738 L 192.500 143.500 192.757 71.750 L 193.013 0 96.507 0 L 0 0 0 72 M 0.474 72.500 C 0.474 112.100, 0.598 128.154, 0.750 108.176 C 0.901 88.198, 0.901 55.798, 0.750 36.176 C 0.598 16.554, 0.474 32.900, 0.474 72.500 M 42.862 51.750 C 42.634 54.087, 42.744 56, 43.107 56 C 44.146 56, 44.725 51.564, 43.965 49.431 C 43.469 48.039, 43.161 48.685, 42.862 51.750 M 52.305 51.724 C 52.475 52.948, 52.927 54.260, 53.308 54.641 C 54.369 55.702, 54.100 52.699, 52.982 51 C 52.198 49.810, 52.058 49.959, 52.305 51.724 M 148.557 83.223 C 146.528 86.119, 146.592 86.736, 149 87.500 C 150.100 87.849, 151.036 88.892, 151.079 89.817 C 151.128 90.858, 151.350 91.023, 151.662 90.250 C 151.940 89.563, 153.043 89, 154.115 89 C 157.116 89, 157.538 86.202, 154.952 83.449 C 152.104 80.417, 150.560 80.362, 148.557 83.223" stroke="none" fill="black" fill-rule="evenodd"/>
</svg>