<svg xmlns="http://www.w3.org/2000/svg" width="192" height="144" viewBox="0 0 192 144" version="1.1">
	<path d="M 0 72 L 0 144 37.250 143.999 L 74.500 143.998 76.677 138.249 C 77.874 135.087, 79.996 129.771, 81.391 126.436 C 84.589 118.795, 86.178 103.557, 84.934 92.462 C 84.249 86.351, 84.362 83.981, 85.442 81.816 C 86.760 79.174, 86.656 78.856, 83.416 75.616 C 79.872 72.072, 79.023 68.377, 81.242 66.158 C 82.230 65.170, 82.190 64.736, 81.044 64.027 C 79.902 63.322, 80.166 62.881, 82.317 61.902 C 84.029 61.121, 84.867 60.083, 84.589 59.083 C 82.351 51.026, 82.942 47.732, 86.110 50.599 C 87.926 52.243, 88.132 52.229, 90.260 50.313 C 91.492 49.205, 93.287 48.020, 94.250 47.680 C 95.850 47.116, 96 45.040, 96 23.531 L 96 0 48 0 L 0 0 0 72 M 98.250 46.677 L 96 47.139 96 95.570 L 96 144 110.500 144 L 125 144 125 141.577 C 125 140.244, 123.870 137.810, 122.488 136.168 C 121.106 134.526, 119.267 131.229, 118.401 128.841 C 116.495 123.584, 114.776 111.281, 115.590 108.717 C 116.143 106.975, 116.255 106.967, 117.438 108.584 C 118.774 110.411, 121 109.773, 121 107.563 C 121 106.838, 120.325 105.685, 119.500 105 C 118.675 104.315, 118 102.186, 118 100.269 C 118 97.086, 118.209 96.836, 120.407 97.387 C 121.731 97.720, 123.504 98.256, 124.346 98.579 C 125.239 98.922, 126.356 98.402, 127.022 97.334 C 127.936 95.868, 129.156 95.570, 133.094 95.847 C 137.834 96.181, 138.163 96.406, 141.691 101.721 C 147.164 109.967, 153.638 113.146, 156.301 108.895 C 157.097 107.625, 155.920 105.664, 150.653 99.492 C 146.994 95.204, 144 90.976, 144 90.097 C 143.999 87.642, 134.564 80, 131.533 80 C 128.717 80, 127.087 82.487, 128.789 84.189 C 129.369 84.769, 129.639 85.777, 129.389 86.428 C 128.507 88.726, 108 84.118, 108 81.622 C 108 79.331, 110.113 78.053, 111.977 79.218 C 112.950 79.825, 114.930 79.983, 116.532 79.581 C 119.763 78.770, 127 71.979, 127 69.757 C 127 68.944, 125.875 66.621, 124.500 64.595 C 123.125 62.569, 122 60.481, 122 59.956 C 122 59.430, 121.273 59, 120.385 59 C 119.014 59, 118.872 58.183, 119.445 53.596 C 120.174 47.762, 118.866 45.434, 116.600 48.532 C 115.445 50.112, 115.120 50.129, 112.917 48.727 C 110.335 47.085, 101.964 45.915, 98.250 46.677 M 120.558 69.540 C 120.035 72.328, 119.506 73.024, 118.269 72.550 C 116.627 71.919, 115.043 73.487, 115.015 75.770 C 115.004 76.677, 116.093 76.483, 118.817 75.093 C 123.906 72.497, 125.681 70.303, 124.371 68.226 C 122.572 65.374, 121.255 65.828, 120.558 69.540 M 82.015 70.812 C 82.059 72.788, 89.463 77.870, 90.616 76.717 C 91.533 75.800, 89.766 73.153, 88.549 73.620 C 87.841 73.891, 87.047 73.289, 86.784 72.281 C 86.342 70.594, 81.981 69.250, 82.015 70.812 M 112.015 113.191 C 112.024 113.911, 112.467 115.175, 113 116 C 113.788 117.219, 113.972 117.090, 113.985 115.309 C 113.993 114.104, 113.550 112.840, 113 112.500 C 112.450 112.160, 112.007 112.471, 112.015 113.191 M 117.564 141.293 C 117.940 142.279, 118.499 142.834, 118.807 142.526 C 119.115 142.219, 118.808 141.412, 118.124 140.733 C 117.136 139.753, 117.022 139.868, 117.564 141.293" stroke="none" fill="black" fill-rule="evenodd"/>
</svg>