<svg xmlns="http://www.w3.org/2000/svg" width="192" height="144" viewBox="0 0 192 144" version="1.1">
	<path d="M 51.902 30.750 C 49.866 36.093, 49.727 38.934, 51.377 41.453 C 52.270 42.815, 53 44.745, 53 45.742 C 53 46.739, 53.680 48.526, 54.511 49.712 C 55.486 51.104, 55.657 52.094, 54.994 52.503 C 54.430 52.853, 54.249 53.594, 54.593 54.150 C 54.937 54.707, 54.099 56.363, 52.731 57.831 C 47.893 63.023, 46.891 66.748, 49.602 69.459 C 52.198 72.055, 50.795 78.981, 45.281 90.785 C 43.535 94.523, 43.113 96.432, 43.840 97.307 C 44.548 98.160, 44.294 103.653, 43.020 115.022 C 42.004 124.085, 40.992 134.313, 40.772 137.750 L 40.372 144 59.811 144 L 79.250 144 78.574 140.750 C 78.202 138.963, 77.039 131.650, 75.989 124.500 C 74.940 117.350, 72.887 107.450, 71.427 102.500 C 69.967 97.550, 68.534 92.600, 68.242 91.500 C 67.950 90.400, 67.273 88.940, 66.737 88.255 C 66.076 87.409, 66.332 86.143, 67.536 84.305 C 69.972 80.587, 70.431 63.521, 68.281 56.633 C 66.611 51.283, 67.252 50.046, 71.711 50.015 C 74.970 49.993, 76.693 43.242, 74.515 39.030 C 70.117 30.525, 63.690 26.647, 57.740 28.909 C 56.005 29.568, 55 29.593, 55 28.975 C 55 26.923, 52.903 28.124, 51.902 30.750 M 126.605 58.568 C 124.463 59.353, 122.100 60.502, 121.355 61.120 C 119.785 62.424, 119.524 66, 121 66 C 123.107 66, 121.853 68.617, 118.441 71.340 C 110.191 77.923, 112.318 85, 122.547 85 C 124.446 85, 126 85.439, 126 85.975 C 126 86.511, 124.763 86.758, 123.250 86.524 C 121.737 86.289, 118.262 85.846, 115.528 85.538 C 112.034 85.144, 109.418 84.063, 106.732 81.904 C 103.699 79.467, 102.616 79.074, 101.498 80.002 C 100.722 80.646, 99.669 80.913, 99.157 80.597 C 98.645 80.281, 97.675 80.687, 97 81.500 C 96.325 82.313, 95.426 82.763, 95 82.500 C 94.575 82.237, 93.992 82.921, 93.705 84.019 C 93.207 85.926, 96.081 89, 98.362 89 C 98.867 89, 99.779 89.602, 100.390 90.337 C 102.161 92.470, 111.048 94.008, 115.558 92.962 C 117.726 92.459, 121.412 92.037, 123.750 92.024 C 127.195 92.005, 128 92.343, 128 93.812 C 128 94.809, 128.928 97.546, 130.063 99.895 C 132.386 104.703, 132.524 103.691, 126.688 124.794 L 123.289 137.089 125.367 138.544 C 126.510 139.345, 128.512 140, 129.816 140 C 131.346 140, 132.373 140.709, 132.710 142 C 133.157 143.708, 134.074 144, 139 144 C 143.818 144, 144.848 143.688, 145.262 142.106 C 145.559 140.970, 147.042 139.930, 148.969 139.507 C 151.666 138.915, 152.081 138.456, 151.557 136.651 C 150.862 134.258, 150.040 129.572, 146.971 110.500 C 145.821 103.350, 144.493 96.301, 144.021 94.835 C 143.549 93.369, 143.380 91.953, 143.645 91.688 C 143.910 91.424, 146.894 91.852, 150.276 92.641 C 156.630 94.124, 159.203 93.863, 171 90.540 C 174.794 89.471, 175.552 88.837, 175.830 86.499 C 176.083 84.364, 175.812 83.858, 174.653 84.303 C 173.824 84.621, 172.608 84.233, 171.951 83.441 C 171.293 82.648, 169.937 82, 168.937 82 C 167.936 82, 166.827 81.529, 166.471 80.953 C 166.057 80.283, 164.506 80.703, 162.162 82.121 C 159.527 83.714, 156.226 84.499, 150.395 84.918 L 142.290 85.500 142.216 82.902 C 142.162 81.005, 143.337 79.306, 146.571 76.602 C 149.007 74.566, 151 72.101, 151 71.125 C 151 67.721, 146.415 64.699, 140.508 64.209 C 135.658 63.807, 135 63.492, 135 61.576 C 135 59.236, 133.255 56.956, 131.550 57.070 C 130.972 57.109, 128.747 57.783, 126.605 58.568" stroke="none" fill="black" fill-rule="evenodd"/>
</svg>