<svg xmlns="http://www.w3.org/2000/svg" width="192" height="144" viewBox="0 0 192 144" version="1.1">
	<path d="M -0 72.005 L -0 144.010 96.250 143.755 L 192.500 143.500 192.757 71.750 L 193.013 0 96.507 0 L 0 0 -0 72.005 M 0.474 72.500 C 0.474 112.100, 0.598 128.154, 0.750 108.176 C 0.901 88.198, 0.901 55.798, 0.750 36.176 C 0.598 16.554, 0.474 32.900, 0.474 72.500 M 79.116 29.750 C 78.374 31.070, 78.650 32.053, 80.241 33.750 L 82.349 36 79.733 36 C 73.544 36, 76.299 40.162, 86.361 46.011 C 90.134 48.205, 93.509 50.010, 93.861 50.023 C 94.212 50.035, 95.225 51.498, 96.111 53.273 C 97.181 55.415, 98.420 56.476, 99.797 56.427 C 101.172 56.379, 102.071 57.145, 102.460 58.698 C 103.049 61.041, 101.607 65, 100.165 65 C 98.569 65, 97 62.499, 97 59.955 C 97 58.500, 96.194 56.581, 95.209 55.689 C 93.552 54.190, 93.176 54.215, 90.209 56.019 C 85.211 59.059, 86.146 62.995, 92.229 64.521 C 94.359 65.056, 95.062 65.940, 95.474 68.602 C 95.763 70.471, 96.237 73.532, 96.527 75.403 C 96.817 77.275, 97.713 79.059, 98.517 79.368 C 100.054 79.958, 97.453 84.579, 90.629 93.385 L 87.618 97.271 76.059 96.591 C 69.701 96.218, 56.850 95.032, 47.500 93.957 C 28.507 91.774, 19.434 91.488, 18.473 93.044 C 17.244 95.032, 20.865 98.888, 24.492 99.453 C 26.422 99.754, 29.575 100.245, 31.500 100.545 C 33.568 100.867, 35 101.662, 35 102.486 C 35 104.747, 36.782 105.208, 40.425 103.891 C 43.407 102.813, 45.209 103.010, 54.670 105.453 C 60.626 106.991, 66.364 108.700, 67.421 109.251 C 68.903 110.025, 69.646 109.837, 70.675 108.430 C 72.266 106.253, 71.633 105.504, 67 104.083 C 64.219 103.231, 65.807 103.115, 74.732 103.522 C 80.909 103.803, 87.997 104.312, 90.482 104.653 C 94.622 105.220, 95 105.507, 95 108.086 C 95 112.263, 97.173 112.905, 109.174 112.272 C 121.070 111.644, 120.349 111.242, 121.220 118.990 C 121.605 122.418, 124.578 122.816, 125.398 119.550 C 126.245 116.175, 127.184 116.363, 129 120.272 C 130.104 122.649, 131.159 123.500, 133 123.500 C 135.367 123.500, 135.493 123.220, 135.362 118.250 L 135.225 113 138.862 112.926 C 140.863 112.885, 143.593 112.650, 144.929 112.405 C 146.265 112.159, 149.415 112.636, 151.929 113.464 C 154.443 114.293, 161.675 115.862, 168 116.952 C 174.325 118.041, 181.969 119.848, 184.986 120.966 C 188.003 122.085, 190.816 123, 191.236 123 C 191.656 123, 192 115.394, 192 106.098 L 192 89.196 186.250 88.544 C 181.219 87.973, 175.412 88.419, 158.340 90.687 C 155.333 91.087, 153.532 90.770, 151.840 89.544 C 149.540 87.878, 149.590 87.855, 154.751 88.175 C 159.209 88.451, 160.001 88.236, 160.001 86.750 C 160 85.787, 159.438 84.991, 158.750 84.980 C 156.997 84.952, 144.065 83.111, 140.750 82.417 C 138.157 81.874, 138 81.530, 138 76.389 C 138 70.228, 137.085 69.386, 131.525 70.429 C 128.070 71.077, 125.581 72.836, 124.726 75.232 C 124.114 76.949, 123.357 76.100, 121.466 71.574 L 119.869 67.750 122.371 68.378 C 123.747 68.724, 127.597 68.371, 130.927 67.594 C 134.256 66.817, 137.793 66.395, 138.787 66.655 C 141.626 67.397, 141.155 61.885, 138.256 60.440 C 137.022 59.825, 136.307 59.026, 136.668 58.665 C 137.029 58.304, 135.867 57.501, 134.085 56.880 C 131.395 55.942, 130.943 55.362, 131.420 53.462 C 132.207 50.327, 127.622 46.588, 121.058 45.014 C 116.210 43.851, 116 43.659, 116 40.400 C 116 36.457, 118.033 35.932, 123.116 38.560 C 124.775 39.418, 127.279 39.981, 128.680 39.810 C 130.976 39.530, 130.568 39.027, 124.524 34.691 C 120.838 32.047, 116.708 29.459, 115.346 28.941 C 109.305 26.645, 100.959 28.694, 97.274 33.379 C 95.939 35.076, 94.239 36, 92.451 36 C 89.783 36, 89.749 35.935, 91.443 34.063 C 94.046 31.186, 92.466 29.687, 87.427 30.255 C 84.345 30.603, 82.965 30.350, 82.589 29.371 C 81.864 27.482, 80.294 27.654, 79.116 29.750 M 104.367 80.750 C 103.998 82.263, 101.965 85.936, 99.848 88.913 C 96.316 93.882, 94.907 98.010, 96.750 97.993 C 99.396 97.970, 108.418 89.410, 109.548 85.850 C 110.126 84.026, 107.252 78, 105.803 78 C 105.383 78, 104.736 79.237, 104.367 80.750 M 136.597 87.843 C 136.004 88.803, 139.382 90.434, 144.399 91.611 C 146.534 92.112, 147.102 91.973, 146.552 91.084 C 145.292 89.045, 137.435 86.487, 136.597 87.843" stroke="none" fill="black" fill-rule="evenodd"/>
</svg>