<svg xmlns="http://www.w3.org/2000/svg" width="192" height="144" viewBox="0 0 192 144" version="1.1">
	<path d="M 0 37.514 L 0 75.028 4 72.381 C 6.200 70.925, 8 69.379, 8 68.945 C 8 68.510, 9.687 67.612, 11.750 66.947 C 13.813 66.283, 15.950 65.399, 16.500 64.983 C 17.050 64.567, 20.925 62.810, 25.112 61.078 C 34.421 57.226, 39.821 52.750, 43.919 45.490 C 47.350 39.410, 53.169 32.539, 56.414 30.736 C 57.561 30.098, 60.750 29.334, 63.500 29.038 C 67.786 28.577, 68.547 28.167, 68.830 26.168 C 69.012 24.885, 68.377 22.969, 67.420 21.911 C 65.174 19.430, 66.279 18.350, 69.543 19.838 C 74.750 22.210, 77.194 21.395, 82.500 15.515 C 85.566 12.117, 88.783 9.612, 90.816 9.038 C 94.989 7.860, 94.624 8.844, 89.226 13.330 L 84.951 16.883 89.226 17.191 C 94.488 17.571, 94.635 19.282, 89.477 20.120 C 84.196 20.978, 82.674 23.259, 84.838 27.074 C 85.752 28.686, 87.287 30.259, 88.250 30.570 C 91.300 31.554, 90.374 34.025, 87.194 33.389 C 83.374 32.625, 81.020 35.234, 83.241 37.769 C 86.106 41.037, 88 45.905, 88 49.998 C 88 54.895, 84.114 59.142, 80 58.743 C 78.176 58.566, 77.498 58.984, 77.491 60.292 C 77.486 61.277, 77.009 62.402, 76.429 62.792 C 75.850 63.181, 74.822 66.031, 74.145 69.125 C 72.891 74.848, 73.255 76.670, 77.190 84.346 C 77.875 85.681, 77.676 86.701, 76.470 88.033 C 74.610 90.089, 75.245 92, 77.790 92 C 80.523 92, 90.016 87.719, 89.841 86.565 C 89.752 85.979, 90.228 84.163, 90.899 82.528 C 91.763 80.424, 91.821 78.902, 91.097 77.314 C 89.836 74.545, 90.308 74.253, 96.214 74.154 C 101.200 74.070, 103.123 75.272, 100.423 76.783 C 98.955 77.605, 98.997 78.091, 100.877 81.981 C 102.017 84.341, 102.756 86.586, 102.519 86.970 C 102.281 87.354, 104.430 88.595, 107.294 89.728 C 116.030 93.183, 116 93.180, 116 90.669 C 116 89.421, 115.479 87.879, 114.842 87.242 C 114.049 86.449, 114.004 85.678, 114.697 84.792 C 117.308 81.460, 117.982 76.777, 116.843 69.880 C 116.218 66.096, 115.400 63, 115.024 63 C 114.648 63, 114.377 61.987, 114.421 60.750 C 114.479 59.096, 114.012 58.583, 112.657 58.815 C 111.643 58.989, 109.284 58.089, 107.414 56.815 C 104.818 55.048, 104.013 53.790, 104.012 51.500 C 104.010 46.207, 106.041 40.961, 109.629 36.989 C 113.052 33.200, 113.090 33.066, 111.436 30.542 C 110.336 28.864, 109.355 28.275, 108.624 28.854 C 107.895 29.431, 106.701 28.756, 105.225 26.934 C 102.964 24.141, 102.963 24.113, 104.923 22.286 C 106.315 20.990, 106.621 20.015, 105.963 18.974 C 105.450 18.163, 105.024 16.882, 105.015 16.128 C 105.002 14.964, 105.254 14.964, 106.664 16.128 C 108.178 17.377, 108.216 17.290, 107.083 15.164 C 106.398 13.880, 106.055 12.612, 106.320 12.347 C 106.757 11.909, 113.054 20.324, 117.492 27.276 C 118.774 29.284, 119.794 29.883, 121.182 29.442 C 124.671 28.335, 131.731 28.809, 134.714 30.352 C 138.364 32.240, 144.025 38.437, 148.525 45.472 C 153.870 53.828, 157.009 55.461, 172.500 57.949 C 175.250 58.391, 180.076 59.708, 183.225 60.876 C 186.374 62.044, 189.614 63, 190.425 63 C 191.512 63, 191.995 64.512, 192.261 68.750 C 192.459 71.912, 192.707 57.738, 192.811 37.250 L 193 0 96.500 0 L 0 0 0 37.514 M 0.453 38 C 0.453 58.625, 0.586 67.063, 0.749 56.750 C 0.911 46.438, 0.911 29.563, 0.749 19.250 C 0.586 8.938, 0.453 17.375, 0.453 38 M 145.340 86.332 C 145.703 87.339, 146 88.524, 146 88.965 C 146 89.406, 146.900 90.002, 148 90.290 C 150.741 91.007, 150.507 89.811, 147.340 86.924 C 145.198 84.972, 144.808 84.857, 145.340 86.332 M 149.250 92.662 C 148.563 92.940, 148 94.254, 148 95.583 C 148 97.736, 148.437 98, 152 98 C 156.524 98, 156.614 97.867, 154.385 94.465 C 152.796 92.040, 151.725 91.664, 149.250 92.662 M 161 95 C 161 95.550, 161.787 96.018, 162.750 96.040 C 165.392 96.100, 159.471 99.057, 153.613 100.602 C 147.706 102.160, 147.066 103.009, 147.750 108.377 C 148.751 116.229, 150.149 117.676, 159.489 120.525 C 169.102 123.457, 175.518 127.918, 182.104 136.251 C 186.990 142.433, 189.535 144.392, 191.630 143.588 C 192.963 143.077, 193.127 140.009, 192.865 120.545 C 192.698 108.195, 192.309 98.499, 192.001 98.999 C 191.692 99.498, 187.212 98.581, 182.045 96.962 C 176.878 95.342, 172.496 94.171, 172.307 94.359 C 172.119 94.548, 174.672 96.146, 177.982 97.910 C 181.292 99.674, 184 101.280, 184 101.478 C 184 102.078, 176.683 99.873, 173.870 98.426 C 171.046 96.973, 162.984 94.039, 161.750 94.015 C 161.338 94.007, 161 94.450, 161 95 M 0.500 96 C 0.160 96.550, 0.332 97, 0.882 97 C 1.432 97, 2.160 96.550, 2.500 96 C 2.840 95.450, 2.668 95, 2.118 95 C 1.568 95, 0.840 95.450, 0.500 96 M 30.028 97.549 L 26.556 100 29.278 100 C 30.775 100, 32 99.487, 32 98.860 C 32 98.233, 32.788 97.123, 33.750 96.392 C 36.893 94.006, 33.593 95.032, 30.028 97.549 M 38.913 97.250 C 37.957 99.107, 37.986 99.282, 39.078 98.250 C 39.805 97.563, 41.210 97, 42.200 97 C 43.190 97, 44 96.550, 44 96 C 44 94.060, 40.055 95.029, 38.913 97.250 M 80.500 100.030 C 76.650 102.200, 73.083 104.120, 72.573 104.297 C 72.063 104.473, 71.948 105.107, 72.317 105.705 C 73.115 106.995, 88.016 102.572, 89.213 100.690 C 90.405 98.814, 90.125 95.996, 88.750 96.042 C 88.063 96.066, 84.350 97.860, 80.500 100.030 M 102.015 97.750 C 102.043 100.933, 103.569 102.022, 111.376 104.430 C 120.841 107.351, 120.868 106.052, 111.463 100.250 C 103.931 95.603, 101.992 95.090, 102.015 97.750 M 1.507 98.989 C 1.157 99.555, 1.558 99.723, 2.448 99.382 C 4.180 98.717, 4.497 98, 3.059 98 C 2.541 98, 1.843 98.445, 1.507 98.989 M 10.500 104.034 C 4.370 108.045, 2.340 108.877, 3.580 106.870 C 4.004 106.185, 3.732 105.922, 2.889 106.203 C 1.783 106.571, 1.445 110.469, 1.228 125.333 L 0.956 144 11.814 144 L 22.673 144 28.003 134.995 C 30.935 130.042, 35.294 123.693, 37.689 120.887 C 43.236 114.389, 43.771 113.338, 44.003 108.491 C 44.309 102.089, 44.264 101.997, 41.094 102.631 C 39.496 102.951, 35.042 102.682, 31.197 102.033 C 23.643 100.759, 24.220 100.599, 13 107.070 C 9.670 108.990, 9.707 108.912, 13.750 105.461 C 17.667 102.119, 19.089 99.922, 17.250 100.054 C 16.837 100.084, 13.800 101.875, 10.500 104.034 M 93.500 106.672 C 91.754 109.873, 90.167 110.894, 81 114.712 C 74.364 117.476, 69.672 118.879, 68.250 118.524 C 66.530 118.094, 66 118.394, 66 119.797 C 66 122.632, 67.977 132.920, 69.642 138.750 L 71.142 144 97.442 144 L 123.742 144 124.339 138.250 C 124.667 135.088, 125.236 129.214, 125.602 125.197 L 126.269 117.894 123.884 118.490 C 122.293 118.888, 118.009 117.632, 111 114.712 C 101.833 110.894, 100.246 109.873, 98.500 106.672 C 97.400 104.655, 96.275 103.005, 96 103.005 C 95.725 103.005, 94.600 104.655, 93.500 106.672" stroke="none" fill="black" fill-rule="evenodd"/>
</svg>