<svg xmlns="http://www.w3.org/2000/svg" width="192" height="144" viewBox="0 0 192 144" version="1.1">
	<path d="M 17.634 6.250 C 17.966 9.688, 18.554 15.313, 18.940 18.750 L 19.642 25 15.290 25 C 10.048 25, 9.265 26.338, 11.150 32.080 C 12.565 36.392, 14.468 37.069, 14.546 33.288 C 14.641 28.672, 17.437 30.110, 18.370 35.255 C 18.638 36.736, 20.110 39.588, 21.639 41.594 L 24.421 45.241 22.257 46.993 C 20.961 48.042, 18.272 48.781, 15.550 48.836 C 10.467 48.938, 7 50.390, 7 52.416 C 7 53.156, 9.440 54.996, 12.423 56.505 C 16.333 58.484, 18.027 59.981, 18.494 61.874 C 19.467 65.815, 23.915 70, 27.128 70 C 28.643 70, 30.163 69.546, 30.506 68.991 C 30.849 68.436, 32.788 67.105, 34.815 66.035 L 38.500 64.088 35.309 64.044 C 31.632 63.993, 30.874 63.197, 31.656 60.207 C 32.240 57.976, 33.040 57.590, 39.250 56.542 C 43.627 55.804, 44.279 53.437, 40.500 52 C 36.924 50.640, 37.367 48.866, 42.789 42.831 C 48.113 36.906, 51.352 30.507, 50.838 26.931 C 50.559 24.986, 49.851 24.543, 46.750 24.371 C 44.529 24.248, 43 24.619, 43 25.282 C 43 26.094, 42.688 26.088, 41.861 25.261 C 41.009 24.409, 40.294 24.651, 39.023 26.220 C 36.359 29.510, 35.090 27.671, 35.610 21.273 C 36.124 14.949, 37.499 12.310, 43.750 5.647 C 46.087 3.156, 48 0.866, 48 0.559 C 48 0.251, 41.032 0, 32.515 0 L 17.031 0 17.634 6.250 M 111.630 2.250 C 111.299 3.488, 111.021 35.888, 111.014 74.250 L 111 144 139.383 144 L 167.767 144 168.370 141.750 C 169.563 137.299, 169.204 136.935, 165.405 138.747 C 161.951 140.394, 161.755 140.385, 160.405 138.539 C 158.433 135.842, 158.658 130.403, 160.996 124.250 C 162.094 121.362, 162.745 119, 162.443 119 C 162.141 119, 160.238 120.125, 158.215 121.500 C 153.430 124.751, 147 125.010, 147 121.950 C 147 119.339, 149.662 114.118, 152.389 111.382 C 153.550 110.217, 156.870 107.812, 159.766 106.036 C 164.948 102.860, 167.597 99.775, 166.570 98.113 C 166.282 97.648, 166.974 96.429, 168.106 95.404 C 169.239 94.379, 170.760 92.117, 171.487 90.376 C 172.745 87.367, 173.047 87.227, 177.655 87.517 C 182.098 87.796, 182.683 88.140, 184.707 91.661 C 187.757 96.967, 187.566 98.256, 183.139 102.255 L 179.278 105.744 184.389 109.694 C 187.200 111.866, 190.063 113.976, 190.750 114.381 C 191.744 114.967, 192 103.333, 192 57.559 L 192 0 152.117 0 L 112.233 0 111.630 2.250 M 28.079 28.583 C 28.127 29.748, 28.364 29.985, 28.683 29.188 C 28.972 28.466, 28.936 27.603, 28.604 27.271 C 28.272 26.939, 28.036 27.529, 28.079 28.583 M 174.158 122 C 174.158 123.375, 174.385 123.938, 174.662 123.250 C 174.940 122.563, 174.940 121.438, 174.662 120.750 C 174.385 120.063, 174.158 120.625, 174.158 122 M 187.662 124.750 C 187.411 125.162, 187.585 129.100, 188.049 133.500 C 188.513 137.900, 188.916 142.063, 188.946 142.750 C 188.976 143.438, 189.675 144, 190.500 144 C 191.733 144, 192 142.222, 192 134 C 192 124.768, 191.851 124, 190.059 124 C 188.991 124, 187.913 124.338, 187.662 124.750" stroke="none" fill="black" fill-rule="evenodd"/>
</svg>