<svg xmlns="http://www.w3.org/2000/svg" width="192" height="144" viewBox="0 0 192 144" version="1.1">
	<path d="M 0 72 L 0 144 40.951 144 L 81.903 144 81.355 135.750 C 81.021 130.727, 81.473 121.828, 82.510 113 C 85.040 91.465, 85.301 84.446, 83.944 74.500 C 81.805 58.830, 82.428 53.735, 87.352 46.597 L 89.354 43.694 86.677 41.559 C 85.205 40.385, 84 38.879, 84 38.212 C 84 37.546, 82.930 37, 81.622 37 C 80.315 37, 78.654 36.288, 77.932 35.418 C 76.060 33.162, 76.719 25.928, 79.020 23.479 C 80.256 22.163, 80.724 20.662, 80.348 19.223 C 79.999 17.889, 80.221 17, 80.902 17 C 81.632 17, 81.800 16.052, 81.373 14.351 C 80.928 12.577, 81.063 11.921, 81.783 12.366 C 82.404 12.750, 82.993 12.075, 83.179 10.765 C 83.482 8.629, 83.764 8.743, 88.112 12.750 C 90.648 15.087, 93.400 17, 94.227 17 C 96.474 17, 100.827 20.764, 102.645 24.280 C 103.527 25.987, 105.314 30.513, 106.616 34.340 C 107.917 38.166, 110.313 43.371, 111.940 45.907 C 117.374 54.374, 118.926 59.079, 119.088 67.573 C 119.262 76.661, 118.307 82.836, 116.438 84.705 C 114.623 86.520, 114.313 86.366, 113.494 83.250 C 112.846 80.785, 112.696 80.703, 112.048 82.463 C 111.378 84.282, 111.187 84.215, 109.438 81.545 L 107.551 78.666 106.934 81.083 C 106.595 82.412, 106.875 84.626, 107.557 86.003 C 108.355 87.616, 109.146 97.744, 109.782 114.503 C 110.324 128.801, 111.095 141.293, 111.495 142.261 C 112.175 143.908, 114.836 144.005, 152.361 143.761 L 192.500 143.500 192.757 71.750 L 193.013 0 96.507 0 L 0 0 0 72 M 0.474 72.500 C 0.474 112.100, 0.598 128.154, 0.750 108.176 C 0.901 88.198, 0.901 55.798, 0.750 36.176 C 0.598 16.554, 0.474 32.900, 0.474 72.500 M 85.015 74.191 C 85.007 76.221, 85.450 78.160, 86 78.500 C 87.290 79.297, 87.290 73.996, 86 72 C 85.277 70.882, 85.027 71.440, 85.015 74.191" stroke="none" fill="black" fill-rule="evenodd"/>
</svg>