<svg xmlns="http://www.w3.org/2000/svg" width="192" height="144" viewBox="0 0 192 144" version="1.1">
	<path d="M 0 2.500 C 0 5.691, 1.174 5.687, 2.656 2.492 C 3.671 0.303, 3.580 -0, 1.906 -0 C 0.540 -0, 0 0.708, 0 2.500 M 128 0.695 C 128 1.078, 129.090 2.540, 130.423 3.945 C 133.938 7.651, 140.676 20.688, 142.080 26.500 C 142.744 29.250, 143.731 32.366, 144.272 33.424 C 144.814 34.482, 145.211 41.760, 145.154 49.596 C 145.069 61.348, 144.675 64.953, 142.906 70.172 C 139.116 81.347, 134.997 90.067, 131.855 93.564 C 130.835 94.700, 130 95.977, 130 96.403 C 130 97.212, 124.646 103.295, 119.501 108.332 C 117.851 109.947, 113.801 112.991, 110.501 115.098 C 107.200 117.204, 104.050 119.303, 103.500 119.762 C 101.893 121.103, 89.143 125.999, 87.239 126.006 C 86.283 126.010, 84.211 126.685, 82.636 127.506 C 80.538 128.600, 76.407 129, 67.207 129 C 54.152 129, 53.660 128.919, 40.460 124.619 C 36.039 123.179, 31.038 122, 29.348 122 C 27.432 122, 24.811 120.846, 22.388 118.936 C 17.928 115.422, 14 111.414, 14 110.379 C 14 109.989, 11.412 106.918, 8.250 103.556 C 5.087 100.193, 1.964 96.555, 1.309 95.471 C 0.366 93.910, 0.105 98.759, 0.059 118.750 L 0 144 95.941 144 C 153.385 144, 192.111 143.630, 192.452 143.078 C 192.765 142.571, 192.718 110.171, 192.347 71.078 L 191.672 0 159.836 0 C 142.326 0, 128 0.313, 128 0.695 M 0.435 119 C 0.435 133.025, 0.575 138.763, 0.747 131.750 C 0.919 124.738, 0.919 113.263, 0.747 106.250 C 0.575 99.238, 0.435 104.975, 0.435 119" stroke="none" fill="black" fill-rule="evenodd"/>
</svg>