<svg xmlns="http://www.w3.org/2000/svg" width="192" height="144" viewBox="0 0 192 144" version="1.1">
	<path d="M 0 35.500 L 0 71 7.364 71 C 11.413 71, 16.926 71.413, 19.614 71.919 C 48.071 77.268, 88.845 80.682, 99 78.565 C 108.067 76.675, 110 75.900, 110 74.150 C 110 72.752, 108.309 71.993, 102 70.561 C 93.626 68.661, 92.578 67.597, 96.014 64.487 C 97.283 63.339, 97.809 61.973, 97.435 60.794 C 97.003 59.436, 98.504 57.148, 102.924 52.422 C 106.269 48.846, 109.640 44.926, 110.415 43.710 C 112.422 40.564, 112.916 35.030, 111.728 29.021 C 110.934 25.008, 110.172 23.636, 108.351 22.944 C 107.058 22.452, 106 21.609, 106 21.072 C 106 20.534, 103.895 19.163, 101.323 18.025 C 95.731 15.551, 95.699 15.582, 93.389 25.901 C 92.219 31.128, 91.915 35.462, 92.354 40.658 C 92.706 44.820, 92.500 50.234, 91.880 53.123 C 91.091 56.804, 91.088 58.898, 91.871 60.616 C 93.131 63.382, 91.569 63.931, 90.123 61.230 C 89.602 60.257, 88.853 52.252, 88.458 43.442 C 87.854 29.942, 88.022 26.094, 89.529 18.962 C 90.513 14.308, 91.416 10.368, 91.536 10.206 C 91.656 10.045, 94.372 11.489, 97.572 13.417 C 101.925 16.039, 103.718 16.649, 104.695 15.838 C 105.413 15.243, 106 14.185, 106 13.488 C 106 12.792, 106.839 11.185, 107.865 9.918 C 110.569 6.579, 117.049 6.389, 120.459 9.549 C 123.563 12.427, 123.645 14.209, 120.843 17.999 C 118.334 21.392, 119.271 23.414, 123.782 24.341 C 135.244 26.697, 141 28.489, 141 29.702 C 141 32.001, 138.190 32.305, 133.234 30.543 C 124.558 27.459, 124.630 27.449, 123.250 31.919 C 121.587 37.307, 121.571 37.183, 124.913 44.832 C 128.528 53.107, 129.860 60.850, 127.880 62.074 C 126.414 62.980, 125.826 72, 127.233 72 C 127.666 72, 135.329 69.943, 144.261 67.430 C 155.371 64.303, 162.489 62.842, 166.798 62.805 L 173.095 62.750 176.926 57.125 C 181.671 50.157, 184.469 47.582, 186.463 48.347 C 189.579 49.543, 187.896 53.978, 179.695 66.181 C 165.601 87.153, 158.301 96.509, 149.738 104.574 C 132.261 121.034, 128.794 122.789, 122.099 118.562 C 119.866 117.153, 117.018 115.995, 115.770 115.988 C 111.634 115.967, 103.187 113.253, 97.806 110.218 C 92.903 107.452, 91.551 107.186, 80 106.716 C 73.125 106.435, 65.227 105.653, 62.448 104.977 C 57.725 103.828, 56.694 103.963, 46.635 107.052 C 36.815 110.067, 35.551 110.243, 32.187 109.065 C 25.052 106.565, 16.443 102.079, 11.069 98.061 C 7.721 95.557, 4.558 94, 2.819 94 L 0 94 -0 119.005 L -0 144.010 96.250 143.755 L 192.500 143.500 192.707 71.750 L 192.914 -0 96.457 -0 L 0 0 0 35.500 M 0.451 36 C 0.451 55.525, 0.585 63.513, 0.748 53.750 C 0.912 43.988, 0.912 28.013, 0.748 18.250 C 0.585 8.488, 0.451 16.475, 0.451 36 M 0.435 119 C 0.435 133.025, 0.575 138.763, 0.747 131.750 C 0.919 124.738, 0.919 113.263, 0.747 106.250 C 0.575 99.238, 0.435 104.975, 0.435 119" stroke="none" fill="black" fill-rule="evenodd"/>
</svg>