<svg xmlns="http://www.w3.org/2000/svg" width="192" height="144" viewBox="0 0 192 144" version="1.1">
	<path d="M 114 0.540 C 114 0.837, 114.900 2.844, 116 5 C 118.436 9.776, 118.447 9.998, 116.250 10.010 C 113.151 10.027, 104.344 14.695, 99.942 18.653 C 94.923 23.166, 90 30.510, 90 33.484 C 90 34.635, 89.169 37.207, 88.154 39.198 C 86.824 41.807, 86.684 42.675, 87.654 42.303 C 88.630 41.928, 89 42.787, 89 45.428 C 89 47.431, 89.749 50.214, 90.665 51.611 C 92.627 54.606, 98.971 59.136, 100.167 58.397 C 101.896 57.328, 100.913 61.464, 98.939 63.565 L 96.878 65.759 99.439 67.773 C 100.848 68.881, 102 70.480, 102 71.327 C 102 72.173, 102.900 73.151, 104 73.500 C 105.100 73.849, 106.010 74.667, 106.022 75.317 C 106.034 75.968, 106.924 77.625, 108 79 C 109.076 80.375, 109.966 82.441, 109.978 83.590 C 109.990 84.740, 110.900 89.199, 112 93.500 C 114.484 103.213, 114.491 103.096, 111.334 105.398 C 108.746 107.285, 108.721 107.283, 106.797 104.898 C 101.419 98.230, 99 93.473, 98.994 89.554 C 98.986 83.793, 97.262 78.323, 94.701 75.934 C 92.951 74.301, 91.391 73.932, 87.080 74.131 C 82.509 74.341, 81.541 74.076, 80.900 72.440 C 80.234 70.738, 80.132 70.808, 80.070 73.006 C 80.014 75.012, 79.008 75.967, 75.029 77.792 C 70.689 79.783, 69.915 80.603, 68.935 84.240 C 66.615 92.858, 71.743 105.431, 78.649 108.057 L 80.922 108.921 78.978 113.316 C 77.794 115.994, 76.644 121.968, 76.035 128.606 C 75.485 134.598, 74.750 140.512, 74.401 141.750 C 73.767 143.998, 73.779 144, 86.367 144 L 98.966 144 101.405 139.187 C 105.405 131.293, 106.701 130.981, 106.191 138.034 L 105.760 144 142.130 143.927 C 175.150 143.861, 178.776 143.690, 181.500 142.072 C 183.164 141.083, 184.377 139.590, 184.223 138.720 C 184.071 137.857, 184.409 136.865, 184.973 136.516 C 185.538 136.167, 186 135.410, 186 134.833 C 186 133.144, 181.280 134.785, 176.796 138.032 C 174.543 139.665, 172.108 141, 171.385 141 C 169.316 141, 167.892 137.426, 164.815 124.515 C 163.241 117.907, 161.709 111.715, 161.411 110.756 C 160.310 107.214, 164.104 110.220, 165.669 114.130 C 166.520 116.259, 167.604 118, 168.077 118 C 168.550 118, 168.764 117.438, 168.552 116.750 C 168.340 116.063, 167.897 112.881, 167.567 109.681 C 167.117 105.325, 167.265 104.046, 168.153 104.595 C 168.992 105.113, 169.120 104.768, 168.588 103.414 C 168.174 102.361, 167.623 99.025, 167.363 96 L 166.891 90.500 170.320 97.613 C 174.412 106.103, 176.374 107.894, 174.402 101.339 C 172.208 94.050, 172.756 93.091, 176.149 98.279 C 177.868 100.908, 179.477 102.856, 179.725 102.609 C 179.972 102.361, 179.710 99.760, 179.142 96.829 C 178.574 93.898, 177.834 86.325, 177.498 80 C 176.315 57.739, 173.326 41.509, 168.330 30.211 C 166.946 27.083, 165.135 22.493, 164.304 20.012 C 161.301 11.039, 154.661 5.011, 147.773 5.004 C 144.904 5.001, 143.669 4.425, 142.408 2.500 C 140.796 0.039, 140.559 0, 127.385 0 C 120.023 0, 114 0.243, 114 0.540" stroke="none" fill="black" fill-rule="evenodd"/>
</svg>