<svg xmlns="http://www.w3.org/2000/svg" width="192" height="144" viewBox="0 0 192 144" version="1.1">
	<path d="M 0 38 C 0 58.900, 0.234 76, 0.520 76 C 1.745 76, 8.932 70.854, 14.240 66.177 L 19.980 61.120 28.375 64.998 C 32.992 67.132, 39.184 70.367, 42.135 72.189 C 47.480 75.488, 47.549 75.500, 60.843 75.585 L 74.186 75.670 77.343 71.375 C 79.134 68.940, 82.698 65.909, 85.579 64.373 C 89.782 62.132, 90.584 61.274, 90.226 59.400 C 89.633 56.301, 87.351 55.634, 86.531 58.319 C 86.151 59.564, 85.652 59.987, 85.368 59.306 C 85.095 58.650, 84.225 58.360, 83.435 58.663 C 82.436 59.047, 82 58.490, 82 56.829 C 82 53.981, 79.248 49.729, 77.932 50.542 C 77.419 50.859, 77 50.641, 77 50.059 C 77 49.477, 76.315 49, 75.477 49 C 74.128 49, 74.134 48.725, 75.531 46.593 C 76.496 45.121, 76.726 43.949, 76.123 43.576 C 75.582 43.241, 74.857 43.423, 74.512 43.980 C 74.112 44.628, 72.785 44.423, 70.829 43.412 L 67.772 41.831 71.090 38.407 C 74.200 35.199, 74.415 34.528, 74.507 27.742 C 74.697 13.797, 79.169 10.294, 96.948 10.168 C 109.052 10.082, 112.822 11.357, 116.088 16.643 C 117.842 19.480, 118.462 19.861, 119.681 18.850 C 120.859 17.872, 121.834 17.994, 124.558 19.462 C 128.731 21.709, 130.778 24.708, 132.397 30.950 C 133.479 35.120, 133.425 35.992, 131.975 37.783 C 130.422 39.701, 130.435 40.318, 132.178 47.168 C 133.232 51.313, 133.778 55.804, 133.434 57.500 C 132.664 61.296, 129.066 69, 128.064 69 C 123.763 69, 119.432 56.130, 120.470 46.434 C 121.204 39.580, 119.841 37.060, 117.810 41.518 C 116.939 43.430, 116.907 44.622, 117.694 45.882 C 119.114 48.156, 117.018 52.618, 115.325 50.925 C 114.533 50.133, 113.785 50.468, 112.616 52.138 C 111.727 53.407, 111 55.039, 111 55.764 C 111 56.490, 110.100 58.050, 109 59.230 L 107 61.377 107 58.034 C 107 54.729, 106.976 54.712, 104.956 56.540 C 102.067 59.154, 102.893 62.106, 107.185 64.508 C 109.211 65.642, 112.776 68.913, 115.105 71.778 C 119.145 76.743, 119.555 76.979, 123.921 76.858 C 126.439 76.787, 130.669 77.249, 133.320 77.885 C 139.230 79.301, 143.320 78.348, 153.963 73.072 C 158.108 71.017, 164.105 68.301, 167.288 67.036 L 173.077 64.737 180.288 71.711 C 184.255 75.547, 188.453 79.191, 189.619 79.808 C 191.603 80.859, 191.778 80.637, 192.369 76.325 C 192.716 73.793, 193 55.584, 193 35.860 L 193 0 96.500 0 L 0 0 0 38 M 0.454 38.500 C 0.453 59.400, 0.586 68.092, 0.748 57.816 C 0.911 47.540, 0.911 30.440, 0.749 19.816 C 0.587 9.192, 0.454 17.600, 0.454 38.500 M 18.085 68.409 L 15.903 70.732 18.303 73.616 C 19.623 75.202, 21.220 77.483, 21.851 78.684 C 23.226 81.297, 23.428 99.382, 22.074 98.545 C 21.564 98.231, 19.105 94.227, 16.610 89.649 C 12.745 82.558, 12.163 80.768, 12.684 77.558 L 13.296 73.791 8.148 77.489 C 5.317 79.523, 3 81.347, 3 81.542 C 3 81.737, 4.059 83.040, 5.354 84.437 C 7.144 86.368, 7.862 88.600, 8.347 93.739 C 9.229 103.074, 9.157 108, 8.139 108 C 7.666 108, 5.840 105.300, 4.081 102 C 2.322 98.700, 0.684 96, 0.441 96 C 0.199 96, 0 106.800, 0 120 L 0 144 35.279 144 L 70.557 144 72.414 136.750 C 73.435 132.762, 75.260 127.250, 76.470 124.500 C 78.774 119.260, 80.521 105.440, 78.998 104.499 C 78.513 104.199, 77.355 105.558, 76.424 107.519 C 74.090 112.438, 55.489 124.776, 44.072 128.979 C 34.862 132.369, 32.500 132.328, 25.500 128.660 L 21.500 126.563 27.500 125.908 C 33.944 125.203, 38.407 123.769, 39.462 122.062 C 39.844 121.444, 39.257 121, 38.059 121 C 36.927 121, 36 120.559, 36 120.019 C 36 118.534, 40.614 117.685, 45.279 118.311 C 49.180 118.834, 49.859 118.524, 56.219 113.321 C 59.949 110.270, 63 107.548, 63 107.272 C 63 106.997, 61.581 102.294, 59.846 96.821 C 56.826 87.294, 56.759 86.728, 58.281 83.537 C 59.155 81.704, 59.600 79.933, 59.269 79.602 C 58.938 79.271, 56.664 79, 54.217 79 C 50.034 79, 49.814 79.135, 50.559 81.250 C 51.923 85.123, 52.291 105.264, 50.990 104.830 C 50.364 104.621, 48.115 100.303, 45.993 95.235 C 42.721 87.419, 42.276 85.524, 43.067 82.766 C 44.505 77.752, 44.302 77.261, 39.662 74.542 C 34.235 71.361, 33.341 71.345, 35.385 74.465 C 36.602 76.323, 37 79.416, 37 87.024 C 37 93.299, 36.633 96.891, 36.029 96.518 C 35.495 96.188, 33.149 92.121, 30.817 87.480 C 26.856 79.600, 26.646 78.777, 27.647 75.027 C 28.824 70.620, 28.667 70.350, 23.384 67.668 C 20.402 66.155, 20.173 66.187, 18.085 68.409 M 166.732 72.077 C 163.524 73.770, 163.116 74.348, 163.982 75.967 C 164.542 77.013, 165 79.024, 165 80.436 C 165 83.101, 157.082 99, 155.754 99 C 155.339 99, 155 94.648, 155 89.329 C 155 81.720, 155.354 79.266, 156.661 77.823 C 159.409 74.786, 157.379 74.588, 152.545 77.421 C 147.492 80.382, 147.596 80.156, 149.040 85.007 C 149.979 88.161, 149.667 89.349, 145.834 97.250 C 143.499 102.063, 141.231 106, 140.794 106 C 140.357 106, 140.014 101.612, 140.032 96.250 C 140.055 89.187, 140.476 85.955, 141.558 84.522 C 142.905 82.741, 142.877 82.475, 141.277 81.843 C 138.734 80.838, 133 80.844, 133 81.851 C 133 82.319, 133.473 84.060, 134.052 85.719 C 134.946 88.285, 134.609 89.971, 131.802 96.970 C 129.986 101.497, 128.050 105.269, 127.500 105.351 C 126.950 105.433, 126.111 101.721, 125.635 97.102 C 124.920 90.161, 125.051 88.117, 126.385 85.318 C 128.474 80.939, 128.492 81, 125.108 81 C 122.883 81, 122.077 81.558, 121.609 83.421 C 121.275 84.752, 121.292 86.597, 121.647 87.521 C 122.001 88.446, 121.750 89.536, 121.089 89.945 C 119.100 91.174, 121.689 103.763, 124.208 105.111 C 125.305 105.698, 129.231 108.389, 132.933 111.089 C 138.119 114.873, 140.512 116, 143.364 116 C 147.586 116, 154 118.381, 154 119.949 C 154 120.527, 153.073 121, 151.941 121 C 150.695 121, 150.151 121.435, 150.564 122.103 C 151.677 123.905, 161.262 127.977, 164.500 128.024 L 167.500 128.067 165.139 130.033 C 160.755 133.686, 156.619 132.691, 138.814 123.703 C 119.343 113.873, 116.228 111.789, 114.373 107.351 C 113.603 105.508, 112.715 104, 112.400 104 C 112.085 104, 112.048 107.353, 112.318 111.452 C 112.655 116.565, 113.638 120.714, 115.450 124.671 C 116.902 127.842, 118.508 132.305, 119.020 134.587 C 119.531 136.870, 120.400 139.921, 120.950 141.369 L 121.950 144 156.975 144 L 192 144 192 120.941 C 192 105.749, 191.657 98.094, 190.995 98.503 C 190.442 98.845, 188.152 101.831, 185.906 105.139 C 183.659 108.447, 181.628 110.962, 181.393 110.726 C 181.158 110.491, 181.270 106.341, 181.641 101.503 C 182.246 93.637, 182.636 92.346, 185.329 89.278 L 188.341 85.848 183.920 81.967 C 181.489 79.832, 179.210 78.066, 178.855 78.043 C 178.501 78.019, 178.551 79.510, 178.967 81.356 C 179.629 84.287, 179.100 85.743, 174.790 92.856 C 172.076 97.335, 169.401 101, 168.846 101 C 168.250 101, 168.059 99.466, 168.381 97.250 C 168.680 95.188, 168.941 90.914, 168.962 87.753 C 168.996 82.657, 169.383 81.581, 172.380 78.253 C 175.546 74.738, 175.665 74.357, 174.258 72.250 C 172.444 69.532, 171.591 69.513, 166.732 72.077 M 64 80.346 C 64 80.537, 64.694 82.083, 65.542 83.783 C 66.933 86.573, 66.928 87.767, 65.491 96.053 C 64.615 101.101, 64.108 105.441, 64.363 105.697 C 65.215 106.548, 68.857 104.029, 69.345 102.251 C 71.565 94.159, 72.152 89.752, 71.143 88.743 C 70.490 88.090, 70.406 87.213, 70.935 86.574 C 71.423 85.983, 71.585 84.263, 71.295 82.750 C 70.843 80.396, 70.280 80, 67.383 80 C 65.523 80, 64 80.156, 64 80.346" stroke="none" fill="black" fill-rule="evenodd"/>
</svg>