<svg xmlns="http://www.w3.org/2000/svg" width="192" height="144" viewBox="0 0 192 144" version="1.1">
	<path d="M 74.500 3.764 C 71.100 4.531, 70 6.093, 70 10.157 C 70 15.301, 74.860 29.896, 77.023 31.247 C 78.321 32.057, 78.609 33.286, 78.250 36.477 C 77.909 39.499, 78.383 41.830, 79.971 44.943 C 82.325 49.557, 82.200 51.153, 77.775 73 C 77.162 76.025, 76.480 81.920, 76.259 86.100 C 75.866 93.532, 75.787 93.732, 72.679 95.100 C 68.765 96.824, 68.214 99.186, 70.923 102.629 C 72.721 104.916, 72.910 106.126, 72.363 111.880 C 72.017 115.521, 70.403 122.100, 68.777 126.500 C 67.150 130.900, 65.628 135.501, 65.395 136.724 C 65.161 137.947, 64.538 140.085, 64.010 141.474 L 63.050 144 97.025 144 C 115.711 144, 131 143.771, 131 143.492 C 131 143.212, 129.875 138.222, 128.500 132.403 C 127.081 126.397, 126 118.801, 126 114.832 L 126 107.841 129.250 108.526 C 131.037 108.903, 132.872 109.558, 133.328 109.983 C 134.826 111.381, 135.884 118.274, 136.588 131.231 L 137.282 144 152.641 144 C 161.088 144, 168 143.764, 168 143.475 C 168 143.186, 166.488 139.924, 164.640 136.225 C 162.792 132.526, 160.296 126.624, 159.092 123.108 C 156.384 115.195, 155.036 112.568, 149.990 105.364 C 147.113 101.258, 146 98.654, 146 96.034 C 146 91.470, 144.552 90.001, 140.050 89.996 C 136.704 89.993, 136.317 89.634, 133.310 83.746 C 130.105 77.471, 129.515 75.150, 128.546 65 C 128.057 59.877, 128.127 59.637, 129.579 61.500 C 131.015 63.344, 131.082 62.934, 130.439 56.250 L 129.742 49 132.402 49 C 136.297 49, 136.659 46.494, 133.651 40.362 C 132.193 37.389, 131 34.752, 131 34.503 C 131 34.253, 132.154 34.488, 133.565 35.025 C 137.671 36.586, 138.817 36.202, 140.346 32.750 C 142.688 27.464, 143.025 26.031, 143.555 19.132 C 144.268 9.858, 142.995 7.272, 137.296 6.417 C 130.111 5.340, 120.160 6.506, 117.074 8.787 C 115.020 10.306, 113.932 10.541, 112.549 9.767 C 111.547 9.207, 108.320 8.997, 105.377 9.300 C 102.435 9.604, 99.777 9.449, 99.472 8.955 C 97.537 5.824, 80.796 2.344, 74.500 3.764 M 80.638 73.500 C 80.322 74.325, 80.499 75, 81.031 75 C 81.564 75, 82 74.325, 82 73.500 C 82 72.675, 81.823 72, 81.607 72 C 81.391 72, 80.955 72.675, 80.638 73.500" stroke="none" fill="black" fill-rule="evenodd"/>
</svg>