<svg xmlns="http://www.w3.org/2000/svg" width="192" height="144" viewBox="0 0 192 144" version="1.1">
	<path d="M 66.489 55.017 C 66.144 55.577, 65.713 59.075, 65.532 62.792 C 65.165 70.319, 66.481 75.201, 70.400 80.856 C 73.272 85, 73.623 88.642, 71.805 95.441 C 70.733 99.446, 70.810 100.133, 72.542 102.047 C 75.042 104.809, 81.047 107.691, 88.144 109.534 C 97.795 112.040, 102 111.182, 102 106.704 C 102 104.033, 105.811 98.990, 107.376 99.591 C 108.093 99.866, 109.204 99.459, 109.845 98.686 C 110.647 97.721, 113.589 97.221, 119.256 97.090 C 123.790 96.984, 128.625 96.633, 130 96.309 C 137.687 94.497, 141.603 89.535, 140.695 82.760 C 139.985 77.467, 137.436 74.809, 133.404 75.157 C 131.655 75.307, 129.611 74.932, 128.862 74.322 C 127.669 73.351, 121.616 70.480, 115.500 67.985 C 107.052 64.537, 71.133 54, 67.831 54 C 67.439 54, 66.835 54.458, 66.489 55.017 M 130.667 81.667 C 130.300 82.033, 130 83.392, 130 84.686 C 130 86.599, 129.580 86.949, 127.750 86.563 C 126.085 86.212, 124.780 86.963, 122.733 89.451 L 119.966 92.813 124.199 92.406 C 129.941 91.852, 131.673 91.216, 134.357 88.672 C 137.293 85.890, 138.141 83.541, 136.722 82.122 C 135.492 80.892, 131.724 80.609, 130.667 81.667" stroke="none" fill="black" fill-rule="evenodd"/>
</svg>