<svg xmlns="http://www.w3.org/2000/svg" width="192" height="144" viewBox="0 0 192 144" version="1.1">
	<path d="M 0 72.023 L 0 144.045 18.099 143.773 L 36.198 143.500 39.512 134.690 C 41.335 129.845, 44.472 123.770, 46.485 121.190 C 49.395 117.460, 50.027 115.912, 49.572 113.625 C 49.257 112.044, 48.993 109.569, 48.985 108.125 C 48.975 106.480, 48.678 105.959, 48.189 106.729 C 47.185 108.309, 47.760 96.166, 49.029 89 C 49.564 85.975, 50.443 74.664, 50.982 63.866 C 52.005 43.360, 52.493 40.853, 56.635 34.832 C 58.751 31.756, 58.971 30.815, 58.002 29.003 C 57.366 27.814, 55.530 26.383, 53.923 25.823 C 50.265 24.548, 50.189 23.242, 53.720 22.355 C 55.216 21.980, 57.941 20.787, 59.775 19.705 L 63.109 17.738 57.304 15.374 C 54.112 14.073, 51.403 13.007, 51.285 13.005 C 51.167 13.002, 50.554 12.034, 49.922 10.854 C 48.811 8.778, 48.911 8.730, 52.979 9.381 C 55.292 9.751, 56.998 9.704, 56.771 9.277 C 56.543 8.849, 55.533 6.588, 54.527 4.250 L 52.697 0 26.348 0 L 0 0 0 72.023 M 60.655 5.250 C 64.726 11.321, 66 12.145, 66 8.708 C 66 7.356, 66.281 4.844, 66.625 3.125 L 67.250 -0 62.193 -0 L 57.135 -0 60.655 5.250 M 71.062 5.146 C 70.455 7.976, 70.093 10.426, 70.257 10.590 C 70.421 10.754, 72.792 9.377, 75.527 7.529 C 78.262 5.682, 80.649 4.319, 80.831 4.500 C 81.434 5.100, 78.740 9.388, 76.603 11.229 C 75.446 12.225, 73.150 13.776, 71.501 14.675 L 68.502 16.309 72.926 18.188 C 75.359 19.221, 78.242 19.939, 79.332 19.783 C 82.289 19.361, 82.425 21.485, 79.526 22.806 C 77.636 23.667, 77 24.718, 77 26.979 C 77 28.640, 77.399 30, 77.886 30 C 79.475 30, 86.180 37.418, 87.637 40.788 C 89.043 44.041, 88.631 53.492, 87.039 54.476 C 86.359 54.896, 86.892 82.115, 87.596 82.893 C 87.792 83.108, 88.638 82.716, 89.476 82.020 C 90.419 81.237, 91 79.077, 91 76.353 C 91 72.482, 91.328 71.826, 93.722 70.916 C 98.384 69.143, 101 71.098, 101 76.356 C 101 79.077, 101.581 81.238, 102.524 82.020 C 103.362 82.716, 104.219 83.108, 104.428 82.893 C 105.146 82.149, 105.155 55.488, 104.439 48.184 C 103.787 41.532, 103.927 40.590, 105.982 37.811 C 108.240 34.756, 108.241 34.749, 106.451 28.840 C 104.957 23.903, 104.837 21.982, 105.724 17.213 C 106.309 14.071, 107.434 9.925, 108.223 8 C 109.592 4.660, 109.637 4.900, 109.203 13.264 C 108.666 23.599, 110.344 31.474, 112.902 30.621 C 121.089 27.888, 122.923 27.660, 126.972 28.873 C 129.250 29.556, 132.056 31.056, 133.207 32.207 C 135.743 34.743, 137.497 33.922, 140.175 28.948 C 141.612 26.280, 141.733 25.435, 140.710 25.214 C 139.983 25.057, 138.614 23.617, 137.667 22.014 C 136.013 19.214, 136.023 19.058, 137.907 18.050 C 138.986 17.472, 140.750 17, 141.827 17 C 143.974 17, 144.947 15.265, 145.098 11.168 C 145.180 8.936, 145.384 9.153, 146.348 12.500 C 147.350 15.978, 147.837 16.461, 150.086 16.199 C 151.556 16.028, 153.247 16.592, 154.006 17.507 C 155.149 18.884, 154.960 19.495, 152.685 21.769 C 150.142 24.313, 149.974 24.346, 148.671 22.565 C 147.423 20.858, 147.221 21.067, 146.202 25.112 C 145.592 27.535, 143.532 31.713, 141.624 34.397 C 138.646 38.584, 138.297 39.647, 139.160 41.888 C 139.713 43.325, 140.570 53.500, 141.064 64.500 C 141.557 75.500, 142.386 86.525, 142.904 89 C 143.991 94.192, 144.244 106.410, 143.402 113.093 L 142.824 117.687 149.162 119.459 C 152.648 120.433, 157.133 122.060, 159.128 123.073 C 164.152 125.625, 170.485 133.126, 172.613 139.045 L 174.395 144 183.198 144 L 192 144 192 72 L 192 0 132.083 0 L 72.166 0 71.062 5.146 M 87.583 91.866 C 87.152 92.563, 87.070 93.403, 87.400 93.733 C 88.295 94.628, 89.271 93.312, 88.787 91.862 C 88.449 90.846, 88.213 90.846, 87.583 91.866 M 103 92.441 C 103 93.298, 103.450 94, 104 94 C 104.550 94, 105 93.577, 105 93.059 C 105 92.541, 104.550 91.840, 104 91.500 C 103.450 91.160, 103 91.584, 103 92.441 M 94.144 96.441 C 93.556 98.570, 91.913 101.526, 90.492 103.008 C 87.996 105.614, 87.944 105.920, 88.947 112.102 C 91.101 125.379, 89.407 127.988, 86.882 115.283 C 86.177 111.737, 85.158 109.111, 84.562 109.307 C 83.978 109.498, 83.259 112.095, 82.965 115.078 C 82.574 119.048, 82.275 119.831, 81.851 118 C 81.460 116.311, 81.223 117.123, 81.121 120.500 C 80.920 127.132, 79.490 129.424, 78.579 124.571 C 78.205 122.576, 77.472 121.208, 76.949 121.531 C 75.373 122.505, 75.874 128.739, 78.161 136.609 L 80.321 144.045 97.911 143.772 L 115.500 143.500 116.149 136 C 116.850 127.913, 115.519 119.568, 113.931 122.078 C 113.436 122.860, 113.024 124.513, 113.015 125.750 C 113.007 126.987, 112.550 128, 112 128 C 111.448 128, 110.965 125.197, 110.921 121.750 C 110.878 118.313, 110.615 116.063, 110.338 116.750 C 109.316 119.281, 108.330 117.889, 108.414 114.034 C 108.545 108.016, 106.685 109.352, 105 116.486 C 102.330 127.788, 101.028 125.583, 103.042 113.171 C 104.057 106.920, 104.032 106.801, 101.035 103.387 C 99.366 101.486, 98 99.132, 98 98.156 C 98 97.181, 97.373 95.525, 96.606 94.476 C 95.302 92.692, 95.144 92.817, 94.144 96.441" stroke="none" fill="black" fill-rule="evenodd"/>
</svg>