<svg xmlns="http://www.w3.org/2000/svg" width="192" height="144" viewBox="0 0 192 144" version="1.1">
	<path d="M 17.740 2.750 C 17.963 4.304, 17.043 7.956, 15.625 11.148 C 13.143 16.734, 13.138 16.803, 15.157 17.331 C 16.896 17.786, 17.117 18.430, 16.646 21.682 C 16.343 23.782, 15.802 30, 15.445 35.500 C 15.088 41, 14.393 45.995, 13.901 46.599 C 12.350 48.503, 10.973 58.072, 10.481 70.358 C 10.190 77.625, 9.372 84.014, 8.368 86.858 C 7.293 89.902, 6.587 95.975, 6.316 104.500 C 5.916 117.075, 5.261 122.965, 3.089 133.500 C 0.772 144.740, 0.680 144, 4.393 144 C 7.549 144, 7.767 143.771, 8.284 139.917 C 8.927 135.123, 8.803 135.293, 12 134.848 C 14.372 134.518, 14.497 134.744, 14.437 139.250 C 14.378 143.754, 14.513 144, 17.062 144 C 19.273 144, 19.861 143.445, 20.375 140.875 C 21.250 136.498, 21.155 128.233, 20.224 127.833 C 19.012 127.312, 20.563 111.953, 22.278 107.498 C 24.201 102.503, 25.564 87.830, 24.312 85.593 C 23.146 83.509, 24.600 69.187, 26.170 67.296 C 27.086 66.192, 28.072 67.520, 31.069 73.897 C 33.133 78.288, 36.304 84.045, 38.116 86.690 C 42.927 93.715, 60.163 115.550, 72.697 130.500 L 83.596 143.500 137.807 143.759 L 192.018 144.017 191.759 92.899 L 191.500 41.781 183.365 38.415 C 178.891 36.564, 172.844 34.812, 169.928 34.521 C 167.013 34.231, 161.762 33.495, 158.259 32.885 C 151.149 31.646, 149.399 32.284, 152.821 34.865 L 155.112 36.593 149.806 38.968 C 144.344 41.413, 142.140 43.030, 136.246 48.913 C 133.302 51.852, 130.198 57.201, 131.180 57.645 C 131.356 57.725, 130.600 58.814, 129.500 60.065 C 127.763 62.040, 127.731 62.255, 129.250 61.701 C 130.257 61.334, 131 61.540, 131 62.186 C 131 62.804, 131.900 62.495, 133 61.500 C 135.499 59.238, 135.570 60.701, 133.116 63.893 C 130.816 66.884, 127.535 66.287, 122.636 61.986 C 118.006 57.920, 116.441 58.171, 114.761 63.250 C 113.679 66.522, 112.514 67.902, 109.697 69.249 C 107.228 70.429, 105.826 71.892, 105.385 73.749 C 104.451 77.680, 102.100 80, 99.050 80 C 97.068 80, 95.488 81.210, 92.705 84.859 C 90.667 87.531, 89 90.268, 89 90.941 C 89 91.614, 90.302 95.165, 91.894 98.832 C 93.486 102.500, 95.082 107.075, 95.442 109 C 96.090 112.466, 96.079 112.480, 94.298 110.380 C 93.309 109.214, 89.417 104.352, 85.649 99.574 C 81.881 94.797, 73.737 85.625, 67.551 79.194 L 56.306 67.500 55.629 58.500 C 55.257 53.550, 53.460 41.850, 51.636 32.500 C 49.812 23.150, 48.500 15.161, 48.721 14.747 C 48.941 14.333, 49.967 14.447, 51 15 C 54.518 16.883, 53.960 14.281, 49.312 7.134 L 44.673 0 31.010 0 L 17.346 0 17.740 2.750 M 59.010 1.750 C 59.024 4.280, 63.446 13.401, 67.178 18.598 C 71.130 24.101, 76.970 28.064, 85.640 31.125 C 92.894 33.686, 94.467 35.381, 95.491 41.745 C 95.867 44.079, 96.585 46.243, 97.087 46.554 C 97.589 46.864, 98 48.254, 98 49.642 C 98 51.219, 98.469 52.009, 99.250 51.747 C 99.938 51.517, 100.500 50.467, 100.500 49.414 C 100.500 48.029, 101.330 47.406, 103.500 47.162 C 108.018 46.652, 109 45.293, 109 39.552 C 109 33.638, 110.450 31.757, 117.892 28.020 C 127.069 23.412, 135.770 12.399, 137.646 3.020 L 138.250 0 98.625 0 C 61.550 0, 59.001 0.113, 59.010 1.750 M 20.843 39.500 C 20.594 42.637, 20.866 44, 21.743 44 C 22.566 44, 23 42.447, 23 39.500 C 23 37.025, 22.595 35, 22.101 35 C 21.606 35, 21.040 37.025, 20.843 39.500 M 17.956 52.643 C 17.932 53.114, 17.537 55.444, 17.078 57.821 C 16.296 61.865, 16.404 62.203, 18.760 63.099 C 20.145 63.625, 21.454 63.879, 21.670 63.664 C 22.698 62.636, 23.196 53, 22.221 53 C 21.639 53, 20.452 52.727, 19.582 52.393 C 18.712 52.059, 17.980 52.172, 17.956 52.643 M 16.451 76.546 C 15.788 81.852, 16.235 84.099, 17.668 82.666 C 18.035 82.298, 18.541 79.523, 18.792 76.499 C 19.401 69.157, 17.369 69.198, 16.451 76.546 M 12.466 96.424 C 11.686 102.668, 12.209 104, 15.442 104 C 18.095 104, 18.965 101.850, 18.986 95.250 C 18.999 91.215, 18.852 91, 16.072 91 C 13.278 91, 13.113 91.248, 12.466 96.424 M 12.581 114.250 C 11.285 120.632, 11.237 125, 12.464 125 C 13.733 125, 14.968 119.985, 14.989 114.750 C 15.002 111.446, 13.226 111.077, 12.581 114.250" stroke="none" fill="black" fill-rule="evenodd"/>
</svg>