<svg xmlns="http://www.w3.org/2000/svg" width="192" height="144" viewBox="0 0 192 144" version="1.1">
	<path d="M 0 8.900 L 0 17.801 5.048 19.012 C 9.480 20.075, 10.326 20.015, 11.974 18.524 C 14.428 16.303, 17.416 16.934, 17.819 19.758 C 18.089 21.652, 18.442 21.834, 20.112 20.940 C 21.197 20.359, 23.747 20.023, 25.778 20.192 C 29.197 20.477, 29.717 20.969, 32.796 26.825 C 35.264 31.520, 35.843 33.484, 35.043 34.448 C 33.550 36.247, 34.746 38.804, 37.871 40.500 C 39.317 41.284, 43.295 44.564, 46.710 47.788 L 52.920 53.650 51.789 57.336 C 50.110 62.807, 52.130 73.858, 58.723 95.270 C 63.449 110.619, 64.350 114.760, 64.418 121.475 C 64.492 128.672, 64.306 129.489, 62.510 129.845 C 61.416 130.062, 59.928 131.085, 59.204 132.119 C 58.195 133.559, 56.640 134, 52.568 134 C 47.412 134, 47.231 134.095, 46.625 137.125 C 45.164 144.431, 44.151 144, 62.800 144 L 79.600 144 80.800 138.190 C 81.460 134.994, 82 130.540, 82 128.292 C 82 123.746, 78.556 116.778, 75.119 114.370 C 73.935 113.541, 73.194 112.495, 73.472 112.045 C 73.750 111.595, 73.313 110.675, 72.500 110 C 71.687 109.325, 71.228 108.440, 71.480 108.032 C 71.732 107.624, 70.827 106.247, 69.469 104.971 C 68.111 103.695, 67 102.237, 67 101.730 C 67 101.223, 66.057 99.484, 64.904 97.865 C 63.326 95.648, 62.600 92.519, 61.972 85.210 C 61.154 75.705, 62.170 66, 63.983 66 C 65.043 66, 66.748 58.171, 67.398 50.326 C 67.972 43.405, 69.860 38.140, 72.964 34.809 C 74.111 33.577, 74.832 32.004, 74.566 31.312 C 74.300 30.619, 74.689 29.703, 75.430 29.276 C 77.237 28.234, 80.226 15.117, 80.562 6.750 L 80.834 -0 40.417 -0 L 0 0 0 8.900 M 79.079 11.583 C 79.127 12.748, 79.364 12.985, 79.683 12.188 C 79.972 11.466, 79.936 10.603, 79.604 10.271 C 79.272 9.939, 79.036 10.529, 79.079 11.583 M -0 81.875 L 0 144 14.899 144 L 29.799 144 30.160 139.460 C 30.593 134.012, 29.764 133, 24.867 133 C 22.013 133, 20.985 132.529, 20.500 131 C 19.991 129.396, 18.987 129, 15.433 129 L 11 129 11 124.554 C 11 119.992, 11.146 119.666, 23.983 95.666 C 29.720 84.940, 31.022 78.242, 28.487 72.500 L 27.162 69.500 26.965 74 C 26.857 76.475, 26.562 77.713, 26.311 76.750 C 25.110 72.156, 23.422 76.078, 22.760 85 C 22.537 88.007, 22.180 88.455, 20.227 88.183 C 18.435 87.933, 17.638 88.621, 16.463 91.433 C 15.644 93.395, 14.550 95, 14.032 95 C 12.354 95, 11.649 88.132, 13.137 86.283 C 14.150 85.022, 13.572 85.153, 10.882 86.794 C 3.599 91.235, 2.471 89.501, 3.979 76.187 C 4.863 68.378, 5.653 65.894, 9.616 58.442 C 13.962 50.270, 14.190 49.456, 13.615 44.139 C 12.132 30.419, 12.040 30.135, 9.153 30.325 C 7.082 30.462, 6.430 29.996, 6.174 28.195 C 5.994 26.927, 6.402 25.221, 7.081 24.403 C 8.652 22.510, 7.423 21.235, 3.219 20.394 L -0 19.750 -0 81.875 M 35.711 64.622 C 34.686 65.648, 34.834 72, 35.883 72 C 36.369 72, 37.014 71.056, 37.315 69.903 C 37.950 67.476, 36.764 63.570, 35.711 64.622 M 70.500 113 C 70.840 113.550, 71.316 114, 71.559 114 C 71.802 114, 72 113.550, 72 113 C 72 112.450, 71.523 112, 70.941 112 C 70.359 112, 70.160 112.450, 70.500 113 M 36.625 138.357 C 36.286 139.708, 35.733 141.531, 35.397 142.407 C 34.917 143.658, 35.467 144, 37.953 144 C 41.001 144, 41.109 143.858, 40.810 140.258 C 40.438 135.769, 37.599 134.479, 36.625 138.357" stroke="none" fill="black" fill-rule="evenodd"/>
</svg>