<svg xmlns="http://www.w3.org/2000/svg" width="192" height="144" viewBox="0 0 192 144" version="1.1">
	<path d="M 0 72 L 0 144 16 144 L 32 144 32 141.607 C 32 138.895, 30.361 138, 25.393 138 C 22.641 138, 21.760 137.499, 21 135.500 C 20.236 133.490, 19.310 132.970, 16.275 132.848 C 9.238 132.564, 9.483 132.724, 9.739 128.563 C 10.026 123.883, 12.882 117.760, 18.826 109.078 C 29.715 93.172, 32.250 87.252, 32.774 76.500 C 33.301 65.674, 32.334 66.081, 28.611 78.253 C 26.594 84.847, 26.187 87.481, 26.963 88.931 C 28.218 91.276, 27.321 94.061, 25.532 93.374 C 24.649 93.035, 23.839 94.505, 23.016 97.935 C 22.348 100.718, 21.396 102.745, 20.901 102.439 C 19.712 101.704, 19.747 94.796, 20.956 91.615 C 21.482 90.231, 22.143 85.814, 22.424 81.800 C 22.884 75.229, 22.788 74.694, 21.467 76.441 C 20.660 77.509, 19.993 79.309, 19.985 80.441 C 19.970 82.434, 18.046 86.456, 18.015 84.559 C 18.007 84.041, 17.394 84.447, 16.653 85.460 C 15.679 86.792, 15.100 86.970, 14.564 86.104 C 14.038 85.253, 13.100 85.627, 11.336 87.392 C 6.985 91.742, 5.019 89.122, 5.038 79 C 5.053 70.684, 6.423 66.335, 11.310 59.094 C 17.666 49.675, 17.725 49.501, 18.180 38.750 C 18.589 29.091, 18.571 29, 16.265 29 C 13.323 29, 12.096 26.134, 14.338 24.495 C 16.978 22.564, 16.289 20.508, 12.376 18.642 C 7.289 16.217, 8.880 15.467, 14.883 17.461 C 18.800 18.762, 20.362 18.877, 22.026 17.986 C 25.051 16.367, 27.344 17.495, 26.650 20.259 C 26.126 22.347, 26.415 22.500, 30.890 22.500 C 36.550 22.500, 39 24.181, 39 28.063 C 39 29.614, 39.396 31.127, 39.881 31.426 C 41.590 32.483, 41.869 37.460, 40.315 39.191 C 38.936 40.727, 39.194 41.313, 43.149 45.618 C 45.542 48.223, 49.283 52.060, 51.463 54.144 C 55.286 57.799, 55.383 58.052, 54.213 61.288 C 52.420 66.245, 52.735 74.665, 55.027 83.068 C 65.207 120.383, 67.144 132.309, 63.250 133.678 C 62.288 134.016, 60.353 135.349, 58.952 136.640 C 57.032 138.409, 55.431 138.927, 52.452 138.744 C 48.814 138.519, 48.475 138.718, 48.184 141.250 L 47.867 144 94.934 144 L 142 144 141.986 141.750 C 141.954 136.469, 139.694 133.792, 132.750 130.815 C 131.508 130.282, 130.961 128.820, 130.865 125.782 C 130.791 123.427, 130.629 118.575, 130.506 115 C 130.383 111.425, 130.867 105.800, 131.581 102.500 C 132.295 99.200, 133.877 89.134, 135.098 80.131 C 137.013 66.001, 137.145 63.089, 136.057 58.843 L 134.796 53.925 139.620 48.713 C 142.273 45.846, 145.694 42.307, 147.222 40.849 C 150.033 38.166, 150.915 34.472, 148.903 33.801 C 148.127 33.542, 148.098 32.272, 148.803 29.468 C 149.351 27.285, 150.085 24.234, 150.435 22.687 C 151.263 19.020, 155.881 16.958, 160.790 18.065 C 163.777 18.739, 164.852 18.452, 167.825 16.184 C 171.051 13.723, 171.239 13.684, 170.161 15.698 C 169.517 16.903, 168.542 18.165, 167.995 18.503 C 167.448 18.841, 167 19.606, 167 20.202 C 167 20.798, 169.363 18.921, 172.250 16.031 C 176.076 12.202, 177.588 11.213, 177.823 12.388 C 178.001 13.275, 178.564 14, 179.073 14 C 181.134 14, 179.822 16.006, 177.357 16.625 C 175.903 16.990, 173.505 18.642, 172.026 20.297 C 169.439 23.192, 169.390 23.454, 170.726 27.331 C 171.489 29.545, 172.040 32.514, 171.951 33.929 C 171.861 35.343, 171.836 37.546, 171.894 38.824 C 172.042 42.068, 182.544 52.843, 187.750 55.093 C 191.682 56.792, 192 57.213, 192 60.729 C 192 69.103, 184.977 82, 180.416 82 C 178.648 82, 177.787 78.961, 179.105 77.373 C 179.992 76.305, 179.885 76, 178.622 76 C 177.549 76, 177 75.135, 177 73.445 C 177 69.058, 173.002 61.853, 167.181 55.751 C 162.311 50.645, 161.495 50.132, 160.882 51.789 C 160.458 52.937, 161.278 56.829, 162.950 61.596 C 164.474 65.943, 166.034 71.975, 166.416 75 C 167.185 81.089, 169.333 84.784, 178.126 95.137 C 183.589 101.571, 186.576 108.082, 188.519 117.791 C 189.251 121.450, 187.711 124.210, 185.427 123.334 C 184.572 123.005, 184 123.403, 184 124.326 C 184 125.882, 183.030 126.344, 177.391 127.474 C 175.680 127.817, 172.980 129.456, 171.391 131.116 C 169.014 133.599, 167.789 134.100, 164.500 133.934 C 162.300 133.822, 159.938 133.792, 159.250 133.866 C 157.927 134.008, 157.619 137.976, 158.636 141.774 C 159.243 144.037, 159.319 144.046, 175.873 143.774 L 192.500 143.500 192.757 71.750 L 193.013 0 96.507 0 L 0 0 0 72 M 0.474 72.500 C 0.474 112.100, 0.598 128.154, 0.750 108.176 C 0.901 88.198, 0.901 55.798, 0.750 36.176 C 0.598 16.554, 0.474 32.900, 0.474 72.500 M 157 70.183 C 157 74.926, 157.301 75.846, 159 76.290 C 161.350 76.904, 161.307 77.155, 159.864 71.193 C 158.177 64.224, 157 63.809, 157 70.183 M 147.667 135.667 C 147.300 136.033, 147 138.058, 147 140.167 C 147 143.765, 147.185 144, 150.019 144 C 152.805 144, 152.987 143.788, 152.381 141.250 C 151.113 135.946, 149.407 133.926, 147.667 135.667 M 38.667 140.667 C 37.149 142.185, 38.147 144, 40.500 144 C 42.333 144, 43 143.467, 43 142 C 43 140.049, 40.159 139.175, 38.667 140.667" stroke="none" fill="black" fill-rule="evenodd"/>
</svg>