<svg xmlns="http://www.w3.org/2000/svg" width="192" height="144" viewBox="0 0 192 144" version="1.1">
	<path d="M 95.556 9.554 C 94.642 10.949, 92.843 12.570, 91.557 13.156 C 89.878 13.921, 89.038 15.363, 88.572 18.277 C 88.215 20.509, 88.311 22.597, 88.784 22.917 C 89.258 23.238, 89.942 24.301, 90.303 25.280 C 91.271 27.903, 86.893 29.728, 83.425 28.148 C 80.530 26.829, 79 27.361, 79 29.687 C 79 30.957, 78.239 31.134, 75 30.616 C 71.202 30.009, 71 30.107, 71 32.554 C 71 35.475, 72.623 39, 73.968 39 C 74.461 39, 75.151 38.100, 75.500 37 C 76.422 34.095, 78.322 34.537, 77.751 37.524 C 77.110 40.873, 78.365 41.463, 82.132 39.584 C 84.260 38.522, 85.752 38.334, 86.869 38.987 C 87.766 39.511, 88.186 39.953, 87.802 39.970 C 87.418 39.986, 87.569 41.332, 88.136 42.961 C 88.988 45.405, 88.699 47.107, 86.478 52.711 C 84.999 56.445, 82.874 61.151, 81.756 63.168 C 79.278 67.641, 79.868 69.492, 84.469 71.687 C 87.960 73.351, 88 73.442, 88 79.685 C 88 83.158, 88.018 86.338, 88.040 86.750 C 88.061 87.162, 87.049 87.656, 85.790 87.846 C 80.107 88.704, 80.375 93.189, 86.231 95.230 C 89.109 96.234, 89.188 96.389, 87.462 97.651 C 86.448 98.393, 84.543 99, 83.229 99 C 81.075 99, 80.908 99.306, 81.527 102.125 C 82.286 105.579, 81.072 106.959, 77.250 106.985 C 75.923 106.994, 75 107.616, 75 108.500 C 75 109.333, 75.889 110, 77 110 C 78.100 110, 79 109.585, 79 109.078 C 79 107.482, 85.721 105.857, 89.438 106.554 C 91.736 106.985, 93 106.839, 93 106.142 C 93 105.547, 94.475 105.116, 96.279 105.184 C 102.889 105.433, 106.890 100.746, 103.380 96.867 C 101.927 95.262, 101.838 94.718, 102.918 94.051 C 103.654 93.596, 103.975 92.768, 103.630 92.211 C 103.286 91.653, 102.582 87.115, 102.066 82.125 C 101.300 74.722, 101.399 72.507, 102.607 70.086 C 103.923 67.448, 103.904 66.143, 102.440 58.310 C 101.534 53.464, 100.388 48.740, 99.894 47.811 C 99.337 46.764, 99.377 45.885, 100 45.500 C 100.667 45.088, 100.641 44.198, 99.924 42.857 C 99.046 41.218, 99.329 40.132, 101.421 37.114 C 103.974 33.431, 104.701 31, 103.250 31 C 102.838 31, 102.530 27.963, 102.566 24.250 C 102.615 19.287, 102.151 16.797, 100.816 14.846 C 99.817 13.386, 99 11.275, 99 10.155 C 99 7.022, 97.399 6.743, 95.556 9.554 M 158.898 12.833 C 155.435 16.437, 151.214 19.571, 150.256 19.252 C 149.623 19.041, 149.323 21.911, 149.450 26.958 C 149.644 34.643, 149.555 35, 147.449 35 C 146.237 35, 144.685 35.675, 144 36.500 C 142.604 38.182, 136.454 38.544, 135.500 37 C 134.570 35.496, 131.412 35.798, 129.976 37.529 C 128.928 38.792, 129.059 39.446, 130.728 41.279 C 131.840 42.501, 133.272 44.513, 133.910 45.750 C 135.375 48.590, 138.248 48.616, 142.028 45.821 C 143.649 44.623, 145.158 43.835, 145.381 44.071 C 146.022 44.749, 143.309 56.809, 140.755 64.633 C 138.149 72.618, 138.513 76.370, 142.163 79.123 C 144.203 80.662, 144.284 81.107, 143.189 84.763 C 142.535 86.946, 142 90.637, 142 92.965 C 142 95.293, 141.293 98.688, 140.428 100.510 C 139.002 103.516, 139.001 104.101, 140.421 106.848 C 141.282 108.512, 142.439 110.153, 142.993 110.496 C 145.331 111.941, 143.672 112.675, 139.068 112.233 L 134.136 111.759 133.436 115.489 C 132.931 118.182, 133.120 119.462, 134.118 120.094 C 136.748 121.760, 138 121.045, 138 117.875 C 138 114.885, 138.141 114.778, 141.250 115.387 C 145.826 116.283, 149.338 119.125, 150.459 122.840 C 151.059 124.826, 152.465 126.481, 154.209 127.253 C 156.204 128.136, 157 129.211, 157 131.022 C 157 132.415, 157.874 134.304, 158.942 135.218 C 160.798 136.808, 160.935 136.728, 162.029 133.411 C 162.859 130.899, 162.879 129.091, 162.103 126.866 C 161.261 124.449, 161.349 123.340, 162.516 121.674 C 164.603 118.694, 164.360 115.263, 161.972 113.985 C 159.640 112.737, 160.233 111, 162.992 111 C 165.820 111, 166.421 107.508, 164.148 104.285 C 162.564 102.039, 162.091 99.301, 161.707 90.138 L 161.230 78.775 164.099 77.138 C 168.238 74.775, 168.442 73.133, 165.110 68.987 C 163.484 66.963, 160.983 62.883, 159.553 59.918 C 157.333 55.316, 157.120 54.124, 158.098 51.764 C 158.727 50.244, 159.879 49, 160.657 49 C 163.390 49, 167 45.804, 167 43.385 C 167 42.073, 166.662 40.996, 166.250 40.992 C 165.838 40.988, 164.988 39.880, 164.362 38.529 C 163.736 37.179, 163.511 36.141, 163.862 36.223 C 165.683 36.647, 177 34.680, 177 33.939 C 177 33.464, 174.135 33.343, 170.634 33.670 L 164.268 34.264 164.751 28.882 C 165.017 25.922, 165.612 23.092, 166.073 22.594 C 166.544 22.085, 165.415 20.318, 163.493 18.558 C 160.925 16.205, 160.219 14.877, 160.654 13.214 C 161.330 10.630, 161.070 10.573, 158.898 12.833 M 32.816 15.748 C 32.599 17.632, 31.334 19.248, 28.790 20.889 C 25.762 22.844, 25.257 23.612, 26.040 25.076 C 26.568 26.062, 27 27.615, 27 28.527 C 27 29.438, 27.900 31.329, 29 32.727 C 30.100 34.126, 30.998 36.222, 30.996 37.385 C 30.983 44.895, 15.892 54.421, 9.461 50.979 C 8.041 50.219, 5.772 50.008, 3.533 50.428 L -0.093 51.108 0.204 57.286 L 0.500 63.464 14 71.789 C 24.080 78.004, 28.181 80.019, 30.188 79.739 C 32.544 79.411, 32.752 79.595, 31.876 81.232 C 29.980 84.774, 31.284 88.275, 35.689 91.466 C 37.993 93.135, 39.905 94.885, 39.939 95.356 C 39.973 95.827, 38.902 97.076, 37.559 98.132 C 36.217 99.188, 34.846 100.909, 34.514 101.957 C 34 103.576, 32.717 104.181, 27 105.503 C 20.241 107.065, 17.544 107.071, 14.652 105.531 C 11.610 103.912, 11.300 103.942, 5.750 106.414 C 0.361 108.814, -0 109.191, -0 112.415 C -0 114.977, 0.702 116.407, 2.750 118.017 C 4.262 119.205, 11.032 125.538, 17.793 132.089 C 24.555 138.640, 30.694 144, 31.436 144 C 33.234 144, 49 135.100, 49 134.085 C 49 133.647, 45.400 130.459, 41 127 C 36.600 123.541, 33 120.427, 33 120.079 C 33 119.732, 34.817 119.620, 37.037 119.832 C 42.581 120.361, 49.472 116.017, 48.600 112.543 C 48.129 110.668, 48.582 110.002, 51.010 108.996 C 55.090 107.306, 54.894 104.322, 50.310 98.327 C 44.654 90.930, 39.841 81.981, 41.280 81.541 C 41.951 81.335, 43.850 80.874, 45.500 80.516 C 47.150 80.158, 49.555 79.182, 50.845 78.347 C 52.855 77.046, 53.095 76.305, 52.524 73.165 C 52.158 71.149, 49.640 65.326, 46.929 60.225 C 43.007 52.845, 42 49.976, 42 46.175 C 42 43.549, 41.456 40.856, 40.791 40.191 C 39.845 39.245, 40.084 38.630, 41.886 37.367 C 43.828 36.007, 44.090 35.183, 43.552 32.127 C 43.201 30.132, 42.919 27.217, 42.925 25.648 C 42.932 23.664, 42.347 22.642, 41.001 22.290 C 39.937 22.012, 38.761 20.820, 38.388 19.642 C 37.590 17.119, 34.794 13.076, 33.816 13.031 C 33.440 13.014, 32.990 14.237, 32.816 15.748 M 137.510 41.016 C 137.856 41.575, 138.557 41.774, 139.069 41.457 C 140.456 40.600, 140.198 40, 138.441 40 C 137.584 40, 137.165 40.457, 137.510 41.016 M 23.175 52.560 C 17.452 55.235, 16.819 57.286, 21.547 57.838 C 24.020 58.126, 32 56.256, 32 55.387 C 32 54.452, 29.582 50.006, 29.089 50.035 C 28.765 50.054, 26.104 51.190, 23.175 52.560 M 14.813 54.683 C 15.534 54.972, 16.397 54.936, 16.729 54.604 C 17.061 54.272, 16.471 54.036, 15.417 54.079 C 14.252 54.127, 14.015 54.364, 14.813 54.683 M 31.143 61.907 C 30.137 62.532, 30.090 62.937, 30.960 63.475 C 32.332 64.323, 33.362 63.572, 32.854 62.095 C 32.646 61.489, 31.940 61.412, 31.143 61.907 M 92.204 80.750 C 92.491 87.286, 92.587 87.510, 95.250 87.816 C 97.836 88.114, 98 87.899, 98 84.216 C 98 78.465, 96.189 74, 93.856 74 C 92.089 74, 91.936 74.626, 92.204 80.750 M 149.387 82.750 C 149.085 83.713, 148.426 85.529, 147.923 86.788 C 147.420 88.046, 146.723 91.502, 146.375 94.468 L 145.741 99.861 149.620 100.518 C 151.754 100.879, 154.251 101.379, 155.169 101.629 C 157.550 102.277, 158.310 98.984, 157.466 91.679 C 156.458 82.950, 155.550 81, 152.493 81 C 150.935 81, 149.723 81.683, 149.387 82.750 M 85.659 102.553 C 86.346 104.345, 90.139 104.120, 90.755 102.250 C 91.024 101.433, 90.109 101, 88.115 101 C 85.767 101, 85.200 101.358, 85.659 102.553 M 24.182 108.114 C 20.101 109.318, 20.391 110.397, 25.866 114.363 L 30.143 117.461 31.982 115.025 C 32.992 113.684, 33.700 111.443, 33.554 110.044 C 33.343 108.017, 32.701 107.463, 30.394 107.317 C 28.803 107.217, 26.007 107.575, 24.182 108.114" stroke="none" fill="black" fill-rule="evenodd"/>
</svg>