<svg xmlns="http://www.w3.org/2000/svg" width="192" height="144" viewBox="0 0 192 144" version="1.1">
	<path d="M 0 72 L 0 144 34 144 C 52.700 144, 68 143.850, 68 143.666 C 68 143.483, 65.638 141.705, 62.750 139.715 C 59.862 137.725, 55.765 134.020, 53.645 131.482 C 51.233 128.595, 49.247 127.075, 48.342 127.422 C 46.873 127.986, 43.131 126.062, 39.500 122.876 C 37.707 121.303, 17.649 110.344, 12.414 108.078 C 11.267 107.581, 8.904 105.750, 7.164 104.010 C 3.015 99.861, 3.065 96.365, 7.371 89.635 C 9.225 86.737, 11.969 80.796, 13.470 76.433 C 17.954 63.395, 24.718 50.620, 36.422 33.084 C 42.509 23.963, 47.830 16.350, 48.245 16.167 C 48.660 15.983, 49 15.174, 49 14.367 C 49 13.030, 55.042 6, 56.191 6 C 56.460 6, 59.115 4.658, 62.090 3.018 L 67.500 0.036 33.750 0.018 L 0 0 0 72 M 117.524 3.403 C 119.137 7.263, 118.398 8, 112.918 8 C 108.340 8, 109.127 11.505, 115.499 19.500 C 123.342 29.341, 126.224 44.552, 121.734 52.406 C 118.091 58.776, 115.298 60.217, 104.795 61.143 C 95.634 61.952, 79.570 65.097, 78.344 66.323 C 77.998 66.669, 78.342 67.707, 79.107 68.630 C 79.916 69.604, 80.500 72.558, 80.500 75.670 L 80.500 81.033 90 81.521 C 95.225 81.790, 101.834 82.129, 104.686 82.275 C 107.538 82.420, 109.362 82.224, 108.738 81.838 C 108.081 81.432, 108.844 80.872, 110.552 80.506 C 117.575 79.001, 127.249 74.888, 132.177 71.313 C 135.105 69.189, 138.826 66.532, 140.447 65.407 C 142.967 63.659, 143.816 61.780, 146.308 52.432 C 147.910 46.419, 149.509 39.826, 149.860 37.779 C 150.311 35.158, 150.867 34.288, 151.743 34.834 C 152.726 35.447, 152.741 37.799, 151.812 46.112 C 150.372 58.995, 150.776 60.460, 155.554 59.685 C 163.588 58.381, 171.374 64.009, 172.592 72 C 172.969 74.475, 173.636 77.400, 174.075 78.500 C 174.804 80.327, 174.879 80.288, 174.937 78.050 C 174.982 76.277, 175.302 75.902, 176.094 76.694 C 177.401 78.001, 176.820 81.584, 175.347 81.302 C 174.778 81.193, 173.101 84.054, 171.620 87.661 C 168.050 96.354, 163.240 103.243, 151.487 116.500 C 143.127 125.930, 133.153 138.477, 130.622 142.750 C 130.037 143.739, 136.366 144, 160.941 144 L 192 144 192 107.083 C 192 86.779, 191.655 70.017, 191.234 69.833 C 190.813 69.650, 190.766 64.775, 191.128 59 C 191.491 53.225, 191.836 37.587, 191.894 24.250 L 192 0 154.051 0 L 116.102 0 117.524 3.403 M 182.500 71.833 C 181.527 72.807, 182.019 74, 183.393 74 C 184.159 74, 185.016 73.400, 185.298 72.667 C 185.780 71.410, 183.579 70.754, 182.500 71.833 M 178.667 74.667 C 177.601 75.732, 177.897 79, 179.059 79 C 179.641 79, 179.840 78.550, 179.500 78 C 179.160 77.450, 179.359 77, 179.941 77 C 180.523 77, 181 76.325, 181 75.500 C 181 73.938, 179.817 73.516, 178.667 74.667 M 60 85.609 C 60 86.714, 60.706 88.491, 61.568 89.559 C 63.059 91.404, 63.105 91.352, 62.497 88.500 C 61.703 84.771, 60 82.799, 60 85.609" stroke="none" fill="black" fill-rule="evenodd"/>
</svg>