<svg xmlns="http://www.w3.org/2000/svg" width="192" height="144" viewBox="0 0 192 144" version="1.1">
	<path d="M 124.047 4.627 C 122.516 8.088, 122 11.364, 122 17.627 C 122 22.320, 121.577 26, 121.038 26 C 120.509 26, 117.993 28.026, 115.445 30.501 C 112.898 32.977, 110.437 34.770, 109.976 34.485 C 109.515 34.200, 108.863 34.412, 108.528 34.955 C 107.635 36.400, 110.951 41, 112.885 41 C 115.437 41, 125.532 46.616, 125.250 47.879 C 125.112 48.495, 125.675 49, 126.500 49 C 128.624 49, 128.360 51.640, 126 54 L 124 56 126.063 56 C 127.429 56, 128.066 56.591, 127.948 57.750 C 127.431 62.834, 128.006 64.811, 129.862 64.326 C 130.946 64.042, 131.963 64.460, 132.295 65.326 C 132.796 66.632, 133.372 66.638, 137.041 65.374 C 140.065 64.332, 141.576 64.233, 142.519 65.016 C 143.413 65.758, 144.023 65.771, 144.464 65.059 C 144.863 64.413, 145.919 64.778, 147.255 66.023 C 149.145 67.784, 149.227 68.202, 147.934 69.494 C 147.126 70.302, 144.118 71.409, 141.250 71.953 C 135.996 72.949, 128.477 76.224, 127.842 77.793 C 127.654 78.258, 124.688 80.537, 121.250 82.857 C 117.813 85.176, 115 87.422, 115 87.846 C 115 88.271, 114.360 89.491, 113.578 90.559 C 112.226 92.405, 111.742 92.108, 103.713 84.500 C 93.902 75.204, 92.450 74, 91.051 74 C 90.482 74, 89.455 73.100, 88.768 72 C 86.718 68.717, 83.791 69.609, 80.500 74.520 C 78.850 76.982, 76.782 78.997, 75.905 78.998 C 73.843 79.001, 71.449 81.684, 69.625 86.037 C 68.828 87.941, 67.024 90.578, 65.618 91.895 C 64.212 93.213, 63.253 94.600, 63.487 94.979 C 63.721 95.357, 63.346 95.667, 62.653 95.667 C 61.134 95.667, 51 103.100, 51 104.213 C 51 104.646, 50.325 105, 49.500 105 C 47.698 105, 47.463 106.963, 49.250 107.085 C 49.938 107.132, 52.820 107.101, 55.656 107.017 C 59.012 106.917, 62.155 107.536, 64.656 108.790 C 66.770 109.849, 69.805 111.031, 71.401 111.415 C 72.996 111.799, 75.143 113.183, 76.170 114.490 C 77.436 116.099, 79.888 117.254, 83.770 118.071 C 90.043 119.390, 95.102 122.214, 100.769 127.560 C 102.795 129.471, 105.851 131.540, 107.560 132.158 C 109.505 132.861, 111.074 134.359, 111.754 136.158 C 113.046 139.582, 118.102 142, 123.968 142 C 126.186 142, 128 142.450, 128 143 C 128 143.646, 139.338 144, 160.013 144 L 192.027 144 191.763 110.780 L 191.500 77.560 183.572 74.653 C 172.074 70.438, 169.348 67.166, 176.681 66.384 C 177.928 66.251, 180.505 64.954, 182.409 63.501 C 185.017 61.512, 186.319 61.091, 187.686 61.795 C 191.901 63.967, 191.992 63.314, 191.969 30.918 L 191.948 0 159.021 0 L 126.094 0 124.047 4.627" stroke="none" fill="black" fill-rule="evenodd"/>
</svg>