<svg xmlns="http://www.w3.org/2000/svg" width="192" height="144" viewBox="0 0 192 144" version="1.1">
	<path d="M 0 17.500 C 0 32.164, 0.236 35, 1.458 35 C 2.260 35, 4.039 36.917, 5.412 39.259 C 9.804 46.754, 18.022 53, 23.491 53 C 24.849 53, 24.824 52.661, 23.294 50.327 C 21.933 48.249, 21.538 45.482, 21.521 37.910 C 21.500 28.395, 22.130 25.679, 23.917 27.567 C 24.430 28.108, 24.365 30.847, 23.763 34.088 C 22.483 40.972, 23.443 48.022, 26.123 51.430 C 27.682 53.411, 29.046 54, 32.073 54 C 35.807 54, 37.167 52.839, 35 51.500 C 32.917 50.213, 34.130 49, 37.500 49 C 39.832 49, 41 49.467, 41 50.399 C 41 51.169, 42.815 52.744, 45.033 53.900 C 48.729 55.826, 49.262 55.874, 51.405 54.470 C 53.311 53.221, 53.710 52.152, 53.564 48.685 C 53.466 46.346, 53.078 43.936, 52.703 43.329 C 52.329 42.723, 52.698 41.666, 53.523 40.981 C 54.726 39.982, 54.780 39.440, 53.795 38.253 C 52.796 37.050, 52.935 36.463, 54.532 35.135 C 55.615 34.236, 58.279 31.139, 60.453 28.253 C 62.628 25.367, 65.215 22.749, 66.203 22.435 C 67.788 21.933, 68 20.575, 68 10.933 L 68 0 34 0 L 0 0 0 17.500 M 68.035 50.094 C 68.064 74.765, 68.213 77.132, 69.703 76.560 C 70.604 76.215, 71.655 76.441, 72.039 77.064 C 72.424 77.686, 74.492 78.284, 76.635 78.394 C 83.122 78.725, 83.352 79.145, 82.588 89.265 C 81.980 97.316, 82.078 98.184, 83.536 97.624 C 84.431 97.281, 85.802 97, 86.582 97 C 87.501 97, 88.025 95.856, 88.070 93.750 C 88.109 91.963, 88.468 89.669, 88.867 88.653 C 89.554 86.907, 89.673 86.901, 91.032 88.539 C 91.823 89.491, 92.477 90.998, 92.485 91.886 C 92.493 92.773, 93.468 93.638, 94.650 93.806 C 96.313 94.043, 97.219 95.458, 98.650 100.048 C 100.343 105.481, 101.662 107.004, 103.276 105.391 C 103.611 105.056, 103.017 102.581, 101.957 99.891 C 99.717 94.208, 100.865 93.427, 104 98.500 C 106.241 102.126, 107.812 102.788, 109.700 100.900 C 110.500 100.100, 109.259 98.411, 105.150 94.705 C 99.904 89.974, 99.409 89.141, 98.232 83.055 C 97.257 78.015, 97.220 74.788, 98.074 69.091 C 99.047 62.605, 98.987 61.572, 97.592 60.792 C 96.616 60.245, 96 58.567, 96 56.450 C 96 54.070, 95.541 53, 94.519 53 C 93.705 53, 92.763 51.763, 92.426 50.250 C 91.188 44.689, 90.794 43.865, 89.588 44.328 C 88.746 44.651, 87.657 41.695, 86.140 34.971 C 83.898 25.025, 82.925 23.537, 79.736 25.178 C 77.785 26.182, 71.292 25.281, 70.430 23.887 C 68.439 20.665, 68.006 25.403, 68.035 50.094 M 0.059 46.569 L 0 56.638 6.750 55.867 C 10.463 55.443, 15.075 54.961, 17 54.798 L 20.500 54.500 15.848 52.208 C 11.555 50.094, 4.146 43.080, 1.309 38.446 C 0.335 36.856, 0.107 38.340, 0.059 46.569 M 56.079 53.583 C 56.127 54.748, 56.364 54.985, 56.683 54.188 C 56.972 53.466, 56.936 52.603, 56.604 52.271 C 56.272 51.939, 56.036 52.529, 56.079 53.583 M 79.471 54.093 C 79.111 55.225, 78.971 56.261, 79.159 56.395 C 80.452 57.319, 87.210 61, 87.614 61 C 88.719 61, 84.371 54.818, 82.321 53.475 C 80.321 52.165, 80.065 52.220, 79.471 54.093 M 81.226 62.574 C 82.176 63.568, 83.227 64.107, 83.562 63.771 C 83.897 63.436, 83.120 62.623, 81.836 61.964 C 79.603 60.819, 79.576 60.846, 81.226 62.574 M 10 64.856 C 10 66.762, 9.445 67, 5 67 L 0 67 0 105.500 L 0 144 22.500 144 L 45 144 45 137.622 C 45 134.077, 44.300 129.568, 43.423 127.470 C 42.556 125.394, 42.056 122.894, 42.313 121.913 C 42.569 120.932, 42.119 119.187, 41.312 118.035 C 39.481 115.421, 40.171 103.569, 42.540 96.953 C 43.416 94.504, 44.522 88.900, 44.997 84.500 C 45.472 80.100, 46.175 74.588, 46.558 72.250 L 47.256 68 43.250 68 C 40.285 68, 38.880 67.452, 37.845 65.893 C 36.573 63.977, 35.240 63.736, 23.223 63.249 C 10.204 62.721, 10 62.746, 10 64.856 M 67.300 87 C 67.300 90.025, 67.487 91.263, 67.716 89.750 C 67.945 88.237, 67.945 85.763, 67.716 84.250 C 67.487 82.737, 67.300 83.975, 67.300 87 M 67.894 115.750 C 67.810 132.749, 67.546 136.887, 66.681 134.695 C 65.755 132.345, 65.164 131.993, 63.040 132.526 C 59.689 133.367, 59.782 133.210, 59.228 138.978 L 58.746 144 63.303 144 C 67.232 144, 67.922 143.689, 68.303 141.750 L 68.746 139.500 69.490 141.750 C 70.171 143.813, 70.847 144, 77.617 144 C 81.677 144, 85 143.881, 85 143.736 C 85 143.474, 82.922 137.917, 79.400 128.761 C 77.310 123.328, 77.708 122.551, 83.625 120.521 C 89.320 118.568, 89.185 114.162, 83.363 111.948 C 82.142 111.484, 80.424 109.588, 79.544 107.735 C 78.665 105.882, 76.171 102.371, 74.001 99.933 C 71.832 97.495, 70.044 95.162, 70.028 94.750 C 70.013 94.338, 69.550 94, 69 94 C 68.367 94, 67.961 101.988, 67.894 115.750" stroke="none" fill="black" fill-rule="evenodd"/>
</svg>