<svg xmlns="http://www.w3.org/2000/svg" width="192" height="144" viewBox="0 0 192 144" version="1.1">
	<path d="M 0 72 L 0 144 20 144 L 40 144 40 72 L 40 0 20 0 L 0 0 0 72 M 77.967 2.412 C 78.471 3.739, 80.233 7.226, 81.882 10.162 C 83.531 13.098, 86.280 19.380, 87.989 24.123 C 90.549 31.225, 91.045 33.958, 90.799 39.623 L 90.500 46.500 78.122 46.710 C 64.195 46.947, 62.986 47.575, 62.420 54.883 L 62.140 58.500 65.056 55.250 L 67.972 52 79.379 52 C 91.541 52, 92.493 52.400, 91.288 57.008 C 90.781 58.944, 90.248 59.135, 86.860 58.594 C 83.303 58.025, 79 59.407, 79 61.119 C 79 61.470, 80.367 62.324, 82.038 63.016 C 83.709 63.708, 85.525 65.113, 86.073 66.137 C 86.622 67.162, 87.936 68, 88.995 68 C 90.402 68, 91.246 69.142, 92.132 72.250 C 94.854 81.788, 99.504 82.609, 102.250 74.035 C 104.425 67.247, 105.425 66.238, 111.492 64.717 C 118.964 62.844, 118.298 60.372, 109.836 58.572 C 107.494 58.074, 107.260 57.675, 107.900 55.282 C 108.800 51.917, 111.043 51.228, 121.500 51.106 C 129.378 51.014, 129.526 51.058, 131.203 54.006 C 133.019 57.198, 135 57.977, 135 55.500 C 135 54.675, 134.530 54, 133.956 54 C 133.382 54, 132.992 53.438, 133.090 52.750 C 133.187 52.063, 132.914 49.978, 132.482 48.117 L 131.697 44.735 121.841 45.414 L 111.986 46.093 110.993 43.481 C 110.447 42.045, 110 39.523, 110 37.876 C 110 36.229, 109.597 35.131, 109.105 35.435 C 108.612 35.740, 107.940 35.285, 107.610 34.425 C 107.212 33.388, 106.336 33.076, 105.005 33.498 C 103.902 33.848, 103 33.853, 103 33.508 C 103 31.510, 111.573 15.428, 115.309 10.418 C 117.736 7.163, 120.250 3.488, 120.896 2.250 L 122.070 0 99.560 0 L 77.050 0 77.967 2.412 M 152 72 L 152 144 172 144 L 192 144 192 72 L 192 0 172 0 L 152 0 152 72" stroke="none" fill="black" fill-rule="evenodd"/>
</svg>