<svg xmlns="http://www.w3.org/2000/svg" width="192" height="144" viewBox="0 0 192 144" version="1.1">
	<path d="M 142.720 1.494 C 140.091 2.217, 136.002 3.719, 133.634 4.832 L 129.328 6.856 123.523 3.928 C 119.105 1.699, 116.340 1, 111.947 1 C 103.482 1, 91.528 3.550, 88.095 6.088 C 84.807 8.519, 81.008 16.317, 80.985 20.685 C 80.976 22.233, 80.639 24.011, 80.235 24.636 C 78.720 26.977, 69.146 31.851, 67.108 31.318 C 65.595 30.922, 64.753 31.449, 63.897 33.327 C 62.135 37.193, 63.247 38.738, 67.664 38.566 C 71.887 38.401, 74.787 40.684, 78.985 47.476 C 80.361 49.703, 81.776 50.916, 82.619 50.593 C 84.052 50.043, 84.594 53.529, 84.236 61 L 84.068 64.500 86.034 62.139 C 87.802 60.016, 88.016 59.966, 88.158 61.639 C 88.244 62.663, 88.294 64.063, 88.269 64.750 C 88.243 65.438, 88.622 66, 89.111 66 C 89.600 66, 90 65.561, 90 65.025 C 90 64.413, 91.024 64.446, 92.750 65.114 C 94.263 65.699, 96.348 66.349, 97.385 66.557 C 99.874 67.059, 100.158 67.425, 99.462 69.238 C 99.069 70.262, 97.062 70.913, 93.347 71.221 C 90.305 71.473, 87.464 72.250, 87.033 72.947 C 86.495 73.818, 86.042 73.876, 85.583 73.134 C 84.284 71.033, 81.049 60.468, 81.025 58.250 C 80.977 53.857, 76.550 55.961, 73.525 61.814 C 69.026 70.519, 67.080 73.607, 64.688 75.839 L 62.181 78.178 64.669 81.839 L 67.157 85.500 52.625 86 C 44.632 86.275, 37.657 86.950, 37.124 87.500 C 36.497 88.147, 36.642 89.901, 37.535 92.468 C 39.029 96.765, 38.111 98.455, 34.834 97.436 C 31.671 96.453, 32.030 98.786, 35.443 101.389 C 37.326 102.825, 39.309 104, 39.850 104 C 40.391 104, 41.705 105.197, 42.770 106.659 C 44.699 109.307, 44.733 109.313, 50.951 108.089 C 54.385 107.414, 57.324 107.005, 57.483 107.181 C 57.641 107.356, 59.174 110.892, 60.890 115.037 C 64.331 123.351, 68.048 126.707, 72.562 125.574 C 73.903 125.237, 74.997 125.083, 74.994 125.231 C 74.895 129.837, 72.517 137.944, 70.484 140.610 L 67.898 144 92.604 144 C 116.410 144, 117.250 143.934, 115.667 142.184 C 112.769 138.982, 112.630 134.640, 115.137 125.542 C 117.487 117.013, 117.516 116.968, 120.350 117.584 C 122.975 118.154, 123.143 118.018, 122.484 115.851 C 121.299 111.950, 121.386 111.742, 124.583 110.870 C 126.397 110.375, 128.137 108.995, 128.811 107.515 C 129.442 106.132, 130.609 105, 131.406 105 C 135.462 105, 148.472 113.364, 161.318 124.230 L 165.135 127.459 168.318 125.579 C 176.875 120.523, 176.512 120.565, 182.250 123.952 C 185.138 125.656, 188.513 127.769, 189.750 128.647 L 192 130.244 192 110.135 L 192 90.026 182.750 94.965 C 171.349 101.051, 167.631 101.714, 156.990 99.558 C 149.722 98.085, 148.586 98.065, 147.136 99.377 C 145.677 100.697, 144.782 100.562, 138.999 98.153 L 132.500 95.447 132 89.272 C 131.725 85.877, 131.050 82.704, 130.500 82.222 C 129.950 81.741, 126.463 79.221, 122.750 76.623 C 116.234 72.063, 113.836 68.621, 117.918 69.689 C 119.285 70.046, 120.280 69.372, 121.378 67.345 L 122.920 64.500 122.960 67.250 C 123.013 70.903, 124.783 70.745, 126.381 66.946 C 127.505 64.271, 127.825 64.085, 128.955 65.446 C 130.600 67.428, 132.114 67.462, 131.362 65.500 C 130.997 64.550, 131.375 64, 132.393 64 C 134.179 64, 134.553 62.460, 133 61.500 C 131.132 60.345, 131.930 56.505, 134.250 55.487 C 137.121 54.228, 137.581 50.909, 135.579 45.906 C 134.711 43.736, 134 40.566, 134 38.863 C 134 35.358, 134.610 35.345, 143.234 38.655 C 147.846 40.426, 148.059 40.423, 151.555 38.540 C 153.528 37.478, 156.004 35.399, 157.057 33.920 C 158.947 31.265, 158.946 31.201, 156.953 28.668 L 154.936 26.104 158.984 26.591 C 164.447 27.250, 164.946 25.500, 161.494 17.806 C 159.620 13.630, 158.780 10.152, 158.854 6.867 C 158.940 3.075, 158.555 1.832, 157.047 1.025 C 154.521 -0.327, 148.639 -0.134, 142.720 1.494 M 68 91.059 C 68 91.641, 68.450 91.840, 69 91.500 C 69.550 91.160, 70 90.684, 70 90.441 C 70 90.198, 69.550 90, 69 90 C 68.450 90, 68 90.477, 68 91.059" stroke="none" fill="black" fill-rule="evenodd"/>
</svg>