<svg xmlns="http://www.w3.org/2000/svg" width="192" height="144" viewBox="0 0 192 144" version="1.1">
	<path d="M 0 72 L 0 144 36.026 144 L 72.051 144 70.433 140.870 C 68.981 138.063, 68.967 137.365, 70.299 134.120 C 71.115 132.129, 71.805 129.474, 71.832 128.220 C 71.858 126.967, 73.493 120.945, 75.464 114.838 C 77.435 108.732, 79.323 100.476, 79.660 96.492 L 80.273 89.248 76.386 89.374 L 72.500 89.500 72.745 83.908 C 72.972 78.721, 72.798 78.229, 70.336 77.107 C 68.228 76.147, 67.519 76.160, 66.893 77.173 C 66.292 78.145, 65.559 77.939, 63.803 76.304 C 62.209 74.820, 60.690 74.318, 58.867 74.674 C 57.419 74.957, 55.948 74.726, 55.599 74.160 C 55.022 73.227, 52.664 73.304, 44.816 74.511 C 42.870 74.810, 42.040 74.453, 41.797 73.212 C 41.466 71.526, 42.425 70.792, 50 66.933 C 51.925 65.953, 54.304 64.192, 55.288 63.020 C 57.227 60.709, 60.051 60.965, 63.213 63.740 C 64.155 64.566, 65.661 64.960, 66.561 64.615 C 67.558 64.233, 69.374 64.978, 71.210 66.523 C 74.414 69.219, 76.306 68.763, 77.497 65.010 C 77.959 63.553, 78.810 63.299, 81.857 63.708 C 84.581 64.073, 86.113 63.745, 87.321 62.536 C 89.126 60.731, 89.614 57, 88.046 57 C 87.521 57, 87.295 55.408, 87.544 53.463 C 87.831 51.223, 87.406 49.024, 86.387 47.467 C 84.422 44.469, 85.146 39.356, 88.058 35.653 C 89.417 33.926, 89.865 32.311, 89.447 30.646 C 88.976 28.768, 89.289 28.043, 90.774 27.572 C 91.844 27.232, 93.457 27.238, 94.359 27.584 C 95.461 28.007, 96 27.686, 96 26.607 C 96 24.632, 97.983 24.536, 100.517 26.389 C 101.562 27.153, 103.053 27.533, 103.832 27.234 C 104.611 26.935, 105.664 27.436, 106.173 28.346 C 106.683 29.255, 108.040 30, 109.189 30 C 111.601 30, 113.922 32.633, 113.968 35.421 C 113.986 36.478, 114.747 38.168, 115.661 39.178 C 117.166 40.840, 117.198 41.945, 116.011 50.918 C 115.062 58.084, 114.352 60.688, 113.440 60.339 C 112.748 60.073, 111.885 60.788, 111.523 61.928 C 110.843 64.071, 109 64.811, 109 62.941 C 109 62.359, 108.614 62.121, 108.142 62.412 C 107.670 62.704, 107.263 65.595, 107.236 68.837 C 107.209 72.078, 106.020 79.015, 104.593 84.250 C 103.167 89.486, 102 94.643, 102 95.711 C 102 97.918, 105.093 101.048, 109.500 103.298 C 115.262 106.241, 117.156 108.795, 116.524 112.772 C 116.209 114.753, 114.826 117.850, 113.451 119.653 C 111.060 122.787, 110.996 123.229, 111.989 129.716 C 112.560 133.447, 113.767 138.193, 114.671 140.262 L 116.314 144.023 154.407 143.762 L 192.500 143.500 192.757 71.750 L 193.013 0 96.507 0 L 0 0 0 72 M 0.474 72.500 C 0.474 112.100, 0.598 128.154, 0.750 108.176 C 0.901 88.198, 0.901 55.798, 0.750 36.176 C 0.598 16.554, 0.474 32.900, 0.474 72.500 M 90 60.441 C 90 63.628, 91.778 64.651, 93.800 62.628 C 95.279 61.150, 95.250 60.900, 93.455 59.542 C 90.703 57.461, 90 57.644, 90 60.441" stroke="none" fill="black" fill-rule="evenodd"/>
</svg>