<svg xmlns="http://www.w3.org/2000/svg" width="192" height="144" viewBox="0 0 192 144" version="1.1">
	<path d="M 94.278 66.093 C 91.289 67.199, 89.684 70.664, 90.326 74.624 C 90.727 77.095, 90.438 78.215, 89.223 78.895 C 87.700 79.748, 87.708 80.231, 89.333 85.386 L 91.088 90.956 86.544 100.019 C 84.045 105.004, 82 110.353, 82 111.906 C 82 115.441, 84.998 119.342, 88.982 120.993 C 91.493 122.032, 91.779 122.454, 90.600 123.378 C 88.273 125.202, 88.287 128.332, 90.635 130.898 C 92.636 133.084, 93.337 133.236, 98.599 132.617 C 101.772 132.244, 104.956 131.451, 105.675 130.855 C 106.394 130.258, 108.356 129.972, 110.035 130.218 C 113.398 130.712, 114.224 129.936, 114.670 125.858 C 114.973 123.094, 113.345 121.900, 108.715 121.488 C 105.501 121.202, 104.850 119.632, 105.936 114.786 C 106.676 111.483, 106.612 108.927, 105.701 105.376 C 104.591 101.050, 104.644 100.308, 106.174 98.801 C 107.687 97.310, 107.733 96.761, 106.543 94.301 C 105.799 92.761, 104.882 89.588, 104.507 87.250 C 104.131 84.912, 103.414 83, 102.912 83 C 102.410 83, 101.993 81.987, 101.985 80.750 C 101.976 79.513, 101.567 77.865, 101.075 77.088 C 100.493 76.168, 100.685 75.172, 101.625 74.232 C 103.065 72.792, 102.714 69.703, 100.845 67.358 C 99.532 65.712, 96.755 65.177, 94.278 66.093" stroke="none" fill="black" fill-rule="evenodd"/>
</svg>