<svg xmlns="http://www.w3.org/2000/svg" width="192" height="144" viewBox="0 0 192 144" version="1.1">
	<path d="M 0 35.583 L 0 71.166 7.250 64.593 C 23.624 49.749, 43.470 44.986, 64.222 50.921 C 73.388 53.542, 79.275 56.736, 88.330 64 C 89.358 64.825, 91.751 67.525, 93.646 70 C 107.956 88.686, 124.209 97.283, 145.500 97.431 C 156.248 97.505, 162.396 96.221, 170.500 92.207 C 183.712 85.664, 191.413 78.300, 192.374 71.290 C 192.718 68.777, 193 51.709, 193 33.360 L 193 0 96.500 0 L 0 0 0 35.583 M 0.451 36 C 0.451 55.525, 0.585 63.513, 0.748 53.750 C 0.912 43.988, 0.912 28.013, 0.748 18.250 C 0.585 8.488, 0.451 16.475, 0.451 36 M 126.898 16.286 C 120.497 20.591, 118.331 28.751, 121.995 34.759 C 126.223 41.694, 135.031 43.998, 141.656 39.903 C 145.929 37.263, 148.001 33.307, 147.996 27.800 C 147.987 16.863, 135.870 10.250, 126.898 16.286 M 50.223 99.661 C 39.640 104.877, 38.079 118.632, 47.186 126.427 C 49.462 128.376, 52.827 130.252, 54.663 130.597 C 64.895 132.516, 74.023 125.053, 73.984 114.800 C 73.938 102.847, 60.774 94.460, 50.223 99.661" stroke="none" fill="black" fill-rule="evenodd"/>
</svg>