<svg xmlns="http://www.w3.org/2000/svg" width="192" height="144" viewBox="0 0 192 144" version="1.1">
	<path d="M 0 72 L 0 144 13.893 144 C 26.194 144, 27.866 143.799, 28.480 142.250 C 28.861 141.287, 29.426 135.209, 29.734 128.742 C 30.226 118.429, 30.079 116.745, 28.536 115.040 C 26.852 113.179, 26.874 112.939, 29.072 109.383 C 31.423 105.579, 31.592 103.078, 30.884 82.500 C 30.677 76.497, 31.926 69, 33.132 69 C 33.609 69, 34 67.726, 34 66.170 C 34 63.960, 33.012 62.630, 29.500 60.107 C 25.638 57.334, 25 56.379, 25 53.372 C 25 48.784, 26.242 46.632, 30.355 44.089 C 38.395 39.121, 46.187 43.251, 49.359 54.163 C 50.262 57.268, 51 60.722, 51 61.839 C 51 62.956, 51.457 65.071, 52.015 66.538 C 53.441 70.291, 55.844 86.554, 57.919 106.500 C 59.474 121.440, 59.511 123.707, 58.225 125.210 C 56.697 126.996, 56.886 129.656, 59.224 139.257 L 60.382 144.014 126.441 143.757 L 192.500 143.500 192.520 71.500 C 192.531 31.900, 192.411 11.860, 192.254 26.966 C 192.096 42.073, 191.585 54.815, 191.119 55.281 C 189.672 56.728, 175.744 59.965, 170.886 59.983 C 154.087 60.045, 135.240 49.949, 127.108 36.532 C 122.314 28.621, 119.033 16.952, 119.015 7.750 L 119 0 59.500 0 L 0 0 0 72 M 0.474 72.500 C 0.474 112.100, 0.598 128.154, 0.750 108.176 C 0.901 88.198, 0.901 55.798, 0.750 36.176 C 0.598 16.554, 0.474 32.900, 0.474 72.500" stroke="none" fill="black" fill-rule="evenodd"/>
</svg>