<svg xmlns="http://www.w3.org/2000/svg" width="192" height="144" viewBox="0 0 192 144" version="1.1">
	<path d="M 0 57.057 L 0 114.115 4.250 113.807 L 8.500 113.500 8.757 107.500 C 9.145 98.456, 9.583 97.333, 12.987 96.653 C 15.660 96.118, 16 95.649, 16 92.494 C 16 90.255, 16.556 88.724, 17.500 88.362 C 18.325 88.045, 19 86.961, 19 85.952 C 19 84.943, 19.450 83.840, 20 83.500 C 20.565 83.151, 21 83.973, 21 85.391 C 21 86.771, 21.639 88.260, 22.420 88.700 C 23.201 89.140, 23.989 91.075, 24.170 93 C 24.426 95.720, 24.991 96.570, 26.703 96.813 C 29.565 97.220, 30.446 100.058, 30.099 107.750 C 29.918 111.770, 30.207 114, 30.909 114 C 31.509 114, 32 112.366, 32 110.368 C 32 108.370, 32.974 105.160, 34.165 103.233 C 36.218 99.911, 36.402 99.828, 37.724 101.615 C 38.491 102.652, 39.623 105.367, 40.240 107.648 C 41.236 111.336, 41.757 111.862, 44.930 112.387 C 46.894 112.712, 52.403 112.983, 57.173 112.989 C 64.957 112.999, 66.151 113.256, 68.818 115.500 C 70.452 116.875, 72.061 118, 72.394 118 C 72.727 118, 73 114.725, 73 110.723 C 73 105.754, 73.494 102.740, 74.557 101.223 C 76.620 98.277, 77.648 98.419, 79.447 101.897 C 80.696 104.313, 80.840 108.049, 80.314 124.397 L 79.684 144 135.682 144 L 191.681 144 192.338 120.750 C 192.700 107.963, 192.996 75.563, 192.998 48.750 L 193 0 96.500 0 L 0 0 0 57.057 M 0.468 57.500 C 0.468 88.850, 0.595 101.530, 0.750 85.679 C 0.904 69.827, 0.904 44.177, 0.749 28.679 C 0.594 13.180, 0.468 26.150, 0.468 57.500 M 118.999 34.001 C 116.562 36.752, 113.766 39.257, 112.784 39.568 C 109.942 40.470, 110.712 41.846, 114.250 42.187 L 117.500 42.500 117.617 49.083 C 117.695 53.452, 118.311 56.546, 119.450 58.284 C 120.394 59.724, 120.893 61.712, 120.559 62.701 C 119.527 65.762, 114.134 71, 112.014 71 C 110.906 71, 110.014 71.563, 110.032 72.250 C 110.075 73.952, 112.557 77.109, 113.282 76.385 C 113.603 76.064, 115.443 76.321, 117.371 76.957 C 119.758 77.745, 120.975 78.813, 121.188 80.307 C 121.659 83.618, 124.260 82.936, 125.215 79.250 C 125.678 77.463, 126.703 76, 127.493 76 C 129.176 76, 131 79.031, 131 81.827 C 131 82.905, 131.620 84.024, 132.378 84.315 C 134.137 84.990, 136 83.147, 136 80.733 C 136 79.265, 136.481 79.008, 138.250 79.534 C 139.488 79.901, 141.077 80.937, 141.782 81.836 C 142.940 83.312, 143.120 83.257, 143.643 81.259 C 144.108 79.479, 144.576 79.238, 146.041 80.022 C 147.878 81.005, 151 79.057, 151 76.929 C 151 76.418, 152.012 75.993, 153.250 75.985 C 154.537 75.976, 155.032 75.655, 154.407 75.235 C 152.719 74.099, 151.864 68.242, 153.289 67.570 C 154.223 67.130, 154.213 66.866, 153.244 66.415 C 152.553 66.093, 152.205 65.477, 152.471 65.047 C 152.737 64.616, 151.625 63.245, 150 62 C 148.375 60.755, 147.262 59.385, 147.527 58.956 C 147.792 58.527, 145.645 58.306, 142.755 58.465 C 136.279 58.821, 135.790 58.556, 137.200 55.460 C 138.760 52.035, 137.583 51.352, 133.487 53.305 C 130.008 54.964, 130 54.962, 130 52.552 C 130 51.007, 131.086 49.363, 133.012 47.992 C 134.668 46.812, 135.765 45.428, 135.448 44.916 C 135.131 44.404, 135.646 43.212, 136.590 42.267 C 138.214 40.643, 138.079 40.493, 134.116 39.524 C 129.480 38.391, 128.038 36.815, 128.015 32.857 C 128.002 30.544, 126.447 29, 124.133 29 C 123.746 29, 121.436 31.250, 118.999 34.001" stroke="none" fill="black" fill-rule="evenodd"/>
</svg>