<svg xmlns="http://www.w3.org/2000/svg" width="192" height="144" viewBox="0 0 192 144" version="1.1">
	<path d="M -0 72.005 L -0 144.010 96.250 143.755 L 192.500 143.500 192.757 71.750 L 193.013 0 96.507 0 L 0 0 -0 72.005 M 0.474 72.500 C 0.474 112.100, 0.598 128.154, 0.750 108.176 C 0.901 88.198, 0.901 55.798, 0.750 36.176 C 0.598 16.554, 0.474 32.900, 0.474 72.500 M 66.556 50.824 C 66.238 51.826, 66.709 54.113, 67.603 55.906 C 69.796 60.303, 69.134 69.583, 66.342 73.565 C 65.210 75.179, 64.049 77.783, 63.762 79.351 C 63.304 81.848, 63.659 82.377, 66.619 83.614 C 68.852 84.547, 70 85.702, 70 87.013 C 70 88.106, 70.450 89, 71 89 C 71.550 89, 72 88.100, 72 87 C 72 85.489, 72.672 84.996, 74.750 84.985 C 79.285 84.959, 79.740 84.065, 79.633 75.388 C 79.537 67.618, 79.690 67.040, 83.267 61.654 C 88.991 53.032, 88.650 52.358, 77.547 50.368 C 68.080 48.672, 67.228 48.707, 66.556 50.824" stroke="none" fill="black" fill-rule="evenodd"/>
</svg>