<svg xmlns="http://www.w3.org/2000/svg" width="192" height="144" viewBox="0 0 192 144" version="1.1">
	<path d="M 0 72 L 0 144 12.500 144 L 25 144 25 140.860 C 25 139.092, 24.277 137.192, 23.344 136.509 C 21.897 135.451, 21.838 134.699, 22.883 130.549 C 23.773 127.018, 23.790 125.452, 22.951 124.441 C 21.728 122.967, 22.518 117.385, 24.254 115.231 C 25.098 114.183, 25.727 109.410, 25.960 102.285 C 25.982 101.616, 27.395 99.481, 29.100 97.539 L 32.199 94.009 29.850 93.112 C 28.032 92.418, 26.992 92.681, 25.254 94.278 C 24.019 95.413, 22.821 96.152, 22.592 95.921 C 22.363 95.689, 22.773 90.775, 23.503 85 C 26.371 62.314, 26.403 61.631, 24.562 62.338 C 23.331 62.810, 14.586 59.442, 12.339 57.630 C 12.251 57.558, 11.863 55.813, 11.478 53.750 C 10.834 50.302, 10.962 50, 13.073 50 C 16.615 50, 23.975 46.097, 23.376 44.537 C 22.561 42.415, 24.800 32.045, 27.096 27.301 C 29.336 22.675, 34.808 18.757, 40.766 17.515 C 42.578 17.137, 44.804 15.717, 45.766 14.325 C 46.720 12.945, 48.687 10.410, 50.137 8.692 C 53.257 4.997, 54.424 5.547, 57.930 12.363 C 59.963 16.316, 60.626 16.814, 64.581 17.356 C 71.468 18.300, 78.411 23.474, 83.560 31.500 C 85.025 33.783, 85.491 36.338, 85.511 42.191 C 85.533 48.475, 85.932 50.417, 87.695 52.801 C 89.621 55.406, 89.690 55.881, 88.339 57.233 C 86.987 58.584, 87.013 59.429, 88.573 65.123 C 91.021 74.058, 95.601 83.022, 99.327 86.173 C 101.065 87.643, 102.155 89.178, 101.750 89.584 C 101.344 89.989, 100.100 89.496, 98.986 88.487 C 97.015 86.704, 96.876 86.715, 93.893 88.921 C 91.833 90.444, 90.117 90.974, 88.663 90.537 C 85.548 89.600, 76.394 88.694, 77.072 89.390 C 77.387 89.713, 80.537 91.445, 84.072 93.239 C 89.692 96.090, 90.523 96.877, 90.681 99.500 C 90.780 101.150, 91.820 105.200, 92.992 108.500 L 95.123 114.500 107.311 114.548 C 115.111 114.578, 120.940 115.102, 123.500 116.003 C 125.700 116.777, 127.901 117.297, 128.391 117.158 C 128.881 117.019, 130.906 117.692, 132.891 118.653 C 134.876 119.613, 136.976 120.482, 137.558 120.583 C 142.956 121.520, 158.294 133.197, 163.430 140.278 L 166.171 144.057 179.335 143.778 L 192.500 143.500 192.757 71.750 L 193.013 0 96.507 0 L 0 0 0 72 M 0.474 72.500 C 0.474 112.100, 0.598 128.154, 0.750 108.176 C 0.901 88.198, 0.901 55.798, 0.750 36.176 C 0.598 16.554, 0.474 32.900, 0.474 72.500 M 124.598 55.736 C 123.640 56.693, 123.909 61.826, 124.950 62.469 C 125.998 63.117, 128 59.969, 128 57.673 C 128 56.113, 125.591 54.742, 124.598 55.736 M 181.069 68.567 C 176.726 70.451, 174.871 71.983, 175.568 73.110 C 176.262 74.232, 180.920 71.851, 183.407 69.102 C 185.639 66.636, 185.560 66.618, 181.069 68.567" stroke="none" fill="black" fill-rule="evenodd"/>
</svg>