<svg xmlns="http://www.w3.org/2000/svg" width="192" height="144" viewBox="0 0 192 144" version="1.1">
	<path d="M 165.387 3 C 165.724 4.650, 166.271 7.318, 166.603 8.929 C 166.974 10.733, 167.693 11.671, 168.474 11.372 C 169.957 10.803, 173 13.550, 173 15.457 C 173 16.180, 173.672 18.060, 174.494 19.636 C 175.315 21.211, 175.990 24.637, 175.994 27.250 C 175.997 29.863, 176.450 32, 177 32 C 177.550 32, 178.013 32.563, 178.029 33.250 C 178.095 36.032, 183.795 40.790, 187.891 41.482 L 192 42.176 192 21.088 L 192 0 178.387 0 L 164.773 0 165.387 3" stroke="none" fill="black" fill-rule="evenodd"/>
</svg>