<svg xmlns="http://www.w3.org/2000/svg" width="192" height="144" viewBox="0 0 192 144" version="1.1">
	<path d="M -0 72.005 L -0 144.010 96.250 143.755 L 192.500 143.500 192.757 71.750 L 193.013 0 96.507 0 L 0 0 -0 72.005 M 0.474 72.500 C 0.474 112.100, 0.598 128.154, 0.750 108.176 C 0.901 88.198, 0.901 55.798, 0.750 36.176 C 0.598 16.554, 0.474 32.900, 0.474 72.500 M 83.498 31.004 C 83.220 31.452, 83.268 32.535, 83.604 33.410 C 84.017 34.486, 83.655 35, 82.485 35 C 79.926 35, 82.378 37.642, 87.236 40.120 L 91.105 42.094 88.803 44.033 L 86.500 45.973 88.681 47.736 C 92.139 50.532, 92.600 55.822, 89.750 60.005 L 87.369 63.500 77.934 63.209 C 72.745 63.049, 65.608 62.509, 62.073 62.009 C 58.538 61.510, 55.254 61.343, 54.774 61.639 C 53.476 62.442, 55.970 65, 58.051 65 C 59.044 65, 60.505 65.648, 61.298 66.441 C 62.090 67.233, 63.631 67.648, 64.721 67.363 C 65.812 67.077, 69.357 67.334, 72.598 67.934 C 76.540 68.662, 78.604 68.688, 78.829 68.012 C 79.015 67.455, 81.137 67, 83.544 67 C 86.729 67, 88.465 67.583, 89.914 69.138 C 91.545 70.889, 92.661 71.175, 96.076 70.717 C 101.414 70.001, 103 70.649, 103 73.548 C 103 76.133, 104.505 77.609, 105.500 76 C 105.851 75.432, 106.607 75.257, 107.181 75.612 C 108.820 76.625, 109.917 73.911, 108.923 71.298 C 107.664 67.985, 109.847 67.391, 114.105 69.886 C 115.972 70.980, 120.650 72.410, 124.500 73.063 C 128.350 73.716, 132.283 74.657, 133.241 75.155 C 134.430 75.773, 136.016 75.509, 138.241 74.322 C 140.033 73.366, 141.950 72.565, 142.500 72.542 C 143.050 72.519, 143.642 70.778, 143.815 68.673 C 144.074 65.530, 143.770 64.752, 142.112 64.319 C 141.001 64.029, 139.453 62.814, 138.671 61.621 C 137.339 59.587, 136.721 59.490, 128.874 60.080 C 123.215 60.505, 120.267 60.351, 119.782 59.604 C 119.387 58.997, 119.502 58.349, 120.038 58.165 C 122.382 57.357, 119.499 56, 115.441 56 C 111.173 56, 111 55.883, 111 53 C 111 49.470, 109.151 49.071, 106.479 52.024 C 105.080 53.569, 104.456 53.747, 103.839 52.774 C 102.256 50.279, 103.064 49.344, 107.958 48.011 C 110.685 47.269, 113.134 46.092, 113.401 45.396 C 113.898 44.103, 109.463 41.056, 103.392 38.519 C 101.017 37.527, 100.197 36.651, 100.617 35.555 C 101.322 33.719, 101.187 33.741, 104.399 34.962 C 108.901 36.673, 108.043 34.419, 103.320 32.125 C 98.167 29.621, 94.282 29.926, 91.449 33.057 C 89.228 35.511, 88 35.532, 88 33.117 C 88 31.197, 84.417 29.516, 83.498 31.004 M 92 46.115 C 92 47.254, 92.528 47.991, 93.188 47.771 C 95.039 47.154, 95.249 45.310, 93.542 44.655 C 92.461 44.240, 92 44.677, 92 46.115 M 93.170 59.124 C 91.889 61.351, 91.082 63.415, 91.377 63.710 C 92.355 64.688, 94.859 63.145, 96.596 60.494 C 98.066 58.250, 98.110 57.682, 96.904 56.477 C 95.699 55.272, 95.170 55.647, 93.170 59.124 M 111.813 59.683 C 112.534 59.972, 113.397 59.936, 113.729 59.604 C 114.061 59.272, 113.471 59.036, 112.417 59.079 C 111.252 59.127, 111.015 59.364, 111.813 59.683" stroke="none" fill="black" fill-rule="evenodd"/>
</svg>