<svg xmlns="http://www.w3.org/2000/svg" width="192" height="144" viewBox="0 0 192 144" version="1.1">
	<path d="M 75.500 21 C 73.587 22.267, 70.807 22.989, 67.827 22.993 C 61.015 23.003, 58.081 26.340, 54.010 38.711 C 51.336 46.834, 50.678 50.686, 50.144 61.346 C 49.560 72.993, 49.961 77.166, 51.336 73.756 C 51.615 73.064, 51.878 73.372, 51.921 74.441 C 51.999 76.363, 52.015 76.363, 53.468 74.441 C 54.838 72.630, 54.939 72.621, 54.968 74.309 C 54.986 75.304, 55.421 75.858, 55.935 75.540 C 56.450 75.222, 57.056 76.433, 57.284 78.231 C 57.658 81.196, 57.768 81.291, 58.465 79.250 C 59.772 75.423, 61.230 76.678, 60.500 81 C 60.056 83.630, 60.197 85, 60.912 85 C 62.998 85, 62.060 89.665, 59.750 90.780 C 57.871 91.686, 57.799 91.876, 59.316 91.932 C 60.971 91.994, 61.097 92.868, 60.735 101.750 C 60.301 112.372, 56.420 136.912, 54.251 142.750 C 53.890 143.720, 57.752 144, 71.524 144 L 89.262 144 88.656 140.265 C 88.233 137.659, 88.619 135.315, 89.932 132.515 C 91.572 129.016, 91.707 127.344, 90.978 119.500 C 89.795 106.765, 89.801 103.144, 91 105 C 91.862 106.333, 91.976 106.333, 92.025 105 C 92.189 100.542, 95.029 110.005, 96.475 119.831 C 98.179 131.410, 99.934 137.724, 102.561 141.734 C 103.859 143.715, 104.887 144, 110.740 144 C 114.578 144, 119.297 143.288, 121.803 142.331 C 125.543 140.903, 126.305 140.867, 127.087 142.081 C 127.813 143.209, 128.128 143.035, 128.622 141.229 C 129.114 139.434, 129.533 139.197, 130.622 140.101 C 131.672 140.973, 132 140.937, 132 139.951 C 132 139.240, 132.638 137.947, 133.419 137.079 C 136.761 133.360, 137.349 114.139, 134.499 101.747 L 133.176 95.994 135.838 95.404 C 141.587 94.130, 142.247 93.669, 144.070 89.653 C 146.721 83.815, 146.520 80.386, 143.354 77.452 C 141.412 75.652, 139.582 75, 136.476 75 C 131.100 75, 129.500 76.870, 129.500 83.154 C 129.500 87.654, 129.322 88.001, 127 88.009 C 125.625 88.014, 120.072 89.146, 114.661 90.525 L 104.821 93.031 99.669 90.266 C 96.630 88.634, 93.963 86.338, 93.164 84.665 C 92.098 82.435, 91.328 81.952, 89.549 82.398 C 87.667 82.871, 86.998 82.321, 85.555 79.122 C 82.933 73.307, 84.211 64.842, 88.220 61.468 C 90.698 59.383, 90.995 58.699, 89.961 57.453 C 89.276 56.627, 88.892 55.835, 89.107 55.693 C 89.323 55.550, 90.744 54.806, 92.265 54.040 C 96.202 52.055, 97.732 48.414, 96.828 43.184 C 96.090 38.918, 92.539 32, 91.087 32 C 90.674 32, 88.882 29.755, 87.105 27.012 C 84.258 22.619, 80.594 18.987, 79.027 19.007 C 78.737 19.010, 77.150 19.907, 75.500 21" stroke="none" fill="black" fill-rule="evenodd"/>
</svg>