<svg xmlns="http://www.w3.org/2000/svg" width="192" height="144" viewBox="0 0 192 144" version="1.1">
	<path d="M 0.014 72 L 0.002 144 31.001 144 C 58.740 144, 62 143.832, 62 142.401 C 62 141.522, 60.762 139.609, 59.250 138.151 C 57.737 136.693, 56.546 134.600, 56.602 133.500 C 56.658 132.400, 56.771 130.243, 56.852 128.707 C 57.049 124.985, 64.555 117.015, 73.298 111.244 C 78.024 108.124, 81.870 104.426, 85.917 99.109 C 89.118 94.904, 92.472 90.853, 93.369 90.109 C 94.266 89.364, 95 88.225, 95 87.577 C 95 85.128, 92.440 80.986, 91 81.106 C 86.357 81.491, 85.596 79.961, 89.538 78.165 L 92.075 77.009 91.687 65.310 C 91.333 54.657, 91.114 53.530, 89.236 52.692 C 86.777 51.595, 85.652 48.124, 87.164 46.302 C 87.962 45.340, 87.886 44.997, 86.872 44.989 C 86.118 44.983, 86.971 43.818, 88.770 42.401 C 90.568 40.984, 92.759 38.401, 93.639 36.662 C 97.531 28.969, 104.634 26.905, 111.405 31.500 C 113.431 32.875, 115.770 34, 116.603 34 C 117.574 34, 117.831 34.449, 117.321 35.250 C 116.882 35.938, 116.518 38.064, 116.512 39.975 C 116.502 42.789, 115.966 43.709, 113.694 44.807 C 112.151 45.552, 110.492 47.205, 110.007 48.480 C 109.523 49.755, 108.208 51.441, 107.085 52.228 C 105.074 53.636, 105.088 53.689, 108.008 55.848 C 109.638 57.053, 111.274 59.268, 111.644 60.769 C 112.014 62.271, 112.990 64.540, 113.814 65.812 C 115.152 67.878, 115.138 68.488, 113.678 71.549 C 111.526 76.063, 112.392 80.263, 116.702 86.213 C 119.773 90.452, 120.418 90.866, 123.112 90.328 C 125.481 89.854, 126.687 90.284, 128.879 92.384 C 131.791 95.174, 136.655 97, 141.175 97 C 142.653 97, 150.981 100.676, 159.681 105.168 C 182.083 116.736, 184.755 118.177, 182.500 117.473 C 181.400 117.130, 174.875 115.529, 168 113.916 C 149.598 109.598, 145.260 108.181, 137.297 103.885 C 133.336 101.748, 128.709 100, 127.015 100 C 123.260 100, 117.985 97.895, 116.128 95.655 C 114.528 93.726, 111.562 93.415, 112.265 95.250 C 112.528 95.938, 114.260 107.188, 116.113 120.250 L 119.483 144 149.801 144 C 169.758 144, 179.907 143.658, 179.500 143 C 179.160 142.450, 179.359 142, 179.941 142 C 180.523 142, 181 142.472, 181 143.050 C 181 143.696, 183.211 143.985, 186.750 143.800 L 192.500 143.500 192.744 71.750 L 192.987 0 96.506 0 L 0.026 0 0.014 72 M 0.434 25.500 C 0.433 39.250, 0.574 45.014, 0.747 38.308 C 0.919 31.603, 0.920 20.353, 0.748 13.308 C 0.576 6.264, 0.434 11.750, 0.434 25.500 M 123.604 5.590 C 122.771 7.761, 123.999 9.609, 125.110 7.857 C 126.236 6.079, 126.235 4, 125.107 4 C 124.616 4, 123.939 4.716, 123.604 5.590 M 33 22 C 33 23.111, 33.667 24, 34.500 24 C 36.183 24, 36.251 23.817, 35.393 21.582 C 34.536 19.347, 33 19.616, 33 22 M 116.500 24 C 116.840 24.550, 117.316 25, 117.559 25 C 117.802 25, 118 24.550, 118 24 C 118 23.450, 117.523 23, 116.941 23 C 116.359 23, 116.160 23.450, 116.500 24 M 0.462 97.500 C 0.461 123.350, 0.591 134.068, 0.749 121.319 C 0.907 108.569, 0.907 87.419, 0.749 74.319 C 0.591 61.218, 0.462 71.650, 0.462 97.500 M 83.459 90.067 C 83.096 90.653, 83.014 91.348, 83.276 91.610 C 83.538 91.872, 84.019 91.392, 84.345 90.543 C 85.021 88.781, 84.445 88.471, 83.459 90.067 M 41 107 C 41 107.550, 41.450 108, 42 108 C 42.550 108, 43 107.550, 43 107 C 43 106.450, 42.550 106, 42 106 C 41.450 106, 41 106.450, 41 107 M 152 117.819 C 152 119.027, 153.897 120.436, 154.591 119.743 C 154.842 119.491, 154.362 118.716, 153.524 118.020 C 152.574 117.231, 152 117.155, 152 117.819" stroke="none" fill="black" fill-rule="evenodd"/>
</svg>