<svg xmlns="http://www.w3.org/2000/svg" width="192" height="144" viewBox="0 0 192 144" version="1.1">
	<path d="M 0 72 L 0 144 13.864 144 L 27.728 144 29.511 139.250 C 30.491 136.637, 32.574 131.932, 34.139 128.794 C 36.322 124.416, 36.776 122.541, 36.090 120.738 C 35.599 119.445, 35.320 112.113, 35.471 104.444 C 35.753 90.162, 36.374 86.828, 41.484 72.182 C 42.888 68.157, 44.635 60.282, 45.367 54.682 C 46.886 43.049, 49.070 37.976, 54.783 32.815 C 57.922 29.979, 59.844 29.125, 64.355 28.561 C 70.548 27.788, 71.398 26.441, 68.398 22.158 C 66.469 19.404, 67.091 18.443, 69.849 19.919 C 72.846 21.523, 78.221 21.170, 80.529 19.217 C 81.645 18.273, 83.349 15.418, 84.315 12.872 C 86.258 7.755, 90 3.421, 90 6.288 C 90 7.167, 89.056 9.486, 87.901 11.443 C 86.129 14.447, 86.046 15, 87.370 15 C 89.199 15, 88.671 17.062, 85.770 21.249 C 83.432 24.624, 84.125 27.380, 88.290 31.271 L 91.300 34.083 87.654 33.837 C 81.982 33.455, 81.149 35.164, 84.588 40.127 C 88.715 46.082, 88.732 53.113, 84.629 56.642 C 82.792 58.223, 80.813 59.001, 79.129 58.806 C 77.002 58.558, 76.538 58.888, 76.700 60.534 C 76.824 61.794, 76.063 62.936, 74.700 63.534 C 71.859 64.781, 71.081 72.668, 73.443 76.273 C 74.296 77.574, 75.285 81.433, 75.642 84.850 C 75.999 88.267, 76.635 91.275, 77.055 91.534 C 78.071 92.162, 87.026 88.286, 89.286 86.241 C 90.559 85.089, 91.009 83.391, 90.850 80.331 C 90.728 77.970, 90.900 75.767, 91.232 75.435 C 91.563 75.103, 93.672 74.585, 95.917 74.284 C 98.952 73.877, 100.038 74.091, 100.148 75.118 C 100.229 75.878, 100.388 77.175, 100.500 78 C 100.612 78.825, 100.771 80.930, 100.852 82.677 C 100.983 85.493, 101.619 86.148, 106.438 88.427 C 109.429 89.842, 112.117 91, 112.412 91 C 113.418 91, 116 85.105, 116.004 82.800 C 116.006 81.535, 116.906 79.027, 118.004 77.226 C 121.193 71.995, 120.227 63, 116.477 63 C 115.566 63, 115.112 62.160, 115.262 60.750 C 115.463 58.845, 115.083 58.549, 112.778 58.818 C 111.272 58.994, 108.941 58.324, 107.560 57.318 C 105.382 55.733, 105.059 54.729, 105.031 49.473 C 104.999 43.281, 105.896 41.124, 110.660 35.938 L 113.014 33.376 109.409 29.165 C 107.223 26.610, 106.037 24.347, 106.395 23.413 C 106.720 22.566, 106.277 20.502, 105.410 18.827 C 104.458 16.986, 104.306 16.071, 105.025 16.515 C 105.884 17.046, 106.008 16.600, 105.471 14.908 C 104.757 12.659, 104.871 12.685, 108.291 15.532 C 110.252 17.165, 111.888 18.887, 111.928 19.360 C 111.968 19.833, 113.429 22.426, 115.176 25.122 C 117.294 28.390, 118.876 29.868, 119.926 29.559 C 127.904 27.207, 133.005 28.369, 138.226 33.728 C 143.213 38.846, 145.686 44.988, 146.541 54.380 C 147.245 62.098, 148.694 68.443, 152.964 82.500 C 154.594 87.864, 155.056 91.836, 154.941 99.500 C 154.640 119.627, 154.581 119.409, 160.739 120.944 C 170.517 123.383, 177.151 129.082, 182.122 139.315 C 184.377 143.955, 184.560 144.085, 188.472 143.797 L 192.500 143.500 192.757 71.750 L 193.013 0 96.507 0 L 0 0 0 72 M 0.474 72.500 C 0.474 112.100, 0.598 128.154, 0.750 108.176 C 0.901 88.198, 0.901 55.798, 0.750 36.176 C 0.598 16.554, 0.474 32.900, 0.474 72.500 M 84.500 97.065 C 80.594 99.552, 80.591 101.567, 84.493 101.279 C 87.459 101.059, 90.328 98.484, 89.701 96.603 C 89.147 94.941, 87.623 95.077, 84.500 97.065 M 102.180 97.240 C 102.532 99.705, 105.587 100.813, 107.302 99.098 C 108.089 98.311, 107.851 97.598, 106.446 96.536 C 103.560 94.353, 101.810 94.642, 102.180 97.240 M 93.978 104.567 C 93.297 106.630, 91.789 108.595, 90.400 109.227 C 89.080 109.829, 88.014 110.811, 88.032 111.411 C 88.070 112.729, 92.589 118, 93.681 118 C 94.867 118, 103.996 111.602, 103.998 110.769 C 104.002 109.143, 99.053 108.921, 96.157 110.419 C 92.709 112.202, 92 112.338, 92 111.219 C 92 110.790, 93.350 109.929, 95 109.306 C 97.992 108.177, 98.737 106.084, 97.393 102.582 C 96.421 100.049, 95.243 100.734, 93.978 104.567 M 116.188 104.063 C 116.428 104.784, 117.216 105.572, 117.938 105.813 C 118.688 106.063, 119.063 105.688, 118.813 104.938 C 118.572 104.216, 117.784 103.428, 117.063 103.188 C 116.313 102.938, 115.938 103.313, 116.188 104.063 M 83 113.764 C 83 114.735, 85.270 118.335, 88.045 121.764 C 94.597 129.861, 92.270 129.811, 84.498 121.687 L 78.458 115.374 74.521 117.111 C 71.751 118.333, 70.053 118.564, 68.792 117.889 C 67.449 117.170, 67 117.296, 67 118.392 C 67 121.532, 69.090 135.721, 70.146 139.750 L 71.260 144 98.266 144 L 125.272 144 124.636 139.360 C 124.286 136.809, 124 133.434, 124 131.860 C 124 129.590, 123.551 129, 121.826 129 L 119.651 129 121.738 126.750 C 123.436 124.918, 123.581 124.279, 122.518 123.310 C 121.800 122.656, 120.940 122.393, 120.607 122.727 C 120.273 123.060, 120 122.898, 120 122.367 C 120 121.835, 120.482 120.918, 121.072 120.328 C 121.835 119.565, 120.179 118.337, 115.335 116.070 L 108.526 112.883 101.714 116.442 C 97.968 118.399, 94.248 120, 93.448 120 C 92.649 120, 90.369 118.200, 88.381 116 C 84.442 111.639, 83 111.041, 83 113.764 M 162.500 143 C 162.160 143.550, 162.359 144, 162.941 144 C 163.523 144, 164 143.550, 164 143 C 164 142.450, 163.802 142, 163.559 142 C 163.316 142, 162.840 142.450, 162.500 143" stroke="none" fill="black" fill-rule="evenodd"/>
</svg>