<svg xmlns="http://www.w3.org/2000/svg" width="192" height="144" viewBox="0 0 192 144" version="1.1">
	<path d="M 40.053 1.436 C 39.398 2.225, 37.543 3.161, 35.931 3.515 C 33.911 3.959, 33 4.765, 33 6.111 C 33 7.184, 32.351 8.312, 31.557 8.616 C 29.861 9.267, 31.031 13.270, 33.820 16.356 C 35.140 17.818, 35.500 20.211, 35.500 27.532 L 35.500 36.848 28.753 40.116 L 22.006 43.384 19.964 41.192 C 17.562 38.613, 15.102 38.471, 9.088 40.565 C 2.499 42.860, 0.038 45.641, 0.017 50.816 C 0.002 54.679, 1.237 58.615, 2.900 60 C 3.230 60.275, 5.272 63.987, 7.439 68.250 C 10.975 75.208, 11.671 76, 14.254 76 C 17.579 76, 19.550 75.092, 26.652 70.288 C 30.189 67.895, 32.435 67.003, 33.819 67.443 C 39.644 69.291, 45 77.047, 45 83.631 C 45 85.738, 45.744 88.164, 46.720 89.243 C 48.351 91.046, 48.327 91.331, 46.249 94.821 C 45.044 96.845, 42.663 101.425, 40.957 105 C 32.024 123.726, 29.411 128.445, 25.579 132.770 C 23.274 135.372, 20.371 138.963, 19.126 140.750 L 16.864 144 49.432 144 C 80.885 144, 82 143.934, 82 142.079 C 82 135.267, 77.570 103.826, 76.142 100.500 C 74.141 95.841, 74.126 95.302, 75.908 92.086 C 77.490 89.232, 76.781 77.997, 74.414 68.404 L 72.910 62.308 75.678 59.154 C 77.200 57.419, 78.942 56, 79.548 56 C 80.783 56, 85 51.808, 85 50.580 C 85 50.145, 86.125 48.452, 87.500 46.818 C 88.875 45.184, 90 43.071, 90 42.123 C 90 41.175, 90.399 39.973, 90.888 39.450 C 93.298 36.870, 93.073 34.058, 90.216 31.069 C 87.677 28.412, 86.953 28.153, 84.236 28.932 C 81.885 29.607, 81.015 29.482, 80.604 28.409 C 79.991 26.814, 76.703 26.553, 74.184 27.901 C 72.853 28.613, 72.472 28.341, 72.368 26.602 C 72.256 24.719, 74.739 23.143, 89.618 15.653 C 99.178 10.841, 107 6.531, 107 6.074 C 107 5.618, 106.347 4.703, 105.548 4.040 C 104.371 3.063, 100.880 4.459, 87.106 11.417 C 77.762 16.138, 69.813 20, 69.443 20 C 69.073 20, 69.497 18.891, 70.385 17.535 C 73.388 12.952, 72.219 8.958, 66.217 3.297 L 62.720 0 51.983 0 C 43.872 0, 40.953 0.351, 40.053 1.436 M 98.500 7.866 C 96.850 8.774, 92.191 11.229, 88.148 13.322 C 84.104 15.416, 81.030 17.363, 81.317 17.651 C 81.865 18.198, 96.782 10.667, 100.997 7.715 C 104.058 5.571, 102.503 5.665, 98.500 7.866 M 75 20 C 73.075 21.054, 71.950 21.916, 72.500 21.916 C 73.050 21.916, 75.075 21.054, 77 20 C 78.925 18.946, 80.050 18.084, 79.500 18.084 C 78.950 18.084, 76.925 18.946, 75 20 M 29.750 42.297 C 26.038 44.021, 23 45.790, 23 46.228 C 23 46.666, 26.150 45.439, 30 43.500 C 33.850 41.561, 37 39.756, 37 39.487 C 37 38.879, 37.679 38.616, 29.750 42.297 M 26.013 47.130 C 19.599 49.974, 17.909 51.754, 18.645 54.890 C 19.615 59.019, 20.588 59.349, 22.860 56.321 C 24.025 54.770, 25.546 52.837, 26.239 52.027 C 33.110 44, 33.109 43.985, 26.013 47.130" stroke="none" fill="black" fill-rule="evenodd"/>
</svg>