<svg xmlns="http://www.w3.org/2000/svg" width="192" height="144" viewBox="0 0 192 144" version="1.1">
	<path d="M 0 35.617 L 0 71.233 2.250 70.558 C 13.832 67.084, 51.728 65.008, 103.680 65.003 L 137.861 65 138.180 62.750 C 138.626 59.612, 143 58.949, 143 62.019 C 143 64.300, 144.309 64.338, 154.858 62.365 C 157.660 61.841, 158.570 62.160, 160.358 64.294 C 162.267 66.572, 163.488 66.923, 171.575 67.517 L 180.649 68.185 182.500 65.360 C 183.518 63.806, 185.960 61.014, 187.926 59.155 L 191.500 55.776 192.070 63.138 C 192.383 67.187, 192.721 54.638, 192.820 35.250 L 193 0 96.500 0 L 0 0 0 35.617 M 0.451 36 C 0.451 55.525, 0.585 63.513, 0.748 53.750 C 0.912 43.988, 0.912 28.013, 0.748 18.250 C 0.585 8.488, 0.451 16.475, 0.451 36 M 165.456 73.072 C 165.043 73.739, 175.703 78, 177.785 78 C 178.810 78, 180.564 74.194, 179.841 73.541 C 179.101 72.871, 165.847 72.439, 165.456 73.072 M 30.500 74.073 C 22.800 74.501, 12.787 75.149, 8.250 75.515 L 0 76.180 0 110.095 L 0 144.010 96.250 143.755 L 192.500 143.500 192.530 109 C 192.547 90.025, 192.424 82.972, 192.258 93.326 C 192.028 107.648, 191.662 112.056, 190.728 111.749 C 190.052 111.528, 188.936 109.653, 188.246 107.583 C 187.179 104.380, 187.237 103.303, 188.634 100.359 C 189.929 97.629, 190.040 96.383, 189.159 94.450 C 188.545 93.102, 187.345 92, 186.493 92 C 185.640 92, 182.368 90.708, 179.221 89.129 C 176.075 87.551, 170.350 85.248, 166.500 84.012 C 153.500 79.839, 150.585 78.575, 147.288 75.679 C 144.400 73.144, 144 73.024, 144 74.696 C 144 79.352, 139.240 80.451, 138.350 76 L 137.750 73 91.125 73.148 C 65.481 73.230, 38.200 73.646, 30.500 74.073 M 0.450 110 C 0.450 128.975, 0.584 136.738, 0.748 127.250 C 0.913 117.762, 0.913 102.237, 0.748 92.750 C 0.584 83.262, 0.450 91.025, 0.450 110" stroke="none" fill="black" fill-rule="evenodd"/>
</svg>