<svg xmlns="http://www.w3.org/2000/svg" width="192" height="144" viewBox="0 0 192 144" version="1.1">
	<path d="M 0 32.500 L 0 65 5.364 65 L 10.728 65 11.368 60.331 C 12.140 54.699, 15.914 47.941, 19.657 45.489 C 21.164 44.502, 24.826 43.425, 27.795 43.097 C 33.019 42.519, 33.238 42.371, 34.581 38.500 C 35.345 36.300, 35.977 31.939, 35.985 28.809 C 35.993 25.679, 36.486 22.817, 37.081 22.450 C 37.682 22.078, 37.886 20.683, 37.541 19.306 C 36.228 14.078, 39.651 11.229, 43.966 13.958 C 45.923 15.196, 48 13.402, 48 10.475 C 48 8.813, 47.120 7.876, 44.750 7.013 C 41.618 5.873, 41.581 5.798, 43.750 4.947 C 45.056 4.435, 46 3.211, 46 2.032 C 46 0.048, 45.455 0, 23 0 L 0 0 0 32.500 M 65.371 3.231 C 65.637 5.665, 66.314 6.603, 68.112 7.031 C 69.737 7.417, 70.509 8.314, 70.527 9.838 C 70.558 12.436, 72.298 14.138, 88.500 27.410 C 102.617 38.975, 106.453 42.971, 109.068 48.833 C 111.303 53.845, 111.764 64.042, 109.750 63.932 C 109.063 63.894, 106.705 60.206, 104.512 55.737 C 101.252 49.092, 98.512 45.547, 89.499 36.305 C 83.435 30.087, 77.917 25, 77.237 25 C 76.557 25, 75.993 26.238, 75.985 27.750 C 75.976 29.262, 75.592 31.095, 75.131 31.822 C 74.092 33.461, 67.948 34.944, 62.071 34.976 C 56.792 35.005, 51 36.915, 51 38.628 C 51 40.310, 55.861 44, 58.076 44 C 59.069 44, 60.186 44.492, 60.558 45.094 C 60.985 45.785, 62.754 45.941, 65.367 45.517 C 67.640 45.148, 73.567 44.627, 78.537 44.359 C 86.694 43.920, 87.754 44.070, 89.409 45.899 C 90.621 47.239, 90.982 48.531, 90.473 49.713 C 90.049 50.696, 89.803 52.525, 89.927 53.778 C 90.072 55.255, 88.981 57.157, 86.825 59.183 C 84.719 61.164, 83.960 62.467, 84.756 62.740 C 85.447 62.977, 85.758 63.582, 85.447 64.085 C 85.109 64.633, 104.544 65, 133.941 65 C 176.882 65, 183 65.187, 183 66.500 C 183 67.815, 176.111 68, 127 68 C 92.675 68, 71 68.364, 71 68.941 C 71 69.459, 71.456 70.164, 72.014 70.509 C 73.202 71.243, 77 78.443, 77 79.960 C 77 80.532, 76.438 81.004, 75.750 81.010 C 75.063 81.015, 72.138 82.119, 69.250 83.464 C 63.452 86.163, 62.791 88.013, 65.221 94.734 C 66.683 98.778, 65.183 100.350, 60.750 99.419 C 58.435 98.932, 58 99.175, 58 100.956 C 58 102.119, 58.701 104.141, 59.559 105.449 C 61.012 107.667, 60.982 107.871, 59.122 108.461 C 58.025 108.810, 56.986 110.040, 56.813 111.195 C 56.371 114.161, 53.486 115.803, 51.250 114.362 C 49.835 113.450, 49.532 111.933, 49.665 106.445 C 49.831 99.658, 49.830 99.657, 45.426 95.376 C 42.353 92.389, 39.883 90.926, 37.260 90.536 C 21.085 88.133, 12.165 81.316, 10.552 70.126 C 10.377 68.912, 9.011 68.423, 5.159 68.198 L 0 67.895 0 105.953 L 0 144.010 96.250 143.755 L 192.500 143.500 192.846 139 C 193.036 136.525, 192.869 104.237, 192.475 67.250 L 191.759 0 136.290 0 C 80.923 0, 80.817 0.004, 79.098 2.127 C 77.833 3.690, 76.782 4.065, 75.135 3.543 C 73.338 2.972, 73.127 2.552, 74.070 1.416 C 75.057 0.226, 74.428 0, 70.131 0 L 65.017 0 65.371 3.231 M 0.454 106 C 0.454 127.175, 0.587 135.838, 0.749 125.250 C 0.911 114.663, 0.911 97.338, 0.749 86.750 C 0.587 76.163, 0.454 84.825, 0.454 106 M 50.500 92 C 51.495 93.100, 52.674 94, 53.120 94 C 53.565 94, 54.411 93.100, 55 92 C 55.980 90.168, 55.760 90, 52.380 90 C 48.753 90, 48.721 90.034, 50.500 92" stroke="none" fill="black" fill-rule="evenodd"/>
</svg>