<svg xmlns="http://www.w3.org/2000/svg" width="192" height="144" viewBox="0 0 192 144" version="1.1">
	<path d="M 0 16.453 C 0 35.225, 1.217 40.383, 4.800 36.800 C 5.587 36.013, 6 35.972, 6 36.681 C 6 37.276, 4.537 39.215, 2.750 40.989 L -0.500 44.216 2.892 43.497 L 6.284 42.779 4.142 45.078 C 0.701 48.771, 1.653 49.365, 6.591 46.605 C 10.645 44.339, 11.355 44.212, 12.662 45.520 C 14.447 47.304, 15.153 47.343, 18.453 45.839 C 19.999 45.135, 21 43.858, 21.001 42.589 C 21.002 38.680, 26.660 28.426, 30.624 25.148 C 36.468 20.317, 40.137 19.558, 51.306 20.875 C 56.548 21.494, 61.570 21.718, 62.466 21.375 C 63.369 21.028, 64.853 21.472, 65.797 22.372 C 66.734 23.264, 69.520 25.477, 71.990 27.290 C 79.317 32.669, 83.929 44.002, 81.838 51.488 C 81.212 53.727, 81.520 55.574, 83.063 58.857 C 85.359 63.742, 85.048 66, 82.077 66 C 79.690 66, 78.451 70.942, 79.383 76.744 C 80.747 85.237, 80.741 87.667, 79.358 87.667 C 78.611 87.667, 78 86.815, 78 85.774 C 78 84.734, 77.550 84.160, 77 84.500 C 76.450 84.840, 76 86.681, 76 88.590 C 76 90.732, 75.433 92.280, 74.521 92.630 C 72.451 93.425, 73.279 97.426, 75.599 97.834 C 78.163 98.285, 80.220 101.030, 79.051 102.439 C 78.478 103.128, 78.922 105.973, 80.232 110.021 C 81.386 113.585, 82.467 117.063, 82.634 117.750 C 82.801 118.438, 83.851 119, 84.969 119 C 87.396 119, 87.378 118.851, 85.500 123.346 C 83.500 128.133, 83.575 128.701, 86.570 131.477 C 89.051 133.777, 89.082 133.946, 87.459 136.422 C 86.396 138.044, 86.011 139.906, 86.409 141.493 C 87.035 143.987, 87.098 144, 98.519 144 C 110.058 144, 112.566 143.126, 107.568 140.849 C 104.624 139.508, 102.550 134.930, 103.382 131.613 C 104.071 128.870, 117.936 116, 120.203 116 C 124.287 116, 125.362 129.123, 121.884 136.524 C 120.720 139, 119.370 141.271, 118.884 141.572 C 115.483 143.674, 120.957 144.004, 155.250 143.762 L 192.500 143.500 192.647 71.750 L 192.794 0 96.397 0 L 0 0 0 16.453 M 0.409 17.500 C 0.408 26.850, 0.558 30.810, 0.743 26.299 C 0.928 21.789, 0.929 14.139, 0.745 9.299 C 0.562 4.460, 0.410 8.150, 0.409 17.500 M 8.573 31.154 C 7.708 32.888, 7 34.563, 7 34.876 C 7 35.743, 9.582 31.735, 10.302 29.750 C 11.341 26.888, 10.266 27.760, 8.573 31.154 M 5.500 48.569 C 3.300 49.340, 1.387 49.977, 1.250 49.985 C 0.286 50.043, 1.263 53.003, 2.250 53.015 C 3.228 53.027, 3.222 53.207, 2.222 53.841 C 1.258 54.453, 1.013 58.270, 1.222 69.381 L 1.500 84.111 6.744 79.305 C 13.040 73.537, 21.363 60.328, 18.121 61.250 C 17.638 61.387, 15.167 59.957, 12.629 58.070 C 8.630 55.097, 8.194 54.431, 9.352 53.070 C 10.091 52.201, 10.423 50.533, 10.094 49.335 C 9.526 47.262, 9.328 47.229, 5.500 48.569 M 94 57.393 C 94 59.163, 96.721 60.261, 97.596 58.845 C 97.959 58.257, 97.636 57.384, 96.878 56.904 C 94.896 55.648, 94 55.800, 94 57.393 M 125.500 75 C 125.160 75.550, 125.359 76, 125.941 76 C 126.523 76, 127 75.550, 127 75 C 127 74.450, 126.802 74, 126.559 74 C 126.316 74, 125.840 74.450, 125.500 75 M 1 115 L 1 144 3.383 144 C 5.186 144, 5.898 143.330, 6.306 141.250 C 6.603 139.738, 6.431 138.073, 5.923 137.550 C 4.671 136.261, 4.749 132, 6.025 132 C 7.645 132, 9.297 126.893, 9.166 122.287 C 9.094 119.738, 9.570 117.763, 10.372 117.287 C 12.306 116.139, 15.700 104.733, 14.251 104.250 C 12.231 103.577, 14.069 101.150, 18.615 98.485 C 23.816 95.438, 23.518 94, 17.686 94 C 14.164 94, 12.806 93.357, 9.243 90 C 6.907 87.800, 4.097 86, 2.998 86 C 1.047 86, 1 86.676, 1 115 M 69 143 C 69 143.550, 69.477 144, 70.059 144 C 70.641 144, 70.840 143.550, 70.500 143 C 70.160 142.450, 69.684 142, 69.441 142 C 69.198 142, 69 142.450, 69 143" stroke="none" fill="black" fill-rule="evenodd"/>
</svg>