<svg xmlns="http://www.w3.org/2000/svg" width="192" height="144" viewBox="0 0 192 144" version="1.1">
	<path d="M -0 72.005 L -0 144.010 96.250 143.755 L 192.500 143.500 192.757 71.750 L 193.013 0 96.507 0 L 0 0 -0 72.005 M 0.474 72.500 C 0.474 112.100, 0.598 128.154, 0.750 108.176 C 0.901 88.198, 0.901 55.798, 0.750 36.176 C 0.598 16.554, 0.474 32.900, 0.474 72.500 M 135.471 67.347 L 134.819 71.693 104.224 72.401 C 87.397 72.790, 73.002 73.459, 72.236 73.888 C 71.305 74.409, 73.106 75.441, 77.672 77.001 C 83.957 79.150, 86.547 79.370, 110.250 79.777 L 136 80.218 136 84.042 C 136 86.981, 136.460 88.011, 137.991 88.497 C 140.840 89.401, 141.737 88.514, 142.493 84.044 C 143.128 80.281, 143.364 80.068, 147.598 79.433 C 151.916 78.786, 159.564 79.297, 165.356 80.621 C 167.288 81.063, 168.497 80.825, 169.091 79.887 C 170.310 77.962, 170.221 72.255, 168.960 71.475 C 168.388 71.122, 164.750 71.367, 160.875 72.021 C 156.921 72.688, 151.455 72.912, 148.415 72.533 L 143 71.856 143 68.035 C 143 64.132, 141.871 63, 137.979 63 C 136.555 63, 135.971 64.012, 135.471 67.347" stroke="none" fill="black" fill-rule="evenodd"/>
</svg>