<svg xmlns="http://www.w3.org/2000/svg" width="192" height="144" viewBox="0 0 192 144" version="1.1">
	<path d="M 63.755 4.805 C 65.071 18.500, 58.319 35.724, 47.835 45.412 C 35.421 56.884, 13.613 63.060, 1.750 58.464 C 0.100 57.825, 0 60.247, 0 100.893 L 0 144 52.906 144 L 105.812 144 106.518 138.750 C 106.906 135.863, 108.739 128.994, 110.591 123.488 C 112.444 117.981, 115.098 107.885, 116.489 101.052 C 119.505 86.247, 119.176 79.817, 115.273 77.259 C 113.307 75.971, 112.899 74.995, 113.210 72.327 C 113.662 68.457, 113.809 68.530, 109.773 70.617 C 107.143 71.977, 106.474 72.017, 105.572 70.865 C 104.934 70.050, 102.069 69.372, 98.500 69.192 C 95.200 69.025, 90.025 68.486, 87 67.995 C 77.565 66.461, 73.964 66.441, 73.052 67.917 C 71.878 69.816, 69 68.502, 69 66.067 C 69 62.596, 71.918 62.017, 85.119 62.868 C 95.558 63.540, 97.971 63.417, 100.500 62.083 C 102.150 61.212, 103.842 59.970, 104.259 59.322 C 104.769 58.531, 105.965 58.416, 107.906 58.973 C 111.461 59.993, 120 58.312, 120 56.593 C 120 55.909, 118.875 54.292, 117.500 53 C 116.125 51.708, 115 50.107, 115 49.441 C 115 48.775, 113.830 47.464, 112.401 46.527 C 110.194 45.081, 109.873 44.271, 110.271 41.162 C 110.594 38.642, 110.131 36.486, 108.789 34.250 C 107.061 31.373, 107.017 30.931, 108.411 30.396 C 110.992 29.405, 126.515 32.027, 129.761 34.001 C 131.774 35.225, 133.336 37.432, 134.479 40.665 C 135.419 43.324, 136.933 46.850, 137.844 48.500 C 138.755 50.150, 139.812 55.100, 140.193 59.500 C 140.574 63.900, 141.591 74.250, 142.453 82.500 C 143.315 90.750, 144.027 101.039, 144.036 105.365 C 144.049 112.712, 144.413 114.049, 149.566 125.693 C 152.599 132.548, 155.346 139.481, 155.670 141.100 L 156.259 144.044 174.379 143.772 L 192.500 143.500 192.825 129 C 193.003 121.025, 192.837 88.737, 192.455 57.250 L 191.761 0 127.527 -0 L 63.294 -0 63.755 4.805 M 0.459 101 C 0.459 124.925, 0.589 134.713, 0.749 122.750 C 0.908 110.788, 0.908 91.213, 0.749 79.250 C 0.589 67.288, 0.459 77.075, 0.459 101" stroke="none" fill="black" fill-rule="evenodd"/>
</svg>