<svg xmlns="http://www.w3.org/2000/svg" width="192" height="144" viewBox="0 0 192 144" version="1.1">
	<path d="M 0 72 L 0 144 23.250 143.968 C 42.122 143.942, 46.866 143.660, 48.444 142.466 C 50.366 141.012, 50.366 140.967, 48.376 138.302 C 47.270 136.820, 45.109 135.272, 43.575 134.862 C 42.040 134.451, 40.046 133.450, 39.143 132.636 C 38.239 131.822, 36.188 130.828, 34.585 130.428 C 32.982 130.028, 30.619 128.786, 29.333 127.668 L 26.995 125.635 29.192 123.296 C 30.400 122.009, 31.503 120.179, 31.642 119.228 C 32.082 116.218, 36.690 113.526, 47.250 110.109 C 52.887 108.285, 59.323 105.748, 61.551 104.471 C 66.615 101.569, 74.162 95.358, 76.953 91.796 L 79.072 89.093 75.420 85.746 L 71.767 82.399 73.046 76.449 C 73.750 73.177, 74.687 69.770, 75.130 68.878 C 75.572 67.985, 75.571 65.960, 75.127 64.378 C 74.683 62.795, 74.650 60.297, 75.053 58.827 C 75.698 56.473, 75.410 56.006, 72.643 54.912 C 70.914 54.229, 68.674 52.965, 67.664 52.103 C 65.960 50.647, 65.627 50.782, 63.026 53.969 C 60.754 56.752, 59.560 57.384, 56.725 57.304 C 53.913 57.224, 53.004 57.695, 52.087 59.708 C 51.087 61.904, 50.518 62.132, 47.473 61.561 C 44.726 61.046, 44 61.232, 44 62.455 C 44 64.678, 42.363 64.356, 40.557 61.777 C 37.452 57.345, 39.252 45.136, 44.633 34.138 C 48.430 26.378, 60.699 14.277, 68.500 10.599 C 81.506 4.467, 90.056 3.147, 101.500 5.502 C 105.900 6.407, 110.513 7.800, 111.750 8.597 C 113.934 10.003, 114.879 13, 113.139 13 C 112.665 13, 112.493 14.126, 112.756 15.502 C 113.166 17.650, 112.793 18.091, 110.117 18.627 C 108.184 19.013, 106.988 19.867, 106.968 20.875 C 106.916 23.532, 104.490 25.952, 101.223 26.605 C 99.131 27.024, 97.978 27.952, 97.580 29.539 C 97.259 30.816, 96.342 32.515, 95.542 33.315 C 94.344 34.513, 94.300 35.335, 95.293 37.971 C 96.415 40.946, 96.301 41.342, 93.676 43.602 C 92.122 44.938, 90.439 47.471, 89.934 49.230 C 89.154 51.950, 89.427 53.016, 91.759 56.371 C 93.266 58.540, 95.889 62.381, 97.587 64.907 C 99.285 67.433, 102.588 71.525, 104.927 74 C 107.266 76.475, 109.591 79.545, 110.093 80.823 C 111.327 83.963, 114.535 83.330, 114.403 79.973 C 114.349 78.613, 113.964 76.713, 113.546 75.750 C 112.378 73.059, 114.711 73.629, 116.587 76.493 C 120.072 81.811, 114.807 88.069, 109.676 84.708 C 107.424 83.231, 107.044 83.286, 103.689 85.566 C 101.718 86.905, 99.345 88, 98.416 88 C 96.592 88, 96.563 86.533, 98.932 114 C 99.471 120.254, 99.403 123.721, 98.731 124.148 C 98.044 124.585, 98.084 126.277, 98.856 129.341 C 99.485 131.841, 100 136.166, 100 138.953 L 100 144.020 146.250 143.760 L 192.500 143.500 192.757 71.750 L 193.013 0 96.507 0 L 0 0 0 72 M 0.474 72.500 C 0.474 112.100, 0.598 128.154, 0.750 108.176 C 0.901 88.198, 0.901 55.798, 0.750 36.176 C 0.598 16.554, 0.474 32.900, 0.474 72.500 M 130 6.500 C 130 7.325, 130.730 8, 131.622 8 C 132.951 8, 133.020 7.729, 132 6.500 C 131.315 5.675, 130.585 5, 130.378 5 C 130.170 5, 130 5.675, 130 6.500 M 12 18 C 12 18.550, 12.900 19, 14 19 C 15.100 19, 16 18.550, 16 18 C 16 17.450, 15.100 17, 14 17 C 12.900 17, 12 17.450, 12 18 M 177 19 C 177 19.550, 178.152 20, 179.559 20 C 181.010 20, 181.851 19.567, 181.500 19 C 181.160 18.450, 180.009 18, 178.941 18 C 177.873 18, 177 18.450, 177 19 M 130.564 25.293 C 130.940 26.279, 131.499 26.834, 131.807 26.526 C 132.115 26.219, 131.808 25.412, 131.124 24.733 C 130.136 23.753, 130.022 23.868, 130.564 25.293 M 181.046 30.086 C 181.660 31.233, 182.361 31.972, 182.605 31.729 C 183.304 31.029, 181.886 28, 180.858 28 C 180.347 28, 180.432 28.938, 181.046 30.086 M 101 38.441 C 101 39.298, 101.450 40, 102 40 C 102.550 40, 103 39.577, 103 39.059 C 103 38.541, 102.550 37.840, 102 37.500 C 101.450 37.160, 101 37.584, 101 38.441 M 127.667 45.667 C 127.300 46.033, 127 46.798, 127 47.367 C 127 47.993, 127.466 47.934, 128.183 47.217 C 128.834 46.566, 129.134 45.801, 128.850 45.517 C 128.566 45.233, 128.033 45.300, 127.667 45.667 M 83.500 53 C 83.160 53.550, 83.558 54, 84.384 54 C 85.211 54, 86.475 54.788, 87.193 55.750 C 87.912 56.712, 89.374 58.175, 90.442 59 C 92.168 60.333, 92.286 60.333, 91.506 59 C 87.872 52.789, 84.973 50.617, 83.500 53 M 64.469 62.050 C 63.519 63.588, 64.820 64.580, 66.104 63.296 C 66.822 62.578, 66.839 62.019, 66.156 61.597 C 65.596 61.251, 64.837 61.455, 64.469 62.050 M 105.500 65 C 105.840 65.550, 106.541 66, 107.059 66 C 107.577 66, 108 65.550, 108 65 C 108 64.450, 107.298 64, 106.441 64 C 105.584 64, 105.160 64.450, 105.500 65 M 174 66.083 C 174 68.520, 176.337 68.176, 176.823 65.667 C 177.015 64.680, 176.505 64, 175.573 64 C 174.646 64, 174 64.855, 174 66.083 M 96.763 72.750 C 96.507 74.263, 96.119 76.164, 95.899 76.976 C 95.251 79.372, 99.323 79.349, 100.810 76.949 C 101.914 75.168, 101.870 74.451, 100.537 72.417 C 98.470 69.261, 97.335 69.361, 96.763 72.750 M 64.813 75.683 C 65.534 75.972, 66.397 75.936, 66.729 75.604 C 67.061 75.272, 66.471 75.036, 65.417 75.079 C 64.252 75.127, 64.015 75.364, 64.813 75.683 M 3 85.031 C 3 85.564, 3.675 86, 4.500 86 C 6.421 86, 6.421 85.375, 4.500 84.638 C 3.675 84.322, 3 84.499, 3 85.031 M 158 105.965 C 158 107.249, 161.991 109.342, 162.834 108.499 C 163.199 108.135, 162.624 107.198, 161.557 106.418 C 159.299 104.767, 158 104.601, 158 105.965 M 179 117 C 179 117.550, 179.477 118, 180.059 118 C 180.641 118, 180.840 117.550, 180.500 117 C 180.160 116.450, 179.684 116, 179.441 116 C 179.198 116, 179 116.450, 179 117 M 22.229 118.188 C 22.447 118.841, 23.160 119.553, 23.813 119.771 C 24.544 120.015, 24.767 119.557, 24.394 118.584 C 23.696 116.766, 21.629 116.388, 22.229 118.188 M 17.029 133.961 C 16.220 134.473, 15.818 135.151, 16.136 135.469 C 16.924 136.257, 20 135.002, 20 133.893 C 20 132.753, 18.899 132.778, 17.029 133.961 M 112 134.878 C 112 136.988, 114.841 138.156, 117.071 136.962 C 118.822 136.025, 118.988 135.606, 117.885 134.908 C 116.084 133.767, 112 133.746, 112 134.878" stroke="none" fill="black" fill-rule="evenodd"/>
</svg>