<svg xmlns="http://www.w3.org/2000/svg" width="192" height="144" viewBox="0 0 192 144" version="1.1">
	<path d="M 95 79.470 C 95 80.279, 93.635 81.949, 91.967 83.182 C 89.582 84.946, 89.047 85.967, 89.462 87.962 C 91.186 96.252, 91.135 97.822, 89.122 98.461 C 87.230 99.062, 87.163 99.875, 87.523 118.013 C 87.729 128.422, 88.196 138.527, 88.560 140.469 L 89.223 144 97.077 144 C 105.574 144, 111.541 142.020, 112.541 138.870 C 113.127 137.025, 110.807 131.617, 108.934 130.459 C 108.339 130.092, 105.836 126.644, 103.370 122.797 C 98.377 115.007, 97.956 111.540, 102 111.515 C 104.341 111.501, 104.519 111.133, 104.800 105.738 C 105.032 101.290, 104.751 99.842, 103.569 99.388 C 102.446 98.957, 102.290 98.327, 102.983 97.032 C 103.504 96.059, 103.693 95.026, 103.404 94.737 C 103.114 94.448, 102.851 92.285, 102.818 89.932 C 102.776 86.867, 102.084 84.925, 100.380 83.087 C 99.071 81.675, 98 79.953, 98 79.260 C 98 78.567, 97.325 78, 96.500 78 C 95.675 78, 95 78.662, 95 79.470 M 35 82.927 C 35 84.726, 32.755 86.986, 28.365 89.605 C 26.840 90.514, 26.736 90.977, 27.774 92.228 C 28.467 93.063, 28.747 94.495, 28.396 95.410 C 28.045 96.326, 28.419 97.845, 29.227 98.787 C 31.434 101.360, 31.978 103.622, 30.697 104.903 C 30.067 105.533, 29.314 108.354, 29.025 111.171 C 28.643 114.903, 27.958 116.593, 26.504 117.397 C 25.407 118.003, 23.382 119.222, 22.004 120.103 C 17.772 122.814, 12.203 123.203, 9.946 120.946 C 7.924 118.924, 6.070 118.607, 2.250 119.630 C 0.215 120.176, 0 120.842, 0 126.617 C 0 130.325, 0.431 133, 1.029 133 C 1.595 133, 6.612 135.475, 12.177 138.500 L 22.297 144 37.649 144 C 46.092 144, 53 143.762, 53 143.471 C 53 143.180, 50.534 138.405, 47.520 132.859 L 42.040 122.776 42.978 116.149 C 43.734 110.816, 43.629 109.083, 42.444 107.275 C 41.111 105.239, 41.162 104.838, 42.986 103.014 C 45.287 100.713, 45.379 100.126, 44 96.500 C 43.356 94.806, 43.341 93.231, 43.959 92.076 C 44.724 90.648, 44.419 90.056, 42.459 89.163 C 41.107 88.547, 40 87.203, 40 86.176 C 40 84.419, 37.141 81, 35.671 81 C 35.302 81, 35 81.867, 35 82.927 M 159 83.443 C 159 85.308, 155.059 92, 153.961 92 C 153.497 92, 153.764 93.237, 154.553 94.750 C 155.342 96.263, 155.990 98.542, 155.994 99.816 C 155.997 101.089, 156.442 102.957, 156.982 103.966 C 157.711 105.328, 157.582 105.946, 156.482 106.369 C 154.529 107.118, 154.582 111.408, 156.564 113.053 C 157.759 114.045, 158.020 115.690, 157.672 120.039 C 157.421 123.167, 156.760 126.580, 156.203 127.621 C 155.645 128.663, 154.523 131.987, 153.709 135.008 C 152.894 138.029, 151.904 141.287, 151.507 142.250 C 150.841 143.866, 151.826 144, 164.393 144 C 171.877 144, 178 143.855, 178 143.677 C 178 143.500, 176.730 140.687, 175.178 137.427 C 169.628 125.769, 169.535 125.357, 171.488 121.027 C 172.567 118.634, 172.999 116.133, 172.605 114.562 C 171.805 111.373, 173.661 111.209, 179.670 113.937 C 182.565 115.252, 185.089 115.664, 187.920 115.284 C 191.377 114.820, 192 114.379, 192 112.393 C 192 110.345, 191.053 109.761, 184.509 107.775 C 180.390 106.524, 177.015 105.207, 177.009 104.849 C 177.004 104.491, 178.994 101.798, 181.431 98.863 C 183.867 95.929, 185.649 93.315, 185.389 93.055 C 184.897 92.564, 179.979 97.854, 177.324 101.730 C 176.151 103.442, 175.064 103.865, 172.648 103.548 C 170.917 103.321, 169.156 103.105, 168.737 103.067 C 168.317 103.030, 168.652 101.376, 169.481 99.391 C 170.425 97.133, 170.766 94.388, 170.393 92.055 C 169.892 88.923, 169.238 88.126, 166.297 87.063 C 164.372 86.367, 161.943 84.943, 160.899 83.899 C 159.455 82.455, 159 82.346, 159 83.443 M 25.028 123.549 L 21.556 126 24.528 125.968 C 27.721 125.934, 31 123.994, 31 122.140 C 31 120.360, 28.816 120.875, 25.028 123.549" stroke="none" fill="black" fill-rule="evenodd"/>
</svg>