<svg xmlns="http://www.w3.org/2000/svg" width="192" height="144" viewBox="0 0 192 144" version="1.1">
	<path d="M 90.433 2.250 C 89.338 5.759, 87.805 6.082, 85.263 3.339 C 83.861 1.826, 82.306 1.052, 81.380 1.408 C 80.531 1.733, 78.748 2, 77.418 2 C 75.413 2, 75 2.498, 75 4.918 C 75 9.189, 75.957 11, 78.214 11 C 79.741 11, 80.035 11.414, 79.455 12.750 C 77.661 16.884, 77.925 20.665, 80.378 25.947 C 82.366 30.227, 82.780 32.329, 82.310 35.758 C 81.716 40.091, 81.731 40.119, 84.606 39.810 C 87.454 39.505, 87.510 39.595, 88.109 45.500 C 88.444 48.800, 89.202 52.969, 89.794 54.765 C 91.726 60.633, 90.367 63.921, 82.658 72.023 C 72.251 82.961, 71.081 83.813, 62.048 87.042 C 49.942 91.369, 46.101 94.278, 42.303 102 C 38.367 110.001, 38.299 111.303, 41.678 113.961 C 46.226 117.539, 57.257 122.314, 60.676 122.186 C 62.461 122.119, 64.626 122.769, 65.488 123.631 C 66.629 124.772, 70.381 125.427, 79.278 126.039 C 86 126.501, 91.512 126.907, 91.526 126.940 C 91.541 126.973, 91.371 128.912, 91.149 131.250 C 90.885 134.032, 89.949 136.240, 88.438 137.642 C 86.890 139.079, 86.312 140.477, 86.682 141.892 C 87.214 143.928, 87.795 144, 103.571 144 L 119.909 144 120.491 140.750 C 120.811 138.963, 120.944 134.575, 120.786 131 L 120.500 124.500 130.500 123.832 C 146.816 122.742, 147.420 122.533, 149.852 117.155 C 152.529 111.235, 152.247 103.231, 149.149 97.237 C 146.147 91.428, 138.107 85.783, 126 80.985 L 119.500 78.408 119.356 65.954 C 119.208 53.194, 116.935 42.852, 113.414 38.921 C 111.337 36.603, 111.647 34, 114 34 C 115.100 34, 115.947 33.663, 115.882 33.250 C 115.489 30.761, 116.319 30, 119.429 30 C 121.314 30, 123.614 29.243, 124.539 28.318 C 126.116 26.741, 126.108 26.552, 124.420 25.318 C 123.381 24.558, 119.955 24, 116.335 24 C 110.261 24, 109.995 23.892, 108.354 20.750 C 107.421 18.962, 106.547 16.600, 106.413 15.500 C 105.918 11.446, 104.863 4.436, 104.419 2.250 C 104.002 0.198, 103.397 -0, 97.548 -0 C 91.772 -0, 91.065 0.224, 90.433 2.250 M 108 29 C 108 29.550, 109.237 29.993, 110.750 29.985 C 112.893 29.973, 113.169 29.755, 112 29 C 110.043 27.736, 108 27.736, 108 29" stroke="none" fill="black" fill-rule="evenodd"/>
</svg>