<svg xmlns="http://www.w3.org/2000/svg" width="192" height="144" viewBox="0 0 192 144" version="1.1">
	<path d="M 66.302 3.753 C 61.096 12.627, 60.544 14.054, 61.643 15.804 C 62.228 16.737, 64.200 17.725, 66.024 18 C 69.049 18.456, 69.489 18.984, 71.021 24 C 72.462 28.719, 74.421 35.925, 76.662 44.750 C 77.164 46.728, 76.853 47, 74.081 47 C 71.275 47, 71.043 47.212, 71.965 48.934 C 73.714 52.203, 73.128 53.378, 68.018 56.844 C 62.323 60.707, 59 66.540, 59 72.676 C 59 74.901, 58.714 78.809, 58.364 81.360 C 57.816 85.362, 57.410 86, 55.411 86 C 52.079 86, 48 88.077, 48 89.774 C 48 90.574, 48.960 92.936, 50.134 95.025 L 52.268 98.821 50.033 107.866 C 48.804 112.840, 45.144 122.636, 41.899 129.634 C 38.655 136.633, 36 142.728, 36 143.179 C 36 143.631, 54.436 144, 76.969 144 L 117.938 144 117.751 129.250 C 117.586 116.265, 117.841 113.633, 119.879 107.250 C 123.896 94.675, 125.197 97.783, 125.037 119.569 C 124.972 128.407, 125.219 137.520, 125.587 139.819 L 126.256 144 142.628 144 C 153.110 144, 159 143.632, 159 142.978 C 159 142.416, 157.650 138.979, 156 135.340 C 153.600 130.046, 152.989 127.301, 152.946 121.612 C 152.902 115.762, 152.362 109.664, 150.813 97.500 C 150.743 96.950, 150.997 95.535, 151.377 94.355 C 151.812 93.004, 151.526 91.669, 150.603 90.745 C 149.797 89.940, 147.506 85.055, 145.513 79.890 C 143.519 74.726, 140.788 68.531, 139.444 66.124 C 136.957 61.672, 136.198 55.614, 137.988 54.508 C 139.170 53.777, 138.478 42.387, 137.018 38.547 C 136.458 37.074, 136 34.587, 136 33.018 C 136 31.450, 135.440 29.980, 134.757 29.752 C 133.029 29.176, 133.155 19.420, 134.912 17.774 C 136.039 16.718, 136.179 16.885, 135.730 18.750 C 135.431 19.987, 135.393 21, 135.645 21 C 136.552 21, 139 14.005, 139 11.414 C 139 9.896, 140.281 7.305, 142 5.347 C 143.650 3.468, 145 1.496, 145 0.965 C 145 0.362, 130.666 0.001, 106.750 0.003 L 68.500 0.005 66.302 3.753" stroke="none" fill="black" fill-rule="evenodd"/>
</svg>