<svg xmlns="http://www.w3.org/2000/svg" width="192" height="144" viewBox="0 0 192 144" version="1.1">
	<path d="M 0 72 L 0 144 25.863 144 L 51.727 144 54.264 138.250 C 55.872 134.606, 56.629 131.401, 56.332 129.500 C 56.004 127.401, 56.794 124.760, 58.966 120.704 C 60.673 117.516, 62.511 112.578, 63.051 109.729 C 63.742 106.089, 65.022 103.502, 67.358 101.025 C 70.372 97.830, 70.581 97.227, 69.592 94.584 C 68.751 92.339, 68.792 91.570, 69.768 91.245 C 73.719 89.926, 75.423 85, 71.929 85 C 70.084 85, 70.022 84.835, 71.363 83.494 C 73.482 81.375, 74.521 77.674, 73.126 77.209 C 72.500 77, 72.301 76.322, 72.684 75.702 C 73.067 75.083, 73.287 73.193, 73.173 71.503 C 73.059 69.813, 73.621 66.254, 74.422 63.594 C 76.126 57.932, 75.446 49.071, 73.180 47.399 C 72.359 46.794, 71.599 45.219, 71.491 43.899 C 71.331 41.937, 70.813 41.552, 68.648 41.788 C 65.142 42.169, 65.267 40.715, 68.856 39.360 C 72.768 37.884, 73.541 33.650, 70.733 29.085 L 68.633 25.670 71.752 27.513 C 74.441 29.101, 75.413 29.193, 78.802 28.178 C 80.963 27.530, 83.850 27, 85.216 27 C 86.582 27, 89.564 25.650, 91.841 24 C 94.119 22.350, 96.180 21, 96.422 21 C 96.868 21, 95.785 25.080, 94.497 28.250 C 93.875 29.781, 94.425 30, 98.893 30 C 104.060 30, 105.757 31.307, 101.899 32.316 C 100.658 32.641, 100.086 33.330, 100.500 34 C 100.910 34.664, 100.374 35.351, 99.207 35.656 C 97.231 36.173, 97.230 36.224, 99.101 41.547 C 100.139 44.500, 101.051 49.704, 101.128 53.112 C 101.235 57.819, 101.836 60.144, 103.634 62.793 C 106.522 67.048, 106.567 68.468, 103.976 73.539 C 102.862 75.717, 101.684 79.160, 101.358 81.188 C 101.031 83.216, 99.900 85.804, 98.843 86.938 L 96.922 89 102.270 89 C 105.211 89, 108.395 89.569, 109.346 90.264 C 110.887 91.391, 110.944 92.119, 109.874 97.014 C 108.229 104.539, 107.026 105.719, 103.414 103.351 C 101.215 101.911, 100.734 101.834, 101.224 103.003 C 108.960 121.455, 110.228 125.750, 110.366 133.951 C 110.440 138.323, 110.978 142.378, 111.562 142.962 C 112.284 143.684, 125.396 143.940, 152.562 143.762 L 192.500 143.500 192.757 71.750 L 193.013 0 96.507 0 L 0 0 0 72 M 0.474 72.500 C 0.474 112.100, 0.598 128.154, 0.750 108.176 C 0.901 88.198, 0.901 55.798, 0.750 36.176 C 0.598 16.554, 0.474 32.900, 0.474 72.500" stroke="none" fill="black" fill-rule="evenodd"/>
</svg>