<svg xmlns="http://www.w3.org/2000/svg" width="192" height="144" viewBox="0 0 192 144" version="1.1">
	<path d="M 145.620 3.254 C 142.487 7.361, 141.236 10.651, 140.512 16.685 C 140.081 20.274, 139.199 22.139, 136.969 24.175 C 135.336 25.667, 134 27.324, 134 27.857 C 134 28.918, 120.677 35.669, 117.572 36.182 C 115.129 36.585, 113.743 41.230, 114.509 46.450 C 115.287 51.762, 116.537 53, 121.122 53 C 123.477 53, 125.060 53.491, 125.152 54.250 C 125.236 54.938, 125.359 56.175, 125.425 57 C 125.506 58.010, 126.424 58.408, 128.237 58.218 C 130.418 57.989, 131.436 58.701, 133.597 61.968 C 136.230 65.946, 136.924 66.383, 140.127 66.073 C 141.022 65.987, 142.050 66.689, 142.413 67.633 C 143.593 70.710, 145.229 96.289, 144.787 104.768 C 144.381 112.565, 144.161 113.241, 140.928 116.609 C 139.043 118.574, 134.659 121.576, 131.187 123.280 C 125.395 126.124, 124.529 126.287, 120.693 125.264 C 117.708 124.467, 115.211 124.448, 111.960 125.198 L 107.408 126.249 95.454 114.047 C 83.779 102.129, 83.483 101.716, 82.778 96.360 C 82.381 93.344, 80.896 88.290, 79.478 85.130 C 77.305 80.288, 75.233 77.979, 66.293 70.442 C 50.222 56.894, 50.049 56.767, 48.427 57.390 C 46.274 58.216, 47.835 60.769, 55.330 68.678 C 63.486 77.286, 63.853 78, 60.121 78 C 56.939 78, 54 80.210, 54 82.603 C 54 83.406, 53.329 84.320, 52.509 84.635 C 50.564 85.381, 48.745 91.563, 49.167 95.996 C 49.444 98.905, 49.960 99.576, 52.239 99.996 C 54.201 100.357, 56.352 102.411, 59.816 107.232 C 62.476 110.934, 68.507 118.134, 73.216 123.232 C 77.926 128.329, 83.951 135.088, 86.605 138.250 L 91.431 144 141.716 144 L 192 144 192 72 L 192 0 170.051 -0 L 148.102 -0 145.620 3.254 M 163.425 99.610 C 164.413 110.968, 165.058 114, 166.486 114 C 169.417 114, 170.084 97.241, 167.250 94.807 C 162.865 91.041, 162.698 91.251, 163.425 99.610" stroke="none" fill="black" fill-rule="evenodd"/>
</svg>