<svg xmlns="http://www.w3.org/2000/svg" width="192" height="144" viewBox="0 0 192 144" version="1.1">
	<path d="M 65.015 0.750 C 65.024 1.163, 65.467 2.175, 66 3 C 66.784 4.213, 66.972 4.069, 66.985 2.250 C 66.993 1.012, 66.550 0, 66 0 C 65.450 0, 65.007 0.337, 65.015 0.750 M 69.630 2.750 C 69.997 4.263, 70.652 6.400, 71.085 7.500 C 71.715 9.099, 71.900 8.799, 72.007 6 C 72.116 3.152, 72.294 2.873, 72.965 4.500 C 73.756 6.417, 73.829 6.400, 74.726 4.090 C 75.985 0.851, 76.873 3.216, 76.495 8.795 C 76.182 13.406, 76.601 13.893, 78.608 11.250 C 79.843 9.623, 79.939 9.653, 79.968 11.668 C 79.986 12.861, 80.253 14.496, 80.562 15.302 C 80.985 16.403, 79.315 17.317, 73.838 18.981 C 65.054 21.649, 58.475 24.885, 54.698 28.396 C 53.158 29.828, 51.721 31, 51.506 31 C 51.291 31, 49.854 28.756, 48.312 26.013 C 46.770 23.270, 44.938 20.806, 44.241 20.539 C 43.544 20.271, 38.005 20.708, 31.932 21.509 C 19.516 23.147, 10.378 22.688, 3.685 20.092 C 2.137 19.491, 0.674 19, 0.435 19 C 0.196 19, 0.036 31.938, 0.079 47.750 C 0.125 64.663, 0.503 75.471, 0.997 74 C 1.458 72.625, 3.635 65.353, 5.835 57.839 L 9.835 44.178 7.719 38.339 C 6.555 35.128, 5.017 32.140, 4.301 31.700 C 3.586 31.260, 3 30.513, 3 30.039 C 3 28.939, 26.554 29.219, 27.666 30.332 C 28.123 30.789, 27.312 32.026, 25.865 33.080 C 24.418 34.134, 22.196 37.554, 20.927 40.679 L 18.621 46.362 21.560 60.931 L 24.500 75.500 33 75.245 C 37.675 75.105, 54.775 74.545, 71 74 C 87.225 73.455, 115.639 73.008, 134.142 73.005 L 167.783 73 168.294 70.750 C 168.576 69.513, 169.812 63.100, 171.041 56.500 C 172.270 49.900, 173.663 43.600, 174.136 42.500 C 174.609 41.400, 175.640 38.700, 176.428 36.500 C 177.543 33.384, 177.875 33.032, 177.930 34.905 C 177.997 37.197, 178.088 37.230, 179.885 35.604 C 180.922 34.666, 182.036 32.571, 182.360 30.949 C 182.859 28.455, 183.422 28, 186.010 28 C 188.808 28, 188.974 28.180, 187.948 30.098 C 187.330 31.251, 185.996 34.606, 184.982 37.553 L 183.139 42.910 186.630 54.205 C 188.551 60.417, 190.740 67.750, 191.495 70.500 C 192.747 75.059, 192.874 72.980, 192.934 46.917 C 192.970 31.196, 192.716 18.049, 192.369 17.702 C 192.021 17.355, 190.864 17.538, 189.796 18.109 C 187.963 19.090, 187.893 18.881, 188.534 14.324 C 188.907 11.671, 189.840 8.193, 190.606 6.596 C 193.755 0.037, 193.677 0, 176.500 0 L 161 0 161 2.542 C 161 3.940, 161.703 8.487, 162.562 12.647 C 163.421 16.806, 163.977 20.357, 163.797 20.537 C 163.616 20.717, 159.876 20.418, 155.484 19.873 C 146.402 18.745, 146.413 18.739, 140.685 28.500 L 137.870 33.297 133.185 28.752 C 128.432 24.141, 123.534 21.252, 116.750 19.058 C 113.324 17.950, 111.579 16, 114.013 16 C 114.570 16, 116.010 13.975, 117.212 11.500 C 118.415 9.025, 119.759 7, 120.199 7 C 120.640 7, 121 8.773, 121 10.941 C 121 13.109, 121.450 15.160, 122 15.500 C 122.550 15.840, 123 15.641, 123 15.059 C 123 13.318, 124.817 13.862, 125.311 15.750 C 125.562 16.712, 125.820 15.839, 125.884 13.809 C 126.031 9.138, 127.998 7.639, 128.006 12.191 L 128.012 15.500 129.327 13 C 133.122 5.783, 133.193 5.695, 134.053 7.086 C 135.017 8.645, 134.947 8.708, 137.786 3.750 L 139.933 0 104.447 0 L 68.962 0 69.630 2.750 M 141 0.889 C 141 1.378, 141.885 2.841, 142.967 4.139 L 144.933 6.500 144.967 3.250 C 144.993 0.656, 144.597 0, 143 0 C 141.900 0, 141 0.400, 141 0.889 M 111 10.441 C 111 11.784, 110.550 13.160, 110 13.500 C 108.455 14.455, 108.819 17, 110.500 17 C 111.611 17, 112 15.833, 112 12.500 C 112 10.025, 111.775 8, 111.500 8 C 111.225 8, 111 9.098, 111 10.441 M 0.441 47.500 C 0.442 63.450, 0.580 69.835, 0.748 61.689 C 0.916 53.543, 0.916 40.493, 0.747 32.689 C 0.579 24.885, 0.441 31.550, 0.441 47.500 M 149.064 33.739 L 145.982 37.478 148.241 39.217 C 149.483 40.173, 150.729 40.966, 151.008 40.978 C 151.843 41.014, 154.654 32.461, 154.227 31.182 C 153.566 29.198, 152.283 29.833, 149.064 33.739 M 37.359 32.508 C 36.906 33.688, 39.096 40.104, 40.537 41.819 C 41.055 42.436, 45 39.508, 44.995 38.509 C 44.991 37.489, 39.307 31, 38.418 31 C 38.154 31, 37.677 31.679, 37.359 32.508 M 76.500 88.034 C 63.300 88.416, 47.071 88.790, 40.435 88.864 L 28.370 89 26.218 95.250 C 24.060 101.519, 20.733 114.452, 19.593 121 C 19.027 124.254, 18.334 124.821, 9.742 129.058 L 0.500 133.615 0.198 138.808 L -0.105 144 17.425 144 L 34.955 144 39.410 134.750 C 41.860 129.662, 44.906 122.463, 46.179 118.750 C 47.452 115.037, 48.832 112, 49.247 112 C 49.661 112, 50 119.200, 50 128 L 50 144 95.750 144 L 141.500 144 141.185 135.750 C 141.012 131.213, 141.254 125.716, 141.723 123.535 L 142.575 119.570 144.899 126.035 C 146.178 129.591, 148.591 135.097, 150.262 138.271 L 153.301 144.041 172.900 143.771 L 192.500 143.500 192.665 138 C 192.756 134.975, 192.626 133.204, 192.377 134.064 C 192.011 135.329, 189.780 134.532, 180.695 129.890 L 169.465 124.152 168.233 116.326 C 167.556 112.022, 165.895 104.915, 164.542 100.533 C 163.190 96.152, 162.470 92.327, 162.942 92.033 C 163.414 91.740, 163.958 90.600, 164.150 89.500 C 164.494 87.536, 163.928 87.499, 132.500 87.420 C 114.900 87.376, 89.700 87.652, 76.500 88.034 M 0.300 139 C 0.300 142.025, 0.487 143.262, 0.716 141.750 C 0.945 140.238, 0.945 137.762, 0.716 136.250 C 0.487 134.738, 0.300 135.975, 0.300 139" stroke="none" fill="black" fill-rule="evenodd"/>
</svg>