<svg xmlns="http://www.w3.org/2000/svg" width="192" height="144" viewBox="0 0 192 144" version="1.1">
	<path d="M 58.097 36.819 C 56.856 39.138, 58.898 42.340, 64.982 47.614 C 67.447 49.751, 72.167 54.058, 75.471 57.184 C 81.469 62.860, 81.474 62.869, 78.948 63.830 C 75.144 65.276, 73.802 67.482, 74.165 71.694 C 74.469 75.217, 74.225 75.614, 70.746 77.252 C 67.450 78.804, 67 79.444, 67 82.574 C 67 84.530, 67.449 86.971, 67.998 87.996 C 68.714 89.333, 68.617 90.240, 67.656 91.201 C 63.466 95.392, 63.052 100.333, 66.333 107 C 68.497 111.397, 68.657 111.500, 73.335 111.504 C 77.898 111.508, 78.331 111.759, 82.550 116.840 C 88.423 123.912, 99.112 134.123, 106.360 139.584 L 112.220 144 152.183 144 C 189.704 144, 192.126 143.893, 191.814 142.250 C 191.484 140.515, 181.574 134.153, 166.850 126.224 C 162.642 123.958, 157.017 120.796, 154.350 119.197 C 151.682 117.598, 145.563 114.176, 140.750 111.593 C 133.570 107.738, 131.978 106.456, 131.875 104.448 C 131.806 103.101, 131.660 101.662, 131.550 101.250 C 131.440 100.838, 131.011 98.250, 130.595 95.500 C 129.519 88.372, 127.335 81.767, 122.777 71.848 C 119.573 64.876, 117.946 62.582, 114.399 60.035 C 111.175 57.719, 109.128 56.957, 106.748 57.187 C 103.812 57.470, 103.501 57.812, 103.510 60.750 C 103.515 62.538, 103.282 64, 102.992 64 C 102.011 64, 94.551 58.668, 84.192 50.564 C 70.966 40.217, 63.150 35, 60.877 35 C 59.883 35, 58.632 35.819, 58.097 36.819 M 108.500 69 C 108.840 69.550, 109.568 70, 110.118 70 C 110.668 70, 110.840 69.550, 110.500 69 C 110.160 68.450, 109.432 68, 108.882 68 C 108.332 68, 108.160 68.450, 108.500 69" stroke="none" fill="black" fill-rule="evenodd"/>
</svg>