<svg xmlns="http://www.w3.org/2000/svg" width="192" height="144" viewBox="0 0 192 144" version="1.1">
	<path d="M 112.497 68.646 C 111.038 70.105, 110.091 70.152, 104.175 69.058 C 92.840 66.961, 65.197 68.908, 64.209 71.873 C 64.002 72.493, 63.253 73, 62.544 73 C 60.424 73, 59.867 80.190, 61.550 85.856 C 62.648 89.552, 64.439 92.337, 67.916 95.750 C 73.261 100.998, 75.251 105.494, 74.310 110.199 C 73.305 115.224, 75.413 116, 90.069 116 C 104.345 116, 105.090 115.667, 104.844 109.398 C 104.646 104.333, 106.808 100.292, 111.906 96.195 C 116.635 92.396, 118.754 88.058, 120.147 79.328 C 120.957 74.254, 120.849 72.609, 119.540 70.078 C 117.766 66.646, 115.049 66.094, 112.497 68.646" stroke="none" fill="black" fill-rule="evenodd"/>
</svg>