<svg xmlns="http://www.w3.org/2000/svg" width="192" height="144" viewBox="0 0 192 144" version="1.1">
	<path d="M 0.027 4.250 L 0.054 8.500 3 5 C 6.709 0.594, 6.709 0, 3 0 C 0.133 0, 0.001 0.188, 0.027 4.250 M 162.506 2.218 C 165.779 15.556, 164.173 31.184, 158.542 40.793 C 156.594 44.117, 155 47.275, 155 47.810 C 155 49.147, 146.050 59, 144.836 59 C 144.298 59, 143.265 59.562, 142.540 60.250 C 139.001 63.609, 133.577 67.328, 132 67.476 C 131.725 67.502, 130.150 68.044, 128.500 68.682 C 118.832 72.415, 113.850 73.283, 105.723 72.653 C 101.200 72.303, 95.928 71.562, 94.007 71.008 C 84.657 68.311, 67.073 70.715, 56 76.206 C 49.868 79.246, 40.309 86.581, 38.242 89.832 C 37.309 91.299, 36.228 92.733, 35.840 93.018 C 34.222 94.203, 28.103 105.358, 28.615 106.187 C 28.922 106.682, 28.764 107.630, 28.266 108.294 C 25.666 111.756, 24.737 118.289, 25.211 129.793 C 25.481 136.347, 26.021 142.224, 26.410 142.854 C 26.932 143.700, 47.812 144, 106.032 144 L 184.947 144 188.413 138.854 L 191.878 133.707 192.189 138.604 C 192.360 141.297, 192.358 113.363, 192.185 76.530 L 191.871 9.559 188.619 5.030 L 185.368 0.500 173.657 0.218 L 161.946 -0.064 162.506 2.218 M 101.257 6.437 C 97.281 8.636, 95.340 10.940, 93.972 15.085 C 92.105 20.743, 94.699 28.570, 99.543 31.889 C 103.557 34.640, 110.401 36.345, 113.365 35.333 C 114.539 34.932, 115.808 34.683, 116.184 34.780 C 116.561 34.877, 118.698 32.878, 120.934 30.337 C 124.622 26.148, 125 25.213, 125 20.292 C 125 10.905, 118.312 4.882, 108.128 5.098 C 105.583 5.152, 102.491 5.754, 101.257 6.437 M 77.500 112.945 C 76.400 113.388, 75.215 113.587, 74.866 113.388 C 74.517 113.188, 73.675 114.370, 72.995 116.013 C 72.314 117.656, 71.362 119, 70.879 119 C 69.547 119, 69.855 124.995, 71.419 129.500 C 75.263 140.577, 90.108 140.673, 94.228 129.649 C 96.423 123.774, 95.668 119.851, 91.491 115.422 C 88.737 112.502, 87.621 112.010, 83.882 112.070 C 81.472 112.109, 78.600 112.503, 77.500 112.945 M 1.032 140.250 C 1.003 143.592, 1.272 144, 3.500 144 C 6.647 144, 6.655 142.856, 3.532 139.306 L 1.063 136.500 1.032 140.250" stroke="none" fill="black" fill-rule="evenodd"/>
</svg>