<svg xmlns="http://www.w3.org/2000/svg" width="192" height="144" viewBox="0 0 192 144" version="1.1">
	<path d="M 0 72 L 0 144 35.079 144 L 70.159 144 69.638 141.250 C 69.351 139.738, 68.823 134.113, 68.465 128.750 L 67.813 119 64.517 119 C 59.519 119, 57.224 116.398, 54.961 108.161 C 53.851 104.125, 51.796 98.558, 50.394 95.791 C 47.991 91.049, 47.850 89.160, 49.565 84.691 C 49.937 83.723, 49.045 82.549, 47.040 81.364 C 45.049 80.189, 43.548 78.222, 42.842 75.867 C 42.238 73.851, 40.714 71.650, 39.456 70.976 C 38.198 70.303, 36.955 68.934, 36.693 67.935 C 36.432 66.936, 34.541 65.417, 32.492 64.561 C 29.600 63.353, 28.880 62.569, 29.274 61.059 C 29.577 59.902, 29.018 58.421, 27.895 57.405 C 25.474 55.214, 27.164 52.482, 30 54 C 33.231 55.729, 34.395 52.885, 32.955 46.778 C 32.270 43.875, 31.419 40.187, 31.063 38.583 C 30.626 36.614, 31.057 34.371, 32.388 31.680 C 35.085 26.230, 35.739 17.858, 33.606 16.088 C 32.723 15.355, 32 13.965, 32 13 C 32 12.035, 31.349 10.704, 30.553 10.044 C 29.757 9.383, 28.345 6.853, 27.417 4.421 L 25.728 0 12.864 0 L 0 0 0 72 M 33.623 6.378 C 32.878 13.644, 33.351 15.597, 36.023 16.296 C 39.105 17.102, 41.270 14.631, 42.066 9.396 C 42.476 6.703, 43.131 3.488, 43.522 2.250 C 44.194 0.123, 43.962 -0, 39.255 -0 L 34.276 -0 33.623 6.378 M 60.226 1.179 C 61.047 3.642, 63.776 4.458, 66.435 3.035 C 70.233 1.002, 69.566 0, 64.417 0 C 61.343 0, 59.963 0.388, 60.226 1.179 M 92 2.411 C 92 3.737, 91.073 7.674, 89.940 11.161 C 88.807 14.647, 87.627 21.004, 87.319 25.287 C 86.601 35.240, 87.784 36.978, 94.790 36.268 C 98.736 35.869, 100.121 35.119, 103.327 31.646 C 106.910 27.764, 107.239 27.617, 108.496 29.330 C 109.302 30.430, 110.768 31.029, 112.169 30.830 C 114.170 30.547, 114.629 29.689, 115.409 24.771 C 116.235 19.563, 116.516 19.091, 118.499 19.589 C 121.330 20.300, 123.564 16.989, 124.314 10.971 C 124.620 8.512, 125.152 5.038, 125.495 3.250 C 126.112 0.042, 126.071 0, 122.304 0 C 118.728 0, 118.408 0.252, 117.243 3.984 C 116.560 6.176, 116 9.326, 116 10.984 C 116 13.609, 115.644 13.999, 113.250 13.993 C 109.644 13.984, 106 8.804, 106 3.688 L 106 0 99 0 C 92.269 0, 92 0.093, 92 2.411 M 134 0.941 C 134 1.459, 134.450 2.160, 135 2.500 C 135.550 2.840, 136 6.016, 136 9.559 C 136 13.102, 136.402 16, 136.893 16 C 138.032 16, 139 13.492, 139 10.540 C 139 9.277, 139.675 6.629, 140.500 4.654 C 141.325 2.680, 142 0.825, 142 0.532 C 142 0.239, 140.200 0, 138 0 C 135.800 0, 134 0.423, 134 0.941 M 150.626 2.750 C 151.090 4.263, 151.539 9.550, 151.623 14.500 C 151.935 32.726, 152.049 34.530, 152.987 36 C 153.799 37.273, 154.183 37.160, 155.529 35.250 C 157.242 32.817, 159.940 32.227, 160.097 34.250 C 160.150 34.938, 160.115 37.192, 160.020 39.260 C 159.861 42.680, 160.113 43.073, 162.809 43.612 C 165.445 44.139, 165.695 44.497, 165.070 46.852 C 164.482 49.068, 163.726 49.551, 160.434 49.811 C 156.461 50.125, 152.004 53.503, 151.996 56.206 C 151.994 56.918, 151.094 58.973, 149.996 60.774 C 147.490 64.884, 147.504 65.302, 150.185 66.513 C 153.321 67.929, 153.538 69.798, 150.717 71.083 C 149.376 71.694, 147.536 73.749, 146.631 75.649 C 145.725 77.548, 143.636 79.867, 141.990 80.801 C 139.995 81.933, 139.207 83, 139.627 84 C 141.202 87.749, 141.090 90.362, 139.165 94.839 C 138.025 97.488, 136.175 103.896, 135.054 109.078 C 132.775 119.609, 130.987 122, 125.389 122 L 122 122 122 132.909 L 122 143.817 157 143.948 L 192 144.080 192 72.040 L 192 0 170.892 0 L 149.783 0 150.626 2.750 M 117.440 73.750 C 118.792 90.887, 119.197 94, 120.080 94 C 120.586 94, 121 92.497, 121 90.659 C 121 88.821, 121.670 85.109, 122.489 82.409 C 123.308 79.709, 123.983 76.309, 123.989 74.853 C 124 72.320, 119.504 66, 117.692 66 C 117.218 66, 117.104 69.487, 117.440 73.750 M 70.797 72.015 C 69.807 73.749, 68.263 75, 67.114 75 C 64.161 75, 63.623 78.333, 65.957 82.161 C 67.077 83.998, 67.994 86.995, 67.996 88.823 C 67.999 91.447, 68.368 92.076, 69.747 91.810 C 71.770 91.421, 73.218 83.009, 72.769 74.265 L 72.500 69.031 70.797 72.015 M 127.500 73 C 127.840 73.550, 128.316 74, 128.559 74 C 128.802 74, 129 73.550, 129 73 C 129 72.450, 128.523 72, 127.941 72 C 127.359 72, 127.160 72.450, 127.500 73 M 118.232 141 C 118.232 142.925, 118.438 143.713, 118.689 142.750 C 118.941 141.787, 118.941 140.213, 118.689 139.250 C 118.438 138.287, 118.232 139.075, 118.232 141" stroke="none" fill="black" fill-rule="evenodd"/>
</svg>