<svg xmlns="http://www.w3.org/2000/svg" width="192" height="144" viewBox="0 0 192 144" version="1.1">
	<path d="M 0 72 L 0 144 11.892 144 L 23.783 144 24.447 141.355 C 24.813 139.895, 24.638 138.238, 24.055 137.655 C 22.824 136.424, 22.613 128, 23.813 128 C 24.261 128, 24.655 124.982, 24.690 121.293 C 24.740 116.016, 24.313 113.989, 22.688 111.792 L 20.623 108.999 22.812 106.961 C 24.834 105.076, 25 103.988, 25 92.586 C 25 85.801, 25.294 78.778, 25.654 76.978 C 26.290 73.801, 26.227 73.726, 23.528 74.404 C 21.007 75.036, 20.796 74.887, 21.272 72.801 C 21.561 71.535, 22.396 69.026, 23.128 67.225 C 24.198 64.589, 24.213 63.612, 23.204 62.225 C 19.293 56.845, 17.793 51.675, 18.176 44.900 C 18.662 36.284, 20.186 34.104, 30.528 27.227 C 39.028 21.575, 41.131 20.796, 53.500 18.718 L 61.500 17.374 61.807 13.187 C 61.977 10.884, 62.427 9.013, 62.807 9.028 C 63.188 9.044, 65.029 11.631, 66.899 14.778 C 68.768 17.925, 71.987 22.750, 74.051 25.500 C 76.116 28.250, 78.379 32.442, 79.081 34.816 C 80.553 39.798, 83.789 41.991, 89.700 42.015 C 94.758 42.036, 96.428 43.195, 95.644 46.143 C 94.514 50.396, 93.353 51.538, 91.620 50.100 C 89.338 48.206, 87.705 49.773, 88.390 53.198 C 89.154 57.019, 85.525 65.415, 83.452 64.620 C 81.335 63.808, 80 67.175, 80 73.327 C 80 77.257, 79.580 78.947, 78.500 79.362 C 77.675 79.678, 77 80.782, 77 81.814 C 77 84.766, 73.223 87.500, 69.144 87.500 C 65.357 87.500, 63.713 88.920, 66.115 90.117 C 66.877 90.497, 70.650 91.340, 74.500 91.991 C 84.722 93.719, 85.087 93.873, 84.782 96.326 C 84.633 97.522, 85.852 101.337, 87.489 104.806 C 89.990 110.102, 90.790 111.017, 92.484 110.522 C 99.566 108.451, 113.285 108.409, 123.010 110.429 C 142.177 114.410, 158.736 125.560, 166.051 139.411 L 168.500 144.048 180.500 143.774 L 192.500 143.500 192.757 71.750 L 193.013 0 96.507 0 L 0 0 0 72 M 0.474 72.500 C 0.474 112.100, 0.598 128.154, 0.750 108.176 C 0.901 88.198, 0.901 55.798, 0.750 36.176 C 0.598 16.554, 0.474 32.900, 0.474 72.500 M 103.500 3 C 103.138 3.585, 104.176 4, 106 4 C 107.824 4, 108.862 3.585, 108.500 3 C 108.160 2.450, 107.035 2, 106 2 C 104.965 2, 103.840 2.450, 103.500 3 M 46.500 91 C 46.160 91.550, 46.332 92, 46.882 92 C 47.432 92, 48.160 91.550, 48.500 91 C 48.840 90.450, 48.668 90, 48.118 90 C 47.568 90, 46.840 90.450, 46.500 91 M 42.158 142 C 42.158 143.375, 42.385 143.938, 42.662 143.250 C 42.940 142.563, 42.940 141.438, 42.662 140.750 C 42.385 140.063, 42.158 140.625, 42.158 142" stroke="none" fill="black" fill-rule="evenodd"/>
</svg>