<svg xmlns="http://www.w3.org/2000/svg" width="192" height="144" viewBox="0 0 192 144" version="1.1">
	<path d="M -0 72.005 L -0 144.010 96.250 143.755 L 192.500 143.500 192.757 71.750 L 193.013 0 96.507 0 L 0 0 -0 72.005 M 0.474 72.500 C 0.474 112.100, 0.598 128.154, 0.750 108.176 C 0.901 88.198, 0.901 55.798, 0.750 36.176 C 0.598 16.554, 0.474 32.900, 0.474 72.500 M 90 30.139 C 90 31.162, 89.325 32, 88.500 32 C 86.022 32, 86.787 33.907, 90.705 37.496 C 94.311 40.800, 94.362 40.943, 92.607 42.882 C 90.724 44.962, 91.152 47, 93.471 47 C 95.598 47, 96.421 54.286, 94.675 57.662 C 91.293 64.202, 90.899 64.297, 74.265 62.560 C 66.045 61.702, 59.023 61, 58.660 61 C 58.297 61, 58 61.666, 58 62.481 C 58 63.295, 59.237 64.258, 60.750 64.619 C 62.263 64.980, 64.057 65.714, 64.737 66.250 C 65.418 66.785, 66.644 66.967, 67.463 66.652 C 68.282 66.338, 71.100 66.733, 73.726 67.530 C 79.284 69.216, 83.388 69.436, 82.500 68 C 82.160 67.450, 80.934 67, 79.774 67 C 78.615 67, 77.915 66.752, 78.219 66.448 C 78.522 66.144, 82.160 66.203, 86.303 66.578 C 92.383 67.129, 93.926 67.610, 94.308 69.070 C 94.717 70.635, 95.536 70.800, 100.390 70.299 C 105.904 69.730, 106 69.764, 106 72.301 C 106 75.007, 107.456 76.689, 108.432 75.110 C 108.745 74.603, 109.933 74.431, 111.072 74.729 C 112.967 75.225, 113.084 74.964, 112.459 71.635 C 111.663 67.390, 112.399 67.148, 117.790 69.881 C 119.830 70.916, 123.810 72.076, 126.634 72.459 C 129.457 72.842, 133.507 73.758, 135.634 74.493 C 138.912 75.627, 139.740 75.615, 141.079 74.415 C 141.947 73.637, 143.582 73, 144.712 73 C 145.926 73, 146.981 72.181, 147.290 71 C 147.938 68.520, 147.085 65, 145.836 65 C 145.324 65, 143.821 63.831, 142.498 62.403 C 139.828 59.522, 136.303 59.024, 127 60.210 C 123.975 60.596, 122.063 60.669, 122.750 60.372 C 123.438 60.076, 124 59.220, 124 58.471 C 124 57.556, 122.442 57.010, 119.250 56.805 C 114.695 56.513, 114.487 56.366, 114.187 53.250 C 113.975 51.053, 113.327 49.962, 112.187 49.882 C 111.259 49.817, 111.850 49.475, 113.500 49.122 C 115.150 48.769, 116.500 47.953, 116.500 47.309 C 116.500 46.133, 111.452 42.068, 107.250 39.861 C 106.013 39.211, 105 38.026, 105 37.228 C 105 36.112, 105.807 35.929, 108.500 36.434 C 110.425 36.795, 112 36.906, 112 36.681 C 112 36.456, 110.288 35.086, 108.196 33.636 C 103.885 30.648, 99.492 30.245, 96.892 32.598 C 94.628 34.646, 92.619 33.581, 93.973 31.051 C 94.780 29.543, 94.519 29.141, 92.475 28.751 C 90.559 28.384, 90 28.697, 90 30.139 M 96 45.441 C 96 46.298, 96.450 47, 97 47 C 97.550 47, 98 46.577, 98 46.059 C 98 45.541, 97.550 44.840, 97 44.500 C 96.450 44.160, 96 44.584, 96 45.441 M 107.469 51.050 C 106.519 52.588, 107.820 53.580, 109.104 52.296 C 109.822 51.578, 109.839 51.019, 109.156 50.597 C 108.596 50.251, 107.837 50.455, 107.469 51.050 M 96.750 58.087 C 93.841 63.198, 94.518 64.944, 98.041 61.420 C 100.065 59.397, 100.866 57.814, 100.434 56.689 C 99.514 54.291, 98.745 54.582, 96.750 58.087 M 114 59.383 C 114 60.232, 119.085 60.671, 119.583 59.866 C 119.877 59.390, 118.741 59, 117.059 59 C 115.377 59, 114 59.173, 114 59.383" stroke="none" fill="black" fill-rule="evenodd"/>
</svg>