<svg xmlns="http://www.w3.org/2000/svg" width="192" height="144" viewBox="0 0 192 144" version="1.1">
	<path d="M -0 72.005 L -0 144.010 96.250 143.755 L 192.500 143.500 192.757 71.750 L 193.013 0 96.507 0 L 0 0 -0 72.005 M 0.474 72.500 C 0.474 112.100, 0.598 128.154, 0.750 108.176 C 0.901 88.198, 0.901 55.798, 0.750 36.176 C 0.598 16.554, 0.474 32.900, 0.474 72.500 M 69.655 38.829 C 68.745 39.835, 68 41.115, 68 41.674 C 68 42.233, 67.100 43.505, 66 44.500 C 63.911 46.391, 63.277 51.435, 64.996 52.498 C 65.544 52.836, 68.356 53.151, 71.246 53.197 C 76.022 53.272, 82 55.441, 82 57.097 C 82 58.988, 88.644 64, 91.151 64 C 93.648 64, 98 60.763, 98 58.905 C 98 58.510, 99.013 58.408, 100.250 58.679 L 102.500 59.170 100.276 57.335 C 98.650 55.993, 98.310 55.097, 99.011 54 C 101.059 50.795, 100.134 49.290, 95.747 48.689 C 88.803 47.737, 82.076 44.244, 79.818 40.416 C 78.182 37.643, 77.191 37, 74.556 37 C 72.681 37, 70.611 37.773, 69.655 38.829" stroke="none" fill="black" fill-rule="evenodd"/>
</svg>