<svg xmlns="http://www.w3.org/2000/svg" width="192" height="144" viewBox="0 0 192 144" version="1.1">
	<path d="M -0 72.005 L -0 144.010 96.250 143.755 L 192.500 143.500 192.757 71.750 L 193.013 0 96.507 0 L 0 0 -0 72.005 M 0.474 72.500 C 0.474 112.100, 0.598 128.154, 0.750 108.176 C 0.901 88.198, 0.901 55.798, 0.750 36.176 C 0.598 16.554, 0.474 32.900, 0.474 72.500 M 76.202 12 C 76.413 15.189, 76.136 16.427, 75.250 16.250 C 73.597 15.919, 73.654 17.468, 75.346 18.872 C 77.125 20.349, 79.299 25.621, 82.435 36.069 C 85.698 46.937, 85.524 49.879, 81.520 51.569 C 75.514 54.104, 72.082 58.968, 70.368 67.372 C 69.502 71.616, 69.071 76.564, 69.409 78.366 C 70.149 82.311, 83.698 96.492, 88.803 98.665 C 93.168 100.523, 97.829 99.561, 102.087 95.922 C 105.612 92.909, 108 92.176, 108 94.107 C 108 94.716, 108.595 94.986, 109.322 94.706 C 110.157 94.386, 112.648 97.333, 116.072 102.691 C 122.275 112.396, 124.701 115.303, 125.951 114.530 C 126.434 114.232, 127.039 114.553, 127.295 115.244 C 127.637 116.169, 128.244 116.038, 129.594 114.750 C 130.925 113.480, 131.050 113, 130.048 113 C 129.288 113, 128.910 112.757, 129.207 112.459 C 129.505 112.162, 131.267 112.808, 133.124 113.896 C 136.003 115.581, 136.766 115.676, 138.303 114.537 C 139.650 113.540, 139.777 113.070, 138.803 112.680 C 137.985 112.352, 137.930 112.129, 138.656 112.079 C 139.321 112.034, 139.584 111.126, 139.275 109.943 C 138.979 108.812, 138.181 108.100, 137.501 108.361 C 136.822 108.622, 134.828 107.522, 133.071 105.918 C 131.314 104.313, 129.454 103, 128.938 103 C 128.422 103, 128 102.568, 128 102.039 C 128 101.510, 127.198 100.273, 126.218 99.289 C 123.377 96.437, 117.460 88.803, 115.139 84.997 C 112.735 81.054, 112.289 78.477, 114.521 81.427 C 116.252 83.714, 116.553 83.497, 117.447 79.322 C 118.048 76.515, 117.669 75.713, 114.202 72.448 L 110.277 68.751 112.278 64.016 C 114.097 59.709, 114.152 58.893, 112.889 54.980 C 111.371 50.278, 107.775 46.979, 103.948 46.776 C 102.602 46.705, 101.050 46.338, 100.500 45.961 C 99.950 45.584, 98.233 44.973, 96.684 44.602 C 94.686 44.124, 93.408 42.850, 92.283 40.214 C 90.639 36.362, 89.015 30.089, 88.688 26.333 C 88.585 25.141, 88.220 23.886, 87.877 23.544 C 87.535 23.201, 87.481 20.914, 87.757 18.461 C 88.213 14.419, 88.060 14, 86.130 14 C 84.565 14, 84 13.381, 84 11.667 C 84 9.861, 83.492 9.375, 81.750 9.516 C 80.513 9.615, 79.169 9.203, 78.765 8.598 C 78.289 7.886, 78.020 8.027, 78 9 C 77.973 10.333, 77.855 10.333, 76.936 9 C 76.171 7.889, 75.981 8.667, 76.202 12" stroke="none" fill="black" fill-rule="evenodd"/>
</svg>