<svg xmlns="http://www.w3.org/2000/svg" width="192" height="144" viewBox="0 0 192 144" version="1.1">
	<path d="M -0 72.005 L -0 144.010 96.250 143.755 L 192.500 143.500 192.757 71.750 L 193.013 0 96.507 0 L 0 0 -0 72.005 M 0.474 72.500 C 0.474 112.100, 0.598 128.154, 0.750 108.176 C 0.901 88.198, 0.901 55.798, 0.750 36.176 C 0.598 16.554, 0.474 32.900, 0.474 72.500 M 94.614 13.015 C 94.092 16.277, 93.598 17.060, 92.361 16.585 C 91.135 16.115, 90.960 16.375, 91.587 17.739 C 92.761 20.291, 93.261 41.213, 92.242 45.146 C 91.513 47.960, 90.821 48.576, 87.851 49.059 C 83.669 49.739, 78.986 52.873, 76.399 56.724 C 73.264 61.389, 71 67.061, 71 70.248 C 71 73.733, 79.283 91.041, 82.226 93.704 C 84.161 95.455, 87.385 95.699, 97 94.820 C 99.345 94.606, 100.421 94.901, 100.262 95.715 C 100.130 96.384, 100.508 98.184, 101.100 99.715 C 102.808 104.129, 103.254 106.155, 103.728 111.646 C 104.086 115.787, 104.772 117.349, 107.241 119.646 C 108.929 121.216, 110.017 121.985, 109.660 121.355 C 108.505 119.315, 111.758 119.075, 113.561 121.067 C 115.334 123.027, 119.637 123.839, 118.500 122 C 118.160 121.450, 118.385 121, 119 121 C 119.615 121, 119.840 120.550, 119.500 120 C 119.160 119.450, 119.466 119, 120.181 119 C 120.895 119, 120.247 117.857, 118.740 116.460 C 116.231 114.134, 115.559 112.791, 115.882 110.750 C 115.947 110.337, 115.325 110, 114.500 110 C 113.675 110, 113 109.190, 113 108.200 C 113 107.210, 112.610 105.973, 112.133 105.450 C 110.937 104.140, 105.993 89.383, 106.032 87.241 C 106.049 86.284, 106.742 84.602, 107.571 83.505 C 108.865 81.793, 109.213 81.722, 110.024 83.005 C 110.544 83.827, 110.976 84.838, 110.985 85.250 C 111.020 86.998, 113.768 85.801, 114.999 83.501 C 116.226 81.208, 116.065 80.664, 113.035 76.893 C 109.756 72.813, 109.744 72.760, 111.366 69.358 C 114.493 62.802, 113.037 57.311, 107.193 53.622 C 101.597 50.089, 99.623 45.343, 100.468 37.450 C 100.840 33.979, 101.781 28.745, 102.560 25.820 C 104.321 19.206, 104.448 14.605, 102.842 15.597 C 102.045 16.090, 101.865 15.624, 102.264 14.099 C 102.769 12.167, 102.638 12.052, 101.234 13.193 C 99.854 14.315, 99.719 14.252, 100.281 12.750 C 100.907 11.081, 100.611 10.829, 97.750 10.600 C 97.063 10.545, 96.226 10.126, 95.891 9.669 C 95.556 9.212, 94.981 10.718, 94.614 13.015 M 111 120.882 C 111 121.432, 111.450 122.160, 112 122.500 C 112.550 122.840, 113 122.668, 113 122.118 C 113 121.568, 112.550 120.840, 112 120.500 C 111.450 120.160, 111 120.332, 111 120.882" stroke="none" fill="black" fill-rule="evenodd"/>
</svg>