<svg xmlns="http://www.w3.org/2000/svg" width="192" height="144" viewBox="0 0 192 144" version="1.1">
	<path d="M 63.755 4.805 C 65.054 18.318, 58.343 35.765, 48.255 45.103 C 45.048 48.071, 40.191 51.625, 37.462 53 C 34.733 54.375, 32.275 55.783, 32 56.129 C 31.725 56.475, 27.533 57.541, 22.683 58.500 C 14.372 60.142, 7.692 60.128, 2.250 58.457 L 0 57.767 0 100.883 L 0 144 55.981 144 L 111.962 144 112.481 141.500 C 112.766 140.125, 113.221 137.925, 113.491 136.612 C 113.761 135.299, 115.640 131.361, 117.667 127.862 C 127.670 110.591, 131.751 101.240, 133.428 91.750 C 133.926 88.934, 133.753 88, 132.734 88 C 130.614 88, 127.006 84.147, 127.623 82.541 C 127.928 81.746, 127.814 80.512, 127.369 79.798 C 126.141 77.823, 126.889 74.070, 129.720 68.012 C 131.130 64.993, 132.656 59.593, 133.110 56.012 C 134.284 46.766, 135.855 39.745, 137.009 38.591 C 137.554 38.046, 138 36.611, 138 35.403 C 138 33.487, 138.812 33.064, 144.332 32.103 C 152.986 30.596, 157.153 30.718, 159.777 32.557 C 162.510 34.470, 162.625 37.124, 160.077 39.431 C 158.602 40.765, 158.287 41.995, 158.727 44.707 C 159.252 47.943, 158.902 48.609, 154.608 52.553 C 152.026 54.923, 149.371 57.052, 148.707 57.284 C 148.043 57.516, 149.259 58.559, 151.410 59.603 C 153.560 60.646, 155.670 62.175, 156.099 63 C 159.084 68.738, 161.725 76.052, 160.979 76.513 C 160.489 76.816, 160.341 77.725, 160.651 78.532 C 160.960 79.339, 160.727 80, 160.132 80 C 159.450 80, 159.284 81.172, 159.684 83.168 C 160.218 85.840, 159.877 86.686, 157.506 88.577 L 154.695 90.818 156.940 94.623 C 158.461 97.201, 159.805 102.473, 161.105 110.964 C 162.160 117.859, 164.027 128.125, 165.253 133.778 L 167.481 144.056 179.991 143.778 L 192.500 143.500 192.825 129 C 193.003 121.025, 192.837 88.737, 192.455 57.250 L 191.761 0 127.527 -0 L 63.294 -0 63.755 4.805 M 0.459 101 C 0.459 124.925, 0.589 134.713, 0.749 122.750 C 0.908 110.788, 0.908 91.213, 0.749 79.250 C 0.589 67.288, 0.459 77.075, 0.459 101" stroke="none" fill="black" fill-rule="evenodd"/>
</svg>