<svg xmlns="http://www.w3.org/2000/svg" width="192" height="144" viewBox="0 0 192 144" version="1.1">
	<path d="M -0 72.005 L -0 144.010 96.250 143.755 L 192.500 143.500 192.757 71.750 L 193.013 0 96.507 0 L 0 0 -0 72.005 M 0.474 72.500 C 0.474 112.100, 0.598 128.154, 0.750 108.176 C 0.901 88.198, 0.901 55.798, 0.750 36.176 C 0.598 16.554, 0.474 32.900, 0.474 72.500 M 92 30.500 C 89.749 32.896, 86.219 34.073, 87.500 32 C 87.840 31.450, 87.207 31, 86.094 31 C 84.981 31, 83.573 31.929, 82.966 33.064 C 81.554 35.701, 82.933 37.493, 87.547 39.015 C 90.547 40.005, 90.798 40.351, 89.745 42.036 C 88.754 43.623, 88.925 44.282, 90.779 46.008 C 93.773 48.798, 93.651 53.578, 90.464 58.268 C 87.554 62.550, 88.876 62.406, 70.071 60.493 C 62.135 59.685, 55.433 59.233, 55.178 59.488 C 54.197 60.469, 57.357 63, 59.563 63 C 60.839 63, 62.184 63.489, 62.554 64.087 C 62.923 64.685, 64.111 64.943, 65.193 64.660 C 66.275 64.377, 68.812 64.719, 70.830 65.420 C 72.849 66.121, 75.850 67, 77.500 67.373 L 80.500 68.051 78 66.082 L 75.500 64.112 83 64.707 C 88.190 65.118, 90.862 65.794, 91.674 66.901 C 92.495 68.019, 94.449 68.500, 98.174 68.500 C 103.277 68.500, 103.514 68.618, 103.824 71.329 C 104.058 73.371, 104.567 73.996, 105.656 73.579 C 106.485 73.260, 107.802 73, 108.582 73 C 109.428 73, 110 71.991, 110 70.500 C 110 68.787, 110.551 67.999, 111.750 67.997 C 113.653 67.995, 124.539 70.388, 132.471 72.553 C 136.648 73.694, 137.686 73.694, 138.971 72.558 C 139.812 71.815, 141.400 71.044, 142.500 70.845 C 146.131 70.188, 145.622 65.556, 141.464 61.397 L 137.801 57.734 128.997 58.236 C 124.155 58.512, 119.588 58.354, 118.847 57.884 C 117.892 57.279, 118.228 57.022, 120 57 C 121.983 56.976, 122.190 56.769, 121 56 C 120.175 55.467, 118.299 55.024, 116.832 55.015 C 112.414 54.990, 111 53.991, 111 50.893 C 111 47.668, 108.706 46.916, 107.181 49.640 C 106.154 51.476, 104 50.664, 104 48.441 C 104 47.534, 105.112 46.954, 107 46.875 C 112.149 46.660, 112.464 46.545, 112.810 44.747 C 112.996 43.783, 112.405 42.709, 111.497 42.361 C 110.590 42.012, 109.466 40.727, 109.002 39.504 C 108.475 38.120, 106.986 37.047, 105.055 36.661 C 103.349 36.320, 101.683 35.337, 101.353 34.477 C 100.518 32.302, 101.657 31.470, 103.442 32.952 C 104.262 33.632, 105.448 34.017, 106.077 33.808 C 107.901 33.200, 99.658 28, 96.871 28 C 95.473 28, 93.301 29.115, 92 30.500 M 93.500 44 C 93.840 44.550, 94.316 45, 94.559 45 C 94.802 45, 95 44.550, 95 44 C 95 43.450, 94.523 43, 93.941 43 C 93.359 43, 93.160 43.450, 93.500 44 M 94.094 57.046 C 92.831 59.293, 91.984 61.318, 92.212 61.545 C 92.439 61.772, 94.172 60.652, 96.063 59.055 C 99.183 56.419, 99.357 56.004, 97.945 54.556 C 96.528 53.103, 96.186 53.324, 94.094 57.046 M 112 58 C 113.958 59.266, 115.282 59.266, 114.500 58 C 114.160 57.450, 113.121 57.007, 112.191 57.015 C 110.734 57.029, 110.707 57.165, 112 58" stroke="none" fill="black" fill-rule="evenodd"/>
</svg>