<svg xmlns="http://www.w3.org/2000/svg" width="192" height="144" viewBox="0 0 192 144" version="1.1">
	<path d="M 0 72 L 0 144 28.938 144 L 57.877 144 57.688 141.258 C 57.519 138.788, 57.947 138.408, 62 137.429 C 66.362 136.375, 66.509 136.214, 66.807 132.171 C 66.977 129.877, 66.977 126.088, 66.807 123.750 L 66.500 119.500 64.676 122.843 C 61.536 128.599, 61.826 125.687, 65.479 114.769 C 69.999 101.262, 70.018 100.408, 65.750 103.011 C 63.962 104.101, 60.978 104.994, 59.118 104.996 C 57.258 104.998, 54.137 105.988, 52.183 107.196 C 49.945 108.579, 48.494 108.982, 48.261 108.283 C 48.027 107.581, 45.519 108.250, 41.417 110.110 C 33.061 113.899, 26.868 114.799, 23.652 112.691 C 20.715 110.767, 17.274 98.818, 13.528 77.540 C 12.994 74.509, 11.534 72.333, 7.307 68.272 C 2.047 63.218, 1.817 62.788, 2.474 59.233 C 3.340 54.554, 8.473 45.416, 10.720 44.554 C 11.649 44.197, 13.851 44.682, 15.613 45.631 L 18.817 47.356 16.658 49.008 C 15.471 49.916, 13.684 50.958, 12.687 51.323 C 10.507 52.120, 11.382 54, 13.932 54 C 16.860 54, 23.612 62.096, 24.416 66.570 C 25.016 69.903, 31.420 90.735, 33.541 96.250 C 34.506 98.760, 35.258 98.486, 39.971 93.912 L 44.183 89.824 42.092 87.598 C 40.941 86.373, 40 84.853, 40 84.219 C 40 83.586, 39.251 81.497, 38.335 79.576 C 36.698 76.144, 36.717 76.016, 39.459 72.060 C 42.403 67.811, 47.763 62.950, 57.250 55.923 C 60.413 53.581, 63 51.350, 63 50.967 C 63 50.583, 62.144 49.181, 61.097 47.851 C 58.230 44.205, 59.416 40.370, 64.525 36.769 L 68.772 33.776 66.958 28.638 C 65.271 23.859, 65.262 23.457, 66.822 22.887 C 67.916 22.487, 69.505 23.317, 71.390 25.274 L 74.281 28.276 79.647 25.558 C 83.854 23.428, 86.577 22.806, 92.257 22.677 C 96.573 22.580, 100.045 21.995, 100.848 21.230 C 101.760 20.362, 103.380 20.177, 105.848 20.660 C 110.307 21.531, 111.474 21.518, 116.250 20.543 C 121.009 19.571, 121.214 21.198, 117 26.500 C 115.350 28.576, 114 30.604, 114 31.006 C 114 31.408, 117.399 31.955, 121.553 32.222 C 131.903 32.886, 134.610 35.572, 126.083 36.716 C 122.778 37.159, 121.994 37.667, 121.967 39.382 C 121.930 41.743, 119.708 44.722, 116.126 47.212 C 113.810 48.822, 113.747 49.254, 113.549 64.973 C 113.351 80.651, 113.407 81.131, 115.607 82.792 C 118.783 85.191, 124.846 94.764, 126.084 99.333 C 126.915 102.403, 126.813 103.637, 125.568 105.537 C 124.436 107.265, 124.266 108.570, 124.943 110.351 C 125.454 111.695, 125.625 113.041, 125.323 113.343 C 124.618 114.049, 126.697 123.319, 128.723 128.500 C 129.583 130.700, 130.803 134.975, 131.434 138 L 132.582 143.500 162.541 143.500 L 192.500 143.500 192.757 71.750 L 193.013 0 96.507 0 L 0 0 0 72 M 0.474 72.500 C 0.474 112.100, 0.598 128.154, 0.750 108.176 C 0.901 88.198, 0.901 55.798, 0.750 36.176 C 0.598 16.554, 0.474 32.900, 0.474 72.500 M 65.780 60.878 C 63.426 63.091, 58.913 67.005, 55.750 69.574 C 52.587 72.143, 50 74.585, 50 75 C 50 76.017, 51.735 77.361, 56.420 79.972 C 59.746 81.825, 61.233 82.053, 66.229 81.473 L 72.118 80.790 74.500 75.405 L 76.881 70.020 74.667 63.835 C 73.450 60.434, 71.915 57.472, 71.257 57.252 C 70.599 57.033, 68.134 58.664, 65.780 60.878 M 14 60 C 14 60.550, 14.477 61, 15.059 61 C 15.641 61, 15.840 60.550, 15.500 60 C 15.160 59.450, 14.684 59, 14.441 59 C 14.198 59, 14 59.450, 14 60" stroke="none" fill="black" fill-rule="evenodd"/>
</svg>