<svg xmlns="http://www.w3.org/2000/svg" width="192" height="144" viewBox="0 0 192 144" version="1.1">
	<path d="M 89.036 1.379 C 89.841 2.137, 94.327 3.955, 99.005 5.418 C 107.943 8.215, 111.820 9.977, 109 9.961 C 108.175 9.956, 105.813 9.560, 103.750 9.081 C 100.316 8.284, 99.997 8.391, 99.970 10.355 C 99.942 12.293, 99.841 12.331, 98.920 10.750 C 97.869 8.946, 92.952 6, 90.991 6 C 89.308 6, 90.921 8.030, 93.352 8.972 C 95.498 9.803, 95.498 9.805, 93.121 10.722 C 90.961 11.555, 91.783 12.215, 102.079 17.911 C 117.281 26.320, 123.849 31.540, 111.795 25.631 C 107.651 23.600, 107.015 23.514, 106.468 24.912 C 105.969 26.187, 105.570 25.978, 104.447 23.856 C 103.145 21.397, 97.324 18.343, 96.159 19.507 C 95.875 19.791, 97.132 21.256, 98.953 22.762 C 100.773 24.268, 103.441 26.556, 104.881 27.846 C 107.179 29.904, 107.224 30.053, 105.250 29.061 C 102.574 27.716, 102.391 28.653, 104.670 32.027 L 106.339 34.500 103.670 32.076 L 101 29.651 100.921 36.576 C 100.854 42.424, 100.686 43.073, 99.838 40.750 C 98.787 37.874, 97 37.008, 97 39.374 C 97 40.130, 97.655 42.605, 98.456 44.874 C 99.256 47.143, 99.695 49, 99.430 49 C 99.165 49, 99.635 50.328, 100.474 51.950 C 101.321 53.588, 102.044 57.703, 102.100 61.200 C 102.251 70.782, 102.923 72.291, 107.458 73.233 C 109.595 73.677, 111.829 74.417, 112.422 74.877 C 114.806 76.726, 125.738 78.069, 130.143 77.054 C 132.539 76.501, 137.465 76.038, 141.089 76.024 C 147.178 76.002, 147.766 76.192, 148.831 78.528 C 149.464 79.919, 150.662 81.317, 151.491 81.635 C 154.495 82.788, 152.880 83.818, 147 84.500 C 143.700 84.883, 141 85.535, 141 85.950 C 141 87.031, 153.850 90.389, 158 90.393 C 159.925 90.394, 168.326 89.298, 176.668 87.957 L 191.836 85.519 192.168 48.510 C 192.351 28.154, 192.346 8.912, 192.157 5.750 L 191.815 -0 139.693 -0 C 95.361 -0, 87.790 0.206, 89.036 1.379 M 1 15.456 C 1 18.687, 1.218 19.064, 2.479 18.017 C 3.639 17.054, 3.718 16.328, 2.844 14.645 C 1.127 11.341, 1 11.397, 1 15.456 M 69 29.908 C 69 30.956, 73.869 33.464, 74.561 32.773 C 74.871 32.462, 73.747 31.521, 72.062 30.681 C 70.378 29.841, 69 29.493, 69 29.908 M 85 30.393 C 85 31.159, 85.624 32.025, 86.387 32.318 C 87.360 32.692, 87.623 32.276, 87.270 30.925 C 86.691 28.711, 85 28.315, 85 30.393 M 91.835 33.771 C 90.919 33.960, 89.921 34.763, 89.617 35.557 C 89.195 36.656, 89.948 36.996, 92.781 36.985 C 94.827 36.976, 96.005 36.639, 95.400 36.235 C 94.795 35.831, 94.120 35.034, 93.900 34.464 C 93.680 33.894, 92.751 33.582, 91.835 33.771 M 80.372 35.474 C 79.462 37.844, 80.463 38.323, 84.674 37.533 C 88.533 36.809, 88.174 36.060, 83.245 34.552 C 81.643 34.062, 80.811 34.329, 80.372 35.474 M 70.892 39.343 C 72.616 41.848, 74.358 44.098, 74.763 44.342 C 75.168 44.587, 76.693 43.477, 78.151 41.876 C 81.092 38.646, 80.642 37.995, 74.500 36.591 C 72.850 36.214, 70.658 35.654, 69.629 35.347 C 68.104 34.892, 68.337 35.629, 70.892 39.343 M 61 46.556 C 61 47.927, 65.990 57.876, 66.987 58.492 C 68.100 59.180, 71.439 57.105, 70.588 56.255 C 70.335 56.001, 70.536 54.720, 71.036 53.407 C 71.694 51.675, 71.608 51.085, 70.722 51.259 C 70.050 51.392, 69.620 50.764, 69.768 49.864 C 69.915 48.964, 69.352 47.965, 68.518 47.645 C 67.585 47.287, 67 47.629, 67 48.531 C 67 49.339, 66.550 50, 66 50 C 65.450 50, 65 49.658, 65 49.241 C 65 48.823, 64.100 47.919, 63 47.232 C 61.900 46.545, 61 46.241, 61 46.556 M 20.262 80.750 C 11.298 91.599, 7.970 96.942, 7.348 101.479 C 6.761 105.763, 6.855 106, 9.142 106 C 10.469 106, 12.529 105.318, 13.720 104.483 C 18.042 101.456, 30 89.694, 30 88.470 C 30 87.779, 30.710 86.941, 31.579 86.608 C 32.869 86.113, 32.504 85.239, 29.579 81.821 C 27.610 79.522, 26 77.271, 26 76.820 C 26 74.894, 23.927 76.314, 20.262 80.750 M 99.568 84.890 C 99.225 85.445, 99.744 86.308, 100.722 86.807 C 104.003 88.480, 116.469 92.918, 119.500 93.492 C 124.920 94.517, 136 95.303, 136 94.662 C 136 93.408, 125.946 88.981, 118.809 87.092 C 109.393 84.601, 100.384 83.570, 99.568 84.890 M 126.500 143 C 126.127 143.604, 127.391 143.972, 129.691 143.930 C 132.733 143.874, 133.097 143.686, 131.500 143 C 128.752 141.819, 127.230 141.819, 126.500 143" stroke="none" fill="black" fill-rule="evenodd"/>
</svg>