<svg xmlns="http://www.w3.org/2000/svg" width="192" height="144" viewBox="0 0 192 144" version="1.1">
	<path d="M 83.021 43.750 C 79.742 48.971, 79.151 53.658, 81.549 55.412 C 83.670 56.963, 84.945 68.528, 82.904 67.700 C 82.132 67.386, 79.777 66.569, 77.671 65.883 C 72.669 64.254, 71.805 65.496, 72.249 73.672 C 72.519 78.626, 73.030 80.204, 74.841 81.672 C 76.576 83.079, 77.331 85.195, 78.115 90.855 C 79.369 99.913, 79.075 100.811, 75.053 100.221 C 67.927 99.175, 65.498 108.054, 70.550 116.676 C 71.953 119.070, 72.827 121.472, 72.491 122.014 C 72.109 122.632, 58.483 123, 35.941 123 L 0 123 0 133.500 L 0 144 41.067 144 L 82.135 144 81.440 141.812 C 81.058 140.608, 80.800 137.262, 80.867 134.375 C 80.976 129.624, 80.704 128.926, 77.994 126.996 C 76.347 125.823, 75 124.494, 75 124.041 C 75 122.883, 82.374 122.118, 83.088 123.202 C 83.412 123.693, 84.234 123.423, 84.916 122.602 C 87.337 119.684, 93.906 124.096, 97.316 130.932 C 98.177 132.658, 98.439 134.229, 97.919 134.550 C 97.414 134.862, 97 135.966, 97 137.002 C 97 139.446, 93.309 142, 89.777 142 C 88.250 142, 87 142.454, 87 143.009 C 87 143.678, 104.771 143.930, 139.750 143.759 L 192.500 143.500 192.780 133 L 193.060 122.500 143.780 122.601 C 116.676 122.656, 94.050 122.537, 93.500 122.336 C 91.669 121.668, 92.348 103.954, 94.375 99.500 C 95.376 97.300, 97.055 93.056, 98.106 90.070 C 99.157 87.083, 100.633 83.933, 101.388 83.070 C 105.069 78.856, 106.035 75.262, 104.904 69.988 C 103.678 64.270, 101.314 62.587, 96.003 63.649 C 94.292 63.992, 92.400 63.747, 91.595 63.079 C 89.564 61.394, 88.503 50.614, 90.010 46.976 C 91.614 43.103, 90.572 39, 87.983 39 C 86.707 39, 84.944 40.688, 83.021 43.750 M 0.374 133.500 C 0.376 139.550, 0.541 141.896, 0.740 138.713 C 0.939 135.531, 0.937 130.581, 0.736 127.713 C 0.535 124.846, 0.372 127.450, 0.374 133.500" stroke="none" fill="black" fill-rule="evenodd"/>
</svg>