<svg xmlns="http://www.w3.org/2000/svg" width="192" height="144" viewBox="0 0 192 144" version="1.1">
	<path d="M 0 20.410 L 0 40.820 8.750 41.553 C 14.001 41.992, 19.300 41.873, 22 41.254 C 24.475 40.687, 29.875 39.451, 34 38.508 C 43.461 36.345, 62.323 37.014, 75.449 39.979 C 80.371 41.090, 84.723 42, 85.120 42 C 85.517 42, 86.148 40.603, 86.523 38.895 C 86.951 36.947, 88.283 35.176, 90.096 34.145 C 93.604 32.149, 94 29.014, 90.750 28.968 C 88.239 28.933, 85 26.834, 85 25.243 C 85 23.707, 91.136 18.600, 94.813 17.078 C 97.520 15.956, 98.256 14.878, 99.562 10.125 C 100.412 7.031, 101.523 3.488, 102.032 2.250 L 102.957 0 51.479 0 L 0 0 0 20.410 M 147.550 0.890 C 148.072 1.379, 152.153 2.045, 156.618 2.370 C 167.039 3.129, 168.185 3.591, 167.804 6.874 C 167.575 8.851, 166.152 10.283, 162 12.717 C 158.975 14.490, 155.825 16.344, 155 16.836 C 153.477 17.746, 153.748 18.979, 157.520 28.291 C 158.021 29.529, 157.829 29.992, 156.896 29.791 C 156.147 29.629, 155.396 30.494, 155.206 31.735 C 154.987 33.169, 153.545 34.575, 151.182 35.656 C 145.133 38.424, 144.732 38.942, 146.522 41.674 C 148.009 43.944, 147.940 44.214, 145.151 47.003 C 143.293 48.861, 141.752 51.879, 140.955 55.220 C 140.263 58.124, 139.073 61.460, 138.310 62.633 C 137.008 64.636, 137.215 64.934, 141.712 67.544 C 144.345 69.073, 149.101 72.077, 152.280 74.220 C 155.984 76.716, 158.720 77.906, 159.897 77.533 C 161.092 77.153, 163.519 78.267, 166.851 80.725 C 169.666 82.801, 173.805 85.787, 176.049 87.361 C 178.524 89.097, 179.920 90.765, 179.599 91.603 C 179.295 92.394, 180.808 94.587, 183.145 96.742 C 185.386 98.809, 188.296 101.491, 189.610 102.702 C 191.919 104.830, 192 105.398, 192 119.393 C 192 127.362, 191.608 134.124, 191.129 134.420 C 190.650 134.716, 190.007 136.205, 189.699 137.729 C 189.392 139.253, 188.820 141.327, 188.429 142.338 C 187.844 143.851, 188.142 144.116, 190.109 143.838 C 192.497 143.500, 192.500 143.478, 192.824 128 C 193.002 119.475, 192.836 87.188, 192.455 56.250 L 191.761 0 169.180 0 C 155.948 0, 146.993 0.368, 147.550 0.890 M 36 49.415 C 32.975 50.101, 27.800 51.894, 24.500 53.400 C 20.027 55.442, 16.273 56.286, 9.750 56.717 L 1 57.296 1 100.648 L 1 144 51.400 144 L 101.801 144 103.010 138.958 C 103.710 136.041, 103.948 131.720, 103.575 128.708 C 103.220 125.843, 102.898 114.142, 102.859 102.704 C 102.800 85.282, 102.575 82.198, 101.476 83.702 C 98.982 87.113, 98.986 84.274, 101.488 74.642 C 102.870 69.325, 103.999 64.643, 103.998 64.237 C 103.996 63.832, 102.702 63.455, 101.120 63.400 C 99.515 63.344, 95.651 61.502, 92.372 59.230 C 85.431 54.419, 71.519 50.566, 55.500 49.018 C 43.350 47.844, 42.887 47.853, 36 49.415 M 144 84.435 C 144 84.674, 144.503 86.137, 145.119 87.685 C 145.734 89.233, 146.431 92.717, 146.668 95.427 C 147.301 102.670, 148.121 103.497, 150.797 99.591 C 154.064 94.823, 153.079 89.277, 148.422 86.225 C 145.062 84.022, 144 83.592, 144 84.435 M 173 105.443 C 173 105.686, 173.949 107.494, 175.109 109.460 C 177.288 113.154, 176.851 114.996, 173.250 117.300 C 170.786 118.876, 172.075 120, 176.345 120 C 180.844 120, 184 117.868, 184 114.828 C 184 113.995, 181.782 111.443, 179.071 109.157 C 174.457 105.266, 173 104.375, 173 105.443 M 147.500 139 L 142.575 144 162.538 143.955 L 182.500 143.910 178 141.483 C 172.366 138.446, 158.797 134, 155.161 134 C 153.201 134, 151.028 135.418, 147.500 139" stroke="none" fill="black" fill-rule="evenodd"/>
</svg>