<svg xmlns="http://www.w3.org/2000/svg" width="192" height="144" viewBox="0 0 192 144" version="1.1">
	<path d="M -0 20.117 L -0 40.233 2.250 39.630 C 3.487 39.299, 4.838 39.021, 5.250 39.014 C 5.662 39.006, 6 37.915, 6 36.589 C 6 32.417, 9.604 22.386, 12.438 18.670 C 16.674 13.116, 22.450 10.807, 31.281 11.136 C 37.791 11.378, 38.925 11.145, 41.072 9.120 C 42.407 7.861, 44.793 6.153, 46.374 5.325 C 49.871 3.494, 51.101 4.484, 52.808 10.500 C 53.719 13.713, 54.801 14.953, 58.304 16.800 C 63.054 19.306, 69.047 26.513, 70.857 31.899 C 72.279 36.128, 72.331 42.999, 70.969 46.583 C 70.144 48.752, 70.347 50.117, 71.984 53.398 C 73.990 57.419, 73.993 57.531, 72.135 59.064 C 70.347 60.538, 70.317 61.047, 71.619 67.930 C 73.814 79.538, 76.485 86.562, 80.296 90.746 C 81.421 91.981, 82.015 93.318, 81.616 93.717 C 81.217 94.116, 80.578 94.005, 80.196 93.471 C 77.879 90.238, 76.248 89.921, 72.699 92.015 C 68.263 94.633, 67.583 96.402, 69.709 99.802 C 70.636 101.286, 71.431 102.587, 71.475 102.694 C 71.519 102.801, 74.568 101.372, 78.250 99.518 C 101.390 87.872, 130.886 92.749, 148.766 111.176 C 153.889 116.455, 159 122.848, 159 123.974 C 159 124.297, 152.833 128.822, 145.296 134.030 L 131.591 143.500 161.447 143.765 C 177.868 143.911, 191.491 143.842, 191.721 143.612 C 191.951 143.383, 192.349 110.976, 192.605 71.597 L 193.072 0 96.536 0 L 0 0 -0 20.117 M 0.420 20.500 C 0.419 31.500, 0.565 36.136, 0.745 30.803 C 0.924 25.470, 0.925 16.470, 0.746 10.803 C 0.568 5.136, 0.421 9.500, 0.420 20.500 M 155 3 C 155 3.550, 155.450 4, 156 4 C 156.550 4, 157 3.550, 157 3 C 157 2.450, 156.550 2, 156 2 C 155.450 2, 155 2.450, 155 3 M 94.861 41.929 C 92.933 43.505, 92.736 44.097, 93.785 45.164 C 94.843 46.239, 95.551 46.201, 97.778 44.951 C 101.119 43.076, 101.993 40, 99.184 40 C 98.105 40, 96.159 40.868, 94.861 41.929 M 86.211 53.250 C 85.021 54.689, 85.740 59.721, 87.271 60.668 C 88.766 61.592, 91 58.082, 91 54.809 C 91 52.728, 90.514 52, 89.122 52 C 88.090 52, 86.780 52.563, 86.211 53.250 M 3.250 54.780 C 1.064 55.129, 1.003 55.457, 1.115 66.320 C 1.197 74.296, 1.456 76.497, 2.020 74 C 3.133 69.066, 5.842 54.508, 5.655 54.460 C 5.570 54.438, 4.488 54.582, 3.250 54.780 M 2.655 88.829 C 1.647 89.942, 1 92.364, 1 95.020 C 1 98.654, 1.209 99.128, 2.250 97.861 C 2.938 97.024, 6.040 95.048, 9.145 93.468 L 14.789 90.596 9.683 88.798 C 6.875 87.809, 4.517 87, 4.443 87 C 4.370 87, 3.565 87.823, 2.655 88.829 M 185.386 101.437 C 184.598 103.490, 185.708 106.299, 186.993 105.504 C 187.547 105.162, 188 104.035, 188 103 C 188 100.536, 186.155 99.433, 185.386 101.437 M 1.079 107.583 C 1.127 108.748, 1.364 108.985, 1.683 108.188 C 1.972 107.466, 1.936 106.603, 1.604 106.271 C 1.272 105.939, 1.036 106.529, 1.079 107.583 M 68 135.316 C 68 136.655, 67.719 139.156, 67.375 140.875 C 66.880 143.349, 67.088 144, 68.375 144 C 69.656 144, 70 142.953, 70 139.059 C 70 136.341, 69.550 133.840, 69 133.500 C 68.438 133.153, 68 133.948, 68 135.316" stroke="none" fill="black" fill-rule="evenodd"/>
</svg>