<svg xmlns="http://www.w3.org/2000/svg" width="192" height="144" viewBox="0 0 192 144" version="1.1">
	<path d="M 157.079 89.703 C 156.975 92.592, 154.901 97.208, 153.069 98.628 C 151.807 99.606, 151.838 99.981, 153.307 101.449 C 154.238 102.381, 155.007 104.123, 155.015 105.321 C 155.024 106.520, 155.432 108.135, 155.924 108.911 C 156.465 109.766, 156.405 110.980, 155.770 111.997 C 154.309 114.335, 155.718 122.675, 157.838 124.235 C 159.802 125.680, 160.019 130.440, 158.264 133.591 C 157.624 134.741, 156.455 137.554, 155.667 139.841 L 154.234 144 164.511 144 L 174.787 144 173.722 139.750 C 173.135 137.412, 172.698 134.375, 172.750 133 C 173.400 115.871, 173.235 116.823, 175.437 117.484 C 180.617 119.041, 184.709 119.066, 188.250 117.564 C 191.284 116.277, 191.999 115.451, 191.997 113.237 C 191.994 110.514, 191.953 110.499, 184.282 110.236 C 180.041 110.090, 176.212 109.612, 175.772 109.172 C 175.333 108.733, 176.104 107.311, 177.487 106.012 C 178.869 104.714, 180 103.188, 180 102.623 C 180 102.057, 178.294 103.260, 176.208 105.297 C 174.122 107.334, 171.422 109, 170.208 109 C 167.691 109, 167.507 108.176, 169.194 104.473 C 170.128 102.424, 170.118 101.418, 169.147 99.863 C 168.464 98.770, 168.182 97.003, 168.520 95.937 C 168.954 94.569, 168.662 94, 167.528 94 C 165.257 94, 158.286 90.306, 157.671 88.777 C 157.389 88.075, 157.122 88.491, 157.079 89.703 M 99.473 91.085 C 99.109 92.232, 97.596 93.594, 96.110 94.112 C 93.478 95.029, 93.419 95.222, 93.830 101.677 C 94.209 107.629, 94.025 108.472, 92.016 109.988 C 89.856 111.617, 89.836 111.782, 91.431 114.867 C 92.339 116.622, 92.806 118.505, 92.469 119.050 C 92.132 119.596, 91.618 125.432, 91.328 132.021 L 90.800 144 100.900 144 C 108.553 144, 111 143.683, 111 142.692 C 111 141.972, 109.207 137.810, 107.015 133.442 C 104.823 129.074, 103.023 125.376, 103.015 125.225 C 103.007 125.074, 104.180 124.502, 105.622 123.954 C 107.438 123.263, 108.653 123.297, 109.578 124.065 C 110.312 124.674, 111.382 124.882, 111.956 124.527 C 112.552 124.159, 113 124.765, 113 125.941 C 113 128.554, 116.069 128.687, 118.345 126.171 C 120.731 123.534, 120.402 122.336, 116.961 121.136 C 114.992 120.450, 113.563 119.043, 112.899 117.139 C 112.335 115.523, 111.001 113.972, 109.933 113.693 C 108.733 113.379, 108.206 112.627, 108.552 111.724 C 108.907 110.799, 108.340 110.061, 107.009 109.713 C 105.010 109.190, 104.978 108.989, 106.368 105.663 C 107.172 103.738, 107.607 101.940, 107.334 101.667 C 107.061 101.394, 107.303 100.302, 107.872 99.239 C 108.729 97.639, 108.399 96.932, 105.953 95.123 C 104.329 93.923, 103 92.054, 103 90.970 C 103 88.352, 100.313 88.440, 99.473 91.085 M 34.454 93.600 C 33.272 97.353, 32.321 98.523, 29.251 100 C 26.284 101.428, 26.163 101.717, 26.721 106 C 27.044 108.475, 27.585 110.725, 27.924 111 C 28.263 111.275, 29.054 112.672, 29.682 114.103 C 30.647 116.304, 30.528 116.960, 28.912 118.344 C 27.806 119.290, 27 121.265, 27 123.026 C 27 125.702, 26.424 126.322, 22.250 128.138 C 14.751 131.401, 10.358 131.685, 7.591 129.085 C 5.866 127.465, 4.578 127.068, 2.630 127.557 C 0.068 128.200, 0 128.420, 0 136.108 L 0 144 24 144 C 37.200 144, 48 143.613, 48 143.140 C 48 142.666, 46.819 140.539, 45.377 138.413 C 43.008 134.923, 42.811 133.929, 43.346 128.193 C 43.809 123.242, 43.577 121.284, 42.299 119.334 C 41.173 117.615, 41.001 116.618, 41.750 116.155 C 43.527 115.057, 44.259 110.353, 43.016 108.029 C 42.128 106.371, 42.151 105.523, 43.116 104.360 C 44.132 103.135, 44.098 102.675, 42.936 101.939 C 42.146 101.439, 41.163 101.024, 40.750 101.015 C 40.337 101.007, 40 99.953, 40 98.674 C 40 97.395, 38.887 95.303, 37.526 94.025 C 35.174 91.815, 35.023 91.794, 34.454 93.600 M 23.696 132.403 C 18.370 134.794, 18.464 136, 23.976 136 C 28.855 136, 31.549 134.081, 29.784 131.862 C 28.611 130.387, 28.084 130.434, 23.696 132.403" stroke="none" fill="black" fill-rule="evenodd"/>
</svg>