<svg xmlns="http://www.w3.org/2000/svg" width="192" height="144" viewBox="0 0 192 144" version="1.1">
	<path d="M 92.082 80.750 C 89.799 82.616, 89.099 86.735, 90.300 91.231 C 90.905 93.501, 90.424 94.632, 87.449 97.925 C 85.154 100.465, 83.840 102.939, 83.786 104.821 C 83.675 108.727, 87.643 116.752, 90.067 117.521 C 91.130 117.859, 92 118.527, 92 119.006 C 92 120.193, 100.301 121.357, 102.895 120.533 C 106.511 119.386, 107.987 117.186, 107.334 113.918 C 106.876 111.631, 107.273 110.339, 108.993 108.508 C 111.920 105.392, 111.029 103, 106.942 103 C 104.928 103, 103.155 102.202, 101.944 100.750 C 99.932 98.338, 99.319 95.461, 101.044 96.527 C 103.136 97.820, 105 94.792, 104.982 90.128 C 104.966 85.975, 104.562 85.166, 101.049 82.250 C 96.581 78.540, 95.089 78.291, 92.082 80.750" stroke="none" fill="black" fill-rule="evenodd"/>
</svg>