<svg xmlns="http://www.w3.org/2000/svg" width="192" height="144" viewBox="0 0 192 144" version="1.1">
	<path d="M 0 42 L 0 84 5 84 C 8.443 84, 10 84.406, 10 85.304 C 10 86.854, 4.243 92.450, 1.750 93.324 C 0.146 93.886, 0 96.029, 0 118.969 L 0 144 27.988 144 C 54.068 144, 55.960 143.881, 55.738 142.250 C 55.401 139.770, 57.432 139.487, 57.820 141.960 C 58.123 143.900, 58.820 144, 72.070 144 L 86 144 86 140.500 C 86 138.575, 86.450 137, 87 137 C 87.550 137, 88 138.579, 88 140.509 L 88 144.018 140.250 143.759 L 192.500 143.500 192.744 71.750 L 192.988 -0 96.494 -0 L 0 0 0 42 M 0.458 42.500 C 0.458 65.600, 0.589 74.907, 0.749 63.183 C 0.909 51.458, 0.909 32.558, 0.749 21.183 C 0.588 9.807, 0.457 19.400, 0.458 42.500 M 25.979 3.039 C 24.982 4.902, 25.130 5.574, 26.933 7.372 C 28.766 9.201, 29.199 9.289, 30.018 8 C 31.432 5.771, 31.213 4.502, 29.080 2.572 C 27.246 0.912, 27.106 0.933, 25.979 3.039 M 39.932 4.127 C 39.044 5.786, 39.091 6.443, 40.147 7.112 C 40.891 7.583, 41.812 7.976, 42.193 7.985 C 43.313 8.009, 45.965 3.752, 45.399 2.837 C 44.405 1.229, 41.061 2.018, 39.932 4.127 M 127.630 5.250 C 127.299 6.488, 127.021 8.343, 127.014 9.372 C 127.002 10.924, 127.257 11.031, 128.500 10 C 130.099 8.673, 130.599 3, 129.117 3 C 128.631 3, 127.962 4.012, 127.630 5.250 M 58.250 5.706 C 57.013 5.944, 56 6.588, 56 7.136 C 56 8.561, 61.264 7.750, 61.756 6.250 C 61.982 5.563, 61.792 5.061, 61.333 5.136 C 60.875 5.211, 59.487 5.467, 58.250 5.706 M 64.441 7.096 C 64.068 7.699, 64.492 8.920, 65.382 9.810 C 66.873 11.301, 67.127 11.301, 68.618 9.810 C 70.508 7.920, 69.693 6, 67 6 C 65.965 6, 64.813 6.493, 64.441 7.096 M 43 14 C 43 14.550, 44.152 15, 45.559 15 C 47.010 15, 47.851 14.567, 47.500 14 C 47.160 13.450, 46.009 13, 44.941 13 C 43.873 13, 43 13.450, 43 14 M 119.361 15.502 C 118.600 17.485, 119.767 22, 121.040 22 C 121.592 22, 122.549 20.888, 123.168 19.530 C 124.029 17.641, 123.995 16.699, 123.025 15.530 C 121.416 13.591, 120.098 13.582, 119.361 15.502 M 74.920 27.596 C 73.764 28.990, 73.897 29.148, 75.970 28.846 C 77.275 28.656, 78.529 27.938, 78.755 27.250 C 79.348 25.451, 76.486 25.709, 74.920 27.596 M 124.667 32.667 C 123.744 33.589, 123.830 35, 124.809 35 C 125.254 35, 126.491 34.339, 127.559 33.532 C 129.466 32.089, 129.464 32.063, 127.417 32.032 C 126.271 32.014, 125.033 32.300, 124.667 32.667 M 42.250 40.718 C 40.532 41.334, 40.672 43, 42.441 43 C 44.097 43, 45.408 41.351, 44.266 40.704 C 43.845 40.465, 42.938 40.472, 42.250 40.718 M 75.667 42.667 C 74.233 44.100, 75.133 45, 78 45 C 80 45, 81 44.500, 81 43.500 C 81 41.986, 76.976 41.358, 75.667 42.667 M 11 43.943 C 11 44.951, 14.925 48, 16.223 48 C 17.508 48, 17.102 46.245, 15.429 44.571 C 13.698 42.841, 11 42.459, 11 43.943 M 155.459 52.067 C 154.399 53.782, 155.348 53.950, 157.443 52.418 C 159.065 51.232, 159.115 51, 157.750 51 C 156.852 51, 155.821 51.480, 155.459 52.067 M 84 74 C 84 74.550, 84.450 75, 85 75 C 85.550 75, 86 74.550, 86 74 C 86 73.450, 85.550 73, 85 73 C 84.450 73, 84 73.450, 84 74 M 170.774 74.744 C 168.263 76.301, 166.476 78.809, 167.295 79.628 C 167.483 79.816, 169.157 78.402, 171.015 76.485 C 174.788 72.591, 174.745 72.281, 170.774 74.744 M 3.510 77.984 C 2.773 79.177, 3.709 81, 5.059 81 C 6.276 81, 6.284 78.293, 5.069 77.543 C 4.557 77.226, 3.856 77.425, 3.510 77.984 M 70.226 79.179 C 70.737 80.712, 75.879 80.986, 76.250 79.500 C 76.388 78.950, 74.989 78.355, 73.143 78.179 C 70.708 77.946, 69.907 78.220, 70.226 79.179 M 93.695 78.639 C 92.543 79.790, 92.914 86.514, 94.200 87.800 C 96.296 89.896, 96.825 89.117, 96.272 84.750 C 95.659 79.895, 94.703 77.630, 93.695 78.639 M 79.564 81.293 C 79.940 82.279, 80.499 82.834, 80.807 82.526 C 81.115 82.219, 80.808 81.412, 80.124 80.733 C 79.136 79.753, 79.022 79.868, 79.564 81.293 M 74.655 87.829 C 73.745 88.835, 73 89.975, 73 90.364 C 73 91.573, 76.732 89.140, 77.351 87.528 C 78.153 85.439, 76.668 85.605, 74.655 87.829 M 18 89.393 C 18 90.846, 20.415 92.252, 21.333 91.333 C 21.624 91.042, 21.620 90.173, 21.324 89.402 C 20.627 87.585, 18 87.578, 18 89.393 M 79.986 91.250 C 79.979 91.938, 79.693 93.625, 79.350 95 C 78.933 96.676, 79.060 97.170, 79.735 96.500 C 81.231 95.014, 82.222 90, 81.019 90 C 80.459 90, 79.994 90.563, 79.986 91.250 M 156.750 91.572 C 153.744 93.203, 153.107 95, 155.535 95 C 157.430 95, 162 92.091, 162 90.885 C 162 89.593, 159.889 89.869, 156.750 91.572 M 0.435 119 C 0.435 133.025, 0.575 138.763, 0.747 131.750 C 0.919 124.738, 0.919 113.263, 0.747 106.250 C 0.575 99.238, 0.435 104.975, 0.435 119 M 49.226 97.179 C 49.774 98.823, 52.760 100.573, 53.595 99.739 C 54.546 98.787, 52.085 96, 50.294 96 C 49.491 96, 49.010 96.530, 49.226 97.179 M 111.722 99.050 C 112.944 100.337, 114.138 101.189, 114.374 100.944 C 114.611 100.700, 113.611 99.648, 112.152 98.606 L 109.500 96.712 111.722 99.050 M 150.091 101.489 C 149.419 103.132, 148.845 106.170, 148.816 108.239 C 148.773 111.384, 148.415 112.005, 146.632 112.032 C 144.542 112.063, 144.538 112.093, 146.441 113.532 C 149.842 116.104, 153.693 115.093, 150.948 112.348 C 150.213 111.613, 150.241 109.930, 151.041 106.750 C 152.528 100.846, 151.863 97.161, 150.091 101.489 M 43 104 C 43 104.550, 43.927 105, 45.059 105 C 46.191 105, 46.840 104.550, 46.500 104 C 46.160 103.450, 45.234 103, 44.441 103 C 43.648 103, 43 103.450, 43 104 M 188.035 106.934 C 186.749 109.337, 186.744 111.063, 188.015 113 C 188.891 114.333, 189.109 114.333, 189.985 113 C 191.256 111.064, 191.294 105, 190.035 105 C 189.505 105, 188.605 105.870, 188.035 106.934 M 52.750 106.689 C 51.788 106.941, 51 107.592, 51 108.137 C 51 109.563, 57.267 108.741, 57.756 107.250 C 58.164 106.007, 56.201 105.787, 52.750 106.689 M 99 114.094 C 99 114.592, 99.413 115, 99.918 115 C 100.423 115, 101.622 115.301, 102.582 115.670 C 103.680 116.091, 104.087 115.950, 103.680 115.291 C 102.825 113.908, 99 112.930, 99 114.094 M 81 115.393 C 81 115.609, 81.698 116.054, 82.552 116.382 C 83.442 116.723, 83.843 116.555, 83.493 115.989 C 82.906 115.038, 81 114.583, 81 115.393 M 144.640 118.773 C 143.804 120.126, 148.409 121.984, 150.063 120.961 C 151.762 119.911, 151.263 119.355, 147.857 118.500 C 146.406 118.136, 144.958 118.259, 144.640 118.773 M 24.916 126.399 C 25.849 127.523, 25.480 128.063, 23.039 129.143 C 19.634 130.650, 19.253 131.500, 21.582 132.393 C 24.264 133.422, 28.527 133.067, 30.462 131.652 C 32.388 130.243, 31.836 128, 29.563 128 C 28.838 128, 27.685 127.325, 27 126.500 C 26.315 125.675, 25.305 125, 24.755 125 C 24.165 125, 24.231 125.574, 24.916 126.399 M 156.122 126.904 C 153.936 128.288, 155.804 130, 159.500 130 C 161.360 130, 163.191 129.500, 163.569 128.888 C 164.400 127.543, 162.246 126.031, 159.500 126.031 C 158.400 126.031, 156.880 126.423, 156.122 126.904 M 60.518 130.971 C 59.796 132.140, 64.438 133.466, 65.959 132.525 C 66.550 132.160, 66.774 131.443, 66.457 130.931 C 65.698 129.703, 61.283 129.732, 60.518 130.971 M 105 142 C 104.099 142.582, 103.975 142.975, 104.691 142.985 C 105.346 142.993, 106.160 142.550, 106.500 142 C 107.267 140.758, 106.921 140.758, 105 142" stroke="none" fill="black" fill-rule="evenodd"/>
</svg>