<svg xmlns="http://www.w3.org/2000/svg" width="192" height="144" viewBox="0 0 192 144" version="1.1">
	<path d="M 0.079 30.250 C 0.122 46.888, 0.388 59.825, 0.670 59 C 2.131 54.716, 5.013 49.234, 6.414 48.071 C 7.286 47.347, 8 46.038, 8 45.161 C 8 44.284, 8.721 41.679, 9.602 39.372 C 11.317 34.880, 10.838 31.403, 6.515 17 C 5.607 13.975, 4.382 8.912, 3.794 5.750 C 3.113 2.088, 2.230 -0, 1.362 -0 C 0.241 -0, 0.014 5.351, 0.079 30.250 M 175.277 1.929 C 174.336 3.435, 174.338 3.965, 175.286 4.350 C 175.954 4.621, 175.347 4.878, 173.937 4.921 C 172.485 4.966, 170.159 6.268, 168.571 7.926 C 166.145 10.458, 165.720 11.798, 165.417 17.873 C 165.225 21.735, 165.556 26.296, 166.153 28.009 L 167.239 31.124 169.434 29.062 C 170.641 27.928, 172.060 27, 172.586 27 C 173.113 27, 175.749 24.975, 178.445 22.500 C 181.141 20.025, 183.987 18, 184.769 18 C 185.551 18, 187.498 17.228, 189.096 16.284 C 191.879 14.640, 192 14.264, 192 7.284 L 192 0 184.241 0 C 177.660 0, 176.298 0.293, 175.277 1.929 M -0 141.311 C -0 143.333, 0.496 144, 2 144 C 3.100 144, 4 143.756, 4 143.458 C 4 143.160, 3.100 141.950, 2 140.770 L -0 138.623 -0 141.311" stroke="none" fill="black" fill-rule="evenodd"/>
</svg>