<svg xmlns="http://www.w3.org/2000/svg" width="192" height="144" viewBox="0 0 192 144" version="1.1">
	<path d="M 63.641 8.687 C 63.719 13.465, 63.424 18.078, 62.985 18.937 C 62.546 19.797, 61.673 22.426, 61.044 24.781 C 58.171 35.542, 47.791 47.770, 36.500 53.695 C 26.373 59.009, 9.128 61.382, 1.750 58.475 C 0.100 57.825, 0 60.243, 0 100.893 L 0 144 62.500 144 C 124.183 144, 125 143.974, 125 142.014 C 125 139.183, 126.774 132.192, 130.792 119.193 C 133.413 110.712, 134 107.600, 133.143 106.743 C 131.544 105.144, 131.720 101.845, 133.541 99.245 C 136.385 95.184, 138.057 87.811, 137.395 82.250 C 137.051 79.362, 136.382 77, 135.908 77 C 135.434 77, 134.331 75.908, 133.457 74.574 C 131.955 72.282, 132.046 71.775, 135.134 65.324 C 136.931 61.571, 138.761 58.350, 139.200 58.167 C 141.076 57.385, 139.864 54.183, 137.465 53.580 C 136.047 53.225, 134.515 51.854, 133.989 50.472 C 133.441 49.029, 132.251 48, 131.132 48 C 128.924 48, 128 46.147, 128 41.723 C 128 39.732, 127.062 37.630, 125.399 35.894 C 122.929 33.316, 122.892 33.128, 124.676 32.173 C 125.709 31.621, 130.672 31.243, 135.705 31.334 C 148.208 31.561, 148.382 31.705, 158.148 49.961 C 159.201 51.929, 160 55.462, 160 58.146 C 160 60.744, 160.515 64.137, 161.145 65.685 C 161.774 67.233, 162.404 72.325, 162.543 77 C 162.683 81.675, 163.193 87.750, 163.677 90.500 C 164.160 93.250, 164.185 97.300, 163.731 99.500 C 163.277 101.700, 162.656 104.702, 162.351 106.170 C 161.954 108.083, 163.361 112.337, 167.313 121.170 C 170.348 127.952, 173.601 135.880, 174.543 138.788 L 176.255 144.077 184.378 143.788 L 192.500 143.500 192.825 129 C 193.003 121.025, 192.837 88.737, 192.455 57.250 L 191.761 0 127.630 -0.001 L 63.500 -0.001 63.641 8.687 M 0.459 101 C 0.459 124.925, 0.589 134.713, 0.749 122.750 C 0.908 110.788, 0.908 91.213, 0.749 79.250 C 0.589 67.288, 0.459 77.075, 0.459 101" stroke="none" fill="black" fill-rule="evenodd"/>
</svg>