<svg xmlns="http://www.w3.org/2000/svg" width="192" height="144" viewBox="0 0 192 144" version="1.1">
	<path d="M 108.758 2.250 C 109.072 3.488, 109.963 5.484, 110.738 6.687 C 111.513 7.889, 112.002 9.733, 111.824 10.783 C 111.646 11.833, 112.096 13.411, 112.825 14.289 C 113.779 15.439, 114.146 19.602, 114.138 29.192 C 114.127 41.509, 113.893 43.170, 110.991 51.500 C 109.267 56.450, 106.275 63.343, 104.342 66.817 C 100.579 73.580, 89.586 85.473, 84.250 88.555 C 82.463 89.587, 81 90.740, 81 91.118 C 81 91.495, 79.650 92.275, 78 92.850 C 76.350 93.425, 75 94.369, 75 94.948 C 75 95.527, 74.242 96, 73.316 96 C 72.389 96, 69.802 96.886, 67.566 97.968 C 65.330 99.051, 62.600 100.076, 61.500 100.247 C 60.400 100.418, 58.938 100.909, 58.250 101.338 C 57.563 101.767, 56.588 101.864, 56.085 101.553 C 55.582 101.242, 55.020 101.438, 54.835 101.989 C 54.651 102.540, 49.043 103.284, 42.374 103.642 C 31.620 104.220, 29.640 104.064, 24.874 102.257 C 21.918 101.137, 16.891 99.416, 13.702 98.432 C 10.513 97.448, 6.488 95.598, 4.758 94.321 C 3.027 93.045, 1.249 92, 0.806 92 C 0.363 92, 0 103.700, 0 118 L 0 144 93.885 144 L 187.769 144 187.769 139.227 C 187.769 136.602, 188.609 131.539, 189.635 127.977 L 191.500 121.500 192.052 132.500 C 192.438 140.172, 192.626 136.391, 192.676 120 C 192.744 97.435, 191.564 53.945, 190.652 45.403 C 190.364 42.704, 189.306 40.397, 187.553 38.644 C 184.445 35.536, 184.943 34, 189.059 34 L 192 34 192 17 L 192 0 150.094 -0 L 108.187 -0 108.758 2.250 M 0.437 118 C 0.437 132.575, 0.577 138.537, 0.747 131.250 C 0.918 123.962, 0.918 112.037, 0.747 104.750 C 0.577 97.462, 0.437 103.425, 0.437 118" stroke="none" fill="black" fill-rule="evenodd"/>
</svg>