<svg xmlns="http://www.w3.org/2000/svg" width="192" height="144" viewBox="0 0 192 144" version="1.1">
	<path d="M 0 72 L 0 144 34.841 144 L 69.682 144 70.941 138.250 C 71.633 135.088, 73.981 127.775, 76.157 122 C 79.611 112.834, 80.033 110.825, 79.477 106.188 C 78.848 100.936, 78.808 100.883, 75.920 101.518 C 74.216 101.892, 73 101.743, 73 101.161 C 73 100.613, 72.727 99.452, 72.393 98.582 C 71.918 97.343, 72.478 97, 74.972 97 C 78.041 97, 78.134 96.880, 77.474 93.750 C 76.521 89.227, 75.399 88.329, 73.195 90.324 C 72.176 91.246, 70.116 92, 68.616 92 C 66.263 92, 65.547 91.224, 63.381 86.326 C 62 83.205, 60 79.544, 58.936 78.191 C 57.871 76.838, 57 74.618, 57 73.259 C 57 71.814, 55.962 69.971, 54.500 68.821 C 53.125 67.740, 52 66.235, 52 65.477 C 52 64.719, 51.262 63.686, 50.360 63.181 C 49.399 62.644, 49.032 61.757, 49.474 61.042 C 50.389 59.561, 56.443 60.467, 59.715 62.574 C 60.933 63.358, 62.574 64, 63.361 64 C 64.149 64, 66.189 65.591, 67.896 67.535 C 71.143 71.233, 71.431 70.966, 71.041 64.622 C 70.808 60.826, 70.867 60.754, 73.863 61.193 C 77.516 61.729, 78 60.837, 78 53.577 C 78 46.746, 79.831 32.150, 81.061 29.179 C 81.901 27.150, 81.779 26.935, 80.095 27.470 C 79.035 27.806, 77.891 27.633, 77.552 27.084 C 77.213 26.536, 76.347 26.313, 75.628 26.589 C 73.029 27.586, 72.054 24.610, 72.795 17.945 L 73.512 11.500 77.456 11.851 C 79.625 12.044, 83.770 13.250, 86.666 14.531 C 92.937 17.304, 98.802 17.186, 107 14.121 C 110.025 12.991, 113.965 12.051, 115.756 12.033 L 119.011 12 118.470 19.203 C 118.172 23.164, 117.704 26.629, 117.431 26.903 C 117.157 27.176, 115.360 27.400, 113.436 27.400 C 110.664 27.400, 110.075 27.721, 110.593 28.950 C 110.952 29.802, 111.885 37.025, 112.666 45 C 114.383 62.527, 114.353 62.417, 117.001 60.999 C 118.717 60.081, 119.164 60.268, 119.885 62.206 C 120.949 65.069, 120.183 67.284, 118.371 66.589 C 117.617 66.300, 117 66.499, 117 67.031 C 117 67.564, 117.368 68, 117.819 68 C 118.269 68, 119.365 69.463, 120.255 71.250 C 121.548 73.848, 121.885 74.083, 121.936 72.424 C 122.007 70.125, 126.163 65.740, 128.613 65.381 C 131.912 64.896, 131.873 63.433, 128.545 62.845 C 127.470 62.655, 125.112 60.324, 123.305 57.665 C 120.753 53.908, 120.239 52.422, 121 50.999 C 121.641 49.802, 121.637 47.361, 120.990 43.948 C 119.787 37.604, 119.789 37.752, 120.905 38.441 C 121.403 38.749, 122.415 37.088, 123.155 34.750 C 124.621 30.118, 126.314 29.194, 126.820 32.750 C 127.183 35.312, 128.780 35.737, 129.638 33.500 C 130.437 31.420, 132 31.618, 132 33.800 C 132 35.586, 133.772 38, 135.083 38 C 135.459 38, 136.021 37.026, 136.333 35.836 C 136.811 34.007, 137.140 33.871, 138.449 34.958 C 141.502 37.491, 139.528 56.329, 135.902 59.275 C 133.159 61.503, 134.106 62.527, 138.554 62.144 C 141.053 61.928, 142 62.250, 142 63.316 C 142 64.125, 141.360 65.032, 140.578 65.332 C 139.732 65.656, 139.365 66.679, 139.672 67.854 C 140.031 69.227, 139.397 70.349, 137.594 71.530 C 136.167 72.465, 135 73.883, 135 74.681 C 135 75.479, 134.437 77.114, 133.750 78.316 C 133.063 79.517, 131.357 83.425, 129.960 87 C 127.656 92.896, 127.130 93.529, 124.302 93.807 C 122.088 94.024, 120.576 93.461, 119.092 91.868 L 117 89.623 117 92.928 C 117 95.740, 117.298 96.155, 118.999 95.711 C 121.406 95.081, 122.351 96.317, 121.504 98.986 C 121.099 100.265, 120.116 100.875, 118.702 100.728 C 116.935 100.543, 116.405 101.160, 115.894 104 L 115.263 107.500 115.132 103.809 C 114.994 99.942, 113.651 98.137, 112.409 100.148 C 110.764 102.808, 111.889 111.851, 114.703 118.604 C 116.284 122.397, 118.884 129.668, 120.481 134.763 L 123.384 144.025 157.942 143.763 L 192.500 143.500 192.757 71.750 L 193.013 0 96.507 0 L 0 0 0 72 M 0.474 72.500 C 0.474 112.100, 0.598 128.154, 0.750 108.176 C 0.901 88.198, 0.901 55.798, 0.750 36.176 C 0.598 16.554, 0.474 32.900, 0.474 72.500 M 57.911 27.691 C 57.862 29.786, 57.894 33.605, 57.981 36.177 C 58.107 39.857, 57.734 41.072, 56.234 41.875 C 53.045 43.582, 53.510 49.336, 57.280 54.815 C 59.980 58.739, 61.013 59.494, 63.640 59.465 C 67.924 59.417, 69.463 57.869, 71.323 51.738 C 74.006 42.891, 74.491 37.126, 72.612 36.405 C 71.725 36.064, 71 35.148, 71 34.368 C 71 32.354, 66.129 30.648, 64.422 32.065 C 62.509 33.652, 61.174 32.446, 60.425 28.454 C 59.512 23.587, 58.017 23.133, 57.911 27.691 M 112.639 93.694 C 111.513 94.820, 111.954 96, 113.500 96 C 114.325 96, 115 95.577, 115 95.059 C 115 93.798, 113.438 92.895, 112.639 93.694" stroke="none" fill="black" fill-rule="evenodd"/>
</svg>