<svg xmlns="http://www.w3.org/2000/svg" width="192" height="144" viewBox="0 0 192 144" version="1.1">
	<path d="M 0 25.429 L 0 50.859 6.750 48.903 C 18.710 45.437, 43.979 46.679, 60.432 51.542 C 66.489 53.333, 66 53.374, 66 51.071 C 66 49.154, 66.789 48.140, 70.953 44.705 C 73.926 42.252, 73.188 39.909, 69 38.499 C 67.075 37.852, 65.500 36.687, 65.500 35.911 C 65.500 34.680, 73.149 28.786, 75.973 27.841 C 76.533 27.654, 78.231 23.917, 79.746 19.538 C 83.489 8.719, 86.596 6.645, 103.275 3.839 C 112.986 2.205, 116.734 3.530, 122.201 10.529 L 126.474 16 133.546 16 C 145.480 16, 147.198 20.103, 137.318 25.008 C 129.729 28.775, 129.864 28.511, 132.561 34.311 C 134.559 38.608, 134.718 39.556, 133.487 39.823 C 132.669 40.001, 131.995 41.126, 131.989 42.323 C 131.980 43.875, 130.816 45.056, 127.931 46.439 C 122.860 48.869, 122.436 49.575, 124.132 52.759 C 125.221 54.803, 125.241 55.414, 124.232 55.753 C 121.398 56.704, 120 59.303, 120 63.621 C 120 68.393, 117.717 74, 115.774 74 C 113.933 74, 115.875 75.558, 123.833 80.465 C 127.805 82.913, 131.659 84.684, 132.398 84.401 C 133.137 84.117, 135.262 84.941, 137.121 86.232 C 147.389 93.364, 150 95.534, 150.003 96.943 C 150.006 98.789, 165.312 112, 167.448 112 C 169.720 112, 177.803 120.367, 178.600 123.544 C 179.510 127.168, 191.627 144.412, 192.393 143.173 C 192.711 142.659, 192.947 110.234, 192.917 71.119 L 192.864 0 96.432 0 L 0 0 0 25.429 M 0.435 26 C 0.435 40.025, 0.575 45.763, 0.747 38.750 C 0.919 31.738, 0.919 20.263, 0.747 13.250 C 0.575 6.238, 0.435 11.975, 0.435 26 M 13.500 57.731 C 12.400 58.005, 9.137 59.110, 6.250 60.187 L 1 62.144 1 103.072 L 1 144 42.658 144 L 84.316 144 83.658 125.840 C 83.296 115.852, 83 104.103, 83 99.733 C 83 92.824, 82.789 91.867, 81.383 92.406 C 79.963 92.951, 79.852 92.338, 80.472 87.376 C 80.860 84.269, 81.762 79.787, 82.475 77.417 L 83.772 73.109 80.933 72.485 C 79.371 72.142, 77.060 71.056, 75.797 70.072 C 71.860 67.005, 67.669 65.219, 58.103 62.529 C 42.310 58.089, 21.179 55.815, 13.500 57.731 M 121.478 94.750 C 121.859 95.713, 122.416 97.963, 122.716 99.750 C 123.510 104.476, 125 103.730, 125 98.607 C 125 95.524, 124.528 94.033, 123.418 93.607 C 121.010 92.683, 120.727 92.850, 121.478 94.750 M 144.034 110.459 C 143.101 111.584, 143.327 112.523, 145.114 114.940 L 147.375 117.999 144.501 120.999 L 141.626 124 147.790 124 C 153.284 124, 154.134 123.725, 155.615 121.464 C 157.254 118.963, 157.218 118.878, 152.966 115.214 C 145.875 109.103, 145.379 108.839, 144.034 110.459 M 166.913 135.344 C 165.489 136.598, 164.038 139.059, 163.688 140.812 L 163.050 144 171.147 144 C 177.459 144, 179.038 143.724, 178.308 142.750 C 173.366 136.158, 170.725 133.005, 170.166 133.032 C 169.800 133.049, 168.336 134.089, 166.913 135.344 M 123.158 141 L 120.940 144 135.220 143.960 C 147.747 143.925, 149.193 143.755, 147 142.580 C 144.158 141.056, 131.305 138, 127.741 138 C 126.273 138, 124.535 139.138, 123.158 141" stroke="none" fill="black" fill-rule="evenodd"/>
</svg>