<svg xmlns="http://www.w3.org/2000/svg" width="192" height="144" viewBox="0 0 192 144" version="1.1">
	<path d="M 77.120 3.151 C 74.890 3.976, 74.742 4.671, 74.761 14.232 C 74.775 21.613, 75.370 23, 78.520 23 L 81.102 23 78.440 26.490 C 75.468 30.386, 75.726 32.682, 79.189 33.172 C 81.258 33.466, 81.586 34.234, 82.320 40.500 C 83.526 50.804, 83.341 51.813, 79.591 55.349 C 77.265 57.543, 75.965 59.844, 75.528 62.538 C 74.197 70.738, 74.072 71, 71.481 71 C 68.705 71, 68.559 71.307, 70.030 74.057 C 71.406 76.627, 69.065 84.579, 63.285 96.970 C 59.513 105.058, 58.937 107.105, 59.477 110.500 C 59.827 112.700, 60.066 116.451, 60.006 118.837 C 59.947 121.222, 60.304 123.697, 60.800 124.337 C 62.688 126.775, 64.200 137.382, 63.077 140.315 C 62.485 141.863, 62 143.326, 62 143.565 C 62 143.804, 75.500 144, 92 144 C 108.500 144, 122 143.750, 122 143.444 C 122 143.138, 119.988 138.268, 117.530 132.622 C 115.071 126.976, 112.435 119.676, 111.670 116.400 C 110.906 113.124, 109.543 109.016, 108.640 107.272 C 105.671 101.530, 106.827 78, 110.079 78 C 111.462 78, 111.873 81.424, 112.361 97 C 112.925 114.970, 114.619 120.614, 124.458 137.291 C 127.903 143.131, 128.793 144, 131.332 144 L 134.248 144 133.535 138.250 C 133.143 135.088, 132.881 129.766, 132.953 126.425 C 133.025 123.084, 132.621 119.132, 132.054 117.642 C 131.337 115.756, 131.351 114.411, 132.099 113.212 C 132.930 111.883, 132.471 109.721, 130.087 103.720 C 127.816 98.001, 126.995 94.304, 126.983 89.724 C 126.958 80.831, 124.685 71.285, 120.578 62.830 C 118.620 58.798, 117.071 54.150, 117.136 52.500 C 117.200 50.850, 116.701 46.701, 116.025 43.280 C 114.950 37.836, 114.997 36.861, 116.398 35.459 C 117.279 34.578, 118 32.724, 118 31.339 C 118 29.954, 118.866 28.073, 119.926 27.160 C 122.946 24.556, 127.331 12.486, 126.095 10.177 C 124.402 7.014, 112.518 5.960, 107.579 8.535 C 105.577 9.580, 104.335 9.735, 103.629 9.029 C 103.063 8.463, 101.097 8, 99.260 8 C 97.422 8, 94.663 7.071, 93.128 5.937 C 90.003 3.626, 80.368 1.950, 77.120 3.151" stroke="none" fill="black" fill-rule="evenodd"/>
</svg>