<svg xmlns="http://www.w3.org/2000/svg" width="192" height="144" viewBox="0 0 192 144" version="1.1">
	<path d="M 0 72 L 0 144 55.140 144 L 110.280 144 109.633 132.090 C 109.278 125.539, 108.699 118.081, 108.347 115.516 L 107.708 110.851 111.476 112.426 C 119.481 115.770, 129.466 113.687, 134.246 107.675 C 138.439 102.401, 140.023 97.464, 138.768 93.577 C 138.222 91.885, 137.730 89.713, 137.673 88.750 C 137.617 87.787, 137.130 87, 136.590 87 C 136.051 87, 134.368 85.811, 132.851 84.358 C 130.877 82.466, 128.706 81.582, 125.209 81.246 C 120.805 80.823, 119.963 81.094, 116.658 83.995 C 113.063 87.152, 110.458 91.529, 109.809 95.500 C 109.318 98.511, 104.779 98.720, 103.500 95.791 C 102.207 92.828, 97.222 92.495, 75.289 93.903 L 59.079 94.945 51.190 89.510 C 44.607 84.976, 43.049 83.365, 41.780 79.788 C 37.912 68.881, 37.748 67.629, 38.849 57.405 C 39.436 51.957, 39.584 45.025, 39.177 42 C 38.241 35.042, 38.603 33.337, 41.157 32.669 C 43.061 32.171, 43.097 31.976, 41.662 29.928 C 40.201 27.842, 40.290 27.594, 43.308 25.358 C 45.064 24.058, 47.273 22.722, 48.217 22.389 C 49.161 22.056, 50.204 20.933, 50.534 19.892 C 50.865 18.851, 51.503 18, 51.954 18 C 53.637 18, 53.744 11.305, 52.150 5.751 L 50.500 0.003 25.250 0.001 L 0 0 0 72 M 26.497 48.131 C 27.158 52.177, 30.245 57, 32.174 57 C 33.410 57, 33.179 55.216, 31.417 51.151 C 28.942 45.443, 28.446 44.649, 27.070 44.190 C 26.083 43.861, 25.950 44.778, 26.497 48.131 M 34.051 60 C 34.027 61.786, 35.691 64.642, 36.364 63.970 C 36.624 63.710, 36.214 62.373, 35.454 60.998 C 34.652 59.550, 34.062 59.130, 34.051 60" stroke="none" fill="black" fill-rule="evenodd"/>
</svg>