<svg xmlns="http://www.w3.org/2000/svg" width="192" height="144" viewBox="0 0 192 144" version="1.1">
	<path d="M 0 72 L 0 144 60.750 143.968 C 113.326 143.941, 121.249 143.746, 119.633 142.522 C 118.606 141.745, 116.256 139.734, 114.410 138.054 C 112.564 136.374, 110.580 135, 110.002 135 C 108.623 135, 107 130.638, 107 126.935 C 107 124.768, 106.526 124, 105.187 124 C 103.169 124, 98 119.080, 98 117.160 C 98 116.483, 98.787 114.740, 99.750 113.286 C 100.712 111.831, 102.196 108.810, 103.046 106.571 C 104.437 102.905, 104.896 102.529, 107.650 102.794 C 110.637 103.082, 110.738 102.948, 111.991 97.044 C 112.696 93.720, 113.605 91, 114.010 91 C 114.415 91, 115.366 94.249, 116.123 98.221 C 117.431 105.079, 117.663 105.488, 120.750 106.366 C 124.453 107.418, 124.915 108.575, 122 109.500 C 120.900 109.849, 120 110.877, 120 111.784 C 120 116.762, 127.773 131.636, 134.244 139.040 L 138.500 143.910 146.173 143.955 L 153.846 144 151.013 141.167 C 149.455 139.609, 147.611 136.347, 146.915 133.917 C 145.086 127.532, 144.388 126.914, 139.830 127.643 C 136.419 128.189, 135.501 127.896, 132.947 125.449 C 131.326 123.896, 130 122.327, 130 121.962 C 130 121.597, 132.137 119.889, 134.750 118.165 C 137.362 116.442, 141.599 113.435, 144.164 111.484 L 148.828 107.936 151.164 112.683 C 153.920 118.283, 162.399 127.003, 168.007 130.004 C 170.087 131.117, 170.101 131.231, 168.385 133.128 C 167.405 134.210, 166.496 135.825, 166.365 136.716 C 166.235 137.607, 165.177 139.622, 164.014 141.194 L 161.901 144.053 177.201 143.776 L 192.500 143.500 192.757 71.750 L 193.013 0 96.507 0 L 0 0 0 72 M 0.474 72.500 C 0.474 112.100, 0.598 128.154, 0.750 108.176 C 0.901 88.198, 0.901 55.798, 0.750 36.176 C 0.598 16.554, 0.474 32.900, 0.474 72.500 M 6 19.571 C 6 21.288, 15.616 27.743, 20.080 29.023 C 23.901 30.119, 42.148 30.177, 46 29.105 C 47.577 28.667, 48.500 27.688, 48.500 26.455 C 48.500 24.895, 47.894 24.550, 45.500 24.746 C 34.904 25.615, 33.116 25.459, 30.336 23.424 C 27.958 21.684, 26.434 21.418, 20.906 21.781 C 16.120 22.095, 13.461 21.773, 11.206 20.607 C 8.022 18.960, 6 18.558, 6 19.571 M 113 76.228 C 113 81.342, 125.999 90, 133.678 90 C 134.955 90, 136 89.640, 136 89.200 C 136 87.848, 133.688 86, 131.997 86 C 131.115 86, 128.504 84.610, 126.194 82.911 C 123.883 81.212, 121.322 79.724, 120.502 79.603 C 119.682 79.483, 117.658 78.089, 116.005 76.505 L 113 73.626 113 76.228 M 25.337 84.564 C 24.095 87.802, 25.883 96.072, 28.496 99.178 C 35.371 107.348, 45.806 113.412, 55.275 114.740 C 58.245 115.157, 58.935 115.630, 58.513 116.959 C 57.940 118.765, 59.908 123.366, 63.640 128.940 C 65.064 131.067, 65.735 133.208, 65.398 134.549 C 65.039 135.979, 65.679 137.678, 67.276 139.535 C 69.324 141.915, 70.639 142.419, 75.789 142.791 C 82.538 143.279, 94.111 140.381, 97.881 137.258 L 100.004 135.500 97.498 130.143 C 95.354 125.559, 94.668 124.862, 92.746 125.316 C 90.286 125.899, 75.437 123.770, 74.346 122.679 C 73.972 122.305, 76.329 121.993, 79.583 121.985 C 82.838 121.976, 86.162 121.550, 86.972 121.038 C 88.521 120.059, 88.621 120.131, 83.500 118.531 C 82.675 118.274, 82 117.024, 82 115.754 C 82 112.901, 79.380 109, 77.463 109 C 73.725 109, 54.636 99.478, 49.978 95.291 C 46.199 91.893, 45 91.245, 45 92.603 C 45 93.586, 46.237 95.714, 47.750 97.332 L 50.500 100.273 46.801 99.708 C 40.709 98.777, 36.198 96.042, 32.661 91.137 C 30.821 88.587, 29.034 85.713, 28.690 84.750 C 27.911 82.578, 26.137 82.479, 25.337 84.564 M 149.174 99.155 C 144.842 101.145, 144.195 101.108, 137.750 98.495 C 136.566 98.016, 136 98.251, 136 99.222 C 136 100.012, 138.205 101.691, 140.901 102.953 C 149.379 106.924, 167.167 105.788, 171.502 100.998 C 173.973 98.268, 172.841 97.514, 169.143 99.426 C 165.305 101.411, 164.409 101.371, 159.500 99 C 154.665 96.665, 154.595 96.666, 149.174 99.155 M 151 130.423 C 151 131.268, 151.724 133.769, 152.609 135.980 C 154.358 140.352, 156.165 140.973, 159.777 138.443 C 162.503 136.534, 162.699 134.643, 160.085 135.473 C 158.794 135.883, 157.684 135.387, 156.677 133.949 C 155.855 132.776, 154.242 131.157, 153.092 130.352 C 151.241 129.056, 151 129.064, 151 130.423" stroke="none" fill="black" fill-rule="evenodd"/>
</svg>