<svg xmlns="http://www.w3.org/2000/svg" width="192" height="144" viewBox="0 0 192 144" version="1.1">
	<path d="M 0 72 L 0 144 43.250 143.937 C 67.869 143.901, 85.599 143.509, 84.409 143.028 C 83.259 142.563, 81.728 140.757, 81.006 139.014 C 80.046 136.698, 79.199 135.976, 77.852 136.329 C 76.327 136.727, 76.115 136.389, 76.623 134.365 C 77.010 132.824, 76.667 131.287, 75.696 130.210 C 74.849 129.269, 73.851 127.279, 73.478 125.786 C 73.106 124.293, 71.920 122.792, 70.843 122.450 C 69.766 122.108, 68.444 120.669, 67.905 119.251 C 67.064 117.038, 67.356 116.228, 69.963 113.539 C 73.178 110.221, 73.812 108.785, 71.750 109.491 C 69.310 110.325, 62.535 105.467, 60.446 101.385 C 59.316 99.176, 57.853 97.549, 57.196 97.768 C 56.399 98.034, 56 96.813, 56 94.115 C 56 90.924, 55.681 90.185, 54.500 90.638 C 52.287 91.488, 52.650 89.636, 56 83 C 59.662 75.746, 59.730 74.779, 56.525 75.583 C 54.513 76.088, 53.824 75.707, 52.839 73.546 C 51.758 71.173, 51.236 70.953, 47.985 71.503 C 45.342 71.949, 43.990 71.693, 43.058 70.570 C 42.351 69.719, 41.380 69.265, 40.899 69.563 C 40.418 69.860, 38.811 68.978, 37.328 67.603 C 34.943 65.392, 34.766 64.809, 35.795 62.552 C 37.149 59.579, 39.311 59.357, 46.295 61.476 C 49.963 62.589, 52.313 62.700, 56.295 61.949 C 64.348 60.429, 64.636 60.242, 66.516 55.319 C 68.949 48.947, 73.976 43.719, 80.753 40.510 C 83.897 39.022, 87.601 36.669, 88.984 35.282 C 92.195 32.064, 98.265 27.901, 103.964 25.007 C 106.420 23.761, 111.044 20.437, 114.240 17.620 C 121.710 11.039, 136.022 2.343, 141.352 1.146 C 144.060 0.538, 120.239 0.177, 72.750 0.107 L 0 0 0 72 M 160 0.386 C 160 0.598, 160.622 1.971, 161.383 3.437 C 162.422 5.440, 162.521 7.023, 161.780 9.802 C 161.238 11.836, 160.200 20.475, 159.474 29 C 158.636 38.839, 156.808 50.526, 154.470 61 C 150.530 78.642, 150.293 81.229, 151.507 93.261 C 152.120 99.338, 152.801 101.572, 154.645 103.562 C 157.618 106.770, 157.606 107.819, 154.583 108.969 C 152.636 109.709, 151.942 111.020, 151.019 115.694 C 148.716 127.364, 146.996 132.213, 145.381 131.593 C 144.218 131.147, 143.941 131.647, 144.184 133.756 C 144.449 136.053, 145.009 136.526, 147.622 136.658 C 151.348 136.846, 155.788 139.004, 158.407 141.898 C 160.188 143.866, 161.323 144, 176.155 144 L 192 144 192 72 L 192 0 176 0 C 167.200 0, 160 0.174, 160 0.386 M 119.667 139.667 C 118.629 140.704, 118.883 144, 120 144 C 120.550 144, 121 142.875, 121 141.500 C 121 138.882, 120.769 138.564, 119.667 139.667 M 136.750 143.662 C 137.438 143.940, 138.563 143.940, 139.250 143.662 C 139.938 143.385, 139.375 143.158, 138 143.158 C 136.625 143.158, 136.063 143.385, 136.750 143.662" stroke="none" fill="black" fill-rule="evenodd"/>
</svg>