<svg xmlns="http://www.w3.org/2000/svg" width="192" height="144" viewBox="0 0 192 144" version="1.1">
	<path d="M 0 72 L 0 144 34.915 144 L 69.829 144 72.537 139.250 C 76.030 133.125, 79.204 122.953, 78.057 121.561 C 76.624 119.823, 73 108.270, 73 105.439 C 73 102.872, 73.124 102.823, 78.750 103.158 L 84.500 103.500 84.315 97.873 C 84.069 90.396, 81.655 84.507, 79.255 85.532 C 74.944 87.376, 71.792 87.222, 68.817 85.023 C 65.993 82.935, 64.262 82.261, 61.250 82.077 C 60.548 82.034, 60 80.700, 60 79.035 C 60 75.865, 62.222 74, 65.999 74 C 67.171 74, 70.400 73.023, 73.176 71.829 C 77.303 70.054, 78.574 69.878, 80.152 70.863 C 81.213 71.526, 82.496 71.811, 83.003 71.498 C 84.121 70.807, 82.237 66.011, 80.169 64.285 C 79.218 63.491, 78.714 61.157, 78.714 57.539 C 78.714 54.101, 78.201 51.582, 77.357 50.881 C 75.647 49.462, 75.580 46, 77.263 46 C 77.957 46, 78.970 44.987, 79.513 43.750 C 80.070 42.480, 81.589 41.347, 83 41.149 C 84.375 40.956, 85.725 40.463, 86 40.052 C 86.664 39.061, 96.607 37.940, 97.431 38.764 C 97.785 39.119, 99.254 39.429, 100.696 39.454 C 102.609 39.488, 103.828 40.414, 105.213 42.885 C 106.257 44.747, 106.881 46.869, 106.600 47.600 C 106.319 48.331, 106.737 51.983, 107.528 55.715 C 109.384 64.478, 109.361 65, 107.115 65 C 105.112 65, 101.560 69.480, 102.438 70.899 C 102.724 71.363, 104.214 71.993, 105.749 72.300 C 107.284 72.607, 110.801 75.027, 113.566 77.679 C 117.630 81.577, 118.612 83.170, 118.696 86 C 118.753 87.925, 119.926 91.715, 121.302 94.422 C 124.045 99.817, 123.911 101.195, 120.256 105.157 C 118.908 106.618, 117.849 108.080, 117.902 108.407 C 118.183 110.111, 117.650 110.719, 113.666 113.236 L 109.336 115.971 113.382 129.997 L 117.429 144.024 154.964 143.762 L 192.500 143.500 192.757 71.750 L 193.013 0 96.507 0 L 0 0 0 72 M 0.474 72.500 C 0.474 112.100, 0.598 128.154, 0.750 108.176 C 0.901 88.198, 0.901 55.798, 0.750 36.176 C 0.598 16.554, 0.474 32.900, 0.474 72.500 M 85.614 69.563 C 85.250 70.512, 85.731 71, 87.031 71 C 89.307 71, 89.669 69.471, 87.583 68.670 C 86.803 68.371, 85.917 68.773, 85.614 69.563 M 110 98.417 C 110 102.283, 110.987 102.926, 113.070 100.416 C 113.999 99.296, 114.087 98.362, 113.371 97.226 C 111.446 94.174, 110 94.685, 110 98.417" stroke="none" fill="black" fill-rule="evenodd"/>
</svg>