<svg xmlns="http://www.w3.org/2000/svg" width="192" height="144" viewBox="0 0 192 144" version="1.1">
	<path d="M 0 33.629 L 0 67.258 9.250 66.584 C 58.323 63.012, 94.175 59.282, 95.235 57.639 C 95.639 57.012, 95.976 55.147, 95.985 53.494 C 96.002 50.038, 92.859 48.128, 86.145 47.513 C 83.972 47.314, 80.823 46.442, 79.147 45.576 C 77.471 44.709, 75.022 44, 73.706 44 C 72.390 44, 68.655 43.083, 65.407 41.963 C 62.158 40.843, 57.781 39.830, 55.681 39.713 C 52.084 39.512, 51.893 39.340, 52.406 36.750 C 52.867 34.417, 52.612 33.995, 50.725 33.965 C 43.017 33.842, 37.085 23.482, 38.453 12.532 C 38.898 8.967, 38.623 6.343, 37.530 3.727 L 35.973 0 17.987 0 L 0 0 0 33.629 M 48.649 2.997 C 49.043 4.967, 48.520 7.687, 47.124 10.932 C 44.754 16.443, 44.364 24.185, 46.267 27.945 C 46.948 29.290, 48.955 31.238, 50.728 32.273 L 53.952 34.156 58.726 29.483 C 61.352 26.913, 63.004 25.063, 62.397 25.373 C 61.791 25.683, 60.483 25.342, 59.490 24.616 C 57.807 23.386, 57.971 22.987, 61.919 18.703 C 66.357 13.889, 70.578 10.978, 83 4.163 L 90.500 0.048 69.275 0.024 L 48.050 -0 48.649 2.997 M 121.536 4.058 C 123.083 6.508, 123.862 8.859, 123.503 9.991 C 123.176 11.022, 123.424 15.748, 124.056 20.492 C 125.093 28.291, 125.035 29.303, 123.450 31.055 C 122.166 32.474, 121.354 32.709, 120.419 31.933 C 118.769 30.563, 117.488 38.248, 118.336 44.431 C 119.022 49.437, 116.579 53, 112.461 53 C 110.707 53, 110 53.548, 110 54.906 C 110 56.191, 110.571 56.697, 111.750 56.457 C 112.713 56.262, 117.775 55.367, 123 54.469 C 133.175 52.721, 162.353 45.821, 180.750 40.813 L 192 37.751 192 18.875 L 192 0 155.487 0 L 118.975 0 121.536 4.058 M 185 90.150 C 176.799 100.361, 173.365 103.308, 170.506 102.591 C 169.102 102.238, 167.136 102.924, 164.970 104.522 C 163.123 105.885, 160.414 107, 158.949 107 C 157.485 107, 152.060 109.217, 146.894 111.926 C 123.385 124.254, 91.610 134.042, 64.005 137.459 C 49.649 139.236, 26.728 139.482, 18.886 137.943 C 15.924 137.361, 11.250 136.497, 8.500 136.022 C 5.750 135.548, 2.712 134.850, 1.750 134.473 C 0.222 133.873, 0 134.434, 0 138.893 L 0 144 95.941 144 C 148.709 144, 192.060 143.662, 192.278 143.250 C 192.496 142.838, 192.410 128.901, 192.087 112.279 L 191.500 82.058 185 90.150 M 0.300 139 C 0.300 142.025, 0.487 143.262, 0.716 141.750 C 0.945 140.238, 0.945 137.762, 0.716 136.250 C 0.487 134.738, 0.300 135.975, 0.300 139" stroke="none" fill="black" fill-rule="evenodd"/>
</svg>