<svg xmlns="http://www.w3.org/2000/svg" width="192" height="144" viewBox="0 0 192 144" version="1.1">
	<path d="M 63.950 4.750 C 63.857 13.507, 62.916 21.373, 61.593 24.449 C 58.314 32.074, 55.577 36.971, 52 41.611 C 49.545 44.796, 40.864 51.427, 35.404 54.288 C 27.744 58.301, 17.836 60.314, 9.648 59.522 C 5.879 59.157, 2.166 58.617, 1.398 58.322 C 0.214 57.868, 0 64.388, 0 100.893 L 0 144 63.293 144 L 126.585 144 127.793 139.486 C 128.457 137.003, 129 134.060, 129 132.946 C 129 131.831, 130.575 126.262, 132.500 120.568 C 136.376 109.106, 136.692 107, 134.535 107 C 133.730 107, 132.557 106.040, 131.928 104.866 C 130.956 103.049, 131.485 101.407, 135.493 93.806 C 140.628 84.067, 140.969 80.092, 136.980 76.482 C 134.459 74.200, 134.464 70.927, 136.996 66.774 C 138.094 64.973, 138.994 62.698, 138.996 61.719 C 138.998 60.739, 139.675 59.678, 140.500 59.362 C 142.410 58.629, 142.471 55, 140.573 55 C 139.787 55, 138.199 53.797, 137.043 52.327 C 135.887 50.858, 133.942 49.160, 132.720 48.554 C 131.089 47.746, 130.416 46.399, 130.183 43.477 C 129.972 40.838, 128.968 38.559, 127.200 36.703 C 123.505 32.824, 125.186 32.034, 137.173 32.015 C 150.050 31.995, 150.921 32.689, 160.159 50.331 C 161.072 52.074, 162.065 55.525, 162.365 58 C 162.666 60.475, 163.832 64.867, 164.956 67.761 C 166.080 70.654, 167 74.680, 167 76.707 C 167 79.022, 167.942 81.751, 169.532 84.046 C 172.513 88.348, 175.528 98.181, 174.605 100.588 C 173.999 102.165, 173.839 102.164, 172.083 100.575 C 170.659 99.287, 170.104 99.189, 169.777 100.168 C 169.451 101.148, 168.669 101.013, 166.519 99.604 C 163.760 97.796, 163.711 97.797, 164.513 99.626 C 164.965 100.657, 165.438 104.425, 165.563 108 C 165.754 113.462, 166.594 116.198, 170.818 125.127 C 173.583 130.971, 176.407 137.627, 177.093 139.917 L 178.341 144.081 185.420 143.790 L 192.500 143.500 192.825 129 C 193.003 121.025, 192.837 88.737, 192.455 57.250 L 191.761 0 127.880 0 L 64 0 63.950 4.750 M 0.459 101 C 0.459 124.925, 0.589 134.713, 0.749 122.750 C 0.908 110.788, 0.908 91.213, 0.749 79.250 C 0.589 67.288, 0.459 77.075, 0.459 101" stroke="none" fill="black" fill-rule="evenodd"/>
</svg>