<svg xmlns="http://www.w3.org/2000/svg" width="192" height="144" viewBox="0 0 192 144" version="1.1">
	<path d="M 0 72 L 0 144 24.445 144 L 48.890 144 46.522 138.750 C 45.220 135.863, 42.995 131.140, 41.577 128.255 C 38.188 121.358, 38.319 119.214, 42.500 113.136 C 44.425 110.338, 46.008 107.700, 46.018 107.274 C 46.034 106.610, 48.827 102.148, 53.216 95.777 C 53.868 94.829, 58.137 92.592, 62.701 90.805 L 71 87.556 71 79.212 C 71 74.623, 70.545 70.019, 69.989 68.980 C 69.434 67.942, 68.699 64.415, 68.357 61.142 L 67.735 55.192 58.817 53.846 L 49.898 52.500 54.807 46.422 L 59.715 40.343 56.358 38.043 C 52.106 35.129, 52.135 34.253, 56.511 33.432 C 58.442 33.070, 60.202 32.483, 60.421 32.128 C 60.640 31.773, 60.451 29.465, 60 27 C 59.549 24.535, 59.418 22.132, 59.710 21.661 C 60.001 21.190, 62.620 23.156, 65.531 26.031 C 70.707 31.142, 70.897 31.231, 74.162 30.064 C 76.007 29.405, 84.878 28.688, 93.992 28.461 C 103.062 28.235, 110.601 27.702, 110.746 27.275 C 110.890 26.849, 111.990 24.925, 113.190 23 L 115.372 19.500 116.165 23.935 C 116.704 26.944, 117.930 29.256, 119.979 31.128 C 121.641 32.646, 123 34.342, 123 34.898 C 123 35.454, 124.688 36.194, 126.750 36.542 C 135.610 38.037, 135.988 38.859, 129.303 42.095 C 126.720 43.346, 125.145 44.548, 125.803 44.768 C 127.528 45.343, 127.279 48, 125.500 48 C 124.675 48, 124 48.386, 124 48.858 C 124 49.330, 122.087 50.121, 119.750 50.615 L 115.500 51.514 115.787 66.891 C 115.944 75.348, 116.507 83.078, 117.037 84.068 C 117.566 85.058, 118 87.614, 118 89.747 C 118 92.751, 118.676 94.274, 121 96.500 C 122.650 98.081, 124 100.179, 124 101.163 C 124 102.147, 124.898 104.425, 125.996 106.226 C 128.080 109.643, 128.792 118, 127 118 C 126.450 118, 126 119.548, 126 121.441 C 126 123.334, 125.550 125.160, 125 125.500 C 123.702 126.302, 123.702 131.698, 125 132.500 C 125.550 132.840, 126 135.573, 126 138.572 L 126 144.027 159.250 143.763 L 192.500 143.500 192.757 71.750 L 193.013 0 96.507 0 L 0 0 0 72 M 0.474 72.500 C 0.474 112.100, 0.598 128.154, 0.750 108.176 C 0.901 88.198, 0.901 55.798, 0.750 36.176 C 0.598 16.554, 0.474 32.900, 0.474 72.500 M 57.154 118.164 C 53.455 119.862, 52.911 120.482, 53.500 122.330 C 53.880 123.523, 54.741 126.975, 55.413 130 C 57.696 140.283, 59.507 144.001, 62.229 143.996 C 64.480 143.993, 64.500 143.872, 64.536 129.996 C 64.576 114.262, 64.815 114.646, 57.154 118.164" stroke="none" fill="black" fill-rule="evenodd"/>
</svg>