<svg xmlns="http://www.w3.org/2000/svg" width="192" height="144" viewBox="0 0 192 144" version="1.1">
	<path d="M 190.508 39.962 C 190.151 41.591, 190.326 43.728, 190.899 44.712 C 191.726 46.134, 191.945 45.528, 191.970 41.750 C 192.004 36.327, 191.455 35.654, 190.508 39.962 M 0.033 88.715 C 0.001 123.471, 0.078 124.971, 1.928 125.961 C 5.029 127.621, 6.580 126.283, 9.488 119.441 C 11.731 114.162, 12.643 113, 14.541 113 C 18.648 113, 20 110.512, 20 102.955 C 20 97.884, 19.417 94.853, 17.800 91.526 C 15.139 86.049, 15.752 85.172, 22.827 84.334 C 25.672 83.997, 28.056 83.334, 28.125 82.861 C 28.544 79.977, 28.473 79.435, 27.598 78.826 C 27.064 78.455, 24.788 78.378, 22.539 78.653 C 16.770 79.359, 15.316 77.398, 14.824 68.245 C 14.513 62.457, 13.994 60.550, 12.259 58.815 C 10.329 56.885, 9.774 56.782, 7.319 57.900 C 5.430 58.761, 4.441 58.823, 4.198 58.094 C 4.002 57.507, 2.993 56.008, 1.954 54.763 C 0.097 52.536, 0.066 53.082, 0.033 88.715 M 70.472 69.046 C 70.116 69.621, 71.607 73.559, 73.785 77.796 C 75.964 82.033, 77.978 87.360, 78.262 89.632 C 78.968 95.287, 81.192 99.566, 83.243 99.217 C 85.655 98.807, 87.367 106.041, 86.555 113.215 C 86.158 116.726, 86.330 119.748, 86.998 120.997 C 88.382 123.581, 86.197 128.561, 83.763 128.370 C 82.269 128.253, 82.255 128.460, 83.616 130.536 C 85.501 133.414, 88 134.482, 88 132.410 C 88 131.569, 88.468 131.171, 89.041 131.525 C 89.613 131.879, 89.808 133.030, 89.473 134.084 C 89.133 135.155, 89.336 136, 89.933 136 C 90.520 136, 91 136.663, 91 137.474 C 91 139.370, 97.253 142.740, 97.789 141.132 C 98.383 139.352, 99.804 139.806, 100.500 142 C 101.054 143.747, 102.013 144, 108.067 144 C 112.022 144, 115 143.571, 115 143 C 115 142.450, 114.657 142, 114.237 142 C 112.336 142, 104.844 130.762, 104.398 127.243 C 104.138 125.184, 103.436 121.206, 102.839 118.403 C 101.905 114.017, 102.001 112.928, 103.525 110.603 C 105.061 108.259, 105.147 107.210, 104.175 102.700 C 103.559 99.840, 102.803 95.925, 102.495 94 C 99.817 77.263, 99.023 74.885, 95.479 72.989 C 93.461 71.909, 92.689 71.974, 90.500 73.408 C 87.095 75.639, 85.224 79.624, 86.827 81.227 C 88.497 82.897, 88.291 83.774, 85.933 85.036 C 82.590 86.825, 79.218 83.754, 75.361 75.406 C 73.479 71.333, 71.755 68, 71.529 68 C 71.303 68, 70.827 68.471, 70.472 69.046 M 189.872 95.885 C 186.132 102.435, 174.022 108.069, 162.619 108.563 C 155.325 108.879, 154.616 109.205, 153.550 112.733 C 153.052 114.383, 153.561 115.652, 155.497 117.588 C 157.832 119.923, 158.630 120.139, 162.809 119.563 C 167.389 118.931, 189.059 108.839, 191.091 106.391 C 191.646 105.722, 191.965 102.443, 191.800 99.104 L 191.500 93.034 189.872 95.885 M 86 96.059 C 86 97.191, 86.430 97.852, 86.956 97.527 C 87.482 97.202, 87.659 96.275, 87.349 95.468 C 86.556 93.401, 86 93.644, 86 96.059" stroke="none" fill="black" fill-rule="evenodd"/>
</svg>