<svg xmlns="http://www.w3.org/2000/svg" width="192" height="144" viewBox="0 0 192 144" version="1.1">
	<path d="M 0 72 L 0 144 27.500 144 C 48.958 144, 55 143.723, 55 142.739 C 55 142.046, 57.037 138.442, 59.527 134.731 C 62.016 131.020, 64.329 126.525, 64.667 124.742 L 65.280 121.500 62.641 124.500 C 60.346 127.110, 60.006 127.240, 60.029 125.500 C 60.044 124.400, 61.170 121.475, 62.531 119 C 66.889 111.076, 71.807 100.359, 72.914 96.371 C 73.505 94.242, 73.991 87.839, 73.994 82.142 L 74 71.783 71.500 72.411 C 68.404 73.188, 68.376 72.583, 71.096 63.405 L 73.199 56.310 68.715 49.760 C 63.860 42.669, 60.563 34.304, 61.578 31.656 C 62.417 29.471, 65.161 29.556, 68.115 31.859 C 72.391 35.191, 76.791 37.016, 78.685 36.242 C 79.683 35.834, 82.453 34.176, 84.840 32.557 C 90.359 28.816, 98.467 27.998, 105.822 30.441 C 113.247 32.907, 114.519 35.359, 114.415 47.007 C 114.329 56.696, 113.114 61, 110.465 61 C 109.393 61, 109 62.221, 109 65.551 C 109 69.738, 109.260 70.212, 112.250 71.473 C 115.567 72.872, 119.172 76.378, 124.617 83.500 C 129.531 89.928, 130.149 91.699, 129.897 98.649 C 129.663 105.098, 129.700 105.199, 132.867 106.733 L 136.075 108.286 135.385 126.159 L 134.694 144.031 163.597 143.766 L 192.500 143.500 192.757 71.750 L 193.013 0 146.007 0 C 106.600 0, 99 0.224, 99 1.387 C 99 2.163, 97.679 2.967, 96 3.213 C 93.601 3.565, 93 3.288, 93 1.827 C 93 0.084, 90.864 0, 46.500 0 L 0 0 0 72 M 0.474 72.500 C 0.474 112.100, 0.598 128.154, 0.750 108.176 C 0.901 88.198, 0.901 55.798, 0.750 36.176 C 0.598 16.554, 0.474 32.900, 0.474 72.500 M 91.642 135.750 C 89.927 141.840, 89.869 144, 91.421 144 C 92.649 144, 93 142.890, 93 139 C 93 133.857, 92.507 132.677, 91.642 135.750" stroke="none" fill="black" fill-rule="evenodd"/>
</svg>