<svg xmlns="http://www.w3.org/2000/svg" width="192" height="144" viewBox="0 0 192 144" version="1.1">
	<path d="M 0.014 72 L -0 144 13.393 144 L 26.786 144 28.285 140.250 C 29.594 136.978, 29.602 136.146, 28.352 133.721 C 27.563 132.192, 27.122 130.611, 27.371 130.208 C 27.621 129.805, 28.072 126.200, 28.374 122.198 C 28.902 115.206, 28.829 114.886, 26.522 114.009 C 22.868 112.619, 21.437 109.279, 23.514 106.985 C 25.013 105.328, 27.662 92.611, 29.292 79.250 C 29.750 75.487, 29.579 75, 27.798 75 C 26.371 75, 25.963 74.538, 26.395 73.413 C 28.452 68.052, 28.231 63.940, 25.685 60.240 C 24.270 58.183, 22.637 55.233, 22.056 53.685 C 20.456 49.420, 20.783 40.260, 22.677 36.269 C 24.395 32.648, 33.172 25.489, 40.448 21.773 C 44.364 19.774, 58.431 16, 61.968 16 C 63.539 16, 63.731 15.413, 63.273 12 C 62.592 6.924, 63.983 6.864, 67.267 11.828 C 68.661 13.933, 72.051 18.227, 74.801 21.370 C 77.552 24.514, 80.783 29.501, 81.982 32.455 C 84.382 38.370, 87.819 40.682, 92.756 39.704 C 94.581 39.342, 96.261 39.779, 97.771 41.007 C 99.998 42.819, 100.010 42.935, 98.383 47.001 C 96.929 50.635, 96.422 51.072, 94.282 50.535 C 92.170 50.004, 91.928 50.197, 92.489 51.964 C 93.329 54.610, 89.115 63.258, 87.322 62.570 C 85.152 61.737, 83.833 65.831, 84.288 71.984 C 84.616 76.409, 84.414 77.713, 83.461 77.347 C 82.696 77.053, 81.737 78.266, 81.024 80.428 C 79.470 85.137, 76.473 87.179, 72.273 86.392 C 69.505 85.872, 69 86.072, 69 87.685 C 69 89.257, 70.190 89.802, 75.750 90.779 C 85.934 92.567, 90 93.928, 90 95.547 C 90 96.346, 89.565 97, 89.034 97 C 88.502 97, 88.997 98.575, 90.133 100.500 C 92.503 104.518, 92.511 104.520, 97.479 102.444 C 102.740 100.246, 116.553 99.461, 124.181 100.927 C 127.656 101.594, 134.325 103.967, 139 106.199 C 145.885 109.487, 149.021 111.801, 155.504 118.379 C 163.160 126.146, 171.510 138.961, 169.413 139.723 C 168.911 139.906, 166.700 140.913, 164.500 141.961 L 160.500 143.867 176.500 143.684 L 192.500 143.500 192.743 71.750 L 192.986 0 96.506 0 L 0.027 0 0.014 72 M 0.430 24 C 0.430 36.925, 0.573 42.212, 0.747 35.750 C 0.921 29.287, 0.921 18.712, 0.747 12.250 C 0.573 5.787, 0.430 11.075, 0.430 24 M 0.463 96 C 0.463 122.675, 0.592 133.588, 0.749 120.250 C 0.907 106.913, 0.907 85.088, 0.749 71.750 C 0.592 58.413, 0.463 69.325, 0.463 96 M 126 56.385 C 126 56.597, 127.158 57.529, 128.573 58.456 C 131.087 60.103, 131.121 60.094, 130.038 58.071 C 129.122 56.360, 126 55.057, 126 56.385" stroke="none" fill="black" fill-rule="evenodd"/>
</svg>