<svg xmlns="http://www.w3.org/2000/svg" width="192" height="144" viewBox="0 0 192 144" version="1.1">
	<path d="M 0 72 L 0 144 42.924 144 C 72.369 144, 87.454 143.629, 90.963 142.819 C 95.823 141.697, 96.049 141.502, 95.481 138.914 C 95.141 137.364, 95.358 135.897, 95.985 135.509 C 97.478 134.586, 100.218 136.990, 99.577 138.660 C 98.827 140.615, 102.230 140.321, 111.500 137.630 C 118.151 135.700, 119.876 134.756, 121.733 132.031 C 124.486 127.992, 123.894 126.851, 119.237 127.217 C 116.192 127.456, 115.545 127.144, 115.067 125.201 C 114.645 123.491, 111.813 121.545, 104 117.595 C 98.006 114.565, 93.361 111.582, 93.177 110.644 C 92.680 108.121, 94.176 108.570, 105.974 114.487 C 115.582 119.305, 117.027 119.774, 117.834 118.333 C 118.922 116.388, 122 117.209, 122 119.443 C 122 120.271, 123.284 121.612, 124.853 122.424 C 127.592 123.840, 127.830 123.771, 130.823 120.683 L 133.940 117.467 133.098 107.498 C 132.529 100.751, 132.607 96.762, 133.339 95.156 C 134.278 93.094, 134.064 92.522, 131.710 90.807 C 128.571 88.521, 128.121 84.629, 130.670 81.812 C 132.236 80.081, 132.217 79.851, 130.357 78.118 C 127.418 75.380, 125.144 74.350, 117.977 72.508 C 114.101 71.512, 110.407 69.807, 108.777 68.261 L 106.055 65.678 105.091 68.089 C 104.306 70.052, 104.115 70.148, 104.063 68.604 C 104.002 66.764, 102.802 66.726, 63.750 67.332 C 41.612 67.675, 22.262 68.243, 20.750 68.594 C 17.058 69.452, 17.164 67.484, 20.914 65.544 C 24.720 63.576, 51.084 62.034, 81.250 62.015 C 101.943 62.001, 104 61.847, 104 60.309 C 104 58.737, 104.088 58.735, 105.250 60.278 C 106.239 61.592, 107.245 61.766, 110.071 61.115 C 112.903 60.462, 114.115 60.675, 115.932 62.146 C 119.352 64.915, 121.526 64.429, 125.714 59.958 C 130.114 55.260, 140.467 51, 147.483 51 L 151.874 51 151.312 54.464 C 150.820 57.494, 151.080 58.079, 153.375 59.125 C 156.416 60.510, 156.639 61.637, 154.368 64.146 C 152.856 65.817, 152.871 66.152, 154.578 68.724 C 156.850 72.148, 157.349 74.874, 156.001 76.498 C 155.280 77.367, 155.406 78.092, 156.423 78.936 C 158.889 80.983, 159.378 85.774, 157.426 88.753 C 155.189 92.167, 155.412 99.773, 158.052 110.167 C 160.512 119.850, 160.492 120.617, 157.750 121.451 C 156.341 121.879, 155.978 122.331, 156.778 122.660 C 157.481 122.949, 164.982 120.831, 173.446 117.954 C 181.911 115.077, 189.549 112.997, 190.418 113.330 C 191.423 113.716, 192 115.154, 192 117.272 L 192 120.608 175.500 125.910 C 166.425 128.826, 159 131.585, 159 132.041 C 159 135.814, 161.286 137.891, 168.753 140.901 C 175.723 143.710, 177.609 144.055, 184.583 143.795 L 192.500 143.500 192.757 71.750 L 193.013 0 96.507 0 L 0 0 0 72 M 0.474 72.500 C 0.474 112.100, 0.598 128.154, 0.750 108.176 C 0.901 88.198, 0.901 55.798, 0.750 36.176 C 0.598 16.554, 0.474 32.900, 0.474 72.500 M 189.501 12.357 C 187.982 16.337, 187.971 17.163, 189.379 21.904 C 191.156 27.888, 191.543 27.561, 181.629 28.458 C 168.499 29.647, 162.623 25.935, 159.942 14.757 C 158.748 9.782, 157.248 8.307, 154.465 9.375 C 153.108 9.896, 153.100 10.226, 154.396 12.232 C 155.202 13.479, 156.998 17.540, 158.388 21.255 C 159.777 24.970, 161.721 29.112, 162.707 30.459 C 165.490 34.259, 172.441 36.687, 182.750 37.458 L 192 38.150 192 23.075 C 192 14.784, 191.812 8, 191.583 8 C 191.353 8, 190.417 9.961, 189.501 12.357 M 120 67 C 120 67.550, 120.477 68, 121.059 68 C 121.641 68, 121.840 67.550, 121.500 67 C 121.160 66.450, 120.684 66, 120.441 66 C 120.198 66, 120 66.450, 120 67" stroke="none" fill="black" fill-rule="evenodd"/>
</svg>