<svg xmlns="http://www.w3.org/2000/svg" width="192" height="144" viewBox="0 0 192 144" version="1.1">
	<path d="M 0.032 83.750 C 0.001 117.344, 0.038 118, 2 118 C 3.100 118, 4 118.395, 4 118.879 C 4 119.362, 5.410 120.342, 7.134 121.056 C 9.939 122.217, 10.418 122.151, 11.690 120.427 C 12.472 119.367, 13.836 115.912, 14.720 112.750 C 15.896 108.546, 16.800 107, 18.082 107 C 22.409 107, 23 106.032, 23 98.946 C 23 93.570, 22.465 91.099, 20.500 87.404 C 19.125 84.818, 18 82.149, 18 81.472 C 18 80.221, 21.350 78.570, 26.178 77.444 C 29.319 76.711, 30.616 74.185, 28.787 72.363 C 27.785 71.365, 26.542 71.325, 23.176 72.181 C 17.384 73.654, 16.173 72.315, 14.480 62.562 C 12.641 51.973, 10.784 50.130, 5.465 53.615 C 4.109 54.503, 3 54.814, 3 54.306 C 3 53.798, 2.339 52.509, 1.532 51.441 C 0.231 49.722, 0.060 53.416, 0.032 83.750 M 69.561 73.901 C 69.255 74.397, 70.821 77.792, 73.041 81.447 C 75.261 85.101, 77.453 89.983, 77.913 92.296 C 79.245 99, 80.784 101.967, 83.454 102.983 C 86.496 104.139, 87.376 107.247, 86.636 114.213 C 86.328 117.121, 86.034 119.950, 85.984 120.500 C 85.934 121.050, 86.201 123.408, 86.577 125.740 C 87.313 130.303, 85.789 133.517, 83.336 132.576 C 82.326 132.188, 82.381 132.651, 83.557 134.446 C 85.542 137.477, 88 138.503, 88 136.302 C 88 134.515, 89.401 135.411, 89.594 137.321 C 89.919 140.543, 91.453 143.075, 93.369 143.553 C 94.541 143.846, 99.855 143.953, 105.177 143.792 L 114.855 143.500 109.427 137.182 C 105.375 132.464, 104 130.076, 104 127.753 C 104 126.042, 103.457 123.141, 102.794 121.306 C 101.760 118.449, 101.852 117.521, 103.429 114.851 C 105.090 112.039, 105.154 111.035, 104.080 104.617 C 103.425 100.703, 102.464 96.118, 101.944 94.429 C 101.425 92.740, 100.997 90.265, 100.994 88.929 C 100.976 81.026, 96.532 75.148, 91.525 76.404 C 88.258 77.224, 85.553 82.295, 86.970 84.943 C 88.355 87.533, 88.302 87.768, 86.057 88.969 C 82.618 90.810, 79.546 88.348, 75.378 80.409 C 71.556 73.127, 70.659 72.125, 69.561 73.901 M 188.219 88.054 C 186.414 90.813, 183.714 93.609, 182.219 94.265 C 180.723 94.922, 179.275 95.753, 179 96.112 C 177.506 98.062, 168.116 100, 160.165 100 C 154.681 100, 150.951 100.449, 150.200 101.200 C 148.874 102.526, 148.618 106.882, 149.765 108.600 C 152.098 112.094, 159.773 112.091, 169 108.593 C 171.475 107.654, 174.625 106.502, 176 106.033 C 177.375 105.563, 180.330 104.268, 182.567 103.154 C 184.804 102.041, 187.842 100.827, 189.317 100.456 C 191.961 99.793, 192 99.661, 192 91.392 C 192 86.776, 191.887 83.008, 191.750 83.018 C 191.613 83.028, 190.023 85.294, 188.219 88.054 M 86 99.382 C 86 100.207, 86.450 101.160, 87 101.500 C 87.550 101.840, 88 101.443, 88 100.618 C 88 99.793, 87.550 98.840, 87 98.500 C 86.450 98.160, 86 98.557, 86 99.382 M 170 143 C 170 143.550, 171.152 144, 172.559 144 C 174.010 144, 174.851 143.567, 174.500 143 C 174.160 142.450, 173.009 142, 171.941 142 C 170.873 142, 170 142.450, 170 143" stroke="none" fill="black" fill-rule="evenodd"/>
</svg>