<svg xmlns="http://www.w3.org/2000/svg" width="192" height="144" viewBox="0 0 192 144" version="1.1">
	<path d="M -0 72.005 L -0 144.010 96.250 143.755 L 192.500 143.500 192.757 71.750 L 193.013 0 96.507 0 L 0 0 -0 72.005 M 0.474 72.500 C 0.474 112.100, 0.598 128.154, 0.750 108.176 C 0.901 88.198, 0.901 55.798, 0.750 36.176 C 0.598 16.554, 0.474 32.900, 0.474 72.500 M 105.022 36.114 C 105.010 36.451, 104.537 39.151, 103.971 42.114 C 102.346 50.617, 101.711 70.946, 103.020 72.524 C 103.753 73.407, 103.816 74.498, 103.205 75.686 C 102.691 76.684, 102.452 78.004, 102.675 78.619 C 103.146 79.924, 102.639 79.852, 83.762 75.928 C 70.606 73.193, 69.527 73.118, 58.262 74.151 C 45.041 75.364, 43.357 76.178, 45.020 80.554 C 46.554 84.587, 53.900 91.839, 55.918 91.311 C 56.815 91.077, 58.888 91.583, 60.525 92.436 C 62.161 93.289, 64.412 93.990, 65.527 93.994 C 66.642 93.997, 70.017 95.856, 73.027 98.125 C 76.037 100.393, 80.399 103.177, 82.721 104.310 C 86.687 106.246, 87.424 106.291, 94.957 105.068 C 99.705 104.297, 105.228 104.048, 108.502 104.457 C 111.543 104.837, 118.129 104.827, 123.138 104.435 C 131.288 103.798, 132.601 103.411, 135.617 100.763 C 137.471 99.135, 140.651 94.360, 142.684 90.152 C 144.717 85.943, 147.251 81.510, 148.317 80.301 C 149.624 78.816, 149.998 77.517, 149.466 76.301 C 149.033 75.310, 148.639 72.742, 148.590 70.593 C 148.461 64.987, 146.492 65.095, 143.566 70.870 C 141.172 75.593, 140.764 75.909, 136.265 76.525 C 133.644 76.883, 130.041 77.549, 128.258 78.005 C 124.527 78.959, 123.526 78.026, 124.427 74.433 C 124.794 72.973, 124.065 69.052, 122.625 64.740 C 121.254 60.634, 120.213 55.176, 120.219 52.130 C 120.226 48.975, 119.728 46.450, 119.012 46.008 C 118.058 45.418, 118.056 44.764, 119 43.001 C 119.875 41.364, 119.916 40.111, 119.148 38.425 C 118.264 36.485, 117.399 36.130, 113.894 36.270 C 110.690 36.397, 109.581 36.888, 109.199 38.346 C 108.733 40.129, 108.581 40.099, 106.872 37.877 C 105.867 36.570, 105.034 35.776, 105.022 36.114 M 105.607 44.213 C 104.639 49.055, 102.831 71.164, 103.360 71.693 C 104.035 72.368, 112 58.432, 112 56.576 C 112 55.709, 111.511 55, 110.914 55 C 110.281 55, 109.933 53.435, 110.078 51.250 C 110.335 47.415, 108.425 41, 107.027 41 C 106.600 41, 105.961 42.446, 105.607 44.213" stroke="none" fill="black" fill-rule="evenodd"/>
</svg>