<svg xmlns="http://www.w3.org/2000/svg" width="192" height="144" viewBox="0 0 192 144" version="1.1">
	<path d="M 0 72 L 0 144 30 144 L 60 144 59.994 141.250 C 59.989 139.245, 59.176 138.038, 56.994 136.797 C 54.675 135.477, 54 134.391, 54 131.981 C 54 130.269, 53.518 127.968, 52.929 126.867 C 52.131 125.377, 52.207 124.308, 53.224 122.683 C 53.975 121.482, 55.188 118.025, 55.919 115 C 56.651 111.975, 59.701 104.673, 62.698 98.773 C 67.660 89.006, 68.442 86, 66.022 86 C 65.550 86, 64.162 88.214, 62.939 90.921 C 60.473 96.377, 57.648 97.897, 54.787 95.307 C 52.420 93.165, 52.460 92.991, 56.371 88.421 C 58.494 85.942, 60.014 82.878, 60.474 80.151 C 61.205 75.825, 61.203 75.821, 58.853 77.139 C 57.559 77.865, 54.700 78.544, 52.500 78.647 L 48.500 78.836 51.132 76.668 C 52.579 75.476, 56.281 72.598, 59.359 70.273 C 67.080 64.440, 70.877 54.457, 69.447 43.750 C 68.941 39.967, 68.424 39, 66.906 39 C 65.858 39, 65 38.550, 65 38 C 65 37.450, 65.828 37, 66.839 37 C 67.851 37, 69.205 35.845, 69.849 34.432 C 70.791 32.364, 70.726 31.446, 69.509 29.710 C 67.369 26.655, 67.638 25.363, 69.974 27.477 C 71.662 29.004, 72.998 29.160, 79.168 28.552 C 83.938 28.082, 87.221 27.184, 88.846 25.906 C 91.852 23.542, 92.368 23.901, 91.028 27.426 C 89.548 31.320, 89.728 31.998, 92.250 32.015 C 93.487 32.024, 95.173 32.456, 95.995 32.976 C 97.278 33.787, 97.207 34.135, 95.495 35.429 C 94.398 36.258, 93.159 36.951, 92.743 36.968 C 92.046 36.997, 92.604 48.844, 93.522 53.510 C 93.740 54.616, 95.313 56.344, 97.018 57.352 C 98.724 58.359, 100.541 60.155, 101.057 61.342 C 102.119 63.784, 103.697 66.378, 106.250 69.873 C 108.785 73.344, 108.410 76.428, 105 80.161 C 103.350 81.968, 102 84.252, 102 85.236 C 102 86.221, 101.583 87.809, 101.073 88.764 C 100.563 89.719, 99.883 91.339, 99.561 92.363 C 99.162 93.634, 98.343 94.062, 96.988 93.707 C 94.506 93.058, 94.496 92.875, 97.485 102.500 C 100.181 111.179, 100.552 114, 99 114 C 97.328 114, 97.878 120.224, 100.108 126.535 C 101.267 129.816, 102.455 135.092, 102.747 138.260 L 103.280 144.020 147.890 143.760 L 192.500 143.500 192.757 71.750 L 193.013 0 96.507 0 L 0 0 0 72 M 0.474 72.500 C 0.474 112.100, 0.598 128.154, 0.750 108.176 C 0.901 88.198, 0.901 55.798, 0.750 36.176 C 0.598 16.554, 0.474 32.900, 0.474 72.500 M 74 52.559 C 74 53.416, 74.450 53.840, 75 53.500 C 75.550 53.160, 76 52.459, 76 51.941 C 76 51.423, 75.550 51, 75 51 C 74.450 51, 74 51.702, 74 52.559" stroke="none" fill="black" fill-rule="evenodd"/>
</svg>