<svg xmlns="http://www.w3.org/2000/svg" width="192" height="144" viewBox="0 0 192 144" version="1.1">
	<path d="M 88.012 0.250 C 88.018 0.388, 88.636 2.800, 89.385 5.612 C 92.155 16.015, 89.052 41.481, 84.331 47.079 C 83.599 47.947, 83 48.905, 83 49.208 C 83 51.071, 75.780 61.168, 72 64.589 C 65.165 70.777, 53.067 78.247, 47.750 79.564 C 47.337 79.666, 46.888 79.843, 46.750 79.957 C 46.612 80.071, 45.185 80.378, 43.577 80.640 C 41.969 80.901, 39.862 81.539, 38.893 82.057 C 35.870 83.675, 15.325 83.220, 11.921 81.459 C 10.282 80.612, 8.614 80.120, 8.215 80.367 C 7.815 80.614, 5.804 79.997, 3.744 78.995 L 0 77.174 0 110.587 L 0 144 89.012 144 L 178.024 144 177.418 140.212 C 176.938 137.211, 177.740 133.940, 181.279 124.462 C 183.736 117.883, 186.066 110.925, 186.457 109 C 186.848 107.075, 188.143 101.900, 189.334 97.500 L 191.500 89.500 192.025 116.500 L 192.549 143.500 192.638 109.500 C 192.688 90.800, 192.534 76.503, 192.297 77.729 L 191.866 79.959 189.447 77.348 C 186.889 74.589, 186.926 71.077, 189.545 68 C 190.248 67.175, 191.123 64.464, 191.491 61.975 C 192.114 57.761, 191.918 57.193, 188.647 53.725 C 186.715 51.676, 184.484 50, 183.690 50 C 181.354 50, 179.722 47.228, 180.307 44.256 C 180.730 42.108, 180.169 40.791, 177.764 38.286 L 174.678 35.073 177.404 34.036 C 178.904 33.466, 182.801 33, 186.065 33 L 192 33 192 16.500 L 192 0 140 0 C 111.400 0, 88.005 0.112, 88.012 0.250 M 0.449 110.500 C 0.449 129.200, 0.584 136.709, 0.749 127.186 C 0.913 117.663, 0.913 102.363, 0.748 93.186 C 0.583 84.009, 0.449 91.800, 0.449 110.500" stroke="none" fill="black" fill-rule="evenodd"/>
</svg>