<svg xmlns="http://www.w3.org/2000/svg" width="192" height="144" viewBox="0 0 192 144" version="1.1">
	<path d="M 0.002 34.250 L 0.003 68.500 10.752 74.601 C 16.663 77.957, 27.575 84.218, 35 88.516 C 42.425 92.813, 51.875 98.202, 56 100.492 C 60.125 102.782, 68.675 107.711, 75 111.444 C 81.325 115.178, 88.300 119.252, 90.500 120.497 C 106.084 129.318, 124.998 140.279, 127.562 141.975 C 130.469 143.898, 132.170 144, 161.312 144 L 192 144 192 123.164 C 192 111.705, 192.299 79.305, 192.663 51.164 L 193.327 0 96.663 0 L 0 0 0.002 34.250 M 0.450 35 C 0.450 53.975, 0.584 61.737, 0.748 52.250 C 0.913 42.762, 0.913 27.237, 0.748 17.750 C 0.584 8.262, 0.450 16.025, 0.450 35 M 89 29.245 C 85.975 32.209, 82.314 36.067, 80.865 37.817 C 79.164 39.872, 77.327 41, 75.683 41 C 72.536 41, 71.753 43.160, 72.976 48.473 C 73.929 52.617, 76.168 55, 79.109 55 C 80.059 55, 81.552 55.274, 82.426 55.610 C 83.598 56.060, 84.535 55.045, 85.996 51.742 C 87.085 49.279, 88.633 46.720, 89.435 46.054 C 91.167 44.616, 98.408 40.605, 102.170 39 C 105.628 37.524, 106.422 35.294, 104.523 32.394 C 102.525 29.345, 102.597 27.331, 104.750 26.092 C 106.210 25.252, 106.002 25.088, 103.500 25.103 C 101.850 25.114, 99.150 24.838, 97.500 24.489 C 94.849 23.930, 93.860 24.484, 89 29.245" stroke="none" fill="black" fill-rule="evenodd"/>
</svg>