<svg xmlns="http://www.w3.org/2000/svg" width="192" height="144" viewBox="0 0 192 144" version="1.1">
	<path d="M 0 72 L 0 144 33.893 144 C 61.894 144, 67.879 143.759, 68.319 142.611 C 68.834 141.269, 74.855 138.694, 80 137.614 C 82.357 137.120, 82.480 136.773, 82.157 131.545 C 81.959 128.332, 81.345 126, 80.698 126 C 80.084 126, 75.424 127.180, 70.343 128.622 C 60.068 131.537, 56.913 131.299, 55.171 127.477 C 53.305 123.382, 53.785 120.071, 57 114.846 C 58.650 112.164, 60 109.147, 60 108.141 C 60 107.134, 61.124 105.004, 62.499 103.406 C 63.873 101.807, 64.998 99.297, 64.999 97.827 C 64.999 96.356, 66.145 93.792, 67.545 92.129 C 70.957 88.074, 78.927 82.307, 82.284 81.465 C 84.952 80.795, 85.001 80.639, 85.077 72.642 C 85.119 68.164, 85.356 60, 85.604 54.500 L 86.055 44.500 80.071 42.750 C 76.780 41.787, 73.055 40.984, 71.793 40.964 C 69.806 40.932, 70.249 40.221, 75.104 35.643 L 80.708 30.358 76.854 27.123 C 74.734 25.343, 73 23.462, 73 22.944 C 73 22.425, 75.475 22, 78.500 22 L 84 22 84.014 18.750 C 84.032 14.407, 85.031 10.901, 86.068 11.542 C 86.530 11.828, 88.096 14.243, 89.547 16.909 L 92.185 21.756 100.842 21.733 C 113.010 21.701, 123.819 22.962, 125.462 24.605 C 127.574 26.717, 129.388 26.293, 131.262 23.250 C 132.193 21.738, 133.794 19.435, 134.819 18.134 L 136.684 15.768 136.236 21.173 C 135.892 25.314, 136.163 26.890, 137.394 27.912 C 138.277 28.645, 139 30.093, 139 31.131 C 139 32.397, 140.313 33.542, 143 34.617 C 145.200 35.497, 147 36.569, 147 37 C 147 37.431, 145.141 38.527, 142.869 39.436 C 139.017 40.977, 138.865 41.181, 140.618 42.462 C 143.140 44.306, 142.134 45.052, 135.284 46.418 C 129.908 47.490, 129.480 47.780, 129.215 50.536 C 129.059 52.166, 128.307 56.425, 127.545 60 C 126.783 63.575, 126.123 69.917, 126.079 74.094 C 126.010 80.608, 126.298 81.959, 128.105 83.594 C 131.004 86.215, 134.102 92.486, 135.569 98.702 C 136.652 103.287, 136.581 104.353, 134.971 107.702 C 133.966 109.791, 132.655 114.780, 132.057 118.788 C 130.748 127.566, 131.618 130, 136.067 130 C 140.382 130, 140.872 132.485, 137.682 138.197 C 136.207 140.839, 135 143.233, 135 143.516 C 135 143.799, 147.937 143.911, 163.750 143.765 L 192.500 143.500 192.757 71.750 L 193.013 0 96.507 0 L 0 0 0 72 M 0.474 72.500 C 0.474 112.100, 0.598 128.154, 0.750 108.176 C 0.901 88.198, 0.901 55.798, 0.750 36.176 C 0.598 16.554, 0.474 32.900, 0.474 72.500 M 79.500 111 C 79.160 111.550, 79.557 112, 80.382 112 C 81.207 112, 82.160 111.550, 82.500 111 C 82.840 110.450, 82.443 110, 81.618 110 C 80.793 110, 79.840 110.450, 79.500 111 M 89.015 133.250 C 89.007 135.313, 89.450 137, 90 137 C 91.274 137, 91.274 132.971, 90 131 C 89.279 129.884, 89.027 130.461, 89.015 133.250" stroke="none" fill="black" fill-rule="evenodd"/>
</svg>