<svg xmlns="http://www.w3.org/2000/svg" width="192" height="144" viewBox="0 0 192 144" version="1.1">
	<path d="M 0 72 L 0 144 39.852 144 L 79.704 144 80.367 135.250 C 80.732 130.438, 81.216 124.475, 81.443 122 C 82.428 111.251, 81.554 91.514, 79.979 88.966 C 79.458 88.123, 78.071 89.023, 75.496 91.873 C 71.268 96.553, 69.880 96.772, 62 94 C 58.975 92.936, 55.112 92.051, 53.415 92.033 C 51.274 92.010, 49.513 91.082, 47.658 89 C 45.639 86.734, 44.117 86, 41.443 86 C 36.593 86, 32.371 83.613, 31.569 80.417 C 31.202 78.958, 31.037 77.705, 31.201 77.632 C 31.366 77.559, 32.512 76.934, 33.750 76.242 C 35.226 75.416, 36 75.350, 36 76.051 C 36 76.638, 36.450 76.840, 37 76.500 C 37.550 76.160, 38 76.696, 38 77.691 C 38 79.596, 40.209 80.014, 50.081 79.977 C 52.835 79.967, 56.933 80.965, 60.359 82.480 C 63.493 83.866, 66.744 85, 67.585 85 C 69.230 85, 73.021 77.414, 73.484 73.196 C 73.638 71.791, 75.126 69.484, 76.790 68.070 C 78.454 66.657, 80.489 64.150, 81.313 62.500 C 82.136 60.850, 83.978 58.409, 85.405 57.076 C 88.434 54.246, 88.693 53, 86.250 53 C 84.208 53, 78.621 46.423, 79.481 45.031 C 79.802 44.511, 78.714 43.386, 77.062 42.532 C 71.215 39.509, 70.680 33.698, 75.582 26.475 C 77.094 24.247, 77.988 21.694, 77.805 20.124 C 77.519 17.664, 77.787 17.481, 82.093 17.202 C 86.266 16.931, 86.886 16.547, 88.871 13.016 C 90.088 10.851, 91.819 9.128, 92.778 9.128 C 93.725 9.128, 95.363 8.986, 96.419 8.814 C 99.248 8.351, 104.327 15.911, 104.424 20.728 C 104.466 22.803, 105.266 25.350, 106.203 26.388 C 108.945 29.428, 110.963 36.609, 112.981 50.500 C 114.176 58.721, 116.125 66.992, 118.284 73 C 122.942 85.961, 123.423 88.099, 121.512 87.366 C 119.678 86.662, 119.506 89.285, 121.089 93.827 C 121.933 96.245, 121.820 98.385, 120.589 103.290 C 119.715 106.776, 119 110.807, 119 112.249 C 119 113.690, 118.470 116.137, 117.821 117.685 C 115.791 122.532, 114.236 133.277, 114.770 138.762 L 115.282 144.023 153.891 143.762 L 192.500 143.500 192.757 71.750 L 193.013 0 96.507 0 L 0 0 0 72 M 0.474 72.500 C 0.474 112.100, 0.598 128.154, 0.750 108.176 C 0.901 88.198, 0.901 55.798, 0.750 36.176 C 0.598 16.554, 0.474 32.900, 0.474 72.500 M 82.015 96.691 C 82.007 98.996, 82.450 101.160, 83 101.500 C 84.295 102.301, 84.295 96.005, 83 94 C 82.289 92.900, 82.027 93.617, 82.015 96.691" stroke="none" fill="black" fill-rule="evenodd"/>
</svg>