<svg xmlns="http://www.w3.org/2000/svg" width="192" height="144" viewBox="0 0 192 144" version="1.1">
	<path d="M 0 72 L 0 144 31.467 144 L 62.934 144 58.392 134.250 C 49.720 115.638, 48.777 112.979, 49.833 110.120 C 50.365 108.679, 50.856 105.250, 50.924 102.500 C 50.992 99.750, 51.525 96.302, 52.109 94.837 C 53.128 92.280, 53.300 92.227, 56.388 93.518 C 60.028 95.039, 61.415 94.510, 62.445 91.210 C 63.081 89.175, 71.341 81.732, 73.951 80.842 C 74.514 80.650, 75.075 75.887, 75.228 70 C 75.483 60.163, 75.380 59.521, 73.602 59.828 C 72.558 60.008, 70.228 59.361, 68.424 58.389 C 65.834 56.994, 65.162 56.015, 65.227 53.728 C 65.285 51.691, 65.975 50.580, 67.557 49.978 C 71.098 48.632, 71.339 47.191, 68.572 43.903 C 64.775 39.391, 65.329 35.606, 70.078 33.609 C 71.606 32.967, 74.351 30.237, 76.178 27.542 C 80.871 20.623, 83.344 19.156, 92.500 17.859 C 103.476 16.304, 107.720 17.552, 114.251 24.257 C 116.986 27.065, 120.636 30.069, 122.362 30.931 C 126.483 32.991, 126.873 36.435, 123.540 41.346 C 120.874 45.274, 121.072 47.155, 124.445 49.955 C 126.702 51.828, 126.479 56, 124.122 56 C 120.647 56, 120.254 58.008, 121.580 69 C 122.277 74.775, 122.882 81.611, 122.924 84.191 C 122.966 86.771, 123.456 89.164, 124.014 89.509 C 126.192 90.855, 129 98.123, 129 102.413 C 129 104.884, 129.522 108.052, 130.161 109.453 C 131.024 111.349, 131.034 112.629, 130.199 114.462 C 129.392 116.234, 129.377 117.782, 130.145 119.985 C 131.088 122.690, 130.937 123.262, 128.845 124.907 C 126.536 126.723, 126.502 126.977, 127.433 135.398 L 128.387 144.027 160.443 143.764 L 192.500 143.500 192.757 71.750 L 193.013 0 96.507 0 L 0 0 0 72 M 0.474 72.500 C 0.474 112.100, 0.598 128.154, 0.750 108.176 C 0.901 88.198, 0.901 55.798, 0.750 36.176 C 0.598 16.554, 0.474 32.900, 0.474 72.500 M 120.557 35.250 C 121.489 38.283, 121.843 38.557, 123.149 37.251 C 124.611 35.789, 123.505 33, 121.464 33 C 120.268 33, 120.039 33.566, 120.557 35.250 M 69.750 36.080 C 67.451 37.419, 67.536 39.270, 70 41.500 C 71.933 43.250, 72 43.247, 72.014 41.405 C 72.021 40.357, 72.299 38.487, 72.630 37.250 C 73.284 34.812, 72.485 34.487, 69.750 36.080 M 70.567 108.591 C 70.133 110.319, 69.431 110.996, 68.458 110.622 C 67.423 110.225, 67 110.779, 67 112.531 C 67 114.734, 66.059 115.483, 63.750 115.118 C 62.389 114.903, 63.117 119.382, 65.828 127.887 C 67.948 134.541, 68.994 136.456, 70.892 137.157 L 73.284 138.041 72.619 125.270 C 72.075 114.819, 72.231 111.980, 73.477 109.636 C 75.392 106.034, 75.389 106, 73.108 106 C 71.907 106, 70.980 106.945, 70.567 108.591 M 127.158 121 C 127.158 122.375, 127.385 122.938, 127.662 122.250 C 127.940 121.563, 127.940 120.438, 127.662 119.750 C 127.385 119.063, 127.158 119.625, 127.158 121" stroke="none" fill="black" fill-rule="evenodd"/>
</svg>