<svg xmlns="http://www.w3.org/2000/svg" width="192" height="144" viewBox="0 0 192 144" version="1.1">
	<path d="M 64 3.566 C 64 5.527, 64.520 8.114, 65.155 9.316 C 67.496 13.740, 73.148 19.819, 76.032 21.013 C 77.664 21.689, 79 22.470, 79 22.749 C 79 23.027, 77.651 26.010, 76.003 29.377 C 73.356 34.784, 73.003 36.552, 72.986 44.500 C 72.976 49.450, 73.056 54.625, 73.166 56 C 73.431 59.342, 80.811 66.203, 83.448 65.559 C 84.519 65.298, 85.869 65.460, 86.448 65.919 C 88.311 67.400, 92.322 68.330, 91.566 67.107 C 90.539 65.445, 92.568 65.775, 94.002 67.502 C 94.748 68.402, 95.005 70.224, 94.642 72.041 C 94.207 74.213, 94.455 75.237, 95.512 75.643 C 96.324 75.955, 96.719 76.645, 96.391 77.177 C 95.594 78.466, 98.040 98.354, 99.077 99.025 C 100.007 99.626, 105.302 118.728, 105.169 121 C 104.694 129.112, 103.603 138.128, 103.056 138.466 C 102.682 138.696, 98.805 138.963, 94.439 139.058 C 90.072 139.154, 82.567 139.654, 77.760 140.170 C 69.998 141.003, 68.743 140.907, 66.541 139.304 C 65.178 138.312, 64.049 136.568, 64.031 135.428 C 63.971 131.470, 60.765 123.892, 58.531 122.429 C 57.052 121.459, 54.313 121.049, 50.509 121.228 C 44.603 121.506, 42.323 122.739, 36.332 128.896 C 33.798 131.499, 33.222 136.824, 34.975 141.435 L 35.950 144 99.055 144 L 162.159 144 161.490 140.750 C 161.122 138.963, 160.588 136.488, 160.302 135.250 C 160.017 134.013, 160.230 133, 160.776 133 C 161.323 133, 162.079 135.475, 162.457 138.500 L 163.144 144 167.686 144 L 172.227 144 171.549 139.250 C 170.871 134.499, 168.553 125.529, 166.885 121.203 C 166.398 119.940, 166 117.518, 166 115.821 C 166 114.124, 165.141 111.333, 164.091 109.618 C 160.363 103.528, 154.998 88.143, 155.079 83.772 C 155.122 81.422, 155.402 80.175, 155.700 81 C 157.560 86.140, 159.613 89.230, 162.769 91.638 C 165.184 93.479, 166.154 93.844, 165.735 92.752 C 165.393 91.859, 165.558 90.981, 166.103 90.799 C 166.697 90.601, 166.461 88.954, 165.515 86.690 C 164.647 84.612, 164.194 82.495, 164.509 81.985 C 164.824 81.476, 164.388 79.718, 163.541 78.079 C 161.261 73.670, 161.703 71.984, 164.142 75.792 C 166.805 79.952, 167.485 79.404, 165.513 74.686 C 163.749 70.463, 163.392 66.512, 165 69 C 166.482 71.294, 166.240 69.832, 163.043 57.192 C 156.923 32.989, 152.849 23.464, 145.143 15.344 C 144.018 14.158, 141.714 10.940, 140.023 8.192 C 135.174 0.311, 134.309 -0, 117.258 0 C 105.543 0, 101.986 0.322, 100.248 1.539 C 98.270 2.924, 97.754 2.924, 95.075 1.539 C 92.811 0.368, 88.740 0, 78.050 0 L 64 0 64 3.566 M 117 81.173 C 117 81.910, 117.419 83.973, 117.930 85.757 C 118.504 87.757, 118.504 89, 117.930 89 C 117.419 89, 117.018 90.013, 117.041 91.250 C 117.078 93.324, 117.311 93.232, 120.020 90.062 L 122.959 86.625 121.031 83.580 C 118.908 80.227, 117 79.088, 117 81.173 M 107.044 86.167 C 107.068 87.450, 107.459 90.422, 107.913 92.772 C 108.368 95.121, 108.388 97.260, 107.959 97.525 C 107.030 98.099, 105.509 114.842, 106.312 115.646 C 106.618 115.952, 107.362 114.244, 107.965 111.851 C 108.569 109.458, 109.997 105.422, 111.140 102.883 C 113.176 98.357, 113.110 93.200, 110.980 90.500 C 110.547 89.950, 110.036 88.410, 109.846 87.078 C 109.387 83.865, 106.986 83.084, 107.044 86.167 M 160.158 130 C 160.158 131.375, 160.385 131.938, 160.662 131.250 C 160.940 130.563, 160.940 129.438, 160.662 128.750 C 160.385 128.063, 160.158 128.625, 160.158 130" stroke="none" fill="black" fill-rule="evenodd"/>
</svg>