<svg xmlns="http://www.w3.org/2000/svg" width="192" height="144" viewBox="0 0 192 144" version="1.1">
	<path d="M 35.246 17.523 C 35.656 17.964, 38.863 19.537, 42.372 21.017 C 45.880 22.497, 50.384 24.954, 52.380 26.476 C 56.684 29.759, 62.469 37.462, 63.329 41.055 C 63.665 42.460, 65.866 45.611, 68.220 48.057 C 70.574 50.503, 74.525 54.788, 77 57.580 C 79.475 60.372, 82.963 63.718, 84.750 65.016 C 86.537 66.314, 88 67.888, 88 68.514 C 88 70.946, 92.625 74, 96.309 74 C 100.237 74, 100.388 74.209, 105.681 87 C 108.134 92.929, 111.131 98.338, 114.028 102.066 C 116.584 105.355, 116.758 106.143, 116.272 112.196 C 115.983 115.806, 116.073 124.438, 116.473 131.379 L 117.201 144 154.601 144 L 192 144 192 100.862 L 192 57.725 186.288 58.396 C 183.147 58.765, 178.192 59.760, 175.278 60.608 C 170.953 61.865, 169.310 61.928, 166.345 60.949 C 163.982 60.169, 160.401 59.995, 156.105 60.453 C 146.613 61.463, 146.304 61.450, 137.500 59.643 C 133.100 58.739, 126.714 58, 123.309 58 C 119.900 58, 116.814 57.508, 116.441 56.904 C 116.061 56.290, 114.168 56.004, 112.132 56.253 C 106.625 56.927, 93.188 51.596, 92.391 48.422 C 91.468 44.742, 85.488 40, 81.772 40 C 79.208 40, 77.534 38.862, 72.876 33.951 C 69.720 30.624, 66.856 26.621, 66.512 25.055 C 65.437 20.161, 62.605 18.509, 55.145 18.426 C 51.490 18.385, 45.350 17.984, 41.500 17.536 C 37.650 17.088, 34.836 17.082, 35.246 17.523" stroke="none" fill="black" fill-rule="evenodd"/>
</svg>