<svg xmlns="http://www.w3.org/2000/svg" width="192" height="144" viewBox="0 0 192 144" version="1.1">
	<path d="M 70.723 0.611 C 70.325 1.008, 70 3.958, 70 7.167 C 70 10.375, 69.559 13, 69.020 13 C 68.482 13, 67.138 11.231, 66.035 9.068 C 61.926 1.014, 59.767 2.562, 61.614 12.239 C 62.376 16.232, 63.274 20.963, 63.611 22.750 C 64.635 28.191, 62.306 26.445, 60.943 20.750 C 60.252 17.862, 59.100 14.150, 58.382 12.500 L 57.078 9.500 56.923 13.500 C 56.838 15.700, 56.561 16.707, 56.308 15.738 C 56.055 14.769, 55.455 14.219, 54.973 14.517 C 54.492 14.814, 53.553 13.239, 52.887 11.017 C 52.221 8.795, 51.074 6.476, 50.338 5.866 C 49.255 4.967, 49.005 5.588, 49.024 9.128 C 49.037 11.532, 49.462 15.287, 49.969 17.472 C 50.979 21.828, 50.603 23.003, 48.783 21.183 C 46.143 18.543, 45.844 19.708, 47.497 26.180 L 48.182 28.860 40.810 28.302 C 34.304 27.810, 32.854 28.037, 28.469 30.231 C 24.881 32.026, 21.116 32.893, 14.920 33.351 C 10.201 33.700, 4.913 34.483, 3.170 35.091 L 0 36.196 0 90.098 L 0 144 40 144 C 77.886 144, 80 143.905, 80 142.196 C 80 141.203, 81.346 138.269, 82.991 135.675 C 85.676 131.442, 86.266 131.026, 88.741 131.619 C 92.523 132.527, 92.584 132.648, 91.104 136.288 C 90.385 138.055, 89.565 140.517, 89.280 141.759 L 88.763 144.018 140.632 143.759 L 192.500 143.500 192.638 89 C 192.715 59.025, 192.590 35.175, 192.361 36 C 192.036 37.173, 189.958 37.544, 182.819 37.703 C 177.537 37.821, 172.810 37.430, 171.597 36.777 C 170.443 36.155, 165.895 35.358, 161.490 35.005 C 154.434 34.440, 152.841 33.924, 148.128 30.681 C 145.184 28.657, 142.112 27, 141.300 27 C 140.489 27, 136.868 28.654, 133.254 30.675 L 126.684 34.349 127.336 28.800 C 127.695 25.747, 129.394 20.247, 131.111 16.576 C 132.829 12.905, 134.011 9.678, 133.739 9.405 C 133.466 9.132, 131.519 11.854, 129.413 15.455 C 127.307 19.055, 125.228 22, 124.792 22 C 124.357 22, 124 20.623, 124 18.941 C 124 17.156, 123.583 16.139, 123 16.500 C 122.433 16.851, 122 16.010, 122 14.559 C 122 10.164, 119.283 11.632, 117.504 16.988 C 115.693 22.441, 114.415 23.815, 112.727 22.127 C 111.928 21.328, 111.942 19.316, 112.778 14.764 C 114.915 3.125, 115.208 0, 114.165 -0 C 113.610 -0, 112.648 1.535, 112.029 3.412 C 110.793 7.157, 109.286 8.149, 106.096 7.315 C 104.489 6.895, 104 5.978, 104 3.383 L 104 0 90.500 0 L 77 0 76.985 6.250 C 76.967 13.590, 75.622 16.862, 74.641 11.956 C 74.289 10.193, 74 7.542, 74 6.066 C 74 3.077, 71.844 -0.511, 70.723 0.611 M 0.466 90 C 0.466 119.975, 0.594 132.237, 0.749 117.250 C 0.905 102.262, 0.905 77.737, 0.749 62.750 C 0.594 47.762, 0.466 60.025, 0.466 90 M 96.079 96.833 C 95.984 99.635, 98.351 99.274, 98.804 96.417 C 99.034 94.961, 98.883 94.828, 98.175 95.863 C 97.387 97.014, 97.158 97.014, 96.700 95.863 C 96.396 95.099, 96.123 95.526, 96.079 96.833 M 87.765 97.708 C 89.010 97.947, 89.801 98.514, 89.521 98.967 C 89.241 99.420, 89.647 100.034, 90.423 100.332 C 91.199 100.630, 92.066 100.271, 92.348 99.535 C 92.861 98.197, 89.969 96.907, 87 97.150 C 86.175 97.217, 86.519 97.468, 87.765 97.708" stroke="none" fill="black" fill-rule="evenodd"/>
</svg>