<svg xmlns="http://www.w3.org/2000/svg" width="192" height="144" viewBox="0 0 192 144" version="1.1">
	<path d="M 0 72 L 0 144 39.876 144 L 79.752 144 80.373 138.250 C 81.840 124.655, 82.214 114.777, 81.536 107.541 L 80.811 99.801 76.155 100.457 C 62.557 102.371, 59.551 103.344, 55.663 107.088 C 52.283 110.342, 51.298 110.754, 47.399 110.544 C 44.965 110.413, 42.710 110.043, 42.389 109.722 C 42.067 109.401, 41.173 109.380, 40.402 109.676 C 37.550 110.770, 39.144 107.374, 43.482 103.113 C 47.991 98.684, 48.538 96.377, 44.798 97.564 C 43.348 98.024, 42.891 97.821, 43.209 96.855 C 43.459 96.096, 46.481 94.957, 50.077 94.266 C 53.610 93.587, 57.281 92.574, 58.236 92.016 C 59.191 91.457, 63.241 90.993, 67.236 90.985 C 71.231 90.976, 75.068 90.609, 75.763 90.168 C 76.504 89.697, 77.214 86.437, 77.482 82.272 C 77.766 77.868, 78.708 73.703, 79.966 71.290 C 81.080 69.152, 82.170 65.878, 82.387 64.015 C 82.652 61.735, 83.801 59.789, 85.900 58.064 C 89.366 55.214, 89.956 53.562, 87.193 54.439 C 84.892 55.169, 79.500 49.729, 79.500 46.677 C 79.500 45.061, 78.811 44.420, 76.826 44.191 C 75.356 44.021, 73.459 42.823, 72.610 41.528 C 71.270 39.483, 71.243 38.501, 72.398 34.046 C 73.130 31.226, 74.744 27.836, 75.986 26.514 C 77.635 24.760, 78.073 23.427, 77.609 21.578 C 77.080 19.469, 77.385 18.941, 79.430 18.428 C 80.781 18.089, 82.365 18.108, 82.950 18.469 C 84.044 19.145, 84.403 18.468, 85.427 13.785 C 85.808 12.040, 86.506 11.257, 87.381 11.593 C 88.130 11.880, 89.011 11.414, 89.340 10.557 C 89.668 9.701, 90.587 9, 91.382 9 C 93.121 9, 98.837 16.519, 99.698 19.939 C 100.035 21.281, 101.774 23.841, 103.561 25.628 C 107.733 29.799, 110.590 37.516, 112.086 48.650 C 112.746 53.565, 114.742 61.363, 116.575 66.189 C 121.117 78.148, 122.546 85.816, 121.066 90.300 C 120.431 92.224, 120.184 94.885, 120.517 96.213 C 120.886 97.682, 120.138 101.244, 118.607 105.311 C 114.510 116.197, 111.321 134.567, 112.468 140.679 L 113.095 144.023 152.797 143.761 L 192.500 143.500 192.757 71.750 L 193.013 0 96.507 0 L 0 0 0 72 M 0.474 72.500 C 0.474 112.100, 0.598 128.154, 0.750 108.176 C 0.901 88.198, 0.901 55.798, 0.750 36.176 C 0.598 16.554, 0.474 32.900, 0.474 72.500" stroke="none" fill="black" fill-rule="evenodd"/>
</svg>