<svg xmlns="http://www.w3.org/2000/svg" width="192" height="144" viewBox="0 0 192 144" version="1.1">
	<path d="M 0 72 L 0 144 8 144 C 12.400 144, 16 143.761, 16 143.468 C 16 143.175, 15.252 141.263, 14.337 139.218 C 13.056 136.356, 12.705 132.767, 12.809 123.627 C 12.940 112.181, 12.819 111.450, 9.434 103.272 C 3.799 89.659, 2.616 83.345, 2.639 67 C 2.662 50.328, 3.728 43.615, 8.667 29.034 C 11.587 20.414, 12.001 18.232, 11.018 16.658 C 10.056 15.117, 10.131 14.441, 11.403 13.169 C 12.779 11.793, 13.461 11.763, 16.740 12.936 C 20.486 14.275, 34.013 20.673, 39.259 23.585 C 45.048 26.800, 77.811 38.235, 79.046 37.471 C 79.571 37.147, 80 36.059, 80 35.052 C 80 33.753, 78.985 33.032, 76.500 32.566 C 72.286 31.775, 72.125 30.466, 75.755 26.500 C 77.265 24.850, 80.075 21.401, 82 18.836 C 86.012 13.489, 94.375 7.565, 96.834 8.327 C 102.057 9.946, 110.667 14.140, 113.034 16.217 C 114.898 17.853, 116.166 20.384, 117.010 24.155 C 118.096 29.007, 118.042 30.006, 116.572 32.250 C 115.649 33.658, 113.775 35.091, 112.406 35.434 C 111.038 35.778, 110.176 36.476, 110.491 36.986 C 110.807 37.496, 109.414 39.426, 107.397 41.275 L 103.729 44.637 108.737 46.792 C 116.727 50.229, 139.453 56.037, 144.208 55.857 C 146.600 55.767, 149.669 56.307, 151.028 57.059 C 152.388 57.810, 153.909 58.306, 154.408 58.160 C 154.908 58.014, 155.612 58.373, 155.974 58.958 C 156.617 59.998, 170.866 63.525, 184.938 66.128 L 192 67.434 192 71.217 C 192 73.380, 191.512 75, 190.861 75 C 190.234 75, 185.397 73.674, 180.111 72.054 C 174.825 70.433, 167.201 68.231, 163.170 67.160 L 155.840 65.213 151.537 69.516 C 147.774 73.279, 145.629 74.340, 134.425 77.985 C 122.340 81.917, 121.415 82.074, 118.058 80.755 L 114.500 79.358 114.268 84.547 C 114.090 88.526, 114.502 90.272, 116.032 92.037 C 117.130 93.302, 117.795 95.071, 117.510 95.968 C 117.226 96.864, 118.457 99.779, 120.247 102.445 C 125.132 109.724, 127.965 114.412, 127.984 115.250 C 127.993 115.662, 127.143 116, 126.095 116 C 124.265 116, 124.250 116.226, 125.722 121.750 C 126.565 124.912, 127.782 131.100, 128.427 135.500 L 129.599 143.500 155.050 143.762 C 174.574 143.964, 181.779 143.692, 185.993 142.596 C 190.130 141.520, 191.668 141.455, 192.227 142.334 C 192.635 142.975, 192.976 111.213, 192.985 71.750 L 193 0 96.500 0 L 0 0 0 72 M 0.474 72.500 C 0.474 112.100, 0.598 128.154, 0.750 108.176 C 0.901 88.198, 0.901 55.798, 0.750 36.176 C 0.598 16.554, 0.474 32.900, 0.474 72.500 M 31.246 28.250 C 28.959 31.113, 22.683 48.856, 21.293 56.386 C 20.470 60.849, 19.766 69.450, 19.729 75.500 C 19.668 85.409, 20.031 87.740, 23.390 99 C 25.440 105.875, 26.909 112.400, 26.653 113.500 C 26.397 114.600, 25.031 118.200, 23.618 121.500 C 20.863 127.931, 20.347 134.109, 22.053 140.250 L 23.094 144 34.047 144 L 45 144 45 141.540 C 45 138.304, 48.836 134.784, 57.752 129.839 C 63.026 126.914, 67.344 123.319, 73.583 116.658 C 82.440 107.204, 92 93.849, 92 90.932 C 92 90.019, 90.166 88.001, 87.925 86.448 C 80.522 81.318, 79.165 76.706, 83.156 70.247 C 85.490 66.471, 86.900 61.309, 87.703 53.602 C 88.142 49.388, 87.989 48.795, 86.606 49.352 C 85.723 49.708, 84.325 50.273, 83.500 50.607 C 82.537 50.997, 82 50.639, 82 49.607 C 82 48.723, 81.559 48, 81.019 48 C 80.480 48, 79.757 46.878, 79.412 45.507 C 79.068 44.136, 78.423 43.239, 77.979 43.513 C 77.534 43.788, 77.020 43.600, 76.835 43.095 C 76.426 41.976, 36.636 27, 34.072 27 C 33.067 27, 31.796 27.563, 31.246 28.250 M 113 54.466 C 113 54.930, 113.943 57.187, 117.924 66.250 C 120.349 71.771, 120.192 71.746, 132.500 68.584 C 139.098 66.889, 141.592 65.807, 141.844 64.530 C 142.033 63.571, 141.779 62.379, 141.279 61.879 C 140.425 61.025, 116.075 54, 113.971 54 C 113.437 54, 113 54.210, 113 54.466 M 89.543 75.931 C 89.226 76.443, 89.425 77.144, 89.984 77.490 C 90.543 77.835, 91 77.416, 91 76.559 C 91 74.802, 90.400 74.544, 89.543 75.931" stroke="none" fill="black" fill-rule="evenodd"/>
</svg>