<svg xmlns="http://www.w3.org/2000/svg" width="192" height="144" viewBox="0 0 192 144" version="1.1">
	<path d="M 0 56 C 0 94.433, 0.329 112, 1.050 112 C 2.742 112, 7.368 109.310, 9.082 107.329 C 14.338 101.253, 20.579 97.535, 32.500 93.379 C 47.951 87.991, 62.927 86, 87.992 86 L 103.772 86 107.738 79.250 C 109.919 75.538, 112.188 71.150, 112.779 69.500 C 113.371 67.850, 114.747 64.143, 115.837 61.261 C 118.462 54.323, 117.918 38.983, 114.912 35.160 C 113.860 33.824, 113 32.116, 113 31.365 C 113 30.569, 111.939 30, 110.455 30 C 106.499 30, 103 25.839, 103 21.134 C 103 17.944, 103.596 16.677, 106.077 14.589 C 107.769 13.165, 110.258 12, 111.608 12 C 112.958 12, 114.323 11.322, 114.641 10.492 C 115.461 8.355, 112.332 4, 109.977 4 C 108.890 4, 108 3.550, 108 3.001 C 108 2.388, 105.742 2.211, 102.157 2.542 C 97.629 2.961, 96.025 2.735, 95.034 1.541 C 93.915 0.193, 87.884 0, 46.878 0 L 0 0 0 56 M 166.449 2.139 C 168.337 3.623, 168.801 4.505, 167.968 5.020 C 166.535 5.905, 167.888 10.737, 171.697 18.336 C 173.299 21.533, 173.924 24.076, 173.541 25.836 C 172.731 29.555, 177.291 44.612, 180.160 47.690 C 181.447 49.071, 184.637 51.998, 187.250 54.194 L 192 58.186 192 29.093 L 192 0 177.865 -0 L 163.730 -0 166.449 2.139 M 130.953 37.750 C 129.466 61.481, 129.164 63.641, 126.561 69.209 C 125.093 72.348, 123.312 77.748, 122.604 81.209 L 121.316 87.500 127.408 88.688 C 136.054 90.375, 139 90.314, 139 88.450 C 139 87.598, 139.708 85.532, 140.573 83.859 C 141.997 81.105, 141.998 80.656, 140.587 79.096 C 139.156 77.515, 139.338 77.050, 142.799 73.437 C 146.137 69.953, 146.722 68.564, 147.887 61.358 C 149.522 51.244, 148.985 49.342, 144.125 48.034 C 140.091 46.948, 137.085 44.153, 135.212 39.750 C 134.168 37.293, 131.073 35.840, 130.953 37.750 M 56.524 96.606 C 33.353 100.266, 22.657 104.911, 12 115.942 C 7.875 120.212, 3.920 123.890, 3.211 124.116 C 1.551 124.644, 3.444 130.274, 7.991 138.331 L 11.191 144 76.016 144 L 140.841 144 141.436 137.250 C 141.968 131.214, 143.254 118.906, 144.708 105.922 L 145.221 101.343 139.861 99.695 C 131.399 97.094, 120.810 95.689, 119.966 97.056 C 119.435 97.915, 117.407 97.892, 111.879 96.965 C 100.825 95.111, 67.359 94.895, 56.524 96.606" stroke="none" fill="black" fill-rule="evenodd"/>
</svg>