<svg xmlns="http://www.w3.org/2000/svg" width="192" height="144" viewBox="0 0 192 144" version="1.1">
	<path d="M 0 21.500 L 0 43 2.250 42.946 C 3.488 42.916, 6.467 42.128, 8.871 41.196 C 13.020 39.586, 13.263 39.271, 13.634 35 C 14.899 20.425, 23.446 11.028, 35.459 11.006 C 37.702 11.001, 39.569 9.792, 43.186 6 C 45.809 3.250, 48.420 1, 48.987 1 C 49.555 1, 51.253 3.544, 52.760 6.653 C 55.231 11.752, 56 12.489, 60.596 14.166 C 66.932 16.477, 72.524 21.882, 75.731 28.794 C 77.750 33.147, 78.076 35.014, 77.564 39.294 C 76.715 46.390, 76.707 49.917, 77.529 53.750 C 77.988 55.888, 77.846 57, 77.113 57 C 75.233 57, 75.778 67.123, 77.840 70.506 C 80.292 74.526, 81.154 78.996, 79.344 78.302 C 78.455 77.961, 77.995 78.584, 77.985 80.143 C 77.972 82.032, 77.777 82.202, 77 81 C 76.242 79.827, 76.027 80.086, 76.015 82.191 C 76.007 83.671, 75.550 85.160, 75 85.500 C 73.234 86.592, 73.929 89.585, 76.513 92.012 C 77.986 93.396, 78.657 94.743, 78.134 95.266 C 77.612 95.788, 78.227 98.010, 79.621 100.632 C 80.930 103.093, 82 105.757, 82 106.553 C 82 108.435, 85.689 108.398, 94 106.435 C 111.988 102.184, 135.677 106.889, 149.542 117.465 C 154.483 121.233, 159.239 125.955, 162.169 130 C 165.012 133.926, 168.318 140.041, 167.824 140.461 C 167.646 140.612, 166.150 141.459, 164.500 142.343 C 161.646 143.873, 162.252 143.940, 177 143.725 L 192.500 143.500 192.705 71.750 L 192.910 0 96.455 0 L 0 0 0 21.500 M 0.425 22 C 0.425 33.825, 0.569 38.663, 0.746 32.750 C 0.923 26.838, 0.923 17.163, 0.746 11.250 C 0.569 5.338, 0.425 10.175, 0.425 22 M 108.035 47.934 C 106.118 51.517, 107.317 54, 110.965 54 C 112.242 54, 112.776 50.628, 111.883 48.213 C 110.874 45.486, 109.403 45.379, 108.035 47.934 M 1 65.933 C 1 73.670, 1.161 80, 1.358 80 C 2.945 80, 13 61.456, 13 58.531 C 13 57.101, 7.969 54.020, 3.250 52.561 L 1 51.865 1 65.933 M 125.655 58.829 C 124.203 60.433, 123.288 65, 124.418 65 C 126.770 65, 131 60.212, 131 57.550 C 131 56.242, 127.166 57.159, 125.655 58.829 M 1 113 C 1 142.600, 1.084 144, 2.867 144 C 4.310 144, 4.960 142.862, 5.724 139 C 6.520 134.972, 6.449 134, 5.356 134 C 3.576 134, 3.643 132.098, 5.587 127.445 C 6.461 125.355, 6.979 122.308, 6.739 120.673 C 6.499 119.038, 6.914 116.476, 7.660 114.979 C 10.213 109.861, 11.709 103.447, 10.876 101.193 C 10.429 99.986, 10.282 98.436, 10.548 97.749 C 11.262 95.907, 23.907 89.282, 28.250 88.475 C 30.313 88.091, 32 87.377, 32 86.889 C 32 86.033, 31.453 85.816, 28.750 85.600 C 28.063 85.545, 27.202 85.088, 26.838 84.584 C 26.446 84.041, 23.093 84.265, 18.606 85.134 C 10.978 86.611, 9.235 86.356, 6.179 83.315 C 5.452 82.592, 3.989 82, 2.929 82 C 1.065 82, 1 83.049, 1 113 M 24.194 137.206 C 23.537 137.863, 23 139.660, 23 141.200 C 23 143.333, 23.476 144, 25 144 C 26.519 144, 26.996 143.338, 26.985 141.250 C 26.963 137.417, 25.747 135.653, 24.194 137.206" stroke="none" fill="black" fill-rule="evenodd"/>
</svg>