<svg xmlns="http://www.w3.org/2000/svg" width="192" height="144" viewBox="0 0 192 144" version="1.1">
	<path d="M 95.813 4.258 C 90.884 8.371, 89.750 16, 94.067 16 C 98.070 16, 95.466 23.701, 91.302 24.179 C 88.783 24.468, 88.469 24.927, 88.193 28.737 C 88.024 31.068, 88.307 33.726, 88.820 34.644 C 89.550 35.947, 88.779 37.261, 85.312 40.631 C 81.570 44.268, 80.919 45.465, 81.185 48.224 C 81.497 51.464, 81.558 51.500, 86.720 51.520 C 93.559 51.545, 94.737 52.736, 93.034 57.896 C 92.316 60.071, 91.995 62.545, 92.320 63.393 C 92.646 64.240, 92.294 67.086, 91.539 69.717 C 90.784 72.348, 89.869 77.425, 89.506 81 C 88.740 88.545, 84.239 98.935, 80.551 101.672 C 79.195 102.677, 76.514 104.625, 74.592 106 C 72.670 107.375, 70.322 109.917, 69.375 111.650 C 67.676 114.758, 67.690 114.843, 70.451 118.150 C 75.088 123.702, 77.717 124.831, 87.777 125.591 C 96.729 126.267, 97.051 126.375, 97.533 128.895 C 97.807 130.328, 98.475 133.419, 99.016 135.764 C 99.557 138.110, 100 140.922, 100 142.014 C 100 143.848, 100.688 144, 109 144 C 113.950 144, 118 143.582, 118 143.071 C 118 142.561, 117.258 141.401, 116.352 140.495 C 114.953 139.096, 114.840 137.837, 115.602 132.173 L 116.500 125.500 120.766 125.838 C 126.420 126.285, 138.391 124.353, 144 122.089 C 152.912 118.490, 155.336 117.928, 156.183 119.262 C 156.783 120.206, 156.973 120.213, 156.985 119.290 C 156.993 118.625, 158.173 116.993, 159.607 115.664 C 161.447 113.957, 162.025 112.654, 161.573 111.231 C 161.221 110.122, 153.766 101.854, 145.006 92.857 C 136.246 83.861, 127.326 74.700, 125.183 72.500 C 118.178 65.308, 117.790 64.259, 119.167 56.230 C 120.287 49.700, 120.585 49.133, 123.162 48.618 C 126.823 47.885, 127.730 44.340, 125.473 39.585 C 124.538 37.613, 123.486 36, 123.136 36 C 122.786 36, 122.467 33.075, 122.427 29.500 L 122.354 23 129.606 23 C 134.882 23, 137.288 22.570, 138.438 21.419 C 141.275 18.582, 139.198 17.689, 131.610 18.483 C 122.768 19.409, 119.598 19.274, 119.154 17.954 C 118.294 15.394, 113.642 11.035, 110.717 10.047 C 108.638 9.345, 106.969 7.818, 106 5.731 C 104.078 1.591, 99.759 0.967, 95.813 4.258 M 100.015 61.750 C 100.007 62.987, 100.450 64, 101 64 C 102.253 64, 102.253 62.939, 101 61 C 100.216 59.787, 100.028 59.931, 100.015 61.750 M 106.189 127 C 106.215 128.375, 106.580 130.850, 107 132.500 L 107.763 135.500 107.811 132 C 107.838 130.075, 107.473 127.600, 107 126.500 C 106.220 124.685, 106.145 124.732, 106.189 127" stroke="none" fill="black" fill-rule="evenodd"/>
</svg>