<svg xmlns="http://www.w3.org/2000/svg" width="192" height="144" viewBox="0 0 192 144" version="1.1">
	<path d="M 0 53.559 C 0 92.601, 0.301 106.932, 1.112 106.431 C 2.715 105.440, 3.955 107.975, 3.349 111.004 C 2.933 113.087, 3.342 113.835, 5.415 114.779 C 7.738 115.838, 8 116.514, 8 121.440 L 8 126.923 11.993 127.998 C 17.211 129.403, 19.465 133.413, 18.533 139.632 L 17.877 144 52.347 144 L 86.816 144 89.658 139.502 C 91.221 137.028, 92.855 135.003, 93.288 135.002 C 93.722 135.001, 95.297 137.011, 96.788 139.468 L 99.500 143.937 145.589 143.968 L 191.678 144 192.339 115.337 C 192.703 99.573, 193 67.173, 193 43.337 L 193 0 96.500 0 L 0 0 0 53.559 M 0.466 54 C 0.466 83.425, 0.593 95.463, 0.749 80.750 C 0.905 66.037, 0.905 41.962, 0.749 27.250 C 0.593 12.537, 0.466 24.575, 0.466 54 M 129.771 18.750 C 128.925 19.712, 127.300 22.357, 126.159 24.627 C 124.277 28.371, 121.723 30.576, 119.750 30.159 C 119.338 30.071, 118.173 30.787, 117.162 31.750 C 116.151 32.712, 114.467 33.997, 113.419 34.605 C 111.742 35.577, 111.685 35.916, 112.943 37.431 C 114.014 38.722, 115.220 38.994, 117.762 38.517 C 119.816 38.132, 121.713 38.347, 122.576 39.063 C 124.631 40.768, 124.373 45.511, 122.166 46.597 C 118.713 48.297, 113.068 55.491, 114.001 57.002 C 114.741 58.199, 115.251 58.204, 117.433 57.036 C 120.202 55.554, 121.261 56.004, 121.463 58.750 C 121.647 61.249, 123.439 61.469, 123.820 59.040 C 124.355 55.625, 125.699 56.748, 126.930 61.638 C 128.494 67.847, 127.560 71.359, 123.627 74.053 C 121.838 75.279, 119.636 77.568, 118.734 79.141 C 117.831 80.713, 116.397 82, 115.547 82 C 113.604 82, 113.610 82.821, 115.585 87.549 C 116.601 89.981, 117.437 90.910, 117.915 90.138 C 118.746 88.793, 122 89.651, 122 91.214 C 122 91.764, 122.732 91.933, 123.627 91.590 C 125.944 90.700, 128 92.779, 128 96.012 C 128 99.137, 131.152 103.642, 132.679 102.698 C 133.231 102.357, 134.478 99.136, 135.452 95.539 C 136.494 91.691, 137.764 89, 138.540 89 C 140.771 89, 142.892 91.886, 143.524 95.782 C 144.524 101.949, 145.731 104, 148.356 104 C 151.257 104, 152.544 102.551, 153.464 98.250 C 153.846 96.463, 154.353 95, 154.591 95 C 156.595 95, 164.098 100.009, 165 101.948 C 165.921 103.930, 166.312 104.120, 167.053 102.948 C 167.557 102.152, 167.976 100.263, 167.985 98.750 C 168.004 95.348, 168.276 95.346, 172.705 98.724 C 176.137 101.342, 176.249 101.361, 175.571 99.224 C 174.776 96.718, 175.235 96.520, 178.186 98.100 C 179.714 98.917, 180.060 98.906, 179.535 98.056 C 178.315 96.083, 181.094 93.807, 183.870 94.504 L 186.389 95.136 183.945 93.154 C 181.117 90.862, 181.824 89.300, 184.935 90.965 C 187.024 92.083, 189 91.642, 189 90.058 C 189 89.604, 187.988 88.956, 186.750 88.617 C 185.051 88.151, 184.827 87.789, 185.834 87.139 C 186.886 86.460, 186.786 86.132, 185.362 85.585 C 183.875 85.015, 183.806 84.738, 184.971 84.018 C 186.120 83.308, 186.162 82.650, 185.193 80.525 C 183.503 76.816, 183.691 76.005, 186.250 75.964 C 188.440 75.929, 188.427 75.868, 185.750 73.676 C 182.644 71.133, 182.277 70, 184.559 70 C 185.416 70, 185.840 69.550, 185.500 69 C 185.160 68.450, 183.784 68, 182.441 68 C 180.916 68, 180 67.426, 180 66.469 C 180 65.626, 179.213 64.656, 178.250 64.313 C 174.891 63.116, 173.882 61.848, 175.110 60.367 C 176.058 59.225, 174.486 59, 165.577 59 L 154.909 59 155.566 55.500 C 156.385 51.132, 155 50.953, 147.967 54.517 L 143 57.034 143 52.611 C 143 48.485, 143.299 47.991, 147.448 45.242 C 150.781 43.035, 151.610 42.010, 150.755 41.155 C 149.899 40.299, 150.316 39.280, 152.416 37.088 C 153.957 35.479, 154.954 33.735, 154.632 33.213 C 154.309 32.691, 151.301 31.953, 147.947 31.574 C 142.144 30.917, 141.778 30.712, 140.362 27.325 C 139.545 25.368, 139.127 23.111, 139.434 22.311 C 139.741 21.510, 139.529 19.988, 138.961 18.928 C 137.625 16.431, 131.907 16.321, 129.771 18.750 M 121 81 C 121 81.550, 121.423 82, 121.941 82 C 122.459 82, 123.160 81.550, 123.500 81 C 123.840 80.450, 123.416 80, 122.559 80 C 121.702 80, 121 80.450, 121 81" stroke="none" fill="black" fill-rule="evenodd"/>
</svg>