<svg xmlns="http://www.w3.org/2000/svg" width="192" height="144" viewBox="0 0 192 144" version="1.1">
	<path d="M 0 32.890 L 0 65.780 4.498 71.890 C 9.220 78.305, 11 79.401, 11 75.893 C 11 74.383, 11.448 73.958, 12.582 74.393 C 13.452 74.727, 15.252 75, 16.582 75 C 18.518 75, 19 75.517, 19 77.596 C 19 81.575, 16.366 85.177, 10.418 89.334 C 7.438 91.416, 5 93.503, 5 93.971 C 5 94.804, 8.458 97.813, 13.298 101.191 C 14.976 102.363, 15.895 104.178, 16.286 107.095 C 16.597 109.412, 17.759 112.536, 18.869 114.037 C 20.697 116.509, 20.805 117.513, 20.010 124.634 C 19.527 128.960, 18.432 134.975, 17.578 138 C 16.723 141.025, 16.018 143.613, 16.012 143.750 C 16.005 143.887, 17.125 144, 18.500 144 C 19.875 144, 21.007 143.438, 21.015 142.750 C 21.026 141.917, 21.354 142, 22 143 C 22.784 144.213, 22.972 144.069, 22.985 142.250 C 22.993 141.012, 23.450 140, 24 140 C 24.550 140, 25 138.623, 25 136.941 C 25 135.156, 25.417 134.139, 26 134.500 C 26.554 134.842, 27 134.110, 27 132.859 C 27 131.102, 27.267 130.867, 28.200 131.800 C 29.651 133.251, 31.365 133.400, 30.500 132 C 30.160 131.450, 30.569 131, 31.409 131 C 32.249 131, 33.607 132.237, 34.428 133.750 C 35.253 135.271, 35.945 135.830, 35.975 135 C 36.024 133.667, 36.138 133.667, 37 135 C 37.770 136.192, 37.980 135.986, 38.020 134 C 38.065 131.743, 38.660 132.121, 44.140 137.889 C 50.360 144.435, 51.947 144.727, 51.985 139.332 C 51.993 138.139, 52.261 136.339, 52.580 135.332 C 52.955 134.147, 52.212 134.560, 50.475 136.500 C 47.841 139.443, 47.802 139.453, 48.409 137 C 50.638 127.987, 50.427 126.492, 46.088 120.619 C 41.181 113.976, 39.171 113.600, 35.293 118.600 C 33.757 120.580, 31.815 123.089, 30.979 124.176 C 29.856 125.635, 28.782 125.983, 26.881 125.506 C 24.732 124.967, 24.386 124.415, 24.797 122.180 C 25.068 120.706, 26.944 117.925, 28.965 116 C 30.986 114.075, 33.284 111.590, 34.070 110.478 C 34.857 109.365, 37.415 107.608, 39.756 106.573 C 42.096 105.538, 44.564 104.026, 45.239 103.212 C 46.101 102.173, 46.472 96.644, 46.487 84.617 C 46.505 69.185, 46.744 66.811, 48.910 60.500 C 50.231 56.650, 52.367 51.821, 53.656 49.770 C 56.219 45.692, 56.592 42.393, 54.909 38.699 C 54.073 36.864, 54.186 35.219, 55.392 31.667 C 56.408 28.674, 56.753 25.477, 56.365 22.647 C 56.026 20.176, 56.191 18, 56.742 17.660 C 57.279 17.327, 59.635 20.268, 61.977 24.194 C 66.374 31.566, 68.144 38.175, 66.066 39.459 C 64.674 40.320, 66.485 43, 68.458 43 C 69.908 43, 80.195 53.730, 88.380 63.780 C 91.614 67.751, 95.032 71, 95.974 71 C 96.916 71, 100.763 67.288, 104.522 62.750 C 113.936 51.387, 120.985 44.117, 124.267 42.389 C 126.558 41.182, 126.859 40.605, 126.017 39.031 C 124.438 36.082, 124.790 33.685, 127.500 28.907 C 128.875 26.483, 130.681 23.038, 131.513 21.250 C 132.346 19.463, 133.753 18, 134.641 18 C 135.974 18, 136.140 18.723, 135.594 22.139 C 135.160 24.854, 135.471 27.901, 136.497 30.992 C 137.672 34.530, 137.806 36.381, 137.031 38.418 C 135.405 42.695, 135.765 44.739, 139.485 52.361 C 145.183 64.035, 146.112 69.332, 145.443 86.344 C 144.790 102.956, 145.039 103.736, 151.903 106.604 C 156.200 108.399, 166.485 118.812, 167.344 122.236 C 167.891 124.412, 167.585 124.887, 165.263 125.470 C 163.200 125.988, 162.175 125.675, 161.021 124.176 C 160.185 123.089, 158.243 120.580, 156.707 118.600 C 152.842 113.618, 150.816 113.981, 145.985 120.520 L 141.907 126.040 143.100 132.270 C 144.497 139.566, 144.479 139.533, 146.184 138.082 C 150.951 134.027, 152.346 133.096, 153.023 133.514 C 153.443 133.774, 155.376 133.323, 157.317 132.512 C 160.035 131.376, 160.941 131.321, 161.260 132.269 C 161.572 133.193, 162.137 133.126, 163.529 132 C 164.549 131.175, 165.068 131.026, 164.683 131.669 C 164.297 132.313, 164.661 133.518, 165.491 134.348 C 166.321 135.178, 167 136.513, 167 137.314 C 167 138.116, 167.581 139.892, 168.292 141.262 C 169.542 143.672, 169.943 143.757, 180.792 143.930 L 192 144.108 192.001 120.804 C 192.002 107.987, 192.300 75.563, 192.664 48.750 L 193.327 0 96.663 0 L 0 0 0 32.890 M 0.448 33.500 C 0.447 51.650, 0.582 59.216, 0.748 50.314 C 0.913 41.411, 0.914 26.561, 0.749 17.314 C 0.583 8.066, 0.448 15.350, 0.448 33.500 M 52.638 142.500 C 52.288 143.414, 52.637 144, 53.531 144 C 54.339 144, 55 143.325, 55 142.500 C 55 141.675, 54.598 141, 54.107 141 C 53.616 141, 52.955 141.675, 52.638 142.500" stroke="none" fill="black" fill-rule="evenodd"/>
</svg>