<svg xmlns="http://www.w3.org/2000/svg" width="192" height="144" viewBox="0 0 192 144" version="1.1">
	<path d="M 161 13.149 C 158.525 14.846, 154.209 18.094, 151.410 20.367 C 145.286 25.339, 137.614 30.824, 129.500 36.030 C 123.655 39.781, 123.486 39.824, 122.959 37.690 C 122.288 34.974, 118 34.003, 118 36.566 C 118 38.004, 117.316 38.178, 113.649 37.675 C 108.498 36.969, 103.228 38.246, 99.640 41.069 C 96.597 43.462, 93.841 51.114, 95.788 51.763 C 97.678 52.393, 97.211 55, 95.207 55 C 93.944 55, 93.078 53.745, 92.274 50.750 C 90.872 45.528, 85.738 40.037, 82.131 39.901 C 74.635 39.621, 74.618 39.612, 71.972 34.616 C 67.510 26.194, 61.005 22.021, 52.315 22.006 C 42.348 21.988, 33.332 31.863, 32.302 43.928 C 31.330 55.323, 40.281 64.558, 52.143 64.397 C 58.458 64.311, 58.604 64.963, 53.250 69.316 C 52.013 70.322, 51 71.803, 51 72.608 C 51 73.412, 50.301 75.138, 49.446 76.443 C 47.704 79.100, 49.045 80.855, 51.009 78.489 C 51.689 77.670, 52.817 77, 53.515 77 C 55.274 77, 56.078 79.522, 54.745 80.855 C 53.948 81.652, 54.059 82.438, 55.153 83.726 C 55.984 84.705, 57.232 89.731, 57.938 94.938 C 58.642 100.130, 59.728 105.192, 60.350 106.188 C 61.203 107.554, 61.176 108.489, 60.241 109.986 C 58.667 112.506, 58.644 117.457, 60.194 119.939 C 61.120 121.422, 61.120 122.441, 60.194 124.473 C 58.569 128.039, 58.693 131.501, 60.500 133 C 62.207 134.416, 62.494 137.577, 61 138.500 C 59.698 139.305, 59.698 144, 61 144 C 61.550 144, 62 143.325, 62 142.500 C 62 140.408, 64.753 140.616, 65.311 142.750 C 65.598 143.851, 65.811 143.502, 65.884 141.809 C 65.948 140.329, 65.541 138.834, 64.979 138.487 C 64.340 138.092, 64.209 135.419, 64.628 131.329 C 65.141 126.323, 64.977 124.604, 63.928 123.955 C 62.808 123.263, 62.781 122.495, 63.779 119.734 C 65.258 115.644, 65.361 111.341, 64 110.500 C 63.450 110.160, 63 108.801, 63 107.480 C 63 105.485, 63.721 104.899, 67.250 104.027 C 69.588 103.449, 73.127 102.531, 75.116 101.988 C 80.067 100.635, 80.086 100.644, 78.903 103.750 C 78.221 105.539, 78.101 111.807, 78.559 121.695 C 79.223 136.019, 79.143 137.093, 77.165 140.445 L 75.067 144 103.413 144 L 131.759 144 135.630 139.327 C 141.909 131.745, 142.986 129.717, 142.993 125.473 C 143.001 120.625, 141.683 118.521, 133.167 109.784 L 126.621 103.067 128.457 93.284 C 130.007 85.027, 131.746 78.681, 134.538 71.097 C 134.945 69.992, 135.352 70.099, 136.447 71.597 C 137.799 73.446, 137.913 73.431, 140.436 71.060 C 147.439 64.481, 151.672 48.501, 147.066 46.035 C 144.246 44.526, 139.776 44.769, 137.204 46.570 C 135.971 47.433, 134.212 47.995, 133.295 47.818 C 130.599 47.299, 144.680 35.446, 147.547 35.822 C 148.802 35.986, 152.213 34.912, 155.127 33.436 L 160.425 30.751 157.623 28.517 C 155.328 26.687, 155.109 26.172, 156.411 25.673 C 157.285 25.337, 158 24.129, 158 22.989 C 158 21.848, 160.025 18.749, 162.500 16.103 C 169.059 9.091, 168.506 8.002, 161 13.149 M 86.890 67.564 C 82.839 71.615, 77.940 72.252, 69.113 69.874 C 67.006 69.306, 66.069 74.159, 67.488 78.288 C 68.167 80.262, 68.342 82.258, 67.877 82.723 C 66.483 84.117, 68.387 92.526, 70.052 92.329 C 72.565 92.032, 85.408 88.079, 87.593 86.931 C 90.309 85.503, 94.957 71.209, 93.082 70.051 C 92.414 69.638, 91.745 68.469, 91.596 67.454 C 91.188 64.674, 89.747 64.707, 86.890 67.564 M 60.188 114.739 C 60.690 117.345, 64 117.636, 64 115.073 C 64 113.642, 63.358 113, 61.927 113 C 60.496 113, 59.957 113.539, 60.188 114.739 M 108.750 119.570 C 107.580 120.761, 107.841 136, 109.031 136 C 109.599 136, 110.333 135.297, 110.663 134.437 C 111.468 132.337, 109.701 118.601, 108.750 119.570 M 122.458 127.538 C 121.488 131.658, 120.936 135.270, 121.232 135.565 C 121.527 135.861, 123.603 133.517, 125.845 130.356 C 130.079 124.388, 130.092 123.190, 125.943 120.970 C 124.443 120.167, 123.996 121.010, 122.458 127.538 M 62.163 126.889 C 61.427 127.349, 60.977 128.676, 61.163 129.837 C 61.399 131.316, 61.901 131.698, 62.837 131.111 C 63.573 130.651, 64.023 129.324, 63.837 128.163 C 63.601 126.684, 63.099 126.302, 62.163 126.889" stroke="none" fill="black" fill-rule="evenodd"/>
</svg>