<svg xmlns="http://www.w3.org/2000/svg" width="192" height="144" viewBox="0 0 192 144" version="1.1">
	<path d="M 156 5 C 156 5.550, 155.380 6, 154.622 6 C 153.865 6, 152.685 6.675, 152 7.500 C 151.315 8.325, 149.685 9, 148.378 9 C 145.318 9, 145.318 10.732, 148.379 12.127 C 150.022 12.875, 150.604 13.797, 150.262 15.105 C 149.990 16.147, 150.269 17, 150.883 17 C 153.179 17, 151.871 21.257, 148 26.384 C 145.800 29.298, 144 32.010, 144 32.412 C 144 34.645, 141.047 35.942, 135.674 36.070 C 134.316 36.102, 134.118 36.437, 134.901 37.380 C 136.089 38.812, 134.517 41, 132.300 41 C 129.409 41, 131.419 44.742, 136.436 48.700 L 141.760 52.900 140.817 57.700 C 139.750 63.134, 140.411 71.563, 142.231 75.712 C 143.586 78.802, 146.112 81.355, 150.219 83.785 C 154.082 86.072, 154.457 87.867, 151.215 88.559 C 149.722 88.878, 147.466 89.557, 146.203 90.069 C 144.940 90.581, 142.842 91, 141.542 91 C 137.742 91, 127.675 95.094, 125.500 97.524 C 124.400 98.753, 121.250 100.944, 118.500 102.394 L 113.500 105.029 112.331 102.221 C 111.689 100.677, 110.641 96.508, 110.002 92.957 C 109.364 89.406, 108.022 85.600, 107.021 84.500 C 106.019 83.400, 105.038 81.600, 104.839 80.500 C 104.553 78.910, 103.455 78.387, 99.490 77.949 C 96.745 77.646, 91.700 75.958, 88.279 74.199 C 79.141 69.501, 73.652 70.102, 79.474 75.164 L 81.947 77.315 79.224 78.750 C 77.132 79.851, 74.444 80.027, 67.639 79.508 C 60.485 78.963, 58.858 79.089, 59.193 80.166 C 59.792 82.089, 72.199 87.823, 79.978 89.772 L 86.628 91.439 90.375 98.970 C 92.435 103.111, 95.154 109.622, 96.416 113.438 C 98.321 119.200, 99.285 120.694, 102.105 122.256 C 106.877 124.901, 114.374 124.038, 125.306 119.586 C 131.668 116.995, 135.617 116, 139.533 116 C 146.370 116, 147.320 117.336, 148.899 129.181 C 149.535 133.955, 150.537 139.243, 151.126 140.931 L 152.196 144 172.098 144 L 192 144 192 116.122 C 192 88.325, 191.993 88.240, 189.750 86.735 L 187.500 85.226 189.762 82.138 C 191.985 79.102, 192.022 78.588, 191.931 51.969 L 191.839 24.889 189.354 23.945 C 187.988 23.425, 184.312 22.978, 181.185 22.951 C 176.719 22.913, 174.106 22.173, 169 19.500 C 165.425 17.628, 163.331 16.075, 164.346 16.049 C 165.361 16.022, 167.386 16.661, 168.846 17.469 C 170.306 18.276, 173.154 19.589, 175.175 20.386 C 179.326 22.023, 180 21.403, 180 15.953 C 180 11.952, 176.234 10.330, 163 8.634 C 159.274 8.156, 159.274 8.156, 158.710 6 C 158.180 3.971, 156 3.166, 156 5 M 47.500 128.705 C 24.781 131.778, 3.872 134.961, 3.043 135.473 C 2.470 135.828, 2 137.891, 2 140.059 L 2 144 48.750 143.923 L 95.500 143.845 88 141.812 C 68.576 136.545, 67.021 135.933, 66.359 133.293 C 65.267 128.944, 58.289 127.246, 47.500 128.705" stroke="none" fill="black" fill-rule="evenodd"/>
</svg>