<svg xmlns="http://www.w3.org/2000/svg" width="192" height="144" viewBox="0 0 192 144" version="1.1">
	<path d="M 0 72 L 0 144 12.613 144 L 25.226 144 24.820 137.250 C 24.482 131.636, 23.617 128.933, 19.678 121.186 C 17.074 116.063, 13.868 108.638, 12.554 104.686 C 7.195 88.567, 6.692 63.403, 11.352 44.569 C 13.553 35.675, 13.657 34.406, 12.344 32.403 C 11.034 30.403, 11.059 30.066, 12.582 29.214 C 13.518 28.690, 15.233 28.470, 16.392 28.724 C 21.317 29.805, 34.844 34.447, 39 36.483 C 44.369 39.113, 64.742 44.591, 65.677 43.656 C 66.038 43.295, 65.583 43, 64.667 43 C 62.287 43, 62.608 41.280, 65.250 39.869 C 66.488 39.209, 71.401 34.918, 76.168 30.334 C 82.363 24.378, 85.556 22, 87.361 22 C 88.749 22, 91.374 21.123, 93.193 20.050 C 95.012 18.978, 98.300 17.826, 100.500 17.489 C 103.880 16.972, 105.344 17.391, 109.945 20.189 C 114.540 22.983, 115.447 24.022, 115.761 26.848 C 116.003 29.024, 115.537 30.854, 114.431 32.077 C 112.885 33.785, 112.876 34.015, 114.332 34.574 C 115.602 35.061, 115.823 36.153, 115.393 39.812 C 114.758 45.214, 114.383 46, 112.441 46 C 111.648 46, 111 46.649, 111 47.443 C 111 49.203, 114.798 52, 117.188 52 C 118.146 52, 120.440 53.326, 122.285 54.946 C 125.162 57.472, 127.356 58.184, 137.686 59.946 C 144.401 61.092, 151.874 61.785, 154.574 61.511 C 158.919 61.072, 164.788 62.247, 167.500 64.100 C 168.050 64.476, 172.775 65.313, 178 65.959 C 192.333 67.733, 192 67.614, 192 70.994 C 192 73.677, 191.746 73.902, 189.250 73.436 C 187.738 73.153, 182.108 72.106, 176.740 71.109 L 166.980 69.297 164.994 72.509 C 162.195 77.039, 157.096 80.231, 145 85.029 C 136.460 88.417, 133.717 89.088, 130.307 88.624 L 126.114 88.054 125.435 92.583 C 124.855 96.450, 125.085 97.461, 127.005 99.505 C 128.241 100.821, 129.009 102.533, 128.711 103.310 C 128.157 104.754, 131.766 111.369, 136.998 118.500 C 140.625 123.443, 140.665 124, 137.389 124 C 134.990 124, 134.825 124.264, 135.361 127.250 C 135.682 129.037, 136.245 133.545, 136.612 137.266 L 137.279 144.031 164.890 143.766 L 192.500 143.500 192.757 71.750 L 193.013 0 96.507 0 L 0 0 0 72 M 0.474 72.500 C 0.474 112.100, 0.598 128.154, 0.750 108.176 C 0.901 88.198, 0.901 55.798, 0.750 36.176 C 0.598 16.554, 0.474 32.900, 0.474 72.500 M 33.902 43.750 C 29.581 55.078, 27.787 64.095, 27.272 77.073 C 26.596 94.098, 27.650 100.295, 34.077 117.103 L 39.101 130.243 37.051 136.316 C 35.923 139.656, 35 142.751, 35 143.194 C 35 143.637, 37.466 144, 40.480 144 C 45.859 144, 45.996 143.928, 47.986 140.028 C 49.100 137.843, 51.385 134.493, 53.062 132.582 C 56.686 128.455, 67.009 121.756, 73.978 119.009 C 84.337 114.926, 92.813 109.989, 97.328 105.409 C 99.898 102.803, 102 100.108, 102 99.421 C 102 98.734, 99.123 95.883, 95.606 93.085 C 86.708 86.004, 86.043 83.477, 91.019 75.631 C 92.679 73.013, 93.776 70.447, 93.456 69.929 C 93.136 69.412, 93.439 67.427, 94.129 65.519 C 95.691 61.200, 94.693 60.021, 91.746 62.702 C 90.511 63.826, 88.922 64.535, 88.216 64.278 C 87.510 64.021, 86.273 64.359, 85.466 65.028 C 84.438 65.881, 84 65.909, 84 65.122 C 84 64.505, 83.518 64, 82.929 64 C 80.818 64, 79.176 61.438, 80.159 59.681 C 81.260 57.713, 79.984 57.448, 78.078 59.250 C 76.983 60.285, 76.983 60.069, 78.080 58 C 80.802 52.861, 79.933 51.044, 74.736 51.015 C 73.216 51.007, 71.191 50.574, 70.236 50.054 C 67.812 48.734, 39.372 41, 36.942 41 C 35.690 41, 34.561 42.022, 33.902 43.750 M 68.500 45 C 71.278 46.194, 73.238 46.194, 72.500 45 C 72.160 44.450, 70.671 44.032, 69.191 44.070 C 66.788 44.133, 66.714 44.233, 68.500 45 M 125.031 63.250 C 125.048 63.938, 126.171 66.300, 127.526 68.500 C 128.881 70.700, 129.999 73.400, 130.010 74.500 C 130.058 79.207, 131.157 79.340, 141.911 75.931 C 152.073 72.709, 152.103 72.690, 151.802 69.651 L 151.500 66.603 138.500 64.331 C 131.350 63.082, 125.388 62.046, 125.250 62.030 C 125.112 62.013, 125.014 62.563, 125.031 63.250 M 97.716 80.762 C 96.088 82.560, 96.127 82.771, 98.501 85.001 L 101 87.349 100.930 84.924 C 100.891 83.591, 100.537 81.683, 100.144 80.685 C 99.457 78.944, 99.358 78.947, 97.716 80.762" stroke="none" fill="black" fill-rule="evenodd"/>
</svg>