<svg xmlns="http://www.w3.org/2000/svg" width="192" height="144" viewBox="0 0 192 144" version="1.1">
	<path d="M 61.015 0.750 C 61.036 1.762, 62.965 4.701, 62.985 3.750 C 63.005 2.771, 66.465 6.242, 67.857 8.637 C 68.866 10.373, 68.941 10.347, 68.970 8.250 C 69.017 4.749, 70.703 5.604, 71.434 9.500 C 72.026 12.657, 74 14.535, 74 11.941 C 74 11.359, 74.450 11.160, 75 11.500 C 75.550 11.840, 76 11.641, 76 11.059 C 76 10.477, 76.497 10, 77.105 10 C 77.791 10, 78.065 11.516, 77.829 14 C 77.452 17.946, 78.518 19.419, 79.638 16.500 C 80.645 13.876, 81.500 14.879, 81.488 18.671 C 81.477 22.295, 81.394 22.370, 74.988 24.522 C 64.783 27.951, 62.841 28.889, 58.373 32.550 L 54.182 35.985 51.015 30.372 L 47.847 24.759 41.673 25.629 C 38.278 26.108, 30.100 26.490, 23.500 26.478 C 12.424 26.458, 11.089 26.247, 6.168 23.728 C 3.235 22.228, 0.648 21, 0.418 21 C 0.188 21, -0 33.747, -0 49.327 L -0 77.654 2.864 77.233 C 5.626 76.828, 5.879 76.296, 9.973 62.242 C 13.866 48.880, 14.119 47.333, 13.023 43.586 C 12.365 41.339, 11.155 38.448, 10.334 37.163 C 9.512 35.878, 9.138 34.528, 9.503 34.163 C 10.447 33.219, 30.669 33.338, 31.626 34.294 C 32.064 34.731, 31.236 36.081, 29.786 37.294 C 28.336 38.507, 26.188 41.800, 25.012 44.611 L 22.874 49.721 25.354 62.445 C 26.719 69.443, 27.985 75.304, 28.167 75.470 C 28.350 75.636, 37.050 75.348, 47.500 74.831 C 57.950 74.313, 88.550 73.577, 115.500 73.195 L 164.500 72.500 165.788 66 C 166.497 62.425, 167.766 55.900, 168.608 51.500 C 169.451 47.100, 170.385 42.263, 170.683 40.750 C 171.268 37.791, 173 36.948, 173 39.622 C 173 42.543, 175.732 39.241, 176.441 35.464 C 177.033 32.306, 177.396 32, 180.545 32 C 182.445 32, 184 32.450, 184 33 C 184 33.550, 183.632 34, 183.183 34 C 182.347 34, 179.024 43.537, 178.971 46.088 C 178.955 46.865, 180.625 53.237, 182.682 60.250 C 186.288 72.540, 186.521 73, 189.142 73 C 191.167 73, 191.972 73.575, 192.294 75.250 C 192.533 76.487, 192.789 64.563, 192.864 48.750 C 192.944 31.884, 192.621 20, 192.083 20 C 191.579 20, 189.104 20.884, 186.583 21.964 C 182.354 23.777, 182.002 23.797, 182.024 22.214 C 182.068 19.034, 183.848 12.712, 184.878 12.075 C 185.499 11.692, 185.669 9.193, 185.311 5.722 L 184.720 -0 170.360 -0 L 156 0 156 4.412 C 156 6.839, 156.675 12.351, 157.500 16.662 C 158.325 20.973, 159 24.665, 159 24.867 C 159 25.070, 155.721 24.928, 151.714 24.552 C 143.480 23.781, 143.452 23.797, 138.627 32.250 C 137.136 34.863, 135.712 37, 135.463 37 C 135.214 37, 132.309 34.824, 129.008 32.163 C 125.707 29.503, 120.529 26.485, 117.503 25.456 C 114.476 24.428, 112 23.004, 112 22.293 C 112 21.582, 112.441 21, 112.981 21 C 113.520 21, 115.032 18.894, 116.340 16.320 L 118.719 11.639 119.413 16.268 C 119.910 19.582, 120.493 20.748, 121.466 20.375 C 122.236 20.079, 123.029 20.643, 123.297 21.677 C 123.556 22.679, 123.851 21.700, 123.952 19.500 C 124.118 15.888, 124.240 15.716, 125.208 17.722 C 126.266 19.914, 126.305 19.900, 128.012 16.722 C 128.965 14.950, 130.484 13.496, 131.390 13.490 C 132.295 13.485, 134.120 11.685, 135.446 9.490 L 137.856 5.500 138.903 8.250 C 140.586 12.670, 141.830 11.432, 141.659 5.508 L 141.500 0.016 101.250 0.008 C 79.112 0.004, 61.007 0.337, 61.015 0.750 M 106 15 C 106 15.550, 106.450 16, 107 16 C 107.550 16, 108 15.550, 108 15 C 108 14.450, 107.550 14, 107 14 C 106.450 14, 106 14.450, 106 15 M 109.250 18.714 C 108.430 20.474, 108.338 21.738, 108.983 22.383 C 110.456 23.856, 111.180 22.566, 110.821 19.110 L 110.500 16.027 109.250 18.714 M 0.441 49.500 C 0.442 65.450, 0.580 71.835, 0.748 63.689 C 0.916 55.543, 0.916 42.493, 0.747 34.689 C 0.579 26.885, 0.441 33.550, 0.441 49.500 M 146.103 37.691 C 142.430 42.147, 142.360 42.587, 145.086 44.046 C 147.560 45.370, 147.789 45.188, 150.079 40.071 C 151.533 36.824, 151.613 35.924, 150.528 35.023 C 149.512 34.180, 148.489 34.796, 146.103 37.691 M 40.676 36.403 C 40.351 37.248, 41.004 40.015, 42.125 42.550 C 44.094 47.002, 44.231 47.101, 46.082 45.425 C 48.736 43.024, 48.511 41.887, 44.633 38.129 C 41.940 35.519, 41.148 35.173, 40.676 36.403 M 76.500 88.051 C 63.300 88.424, 47.694 88.790, 41.821 88.864 L 31.142 89 31.194 92.250 C 31.222 94.037, 30.284 98.650, 29.109 102.500 C 27.935 106.350, 26.384 112.425, 25.663 116 C 24.413 122.196, 24.145 122.611, 19.926 124.883 C 17.492 126.194, 12.012 129.275, 7.750 131.728 C 0.168 136.093, -0 136.275, -0 140.095 L 0 144 18.364 144 L 36.728 144 39.309 140.250 C 42.018 136.314, 47.375 124.320, 50.586 115 L 52.481 109.500 53.149 118 C 53.517 122.675, 53.569 130.438, 53.266 135.250 L 52.713 144 95.357 144 L 138 144 138 130.800 C 138 123.540, 138.360 118.027, 138.800 118.550 C 139.240 119.073, 140.649 122.200, 141.931 125.500 C 143.213 128.800, 145.805 134.322, 147.691 137.770 L 151.120 144.040 171.810 143.770 L 192.500 143.500 192.708 139 C 192.822 136.525, 192.690 135.008, 192.415 135.628 C 192.100 136.337, 186.733 134.149, 177.957 129.734 C 165.385 123.409, 164 122.453, 163.997 120.106 C 163.994 116.785, 158.650 95.692, 156.559 90.750 L 154.973 87 127.737 87.186 C 112.756 87.289, 89.700 87.678, 76.500 88.051 M 158 88.868 C 158 90.702, 159.653 92.697, 160.471 91.850 C 161.731 90.546, 161.261 87.523, 159.750 87.213 C 158.544 86.965, 158 87.479, 158 88.868 M 0.272 140 C 0.272 142.475, 0.467 143.488, 0.706 142.250 C 0.944 141.012, 0.944 138.988, 0.706 137.750 C 0.467 136.512, 0.272 137.525, 0.272 140" stroke="none" fill="black" fill-rule="evenodd"/>
</svg>