<svg xmlns="http://www.w3.org/2000/svg" width="192" height="144" viewBox="0 0 192 144" version="1.1">
	<path d="M 0 51 C 0 84.625, 0.344 102, 1.009 102 C 1.563 102, 3.394 100.763, 5.076 99.250 C 9.252 95.495, 19.170 89, 20.729 89 C 21.428 89, 22 88.550, 22 88 C 22 87.450, 22.569 87, 23.265 87 C 23.960 87, 26.119 86.148, 28.061 85.108 C 31.080 83.489, 51.615 76.295, 55.272 75.575 C 55.947 75.441, 59.029 74.568, 62.120 73.633 L 67.741 71.933 68.944 65.717 C 70.898 55.618, 73.953 46.792, 77.076 42.221 C 78.684 39.867, 80 37.554, 80 37.081 C 80 36.607, 82.017 33.481, 84.481 30.133 C 90.159 22.420, 97.301 17.694, 107.454 14.931 C 124.280 10.352, 138.300 14.076, 149.409 26.075 L 155 32.114 154.969 40.307 C 154.943 46.947, 154.471 49.448, 152.478 53.500 C 151.125 56.250, 150.014 59.532, 150.009 60.794 C 150.003 62.421, 149.492 63.002, 148.250 62.794 C 146.956 62.577, 146.422 63.282, 146.201 65.500 C 145.666 70.877, 142.877 77.995, 140.889 79.060 C 139.194 79.967, 139.033 80.767, 139.633 85.293 L 140.322 90.486 137.746 87.493 C 134.734 83.994, 133.978 84.305, 135.132 88.569 C 135.901 91.409, 136.766 91.913, 146.733 95.319 C 152.656 97.344, 158.201 99, 159.057 99 C 161.716 99, 167.082 103.518, 165.867 104.733 C 164.846 105.754, 172.744 119.224, 182.734 133.500 C 184.658 136.250, 186.968 139.735, 187.866 141.244 C 188.765 142.753, 189.994 143.990, 190.598 143.994 C 192.239 144.003, 192.724 126.865, 192.982 59.750 L 193.211 -0 96.605 -0 L 0 0 0 51 M 0.464 51.500 C 0.464 79.550, 0.592 91.169, 0.749 77.320 C 0.906 63.471, 0.906 40.521, 0.749 26.320 C 0.593 12.119, 0.465 23.450, 0.464 51.500 M 58 91.939 C 53.875 94.641, 49.304 97.785, 47.842 98.926 C 46.380 100.067, 44.805 101.017, 44.342 101.038 C 42.949 101.100, 35.402 107.969, 36.709 107.985 C 38.737 108.010, 66.281 89.939, 66.790 88.250 C 67.424 86.148, 65.803 86.828, 58 91.939 M 43 91.660 C 41.292 92.232, 30.383 97.274, 24.693 100.122 C 20.758 102.091, 20.398 102.348, 15.681 106.532 C 14.130 107.907, 12.373 108.731, 11.776 108.362 C 11.129 107.961, 10.979 108.156, 11.405 108.845 C 11.797 109.480, 13.818 110, 15.896 110 C 19.023 110, 21.059 108.909, 27.707 103.671 C 32.125 100.191, 37.823 96.122, 40.370 94.629 C 42.916 93.137, 45 91.710, 45 91.458 C 45 91.206, 44.888 91.036, 44.750 91.079 C 44.612 91.122, 43.825 91.384, 43 91.660 M 57.467 99.097 C 53.717 101.901, 49.715 104.612, 48.574 105.123 C 45.827 106.353, 54.019 105.466, 59.298 103.962 C 62.973 102.914, 63.605 102.120, 65.434 96.250 C 66.468 92.930, 65.030 93.444, 57.467 99.097 M 53.985 118.731 C 51.691 121.124, 51.669 121.234, 53.694 120.157 C 55.936 118.964, 57.490 117.156, 56.835 116.502 C 56.635 116.301, 55.352 117.304, 53.985 118.731 M 39.259 118.409 C 28.072 119.495, 28.001 119.518, 24.259 123.366 L 20.500 127.233 26.075 126.628 C 37.244 125.417, 46.145 122.844, 49.391 119.889 C 51.101 118.332, 52.050 117.117, 51.500 117.188 C 50.950 117.259, 45.442 117.808, 39.259 118.409 M 1 124.212 L 1 129.425 6 124.500 C 8.750 121.791, 11 119.446, 11 119.288 C 11 119.129, 8.750 119, 6 119 L 1 119 1 124.212 M 22.459 121.067 C 22.096 121.653, 22.014 122.348, 22.276 122.610 C 22.538 122.872, 23.019 122.392, 23.345 121.543 C 24.021 119.781, 23.445 119.471, 22.459 121.067 M 24.500 129.565 L 17.500 130.893 24.420 130.401 C 28.225 130.131, 32.050 129.494, 32.920 128.985 C 35.038 127.746, 33.547 127.849, 24.500 129.565 M 27.500 137.025 C 18.414 138.003, 9.086 140.486, 7.124 142.447 C 5.721 143.851, 6.720 143.992, 17.536 143.915 L 29.500 143.831 32.866 139.915 C 34.717 137.762, 35.842 136.061, 35.366 136.136 C 34.890 136.210, 31.350 136.611, 27.500 137.025 M 143 141.500 C 143 143.728, 143.408 143.997, 146.750 143.968 L 150.500 143.937 147.694 141.468 C 144.144 138.345, 143 138.353, 143 141.500" stroke="none" fill="black" fill-rule="evenodd"/>
</svg>