<svg xmlns="http://www.w3.org/2000/svg" width="192" height="144" viewBox="0 0 192 144" version="1.1">
	<path d="M 91.562 71.932 C 89.399 74.322, 88.628 83.710, 90.178 88.790 C 91.082 91.752, 90.775 92.753, 87.091 98.850 C 82.098 107.113, 81.749 111.360, 85.678 116.029 C 87.151 117.780, 88.406 120.343, 88.466 121.726 C 88.677 126.533, 98.312 131.540, 100.510 127.984 C 100.856 127.425, 101.557 127.226, 102.069 127.543 C 102.581 127.859, 103 127.390, 103 126.500 C 103 125.610, 103.418 125.140, 103.928 125.456 C 104.438 125.771, 105.134 125.153, 105.474 124.083 C 105.900 122.740, 106.894 122.193, 108.677 122.318 C 110.493 122.446, 111.349 121.956, 111.554 120.672 C 111.964 118.105, 109.160 115.145, 106.884 115.741 C 105.735 116.041, 104.970 115.700, 104.923 114.867 C 104.881 114.115, 104.683 112.600, 104.482 111.500 C 103.190 104.429, 102.831 102.724, 102.403 101.607 C 102.139 100.919, 103.070 99.834, 104.472 99.195 C 106.900 98.088, 106.991 97.758, 106.374 92.267 C 105.569 85.092, 104.411 83.318, 101.972 85.525 C 100.350 86.993, 100.198 86.841, 99.751 83.301 C 99.424 80.708, 99.774 78.922, 100.853 77.682 C 102.267 76.055, 102.276 75.581, 100.936 73.182 C 98.982 69.685, 94.175 69.044, 91.562 71.932" stroke="none" fill="black" fill-rule="evenodd"/>
</svg>