<svg xmlns="http://www.w3.org/2000/svg" width="192" height="144" viewBox="0 0 192 144" version="1.1">
	<path d="M 165.820 2.148 C 165.474 4.472, 163.943 5.582, 159.941 6.412 C 152.879 7.876, 147.141 14.956, 147.048 22.320 C 147.005 25.720, 147.247 26.104, 149.250 25.820 C 150.975 25.574, 151.758 26.199, 152.605 28.500 C 153.537 31.031, 154.175 31.455, 156.682 31.209 C 160.638 30.822, 165 32.566, 165 34.534 C 165 35.405, 165.376 35.886, 165.835 35.602 C 166.294 35.318, 168.357 36.867, 170.419 39.043 C 172.481 41.219, 174.581 43, 175.084 43 C 175.588 43, 176 44.575, 176 46.500 C 176 48.425, 175.550 50, 175 50 C 174.450 50, 174 50.450, 174 51 C 174 51.550, 174.737 52, 175.639 52 C 177.043 52, 177.197 52.895, 176.711 58.249 L 176.144 64.499 178.822 61.299 C 181.078 58.603, 181.697 58.321, 182.750 59.508 C 183.438 60.282, 184.016 62.172, 184.035 63.708 L 184.071 66.500 185.500 64 C 186.551 62.162, 186.939 61.951, 186.965 63.202 C 186.995 64.648, 187.377 64.555, 189.500 62.588 L 192 60.271 192 30.135 L 192 0 179.070 0 C 166.608 0, 166.128 0.078, 165.820 2.148 M 61.334 69.573 C 61.002 70.438, 61.037 73.925, 61.412 77.323 C 62.802 89.926, 62.867 92.456, 61.832 93.702 C 61.224 94.435, 61.053 96.471, 61.432 98.489 C 61.838 100.651, 61.696 102, 61.064 102 C 59.077 102, 58.856 106.854, 60.565 112.947 C 63.041 121.773, 67.156 124.754, 92 135.723 C 94.475 136.816, 100.775 138.734, 106 139.986 C 111.225 141.237, 115.927 142.653, 116.450 143.131 C 116.973 143.609, 134.185 144, 154.700 144 L 192 144 192 108.889 L 192 73.777 188.250 74.466 C 186.188 74.844, 182.475 76.430, 180 77.989 C 177.525 79.548, 173.195 81.497, 170.378 82.320 C 163.351 84.373, 159.571 86.463, 156.978 89.730 L 154.779 92.500 153.140 90.056 C 152.238 88.712, 151.050 87.249, 150.500 86.804 C 149.950 86.360, 146.912 83.917, 143.750 81.376 C 140.588 78.834, 138 76.124, 138 75.353 C 138 74.581, 136.641 73.678, 134.979 73.346 C 133.318 73.014, 131.716 72.350, 131.420 71.871 C 130.321 70.092, 129.200 71.192, 123.913 79.234 C 120.936 83.763, 115.943 90.175, 112.819 93.484 C 107.320 99.306, 107.089 99.436, 105.629 97.500 C 104.799 96.400, 103.837 94.375, 103.491 93 C 103.145 91.625, 101.999 88.700, 100.945 86.500 C 99.891 84.300, 98.223 80.250, 97.239 77.500 C 95.749 73.338, 94.991 72.447, 92.717 72.183 C 88.965 71.747, 87.969 74.752, 89.680 81.347 C 91.215 87.265, 91.292 88.991, 90.103 90.867 C 89.412 91.958, 87.948 91.482, 82.868 88.515 C 79.366 86.469, 76.282 84.586, 76.015 84.329 C 75.748 84.073, 76.648 82.988, 78.015 81.919 C 80.447 80.017, 80.458 79.943, 78.559 78.487 C 77.491 77.669, 74.679 77, 72.309 77 C 68.240 77, 68 76.841, 68 74.155 C 68 69.600, 62.717 65.969, 61.334 69.573 M 130.500 114 C 130.160 114.550, 130.359 115, 130.941 115 C 131.523 115, 132 114.550, 132 114 C 132 113.450, 131.802 113, 131.559 113 C 131.316 113, 130.840 113.450, 130.500 114" stroke="none" fill="black" fill-rule="evenodd"/>
</svg>