<svg xmlns="http://www.w3.org/2000/svg" width="192" height="144" viewBox="0 0 192 144" version="1.1">
	<path d="M 0 61 C 0 94.550, 0.350 122, 0.779 122 C 1.207 122, 5.820 124.545, 11.029 127.655 C 16.238 130.765, 23.425 134.885, 27 136.811 C 30.575 138.736, 34.694 141.142, 36.154 142.156 C 38.677 143.909, 42.589 144, 115.247 144 L 191.685 144 192.340 126.750 C 192.699 117.263, 192.995 84.862, 192.997 54.750 L 193 0 96.500 0 L 0 0 0 61 M 0.470 61.500 C 0.470 95.050, 0.596 108.630, 0.750 91.678 C 0.903 74.726, 0.903 47.276, 0.749 30.678 C 0.595 14.080, 0.470 27.950, 0.470 61.500 M 89.728 32.411 C 86.554 34.216, 82.954 36.602, 81.728 37.713 C 80.364 38.950, 77.990 39.776, 75.608 39.842 C 73.468 39.901, 71.491 40.176, 71.214 40.453 C 70.937 40.730, 70.494 43.209, 70.230 45.962 C 69.555 52.986, 71.558 55.895, 77.018 55.819 C 80.471 55.772, 81.298 55.325, 82.602 52.803 C 84.319 49.482, 87.577 47.905, 96.835 45.913 C 103.910 44.390, 105.582 42.661, 104 38.500 C 102.594 34.801, 102.711 34.331, 105.250 33.476 C 107.440 32.738, 107.429 32.707, 104.823 32.300 C 103.351 32.070, 101.608 31.233, 100.951 30.441 C 99.140 28.259, 96.091 28.794, 89.728 32.411" stroke="none" fill="black" fill-rule="evenodd"/>
</svg>