<svg xmlns="http://www.w3.org/2000/svg" width="192" height="144" viewBox="0 0 192 144" version="1.1">
	<path d="M -0 72.005 L -0 144.010 96.250 143.755 L 192.500 143.500 192.757 71.750 L 193.013 0 96.507 0 L 0 0 -0 72.005 M 0.474 72.500 C 0.474 112.100, 0.598 128.154, 0.750 108.176 C 0.901 88.198, 0.901 55.798, 0.750 36.176 C 0.598 16.554, 0.474 32.900, 0.474 72.500 M 91.635 36.073 C 91.278 37.860, 90.089 39.950, 88.993 40.717 C 87.897 41.485, 86.518 44.028, 85.929 46.367 C 85.098 49.668, 84.081 51.040, 81.394 52.487 C 79.488 53.513, 76.199 56.230, 74.085 58.524 C 70.951 61.924, 70.229 63.463, 70.183 66.847 C 70.124 71.135, 70.811 71.707, 73.982 70.010 C 75.290 69.310, 77.394 69.509, 81.166 70.689 C 87.588 72.700, 87.655 72.745, 86.261 74.139 C 85.654 74.746, 85.392 75.858, 85.680 76.609 C 85.969 77.360, 85.670 79.443, 85.018 81.237 C 84.365 83.032, 83.603 87.650, 83.323 91.500 C 82.780 98.987, 81.378 102.085, 74.948 110 C 70.567 115.393, 70.334 118.902, 74.158 121.910 C 75.619 123.059, 77.477 124, 78.285 124 C 79.094 124, 80.315 124.675, 81 125.500 C 81.760 126.415, 83.951 127, 86.622 127 L 91 127 91 131 C 91 134.293, 91.343 135, 92.941 135 C 95.665 135, 96.456 133.220, 94.967 130.439 C 93.942 128.522, 93.942 127.774, 94.972 126.534 C 95.672 125.690, 96.834 125, 97.555 125 C 99.464 125, 100.380 128.837, 98.897 130.624 C 97.864 131.869, 97.895 132.324, 99.064 133.075 C 102.084 135.015, 103.517 133.670, 103.164 129.228 C 102.910 126.033, 103.185 125, 104.289 125 C 106.977 125, 107.051 119.399, 104.479 110.523 C 100.730 97.588, 100.351 92.649, 102.908 90.092 C 105.298 87.702, 105.536 85.270, 103.762 81.376 C 102.783 79.228, 102.781 78.573, 103.754 78.249 C 104.532 77.989, 104.688 77.226, 104.179 76.169 C 103.031 73.790, 103.506 69.923, 105.065 68.960 C 105.795 68.509, 107.243 68.595, 108.282 69.151 C 109.321 69.707, 110.422 69.911, 110.729 69.605 C 111.035 69.298, 110.547 68.763, 109.643 68.417 C 105.586 66.860, 110.081 64.636, 119.772 63.406 C 122.672 63.038, 125.305 62.316, 125.623 61.801 C 125.941 61.287, 125.368 61.009, 124.350 61.183 C 121.379 61.692, 122.173 58.684, 125.421 57.127 L 128.341 55.727 124.921 52.836 C 119.884 48.578, 116.903 47.189, 111.179 46.429 C 106.946 45.868, 105.603 45.168, 103.523 42.442 C 102.136 40.623, 99.989 38.841, 98.751 38.481 C 97.513 38.122, 95.552 36.702, 94.393 35.326 L 92.285 32.825 91.635 36.073 M 115.559 68.532 C 114.491 69.339, 114.099 70, 114.686 70 C 115.274 70, 116.315 69.325, 117 68.500 C 118.557 66.624, 118.067 66.634, 115.559 68.532 M 101 87 C 101 88.867, 101.267 89.133, 102.200 88.200 C 103.133 87.267, 103.133 86.733, 102.200 85.800 C 101.267 84.867, 101 85.133, 101 87" stroke="none" fill="black" fill-rule="evenodd"/>
</svg>