<svg xmlns="http://www.w3.org/2000/svg" width="192" height="144" viewBox="0 0 192 144" version="1.1">
	<path d="M 0 72 L 0 144 33.884 144 L 67.768 144 65.423 138.196 C 60.246 125.379, 55.906 102.585, 54.438 80.500 C 53.213 62.066, 56.449 36.991, 63.122 13.230 C 65.380 5.186, 65.792 2.454, 64.906 1.387 C 63.969 0.257, 57.840 0, 31.878 0 L 0 0 0 72 M 114 1.331 C 115.375 1.974, 117.625 3.263, 119 4.195 C 120.488 5.203, 134.854 8.544, 154.500 12.449 C 172.650 16.056, 188.512 19.240, 189.750 19.523 C 191.968 20.031, 192 19.895, 192 10.019 L 192 0 151.750 0.081 C 120.233 0.145, 112.042 0.416, 114 1.331 M 107.639 17.323 C 106.875 19.150, 104.656 25.563, 102.708 31.573 C 94.273 57.591, 93.367 63.956, 93.653 95.216 C 93.819 113.497, 95.290 123.315, 99.799 136.247 L 102.500 143.995 147.250 143.997 L 192 144 192 86.500 C 192 41.207, 191.735 28.984, 190.750 28.923 C 190.063 28.881, 188.825 28.700, 188 28.521 C 187.175 28.342, 181.775 27.224, 176 26.037 C 170.225 24.850, 155.405 21.656, 143.067 18.939 C 130.466 16.165, 118.090 14, 114.830 14 C 109.202 14, 108.985 14.100, 107.639 17.323" stroke="none" fill="black" fill-rule="evenodd"/>
</svg>