<svg xmlns="http://www.w3.org/2000/svg" width="192" height="144" viewBox="0 0 192 144" version="1.1">
	<path d="M 135.802 5.949 C 131.376 6.810, 129 8.593, 129 11.055 C 129 12.928, 127.995 13.407, 121.913 14.427 C 117.840 15.111, 110.692 20.761, 108.474 25.051 C 106.282 29.289, 106.556 36.288, 109 38.500 C 111.464 40.730, 111.550 42.588, 109.250 43.895 C 107.738 44.754, 107.680 45.182, 108.819 47.042 C 109.545 48.226, 109.936 49.397, 109.689 49.645 C 109.441 49.892, 109.795 51.986, 110.474 54.297 C 111.608 58.152, 112.033 58.541, 115.605 59 C 119.242 59.467, 119.520 59.737, 119.801 63.088 C 120.061 66.189, 119.552 67.172, 116.048 70.338 C 113.818 72.352, 111.577 74, 111.068 74 C 109.802 74, 104.434 82.092, 103.719 85.079 C 102.021 92.168, 101.107 94.857, 99.184 98.421 C 97.375 101.774, 96.973 102.064, 96.407 100.421 C 96.044 99.365, 94.719 96.250, 93.463 93.500 C 92.207 90.750, 91.048 86.250, 90.886 83.500 L 90.593 78.500 97.922 78.858 C 107.401 79.320, 106.693 77.386, 97.035 76.435 C 91.585 75.898, 89.643 75.249, 87.884 73.377 C 85.324 70.652, 80.562 70.218, 77.414 72.422 C 76.297 73.205, 73.835 74.013, 71.942 74.219 L 68.500 74.593 71.250 75.772 C 72.956 76.503, 74 77.719, 74 78.975 C 74 80.089, 74.638 81, 75.418 81 C 77.366 81, 80.678 86.657, 81.565 91.500 C 81.969 93.700, 83.133 97.936, 84.152 100.914 C 85.171 103.892, 85.812 106.521, 85.577 106.757 C 85.341 106.993, 84.102 105.968, 82.824 104.481 C 81.546 102.993, 77.958 99.810, 74.851 97.407 C 71.745 95.005, 66.120 88.981, 62.351 84.020 C 58.583 79.060, 54.803 75.001, 53.950 75.001 C 53.098 75, 51.830 74.438, 51.133 73.750 C 50.117 72.748, 49.581 72.885, 48.433 74.441 C 46.254 77.393, 46.623 78.662, 51.500 85 C 53.975 88.216, 56 91.542, 56 92.390 C 56 93.238, 56.630 95.410, 57.399 97.216 C 58.169 99.022, 59.577 102.391, 60.529 104.702 C 62.206 108.772, 62.529 108.987, 70.842 111.578 C 77.796 113.746, 80.190 115.039, 83.462 118.399 C 85.683 120.679, 89.862 124.073, 92.750 125.941 C 98.355 129.566, 98.627 130.024, 96.862 132.850 C 96.143 134.001, 95.981 136.388, 96.423 139.336 L 97.123 144 122.561 144 C 151.021 144, 151.159 143.959, 144.660 137.460 C 141.713 134.513, 141.183 133.142, 140.159 125.810 C 139.520 121.239, 138.998 115.160, 138.999 112.300 C 139 108.397, 138.563 106.848, 137.250 106.090 C 135.990 105.364, 136.970 105.249, 140.750 105.680 C 144.362 106.092, 146 105.923, 146 105.139 C 146 104.513, 146.900 104, 148 104 C 149.100 104, 150 103.550, 150 103 C 150 102.450, 151.053 102, 152.339 102 C 153.912 102, 155.102 101.098, 155.971 99.250 C 156.909 97.251, 157.404 96.910, 157.781 98 C 158.066 98.825, 158.731 99.781, 159.257 100.125 C 159.866 100.523, 159.856 102.435, 159.229 105.375 C 158.220 110.106, 158.633 110.958, 160.862 108.750 C 161.876 107.745, 161.988 108.527, 161.433 112.750 C 160.954 116.391, 161.088 118, 161.871 118 C 162.493 118, 163 119.559, 163 121.469 C 163 124.248, 163.320 124.814, 164.612 124.318 C 165.965 123.800, 166.113 124.208, 165.533 126.850 C 164.866 129.885, 166.112 131.247, 167.500 129 C 168.618 127.191, 170.148 127.957, 169.500 130 C 168.633 132.731, 169.804 136.012, 171.424 135.391 C 172.152 135.112, 173.255 133.897, 173.875 132.692 C 175.103 130.309, 175.086 130.585, 173.423 140.250 L 172.777 144 182.389 144 L 192 144 192 110.520 L 192 77.041 188.250 75.126 C 181.124 71.487, 172.370 64.267, 167.943 58.378 C 165.499 55.127, 163.181 52.249, 162.791 51.983 C 162.401 51.718, 160.979 52.995, 159.631 54.822 C 157.202 58.114, 157.174 58.123, 156.430 55.822 C 156.017 54.545, 155.720 49.225, 155.769 44 C 155.873 32.898, 154.120 25.684, 150.084 20.606 C 148.121 18.135, 147.412 16.297, 147.747 14.544 C 148.112 12.633, 147.383 11.183, 144.714 8.514 C 142.781 6.581, 140.817 5.052, 140.350 5.115 C 139.882 5.178, 137.836 5.554, 135.802 5.949 M 152.727 53.270 C 152.082 54.951, 152.961 59.858, 154.024 60.515 C 154.456 60.782, 154.566 59.088, 154.267 56.750 C 153.643 51.855, 153.443 51.404, 152.727 53.270 M 134.582 116.052 C 134.047 119.302, 134.262 121.589, 135.335 124.052 L 136.837 127.500 136.861 123.500 C 136.874 121.300, 136.535 117.700, 136.108 115.500 L 135.332 111.500 134.582 116.052" stroke="none" fill="black" fill-rule="evenodd"/>
</svg>