<svg xmlns="http://www.w3.org/2000/svg" width="192" height="144" viewBox="0 0 192 144" version="1.1">
	<path d="M 0 72 L 0 144 6.975 144 L 13.950 144 12.933 141.324 C 12.374 139.853, 12.016 133.665, 12.139 127.574 C 12.359 116.671, 12.298 116.343, 8.227 106.345 C 2.589 92.501, 1.645 86.116, 2.275 66.124 C 2.814 49.015, 4.258 41.499, 9.704 27.440 C 11.419 23.010, 11.489 22.116, 10.259 20.264 C 9.002 18.370, 9.068 18.034, 10.887 17.061 C 12.524 16.184, 14.682 16.679, 21.996 19.606 C 26.989 21.604, 32.745 24.375, 34.787 25.764 C 38.119 28.029, 59.774 36.692, 72.331 40.782 C 76.496 42.139, 77.286 42.159, 78.066 40.928 C 79.822 38.153, 79.073 36.175, 76.011 35.503 C 74.368 35.142, 72.811 34.503, 72.551 34.083 C 71.952 33.113, 87.595 16.811, 91.215 14.633 C 92.708 13.735, 94.779 13, 95.818 13 C 99.896 13, 111.569 18.037, 114.188 20.927 C 116.760 23.765, 118.983 29.482, 118.994 33.292 C 119.001 35.546, 116.200 38.537, 113.224 39.452 C 111.972 39.837, 111.072 40.706, 111.224 41.384 C 111.376 42.062, 109.814 44.098, 107.754 45.908 L 104.008 49.200 108.754 51.562 C 115.010 54.675, 138.097 60.960, 143.914 61.133 C 146.436 61.208, 149.963 61.861, 151.750 62.583 C 153.537 63.306, 155 63.626, 155 63.294 C 155 62.962, 155.787 63.392, 156.750 64.250 C 157.712 65.108, 165.250 67.238, 173.500 68.984 C 181.750 70.729, 189.287 72.377, 190.250 72.646 C 191.529 73.003, 192 74.171, 192 76.986 L 192 80.838 183.750 78.285 C 179.213 76.881, 171.103 74.499, 165.730 72.991 L 155.959 70.249 153.962 73.054 C 151.135 77.024, 146.992 79.305, 135.153 83.411 C 124.411 87.137, 120.222 87.724, 116.934 85.965 C 115.139 85.004, 115 85.297, 115 90.036 C 115 93.242, 115.558 95.701, 116.500 96.643 C 117.325 97.468, 118 99.252, 118 100.607 C 118 103.250, 119.345 105.646, 125.239 113.500 C 129.470 119.138, 129.908 121, 127 121 C 124.650 121, 124.623 121.469, 126.500 130 C 127.286 133.575, 127.946 138.194, 127.965 140.264 L 128 144.028 160.250 143.764 L 192.500 143.500 192.757 71.750 L 193.013 0 96.507 0 L 0 0 0 72 M 0.474 72.500 C 0.474 112.100, 0.598 128.154, 0.750 108.176 C 0.901 88.198, 0.901 55.798, 0.750 36.176 C 0.598 16.554, 0.474 32.900, 0.474 72.500 M 28.859 35.750 C 18.071 60.501, 16.161 82.530, 22.898 104.500 C 26.608 116.598, 26.664 118.249, 23.601 125.176 C 21.241 130.513, 20.567 134.330, 20.855 140.750 L 21 144 33.661 144 C 46.304 144, 46.325 143.996, 48.911 141.153 C 50.335 139.588, 55.032 135.891, 59.349 132.939 C 67.813 127.151, 81.569 113.256, 88.640 103.353 C 92.461 98.001, 92.901 96.869, 92.039 94.603 C 91.495 93.171, 90.701 92, 90.274 92 C 89.848 92, 87.587 90.252, 85.250 88.116 C 80.127 83.433, 79.825 80.655, 83.724 74.088 C 85.222 71.565, 86.545 68.375, 86.665 67 C 86.785 65.625, 87.184 63.043, 87.553 61.263 C 87.922 59.482, 87.926 56.843, 87.564 55.397 C 86.997 53.141, 86.505 52.849, 84.082 53.334 C 81.647 53.821, 81.010 53.434, 79.438 50.516 C 78.437 48.655, 76.916 46.908, 76.058 46.632 C 74.276 46.060, 54.381 38.610, 42.500 34.067 C 38.100 32.384, 33.697 31.006, 32.714 31.004 C 31.540 31.001, 30.220 32.626, 28.859 35.750 M 114 60.025 C 114 60.677, 115.076 63.352, 116.391 65.970 C 117.706 68.588, 119.092 72.141, 119.470 73.865 C 119.849 75.589, 120.362 77, 120.610 77 C 120.858 77, 125.796 75.813, 131.584 74.363 C 141.762 71.813, 142.097 71.641, 141.803 69.127 C 141.524 66.738, 140.614 66.268, 130.500 63.291 C 115.689 58.932, 114 58.598, 114 60.025 M 89.694 79.639 C 88.895 80.438, 89.798 82, 91.059 82 C 91.577 82, 92 81.325, 92 80.500 C 92 78.954, 90.820 78.513, 89.694 79.639" stroke="none" fill="black" fill-rule="evenodd"/>
</svg>