<svg xmlns="http://www.w3.org/2000/svg" width="192" height="144" viewBox="0 0 192 144" version="1.1">
	<path d="M 67.004 1.750 C 67.008 3.930, 70.351 9.586, 73.852 13.338 L 76.500 16.176 71.500 15.452 C 68.750 15.053, 65.379 14.309, 64.009 13.797 C 61.942 13.025, 61.176 13.283, 59.509 15.314 C 58.404 16.660, 56.066 18.487, 54.313 19.374 C 49.886 21.613, 49.454 22.782, 52.241 24.975 C 55.474 27.518, 57.708 36.530, 56.187 40.895 C 55.300 43.437, 55.367 44, 56.552 44 C 57.929 44, 58.719 49.612, 58.170 55.500 C 58.068 56.600, 57.497 62.225, 56.903 68 C 55.034 86.143, 54.159 102.710, 53.758 127.500 L 53.500 143.500 56.195 143.811 C 58.603 144.089, 59.011 143.672, 60.028 139.895 C 60.898 136.665, 60.876 134.630, 59.937 131.276 C 58.949 127.748, 58.968 125.804, 60.030 121.374 C 61.060 117.083, 61.094 115.150, 60.186 112.639 C 59.390 110.438, 59.322 108.365, 59.969 106.107 C 61.171 101.917, 61.565 94.723, 60.671 93.277 C 60.296 92.670, 60.664 89.259, 61.490 85.697 C 62.406 81.748, 62.746 77.423, 62.360 74.611 C 61.585 68.958, 62.770 68.738, 65.763 73.978 C 67.008 76.158, 73.237 83.596, 79.605 90.507 C 91.988 103.947, 91.866 103.653, 86.859 108 C 83.973 110.505, 70.887 135.617, 69.419 141.466 L 68.783 144 102.772 144 L 136.761 144 136.683 134.750 C 136.640 129.662, 137.146 123.645, 137.807 121.377 C 138.882 117.688, 139.403 117.190, 142.754 116.646 C 153.681 114.873, 170.916 99.949, 170.975 92.210 C 171.014 87.137, 167.452 81.087, 163.441 79.411 C 161.548 78.620, 160 77.566, 160 77.069 C 160 76.161, 174.330 71, 176.849 71 C 177.587 71, 179.555 71.971, 181.221 73.157 C 182.887 74.344, 185.994 75.633, 188.125 76.023 L 192 76.731 192 72.834 C 192 70.293, 191.478 68.737, 190.500 68.362 C 189.675 68.045, 189 67.398, 189 66.924 C 189 66.451, 189.675 66.322, 190.500 66.638 C 191.713 67.104, 192 66.236, 192 62.107 C 192 58.688, 191.587 57, 190.750 56.999 C 189.177 56.998, 173.914 59.728, 168.236 61.025 C 165.890 61.561, 162.667 62, 161.073 62 C 158.304 62, 158.222 61.873, 159.245 59.162 C 159.934 57.337, 161.390 55.999, 163.327 55.412 C 167.632 54.108, 170.550 49.895, 169.067 47.125 C 167.898 44.941, 165 44.175, 165 46.051 C 165 47.362, 158.244 50.269, 156.992 49.495 C 156.487 49.183, 155.112 49.888, 153.938 51.062 C 152.378 52.622, 150.956 53.074, 148.665 52.738 C 146.940 52.484, 144.801 52.732, 143.911 53.288 C 142.677 54.058, 141.173 53.527, 137.565 51.045 C 133.960 48.565, 131.130 47.563, 125.656 46.832 C 117.352 45.722, 115.164 46.466, 110.243 52.070 C 107.762 54.896, 107.194 56.356, 107.428 59.305 C 107.688 62.580, 107.460 63, 105.420 63 C 104.154 63, 102.840 62.550, 102.500 62 C 101.480 60.350, 100 60.870, 100 62.878 C 100 63.910, 99.369 65.279, 98.598 65.919 C 97.827 66.558, 96.919 68.189, 96.579 69.541 C 96.240 70.893, 95.532 72, 95.007 72 C 94.481 72, 93.394 73.270, 92.592 74.823 C 91.235 77.446, 91.318 77.960, 93.760 82.073 C 96.124 86.056, 95.318 85.497, 85.726 76.500 C 76.217 67.581, 75.057 66.122, 74.993 63 C 74.953 61.075, 74.102 55.579, 73.100 50.787 C 71.966 45.365, 71.653 41.949, 72.271 41.743 C 72.852 41.549, 72.587 40.101, 71.632 38.256 C 69.527 34.184, 69.576 33.344, 71.957 32.721 C 73.491 32.320, 74.158 32.949, 75.043 35.630 C 76.758 40.827, 80.862 45.049, 86.715 47.638 C 90.836 49.460, 92.003 50.473, 92.015 52.237 C 92.041 56.077, 93.319 57.209, 96.333 56.064 C 98.367 55.290, 99 54.368, 99 52.181 C 99 49.857, 99.952 48.667, 104.021 45.907 C 110.610 41.435, 113.407 35.921, 112.800 28.597 C 112.522 25.249, 111.521 22.136, 110.064 20.090 L 107.766 16.863 111.383 9.959 C 113.372 6.161, 115 2.367, 115 1.527 C 115 0.200, 111.856 0, 91 0 C 68.808 0, 67 0.132, 67.004 1.750 M 54.667 22.667 C 53.516 23.817, 53.938 25, 55.500 25 C 56.325 25, 57 24.325, 57 23.500 C 57 21.938, 55.817 21.516, 54.667 22.667 M 59.227 63.281 C 59.377 64.811, 59.939 66.082, 60.475 66.106 C 62.106 66.180, 62.113 64.529, 60.491 62.460 C 59.014 60.576, 58.965 60.607, 59.227 63.281 M 59.079 72.583 C 59.127 73.748, 59.364 73.985, 59.683 73.188 C 59.972 72.466, 59.936 71.603, 59.604 71.271 C 59.272 70.939, 59.036 71.529, 59.079 72.583 M 57.486 80.046 C 56.608 82.810, 58.648 85.162, 60.040 82.992 C 60.567 82.171, 60.886 80.862, 60.749 80.083 C 60.340 77.754, 58.221 77.730, 57.486 80.046 M 56 99 C 56 101, 56.500 102, 57.500 102 C 58.500 102, 59 101, 59 99 C 59 97, 58.500 96, 57.500 96 C 56.500 96, 56 97, 56 99 M 55 117.573 C 55 120.842, 58.141 120.563, 58.645 117.250 C 58.903 115.555, 58.496 115, 56.994 115 C 55.519 115, 55 115.669, 55 117.573 M 55 137.035 C 55 139.798, 55.186 139.971, 57.078 138.958 C 58.335 138.286, 58.927 137.252, 58.578 136.342 C 58.260 135.514, 58 134.648, 58 134.418 C 58 134.188, 57.325 134, 56.500 134 C 55.496 134, 55 135.004, 55 137.035" stroke="none" fill="black" fill-rule="evenodd"/>
</svg>