<svg xmlns="http://www.w3.org/2000/svg" width="192" height="144" viewBox="0 0 192 144" version="1.1">
	<path d="M -0 72.023 L -0 144.046 17.715 143.773 L 35.429 143.500 38.078 136.320 C 39.535 132.371, 41.971 127.019, 43.491 124.425 C 46.032 120.090, 46.191 119.218, 45.463 113.605 C 44.386 105.297, 44.821 94.782, 46.557 87.188 C 47.351 83.717, 48.456 74.267, 49.013 66.188 C 50.406 45.998, 51.621 39.823, 55.164 34.933 C 58.734 30.004, 58.235 27.414, 53.321 25.361 C 50.442 24.158, 50.045 23.651, 51.040 22.452 C 51.703 21.653, 53.021 21, 53.969 21 C 56.415 21, 62.120 18.003, 61.520 17.032 C 61.244 16.586, 59.843 15.926, 58.405 15.566 C 54.651 14.623, 51 12.014, 51 10.274 C 51 9.096, 51.770 8.922, 54.624 9.457 L 58.248 10.137 56.124 6.701 C 54.956 4.810, 54 2.530, 54 1.632 C 54 0.163, 51.304 0, 27 0 L 0 0 -0 72.023 M 58.700 1.269 C 59.140 1.967, 60.850 4.528, 62.500 6.960 C 65.284 11.063, 65.523 11.206, 65.813 8.941 C 65.986 7.598, 66.512 5.037, 66.983 3.250 L 67.839 -0 62.870 -0 C 59.101 -0, 58.094 0.307, 58.700 1.269 M 71.155 5.150 C 70.501 7.982, 70.145 10.478, 70.363 10.697 C 70.582 10.915, 72.792 9.723, 75.275 8.047 C 77.758 6.371, 80.291 5, 80.903 5 C 83.054 5, 79.578 9.026, 74.250 12.706 C 71.362 14.701, 69.233 16.566, 69.518 16.851 C 69.802 17.136, 72.615 17.884, 75.768 18.513 C 82.136 19.784, 83.661 21.922, 79.539 23.800 C 76.462 25.202, 76.099 29.256, 78.877 31.201 C 79.909 31.924, 82.384 34.467, 84.377 36.852 C 87.405 40.477, 87.999 41.954, 87.994 45.845 C 87.990 48.405, 87.281 51.850, 86.417 53.500 C 84.841 56.510, 84.875 60.551, 86.625 78.234 C 87.145 83.489, 87.352 83.882, 89.096 82.948 C 90.511 82.191, 91 80.834, 91 77.665 C 91 72.905, 92.320 71, 95.618 71 C 100.122 71, 101 71.976, 101 76.985 C 101 80.039, 101.548 82.210, 102.524 83.020 C 103.362 83.716, 104.285 84.049, 104.573 83.760 C 104.862 83.472, 105.551 77.572, 106.104 70.650 C 106.960 59.937, 106.864 57.085, 105.459 51.482 C 103.659 44.308, 104.011 41.257, 107.121 37.051 C 109.043 34.451, 109.067 34.097, 107.576 30.529 C 106.709 28.454, 106.003 23.998, 106.006 20.628 C 106.011 14.386, 107.525 6.997, 108.797 7.004 C 109.184 7.006, 109.500 10.944, 109.501 15.754 C 109.502 20.910, 110.065 25.834, 110.872 27.750 C 111.626 29.538, 112.358 31, 112.499 31 C 112.640 31, 114.371 30.325, 116.346 29.500 C 122.971 26.732, 131.304 28.047, 134.945 32.434 C 136.828 34.702, 137.387 34.436, 139.819 30.108 C 141.629 26.888, 141.757 26.121, 140.561 25.662 C 139.767 25.357, 138.328 23.904, 137.364 22.433 C 135.678 19.860, 135.686 19.703, 137.556 18.331 C 138.625 17.546, 140.287 17.109, 141.249 17.358 C 143.339 17.901, 143.730 17.373, 144.509 12.946 C 145.325 8.316, 145.632 8.297, 146.357 12.830 C 146.900 16.224, 147.275 16.670, 149.268 16.289 C 150.683 16.019, 152.213 16.577, 153.276 17.753 C 154.915 19.563, 154.877 19.767, 152.491 22.008 C 150.068 24.284, 149.940 24.300, 148.615 22.488 C 147.338 20.741, 147.194 20.849, 146.514 24.057 C 146.113 25.950, 144.458 30.017, 142.836 33.094 C 140.013 38.451, 139.931 38.962, 140.922 45.094 C 141.491 48.617, 142.430 58.025, 143.010 66 C 143.590 73.975, 144.765 83.650, 145.621 87.500 C 146.487 91.390, 147.250 99.954, 147.340 106.777 L 147.500 119.053 151.500 120.064 C 162.264 122.784, 170.413 129.764, 173.730 139.103 L 175.469 144 183.735 144 L 192 144 192 72 L 192 0 132.172 0 L 72.343 0 71.155 5.150 M 102.500 93 C 102.840 93.550, 103.316 94, 103.559 94 C 103.802 94, 104 93.550, 104 93 C 104 92.450, 103.523 92, 102.941 92 C 102.359 92, 102.160 92.450, 102.500 93 M 94.471 97.304 C 94.103 99.265, 92.997 101.597, 92.014 102.487 C 90.298 104.041, 90.300 104.390, 92.068 111.264 C 93.081 115.202, 93.724 118.609, 93.498 118.836 C 93.271 119.062, 91.887 116.604, 90.422 113.374 C 88.957 110.143, 87.581 107.306, 87.364 107.068 C 87.147 106.831, 85.402 108.157, 83.485 110.015 C 80.866 112.553, 79.975 114.276, 79.900 116.946 C 79.810 120.151, 79.726 120.254, 79.038 118 C 76.901 110.994, 75.691 129.299, 77.733 137.750 L 79.243 144 97.497 144 L 115.750 144 116.375 140.875 C 117.345 136.024, 117.112 128, 116 128 C 115.450 128, 115 126.706, 115 125.125 C 115 123.544, 114.700 120.752, 114.334 118.922 C 113.771 116.104, 113.552 115.893, 112.905 117.547 C 112.295 119.106, 112.126 118.859, 112.070 116.323 C 112.017 113.919, 111.096 112.400, 108.286 110.084 L 104.572 107.023 101.144 114.036 C 99.259 117.893, 97.575 120.908, 97.402 120.735 C 97.229 120.562, 98.151 116.972, 99.452 112.757 C 101.423 106.370, 101.590 104.905, 100.459 103.966 C 99.713 103.347, 98.575 101.189, 97.930 99.170 C 96.220 93.814, 95.226 93.278, 94.471 97.304" stroke="none" fill="black" fill-rule="evenodd"/>
</svg>