<svg xmlns="http://www.w3.org/2000/svg" width="192" height="144" viewBox="0 0 192 144" version="1.1">
	<path d="M 0 72.060 L 0 144.121 3.618 143.810 C 6.779 143.539, 7.430 143.010, 8.777 139.619 C 9.929 136.719, 10.043 135.298, 9.229 133.995 C 7.735 131.603, 8.149 129.851, 10.846 127.154 C 12.725 125.275, 13.093 123.954, 12.875 119.859 C 12.701 116.570, 13.058 114.582, 13.920 114.050 C 15.684 112.960, 19.453 101.651, 18.193 101.231 C 17.654 101.051, 17.424 100.096, 17.682 99.109 C 18.154 97.301, 31.250 89.957, 33.950 89.985 C 34.957 89.995, 35.081 89.681, 34.356 88.956 C 33.630 88.230, 31.250 88.241, 26.555 88.991 C 19.890 90.056, 16 89.691, 16 88 C 16 85.953, 11.875 85.953, 8.999 88 C 5.092 90.782, 5.077 88.742, 8.983 85.854 C 12.817 83.020, 16.262 77.777, 19.457 69.915 C 22.997 61.202, 22.847 60.463, 16.924 57.461 C 13.098 55.522, 12.104 54.580, 12.888 53.635 C 13.460 52.945, 13.832 51.058, 13.714 49.440 C 13.514 46.692, 13.735 46.500, 17.096 46.500 C 21.628 46.500, 23.861 44.722, 23.262 41.588 C 22.400 37.083, 25.843 28.127, 30.300 23.275 C 35.833 17.254, 39.137 16, 49.465 16 C 57.808 16, 58.079 15.924, 61.868 12.500 C 63.999 10.575, 66.198 9, 66.755 9 C 67.312 9, 68.760 11.444, 69.972 14.432 C 71.466 18.113, 73.289 20.611, 75.627 22.182 C 77.525 23.457, 80.463 26.731, 82.157 29.458 C 84.676 33.513, 85.379 35.971, 86.016 42.958 C 86.444 47.656, 87.570 53.673, 88.518 56.329 C 89.751 59.783, 89.935 61.465, 89.163 62.237 C 88.392 63.008, 87.671 62.972, 86.631 62.109 C 85.832 61.446, 84.981 61.262, 84.739 61.701 C 84.498 62.141, 84.884 69.250, 85.596 77.500 C 87.353 97.841, 87.377 97.048, 85.106 94.094 C 83.904 92.530, 82.678 91.910, 81.605 92.321 C 80.126 92.889, 80.164 93.164, 81.977 94.977 C 84.241 97.241, 84.374 97.861, 83.042 99.966 C 82.530 100.775, 82.494 101.897, 82.961 102.466 C 83.427 103.035, 84.458 105.750, 85.253 108.500 C 86.367 112.351, 87.211 113.576, 88.926 113.830 C 90.551 114.070, 90.974 114.611, 90.491 115.830 C 90.128 116.748, 89.575 119.021, 89.263 120.881 C 88.809 123.589, 89.131 124.590, 90.881 125.910 C 92.953 127.473, 92.986 127.721, 91.522 130.655 C 90.226 133.253, 90.168 134.575, 91.161 138.875 C 92.278 143.717, 92.519 144, 95.517 144 L 98.691 144 101.413 127.250 C 102.911 118.037, 104.609 107.644, 105.187 104.154 L 106.239 97.809 110.869 98.503 C 116.685 99.375, 119.002 100.596, 118.993 102.785 C 118.990 103.728, 116.965 113.001, 114.493 123.392 C 112.022 133.783, 110 142.675, 110 143.153 C 110 143.635, 128.359 143.906, 151.250 143.761 L 192.500 143.500 192.757 71.750 L 193.013 0 96.507 0 L 0 0 0 72.060 M 0.474 72.500 C 0.474 112.100, 0.598 128.154, 0.750 108.176 C 0.901 88.198, 0.901 55.798, 0.750 36.176 C 0.598 16.554, 0.474 32.900, 0.474 72.500 M 179 54 C 179 54.550, 179.477 55, 180.059 55 C 180.641 55, 180.840 54.550, 180.500 54 C 180.160 53.450, 179.684 53, 179.441 53 C 179.198 53, 179 53.450, 179 54 M 161.345 89.543 C 161.019 90.392, 161.004 91.337, 161.310 91.643 C 162.186 92.519, 164 91.034, 164 89.441 C 164 87.522, 162.092 87.596, 161.345 89.543" stroke="none" fill="black" fill-rule="evenodd"/>
</svg>