<svg xmlns="http://www.w3.org/2000/svg" width="192" height="144" viewBox="0 0 192 144" version="1.1">
	<path d="M 42.017 22.970 C 40.869 23.695, 41.660 24.388, 45.517 26.037 C 55.222 30.188, 60.803 33.243, 64.357 36.353 C 69.645 40.978, 76 49.989, 76 52.861 C 76 54.504, 77.467 56.755, 80.282 59.430 C 82.637 61.669, 86.870 66.435, 89.687 70.023 C 92.505 73.611, 97.666 79.304, 101.155 82.676 C 104.645 86.047, 108.594 90.256, 109.931 92.029 C 111.268 93.802, 113.845 95.873, 115.658 96.630 C 117.987 97.604, 119.547 99.309, 120.977 102.449 C 122.090 104.892, 123 107.535, 123 108.323 C 123 109.111, 123.631 110.279, 124.402 110.919 C 125.173 111.558, 126.085 113.201, 126.428 114.568 C 127.269 117.919, 132.469 126.471, 137.086 132.096 C 140.514 136.271, 140.784 137.026, 140.035 140.346 L 139.211 144 165.605 144 L 192 144 192 111 C 192 73.536, 192.949 76.960, 183.150 79.061 C 179.231 79.902, 176.569 79.780, 170.351 78.475 C 166.033 77.568, 158.900 76.583, 154.500 76.285 C 149.311 75.934, 145.867 75.191, 144.700 74.171 C 143.232 72.890, 142.347 72.808, 139.908 73.729 C 137.360 74.690, 135.744 74.435, 129.034 72.012 C 116.343 67.429, 114.212 66.173, 113.024 62.573 C 111.316 57.398, 106.824 53.781, 101.435 53.244 C 97.183 52.819, 96.173 52.141, 89.642 45.321 C 85.714 41.220, 81.816 36.121, 80.981 33.992 C 80.145 31.862, 78.345 28.925, 76.981 27.464 C 74.734 25.059, 73.981 24.854, 69 25.297 C 65.975 25.565, 60.575 25.209, 57 24.505 C 45.325 22.206, 43.520 22.021, 42.017 22.970" stroke="none" fill="black" fill-rule="evenodd"/>
</svg>