<svg xmlns="http://www.w3.org/2000/svg" width="192" height="144" viewBox="0 0 192 144" version="1.1">
	<path d="M 35 72 L 35 144 113.500 144 L 192 144 192 72 L 192 0 113.500 0 L 35 0 35 72 M 100.667 55.667 C 98.907 57.426, 100.179 60.948, 103.263 62.854 C 109.603 66.772, 111.422 69.843, 111.285 76.396 C 111.173 81.700, 110.813 82.653, 107.778 85.689 L 104.395 89.072 87.520 86.547 C 78.238 85.158, 70.444 84.223, 70.199 84.468 C 69.038 85.629, 71.210 88, 73.433 88 C 74.911 88, 76.369 88.821, 77.007 90.013 C 77.894 91.671, 78.444 91.833, 80.124 90.934 C 81.793 90.041, 82.872 90.332, 86.051 92.535 C 88.189 94.017, 90.207 96.077, 90.536 97.114 C 91.049 98.731, 93 99.865, 93 98.547 C 93 96.774, 90.402 93.094, 88.174 91.712 C 84.918 89.692, 85.962 89.611, 96.678 91.051 C 106.616 92.387, 108 92.815, 108 94.548 C 108 96.089, 110.319 96.822, 116.500 97.233 C 120.217 97.481, 120.522 97.730, 120.813 100.750 C 121.007 102.763, 121.673 104, 122.563 104 C 123.354 104, 124 103.460, 124 102.800 C 124 101.867, 124.267 101.867, 125.200 102.800 C 127.149 104.749, 129 104.177, 129 101.625 C 129 97.990, 133.190 97.707, 144.101 100.607 C 156.698 103.954, 159.634 104.402, 160.441 103.096 C 160.813 102.493, 162.216 102, 163.559 102 C 165.389 102, 166.030 101.436, 166.118 99.750 C 166.329 95.762, 165.927 94.860, 162.340 91.274 C 158.359 87.293, 154.750 86.251, 147.500 86.990 C 144.492 87.297, 141.504 87.004, 140 86.254 C 138.625 85.569, 135.813 84.354, 133.750 83.555 C 130.438 82.272, 130 81.705, 130 78.706 C 130 76.572, 129.252 74.633, 127.986 73.487 C 126.766 72.384, 126.195 70.960, 126.539 69.878 C 126.954 68.571, 126.027 67.411, 123.082 65.552 C 120.397 63.857, 119.250 62.513, 119.634 61.512 C 120.123 60.236, 120.627 60.310, 123.009 62.006 C 126.919 64.790, 127.489 64.496, 124.989 60.985 C 121.191 55.650, 113.699 53.248, 111 56.500 C 110.315 57.325, 108.896 58, 107.846 58 C 106.796 58, 105.678 57.325, 105.362 56.500 C 104.775 54.972, 101.876 54.458, 100.667 55.667 M 114 82.186 C 114 82.838, 113.022 84.413, 111.826 85.686 C 109.013 88.680, 110.658 88.664, 114.411 85.661 C 116.117 84.296, 117.024 82.848, 116.602 82.166 C 115.666 80.651, 114 80.663, 114 82.186 M 129 85.378 C 129 85.585, 129.787 86.373, 130.750 87.128 C 132.336 88.371, 132.371 88.336, 131.128 86.750 C 129.821 85.084, 129 84.555, 129 85.378 M 135.500 87 C 135.840 87.550, 136.879 87.993, 137.809 87.985 C 139.266 87.971, 139.293 87.835, 138 87 C 136.042 85.734, 134.718 85.734, 135.500 87" stroke="none" fill="black" fill-rule="evenodd"/>
</svg>