<svg xmlns="http://www.w3.org/2000/svg" width="192" height="144" viewBox="0 0 192 144" version="1.1">
	<path d="M 78.230 26.039 C 76.830 26.601, 75.726 28.118, 75.351 29.996 C 75.016 31.671, 74.350 33.284, 73.871 33.580 C 73.392 33.876, 73 35.857, 73 37.982 C 73 42.080, 76.879 48, 79.564 48 C 80.673 48, 80.733 48.550, 79.865 50.750 C 78.272 54.785, 78.619 59.001, 80.667 60.499 C 82.300 61.693, 82.340 62.207, 81.108 66.156 C 79.091 72.620, 79.133 79.030, 81.202 80.346 C 83.380 81.732, 84.730 80.422, 83.409 78.205 C 82.672 76.966, 82.868 75.543, 84.128 73 L 85.863 69.500 85.403 77 C 84.497 91.769, 84.111 93.930, 81.835 97.010 C 80.082 99.380, 79.618 101.216, 79.787 105.109 C 80.105 112.405, 81.239 114.079, 85.110 112.968 C 86.823 112.477, 88.787 111.306, 89.474 110.366 C 90.520 108.936, 91.431 108.807, 95.072 109.579 C 99.409 110.498, 99.423 110.515, 100.595 116.370 C 102.009 123.434, 104.354 125.688, 106.989 122.514 C 108.190 121.066, 107.988 116.934, 106.488 112.250 C 105.653 109.644, 107.443 109.106, 108.426 111.667 C 108.778 112.584, 109.335 115.910, 109.664 119.058 C 110.228 124.454, 110.126 124.824, 107.881 125.522 C 106.571 125.929, 104.359 127.066, 102.963 128.047 C 101.568 129.029, 98.869 130.236, 96.965 130.729 C 95.061 131.223, 93.387 132.273, 93.245 133.063 C 92.823 135.415, 99.456 139, 104.236 139.004 C 108.431 139.007, 126.200 133.409, 126.815 131.890 C 126.988 131.462, 127.673 131.321, 128.337 131.576 C 129.001 131.831, 131.939 130.884, 134.867 129.472 L 140.189 126.904 137.594 124.500 C 136.167 123.177, 135 121.624, 135 121.048 C 135 118.884, 118.042 121.213, 117.956 123.388 C 117.900 124.807, 115.141 117.597, 113.981 113.001 C 113.477 111.003, 113.473 109.127, 113.973 108.627 C 114.454 108.146, 118.144 106.985, 122.173 106.046 C 127.510 104.802, 129.392 103.953, 129.101 102.919 C 128.881 102.139, 128.495 100.282, 128.244 98.793 C 127.714 95.664, 122.514 89.981, 116.987 86.492 C 114.882 85.163, 111.920 82.371, 110.406 80.288 C 108.891 78.204, 106.377 74.836, 104.820 72.801 L 101.988 69.103 104.619 66.472 C 106.923 64.168, 107.175 63.292, 106.644 59.420 C 106.163 55.910, 106.343 55, 107.519 55 C 108.334 55, 109 54.143, 109 53.095 C 109 51.114, 101.508 46, 98.607 46 C 96.403 46, 94.920 42.650, 95.606 39.220 C 96.365 35.425, 94.125 31.095, 89.626 27.664 C 86.047 24.934, 82.308 24.401, 78.230 26.039" stroke="none" fill="black" fill-rule="evenodd"/>
</svg>