<svg xmlns="http://www.w3.org/2000/svg" width="192" height="144" viewBox="0 0 192 144" version="1.1">
	<path d="M 79.500 22 C 78.474 23.134, 78.190 24, 78.845 24 C 79.480 24, 80 24.450, 80 25 C 80 25.550, 78.835 26, 77.410 26 C 72.048 26, 68.699 33.639, 71.634 39.177 C 72.602 41.005, 73.442 42.950, 73.501 43.500 C 73.559 44.050, 73.970 45.740, 74.413 47.257 C 75.559 51.171, 74.326 56.459, 71.480 59.842 L 69.039 62.743 71.655 68.806 C 73.532 73.157, 75.041 75.188, 76.996 75.999 C 79.822 77.169, 82 82.091, 82 87.307 C 82 88.723, 82.450 90.160, 83 90.500 C 84.422 91.379, 84.239 95.557, 82.724 96.814 C 82.022 97.397, 79.932 101.164, 78.080 105.187 C 69.753 123.273, 67.925 126.743, 64.747 130.500 C 62.886 132.700, 59.905 136.645, 58.123 139.266 L 54.882 144.031 83.191 143.766 L 111.500 143.500 111.820 136 C 112.228 126.442, 110.373 111.151, 107.911 103.782 C 105.777 97.396, 105.513 94.419, 107 93.500 C 108.787 92.396, 107.734 76.966, 105.513 71.713 C 104.818 70.069, 105.348 69.961, 112.129 70.366 C 121.418 70.919, 124.777 70.276, 126.505 67.611 C 127.725 65.730, 127.489 64.707, 124.343 58.208 C 120.863 51.020, 120.836 50.865, 122.458 47.446 C 123.364 45.539, 123.829 43.533, 123.493 42.989 C 123.157 42.445, 123.359 42, 123.941 42 C 124.523 42, 125 42.450, 125 43 C 125 44.292, 131.574 44.298, 133.984 43.008 C 139.615 39.995, 135.107 24.992, 128.576 25.004 C 124.900 25.010, 120.340 28.551, 119.666 31.920 C 118.914 35.679, 116.576 36.831, 114.151 34.637 C 112.760 33.378, 111.668 33.235, 109.092 33.974 C 104.376 35.326, 102.839 36.831, 103.986 38.974 C 105.016 40.898, 104.414 42, 102.333 42 C 101.600 42, 101 40.965, 101 39.700 C 101 38.435, 100.508 36.908, 99.907 36.307 C 99.140 35.540, 99.125 34.635, 99.856 33.269 C 100.914 31.293, 100.417 27.409, 98.848 25.388 C 98.373 24.777, 95.707 24.007, 92.924 23.677 C 90.140 23.348, 86.474 22.385, 84.778 21.539 C 81.032 19.670, 81.658 19.615, 79.500 22 M 189.325 26.658 C 189.687 27.020, 189.483 27.918, 188.873 28.653 C 188.044 29.652, 188.178 30.623, 189.405 32.495 C 190.308 33.873, 191.261 35, 191.523 35 C 191.785 35, 192 32.975, 192 30.500 C 192 26.967, 191.642 26, 190.333 26 C 189.417 26, 188.963 26.296, 189.325 26.658 M 118.728 45.066 C 119.080 46.414, 119.608 46.792, 120.247 46.153 C 121.282 45.118, 120.468 43, 119.035 43 C 118.569 43, 118.430 43.930, 118.728 45.066 M 104.553 46.915 C 104.231 47.436, 104.394 48.125, 104.915 48.447 C 105.436 48.769, 106.125 48.606, 106.447 48.085 C 106.769 47.564, 106.606 46.875, 106.085 46.553 C 105.564 46.231, 104.875 46.394, 104.553 46.915 M 100 49.059 C 100 49.641, 100.450 49.840, 101 49.500 C 101.550 49.160, 102 48.684, 102 48.441 C 102 48.198, 101.550 48, 101 48 C 100.450 48, 100 48.477, 100 49.059 M 145 59.207 C 140.122 60.282, 137.898 61.629, 138.105 63.383 C 138.412 65.983, 137.898 67, 136.277 67 C 133.099 67, 138.376 69.877, 142.873 70.596 C 145.383 70.997, 147 71.793, 147 72.628 C 147 73.383, 147.338 74.004, 147.750 74.009 C 148.162 74.014, 150.225 76.695, 152.334 79.968 C 154.442 83.241, 157.142 86.229, 158.334 86.610 C 162.118 87.818, 168.265 87.071, 174.984 84.587 C 179.257 83.007, 183.307 82.238, 186.750 82.352 L 192 82.525 192 72.262 C 192 60.252, 194.329 61.362, 173.572 63.481 L 159.644 64.902 156.389 61.451 C 152.943 57.798, 152.123 57.636, 145 59.207 M 177.250 65.689 C 178.213 65.941, 179.787 65.941, 180.750 65.689 C 181.713 65.438, 180.925 65.232, 179 65.232 C 177.075 65.232, 176.287 65.438, 177.250 65.689 M 169.269 66.693 C 170.242 66.947, 171.592 66.930, 172.269 66.656 C 172.946 66.382, 172.150 66.175, 170.500 66.195 C 168.850 66.215, 168.296 66.439, 169.269 66.693 M 162.750 68.689 C 160.526 69.270, 160.545 70.216, 162.835 73.045 L 164.671 75.312 169.789 72.999 C 177.201 69.649, 177.348 67.971, 170.219 68.116 C 167.073 68.180, 163.713 68.438, 162.750 68.689 M 190.180 118.283 C 189.595 118.988, 188.609 120.901, 187.989 122.533 C 186.622 126.135, 177.990 140.888, 176.830 141.605 C 174.336 143.146, 176.891 144, 184 144 L 192 144 192 130.500 C 192 123.075, 191.830 117, 191.622 117 C 191.415 117, 190.766 117.577, 190.180 118.283" stroke="none" fill="black" fill-rule="evenodd"/>
</svg>