<svg xmlns="http://www.w3.org/2000/svg" width="192" height="144" viewBox="0 0 192 144" version="1.1">
	<path d="M 0 72 L 0 144 35.250 143.989 L 70.500 143.977 72.749 134.664 C 73.986 129.541, 76.123 122.580, 77.499 119.195 C 80.076 112.854, 80.935 102.024, 79.092 99.115 C 77.764 97.018, 73.317 98.564, 71.473 101.763 L 69.896 104.500 70.469 101.743 C 70.788 100.206, 70.621 99.100, 70.091 99.243 C 69.569 99.384, 68.547 98.777, 67.821 97.893 C 66.290 96.031, 58.908 93, 55.903 93 C 54.772 93, 52.563 91.716, 50.994 90.148 C 48.918 88.072, 46.809 87.138, 43.247 86.716 C 37.745 86.064, 31 83.203, 31 81.520 C 31 80.843, 33.612 80.315, 37.709 80.164 C 41.398 80.027, 44.563 79.771, 44.740 79.593 C 44.917 79.416, 43.919 78.522, 42.521 77.606 C 41.124 76.690, 40.038 76.292, 40.109 76.721 C 40.434 78.700, 39.877 79.143, 38.500 78 C 37.675 77.315, 37 75.830, 37 74.699 C 37 73.567, 36.438 71.074, 35.750 69.158 C 34.750 66.371, 34.750 65.590, 35.750 65.254 C 36.530 64.991, 37.008 62.892, 37.022 59.667 C 37.038 56.084, 37.644 53.734, 39 52 C 40.639 49.905, 40.959 49.793, 40.978 51.309 C 40.990 52.304, 41.450 52.840, 42 52.500 C 42.550 52.160, 43 51.077, 43 50.094 C 43 48.345, 46.114 44, 47.367 44 C 47.715 44, 48 44.900, 48 46 C 48 48.399, 49.538 48.647, 50.405 46.387 C 50.921 45.042, 51.284 44.991, 52.593 46.077 C 53.813 47.089, 54.041 48.622, 53.614 52.940 C 52.808 61.114, 52.818 62.259, 53.700 62.910 C 54.140 63.235, 54.583 66.012, 54.685 69.082 L 54.870 74.664 50.212 76.928 L 45.554 79.191 47.995 80.497 C 49.337 81.216, 51.836 81.576, 53.547 81.299 C 55.689 80.951, 58.260 81.605, 61.796 83.397 C 67.867 86.473, 70 86.670, 70 84.155 C 70 83.141, 70.934 79.653, 72.075 76.405 C 73.216 73.157, 74.299 68.331, 74.481 65.679 C 74.666 62.983, 75.463 60.338, 76.287 59.679 C 77.278 58.887, 77.963 55.685, 78.373 49.930 C 79.034 40.652, 81.780 31.213, 85.161 26.596 L 87.288 23.691 85.048 24.277 C 81.769 25.135, 80 24.112, 80 21.360 C 80 18.784, 84.281 9.562, 85.958 8.526 C 87.875 7.341, 94.643 10.003, 98.832 13.588 C 102.672 16.875, 103.442 17.147, 107.278 16.571 C 120.162 14.635, 120 14.630, 120 16.995 C 120 18.204, 119.299 21.604, 118.442 24.553 C 117.294 28.501, 117.162 30.434, 117.942 31.891 C 118.524 32.979, 119 34.918, 119 36.200 C 119 38.846, 115.717 45.482, 114.381 45.535 C 113.897 45.555, 112.487 46.133, 111.250 46.821 C 109.436 47.828, 109 48.941, 109 52.567 C 109 55.641, 109.474 57.245, 110.500 57.638 C 111.325 57.955, 112 58.762, 112 59.433 C 112 60.103, 113.134 61.716, 114.519 63.018 C 115.905 64.320, 118.332 67.436, 119.913 69.942 C 122.405 73.892, 122.790 75.485, 122.799 81.882 C 122.807 86.637, 123.249 89.536, 124.041 90.025 C 124.718 90.444, 128.951 91.093, 133.447 91.467 C 137.943 91.842, 142.204 92.508, 142.915 92.948 C 144.156 93.714, 148.510 92.732, 152.291 90.832 C 153.276 90.337, 154.513 90.199, 155.041 90.525 C 155.568 90.851, 156 90.416, 156 89.559 C 156 87.273, 158.756 87.657, 159.516 90.049 C 159.903 91.270, 159.492 93.127, 158.499 94.643 C 156.456 97.759, 149.194 101.125, 146.199 100.342 C 144.990 100.026, 144 100.217, 144 100.767 C 144 102.550, 138.722 102.838, 132.034 101.420 C 128.440 100.658, 123.797 100.027, 121.715 100.017 C 118.139 100.001, 117.988 100.124, 118.994 102.250 C 120.154 104.703, 120.195 104.749, 115.690 98.590 C 114.437 96.877, 114.080 96.831, 112.213 98.138 C 110.734 99.174, 110.398 100.016, 111.051 101.048 C 111.556 101.847, 111.976 104.407, 111.985 106.738 C 111.994 109.238, 113.393 114.366, 115.395 119.238 C 117.263 123.782, 120.039 131.218, 121.565 135.763 L 124.339 144.026 158.420 143.763 L 192.500 143.500 192.757 71.750 L 193.013 0 96.507 0 L 0 0 0 72 M 0.474 72.500 C 0.474 112.100, 0.598 128.154, 0.750 108.176 C 0.901 88.198, 0.901 55.798, 0.750 36.176 C 0.598 16.554, 0.474 32.900, 0.474 72.500 M 42.158 56 C 42.158 57.375, 42.385 57.938, 42.662 57.250 C 42.940 56.563, 42.940 55.438, 42.662 54.750 C 42.385 54.063, 42.158 54.625, 42.158 56 M 111 91.941 C 111 93.073, 111.450 94, 112 94 C 112.550 94, 113 93.352, 113 92.559 C 113 91.766, 112.550 90.840, 112 90.500 C 111.450 90.160, 111 90.809, 111 91.941" stroke="none" fill="black" fill-rule="evenodd"/>
</svg>