<svg xmlns="http://www.w3.org/2000/svg" width="192" height="144" viewBox="0 0 192 144" version="1.1">
	<path d="M 0 72 L 0 144 27.968 144 L 55.935 144 60.542 134.250 C 68.922 116.512, 70.048 113.168, 68.664 110.127 C 67.758 108.136, 67.933 107.472, 69.751 106 C 73.295 103.131, 75.349 96.692, 74.578 90.875 C 74.209 88.098, 73.415 85.036, 72.813 84.072 C 71.253 81.573, 72.530 76.132, 75.939 70.756 C 77.543 68.228, 78.686 65.336, 78.479 64.330 C 78.273 63.323, 77.824 60.332, 77.481 57.681 C 77.049 54.344, 76.110 52.213, 74.428 50.751 C 72.955 49.470, 72 47.555, 72 45.883 C 72 43.504, 71.555 43.084, 68.750 42.813 L 65.500 42.500 68.464 41 C 70.577 39.931, 71.682 38.426, 72.311 35.760 C 73.084 32.485, 72.871 31.635, 70.597 28.933 C 66.987 24.643, 67.356 23.439, 71.496 25.997 C 74.442 27.818, 75.503 27.993, 78.246 27.112 C 80.036 26.537, 84.650 25.578, 88.500 24.982 C 94.609 24.035, 96.014 23.394, 99.538 19.948 C 103.924 15.659, 105.405 15.023, 104.651 17.750 C 104.386 18.712, 103.875 21.654, 103.517 24.286 C 102.888 28.917, 102.942 29.053, 105.183 28.495 C 106.458 28.178, 109.300 28.304, 111.500 28.777 L 115.500 29.635 112.217 31.360 C 110.412 32.309, 109.201 33.517, 109.527 34.044 C 109.854 34.572, 108.954 35.447, 107.528 35.989 C 105.074 36.922, 105.010 37.122, 106.328 39.737 C 107.093 41.257, 108.427 44.975, 109.291 48 C 113.961 64.348, 116.156 70.796, 117.971 73.500 C 124.772 83.633, 125.964 85.667, 125.981 87.167 C 125.992 88.083, 125.462 89.013, 124.804 89.232 C 123.561 89.646, 123.482 95.347, 124.594 104.250 C 125.085 108.178, 124.912 109, 123.594 109 C 121.441 109, 121.588 110.661, 124.014 113.745 C 126.437 116.826, 125.796 118.030, 123.053 115.548 C 121.156 113.831, 121.075 113.865, 120.478 116.638 C 118.970 123.639, 116.306 125.906, 113.217 122.817 C 112.566 122.166, 111.794 121.872, 111.502 122.164 C 111.017 122.650, 112.075 125.334, 118.244 139.262 L 120.353 144.025 156.427 143.762 L 192.500 143.500 192.757 71.750 L 193.013 0 96.507 0 L 0 0 0 72 M 0.474 72.500 C 0.474 112.100, 0.598 128.154, 0.750 108.176 C 0.901 88.198, 0.901 55.798, 0.750 36.176 C 0.598 16.554, 0.474 32.900, 0.474 72.500 M 84.500 63 C 84.160 63.550, 84.584 64, 85.441 64 C 86.298 64, 87 63.550, 87 63 C 87 62.450, 86.577 62, 86.059 62 C 85.541 62, 84.840 62.450, 84.500 63" stroke="none" fill="black" fill-rule="evenodd"/>
</svg>