<svg xmlns="http://www.w3.org/2000/svg" width="192" height="144" viewBox="0 0 192 144" version="1.1">
	<path d="M -0 72.005 L -0 144.010 96.250 143.755 L 192.500 143.500 192.757 71.750 L 193.013 0 96.507 0 L 0 0 -0 72.005 M 0.474 72.500 C 0.474 112.100, 0.598 128.154, 0.750 108.176 C 0.901 88.198, 0.901 55.798, 0.750 36.176 C 0.598 16.554, 0.474 32.900, 0.474 72.500 M 92 31 C 90.899 33.058, 88 33.782, 88 32 C 88 31.450, 86.742 31, 85.204 31 C 82.808 31, 82.414 31.395, 82.454 33.750 C 82.498 36.363, 83.856 37.493, 90.500 40.440 C 91.050 40.684, 90.713 41.382, 89.750 41.992 C 87.478 43.430, 87.527 45.223, 89.876 46.691 C 92.935 48.601, 93.107 53.871, 90.258 58.383 L 87.792 62.289 78.146 61.655 C 72.841 61.306, 65.125 60.717, 61 60.348 C 54.201 59.738, 53.623 59.825, 54.819 61.273 C 55.545 62.152, 57.452 63.160, 59.058 63.513 C 60.663 63.865, 62.225 64.555, 62.527 65.044 C 62.830 65.534, 64.310 65.688, 65.816 65.387 C 67.399 65.070, 70.759 65.676, 73.777 66.823 C 78.754 68.714, 80.962 68.242, 77.250 66.080 C 75.850 65.265, 76.300 65.057, 79.500 65.041 C 85.995 65.010, 91 66.137, 91 67.631 C 91 68.634, 92.569 69, 96.875 69 C 102.631 69, 102.762 69.062, 103.363 72.066 C 103.791 74.205, 104.358 74.894, 105.238 74.343 C 105.932 73.908, 107.175 73.541, 108 73.526 C 108.861 73.511, 109.513 72.564, 109.530 71.303 C 109.577 67.860, 110.585 67.571, 116.744 69.236 C 119.910 70.092, 125.650 71.518, 129.500 72.405 C 136.300 73.971, 136.622 73.957, 140.750 71.904 C 144.250 70.164, 145 69.292, 145 66.963 C 145 65.001, 144.380 63.938, 142.973 63.492 C 141.859 63.138, 140.194 61.700, 139.274 60.296 C 137.629 57.785, 137.457 57.754, 128.819 58.406 C 121.426 58.964, 120.123 58.843, 120.586 57.638 C 120.999 56.560, 119.884 56.034, 116.067 55.509 C 111.327 54.857, 111 54.628, 111 51.965 C 111 48.162, 109.533 47.467, 106.953 50.047 C 104.580 52.420, 104.527 52.407, 103.541 49.199 C 102.933 47.224, 103.163 46.927, 105.166 47.105 C 112.847 47.784, 114.868 45.498, 110.367 41.223 C 108.790 39.725, 106.150 38.010, 104.500 37.411 C 102.850 36.813, 101.346 35.530, 101.157 34.562 C 100.866 33.061, 101.310 32.901, 104.157 33.477 L 107.500 34.154 104.500 31.613 C 100.597 28.307, 93.624 27.965, 92 31 M 92.229 44.188 C 92.847 46.042, 95 46.349, 95 44.583 C 95 43.712, 94.287 43, 93.417 43 C 92.546 43, 92.011 43.534, 92.229 44.188 M 94.079 56.847 C 91.401 62.095, 92.105 63.350, 95.706 59.748 C 97.919 57.536, 98.183 56.726, 97.324 54.801 C 96.333 52.581, 96.219 52.653, 94.079 56.847 M 111.733 58.124 C 112.412 58.808, 113.219 59.115, 113.526 58.807 C 113.834 58.499, 113.279 57.940, 112.293 57.564 C 110.868 57.022, 110.753 57.136, 111.733 58.124" stroke="none" fill="black" fill-rule="evenodd"/>
</svg>