<svg xmlns="http://www.w3.org/2000/svg" width="192" height="144" viewBox="0 0 192 144" version="1.1">
	<path d="M 41.658 10.250 C 38.830 27.665, 37.968 35.962, 37.423 51 C 36.413 78.920, 41.048 112.401, 49.643 139.257 L 51.165 144.013 121.833 143.757 L 192.500 143.500 192.828 132 C 193.008 125.675, 192.842 93.388, 192.458 60.250 L 191.760 0 117.542 0 L 43.323 -0 41.658 10.250 M 1.069 104.250 L 1 144 18.559 144 C 32.341 144, 35.956 143.731, 35.366 142.750 C 34.952 142.063, 32.416 138.465, 29.731 134.756 C 20.632 122.188, 11.128 100.295, 4.568 76.793 L 1.138 64.500 1.069 104.250" stroke="none" fill="black" fill-rule="evenodd"/>
</svg>