<svg xmlns="http://www.w3.org/2000/svg" width="192" height="144" viewBox="0 0 192 144" version="1.1">
	<path d="M 160.548 16.052 C 157.367 18.280, 151.780 22.482, 148.132 25.390 C 144.484 28.297, 137.825 32.954, 133.333 35.738 C 125.193 40.782, 125.164 40.791, 124.564 38.399 C 123.809 35.390, 120.448 35.180, 119.686 38.095 C 119.213 39.901, 118.681 40.085, 115.819 39.433 C 111.182 38.377, 106.259 38.814, 102.829 40.588 C 97.480 43.354, 94.154 51.754, 97.200 54.800 C 98.133 55.733, 98.022 56, 96.700 56 C 95.548 56, 95 55.184, 95 53.468 C 95 46.283, 88.479 39, 82.046 39 C 77.708 39, 76.818 38.139, 75.163 32.343 C 73.861 27.785, 68.791 22.646, 63.355 20.375 C 51.460 15.405, 38.837 23.844, 36.078 38.611 C 34.599 46.530, 38.204 54.033, 45.483 58.185 C 48.633 59.982, 51.046 60.479, 56.666 60.488 C 60.607 60.495, 64.139 60.807, 64.515 61.182 C 64.891 61.557, 64.366 61.663, 63.349 61.417 C 61.310 60.923, 52.552 67.992, 52.467 70.200 C 52.440 70.915, 51.800 72.739, 51.046 74.254 C 49.364 77.634, 50.333 78.913, 52.850 76.635 C 54.513 75.131, 54.849 75.113, 55.979 76.475 C 56.998 77.702, 56.999 78.297, 55.984 79.519 C 54.957 80.757, 55.027 81.372, 56.362 82.847 C 57.513 84.119, 58.009 86.568, 58.031 91.079 C 58.054 95.790, 58.705 98.811, 60.474 102.423 C 62.214 105.976, 62.623 107.836, 61.943 109.107 C 60.618 111.583, 60.770 116.660, 62.241 119.014 C 63.228 120.595, 63.228 121.405, 62.241 122.986 C 60.664 125.511, 60.645 130.458, 62.202 132.952 C 63.112 134.408, 63.127 135.439, 62.265 137.188 C 60.363 141.049, 59.785 144, 60.933 144 C 61.520 144, 62 143.148, 62 142.107 C 62 141.066, 62.675 139.955, 63.500 139.638 C 64.584 139.223, 65 139.748, 65 141.531 C 65 142.889, 65.450 144, 66 144 C 67.626 144, 67.141 139.813, 65.276 137.752 C 63.643 135.948, 63.643 135.687, 65.276 132.842 C 67.398 129.144, 67.484 125.627, 65.500 123.643 C 63.580 121.723, 63.613 120.843, 65.750 117.081 C 67.417 114.147, 67.417 113.853, 65.750 110.919 C 62.565 105.312, 63.126 104.491, 71.173 102.972 C 74.103 102.419, 77.230 101.737, 78.122 101.456 C 79.598 100.992, 79.613 101.343, 78.291 105.359 C 77.105 108.960, 77.009 112.316, 77.769 123.635 C 78.512 134.704, 78.428 138.086, 77.350 140.404 C 76.607 142.001, 76 143.463, 76 143.654 C 76 143.844, 84.438 143.986, 94.750 143.968 C 109.701 143.943, 113.177 143.690, 111.904 142.718 C 105.975 138.194, 105.388 123.443, 110.807 115.171 C 112.405 112.734, 112.439 112.786, 114.718 121.106 C 117.545 131.425, 117.835 138.077, 115.607 141.477 L 113.954 144 122.956 144 L 131.959 144 136.229 139.377 C 141.908 133.231, 143.985 129.975, 143.993 127.210 C 144.004 123.556, 140.564 117.893, 135.081 112.538 C 130.775 108.332, 130 107.008, 130 103.860 C 130 94.606, 134.218 73, 136.025 73 C 136.443 73, 137.072 73.746, 137.423 74.659 C 137.972 76.090, 138.452 75.941, 140.923 73.574 C 144.349 70.292, 149.669 59.945, 150.553 54.844 C 151.060 51.925, 150.765 50.765, 149.094 49.094 C 146.625 46.625, 141.292 46.312, 138.441 48.468 C 136.207 50.158, 133 50.472, 133 49 C 133 48.450, 133.338 47.987, 133.750 47.970 C 134.162 47.954, 137.074 45.539, 140.221 42.603 C 144.808 38.324, 146.449 37.363, 148.503 37.756 C 151.011 38.235, 161 34.291, 161 32.821 C 161 32.432, 160.007 31.418, 158.794 30.568 C 156.617 29.044, 156.614 29.002, 158.544 27.530 C 160.156 26.300, 160.254 25.876, 159.100 25.117 C 157.998 24.392, 158.793 23.042, 162.850 18.752 C 170.529 10.632, 169.690 9.648, 160.548 16.052 M 88.500 66.637 C 83.468 70.597, 77.786 71.191, 70.811 68.487 C 69.467 67.967, 68.977 68.605, 68.414 71.607 C 68.023 73.688, 68.168 76.606, 68.735 78.109 C 69.374 79.802, 69.410 81.190, 68.828 81.772 C 68.303 82.297, 68.195 84.988, 68.582 87.909 C 69.145 92.148, 69.570 92.992, 70.886 92.471 C 71.774 92.120, 75.425 91.167, 79 90.354 C 89.205 88.032, 90.028 87.383, 92.657 79.572 C 94.735 73.398, 94.826 72.465, 93.494 70.994 C 92.672 70.086, 92 68.365, 92 67.171 C 92 64.615, 91.221 64.496, 88.500 66.637 M 63.250 111.662 C 61.508 112.365, 61.684 115.665, 63.500 116.362 C 64.626 116.794, 65 116.197, 65 113.969 C 65 112.336, 64.888 111.036, 64.750 111.079 C 64.612 111.122, 63.938 111.385, 63.250 111.662 M 63.250 125.662 C 61.508 126.365, 61.684 129.665, 63.500 130.362 C 64.626 130.794, 65 130.197, 65 127.969 C 65 126.336, 64.888 125.036, 64.750 125.079 C 64.612 125.122, 63.938 125.385, 63.250 125.662" stroke="none" fill="black" fill-rule="evenodd"/>
</svg>