<svg xmlns="http://www.w3.org/2000/svg" width="192" height="144" viewBox="0 0 192 144" version="1.1">
	<path d="M 140.246 2.250 C 138.471 3.488, 136.761 5.175, 136.444 6 C 136.127 6.825, 133.198 9.652, 129.934 12.282 C 126.670 14.913, 124 17.864, 124 18.842 C 124 20.324, 109.166 35, 107.668 35 C 107.404 35, 107.423 34.098, 107.712 32.995 C 108 31.892, 107.678 30.317, 106.996 29.495 C 105.247 27.388, 102 27.587, 102 29.800 C 102 32.304, 100.046 34, 97.160 34 C 93.865 34, 86.019 38.018, 84.474 40.496 C 82.289 44, 81.769 49.626, 83.473 51.330 C 85.442 53.299, 85.398 53.717, 83.091 54.951 C 81.487 55.810, 80.870 55.445, 79.231 52.667 C 78.158 50.849, 75.687 48.605, 73.739 47.680 C 69.984 45.898, 62.486 45.405, 61.575 46.879 C 60.081 49.296, 56.713 48.736, 53.097 45.469 C 48.409 41.233, 45.208 40, 38.903 40 C 25.094 40, 16.948 49.835, 18.348 64.819 C 19.523 77.412, 26.908 83.621, 39.737 82.804 L 46.198 82.393 45.661 85.700 C 45.168 88.737, 45.309 88.961, 47.387 88.439 C 51.485 87.410, 52.522 90.188, 52.302 101.610 C 52.167 108.618, 51.609 112.854, 50.552 114.899 C 49.698 116.550, 49 119.575, 49 121.622 C 49 123.668, 48.306 126.110, 47.457 127.047 C 46.609 127.985, 45.670 130.495, 45.372 132.626 C 45.073 134.757, 44.100 137.945, 43.209 139.711 C 41.549 142.999, 42.290 145.621, 44.131 142.971 C 44.904 141.858, 45.276 141.804, 45.659 142.750 C 46.716 145.354, 48 143.845, 48 140 C 48 137.800, 48.415 136, 48.922 136 C 50.158 136, 52.313 129.315, 51.501 128.001 C 51.148 127.431, 51.791 125.456, 52.930 123.614 C 54.068 121.771, 55 118.600, 55 116.566 C 55 111.133, 56.489 109, 60.285 108.998 C 62.053 108.997, 66.027 107.664, 69.115 106.036 L 74.729 103.076 75.365 108.788 C 75.715 111.930, 76.380 116.638, 76.842 119.250 C 77.624 123.668, 77.537 124.001, 75.591 124.015 C 74.441 124.024, 72.884 124.421, 72.130 124.898 C 71.024 125.599, 71.120 125.976, 72.630 126.853 C 74.358 127.857, 74.320 127.941, 72.133 127.970 C 70.111 127.996, 69.841 128.389, 70.279 130.680 C 70.561 132.155, 70.325 134.108, 69.755 135.021 C 69.166 135.963, 69.015 138.265, 69.404 140.341 L 70.091 144 98.795 143.981 L 127.500 143.962 130.961 136.231 C 134.831 127.585, 135.282 122.366, 132.604 117.195 C 131.662 115.377, 126.448 109.111, 121.017 103.271 L 111.142 92.653 113.457 88.076 C 115.913 83.222, 119.529 74.617, 122.435 66.709 C 123.866 62.818, 124.457 62.135, 125.586 63.071 C 127.717 64.840, 129.303 63.686, 131.905 58.475 C 135.164 51.950, 136.022 40.787, 133.481 37.979 C 131.051 35.293, 124.936 35.309, 122.494 38.006 C 121.496 39.110, 120.471 39.805, 120.218 39.551 C 119.713 39.046, 129.978 25.721, 131.318 25.142 C 131.774 24.945, 134.026 23.021, 136.323 20.866 C 140 17.416, 140.296 16.828, 138.792 15.947 C 137.230 15.033, 137.333 14.523, 139.990 10.018 C 141.588 7.306, 143.646 3.943, 144.563 2.544 C 146.738 -0.776, 144.776 -0.909, 140.246 2.250 M 81 58 C 81 58.550, 81.477 59, 82.059 59 C 82.641 59, 82.840 58.550, 82.500 58 C 82.160 57.450, 81.684 57, 81.441 57 C 81.198 57, 81 57.450, 81 58 M 81.032 67.173 C 80.984 69.696, 76.019 75.094, 72.329 76.636 C 70.533 77.386, 67.250 78, 65.032 78 C 60.611 78, 60.164 78.875, 62.399 83.157 C 63.188 84.671, 63.410 86.190, 62.913 86.687 C 62.181 87.419, 63.467 94.708, 64.527 95.839 C 65.336 96.702, 79.218 87.596, 80.026 85.673 C 80.528 84.478, 81.370 81.025, 81.897 78 C 82.423 74.975, 83.122 71.812, 83.449 70.971 C 83.776 70.131, 83.374 68.556, 82.554 67.471 C 81.274 65.779, 81.059 65.736, 81.032 67.173 M 54.079 106.583 C 54.127 107.748, 54.364 107.985, 54.683 107.188 C 54.972 106.466, 54.936 105.603, 54.604 105.271 C 54.272 104.939, 54.036 105.529, 54.079 106.583 M 107.500 111 C 106.371 112.827, 106.733 130.948, 107.957 133.823 C 108.583 135.296, 110.142 137.266, 111.422 138.202 C 114.704 140.603, 116.115 139.110, 119.470 129.682 L 122.252 121.865 119.876 120.218 C 118.569 119.311, 115.403 116.619, 112.841 114.233 C 109.918 111.512, 107.928 110.308, 107.500 111 M 51.345 118.543 C 50.535 120.653, 51.887 121.793, 53.039 119.971 C 54.263 118.035, 54.239 117, 52.969 117 C 52.401 117, 51.671 117.694, 51.345 118.543 M 47 131.583 C 47 132.454, 47.534 132.989, 48.188 132.771 C 50.042 132.153, 50.349 130, 48.583 130 C 47.712 130, 47 130.713, 47 131.583" stroke="none" fill="black" fill-rule="evenodd"/>
</svg>