<svg xmlns="http://www.w3.org/2000/svg" width="192" height="144" viewBox="0 0 192 144" version="1.1">
	<path d="M 0 72 L 0 144 23.455 144 L 46.909 144 47.448 140.750 C 48.345 135.335, 48.526 132.519, 48 132.144 C 47.725 131.948, 44.386 132.121, 40.580 132.528 C 35.802 133.040, 33.074 132.903, 31.764 132.085 C 30.158 131.082, 29.559 131.291, 27.861 133.450 C 25.372 136.613, 24.676 136.632, 23.043 133.580 C 21.859 131.369, 22.039 130.864, 25.124 127.712 C 26.981 125.815, 29.523 123.946, 30.774 123.557 C 32.025 123.168, 35.674 120.418, 38.885 117.446 L 44.721 112.043 44.952 104.771 C 45.253 95.326, 45.254 93.924, 44.969 85 C 44.689 76.211, 47.513 64.861, 52.309 55.500 C 54 52.200, 55.261 48.664, 55.110 47.642 C 54.646 44.478, 55.931 41.107, 58.031 39.984 C 59.580 39.155, 60.718 39.311, 63.019 40.670 C 64.659 41.639, 66 42.741, 66 43.119 C 66 43.497, 68.152 45.869, 70.783 48.390 C 73.413 50.911, 80.051 58.812, 85.533 65.948 C 91.015 73.083, 95.808 78.939, 96.184 78.961 C 96.560 78.982, 101.129 73.713, 106.337 67.250 C 111.545 60.788, 117.907 53.475, 120.474 51 C 123.041 48.525, 127.085 44.587, 129.460 42.250 C 131.836 39.912, 134.719 38, 135.867 38 C 138.612 38, 141.368 42.292, 140.739 45.587 C 140.426 47.224, 141.276 50.245, 143.062 53.835 C 149.163 66.105, 151.296 80.021, 149.075 93.066 C 148.566 96.055, 147.945 101.847, 147.695 105.937 L 147.240 113.374 152.265 118.687 C 155.029 121.609, 157.787 124.010, 158.395 124.023 C 160.708 124.072, 169 133.088, 169 135.555 C 169 138.348, 168.781 138.412, 164.514 136.869 C 162.794 136.247, 160.645 134.447, 159.740 132.869 C 157.809 129.505, 156.440 129.210, 155.710 132 C 155.275 133.663, 154.346 134, 150.201 134 C 144.695 134, 144 134.739, 144 140.600 L 144 144.036 168.250 143.768 L 192.500 143.500 192.757 71.750 L 193.013 0 96.507 0 L 0 0 0 72 M 0.474 72.500 C 0.474 112.100, 0.598 128.154, 0.750 108.176 C 0.901 88.198, 0.901 55.798, 0.750 36.176 C 0.598 16.554, 0.474 32.900, 0.474 72.500" stroke="none" fill="black" fill-rule="evenodd"/>
</svg>