<svg xmlns="http://www.w3.org/2000/svg" width="192" height="144" viewBox="0 0 192 144" version="1.1">
	<path d="M 2.269 3.750 C 0.750 6.990, 0.470 11.277, 0.211 35.250 C 0.021 52.856, 0.268 63, 0.888 63 C 1.425 63, 2.151 62.100, 2.500 61 C 3.465 57.960, 4.828 58.612, 4.593 62.002 C 4.359 65.386, 5.339 67.500, 7.142 67.500 C 9.514 67.500, 10.056 73.578, 9.057 89 C 8.504 97.525, 7.546 113.050, 6.926 123.500 C 6.307 133.950, 5.594 142.838, 5.341 143.250 C 5.089 143.663, 30.082 144, 60.882 144 C 104.584 144, 117.060 143.725, 117.691 142.750 C 118.136 142.063, 118.656 133.533, 118.846 123.797 L 119.193 106.093 125.371 106.670 C 130.343 107.134, 131.813 106.930, 132.897 105.624 C 133.639 104.731, 134.875 104, 135.644 104 C 137.342 104, 142.648 95.878, 143.508 91.965 C 143.906 90.153, 143.496 87.959, 142.360 85.823 C 141.389 83.995, 140.715 81.892, 140.864 81.150 C 141.012 80.407, 140.720 80.055, 140.215 80.367 C 139.709 80.680, 137.559 80.050, 135.436 78.968 C 133.314 77.885, 130.660 77.016, 129.539 77.036 C 125.157 77.113, 118.011 85.920, 118.004 91.250 C 118 94.342, 116.001 94.911, 113.926 92.411 C 112.799 91.053, 110.757 90.904, 99.934 91.387 C 92.965 91.697, 84.821 92.239, 81.837 92.589 C 76.635 93.201, 76.125 93.041, 69.384 88.680 C 61.276 83.435, 60.681 82.805, 59.053 77.750 C 58.388 75.688, 57.235 74, 56.490 74 C 54.290 74, 53.903 70.926, 54.397 57.361 C 54.849 44.957, 54.954 44.449, 57.488 42.428 C 59.813 40.574, 59.934 40.190, 58.555 39.046 C 56.283 37.160, 56.543 36.708, 61.434 34.036 C 65.583 31.769, 66.988 30.089, 68.390 25.718 C 69.174 23.273, 66.683 13.166, 64.385 9.467 C 63.348 7.798, 61.600 4.988, 60.500 3.223 L 58.500 0.013 31.263 0.006 L 4.027 0 2.269 3.750 M 46.636 58.780 C 46.298 59.326, 46.692 60.329, 47.511 61.009 C 49.137 62.359, 49.476 61.300, 48.110 59.143 C 47.587 58.319, 47.009 58.176, 46.636 58.780" stroke="none" fill="black" fill-rule="evenodd"/>
</svg>