<svg xmlns="http://www.w3.org/2000/svg" width="192" height="144" viewBox="0 0 192 144" version="1.1">
	<path d="M 0.013 70.042 C -0.013 117.034, 0.319 140.728, 1.022 142.042 C 2.039 143.942, 3.419 144, 47.709 144 L 93.349 144 91.424 141.750 C 88.612 138.462, 87.051 135.433, 84.645 128.596 C 82.866 123.540, 82.524 120.453, 82.639 110.500 C 82.760 100.141, 83.142 97.544, 85.435 91.511 C 88.598 83.186, 91.629 77.860, 96.158 72.670 C 105.482 61.984, 111.473 47.559, 111.490 35.752 C 111.496 32.041, 111.846 29.004, 112.269 29.002 C 112.999 29, 112.471 25.248, 111.285 22 C 110.984 21.175, 110.570 19.218, 110.366 17.650 C 110.162 16.083, 109.361 13.608, 108.586 12.150 C 107.811 10.693, 106.612 7.925, 105.921 6 C 105.230 4.075, 104.235 1.938, 103.710 1.250 C 102.968 0.279, 91.309 0, 51.404 0 L 0.052 0 0.013 70.042 M 47.420 21.886 C 43.572 24.232, 41 29.508, 41 35.055 C 41 38.773, 41.534 39.802, 45.250 43.247 C 49.338 47.036, 49.718 47.171, 55.213 46.782 C 61.640 46.327, 64.109 44.663, 67.126 38.751 C 69.421 34.254, 69.004 31.056, 65.452 25.930 C 61.348 20.009, 53.416 18.230, 47.420 21.886 M 129.718 96.011 C 124.905 98.361, 122.476 101.300, 120.471 107.198 C 119.311 110.611, 119.155 112.421, 119.902 113.816 C 120.467 114.873, 120.752 115.915, 120.534 116.133 C 120.316 116.351, 122.019 118.678, 124.319 121.305 C 127.397 124.823, 129.432 126.229, 132.036 126.637 C 140.211 127.920, 149.343 122.307, 151.729 114.532 C 152.886 110.761, 152.307 103, 150.868 103 C 150.391 103, 150 102.378, 150 101.619 C 150 99.094, 143.726 95.341, 138.500 94.740 C 134.771 94.311, 132.539 94.634, 129.718 96.011" stroke="none" fill="black" fill-rule="evenodd"/>
</svg>