<svg xmlns="http://www.w3.org/2000/svg" width="192" height="144" viewBox="0 0 192 144" version="1.1">
	<path d="M 0 30.067 L 0 60.135 2.250 59.466 C 3.488 59.099, 7.784 57.020, 11.798 54.847 L 19.095 50.896 22.798 53.135 C 24.834 54.366, 30.682 58.186, 35.794 61.624 C 47.213 69.303, 50.403 70.421, 58.913 69.722 C 65.125 69.212, 65.699 69.349, 69 72.135 L 72.500 75.089 75.310 71.962 C 76.855 70.242, 80.099 67.959, 82.518 66.889 C 87.342 64.755, 88.249 63.763, 88.628 60.208 C 88.811 58.492, 88.481 57.985, 87.441 58.384 C 86.648 58.688, 86 58.501, 86 57.969 C 86 56.102, 84.128 57.022, 83.426 59.234 L 82.717 61.467 81.807 59.008 C 81.065 57.002, 80.725 56.821, 79.964 58.024 C 79.231 59.183, 79.027 58.998, 79.015 57.158 C 78.999 54.605, 75.655 49.678, 74.633 50.701 C 74.285 51.049, 74 50.583, 74 49.667 C 74 48.750, 73.325 48, 72.500 48 C 70.802 48, 70.489 46.434, 72 45.500 C 73.438 44.611, 73.235 42.981, 71.750 43.499 C 71.063 43.739, 69.159 42.837, 67.519 41.496 L 64.539 39.057 68.279 35.227 C 71.780 31.641, 72.039 30.950, 72.328 24.408 C 72.729 15.304, 75.648 9.833, 81.653 6.926 C 85.541 5.044, 86.998 4.917, 97.384 5.557 C 110.612 6.371, 115.272 8.274, 118.443 14.154 C 120.240 17.486, 120.664 17.721, 124.077 17.263 C 130.825 16.358, 136.010 22.160, 137.441 32.217 C 138.077 36.682, 137.976 36.968, 135.556 37.575 C 132.595 38.318, 132.687 38.061, 134.088 41.685 C 136.953 49.095, 137.845 56.837, 136.556 63.092 L 135.295 69.214 138.754 68.653 C 143.261 67.921, 149.376 64.692, 154.994 60.075 C 157.472 58.039, 161.525 55.156, 164 53.670 C 166.475 52.184, 169.279 50.420, 170.232 49.750 C 171.677 48.734, 173.334 49.229, 180.232 52.739 C 184.779 55.053, 189.175 57.070, 190 57.223 C 190.825 57.375, 191.831 57.950, 192.235 58.500 C 192.639 59.050, 192.976 46.113, 192.985 29.750 L 193 0 96.500 0 L 0 0 0 30.067 M 0.443 30.500 C 0.443 47, 0.580 53.890, 0.748 45.812 C 0.915 37.733, 0.916 24.233, 0.748 15.812 C 0.581 7.390, 0.444 14, 0.443 30.500 M 119.902 40.750 C 119.326 42.263, 119.101 44.737, 119.402 46.250 C 119.704 47.763, 119.511 49, 118.975 49 C 118.439 49, 118 49.927, 118 51.059 C 118 52.248, 117.554 52.843, 116.946 52.467 C 115.826 51.774, 112.063 55.537, 108.912 60.500 L 107.007 63.500 107.004 60.643 C 107.001 58.449, 106.633 57.927, 105.418 58.393 C 104.548 58.727, 103.261 59, 102.557 59 C 101.725 59, 101.448 59.891, 101.764 61.543 C 102.097 63.287, 103.546 64.735, 106.375 66.149 C 108.644 67.284, 112.186 69.829, 114.247 71.806 L 117.993 75.399 121.497 72.003 C 125.432 68.189, 125.714 66.557, 123.362 61.218 C 122.181 58.538, 121.750 54.777, 121.820 47.750 C 121.873 42.388, 121.699 38, 121.433 38 C 121.168 38, 120.479 39.237, 119.902 40.750 M 169.290 57.552 L 166.080 60.083 168.036 63.291 C 170.333 67.058, 170.441 70.540, 168.613 81.783 C 167.250 90.167, 166.411 92.427, 165.602 89.893 C 165.358 89.127, 163.736 84.115, 161.998 78.755 C 159.802 71.982, 159.040 68.094, 159.499 66.005 C 160.344 62.158, 159.241 62.215, 154.559 66.263 L 150.785 69.525 153.046 73.864 L 155.308 78.203 153.117 89.305 C 151.041 99.828, 150.432 101.882, 149.672 100.917 C 149.492 100.688, 148.088 95.681, 146.553 89.791 C 144.583 82.231, 143.963 78.010, 144.446 75.438 L 145.129 71.795 139.815 72.510 C 136.892 72.904, 134.369 73.344, 134.209 73.487 C 134.050 73.631, 134.871 75.362, 136.035 77.334 C 138.121 80.871, 138.128 81.063, 136.527 91.136 C 135.633 96.755, 134.505 102.060, 134.019 102.926 C 132.955 104.819, 133.148 105.275, 129.399 92.006 C 127.185 84.171, 126.892 81.857, 127.720 78.756 C 128.869 74.450, 127.691 73.810, 124.046 76.761 C 121.987 78.429, 121.954 78.682, 123.431 81.511 C 124.814 84.159, 124.821 84.627, 123.496 85.610 C 121.593 87.023, 121.598 88.421, 123.511 90.009 C 124.816 91.092, 124.827 91.416, 123.593 92.382 C 122.361 93.345, 122.421 94.468, 124.024 100.500 C 125.047 104.350, 125.911 108.678, 125.942 110.118 C 125.995 112.489, 126.894 113.078, 135.489 116.368 C 140.708 118.366, 145.882 120, 146.986 120 C 148.091 120, 151.745 117.975, 155.107 115.500 C 158.469 113.025, 161.594 111, 162.051 111 C 164.045 111, 163.968 113.205, 161.917 114.866 C 158.546 117.595, 160.325 119, 167.151 119 C 171.670 119, 173.823 118.498, 175.727 117 C 177.126 115.900, 178.659 115, 179.135 115 C 180.514 115, 180.136 120.432, 178.611 122.517 C 177.847 123.562, 177.423 124.939, 177.669 125.579 C 177.914 126.218, 176.294 128.183, 174.069 129.945 C 170.088 133.098, 169.849 133.150, 159.262 133.171 C 149.299 133.191, 147.561 132.883, 135.864 129.032 C 121.969 124.458, 120.003 123.037, 116.979 115.389 L 115.046 110.500 115.154 119.400 C 115.245 126.921, 115.706 129.281, 118.131 134.628 C 119.709 138.109, 121 141.647, 121 142.491 C 121 143.846, 125.167 143.995, 156.750 143.763 L 192.500 143.500 192.764 109.564 C 192.934 87.616, 192.669 75.269, 192.014 74.614 C 190.705 73.305, 190.695 71.693, 192 72.500 C 193.655 73.523, 193.141 67.284, 191.429 65.571 C 190.564 64.707, 189.476 64, 189.010 64 C 188.545 64, 187.551 63.765, 186.803 63.478 C 185.753 63.075, 185.535 63.918, 185.846 67.179 C 186.195 70.841, 185.136 79.758, 183.375 87.986 C 182.663 91.315, 181.921 89.898, 178.058 77.838 C 174.485 66.686, 174.500 66.856, 176.682 62.258 C 178.325 58.794, 178.311 58.671, 176.071 56.857 C 173.177 54.513, 173.142 54.516, 169.290 57.552 M 15.200 59.200 C 13.742 60.658, 13.629 63.653, 15 64.500 C 16.849 65.643, 16.022 72.110, 12.816 81.588 C 11.065 86.764, 9.322 91, 8.944 91 C 8.565 91, 7.943 89.088, 7.560 86.750 C 5.334 73.153, 5.087 68.665, 6.406 65.779 C 7.137 64.177, 6.977 64.165, 4.096 65.602 L 1 67.146 1 105.586 L 1 144.026 35.558 143.763 L 70.115 143.500 73.364 136 C 76.279 129.268, 76.630 127.425, 76.789 118 L 76.965 107.500 73.472 114.500 C 71.551 118.350, 69.107 122.229, 68.040 123.120 C 66.973 124.011, 61.301 126.669, 55.435 129.026 C 46.977 132.425, 43.502 133.317, 38.635 133.335 C 22.396 133.396, 16.688 131.360, 13.342 124.309 C 11.538 120.507, 10.951 116.148, 12.145 115.411 C 12.539 115.167, 14.104 116.119, 15.623 117.526 C 18.053 119.778, 19.110 120.050, 24.432 119.793 C 29.063 119.569, 30.552 119.120, 30.788 117.879 C 30.976 116.896, 30.226 116.031, 28.884 115.680 C 27.052 115.201, 26.884 114.844, 27.909 113.610 C 29.539 111.645, 31.427 112.444, 37.696 117.752 L 42.893 122.151 53.446 117.360 C 63.056 112.998, 64 112.328, 64 109.874 C 64 108.391, 64.893 104.326, 65.986 100.839 C 67.699 95.368, 67.773 94.352, 66.529 93.421 C 65.284 92.490, 65.311 92.118, 66.728 90.701 C 68.130 89.298, 68.179 88.704, 67.064 86.620 C 65.957 84.551, 66.004 83.832, 67.380 81.868 C 69.299 79.129, 69.430 78, 67.829 78 C 67.185 78, 65.832 77.253, 64.823 76.339 C 62.550 74.283, 61.469 75.139, 62.919 77.849 C 64.252 80.339, 64.307 84.759, 63.054 88.601 C 62.534 90.195, 61.152 94.806, 59.983 98.846 C 58.814 102.886, 57.660 105.994, 57.418 105.752 C 57.177 105.510, 56.065 100.309, 54.948 94.194 L 52.917 83.075 54.958 78.850 C 56.081 76.526, 57 74.526, 57 74.405 C 57 74.284, 54.548 74.031, 51.552 73.843 L 46.104 73.500 46.649 77.500 C 47.141 81.108, 46.620 83.990, 42.901 98.250 C 42.363 100.313, 41.595 102, 41.195 102 C 40.794 102, 39.432 97.027, 38.168 90.950 L 35.870 79.899 37.935 75.634 C 39.071 73.288, 40 71.122, 40 70.820 C 40 70.185, 32.688 65, 31.791 65 C 31.461 65, 31.391 66.688, 31.635 68.750 C 32.127 72.894, 25.545 94.667, 24.607 92 C 23.658 89.301, 21 73.845, 21 71.024 C 21 69.509, 21.900 67.126, 23 65.727 C 25.641 62.370, 25.540 61.814, 21.913 59.750 C 18.291 57.689, 16.831 57.569, 15.200 59.200" stroke="none" fill="black" fill-rule="evenodd"/>
</svg>