<svg xmlns="http://www.w3.org/2000/svg" width="192" height="144" viewBox="0 0 192 144" version="1.1">
	<path d="M 0 9.402 L 0 18.804 5.879 19.486 C 9.903 19.953, 12.385 19.776, 13.746 18.926 C 16.324 17.317, 19 18.375, 19 21.004 C 19 22.737, 19.312 22.903, 20.934 22.035 C 25.739 19.464, 31.051 21.391, 32.569 26.256 C 32.954 27.490, 33.759 28.813, 34.357 29.196 C 34.955 29.579, 35.457 31.915, 35.472 34.387 C 35.499 38.708, 35.789 39.138, 43 45.553 C 53.116 54.553, 52.922 54.251, 51.656 58.994 C 49.983 65.261, 52.150 76.173, 59.459 98.296 C 64.793 114.439, 66 119.282, 66 124.546 C 66 129.514, 65.667 131, 64.552 131 C 63.755 131, 61.883 132.131, 60.391 133.513 C 58.019 135.712, 57.089 135.948, 52.968 135.401 C 47.748 134.709, 47.483 134.907, 46.479 140.258 L 45.777 144 66.978 144 L 88.178 144 85.589 140.923 C 84.165 139.231, 83 137.042, 83 136.058 C 83 135.075, 81.987 132.989, 80.750 131.424 C 78.749 128.894, 75.977 119.393, 75.898 114.797 C 75.882 113.860, 75.106 112.851, 74.174 112.555 C 73.242 112.259, 71.004 109.763, 69.200 107.009 C 67.397 104.254, 65.525 102, 65.040 102 C 63.572 102, 63.293 87.096, 64.750 86.540 C 65.438 86.277, 66 85.551, 66 84.925 C 66 84.300, 67.285 82.148, 68.857 80.144 C 74.002 73.581, 75.352 69.571, 74.563 63.205 C 74.173 60.067, 73.718 55.250, 73.551 52.500 C 73.384 49.750, 72.904 44.261, 72.485 40.302 C 71.877 34.559, 72.102 31.778, 73.599 26.552 C 74.631 22.948, 75.931 19.988, 76.488 19.974 C 78.235 19.930, 80.966 12.617, 81.639 6.180 L 82.285 0 41.142 0 L 0 0 0 9.402 M 0 82 L 0 144 14.955 144 L 29.909 144 30.554 140.565 C 31.413 135.984, 30.610 135, 26.008 135 C 23.013 135, 21.991 134.547, 21.500 133 C 21.133 131.844, 19.944 130.969, 18.683 130.926 C 16.156 130.840, 12.006 130.161, 10.370 129.566 C 7.808 128.634, 11.467 118.305, 18.186 107.500 C 19.897 104.750, 23.336 98.450, 25.830 93.500 C 30.256 84.716, 30.369 84.254, 30.558 74.250 C 30.665 68.612, 30.436 64, 30.049 64 C 28.756 64, 23 82.536, 23 86.701 C 23 90.217, 22.731 90.742, 21.141 90.327 C 19.699 89.950, 18.886 90.815, 17.527 94.170 C 15.812 98.403, 15.751 98.444, 14.824 96 C 14.302 94.625, 14.149 92.037, 14.483 90.250 C 15.177 86.539, 14.214 86.102, 11.732 89 C 7.569 93.862, 5 89.565, 5 77.742 C 5 69.987, 5.259 69.031, 10.170 58.641 L 15.339 47.704 14.170 42.042 C 13.526 38.928, 13 35.169, 13 33.690 C 13 31.380, 12.585 31, 10.059 31 C 6.212 31, 5.567 29.738, 7.502 25.996 L 9.086 22.934 5.575 21.467 C 3.644 20.660, 1.600 20, 1.032 20 C 0.334 20, 0 40.047, 0 82 M 35.689 69.368 C 35.257 70.945, 35.150 72.483, 35.451 72.785 C 36.494 73.828, 37.149 72.172, 36.813 69.341 L 36.476 66.500 35.689 69.368 M 16 85.559 C 16 86.416, 16.450 86.840, 17 86.500 C 17.550 86.160, 18 85.459, 18 84.941 C 18 84.423, 17.550 84, 17 84 C 16.450 84, 16 84.702, 16 85.559 M 37.006 139.484 C 35.523 143.386, 35.734 144, 38.563 144 C 40.842 144, 41.092 143.647, 40.813 140.827 C 40.414 136.785, 38.314 136.044, 37.006 139.484" stroke="none" fill="black" fill-rule="evenodd"/>
</svg>