<svg xmlns="http://www.w3.org/2000/svg" width="192" height="144" viewBox="0 0 192 144" version="1.1">
	<path d="M 0 72 L 0 144 23.250 143.992 L 46.500 143.983 55.336 129.952 C 69.305 107.770, 72.472 98.358, 71.420 82.150 L 70.747 71.801 67.810 72.388 C 65.355 72.879, 64.954 72.690, 65.369 71.238 C 65.642 70.282, 66.612 66.751, 67.525 63.392 L 69.184 57.284 65.084 51.892 C 59.045 43.950, 55.325 33.153, 58.048 31.471 C 58.624 31.114, 62.429 32.406, 66.504 34.341 L 73.912 37.860 77.206 35.438 C 82.338 31.664, 86.736 29.932, 91.426 29.838 C 97.518 29.716, 105.733 32.663, 107.709 35.679 C 110.426 39.825, 111.474 52.029, 108.981 50.489 C 108.546 50.220, 108.421 51.724, 108.704 53.831 C 109.128 56.988, 108.759 58.157, 106.609 60.477 C 104.896 62.326, 104 64.422, 104 66.584 C 104 69.504, 104.564 70.182, 109.004 72.599 C 113.323 74.949, 119 80.565, 119 82.486 C 119 82.827, 120.125 84.762, 121.500 86.785 C 123.598 89.872, 124 91.629, 124 97.706 C 124 104.808, 124.061 104.980, 127.129 106.567 L 130.257 108.184 129.588 114.713 C 129.221 118.303, 128.884 121.524, 128.841 121.871 C 128.798 122.217, 128.816 127.344, 128.882 133.264 L 129 144.028 160.750 143.764 L 192.500 143.500 192.757 71.750 L 193.013 0 96.507 0 L 0 0 0 72 M 0.474 72.500 C 0.474 112.100, 0.598 128.154, 0.750 108.176 C 0.901 88.198, 0.901 55.798, 0.750 36.176 C 0.598 16.554, 0.474 32.900, 0.474 72.500" stroke="none" fill="black" fill-rule="evenodd"/>
</svg>