<svg xmlns="http://www.w3.org/2000/svg" width="192" height="144" viewBox="0 0 192 144" version="1.1">
	<path d="M 0 72 L 0 144 24.877 144 L 49.755 144 47.322 135.361 C 45.984 130.610, 43.518 124.006, 41.842 120.687 C 38.869 114.797, 38.564 111.695, 40.482 106.854 C 40.973 105.616, 40.016 104.649, 36.627 102.956 C 33.016 101.153, 31.705 99.742, 30.035 95.859 C 28.888 93.194, 26.836 90.284, 25.475 89.392 C 24.015 88.435, 23 86.815, 23 85.442 C 23 83.924, 21.973 82.507, 20.051 81.371 C 16.200 79.096, 12.680 74.276, 13.435 72.309 C 13.868 71.180, 14.844 70.919, 17.015 71.353 C 19.407 71.831, 19.999 71.607, 19.994 70.225 C 19.983 66.586, 17.717 60.395, 15.521 58 C 11.759 53.898, 10.065 49.548, 9.387 42.250 C 8.603 33.819, 9.761 31, 14.010 31 C 17.098 31, 18.987 28.555, 20.376 22.759 C 20.918 20.501, 21.734 19.906, 25.010 19.382 C 31.254 18.384, 32.859 16.360, 33.304 8.917 C 33.515 5.388, 33.485 1.938, 33.237 1.250 C 32.901 0.319, 28.600 0, 16.393 0 L 0 0 0 72 M 56 1.500 C 56 2.325, 56.417 3, 56.927 3 C 57.436 3, 58.004 3.780, 58.187 4.733 C 58.449 6.093, 59.636 6.488, 63.715 6.573 C 66.573 6.632, 69.534 7.199, 70.297 7.832 C 71.060 8.465, 71.980 8.687, 72.342 8.325 C 73.100 7.567, 73.203 8.323, 73.455 16.500 C 73.597 21.135, 74.233 23.360, 76.247 26.283 C 77.682 28.364, 79.113 30.614, 79.428 31.283 C 79.852 32.186, 80.143 32.201, 80.553 31.342 C 80.856 30.706, 81.981 29.174, 83.053 27.939 C 85.301 25.347, 85.357 24.824, 83.935 19.704 C 83.007 16.362, 83.187 15.360, 85.440 11.328 C 86.848 8.809, 88 6.130, 88 5.374 C 88 4.618, 88.850 4, 89.889 4 C 90.928 4, 92.841 3.115, 94.139 2.033 L 96.500 0.067 76.250 0.033 C 58.902 0.005, 56 0.215, 56 1.500 M 103.704 3.827 C 104.428 9.225, 100.946 16, 97.448 16 C 95.948 16, 94.700 16.704, 94.348 17.750 C 94.024 18.712, 92.913 21.330, 91.880 23.566 C 89.604 28.489, 89.451 36.193, 91.514 42.040 C 93.138 46.643, 92.735 51.519, 90.341 56.250 C 89.575 57.762, 89.073 59.034, 89.224 59.077 C 89.376 59.119, 92.162 59.331, 95.415 59.549 C 100.349 59.880, 102.117 59.517, 106.077 57.361 C 111.718 54.291, 112.559 52.016, 109.945 46.892 C 108.342 43.750, 108 40.994, 108 31.220 C 108 19.785, 108.090 19.282, 110.525 17.165 C 112.643 15.323, 113.145 15.213, 113.632 16.484 C 114.272 18.151, 119 18.605, 119 17 C 119 16.450, 119.654 16, 120.453 16 C 122.214 16, 123.987 10.118, 123.994 4.250 L 124 0 113.595 -0 L 103.190 -0 103.704 3.827 M 168.464 2.250 C 168.848 3.488, 169.423 5.617, 169.742 6.982 C 170.595 10.631, 172.419 12, 176.429 12 L 180 12 179.991 24.750 C 179.987 31.762, 179.708 39.784, 179.373 42.576 C 178.830 47.092, 178.423 47.779, 175.683 48.814 C 173.008 49.823, 172.320 49.709, 170.442 47.946 C 168.572 46.189, 167.921 46.079, 165.616 47.129 C 160.702 49.368, 160.743 55.673, 165.686 58 C 169.459 59.776, 170.555 61.903, 170.886 68.087 C 171.115 72.372, 170.815 72.986, 166.315 77.433 C 163.667 80.051, 159.970 82.981, 158.101 83.945 L 154.701 85.697 158.890 86.258 C 165.350 87.125, 168.566 91.051, 164.002 92.499 C 162.903 92.848, 160.608 95.162, 158.902 97.642 C 155.644 102.378, 150.776 105.990, 147.643 105.996 C 146.256 105.999, 145.976 106.443, 146.534 107.750 C 148.366 112.032, 148.146 115.284, 145.649 120.847 C 144.225 124.019, 142.351 129.740, 141.484 133.558 C 140.616 137.376, 139.672 141.287, 139.386 142.250 C 138.899 143.886, 140.599 144, 165.433 144 L 192 144 192 72 L 192 0 179.883 0 C 167.778 0, 167.767 0.002, 168.464 2.250 M 69 89.622 C 69 90.672, 61.476 96, 59.994 96 C 59.539 96, 58.940 95.438, 58.662 94.750 C 58.371 94.029, 58.124 94.272, 58.079 95.322 C 58.036 96.324, 59.124 99.062, 60.498 101.406 C 62.043 104.042, 63.242 108.022, 63.640 111.835 C 64.166 116.864, 64.616 118, 66.083 118 C 67.073 118, 68.085 117.662, 68.334 117.250 C 68.582 116.838, 69.330 110.718, 69.994 103.651 C 70.874 94.298, 70.903 90.503, 70.101 89.701 C 69.402 89.002, 69 88.974, 69 89.622 M 120.575 103.208 C 120.860 107.769, 121.372 113.525, 121.713 116 C 122.311 120.349, 122.371 120.214, 123.498 112 C 124.676 103.418, 124.500 100, 122.883 100 C 122.398 100, 122 99.127, 122 98.059 C 122 96.991, 121.563 95.848, 121.028 95.517 C 120.413 95.137, 120.247 97.964, 120.575 103.208" stroke="none" fill="black" fill-rule="evenodd"/>
</svg>