<svg xmlns="http://www.w3.org/2000/svg" width="192" height="144" viewBox="0 0 192 144" version="1.1">
	<path d="M 95 2.849 C 88.881 5.941, 85.338 10.329, 84.492 15.862 C 84.186 17.863, 83.613 20.594, 83.218 21.930 C 82.354 24.854, 74.014 30.103, 68.928 30.924 C 65.425 31.489, 65.373 31.565, 66.238 34.871 C 67.076 38.074, 67.299 38.213, 70.719 37.658 C 75.200 36.931, 79.012 39.011, 81.431 43.502 C 82.397 45.296, 84.247 47.247, 85.541 47.837 C 89.453 49.619, 91.322 53.451, 90.751 58.520 C 90.267 62.809, 91.431 64.646, 92.638 61.500 C 93.563 59.089, 95 59.772, 95 62.622 C 95 64.840, 95.232 65.053, 96.500 64 C 97.536 63.140, 98 63.102, 98 63.878 C 98 64.495, 99.125 65, 100.500 65 C 102.348 65, 103 65.531, 103 67.036 C 103 68.484, 101.750 69.607, 98.665 70.929 C 95.505 72.284, 93.964 73.696, 92.976 76.144 C 92.231 77.990, 89.207 81.847, 86.257 84.716 L 80.892 89.931 75.196 87.732 C 70.164 85.789, 67.580 85.531, 53.018 85.517 C 37.698 85.501, 36.511 85.632, 36.171 87.373 C 35.970 88.403, 36.750 90.523, 37.903 92.083 C 40.682 95.841, 40.556 96.361, 37.039 95.658 C 32.615 94.773, 32.547 96.414, 36.884 99.420 C 39.001 100.887, 41.772 103.193, 43.041 104.544 C 45.773 107.452, 51.442 107.857, 56.050 105.474 C 57.833 104.552, 59 104.368, 59 105.008 C 59 105.591, 60.488 106.946, 62.308 108.019 C 64.127 109.092, 66.691 111.890, 68.007 114.235 C 71.468 120.407, 74.285 123.103, 78.120 123.913 C 81.497 124.626, 81.500 124.632, 81.207 129.946 C 80.910 135.348, 78.746 141, 76.974 141 C 76.438 141, 76 141.675, 76 142.500 C 76 143.793, 79.444 144, 101 144 C 114.750 144, 126 143.752, 126 143.448 C 126 143.144, 124.683 142.437, 123.073 141.875 C 120.049 140.821, 118 136.968, 118 132.336 C 118 128.896, 121.179 118, 122.183 118 C 122.653 118, 122.757 116.879, 122.413 115.509 C 121.765 112.928, 122.036 112.701, 127.050 111.615 C 128.676 111.263, 130.189 109.826, 131.226 107.652 C 132.778 104.397, 133.027 104.276, 136.676 104.993 C 145.242 106.676, 151.467 110.631, 163.777 122.213 C 168.329 126.496, 172.747 130, 173.594 130 C 174.441 130, 176.579 128.897, 178.347 127.549 C 183.324 123.753, 186.071 123.021, 189.250 124.646 L 192 126.051 192 110.194 L 192 94.336 185.380 97.668 C 178.063 101.351, 174.006 101.756, 163.238 99.881 C 158.331 99.027, 156.281 99.047, 154.564 99.966 C 152.615 101.009, 151.144 100.609, 143.560 96.972 L 134.807 92.774 135.430 88.618 C 136.144 83.858, 134.538 81.108, 127.207 74.537 C 122.529 70.345, 122.055 67.524, 126.018 67.460 C 127.796 67.431, 128.417 66.934, 128.206 65.710 C 128.045 64.769, 128.382 64, 128.956 64 C 129.530 64, 130.036 64.787, 130.079 65.750 C 130.122 66.713, 130.376 66.963, 130.644 66.306 C 130.911 65.650, 131.720 65.339, 132.441 65.616 C 133.243 65.923, 134.010 65.096, 134.414 63.489 C 134.777 62.042, 135.592 61.031, 136.224 61.241 C 136.857 61.452, 138.184 60.816, 139.173 59.827 C 140.649 58.351, 140.771 57.591, 139.854 55.578 C 139.240 54.230, 139.018 52.396, 139.361 51.502 C 139.920 50.046, 140.208 50.032, 142.116 51.369 C 143.797 52.546, 144.645 52.614, 146.124 51.690 C 148.015 50.509, 148.719 48, 147.159 48 C 145.780 48, 141 38.434, 141 35.674 C 141 32.435, 142.476 31.537, 147.233 31.881 C 150.254 32.099, 152.009 31.430, 155.897 28.576 C 158.578 26.608, 161.558 23.798, 162.518 22.332 C 164.402 19.456, 164.513 19.666, 159.337 16.309 C 157.646 15.212, 157.699 15.112, 160 15.043 C 165.244 14.888, 165.646 13.714, 162.816 6.815 L 160.226 0.500 130.363 0.285 L 100.500 0.070 95 2.849" stroke="none" fill="black" fill-rule="evenodd"/>
</svg>