<svg xmlns="http://www.w3.org/2000/svg" width="192" height="144" viewBox="0 0 192 144" version="1.1">
	<path d="M -0 72.005 L -0 144.010 96.250 143.755 L 192.500 143.500 192.757 71.750 L 193.013 0 96.507 0 L 0 0 -0 72.005 M 0.474 72.500 C 0.474 112.100, 0.598 128.154, 0.750 108.176 C 0.901 88.198, 0.901 55.798, 0.750 36.176 C 0.598 16.554, 0.474 32.900, 0.474 72.500 M 140.204 9.570 C 138.972 10.433, 136.798 13.470, 135.374 16.320 C 131.597 23.877, 128.284 27.102, 125.084 26.337 C 123.663 25.997, 122.839 26.083, 123.253 26.529 C 123.667 26.975, 122.205 28.413, 120.003 29.726 C 117.801 31.039, 116 32.483, 116 32.934 C 116 35.009, 119.441 36.294, 124.552 36.127 C 129.600 35.962, 130.107 36.151, 131.015 38.539 C 132.738 43.072, 132.244 44.787, 129.011 45.497 C 127.368 45.858, 125.766 46.569, 125.452 47.077 C 125.139 47.585, 123.591 48, 122.014 48 C 115.826 48, 112.301 58.132, 118.250 58.816 C 119.763 58.990, 121.052 59.665, 121.115 60.316 C 121.179 60.967, 121.291 62.175, 121.365 63 C 121.439 63.825, 122.175 64.500, 123 64.500 C 124.038 64.500, 124.404 63.674, 124.187 61.819 C 123.840 58.837, 126.163 57, 130.279 57 C 132.400 57, 132.947 57.853, 134.819 64.082 C 136.645 70.154, 136.784 71.778, 135.797 75.469 C 134.828 79.092, 133.969 80.102, 130.369 81.851 C 128.017 82.994, 125.292 85.182, 124.314 86.715 C 123.335 88.247, 121.715 90.105, 120.714 90.844 C 119.041 92.079, 119.019 92.381, 120.447 94.559 C 121.301 95.863, 122 97.763, 122 98.781 C 122 99.899, 123.584 101.522, 126 102.880 C 128.200 104.116, 130 105.549, 130 106.064 C 130 106.579, 130.436 107, 130.969 107 C 131.501 107, 131.678 106.325, 131.362 105.500 C 130.693 103.757, 132.301 103.555, 135.066 105.035 C 136.440 105.771, 137.004 107.146, 137.015 109.785 C 137.034 114.612, 139.003 118.421, 141.679 118.807 C 143.971 119.137, 144.207 118.633, 147.575 106.223 C 148.512 102.770, 149.597 99.749, 149.986 99.508 C 150.376 99.268, 151.919 100.350, 153.417 101.913 C 155.394 103.977, 156.348 106.290, 156.900 110.361 C 157.319 113.449, 158.481 116.874, 159.485 117.984 C 163.912 122.875, 169.794 118.365, 168.613 110.984 C 167.628 104.819, 168.652 106.251, 171.130 114.500 C 173.444 122.204, 175.011 124.434, 174.192 118.858 C 173.846 116.498, 174.047 115.911, 175 116.500 C 175.953 117.089, 176.154 116.502, 175.808 114.142 C 175.426 111.544, 175.681 111, 177.279 111 C 178.342 111, 180.852 112.283, 182.856 113.851 C 184.860 115.420, 187.744 117.005, 189.265 117.374 L 192.030 118.046 191.765 88.273 L 191.500 58.500 182.750 58.863 L 174 59.227 174 56.068 C 174 52.968, 173.930 52.922, 170.250 53.563 C 168.188 53.923, 164.144 55.518, 161.265 57.109 C 155.250 60.431, 153.466 60.777, 154.820 58.358 C 155.325 57.455, 155.546 55.979, 155.310 55.078 C 154.578 52.277, 156.773 48, 158.944 48 C 160.305 48, 160.755 47.524, 160.362 46.500 C 159.968 45.475, 160.419 45, 161.782 45 C 163.069 45, 163.728 44.379, 163.639 43.250 C 163.543 42.040, 164.349 41.402, 166.250 41.184 C 169.449 40.815, 169.669 40.212, 167.250 38.435 C 165.622 37.238, 165.701 36.938, 168.380 34.134 C 172.570 29.748, 171.435 28.471, 161.983 26.936 C 152.792 25.444, 151.787 24.412, 151.598 16.282 C 151.428 8.964, 145.802 5.649, 140.204 9.570 M 128.872 89.750 C 127.629 91.336, 127.664 91.371, 129.250 90.128 C 130.213 89.373, 131 88.585, 131 88.378 C 131 87.555, 130.179 88.084, 128.872 89.750" stroke="none" fill="black" fill-rule="evenodd"/>
</svg>