<svg xmlns="http://www.w3.org/2000/svg" width="192" height="144" viewBox="0 0 192 144" version="1.1">
	<path d="M 17 4.593 C 12.325 7.101, 7.825 9.700, 7 10.369 C 6.175 11.039, 4.263 12.205, 2.750 12.962 L 0 14.338 0 79.169 L 0 144 21.645 144 L 43.289 144 36.535 137.811 C 23.425 125.798, 14.414 111.012, 9.837 94 C 6.598 81.961, 6.607 61.227, 9.858 49.123 C 14.656 31.257, 27.250 11.999, 40.500 2.267 L 43.500 0.063 34.500 0.048 C 25.713 0.034, 25.299 0.141, 17 4.593 M 120.335 3.250 C 129.632 15.650, 131.613 32.740, 125.304 46.111 C 120.707 55.855, 114.107 63.176, 106.214 67.287 C 102.521 69.210, 97.943 71.113, 96.040 71.517 C 86.781 73.481, 77.697 79.409, 71.040 87.830 C 68.818 90.641, 67 93.222, 67 93.566 C 67 93.910, 66.148 95.388, 65.106 96.851 C 64.065 98.313, 62.625 103.007, 61.907 107.280 C 59.859 119.468, 62.614 131.354, 69.663 140.750 L 72.102 144 110.193 144 L 148.284 144 153.784 139.302 C 175.560 120.697, 187.392 90.666, 184.041 62.500 C 181.360 39.956, 171.605 20.828, 155.273 6.088 L 148.528 0 133.213 0 L 117.898 -0 120.335 3.250 M 80.500 18.403 C 74.515 21.044, 72.289 25.648, 73.973 31.901 C 75.408 37.229, 79.353 40, 85.504 40 C 89.511 40, 90.699 39.501, 93.600 36.600 C 96.370 33.830, 97 32.434, 97 29.065 C 97 23.970, 94.624 20.159, 90.328 18.364 C 86.319 16.689, 84.365 16.697, 80.500 18.403 M 101.372 105.588 C 99.528 106.498, 97.560 108.650, 96.576 110.832 C 95.074 114.163, 95.056 114.889, 96.396 118.096 C 98.216 122.452, 99.756 123.801, 103.839 124.618 C 110.265 125.903, 116 121.024, 116 114.272 C 116 110.734, 113.740 107.434, 109.989 105.494 C 106.401 103.639, 105.300 103.651, 101.372 105.588 M 184 132.804 C 179.875 135.445, 174.156 138.708, 171.291 140.053 C 168.426 141.399, 166.064 142.838, 166.041 143.250 C 166.018 143.662, 171.850 144, 179 144 L 192 144 192 136 C 192 131.600, 191.887 128, 191.750 128 C 191.613 128, 188.125 130.162, 184 132.804" stroke="none" fill="black" fill-rule="evenodd"/>
</svg>