<svg xmlns="http://www.w3.org/2000/svg" width="192" height="144" viewBox="0 0 192 144" version="1.1">
	<path d="M 54.461 18.878 C 45.989 22.727, 38.851 34.507, 40.375 42.125 C 42.075 50.626, 49.802 57.171, 58.625 57.582 C 61.677 57.725, 64.342 58.009, 64.546 58.213 C 64.750 58.417, 62.206 60.075, 58.892 61.896 C 54.678 64.213, 53.037 65.653, 53.433 66.686 C 53.745 67.498, 53.325 69.126, 52.500 70.304 C 51.675 71.481, 51 73.234, 51 74.198 C 51 75.595, 51.583 75.833, 53.879 75.374 C 57.449 74.660, 58.685 76.352, 56.954 79.586 C 55.880 81.592, 55.921 82.266, 57.205 83.740 C 58.230 84.917, 58.923 88.533, 59.297 94.649 C 59.605 99.681, 60.447 104.744, 61.169 105.899 C 62.221 107.583, 62.235 108.394, 61.241 109.986 C 59.654 112.527, 59.648 117.463, 61.228 119.993 C 62.233 121.603, 62.143 122.488, 60.728 124.884 C 58.622 128.448, 58.542 130.901, 60.442 133.613 C 61.697 135.406, 61.697 136.030, 60.442 138.450 C 58.762 141.687, 58.578 144, 60 144 C 60.550 144, 61 143.325, 61 142.500 C 61 141.675, 61.675 141, 62.500 141 C 63.325 141, 64 141.675, 64 142.500 C 64 143.325, 64.480 144, 65.067 144 C 66.240 144, 65.403 140.310, 63.766 138.263 C 63.222 137.582, 63.103 136.232, 63.503 135.263 C 65.336 130.820, 65.670 127.186, 64.455 124.915 C 63.414 122.970, 63.438 122.053, 64.593 119.821 C 66.307 116.505, 66.353 114.619, 64.823 110.387 C 63.033 105.436, 64.775 104, 72.571 104 L 78.898 104 77.414 107.551 C 75.795 111.425, 75.380 117.991, 75.756 133.750 L 76 144 92 144 C 100.800 144, 108 143.826, 108 143.614 C 108 143.402, 107.328 141.940, 106.506 140.364 C 104.145 135.838, 104.623 129.141, 107.747 122.946 C 110.130 118.223, 110.541 117.828, 110.846 119.968 L 111.196 122.436 112.416 120.157 C 113.521 118.092, 113.842 118.773, 115.818 127.377 C 118.498 139.043, 118.542 140.305, 116.250 139.586 C 115.051 139.210, 114.136 139.818, 113.344 141.518 L 112.188 144 124.398 144 L 136.608 144 139.804 140.702 C 145.517 134.808, 143.820 127.759, 134.304 117.857 L 130.803 114.213 131.968 104.857 C 133.149 95.371, 135.935 83.721, 137.828 80.349 C 138.802 78.613, 138.907 78.606, 139.540 80.250 C 140.594 82.987, 142.557 82.336, 146.249 78.022 C 154.107 68.842, 157.216 57.666, 152.777 54.557 C 149.933 52.565, 145.069 52.563, 142.228 54.553 C 140.745 55.592, 139.479 55.808, 138.402 55.205 C 137.094 54.473, 138.128 53.268, 143.938 48.753 C 150.303 43.807, 151.488 43.254, 154.792 43.679 C 157.305 44.002, 160.095 43.443, 163.450 41.943 L 168.399 39.730 165.569 37.474 C 162.816 35.278, 162.797 35.199, 164.870 34.541 C 167.022 33.858, 167.848 32, 166 32 C 163.706 32, 165.331 29.105, 170.475 24.024 C 173.487 21.050, 175.778 18.445, 175.568 18.235 C 174.866 17.533, 168.599 21.189, 158 28.484 C 150.017 33.979, 132.839 44, 131.404 44 C 131.310 44, 130.998 43.100, 130.710 42 C 130.017 39.349, 127.380 39.441, 126.674 42.140 C 126.174 44.052, 125.708 44.192, 122.307 43.456 C 115.791 42.045, 108.662 42.496, 105.206 44.538 C 101.613 46.660, 97.581 55.027, 99.795 55.765 C 101.785 56.428, 101.153 59, 99 59 C 97.324 59, 97 58.333, 97 54.886 C 97 47.324, 90.736 40, 84.268 40 C 82.082 40, 80.413 37.149, 79.569 31.974 C 78.426 24.971, 68.719 16.967, 61.434 17.022 C 59.820 17.034, 56.683 17.869, 54.461 18.878 M 69.340 70.909 C 68.176 73.995, 68.618 78.646, 70.168 79.604 C 70.716 79.942, 70.634 80.736, 69.970 81.536 C 69.230 82.428, 69.084 84.828, 69.546 88.524 C 70.229 93.989, 70.327 94.135, 72.875 93.491 C 74.319 93.126, 79.071 92.198, 83.436 91.428 C 87.801 90.658, 91.699 89.684, 92.098 89.264 C 92.498 88.844, 93.961 85.679, 95.350 82.232 L 97.875 75.964 95.412 74.350 C 93.706 73.232, 93.132 72.161, 93.543 70.863 C 94.402 68.159, 91.630 67.473, 87.591 69.390 C 83.351 71.402, 78.984 71.438, 74.346 69.500 C 72.371 68.675, 70.684 68, 70.597 68 C 70.510 68, 69.944 69.309, 69.340 70.909 M 62.250 112.662 C 60.457 113.386, 60.670 117.667, 62.500 117.667 C 63.480 117.667, 64 116.685, 64 114.833 C 64 113.275, 63.888 112.036, 63.750 112.079 C 63.612 112.122, 62.938 112.385, 62.250 112.662 M 62.250 126.662 C 60.445 127.391, 60.661 132, 62.500 132 C 63.500 132, 64 131, 64 129 C 64 127.350, 63.888 126.036, 63.750 126.079 C 63.612 126.122, 62.938 126.385, 62.250 126.662" stroke="none" fill="black" fill-rule="evenodd"/>
</svg>