<svg xmlns="http://www.w3.org/2000/svg" width="192" height="144" viewBox="0 0 192 144" version="1.1">
	<path d="M -0 36.469 C -0 65.185, 0.266 72.854, 1.250 72.546 C 1.937 72.331, 4.975 71.388, 8 70.450 C 16.639 67.771, 21.867 65.203, 30.726 59.284 L 38.952 53.789 45.726 59.620 C 49.452 62.827, 56.325 69.073, 61 73.501 C 70.340 82.348, 73.862 84, 83.379 84 L 89.025 84 91.564 78.260 C 94.493 71.637, 97.011 68.652, 101.099 66.959 C 102.694 66.298, 104 65.110, 104 64.320 C 104 63.529, 103.547 63.162, 102.993 63.504 C 102.439 63.847, 101.716 63.423, 101.386 62.563 C 101.056 61.704, 100.159 61, 99.393 61 C 98.627 61, 98 60.495, 98 59.878 C 98 59.147, 97.415 59.235, 96.327 60.128 C 94.836 61.350, 94.716 61.254, 95.233 59.251 C 95.551 58.014, 95.365 56.726, 94.819 56.388 C 94.273 56.051, 94.049 54.919, 94.323 53.874 C 94.860 51.820, 92.478 50, 89.253 50 C 88.220 50, 86.099 48.669, 84.541 47.043 C 82.327 44.732, 81.317 44.295, 79.920 45.043 C 77.537 46.318, 76.730 46.254, 74.486 44.614 C 72.698 43.306, 72.913 42.932, 78.295 38.013 C 83.639 33.129, 84 32.511, 84 28.238 C 84 21.669, 87.497 16.293, 94.527 12.055 C 101.287 7.979, 108.718 7.030, 118.172 9.036 C 123.118 10.086, 124.940 11.071, 128.116 14.411 C 132.775 19.311, 135.485 27.171, 134.508 32.952 C 133.920 36.434, 134.218 37.236, 137.426 40.787 C 139.392 42.962, 141 45.075, 141 45.482 C 141 45.890, 139.383 45.919, 137.407 45.548 C 133.821 44.876, 133.815 44.881, 134.486 47.936 C 135.044 50.476, 134.887 50.894, 133.568 50.388 C 132.358 49.923, 132.141 50.205, 132.662 51.562 C 133.193 52.947, 132.972 53.203, 131.674 52.705 C 130.387 52.211, 130 52.634, 130 54.531 C 130 57.172, 129.062 57.662, 127.327 55.927 C 126.562 55.162, 126.061 55.620, 125.585 57.518 C 125.078 59.536, 124.502 60.011, 123.208 59.477 C 122.269 59.090, 120.600 58.529, 119.500 58.230 C 117.580 57.708, 117.570 57.766, 119.250 59.672 C 120.213 60.764, 121.011 62.297, 121.024 63.079 C 121.037 63.860, 123.294 65.487, 126.040 66.694 C 130.603 68.699, 131.292 69.464, 134.038 75.584 L 137.042 82.281 143.271 81.541 C 146.697 81.134, 154.225 80.734, 160 80.651 L 170.500 80.500 181 73.695 L 191.500 66.890 192.132 69.695 C 192.479 71.238, 192.817 56.188, 192.882 36.250 L 193 0 96.500 0 L 0 0 -0 36.469 M 0.452 37 C 0.452 57.075, 0.585 65.288, 0.749 55.250 C 0.912 45.213, 0.912 28.788, 0.749 18.750 C 0.585 8.713, 0.452 16.925, 0.452 37 M 34.761 61.973 C 32.881 63.453, 32.340 64.605, 32.756 66.249 C 33.069 67.487, 33.639 68.725, 34.023 69 C 34.407 69.275, 35.407 70.850, 36.245 72.500 C 37.633 75.234, 37.579 76.607, 35.627 88 C 34.449 94.875, 33.069 100.500, 32.561 100.500 C 31.270 100.500, 24.873 80.216, 24.910 76.240 C 24.926 74.448, 25.447 72.033, 26.067 70.875 C 26.687 69.716, 26.813 68.961, 26.347 69.197 C 25.881 69.432, 23.592 70.497, 21.260 71.562 C 17.274 73.384, 15.716 76.088, 17.881 77.426 C 20.204 78.862, 19.742 84.047, 16.291 95.250 C 14.301 101.713, 12.327 107, 11.904 107 C 10.840 107, 10.363 105.045, 8.525 93.146 C 6.956 82.990, 6.965 82.724, 9.003 79.270 C 10.146 77.333, 10.911 75.578, 10.703 75.369 C 10.212 74.879, 3.767 77.032, 2.615 78.072 C 2.105 78.532, 2.225 80.836, 2.899 83.512 C 3.941 87.653, 3.848 88.510, 2.034 91.445 C 0.133 94.521, -0 96.345, -0 119.368 L 0 144 40.531 144 C 78.250 144, 81.102 143.879, 81.629 142.250 C 81.941 141.287, 84.815 135.082, 88.015 128.460 L 93.834 116.421 93.267 106.121 C 92.868 98.890, 92.303 95.670, 91.368 95.311 C 90.380 94.932, 90.302 94.304, 91.065 92.879 C 92.470 90.253, 91.379 88.892, 88.313 89.448 C 84.820 90.082, 84.766 90.224, 86.627 93.955 C 88.078 96.863, 88.125 98.438, 87.045 107.867 C 84.847 127.042, 84.177 127.252, 78.821 110.437 L 75.018 98.500 77.028 93.571 C 79.263 88.090, 78.997 87.597, 73.213 86.512 C 69.042 85.730, 68.489 86.176, 70.038 89.071 C 70.811 90.515, 71.014 93.308, 70.609 96.907 C 69.085 110.451, 67.685 118.062, 66.774 117.758 C 65.838 117.446, 58 94.934, 58 92.558 C 58 91.933, 58.900 89.658, 60 87.500 C 61.100 85.342, 62 83.078, 62 82.469 C 62 81.020, 55.128 73, 53.887 73 C 53.326 73, 53.390 73.860, 54.040 75.075 C 55.105 77.064, 54.893 80.280, 52.418 99.750 C 52.121 102.088, 51.502 104, 51.043 104 C 49.883 104, 42 81.483, 42 78.170 C 42 76.685, 42.874 73.840, 43.942 71.847 C 46.072 67.873, 46.036 67.780, 40.418 62.722 L 37.336 59.948 34.761 61.973 M 182.173 78.583 L 178.085 82.166 180.043 85.818 C 181.119 87.827, 182 90.395, 182 91.525 C 182 94.650, 176.054 113, 175.041 113 C 174.553 113, 172.958 107.862, 171.498 101.582 C 169.461 92.823, 169.094 89.693, 169.921 88.147 C 171.913 84.425, 171.306 83.833, 166.250 84.566 C 160.773 85.360, 159.348 85.979, 160.854 86.910 C 161.442 87.273, 162.561 89.129, 163.340 91.035 C 164.633 94.194, 164.526 95.427, 162.129 105 C 160.683 110.775, 159.062 115.500, 158.527 115.500 C 157.992 115.500, 156.247 110.775, 154.648 105 C 151.884 95.015, 151.815 94.292, 153.247 90.250 L 154.752 86 149.043 86 C 145.903 86, 143.077 86.257, 142.763 86.571 C 142.449 86.885, 142.821 88.347, 143.590 89.821 C 145.361 93.215, 145.370 98.178, 143.622 106.188 C 142.820 109.866, 142.194 119.073, 142.123 128.250 L 142.001 144 167 144 L 192 144 192 122.441 C 192 109.390, 191.633 101.109, 191.069 101.457 C 189.635 102.343, 189.233 101.113, 187.563 90.737 C 186.467 83.923, 186.304 80.332, 187.006 78.484 C 188.817 73.722, 187.692 73.745, 182.173 78.583 M 127 108.318 C 127 109.594, 127.706 113.014, 128.569 115.919 C 129.431 118.824, 129.931 121.737, 129.680 122.392 C 129.428 123.048, 129.882 124.465, 130.688 125.542 C 132.004 127.300, 132.087 126.755, 131.507 120.205 C 130.699 111.089, 127 101.334, 127 108.318" stroke="none" fill="black" fill-rule="evenodd"/>
</svg>