<svg xmlns="http://www.w3.org/2000/svg" width="192" height="144" viewBox="0 0 192 144" version="1.1">
	<path d="M -0 72.005 L -0 144.010 96.250 143.755 L 192.500 143.500 192.757 71.750 L 193.013 0 96.507 0 L 0 0 -0 72.005 M 0.474 72.500 C 0.474 112.100, 0.598 128.154, 0.750 108.176 C 0.901 88.198, 0.901 55.798, 0.750 36.176 C 0.598 16.554, 0.474 32.900, 0.474 72.500 M 92.655 21.829 C 90.430 24.288, 90.568 27.568, 93 30 C 95.639 32.639, 97.568 32.523, 100.545 29.545 C 103.180 26.911, 103.746 23.146, 101.800 21.200 C 99.978 19.378, 94.534 19.753, 92.655 21.829" stroke="none" fill="black" fill-rule="evenodd"/>
</svg>