<svg xmlns="http://www.w3.org/2000/svg" width="192" height="144" viewBox="0 0 192 144" version="1.1">
	<path d="M 131.315 1.944 C 121.765 6.280, 116.995 12.481, 114.962 23.202 C 114.425 26.032, 113.877 28.382, 113.743 28.424 C 110.306 29.503, 105.783 32.994, 104.352 35.671 C 102.794 38.588, 102.084 39.055, 99.873 38.618 C 95.824 37.818, 93.710 40.001, 93.598 45.098 C 93.504 49.321, 93.614 49.492, 96.304 49.304 C 98.658 49.140, 99.059 49.459, 98.804 51.292 C 98.581 52.890, 99.022 53.479, 100.448 53.488 C 101.590 53.495, 103.514 55.144, 105.100 57.476 C 106.944 60.188, 108.549 61.459, 110.152 61.476 C 111.888 61.494, 113.008 62.542, 114.452 65.500 C 116.167 69.014, 116.410 71.746, 116.452 88 C 116.499 105.956, 116.429 106.603, 114.089 110 C 109.986 115.956, 108.138 117.013, 104.564 115.451 C 102.879 114.714, 99.925 113.857, 98 113.546 C 94.893 113.044, 94.031 112.157, 90.318 105.641 L 86.136 98.302 88.537 93.401 C 90.253 89.897, 90.946 86.763, 90.969 82.405 C 90.986 78.954, 91.883 73.749, 93.036 70.405 C 98.368 54.944, 98.363 55, 94.502 55 C 92.033 55, 91.030 56.641, 87.548 66.372 C 86.196 70.151, 84.878 73.455, 84.620 73.714 C 84.361 73.972, 82.630 73.634, 80.772 72.962 C 77.724 71.860, 76.814 72.022, 71.447 74.620 C 67.867 76.354, 64.908 78.582, 64.013 80.217 C 62.652 82.704, 62.686 83.050, 64.414 84.313 C 65.899 85.399, 66.447 87.538, 66.988 94.354 C 67.629 102.420, 68.108 103.849, 73.959 115.159 C 80.897 128.568, 80.754 126.993, 76.091 138.750 L 74.008 144 133.004 144 L 192 144 192 77.067 L 192 10.134 187.750 6.756 C 178.917 -0.264, 180.120 -0.002, 156.785 0.022 C 138.038 0.041, 135.001 0.270, 131.315 1.944 M 130.355 89 C 130.695 90.375, 131.018 92.400, 131.072 93.500 C 131.142 94.899, 131.440 94.602, 132.063 92.513 C 132.747 90.219, 132.581 89.174, 131.346 88.013 C 129.889 86.642, 129.796 86.735, 130.355 89" stroke="none" fill="black" fill-rule="evenodd"/>
</svg>