<svg xmlns="http://www.w3.org/2000/svg" width="192" height="144" viewBox="0 0 192 144" version="1.1">
	<path d="M 13 5.816 C 13 9.015, 13.447 14.078, 13.992 17.066 C 15.237 23.879, 15.531 32.861, 14.744 40 C 14.215 44.802, 14.403 45.706, 16.225 47.122 C 18.638 48.997, 18.040 52, 15.254 52 C 13.187 52, 9 54.675, 9 55.995 C 9 56.481, 11.025 57.181, 13.500 57.552 C 15.975 57.923, 18 58.626, 18 59.114 C 18 59.601, 18.642 60, 19.427 60 C 20.213 60, 21.740 61.125, 22.821 62.500 C 26.003 66.545, 28.291 65.848, 29.386 60.500 C 30.325 55.919, 31.319 54.140, 34.084 52.096 C 37.844 49.316, 37.780 48, 33.883 48 C 30.414 48, 30.437 48.560, 33.472 38 C 35.449 31.122, 34.337 27.511, 30.471 28.250 C 25.552 29.191, 27.605 24.466, 36.205 15.054 C 43.545 7.020, 43.809 4.057, 37.326 2.493 C 35.030 1.939, 32.818 1.151, 32.409 0.743 C 32.001 0.334, 27.467 0, 22.333 0 L 13 0 13 5.816 M 96 8.943 C 96 16.440, 96.294 18.098, 97.817 19.193 C 100.368 21.028, 103.492 27.091, 106.966 36.950 C 108.603 41.598, 111.489 47.673, 113.379 50.450 C 118.185 57.515, 119.724 62.969, 120.140 74.413 C 120.519 84.849, 119.488 87.447, 117.020 82.276 L 115.695 79.500 114.991 82 L 114.287 84.500 113.535 81.750 C 113.122 80.237, 112.382 79, 111.892 79 C 110.714 79, 110.767 79.687, 112.146 82.316 C 113.255 84.431, 113.229 84.445, 111.317 82.750 C 107.238 79.135, 105.460 81.803, 107.645 88.258 C 108.457 90.657, 109.169 101.410, 109.614 118.008 L 110.312 144 136.578 144 L 162.845 144 163.851 140.750 C 165.562 135.227, 167.096 120.696, 166.076 119.676 C 165.498 119.098, 164.098 119.565, 162.399 120.901 C 159.196 123.420, 158.040 122.457, 158.015 117.250 C 158.002 114.480, 157.641 114, 155.573 114 C 151.003 114, 152.013 106.407, 157.171 101.983 C 160.288 99.309, 162.318 93.144, 161.353 89.282 C 160.895 87.446, 161.464 86.775, 164.650 85.393 C 166.767 84.474, 169.470 83.282, 170.655 82.743 C 171.840 82.205, 173.241 82.031, 173.770 82.358 C 175.555 83.461, 175.949 91.198, 174.375 94.241 C 172.953 96.991, 173.027 97.266, 176.120 100.789 C 177.896 102.812, 180.011 104.474, 180.821 104.484 C 181.631 104.493, 182.894 106.232, 183.629 108.349 C 185.208 112.901, 184.384 115.151, 179.669 119.162 C 176.591 121.781, 176.560 121.894, 177.797 126.162 C 178.488 128.548, 179.829 133.534, 180.777 137.243 L 182.500 143.986 187.250 143.993 L 192 144 192 72 L 192 0 144 0 L 96 0 96 8.943 M 108.031 76.500 C 108.031 77.050, 108.467 78.175, 109 79 C 109.533 79.825, 109.969 80.050, 109.969 79.500 C 109.969 78.950, 109.533 77.825, 109 77 C 108.467 76.175, 108.031 75.950, 108.031 76.500 M 179.079 107.583 C 179.127 108.748, 179.364 108.985, 179.683 108.188 C 179.972 107.466, 179.936 106.603, 179.604 106.271 C 179.272 105.939, 179.036 106.529, 179.079 107.583" stroke="none" fill="black" fill-rule="evenodd"/>
</svg>