<svg xmlns="http://www.w3.org/2000/svg" width="192" height="144" viewBox="0 0 192 144" version="1.1">
	<path d="M 57.882 30.500 C 57.817 31.050, 57.811 31.822, 57.870 32.215 C 57.929 32.609, 57.564 34.017, 57.059 35.344 C 56.383 37.123, 56.577 38.379, 57.798 40.122 C 58.709 41.422, 59.543 43.091, 59.651 43.831 C 59.760 44.570, 60.569 45.971, 61.450 46.944 C 62.876 48.520, 62.885 48.850, 61.536 49.970 C 60.703 50.661, 60.250 51.595, 60.528 52.045 C 60.806 52.494, 59.889 54.548, 58.491 56.608 C 54.946 61.833, 54.400 64.680, 56.501 67.001 C 58.420 69.121, 58.349 69.869, 55.042 82.500 C 52.205 93.338, 49.286 114.673, 48.440 130.750 L 47.743 144 65.985 144 L 84.227 144 83.613 139.750 C 83.275 137.412, 82.141 128.068, 81.093 118.985 C 79.340 103.796, 76.382 89.874, 73.705 84.214 C 72.925 82.566, 72.936 81.033, 73.742 78.714 C 75.088 74.843, 74.632 56.050, 73.124 53.232 C 72.238 51.577, 72.626 50.752, 75.534 48.105 C 77.440 46.371, 78.993 44.400, 78.985 43.726 C 78.949 40.771, 76.117 34.731, 73.474 31.973 C 70.803 29.185, 70.155 28.991, 64.300 29.236 C 60.835 29.381, 57.947 29.950, 57.882 30.500" stroke="none" fill="black" fill-rule="evenodd"/>
</svg>