<svg xmlns="http://www.w3.org/2000/svg" width="192" height="144" viewBox="0 0 192 144" version="1.1">
	<path d="M -0 72.005 L -0 144.010 96.250 143.755 L 192.500 143.500 192.557 71.500 C 192.589 31.900, 192.454 2.631, 192.257 6.458 C 192.060 10.285, 191.483 13.919, 190.973 14.532 C 190.394 15.231, 190.477 16.077, 191.196 16.796 C 192.061 17.661, 191.252 18.907, 187.922 21.839 C 173.306 34.711, 161.512 48.219, 164.371 48.811 C 165.410 49.026, 164.665 50.211, 161.944 52.670 C 159.784 54.621, 158.238 56.576, 158.508 57.013 C 158.778 57.450, 161.305 56.932, 164.123 55.861 C 166.942 54.790, 169.382 54.049, 169.547 54.214 C 170.048 54.715, 168.570 60.383, 167.444 62.280 C 166.469 63.922, 166.109 63.943, 162.775 62.551 C 160.789 61.721, 155.762 57.887, 151.604 54.032 C 144.491 47.437, 143.891 47.093, 141.447 48.206 C 138.204 49.684, 136.677 52.605, 134.500 61.500 C 132.470 69.792, 130.736 71.505, 122.751 73.106 C 117.996 74.060, 116.671 74.799, 115.085 77.380 C 114.031 79.096, 112.855 82.300, 112.472 84.500 C 111.668 89.118, 109.740 92.534, 106.083 95.821 C 103.863 97.816, 102.751 98.071, 98.166 97.635 C 91.488 96.999, 90 97.563, 90 100.730 C 90 102.430, 88.021 105.361, 83.894 109.772 C 80.536 113.362, 76.938 117.694, 75.898 119.399 C 73.615 123.144, 73.464 129.229, 75.511 135.030 C 76.342 137.385, 76.792 139.542, 76.511 139.823 C 76.230 140.104, 76 139.902, 76 139.375 C 76 138.848, 74.537 136.826, 72.750 134.882 C 70.962 132.938, 67.475 128.908, 65 125.928 C 58.320 117.883, 38.100 97.889, 24.853 86.230 C 18.447 80.592, 12.861 75.196, 12.440 74.239 C 12.019 73.283, 11.557 67.775, 11.413 62 C 11.269 56.225, 10.909 50.192, 10.613 48.592 C 9.343 41.724, 8.620 36.439, 8.841 35.633 C 8.971 35.156, 8.635 33.356, 8.093 31.633 C 7.551 29.910, 6.912 27.127, 6.673 25.450 C 6.269 22.620, 3.479 7.389, 2.424 2.250 C 2.170 1.012, 1.520 0, 0.981 0 C 0.349 0, -0 25.601, -0 72.005 M 67 1.957 C 69.475 2.997, 74.650 5.050, 78.500 6.518 C 82.350 7.986, 86.275 9.933, 87.222 10.844 C 88.231 11.815, 89.786 16.597, 90.982 22.410 C 92.103 27.860, 93.568 32.979, 94.237 33.786 C 95.199 34.945, 97.237 35.143, 103.977 34.730 C 117.155 33.925, 116.527 34.641, 117.406 19.423 C 117.694 14.431, 118.184 9.684, 118.495 8.874 C 118.806 8.064, 121.859 5.742, 125.280 3.714 L 131.500 0.027 97 0.046 L 62.500 0.065 67 1.957 M 0.474 72.500 C 0.474 112.100, 0.598 128.154, 0.750 108.176 C 0.901 88.198, 0.901 55.798, 0.750 36.176 C 0.598 16.554, 0.474 32.900, 0.474 72.500 M 97.163 44.878 C 96.427 45.345, 95.977 46.800, 96.163 48.113 C 96.415 49.898, 97.127 50.500, 98.986 50.500 C 101.814 50.500, 102.882 47.768, 100.960 45.452 C 99.577 43.786, 99.019 43.701, 97.163 44.878 M 173.073 56.728 C 169.144 61.495, 169.091 63.245, 172.990 59.510 C 174.634 57.935, 175.763 56.429, 175.498 56.165 C 175.234 55.900, 175.519 55.080, 176.131 54.342 C 176.744 53.604, 176.998 53, 176.695 53 C 176.393 53, 174.763 54.678, 173.073 56.728" stroke="none" fill="black" fill-rule="evenodd"/>
</svg>