<svg xmlns="http://www.w3.org/2000/svg" width="192" height="144" viewBox="0 0 192 144" version="1.1">
	<path d="M 0 72 L 0 144 30.323 144 L 60.645 144 62.723 139.750 C 64.091 136.950, 64.836 133.368, 64.905 129.250 C 65.013 122.813, 63.995 121.434, 61.768 125 C 61.081 126.100, 60.171 127, 59.746 127 C 58.694 127, 61.586 120.148, 64.093 116.704 C 65.212 115.167, 68.619 108.932, 71.664 102.849 C 77.010 92.169, 77.219 91.447, 77.751 81.803 L 78.301 71.817 75.900 72.019 C 74.580 72.130, 73.197 72.172, 72.827 72.111 C 72.457 72.050, 73.238 68.513, 74.562 64.250 C 77.453 54.944, 77.516 53.777, 75.234 51.712 C 72.244 49.006, 66.732 37.191, 66.613 33.234 C 66.457 28.085, 69.240 27.825, 75.054 32.446 C 80.334 36.643, 82.821 36.863, 86.834 33.486 C 93.536 27.846, 102.565 26.517, 110.984 29.929 C 118.198 32.854, 119.202 34.978, 119.103 47.114 C 119.024 56.900, 118.874 57.627, 116.509 59.702 C 114.610 61.369, 114 62.883, 114 65.932 C 114 69.608, 114.341 70.133, 117.908 71.953 C 122.688 74.392, 134.215 88.599, 135.174 93.234 C 135.544 95.025, 135.607 98.523, 135.313 101.007 C 134.790 105.423, 134.861 105.563, 138.503 107.300 L 142.228 109.076 141.586 115.788 C 141.232 119.480, 140.681 127.345, 140.360 133.267 L 139.778 144.034 166.139 143.767 L 192.500 143.500 192.757 71.750 L 193.013 0 147.007 0 C 101.904 0, 101 0.039, 101 1.970 C 101 3.543, 100.347 3.921, 97.750 3.850 C 95.963 3.801, 93.836 3.927, 93.024 4.130 C 92.111 4.359, 91.416 3.641, 91.204 2.250 L 90.861 0 45.430 0 L 0 0 0 72 M 0.474 72.500 C 0.474 112.100, 0.598 128.154, 0.750 108.176 C 0.901 88.198, 0.901 55.798, 0.750 36.176 C 0.598 16.554, 0.474 32.900, 0.474 72.500 M 89.228 140 C 88.406 143.239, 88.478 144, 89.606 144 C 90.566 144, 91 142.753, 91 140 C 91 137.800, 90.830 136, 90.622 136 C 90.414 136, 89.786 137.800, 89.228 140" stroke="none" fill="black" fill-rule="evenodd"/>
</svg>