<svg xmlns="http://www.w3.org/2000/svg" width="192" height="144" viewBox="0 0 192 144" version="1.1">
	<path d="M 0 72 L 0 144 9.750 143.971 L 19.500 143.941 23.309 138.721 C 26.464 134.397, 27.001 132.985, 26.437 130.500 C 25.656 127.053, 25.649 126.394, 26.321 119.175 C 26.594 116.246, 27.083 113.584, 27.408 113.258 C 27.734 112.933, 28 111.779, 28 110.694 C 28 109.608, 28.697 108.211, 29.549 107.588 C 30.506 106.888, 31.317 104.174, 31.672 100.478 C 32.074 96.287, 32.816 94.043, 34.154 92.972 C 37.171 90.557, 37.250 80.123, 34.250 80.361 C 32.870 80.471, 32.500 79.708, 32.500 76.749 C 32.500 74.686, 32.050 72.985, 31.500 72.968 C 30.950 72.950, 31.327 72.310, 32.338 71.543 C 34.199 70.133, 35.932 64.612, 35.976 59.955 C 35.997 57.694, 35.369 57.249, 30.327 55.955 C 25.471 54.709, 24.618 54.140, 24.399 52 C 24.258 50.625, 23.833 48.263, 23.455 46.750 C 22.843 44.304, 23.041 44, 25.249 44 C 29.094 44, 33 40.388, 33 36.831 C 33 31.673, 36.121 22.681, 39.322 18.616 C 43.568 13.224, 50.807 10.022, 58.780 10.010 C 64.960 10, 65.142 9.920, 70.193 5 L 75.326 -0 37.663 -0 L 0 0 0 72 M 80.202 6.250 C 81.839 11.192, 83.298 13.412, 87.171 16.858 C 94.258 23.163, 96.346 27.754, 96.625 37.647 C 96.794 43.661, 97.415 46.893, 98.996 49.992 C 100.968 53.858, 101.011 54.330, 99.535 55.961 C 98.065 57.586, 98.069 58.134, 99.582 62.616 C 102.214 70.412, 107.231 79.072, 110.750 81.894 C 114.805 85.145, 114.963 86.549, 111.047 84.524 C 108.261 83.083, 107.885 83.139, 104.411 85.496 L 100.728 87.995 97.496 85.998 C 93.972 83.820, 90 83.348, 90 85.107 C 90 85.716, 89.289 85.941, 88.421 85.608 C 86.528 84.882, 82 85.883, 82 87.028 C 82 87.474, 84.362 88.614, 87.250 89.560 C 94.397 91.903, 98 94.580, 98 97.547 C 98 98.873, 98.952 102.858, 100.116 106.403 C 101.732 111.327, 102.594 112.709, 103.765 112.260 C 105.007 111.783, 105.166 112.201, 104.601 114.452 C 102.650 122.229, 102.696 122.814, 105.469 125.384 C 107.977 127.708, 108.070 128.079, 106.803 130.691 C 105.638 133.091, 105.662 134.264, 106.970 138.748 L 108.500 143.996 150.250 143.998 L 192 144 192 72 L 192 0 135.066 -0 L 78.131 -0 80.202 6.250 M 96.500 2 C 96.160 2.550, 96.359 3, 96.941 3 C 97.523 3, 98 2.550, 98 2 C 98 1.450, 97.802 1, 97.559 1 C 97.316 1, 96.840 1.450, 96.500 2 M 167 46 C 167 46.550, 167.450 47, 168 47 C 168.550 47, 169 46.550, 169 46 C 169 45.450, 168.550 45, 168 45 C 167.450 45, 167 45.450, 167 46 M 137 77 C 137 77.550, 137.423 78, 137.941 78 C 138.459 78, 139.160 77.550, 139.500 77 C 139.840 76.450, 139.416 76, 138.559 76 C 137.702 76, 137 76.450, 137 77 M 87 137.378 C 87 138.135, 87.675 139.315, 88.500 140 C 89.768 141.053, 90 140.840, 90 138.622 C 90 136.958, 89.452 136, 88.500 136 C 87.675 136, 87 136.620, 87 137.378" stroke="none" fill="black" fill-rule="evenodd"/>
</svg>