<svg xmlns="http://www.w3.org/2000/svg" width="192" height="144" viewBox="0 0 192 144" version="1.1">
	<path d="M -0 40.965 C -0 80.748, 0.057 81.960, 1.977 82.988 C 3.064 83.570, 4.461 84.993, 5.081 86.152 C 6.131 88.114, 5.997 88.227, 3.104 87.802 L 0 87.346 0 115.673 L 0 144 23.750 143.882 C 39.618 143.804, 45.892 143.495, 42.655 142.952 C 39.991 142.505, 36.936 141.348, 35.868 140.380 C 34.594 139.228, 31.785 138.484, 27.713 138.221 C 24.296 138.001, 19.420 136.907, 16.878 135.790 L 12.255 133.759 12.477 128.129 C 12.767 120.786, 16.001 114.258, 19.762 113.427 C 34.252 110.227, 46.544 103.066, 52.920 94.112 C 54.793 91.483, 54.807 91.153, 53.243 86.802 C 51.692 82.489, 51.715 81.733, 53.674 72.603 C 54.813 67.299, 55.464 62.801, 55.122 62.607 C 54.780 62.412, 52.488 62.534, 50.029 62.877 C 46.610 63.353, 45.266 64.085, 44.320 65.983 C 42.315 70.008, 40.030 71.127, 35.272 70.414 C 31.743 69.884, 31 70.054, 31 71.386 C 31 74.707, 24.036 72.306, 21.860 68.235 C 19.819 64.417, 20.137 48.774, 22.391 42.178 C 24.434 36.197, 32.262 23.998, 36.879 19.599 L 39.924 16.699 37.462 13.773 C 34.003 9.662, 34.378 8.272, 37.886 12.199 L 40.772 15.429 47.136 12.353 C 58.423 6.899, 63.771 5.510, 73.500 5.510 C 83.422 5.509, 94.601 8.528, 96.612 11.752 C 97.244 12.764, 97.450 15.388, 97.101 17.987 C 96.617 21.598, 95.963 22.732, 93.750 23.792 C 91.768 24.741, 90.994 25.862, 90.978 27.805 C 90.947 31.571, 88.196 34.709, 83.510 36.321 C 80.345 37.410, 79.323 38.377, 78.575 40.988 C 78.055 42.799, 75.804 46.036, 73.571 48.181 C 71.229 50.432, 69.934 52.381, 70.509 52.790 C 71.057 53.181, 73.529 56.184, 76.003 59.464 C 78.476 62.744, 82.645 67.635, 85.266 70.332 C 87.888 73.029, 90.447 75.970, 90.954 76.868 C 91.657 78.112, 92.155 78.223, 93.053 77.335 C 93.956 76.441, 93.873 75.452, 92.697 73.093 C 90.872 69.436, 92.188 68.003, 94.432 71.206 C 97.391 75.431, 95.291 82.093, 91.463 80.624 C 90.161 80.124, 89.026 80.688, 87.512 82.588 C 86.139 84.309, 83.991 85.485, 81.444 85.910 C 77.002 86.652, 77.158 85.874, 78.918 98.500 C 79.531 102.900, 80.299 114.938, 80.625 125.250 L 81.217 144 84.608 144 C 86.956 144, 88 143.538, 88 142.500 C 88 140.558, 91.421 140.564, 93.367 142.510 C 94.679 143.822, 101.261 143.985, 143.688 143.760 L 192.500 143.500 192.746 71.750 L 192.992 -0 96.496 -0 L 0 0 -0 40.965 M 0.457 41.500 C 0.456 64.050, 0.588 73.418, 0.749 62.317 C 0.909 51.216, 0.910 32.766, 0.749 21.317 C 0.589 9.868, 0.457 18.950, 0.457 41.500 M 135 14.893 C 135 16.143, 137.823 17.096, 138.462 16.061 C 138.752 15.593, 138.279 14.937, 137.412 14.605 C 135.316 13.800, 135 13.838, 135 14.893 M 110.500 28 C 108.824 28.720, 109.026 28.871, 111.750 28.930 C 113.537 28.968, 115 28.550, 115 28 C 115 26.813, 113.263 26.813, 110.500 28 M 66 52.833 C 66 53.383, 66.397 53.983, 66.883 54.167 C 68.728 54.864, 79 68.338, 79 70.062 C 79 71.056, 78.537 73.087, 77.972 74.574 C 76.682 77.966, 77.042 78.315, 80.482 77.007 C 82.868 76.100, 83.161 75.557, 82.650 72.999 C 82.324 71.372, 78.855 66.094, 74.941 61.270 C 67.973 52.684, 66 50.822, 66 52.833 M 103.441 65.450 C 101.568 66.849, 101.580 66.880, 103.766 66.330 C 105.012 66.016, 106.276 65.363, 106.575 64.879 C 107.420 63.511, 105.591 63.844, 103.441 65.450 M 0.441 115.500 C 0.442 131.450, 0.580 137.835, 0.748 129.689 C 0.916 121.543, 0.916 108.493, 0.747 100.689 C 0.579 92.885, 0.441 99.550, 0.441 115.500 M 83.543 131.931 C 82.860 133.036, 84.437 134.230, 85.361 133.306 C 86.311 132.355, 86.134 131, 85.059 131 C 84.541 131, 83.859 131.419, 83.543 131.931 M 112.154 133.438 C 112.345 134.355, 112.950 135.082, 113.500 135.053 C 114.984 134.974, 114.712 132.737, 113.154 132.218 C 112.313 131.938, 111.939 132.395, 112.154 133.438 M 164 140.393 C 164 140.609, 164.675 141.045, 165.500 141.362 C 166.325 141.678, 167 141.501, 167 140.969 C 167 140.436, 166.325 140, 165.500 140 C 164.675 140, 164 140.177, 164 140.393" stroke="none" fill="black" fill-rule="evenodd"/>
</svg>