<svg xmlns="http://www.w3.org/2000/svg" width="192" height="144" viewBox="0 0 192 144" version="1.1">
	<path d="M 67.389 66.714 C 65.528 68.722, 65.023 70.322, 65.119 73.899 C 65.264 79.320, 66.926 82.376, 70.715 84.192 C 72.698 85.142, 73.630 86.489, 74.046 89.006 C 74.769 93.371, 78.775 99.572, 81.750 100.930 C 82.987 101.495, 84.014 102.529, 84.032 103.229 C 84.070 104.777, 88.542 110, 89.830 110 C 90.339 110, 91.281 109.366, 91.924 108.592 C 92.850 107.476, 92.549 106.640, 90.477 104.568 C 87.819 101.910, 87.485 99.004, 89.750 98.250 C 90.438 98.021, 91 98.561, 91 99.450 C 91 100.339, 92.185 103.405, 93.634 106.264 C 95.352 109.656, 96.443 113.726, 96.772 117.981 C 97.086 122.045, 97.981 125.505, 99.149 127.169 C 100.794 129.514, 101.632 129.816, 106.050 129.657 C 109.986 129.514, 111.342 129.020, 112.289 127.381 C 112.955 126.229, 114.999 123.310, 116.832 120.893 C 118.665 118.477, 120.531 115.850, 120.980 115.056 C 121.684 113.811, 122.395 113.802, 126.148 114.992 C 128.542 115.751, 130.661 116.487, 130.859 116.628 C 131.056 116.769, 128.986 120.052, 126.258 123.924 C 123.530 127.796, 121.118 130.786, 120.899 130.567 C 120.680 130.349, 120.501 132.488, 120.501 135.321 C 120.502 139.313, 120.874 140.545, 122.152 140.791 C 123.892 141.126, 132.828 132.858, 136.885 127.161 C 138.178 125.345, 141.331 122.204, 143.891 120.180 C 146.452 118.156, 148.567 116.275, 148.592 116 C 148.617 115.725, 149.181 113.339, 149.846 110.699 C 150.511 108.058, 150.791 105.470, 150.468 104.949 C 149.442 103.288, 146.800 103.924, 144.524 106.379 C 141.233 109.930, 138.399 111.141, 135.271 110.332 C 133.747 109.937, 131.825 109.553, 131 109.478 C 130.175 109.403, 128.664 109.265, 127.642 109.171 C 126.138 109.033, 125.911 108.475, 126.455 106.250 C 127.346 102.602, 131.933 96, 133.577 96 C 135.648 96, 136.121 94.359, 134.852 91.575 C 133.467 88.536, 134.115 88.582, 120.926 90.577 C 105.010 92.985, 97.897 91.488, 92.664 84.626 C 89.151 80.021, 89.291 79.219, 93.750 78.414 C 101.167 77.075, 103.227 74.336, 98.453 72.161 C 94.805 70.498, 93.017 70.744, 88.500 73.526 C 84.438 76.028, 81.393 76.791, 82.479 75.034 C 82.807 74.503, 82.153 72.260, 81.026 70.050 C 79.598 67.252, 78.144 65.857, 76.238 65.456 C 74.732 65.139, 72.664 64.711, 71.642 64.505 C 70.569 64.289, 68.771 65.223, 67.389 66.714" stroke="none" fill="black" fill-rule="evenodd"/>
</svg>