<svg xmlns="http://www.w3.org/2000/svg" width="192" height="144" viewBox="0 0 192 144" version="1.1">
	<path d="M 133.719 6.210 C 130.798 6.985, 129.615 7.985, 128.520 10.607 C 127.391 13.308, 126.531 14.004, 124.301 14.022 C 120.070 14.055, 113.852 17.265, 110.398 21.200 C 106.210 25.969, 105.056 34.190, 108.009 38.210 C 110.390 41.450, 110.496 42.623, 108.506 43.737 C 107.327 44.397, 107.223 45.197, 108.012 47.536 C 108.562 49.166, 109.476 52.412, 110.044 54.750 C 111.043 58.861, 111.207 59, 115.039 59 C 118.999 59, 119 59.001, 119 63.031 C 119 66.407, 118.411 67.583, 115.367 70.281 C 113.370 72.051, 110.896 73.965, 109.870 74.534 C 106.969 76.142, 101.051 88.713, 101.015 93.346 C 101.007 94.361, 100.113 96.437, 99.030 97.959 C 97.946 99.480, 97.346 101.012, 97.696 101.363 C 98.047 101.713, 98.038 102, 97.677 102 C 97.315 102, 95.665 99.013, 94.010 95.362 C 91.952 90.823, 91 87.145, 91 83.732 L 91 78.742 98.250 79.444 C 107.082 80.300, 106.322 78.806, 97.027 77.041 C 92.446 76.171, 89.877 75.081, 88.235 73.309 C 85.804 70.685, 84.789 70.633, 73.750 72.563 C 69.641 73.282, 68.876 74.473, 72 75.290 C 73.100 75.577, 74 76.574, 74 77.505 C 74 78.436, 75.291 80.404, 76.870 81.878 C 78.983 83.852, 80.158 86.397, 81.325 91.529 C 82.198 95.363, 83.586 100.412, 84.411 102.750 C 85.737 106.505, 85.738 107, 84.424 107 C 83.606 107, 82.712 106.414, 82.437 105.697 C 82.162 104.980, 79.437 102.618, 76.382 100.447 C 66.890 93.702, 66.069 92.971, 59.768 85.650 C 51.264 75.770, 47.469 73.929, 45.288 78.626 C 44.159 81.058, 44.450 81.679, 49.538 87.676 C 52.542 91.217, 55 94.727, 55 95.476 C 55 96.225, 55.613 98.112, 56.362 99.669 C 57.112 101.226, 58.574 104.297, 59.612 106.494 C 61.440 110.361, 61.793 110.567, 70.752 112.994 C 78.002 114.958, 80.601 116.160, 82.764 118.551 C 84.282 120.229, 88.357 123.526, 91.820 125.878 C 96.339 128.947, 97.839 130.489, 97.134 131.339 C 95.783 132.966, 95.502 136.862, 96.454 140.750 L 97.250 144 122.625 144 C 150.967 144, 150.754 144.063, 144.566 137.502 C 141.731 134.495, 140.947 132.663, 140.066 126.989 C 139.480 123.209, 139 117.423, 139 114.130 C 139 110.038, 138.506 107.649, 137.439 106.582 C 136.025 105.168, 136.294 105.079, 140.308 105.629 C 143.117 106.014, 144.989 105.827, 145.427 105.118 C 145.807 104.503, 146.991 104, 148.059 104 C 149.127 104, 150 103.550, 150 103 C 150 102.450, 150.910 102, 152.021 102 C 153.206 102, 154.513 100.967, 155.180 99.504 C 156.303 97.039, 156.335 97.033, 157.734 99.031 C 158.828 100.592, 158.933 102.072, 158.197 105.527 C 157.166 110.360, 157.501 110.980, 159.670 108.250 C 160.883 106.723, 160.978 107.233, 160.415 112.250 C 159.972 116.198, 160.119 118, 160.885 118 C 161.500 118, 162 119.625, 162 121.622 C 162 124.674, 162.229 125.055, 163.450 124.041 C 164.686 123.016, 164.814 123.369, 164.319 126.419 C 163.763 129.846, 165.042 131.359, 166.500 129 C 167.475 127.423, 169.001 127.835, 168.361 129.502 C 168.044 130.328, 168.062 132.113, 168.402 133.467 C 169.165 136.506, 171.213 135.922, 172.804 132.212 C 173.914 129.621, 173.944 129.612, 173.458 132 C 173.178 133.375, 172.673 136.637, 172.335 139.250 L 171.721 144 181.861 144 L 192 144 191.998 110.750 L 191.995 77.500 186.523 74.641 C 179.769 71.112, 169.127 61.494, 165.335 55.491 C 163.776 53.023, 162.275 51.006, 162 51.008 C 161.725 51.011, 160.693 52.430, 159.707 54.163 C 156.976 58.959, 155.961 56.632, 155.452 44.405 C 154.933 31.963, 153.083 24.441, 149.491 20.172 C 148.083 18.498, 147 15.944, 147 14.295 C 147 12.380, 145.931 10.286, 143.881 8.190 C 140.569 4.802, 139.679 4.628, 133.719 6.210 M 152.625 51.821 C 151.547 53.535, 152.873 62.527, 154.032 61.368 C 154.512 60.888, 154.579 58.246, 154.180 55.497 C 153.708 52.247, 153.165 50.962, 152.625 51.821 M 134.529 114.296 C 133.519 116.628, 134.450 124.850, 135.887 126.287 C 137.218 127.618, 137.323 122.722, 136.096 116.500 C 135.482 113.386, 135.135 112.898, 134.529 114.296" stroke="none" fill="black" fill-rule="evenodd"/>
</svg>