<svg xmlns="http://www.w3.org/2000/svg" width="192" height="144" viewBox="0 0 192 144" version="1.1">
	<path d="M 0 72 L 0 144 37.878 144 L 75.757 144 76.888 136.397 C 77.738 130.683, 77.731 127.834, 76.861 124.930 C 75.892 121.698, 75.996 120.284, 77.492 116.283 C 79.903 109.838, 80.584 109.134, 85.640 107.861 C 90.958 106.521, 91.226 104.656, 86.500 101.867 C 82.880 99.732, 81.895 96.296, 83.965 93.023 C 84.582 92.047, 84.463 91.029, 83.614 90.023 C 82.908 89.185, 81.752 87.040, 81.046 85.256 C 79.950 82.486, 79.998 81.652, 81.375 79.551 C 83.688 76.021, 82.317 69.630, 79.149 69.173 C 76.958 68.856, 76.893 68.553, 77.271 60.377 C 77.486 55.720, 77.288 51.678, 76.831 51.395 C 75.314 50.458, 75.972 47.035, 77.900 45.830 C 78.945 45.178, 79.570 44.043, 79.288 43.309 C 78.422 41.050, 81.125 38.775, 83.994 39.349 C 85.867 39.723, 86.940 39.326, 87.809 37.935 C 89.105 35.859, 92.470 35.333, 93.525 37.041 C 93.879 37.613, 95.063 37.797, 96.158 37.450 C 97.382 37.061, 98.599 37.403, 99.323 38.339 C 99.971 39.175, 101.625 40.003, 103 40.179 C 105.151 40.455, 105.505 41.016, 105.533 44.200 C 105.551 46.235, 105.873 48.206, 106.248 48.581 C 106.623 48.956, 106.510 50.046, 105.998 51.004 C 105.420 52.085, 105.429 54.010, 106.024 56.082 C 106.591 58.060, 106.614 59.786, 106.081 60.319 C 105.547 60.853, 105.598 62.418, 106.206 64.161 C 106.770 65.779, 107.067 67.192, 106.866 67.301 C 106.665 67.410, 105.610 67.993, 104.521 68.595 C 103.433 69.198, 102.262 71.067, 101.918 72.748 C 101.405 75.253, 101.916 76.591, 104.742 80.153 C 109.139 85.693, 110.654 88.637, 111.540 93.363 C 112.322 97.532, 115.353 101, 118.213 101 C 119.252 101, 120.462 102.086, 121 103.500 C 121.593 105.059, 122.732 106, 124.027 106 C 125.465 106, 126.463 107.001, 127.270 109.250 C 127.911 111.037, 128.329 112.862, 128.199 113.305 C 128.070 113.748, 128.583 114.994, 129.339 116.074 C 131.336 118.925, 130.222 122.834, 126.926 124.538 C 122.873 126.634, 122.664 126.470, 123.317 121.702 C 123.874 117.640, 123.744 117.342, 120.953 116.288 C 118.982 115.544, 118 114.480, 118 113.087 C 118 111.528, 117.368 111, 115.500 111 C 113.643 111, 113 110.471, 113 108.941 C 113 107.809, 112.602 107.128, 112.115 107.429 C 110.306 108.547, 110.305 114.799, 112.113 125 C 113.136 130.775, 113.979 137.418, 113.987 139.762 L 114 144.023 153.250 143.762 L 192.500 143.500 192.757 71.750 L 193.013 0 96.507 0 L 0 0 0 72 M 0.474 72.500 C 0.474 112.100, 0.598 128.154, 0.750 108.176 C 0.901 88.198, 0.901 55.798, 0.750 36.176 C 0.598 16.554, 0.474 32.900, 0.474 72.500" stroke="none" fill="black" fill-rule="evenodd"/>
</svg>