<svg xmlns="http://www.w3.org/2000/svg" width="192" height="144" viewBox="0 0 192 144" version="1.1">
	<path d="M 0 72 L 0 144 77.291 144 L 154.582 144 156.291 137.586 C 158.870 127.907, 158.621 125.500, 154.884 123.952 C 152.190 122.836, 151.647 122.879, 150.871 124.266 C 148.988 127.632, 138.771 139.874, 137.409 140.396 C 135.493 141.132, 131.082 139.376, 130.403 137.608 C 129.796 136.025, 132.811 131.035, 138.930 123.500 C 141.163 120.750, 142.814 118.023, 142.599 117.439 C 142.220 116.411, 150.841 104.168, 156.091 98.280 C 158.028 96.107, 158.484 94.838, 157.898 93.252 C 156.678 89.955, 153.796 89, 145.066 89 C 140.630 89, 137 88.622, 137 88.159 C 137 87.697, 127.308 87.027, 115.462 86.671 L 93.923 86.023 89.962 88.644 C 87.783 90.086, 86 91.569, 86 91.940 C 86 92.933, 78.661 96, 76.286 96 C 75.164 96, 73.689 95.330, 73.009 94.511 C 72.329 93.692, 71.402 93.251, 70.949 93.531 C 70.496 93.812, 63.543 102.775, 55.499 113.450 C 47.455 124.126, 40.260 133.369, 39.509 133.992 C 38.459 134.864, 37.210 134.505, 34.073 132.429 C 31.833 130.947, 30 129.056, 30 128.227 C 30 127.399, 29.212 126.145, 28.250 125.441 C 27.287 124.737, 26.498 123.787, 26.496 123.331 C 26.493 122.874, 25.101 119.575, 23.402 116 C 17.286 103.129, 15.513 93.850, 16.263 78.626 C 16.817 67.380, 19.628 55.915, 23.650 48.500 C 27.415 41.560, 32.223 34.978, 34.942 33.041 L 37.853 30.968 55.103 52.484 C 66.404 66.580, 72.993 74, 74.208 74 C 75.229 74, 77.512 73.406, 79.282 72.681 C 81.597 71.732, 84.745 71.562, 90.500 72.073 C 94.900 72.465, 103.675 72.367, 110 71.857 C 116.325 71.347, 125.325 71.024, 130 71.141 C 135.743 71.284, 139.196 70.914, 140.647 70 C 142.479 68.846, 143.749 68.906, 149.294 70.407 C 157.595 72.654, 160.153 72.298, 161.092 68.767 C 161.691 66.512, 161.355 65.697, 159.169 64.105 L 156.521 62.175 159.260 60.927 C 160.767 60.241, 161.994 58.964, 161.986 58.089 C 161.950 53.825, 160.589 52.226, 154.396 49.173 C 150.841 47.419, 147.699 45.201, 147.415 44.242 C 147.130 43.284, 146.308 41.334, 145.587 39.910 C 144.490 37.742, 144.513 36.869, 145.727 34.552 C 146.524 33.030, 146.936 30.864, 146.642 29.739 C 146.348 28.614, 146.803 26.347, 147.655 24.701 C 149.117 21.873, 149.101 21.748, 147.351 22.424 C 143.505 23.912, 140 24.246, 140 23.125 C 140 22.506, 140.450 22, 141 22 C 141.550 22, 142 21.346, 142 20.547 C 142 19.748, 143.831 17.623, 146.069 15.824 C 149.818 12.811, 150.087 12.276, 149.478 9.029 C 148.627 4.494, 147.506 3.833, 141.895 4.555 C 138.443 4.999, 136.897 4.754, 135.717 3.574 C 134.851 2.708, 133.661 2, 133.071 2 C 132.482 2, 132 1.550, 132 1 C 132 0.343, 109.333 0, 66 0 L 0 0 0 72 M 138 1 C 139.968 2.272, 144.714 2.272, 145.500 1 C 145.880 0.386, 144.264 0.006, 141.309 0.015 C 137.835 0.026, 136.917 0.300, 138 1 M 151.015 7.750 C 151.024 8.713, 151.435 10.139, 151.930 10.921 C 152.692 12.125, 153.247 12.068, 155.570 10.546 L 158.311 8.750 155.041 7.375 C 150.943 5.652, 150.997 5.647, 151.015 7.750" stroke="none" fill="black" fill-rule="evenodd"/>
</svg>