<svg xmlns="http://www.w3.org/2000/svg" width="192" height="144" viewBox="0 0 192 144" version="1.1">
	<path d="M 75.836 8.250 C 75.157 9.488, 74.579 14.100, 74.551 18.500 L 74.500 26.500 77.250 26.212 C 78.763 26.054, 80 26.104, 80 26.325 C 80 26.545, 78.622 28.460, 76.937 30.580 C 74.084 34.170, 73.994 34.522, 75.628 35.717 C 76.593 36.423, 77.684 37, 78.053 37 C 78.422 37, 79.039 40.478, 79.425 44.730 C 79.810 48.981, 80.659 52.793, 81.313 53.201 C 82.114 53.702, 81.325 54.916, 78.888 56.931 C 75.895 59.406, 75.073 60.953, 74.088 65.959 C 73.025 71.359, 72.642 72, 70.475 72 C 68.330 72, 68.117 72.337, 68.632 74.910 C 69.351 78.505, 68.059 82.540, 61.838 96.131 C 59.162 101.979, 57.186 107.379, 57.448 108.131 C 57.710 108.884, 58.382 114.610, 58.942 120.856 C 59.502 127.102, 60.622 133.541, 61.433 135.165 C 62.494 137.293, 62.639 138.818, 61.953 140.624 C 61.429 142.002, 61 143.326, 61 143.565 C 61 143.804, 74.275 144, 90.500 144 C 106.725 144, 120 143.769, 120 143.486 C 120 143.203, 117.993 138.815, 115.541 133.736 C 110.358 123.002, 107.979 116.613, 108.052 113.624 C 108.081 112.456, 109.144 114.299, 110.416 117.721 C 112.696 123.859, 119.824 135.779, 122.582 138.068 C 126.275 141.133, 128.220 133.934, 125.929 125.682 C 125.175 122.967, 125.181 121.487, 125.949 120.561 C 126.657 119.708, 126.853 115.160, 126.516 107.379 C 125.501 83.930, 124.220 78.056, 117.277 65 C 114.792 60.325, 112.618 54.925, 112.448 53 C 112.278 51.075, 111.863 47.639, 111.526 45.365 C 111.068 42.284, 111.322 40.821, 112.521 39.622 C 113.406 38.737, 114.354 36.776, 114.628 35.265 C 114.902 33.754, 115.727 31.839, 116.462 31.009 C 119.202 27.912, 123.932 17.987, 123.368 16.517 C 121.944 12.804, 108.047 11.177, 104.208 14.273 C 103.302 15.003, 102.568 14.968, 101.758 14.158 C 101.121 13.521, 99.360 13, 97.844 13 C 96.329 13, 93.441 11.881, 91.426 10.514 C 87.797 8.051, 82.091 6.016, 78.785 6.006 C 77.842 6.003, 76.515 7.012, 75.836 8.250 M 117.599 84 C 117.933 86.475, 118.657 88.950, 119.208 89.500 C 119.878 90.168, 119.967 89.338, 119.476 87 C 118.232 81.080, 116.923 78.987, 117.599 84 M 104.694 86.939 C 103.730 92.440, 104.841 104.483, 106.683 108.500 C 107.986 111.342, 108.022 111.211, 107.375 106 C 106.999 102.975, 106.417 96.450, 106.081 91.500 C 105.517 83.177, 105.413 82.834, 104.694 86.939" stroke="none" fill="black" fill-rule="evenodd"/>
</svg>