<svg xmlns="http://www.w3.org/2000/svg" width="192" height="144" viewBox="0 0 192 144" version="1.1">
	<path d="M 0 72 L 0 144 8.750 143.850 C 13.563 143.768, 16.264 143.513, 14.752 143.284 C 12.053 142.875, 11.848 142.511, 10.564 135.868 C 10.103 133.482, 12.291 125.559, 13.970 123.536 C 14.766 122.578, 19.826 118.645, 25.216 114.796 C 30.607 110.948, 37.150 105.260, 39.758 102.157 C 42.366 99.053, 45.099 95.880, 45.831 95.105 C 47.399 93.444, 46.465 81.946, 44.669 80.811 C 43.934 80.346, 44.136 79.507, 45.290 78.232 C 46.230 77.193, 47 74.944, 47 73.234 C 47 70.285, 46.833 70.153, 43.749 70.653 C 41.183 71.070, 39.458 70.476, 35.571 67.841 C 28.199 62.842, 26.623 60.182, 26.636 52.760 C 26.663 38.229, 35.506 23.466, 48.991 15.444 C 52.884 13.128, 53.828 12.074, 53.418 10.500 C 52.929 8.627, 52.986 8.611, 54.311 10.254 C 55.646 11.908, 55.975 11.913, 60.113 10.337 C 66.629 7.854, 82.955 7.905, 89.500 10.427 C 101.827 15.179, 108.263 21.377, 109.566 29.752 C 110.050 32.861, 109.794 34.665, 108.614 36.467 C 107.726 37.821, 107 39.440, 107 40.064 C 107 42.931, 103.602 47.922, 100.883 49.049 C 99.245 49.727, 97.261 51.529, 96.473 53.053 C 94.446 56.973, 90.582 59.726, 86.028 60.495 C 83.876 60.859, 81.589 61.790, 80.946 62.565 C 79.578 64.214, 80.405 67.136, 82.134 66.759 C 82.788 66.617, 83.917 68.482, 84.642 70.904 C 86.417 76.824, 84.945 79.784, 78.767 82.717 C 73.227 85.348, 71.577 84.966, 69.909 80.670 C 68.715 77.594, 68.666 77.572, 68.244 79.946 C 67.850 82.162, 68.220 83.891, 71.117 93.399 C 71.602 94.994, 72 105.625, 72 117.024 C 72 128.423, 72.282 139.160, 72.627 140.883 L 73.253 144.016 132.877 143.758 L 192.500 143.500 192.757 71.750 L 193.013 0 96.507 0 L 0 0 0 72 M 0.474 72.500 C 0.474 112.100, 0.598 128.154, 0.750 108.176 C 0.901 88.198, 0.901 55.798, 0.750 36.176 C 0.598 16.554, 0.474 32.900, 0.474 72.500 M 103.250 9.250 C 103.479 9.938, 104.267 10.500, 105 10.500 C 105.733 10.500, 106.521 9.938, 106.750 9.250 C 106.998 8.506, 106.289 8, 105 8 C 103.711 8, 103.002 8.506, 103.250 9.250 M 119.574 20.857 C 118.708 22.531, 118 24.479, 118 25.186 C 118 25.892, 118.927 24.741, 120.059 22.628 C 121.192 20.515, 121.900 18.567, 121.633 18.300 C 121.366 18.033, 120.439 19.184, 119.574 20.857 M 105.783 64.235 C 107.470 65.048, 108.369 65.031, 109.233 64.167 C 110.122 63.278, 109.580 63.016, 106.950 63.068 C 103.710 63.131, 103.639 63.202, 105.783 64.235 M 75.687 67.438 C 74.262 68.519, 74.018 69.581, 74.548 72.406 C 75.298 76.400, 75.335 76.427, 78.078 74.958 C 79.657 74.113, 79.824 73.539, 78.957 71.920 C 78.370 70.823, 78.169 69.041, 78.512 67.962 C 79.236 65.680, 78.247 65.497, 75.687 67.438 M 158.813 81.683 C 159.534 81.972, 160.397 81.936, 160.729 81.604 C 161.061 81.272, 160.471 81.036, 159.417 81.079 C 158.252 81.127, 158.015 81.364, 158.813 81.683 M 188.500 86 C 188.160 86.550, 188.809 87, 189.941 87 C 191.073 87, 192 86.550, 192 86 C 192 85.450, 191.352 85, 190.559 85 C 189.766 85, 188.840 85.450, 188.500 86 M 19.500 93 C 19.160 93.550, 19.557 94, 20.382 94 C 21.207 94, 22.160 93.550, 22.500 93 C 22.840 92.450, 22.443 92, 21.618 92 C 20.793 92, 19.840 92.450, 19.500 93 M 159.226 120.574 C 160.176 121.568, 161.227 122.107, 161.562 121.771 C 161.897 121.436, 161.120 120.623, 159.836 119.964 C 157.603 118.819, 157.576 118.846, 159.226 120.574 M 128.639 128.694 C 127.513 129.820, 127.954 131, 129.500 131 C 130.325 131, 131 130.577, 131 130.059 C 131 128.798, 129.438 127.895, 128.639 128.694 M 130 139 C 131.939 140.253, 133 140.253, 133 139 C 133 138.450, 131.988 138.007, 130.750 138.015 C 128.931 138.028, 128.787 138.216, 130 139 M 174 138.800 C 174 140.213, 176.345 142, 178.200 142 C 180.283 142, 180.515 140.915, 178.800 139.200 C 177.454 137.854, 174 137.566, 174 138.800" stroke="none" fill="black" fill-rule="evenodd"/>
</svg>