<svg xmlns="http://www.w3.org/2000/svg" width="192" height="144" viewBox="0 0 192 144" version="1.1">
	<path d="M 39 0.481 C 39 0.746, 40.316 3.783, 41.925 7.231 C 44.381 12.496, 45.097 15.960, 46.391 28.850 L 47.932 44.200 45.479 49.041 C 41.550 56.796, 37.302 68.131, 36.501 73 C 36.094 75.475, 35.095 79.176, 34.282 81.223 C 32.956 84.563, 32.969 85.112, 34.402 86.545 C 36.318 88.461, 36.462 91.110, 34.750 92.925 C 33.750 93.985, 33.750 94.342, 34.750 94.708 C 35.438 94.960, 36 96.056, 36 97.142 C 36 98.229, 36.403 98.869, 36.895 98.565 C 37.388 98.260, 38.095 98.796, 38.467 99.756 C 39.092 101.369, 39.253 101.350, 40.611 99.505 C 41.851 97.820, 42.220 97.738, 42.985 98.976 C 43.483 99.782, 44.240 100.093, 44.666 99.667 C 45.647 98.686, 45.104 91.853, 43.931 90.426 C 43.120 89.440, 44.055 80.722, 45.371 77 C 45.663 76.175, 46.394 73.574, 46.997 71.220 C 47.627 68.762, 48.528 67.208, 49.115 67.571 C 49.677 67.918, 49.896 68.829, 49.602 69.596 C 48.842 71.575, 52.477 79.585, 54.484 80.356 C 57.961 81.690, 60.936 80.895, 64.915 77.571 C 68.041 74.959, 70.325 73.978, 74.494 73.458 C 77.504 73.081, 80.730 73.066, 81.662 73.424 C 84.111 74.363, 93.509 71.151, 95.968 68.534 C 97.778 66.608, 98.106 64.844, 98.366 55.651 C 98.532 49.793, 98.296 45, 97.842 45 C 97.025 45, 93.205 48.969, 90.622 52.503 C 89.800 53.627, 88.650 54.080, 87.622 53.685 C 86.074 53.091, 86.071 52.775, 87.581 49.273 C 90.338 42.878, 91.197 38.863, 90.548 35.405 C 89.884 31.862, 85.909 28, 82.928 28 C 81.420 28, 81.210 27.387, 81.643 24.250 C 81.927 22.188, 82.536 19.600, 82.996 18.500 C 84.660 14.523, 84.846 11.696, 83.826 5.900 L 82.786 0 60.893 0 C 48.852 0, 39 0.216, 39 0.481 M 156 72 L 156 144 174 144 L 192 144 192 72 L 192 0 174 0 L 156 0 156 72" stroke="none" fill="black" fill-rule="evenodd"/>
</svg>