<svg xmlns="http://www.w3.org/2000/svg" width="192" height="144" viewBox="0 0 192 144" version="1.1">
	<path d="M 0 72 L 0 144 66.500 144 L 133 144 132.997 139.750 C 132.995 135.883, 132.663 135.320, 129.315 133.500 C 124.623 130.950, 123.393 127.442, 124.796 120.617 C 127.556 107.195, 129.150 100.829, 130.713 97 C 132.675 92.191, 133.074 90.164, 132.168 89.604 C 131.654 89.286, 132.072 86.565, 133.128 83.365 C 136.074 74.433, 135.319 70, 130.850 70 C 129.887 70, 128.666 69.226, 128.136 68.279 C 127.354 66.881, 127.051 67.303, 126.519 70.529 C 126.160 72.713, 125.624 75.788, 125.328 77.362 C 124.312 82.786, 113.547 92, 108.229 92 C 105.307 92, 107.861 89.458, 112.728 87.520 C 119.468 84.837, 122.820 80.619, 124.228 73.051 C 124.845 69.732, 125.082 66.749, 124.754 66.421 C 122.306 63.973, 104 63.066, 104 65.393 C 104 67.182, 102.411 67.699, 97.746 67.425 C 95.681 67.304, 93.807 67.504, 93.581 67.869 C 93.355 68.234, 89.870 68.263, 85.835 67.934 C 81.801 67.604, 72.172 67.547, 64.439 67.807 C 49.557 68.307, 44.669 67.502, 41.531 64.034 C 39.897 62.229, 39.963 62.071, 42.999 60.501 C 46.793 58.538, 52.724 58.439, 70.078 60.045 C 81.324 61.086, 83.099 61.044, 84.441 59.702 C 87.028 57.115, 95.393 56, 112.224 56 L 128.349 56 126.120 53.628 C 124.160 51.541, 124.088 51.180, 125.528 50.628 C 126.427 50.283, 128.288 50, 129.661 50 C 131.882 50, 132.090 49.687, 131.538 47.174 C 131.197 45.619, 131.375 43.144, 131.934 41.674 C 132.792 39.417, 132.681 38.998, 131.225 38.985 C 129.746 38.972, 129.714 38.831, 131 38 C 131.825 37.467, 134.870 37.024, 137.766 37.015 C 142.740 37.001, 143.120 36.816, 144.617 33.678 C 145.488 31.851, 147.056 29.822, 148.100 29.169 C 149.958 28.009, 150 29.194, 150 82.492 L 150 137 152.453 137 C 154.274 137, 155.334 137.903, 156.567 140.500 L 158.228 144 166.114 144 C 175.144 144, 175.136 144.011, 172.001 135.761 C 169.470 129.103, 169.495 128.289, 172.250 127.449 C 174.640 126.721, 178 124.135, 178 123.025 C 178 122.659, 176.313 120.396, 174.250 117.996 C 171.016 114.232, 166.551 104.258, 167.588 103.115 C 167.780 102.903, 169.061 103.465, 170.434 104.365 C 173.826 106.587, 174 106.499, 174 102.553 C 174 99.502, 173.394 98.705, 168.720 95.603 C 161.091 90.538, 158.600 87.565, 158.600 83.522 C 158.600 81.640, 159.396 79.220, 160.369 78.145 C 161.962 76.384, 162.404 76.329, 164.819 77.589 C 166.294 78.358, 168.760 78.990, 170.300 78.994 C 173.405 79.001, 177.993 81.082, 179.858 83.329 C 180.823 84.492, 180.655 85.886, 179.037 90.145 C 176.367 97.172, 175.502 104.134, 176.828 107.936 C 177.471 109.782, 177.519 111, 176.948 111 C 176.427 111, 176 112.053, 176 113.339 C 176 115.994, 179.478 118.077, 182.261 117.091 C 183.919 116.503, 183.905 116.236, 182.011 112.522 C 179.526 107.647, 179.455 99.033, 181.830 90.500 L 183.500 84.500 187.735 84.193 L 191.970 83.886 192.250 113.693 C 192.405 130.087, 192.532 111.100, 192.533 71.500 C 192.534 31.900, 192.407 11.406, 192.250 25.957 L 191.966 52.414 189.563 48.877 C 187.449 45.767, 186.669 45.350, 183.091 45.420 C 180.563 45.470, 178.828 44.995, 178.511 44.168 C 177.763 42.220, 177.854 42, 179.406 42 C 181.130 42, 180.395 38.366, 178.527 37.649 C 177.825 37.379, 176.937 34.655, 176.555 31.595 C 175.780 25.388, 174.968 24.378, 172.163 26.131 C 170.589 27.113, 169.487 26.934, 166.035 25.135 C 161.481 22.762, 156.100 22.970, 153.913 25.605 C 153.276 26.372, 152.135 27, 151.378 27 C 150.276 27, 150 24.300, 150 13.500 L 150 0 75 0 L 0 0 0 72 M 0.474 72.500 C 0.474 112.100, 0.598 128.154, 0.750 108.176 C 0.901 88.198, 0.901 55.798, 0.750 36.176 C 0.598 16.554, 0.474 32.900, 0.474 72.500 M 134.993 40.508 C 133.608 42.178, 134.242 48.642, 135.960 50.360 C 137.334 51.734, 140.100 48.104, 139.416 45.824 C 139.133 44.882, 139.641 43.741, 140.578 43.216 C 142.065 42.384, 141.992 42.108, 139.899 40.642 C 137.017 38.623, 136.568 38.611, 134.993 40.508 M 172.500 49.191 C 171.400 49.812, 169.825 51.202, 169 52.279 C 165.443 56.923, 163.861 58.091, 161.949 57.484 C 160.877 57.144, 160 57.306, 160 57.845 C 160 58.383, 161.756 59.121, 163.902 59.483 C 166.575 59.935, 167.963 60.750, 168.308 62.071 C 168.742 63.728, 169.734 64, 175.347 64 C 178.941 64, 182.171 63.532, 182.525 62.959 C 182.879 62.387, 184.030 62.192, 185.084 62.527 C 188.551 63.627, 187.194 60.434, 182.264 55.890 C 179.407 53.256, 177.647 50.825, 177.827 49.762 C 178.173 47.719, 175.594 47.442, 172.500 49.191 M 182.500 70 C 182.160 70.550, 182.610 71, 183.500 71 C 184.390 71, 184.840 70.550, 184.500 70 C 184.160 69.450, 183.710 69, 183.500 69 C 183.290 69, 182.840 69.450, 182.500 70" stroke="none" fill="black" fill-rule="evenodd"/>
</svg>