<svg xmlns="http://www.w3.org/2000/svg" width="192" height="144" viewBox="0 0 192 144" version="1.1">
	<path d="M 63.755 4.805 C 65.052 18.301, 58.381 35.523, 48.086 45.257 C 35.961 56.720, 13.657 63.077, 1.750 58.464 C 0.100 57.825, 0 60.247, 0 100.893 L 0 144 52.385 144 L 104.770 144 105.479 138.250 C 105.869 135.088, 107.509 128.362, 109.123 123.305 C 113.173 110.619, 117.104 89.594, 116.370 84.548 C 115.953 81.688, 114.859 79.712, 112.640 77.814 L 109.500 75.127 111.126 70.564 C 112.020 68.054, 112.429 66, 112.035 66 C 111.641 66, 109.109 66.670, 106.409 67.489 C 101.929 68.847, 101.392 68.832, 100.260 67.312 C 99.579 66.396, 98.737 65.929, 98.391 66.275 C 98.045 66.622, 97.108 66.251, 96.310 65.452 C 95.511 64.654, 93.414 64, 91.651 64 C 88.085 64, 73.989 59.775, 69.811 57.453 C 68.332 56.632, 66.609 56.081, 65.981 56.230 C 65.353 56.378, 64.095 55.412, 63.186 54.082 L 61.533 51.664 66.452 52.338 C 69.157 52.709, 72.376 53.672, 73.606 54.478 C 76.995 56.698, 96.227 59.818, 96.756 58.233 C 96.984 57.548, 97.633 57.273, 98.197 57.622 C 98.762 57.971, 99.577 57.684, 100.010 56.984 C 100.630 55.980, 101.757 55.953, 105.341 56.856 C 112.313 58.611, 115.676 58.348, 116.290 56 C 116.626 54.713, 116.320 54, 115.432 54 C 113.911 54, 110.628 48.411, 111.408 47.149 C 111.677 46.713, 111.021 45.606, 109.949 44.688 C 107.600 42.677, 107.466 40.207, 109.545 37.240 C 110.702 35.587, 110.827 34.546, 110.045 33.083 C 108.688 30.548, 108.702 27, 110.070 27 C 112.741 27, 126.785 33.536, 129.300 35.951 C 131.507 38.069, 132.296 40.027, 133.029 45.198 C 133.540 48.806, 134.417 52.967, 134.979 54.444 C 135.540 55.922, 136 58.420, 136 59.997 C 136 62.015, 136.853 63.471, 138.882 64.916 C 141.204 66.569, 141.774 67.738, 141.818 70.931 C 141.849 73.111, 142.443 75.931, 143.139 77.197 C 143.835 78.464, 144.978 83.775, 145.678 89 C 146.378 94.225, 147.368 100.500, 147.877 102.945 C 149.119 108.909, 147.820 112.390, 144.582 111.771 C 142.248 111.325, 142.226 111.389, 143.481 114.947 C 144.186 116.944, 146.336 121.711, 148.259 125.539 C 150.182 129.368, 152.571 135.097, 153.567 138.271 L 155.379 144.043 173.939 143.771 L 192.500 143.500 192.825 129 C 193.003 121.025, 192.837 88.737, 192.455 57.250 L 191.761 0 127.527 -0 L 63.294 -0 63.755 4.805 M 0.459 101 C 0.459 124.925, 0.589 134.713, 0.749 122.750 C 0.908 110.788, 0.908 91.213, 0.749 79.250 C 0.589 67.288, 0.459 77.075, 0.459 101 M 137.473 90.553 C 137.876 94.860, 138.565 99.310, 139.003 100.442 C 140.669 104.746, 141.289 99.034, 139.984 91.406 C 138.224 81.115, 136.535 80.541, 137.473 90.553" stroke="none" fill="black" fill-rule="evenodd"/>
</svg>