<svg xmlns="http://www.w3.org/2000/svg" width="192" height="144" viewBox="0 0 192 144" version="1.1">
	<path d="M 0 37.620 L 0 75.240 6.250 74.640 C 9.688 74.310, 20.150 73.757, 29.500 73.411 C 43.289 72.900, 47.787 73.085, 53.312 74.391 C 61.862 76.411, 68.515 76.435, 74.091 74.468 C 76.514 73.613, 79.663 73.206, 81.217 73.548 C 83.233 73.991, 84.169 73.723, 84.608 72.580 C 84.941 71.711, 86.254 71, 87.524 71 C 88.795 71, 92.009 70.052, 94.667 68.893 C 99.277 66.882, 100.537 66.815, 122 67.439 C 144.309 68.088, 166.501 69.574, 168.035 70.522 C 168.473 70.793, 169.933 70.596, 171.279 70.084 C 173.798 69.126, 175.516 65.437, 173.906 64.442 C 173.408 64.134, 172.986 64.471, 172.968 65.191 C 172.948 66.026, 172.429 65.831, 171.535 64.650 C 170.764 63.632, 169.653 63.096, 169.067 63.459 C 168.472 63.827, 168 63.369, 168 62.425 C 168 59.259, 165.684 52.985, 164.590 53.189 C 162.196 53.635, 158.834 51.693, 157.943 49.349 C 154.377 39.971, 164.089 26.871, 175.770 25.304 C 178.764 24.902, 181.244 25.446, 185.852 27.514 L 191.962 30.256 192.251 52.378 C 192.446 67.313, 192.615 62.398, 192.770 37.250 L 193 0 96.500 0 L 0 0 0 37.620 M 0.453 38 C 0.453 58.625, 0.586 67.063, 0.749 56.750 C 0.911 46.438, 0.911 29.563, 0.749 19.250 C 0.586 8.938, 0.453 17.375, 0.453 38 M 69.506 58.994 C 68.507 60.097, 68.155 61, 68.723 61 C 69.981 61, 72.475 58.142, 71.803 57.470 C 71.538 57.205, 70.504 57.890, 69.506 58.994 M 104.311 79.623 C 102.156 80.115, 102.152 80.152, 104.036 82.036 C 111.394 89.394, 103.159 103.068, 93.582 99.393 C 92.712 99.059, 92 98.159, 92 97.393 C 92 96.416, 93.298 96, 96.345 96 C 99.284 96, 101.225 95.408, 102.345 94.171 C 104.274 92.040, 104.533 86.933, 102.800 85.200 C 101.320 83.720, 94.782 83.618, 93.346 85.054 C 92.608 85.792, 91.153 85.567, 88.485 84.304 C 85.607 82.941, 84.574 82.805, 84.255 83.750 C 84.023 84.438, 83.141 85, 82.294 85 C 81.080 85, 81.003 85.299, 81.930 86.416 C 84.025 88.939, 79.609 89.248, 72.902 87.046 C 66.021 84.787, 60.529 84.516, 51.524 85.990 C 43.467 87.310, 12.394 84.424, 1.750 81.368 C 0.110 80.897, 0 82.844, 0 112.433 L 0 144 84.414 144 L 168.828 144 172.023 138.750 C 173.780 135.863, 176.168 132.466, 177.328 131.202 C 178.489 129.939, 179.504 127.914, 179.584 126.702 C 179.665 125.491, 180.077 123.214, 180.501 121.643 C 181.360 118.455, 180.061 117.041, 176.250 117.015 C 173.579 116.997, 173.488 116.333, 175.584 112.132 C 177.626 108.038, 176.772 102.729, 172.906 95.484 C 171.308 92.489, 170 89.440, 170 88.710 C 170 85.067, 167.250 83.680, 156.400 81.854 C 145.822 80.074, 109.205 78.506, 104.311 79.623 M 126 109.500 C 126 110.325, 126.436 111, 126.969 111 C 127.501 111, 127.678 110.325, 127.362 109.500 C 127.045 108.675, 126.609 108, 126.393 108 C 126.177 108, 126 108.675, 126 109.500" stroke="none" fill="black" fill-rule="evenodd"/>
</svg>