<svg xmlns="http://www.w3.org/2000/svg" width="192" height="144" viewBox="0 0 192 144" version="1.1">
	<path d="M 0 0.644 C 0 0.993, 0.788 1.877, 1.750 2.608 C 3.417 3.873, 3.417 3.938, 1.750 3.968 C 0.100 3.998, 0 8.012, 0 74 L 0 144 26 144 C 50.248 144, 52 143.880, 52 142.223 C 52 139.087, 49.007 136.033, 42.928 132.964 C 39.668 131.318, 37 129.536, 37 129.005 C 37 128.473, 35.899 127.762, 34.553 127.424 C 33.207 127.086, 31.394 125.724, 30.524 124.396 C 29.014 122.092, 29.059 121.930, 31.510 120.813 C 32.977 120.145, 33.860 119.078, 33.571 118.324 C 32.772 116.242, 37.312 113.913, 49.180 110.315 C 61.827 106.481, 66.515 103.968, 73.500 97.279 C 81.644 89.481, 82.323 88.473, 81.045 86.083 C 80.431 84.937, 79.270 84, 78.465 84 C 76.732 84, 76.524 82.412, 78.126 81.422 C 79.835 80.366, 78.547 69.262, 76.447 66.941 C 75.089 65.441, 74.845 63.954, 75.312 60.015 C 75.796 55.929, 75.624 55, 74.381 55 C 69.918 55, 68.428 49.211, 71.500 43.803 C 73.457 40.358, 73.617 39.474, 72.489 38.346 C 71.749 37.606, 70.661 37, 70.071 37 C 69.482 37, 69 36.305, 69 35.456 C 69 34.541, 68.288 34.032, 67.250 34.206 C 65.897 34.433, 65.443 33.706, 65.247 31 C 64.708 23.520, 77.335 12.152, 90.850 7.952 C 104.312 3.767, 122.563 5.119, 133.818 11.135 C 139.924 14.398, 150.253 23.795, 152.576 28.200 C 154.338 31.542, 154.432 36, 152.741 36 C 152.048 36, 150.893 36.941, 150.175 38.092 C 149.204 39.646, 148.242 40.026, 146.430 39.572 C 144.931 39.196, 143.023 39.594, 141.480 40.605 C 139.661 41.797, 137.856 42.073, 134.933 41.605 C 131.912 41.122, 130.492 41.365, 129.287 42.570 C 128.156 43.702, 126.760 43.990, 124.589 43.542 C 117.037 41.984, 115.200 41.867, 114.559 42.904 C 114.187 43.507, 112.837 44, 111.561 44 C 109.308 44, 109.219 44.339, 108.513 55.625 C 107.971 64.304, 108.094 67.440, 108.997 67.998 C 109.851 68.526, 109.914 69.297, 109.209 70.623 C 107.700 73.465, 108.075 90.815, 109.658 91.422 C 111.508 92.132, 114 89.266, 114 86.429 C 114 83.677, 115.936 83.057, 116.118 85.750 C 116.447 90.608, 114.060 94, 110.311 94 C 108.653 94, 107.307 92.940, 105.867 90.500 C 103.727 86.873, 101.059 86.019, 99.130 88.343 C 98.308 89.334, 98.391 92.805, 99.447 101.593 C 100.235 108.142, 101.423 120.367, 102.088 128.760 L 103.297 144.020 147.898 143.760 L 192.500 143.500 192.718 71.762 L 192.936 0.023 96.468 0.015 C 43.411 0.011, 0 0.294, 0 0.644 M 0.474 74 C 0.474 112.775, 0.598 128.638, 0.750 109.250 C 0.901 89.863, 0.901 58.138, 0.750 38.750 C 0.598 19.363, 0.474 35.225, 0.474 74 M 139.500 11 C 139.149 11.567, 139.990 12, 141.441 12 C 142.848 12, 144 11.550, 144 11 C 144 10.450, 143.127 10, 142.059 10 C 140.991 10, 139.840 10.450, 139.500 11 M 44.065 14.422 C 43.378 15.250, 43.285 16.058, 43.838 16.400 C 44.353 16.718, 45.296 16.348, 45.935 15.578 C 46.622 14.750, 46.715 13.942, 46.162 13.600 C 45.647 13.282, 44.704 13.652, 44.065 14.422 M 157 20.941 C 157 21.459, 157.445 22.157, 157.989 22.493 C 158.555 22.843, 158.723 22.442, 158.382 21.552 C 157.717 19.820, 157 19.503, 157 20.941 M 97.237 44.112 C 94.342 45.800, 91.462 48.152, 90.837 49.340 C 89.417 52.039, 87.867 53.113, 86.250 52.521 C 83.937 51.673, 84.975 53.553, 87.750 55.239 C 89.263 56.158, 92.818 59.067, 95.650 61.705 C 98.655 64.502, 101.831 66.557, 103.274 66.636 C 105.530 66.761, 105.803 66.319, 106.365 61.636 C 107.380 53.195, 107.098 43.498, 105.800 42.200 C 104.073 40.473, 103.110 40.688, 97.237 44.112 M 142.473 52.044 C 141.568 53.508, 142.884 54.982, 144.532 54.349 C 145.339 54.040, 146 53.432, 146 53 C 146 51.761, 143.129 50.982, 142.473 52.044 M 53.500 53 C 53.160 53.550, 53.332 54, 53.882 54 C 54.432 54, 55.160 53.550, 55.500 53 C 55.840 52.450, 55.668 52, 55.118 52 C 54.568 52, 53.840 52.450, 53.500 53 M 98.557 75.937 C 95.066 79.795, 99.881 81.623, 103.834 77.940 C 105.050 76.808, 105.783 75.458, 105.463 74.940 C 104.464 73.324, 100.390 73.912, 98.557 75.937 M 189.500 97 C 188.771 98.180, 189.717 100, 191.059 100 C 191.577 100, 192 99.100, 192 98 C 192 95.891, 190.545 95.309, 189.500 97 M 119.733 99.124 C 120.412 99.808, 121.219 100.115, 121.526 99.807 C 121.834 99.499, 121.279 98.940, 120.293 98.564 C 118.868 98.022, 118.753 98.136, 119.733 99.124 M 7 110 C 7 110.550, 7.702 111, 8.559 111 C 9.416 111, 9.840 110.550, 9.500 110 C 9.160 109.450, 8.459 109, 7.941 109 C 7.423 109, 7 109.450, 7 110 M 154 116 C 154 116.550, 154.477 117, 155.059 117 C 155.641 117, 155.840 116.550, 155.500 116 C 155.160 115.450, 154.684 115, 154.441 115 C 154.198 115, 154 115.450, 154 116 M 6.813 118.683 C 7.534 118.972, 8.397 118.936, 8.729 118.604 C 9.061 118.272, 8.471 118.036, 7.417 118.079 C 6.252 118.127, 6.015 118.364, 6.813 118.683 M 5.459 138.067 C 4.383 139.808, 5.608 140.177, 6.980 138.524 C 7.769 137.574, 7.845 137, 7.181 137 C 6.597 137, 5.821 137.480, 5.459 138.067" stroke="none" fill="black" fill-rule="evenodd"/>
</svg>