<svg xmlns="http://www.w3.org/2000/svg" width="192" height="144" viewBox="0 0 192 144" version="1.1">
	<path d="M 40.777 3.750 C 41.135 5.813, 41.444 8.850, 41.464 10.500 L 41.500 13.500 30.250 13.783 C 21.157 14.011, 19 14.347, 19 15.533 C 19 17.670, 22.917 21.246, 24.565 20.613 C 25.341 20.316, 28.258 19.769, 31.048 19.399 L 36.121 18.726 35.810 23.532 C 35.503 28.289, 35.452 28.354, 30.793 29.919 C 28.204 30.788, 25.572 32.017, 24.944 32.649 C 23.269 34.334, 24.776 38, 27.144 38 C 28.890 38, 29.112 38.557, 28.841 42.250 C 28.549 46.227, 28.705 46.520, 31.265 46.816 C 33.943 47.126, 34 47.271, 33.978 53.816 C 33.955 60.773, 31.803 67.271, 28.658 69.872 C 27.746 70.627, 27 72.319, 27 73.632 C 27 77.579, 14.193 103.062, 9.828 107.800 C 7.649 110.165, 6.027 112.640, 6.224 113.300 C 6.946 115.726, 18.666 120.731, 25.287 121.440 L 31.778 122.135 32.981 126.818 C 33.642 129.393, 35.125 134.313, 36.276 137.750 L 38.370 144 57.063 144 L 75.756 144 79.545 138.500 C 81.628 135.475, 83.516 133.182, 83.739 133.406 C 83.963 133.630, 83.665 135.542, 83.078 137.656 C 81.409 143.667, 81.576 144, 86.250 144 L 90.500 144 90.704 132.250 L 90.909 120.500 94.916 116.750 C 97.119 114.688, 99.327 113, 99.822 113 C 100.316 113, 100.674 115.588, 100.617 118.750 C 100.530 123.508, 100.985 125.171, 103.256 128.390 C 105.010 130.876, 106.005 133.581, 106.014 135.890 C 106.021 137.875, 106.300 140.520, 106.634 141.766 L 107.241 144.031 134.871 143.766 L 162.500 143.500 162.826 139 C 163.006 136.525, 162.156 126.168, 160.939 115.984 C 158.788 97.977, 158.772 97.093, 160.363 83.884 C 163.137 60.867, 162.158 51.943, 155.469 39.241 C 149.665 28.220, 141.040 24.002, 127.208 25.420 C 117.009 26.465, 112.283 29.716, 105.702 40.215 C 103.709 43.393, 103.541 44.402, 105.170 43.395 C 105.974 42.898, 106.124 43.234, 105.650 44.470 C 104.395 47.739, 106.051 53.069, 108.625 54.047 C 111.416 55.109, 111.543 55.742, 109.432 58.075 C 108.295 59.332, 108.130 60.316, 108.834 61.654 C 109.368 62.669, 110.393 65.479, 111.112 67.898 C 111.899 70.548, 113.130 72.483, 114.209 72.765 C 115.919 73.212, 116.814 75.997, 115.250 76.003 C 114.838 76.005, 114.487 77.917, 114.472 80.253 C 114.451 83.524, 113.819 85.121, 111.722 87.205 C 110.225 88.692, 109 90.349, 109 90.887 C 109 92.745, 104.914 93.232, 103.100 91.590 C 100.552 89.285, 98.458 89.628, 96.018 92.750 L 93.869 95.500 94.426 90.500 C 94.733 87.750, 95.123 75.600, 95.293 63.500 C 95.463 51.400, 95.943 40.771, 96.359 39.879 C 97.431 37.580, 94.349 34.822, 91.124 35.196 C 88.551 35.494, 88.507 35.627, 88.843 42 C 89.222 49.160, 87.121 98.606, 86.337 101 C 85.987 102.068, 85.399 101.636, 84.294 99.500 C 82.052 95.166, 76.067 88.001, 74.683 87.995 C 72.520 87.985, 61.317 76.400, 60.580 73.411 C 60.176 71.770, 57.431 68.226, 54.288 65.286 L 48.713 60.072 49.330 54.863 C 49.669 51.997, 50.409 49.191, 50.973 48.627 C 51.538 48.062, 52 46.955, 52 46.167 C 52 45.379, 52.833 44.007, 53.852 43.117 C 55.842 41.380, 59.131 35.563, 58.849 34.280 C 58.754 33.851, 60.148 30.451, 61.945 26.724 C 64.509 21.407, 65.074 19.208, 64.568 16.512 C 64.064 13.823, 64.366 12.634, 65.962 11.038 C 70.667 6.333, 66.872 2.021, 59.634 3.849 C 57.360 4.423, 54.106 4.885, 52.402 4.875 C 49.665 4.860, 49.359 4.575, 49.769 2.429 C 50.211 0.116, 49.991 -0, 45.179 -0 L 40.126 0 40.777 3.750 M 42.170 129 C 42.186 130.375, 42.560 132.625, 43 134 C 43.781 136.438, 43.801 136.425, 43.830 133.500 C 43.846 131.850, 43.473 129.600, 43 128.500 C 42.219 126.682, 42.143 126.727, 42.170 129" stroke="none" fill="black" fill-rule="evenodd"/>
</svg>