<svg xmlns="http://www.w3.org/2000/svg" width="192" height="144" viewBox="0 0 192 144" version="1.1">
	<path d="M 80.203 23.483 C 76.010 27.011, 74.185 30.599, 73.238 37.179 C 72.683 41.037, 71.925 42.728, 70.412 43.482 C 69.275 44.049, 67.561 45.296, 66.603 46.254 C 64.947 47.910, 64.967 48.145, 66.999 50.998 C 68.174 52.649, 69.750 54, 70.501 54 C 72.834 54, 73.365 57.935, 71.340 60.218 C 70.073 61.646, 69.872 62.422, 70.694 62.711 C 71.350 62.941, 71.611 63.849, 71.274 64.729 C 70.864 65.796, 71.052 66.086, 71.837 65.601 C 72.505 65.188, 73.273 65.547, 73.612 66.431 C 73.941 67.288, 74.625 67.732, 75.133 67.418 C 75.640 67.104, 76.901 67.891, 77.934 69.167 C 78.967 70.442, 80.417 71.533, 81.156 71.591 C 81.895 71.648, 83.287 71.764, 84.250 71.848 C 87.597 72.139, 86.110 74.891, 82.250 75.549 C 70.903 77.486, 68.608 79.098, 66.016 86.951 C 64.303 92.142, 60.514 94.580, 57.540 92.406 C 56.433 91.596, 53.254 91, 50.044 91 C 43.628 91, 38.693 88.766, 32.437 83.029 C 30.202 80.980, 26.226 78.045, 23.601 76.506 C 20.976 74.968, 18.527 72.896, 18.159 71.902 C 17.603 70.397, 16.024 71.535, 8.745 78.684 L 0 87.273 0 96.137 C 0 106.460, 1.149 107.444, 5.685 101.003 C 8.747 96.655, 10.946 96.252, 12.487 99.756 C 13.711 102.539, 15 102.664, 15 100 C 15 98.693, 15.667 98, 16.923 98 C 19.213 98, 25 102.632, 25 104.465 C 25 105.475, 25.921 105.421, 29.281 104.213 C 34.351 102.390, 37.672 103.012, 41.912 106.579 L 44.978 109.159 52.437 104.171 C 59.831 99.225, 64.957 97.237, 67.024 98.515 C 67.781 98.983, 67.764 99.580, 66.965 100.542 C 66.094 101.591, 66.335 102.434, 68.010 104.203 C 69.940 106.241, 70.115 107.213, 69.559 112.810 C 68.958 118.862, 69.050 119.224, 71.811 121.647 C 73.909 123.488, 74.564 124.827, 74.228 126.586 C 73.974 127.914, 73.482 129.007, 73.133 129.015 C 72.785 129.024, 71.890 129.417, 71.145 129.890 C 70.030 130.596, 70.101 131.225, 71.547 133.431 C 73.246 136.024, 73.230 136.246, 71.088 140.057 L 68.872 144 90.186 143.999 L 111.500 143.998 111.535 137.999 C 111.554 134.699, 111.254 132, 110.868 132 C 110.023 132, 107.134 124.315, 106.921 121.500 C 106.838 120.400, 106.862 118.150, 106.975 116.500 L 107.180 113.500 108.180 117 C 109.536 121.745, 110.753 123, 114 123 C 118.161 123, 119.377 120.830, 118.633 114.734 C 118.281 111.855, 117.764 108.600, 117.484 107.500 C 117.203 106.400, 117.388 104.866, 117.894 104.092 C 118.640 102.950, 119.585 103.295, 122.905 105.925 L 126.996 109.165 130.366 107.083 C 134.774 104.358, 136.606 104.455, 141.223 107.655 C 144.676 110.047, 145.174 110.150, 146.277 108.700 C 148.920 105.222, 158 103.638, 158 106.655 C 158 108.165, 158.169 108.157, 159.926 106.567 C 162.806 103.960, 165.168 104.984, 168.500 110.284 L 171.500 115.056 176.637 114.532 C 179.907 114.199, 183.315 114.553, 186.013 115.505 C 191.642 117.491, 192 117.427, 192 114.435 C 192 112.754, 190.880 110.955, 188.750 109.211 C 180.394 102.373, 170.255 91.794, 165.257 84.698 C 160.079 77.348, 159.681 77.011, 158.377 78.872 C 157.616 79.958, 155.308 81.396, 153.247 82.068 C 151.186 82.739, 145.768 85.249, 141.207 87.644 C 132.970 91.970, 129.595 92.669, 123.153 91.381 C 120.719 90.894, 119.407 89.610, 117.020 85.381 C 115.349 82.421, 113.874 79.987, 113.741 79.970 C 113.609 79.954, 110.350 78.904, 106.500 77.638 C 101.393 75.958, 99.418 74.817, 99.196 73.418 C 98.942 71.815, 99.065 71.746, 99.946 73 C 100.883 74.333, 101.111 74.333, 102 73 C 102.878 71.683, 103.115 71.679, 103.946 72.972 C 104.754 74.228, 104.993 74.183, 105.575 72.665 C 105.951 71.686, 106.838 71.108, 107.546 71.379 C 108.255 71.651, 109.102 71.176, 109.429 70.324 C 109.936 69.004, 110.269 68.976, 111.685 70.137 C 113.161 71.348, 113.282 71.248, 112.767 69.250 C 112.311 67.479, 112.609 67, 114.166 67 C 116.099 67, 116.096 66.937, 114.008 64.284 C 112.240 62.035, 112.109 61.389, 113.248 60.534 C 114.005 59.965, 114.939 58.662, 115.324 57.637 C 115.893 56.122, 116.299 56.003, 117.500 57 C 119.856 58.955, 120.630 55.336, 118.593 51.889 C 116.710 48.701, 117.381 48.130, 120.108 50.598 C 122.514 52.775, 124 51.570, 124 47.441 C 124 44.208, 124.201 44, 127.333 44 C 129.167 44, 130.901 43.766, 131.187 43.480 C 131.473 43.193, 130.648 40.867, 129.354 38.310 C 128.059 35.753, 127 31.937, 127 29.831 C 127 25.288, 126.166 25.127, 120.342 28.540 L 116.009 31.079 112.922 27.564 C 109.189 23.312, 105.441 22.142, 92.989 21.340 C 83.663 20.739, 83.414 20.780, 80.203 23.483" stroke="none" fill="black" fill-rule="evenodd"/>
</svg>