<svg xmlns="http://www.w3.org/2000/svg" width="192" height="144" viewBox="0 0 192 144" version="1.1">
	<path d="M 0 72 L 0 144 40.352 144 L 80.704 144 81.548 135.750 C 82.757 123.928, 82.254 92.023, 80.814 89.234 C 79.649 86.976, 79.628 86.984, 75.694 91.078 C 71.242 95.712, 71.465 95.699, 57.631 92.126 C 49.981 90.151, 46 87.895, 46 85.534 C 46 84.898, 43.705 83.790, 40.901 83.071 C 38.096 82.352, 34.271 80.421, 32.401 78.778 C 28.881 75.689, 27.877 73.355, 30.500 74.362 C 31.470 74.734, 32.011 74.330, 32.030 73.219 C 32.058 71.655, 32.156 71.664, 33.119 73.320 C 34.143 75.079, 34.223 75.079, 35.557 73.320 C 36.861 71.600, 36.938 71.624, 36.968 73.750 C 37.004 76.249, 37.986 76.614, 39.800 74.800 C 40.733 73.867, 41 73.978, 41 75.300 C 41 76.316, 41.781 77, 42.941 77 C 44.009 77, 45.160 77.450, 45.500 78 C 45.840 78.550, 48.032 79, 50.371 79 C 52.710 79, 56.615 79.962, 59.049 81.138 C 68.155 85.537, 68.575 85.486, 71.971 79.550 C 73.637 76.639, 75 73.615, 75 72.831 C 75 72.047, 76.781 69.666, 78.959 67.540 C 81.136 65.414, 82.671 63.276, 82.370 62.789 C 82.069 62.302, 83.437 60.381, 85.411 58.519 C 89.289 54.862, 90.111 52.512, 87.190 53.440 C 84.990 54.138, 79.334 48.218, 79.815 45.720 C 80.023 44.643, 79.232 43.845, 77.532 43.419 C 76.101 43.059, 74.282 41.512, 73.490 39.981 C 72.234 37.552, 72.238 36.563, 73.515 32.262 C 74.321 29.548, 75.850 26.541, 76.913 25.578 C 78.405 24.229, 78.714 23.012, 78.267 20.257 L 77.687 16.685 82.178 17.301 C 86.547 17.900, 86.715 17.821, 88.333 14.427 C 89.248 12.508, 90.785 10.694, 91.749 10.396 C 92.712 10.098, 94.306 9.422, 95.291 8.893 C 96.276 8.365, 97.531 8.210, 98.081 8.550 C 100.418 9.995, 104.386 17.789, 104.566 21.289 C 104.673 23.373, 105.501 25.896, 106.406 26.896 C 109.146 29.924, 111.788 38.968, 113.461 51.046 C 114.526 58.741, 116.352 66.093, 119.024 73.447 C 122.937 84.221, 123.900 88.674, 122.071 87.544 C 120.742 86.723, 120.260 91.004, 121.315 94.269 C 121.958 96.262, 121.619 99.222, 120.104 104.837 C 118.947 109.127, 118 114.013, 118 115.696 C 118 117.378, 117.325 119.315, 116.500 120 C 115.675 120.685, 115 122.341, 115 123.680 C 115 125.019, 114.498 128.108, 113.885 130.544 C 113.265 133.007, 113.070 136.984, 113.448 139.499 L 114.126 144.023 153.313 143.762 L 192.500 143.500 192.757 71.750 L 193.013 0 96.507 0 L 0 0 0 72 M 0.474 72.500 C 0.474 112.100, 0.598 128.154, 0.750 108.176 C 0.901 88.198, 0.901 55.798, 0.750 36.176 C 0.598 16.554, 0.474 32.900, 0.474 72.500" stroke="none" fill="black" fill-rule="evenodd"/>
</svg>