<svg xmlns="http://www.w3.org/2000/svg" width="192" height="144" viewBox="0 0 192 144" version="1.1">
	<path d="M 51.402 28.159 C 50.975 28.850, 50.515 30.445, 50.381 31.704 C 50.247 32.962, 49.866 34.846, 49.535 35.891 C 49.169 37.042, 49.634 38.493, 50.716 39.577 C 51.697 40.561, 52.517 41.846, 52.537 42.433 C 52.558 43.020, 53.405 44.749, 54.419 46.276 C 56.129 48.849, 56.145 49.183, 54.630 50.857 C 53.731 51.850, 53.294 52.961, 53.658 53.325 C 54.023 53.690, 53.628 54.778, 52.781 55.744 C 48.148 61.027, 46.751 67.739, 49.878 69.692 C 51.869 70.935, 51.679 73.815, 49.070 82 C 46.358 90.508, 44.294 103.387, 42.019 126 C 41.438 131.775, 40.789 138.188, 40.577 140.250 L 40.190 144 59.163 144 C 76.761 144, 78.097 143.873, 77.619 142.250 C 77.335 141.287, 76.612 133.618, 76.011 125.206 C 75.277 114.912, 74.098 106.903, 72.407 100.706 C 71.025 95.643, 69.857 90.825, 69.811 90 C 69.765 89.175, 69.296 87.952, 68.768 87.283 C 68.136 86.480, 68.394 84.536, 69.524 81.576 C 70.591 78.782, 70.981 76.060, 70.556 74.367 C 70.180 72.871, 69.632 68.464, 69.338 64.573 C 69.043 60.683, 68.165 55.968, 67.388 54.096 C 66.610 52.225, 66.092 50.626, 66.237 50.544 C 73.663 46.335, 74.435 44.657, 72.052 37.893 C 68.964 29.122, 63.018 25.320, 56.500 27.947 C 55.400 28.390, 53.978 28.337, 53.339 27.828 C 52.598 27.237, 51.897 27.357, 51.402 28.159 M 130.300 79.232 L 127.100 80.261 127.673 86.406 L 128.247 92.552 124.874 94.212 C 123.018 95.125, 120.713 96.112, 119.750 96.405 C 117.710 97.026, 117.379 101.245, 119.250 102.782 C 119.938 103.346, 122.367 103.590, 124.648 103.323 L 128.797 102.837 129.479 106.875 C 129.855 109.099, 129.679 112.392, 129.088 114.206 C 125.498 125.232, 125 127.828, 125 135.535 L 125 144 136.500 144 C 142.825 144, 148 143.646, 148 143.213 C 148 142.780, 148.972 142.352, 150.160 142.263 C 151.348 142.173, 152.691 141.515, 153.145 140.800 C 155.195 137.568, 152.943 126.170, 148.784 118.729 C 146.735 115.063, 146.442 113.429, 146.806 107.712 C 147.061 103.695, 147.688 100.969, 148.366 100.923 C 148.990 100.881, 150.400 100.650, 151.500 100.408 C 152.600 100.167, 154.287 99.881, 155.250 99.772 C 156.213 99.663, 157 99.032, 157 98.369 C 157 97.706, 157.251 96.510, 157.558 95.711 C 158.518 93.208, 155.193 91, 150.464 91 C 145.465 91, 144 89.360, 144 83.766 C 144 81.915, 143.460 79.860, 142.800 79.200 C 141.374 77.774, 134.787 77.791, 130.300 79.232" stroke="none" fill="black" fill-rule="evenodd"/>
</svg>