<svg xmlns="http://www.w3.org/2000/svg" width="192" height="144" viewBox="0 0 192 144" version="1.1">
	<path d="M 0 72 L 0 144 35.481 144 L 70.962 144 71.532 141.250 C 71.845 139.738, 74.165 132.139, 76.688 124.365 C 80.020 114.096, 81.082 109.461, 80.569 107.417 C 80.062 105.399, 79.630 104.981, 79.039 105.937 C 78.046 107.543, 76.613 105.253, 75.571 100.398 C 75.008 97.770, 74.533 97.367, 72.470 97.761 C 71.131 98.017, 67.097 97.051, 63.507 95.613 C 59.916 94.176, 56.087 93, 54.997 93 C 53.907 93, 51.866 91.710, 50.462 90.134 C 48.512 87.945, 46.713 87.126, 42.856 86.669 C 37.115 85.989, 30.252 82.997, 31 81.500 C 31.538 80.423, 32.036 80.292, 36.250 80.115 C 38.447 80.023, 39 79.522, 39 77.622 C 39 76.315, 38.325 74.685, 37.500 74 C 35.427 72.279, 35.427 64, 37.500 64 C 39.291 64, 39.445 61.071, 37.840 57.548 C 36.940 55.573, 36.978 54.097, 38.009 50.974 C 39.632 46.056, 41.329 46.313, 42 51.578 C 42.667 56.813, 44.425 56.868, 45.966 51.702 C 49.345 40.374, 52.448 38.799, 51.780 48.750 C 51.459 53.530, 51.775 56.457, 52.862 58.778 C 54.178 61.587, 54.221 63.084, 53.166 69.235 C 52.489 73.184, 51.231 77.192, 50.370 78.144 C 48.155 80.591, 49.462 81.962, 53.400 81.323 C 55.875 80.921, 57.916 81.439, 61.131 83.285 C 68.635 87.592, 69.510 87.580, 70.837 83.150 C 71.477 81.015, 72 78.143, 72 76.769 C 72 75.394, 72.900 73.126, 74 71.727 C 75.107 70.319, 76 67.670, 76 65.792 C 76 63.927, 76.492 61.908, 77.094 61.306 C 77.695 60.705, 78.563 55.520, 79.022 49.785 C 79.886 38.990, 82.613 29.205, 85.725 25.732 C 87.462 23.793, 87.433 23.765, 84.409 24.420 C 78.637 25.670, 77.781 21.124, 82.259 13 C 83.320 11.075, 84.497 9.171, 84.874 8.770 C 86.164 7.397, 93.496 10.204, 97.818 13.726 C 102.448 17.499, 101.554 17.409, 114.245 15.381 C 120.779 14.337, 121.170 14.939, 119.001 22.700 C 117.425 28.337, 117.295 30.160, 118.241 33.358 C 119.248 36.764, 119.111 37.728, 117.073 41.569 C 115.803 43.963, 114.479 45.868, 114.132 45.802 C 113.784 45.736, 112.712 46.027, 111.750 46.448 C 108.544 47.851, 110.278 60.200, 114.005 62.503 C 115.334 63.324, 122.148 74.827, 122.465 76.785 C 122.618 77.728, 122.363 78.982, 121.898 79.571 C 121.432 80.160, 121.325 82.948, 121.659 85.767 L 122.266 90.891 127.182 91.946 C 129.886 92.526, 133.326 93, 134.827 93 C 136.327 93, 138.596 93.729, 139.867 94.620 C 141.714 95.913, 142.675 96.014, 144.637 95.120 C 147.687 93.730, 156 93.642, 156 95 C 156 95.550, 155.063 96, 153.917 96 C 152.771 96, 152.007 96.521, 152.219 97.158 C 152.752 98.756, 156.712 99.224, 159.060 97.968 C 160.127 97.397, 161 97.317, 161 97.791 C 161 99.262, 156.694 102.546, 152.241 104.471 C 148.578 106.054, 147.419 106.142, 143.947 105.102 C 141.728 104.437, 139.104 104.150, 138.117 104.463 C 137.130 104.776, 134.753 104.377, 132.836 103.576 C 130.919 102.775, 126.294 101.587, 122.558 100.937 C 116.718 99.920, 115.537 99.351, 114.133 96.883 C 113.235 95.304, 112.162 94.010, 111.750 94.006 C 110.569 93.996, 110.875 100.805, 112.090 101.556 C 112.753 101.965, 112.926 103.583, 112.531 105.686 C 112.017 108.427, 112.814 111.459, 116.380 120.322 C 118.853 126.470, 121.692 134.317, 122.689 137.760 L 124.500 144.021 158.500 143.760 L 192.500 143.500 192.757 71.750 L 193.013 0 96.507 0 L 0 0 0 72 M 0.474 72.500 C 0.474 112.100, 0.598 128.154, 0.750 108.176 C 0.901 88.198, 0.901 55.798, 0.750 36.176 C 0.598 16.554, 0.474 32.900, 0.474 72.500" stroke="none" fill="black" fill-rule="evenodd"/>
</svg>