<svg xmlns="http://www.w3.org/2000/svg" width="192" height="144" viewBox="0 0 192 144" version="1.1">
	<path d="M 56.336 28.717 C 53.359 29.090, 53.130 29.418, 52.466 34.250 C 51.839 38.803, 52.009 39.589, 53.956 41.165 C 55.164 42.144, 55.899 43.354, 55.590 43.855 C 55.280 44.355, 55.915 45.893, 56.999 47.272 C 58.754 49.503, 58.803 49.919, 57.440 51.050 C 56.598 51.749, 56.158 52.969, 56.462 53.761 C 56.770 54.563, 56.014 55.997, 54.757 56.998 C 53.516 57.987, 51.624 60.450, 50.552 62.473 C 48.984 65.433, 48.839 66.476, 49.810 67.825 C 53.249 72.606, 53.412 73.888, 51.266 79.277 C 50.123 82.150, 48.932 85.655, 48.621 87.066 C 48.309 88.477, 47.142 90.683, 46.027 91.969 C 43.666 94.691, 43.475 96.319, 45.334 97.862 C 46.443 98.783, 46.381 101.122, 44.967 111.735 C 44.031 118.756, 42.939 128.887, 42.540 134.250 L 41.813 144 61.532 144 L 81.250 144 80.571 140.750 C 80.197 138.963, 79.029 131.875, 77.974 125 C 75.452 108.566, 70.625 90.663, 67.797 87.255 C 67.067 86.376, 67.244 85.277, 68.396 83.518 C 70.407 80.449, 71.371 60.363, 69.733 55.664 C 68.975 53.491, 68.979 52.507, 69.747 52.251 C 71.921 51.526, 75.936 47.105, 76.515 44.797 C 77.349 41.473, 73.883 33.921, 70.038 30.686 C 66.831 27.987, 64.653 27.674, 56.336 28.717 M 123.828 59.604 C 119.906 61.257, 118.282 63.682, 119.967 65.367 C 122.004 67.404, 120.930 70.291, 116.756 73.994 L 112.512 77.760 108.506 75.056 C 104.922 72.638, 104.236 72.490, 102 73.661 C 100.625 74.381, 98.263 74.977, 96.750 74.985 C 95.237 74.993, 94 75.441, 94 75.981 C 94 76.520, 95.237 77.233, 96.750 77.564 C 101.491 78.603, 101.980 78.888, 101.441 80.294 C 101.063 81.279, 102.539 82.024, 106.708 82.951 C 112.122 84.155, 124.730 89.701, 127.749 92.206 C 128.487 92.819, 128.874 93.885, 128.610 94.575 C 128.345 95.265, 129 97.538, 130.064 99.626 C 131.129 101.714, 132 104.150, 132 105.039 C 132 105.928, 129.952 113.490, 127.450 121.842 C 124.947 130.195, 123.173 137.471, 123.507 138.012 C 123.841 138.552, 125.925 139.284, 128.137 139.638 C 130.438 140.006, 132.655 141.076, 133.320 142.140 C 134.207 143.562, 135.694 144, 139.624 144 C 143.926 144, 144.852 143.673, 145.290 142 C 145.577 140.900, 146.642 139.993, 147.656 139.985 C 151.673 139.951, 152.060 138.833, 150.618 131.449 C 149.872 127.627, 148.701 120.675, 148.017 116 C 146.786 107.585, 144.397 94.953, 143.467 91.939 C 143.141 90.883, 144.202 89.794, 146.743 88.575 C 151.653 86.220, 158.902 84.024, 161.815 84.011 C 165.162 83.995, 174.139 79.920, 173.710 78.611 C 173.510 78, 172.143 77.358, 170.673 77.184 C 169.203 77.010, 168 76.500, 168 76.050 C 168 75.601, 166.992 74.970, 165.760 74.647 C 164.221 74.245, 160.488 75.619, 153.845 79.031 C 148.524 81.764, 143.683 84, 143.085 84 C 140.403 84, 142.183 79.188, 146 76.120 C 153.199 70.335, 150.413 64.746, 140.253 64.589 C 134.688 64.503, 134.504 64.412, 134.005 61.500 C 133.580 59.017, 132.975 58.462, 130.496 58.278 C 128.848 58.155, 125.848 58.752, 123.828 59.604" stroke="none" fill="black" fill-rule="evenodd"/>
</svg>