<svg xmlns="http://www.w3.org/2000/svg" width="192" height="144" viewBox="0 0 192 144" version="1.1">
	<path d="M 0 72 L 0 144 35.441 144 C 54.934 144, 71.099 143.649, 71.364 143.219 C 71.630 142.790, 72.127 138.627, 72.470 133.969 C 72.813 129.311, 73.329 124.710, 73.616 123.743 C 73.984 122.508, 73.188 121.469, 70.933 120.243 C 66.323 117.736, 61.813 113.186, 62.183 111.415 C 62.357 110.579, 62.825 109.904, 63.222 109.916 C 63.619 109.929, 65.407 108.602, 67.195 106.969 C 68.983 105.336, 70.752 104, 71.127 104 C 72.041 104, 77.754 93.806, 78.170 91.432 C 78.455 89.810, 77.951 89.595, 74.500 89.865 C 70.172 90.203, 66.632 92.598, 67.421 94.655 C 68.101 96.427, 66.193 97.405, 64.614 96.095 C 63.900 95.502, 62.967 95.351, 62.541 95.759 C 62.115 96.166, 62.080 95.037, 62.463 93.250 L 63.159 90 57.202 90 C 53.438 90, 50.835 89.506, 50.131 88.658 C 48.313 86.467, 49.872 86, 59.006 86 C 67.329 86, 67.726 85.897, 68.839 83.453 C 69.478 82.052, 69.998 80.590, 69.997 80.203 C 69.995 79.816, 67.520 78.166, 64.497 76.535 C 61.473 74.904, 59 72.992, 59 72.285 C 59 70.536, 59.465 70.639, 63.770 73.342 C 71.945 78.476, 71.522 78.480, 74.662 73.238 C 76.223 70.632, 77.969 66.712, 78.541 64.526 C 79.312 61.586, 80.933 59.452, 84.774 56.321 C 89.520 52.452, 89.813 51.978, 88.192 50.795 C 85.462 48.802, 82 43.422, 82 41.172 C 82 36.288, 91.113 29.949, 95.934 31.479 C 97.015 31.822, 99.250 31.405, 100.900 30.552 C 102.551 29.698, 105.215 29, 106.820 29 C 109.551 29, 109.774 29.300, 110.261 33.627 C 110.834 38.709, 108.106 45, 105.330 45 C 104.383 45, 103.961 45.804, 104.148 47.250 C 104.560 50.445, 103.298 51.987, 100.191 52.083 C 97.793 52.157, 97.996 52.402, 102.060 54.333 C 108.562 57.423, 110.586 59.132, 111.337 62.168 C 112.218 65.731, 126.595 80.093, 128.536 79.348 C 129.561 78.954, 130.012 79.492, 130.039 81.143 C 130.062 82.584, 131.198 84.277, 132.962 85.500 C 137.931 88.944, 179.327 122.869, 186.500 129.375 C 191.743 134.131, 191.649 135.603, 186.348 131.750 C 180.549 127.536, 172.309 121.166, 170.903 119.811 C 170.131 119.067, 167.250 116.684, 164.500 114.514 C 161.750 112.345, 158.375 109.553, 157 108.311 C 149.627 101.649, 146.398 99.044, 145.491 99.023 C 144.935 99.010, 143.908 98.083, 143.208 96.961 C 142.508 95.840, 141.572 95.146, 141.129 95.420 C 140.686 95.694, 137.663 93.462, 134.412 90.460 C 131.160 87.457, 127.900 85.001, 127.166 85 C 125.998 85, 121.790 81.397, 111.845 71.880 C 110.339 70.439, 107.536 68.334, 105.616 67.201 L 102.126 65.142 101.497 70.821 C 101.151 73.944, 100.366 77.522, 99.754 78.770 C 99.068 80.168, 98.998 81.394, 99.570 81.960 C 100.352 82.733, 106.918 82.289, 118 80.713 C 118.863 80.591, 119.630 81.414, 119.807 82.653 C 120.135 84.953, 119.924 85.018, 107.250 86.552 C 102.975 87.070, 102 87.542, 102 89.094 C 102 92.722, 106.987 95.722, 123.384 101.956 C 126.387 103.098, 126.880 105, 124.172 105 C 123.167 105, 119.576 103.875, 116.192 102.500 C 112.808 101.125, 109.845 100, 109.606 100 C 109.367 100, 110.113 102.226, 111.262 104.947 C 113.320 109.817, 113.323 109.957, 111.497 114.006 C 110.054 117.207, 106.534 120.838, 103.315 122.445 C 103.081 122.562, 104.745 136.398, 105.517 140.761 L 106.095 144.021 149.297 143.761 L 192.500 143.500 192.757 71.750 L 193.013 0 175.820 -0 L 158.626 -0 161.255 2.750 C 164.384 6.023, 166.210 12.857, 164.694 15.617 C 162.955 18.784, 158.670 21.968, 155.293 22.603 C 150.871 23.435, 145.046 20.404, 143.058 16.235 L 141.500 12.970 129.929 13.616 C 115.280 14.434, 112.757 13.277, 108.408 3.750 L 106.696 -0 53.348 -0 L 0 0 0 72 M 109 0.566 C 109 2.452, 111.380 5, 113.142 5 C 114.567 5, 115.035 5.465, 114.642 6.490 C 113.745 8.829, 118.307 9.418, 126.342 8 C 130.279 7.305, 135.662 6.424, 138.305 6.041 C 141.547 5.571, 143.979 4.475, 145.782 2.672 L 148.455 0 128.727 0 C 117.877 0, 109 0.255, 109 0.566 M 0.474 72.500 C 0.474 112.100, 0.598 128.154, 0.750 108.176 C 0.901 88.198, 0.901 55.798, 0.750 36.176 C 0.598 16.554, 0.474 32.900, 0.474 72.500 M 166.638 24.500 C 166.322 25.325, 166.444 26, 166.909 26 C 167.374 26, 168.315 25.325, 169 24.500 C 170.013 23.279, 169.963 23, 168.729 23 C 167.896 23, 166.955 23.675, 166.638 24.500 M 25.571 52.884 C 25.271 53.371, 24.975 55.958, 24.914 58.634 C 24.845 61.638, 23.818 65.515, 22.230 68.765 C 19.714 73.914, 19.700 74.061, 21.579 75.454 C 23.225 76.674, 23.318 77.176, 22.227 78.962 C 21.163 80.705, 21.203 81.141, 22.477 81.630 C 24.413 82.372, 24.448 86.991, 22.554 91.526 C 21.211 94.740, 21.246 95.061, 23.054 96.029 C 25.924 97.565, 25.428 98.846, 21.750 99.394 C 7.228 101.562, 2.866 102.408, 2.409 103.147 C 1.581 104.488, 11.300 104.147, 22.381 102.448 C 35.451 100.443, 35.550 100.407, 33.565 98.422 C 31.542 96.399, 32.370 95.023, 35.170 95.755 C 36.965 96.224, 37.215 96.002, 36.624 94.462 C 36.231 93.440, 35.640 89.256, 35.310 85.166 C 34.748 78.216, 34.860 77.614, 37.012 75.991 L 39.316 74.253 37.282 71.376 C 35.079 68.259, 33.909 64.038, 33.802 58.816 C 33.702 53.920, 32.356 52, 29.024 52 C 27.426 52, 25.872 52.398, 25.571 52.884 M 124.610 55.573 C 124.190 56.669, 124.511 57.048, 125.671 56.823 C 126.586 56.645, 127.522 55.938, 127.750 55.250 C 128.363 53.411, 125.320 53.724, 124.610 55.573 M 132.565 62.895 C 131.839 64.070, 134.585 65.097, 136.494 64.364 C 138.441 63.617, 137.419 62, 135 62 C 133.965 62, 132.869 62.403, 132.565 62.895 M 83.977 69.320 C 78.484 73.575, 76.405 80.076, 79.934 81.965 C 82.549 83.364, 82.764 83.310, 84.034 80.936 C 84.819 79.470, 84.829 78.499, 84.071 77.586 C 83.301 76.658, 83.443 75.420, 84.581 73.138 C 86.427 69.437, 86.143 67.642, 83.977 69.320 M 54.516 82.975 C 53.708 84.282, 56.009 85.391, 57.154 84.246 C 57.794 83.606, 57.602 83.061, 56.599 82.676 C 55.755 82.352, 54.817 82.487, 54.516 82.975 M 72 85 C 72 85.550, 72.450 86, 73 86 C 73.550 86, 74 85.550, 74 85 C 74 84.450, 73.550 84, 73 84 C 72.450 84, 72 84.450, 72 85 M 28.241 95.986 C 26.639 98.551, 26.678 99, 28.500 99 C 29.433 99, 30 98.056, 30 96.500 C 30 93.483, 29.834 93.434, 28.241 95.986 M 78.648 132.463 C 77.777 137.160, 77.323 141.677, 77.639 142.501 C 78.101 143.706, 80.351 144, 89.107 144 C 101.760 144, 101.151 144.806, 98.175 132 L 96.432 124.500 88.332 124.211 L 80.232 123.923 78.648 132.463" stroke="none" fill="black" fill-rule="evenodd"/>
</svg>