<svg xmlns="http://www.w3.org/2000/svg" width="192" height="144" viewBox="0 0 192 144" version="1.1">
	<path d="M -0 72.023 L -0 144.046 17.620 143.773 L 35.240 143.500 37.889 135.992 C 39.346 131.862, 41.502 126.912, 42.680 124.992 C 44.637 121.802, 44.749 120.779, 43.970 113.160 C 42.951 103.189, 43.499 93.970, 45.572 86.205 C 46.410 83.067, 47.721 73.264, 48.486 64.421 C 49.251 55.578, 50.157 47.028, 50.501 45.421 C 50.844 43.814, 51.329 41.496, 51.577 40.268 C 51.826 39.041, 53.407 36.467, 55.091 34.549 C 58.833 30.288, 58.337 27.585, 53.437 25.538 C 49.025 23.695, 49.764 21.561, 55.318 20.113 C 62.600 18.215, 62.771 17.499, 56.609 14.679 C 50.005 11.655, 48.694 8.477, 54.500 9.566 C 58.477 10.312, 58.790 9.567, 56 6 C 54.924 4.625, 54.034 2.712, 54.022 1.750 C 54.002 0.127, 52.039 0, 27 0 L 0 0 -0 72.023 M 61.818 5.519 L 65.453 11.038 66.684 5.769 C 67.361 2.871, 67.934 0.388, 67.958 0.250 C 67.981 0.112, 65.791 0, 63.092 0 L 58.183 0 61.818 5.519 M 71.306 5.250 C 70.707 8.138, 70.336 10.630, 70.481 10.788 C 70.625 10.947, 73.056 9.639, 75.882 7.882 C 78.709 6.125, 81.321 4.988, 81.688 5.354 C 82.629 6.295, 77.505 11.413, 73.419 13.614 C 71.531 14.630, 70.136 15.920, 70.318 16.481 C 70.500 17.041, 73.089 17.974, 76.071 18.553 C 82.268 19.757, 83.923 22.318, 79.573 23.972 C 75.635 25.469, 76.343 28.612, 81.954 34.544 C 84.678 37.425, 87.203 40.962, 87.565 42.404 C 88.423 45.823, 87.184 54, 85.808 54 C 84.746 54, 85.358 73.360, 86.653 80.750 C 87.640 86.380, 91 83.868, 91 77.500 C 91 72.754, 92.349 71, 96 71 C 99.664 71, 101 72.757, 101 77.578 C 101 81.441, 103.179 85.154, 104.608 83.726 C 104.915 83.418, 105.672 77.017, 106.289 69.500 C 107.288 57.328, 107.224 55.308, 105.705 51.033 C 103.421 44.600, 103.541 42.955, 106.630 38.403 C 109.030 34.866, 109.146 34.264, 107.949 31.514 C 105.951 26.920, 105.622 14.240, 107.377 9.500 L 108.859 5.500 108.930 13.068 C 109.003 20.941, 111.336 31, 113.088 31 C 113.644 31, 115.501 30.275, 117.213 29.390 C 121.944 26.943, 130.260 27.917, 133.827 31.334 C 135.357 32.800, 136.871 34, 137.191 34 C 137.511 34, 138.505 32.455, 139.401 30.568 C 140.990 27.219, 140.967 27.068, 138.477 24.381 C 135.121 20.759, 135.633 18.627, 140.011 18 C 143.368 17.519, 143.521 17.311, 144.065 12.500 L 144.631 7.500 145.443 11.750 C 146.162 15.508, 146.570 16, 148.973 16 C 150.467 16, 152.434 16.822, 153.344 17.827 C 154.893 19.539, 154.840 19.802, 152.491 22.008 C 150.038 24.313, 149.956 24.322, 148.564 22.431 C 146.968 20.262, 146.656 20.736, 145.565 26.984 C 145.230 28.900, 143.843 32.149, 142.483 34.205 C 140.257 37.569, 140.105 38.422, 140.972 42.722 C 141.501 45.350, 142.633 55.150, 143.486 64.500 C 144.339 73.850, 145.717 83.975, 146.548 87 C 147.379 90.025, 148.383 98.556, 148.779 105.958 L 149.500 119.417 153.584 120.597 C 162.882 123.283, 169.270 128.939, 173.521 138.250 L 176.147 144 184.073 144 L 192 144 192 72 L 192 0 132.197 0 L 72.395 0 71.306 5.250 M 83.079 85.583 C 83.127 86.748, 83.364 86.985, 83.683 86.188 C 83.972 85.466, 83.936 84.603, 83.604 84.271 C 83.272 83.939, 83.036 84.529, 83.079 85.583 M 108.079 85.583 C 108.127 86.748, 108.364 86.985, 108.683 86.188 C 108.972 85.466, 108.936 84.603, 108.604 84.271 C 108.272 83.939, 108.036 84.529, 108.079 85.583 M 94.385 97.750 C 94.025 99.263, 93.041 101.294, 92.197 102.265 C 90.911 103.745, 90.848 104.794, 91.808 108.765 C 92.437 111.369, 93.210 114.625, 93.525 116 C 93.839 117.375, 92.700 115.878, 90.994 112.673 C 87.595 106.291, 87.908 106.318, 81.750 111.887 C 79.980 113.488, 78.959 115.466, 78.884 117.437 C 78.820 119.122, 78.562 119.713, 78.311 118.750 C 77.423 115.355, 75.998 117.058, 75.798 121.750 C 75.479 129.265, 75.825 132.589, 77.540 138.489 L 79.142 144 98.071 144 L 117 144 116.994 138.750 C 116.984 129.962, 115.751 117, 114.925 117 C 114.497 117, 113.941 117.787, 113.689 118.750 C 113.438 119.713, 113.180 119.068, 113.116 117.317 C 113.025 114.824, 112.019 113.330, 108.475 110.426 C 105.986 108.386, 103.813 106.894, 103.647 107.109 C 103.481 107.324, 102.802 108.850, 102.138 110.500 C 101.474 112.150, 100.064 114.625, 99.005 116 C 97.125 118.441, 97.126 118.348, 99.057 112.103 C 101.034 105.711, 101.034 105.702, 99.018 101.537 C 97.908 99.244, 97 96.836, 97 96.184 C 97 93.866, 95.027 95.047, 94.385 97.750" stroke="none" fill="black" fill-rule="evenodd"/>
</svg>