<svg xmlns="http://www.w3.org/2000/svg" width="192" height="144" viewBox="0 0 192 144" version="1.1">
	<path d="M 95.168 4.531 C 94.549 5.889, 93.575 7, 93.002 7 C 92.385 7, 92.224 8.042, 92.605 9.564 C 93.148 11.727, 92.448 12.900, 88.128 17.064 C 83.759 21.275, 82.429 22, 79.071 22 C 73.995 22, 72.941 24.551, 75.982 29.472 C 77.766 32.357, 78.009 33.849, 77.486 38.706 C 76.917 43.992, 77.087 44.736, 79.422 47.196 C 80.830 48.679, 82.773 52.279, 83.741 55.196 C 85.241 59.719, 85.831 60.454, 87.750 60.187 C 88.987 60.015, 90 60.297, 90 60.815 C 90 62.331, 87.753 63.716, 84 64.510 C 80 65.357, 79.037 66.436, 79.015 70.095 C 79.007 71.522, 78.100 73.505, 77 74.500 C 75.900 75.495, 75 77.042, 75 77.937 C 75 78.833, 73.088 82.446, 70.750 85.967 C 66.951 91.690, 65.558 92.869, 57.618 97.089 C 52.733 99.685, 48.458 102.190, 48.118 102.656 C 46.393 105.020, 41.845 106.260, 37.001 105.686 C 31.310 105.013, 27.353 106.312, 26.452 109.152 C 25.530 112.057, 22.004 111.267, 20.756 107.875 C 20.027 105.893, 16.743 105.397, 7.219 105.833 L -0.062 106.167 0.219 117.797 L 0.500 129.428 9.500 132.563 C 14.450 134.288, 23.744 137.567, 30.152 139.849 L 41.805 144 99.777 144 L 157.750 144 158.375 140.875 C 158.719 139.156, 159 135.572, 159 132.910 C 159 129.149, 158.569 127.840, 157.066 127.035 C 154.201 125.502, 140.307 125.802, 134 127.534 C 129.403 128.796, 127.159 128.852, 120.335 127.874 L 112.170 126.703 110.374 122.602 C 109.387 120.346, 107.468 117.002, 106.110 115.170 C 104.059 112.404, 103.883 111.687, 105.070 110.935 C 105.857 110.438, 107.052 110.024, 107.727 110.015 C 109.343 109.995, 111.619 106.254, 112.301 102.500 C 112.600 100.850, 112.520 96.748, 112.122 93.385 C 111.663 89.499, 111.818 86.036, 112.549 83.885 C 113.338 81.565, 113.392 79.607, 112.721 77.661 C 112.183 76.100, 111.999 72.658, 112.312 70.012 C 112.928 64.814, 112.228 64.142, 106 63.950 L 103.500 63.873 106 62.775 C 107.375 62.172, 108.725 61.577, 109 61.454 C 109.275 61.331, 110.481 60.910, 111.681 60.517 C 112.958 60.099, 114.523 58.149, 115.459 55.811 C 117.248 51.339, 116.871 47.587, 113.795 39.253 L 111.859 34.007 114.043 30.940 L 116.227 27.872 114.114 27.319 C 112.951 27.015, 112 26.124, 112 25.340 C 112 24.555, 111.438 24.036, 110.750 24.187 C 109.322 24.500, 98.387 13.280, 99.265 12.402 C 99.581 12.086, 100.634 13.039, 101.605 14.520 C 103.262 17.049, 103.451 17.104, 104.685 15.416 C 107.256 11.899, 106.325 9.114, 102 7.383 C 99.800 6.503, 98 5.183, 98 4.450 C 98 1.991, 96.303 2.039, 95.168 4.531 M 178.106 27.901 C 175.733 30.117, 175 31.661, 175 34.436 C 175 41.483, 180.617 45.792, 185.571 42.546 C 186.868 41.696, 188.170 41, 188.465 41 C 189.656 41, 188.898 46.440, 187.500 47.916 C 186.675 48.787, 184.254 52.964, 182.119 57.197 C 178.601 64.173, 178.372 65.086, 179.675 66.947 C 181.281 69.240, 184.155 69.539, 188.851 67.902 L 192 66.804 192 49.353 C 192 35.992, 191.657 31.237, 190.537 29.072 C 187.945 24.060, 182.742 23.570, 178.106 27.901 M 71.307 100.424 C 69.551 101.566, 65.506 104.057, 62.318 105.959 L 56.521 109.418 60.891 110.684 C 65.503 112.019, 73.270 111.585, 73.833 109.961 C 74.017 109.432, 74.844 109, 75.671 109 C 76.885 109, 77.040 108.177, 76.475 104.750 C 75.440 98.469, 74.948 98.057, 71.307 100.424 M 190.533 104.750 C 190.156 106.263, 188.107 111.222, 185.979 115.772 C 182.979 122.185, 180.693 125.379, 175.805 129.989 L 169.500 135.935 171.644 139.717 L 173.787 143.500 182.894 143.788 L 192 144.075 192 123.038 C 192 111.467, 191.824 102, 191.608 102 C 191.393 102, 190.909 103.237, 190.533 104.750 M 30.500 110.231 C 28.734 111.264, 29.202 111.543, 34.492 112.610 C 37.788 113.275, 40.825 113.608, 41.242 113.350 C 42.940 112.301, 41.792 111.036, 38.250 110.053 C 33.601 108.761, 32.988 108.776, 30.500 110.231 M 50 113.067 C 50 113.664, 49.155 113.867, 48.084 113.527 C 47.030 113.192, 45.910 113.337, 45.594 113.847 C 45.279 114.358, 46.335 114.969, 47.942 115.205 C 50.146 115.528, 50.979 115.188, 51.338 113.817 C 51.599 112.818, 51.405 112, 50.906 112 C 50.408 112, 50 112.480, 50 113.067 M 55.543 114.931 C 54.860 116.036, 56.437 117.230, 57.361 116.306 C 58.311 115.355, 58.134 114, 57.059 114 C 56.541 114, 55.859 114.419, 55.543 114.931 M 60.500 116 C 60.160 116.550, 60.584 117, 61.441 117 C 62.298 117, 63 116.550, 63 116 C 63 115.450, 62.577 115, 62.059 115 C 61.541 115, 60.840 115.450, 60.500 116 M 73 119 C 73 119.550, 74.152 120, 75.559 120 C 77.010 120, 77.851 119.567, 77.500 119 C 77.160 118.450, 76.009 118, 74.941 118 C 73.873 118, 73 118.450, 73 119" stroke="none" fill="black" fill-rule="evenodd"/>
</svg>