<svg xmlns="http://www.w3.org/2000/svg" width="192" height="144" viewBox="0 0 192 144" version="1.1">
	<path d="M 0 72 L 0 144 45 144 C 84.615 144, 90 143.818, 90 142.479 C 90 141.642, 88.763 140.466, 87.250 139.865 C 85.737 139.264, 83.375 138.276, 82 137.671 C 80.625 137.065, 78.650 136.320, 77.612 136.016 C 73.905 134.930, 74.625 129.781, 79.959 119.254 C 84.348 110.591, 87 101.749, 87 95.783 C 87 93.950, 80.375 89.213, 78.624 89.794 C 78.142 89.954, 77.089 89.144, 76.284 87.994 C 75.133 86.351, 74.521 86.153, 73.422 87.065 C 72.330 87.971, 71.885 87.864, 71.391 86.576 C 70.436 84.088, 75.945 75.950, 80.783 72.700 C 83.389 70.950, 85 69.104, 85 67.868 C 85 65.515, 86.781 61.914, 88.645 60.500 C 89.370 59.950, 90.109 58.499, 90.289 57.276 C 90.778 53.941, 91.518 53.730, 93.001 56.502 C 93.736 57.876, 95.214 59, 96.284 59 C 97.354 59, 99.673 60.575, 101.436 62.500 C 103.697 64.969, 105.505 66.002, 107.571 66.006 C 115.148 66.020, 121.436 69.477, 122.566 74.250 C 123.143 76.690, 122.935 77, 120.719 77 C 117.528 77, 112.775 80.612, 115 81.346 C 118.819 82.607, 119.264 82.976, 116.500 82.590 C 113.783 82.211, 104.537 83.395, 101.137 84.558 C 99.146 85.239, 101.626 87.966, 104.372 88.116 C 106.203 88.216, 106.242 88.298, 104.651 88.708 C 103.322 89.051, 102.930 89.852, 103.256 91.557 C 103.505 92.862, 103.212 94.098, 102.605 94.302 C 101.815 94.568, 101.856 95.667, 102.750 98.158 C 103.437 100.074, 104 102.398, 104 103.321 C 104 104.244, 104.723 105, 105.607 105 C 106.662 105, 107.005 104.456, 106.606 103.416 C 106.221 102.411, 106.455 101.985, 107.249 102.250 C 107.937 102.479, 108.500 103.529, 108.500 104.583 C 108.500 106.119, 107.839 106.469, 105.179 106.345 C 102.445 106.217, 101.982 106.482, 102.558 107.845 C 102.943 108.755, 103.490 110.579, 103.774 111.899 C 104.159 113.687, 103.960 114.093, 102.993 113.496 C 100.953 112.235, 102.303 119.603, 105.320 126.199 C 108.571 133.307, 108.334 137.375, 104.645 137.816 C 102.456 138.078, 102 138.640, 102 141.077 L 102 144.020 147.250 143.760 L 192.500 143.500 192.757 71.750 L 193.013 0 150.007 0 C 126.125 0, 107 0.389, 107 0.874 C 107 1.355, 107.675 3.662, 108.500 6 C 110.258 10.983, 110.348 21.127, 108.674 25.725 C 108.028 27.499, 105.025 32.119, 102 35.992 C 98.975 39.865, 96.260 44.016, 95.967 45.217 C 95.470 47.250, 95.284 47.164, 93.245 43.950 C 92.041 42.052, 88.590 37.125, 85.577 33 C 82.133 28.286, 79.741 23.828, 79.136 21 C 78.149 16.383, 78.923 8.846, 80.914 3.685 C 81.511 2.137, 82 0.674, 82 0.435 C 82 0.196, 63.550 0, 41 0 L 0 0 0 72 M 0.474 72.500 C 0.474 112.100, 0.598 128.154, 0.750 108.176 C 0.901 88.198, 0.901 55.798, 0.750 36.176 C 0.598 16.554, 0.474 32.900, 0.474 72.500 M 82.750 87.689 C 80.360 88.314, 80.554 89.479, 83.250 90.688 C 86.172 91.998, 88 91.317, 88 88.917 C 88 87.018, 86.584 86.687, 82.750 87.689 M 93.667 140.667 C 91.907 142.426, 93.201 144, 96.406 144 C 99.320 144, 99.737 143.711, 99.290 142 C 98.781 140.055, 95.141 139.192, 93.667 140.667" stroke="none" fill="black" fill-rule="evenodd"/>
</svg>