<svg xmlns="http://www.w3.org/2000/svg" width="192" height="144" viewBox="0 0 192 144" version="1.1">
	<path d="M 0 52.500 C 0 109.541, -0.385 105.992, 5.601 104.069 C 7.921 103.323, 16.316 102.152, 20.250 102.024 C 21.577 101.981, 21.049 99.757, 19.433 98.574 C 18.053 97.565, 18.010 96.394, 19.074 88.784 C 20.120 81.311, 20.079 79.936, 18.775 78.632 C 17.429 77.287, 17.465 76.547, 19.100 71.811 C 20.109 68.890, 20.949 63.901, 20.967 60.725 C 20.997 55.460, 21.226 54.864, 23.565 53.975 C 25.248 53.336, 26.774 53.344, 27.998 53.999 C 30.127 55.138, 31.459 58.448, 30.448 60.084 C 28.798 62.754, 29.894 69.280, 32.439 71.936 C 35.777 75.421, 35.803 78, 32.500 78 C 31.125 78, 30.006 78.338, 30.014 78.750 C 30.022 79.162, 31.095 83.775, 32.398 89 C 33.701 94.225, 34.639 98.644, 34.481 98.819 C 34.324 98.995, 33.271 98.562, 32.143 97.857 C 29.591 96.264, 27.859 97.693, 30.236 99.431 C 31.189 100.128, 31.686 100.980, 31.341 101.325 C 30.996 101.671, 31.408 102.219, 32.256 102.545 C 34.028 103.225, 39.371 100.675, 57.190 90.644 C 68.884 84.061, 72.368 80.963, 69.838 79.400 C 69.302 79.069, 69.091 78.206, 69.368 77.483 C 69.681 76.667, 66.864 74.194, 61.936 70.958 C 54.630 66.161, 52.472 64, 54.990 64 C 55.535 64, 59.022 66.086, 62.740 68.637 L 69.500 73.273 69.789 69.887 C 70.295 63.959, 75.676 54.392, 81.057 49.855 C 86.460 45.299, 87.320 43.452, 83.604 44.384 C 79.042 45.529, 78.538 39.307, 82.620 32.256 C 86.478 25.593, 92.982 23.198, 97.886 26.633 C 99.840 28.002, 100.359 28.042, 101.094 26.883 C 101.575 26.122, 101.976 24.739, 101.985 23.809 C 101.993 22.879, 102.450 21.840, 103 21.500 C 103.550 21.160, 104 19.784, 104 18.441 C 104 14.254, 105.739 15.771, 106.461 20.589 C 106.994 24.142, 106.779 25.586, 105.511 26.988 C 104.609 27.984, 103.922 30.306, 103.984 32.149 C 104.045 33.992, 104.092 36.737, 104.088 38.250 C 104.079 41.657, 106.132 41.797, 114 38.930 C 127.478 34.019, 136.968 31.339, 139.625 31.693 C 142.035 32.015, 143.699 30.967, 149.916 25.212 C 153.995 21.436, 157.042 17.876, 156.687 17.302 C 156.332 16.728, 154.610 15.972, 152.861 15.622 C 150.974 15.245, 148.180 13.362, 145.994 10.993 C 142.598 7.315, 141.894 7, 137.082 7 C 133.261 7, 130.666 6.302, 127.428 4.405 C 124.993 2.978, 123 1.403, 123 0.905 C 123 0.375, 97.528 0, 61.500 0 L 0 0 0 52.500 M 146 1.138 C 146 2.240, 151.702 9.976, 153.388 11.160 C 153.905 11.524, 155.738 11.592, 157.461 11.313 C 160.589 10.805, 160.594 10.812, 160.547 15.313 C 160.501 19.698, 160.273 20.018, 152.257 26.957 C 144.278 33.864, 144.062 34.166, 145.511 36.376 C 147.402 39.262, 146.643 40, 141.789 40 C 138.652 40, 137.968 40.334, 138.206 41.750 C 138.416 43.002, 137.925 43.422, 136.480 43.226 C 135.276 43.063, 132.043 44.888, 128.480 47.742 C 125.191 50.377, 117.431 56.497, 111.237 61.342 C 100.564 69.689, 96.296 74.625, 96.832 78 C 96.963 78.825, 97.789 82.003, 98.668 85.062 L 100.266 90.624 111.633 96.562 C 117.884 99.828, 122.887 102.950, 122.750 103.500 C 122.357 105.074, 119.194 104.233, 111.387 100.478 C 107.410 98.565, 103.932 97, 103.658 97 C 103.384 97, 104.447 99.587, 106.021 102.750 C 111.555 113.872, 111.543 113.510, 106.536 118.517 L 102.094 122.959 104.047 128.636 C 105.121 131.758, 106 136.493, 106 139.157 L 106 144 148.941 144 C 172.559 144, 192.090 143.662, 192.345 143.250 C 192.600 142.838, 192.557 110.442, 192.250 71.259 L 191.693 0.018 168.846 0.041 C 153.242 0.056, 146 0.404, 146 1.138 M 34 11 C 33.099 11.582, 32.975 11.975, 33.691 11.985 C 34.346 11.993, 35.160 11.550, 35.500 11 C 36.267 9.758, 35.921 9.758, 34 11 M 122.500 41.183 C 118.650 42.853, 114.009 45.698, 112.186 47.507 C 110.256 49.422, 107.048 51.254, 104.504 51.895 C 99.513 53.152, 98.690 54.667, 99.760 60.631 L 100.500 64.752 111 56.379 C 116.775 51.774, 123.859 46.092, 126.743 43.753 C 134.946 37.099, 133.681 36.333, 122.500 41.183 M 186.500 56 C 186.840 56.550, 187.316 57, 187.559 57 C 187.802 57, 188 56.550, 188 56 C 188 55.450, 187.523 55, 186.941 55 C 186.359 55, 186.160 55.450, 186.500 56 M 78.842 64.255 C 75.196 67.336, 73.931 75.357, 76.846 76.918 C 78.438 77.769, 79.078 77.530, 80.333 75.615 C 81.312 74.120, 81.522 72.922, 80.912 72.312 C 80.302 71.702, 80.507 70.032, 81.477 67.709 C 84.077 61.486, 83.311 60.480, 78.842 64.255 M 63.500 92.550 C 56.577 96.466, 41.612 103.923, 31.349 108.573 C 27.973 110.102, 23.781 110.447, 22.625 109.292 C 22.235 108.902, 23.848 107.530, 26.208 106.243 L 30.500 103.903 26.500 104.457 C 24.300 104.762, 18.225 105.513, 13 106.125 C 7.775 106.737, 2.938 107.395, 2.250 107.587 C 1.309 107.851, 1 112.397, 1 125.969 L 1 144 36.250 144.001 L 71.500 144.002 71.500 136.251 C 71.500 131.988, 71.854 127.124, 72.287 125.442 C 73.006 122.650, 72.746 122.170, 69.309 119.942 C 63.053 115.886, 62.944 113.779, 68.326 101.095 C 73.024 90.025, 73.634 87.989, 72.250 88.013 C 71.838 88.020, 67.900 90.061, 63.500 92.550 M 64.374 95.467 C 64.065 96.274, 64.004 97.511, 64.240 98.217 C 64.476 98.923, 64.906 98.263, 65.196 96.750 C 65.762 93.797, 65.295 93.068, 64.374 95.467 M 24.229 100.188 C 24.447 100.841, 25.160 101.553, 25.813 101.771 C 26.544 102.015, 26.767 101.557, 26.394 100.584 C 25.696 98.766, 23.629 98.388, 24.229 100.188 M 79.604 124.832 C 79.321 125.289, 78.817 128.776, 78.483 132.582 C 78.150 136.387, 77.671 140.512, 77.419 141.750 C 76.965 143.983, 77.054 144, 88.818 144 L 100.674 144 98.304 134.851 C 97.001 129.819, 95.697 125.319, 95.408 124.851 C 94.729 123.753, 80.282 123.735, 79.604 124.832" stroke="none" fill="black" fill-rule="evenodd"/>
</svg>