<svg xmlns="http://www.w3.org/2000/svg" width="192" height="144" viewBox="0 0 192 144" version="1.1">
	<path d="M 0.002 25.750 L 0.003 51.500 14.752 51.542 C 28.138 51.580, 35.120 52.387, 50.337 55.657 C 52.887 56.205, 53.140 56.025, 52.837 53.883 C 52.529 51.705, 52.100 51.529, 47.859 51.831 C 45.306 52.013, 42.926 51.689, 42.568 51.110 C 41.666 49.651, 44.227 45.065, 47.888 41.585 L 50.955 38.669 50.337 29.970 L 49.720 21.270 54.100 17.019 C 56.509 14.681, 59.385 12.353, 60.490 11.846 C 61.596 11.340, 64.300 9.830, 66.500 8.493 C 68.700 7.155, 72.388 5.774, 74.696 5.425 C 78.357 4.870, 79.656 5.254, 84.894 8.436 L 90.896 12.082 97.113 10.041 C 104.450 7.632, 106.867 7.490, 107.608 9.422 C 108.344 11.338, 106.478 14.752, 102.313 19.113 L 98.862 22.726 103.111 26.363 C 105.448 28.363, 106.780 30, 106.072 30 C 105.238 30, 104.979 30.794, 105.337 32.250 C 105.717 33.794, 104.950 35.754, 102.893 38.498 L 99.895 42.497 102.099 44.281 C 103.932 45.766, 104.121 46.439, 103.223 48.283 C 102.629 49.502, 101.400 52.863, 100.491 55.750 C 99.583 58.638, 98.446 61, 97.965 61 C 97.484 61, 96.788 62.688, 96.419 64.750 C 96.049 66.813, 95.084 69.260, 94.273 70.190 C 92.925 71.735, 93.598 72.290, 102.150 76.690 C 107.292 79.335, 112.625 81.549, 114 81.608 C 117.230 81.748, 131.949 90.692, 132.827 93.048 C 133.197 94.041, 136.505 97.126, 140.178 99.905 C 143.851 102.684, 147.140 105.418, 147.487 105.979 C 147.834 106.541, 149.161 107, 150.437 107 C 151.712 107, 153.315 107.675, 154 108.500 C 154.685 109.325, 155.661 110, 156.170 110 C 157.752 110, 162.018 115.214, 162.651 117.922 C 162.983 119.340, 164.483 121.850, 165.985 123.500 C 169.442 127.296, 178.635 139.449, 180.050 142.094 C 180.963 143.799, 181.967 144.052, 186.811 143.798 L 192.500 143.500 192.695 71.750 L 192.890 0 96.445 0 L 0 0 0.002 25.750 M 0.436 26.500 C 0.436 40.800, 0.577 46.511, 0.748 39.191 C 0.919 31.871, 0.918 20.171, 0.747 13.191 C 0.575 6.211, 0.435 12.200, 0.436 26.500 M 3.250 61.640 L 1 62.139 1 103.070 L 1 144 37.629 144 L 74.258 144 73.547 133.750 C 72.686 121.324, 71.342 114.529, 69.431 112.943 C 68.385 112.075, 68 109.353, 68 102.834 C 68 94.892, 67.808 93.945, 66.250 94.206 C 64.790 94.451, 64.417 93.513, 64 88.532 C 63.504 82.617, 63.468 82.557, 59.838 81.704 C 54.601 80.473, 48.223 74.707, 47.432 70.489 C 47.079 68.609, 46.275 66.662, 45.645 66.161 C 42.423 63.599, 10.006 60.143, 3.250 61.640 M 106.433 94.481 C 108.065 99.230, 109 99.916, 109 96.367 C 109 93.607, 107.503 91, 105.918 91 C 105.543 91, 105.774 92.567, 106.433 94.481 M 127.067 106.874 C 126.294 108.319, 126.516 109.157, 128.032 110.529 C 130.632 112.882, 130.522 113.838, 127.250 117.302 L 124.500 120.214 131.859 119.818 C 137.641 119.507, 139.516 119.015, 140.609 117.520 C 141.374 116.474, 142 115.276, 142 114.859 C 142 114.080, 129.713 105, 128.658 105 C 128.335 105, 127.619 105.843, 127.067 106.874 M 152.145 130.487 C 150.415 132.457, 149 135.147, 149 136.463 C 149 138.733, 146.711 142, 145.120 142 C 144.715 142, 140.584 140.610, 135.941 138.912 C 129.708 136.631, 125.146 135.692, 118.500 135.323 L 109.500 134.822 107.250 138.397 C 106.013 140.363, 105 142.428, 105 142.986 C 105 143.650, 116.038 144, 137 144 C 154.600 144, 169 143.704, 169 143.342 C 169 142.332, 161.499 132.846, 158.214 129.702 L 155.291 126.905 152.145 130.487" stroke="none" fill="black" fill-rule="evenodd"/>
</svg>