<svg xmlns="http://www.w3.org/2000/svg" width="192" height="144" viewBox="0 0 192 144" version="1.1">
	<path d="M 124 0.592 C 124 1.841, 127.766 5.901, 128.367 5.299 C 128.715 4.951, 129 6.133, 129 7.926 C 129 9.718, 129.900 12.329, 131 13.727 C 132.199 15.252, 133 17.784, 133 20.052 C 133 22.132, 133.498 23.999, 134.106 24.202 C 135.884 24.795, 136.622 53.985, 134.937 57.057 C 134.199 58.401, 133.489 59.950, 133.358 60.500 C 131.098 70.008, 123.887 86, 121.861 86 C 121.387 86, 120.988 86.563, 120.973 87.250 C 120.948 88.426, 115.919 94.656, 110.841 99.802 C 106.357 104.346, 92.350 112.831, 84.500 115.758 C 70.879 120.837, 67.284 121.509, 54.500 121.366 C 42.049 121.226, 34.428 119.778, 27.388 116.213 C 25.249 115.130, 22.007 113.922, 20.182 113.528 C 18.358 113.134, 16.615 112.160, 16.309 111.363 C 16.003 110.567, 13.896 108.986, 11.627 107.851 C 9.357 106.716, 5.813 104.169, 3.750 102.191 L 0 98.594 0 121.297 L 0 144 95.941 144 C 148.857 144, 192.122 143.612, 192.417 143.135 C 192.711 142.659, 192.664 110.259, 192.312 71.135 L 191.673 0 157.836 0 C 139.226 0, 124 0.267, 124 0.592 M 0.429 121.500 C 0.429 134.150, 0.573 139.187, 0.747 132.694 C 0.922 126.200, 0.921 115.850, 0.746 109.694 C 0.571 103.537, 0.428 108.850, 0.429 121.500" stroke="none" fill="black" fill-rule="evenodd"/>
</svg>