<svg xmlns="http://www.w3.org/2000/svg" width="192" height="144" viewBox="0 0 192 144" version="1.1">
	<path d="M 63.755 4.805 C 65.455 22.496, 53.553 44.974, 38.500 52.500 C 36.300 53.600, 34.275 54.744, 34 55.042 C 33.363 55.733, 27.035 57.577, 20.132 59.084 C 14.923 60.221, 5.308 59.908, 1.750 58.486 C 0.100 57.826, 0 60.239, 0 100.893 L 0 144 53.402 144 L 106.804 144 107.508 137.750 C 107.896 134.313, 109.505 127.435, 111.084 122.466 C 112.664 117.497, 115.013 107.668, 116.305 100.624 C 119.105 85.367, 118.723 80.144, 114.572 76.878 C 112.568 75.301, 111.945 74.068, 112.277 72.330 C 112.710 70.064, 112.620 70.019, 110.478 71.423 C 108.722 72.573, 107.415 72.677, 104.577 71.894 C 102.572 71.340, 100.061 71.163, 98.998 71.501 C 97.934 71.838, 93.562 70.989, 89.282 69.615 C 77.450 65.814, 75 65.474, 75 67.635 C 75 69.280, 74.868 69.296, 73.397 67.826 C 71.455 65.883, 72.307 62.355, 74.919 61.526 C 75.918 61.209, 77.888 61.387, 79.296 61.922 C 80.703 62.458, 85.542 63.595, 90.047 64.449 L 98.239 66.003 101.309 63.002 C 103.240 61.114, 105.417 60, 107.175 60 C 112.235 60, 118.839 57.726, 119.339 55.811 C 119.600 54.812, 119.279 54, 118.622 54 C 117.106 54, 113.694 48.305, 114.463 47.059 C 114.782 46.544, 114.393 45.758, 113.601 45.311 C 111.435 44.092, 110.698 39.791, 112.283 37.625 C 113.342 36.179, 113.421 34.873, 112.630 31.907 C 112.065 29.793, 111.888 27.779, 112.235 27.432 C 113.790 25.876, 129.440 32.711, 133 36.500 C 134.566 38.167, 135.824 41.342, 136.673 45.768 C 139.291 59.419, 140.551 63.566, 142.750 65.757 C 144.101 67.104, 145 69.218, 145 71.050 C 145 72.727, 145.619 75.314, 146.376 76.800 C 147.316 78.643, 147.779 83.554, 147.837 92.282 C 147.883 99.312, 148.205 105.523, 148.553 106.085 C 148.900 106.647, 148.173 107.982, 146.939 109.053 C 145.704 110.124, 145.100 111.007, 145.597 111.015 C 146.094 111.024, 145.951 111.380, 145.279 111.806 C 144.382 112.376, 145.277 115.221, 148.658 122.541 C 151.187 128.018, 154.212 135.097, 155.379 138.270 L 157.500 144.040 175 143.770 L 192.500 143.500 192.825 129 C 193.003 121.025, 192.837 88.737, 192.455 57.250 L 191.761 0 127.527 -0 L 63.294 -0 63.755 4.805 M 0.459 101 C 0.459 124.925, 0.589 134.713, 0.749 122.750 C 0.908 110.788, 0.908 91.213, 0.749 79.250 C 0.589 67.288, 0.459 77.075, 0.459 101 M 133 87.500 C 133 88.325, 133.436 89, 133.969 89 C 134.501 89, 134.678 88.325, 134.362 87.500 C 134.045 86.675, 133.609 86, 133.393 86 C 133.177 86, 133 86.675, 133 87.500" stroke="none" fill="black" fill-rule="evenodd"/>
</svg>