<svg xmlns="http://www.w3.org/2000/svg" width="192" height="144" viewBox="0 0 192 144" version="1.1">
	<path d="M -0 72.005 L -0 144.010 96.250 143.755 L 192.500 143.500 192.757 71.750 L 193.013 0 96.507 0 L 0 0 -0 72.005 M 0.474 72.500 C 0.474 112.100, 0.598 128.154, 0.750 108.176 C 0.901 88.198, 0.901 55.798, 0.750 36.176 C 0.598 16.554, 0.474 32.900, 0.474 72.500 M 94 28.107 C 94 29.569, 93.541 30.038, 92.500 29.638 C 89.982 28.672, 90.735 32.780, 93.396 34.524 C 96.367 36.471, 97.493 40.144, 95.466 41.279 C 93.567 42.342, 93.580 44.902, 95.489 45.634 C 96.308 45.948, 97.447 47.946, 98.020 50.074 C 98.949 53.523, 98.776 54.395, 96.427 58.115 L 93.793 62.288 84.647 61.647 C 79.616 61.295, 72.237 60.714, 68.250 60.358 C 62.991 59.888, 61 60.033, 61 60.886 C 61 61.533, 61.788 62.297, 62.750 62.582 C 63.712 62.868, 65.712 63.719, 67.194 64.472 C 68.675 65.226, 70.775 65.610, 71.861 65.326 C 72.946 65.042, 76.304 65.528, 79.321 66.405 C 86.032 68.356, 87.071 68.368, 84.559 66.468 C 82.768 65.114, 83.001 65.001, 87.559 65.014 C 94.053 65.032, 97 65.888, 97 67.756 C 97 68.979, 97.936 69.176, 101.750 68.759 C 107.742 68.103, 109 68.583, 109 71.524 C 109 74.025, 110.249 75.418, 111.431 74.236 C 111.822 73.845, 112.897 73.520, 113.821 73.513 C 115.111 73.503, 115.427 72.747, 115.186 70.250 C 114.824 66.498, 116.291 66.065, 121.039 68.520 C 122.656 69.356, 127.021 70.681, 130.739 71.465 C 134.458 72.248, 138.753 73.195, 140.285 73.568 C 142.228 74.041, 143.626 73.743, 144.910 72.582 C 145.922 71.666, 147.369 71.048, 148.125 71.208 C 149.022 71.399, 149.608 70.381, 149.811 68.278 C 150.062 65.680, 149.412 64.345, 146.455 61.389 L 142.788 57.721 134.454 58.362 C 129.262 58.761, 125.886 58.625, 125.501 58.001 C 125.160 57.451, 125.449 57, 126.141 57 C 129.183 57, 125.158 55.107, 121.500 54.817 C 117.796 54.523, 117.477 54.260, 117.187 51.250 C 117.014 49.462, 116.339 47.955, 115.687 47.900 C 115.034 47.845, 115.623 47.488, 116.995 47.106 C 120.576 46.110, 120.749 43.289, 117.321 41.781 C 115.770 41.099, 114.275 40.296, 114 39.997 C 113.725 39.698, 112.248 38.657, 110.718 37.683 C 107.151 35.412, 108.148 33.750, 112.578 34.581 C 116.896 35.391, 116.908 34.733, 112.623 32.205 C 107.242 29.030, 105.330 28.750, 101.490 30.572 C 97.633 32.402, 95.980 31.934, 97.944 29.568 C 99.474 27.724, 98.506 26, 95.941 26 C 94.634 26, 94 26.688, 94 28.107 M 98.638 44.500 C 98.955 45.325, 99.616 46, 100.107 46 C 100.598 46, 101 45.325, 101 44.500 C 101 43.675, 100.339 43, 99.531 43 C 98.637 43, 98.288 43.586, 98.638 44.500 M 109.393 49.582 C 109.727 50.452, 110 51.352, 110 51.582 C 110 52.720, 111.662 51.771, 112.768 50 C 113.897 48.191, 113.767 48, 111.401 48 C 109.427 48, 108.935 48.388, 109.393 49.582 M 99.161 57.927 C 97.947 60.087, 97.346 62.096, 97.824 62.391 C 99.240 63.266, 104.332 57.307, 103.661 55.560 C 102.712 53.087, 101.532 53.708, 99.161 57.927" stroke="none" fill="black" fill-rule="evenodd"/>
</svg>