<svg xmlns="http://www.w3.org/2000/svg" width="192" height="144" viewBox="0 0 192 144" version="1.1">
	<path d="M 52.728 15.073 C 50.100 17.239, 49 18.944, 49 20.850 C 49 22.338, 48.362 24.466, 47.582 25.579 C 46.385 27.289, 46.366 28.525, 47.460 33.551 C 48.172 36.823, 49.076 40.271, 49.470 41.213 C 49.863 42.155, 49.508 45.080, 48.679 47.713 C 46.264 55.388, 46.169 57.576, 48.138 60.137 C 49.840 62.349, 49.958 62.372, 49.993 60.500 C 50.024 58.840, 50.196 58.755, 51 60 C 51.676 61.047, 51.974 61.113, 51.985 60.220 C 51.995 59.387, 53.057 59.721, 55.028 61.178 C 56.693 62.410, 57.971 64.111, 57.869 64.958 C 57.766 65.806, 58.016 67.693, 58.425 69.152 C 59.070 71.457, 58.548 72.374, 54.436 76.152 C 51.834 78.543, 49.133 81.859, 48.435 83.520 C 47.737 85.181, 46.253 87.366, 45.139 88.374 C 40.646 92.440, 41.654 99.736, 47.099 102.551 L 50.283 104.198 49.685 112.669 C 49.146 120.310, 48.739 121.624, 45.530 126.091 C 43.044 129.551, 42.141 131.714, 42.531 133.271 C 42.838 134.497, 42.414 137.412, 41.589 139.750 L 40.089 144 63.373 144 L 86.658 144 88.941 139.126 C 90.196 136.446, 92.241 132.976, 93.485 131.416 L 95.747 128.580 94.933 133.540 C 94.485 136.268, 94.092 139.738, 94.060 141.250 L 94 144 102.655 144 C 111.105 144, 111.269 143.955, 109.585 142.094 C 108.483 140.876, 107.976 138.979, 108.182 136.844 L 108.505 133.500 110.252 136.700 C 111.214 138.461, 112 140.823, 112 141.950 C 112 143.902, 112.570 144, 123.951 144 L 135.903 144 135.416 135.250 C 134.616 120.839, 134.278 119.013, 131.701 115.177 C 129.203 111.459, 127.219 101, 129.011 101 C 129.515 101, 129.887 99.023, 129.839 96.606 C 129.744 91.882, 130.576 89.620, 132.069 90.543 C 132.581 90.859, 133 89.741, 133 88.059 C 133 84.507, 132.755 84.546, 145.337 86.089 C 156.726 87.486, 159 86.950, 159 82.866 C 159 78.787, 155.565 75.775, 146 71.464 C 137.830 67.782, 137.273 66.990, 137.100 58.795 C 137.020 55.031, 137.500 53.591, 139.500 51.591 C 141 50.091, 142 47.948, 142 46.234 C 142 42.741, 138.722 39, 135.661 39 C 134.417 39, 132.972 38.626, 132.450 38.169 C 131.015 36.913, 124.184 35.153, 117.873 34.413 C 112.960 33.837, 111.977 34.023, 110.123 35.877 C 108.706 37.294, 108 39.260, 108 41.789 C 108 43.872, 107.150 47.244, 106.111 49.281 C 105.073 51.319, 103.501 54.789, 102.620 56.993 L 101.016 61 95.008 61 C 89.476 61, 87.528 60.028, 90 58.500 C 90.550 58.160, 91 58.362, 91 58.949 C 91 60.035, 94.208 58.600, 96.582 56.451 C 98.907 54.346, 101 49.004, 101 45.172 C 101 40.441, 99.216 35.945, 95.083 30.259 C 93.387 27.926, 92 25.417, 92 24.683 C 92 22.693, 88.186 19.664, 81.918 16.677 C 74.506 13.145, 71.228 12.592, 66.020 13.995 C 62.289 14.999, 61.546 14.941, 60.786 13.583 C 59.447 11.189, 56.859 11.668, 52.728 15.073 M 85.500 60 C 85.160 60.550, 85.584 61, 86.441 61 C 87.298 61, 88 60.550, 88 60 C 88 59.450, 87.577 59, 87.059 59 C 86.541 59, 85.840 59.450, 85.500 60 M 79.218 111.654 C 76.505 120.782, 75.600 125.370, 76.643 124.702 C 77.114 124.400, 79.300 120.759, 81.500 116.610 L 85.500 109.067 83.376 106.938 L 81.253 104.809 79.218 111.654" stroke="none" fill="black" fill-rule="evenodd"/>
</svg>