<svg xmlns="http://www.w3.org/2000/svg" width="192" height="144" viewBox="0 0 192 144" version="1.1">
	<path d="M 167.243 18.458 C 164.902 19.797, 159.266 23.595, 154.718 26.899 C 147.565 32.096, 129.779 43, 128.454 43 C 128.204 43, 128 42.380, 128 41.622 C 128 40.865, 127.361 39.715, 126.581 39.067 C 125.459 38.136, 124.949 38.268, 124.150 39.695 C 123.293 41.226, 121.776 41.500, 114.155 41.500 C 106.175 41.500, 104.898 41.755, 102.734 43.785 C 99.470 46.845, 97.102 53.827, 98.943 54.965 C 100.508 55.932, 99.485 58, 97.441 58 C 96.541 58, 95.992 56.968, 95.978 55.250 C 95.950 51.742, 92.887 45.038, 90.236 42.681 C 89.110 41.680, 86.058 40.555, 83.453 40.181 C 80.763 39.794, 78.416 38.852, 78.021 38 C 74.062 29.471, 71.931 26.187, 68.657 23.571 C 65.224 20.827, 64.096 20.500, 58.079 20.500 C 52.226 20.500, 50.858 20.871, 47.633 23.331 C 40.475 28.791, 35.998 38.843, 37.398 46.310 C 38.260 50.900, 42.969 56.433, 48.353 59.180 C 51.538 60.805, 53.596 61.133, 58.062 60.728 C 61.179 60.446, 64.352 60.609, 65.114 61.092 C 66.188 61.772, 66.065 61.973, 64.570 61.985 C 63.508 61.993, 60.482 63.462, 57.846 65.250 C 54.137 67.764, 53.046 69.109, 53.026 71.191 C 53.012 72.671, 52.550 74.160, 52 74.500 C 50.699 75.304, 50.699 79, 52 79 C 52.550 79, 53 78.550, 53 78 C 53 76.514, 55.581 76.790, 56.935 78.422 C 57.845 79.518, 57.826 80.306, 56.852 81.866 C 55.806 83.541, 55.859 84.198, 57.162 85.694 C 58.198 86.884, 58.953 90.494, 59.375 96.276 C 59.727 101.103, 60.550 105.908, 61.204 106.955 C 62.164 108.492, 62.031 109.527, 60.510 112.351 C 58.812 115.504, 58.763 116.251, 60.002 120.007 C 61.076 123.261, 61.117 124.583, 60.188 126.071 C 58.682 128.482, 58.671 132.184, 60.161 135.453 C 61.047 137.398, 61.038 138.621, 60.123 140.629 C 58.674 143.810, 59.166 144.517, 61.834 143.089 C 63.326 142.290, 63.967 142.334, 64.340 143.258 C 64.645 144.013, 64.873 143.837, 64.921 142.809 C 64.964 141.879, 64.550 140.840, 64 140.500 C 62.703 139.699, 62.703 135.301, 64 134.500 C 65.399 133.635, 65.249 127.372, 63.772 125.007 C 62.763 123.391, 62.866 122.496, 64.355 119.977 C 65.837 117.467, 65.969 116.350, 65.083 113.807 C 62.706 106.989, 63.876 105.681, 73.293 104.623 L 79.085 103.973 77.811 106.236 C 76.913 107.830, 76.531 113.750, 76.518 126.247 L 76.500 143.994 92.750 143.997 C 101.688 143.999, 109 143.601, 109 143.114 C 109 142.627, 108.328 140.940, 107.506 139.364 C 105.129 134.807, 105.612 126.363, 108.613 120 C 111.697 113.463, 111.879 113.720, 114.486 128.246 C 116.101 137.247, 116.111 138.182, 114.617 140.461 C 113.728 141.819, 113 143.170, 113 143.465 C 113 143.759, 117.633 144, 123.295 144 L 133.590 144 138.795 139.190 C 146.648 131.932, 146.045 127.224, 135.786 115.680 L 129.702 108.835 130.970 100.168 C 131.667 95.400, 133.359 87.918, 134.729 83.540 C 136.883 76.657, 137.389 75.811, 138.470 77.290 C 139.158 78.230, 140.187 79, 140.757 79 C 143.675 79, 151.975 66.101, 153.451 59.272 C 154.505 54.397, 153.356 52.187, 149.102 50.912 C 145.998 49.982, 144.770 50.068, 142.212 51.390 C 138.757 53.177, 136 53.485, 136 52.085 C 136 51.582, 138.146 49.595, 140.768 47.670 C 143.390 45.745, 146.358 43.261, 147.364 42.150 C 148.863 40.494, 149.611 40.321, 151.521 41.192 C 153.369 42.034, 155.003 41.775, 159.425 39.943 C 162.491 38.672, 165 37.335, 165 36.971 C 165 36.607, 164.104 35.499, 163.009 34.508 C 161.131 32.808, 161.117 32.632, 162.759 31.372 C 164.158 30.300, 164.239 29.866, 163.171 29.161 C 162.166 28.498, 163.227 26.789, 167.529 22.142 C 170.656 18.764, 172.829 16.005, 172.358 16.012 C 171.886 16.019, 169.584 17.119, 167.243 18.458 M 88.923 68.184 C 84.922 71.209, 79.334 72.105, 74.613 70.479 C 72.394 69.714, 70.515 69.181, 70.438 69.294 C 68.326 72.384, 68.151 80.358, 70.168 81.604 C 70.716 81.943, 70.639 82.731, 69.978 83.527 C 68.579 85.212, 69.745 94.007, 71.364 93.983 C 72.944 93.959, 85.952 90.456, 89.040 89.223 C 90.907 88.478, 92.306 86.391, 94.315 81.354 C 97.037 74.531, 97.040 74.494, 95.025 73.128 C 93.911 72.373, 93 70.713, 93 69.437 C 93 66.231, 91.937 65.905, 88.923 68.184 M 61 116.500 C 61 118.056, 61.567 119, 62.500 119 C 63.433 119, 64 118.056, 64 116.500 C 64 114.944, 63.433 114, 62.500 114 C 61.567 114, 61 114.944, 61 116.500 M 60.380 129.452 C 59.668 131.308, 60.707 133, 62.559 133 C 63.429 133, 64 132.010, 64 130.500 C 64 127.752, 61.329 126.979, 60.380 129.452" stroke="none" fill="black" fill-rule="evenodd"/>
</svg>