<svg xmlns="http://www.w3.org/2000/svg" width="192" height="144" viewBox="0 0 192 144" version="1.1">
	<path d="M 84.500 62.034 C 77.821 63.395, 73.074 65.873, 68.624 70.323 L 64.384 74.563 58.660 73.166 C 54.600 72.175, 50.464 71.975, 44.430 72.477 C 31.297 73.571, 30.480 76.317, 38.622 92.015 C 40.480 95.598, 44.238 101.295, 46.973 104.675 L 51.946 110.820 50.405 116.009 C 48.604 122.071, 49.146 123.551, 51.500 119 C 52.406 117.248, 53.291 115.968, 53.466 116.157 C 53.768 116.483, 53.046 121.295, 51.538 129 L 50.853 132.500 52.837 130.250 C 53.928 129.012, 55.072 128, 55.379 128 C 55.686 128, 55.660 131.600, 55.320 136 L 54.704 144 96.852 144 L 139 144 139.172 139.750 C 139.266 137.412, 139.231 132.350, 139.094 128.500 L 138.844 121.500 141.372 125.124 C 145.574 131.146, 147.054 130.672, 144.376 124.162 C 143.095 121.048, 142.037 117.683, 142.024 116.684 C 142.011 115.686, 141.529 113.988, 140.952 112.911 C 140.088 111.296, 140.564 110.124, 143.667 106.227 C 145.737 103.627, 147.508 101.363, 147.602 101.196 C 147.697 101.029, 149.264 101.798, 151.084 102.905 C 153.525 104.389, 154.736 104.634, 155.697 103.836 C 157.490 102.349, 157.333 100.680, 155.036 96.786 L 153.073 93.458 155.639 88.096 C 158.705 81.690, 159.075 76.643, 156.656 74.234 C 155.217 72.802, 153.139 72.516, 144.707 72.592 C 139.093 72.643, 132.576 73.226, 130.224 73.888 C 126.064 75.058, 125.878 75.009, 123.412 72.078 C 116.608 63.992, 98.205 59.242, 84.500 62.034" stroke="none" fill="black" fill-rule="evenodd"/>
</svg>