<svg xmlns="http://www.w3.org/2000/svg" width="192" height="144" viewBox="0 0 192 144" version="1.1">
	<path d="M 0 38.114 L 0 76.227 4.250 75.623 C 31.734 71.718, 55.567 71.297, 68.500 74.488 C 76.795 76.535, 83.610 76.364, 91.552 73.911 C 96.986 72.233, 98.803 72.045, 100.798 72.954 C 102.854 73.891, 103.643 73.763, 105.390 72.208 C 108.508 69.435, 119.643 65.758, 126.500 65.238 C 129.800 64.988, 141.050 65.288, 151.500 65.905 C 161.950 66.523, 175.314 67.303, 181.197 67.639 L 191.894 68.250 192.279 71.875 C 192.491 73.869, 192.739 58.513, 192.832 37.750 L 193 0 96.500 0 L 0 0 0 38.114 M 0.454 38.500 C 0.453 59.400, 0.586 68.092, 0.748 57.816 C 0.911 47.540, 0.911 30.440, 0.749 19.816 C 0.587 9.192, 0.454 17.600, 0.454 38.500 M 191.158 38 C 191.158 39.375, 191.385 39.938, 191.662 39.250 C 191.940 38.563, 191.940 37.438, 191.662 36.750 C 191.385 36.063, 191.158 36.625, 191.158 38 M 126.118 80.906 C 125.039 81.589, 125.224 81.936, 126.959 82.487 C 129.815 83.393, 132.342 89.364, 131.583 93.412 C 131.264 95.110, 131.034 96.871, 131.072 97.324 C 131.198 98.825, 125.125 103.931, 122.399 104.615 C 118.957 105.479, 114.615 103.953, 114.186 101.729 C 113.905 100.267, 114.674 99.998, 119.177 99.985 C 124.995 99.968, 125.860 99.607, 128.166 96.231 C 129.996 93.551, 129.497 89.760, 127.019 87.517 C 124.562 85.294, 118.399 84.449, 115.593 85.950 C 113.725 86.950, 112.421 86.883, 108.613 85.590 C 104.448 84.176, 97.534 83.370, 100.803 84.680 C 101.776 85.070, 101.650 85.538, 100.303 86.530 C 98.613 87.774, 98.608 87.899, 100.224 88.526 C 101.744 89.115, 101.773 89.369, 100.474 90.669 C 99.175 91.968, 98.376 91.913, 93.750 90.206 C 82.306 85.984, 78.889 85.649, 66.451 87.529 C 56.488 89.035, 53.177 89.115, 41.724 88.125 C 30.303 87.139, 9.346 84.146, 2.250 82.488 L 0 81.962 0 112.986 L 0 144.010 96.250 143.755 L 192.500 143.500 192.641 112 C 192.719 94.675, 192.566 81.326, 192.302 82.336 C 191.945 83.697, 191.214 84.020, 189.474 83.583 C 178.300 80.778, 129.570 78.719, 126.118 80.906 M 0.445 113 C 0.445 130.325, 0.582 137.412, 0.748 128.750 C 0.915 120.087, 0.915 105.912, 0.748 97.250 C 0.582 88.587, 0.445 95.675, 0.445 113" stroke="none" fill="black" fill-rule="evenodd"/>
</svg>