<svg xmlns="http://www.w3.org/2000/svg" width="192" height="144" viewBox="0 0 192 144" version="1.1">
	<path d="M 53.461 19.802 C 44.299 25.566, 38.525 37.001, 40.996 44.486 C 43.652 52.535, 51.321 58, 59.960 58 C 64.934 58, 66.655 59.224, 63.250 60.341 C 59.509 61.568, 53.515 65.839, 53.810 67.068 C 53.981 67.779, 53.320 69.847, 52.342 71.663 C 50.945 74.258, 50.825 75.225, 51.782 76.182 C 52.719 77.119, 53 77.124, 53 76.200 C 53 74.482, 55.522 74.719, 57.067 76.581 C 58.089 77.812, 58.119 78.579, 57.206 80.042 C 56.039 81.911, 56.520 85, 57.978 85 C 58.398 85, 59.066 89.572, 59.463 95.160 C 59.859 100.748, 60.700 106.148, 61.332 107.160 C 62.207 108.561, 62.185 109.474, 61.241 110.986 C 59.677 113.490, 59.641 118.452, 61.169 120.898 C 62.094 122.381, 61.982 123.519, 60.626 126.376 C 59.171 129.443, 59.095 130.584, 60.119 134.004 C 61.087 137.235, 61.063 138.514, 59.994 140.511 C 58.417 143.458, 59.292 144.832, 61.552 142.957 C 62.889 141.847, 63.302 141.865, 64.061 143.064 C 64.778 144.197, 64.973 144.068, 64.985 142.450 C 64.993 141.323, 64.512 139.912, 63.915 139.315 C 63.135 138.535, 63.275 137.368, 64.415 135.165 C 66.319 131.483, 66.385 129.707, 64.785 125.281 C 63.831 122.643, 63.831 121.501, 64.785 119.973 C 66.253 117.622, 66.387 112.357, 65 111.500 C 63.569 110.616, 63.763 106.011, 65.250 105.549 C 65.938 105.336, 69.270 104.947, 72.656 104.684 L 78.812 104.207 77.257 107.853 C 75.729 111.436, 75.296 119.956, 75.788 136.750 L 76 144 92.057 144 L 108.113 144 106.557 141.777 C 104.390 138.684, 104.580 129.521, 106.918 124.373 C 109.015 119.755, 111 117.936, 111 120.632 C 111 122.235, 111.116 122.224, 112.376 120.500 C 113.624 118.793, 113.900 119.265, 115.328 125.559 C 116.194 129.376, 117.216 134.464, 117.598 136.864 C 118.233 140.854, 118.128 141.176, 116.382 140.621 C 115.103 140.215, 114.061 140.673, 113.227 142.007 C 112.009 143.958, 112.249 144, 124.687 144 C 137.111 144, 137.452 143.941, 140.195 141.313 C 145.558 136.175, 143.742 129.167, 134.337 118.706 C 131.543 115.599, 131.017 114.332, 131.429 111.706 C 131.705 109.943, 132.428 105.125, 133.035 101 C 134.224 92.924, 137.710 81, 138.882 81 C 139.277 81, 140.177 81.563, 140.882 82.250 C 141.915 83.257, 143.007 82.576, 146.491 78.754 C 151.497 73.263, 154.974 66.611, 155.711 61.119 C 156.143 57.895, 155.849 57.007, 153.891 55.636 C 151.217 53.764, 146.785 53.510, 143.883 55.063 C 142.790 55.647, 140.918 55.985, 139.721 55.813 C 137.915 55.553, 138.853 54.441, 145.230 49.277 C 149.456 45.854, 153.186 43.491, 153.516 44.027 C 154.408 45.469, 157.629 45.214, 163.116 43.265 C 168.401 41.388, 169.241 39.735, 165.837 37.913 L 163.673 36.755 166.080 34.939 C 168.296 33.268, 168.342 33.069, 166.660 32.423 C 165.101 31.825, 165.756 30.792, 171.138 25.361 C 174.605 21.862, 177.100 19, 176.681 19 C 175.034 19, 167.911 23.171, 157.230 30.389 C 151.075 34.548, 143.281 39.344, 139.909 41.046 L 133.779 44.140 131.757 41.970 L 129.735 39.799 127.537 42.556 C 125.498 45.114, 125.098 45.230, 122.020 44.157 C 117.678 42.643, 110.141 42.705, 107.030 44.279 C 102.045 46.802, 97.927 56.073, 101.250 57.292 C 102.152 57.622, 102.199 58.072, 101.417 58.908 C 99.794 60.643, 96.822 59.135, 97.522 56.931 C 99.370 51.107, 92.687 41.914, 85.644 40.593 C 82.378 39.980, 81.920 39.470, 80.578 34.951 C 78.483 27.895, 76.141 24.361, 71.525 21.290 C 66.177 17.732, 57.842 17.045, 53.461 19.802 M 69.945 70.645 C 68.719 73.868, 68.743 77.651, 70.003 80.005 C 70.567 81.060, 70.620 82.117, 70.124 82.424 C 69.146 83.028, 69.834 92.048, 70.951 93.279 C 72.125 94.573, 90.322 91.041, 92.090 89.177 C 92.965 88.255, 94.676 85.025, 95.893 82 L 98.106 76.500 96.053 75.128 C 94.924 74.373, 94 72.713, 94 71.437 C 94 68.065, 92.734 67.766, 87.851 69.982 C 82.360 72.474, 79.395 72.496, 74.656 70.080 L 70.890 68.159 69.945 70.645 M 54.500 73 C 54.160 73.550, 54.359 74, 54.941 74 C 55.523 74, 56 73.550, 56 73 C 56 72.450, 55.802 72, 55.559 72 C 55.316 72, 54.840 72.450, 54.500 73 M 62.250 113.662 C 60.482 114.376, 60.691 118, 62.500 118 C 63.433 118, 64 117.056, 64 115.500 C 64 114.125, 63.888 113.036, 63.750 113.079 C 63.612 113.122, 62.938 113.385, 62.250 113.662 M 61 130.500 C 61 132.056, 61.567 133, 62.500 133 C 63.433 133, 64 132.056, 64 130.500 C 64 128.944, 63.433 128, 62.500 128 C 61.567 128, 61 128.944, 61 130.500" stroke="none" fill="black" fill-rule="evenodd"/>
</svg>