<svg xmlns="http://www.w3.org/2000/svg" width="192" height="144" viewBox="0 0 192 144" version="1.1">
	<path d="M 130.557 1.937 C 129.593 3.002, 129.092 4.339, 129.443 4.908 C 129.794 5.476, 128.938 6.228, 127.541 6.579 C 125.457 7.102, 125 7.815, 125 10.543 C 125 15.144, 126.633 19, 128.582 19 C 129.745 19, 130.006 19.503, 129.490 20.750 C 127.346 25.936, 125.846 37.983, 125.746 50.827 L 125.635 65.154 122.567 64.619 C 114.403 63.195, 102.731 61.935, 102.242 62.425 C 101.165 63.502, 108.639 65.786, 117.095 66.965 L 125.691 68.163 125.218 73.081 C 124.786 77.580, 124.927 78, 126.873 78 C 129.449 78, 129.474 78.336, 127.250 83.066 C 126.202 85.294, 124.096 87.523, 122 88.623 C 118.112 90.663, 113.232 93.874, 111.275 95.680 C 110.375 96.511, 110.270 97.581, 110.922 99.294 C 111.923 101.929, 113.829 103, 117.515 103 C 119.332 103, 119.939 102.380, 120.184 100.273 C 120.360 98.757, 121.405 97.092, 122.539 96.523 C 127.517 94.026, 134.308 87.223, 139.114 79.919 C 141.981 75.564, 144.590 72.014, 144.913 72.032 C 145.236 72.049, 146.354 72.710, 147.398 73.501 C 149.416 75.028, 149.070 75.961, 144.928 80.151 C 140.370 84.762, 135.906 91.039, 136.501 92.001 C 136.870 92.599, 136.613 93.761, 135.930 94.585 C 133.526 97.481, 129.941 106.364, 128.346 113.375 C 126.762 120.340, 126.888 135.990, 128.575 141.750 L 129.233 144 153.961 144 L 178.690 144 176.864 138.593 C 175.024 133.142, 173.305 115.227, 172.873 97 C 172.749 91.775, 172.085 86.150, 171.398 84.500 C 169.709 80.442, 166.994 68.176, 166.997 64.615 C 166.999 62.824, 167.948 60.850, 169.500 59.412 C 173.092 56.084, 172.660 52.884, 167.873 47.353 C 165.052 44.094, 164.169 42.444, 165.082 42.139 C 166.768 41.577, 173.789 49.485, 177.165 55.747 C 179.891 60.805, 182.299 61.964, 185.390 59.704 C 187.223 58.364, 187.223 58.268, 185.390 55.417 C 182.363 50.706, 182.002 50.292, 170.500 38.333 C 161.462 28.936, 159.005 25.708, 156.726 20.236 C 155.200 16.574, 153.114 12.660, 152.091 11.538 C 151.067 10.417, 149.923 8.488, 149.548 7.250 C 149.147 5.928, 148.068 5, 146.933 5 C 145.870 5, 145 4.341, 145 3.535 C 145 1.254, 141.195 -0.406, 139.394 1.088 C 138.274 2.018, 137.634 2.034, 136.758 1.158 C 135.037 -0.563, 132.534 -0.248, 130.557 1.937 M 153.500 38 C 153.840 38.550, 154.568 39, 155.118 39 C 155.668 39, 155.840 38.550, 155.500 38 C 155.160 37.450, 154.432 37, 153.882 37 C 153.332 37, 153.160 37.450, 153.500 38 M 132.446 42.281 C 132.175 42.985, 132.148 46.698, 132.386 50.531 C 132.623 54.364, 132.858 58.737, 132.909 60.250 C 132.979 62.358, 133.496 63, 135.122 63 C 136.836 63, 137.019 62.728, 136.074 61.589 C 135.273 60.624, 135.235 59.973, 135.951 59.530 C 136.528 59.174, 137 57.403, 137 55.595 C 137 53.787, 137.738 50.829, 138.639 49.021 C 140.134 46.025, 140.138 45.657, 138.689 44.846 C 137.814 44.356, 136.434 43.291, 135.621 42.478 C 133.808 40.665, 133.083 40.620, 132.446 42.281 M 92.512 47.962 C 92.169 49.041, 92.402 50.883, 93.030 52.055 C 93.727 53.359, 93.859 55.218, 93.369 56.843 C 92.929 58.304, 92.485 61.075, 92.384 63 C 92.282 64.925, 91.456 71.626, 90.548 77.892 C 88.424 92.538, 88.691 96.232, 91.926 96.988 C 95.110 97.732, 95.639 99.588, 93.061 100.967 C 91.927 101.574, 91 102.730, 91 103.535 C 91 104.659, 92.397 105, 97 105 C 100.333 105, 103 104.556, 103 104 C 103 103.450, 102.374 103, 101.608 103 C 100.104 103, 98.563 98.515, 99.531 96.950 C 99.856 96.424, 101.281 96.283, 102.696 96.639 C 105.263 97.283, 105.268 97.272, 104.566 92.392 C 104.179 89.702, 103.159 84.350, 102.300 80.500 C 100.349 71.760, 99.738 57.393, 101.163 53.756 C 102.017 51.575, 101.901 50.497, 100.596 48.506 C 98.516 45.331, 93.455 44.991, 92.512 47.962" stroke="none" fill="black" fill-rule="evenodd"/>
</svg>