<svg xmlns="http://www.w3.org/2000/svg" width="192" height="144" viewBox="0 0 192 144" version="1.1">
	<path d="M 63.650 8.749 C 63.733 13.562, 63.454 17.950, 63.031 18.500 C 62.607 19.050, 61.938 21.289, 61.543 23.476 C 60.051 31.734, 48.830 46.933, 40.768 51.615 C 28.635 58.661, 9.861 61.990, 1.750 58.532 C 0.099 57.828, 0 60.221, 0 100.893 L 0 144 79.814 144 L 159.628 144 159.197 138.041 C 158.960 134.764, 159.492 127.676, 160.380 122.291 C 163.155 105.452, 165.236 88.664, 165.062 84.500 C 164.913 80.947, 164.231 79.424, 160.550 74.431 C 159.904 73.555, 160.464 71.436, 162.300 67.807 C 163.785 64.872, 165 61.901, 165 61.204 C 165 60.507, 165.675 59.678, 166.500 59.362 C 168.688 58.522, 168.335 56, 166.030 56 C 164.946 56, 163.062 54.650, 161.842 53 C 160.622 51.350, 158.864 50, 157.934 50 C 155.320 50, 153.690 47.370, 154.444 44.368 C 154.979 42.235, 154.490 41.069, 151.969 38.468 C 150.240 36.684, 149.242 34.969, 149.749 34.655 C 150.257 34.341, 155.359 33.793, 161.086 33.436 C 170.959 32.822, 171.681 32.912, 174.976 35.168 C 176.888 36.477, 179.434 39.112, 180.635 41.024 C 181.835 42.936, 183.838 45.607, 185.086 46.961 C 186.334 48.314, 188.395 51.239, 189.666 53.461 C 191.892 57.354, 191.976 58.325, 191.988 80.250 C 191.996 95.603, 191.656 103, 190.941 103 C 190.329 103, 190.223 103.528, 190.691 104.250 C 191.136 104.938, 191.744 114.050, 192.042 124.500 C 192.568 142.905, 192.591 142.591, 192.791 114.500 C 192.905 98.550, 192.700 66.263, 192.336 42.750 L 191.674 0 127.587 -0.001 L 63.500 -0.001 63.650 8.749 M 0.459 101 C 0.459 124.925, 0.589 134.713, 0.749 122.750 C 0.908 110.788, 0.908 91.213, 0.749 79.250 C 0.589 67.288, 0.459 77.075, 0.459 101 M 183.881 77.191 C 183.341 87.649, 183.516 90.757, 184.761 92.837 C 185.530 94.122, 186.410 94.924, 186.715 94.619 C 187.884 93.449, 188.011 85.293, 186.929 80.747 C 185.679 75.489, 184.066 73.607, 183.881 77.191 M 189.624 97.539 C 188.659 100.053, 188.943 100.702, 190.122 98.675 C 190.706 97.671, 190.973 96.639, 190.715 96.382 C 190.458 96.124, 189.966 96.645, 189.624 97.539" stroke="none" fill="black" fill-rule="evenodd"/>
</svg>