<svg xmlns="http://www.w3.org/2000/svg" width="192" height="144" viewBox="0 0 192 144" version="1.1">
	<path d="M 0 57 L 0 114 4.441 114 C 6.884 114, 9.198 113.489, 9.583 112.865 C 9.969 112.241, 10.394 108.754, 10.529 105.115 C 10.830 96.978, 11.534 95.155, 14.683 94.365 C 17.278 93.713, 19.320 89.997, 18.400 87.599 C 18.071 86.741, 18.675 85.921, 19.928 85.523 C 21.276 85.095, 22 84.015, 22 82.433 C 22 81.095, 22.450 80, 23 80 C 23.550 80, 24 81.139, 24 82.531 C 24 83.924, 24.675 85.322, 25.500 85.638 C 26.476 86.013, 27 87.567, 27 90.088 C 27 93.397, 27.368 94.054, 29.526 94.596 C 33.152 95.506, 34.319 98.473, 34.093 106.206 C 33.898 112.876, 33.941 113, 36.447 113 C 38.772 113, 39 112.632, 39 108.868 C 39 105.033, 42.149 98, 43.866 98 C 45.242 98, 48 103.858, 48 106.782 C 48 108.417, 48.563 110.201, 49.250 110.746 C 49.938 111.291, 56.058 111.981, 62.852 112.279 C 74.414 112.786, 75.376 112.986, 77.907 115.410 C 79.393 116.835, 80.989 118, 81.453 118 C 81.917 118, 82.024 114.462, 81.690 110.137 C 81.135 102.937, 81.282 102.006, 83.437 99.086 L 85.790 95.896 87.895 98.852 C 89.875 101.633, 90 103.061, 90 122.904 L 90 144 140.840 144 L 191.681 144 192.338 120.750 C 192.700 107.963, 192.996 75.563, 192.998 48.750 L 193 0 96.500 0 L 0 0 0 57 M 0.468 57.500 C 0.468 88.850, 0.595 101.530, 0.750 85.679 C 0.904 69.827, 0.904 44.177, 0.749 28.679 C 0.594 13.180, 0.468 26.150, 0.468 57.500 M 117.807 37.750 C 116.980 38.712, 116.008 40.330, 115.647 41.345 C 115.286 42.360, 114.092 43.425, 112.995 43.712 C 111.898 43.999, 111 44.600, 111 45.049 C 111 45.498, 110.055 46.165, 108.899 46.532 C 106.240 47.376, 107.589 48.747, 111.500 49.173 L 114.500 49.500 114.500 56.199 C 114.500 60.223, 114.999 63.397, 115.750 64.149 C 116.438 64.837, 117 66.400, 117 67.623 C 117 70.487, 112.373 76, 109.970 76 C 108.951 76, 107.939 76.338, 107.720 76.750 C 107.159 77.807, 109.296 81.491, 110.500 81.544 C 112.920 81.650, 117 84.472, 117 86.038 C 117 86.982, 117.668 88.309, 118.483 88.986 C 119.714 90.008, 120.140 89.762, 120.983 87.544 C 121.543 86.073, 122 84.476, 122 83.994 C 122 82.377, 124.074 81.816, 125.544 83.036 C 126.345 83.701, 127 85.260, 127 86.500 C 127 89.062, 129.390 91.495, 130.956 90.527 C 131.530 90.172, 132 89.203, 132 88.374 C 132 87.269, 132.602 87.052, 134.250 87.565 C 135.488 87.950, 136.650 88.655, 136.833 89.132 C 137.379 90.554, 139 90.116, 139 88.548 C 139 87.516, 139.869 87.205, 141.999 87.475 C 144.458 87.786, 145.103 87.437, 145.579 85.542 C 146.027 83.758, 146.656 83.357, 148.330 83.788 C 150.095 84.243, 150.293 84.081, 149.391 82.923 C 147.922 81.038, 146.810 75, 147.931 75 C 148.416 75, 148.577 74.100, 148.290 73 C 148.002 71.900, 147.374 71, 146.895 71 C 145.447 71, 142.066 67.703, 142.610 66.822 C 142.890 66.370, 140.568 66, 137.452 66 C 132.448 66, 131.870 65.796, 132.506 64.250 C 132.903 63.288, 133.472 61.641, 133.771 60.592 C 134.330 58.635, 133.313 58.615, 128.750 60.494 C 125.815 61.702, 126.607 56.876, 129.944 53.223 C 131.563 51.450, 132.633 50, 132.321 50 C 132.010 50, 132.311 49.330, 132.990 48.512 C 133.979 47.320, 133.953 46.949, 132.863 46.648 C 125.998 44.757, 125.495 44.420, 125.162 41.482 C 124.549 36.084, 120.850 34.207, 117.807 37.750" stroke="none" fill="black" fill-rule="evenodd"/>
</svg>