<svg xmlns="http://www.w3.org/2000/svg" width="192" height="144" viewBox="0 0 192 144" version="1.1">
	<path d="M 0 56.500 L 0 113 5.500 113 L 11 113 11.136 108.750 C 11.592 94.443, 11.876 93.675, 17.100 92.630 C 19.889 92.072, 20.129 91.714, 19.853 88.511 C 19.623 85.848, 20.064 84.643, 21.684 83.509 C 23.157 82.477, 23.644 81.353, 23.257 79.874 C 22.851 78.322, 23.083 77.868, 24.098 78.226 C 24.869 78.498, 25.395 79.671, 25.266 80.834 C 25.128 82.089, 25.839 83.378, 27.016 84.009 C 28.480 84.792, 29 86.105, 29 89.016 C 29 92.373, 29.367 93.054, 31.459 93.579 C 35.537 94.603, 36.276 96.435, 36.091 105.077 L 35.919 113.133 39.210 112.816 C 42.376 112.512, 42.519 112.309, 43.010 107.441 C 43.504 102.535, 46.119 97, 47.941 97 C 49.655 97, 53 103.759, 53 107.220 L 53 110.704 61.250 111.346 C 65.787 111.699, 71.778 111.991, 74.563 111.994 C 78.905 111.999, 80.044 112.437, 82.563 115.070 L 85.500 118.139 86.165 114.320 C 86.531 112.219, 86.587 108.620, 86.289 106.322 C 85.867 103.066, 86.255 101.323, 88.048 98.422 L 90.349 94.700 92.669 97.600 C 94.937 100.433, 94.990 101.002, 94.995 122.250 L 95 144 143.340 144 L 191.680 144 192.340 119.838 C 192.703 106.549, 193 74.149, 193 47.838 L 193 0 96.500 0 L 0 0 0 56.500 M 0.468 57 C 0.468 88.075, 0.594 100.788, 0.749 85.250 C 0.904 69.713, 0.904 44.288, 0.749 28.750 C 0.594 13.213, 0.468 25.925, 0.468 57 M 118.229 30.669 C 117.530 30.951, 116.280 32.492, 115.450 34.096 C 114.621 35.699, 112.156 38.139, 109.972 39.518 C 107.787 40.897, 106 42.442, 106 42.952 C 106 43.462, 107.688 44.019, 109.750 44.190 C 113.362 44.489, 113.491 44.629, 113.266 48 C 112.802 54.944, 113.088 57.440, 114.532 59.035 C 116.931 61.686, 116.251 63.793, 111.539 68.308 C 108.104 71.600, 107.210 73.088, 107.653 74.780 C 107.969 75.989, 108.579 76.760, 109.010 76.494 C 110.458 75.599, 115.495 78.947, 116.028 81.159 C 116.918 84.860, 118.815 84.350, 120.099 80.064 C 120.769 77.829, 121.583 76.007, 121.908 76.015 C 123.666 76.061, 125.279 78.129, 125.891 81.121 C 126.704 85.097, 130.286 85.999, 130.805 82.358 C 131.030 80.786, 131.628 80.351, 133.055 80.725 C 134.125 81.004, 135 81.631, 135 82.117 C 135 82.602, 135.450 83, 136 83 C 136.550 83, 137 82.356, 137 81.568 C 137 80.609, 137.890 80.231, 139.697 80.424 C 142.423 80.715, 145.172 79.130, 144.336 77.750 C 144.086 77.338, 144.864 77, 146.063 77 C 147.881 77, 148.039 76.752, 147.011 75.513 C 146.332 74.695, 146.016 73.400, 146.310 72.635 C 146.604 71.870, 146.339 70.739, 145.722 70.122 C 144.893 69.293, 145.044 69, 146.300 69 C 148.881 69, 148.407 68.048, 143.482 63.329 C 139.626 59.634, 138.352 59, 134.782 59 C 131.529 59, 130.867 58.733, 131.800 57.800 C 132.460 57.140, 133 55.738, 133 54.683 C 133 53.228, 132.519 52.915, 131 53.383 C 129.900 53.723, 128.100 54.277, 127 54.617 C 123.836 55.592, 124.470 51.624, 127.945 48.700 C 129.564 47.337, 130.609 45.943, 130.268 45.601 C 129.926 45.259, 130.513 44.318, 131.573 43.509 C 133.242 42.235, 133.299 41.904, 132 41.034 C 131.175 40.482, 129.749 40.024, 128.832 40.015 C 125.454 39.984, 124.039 38.721, 123.383 35.153 C 122.553 30.637, 121.211 29.470, 118.229 30.669" stroke="none" fill="black" fill-rule="evenodd"/>
</svg>