<svg xmlns="http://www.w3.org/2000/svg" width="192" height="144" viewBox="0 0 192 144" version="1.1">
	<path d="M 85.360 50.476 C 75.743 52.222, 72.069 53.489, 61.500 58.708 C 44.849 66.929, 32.623 71.359, 23.500 72.476 C 10.897 74.019, 10.807 74.125, 20.500 76.061 C 30.718 78.102, 33.585 78.988, 51 85.490 C 77.002 95.199, 80.465 96.101, 94 96.699 C 100.952 97.006, 109.491 96.782, 113.239 96.193 C 120.026 95.128, 132.870 90.244, 151.692 81.571 C 160.119 77.688, 163.669 76.645, 172.192 75.550 C 177.861 74.821, 182.144 74.174, 181.708 74.112 C 174.227 73.050, 163.501 69.900, 152.801 65.623 C 110.163 48.579, 103.751 47.139, 85.360 50.476 M 87.595 56.266 C 85.447 57.495, 82.311 60.213, 80.625 62.306 C 78.020 65.540, 77.506 67.119, 77.208 72.806 C 76.888 78.890, 77.138 79.939, 79.947 84.314 C 83.991 90.615, 91.820 94.530, 98.273 93.480 C 104.649 92.444, 108.676 90.197, 112.251 85.684 C 115.079 82.113, 115.523 80.727, 115.819 74.552 C 116.131 68.037, 115.918 67.143, 113.027 62.814 C 107.372 54.349, 96.046 51.433, 87.595 56.266" stroke="none" fill="black" fill-rule="evenodd"/>
</svg>