<svg xmlns="http://www.w3.org/2000/svg" width="192" height="144" viewBox="0 0 192 144" version="1.1">
	<path d="M 0 72 L 0 144 15.583 144 C 24.154 144, 31.015 143.662, 30.830 143.250 C 30.644 142.838, 28.591 138.661, 26.267 133.969 C 18.633 118.558, 15.500 101.473, 15.500 75.250 C 15.500 62.180, 15.155 56, 14.424 56 C 12.867 56, 9 51.632, 9 49.873 C 9 47.649, 14.279 43, 16.805 43 C 19.192 43, 19.700 44.900, 17.817 46.783 C 17.166 47.434, 16.917 48.251, 17.264 48.598 C 17.611 48.945, 23.719 49.465, 30.837 49.754 C 43.339 50.261, 44.106 50.172, 53.386 47.139 C 61.878 44.365, 64.300 44.003, 74.247 44.024 C 80.436 44.038, 87.484 44.506, 89.909 45.065 C 92.938 45.764, 94.644 45.756, 95.359 45.041 C 96.080 44.320, 95.724 44, 94.200 44 C 91.325 44, 91.412 42.224, 94.443 39.055 C 96.284 37.130, 96.934 35.268, 97.081 31.500 C 97.188 28.750, 97.920 25.455, 98.708 24.177 C 100.014 22.061, 112.954 15, 115.526 15 C 116.121 15, 118.744 16.354, 121.353 18.009 C 125.070 20.366, 126.506 20.799, 127.983 20.009 C 130.801 18.501, 135 18.754, 135 20.432 C 135 21.219, 133.650 22.825, 132 24 C 128.471 26.513, 128.354 27.284, 130.950 30.930 C 133.219 34.116, 132.708 37.606, 129.605 40.119 C 127.918 41.485, 127.784 42.035, 128.831 43.296 C 129.685 44.326, 129.756 45.033, 129.049 45.470 C 128.472 45.826, 128 47.412, 128 48.994 C 128 50.576, 127.564 53.016, 127.032 54.417 C 126.232 56.520, 126.408 57.148, 128.043 58.023 C 129.132 58.606, 130.586 58.953, 131.275 58.795 C 132.945 58.411, 143.991 64.227, 144.010 65.500 C 144.034 67.098, 155.266 74.112, 156.837 73.509 C 158.906 72.715, 164.649 77.465, 165.442 80.626 C 165.816 82.114, 167.887 85.337, 170.045 87.789 C 175.238 93.689, 179.700 100.560, 185.433 111.487 C 188.027 116.430, 190.591 120.747, 191.132 121.082 C 191.673 121.416, 191.977 124.115, 191.808 127.080 L 191.500 132.470 188.832 129.584 C 187.365 127.997, 183.589 121.704, 180.441 115.599 C 174.221 103.536, 171.206 98.869, 165.244 92.074 C 161.020 87.259, 158 86.956, 158 91.346 C 158 94.825, 156.258 95.799, 149.499 96.096 C 146.199 96.241, 141.162 97.174, 138.305 98.169 C 135.447 99.165, 132.469 99.733, 131.686 99.433 C 130.811 99.097, 130.056 99.679, 129.725 100.943 C 129.357 102.352, 128.370 103, 126.594 103 C 123.716 103, 123.312 104.634, 124.964 109.601 C 125.821 112.177, 127.538 123.161, 129.522 138.764 L 130.192 144.028 161.346 143.764 L 192.500 143.500 192.757 71.750 L 193.013 0 96.507 0 L 0 0 0 72 M 0.474 72.500 C 0.474 112.100, 0.598 128.154, 0.750 108.176 C 0.901 88.198, 0.901 55.798, 0.750 36.176 C 0.598 16.554, 0.474 32.900, 0.474 72.500 M 62.371 50.970 C 60.100 51.457, 55.981 53.036, 53.219 54.481 C 50.457 55.925, 46.015 57.645, 43.348 58.303 L 38.500 59.500 37.849 65 C 36.826 73.642, 36.933 102.539, 38.027 112.926 C 38.974 121.910, 41.470 132.099, 44.721 140.250 L 46.217 144 67.140 144 C 83.017 144, 88.151 143.699, 88.427 142.750 C 88.628 142.063, 89.570 137.570, 90.520 132.766 C 91.908 125.751, 93.401 122.011, 98.108 113.766 L 103.967 103.500 103.968 86 C 103.969 73.731, 103.663 68.948, 102.943 70 C 102.212 71.069, 102.105 70.136, 102.572 66.750 C 103.109 62.860, 102.949 62, 101.690 62 C 99.595 62, 94.018 57.178, 92.992 54.479 C 92.392 52.901, 91.009 52.097, 88.088 51.630 C 80.625 50.437, 66.549 50.076, 62.371 50.970 M 124.033 64.667 C 124.080 65.840, 127.959 70.374, 128.475 69.858 C 129.171 69.162, 126.603 64.692, 125.250 64.246 C 124.563 64.019, 124.015 64.208, 124.033 64.667 M 141 74.500 C 141 75.325, 141.450 76, 142 76 C 143.725 76, 143.106 77.986, 139.952 82.570 C 138.276 85.006, 137.222 87, 137.610 87 C 139.285 87, 149.973 81.388, 150.424 80.271 C 150.698 79.595, 148.945 77.682, 146.530 76.021 C 141.516 72.571, 141 72.429, 141 74.500" stroke="none" fill="black" fill-rule="evenodd"/>
</svg>