<svg xmlns="http://www.w3.org/2000/svg" width="192" height="144" viewBox="0 0 192 144" version="1.1">
	<path d="M 0 72 L 0 144 39.035 144 L 78.070 144 74.653 141 C 72.774 139.350, 70.656 138, 69.947 138 C 69.238 138, 67.893 137.308, 66.959 136.463 C 65.425 135.074, 65.398 134.524, 66.683 130.794 C 68.621 125.168, 71.832 121.580, 81.381 114.369 C 85.847 110.997, 90.664 106.947, 92.086 105.369 C 96.621 100.337, 107 86.361, 107 85.287 C 107 84.716, 105.763 84.003, 104.250 83.700 C 101.608 83.172, 101.513 82.942, 101.837 77.825 C 102.157 72.787, 102.081 72.591, 100.439 74.184 C 98.757 75.816, 97.829 79.501, 96.203 91.001 C 95.776 94.027, 95.078 97.064, 94.654 97.751 C 93.566 99.512, 91.944 99.310, 92.638 97.500 C 92.955 96.675, 92.812 96, 92.321 96 C 91.296 96, 91.058 94.116, 90.915 84.838 C 90.830 79.285, 91.264 77.405, 93.523 73.552 L 96.232 68.928 90.776 63.471 C 87.774 60.470, 85.585 57.747, 85.909 57.419 C 86.234 57.092, 87.975 56.206, 89.779 55.451 C 92.685 54.234, 92.980 53.761, 92.375 51.289 C 91.999 49.755, 91.246 48.208, 90.700 47.851 C 90.155 47.494, 90.043 46.369, 90.452 45.351 C 90.862 44.333, 91.363 41.354, 91.566 38.730 C 92.507 26.599, 104.890 21.847, 112.869 30.555 C 115.959 33.926, 116.188 34.609, 115.620 38.756 C 115.279 41.244, 115 44.566, 115 46.140 C 115 47.916, 114.473 49, 113.608 49 C 112.843 49, 111.922 50.173, 111.562 51.608 C 110.998 53.857, 111.755 55.041, 117.066 60.223 C 123.001 66.011, 123.196 66.362, 122.442 69.865 C 121.552 74.004, 121.444 82.292, 122.233 86 C 124.495 96.640, 126.936 115.821, 127.513 127.500 C 127.893 135.200, 128.234 142.069, 128.269 142.764 C 128.320 143.760, 135.120 143.972, 160.417 143.764 L 192.500 143.500 192.757 71.750 L 193.013 0 96.507 0 L 0 0 0 72 M 0.474 72.500 C 0.474 112.100, 0.598 128.154, 0.750 108.176 C 0.901 88.198, 0.901 55.798, 0.750 36.176 C 0.598 16.554, 0.474 32.900, 0.474 72.500 M 68.500 63 C 68.840 63.550, 69.879 63.993, 70.809 63.985 C 72.266 63.971, 72.293 63.835, 71 63 C 69.042 61.734, 67.718 61.734, 68.500 63 M 29.553 84.915 C 29.231 85.436, 29.394 86.125, 29.915 86.447 C 30.436 86.769, 31.125 86.606, 31.447 86.085 C 31.769 85.564, 31.606 84.875, 31.085 84.553 C 30.564 84.231, 29.875 84.394, 29.553 84.915 M 7.638 86.500 C 7.322 87.325, 7.499 88, 8.031 88 C 8.564 88, 9 87.325, 9 86.500 C 9 85.675, 8.823 85, 8.607 85 C 8.391 85, 7.955 85.675, 7.638 86.500 M 11.459 104.067 C 11.096 104.653, 11.014 105.348, 11.276 105.610 C 11.538 105.872, 12.019 105.392, 12.345 104.543 C 13.021 102.781, 12.445 102.471, 11.459 104.067" stroke="none" fill="black" fill-rule="evenodd"/>
</svg>