<svg xmlns="http://www.w3.org/2000/svg" width="192" height="144" viewBox="0 0 192 144" version="1.1">
	<path d="M -0 71.997 L -0 144.025 36.664 143.762 L 73.328 143.500 75.086 138.500 C 76.054 135.750, 76.880 130.939, 76.922 127.809 C 76.965 124.679, 77.450 121.840, 78 121.500 C 79.309 120.691, 79.288 119, 77.968 119 C 77.400 119, 76.529 120.013, 76.031 121.250 L 75.127 123.500 75.063 121.250 C 75.016 119.551, 74.405 119, 72.567 119 C 71.017 119, 69.906 118.278, 69.503 117.009 C 68.580 114.101, 69.717 112.778, 72.061 114.032 C 73.906 115.020, 74 114.676, 74 106.956 L 74 98.841 70.959 99.509 C 66.447 100.500, 63.742 98.196, 61.659 91.587 C 60.678 88.476, 58.813 83.637, 57.514 80.832 C 55.640 76.788, 55.356 75.194, 56.141 73.129 C 56.959 70.977, 56.772 70.234, 55.066 68.852 C 53.930 67.932, 53 66.272, 53 65.162 C 53 64.053, 51.933 62.306, 50.629 61.280 C 48.492 59.599, 48.303 58.824, 48.724 53.457 C 49.507 43.460, 49.256 41.439, 46.580 36.157 C 43.881 30.832, 43.014 21.108, 44.963 18.026 C 45.573 17.060, 45.494 16.305, 44.731 15.834 C 43.987 15.374, 44.500 14.760, 46.155 14.131 C 49.672 12.794, 57.752 4.969, 58.165 2.500 C 58.493 0.543, 57.872 0.494, 29.250 0.235 L 0 -0.030 -0 71.997 M 76.519 1.750 C 77.834 4.886, 79.171 13.327, 78.724 15.666 C 78.183 18.492, 80.010 20.111, 86.405 22.472 C 94.233 25.363, 101.384 24.806, 105 21.023 C 106.133 19.837, 110.076 18, 111.486 18 C 114.211 18, 113.768 8.417, 110.812 3.407 L 108.802 0 92.294 0 C 76.959 0, 75.838 0.124, 76.519 1.750 M 119 4 C 119 6.200, 119 8.225, 119 8.500 C 119 8.775, 119.302 9.029, 119.671 9.065 C 120.039 9.100, 121.121 7.075, 122.074 4.565 L 123.807 0 121.403 0 C 119.266 0, 119 0.443, 119 4 M 138 1.487 C 138 2.306, 139.731 4.067, 141.846 5.403 C 146.733 8.488, 149.457 13.954, 148.562 18.882 C 148.201 20.872, 147.754 23.603, 147.568 24.952 C 147.263 27.169, 142.602 31.983, 140.750 31.995 C 140.338 31.998, 140 33.350, 140 35 C 140 37.133, 140.481 38, 141.667 38 C 142.583 38, 143.037 38.296, 142.675 38.658 C 142.313 39.020, 142.532 39.936, 143.162 40.695 C 144.523 42.335, 144.363 53.354, 142.971 53.833 C 142.439 54.016, 142.258 55.181, 142.570 56.423 C 142.993 58.108, 142.486 59.107, 140.568 60.363 C 139.156 61.289, 138 62.910, 138 63.966 C 138 65.022, 137.213 66.475, 136.250 67.193 C 135.031 68.103, 134.459 70.018, 134.365 73.500 C 134.197 79.744, 129.545 96.740, 127.337 99.180 C 126.370 100.249, 124.310 101, 122.345 101 C 119.328 101, 119 101.281, 119 103.874 C 119 105.455, 118.325 108.662, 117.500 111 C 115.284 117.282, 115.475 118.055, 119.074 117.335 C 122.064 116.737, 122.139 116.812, 121.824 120.110 C 121.495 123.549, 120.482 124.037, 116.811 122.528 C 115.458 121.971, 114.969 122.595, 114.355 125.666 C 113.249 131.192, 113.589 134.281, 115.870 139.439 L 117.888 144 154.944 144 L 192 144 192 72 L 192 0 165 0 C 141.768 0, 138 0.208, 138 1.487 M 120 59.847 C 116.636 61.655, 116.488 61.973, 116.198 68.013 C 115.929 73.624, 117.020 77.314, 118.508 75.826 C 118.805 75.528, 119.328 72.296, 119.669 68.642 C 120.250 62.421, 121.248 60.360, 122.280 63.250 C 123.026 65.340, 124.172 63.356, 123.825 60.574 L 123.500 57.965 120 59.847 M 70.987 64.024 C 69.636 66.548, 69.742 68.138, 71.548 72.461 C 73.736 77.697, 76 75.680, 76 68.494 C 76 64.063, 75.683 63.150, 73.987 62.707 C 72.672 62.363, 71.632 62.820, 70.987 64.024" stroke="none" fill="black" fill-rule="evenodd"/>
</svg>