<svg xmlns="http://www.w3.org/2000/svg" width="192" height="144" viewBox="0 0 192 144" version="1.1">
	<path d="M 49.570 11.369 C 46.537 14.230, 46.089 15.197, 46.605 17.776 C 47.106 20.279, 46.772 21.103, 44.710 22.455 C 41.069 24.840, 37.250 30.838, 36.111 35.958 C 35.224 39.946, 35.397 40.911, 37.749 45.096 C 39.543 48.287, 41.451 50.196, 43.746 51.097 C 46.498 52.176, 47.010 52.822, 46.555 54.636 C 45.716 57.978, 53.841 66.210, 57.572 65.799 C 61.910 65.322, 61.478 67.544, 56.493 71.350 C 53.954 73.288, 51.567 75.015, 51.188 75.187 C 49.260 76.063, 43.488 84.827, 43.408 87 C 43.286 90.320, 42.059 94, 41.075 94 C 39.967 94, 35.129 84.444, 34.040 80.104 C 33.543 78.122, 32.828 75.487, 32.451 74.250 C 31.803 72.120, 32.053 71.994, 37.133 71.882 C 47.895 71.644, 48.916 70.389, 38.754 69.888 C 33.118 69.611, 28.500 68.900, 27.804 68.204 C 26.102 66.502, 19.492 66.702, 18 68.500 C 16.277 70.576, 14.271 70.375, 13 68 C 11.895 65.936, 7.115 65.327, 2.250 66.630 C 0.117 67.202, 0 67.728, 0 76.704 C 0 85.643, 0.194 86.522, 3.449 92.342 C 6.167 97.202, 8.484 99.655, 14.380 103.914 C 19.161 107.366, 22.091 110.225, 22.493 111.829 C 22.840 113.210, 26.246 117.561, 30.062 121.496 C 33.878 125.431, 37 128.973, 37 129.366 C 37 129.759, 36.154 131.300, 35.120 132.790 C 33.738 134.782, 33.368 136.627, 33.725 139.750 L 34.210 144 63.105 144 C 86.293 144, 92 143.741, 92 142.687 C 92 140.720, 86.881 136.237, 83.750 135.463 C 81.309 134.859, 81 134.324, 81 130.690 C 81 128.439, 81.975 122.622, 83.166 117.764 C 84.740 111.347, 85.032 108.632, 84.233 107.833 C 82.294 105.894, 80.002 107.717, 79.976 111.219 C 79.954 114.108, 79.443 117.074, 77.473 125.750 C 76.701 129.148, 75.456 128.465, 74.086 123.893 C 73.130 120.702, 73.115 118.247, 74.018 112.893 L 75.181 106 78.519 106 C 80.355 106, 82.532 105.325, 83.357 104.500 C 84.182 103.675, 86 103, 87.397 103 C 89.238 103, 89.780 102.589, 89.365 101.508 C 88.346 98.854, 91.894 98.573, 94.125 101.132 C 95.261 102.434, 96.822 103.368, 97.595 103.206 C 98.368 103.045, 99 103.409, 99 104.015 C 99 104.622, 99.338 104.912, 99.750 104.661 C 100.162 104.409, 100.577 107.858, 100.671 112.325 C 100.771 117.102, 101.286 120.595, 101.921 120.807 C 102.514 121.005, 103 122.453, 103 124.024 C 103 125.596, 103.450 127.160, 104 127.500 C 104.550 127.840, 105 129.216, 105 130.559 C 105 133.035, 106.372 133.826, 107.500 132 C 108.683 130.085, 109.519 131.021, 109.510 134.250 C 109.502 136.793, 109.881 137.436, 111.250 137.206 C 112.643 136.972, 113 137.636, 113 140.456 L 113 144 152.500 144 L 192 144 192 141.635 C 192 140.334, 191.186 138.197, 190.190 136.885 C 189.195 135.573, 186.520 131.514, 184.246 127.863 C 180.919 122.523, 180.255 120.695, 180.841 118.502 C 181.492 116.067, 181.712 115.948, 182.907 117.388 C 185.011 119.923, 186.796 119.384, 186.223 116.386 C 185.724 113.775, 185.726 113.774, 188.362 115.501 C 191.203 117.363, 191.595 116.980, 189.965 113.934 C 189.150 112.412, 189.257 112, 190.465 112 C 192.598 112, 192.381 110.653, 189.886 108.405 C 188.724 107.357, 184.040 101.325, 179.478 95 C 174.916 88.675, 168.007 80.070, 164.126 75.877 C 155.872 66.963, 153.412 66.003, 138.807 65.994 C 133.688 65.991, 126.907 65.564, 123.737 65.045 C 117.110 63.959, 106.446 59.459, 104.693 57.008 C 104.037 56.090, 102.600 55.089, 101.500 54.783 C 100.400 54.477, 98.777 53.927, 97.893 53.561 C 96.666 53.053, 95.620 54.257, 93.474 58.642 C 91.151 63.392, 90.536 64.051, 89.933 62.444 C 89.493 61.270, 89.703 60.101, 90.463 59.491 C 91.338 58.791, 91.448 57.740, 90.825 56.056 C 90.332 54.722, 90.135 53.090, 90.389 52.430 C 91.353 49.915, 83.165 29.994, 78.998 24.719 C 75.052 19.723, 70.020 16, 67.214 16 C 66.489 16, 65.436 14.680, 64.873 13.067 C 64.015 10.604, 63.053 9.963, 58.876 9.067 C 56.140 8.480, 53.731 8, 53.522 8 C 53.313 8, 51.535 9.516, 49.570 11.369 M 85.653 64.984 C 85.182 67.341, 84.521 68, 82.632 68 C 80.170 68, 79 69.638, 79 73.082 C 79 76.059, 81.202 75.326, 84.563 71.232 C 88.854 66.004, 88.979 65.691, 87.539 63.723 C 86.375 62.130, 86.201 62.247, 85.653 64.984 M 19 79.054 C 19 79.634, 20.350 82.534, 22 85.500 C 25.301 91.434, 25.718 93.787, 23.609 94.596 C 22.424 95.051, 22.428 95.550, 23.633 97.966 C 24.917 100.539, 29.708 104.631, 30.499 103.830 C 30.679 103.648, 29.751 100.350, 28.438 96.500 C 27.126 92.650, 26.040 88.703, 26.026 87.729 C 26.012 86.754, 24.815 84.167, 23.367 81.979 C 20.811 78.115, 19 76.903, 19 79.054" stroke="none" fill="black" fill-rule="evenodd"/>
</svg>