<svg xmlns="http://www.w3.org/2000/svg" width="192" height="144" viewBox="0 0 192 144" version="1.1">
	<path d="M -0 72.005 L -0 144.010 96.250 143.755 L 192.500 143.500 192.757 71.750 L 193.013 0 96.507 0 L 0 0 -0 72.005 M 0.474 72.500 C 0.474 112.100, 0.598 128.154, 0.750 108.176 C 0.901 88.198, 0.901 55.798, 0.750 36.176 C 0.598 16.554, 0.474 32.900, 0.474 72.500 M 123.218 68.250 C 122.654 68.938, 122.036 70.625, 121.846 72 L 121.500 74.500 97.500 75.114 C 84.300 75.452, 72.713 75.790, 71.750 75.864 C 68.742 76.097, 69.826 77.453, 74.250 78.989 C 77.254 80.032, 84.802 80.616, 100 80.982 L 121.500 81.500 121.813 84.750 C 122.087 87.590, 122.489 88, 125 88 C 127.511 88, 127.913 87.590, 128.187 84.750 L 128.500 81.500 139.256 81.651 C 149.778 81.798, 150.025 81.750, 150.603 79.444 C 151.763 74.822, 151.034 74.500, 139.415 74.500 L 128.500 74.500 128.190 70.750 C 127.954 67.906, 127.440 67, 126.062 67 C 125.063 67, 123.783 67.563, 123.218 68.250" stroke="none" fill="black" fill-rule="evenodd"/>
</svg>