<svg xmlns="http://www.w3.org/2000/svg" width="192" height="144" viewBox="0 0 192 144" version="1.1">
	<path d="M 63.728 9.250 C 63.163 18.861, 59.961 30.958, 57.426 33.061 C 56.642 33.712, 56 34.868, 56 35.629 C 56 36.390, 52.962 40.072, 49.250 43.810 C 41.399 51.715, 30.703 57.515, 21.134 59.056 C 15.180 60.015, 2.888 59.667, 0.976 58.485 C 0.347 58.096, -0 73.186, -0 100.941 L 0 144 52.871 144 L 105.742 144 106.412 138.951 C 106.781 136.174, 108.586 129.086, 110.424 123.201 C 114.860 108.997, 118.215 89.849, 117.360 83.613 C 116.862 79.976, 116.160 78.574, 114.446 77.793 C 111.628 76.510, 110.851 72.841, 112.658 69.358 C 113.416 67.898, 113.872 66.539, 113.672 66.339 C 113.473 66.139, 111.137 66.937, 108.481 68.111 C 104.308 69.957, 103.508 70.049, 102.577 68.786 C 101.985 67.982, 100.979 67.500, 100.342 67.715 C 99.705 67.930, 98.890 67.632, 98.533 67.053 C 98.175 66.474, 96.357 66, 94.493 66 C 91.220 66, 74.429 60.567, 72.604 58.918 C 72.111 58.473, 70.424 58.365, 68.854 58.679 C 66.438 59.162, 66 58.927, 66 57.144 C 66 53.998, 69.960 53.446, 75.371 55.840 C 77.872 56.946, 83.489 58.580, 87.851 59.470 C 95.503 61.030, 95.908 61.018, 99.297 59.114 C 102.245 57.458, 104.012 57.231, 110.254 57.703 C 117.245 58.232, 117.731 58.136, 118.255 56.133 C 118.625 54.716, 118.349 54, 117.432 54 C 115.911 54, 112.628 48.411, 113.408 47.149 C 113.677 46.713, 113.021 45.606, 111.949 44.688 C 109.593 42.671, 109.432 39.285, 111.580 36.912 C 112.801 35.563, 112.914 34.708, 112.080 33.149 C 111.486 32.039, 111 30.153, 111 28.957 C 111 27.088, 111.385 26.878, 113.750 27.461 C 117.847 28.472, 128.229 33.131, 130.388 34.928 C 132.925 37.040, 135 42.176, 135 46.342 C 135 48.216, 135.675 51.662, 136.500 54 C 137.325 56.338, 138 59.223, 138 60.410 C 138 61.748, 139.140 63.242, 141 64.341 C 143.765 65.974, 144.825 69.039, 144.100 73.305 C 144.025 73.748, 144.647 75.085, 145.482 76.277 C 146.551 77.804, 147.022 81.116, 147.073 87.473 C 147.113 92.438, 147.482 98.862, 147.894 101.750 C 148.305 104.638, 148.286 107, 147.852 107 C 147.418 107, 147.345 107.788, 147.691 108.750 C 148.036 109.713, 147.968 110.184, 147.540 109.798 C 146.692 109.033, 144 111.294, 144 112.771 C 144 113.273, 146.471 119.043, 149.492 125.592 C 152.512 132.141, 155.264 138.972, 155.607 140.772 L 156.231 144.044 174.365 143.772 L 192.500 143.500 192.825 129 C 193.003 121.025, 192.837 88.737, 192.455 57.250 L 191.761 0 128.017 0 L 64.273 0 63.728 9.250 M 0.459 101 C 0.459 124.925, 0.589 134.713, 0.749 122.750 C 0.908 110.788, 0.908 91.213, 0.749 79.250 C 0.589 67.288, 0.459 77.075, 0.459 101" stroke="none" fill="black" fill-rule="evenodd"/>
</svg>