<svg xmlns="http://www.w3.org/2000/svg" width="192" height="144" viewBox="0 0 192 144" version="1.1">
	<path d="M 103.582 24.209 C 97.144 27.974, 94.687 38.438, 99.500 41.592 C 100.875 42.493, 102 43.769, 102 44.428 C 102 46.266, 107.696 51.306, 108.919 50.550 C 109.513 50.183, 110 50.428, 110 51.095 C 110 51.762, 108.174 53.871, 105.942 55.782 C 103.473 57.895, 102.100 59.817, 102.435 60.691 C 102.738 61.481, 102.272 63.508, 101.399 65.196 C 100.526 66.884, 100.004 69.574, 100.239 71.175 C 100.584 73.524, 100.360 73.961, 99.083 73.441 C 98.212 73.086, 96.291 72.357, 94.813 71.822 C 91.841 70.745, 90.473 66.949, 91.534 62.721 C 91.884 61.327, 91.674 59.259, 91.067 58.125 C 90.126 56.366, 89.565 56.215, 87.252 57.094 C 85.761 57.661, 84.232 58.625, 83.855 59.235 C 82.446 61.514, 81.704 81.078, 82.938 83.385 C 83.912 85.204, 83.754 86.551, 82.063 90.839 C 79.446 97.480, 79.406 100, 81.918 100 C 83.008 100, 84.713 101.418, 85.866 103.283 C 88.160 106.996, 92.544 108.290, 91.481 104.942 C 90.868 103.010, 91.001 102.940, 96 102.590 C 97.692 102.472, 98.004 96.373, 96.786 87.203 C 96.228 82.998, 96.387 81.789, 97.554 81.341 C 104.908 78.519, 102.556 100.788, 92.592 128.317 C 90.764 133.368, 88.947 138.963, 88.555 140.750 L 87.841 144 116.056 144 L 144.272 144 143.659 139.527 C 143.322 137.068, 140.843 130.655, 138.150 125.277 C 135.457 119.900, 132.052 112.125, 130.584 108 C 129.115 103.875, 126.423 98.025, 124.601 95 C 122.778 91.975, 120.795 88.033, 120.192 86.239 C 118.972 82.608, 119.737 73, 121.246 73 C 121.779 73, 121.928 72.255, 121.579 71.345 C 121.200 70.357, 121.748 68.833, 122.938 67.566 C 124.783 65.602, 124.847 64.932, 123.799 58.605 C 122.816 52.676, 122.873 51.651, 124.221 50.896 C 126.840 49.431, 127.075 45.555, 125.041 37.416 C 123.523 31.338, 122.344 28.878, 119.672 26.206 C 115.102 21.635, 109.230 20.906, 103.582 24.209" stroke="none" fill="black" fill-rule="evenodd"/>
</svg>