<svg xmlns="http://www.w3.org/2000/svg" width="192" height="144" viewBox="0 0 192 144" version="1.1">
	<path d="M 0 72 L 0 144 16.283 144 L 32.566 144 27.835 134.366 C 25.222 129.045, 22.201 120.876, 21.087 116.116 C 18.380 104.546, 15.906 83.783, 16.428 77 C 16.661 73.975, 16.959 68.176, 17.090 64.114 C 17.319 57.041, 17.217 56.670, 14.689 55.345 C 10.449 53.123, 9.422 50.252, 11.750 47.125 C 15.192 42.502, 22.044 41.498, 19.212 46.032 C 18.545 47.099, 18 48.153, 18 48.373 C 18 49.302, 27.749 50.111, 38.942 50.111 C 49.261 50.111, 51.635 49.797, 55.730 47.890 C 61.698 45.111, 80.721 44.097, 91.335 45.992 C 98.141 47.207, 98.181 47.201, 101.013 44.487 C 103.235 42.359, 104.037 40.432, 104.678 35.680 C 105.432 30.099, 105.847 29.331, 109.701 26.395 C 112.012 24.634, 116.212 22.426, 119.036 21.488 L 124.170 19.783 128.653 23.002 C 133.003 26.126, 133.269 26.185, 137.623 24.966 C 141.159 23.975, 142.363 23.968, 143.305 24.933 C 144.238 25.887, 143.622 26.903, 140.500 29.561 L 136.500 32.967 138.500 36.734 C 140.860 41.178, 140.636 44.663, 137.937 45.520 C 136.587 45.948, 136 47.046, 136 49.139 C 136 50.791, 135.325 52.818, 134.500 53.643 C 133.675 54.468, 133 56.456, 133 58.060 C 133 60.463, 133.397 60.951, 135.250 60.828 C 137.763 60.661, 145.174 64.300, 147.136 66.664 C 150.312 70.491, 160.024 77, 162.558 77 C 165.395 77, 169.475 80.787, 170.639 84.500 C 170.984 85.600, 173.439 89.243, 176.096 92.595 C 178.752 95.947, 183.417 103.338, 186.463 109.020 C 191.594 118.592, 191.998 119.832, 191.968 125.925 C 191.938 132.085, 191.837 132.374, 190.366 130.500 C 189.503 129.400, 186.823 124.295, 184.412 119.156 C 174.988 99.067, 163 85.276, 163 94.524 C 163 97.243, 161.228 98.424, 155.632 99.436 C 153.505 99.820, 149.330 101.248, 146.355 102.609 C 143.379 103.970, 140.558 104.845, 140.086 104.553 C 139.614 104.261, 138.980 104.967, 138.678 106.122 C 138.211 107.910, 137.524 108.165, 134.065 107.835 C 129.156 107.367, 129.131 107.520, 131.910 121.140 C 132.960 126.288, 134.138 133.544, 134.528 137.265 L 135.236 144.030 163.868 143.765 L 192.500 143.500 192.757 71.750 L 193.013 0 96.507 0 L 0 0 0 72 M 0.474 72.500 C 0.474 112.100, 0.598 128.154, 0.750 108.176 C 0.901 88.198, 0.901 55.798, 0.750 36.176 C 0.598 16.554, 0.474 32.900, 0.474 72.500 M 64.500 52.022 C 62.300 52.464, 57.867 54.215, 54.648 55.913 C 51.089 57.791, 47.312 59, 45.005 59 C 42.358 59, 40.979 59.528, 40.436 60.750 C 40.007 61.712, 39.461 73.273, 39.222 86.439 C 38.735 113.226, 39.466 120.300, 44.213 134.750 L 47.253 144 71.497 144 L 95.742 144 96.422 138.877 C 97.315 132.143, 99.720 125.998, 104.673 117.795 L 108.721 111.089 109.230 93.795 C 109.546 83.036, 109.369 76.263, 108.761 75.874 C 108.196 75.512, 108.070 73.544, 108.464 71.214 C 109.054 67.719, 108.875 67.095, 107.124 66.539 C 103.605 65.422, 99 60.376, 99 57.637 C 99 55.525, 98.344 54.901, 95.250 54.069 C 85.096 51.338, 72.187 50.479, 64.500 52.022 M 128.932 68.904 C 130.069 70.502, 131 72.302, 131 72.904 C 131 73.507, 131.459 74, 132.019 74 C 133.495 74, 132.071 68.747, 130.189 67.250 C 127.436 65.060, 126.795 65.903, 128.932 68.904 M 146.557 77.418 C 148.458 78.808, 148.441 78.950, 145.748 84.440 C 144.237 87.523, 143 90.259, 143 90.522 C 143 91.910, 145.958 90.670, 148.076 88.394 C 149.409 86.961, 151.549 85.383, 152.831 84.888 C 155.866 83.716, 155.236 82.121, 150.420 78.783 C 146.448 76.030, 142.986 74.807, 146.557 77.418" stroke="none" fill="black" fill-rule="evenodd"/>
</svg>