<svg xmlns="http://www.w3.org/2000/svg" width="192" height="144" viewBox="0 0 192 144" version="1.1">
	<path d="M 91.374 85.552 C 90.399 87.039, 89.558 90.040, 89.503 92.222 C 89.433 95.020, 88.771 96.675, 87.253 97.844 C 84.303 100.116, 82.826 104.411, 83.964 107.406 C 84.468 108.730, 86.496 111.430, 88.473 113.406 C 91.622 116.555, 92.675 117, 96.974 117 C 99.674 117, 102.160 116.550, 102.500 116 C 102.840 115.450, 103.977 115, 105.028 115 C 106.402 115, 106.757 114.531, 106.295 113.326 C 105.811 112.066, 106.060 111.809, 107.302 112.286 C 108.738 112.837, 108.872 112.312, 108.337 108.209 C 108 105.619, 107.223 102.825, 106.612 102 C 105.642 100.692, 105.727 100.678, 107.274 101.893 C 109.600 103.718, 110.341 102.831, 109.539 99.180 C 109.004 96.741, 108.500 96.314, 106.694 96.770 C 105.487 97.075, 104.263 97.678, 103.974 98.109 C 103.684 98.541, 102.805 98.497, 102.020 98.012 C 100.893 97.316, 100.828 96.643, 101.715 94.815 C 103.540 91.052, 104.034 86.270, 102.708 85.200 C 102.043 84.664, 99.620 83.916, 97.323 83.537 C 93.525 82.911, 92.984 83.095, 91.374 85.552" stroke="none" fill="black" fill-rule="evenodd"/>
</svg>