<svg xmlns="http://www.w3.org/2000/svg" width="192" height="144" viewBox="0 0 192 144" version="1.1">
	<path d="M -0 72.005 L -0 144.010 96.250 143.755 L 192.500 143.500 192.757 71.750 L 193.013 0 96.507 0 L 0 0 -0 72.005 M 0.474 72.500 C 0.474 112.100, 0.598 128.154, 0.750 108.176 C 0.901 88.198, 0.901 55.798, 0.750 36.176 C 0.598 16.554, 0.474 32.900, 0.474 72.500 M 86.595 35.110 C 85.184 37.938, 85.241 38.080, 88.824 40.755 C 95.199 45.513, 98.040 48.731, 97.382 50.447 C 96.576 52.546, 94 50.588, 94 47.878 C 94 46.686, 93.291 46, 92.059 46 C 88.842 46, 88.575 48.086, 91.496 50.415 C 95.091 53.282, 95.490 59.549, 92.341 63.701 C 89.898 66.922, 87.780 67.031, 68.720 64.920 C 62.791 64.263, 57.665 64.002, 57.328 64.339 C 56.227 65.440, 59.189 68, 61.563 68 C 62.839 68, 64.141 68.420, 64.458 68.933 C 64.775 69.446, 66.335 69.828, 67.924 69.783 C 69.514 69.738, 72.848 70.893, 75.335 72.350 C 81.245 75.814, 82.028 75.695, 78.437 71.877 L 75.500 68.754 84 69.430 C 90.697 69.964, 92.783 70.508, 93.834 71.997 C 94.944 73.568, 95.991 73.788, 100.063 73.306 C 105.134 72.706, 104.957 72.592, 106.421 77.376 C 107.048 79.425, 112 78.211, 112 76.008 C 112 73.955, 117.215 72.532, 119.832 73.872 C 120.749 74.341, 123.525 75.022, 126 75.385 C 128.475 75.748, 132.622 76.793, 135.216 77.708 C 139.647 79.270, 140.048 79.266, 141.841 77.644 C 142.891 76.694, 144.369 76.048, 145.125 76.208 C 146.022 76.399, 146.608 75.381, 146.811 73.278 C 147.058 70.723, 146.425 69.358, 143.751 66.684 C 139.605 62.538, 136.942 61.813, 129.944 62.923 C 126.569 63.458, 124.272 63.422, 123.901 62.828 C 123.571 62.301, 121.144 61.319, 118.508 60.647 C 114.303 59.574, 113.677 59.070, 113.407 56.536 C 113.211 54.702, 113.720 53.182, 114.799 52.373 C 116.363 51.200, 116.278 50.888, 113.750 48.508 C 112.237 47.084, 111 45.571, 111 45.145 C 111 44.719, 109.425 43.619, 107.500 42.701 C 105.575 41.783, 104 40.561, 104 39.985 C 104 38.282, 106.679 37.758, 109.008 39.004 C 113.339 41.322, 112.101 39.020, 107.420 36.051 C 101.769 32.467, 100.149 32.308, 96.727 35 C 93.849 37.264, 91.542 37.637, 92.277 35.719 C 92.548 35.015, 91.705 33.937, 90.406 33.323 C 88.296 32.328, 87.887 32.519, 86.595 35.110 M 106.597 53.844 C 106.251 54.404, 106.455 55.163, 107.050 55.531 C 108.588 56.481, 109.580 55.180, 108.296 53.896 C 107.578 53.178, 107.019 53.161, 106.597 53.844 M 96.099 61.557 C 92.555 67.563, 93.754 68.954, 98.344 64.163 C 100.085 62.346, 100.833 60.728, 100.424 59.663 C 99.466 57.167, 98.418 57.626, 96.099 61.557" stroke="none" fill="black" fill-rule="evenodd"/>
</svg>