<svg xmlns="http://www.w3.org/2000/svg" width="192" height="144" viewBox="0 0 192 144" version="1.1">
	<path d="M 101 72 L 101 144 146.500 144 L 192 144 192 87.450 C 192 35.304, 191.872 30.972, 190.358 31.820 C 189.455 32.325, 187.923 32.531, 186.954 32.278 C 185.797 31.975, 184.964 32.539, 184.524 33.923 C 184.157 35.081, 183.438 35.771, 182.928 35.456 C 182.418 35.140, 182 35.359, 182 35.941 C 182 38.176, 180.009 36.867, 179.426 34.250 C 178.214 28.802, 177.845 28, 176.555 28 C 175.834 28, 174.685 27.325, 174 26.500 C 173.315 25.675, 171.439 25, 169.831 25 C 167.665 25, 166.483 24.261, 165.270 22.147 C 163.465 19.002, 154.321 15.358, 152.550 17.078 C 150.943 18.638, 147.698 18.089, 143.148 15.488 C 140.754 14.120, 137.522 13, 135.965 13 C 134.151 13, 132.932 12.371, 132.570 11.250 C 132.259 10.287, 130.654 8.733, 129.003 7.797 C 127.257 6.806, 126 5.268, 126 4.122 C 126 2.444, 126.534 2.217, 129.590 2.596 C 131.564 2.841, 134.376 3.648, 135.840 4.390 C 137.303 5.132, 143.716 7.430, 150.091 9.497 C 161.382 13.157, 161.751 13.209, 164.341 11.512 C 165.804 10.554, 167 9.324, 167 8.779 C 167 8.234, 168.125 6.452, 169.500 4.818 C 170.875 3.184, 172 1.431, 172 0.923 C 172 0.376, 157.533 0, 136.500 0 L 101 0 101 72 M 191.195 8.500 C 191.215 10.150, 191.439 10.704, 191.693 9.731 C 191.947 8.758, 191.930 7.408, 191.656 6.731 C 191.382 6.054, 191.175 6.850, 191.195 8.500 M 174.667 8.667 C 174.300 9.033, 174 9.798, 174 10.367 C 174 10.993, 174.466 10.934, 175.183 10.217 C 175.834 9.566, 176.134 8.801, 175.850 8.517 C 175.566 8.232, 175.033 8.300, 174.667 8.667 M 30 55.370 C 23.834 59.807, 21.742 64.056, 22.378 70.858 C 23.315 80.898, 31.150 88, 41.289 88 C 55.067 88, 63.854 74.711, 57.819 63 C 55.974 59.420, 54.376 57.956, 50 55.837 C 46.975 54.373, 42.250 52.940, 39.500 52.654 C 35.031 52.188, 34.022 52.476, 30 55.370" stroke="none" fill="black" fill-rule="evenodd"/>
</svg>