<svg xmlns="http://www.w3.org/2000/svg" width="192" height="144" viewBox="0 0 192 144" version="1.1">
	<path d="M 87.433 1.701 C 86.983 2.690, 86.582 3.995, 86.542 4.601 C 86.419 6.462, 79.789 13.466, 77.582 14.066 C 76.298 14.416, 75.618 15.300, 75.807 16.373 C 75.980 17.354, 75.543 18.037, 74.807 17.938 C 71.867 17.544, 71.016 18.151, 70.167 21.250 C 69.405 24.033, 69.640 24.892, 71.806 27.230 C 74.034 29.634, 74.307 30.723, 74.102 36.380 C 73.974 39.912, 74.304 44.533, 74.834 46.651 C 77.172 55.976, 77.172 55.858, 74.846 55.249 C 73.542 54.908, 72.268 55.281, 71.597 56.199 C 70.989 57.029, 69.493 58.026, 68.272 58.414 C 67.051 58.801, 65.062 60.554, 63.852 62.309 C 62.642 64.064, 59.031 68.274, 55.826 71.663 C 49.463 78.395, 48.660 81.184, 52.039 84.811 C 54.864 87.844, 56.539 87.590, 64 83 C 67.575 80.801, 71.737 79.001, 73.250 79.001 C 75.896 79, 76 79.196, 76 84.179 C 76 87.028, 74.999 92.466, 73.776 96.264 C 71.694 102.729, 71.662 103.231, 73.276 104.134 C 75.407 105.327, 75.505 109.299, 73.481 112.389 C 72.645 113.664, 70.828 120.190, 69.442 126.890 C 68.057 133.591, 66.501 140.182, 65.986 141.537 L 65.050 144 91.840 144 L 118.631 144 115.205 133.250 C 110.481 118.426, 108.339 113.117, 105.327 108.759 C 103.525 106.153, 103.037 104.636, 103.719 103.759 C 104.257 103.067, 106.128 99.013, 107.877 94.752 C 110.741 87.772, 110.990 86.359, 110.390 80.499 L 109.723 73.995 113.112 74.620 C 114.975 74.964, 119.650 77.378, 123.500 79.986 C 127.350 82.593, 132.160 85.319, 134.190 86.042 C 137.725 87.303, 138.126 87.207, 143.723 83.752 C 146.937 81.768, 151.521 79.550, 153.910 78.823 C 156.300 78.095, 158.924 76.487, 159.742 75.250 C 160.561 74.013, 161.867 73, 162.646 73 C 163.425 73, 164.308 72.360, 164.609 71.577 C 165.617 68.950, 168.269 68.912, 172.136 71.471 C 174.237 72.862, 176.671 74, 177.544 74 C 182.959 74, 185.129 67.927, 180.473 65.806 C 178.557 64.933, 177.662 64.938, 176.773 65.827 C 174.947 67.653, 174.160 67.234, 173.816 64.250 C 173.568 62.090, 172.910 61.432, 170.750 61.184 C 169.238 61.010, 168 60.447, 168 59.934 C 168 59.420, 167.100 59, 166 59 C 164.889 59, 164 58.333, 164 57.500 C 164 54.658, 161.003 55.879, 160.932 58.750 C 160.866 61.451, 160.845 61.460, 159.780 59.250 C 158.519 56.637, 157.185 56.355, 156.352 58.526 C 155.921 59.649, 155.425 59.768, 154.472 58.977 C 153.760 58.386, 152.939 58.290, 152.646 58.764 C 152.172 59.531, 144.736 58.579, 122.750 54.937 C 119.037 54.322, 116 53.475, 116 53.056 C 116 52.637, 119.167 50.187, 123.038 47.613 C 126.909 45.039, 129.829 42.533, 129.527 42.043 C 128.908 41.042, 134.816 36.483, 135.651 37.317 C 135.945 37.612, 134.752 38.594, 133 39.500 C 131.248 40.406, 130.040 41.373, 130.315 41.649 C 131.140 42.473, 139 36.842, 139 35.426 C 139 33.065, 136.893 32.753, 134.676 34.787 C 133.479 35.884, 126.698 40.466, 119.607 44.968 L 106.713 53.153 107.265 49.757 C 107.568 47.889, 108.982 44.641, 110.408 42.541 C 113.273 38.319, 113.684 34.014, 111.817 27.784 C 110.832 24.496, 110.900 23.305, 112.220 20.668 C 115.436 14.247, 114.973 12, 110.435 12 C 109.244 12, 107.197 11.163, 105.885 10.140 C 104.573 9.117, 102.436 8.447, 101.136 8.651 C 97.985 9.146, 92.207 5.468, 91.814 2.718 C 91.421 -0.033, 88.528 -0.705, 87.433 1.701 M 141.918 65.511 C 141.087 66.341, 137.849 67.354, 134.721 67.761 L 129.034 68.500 132.443 70.828 L 135.852 73.156 141.316 69.661 C 144.321 67.739, 147.081 65.679, 147.449 65.083 C 148.488 63.401, 143.654 63.775, 141.918 65.511" stroke="none" fill="black" fill-rule="evenodd"/>
</svg>