<svg xmlns="http://www.w3.org/2000/svg" width="192" height="144" viewBox="0 0 192 144" version="1.1">
	<path d="M 104.207 32.193 C 103.543 32.857, 103 33.843, 103 34.386 C 103 34.928, 102.129 36.300, 101.065 37.436 C 99.352 39.264, 99.251 40.065, 100.187 44.440 C 100.951 48.016, 100.933 49.877, 100.122 51.177 C 98.396 53.940, 98.775 56.576, 101.345 59.673 C 103.870 62.716, 105.491 68.578, 104.054 69.467 C 103.569 69.766, 102.245 71.921, 101.111 74.256 C 99.977 76.590, 97.238 80.686, 95.025 83.359 C 92.811 86.031, 91.007 88.506, 91.015 88.859 C 91.045 90.118, 92.536 91.720, 94.778 92.900 C 96.031 93.560, 96.772 94.559, 96.425 95.121 C 94.631 98.024, 91.706 117.040, 92.795 118.725 C 93.558 119.905, 96.515 120.770, 100.317 120.926 C 101.612 120.979, 101.967 121.527, 101.553 122.832 C 100.731 125.422, 103.668 127.652, 109 128.487 C 111.475 128.875, 114.400 129.753, 115.500 130.438 C 116.600 131.123, 118.737 131.988, 120.250 132.361 C 121.763 132.733, 123 133.705, 123 134.519 C 123 136.137, 124.765 136.436, 126.778 135.158 C 127.706 134.570, 127.363 134.031, 125.528 133.195 C 122.961 132.025, 122.180 129.625, 124 128.500 C 125.825 127.372, 125.041 126.185, 121.250 124.332 C 118.483 122.981, 117.418 121.785, 117.186 119.772 C 117.013 118.272, 115.727 116.144, 114.328 115.043 C 111.824 113.074, 111.796 112.897, 112.503 103.771 C 112.898 98.672, 113.734 93.865, 114.361 93.088 C 115.128 92.137, 115.437 86.319, 115.308 75.260 L 115.116 58.844 119.058 59.510 C 123.210 60.211, 123.423 59.983, 123.039 55.246 C 122.937 53.988, 123.550 52.726, 124.428 52.389 C 126.230 51.698, 126.588 46.481, 124.905 45.441 C 124.302 45.069, 122.699 45.358, 121.343 46.084 C 119.473 47.085, 118.439 47.131, 117.067 46.274 C 115.723 45.434, 114.966 45.434, 114.128 46.272 C 113.291 47.109, 112.970 46.512, 112.885 43.950 C 112.822 42.052, 112.850 39.709, 112.949 38.743 C 113.047 37.777, 112.312 36.709, 111.314 36.370 C 110.316 36.031, 108.581 34.681, 107.457 33.370 C 105.861 31.508, 105.149 31.251, 104.207 32.193 M 47.324 35.750 C 46.524 38.030, 42.935 40.949, 40.898 40.978 C 37.862 41.020, 39.691 54.455, 43.012 56.507 C 43.771 56.977, 43.461 57.689, 42.073 58.661 C 40.562 59.720, 39.981 61.250, 39.930 64.307 C 39.833 70.071, 39.107 71.449, 34.537 74.544 C 31.103 76.870, 29.906 77.149, 25.560 76.634 C 22.802 76.308, 19.316 75.131, 17.813 74.020 C 14.653 71.684, 13.372 71.591, 5.667 73.138 C 0.514 74.173, 0 74.513, 0.002 76.888 C 0.004 79.316, 1.200 80.012, 16.948 86.750 C 26.267 90.737, 34.640 94, 35.553 94 C 36.626 94, 37.008 94.536, 36.633 95.515 C 36.277 96.441, 37.220 98.071, 39.058 99.709 C 40.712 101.183, 41.827 103.009, 41.536 103.767 C 41.245 104.525, 41.520 106.104, 42.148 107.276 C 42.775 108.449, 43.855 111.556, 44.548 114.182 L 45.807 118.956 42.503 120.998 C 38.602 123.409, 37.218 126, 39.831 126 C 41.164 126, 41.600 126.810, 41.600 129.285 C 41.600 132.288, 41.149 132.768, 36.320 134.899 C 33.416 136.181, 30.469 136.984, 29.770 136.685 C 29.072 136.385, 25.595 134.133, 22.045 131.680 C 15.653 127.263, 15.549 127.232, 11.545 128.531 C 0.834 132.006, 0.002 132.396, 0.056 133.918 C 0.087 134.788, 2.535 137.412, 5.497 139.750 L 10.883 144 24.442 144 C 32.814 144, 38 143.617, 38 143 C 38 142.450, 38.675 142, 39.500 142 C 40.325 142, 41 142.450, 41 143 C 41 143.560, 43.754 144, 47.263 144 C 52.890 144, 53.727 143.729, 55.513 141.325 C 57.998 137.980, 58.723 137.342, 62.750 134.955 C 64.537 133.896, 66 132.613, 66 132.104 C 66 131.595, 63.973 130.197, 61.496 128.998 C 58.277 127.440, 56.826 126.060, 56.407 124.159 C 55.256 118.926, 52.750 111.463, 51.441 109.367 C 49.574 106.381, 51.284 104.359, 57.954 101.664 C 65.913 98.448, 66.108 97.608, 61.135 87.909 C 58.802 83.359, 56.629 79.208, 56.305 78.685 C 55.982 78.161, 55.601 76.331, 55.459 74.616 C 55.318 72.902, 54.727 68.371, 54.147 64.546 C 53.480 60.143, 53.441 57.173, 54.043 56.448 C 55.368 54.852, 54.667 46.015, 52.976 43 C 52.206 41.625, 51.700 40.075, 51.852 39.555 C 52.227 38.278, 49.877 34, 48.800 34 C 48.325 34, 47.661 34.788, 47.324 35.750 M 160.976 38.191 C 160.950 39.672, 153.252 45.636, 151.873 45.246 C 151.059 45.015, 151.215 47.562, 152.567 56.587 L 153.029 59.674 145.870 61.024 L 138.711 62.375 136.534 59.645 C 134.671 57.309, 133.989 57.054, 131.815 57.880 C 130.417 58.412, 129.013 59.523, 128.696 60.350 C 128.053 62.025, 130.405 64.486, 131.816 63.614 C 132.312 63.307, 133.946 64.432, 135.445 66.115 C 138.159 69.161, 139.362 69.333, 144.407 67.397 C 145.634 66.927, 146.003 67.443, 146.014 69.643 C 146.039 74.854, 147.069 77.113, 149.124 76.461 C 150.193 76.121, 151 76.345, 151 76.981 C 151 78.191, 145.998 85.973, 140.873 92.735 C 137.783 96.814, 137.729 97.043, 139.428 98.921 C 140.399 99.993, 143.174 101.802, 145.596 102.940 C 150.126 105.069, 150.683 106.237, 149.060 110.203 C 148.544 111.466, 147.836 114.674, 147.487 117.332 C 146.918 121.670, 146.496 122.313, 143.361 123.623 C 139.391 125.281, 139.147 127.766, 142.777 129.576 C 146.384 131.375, 146.737 132.317, 143.589 131.745 C 140.367 131.159, 135.276 132.539, 133.072 134.595 C 131.841 135.743, 131.881 136.017, 133.360 136.585 C 134.355 136.967, 135.826 136.563, 136.866 135.621 C 139.101 133.599, 144.197 133.533, 147.959 135.479 C 151.371 137.243, 152.146 138.997, 150.321 140.822 C 149.584 141.558, 149.237 142.575, 149.550 143.081 C 150.414 144.479, 168.370 144.230, 169.800 142.800 C 171.821 140.779, 171.181 137.435, 168.500 136 C 165.608 134.452, 165.425 133.722, 167.500 132 C 169.877 130.027, 169.269 128.091, 165.589 125.920 C 161.244 123.356, 160.664 121.739, 162.510 117.322 C 163.329 115.361, 164 112.027, 164 109.913 C 164 107.094, 164.533 105.785, 166 105 C 168.379 103.727, 168.564 100.517, 166.561 95.270 C 163.295 86.716, 162.260 71.340, 164.781 68.819 C 165.452 68.148, 166 66.790, 166 65.800 C 166 64.404, 166.798 64, 169.559 64 C 171.677 64, 172.868 63.595, 172.500 63 C 172.160 62.450, 170.109 62, 167.941 62 C 163.480 62, 163.454 61.957, 165.489 58.022 C 167.521 54.092, 166.938 48.126, 164.138 44.194 C 162.859 42.398, 162.061 40.284, 162.363 39.497 C 162.665 38.709, 162.482 37.798, 161.956 37.473 C 161.430 37.148, 160.989 37.471, 160.976 38.191 M 41 81.500 C 39.987 82.721, 40.037 83, 41.271 83 C 42.104 83, 43.045 82.325, 43.362 81.500 C 43.678 80.675, 43.556 80, 43.091 80 C 42.626 80, 41.685 80.675, 41 81.500 M 99.897 97.750 C 97.306 104.518, 95.833 112.233, 96.925 113.325 C 98.443 114.843, 106.253 114.189, 107.614 112.430 C 108.227 111.638, 108.805 107.676, 108.899 103.627 L 109.070 96.264 105.910 95.632 C 101.231 94.696, 101.041 94.763, 99.897 97.750 M 154.975 108.500 C 154.439 109.875, 153.538 112.186, 152.973 113.636 C 152.408 115.087, 151.705 117.787, 151.411 119.636 C 150.907 122.810, 151.042 123, 153.802 123 C 156.565 123, 156.796 122.672, 157.987 117.061 C 159.819 108.430, 157.535 101.938, 154.975 108.500 M 48 124.500 C 46.960 125.753, 47.104 126, 48.878 126 C 50.098 126, 51 125.362, 51 124.500 C 51 123.675, 50.605 123, 50.122 123 C 49.640 123, 48.685 123.675, 48 124.500 M 116 127 C 116 127.550, 116.900 128, 118 128 C 119.100 128, 120 127.550, 120 127 C 120 126.450, 119.100 126, 118 126 C 116.900 126, 116 126.450, 116 127 M 37.250 136.802 C 33.402 138.650, 33.051 140, 36.418 140 C 39.831 140, 42 139.010, 42 137.452 C 42 135.310, 40.721 135.135, 37.250 136.802" stroke="none" fill="black" fill-rule="evenodd"/>
</svg>