<svg xmlns="http://www.w3.org/2000/svg" width="192" height="144" viewBox="0 0 192 144" version="1.1">
	<path d="M 19 2.058 C 13.775 3.070, 7.362 3.921, 4.750 3.949 L 0 4 0 8 L 0 12 5.941 12 C 9.209 12, 12.129 12.400, 12.431 12.889 C 12.733 13.378, 11.479 14.923, 9.643 16.323 C 7.159 18.218, 5.634 20.760, 3.678 26.271 L 1.050 33.673 4.720 46.521 C 6.739 53.588, 7.965 59.519, 7.445 59.701 C 6.925 59.883, 5.825 60.484, 5 61.035 C 3.705 61.901, 3.773 62.250, 5.500 63.587 C 6.600 64.440, 8.116 65.491, 8.868 65.924 C 9.620 66.357, 10.800 68.914, 11.489 71.606 C 12.698 76.329, 12.860 76.492, 16.121 76.268 C 36.121 74.897, 79.445 73.642, 124.497 73.128 L 179.493 72.500 180.799 68.510 C 181.518 66.316, 182.757 64.156, 183.553 63.711 C 185.106 62.841, 185.561 60, 184.147 60 C 183.677 60, 184.797 54.263, 186.635 47.250 C 188.473 40.237, 189.982 33.469, 189.988 32.209 C 189.995 30.949, 189.052 26.984, 187.894 23.399 C 186.229 18.245, 185.079 16.420, 182.406 14.690 C 178.319 12.043, 178.205 11.416, 181.655 10.550 C 184.271 9.894, 186.457 11.452, 185.375 13.202 C 185.104 13.641, 185.310 14, 185.834 14 C 186.358 14, 187.045 13.325, 187.362 12.500 C 188.492 9.554, 189.861 11.083, 190.721 16.250 L 191.595 21.500 192.320 13.263 C 193.333 1.748, 192.760 -0, 187.975 -0 C 185.880 -0, 184.017 0.381, 183.833 0.846 C 183.650 1.311, 180.800 1.349, 177.500 0.930 C 174.200 0.511, 168.350 0.136, 164.500 0.096 L 157.500 0.024 154.211 6.012 C 152.402 9.305, 150.668 12, 150.358 12 C 150.048 12, 146.665 9.300, 142.840 6 L 135.886 -0 94.193 0.004 C 47.743 0.008, 51.013 -0.450, 42.830 7.195 L 39.160 10.623 35.830 5.562 C 33.812 2.495, 31.712 0.444, 30.500 0.359 C 29.400 0.281, 24.225 1.046, 19 2.058 M 0.272 8 C 0.272 10.475, 0.467 11.488, 0.706 10.250 C 0.944 9.012, 0.944 6.988, 0.706 5.750 C 0.467 4.512, 0.272 5.525, 0.272 8 M 189.813 5.683 C 190.534 5.972, 191.397 5.936, 191.729 5.604 C 192.061 5.272, 191.471 5.036, 190.417 5.079 C 189.252 5.127, 189.015 5.364, 189.813 5.683 M 163.185 14.963 L 160.994 17.927 163.153 19.082 C 164.992 20.066, 165.570 19.896, 167.049 17.934 C 168.417 16.121, 168.546 15.245, 167.653 13.816 C 166.141 11.396, 165.748 11.497, 163.185 14.963 M 23.562 15.608 C 23.163 17.197, 23.489 18.632, 24.470 19.613 C 25.312 20.455, 26 21.561, 26 22.071 C 26 23.371, 27.181 23.178, 29.369 21.521 C 31.178 20.151, 31.162 20.008, 28.869 17.121 C 25.648 13.064, 24.297 12.679, 23.562 15.608 M 90.500 87.655 C 79.359 87.918, 14.196 90.146, 9.506 90.424 C 6.761 90.587, 6.264 91.222, 3.528 98.051 C 0.640 105.263, 0.534 106.112, 0.196 124.750 L -0.153 144 11.313 144 L 22.780 144 24.768 139.750 C 25.861 137.412, 27.992 132.350, 29.503 128.500 C 33.178 119.136, 33.999 118.507, 34.007 125.050 C 34.011 128.047, 34.301 133.537, 34.652 137.250 L 35.289 144 95.507 144 L 155.724 144 156.612 135.829 L 157.500 127.657 160.835 135.856 L 164.170 144.054 178.335 143.777 L 192.500 143.500 192.568 125 C 192.617 111.627, 192.479 109.271, 192.068 116.500 C 191.521 126.130, 191.473 126.296, 190.770 120.995 C 189.954 114.837, 184.973 96.510, 182.550 90.750 L 180.973 87 140.737 87.209 C 118.606 87.324, 96 87.525, 90.500 87.655 M 0.415 126 C 0.415 136.175, 0.564 140.338, 0.745 135.250 C 0.927 130.162, 0.927 121.837, 0.745 116.750 C 0.564 111.662, 0.415 115.825, 0.415 126" stroke="none" fill="black" fill-rule="evenodd"/>
</svg>