<svg xmlns="http://www.w3.org/2000/svg" width="192" height="144" viewBox="0 0 192 144" version="1.1">
	<path d="M 127.599 25.840 C 127.292 26.336, 125.571 27.036, 123.774 27.395 C 121.547 27.841, 118.635 30.016, 114.624 34.231 C 111.388 37.631, 109.192 40.564, 109.743 40.748 C 110.313 40.938, 110.532 42.969, 110.252 45.457 C 109.837 49.139, 110.095 50.042, 111.879 51.157 C 114.386 52.722, 114.552 53.873, 112.491 55.390 C 111.181 56.353, 111.149 57.420, 112.246 63.456 C 113.345 69.505, 113.825 70.487, 115.931 70.984 C 118.764 71.652, 119.955 74, 117.461 74 C 116.156 74, 116.014 74.312, 116.857 75.328 C 118.370 77.151, 116.648 82.858, 114.031 84.691 C 112.914 85.473, 112 86.597, 112 87.189 C 112 87.780, 110.987 89.892, 109.750 91.882 C 108.513 93.872, 107.500 96.379, 107.500 97.454 C 107.500 99.012, 106.760 99.435, 103.856 99.539 C 100.518 99.660, 100.112 99.369, 99.027 96.081 C 98.068 93.176, 98.143 91.194, 99.421 85.684 C 100.290 81.940, 101.004 75.641, 101.008 71.688 C 101.017 63.679, 102.387 49.762, 104.102 40.241 C 105.405 33.009, 104.380 30.700, 100.086 31.199 C 97.688 31.478, 97.483 31.900, 97.266 37 C 96.877 46.138, 95.100 63.793, 93.297 76.428 L 91.594 88.357 90.459 83.928 C 88.151 74.929, 84.772 70.724, 80.702 71.788 C 79.341 72.144, 78.920 71.939, 79.403 71.158 C 79.796 70.521, 79.852 69.570, 79.527 69.044 C 78.813 67.888, 76 68.812, 76 70.203 C 76 70.746, 75.116 72.433, 74.035 73.951 C 72.954 75.469, 71.785 78.492, 71.437 80.670 C 70.824 84.501, 71.001 84.820, 76.902 90.487 C 83.411 96.740, 84.116 98.333, 81.087 99.953 C 80.035 100.516, 78.398 103.008, 77.450 105.491 C 75.301 111.120, 75.833 119.475, 79.003 129.835 C 80.880 135.974, 81.044 137.549, 80.005 139.490 C 79.323 140.766, 79.069 142.302, 79.441 142.905 C 79.915 143.671, 93.136 144, 123.487 144 L 166.855 144 166.374 138.250 C 166.109 135.088, 164.968 125.135, 163.839 116.134 C 161.898 100.667, 161.871 99.213, 163.346 89.634 C 167.011 65.833, 166.528 56.832, 160.873 43.541 C 157.460 35.518, 155.098 32.625, 149.708 29.861 C 146.341 28.135, 143.161 27.372, 131.328 25.453 C 129.583 25.170, 127.905 25.344, 127.599 25.840 M 42.008 29.490 C 41.082 30.607, 40.316 30.704, 38.809 29.898 C 36.380 28.598, 35.292 29.442, 36.901 31.380 C 37.582 32.202, 37.809 33.912, 37.435 35.404 C 36.888 37.584, 37.121 38, 38.892 38 C 40.051 38, 41 38.529, 41 39.175 C 41 39.821, 41.842 39.484, 42.872 38.425 C 43.902 37.366, 44.550 36.163, 44.313 35.750 C 44.076 35.337, 44.584 35, 45.441 35 C 47.399 35, 47.487 33.124, 45.563 32.386 C 44.773 32.083, 44.354 31.242, 44.631 30.518 C 45.381 28.565, 43.415 27.795, 42.008 29.490 M 80 74.878 C 80 76.039, 82.909 78.424, 83.548 77.786 C 84.453 76.880, 82.814 74, 81.393 74 C 80.627 74, 80 74.395, 80 74.878" stroke="none" fill="black" fill-rule="evenodd"/>
</svg>