<svg xmlns="http://www.w3.org/2000/svg" width="192" height="144" viewBox="0 0 192 144" version="1.1">
	<path d="M 0.013 72 L 0.033 144 22.575 144 C 35.670 144, 44.885 143.623, 44.562 143.100 C 44.256 142.606, 41.792 141.670, 39.086 141.021 C 36.380 140.371, 33.391 138.985, 32.445 137.940 C 31.499 136.894, 29.151 135.744, 27.226 135.383 C 23.325 134.651, 17.096 131.045, 17.065 129.500 C 17.054 128.950, 17.924 127.375, 19 126 C 20.076 124.625, 20.966 122.753, 20.978 121.839 C 21.011 119.365, 26.461 115.238, 31.797 113.647 C 41.889 110.639, 49.365 106.214, 56.470 99.042 L 63.441 92.006 62.095 88.753 C 59.876 83.390, 59.725 79.621, 61.404 71.505 C 63.091 63.345, 63.505 55.867, 62.250 56.198 C 60.843 56.570, 57 54.868, 57 53.874 C 57 53.328, 56.616 53.119, 56.146 53.410 C 55.677 53.700, 54.755 52.757, 54.098 51.315 L 52.903 48.693 51.247 51.097 C 49.039 54.302, 46.873 55.930, 44.763 55.968 C 43.766 55.986, 42.448 57.384, 41.668 59.250 C 40.064 63.088, 38.482 64.490, 34.750 65.381 C 32.647 65.884, 32 66.634, 32 68.570 C 32 70.501, 31.198 71.437, 28.621 72.514 C 26.763 73.290, 24.977 74.617, 24.653 75.463 C 23.460 78.570, 21.150 76.968, 19.452 71.855 C 18.151 67.940, 17.857 64.532, 18.222 57.605 C 18.629 49.875, 19.237 47.341, 22.251 40.825 C 24.203 36.604, 27.241 31.057, 29.002 28.498 C 32.171 23.891, 32.184 23.823, 30.304 21.672 C 29.260 20.478, 27.751 18.600, 26.953 17.500 C 25.573 15.600, 25.600 15.575, 27.500 17 C 28.600 17.825, 29.725 18.725, 30 19 C 33.192 22.192, 33.733 22.119, 40.148 17.636 C 48.287 11.946, 56.757 8.216, 63.316 7.431 C 66.167 7.090, 69.400 6.679, 70.500 6.517 C 73.413 6.090, 84.203 7.923, 85.601 9.084 C 87.600 10.742, 85.075 16, 82.281 16 C 80.435 16, 80 16.549, 80 18.878 C 80 22.117, 78.752 23.425, 74.750 24.381 C 71.366 25.189, 71.146 27.748, 74.390 28.562 C 77.289 29.289, 81.515 33.552, 82.854 37.099 C 83.882 39.821, 82.375 44.495, 80.612 44.052 C 79.367 43.740, 78.034 46.097, 78.015 48.643 C 78 50.854, 76.259 52, 72.918 52 C 71.863 52, 71 52.450, 71 53 C 71 53.550, 71.412 54, 71.915 54 C 73.761 54, 84.075 65.586, 84.668 68.326 C 85.057 70.121, 86.639 72.009, 89.003 73.502 C 91.050 74.794, 93.638 77.105, 94.755 78.638 C 96.503 81.038, 97.007 81.239, 98.392 80.090 C 100.528 78.317, 100.419 76.803, 97.927 73.635 C 96.381 71.669, 96.215 71, 97.272 71 C 99.457 71, 102 74.367, 102 77.257 C 102 80.952, 99.325 83.275, 95.686 82.741 C 93.415 82.407, 91.576 83.133, 88.051 85.753 L 83.406 89.204 84.655 99.852 C 85.342 105.708, 85.926 113.918, 85.952 118.096 C 85.978 122.274, 86.293 129.816, 86.650 134.855 L 87.301 144.018 139.900 143.759 L 192.500 143.500 192.759 71.750 L 193.018 0 121.943 0 C 72.455 0, 50.248 0.332, 48.827 1.093 C 47.350 1.883, 46.483 1.883, 45.693 1.093 C 44.968 0.368, 37.093 0, 22.297 0 L -0.006 0 0.013 72 M 0.466 53.500 C 0.466 82.650, 0.593 94.431, 0.749 79.680 C 0.905 64.928, 0.905 41.078, 0.749 26.680 C 0.593 12.281, 0.465 24.350, 0.466 53.500 M 102.250 1.662 C 100.509 2.365, 100.684 4, 102.500 4 C 103.325 4, 104 3.325, 104 2.500 C 104 1.675, 103.888 1.036, 103.750 1.079 C 103.612 1.122, 102.938 1.385, 102.250 1.662 M 108 36 C 108 36.550, 108.900 37, 110 37 C 111.100 37, 112 36.550, 112 36 C 112 35.450, 111.100 35, 110 35 C 108.900 35, 108 35.450, 108 36 M 162.250 50.662 C 160.324 51.439, 160.770 53, 162.918 53 C 165.531 53, 168 51.976, 168 50.893 C 168 49.952, 164.372 49.806, 162.250 50.662 M 171.250 58.689 C 172.213 58.941, 173.787 58.941, 174.750 58.689 C 175.713 58.438, 174.925 58.232, 173 58.232 C 171.075 58.232, 170.287 58.438, 171.250 58.689 M 134.154 73.552 C 134.345 74.532, 135.105 75.536, 135.846 75.782 C 136.706 76.069, 137.066 75.588, 136.846 74.448 C 136.655 73.468, 135.895 72.464, 135.154 72.218 C 134.294 71.931, 133.934 72.412, 134.154 73.552 M 84 75.941 C 84 78.356, 84.556 78.599, 85.349 76.532 C 85.659 75.725, 85.482 74.798, 84.956 74.473 C 84.430 74.148, 84 74.809, 84 75.941 M 15 81.441 C 15 82.848, 15.450 84, 16 84 C 16.550 84, 17 83.127, 17 82.059 C 17 80.991, 16.550 79.840, 16 79.500 C 15.433 79.149, 15 79.990, 15 81.441 M 131.015 82.963 C 131.024 83.258, 131.425 84.123, 131.908 84.885 C 132.611 85.996, 133.005 85.860, 133.895 84.197 C 134.851 82.410, 134.728 82.145, 133.002 82.275 C 131.901 82.358, 131.007 82.667, 131.015 82.963 M 109.435 90.402 C 109.064 91.882, 109.002 93.336, 109.299 93.632 C 109.595 93.929, 110.366 93.184, 111.012 91.978 C 111.822 90.464, 111.864 89.464, 111.148 88.748 C 110.432 88.032, 109.902 88.543, 109.435 90.402 M 165.262 92.690 C 166.192 93.620, 167.288 94.046, 167.697 93.636 C 168.107 93.226, 167.780 92.473, 166.971 91.961 C 164.536 90.421, 163.455 90.883, 165.262 92.690 M 31.218 101.154 C 31.737 102.712, 33.974 102.984, 34.053 101.500 C 34.082 100.950, 33.355 100.345, 32.438 100.154 C 31.395 99.939, 30.938 100.313, 31.218 101.154 M 0.417 125.500 C 0.418 135.950, 0.566 140.089, 0.746 134.698 C 0.926 129.307, 0.925 120.757, 0.744 115.698 C 0.563 110.639, 0.416 115.050, 0.417 125.500 M 109 120 C 107.859 120.738, 108.263 120.973, 110.691 120.985 C 112.446 120.993, 114.160 120.550, 114.500 120 C 115.292 118.718, 110.983 118.718, 109 120 M 182 125.411 C 182 127.665, 183.811 131, 185.035 131 C 186.745 131, 186.061 127.365, 184 125.500 C 182.143 123.819, 182 123.813, 182 125.411 M 171.354 129.480 C 171.709 130.406, 172 131.352, 172 131.582 C 172 131.812, 172.708 132, 173.573 132 C 175.798 132, 174.932 128.611, 172.593 128.160 C 171.174 127.887, 170.868 128.214, 171.354 129.480" stroke="none" fill="black" fill-rule="evenodd"/>
</svg>