<svg xmlns="http://www.w3.org/2000/svg" width="192" height="144" viewBox="0 0 192 144" version="1.1">
	<path d="M 60.088 59.250 C 58.970 62.218, 60.630 65.340, 67.075 72.392 C 71.568 77.308, 72.247 78.606, 72.405 82.588 C 72.543 86.054, 72.161 87.379, 70.816 88.098 C 67.574 89.833, 66.810 92.610, 68.477 96.599 C 70.390 101.177, 70.436 100.884, 67.637 101.948 C 66.337 102.442, 65.056 103.677, 64.791 104.692 C 63.968 107.839, 67.607 116.998, 71.137 120.667 C 75.560 125.263, 94.997 140, 96.637 140 C 96.938 140, 98.329 140.900, 99.727 142 C 102.184 143.933, 103.784 144, 147.135 144 L 192 144 192 130.313 L 192 116.626 189.022 119.478 C 186.179 122.203, 185.650 122.324, 177.272 122.183 C 171.589 122.087, 165.893 122.689, 161.096 123.893 L 153.691 125.751 147.096 122.767 C 143.468 121.126, 138.925 119.136, 137 118.344 C 130.906 115.838, 130.613 115.475, 129.396 108.919 C 127.637 99.446, 123.217 86.836, 118.058 76.570 C 113.242 66.987, 111.336 65.481, 107.926 68.567 C 105.476 70.785, 105.494 73.063, 108 77.739 C 109.927 81.335, 110.804 90, 109.241 90 C 108.823 90, 107.968 89.178, 107.340 88.173 C 106.713 87.168, 102.892 84.410, 98.850 82.042 C 90.999 77.445, 73.613 64.649, 71.671 62.039 C 69.899 59.657, 65.327 57, 63.003 57 C 61.777 57, 60.591 57.915, 60.088 59.250" stroke="none" fill="black" fill-rule="evenodd"/>
</svg>