<svg xmlns="http://www.w3.org/2000/svg" width="192" height="144" viewBox="0 0 192 144" version="1.1">
	<path d="M 0 37.084 L 0 74.167 14.250 73.481 C 26.762 72.879, 30.512 73.107, 45 75.353 C 68.137 78.940, 80.458 80.151, 95.695 80.338 C 105.141 80.454, 109.249 80.143, 110.152 79.243 C 111.977 77.425, 109.758 75.742, 102.750 73.630 C 99.587 72.677, 97 71.612, 97 71.263 C 97 70.914, 98.012 69.526, 99.250 68.177 C 100.864 66.419, 101.136 65.596, 100.212 65.267 C 99.379 64.970, 100.822 62.635, 104.298 58.654 C 113.016 48.672, 113.372 47.890, 112.663 40.297 C 112.151 34.814, 111.567 33.213, 109.272 31.008 C 106.035 27.897, 100.279 24.388, 99.572 25.094 C 98.023 26.644, 95.934 38.764, 95.882 46.500 C 95.782 61.520, 95.533 66, 94.795 66 C 93.823 66, 93.183 61.331, 92.450 48.883 C 91.976 40.822, 92.249 36.006, 93.585 28.883 C 94.553 23.722, 95.461 19.343, 95.604 19.152 C 95.746 18.960, 97.983 20.423, 100.575 22.402 C 103.167 24.381, 105.605 26, 105.992 26 C 106.380 26, 107.425 24.146, 108.315 21.880 C 109.524 18.802, 110.342 17.917, 111.548 18.380 C 112.437 18.721, 114.855 19, 116.921 19 C 120.012 19, 120.892 19.468, 121.882 21.640 C 122.920 23.918, 122.804 24.579, 121.042 26.455 C 119.919 27.651, 119 28.970, 119 29.386 C 119 31.338, 125.720 35.388, 130.739 36.461 C 134.365 37.237, 135.723 38.677, 134.232 40.168 C 133.573 40.827, 131.862 40.460, 129.159 39.081 C 126.915 37.936, 124.651 37, 124.128 37 C 123.604 37, 122.874 38.785, 122.506 40.966 C 121.997 43.976, 122.429 46.448, 124.297 51.216 C 127.602 59.655, 128.553 66, 126.512 66 C 125.458 66, 125 67.035, 125 69.418 C 125 71.298, 124.739 73.515, 124.421 74.345 C 123.728 76.150, 124.046 76.089, 139.799 71.406 C 146.014 69.559, 153.889 67.757, 157.299 67.403 C 160.710 67.050, 163.840 66.561, 164.255 66.318 C 164.670 66.075, 166.824 63.204, 169.042 59.938 C 173.188 53.834, 175.422 52.604, 176.455 55.859 C 177.308 58.546, 176.583 60.012, 166.806 75.373 C 155.943 92.440, 150.146 99.799, 140.360 108.937 C 131.629 117.091, 129.402 117.995, 124.781 115.259 C 122.976 114.191, 119.700 113.230, 117.500 113.122 C 115.300 113.015, 110.637 111.593, 107.138 109.963 C 102.107 107.620, 99.386 106.998, 94.138 106.992 C 90.487 106.988, 84.575 106.456, 81 105.810 C 71.884 104.162, 69.645 104.285, 59.874 106.968 L 51.248 109.336 45.107 107.040 C 41.729 105.777, 35.375 102.326, 30.987 99.372 C 26.599 96.417, 22.054 94, 20.888 94 C 15.777 94, 8.852 90.490, 5.680 86.292 C 3.931 83.977, 1.938 81.854, 1.250 81.573 C 0.266 81.171, -0 87.752, -0 112.536 L -0 144.010 96.250 143.755 L 192.500 143.500 192.734 71.750 L 192.969 0 96.484 0 L 0 0 0 37.084 M 0.453 37.500 C 0.453 57.850, 0.586 66.033, 0.749 55.685 C 0.912 45.336, 0.911 28.686, 0.748 18.685 C 0.585 8.683, 0.452 17.150, 0.453 37.500 M 0.446 112.500 C 0.447 130.100, 0.583 137.159, 0.749 128.187 C 0.914 119.215, 0.914 104.815, 0.748 96.187 C 0.581 87.559, 0.446 94.900, 0.446 112.500" stroke="none" fill="black" fill-rule="evenodd"/>
</svg>