<svg xmlns="http://www.w3.org/2000/svg" width="192" height="144" viewBox="0 0 192 144" version="1.1">
	<path d="M 0 72 L 0 144 36.835 144 L 73.669 144 71.864 136.250 C 70.870 131.987, 69.370 125.726, 68.529 122.336 C 67.688 118.946, 67 115.099, 67 113.788 C 67 109.436, 72.801 94.589, 75.318 92.500 C 77.280 90.871, 77.641 89.817, 77.262 86.820 C 76.950 84.346, 76.374 83.303, 75.506 83.636 C 73.780 84.298, 30.835 82.244, 19.614 80.962 C 9.949 79.859, 6.258 78.651, 9.587 77.681 C 12.634 76.793, 31.240 75.136, 62.500 72.968 C 91.857 70.931, 115.915 68.806, 130.500 66.959 C 143.507 65.312, 165.229 61.925, 169 60.956 C 176.398 59.054, 189.903 56, 190.917 56 C 191.646 56, 192.064 69.710, 192.250 99.750 C 192.440 130.301, 192.594 121.854, 192.761 71.750 L 193 0 96.500 0 L 0 0 0 72 M 0.474 72.500 C 0.474 112.100, 0.598 128.154, 0.750 108.176 C 0.901 88.198, 0.901 55.798, 0.750 36.176 C 0.598 16.554, 0.474 32.900, 0.474 72.500 M 174 73.985 C 169.875 75.020, 163.463 76.387, 159.750 77.023 C 154.653 77.897, 152.982 78.587, 152.926 79.840 C 152.885 80.753, 152.651 82.591, 152.405 83.924 C 152.112 85.518, 152.756 87.231, 154.284 88.924 C 156.901 91.824, 158.948 95.952, 161.761 104 C 163.516 109.020, 163.559 109.936, 162.261 114.500 C 161.479 117.250, 160.492 121.300, 160.069 123.500 C 159.646 125.700, 158.597 129.975, 157.737 133 C 156.878 136.025, 155.902 139.738, 155.568 141.250 L 154.962 144 171.481 144 C 184.019 144, 188.005 143.699, 188.020 142.750 C 188.030 142.063, 185.508 131.337, 182.415 118.916 L 176.791 96.332 180.531 87.628 C 182.587 82.841, 185.216 78.262, 186.373 77.451 C 188.051 76.276, 188.256 75.627, 187.387 74.239 C 185.889 71.846, 182.768 71.787, 174 73.985 M 115 82.207 C 95.276 83.495, 95.302 83.489, 94.770 87.113 C 94.409 89.573, 94.856 90.573, 97.037 92.185 C 98.939 93.591, 100.432 96.339, 102.016 101.347 C 103.261 105.281, 104.610 109.409, 105.014 110.520 C 105.735 112.504, 104.850 119.602, 102.897 127.500 C 101.598 132.753, 100.110 138.946, 99.473 141.750 L 98.962 144 115.375 144 L 131.787 144 130.911 140.250 C 124.554 113.064, 123.432 107.073, 124.286 104.870 C 124.791 103.566, 126.236 99.706, 127.498 96.292 C 128.759 92.877, 130.963 89.052, 132.395 87.792 C 135.823 84.774, 135.090 80.918, 131.133 81.163 C 129.685 81.252, 122.425 81.722, 115 82.207" stroke="none" fill="black" fill-rule="evenodd"/>
</svg>