<svg xmlns="http://www.w3.org/2000/svg" width="192" height="144" viewBox="0 0 192 144" version="1.1">
	<path d="M 122.500 12.423 C 119.750 13.836, 116.138 14.994, 114.473 14.996 C 112.807 14.998, 110.409 15.725, 109.144 16.612 C 107.020 18.099, 106.414 18.089, 101.313 16.485 C 93.481 14.021, 84.551 15.021, 78.618 19.025 C 76.197 20.659, 73.988 22.588, 73.711 23.312 C 72.521 26.411, 74.586 30.716, 79.726 35.856 L 85.133 41.263 82.887 46.382 C 81.093 50.470, 80.600 53.612, 80.437 61.997 C 80.302 68.953, 80.645 73.083, 81.455 74.239 C 82.938 76.356, 90.690 82.074, 91.744 81.827 C 93.122 81.506, 98 84.302, 97.994 85.411 C 97.983 87.603, 95.752 94.516, 94.878 95.066 C 94.383 95.377, 92.863 100.027, 91.501 105.399 C 89.307 114.047, 89.193 115.336, 90.511 116.654 C 91.330 117.473, 92.033 120.023, 92.074 122.321 C 92.154 126.800, 92.589 130.011, 93.657 134 C 94.244 136.193, 94.478 135.887, 95.567 131.500 C 96.250 128.750, 96.851 125.093, 96.904 123.372 C 96.957 121.652, 97.618 119.732, 98.373 119.105 C 99.129 118.478, 100.054 115.647, 100.430 112.815 C 100.806 109.982, 101.785 106.056, 102.607 104.090 C 103.428 102.125, 104.030 99.388, 103.944 98.008 C 103.858 96.629, 103.836 94.391, 103.894 93.036 C 103.990 90.793, 104.141 90.713, 105.576 92.147 C 106.896 93.467, 106.969 94.400, 106.030 97.887 C 105.120 101.267, 105.177 102.320, 106.333 103.476 C 107.116 104.259, 108.063 107.347, 108.437 110.338 C 108.810 113.329, 109.751 116.614, 110.526 117.638 C 111.782 119.297, 111.940 118.715, 111.968 112.309 C 111.986 108.354, 112.450 104.840, 113 104.500 C 113.550 104.160, 114 103.009, 114 101.941 C 114 100.567, 114.691 100, 116.365 100 C 117.666 100, 119.861 99.111, 121.242 98.024 L 123.754 96.049 125.072 100.774 C 125.797 103.373, 126.974 106.625, 127.689 108 C 129.489 111.465, 129.328 113.313, 126.964 116.318 C 125.845 117.742, 124.423 120.390, 123.804 122.203 C 123.186 124.016, 121.852 126.573, 120.840 127.885 C 118.906 130.391, 118.239 140.252, 119.833 142.764 C 120.458 143.749, 128.025 143.969, 154.252 143.764 L 187.869 143.500 184.855 136.500 C 183.198 132.650, 181.022 127.700, 180.021 125.500 C 178.972 123.196, 178.560 121.058, 179.049 120.459 C 179.558 119.835, 179.177 118.967, 178.101 118.295 C 176.690 117.414, 171.466 108.076, 168.146 100.500 C 167.905 99.950, 168.699 100.380, 169.911 101.457 L 172.114 103.413 171.649 100.846 C 171.393 99.434, 170.242 96.434, 169.092 94.179 C 166.625 89.344, 166.392 87.845, 168.529 90.559 C 169.965 92.383, 170.027 92.288, 169.562 89 C 169.290 87.075, 168.587 83.025, 168 80 C 167.413 76.975, 166.691 72.925, 166.394 71 C 163.964 55.222, 159.781 41.487, 155.195 34.234 C 153.549 31.630, 151.882 27.977, 151.492 26.114 C 150.640 22.056, 144.123 15.227, 138.608 12.615 C 132.192 9.576, 128.137 9.528, 122.500 12.423" stroke="none" fill="black" fill-rule="evenodd"/>
</svg>