<svg xmlns="http://www.w3.org/2000/svg" width="192" height="144" viewBox="0 0 192 144" version="1.1">
	<path d="M 0.027 30.750 L 0.054 61.500 3.277 57.943 C 9.332 51.260, 12.016 48, 11.463 48 C 9.519 48, 25.844 29.096, 38.699 16.461 C 47.114 8.190, 54 1.103, 54 0.711 C 54 0.320, 41.850 0, 27 0 L 0 0 0.027 30.750 M 134.255 1.750 C 135.115 2.712, 135.973 4.400, 136.160 5.500 C 136.431 7.092, 135.990 7.463, 134 7.320 C 132.625 7.221, 130.421 6.814, 129.103 6.415 C 126.863 5.737, 126.753 5.881, 127.427 8.595 C 127.824 10.193, 128.752 12.625, 129.490 14 C 138.467 30.729, 141.270 47.006, 137.074 58.048 C 133.282 68.028, 127.653 73, 120.149 73 C 117.033 73, 114.960 72.069, 110.338 68.595 C 103.135 63.180, 87.949 55, 85.099 55 C 83.570 55, 83 55.630, 83 57.320 C 83 58.596, 81.425 61.480, 79.500 63.729 C 77.575 65.978, 76 68.207, 76 68.682 C 76 69.157, 77.485 70.345, 79.301 71.323 C 81.116 72.300, 84.974 75.775, 87.874 79.043 C 95.951 88.147, 110.744 94.103, 121.355 92.523 C 125.319 91.933, 141.957 86.184, 143 85.043 C 143.275 84.743, 144.762 83.846, 146.305 83.050 C 149.064 81.627, 149.495 80.859, 161.334 56.250 C 162.988 52.813, 164.723 50, 165.190 50 C 166.268 50, 165.476 53.355, 161.883 64 C 157.783 76.148, 157.816 76.292, 164.455 75.462 C 169.031 74.891, 170.463 75.123, 173.351 76.908 C 178.621 80.165, 180.275 83.401, 180.122 90.159 C 179.992 95.936, 180.021 96, 182.821 96 C 185.445 96, 190 99.452, 190 101.442 C 190 101.889, 187.750 102.038, 185 101.774 C 182.250 101.510, 180 101.678, 180 102.147 C 180 102.616, 179.376 103, 178.614 103 C 177.852 103, 176.505 104.524, 175.621 106.386 C 173.063 111.777, 161.582 122.773, 147.266 133.544 L 134.032 143.500 162.700 143.766 C 178.797 143.915, 191.764 143.636, 192.270 143.130 C 192.803 142.597, 192.872 113.109, 192.438 71.114 L 191.704 0 162.197 0 C 134.166 0, 132.768 0.088, 134.255 1.750 M 50.616 68.527 C 48.935 70.207, 48.245 80, 49.808 80 C 50.832 80, 53.853 73.218, 54.221 70.090 C 54.567 67.155, 52.768 66.375, 50.616 68.527 M 1 112.839 L 1 144 29.696 144 L 58.392 144 54.946 140.319 C 53.051 138.294, 50.029 135.066, 48.232 133.146 C 44.993 129.687, 32.046 112.938, 28.828 108.043 C 25.863 103.535, 19.607 97.438, 15.500 95.053 C 13.300 93.776, 9.138 90.245, 6.250 87.205 L 1 81.679 1 112.839 M 97.441 89.445 C 98.509 90.300, 99.821 91, 100.358 91 C 101.628 91, 101.061 90.538, 98 89.080 C 95.643 87.958, 95.611 87.978, 97.441 89.445" stroke="none" fill="black" fill-rule="evenodd"/>
</svg>