<svg xmlns="http://www.w3.org/2000/svg" width="192" height="144" viewBox="0 0 192 144" version="1.1">
	<path d="M 0 38.564 L 0 77.128 5.826 73.041 C 9.030 70.793, 13.168 67.390, 15.022 65.477 C 16.876 63.565, 19.122 62, 20.013 62 C 20.904 62, 27.903 65.227, 35.567 69.170 C 50.536 76.873, 49.484 76.639, 65.250 75.771 C 67.037 75.673, 69.595 75.796, 70.934 76.046 C 72.897 76.412, 74.027 75.628, 76.769 72 C 78.639 69.525, 82.381 66.219, 85.084 64.653 C 90.009 61.802, 91.138 59.538, 88.800 57.200 C 86.905 55.305, 86.009 55.781, 85.884 58.750 C 85.813 60.442, 85.592 60.827, 85.311 59.750 C 84.786 57.742, 83.050 57.382, 82.900 59.250 C 82.844 59.938, 82.388 58.747, 81.885 56.605 C 80.943 52.589, 77.803 49, 75.232 49 C 73.988 49, 74.009 48.635, 75.374 46.552 C 76.262 45.197, 76.567 43.850, 76.058 43.536 C 75.552 43.223, 74.880 43.385, 74.565 43.895 C 73.949 44.891, 68 43.066, 68 41.881 C 68 41.506, 69.573 39.627, 71.496 37.704 C 74.882 34.318, 74.973 34.026, 74.423 28.354 C 73.949 23.474, 74.241 21.751, 76.177 18 C 79.594 11.380, 83.054 10.003, 96.282 10.002 C 108.998 10, 112.741 11.227, 115.974 16.458 C 117.597 19.085, 118.563 19.837, 119.327 19.073 C 121.126 17.274, 123.323 17.879, 127.295 21.265 C 130.292 23.820, 131.360 25.676, 132.378 30.097 C 133.526 35.084, 133.481 35.923, 131.966 37.794 C 130.422 39.701, 130.397 40.381, 131.698 45.197 C 133.880 53.269, 133.702 58.918, 131.099 64.296 C 129.846 66.883, 128.481 69, 128.064 69 C 123.740 69, 119.384 56.319, 120.377 46.622 C 121.099 39.573, 119.838 37.066, 117.810 41.518 C 116.910 43.492, 116.894 44.601, 117.746 45.965 C 119.068 48.081, 117.068 51.778, 115.220 50.636 C 113.925 49.836, 111 53.709, 111 56.223 C 111 57.200, 110.619 58, 110.153 58 C 109.687 58, 108.817 59.013, 108.220 60.250 C 107.239 62.286, 107.126 62.119, 107.036 58.500 L 106.937 54.500 104.505 57.263 C 101.507 60.669, 102.033 62.260, 106.876 64.444 C 109.039 65.420, 112.467 68.485, 114.950 71.664 C 119.003 76.854, 119.483 77.160, 122.882 76.723 C 124.872 76.468, 129.071 76.897, 132.213 77.678 C 139.118 79.393, 142.817 78.604, 153.943 73.041 C 158.100 70.963, 164.079 68.225, 167.231 66.955 L 172.963 64.647 179.231 70.617 C 182.679 73.900, 186.905 77.569, 188.623 78.771 L 191.746 80.955 192.362 77.228 C 192.701 75.177, 192.983 56.962, 192.989 36.750 L 193 0 96.500 0 L 0 0 0 38.564 M 0.454 39 C 0.454 60.175, 0.587 68.838, 0.749 58.250 C 0.911 47.663, 0.911 30.338, 0.749 19.750 C 0.587 9.163, 0.454 17.825, 0.454 39 M 17.655 68.829 C 15.524 71.184, 15.503 71.083, 18.869 74.853 C 20.758 76.969, 21.953 79.638, 22.369 82.672 C 23.299 89.458, 23.136 99, 22.091 99 C 21.591 99, 19.070 95.095, 16.489 90.321 C 12.726 83.362, 11.903 80.984, 12.335 78.321 C 12.632 76.495, 12.648 75, 12.370 75 C 11.921 75, 5.909 79.210, 3.610 81.134 C 3.121 81.544, 3.909 83.291, 5.360 85.016 C 7.825 87.946, 8 88.811, 8 98.077 C 8 103.535, 7.779 108, 7.509 108 C 7.238 108, 5.620 105.525, 3.913 102.500 C 2.206 99.475, 0.627 97, 0.405 97 C 0.182 97, 0 107.575, 0 120.500 L 0 144 35.307 144 L 70.614 144 72.484 136.750 C 73.513 132.762, 75.336 127.250, 76.536 124.500 C 78.778 119.361, 80.228 107.942, 79.058 104.644 C 78.523 103.135, 78.044 103.577, 76.496 107.008 C 72.607 115.632, 41.703 132.992, 32.764 131.574 C 28.490 130.896, 22 128.026, 22 126.815 C 22 126.367, 24.264 126, 27.032 126 C 32.364 126, 39 123.810, 39 122.051 C 39 121.473, 38.325 121, 37.500 121 C 36.675 121, 36 120.559, 36 120.019 C 36 118.507, 40.650 117.688, 45.151 118.408 C 48.975 119.020, 49.605 118.736, 56.104 113.485 C 59.897 110.421, 63 107.482, 63 106.954 C 63 106.426, 61.621 101.774, 59.936 96.617 C 57.051 87.789, 56.959 87.035, 58.349 83.707 C 59.778 80.286, 59.752 80.154, 57.510 79.592 C 56.237 79.272, 53.814 79.287, 52.125 79.625 C 49.230 80.204, 49.139 80.360, 50.527 82.342 C 52.322 84.905, 52.699 105.400, 50.940 104.813 C 50.357 104.619, 48.063 100.439, 45.843 95.524 C 42.087 87.208, 41.887 86.320, 42.965 82.721 C 44.338 78.141, 43.582 76.848, 37.817 73.907 C 33.772 71.843, 33.134 72.271, 35.532 75.441 C 36.606 76.862, 37 80.199, 37 87.891 C 37 94.143, 36.636 98.015, 36.102 97.450 C 35.607 96.928, 33.300 92.786, 30.973 88.246 C 27.168 80.821, 26.807 79.510, 27.381 75.186 C 28.010 70.441, 27.973 70.358, 24.475 68.690 C 20.048 66.578, 19.685 66.586, 17.655 68.829 M 167.208 71.601 C 164.100 72.960, 163.956 73.247, 164.621 76.770 C 165.008 78.821, 165.327 80.988, 165.329 81.585 C 165.337 83.500, 156.851 100.026, 156.099 99.561 C 155.701 99.315, 155.262 94.909, 155.125 89.770 C 154.906 81.524, 155.127 80.108, 157.011 77.713 C 159.543 74.494, 158.343 74.274, 153.028 76.986 C 148.013 79.544, 147.697 80.162, 148.978 84.917 C 149.970 88.603, 149.748 89.478, 145.800 97.440 C 143.465 102.148, 141.205 106, 140.777 106 C 140.350 106, 140.014 101.612, 140.032 96.250 C 140.055 89.187, 140.476 85.955, 141.558 84.522 C 142.905 82.741, 142.877 82.475, 141.277 81.843 C 138.734 80.838, 133 80.844, 133 81.851 C 133 82.319, 133.485 84.092, 134.077 85.792 C 135.025 88.510, 134.671 89.970, 131.137 97.933 L 127.119 106.984 133.709 111.686 C 138.790 115.312, 141.057 116.338, 143.612 116.165 C 147.337 115.915, 154 118.342, 154 119.949 C 154 120.527, 153.073 121, 151.941 121 C 150.695 121, 150.151 121.435, 150.564 122.103 C 151.648 123.857, 161.231 127.980, 164.250 127.990 C 167.446 128.002, 167.850 129.475, 165.066 130.965 C 161.832 132.695, 154.720 132.160, 150.461 129.866 C 148.283 128.692, 142.110 125.554, 136.744 122.893 C 122.030 115.595, 116.108 111.504, 114.424 107.472 C 113.626 105.563, 112.715 104, 112.400 104 C 110.916 104, 112.978 119.074, 115.146 124.074 C 116.441 127.058, 118.400 132.650, 119.500 136.500 L 121.500 143.500 156.750 143.763 L 192 144.026 192 120.819 L 192 97.611 189.696 100.735 C 188.428 102.453, 186.526 105.465, 185.468 107.429 C 184.411 109.393, 183.131 111, 182.626 111 C 182.090 111, 181.946 106.979, 182.281 101.372 C 182.819 92.343, 183.045 91.548, 185.921 88.581 L 188.988 85.418 183.842 81.576 L 178.697 77.735 179.352 81.010 C 179.892 83.712, 179.214 85.739, 175.473 92.602 C 172.979 97.177, 170.471 101.209, 169.899 101.562 C 169.201 101.994, 168.943 99.060, 169.115 92.624 C 169.312 85.223, 169.806 82.355, 171.283 80.021 C 172.336 78.360, 173.554 77, 173.991 77 C 175.717 77, 175.965 73.619, 174.369 71.855 C 172.412 69.693, 171.639 69.665, 167.208 71.601 M 64 80.550 C 64 80.852, 64.712 82.477, 65.583 84.161 C 66.931 86.767, 67.005 88.419, 66.083 95.270 C 64.614 106.184, 64.621 106.273, 66.854 105.078 C 69.381 103.726, 72.805 90.115, 70.912 88.946 C 69.968 88.362, 69.919 87.802, 70.726 86.826 C 71.329 86.097, 71.585 84.263, 71.295 82.750 C 70.843 80.396, 70.280 80, 67.383 80 C 65.523 80, 64 80.247, 64 80.550 M 121.609 83.421 C 121.275 84.752, 121.292 86.597, 121.647 87.521 C 122.001 88.446, 121.750 89.536, 121.089 89.945 C 119.112 91.167, 121.687 103.762, 124.188 105.100 C 126.108 106.128, 126.143 105.910, 125.466 97.252 C 124.900 90.020, 125.073 87.760, 126.385 85.223 C 128.512 81.110, 128.479 81, 125.108 81 C 122.883 81, 122.077 81.558, 121.609 83.421" stroke="none" fill="black" fill-rule="evenodd"/>
</svg>