<svg xmlns="http://www.w3.org/2000/svg" width="192" height="144" viewBox="0 0 192 144" version="1.1">
	<path d="M 0 72 L 0 144 20.250 143.921 L 40.500 143.842 35 142.039 C 31.975 141.047, 27.594 139.716, 25.264 139.082 C 22.934 138.447, 19.784 136.857, 18.264 135.549 C 15.526 133.191, 15.499 133.050, 15.386 120.335 C 15.323 113.276, 14.933 101.823, 14.520 94.885 C 13.224 73.155, 16.045 60.848, 27.615 37.756 C 31.127 30.747, 34 24.403, 34 23.659 C 34 21.739, 30.292 17.702, 29.166 18.397 C 26.212 20.223, 25.491 9.235, 28.108 2.250 L 28.950 -0 14.475 -0 L 0 0 0 72 M 146.083 0.389 C 148.482 2.631, 155.923 7.744, 156.274 7.393 C 156.524 7.142, 157.770 6.737, 159.041 6.492 C 161.617 5.996, 162.962 4.379, 162.985 1.750 C 162.998 0.217, 161.926 0, 154.333 0 C 149.567 0, 145.854 0.175, 146.083 0.389 M 176.589 19.250 C 176.657 29.838, 177.062 43.952, 177.488 50.616 C 178.045 59.324, 177.907 64.248, 176.998 68.116 C 174.889 77.082, 171.728 81.721, 170.773 77.250 C 170.520 76.064, 169.742 76.950, 168.360 80 C 161.942 94.165, 149.644 108.762, 138.759 115.132 C 111.930 130.834, 80.064 124.225, 68.484 100.556 C 62.924 89.192, 64.634 75.632, 72.210 71.013 C 76.560 68.361, 78.535 68.479, 80.703 71.519 C 89.520 83.881, 98.350 91, 104.867 91 C 107.239 91, 107.719 90.640, 107.330 89.153 C 106.992 87.863, 108.291 86.033, 111.633 83.091 C 115.462 79.722, 116.128 78.693, 114.960 77.954 C 114.157 77.446, 113.007 77.024, 112.405 77.015 C 110.382 76.987, 107.990 73.360, 105.887 67.132 C 104.377 62.661, 102.860 60.232, 100.409 58.363 C 98.545 56.941, 97.247 55.409, 97.526 54.958 C 97.805 54.507, 97.575 53.856, 97.016 53.510 C 96.457 53.165, 96 53.336, 96 53.890 C 96 54.468, 94.401 54.230, 92.252 53.332 C 86.868 51.082, 77.362 52.012, 71.677 55.343 C 63.047 60.401, 57.997 68.193, 56.070 79.421 C 54.208 90.269, 57.111 102.456, 64.012 112.766 C 72.965 126.142, 92.267 134.976, 112.500 134.958 C 116.900 134.954, 122.525 134.456, 125 133.851 C 127.475 133.246, 130.175 132.644, 131 132.514 C 132.742 132.239, 134.677 131.552, 141.347 128.835 C 148.163 126.059, 148.498 127.448, 141.734 130.439 C 132.990 134.306, 124.602 136.092, 113.113 136.533 C 107.276 136.758, 101.375 136.995, 100 137.061 C 96.732 137.217, 109.470 140.723, 118.500 142.152 C 122.350 142.761, 140.463 143.443, 158.750 143.668 L 192 144.077 192 72.038 L 192 0 184.232 0 L 176.465 0 176.589 19.250 M 116 28.974 C 116 29.538, 116.388 30, 116.862 30 C 117.336 30, 120.354 33.357, 123.568 37.461 C 126.782 41.564, 129.571 44.763, 129.765 44.569 C 130.540 43.793, 126.729 36.327, 124.197 33.661 C 121.052 30.350, 116 27.461, 116 28.974 M 47 143 C 45.936 143.687, 47.100 143.953, 51 143.914 C 54.987 143.875, 55.950 143.623, 54.500 143 C 51.783 141.832, 48.807 141.832, 47 143" stroke="none" fill="black" fill-rule="evenodd"/>
</svg>