<svg xmlns="http://www.w3.org/2000/svg" width="192" height="144" viewBox="0 0 192 144" version="1.1">
	<path d="M 103.376 6.086 C 101.657 6.584, 99.690 7.669, 99.003 8.496 C 98.317 9.323, 96.123 10.007, 94.128 10.015 C 92.132 10.024, 89.885 10.420, 89.134 10.896 C 88.301 11.424, 86.741 11.225, 85.134 10.387 C 83.685 9.631, 80.475 9.054, 78 9.106 C 68.446 9.304, 65.671 11.572, 68.180 17.132 C 69.016 18.984, 70.259 21.930, 70.941 23.678 C 71.624 25.425, 73.042 27.633, 74.091 28.583 C 75.141 29.533, 76.007 31.253, 76.015 32.405 C 76.024 33.557, 76.416 35.108, 76.887 35.851 C 77.392 36.648, 77.180 39.074, 76.372 41.760 C 75.617 44.267, 75 47.986, 75 50.025 C 75 52.313, 73.320 57.325, 70.611 63.116 C 65.481 74.084, 64.875 76.902, 64.910 89.628 C 64.927 96.003, 64.416 100.418, 63.355 103.071 C 62.126 106.143, 62.037 107.340, 62.956 108.447 C 63.858 109.533, 63.863 110.388, 62.977 112.043 C 62.338 113.236, 62.016 116.303, 62.261 118.857 C 62.506 121.410, 62.030 126.064, 61.204 129.198 C 59.823 134.432, 59.841 135.108, 61.418 137.514 C 63.647 140.917, 64.781 139.996, 70.609 130.051 C 78.677 116.284, 81.996 103.522, 81.999 86.250 C 81.999 81.162, 82.405 77, 82.900 77 C 84.593 77, 86.035 86.476, 85.487 94 C 84.784 103.642, 79.982 118.556, 70.596 140.250 L 68.973 144 98.987 144 C 124.156 144, 129 143.772, 129 142.589 C 129 141.813, 128.106 138.326, 127.013 134.839 C 124.461 126.698, 124.460 122.907, 127.008 120.725 C 128.401 119.533, 129.042 117.701, 129.099 114.753 C 129.144 112.414, 129.218 108.475, 129.262 106 C 129.321 102.768, 128.122 98.682, 125.008 91.500 C 121.803 84.110, 120.642 80.092, 120.558 76.104 C 120.463 71.558, 120.108 70.584, 118.302 69.916 C 116.600 69.287, 116.016 67.979, 115.465 63.564 C 114.887 58.938, 114.201 57.505, 111.376 55.025 C 107.745 51.837, 107.562 50.952, 108.610 41.612 C 109.205 36.312, 109.556 35.616, 112.135 34.643 C 115.477 33.382, 115.724 31.482, 113 28 C 110.511 24.818, 110.507 24.058, 112.982 24.706 C 115.619 25.395, 117 21.711, 117 13.992 C 117 9.051, 116.646 7.865, 114.777 6.557 C 112.344 4.852, 108.220 4.682, 103.376 6.086" stroke="none" fill="black" fill-rule="evenodd"/>
</svg>