<svg xmlns="http://www.w3.org/2000/svg" width="192" height="144" viewBox="0 0 192 144" version="1.1">
	<path d="M 0 72 L 0 144 16.066 144 L 32.133 144 31.816 141.250 C 31.529 138.756, 31.080 138.473, 26.993 138.205 C 23.233 137.959, 22.212 137.434, 20.840 135.044 C 19.392 132.521, 18.644 132.186, 14.589 132.247 C 12.056 132.286, 9.718 132.052, 9.394 131.728 C 9.070 131.403, 9.309 128.788, 9.925 125.916 C 10.728 122.171, 13.408 117.132, 19.403 108.097 C 28.684 94.109, 31.355 89.177, 32.454 84 C 33.693 78.165, 34.624 67, 33.871 67 C 33.483 67, 32.481 68.912, 31.645 71.250 C 30.810 73.588, 29.194 78.112, 28.057 81.304 C 26.459 85.787, 26.234 87.569, 27.071 89.132 C 28.415 91.645, 27.569 94.155, 25.628 93.411 C 24.145 92.842, 23.707 93.729, 22.495 99.750 C 22.135 101.538, 21.427 103, 20.921 103 C 19.691 103, 19.742 93.808, 20.990 90.527 C 22.384 86.860, 23.180 75, 22.031 75 C 21.514 75, 20.779 76.687, 20.398 78.750 C 19.620 82.966, 15.745 87.345, 14.179 85.779 C 13.540 85.140, 12.470 85.530, 11.100 86.900 C 6.778 91.222, 4.993 89.250, 5.011 80.168 C 5.030 70.233, 6.046 67.174, 12.652 57.155 L 19.010 47.512 18.919 40.006 C 18.869 35.878, 19.140 31.713, 19.521 30.750 C 20.091 29.310, 19.663 29, 17.107 29 C 13.572 29, 12.933 26.837, 15.598 23.892 C 17.579 21.703, 16.889 20.519, 12.185 18.035 C 7.712 15.672, 9.938 15.419, 16.255 17.571 C 19.690 18.742, 21.374 18.870, 22.860 18.075 C 25.906 16.445, 28.272 17.781, 27.535 20.715 C 26.998 22.856, 27.186 23.076, 29.048 22.485 C 32.641 21.344, 38 22.871, 38.942 25.304 C 41.681 32.381, 42.353 36.205, 41.188 38.071 C 40.535 39.117, 40 40.381, 40 40.879 C 40 41.378, 43.368 45.265, 47.485 49.517 C 51.601 53.769, 55.061 57.755, 55.173 58.374 C 55.286 58.993, 54.979 61.075, 54.492 63 C 53.500 66.922, 53.718 74.714, 54.969 80 C 55.424 81.925, 57.867 91.600, 60.398 101.500 C 63.786 114.757, 64.999 121.410, 64.999 126.750 C 65 133.094, 64.773 134, 63.180 134 C 62.180 134, 60.367 135.143, 59.152 136.540 C 57.297 138.673, 56.390 138.976, 53.488 138.432 C 50.393 137.851, 49.927 138.062, 49.016 140.457 C 48.457 141.927, 48 143.326, 48 143.565 C 48 143.804, 69.150 144, 95 144 L 142 144 141.986 141.750 C 141.961 137.554, 140.876 135.392, 138.184 134.174 C 130.555 130.723, 130.008 130.133, 129.852 125.195 C 129.551 115.639, 130.199 107.253, 131.955 98 C 136.034 76.504, 137.396 64.266, 136.166 60.160 C 135.525 58.020, 135 55.601, 135 54.787 C 135 53.972, 138.375 49.808, 142.500 45.533 C 150.131 37.625, 150.885 36.285, 148.855 34.255 C 147.742 33.142, 147.854 32.382, 150.702 21.662 C 151.426 18.937, 156.565 17.113, 160.817 18.071 C 163.685 18.718, 164.948 18.461, 167.369 16.737 C 169.018 15.563, 171.179 14.542, 172.169 14.469 C 173.160 14.396, 174.877 13.516, 175.985 12.513 C 177.710 10.952, 178 10.916, 178 12.262 C 178 13.126, 178.563 14.034, 179.250 14.280 C 180.925 14.878, 179.891 15.877, 177.167 16.292 C 175.950 16.478, 173.694 18.140, 172.153 19.986 C 169.468 23.202, 169.408 23.504, 170.703 27.265 C 171.462 29.466, 171.785 32.630, 171.439 34.473 C 170.677 38.533, 172.833 43.033, 176.943 45.959 C 180.015 48.147, 183.935 51.332, 186.931 54.076 C 187.878 54.943, 189.406 55.942, 190.326 56.295 C 193.566 57.538, 192.194 79.551, 188.839 80.150 C 188.378 80.233, 187.496 80.345, 186.881 80.400 C 186.266 80.455, 183.678 76.481, 181.131 71.568 C 178.026 65.580, 175.874 62.553, 174.600 62.385 C 173.555 62.246, 172.430 61.766, 172.100 61.316 C 171.770 60.867, 170.825 60.376, 170 60.224 C 169.175 60.072, 166.870 58.110, 164.877 55.863 C 160.123 50.502, 159.160 52.243, 162.400 60.343 C 163.792 63.821, 165.432 69.900, 166.045 73.851 C 167.241 81.563, 170.122 86.812, 178.108 95.834 C 182.688 101.008, 184.021 103.661, 186.504 112.545 C 188.662 120.271, 188.286 123.583, 185.285 123.269 C 183.741 123.107, 183.240 123.462, 183.619 124.449 C 183.994 125.426, 182.978 126.190, 180.330 126.925 C 178.224 127.510, 175.797 127.991, 174.937 127.994 C 174.077 127.997, 172.081 129.350, 170.500 131 C 168.086 133.520, 166.855 134, 162.813 134 L 158 134 158 139.024 L 158 144.047 175.250 143.774 L 192.500 143.500 192.757 71.750 L 193.013 0 96.507 0 L 0 0 0 72 M 0.474 72.500 C 0.474 112.100, 0.598 128.154, 0.750 108.176 C 0.901 88.198, 0.901 55.798, 0.750 36.176 C 0.598 16.554, 0.474 32.900, 0.474 72.500 M 168.625 17.450 C 167.643 18.948, 167.029 20.362, 167.260 20.593 C 168.018 21.352, 171.214 17.143, 170.807 15.921 C 170.583 15.248, 169.631 15.915, 168.625 17.450 M 157 66.875 C 157 67.906, 156.720 70.150, 156.378 71.862 C 155.849 74.507, 156.111 75.108, 158.128 75.870 C 159.432 76.363, 160.639 76.643, 160.809 76.491 C 161.233 76.113, 157.964 65, 157.429 65 C 157.193 65, 157 65.844, 157 66.875 M 147.667 135.667 C 147.300 136.033, 147 138.058, 147 140.167 C 147 143.778, 147.178 144, 150.067 144 C 152.789 144, 153.056 143.747, 152.434 141.750 C 150.374 135.137, 149.417 133.916, 147.667 135.667 M 38.607 141.582 C 37.712 143.915, 37.778 144, 40.500 144 C 42.333 144, 43 143.467, 43 142 C 43 139.568, 39.507 139.235, 38.607 141.582" stroke="none" fill="black" fill-rule="evenodd"/>
</svg>