<svg xmlns="http://www.w3.org/2000/svg" width="192" height="144" viewBox="0 0 192 144" version="1.1">
	<path d="M 78.982 20.450 C 75.934 22.109, 72.592 29.254, 72.716 33.845 C 72.817 37.559, 77.509 43.402, 79.712 42.557 C 81.352 41.928, 81.295 42.860, 79.500 46 C 77.641 49.252, 77.628 53.126, 79.468 55.559 C 81.306 57.989, 81.391 62.102, 79.691 66.282 C 76.920 73.095, 78.436 80.703, 82.112 78.431 C 84.189 77.147, 82.439 88.892, 80.185 91.372 C 76.221 95.731, 75.854 97.509, 77.742 103.200 C 79.300 107.898, 79.784 108.465, 82 108.191 C 83.375 108.021, 85.417 106.783, 86.538 105.441 C 89.276 102.160, 91.821 102.292, 92.509 105.750 C 92.810 107.263, 93.810 110.917, 94.732 113.871 C 97.028 121.232, 96.391 129, 93.492 129 C 91.275 129, 90.636 131.064, 92.328 132.756 C 97.135 137.564, 110.002 138.575, 120 134.930 C 129.109 131.610, 138.001 127.738, 137.983 127.100 C 137.973 126.770, 136.848 125.440, 135.483 124.145 C 134.117 122.850, 133 121.322, 133 120.750 C 133 119.778, 122.992 120.182, 117.391 121.380 C 115.744 121.732, 115.295 121.356, 115.343 119.665 C 115.376 118.474, 114.821 115.150, 114.109 112.279 C 113.397 109.407, 112.991 106.526, 113.208 105.876 C 113.425 105.226, 116.463 103.976, 119.961 103.097 C 127.337 101.244, 129.342 99.141, 126.610 96.122 C 125.617 95.024, 125.096 93.653, 125.454 93.075 C 126.191 91.883, 117.354 82, 115.550 82 C 113.863 82, 109.460 77.156, 105.047 70.445 L 101.233 64.646 104.744 61.335 C 107.757 58.493, 108.166 57.578, 107.627 54.887 C 107.282 53.162, 107 51.147, 107 50.411 C 107 49.674, 104.309 46.455, 101.020 43.256 C 95.046 37.447, 95.041 37.436, 96.097 33.613 C 97.418 28.827, 95.777 24.233, 92.447 23.397 C 91.182 23.080, 89.369 21.961, 88.419 20.910 C 86.408 18.688, 82.564 18.501, 78.982 20.450 M 81.531 73.293 C 81.103 74.279, 81.034 75.367, 81.376 75.710 C 82.392 76.725, 83.211 75.299, 82.743 73.328 C 82.329 71.581, 82.275 71.580, 81.531 73.293 M 99.882 103.690 C 99.816 104.135, 99.873 104.950, 100.008 105.500 C 100.143 106.050, 101.208 110.319, 102.376 114.987 L 104.500 123.474 108.749 123.487 C 113.191 123.501, 114.091 122.518, 111.423 120.568 C 110.531 119.915, 109.239 116.224, 108.446 112.063 C 107.675 108.020, 106.852 104.519, 106.617 104.284 C 105.747 103.414, 99.996 102.907, 99.882 103.690" stroke="none" fill="black" fill-rule="evenodd"/>
</svg>