<svg xmlns="http://www.w3.org/2000/svg" width="192" height="144" viewBox="0 0 192 144" version="1.1">
	<path d="M -0 72.005 L -0 144.010 96.250 143.755 L 192.500 143.500 192.757 71.750 L 193.013 0 96.507 0 L 0 0 -0 72.005 M 0.474 72.500 C 0.474 112.100, 0.598 128.154, 0.750 108.176 C 0.901 88.198, 0.901 55.798, 0.750 36.176 C 0.598 16.554, 0.474 32.900, 0.474 72.500 M 81.415 40.995 C 74.449 42.017, 66.963 45.951, 64.198 50.044 C 62.284 52.875, 62.130 53.624, 63.286 54.475 C 64.050 55.039, 64.481 56.077, 64.243 56.783 C 64.006 57.489, 64.095 58.804, 64.441 59.707 C 64.954 61.044, 65.895 60.538, 69.535 56.965 C 74.428 52.164, 74.629 52.174, 72.659 57.128 C 71.220 60.745, 72.215 69, 74.090 69 C 75.210 69, 75.577 68.028, 76.543 62.500 L 77.242 58.500 79.080 62.750 C 80.091 65.088, 81.328 67, 81.830 67 C 82.331 67, 83.041 64.355, 83.407 61.123 C 84.296 53.259, 85.934 51.796, 92.230 53.242 C 98.258 54.626, 101.417 57.749, 100.176 61.099 C 98.141 66.596, 101.754 67.835, 104.293 62.512 C 105.322 60.354, 107.205 58.501, 109.228 57.653 C 113.344 55.930, 113.157 55.838, 133.626 69.569 C 152.554 82.265, 154.873 83.506, 162.245 84.868 C 167.540 85.847, 178.536 85.225, 188.750 83.368 L 192 82.777 192 65.933 L 192 49.089 188.250 50.482 C 186.188 51.248, 181.861 52.980, 178.635 54.331 L 172.770 56.787 166.635 53.943 C 162.996 52.256, 154.264 49.843, 145.174 48.013 C 136.745 46.316, 126.395 43.825, 122.174 42.477 C 115.435 40.324, 112.795 40.039, 100.500 40.138 C 92.800 40.199, 84.212 40.585, 81.415 40.995 M 85.750 94.571 C 85.338 94.990, 85 96.593, 85 98.131 C 85 99.906, 84.268 101.321, 83 102 C 81.735 102.677, 81 104.094, 81 105.857 C 81 109.693, 83.842 117.790, 86.660 121.982 C 88.377 124.537, 89 126.867, 89 130.732 L 89 136 93.162 136 C 96.777 136, 106 132.025, 106 130.466 C 106 130.219, 104.458 127.997, 102.574 125.529 C 98.576 120.291, 98.591 120.336, 96.887 108.144 L 95.580 98.787 91.344 99.265 C 87.257 99.725, 87.097 99.638, 86.804 96.776 C 86.637 95.144, 86.162 94.152, 85.750 94.571" stroke="none" fill="black" fill-rule="evenodd"/>
</svg>