<svg xmlns="http://www.w3.org/2000/svg" width="192" height="144" viewBox="0 0 192 144" version="1.1">
	<path d="M 119 0.532 C 119 0.825, 119.675 2.680, 120.500 4.654 C 122.382 9.159, 122.405 9, 119.893 9 C 115.653 9, 105.222 14.959, 100.744 19.940 C 96.500 24.660, 89.142 40, 91.122 40 C 91.605 40, 92 41.800, 92 44 C 92 46.200, 92.420 48, 92.933 48 C 93.446 48, 94.135 48.848, 94.464 49.886 C 94.793 50.923, 96.848 53.009, 99.031 54.522 C 103.305 57.483, 103.854 59.003, 101.500 61.357 C 99.470 63.387, 99.614 64.723, 102 66 C 103.100 66.589, 104 67.726, 104 68.527 C 104 69.328, 104.920 70.549, 106.044 71.242 C 108.970 73.043, 111.522 79.212, 113.388 89 C 115.462 99.873, 115.426 103.305, 113.217 105.304 C 111.556 106.807, 111.262 106.698, 108.920 103.709 C 104.569 98.154, 100.814 90.928, 101.436 89.306 C 101.766 88.447, 101.730 85.446, 101.357 82.635 C 100.386 75.317, 96.884 72, 90.127 72 C 86.394 72, 84.837 71.549, 84.080 70.250 C 83.165 68.679, 83.058 68.726, 83.030 70.703 C 83.008 72.320, 81.736 73.534, 78.250 75.267 C 72.954 77.898, 70.713 81.383, 70.753 86.921 C 70.809 94.551, 75.807 103.681, 81.216 106.033 L 83.931 107.214 81.885 111.226 C 80.649 113.649, 79.451 118.856, 78.862 124.369 C 78.325 129.391, 77.538 135.863, 77.113 138.750 L 76.341 144 90.072 144 L 103.804 144 105.088 140.750 L 106.372 137.500 106.749 140.750 L 107.127 144 141.529 144 C 171.797 144, 176.359 143.796, 179.485 142.306 C 181.439 141.374, 182.863 140.137, 182.649 139.556 C 182.436 138.975, 182.947 137.713, 183.785 136.750 C 185.180 135.149, 185.116 135, 183.032 135 C 181.779 135, 178.093 136.463, 174.841 138.250 C 169.797 141.022, 168.788 141.280, 167.979 140 C 167.457 139.175, 167.024 137.597, 167.015 136.493 C 167.007 135.389, 165.425 128.287, 163.500 120.712 C 159.518 105.040, 159.681 106, 161 106 C 161.550 106, 162 106.627, 162 107.393 C 162 108.159, 162.690 109.051, 163.533 109.374 C 164.376 109.698, 165.960 111.884, 167.052 114.231 L 169.038 118.500 168.506 111.183 C 168.111 105.757, 168.275 104.052, 169.139 104.586 C 170.300 105.304, 170.125 102.846, 168.402 94.250 C 167.975 92.123, 168.139 91, 168.875 91 C 169.494 91, 170 91.563, 170.001 92.250 C 170.002 93.989, 175.945 106.388, 176.508 105.826 C 176.760 105.574, 176.523 103.825, 175.983 101.940 C 174.061 95.241, 174.801 94.194, 178.060 99 L 181.112 103.500 180.536 98 C 180.219 94.975, 179.534 84.175, 179.013 74 C 177.908 52.387, 176.379 44.127, 170.324 27.059 C 164.226 9.867, 160.088 5, 151.573 5 C 148.914 5, 147.643 4.384, 146.408 2.500 C 144.801 0.047, 144.525 0, 131.885 0 C 124.798 0, 119 0.239, 119 0.532" stroke="none" fill="black" fill-rule="evenodd"/>
</svg>