<svg xmlns="http://www.w3.org/2000/svg" width="192" height="144" viewBox="0 0 192 144" version="1.1">
	<path d="M 0 27.728 L 0 55.456 3.060 51.744 C 6.273 47.846, 6.584 47.844, 11.911 51.691 C 12.704 52.264, 8.674 56, 7.262 56 C 4.493 56, 6.693 58.457, 10.075 59.142 C 14.133 59.964, 21 67.097, 21 70.492 C 21 73.190, 32.560 97, 33.870 97 C 35.866 97, 49 89.622, 49 88.501 C 49 86.432, 52.355 84.194, 56.500 83.497 C 63.259 82.362, 63.905 81.999, 66.853 77.683 C 72.219 69.827, 73.447 51.740, 68.485 53.644 C 67.476 54.032, 67 53.571, 67 52.206 C 67 50.971, 65.653 49.403, 63.500 48.133 C 58.423 45.137, 58.603 41.264, 63.973 37.951 C 66.158 36.603, 67.957 35.050, 67.969 34.500 C 67.982 33.950, 67.070 31.987, 65.942 30.137 C 64.815 28.288, 64.151 26.515, 64.468 26.199 C 64.785 25.882, 67.105 26.624, 69.624 27.848 L 74.203 30.073 76.501 27.594 C 79.587 24.264, 88.981 21.601, 95.091 22.324 C 98.585 22.738, 100.171 22.499, 101.064 21.423 C 101.884 20.434, 103.504 20.106, 106.045 20.412 C 108.892 20.755, 110.239 20.394, 111.561 18.933 C 112.523 17.870, 113.732 17, 114.248 17 C 115.338 17, 114.772 26.594, 113.516 29.409 C 112.726 31.180, 113.022 31.280, 117.582 30.786 C 120.287 30.493, 124.750 30.548, 127.500 30.908 L 132.500 31.563 127 33.416 C 120.270 35.684, 120.601 35.385, 121.977 37.957 C 122.961 39.796, 122.667 40.532, 119.808 43.382 C 117.989 45.195, 115.901 46.876, 115.169 47.116 C 114.084 47.473, 114.126 48.288, 115.397 51.527 C 117.867 57.820, 120.778 71.743, 121.559 81 C 122.068 87.036, 122.992 90.879, 124.746 94.257 C 126.661 97.943, 127.072 99.857, 126.571 102.757 C 125.226 110.547, 126.591 122.879, 129.531 129.500 C 130.264 131.150, 131.377 135.094, 132.005 138.265 L 133.148 144.030 162.824 143.765 L 192.500 143.500 192.672 71.750 L 192.843 -0 96.422 -0 L 0 0 0 27.728 M 0.439 28 C 0.439 43.125, 0.578 49.313, 0.748 41.750 C 0.917 34.188, 0.917 21.813, 0.748 14.250 C 0.578 6.688, 0.439 12.875, 0.439 28 M 9 64 C 9 64.550, 9.477 65, 10.059 65 C 10.641 65, 10.840 64.550, 10.500 64 C 10.160 63.450, 9.684 63, 9.441 63 C 9.198 63, 9 63.450, 9 64 M 1 107.953 L 1 144 29.441 144 C 47.606 144, 58.109 143.633, 58.509 142.985 C 59.478 141.418, 65.410 139.209, 70.712 138.440 C 76.298 137.629, 77.654 137.022, 76.068 136.042 C 75.250 135.537, 75.213 134.571, 75.936 132.667 C 77.075 129.674, 76.814 129.475, 74.032 131.212 C 70.921 133.155, 70.794 131.691, 73.553 125.666 C 76.188 119.909, 76.111 116.833, 73.387 119.094 C 70.922 121.139, 70.679 119.260, 72.988 116.016 C 74.959 113.249, 75.120 112.175, 74.496 105.959 C 74.112 102.132, 73.565 99, 73.282 99 C 72.999 99, 70.556 100.624, 67.852 102.608 C 64.416 105.131, 62.282 106.045, 60.761 105.648 C 59.321 105.271, 57.456 105.940, 55.244 107.628 C 53.406 109.029, 51.220 109.915, 50.387 109.595 C 49.553 109.275, 45.792 110.607, 42.028 112.554 C 27.632 120.005, 25.379 118.801, 16.661 99 C 15.329 95.975, 13.903 92.375, 13.492 91 C 10.813 82.034, 8.708 78.100, 4.987 75.110 L 1 71.906 1 107.953 M 77.616 76.069 C 76.727 77.850, 76 79.463, 76 79.654 C 76 80.488, 78.754 79.890, 80.161 78.750 C 81.441 77.713, 81.493 77.102, 80.467 75.165 L 79.231 72.830 77.616 76.069" stroke="none" fill="black" fill-rule="evenodd"/>
</svg>