<svg xmlns="http://www.w3.org/2000/svg" width="192" height="144" viewBox="0 0 192 144" version="1.1">
	<path d="M 58.464 3.341 C 57.015 11.066, 61.892 20.194, 69.501 24 L 74.500 26.500 69.157 26.805 C 64.379 27.079, 63.402 27.545, 59.907 31.218 C 57.758 33.477, 56 35.457, 56 35.617 C 56 35.778, 57.183 37.092, 58.629 38.538 C 60.972 40.881, 61.195 41.704, 60.676 46.084 C 60.215 49.983, 60.395 51, 61.547 51 C 62.947 51, 63.727 56.166, 63.134 61.500 C 62.510 67.111, 62.319 83.630, 62.869 84.500 C 63.216 85.050, 63.585 88.425, 63.689 92 C 63.793 95.575, 64.121 101.650, 64.417 105.500 C 64.713 109.350, 65.056 113.850, 65.179 115.500 C 65.303 117.150, 65.313 121.355, 65.202 124.844 C 65.032 130.175, 64.692 131.268, 63.069 131.692 C 61.441 132.118, 59.941 133.972, 59.585 136 C 59.536 136.275, 58.485 137.919, 57.248 139.654 C 56.012 141.389, 55 143.077, 55 143.404 C 55 143.732, 58.825 144, 63.500 144 C 71.217 144, 73.704 143.171, 71 141.500 C 68.916 140.212, 70.139 136.983, 73.836 134.012 C 75.945 132.316, 78.743 129.033, 80.053 126.715 L 82.435 122.500 83.656 129.500 C 84.328 133.350, 84.905 138.188, 84.939 140.250 L 85 144 108.378 144 L 131.756 144 131.319 123.050 L 130.881 102.100 134.774 99.643 C 139.596 96.599, 146.837 88.497, 147.658 85.228 C 147.994 83.887, 148.001 79.915, 147.673 76.401 C 147.086 70.112, 147.122 69.988, 149.989 68.506 C 154.026 66.418, 155.612 66.602, 159.567 69.619 C 162.887 72.151, 164.584 71.559, 161.453 68.961 C 160.602 68.254, 160.316 67.412, 160.818 67.088 C 164.331 64.823, 162.146 59.117, 157.679 58.889 C 156.480 58.828, 152.850 58.621, 149.610 58.429 C 146.371 58.236, 142.845 58.548, 141.775 59.121 C 138.880 60.670, 138.355 59.315, 140.829 56.682 C 142.023 55.411, 143 53.922, 143 53.374 C 143 52.825, 144.311 51.407, 145.913 50.222 C 147.523 49.032, 149.130 46.685, 149.506 44.974 C 149.964 42.886, 151.049 41.552, 152.841 40.870 C 157.128 39.241, 159 36.953, 159 33.345 C 159 29.449, 157.992 29.433, 153.794 33.260 C 152.129 34.778, 149.694 36.290, 148.383 36.619 C 147.072 36.948, 146 37.581, 146 38.027 C 146 39.338, 139.452 43, 137.107 43 C 135.741 43, 134.611 43.894, 134.023 45.439 C 132.461 49.547, 129.632 50.363, 125.054 48.028 C 120.122 45.511, 108 45.088, 108 47.433 C 108 48.221, 107.204 49.118, 106.231 49.427 C 103.881 50.173, 100.735 56.145, 101.560 58.295 C 102.062 59.604, 101.667 60, 99.857 60.001 C 97.938 60.003, 97.082 61.028, 95.250 65.525 C 92.497 72.282, 92.495 72.398, 95.118 75.945 C 98.881 81.036, 96.278 81.081, 88.978 76.052 C 85.135 73.405, 80.642 70.680, 78.995 69.998 C 76.995 69.170, 76 68.050, 75.999 66.629 C 75.999 65.458, 75.313 61.213, 74.474 57.195 C 73.636 53.177, 73.172 49.530, 73.444 49.091 C 73.715 48.652, 73.414 46.907, 72.775 45.214 C 71.725 42.433, 71.849 41.942, 74.056 40.150 L 76.500 38.166 79.294 41.548 C 82.303 45.190, 87.847 47.328, 91.744 46.349 C 93.380 45.939, 94.818 46.420, 96.400 47.906 C 99.513 50.831, 102.329 49.775, 101.499 45.995 C 101.060 43.996, 101.593 42.215, 103.447 39.482 C 105.423 36.571, 106 34.471, 106 30.189 C 106 24.954, 105.763 24.430, 101.588 20.429 L 97.175 16.202 97.731 8.101 L 98.286 0 78.688 -0 L 59.091 -0 58.464 3.341 M 59 36 C 59 36.550, 59.450 37, 60 37 C 60.550 37, 61 36.550, 61 36 C 61 35.450, 60.550 35, 60 35 C 59.450 35, 59 35.450, 59 36 M 66.992 74.985 C 67.577 76.077, 68.054 79.790, 68.052 83.235 C 68.047 95.547, 68.512 103.833, 69.250 104.577 C 69.662 104.993, 70 106.582, 70 108.108 C 70 109.634, 70.450 111.160, 71 111.500 C 71.550 111.840, 72 111.696, 72 111.180 C 72 110.663, 75.263 106.471, 79.250 101.864 C 83.237 97.256, 87.092 92.733, 87.816 91.812 C 88.980 90.330, 88.232 89.506, 81.316 84.657 C 77.017 81.643, 72.150 77.799, 70.500 76.116 C 67.061 72.607, 65.440 72.085, 66.992 74.985 M 64 79.917 C 64 81.145, 64.646 82, 65.573 82 C 66.505 82, 67.015 81.320, 66.823 80.333 C 66.337 77.824, 64 77.480, 64 79.917 M 64.180 94.172 C 64.652 97.373, 67 97.716, 67 94.583 C 67 92.903, 66.451 92, 65.430 92 C 64.388 92, 63.968 92.729, 64.180 94.172 M 66 109 C 66 110.111, 66.667 111, 67.500 111 C 68.333 111, 69 110.111, 69 109 C 69 107.889, 68.333 107, 67.500 107 C 66.667 107, 66 107.889, 66 109" stroke="none" fill="black" fill-rule="evenodd"/>
</svg>