<svg xmlns="http://www.w3.org/2000/svg" width="192" height="144" viewBox="0 0 192 144" version="1.1">
	<path d="M 0 72 L 0 144 4.406 144 C 8.732 144, 8.840 143.918, 10.339 139.518 C 11.239 136.877, 11.483 134.799, 10.933 134.459 C 9.298 133.448, 9.923 130.881, 12.567 127.738 C 14.589 125.336, 15.067 123.818, 14.817 120.594 C 14.643 118.342, 14.768 116.500, 15.096 116.500 C 16.454 116.500, 19 113.638, 19 112.113 C 19 111.209, 19.900 108.791, 21 106.739 C 22.100 104.686, 23 101.892, 23 100.529 C 23 98.767, 23.900 97.586, 26.115 96.441 C 28.406 95.256, 28.935 94.535, 28.115 93.715 C 27.295 92.895, 26.682 92.918, 25.800 93.800 C 24.029 95.571, 23 95.264, 23 92.965 C 23 91.154, 22.767 91.071, 20.878 92.215 C 19.711 92.922, 17.894 94, 16.841 94.611 C 15.787 95.222, 13.850 96.732, 12.537 97.966 C 11.223 99.200, 9.628 99.888, 8.993 99.496 C 8.347 99.096, 6.598 99.969, 5.028 101.473 C 1.947 104.425, 0.384 103.592, 1.401 99.540 C 1.818 97.878, 3.211 96.800, 6.177 95.847 C 11.014 94.291, 13.722 90.156, 17.537 78.500 L 19.828 71.500 17.164 70.118 C 13.374 68.152, 13.394 68.251, 16.189 65.240 C 20.602 60.486, 20.953 59.107, 18.901 54.590 C 16.487 49.274, 16.485 40.730, 18.897 35.419 C 22.621 27.221, 35.550 20, 46.507 20 C 52.779 20, 53.717 19.367, 55.529 13.913 C 56.426 11.211, 57.558 9, 58.043 9 C 58.528 9, 60.687 11.595, 62.841 14.766 C 64.995 17.937, 67.824 21.114, 69.128 21.827 C 73.306 24.107, 77.842 31.224, 79.414 37.962 C 80.960 44.590, 82.032 45.959, 85.691 45.985 C 86.896 45.993, 88.135 46.409, 88.444 46.910 C 89.182 48.103, 86.888 58, 85.874 58 C 85.443 58, 84.777 59.670, 84.394 61.712 C 84.011 63.754, 82.768 66.177, 81.631 67.097 C 79.921 68.482, 79.783 69.034, 80.831 70.296 C 81.643 71.275, 81.737 72.045, 81.092 72.443 C 80.540 72.785, 80.341 73.725, 80.651 74.532 C 80.960 75.339, 80.663 76, 79.990 76 C 79.080 76, 78.945 77.662, 79.463 82.500 C 80.187 89.262, 79.802 89.921, 76.559 87.468 C 73.791 85.374, 72.074 85.648, 67.186 88.960 L 62.871 91.884 68.186 93.467 C 71.109 94.337, 75.183 95.320, 77.240 95.651 C 81.288 96.302, 86 99.961, 86 102.452 C 86 103.304, 86.114 104, 86.253 104 C 86.392 104, 89.654 103.100, 93.500 102 C 101.351 99.755, 113.142 99.375, 122.566 101.063 C 125.830 101.648, 132.666 104.135, 137.759 106.589 C 149.559 112.278, 160.601 122.754, 166.276 133.646 C 168.324 137.577, 170 141.529, 170 142.429 C 170 143.864, 171.384 144.031, 181.250 143.783 L 192.500 143.500 192.757 71.750 L 193.013 0 96.507 0 L 0 0 0 72 M 0.474 72.500 C 0.474 112.100, 0.598 128.154, 0.750 108.176 C 0.901 88.198, 0.901 55.798, 0.750 36.176 C 0.598 16.554, 0.474 32.900, 0.474 72.500 M 132.250 67.989 C 128.619 70.203, 127.921 73, 131 73 C 133.349 73, 137 69.653, 137 67.500 C 137 65.523, 136.150 65.611, 132.250 67.989 M 72.755 141.500 C 72.435 143.176, 72.726 144, 73.639 144 C 74.424 144, 75 142.942, 75 141.500 C 75 140.125, 74.602 139, 74.117 139 C 73.631 139, 73.018 140.125, 72.755 141.500" stroke="none" fill="black" fill-rule="evenodd"/>
</svg>