<svg xmlns="http://www.w3.org/2000/svg" width="192" height="144" viewBox="0 0 192 144" version="1.1">
	<path d="M 73 39.010 C 73 39.565, 74.976 43.727, 77.392 48.260 C 79.808 52.792, 82.333 58.885, 83.004 61.800 C 83.807 65.289, 84.991 67.603, 86.470 68.572 C 87.705 69.382, 89.526 71.841, 90.517 74.037 C 92.150 77.658, 92.200 78.824, 91.052 86.538 C 90.356 91.217, 90.092 96.676, 90.466 98.669 C 90.930 101.144, 90.744 102.540, 89.880 103.074 C 88.884 103.690, 88.867 104.413, 89.800 106.460 C 90.900 108.876, 90.846 108.988, 89.049 108.026 C 87.983 107.456, 86.835 106.542, 86.497 105.995 C 86.159 105.448, 85.381 105, 84.768 105 C 84.155 105, 85.713 106.912, 88.230 109.250 C 90.747 111.588, 92.963 114.370, 93.154 115.432 C 93.366 116.611, 95.745 118.507, 99.251 120.292 C 102.413 121.902, 105 123.780, 105 124.464 C 105 125.148, 106.125 126.922, 107.500 128.405 C 108.875 129.889, 110 131.998, 110 133.091 C 110 136.192, 114.054 143.531, 114.958 142.067 C 115.530 141.143, 115.875 141.231, 116.329 142.416 C 117.204 144.695, 125.173 144.574, 127.265 142.250 C 128.236 141.172, 128.944 138.235, 129.110 134.599 C 129.378 128.719, 129.360 128.679, 124.315 123.599 C 114.830 114.047, 110.637 107.422, 109.765 100.609 C 107.779 85.075, 107.744 83.097, 109.382 79.004 C 110.722 75.654, 110.802 74.230, 109.844 70.729 C 109.208 68.403, 108.624 63.575, 108.547 60 C 108.315 49.275, 108.106 48.279, 105.411 45.077 C 102.100 41.142, 98.753 41.093, 94.923 44.923 C 91.709 48.138, 91.190 51.083, 93.500 53 C 95.577 54.724, 95.379 55.645, 92.750 56.489 C 86.836 58.386, 84.626 56.652, 79.404 46.018 C 77.257 41.645, 74.938 38.051, 74.250 38.033 C 73.563 38.015, 73 38.454, 73 39.010 M 90.647 67.763 C 90.388 68.182, 90.795 69.644, 91.552 71.013 L 92.929 73.500 92.965 70.250 C 92.997 67.257, 91.772 65.942, 90.647 67.763 M 105.750 119.770 C 103.293 120.299, 103.572 121.674, 106.531 123.612 C 109.646 125.653, 110.157 125.253, 108.658 121.947 C 107.914 120.307, 106.874 119.528, 105.750 119.770" stroke="none" fill="black" fill-rule="evenodd"/>
</svg>