<svg xmlns="http://www.w3.org/2000/svg" width="192" height="144" viewBox="0 0 192 144" version="1.1">
	<path d="M 0 72 L 0 144 39.981 144 L 79.962 144 79.402 139.750 C 79.094 137.412, 79.344 129.650, 79.956 122.500 C 80.569 115.350, 81.107 109.050, 81.153 108.500 C 81.198 107.950, 80.973 105.025, 80.653 102 C 80.333 98.975, 80.323 97.400, 80.632 98.500 C 80.941 99.600, 81.600 100.928, 82.097 101.450 C 83.175 102.584, 83.339 95.046, 82.296 92.332 C 81.677 90.722, 81.508 90.802, 80.896 93 C 80.247 95.330, 80.193 95.284, 80.100 92.309 C 79.954 87.639, 78.682 87.568, 75.096 92.030 C 71.615 96.362, 68.883 97.012, 64.200 94.622 C 62.715 93.864, 59.036 92.721, 56.024 92.084 C 53.012 91.446, 49.503 89.942, 48.225 88.741 C 46.569 87.186, 44.909 86.644, 42.448 86.856 C 38.111 87.230, 32.770 85.508, 30.506 83.006 C 29.031 81.377, 28.977 80.880, 30.147 79.711 C 31.658 78.200, 35 77.833, 35 79.178 C 35 79.643, 36.786 79.799, 38.969 79.525 C 41.152 79.251, 44.061 79.453, 45.434 79.975 C 46.850 80.513, 48.164 80.544, 48.472 80.045 C 49.394 78.553, 55.237 79.638, 61 82.372 C 64.025 83.806, 66.950 84.984, 67.500 84.989 C 68.875 85.001, 73.058 75.316, 72.409 73.624 C 72.120 72.871, 73.598 70.224, 75.692 67.741 C 77.786 65.258, 81.413 60.955, 83.750 58.178 C 86.088 55.401, 88 52.875, 88 52.564 C 88 52.254, 87.123 52, 86.051 52 C 83.886 52, 78.765 45.951, 79.214 43.925 C 79.371 43.215, 78.236 42.004, 76.691 41.234 C 72.534 39.163, 71.383 35.899, 73.039 30.882 C 73.786 28.617, 75.321 25.588, 76.449 24.150 C 77.577 22.713, 78.500 20.404, 78.500 19.019 C 78.500 16.770, 78.956 16.467, 82.754 16.192 C 86.301 15.936, 87.261 15.396, 88.528 12.946 C 90.424 9.279, 96.575 6.402, 98.717 8.180 C 101.217 10.255, 105.197 19.139, 104.618 21.353 C 104.282 22.637, 104.799 24.230, 105.953 25.473 C 108.877 28.621, 111.724 38.481, 113.034 50 C 113.813 56.849, 115.440 63.977, 117.713 70.500 C 122.555 84.393, 123.132 87, 121.369 87 C 120.167 87, 120.185 87.457, 121.483 89.967 C 123.524 93.915, 123.551 96.276, 121.639 104 C 120.754 107.575, 120.023 111.815, 120.015 113.421 C 120.007 115.028, 119.327 117.086, 118.505 117.994 C 116.062 120.694, 114.757 134.910, 116.364 141.314 L 117.044 144.024 154.772 143.762 L 192.500 143.500 192.757 71.750 L 193.013 0 96.507 0 L 0 0 0 72 M 0.474 72.500 C 0.474 112.100, 0.598 128.154, 0.750 108.176 C 0.901 88.198, 0.901 55.798, 0.750 36.176 C 0.598 16.554, 0.474 32.900, 0.474 72.500 M 40.705 72.325 C 40.013 74.131, 41.826 76, 44.270 76 C 45.636 76, 46.053 75.395, 45.820 73.750 C 45.452 71.160, 41.568 70.078, 40.705 72.325" stroke="none" fill="black" fill-rule="evenodd"/>
</svg>