<svg xmlns="http://www.w3.org/2000/svg" width="192" height="144" viewBox="0 0 192 144" version="1.1">
	<path d="M 0 72 L 0 144 34.750 143.987 L 69.500 143.975 73.684 130.255 C 75.986 122.709, 77.742 116.409, 77.588 116.254 C 77.433 116.100, 76.023 118.004, 74.454 120.487 C 71.174 125.675, 69.407 126.147, 67.856 122.250 C 67.241 120.704, 66.558 120.047, 66.297 120.750 C 65.550 122.763, 60.015 122.329, 59.921 120.250 C 59.874 119.205, 59.639 119.003, 59.338 119.750 C 59.060 120.437, 58.409 121, 57.891 121 C 57.373 121, 57.654 119.637, 58.515 117.971 C 59.377 116.304, 59.813 114.506, 59.484 113.975 C 59.156 113.443, 60.038 112.484, 61.444 111.844 C 62.850 111.203, 64 110.380, 64 110.014 C 64 109.648, 66.458 106.104, 69.463 102.138 C 72.468 98.172, 75.390 93.256, 75.958 91.213 C 77.374 86.113, 77.331 77.677, 75.893 78.566 C 75.119 79.044, 75.001 78.272, 75.500 76 C 75.999 73.728, 75.881 72.956, 75.107 73.434 C 73.057 74.701, 73.979 72.369, 76.443 70.053 C 78.253 68.353, 79.044 66.300, 79.496 62.129 C 79.831 59.033, 80.304 55.530, 80.548 54.345 C 80.907 52.596, 80.614 52.288, 78.993 52.712 C 77.429 53.121, 76.671 52.456, 75.498 49.649 C 73.526 44.931, 73.605 42.277, 75.750 41.156 C 76.713 40.654, 84.126 39.716, 92.224 39.072 C 109.083 37.732, 111.389 38.208, 110.049 42.748 C 108.794 47.001, 106.766 51, 105.864 51 C 105.417 51, 105.286 52.237, 105.575 53.750 C 105.901 55.460, 105.325 57.998, 104.050 60.461 C 102.023 64.378, 101.243 71, 102.809 71 C 105.784 71, 107.116 73.932, 107.990 82.401 L 108.905 91.275 116.203 98.125 C 120.216 101.893, 124.175 105.259, 125 105.604 C 126.143 106.083, 126.192 106.347, 125.206 106.714 C 124.278 107.060, 124.685 108.209, 126.643 110.777 C 128.590 113.330, 128.890 114.172, 127.687 113.710 C 126.759 113.354, 126 113.429, 126 113.877 C 126 115.527, 121.011 114.359, 118.670 112.160 C 116.551 110.169, 116.179 110.092, 115.628 111.528 C 115.283 112.427, 115 114.447, 115 116.017 C 115 117.586, 114.544 120.068, 113.987 121.533 C 113.192 123.625, 113.514 125.902, 115.487 132.150 C 116.869 136.524, 118 140.985, 118 142.064 C 118 143.981, 118.827 144.019, 155.250 143.762 L 192.500 143.500 192.757 71.750 L 193.013 0 96.507 0 L 0 0 0 72 M 0.474 72.500 C 0.474 112.100, 0.598 128.154, 0.750 108.176 C 0.901 88.198, 0.901 55.798, 0.750 36.176 C 0.598 16.554, 0.474 32.900, 0.474 72.500" stroke="none" fill="black" fill-rule="evenodd"/>
</svg>