<svg xmlns="http://www.w3.org/2000/svg" width="192" height="144" viewBox="0 0 192 144" version="1.1">
	<path d="M 0 72 L 0 144 30.500 144 C 47.275 144, 61 143.849, 61 143.664 C 61 143.478, 58.622 142.124, 55.715 140.653 C 40.644 133.028, 35.796 122.365, 43.250 113.236 C 48.803 106.437, 54.736 103.276, 70.500 98.719 C 79.472 96.126, 113.246 94.613, 116.512 96.658 C 117.618 97.351, 121.443 98.820, 125.012 99.923 C 134.846 102.961, 143.262 107.396, 146.763 111.383 C 150.355 115.474, 152.547 121.685, 151.654 125.243 C 150.488 129.889, 142.943 137.106, 135.544 140.652 L 128.500 144.028 160.500 143.764 L 192.500 143.500 192.757 71.750 L 193.013 0 96.507 0 L 0 0 0 72 M 0.474 72.500 C 0.474 112.100, 0.598 128.154, 0.750 108.176 C 0.901 88.198, 0.901 55.798, 0.750 36.176 C 0.598 16.554, 0.474 32.900, 0.474 72.500 M 102.701 55.632 C 101.469 56.864, 101.950 60.767, 103.403 61.324 C 104.174 61.620, 105.637 61.245, 106.653 60.490 C 108.122 59.398, 108.274 58.747, 107.393 57.309 C 106.195 55.352, 103.828 54.506, 102.701 55.632 M 82.229 57.171 C 80.494 58.906, 80.703 61.672, 82.627 62.410 C 84.840 63.259, 87.163 61.136, 86.798 58.598 C 86.450 56.172, 83.995 55.405, 82.229 57.171 M 122.250 56.662 C 120.756 57.265, 120.576 61.620, 122.009 62.506 C 123.970 63.718, 127 61.917, 127 59.540 C 127 57.749, 124.855 55.522, 123.668 56.079 C 123.576 56.122, 122.938 56.385, 122.250 56.662 M 62.389 60.430 C 61.393 63.025, 62.788 65.169, 65.246 64.820 C 66.898 64.585, 67.500 63.833, 67.500 62 C 67.500 60.167, 66.898 59.415, 65.246 59.180 C 63.893 58.988, 62.750 59.488, 62.389 60.430 M 139.040 61.452 C 137.314 63.531, 138.165 66.449, 140.598 66.798 C 143.591 67.228, 145.437 64.685, 144.034 62.064 C 142.742 59.649, 140.740 59.404, 139.040 61.452 M 45.569 63.573 C 43.518 65.625, 43.578 67.664, 45.724 68.866 C 48.005 70.142, 51 68.515, 51 66 C 51 63.140, 47.546 61.596, 45.569 63.573 M 151.967 68.062 C 150.994 69.880, 151.129 70.574, 152.778 72.222 C 155.539 74.983, 159.263 73.107, 158.810 69.183 C 158.392 65.566, 153.713 64.800, 151.967 68.062 M 32.250 69.662 C 31.563 69.940, 31 71.372, 31 72.846 C 31 74.666, 30.278 75.843, 28.750 76.513 C 27.163 77.209, 26.500 78.352, 26.500 80.391 C 26.500 86.583, 33.195 86.362, 33.813 80.149 C 34.001 78.264, 34.689 77, 35.528 77 C 37.284 77, 38.899 73.994, 38.215 72 C 37.316 69.380, 35.101 68.512, 32.250 69.662 M 160.046 74.445 C 159.386 75.240, 158.994 76.927, 159.173 78.195 C 159.383 79.676, 158.820 80.857, 157.598 81.500 C 154.157 83.309, 153.375 85.652, 155.447 87.941 C 159.170 92.055, 165.598 88.854, 163.076 84.142 C 162.268 82.633, 162.544 82.073, 164.541 81.163 C 168.587 79.320, 167.334 73, 162.922 73 C 162 73, 160.705 73.650, 160.046 74.445 M 33.750 84.080 C 32.755 84.660, 32 86.285, 32 87.850 C 32 92.799, 36.166 94.684, 39.345 91.171 C 41.613 88.665, 41.420 86.407, 38.777 84.557 C 36.193 82.746, 36.061 82.734, 33.750 84.080 M 139.272 89.211 C 138.047 89.802, 136.784 91.105, 136.467 92.105 C 134.971 96.816, 141.350 100.803, 145.040 97.464 C 147.547 95.195, 147.532 92.532, 145 90 C 142.751 87.751, 142.397 87.702, 139.272 89.211 M 52 90.785 C 51.175 91.068, 50.169 91.795, 49.765 92.400 C 48.509 94.282, 48.928 98.696, 50.487 99.989 C 52.504 101.663, 56.717 100.467, 57.501 97.998 C 58.806 93.885, 55.520 89.577, 52 90.785 M 85.317 101.750 C 83.473 106.948, 79.162 108.497, 76.625 104.875 C 75.448 103.195, 74.545 102.896, 72.318 103.451 C 67.221 104.720, 59.151 110.020, 56.990 113.516 C 51.417 122.533, 56.945 131.165, 71.756 136.573 C 90.373 143.371, 114.563 141.328, 128.765 131.757 C 135.084 127.499, 136.756 124.114, 136.141 116.827 C 135.879 113.717, 130.619 108.735, 124.585 105.881 C 118.976 103.229, 118.427 103.145, 116.198 104.606 C 113.072 106.654, 109.196 105.646, 107.989 102.472 C 107.072 100.058, 106.801 100, 96.493 100 C 87.343 100, 85.855 100.233, 85.317 101.750" stroke="none" fill="black" fill-rule="evenodd"/>
</svg>