<svg xmlns="http://www.w3.org/2000/svg" width="192" height="144" viewBox="0 0 192 144" version="1.1">
	<path d="M 0 72 L 0 144 73.500 144 L 147 144 146.999 140.250 C 146.998 136.795, 146.607 136.280, 142.038 133.714 C 137.967 131.428, 136.960 130.304, 136.424 127.447 C 136.065 125.533, 136.247 122.737, 136.829 121.233 C 137.411 119.730, 138.407 115.800, 139.044 112.500 C 139.680 109.200, 141.517 103.312, 143.125 99.415 C 144.733 95.518, 146.267 90.632, 146.532 88.557 C 146.798 86.482, 147.253 84.400, 147.543 83.930 C 148.024 83.153, 148.170 77.050, 147.811 72.790 C 147.732 71.849, 146.392 70.635, 144.833 70.092 C 143.275 69.549, 142 68.556, 142 67.885 C 142 67.215, 141.749 66.918, 141.442 67.225 C 141.135 67.532, 140.691 70.312, 140.456 73.403 C 140.221 76.494, 139.141 80.763, 138.056 82.890 C 134.961 88.957, 124 97.771, 124 94.193 C 124 93.748, 125.913 92.032, 128.250 90.379 C 134.835 85.721, 137.937 80.484, 138.653 72.815 C 139.366 65.180, 139.727 65.428, 126.402 64.371 C 118.709 63.760, 118.276 63.835, 117.746 65.864 C 117.094 68.357, 118.116 68.292, 84 68.036 C 65.175 67.896, 60.937 67.593, 58.054 66.184 C 53.525 63.970, 53.211 62.459, 56.887 60.559 C 60.491 58.695, 66.134 58.611, 83.659 60.161 C 95.363 61.196, 96.995 61.148, 98.410 59.733 C 101.017 57.126, 110.268 55.822, 124.810 56.013 C 142.379 56.243, 141.482 56.339, 139.571 54.429 C 137.222 52.079, 137.640 51.158, 141.376 50.457 C 144.503 49.871, 144.799 49.484, 145.383 45.225 C 145.815 42.073, 145.626 40.387, 144.785 39.867 C 143.149 38.856, 145.013 38.230, 151.475 37.621 C 154.211 37.363, 156.575 36.780, 156.729 36.326 C 157.436 34.235, 161.057 29, 161.796 29 C 162.250 29, 162.665 54.683, 162.717 86.073 C 162.769 117.463, 163.079 143.413, 163.406 143.739 C 163.733 144.066, 164 142.683, 164 140.667 C 164 137.524, 164.322 137.003, 166.250 137.022 C 167.798 137.037, 168.968 138.051, 170 140.272 C 171.494 143.488, 171.532 143.501, 179.779 143.791 L 188.059 144.082 187.396 141.291 C 187.032 139.756, 186.119 136.983, 185.367 135.128 C 183.634 130.854, 183.634 129, 185.365 129 C 186.116 129, 187.899 128.081, 189.327 126.957 L 191.924 124.915 192.254 134.207 C 192.436 139.318, 192.581 111.100, 192.575 71.500 C 192.570 31.900, 192.311 8.275, 192 19 C 191.689 29.725, 191.334 37.150, 191.212 35.500 C 190.949 31.967, 189.110 25, 188.439 25 C 188.183 25, 187.134 25.524, 186.108 26.164 C 184.610 27.100, 183.467 26.924, 180.294 25.270 C 175.957 23.010, 173.036 23.183, 167.149 26.048 L 163.500 27.825 163.223 13.912 L 162.945 -0 81.473 -0 L 0 0 0 72 M 0.474 72.500 C 0.474 112.100, 0.598 128.154, 0.750 108.176 C 0.901 88.198, 0.901 55.798, 0.750 36.176 C 0.598 16.554, 0.474 32.900, 0.474 72.500 M 149.200 41.200 C 147.774 42.626, 147.640 47.883, 148.976 49.995 C 149.787 51.278, 150.127 51.208, 151.372 49.506 C 152.170 48.415, 152.599 47.160, 152.325 46.717 C 152.052 46.275, 152.372 45.257, 153.036 44.456 C 153.983 43.316, 153.975 42.675, 153 41.500 C 151.495 39.686, 150.771 39.629, 149.200 41.200 M 186.477 48.947 C 185.365 49.398, 183.565 50.994, 182.477 52.494 C 179.126 57.116, 177.773 58.174, 175.851 57.671 C 174.698 57.370, 174 57.717, 174 58.594 C 174 59.561, 175.213 60, 177.883 60 C 180.926 60, 181.880 60.433, 182.290 62 C 182.717 63.634, 183.654 64, 187.406 64 L 192 64 192 56 C 192 47.433, 191.569 46.882, 186.477 48.947 M 173.526 78.950 C 172.687 80.573, 172 84.138, 172 86.873 C 172 91.704, 172.164 91.982, 177.750 96.641 C 180.912 99.279, 183.658 101.533, 183.850 101.652 C 184.043 101.770, 183.846 102.440, 183.413 103.141 C 182.223 105.066, 182.018 108.893, 183.070 109.543 C 183.581 109.859, 184 111.010, 184 112.101 C 184 113.191, 184.954 115.077, 186.120 116.292 C 187.287 117.506, 188.974 119.671, 189.870 121.103 C 191.410 123.562, 191.511 122.527, 191.708 102.312 C 191.945 77.995, 192.714 80.038, 182.773 78.579 C 180.174 78.197, 177.785 77.460, 177.464 76.942 C 176.423 75.257, 175.082 75.941, 173.526 78.950" stroke="none" fill="black" fill-rule="evenodd"/>
</svg>