<svg xmlns="http://www.w3.org/2000/svg" width="192" height="144" viewBox="0 0 192 144" version="1.1">
	<path d="M 171.053 3.750 C 169.540 9.197, 169.736 10.989, 172.250 14.681 C 174.621 18.164, 175.488 18.637, 176.500 17 C 176.840 16.450, 177.891 16, 178.837 16 C 180.540 16, 182.479 14.124, 184.601 10.421 C 185.234 9.315, 187.038 8.367, 188.851 8.187 C 191.797 7.894, 192 7.619, 192 3.937 L 192 0 182.047 0 L 172.094 0 171.053 3.750 M 0.158 83 C 0.158 84.375, 0.385 84.938, 0.662 84.250 C 0.940 83.563, 0.940 82.438, 0.662 81.750 C 0.385 81.063, 0.158 81.625, 0.158 83" stroke="none" fill="black" fill-rule="evenodd"/>
</svg>