<svg xmlns="http://www.w3.org/2000/svg" width="192" height="144" viewBox="0 0 192 144" version="1.1">
	<path d="M 74 6.986 C 74 18.119, 70.018 30.815, 64.379 37.660 C 63.092 39.222, 61.691 40.950, 61.266 41.500 C 60.841 42.050, 60.638 43.512, 60.816 44.750 C 61.002 46.048, 60.614 47, 59.898 47 C 59.216 47, 57.838 47.741, 56.838 48.647 C 55.837 49.553, 53.686 50.399, 52.057 50.527 C 50.429 50.655, 48.409 51.448, 47.567 52.290 C 46.725 53.132, 43.891 54.617, 41.268 55.589 C 32.945 58.676, 26.784 63.917, 19.843 73.813 C 9.377 88.733, 5.303 113.893, 9.852 135.500 L 11.537 143.500 29.927 143.773 L 48.317 144.046 42.821 138.766 C 34.291 130.570, 32.781 125.652, 32.223 104.240 C 31.599 80.331, 33.641 67.445, 38.812 62.656 C 43.390 58.416, 44.903 57.331, 49.139 55.250 C 51.658 54.013, 54.032 53, 54.414 53 C 55.316 53, 63.733 49.339, 67.154 47.459 C 70.742 45.487, 74.347 45.624, 78.790 47.902 C 90.317 53.813, 100.370 71.645, 97.276 80.691 C 95.788 85.041, 98.229 89.474, 106.838 98.058 C 115.352 106.545, 120.922 109.326, 131.893 110.567 C 137.945 111.252, 138.137 111.369, 142.296 116.882 C 144.626 119.972, 148.035 124.862, 149.871 127.750 C 151.707 130.637, 153.769 133, 154.453 133 C 155.715 133, 164.282 115.799, 165.535 110.750 C 165.910 109.238, 166.618 108, 167.108 108 C 167.599 108, 168 106.882, 168 105.516 C 168 104.150, 169.302 100.345, 170.893 97.060 C 173.205 92.286, 173.551 90.768, 172.616 89.490 C 170.770 86.966, 168.604 88.620, 166.687 94.020 C 165.714 96.759, 164.299 99, 163.542 99 C 162.786 99, 161.990 99.531, 161.773 100.180 C 161.554 100.839, 160.634 101.073, 159.690 100.711 C 158.413 100.221, 158 98.833, 158 95.031 C 158 89.510, 157.257 89.016, 153.154 91.804 C 149.463 94.313, 142.094 97.427, 141.427 96.760 C 141.122 96.456, 143.757 93.005, 147.282 89.091 C 154.119 81.500, 155.331 78.771, 156.958 67.296 C 158.177 58.704, 158.459 40.687, 157.442 36.500 C 155.837 29.899, 151.004 22.318, 144.347 15.959 C 137.002 8.943, 127.935 2, 126.116 2 C 125.502 2, 125 1.550, 125 1 C 125 0.359, 115.833 0, 99.500 0 L 74 0 74 6.986 M 180.364 1.750 C 181.823 6.871, 183.023 15.552, 183.440 24 L 183.910 33.500 187.955 33.807 L 192 34.115 192 17.057 L 192 0 185.933 0 C 180.631 0, 179.928 0.221, 180.364 1.750 M 190.737 41.750 C 190.528 42.163, 190.673 43.850, 191.060 45.500 C 191.752 48.450, 191.765 48.437, 191.882 44.750 C 191.994 41.189, 191.577 40.096, 190.737 41.750 M 188.235 52.781 C 186.598 54.310, 183.986 56.141, 182.431 56.849 C 180.178 57.876, 179.898 58.323, 181.052 59.053 C 181.848 59.557, 183.218 59.976, 184.095 59.985 C 185.999 60.003, 189.020 63.159, 190.656 66.841 C 191.671 69.125, 191.849 68.124, 191.919 59.750 C 191.963 54.388, 191.823 50, 191.606 50 C 191.389 50, 189.872 51.251, 188.235 52.781 M 109.139 51.999 C 103.516 53.327, 102.662 54.899, 105.095 59.438 C 108.305 65.428, 113.162 70.022, 117.263 70.947 C 121.428 71.886, 121.236 72.169, 122.944 62.566 C 124.546 53.567, 124.457 53.221, 120.250 52.053 C 116.006 50.874, 113.942 50.864, 109.139 51.999 M 61.098 82.918 C 60.012 83.606, 59.824 85.489, 60.262 91.278 C 60.930 100.107, 62.398 103, 66.212 103 C 69.562 103, 79.003 98.925, 80.859 96.678 C 82.050 95.236, 81.868 94.900, 79.386 93.957 C 77.829 93.365, 73.989 90.432, 70.852 87.440 C 65.107 81.960, 63.666 81.292, 61.098 82.918 M 190.267 89 C 189.529 90.780, 189.557 91.908, 190.365 92.915 C 191.305 94.086, 191.555 93.955, 191.821 92.153 C 191.998 90.956, 191.954 89.194, 191.723 88.238 C 191.382 86.822, 191.112 86.964, 190.267 89" stroke="none" fill="black" fill-rule="evenodd"/>
</svg>