<svg xmlns="http://www.w3.org/2000/svg" width="192" height="144" viewBox="0 0 192 144" version="1.1">
	<path d="M 81.012 0.250 C 81.018 0.388, 81.691 2.975, 82.506 6 C 83.321 9.025, 84.248 16, 84.566 21.500 C 84.883 27, 85.834 33.750, 86.678 36.500 L 88.212 41.500 84.869 44 C 80.580 47.208, 73.812 53.987, 67.604 61.295 C 63.292 66.370, 62.361 68.338, 59.805 77.779 C 53.931 99.473, 53.116 101.147, 47.526 102.991 C 45.543 103.646, 44.262 104.615, 44.619 105.192 C 44.969 105.760, 44.636 106.658, 43.878 107.188 C 42.865 107.897, 42.816 108.282, 43.694 108.641 C 44.350 108.909, 44.614 109.842, 44.280 110.712 C 43.792 111.984, 44.209 112.193, 46.394 111.775 C 48.398 111.392, 48.980 111.609, 48.602 112.596 C 46.704 117.540, 54.526 110.936, 61.376 101.810 C 62.899 99.780, 65.115 97.980, 66.299 97.810 C 67.980 97.568, 68.613 96.554, 69.185 93.188 C 69.587 90.816, 71.063 85.118, 72.464 80.527 C 74.762 72.993, 75.498 71.770, 80.005 67.996 C 82.753 65.695, 86.913 61.309, 89.250 58.247 C 95.659 49.853, 104 47.734, 104 54.500 C 104 55.741, 103.002 57.419, 101.782 58.229 C 100.061 59.371, 99.556 60.688, 99.532 64.101 C 99.514 66.520, 100.068 68.950, 100.762 69.500 C 101.735 70.271, 101.112 71.761, 98.045 76 C 95.856 79.025, 94.050 81.993, 94.032 82.595 C 94.015 83.197, 93.100 84.505, 92 85.500 C 90.900 86.495, 90 88.339, 90 89.596 C 90 90.853, 89.548 92.161, 88.996 92.502 C 87.768 93.261, 88.844 97.987, 90.659 99.802 C 91.755 100.898, 92.951 100.429, 97.653 97.062 C 101.258 94.481, 104.451 92.984, 106.413 92.956 C 108.111 92.932, 111.223 92.298, 113.328 91.547 C 116.806 90.307, 117.585 90.377, 121.828 92.311 C 128.269 95.247, 137.681 95.131, 144.790 92.028 C 147.699 90.758, 150.583 88.780, 151.197 87.632 C 151.812 86.483, 152.610 80.921, 152.970 75.270 C 153.505 66.886, 154.034 64.446, 155.843 61.999 C 157.449 59.826, 157.676 59, 156.665 59 C 154.981 59, 151.808 61.427, 146.329 66.906 C 144.077 69.158, 141.845 70.982, 141.368 70.961 C 140.308 70.913, 134 62.472, 134 61.101 C 134 60.560, 136.475 55.074, 139.500 48.911 C 144.288 39.155, 146.392 33.274, 144.373 35.293 C 144.028 35.638, 142.527 35.290, 141.037 34.519 C 138.466 33.189, 138.163 33.294, 135.067 36.576 C 133.273 38.478, 131.006 40.462, 130.029 40.985 C 128.511 41.797, 128.165 41.405, 127.662 38.304 C 127.154 35.176, 127.851 33.298, 132.686 24.759 C 135.773 19.306, 138.899 12.293, 139.634 9.173 C 141.966 -0.739, 143.099 0, 125.579 0 L 110.159 0 109.419 3.250 L 108.680 6.500 107.811 3.250 L 106.943 0 93.971 0 C 86.837 0, 81.005 0.112, 81.012 0.250" stroke="none" fill="black" fill-rule="evenodd"/>
</svg>