<svg xmlns="http://www.w3.org/2000/svg" width="192" height="144" viewBox="0 0 192 144" version="1.1">
	<path d="M 0 72 L 0 144 32.910 144 L 65.820 144 66.532 135.455 C 67.289 126.369, 66.956 124.962, 64.524 126.980 C 62.229 128.885, 62.535 126.275, 65.100 122.068 C 66.251 120.180, 68.638 115.905, 70.405 112.568 C 72.172 109.230, 75.798 103.007, 78.462 98.738 C 83.241 91.079, 83.312 90.843, 83.781 81.102 L 84.256 71.228 81.473 71.760 C 79.099 72.214, 78.773 72.014, 79.253 70.396 C 79.562 69.353, 80.839 65.194, 82.091 61.153 C 83.863 55.437, 84.114 53.440, 83.224 52.153 C 77.836 44.364, 72.683 32.575, 73.517 29.947 C 74.505 26.833, 78.602 27.536, 82.567 31.500 C 84.492 33.425, 87.031 35, 88.210 35 C 89.389 35, 92.734 33.360, 95.644 31.356 C 104.176 25.480, 116.296 25.726, 123.062 31.912 C 126.093 34.683, 126.142 34.990, 126.026 50.179 C 125.971 57.264, 125.766 58.004, 123.366 59.752 C 121.027 61.456, 120.836 62.070, 121.474 65.845 C 122.004 68.984, 122.854 70.391, 124.842 71.423 C 127.745 72.930, 139.905 86.056, 141.945 89.886 C 142.657 91.222, 143.169 95.301, 143.111 99.162 C 143.010 105.777, 143.114 106.093, 145.720 107.084 C 151.081 109.122, 150.930 107.523, 148.514 136.769 L 147.913 144.038 170.207 143.769 L 192.500 143.500 192.757 71.750 L 193.013 0 147.507 0 L 102 0 102 2.260 C 102 4.346, 101.539 4.526, 96 4.601 C 90.352 4.678, 90 4.545, 90 2.341 L 90 0 45 0 L 0 0 0 72 M 0.474 72.500 C 0.474 112.100, 0.598 128.154, 0.750 108.176 C 0.901 88.198, 0.901 55.798, 0.750 36.176 C 0.598 16.554, 0.474 32.900, 0.474 72.500 M 102.489 142.018 C 101.574 143.498, 102.442 144.255, 104.577 143.838 C 106.140 143.534, 106.156 143.371, 104.745 142.201 C 103.620 141.269, 102.984 141.218, 102.489 142.018" stroke="none" fill="black" fill-rule="evenodd"/>
</svg>