<svg xmlns="http://www.w3.org/2000/svg" width="192" height="144" viewBox="0 0 192 144" version="1.1">
	<path d="M 67.664 4.819 C 66.512 6.091, 65.989 8.844, 65.846 14.384 C 65.635 22.580, 66.425 24.225, 70.111 23.261 C 72.577 22.616, 72.498 23.178, 69.497 27.600 C 67.580 30.424, 67.257 31.605, 68.119 32.644 C 68.738 33.390, 69.817 34, 70.515 34 C 72.424 34, 72.831 35.918, 72.900 45.244 C 72.956 52.867, 72.715 54.016, 70.578 56.321 C 69.248 57.756, 67.897 60.797, 67.524 63.197 C 66.469 69.974, 65.995 71, 63.921 71 C 62.220 71, 62.055 71.490, 62.601 74.904 C 63.362 79.664, 61.411 85.987, 55.273 98.662 C 51.614 106.216, 51.027 108.182, 51.927 109.864 C 53.210 112.261, 53.152 121.636, 51.795 131.500 C 50.214 142.983, 53.528 147.736, 58.033 140.447 C 60.617 136.265, 61.321 136.394, 60.053 140.816 L 59.140 144 88.017 144 L 116.895 144 115.632 140.350 C 114.535 137.182, 114.608 136.231, 116.184 133.139 C 117.183 131.180, 118 127.492, 118 124.944 C 118 121.580, 118.548 119.814, 120 118.500 C 122.323 116.397, 122.532 113.287, 120.528 110.641 C 119.426 109.186, 119.374 108.374, 120.287 106.912 C 121.572 104.854, 119.976 97.067, 115.412 83.136 C 114.086 79.086, 113 74.460, 113 72.855 C 113 71.250, 112.367 69.694, 111.592 69.397 C 110.818 69.100, 109.200 66.567, 107.995 63.768 C 106.266 59.749, 105.769 56.488, 105.631 48.258 C 105.534 42.526, 105.744 37.658, 106.096 37.440 C 106.449 37.223, 107.010 35.347, 107.343 33.272 C 107.679 31.182, 108.781 28.984, 109.814 28.342 C 111.783 27.119, 117 17.012, 117 14.422 C 117 13.584, 115.313 12.188, 113.250 11.320 C 109.024 9.542, 98.045 9.309, 97.015 10.976 C 96.549 11.730, 95.492 11.618, 93.548 10.609 C 92.010 9.811, 90.190 9.374, 89.505 9.637 C 88.819 9.900, 86.580 8.976, 84.528 7.584 C 82.477 6.192, 79.157 4.790, 77.149 4.469 C 75.142 4.148, 72.551 3.693, 71.390 3.459 C 70.182 3.214, 68.590 3.796, 67.664 4.819 M 73.574 87.750 C 73.209 92.563, 72.659 97.850, 72.350 99.500 C 71.945 101.666, 72.096 102.209, 72.892 101.453 C 73.992 100.408, 75.783 79, 74.770 79 C 74.477 79, 73.938 82.938, 73.574 87.750" stroke="none" fill="black" fill-rule="evenodd"/>
</svg>