<svg xmlns="http://www.w3.org/2000/svg" width="192" height="144" viewBox="0 0 192 144" version="1.1">
	<path d="M 0 72 L 0 144 5.750 143.995 L 11.500 143.990 11.732 139.745 C 11.860 137.410, 12.387 134.600, 12.904 133.500 C 13.421 132.400, 14.108 130.282, 14.430 128.794 C 14.882 126.709, 15.768 125.946, 18.294 125.473 C 21.517 124.868, 21.571 124.768, 21.571 119.454 C 21.571 115.878, 21.121 113.877, 20.241 113.539 C 18.951 113.044, 15.861 107.046, 15.327 104 C 15.182 103.175, 14.645 100.507, 14.133 98.071 C 13.185 93.554, 13.534 92.165, 17.855 83.282 C 18.716 81.513, 21.497 78.719, 24.036 77.073 L 28.653 74.082 28.275 67.312 C 28.068 63.588, 28.150 59.539, 28.458 58.313 C 29.214 55.297, 32.948 51.443, 36 50.528 C 37.375 50.116, 40.606 48.029, 43.179 45.889 C 47.036 42.684, 48.623 42, 52.207 42 C 54.598 42, 57.469 41.360, 58.586 40.578 C 59.703 39.795, 62.123 39.008, 63.964 38.828 L 67.312 38.500 67.478 32.740 C 67.613 28.074, 68.131 26.460, 70.208 24.240 C 71.618 22.733, 73.510 20.038, 74.412 18.250 C 75.628 15.840, 76.756 14.974, 78.776 14.900 C 80.274 14.845, 84.650 14.677, 88.500 14.526 C 97.368 14.180, 103.543 16.215, 105.581 20.157 C 106.444 21.825, 107.868 23, 109.026 23 C 110.114 23, 111 23.673, 111 24.500 C 111 25.325, 111.825 26.825, 112.833 27.833 C 113.842 28.842, 114.754 30.304, 114.861 31.083 C 114.968 31.863, 115.313 34.638, 115.628 37.250 C 115.943 39.862, 116.506 42, 116.878 42 C 117.250 42, 118.668 41.244, 120.027 40.319 L 122.500 38.638 120.555 40.864 C 119.485 42.088, 118.471 43.993, 118.303 45.098 C 118.134 46.203, 117.282 48.488, 116.408 50.178 C 114.962 52.973, 114.961 53.390, 116.396 54.825 C 117.831 56.259, 118.242 56.142, 120.986 53.513 C 122.644 51.925, 124 51.105, 124 51.690 C 124 52.276, 123.325 53.315, 122.500 54 C 121.675 54.685, 121 55.820, 121 56.524 C 121 57.227, 119.425 58.732, 117.500 59.867 C 115.575 61.003, 114 62.623, 114 63.466 C 114 66.123, 116.794 65.136, 119.568 61.500 C 121.036 59.575, 122.859 58, 123.619 58 C 124.378 58, 125 57.564, 125 57.031 C 125 56.499, 125.604 56.294, 126.342 56.578 C 127.093 56.866, 129.394 55.202, 131.569 52.796 C 133.706 50.433, 135.821 48.619, 136.268 48.764 C 136.715 48.908, 137.929 48.573, 138.966 48.018 C 140.074 47.425, 141.785 47.355, 143.114 47.847 C 145.100 48.581, 144.862 48.766, 141.177 49.356 C 136.490 50.105, 128.548 56.380, 129.418 58.646 C 129.698 59.378, 129.607 59.928, 129.214 59.870 C 127.091 59.553, 125.998 60.189, 125.985 61.750 C 125.972 63.242, 125.829 63.279, 125.019 62 C 124.234 60.760, 123.549 61.108, 121.075 64 C 117.533 68.141, 117.377 69.126, 119.901 71.410 C 121.727 73.063, 121.848 72.990, 122.978 69.565 C 123.626 67.604, 124.570 66, 125.078 66 C 126.275 66, 126.241 66.681, 124.919 69.151 C 123.358 72.069, 124.132 72.238, 128.778 69.993 C 131.047 68.897, 133.621 68, 134.497 68 C 137.206 68, 140.735 63.526, 141.474 59.156 C 141.861 56.866, 142.587 55.245, 143.089 55.555 C 143.590 55.865, 144.014 55.304, 144.030 54.309 C 144.059 52.606, 144.121 52.603, 145.076 54.243 C 146.017 55.858, 146.271 55.868, 148.546 54.378 C 150.728 52.948, 151 52.941, 151 54.312 C 151 55.160, 151.721 55.999, 152.603 56.177 C 153.640 56.386, 153.136 56.901, 151.179 57.635 C 148.530 58.627, 148.223 58.565, 148.723 57.135 C 149.165 55.871, 149.012 55.761, 148.048 56.650 C 147.362 57.282, 146.733 58.969, 146.650 60.399 C 146.558 61.998, 145.912 62.999, 144.972 62.999 C 144.132 63, 142.734 63.788, 141.865 64.750 C 139.038 67.882, 136.011 70, 134.360 70 C 132.816 70, 122 75.722, 122 76.539 C 122 76.755, 122.746 78.497, 123.658 80.410 L 125.317 83.888 128.408 82.277 C 130.109 81.390, 133.102 80.585, 135.060 80.487 C 138.044 80.336, 147.296 76.032, 149 74 C 149.275 73.672, 150.482 73.343, 151.683 73.269 C 153.756 73.141, 153.781 73.232, 152.187 75.095 C 151.264 76.173, 148.809 77.327, 146.732 77.659 C 143.142 78.233, 141.205 79.538, 142.306 80.639 C 142.585 80.918, 144.517 80.675, 146.600 80.100 C 151.098 78.858, 152.459 79.495, 148.514 80.995 C 146.087 81.917, 140.038 82.772, 132 83.327 C 129.760 83.482, 129.518 83.902, 129.675 87.375 C 129.772 89.507, 130.334 91.734, 130.925 92.325 C 131.516 92.916, 132 94.210, 132 95.200 C 132 97.695, 133.720 97.451, 137.736 94.388 C 140.410 92.348, 141.034 91.273, 140.585 89.483 C 140.120 87.631, 140.357 87.281, 141.814 87.662 C 143.058 87.987, 143.999 87.297, 144.847 85.437 C 145.522 83.955, 146.344 83.011, 146.673 83.340 C 147.002 83.668, 146.422 85.136, 145.385 86.601 C 142.482 90.703, 141.056 93.390, 141.532 93.865 C 141.769 94.103, 143.659 93.154, 145.732 91.757 C 147.804 90.360, 151.218 88.917, 153.317 88.550 C 155.417 88.184, 158.567 87.073, 160.317 86.082 C 163.057 84.531, 163.483 83.758, 163.377 80.536 C 163.308 78.438, 163.590 77.337, 164.019 78.031 C 165.276 80.065, 167.151 75.451, 166.356 72.280 C 165.734 69.805, 165.820 69.678, 167.189 71.047 C 168.784 72.641, 168.573 78.528, 166.885 79.571 C 166.398 79.872, 166 80.777, 166 81.582 C 166 82.821, 166.384 82.794, 168.500 81.408 C 170.237 80.270, 171.028 78.814, 171.090 76.635 L 171.180 73.500 172.153 76.883 L 173.126 80.266 178.152 75.133 C 180.917 72.310, 183.644 70, 184.212 70 C 184.828 70, 184.743 70.605, 184 71.500 C 183.140 72.536, 183.102 73, 183.878 73 C 184.495 73, 185 73.450, 185 74 C 185 74.550, 184.373 75, 183.607 75 C 182.841 75, 181.955 75.676, 181.638 76.501 C 181.321 77.327, 179.493 78.751, 177.575 79.666 C 173.846 81.444, 172.072 84, 174.567 84 C 175.394 84, 177.187 83.268, 178.552 82.374 C 180.639 81.006, 180.943 80.985, 180.462 82.238 C 180.147 83.058, 178.746 84.251, 177.347 84.888 C 175.680 85.647, 175.006 86.573, 175.390 87.575 C 175.713 88.416, 175.563 88.848, 175.058 88.536 C 174.552 88.223, 173.851 88.432, 173.500 89 C 173.149 89.568, 172.432 89.767, 171.907 89.443 C 170.800 88.759, 159.752 92.284, 152.546 95.620 C 149.822 96.882, 145.032 100.168, 141.902 102.923 C 138.772 105.677, 134.352 108.676, 132.079 109.585 C 129.806 110.495, 127.396 112.002, 126.723 112.935 C 126.050 113.868, 124.713 114.925, 123.750 115.284 C 122.788 115.643, 122 116.883, 122 118.040 C 122 119.197, 121.418 120.725, 120.706 121.437 C 119.648 122.495, 119.686 124.668, 120.916 133.378 L 122.420 144.025 157.460 143.763 L 192.500 143.500 192.757 71.750 L 193.013 0 96.507 0 L 0 0 0 72 M 0.474 72.500 C 0.474 112.100, 0.598 128.154, 0.750 108.176 C 0.901 88.198, 0.901 55.798, 0.750 36.176 C 0.598 16.554, 0.474 32.900, 0.474 72.500 M 140 41.345 C 140 42.085, 139.100 43.505, 138 44.500 C 135.840 46.455, 135.398 48, 137 48 C 137.550 48, 138 47.325, 138 46.500 C 138 45.675, 138.378 45, 138.839 45 C 139.301 45, 140.192 43.875, 140.818 42.500 C 141.511 40.979, 141.574 40, 140.979 40 C 140.440 40, 140 40.605, 140 41.345 M 142.500 46 C 142.160 46.550, 142.332 47, 142.882 47 C 143.432 47, 144.160 46.550, 144.500 46 C 144.840 45.450, 144.668 45, 144.118 45 C 143.568 45, 142.840 45.450, 142.500 46 M 169.339 46.687 C 168.983 47.684, 168.509 48.837, 168.287 49.250 C 168.064 49.663, 168.250 50, 168.700 50 C 170.117 50, 172.053 46.151, 170.972 45.483 C 170.430 45.148, 169.695 45.689, 169.339 46.687 M 148.872 47.750 C 147.603 49.369, 147.650 49.390, 149.500 48.033 C 150.600 47.226, 151.688 46.439, 151.917 46.283 C 152.146 46.127, 151.863 46, 151.289 46 C 150.715 46, 149.627 46.788, 148.872 47.750 M 143 60.059 C 143 60.641, 143.450 60.840, 144 60.500 C 144.550 60.160, 145 59.684, 145 59.441 C 145 59.198, 144.550 59, 144 59 C 143.450 59, 143 59.477, 143 60.059 M 169.158 69 C 169.158 70.375, 169.385 70.938, 169.662 70.250 C 169.940 69.563, 169.940 68.438, 169.662 67.750 C 169.385 67.063, 169.158 67.625, 169.158 69 M 140.500 69 C 138.824 69.720, 139.026 69.871, 141.750 69.930 C 143.537 69.968, 145 69.550, 145 69 C 145 67.813, 143.263 67.813, 140.500 69 M 149 71 C 149 71.550, 149.702 72, 150.559 72 C 151.416 72, 151.840 71.550, 151.500 71 C 151.160 70.450, 150.459 70, 149.941 70 C 149.423 70, 149 70.450, 149 71 M 132.559 85.532 C 130.697 86.940, 130.728 87, 133.309 87 C 135.034 87, 136 86.462, 136 85.500 C 136 83.634, 135.057 83.642, 132.559 85.532 M 126.727 91.250 C 127.387 96.875, 128.007 99, 128.991 99 C 130.018 99, 129.683 92.616, 128.505 89.750 C 127.333 86.897, 126.317 87.753, 126.727 91.250 M 148.500 92.055 C 146.850 93.179, 142.800 95.352, 139.500 96.885 C 134.836 99.052, 133.241 100.376, 132.338 102.832 C 130.458 107.946, 132.546 107.592, 140.058 101.523 C 143.898 98.420, 148.494 95.206, 150.270 94.381 C 152.047 93.555, 154.625 92.239, 156 91.455 L 158.500 90.029 155 90.021 C 153.075 90.017, 150.150 90.932, 148.500 92.055 M 180.630 108.981 C 177.130 112.548, 177.553 116.599, 181.528 117.596 C 184.787 118.414, 187 116.505, 187 112.878 C 187 110.667, 187.463 110, 189 110 C 191.267 110, 191.563 108.963, 189.800 107.200 C 187.718 105.118, 183.644 105.909, 180.630 108.981 M 127.500 108 C 127.160 108.550, 127.359 109, 127.941 109 C 128.523 109, 129 108.550, 129 108 C 129 107.450, 128.802 107, 128.559 107 C 128.316 107, 127.840 107.450, 127.500 108 M 103.053 120.721 C 101.157 120.960, 99.105 121.842, 98.493 122.679 C 97.709 123.751, 94.879 124.356, 88.939 124.720 C 76.822 125.464, 73.457 125.386, 64.620 124.161 C 58.287 123.282, 56.366 123.331, 54.830 124.407 C 52.666 125.922, 44.889 125.533, 41.185 123.723 C 38.429 122.377, 37.040 123.885, 37.015 128.250 C 37.007 129.762, 36.566 131, 36.035 131 C 34.579 131, 33.334 133.963, 32.567 139.250 L 31.877 144 69.439 144 L 107 144 107 140.950 C 107 139.273, 107.742 136.465, 108.650 134.710 C 109.557 132.956, 110.345 129.041, 110.400 126.010 C 110.510 119.942, 110.319 119.804, 103.053 120.721 M 14.665 137.693 C 14.386 138.687, 13.868 140.512, 13.512 141.750 C 12.961 143.667, 13.245 144, 15.433 144 C 17.464 144, 18.031 143.479, 18.150 141.500 C 18.233 140.125, 18.345 138.444, 18.400 137.764 C 18.562 135.764, 15.223 135.701, 14.665 137.693" stroke="none" fill="black" fill-rule="evenodd"/>
</svg>