<svg xmlns="http://www.w3.org/2000/svg" width="192" height="144" viewBox="0 0 192 144" version="1.1">
	<path d="M 120.083 2.717 C 120.651 4.212, 121.590 6.006, 122.170 6.705 C 122.930 7.621, 122.844 8.098, 121.863 8.411 C 121.113 8.649, 118.170 9.580, 115.322 10.479 C 105.469 13.588, 96.673 22.179, 93.555 31.738 C 92.616 34.619, 91.431 37.233, 90.924 37.547 C 90.416 37.861, 90 38.568, 90 39.118 C 90 39.668, 90.450 39.840, 91 39.500 C 91.604 39.127, 92 40.486, 92 42.930 C 92 47.657, 94.585 51.333, 101.412 56.315 C 103.309 57.699, 103.197 58.862, 100.856 62.100 C 99.931 63.379, 100.130 64.130, 101.850 65.850 C 103.032 67.032, 104 68.645, 104 69.433 C 104 70.221, 104.900 71.151, 106 71.500 C 107.100 71.849, 108 72.857, 108 73.739 C 108 74.621, 108.705 76.122, 109.568 77.075 C 111.186 78.863, 113.277 87.364, 114.493 97.100 C 115.056 101.602, 114.871 102.986, 113.527 104.330 C 111.977 105.880, 111.712 105.806, 109.612 103.246 C 104.675 97.226, 102 90.934, 102 85.342 C 102 79.698, 100.131 73.817, 97.900 72.438 C 97.182 71.994, 94.168 71.559, 91.202 71.471 C 87.808 71.369, 85.480 70.789, 84.920 69.905 C 84.226 68.808, 84.018 68.939, 83.974 70.500 C 83.935 71.894, 82.414 73.205, 78.952 74.829 C 76.220 76.111, 73.474 78.114, 72.850 79.281 C 71.182 82.397, 71.509 90.878, 73.484 95.737 C 75.048 99.583, 80.151 105.216, 82.902 106.134 C 83.632 106.378, 83.353 108.197, 82.068 111.579 C 81.006 114.373, 79.654 121.348, 79.062 127.079 C 78.469 132.811, 77.743 138.963, 77.447 140.750 L 76.909 144 89.769 144 L 102.630 144 104.546 140.250 L 106.463 136.500 106.792 140.250 L 107.121 144 141.526 144 C 171.797 144, 176.359 143.796, 179.485 142.306 C 181.439 141.374, 182.863 140.137, 182.649 139.556 C 182.436 138.975, 182.947 137.713, 183.785 136.750 C 185.180 135.149, 185.116 135, 183.032 135 C 181.779 135, 178.093 136.463, 174.841 138.250 C 169.797 141.022, 168.788 141.280, 167.979 140 C 167.457 139.175, 167.024 137.705, 167.015 136.734 C 167.007 135.763, 165.425 128.876, 163.500 121.430 C 161.575 113.985, 160 107.401, 160 106.800 C 160 105.200, 164.685 110.523, 167.047 114.808 L 169.082 118.500 168.470 111.147 C 167.998 105.474, 168.139 103.968, 169.085 104.553 C 170.008 105.123, 170.143 104.467, 169.630 101.905 C 167.242 89.995, 168.013 87.878, 171.416 97 C 173.078 101.456, 177.833 108.495, 176.591 104.663 C 176.264 103.652, 175.743 100.952, 175.434 98.663 L 174.872 94.500 177.278 98.259 C 180.900 103.917, 181.282 103.944, 180.600 98.500 C 180.255 95.750, 179.546 84.950, 179.024 74.500 C 178.502 64.050, 177.331 51.919, 176.422 47.543 C 174.165 36.682, 166.451 15.280, 163.308 11.160 C 160.476 7.446, 155.646 5, 151.147 5 C 149.139 5, 147.720 4.221, 146.592 2.500 C 144.984 0.046, 144.714 0, 132.002 0 L 119.050 0 120.083 2.717" stroke="none" fill="black" fill-rule="evenodd"/>
</svg>