<svg xmlns="http://www.w3.org/2000/svg" width="192" height="144" viewBox="0 0 192 144" version="1.1">
	<path d="M 0 72 L 0 144 2.877 144 C 5.559 144, 5.856 143.593, 7.268 137.989 C 8.653 132.490, 8.643 131.900, 7.145 131.061 C 5.679 130.241, 5.658 129.795, 6.940 126.822 C 7.728 124.995, 8.438 121.475, 8.517 119 C 8.595 116.525, 9.718 112.250, 11.010 109.500 C 12.616 106.084, 13.328 102.846, 13.258 99.280 L 13.155 94.061 20.148 90.563 C 23.993 88.639, 28.689 86.774, 30.581 86.419 C 35.349 85.524, 35.699 84.287, 31.511 83.131 C 28.712 82.358, 26.618 82.586, 21.497 84.221 L 15.023 86.288 11.027 83.519 C 7.218 80.879, 6.915 80.826, 4.551 82.375 C 0.860 84.793, 0.307 84.347, 3.152 81.250 C 7.454 76.567, 9.760 72.657, 12.937 64.657 C 14.622 60.417, 15.994 56.622, 15.986 56.224 C 15.978 55.826, 13.053 54.182, 9.486 52.572 C 4.549 50.343, 2.997 49.149, 2.986 47.572 C 2.979 46.432, 2.701 44.487, 2.370 43.250 C 1.920 41.571, 2.193 41, 3.445 41 C 4.369 41, 7.299 40.289, 9.957 39.419 L 14.790 37.839 15.480 32.169 C 17.202 18.022, 25.219 9.029, 36.130 9.006 C 38.029 9.002, 39.782 7.751, 42.446 4.500 L 46.134 0 23.067 0 L 0 0 0 72 M 53.575 3.744 C 54.459 5.810, 55.395 8.012, 55.655 8.638 C 55.915 9.264, 58.237 10.362, 60.814 11.077 C 71.079 13.928, 81.319 28.586, 79.520 37.852 C 78.289 44.197, 78.341 46.422, 79.794 49.402 C 81.045 51.969, 81.023 52.408, 79.604 53.202 C 77.259 54.514, 77.488 63.075, 80 68 C 82.106 72.129, 82.696 76.548, 81 75.500 C 80.450 75.160, 80 75.835, 80 77 C 80 78.165, 79.623 78.885, 79.162 78.600 C 77.424 77.526, 78.024 86.376, 79.905 89.564 C 81.172 91.710, 81.475 93.125, 80.811 93.789 C 80.148 94.452, 80.310 95.575, 81.295 97.143 C 82.110 98.439, 83.312 101.188, 83.966 103.250 C 84.807 105.901, 85.729 107, 87.112 107 C 88.880 107, 89.005 107.479, 88.410 111.965 C 87.790 116.638, 87.906 117, 90.376 118.125 C 93.104 119.369, 93.798 121.389, 91.899 122.562 C 90.339 123.527, 91.331 127.331, 95.467 136.250 L 99.061 144 145.532 144 L 192.003 144 191.986 72.027 L 191.970 0.054 121.969 0.021 L 51.968 -0.013 53.575 3.744 M 98.500 88 C 98.840 88.550, 99.316 89, 99.559 89 C 99.802 89, 100 88.550, 100 88 C 100 87.450, 99.523 87, 98.941 87 C 98.359 87, 98.160 87.450, 98.500 88 M 26.250 134.662 C 25.515 134.959, 25 136.986, 25 139.583 C 25 143.684, 25.188 144, 27.625 144 C 30.032 144, 30.198 143.740, 29.625 140.875 C 29.281 139.156, 29 136.906, 29 135.875 C 29 133.974, 28.501 133.754, 26.250 134.662" stroke="none" fill="black" fill-rule="evenodd"/>
</svg>