<svg xmlns="http://www.w3.org/2000/svg" width="192" height="144" viewBox="0 0 192 144" version="1.1">
	<path d="M 149.846 3.959 C 148.761 6.542, 148.560 8.020, 149.262 8.254 C 150.010 8.503, 149.981 9.616, 149.166 11.954 C 147.529 16.649, 147.708 20.220, 149.892 26.433 C 151.668 31.485, 151.687 32.163, 150.209 37.474 C 148.771 42.639, 147.677 44.049, 137.641 53.666 C 131.594 59.460, 125.264 64.769, 123.574 65.463 C 118.833 67.410, 110.395 70, 108.790 70 C 106.663 70, 102.657 74.664, 103.314 76.376 C 103.626 77.189, 103.345 78.298, 102.691 78.841 C 101.058 80.195, 97.043 76.614, 94.307 71.365 C 92.529 67.953, 92.314 66.548, 93.063 63.217 C 93.840 59.755, 93.608 58.550, 91.398 54.596 C 89.052 50.400, 86.184 48.532, 85.875 51 C 85.806 51.550, 85.694 52.413, 85.625 52.917 C 85.355 54.899, 84.055 55.080, 81.093 53.548 C 77.755 51.822, 77.390 52.051, 79.105 54.796 C 80.007 56.241, 79.642 57.172, 77.105 59.888 C 74.489 62.688, 74 63.999, 74 68.211 C 74 70.961, 74.715 75.969, 75.588 79.340 C 76.519 82.932, 76.965 87.433, 76.666 90.215 C 76.195 94.591, 78.226 109.938, 79.561 112.099 C 79.879 112.613, 80.557 112.774, 81.069 112.457 C 81.581 112.141, 82 112.534, 82 113.330 C 82 115.725, 85.378 114.693, 87.250 111.726 C 88.212 110.200, 89.007 108.400, 89.015 107.726 C 89.024 107.052, 89.474 105.825, 90.015 105 C 90.881 103.681, 91.114 103.678, 91.949 104.976 C 92.725 106.183, 93.069 106.001, 93.841 103.976 L 94.785 101.500 95.489 104.500 C 95.877 106.150, 96.615 109.075, 97.129 111 C 97.644 112.925, 98.303 120.125, 98.594 127 C 98.886 133.875, 99.324 140.490, 99.569 141.701 L 100.013 143.901 146.043 143.959 L 192.073 144.016 191.899 72.008 L 191.726 0 171.613 0.010 L 151.500 0.020 149.846 3.959 M 145.756 73.277 C 142.596 75.600, 138.722 79.554, 137.146 82.064 C 135.569 84.574, 131.748 88.849, 128.653 91.564 C 125.558 94.279, 123.020 96.785, 123.013 97.133 C 122.999 97.826, 140.133 110.254, 140.460 109.788 C 140.571 109.629, 142.966 102.300, 145.781 93.500 C 151.252 76.402, 153.180 68.983, 152.144 69.027 C 151.790 69.042, 148.915 70.954, 145.756 73.277" stroke="none" fill="black" fill-rule="evenodd"/>
</svg>