<svg xmlns="http://www.w3.org/2000/svg" width="192" height="144" viewBox="0 0 192 144" version="1.1">
	<path d="M 10.500 3.716 C 8.850 5.760, 5.813 10.148, 3.751 13.466 L 0.001 19.500 0.003 72.500 L 0.005 125.500 4.752 132.596 C 11.902 143.280, 12.691 144.211, 14.293 143.841 C 15.516 143.559, 15.365 142.637, 13.421 138.500 C 12.129 135.750, 11.055 132.764, 11.036 131.864 C 11.016 130.965, 10.328 128.940, 9.506 127.364 C 7.738 123.975, 7.555 114.791, 9.089 106.434 C 10.131 100.755, 13.658 91.051, 15.063 90 C 15.430 89.725, 16.013 88.600, 16.359 87.500 C 16.897 85.789, 19.416 82.306, 22.868 78.500 C 25.703 75.374, 37.090 67, 38.506 67 C 39.121 67, 41.396 66.150, 43.562 65.111 C 58.608 57.894, 80.766 61.101, 95.955 72.693 C 108.298 82.113, 122.818 86.035, 138.501 84.185 C 145.631 83.344, 152.600 81.450, 154 79.972 C 154.275 79.682, 156.350 78.630, 158.610 77.634 C 164.348 75.105, 178 61.358, 178 58.108 C 178 57.553, 178.585 56.740, 179.300 56.300 C 180.014 55.860, 181.414 52.575, 182.410 49 C 183.406 45.425, 184.689 41.503, 185.261 40.285 C 187.973 34.506, 182.477 3, 178.756 3 C 178.340 3, 178.007 2.438, 178.016 1.750 C 178.038 0.012, 183.527 6.328, 188.146 13.405 L 192 19.310 192.239 72.405 L 192.479 125.500 192.801 81 C 192.978 56.525, 192.821 28.288, 192.453 18.250 L 191.783 0 102.642 0 L 13.500 0 10.500 3.716 M 0.466 72.500 C 0.466 102.200, 0.594 114.206, 0.749 99.179 C 0.905 84.153, 0.905 59.853, 0.749 45.179 C 0.593 30.506, 0.466 42.800, 0.466 72.500 M 124.502 20.575 C 116.952 24.512, 114.946 29.679, 118.110 37.034 C 119.705 40.742, 121.008 42.151, 124.154 43.570 C 127.315 44.995, 128.556 45.134, 130.011 44.225 C 131.289 43.427, 131.967 43.400, 132.213 44.139 C 132.408 44.725, 134.016 43.854, 135.784 42.202 C 137.553 40.549, 139.032 39.491, 139.070 39.849 C 139.328 42.240, 140.873 35.626, 140.930 31.885 C 141.009 26.692, 138.716 22.939, 133.961 20.480 C 130.328 18.601, 128.249 18.622, 124.502 20.575 M 55.500 98.540 C 53.850 99.362, 51.487 101.595, 50.250 103.503 C 44.471 112.413, 50.560 124.102, 62.069 126.194 C 68.342 127.334, 71.237 126.038, 75.800 120.047 C 78.786 116.126, 79.114 115.111, 78.552 111.547 C 76.754 100.162, 65.261 93.677, 55.500 98.540 M 185.389 134.980 L 179.278 143.500 185.255 143.801 C 188.542 143.966, 191.423 143.910, 191.657 143.677 C 191.890 143.443, 191.951 139.474, 191.791 134.856 L 191.500 126.460 185.389 134.980" stroke="none" fill="black" fill-rule="evenodd"/>
</svg>