<svg xmlns="http://www.w3.org/2000/svg" width="192" height="144" viewBox="0 0 192 144" version="1.1">
	<path d="M 0 2.969 C 0 6.402, 1.579 6.243, 6.327 2.330 L 9.153 0 4.577 0 C 0.169 0, 0 0.110, 0 2.969 M 0.136 30.450 C 0.035 36.344, 0.291 38.109, 1.126 37.274 C 1.938 36.462, 1.976 34.242, 1.262 29.324 L 0.272 22.500 0.136 30.450 M 97.966 61.250 C 93.522 64.253, 89.729 72.046, 89.187 79.288 C 88.797 84.504, 88.460 85.228, 85.776 86.616 C 82.954 88.075, 82.716 88.040, 81.241 85.934 L 79.685 83.711 56.092 84.376 C 43.117 84.742, 29.350 85.467, 25.500 85.988 C 21.650 86.509, 17.790 86.949, 16.921 86.967 C 13.989 87.028, 6.537 81.214, 5.184 77.810 C 4.460 75.990, 3.234 73.045, 2.459 71.268 C 1.683 69.490, 1.294 67.398, 1.593 66.619 C 1.892 65.840, 1.656 64.905, 1.068 64.542 C 0.317 64.078, 0 75.785, 0 103.941 L 0 144 46 144 C 91.643 144, 92 143.984, 92 141.959 C 92 140.836, 90.840 132.246, 89.423 122.869 C 88.005 113.493, 87.107 105.560, 87.427 105.240 C 87.747 104.920, 90.291 105.185, 93.080 105.829 C 95.870 106.473, 101.178 107, 104.876 107 C 111.236 107, 111.926 106.763, 117.628 102.614 C 125.140 97.147, 128 91.385, 128 81.715 C 128 76.141, 127.597 74.744, 124.928 71.059 C 123.184 68.652, 122.110 66.157, 122.443 65.289 C 122.892 64.117, 122.520 63.892, 120.849 64.329 C 119.524 64.676, 117.614 64.149, 115.984 62.989 C 113.464 61.194, 106.482 59.079, 102.898 59.024 C 102.017 59.011, 99.797 60.013, 97.966 61.250" stroke="none" fill="black" fill-rule="evenodd"/>
</svg>