<svg xmlns="http://www.w3.org/2000/svg" width="192" height="144" viewBox="0 0 192 144" version="1.1">
	<path d="M 0 22.800 C 0 39.667, 0.325 45.945, 1.250 46.925 C 2.250 47.985, 2.250 48.342, 1.250 48.708 C 0.274 49.066, -0 59.561, -0 96.583 L 0 144 42 144 C 71.879 144, 84 143.683, 84 142.900 C 84 141.057, 77.326 135, 75.294 135 C 74.246 135, 71.864 133.875, 70 132.500 C 68.136 131.125, 66.024 130, 65.306 130 C 63.440 130, 63.693 128.271, 65.725 127.134 C 66.674 126.603, 67.461 125.156, 67.475 123.917 C 67.494 122.162, 69.520 120.437, 76.675 116.083 C 87.763 109.336, 91.742 105.969, 95.888 99.823 C 98.951 95.283, 99.001 95.036, 97.604 91.323 C 96.812 89.221, 95.897 85.215, 95.571 82.423 C 95.021 77.722, 95.274 76.886, 98.988 71.139 C 102.486 65.728, 103 64.196, 103 59.182 C 103 53.853, 102.780 53.301, 100 51.659 C 97.153 49.977, 96.006 46.733, 97.854 45.590 C 98.324 45.300, 98.994 42.327, 99.344 38.985 C 99.693 35.643, 100.462 32.004, 101.053 30.900 C 102.535 28.132, 107.936 25.008, 111.250 25.004 C 112.763 25.002, 114 24.445, 114 23.766 C 114 23.088, 115.402 19.713, 117.116 16.266 C 119.879 10.711, 120.565 10, 123.165 10 C 125.646 10, 126.395 9.345, 128.027 5.750 C 129.088 3.412, 129.966 2.092, 129.978 2.816 C 129.990 3.539, 129.473 5.114, 128.828 6.316 C 128.184 7.517, 127.752 10.365, 127.869 12.645 C 128.044 16.055, 127.621 17.153, 125.489 18.830 C 124.063 19.951, 122.901 21.115, 122.905 21.416 C 122.909 21.717, 122.247 23.557, 121.434 25.505 C 120.354 28.089, 120.234 29.569, 120.992 30.984 C 121.562 32.051, 121.885 35.396, 121.708 38.418 C 121.436 43.078, 120.902 44.377, 118.194 46.965 C 116.437 48.644, 115 50.514, 115 51.121 C 115 51.729, 117.025 54.919, 119.500 58.212 C 121.975 61.504, 124 64.819, 124 65.579 C 124 66.338, 123.276 68.769, 122.391 70.981 C 120.887 74.740, 120.881 76.111, 122.329 84.500 C 122.614 86.150, 123.581 91.775, 124.479 97 C 126.560 109.108, 128.260 115.873, 132.599 129.319 C 134.554 135.377, 135.819 140.994, 135.473 142.084 C 134.870 143.986, 135.513 144.025, 163.678 143.765 L 192.500 143.500 192.729 71.750 L 192.958 0 96.479 0 L 0 0 0 22.800 M 0.429 23.500 C 0.429 36.150, 0.573 41.187, 0.747 34.694 C 0.922 28.200, 0.921 17.850, 0.746 11.694 C 0.571 5.537, 0.428 10.850, 0.429 23.500 M 14.500 38 C 14.160 38.550, 14.359 39, 14.941 39 C 15.523 39, 16 38.550, 16 38 C 16 37.450, 15.802 37, 15.559 37 C 15.316 37, 14.840 37.450, 14.500 38 M 0.462 96.500 C 0.463 122.900, 0.592 133.556, 0.749 120.181 C 0.907 106.805, 0.907 85.205, 0.749 72.181 C 0.591 59.156, 0.462 70.100, 0.462 96.500 M 179.079 70.583 C 179.127 71.748, 179.364 71.985, 179.683 71.188 C 179.972 70.466, 179.936 69.603, 179.604 69.271 C 179.272 68.939, 179.036 69.529, 179.079 70.583 M 102.431 79.111 C 102.145 79.575, 102.426 81.869, 103.057 84.211 L 104.203 88.468 106.101 86.123 C 108.874 82.699, 108.589 79.346, 105.476 78.751 C 104.088 78.485, 102.718 78.647, 102.431 79.111 M 53.510 91.016 C 53.856 91.575, 54.557 91.774, 55.069 91.457 C 56.456 90.600, 56.198 90, 54.441 90 C 53.584 90, 53.165 90.457, 53.510 91.016 M 26.079 102.583 C 26.127 103.748, 26.364 103.985, 26.683 103.188 C 26.972 102.466, 26.936 101.603, 26.604 101.271 C 26.272 100.939, 26.036 101.529, 26.079 102.583 M 36.500 104 C 36.160 104.550, 36.332 105, 36.882 105 C 37.432 105, 38.160 104.550, 38.500 104 C 38.840 103.450, 38.668 103, 38.118 103 C 37.568 103, 36.840 103.450, 36.500 104" stroke="none" fill="black" fill-rule="evenodd"/>
</svg>