<svg xmlns="http://www.w3.org/2000/svg" width="192" height="144" viewBox="0 0 192 144" version="1.1">
	<path d="M -0 72.005 L -0 144.010 96.250 143.755 L 192.500 143.500 192.757 71.750 L 193.013 0 163.257 0 L 133.500 0 133.476 8.250 C 133.405 32.660, 117.845 52.117, 93.279 58.516 C 82.391 61.351, 72.830 60.025, 60.243 53.933 C 51.110 49.512, 42.393 41.651, 38.787 34.583 C 33.709 24.629, 32 18.181, 32 8.977 L 32 0 16 0 L 0 0 -0 72.005 M 0.474 72.500 C 0.474 112.100, 0.598 128.154, 0.750 108.176 C 0.901 88.198, 0.901 55.798, 0.750 36.176 C 0.598 16.554, 0.474 32.900, 0.474 72.500" stroke="none" fill="black" fill-rule="evenodd"/>
</svg>