<svg xmlns="http://www.w3.org/2000/svg" width="192" height="144" viewBox="0 0 192 144" version="1.1">
	<path d="M -0 72.005 L -0 144.010 96.250 143.755 L 192.500 143.500 192.757 71.750 L 193.013 0 96.507 0 L 0 0 -0 72.005 M 0.474 72.500 C 0.474 112.100, 0.598 128.154, 0.750 108.176 C 0.901 88.198, 0.901 55.798, 0.750 36.176 C 0.598 16.554, 0.474 32.900, 0.474 72.500 M 158.750 57.689 C 157.439 58.032, 156.996 59.195, 156.985 62.323 C 156.957 69.914, 159.516 69.430, 115.787 70.121 C 94.179 70.463, 76.388 70.800, 76.250 70.871 C 74.724 71.658, 77.415 73.225, 84.250 75.531 C 92.450 78.298, 92.692 78.317, 123.978 78.719 C 141.291 78.941, 155.673 79.340, 155.938 79.604 C 156.202 79.869, 156.290 81.864, 156.133 84.038 C 155.879 87.552, 156.155 88.108, 158.608 89.041 C 163.826 91.025, 165.445 90.043, 166 84.558 C 166.471 79.898, 166.700 79.564, 170 78.699 C 171.925 78.195, 177.662 77.994, 182.750 78.252 L 192 78.721 192 73.441 L 192 68.161 188.250 69.201 C 183.390 70.550, 168.012 69.637, 166.962 67.939 C 166.531 67.242, 166.422 65.174, 166.719 63.344 C 167.578 58.051, 164.830 56.101, 158.750 57.689" stroke="none" fill="black" fill-rule="evenodd"/>
</svg>