<svg xmlns="http://www.w3.org/2000/svg" width="192" height="144" viewBox="0 0 192 144" version="1.1">
	<path d="M 0 72 L 0 144 35.961 144 L 71.923 144 73.015 139.750 C 74.683 133.256, 78.879 118.478, 79.554 116.721 C 79.975 115.622, 79.464 115.061, 77.826 114.830 C 74.518 114.361, 74.825 111.001, 79.547 96 C 84.863 79.113, 87.698 61, 85.026 61 C 83.534 61, 79.685 52.263, 80.380 50.452 C 80.782 49.404, 82.885 49.074, 88.709 49.142 C 92.994 49.192, 99.482 48.909, 103.127 48.513 C 107.536 48.034, 109.978 48.155, 110.422 48.874 C 111.310 50.311, 109.314 57.543, 107.539 59.318 C 105.567 61.290, 104.461 72.124, 105.947 74.901 C 106.592 76.107, 107.536 79.650, 108.045 82.776 C 108.837 87.640, 110.424 93.463, 115.010 108.323 C 116.070 111.756, 115.420 113.732, 112.977 114.507 C 111.203 115.070, 111.200 115.271, 112.912 120.295 C 113.888 123.158, 115.708 129.668, 116.958 134.762 L 119.230 144.024 155.865 143.762 L 192.500 143.500 192.757 71.750 L 193.013 0 96.507 0 L 0 0 0 72 M 0.474 72.500 C 0.474 112.100, 0.598 128.154, 0.750 108.176 C 0.901 88.198, 0.901 55.798, 0.750 36.176 C 0.598 16.554, 0.474 32.900, 0.474 72.500" stroke="none" fill="black" fill-rule="evenodd"/>
</svg>