<svg xmlns="http://www.w3.org/2000/svg" width="192" height="144" viewBox="0 0 192 144" version="1.1">
	<path d="M 0 38 C 0 58.900, 0.256 76, 0.570 76 C 1.693 76, 9.631 70.137, 14.799 65.490 L 20.065 60.756 26.283 63.492 C 29.702 64.996, 35.425 67.861, 39 69.859 C 42.575 71.856, 46.789 74.055, 48.365 74.745 C 51.417 76.082, 59.862 76.267, 64 75.088 C 65.375 74.696, 67.983 74.823, 69.796 75.370 C 72.984 76.331, 73.281 76.165, 78.796 70.341 C 81.933 67.028, 85.974 63.737, 87.776 63.027 C 90.454 61.971, 90.931 61.350, 90.391 59.618 C 89.445 56.585, 87.565 55.652, 87.180 58.026 C 86.785 60.468, 85.026 60.643, 84.930 58.250 C 84.868 56.719, 84.765 56.742, 84.105 58.427 C 83.404 60.215, 83.301 60.227, 82.675 58.595 C 82.304 57.628, 82 56.043, 82 55.073 C 82 54.103, 81.100 52.495, 80 51.500 C 78.900 50.505, 78 50.017, 78 50.416 C 78 50.816, 77.310 50.453, 76.467 49.610 C 75.209 48.352, 75.157 47.721, 76.179 46.084 C 77.562 43.870, 76.574 42.026, 74.901 43.699 C 74.147 44.453, 72.934 44.315, 70.751 43.226 C 67.757 41.732, 67.723 41.640, 69.584 40.056 C 74.655 35.738, 75.309 34.229, 75.129 27.254 C 74.995 22.056, 75.410 19.764, 76.930 17.304 C 80.250 11.931, 82.562 11.053, 94.842 10.497 C 107.845 9.908, 111.205 10.857, 115.596 16.360 C 117.777 19.094, 118.960 19.797, 120.659 19.371 C 123.216 18.729, 128.074 21.287, 129.923 24.248 C 130.615 25.356, 131.734 28.393, 132.409 30.997 C 133.477 35.115, 133.421 35.997, 131.975 37.783 C 130.422 39.700, 130.434 40.313, 132.152 47.078 C 134.102 54.756, 133.739 58.409, 130.296 65.750 C 128.513 69.553, 127.755 69.727, 125.152 66.933 C 121.956 63.503, 119.756 53.795, 120.531 46.551 C 121.278 39.584, 119.874 36.988, 117.810 41.518 C 116.939 43.430, 116.907 44.622, 117.694 45.882 C 118.486 47.149, 118.442 48.240, 117.531 49.943 C 116.686 51.522, 116.050 51.890, 115.553 51.087 C 114.538 49.443, 112.379 51.355, 111.558 54.626 C 111.206 56.026, 110.037 58.117, 108.960 59.274 L 107 61.377 107 58.034 C 107 54.729, 106.976 54.712, 104.956 56.540 C 102.067 59.154, 102.893 62.106, 107.185 64.508 C 109.211 65.642, 112.776 68.913, 115.105 71.778 C 119.145 76.743, 119.555 76.979, 123.921 76.858 C 126.439 76.787, 130.714 77.260, 133.420 77.907 C 139.323 79.320, 142.582 78.716, 150.479 74.746 C 153.767 73.093, 160.025 70.236, 164.385 68.397 L 172.313 65.053 178.939 71.303 C 182.583 74.741, 186.951 78.541, 188.646 79.748 L 191.728 81.943 192.355 76.721 C 192.700 73.850, 192.987 55.413, 192.991 35.750 L 193 0 96.500 0 L 0 0 0 38 M 0.454 38.500 C 0.453 59.400, 0.586 68.092, 0.748 57.816 C 0.911 47.540, 0.911 30.440, 0.749 19.816 C 0.587 9.192, 0.454 17.600, 0.454 38.500 M 18.655 67.829 C 16.514 70.194, 16.492 70.086, 20 74.500 C 22.875 78.118, 23 78.685, 23 88.138 C 23 93.562, 22.643 98, 22.206 98 C 21.769 98, 19.458 94.015, 17.071 89.145 C 13.874 82.623, 12.852 79.461, 13.192 77.145 C 13.446 75.415, 13.468 74, 13.240 74 C 12.615 74, 4 80.280, 4 80.736 C 4 80.955, 5.093 82.566, 6.428 84.317 C 8.604 87.169, 8.861 88.513, 8.909 97.250 C 8.939 102.898, 8.555 107, 7.995 107 C 7.463 107, 5.469 103.962, 3.563 100.250 L 0.098 93.500 0.049 118.750 L 0 144 35.307 144 L 70.614 144 72.464 136.750 C 73.482 132.762, 75.294 127.250, 76.490 124.500 C 78.873 119.024, 80.685 104, 78.962 104 C 78.406 104, 77.555 105.013, 77.072 106.250 C 74.072 113.936, 44.741 131.047, 34.686 130.978 C 31.013 130.953, 23 127.590, 23 126.074 C 23 125.478, 24.209 125.292, 25.890 125.628 C 29.146 126.279, 40 123.467, 40 121.972 C 40 121.437, 39.063 121, 37.917 121 C 36.689 121, 36.009 120.487, 36.260 119.750 C 36.543 118.922, 38.878 118.500, 43.169 118.500 L 49.651 118.500 57.917 111.749 C 62.463 108.035, 66.824 104.638, 67.607 104.200 C 69.727 103.014, 72.540 91.094, 71.205 88.957 C 70.509 87.842, 70.482 86.918, 71.127 86.273 C 73.034 84.366, 71 80.159, 67.835 79.464 C 63.941 78.609, 63.689 79.011, 65.458 83.245 C 66.766 86.377, 66.769 87.728, 65.478 94.649 C 63.176 106.991, 62.989 107.600, 61.991 105.985 C 61.511 105.209, 60.130 100.574, 58.922 95.686 C 56.878 87.413, 56.835 86.569, 58.298 83.501 C 59.163 81.687, 59.600 79.933, 59.269 79.602 C 58.505 78.839, 50 78.806, 50 79.566 C 50 79.877, 50.503 81.071, 51.118 82.220 C 52.375 84.570, 52.370 103.030, 51.111 104.289 C 50.006 105.394, 42.967 88.209, 42.985 84.450 C 42.993 82.772, 43.529 80.871, 44.176 80.224 C 45.605 78.795, 43.043 75.590, 38.659 73.324 C 35.111 71.489, 34.581 71.964, 36.359 75.390 C 37.335 77.273, 37.656 80.795, 37.430 87.152 C 37.253 92.142, 36.896 96.437, 36.637 96.696 C 36.379 96.954, 34.169 93.006, 31.726 87.921 C 27.750 79.644, 27.377 78.267, 28.162 74.774 C 29.197 70.167, 28.942 69.617, 24.826 67.563 C 20.887 65.598, 20.665 65.608, 18.655 67.829 M 166.668 72.110 C 164.026 73.504, 163.018 74.606, 163.423 75.659 C 165.394 80.796, 165.132 82.094, 160.429 90.472 C 157.801 95.154, 155.442 98.776, 155.187 98.521 C 154.932 98.266, 154.814 93.935, 154.925 88.897 C 155.064 82.587, 155.609 79, 156.678 77.369 C 158.615 74.413, 157.605 74.401, 152.500 77.321 C 148.511 79.603, 148.501 79.624, 148.851 85.055 C 149.158 89.816, 148.718 91.410, 145.351 97.742 C 143.233 101.724, 141.162 104.987, 140.750 104.992 C 139.265 105.008, 139.916 86.565, 141.479 84.334 C 142.841 82.389, 142.781 82.175, 140.729 81.625 C 137.698 80.812, 133 80.845, 133 81.679 C 133 82.052, 133.518 83.791, 134.151 85.542 C 135.145 88.289, 134.917 89.809, 132.490 96.613 C 130.942 100.951, 129.361 104.865, 128.977 105.312 C 128.592 105.758, 127.521 101.994, 126.598 96.948 C 125.082 88.660, 125.068 87.545, 126.460 85.421 C 128.687 82.022, 128.374 81, 125.108 81 C 122.844 81, 122.078 81.552, 121.578 83.546 C 121.226 84.946, 121.216 86.541, 121.555 87.090 C 121.895 87.639, 121.716 88.637, 121.160 89.308 C 120.574 90.013, 120.382 93.122, 120.705 96.678 L 121.262 102.828 130.881 109.416 C 138.456 114.603, 141.283 116.003, 144.185 116.002 C 148.989 115.999, 153 117.566, 153 119.444 C 153 120.360, 152.421 120.715, 151.500 120.362 C 150.675 120.045, 150 120.247, 150 120.811 C 150 122.502, 156.298 125.864, 160.818 126.587 C 164.818 127.227, 166.834 128.499, 165.678 129.655 C 165.391 129.943, 163.359 130.581, 161.163 131.075 C 156.637 132.092, 151.734 130.746, 145.364 126.738 C 143.239 125.401, 139.925 123.781, 138 123.138 C 136.075 122.495, 130.477 119.597, 125.560 116.697 C 118.177 112.343, 116.214 110.648, 114.288 106.963 L 111.955 102.500 112.359 110.500 C 112.630 115.861, 113.478 120.067, 114.928 123.249 C 116.119 125.861, 118.084 131.486, 119.296 135.749 L 121.500 143.500 156.750 143.763 L 192 144.026 192 119.813 C 192 106.496, 191.636 96.028, 191.192 96.550 C 190.747 97.073, 187.988 100.329, 185.061 103.786 C 182.134 107.244, 179.592 109.925, 179.412 109.745 C 179.232 109.565, 179.727 105.386, 180.512 100.459 C 181.793 92.428, 182.274 91.217, 185.158 88.771 C 186.927 87.270, 188.178 85.857, 187.937 85.631 C 187.697 85.406, 185.339 83.582, 182.699 81.578 L 177.897 77.935 178.542 81.374 C 179.107 84.382, 178.531 85.794, 173.943 92.656 C 171.059 96.970, 168.542 100.687, 168.350 100.917 C 167.218 102.265, 167.095 99.238, 167.947 91.002 C 168.815 82.618, 169.215 81.373, 171.955 78.546 C 175.491 74.898, 175.665 73.912, 173.171 71.655 C 170.965 69.658, 171.369 69.630, 166.668 72.110" stroke="none" fill="black" fill-rule="evenodd"/>
</svg>