<svg xmlns="http://www.w3.org/2000/svg" width="192" height="144" viewBox="0 0 192 144" version="1.1">
	<path d="M 45 2 C 45 3.100, 45.450 4, 46 4 C 46.550 4, 47 3.540, 47 2.977 C 47 2.414, 48.125 2.691, 49.500 3.592 C 51.984 5.219, 52.556 4.612, 51.393 1.582 C 51.033 0.644, 49.609 0, 47.893 0 C 45.667 0, 45 0.461, 45 2 M 97.250 23.662 C 96.478 23.974, 96 26.128, 96 29.293 C 96 38.885, 92.957 60.434, 91.436 61.610 C 90.646 62.221, 90 63.744, 90 64.994 C 90 66.245, 89.477 69.013, 88.838 71.147 C 87.946 74.123, 87.954 75.546, 88.873 77.263 C 89.856 79.099, 89.429 82.977, 86.494 98.893 C 84.527 109.559, 82.486 119.092, 81.959 120.077 C 81.431 121.062, 81 122.971, 81 124.319 C 81 125.843, 80.035 127.402, 78.450 128.441 C 76.752 129.553, 76.087 130.699, 76.459 131.869 C 76.765 132.836, 76.343 135.849, 75.519 138.564 C 74.695 141.279, 74.017 143.613, 74.011 143.750 C 74.005 143.887, 94.700 144, 120 144 L 166 144 166 137.822 C 166 134.424, 165.263 125.029, 164.363 116.945 C 162.752 102.478, 162.761 102.066, 164.918 90.873 C 167.860 75.614, 168.586 63.664, 167.050 55.819 C 166.369 52.343, 165.483 49.050, 165.081 48.500 C 164.679 47.950, 163.796 45.562, 163.118 43.193 C 162.396 40.669, 160.300 37.300, 158.057 35.057 C 154.067 31.067, 145.034 27, 140.162 27 C 138.643 27, 136.933 26.533, 136.362 25.962 C 133.067 22.667, 113.103 34.598, 114.507 39.023 C 114.823 40.018, 114.681 41.079, 114.193 41.381 C 112.673 42.320, 113.637 49.261, 115.474 50.605 C 117.083 51.781, 117.065 51.942, 115.207 53.103 C 113.473 54.186, 113.287 55.114, 113.744 60.422 C 114.370 67.691, 115.405 70, 118.035 70 C 119.116 70, 120 70.675, 120 71.500 C 120 72.325, 119.662 73.001, 119.250 73.003 C 118.838 73.005, 118.463 74.650, 118.418 76.660 C 118.360 79.284, 117.609 80.939, 115.754 82.535 C 114.333 83.757, 113.020 85.789, 112.835 87.050 C 111.918 93.323, 107.914 86.495, 104.889 73.500 C 104.249 70.750, 102.603 66.991, 101.233 65.147 C 98.768 61.830, 98.753 61.690, 99.856 51.990 C 100.469 46.598, 101.705 38.541, 102.603 34.087 C 104.600 24.175, 103.120 21.293, 97.250 23.662 M 96 82.215 C 96 82.372, 94.639 89.456, 92.976 97.958 C 91.313 106.460, 89.737 116.653, 89.475 120.610 L 88.998 127.804 91.931 128.826 C 96.198 130.314, 99.320 129.269, 98.546 126.612 C 96.990 121.273, 95 109.410, 95 105.477 C 95 98.648, 96.399 96, 100.007 96 C 101.890 96, 103.299 95.384, 103.679 94.394 C 104.501 92.251, 100.606 84.395, 98.041 83.022 C 96.918 82.421, 96 82.058, 96 82.215" stroke="none" fill="black" fill-rule="evenodd"/>
</svg>