<svg xmlns="http://www.w3.org/2000/svg" width="192" height="144" viewBox="0 0 192 144" version="1.1">
	<path d="M 0.081 72.250 C 0.151 134.353, 0.355 144.079, 1.536 141.500 C 3.177 137.916, 3.382 134.354, 1.996 133.498 C 0.830 132.777, 1.723 128.418, 3.645 125.446 C 4.376 124.316, 4.881 121.253, 4.767 118.640 C 4.653 116.028, 5.006 113.577, 5.550 113.195 C 6.095 112.813, 7.293 110.090, 8.212 107.144 C 9.497 103.029, 9.622 101.367, 8.752 99.975 C 7.245 97.561, 8.934 95.574, 15.187 92.405 C 20.391 89.768, 21.133 88.530, 17.999 87.710 C 16.641 87.355, 15.357 88.002, 14.001 89.726 L 12.003 92.266 12.624 86.327 C 13.087 81.892, 12.886 80.022, 11.831 78.944 C 10.303 77.383, 10.382 71, 11.941 70.036 C 13.558 69.037, 15 64.040, 15 59.435 C 15 55.948, 14.641 55, 13.320 55 C 12.396 55, 9.521 54.042, 6.931 52.872 C 2.264 50.763, 2.223 50.703, 2.361 46.122 C 2.488 41.914, 2.724 41.494, 5 41.437 C 6.375 41.402, 8.962 41.008, 10.750 40.562 C 13.605 39.849, 14 39.345, 14 36.413 C 14 31.122, 17.920 22.043, 22.215 17.382 C 27.383 11.776, 31.245 10.579, 41.763 11.321 C 49.695 11.881, 50.400 11.764, 54.198 9.250 C 58.151 6.634, 58.250 6.621, 59.655 8.543 C 60.443 9.619, 61.327 11.456, 61.620 12.625 C 61.914 13.793, 63.189 15.221, 64.454 15.797 C 68.373 17.583, 74.016 23.119, 76.287 27.405 C 78.078 30.787, 78.470 33.265, 78.537 41.634 C 78.598 49.336, 79.021 52.383, 80.298 54.331 C 82.137 57.139, 81.636 60, 79.305 60 C 78.121 60, 77.963 60.853, 78.514 64.250 C 79.678 71.424, 84.226 84.115, 86.676 87.027 C 89.772 90.706, 89.642 91.952, 86.473 88.975 C 84.024 86.674, 83.857 86.653, 81.069 88.300 C 77.582 90.360, 75.130 90.413, 72.582 88.485 C 71.261 87.486, 70.286 87.348, 69.449 88.042 C 68.597 88.750, 68.059 88.595, 67.648 87.526 C 67.005 85.849, 63.315 85.515, 61.078 86.931 C 59.673 87.820, 61.336 88.465, 70.500 90.582 C 74.770 91.569, 76.217 92.998, 75.568 95.585 C 74.779 98.729, 79.429 108.479, 81.724 108.491 C 83.181 108.498, 83.447 109.229, 83.204 112.556 C 82.951 116.032, 83.273 116.808, 85.454 117.975 C 87.955 119.314, 88.670 120.997, 87.313 122.354 C 85.557 124.109, 86.613 128.156, 90.806 135.736 C 93.312 140.266, 95.514 143.819, 95.700 143.633 C 96.052 143.282, 94.621 136.630, 90.510 119.500 C 86.336 102.105, 85.685 97.915, 86.959 96.643 C 87.715 95.890, 92.943 95.512, 102.303 95.535 C 116.004 95.569, 116.779 95.685, 124.500 98.843 C 128.900 100.642, 133.108 102.713, 133.852 103.445 C 134.984 104.559, 133.646 107.885, 125.602 123.952 C 120.321 134.500, 116 143.331, 116 143.577 C 116 143.823, 133.212 143.906, 154.250 143.762 L 192.500 143.500 192.757 71.750 L 193.013 0 96.507 0 L 0 0 0.081 72.250 M 0.474 72.500 C 0.474 112.100, 0.598 128.154, 0.750 108.176 C 0.901 88.198, 0.901 55.798, 0.750 36.176 C 0.598 16.554, 0.474 32.900, 0.474 72.500 M 85.815 38.136 C 84.977 38.667, 85.860 38.975, 88.250 38.985 C 90.313 38.993, 92 38.827, 92 38.617 C 92 37.750, 87.032 37.364, 85.815 38.136 M 184 59 C 184 59.550, 184.450 60, 185 60 C 185.550 60, 186 59.550, 186 59 C 186 58.450, 185.550 58, 185 58 C 184.450 58, 184 58.450, 184 59 M 173.683 94.650 C 172.618 95.715, 172.881 99, 174.031 99 C 175.510 99, 176.441 96.041, 175.316 94.916 C 174.794 94.394, 174.059 94.274, 173.683 94.650" stroke="none" fill="black" fill-rule="evenodd"/>
</svg>