<svg xmlns="http://www.w3.org/2000/svg" width="192" height="144" viewBox="0 0 192 144" version="1.1">
	<path d="M 13 4.826 C 13 7.480, 13.688 14.557, 14.530 20.551 C 15.371 26.546, 15.756 32.812, 15.385 34.475 C 13.832 41.427, 14.105 45.444, 16.244 47.122 C 18.864 49.177, 18.022 51.527, 14.336 52.452 C 11.324 53.208, 9 54.757, 9 56.009 C 9 56.429, 11.025 57.077, 13.500 57.448 C 15.975 57.819, 18 58.545, 18 59.061 C 18 59.578, 18.597 60, 19.326 60 C 20.055 60, 21.708 61.125, 23 62.500 C 25.836 65.519, 29 65.817, 29 63.065 C 29 62.001, 29.525 59.863, 30.166 58.315 C 30.808 56.767, 31.370 55.203, 31.416 54.841 C 31.462 54.478, 32.738 53.208, 34.250 52.018 C 37.836 49.197, 37.727 48, 33.883 48 C 30.414 48, 30.437 48.560, 33.472 38 C 35.358 31.437, 34.346 27.749, 30.739 28.041 C 29.508 28.140, 28.151 28.172, 27.724 28.111 C 26.224 27.897, 30.341 21.438, 35.636 15.700 C 40.810 10.092, 42.835 6.160, 41.589 4.144 C 41.259 3.610, 39.194 2.871, 37 2.500 C 34.806 2.129, 32.757 1.415, 32.446 0.913 C 32.136 0.411, 27.634 0, 22.441 0 L 13 0 13 4.826 M 96 72 L 96 144 129.422 144 L 162.845 144 163.986 140.543 C 165.574 135.731, 167.013 120.688, 165.988 119.621 C 165.509 119.123, 163.954 119.677, 162.399 120.901 C 159.196 123.420, 158.040 122.457, 158.015 117.250 C 158.002 114.493, 157.637 114, 155.607 114 C 154.291 114, 152.945 113.300, 152.617 112.444 C 151.742 110.165, 154.519 104.252, 157.984 101.015 C 160.918 98.274, 161.655 95.508, 161.118 89.252 C 160.970 87.524, 161.802 86.624, 164.712 85.363 C 166.796 84.461, 169.470 83.282, 170.655 82.743 C 173.234 81.571, 175.187 82.545, 174.856 84.839 C 174.724 85.752, 174.951 87.490, 175.360 88.700 C 175.823 90.072, 175.519 92.030, 174.552 93.900 C 173.698 95.551, 173 97.081, 173 97.302 C 173 98.405, 179.649 104.466, 180.877 104.482 C 181.656 104.492, 182.893 106.228, 183.626 108.340 C 185.206 112.895, 183.854 116.482, 179.311 119.792 L 176.567 121.791 179.283 131.196 C 180.778 136.369, 182 141.366, 182 142.301 C 182 143.673, 182.962 144, 187 144 L 192 144 192 72 L 192 0 144 0 L 96 0 96 72 M 179.079 107.583 C 179.127 108.748, 179.364 108.985, 179.683 108.188 C 179.972 107.466, 179.936 106.603, 179.604 106.271 C 179.272 105.939, 179.036 106.529, 179.079 107.583" stroke="none" fill="black" fill-rule="evenodd"/>
</svg>