<svg xmlns="http://www.w3.org/2000/svg" width="192" height="144" viewBox="0 0 192 144" version="1.1">
	<path d="M 80.387 19.830 C 76.515 22.285, 72.895 29.552, 72.819 35.019 C 72.771 38.483, 72.339 39.341, 70.145 40.326 C 68.705 40.972, 66.726 42.295, 65.747 43.267 C 64.039 44.962, 64.057 45.157, 66.171 48.017 C 67.384 49.658, 68.958 51, 69.669 51 C 71.816 51, 72.397 55.746, 70.587 58.507 C 69.625 59.975, 69.402 61, 70.044 61 C 70.679 61, 70.870 61.834, 70.502 62.994 C 70.031 64.479, 70.243 64.844, 71.333 64.426 C 72.139 64.116, 73.099 64.352, 73.468 64.948 C 73.837 65.545, 74.508 65.804, 74.960 65.525 C 75.412 65.246, 76.539 66.174, 77.465 67.587 C 78.391 69, 79.747 69.927, 80.477 69.647 C 81.208 69.367, 82.637 69.748, 83.653 70.494 C 85.407 71.783, 85.375 71.898, 83 72.789 C 81.625 73.305, 78.414 74.034, 75.865 74.408 C 70.451 75.202, 68.556 76.991, 66.082 83.639 C 64.746 87.230, 63.397 88.952, 60.916 90.232 C 57.879 91.799, 57.475 91.813, 56.675 90.384 C 55.987 89.155, 54.842 88.947, 51.512 89.446 C 44.719 90.465, 39.120 88.446, 30.413 81.840 C 26.061 78.538, 20.813 74.964, 18.750 73.898 C 16.129 72.543, 14.996 71.288, 14.986 69.730 C 14.975 67.934, 13.525 69.057, 7.533 75.500 L 0.093 83.500 0.046 93.900 L 0 104.300 3.006 100.150 C 4.660 97.868, 6.422 96, 6.923 96 C 7.424 96, 8.763 97.237, 9.900 98.750 C 11.966 101.499, 11.968 101.499, 12.600 99.250 C 13.527 95.957, 16.649 96.449, 20.732 100.532 L 24.264 104.064 28.421 102.477 C 33.105 100.688, 36.244 101.376, 39.405 104.885 C 42.025 107.794, 43.157 107.591, 49.872 103.007 C 59.058 96.737, 65.918 94.440, 67.554 97.087 C 67.923 97.685, 67.744 98.656, 67.156 99.244 C 66.397 100.003, 66.693 101.164, 68.176 103.248 C 69.949 105.738, 70.172 107.081, 69.646 112.112 C 69.109 117.247, 69.292 118.270, 71.013 119.743 C 73.904 122.219, 73.606 126.403, 70.434 127.848 L 67.868 129.017 69.913 131.617 L 71.958 134.216 69.479 138.446 C 68.115 140.772, 67 142.974, 67 143.338 C 67 143.702, 76.787 144, 88.750 144 L 110.500 144 110.309 137.394 C 110.193 133.389, 109.560 130.140, 108.702 129.143 C 106.477 126.561, 105.258 119.905, 105.824 113.432 L 106.342 107.500 107.949 113.909 C 109.777 121.198, 111.529 122.903, 115.688 121.441 C 119.184 120.211, 119.561 118.272, 117.956 109.766 C 117.253 106.039, 116.975 102.692, 117.339 102.328 C 117.703 101.964, 119.781 103.096, 121.957 104.845 L 125.912 108.024 129.206 106.016 C 133.538 103.375, 135.250 103.475, 140.050 106.652 C 143.661 109.042, 144.178 109.145, 145.279 107.697 C 147.870 104.288, 157 102.633, 157 105.573 C 157 106.879, 157.443 106.797, 159.616 105.088 C 162.819 102.568, 164.107 103.185, 167.785 109.004 L 170.588 113.438 178.544 113.552 C 182.920 113.614, 187.738 114.018, 189.250 114.449 C 191.706 115.149, 192 114.976, 192 112.822 C 192 111.102, 190.558 109.311, 186.966 106.572 C 178.867 100.395, 167.739 89.005, 163.062 82.105 C 158.842 75.877, 158.686 75.763, 157.114 77.739 C 156.226 78.855, 153.880 80.283, 151.900 80.912 C 149.920 81.542, 144.389 84.069, 139.609 86.528 C 130.867 91.026, 128.807 91.511, 123.199 90.390 C 120.851 89.920, 119.340 88.470, 116.638 84.093 C 112.919 78.068, 111.591 77.115, 103.250 74.491 C 100.362 73.583, 98 72.500, 98 72.086 C 98 70.542, 99.360 70.054, 100.658 71.131 C 101.653 71.957, 102 71.937, 102 71.055 C 102 70.320, 102.765 70.108, 104 70.500 C 105.100 70.849, 106.004 70.767, 106.008 70.317 C 106.023 68.698, 110.771 67.177, 112.064 68.378 C 112.990 69.238, 113.145 68.975, 112.730 67.250 C 112.362 65.726, 112.641 65, 113.594 65 C 115.216 65, 115.474 63.411, 114 62.500 C 112.765 61.737, 112.668 58, 113.883 58 C 114.369 58, 115.013 57.060, 115.313 55.910 C 115.727 54.328, 116.362 53.980, 117.930 54.478 C 120.275 55.222, 120.729 53.230, 118.965 49.934 C 117.803 47.764, 118.943 47.343, 120.842 49.242 C 122.427 50.827, 123.962 48.696, 123.985 44.878 C 123.998 42.596, 124.519 42.173, 128 41.616 C 130.200 41.264, 132 40.738, 132 40.448 C 132 40.157, 131.091 38.689, 129.980 37.187 C 128.869 35.684, 127.679 32.089, 127.337 29.198 C 126.995 26.307, 126.395 23.744, 126.004 23.502 C 125.613 23.261, 123.254 24.356, 120.762 25.936 L 116.231 28.809 112.707 25.090 C 108.439 20.586, 103.667 19.023, 92.144 18.356 C 84.712 17.926, 83.063 18.132, 80.387 19.830" stroke="none" fill="black" fill-rule="evenodd"/>
</svg>