<svg xmlns="http://www.w3.org/2000/svg" width="192" height="144" viewBox="0 0 192 144" version="1.1">
	<path d="M 0 72 L 0 144 37.559 144 C 61.308 144, 74.900 143.647, 74.525 143.040 C 74.198 142.512, 75.402 136.774, 77.200 130.290 C 79.218 123.012, 80.539 115.821, 80.653 111.500 C 80.755 107.650, 81.959 100, 83.331 94.500 C 86.343 82.420, 87.509 74.778, 87.115 69.711 C 86.953 67.627, 87.366 65.264, 88.033 64.461 C 88.723 63.628, 88.815 63, 88.245 63 C 87.695 63, 86.685 63.675, 86 64.500 C 84.280 66.573, 81.776 66.409, 82.185 64.250 C 82.389 63.176, 84.252 61.957, 87.009 61.094 C 89.479 60.321, 91.650 59.308, 91.833 58.844 C 92.244 57.803, 98.388 57.721, 99.409 58.743 C 99.818 59.151, 102.030 59.939, 104.326 60.493 C 107.498 61.258, 108.500 61.980, 108.500 63.500 C 108.500 64.911, 107.942 65.404, 106.607 65.173 C 104.929 64.884, 104.791 65.281, 105.400 68.673 C 105.777 70.778, 106.343 75.650, 106.658 79.500 C 106.972 83.350, 108.493 90.775, 110.038 96 C 112.717 105.063, 112.888 108.581, 110.937 114.500 C 110.756 115.050, 111.419 118.200, 112.412 121.500 C 116.028 133.529, 118.041 142.125, 117.461 143.064 C 117.084 143.673, 130.691 143.928, 154.684 143.762 L 192.500 143.500 192.757 71.750 L 193.013 0 96.507 0 L 0 0 0 72 M 0.474 72.500 C 0.474 112.100, 0.598 128.154, 0.750 108.176 C 0.901 88.198, 0.901 55.798, 0.750 36.176 C 0.598 16.554, 0.474 32.900, 0.474 72.500" stroke="none" fill="black" fill-rule="evenodd"/>
</svg>