<svg xmlns="http://www.w3.org/2000/svg" width="192" height="144" viewBox="0 0 192 144" version="1.1">
	<path d="M 0 72 L 0 144 37.519 144 L 75.038 144 74.491 141.750 C 74.190 140.513, 75.686 133.406, 77.816 125.957 C 80.846 115.366, 81.554 111.443, 81.067 107.957 C 80.621 104.766, 81.099 101.228, 82.752 95.500 C 85.353 86.488, 87.157 75.264, 87.362 66.821 C 87.490 61.553, 87.378 61.253, 85.813 62.669 C 83.998 64.312, 82 63.720, 82 61.539 C 82 60.142, 86.932 58, 90.149 58 C 91.167 58, 92 57.599, 92 57.108 C 92 55.436, 96.960 54.929, 99.254 56.368 C 100.489 57.142, 103.188 58.071, 105.250 58.433 C 107.940 58.905, 109 59.596, 109 60.879 C 109 63.452, 107.912 64.170, 106.177 62.741 C 104.854 61.652, 104.762 62.112, 105.424 66.500 C 105.839 69.250, 106.410 74.420, 106.691 77.989 C 106.973 81.558, 108.368 88.308, 109.790 92.989 C 111.454 98.464, 112.248 103.105, 112.015 106 C 111.305 114.837, 111.651 117.647, 114.833 128.872 C 116.607 135.127, 117.787 141.095, 117.457 142.134 C 116.875 143.968, 117.984 144.016, 154.679 143.762 L 192.500 143.500 192.757 71.750 L 193.013 0 96.507 0 L 0 0 0 72 M 0.474 72.500 C 0.474 112.100, 0.598 128.154, 0.750 108.176 C 0.901 88.198, 0.901 55.798, 0.750 36.176 C 0.598 16.554, 0.474 32.900, 0.474 72.500" stroke="none" fill="black" fill-rule="evenodd"/>
</svg>