<svg xmlns="http://www.w3.org/2000/svg" width="192" height="144" viewBox="0 0 192 144" version="1.1">
	<path d="M -0 72.005 L -0 144.010 96.250 143.755 L 192.500 143.500 192.757 71.750 L 193.013 0 96.507 0 L 0 0 -0 72.005 M 0.474 72.500 C 0.474 112.100, 0.598 128.154, 0.750 108.176 C 0.901 88.198, 0.901 55.798, 0.750 36.176 C 0.598 16.554, 0.474 32.900, 0.474 72.500 M 98.250 59.662 C 97.563 59.940, 97 61.254, 97 62.583 C 97 64.319, 97.554 65, 98.965 65 C 101.488 65, 103.355 61.755, 101.753 60.153 C 100.522 58.922, 100.198 58.876, 98.250 59.662 M 84.332 61.578 C 83.999 62.445, 84.463 63.892, 85.363 64.792 C 86.836 66.264, 87.154 66.274, 88.537 64.892 C 89.406 64.022, 89.794 62.627, 89.430 61.678 C 88.616 59.556, 85.134 59.488, 84.332 61.578 M 109.362 61.500 C 108.569 63.564, 109.644 66, 111.346 66 C 113.348 66, 115.330 63.302, 114.643 61.513 C 113.894 59.559, 110.110 59.550, 109.362 61.500 M 72.646 63.244 C 71.810 66.443, 74.009 68.445, 76.422 66.681 C 77.941 65.570, 78.055 64.972, 77.091 63.171 C 75.586 60.358, 73.392 60.394, 72.646 63.244 M 120.577 63.566 C 118.690 65.452, 118.885 66.894, 121.226 68.371 C 123.371 69.724, 126.199 67.390, 125.798 64.598 C 125.417 61.945, 122.729 61.414, 120.577 63.566 M 62.229 65.171 C 60.409 66.991, 60.732 68.786, 63.107 70.057 C 65.732 71.462, 67.297 70.127, 66.835 66.876 C 66.456 64.212, 64.071 63.329, 62.229 65.171 M 128.571 67.571 C 126.539 69.604, 126.591 70.591, 128.847 72.847 C 130.642 74.642, 130.628 74.756, 128.347 76.951 C 127.056 78.194, 126 79.613, 126 80.105 C 126 80.597, 125.489 81, 124.864 81 C 124.093 81, 123.926 79.554, 124.345 76.500 C 124.684 74.025, 124.780 72, 124.558 72 C 124.336 72, 122.758 73.396, 121.052 75.102 C 118.510 77.643, 117.684 77.983, 116.475 76.979 C 115.634 76.281, 114.975 73.982, 114.941 71.628 C 114.890 68.064, 114.719 67.751, 113.691 69.335 C 109.113 76.386, 105.104 76.946, 103.574 70.750 C 103.064 68.688, 102.389 67.010, 102.074 67.022 C 101.758 67.034, 100.825 68.496, 100 70.272 C 98.936 72.562, 97.712 73.591, 95.790 73.813 C 93.486 74.078, 92.830 73.553, 91.421 70.313 L 89.763 66.500 88.951 69.314 C 87.032 75.964, 83.285 76.785, 79.600 71.362 L 77.128 67.725 76.814 72.104 C 76.423 77.557, 74.052 78.382, 69.982 74.482 L 67.161 71.780 67.695 75.760 C 68.368 80.780, 66.937 81.752, 63.076 78.898 C 60.671 77.120, 60.214 76.182, 60.661 73.944 C 61.073 71.885, 60.728 70.925, 59.303 70.162 C 56.537 68.682, 54.922 70.155, 54.437 74.602 C 54.057 78.082, 54.440 78.921, 58.006 82.426 C 62.266 86.613, 63.100 89.677, 60.250 90.677 C 50.204 94.203, 41.363 100.463, 38.435 106.125 C 32.758 117.104, 43.399 129.443, 64 135.771 C 85.824 142.475, 117.868 140.848, 136.623 132.085 C 143.388 128.924, 150.353 123.153, 152.565 118.875 C 154.401 115.324, 154.401 109.676, 152.565 106.125 C 150.288 101.723, 143.311 96.036, 136.123 92.725 C 132.481 91.047, 129.349 89.559, 129.165 89.419 C 128.981 89.279, 131.081 85.917, 133.833 81.948 C 138.621 75.042, 139.404 72, 136.393 72 C 135.627 72, 135 71.190, 135 70.200 C 135 66.361, 131.296 64.847, 128.571 67.571 M 128.500 84 C 128.160 84.550, 128.332 85, 128.882 85 C 129.432 85, 130.160 84.550, 130.500 84 C 130.840 83.450, 130.668 83, 130.118 83 C 129.568 83, 128.840 83.450, 128.500 84 M 59.745 96.947 C 52.238 101.707, 50.005 106.339, 50.923 115.247 C 51.099 116.956, 58.627 124.278, 61.932 125.956 C 65.162 127.596, 72.298 130.255, 77.500 131.757 C 78.600 132.075, 85.832 132.474, 93.571 132.643 C 105.986 132.915, 108.730 132.660, 116.889 130.477 C 131.478 126.573, 141 118.649, 141 110.413 C 141 106.983, 140.286 105.470, 136.795 101.504 C 132.976 97.166, 127.951 94, 124.885 94 C 124.022 94, 123.876 96.229, 124.342 102.292 C 125.082 111.910, 124.363 113.547, 117.704 117.406 C 106.576 123.856, 79.996 123.136, 71.424 116.153 C 66.804 112.389, 65.730 109.488, 66.912 103.973 C 68.095 98.461, 67.502 94, 65.587 94 C 64.930 94, 62.301 95.326, 59.745 96.947 M 89.473 95.044 C 88.412 96.760, 90.790 98.704, 94.731 99.344 C 97.658 99.819, 98.901 99.502, 100.684 97.827 C 101.924 96.662, 102.701 95.325, 102.410 94.855 C 101.653 93.629, 90.244 93.796, 89.473 95.044 M 81.117 95.867 C 78.905 96.487, 78.858 96.637, 80.451 97.959 C 82.257 99.459, 84.985 98.546, 85.774 96.179 C 86.198 94.905, 84.867 94.816, 81.117 95.867 M 105 95.885 C 105 97.548, 108.881 99.173, 111.138 98.456 C 113.709 97.640, 112.509 96.423, 108.250 95.526 C 106.221 95.098, 105 95.233, 105 95.885" stroke="none" fill="black" fill-rule="evenodd"/>
</svg>