<svg xmlns="http://www.w3.org/2000/svg" width="192" height="144" viewBox="0 0 192 144" version="1.1">
	<path d="M 0 18.107 C 0 34.994, 0.118 36.159, 1.750 35.403 C 2.712 34.957, 7.012 34.619, 11.304 34.652 C 18.781 34.710, 19.257 34.856, 22.642 38.106 C 24.585 39.973, 26.973 43.075, 27.947 45 C 29.578 48.222, 29.690 49.410, 28.809 54.175 C 28.599 55.314, 32.017 58.456, 39.500 64.001 C 54.717 75.279, 54.366 75.128, 53.505 70.028 C 52.956 66.779, 53.185 65.453, 54.557 63.938 C 55.944 62.405, 56.011 62, 54.877 62 C 52.790 62, 50.414 58.818, 50.771 56.500 C 51.508 51.704, 52.064 50.232, 53.973 48.031 C 55.415 46.369, 56 44.281, 56 40.799 C 56 38.059, 56.826 34.195, 57.875 32.023 C 59.869 27.896, 59.672 23.803, 57.389 21.908 C 56.625 21.274, 56 20.135, 56 19.378 C 56 18.594, 54.975 18, 53.622 18 C 49.447 18, 44.115 15.122, 42.498 11.997 C 41.646 10.348, 40.510 9, 39.974 9 C 39.438 9, 39 8.433, 39 7.741 C 39 7.048, 38.056 5.891, 36.902 5.171 C 35.539 4.320, 34.980 3.183, 35.308 1.930 C 35.793 0.076, 35.104 -0, 17.906 -0 L 0 0 0 18.107 M 157.250 0.723 C 155.463 0.945, 154 1.584, 154 2.143 C 154 3.173, 158.557 2.525, 162.500 0.934 L 164.500 0.127 162.500 0.223 C 161.400 0.277, 159.037 0.502, 157.250 0.723 M 164.188 1.743 C 158.715 3.603, 159.394 4.495, 165.149 3.006 C 172.574 1.086, 173.604 0.971, 170.502 2.411 L 167.504 3.803 172.002 4.355 C 174.476 4.659, 179.194 5.170, 182.487 5.491 C 185.779 5.811, 188.907 6.507, 189.437 7.037 C 190.054 7.654, 189.880 8.005, 188.950 8.015 C 187.788 8.028, 187.762 8.197, 188.818 8.866 C 190.114 9.688, 186.324 11.004, 178.202 12.551 C 175.738 13.021, 175.163 13.491, 175.927 14.412 C 176.723 15.372, 175.466 15.576, 170.234 15.337 L 163.520 15.030 167.010 17.145 C 170.959 19.539, 176.488 24, 175.505 24 C 175.148 24, 172.976 22.926, 170.678 21.613 C 166.240 19.077, 158.773 16.547, 153 15.623 L 149.500 15.063 153.250 17.055 C 157.600 19.366, 158.126 20.499, 154.416 19.568 C 152.741 19.148, 152.058 19.285, 152.475 19.960 C 152.829 20.532, 152.668 21, 152.118 21 C 151.568 21, 150.836 20.543, 150.491 19.985 C 148.840 17.315, 137 14.578, 137 16.867 C 137 17.344, 138.764 18.901, 140.919 20.328 C 146.474 24.004, 150.006 28.984, 149.973 33.094 L 149.946 36.500 147.223 33.304 C 144.650 30.283, 144.072 30.091, 136.725 29.804 C 130.595 29.564, 129.290 29.747, 130.556 30.670 C 131.969 31.698, 131.882 31.888, 129.831 32.240 C 128.549 32.460, 129.567 32.651, 132.093 32.664 C 140.020 32.705, 140.258 34.346, 132.500 35.478 L 125.500 36.500 133.500 40.431 C 145.570 46.362, 145.737 48.386, 134.111 47.837 C 130.198 47.651, 126.997 47.837, 126.998 48.250 C 127 49.149, 127.552 49.215, 136.370 49.375 L 143.240 49.500 144.766 54.250 L 146.291 59 156.146 59 C 165.655 59, 166.005 59.079, 166.145 61.250 C 166.466 66.231, 165.872 74.700, 164.969 78 C 164.442 79.925, 164.009 82.303, 164.006 83.286 C 163.998 85.829, 171.674 88.993, 182.500 90.908 L 191.500 92.500 192.119 106 C 192.460 113.425, 192.573 100.639, 192.369 77.586 C 192.166 54.533, 192 27.642, 192 17.828 L 192 -0.017 180.250 0.130 C 172.929 0.222, 166.874 0.829, 164.188 1.743 M 116 28.551 C 116 29.300, 122.620 32.018, 124.218 31.926 C 124.923 31.885, 123.700 31.018, 121.500 30 C 117.185 28.003, 116 27.690, 116 28.551 M 109.489 47.629 C 110.339 49.662, 112.106 53.840, 113.415 56.913 C 114.725 59.986, 116.347 63.962, 117.020 65.750 C 119.020 71.066, 121.941 69.145, 121.986 62.482 C 121.994 61.372, 123.125 58.809, 124.500 56.785 C 125.875 54.762, 127 52.714, 127 52.236 C 127 51.757, 124.412 50.554, 121.250 49.563 C 118.088 48.572, 113.800 46.899, 111.722 45.846 L 107.944 43.931 109.489 47.629 M 1 93.041 L 1 120.721 6.250 121.352 C 9.138 121.699, 14.650 121.970, 18.500 121.955 C 25.387 121.928, 25.545 121.867, 28.308 118.228 C 29.852 116.194, 32.989 112.530, 35.279 110.088 C 37.568 107.645, 40.282 104.038, 41.309 102.073 C 42.336 100.108, 43.746 98.048, 44.443 97.496 C 45.139 96.944, 46.010 95.544, 46.378 94.386 C 47.066 92.218, 45.502 90.517, 33.903 80.818 C 22.299 71.115, 19.351 68.903, 17.500 68.514 C 16.400 68.282, 12.238 67.478, 8.250 66.727 L 1 65.361 1 93.041 M 71.686 87.284 C 69.441 91.452, 66.248 95.075, 63 97.139 C 58.691 99.877, 51.207 111.917, 50.432 117.358 L 49.741 122.216 53.120 121.478 C 58.765 120.246, 59.618 119.730, 66.965 113.103 C 73.413 107.286, 80 99.178, 80 97.057 C 80 96.593, 80.787 95.909, 81.750 95.536 C 83.285 94.940, 83.316 94.713, 82 93.679 C 81.175 93.030, 79.514 90.700, 78.309 88.500 C 75.518 83.404, 73.932 83.113, 71.686 87.284 M 159.127 97.273 C 157.124 99.276, 157.882 102.004, 160.750 103.115 C 163.345 104.121, 180.144 106.118, 180.810 105.501 C 181.094 105.238, 172.271 100.841, 167.500 98.868 C 161.662 96.454, 160.220 96.180, 159.127 97.273 M -0 140.860 L 0 144 20.583 144 C 36.606 144, 41.074 143.723, 40.750 142.750 C 40.521 142.063, 39.921 141.493, 39.417 141.485 C 38.913 141.476, 37.898 141.088, 37.163 140.622 C 36.397 140.136, 35.401 140.199, 34.831 140.769 C 34.170 141.430, 32.938 141.323, 31.168 140.451 C 29.613 139.686, 22.554 138.842, 14.250 138.429 L -0 137.719 -0 140.860" stroke="none" fill="black" fill-rule="evenodd"/>
</svg>