<svg xmlns="http://www.w3.org/2000/svg" width="192" height="144" viewBox="0 0 192 144" version="1.1">
	<path d="M 0.005 31.250 L 0.010 62.500 2.525 59.500 C 3.909 57.850, 6.460 54.475, 8.195 52 C 9.929 49.525, 12.283 46.325, 13.424 44.889 C 14.566 43.453, 16.175 41.240, 17 39.971 C 19.998 35.359, 28.514 26.223, 41.864 13.298 L 55.500 0.096 27.750 0.048 L 0 0 0.005 31.250 M 134 0.941 C 134 1.459, 134.450 2.160, 135 2.500 C 135.550 2.840, 136 4.269, 136 5.676 C 136 7.846, 135.660 8.139, 133.750 7.609 C 127.045 5.748, 127 5.748, 127 7.551 C 127 8.524, 128.986 13.410, 131.413 18.410 C 137.360 30.661, 139.402 39.353, 138.653 49.225 C 137.989 57.975, 135.986 62.637, 130.491 68.221 C 124.275 74.537, 117.493 74.503, 109.767 68.119 C 103.847 63.227, 86.708 54.514, 84.598 55.324 C 83.719 55.661, 83 56.669, 83 57.564 C 83 59.392, 79.292 65.075, 77.300 66.300 C 75.361 67.492, 75.730 69.779, 77.976 70.492 C 80.060 71.154, 84.393 75.131, 89.678 81.235 C 93.571 85.732, 100.402 89.394, 108.967 91.578 C 118.782 94.080, 125.758 92.887, 140.122 86.247 C 146.789 83.166, 148.131 82.083, 150.827 77.612 C 153.685 72.873, 156.791 66.366, 160.132 58.124 C 164.206 48.070, 165.751 45.468, 166.528 47.351 C 167.017 48.537, 166.800 49.505, 165.925 50.047 C 165.173 50.511, 164.849 51.183, 165.206 51.539 C 165.562 51.895, 164.311 56.502, 162.427 61.776 C 158.749 72.068, 158.278 74.947, 160.250 75.092 C 160.938 75.143, 163.750 75.257, 166.500 75.346 C 170.283 75.468, 172.397 76.193, 175.186 78.324 C 179.216 81.403, 180.522 84.925, 180.153 91.721 C 179.942 95.603, 180.148 95.992, 182.712 96.555 C 187.510 97.608, 188.178 97.965, 187.755 99.251 C 187.528 99.941, 185.312 100.634, 182.804 100.799 C 178.514 101.082, 178.132 101.355, 175.882 105.738 C 172.393 112.532, 162.297 122.269, 147.045 133.549 L 133.589 143.500 162.479 143.766 C 178.707 143.915, 191.764 143.636, 192.270 143.130 C 192.803 142.597, 192.872 113.109, 192.438 71.114 L 191.704 0 162.852 0 C 145.490 0, 134 0.375, 134 0.941 M 50.571 68.571 C 48.897 70.246, 48.291 80, 49.861 80 C 50.679 80, 55 69.836, 55 67.911 C 55 66.453, 52.284 66.858, 50.571 68.571 M 1 113.500 L 1 144 29.696 144 L 58.392 144 54.946 140.313 C 53.051 138.285, 50.785 135.923, 49.910 135.063 C 47.580 132.772, 41.148 124.687, 33.869 114.901 C 24.868 102.800, 22.033 99.756, 14.831 94.456 C 11.349 91.894, 7.139 88.268, 5.475 86.398 C 3.811 84.529, 2.123 83, 1.725 83 C 1.326 83, 1 96.725, 1 113.500" stroke="none" fill="black" fill-rule="evenodd"/>
</svg>