<svg xmlns="http://www.w3.org/2000/svg" width="192" height="144" viewBox="0 0 192 144" version="1.1">
	<path d="M 21.358 6.250 C 21.683 9.688, 22.240 15.312, 22.595 18.750 C 23.250 25.097, 22.486 26.496, 20 23.500 C 18.292 21.442, 17.399 21.594, 13.433 24.619 C 9.884 27.326, 9.364 28.789, 10.892 31.764 C 11.383 32.719, 12.288 34.770, 12.903 36.321 C 14.133 39.421, 17.692 39.741, 17.250 36.712 C 17.113 35.770, 16.887 34.261, 16.750 33.358 C 16.303 30.420, 18.511 30.902, 20.437 34.163 C 21.471 35.913, 23.886 39.081, 25.803 41.204 L 29.290 45.063 27.011 47.489 C 25.128 49.493, 23.600 49.966, 18.220 50.207 C 13.106 50.437, 11.472 50.903, 10.604 52.379 C 9.782 53.778, 9.804 54.368, 10.694 54.693 C 11.350 54.933, 13.550 56.450, 15.581 58.065 C 17.613 59.679, 20.064 61, 21.029 61 C 22.110 61, 23.047 62.056, 23.469 63.750 C 24.489 67.836, 28.554 72.671, 31.616 73.440 C 33.701 73.963, 35.274 73.424, 38.569 71.058 C 40.911 69.376, 43.316 68, 43.913 68 C 44.511 68, 45 67.550, 45 67 C 45 66.450, 43.677 66, 42.059 66 C 38.587 66, 37.590 64.768, 38.412 61.493 C 38.894 59.576, 40.215 58.763, 45.052 57.405 C 49.525 56.150, 51.011 55.297, 50.784 54.117 C 50.615 53.240, 49.582 52.379, 48.489 52.203 C 44.158 51.506, 43.937 51.242, 45.211 48.284 C 45.870 46.753, 47.755 43.572, 49.398 41.216 C 52.077 37.377, 52.430 35.977, 52.800 27.716 C 53.127 20.397, 52.957 18.744, 51.970 19.686 C 50.493 21.097, 48 19.141, 48 16.571 C 48 14.207, 45.896 14.683, 45.238 17.196 C 44.690 19.293, 44.629 19.304, 43.902 17.446 C 42.232 13.178, 43.005 9.518, 46.510 5.109 C 48.429 2.694, 50 0.557, 50 0.359 C 50 0.162, 43.423 -0, 35.384 -0 L 20.767 -0 21.358 6.250 M 125 72 L 125 144 143.392 144 C 164.666 144, 163.300 144.805, 162.422 132.789 C 161.983 126.787, 162.248 125.452, 164.927 120.144 C 166.575 116.880, 167.996 112.474, 168.085 110.355 C 168.174 108.235, 168.915 104.980, 169.731 103.122 C 170.682 100.957, 170.994 98.362, 170.599 95.892 L 169.982 92.038 175.495 92.507 C 182.088 93.068, 186.946 94.953, 189.858 98.078 L 192 100.377 192 50.189 L 192 0 158.500 0 L 125 0 125 72 M 35.206 22.684 C 33.765 25.293, 33.622 29.648, 34.949 30.469 C 36.026 31.134, 37.386 25.163, 36.799 22.350 C 36.445 20.656, 36.311 20.684, 35.206 22.684 M 190.161 104.547 C 189.522 105.948, 189 107.726, 189 108.497 C 189 109.269, 188.213 110.373, 187.250 110.950 C 185.602 111.937, 185.614 112.086, 187.441 113.499 C 191.154 116.370, 192 115.442, 192 108.500 C 192 104.925, 191.847 102, 191.661 102 C 191.474 102, 190.799 103.146, 190.161 104.547" stroke="none" fill="black" fill-rule="evenodd"/>
</svg>