<svg xmlns="http://www.w3.org/2000/svg" width="192" height="144" viewBox="0 0 192 144" version="1.1">
	<path d="M 100.559 67.532 C 99.491 68.339, 97.396 69, 95.903 69 C 93.400 69, 93.133 69.395, 92.495 74.036 C 91.883 78.485, 91.569 78.998, 89.802 78.437 C 88.703 78.088, 86.917 76.917, 85.834 75.834 C 84.391 74.391, 83.524 74.150, 82.585 74.930 C 81.643 75.711, 80.825 75.464, 79.497 73.996 C 77.218 71.478, 76.345 71.486, 74.980 74.038 C 73.277 77.219, 74.693 80.294, 77.533 79.581 C 80.772 78.768, 81.282 80.152, 79.572 85.116 C 78.767 87.453, 78.335 89.733, 78.613 90.183 C 78.891 90.632, 81.077 91, 83.470 91 L 87.822 91 88.176 97.250 C 88.549 103.832, 87.214 108.698, 82.466 118.067 C 81.110 120.744, 80 123.606, 80 124.428 C 80 126.459, 83.952 130, 86.220 130 C 88.388 130, 88.648 130.656, 89.499 138.250 C 90.007 142.779, 90.510 144, 91.869 144 C 93.369 144, 93.541 143.148, 93.181 137.500 L 92.767 131 96.790 131 C 100.686 131, 100.862 131.147, 102.406 135.678 C 103.283 138.251, 104 141.176, 104 142.178 C 104 143.351, 104.734 144, 106.061 144 C 107.944 144, 108.067 143.589, 107.477 139.250 C 107.122 136.637, 106.564 133.600, 106.236 132.500 C 105.908 131.400, 105.549 128.700, 105.438 126.500 C 105.328 124.300, 104.025 118.225, 102.544 113 C 98.941 100.295, 98.547 95.431, 100.982 93.725 C 102.012 93.004, 103.429 91.152, 104.131 89.611 C 105.232 87.195, 105.181 86.681, 103.762 85.887 C 102.385 85.116, 102.294 84.437, 103.203 81.733 C 103.801 79.955, 104.678 78, 105.152 77.389 C 105.657 76.738, 105.394 74.793, 104.517 72.695 C 103.694 70.724, 103.289 68.412, 103.617 67.556 C 104.361 65.618, 103.102 65.608, 100.559 67.532 M 38 70.272 C 37.175 72.047, 35.260 74.088, 33.745 74.807 C 31.470 75.886, 31.165 76.440, 31.995 77.991 C 32.548 79.024, 33 80.615, 33 81.527 C 33 82.438, 33.881 84.305, 34.958 85.673 C 36.289 87.366, 36.644 88.697, 36.069 89.831 C 34.593 92.740, 32.147 98.435, 31.595 100.251 C 31.301 101.215, 29.473 102.761, 27.531 103.687 C 25.589 104.613, 24 105.737, 24 106.185 C 24 106.633, 21.511 107, 18.469 107 C 14.474 107, 12.777 106.583, 12.362 105.500 C 11.750 103.907, 8.315 103.587, 3.076 104.635 C 0.011 105.248, -0.088 105.427, 0.201 109.796 L 0.500 114.323 14 120.572 C 24.574 125.466, 27.571 127.285, 27.827 128.967 C 28.007 130.147, 29.206 131.592, 30.492 132.178 C 32.636 133.155, 32.784 133.691, 32.275 138.622 L 31.720 144 36.360 144 C 41.522 144, 41.446 144.074, 39.858 140.588 C 38.395 137.378, 40.940 133.002, 44.273 132.996 C 45.498 132.994, 47.948 132.110, 49.718 131.031 C 52.903 129.088, 52.922 129.031, 51.596 125.284 C 50.859 123.203, 48.896 118.505, 47.233 114.844 C 44.276 108.331, 44.234 108.022, 45.313 100.531 C 46.237 94.121, 46.184 92.732, 44.987 91.992 C 44.201 91.506, 43.770 90.972, 44.029 90.804 C 44.288 90.637, 45.400 89.993, 46.500 89.373 C 47.882 88.594, 48.431 87.359, 48.277 85.373 C 48.154 83.793, 47.980 80.849, 47.891 78.831 C 47.776 76.259, 47.201 75.024, 45.968 74.702 C 45 74.449, 43.435 72.612, 42.490 70.621 C 41.545 68.629, 40.486 67.010, 40.136 67.022 C 39.786 67.034, 38.825 68.496, 38 70.272 M 162.203 71.903 C 161.501 73.489, 159.799 76.004, 158.421 77.490 C 156.731 79.314, 156.227 80.569, 156.871 81.347 C 158.210 82.963, 158.584 92.567, 157.370 94.172 C 155.296 96.915, 153.079 104.282, 153.848 105.875 C 155.459 109.212, 153 121.161, 149.148 128.710 C 147.967 131.026, 147 133.561, 147 134.345 C 147 136.081, 151.242 139, 153.765 139 C 156.496 139, 158.211 141.041, 156.854 142.676 C 155.977 143.733, 156.485 144, 159.378 144 C 162.333 144, 163 143.632, 163 142 C 163 140.889, 163.667 140, 164.500 140 C 165.333 140, 166 140.889, 166 142 C 166 143.467, 166.667 144, 168.500 144 C 170.641 144, 171 143.545, 171 140.829 C 171 139.085, 171.728 136.853, 172.618 135.870 C 174.107 134.224, 174.108 133.515, 172.626 126.953 C 171.740 123.032, 170.169 117.910, 169.134 115.570 C 167.302 111.428, 167.301 111.253, 169.104 108.908 C 170.122 107.584, 170.966 105.473, 170.978 104.219 C 171.011 100.768, 173.370 100.555, 177.955 103.589 C 181.989 106.259, 182.200 106.289, 186.794 104.868 C 190.881 103.604, 191.539 103.024, 191.795 100.451 C 192.087 97.524, 191.995 97.467, 184.045 95.573 C 178.840 94.333, 176 93.173, 176 92.288 C 176 91.536, 176.926 89.105, 178.058 86.885 C 179.191 84.666, 179.916 82.322, 179.671 81.675 C 179.426 81.029, 178.256 82.632, 177.072 85.237 C 175.035 89.718, 171.568 92.902, 170.208 91.542 C 169.867 91.200, 170.414 89.387, 171.424 87.512 C 172.434 85.636, 173.035 83.243, 172.761 82.193 C 172.486 81.143, 172.675 79.545, 173.180 78.642 C 173.834 77.475, 173.707 77, 172.744 77 C 170.936 77, 164.633 72.297, 163.990 70.469 C 163.640 69.472, 163.081 69.921, 162.203 71.903 M 84.500 84 C 84.160 84.550, 84.610 85, 85.500 85 C 86.390 85, 86.840 84.550, 86.500 84 C 86.160 83.450, 85.710 83, 85.500 83 C 85.290 83, 84.840 83.450, 84.500 84 M 29.108 108.058 C 27.793 109.154, 26.947 110.281, 27.229 110.562 C 28.125 111.458, 33 108.735, 33 107.339 C 33 105.508, 31.934 105.705, 29.108 108.058" stroke="none" fill="black" fill-rule="evenodd"/>
</svg>