<svg xmlns="http://www.w3.org/2000/svg" width="192" height="144" viewBox="0 0 192 144" version="1.1">
	<path d="M 0 72 L 0 144 35.803 144 L 71.606 144 73.932 134.250 C 75.212 128.887, 77.283 121.746, 78.535 118.380 C 81.050 111.621, 81.970 99.183, 80.265 95 C 79.480 93.072, 79.562 92.426, 80.623 92.177 C 82.115 91.826, 82.618 85, 81.152 85 C 80.685 85, 79.507 86.767, 78.533 88.927 C 77.559 91.087, 75.464 94.097, 73.878 95.617 L 70.993 98.381 63.023 95.690 C 58.640 94.211, 54.370 93, 53.535 93 C 52.701 93, 50.776 91.718, 49.259 90.152 C 47.263 88.091, 45.135 87.121, 41.564 86.645 C 36.082 85.915, 29.818 83.175, 29.220 81.247 C 28.996 80.524, 29.607 80.062, 30.666 80.155 C 31.675 80.244, 34.014 80.246, 35.865 80.158 C 39.204 80.001, 39.218 79.981, 37.615 77.535 C 36.727 76.180, 36 74.110, 36 72.936 C 36 71.763, 35.272 69.269, 34.383 67.395 C 33.090 64.670, 33.013 63.690, 33.996 62.504 C 34.673 61.689, 35.587 61.245, 36.028 61.517 C 37.468 62.407, 37.696 59.553, 36.296 58.154 C 34.987 56.844, 35.394 53.125, 36.970 52 C 37.356 51.725, 38.188 50.600, 38.819 49.500 C 39.952 47.527, 39.976 47.530, 40.583 49.681 C 40.949 50.981, 41.746 51.651, 42.557 51.340 C 43.412 51.012, 44.157 51.779, 44.567 53.409 C 45.266 56.194, 47 56.972, 47 54.500 C 47 51.886, 48.646 52.866, 51.502 57.182 C 53.963 60.901, 54.144 61.713, 53.135 64.503 C 52.511 66.230, 52 68.415, 52 69.361 C 52 72.876, 48.044 78.998, 45.730 79.063 C 43.578 79.125, 43.588 79.164, 46 80.188 C 47.375 80.771, 50.169 81.175, 52.208 81.086 C 54.470 80.987, 57.869 81.914, 60.925 83.462 C 63.680 84.858, 66.589 86, 67.389 86 C 68.933 86, 71.083 80.678, 71.402 76.066 C 71.508 74.545, 73.035 71.481, 74.797 69.256 C 76.559 67.032, 78 64.889, 78 64.495 C 78 64.100, 76.425 64.073, 74.500 64.434 C 71.122 65.068, 71 64.984, 71 62.045 C 71 59.258, 71.283 59, 74.349 59 L 77.698 59 78.303 49.065 C 78.690 42.717, 79.757 36.601, 81.258 32.125 C 82.921 27.167, 83.211 25.342, 82.251 25.879 C 81.505 26.297, 79.569 26.444, 77.948 26.206 L 75 25.773 75 17.887 L 75 10 78.250 10.024 C 80.037 10.037, 84.200 11.207, 87.500 12.624 C 96.660 16.558, 100.742 16.525, 109.250 12.448 C 116.877 8.792, 119.821 8.215, 120.448 10.250 C 120.660 10.937, 121.097 14.066, 121.420 17.202 L 122.006 22.903 118.499 24.567 C 116.571 25.483, 114.094 25.996, 112.996 25.709 C 110.901 25.161, 110.413 25.946, 111.853 27.550 C 113.192 29.043, 115.286 37.729, 114.580 38.870 C 114.023 39.772, 114.675 45.687, 116.560 56.843 C 117.070 59.857, 117.380 60.121, 119.718 59.535 C 122.638 58.802, 123.961 60.145, 123.985 63.867 C 123.997 65.744, 123.586 66.125, 122 65.710 C 119.789 65.132, 119.480 66.160, 121.007 69.012 C 122.379 71.577, 123.872 83, 122.834 83 C 122.376 83, 122 82.325, 122 81.500 C 122 80.675, 121.662 80, 121.250 80.001 C 120.838 80.001, 120.500 82.754, 120.500 86.118 C 120.500 92.163, 120.561 92.296, 125.700 97.383 C 132.198 103.815, 137.105 112.767, 137.331 118.599 C 137.522 123.542, 136.045 125.553, 131.203 126.942 C 128.424 127.739, 128 127.616, 128 126.014 C 128 124.998, 128.562 123.978, 129.250 123.746 C 130.250 123.410, 130.250 122.629, 129.250 119.842 C 128.563 117.926, 128 115.366, 128 114.154 C 128 112.799, 127.133 111.608, 125.750 111.060 C 124.513 110.571, 122.614 108.809, 121.532 107.145 C 119.602 104.178, 116 102.237, 116 104.165 C 116 104.703, 115.299 105.844, 114.442 106.700 C 113.586 107.557, 113.059 108.762, 113.271 109.379 C 113.484 109.996, 116.097 118.031, 119.079 127.237 L 124.500 143.973 158.500 143.737 L 192.500 143.500 192.757 71.750 L 193.013 0 96.507 0 L 0 0 0 72 M 0.474 72.500 C 0.474 112.100, 0.598 128.154, 0.750 108.176 C 0.901 88.198, 0.901 55.798, 0.750 36.176 C 0.598 16.554, 0.474 32.900, 0.474 72.500" stroke="none" fill="black" fill-rule="evenodd"/>
</svg>