<svg xmlns="http://www.w3.org/2000/svg" width="192" height="144" viewBox="0 0 192 144" version="1.1">
	<path d="M 0 72 L 0 144 37.500 144 L 75 144 75 141.095 C 75 139.213, 73.715 136.658, 71.355 133.845 C 67.832 129.646, 65 124.317, 65 121.888 C 65 120.709, 77.521 121.234, 82.750 122.632 C 84.503 123.100, 85 122.815, 85 121.339 C 85 118.593, 80.044 103.766, 78.536 102 C 77.009 100.211, 74.605 94.896, 73.042 89.851 C 71.224 83.982, 73.964 76.724, 78.675 74.934 C 80.886 74.093, 81.944 72, 80.158 72 C 79.695 72, 79.286 69.957, 79.248 67.461 C 79.210 64.964, 78.650 62.284, 78.004 61.504 C 77.357 60.725, 77.116 59.621, 77.468 59.052 C 77.820 58.482, 77.648 57.225, 77.085 56.258 C 76.112 54.589, 76.059 54.588, 76.030 56.250 C 75.993 58.381, 75.450 58.375, 71.070 56.202 C 67.287 54.326, 64.186 49.832, 64.073 46.066 C 64.033 44.727, 64.733 41.018, 65.629 37.824 C 66.829 33.549, 66.968 31.667, 66.158 30.690 C 65.341 29.706, 65.464 28.782, 66.635 27.110 C 68.110 25.004, 68.061 24.694, 65.883 22.376 C 63.914 20.279, 63.781 19.750, 65.026 18.963 C 65.837 18.450, 67.737 18.024, 69.250 18.015 C 71.028 18.005, 72 17.467, 72 16.492 C 72 15.255, 72.345 15.199, 73.919 16.181 C 75.412 17.114, 76.161 17.111, 77.297 16.168 C 78.320 15.320, 79.514 15.245, 81.285 15.918 C 82.676 16.447, 86.668 17.169, 90.157 17.523 C 99.529 18.475, 105.299 20.631, 110.337 25.065 C 116.105 30.143, 118.897 35.999, 119.659 44.618 C 120.022 48.732, 120.917 52.263, 121.883 53.396 C 122.856 54.537, 123.083 55.439, 122.453 55.662 C 121.877 55.865, 121.588 57.599, 121.812 59.516 C 122.067 61.698, 121.792 63, 121.077 63 C 120.449 63, 119.529 64.012, 119.031 65.250 C 118.534 66.487, 118.098 66.938, 118.063 66.250 C 118.029 65.563, 117.048 65, 115.883 65 C 114.259 65, 113.888 65.465, 114.290 67.001 C 114.578 68.102, 114.472 68.792, 114.054 68.533 C 113.636 68.275, 112.441 68.710, 111.397 69.500 C 109.620 70.846, 109.701 70.938, 112.685 70.968 C 117.744 71.019, 120.715 72.624, 123.908 77.032 L 126.883 81.139 127.555 77.558 C 128.250 73.854, 129.128 72.837, 131.886 72.541 C 132.774 72.445, 134.771 72.002, 136.324 71.557 C 139.658 70.600, 144 72.245, 144 74.465 C 144 75.295, 145.575 76.631, 147.500 77.436 C 151.231 78.994, 151.942 80.973, 149.500 83 C 148.675 83.685, 148 85.081, 148 86.103 C 148 87.324, 147.056 88.161, 145.250 88.541 C 140.734 89.491, 139.571 90.516, 138.664 94.350 C 137.799 98.009, 136.309 98.909, 134.354 96.954 C 133.626 96.226, 132.501 96.965, 130.654 99.387 C 127.291 103.796, 127.326 104.307, 131.085 105.726 C 133.439 106.615, 134.029 107.333, 133.576 108.761 C 133.125 110.182, 133.762 110.976, 136.232 112.066 C 138.382 113.014, 139.779 114.516, 140.359 116.500 C 140.841 118.150, 141.632 120.281, 142.118 121.236 C 143.446 123.850, 143.201 124.802, 141.022 125.493 C 139.778 125.888, 138.639 127.628, 137.950 130.186 C 137.209 132.937, 135.206 135.832, 131.757 139.140 L 126.659 144.028 159.579 143.764 L 192.500 143.500 192.757 71.750 L 193.013 0 96.507 0 L 0 0 0 72 M 0.474 72.500 C 0.474 112.100, 0.598 128.154, 0.750 108.176 C 0.901 88.198, 0.901 55.798, 0.750 36.176 C 0.598 16.554, 0.474 32.900, 0.474 72.500 M 82.079 68.583 C 82.127 69.748, 82.364 69.985, 82.683 69.188 C 82.972 68.466, 82.936 67.603, 82.604 67.271 C 82.272 66.939, 82.036 67.529, 82.079 68.583 M 85.002 71.309 C 85.001 71.754, 84.438 71.800, 83.750 71.412 C 82.810 70.882, 82.780 71.011, 83.628 71.931 C 85.009 73.431, 90.195 72.960, 90.745 71.285 C 91.009 70.480, 90.106 70.142, 88.074 70.285 C 86.385 70.403, 85.003 70.864, 85.002 71.309" stroke="none" fill="black" fill-rule="evenodd"/>
</svg>