<svg xmlns="http://www.w3.org/2000/svg" width="192" height="144" viewBox="0 0 192 144" version="1.1">
	<path d="M 111.250 9.060 C 109.463 9.608, 108 10.382, 108 10.779 C 108 11.935, 97.884 11.409, 93.350 10.017 C 88.412 8.501, 80.764 9.379, 78.412 11.731 C 76.553 13.590, 77.006 18.476, 79.652 25.089 C 81.084 28.668, 81.571 29.073, 83.774 28.521 C 86.252 27.899, 86.266 27.934, 85.599 32.964 C 85.067 36.972, 85.238 38.154, 86.415 38.606 C 88.679 39.474, 90.451 46.178, 90.111 52.581 C 90.050 53.726, 88.865 55.270, 87.477 56.012 C 85.799 56.911, 84.514 58.890, 83.636 61.931 C 82.691 65.203, 81.535 66.883, 79.565 67.849 C 77.139 69.039, 76.889 69.594, 77.445 72.558 C 78.141 76.266, 75.645 82.105, 69.188 91.878 C 65.977 96.740, 65.611 98.006, 65.386 105.048 C 65.202 110.796, 65.486 112.972, 66.469 113.350 C 67.201 113.631, 68.121 115.759, 68.513 118.079 C 69.448 123.613, 71.722 128.956, 73.420 129.608 C 74.532 130.034, 74.438 131.247, 72.896 136.314 C 71.862 139.716, 71.012 142.838, 71.008 143.250 C 71.003 143.662, 83.855 144, 99.567 144 L 128.135 144 127.477 141.750 C 127.116 140.512, 125.286 135.060, 123.410 129.634 C 119.212 117.488, 119.041 114.772, 122.968 122.590 C 126.487 129.596, 135.495 141, 137.510 141 C 140.480 141, 141.189 137.276, 139.466 130.721 C 138.567 127.300, 137.689 122.025, 137.514 119 C 137.340 115.975, 137.067 113.050, 136.908 112.500 C 136.749 111.950, 136.955 110.084, 137.366 108.354 C 138.001 105.681, 137.330 103.804, 132.895 95.854 C 128.630 88.208, 127.664 85.587, 127.603 81.500 C 127.561 78.750, 127.905 75.719, 128.365 74.764 C 129.014 73.421, 128.614 72.804, 126.602 72.039 C 124.491 71.236, 124 70.396, 124 67.590 C 124 63.843, 122.431 58.884, 120.957 57.973 C 120.407 57.634, 120.390 55.216, 120.913 51.953 C 121.393 48.954, 121.453 44.346, 121.046 41.714 C 120.622 38.971, 120.702 36.684, 121.234 36.355 C 122.076 35.835, 121.827 33.602, 120.385 28.750 C 119.991 27.424, 120.449 27, 122.274 27 C 124.205 27, 124.914 26.232, 125.843 23.129 C 127.684 16.984, 128.354 10.337, 127.203 9.625 C 125.281 8.437, 114.520 8.056, 111.250 9.060 M 114.073 81 C 112.469 83.812, 112.355 100.755, 113.929 102.329 C 115.254 103.654, 116.176 95.892, 115.811 86.500 C 115.519 79, 115.411 78.656, 114.073 81 M 117.031 108.500 C 117.031 109.050, 117.467 110.175, 118 111 C 118.533 111.825, 118.969 112.050, 118.969 111.500 C 118.969 110.950, 118.533 109.825, 118 109 C 117.467 108.175, 117.031 107.950, 117.031 108.500" stroke="none" fill="black" fill-rule="evenodd"/>
</svg>