<svg xmlns="http://www.w3.org/2000/svg" width="192" height="144" viewBox="0 0 192 144" version="1.1">
	<path d="M 163.035 15.735 C 160.029 17.673, 154.510 21.700, 150.770 24.683 C 147.031 27.667, 140.041 32.529, 135.236 35.488 C 127.092 40.503, 126.439 40.737, 125.597 38.934 C 124.557 36.705, 121 36.305, 121 38.417 C 121 40.400, 119.068 40.839, 115.111 39.757 C 111.304 38.715, 105.945 39.460, 101.788 41.610 C 97.897 43.622, 93.886 54, 97 54 C 97.550 54, 98 54.675, 98 55.500 C 98 56.325, 97.325 57, 96.500 57 C 95.496 57, 95 55.996, 95 53.968 C 95 46.625, 88.672 39, 82.578 39 C 79.035 39, 76.675 36.998, 75.504 33 C 73.306 25.496, 66.519 19.746, 58.310 18.433 C 50.213 17.139, 40.863 24.085, 37.528 33.872 C 34.175 43.711, 36.623 51.572, 44.708 56.934 C 49.127 59.864, 50.061 60.091, 56.707 59.846 C 60.670 59.700, 64.233 59.900, 64.623 60.290 C 65.014 60.681, 64.332 61, 63.107 61 C 60.420 61, 51.776 67.975, 52.412 69.631 C 52.660 70.277, 52.233 71.637, 51.463 72.653 C 50.027 74.548, 49.496 78, 50.640 78 C 50.992 78, 51.864 77.212, 52.579 76.250 C 53.801 74.603, 53.979 74.600, 55.603 76.200 C 56.994 77.570, 57.090 78.187, 56.097 79.383 C 55.117 80.564, 55.150 81.338, 56.261 83.183 C 57.029 84.457, 57.765 88.190, 57.898 91.477 C 58.052 95.286, 58.999 99.250, 60.509 102.406 C 62.210 105.960, 62.614 107.853, 61.940 109.113 C 60.617 111.583, 60.772 116.662, 62.241 119.014 C 63.228 120.595, 63.228 121.405, 62.241 122.986 C 60.753 125.368, 60.595 131.632, 62 132.500 C 63.302 133.305, 63.302 138, 62 138 C 61.450 138, 61.061 139.463, 61.136 141.250 C 61.239 143.701, 61.381 143.932, 61.713 142.192 C 62.233 139.471, 65.673 139.564, 65.206 142.286 C 65.045 143.229, 65.382 144, 65.956 144 C 67.525 144, 67.211 140.252, 65.413 137.508 C 63.964 135.296, 63.964 134.889, 65.413 132.821 C 67.404 129.978, 67.425 127.158, 65.482 123.265 C 64.101 120.495, 64.123 119.948, 65.730 117.148 C 67.424 114.196, 67.420 113.935, 65.619 110.591 C 64.588 108.676, 63.984 106.483, 64.278 105.718 C 64.747 104.496, 77.825 101.492, 78.732 102.398 C 78.910 102.577, 78.558 104.023, 77.950 105.611 C 77.252 107.432, 76.964 114.414, 77.172 124.500 C 77.352 133.300, 77.114 141.287, 76.643 142.250 C 75.842 143.886, 76.986 143.995, 94.143 143.921 C 104.239 143.878, 111.941 143.616, 111.259 143.341 C 108.357 142.168, 106.736 136.121, 107.206 128.223 C 107.669 120.431, 111.208 110.633, 112.343 114 C 113.877 118.553, 115.106 123.220, 116.344 129.188 C 117.680 135.636, 117.647 136.023, 115.423 139.938 L 113.116 144 122.808 143.905 L 132.500 143.811 138.250 137.433 C 142.100 133.162, 144 130.206, 144 128.487 C 144 124.561, 140.694 119.020, 135.081 113.538 C 130.775 109.332, 130 108.008, 130 104.860 C 130 95.606, 134.218 74, 136.025 74 C 136.443 74, 137.074 74.749, 137.425 75.665 C 137.967 77.078, 138.571 76.839, 141.406 74.091 C 145.695 69.934, 150.111 61.198, 150.738 55.628 C 151.159 51.895, 150.896 51.041, 148.892 49.637 C 145.989 47.604, 141.012 47.523, 138.441 49.468 C 137.374 50.276, 135.600 50.929, 134.500 50.921 C 133.004 50.909, 134.262 49.270, 139.484 44.424 C 145.469 38.871, 146.858 38.030, 149.190 38.542 C 151.887 39.134, 162 35.374, 162 33.779 C 162 33.376, 160.825 32.277, 159.390 31.336 L 156.780 29.626 159.004 28.803 C 160.830 28.127, 161.009 27.716, 160.003 26.504 C 158.992 25.285, 159.693 23.971, 164.019 18.978 C 166.902 15.650, 169.090 12.766, 168.880 12.570 C 168.671 12.373, 166.041 13.798, 163.035 15.735 M 87.028 67.549 C 83.250 70.217, 77.229 70.798, 72.398 68.961 C 70.339 68.178, 69.465 68.240, 68.848 69.211 C 67.665 71.076, 67.814 78.767, 69.049 79.530 C 69.774 79.978, 69.760 80.585, 69.002 81.498 C 67.575 83.217, 68.819 93.277, 70.386 92.697 C 70.999 92.470, 73.975 91.717, 77 91.022 C 90.581 87.904, 90.031 88.281, 92.864 80.159 C 95.239 73.350, 95.301 72.748, 93.712 71.859 C 92.699 71.292, 92 69.696, 92 67.950 C 92 64.413, 91.525 64.375, 87.028 67.549 M 63.250 111.662 C 61.457 112.386, 61.670 116.667, 63.500 116.667 C 64.480 116.667, 65 115.685, 65 113.833 C 65 112.275, 64.888 111.036, 64.750 111.079 C 64.612 111.122, 63.938 111.385, 63.250 111.662 M 63.250 125.662 C 61.445 126.391, 61.661 131, 63.500 131 C 64.500 131, 65 130, 65 128 C 65 126.350, 64.888 125.036, 64.750 125.079 C 64.612 125.122, 63.938 125.385, 63.250 125.662" stroke="none" fill="black" fill-rule="evenodd"/>
</svg>