<svg xmlns="http://www.w3.org/2000/svg" width="192" height="144" viewBox="0 0 192 144" version="1.1">
	<path d="M 92.550 4.911 C 102.237 24.992, 103.216 46.362, 95.507 69.500 C 90.626 84.153, 89.600 89.430, 89.577 100 C 89.548 113.684, 92.289 126.146, 98.210 139.250 L 100.357 144 146.178 144 L 192 144 192 72 L 192 0 141.090 0 L 90.181 0 92.550 4.911 M 150.020 56.695 C 139.794 61.998, 139.364 75.983, 149.241 82.005 C 160.648 88.960, 174.490 76.763, 169.459 64.190 C 166.350 56.418, 157.291 52.925, 150.020 56.695 M 30.500 57.162 C 19.203 63.383, 16.911 75.963, 25.508 84.561 C 30.808 89.860, 36.237 91.089, 42.783 88.470 C 53.727 84.091, 56.923 71.004, 49.270 61.909 C 44.806 56.604, 35.697 54.300, 30.500 57.162" stroke="none" fill="black" fill-rule="evenodd"/>
</svg>