<svg xmlns="http://www.w3.org/2000/svg" width="192" height="144" viewBox="0 0 192 144" version="1.1">
	<path d="M 0 11.607 C 0 21.780, 0.195 23.139, 1.582 22.607 C 2.452 22.273, 4.529 22, 6.198 22 C 8.896 22, 9.180 21.722, 8.755 19.500 C 8.492 18.125, 8.665 17, 9.139 17 C 9.612 17, 10 16.425, 10 15.722 C 10 15.019, 10.900 13.674, 12 12.732 C 13.100 11.790, 14 10.371, 14 9.578 C 14 8.785, 15.351 7.174, 17.002 5.999 C 18.653 4.823, 20.469 2.992, 21.037 1.930 C 22.029 0.077, 21.628 0, 11.035 0 L 0 0 0 11.607 M 45.750 0.662 C 46.438 0.940, 47.563 0.940, 48.250 0.662 C 48.938 0.385, 48.375 0.158, 47 0.158 C 45.625 0.158, 45.063 0.385, 45.750 0.662 M 51 0.883 C 51 1.369, 51.788 2.023, 52.750 2.336 C 53.712 2.650, 57.425 4.500, 61 6.448 C 64.575 8.397, 68.502 9.993, 69.727 9.995 C 70.995 9.998, 72.659 11.076, 73.592 12.500 C 74.511 13.903, 76.188 15, 77.414 15 C 79.694 15, 79.643 14.773, 79.905 26.250 C 79.942 27.868, 80.527 29, 81.325 29 C 82.709 29, 82.720 35.741, 81.357 48.750 C 80.659 55.416, 81.846 55.544, 88.336 49.500 C 93.700 44.505, 94 44.347, 94 46.519 C 94 47.655, 94.694 47.887, 96.750 47.438 C 98.757 47, 99.113 47.109, 98.066 47.842 C 96.962 48.615, 97.423 48.942, 100.066 49.263 C 102.442 49.551, 101.758 49.729, 97.845 49.840 C 92.953 49.978, 91.617 50.478, 87.949 53.543 C 85.616 55.492, 82.874 57.532, 81.854 58.078 C 79.256 59.469, 79.500 60.441, 83.586 64.964 C 87.053 68.801, 87.253 68.881, 89.586 67.352 C 90.914 66.482, 92 65.147, 92 64.385 C 92 63.623, 92.640 63, 93.423 63 C 94.206 63, 96.169 61.888, 97.784 60.528 C 99.400 59.168, 101.034 58.367, 101.414 58.747 C 101.794 59.128, 101.826 58.711, 101.485 57.821 C 101.143 56.931, 101.344 55.905, 101.932 55.542 C 102.545 55.163, 103 55.685, 103 56.767 C 103 57.804, 101.379 59.968, 99.399 61.576 C 97.418 63.184, 95.281 64.980, 94.649 65.567 C 94.017 66.153, 92.263 67.442, 90.750 68.432 C 87.481 70.569, 87.205 72.559, 90.074 73.309 C 91.215 73.607, 92.404 74.828, 92.716 76.022 C 93.184 77.813, 93.793 78.091, 96.192 77.612 C 99.752 76.900, 99.029 78.656, 95.153 80.136 C 92.692 81.076, 92.628 81.244, 94.273 82.452 C 95.940 83.676, 95.917 83.789, 93.893 84.318 C 92.249 84.748, 91.931 85.309, 92.547 86.690 C 92.991 87.686, 93.357 90.188, 93.361 92.250 C 93.367 95.996, 95.230 97.449, 96.335 94.570 C 96.645 93.761, 98.972 92.839, 101.692 92.447 C 105.943 91.835, 112.587 89.520, 117 87.114 C 117.825 86.664, 118.644 85.329, 118.820 84.148 C 118.995 82.967, 119.558 81.944, 120.070 81.875 C 120.581 81.806, 121.450 81.638, 122 81.500 C 122.550 81.362, 123.450 81.194, 124 81.125 C 124.550 81.056, 125 79.789, 125 78.309 C 125 75.744, 125.066 75.708, 126.415 77.553 C 127.465 78.989, 127.530 79.678, 126.665 80.228 C 124.779 81.428, 127.813 81.171, 130.121 79.935 C 131.216 79.349, 132.648 79.071, 133.305 79.316 C 133.962 79.561, 133.262 80.254, 131.750 80.856 C 128.350 82.209, 128.267 82.750, 131.458 82.750 C 133.201 82.750, 134.197 81.985, 134.879 80.125 L 135.842 77.500 135.921 80.214 C 135.980 82.255, 135.109 83.533, 132.404 85.371 C 128.311 88.152, 125.457 92.629, 127.337 93.318 C 127.977 93.552, 126.808 94.077, 124.739 94.485 C 122.670 94.893, 120.731 95.626, 120.430 96.113 C 120.129 96.601, 118.945 97, 117.801 97 C 114.619 97, 99.851 102.068, 96.750 104.224 C 95.238 105.276, 94 107, 94 108.055 C 94 110.580, 84.583 120, 82.058 120 C 80.975 120, 78.381 121.159, 76.294 122.575 C 74.207 123.991, 71.253 125.399, 69.729 125.704 C 68.205 126.009, 66.695 126.685, 66.373 127.206 C 66.051 127.727, 66.367 131.723, 67.075 136.084 L 68.363 144.015 130.431 143.758 L 192.500 143.500 192.422 135 C 192.379 130.325, 192.267 98.038, 192.172 63.250 L 192 0 121.500 0 C 81.372 0, 51 0.381, 51 0.883 M 128 27.382 C 128 28.207, 128.450 29.160, 129 29.500 C 129.550 29.840, 130 29.443, 130 28.618 C 130 27.793, 129.550 26.840, 129 26.500 C 128.450 26.160, 128 26.557, 128 27.382 M 96.575 43.129 C 95.516 44.158, 95.124 45, 95.703 45 C 96.857 45, 99.523 42.162, 98.893 41.605 C 98.677 41.414, 97.634 42.100, 96.575 43.129 M 100.500 46 C 100.160 46.550, 100.359 47, 100.941 47 C 101.523 47, 102 46.550, 102 46 C 102 45.450, 101.802 45, 101.559 45 C 101.316 45, 100.840 45.450, 100.500 46 M 88.001 55.785 C 88 56.730, 88.494 56.806, 89.869 56.070 C 90.896 55.520, 92.021 55.355, 92.369 55.702 C 92.716 56.049, 93 55.856, 93 55.272 C 93 54.689, 91.875 54.276, 90.501 54.356 C 89.126 54.435, 88.001 55.078, 88.001 55.785 M 95.286 55.619 C 95.626 55.960, 95.251 56.892, 94.452 57.690 C 92.671 59.472, 92.546 61.333, 94.250 60.708 C 94.938 60.456, 95.388 59.744, 95.250 59.125 C 95.112 58.506, 95.450 58, 96 58 C 96.550 58, 97 57.325, 97 56.500 C 97 55.675, 96.475 55, 95.833 55 C 95.192 55, 94.945 55.279, 95.286 55.619 M 99 65 C 99 65.550, 99.477 66, 100.059 66 C 100.641 66, 100.840 65.550, 100.500 65 C 100.160 64.450, 99.684 64, 99.441 64 C 99.198 64, 99 64.450, 99 65 M 93.500 71.979 C 95.150 72.404, 97.400 73.070, 98.500 73.458 C 100.472 74.153, 100.473 74.141, 98.559 72.582 C 97.491 71.712, 95.241 71.046, 93.559 71.102 L 90.500 71.205 93.500 71.979 M 101 73.393 C 101 73.609, 101.698 74.054, 102.552 74.382 C 103.442 74.723, 103.843 74.555, 103.493 73.989 C 102.906 73.038, 101 72.583, 101 73.393 M 113.250 80.031 C 112.013 80.529, 111 81.400, 111 81.968 C 111 83.550, 112.534 83.203, 115.139 81.033 C 117.654 78.938, 116.928 78.553, 113.250 80.031 M 163 85 C 163 85.550, 163.702 86, 164.559 86 C 165.416 86, 165.840 85.550, 165.500 85 C 165.160 84.450, 164.459 84, 163.941 84 C 163.423 84, 163 84.450, 163 85 M 124.029 87.961 C 123.220 88.473, 122.818 89.152, 123.136 89.470 C 123.455 89.788, 124.284 89.362, 124.980 88.524 C 126.423 86.786, 126.146 86.622, 124.029 87.961 M 103.863 93.917 C 98.684 94.643, 96.541 96.053, 94.438 100.120 C 92.707 103.467, 94.050 104.707, 96.487 102.014 C 97.452 100.948, 99.824 99.553, 101.757 98.915 C 103.690 98.277, 106.849 96.685, 108.776 95.378 C 112.523 92.835, 112.223 92.745, 103.863 93.917 M 117.675 100.658 C 116.918 101.415, 118.811 104, 120.122 104 C 120.605 104, 121 103.100, 121 102 C 121 100.078, 119.044 99.289, 117.675 100.658 M 1 128.891 C 1 129.962, 7.939 130.908, 8.549 129.920 C 9.014 129.169, 5.567 128.036, 2.750 128.014 C 1.788 128.006, 1 128.401, 1 128.891 M 40.695 128.750 C 40.018 129.950, 40.535 139.339, 41.378 141.163 C 41.922 142.338, 41.613 142.963, 40.323 143.297 C 39.321 143.556, 40.387 143.820, 42.693 143.884 C 47.337 144.012, 50 141.581, 50 137.212 C 50 135.923, 50.501 133.932, 51.113 132.788 C 52.093 130.958, 51.984 130.771, 50.208 131.235 C 49.096 131.526, 46.910 130.920, 45.344 129.888 C 42.229 127.835, 41.335 127.616, 40.695 128.750 M 1 137.500 C 1 141.167, 1.436 144, 2 144 C 2.550 144, 3.002 142.762, 3.004 141.250 C 3.006 139.738, 3.873 137.081, 4.930 135.347 L 6.852 132.195 4.676 131.611 C 3.479 131.290, 2.163 131.021, 1.750 131.014 C 1.337 131.006, 1 133.925, 1 137.500" stroke="none" fill="black" fill-rule="evenodd"/>
</svg>