<svg xmlns="http://www.w3.org/2000/svg" width="192" height="144" viewBox="0 0 192 144" version="1.1">
	<path d="M 185.943 50.107 C 185.322 51.266, 185.194 52.511, 185.657 52.872 C 186.121 53.234, 187.738 54.614, 189.250 55.939 L 192 58.349 192 53.174 C 192 48.341, 191.837 48, 189.535 48 C 188.052 48, 186.621 48.839, 185.943 50.107 M 128 81.991 C 128 82.536, 129.569 83.998, 131.488 85.241 C 133.406 86.483, 134.981 87.765, 134.988 88.089 C 135.018 89.556, 128.941 91.172, 121.395 91.705 C 116.863 92.024, 112.558 92.655, 111.828 93.107 C 109.705 94.419, 112.818 96.826, 118.024 97.897 C 126.161 99.572, 139.481 103.274, 140.653 104.187 C 142.495 105.620, 146.781 115.052, 148.067 120.500 C 151.025 133.034, 152.224 135.358, 157 137.814 C 162.838 140.817, 166.953 140.301, 179.161 135.034 C 184.298 132.818, 189.287 131.004, 190.250 131.002 C 191.833 131, 192 129.666, 192 117 C 192 104.059, 191.860 103, 190.155 103 C 189.140 103, 187.495 103.900, 186.500 105 C 185.505 106.100, 183.873 107, 182.875 107 C 181.877 107, 180.106 108.290, 178.941 109.866 C 177.776 111.442, 175.062 113.721, 172.911 114.930 L 168.999 117.128 168.060 114.657 C 167.543 113.298, 166.826 109.332, 166.466 105.843 C 166.085 102.145, 165.018 98.370, 163.906 96.790 C 162.858 95.300, 162 93.179, 162 92.076 C 162 89.478, 158.586 87.687, 154.716 88.255 C 152.626 88.562, 148.854 87.486, 142.780 84.852 C 134.210 81.134, 128 79.932, 128 81.991 M 94.762 143.707 C 96.006 143.946, 97.806 143.937, 98.762 143.687 C 99.718 143.437, 98.700 143.241, 96.500 143.252 C 94.300 143.263, 93.518 143.468, 94.762 143.707" stroke="none" fill="black" fill-rule="evenodd"/>
</svg>