<svg xmlns="http://www.w3.org/2000/svg" width="192" height="144" viewBox="0 0 192 144" version="1.1">
	<path d="M -0 72.005 L -0 144.010 96.250 143.755 L 192.500 143.500 192.757 71.750 L 193.013 0 96.507 0 L 0 0 -0 72.005 M 0.474 72.500 C 0.474 112.100, 0.598 128.154, 0.750 108.176 C 0.901 88.198, 0.901 55.798, 0.750 36.176 C 0.598 16.554, 0.474 32.900, 0.474 72.500 M 85.204 25.765 C 83.702 26.266, 83.632 31.445, 85.090 34.169 C 86.127 36.107, 85.981 36.173, 82.090 35.515 C 79.841 35.135, 78 35.214, 78 35.690 C 78 37.730, 81.389 41.087, 85.963 43.576 C 88.669 45.049, 91.121 46.872, 91.410 47.627 C 91.700 48.382, 92.520 49, 93.231 49 C 93.943 49, 94.970 50.011, 95.513 51.246 C 96.056 52.481, 97.737 54.080, 99.250 54.800 C 102.380 56.290, 102.971 59.949, 100.424 62.063 C 99.117 63.147, 98.692 63.126, 97.939 61.936 C 97.439 61.146, 97.024 59.520, 97.015 58.321 C 97.001 56.243, 94.646 53, 93.151 53 C 91.183 53, 88 56.394, 88 58.492 C 88 60.290, 88.831 61.171, 91.409 62.103 C 94.847 63.346, 96 65.707, 96 71.503 C 96 72.741, 96.666 74.308, 97.480 74.983 C 98.768 76.052, 98.616 76.816, 96.319 80.856 C 94.866 83.410, 92.287 87.009, 90.588 88.853 L 87.500 92.207 76.500 91.566 C 70.450 91.213, 59.650 90.288, 52.500 89.509 C 27.576 86.796, 26.289 86.724, 25.505 87.992 C 25.097 88.651, 25.335 90.258, 26.034 91.563 C 27.066 93.492, 28.391 94.058, 33.124 94.594 C 37.584 95.098, 39.084 95.690, 39.540 97.126 C 40.174 99.125, 43.912 99.688, 45.565 98.035 C 46.185 97.415, 49.743 97.728, 55.515 98.909 C 71.824 102.246, 73.102 102.325, 73.704 100.026 C 74.294 97.767, 77.583 97.465, 88.800 98.637 C 94.730 99.257, 94.902 99.358, 95.197 102.387 L 95.500 105.500 106.163 105.500 C 112.027 105.500, 117.156 105.829, 117.561 106.232 C 117.966 106.635, 118.385 108.210, 118.492 109.732 C 118.837 114.641, 118.976 115, 120.525 115 C 121.363 115, 122.524 113.763, 123.105 112.250 L 124.160 109.500 125.725 112.500 C 127.601 116.095, 128.826 117.004, 130.786 116.252 C 131.945 115.807, 132.124 114.464, 131.642 109.845 L 131.031 104 135.570 104 C 138.067 104, 142.028 104.874, 144.374 105.942 C 146.719 107.011, 154.146 108.809, 160.879 109.939 C 167.612 111.069, 174.106 112.537, 175.310 113.201 C 176.515 113.864, 177.950 114.435, 178.500 114.468 C 179.050 114.501, 181.218 115.129, 183.317 115.864 C 185.416 116.598, 187.404 116.929, 187.734 116.600 C 188.063 116.270, 187.808 116, 187.167 116 C 186.525 116, 186 115.564, 186 115.031 C 186 114.499, 186.753 114.352, 187.674 114.705 C 188.967 115.201, 189.193 114.946, 188.669 113.581 C 188.185 112.320, 188.564 111.665, 189.996 111.291 C 191.812 110.816, 192 109.932, 192 101.852 C 192 94.648, 191.697 92.821, 190.419 92.331 C 189.471 91.967, 189.034 90.979, 189.326 89.862 C 189.594 88.838, 189.373 88, 188.835 88 C 188.297 88, 187.215 87.357, 186.429 86.572 C 183.512 83.655, 165.267 83.334, 155.893 86.035 C 153.313 86.779, 152.260 86.691, 151.500 85.669 C 150.950 84.929, 149.825 84.030, 149 83.669 C 148.175 83.309, 149.188 83.146, 151.250 83.306 C 153.313 83.467, 154.993 83.351, 154.985 83.049 C 154.926 80.955, 152.281 79.881, 144.453 78.770 L 135.500 77.500 135.190 72.500 C 135.020 69.750, 134.512 67.128, 134.063 66.673 C 132.607 65.199, 124.861 68.212, 123.731 70.691 C 122.264 73.910, 121.271 73.585, 119.482 69.303 C 117.280 64.032, 117.943 63.157, 123.500 64 C 127.057 64.540, 128.301 64.378, 128.706 63.325 C 129.015 62.518, 129.987 62.178, 131.033 62.511 C 133.840 63.401, 137.761 62.022, 138.302 59.955 C 138.790 58.085, 134.707 54.166, 130.750 52.708 C 129.787 52.353, 129 51.414, 129 50.620 C 129 48.573, 123.263 44.003, 120.673 43.986 C 115.814 43.956, 114 42.857, 114 39.942 C 114 36.073, 115.315 35.573, 120.394 37.513 C 122.785 38.426, 125.804 39.022, 127.104 38.836 C 129.098 38.552, 128.378 37.813, 122.483 34.090 C 111.989 27.462, 101.680 27.261, 97.526 33.601 C 96.521 35.135, 94.997 36, 93.303 36 L 90.651 36 93.076 33.419 C 95.346 31.003, 95.389 30.758, 93.750 29.559 C 92.787 28.855, 92 27.767, 92 27.140 C 92 26.513, 91.662 25.962, 91.250 25.917 C 90.838 25.871, 89.579 25.728, 88.454 25.599 C 87.328 25.470, 85.866 25.545, 85.204 25.765 M 103.543 76.805 C 103.204 78.347, 101.368 81.801, 99.463 84.481 C 95.307 90.327, 94.978 93, 98.416 93 C 100.019 93, 101.822 91.737, 103.771 89.250 C 109.077 82.481, 109.383 81.355, 106.975 77.460 C 105.799 75.557, 104.684 74, 104.498 74 C 104.311 74, 103.882 75.262, 103.543 76.805 M 134.768 83.168 C 135.350 83.750, 136.415 84.028, 137.137 83.788 C 137.886 83.538, 137.432 83.085, 136.080 82.731 C 134.417 82.296, 134.026 82.426, 134.768 83.168" stroke="none" fill="black" fill-rule="evenodd"/>
</svg>