<svg xmlns="http://www.w3.org/2000/svg" width="192" height="144" viewBox="0 0 192 144" version="1.1">
	<path d="M -0 51.127 L -0 102.254 4.750 101.645 C 7.362 101.310, 11.075 100.783, 13 100.474 C 14.925 100.166, 17.962 99.687, 19.750 99.411 C 22.999 98.910, 24.491 96, 21.500 96 C 19.619 96, 19.614 94.860, 21.473 90.410 C 22.284 88.470, 23.236 84.704, 23.589 82.039 C 24.152 77.800, 23.973 77.056, 22.164 76.088 C 20.202 75.038, 20.170 74.770, 21.548 70.865 C 22.346 68.601, 23 63.950, 23 60.529 C 23 53.408, 24.869 50.599, 28.648 52.041 C 31.672 53.194, 32.134 54.292, 32.469 61.118 C 32.711 66.041, 33.250 67.652, 35.414 69.910 C 38.055 72.666, 38.139 75.349, 35.615 76.317 C 34.702 76.668, 34.571 78.732, 35.106 84.334 C 35.502 88.483, 36.142 92.873, 36.529 94.090 C 37.103 95.900, 36.920 96.183, 35.525 95.648 C 32.838 94.617, 31.674 95.982, 33.510 98.011 C 35.067 99.732, 34.881 99.875, 29.825 100.852 C 18.634 103.016, 11.070 104, 5.635 104 L 0 104 0 124 L 0 144 34.941 144 C 54.159 144, 70.091 143.662, 70.346 143.249 C 70.601 142.836, 70.561 136.738, 70.257 129.698 C 69.705 116.902, 69.704 116.898, 66.891 115.443 C 61.548 112.681, 61.140 107.235, 65.117 91.751 C 65.787 89.140, 66.115 86.781, 65.844 86.510 C 65.573 86.240, 62.910 86.636, 59.926 87.390 C 56.942 88.145, 52.700 89.113, 50.500 89.542 C 48.300 89.971, 45.825 90.472, 45 90.657 C 42.470 91.222, 39 90.038, 39 88.609 C 39 87.798, 40.643 86.993, 43.099 86.600 C 46.618 86.038, 47.021 85.730, 45.942 84.430 C 44.970 83.259, 44.955 82.645, 45.875 81.725 C 46.796 80.804, 47.198 81.041, 47.649 82.767 C 47.971 83.995, 48.876 85, 49.661 85 C 52.233 85, 64.476 81.747, 65.500 80.792 C 66.125 80.209, 65.437 80.121, 63.670 80.558 C 61.613 81.066, 60.109 80.719, 58.170 79.289 C 56.701 78.207, 52.462 76.312, 48.750 75.079 C 45.038 73.846, 42 72.424, 42 71.918 C 42 70.575, 43.757 70.793, 50.843 73.014 C 54.332 74.108, 57.566 74.768, 58.030 74.481 C 60.846 72.741, 66.013 57.854, 65.308 53.510 C 64.879 50.869, 65.275 49.929, 67.580 48.115 L 70.372 45.919 68.159 43.710 C 65.163 40.720, 61.262 35.081, 59.948 31.843 C 59.355 30.382, 56.311 26.939, 53.185 24.192 C 50.058 21.445, 43 14.898, 37.500 9.644 L 27.500 0.089 13.750 0.045 L 0 0 -0 51.127 M 45.493 14.410 C 53.739 22.298, 61.006 28.551, 61.642 28.307 C 62.278 28.063, 63.102 28.356, 63.474 28.958 C 63.913 29.669, 65.213 29.157, 67.190 27.493 C 70.093 25.051, 70.674 24.954, 80.037 25.360 C 90.896 25.831, 92.482 26.317, 91.119 28.753 C 90.552 29.765, 90.631 31.291, 91.330 32.825 C 92.346 35.054, 92.061 35.612, 88.221 38.919 L 83.993 42.560 85.004 50.528 C 85.681 55.874, 85.682 58.606, 85.007 58.831 C 83.677 59.274, 83.717 64.603, 85.069 67.130 C 85.819 68.530, 85.824 69.508, 85.086 70.396 C 84.340 71.295, 84.407 72.174, 85.315 73.417 C 86.519 75.062, 87.231 74.954, 96.993 71.646 C 102.711 69.708, 107.777 68.362, 108.250 68.655 C 108.723 68.947, 108.968 69.930, 108.793 70.838 C 108.578 71.953, 105.388 73.487, 98.990 75.554 C 92.891 77.524, 89.397 79.177, 89.203 80.183 C 88.810 82.225, 89.355 82.399, 104.835 85.156 C 112.259 86.478, 117.843 87.936, 117.642 88.500 C 117.159 89.859, 108.078 89.301, 99.196 87.366 C 95.178 86.491, 91.677 85.989, 91.415 86.251 C 90.762 86.904, 95.985 99.075, 97.873 101.300 C 100.430 104.313, 99.821 109.897, 96.637 112.635 C 94.109 114.810, 93.969 115.287, 94.984 118.256 C 96.592 122.960, 99.128 136.959, 99.060 140.750 L 99.001 144 145.501 144 L 192 144 192 72 L 192 0 150.878 0 C 113.668 0, 109.879 0.149, 111.055 1.566 C 115.302 6.683, 124.009 7.115, 139.500 2.977 C 144.860 1.545, 148.820 1.047, 151.500 1.468 C 155.024 2.022, 157.290 2.269, 164.215 2.855 C 167.271 3.113, 172.898 8.938, 173.574 12.544 C 174.878 19.492, 167.128 29, 160.161 29 C 154.697 29, 150.107 24.464, 149.030 18 C 148.472 14.651, 148.276 14.507, 144.474 14.653 C 120.561 15.575, 120.649 15.580, 116.345 13.278 C 114.059 12.056, 111.212 9.806, 110.017 8.278 C 108.822 6.750, 106.642 5.272, 105.172 4.994 C 103.363 4.651, 102.397 3.763, 102.180 2.244 L 101.861 0 66.180 0.035 L 30.500 0.070 45.493 14.410 M 186.991 19.511 C 185.986 20.722, 186.047 21, 187.319 21 C 189.185 21, 190.406 19.369, 189.130 18.580 C 188.633 18.273, 187.671 18.692, 186.991 19.511 M 113.188 38.063 C 113.428 38.784, 114.216 39.572, 114.938 39.813 C 115.688 40.063, 116.063 39.688, 115.813 38.938 C 115.572 38.216, 114.784 37.428, 114.063 37.188 C 113.313 36.938, 112.938 37.313, 113.188 38.063 M 150.510 47.016 C 150.856 47.575, 151.557 47.774, 152.069 47.457 C 153.456 46.600, 153.198 46, 151.441 46 C 150.584 46, 150.165 46.457, 150.510 47.016 M 160.496 56.007 C 159.701 57.292, 162.510 58.402, 164.563 57.614 C 166.567 56.845, 165.464 55, 163 55 C 161.965 55, 160.838 55.453, 160.496 56.007 M 65.985 68.301 C 63.647 73.587, 64.287 77, 67.617 77 C 69.477 77, 70 76.464, 70 74.559 C 70 73.216, 69.580 71.858, 69.066 71.541 C 68.552 71.223, 68.386 69.397, 68.697 67.482 C 69.465 62.747, 68.284 63.103, 65.985 68.301 M 29 94.883 C 29 95.369, 28.055 96.014, 26.899 96.316 C 24.403 96.969, 25.280 99, 28.059 99 C 29.463 99, 30 98.308, 30 96.500 C 30 95.125, 29.775 94, 29.500 94 C 29.225 94, 29 94.398, 29 94.883 M 79.883 117.703 C 77.549 118.063, 77.198 118.670, 76.642 123.304 C 75.842 129.960, 75.823 140.375, 76.607 142.418 C 77.098 143.698, 78.930 144, 86.214 144 C 94.397 144, 95.148 143.841, 94.484 142.250 C 94.082 141.287, 93.377 138.610, 92.916 136.299 C 92.456 133.989, 91.092 128.702, 89.885 124.549 C 87.509 116.373, 87.693 116.498, 79.883 117.703 M 173.728 131.605 C 172.639 132.694, 173.955 134, 176.142 134 C 177.317 134, 177.992 133.475, 177.750 132.750 C 177.275 131.322, 174.735 130.599, 173.728 131.605" stroke="none" fill="black" fill-rule="evenodd"/>
</svg>