<svg xmlns="http://www.w3.org/2000/svg" width="192" height="144" viewBox="0 0 192 144" version="1.1">
	<path d="M 0 57.057 L 0 114.115 4.250 113.807 L 8.500 113.500 9 106.399 C 9.524 98.958, 10.981 96, 14.122 96 C 15.598 96, 16 95.258, 16 92.535 C 16 90.076, 16.590 88.755, 18.032 87.983 C 19.149 87.385, 19.937 86.178, 19.782 85.302 C 19.627 84.425, 20.134 83.487, 20.909 83.217 C 21.917 82.867, 22.124 83.234, 21.635 84.508 C 21.214 85.605, 21.626 87.035, 22.706 88.228 C 23.722 89.351, 24.338 91.345, 24.168 92.964 C 23.923 95.294, 24.380 95.937, 26.902 96.816 C 30.416 98.041, 31.552 101.144, 30.621 106.968 C 29.950 111.166, 30.673 114.320, 32.105 113.435 C 32.597 113.131, 33.002 111.221, 33.005 109.191 C 33.008 106.803, 33.855 104.444, 35.405 102.506 L 37.800 99.513 39.339 103.006 C 40.185 104.928, 41.123 107.674, 41.423 109.109 C 41.903 111.412, 42.585 111.792, 47.234 112.350 C 50.130 112.698, 55.909 112.987, 60.076 112.991 C 66.858 112.999, 67.897 113.262, 70 115.500 C 71.292 116.875, 72.720 118, 73.174 118 C 73.628 118, 74.010 114.513, 74.022 110.250 C 74.039 104.308, 74.470 101.947, 75.868 100.129 L 77.691 97.758 79.811 100.735 C 81.858 103.609, 81.910 104.417, 81.308 123.856 L 80.684 144 136.183 144 L 191.681 144 192.338 120.750 C 192.700 107.963, 192.996 75.563, 192.998 48.750 L 193 0 96.500 0 L 0 0 0 57.057 M 0.468 57.500 C 0.468 88.850, 0.595 101.530, 0.750 85.679 C 0.904 69.827, 0.904 44.177, 0.749 28.679 C 0.594 13.180, 0.468 26.150, 0.468 57.500 M 119.476 33.443 C 117.984 35.399, 116.114 37, 115.322 37 C 114.530 37, 114.119 37.384, 114.410 37.854 C 114.700 38.323, 113.801 39.225, 112.412 39.858 C 109.522 41.175, 109.988 43.077, 113.006 42.288 C 116.663 41.332, 118.250 43.820, 117.574 49.448 C 117.145 53.021, 117.411 55.338, 118.484 57.364 C 120.678 61.509, 120.376 63.334, 117 66.342 C 115.350 67.813, 114 69.462, 114 70.008 C 114 70.553, 113.048 71, 111.883 71 C 110.176 71, 109.883 71.435, 110.370 73.250 C 110.701 74.487, 110.979 75.823, 110.986 76.219 C 110.994 76.614, 111.681 76.676, 112.513 76.357 C 113.345 76.037, 114.582 76.228, 115.263 76.781 C 115.943 77.333, 117.400 77.952, 118.500 78.156 C 119.600 78.360, 120.556 79.084, 120.625 79.764 C 120.694 80.444, 120.806 81.450, 120.875 82 C 121.159 84.276, 123.890 82.777, 124.497 80.011 C 124.858 78.368, 125.589 76.754, 126.121 76.425 C 127.463 75.596, 130 77.889, 130 79.931 C 130 80.859, 130.626 82.474, 131.392 83.521 C 132.600 85.174, 133.005 85.241, 134.461 84.032 C 135.384 83.266, 135.925 81.821, 135.663 80.820 C 135.027 78.387, 137.093 78.499, 140.365 81.073 C 142.626 82.851, 143 82.913, 143 81.510 C 143 80.551, 143.724 79.948, 144.750 80.052 C 148.475 80.431, 149.889 79.927, 150.500 78 C 150.849 76.900, 151.835 76, 152.690 76 C 153.807 76, 153.960 75.648, 153.233 74.750 C 151.865 73.061, 151.971 68.008, 153.375 67.968 C 153.994 67.951, 153.719 67.344, 152.766 66.619 C 151.812 65.895, 151.253 65.080, 151.525 64.808 C 151.797 64.536, 150.675 63.284, 149.032 62.025 C 147.390 60.766, 146.247 59.409, 146.494 59.010 C 146.740 58.611, 144.818 58.385, 142.221 58.509 C 136.284 58.791, 135.851 58.523, 137.066 55.326 C 138.378 51.875, 137.889 51.602, 133.608 53.390 C 130.185 54.821, 130 54.798, 130 52.957 C 130 51.889, 130.883 49.999, 131.963 48.758 C 133.043 47.516, 133.830 46.210, 133.713 45.855 C 133.596 45.500, 134.360 44.260, 135.411 43.099 C 137.681 40.591, 137.628 40.523, 132.500 39.349 C 128.790 38.500, 128.464 38.146, 128 34.467 C 127.572 31.071, 127.118 30.456, 124.845 30.193 C 122.788 29.955, 121.577 30.688, 119.476 33.443" stroke="none" fill="black" fill-rule="evenodd"/>
</svg>