<svg xmlns="http://www.w3.org/2000/svg" width="192" height="144" viewBox="0 0 192 144" version="1.1">
	<path d="M 75.024 42.167 C 75.038 42.900, 75.489 45.407, 76.027 47.738 C 78.201 57.161, 78.890 65.147, 77.746 67.658 C 76.850 69.624, 76.951 70.791, 78.235 73.317 C 79.125 75.068, 80.088 77.850, 80.376 79.500 C 80.664 81.150, 81.337 84.814, 81.873 87.643 C 83.354 95.475, 83.459 115.645, 82.058 123.500 C 79.761 136.379, 79.676 137.318, 80.875 136.577 C 81.519 136.179, 82 136.528, 82 137.394 C 82 138.226, 82.522 140.052, 83.161 141.453 C 84.191 143.714, 84.914 144, 89.593 144 C 95.409 144, 95.400 144.011, 96.510 136 C 97.005 132.423, 96.609 130.320, 94.579 125.750 L 92.025 120 96.058 120 C 99.020 120, 100.751 119.340, 102.575 117.516 C 104.890 115.201, 105.015 114.572, 104.410 108.266 C 104.054 104.545, 102.896 98.266, 101.838 94.314 C 99.665 86.200, 99.237 78.592, 100.402 68.815 C 101.593 58.815, 99.063 53, 93.520 53 C 92.634 53, 90.754 54.155, 89.343 55.566 C 87.337 57.572, 86.905 58.774, 87.363 61.066 C 88.029 64.397, 87.057 64.739, 83.515 62.418 C 81.665 61.206, 80.744 59.158, 79.580 53.668 C 78.744 49.725, 77.934 45.410, 77.780 44.078 C 77.489 41.561, 74.981 39.822, 75.024 42.167 M 183.993 78.087 C 179.687 82.461, 178.001 84.924, 178.004 86.837 C 178.008 89.844, 181.403 96, 183.057 96 C 183.654 96, 184.783 96.640, 185.566 97.423 C 186.349 98.206, 188.103 99.722, 189.464 100.793 C 191.834 102.657, 191.952 103.284, 192.252 115.620 C 192.468 124.484, 192.631 121.796, 192.776 107 C 192.995 84.510, 192.307 72, 190.849 72 C 190.375 72, 187.290 74.739, 183.993 78.087 M 84.200 74.200 C 82.409 75.991, 82.744 78.195, 84.750 77.813 C 85.713 77.630, 86.644 76.472, 86.820 75.240 C 87.171 72.778, 86.062 72.338, 84.200 74.200 M 1 105.815 L 1 129.630 4.704 131.396 C 8.247 133.085, 8.465 133.085, 9.704 131.390 C 11.780 128.552, 11.237 127.126, 7.486 125.559 C 5.553 124.751, 3.721 123.437, 3.415 122.638 C 2.855 121.180, 7.206 113.369, 9.619 111.500 C 11.164 110.303, 13 105.639, 13 102.910 C 13 101.542, 12.114 100.773, 10.068 100.364 L 7.135 99.777 7.698 93.066 C 8.358 85.193, 7.136 82, 3.465 82 L 1 82 1 105.815 M 83.885 83.050 C 83.489 88.029, 84.923 95.165, 86.165 94.398 C 87.514 93.565, 86.700 84.300, 85.141 82.741 C 84.286 81.886, 83.971 81.964, 83.885 83.050" stroke="none" fill="black" fill-rule="evenodd"/>
</svg>