<svg xmlns="http://www.w3.org/2000/svg" width="192" height="144" viewBox="0 0 192 144" version="1.1">
	<path d="M 0.033 23.250 L 0.066 46.500 2.828 50.495 C 6.244 55.436, 7.889 55.806, 11.804 52.511 L 14.875 49.927 22.041 55.464 C 25.982 58.509, 30.055 61, 31.091 61 C 32.999 61, 37.045 55.589, 38.450 51.159 C 39.027 49.340, 39.674 48.959, 41.346 49.450 C 51.777 52.517, 59.551 54.079, 61.699 53.539 C 64.020 52.957, 64.202 52.544, 63.720 48.952 C 63.297 45.797, 60.573 39.198, 56.229 30.804 C 56.031 30.421, 57.586 29.208, 59.685 28.109 C 61.783 27.009, 64.832 25.017, 66.460 23.682 C 68.857 21.715, 69.237 20.881, 68.460 19.288 C 67.437 17.194, 57.472 7.923, 54.387 6.197 C 52.635 5.216, 52.629 5.067, 54.271 3.253 C 55.222 2.202, 56 1.040, 56 0.671 C 56 0.302, 43.400 0, 28 0 L 0 0 0.033 23.250 M 99.599 2.055 C 94.153 3.054, 89.323 4.463, 88.864 5.186 C 87.652 7.097, 87.808 9.826, 89.515 16.540 C 93.315 31.490, 102.978 44.820, 113.994 50.310 C 120.641 53.622, 122.261 52.889, 125.846 44.947 C 127.306 41.712, 128.838 39.051, 129.250 39.033 C 129.662 39.015, 130.007 42.263, 130.015 46.250 C 130.024 50.237, 130.361 53.995, 130.765 54.600 C 132.338 56.956, 136.648 58.261, 144.410 58.732 C 158.913 59.612, 170.405 54.790, 180.709 43.500 C 187.088 36.511, 190.381 30.650, 189.621 27.634 C 189.270 26.241, 185.567 23.424, 178.949 19.516 C 168.943 13.607, 155 2.800, 155 0.952 C 155 0.374, 146.062 0.047, 132.250 0.120 C 114.988 0.210, 107.111 0.677, 99.599 2.055 M 147.623 71.286 C 146.269 72.640, 143.970 76.099, 142.514 78.973 C 140.530 82.888, 139.444 84.058, 138.183 83.641 C 113.511 75.467, 108.169 76.096, 111.349 86.803 C 112.132 89.439, 114.311 94.828, 116.192 98.776 L 119.612 105.956 111.937 110.415 C 107.716 112.868, 103.985 115.596, 103.647 116.477 C 102.930 118.347, 108.609 124.894, 117.097 131.984 L 122.694 136.659 119.630 140.079 L 116.566 143.500 121.783 143.802 C 124.652 143.969, 129.337 143.969, 132.193 143.802 L 137.385 143.500 133.140 139.469 C 130.099 136.581, 129.085 134.943, 129.564 133.694 C 130.121 132.242, 130.501 132.163, 131.823 133.224 C 132.875 134.068, 132.666 133.276, 131.206 130.882 C 129.993 128.892, 129.012 126.192, 129.027 124.882 C 129.053 122.612, 129.196 122.664, 132.098 126 C 135.426 129.826, 135.430 129.726, 132.210 122.675 C 130.259 118.402, 130.177 117.680, 131.496 116.361 C 132.315 115.542, 133.438 115.153, 133.992 115.495 C 134.547 115.838, 135 115.416, 135 114.559 C 135 112.584, 136.388 112.557, 138 114.500 C 139.698 116.545, 141.085 116.393, 140.281 114.250 C 139.687 112.663, 139.800 112.639, 141.500 114 C 143.186 115.349, 143.313 115.335, 142.762 113.863 C 140.877 108.824, 150.440 117.083, 157.707 126.771 C 160.168 130.052, 171.396 134.883, 181.451 136.988 C 187.341 138.221, 187.426 138.206, 189.701 135.561 C 192.146 132.719, 192.731 128.131, 190.884 126.284 C 190.063 125.463, 190.195 124.559, 191.384 122.862 C 193.151 120.340, 193.399 114.774, 192.346 101.250 C 191.830 94.620, 191.389 92.999, 190.102 92.996 C 189.142 92.994, 187.746 91.158, 186.618 88.416 C 184.235 82.622, 180.378 78, 177.927 78 C 176.884 78, 174.577 79.299, 172.800 80.888 L 169.568 83.775 162.534 78.053 C 158.665 74.906, 154.281 71.542, 152.792 70.578 C 150.148 68.866, 150.026 68.883, 147.623 71.286 M 10.463 74.435 C 8.059 80.189, 6.745 87.912, 7.212 93.546 C 7.644 98.749, 8.443 100.400, 13.591 106.724 L 16.216 109.948 10.128 107.474 C 0.847 103.703, 1 103.595, 1 113.886 L 1 122.773 5.418 123.435 C 11.839 124.398, 12.769 126.077, 8.982 129.864 C 7.287 131.559, 4.573 133.730, 2.950 134.688 C 0.653 136.045, -0 137.145, -0 139.657 C -0 144.211, 1.486 144.592, 5.245 141 C 9.751 136.694, 16.726 132.681, 18.512 133.366 C 19.556 133.767, 20 135.437, 20 138.969 L 20 144 30.500 144 C 42.178 144, 42.256 143.942, 39.500 137.346 C 37.264 131.994, 37.651 131.497, 41.250 135.101 C 43.038 136.890, 46.501 139.625, 48.946 141.177 C 53.339 143.966, 53.579 144, 69.137 144 C 79.818 144, 85.108 143.634, 85.585 142.863 C 86.558 141.288, 67.640 123.376, 61.945 120.480 C 59.439 119.206, 55.733 117.853, 53.708 117.473 L 50.027 116.782 55.797 113.053 C 63.714 107.936, 68.503 102.099, 73.481 91.500 C 75.805 86.550, 78.670 80.509, 79.847 78.076 C 81.023 75.643, 81.731 73.397, 81.419 73.085 C 80.627 72.294, 63.134 78.462, 53.488 82.933 C 47.703 85.615, 43.880 88.268, 39.738 92.478 C 36.582 95.684, 34 98.688, 34 99.154 C 34 99.619, 33.502 100, 32.893 100 C 32.284 100, 32.032 99.359, 32.333 98.575 C 33.595 95.287, 30.609 89.586, 23.355 81.434 C 19.220 76.786, 14.960 72.514, 13.888 71.940 C 12.203 71.038, 11.741 71.375, 10.463 74.435" stroke="none" fill="black" fill-rule="evenodd"/>
</svg>