<svg xmlns="http://www.w3.org/2000/svg" width="192" height="144" viewBox="0 0 192 144" version="1.1">
	<path d="M 0 72 L 0 144 17 144 C 28.926 144, 34 143.664, 34 142.875 C 34 142.149, 32.894 141.971, 30.878 142.374 C 28.218 142.906, 27.936 142.783, 28.968 141.538 C 29.635 140.735, 30.973 139.826, 31.941 139.519 C 34.297 138.771, 55.032 110.970, 58.835 103.459 C 64.867 91.547, 66 87.514, 66 77.963 C 66 69.667, 65.851 69, 64 69 C 61.624 69, 61.624 69.001, 63.475 62.047 C 64.273 59.047, 64.830 56.572, 64.713 56.547 C 61.483 55.842, 54.907 45.539, 53.513 39 C 52.448 34.005, 53.928 33.463, 63.268 35.422 C 71.678 37.187, 71.715 37.186, 75.993 35.003 C 84.177 30.829, 98 31.789, 98 36.533 C 98 37.205, 98.619 38.269, 99.375 38.897 C 101.678 40.808, 103.531 48.920, 102.164 51.109 C 101.524 52.134, 101 53.742, 101 54.683 C 101 55.623, 99.833 58.076, 98.407 60.134 C 94.658 65.544, 95.674 69.367, 101.603 72.153 C 107.825 75.078, 109.401 77.952, 111.268 89.778 C 112.886 100.027, 112.906 100.073, 118.441 106.278 C 123.800 112.285, 125.100 115.202, 123 116.500 C 121.181 117.624, 121.881 121.828, 124 122.500 C 126.328 123.239, 126.623 124.824, 124.578 125.608 C 122.575 126.377, 119.257 124.384, 118.484 121.948 C 117.945 120.251, 117.571 120.111, 116.331 121.140 C 114.763 122.442, 114.833 123.851, 117.161 137.762 L 118.210 144.024 155.355 143.762 L 192.500 143.500 192.757 71.750 L 193.013 0 96.507 0 L 0 0 0 72 M 0.474 72.500 C 0.474 112.100, 0.598 128.154, 0.750 108.176 C 0.901 88.198, 0.901 55.798, 0.750 36.176 C 0.598 16.554, 0.474 32.900, 0.474 72.500 M 81.500 120.283 C 79.850 123.153, 78.050 125.500, 77.500 125.500 C 76.950 125.500, 75.409 126.591, 74.075 127.925 C 71.756 130.244, 71.616 130.266, 70.895 128.425 C 70.480 127.366, 70.109 127.084, 70.070 127.798 C 70.032 128.512, 68.937 130.087, 67.639 131.298 C 66.340 132.509, 63.602 135.863, 61.553 138.750 L 57.830 144 65.837 144 L 73.845 144 76.928 134.250 C 78.624 128.887, 81.359 122.572, 83.006 120.215 C 86.156 115.706, 86.471 114.979, 85.250 115.033 C 84.838 115.052, 83.150 117.414, 81.500 120.283" stroke="none" fill="black" fill-rule="evenodd"/>
</svg>