<svg xmlns="http://www.w3.org/2000/svg" width="192" height="144" viewBox="0 0 192 144" version="1.1">
	<path d="M 0 72.013 L 0 144.026 35.102 143.763 L 70.203 143.500 72.556 134.193 C 73.850 129.075, 76.054 122.023, 77.454 118.523 C 78.854 115.023, 80 110.312, 80 108.055 C 80 104.569, 79.613 103.803, 77.435 102.975 C 73.406 101.443, 72.332 101.784, 70.991 105.021 C 69.275 109.164, 67.813 109.834, 69.206 105.839 C 70.053 103.408, 70.043 102.514, 69.166 102.222 C 68.525 102.008, 68 100.611, 68 99.118 C 68 96.215, 66.615 95.442, 57 92.983 C 54.525 92.349, 51.600 90.816, 50.500 89.575 C 49.174 88.080, 46.836 87.095, 43.564 86.653 C 38.338 85.948, 31.821 83.194, 31.294 81.468 C 31.111 80.869, 33.156 80.341, 36.164 80.210 C 39.015 80.086, 41.551 79.783, 41.798 79.535 C 42.846 78.488, 40.899 76, 39.031 76 C 37.596 76, 36.996 75.340, 36.985 73.750 C 36.977 72.513, 36.281 69.519, 35.438 67.098 C 33.793 62.375, 34.788 59.388, 37.202 61.802 C 39.136 63.736, 44 57.751, 44 53.438 C 44 49.643, 45.454 48.803, 46.316 52.101 C 46.618 53.256, 47.272 53.950, 47.770 53.642 C 49.790 52.393, 52.893 56.101, 53.562 60.565 C 53.936 63.059, 54.863 65.720, 55.621 66.478 C 56.379 67.237, 57 68.354, 57 68.962 C 57 70.377, 51.003 76.393, 47.980 78.011 L 45.664 79.250 48.050 80.527 C 49.387 81.242, 51.911 81.564, 53.791 81.259 C 56.168 80.873, 58.291 81.357, 61.069 82.919 C 65.188 85.234, 66.991 85.013, 67.014 82.191 C 67.022 81.261, 68.765 77.314, 70.888 73.420 C 74.936 65.995, 77.403 57.564, 78.472 47.500 C 79.265 40.033, 82.479 29.932, 85.136 26.554 L 87.145 24 84.041 24 C 82.218 24, 80.702 23.387, 80.367 22.515 C 79.610 20.541, 85.534 7.988, 87.197 8.044 C 90.148 8.143, 95.945 10.862, 99.783 13.946 C 103.355 16.816, 104.358 17.149, 107.687 16.570 C 119.190 14.570, 120 14.614, 120 17.240 C 120 18.583, 119.347 21.850, 118.550 24.500 C 117.575 27.738, 117.411 29.900, 118.050 31.093 C 119.608 34.005, 119.127 39.280, 116.981 42.799 C 115.874 44.614, 114.526 45.825, 113.985 45.490 C 113.443 45.156, 113 45.359, 113 45.941 C 113 46.523, 112.373 47, 111.607 47 C 109.808 47, 109 49.196, 109 54.082 C 109 56.898, 109.422 58, 110.500 58 C 111.325 58, 112 58.493, 112 59.097 C 112 59.700, 113.764 62.197, 115.920 64.647 C 121.082 70.511, 124.185 76.786, 123.010 78.982 C 122.518 79.900, 122.432 82.868, 122.819 85.576 L 123.522 90.500 131.511 91.252 C 135.905 91.665, 140.458 92.418, 141.629 92.925 C 144.492 94.165, 151.552 91.731, 151.361 89.571 C 151.194 87.677, 152.127 87.561, 153.947 89.250 C 155.049 90.272, 155.177 90.168, 154.651 88.677 C 153.808 86.292, 156.819 86.759, 158.393 89.259 C 160.425 92.486, 157.236 96.235, 150.482 98.557 C 147.192 99.688, 143.150 101.185, 141.500 101.884 C 139.205 102.856, 137.622 102.892, 134.762 102.041 C 132.706 101.428, 128.057 100.650, 124.430 100.311 C 118.694 99.776, 117.560 99.324, 115.728 96.846 C 113.422 93.726, 111.644 94.733, 112.616 98.607 C 112.910 99.776, 112.648 102.593, 112.036 104.868 C 111.045 108.547, 111.214 109.693, 113.569 115.252 C 115.026 118.688, 117.962 126.450, 120.095 132.500 L 123.974 143.500 158.237 143.500 L 192.500 143.500 192.757 71.750 L 193.013 0 96.507 0 L 0 0 0 72.013 M 0.474 72.500 C 0.474 112.100, 0.598 128.154, 0.750 108.176 C 0.901 88.198, 0.901 55.798, 0.750 36.176 C 0.598 16.554, 0.474 32.900, 0.474 72.500 M 111 89.441 C 111 90.298, 111.450 91, 112 91 C 112.550 91, 113 90.577, 113 90.059 C 113 89.541, 112.550 88.840, 112 88.500 C 111.450 88.160, 111 88.584, 111 89.441 M 110 100 C 110 100.550, 110.477 101, 111.059 101 C 111.641 101, 111.840 100.550, 111.500 100 C 111.160 99.450, 110.684 99, 110.441 99 C 110.198 99, 110 99.450, 110 100" stroke="none" fill="black" fill-rule="evenodd"/>
</svg>