<svg xmlns="http://www.w3.org/2000/svg" width="192" height="144" viewBox="0 0 192 144" version="1.1">
	<path d="M 49.667 0.667 C 48.304 2.029, 49.075 4.789, 51.571 7.483 C 53.400 9.456, 53.833 10.567, 53.071 11.329 C 51.541 12.859, 51.759 20.014, 53.433 23.223 C 54.526 25.318, 54.617 26.805, 53.827 29.664 C 53.262 31.709, 53.046 34.895, 53.346 36.743 C 53.734 39.134, 53.474 40.265, 52.446 40.659 C 50.806 41.289, 50.494 44.569, 51.986 45.491 C 52.528 45.827, 54.930 44.953, 57.324 43.550 C 59.717 42.148, 62.138 41, 62.702 41 C 63.925 41, 66.855 48.332, 67.692 53.488 C 68.249 56.920, 67.940 57.489, 62.894 62.328 C 59.927 65.173, 56.375 69.659, 55 72.298 C 50.745 80.464, 44.634 86.487, 35.021 91.988 C 26.296 96.981, 22.968 100.174, 18.139 108.184 C 16.059 111.635, 16.013 112.095, 17.408 115.434 C 18.228 117.395, 19.301 119, 19.794 119 C 20.287 119, 23.347 120.703, 26.595 122.783 C 34.272 127.702, 38.107 128.747, 52 129.706 L 63.500 130.500 63.806 134.185 C 64.046 137.069, 63.666 138.108, 62.056 138.970 C 60.925 139.575, 60 140.955, 60 142.035 C 60 143.841, 60.720 144, 68.876 144 L 77.752 144 79.606 137.527 C 81.458 131.059, 81.463 131.053, 85.718 130.415 C 92.048 129.466, 92.662 130.022, 93.455 137.421 L 94.159 144 121.534 144 L 148.909 144 149.550 140.588 C 150.235 136.935, 149.679 127.599, 147.979 114.207 C 146.986 106.379, 147.052 101.697, 148.571 72.500 C 149.345 57.623, 148.068 49.927, 143.206 40.157 C 136.890 27.465, 131.132 24.341, 115.837 25.310 C 103.887 26.067, 99.340 28.840, 93.710 38.804 C 91.611 42.520, 91.396 43.735, 92.136 47.698 C 93.071 52.702, 94.483 55, 96.622 55 C 98.435 55, 98.387 57.434, 96.545 58.963 C 95.562 59.779, 95.376 60.711, 95.974 61.835 C 96.460 62.751, 97.677 65.640, 98.679 68.256 C 99.680 70.872, 101.294 73.267, 102.265 73.578 C 103.291 73.907, 103.728 74.631, 103.309 75.309 C 102.913 75.949, 102.475 78.441, 102.335 80.847 C 102.173 83.649, 101.438 85.708, 100.291 86.578 C 96.812 89.217, 96.881 89.309, 91.367 74.597 C 90.563 72.450, 88.985 69.525, 87.861 68.097 C 83.240 62.222, 81.315 51.643, 84.402 49.081 C 86.257 47.542, 87.319 43.106, 86.181 41.654 C 85.683 41.019, 84.994 39.316, 84.649 37.869 C 84.301 36.411, 83.126 35.005, 82.011 34.713 C 80.905 34.424, 80 33.719, 80 33.146 C 80 32.428, 80.950 32.435, 83.051 33.168 C 87.036 34.557, 87.933 33.629, 84.129 32.053 C 81.282 30.874, 81.198 30.642, 81.347 24.343 C 81.475 18.906, 81.174 17.606, 79.500 16.354 C 78.400 15.532, 77.621 14.416, 77.768 13.876 C 77.915 13.335, 77.416 12.273, 76.658 11.515 C 75.702 10.559, 75.429 8.588, 75.767 5.069 L 76.254 0 71.083 0 C 66.713 0, 65.958 0.271, 66.206 1.750 C 66.660 4.451, 60.920 4.674, 58.544 2.049 C 56.751 0.067, 51.140 -0.806, 49.667 0.667 M 56.015 29.528 C 56.024 30.613, 56.455 32.171, 56.974 32.992 C 57.729 34.187, 58.166 34.234, 59.169 33.231 C 60.173 32.227, 59.983 31.538, 58.211 29.767 C 56.092 27.648, 56.001 27.638, 56.015 29.528" stroke="none" fill="black" fill-rule="evenodd"/>
</svg>