<svg xmlns="http://www.w3.org/2000/svg" width="192" height="144" viewBox="0 0 192 144" version="1.1">
	<path d="M 0 72 L 0 144 8.857 144 L 17.713 144 14.973 136.250 C 10.679 124.102, 9 111.859, 9 92.685 C 9 80.162, 9.536 72.579, 11.049 63.715 C 12.175 57.112, 13.188 51.393, 13.299 51.007 C 13.409 50.621, 12.037 48.931, 10.250 47.252 C 6.213 43.458, 6 39.932, 9.635 37.073 C 13.001 34.425, 18 34.262, 18 36.800 C 18 37.790, 17.475 39.125, 16.833 39.767 C 15.482 41.118, 15.887 41.307, 23.500 42.873 C 40.702 46.413, 47.856 46.631, 61 44.019 C 72.533 41.727, 92.050 45.466, 109.859 53.379 C 115.557 55.911, 120.626 57.731, 121.125 57.423 C 121.896 56.946, 125 50.502, 125 49.378 C 125 49.170, 124.067 49, 122.927 49 C 119.637 49, 120.998 45.649, 124.735 44.548 C 127.213 43.818, 128.606 42.374, 130.710 38.355 C 132.237 35.439, 134.574 32.596, 135.977 31.946 C 139.592 30.273, 153.923 29.576, 157.333 30.907 C 159.219 31.644, 160.679 33.319, 161.700 35.919 C 163.104 39.492, 163.707 39.938, 168.795 41.162 C 171.853 41.898, 174.511 42.980, 174.700 43.567 C 174.890 44.155, 172.897 45.302, 170.272 46.117 L 165.500 47.599 165.500 52.519 C 165.500 57.271, 165.355 57.520, 161.250 59.794 C 156.661 62.337, 155.814 64.489, 159.001 65.500 C 163.961 67.075, 164.100 76.145, 159.196 78.248 C 157.713 78.885, 156.292 79.559, 156.038 79.747 C 155.401 80.220, 168.918 93, 170.056 93 C 170.562 93, 172.165 94.912, 173.619 97.250 C 175.073 99.588, 177.699 103.300, 179.454 105.500 C 181.209 107.700, 184.629 113.100, 187.053 117.500 C 191.072 124.794, 191.515 126.295, 192.069 134.500 C 192.403 139.450, 192.749 111.213, 192.838 71.750 L 193 0 96.500 0 L 0 0 0 72 M 0.474 72.500 C 0.474 112.100, 0.598 128.154, 0.750 108.176 C 0.901 88.198, 0.901 55.798, 0.750 36.176 C 0.598 16.554, 0.474 32.900, 0.474 72.500 M 54 53.431 C 50.488 55.020, 46.626 55.934, 43.317 55.960 C 39.263 55.991, 38.024 56.381, 37.627 57.750 C 34.280 69.283, 30.784 97.897, 30.631 115 C 30.544 124.870, 30.999 130.584, 32.324 136.250 L 34.136 144 72.416 144 L 110.696 144 112.598 139.760 C 113.644 137.427, 115.933 133.637, 117.684 131.337 C 122.304 125.270, 124 121.567, 124 117.550 C 124 113.881, 123.217 113.183, 121.277 115.123 C 120.447 115.953, 119.494 115.585, 117.618 113.709 C 113.652 109.743, 113.345 106.620, 116.374 101.054 C 118.298 97.520, 118.834 95.418, 118.384 93.170 C 117.969 91.093, 118.453 88.637, 119.885 85.552 C 121.048 83.049, 122.974 78.904, 124.165 76.343 L 126.330 71.686 123.915 69.729 C 119.648 66.271, 104.100 58.978, 93.144 55.297 C 83.960 52.211, 80.923 51.667, 71 51.332 C 60.428 50.974, 59.056 51.144, 54 53.431 M 149.177 111.360 C 146.492 116.737, 146.461 120.195, 149.007 130.813 C 150.103 135.386, 151 140.223, 151 141.563 L 151 144 170.079 144 L 189.159 144 188.473 140.750 C 186.617 131.953, 175.938 111.302, 173.898 112.563 C 173.383 112.882, 171.424 112.635, 169.545 112.015 C 167.666 111.395, 164.029 110.716, 161.463 110.507 C 158.897 110.298, 156.020 109.424, 155.070 108.564 C 152.446 106.189, 151.546 106.616, 149.177 111.360" stroke="none" fill="black" fill-rule="evenodd"/>
</svg>