<svg xmlns="http://www.w3.org/2000/svg" width="192" height="144" viewBox="0 0 192 144" version="1.1">
	<path d="M 98.518 105.971 C 97.515 107.593, 100.674 112.536, 105.657 117.140 C 120.433 130.791, 120.629 131.211, 112.860 132.524 C 108.292 133.295, 106.444 135.410, 106.107 140.250 L 105.847 144 126.923 144 L 148 144 148 141.182 C 148 139.631, 148.718 135.944, 149.596 132.988 C 151.110 127.892, 151.097 127.542, 149.346 126.234 C 144.731 122.783, 144.104 122.782, 142.009 126.218 C 140.908 128.023, 140.006 130.512, 140.004 131.750 C 140.002 132.988, 139.515 134, 138.923 134 C 137.516 134, 116.421 118.144, 109.714 112.046 C 105.038 107.794, 101.038 105, 99.625 105 C 99.346 105, 98.848 105.437, 98.518 105.971" stroke="none" fill="black" fill-rule="evenodd"/>
</svg>