<svg xmlns="http://www.w3.org/2000/svg" width="192" height="144" viewBox="0 0 192 144" version="1.1">
	<path d="M 55 23.836 C 55 36.945, 54.702 69.345, 54.337 95.836 L 53.673 144 122.690 144 L 191.706 144 192.224 106.750 C 192.510 86.262, 192.511 53.863, 192.227 34.750 L 191.712 0 123.356 0 L 55 0 55 23.836 M 104 51.029 C 101.525 52.085, 98.757 53.226, 97.850 53.565 C 95.422 54.471, 94.501 62.134, 96.382 65.772 C 97.937 68.778, 104.707 75.381, 107.108 76.233 C 107.874 76.504, 108.160 77.090, 107.744 77.535 C 107.329 77.980, 97.490 77.779, 85.880 77.087 C 64.082 75.788, 61.180 76.102, 63.965 79.458 C 64.694 80.336, 66.829 81, 68.922 81 C 70.945 81, 73.131 81.531, 73.780 82.180 C 74.686 83.086, 75.486 83.082, 77.230 82.162 C 78.868 81.298, 81.462 81.215, 86.548 81.863 C 90.424 82.358, 96.763 82.535, 100.634 82.258 C 108.228 81.715, 111.991 82.881, 112.012 85.785 C 112.031 88.335, 124.990 93.039, 132.573 93.249 C 139.402 93.439, 144.651 91.674, 145.534 88.892 C 145.864 87.852, 146.525 87, 147.002 87 C 149.325 87, 163.015 90.194, 166.908 91.644 L 171.316 93.286 173.241 90.643 C 174.300 89.189, 175.744 88, 176.449 88 C 177.154 88, 178.842 87.126, 180.200 86.057 C 183.442 83.507, 182.927 78.813, 179.143 76.416 C 177.689 75.495, 175.278 73.605, 173.785 72.217 L 171.070 69.693 158.184 71.893 C 147.716 73.680, 144.807 73.869, 142.681 72.900 C 141.241 72.244, 140.281 71.354, 140.548 70.923 C 140.814 70.491, 140.575 69.856, 140.016 69.510 C 139.457 69.165, 138.981 67.896, 138.957 66.691 C 138.934 65.486, 137.681 62.025, 136.174 59 C 132.379 51.383, 127.633 48.979, 116.538 49.054 C 110.940 49.092, 107.134 49.692, 104 51.029 M 1 71.057 L 1 87.113 3.864 85.421 C 11.209 81.082, 14.018 70.876, 10.023 63.044 C 8.311 59.689, 3.399 55, 1.596 55 C 1.268 55, 1 62.225, 1 71.057" stroke="none" fill="black" fill-rule="evenodd"/>
</svg>