<svg xmlns="http://www.w3.org/2000/svg" width="192" height="144" viewBox="0 0 192 144" version="1.1">
	<path d="M 0.022 18.250 L 0.044 36.500 1.893 32.429 C 4.128 27.509, 9.132 23.229, 18.263 18.431 C 23.986 15.424, 26.644 14.693, 34.609 13.940 C 39.840 13.445, 44.656 13.144, 45.310 13.270 C 46.002 13.404, 46.635 12.035, 46.821 10 C 47.320 4.572, 48.286 4.622, 51.969 10.271 C 53.845 13.147, 57.009 17.571, 59.002 20.102 C 60.994 22.633, 63.606 27.397, 64.806 30.689 C 67.058 36.864, 69.510 39, 74.348 39 C 75.587 39, 77.830 39.563, 79.331 40.250 C 81.558 41.270, 81.949 41.960, 81.459 44 C 80.598 47.582, 79.351 48.536, 77.518 47.015 C 75.307 45.180, 74.502 46.458, 74.486 51.834 C 74.470 57.020, 72.294 60.761, 67.700 63.502 C 64.971 65.130, 64.912 65.352, 65.384 72.155 C 65.800 78.140, 65.664 78.966, 64.435 77.946 C 63.227 76.944, 63 77.416, 63 80.921 C 63 83.695, 62.582 85.020, 61.750 84.886 C 61.063 84.775, 59.825 84.963, 59 85.304 C 58.175 85.644, 55.929 86.053, 54.008 86.211 C 51.743 86.399, 50.409 87.067, 50.211 88.115 C 49.969 89.395, 52.145 90.291, 60.701 92.435 C 72.328 95.348, 75.258 97.041, 74.474 100.390 C 74.202 101.551, 74.396 103.139, 74.905 103.921 C 75.691 105.130, 76.925 105.022, 83.165 103.201 C 98.566 98.706, 112.132 99.281, 126.046 105.019 C 142.731 111.899, 155.108 123.674, 162.539 139.739 L 164.500 143.977 178.134 143.989 L 191.767 144 192.252 133.750 C 192.518 128.113, 192.759 95.713, 192.787 61.750 L 192.839 0 96.419 0 L 0 0 0.022 18.250 M 0.413 18.500 C 0.414 28.400, 0.564 32.315, 0.746 27.199 C 0.928 22.084, 0.927 13.984, 0.744 9.199 C 0.561 4.415, 0.412 8.600, 0.413 18.500 M 117.100 51.380 C 115.691 53.077, 115.999 60.189, 117.500 60.656 C 120.943 61.727, 122.713 54.285, 119.727 51.298 C 118.529 50.100, 118.152 50.112, 117.100 51.380 M 1 84.888 C 1 105.232, 1.362 117.894, 1.934 117.541 C 2.448 117.223, 3.583 114.506, 4.456 111.503 C 5.761 107.014, 5.817 105.673, 4.772 103.968 C 3.638 102.118, 3.854 101.599, 6.759 99.196 C 9.726 96.741, 11.553 91.922, 8.893 93.566 C 8.120 94.044, 8 93.278, 8.493 91.032 C 8.882 89.261, 9.200 85.049, 9.200 81.671 C 9.200 76.977, 8.802 75.290, 7.513 74.514 C 2.983 71.790, 2.989 71.810, 5.034 66.084 L 6.968 60.667 3.984 56.162 L 1 51.657 1 84.888 M 68.787 141 C 68.545 142.650, 68.718 144, 69.173 144 C 69.628 144, 70 142.650, 70 141 C 70 139.350, 69.826 138, 69.613 138 C 69.401 138, 69.029 139.350, 68.787 141" stroke="none" fill="black" fill-rule="evenodd"/>
</svg>