<svg xmlns="http://www.w3.org/2000/svg" width="192" height="144" viewBox="0 0 192 144" version="1.1">
	<path d="M 0 72 L 0 144 40.500 144 L 81 144 81 140.983 C 81 138.713, 79.886 136.899, 76.500 133.655 C 72.853 130.161, 72.007 128.694, 72.035 125.921 C 72.055 124.040, 72.670 121.419, 73.402 120.098 C 74.134 118.777, 74.515 116.862, 74.249 115.843 C 73.982 114.823, 74.322 113.317, 75.004 112.495 C 75.886 111.432, 75.939 110.632, 75.187 109.726 C 73.337 107.496, 72.931 99.936, 74.539 97.641 C 75.343 96.494, 76 94.611, 76 93.458 C 76 92.304, 77.125 90.382, 78.500 89.187 C 80.723 87.254, 81 86.235, 81 79.993 C 81 76.132, 81.430 72.191, 81.956 71.236 C 82.482 70.281, 83.613 66.935, 84.470 63.800 C 86.167 57.585, 86.422 59.381, 79.893 31.500 C 76.250 15.944, 78.014 6.263, 83.192 13.392 C 84.848 15.673, 86.174 21.872, 89.527 43 C 90.443 48.775, 91.686 54.100, 92.288 54.833 C 92.891 55.567, 93.448 57.045, 93.527 58.119 C 93.606 59.193, 94.195 60.595, 94.835 61.235 C 95.722 62.122, 96 54.938, 96 31.200 L 96 0 48 0 L 0 0 0 72 M 94.586 67.250 C 94.144 68.763, 94.144 71.237, 94.586 72.750 L 95.389 75.500 95.761 72.750 C 95.965 71.237, 95.965 68.763, 95.761 67.250 L 95.389 64.500 94.586 67.250 M 90 81.827 C 90 83.288, 90.601 83.565, 93 83.213 C 94.679 82.967, 96 82.163, 96 81.387 C 96 80.513, 94.891 80, 93 80 C 90.761 80, 90 80.464, 90 81.827 M 96 113.992 L 96 144 109.500 144 C 117.032 144, 123 143.594, 123 143.082 C 123 140.788, 121.622 139, 119.854 139 C 116.886 139, 109.865 131.829, 111.029 129.987 C 112.474 127.703, 112.174 121.693, 110.496 119.298 C 109.403 117.737, 109.247 116.482, 109.923 114.702 C 110.505 113.171, 110.496 111.896, 109.898 111.298 C 109.291 110.691, 109.670 109.417, 110.940 107.803 C 113.406 104.668, 113.072 101.246, 109.632 94.427 C 107.773 90.743, 106.036 88.854, 103.286 87.530 C 101.204 86.527, 98.713 85.318, 97.750 84.844 C 96.103 84.034, 96 85.751, 96 113.992 M 106.590 119.854 C 106.190 120.502, 105.443 120.774, 104.931 120.457 C 104.419 120.141, 104 120.260, 104 120.722 C 104 121.590, 110.103 124.230, 110.709 123.624 C 110.897 123.437, 110.210 122.247, 109.184 120.979 C 107.890 119.381, 107.096 119.036, 106.590 119.854 M 73.980 123.038 C 72.551 125.708, 73.502 128.463, 76.732 131.004 C 78.740 132.584, 79.527 132.765, 80.131 131.788 C 81.084 130.246, 80.206 126.306, 78.227 123.250 C 76.424 120.465, 75.384 120.413, 73.980 123.038" stroke="none" fill="black" fill-rule="evenodd"/>
</svg>