<svg xmlns="http://www.w3.org/2000/svg" width="192" height="144" viewBox="0 0 192 144" version="1.1">
	<path d="M 0 72.026 L 0 144.052 15.028 143.776 L 30.056 143.500 33.478 135.625 C 35.892 130.071, 36.730 126.898, 36.322 124.859 C 35.784 122.170, 35.642 122.091, 34.290 123.734 C 32.919 125.400, 32.868 125.401, 33.387 123.750 C 34.440 120.401, 32.906 122.028, 31.030 126.250 C 29.364 129.999, 29.133 130.189, 29.071 127.863 C 29.032 126.413, 30.057 121.576, 31.350 117.113 C 32.642 112.651, 33.317 109, 32.850 109 C 32.382 109, 32 109.525, 32 110.167 C 32 110.808, 31.715 111.048, 31.366 110.699 C 31.017 110.350, 31.734 107.386, 32.958 104.111 C 34.266 100.614, 34.912 97.297, 34.523 96.072 C 33.589 93.129, 35.653 83.956, 39.489 74 C 41.313 69.266, 43.084 62.406, 43.487 58.517 C 45.112 42.812, 50.022 33.751, 59.216 29.491 L 63.947 27.299 61.474 24.975 C 56.691 20.482, 58.440 18.722, 68.405 18 C 74.812 17.536, 75.336 17.322, 75.682 15.034 C 76.214 11.501, 78.621 8.202, 82.304 5.956 C 86.423 3.445, 87.795 3.464, 85.500 6 C 83.329 8.399, 83.665 8.456, 88.378 6.487 C 90.370 5.654, 92 5.195, 92 5.466 C 92 5.737, 89.975 7.825, 87.500 10.107 C 85.025 12.388, 83 14.683, 83 15.207 C 83 16.079, 86.174 15.745, 91.500 14.313 C 95.161 13.329, 91.682 15.603, 86.750 17.417 C 84.138 18.379, 82 19.727, 82 20.413 C 82 21.099, 84.025 23.115, 86.500 24.893 C 88.975 26.670, 91 28.546, 91 29.062 C 91 30.921, 86.947 34, 84.500 34 C 81.502 34, 81.438 34.401, 83.887 37.846 C 86.035 40.869, 87.986 47.212, 87.994 51.202 C 87.999 53.282, 86.964 54.617, 83.500 57 C 79.739 59.588, 78.741 60.984, 79.032 63.250 C 79.050 63.388, 78.204 66, 77.153 69.056 C 75.423 74.083, 75.383 74.884, 76.732 77.458 C 77.635 79.182, 78.028 81.755, 77.729 83.986 C 77.457 86.011, 77.662 88.432, 78.184 89.365 C 79.044 90.901, 79.694 90.754, 85.067 87.800 C 90.583 84.768, 91 84.289, 91 80.992 C 91 76.790, 93.364 73, 95.985 73 C 99.102 73, 101 75.808, 101 80.419 C 101 84.627, 101.095 84.744, 106.976 87.827 C 112.714 90.835, 112.992 90.883, 113.978 89.040 C 114.636 87.812, 114.656 86.906, 114.035 86.522 C 112.915 85.830, 113.721 80.648, 115.516 77 C 116.535 74.929, 116.429 73.557, 114.901 69 C 113.886 65.975, 113.044 62.772, 113.028 61.883 C 113.013 60.993, 111.243 59.103, 109.096 57.682 C 103.096 53.712, 102.678 47.957, 107.691 38.368 C 109.268 35.351, 109.234 35.075, 106.769 30.868 C 104.017 26.172, 99.418 12.248, 100.321 11.346 C 100.622 11.044, 102.296 13.656, 104.040 17.149 C 108.449 25.979, 112.306 31.996, 113.559 31.998 C 114.141 31.999, 115.466 31.380, 116.503 30.621 C 118.270 29.329, 118.286 29.086, 116.760 26.756 C 114.965 24.017, 115.965 22, 119.118 22 C 122.988 22, 123.898 21.006, 122.831 17.944 C 121.303 13.563, 122.354 12.083, 124.577 15.484 C 125.634 17.102, 127.513 19.522, 128.750 20.859 C 129.988 22.197, 131 24.341, 131 25.623 C 131 27.086, 132.024 28.589, 133.750 29.659 C 143.528 35.722, 146.567 42.115, 149.359 62.500 C 149.660 64.700, 151.736 71.330, 153.971 77.232 C 156.670 84.359, 158.075 89.730, 158.154 93.221 C 158.219 96.112, 159.111 100.916, 160.136 103.895 C 162.302 110.190, 162.321 110.316, 161 109.500 C 159.565 108.613, 159.742 109.953, 162.040 117.395 C 163.162 121.028, 164.539 124, 165.100 124 C 167.298 124, 176.758 134.214, 179.007 139.014 L 181.383 144.088 186.942 143.794 L 192.500 143.500 192.757 71.750 L 193.013 0 96.507 0 L 0 0 0 72.026 M 0.474 72.500 C 0.474 112.100, 0.598 128.154, 0.750 108.176 C 0.901 88.198, 0.901 55.798, 0.750 36.176 C 0.598 16.554, 0.474 32.900, 0.474 72.500 M 71.223 66.250 C 70.511 67.120, 70.599 67.866, 71.510 68.705 C 72.542 69.655, 72.946 69.584, 73.410 68.374 C 74.683 65.056, 73.299 63.712, 71.223 66.250 M 118 67 C 118 69.206, 118.121 69.275, 120.444 68.383 C 121.688 67.906, 121.792 67.454, 120.903 66.383 C 119.263 64.407, 118 64.675, 118 67 M 82.626 98.168 C 79.532 100.460, 77 102.735, 77 103.223 C 77 104.822, 89.484 97.545, 89.820 95.750 C 90.317 93.091, 88.783 93.606, 82.626 98.168 M 102 95.785 C 102 96.987, 104.124 98.618, 108.500 100.776 C 112.075 102.539, 115 103.611, 115 103.159 C 115 102.192, 104.155 94, 102.874 94 C 102.393 94, 102 94.803, 102 95.785 M 94.506 101.972 C 93.989 104.328, 91.954 106.203, 84.677 111.027 C 79.630 114.373, 74.263 117.367, 72.750 117.680 C 70.702 118.105, 70 118.843, 70 120.576 C 70 123.405, 71.661 131.649, 73.662 138.750 L 75.142 144 98.071 144 L 121 144 121 137.147 C 121 133.377, 121.282 127.595, 121.627 124.297 C 122.252 118.313, 122.248 118.299, 119.377 117.672 C 117.795 117.327, 112.379 114.360, 107.342 111.080 C 99.928 106.251, 98.056 104.534, 97.513 102.058 C 96.661 98.178, 95.348 98.141, 94.506 101.972" stroke="none" fill="black" fill-rule="evenodd"/>
</svg>