<svg xmlns="http://www.w3.org/2000/svg" width="192" height="144" viewBox="0 0 192 144" version="1.1">
	<path d="M 0 71.833 L 0 144 17.083 144 C 30.312 144, 34.070 143.718, 33.737 142.750 C 33.501 142.063, 33.638 140.328, 34.042 138.895 C 34.705 136.544, 34.351 136.083, 30.413 134.170 C 25.951 132.002, 20 125.064, 20 122.030 C 20 121.112, 18.885 119.391, 17.522 118.206 C 13.794 114.965, 16.443 110.121, 22 110.016 C 27.667 109.910, 27.708 108.442, 22.206 102.624 C 19.342 99.597, 17 96.214, 17 95.107 C 17 94, 16.610 92.060, 16.133 90.797 C 15.657 89.534, 14.211 85.238, 12.920 81.250 C 11.629 77.263, 10.219 74, 9.786 74 C 9.354 74, 9 72.623, 9 70.941 C 9 69.259, 8.600 68.129, 8.112 68.431 C 6.666 69.324, 5.753 63.123, 5.914 53.500 C 6.073 43.909, 7.275 40, 10.062 40 C 12.664 40, 13.373 37.306, 13.086 28.500 C 12.767 18.704, 11.350 16, 6.536 16 C 4.656 16, 2.845 15.557, 2.510 15.017 C 2.176 14.476, 1.769 11.095, 1.606 7.505 C 1.443 3.914, 1.015 0.681, 0.655 0.321 C 0.295 -0.039, 0 32.142, 0 71.833 M 11 0.918 C 11 3.665, 12.567 4.962, 16.616 5.570 C 21.679 6.329, 22.719 7.669, 23.678 14.670 C 24.090 17.672, 25.189 20.280, 26.665 21.756 C 27.949 23.040, 29.056 24.745, 29.125 25.545 C 29.362 28.298, 29.502 28.835, 30.154 29.487 C 31.187 30.520, 34.201 16.280, 34.754 7.750 L 35.257 -0 23.128 -0 C 16.430 -0, 11 0.411, 11 0.918 M 73.375 3.125 C 73.719 4.844, 74 6.895, 74 7.684 C 74 8.473, 74.386 8.880, 74.857 8.588 C 75.328 8.297, 76.209 11.044, 76.813 14.693 C 77.796 20.625, 78.683 22.324, 81.274 23.242 C 81.699 23.392, 82.332 25.270, 82.680 27.414 C 83.028 29.558, 84.165 32.165, 85.207 33.207 C 86.837 34.837, 87.071 36.424, 86.877 44.551 C 86.708 51.616, 86.316 54, 85.325 54 C 84.596 54, 84 54.450, 84 55 C 84 55.550, 83.325 56, 82.500 56 C 81.595 56, 81 56.926, 81 58.333 C 81 62.487, 83.248 72, 84.230 72 C 84.755 72, 86.329 72.900, 87.727 74 C 91.535 76.995, 100.529 76.543, 99.330 73.417 C 99.031 72.638, 98.238 72, 97.567 72 C 95.389 72, 90 64.575, 90 61.573 C 90 60.773, 90.520 59.797, 91.155 59.405 C 91.844 58.979, 92.039 59.129, 91.638 59.776 C 91.269 60.373, 91.425 61.144, 91.984 61.490 C 92.543 61.835, 93 61.641, 93 61.059 C 93 60.477, 94.575 60, 96.500 60 C 99.822 60, 100 60.175, 100 63.441 C 100 65.334, 100.450 67.160, 101 67.500 C 101.550 67.840, 102 69.126, 102 70.359 C 102 75.148, 106.506 76.320, 113.107 73.250 C 117.553 71.182, 118.592 68.353, 116.630 63.657 C 114.211 57.867, 112.242 40, 114.024 40 C 115.628 40, 115.128 37.986, 113.355 37.306 C 112.342 36.917, 111.166 37.409, 110.291 38.588 C 108.906 40.451, 108.822 40.441, 106.963 38.174 C 105.914 36.894, 104.646 36.101, 104.144 36.411 C 103.031 37.099, 101.362 32.898, 100.606 27.503 C 100.067 23.658, 97.580 20.523, 95.895 21.565 C 94.702 22.302, 91.998 16.542, 92.015 13.300 C 92.035 9.661, 94.477 2.674, 95.895 2.202 C 96.503 1.999, 97 1.421, 97 0.917 C 97 0.412, 91.557 -0, 84.875 -0 L 72.750 -0 73.375 3.125 M 107 1.066 C 107 1.652, 107.457 2.985, 108.015 4.029 C 109.361 6.543, 112 5.460, 112 2.393 C 112 0.507, 111.470 0, 109.500 0 C 108.125 0, 107 0.480, 107 1.066 M 159.262 2.250 C 159.393 3.488, 160.021 5.054, 160.659 5.730 C 161.296 6.407, 162.123 8.769, 162.497 10.980 C 162.870 13.191, 163.572 15, 164.057 15 C 164.541 15, 164.680 15.671, 164.365 16.492 C 164.038 17.345, 164.482 18.248, 165.403 18.601 C 166.288 18.941, 168.549 22.432, 170.426 26.359 C 174.042 33.924, 176.796 37, 179.952 37 C 181.014 37, 182.160 37.450, 182.500 38 C 182.840 38.550, 184.216 39, 185.559 39 C 187.347 39, 188 39.544, 188 41.035 C 188 43.437, 185.213 48, 183.745 48 C 182.241 48, 180.072 51.194, 180.010 53.500 C 179.953 55.609, 176.132 61.218, 175.923 59.500 C 175.856 58.950, 175.474 59.625, 175.074 61 C 174.674 62.375, 174.723 64.850, 175.183 66.500 C 175.642 68.150, 176.064 72.343, 176.119 75.818 C 176.201 80.923, 175.823 82.560, 174.148 84.342 C 173.008 85.556, 171.548 89.012, 170.903 92.024 C 170.214 95.239, 168.547 98.936, 166.865 100.978 C 165.289 102.891, 163.979 104.916, 163.954 105.478 C 163.928 106.040, 162.180 107.850, 160.070 109.500 C 155.375 113.170, 156.182 114.775, 162.797 114.924 C 165.384 114.983, 168.230 115.056, 169.122 115.087 C 170.014 115.118, 171.277 116.313, 171.928 117.742 C 172.977 120.044, 172.821 120.611, 170.556 122.711 C 169.150 124.014, 168 125.685, 168 126.424 C 168 128.618, 160.825 134.419, 156.250 135.923 C 152.377 137.196, 152 137.617, 152 140.660 L 152 144 172 144 L 192 144 192 72 L 192 0 175.512 0 L 159.024 0 159.262 2.250 M 120.665 110.924 C 120.343 112.533, 120.466 116.245, 120.937 119.174 C 121.409 122.103, 122.119 128.887, 122.516 134.250 C 122.913 139.613, 123.634 144, 124.119 144 C 124.604 144, 125 142.267, 125 140.149 C 125 136.404, 128.509 128.373, 131.709 124.791 C 133.093 123.241, 132.935 122.538, 130.015 117.291 C 127.130 112.105, 123.599 108.084, 121.875 108.022 C 121.531 108.010, 120.987 109.316, 120.665 110.924 M 62.636 111.492 C 60.962 112.374, 57.152 113, 53.467 113 C 45.275 113, 44 113.557, 44 117.138 C 44 120.552, 45.629 121.472, 49.242 120.098 C 51.922 119.079, 53 120.100, 53 123.653 C 53 125.320, 55.347 128, 56.807 128 C 58.094 128, 59.723 132.508, 60.473 138.146 L 61.091 142.792 63.999 141.694 C 67.357 140.427, 67.893 137.778, 68.278 120.532 C 68.524 109.489, 68.009 108.664, 62.636 111.492 M 138.336 117.567 C 137.614 119.448, 139.384 121.499, 140.913 120.554 C 142.561 119.535, 142.216 116, 140.469 116 C 139.626 116, 138.667 116.705, 138.336 117.567" stroke="none" fill="black" fill-rule="evenodd"/>
</svg>