<svg xmlns="http://www.w3.org/2000/svg" width="192" height="144" viewBox="0 0 192 144" version="1.1">
	<path d="M 0 72 L 0 144 35 144 C 64.464 144, 70 143.777, 70 142.589 C 70 141.813, 71.972 135.063, 74.382 127.589 C 76.792 120.115, 78.480 114.024, 78.132 114.054 C 77.784 114.084, 75.569 116.815, 73.209 120.124 C 68.784 126.327, 67.214 126.951, 65.513 123.185 C 64.545 121.043, 63 120.202, 63 121.818 C 63 122.268, 61.650 122.636, 60 122.636 C 57.976 122.636, 56.974 122.126, 56.921 121.068 C 56.869 120.037, 56.669 119.928, 56.338 120.750 C 56.060 121.437, 55.384 122, 54.835 122 C 54.286 122, 54.774 120.484, 55.918 118.632 C 58.187 114.961, 58.560 113.536, 57 114.500 C 56.450 114.840, 56 114.710, 56 114.212 C 56 113.713, 56.856 112.899, 57.902 112.403 C 60.850 111.004, 72.984 95.544, 74.049 91.830 C 75.378 87.194, 75.268 78, 73.883 78 C 73.268 78, 72.996 77.123, 73.277 76.048 C 73.558 74.974, 73.289 73.930, 72.679 73.726 C 72.069 73.523, 73.037 72.039, 74.830 70.428 C 77.782 67.777, 78.146 66.815, 78.690 60.250 C 79.209 53.983, 79.070 53, 77.668 53 C 74.167 53, 70.617 42.393, 73.357 40.119 C 74.578 39.105, 87.646 38.024, 103.500 37.626 C 108.264 37.506, 108.515 37.632, 108.820 40.289 C 108.996 41.823, 108.164 45.095, 106.971 47.560 C 105.778 50.024, 105.057 52.706, 105.369 53.518 C 105.680 54.330, 105.102 56.459, 104.083 58.248 C 103.064 60.036, 101.995 63.422, 101.707 65.772 C 101.229 69.682, 101.423 70.167, 104.001 71.500 C 106.954 73.027, 107.189 73.785, 108.581 86.213 C 109.190 91.648, 109.472 92.118, 114.361 95.835 C 117.187 97.984, 120.761 100.925, 122.302 102.371 C 123.842 103.817, 125.530 105, 126.052 105 C 126.573 105, 127 105.436, 127 105.969 C 127 106.501, 126.251 106.650, 125.336 106.299 C 123.404 105.557, 124.106 107.174, 127.224 110.645 C 129.339 112.999, 128.619 113.998, 124.484 114.452 C 123.001 114.615, 121.234 113.813, 119.867 112.358 C 118.648 111.061, 117.332 110, 116.941 110 C 116.550 110, 115.912 112.547, 115.523 115.661 C 115.134 118.775, 114.358 122.055, 113.798 122.951 C 113.057 124.139, 113.489 126.823, 115.390 132.842 C 116.826 137.386, 118 141.760, 118 142.564 C 118 143.823, 123.133 143.988, 155.250 143.762 L 192.500 143.500 192.757 71.750 L 193.013 0 96.507 0 L 0 0 0 72 M 0.474 72.500 C 0.474 112.100, 0.598 128.154, 0.750 108.176 C 0.901 88.198, 0.901 55.798, 0.750 36.176 C 0.598 16.554, 0.474 32.900, 0.474 72.500" stroke="none" fill="black" fill-rule="evenodd"/>
</svg>