<svg xmlns="http://www.w3.org/2000/svg" width="192" height="144" viewBox="0 0 192 144" version="1.1">
	<path d="M 0 72 L 0 144 48.446 144 L 96.892 144 91.455 132.750 C 88.465 126.563, 86.014 120.609, 86.009 119.520 C 86.002 117.878, 89.045 112.018, 94.070 104 C 94.587 103.175, 95.998 100.586, 97.206 98.247 C 99.070 94.636, 100.241 93.693, 104.951 92.007 C 115.638 88.183, 115.464 88.376, 115.781 79.965 C 115.936 75.859, 115.467 68.677, 114.738 64.005 C 113.627 56.878, 113.099 55.466, 111.457 55.233 C 107.052 54.609, 97 51.731, 97 51.094 C 97 50.718, 99.152 48.082, 101.782 45.236 L 106.564 40.062 103.854 38.940 C 102.364 38.322, 100.387 36.980, 99.460 35.956 C 97.859 34.187, 97.917 34.063, 100.638 33.454 C 106.963 32.039, 106.832 32.164, 106.286 28.094 C 106.003 25.985, 106.213 23.987, 106.752 23.653 C 107.291 23.320, 109.811 24.667, 112.352 26.646 C 116.880 30.174, 117.062 30.222, 121.606 29.078 C 124.155 28.436, 133.049 27.645, 141.370 27.320 C 149.692 26.995, 157.109 26.246, 157.854 25.655 C 158.599 25.065, 159.600 23.551, 160.079 22.291 C 161.235 19.253, 164 19.287, 164 22.339 C 164 24.990, 166.795 26.624, 173.033 27.621 C 176.553 28.184, 177.430 28.928, 177.160 31.124 C 177.118 31.468, 179.849 32.620, 183.229 33.685 C 186.609 34.750, 189.550 36.151, 189.766 36.798 C 189.982 37.445, 188.547 38.924, 186.579 40.086 C 182.834 42.296, 182.201 43.801, 184.183 45.783 C 185.693 47.293, 185.052 47.900, 181.417 48.407 C 170.272 49.959, 169.516 51.185, 170.452 66.188 C 170.806 71.860, 171.186 80.274, 171.298 84.887 C 171.469 92.001, 171.794 93.443, 173.433 94.387 C 177.101 96.499, 182.888 103.214, 183.520 106.092 C 183.869 107.679, 184.569 109.234, 185.077 109.548 C 186.578 110.475, 186.119 118.257, 184.371 121.500 C 183.340 123.413, 182.568 128.054, 182.241 134.307 L 181.727 144.114 187.114 143.807 L 192.500 143.500 192.757 71.750 L 193.013 0 96.507 0 L 0 0 0 72 M 0.474 72.500 C 0.474 112.100, 0.598 128.154, 0.750 108.176 C 0.901 88.198, 0.901 55.798, 0.750 36.176 C 0.598 16.554, 0.474 32.900, 0.474 72.500 M 101.312 118.641 C 100.450 118.993, 100.645 120.339, 102.027 123.563 C 103.073 126.003, 103.630 128, 103.264 128 C 102.899 128, 103.140 128.540, 103.800 129.200 C 104.460 129.860, 105 132.062, 105 134.093 C 105 136.379, 105.547 137.996, 106.435 138.337 C 107.541 138.761, 108.005 137.583, 108.458 133.194 C 108.781 130.062, 109.245 125.636, 109.489 123.358 C 109.876 119.738, 109.653 119.141, 107.716 118.621 C 105.174 117.940, 103.019 117.947, 101.312 118.641" stroke="none" fill="black" fill-rule="evenodd"/>
</svg>