<svg xmlns="http://www.w3.org/2000/svg" width="192" height="144" viewBox="0 0 192 144" version="1.1">
	<path d="M 75.551 1.945 C 83.376 4.731, 87.013 6.897, 87.895 9.298 C 88.341 10.509, 89.509 15.775, 90.492 21 C 92.482 31.580, 92.973 32.571, 96.575 33.259 C 100.859 34.078, 115.212 32.217, 116.791 30.637 C 117.844 29.585, 118.403 25.842, 118.778 17.347 C 119.286 5.830, 119.377 5.450, 122.256 2.761 L 125.212 0 97.856 0.073 L 70.500 0.146 75.551 1.945 M 183.414 30.218 C 175.443 38.384, 169 46.108, 169 47.501 C 169 47.893, 169.675 47.955, 170.500 47.638 C 172.887 46.723, 172.293 47.652, 167.750 51.939 C 163.078 56.349, 163.907 57.002, 171 54.500 C 176.427 52.585, 177.061 52.615, 176.375 54.750 C 174.577 60.345, 173.585 62, 172.029 62 C 169.584 62, 163.225 57.175, 157.016 50.610 C 151.244 44.507, 149.305 43.934, 144.943 47.041 C 142.116 49.053, 141.039 51.696, 137.911 64.281 C 136.467 70.090, 133.676 72.315, 125.785 73.946 C 118.957 75.357, 115.551 78.751, 114.474 85.215 C 113.515 90.975, 110.748 96.193, 106.967 99.374 C 104.221 101.685, 102.969 102, 96.530 102 C 88.786 102, 88 102.494, 88 107.361 C 88 108.745, 85.567 111.951, 81.421 116.029 C 73.742 123.583, 70.017 130.143, 69.959 136.217 L 69.918 140.500 64.742 134.500 C 56.409 124.841, 31.320 100.242, 19.973 90.606 C 14.213 85.714, 8.079 80.175, 6.342 78.296 L 3.184 74.879 3.086 61.690 C 3.032 54.331, 2.374 45.847, 1.597 42.500 C 0.347 37.111, 0.195 41.974, 0.102 90.255 L 0 144.010 96.250 143.755 L 192.500 143.500 192.621 89 C 192.687 59.025, 192.462 31.673, 192.121 28.218 L 191.500 21.935 183.414 30.218 M 0.466 90.500 C 0.466 120.200, 0.594 132.206, 0.749 117.179 C 0.905 102.153, 0.905 77.853, 0.749 63.179 C 0.593 48.506, 0.466 60.800, 0.466 90.500 M 96.441 46.441 C 94.887 47.596, 94.721 48.243, 95.609 49.691 C 97.069 52.073, 101.361 52.080, 101.819 49.702 C 102.157 47.945, 100.435 45, 99.069 45 C 98.691 45, 97.509 45.649, 96.441 46.441 M 179.631 55.500 C 177.623 58.525, 176.359 61, 176.823 61 C 178.437 61, 186 53.297, 186 51.654 C 186 48.410, 183.226 50.086, 179.631 55.500" stroke="none" fill="black" fill-rule="evenodd"/>
</svg>