<svg xmlns="http://www.w3.org/2000/svg" width="192" height="144" viewBox="0 0 192 144" version="1.1">
	<path d="M 0 72 L 0 144 36 144 C 70.174 144, 72 143.907, 72 142.176 C 72 139.865, 76.030 126.571, 79.411 117.727 C 83.113 108.043, 82.787 103.112, 78.685 106.748 C 77.299 107.976, 76.582 108.141, 76.287 107.300 C 75.980 106.423, 75.151 106.372, 73.204 107.112 C 71.421 107.791, 70.431 107.793, 70.206 107.119 C 70.022 106.565, 69.280 106.339, 68.559 106.616 C 67.772 106.918, 67.002 106.143, 66.634 104.679 C 66.297 103.337, 65.186 102.020, 64.164 101.753 C 62.741 101.381, 62.409 100.572, 62.744 98.291 C 63.167 95.411, 62.985 95.259, 57.131 93.617 C 53.470 92.590, 50.366 91.010, 49.270 89.616 C 48.006 88.010, 46.058 87.154, 42.840 86.791 C 37.867 86.231, 30.824 83.201, 30.265 81.382 C 30.045 80.666, 31.791 80.221, 35.113 80.146 C 37.968 80.082, 40.538 79.796, 40.823 79.511 C 41.108 79.225, 40.348 77.935, 39.135 76.644 C 37.296 74.686, 37.040 73.604, 37.594 70.137 C 38.225 66.192, 38.137 65.991, 35.880 66.239 C 33.689 66.479, 33.521 66.182, 33.766 62.500 C 34.229 55.522, 34.896 53.669, 36.471 54.976 C 38.644 56.779, 40.215 52.951, 39.216 48.290 C 38.249 43.781, 39.106 37.362, 40.277 40.332 C 40.675 41.339, 41 43.027, 41 44.082 C 41 46.406, 42.315 46.542, 44.421 44.436 C 46.415 42.442, 48 43.409, 48 46.618 C 48 48.253, 47.601 48.871, 46.845 48.405 C 46.124 47.959, 45.963 48.131, 46.415 48.862 C 46.813 49.506, 47.557 49.774, 48.069 49.457 C 48.581 49.141, 49 49.584, 49 50.441 C 49 52.487, 49.964 52.416, 51.608 50.250 C 52.776 48.711, 52.942 49.042, 52.983 53 C 53.009 55.475, 53.649 59.278, 54.405 61.451 C 55.741 65.288, 55.668 65.616, 51.900 72.812 C 49.766 76.888, 48.275 80.637, 48.588 81.142 C 48.900 81.648, 50.637 81.783, 52.448 81.444 C 54.789 81.005, 56.959 81.449, 59.967 82.983 C 62.292 84.169, 64.317 84.996, 64.467 84.820 C 64.898 84.316, 69 74.796, 69 74.300 C 69 74.055, 67.806 74.794, 66.347 75.941 C 62.082 79.297, 62.388 77.479, 67.110 71.413 C 76.453 59.410, 75.653 61.357, 80.466 38.913 C 81.361 34.741, 83.171 29.742, 84.487 27.805 L 86.880 24.283 83.190 24.391 C 79.872 24.489, 79.468 24.221, 79.182 21.738 C 79.008 20.218, 79.990 16.518, 81.365 13.515 L 83.864 8.055 88.666 9.500 C 91.308 10.295, 95.471 12.357, 97.919 14.082 C 102.666 17.428, 102.721 17.432, 115.337 15.161 C 121.437 14.063, 121.743 14.732, 119.266 23.763 C 117.945 28.581, 117.656 31.303, 118.310 32.769 C 120.437 37.536, 115.291 48.093, 111.541 46.654 C 110.538 46.269, 109.981 47.501, 109.467 51.241 C 108.900 55.359, 109.079 56.584, 110.382 57.537 C 111.272 58.188, 112 59.056, 112 59.466 C 112 59.876, 113.173 61.605, 114.607 63.309 C 118.919 68.434, 122.415 77.032, 121.383 79.977 C 120.898 81.365, 120.635 84.594, 120.801 87.153 L 121.102 91.805 127.801 93.467 C 131.485 94.380, 135.774 95.774, 137.330 96.563 C 139.412 97.619, 141.991 97.829, 147.080 97.356 C 151.981 96.900, 154 97.046, 154 97.856 C 154 98.485, 153.127 99, 152.059 99 C 150.991 99, 149.844 99.443, 149.510 99.985 C 148.799 101.134, 154.712 104.991, 157.191 104.996 C 161.121 105.005, 159.466 109.435, 155.500 109.522 C 154.950 109.534, 153.046 110.147, 151.269 110.885 C 147.349 112.513, 144.126 111.819, 140.175 108.494 C 138.527 107.107, 136.526 106.245, 135.695 106.563 C 134.869 106.880, 132.449 106.250, 130.317 105.162 C 128.184 104.074, 123.904 102.446, 120.804 101.545 C 117.704 100.644, 114.625 99.253, 113.961 98.453 C 112.267 96.412, 111 96.646, 111 99 C 111 100.100, 111.450 101, 112 101 C 112.550 101, 113 103.254, 113 106.009 C 113 109.598, 114.111 113.638, 116.921 120.259 C 119.077 125.342, 121.823 132.768, 123.022 136.763 L 125.203 144.026 158.851 143.763 L 192.500 143.500 192.757 71.750 L 193.013 0 96.507 0 L 0 0 0 72 M 0.474 72.500 C 0.474 112.100, 0.598 128.154, 0.750 108.176 C 0.901 88.198, 0.901 55.798, 0.750 36.176 C 0.598 16.554, 0.474 32.900, 0.474 72.500" stroke="none" fill="black" fill-rule="evenodd"/>
</svg>