<svg xmlns="http://www.w3.org/2000/svg" width="192" height="144" viewBox="0 0 192 144" version="1.1">
	<path d="M 99.725 41.171 C 97.325 42.047, 94 47.165, 94 49.985 C 94 50.622, 97.765 55.861, 100.988 59.708 C 102.383 61.373, 102.256 62, 100.523 62 C 98.566 62, 95.626 66.583, 96.358 68.491 C 96.676 69.320, 96.529 71.011, 96.032 72.249 C 95.133 74.485, 94.594 73.346, 94.922 69.903 C 95.134 67.671, 92.547 65.785, 89.805 66.173 C 87.559 66.492, 87.500 66.782, 87.481 77.500 C 87.471 83.550, 87.086 90.457, 86.627 92.848 C 85.834 96.975, 85.967 97.362, 89.247 100.456 L 92.703 103.716 90.283 110.108 C 88.952 113.624, 86.994 118.425, 85.931 120.777 C 82.745 127.831, 83.882 134.141, 89.552 140.879 L 92.178 144 105.129 144 C 116.230 144, 118.656 143.706, 122.115 141.941 C 129.913 137.963, 130.768 130.141, 124.871 116.707 C 123.138 112.757, 120.672 106.447, 119.392 102.684 C 118.113 98.921, 116.184 94.415, 115.107 92.671 C 113.322 89.781, 113.239 88.745, 114.175 81 C 114.739 76.325, 115.606 71.742, 116.101 70.816 C 117.582 68.042, 117.126 65.202, 114.958 63.683 C 113.035 62.336, 112.667 60.132, 114.175 58.987 C 114.546 58.705, 114.954 57.355, 115.080 55.987 C 115.646 49.883, 114.897 46.952, 111.896 43.535 C 108.577 39.754, 105.334 39.124, 99.725 41.171" stroke="none" fill="black" fill-rule="evenodd"/>
</svg>