<svg xmlns="http://www.w3.org/2000/svg" width="192" height="144" viewBox="0 0 192 144" version="1.1">
	<path d="M 63.950 4.750 C 63.857 13.507, 62.916 21.373, 61.593 24.449 C 58.314 32.074, 55.577 36.971, 52 41.611 C 49.545 44.796, 40.864 51.427, 35.404 54.288 C 27.744 58.301, 17.836 60.314, 9.648 59.522 C 5.879 59.157, 2.166 58.617, 1.398 58.322 C 0.214 57.868, 0 64.388, 0 100.893 L 0 144 73.145 144 L 146.290 144 145.719 137.182 C 145.395 133.327, 145.758 126.050, 146.554 120.432 C 147.328 114.970, 147.970 110.162, 147.981 109.750 C 147.991 109.338, 146.666 109, 145.035 109 C 140.040 109, 139.398 106.049, 142.913 99.255 C 148.526 88.409, 149.716 84.767, 148.794 81.250 C 148.326 79.463, 147.522 78, 147.007 78 C 146.492 78, 145.573 77.070, 144.965 75.934 C 144.070 74.262, 144.349 72.931, 146.430 68.953 C 147.843 66.249, 149 63.409, 149 62.641 C 149 61.873, 149.675 60.685, 150.500 60 C 152.607 58.251, 152.367 56, 150.073 56 C 149.012 56, 147.260 54.875, 146.179 53.500 C 145.097 52.125, 143.784 51, 143.261 51 C 141.354 51, 138.843 47.103, 139.166 44.644 C 139.392 42.917, 138.560 41.150, 136.515 39.016 C 132.658 34.989, 133.599 34.424, 145.343 33.711 C 156.418 33.039, 159.840 34.321, 164.806 41 C 166.647 43.475, 169.356 47.022, 170.826 48.881 C 172.297 50.741, 174.113 53.441, 174.861 54.881 C 175.610 56.322, 178.373 59.750, 181.001 62.500 C 183.630 65.250, 186.392 69.253, 187.140 71.396 C 187.888 73.539, 189.287 75.785, 190.250 76.387 C 191.703 77.295, 192 78.987, 192 86.349 L 192 95.216 187.250 89.923 C 184.637 87.011, 179.969 82.006, 176.875 78.799 C 171.462 73.188, 171.249 73.073, 171.235 75.734 C 171.227 77.255, 171.571 78.950, 171.999 79.500 C 173.386 81.281, 178.340 108.641, 177.517 109.972 C 176.804 111.126, 180.593 117.337, 187.088 125.662 C 191.367 131.146, 191.935 132.465, 192.258 137.662 C 192.945 148.695, 192.997 85.463, 192.336 42.750 L 191.674 0 127.837 0 L 64 0 63.950 4.750 M 0.459 101 C 0.459 124.925, 0.589 134.713, 0.749 122.750 C 0.908 110.788, 0.908 91.213, 0.749 79.250 C 0.589 67.288, 0.459 77.075, 0.459 101 M 164.006 82.750 C 164.023 85.065, 166.243 91, 167.092 91 C 167.700 91, 167.826 89.531, 167.414 87.250 C 166.622 82.861, 166.217 82, 164.941 82 C 164.423 82, 164.003 82.338, 164.006 82.750" stroke="none" fill="black" fill-rule="evenodd"/>
</svg>