<svg xmlns="http://www.w3.org/2000/svg" width="192" height="144" viewBox="0 0 192 144" version="1.1">
	<path d="M 121 0.532 C 121 0.825, 121.675 2.680, 122.500 4.654 C 124.428 9.269, 124.395 9.663, 122.026 10.283 C 120.214 10.757, 120.088 11.474, 120.503 18.958 C 121.013 28.170, 121.312 29, 124.126 29 C 125.752 29, 125.999 29.427, 125.423 31.242 C 124.787 33.248, 124.888 33.338, 126.380 32.100 C 128.455 30.377, 128.938 30.844, 129.656 35.268 C 130.199 38.616, 129.767 39.265, 120.613 48.830 C 111.447 58.409, 110.051 60.150, 111.750 59.882 C 114.628 59.427, 114.719 60.372, 112.306 65.644 C 108.741 73.431, 108.443 78.075, 110.909 87.438 C 113.699 98.032, 113.655 103.068, 110.750 105.654 C 107.340 108.689, 94.735 117.570, 91.425 119.269 C 89.466 120.276, 86.834 120.609, 83.452 120.278 C 78.553 119.799, 78.320 119.630, 75.580 114.564 C 73.497 110.714, 72.958 108.708, 73.525 106.922 C 73.948 105.590, 74.208 104.363, 74.103 104.196 C 73.998 104.029, 74.937 103.062, 76.190 102.047 C 78.430 100.234, 78.439 100.143, 76.734 96.568 C 75.780 94.568, 75 92.299, 75 91.525 C 75 89.541, 73.037 88.563, 71.713 89.887 C 71.101 90.499, 69.176 91, 67.435 91 C 61.631 91, 57 97.278, 57 105.145 C 57 106.472, 55.719 112.515, 54.153 118.574 C 51.813 127.631, 51.413 130.828, 51.903 136.545 L 52.500 143.500 56.581 143.799 L 60.662 144.098 61.920 135.299 C 63.539 123.970, 65.034 120.282, 64.570 128.761 C 64.382 132.205, 64.648 135.283, 65.162 135.600 C 65.734 135.954, 65.712 136.642, 65.106 137.373 C 64.537 138.058, 64.477 139.154, 64.965 139.943 C 65.432 140.700, 65.583 141.922, 65.300 142.659 C 64.888 143.735, 67.182 144, 76.893 144 C 86.562 144, 89 143.720, 89 142.610 C 89 141.124, 94.555 138.228, 104.892 134.324 L 111.284 131.910 110.689 136.250 C 110.362 138.637, 109.800 141.358, 109.440 142.295 C 108.833 143.878, 110.876 144, 137.872 144 L 166.957 144 165.763 141.250 C 165.106 139.737, 161.692 133.796, 158.175 128.047 C 152.310 118.458, 150.922 115.151, 147.869 103.500 C 146.712 99.082, 147.244 86.140, 148.625 85.137 C 149.106 84.786, 149.588 82.563, 149.695 80.195 C 149.839 77.010, 150.672 74.999, 152.898 72.464 C 154.552 70.580, 156.183 69.487, 156.522 70.035 C 158.215 72.775, 159.131 69.145, 158.696 61.419 C 158.335 55.010, 158.553 52.786, 159.631 51.891 C 160.728 50.981, 161.474 51.119, 163.019 52.517 C 164.936 54.252, 165 54.240, 165 52.155 C 165 49.745, 166.003 49.403, 167.800 51.200 C 168.733 52.133, 169 52.133, 169 51.200 C 169 50.540, 169.675 50, 170.500 50 C 172.302 50, 172.434 48.834, 170.817 47.217 C 169.105 45.505, 170.651 44.466, 172.557 46.047 C 174 47.245, 174.088 46.984, 173.425 43.450 C 173.019 41.288, 171.868 37.716, 170.866 35.510 C 168.406 30.097, 168.519 28.571, 171.973 20.471 C 174.938 13.518, 175.558 9.041, 174.375 3.125 L 173.750 -0 147.375 -0 C 132.869 -0, 121 0.239, 121 0.532" stroke="none" fill="black" fill-rule="evenodd"/>
</svg>