<svg xmlns="http://www.w3.org/2000/svg" width="192" height="144" viewBox="0 0 192 144" version="1.1">
	<path d="M 0 72 L 0 144 38.769 144 L 77.537 144 77.519 136.750 C 77.508 132.763, 77.941 125.900, 78.481 121.500 C 79.020 117.100, 79.435 108.775, 79.402 103 C 79.370 97.225, 79.518 94.441, 79.732 96.813 C 79.981 99.569, 80.551 100.985, 81.311 100.736 C 83.037 100.170, 83.354 95.269, 81.893 91.741 C 80.779 89.052, 80.545 88.919, 79.886 90.599 C 79.243 92.239, 79.129 92.156, 79.059 90 C 78.978 87.516, 78.962 87.521, 76.412 90.756 C 72.294 95.981, 70.798 96.376, 63.721 94.108 C 60.299 93.012, 55.832 91.848, 53.793 91.520 C 51.728 91.189, 49.292 89.946, 48.293 88.713 C 46.768 86.830, 45.381 86.467, 39 86.280 C 29.247 85.994, 26.907 85.406, 27.664 83.432 C 27.991 82.581, 28.802 82.094, 29.467 82.349 C 30.132 82.604, 31.986 82.221, 33.588 81.497 C 35.190 80.773, 37.747 79.904, 39.272 79.566 C 41.669 79.034, 41.901 78.684, 40.987 76.975 C 40.405 75.889, 39.270 75, 38.465 75 C 36.697 75, 36.623 73.921, 38.161 70.547 C 39.592 67.404, 42.742 67.222, 46.365 70.073 C 49.392 72.454, 49.634 74.103, 47.446 77.443 C 45.742 80.042, 47.095 81.996, 49.320 80.150 C 51.016 78.742, 54.395 79.374, 61.840 82.495 C 65.328 83.957, 68.286 85.006, 68.415 84.826 C 69.828 82.852, 72.138 76.323, 72.343 73.718 C 72.537 71.250, 74.553 68.121, 80.302 61.361 C 84.536 56.383, 88 52.015, 88 51.655 C 88 51.295, 87.365 51, 86.589 51 C 84.915 51, 80 45.421, 80 43.522 C 80 42.794, 78.425 41.268, 76.500 40.133 C 73.786 38.531, 73 37.420, 73 35.183 C 73 31.222, 74.887 25.931, 77.223 23.346 C 78.446 21.991, 79.044 20.136, 78.834 18.346 C 78.512 15.605, 78.659 15.500, 82.831 15.500 C 86.755 15.500, 87.423 15.124, 89.937 11.500 C 91.463 9.300, 93.251 7.621, 93.909 7.768 C 94.568 7.915, 95.806 7.337, 96.660 6.483 C 98.653 4.489, 99.853 5.476, 103.434 12.056 C 105.209 15.318, 106.030 18.064, 105.717 19.698 C 105.400 21.361, 106.056 23.467, 107.601 25.743 C 110.814 30.479, 111.748 34.129, 113.980 50.676 C 115.485 61.835, 116.668 66.726, 119.537 73.657 C 122.675 81.238, 123.201 83.645, 123.323 90.981 C 123.505 101.841, 122.096 113.931, 120.353 116.473 C 119.609 117.557, 119 119.911, 119 121.702 C 119 123.494, 118.287 126.743, 117.415 128.922 C 116.200 131.957, 116.027 134.127, 116.674 138.192 L 117.519 143.500 155.009 143.500 L 192.500 143.500 192.757 71.750 L 193.013 0 96.507 0 L 0 0 0 72 M 0.474 72.500 C 0.474 112.100, 0.598 128.154, 0.750 108.176 C 0.901 88.198, 0.901 55.798, 0.750 36.176 C 0.598 16.554, 0.474 32.900, 0.474 72.500" stroke="none" fill="black" fill-rule="evenodd"/>
</svg>