<svg xmlns="http://www.w3.org/2000/svg" width="192" height="144" viewBox="0 0 192 144" version="1.1">
	<path d="M 0 57.057 L 0 114.115 4.250 113.807 L 8.500 113.500 8.573 107.500 C 8.673 99.315, 9.478 97.354, 13.030 96.644 C 15.655 96.119, 16 95.637, 16 92.494 C 16 90.255, 16.556 88.724, 17.500 88.362 C 18.325 88.045, 19 86.961, 19 85.952 C 19 84.943, 19.450 83.840, 20 83.500 C 20.565 83.151, 21 83.973, 21 85.391 C 21 86.771, 21.639 88.260, 22.420 88.700 C 23.201 89.140, 23.989 91.075, 24.170 93 C 24.426 95.720, 24.991 96.570, 26.703 96.813 C 29.507 97.212, 30.347 99.921, 30.095 107.750 C 29.972 111.586, 30.301 114, 30.947 114 C 31.526 114, 32.002 112.313, 32.004 110.250 C 32.006 108.188, 32.939 104.973, 34.077 103.106 L 36.146 99.711 38.073 102.880 C 39.133 104.622, 40 107.329, 40 108.893 C 40 111.404, 40.441 111.811, 43.750 112.358 C 45.813 112.699, 51.628 112.983, 56.673 112.989 C 65.075 112.999, 66.105 113.218, 68.923 115.589 L 72 118.178 72.004 111.339 C 72.007 106.182, 72.518 103.663, 74.083 101.096 L 76.158 97.692 78.072 100.596 C 79.799 103.215, 79.987 105.486, 79.993 123.750 L 80 144 135.840 144 L 191.681 144 192.338 120.750 C 192.700 107.963, 192.996 75.563, 192.998 48.750 L 193 0 96.500 0 L 0 0 0 57.057 M 0.468 57.500 C 0.468 88.850, 0.595 101.530, 0.750 85.679 C 0.904 69.827, 0.904 44.177, 0.749 28.679 C 0.594 13.180, 0.468 26.150, 0.468 57.500 M 121.705 31.405 C 120.492 32.727, 118.990 34.415, 118.366 35.155 C 117.742 35.895, 115.856 37.598, 114.175 38.941 C 110.694 41.719, 110.800 42.952, 114.458 42.253 C 116.497 41.863, 117.164 42.302, 118.041 44.609 C 118.768 46.521, 118.796 48.152, 118.127 49.621 C 116.971 52.159, 117.659 55.779, 119.760 58.210 C 120.663 59.255, 121.001 60.861, 120.629 62.343 C 119.773 65.753, 114.603 71, 112.099 71 C 110.900 71, 110 71.643, 110 72.500 C 110 73.325, 110.450 74, 111 74 C 111.550 74, 112 74.661, 112 75.469 C 112 76.369, 112.586 76.713, 113.513 76.357 C 114.345 76.037, 115.781 76.389, 116.705 77.138 C 118.038 78.220, 118.220 78.227, 117.587 77.176 C 116.931 76.085, 117.153 76.079, 118.854 77.141 C 119.989 77.850, 121.048 79.345, 121.209 80.465 C 121.663 83.636, 124.323 82.857, 125.357 79.250 C 125.870 77.463, 126.809 76, 127.445 76 C 129.283 76, 131 78.211, 131 80.578 C 131 83.076, 133.410 85.482, 134.956 84.527 C 135.530 84.172, 136 82.784, 136 81.441 C 136 80.098, 136.204 79, 136.453 79 C 137.729 79, 142 81.434, 142 82.161 C 142 82.622, 142.450 83, 143 83 C 143.550 83, 144 82.346, 144 81.548 C 144 80.530, 144.861 80.204, 146.878 80.459 C 149.084 80.738, 150.048 80.279, 151.004 78.492 C 151.827 76.955, 152.806 76.367, 153.876 76.767 C 155.273 77.290, 155.312 77.144, 154.155 75.721 C 153.416 74.811, 153.018 73.490, 153.270 72.784 C 153.523 72.078, 153.325 70.713, 152.830 69.750 C 152.136 68.402, 152.340 67.996, 153.715 67.985 C 155.119 67.973, 155.206 67.783, 154.122 67.096 C 153.364 66.616, 153.053 65.723, 153.431 65.112 C 153.809 64.500, 153.581 64, 152.924 64 C 152.267 64, 150.687 62.875, 149.412 61.500 C 147.525 59.464, 146.151 59, 142.002 59 L 136.909 59 137.566 55.500 C 138.286 51.663, 137.744 51.360, 134 53.500 C 130.571 55.460, 130 55.353, 130.003 52.750 C 130.005 51.384, 131.142 49.739, 132.899 48.562 C 134.645 47.392, 135.574 46.054, 135.242 45.188 C 134.939 44.398, 135.436 43.336, 136.346 42.827 C 139.038 41.319, 138.259 40.220, 133.987 39.498 C 129.855 38.800, 127.361 36.109, 128.381 33.451 C 128.937 32.001, 126.579 29, 124.883 29 C 124.347 29, 122.917 30.082, 121.705 31.405" stroke="none" fill="black" fill-rule="evenodd"/>
</svg>