<svg xmlns="http://www.w3.org/2000/svg" width="192" height="144" viewBox="0 0 192 144" version="1.1">
	<path d="M 70.195 18 C 70.553 35.847, 70.538 36, 68.413 36 C 65.346 36, 61.287 39.525, 58.802 44.345 C 53.346 54.928, 58.400 70.906, 67.226 70.978 C 69.349 70.995, 70.371 71.816, 71.842 74.684 C 73.681 78.269, 73.764 78.309, 74.901 76.184 C 75.544 74.983, 77.025 74, 78.191 74 C 79.357 74, 81.888 72.797, 83.815 71.327 L 87.319 68.655 86.719 73.577 C 86.389 76.285, 84.967 82.001, 83.559 86.281 C 82.152 90.560, 81 95.153, 81 96.486 C 81 97.820, 79.873 100.572, 78.495 102.602 C 75.084 107.630, 72.755 115.673, 74.024 118.045 C 75.114 120.081, 78.800 120.253, 80.750 118.358 C 81.437 117.689, 82 115.943, 82 114.476 C 82 113.009, 82.821 110.614, 83.825 109.154 C 84.829 107.694, 86.234 105.037, 86.947 103.250 C 87.659 101.463, 88.808 100, 89.499 100 C 90.232 100, 91.643 96.570, 92.891 91.750 C 94.066 87.213, 95.696 81.039, 96.514 78.032 C 97.331 75.025, 98 68.443, 98 63.407 C 98 49.460, 98.393 48.341, 104.356 45.320 C 107.153 43.902, 112.220 40.074, 115.616 36.813 C 120.497 32.127, 122.037 29.898, 122.959 26.191 C 123.601 23.611, 125.110 19.382, 126.313 16.793 C 128.159 12.819, 129.202 11.836, 133 10.491 C 135.475 9.614, 141.325 6.917, 146 4.498 L 154.500 0.100 112.167 0.050 L 69.834 0 70.195 18" stroke="none" fill="black" fill-rule="evenodd"/>
</svg>