<svg xmlns="http://www.w3.org/2000/svg" width="192" height="144" viewBox="0 0 192 144" version="1.1">
	<path d="M 0 72 L 0 144 38.907 144 L 77.813 144 78.432 134.250 C 78.772 128.887, 79.229 123.076, 79.448 121.336 C 79.669 119.580, 79.227 117.355, 78.455 116.336 C 76.672 113.983, 76.636 110.973, 78.360 108.473 C 80.397 105.519, 81.312 93.124, 79.905 87.537 C 78.966 83.809, 78.990 81.352, 80.018 75.905 C 80.734 72.107, 81.699 69, 82.160 69 C 82.622 69, 83 67.750, 83 66.222 C 83 63.424, 81.797 61.982, 76.750 58.727 C 74.500 57.276, 74 56.223, 74 52.931 C 74 48.299, 76.833 44.803, 82.510 42.432 C 89.168 39.650, 95.796 44.648, 98.389 54.408 C 101.645 66.664, 103.178 75.434, 104.518 89.484 C 105.306 97.743, 106.420 108.997, 106.994 114.494 C 107.700 121.265, 107.708 124.597, 107.018 124.827 C 105.604 125.299, 105.739 127.754, 107.657 136.482 L 109.313 144.022 150.907 143.761 L 192.500 143.500 192.519 71.500 C 192.529 31.900, 192.410 12.865, 192.254 29.200 L 191.970 58.901 187.930 57.475 C 165.734 49.644, 152 30.670, 152 7.839 L 152 0 76 0 L 0 0 0 72 M 0.474 72.500 C 0.474 112.100, 0.598 128.154, 0.750 108.176 C 0.901 88.198, 0.901 55.798, 0.750 36.176 C 0.598 16.554, 0.474 32.900, 0.474 72.500" stroke="none" fill="black" fill-rule="evenodd"/>
</svg>