<svg xmlns="http://www.w3.org/2000/svg" width="192" height="144" viewBox="0 0 192 144" version="1.1">
	<path d="M 0 72 L 0 144 34.443 144 L 68.887 144 70.443 141.777 C 73.343 137.637, 71.823 133.482, 66.750 131.683 C 65.787 131.342, 65 130.171, 65 129.081 C 65 127.991, 64.223 126.664, 63.273 126.133 C 59.910 124.251, 61.086 118.220, 66.816 107.948 C 70.484 101.374, 71.917 97.817, 71.525 96.253 C 71.182 94.881, 71.950 92.058, 73.499 89.003 C 75.494 85.065, 75.719 84, 74.555 84 C 73.664 84, 72.625 82.323, 71.939 79.772 C 70.898 75.908, 70.981 75.425, 72.900 74.150 C 74.055 73.383, 75 72.081, 75 71.256 C 75 70.094, 74.689 70.014, 73.622 70.899 C 71.492 72.666, 70.808 68.395, 72.552 64.220 C 73.349 62.315, 74 59.912, 74 58.882 C 74 56.496, 77.685 45.675, 80.207 40.653 C 81.270 38.537, 81.854 36.062, 81.505 35.153 C 80.643 32.906, 80.867 32.446, 82.646 32.812 C 83.479 32.984, 85.139 32.484, 86.334 31.700 C 88.786 30.094, 96 28.975, 96 30.201 C 96 30.640, 96.900 31.900, 98 33 C 99.100 34.100, 100 36.077, 100 37.393 C 100 38.709, 100.675 40.045, 101.500 40.362 C 103.924 41.292, 103.239 42.793, 99.604 44.518 C 97.084 45.713, 96.094 46.909, 95.764 49.153 C 95.353 51.954, 96.980 55, 98.887 55 C 99.903 55, 104 65.054, 104 67.547 C 104 68.651, 103.423 70.443, 102.717 71.527 C 102.011 72.612, 100.844 75.223, 100.124 77.329 C 98.898 80.912, 99.084 82, 103.034 94.329 C 105.355 101.573, 108.524 110.700, 110.078 114.610 C 113.955 124.372, 113.220 127.283, 106.686 128.045 C 104.114 128.345, 101.537 129.063, 100.961 129.639 C 100.296 130.304, 100.162 133.126, 100.595 137.354 L 101.278 144.020 146.889 143.760 L 192.500 143.500 192.757 71.750 L 193.013 0 96.507 0 L 0 0 0 72 M 0.474 72.500 C 0.474 112.100, 0.598 128.154, 0.750 108.176 C 0.901 88.198, 0.901 55.798, 0.750 36.176 C 0.598 16.554, 0.474 32.900, 0.474 72.500 M 95.852 68.395 C 95.427 73.732, 96.222 74.294, 98.027 69.934 C 99.102 67.339, 99.061 66.632, 97.758 65.329 C 96.372 63.943, 96.182 64.249, 95.852 68.395 M 90 132.500 C 88.625 133.286, 85.868 133.945, 83.872 133.965 C 79.624 134.006, 78.120 135.486, 77.321 140.411 L 76.738 144 85.369 144 L 94 144 94 137.500 C 94 133.925, 93.662 131.016, 93.250 131.035 C 92.838 131.055, 91.375 131.714, 90 132.500" stroke="none" fill="black" fill-rule="evenodd"/>
</svg>