<svg xmlns="http://www.w3.org/2000/svg" width="192" height="144" viewBox="0 0 192 144" version="1.1">
	<path d="M 101.468 2.290 C 90.910 6.927, 87.535 11.042, 86.127 21 C 85.522 25.273, 85.187 25.663, 79.495 28.722 C 76.198 30.494, 72.487 31.956, 71.250 31.972 C 69.542 31.993, 69 32.585, 69 34.429 C 69 39.195, 71.860 40.467, 77.674 38.285 C 78.319 38.043, 80.569 40.104, 82.674 42.865 C 84.778 45.627, 86.950 47.928, 87.500 47.979 C 88.050 48.030, 89.713 49.068, 91.195 50.286 C 93.604 52.265, 93.867 53.098, 93.672 58.131 C 93.509 62.345, 93.775 63.640, 94.727 63.274 C 95.427 63.006, 96 62.384, 96 61.893 C 96 61.402, 96.450 61, 97 61 C 97.550 61, 98.007 62.237, 98.015 63.750 C 98.026 65.688, 98.286 66.096, 98.896 65.134 C 99.516 64.155, 100.260 64.046, 101.515 64.748 C 102.547 65.326, 104.742 65.397, 106.856 64.920 C 108.829 64.475, 110.564 64.231, 110.711 64.378 C 110.859 64.525, 110.421 65.863, 109.740 67.350 C 108.848 69.295, 107.236 70.418, 104 71.347 C 100.300 72.410, 99.145 73.349, 97.500 76.630 C 96.400 78.824, 93.606 82.316, 91.291 84.389 C 87.743 87.567, 87.170 88.598, 87.642 90.958 C 88.318 94.338, 86.516 95.832, 85.055 93.103 C 84.462 91.995, 80.434 89.716, 75.755 87.840 C 67.776 84.642, 67.025 84.531, 53.300 84.516 C 44.387 84.506, 38.695 84.905, 38.013 85.587 C 36.649 86.951, 38.304 91.749, 40.789 93.637 C 42.305 94.788, 42.129 94.940, 39.250 94.968 C 37.462 94.986, 36 95.450, 36 96 C 36 96.550, 36.369 97, 36.821 97 C 37.273 97, 39.796 99.064, 42.428 101.586 C 47.133 106.093, 47.314 106.166, 53.025 105.837 C 56.221 105.653, 59.173 105.839, 59.584 106.251 C 59.996 106.663, 61.793 107, 63.577 107 C 66.469 107, 67.250 107.679, 70.780 113.270 C 75.401 120.586, 76.677 121.780, 81.741 123.524 C 85.380 124.777, 85.492 124.957, 85.234 129.159 C 84.902 134.577, 83.343 139.470, 81.449 141.042 C 80.652 141.704, 80 142.640, 80 143.122 C 80 143.605, 91.137 143.964, 104.750 143.921 C 118.363 143.878, 128.825 143.595, 128 143.294 C 121.643 140.970, 119.778 133.708, 122.560 122.115 C 124.632 113.484, 125.453 112, 128.156 112 C 129.266 112, 130.900 110.588, 132.054 108.634 C 133.908 105.492, 134.322 105.299, 138.270 105.741 C 145.977 106.603, 152.548 110.652, 164.014 121.603 C 170.003 127.321, 175.219 132, 175.607 132 C 175.994 132, 177.704 130.942, 179.406 129.648 C 184.756 125.582, 188.385 124.076, 190.281 125.137 C 191.873 126.028, 192 124.989, 192 111.105 L 192 96.111 186.356 98.694 C 179.062 102.034, 174.125 102.504, 165.500 100.682 C 159.417 99.397, 158.288 99.391, 156.881 100.638 C 155.453 101.903, 154.174 101.516, 146.030 97.353 L 136.798 92.635 137.347 89.247 C 138.076 84.757, 137.033 82.472, 131.532 76.501 C 126.815 71.382, 125.781 67.363, 129.250 67.639 C 130.213 67.715, 131 67.351, 131 66.830 C 131 66.309, 131.450 66.160, 132 66.500 C 132.550 66.840, 133.014 66.304, 133.032 65.309 C 133.062 63.593, 133.132 63.590, 134.392 65.250 C 136.461 67.975, 137.315 67.326, 136.694 63.500 C 136.109 59.897, 136.752 59.152, 138.736 61.136 C 139.583 61.983, 140.286 61.856, 141.507 60.636 C 142.407 59.736, 143.508 59, 143.954 59 C 144.399 59, 144.179 57.313, 143.465 55.250 C 142.025 51.097, 143.137 49.932, 146.712 51.846 C 147.992 52.531, 149.097 52.402, 150.453 51.411 C 152.324 50.043, 152.303 49.926, 149.705 47.214 C 145.336 42.654, 143.066 37.110, 144.216 33.810 C 144.926 31.773, 145.862 31, 147.618 31 C 150.951 31, 156.988 27, 161.354 21.900 C 165.314 17.273, 165.787 16, 163.547 16 C 162.748 16, 160.933 15.471, 159.513 14.824 L 156.932 13.648 159.966 12.372 C 163.468 10.900, 163.968 7.773, 161.474 2.950 L 159.949 -0 133.224 0.040 C 107.886 0.078, 106.239 0.195, 101.468 2.290" stroke="none" fill="black" fill-rule="evenodd"/>
</svg>