<svg xmlns="http://www.w3.org/2000/svg" width="192" height="144" viewBox="0 0 192 144" version="1.1">
	<path d="M 71.332 5.560 C 70.072 6.925, 69.370 8.697, 69.655 9.790 C 70.708 13.814, 61.541 21.162, 55.174 21.400 C 51.624 21.533, 51.133 24.908, 54.082 28.897 C 56.127 31.663, 56.197 32.225, 55.020 36.427 C 53.910 40.395, 53.962 41.292, 55.433 43.538 C 56.359 44.951, 57.765 46.356, 58.558 46.661 C 59.351 46.965, 60.003 47.728, 60.006 48.357 C 60.009 48.986, 60.479 51.184, 61.050 53.242 C 61.800 55.940, 62.775 57.156, 64.545 57.601 C 65.895 57.940, 66.995 58.506, 66.989 58.858 C 66.983 59.211, 64.620 61.097, 61.739 63.049 C 56.957 66.289, 56.491 66.943, 56.402 70.549 C 56.349 72.722, 55.032 78.717, 53.476 83.872 C 50.928 92.312, 50.243 93.541, 46.574 96.241 C 44.333 97.890, 41.150 99.821, 39.500 100.532 C 37.850 101.244, 35.150 102.990, 33.500 104.412 C 30.864 106.683, 29.611 106.998, 23.184 106.999 C 19.161 106.999, 15.106 107.408, 14.174 107.907 C 11.821 109.166, 6.959 108.070, 6.241 106.118 C 5.489 104.073, 3.986 103.035, 1.750 103.015 C 0.167 103.001, 0 104.322, 0 116.891 L 0 130.783 3.750 132.281 C 5.813 133.105, 9.750 134.464, 12.500 135.301 C 15.250 136.138, 22.086 138.454, 27.692 140.447 L 37.883 144.071 74.692 143.785 C 111.222 143.502, 111.537 143.482, 116.363 141.106 C 120.082 139.275, 121.666 137.745, 123.091 134.606 C 125.003 130.396, 125.597 122.488, 124.170 120.240 C 122.981 118.368, 112.756 118.068, 101.984 119.590 C 96.768 120.327, 91.947 120.945, 91.270 120.965 C 90.594 120.984, 89.171 119.313, 88.107 117.250 C 87.044 115.188, 85.145 112.410, 83.887 111.077 C 81.719 108.780, 81.695 108.599, 83.419 107.577 C 89.329 104.075, 89.485 103.728, 89.775 93.339 C 89.927 87.928, 90.498 80.538, 91.045 76.918 C 91.602 73.228, 91.683 68.614, 91.230 66.418 C 90.458 62.680, 90.227 62.486, 86.210 62.193 C 80.757 61.794, 80.837 60.322, 86.389 58.924 C 90.064 57.998, 91.057 57.199, 92.494 54.013 C 93.943 50.799, 94.038 49.406, 93.105 45.054 C 92.497 42.219, 91.305 38.557, 90.456 36.916 C 89.015 34.129, 89.053 33.735, 91.020 30.972 C 93.190 27.924, 92.966 26, 90.441 26 C 89.648 26, 89 25.298, 89 24.441 C 89 23.584, 88.543 23.165, 87.984 23.510 C 87.425 23.856, 85.369 22.492, 83.415 20.480 C 80.400 17.375, 80.084 16.646, 81.330 15.661 C 82.137 15.022, 83.092 13.509, 83.451 12.297 C 83.998 10.456, 83.440 9.755, 80.052 8.027 C 77.824 6.890, 76 5.293, 76 4.480 C 76 2.344, 73.839 2.844, 71.332 5.560 M 76 13.393 C 76 13.609, 76.698 14.054, 77.552 14.382 C 78.442 14.723, 78.843 14.555, 78.493 13.989 C 77.906 13.038, 76 12.583, 76 13.393 M 182.478 25.925 C 180.290 26.920, 177.490 28.918, 176.257 30.367 C 175.023 31.815, 173.670 33, 173.251 33 C 172.831 33, 171.878 34.379, 171.131 36.065 C 169.891 38.867, 169.965 39.334, 171.985 41.484 C 176.459 46.246, 174.724 57.254, 168.583 63.082 C 164.263 67.181, 166.014 75, 171.252 75 C 172.649 75, 172.681 75.340, 171.509 77.750 C 170.773 79.263, 169.612 84.043, 168.928 88.372 C 167.835 95.299, 167.873 96.349, 169.240 97.114 C 170.850 98.016, 170.678 99.631, 168.079 108 C 167.075 111.232, 165.008 133.238, 165.002 140.750 L 165 144 178.500 144 L 192 144 191.998 84.250 L 191.996 24.500 189.226 24.308 C 187.703 24.203, 184.666 24.930, 182.478 25.925 M 49.614 106.250 L 43.808 110.500 46.943 110.816 C 48.668 110.990, 51.411 110.543, 53.040 109.822 C 55.446 108.757, 56 107.902, 56 105.256 C 56 103.465, 55.870 102, 55.711 102 C 55.551 102, 52.808 103.912, 49.614 106.250" stroke="none" fill="black" fill-rule="evenodd"/>
</svg>