<svg xmlns="http://www.w3.org/2000/svg" width="192" height="144" viewBox="0 0 192 144" version="1.1">
	<path d="M 0 72 L 0 144 34.520 144 L 69.041 144 67.020 140.040 C 65.909 137.862, 65.002 134.824, 65.004 133.290 C 65.008 129.818, 68.083 124.647, 71.458 122.436 C 74.007 120.766, 77.084 115.066, 79.522 107.500 C 80.231 105.300, 81.166 102.600, 81.599 101.500 C 82.308 99.703, 82.038 99.757, 78.944 102.034 C 77.050 103.427, 74.245 105.113, 72.712 105.780 C 70.722 106.645, 69.979 107.638, 70.117 109.246 C 70.494 113.630, 69.968 114.771, 67 116 C 64.661 116.969, 64 117.869, 64 120.087 C 64 122.747, 63.675 122.974, 58.965 123.599 C 52.710 124.429, 49.425 126.920, 48.569 131.482 C 48.206 133.417, 47.488 135, 46.974 135 C 45.649 135, 44.671 130.449, 45.384 127.604 C 45.810 125.908, 45.501 125.022, 44.323 124.570 C 42.932 124.037, 43.260 123.318, 46.330 120.174 C 48.613 117.837, 50 115.453, 50 113.868 C 50 112.127, 50.785 110.963, 52.480 110.191 C 54.028 109.486, 54.751 108.514, 54.403 107.607 C 54.067 106.733, 54.764 105.661, 56.152 104.919 C 59.387 103.187, 60.551 101.876, 63.435 96.710 C 68.018 88.500, 69.297 83.239, 68.595 75.487 L 67.956 68.432 72.175 63.657 C 76.213 59.087, 76.412 58.557, 76.796 51.296 C 77.139 44.825, 76.976 43.795, 75.682 44.292 C 73.604 45.089, 73.220 43.607, 73.401 35.487 C 73.521 30.078, 73.133 27.907, 71.681 25.873 C 69.707 23.107, 69.786 19.325, 71.809 19.750 C 72.464 19.888, 73 19.510, 73 18.910 C 73 17.151, 77.359 14.043, 79.098 14.562 C 79.978 14.824, 82.003 14.358, 83.598 13.525 C 85.194 12.693, 87.575 12.010, 88.890 12.006 C 90.204 12.003, 91.851 11.218, 92.549 10.263 C 93.753 8.617, 93.922 8.619, 95.792 10.312 C 97.175 11.563, 98.559 11.898, 100.423 11.430 C 103.631 10.625, 107 13.216, 107 16.488 C 107 17.686, 107.272 18.938, 107.604 19.270 C 108.101 19.768, 108.685 27.266, 109.102 38.500 C 109.234 42.040, 110.015 44.994, 110.768 44.796 C 112.440 44.357, 116.616 46.359, 118.193 48.356 C 119.670 50.227, 120.944 50.510, 128.193 50.575 C 134.981 50.636, 137.186 51.066, 140.250 52.924 C 145.222 55.938, 145.459 59.459, 140.750 60.361 C 138.963 60.704, 135.553 61.384, 133.173 61.872 C 129.923 62.539, 128.723 62.442, 128.355 61.483 C 128.086 60.781, 125.900 59.912, 123.497 59.552 C 119.950 59.020, 118.492 59.314, 115.740 61.118 L 112.351 63.340 113.742 67.378 C 114.843 70.573, 114.945 73.926, 114.232 83.457 C 113.734 90.116, 113.712 96.267, 114.183 97.216 C 114.651 98.160, 116.939 99.423, 119.267 100.022 C 128.599 102.426, 130.107 103.209, 132.393 106.843 C 137.271 114.597, 137.602 133.053, 132.997 140.505 L 130.819 144.029 161.659 143.765 L 192.500 143.500 192.757 71.750 L 193.013 0 96.507 0 L 0 0 0 72 M 0.474 72.500 C 0.474 112.100, 0.598 128.154, 0.750 108.176 C 0.901 88.198, 0.901 55.798, 0.750 36.176 C 0.598 16.554, 0.474 32.900, 0.474 72.500 M 105.079 45.583 C 105.127 46.748, 105.364 46.985, 105.683 46.188 C 105.972 45.466, 105.936 44.603, 105.604 44.271 C 105.272 43.939, 105.036 44.529, 105.079 45.583 M 79.790 49.977 C 79.129 54.482, 80.312 55.681, 83.415 53.648 C 86.349 51.725, 86.624 50.482, 84.571 48.429 C 82.244 46.101, 80.265 46.742, 79.790 49.977 M 78 57.500 C 78 58.325, 78.177 59, 78.393 59 C 78.609 59, 79.045 58.325, 79.362 57.500 C 79.678 56.675, 79.501 56, 78.969 56 C 78.436 56, 78 56.675, 78 57.500 M 83.995 81.250 C 83.271 82.763, 82.076 84, 81.339 84 C 80.603 84, 80 84.702, 80 85.560 C 80 86.742, 80.749 87.002, 83.094 86.632 C 87.209 85.984, 87.468 85.591, 86.305 81.767 L 85.312 78.500 83.995 81.250" stroke="none" fill="black" fill-rule="evenodd"/>
</svg>