<svg xmlns="http://www.w3.org/2000/svg" width="192" height="144" viewBox="0 0 192 144" version="1.1">
	<path d="M 63.755 4.805 C 65.047 18.244, 58.443 35.445, 48.324 45 C 45.121 48.025, 40.700 51.400, 38.500 52.500 C 36.300 53.600, 34.275 54.744, 34 55.042 C 33.363 55.733, 27.035 57.577, 20.132 59.084 C 14.923 60.221, 5.308 59.908, 1.750 58.486 C 0.100 57.826, 0 60.239, 0 100.893 L 0 144 53.885 144 L 107.770 144 108.940 135.996 C 109.584 131.593, 110.935 125.596, 111.942 122.669 C 112.949 119.741, 114.528 113.331, 115.451 108.423 C 116.374 103.515, 117.550 97.340, 118.064 94.701 C 119.373 87.991, 119.262 80, 117.860 80 C 117.233 80, 116.209 80.700, 115.583 81.556 C 114.378 83.203, 114.289 83.232, 106.500 84.464 C 99.804 85.524, 98 86.600, 98 89.535 C 98 92.371, 95.931 92.788, 93.571 90.429 C 91.715 88.572, 91.698 88.434, 93.023 85.957 C 94.325 83.524, 96.906 82.125, 105 79.467 C 111.267 77.409, 111.489 77.224, 111.186 74.274 C 110.953 72.007, 111.665 70.312, 113.936 67.726 C 115.621 65.806, 117 63.508, 117 62.618 C 117 61.728, 118.013 59.987, 119.250 58.750 C 120.487 57.513, 121.500 56.064, 121.500 55.532 C 121.500 54.999, 120.487 53.471, 119.250 52.136 C 118.013 50.800, 117 48.982, 117 48.095 C 117 47.207, 116.100 45.919, 115 45.232 C 112.764 43.835, 112.458 41.283, 114.097 37.686 C 114.954 35.805, 114.845 34.600, 113.597 32.188 C 112.719 30.489, 112 28.852, 112 28.550 C 112 27.306, 117.355 28.154, 124.932 30.598 C 134.225 33.596, 137.432 36.576, 138.506 43.215 C 138.887 45.572, 140.054 49.470, 141.099 51.877 C 142.145 54.285, 143.006 57.660, 143.013 59.377 C 143.020 61.095, 143.920 65.353, 145.013 68.839 C 146.677 74.147, 147 78.009, 147 92.589 C 147 103.530, 146.628 110, 146 110 C 144.061 110, 145.065 113.064, 151.500 126.776 C 155.075 134.394, 158 141.397, 158 142.337 C 158 143.895, 159.536 144.023, 175.250 143.774 L 192.500 143.500 192.825 129 C 193.003 121.025, 192.837 88.737, 192.455 57.250 L 191.761 0 127.527 -0 L 63.294 -0 63.755 4.805 M 0.459 101 C 0.459 124.925, 0.589 134.713, 0.749 122.750 C 0.908 110.788, 0.908 91.213, 0.749 79.250 C 0.589 67.288, 0.459 77.075, 0.459 101 M 133 84.941 C 133 86.623, 133.450 88, 134 88 C 134.550 88, 135 86.902, 135 85.559 C 135 84.216, 134.550 82.840, 134 82.500 C 133.417 82.139, 133 83.156, 133 84.941" stroke="none" fill="black" fill-rule="evenodd"/>
</svg>