<svg xmlns="http://www.w3.org/2000/svg" width="192" height="144" viewBox="0 0 192 144" version="1.1">
	<path d="M 0 43 L 0 86 6.750 86 C 13.699 86, 44.983 83.721, 60.653 82.074 C 65.519 81.562, 74.675 80.599, 81 79.934 C 87.325 79.268, 93.025 78.223, 93.667 77.612 C 94.309 77, 94.984 74.700, 95.167 72.500 L 95.500 68.500 89.500 67.774 C 76.106 66.154, 69.113 65.116, 61.500 63.616 C 57.100 62.749, 52.882 62.030, 52.128 62.020 C 51.016 62.004, 50.994 61.712, 52.010 60.488 C 53.415 58.795, 61.482 55, 63.677 55 C 65.600 55, 71 52.149, 71 51.134 C 71 50.687, 69.088 49.720, 66.750 48.986 C 64.413 48.253, 62.111 47.319, 61.635 46.911 C 60.821 46.213, 68.009 41, 69.786 41 C 71.531 41, 77.642 35.846, 80.735 31.767 C 87.045 23.445, 91.727 16.473, 92.362 14.455 C 92.846 12.916, 92.016 11.445, 89.002 8.502 C 86.628 6.184, 85 3.660, 85 2.297 L 85 0 62 0 L 39 0 39 2.699 C 39 4.184, 40.206 9.575, 41.681 14.679 L 44.361 23.959 41.931 29.148 C 37.405 38.810, 39.185 49.467, 45.828 52.487 C 48.621 53.756, 48.613 55, 45.812 55 C 42.264 55, 37.136 50.833, 34.735 46 C 32.922 42.349, 32.484 39.708, 32.414 32 C 32.335 23.289, 32.024 21.835, 28.676 14.500 C 26.668 10.100, 25.019 5.038, 25.012 3.250 L 25 0 12.500 0 L 0 0 0 43 M 92 1.378 C 92 2.135, 92.675 3.315, 93.500 4 C 94.768 5.053, 95 4.840, 95 2.622 C 95 0.958, 94.452 0, 93.500 0 C 92.675 0, 92 0.620, 92 1.378 M 113 3.300 C 113 5.115, 113.461 7.061, 114.023 7.623 C 114.586 8.186, 115.239 9.643, 115.473 10.860 C 115.707 12.077, 117.553 15.795, 119.574 19.122 C 121.596 22.450, 123.615 26.596, 124.061 28.336 C 124.507 30.076, 125.793 34.875, 126.919 39 C 129.199 47.356, 129.354 48.893, 128.112 50.853 C 127.421 51.943, 126.811 51.969, 124.977 50.988 L 122.700 49.769 123.553 56.635 C 124.023 60.411, 124.372 65.412, 124.329 67.750 C 124.286 70.087, 124.404 72, 124.591 72 C 126.014 72, 165.396 61.236, 177 57.676 L 191.500 53.227 191.766 26.614 L 192.033 0 152.516 0 L 113 0 113 3.300 M 109 73.393 C 109 75.189, 113.461 75.681, 114.500 74 C 114.840 73.450, 114.453 73, 113.641 73 C 112.828 73, 111.452 72.727, 110.582 72.393 C 109.544 71.995, 109 72.338, 109 73.393 M 183.138 121.593 C 178.539 126.817, 174.264 130.921, 173.638 130.711 C 173.012 130.502, 169.915 132.094, 166.755 134.249 C 161.677 137.714, 156.229 140.254, 148 142.995 C 146.512 143.491, 154.907 143.863, 168.750 143.914 L 192 144 192 128 C 192 119.200, 191.887 112.021, 191.750 112.047 C 191.613 112.073, 187.737 116.368, 183.138 121.593" stroke="none" fill="black" fill-rule="evenodd"/>
</svg>