<svg xmlns="http://www.w3.org/2000/svg" width="192" height="144" viewBox="0 0 192 144" version="1.1">
	<path d="M 0 9.402 L 0 18.804 5.879 19.486 C 9.903 19.953, 12.385 19.776, 13.746 18.926 C 16.277 17.346, 19 18.360, 19 20.882 C 19 22.611, 19.320 22.705, 21.888 21.736 C 26.296 20.073, 31.232 21.843, 32.475 25.534 C 33.024 27.165, 33.795 28.738, 34.187 29.028 C 35.854 30.263, 36.689 34.527, 35.610 36.297 C 34.690 37.808, 35.017 38.579, 37.522 40.810 C 39.185 42.289, 43.361 45.994, 46.803 49.042 L 53.061 54.584 51.873 59.728 C 50.970 63.641, 50.959 66.529, 51.828 71.789 C 52.874 78.121, 59.387 99.300, 62.503 106.500 C 64.662 111.488, 66 118.547, 66 124.943 C 66 129.883, 65.698 131, 64.365 131 C 63.465 131, 61.672 132.141, 60.379 133.536 C 58.272 135.809, 57.521 136.005, 53.142 135.424 C 47.756 134.710, 47.560 134.855, 46.586 140.250 L 45.909 144 66.040 144 L 86.171 144 83.671 139.527 C 82.296 137.066, 80.859 133.636, 80.479 131.903 C 80.098 130.171, 78.916 127.276, 77.851 125.471 C 76.560 123.284, 76.131 121.325, 76.566 119.595 C 76.973 117.971, 76.802 117, 76.108 117 C 75.499 117, 75.113 116.649, 75.250 116.220 C 75.388 115.790, 73.623 113.540, 71.328 111.220 C 69.034 108.899, 67.396 107, 67.689 107 C 67.982 107, 67.251 106.213, 66.065 105.250 C 64.880 104.288, 63.850 102.375, 63.778 101 C 63.705 99.625, 63.277 98.005, 62.826 97.401 C 62.375 96.796, 61.754 91.277, 61.447 85.135 C 60.993 76.054, 61.166 73.691, 62.373 72.484 C 63.189 71.668, 64.339 71, 64.929 71 C 65.518 71, 66 70.132, 66 69.071 C 66 68.011, 66.675 66.468, 67.500 65.643 C 68.325 64.818, 69 63.314, 69 62.301 C 69 61.288, 69.930 57.104, 71.066 53.003 C 72.854 46.553, 72.969 44.961, 71.920 41.215 C 70.969 37.818, 70.970 35.710, 71.926 31.439 C 72.596 28.444, 73.030 23.527, 72.891 20.512 C 72.751 17.497, 72.944 14.723, 73.318 14.348 C 73.693 13.973, 74 12.617, 74 11.333 C 74 10.050, 74.477 9, 75.059 9 C 75.641 9, 75.859 8.581, 75.543 8.069 C 75.226 7.557, 75.425 6.856, 75.984 6.510 C 76.543 6.165, 77 4.559, 77 2.941 L 77 0 38.500 0 L 0 0 0 9.402 M -0 81.875 L 0 144 14.955 144 L 29.909 144 30.554 140.565 C 31.413 135.984, 30.610 135, 26.008 135 C 23.013 135, 21.991 134.547, 21.500 133 C 20.906 131.128, 17.983 130.481, 11.250 130.731 C 9.609 130.792, 9.599 124.004, 11.234 120.297 C 11.912 118.759, 14.917 113.450, 17.910 108.500 C 20.903 103.550, 24.922 96.125, 26.841 92 C 30.016 85.173, 30.352 83.580, 30.582 74.250 C 30.817 64.762, 29.926 60.924, 28.726 66.250 C 28.447 67.487, 27.017 71.833, 25.548 75.907 C 23.524 81.520, 23.039 84.269, 23.544 87.258 C 24.152 90.859, 24.040 91.147, 22.246 90.578 C 19.974 89.857, 18.453 91.347, 17.472 95.256 C 16.521 99.046, 15.220 98.689, 14.418 94.417 C 13.888 91.590, 14.213 90.203, 15.961 87.839 C 17.179 86.191, 17.922 84.589, 17.612 84.278 C 17.301 83.968, 16.763 84.453, 16.417 85.357 C 16.070 86.261, 15.259 87, 14.615 87 C 13.971 87, 12.674 87.900, 11.732 89 C 7.359 94.107, 5 90.265, 5 78.037 C 5 69.102, 5.091 68.759, 10.186 58.405 L 15.373 47.868 14.186 42.124 C 13.534 38.964, 13 35.169, 13 33.690 C 13 31.380, 12.585 31, 10.059 31 C 6.285 31, 5.752 30.031, 7.585 26.498 C 9.382 23.035, 8.211 21.392, 3.237 20.397 L -0 19.750 -0 81.875 M 35.822 69.500 C 35.177 72.496, 35.489 73.844, 36.575 72.758 C 36.892 72.442, 36.997 70.904, 36.809 69.341 L 36.467 66.500 35.822 69.500 M 36.630 140.250 C 35.696 143.735, 35.828 144, 38.500 144 C 40.611 144, 41 143.533, 41 141 C 41 138.729, 40.543 138, 39.117 138 C 38.009 138, 36.985 138.927, 36.630 140.250" stroke="none" fill="black" fill-rule="evenodd"/>
</svg>