<svg xmlns="http://www.w3.org/2000/svg" width="192" height="144" viewBox="0 0 192 144" version="1.1">
	<path d="M 0 72 L 0 144 39.955 144 L 79.909 144 80.392 140.750 C 80.657 138.963, 81.333 134.388, 81.894 130.584 C 82.455 126.781, 82.721 123.358, 82.486 122.978 C 82.251 122.598, 82.001 116.485, 81.931 109.393 C 81.860 102.302, 81.575 95.213, 81.298 93.640 L 80.793 90.781 77.840 94.014 C 75.082 97.033, 74.576 97.205, 70.193 96.603 C 67.612 96.249, 62.692 95.682, 59.259 95.343 C 55.827 95.005, 52.510 94.114, 51.887 93.364 C 51.196 92.531, 48.565 91.966, 45.128 91.912 C 35.465 91.762, 29.940 90.689, 30.900 89.150 C 31.363 88.407, 33.309 87.800, 35.224 87.800 C 37.139 87.800, 39.334 87.402, 40.103 86.915 C 41.111 86.277, 40.734 86.026, 38.750 86.015 C 35.689 85.998, 35.032 84.422, 37.750 83.616 C 41.236 82.583, 59.639 83.798, 65.357 85.438 C 68.579 86.362, 71.333 86.979, 71.478 86.809 C 72.509 85.596, 76 76.384, 76 74.876 C 76 73.847, 77.624 71.208, 79.610 69.010 C 81.929 66.443, 82.998 64.438, 82.600 63.401 C 82.191 62.334, 83.171 60.698, 85.491 58.573 C 89.127 55.242, 90.167 52.615, 87.434 53.664 C 85.271 54.494, 78.814 48.160, 79.529 45.909 C 79.915 44.693, 79.215 43.922, 77.035 43.162 C 75.369 42.581, 73.503 41.003, 72.889 39.655 C 71.299 36.166, 74.128 28.021, 77.897 25.234 C 80.095 23.609, 80.635 22.541, 80.257 20.564 C 79.804 18.194, 80.041 18, 83.383 18 C 85.879 18, 87 17.550, 87 16.547 C 87 14.134, 89.229 10.024, 90.209 10.629 C 90.713 10.941, 91.946 10.454, 92.948 9.547 C 94.664 7.994, 94.954 8.120, 97.913 11.699 C 99.642 13.790, 101.570 17.300, 102.198 19.500 C 102.826 21.700, 104.183 24.450, 105.213 25.610 C 108.303 29.091, 110.994 37.607, 112.564 48.869 C 113.401 54.872, 115.603 64.022, 117.622 69.888 C 123.075 85.729, 122.417 94.695, 113.907 120.500 C 113.363 122.150, 112.644 128.118, 112.308 133.761 L 111.697 144.023 152.099 143.761 L 192.500 143.500 192.757 71.750 L 193.013 0 96.507 0 L 0 0 0 72 M 0.474 72.500 C 0.474 112.100, 0.598 128.154, 0.750 108.176 C 0.901 88.198, 0.901 55.798, 0.750 36.176 C 0.598 16.554, 0.474 32.900, 0.474 72.500" stroke="none" fill="black" fill-rule="evenodd"/>
</svg>