<svg xmlns="http://www.w3.org/2000/svg" width="192" height="144" viewBox="0 0 192 144" version="1.1">
	<path d="M 0 72 L 0 144 35.284 144 L 70.569 144 72.284 141.096 C 73.228 139.498, 74.010 137.361, 74.022 136.346 C 74.034 135.331, 74.979 132.475, 76.122 130 C 77.689 126.606, 78.172 123.656, 78.089 118 C 77.935 107.441, 77.032 102, 75.435 102 C 72.280 102, 76.294 82.790, 79.917 80.551 C 80.513 80.183, 81 79.046, 81 78.024 C 81 77.003, 81.496 76.001, 82.103 75.799 C 82.709 75.597, 81.760 73.884, 79.993 71.993 C 74.518 66.132, 73.263 59.330, 77.153 56.605 L 79.307 55.097 76.732 53.924 C 73.659 52.524, 74.111 49.583, 77.247 50.578 C 79.150 51.182, 79.220 50.917, 78.559 45.626 C 77.706 38.798, 78.317 37.507, 81.436 39.550 C 83.546 40.933, 84.137 40.912, 87.634 39.331 C 96.080 35.514, 96 35.729, 96 16.826 L 96 0 48 0 L 0 0 0 72 M 96 89 L 96 144 109.122 144 C 119.498 144, 122.031 143.738, 121.225 142.750 C 120.664 142.063, 119.034 138.091, 117.603 133.925 C 115.554 127.963, 115.019 124.555, 115.088 117.925 C 115.165 110.487, 116.514 97.457, 116.866 100.750 C 116.940 101.438, 117.502 102, 118.115 102 C 118.888 102, 119.014 100.235, 118.525 96.250 C 117.927 91.383, 116.307 87.224, 111.024 77 C 110.493 75.971, 111.467 74.172, 114.125 71.272 C 118.944 66.014, 119.479 61.015, 115.500 58.408 C 112.478 56.428, 112.340 55.406, 115 54.710 C 117.629 54.023, 117.579 52, 114.933 52 C 113.447 52, 113 51.507, 113.345 50.250 C 114.574 45.773, 114.887 41.373, 114.069 40.079 C 113.299 38.862, 112.827 38.883, 110.776 40.227 C 108.570 41.673, 108.189 41.649, 105.941 39.920 C 104.598 38.889, 103.007 38.034, 102.405 38.022 C 101.803 38.010, 100.495 37.100, 99.500 36 C 98.505 34.900, 97.310 34, 96.845 34 C 96.380 34, 96 58.750, 96 89 M 77.579 61.564 C 76.215 62.928, 76.193 63.471, 77.412 65.814 C 79.179 69.210, 83.777 73.556, 84.664 72.669 C 85.723 71.610, 82.951 67.221, 80.882 66.679 C 79.378 66.286, 79.133 65.584, 79.631 63.095 C 80.325 59.624, 79.863 59.280, 77.579 61.564 M 112.457 64.708 C 112.484 66.448, 112.022 67.403, 111.231 67.244 C 109.745 66.944, 107.330 71.663, 108.415 72.748 C 109.413 73.746, 117.247 65.246, 116.743 63.713 C 116.523 63.046, 115.459 62.368, 114.379 62.208 C 112.818 61.975, 112.423 62.488, 112.457 64.708 M 87.667 73.667 C 87.300 74.033, 87 74.798, 87 75.367 C 87 75.993, 87.466 75.934, 88.183 75.217 C 88.834 74.566, 89.134 73.801, 88.850 73.517 C 88.566 73.233, 88.033 73.300, 87.667 73.667 M 102 74.417 C 102 75.287, 102.713 76, 103.583 76 C 104.454 76, 104.989 75.466, 104.771 74.813 C 104.153 72.958, 102 72.651, 102 74.417 M 80 118.941 C 80 121.356, 80.556 121.599, 81.349 119.532 C 81.659 118.725, 81.482 117.798, 80.956 117.473 C 80.430 117.148, 80 117.809, 80 118.941" stroke="none" fill="black" fill-rule="evenodd"/>
</svg>