<svg xmlns="http://www.w3.org/2000/svg" width="192" height="144" viewBox="0 0 192 144" version="1.1">
	<path d="M 93.857 5.250 C 97.474 15.632, 98.008 17.740, 99.129 26.059 C 101.002 39.947, 99.739 55.377, 95.558 69.695 C 88.447 94.045, 88.777 114.563, 96.635 136.750 L 99.203 144 145.601 144 L 192 144 192 72 L 192 0 142.014 -0 L 92.028 -0 93.857 5.250 M 30.500 56.162 C 19.203 62.383, 16.911 74.963, 25.508 83.561 C 31.002 89.054, 36.514 90.193, 43.229 87.223 C 53.824 82.536, 56.749 69.797, 49.270 60.909 C 44.806 55.604, 35.697 53.300, 30.500 56.162 M 150.020 57.695 C 139.794 62.998, 139.364 76.983, 149.241 83.005 C 160.648 89.960, 174.490 77.763, 169.459 65.190 C 166.350 57.418, 157.291 53.925, 150.020 57.695" stroke="none" fill="black" fill-rule="evenodd"/>
</svg>