<svg xmlns="http://www.w3.org/2000/svg" width="192" height="144" viewBox="0 0 192 144" version="1.1">
	<path d="M 63.755 4.805 C 65.054 18.318, 58.343 35.765, 48.255 45.103 C 45.048 48.071, 40.191 51.625, 37.462 53 C 34.733 54.375, 32.275 55.783, 32 56.129 C 31.725 56.475, 27.533 57.541, 22.683 58.500 C 14.372 60.142, 7.692 60.128, 2.250 58.457 L 0 57.767 0 100.883 L 0 144 54.250 143.993 L 108.500 143.986 110.148 137.243 C 111.054 133.534, 113.401 127.098, 115.363 122.940 C 117.325 118.781, 120.543 109.781, 122.514 102.940 C 125.905 91.165, 126.033 90.191, 124.905 84.721 C 123.845 79.576, 122 75.974, 122 79.048 C 122 79.689, 121.405 79.986, 120.678 79.707 C 119.951 79.428, 118.822 80.055, 118.170 81.100 C 116.810 83.278, 114.011 83.576, 112.075 81.750 C 110.988 80.725, 110.837 80.995, 111.236 83.250 C 111.613 85.382, 111.332 86, 109.984 86 C 107.348 86, 105.685 83.390, 106.431 80.421 C 106.885 78.610, 108.300 77.310, 111.069 76.158 C 113.742 75.045, 115.264 73.684, 115.693 72.022 C 116.379 69.360, 127.080 58, 128.902 58 C 130.885 58, 130.064 56.455, 125.438 51.488 C 121.529 47.290, 120.914 46.066, 121.141 42.929 C 121.304 40.676, 120.700 38.190, 119.570 36.467 C 117.795 33.758, 117.795 33.623, 119.559 32.333 C 120.562 31.600, 122.858 31, 124.663 31 C 129.837 31, 143.033 34.197, 142.850 35.406 C 142.759 36.008, 142.938 37.175, 143.248 38 C 144.646 41.718, 146.458 55.089, 146.356 60.925 C 146.262 66.279, 146.614 67.750, 148.473 69.754 C 150.288 71.712, 150.578 72.841, 150.030 75.834 C 149.661 77.855, 149.683 80.722, 150.080 82.205 C 150.583 84.088, 150.195 86.031, 148.793 88.648 C 147.312 91.411, 146.937 93.459, 147.367 96.447 C 148.471 104.130, 152.768 121.529, 156.272 132.500 L 159.785 143.500 176.142 143.500 L 192.500 143.500 192.825 129 C 193.003 121.025, 192.837 88.737, 192.455 57.250 L 191.761 0 127.527 -0 L 63.294 -0 63.755 4.805 M 0.459 101 C 0.459 124.925, 0.589 134.713, 0.749 122.750 C 0.908 110.788, 0.908 91.213, 0.749 79.250 C 0.589 67.288, 0.459 77.075, 0.459 101" stroke="none" fill="black" fill-rule="evenodd"/>
</svg>