<svg xmlns="http://www.w3.org/2000/svg" width="192" height="144" viewBox="0 0 192 144" version="1.1">
	<path d="M 66 1.345 C 66 3.476, 63.009 6.218, 61.371 5.589 C 60.617 5.300, 60 5.641, 60 6.347 C 60 8.338, 52.638 12, 48.637 12 C 45.885 12, 44.653 12.600, 43.364 14.566 C 41.771 16.999, 41.789 17.318, 43.714 20.687 C 45.592 23.973, 45.634 24.521, 44.275 27.983 C 42.880 31.532, 42.938 31.976, 45.402 36.604 C 46.831 39.288, 48 42.039, 48 42.716 C 48 44.213, 45.148 45.723, 30.112 52.186 C 17.531 57.594, 15 58.390, 15 56.943 C 15 56.424, 14.321 56, 13.491 56 C 12.052 56, 7.862 52.764, 3.826 48.535 C 1.982 46.603, 2.008 46.539, 5.296 44.852 C 9.813 42.535, 11.319 40.509, 11.216 36.889 C 11.055 31.245, 6.252 26.598, 1.787 27.766 C 0.143 28.196, 0 29.901, 0 49.085 C 0 67.050, 0.204 69.859, 1.475 69.371 C 3.587 68.561, 8.946 72.166, 14.574 78.183 C 18.778 82.677, 19.896 83.348, 22.844 83.150 C 27.112 82.862, 31.584 80.645, 35.628 76.810 C 39.256 73.370, 45.692 71.500, 47.821 73.267 C 49.914 75.003, 54 84.850, 54 88.156 C 54 89.761, 54.644 91.310, 55.437 91.614 C 57.142 92.269, 56.560 94.337, 53.498 98.500 C 52.285 100.150, 49.425 105.246, 47.143 109.824 C 43.111 117.914, 38.029 126.042, 35.209 128.910 C 33.014 131.142, 29.437 137.203, 28.219 140.750 L 27.104 144 57.672 144 L 88.240 144 87.712 138.250 C 85.907 118.615, 83.814 103.993, 82.331 100.668 C 80.965 97.604, 80.860 96.453, 81.811 94.931 C 83.457 92.295, 83.269 84.812, 81.347 76.500 C 80.456 72.650, 79.816 66.566, 79.923 62.980 C 80.095 57.219, 79.833 56.191, 77.670 54.160 C 75.419 52.045, 75.333 51.641, 76.593 49.114 C 77.347 47.603, 78.309 43.921, 78.732 40.933 L 79.500 35.500 86 32.316 C 89.575 30.565, 93.711 29.103, 95.191 29.066 C 99.620 28.957, 99.729 26.472, 95.405 24.197 C 93.807 23.357, 92.838 23.425, 91.325 24.485 C 87.782 26.967, 78.053 30.895, 77.533 30.054 C 77.255 29.604, 77.918 28.103, 79.007 26.719 C 80.748 24.504, 80.826 23.894, 79.656 21.638 C 78.684 19.764, 78.028 19.372, 77.219 20.181 C 76.410 20.990, 76.263 20.712, 76.673 19.144 C 77.062 17.656, 76.775 17, 75.733 17 C 73.281 17, 66.732 9.102, 67.578 7.165 C 68.767 4.442, 68.591 0.726, 67.250 0.264 C 66.563 0.027, 66 0.514, 66 1.345 M 85.796 29.433 C 77.737 33.766, 77.393 34.628, 85.006 31.409 C 92.089 28.414, 93.616 27.453, 92.337 26.796 C 91.877 26.560, 88.933 27.746, 85.796 29.433 M 45.750 50.080 C 43.621 51.320, 43.457 53, 45.465 53 C 46.270 53, 47.411 52.100, 48 51 C 49.173 48.808, 48.446 48.510, 45.750 50.080 M 32 56.102 C 27.325 58.273, 22.825 60.425, 22 60.884 C 20.352 61.800, 20.011 63.940, 21.265 65.500 C 21.707 66.050, 22.675 67.378, 23.417 68.451 C 24.730 70.348, 24.863 70.320, 28.311 67.451 C 30.261 65.828, 31.888 63.728, 31.928 62.785 C 31.968 61.842, 32.830 60.626, 33.845 60.083 C 35.345 59.280, 41.833 51.813, 40.801 52.077 C 40.635 52.119, 36.675 53.930, 32 56.102 M 0.068 113.235 L -0 133.971 5.032 131.987 C 12.003 129.240, 14.615 127.360, 17.142 123.270 L 19.320 119.746 13.161 114.123 C 8.847 110.185, 6.298 106.852, 4.654 103 C 3.363 99.975, 1.818 96.375, 1.221 95 C 0.392 93.092, 0.119 97.406, 0.068 113.235" stroke="none" fill="black" fill-rule="evenodd"/>
</svg>