<svg xmlns="http://www.w3.org/2000/svg" width="192" height="144" viewBox="0 0 192 144" version="1.1">
	<path d="M 60.673 26.661 C 60.309 27.024, 58.322 27.380, 56.256 27.452 C 53.329 27.553, 52.446 28.014, 52.257 29.541 C 52.124 30.618, 51.744 32.907, 51.412 34.626 C 50.931 37.124, 51.253 38.064, 53.013 39.297 C 54.263 40.172, 54.908 41.340, 54.504 41.994 C 54.111 42.629, 54.812 44.235, 56.060 45.564 C 58.189 47.830, 58.226 48.092, 56.662 49.821 C 55.746 50.834, 55.282 51.948, 55.631 52.298 C 55.980 52.647, 54.899 54.490, 53.229 56.392 C 49.372 60.785, 48.220 65.480, 50.406 67.896 C 52.356 70.051, 52.485 75.851, 50.642 78.527 C 49.495 80.193, 47.874 85.847, 47.496 89.500 C 47.439 90.050, 46.869 93.425, 46.229 97 C 43.529 112.092, 40.041 137.741, 40.008 142.750 C 40.002 143.709, 44.688 144, 60.131 144 L 80.262 144 79.631 140.250 C 79.284 138.188, 78.306 131.100, 77.458 124.500 C 76.094 113.882, 74.845 108.037, 70.593 92.390 C 69.979 90.129, 68.836 87.507, 68.052 86.563 C 66.812 85.069, 66.849 84.435, 68.331 81.673 C 69.595 79.317, 69.945 76.698, 69.690 71.500 C 69.501 67.650, 69.660 63.600, 70.043 62.500 C 70.426 61.400, 70.179 58.306, 69.493 55.624 C 68.346 51.141, 68.394 50.710, 70.090 50.266 C 71.104 50.001, 72.204 48.933, 72.534 47.892 C 72.865 46.851, 73.524 46, 74 46 C 75.788 46, 76.054 41.926, 74.555 37.510 C 71.981 29.930, 63.799 23.535, 60.673 26.661 M 125.250 54.949 C 121.091 56.860, 119.543 59.981, 122 61.500 C 124.465 63.023, 122.897 66.687, 118.436 69.832 C 114.656 72.496, 113.926 73.518, 114.186 75.775 C 114.482 78.343, 114.827 78.517, 120.166 78.797 C 124.842 79.043, 126.104 79.509, 127.386 81.466 C 128.884 83.752, 128.813 83.913, 125.413 85.919 C 123.473 87.064, 121.339 88, 120.671 88 C 120.002 88, 117.778 89.383, 115.728 91.073 C 111.510 94.549, 110.766 98.573, 113.829 101.345 C 115.960 103.274, 121.067 103.533, 122.800 101.800 C 124.251 100.349, 124.401 96, 123 96 C 122.450 96, 122 95.422, 122 94.716 C 122 93.029, 127.959 89.530, 128.940 90.640 C 130.903 92.862, 133.100 100.652, 132.567 103.496 C 131.873 107.193, 123.510 127.681, 121.905 129.615 C 120.092 131.799, 121.589 133.796, 126.035 135.129 C 130.055 136.333, 130.164 136.480, 129.811 140.184 C 129.448 143.996, 129.451 144, 133.224 144 C 136.736 144, 137 143.794, 137 141.059 C 137 139.441, 137.450 137.840, 138 137.500 C 138.595 137.132, 139 138.323, 139 140.441 C 139 143.729, 139.229 144, 142 144 C 144.638 144, 145 143.653, 145 141.122 C 145 137.860, 146.245 136.576, 150.365 135.590 C 152.851 134.995, 153.155 134.545, 152.662 132.202 C 152.350 130.716, 151.178 125.174, 150.058 119.886 C 148.939 114.598, 147.813 108.639, 147.558 106.643 C 147.302 104.648, 146.793 101.413, 146.426 99.456 L 145.758 95.896 149.629 98.523 C 155.989 102.839, 163.120 100.077, 160.873 94.167 C 159.558 90.707, 158.328 90.034, 153.292 90.015 C 149.775 90.003, 148.407 89.356, 144.964 86.080 C 141.303 82.598, 140.974 81.918, 142.012 79.978 C 142.654 78.778, 142.961 76.957, 142.693 75.933 C 142.372 74.705, 142.854 73.864, 144.108 73.466 C 146.490 72.710, 152 68.133, 152 66.911 C 152 64.296, 147.820 62, 143.059 62 C 137.785 62, 137.035 61.420, 136.055 56.587 C 135.542 54.057, 134.895 53.455, 132.465 53.248 C 130.834 53.109, 127.588 53.874, 125.250 54.949" stroke="none" fill="black" fill-rule="evenodd"/>
</svg>