<svg xmlns="http://www.w3.org/2000/svg" width="192" height="144" viewBox="0 0 192 144" version="1.1">
	<path d="M 110.069 17.236 C 108.182 21.026, 105.370 25.194, 103.819 26.499 C 100.421 29.358, 100.356 29.826, 103.213 30.883 L 105.426 31.702 102.963 33.024 C 101.608 33.752, 99.150 34.625, 97.500 34.965 C 95.153 35.448, 94.500 36.114, 94.500 38.027 C 94.500 39.654, 95.151 40.598, 96.445 40.847 C 97.515 41.053, 100.817 43.708, 103.784 46.747 C 107.800 50.861, 108.838 52.482, 107.847 53.094 C 106.788 53.749, 106.770 54.170, 107.758 55.158 C 109.255 56.655, 109.382 61.418, 107.994 64.012 C 107.051 65.773, 105.609 65.880, 85.244 65.703 L 63.500 65.515 58.500 68.166 C 53.669 70.729, 41 82.188, 41 83.995 C 41 86.212, 43.301 85.742, 49.166 82.324 C 52.650 80.295, 56.210 78.042, 57.079 77.317 C 57.947 76.593, 59.001 76, 59.420 76 C 59.839 76, 60.029 80.726, 59.841 86.501 C 59.653 92.277, 59.735 97.002, 60.023 97.001 C 60.310 97.001, 62.785 95.529, 65.523 93.732 C 76.558 86.487, 79.842 84.985, 85.694 84.507 C 88.887 84.246, 94.366 83.812, 97.870 83.542 L 104.240 83.052 103.630 86.098 C 103.295 87.774, 101.850 91.925, 100.419 95.322 C 96.611 104.365, 96.431 105.685, 98.902 106.469 C 100.874 107.095, 101.887 108.999, 100.250 109.001 C 99.838 109.002, 98.150 110.172, 96.500 111.602 C 94.850 113.032, 92.618 114.828, 91.541 115.592 C 90.154 116.575, 89.893 117.293, 90.647 118.047 C 91.401 118.801, 92.624 118.346, 94.830 116.490 C 97.885 113.919, 97.995 113.903, 100.348 115.678 C 102.951 117.641, 103.033 119.178, 101.473 136.750 L 100.829 144 121.434 144 L 142.038 144 141.436 141.250 C 141.105 139.738, 140.421 137.194, 139.916 135.598 C 139.218 133.390, 139.625 130.523, 141.623 123.598 C 143.066 118.594, 144.867 113.082, 145.624 111.349 C 147.291 107.531, 147.357 105.031, 145.886 101.315 C 144.252 97.186, 144.670 92.270, 146.973 88.544 C 149.541 84.389, 149.520 84.148, 146.500 83 C 143.513 81.864, 143.483 81.086, 145.826 65 C 147.475 53.671, 147.541 53.495, 150.250 53.184 C 153.416 52.819, 153.894 50.549, 151.118 49.063 C 148.316 47.563, 147.779 45.139, 149.105 39.966 C 150.614 34.080, 149.958 31.558, 145.395 25.701 C 140.092 18.895, 131.029 14.588, 122.008 14.588 C 116.252 14.588, 115.357 14.352, 115.728 12.932 C 115.966 12.021, 115.562 11.067, 114.831 10.811 C 113.978 10.513, 112.267 12.823, 110.069 17.236" stroke="none" fill="black" fill-rule="evenodd"/>
</svg>