<svg xmlns="http://www.w3.org/2000/svg" width="192" height="144" viewBox="0 0 192 144" version="1.1">
	<path d="M 69.423 3.194 C 70.812 5.176, 70.802 5.561, 69.325 7.194 C 68.426 8.187, 67.122 9, 66.428 9 C 65.734 9, 65.017 9.364, 64.833 9.808 C 64.650 10.253, 62.334 12.094, 59.686 13.900 C 56.322 16.195, 54.180 17.011, 52.576 16.608 C 51.053 16.226, 49.715 16.658, 48.600 17.890 C 47.020 19.635, 47.044 19.959, 48.987 23.254 C 50.854 26.418, 50.936 27.211, 49.826 31.361 C 48.688 35.617, 48.766 36.192, 50.867 39.034 C 52.116 40.723, 53.219 43.306, 53.319 44.773 C 53.489 47.283, 52.848 47.693, 42.500 51.691 C 35.626 54.346, 30.562 55.750, 29 55.431 C 27.625 55.151, 24.925 54.707, 23 54.444 C 20.392 54.087, 18.100 52.525, 14.004 48.314 C 10.981 45.207, 8.956 42.554, 9.504 42.419 C 10.052 42.285, 11.749 41.899, 13.275 41.562 C 20.106 40.054, 22.397 32.126, 17.354 27.452 C 13.842 24.198, 9.085 24.216, 5.182 27.500 C 3.548 28.875, 1.714 30, 1.106 30 C 0.311 30, 0 46.036, 0 87 L 0 144 2.937 144 C 5.775 144, 5.853 143.873, 5.253 140.250 C 4.037 132.919, 4 132.978, 11.634 130.027 C 19.280 127.071, 23.918 124.193, 23.969 122.372 C 23.986 121.752, 24.675 120.685, 25.500 120 C 27.880 118.025, 27.260 115.417, 23.802 112.863 C 19.536 109.712, 14 104.090, 14 102.909 C 14 102.387, 12.963 100.282, 11.695 98.230 C 10.427 96.179, 8.865 92.693, 8.225 90.486 C 7.585 88.278, 5.940 84.952, 4.570 83.095 C 2.693 80.550, 2.316 79.278, 3.040 77.926 C 4.273 75.621, 4.228 69.700, 2.933 64.085 C 1.819 59.252, 2.729 57.762, 6.500 58.244 C 8.446 58.493, 8.523 58.910, 7.655 64.500 C 7.570 65.050, 8.254 65.376, 9.175 65.223 C 10.096 65.071, 11.116 65.379, 11.443 65.908 C 11.769 66.436, 13.531 66.626, 15.357 66.329 C 18.660 65.793, 18.694 65.829, 22.014 73.384 C 23.850 77.560, 26.060 81.172, 26.926 81.411 C 27.792 81.650, 30.428 81.819, 32.784 81.786 C 36.353 81.737, 37.476 81.208, 39.512 78.614 L 41.956 75.500 46.228 77.753 C 48.577 78.992, 51.712 80.004, 53.193 80.003 C 56.512 79.999, 59 83.261, 59 87.616 C 59 89.495, 59.604 91.018, 60.483 91.355 C 62.198 92.013, 61.583 94.489, 58.958 97.500 C 57.999 98.600, 55.550 102.833, 53.515 106.908 C 51.481 110.982, 47.650 117.772, 45.003 121.996 C 40 129.979, 37 137.303, 37 141.535 L 37 144 64.531 144 C 96.186 144, 94.131 144.740, 92.085 134.077 C 91.390 130.460, 90.240 122.325, 89.528 116 C 88.817 109.675, 87.512 102.547, 86.630 100.160 C 85.392 96.812, 85.281 95.344, 86.144 93.730 C 87.563 91.079, 86.620 79.009, 84.531 73.087 C 83.689 70.701, 82.990 66.668, 82.978 64.124 C 82.963 61.131, 82.280 58.621, 81.041 57.009 C 79.483 54.980, 79.359 54.237, 80.374 53.009 C 81.059 52.179, 82.387 48.964, 83.325 45.865 C 84.655 41.468, 85.630 39.984, 87.765 39.108 C 92.523 37.154, 97 36.110, 97 36.953 C 97 37.401, 97.891 38, 98.981 38.285 C 100.687 38.731, 100.914 38.373, 100.622 35.704 C 100.084 30.788, 97.203 30.187, 89.896 33.466 C 84.911 35.703, 83.593 35.966, 82.893 34.861 C 81.582 32.792, 81.832 30.385, 83.500 29 C 84.325 28.315, 84.992 27.248, 84.983 26.628 C 84.974 26.007, 81.851 22.387, 78.044 18.582 C 71.574 12.115, 71.216 11.529, 72.561 9.609 C 74.496 6.847, 74.373 4.647, 72.171 2.655 C 69.399 0.146, 67.543 0.510, 69.423 3.194 M 89 35.291 C 83.477 37.949, 83.561 37.894, 84.137 38.471 C 85.064 39.398, 95 35.591, 95 34.309 C 95 32.601, 94.373 32.704, 89 35.291 M 52 50 C 50.718 50.828, 50.754 50.972, 52.250 50.985 C 53.212 50.993, 54 50.550, 54 50 C 54 48.780, 53.887 48.780, 52 50 M 46.500 52 C 45.181 52.567, 45.011 52.878, 46 52.914 C 46.825 52.945, 48.175 52.533, 49 52 C 50.828 50.819, 49.249 50.819, 46.500 52 M 39.002 57.248 C 33.348 59.354, 30.491 61.843, 31.981 63.363 C 33.062 64.467, 41.280 60.395, 44.160 57.330 C 46.757 54.565, 46.226 54.557, 39.002 57.248" stroke="none" fill="black" fill-rule="evenodd"/>
</svg>