<svg xmlns="http://www.w3.org/2000/svg" width="192" height="144" viewBox="0 0 192 144" version="1.1">
	<path d="M 0 72 L 0 144 37.979 144 L 75.957 144 74.899 141.677 C 74.072 139.864, 74.427 137.201, 76.519 129.523 C 77.992 124.116, 79.804 117.972, 80.545 115.872 C 81.335 113.634, 81.511 111.816, 80.970 111.481 C 79.406 110.515, 80.195 101.913, 82.653 93.148 C 85.519 82.925, 87.171 73.339, 87.359 65.849 C 87.483 60.891, 87.298 60.305, 85.855 61.078 C 84.747 61.671, 83.813 61.479, 82.993 60.492 C 81.074 58.179, 82.563 56.165, 86.697 55.483 C 88.789 55.138, 91.524 54.356, 92.775 53.745 C 94.917 52.700, 98.011 53.108, 107.250 55.653 C 109.633 56.309, 109.453 59.167, 106.892 61.361 C 105.221 62.791, 104.923 63.823, 105.458 66.333 C 105.830 68.075, 106.380 72.650, 106.681 76.500 C 106.983 80.350, 108.455 87.775, 109.953 93 C 112.691 102.547, 113.002 105.927, 111.662 111.534 C 111.213 113.408, 111.478 116.103, 112.353 118.585 C 115.851 128.497, 118.123 139.902, 117.014 141.974 L 115.917 144.024 154.208 143.762 L 192.500 143.500 192.757 71.750 L 193.013 0 96.507 0 L 0 0 0 72 M 0.474 72.500 C 0.474 112.100, 0.598 128.154, 0.750 108.176 C 0.901 88.198, 0.901 55.798, 0.750 36.176 C 0.598 16.554, 0.474 32.900, 0.474 72.500" stroke="none" fill="black" fill-rule="evenodd"/>
</svg>