<svg xmlns="http://www.w3.org/2000/svg" width="192" height="144" viewBox="0 0 192 144" version="1.1">
	<path d="M -0 72.005 L -0 144.010 96.250 143.755 L 192.500 143.500 192.757 71.750 L 193.013 0 96.507 0 L 0 0 -0 72.005 M 0.474 72.500 C 0.474 112.100, 0.598 128.154, 0.750 108.176 C 0.901 88.198, 0.901 55.798, 0.750 36.176 C 0.598 16.554, 0.474 32.900, 0.474 72.500 M 93.384 110.442 C 92.407 112.987, 93.460 115.491, 95.638 115.804 C 97.208 116.029, 97.925 115.434, 98.409 113.508 C 98.768 112.078, 98.796 110.479, 98.472 109.954 C 97.563 108.484, 94.004 108.825, 93.384 110.442" stroke="none" fill="black" fill-rule="evenodd"/>
</svg>