<svg xmlns="http://www.w3.org/2000/svg" width="192" height="144" viewBox="0 0 192 144" version="1.1">
	<path d="M 155.500 1.159 C 152.485 2.814, 145 10.252, 145 11.593 C 145 14.440, 139.616 16.364, 131.793 16.314 C 125.900 16.276, 123.725 16.648, 122.613 17.882 C 120.645 20.067, 119.452 25, 120.892 25 C 121.501 25, 122 26.264, 122 27.809 C 122 31.612, 123.897 33.813, 127.500 34.188 C 129.150 34.360, 130.505 34.950, 130.512 35.500 C 130.537 37.719, 133.322 43, 134.466 43 C 135.139 43, 136.473 43.865, 137.429 44.922 C 139.095 46.762, 139.058 46.916, 136.552 48.558 C 134.052 50.196, 134.013 50.356, 135.666 52.184 C 136.618 53.236, 137.482 54.637, 137.585 55.298 C 137.883 57.198, 141.207 68.458, 141.598 68.893 C 141.793 69.108, 142.618 68.732, 143.432 68.056 C 145.237 66.558, 147.124 67.513, 146.349 69.532 C 145.707 71.207, 147.543 71.549, 148.537 69.940 C 148.957 69.261, 149.626 69.473, 150.399 70.530 C 151.500 72.036, 151.721 72.041, 152.925 70.590 C 153.651 69.716, 154.593 69, 155.017 69 C 156.061 69, 156.773 77.022, 155.784 77.634 C 155.353 77.900, 155 79.049, 155 80.187 C 155 82.053, 154.594 82.191, 150.844 81.591 C 144.679 80.605, 136.027 82.797, 134.956 85.617 C 134.309 87.316, 133.160 87.951, 130.299 88.187 C 127.318 88.433, 126.500 88.916, 126.500 90.434 C 126.500 91.981, 125.100 92.746, 119.500 94.262 C 115.650 95.304, 111.793 96.234, 110.929 96.328 C 110.065 96.423, 103.486 90.875, 96.310 84 C 82.767 71.027, 76.899 67.141, 64.563 62.981 C 53.084 59.110, 39.790 59.404, 41.359 63.494 C 41.898 64.898, 40.034 66, 37.118 66 C 32.118 66, 32.721 70.735, 38.542 77.178 C 40.541 79.391, 42 82.059, 42 83.503 C 42 85.700, 42.430 86, 45.571 86 C 47.536 86, 49.818 86.675, 50.643 87.500 C 52.415 89.273, 64.021 89.594, 67.082 87.956 C 68.786 87.044, 70.506 88.438, 80.679 98.973 C 89.758 108.376, 93.714 111.718, 98.624 114.136 L 104.922 117.236 116.547 116.038 C 122.941 115.378, 128.402 115.068, 128.682 115.348 C 128.962 115.629, 129.131 122.190, 129.058 129.929 L 128.925 144 148.944 144 L 168.962 144 169.545 141.250 C 169.866 139.737, 170.842 135.688, 171.713 132.250 L 173.297 126 179.572 126 C 184.863 126, 186.329 126.406, 188.923 128.589 L 192 131.178 192 118.398 C 192 107.456, 191.807 105.882, 190.657 107.455 C 189.367 109.219, 189.189 109.199, 186.157 106.958 C 183.421 104.935, 182.999 104.016, 182.989 100.062 C 182.983 97.553, 182.355 93.446, 181.593 90.935 C 180.243 86.487, 180.465 81, 181.995 81 C 182.413 81, 183.405 81.977, 184.197 83.171 C 185.831 85.631, 188 84.929, 188 81.941 C 188 80.202, 189.054 79.535, 191.250 79.882 C 191.662 79.947, 192 62, 192 40 L 192 0 174.750 0.030 C 164.162 0.049, 156.728 0.485, 155.500 1.159" stroke="none" fill="black" fill-rule="evenodd"/>
</svg>