<svg xmlns="http://www.w3.org/2000/svg" width="192" height="144" viewBox="0 0 192 144" version="1.1">
	<path d="M 0 72 L 0 144 54.500 144 L 109 144 109 141.700 C 109 140.435, 108.438 138.839, 107.750 138.154 C 106.900 137.307, 106.340 131.785, 106 120.917 C 105.617 108.683, 105.170 104.723, 104.096 104.059 C 103.324 103.582, 100.399 102.900, 97.596 102.542 C 90.630 101.655, 84.923 96.544, 84.271 90.609 C 83.879 87.040, 84.216 86.124, 86.835 83.635 C 88.496 82.056, 89.609 80.144, 89.313 79.374 C 88.961 78.457, 89.276 78.169, 90.228 78.534 C 91.027 78.840, 92.257 78.396, 92.962 77.546 C 93.668 76.695, 94.913 76, 95.729 76 C 96.696 76, 96.994 75.426, 96.583 74.355 C 96.234 73.447, 96.662 71.926, 97.539 70.957 C 99.001 69.342, 98.949 69.077, 96.882 67.630 C 95.447 66.625, 94.232 66.393, 93.516 66.987 C 91.966 68.273, 87.769 67.038, 86.193 64.830 C 85.475 63.824, 84.010 63, 82.940 63 C 81.869 63, 79.314 62.100, 77.261 61 C 75.209 59.900, 72.976 59, 72.300 59 C 69.999 59, 61.510 55.770, 58.846 53.882 C 57.386 52.847, 55.534 52, 54.730 52 C 53.927 52, 52.197 51.167, 50.885 50.149 C 49.573 49.131, 47.825 48.530, 47 48.812 C 45.703 49.256, 45.690 49.096, 46.898 47.631 C 48.112 46.161, 48.059 45.764, 46.497 44.621 C 45.298 43.745, 45.067 43.077, 45.805 42.621 C 46.414 42.244, 46.720 41.388, 46.484 40.718 C 46.249 40.048, 46.738 38.600, 47.572 37.500 C 48.863 35.796, 50.138 35.526, 56.184 35.675 L 63.281 35.849 60.205 33.978 C 58.512 32.949, 56.641 31.198, 56.047 30.088 C 53.169 24.711, 69.159 21.568, 79.250 25.527 C 81.555 26.432, 81.464 28.595, 78.986 31.745 C 77.878 33.153, 77.146 34.479, 77.359 34.692 C 77.572 34.905, 80.390 34.404, 83.623 33.579 C 86.855 32.754, 90.669 31.844, 92.098 31.558 C 93.928 31.192, 95.919 29.149, 98.824 24.656 C 106.619 12.603, 114.610 8.734, 132 8.593 C 145.442 8.484, 148.262 9.449, 160.145 18.228 C 164.190 21.216, 170.425 24.883, 174 26.378 C 177.575 27.873, 182.300 29.928, 184.500 30.945 L 188.500 32.794 185.500 34.038 C 183.850 34.723, 179.900 35.500, 176.722 35.764 C 171.892 36.166, 169.515 35.705, 162.230 32.956 C 154.462 30.024, 148.676 28.885, 147.640 30.083 C 147.441 30.313, 147.554 33.852, 147.890 37.949 L 148.500 45.398 168.500 50.484 C 179.500 53.281, 189.287 55.878, 190.250 56.254 C 191.839 56.874, 192 58.856, 192 77.769 C 192 92.637, 191.657 98.943, 190.800 99.800 C 189.867 100.733, 189.867 101, 190.800 101 C 191.587 101, 192 102.878, 192 106.449 L 192 111.898 188.532 110.449 C 186.625 109.652, 184.064 109, 182.841 109 C 180.671 109, 180.665 109.035, 182.559 110.468 C 183.626 111.276, 185.209 111.951, 186.076 111.968 C 187.981 112.007, 192.933 117, 191.066 117 C 190.150 117, 189.999 117.786, 190.540 119.750 C 190.956 121.263, 191.608 127.225, 191.989 133 C 192.369 138.775, 192.753 111.213, 192.840 71.750 L 193 0 96.500 0 L 0 0 0 72 M 0.474 72.500 C 0.474 112.100, 0.598 128.154, 0.750 108.176 C 0.901 88.198, 0.901 55.798, 0.750 36.176 C 0.598 16.554, 0.474 32.900, 0.474 72.500 M 112.154 82.884 C 110.353 84.243, 110.009 85.188, 110.544 87.318 C 110.949 88.933, 110.740 90.608, 110.027 91.468 C 109.068 92.623, 109.345 93.586, 111.415 96.299 C 112.837 98.164, 114 100.235, 114 100.903 C 114 101.571, 114.495 101.812, 115.101 101.438 C 115.746 101.039, 115.950 99.500, 115.593 97.716 C 115.165 95.577, 115.499 94.106, 116.717 92.761 C 118.346 90.960, 118.349 90.673, 116.762 87.908 C 115.834 86.291, 115.314 84.346, 115.606 83.585 C 116.454 81.375, 114.642 81.007, 112.154 82.884 M 160 105.550 C 160 105.917, 160.979 107.235, 162.176 108.479 C 163.373 109.722, 164.458 111.586, 164.587 112.620 C 165.037 116.222, 172.489 132, 173.740 132 C 174.596 132, 175 130.286, 175 126.649 C 175 120.482, 176.506 115.404, 178.570 114.612 C 181.076 113.650, 180.136 112.391, 174.750 109.495 C 169.726 106.794, 169.586 106.773, 171.500 109.008 C 172.600 110.293, 173.050 111.095, 172.500 110.791 C 171.950 110.486, 169.250 109.231, 166.500 108 C 163.750 106.769, 161.162 105.565, 160.750 105.322 C 160.338 105.080, 160 105.183, 160 105.550 M 123.656 135 C 123.393 135.825, 122.964 137.400, 122.702 138.500 C 122.441 139.600, 121.903 141.287, 121.506 142.250 C 120.870 143.795, 121.447 144, 126.428 144 C 132.779 144, 132.802 143.759, 127.092 137 C 124.903 134.409, 124.011 133.890, 123.656 135" stroke="none" fill="black" fill-rule="evenodd"/>
</svg>