<svg xmlns="http://www.w3.org/2000/svg" width="192" height="144" viewBox="0 0 192 144" version="1.1">
	<path d="M 0 37.613 L 0 75.226 7.250 74.626 C 11.238 74.297, 22.600 73.749, 32.500 73.410 C 47.140 72.908, 51.772 73.092, 57.312 74.396 C 65.908 76.420, 72.196 76.428, 78.946 74.424 C 81.865 73.556, 85.365 73.126, 86.723 73.467 C 89.521 74.169, 92.135 72.517, 91.372 70.528 C 91.093 69.799, 91.339 68.908, 91.920 68.549 C 92.579 68.142, 92.736 68.523, 92.338 69.560 C 91.790 70.990, 92.180 71.122, 95.100 70.497 C 96.970 70.097, 98.950 69.465, 99.500 69.093 C 103.954 66.082, 107.894 65.943, 139.656 67.675 C 157.170 68.629, 174.425 69.431, 178 69.455 C 184.357 69.499, 184.507 69.439, 184.816 66.756 C 185.054 64.684, 184.773 64.150, 183.667 64.574 C 182.861 64.883, 181.901 64.648, 181.532 64.052 C 181.163 63.455, 180.466 63.212, 179.981 63.511 C 179.497 63.811, 178.806 62.482, 178.445 60.559 C 177.670 56.425, 175.648 53.887, 171.383 51.691 C 162.289 47.009, 167.828 30.723, 180.500 24.886 C 182.700 23.873, 186.180 23.034, 188.233 23.022 L 191.966 23 192.251 48.750 C 192.493 70.643, 192.570 68.920, 192.768 37.250 L 193 0 96.500 0 L 0 0 0 37.613 M 0.453 38 C 0.453 58.625, 0.586 67.063, 0.749 56.750 C 0.911 46.438, 0.911 29.563, 0.749 19.250 C 0.586 8.938, 0.453 17.375, 0.453 38 M 77.459 57.067 C 77.096 57.653, 77.040 58.373, 77.333 58.667 C 78.050 59.383, 80 58.121, 80 56.941 C 80 55.663, 78.274 55.748, 77.459 57.067 M 111.880 79.721 L 108.259 80.105 111.255 83.101 C 114.232 86.078, 114.520 88.203, 112.857 94.948 C 112.353 96.992, 107.417 101.095, 105.285 101.242 C 101.956 101.472, 98 99.969, 98 98.473 C 98 97.342, 99.121 97.026, 102.657 97.160 C 106.619 97.310, 107.669 96.924, 109.693 94.570 C 112.060 91.819, 112.097 89.180, 109.809 86.314 C 108.271 84.389, 102.995 83.665, 100.446 85.029 C 98.543 86.047, 97.400 85.977, 94.044 84.634 C 89.369 82.764, 87.612 82.563, 88.500 84 C 88.840 84.550, 88.416 85, 87.559 85 C 86.702 85, 86 85.450, 86 86 C 86 86.550, 86.546 87, 87.214 87 C 88.027 87, 87.921 87.508, 86.893 88.536 C 85.511 89.917, 84.532 89.800, 77.171 87.375 C 69.090 84.713, 68.860 84.695, 59.042 85.994 C 47.118 87.573, 31.535 86.869, 15 84.005 C 8.675 82.910, 2.712 82.010, 1.750 82.007 C 0.121 82, 0 84.140, 0 113 L 0 144 91.284 144 L 182.569 144 184.194 141.250 C 185.088 139.738, 187.188 136.779, 188.860 134.675 L 191.901 130.850 192.258 137.175 C 192.454 140.654, 192.599 129.325, 192.580 112 C 192.560 94.675, 192.413 89.436, 192.251 100.357 L 191.957 120.215 188.229 119.518 C 186.178 119.135, 184.336 118.660, 184.136 118.463 C 183.936 118.266, 184.723 116.896, 185.886 115.418 C 189.227 111.170, 188.683 105.713, 184 96.500 C 181.800 92.172, 180 88.094, 180 87.438 C 180 85.127, 177.330 84.095, 167.463 82.590 C 146.770 79.435, 125.102 78.316, 111.880 79.721 M 0.445 113 C 0.445 130.325, 0.582 137.412, 0.748 128.750 C 0.915 120.087, 0.915 105.912, 0.748 97.250 C 0.582 88.587, 0.445 95.675, 0.445 113 M 129.638 108.500 C 129.955 109.325, 130.391 110, 130.607 110 C 130.823 110, 131 109.325, 131 108.500 C 131 107.675, 130.564 107, 130.031 107 C 129.499 107, 129.322 107.675, 129.638 108.500" stroke="none" fill="black" fill-rule="evenodd"/>
</svg>