<svg xmlns="http://www.w3.org/2000/svg" width="192" height="144" viewBox="0 0 192 144" version="1.1">
	<path d="M 0 38.567 L 0 77.134 4.511 73.438 C 6.992 71.405, 9.875 68.569, 10.919 67.137 C 12.743 64.632, 12.964 64.583, 16.658 65.874 C 18.771 66.613, 26.125 69.842, 33 73.049 C 47.644 79.882, 50.512 80.512, 58.368 78.620 C 62.323 77.668, 65.248 77.497, 67.337 78.097 C 70.049 78.875, 70.722 78.643, 72.725 76.243 C 73.984 74.734, 75.779 72.269, 76.714 70.764 C 77.650 69.259, 80.795 66.784, 83.705 65.264 C 87.703 63.175, 88.996 61.950, 88.998 60.250 C 88.999 59.013, 89.477 58, 90.059 58 C 90.641 58, 90.859 57.581, 90.543 57.070 C 90.102 56.356, 84.500 56.304, 84.500 57.014 C 84.500 57.098, 83.487 57.279, 82.250 57.416 C 81.013 57.553, 80 57.135, 80 56.486 C 80 54.895, 76.545 51, 75.133 51 C 74.510 51, 74 50.363, 74 49.583 C 74 48.804, 73.438 47.960, 72.750 47.708 C 71.750 47.342, 71.750 46.985, 72.750 45.925 C 74.552 44.015, 74.337 41.657, 72.428 42.389 C 71.527 42.735, 69.440 41.912, 67.539 40.462 C 64.551 38.183, 64.334 37.686, 65.360 35.473 C 65.987 34.122, 66.993 33.012, 67.595 33.008 C 70.179 32.989, 72 29.251, 72.022 23.921 C 72.050 17.098, 74.742 11.033, 79.133 7.901 C 81.945 5.896, 83.954 5.442, 91.325 5.148 C 107 4.522, 112.672 6.614, 116.788 14.538 L 118.500 17.833 122.500 16.409 C 127.472 14.638, 130.799 15.342, 131.966 18.410 C 132.458 19.705, 132.698 24.980, 132.498 30.132 C 132.299 35.285, 132.647 42.094, 133.271 45.265 C 134.586 51.943, 133.285 60.364, 130.305 64.457 C 127.895 67.768, 126.772 67.624, 124.803 63.750 C 121.727 57.698, 120.740 52.711, 120.863 43.842 C 120.931 38.979, 120.741 35, 120.442 35 C 120.143 35, 119.236 36.585, 118.426 38.523 C 117.269 41.292, 117.204 42.512, 118.120 44.225 C 118.991 45.853, 118.997 46.501, 118.143 46.786 C 117.515 46.995, 117 48.240, 117 49.552 C 117 51.206, 116.563 51.770, 115.574 51.390 C 114.738 51.069, 113.454 51.904, 112.465 53.413 C 111.539 54.826, 110.408 55.752, 109.952 55.470 C 109.496 55.189, 108.757 55.611, 108.311 56.409 C 107.421 57.998, 103.912 58.075, 102.804 56.529 C 101.577 54.816, 101.042 56.508, 101.848 59.550 C 102.384 61.574, 103.950 63.234, 106.839 64.838 C 109.154 66.124, 112.950 69.554, 115.274 72.460 L 119.500 77.744 127 77.928 C 148.668 78.461, 144.831 79.551, 174.261 64.493 C 176.957 63.114, 177.193 63.233, 184.195 69.540 C 188.140 73.093, 191.735 76, 192.184 76 C 192.633 76, 193 58.900, 193 38 L 193 0 96.500 0 L 0 0 0 38.567 M 0.454 39 C 0.454 60.175, 0.587 68.838, 0.749 58.250 C 0.911 47.663, 0.911 30.338, 0.749 19.750 C 0.587 9.163, 0.454 17.825, 0.454 39 M 172 70.582 C 170.625 71.345, 169.072 72.118, 168.549 72.301 C 168.026 72.484, 168.363 74.245, 169.299 76.218 C 171.234 80.296, 171.395 82.472, 170.068 86.601 C 169.555 88.195, 168.417 92.088, 167.540 95.250 C 166.662 98.412, 165.557 101, 165.083 101 C 164.610 101, 163.923 99.313, 163.557 97.250 C 163.190 95.188, 162.211 90.721, 161.381 87.325 C 160.007 81.709, 160.019 80.864, 161.509 77.982 C 162.410 76.240, 162.902 74.568, 162.602 74.268 C 161.945 73.612, 151 80.108, 151 81.154 C 151 81.556, 151.951 83.497, 153.113 85.467 C 155.393 89.332, 155.331 90, 151.393 103.883 C 149.851 109.321, 148.526 109.717, 147.662 105 C 147.410 103.625, 146.457 99.635, 145.545 96.134 C 144.272 91.254, 144.132 89.060, 144.943 86.735 C 146.544 82.142, 146.410 82, 140.500 82 C 137.475 82, 135 82.199, 135 82.443 C 135 82.686, 135.889 84.393, 136.976 86.234 C 138.886 89.472, 138.899 89.897, 137.365 99.042 C 136.492 104.244, 135.428 108.877, 135.001 109.338 C 134.573 109.799, 132.787 105.864, 131.031 100.594 C 127.919 91.251, 127.607 85.979, 130.077 84.452 C 132.094 83.206, 130.815 82, 127.475 82 C 124.552 82, 123.771 82.469, 122.899 84.750 C 122.193 86.596, 122.175 88.030, 122.846 89.113 C 123.565 90.273, 123.422 91.149, 122.340 92.232 C 121.113 93.458, 121.034 94.459, 121.911 97.619 C 122.504 99.754, 122.991 102.726, 122.994 104.224 C 122.998 106.177, 123.779 107.357, 125.750 108.391 C 127.263 109.185, 131.801 112.346, 135.835 115.417 C 142.199 120.261, 143.788 121.013, 147.835 121.100 C 154.290 121.238, 157.428 122.270, 157.837 124.390 C 158.116 125.842, 157.753 126.056, 155.974 125.492 C 151.989 124.227, 154.336 127.297, 159.311 129.857 C 162.352 131.422, 165.537 132.223, 168.485 132.164 C 170.968 132.114, 173 132.434, 173 132.876 C 173 134.190, 167.928 136.103, 162.851 136.704 C 158.490 137.221, 157.042 136.735, 144.805 130.647 C 128.396 122.485, 119.167 116.494, 116.521 112.288 C 115.409 110.522, 114.124 109.060, 113.665 109.039 C 111.814 108.953, 114.291 124.435, 117.066 130.303 C 118.603 133.553, 120.157 137.969, 120.520 140.118 L 121.180 144.025 156.840 143.763 L 192.500 143.500 192.660 120 C 192.748 107.075, 192.494 97.625, 192.096 99 C 191.451 101.228, 191.295 101.031, 190.665 97.189 C 189.930 92.713, 190.467 90.553, 192.069 91.543 C 192.591 91.865, 192.983 90.223, 192.962 87.809 C 192.928 83.934, 192.525 83.224, 188.962 80.760 C 186.783 79.252, 185 78.130, 185 78.266 C 185 78.402, 185.385 79.860, 185.855 81.507 C 186.474 83.671, 186.181 86.024, 184.798 90 C 183.746 93.025, 182.406 97.188, 181.821 99.250 C 181.236 101.313, 180.382 103, 179.924 103 C 179.465 103, 178.794 101.313, 178.432 99.250 C 178.070 97.188, 177.211 92.720, 176.524 89.322 C 175.464 84.083, 175.501 82.676, 176.762 80.072 C 177.580 78.382, 178.591 77, 179.008 77 C 180.527 77, 180.742 73.076, 179.333 71.065 C 177.689 68.717, 175.610 68.581, 172 70.582 M 12.462 72.041 C 10.658 74.036, 10.680 74.204, 13.412 79.291 L 16.209 84.500 14.105 93.137 C 12.947 97.887, 12 102.537, 12 103.470 C 12 104.403, 11.458 104.986, 10.796 104.765 C 9.113 104.204, 4.860 87.197, 5.416 83.251 L 5.874 80.002 3.468 81.751 L 1.063 83.500 1.031 113.750 L 1 144 35.889 144 L 70.777 144 71.469 140.250 C 71.849 138.188, 73.475 133.359, 75.080 129.519 C 77.358 124.073, 78 121.008, 78 115.578 L 78 108.618 73.921 113.234 C 65.890 122.322, 37.561 138.020, 29.246 137.990 C 26.085 137.979, 16 133.546, 16 132.169 C 16 131.661, 17.913 131.419, 20.250 131.632 C 22.729 131.857, 26.557 131.285, 29.434 130.259 C 34.616 128.412, 36.682 126, 33.083 126 C 31.937 126, 31 125.559, 31 125.019 C 31 123.499, 35.679 122.683, 40.869 123.298 C 45.504 123.847, 45.698 123.752, 54.717 116.515 C 59.748 112.478, 64.505 108.799, 65.289 108.338 C 66.072 107.877, 67.415 104.350, 68.273 100.500 C 69.613 94.487, 69.635 93.280, 68.430 91.936 C 67.583 90.992, 67.388 90.002, 67.937 89.436 C 68.437 88.921, 68.603 87.263, 68.306 85.750 C 67.827 83.307, 67.328 83, 63.827 83 C 59.955 83, 59.914 83.038, 61.443 85.223 C 62.299 86.445, 63 88.764, 63 90.377 C 63 93.931, 57.991 111, 56.948 111 C 56.277 111, 55.269 106.238, 53.419 94.333 C 52.965 91.412, 53.254 89.198, 54.385 86.929 C 55.273 85.149, 56 83.537, 56 83.346 C 56 83.156, 53.477 83, 50.393 83 C 45.439 83, 44.872 83.204, 45.522 84.750 C 47.210 88.766, 47.117 91.442, 44.984 100.239 C 42.447 110.702, 41.404 112.578, 40.451 108.395 C 40.088 106.803, 39.163 102.960, 38.396 99.856 C 36.559 92.427, 36.634 88.428, 38.677 84.970 C 39.950 82.815, 40.081 81.802, 39.219 80.764 C 37.773 79.021, 29.038 74.629, 28.362 75.305 C 28.082 75.585, 28.609 77.277, 29.533 79.064 C 31.133 82.158, 31.104 82.810, 28.918 92.657 C 27.655 98.346, 26.289 103, 25.882 103 C 25.127 103, 23.150 96.624, 21.012 87.286 C 19.998 82.861, 20.059 81.589, 21.409 78.882 C 23.660 74.369, 23.448 73.584, 19.466 71.685 C 14.999 69.555, 14.699 69.570, 12.462 72.041" stroke="none" fill="black" fill-rule="evenodd"/>
</svg>