<svg xmlns="http://www.w3.org/2000/svg" width="192" height="144" viewBox="0 0 192 144" version="1.1">
	<path d="M 0 72 L 0 144 41.006 144 L 82.012 144 81.410 135.750 C 80.863 128.241, 83.178 99.139, 84.492 97.013 C 84.768 96.567, 85.037 92.107, 85.091 87.101 C 85.144 82.096, 85.596 78, 86.094 78 C 87.330 78, 87.247 72.271, 86 71.500 C 85.450 71.160, 84.951 71.471, 84.890 72.191 C 84.830 72.911, 84.300 71.475, 83.712 69 C 81.906 61.401, 82.556 55.622, 85.970 48.902 C 88.917 43.104, 88.987 42.708, 87.291 41.422 C 86.306 40.675, 85.162 40.049, 84.750 40.032 C 84.338 40.014, 84 39.052, 84 37.893 C 84 36.349, 83.561 35.955, 82.355 36.417 C 77.622 38.233, 75.100 28.685, 79.003 23.724 C 80.104 22.323, 80.749 20.508, 80.435 19.690 C 80.121 18.872, 80.346 17.904, 80.935 17.540 C 81.525 17.176, 81.731 15.775, 81.392 14.427 C 80.896 12.450, 81.090 12.097, 82.400 12.600 C 83.597 13.059, 83.860 12.800, 83.404 11.611 C 82.314 8.771, 85.438 9.825, 89 13.500 C 90.866 15.425, 93.274 17, 94.351 17 C 97.955 17, 103.317 24.001, 105.869 32.038 C 107.172 36.142, 110.322 43.531, 112.869 48.457 C 117.334 57.094, 117.500 57.725, 117.500 66.102 C 117.500 72.815, 117.120 75.211, 115.828 76.645 C 114.908 77.665, 113.871 79.641, 113.523 81.036 C 113.175 82.432, 111.903 84.007, 110.695 84.536 C 108.686 85.418, 108.527 86.094, 108.823 92.500 C 109.001 96.350, 109.507 108.725, 109.947 120 C 110.387 131.275, 111.079 141.293, 111.485 142.261 C 112.174 143.908, 114.840 144.005, 152.361 143.761 L 192.500 143.500 192.757 71.750 L 193.013 0 96.507 0 L 0 0 0 72 M 0.474 72.500 C 0.474 112.100, 0.598 128.154, 0.750 108.176 C 0.901 88.198, 0.901 55.798, 0.750 36.176 C 0.598 16.554, 0.474 32.900, 0.474 72.500 M 106.446 82.087 C 106.077 82.685, 106.275 83.675, 106.887 84.287 C 107.704 85.104, 108 84.815, 108 83.200 C 108 80.785, 107.481 80.413, 106.446 82.087" stroke="none" fill="black" fill-rule="evenodd"/>
</svg>