<svg xmlns="http://www.w3.org/2000/svg" width="192" height="144" viewBox="0 0 192 144" version="1.1">
	<path d="M -0 72.005 L -0 144.010 96.250 143.755 L 192.500 143.500 192.757 71.750 L 193.013 0 96.507 0 L 0 0 -0 72.005 M 0.474 72.500 C 0.474 112.100, 0.598 128.154, 0.750 108.176 C 0.901 88.198, 0.901 55.798, 0.750 36.176 C 0.598 16.554, 0.474 32.900, 0.474 72.500 M 94.571 39.571 C 92.353 41.790, 92.621 44.621, 95.223 46.443 C 98.181 48.516, 98.673 48.429, 100.592 45.500 C 102.109 43.184, 102.109 42.816, 100.592 40.500 C 98.707 37.623, 96.812 37.331, 94.571 39.571" stroke="none" fill="black" fill-rule="evenodd"/>
</svg>