<svg xmlns="http://www.w3.org/2000/svg" width="192" height="144" viewBox="0 0 192 144" version="1.1">
	<path d="M 16.478 4.250 C 17.608 12.251, 18.606 25.060, 18.136 25.530 C 17.878 25.789, 16.197 26, 14.401 26 C 11.988 26, 10.965 26.535, 10.485 28.048 C 10.127 29.174, 10.279 30.637, 10.822 31.298 C 11.364 31.959, 11.964 33.530, 12.154 34.790 C 12.610 37.811, 14.551 37.574, 14.323 34.525 C 14.225 33.223, 14.750 31.926, 15.490 31.642 C 17.086 31.030, 18.185 33.355, 17.340 35.557 C 16.993 36.461, 18.067 38.958, 19.902 41.513 L 23.062 45.913 20.781 47.351 C 19.526 48.141, 16.925 48.674, 15 48.535 C 11.068 48.251, 7.366 49.603, 6.599 51.603 C 6.049 53.035, 6.414 53.347, 12.452 56.610 C 15.108 58.045, 16.764 59.814, 17.500 62 C 19.687 68.497, 25.485 70.766, 30.273 67 C 31.671 65.900, 33.307 65, 33.908 65 C 34.508 65, 35 64.550, 35 64 C 35 63.450, 33.902 63, 32.559 63 C 29.580 63, 28.989 62.150, 30.039 59.375 C 30.631 57.810, 32.041 57.071, 35.398 56.568 C 37.904 56.192, 40.258 55.392, 40.629 54.791 C 41.254 53.781, 39.074 51.525, 36.715 50.738 C 35.336 50.279, 37.485 46.317, 41.456 42 C 45.453 37.654, 49 31.515, 49 28.943 C 49 27.198, 46.919 26.381, 43.750 26.882 C 43.337 26.947, 42.993 26.212, 42.985 25.250 C 42.972 23.848, 42.793 23.778, 42.085 24.897 C 41.371 26.025, 40.942 25.880, 39.860 24.147 C 38.117 21.356, 37.358 21.438, 36.589 24.500 C 35.715 27.982, 34.324 27.619, 33.717 23.750 C 33.001 19.198, 35.719 13.545, 41.838 6.860 C 44.677 3.758, 47 0.945, 47 0.610 C 47 0.274, 39.997 0, 31.439 0 L 15.877 0 16.478 4.250 M 106 72 L 106 144 135.840 144 L 165.681 144 167.001 138.494 C 167.728 135.466, 168.093 132.760, 167.814 132.480 C 167.534 132.201, 166.098 132.921, 164.623 134.082 C 163.148 135.242, 161.370 135.972, 160.672 135.704 C 158.697 134.946, 157.252 128.869, 157.673 123.092 C 158.044 118.005, 157.987 117.872, 155.778 118.642 C 152.754 119.696, 148.120 119.520, 146.906 118.306 C 145.043 116.443, 152.032 107.930, 158 104.791 C 164.495 101.376, 166.277 99.776, 166.468 97.189 C 166.545 96.137, 168.388 93.194, 170.564 90.649 C 174.466 86.083, 174.577 86.032, 178.973 86.782 C 182.851 87.445, 183.512 87.928, 184.090 90.521 C 184.454 92.160, 185.054 94.216, 185.423 95.092 C 185.882 96.183, 184.838 97.817, 182.102 100.289 L 178.111 103.894 183.137 108.947 C 185.902 111.726, 188.568 114, 189.063 114 C 190.352 114, 191.298 109.514, 190.523 107.072 C 190.138 105.859, 190.308 105, 190.933 105 C 191.676 105, 192 89.043, 192 52.500 L 192 0 149 0 L 106 0 106 72 M 172.769 117.956 C 172.078 120.417, 172.491 121.842, 173.581 120.753 C 173.900 120.433, 174.004 119.121, 173.810 117.836 L 173.459 115.500 172.769 117.956 M 188.250 122.723 L 185 123.127 185.006 129.813 C 185.014 139.486, 186.459 144, 189.547 144 L 192 144 192 133 C 192 126.950, 191.887 122.072, 191.750 122.160 C 191.613 122.248, 190.037 122.502, 188.250 122.723" stroke="none" fill="black" fill-rule="evenodd"/>
</svg>