<svg xmlns="http://www.w3.org/2000/svg" width="192" height="144" viewBox="0 0 192 144" version="1.1">
	<path d="M 0 72 L 0 144 4.328 144 L 8.657 144 9.841 138.868 C 10.702 135.140, 10.726 133.375, 9.930 132.416 C 8.680 130.910, 9.527 127.309, 11.718 124.811 C 12.533 123.882, 13.198 121.407, 13.195 119.311 C 13.192 117.215, 14.126 113.475, 15.271 111 C 16.415 108.525, 17.481 104.250, 17.640 101.500 C 17.798 98.750, 18.218 94.813, 18.573 92.750 C 18.998 90.282, 18.839 89, 18.109 89 C 17.499 89, 17 89.675, 17 90.500 C 17 91.325, 16.172 92, 15.161 92 C 14.149 92, 12.854 93.025, 12.284 94.277 C 9.232 100.974, 3.029 105.123, 1.607 101.418 C 0.291 97.988, 0.985 96.253, 3.907 95.669 C 7.002 95.050, 9.295 91.095, 14.600 77.227 C 17.507 69.630, 17.568 68.315, 15.053 67.517 C 13.133 66.907, 13.135 66.826, 15.167 61.514 C 17.218 56.155, 17.219 56.116, 15.267 53.315 C 8.562 43.692, 9.920 29.088, 18.095 22.894 C 26.778 16.316, 37.406 12.037, 45.125 12.012 C 47.119 12.005, 50.156 11.719, 51.875 11.375 C 54.673 10.815, 55.005 10.371, 55.047 7.125 L 55.094 3.500 57.797 7 C 59.284 8.925, 62.666 12.715, 65.314 15.423 C 70.693 20.924, 72.262 23.536, 73.946 29.796 C 75.331 34.943, 79.895 38.378, 84.264 37.561 C 86.007 37.235, 87.730 37.645, 88.928 38.670 C 90.714 40.200, 90.732 40.494, 89.228 43.648 C 87.646 46.965, 85.696 47.935, 84.500 46 C 83.215 43.921, 82.073 45.116, 82.640 47.948 C 83.406 51.782, 79.584 60, 77.033 60 C 73.902 60, 72.798 62.558, 73.159 68.975 C 73.414 73.492, 73.185 74.905, 72.258 74.548 C 71.575 74.284, 70.348 75.361, 69.531 76.940 C 66.850 82.125, 65.138 83.199, 60.744 82.457 C 57.627 81.930, 56.859 82.079, 57.212 83.142 C 57.481 83.954, 61.537 85.305, 67.292 86.500 C 77.147 88.546, 80.283 90.117, 78.360 92.040 C 77.640 92.760, 78.031 94.529, 79.629 97.790 C 80.899 100.380, 81.952 103.036, 81.969 103.691 C 82.025 105.840, 83.826 106.080, 89.704 104.723 C 112.497 99.462, 135.577 107.571, 151.960 126.597 C 154.756 129.844, 158.271 135.074, 159.772 138.220 L 162.500 143.941 177.500 143.720 L 192.500 143.500 192.757 71.750 L 193.013 0 96.507 0 L 0 0 0 72 M 0.474 72.500 C 0.474 112.100, 0.598 128.154, 0.750 108.176 C 0.901 88.198, 0.901 55.798, 0.750 36.176 C 0.598 16.554, 0.474 32.900, 0.474 72.500 M 72 11 C 72 11.550, 72.873 12, 73.941 12 C 75.009 12, 76.160 11.550, 76.500 11 C 76.851 10.433, 76.010 10, 74.559 10 C 73.152 10, 72 10.450, 72 11 M 130.113 61.652 C 129.448 63.111, 129.282 64.682, 129.743 65.143 C 130.990 66.390, 135 63.186, 135 60.943 C 135 58.025, 131.536 58.528, 130.113 61.652 M 38.607 84.582 C 37.740 86.840, 37.823 87.005, 39.500 86.362 C 40.325 86.045, 41 85.159, 41 84.393 C 41 82.498, 39.357 82.628, 38.607 84.582 M 24.954 89.086 C 23.639 91.543, 24.087 92.288, 26.357 91.417 C 28.098 90.748, 28.674 87, 27.035 87 C 26.505 87, 25.568 87.939, 24.954 89.086 M 31.499 124.250 C 30.476 126.762, 31.729 129.671, 33.200 128.200 C 34.017 127.383, 34.038 126.426, 33.273 124.783 C 32.326 122.747, 32.135 122.689, 31.499 124.250 M 31.500 134 C 31.138 135.650, 30.202 137, 29.421 137 C 28.464 137, 28 138.143, 28 140.500 C 28 143.722, 28.238 144, 31 144 L 34 144 34 137.500 C 34 130.727, 32.638 128.820, 31.500 134" stroke="none" fill="black" fill-rule="evenodd"/>
</svg>