<svg xmlns="http://www.w3.org/2000/svg" width="192" height="144" viewBox="0 0 192 144" version="1.1">
	<path d="M 63.391 9.957 C 63.281 20.008, 62.795 22.053, 58.157 32 C 54.976 38.822, 44.347 49.641, 37.500 53.027 C 34.750 54.387, 32.275 55.783, 32 56.129 C 31.725 56.475, 27.533 57.541, 22.683 58.500 C 14.372 60.142, 7.692 60.128, 2.250 58.457 L 0 57.767 0 100.883 L 0 144 59.941 144 C 120.739 144, 124.176 143.796, 119.606 140.454 C 118.065 139.327, 118.458 138.421, 123.807 130.777 C 127.052 126.138, 131.630 119.106, 133.980 115.150 L 138.254 107.957 135.627 102.103 C 133.894 98.242, 133 94.505, 133 91.125 C 133 88.306, 132.550 86, 132 86 C 130.701 86, 130.706 75.505, 132.007 70.993 C 132.562 69.072, 133.279 65.025, 133.603 62 C 133.987 58.406, 135.430 54.247, 137.767 50 C 143.422 39.723, 144.901 38.021, 150.468 35.385 C 154.847 33.312, 156.911 32.955, 163.091 33.203 C 169.113 33.445, 170.539 33.815, 170.804 35.205 C 170.983 36.142, 170.200 37.704, 169.065 38.677 C 167.600 39.931, 167 41.639, 167 44.555 C 167 48.171, 166.496 49.076, 162.811 52.083 C 160.507 53.962, 157.469 56.285, 156.061 57.243 C 154.093 58.583, 153.902 58.988, 155.234 58.993 C 158.336 59.005, 162.711 64.347, 165.476 71.500 C 166.965 75.350, 168.647 79.062, 169.213 79.749 C 170.749 81.611, 168.248 87, 165.847 87 C 162.613 87, 162.580 89.925, 165.740 96.347 C 167.405 99.731, 169.093 103.625, 169.491 105 C 169.889 106.375, 172.940 113.539, 176.271 120.921 C 180.035 129.263, 182.504 136.188, 182.795 139.220 L 183.264 144.099 187.882 143.799 L 192.500 143.500 192.825 129 C 193.003 121.025, 192.837 88.737, 192.455 57.250 L 191.761 0 127.630 0.005 L 63.500 0.010 63.391 9.957 M 0.459 101 C 0.459 124.925, 0.589 134.713, 0.749 122.750 C 0.908 110.788, 0.908 91.213, 0.749 79.250 C 0.589 67.288, 0.459 77.075, 0.459 101 M 144.079 90.583 C 144.127 91.748, 144.364 91.985, 144.683 91.188 C 144.972 90.466, 144.936 89.603, 144.604 89.271 C 144.272 88.939, 144.036 89.529, 144.079 90.583" stroke="none" fill="black" fill-rule="evenodd"/>
</svg>