<svg xmlns="http://www.w3.org/2000/svg" width="192" height="144" viewBox="0 0 192 144" version="1.1">
	<path d="M 0 72 L 0 144 32.500 144 L 65 144 65 141.445 C 65 139.308, 64.096 138.490, 59.471 136.445 C 56.431 135.100, 53.225 134, 52.348 134 C 51.471 134, 48.222 132.686, 45.127 131.079 C 42.032 129.473, 37.353 127.407, 34.730 126.489 C 30.820 125.120, 29.602 124.079, 27.980 120.722 C 26.891 118.468, 26 116.533, 26 116.421 C 26 116.309, 27.135 115.932, 28.522 115.584 C 30.688 115.040, 30.892 114.668, 29.969 112.943 C 29.006 111.143, 29.394 110.725, 33.697 108.923 C 48.697 102.641, 51.918 100.624, 60.113 92.387 C 67.696 84.763, 68.275 83.900, 67.276 81.705 C 66.422 79.833, 66.622 77.976, 68.201 73.100 C 69.309 69.680, 69.917 66.583, 69.552 66.218 C 69.187 65.854, 66.937 67.680, 64.553 70.278 C 61.209 73.919, 59.522 75, 57.180 75 C 53.464 75, 50.994 72.739, 51.712 69.993 C 52.372 67.469, 56.642 64, 59.088 64 C 60.088 64, 61.715 62.823, 62.703 61.384 C 63.691 59.946, 66.337 56.908, 68.583 54.634 C 72.282 50.890, 72.642 50.076, 72.411 46 C 71.995 38.691, 70.922 35, 69.212 35 C 67.943 35, 68.035 34.580, 69.703 32.750 C 70.831 31.512, 72.294 28.813, 72.954 26.750 C 74.262 22.666, 75.493 21.953, 76.249 24.843 C 76.633 26.314, 78.073 26.811, 83.392 27.308 C 87.076 27.652, 91.222 27.486, 92.666 26.937 C 96.061 25.646, 96.535 26.254, 94.525 29.322 C 92.918 31.774, 92.943 31.829, 95.945 32.488 C 99.924 33.362, 99.804 34.311, 95.500 36 C 90.492 37.965, 90.838 39.706, 97.251 44.802 C 99.622 46.686, 102.724 48.019, 105.743 48.450 C 113.826 49.604, 117.563 50.889, 120.589 53.556 L 123.500 56.122 118.500 55.463 C 108.868 54.195, 98.480 51.840, 96.285 50.426 C 93.487 48.624, 93 48.637, 93 50.515 C 93 51.348, 94.322 52.834, 95.939 53.817 C 97.555 54.799, 100.386 57.793, 102.230 60.469 C 104.074 63.145, 106.240 65.654, 107.042 66.045 C 110.321 67.643, 115.847 69, 119.078 69 C 123.508 69, 129.150 70.625, 130.110 72.178 C 130.523 72.846, 130.417 74.220, 129.876 75.232 C 129.067 76.744, 128.015 76.991, 123.979 76.616 C 121.278 76.365, 118.568 75.851, 117.957 75.473 C 117.346 75.096, 114.072 74.139, 110.681 73.348 C 107.290 72.557, 103.387 70.887, 102.008 69.637 C 100.629 68.387, 98.352 66.655, 96.948 65.789 C 94.546 64.306, 94.268 64.347, 92.198 66.498 C 90.895 67.852, 90 70.048, 90 71.891 C 90 74.959, 90.067 75, 95.045 75 L 100.091 75 99.458 78.750 C 99.110 80.813, 98.621 83.251, 98.371 84.169 C 98.089 85.206, 98.659 86.074, 99.876 86.461 C 103.462 87.599, 107.040 91.145, 109.500 95.999 L 111.933 100.801 109.716 102.292 L 107.500 103.783 110 104.803 C 111.375 105.365, 115.040 106.797, 118.145 107.985 C 125.551 110.821, 127.595 113.215, 128.343 119.929 C 128.953 125.399, 128.036 128, 125.499 128 C 124.808 128, 121.649 129.562, 118.479 131.470 C 112.681 134.962, 104.078 138, 99.989 138 C 98.281 138, 97.949 138.393, 98.512 139.750 C 98.911 140.713, 99.260 142.067, 99.286 142.760 C 99.323 143.758, 109.006 143.966, 145.917 143.760 L 192.500 143.500 192.757 71.750 L 193.013 0 96.507 0 L 0 0 0 72 M 0.474 72.500 C 0.474 112.100, 0.598 128.154, 0.750 108.176 C 0.901 88.198, 0.901 55.798, 0.750 36.176 C 0.598 16.554, 0.474 32.900, 0.474 72.500 M 79.004 138.832 C 75.120 139.200, 73 140.539, 73 142.622 C 73 143.696, 75.098 144, 82.500 144 C 90.887 144, 91.998 143.795, 91.985 142.250 C 91.949 138.151, 90.421 137.748, 79.004 138.832" stroke="none" fill="black" fill-rule="evenodd"/>
</svg>