<svg xmlns="http://www.w3.org/2000/svg" width="192" height="144" viewBox="0 0 192 144" version="1.1">
	<path d="M 108 3.933 C 108 4.446, 108.900 5.151, 110 5.500 C 112.966 6.441, 112.429 7.749, 108.750 8.543 C 100.983 10.219, 95 15.389, 95 20.425 C 95 22.062, 89.845 25.189, 87.852 24.760 C 87.188 24.617, 86.172 25.781, 85.595 27.347 C 84.768 29.592, 84.858 30.439, 86.023 31.347 C 86.835 31.981, 88.165 33.788, 88.979 35.362 C 89.792 36.936, 91.498 38.619, 92.769 39.102 C 94.962 39.936, 95.066 40.405, 94.791 48.216 L 94.500 56.450 90.500 57.149 C 88.300 57.533, 84.263 58.847, 81.530 60.068 C 76.925 62.125, 75.575 62.244, 63.188 61.684 C 52.066 61.181, 49.906 61.311, 50.345 62.457 C 51.093 64.406, 48.680 65.055, 44.814 63.947 C 38.579 62.159, 38.681 63.511, 45.084 67.553 C 48.334 69.605, 49 70.580, 49 73.290 C 49 76.912, 51.046 80.419, 54.117 82.063 C 55.750 82.937, 57.553 82.458, 63.627 79.536 C 68.056 77.405, 73.858 75.533, 77.811 74.960 C 81.490 74.426, 86.075 73.705, 88 73.359 L 91.500 72.728 89.574 74.888 C 88.097 76.543, 87.922 77.322, 88.824 78.224 C 89.471 78.871, 90 80.737, 90 82.371 C 90 84.005, 90.696 86.111, 91.546 87.051 C 92.867 88.511, 92.940 89.974, 92.046 97.104 C 91.471 101.693, 91 109.521, 91 114.500 C 91 123.040, 89.557 138.403, 88.394 142.250 C 87.901 143.882, 89.434 144, 111.040 144 C 129.874 144, 134.119 143.752, 133.705 142.674 C 133.425 141.945, 132.875 138.345, 132.482 134.674 C 131.777 128.091, 132.341 126.741, 134.778 129.178 C 135.681 130.081, 136.484 129.208, 138.228 125.428 C 140.151 121.258, 140.497 118.844, 140.481 109.732 C 140.466 101.434, 140.753 99.075, 141.731 99.450 C 143.283 100.046, 143.310 99.118, 141.908 93.549 C 141.166 90.601, 141.139 88.609, 141.825 87.328 C 142.586 85.905, 142.263 84.260, 140.507 80.616 L 138.180 75.789 142.090 69.739 C 144.241 66.412, 146 63.148, 146 62.485 C 146 61.823, 143.412 59.755, 140.250 57.890 L 134.500 54.500 133.851 45.500 C 133.165 35.976, 132.222 26.645, 131.399 21.229 C 130.784 17.187, 126.095 11.689, 121.755 9.921 C 119.965 9.191, 117.307 7.336, 115.849 5.797 C 113.310 3.119, 108 1.857, 108 3.933 M 101 50.825 C 101 55.398, 101.629 56.249, 103.943 54.804 C 106.104 53.454, 105.543 49.820, 102.920 48.182 C 101.152 47.078, 101 47.287, 101 50.825" stroke="none" fill="black" fill-rule="evenodd"/>
</svg>