<svg xmlns="http://www.w3.org/2000/svg" width="192" height="144" viewBox="0 0 192 144" version="1.1">
	<path d="M 0 57.055 L 0 114.110 4.750 113.805 L 9.500 113.500 10 105.500 C 10.275 101.100, 10.828 96.996, 11.229 96.379 C 11.630 95.763, 13.318 94.986, 14.979 94.654 C 17.661 94.118, 18 93.651, 18 90.494 C 18 88.255, 18.556 86.724, 19.500 86.362 C 20.325 86.045, 21 84.709, 21 83.393 C 21 82.077, 21.450 81, 22 81 C 22.550 81, 23 82.139, 23 83.531 C 23 84.924, 23.675 86.322, 24.500 86.638 C 25.436 86.997, 26 88.523, 26 90.694 C 26 93.625, 26.463 94.348, 28.934 95.281 C 32.363 96.576, 32.968 98.286, 32.986 106.750 C 32.999 112.329, 33.215 113, 35 113 C 36.685 113, 37.001 112.332, 37.005 108.750 C 37.008 105.781, 37.726 103.605, 39.386 101.530 L 41.762 98.561 43.877 102.030 C 45.041 103.939, 45.994 106.893, 45.996 108.596 L 46 111.691 59.170 112.321 C 71.459 112.909, 72.515 113.120, 74.974 115.475 C 76.424 116.864, 77.922 118, 78.305 118 C 78.687 118, 79 114.384, 79 109.965 C 79 104.252, 79.467 101.217, 80.615 99.465 C 82.677 96.318, 83.195 96.367, 85.284 99.904 C 86.756 102.395, 87 105.742, 87 123.404 L 87 144 139.340 144 L 191.681 144 192.338 120.750 C 192.700 107.963, 192.996 75.563, 192.998 48.750 L 193 0 96.500 0 L 0 0 0 57.055 M 0.468 57.500 C 0.468 88.850, 0.595 101.530, 0.750 85.679 C 0.904 69.827, 0.904 44.177, 0.749 28.679 C 0.594 13.180, 0.468 26.150, 0.468 57.500 M 116.770 41.095 C 114.495 43.646, 112.659 44.907, 111.904 44.441 C 111.151 43.975, 110.950 44.110, 111.373 44.795 C 111.749 45.403, 111.131 46.395, 110 47 C 107.311 48.439, 108.433 50.180, 111.546 49.399 C 113.515 48.905, 114.156 49.281, 114.964 51.406 C 115.511 52.845, 115.681 56.050, 115.341 58.529 C 114.860 62.039, 115.112 63.466, 116.480 64.978 C 117.696 66.321, 118.034 67.727, 117.579 69.542 C 116.808 72.613, 112.264 76.923, 109.750 76.968 C 107.949 77.001, 107.207 80, 109 80 C 109.550 80, 110.007 80.787, 110.015 81.750 C 110.028 83.152, 110.207 83.222, 110.915 82.103 C 111.629 80.975, 112.058 81.120, 113.140 82.853 C 113.878 84.034, 115.242 85, 116.171 85 C 117.159 85, 117.994 85.930, 118.180 87.240 C 118.732 91.103, 121.668 90.584, 122.436 86.488 C 123.500 80.818, 127.026 82.435, 128.459 89.250 C 129.136 92.464, 131.937 92.958, 132.710 90 C 133.331 87.627, 135.275 87.418, 137.357 89.500 C 139.273 91.416, 140 91.397, 140 89.433 C 140 88.368, 140.588 88.052, 141.831 88.446 C 143.859 89.090, 148.420 85.778, 147.232 84.524 C 146.829 84.099, 147.512 84.063, 148.750 84.443 C 150.110 84.861, 151 84.713, 151 84.067 C 151 83.480, 150.498 83, 149.883 83 C 149.259 83, 148.997 82.118, 149.289 81.001 C 149.577 79.902, 149.404 78.750, 148.906 78.442 C 147.384 77.501, 147.896 76.002, 149.750 75.970 C 151.404 75.941, 151.403 75.882, 149.729 74.908 C 148.755 74.341, 148.168 73.537, 148.425 73.122 C 148.681 72.707, 147.558 71.579, 145.928 70.617 C 144.298 69.654, 143.224 68.446, 143.541 67.933 C 143.872 67.398, 141.704 67, 138.452 67 C 133.442 67, 132.871 66.797, 133.522 65.250 C 133.926 64.287, 134.483 62.457, 134.758 61.182 C 135.257 58.874, 135.244 58.871, 131.507 60.432 C 126.912 62.353, 127.250 62.381, 127.387 60.094 C 127.449 59.046, 128.763 57.019, 130.306 55.590 C 131.850 54.161, 132.867 52.594, 132.567 52.109 C 132.267 51.624, 132.687 50.675, 133.500 50 C 135.525 48.319, 134.666 47.348, 130.458 46.558 C 127.059 45.920, 124.491 42.760, 125.704 40.706 C 126.415 39.502, 123.975 37, 122.089 37 C 121.173 37, 118.779 38.843, 116.770 41.095" stroke="none" fill="black" fill-rule="evenodd"/>
</svg>