<svg xmlns="http://www.w3.org/2000/svg" width="192" height="144" viewBox="0 0 192 144" version="1.1">
	<path d="M 0 38.500 C 0 59.675, 0.295 77, 0.656 77 C 1.655 77, 7.944 72.077, 13.260 67.134 L 18.019 62.708 24.760 65.557 C 28.467 67.123, 35.767 70.616, 40.982 73.319 C 50.129 78.058, 50.659 78.204, 55.982 77.444 C 59.017 77.010, 64.066 76.711, 67.201 76.778 L 72.903 76.900 76.567 71.908 C 78.898 68.733, 82.009 66.015, 85.116 64.441 C 87.802 63.080, 90 61.574, 90 61.094 C 90 60.614, 89.138 59.159, 88.084 57.861 L 86.169 55.500 85.444 58.376 C 84.814 60.877, 84.593 61.024, 83.743 59.506 C 82.948 58.084, 82.605 58.014, 81.898 59.130 C 81.272 60.119, 81.022 59.805, 81.001 58 C 80.962 54.765, 78.669 50.429, 77.168 50.750 C 76.526 50.887, 76 50.550, 76 50 C 76 49.450, 75.273 49, 74.385 49 C 72.901 49, 72.900 48.801, 74.374 46.552 C 75.262 45.197, 75.567 43.850, 75.058 43.536 C 74.552 43.223, 73.880 43.385, 73.565 43.895 C 72.965 44.865, 67 43.081, 67 41.932 C 67 41.586, 68.458 39.742, 70.241 37.834 C 73.290 34.570, 73.482 33.928, 73.491 26.933 C 73.498 20.999, 73.949 18.779, 75.725 15.922 C 78.831 10.928, 81.757 9.927, 94.711 9.424 C 107.907 8.912, 111.289 9.890, 115.522 15.440 C 117.461 17.982, 118.626 18.774, 119.354 18.046 C 119.929 17.471, 121.055 17, 121.856 17 C 124.035 17, 129.811 21.730, 131.383 24.802 C 133.186 28.326, 134.459 36, 133.241 36 C 131.072 36, 130.326 40.433, 131.732 44.968 C 133.897 51.948, 133.673 59.787, 131.168 64.682 C 128.486 69.925, 127.734 70.380, 125.306 68.229 C 122.097 65.386, 120.006 57.049, 119.936 46.812 L 119.872 37.500 118.229 40.804 C 116.901 43.475, 116.819 44.480, 117.802 46.054 C 118.533 47.225, 118.616 48, 118.008 48 C 117.454 48, 117 48.955, 117 50.122 C 117 51.852, 116.734 52.025, 115.567 51.056 C 114.066 49.810, 113.937 49.952, 109.877 57.345 C 107.925 60.899, 106.598 61.194, 106.170 58.168 C 105.853 55.934, 105.758 55.909, 103.920 57.573 C 100.988 60.226, 101.569 61.641, 106.750 64.462 C 109.362 65.885, 112.524 68.546, 113.777 70.375 C 117.890 76.385, 120.392 78.182, 123.175 77.123 C 124.859 76.483, 127.550 76.628, 131.576 77.574 C 138.915 79.299, 142.589 78.681, 151.500 74.220 C 155.350 72.293, 161.998 69.218, 166.273 67.386 L 174.046 64.056 182.161 71.528 C 186.624 75.638, 190.611 79, 191.021 79 C 192.686 79, 192.973 72.897, 192.986 37.250 L 193 0 96.500 0 L 0 0 0 38.500 M 0.454 39 C 0.454 60.175, 0.587 68.838, 0.749 58.250 C 0.911 47.663, 0.911 30.338, 0.749 19.750 C 0.587 9.163, 0.454 17.825, 0.454 39 M 16.496 70.004 C 14.571 72.131, 14.737 72.817, 18.698 79.094 C 20.164 81.417, 20.198 82.643, 19.022 90.844 C 18.301 95.880, 17.365 100, 16.943 100 C 15.320 100, 9.837 83.551, 10.360 80.250 C 10.917 76.727, 10.001 76.088, 7.945 78.566 C 7.230 79.427, 5.391 80.781, 3.858 81.573 L 1.070 83.015 3.535 86.647 C 6.291 90.708, 6.399 92.285, 4.651 103 L 3.428 110.500 1.754 107.500 C 0.143 104.613, 0.079 105.244, 0.040 124.250 L 0 144 35.389 144 L 70.777 144 71.461 140.250 C 71.837 138.188, 73.687 132.619, 75.572 127.876 C 78.264 121.104, 79 117.829, 79 112.623 L 79 105.994 75.349 110.036 C 66.893 119.395, 41.753 133, 32.914 133 C 28.865 133, 20 129.484, 20 127.878 C 20 127.382, 21.688 127.207, 23.750 127.489 C 28.076 128.081, 37.127 125.252, 37.820 123.091 C 38.121 122.153, 37.758 121.879, 36.734 122.272 C 34.656 123.069, 33.761 121.993, 35.131 120.342 C 36.411 118.799, 41.750 118.574, 45.274 119.914 C 47.339 120.699, 48.655 120.053, 54.589 115.347 C 65.129 106.987, 64.591 108.441, 60.551 99.252 C 57.076 91.349, 56.005 84.733, 58 83.500 C 60.410 82.011, 58.591 81, 53.500 81 C 47.590 81, 47.179 81.383, 49.514 84.717 C 50.862 86.642, 50.865 87.885, 49.540 96.080 C 47.937 105.993, 47.425 107.331, 46.362 104.393 C 45.985 103.352, 44.460 99.294, 42.974 95.375 C 40.477 88.792, 40.374 87.957, 41.625 84.375 C 42.370 82.244, 42.786 79.973, 42.551 79.328 C 42.016 77.863, 33.100 72.566, 32.381 73.286 C 32.090 73.576, 32.598 75.256, 33.510 77.018 C 35.170 80.229, 34.973 83.535, 32.354 96.442 L 31.757 99.384 30.507 96.942 C 25.736 87.624, 24.386 79.802, 26.455 73.469 C 26.999 71.805, 26.415 71.127, 23.223 69.719 C 18.412 67.596, 18.686 67.584, 16.496 70.004 M 168.750 71.068 C 164.509 73.307, 164.459 73.461, 166.448 78.221 C 167.795 81.445, 167.690 82.375, 164.946 91.512 C 163.324 96.916, 161.794 101.539, 161.547 101.786 C 161.052 102.281, 160.809 101.290, 158.482 89.306 C 157.018 81.768, 157.021 80.859, 158.519 77.963 C 159.415 76.231, 159.910 74.576, 159.619 74.286 C 159.024 73.691, 150.415 78.520, 149.537 79.941 C 149.225 80.445, 149.511 82.884, 150.174 85.360 C 151.258 89.415, 151.108 90.730, 148.660 98.626 C 144.735 111.288, 144.591 111.263, 142.533 97.555 C 141.255 89.042, 141.251 87.415, 142.502 84.996 C 143.851 82.387, 143.803 82.181, 141.719 81.622 C 138.903 80.867, 134.503 80.830, 133.777 81.556 C 133.472 81.862, 133.697 83.662, 134.279 85.557 C 135.210 88.591, 134.882 90.150, 131.534 98.610 C 129.409 103.979, 128.139 108.499, 128.654 108.858 C 141.146 117.550, 141.927 117.965, 144.749 117.400 C 147.898 116.770, 155 119.229, 155 120.949 C 155 121.527, 153.988 122.016, 152.750 122.036 C 150.584 122.071, 150.607 122.159, 153.359 124.410 C 156.340 126.848, 162.203 129, 165.866 129 C 167.040 129, 168 129.434, 168 129.965 C 168 131.690, 164.238 133, 159.285 133 C 155.362 133, 152.347 131.927, 143.469 127.370 C 126.389 118.603, 116.842 112.707, 115.701 110.224 C 115.126 108.972, 114.170 108.118, 113.578 108.326 C 111.550 109.037, 113.080 119.326, 116.502 128 C 118.347 132.675, 120.163 138.188, 120.539 140.250 L 121.223 144 156.611 144 L 192 144 192 128.700 C 192 120.285, 191.607 112.972, 191.128 112.450 C 190.001 111.223, 186.903 98.287, 186.791 94.343 C 186.743 92.674, 187.535 89.903, 188.550 88.185 C 189.565 86.467, 190.194 84.917, 189.947 84.740 C 189.701 84.564, 187.843 83.200, 185.817 81.710 C 181.352 78.425, 180.827 78.359, 181.882 81.209 C 182.739 83.527, 178.277 103, 176.889 103 C 176.492 103, 175.199 98.877, 174.016 93.838 C 171.856 84.638, 171.969 80.837, 174.488 78 C 176.395 75.852, 176.601 73.827, 175.175 71.250 C 173.683 68.554, 173.521 68.549, 168.750 71.068 M 64.855 84.265 C 66.677 87.214, 66.792 88.397, 66.042 96.515 C 65.585 101.457, 65.396 105.695, 65.622 105.933 C 66.657 107.025, 68.492 103.490, 70 97.501 C 71.370 92.059, 71.422 90.766, 70.312 89.844 C 69.464 89.140, 69.313 88.326, 69.899 87.617 C 70.407 87.003, 70.585 85.263, 70.295 83.750 C 69.840 81.381, 69.287 81, 66.302 81 L 62.837 81 64.855 84.265 M 123.845 81.713 C 122.075 82.138, 120.532 86.434, 121.555 88.090 C 121.895 88.639, 121.654 89.712, 121.020 90.476 C 120.177 91.491, 120.153 92.888, 120.929 95.682 C 121.512 97.782, 121.991 100.689, 121.994 102.143 C 121.999 104.286, 123.537 106, 125.456 106 C 125.617 106, 125.520 101.991, 125.241 97.092 C 124.787 89.129, 124.959 87.866, 126.867 85.187 C 128.040 83.540, 129 82.019, 129 81.808 C 129 81.285, 125.867 81.227, 123.845 81.713" stroke="none" fill="black" fill-rule="evenodd"/>
</svg>