<svg xmlns="http://www.w3.org/2000/svg" width="192" height="144" viewBox="0 0 192 144" version="1.1">
	<path d="M 0 72 L 0 144 31.200 144 C 55.467 144, 62.133 143.733, 61.200 142.800 C 60.540 142.140, 60 140.569, 60 139.308 C 60 138.048, 59.132 136.475, 58.070 135.812 C 56.551 134.863, 56.357 134.201, 57.160 132.701 C 57.721 131.653, 57.943 129.891, 57.654 128.786 C 56.980 126.208, 64.429 118.029, 71.730 113.330 C 77.755 109.453, 83.397 103.975, 90.500 95.107 C 95.722 88.588, 96.813 86.661, 96.930 83.750 C 96.985 82.367, 96.172 82, 93.059 82 C 87.795 82, 87.248 80.641, 91.501 78.132 C 94.468 76.381, 95 75.521, 95 72.472 C 95 70.494, 94.273 66.654, 93.385 63.938 C 91.940 59.519, 91.929 58.758, 93.279 56.697 C 94.711 54.511, 94.638 54.328, 91.826 53.083 C 88.609 51.659, 86.162 47.136, 87.995 46.003 C 88.585 45.638, 88.814 44.678, 88.504 43.870 C 88.128 42.890, 89.087 41.852, 91.378 40.760 C 93.269 39.858, 95.593 37.804, 96.544 36.196 C 98.680 32.579, 102.893 29.999, 106.654 30.004 C 113.197 30.012, 120.049 37.684, 118.616 43.394 C 118.256 44.828, 117.313 46, 116.520 46 C 115.726 46, 113.208 47.888, 110.922 50.197 L 106.767 54.393 108.952 56.162 C 111.581 58.291, 116.004 66.709, 115.960 69.500 C 115.943 70.600, 115.286 72.625, 114.500 74 C 112.399 77.676, 112.673 78.769, 115.874 79.472 C 117.455 79.820, 119.818 81.253, 121.124 82.658 C 123.681 85.407, 127.581 87.394, 130 87.180 C 130.825 87.107, 132.722 88.821, 134.216 90.990 C 135.923 93.466, 138.897 95.901, 142.216 97.538 C 147.260 100.025, 163.694 115.691, 166.230 120.429 C 167.187 122.217, 167.008 122.197, 163.883 120.160 C 162.022 118.947, 156.933 116.074, 152.573 113.774 C 147.655 111.180, 142.223 107.205, 138.259 103.300 C 134.746 99.838, 130.663 96.723, 129.186 96.378 C 127.709 96.032, 125.723 94.794, 124.772 93.625 C 123.765 92.386, 123.035 92.041, 123.022 92.798 C 123.010 93.512, 124.196 95.203, 125.657 96.558 C 127.118 97.912, 128.063 99.270, 127.758 99.576 C 126.743 100.591, 118.536 97.854, 116.254 95.740 C 115.019 94.595, 113.801 93.866, 113.548 94.118 C 113.296 94.371, 113.704 98.610, 114.456 103.539 C 115.207 108.468, 116.391 119.593, 117.086 128.262 L 118.349 144.024 155.425 143.762 L 192.500 143.500 192.757 71.750 L 193.013 0 96.507 0 L 0 0 0 72 M 0.474 72.500 C 0.474 112.100, 0.598 128.154, 0.750 108.176 C 0.901 88.198, 0.901 55.798, 0.750 36.176 C 0.598 16.554, 0.474 32.900, 0.474 72.500 M 3 10 C 3.589 11.100, 4.799 12, 5.690 12 C 7.120 12, 7.098 11.765, 5.500 10 C 4.505 8.900, 3.294 8, 2.810 8 C 2.326 8, 2.411 8.900, 3 10 M 87.015 12.750 C 87.024 13.162, 87.467 14.175, 88 15 C 88.784 16.213, 88.972 16.069, 88.985 14.250 C 88.993 13.012, 88.550 12, 88 12 C 87.450 12, 87.007 12.338, 87.015 12.750 M 82 29 C 82 29.550, 82.702 30, 83.559 30 C 84.416 30, 84.840 29.550, 84.500 29 C 84.160 28.450, 83.459 28, 82.941 28 C 82.423 28, 82 28.450, 82 29 M 36 69.059 C 36 69.641, 36.450 69.840, 37 69.500 C 37.550 69.160, 38 68.684, 38 68.441 C 38 68.198, 37.550 68, 37 68 C 36.450 68, 36 68.477, 36 69.059 M 62.583 73.643 C 61.746 75.825, 62.858 76.839, 64.039 74.971 C 65.222 73.101, 65.247 72, 64.107 72 C 63.616 72, 62.930 72.739, 62.583 73.643 M 118 88 C 118 88.550, 118.675 89, 119.500 89 C 120.325 89, 121 88.550, 121 88 C 121 87.450, 120.325 87, 119.500 87 C 118.675 87, 118 87.450, 118 88 M 45.079 97.583 C 45.127 98.748, 45.364 98.985, 45.683 98.188 C 45.972 97.466, 45.936 96.603, 45.604 96.271 C 45.272 95.939, 45.036 96.529, 45.079 97.583 M 7.813 104.683 C 8.534 104.972, 9.397 104.936, 9.729 104.604 C 10.061 104.272, 9.471 104.036, 8.417 104.079 C 7.252 104.127, 7.015 104.364, 7.813 104.683 M 123 109.941 C 123 110.459, 123.445 111.157, 123.989 111.493 C 124.555 111.843, 124.723 111.442, 124.382 110.552 C 123.717 108.820, 123 108.503, 123 109.941 M 175.262 133.690 C 176.192 134.620, 177.233 135.100, 177.576 134.757 C 178.561 133.773, 177.050 132, 175.227 132 C 173.700 132, 173.703 132.132, 175.262 133.690" stroke="none" fill="black" fill-rule="evenodd"/>
</svg>