<svg xmlns="http://www.w3.org/2000/svg" width="192" height="144" viewBox="0 0 192 144" version="1.1">
	<path d="M 76.558 4.250 C 78.476 15.355, 76.385 28.165, 70.747 39.866 C 65.966 49.788, 51.080 64, 45.470 64 C 44.661 64, 44 64.363, 44 64.808 C 44 66.152, 36.598 68.983, 28.830 70.608 C 20.898 72.268, 10.542 71.813, 3.750 69.507 L 0 68.234 0 106.117 L 0 144 86 144 L 172 144 172 139.696 C 172 137.329, 173.580 130.571, 175.511 124.678 C 179.949 111.131, 183.216 95.708, 183.740 85.825 C 184.110 78.858, 183.956 78.047, 182.074 77.039 C 179.460 75.641, 179.435 72.439, 182.004 68.226 C 183.102 66.425, 184 64.118, 184 63.098 C 184 62.079, 184.675 60.685, 185.500 60 C 187.635 58.228, 187.364 57.089, 184.552 56.020 C 183.206 55.508, 181.354 53.944, 180.437 52.545 C 179.520 51.145, 177.977 50, 177.007 50 C 174.352 50, 172.677 47.364, 173.313 44.185 C 173.760 41.950, 173.263 40.797, 170.878 38.547 C 166.446 34.364, 168.186 33.500, 181.047 33.500 L 191.997 33.500 191.999 16.750 L 192 0 133.912 0 L 75.824 0 76.558 4.250" stroke="none" fill="black" fill-rule="evenodd"/>
</svg>