<svg xmlns="http://www.w3.org/2000/svg" width="192" height="144" viewBox="0 0 192 144" version="1.1">
	<path d="M 0 72 L 0 144 9.107 144 C 17.394 144, 18.148 143.842, 17.478 142.250 C 17.074 141.287, 16.504 139.389, 16.213 138.032 C 15.922 136.675, 14.857 134.875, 13.847 134.032 C 12.261 132.709, 12.184 132.160, 13.279 130 C 14.866 126.870, 18.835 126.292, 24.395 128.382 C 26.653 129.231, 30.666 130.400, 33.314 130.981 C 36.066 131.585, 39.224 133.134, 40.687 134.596 C 42.528 136.437, 43.899 136.991, 45.573 136.571 C 47.356 136.124, 48.904 136.920, 52.200 139.981 C 56.034 143.542, 57.049 143.976, 61.566 143.988 L 66.632 144 67.760 134.250 C 69.097 122.695, 68.409 112, 66.330 112 C 65.564 112, 64.678 112.675, 64.362 113.500 C 63.918 114.655, 62.002 115, 56.028 115 C 49.910 115, 47.757 115.403, 45.845 116.907 C 43.108 119.060, 34 120.833, 34 119.213 C 34 118.655, 32.313 117.801, 30.250 117.316 C 27.482 116.664, 26.416 115.852, 26.180 114.216 C 25.991 112.899, 26.396 111.984, 27.180 111.961 C 27.906 111.939, 26.973 111.259, 25.106 110.448 C 21.112 108.715, 18.318 105.664, 15.332 99.776 C 10.745 90.732, 10.094 88.173, 9.138 75.435 C 8.258 63.709, 7.824 61.714, 4.900 55.959 C 0.554 47.408, 0.049 40.283, 3.499 36.184 C 4.831 34.600, 6.343 31.427, 6.859 29.132 C 7.375 26.837, 8.577 23.768, 9.531 22.313 C 10.984 20.095, 11.146 18.435, 10.528 12.083 C 10.123 7.912, 9.748 3.488, 9.695 2.250 C 9.610 0.242, 9.083 0, 4.800 0 L 0 0 0 72 M 22 1.941 C 22 3.009, 22.509 4.196, 23.131 4.581 C 23.900 5.056, 24.059 7.552, 23.629 12.390 C 23.200 17.210, 23.314 19.017, 23.983 18 C 24.822 16.724, 24.972 16.716, 24.985 17.950 C 24.996 19.022, 25.293 19.107, 26.122 18.278 C 27.308 17.092, 30.046 17.675, 31.167 19.353 C 31.535 19.902, 31.583 16.672, 31.275 12.175 C 30.878 6.384, 31.047 4, 31.857 4 C 32.486 4, 33 3.100, 33 2 C 33 0.242, 32.333 0, 27.500 0 C 22.722 0, 22 0.255, 22 1.941 M 77 2.611 C 77 5.050, 77.229 5.180, 80.474 4.571 C 82.940 4.108, 84.703 4.415, 86.554 5.628 C 89.148 7.327, 89.158 7.382, 88.463 16.655 C 87.546 28.884, 88.589 38.589, 91.089 41.089 C 93.581 43.581, 94.636 43.501, 95.351 40.767 C 96.221 37.439, 98.027 39.835, 98.494 44.938 C 98.803 48.310, 98.589 49.056, 97.441 48.616 C 96.331 48.190, 96 49.003, 96 52.156 C 96 56.144, 95.925 56.235, 93.087 55.667 C 90.205 55.091, 87.258 56.963, 88.304 58.706 C 88.566 59.143, 88.451 61.638, 88.049 64.250 C 87.362 68.709, 87.453 69, 89.536 69 C 92.358 69, 93.568 67.450, 94.415 62.750 C 95.078 59.070, 95.175 59, 99.604 59 C 102.762 59, 103.904 59.347, 103.405 60.155 C 102.954 60.884, 103.131 61.037, 103.886 60.570 C 104.569 60.148, 104.805 58.960, 104.436 57.798 C 103.975 56.346, 104.178 55.893, 105.145 56.218 C 105.890 56.468, 106.507 57.360, 106.515 58.201 C 106.541 60.801, 109.110 63, 112.122 63 C 114.598 63, 114.998 62.616, 114.986 60.250 C 114.962 55.426, 113.915 52.825, 112.477 54.019 C 110.637 55.546, 103.598 52.283, 101.662 49.005 C 99.404 45.182, 100.153 42.674, 103.872 41.608 C 106.470 40.863, 107.299 41.027, 108.376 42.500 C 110.776 45.782, 111.828 43.324, 111.480 35.248 C 111.296 30.987, 110.978 26.568, 110.772 25.429 C 110.005 21.184, 106.779 15.866, 104.428 14.973 C 103.093 14.465, 102 13.588, 102 13.025 C 102 12.461, 101.148 12, 100.107 12 C 97.964 12, 97 10.139, 97 6 C 97 0.234, 96.586 0, 86.393 0 L 77 0 77 2.611 M 108.393 1.582 C 108.727 2.452, 109 3.352, 109 3.582 C 109 4.844, 111.700 3.710, 112.768 2 C 113.917 0.161, 113.767 0, 110.901 0 C 108.471 0, 107.920 0.348, 108.393 1.582 M 174 1.893 C 174 2.934, 174.675 4.045, 175.500 4.362 C 176.650 4.803, 177 6.697, 177 12.469 C 177 16.611, 177.420 20, 177.933 20 C 178.446 20, 179.186 21.011, 179.578 22.246 C 179.970 23.482, 180.968 24.987, 181.796 25.592 C 184.040 27.233, 183.853 42.200, 181.512 48.331 C 179.629 53.261, 179.889 62.289, 181.973 64.373 C 183.255 65.655, 183.324 72.270, 182.068 73.550 C 181.556 74.073, 180.716 78.371, 180.201 83.102 C 178.842 95.594, 173.105 105.971, 162.744 114.677 C 156.921 119.570, 155.437 120.127, 150.114 119.421 C 145.608 118.823, 144.633 119.043, 141.632 121.331 C 136.548 125.209, 133.304 125.462, 130.482 122.200 C 129.197 120.715, 127.877 118.088, 127.548 116.362 C 126.976 113.353, 122.685 108, 120.845 108 C 120.359 108, 120.198 109.013, 120.487 110.250 C 120.776 111.487, 121.192 117.675, 121.411 124 C 121.631 130.325, 122.135 137.412, 122.533 139.750 C 123.228 143.839, 123.393 143.999, 126.878 143.985 C 131.076 143.967, 131.919 143.486, 134.296 139.750 C 135.676 137.581, 136.809 137, 139.655 137 C 141.640 137, 144.667 136.147, 146.382 135.105 C 149.582 133.160, 155.968 131.981, 165.733 131.531 C 170.039 131.333, 171.691 131.691, 173.138 133.138 C 175.615 135.615, 175.543 139.045, 173 139.710 C 171.893 140, 171 141.074, 171 142.117 C 171 143.842, 171.883 144, 181.500 144 L 192 144 192 72 L 192 0 183 0 C 174.836 0, 174 0.176, 174 1.893 M 102 85.059 C 102 85.641, 102.450 85.840, 103 85.500 C 103.550 85.160, 104 84.684, 104 84.441 C 104 84.198, 103.550 84, 103 84 C 102.450 84, 102 84.477, 102 85.059" stroke="none" fill="black" fill-rule="evenodd"/>
</svg>