<svg xmlns="http://www.w3.org/2000/svg" width="192" height="144" viewBox="0 0 192 144" version="1.1">
	<path d="M -0 72.005 L -0 144.010 96.250 143.755 L 192.500 143.500 192.757 71.750 L 193.013 0 96.507 0 L 0 0 -0 72.005 M 0.474 72.500 C 0.474 112.100, 0.598 128.154, 0.750 108.176 C 0.901 88.198, 0.901 55.798, 0.750 36.176 C 0.598 16.554, 0.474 32.900, 0.474 72.500 M 95.180 58.565 C 91.705 59.336, 86.877 60.846, 84.451 61.918 C 79.049 64.308, 67.288 72.593, 66.072 74.866 C 65.019 76.833, 66.435 79.106, 69.845 80.923 C 71.814 81.972, 72.092 82.697, 71.576 85.448 C 70.686 90.189, 72.419 91.147, 81.452 90.908 C 90.109 90.679, 95.053 88.606, 103.500 81.665 C 115.180 72.066, 121 65.571, 121 62.132 C 121 60.677, 113.218 58.180, 107 57.639 C 103.975 57.376, 98.656 57.793, 95.180 58.565" stroke="none" fill="black" fill-rule="evenodd"/>
</svg>