<svg xmlns="http://www.w3.org/2000/svg" width="192" height="144" viewBox="0 0 192 144" version="1.1">
	<path d="M 63.755 4.805 C 65.435 22.287, 53.628 44.814, 38.750 52.514 C 36.688 53.581, 35 54.751, 35 55.114 C 35 55.476, 33.763 56.010, 32.250 56.301 C 30.738 56.591, 26.125 57.589, 22 58.519 C 14.802 60.142, 5.855 60.127, 1.750 58.486 C 0.100 57.826, 0 60.239, 0 100.893 L 0 144 57.893 144 C 122.541 144, 116.999 144.687, 117.001 136.668 C 117.002 134.376, 118.074 128, 119.384 122.500 C 122.759 108.326, 125.448 90.426, 125.148 84.136 C 124.976 80.540, 124.189 77.822, 122.759 75.888 L 120.627 73.004 124.884 64.872 L 129.141 56.741 125.958 53.457 C 124.152 51.593, 123.083 49.674, 123.488 49.019 C 123.916 48.327, 123.374 47.649, 122.134 47.325 C 119.613 46.665, 118.634 43.944, 119.500 40.002 C 119.930 38.040, 119.620 36.295, 118.574 34.802 C 116.048 31.196, 116.595 29.996, 120.750 30.035 C 126.303 30.087, 136.176 32.414, 139.171 34.377 C 141.528 35.921, 146 44.172, 146 46.976 C 146 47.584, 146.884 49.300, 147.965 50.790 C 149.046 52.281, 150.390 55.601, 150.952 58.169 C 151.513 60.738, 152.896 64.405, 154.026 66.319 C 155.155 68.233, 156.523 72.656, 157.065 76.149 C 157.608 79.642, 158.972 84.681, 160.095 87.346 C 161.770 91.320, 162.016 93.341, 161.456 98.568 C 160.708 105.547, 158.664 108.783, 157.624 104.637 C 157.258 103.178, 156.345 102.275, 155.323 102.360 C 154.115 102.460, 153.093 100.921, 151.766 97 C 148.446 87.197, 142.629 72.526, 141.655 71.500 C 141.044 70.857, 140.918 71.106, 141.302 72.199 C 141.630 73.133, 141.200 75.295, 140.348 77.004 C 138.290 81.130, 139.258 85.980, 143.542 92.998 C 145.389 96.024, 148.281 102.325, 149.969 107 C 151.656 111.675, 155.670 120.225, 158.887 126 C 162.104 131.775, 165.341 138.200, 166.079 140.278 L 167.422 144.057 179.961 143.778 L 192.500 143.500 192.825 129 C 193.003 121.025, 192.837 88.737, 192.455 57.250 L 191.761 0 127.527 -0 L 63.294 -0 63.755 4.805 M 0.459 101 C 0.459 124.925, 0.589 134.713, 0.749 122.750 C 0.908 110.788, 0.908 91.213, 0.749 79.250 C 0.589 67.288, 0.459 77.075, 0.459 101" stroke="none" fill="black" fill-rule="evenodd"/>
</svg>