<svg xmlns="http://www.w3.org/2000/svg" width="192" height="144" viewBox="0 0 192 144" version="1.1">
	<path d="M 0 57 L 0 114 3.250 113.986 C 10.609 113.955, 11 113.525, 11 105.465 C 11 96.369, 11.426 95.267, 15.621 93.514 C 18.495 92.313, 19 91.607, 19 88.792 C 19 86.544, 19.654 85.073, 21.037 84.209 C 22.157 83.510, 23.003 82.389, 22.918 81.719 C 22.597 79.199, 23.033 77.902, 24 78.500 C 24.550 78.840, 25 80.393, 25 81.952 C 25 83.549, 25.655 85.037, 26.500 85.362 C 27.447 85.725, 28 87.258, 28 89.521 C 28 92.592, 28.423 93.251, 30.959 94.136 C 34.658 95.425, 35.445 97.728, 35.096 106.250 L 34.820 113 37.910 113 C 40.863 113, 41 112.817, 41 108.886 C 41 104.937, 44.448 97, 46.164 97 C 47.557 97, 51 104.804, 51 107.960 C 51 110.425, 51.425 111.013, 53.250 111.070 C 54.487 111.108, 60.558 111.469, 66.739 111.872 C 77.294 112.560, 78.162 112.781, 80.989 115.490 L 84 118.374 84 110.091 C 84 104.062, 84.467 101.019, 85.716 98.904 C 87.952 95.119, 89.137 95.241, 91.426 99.493 C 93.164 102.720, 93.254 104.544, 92.608 123.493 L 91.910 144 141.795 144 L 191.681 144 192.338 120.750 C 192.700 107.963, 192.996 75.563, 192.998 48.750 L 193 0 96.500 0 L 0 0 0 57 M 0.468 57.500 C 0.468 88.850, 0.595 101.530, 0.750 85.679 C 0.904 69.827, 0.904 44.177, 0.749 28.679 C 0.594 13.180, 0.468 26.150, 0.468 57.500 M 115.894 36.456 C 114.772 38.356, 112.987 40.187, 111.927 40.523 C 110.867 40.859, 110 41.524, 110 42 C 110 42.476, 109.055 43.165, 107.899 43.532 C 105.240 44.376, 106.589 45.747, 110.500 46.173 C 113.476 46.497, 113.500 46.550, 113.500 52.700 C 113.500 56.326, 114.020 59.420, 114.750 60.150 C 115.438 60.838, 116 62.857, 116 64.638 C 116 67.333, 115.241 68.421, 111.467 71.131 C 108.677 73.135, 107.139 74.920, 107.467 75.775 C 107.760 76.539, 108 77.524, 108 77.965 C 108 78.889, 111.884 80.294, 113.784 80.057 C 114.490 79.969, 115.547 81.270, 116.132 82.948 C 117.786 87.693, 119.129 86.849, 121.439 79.614 C 122.006 77.839, 122.151 77.827, 123.906 79.415 C 124.931 80.343, 126.036 82.429, 126.360 84.051 C 127.065 87.576, 131 88.381, 131 85 C 131 82.431, 132.458 82.458, 135.074 85.074 C 137.093 87.093, 137.162 87.097, 137.653 85.220 C 138.013 83.841, 138.887 83.372, 140.722 83.574 C 143.280 83.855, 146.461 81.795, 145.286 80.619 C 144.945 80.279, 145.754 79.993, 147.083 79.985 C 148.441 79.976, 149.021 79.647, 148.407 79.235 C 146.723 78.102, 145.858 72.231, 147.289 71.646 C 148.197 71.276, 148.159 70.913, 147.137 70.197 C 145.986 69.391, 145.986 69.158, 147.137 68.700 C 148.224 68.268, 148.203 68.142, 147.032 68.079 C 146.224 68.036, 144.551 66.821, 143.313 65.381 C 141.696 63.499, 139.780 62.617, 136.506 62.248 C 131.708 61.707, 131.699 61.686, 133.788 56.135 C 134.176 55.105, 133.711 54.948, 131.901 55.497 C 130.581 55.897, 129.073 56.624, 128.550 57.112 C 126.902 58.652, 126 58.084, 126 55.508 C 126 54.100, 126.869 52.474, 128 51.768 C 129.100 51.081, 130 49.782, 130 48.882 C 130 47.982, 130.675 46.685, 131.500 46 C 133.803 44.089, 133.326 43.276, 129.350 42.336 C 125.516 41.429, 124.491 40.266, 123.541 35.750 C 122.663 31.578, 118.547 31.958, 115.894 36.456" stroke="none" fill="black" fill-rule="evenodd"/>
</svg>