<svg xmlns="http://www.w3.org/2000/svg" width="192" height="144" viewBox="0 0 192 144" version="1.1">
	<path d="M 115.289 12.767 C 116.806 14.443, 116.508 14.514, 109.453 14.158 C 102.063 13.785, 101.996 13.804, 98.446 17.354 C 95.645 20.155, 94.296 20.820, 92.188 20.435 C 90.709 20.166, 88.872 20.363, 88.104 20.872 C 86.211 22.128, 87.466 25, 89.909 25 C 91.742 25, 91.780 25.195, 90.447 27.750 C 88.429 31.618, 88.672 33.021, 92.041 36.962 C 94.406 39.729, 95 41.365, 95 45.107 L 95 49.790 90.750 50.228 C 87.221 50.592, 85.882 50.186, 82.856 47.833 C 78.308 44.297, 76.976 44.303, 69.379 47.897 C 60.395 52.147, 57.784 57.042, 61.834 62.043 C 64.104 64.846, 72.883 65.853, 79.327 64.048 L 83.621 62.846 88.298 67.457 C 91.822 70.931, 92.777 72.491, 92.171 73.784 C 91.730 74.728, 89.970 78.272, 88.260 81.659 C 86.551 85.047, 85.425 88.092, 85.759 88.426 C 86.093 88.760, 86.954 87.637, 87.672 85.929 C 88.394 84.212, 89.540 83.018, 90.238 83.256 C 91.650 83.738, 91.779 87.796, 90.644 96 C 90.122 99.778, 90.198 101.039, 90.888 100.028 C 91.772 98.732, 91.949 98.732, 92.369 100.028 C 93.824 104.528, 93.905 121.320, 92.515 130.413 C 91.682 135.865, 91 141.152, 91 142.163 C 91 143.890, 92.319 144, 113.079 144 L 135.159 144 134.609 141.250 C 133.816 137.287, 129.255 106.497, 128.499 100 C 128.147 96.975, 127.192 90.510, 126.378 85.634 C 125.564 80.758, 125.079 76.587, 125.300 76.366 C 125.522 76.145, 127.007 76.645, 128.601 77.476 C 132.391 79.452, 133.336 79.392, 135.468 77.035 C 137.336 74.971, 137.216 72.995, 134.874 67.229 C 133.479 63.793, 133.449 63.898, 137.709 57.340 C 139.031 55.304, 138.752 54.890, 132.820 50.090 C 129.360 47.291, 125.510 45, 124.264 45 C 121.042 45, 121.279 41.059, 124.722 37.396 C 126.219 35.803, 127.324 33.938, 127.178 33.250 C 127.032 32.563, 127.607 32, 128.456 32 C 130.998 32, 130.217 29.602, 126.500 26 C 124.411 23.976, 123 21.638, 123 20.204 C 123 17.675, 117.158 11, 114.945 11 C 114.068 11, 114.172 11.532, 115.289 12.767" stroke="none" fill="black" fill-rule="evenodd"/>
</svg>