<svg xmlns="http://www.w3.org/2000/svg" width="192" height="144" viewBox="0 0 192 144" version="1.1">
	<path d="M 0 72.022 L 0 144.044 18.546 143.772 L 37.091 143.500 39.379 137 C 42.142 129.147, 44.625 124.510, 50.525 116.186 C 53.177 112.443, 54.994 108.778, 54.985 107.186 C 54.972 105.011, 54.766 104.785, 53.903 106 C 53.139 107.074, 53.033 103.954, 53.528 95 C 53.909 88.125, 54.203 81.825, 54.183 81 C 54.162 80.175, 53.822 71.807, 53.426 62.405 C 52.629 43.497, 52.805 42.040, 56.546 36.528 C 59.776 31.768, 59.213 28.284, 54.955 26.677 C 51.805 25.488, 50.910 23, 53.632 23 C 55.595 23, 62 19.178, 62 18.006 C 62 17.550, 60.184 16.869, 57.965 16.494 C 54.033 15.830, 48 11.804, 48 9.844 C 48 9.306, 48.787 9.099, 49.750 9.385 C 50.712 9.671, 52.736 10.200, 54.247 10.560 L 56.993 11.215 54.247 5.669 L 51.500 0.124 25.750 0.062 L 0 0 0 72.022 M 59.620 5.750 C 62.174 8.912, 64.386 11.644, 64.536 11.821 C 64.685 11.997, 65.246 10.197, 65.782 7.821 C 66.318 5.444, 67.084 2.713, 67.485 1.750 C 68.136 0.186, 67.510 0, 61.595 0 L 54.977 0 59.620 5.750 M 70.786 5.250 C 70.562 8.138, 70.467 10.636, 70.576 10.803 C 70.684 10.970, 72.737 9.762, 75.137 8.118 C 78.614 5.737, 79.569 5.440, 79.841 6.654 C 80.253 8.500, 76.773 12.359, 72.083 15.258 L 68.631 17.391 71.566 18.265 C 73.179 18.746, 75.945 19.122, 77.711 19.101 C 81.922 19.052, 82.685 20.505, 79.532 22.571 C 75.632 25.126, 76.200 28.894, 80.983 32.201 C 87.795 36.911, 88.425 38.667, 88.593 53.413 C 88.675 60.611, 89.074 67.737, 89.480 69.250 C 90.238 72.078, 91.413 72.759, 92.500 71 C 93.302 69.702, 98.698 69.702, 99.500 71 C 101.858 74.816, 103.195 68.633, 103.543 52.292 C 103.768 41.765, 104.091 39.680, 105.895 37.148 C 107.890 34.346, 107.912 34.034, 106.377 30.359 C 104.371 25.559, 104.967 17.150, 107.754 10.915 L 109.728 6.500 109.233 15.088 C 108.654 25.139, 110.168 31.567, 112.850 30.449 C 120.592 27.223, 127.512 27.965, 132.463 32.554 C 135.030 34.933, 135.346 34.997, 137.019 33.483 C 138.008 32.588, 139.358 30.550, 140.019 28.954 C 141.097 26.352, 140.950 25.730, 138.604 22.941 C 135.489 19.240, 135.953 18, 140.452 18 C 144.020 18, 144.989 16.762, 145.015 12.168 C 145.027 10.078, 145.241 9.825, 146 11 C 146.533 11.825, 146.976 13.512, 146.985 14.750 C 146.996 16.439, 147.584 17, 149.345 17 C 150.635 17, 152.458 17.849, 153.397 18.886 C 155.020 20.680, 154.972 20.877, 152.414 22.889 C 149.898 24.868, 149.643 24.894, 148.468 23.288 C 147.353 21.762, 147.096 21.991, 146.169 25.350 C 145.595 27.429, 143.689 31.368, 141.933 34.105 L 138.740 39.081 138.580 75.622 C 138.389 119.474, 137.558 116.389, 150.643 120.438 C 158.620 122.906, 160.047 123.742, 165 128.839 C 168.317 132.253, 171.131 136.286, 172.090 139 L 173.681 143.500 182.840 143.788 L 192 144.075 192 72.038 L 192 0 131.597 0 L 71.193 0 70.786 5.250 M 90.079 76.583 C 90.127 77.748, 90.364 77.985, 90.683 77.188 C 90.972 76.466, 90.936 75.603, 90.604 75.271 C 90.272 74.939, 90.036 75.529, 90.079 76.583 M 101.079 77.583 C 101.127 78.748, 101.364 78.985, 101.683 78.188 C 101.972 77.466, 101.936 76.603, 101.604 76.271 C 101.272 75.939, 101.036 76.529, 101.079 77.583 M 93.934 96.750 C 93.263 98.813, 91.418 101.989, 89.835 103.810 C 87.123 106.928, 86.988 107.506, 87.494 113.810 C 87.850 118.251, 87.723 119.828, 87.116 118.500 C 86.415 116.967, 86.119 117.901, 85.847 122.500 L 85.494 128.500 84.124 124 L 82.755 119.500 81.528 124.266 C 79.704 131.350, 79.009 131.124, 78.918 123.417 L 78.837 116.500 77.326 119.970 C 75.613 123.904, 75.956 127.410, 79.030 137.361 L 81.080 144 97.898 144 L 114.715 144 115.358 137.853 C 116.323 128.620, 116.064 122.836, 114.536 119.500 C 113.209 116.603, 113.159 116.739, 113.051 123.500 C 112.929 131.140, 111.607 130.801, 110.100 122.744 C 109.310 118.518, 109.303 118.512, 108.582 121.500 C 106.937 128.311, 106.138 128.620, 105.997 122.500 C 105.896 118.096, 105.624 117.032, 104.974 118.500 C 104.372 119.861, 104.139 118.189, 104.245 113.263 C 104.387 106.634, 104.170 105.787, 101.662 103.170 C 100.157 101.598, 98.471 98.667, 97.916 96.656 C 96.630 91.999, 95.472 92.026, 93.934 96.750" stroke="none" fill="black" fill-rule="evenodd"/>
</svg>