<svg xmlns="http://www.w3.org/2000/svg" width="192" height="144" viewBox="0 0 192 144" version="1.1">
	<path d="M 104.095 9.402 C 101.283 12.304, 100.899 13.265, 101.488 15.944 C 102.089 18.679, 101.660 19.645, 98.165 23.437 C 91.906 30.227, 90.439 37.944, 94.079 44.927 C 95.808 48.245, 98.119 50.095, 101 50.466 C 103.049 50.730, 103.917 52.286, 102.987 54.025 C 102.133 55.620, 102.720 56.624, 106.602 60.214 C 111.892 65.107, 114.082 66.194, 116.089 64.924 C 118.157 63.615, 119 63.801, 119 65.567 C 119 67.389, 112.579 73.739, 110.279 74.192 C 109.419 74.361, 108.216 75.398, 107.607 76.496 C 106.998 77.593, 105.713 79.688, 104.750 81.150 C 103.787 82.612, 103 84.967, 103 86.383 C 103 87.799, 102.017 91.954, 100.814 95.616 L 98.629 102.273 96.033 96.887 C 93.120 90.843, 88.857 78.810, 89.427 78.240 C 89.631 78.035, 93.106 77.011, 97.149 75.964 L 104.500 74.059 95.722 74.584 C 90 74.926, 85.756 74.680, 83.533 73.876 C 80.394 72.741, 79.799 72.867, 76.043 75.470 C 73.800 77.025, 71.817 78.118, 71.638 77.899 C 71.459 77.679, 69.787 74.912, 67.923 71.750 C 64.782 66.422, 64.265 66, 60.889 66 C 54.620 66, 54.196 68.011, 58.896 75.453 C 61.153 79.027, 63 82.601, 63 83.395 C 63 85.326, 66.023 97.149, 66.951 98.847 C 67.356 99.587, 71.467 102.125, 76.085 104.486 C 82.390 107.708, 84.935 109.616, 86.296 112.139 C 87.293 113.988, 90.560 117.862, 93.555 120.749 C 96.550 123.636, 99 126.342, 99 126.764 C 99 127.185, 98.068 129.269, 96.928 131.395 C 95.053 134.894, 94.979 135.675, 96.146 139.630 L 97.437 144 122.718 144 C 136.623 144, 148 143.753, 148 143.450 C 148 141.970, 144.785 136.963, 143.059 135.754 C 140.809 134.178, 139.020 125.158, 139.008 115.332 C 138.999 108.259, 138.366 106, 136.393 106 C 135.627 106, 135 105.530, 135 104.955 C 135 104.297, 136.328 104.159, 138.580 104.581 C 141.897 105.203, 143.516 104.793, 149.236 101.883 C 150.191 101.397, 151.665 101, 152.511 101 C 153.357 101, 154.559 99.763, 155.182 98.250 C 156.077 96.078, 156.402 95.868, 156.731 97.250 C 156.959 98.213, 157.594 99, 158.141 99 C 158.687 99, 158.913 99.787, 158.642 100.750 C 158.371 101.712, 157.834 104.075, 157.450 106 L 156.750 109.500 158.973 107.507 L 161.196 105.513 160.483 110.266 C 160.004 113.458, 160.164 115.493, 160.971 116.465 C 161.632 117.261, 161.879 118.386, 161.522 118.965 C 161.164 119.544, 161.163 120.938, 161.520 122.062 C 162.037 123.693, 162.454 123.868, 163.583 122.931 C 164.769 121.946, 164.898 122.262, 164.374 124.878 C 163.770 127.900, 165.115 129.242, 166.500 127 C 167.781 124.927, 168.829 126.109, 168.067 128.766 C 167.526 130.652, 167.694 131.925, 168.595 132.766 C 170.430 134.480, 170.723 134.368, 172.532 131.250 C 173.409 129.738, 173.899 129.257, 173.621 130.182 C 173.342 131.108, 172.806 134.595, 172.428 137.932 L 171.742 144 181.871 144 L 192 144 191.950 110.250 L 191.900 76.500 186.051 73.731 C 179.843 70.792, 167.970 60.513, 163.927 54.577 C 162.592 52.617, 161.241 51.011, 160.925 51.007 C 160.609 51.003, 157.837 54.488, 154.766 58.750 C 148.170 67.904, 140.631 75.508, 139.093 74.558 C 138.492 74.186, 138 71.835, 138 69.333 C 138 64.979, 138.108 64.810, 140.500 65.411 C 142.856 66.002, 143 65.807, 143 62.019 C 143 59.809, 143.450 58, 144 58 C 144.550 58, 145 58.675, 145 59.500 C 145 60.325, 145.450 61, 146 61 C 146.969 61, 147.417 58.338, 147.052 54.750 C 146.954 53.788, 147.321 53, 147.867 53 C 149.091 53, 147.687 47.697, 145.634 44.564 C 144.845 43.360, 143.194 38.648, 141.965 34.093 C 140.020 26.887, 139.130 25.229, 135.115 21.334 C 130.401 16.761, 124.283 13, 121.559 13 C 120.722 13, 119.758 11.883, 119.415 10.518 C 118.968 8.735, 117.766 7.752, 115.146 7.024 C 109.338 5.411, 107.601 5.784, 104.095 9.402 M 133.606 68.416 C 133.941 69.287, 134.653 70, 135.190 70 C 136.505 70, 135.682 67.727, 134.187 67.229 C 133.456 66.985, 133.233 67.443, 133.606 68.416 M 77 86.893 C 77 87.384, 77.739 88.069, 78.641 88.416 C 80.014 88.943, 80.076 88.796, 79.019 87.523 C 77.579 85.788, 77 85.607, 77 86.893 M 134.070 117.191 C 134.180 125.512, 135.845 127.856, 135.930 119.809 C 135.968 116.129, 135.550 112.840, 135 112.500 C 134.378 112.116, 134.027 113.890, 134.070 117.191" stroke="none" fill="black" fill-rule="evenodd"/>
</svg>