<svg xmlns="http://www.w3.org/2000/svg" width="192" height="144" viewBox="0 0 192 144" version="1.1">
	<path d="M 97 7.668 C 97 20.725, 95.374 27.170, 90.007 35.392 C 87.381 39.414, 84.213 43.655, 82.967 44.816 C 79.794 47.772, 69.140 55, 67.955 55 C 67.415 55, 66.191 55.408, 65.236 55.908 C 61.223 58.006, 52.382 60, 47.095 60 C 34.938 60, 20.521 54.211, 11.750 45.808 C 8.588 42.779, 6 39.782, 6 39.150 C 6 38.517, 5.605 38, 5.121 38 C 4.638 38, 3.683 36.650, 3 35 C 2.317 33.350, 1.362 32, 0.879 32 C 0.384 32, 0 56.488, 0 88 L 0 144 92.392 144 L 184.783 144 185.418 141.473 C 185.766 140.082, 187.278 136.370, 188.776 133.223 L 191.500 127.500 192.067 135.500 C 192.885 147.057, 193.118 50.829, 192.338 23.250 L 191.681 0 144.340 0 L 97 0 97 7.668 M 0.468 88 C 0.468 119.075, 0.594 131.788, 0.749 116.250 C 0.904 100.713, 0.904 75.288, 0.749 59.750 C 0.594 44.213, 0.468 56.925, 0.468 88" stroke="none" fill="black" fill-rule="evenodd"/>
</svg>