<svg xmlns="http://www.w3.org/2000/svg" width="192" height="144" viewBox="0 0 192 144" version="1.1">
	<path d="M 80.251 5.813 C 75.867 6.236, 74.701 8.719, 75.560 15.806 C 76.516 23.690, 77.430 25.181, 80.789 24.338 L 83.498 23.658 80.661 27.378 C 77.654 31.320, 77.714 34, 80.809 34 C 82.145 34, 83.041 35.214, 83.944 38.250 C 84.639 40.587, 85.611 43.534, 86.104 44.797 C 87.374 48.052, 87.224 49, 85.441 49 C 84.579 49, 84.181 49.483, 84.549 50.080 C 84.916 50.674, 83.649 52.595, 81.734 54.350 C 78.930 56.918, 78.111 58.560, 77.531 62.775 C 76.925 67.181, 76.430 68.105, 74.406 68.613 C 71.894 69.243, 71.616 70.163, 72.926 73.500 C 73.934 76.069, 71.298 83.802, 66.070 93.609 L 62.065 101.121 62.952 108.810 C 63.968 117.620, 65.665 125.743, 66.995 128.163 C 67.601 129.267, 67.251 132.124, 65.954 136.660 C 64.879 140.418, 64 143.608, 64 143.747 C 64 143.886, 77.500 144, 94 144 C 110.500 144, 124 143.638, 124 143.195 C 124 142.752, 121.594 136.565, 118.653 129.445 C 115.712 122.325, 112.974 114.721, 112.569 112.547 C 112.164 110.372, 111.032 106.997, 110.053 105.047 C 107.689 100.334, 106.645 87.755, 108.068 81.119 C 110.015 72.041, 111.441 75.363, 112.131 90.580 C 113.060 111.098, 117.504 123.014, 129.238 136.452 L 132.689 140.405 134.429 137.749 C 136.083 135.224, 136.082 134.808, 134.405 129.297 C 133.436 126.108, 132.740 121.723, 132.860 119.551 C 132.980 117.379, 132.572 114.382, 131.955 112.892 C 131.118 110.871, 131.127 109.631, 131.992 108.016 C 132.970 106.187, 132.581 104.655, 129.488 98.175 C 126.571 92.061, 125.652 88.675, 124.970 81.526 C 124.499 76.591, 124.309 72.357, 124.548 72.118 C 124.787 71.880, 124.587 71.193, 124.104 70.592 C 121.768 67.688, 117.826 55.618, 118.354 52.982 C 118.665 51.425, 118.433 47.530, 117.839 44.326 C 117.245 41.122, 116.789 37.375, 116.827 36 C 117.011 29.259, 117.202 28, 118.044 28 C 120.710 28, 126.478 13.761, 124.960 10.926 C 123.235 7.702, 107.870 6.974, 105.983 10.027 C 105.425 10.931, 104.728 10.925, 103.005 10.003 C 101.768 9.341, 99.461 9.058, 97.878 9.374 C 96.295 9.691, 95 9.559, 95 9.082 C 95 7.205, 86.154 5.244, 80.251 5.813 M 110.079 69.583 C 110.127 70.748, 110.364 70.985, 110.683 70.188 C 110.972 69.466, 110.936 68.603, 110.604 68.271 C 110.272 67.939, 110.036 68.529, 110.079 69.583" stroke="none" fill="black" fill-rule="evenodd"/>
</svg>