<svg xmlns="http://www.w3.org/2000/svg" width="192" height="144" viewBox="0 0 192 144" version="1.1">
	<path d="M 0 72 L 0 144 34.841 144 L 69.682 144 70.941 138.250 C 71.633 135.088, 73.966 127.777, 76.125 122.006 C 79.408 113.226, 79.943 110.775, 79.397 107.006 C 78.556 101.195, 78.270 100.785, 75.923 102.041 C 74.300 102.910, 73.821 102.698, 73.101 100.794 C 71.992 97.857, 72.632 96.829, 75.339 97.202 C 77.290 97.471, 77.466 97.112, 77.151 93.500 C 76.959 91.300, 76.617 89.308, 76.391 89.073 C 76.164 88.838, 74.722 89.850, 73.185 91.323 C 68.708 95.612, 64.726 94.774, 62.915 89.162 C 62.265 87.148, 60.444 83.565, 58.867 81.200 C 57.290 78.835, 55.997 75.910, 55.994 74.700 C 55.990 73.307, 54.890 71.875, 52.994 70.797 C 51.347 69.860, 50 68.419, 50 67.596 C 50 66.773, 49.212 65.655, 48.250 65.112 C 46.947 64.377, 46.789 63.833, 47.629 62.983 C 49.089 61.508, 57.508 62.702, 59.090 64.609 C 59.725 65.374, 61.024 66, 61.976 66 C 64.312 66, 68.999 70.468, 69.006 72.702 C 69.011 74.076, 69.319 73.910, 70.311 72 C 71.047 70.583, 71.427 67.602, 71.188 65.119 L 70.765 60.739 73.844 61.190 C 77.518 61.730, 78 60.846, 78 53.577 C 78 46.746, 79.831 32.150, 81.061 29.179 C 81.910 27.128, 81.788 26.932, 80.011 27.497 C 78.854 27.864, 78 27.682, 78 27.067 C 78 26.480, 76.861 26, 75.469 26 C 72.208 26, 71.826 24.795, 72.774 17.500 L 73.554 11.500 77.570 11.669 C 79.778 11.762, 84.065 12.972, 87.095 14.358 C 93.879 17.461, 97.573 17.468, 106.310 14.395 C 110.055 13.078, 114.442 12, 116.060 12 C 118.865 12, 119 12.200, 119 16.375 C 119 26.394, 116.388 29.883, 111.032 27.017 C 108.909 25.881, 108.901 25.908, 110.451 28.906 C 111.316 30.578, 112.237 34.996, 112.497 38.723 C 113.425 52.010, 114.250 60.511, 114.682 61.253 C 114.924 61.667, 115.970 61.551, 117.007 60.996 C 118.449 60.225, 119.111 60.375, 119.816 61.635 C 121.344 64.365, 120.087 67.163, 117.677 66.398 C 115.811 65.805, 115.874 66.061, 118.301 68.946 C 119.786 70.710, 121 72.992, 121 74.018 C 121 75.043, 121.450 76.160, 122 76.500 C 122.550 76.840, 123 76.215, 123 75.111 C 123 72.387, 127.235 68, 129.865 68 C 131.039 68, 132 67.834, 132 67.632 C 132 67.429, 129.923 65.187, 127.386 62.649 C 123.204 58.467, 122.831 57.713, 123.412 54.615 C 123.765 52.734, 123.640 49.351, 123.133 47.098 C 122.397 43.820, 122.492 43, 123.606 43 C 124.373 43, 125 42.354, 125 41.565 C 125 40.776, 125.464 38.910, 126.031 37.420 L 127.061 34.709 129.423 36.928 C 131.154 38.554, 131.903 38.793, 132.230 37.823 C 132.595 36.736, 132.971 36.745, 134.337 37.872 C 135.252 38.627, 136 39.865, 136 40.622 C 136 42.438, 136.943 42.362, 139.146 40.368 C 140.835 38.839, 141.017 38.913, 142.017 41.546 C 143.729 46.046, 140.873 60.823, 137.842 63.154 L 135.500 64.956 139.643 64.978 C 142.388 64.992, 143.980 65.506, 144.362 66.500 C 144.719 67.431, 144.356 68, 143.406 68 C 142.470 68, 141.996 68.719, 142.187 69.846 C 142.591 72.234, 140.278 75, 137.878 75 C 136.735 75, 136 75.706, 136 76.802 C 136 77.794, 134.071 82.406, 131.712 87.052 C 127.826 94.710, 127.130 95.529, 124.274 95.809 C 121.914 96.040, 121.045 96.667, 120.809 98.309 C 120.578 99.911, 119.889 100.436, 118.247 100.262 C 116.612 100.088, 116 100.549, 116 101.953 C 116 104.920, 114.177 105.365, 113.818 102.486 C 113.168 97.278, 111.533 99.607, 111.702 105.500 C 111.820 109.613, 112.959 114.330, 115.326 120.500 C 117.225 125.450, 119.819 132.768, 121.090 136.763 L 123.402 144.025 157.951 143.763 L 192.500 143.500 192.757 71.750 L 193.013 0 96.507 0 L 0 0 0 72 M 0.474 72.500 C 0.474 112.100, 0.598 128.154, 0.750 108.176 C 0.901 88.198, 0.901 55.798, 0.750 36.176 C 0.598 16.554, 0.474 32.900, 0.474 72.500 M 61.650 24.683 C 60.604 25.729, 60.902 29.502, 62.127 30.727 C 63.399 31.999, 62.497 37, 60.995 37 C 60.464 37, 59.519 34.975, 58.896 32.500 C 56.908 24.607, 54.988 27.566, 55.716 37.399 C 56.052 41.932, 55.765 43.602, 54.390 45.121 C 51.696 48.099, 52.228 52.238, 55.902 56.877 C 59.138 60.962, 61.002 61.644, 65.578 60.415 C 67.992 59.766, 70.595 53.243, 71.583 45.364 C 72.153 40.824, 71.953 39.955, 69.864 37.877 C 66.526 34.559, 65.004 31.396, 66.179 30.221 C 66.798 29.602, 66.276 28.321, 64.722 26.645 C 63.390 25.208, 62.008 24.325, 61.650 24.683 M 116 93.500 C 116 95.333, 116.533 96, 118 96 C 120.285 96, 120.404 95.623, 118.965 92.934 C 117.519 90.233, 116 90.523, 116 93.500 M 112.583 93.866 C 112.152 94.563, 112.070 95.403, 112.400 95.733 C 113.295 96.628, 114.271 95.312, 113.787 93.862 C 113.449 92.846, 113.213 92.846, 112.583 93.866" stroke="none" fill="black" fill-rule="evenodd"/>
</svg>