<svg xmlns="http://www.w3.org/2000/svg" width="192" height="144" viewBox="0 0 192 144" version="1.1">
	<path d="M 14.481 6.750 C 16.046 20.715, 16.672 28.524, 16.283 29.250 C 16.063 29.663, 15.064 30, 14.063 30 C 11.327 30, 10.225 32.078, 10.749 36.250 C 11.285 40.524, 14 41.568, 14 37.500 C 14 36.125, 14.480 35, 15.067 35 C 15.688 35, 15.863 35.857, 15.485 37.047 C 15.043 38.440, 15.679 40.201, 17.473 42.553 C 18.924 44.455, 19.871 46.400, 19.578 46.875 C 19.284 47.349, 17.122 48.044, 14.772 48.419 C 10.243 49.142, 6 51.381, 6 53.048 C 6 53.599, 7.137 54.482, 8.526 55.010 C 11.126 55.998, 13.197 57.482, 15.298 59.861 C 22.624 68.159, 22.908 68.250, 29.028 64.250 L 33.236 61.500 30.368 60.990 C 25.859 60.189, 26.534 56.951, 31.500 55.562 C 34.442 54.740, 35.585 53.855, 35.820 52.217 C 36.011 50.890, 35.506 49.748, 34.570 49.389 C 32.403 48.557, 32.606 46.666, 35.106 44.405 C 40.061 39.924, 43.005 28.707, 39.572 27.389 C 37.807 26.712, 29.493 34.944, 27.498 39.345 L 26.068 42.500 26.660 38.500 C 26.986 36.300, 27.846 32.730, 28.572 30.567 C 29.298 28.404, 29.673 26.280, 29.405 25.847 C 28.552 24.466, 32.106 18.709, 38.143 11.693 C 41.830 7.408, 44 3.981, 44 2.443 L 44 0 28.862 -0 L 13.724 -0 14.481 6.750 M 98.630 2.250 C 98.299 3.488, 98.021 35.888, 98.014 74.250 L 98 144 130.386 144 L 162.773 144 163.429 139.250 C 163.789 136.637, 164.588 132.135, 165.203 129.244 C 165.818 126.353, 166.066 123.732, 165.753 123.420 C 165.441 123.108, 163.781 123.579, 162.064 124.467 C 158.255 126.436, 157 125.802, 157 121.910 C 157 120.257, 156.366 118.694, 155.572 118.389 C 154.335 117.915, 154.335 117.301, 155.572 113.795 C 156.358 111.569, 157.001 109.018, 157.002 108.124 C 157.004 107.231, 158.804 103.852, 161.002 100.615 C 163.201 97.378, 165 93.982, 165 93.068 C 165 92.154, 166.688 89.768, 168.750 87.766 C 172.098 84.517, 172.873 84.204, 175.971 84.848 C 178.957 85.469, 179.567 86.100, 180.339 89.364 C 181.174 92.897, 181.016 93.341, 178.030 95.834 L 174.825 98.510 179.026 104.800 C 183.417 111.376, 185.284 112.166, 185.816 107.673 C 186.319 103.424, 187.572 104.547, 189.009 110.536 C 190.241 115.675, 190.193 116.267, 188.335 118.786 C 187.234 120.279, 184.925 122.400, 183.205 123.500 C 179.539 125.844, 179.364 127.507, 182 135 C 183.064 138.025, 183.949 141.287, 183.967 142.250 C 183.993 143.620, 184.870 144, 188 144 L 192 144 192 72 L 192 0 145.617 0 L 99.233 0 98.630 2.250 M 170.079 112.583 C 170.127 113.748, 170.364 113.985, 170.683 113.188 C 170.972 112.466, 170.936 111.603, 170.604 111.271 C 170.272 110.939, 170.036 111.529, 170.079 112.583" stroke="none" fill="black" fill-rule="evenodd"/>
</svg>