<svg xmlns="http://www.w3.org/2000/svg" width="192" height="144" viewBox="0 0 192 144" version="1.1">
	<path d="M 0 72 L 0 144 33 144 L 66 144 66 72 L 66 0 33 0 L 0 0 0 72 M 85.808 3.484 C 86.155 6.456, 85.851 7.106, 83.734 7.911 C 79.212 9.630, 79.136 15.083, 83.537 22.057 C 84.771 24.013, 87.176 28.964, 88.881 33.059 C 91.517 39.391, 91.865 41.177, 91.207 45.002 L 90.433 49.500 81.242 49.500 C 71.249 49.500, 69.547 50.415, 69.232 55.958 L 69.093 58.416 71.336 55.603 C 73.557 52.818, 73.657 52.797, 81.351 53.518 L 89.124 54.247 86.028 56.129 C 80.327 59.596, 81.099 62.992, 87.985 64.736 C 90.918 65.479, 91.644 66.243, 92.570 69.560 C 93.349 72.351, 94.285 73.591, 95.777 73.812 C 97.467 74.062, 98.118 73.339, 99.074 70.147 C 100.128 66.629, 100.753 66.048, 104.493 65.106 C 110.287 63.647, 111.873 61.625, 109.388 58.866 C 108.350 57.714, 106.375 56.302, 105 55.729 C 102.571 54.717, 102.614 54.665, 106.500 53.902 C 108.700 53.469, 112.565 53.089, 115.089 53.058 C 119.042 53.008, 119.837 53.347, 120.818 55.500 C 121.445 56.875, 122.472 58, 123.101 58 C 123.945 58, 123.952 57.648, 123.131 56.658 C 122.519 55.920, 122.255 55.078, 122.546 54.787 C 122.837 54.496, 122.510 53.018, 121.819 51.502 C 120.589 48.802, 120.429 48.758, 113.884 49.306 C 105.005 50.051, 102.689 49.408, 103.272 46.360 C 103.520 45.062, 103.351 44, 102.897 44 C 102.442 44, 101.613 43.145, 101.053 42.099 C 99.801 39.759, 104.044 29.843, 110.082 20.997 C 114.907 13.929, 114.718 10.616, 109.365 8.379 C 106.457 7.164, 106 6.499, 106 3.487 C 106 1.054, 105.547 0, 104.500 0 C 103.675 0, 102.993 0.788, 102.985 1.750 C 102.956 5.005, 101.468 6.321, 99.193 5.103 C 97.869 4.394, 96.284 4.322, 94.763 4.900 C 91.801 6.026, 89 4.593, 89 1.950 C 89 0.739, 88.318 0, 87.201 0 C 85.735 0, 85.477 0.646, 85.808 3.484 M 126 72 L 126 144 159 144 L 192 144 192 72 L 192 0 159 0 L 126 0 126 72" stroke="none" fill="black" fill-rule="evenodd"/>
</svg>