<svg xmlns="http://www.w3.org/2000/svg" width="192" height="144" viewBox="0 0 192 144" version="1.1">
	<path d="M 113.460 3.750 C 111.570 5.813, 110.367 7.616, 110.787 7.759 C 111.207 7.901, 111.379 9.819, 111.169 12.022 C 110.925 14.579, 111.368 16.913, 112.394 18.478 C 114.568 21.796, 114.413 23.659, 111.910 24.313 C 110.464 24.691, 109.982 25.420, 110.344 26.680 C 110.632 27.681, 111.140 30.750, 111.472 33.500 C 112.377 40.990, 112.863 42, 115.567 42 C 116.980 42, 117.895 42.524, 117.750 43.250 C 117.610 43.948, 118.272 44.370, 119.250 44.206 C 120.596 43.980, 121 44.611, 121 46.940 C 121 49.415, 119.343 51.641, 111.922 59.133 C 104.768 66.356, 102.963 68.743, 103.403 70.399 C 103.710 71.556, 102.777 75.530, 101.324 79.246 L 98.687 85.991 101.001 98.005 C 102.273 104.613, 103.097 110.236, 102.831 110.502 C 101.894 111.440, 91.666 113, 86.614 112.976 C 81.509 112.952, 74.348 111.681, 73.275 110.608 C 72.963 110.296, 72.322 107.669, 71.850 104.771 C 70.972 99.379, 71.999 95.457, 74.748 93.700 C 76.487 92.590, 76.231 88.166, 74.187 84 C 72.721 81.012, 72.033 80.545, 69.485 80.807 C 60.077 81.774, 57.946 84.124, 55.513 96.223 C 54.708 100.225, 53.106 106.875, 51.952 111 C 50.407 116.525, 49.988 120.212, 50.360 125 C 50.887 131.772, 53.299 139, 55.032 139 C 55.606 139, 55.768 140.075, 55.411 141.500 L 54.783 144 68.519 144 L 82.256 144 81.607 140.250 C 80.145 131.792, 79.314 132.494, 90.721 132.555 C 96.343 132.585, 101.267 132.934, 101.663 133.330 C 102.060 133.727, 101.926 136.290, 101.365 139.026 L 100.346 144 125.255 144 L 150.163 144 147.891 140.250 C 146.642 138.188, 144.130 134.256, 142.310 131.513 C 140.489 128.771, 139 125.486, 139 124.214 C 139 122.942, 138.388 120.686, 137.640 119.200 C 134.486 112.940, 134.749 97.140, 138.020 96.284 C 139.394 95.925, 139.645 95.006, 139.278 91.668 C 138.876 88.013, 139.200 87.139, 141.910 84.563 C 143.846 82.723, 145 82.152, 145 83.035 C 145 83.934, 145.535 83.682, 146.474 82.340 C 147.772 80.488, 147.773 79.317, 146.484 72.580 C 145.678 68.370, 144.739 63.809, 144.397 62.445 C 143.805 60.085, 143.910 60.015, 146.559 61.023 C 148.091 61.605, 149.909 61.865, 150.599 61.600 C 151.289 61.335, 152.392 61.767, 153.049 62.559 C 154.729 64.583, 156 64.350, 156 62.020 C 156 60.408, 156.559 60.104, 159 60.388 C 162.200 60.761, 162.619 60.024, 160.965 56.934 C 159.825 54.805, 160.931 54.331, 162.764 56.164 C 164.597 57.997, 163.017 50.085, 160.834 46.500 C 158.480 42.634, 158.527 39.672, 161.057 32.407 C 164.696 21.958, 163.054 8.797, 157.370 2.864 L 154.626 0 135.762 -0 L 116.898 -0 113.460 3.750" stroke="none" fill="black" fill-rule="evenodd"/>
</svg>