<svg xmlns="http://www.w3.org/2000/svg" width="192" height="144" viewBox="0 0 192 144" version="1.1">
	<path d="M -0 72.005 L -0 144.010 96.250 143.755 L 192.500 143.500 192.757 71.750 L 193.013 0 96.507 0 L 0 0 -0 72.005 M 0.474 72.500 C 0.474 112.100, 0.598 128.154, 0.750 108.176 C 0.901 88.198, 0.901 55.798, 0.750 36.176 C 0.598 16.554, 0.474 32.900, 0.474 72.500 M 92.610 31.038 C 90.038 33.296, 88.534 33.921, 86.751 33.474 C 85.195 33.083, 83.895 33.422, 83.053 34.436 C 81.264 36.592, 83.170 38.754, 87.592 39.583 C 90.526 40.134, 90.905 40.531, 90.404 42.528 C 89.980 44.216, 90.385 45.136, 91.912 45.953 C 94.889 47.546, 94.660 52.994, 91.399 58.160 L 88.798 62.280 80.649 61.640 C 76.167 61.289, 68.726 60.705, 64.114 60.342 C 57.145 59.794, 55.806 59.921, 56.192 61.091 C 56.448 61.866, 57.746 62.656, 59.078 62.846 C 60.410 63.036, 62.119 63.700, 62.875 64.322 C 63.631 64.944, 65.520 65.319, 67.073 65.156 C 68.625 64.993, 72.014 65.797, 74.602 66.942 C 79.611 69.158, 81.620 68.937, 78.427 66.521 C 76.676 65.197, 77.114 65.061, 83.211 65.032 C 88.727 65.006, 90.264 65.367, 91.844 67.062 C 93.372 68.703, 94.747 69.061, 98.566 68.812 C 102.973 68.526, 103.418 68.706, 103.981 71 C 104.464 72.972, 105.210 73.490, 107.513 73.453 C 109.768 73.416, 110.564 72.847, 111.013 70.953 C 111.454 69.093, 112.187 68.548, 114.047 68.699 C 118.028 69.021, 131.276 71.919, 134.206 73.108 C 136.383 73.991, 137.706 73.843, 140.966 72.353 C 146.923 69.629, 147.206 66.971, 142.085 61.850 L 137.950 57.715 130.337 58.291 C 124.676 58.719, 122.380 58.523, 121.382 57.525 C 120.644 56.786, 118.231 55.877, 116.020 55.503 C 112.402 54.892, 112 54.533, 112 51.912 C 112 49.652, 111.545 49, 109.969 49 C 108.851 49, 107.654 49.738, 107.308 50.640 C 106.739 52.122, 106.549 52.104, 105.339 50.449 C 103.216 47.546, 103.707 47, 108.441 47 C 113.874 47, 114.828 45.797, 111.482 43.164 C 110.086 42.066, 109.069 40.638, 109.222 39.991 C 109.531 38.684, 107.882 37.489, 103.750 36.024 C 99.572 34.543, 100.294 32.782, 104.750 33.587 L 108.500 34.264 106 32.281 C 99.538 27.156, 97.271 26.945, 92.610 31.038 M 95.191 56.401 C 91.694 62.327, 92.702 64.075, 96.985 59.516 C 98.844 57.537, 99.122 56.589, 98.351 54.860 C 97.422 52.779, 97.290 52.843, 95.191 56.401 M 117.441 58.418 C 119.664 60.230, 121 60.448, 121 59 C 121 58.450, 120.587 58, 120.082 58 C 119.577 58, 118.339 57.738, 117.332 57.418 C 115.656 56.886, 115.665 56.971, 117.441 58.418" stroke="none" fill="black" fill-rule="evenodd"/>
</svg>