<svg xmlns="http://www.w3.org/2000/svg" width="192" height="144" viewBox="0 0 192 144" version="1.1">
	<path d="M -0 22.981 L -0 45.962 6.620 42.323 C 18.210 35.953, 33.754 36.539, 39.935 43.579 C 43.294 47.404, 45.137 56.949, 43.136 60.154 C 42.511 61.154, 42 63.051, 42 64.368 C 42 65.685, 40.714 68.054, 39.143 69.631 C 37.571 71.209, 35.815 73.906, 35.239 75.624 C 34.351 78.274, 34.497 79.052, 36.201 80.756 C 39.615 84.171, 36.837 87.975, 29.334 90.160 C 28.470 90.412, 28.531 91.539, 29.569 94.500 C 30.371 96.792, 30.976 102.415, 30.985 107.668 C 31.002 118.308, 31.550 120.619, 33.641 118.883 C 36.157 116.795, 35.985 118.509, 33.374 121.543 C 31.298 123.955, 30.937 125.175, 31.413 128.167 C 31.734 130.184, 31.616 131.984, 31.149 132.167 C 30.683 132.350, 30.041 135.088, 29.723 138.250 L 29.145 144 43.212 144 C 55.394 144, 57.473 143.765, 58.721 142.250 C 60.094 140.584, 60.137 140.585, 59.610 142.257 C 59.086 143.923, 62.523 144.001, 125.779 143.757 L 192.500 143.500 192.627 120 C 192.696 107.075, 192.529 93.498, 192.255 89.828 C 191.807 83.830, 191.517 83.096, 189.378 82.559 C 186.290 81.784, 186.258 79.625, 189.343 80.215 L 191.687 80.663 192.343 53.669 C 192.705 38.822, 193 20.673, 193 13.338 L 193 0 96.500 0 L 0 0 -0 22.981 M 0.429 23.500 C 0.429 36.150, 0.573 41.187, 0.747 34.694 C 0.922 28.200, 0.921 17.850, 0.746 11.694 C 0.571 5.537, 0.428 10.850, 0.429 23.500 M 63.638 6.500 C 63.322 7.325, 63.451 8, 63.924 8 C 64.398 8, 65.045 7.325, 65.362 6.500 C 65.678 5.675, 65.549 5, 65.076 5 C 64.602 5, 63.955 5.675, 63.638 6.500 M 94.500 7 C 94.840 7.550, 95.541 8, 96.059 8 C 96.577 8, 97 7.550, 97 7 C 97 6.450, 96.298 6, 95.441 6 C 94.584 6, 94.160 6.450, 94.500 7 M 125.250 36.250 C 125.478 36.938, 126.414 37.645, 127.329 37.823 C 128.489 38.048, 128.810 37.669, 128.390 36.573 C 127.680 34.724, 124.637 34.411, 125.250 36.250 M 51.421 44.458 C 50.564 47.874, 51.258 48.478, 53.365 46.150 C 54.847 44.511, 54.871 44.138, 53.566 43.055 C 52.331 42.030, 51.972 42.265, 51.421 44.458 M 64.459 76.067 C 64.096 76.653, 64.005 77.339, 64.257 77.590 C 64.954 78.288, 68 76.907, 68 75.893 C 68 74.641, 65.257 74.776, 64.459 76.067 M 168.021 81.475 C 167.012 82.690, 167.244 83.154, 169.334 84.107 C 170.730 84.743, 172.689 84.945, 173.686 84.557 C 175.360 83.906, 175.317 83.702, 173.139 81.926 C 170.303 79.612, 169.617 79.552, 168.021 81.475 M 30 82 C 30 82.550, 30.675 83, 31.500 83 C 32.325 83, 33 82.550, 33 82 C 33 81.450, 32.325 81, 31.500 81 C 30.675 81, 30 81.450, 30 82 M 123.500 82 C 123.160 82.550, 123.332 83, 123.882 83 C 124.432 83, 125.160 82.550, 125.500 82 C 125.840 81.450, 125.668 81, 125.118 81 C 124.568 81, 123.840 81.450, 123.500 82 M 132.667 83.667 C 131.424 84.909, 131.992 87.683, 133.829 89.345 C 136.378 91.652, 137 91.427, 137 88.200 C 137 84.493, 134.478 81.855, 132.667 83.667 M 92.597 86.844 C 92.251 87.404, 92.455 88.163, 93.050 88.531 C 94.588 89.481, 95.580 88.180, 94.296 86.896 C 93.578 86.178, 93.019 86.161, 92.597 86.844 M 1 100.047 L 1 108.094 4.989 104.889 C 10.331 100.595, 12.187 97.595, 11.412 94.504 C 10.664 91.526, 9.370 91.258, 8.529 93.908 C 7.824 96.130, 5 97.539, 5 95.669 C 5 94.971, 5.540 93.860, 6.200 93.200 C 7.133 92.267, 6.689 92, 4.200 92 L 1 92 1 100.047 M 106.459 99.067 C 106.096 99.653, 106.040 100.373, 106.333 100.667 C 107.050 101.383, 109 100.121, 109 98.941 C 109 97.663, 107.274 97.748, 106.459 99.067 M 173.813 100.683 C 174.534 100.972, 175.397 100.936, 175.729 100.604 C 176.061 100.272, 175.471 100.036, 174.417 100.079 C 173.252 100.127, 173.015 100.364, 173.813 100.683 M 113.543 103.931 C 112.521 105.584, 114.648 105.979, 116.603 104.500 C 118.438 103.111, 118.428 103.063, 116.309 103.032 C 115.104 103.014, 113.859 103.419, 113.543 103.931 M 170.729 108.604 C 170.328 109.005, 170 110.023, 170 110.867 C 170 111.992, 170.296 112.104, 171.113 111.287 C 171.724 110.676, 172.053 109.657, 171.842 109.025 C 171.631 108.392, 171.130 108.203, 170.729 108.604 M 72.184 121.642 C 72.382 123.295, 73.343 124.593, 74.750 125.110 C 76.751 125.844, 77 125.619, 77 123.075 C 77 120.436, 75.538 119, 72.852 119 C 72.310 119, 72.010 120.189, 72.184 121.642 M 121.441 127.468 C 120.374 128.276, 120.007 128.951, 120.628 128.968 C 121.248 128.986, 122.315 128.325, 123 127.500 C 124.581 125.595, 123.935 125.582, 121.441 127.468 M 1 136.385 L 1 144 8.627 144 L 16.254 144 15.764 138.893 C 15.221 133.242, 14.075 132.038, 9.215 132.015 C 7.408 132.007, 4.820 131.273, 3.465 130.385 L 1 128.770 1 136.385 M 154.201 132.255 C 153.269 133.380, 153.218 134.016, 154.018 134.511 C 155.498 135.426, 156.255 134.558, 155.838 132.423 C 155.534 130.860, 155.371 130.844, 154.201 132.255 M 20.667 132.667 C 20.300 133.033, 20 135.733, 20 138.667 C 20 143.640, 20.163 144, 22.417 144 C 25.353 144, 25.595 143.382, 25.153 137.006 C 24.880 133.053, 24.442 132, 23.070 132 C 22.115 132, 21.033 132.300, 20.667 132.667 M 95.500 134 C 95.125 135.183, 95.042 136.376, 95.317 136.651 C 95.592 136.926, 96.125 136.183, 96.500 135 C 96.875 133.817, 96.958 132.624, 96.683 132.349 C 96.408 132.074, 95.875 132.817, 95.500 134 M 152.750 136.571 C 152.338 136.990, 152 138.698, 152 140.367 C 152 142.536, 152.307 143.093, 153.078 142.322 C 153.671 141.729, 154.009 140.021, 153.828 138.526 C 153.648 137.031, 153.162 136.151, 152.750 136.571" stroke="none" fill="black" fill-rule="evenodd"/>
</svg>