<svg xmlns="http://www.w3.org/2000/svg" width="192" height="144" viewBox="0 0 192 144" version="1.1">
	<path d="M 0 72 L 0 144 51.060 144 L 102.121 144 101.810 140.250 C 101.509 136.614, 101.363 136.483, 97 135.948 C 91.913 135.323, 86.516 132.786, 85.689 130.631 C 85.059 128.991, 88.511 118.268, 92.391 109.814 C 95.289 103.499, 95.608 101.369, 93.750 100.750 C 92.862 100.454, 93.297 98.871, 95.250 95.281 C 98.500 89.310, 98.608 88.392, 96.136 87.746 C 94.936 87.432, 94.028 85.963, 93.590 83.629 C 93.216 81.633, 92.329 80, 91.620 80 C 90.611 80, 90.523 78.642, 91.215 73.750 C 91.702 70.313, 92.266 66.292, 92.469 64.816 C 92.671 63.341, 94.011 60.416, 95.445 58.316 C 97.888 54.741, 102 43.499, 102 40.395 C 102 39.628, 101.438 38.993, 100.750 38.985 C 100.063 38.976, 98.854 38.561, 98.064 38.061 C 96.833 37.282, 96.827 36.913, 98.027 35.468 C 99.237 34.010, 99.195 33.615, 97.712 32.532 C 95.268 30.744, 95.588 30, 98.800 30 C 100.340 30, 102.159 29.441, 102.842 28.758 C 103.727 27.873, 104.286 27.832, 104.792 28.618 C 105.638 29.935, 120 31.114, 120 29.866 C 120 29.390, 120.450 29, 121 29 C 121.550 29, 122 29.590, 122 30.311 C 122 31.033, 122.841 32.526, 123.870 33.630 C 125.916 35.826, 125.090 38.027, 121.750 39.281 C 120.787 39.642, 120 40.937, 120 42.158 C 120 45.857, 122.345 56, 123.200 56 C 123.640 56, 124 55.611, 124 55.135 C 124 54.659, 124.946 53.067, 126.102 51.597 C 127.707 49.557, 128.518 49.185, 129.528 50.023 C 130.256 50.627, 131.673 50.982, 132.676 50.811 C 134.984 50.417, 135.572 54.424, 133.729 58 C 132.672 60.053, 131.681 60.511, 128.194 60.563 C 121.745 60.657, 120.629 62.376, 120.559 72.323 C 120.523 77.461, 120.965 81.252, 121.704 82.143 C 122.366 82.941, 124.472 86.722, 126.385 90.547 C 128.298 94.371, 131.469 99.960, 133.431 102.966 C 136.243 107.274, 137 109.431, 137 113.140 C 137 115.729, 137.510 120.057, 138.134 122.759 C 139.568 128.974, 137.944 132.979, 133.500 134.185 C 128.577 135.522, 118.732 137.239, 115.215 137.374 C 111.831 137.504, 110.042 139.185, 110.015 142.261 C 110.001 143.919, 112.428 144.007, 151.250 143.761 L 192.500 143.500 192.757 71.750 L 193.013 0 96.507 0 L 0 0 0 72 M 0.474 72.500 C 0.474 112.100, 0.598 128.154, 0.750 108.176 C 0.901 88.198, 0.901 55.798, 0.750 36.176 C 0.598 16.554, 0.474 32.900, 0.474 72.500" stroke="none" fill="black" fill-rule="evenodd"/>
</svg>