<svg xmlns="http://www.w3.org/2000/svg" width="192" height="144" viewBox="0 0 192 144" version="1.1">
	<path d="M 96 2.756 C 96 6.713, 92.106 8.149, 82.350 7.789 L 74.500 7.500 74.500 13.831 C 74.500 18.756, 74.897 20.452, 76.288 21.469 C 78.810 23.313, 80 28.287, 80.001 36.993 L 80.001 44.500 74.940 44.149 C 68.872 43.729, 66 45.715, 66 50.330 C 66 53.960, 70.641 67.948, 72.479 69.857 C 73.558 70.978, 73.457 71.543, 71.893 73.107 C 69.472 75.528, 69.433 81.078, 71.816 84.021 C 74.123 86.870, 81.508 87.620, 82.583 85.114 C 83.605 82.730, 84.773 87.182, 84.914 94 C 85.055 100.820, 85.911 104.196, 87.377 103.708 C 88.147 103.451, 88.475 98.559, 88.420 88.167 C 88.372 79.139, 88.726 73, 89.295 73 C 89.820 73, 89.991 71.705, 89.675 70.123 C 89.323 68.367, 89.652 66.517, 90.518 65.373 C 91.381 64.233, 91.949 61.054, 91.968 57.250 C 91.993 52.361, 92.436 50.564, 94 49 C 95.100 47.900, 96 46.756, 96 46.457 C 96 46.158, 97.800 43.144, 100 39.758 C 102.200 36.372, 104 33.242, 104 32.801 C 104 32.361, 104.591 32, 105.313 32 C 108.619 32, 115 21.949, 115 16.742 C 115 12.998, 111.300 8, 108.529 8 C 107.030 8, 107.037 6.169, 108.552 1.250 C 108.833 0.339, 107.182 0, 102.469 0 C 96.075 0, 96 0.032, 96 2.756" stroke="none" fill="black" fill-rule="evenodd"/>
</svg>