<svg xmlns="http://www.w3.org/2000/svg" width="192" height="144" viewBox="0 0 192 144" version="1.1">
	<path d="M 74.015 7.985 C 72.421 9.579, 72.003 11.306, 72.014 16.250 C 72.034 25.681, 72.659 27.234, 76.130 26.471 C 79.279 25.780, 79.899 27.009, 77.434 29.055 C 76.573 29.770, 75.208 31.630, 74.402 33.190 C 73.011 35.879, 73.058 36.071, 75.301 36.924 C 77.560 37.783, 77.671 38.275, 77.784 47.912 C 77.848 53.460, 77.582 58, 77.191 58 C 75.780 58, 73.652 62.608, 72.574 67.997 C 71.590 72.920, 71.226 73.473, 69.124 73.242 C 66.973 73.005, 66.827 73.264, 67.397 76.305 C 68.147 80.300, 65.915 87.227, 59.541 100.683 C 55.216 109.812, 55.073 110.403, 56.149 114.678 C 56.796 117.246, 57.048 122.754, 56.742 127.650 C 56.450 132.329, 56.448 137.922, 56.737 140.079 L 57.263 144 88.132 144 C 114.258 144, 119 143.780, 119 142.567 C 119 141.779, 119.886 140.854, 120.969 140.510 C 123.278 139.777, 124.986 134.502, 124.994 128.079 C 124.998 125.357, 125.643 122.947, 126.671 121.811 C 128.776 119.485, 129.009 111.460, 127.293 100.357 C 125.492 88.700, 121.747 77.708, 116.440 68.500 C 111.040 59.130, 109.791 56.247, 110.847 55.594 C 111.271 55.332, 111.322 52.504, 110.959 49.309 C 110.262 43.167, 110.578 41.319, 112.694 39.179 C 113.412 38.452, 114 36.587, 114 35.036 C 114 33.484, 114.637 31.970, 115.415 31.671 C 116.194 31.372, 118.521 28.106, 120.587 24.412 L 124.342 17.696 122.140 15.913 C 118.713 13.137, 109.701 11.449, 105.383 12.774 C 103.050 13.491, 100.940 13.547, 99.335 12.937 C 97.979 12.422, 95.829 12, 94.557 12 C 93.285 12, 91.731 11.381, 91.103 10.625 C 90.066 9.375, 86.199 8.095, 78.765 6.541 C 76.814 6.133, 75.453 6.547, 74.015 7.985 M 105.300 94 C 105.300 97.025, 105.487 98.263, 105.716 96.750 C 105.945 95.237, 105.945 92.763, 105.716 91.250 C 105.487 89.737, 105.300 90.975, 105.300 94" stroke="none" fill="black" fill-rule="evenodd"/>
</svg>