<svg xmlns="http://www.w3.org/2000/svg" width="192" height="144" viewBox="0 0 192 144" version="1.1">
	<path d="M 0 72 L 0 144 16.325 144 L 32.650 144 36.365 134.750 C 38.408 129.662, 40.335 124.938, 40.647 124.250 C 40.959 123.563, 40.716 123, 40.107 123 C 39.498 123, 39 123.648, 39 124.441 C 39 125.234, 38.502 126.190, 37.893 126.566 C 37.180 127.007, 36.971 126.583, 37.306 125.375 C 38.673 120.441, 39.024 116, 38.045 116 C 37.470 116, 36.955 117.463, 36.900 119.250 C 36.806 122.329, 36.759 122.369, 36 120 C 34.141 114.195, 35.946 97.997, 39.678 87 C 42.939 77.390, 44.036 72.005, 45.485 58.500 C 47.492 39.795, 48.102 37.923, 53.775 33.074 L 58.484 29.049 55.126 26.246 C 50.390 22.292, 51.115 19.921, 57.503 18.476 L 62.500 17.346 59.750 16.013 C 56.037 14.212, 56.189 12, 60.026 12 L 63.051 12 61.526 9.050 C 59.756 5.627, 59.550 2.396, 61.044 1.473 C 62.651 0.480, 65.120 3.041, 67.335 8 L 69.345 12.500 70.257 9.037 C 70.758 7.132, 72.061 4.319, 73.152 2.787 L 75.136 0 37.568 0 L 0 0 0 72 M 76.203 6.225 C 74.506 9.649, 73.251 12.584, 73.413 12.747 C 73.576 12.910, 76.137 11.912, 79.105 10.531 C 82.072 9.150, 85.118 8.015, 85.872 8.010 C 88.461 7.991, 85.185 10.645, 78.981 13.591 C 75.692 15.153, 73 16.728, 73 17.091 C 73 17.453, 74.237 18.014, 75.750 18.336 C 80.070 19.257, 85 22.760, 85 24.908 C 85 26.235, 83.898 27.209, 81.500 28 C 79.575 28.635, 78 29.602, 78 30.148 C 78 30.694, 79.811 33.289, 82.025 35.915 C 87.579 42.501, 88.535 46.264, 85.989 51.522 C 84.261 55.091, 84 57.703, 84 71.399 C 84 80.071, 84.338 87.002, 84.750 86.801 C 91.008 83.752, 91 83.762, 91 79.411 C 91 74.815, 92.899 72, 96 72 C 99.136 72, 101 74.813, 101 79.546 C 101 83.410, 101.361 84.135, 103.950 85.474 C 105.573 86.313, 107.055 87, 107.244 87 C 107.433 87, 107.699 80.362, 107.834 72.250 C 107.969 64.138, 108.311 56.731, 108.594 55.792 C 108.907 54.753, 108.304 53.582, 107.054 52.802 C 104.013 50.902, 104.226 43.604, 107.462 38.841 L 109.924 35.218 107.791 30.859 C 105.409 25.990, 104.072 11.481, 105.732 8.515 C 106.468 7.199, 106.866 8.384, 107.383 13.436 C 108.002 19.473, 111.051 29.376, 112.868 31.246 C 113.266 31.657, 115.354 31.094, 117.508 29.996 C 122.529 27.436, 129.517 27.408, 133.656 29.932 C 135.391 30.990, 137.079 31.588, 137.406 31.261 C 138.501 30.166, 138.015 28, 136.674 28 C 134.634 28, 130.676 23.286, 131.316 21.619 C 131.629 20.803, 133.374 19.992, 135.193 19.818 C 138.426 19.507, 138.511 19.376, 139 14 L 139.500 8.500 140.910 12.750 C 142.180 16.577, 142.640 17, 145.538 17 C 150.287 17, 151.319 18.868, 148.783 22.874 C 147.031 25.641, 146.537 25.925, 145.793 24.594 C 144.288 21.906, 143 22.816, 143 26.566 C 143 28.527, 142.504 31.058, 141.898 32.191 C 141.105 33.673, 141.099 34.845, 141.877 36.375 C 144.269 41.075, 145.062 44.689, 146.472 57.315 C 147.885 69.965, 151.214 85.348, 153.007 87.508 C 154.425 89.217, 159 110.530, 159 115.428 C 159 121.181, 157.412 121.382, 156.449 115.750 C 155.859 112.301, 155.573 111.877, 154.931 113.500 C 153.556 116.980, 153.907 120.033, 155.750 120.616 C 164.946 123.524, 172.273 130.115, 176.038 138.866 L 178.246 144 185.123 144 L 192 144 192 72 L 192 0 135.644 0 L 79.289 0 76.203 6.225 M 78.621 62.500 C 77.106 71.101, 77.052 72.229, 78.069 74.128 C 78.647 75.209, 79.494 77.985, 79.951 80.297 C 80.649 83.832, 80.789 83.070, 80.833 75.500 C 80.861 70.550, 80.534 64.700, 80.105 62.500 L 79.326 58.500 78.621 62.500 M 111.654 64.196 C 111.304 67.113, 111.043 72.875, 111.075 77 L 111.132 84.500 112.774 79 C 114.443 73.407, 114.652 61.252, 113.104 59.704 C 112.657 59.257, 112.005 61.278, 111.654 64.196 M 85.739 95.172 C 81.814 98.031, 82.012 100.471, 85.984 98.203 C 89.039 96.460, 90.474 94.411, 89.195 93.620 C 88.800 93.377, 87.245 94.075, 85.739 95.172 M 102.177 94.568 C 102.584 96.545, 107.651 99.685, 108.710 98.617 C 109.144 98.179, 108.150 96.738, 106.500 95.415 C 103.014 92.621, 101.723 92.368, 102.177 94.568 M 94.150 100.750 C 93.241 103.672, 91.607 105.429, 86.742 108.712 C 75.980 115.973, 75.204 116.993, 75.747 123.162 C 76.187 128.164, 76.117 128.374, 74.640 126.500 C 73.105 124.552, 73.063 124.550, 73.032 126.432 C 73.014 127.494, 73.949 131.882, 75.110 136.182 L 77.219 144 97.641 144 C 113.106 144, 118.157 143.697, 118.449 142.750 C 118.662 142.063, 119.089 136.550, 119.399 130.500 L 119.963 119.500 117.433 124 L 114.904 128.500 115.413 122.476 L 115.922 116.452 107.427 110.478 C 100.455 105.575, 98.730 103.831, 97.807 100.752 C 97.189 98.688, 96.376 97, 96 97 C 95.624 97, 94.792 98.688, 94.150 100.750" stroke="none" fill="black" fill-rule="evenodd"/>
</svg>