<svg xmlns="http://www.w3.org/2000/svg" width="192" height="144" viewBox="0 0 192 144" version="1.1">
	<path d="M 0 13 C 0 25.378, 0.377 27.166, 2.550 25.094 C 9.845 18.139, 34.610 13.075, 47.092 15.986 C 62.644 19.613, 76.042 28.335, 83.977 40 C 91.439 50.969, 94.317 59.099, 95.482 72.500 C 97.071 90.774, 102.844 102.908, 115.833 115.271 C 130.117 128.868, 151.693 133.971, 173 128.793 C 178.584 127.436, 190.955 121.356, 191.472 119.715 C 191.683 119.047, 192.048 91.838, 192.285 59.250 L 192.715 -0 96.358 -0 L 0 0 0 13 M 0.389 13.500 C 0.390 20.650, 0.550 23.444, 0.742 19.708 C 0.935 15.973, 0.934 10.123, 0.739 6.708 C 0.545 3.294, 0.387 6.350, 0.389 13.500 M 144.020 35.752 C 134.216 40.677, 133.236 54.514, 142.299 60.040 C 146.177 62.406, 152.951 62.594, 157.094 60.451 C 166.254 55.714, 166.245 41.316, 157.078 36.164 C 152.418 33.545, 148.649 33.426, 144.020 35.752 M 36.130 78.541 C 31.695 80.467, 27.189 85.681, 26.394 89.806 C 24.871 97.708, 28.659 105.643, 35.566 109.015 C 40.710 111.527, 45.038 111.532, 49.939 109.031 C 63.170 102.281, 60.744 82.078, 46.219 78.044 C 41.422 76.712, 40.206 76.772, 36.130 78.541" stroke="none" fill="black" fill-rule="evenodd"/>
</svg>