<svg xmlns="http://www.w3.org/2000/svg" width="192" height="144" viewBox="0 0 192 144" version="1.1">
	<path d="M 0 46 C 0 71.300, 0.301 92, 0.670 92 C 3.084 92, 21.072 78.033, 30.374 68.935 C 40.976 58.566, 44.779 56.215, 46.485 58.976 C 46.817 59.512, 50.081 61.625, 53.738 63.670 C 57.396 65.716, 63.130 69.490, 66.480 72.058 C 78.379 81.178, 82.071 82.045, 83.842 76.134 C 84.479 74.008, 85 71.534, 85 70.637 C 85 69.740, 86.658 67.170, 88.685 64.926 C 91.584 61.718, 92.075 60.664, 90.983 59.990 C 90.220 59.518, 89.237 59.354, 88.798 59.625 C 88.359 59.896, 88 59.694, 88 59.176 C 88 57.735, 84.310 57.090, 83.084 58.316 C 82.305 59.095, 81.967 58.570, 81.882 56.450 C 81.816 54.827, 81.831 52.961, 81.913 52.302 C 82.080 50.973, 78.442 48.701, 75.799 48.482 C 74.863 48.405, 73.224 47.263, 72.156 45.944 C 70.354 43.719, 70.023 43.650, 67.542 44.977 C 65.633 45.999, 64.405 46.115, 63.244 45.382 C 61.051 43.999, 60.491 42, 62.296 42 C 63.101 42, 65.388 40.141, 67.380 37.870 C 70.584 34.215, 71 33.118, 71 28.338 C 71 19.635, 72.773 16.729, 80.365 12.992 C 83.972 11.216, 88.949 9.535, 91.424 9.256 C 96.842 8.645, 110.799 11.622, 113.179 13.896 C 115.798 16.399, 121 27.155, 121 30.070 C 121 31.782, 120.261 33.024, 118.874 33.643 C 116.790 34.573, 116.810 34.651, 119.874 37.543 C 123.806 41.254, 123.829 42.341, 119.959 41.491 C 117.079 40.858, 116.952 40.961, 117.567 43.411 C 117.965 44.996, 117.799 46, 117.140 46 C 116.546 46, 116.349 46.747, 116.701 47.664 C 117.163 48.868, 116.976 49.103, 116.024 48.515 C 115.008 47.887, 114.863 48.316, 115.386 50.403 C 116.027 52.958, 115.940 53.040, 113.782 51.917 C 112.527 51.264, 111.830 51.083, 112.234 51.515 C 112.637 51.947, 111.904 53.286, 110.604 54.491 C 109.304 55.696, 107.731 57.634, 107.108 58.799 C 106.158 60.574, 106.301 61.091, 107.997 61.998 C 109.109 62.593, 111.436 65.987, 113.168 69.540 C 114.901 73.093, 116.906 76, 117.624 76 C 118.342 76, 121.014 75.293, 123.560 74.428 C 126.550 73.413, 129.565 73.089, 132.074 73.513 C 137.173 74.374, 142.312 72.646, 148.500 67.991 C 151.250 65.921, 156.078 62.789, 159.230 61.030 C 166.954 56.719, 169.568 57.334, 178 65.447 C 181.575 68.887, 186.169 72.694, 188.209 73.907 C 191.913 76.109, 191.918 76.123, 192.258 83.806 C 192.445 88.038, 192.688 70.913, 192.799 45.750 L 193 0 96.500 0 L 0 0 0 46 M 0.461 46.500 C 0.461 71.800, 0.591 82.007, 0.749 69.181 C 0.908 56.356, 0.907 35.656, 0.749 23.181 C 0.590 10.707, 0.461 21.200, 0.461 46.500 M 163.750 64.392 C 162.787 65.123, 162 65.988, 162 66.315 C 162 66.929, 166.835 72, 167.420 72 C 168.447 72, 168.838 65.510, 167.881 64.357 C 166.502 62.695, 165.979 62.700, 163.750 64.392 M 39.346 66.750 C 37.537 69.202, 37.454 69.880, 38.582 73 C 40.809 79.159, 40.319 81.563, 35.750 86.874 C 33.413 89.592, 30.020 93.545, 28.210 95.658 L 24.920 99.500 25.297 91.205 C 25.609 84.350, 25.428 83.005, 24.255 83.455 C 23.475 83.755, 22.691 84, 22.513 84 C 22.335 84, 22.433 86.689, 22.731 89.975 L 23.273 95.950 15.454 103.921 C 11.153 108.305, 7.323 111.700, 6.943 111.465 C 6.562 111.230, 6.590 109.116, 7.003 106.769 C 8.785 96.652, 8.994 94, 8.012 94 C 7.455 94, 7 96.004, 7 98.453 C 7 103.959, 5.509 107.390, 2.390 109.059 C 0.015 110.330, 0 110.447, 0 127.169 L 0 144 30.833 144 L 61.667 144 61.667 140.611 C 61.667 136.195, 66.840 129.121, 76.027 120.976 L 83 114.794 83 109.397 C 83 106.429, 82.626 104, 82.170 104 C 81.713 104, 79.827 106.105, 77.979 108.679 C 76.131 111.252, 74.447 112.842, 74.237 112.211 C 73.818 110.954, 76.523 96.429, 78.140 91.250 C 78.698 89.463, 79.518 88, 79.961 88 C 80.404 88, 80.991 87.142, 81.265 86.094 C 81.643 84.649, 81.128 84.066, 79.132 83.685 C 75.988 83.083, 74.530 83.877, 74.417 86.250 C 74.371 87.213, 74.258 89.035, 74.167 90.299 C 74.075 91.564, 71.862 95.009, 69.250 97.957 C 66.638 100.904, 63.291 104.697, 61.812 106.386 C 60.334 108.076, 58.862 109.195, 58.541 108.874 C 58.220 108.553, 58.859 103.640, 59.961 97.956 C 61.704 88.964, 62.403 87.158, 65.338 84.060 C 68.429 80.798, 68.575 80.374, 67.079 79 C 63.199 75.434, 58.789 72, 58.090 72 C 57.674 72, 57.333 73.978, 57.333 76.395 C 57.333 80.142, 56.671 81.581, 52.841 86.145 C 50.370 89.090, 47.315 92.997, 46.051 94.827 C 42.666 99.730, 41.654 97.721, 42.922 88.608 C 43.507 84.400, 43.936 80.629, 43.874 80.229 C 43.509 77.837, 44.352 76.019, 47.161 73.147 L 50.321 69.914 46.911 66.998 C 42.654 63.358, 41.869 63.332, 39.346 66.750 M 151.250 71.944 C 150.012 72.976, 149 74.104, 149 74.451 C 149 74.797, 150.012 76.449, 151.250 78.121 C 152.988 80.470, 153.614 82.963, 154 89.082 C 154.275 93.438, 154.236 97.001, 153.914 97.001 C 153.592 97, 150.743 93.539, 147.584 89.309 C 143.442 83.764, 141.963 80.974, 142.281 79.309 C 142.728 76.973, 142.118 76.597, 138.500 76.983 C 135.600 77.291, 135.546 77.607, 137.886 80.582 C 139.676 82.857, 140 84.625, 140 92.103 C 140 102.820, 139.245 102.890, 133.190 92.731 C 129.625 86.750, 128.960 84.852, 129.345 81.750 C 129.831 77.825, 129.420 77.513, 125.242 78.632 L 122.984 79.238 125.033 82.553 C 126.916 85.600, 126.988 86.406, 125.921 92.530 C 125.283 96.193, 125.012 101.286, 125.318 103.846 C 125.624 106.405, 125.416 112.840, 124.856 118.144 C 123.990 126.356, 124.073 128.241, 125.419 130.844 C 127.189 134.266, 127.532 140.553, 126 141.500 C 122.578 143.615, 127.587 144, 158.500 144 L 192 144 192 120.137 L 192 96.274 187.043 91.637 C 184.316 89.087, 181.583 87, 180.969 87 C 180.354 87, 177.182 84.453, 173.918 81.341 C 170.655 78.228, 167.820 75.866, 167.618 76.091 C 167.416 76.316, 167.588 78.975, 168 82 C 168.412 85.025, 168.648 87.620, 168.525 87.766 C 167.822 88.602, 155 73.652, 155 71.997 C 155 69.535, 154.151 69.523, 151.250 71.944 M 180.731 78.920 C 180.296 80.583, 180.426 80.974, 181.168 80.232 C 181.750 79.650, 182.028 78.585, 181.788 77.863 C 181.538 77.114, 181.085 77.568, 180.731 78.920 M 108.024 97.750 C 108.037 99.263, 109.160 103.200, 110.519 106.500 C 111.879 109.800, 112.993 113.314, 112.995 114.309 C 112.998 115.304, 113.450 115.840, 114 115.500 C 114.550 115.160, 115 112.402, 115 109.371 C 115 104.864, 114.445 103.053, 111.952 99.430 C 110.276 96.994, 108.701 95, 108.452 95 C 108.203 95, 108.011 96.237, 108.024 97.750 M 75.433 132.661 C 70.586 137.102, 68.817 139.848, 69.473 141.915 C 69.941 143.388, 70.974 144, 72.996 144 C 75.662 144, 75.937 143.621, 77.005 138.477 C 78.423 131.643, 78.051 130.264, 75.433 132.661 M 67.079 141.583 C 67.127 142.748, 67.364 142.985, 67.683 142.188 C 67.972 141.466, 67.936 140.603, 67.604 140.271 C 67.272 139.939, 67.036 140.529, 67.079 141.583" stroke="none" fill="black" fill-rule="evenodd"/>
</svg>