<svg xmlns="http://www.w3.org/2000/svg" width="192" height="144" viewBox="0 0 192 144" version="1.1">
	<path d="M 0 72 L 0 144 14.364 144 L 28.728 144 30.273 139.750 C 32.017 134.952, 33.299 115.266, 31.898 114.799 C 31.398 114.633, 31.923 111.128, 33.064 107.011 C 34.205 102.893, 35.273 96.324, 35.437 92.411 C 35.646 87.418, 36.946 81.602, 39.798 72.899 C 42.033 66.080, 44.396 57.166, 45.048 53.092 C 46.579 43.531, 48.331 39.387, 52.839 34.668 C 57.447 29.844, 60.935 28, 65.450 28 C 69.670 28, 70.231 25.831, 66.750 22.975 C 64.627 21.233, 64.596 21.031, 66.207 19.393 C 67.698 17.878, 68.395 17.814, 71.707 18.894 C 73.793 19.574, 75.982 20.336, 76.570 20.588 C 78.039 21.218, 81.372 18.145, 83.316 14.369 C 84.910 11.273, 90.374 6, 91.988 6 C 93.520 6, 92.457 8.668, 89.557 12.102 L 86.689 15.500 89.844 15.813 C 93.596 16.186, 93.976 17.538, 90.570 18.393 C 87.696 19.114, 85 21.590, 85 23.508 C 85 24.260, 86.643 26.425, 88.652 28.320 C 93.334 32.737, 92.794 35.553, 87.430 34.682 C 82.778 33.928, 82.160 35.673, 85.391 40.434 C 86.769 42.465, 88.203 46.169, 88.577 48.665 C 89.201 52.828, 89.004 53.458, 86.193 56.269 C 84.107 58.355, 82.150 59.333, 80.064 59.333 C 77.928 59.333, 77 59.816, 77 60.926 C 77 61.802, 76.140 63.056, 75.090 63.712 C 71.767 65.787, 71.570 70.218, 74.541 76.080 C 76.585 80.114, 77.064 82.195, 76.608 85.050 C 75.653 91.024, 77.613 91.729, 84.919 88.041 C 90.830 85.057, 91 84.860, 91 80.986 C 91 76.841, 93.618 73, 96.443 73 C 98.714 73, 101 77.092, 101 81.156 C 101 84.703, 101.287 85.018, 107.521 88.329 C 113.599 91.556, 114.107 91.668, 115.012 89.977 C 115.546 88.980, 115.698 86.738, 115.349 84.995 C 114.881 82.654, 115.438 80.314, 117.482 76.037 C 120.592 69.531, 120.167 65.418, 116.177 63.411 C 114.986 62.812, 114.334 62, 114.727 61.606 C 115.684 60.650, 113.010 59.034, 110.439 59.015 C 109.305 59.007, 107.336 58.030, 106.064 56.845 C 103.994 54.916, 103.804 54.034, 104.253 48.439 C 104.640 43.621, 105.397 41.346, 107.559 38.512 C 110.303 34.914, 110.326 34.778, 108.616 32.168 C 105.819 27.900, 99.804 14.863, 100.370 14.297 C 100.654 14.013, 102.350 15.857, 104.139 18.395 C 106.728 22.068, 107.812 22.882, 109.446 22.381 C 112.474 21.453, 112.511 21.295, 110.636 17.364 C 109.689 15.377, 109.082 13.585, 109.287 13.380 C 109.865 12.802, 114.002 17.492, 117.998 23.254 C 121.320 28.046, 121.913 28.457, 125.094 28.183 C 129.859 27.773, 133.805 29.450, 138.332 33.810 C 143.653 38.933, 144.933 41.808, 147.055 53.399 C 148.072 58.955, 150.519 68.225, 152.493 74 C 154.466 79.775, 156.337 87.425, 156.650 91 C 156.963 94.575, 158.361 101.257, 159.758 105.849 C 161.608 111.930, 161.982 114.393, 161.137 114.915 C 160.434 115.350, 160.214 116.821, 160.580 118.648 C 161.029 120.895, 162.016 121.966, 164.449 122.845 C 169.107 124.530, 177.370 132.824, 180.455 138.912 L 183.087 144.106 187.794 143.803 L 192.500 143.500 192.757 71.750 L 193.013 0 96.507 0 L 0 0 0 72 M 0.474 72.500 C 0.474 112.100, 0.598 128.154, 0.750 108.176 C 0.901 88.198, 0.901 55.798, 0.750 36.176 C 0.598 16.554, 0.474 32.900, 0.474 72.500 M 113.481 29.061 C 113.116 30.210, 113.054 31.387, 113.342 31.675 C 114.176 32.510, 116 31.017, 116 29.500 C 116 27.164, 114.183 26.847, 113.481 29.061 M 82 98.697 C 76.424 102.530, 73.770 105, 75.227 105 C 77.106 105, 90 97.596, 90 96.517 C 90 93.838, 88.459 94.258, 82 98.697 M 102.613 94.720 C 100.883 96.450, 102.671 98.304, 109.166 101.514 C 113.108 103.462, 116.780 104.907, 117.326 104.725 C 117.872 104.543, 114.923 102.079, 110.773 99.250 C 106.622 96.422, 102.950 94.383, 102.613 94.720 M 94.075 103.274 C 93.184 105.971, 91.258 107.556, 83.134 112.274 C 77.711 115.423, 72.312 118, 71.137 118 C 68.339 118, 68.339 120.821, 71.137 133.962 L 73.275 144 97.637 144 L 122 144 122.006 139.250 C 122.009 136.637, 122.301 130.787, 122.654 126.250 C 123.286 118.136, 123.259 118, 121.011 118 C 119.754 118, 114.289 115.423, 108.866 112.274 C 100.742 107.556, 98.816 105.971, 97.925 103.274 C 97.331 101.473, 96.465 100, 96 100 C 95.535 100, 94.669 101.473, 94.075 103.274" stroke="none" fill="black" fill-rule="evenodd"/>
</svg>