<svg xmlns="http://www.w3.org/2000/svg" width="192" height="144" viewBox="0 0 192 144" version="1.1">
	<path d="M 140.500 3.001 C 140.018 5.195, 139.123 6.155, 137.170 6.570 C 127.936 8.536, 119.622 13.962, 116.453 20.092 C 115.673 21.600, 114.818 25.684, 114.553 29.167 C 114.105 35.063, 114.280 35.759, 117.090 39.258 C 120.085 42.989, 120.208 45, 117.441 45 C 115.551 45, 115.594 47.418, 117.513 49.011 C 118.345 49.702, 118.930 50.769, 118.813 51.383 C 118.304 54.048, 121.451 63.006, 122.939 63.128 C 123.798 63.199, 126.075 63.311, 128 63.378 C 131.431 63.498, 131.504 63.589, 131.707 68 C 131.909 72.413, 131.775 72.621, 124.770 78.750 C 119.309 83.528, 116.899 85, 114.536 85 C 111.125 85, 107 87.401, 107 89.386 C 107 90.086, 104.750 91.712, 102 93 C 99.250 94.288, 97 95.699, 97 96.136 C 97 96.572, 96.136 97.392, 95.079 97.958 C 93.216 98.955, 93.160 98.440, 93.230 80.993 C 93.270 71.097, 93.606 63, 93.976 63 C 94.347 63, 97.879 64.098, 101.825 65.440 C 105.771 66.783, 109 67.548, 109 67.141 C 109 66.734, 105.354 64.623, 100.897 62.450 C 95.739 59.936, 92.323 57.590, 91.499 55.998 C 88.785 50.751, 86.599 49.721, 77.760 49.524 C 73.217 49.423, 68.517 48.813, 67.316 48.170 C 66.114 47.526, 64.597 47, 63.943 47 C 61.946 47, 64.960 49.939, 69.150 52.077 C 71.726 53.391, 72.751 54.486, 72.359 55.506 C 71.270 58.345, 72.896 61.997, 75.269 62.041 C 76.947 62.072, 78.075 63.308, 79.818 67.026 C 81.094 69.745, 81.873 72.396, 81.552 72.917 C 80.713 74.273, 77.044 101.291, 76.749 108.285 C 76.528 113.510, 76.781 114.402, 78.989 116.191 C 82.218 118.807, 89.112 118.307, 97.606 114.841 C 103.222 112.549, 103.867 112.475, 105.638 113.924 C 108.068 115.913, 110.498 131.740, 109.494 139.040 L 108.812 144 133.448 144 L 158.083 144 157.504 136.250 C 157.186 131.988, 156.718 126.855, 156.466 124.845 L 156.007 121.190 162.003 121.734 C 166.140 122.109, 168 121.925, 168 121.139 C 168 120.512, 169.302 120, 170.893 120 C 172.542 120, 174.034 119.355, 174.362 118.500 C 174.705 117.605, 176.211 117, 178.096 117 C 181.211 117, 181.247 117.055, 180.629 120.921 C 179.822 125.966, 180.681 128.510, 182.641 126.883 C 184.812 125.081, 185.426 126.590, 184.418 131.251 C 183.854 133.862, 183.863 137.138, 184.442 139.750 C 185.318 143.704, 185.615 144, 188.692 144 L 192 144 191.973 101.250 L 191.946 58.500 189.038 55 C 186.276 51.676, 186.089 51.605, 185.315 53.588 C 184.262 56.285, 179.073 62.407, 178.406 61.739 C 178.124 61.457, 177.742 54.313, 177.556 45.863 C 177.213 30.210, 176.582 26.972, 172.201 18.403 C 171.104 16.256, 168.786 13.017, 167.050 11.204 C 164.892 8.950, 164.084 7.310, 164.495 6.016 C 164.825 4.976, 164.515 3.197, 163.807 2.063 C 162.637 0.188, 161.544 0, 151.839 0 L 141.159 0 140.500 3.001 M 39.585 127.884 C 37.613 130.570, 36 133.685, 36 134.806 C 36 135.961, 37.811 138.394, 40.180 140.422 L 44.360 144 57.199 144 L 70.038 144 59.769 135.172 C 54.121 130.316, 48.882 125.591, 48.128 124.672 C 45.810 121.849, 43.331 122.781, 39.585 127.884 M 153.079 141.583 C 153.127 142.748, 153.364 142.985, 153.683 142.188 C 153.972 141.466, 153.936 140.603, 153.604 140.271 C 153.272 139.939, 153.036 140.529, 153.079 141.583" stroke="none" fill="black" fill-rule="evenodd"/>
</svg>