<svg xmlns="http://www.w3.org/2000/svg" width="192" height="144" viewBox="0 0 192 144" version="1.1">
	<path d="M 93.243 72.294 C 90.466 73.547, 87.938 80.726, 89.857 81.912 C 90.723 82.447, 90.802 83.391, 90.127 85.166 C 89.561 86.656, 89.539 88.240, 90.073 89.083 C 91.502 91.342, 91.228 92.247, 87 99.258 C 82.088 107.402, 81.907 110.686, 86.106 115.468 C 87.814 117.414, 88.967 119.643, 88.668 120.422 C 87.648 123.081, 93.654 128, 97.923 128 C 100.462 128, 103.696 125.377, 105.587 121.784 C 106.373 120.291, 107.575 119.274, 108.258 119.524 C 108.941 119.774, 110.104 119.594, 110.842 119.124 C 112.836 117.853, 110.156 114, 107.279 114 C 105.644 114, 104.879 113.257, 104.449 111.250 C 104.126 109.737, 103.279 106.588, 102.567 104.250 C 101.511 100.778, 101.511 100, 102.566 100 C 105.562 100, 106.931 97.051, 106.409 91.719 C 105.797 85.467, 104.464 83.689, 102.443 86.427 C 101.661 87.487, 100.802 88.136, 100.535 87.869 C 99.435 86.768, 98.971 80.136, 99.952 79.529 C 100.529 79.173, 101 77.839, 101 76.563 C 101 72.806, 96.995 70.601, 93.243 72.294" stroke="none" fill="black" fill-rule="evenodd"/>
</svg>