<svg xmlns="http://www.w3.org/2000/svg" width="192" height="144" viewBox="0 0 192 144" version="1.1">
	<path d="M 72.881 5.250 L 72.762 10.500 71.582 5.521 C 70.296 0.096, 69.432 0.445, 68.416 6.801 C 67.876 10.175, 68.229 11.714, 70.379 15.384 C 73.309 20.383, 73.464 21.740, 71.923 28.923 L 70.846 33.945 68.423 32.358 C 67.090 31.484, 66 30.012, 66 29.085 C 66 26.744, 64.018 25, 61.359 25 C 58.483 25, 57.606 26.428, 59.511 28.009 C 60.330 28.689, 61 30.513, 61 32.063 C 61 33.614, 61.476 35.176, 62.059 35.536 C 63.531 36.446, 62.204 42.041, 59.925 44.529 C 58.903 45.645, 57.536 48.859, 56.886 51.673 C 55.801 56.376, 55.887 57.081, 57.963 60.441 C 59.389 62.748, 61.225 64.295, 62.944 64.639 C 65.418 65.134, 65.667 65.590, 65.667 69.635 C 65.667 73.332, 65.399 73.964, 64.083 73.366 C 63.212 72.969, 60.475 72.466, 58 72.247 C 52.397 71.752, 47.355 74.783, 44.668 80.263 C 42.910 83.848, 42.629 84, 37.755 84 C 27.436 84, 18 93.188, 18 103.236 C 18 111.508, 23.778 119.778, 32.511 124.005 C 39.884 127.575, 46.707 126.080, 53.157 119.484 C 56.596 115.966, 58 115.843, 58 119.059 C 58 120.127, 58.675 121, 59.500 121 C 60.413 121, 61 121.931, 61 123.378 C 61 124.686, 61.690 127.407, 62.533 129.425 C 63.376 131.443, 63.998 133.635, 63.915 134.297 C 63.542 137.259, 64.163 139.073, 66.365 141.448 L 68.729 144 94.865 144 L 121 144 121.033 141.750 L 121.067 139.500 123.188 142 C 125.257 144.438, 125.296 144.444, 124.748 142.250 C 124.042 139.418, 125.110 139.345, 126.835 142.107 L 128.151 144.215 130.181 142.036 L 132.211 139.857 133.662 141.928 C 134.460 143.068, 135.875 143.993, 136.807 143.985 C 138.158 143.972, 138.222 143.793, 137.122 143.096 C 136.364 142.616, 136.066 141.701, 136.461 141.063 C 137.005 140.183, 137.516 140.183, 138.578 141.065 C 139.348 141.704, 139.731 142.626, 139.430 143.113 C 139.129 143.601, 140.034 144, 141.441 144 C 142.848 144, 144 143.727, 144 143.394 C 144 142.684, 139.498 138.969, 136.780 137.436 C 135.742 136.851, 133.131 132.576, 130.978 127.936 C 128.380 122.336, 125.877 118.543, 123.532 116.653 C 119.039 113.031, 119.011 111.689, 123.468 113.551 C 128.550 115.674, 128.771 115.343, 124.400 112.157 C 118.225 107.655, 114 103.339, 114 101.533 C 114 100.618, 113.595 99.111, 113.100 98.184 C 112.605 97.258, 111.922 94.700, 111.581 92.500 C 111.240 90.300, 110.330 86.475, 109.559 84 C 108.787 81.525, 107.863 76.913, 107.506 73.751 C 107.149 70.589, 105.755 63.885, 104.408 58.853 C 103.061 53.821, 102.225 48.868, 102.549 47.846 C 102.873 46.824, 102.427 43.540, 101.557 40.548 C 98.668 30.610, 87.598 21.802, 83.344 26.056 C 82.602 26.798, 82.094 25.682, 81.638 22.306 C 81.281 19.663, 80.270 13.563, 79.391 8.750 C 77.907 0.629, 77.620 0, 75.396 0 C 73.187 0, 72.991 0.410, 72.881 5.250 M 79.158 78 C 79.158 79.375, 79.385 79.938, 79.662 79.250 C 79.940 78.563, 79.940 77.438, 79.662 76.750 C 79.385 76.063, 79.158 76.625, 79.158 78 M 67.261 120.139 C 65.810 121.590, 67.052 131.038, 69.145 134.470 C 70.161 136.136, 70.994 138.287, 70.996 139.250 C 71.008 144.875, 77.149 136.508, 77.772 130.017 C 78.153 126.059, 77.861 124.948, 75.980 123.196 C 73.048 120.464, 68.522 118.878, 67.261 120.139 M 106 125.770 C 106 129.204, 106.578 132.408, 107.400 133.532 C 108.677 135.279, 108.864 134.938, 109.523 129.662 C 110.165 124.527, 110.008 123.656, 108.123 121.900 L 106 119.922 106 125.770 M 63 124.500 C 63 125.325, 63.450 126, 64 126 C 64.550 126, 65 125.325, 65 124.500 C 65 123.675, 64.550 123, 64 123 C 63.450 123, 63 123.675, 63 124.500 M 66.177 136.667 C 66.355 137.584, 67.027 138.510, 67.671 138.724 C 68.416 138.972, 68.647 138.366, 68.305 137.057 C 67.666 134.613, 65.709 134.254, 66.177 136.667" stroke="none" fill="black" fill-rule="evenodd"/>
</svg>