<svg xmlns="http://www.w3.org/2000/svg" width="192" height="144" viewBox="0 0 192 144" version="1.1">
	<path d="M 0.014 72 L 0.022 144 9.917 144 C 19.509 144, 19.796 143.935, 19.258 141.879 C 18.953 140.712, 17.195 138.868, 15.352 137.780 C 13.508 136.692, 12 135.037, 12 134.101 C 12 133.166, 11.460 131.860, 10.800 131.200 C 9.867 130.267, 9.867 129.733, 10.800 128.800 C 11.460 128.140, 12 126.812, 12 125.848 C 12 124.877, 14.116 122.662, 16.750 120.876 C 25.417 115.001, 30.810 110.001, 35.932 103.091 L 41 96.255 41 88.163 C 41 79.242, 40.171 78, 34.216 78 C 30.501 78, 24.331 73.544, 20.621 68.181 C 17.914 64.269, 17.769 63.550, 18.196 56.183 C 20.097 23.341, 58.954 4.835, 86.326 23.735 C 93.778 28.881, 97.098 40.735, 93.230 48.385 C 92.085 50.648, 90.653 53.850, 90.047 55.500 C 89.441 57.150, 87.367 59.527, 85.436 60.783 C 83.506 62.039, 81.423 64.173, 80.806 65.526 C 80.190 66.879, 77.968 68.776, 75.869 69.743 C 72.118 71.470, 71.026 73.280, 73 74.500 C 75.217 75.870, 73.964 79.926, 70.510 82.560 C 67.212 85.076, 64 85.308, 64 83.031 C 64 82.464, 63.550 82, 63 82 C 61.488 82, 61.789 84.973, 63.966 91.556 C 65.386 95.849, 66.196 102.360, 66.882 115 C 67.405 124.625, 68.309 133.738, 68.891 135.250 C 70.184 138.607, 68.879 142.651, 66.307 143.257 C 65.313 143.492, 78.360 143.764, 95.300 143.864 C 121.704 144.018, 126.316 143.826, 127.621 142.522 C 129.576 140.567, 132 140.563, 132 142.515 C 132 143.840, 135.781 143.996, 162.250 143.765 L 192.500 143.500 192.754 71.750 L 193.008 0 178.587 0 C 168.657 0, 164.048 0.356, 163.786 1.143 C 163.500 2, 162.870 2.001, 161.276 1.148 C 158.531 -0.321, 88 -0.442, 88 1.022 C 88 1.560, 87.325 2, 86.500 2 C 85.675 2, 85 1.550, 85 1 C 85 0.349, 70.167 0, 42.502 0 L 0.005 0 0.014 72 M 0.459 44 C 0.459 67.925, 0.589 77.713, 0.749 65.750 C 0.908 53.788, 0.908 34.213, 0.749 22.250 C 0.589 10.288, 0.459 20.075, 0.459 44 M 109 11.500 C 108.306 12.337, 108.197 13, 108.755 13 C 109.305 13, 110.315 12.325, 111 11.500 C 111.694 10.663, 111.803 10, 111.245 10 C 110.695 10, 109.685 10.675, 109 11.500 M 94.500 21 C 94.160 21.550, 94.359 22, 94.941 22 C 95.523 22, 96 21.550, 96 21 C 96 20.450, 95.802 20, 95.559 20 C 95.316 20, 94.840 20.450, 94.500 21 M 165.500 79.792 C 161.781 80.579, 159.252 84, 162.389 84 C 163.968 84, 168.764 80.384, 168 79.770 C 167.725 79.549, 166.600 79.559, 165.500 79.792 M 0.441 116 C 0.441 131.675, 0.579 138.087, 0.748 130.250 C 0.917 122.412, 0.917 109.587, 0.748 101.750 C 0.579 93.912, 0.441 100.325, 0.441 116 M 130.500 90 C 130.160 90.550, 130.359 91, 130.941 91 C 131.523 91, 132 90.550, 132 90 C 132 89.450, 131.802 89, 131.559 89 C 131.316 89, 130.840 89.450, 130.500 90 M 170.128 91.900 C 169.374 92.378, 168.925 93.275, 169.131 93.894 C 169.341 94.524, 170.059 94.135, 170.762 93.010 C 172.163 90.767, 172.097 90.652, 170.128 91.900 M 138.500 102 C 138.840 102.550, 139.316 103, 139.559 103 C 139.802 103, 140 102.550, 140 102 C 140 101.450, 139.523 101, 138.941 101 C 138.359 101, 138.160 101.450, 138.500 102 M 8.705 120.438 C 6.865 122.278, 6.465 124, 7.878 124 C 9.239 124, 11.234 121.202, 10.800 119.900 C 10.538 119.115, 9.852 119.291, 8.705 120.438 M 135 121.378 C 135 121.585, 135.787 122.373, 136.750 123.128 C 138.336 124.371, 138.371 124.336, 137.128 122.750 C 135.821 121.084, 135 120.555, 135 121.378 M 115 123.969 C 115 124.501, 115.675 124.678, 116.500 124.362 C 117.325 124.045, 118 123.609, 118 123.393 C 118 123.177, 117.325 123, 116.500 123 C 115.675 123, 115 123.436, 115 123.969" stroke="none" fill="black" fill-rule="evenodd"/>
</svg>