<svg xmlns="http://www.w3.org/2000/svg" width="192" height="144" viewBox="0 0 192 144" version="1.1">
	<path d="M 64 1.956 C 61.525 2.885, 58.375 4.147, 57 4.760 C 55.625 5.372, 51.350 7.086, 47.500 8.567 C 37.861 12.275, 23.549 19.155, 10.750 26.231 L 0 32.175 0 88.182 L 0 144.190 22.750 143.776 C 39.268 143.476, 47.555 142.898, 53 141.665 C 57.125 140.731, 63.875 139.263, 68 138.402 C 72.125 137.541, 76.850 136.460, 78.500 136 C 80.150 135.540, 83.075 134.874, 85 134.519 C 89.548 133.680, 102.907 129.708, 115.500 125.450 C 142.095 116.457, 164.213 105.243, 183 91.227 L 191.500 84.886 192.023 114.193 C 192.502 141.074, 192.564 139.485, 192.770 95 C 192.894 68.325, 192.700 36.038, 192.338 23.250 L 191.681 0 130.090 0.134 C 74.930 0.253, 68.030 0.444, 64 1.956 M 0.468 88 C 0.468 119.075, 0.594 131.788, 0.749 116.250 C 0.904 100.713, 0.904 75.288, 0.749 59.750 C 0.594 44.213, 0.468 56.925, 0.468 88 M 91.500 38.056 C 88.750 39.700, 84.886 41.749, 82.914 42.610 C 79.127 44.262, 76 48.440, 76 51.845 C 76 52.965, 75.474 54.207, 74.830 54.605 C 74.013 55.110, 73.881 54.751, 74.392 53.414 C 75.085 51.601, 75.025 51.606, 73.269 53.500 C 70.330 56.670, 65 66.540, 65 68.815 C 65 72.272, 73.111 85, 75.315 85 C 75.907 85, 78.216 86.941, 80.446 89.312 C 82.676 91.684, 83.438 92.396, 82.140 90.893 C 78.412 86.578, 80.121 85.444, 84.274 89.477 C 87.869 92.969, 89.322 95.864, 86.750 94.412 C 85.758 93.852, 85.759 93.985, 86.755 95.058 C 87.608 95.977, 90.722 96.431, 96.475 96.475 C 101.757 96.516, 105.404 97.004, 106.171 97.771 C 108.134 99.734, 112.609 99.198, 115.673 96.634 C 117.228 95.333, 120.778 93.118, 123.563 91.712 C 129.719 88.604, 130.480 87.728, 131.995 82 C 132.650 79.525, 134.134 75.800, 135.293 73.722 C 137.238 70.235, 137.296 69.580, 136.052 65.222 C 135.310 62.625, 134.181 58.071, 133.543 55.103 C 132.704 51.200, 131.617 49.123, 129.619 47.603 C 128.099 46.446, 124.525 43.411, 121.677 40.857 C 116.946 36.614, 116.061 36.215, 111.407 36.222 C 108.605 36.227, 104.105 35.969, 101.407 35.649 C 97.157 35.146, 95.831 35.468, 91.500 38.056" stroke="none" fill="black" fill-rule="evenodd"/>
</svg>