<svg xmlns="http://www.w3.org/2000/svg" width="192" height="144" viewBox="0 0 192 144" version="1.1">
	<path d="M 0 57.019 L 0 114.038 2.250 113.574 C 3.488 113.318, 6.598 112.838, 9.161 112.507 C 14.343 111.837, 15.918 109.858, 12.885 107.831 C 11.027 106.589, 10.996 106.297, 12.410 103.470 C 14.373 99.548, 17.239 87.195, 16.473 85.956 C 16.148 85.430, 15.009 85, 13.941 85 C 11.588 85, 11.558 84.462, 13.599 78.876 C 14.557 76.253, 15.162 71.620, 15.109 67.311 C 15.015 59.645, 16.288 57, 20.071 57 C 22.650 57, 25.979 60.459, 26.086 63.250 C 26.518 74.489, 26.745 75.383, 29.881 78.185 C 33.565 81.477, 33.712 82.388, 30.874 84.375 C 28.903 85.756, 28.788 86.505, 29.283 94.682 C 29.577 99.532, 30.153 104.579, 30.564 105.897 C 31.250 108.103, 31.098 108.241, 28.655 107.628 C 25.582 106.857, 25.121 108.371, 27.597 111.107 C 29.089 112.755, 28.941 112.937, 25.347 113.879 C 23.231 114.433, 16.663 115.889, 10.750 117.115 L 0 119.343 0 131.671 L 0 144 31.283 144 L 62.565 144 66.358 132.476 C 68.444 126.138, 70.004 120.525, 69.825 120.003 C 69.646 119.480, 64.325 121.456, 58 124.392 C 51.675 127.329, 41.325 131.600, 35 133.883 C 28.675 136.166, 22.600 138.439, 21.500 138.934 C 17.004 140.955, 10.104 141.990, 7.562 141.024 C 3.050 139.308, 4.530 137.288, 12.034 134.920 C 15.902 133.699, 19.316 132.298, 19.620 131.806 C 20.441 130.477, 17.972 127.934, 16.153 128.237 C 13.741 128.638, 13.543 125.280, 15.934 124.521 C 18.493 123.709, 20.084 124.618, 19.368 126.484 C 18.459 128.853, 19.948 130.284, 21.776 128.799 C 23.144 127.687, 23.280 127.753, 22.719 129.250 C 22.358 130.212, 22.309 131, 22.611 131 C 23.656 131, 36.571 125.665, 50.500 119.478 C 73.388 109.313, 73.607 109.184, 74.868 105.112 C 75.824 102.023, 75.736 101.314, 74.257 100.218 C 73.307 99.512, 71.172 99.062, 69.515 99.218 C 67.012 99.452, 66.539 99.160, 66.729 97.500 C 66.915 95.877, 64.276 94.059, 52.729 87.856 C 44.816 83.605, 38.356 79.498, 38.176 78.603 C 37.624 75.860, 40.744 75.705, 44.201 78.303 C 46.015 79.666, 52.270 83.304, 58.099 86.387 C 68.375 91.820, 68.750 91.934, 70.394 90.117 C 71.872 88.484, 71.937 87.634, 70.899 83.512 C 69.855 79.369, 69.965 78.019, 71.782 72.641 C 72.922 69.263, 74.151 64.723, 74.511 62.551 C 75.025 59.447, 76.505 57.287, 81.417 52.471 C 84.856 49.099, 88.419 46.053, 89.335 45.702 C 90.251 45.350, 91 44.572, 91 43.972 C 91 43.373, 90.588 43.136, 90.085 43.447 C 89.582 43.758, 88.907 43.447, 88.585 42.756 C 88.118 41.753, 87.882 41.752, 87.417 42.750 C 86.627 44.443, 85.679 44.324, 83.261 42.226 C 81.593 40.780, 81.262 39.441, 81.465 34.976 C 81.954 24.242, 88.173 14.748, 96.520 11.993 C 99.911 10.874, 100.683 11.019, 106.015 13.768 L 111.819 16.762 114.414 9.631 C 115.842 5.709, 117.007 1.938, 117.005 1.250 C 117.001 0.264, 104.631 0, 58.500 0 L 0 0 0 57.019 M 119 1.822 C 119 2.824, 119.728 5.781, 120.618 8.394 C 122.236 13.141, 122.236 13.145, 119.583 15.913 C 117.113 18.491, 116.949 19.218, 117.215 26.427 C 117.471 33.376, 117.275 34.353, 115.309 35.948 C 114.104 36.925, 112.453 39.249, 111.641 41.113 C 110.828 42.976, 110.126 43.972, 110.082 43.327 C 110.024 42.505, 109.052 42.626, 106.839 43.730 L 103.678 45.307 109.089 48.017 C 112.065 49.507, 116.179 51.032, 118.231 51.405 C 120.960 51.901, 122.690 53.079, 124.674 55.792 C 129.189 61.966, 129.290 62, 143.157 62 C 152.778 62, 156.757 62.393, 159.272 63.593 L 162.612 65.185 177.306 56.429 L 192 47.673 192 23.836 L 192 0 155.500 0 C 120.856 0, 119 0.093, 119 1.822 M 178.243 60.698 C 169.944 65.521, 165 68.995, 165 70.002 C 165 71.820, 159.013 78, 157.252 78 C 156.618 78, 155.607 77.213, 155.006 76.250 C 154.132 74.850, 154.038 75.150, 154.536 77.750 C 155.228 81.358, 153.831 82.062, 151.023 79.521 C 149.561 78.198, 148.127 78.686, 137.444 84.143 C 130.875 87.499, 124.825 91.046, 124 92.024 C 123.175 93.003, 119.688 95.204, 116.250 96.916 C 112.813 98.628, 110.036 100.585, 110.080 101.264 C 110.124 101.944, 110.912 104.744, 111.830 107.486 L 113.500 112.472 127 118.365 C 146.144 126.723, 145.930 126.633, 152 128.929 C 159.785 131.874, 160.444 132.386, 158.510 133.992 C 157.192 135.085, 155.878 135.018, 150.713 133.590 C 144.820 131.962, 130.134 126.105, 121.555 121.963 C 119.385 120.915, 117.487 120.179, 117.339 120.328 C 117.190 120.477, 119.640 125.828, 122.784 132.219 L 128.500 143.840 160.250 143.920 L 192 144 192 98.500 C 192 73.475, 191.884 53, 191.743 53 C 191.601 53, 185.526 56.464, 178.243 60.698 M 109.636 69.070 C 109.286 70.819, 109 75.601, 109 79.696 C 109 84.982, 108.565 87.578, 107.500 88.643 C 105.674 90.469, 105.560 92.001, 107.250 91.998 C 108.814 91.995, 120.290 86.028, 121.092 84.801 C 121.417 84.302, 122.119 84.031, 122.652 84.197 C 124.326 84.720, 146.982 72.569, 146.991 71.144 C 146.998 70.051, 145.272 69.924, 138.094 70.493 C 132.672 70.922, 127.880 70.793, 125.844 70.162 C 124.005 69.593, 120.475 68.709, 118 68.197 C 115.525 67.685, 112.774 66.957, 111.886 66.578 C 110.650 66.052, 110.123 66.635, 109.636 69.070 M 81.624 74.871 C 79.148 77.455, 78.909 78.206, 79.777 80.670 L 80.775 83.500 82.955 78.703 C 85.744 72.566, 85.235 71.101, 81.624 74.871 M 81.150 87.950 C 81.370 88.610, 81.876 89.116, 82.275 89.075 C 83.471 88.951, 83.239 87.580, 81.950 87.150 C 81.290 86.930, 80.930 87.290, 81.150 87.950 M 21.638 107.500 C 21.322 108.325, 20.336 109, 19.448 109 C 17.083 109, 18.279 111.444, 20.828 111.820 C 22.655 112.088, 23 111.651, 23 109.070 C 23 105.713, 22.531 105.173, 21.638 107.500" stroke="none" fill="black" fill-rule="evenodd"/>
</svg>