<svg xmlns="http://www.w3.org/2000/svg" width="192" height="144" viewBox="0 0 192 144" version="1.1">
	<path d="M 161 4.284 C 161 7.925, 160.576 8.819, 158.175 10.238 C 150.482 14.782, 143.740 24.515, 141.021 35 C 139.259 41.796, 139.113 55.806, 140.792 56.904 C 141.294 57.232, 142.507 59.207, 143.487 61.294 C 145.078 64.680, 150.024 68.643, 151.196 67.471 C 151.443 67.223, 152.963 68.425, 154.573 70.142 C 156.183 71.859, 157.050 73.436, 156.500 73.648 C 152.998 74.995, 152.629 75.784, 154.302 78.339 C 155.207 79.719, 156.859 81.138, 157.973 81.492 C 159.088 81.845, 160 82.478, 160 82.898 C 160 83.623, 166.834 91.681, 171.816 96.830 C 174.114 99.204, 176.359 99.355, 181.250 97.463 C 182.213 97.091, 182.975 97.172, 182.944 97.643 C 182.863 98.883, 172.232 107.189, 168.055 109.276 C 166.100 110.252, 163.818 111.947, 162.984 113.042 C 161.817 114.573, 159.857 115.159, 154.484 115.586 C 147.807 116.116, 138.350 118.683, 139.358 119.691 C 139.621 119.954, 139.390 121.453, 138.843 123.021 C 138.092 125.175, 136.505 126.429, 132.343 128.153 C 129.315 129.409, 126.427 131.202, 125.926 132.139 C 124.616 134.586, 113.991 140.180, 113.492 138.684 C 113.275 138.033, 111.002 130.215, 108.442 121.310 L 103.786 105.121 106.973 101.810 C 108.725 99.990, 111.307 96.815, 112.709 94.756 L 115.258 91.012 120.059 102.136 C 128.112 120.795, 129.407 119.159, 122.954 98.476 C 119.995 88.993, 119.069 84.554, 119.506 81.964 C 120.460 76.318, 118.551 69.863, 115.060 66.927 C 113.377 65.512, 112 63.993, 112 63.552 C 112 61.965, 101.593 41, 100.806 41 C 99.739 41, 99.787 43.449, 100.940 47.884 C 105.254 64.479, 105.215 64.248, 103.840 65.145 C 103.103 65.626, 101.425 65.766, 100.111 65.456 C 95.349 64.332, 89.115 74.099, 93.044 76.527 C 93.705 76.936, 93.150 78.774, 91.532 81.535 C 90.116 83.952, 88.056 90.269, 86.915 95.699 C 84.633 106.550, 84.772 110.963, 87.893 126.786 C 88.947 132.129, 90.098 138.188, 90.450 140.250 L 91.091 144 141.545 144 L 192 144 192 72 L 192 0 176.500 0 L 161 0 161 4.284 M 155.064 66.500 C 155.064 67.050, 155.724 68.374, 156.532 69.441 C 157.339 70.509, 158 70.932, 158 70.382 C 158 69.832, 157.339 68.509, 156.532 67.441 C 155.724 66.374, 155.064 65.950, 155.064 66.500" stroke="none" fill="black" fill-rule="evenodd"/>
</svg>