<svg xmlns="http://www.w3.org/2000/svg" width="192" height="144" viewBox="0 0 192 144" version="1.1">
	<path d="M 0 72 L 0 144 10.500 144 L 21 144 21 137.648 C 21 131.982, 20.412 130.099, 15.560 120.211 C 8.725 106.284, 6.458 98.962, 4.939 85.896 C 3.399 72.645, 4.314 58.356, 7.562 44.941 C 9.651 36.313, 9.874 34.134, 8.862 32.243 C 7.944 30.527, 7.925 29.675, 8.786 28.814 C 10.267 27.333, 23.983 30.951, 32.500 35.068 C 37.807 37.634, 62.336 45, 65.574 45 C 66.252 45, 68.442 41.781, 70.441 37.847 C 75.266 28.350, 79.425 23.266, 83.310 22.118 C 85.064 21.599, 88.864 20.146, 91.753 18.888 C 96.506 16.818, 97.363 16.726, 100.753 17.921 C 105.993 19.767, 110.792 23.581, 111.232 26.248 C 111.436 27.486, 110.958 29.830, 110.169 31.456 C 109.151 33.555, 109.064 34.521, 109.868 34.789 C 111.285 35.262, 111.350 41.477, 109.965 44.066 C 109.395 45.130, 108.270 46, 107.465 46 C 105.022 46, 105.827 49.600, 108.547 50.839 C 109.948 51.478, 111.713 52, 112.470 52 C 113.227 52, 115.202 53.141, 116.859 54.535 C 121.271 58.247, 147.108 62.947, 150.706 60.692 C 151.369 60.277, 153.515 60.606, 155.474 61.425 C 157.433 62.243, 159.141 62.901, 159.268 62.886 C 159.396 62.871, 160.625 63.284, 162 63.802 C 163.375 64.320, 169.225 65.272, 175 65.917 C 192.415 67.860, 192 67.723, 192 71.523 L 192 74.823 186.250 73.491 C 183.088 72.758, 176.043 71.404, 170.595 70.481 C 161.047 68.864, 160.653 68.870, 159.690 70.652 C 157.062 75.508, 150.998 79.645, 140.281 83.895 C 131.389 87.420, 128.395 88.182, 125.144 87.746 L 121.092 87.203 120.439 91.558 C 119.905 95.117, 120.174 96.406, 121.911 98.613 C 123.079 100.099, 123.813 102.031, 123.541 102.907 C 123.023 104.579, 125.013 108.250, 131.250 117.133 C 135.545 123.250, 135.848 124.455, 132.896 123.683 C 130.501 123.057, 130.552 124.135, 133.393 134 C 134.264 137.025, 134.982 140.519, 134.988 141.765 L 135 144.031 163.750 143.765 L 192.500 143.500 192.757 71.750 L 193.013 0 96.507 0 L 0 0 0 72 M 0.474 72.500 C 0.474 112.100, 0.598 128.154, 0.750 108.176 C 0.901 88.198, 0.901 55.798, 0.750 36.176 C 0.598 16.554, 0.474 32.900, 0.474 72.500 M 30.067 42.874 C 29.515 43.905, 27.851 48.743, 26.369 53.624 C 24.005 61.408, 23.631 64.537, 23.331 79.051 C 22.951 97.450, 23.204 98.838, 30.209 116.856 C 34.518 127.942, 34.629 129.718, 31.603 139.250 L 30.096 144 43.519 144 L 56.942 144 73.572 127.046 C 82.718 117.721, 91.940 107.761, 94.065 104.913 C 98.406 99.095, 98.280 97.990, 92.798 93.775 C 83.167 86.371, 82.201 83.791, 86.361 76.588 C 88.820 72.331, 90.414 64.374, 88.985 63.491 C 88.532 63.211, 87.484 63.659, 86.656 64.487 C 85.315 65.828, 84.815 65.802, 82.091 64.246 C 79.762 62.917, 79.182 62.025, 79.660 60.508 C 80.232 58.694, 80.129 58.648, 78.500 60 C 76.858 61.363, 76.764 61.301, 77.356 59.242 C 79.430 52.023, 79.567 52.454, 75.665 53.937 C 73.623 54.714, 73.114 54.543, 72.695 52.942 C 72.417 51.880, 71.585 50.830, 70.845 50.610 C 57.563 46.663, 35.661 41, 33.674 41 C 32.152 41, 30.654 41.779, 30.067 42.874 M 119.434 62.106 C 119.175 62.527, 120.321 65.013, 121.981 67.631 C 123.641 70.249, 125 73.578, 125 75.029 C 125 76.480, 125.257 77.923, 125.571 78.237 C 125.884 78.551, 130.860 77.228, 136.627 75.297 C 146.634 71.945, 147.098 71.665, 146.806 69.148 C 146.532 66.786, 145.874 66.386, 140.500 65.308 C 124.643 62.128, 119.869 61.402, 119.434 62.106 M 93.106 81.202 C 91.937 83.074, 91.998 83.525, 93.572 84.677 C 96.355 86.711, 97.282 86.265, 96.538 83.250 C 95.563 79.302, 94.638 78.750, 93.106 81.202" stroke="none" fill="black" fill-rule="evenodd"/>
</svg>