<svg xmlns="http://www.w3.org/2000/svg" width="192" height="144" viewBox="0 0 192 144" version="1.1">
	<path d="M 63.755 4.805 C 65.054 18.318, 58.343 35.765, 48.255 45.103 C 45.048 48.071, 40.191 51.625, 37.462 53 C 34.733 54.375, 32.275 55.783, 32 56.129 C 31.725 56.475, 27.533 57.541, 22.683 58.500 C 14.372 60.142, 7.692 60.128, 2.250 58.457 L 0 57.767 0 100.883 L 0 144 58.893 144 C 110.992 144, 117.854 143.822, 118.377 142.460 C 118.702 141.614, 118.463 140.112, 117.845 139.124 C 116.904 137.617, 117.816 135.812, 123.514 127.914 C 127.248 122.736, 131.877 115.641, 133.801 112.146 L 137.298 105.792 135.149 101.369 C 133.946 98.893, 133 95.009, 133 92.545 C 133 89.817, 132.383 87.526, 131.377 86.520 C 129.880 85.023, 129.880 84.023, 131.377 73.616 C 132.270 67.412, 133 61.203, 133 59.818 C 133 57.140, 138.697 45.571, 142.570 40.384 C 146.399 35.257, 152.808 32.868, 161.815 33.209 C 168.099 33.448, 169.537 33.807, 169.804 35.205 C 169.983 36.142, 169.200 37.704, 168.065 38.677 C 166.600 39.931, 166 41.639, 166 44.555 C 166 48.171, 165.496 49.076, 161.811 52.083 C 159.507 53.962, 156.591 56.200, 155.331 57.057 L 153.041 58.613 156.450 59.846 C 159.925 61.102, 160.736 62.348, 165.904 74.377 C 168.780 81.070, 168.593 83.501, 165 86.158 C 161.452 88.781, 161.343 89.792, 164.037 95.073 C 167.239 101.348, 178.319 134.009, 178.940 139 L 179.500 143.500 186 143.500 L 192.500 143.500 192.825 129 C 193.003 121.025, 192.837 88.737, 192.455 57.250 L 191.761 0 127.527 -0 L 63.294 -0 63.755 4.805 M 0.459 101 C 0.459 124.925, 0.589 134.713, 0.749 122.750 C 0.908 110.788, 0.908 91.213, 0.749 79.250 C 0.589 67.288, 0.459 77.075, 0.459 101" stroke="none" fill="black" fill-rule="evenodd"/>
</svg>