<svg xmlns="http://www.w3.org/2000/svg" width="192" height="144" viewBox="0 0 192 144" version="1.1">
	<path d="M 0 72 L 0 144 11.750 143.975 L 23.500 143.950 28.296 137.584 C 31.932 132.757, 32.953 130.647, 32.514 128.859 C 32.195 127.561, 32.322 123.706, 32.796 120.291 C 33.472 115.419, 33.370 113.972, 32.320 113.569 C 31.585 113.287, 30.452 111.891, 29.803 110.466 C 28.750 108.156, 28.908 107.640, 31.267 105.688 C 33.559 103.791, 34.250 101.734, 36.455 90.243 C 37.855 82.952, 39 76.589, 39 76.102 C 39 75.615, 37.900 74.941, 36.556 74.603 L 34.111 73.990 35.985 68.544 L 37.859 63.097 34.988 59.484 C 28.024 50.722, 27.015 38.707, 32.579 30.791 C 38.390 22.523, 52.857 14.125, 65.845 11.480 C 69.039 10.830, 69.174 10.622, 68.819 6.900 C 68.614 4.755, 68.684 2.996, 68.974 2.992 C 69.263 2.987, 71.763 5.350, 74.530 8.242 C 77.296 11.134, 81.196 14.726, 83.195 16.225 C 85.297 17.800, 87.902 21.215, 89.369 24.314 C 90.764 27.264, 92.611 30.262, 93.472 30.977 C 94.373 31.725, 97.993 32.348, 101.990 32.443 C 105.814 32.534, 109.227 32.894, 109.575 33.242 C 109.923 33.590, 109.789 35.141, 109.277 36.688 C 108.506 39.014, 107.693 39.555, 104.573 39.816 C 101.208 40.098, 100.875 40.368, 101.481 42.316 C 103.163 47.718, 103.148 49.361, 101.379 53.054 C 100.287 55.335, 98.786 56.982, 97.795 56.989 C 95.545 57.004, 94.646 62.076, 95.814 68.163 C 96.483 71.646, 96.410 72.711, 95.525 72.371 C 94.841 72.109, 93.849 73.518, 93.174 75.709 C 91.398 81.477, 90.670 82.129, 85.389 82.675 C 82.700 82.954, 80.291 83.387, 80.035 83.639 C 78.611 85.040, 82.417 87.465, 88.527 89.048 C 102.145 92.577, 103.485 93.292, 103.622 97.102 C 103.809 102.295, 108.464 114.444, 110.415 114.831 C 111.601 115.067, 111.895 115.757, 111.430 117.219 C 110.847 119.058, 111.081 119.204, 113.639 118.596 C 117.944 117.574, 139.366 117.808, 142.261 118.909 C 143.654 119.439, 145.036 119.631, 145.331 119.336 C 146.018 118.649, 157.134 122.390, 162.999 125.282 C 168.351 127.920, 178 136.921, 178 139.275 C 178 140.188, 176.762 141.617, 175.250 142.450 C 172.662 143.875, 173.089 143.950, 182.500 143.732 L 192.500 143.500 192.757 71.750 L 193.013 0 96.507 0 L 0 0 0 72 M 0.474 72.500 C 0.474 112.100, 0.598 128.154, 0.750 108.176 C 0.901 88.198, 0.901 55.798, 0.750 36.176 C 0.598 16.554, 0.474 32.900, 0.474 72.500 M 117.016 50.481 C 115.381 52.451, 115.611 52.655, 120.474 53.564 L 124.447 54.307 122.854 51.903 C 120.891 48.941, 118.730 48.415, 117.016 50.481 M 21 70.500 C 21 71.325, 21.450 72, 22 72 C 22.550 72, 23 71.325, 23 70.500 C 23 69.675, 22.550 69, 22 69 C 21.450 69, 21 69.675, 21 70.500" stroke="none" fill="black" fill-rule="evenodd"/>
</svg>