<svg xmlns="http://www.w3.org/2000/svg" width="192" height="144" viewBox="0 0 192 144" version="1.1">
	<path d="M 120 1.309 C 120 2.029, 120.661 3.491, 121.468 4.559 C 123.503 7.249, 123.354 9, 121.089 9 C 113.293 9, 98.717 19.340, 95.297 27.296 C 94.309 29.595, 92.572 33.348, 91.439 35.635 C 90.061 38.413, 89.812 39.626, 90.689 39.289 C 91.623 38.931, 92 39.837, 92 42.443 C 92 46.019, 94.337 51.960, 95.776 52.041 C 96.174 52.063, 97.972 53.341, 99.770 54.880 L 103.040 57.679 100.901 60.399 L 98.762 63.118 100.881 65.373 C 102.046 66.614, 103 68.111, 103 68.699 C 103 69.288, 104.139 70.517, 105.532 71.429 C 106.924 72.341, 107.844 73.443, 107.576 73.877 C 107.308 74.311, 108.236 76.355, 109.638 78.419 C 111.098 80.567, 111.974 82.990, 111.688 84.086 C 111.413 85.139, 111.540 86, 111.972 86 C 112.404 86, 113.263 89.402, 113.881 93.560 C 115.536 104.685, 113 108.283, 108.500 101.196 C 102.060 91.054, 101.905 90.707, 102.541 87.814 C 102.891 86.218, 102.643 82.678, 101.988 79.949 C 100.436 73.479, 97.368 71, 90.915 71 C 87.384 71, 85.828 70.533, 85.080 69.250 C 84.175 67.695, 84.057 67.757, 84.030 69.801 C 84.009 71.424, 83.043 72.521, 80.750 73.523 C 72.826 76.989, 70.228 82.385, 72.441 90.778 C 74.184 97.385, 75.331 99.272, 80.069 103.327 C 83.729 106.460, 84.037 107.062, 82.988 109.023 C 81.134 112.486, 77.784 128.793, 77.291 136.750 L 76.842 144 88.671 143.986 L 100.500 143.971 103.500 138.736 L 106.500 133.500 106.802 138.750 L 107.105 144 141.302 143.998 C 171.857 143.997, 175.873 143.811, 179 142.248 C 180.925 141.287, 182.432 140.050, 182.349 139.500 C 182.265 138.950, 182.619 137.713, 183.134 136.750 C 184.633 133.948, 180.783 134.541, 174.516 138.078 C 168.843 141.280, 167 141.242, 167 137.925 C 167 136.849, 165.425 129.876, 163.500 122.430 C 159.642 107.509, 159.560 107, 161 107 C 161.550 107, 162 107.653, 162 108.450 C 162 109.248, 162.615 110.260, 163.367 110.700 C 164.118 111.140, 165.712 113.300, 166.908 115.500 L 169.082 119.500 168.470 112.147 C 167.998 106.474, 168.139 104.968, 169.085 105.553 C 170.008 106.123, 170.143 105.467, 169.630 102.905 C 167.276 91.163, 167.961 88.999, 171.298 97.640 C 172.177 99.918, 173.864 103.293, 175.046 105.140 C 176.886 108.015, 177.110 108.139, 176.598 106 C 176.268 104.625, 175.736 101.700, 175.414 99.500 L 174.828 95.500 177.471 99.750 C 178.924 102.088, 180.364 104, 180.670 104 C 180.976 104, 180.955 102.088, 180.623 99.750 C 180.291 97.413, 179.562 86.806, 179.003 76.179 C 177.885 54.930, 176.090 44.826, 170.494 28.278 C 166.057 15.156, 164.957 13.047, 160.516 9.148 C 157.803 6.766, 155.980 6, 153.022 6 C 149.739 6, 148.829 5.519, 147.341 3 L 145.569 0 132.784 0 C 122.917 0, 120 0.299, 120 1.309" stroke="none" fill="black" fill-rule="evenodd"/>
</svg>