<svg xmlns="http://www.w3.org/2000/svg" width="192" height="144" viewBox="0 0 192 144" version="1.1">
	<path d="M -0 72.005 L -0 144.010 96.250 143.755 L 192.500 143.500 192.757 71.750 L 193.013 0 96.507 0 L 0 0 -0 72.005 M 0.474 72.500 C 0.474 112.100, 0.598 128.154, 0.750 108.176 C 0.901 88.198, 0.901 55.798, 0.750 36.176 C 0.598 16.554, 0.474 32.900, 0.474 72.500 M 90 32.533 C 90 33.493, 89.261 34.820, 88.358 35.480 C 86.905 36.543, 87.164 37.016, 90.608 39.590 C 92.748 41.190, 95.803 43.767, 97.396 45.318 C 100.073 47.925, 100.168 48.260, 98.660 49.768 C 97.153 51.276, 96.981 51.157, 96.390 48.199 C 95.694 44.718, 93.993 44.099, 91.937 46.576 C 90.853 47.883, 90.874 48.308, 92.064 49.061 C 92.854 49.561, 93.820 49.976, 94.211 49.985 C 94.603 49.993, 95.406 51.793, 95.996 53.984 C 96.845 57.140, 96.763 58.557, 95.600 60.806 C 92.721 66.374, 92.195 66.498, 77.169 65.173 C 58.905 63.561, 57.413 63.588, 59 65.500 C 59.685 66.325, 61.260 67, 62.500 67 C 63.740 67, 65.312 67.671, 65.992 68.490 C 66.754 69.409, 68.110 69.760, 69.526 69.404 C 70.850 69.072, 73.818 69.711, 76.538 70.914 C 81.855 73.266, 84.376 73.601, 81.750 71.608 C 78.686 69.282, 79.822 68.764, 87.092 69.175 C 92.461 69.478, 94.416 69.992, 95.141 71.288 C 95.878 72.605, 97.473 73, 102.050 73 C 107.692 73, 108 73.126, 108 75.441 C 108 78.013, 109.234 79.432, 110.431 78.236 C 110.822 77.845, 111.897 77.520, 112.821 77.513 C 114.053 77.503, 114.423 76.769, 114.212 74.750 C 113.869 71.476, 115.643 71.204, 122.866 73.424 C 136.310 77.556, 145 78.552, 145 75.963 C 145 75.510, 146.012 74.995, 147.250 74.820 C 149.044 74.565, 149.520 73.825, 149.600 71.168 C 149.678 68.566, 149.199 67.646, 147.411 66.966 C 146.152 66.487, 144.594 65.110, 143.950 63.906 C 142.837 61.827, 142.330 61.748, 133.925 62.345 C 126.619 62.863, 125.166 62.731, 125.604 61.590 C 125.994 60.572, 124.795 60.022, 121.067 59.509 C 116.323 58.857, 116 58.630, 116 55.956 C 116 54.290, 115.270 52.674, 114.250 52.080 C 112.747 51.205, 112.880 51.057, 115.191 51.030 C 118.668 50.991, 119.841 49.063, 117.403 47.394 C 116.356 46.677, 114.600 45.197, 113.500 44.104 C 112.400 43.012, 110.263 41.652, 108.750 41.084 C 107.237 40.515, 106 39.574, 106 38.993 C 106 37.308, 108.661 36.748, 110.922 37.958 C 114.039 39.627, 113.423 37.689, 110.040 35.188 C 106.552 32.609, 99.886 32.228, 98 34.500 C 96.120 36.765, 93.731 36.424, 94.500 34 C 94.849 32.900, 94.691 32, 94.149 32 C 93.607 32, 92.452 31.727, 91.582 31.393 C 90.511 30.982, 90 31.351, 90 32.533 M 108.393 53.582 C 108.727 54.452, 109 55.407, 109 55.704 C 109 56.002, 109.675 55.685, 110.500 55 C 112.614 53.245, 112.363 52, 109.893 52 C 108.383 52, 107.958 52.448, 108.393 53.582 M 98.037 61.433 C 96.689 63.900, 95.822 66.156, 96.111 66.445 C 96.400 66.734, 98.071 65.491, 99.823 63.683 C 102.543 60.877, 102.825 60.143, 101.748 58.671 C 100.618 57.125, 100.234 57.410, 98.037 61.433" stroke="none" fill="black" fill-rule="evenodd"/>
</svg>