<svg xmlns="http://www.w3.org/2000/svg" width="192" height="144" viewBox="0 0 192 144" version="1.1">
	<path d="M 63.755 4.805 C 65.034 18.110, 58.973 34.038, 48.712 44.341 C 45.295 47.772, 40.700 51.461, 38.500 52.539 C 36.300 53.618, 34.275 54.744, 34 55.042 C 33.363 55.733, 27.035 57.577, 20.132 59.084 C 14.923 60.221, 5.308 59.908, 1.750 58.486 C 0.100 57.826, 0 60.239, 0 100.893 L 0 144 52.929 144 L 105.858 144 107.033 138.250 C 107.680 135.088, 109.470 129.125, 111.011 125 C 115.236 113.694, 116.303 109.884, 116.182 106.542 C 116.121 104.869, 117.030 100.800, 118.201 97.500 C 121.048 89.480, 120.982 79.674, 118.060 76.564 C 115.481 73.819, 115.441 70.980, 117.938 67.806 C 119.004 66.451, 120.173 64.159, 120.536 62.712 C 120.899 61.266, 121.827 59.558, 122.598 58.919 C 124.635 57.228, 124.328 55.178, 121.542 51.867 C 120.190 50.260, 119.338 48.283, 119.649 47.473 C 119.960 46.663, 119.726 46, 119.130 46 C 118.534 46, 117.331 44.909, 116.458 43.576 C 115.046 41.421, 115.033 40.837, 116.341 38.308 C 117.608 35.857, 117.617 35.197, 116.406 33.540 C 114.447 30.861, 114.625 27.997, 116.750 28.012 C 119.716 28.032, 128.763 30.707, 133.309 32.907 C 137.695 35.031, 141 39.826, 141 44.066 C 141 45.165, 141.706 47.737, 142.569 49.782 C 144.048 53.288, 144.788 61.289, 145.456 81 C 145.615 85.675, 146.084 91.002, 146.499 92.838 C 146.924 94.721, 146.715 99.322, 146.018 103.395 L 144.783 110.613 150.254 124.557 C 153.263 132.226, 156.023 139.748, 156.387 141.273 L 157.050 144.046 174.775 143.773 L 192.500 143.500 192.825 129 C 193.003 121.025, 192.837 88.737, 192.455 57.250 L 191.761 0 127.527 -0 L 63.294 -0 63.755 4.805 M 0.459 101 C 0.459 124.925, 0.589 134.713, 0.749 122.750 C 0.908 110.788, 0.908 91.213, 0.749 79.250 C 0.589 67.288, 0.459 77.075, 0.459 101" stroke="none" fill="black" fill-rule="evenodd"/>
</svg>