<svg xmlns="http://www.w3.org/2000/svg" width="192" height="144" viewBox="0 0 192 144" version="1.1">
	<path d="M 0 72 L 0 144 77.500 144 C 120.125 144, 155 143.622, 155 143.161 C 155 141.796, 150.171 140, 146.504 140 C 140.582 140, 135.691 133.775, 135.838 126.426 C 135.890 123.832, 135.355 121.709, 134.462 120.968 C 133.658 120.301, 132.986 118.798, 132.968 117.628 C 132.951 116.457, 132.276 114.626, 131.468 113.559 C 130.661 112.491, 130 110.579, 130 109.309 C 130 107.237, 130.465 107, 134.531 107 C 137.637 107, 139.244 106.528, 139.638 105.500 C 139.955 104.675, 140.616 104, 141.107 104 C 141.598 104, 142.857 103.213, 143.905 102.250 C 144.952 101.288, 146.938 99.721, 148.318 98.769 C 149.830 97.725, 151.510 94.943, 152.546 91.769 C 153.491 88.871, 154.622 86.044, 155.058 85.487 C 155.494 84.930, 154.197 79.459, 152.176 73.331 C 148.687 62.755, 148.347 62.163, 145.500 61.722 C 143.850 61.466, 141.545 61.617, 140.377 62.056 C 139.116 62.530, 137.820 62.420, 137.185 61.785 C 136.427 61.027, 135.088 61.205, 132.575 62.397 C 128.571 64.297, 124.391 64.724, 121.630 63.514 C 119.943 62.774, 119.799 63.099, 120.157 66.847 C 120.548 70.945, 120.434 71.098, 116.792 71.400 C 115.142 71.537, 114.496 60.930, 116.094 59.942 C 116.895 59.447, 116.578 58.845, 115.103 58.055 C 113.101 56.984, 112.983 57.086, 113.562 59.389 C 114.108 61.567, 113.884 61.851, 111.801 61.629 C 107.791 61.202, 106.743 60.033, 107.405 56.724 C 108.135 53.075, 109.503 51.301, 112.927 49.561 C 118.782 46.586, 119.640 46.698, 123.581 50.958 C 125.638 53.181, 127.676 55, 128.109 55 C 128.542 55, 130.111 53.875, 131.595 52.500 C 133.078 51.125, 134.624 50, 135.029 50 C 135.435 50, 136.001 49.105, 136.287 48.012 C 136.850 45.857, 140.682 44, 144.565 44 C 146.805 44, 147 43.618, 147 39.223 C 147 36.500, 146.325 33.481, 145.430 32.204 C 144.029 30.203, 143.258 30.021, 138.251 30.507 C 135.166 30.807, 131.614 31.310, 130.358 31.625 C 128.663 32.050, 127.441 31.464, 125.616 29.349 C 123.304 26.669, 123.257 26.390, 124.829 24.644 C 125.748 23.623, 128.203 21.918, 130.285 20.855 C 132.376 19.788, 133.780 18.454, 133.422 17.874 C 133.009 17.205, 133.909 16.945, 135.908 17.154 C 140.556 17.642, 147.535 12.634, 149.364 7.500 C 150.147 5.300, 151.109 2.712, 151.501 1.750 C 152.176 0.092, 148.195 0, 76.107 0 L 0 0 0 72 M 176 1.322 C 176 3.614, 179.093 11.832, 180.348 12.874 C 181.009 13.422, 183.901 14.183, 186.775 14.565 L 192 15.258 192 7.629 L 192 0 184 0 C 178.035 0, 176 0.336, 176 1.322 M 188.250 47.813 C 186.463 47.986, 185 48.603, 185 49.186 C 185 49.858, 184.462 49.798, 183.528 49.024 C 182.250 47.962, 182.135 48.644, 182.657 54.227 C 183.047 58.405, 182.838 61.435, 182.059 62.890 C 181.136 64.614, 181.133 65.455, 182.044 66.553 C 183.062 67.779, 183.663 67.736, 186.345 66.239 C 191.835 63.177, 192.107 62.604, 191.793 54.779 L 191.500 47.500 188.250 47.813 M 116 56 C 116 56.550, 116.450 57, 117 57 C 117.550 57, 118 56.550, 118 56 C 118 55.450, 117.550 55, 117 55 C 116.450 55, 116 55.450, 116 56 M 180.667 131.667 C 180.300 132.033, 180 133.080, 180 133.992 C 180 135.808, 176.017 140, 174.293 140 C 173.382 140, 172 142.158, 172 143.582 C 172 143.812, 175.208 144, 179.128 144 L 186.256 144 185.621 140.033 C 184.553 133.354, 182.480 129.853, 180.667 131.667" stroke="none" fill="black" fill-rule="evenodd"/>
</svg>