<svg xmlns="http://www.w3.org/2000/svg" width="192" height="144" viewBox="0 0 192 144" version="1.1">
	<path d="M 115.373 3.087 C 110.966 4.365, 109.379 8.478, 110.925 14.618 C 111.566 17.162, 111.957 19.333, 111.795 19.444 C 111.633 19.554, 109.475 20.809, 107 22.233 C 97.738 27.561, 92.830 35.848, 92.731 46.326 C 92.675 52.253, 92.767 52.464, 96.991 56.101 C 99.365 58.146, 101.913 59.587, 102.654 59.303 C 104.441 58.617, 104.361 61.939, 102.532 64.353 C 101.265 66.026, 101.563 66.659, 105.598 70.853 C 108.057 73.409, 110.231 76.400, 110.430 77.500 C 110.629 78.600, 111.499 82.726, 112.363 86.668 C 113.796 93.204, 113.794 94.249, 112.342 98.511 C 110.902 102.736, 110.498 103.137, 108.135 102.685 C 103.935 101.883, 102.040 103.470, 102.657 107.275 C 103.034 109.596, 102.635 111.229, 101.285 112.897 L 99.381 115.247 93.307 109.624 C 89.966 106.531, 86.782 104, 86.231 104 C 84.386 104, 82.365 99.543, 82.151 95 C 81.848 88.551, 79.354 85.577, 73.920 85.181 C 71.510 85.006, 68.968 84.388, 68.270 83.809 C 67.332 83.030, 67 83.181, 67 84.386 C 67 85.351, 65.388 86.661, 63.048 87.597 C 58.323 89.488, 56.594 93.449, 57.585 100.116 C 58.612 107.032, 62.797 112.357, 68.124 113.527 C 71.870 114.350, 72.285 115.216, 71.091 119.727 C 70.542 121.802, 69.629 127.100, 69.063 131.500 C 68.497 135.900, 67.746 140.522, 67.395 141.771 L 66.756 144.041 87.619 143.771 L 108.482 143.500 109.123 140.500 L 109.763 137.500 109.882 140.750 L 110 144 135.500 144 C 149.525 144, 161 143.796, 161 143.547 C 161 143.298, 160.493 141.981, 159.873 140.621 C 158.417 137.425, 159.510 133.011, 161.769 132.965 C 163.544 132.928, 169.202 130.099, 167.628 130.035 C 167.148 130.016, 167.315 129.325, 168 128.500 C 169.039 127.248, 168.898 127, 167.143 127 C 165.986 127, 163.202 127.736, 160.955 128.635 C 158.611 129.572, 156.515 129.892, 156.039 129.385 C 155.582 128.898, 154.433 123.813, 153.486 118.083 C 152.539 112.354, 151.399 106.392, 150.952 104.833 C 150.352 102.741, 150.485 102, 151.461 102 C 152.188 102, 153.066 103.125, 153.411 104.500 C 154.678 109.548, 155.690 106.789, 155.337 99.250 C 155.040 92.880, 155.183 91.901, 156.140 93.750 C 158.035 97.408, 158.804 96.334, 157.870 91.334 C 157.391 88.768, 157.160 86.507, 157.356 86.310 C 157.553 86.113, 158.703 88.663, 159.911 91.976 C 161.119 95.289, 162.348 98, 162.642 98 C 162.935 98, 162.880 96.087, 162.519 93.750 L 161.862 89.500 163.987 92.500 L 166.111 95.500 165.511 81 C 164.649 60.198, 163.191 49.678, 159.829 40 C 158.205 35.325, 156.514 30.093, 156.071 28.373 C 153.612 18.819, 147.138 12.724, 139.759 13.017 C 133.278 13.274, 133.245 13.262, 128.728 9.174 C 124.234 5.108, 119.898 1.941, 119.027 2.090 C 118.737 2.140, 117.093 2.588, 115.373 3.087 M 120.638 80.500 C 120.322 81.325, 120.499 82, 121.031 82 C 121.564 82, 122 81.325, 122 80.500 C 122 79.675, 121.823 79, 121.607 79 C 121.391 79, 120.955 79.675, 120.638 80.500" stroke="none" fill="black" fill-rule="evenodd"/>
</svg>