<svg xmlns="http://www.w3.org/2000/svg" width="192" height="144" viewBox="0 0 192 144" version="1.1">
	<path d="M 0 72 L 0 144 34.841 144 L 69.682 144 70.936 138.396 C 72.072 133.319, 73.886 127.723, 78.466 115.168 C 79.568 112.149, 79.847 109.329, 79.388 105.868 C 78.745 101.023, 78.659 100.916, 75.865 101.530 C 73.290 102.095, 73 101.898, 73 99.579 C 73 97.495, 73.479 97, 75.500 97 C 78.345 97, 78.374 96.888, 76.919 91.647 L 75.849 87.793 73.610 89.897 C 72.379 91.053, 70.138 92, 68.631 92 C 66.260 92, 65.551 91.234, 63.381 86.326 C 62 83.205, 60 79.544, 58.936 78.191 C 57.871 76.838, 57 74.618, 57 73.259 C 57 71.814, 55.962 69.971, 54.500 68.821 C 53.125 67.740, 52 66.375, 52 65.788 C 52 65.201, 51.256 64.177, 50.347 63.512 C 49.377 62.803, 49.011 61.791, 49.462 61.062 C 50.389 59.562, 56.417 60.451, 59.715 62.574 C 60.933 63.358, 62.574 64, 63.361 64 C 64.149 64, 66.189 65.591, 67.896 67.535 C 71.122 71.208, 71.425 70.948, 71.061 64.819 C 70.853 61.328, 71.013 61.122, 74.169 60.819 L 77.497 60.500 78.724 46 C 79.399 38.025, 80.363 30.575, 80.865 29.445 C 81.688 27.596, 81.427 27.380, 78.271 27.291 C 73.079 27.144, 72.194 25.602, 72.757 17.683 L 73.242 10.865 77.371 11.559 C 79.642 11.941, 83.847 13.290, 86.716 14.557 C 92.935 17.303, 98.829 17.176, 107 14.121 C 110.025 12.991, 113.920 12.051, 115.656 12.033 L 118.812 12 118.451 19.121 C 118.253 23.038, 117.831 26.503, 117.512 26.821 C 117.194 27.140, 115.360 27.400, 113.436 27.400 C 110.686 27.400, 110.068 27.731, 110.540 28.950 C 111.399 31.169, 111.761 33.910, 113.101 48.346 L 114.294 61.191 117.039 60.642 C 119.345 60.181, 119.858 60.476, 120.241 62.482 C 120.789 65.346, 119.655 67.523, 118.112 66.569 C 117.500 66.191, 117 66.359, 117 66.941 C 117 67.523, 117.368 68, 117.819 68 C 118.269 68, 119.365 69.463, 120.255 71.250 C 121.548 73.848, 121.885 74.083, 121.936 72.424 C 122.010 70.029, 125.470 66.542, 128.765 65.543 C 131.256 64.787, 130.869 63.034, 128.191 62.942 C 127.261 62.910, 124.998 60.550, 123.162 57.697 C 120.397 53.401, 120.023 52.193, 120.980 50.660 C 121.860 49.251, 121.836 47.640, 120.879 43.903 C 119.787 39.644, 119.828 38.833, 121.191 37.749 C 122.054 37.062, 123.048 35.263, 123.399 33.750 C 123.751 32.237, 124.375 31, 124.787 31 C 125.200 31, 126.304 32.237, 127.242 33.750 C 128.499 35.778, 128.954 36.041, 128.973 34.750 C 129.013 32.146, 131.512 32.634, 132.818 35.500 C 134.046 38.196, 136 38.876, 136 36.607 C 136 33.879, 138.792 34.044, 139.548 36.817 C 140.409 39.975, 140.131 47.386, 139.139 47.759 C 138.759 47.901, 138.618 49.789, 138.824 51.954 C 139.129 55.153, 138.712 56.379, 136.600 58.491 C 135.170 59.921, 134 61.295, 134 61.545 C 134 61.795, 135.773 62, 137.941 62 C 142.443 62, 143.969 63.411, 141.118 64.937 C 139.907 65.585, 139.362 66.667, 139.664 67.823 C 139.984 69.046, 139.275 70.245, 137.574 71.360 C 136.158 72.287, 135 73.768, 135 74.650 C 135 75.533, 133.709 79.010, 132.132 82.377 C 130.555 85.745, 128.764 89.737, 128.154 91.250 C 126.759 94.703, 122.661 94.970, 119.314 91.826 L 117 89.651 117 92.942 C 117 95.740, 117.299 96.155, 118.999 95.711 C 121.406 95.081, 122.351 96.317, 121.504 98.986 C 121.099 100.265, 120.116 100.875, 118.702 100.728 C 116.935 100.543, 116.405 101.160, 115.894 104 L 115.263 107.500 115.132 103.809 C 114.993 99.926, 113.650 98.139, 112.395 100.169 C 110.806 102.742, 112.245 112.436, 115.466 120.849 C 117.288 125.607, 119.819 132.768, 121.090 136.763 L 123.402 144.025 157.951 143.763 L 192.500 143.500 192.757 71.750 L 193.013 0 96.507 0 L 0 0 0 72 M 0.474 72.500 C 0.474 112.100, 0.598 128.154, 0.750 108.176 C 0.901 88.198, 0.901 55.798, 0.750 36.176 C 0.598 16.554, 0.474 32.900, 0.474 72.500 M 57.866 27.583 C 57.792 29.738, 57.830 33.384, 57.950 35.687 C 58.117 38.871, 57.670 40.302, 56.085 41.659 C 53.176 44.150, 53.428 48.946, 56.750 54.347 C 59.568 58.930, 62.600 60.440, 66.782 59.347 C 69.213 58.711, 71.787 52.941, 72.671 46.146 C 73.004 43.591, 73.710 40.948, 74.241 40.274 C 74.922 39.408, 73.924 37.720, 70.853 34.540 C 66.339 29.867, 64 28.857, 64 31.583 C 64 34.422, 61.545 32.430, 60.510 28.752 C 59.046 23.550, 58.020 23.097, 57.866 27.583 M 112.667 93.667 C 111.516 94.817, 111.938 96, 113.500 96 C 114.325 96, 115 95.325, 115 94.500 C 115 92.938, 113.817 92.516, 112.667 93.667" stroke="none" fill="black" fill-rule="evenodd"/>
</svg>