<svg xmlns="http://www.w3.org/2000/svg" width="192" height="144" viewBox="0 0 192 144" version="1.1">
	<path d="M 107.998 2.494 C 108.519 3.865, 109.694 6.129, 110.608 7.525 C 111.523 8.921, 112.097 10.192, 111.885 10.351 C 111.673 10.510, 109.011 11.831, 105.970 13.286 C 102.928 14.742, 98.621 17.488, 96.399 19.390 C 91.707 23.407, 86.514 32.644, 85.518 38.745 C 85.138 41.079, 84.415 43.243, 83.913 43.554 C 82.511 44.420, 82.830 46.002, 84.294 45.441 C 85.182 45.100, 85.664 46.077, 85.831 48.553 C 85.964 50.539, 86.896 53.046, 87.902 54.125 C 90.905 57.348, 96.237 60.971, 97.149 60.408 C 98.362 59.658, 98.202 63.463, 96.900 66.320 C 95.922 68.467, 96.226 69.156, 99.650 72.554 C 106.072 78.925, 108 82.076, 108 86.194 C 108 88.287, 108.384 90, 108.853 90 C 109.323 90, 110.247 93.263, 110.907 97.250 L 112.107 104.500 109.437 106.802 L 106.767 109.104 104.634 106.197 C 103.460 104.598, 101.038 101.357, 99.250 98.995 C 96.506 95.369, 96 93.851, 96 89.251 C 96 78.872, 91.879 74.679, 82.750 75.770 C 79.784 76.125, 79 75.882, 79 74.609 C 79 73.724, 78.520 73, 77.933 73 C 77.337 73, 77.133 73.844, 77.471 74.910 C 77.952 76.425, 77.366 77.054, 74.636 77.955 C 66.424 80.665, 63.754 86.898, 66.601 96.714 C 68.199 102.224, 73.349 108.995, 76.789 110.109 C 77.812 110.440, 77.743 111.454, 76.458 115.013 C 75.567 117.481, 74.456 123.550, 73.989 128.500 C 73.523 133.450, 72.828 138.963, 72.445 140.750 L 71.750 144 85.223 144 L 98.696 144 100.503 139.994 C 101.496 137.791, 102.914 135.486, 103.654 134.872 C 104.752 133.961, 105 134.699, 105 138.878 L 105 144 140.905 144 C 175.924 144, 176.912 143.946, 180.910 141.812 C 183.677 140.335, 184.604 139.374, 183.763 138.854 C 182.770 138.240, 182.770 137.830, 183.758 136.842 C 187.947 132.653, 181.407 133.695, 176.112 138.059 C 169.352 143.631, 167.524 141.615, 162.918 123.505 C 161.366 117.406, 159.802 111.647, 159.441 110.708 C 159.008 109.580, 159.280 109, 160.241 109 C 161.041 109, 162.527 110.842, 163.542 113.093 C 165.230 116.836, 165.456 117, 166.189 115.018 C 166.640 113.800, 166.555 112.036, 165.995 110.991 C 164.571 108.329, 164.694 102.693, 166.158 103.597 C 166.973 104.102, 167.113 103.602, 166.632 101.906 C 166.256 100.583, 165.724 97.250, 165.448 94.500 L 164.948 89.500 168.354 96.617 C 170.228 100.531, 172.265 104.045, 172.880 104.426 C 174.265 105.282, 174.283 105.504, 172.487 99.585 C 171.667 96.882, 171.189 94.478, 171.423 94.243 C 171.658 94.009, 173.075 95.667, 174.571 97.929 C 176.068 100.190, 177.483 101.850, 177.716 101.618 C 177.948 101.385, 177.669 98.563, 177.095 95.347 C 176.521 92.131, 175.553 83.200, 174.944 75.500 C 173.252 54.096, 170.685 43.023, 163.604 26.593 C 161.019 20.594, 157.688 13.982, 156.202 11.899 C 152.398 6.567, 146.849 3.623, 141.867 4.291 C 138.496 4.743, 137.700 4.471, 136.349 2.410 C 134.806 0.055, 134.452 0, 120.910 0 L 107.050 0 107.998 2.494 M 120 85 C 120 85.550, 120.477 86, 121.059 86 C 121.641 86, 121.840 85.550, 121.500 85 C 121.160 84.450, 120.684 84, 120.441 84 C 120.198 84, 120 84.450, 120 85" stroke="none" fill="black" fill-rule="evenodd"/>
</svg>