<svg xmlns="http://www.w3.org/2000/svg" width="192" height="144" viewBox="0 0 192 144" version="1.1">
	<path d="M 151.781 4.816 C 150.330 5.768, 145.189 10.361, 140.357 15.023 C 133.062 22.061, 114.840 37, 113.550 37 C 113.351 37, 113.405 36.167, 113.671 35.149 C 114.135 33.376, 111.752 30, 110.037 30 C 109.586 30, 108.934 31.125, 108.589 32.500 C 108.045 34.669, 107.402 35.003, 103.731 35.022 C 97.484 35.054, 91.679 38.049, 89.674 42.274 C 87.801 46.221, 87.484 50.563, 89 51.500 C 90.691 52.545, 90.109 54, 88 54 C 86.900 54, 86 53.341, 86 52.535 C 86 49.922, 79.925 44.058, 76.001 42.882 C 73.130 42.022, 71.366 42.026, 68.866 42.897 C 65.621 44.028, 65.443 43.940, 61.023 39.028 C 55.782 33.203, 51.108 31, 43.992 31 C 34.102 31, 27.288 36.812, 24.522 47.608 C 21.963 57.598, 24.223 65.018, 31.525 70.586 C 34.462 72.827, 36.409 73.391, 42.579 73.787 C 49.720 74.245, 49.992 74.351, 48.436 76.071 C 47.538 77.062, 47.068 78.301, 47.391 78.824 C 47.714 79.346, 47.308 80.329, 46.489 81.009 C 45.670 81.689, 45 82.640, 45 83.122 C 45 84.660, 47.761 84.064, 48.405 82.387 C 48.911 81.069, 49.300 81.004, 50.536 82.030 C 51.368 82.720, 51.811 83.522, 51.522 83.811 C 51.232 84.101, 51.599 85.049, 52.337 85.919 C 53.075 86.788, 54.231 91.257, 54.906 95.850 C 55.581 100.442, 56.608 105.239, 57.187 106.510 C 58 108.296, 57.872 109.345, 56.620 111.133 C 55.656 112.508, 55 115.451, 55 118.394 C 55 121.576, 54.415 123.989, 53.361 125.154 C 52.459 126.150, 51.587 128.863, 51.421 131.182 C 51.223 133.970, 50.440 135.926, 49.112 136.950 C 48.007 137.803, 46.641 139.738, 46.076 141.250 C 45.082 143.913, 45.157 144, 48.457 144 C 52.023 144, 53.708 141.716, 53.118 137.683 C 52.971 136.684, 54.065 134.742, 55.549 133.367 C 57.846 131.239, 58.168 130.286, 57.720 126.946 C 57.324 123.996, 57.680 122.406, 59.155 120.530 C 60.682 118.588, 61.048 116.808, 60.808 112.484 L 60.500 106.931 67 104.628 C 70.575 103.362, 74.224 102.004, 75.108 101.610 C 76.494 100.994, 76.807 102.114, 77.372 109.697 C 77.733 114.539, 78.300 121.297, 78.632 124.716 C 79.414 132.773, 78.541 137.124, 75.478 140.430 C 74.115 141.900, 73 143.312, 73 143.567 C 73 143.822, 85.665 143.912, 101.144 143.766 L 129.289 143.500 133.622 135.500 C 136.005 131.100, 137.965 126.405, 137.977 125.066 C 138.016 120.855, 134.077 114.285, 126.917 106.618 C 122.720 102.124, 120 98.350, 120 97.021 C 120 95.006, 127.920 66.138, 128.784 65.002 C 128.993 64.727, 129.835 65.402, 130.656 66.502 C 132.119 68.459, 132.205 68.434, 134.884 65.266 C 137.887 61.715, 142.026 51.024, 142.010 46.861 C 141.987 40.736, 135.689 37.811, 129.577 41.087 C 127.492 42.204, 125.522 42.855, 125.200 42.533 C 124.878 42.211, 127.240 39.295, 130.448 36.052 C 135.319 31.130, 136.638 30.292, 138.436 30.976 C 139.961 31.556, 142.130 31.063, 145.866 29.287 L 151.142 26.780 148.847 24.337 C 146.900 22.264, 146.776 21.748, 148.026 20.928 C 149.296 20.096, 149.252 19.772, 147.708 18.590 C 146.028 17.304, 146.208 16.798, 150.572 10.556 C 153.133 6.892, 155.046 3.713, 154.823 3.490 C 154.601 3.267, 153.232 3.864, 151.781 4.816 M 83.042 68.157 C 79.754 72.604, 72.908 75.363, 67.262 74.517 L 62.750 73.840 63.394 77.170 C 63.749 79.001, 64.219 83.141, 64.438 86.369 C 64.658 89.597, 65.212 92.595, 65.669 93.033 C 66.389 93.722, 79.271 88.944, 82.726 86.706 C 83.400 86.269, 85.070 82.269, 86.438 77.816 C 88.854 69.948, 88.873 69.654, 87.110 67.413 L 85.297 65.107 83.042 68.157 M 56.607 115.582 C 55.749 117.817, 55.817 118, 57.500 118 C 58.333 118, 59 117.111, 59 116 C 59 113.616, 57.464 113.347, 56.607 115.582 M 117.394 118.726 C 117.086 119.702, 116.451 121.400, 115.984 122.500 C 115.175 124.406, 115.132 124.394, 115.068 122.250 C 115.030 121.013, 114.559 120, 114.019 120 C 112.970 120, 112.640 121.149, 111.003 130.500 C 110.026 136.087, 110.100 136.621, 112.087 138.250 C 114.476 140.209, 116 140.501, 116 139 C 116 138.450, 116.675 138, 117.500 138 C 118.325 138, 119 137.525, 119 136.944 C 119 136.363, 120.350 133.167, 122 129.841 C 123.650 126.516, 124.994 123.278, 124.988 122.647 C 124.981 122.016, 123.396 120.477, 121.465 119.226 C 118.211 117.118, 117.915 117.082, 117.394 118.726 M 53.607 128.582 C 52.749 130.817, 52.817 131, 54.500 131 C 55.333 131, 56 130.111, 56 129 C 56 126.616, 54.464 126.347, 53.607 128.582 M 48.667 140.667 C 47.516 141.817, 47.938 143, 49.500 143 C 50.325 143, 51 142.325, 51 141.500 C 51 139.938, 49.817 139.516, 48.667 140.667" stroke="none" fill="black" fill-rule="evenodd"/>
</svg>