<svg xmlns="http://www.w3.org/2000/svg" width="192" height="144" viewBox="0 0 192 144" version="1.1">
	<path d="M 0 29.981 L 0 59.962 2.637 60.624 C 6.832 61.677, 25.167 60.288, 29.788 58.568 C 32.105 57.706, 35.912 56.232, 38.250 55.294 C 41.560 53.966, 45.752 53.579, 57.201 53.544 C 71.510 53.501, 71.931 53.439, 72.943 51.222 C 73.515 49.969, 74.662 48.683, 75.491 48.365 C 78.219 47.318, 77.191 45, 74 45 C 70.229 45, 70.229 44.113, 74 40.500 C 76.596 38.013, 77 36.911, 77 32.313 C 77 25.885, 78.483 24.106, 87.331 19.920 C 95.055 16.266, 96.622 16.276, 101.703 20.013 C 105.201 22.586, 106.190 22.878, 108.465 22.013 C 115.131 19.479, 117.226 22.113, 111.876 26.300 L 108.752 28.745 110.846 31.623 C 113.241 34.913, 113.171 37.048, 110.577 39.915 C 109.517 41.087, 109.024 42.620, 109.396 43.590 C 110.011 45.192, 105.745 57.497, 103.898 59.450 C 103.404 59.972, 103.002 60.872, 103.004 61.450 C 103.008 62.752, 110.710 66, 113.794 66 C 116.486 66, 126 70.633, 126 71.944 C 126 73.351, 137.489 80, 139.920 80 C 141.108 80, 143.187 81.238, 144.540 82.750 C 157.138 96.825, 163.676 105.035, 170.500 115.350 C 177.243 125.541, 179.011 127.569, 181.748 128.249 C 185.295 129.130, 188 133.789, 188 139.015 C 188 147.559, 177.688 139.923, 168.993 124.942 C 159.850 109.185, 147.767 94, 144.373 94 C 142.954 94, 140 98.963, 140 101.347 C 140 102.552, 137.787 102.742, 126.750 102.483 C 119.463 102.312, 112.731 101.867, 111.792 101.495 C 109.112 100.433, 108.696 104.431, 110.382 115.052 C 111.207 120.249, 112.196 128.893, 112.579 134.261 L 113.276 144.023 152.540 143.761 L 191.804 143.500 192.441 71.750 L 193.078 0 96.539 0 L 0 0 0 29.981 M 0.443 30.500 C 0.443 47, 0.580 53.890, 0.748 45.812 C 0.915 37.733, 0.916 24.233, 0.748 15.812 C 0.581 7.390, 0.444 14, 0.443 30.500 M 49 59.661 C 42.445 60.681, 37.517 62.280, 33.908 64.558 C 31.735 65.930, 27.666 67.638, 24.864 68.355 C 21.939 69.104, 19.287 70.476, 18.635 71.579 C 16.840 74.617, 17.536 119.958, 19.582 133.245 L 21.238 144 46.651 144 C 66.098 144, 72.158 143.707, 72.467 142.750 C 72.689 142.063, 74.019 137.629, 75.422 132.898 C 77.097 127.252, 79.690 121.668, 82.969 116.646 C 85.716 112.437, 88.229 107.935, 88.554 106.641 C 89.373 103.378, 86.075 75.665, 84.772 74.859 C 84.120 74.456, 83.966 72.614, 84.372 70.077 C 84.920 66.649, 84.733 65.861, 83.266 65.425 C 82.295 65.137, 79.898 64.059, 77.940 63.030 C 72.460 60.150, 57.245 58.379, 49 59.661 M 123.540 80.935 C 123.206 81.476, 123.496 82.822, 124.186 83.926 C 125.277 85.673, 125.056 86.338, 122.469 89.075 L 119.500 92.218 124 91.512 C 128.795 90.760, 134.500 88.006, 134.500 86.444 C 134.500 84.969, 124.236 79.810, 123.540 80.935" stroke="none" fill="black" fill-rule="evenodd"/>
</svg>