<svg xmlns="http://www.w3.org/2000/svg" width="192" height="144" viewBox="0 0 192 144" version="1.1">
	<path d="M 103.525 18.250 C 103.299 18.938, 102.656 22.425, 102.097 26 C 100.007 39.366, 96.752 53.551, 95.433 55.041 C 94.683 55.888, 93.624 60.388, 93.080 65.041 C 91.742 76.484, 84.621 103.820, 82.626 105.172 C 80.997 106.276, 79.045 115.339, 80.148 116.674 C 81.205 117.952, 80.762 121.253, 77.890 133.500 C 76.858 137.900, 76.011 142.063, 76.007 142.750 C 75.996 144.704, 103.950 144.505, 106.559 142.532 C 109.070 140.632, 110.083 140.621, 109.362 142.500 C 108.864 143.797, 111.100 144, 125.912 144 L 143.038 144 142.579 141.750 C 142.327 140.512, 141.857 137.164, 141.534 134.308 C 141.211 131.453, 140.261 127.475, 139.423 125.469 C 138.052 122.188, 138.057 121.345, 139.473 117.081 C 142.028 109.389, 144.706 89.231, 146.657 63 C 147.340 53.825, 145.074 44.920, 141.026 40.873 C 133.486 33.332, 118.328 35.220, 111.776 44.516 C 108.071 49.771, 107.943 53.168, 111.313 56.803 C 112.984 58.606, 113.162 59.282, 112.132 59.919 C 111.216 60.484, 111.097 61.306, 111.739 62.616 C 112.246 63.652, 113.413 65.999, 114.331 67.831 C 115.249 69.663, 116 71.870, 116 72.736 C 116 74.138, 115.801 74.130, 114.171 72.655 C 113.165 71.745, 111.623 71, 110.743 71 C 109.711 71, 108.383 68.960, 106.999 65.250 C 105.820 62.087, 103.996 58.580, 102.946 57.455 C 101.063 55.438, 101.084 55.205, 104.515 40.455 C 106.427 32.230, 108.499 24.262, 109.118 22.749 C 109.977 20.649, 109.949 19.643, 108.999 18.499 C 107.489 16.680, 104.094 16.525, 103.525 18.250 M 96.643 74.250 C 93.419 85.544, 90.113 98.698, 89.491 102.711 C 88.868 106.727, 88.968 106.950, 91.669 107.553 C 93.226 107.901, 97.435 109.269, 101.021 110.593 C 104.608 111.917, 107.870 113, 108.271 113 C 109.964 113, 108.806 107.923, 106.485 105.164 C 102.669 100.629, 98.923 91.649, 98.290 85.522 C 97.676 79.573, 98.833 77, 102.122 77 C 105.185 77, 104.658 71.621, 101.453 70.161 C 100.052 69.522, 98.734 69, 98.524 69 C 98.314 69, 97.467 71.362, 96.643 74.250 M 83.601 127.097 C 82.644 131.550, 82.051 135.384, 82.283 135.617 C 82.873 136.206, 87 123.398, 87 120.979 C 87 116.372, 85.215 119.584, 83.601 127.097" stroke="none" fill="black" fill-rule="evenodd"/>
</svg>