<svg xmlns="http://www.w3.org/2000/svg" width="192" height="144" viewBox="0 0 192 144" version="1.1">
	<path d="M -0 72.005 L -0 144.010 96.250 143.755 L 192.500 143.500 192.757 71.750 L 193.013 0 96.507 0 L 0 0 -0 72.005 M 0.474 72.500 C 0.474 112.100, 0.598 128.154, 0.750 108.176 C 0.901 88.198, 0.901 55.798, 0.750 36.176 C 0.598 16.554, 0.474 32.900, 0.474 72.500 M 79.312 72.344 C 77.233 74.538, 76.761 74.607, 69.856 73.716 C 62.706 72.793, 62.551 72.821, 60.294 75.445 C 57.540 78.647, 57.324 83.078, 59.813 85.331 C 61.661 87.004, 62.777 87.099, 76.096 86.717 C 81.537 86.562, 84.190 86.913, 85.447 87.956 C 87.756 89.872, 90.105 90.158, 91.824 88.731 C 92.896 87.841, 93.065 85.955, 92.558 80.538 C 91.571 69.981, 91.580 69.997, 86.183 70.017 C 82.603 70.030, 80.984 70.579, 79.312 72.344" stroke="none" fill="black" fill-rule="evenodd"/>
</svg>