<svg xmlns="http://www.w3.org/2000/svg" width="192" height="144" viewBox="0 0 192 144" version="1.1">
	<path d="M 99 47.652 C 94.833 49.025, 92.510 50.856, 89.708 54.977 C 85.776 60.759, 84.998 61.229, 82.295 59.458 C 79.691 57.752, 78 57.581, 78 59.025 C 78 59.588, 79.081 60.461, 80.403 60.963 C 83.952 62.312, 84.266 63.516, 82.026 67.190 C 75.961 77.137, 83.394 90.113, 96.786 92.955 C 105.831 94.874, 110.952 93.993, 116.323 89.592 C 118.787 87.573, 121.105 84.716, 121.475 83.245 C 121.844 81.773, 123.013 78.666, 124.073 76.340 C 125.133 74.013, 126 71.588, 126 70.950 C 126 68.017, 120.382 59.040, 115.794 54.642 C 109.084 48.210, 103.881 46.044, 99 47.652" stroke="none" fill="black" fill-rule="evenodd"/>
</svg>