<svg xmlns="http://www.w3.org/2000/svg" width="192" height="144" viewBox="0 0 192 144" version="1.1">
	<path d="M 140.810 2.800 C 144.269 5.670, 144.167 7, 140.490 7 C 137.276 7, 127.359 10.608, 124 13 C 122.089 14.361, 120.327 17.142, 118.905 21.040 C 117.221 25.659, 116.273 27, 114.695 27 C 113.574 27, 111.924 27.663, 111.029 28.474 C 110.133 29.285, 107.622 30.315, 105.450 30.764 C 101.586 31.562, 101.493 31.682, 101.195 36.294 C 100.919 40.566, 101.131 41.099, 103.463 41.986 C 104.878 42.524, 106.452 44.059, 106.961 45.396 C 107.469 46.734, 108.764 48.108, 109.837 48.448 C 110.910 48.789, 112.849 50.628, 114.144 52.534 C 115.440 54.441, 117.016 55.808, 117.646 55.572 C 118.344 55.310, 119.420 57.642, 120.396 61.527 C 122.621 70.384, 122.535 71.351, 119.585 70.611 C 117.234 70.021, 117.151 70.204, 116.466 77.521 C 115.833 84.272, 115.399 85.435, 112.202 88.933 L 108.643 92.829 106.071 90.164 C 104.657 88.699, 101.925 86.309, 100 84.854 L 96.500 82.208 98.668 79.854 C 100.866 77.467, 104.280 68.489, 105.505 61.875 C 106.130 58.498, 106.005 58.250, 103.683 58.250 C 101.592 58.250, 100.992 58.956, 99.965 62.625 C 98.586 67.551, 98.063 67.832, 95.515 65.016 C 91.988 61.120, 84.447 65.670, 85.424 71.105 C 85.681 72.537, 85.221 75.912, 84.402 78.605 C 83.191 82.586, 83.133 84.299, 84.093 87.776 C 84.743 90.127, 85.663 92.291, 86.137 92.585 C 87.631 93.508, 87.087 96.445, 84.384 102.049 C 81.602 107.816, 79.898 119, 81.802 119 C 82.396 119, 83.162 118.547, 83.504 117.993 C 83.847 117.439, 85.471 116.291, 87.114 115.441 C 90.015 113.941, 90.183 113.985, 92.952 116.948 C 94.520 118.627, 96.317 120, 96.947 120 C 97.706 120, 97.876 121.143, 97.452 123.403 C 96.919 126.243, 97.145 126.911, 98.817 127.442 C 99.918 127.791, 101.378 128.751, 102.061 129.573 C 103.074 130.794, 102.935 131.412, 101.307 132.928 C 100.210 133.951, 98.004 135.470, 96.406 136.304 C 94.808 137.139, 92.178 139.212, 90.563 140.911 L 87.626 144 139.874 144 L 192.121 144 191.743 125.250 C 191.330 104.746, 191.620 106.342, 179.582 58.162 C 177.062 48.076, 175 37.813, 175 35.355 C 175 26.634, 173.076 21.928, 167.072 15.967 C 163.486 12.405, 159.937 9.927, 157.113 9.011 C 153.769 7.927, 152.411 6.836, 151.400 4.416 C 149.834 0.668, 148.410 -0.009, 142.168 0.027 L 137.500 0.054 140.810 2.800" stroke="none" fill="black" fill-rule="evenodd"/>
</svg>