<svg xmlns="http://www.w3.org/2000/svg" width="192" height="144" viewBox="0 0 192 144" version="1.1">
	<path d="M 147.846 2.041 C 128.648 7.520, 122.555 13.468, 119.459 29.750 C 118.962 32.364, 118.362 33, 116.392 33 C 112.899 33, 102.328 38.570, 100.486 41.381 C 96.717 47.133, 96.770 53.793, 100.573 52.334 C 101.578 51.948, 102 52.537, 102 54.323 C 102 56.194, 102.592 56.945, 104.250 57.180 C 105.664 57.381, 107.032 58.708, 107.930 60.750 C 109.057 63.310, 109.960 64, 112.180 64 C 118.952 64, 120.779 70.515, 119.091 88.644 C 117.926 101.154, 116.210 109.012, 113.011 116.474 C 110.818 121.591, 109.335 122.050, 106.103 118.610 C 104.094 116.471, 100.832 115.222, 93 113.593 C 89.011 112.763, 81.356 101.378, 80.055 94.339 C 78.801 87.555, 75.194 80.254, 70.008 74 C 67.956 71.525, 65.528 68.037, 64.613 66.250 C 62.902 62.909, 59.398 61.799, 58.440 64.296 C 58.167 65.008, 59.531 68.583, 61.471 72.240 C 63.412 75.897, 65 79.139, 65 79.445 C 65 79.750, 64.070 80, 62.934 80 C 59.493 80, 57.251 81.778, 54.994 86.298 C 52.231 91.830, 52.563 97.193, 55.716 97.961 C 58.139 98.550, 61.789 102.991, 65.613 110 C 66.964 112.475, 69.402 116.300, 71.032 118.500 C 72.662 120.700, 75.346 124.805, 76.998 127.623 C 79.938 132.637, 79.969 132.835, 78.501 136.998 C 77.675 139.338, 77 141.870, 77 142.626 C 77 143.775, 86.395 144, 134.507 144 L 192.014 144 191.757 75.250 L 191.500 6.500 185 3.274 C 178.741 0.167, 178.056 0.049, 166.500 0.095 C 157.833 0.129, 152.652 0.670, 147.846 2.041 M 132.569 87.764 C 132.256 88.077, 132.014 92.421, 132.030 97.417 C 132.061 106.451, 133.041 107.410, 134.417 99.750 C 135.064 96.149, 137.119 94.765, 138.500 97 C 138.840 97.550, 140.216 98, 141.559 98 C 142.902 98, 144 97.550, 144 97 C 144 96.450, 143.382 96, 142.627 96 C 141.872 96, 139.429 94.019, 137.197 91.597 C 134.965 89.176, 132.882 87.451, 132.569 87.764" stroke="none" fill="black" fill-rule="evenodd"/>
</svg>