<svg xmlns="http://www.w3.org/2000/svg" width="192" height="144" viewBox="0 0 192 144" version="1.1">
	<path d="M 49.050 3.872 C 50.990 7.594, 51.568 11.018, 54.115 33.868 L 55.270 44.235 52.143 50.368 C 47.309 59.847, 43.313 70.069, 42.612 74.750 C 42.263 77.087, 41.265 81.096, 40.395 83.658 C 38.950 87.913, 38.951 88.393, 40.407 89.208 C 42.268 90.250, 42.490 94.216, 40.857 97.268 C 39.999 98.871, 39.999 99.500, 40.857 99.786 C 41.485 99.995, 42 100.804, 42 101.583 C 42 102.362, 42.675 103, 43.500 103 C 44.325 103, 45 103.450, 45 104 C 45 105.874, 47.062 105.007, 47.883 102.787 L 48.702 100.574 49.901 102.815 C 51.542 105.881, 53.192 104.636, 51.921 101.292 C 51.370 99.842, 51.173 97.993, 51.483 97.183 C 51.794 96.373, 51.369 94.961, 50.540 94.044 C 49.407 92.792, 49.259 91.645, 49.944 89.439 C 50.445 87.822, 51.379 83.575, 52.019 80.001 C 52.658 76.426, 53.892 71.926, 54.760 70.001 L 56.338 66.500 57.031 71 C 58.103 77.968, 59.791 81.445, 63.031 83.359 C 66.249 85.260, 66.535 85.174, 72.500 80.521 C 77.541 76.588, 84.445 74.800, 91.421 75.620 C 95.881 76.144, 97.700 75.826, 102.302 73.719 C 109.455 70.444, 110.397 68.585, 109.642 59.235 C 109.282 54.774, 109.458 51.012, 110.083 49.845 C 110.656 48.773, 110.959 46.908, 110.755 45.698 C 110.425 43.748, 109.745 44.174, 104.709 49.482 C 99.593 54.876, 98.884 55.312, 97.491 53.920 C 96.098 52.527, 96.146 51.923, 97.980 47.778 C 102.547 37.453, 101.228 28.596, 94.936 27.337 C 91.660 26.682, 90.409 25.484, 91.984 24.510 C 92.543 24.165, 93 22.868, 93 21.629 C 93 20.390, 93.941 17.428, 95.092 15.047 C 97.100 10.890, 97.142 10.115, 95.849 1.250 C 95.709 0.289, 90.039 0, 71.349 0 L 47.032 0 49.050 3.872 M 162 72 L 162 144 177 144 L 192 144 192 72 L 192 0 177 0 L 162 0 162 72" stroke="none" fill="black" fill-rule="evenodd"/>
</svg>