<svg xmlns="http://www.w3.org/2000/svg" width="192" height="144" viewBox="0 0 192 144" version="1.1">
	<path d="M -0 72.005 L -0 144.010 96.250 143.755 L 192.500 143.500 192.757 71.750 L 193.013 0 96.507 0 L 0 0 -0 72.005 M 0.474 72.500 C 0.474 112.100, 0.598 128.154, 0.750 108.176 C 0.901 88.198, 0.901 55.798, 0.750 36.176 C 0.598 16.554, 0.474 32.900, 0.474 72.500 M 162.502 57.117 C 159.204 57.597, 155.288 58.890, 153.801 59.989 C 151.282 61.852, 150.419 61.919, 141.179 60.970 C 124.128 59.221, 114.673 59.329, 111.652 61.309 C 108.312 63.497, 108.328 64.314, 111.750 66.635 C 114.181 68.284, 116.759 68.516, 134 68.636 C 144.725 68.712, 157.720 68.541, 162.877 68.258 C 170.943 67.815, 172.323 67.482, 172.743 65.876 C 173.169 64.244, 173.939 64.080, 178.865 64.568 C 185.170 65.193, 188.061 65.703, 190.407 66.603 C 191.732 67.111, 192 66.380, 192 62.249 L 192 57.285 185.853 56.642 C 178.123 55.834, 170.208 55.995, 162.502 57.117 M 189.250 95.239 C 186.580 100.862, 186.563 101, 188.525 101 C 190.378 101, 192.206 96.564, 191.798 93.059 C 191.532 90.772, 191.261 91.004, 189.250 95.239 M 190.630 114.100 C 190.289 115.804, 188.859 118.567, 187.452 120.239 C 184.118 124.202, 184.550 127.501, 188.750 130.148 L 192 132.196 192 121.598 C 192 115.769, 191.831 111, 191.625 111 C 191.419 111, 190.971 112.395, 190.630 114.100" stroke="none" fill="black" fill-rule="evenodd"/>
</svg>