<svg xmlns="http://www.w3.org/2000/svg" width="192" height="144" viewBox="0 0 192 144" version="1.1">
	<path d="M 56.067 28.882 C 52.742 29.480, 52.622 29.664, 52.246 34.697 C 51.922 39.038, 52.183 40.098, 53.829 41.126 C 54.913 41.803, 55.586 42.915, 55.324 43.597 C 55.062 44.280, 55.624 46.023, 56.573 47.471 C 57.871 49.452, 58.014 50.386, 57.149 51.251 C 56.517 51.883, 56 53.038, 56 53.818 C 56 54.598, 54.657 56.766, 53.014 58.636 C 48.932 63.286, 48.201 66.646, 50.725 69.169 C 52.429 70.874, 52.591 71.808, 51.860 75.722 C 51.391 78.233, 50.614 80.785, 50.134 81.393 C 49.363 82.371, 48.043 87.721, 47.518 92 C 47.417 92.825, 47.055 94.400, 46.714 95.500 C 45.944 97.982, 42.323 125.771, 41.404 136.250 L 40.724 144 60.487 144 L 80.250 144 79.673 141.115 C 79.356 139.529, 78.391 132.829, 77.530 126.228 C 76.668 119.626, 75.072 110.912, 73.982 106.863 C 72.892 102.813, 71.486 97.475, 70.859 95 C 70.232 92.525, 69.107 89.790, 68.359 88.921 C 66.503 86.766, 66.610 86.200, 69.617 82.258 C 71.821 79.368, 72.115 78.249, 71.483 75.164 C 71.069 73.149, 70.788 68.664, 70.858 65.198 C 70.927 61.732, 70.355 57.393, 69.587 55.554 C 68.223 52.288, 68.251 52.199, 70.845 51.657 C 72.691 51.271, 74.063 49.907, 75.345 47.185 C 77.059 43.549, 77.077 43.049, 75.595 40.184 C 74.718 38.488, 74 36.511, 74 35.793 C 74 35.074, 72.410 33.027, 70.466 31.243 C 66.784 27.863, 64.133 27.429, 56.067 28.882 M 126 58.639 C 119.833 60.754, 118.174 62.448, 119.770 65.003 C 121.755 68.182, 121.245 69.699, 116.797 73.848 L 112.594 77.769 108.968 75.480 C 105.066 73.016, 100.337 72.683, 99.519 74.814 C 99.241 75.537, 98.040 75.987, 96.850 75.814 C 95.660 75.641, 94.498 76.052, 94.268 76.726 C 94.004 77.500, 95.324 78.188, 97.849 78.592 C 100.677 79.044, 101.694 79.634, 101.320 80.607 C 100.751 82.092, 100.825 82.125, 108.938 84.015 C 118.552 86.254, 130.595 92.739, 128.685 94.648 C 128.356 94.978, 129.002 97.044, 130.123 99.240 C 132.217 103.346, 132.258 107.913, 130.248 113 C 128.288 117.957, 123.904 137.036, 124.503 138.004 C 124.839 138.549, 126.876 139.276, 129.029 139.621 C 131.624 140.036, 133.144 140.879, 133.539 142.123 C 134.421 144.901, 144.535 144.886, 145.262 142.106 C 145.559 140.970, 147.042 139.930, 148.969 139.507 C 151.670 138.914, 152.080 138.459, 151.547 136.651 C 151.199 135.468, 150.449 131.575, 149.881 128 C 146.670 107.769, 144.696 96.428, 143.911 93.690 C 143.283 91.500, 143.385 90.371, 144.263 89.806 C 147.366 87.808, 156.563 84.954, 161.771 84.374 C 164.922 84.022, 168.175 83.188, 169 82.519 C 169.825 81.851, 171.325 81.010, 172.333 80.651 C 174.909 79.734, 173.869 77.562, 170.673 77.184 C 169.203 77.010, 168 76.500, 168 76.050 C 168 73.533, 163.082 74.712, 152.939 79.661 C 146.799 82.657, 141.597 84.931, 141.380 84.714 C 140.027 83.361, 142.574 78.194, 145.558 76.238 C 153.084 71.304, 150.270 64.485, 140.722 64.518 C 135.198 64.538, 134.040 63.819, 134.015 60.357 C 134.004 58.706, 131.956 56.682, 130.668 57.048 C 130.576 57.074, 128.475 57.790, 126 58.639" stroke="none" fill="black" fill-rule="evenodd"/>
</svg>