<svg xmlns="http://www.w3.org/2000/svg" width="192" height="144" viewBox="0 0 192 144" version="1.1">
	<path d="M -0 72.005 L -0 144.010 96.250 143.755 L 192.500 143.500 192.757 71.750 L 193.013 0 96.507 0 L 0 0 -0 72.005 M 0.474 72.500 C 0.474 112.100, 0.598 128.154, 0.750 108.176 C 0.901 88.198, 0.901 55.798, 0.750 36.176 C 0.598 16.554, 0.474 32.900, 0.474 72.500 M 93.412 116.368 C 92.381 119.055, 93.460 121.491, 95.829 121.829 C 97.894 122.122, 98.105 121.806, 97.819 118.837 C 97.477 115.273, 94.477 113.593, 93.412 116.368" stroke="none" fill="black" fill-rule="evenodd"/>
</svg>