<svg xmlns="http://www.w3.org/2000/svg" width="192" height="144" viewBox="0 0 192 144" version="1.1">
	<path d="M 63.755 4.805 C 65.034 18.110, 58.973 34.038, 48.712 44.341 C 45.295 47.772, 40.700 51.461, 38.500 52.539 C 36.300 53.618, 34.275 54.744, 34 55.042 C 33.363 55.733, 27.035 57.577, 20.132 59.084 C 14.923 60.221, 5.308 59.908, 1.750 58.486 C 0.100 57.826, 0 60.239, 0 100.893 L 0 144 55.853 144 L 111.707 144 112.336 136.750 C 112.683 132.763, 114.114 125.341, 115.517 120.258 C 118.929 107.895, 122 90.848, 122 84.267 C 122 80.339, 121.421 78.135, 119.818 75.968 L 117.637 73.017 121.568 65.259 C 123.731 60.991, 125.509 56.825, 125.520 56 C 125.530 55.175, 124.481 53.651, 123.189 52.614 C 121.738 51.450, 121.021 50.027, 121.316 48.898 C 121.627 47.710, 121.131 46.859, 119.900 46.468 C 117.459 45.693, 116.428 41.551, 117.882 38.359 C 118.785 36.377, 118.708 35.422, 117.509 33.710 C 116.679 32.525, 116 30.699, 116 29.652 C 116 27.437, 118.076 27.661, 129.208 31.080 C 137.048 33.488, 141.557 37.780, 142.497 43.729 C 142.825 45.803, 143.733 48.850, 144.514 50.500 C 145.296 52.150, 146.454 55.750, 147.086 58.500 C 147.719 61.250, 149.309 65.835, 150.618 68.688 C 151.928 71.542, 153 75.719, 153 77.971 C 153 80.370, 154.048 84.134, 155.529 87.058 C 158.507 92.935, 159.711 104.165, 157.555 105.954 C 156.561 106.779, 156.121 106.570, 155.733 105.086 C 155.366 103.685, 154.636 103.283, 153.158 103.669 C 150.957 104.245, 149.030 100.780, 142.497 84.500 C 138.138 73.637, 136.320 73.079, 136.745 82.732 C 136.929 86.929, 137.625 89.131, 139.576 91.689 C 141 93.555, 143.866 100.126, 145.947 106.291 C 148.027 112.456, 152.801 123.474, 156.555 130.776 L 163.379 144.051 177.940 143.776 L 192.500 143.500 192.825 129 C 193.003 121.025, 192.837 88.737, 192.455 57.250 L 191.761 0 127.527 -0 L 63.294 -0 63.755 4.805 M 0.459 101 C 0.459 124.925, 0.589 134.713, 0.749 122.750 C 0.908 110.788, 0.908 91.213, 0.749 79.250 C 0.589 67.288, 0.459 77.075, 0.459 101" stroke="none" fill="black" fill-rule="evenodd"/>
</svg>