<svg xmlns="http://www.w3.org/2000/svg" width="192" height="144" viewBox="0 0 192 144" version="1.1">
	<path d="M 74.454 33.250 C 76.134 40.924, 76.712 47.011, 76.093 50.500 C 75.574 53.420, 75.885 55.704, 77.246 58.962 C 78.272 61.416, 78.860 64.422, 78.554 65.642 C 78.247 66.863, 78.455 69.065, 79.014 70.537 C 79.574 72.009, 80.223 78.003, 80.457 83.857 C 80.787 92.125, 80.449 96.260, 78.941 102.387 C 76.489 112.352, 76.510 113.232, 79.250 115.576 C 85.116 120.593, 89.125 120.310, 91.820 114.689 C 92.966 112.299, 93.560 112.014, 96.320 112.530 C 98.726 112.979, 100.048 112.612, 101.750 111.023 C 103.698 109.204, 104 107.912, 104 101.399 C 104 97.170, 103.291 91.708, 102.381 88.925 C 101.181 85.258, 100.945 82.357, 101.470 77.737 C 102.884 65.302, 101.628 52.133, 98.585 47.489 C 96.172 43.807, 90.836 44.018, 88.068 47.904 C 86.931 49.502, 86 51.500, 86 52.345 C 86 53.970, 84.219 55.552, 83.358 54.692 C 83.079 54.412, 82.748 53.489, 82.623 52.640 C 82.499 51.791, 81.643 50.263, 80.722 49.246 C 79.351 47.730, 77.102 37.406, 77.020 32.250 C 77.009 31.563, 76.316 31, 75.481 31 C 74.426 31, 74.112 31.688, 74.454 33.250 M 80.975 60.530 C 78.873 63.063, 81.145 66.667, 84.844 66.667 C 87.702 66.667, 87.848 66.483, 87.284 63.583 C 86.396 59.012, 83.428 57.575, 80.975 60.530 M 82.440 79.617 C 82.801 81.056, 83.356 83.531, 83.673 85.117 C 84.428 88.888, 85.593 88.783, 86.375 84.875 C 87.627 78.614, 87.221 77, 84.392 77 C 82.078 77, 81.857 77.295, 82.440 79.617" stroke="none" fill="black" fill-rule="evenodd"/>
</svg>