<svg xmlns="http://www.w3.org/2000/svg" width="192" height="144" viewBox="0 0 192 144" version="1.1">
	<path d="M 0 72 L 0 144 39.500 144 C 61.225 144, 79 143.662, 79.001 143.250 C 79.004 140.018, 81.222 119.491, 81.999 115.500 C 83.228 109.188, 83.616 94.297, 82.638 91 C 81.927 88.602, 81.960 88.579, 83.448 90.441 C 84.913 92.273, 85 92.146, 85 88.191 C 85 84.189, 83.733 82.596, 82.662 85.250 C 82.385 85.938, 82.122 85.015, 82.079 83.200 C 82.036 81.386, 81.272 78.492, 80.381 76.770 C 79.002 74.103, 78.935 72.816, 79.931 68.070 C 81.393 61.105, 83.796 55.150, 86.286 52.328 C 88.195 50.164, 88.191 50.150, 85.058 48.530 C 83.329 47.636, 81.495 45.801, 80.982 44.452 C 80.354 42.801, 79.275 42, 77.680 42 C 73.867 42, 72.107 39.181, 72.683 34 C 72.958 31.525, 73.766 28.581, 74.479 27.458 C 75.544 25.777, 75.532 24.955, 74.409 22.812 C 73.247 20.593, 73.256 20.032, 74.474 19.021 C 75.292 18.343, 76.845 18.133, 78.100 18.532 C 80.127 19.175, 80.246 18.981, 79.652 16.009 C 79.148 13.492, 79.313 12.906, 80.405 13.325 C 81.234 13.643, 82.008 13.076, 82.308 11.931 C 83.054 9.076, 84.209 9.510, 89.611 14.671 C 92.300 17.240, 95.819 20.052, 97.431 20.921 C 101.306 23.009, 106.452 32.533, 108.425 41.270 C 109.284 45.076, 111.518 52.310, 113.389 57.345 C 117.814 69.258, 118.480 73.579, 116.688 78.779 C 115.904 81.056, 115.455 83.950, 115.690 85.209 C 115.926 86.469, 114.955 90.580, 113.532 94.345 C 110.949 101.181, 110.947 101.220, 111.630 122.606 L 112.313 144.022 152.407 143.761 L 192.500 143.500 192.757 71.750 L 193.013 0 96.507 0 L 0 0 0 72 M 0.474 72.500 C 0.474 112.100, 0.598 128.154, 0.750 108.176 C 0.901 88.198, 0.901 55.798, 0.750 36.176 C 0.598 16.554, 0.474 32.900, 0.474 72.500" stroke="none" fill="black" fill-rule="evenodd"/>
</svg>