<svg xmlns="http://www.w3.org/2000/svg" width="192" height="144" viewBox="0 0 192 144" version="1.1">
	<path d="M 0 72.012 L 0 144.025 36.141 143.762 C 67.106 143.538, 72.385 143.285, 72.997 142 C 73.390 141.175, 74.710 137.482, 75.931 133.792 C 77.929 127.751, 78.079 125.933, 77.436 115.489 C 76.861 106.155, 76.448 103.998, 75.321 104.430 C 71.890 105.747, 76.398 84.726, 80.028 82.482 C 80.563 82.152, 81 81.009, 81 79.941 C 81 78.873, 81.485 78, 82.078 78 C 82.671 78, 81.546 76.119, 79.578 73.820 C 77.071 70.891, 76 68.671, 76 66.402 C 76 64.621, 75.717 62.425, 75.370 61.522 C 74.934 60.386, 75.395 59.709, 76.870 59.324 C 79.749 58.571, 79.554 57.356, 76.429 56.572 C 73.344 55.797, 73.780 53.393, 76.940 53.752 C 79.093 53.997, 79.139 53.809, 78.463 47.502 C 77.899 42.232, 78.035 41, 79.184 41 C 79.963 41, 81.125 41.525, 81.767 42.167 C 83.136 43.536, 90.026 40.933, 93.750 37.641 C 95.925 35.718, 96 35.056, 96 17.826 L 96 0 48 0 L 0 0 0 72.012 M 96 89.965 L 96 144 108.508 144 C 120.108 144, 120.950 143.873, 120.089 142.250 C 119.578 141.287, 118.163 137.669, 116.943 134.208 C 114.966 128.602, 114.793 126.694, 115.348 116.708 C 115.690 110.544, 115.977 104.657, 115.985 103.628 C 115.998 101.998, 116.216 101.933, 117.663 103.128 C 119.191 104.388, 119.273 104.043, 118.672 98.896 C 118.018 93.298, 114.807 84.617, 112.972 83.482 C 112.437 83.152, 112 81.784, 112 80.441 C 112 79.098, 111.498 78, 110.884 78 C 110.270 78, 111.349 76.250, 113.281 74.111 C 115.214 71.971, 117.089 69.294, 117.449 68.161 C 118.100 66.108, 115.952 60.707, 114.007 59.504 C 112.398 58.510, 112.836 57.276, 115 56.710 C 117.534 56.047, 117.621 54, 115.115 54 C 113.413 54, 113.280 53.384, 113.741 47.637 C 114.296 40.725, 113.295 38.912, 110.580 41.911 C 108.937 43.727, 108.785 43.720, 104.697 41.638 C 102.388 40.462, 100.348 39.157, 100.163 38.739 C 99.977 38.320, 98.965 37.516, 97.913 36.953 C 96.040 35.951, 96 37.060, 96 89.965 M 78.200 64.200 C 77.540 64.860, 77 65.969, 77 66.665 C 77 68.173, 82.819 75, 84.104 75 C 86.033 75, 84.854 71.952, 82.153 69.955 C 80.022 68.380, 79.423 67.240, 79.770 65.425 C 80.289 62.709, 79.953 62.447, 78.200 64.200 M 112.645 65.976 C 113.159 68.546, 112.946 69, 111.223 69 C 109.869 69, 108.848 69.997, 108.150 72 C 106.740 76.043, 108.602 75.996, 112.810 71.881 C 116.458 68.315, 116.884 65.543, 114.020 64.011 C 112.205 63.039, 112.090 63.202, 112.645 65.976 M 101.694 75.639 C 100.895 76.438, 101.798 78, 103.059 78 C 103.577 78, 104 77.325, 104 76.500 C 104 74.954, 102.820 74.513, 101.694 75.639 M 80 121.559 C 80 122.416, 80.457 122.835, 81.016 122.490 C 81.575 122.144, 81.774 121.443, 81.457 120.931 C 80.600 119.544, 80 119.802, 80 121.559" stroke="none" fill="black" fill-rule="evenodd"/>
</svg>