<svg xmlns="http://www.w3.org/2000/svg" width="192" height="144" viewBox="0 0 192 144" version="1.1">
	<path d="M 158.457 49.164 C 157.931 50.278, 155.700 52.153, 153.500 53.332 C 151.300 54.510, 149.292 55.613, 149.038 55.783 C 148.784 55.952, 149.075 56.891, 149.686 57.869 C 150.773 59.609, 150.130 66.363, 148.648 68.760 C 148.273 69.368, 145.532 70.371, 142.558 70.988 C 138.371 71.857, 136.700 71.830, 135.156 70.865 C 133.578 69.880, 132.854 69.876, 131.681 70.850 C 130.400 71.913, 130.679 72.819, 133.743 77.540 C 137.571 83.438, 139.136 84.023, 143 81 C 144.375 79.924, 145.811 79.034, 146.191 79.022 C 146.572 79.010, 146.744 81.588, 146.573 84.750 C 146.241 90.916, 143.997 99.492, 140.859 106.585 C 138.573 111.754, 139.339 114.097, 143.987 116.155 C 145.644 116.888, 147.038 117.941, 147.086 118.494 C 147.336 121.444, 147.120 141.196, 146.835 141.385 C 146.651 141.507, 145.375 142.115, 144 142.736 C 141.932 143.670, 143.141 143.862, 151 143.852 C 160.161 143.840, 160.339 143.797, 156 142.670 L 151.500 141.500 151.537 134.500 C 151.557 130.650, 151.915 125.411, 152.332 122.857 C 153.015 118.673, 153.389 118.170, 156.105 117.771 C 158.576 117.409, 159.363 117.801, 160.475 119.952 C 162.078 123.052, 165 136.615, 165 140.958 C 165 143.684, 165.317 144, 168.059 144 C 170.135 144, 170.886 143.625, 170.397 142.834 C 170.001 142.192, 168.833 136.905, 167.803 131.084 C 166.772 125.263, 165.678 119.326, 165.372 117.891 C 164.931 115.828, 165.252 115.167, 166.907 114.735 C 169.605 114.029, 169.559 111.638, 166.760 107.118 C 162.721 100.596, 158.228 89.247, 159.125 87.832 C 159.589 87.100, 159.976 85.505, 159.985 84.289 C 159.993 83.073, 160.844 81.273, 161.876 80.289 C 164.650 77.643, 165.335 74.478, 163.525 72.668 C 162.135 71.278, 162.203 70.971, 164.214 69.563 C 165.441 68.703, 167.695 68, 169.223 68 C 170.750 68, 172 67.530, 172 66.955 C 172 66.309, 170.709 66.152, 168.620 66.544 C 165.339 67.159, 165.227 67.072, 164.819 63.575 C 164.588 61.594, 164.722 59.450, 165.117 58.811 C 165.531 58.141, 164.566 56.463, 162.841 54.852 C 160.733 52.882, 160.030 51.481, 160.465 50.112 C 161.311 47.445, 159.642 46.657, 158.457 49.164 M 96.174 55.055 C 94.895 56.675, 93.235 58, 92.487 58 C 91.480 58, 91.273 58.976, 91.693 61.750 C 92.005 63.813, 92.652 65.927, 93.130 66.450 C 96.102 69.695, 92.402 72.686, 86.909 71.480 C 84.358 70.920, 83.773 71.151, 83.314 72.905 C 82.895 74.511, 81.977 75, 79.383 75 C 76.488 75, 76 75.343, 76 77.378 C 76 80.546, 78.771 82.974, 80.061 80.936 C 80.561 80.146, 80.976 79.162, 80.985 78.750 C 80.993 78.338, 81.499 78, 82.108 78 C 82.784 78, 82.978 78.952, 82.605 80.439 C 81.739 83.889, 83.505 84.489, 87.064 81.954 C 90.565 79.461, 91.050 79.724, 92.593 84.951 C 93.636 88.481, 93.398 89.513, 89.442 98.634 C 83.735 111.795, 83.718 112.016, 88.247 114.470 L 91.995 116.500 91.997 123.750 C 92 130.598, 91.875 131.001, 89.750 131.015 C 88.513 131.024, 86.843 131.446, 86.040 131.954 C 84.787 132.747, 84.837 133.163, 86.394 134.883 C 87.392 135.986, 89.139 137.026, 90.276 137.194 C 93.671 137.696, 93.579 140, 90.165 140 C 88.514 140, 86.452 140.273, 85.582 140.607 C 83.316 141.477, 83.627 144, 86 144 C 87.100 144, 88 143.550, 88 143 C 88 142.450, 89.125 142, 90.500 142 C 91.875 142, 93 142.450, 93 143 C 93 144.359, 107.697 144.299, 108.539 142.937 C 108.900 142.352, 108.465 141.067, 107.573 140.080 C 106.122 138.477, 106.111 138.152, 107.475 137.021 C 109.455 135.377, 109.404 134.016, 107.305 132.481 C 106.104 131.603, 105.489 129.344, 105.196 124.730 C 104.838 119.114, 105.071 117.929, 106.890 116.110 C 109.509 113.491, 109.511 112.223, 106.908 101.289 C 103.741 87.979, 103.480 81.477, 105.984 78.293 C 107.793 75.993, 107.861 75.503, 106.566 74.073 C 105.650 73.061, 105.421 71.937, 105.953 71.076 C 106.456 70.262, 106.253 68.133, 105.456 65.875 C 104.627 63.525, 104.476 61.824, 105.065 61.460 C 105.591 61.135, 104.667 59.513, 103.011 57.857 C 101.355 56.201, 100 54.206, 100 53.423 C 100 51.263, 98.747 51.798, 96.174 55.055 M 40.422 55.500 C 39.287 58.653, 35.834 62, 33.719 62 C 32.262 62, 31.969 62.431, 32.528 63.750 C 32.937 64.713, 33.217 66.490, 33.151 67.700 C 33.085 68.911, 33.501 70.192, 34.077 70.548 C 36.586 72.098, 36.931 75.901, 34.966 80.343 C 33.297 84.116, 32.242 85.072, 27.756 86.875 C 20.390 89.835, 16.300 90.494, 14.509 89.007 C 13.449 88.127, 11.117 87.969, 6.506 88.462 L -0 89.159 0.008 92.830 L 0.015 96.500 15.758 102.787 C 24.416 106.245, 32.111 109.058, 32.857 109.037 C 33.761 109.012, 33.974 109.584, 33.494 110.750 C 31.761 114.959, 31.751 116.345, 33.446 117.585 C 35.072 118.773, 35.084 119.043, 33.602 121.158 C 30.798 125.161, 31.585 127.653, 36.943 131.735 C 39.662 133.806, 41.912 135.986, 41.943 136.581 C 41.974 137.176, 40.840 138.283, 39.423 139.041 C 38.005 139.800, 36.414 141.226, 35.887 142.210 C 34.993 143.881, 35.682 144, 46.215 143.999 L 57.500 143.998 54.982 141.749 C 48.594 136.042, 40.272 123.986, 41.430 122.114 C 41.711 121.658, 44.317 121.040, 47.221 120.738 C 53.695 120.067, 58 118.208, 58 116.082 C 58 115.204, 55.812 109.989, 53.137 104.493 C 47.626 93.167, 46.633 90.027, 46.930 84.852 C 47.044 82.845, 46.657 80.906, 46.069 80.543 C 44.300 79.449, 44.863 77.269, 47.064 76.694 C 48.899 76.214, 49.092 75.510, 48.814 70.327 C 48.566 65.722, 48.028 64.118, 46.250 62.677 C 45.013 61.675, 44 60.074, 44 59.119 C 44 58.164, 43.357 56.509, 42.571 55.441 C 41.161 53.524, 41.134 53.525, 40.422 55.500 M 173 66.500 C 173 67.417, 173.484 68.005, 174.075 67.808 C 174.666 67.611, 175.150 67.023, 175.150 66.500 C 175.150 65.977, 174.666 65.389, 174.075 65.192 C 173.484 64.995, 173 65.583, 173 66.500 M 138 74.546 C 138 76.426, 139.242 77.044, 140.658 75.869 C 142.599 74.258, 142.306 73.101, 140 73.275 C 138.900 73.358, 138 73.930, 138 74.546 M 28.744 90.914 C 23.732 92.749, 23.472 94, 28.102 94 C 32.480 94, 36.051 92.297, 35.374 90.532 C 34.675 88.712, 34.778 88.706, 28.744 90.914 M 96.646 117.764 C 96.213 118.465, 95.702 126.803, 95.911 129.750 C 95.960 130.438, 97.125 131, 98.500 131 C 100.791 131, 101 130.629, 101 126.565 C 101 119.852, 98.490 114.780, 96.646 117.764" stroke="none" fill="black" fill-rule="evenodd"/>
</svg>