<svg xmlns="http://www.w3.org/2000/svg" width="192" height="144" viewBox="0 0 192 144" version="1.1">
	<path d="M 0 25.250 L 0 50.500 15.250 50.629 C 27.317 50.731, 32.899 51.272, 41.996 53.221 C 54.783 55.961, 57 55.851, 57 52.477 C 57 50.686, 56.568 50.300, 55.016 50.706 C 52.149 51.456, 48 50.194, 48 48.573 C 48 47.809, 50.086 45.037, 52.636 42.413 L 57.273 37.642 57.086 29.872 C 56.898 22.103, 56.899 22.101, 60.725 18.275 C 66.062 12.938, 78.538 6.841, 84.301 6.754 C 87.997 6.698, 89.782 7.374, 94.061 10.448 L 99.297 14.210 104.921 13.017 C 111.357 11.651, 116.162 11.940, 116.749 13.729 C 116.971 14.405, 114.790 17.456, 111.903 20.509 L 106.653 26.060 110.326 29.822 C 113.785 33.364, 115.217 35.870, 113 34.500 C 112.431 34.148, 112 35.008, 112 36.495 C 112 38.020, 110.752 40.440, 109.005 42.304 C 105.426 46.122, 105.380 46.453, 108.159 48.399 C 109.971 49.668, 110.111 50.162, 109.029 51.466 C 107.325 53.519, 101.038 66.190, 101.017 67.615 C 101.008 68.228, 100.115 69.855, 99.034 71.230 L 97.068 73.729 106.579 79.316 C 111.810 82.389, 116.750 84.649, 117.558 84.339 C 119.191 83.713, 136.332 94.654, 135.593 95.850 C 135.339 96.260, 135.440 97.026, 135.816 97.552 C 137.388 99.750, 151.587 110.466, 152.615 110.230 C 153.230 110.089, 154.298 110.655, 154.989 111.487 C 155.680 112.319, 156.701 113, 157.258 113 C 159.207 113, 163.812 119.132, 165.177 123.545 C 165.355 124.119, 168.650 128.955, 172.500 134.291 L 179.500 143.992 186 143.746 L 192.500 143.500 192.688 71.750 L 192.877 0 96.438 0 L 0 0 0 25.250 M 0.435 26 C 0.435 40.025, 0.575 45.763, 0.747 38.750 C 0.919 31.738, 0.919 20.263, 0.747 13.250 C 0.575 6.238, 0.435 11.975, 0.435 26 M 6.750 60.751 L 1 61.100 1 102.562 L 1 144.025 37.750 143.762 L 74.500 143.500 74.218 134 C 74.063 128.775, 73.416 121.350, 72.780 117.500 C 72.144 113.650, 71.588 107.350, 71.545 103.500 C 71.459 95.920, 70.437 92.765, 68.837 95.143 C 68.256 96.007, 68.029 93.915, 68.212 89.393 L 68.500 82.286 63.763 80.606 C 58.660 78.797, 52 72.774, 52 69.969 C 52 67.462, 50.235 66.363, 43.500 64.675 C 31.644 61.704, 16.927 60.132, 6.750 60.751 M 108.035 95.065 C 108.643 96.201, 109.319 98.061, 109.539 99.200 C 110.252 102.903, 111 102.429, 111 98.274 C 111 95.494, 110.501 94.023, 109.418 93.607 C 106.995 92.677, 106.843 92.838, 108.035 95.065 M 129.067 109.874 C 128.294 111.319, 128.516 112.157, 130.032 113.529 C 132.625 115.875, 132.520 116.848, 129.313 120.195 L 126.626 123 133.790 123 C 140.352 123, 141.093 122.787, 142.612 120.469 C 143.525 119.077, 144.097 117.807, 143.885 117.648 C 143.673 117.488, 140.871 115.252, 137.658 112.679 C 134.445 110.106, 131.424 108, 130.944 108 C 130.463 108, 129.619 108.843, 129.067 109.874 M 153.687 133.805 C 152.209 135.347, 151 137.402, 151 138.370 C 151 139.339, 150.534 141.002, 149.965 142.066 C 148.975 143.916, 149.348 144, 158.537 144 L 168.145 144 166.323 141.718 C 159.752 133.491, 157.589 131, 157.020 131 C 156.665 131, 155.165 132.262, 153.687 133.805 M 110.992 139.239 C 110.171 140.474, 109.140 142.050, 108.700 142.742 C 108.069 143.736, 111.431 143.985, 124.700 143.929 L 141.500 143.859 137.388 142.029 C 133.122 140.131, 126.114 138.560, 117.492 137.570 C 113.069 137.063, 112.310 137.258, 110.992 139.239" stroke="none" fill="black" fill-rule="evenodd"/>
</svg>