<svg xmlns="http://www.w3.org/2000/svg" width="192" height="144" viewBox="0 0 192 144" version="1.1">
	<path d="M 0 72 L 0 144 89.535 144 C 175.676 144, 179.034 143.931, 178.100 142.187 C 176.427 139.061, 168.629 132.455, 163.715 130 L 159 127.645 159 115.382 C 159 108.285, 158.579 102.858, 158 102.500 C 157.450 102.160, 157 100.724, 157 99.309 C 157 97.894, 156.002 95.108, 154.782 93.118 C 152.370 89.185, 152.278 89.056, 148.381 84.196 C 145.679 80.826, 134.966 73, 133.055 73 C 132.475 73, 132 72.618, 132 72.152 C 132 71.685, 130.200 70.492, 128 69.500 C 122.992 67.242, 122.900 65.340, 127.448 58.034 C 129.320 55.027, 130.669 52.274, 130.447 51.914 C 130.225 51.555, 125.984 50.944, 121.022 50.556 C 112.543 49.892, 111.963 49.703, 111.385 47.399 C 110.202 42.686, 113.712 32.699, 120.378 21.812 C 126.431 11.925, 132 1.729, 132 0.533 C 132 0.240, 102.300 0, 66 0 L 0 0 0 72" stroke="none" fill="black" fill-rule="evenodd"/>
</svg>