<svg xmlns="http://www.w3.org/2000/svg" width="192" height="144" viewBox="0 0 192 144" version="1.1">
	<path d="M 138.539 2.937 C 138.237 3.426, 139.186 4.697, 140.647 5.762 C 144.068 8.253, 143.171 9.568, 137.524 10.342 C 132.585 11.019, 126.126 13.938, 124.061 16.427 C 123.343 17.292, 122.204 18, 121.530 18 C 120.855 18, 120.266 19.342, 120.219 20.987 C 120.097 25.297, 119.352 26, 114.910 26 C 112.258 26, 110.741 26.511, 110.347 27.537 C 110.023 28.383, 108.212 29.720, 106.323 30.510 C 103.014 31.892, 102.899 32.119, 103.194 36.714 C 103.458 40.836, 103.888 41.669, 106.357 42.848 C 107.929 43.598, 109.954 45.511, 110.857 47.100 C 111.761 48.688, 113.049 49.990, 113.721 49.994 C 114.392 49.997, 116.110 52.587, 117.538 55.750 C 118.967 58.912, 120.780 62.694, 121.568 64.154 C 123.786 68.265, 123.391 69.187, 119.554 68.856 C 117.658 68.693, 115.913 68.771, 115.675 69.030 C 115.437 69.288, 114.974 71.975, 114.645 75 C 114.317 78.025, 114.038 80.551, 114.024 80.614 C 114.011 80.677, 112.151 82.009, 109.891 83.575 C 105.869 86.363, 105.753 86.381, 104.403 84.461 C 101.929 80.944, 97.695 77, 96.392 77 C 93.954 77, 93.838 74.877, 96.022 70.230 C 97.442 67.210, 98.412 62.748, 98.763 57.626 C 99.238 50.696, 99.074 49.528, 97.462 48.349 C 94.654 46.295, 94.322 46.629, 94.248 51.577 C 94.174 56.469, 93.370 58.217, 92.124 56.200 C 91.702 55.517, 90.264 55.159, 88.928 55.405 C 87.593 55.650, 85.938 55.885, 85.250 55.926 C 84.563 55.967, 84 56.675, 84 57.500 C 84 58.325, 83.615 59, 83.144 59 C 82.674 59, 82.028 62.453, 81.708 66.674 C 81.244 72.818, 81.532 75.579, 83.156 80.526 L 85.184 86.704 82.008 92.332 C 80.261 95.427, 78.623 99.431, 78.369 101.230 C 78.114 103.028, 77.716 105.063, 77.484 105.750 C 76.919 107.427, 77.407 107.343, 82.072 104.963 L 86.065 102.926 89.320 106.378 C 91.373 108.555, 93.947 110.087, 96.288 110.526 C 98.330 110.909, 100 111.457, 100 111.743 C 100 112.030, 99.024 113.843, 97.832 115.772 C 95.780 119.092, 95.758 119.350, 97.422 120.567 C 99.221 121.882, 98.849 126, 96.933 126 C 96.420 126, 95.145 126.788, 94.101 127.750 C 93.056 128.713, 90.919 130.669, 89.351 132.099 C 84.912 136.145, 81 141.066, 81 142.603 C 81 145.187, 84.830 144.029, 87.677 140.585 C 91.192 136.332, 95.906 132.573, 96.713 133.380 C 97.048 133.714, 96.531 134.860, 95.566 135.927 C 94.291 137.336, 93.996 138.704, 94.485 140.933 L 95.159 144 143.579 144 L 192 144 192 139.931 C 192 137.694, 190.424 131.104, 188.499 125.289 C 186.573 119.473, 184.568 112.191, 184.043 109.107 C 180.329 87.299, 177.751 72.548, 175.461 60 C 174.005 52.025, 172.519 41.675, 172.157 37 C 171.634 30.239, 170.924 27.521, 168.687 23.714 C 165.489 18.274, 158.291 12.518, 152.750 10.970 C 149.735 10.128, 149 9.447, 149 7.497 C 149 6.011, 148.136 4.608, 146.771 3.877 C 143.882 2.331, 139.241 1.801, 138.539 2.937" stroke="none" fill="black" fill-rule="evenodd"/>
</svg>