<svg xmlns="http://www.w3.org/2000/svg" width="192" height="144" viewBox="0 0 192 144" version="1.1">
	<path d="M -0 72.005 L -0 144.010 96.250 143.755 L 192.500 143.500 192.757 71.750 L 193.013 0 96.507 0 L 0 0 -0 72.005 M 0.474 72.500 C 0.474 112.100, 0.598 128.154, 0.750 108.176 C 0.901 88.198, 0.901 55.798, 0.750 36.176 C 0.598 16.554, 0.474 32.900, 0.474 72.500 M 89 76.902 C 89 77.533, 87.859 78.483, 86.464 79.014 C 84.075 79.922, 83.963 80.282, 84.525 85.239 C 85.762 96.160, 86.607 97, 96.343 97 C 103.585 97, 106 95.125, 106 89.502 C 106 87.091, 106.450 84.840, 107 84.500 C 107.550 84.160, 108 83.201, 108 82.370 C 108 80.578, 105.498 77.836, 104.643 78.691 C 104.315 79.018, 103.759 78.535, 103.407 77.618 C 102.932 76.381, 102.431 76.227, 101.472 77.023 C 100.697 77.667, 99.947 77.723, 99.601 77.164 C 98.979 76.157, 93.369 76.297, 92.321 77.345 C 91.971 77.696, 91.080 77.481, 90.342 76.869 C 89.352 76.047, 89 76.056, 89 76.902" stroke="none" fill="black" fill-rule="evenodd"/>
</svg>