<svg xmlns="http://www.w3.org/2000/svg" width="192" height="144" viewBox="0 0 192 144" version="1.1">
	<path d="M 0 9.385 L 0 18.770 5.339 19.437 C 8.721 19.859, 11.630 19.670, 13.275 18.920 C 16.523 17.441, 19 18.318, 19 20.947 C 19 22.711, 19.296 22.822, 21.423 21.853 C 22.758 21.245, 25.404 21.041, 27.312 21.399 C 29.999 21.903, 31.071 22.773, 32.082 25.274 C 32.799 27.049, 33.849 28.813, 34.415 29.196 C 34.981 29.579, 35.457 31.981, 35.472 34.533 C 35.496 38.453, 35.966 39.558, 38.500 41.655 C 40.150 43.020, 44.129 46.599, 47.341 49.609 C 51.879 53.859, 52.995 55.463, 52.341 56.791 C 51.879 57.731, 51.581 62.325, 51.680 67 C 51.840 74.588, 52.581 77.646, 58.584 95.500 C 63.874 111.235, 65.409 117.153, 65.783 123.250 C 66.222 130.427, 66.113 131, 64.309 131 C 63.237 131, 61.370 132.139, 60.159 133.532 C 58.182 135.806, 57.464 135.998, 53.107 135.420 C 47.741 134.708, 47.486 134.894, 46.479 140.258 L 45.777 144 66.831 144 L 87.885 144 84.411 138.750 C 82.500 135.863, 80.704 132.375, 80.419 131 C 80.134 129.625, 79.496 126.925, 79 125 C 78.504 123.075, 77.849 120.285, 77.543 118.801 C 77.238 117.317, 74.759 113.555, 72.035 110.443 C 69.311 107.330, 66.328 102.807, 65.405 100.392 C 64.483 97.976, 63.339 96, 62.864 96 C 62.389 96, 62.045 94.537, 62.100 92.750 C 62.209 89.178, 63.723 83.599, 63.931 86 C 64.026 87.101, 64.363 86.967, 65.195 85.500 C 65.819 84.400, 66.609 83.275, 66.951 83 C 68.083 82.091, 73.998 72.678, 74.128 71.579 C 74.198 70.985, 74.387 69.600, 74.548 68.500 C 75.324 63.207, 75.167 61.031, 73.580 55.100 C 72.270 50.205, 72.150 48.525, 73.071 47.956 C 73.852 47.473, 74.020 46.212, 73.548 44.356 C 71.194 35.086, 72.285 28.676, 77.924 18.636 C 79.066 16.603, 80 13.629, 80 12.029 C 80 10.428, 80.450 8.840, 81 8.500 C 82.113 7.812, 82.328 4.019, 81.393 1.582 C 80.853 0.176, 76.304 0, 40.393 0 L 0 0 0 9.385 M 0 81.921 L 0 144 14.955 144 L 29.909 144 30.554 140.565 C 31.410 136.001, 30.609 135, 26.101 135 C 23.059 135, 22.103 134.521, 21.204 132.549 C 20.204 130.353, 19.535 130.118, 14.794 130.296 L 9.500 130.494 9.805 126.650 C 10.157 122.218, 13.278 115.269, 19.078 106 C 21.315 102.425, 24.757 96.125, 26.727 92 C 30.055 85.029, 30.319 83.776, 30.471 74.250 C 30.562 68.612, 30.335 64, 29.967 64 C 28.671 64, 22.688 83.550, 22.878 87.166 C 23.042 90.281, 22.794 90.759, 21.226 90.349 C 19.366 89.862, 17 93.332, 17 96.547 C 17 97.346, 16.559 98, 16.019 98 C 14.609 98, 13.664 93.430, 14.357 89.963 C 15.075 86.377, 13.916 86.153, 11.474 89.405 C 7.706 94.423, 5 89.130, 5 76.738 C 5 69.159, 5.250 68.271, 10.165 58.356 C 15.296 48.006, 15.322 47.907, 14.165 42.893 C 13.524 40.118, 13 36.307, 13 34.424 C 13 31.302, 12.741 31, 10.059 31 C 6.245 31, 5.566 29.740, 7.433 26.130 C 9.201 22.711, 8.397 21.637, 3.250 20.536 L 0 19.841 0 81.921 M 36.136 68.168 C 36.061 69.086, 35.709 70.661, 35.353 71.668 C 34.853 73.082, 34.987 73.241, 35.937 72.365 C 36.615 71.741, 36.968 70.166, 36.721 68.865 C 36.474 67.564, 36.211 67.251, 36.136 68.168 M 15.543 84.931 C 15.226 85.443, 15.378 86.115, 15.879 86.425 C 16.380 86.735, 17.048 86.316, 17.364 85.494 C 17.986 83.874, 16.483 83.409, 15.543 84.931 M 36.630 140.250 C 35.696 143.735, 35.828 144, 38.500 144 C 40.611 144, 41 143.533, 41 141 C 41 138.729, 40.543 138, 39.117 138 C 38.009 138, 36.985 138.927, 36.630 140.250" stroke="none" fill="black" fill-rule="evenodd"/>
</svg>