<svg xmlns="http://www.w3.org/2000/svg" width="192" height="144" viewBox="0 0 192 144" version="1.1">
	<path d="M -0 72.005 L -0 144.010 96.250 143.755 L 192.500 143.500 192.757 71.750 L 193.013 0 96.507 0 L 0 0 -0 72.005 M 0.474 72.500 C 0.474 112.100, 0.598 128.154, 0.750 108.176 C 0.901 88.198, 0.901 55.798, 0.750 36.176 C 0.598 16.554, 0.474 32.900, 0.474 72.500 M 112 62.969 C 112 63.501, 111.333 63.681, 110.517 63.368 C 109.638 63.031, 107.177 64.435, 104.467 66.820 C 99.291 71.376, 97.337 71.853, 82.252 72.238 C 73.312 72.467, 72.004 72.721, 72.002 74.227 C 71.999 76.702, 75.721 78.778, 81.525 79.539 C 88.041 80.393, 93.626 78.835, 99.663 74.480 C 102.323 72.560, 105.175 70.700, 106 70.347 C 111.220 68.111, 116.345 62, 113 62 C 112.450 62, 112 62.436, 112 62.969" stroke="none" fill="black" fill-rule="evenodd"/>
</svg>