<svg xmlns="http://www.w3.org/2000/svg" width="192" height="144" viewBox="0 0 192 144" version="1.1">
	<path d="M -0 72.005 L -0 144.010 96.250 143.755 L 192.500 143.500 192.757 71.750 L 193.013 0 96.507 0 L 0 0 -0 72.005 M 0.474 72.500 C 0.474 112.100, 0.598 128.154, 0.750 108.176 C 0.901 88.198, 0.901 55.798, 0.750 36.176 C 0.598 16.554, 0.474 32.900, 0.474 72.500 M 143.500 71.441 C 142.950 71.652, 141.270 72.096, 139.766 72.428 L 137.031 73.030 140.117 78.917 C 141.814 82.155, 144.620 86.174, 146.352 87.848 C 148.232 89.666, 157.854 94.740, 170.241 100.446 C 181.649 105.701, 191.212 110, 191.491 110 C 191.771 110, 192 105.599, 192 100.219 L 192 90.439 184.750 86.735 C 180.762 84.697, 173.225 80.467, 168 77.333 C 159.169 72.037, 158.007 71.615, 151.500 71.346 C 147.650 71.187, 144.050 71.229, 143.500 71.441" stroke="none" fill="black" fill-rule="evenodd"/>
</svg>