<svg xmlns="http://www.w3.org/2000/svg" width="192" height="144" viewBox="0 0 192 144" version="1.1">
	<path d="M 67.213 65.847 C 65.542 66.908, 64.867 78.936, 66.207 83.788 C 66.765 85.808, 68.564 89.414, 70.206 91.799 C 73.251 96.225, 73.523 99.378, 71.519 107.003 C 70.292 111.673, 72.404 114.581, 79.593 118.120 C 84.436 120.505, 88.074 121.537, 92.659 121.829 C 99.516 122.266, 102 121.189, 102 117.782 C 102 115.230, 105.861 109.796, 107.120 110.574 C 107.652 110.903, 108.752 110.621, 109.564 109.947 C 110.410 109.244, 114.876 108.585, 120.037 108.400 C 131.060 108.006, 137.068 105.704, 139.539 100.925 C 141.732 96.685, 140.948 90.186, 137.952 87.760 C 135.447 85.732, 131.001 85.405, 130.998 87.250 C 130.996 87.938, 129.745 87.037, 128.217 85.250 C 126.690 83.463, 125.097 82, 124.678 82 C 124.259 82, 121.123 80.711, 117.708 79.136 C 109.267 75.242, 94.473 70.225, 83.002 67.367 C 72.964 64.865, 69.314 64.514, 67.213 65.847 M 131.250 92.662 C 130.563 92.940, 130 94.228, 130 95.524 C 130 98.186, 128.441 99.669, 127.653 97.756 C 127.309 96.920, 126.221 97.503, 124.400 99.500 C 121.983 102.151, 121.874 102.541, 123.464 102.849 C 124.453 103.040, 126.284 102.651, 127.533 101.982 C 128.781 101.314, 130.369 100.956, 131.062 101.187 C 132.482 101.661, 136.339 98.346, 137.246 95.872 C 138.305 92.985, 134.929 91.178, 131.250 92.662" stroke="none" fill="black" fill-rule="evenodd"/>
</svg>