<svg xmlns="http://www.w3.org/2000/svg" width="192" height="144" viewBox="0 0 192 144" version="1.1">
	<path d="M 0 72 L 0 144 4.025 144 C 7.425 144, 8.201 143.602, 9.025 141.435 C 9.665 139.752, 9.656 138.226, 9 137 C 7.499 134.195, 7.781 132.219, 10 130 C 11.506 128.494, 12 126.667, 12 122.607 C 12 119.094, 12.455 117.039, 13.305 116.713 C 14.023 116.438, 15.226 114.252, 15.979 111.856 C 16.732 109.460, 17.720 107.072, 18.174 106.550 C 18.628 106.027, 19 105.172, 19 104.650 C 19 104.127, 17.647 105.567, 15.994 107.850 C 12.606 112.526, 11.990 112.752, 9.655 110.171 C 7.391 107.670, 7.578 105.269, 10.099 104.469 C 12.469 103.716, 15.710 97.059, 19.037 86.103 C 21.301 78.652, 21.150 76, 18.464 76 C 16.791 76, 16.865 75.318, 19.304 68.206 C 20.171 65.679, 20.145 64.514, 19.192 63.206 C 15.620 58.300, 13.584 52.232, 13.587 46.500 C 13.592 37.536, 16.140 33.473, 25.684 27.211 C 33.706 21.947, 40.116 19.765, 51.250 18.506 L 57 17.856 57 13.928 C 57 11.768, 57.426 10, 57.947 10 C 58.467 10, 60.570 12.587, 62.619 15.750 C 64.669 18.913, 67.371 22.627, 68.624 24.004 C 69.877 25.380, 72.270 29.525, 73.943 33.214 C 77.187 40.368, 79.639 42.456, 84.500 42.203 C 86.150 42.117, 88.374 42.711, 89.443 43.524 C 91.047 44.745, 91.213 45.481, 90.395 47.751 C 89.597 49.966, 88.874 50.443, 86.668 50.207 C 84.119 49.934, 83.948 50.151, 84.165 53.378 C 84.456 57.707, 81.104 64.973, 78.809 64.989 C 76.240 65.006, 75.675 66.707, 75.903 73.745 C 76.044 78.085, 75.765 79.973, 75.049 79.530 C 74.464 79.169, 73.691 79.689, 73.330 80.687 C 72.970 81.684, 71.787 83.780, 70.703 85.343 C 68.883 87.967, 68.387 88.135, 64.286 87.520 C 60.065 86.887, 59.858 86.969, 60.171 89.149 C 60.446 91.065, 61.738 91.808, 68 93.648 C 72.125 94.860, 76.930 95.885, 78.677 95.926 C 80.887 95.977, 82.505 96.827, 83.989 98.713 L 86.123 101.426 91.311 99.533 C 98.657 96.853, 113.735 96.304, 121.980 98.416 C 133.696 101.418, 143.516 107.273, 152.306 116.500 C 155.748 120.112, 166 135.498, 166 137.050 C 166 137.399, 162.738 138.993, 158.750 140.592 L 151.500 143.500 170.971 143.772 C 181.679 143.922, 191.017 143.824, 191.721 143.554 C 192.743 143.161, 193 128.713, 193 71.531 L 193 0 96.500 0 L 0 0 0 72 M 0.474 72.500 C 0.474 112.100, 0.598 128.154, 0.750 108.176 C 0.901 88.198, 0.901 55.798, 0.750 36.176 C 0.598 16.554, 0.474 32.900, 0.474 72.500 M 116.750 59.572 C 113.709 61.222, 113.417 62.017, 115.200 63.800 C 117.194 65.794, 119.749 65.161, 121.902 62.137 C 124.929 57.887, 122.284 56.570, 116.750 59.572 M 14.500 70 C 14.160 70.550, 14.359 71, 14.941 71 C 15.523 71, 16 70.550, 16 70 C 16 69.450, 15.802 69, 15.559 69 C 15.316 69, 14.840 69.450, 14.500 70" stroke="none" fill="black" fill-rule="evenodd"/>
</svg>