<svg xmlns="http://www.w3.org/2000/svg" width="192" height="144" viewBox="0 0 192 144" version="1.1">
	<path d="M -0 72.005 L -0 144.010 96.250 143.755 L 192.500 143.500 192.757 71.750 L 193.013 0 145.050 0 L 97.088 0 96.743 7.250 L 96.397 14.500 96.199 7.250 L 96 0 48 0 L 0 0 -0 72.005 M 0.474 72.500 C 0.474 112.100, 0.598 128.154, 0.750 108.176 C 0.901 88.198, 0.901 55.798, 0.750 36.176 C 0.598 16.554, 0.474 32.900, 0.474 72.500 M 93.033 38.576 C 93.015 39.717, 91.882 41.702, 90.515 42.986 C 89.149 44.269, 87.750 46.816, 87.407 48.644 C 86.939 51.136, 85.547 52.856, 81.841 55.518 C 78.424 57.974, 76.297 60.474, 74.946 63.625 C 72.804 68.622, 73.034 70.065, 75.852 69.328 C 76.869 69.062, 78.443 69.585, 79.348 70.491 C 80.417 71.560, 81.783 71.910, 83.247 71.489 C 84.486 71.133, 86.287 70.622, 87.250 70.353 C 88.510 70.002, 89 70.444, 89 71.933 C 89 73.070, 88.495 74, 87.878 74 C 87.125 74, 87.077 74.412, 87.733 75.250 C 90.519 78.810, 89.598 83.099, 81.044 106.397 C 79.226 111.349, 79.069 112.751, 80.061 115.147 C 80.941 117.272, 81.921 118, 83.899 118 C 88.473 118, 91.180 120.671, 90.816 124.828 C 90.482 128.656, 92.076 129.912, 94.936 128.075 C 96.120 127.314, 96.144 126.879, 95.074 125.589 C 93.120 123.235, 94.386 121.160, 97.421 121.740 C 100.211 122.274, 100.731 123.869, 98.758 125.842 C 97.770 126.830, 97.820 127.278, 99.008 128.040 C 102.035 129.982, 103.518 128.692, 103.182 124.411 C 102.878 120.541, 103.040 120.286, 106.932 118.531 C 110.239 117.039, 111 116.189, 111 113.983 C 111 112.491, 110.167 110.197, 109.149 108.885 C 105.867 104.655, 104.683 101.814, 105.892 101.067 C 106.496 100.693, 107.086 99.063, 107.203 97.444 C 107.320 95.825, 107.884 94.176, 108.458 93.781 C 109.166 93.292, 109.099 92.415, 108.250 91.044 C 107.563 89.935, 106.997 88.234, 106.994 87.264 C 106.990 86.294, 106.394 84.363, 105.669 82.973 C 103.840 79.469, 103.023 76, 104.025 76 C 105.022 76, 104.713 71.962, 103.575 70.121 C 102.269 68.009, 104.576 66.700, 110.465 66.211 C 113.509 65.959, 116 65.376, 116 64.915 C 116 63.228, 120.445 60, 122.768 60 C 124.938 60, 125.096 59.700, 124.481 56.750 C 124.107 54.962, 122.834 52.738, 121.651 51.806 C 119.311 49.964, 112.591 48, 108.625 48 C 107.001 48, 105.394 46.958, 104.002 45.002 C 102.828 43.354, 100.672 41.705, 99.211 41.338 C 97.750 40.971, 95.770 39.733, 94.811 38.586 L 93.067 36.500 93.033 38.576" stroke="none" fill="black" fill-rule="evenodd"/>
</svg>