<svg xmlns="http://www.w3.org/2000/svg" width="192" height="144" viewBox="0 0 192 144" version="1.1">
	<path d="M -0 72.005 L -0 144.010 96.250 143.755 L 192.500 143.500 192.757 71.750 L 193.013 0 96.507 0 L 0 0 -0 72.005 M 0.474 72.500 C 0.474 112.100, 0.598 128.154, 0.750 108.176 C 0.901 88.198, 0.901 55.798, 0.750 36.176 C 0.598 16.554, 0.474 32.900, 0.474 72.500 M 83.270 38.262 C 83.610 39.147, 83.350 40.052, 82.694 40.273 C 81.074 40.818, 83.462 43.670, 87.123 45.564 C 91.681 47.921, 95.097 51.585, 94.408 53.379 C 93.469 55.826, 92.313 55.337, 91.150 52 C 89.994 48.685, 88.860 48.259, 87.036 50.456 C 85.657 52.119, 86.444 54, 88.520 54 C 89.310 54, 90.392 55.742, 90.996 57.984 C 91.845 61.140, 91.763 62.557, 90.600 64.806 C 87.735 70.347, 87.453 70.406, 70.456 68.996 C 61.931 68.289, 54.696 67.971, 54.378 68.289 C 53.288 69.378, 55.118 71, 57.437 71 C 58.712 71, 60.299 71.656, 60.965 72.458 C 61.745 73.397, 63.166 73.717, 64.965 73.357 C 66.702 73.010, 69.551 73.592, 72.505 74.899 C 78.447 77.528, 79.909 77.573, 76.861 75.033 L 74.500 73.067 81.260 73.033 C 86.808 73.006, 88.327 73.359, 89.732 75 C 91.078 76.572, 92.682 77, 97.222 77 C 102.608 77, 103 77.158, 103 79.333 C 103 81.259, 103.524 81.667, 106 81.667 C 108.476 81.667, 109 81.259, 109 79.333 C 109 77.454, 109.535 77, 111.750 77.001 C 114.769 77.002, 127.332 79.460, 133.247 81.208 C 136.430 82.148, 137.287 82.050, 138.934 80.560 C 140.001 79.594, 141.330 79.086, 141.887 79.430 C 143.362 80.342, 145.118 76.476, 144.245 74.241 C 143.835 73.191, 141.793 70.844, 139.707 69.025 C 135.971 65.767, 135.803 65.726, 128.468 66.281 C 124.373 66.591, 120.799 66.485, 120.528 66.045 C 120.256 65.606, 118.038 64.743, 115.598 64.129 C 111.817 63.177, 111.062 62.557, 110.486 59.936 C 109.979 57.630, 110.241 56.544, 111.531 55.601 C 113.118 54.441, 113.047 54.182, 110.626 52.278 C 109.182 51.142, 108 49.524, 108 48.684 C 108 47.823, 106.470 46.650, 104.500 46 C 102.022 45.182, 101 44.250, 101 42.806 C 101 40.739, 101.483 40.711, 106.500 42.477 C 107.762 42.922, 107.208 42.051, 105 40.118 C 101.081 36.687, 95.166 35.890, 93 38.500 C 91.631 40.149, 87.507 40.607, 88.500 39 C 88.840 38.450, 88.453 38, 87.641 38 C 86.828 38, 85.374 37.697, 84.408 37.326 C 83.075 36.815, 82.801 37.040, 83.270 38.262 M 103.393 57.582 C 103.727 58.452, 104 59.407, 104 59.704 C 104 60.002, 104.670 59.689, 105.489 59.009 C 107.204 57.585, 106.596 56, 104.334 56 C 103.333 56, 103.001 56.559, 103.393 57.582 M 93.170 65.124 C 90.185 70.313, 91.167 71.295, 95.255 67.207 C 98.064 64.398, 98.269 63.841, 96.973 62.545 C 95.676 61.249, 95.221 61.558, 93.170 65.124 M 116.500 67 C 116.840 67.550, 117.541 68, 118.059 68 C 118.577 68, 119 67.550, 119 67 C 119 66.450, 118.298 66, 117.441 66 C 116.584 66, 116.160 66.450, 116.500 67" stroke="none" fill="black" fill-rule="evenodd"/>
</svg>