<svg xmlns="http://www.w3.org/2000/svg" width="192" height="144" viewBox="0 0 192 144" version="1.1">
	<path d="M -0 72.005 L -0 144.010 96.250 143.755 L 192.500 143.500 192.757 71.750 L 193.013 0 96.507 0 L 0 0 -0 72.005 M 0.474 72.500 C 0.474 112.100, 0.598 128.154, 0.750 108.176 C 0.901 88.198, 0.901 55.798, 0.750 36.176 C 0.598 16.554, 0.474 32.900, 0.474 72.500 M 68.862 50.018 C 67.961 50.544, 66.931 52.137, 66.575 53.559 C 66.002 55.839, 65.549 56.075, 62.713 55.565 L 59.500 54.986 62.750 56.675 C 66.297 58.517, 66.641 59.571, 64.583 62.285 C 63.625 63.547, 60.499 64.477, 53.904 65.462 C 47.812 66.372, 44.176 67.406, 43.417 68.445 C 42.745 69.363, 41.567 69.771, 40.627 69.410 C 34.738 67.150, 47.281 81.202, 54.811 85.301 C 59.076 87.622, 61.029 87.970, 72.060 88.379 C 92.066 89.119, 119.944 85.653, 133.002 80.801 C 138.378 78.804, 146.825 73.898, 147.380 72.451 C 147.898 71.102, 141.013 60.428, 138.220 58.250 C 136.007 56.523, 118.625 56.647, 103 58.500 C 85.598 60.564, 86.631 60.713, 87.340 56.250 C 88.083 51.582, 87.120 49.894, 84.158 50.669 C 82.535 51.093, 82.084 51.724, 82.579 52.881 C 83.469 54.964, 83.228 59.172, 82.158 60.242 C 81.701 60.699, 79.791 61.314, 77.914 61.610 C 75.133 62.047, 74.251 61.737, 73.158 59.939 C 72.390 58.676, 72.207 57.468, 72.731 57.116 C 74.070 56.214, 75.090 53, 74.036 53 C 73.540 53, 72.849 52.100, 72.500 51 C 71.793 48.772, 71.247 48.625, 68.862 50.018 M 53.250 55.689 C 54.212 55.941, 55.788 55.941, 56.750 55.689 C 57.712 55.438, 56.925 55.232, 55 55.232 C 53.075 55.232, 52.288 55.438, 53.250 55.689" stroke="none" fill="black" fill-rule="evenodd"/>
</svg>