<svg xmlns="http://www.w3.org/2000/svg" width="192" height="144" viewBox="0 0 192 144" version="1.1">
	<path d="M 86.179 2.957 C 84.598 6.530, 85.456 10.140, 88.585 13.079 C 91.695 16.001, 91.630 18.671, 88.286 25.490 C 85.463 31.246, 83.745 32.060, 83.154 27.922 C 82.679 24.593, 81.170 23, 78.493 23 C 76.365 23, 76.246 23.357, 76.494 28.993 C 76.752 34.844, 76.678 35.036, 73.346 37.095 C 68.992 39.786, 65 45.639, 65 49.331 C 65 53.298, 67.951 59.233, 69.607 58.597 C 71.783 57.762, 72.457 60.192, 70.457 61.655 C 69.022 62.705, 68.875 63.275, 69.804 64.204 C 70.462 64.862, 71 65.817, 71 66.327 C 71 66.837, 68.985 65.397, 66.522 63.127 C 62.410 59.336, 61.598 59, 56.557 59 C 51.886 59, 50.561 59.446, 47.653 62 C 43.727 65.447, 43.101 65.530, 37 63.401 C 26.787 59.837, 14.430 66.108, 10.963 76.612 C 6.854 89.063, 17.596 106, 29.602 106 C 33.295 106, 40.158 103.944, 42.187 102.230 C 44.338 100.412, 46 101.428, 46 104.559 C 46 107.263, 47.732 107.861, 48.648 105.474 C 49.088 104.330, 49.565 104.224, 50.563 105.052 C 51.499 105.829, 51.626 106.853, 50.992 108.520 C 49.616 112.140, 51.089 135.332, 52.912 138.739 C 53.430 139.707, 54.098 141.287, 54.396 142.250 C 54.720 143.299, 55.928 144, 57.410 144 C 59.816 144, 59.873 143.832, 59.512 137.750 C 59.308 134.313, 58.704 130.375, 58.170 129 C 56.940 125.834, 58.594 123.898, 62.775 123.609 L 65.797 123.399 63.280 126.700 C 60.769 129.991, 60.768 130, 62.947 130 C 64.148 130, 66.011 129.529, 67.086 128.954 C 70.442 127.158, 71.048 128.805, 68.970 134.077 C 66.615 140.052, 66.527 141.185, 68.629 138.500 C 70.114 136.603, 70.158 136.673, 69.490 139.875 C 68.998 142.236, 69.119 143.045, 69.893 142.566 C 70.502 142.190, 71 142.359, 71 142.941 C 71 143.660, 79.465 144, 97.329 144 L 123.657 144 125.774 134.595 C 127.405 127.353, 127.667 124.377, 126.915 121.655 C 125.727 117.353, 120.729 110.583, 111.750 101.112 C 106.370 95.438, 105 93.358, 105 90.863 C 105 89.141, 104.496 86.050, 103.880 83.994 C 102.901 80.725, 103.089 79.435, 105.382 73.704 C 106.823 70.100, 108.526 63.785, 109.166 59.670 C 109.970 54.496, 110.709 52.335, 111.561 52.662 C 112.388 52.979, 113.021 51.485, 113.483 48.121 C 114.840 38.259, 108.669 25.559, 102.755 26.039 C 101.515 26.139, 100.202 26.172, 99.839 26.111 C 99.475 26.050, 99.811 23.285, 100.585 19.967 C 101.359 16.649, 102.284 10.799, 102.640 6.967 L 103.287 0 100.227 0 C 98.092 0, 96.600 0.778, 95.292 2.574 L 93.417 5.148 92.040 2.574 C 90.579 -0.154, 89.010 -0.834, 88.985 1.250 C 88.973 2.207, 88.790 2.218, 88.207 1.300 C 87.696 0.498, 87.025 1.046, 86.179 2.957 M 67.411 86.101 C 66.360 87.263, 63.813 88.890, 61.750 89.716 C 59.688 90.541, 58 91.765, 58 92.434 C 58 93.770, 62.747 98.597, 63.395 97.921 C 64.495 96.773, 70.139 84.806, 69.759 84.426 C 69.518 84.185, 68.461 84.939, 67.411 86.101 M 52 113.441 C 52 114.234, 52.450 115.160, 53 115.500 C 53.550 115.840, 54 115.191, 54 114.059 C 54 112.927, 53.550 112, 53 112 C 52.450 112, 52 112.648, 52 113.441 M 105.385 122.902 C 106.131 132.788, 107.112 135.964, 109.967 137.747 C 111.585 138.758, 111.908 138.412, 112.821 134.693 C 113.388 132.387, 114.109 128.475, 114.423 126 C 114.990 121.532, 114.958 121.473, 109.843 117.614 L 104.693 113.728 105.385 122.902 M 55.079 119.583 C 55.127 120.748, 55.364 120.985, 55.683 120.188 C 55.972 119.466, 55.936 118.603, 55.604 118.271 C 55.272 117.939, 55.036 118.529, 55.079 119.583 M 52.500 126 C 52.160 126.550, 52.359 127, 52.941 127 C 53.523 127, 54 126.550, 54 126 C 54 125.450, 53.802 125, 53.559 125 C 53.316 125, 52.840 125.450, 52.500 126 M 55.597 138.844 C 55.251 139.404, 55.455 140.163, 56.050 140.531 C 57.588 141.481, 58.580 140.180, 57.296 138.896 C 56.578 138.178, 56.019 138.161, 55.597 138.844" stroke="none" fill="black" fill-rule="evenodd"/>
</svg>