<svg xmlns="http://www.w3.org/2000/svg" width="192" height="144" viewBox="0 0 192 144" version="1.1">
	<path d="M 44.502 4.750 C 44.846 7.362, 45.858 12.771, 46.751 16.768 L 48.374 24.036 51.131 21.018 C 56.068 15.612, 62.449 17.736, 63.090 25 C 63.543 30.130, 62.945 33.055, 61.058 34.942 C 58.461 37.539, 58.864 40.874, 61.969 42.502 C 65.896 44.561, 69.812 49.198, 82.422 66.720 C 88.842 75.642, 94.569 83.234, 95.148 83.592 C 96.644 84.516, 98.454 82.386, 110.517 65.500 C 122.205 49.138, 126.103 44.562, 130.162 42.435 C 132.870 41.015, 133.098 38.275, 130.757 35.278 C 127.410 30.995, 128.482 21.041, 132.578 18.357 C 137.449 15.166, 144.248 22.264, 143.920 30.197 C 143.822 32.564, 144.029 35.625, 144.380 37 C 144.731 38.375, 144.452 40.586, 143.759 41.913 C 142.652 44.036, 142.892 45.121, 145.754 50.913 C 151.645 62.837, 154.554 83.964, 152.060 96.701 C 151.543 99.340, 150.937 106.112, 150.712 111.750 L 150.304 122 154.702 122 C 159.105 122, 163.837 123.815, 167.400 126.871 C 169.209 128.423, 169.269 128.374, 168.654 125.843 C 168.299 124.381, 167.713 122.417, 167.353 121.477 C 166.790 120.011, 166.994 119.927, 168.783 120.884 C 172.688 122.974, 173.400 122.008, 170.353 118.750 C 163.668 111.601, 162.622 108.647, 162.315 96.056 C 161.987 82.628, 162.574 80.835, 166.463 83.384 C 167.911 84.333, 169.906 84.972, 170.895 84.805 C 171.884 84.637, 173.458 85.135, 174.393 85.911 C 175.875 87.141, 176.437 87.064, 178.788 85.309 C 180.271 84.202, 181.896 81.858, 182.400 80.099 C 183.160 77.452, 182.942 76.438, 181.136 74.201 C 179.936 72.715, 177.408 69.188, 175.518 66.362 C 173.353 63.124, 170.952 60.830, 169.028 60.160 C 165.066 58.779, 164.456 56.951, 166.585 52.840 C 173.106 40.247, 160.126 15.562, 141.140 4.448 L 133.542 0 108.462 0 C 88.493 0, 82.990 0.287, 81.460 1.406 C 79.808 2.614, 79.154 2.614, 76.818 1.406 C 74.834 0.380, 70.015 0, 58.988 0 L 43.877 0 44.502 4.750 M 41.500 26.982 C 39.850 28.064, 38 30.153, 37.389 31.624 C 35.948 35.092, 37.255 40.976, 39.951 43.160 C 41.078 44.073, 42 45.044, 42 45.316 C 42 45.589, 39.750 49.635, 37 54.307 C 34.250 58.980, 32 63.009, 32 63.263 C 32 63.516, 33.125 63.508, 34.500 63.245 C 36.785 62.808, 37 63.070, 37 66.302 C 37 70.215, 37.816 73, 38.962 73 C 39.374 73, 40.496 69.364, 41.457 64.919 C 42.417 60.475, 44.664 53.934, 46.451 50.385 C 48.237 46.836, 49.279 43.672, 48.765 43.355 C 48.252 43.038, 47.928 40.691, 48.045 38.139 C 48.510 28.001, 48.100 25, 46.250 25.007 C 45.288 25.010, 43.150 25.899, 41.500 26.982" stroke="none" fill="black" fill-rule="evenodd"/>
</svg>