<svg xmlns="http://www.w3.org/2000/svg" width="192" height="144" viewBox="0 0 192 144" version="1.1">
	<path d="M 85.146 34.935 C 76.164 37.225, 68.767 41.732, 55.500 53 C 40.024 66.144, 32.659 70.403, 21.845 72.463 C 14.502 73.863, 11.961 75, 16.178 75 C 21.665 75, 30.727 79.206, 49.676 90.548 C 60.579 97.075, 72.839 103.868, 76.919 105.645 C 90.762 111.674, 104.504 112.357, 117.294 107.653 C 124.970 104.829, 131.366 100.710, 145.500 89.485 C 157.958 79.591, 165.149 75.819, 172.750 75.188 C 175.637 74.948, 178 74.451, 178 74.084 C 178 73.716, 175.966 72.871, 173.479 72.206 C 170.992 71.541, 166.155 69.260, 162.729 67.139 C 159.303 65.017, 149.525 58.930, 141 53.613 C 132.475 48.295, 121.371 41.871, 116.325 39.337 C 107.676 34.993, 106.614 34.710, 97.825 34.404 C 92.696 34.226, 86.991 34.464, 85.146 34.935 M 90.684 53.498 C 82.692 56.245, 77.740 61.632, 75.916 69.560 C 73.757 78.948, 78.023 87.738, 86.930 92.250 C 93.572 95.615, 99.656 95.829, 105.685 92.910 C 118.617 86.650, 121.840 70.470, 112.266 59.873 C 106.636 53.641, 97.832 51.040, 90.684 53.498" stroke="none" fill="black" fill-rule="evenodd"/>
</svg>