<svg xmlns="http://www.w3.org/2000/svg" width="192" height="144" viewBox="0 0 192 144" version="1.1">
	<path d="M 83.667 43.667 C 82.469 44.864, 82.965 49.017, 84.604 51.519 C 86.121 53.834, 86.061 54.220, 83.504 58.583 C 81.536 61.941, 81.099 63.499, 81.900 64.300 C 83.510 65.910, 83.247 69.092, 81.166 73.173 C 80.158 75.151, 79.252 78.899, 79.154 81.501 C 79.056 84.102, 78.777 86.551, 78.536 86.942 C 78.294 87.334, 77.793 92.163, 77.422 97.675 L 76.747 107.697 81.370 109.599 C 87.692 112.199, 87.229 115, 80.477 115 C 77.520 115, 76.256 116.822, 78.687 117.580 C 79.684 117.891, 81.281 118.563, 82.236 119.073 C 84.601 120.335, 92.675 120.245, 95.134 118.928 C 97.091 117.881, 97.078 117.802, 94.569 115.476 C 91.345 112.489, 91.349 111.618, 94.592 110.140 L 97.184 108.959 96.543 99.230 C 96.191 93.878, 95.211 86.200, 94.365 82.167 C 93.153 76.388, 93.073 74.238, 93.990 72.023 C 95.143 69.241, 94.618 61.892, 92.946 57.402 C 92.383 55.889, 92.700 54.845, 94.082 53.661 C 95.137 52.758, 96 51.440, 96 50.732 C 96 49.299, 93.198 44.904, 91.558 43.765 C 90.231 42.844, 84.560 42.773, 83.667 43.667 M 188.750 97.080 C 186.689 98.280, 186.515 101.777, 188.392 104.250 C 190.763 107.374, 192 106.260, 192 101 C 192 95.797, 191.659 95.386, 188.750 97.080" stroke="none" fill="black" fill-rule="evenodd"/>
</svg>