<svg xmlns="http://www.w3.org/2000/svg" width="192" height="144" viewBox="0 0 192 144" version="1.1">
	<path d="M 0 16.722 L 0 33.444 3.482 26.179 C 7.322 18.166, 11.315 11.957, 17.265 4.750 L 21.186 -0 10.593 -0 L 0 0 0 16.722 M 161 0.555 C 161 0.860, 161.923 3.135, 163.050 5.610 C 166.195 12.514, 167.248 24.661, 165.455 33.343 C 163.675 41.955, 162.531 44.982, 158.634 51.386 C 155.340 56.799, 149.556 63, 147.800 63 C 147.177 63, 146.949 63.282, 147.294 63.627 C 147.932 64.266, 140.203 69.949, 138.651 69.982 C 138.184 69.992, 136.384 70.650, 134.651 71.445 C 130.316 73.434, 120.892 75, 113.263 75 C 108.507 75, 104.181 74.061, 96.196 71.295 C 86.371 67.893, 84.645 67.598, 75 67.683 C 63.700 67.781, 60.026 68.758, 48.329 74.775 C 41.785 78.141, 35.701 83.926, 31.137 91.123 C 29.610 93.530, 28.333 95.725, 28.298 96 C 28.264 96.275, 27.586 98.075, 26.791 100 C 22.657 110.019, 21.856 129.079, 25.345 134.404 C 26.187 135.689, 27.269 138.260, 27.751 140.120 L 28.627 143.500 99.552 143.500 L 170.477 143.500 177.235 135.070 C 180.951 130.433, 185.782 123.011, 187.970 118.577 L 191.948 110.514 192.225 126.507 C 192.377 135.303, 192.331 117.750, 192.122 87.500 L 191.742 32.500 188.344 25.640 C 184.489 17.861, 180.420 11.650, 174.655 4.750 C 170.924 0.283, 170.398 -0, 165.843 -0 C 163.180 -0, 161 0.250, 161 0.555 M 106.783 16.021 C 100.458 20.210, 99.104 26.672, 103.124 33.486 C 106.895 39.876, 115.901 42.589, 123.204 39.534 C 126.137 38.307, 129.287 31.861, 129.259 27.144 C 129.226 21.703, 126.807 18.228, 120.980 15.250 C 115.118 12.255, 112.231 12.412, 106.783 16.021 M 68.653 108.548 C 65.649 111.466, 65 112.807, 65 116.098 C 65 121.563, 67.453 125.874, 71.534 127.579 C 75.891 129.399, 77.425 129.367, 81.642 127.366 C 89.680 123.551, 89.549 109.849, 81.439 106.154 C 76.629 103.963, 72.597 104.718, 68.653 108.548 M 1.048 128.750 L 1 144 11 144 C 20.998 144, 22.464 143.449, 19.332 140.872 C 16.450 138.502, 7.405 125.732, 4.184 119.487 L 1.096 113.500 1.048 128.750" stroke="none" fill="black" fill-rule="evenodd"/>
</svg>