<svg xmlns="http://www.w3.org/2000/svg" width="192" height="144" viewBox="0 0 192 144" version="1.1">
	<path d="M 51.750 30.539 C 50.788 31.824, 50 33.822, 50 34.978 C 50 36.134, 49.073 38.896, 47.941 41.116 C 46.325 44.283, 46.136 45.459, 47.063 46.576 C 47.713 47.359, 48.752 48.014, 49.372 48.032 C 49.993 48.049, 51.398 48.742, 52.495 49.571 C 54.204 50.863, 54.276 51.212, 52.995 52.006 C 52.173 52.516, 51.492 53.532, 51.483 54.265 C 51.473 54.997, 49.785 57.646, 47.733 60.151 C 43.751 65.010, 43.076 67.988, 45.500 70 C 47.377 71.557, 47.434 76.900, 45.620 81.216 C 43.549 86.143, 42.128 91.038, 41.473 95.500 C 41.150 97.700, 40.258 103.550, 39.492 108.500 C 38.272 116.387, 35 141.814, 35 143.413 C 35 143.736, 43.678 144, 54.284 144 L 73.568 144 72.350 134.750 C 71.681 129.662, 71.102 123.475, 71.065 121 C 71.028 118.525, 69.818 111.775, 68.376 106 C 65.305 93.704, 65.293 92.487, 68.165 84.291 C 70.043 78.931, 70.181 77.547, 69.171 74.175 C 68.527 72.026, 68 68.165, 68 65.594 C 68 62.878, 67.154 59.261, 65.980 56.960 C 64.868 54.782, 64.306 52.943, 64.730 52.872 C 65.153 52.802, 66.589 52.635, 67.920 52.501 C 70.531 52.237, 73.012 49.570, 72.981 47.059 C 72.939 43.715, 70.401 36.266, 68.481 33.854 C 65.777 30.457, 63.070 29.124, 57.854 28.621 C 54.182 28.267, 53.226 28.567, 51.750 30.539 M 138.225 60.084 C 135.200 62.939, 133.372 63.955, 131.975 63.559 C 130.889 63.252, 129.098 62.744, 127.995 62.431 C 124.704 61.497, 124.180 64.927, 127.234 67.410 C 130.598 70.144, 132.965 82.756, 130.466 84.624 C 129.639 85.242, 127.117 88.604, 124.860 92.095 C 120.799 98.379, 120.770 98.491, 121.909 103.424 C 122.541 106.165, 123.764 109.186, 124.625 110.138 C 125.997 111.654, 126.049 113.188, 125.041 122.546 C 124.037 131.875, 124.088 133.440, 125.446 134.940 C 126.301 135.885, 127 138.310, 127 140.329 C 127 143.741, 127.211 144, 130 144 C 132.514 144, 133 143.605, 133 141.559 C 133 137.928, 134.738 137.533, 135.498 140.991 C 136.049 143.499, 136.646 144, 139.079 144 C 141.321 144, 142 143.541, 142 142.026 C 142 140.832, 143.218 139.421, 145.081 138.458 C 147.329 137.296, 147.978 136.410, 147.482 135.182 C 147.108 134.257, 145.928 129.293, 144.860 124.151 C 143.339 116.825, 143.178 114.491, 144.116 113.361 C 144.774 112.567, 146.377 109.622, 147.677 106.816 L 150.040 101.714 146.986 94.150 C 142.802 83.787, 144.016 78.276, 149.559 82.468 C 150.626 83.276, 152.063 83.951, 152.750 83.968 C 154.640 84.016, 154.248 80.130, 152.085 77.381 C 150.190 74.972, 150.194 74.883, 152.455 69.116 C 155.040 62.518, 154.707 61.218, 149.626 58.078 C 144.909 55.162, 143.104 55.480, 138.225 60.084 M 141.708 98.010 C 141.006 100.693, 141.579 101.854, 142.903 100.433 C 143.382 99.920, 143.450 98.624, 143.054 97.554 C 142.389 95.752, 142.289 95.786, 141.708 98.010" stroke="none" fill="black" fill-rule="evenodd"/>
</svg>