<svg xmlns="http://www.w3.org/2000/svg" width="192" height="144" viewBox="0 0 192 144" version="1.1">
	<path d="M 67 0.702 C 67 1.089, 68.438 2.889, 70.196 4.702 C 73.097 7.695, 73.199 8, 71.302 8 C 70.152 8, 66.152 7.055, 62.414 5.901 C 55.909 3.891, 55.562 3.878, 54.309 5.592 C 53.589 6.577, 53 7.713, 53 8.118 C 53 8.522, 50.529 9.985, 47.509 11.367 C 43.448 13.227, 42.173 14.288, 42.616 15.441 C 42.945 16.298, 43.829 17, 44.581 17 C 47.777 17, 52.125 32.235, 50.160 36.548 C 48.670 39.818, 48.694 41, 50.250 41.001 C 51.830 41.002, 52.295 55.580, 50.804 58.366 C 49.722 60.387, 48.737 76.513, 48.932 89 C 48.997 93.125, 48.533 99.056, 47.903 102.181 C 47.113 106.092, 47.068 108.758, 47.759 110.739 C 48.422 112.639, 48.430 115.463, 47.785 119.058 C 47.247 122.051, 46.738 128.888, 46.654 134.250 L 46.500 144 49.546 144 C 52.337 144, 52.612 143.696, 52.837 140.358 C 52.971 138.355, 53.546 135.848, 54.113 134.788 C 54.681 133.728, 55.075 130.530, 54.990 127.680 C 54.641 115.952, 54.755 113.323, 55.772 109.642 C 56.534 106.886, 56.523 104.087, 55.734 99.847 C 54.877 95.235, 54.919 93.113, 55.923 90.335 C 56.844 87.790, 57.010 84.282, 56.501 78.168 C 55.849 70.344, 55.929 69.696, 57.393 70.911 C 58.277 71.645, 59 72.764, 59 73.399 C 59 75.036, 70.107 88.765, 80.796 100.339 L 89.882 110.179 88.256 113.589 C 87.361 115.465, 86.044 117, 85.327 117 C 83.825 117, 79.289 123.820, 77.752 128.390 C 77.177 130.100, 75.440 133.408, 73.893 135.740 C 67.766 144.978, 63.984 144, 105.854 144 L 142.777 144 143.464 140.250 C 144.311 135.624, 148.960 125, 150.137 125 C 150.611 125, 151 126.139, 151 127.531 C 151 130.453, 153.364 131.772, 155.469 130.026 C 156.263 129.367, 157.351 129.099, 157.887 129.430 C 158.423 129.762, 159.144 129.575, 159.490 129.016 C 159.835 128.457, 160.935 128, 161.933 128 C 162.931 128, 165.863 126.763, 168.447 125.250 C 171.032 123.738, 173.919 122.050, 174.863 121.500 C 190.245 112.538, 195.842 101.726, 189.442 93.335 C 186.330 89.254, 180.250 86, 175.740 86 C 169.123 86, 167.909 81.586, 174.250 80.585 C 176.588 80.215, 181.537 79.184, 185.250 78.293 L 192 76.673 192 68.817 C 192 61.199, 191.932 60.976, 189.750 61.428 C 188.512 61.685, 184.922 62.175, 181.772 62.517 L 176.044 63.138 176.272 59.460 C 176.556 54.872, 173.862 52.439, 171.729 55.357 C 170.872 56.528, 168.916 57.245, 166.201 57.385 C 163.890 57.504, 161.459 58.141, 160.800 58.800 C 158.834 60.766, 157.430 60.231, 151.832 55.381 C 148.899 52.840, 144.700 49.950, 142.500 48.958 C 137.003 46.480, 125.671 44.488, 125.195 45.916 C 124.996 46.512, 124.024 47, 123.034 47 C 120.126 47, 113.342 54.504, 112.706 58.425 C 112.261 61.165, 112.443 61.767, 113.584 61.329 C 114.614 60.934, 114.837 61.262, 114.369 62.481 C 113.701 64.222, 109.685 64.254, 105.764 62.551 C 104.462 61.985, 103.788 62.427, 103.069 64.318 C 102.542 65.704, 101.461 67.212, 100.667 67.669 C 99.873 68.126, 99.058 69.400, 98.856 70.500 C 98.654 71.600, 97.508 72.932, 96.309 73.459 C 94.122 74.422, 92 77.884, 92 80.490 C 92 81.258, 92.936 83.472, 94.080 85.410 C 97.588 91.357, 95.973 92.499, 91.519 87.220 C 89.330 84.624, 84.074 79.350, 79.840 75.500 C 73.006 69.287, 72.133 68.091, 72.070 64.860 C 72.032 62.858, 71.100 56.846, 70 51.500 C 67.764 40.632, 67.530 37.591, 69 38.500 C 70.493 39.423, 70.223 38.414, 68.004 34.774 C 65.622 30.868, 65.459 29, 67.500 29 C 68.325 29, 69 28.550, 69 28 C 69 27.450, 69.675 27, 70.500 27 C 71.360 27, 72 27.902, 72 29.115 C 72 32.209, 76.771 40.462, 79.845 42.683 C 81.305 43.739, 84.589 45.385, 87.142 46.343 C 91.355 47.922, 91.887 48.494, 92.906 52.541 C 93.524 54.994, 94.270 57, 94.564 57 C 94.858 57, 96.427 56.313, 98.050 55.474 C 100.289 54.316, 101 53.249, 101 51.046 C 101 48.255, 103.174 45, 105.037 45 C 105.528 45, 107.548 43.580, 109.524 41.845 C 117.639 34.720, 119.926 23.020, 114.738 15.180 C 112 11.042, 111.121 5.661, 112.995 4.503 C 113.542 4.165, 114.457 3.014, 115.030 1.944 C 116.047 0.043, 115.526 0, 91.535 0 C 78.041 0, 67 0.316, 67 0.702 M 48.441 15.481 C 46.761 16.763, 46.702 17.097, 48 17.966 C 50.335 19.528, 51 19.203, 51 16.500 C 51 13.568, 50.966 13.554, 48.441 15.481 M 52.667 61.667 C 51.620 62.713, 51.887 65.812, 53.087 66.554 C 54.746 67.579, 56.005 65.733, 55.351 63.233 C 54.759 60.970, 53.878 60.456, 52.667 61.667 M 53.158 74 C 53.158 75.375, 53.385 75.938, 53.662 75.250 C 53.940 74.563, 53.940 73.438, 53.662 72.750 C 53.385 72.063, 53.158 72.625, 53.158 74 M 51.667 81.667 C 51.300 82.033, 51 83.533, 51 85 C 51 88.336, 53.802 88.638, 54.617 85.390 C 55.445 82.092, 53.587 79.747, 51.667 81.667 M 52.232 95 C 52.232 96.925, 52.438 97.713, 52.689 96.750 C 52.941 95.787, 52.941 94.213, 52.689 93.250 C 52.438 92.287, 52.232 93.075, 52.232 95 M 50.500 102.833 C 50.225 103.108, 50 104.608, 50 106.167 C 50 108.333, 50.471 109, 52 109 C 53.600 109, 54 108.333, 54 105.667 C 54 103.370, 53.533 102.333, 52.500 102.333 C 51.675 102.333, 50.775 102.558, 50.500 102.833 M 51.195 116.500 C 51.215 118.150, 51.439 118.704, 51.693 117.731 C 51.947 116.758, 51.930 115.408, 51.656 114.731 C 51.382 114.054, 51.175 114.850, 51.195 116.500 M 50.750 124.689 C 49.525 125.009, 49 126.146, 49 128.480 C 49 131.320, 49.295 131.736, 51 131.290 C 52.503 130.897, 53 129.926, 53 127.383 C 53 125.523, 52.888 124.052, 52.750 124.116 C 52.612 124.180, 51.712 124.438, 50.750 124.689 M 49.720 137.332 C 48.606 140.165, 48.788 141.612, 50.094 140.306 C 50.695 139.705, 51.020 138.377, 50.814 137.356 C 50.454 135.566, 50.415 135.565, 49.720 137.332" stroke="none" fill="black" fill-rule="evenodd"/>
</svg>