<svg xmlns="http://www.w3.org/2000/svg" width="192" height="144" viewBox="0 0 192 144" version="1.1">
	<path d="M -0 72.005 L -0 144.010 96.250 143.755 L 192.500 143.500 192.757 71.750 L 193.013 0 150.939 0 L 108.865 0 109.683 2.250 C 110.132 3.488, 110.470 7.200, 110.434 10.500 C 110.354 17.722, 108.278 22.125, 101.097 30.308 C 98.294 33.503, 96 36.597, 96 37.185 C 96 38.370, 86.071 26.550, 82.327 20.908 C 79.501 16.649, 78.370 8.941, 79.808 3.734 L 80.839 -0 40.419 -0 L 0 0 -0 72.005 M 0.474 72.500 C 0.474 112.100, 0.598 128.154, 0.750 108.176 C 0.901 88.198, 0.901 55.798, 0.750 36.176 C 0.598 16.554, 0.474 32.900, 0.474 72.500 M 91 47.320 C 91 48.595, 89.936 50.565, 88.634 51.696 C 87.333 52.827, 85.977 55.271, 85.621 57.126 C 85.095 59.862, 84.037 61.016, 80.023 63.229 C 74.229 66.424, 72.012 69.400, 71.389 74.821 C 71.013 78.093, 71.265 78.836, 72.894 79.262 C 74.274 79.623, 74.694 79.365, 74.318 78.387 C 73.685 76.736, 75.781 76.586, 79.537 78.014 C 81.497 78.759, 82.028 79.488, 81.542 80.764 C 81.013 82.156, 81.131 82.252, 82.141 81.250 C 82.833 80.563, 84.040 80, 84.822 80 C 86.004 80, 86.023 80.267, 84.937 81.576 C 83.859 82.875, 83.860 83.295, 84.942 83.964 C 85.665 84.411, 85.928 85.308, 85.526 85.958 C 85.124 86.608, 84.699 90.500, 84.580 94.607 C 84.389 101.202, 83.875 103.014, 80.182 110.118 C 75.622 118.890, 75 123.050, 77.843 125.750 C 80.708 128.469, 85.885 130.981, 87.415 130.394 C 89.228 129.699, 90.443 131.774, 90.187 135.131 C 89.992 137.694, 90.195 137.816, 94.530 137.751 C 99.332 137.678, 100.824 136.700, 99.174 134.706 C 98.626 134.043, 98.249 132.263, 98.338 130.751 C 98.478 128.371, 98.921 128.001, 101.633 128.001 C 105.978 128, 106.444 124.653, 103.361 115.601 C 102.030 111.696, 100.769 106.475, 100.557 104 C 100.346 101.525, 99.864 97.700, 99.486 95.500 L 98.799 91.500 101.208 94.378 C 103.008 96.530, 104.146 97.088, 105.716 96.590 C 108.045 95.851, 109.368 93.404, 108.339 91.739 C 107.940 91.094, 107.347 91.534, 106.868 92.829 C 105.755 95.836, 103 95.644, 103 92.559 C 103 91.216, 102.507 89.813, 101.904 89.441 C 101.301 89.068, 101.001 87.447, 101.237 85.838 C 101.473 84.228, 101.292 82.680, 100.833 82.397 C 99.466 81.552, 99.889 78.256, 101.442 77.661 C 102.236 77.356, 104.373 77.249, 106.192 77.422 C 108.012 77.595, 108.487 77.542, 107.250 77.302 C 102.257 76.337, 106.748 72.803, 113.183 72.634 C 115.282 72.579, 117 72.158, 117 71.700 C 117 71.241, 118.013 71.167, 119.250 71.536 C 121.360 72.165, 121.385 72.119, 119.660 70.801 C 118.013 69.543, 117.982 69.260, 119.366 68.111 C 120.216 67.405, 121.351 67.099, 121.887 67.430 C 122.423 67.762, 123.140 67.582, 123.480 67.032 C 124.277 65.742, 117.807 59.257, 114.449 57.981 C 113.030 57.441, 110.306 57, 108.395 57 C 105.642 57, 104.130 56.169, 101.115 53 C 99.022 50.800, 96.595 49, 95.722 49 C 94.849 49, 93.849 48.100, 93.500 47 C 92.632 44.266, 91 44.475, 91 47.320 M 93.695 129.639 C 92.665 130.669, 92.853 134, 93.941 134 C 94.459 134, 95.158 133.554, 95.495 133.008 C 96.268 131.758, 94.634 128.700, 93.695 129.639" stroke="none" fill="black" fill-rule="evenodd"/>
</svg>