<svg xmlns="http://www.w3.org/2000/svg" width="192" height="144" viewBox="0 0 192 144" version="1.1">
	<path d="M 63.950 4.750 C 63.857 13.507, 62.916 21.373, 61.593 24.449 C 56.965 35.211, 54.755 38.597, 48.164 45.021 C 37.676 55.245, 22.907 60.805, 9.648 59.522 C 5.879 59.157, 2.166 58.617, 1.398 58.322 C 0.214 57.868, 0 64.388, 0 100.893 L 0 144 61 144 C 94.550 144, 122 143.651, 122 143.224 C 122 139.448, 124.353 125.250, 125.533 121.906 C 128.024 114.846, 132.415 89.842, 132.190 84 C 132.032 79.909, 131.469 78.075, 129.989 76.840 C 127.423 74.698, 127.474 71.910, 130.176 66.698 C 136.056 55.352, 135.965 56.001, 132 53.659 C 130.350 52.684, 129 51.226, 129 50.419 C 129 49.611, 127.875 48.523, 126.500 48 C 123.908 47.014, 123.661 46.399, 123.976 41.690 C 124.104 39.761, 123.314 38.093, 121.453 36.369 C 117.302 32.522, 119.344 31.464, 130.489 31.688 C 142.565 31.930, 144.787 33.076, 148.940 41.204 C 150.710 44.667, 152.770 48.181, 153.519 49.013 C 154.268 49.845, 155.400 52.770, 156.034 55.513 C 156.668 58.256, 158.086 63.288, 159.184 66.697 C 160.939 72.140, 161.094 74.369, 160.458 85.028 C 159.813 95.822, 159.466 97.481, 157.315 100.037 L 154.897 102.911 157.887 110.378 C 159.532 114.485, 162.614 120.917, 164.737 124.673 C 168.587 131.482, 172.219 138.899, 173.363 142.288 C 173.894 143.862, 175.073 144.041, 183.233 143.788 L 192.500 143.500 192.825 129 C 193.003 121.025, 192.837 88.737, 192.455 57.250 L 191.761 0 127.880 0 L 64 0 63.950 4.750 M 0.459 101 C 0.459 124.925, 0.589 134.713, 0.749 122.750 C 0.908 110.788, 0.908 91.213, 0.749 79.250 C 0.589 67.288, 0.459 77.075, 0.459 101 M 148.286 84.500 C 148.294 87.250, 148.488 88.256, 148.718 86.736 C 148.947 85.216, 148.941 82.966, 148.704 81.736 C 148.467 80.506, 148.279 81.750, 148.286 84.500" stroke="none" fill="black" fill-rule="evenodd"/>
</svg>