<svg xmlns="http://www.w3.org/2000/svg" width="192" height="144" viewBox="0 0 192 144" version="1.1">
	<path d="M -0 72.005 L -0 144.010 96.250 143.755 L 192.500 143.500 192.757 71.750 L 193.013 0 96.507 0 L 0 0 -0 72.005 M 0.474 72.500 C 0.474 112.100, 0.598 128.154, 0.750 108.176 C 0.901 88.198, 0.901 55.798, 0.750 36.176 C 0.598 16.554, 0.474 32.900, 0.474 72.500 M 86 36.343 C 86 37.713, 85.438 39.074, 84.750 39.368 C 83.946 39.713, 84.728 40.901, 86.944 42.702 C 93.437 47.977, 96.179 51.091, 95.619 52.552 C 94.726 54.877, 93.276 54.232, 92.153 51.010 C 91.421 48.910, 90.648 48.198, 89.556 48.617 C 87.623 49.358, 87.533 51.632, 89.392 52.700 C 90.158 53.140, 91.461 55.129, 92.287 57.120 C 93.693 60.508, 93.650 60.988, 91.608 64.620 L 89.426 68.500 82.463 68.484 C 78.633 68.476, 71.112 68.085, 65.750 67.615 C 58.573 66.987, 56 67.066, 56 67.912 C 56 68.545, 56.788 69.310, 57.750 69.613 C 58.712 69.915, 60.625 70.650, 62 71.245 C 63.375 71.840, 65.400 72.238, 66.500 72.130 C 67.600 72.022, 70.750 72.619, 73.500 73.456 C 79.723 75.351, 81.052 75.354, 78.559 73.468 C 76.776 72.120, 77.061 72.001, 82.059 72.014 C 88.990 72.031, 92 72.847, 92 74.709 C 92 75.833, 93.130 76.131, 96.750 75.963 C 103.503 75.649, 103.825 75.748, 104.180 78.250 C 104.431 80.012, 105.150 80.500, 107.500 80.500 C 110.270 80.500, 110.481 80.251, 110.246 77.250 C 109.945 73.398, 110.911 73.207, 117.123 75.892 C 119.530 76.932, 124.080 78.088, 127.234 78.461 C 130.388 78.835, 133.227 79.558, 133.543 80.070 C 134.395 81.448, 138.273 81.197, 140.527 79.618 C 142.507 78.232, 143.148 78, 145 78 C 145.550 78, 146 76.789, 146 75.308 C 146 73.433, 144.721 71.423, 141.782 68.683 L 137.563 64.749 129.662 65.408 C 122.826 65.978, 121.839 65.861, 122.345 64.544 C 122.953 62.958, 121.353 62.310, 115.509 61.774 C 113.408 61.582, 112.423 60.904, 112.200 59.500 C 111.467 54.875, 111.054 54.601, 108.478 57.021 C 105.781 59.554, 105.362 59.494, 104.845 56.500 C 104.599 55.071, 105.071 54.475, 106.500 54.413 C 110.491 54.240, 115 52.723, 115 51.553 C 115 50.263, 108.342 45.561, 105.026 44.508 C 103.912 44.155, 103 42.996, 103 41.933 C 103 39.750, 104.203 39.503, 107.151 41.081 C 110.816 43.042, 110.230 41.228, 106.346 38.589 C 102.085 35.694, 96.929 35.214, 94.643 37.500 C 92.588 39.555, 91.644 39.386, 90.487 36.756 C 89.042 33.471, 86 33.191, 86 36.343 M 94.197 64.531 C 91.746 69.577, 93.081 70.672, 96.826 66.686 C 99.329 64.021, 99.536 62.690, 97.684 61.153 C 96.660 60.303, 95.888 61.050, 94.197 64.531" stroke="none" fill="black" fill-rule="evenodd"/>
</svg>