<svg xmlns="http://www.w3.org/2000/svg" width="192" height="144" viewBox="0 0 192 144" version="1.1">
	<path d="M 19.415 3.250 C 19.693 5.038, 20.212 9.875, 20.568 14 C 20.925 18.125, 21.352 22.282, 21.518 23.237 C 21.765 24.663, 21.475 24.789, 19.896 23.944 C 17.448 22.634, 11.232 23.764, 10.138 25.717 C 9.648 26.593, 9.888 28.913, 10.723 31.353 C 12.507 36.575, 13.627 37.773, 15.225 36.175 C 16.183 35.217, 16.187 34.530, 15.245 33.021 C 14.407 31.679, 14.365 30.892, 15.108 30.433 C 16.385 29.644, 16.420 29.682, 22.383 38.368 C 26.872 44.907, 27.016 45.325, 25.394 47.118 C 24.125 48.519, 22.307 49, 18.279 49 C 12.426 49, 9.583 50.039, 8.628 52.528 C 8.196 53.654, 8.883 54.412, 11.010 55.153 C 12.655 55.727, 14 56.547, 14 56.977 C 14 57.406, 15.370 58.325, 17.045 59.019 C 18.997 59.827, 20.630 61.571, 21.593 63.876 C 25.020 72.079, 29.915 73.989, 36 69.500 C 37.864 68.125, 40.003 67, 40.753 67 C 41.504 67, 41.840 66.550, 41.500 66 C 41.160 65.450, 39.810 65, 38.500 65 C 35.613 65, 34.625 63.629, 35.371 60.657 C 35.819 58.871, 37.140 58.160, 42.013 57.079 C 46.642 56.052, 48.021 55.347, 47.786 54.126 C 47.616 53.244, 46.582 52.379, 45.489 52.203 C 41.031 51.486, 40.839 51.211, 42.522 47.958 C 43.397 46.265, 45.603 43.220, 47.424 41.190 C 50.112 38.193, 50.914 36.232, 51.692 30.746 C 52.516 24.938, 52.418 23.784, 50.996 22.496 C 48.741 20.456, 48.543 20.514, 44.107 24.522 C 40.420 27.853, 40.209 27.921, 40.210 25.772 C 40.210 24.522, 40.117 20.904, 40.002 17.730 C 39.820 12.723, 40.170 11.484, 42.646 8.354 C 44.216 6.371, 46.325 3.679, 47.333 2.374 L 49.167 0 34.038 -0 L 18.909 -0 19.415 3.250 M 119 72 L 119 144 139.500 144 C 159.551 144, 160 143.955, 160 141.934 C 160 140.798, 159.451 138.886, 158.780 137.684 C 154.070 129.254, 155.062 121.136, 161.726 113.571 C 164.241 110.715, 166.227 107.309, 166.630 105.157 C 167.003 103.168, 168.138 100.181, 169.151 98.520 C 170.164 96.859, 170.994 94.059, 170.996 92.297 L 171 89.094 176.176 89.707 C 181.310 90.315, 183.153 91.316, 187.499 95.858 C 189.585 98.038, 189.911 102, 188.005 102 C 187.586 102, 186.683 103.350, 186 105 C 185.317 106.650, 184.362 108, 183.879 108 C 181.932 108, 183.182 110.043, 186.030 111.516 C 192.159 114.685, 192 116.193, 192 55.071 L 192 0 155.500 0 L 119 0 119 72 M 32.168 24.687 C 30.757 27.323, 30.649 30.665, 31.949 31.469 C 32.990 32.112, 34.466 25.897, 33.769 23.806 C 33.482 22.945, 32.941 23.242, 32.168 24.687" stroke="none" fill="black" fill-rule="evenodd"/>
</svg>