<svg xmlns="http://www.w3.org/2000/svg" width="192" height="144" viewBox="0 0 192 144" version="1.1">
	<path d="M 112.598 14.606 C 112.159 15.749, 111.264 16.032, 109.491 15.587 C 106.802 14.912, 106.264 15.864, 108.225 17.825 C 109.185 18.785, 109.188 19.469, 108.241 20.985 C 107.576 22.050, 107.240 23.501, 107.495 24.210 C 107.760 24.949, 105.339 27.361, 101.828 29.856 C 96.686 33.511, 95.158 34.125, 92.349 33.669 C 89.932 33.277, 89 33.502, 89 34.480 C 89 35.224, 88.460 36.013, 87.801 36.233 C 86.995 36.502, 87.594 38.414, 89.628 42.066 C 92.581 47.369, 92.625 47.645, 91.447 53.500 C 88.784 66.732, 88.776 66.303, 91.747 69.640 C 93.261 71.341, 94.950 73.494, 95.500 74.424 C 96.050 75.354, 97.400 76.261, 98.500 76.440 C 102.890 77.154, 98.593 82, 93.570 82 C 91.603 82, 89.509 82.976, 87.668 84.750 C 86.098 86.263, 83.393 88.883, 81.657 90.573 C 76.235 95.849, 72.468 98.068, 71.157 96.757 C 70.520 96.120, 70 95.050, 70 94.377 C 70 93.704, 68.835 91.769, 67.411 90.077 C 64.989 87.198, 64.386 87, 58.036 87 C 47.906 87, 45.081 87.821, 42.900 91.396 C 40.615 95.141, 39.412 100.812, 40.642 102.042 C 41.932 103.332, 45.955 102.047, 45.373 100.531 C 44.710 98.802, 46.691 98.248, 51.689 98.765 C 55.046 99.112, 57.064 100.272, 61.847 104.599 C 65.129 107.570, 68.771 110, 69.941 110 C 71.110 110, 74.287 108.875, 77 107.500 C 82.701 104.611, 84.458 104.363, 83.612 106.568 C 83.281 107.430, 83.712 111.533, 84.570 115.685 C 86.104 123.114, 86.095 123.270, 83.958 125.545 C 82.764 126.816, 81.195 127.628, 80.471 127.350 C 79.747 127.073, 78.160 127.840, 76.943 129.057 C 74.833 131.167, 74.226 131.236, 63.616 130.572 C 54.837 130.022, 49.249 128.936, 37.039 125.406 C 22.478 121.196, 20.053 120.057, 20.015 117.411 C 19.985 115.258, 15.447 114.311, 8 114.903 L 0.500 115.500 0.223 129.750 L -0.055 144 61.147 144 L 122.349 144 120.289 141.750 C 117.423 138.619, 116.569 135.379, 118.423 134.668 C 120.937 133.703, 124.055 125.284, 125.015 116.870 C 125.589 111.832, 126.702 107.600, 128.008 105.488 C 129.683 102.777, 129.962 101.191, 129.446 97.305 C 128.901 93.199, 129.117 92.204, 130.903 90.587 C 132.057 89.544, 133 88.316, 133 87.859 C 133 87.402, 130.018 85.524, 126.373 83.687 L 119.745 80.345 122.508 78.173 C 124.027 76.978, 125.619 76, 126.046 76 C 126.472 76, 127.762 74.058, 128.911 71.684 C 131.302 66.745, 131.591 58.534, 129.569 53 C 128.378 49.741, 128.487 49.212, 131.145 45.320 C 133.859 41.346, 134.873 37.874, 133.250 38.108 C 131.712 38.330, 128 36.734, 128 35.851 C 128 35.348, 127.197 34.613, 126.216 34.218 C 124.370 33.475, 116 24.786, 116 23.612 C 116 22.240, 122.047 26.142, 123.606 28.521 C 125.740 31.779, 126.578 31.649, 127.902 27.852 C 129.290 23.869, 128.428 22.761, 121.181 19.212 C 118.160 17.733, 115.481 15.730, 115.227 14.761 C 114.653 12.564, 113.410 12.490, 112.598 14.606" stroke="none" fill="black" fill-rule="evenodd"/>
</svg>