<svg xmlns="http://www.w3.org/2000/svg" width="192" height="144" viewBox="0 0 192 144" version="1.1">
	<path d="M 125.994 4.908 C 121.485 9.711, 119 15.927, 119 22.402 C 119 23.639, 117.987 25.554, 116.750 26.657 C 113.071 29.937, 103.680 33.991, 101.240 33.353 C 98.596 32.661, 97 35.919, 97 42.006 C 97 46.356, 98.137 47.491, 102.500 47.496 C 104.848 47.499, 105.569 47.989, 105.820 49.750 C 106.052 51.388, 106.809 52, 108.603 52 C 110.359 52, 111.661 53.006, 113.133 55.500 C 114.566 57.930, 115.920 59, 117.560 59 C 119.473 59, 120.129 59.767, 121.007 63.027 C 122.490 68.535, 122.108 93.822, 120.402 103 C 119.171 109.629, 118.578 110.868, 115.300 113.671 C 112.199 116.323, 110.617 116.897, 105.648 117.171 L 99.705 117.500 94.049 110 C 83.542 96.066, 83.648 96.265, 85.008 92.981 C 85.725 91.249, 86.195 85.494, 86.159 78.868 C 86.125 72.714, 86.680 65.164, 87.392 62.090 C 88.985 55.215, 88.620 54, 84.964 54 C 82.499 54, 81.947 54.530, 81.053 57.750 C 80.480 59.813, 80.009 62.233, 80.006 63.128 C 80.003 64.023, 79.323 66.377, 78.495 68.358 C 77.024 71.878, 76.890 71.947, 72.633 71.363 C 69.030 70.869, 68.037 71.105, 66.889 72.724 C 66.125 73.801, 64.489 75.219, 63.253 75.875 C 62.018 76.530, 60.078 78.887, 58.943 81.113 L 56.879 85.158 59.439 87.531 C 60.848 88.837, 62 90.840, 62 91.984 C 62 97.385, 66.352 106.452, 73.413 115.764 C 77.474 121.119, 82.380 127.909, 84.317 130.854 C 87.742 136.063, 87.801 136.314, 86.463 140.104 L 85.089 144 138.544 144 L 192 144 192 72 L 192 0 161.301 0 L 130.602 0 125.994 4.908 M 136.707 89.819 C 136.941 94.594, 137.314 99.063, 137.535 99.750 C 138.365 102.328, 139.999 100.860, 140.620 96.978 C 140.973 94.766, 141.654 92.714, 142.131 92.419 C 144.269 91.098, 142.918 86.435, 139.640 83.819 L 136.281 81.139 136.707 89.819" stroke="none" fill="black" fill-rule="evenodd"/>
</svg>