<svg xmlns="http://www.w3.org/2000/svg" width="192" height="144" viewBox="0 0 192 144" version="1.1">
	<path d="M 77.929 18.383 C 67.301 21.213, 57.175 30.295, 51.597 42 C 48.864 47.736, 48.483 49.616, 48.352 58 C 48.270 63.225, 47.871 68.321, 47.466 69.325 C 46.889 70.752, 47.140 71.079, 48.614 70.825 C 50.135 70.563, 50.460 71.056, 50.295 73.372 C 50.182 74.951, 50.401 75.933, 50.780 75.553 C 51.159 75.174, 51.927 76.985, 52.485 79.577 C 53.103 82.446, 54.264 84.723, 55.453 85.395 C 56.527 86.003, 58.777 87.738, 60.453 89.251 C 63.317 91.836, 63.519 91.881, 63.820 90.001 C 64.206 87.584, 64.404 87.563, 67.535 89.615 C 71 91.885, 70.606 94.671, 66.250 98.696 L 62.500 102.162 65.750 104.904 C 67.537 106.412, 69.003 108.288, 69.007 109.073 C 69.012 109.858, 71.033 114.034, 73.501 118.353 C 76.890 124.287, 77.830 126.828, 77.347 128.752 C 76.632 131.601, 77.631 131.347, 81.887 127.601 C 83.584 126.108, 84.404 125.863, 84.723 126.756 C 84.969 127.447, 85.582 127.758, 86.085 127.447 C 86.588 127.136, 87 128.574, 87 130.641 C 87 133.565, 87.267 134.133, 88.200 133.200 C 89.915 131.485, 91 131.717, 91 133.800 C 91 134.790, 91.563 136.196, 92.250 136.925 C 93.240 137.974, 93.242 138.345, 92.263 138.704 C 90.008 139.532, 86.489 142.817, 87.149 143.480 C 87.506 143.838, 89.651 143.633, 91.915 143.023 C 94.818 142.241, 97.132 142.220, 99.766 142.952 C 101.819 143.522, 106.260 143.991, 109.634 143.994 L 115.768 144 118.093 138.272 C 122.498 127.418, 130.625 121.288, 141.941 120.281 C 146.864 119.844, 160.150 121.615, 166.933 123.612 L 169.367 124.329 167.113 120.683 C 165.874 118.677, 165.094 116.656, 165.382 116.192 C 165.669 115.727, 164.800 113.168, 163.452 110.504 C 161.290 106.233, 160.999 104.351, 160.994 94.581 C 160.987 80.480, 159.789 73.271, 156.179 65.613 C 153.021 58.912, 142.529 45.417, 136.395 40.166 C 130.828 35.400, 121.089 30.993, 113.162 29.654 C 107.761 28.742, 105.522 27.789, 102.466 25.106 C 95.241 18.760, 86.010 16.231, 77.929 18.383" stroke="none" fill="black" fill-rule="evenodd"/>
</svg>