<svg xmlns="http://www.w3.org/2000/svg" width="192" height="144" viewBox="0 0 192 144" version="1.1">
	<path d="M 0 72 L 0 144 39.500 144 C 65.167 144, 79 143.650, 79 143 C 79 142.450, 78.188 142, 77.196 142 C 76.204 142, 73.954 140.516, 72.196 138.702 C 68.619 135.012, 67.891 129.848, 70.468 126.441 C 71.276 125.374, 71.958 123.375, 71.984 122 C 72.009 120.625, 72.451 118.835, 72.965 118.023 C 73.602 117.016, 73.401 115.996, 72.335 114.817 C 71.380 113.762, 70.741 111.124, 70.694 108.047 C 70.634 104.084, 71.087 102.567, 72.809 100.963 C 74.014 99.841, 75 98.088, 75 97.068 C 75 96.048, 75.607 94.981, 76.349 94.696 C 77.247 94.352, 77.930 91.394, 78.392 85.846 C 78.775 81.262, 79.518 77.082, 80.044 76.556 C 80.570 76.030, 81 74.806, 81 73.835 C 81 72.864, 81.702 70.001, 82.561 67.472 C 84.243 62.518, 84.329 63.403, 79.371 34.711 C 77.654 24.777, 78.210 15.368, 80.500 15.602 C 83.688 15.927, 86.193 27.134, 88.527 51.500 C 88.895 55.350, 89.689 59.100, 90.290 59.833 C 91.776 61.645, 92.049 63.924, 92.112 74.994 C 92.164 84.137, 92.079 84.509, 89.833 85.035 C 88.357 85.381, 87.376 86.445, 87.162 87.932 C 86.882 89.880, 87.138 90.147, 88.662 89.496 C 89.673 89.064, 91.287 88.680, 92.250 88.641 C 93.504 88.591, 94.015 87.711, 94.055 85.536 C 94.464 62.851, 94.568 24.534, 94.250 13.750 L 93.845 0 46.923 0 L 0 0 0 72 M 94 117 L 94 144 104.696 144 L 115.392 144 112.196 140.702 C 110.180 138.622, 109 136.392, 109 134.663 C 109 133.154, 108.091 130.138, 106.980 127.960 C 105.868 125.782, 105.374 124, 105.882 124 C 107.096 124, 109.149 118.051, 108.370 116.790 C 108.037 116.251, 108.634 114.615, 109.696 113.155 C 112.566 109.211, 111.951 105.201, 107.341 97.799 C 105.637 95.062, 104.129 93.927, 101.554 93.444 C 99.638 93.085, 97.550 92.163, 96.913 91.395 C 96.276 90.628, 95.360 90, 94.878 90 C 94.395 90, 94 102.150, 94 117 M 71.557 128.223 C 69.325 131.409, 69.626 133.561, 72.635 135.927 C 76.012 138.584, 76.649 138.535, 77.395 135.563 C 77.792 133.980, 77.270 131.877, 75.905 129.563 C 74.748 127.603, 73.647 126, 73.458 126 C 73.268 126, 72.413 127, 71.557 128.223 M 102 127 C 102 127.550, 102.450 128, 103 128 C 103.550 128, 104 127.550, 104 127 C 104 126.450, 103.550 126, 103 126 C 102.450 126, 102 126.450, 102 127" stroke="none" fill="black" fill-rule="evenodd"/>
</svg>