<svg xmlns="http://www.w3.org/2000/svg" width="192" height="144" viewBox="0 0 192 144" version="1.1">
	<path d="M 121.584 3.750 C 122.470 5.813, 123.675 8.850, 124.261 10.500 C 124.848 12.150, 125.736 13.772, 126.236 14.103 C 127.632 15.031, 128.102 19.195, 128.681 35.786 C 129.172 49.835, 129.043 51.471, 127.091 56.010 C 125.923 58.725, 124.821 62.206, 124.641 63.744 C 124.462 65.283, 123.779 67.545, 123.123 68.771 C 122.467 69.997, 122.170 71, 122.465 71 C 122.759 71, 122.213 71.868, 121.250 72.928 C 117.763 76.771, 117 77.943, 117 79.458 C 117 80.306, 116.199 81.801, 115.220 82.780 C 114.242 83.758, 111.915 86.683, 110.051 89.280 C 108.186 91.876, 106.109 94, 105.434 94 C 104.759 94, 102.817 95.584, 101.117 97.520 C 99.417 99.456, 97.008 101.485, 95.763 102.030 C 94.518 102.575, 91.700 104.161, 89.500 105.553 C 87.300 106.946, 84.713 108.344, 83.750 108.659 C 82.788 108.975, 82 109.679, 82 110.224 C 82 110.768, 81.274 110.935, 80.387 110.595 C 79.500 110.255, 77.258 110.913, 75.405 112.058 C 73.553 113.204, 71.591 113.865, 71.046 113.529 C 70.502 113.192, 68.916 113.664, 67.522 114.578 C 63.612 117.139, 35.655 116.099, 28.239 113.116 C 25.346 111.952, 22.196 110.999, 21.239 110.999 C 20.283 110.998, 16.913 109.201, 13.750 107.006 C 10.588 104.811, 8 103.417, 8 103.909 C 8 104.400, 6.602 103.497, 4.894 101.901 C 3.186 100.306, 1.386 99, 0.894 99 C 0.395 99, 0 108.941, 0 121.500 L 0 144 95.941 144 C 148.857 144, 192.122 143.612, 192.417 143.135 C 192.711 142.659, 192.664 110.259, 192.312 71.135 L 191.673 0 155.823 0 L 119.973 0 121.584 3.750 M 0.429 121.500 C 0.429 134.150, 0.573 139.187, 0.747 132.694 C 0.922 126.200, 0.921 115.850, 0.746 109.694 C 0.571 103.537, 0.428 108.850, 0.429 121.500" stroke="none" fill="black" fill-rule="evenodd"/>
</svg>