<svg xmlns="http://www.w3.org/2000/svg" width="192" height="144" viewBox="0 0 192 144" version="1.1">
	<path d="M 0 72 L 0 144 35.273 144 L 70.545 144 72.106 140.750 C 73.866 137.087, 76.537 129.705, 78.528 123 C 79.263 120.525, 79.895 118.927, 79.933 119.450 C 79.970 119.973, 80.540 119.860, 81.200 119.200 C 82.133 118.267, 82.133 117.733, 81.200 116.800 C 80.267 115.867, 80 115.867, 80 116.800 C 80 117.460, 79.550 118, 79 118 C 78.422 118, 78 114.823, 78 110.469 C 78 104.557, 77.663 102.808, 76.435 102.337 C 75.384 101.933, 74.958 100.707, 75.139 98.604 C 75.288 96.881, 75.059 94.905, 74.632 94.213 C 73.736 92.764, 76.592 83.266, 78.628 80.921 C 79.383 80.053, 80 78.548, 80 77.578 C 80 76.607, 80.900 75.577, 82 75.290 C 84.841 74.547, 84.526 73.773, 80.024 70.442 C 77.837 68.824, 76.037 67.224, 76.024 66.886 C 76.011 66.548, 74.177 65.009, 71.949 63.465 C 68.526 61.093, 67.945 60.190, 68.199 57.637 C 68.437 55.253, 69.447 54.064, 72.997 51.994 C 75.470 50.552, 78.413 49.548, 79.537 49.762 C 80.957 50.034, 82.015 49.341, 83.005 47.491 C 84.732 44.263, 88.831 42, 92.950 42 L 96 42 96 93 L 96 144 108.500 144 C 115.375 144, 121 143.732, 121 143.404 C 121 143.077, 120.376 141.614, 119.614 140.154 C 116.699 134.574, 115.001 126.212, 115.099 117.912 C 115.188 110.332, 116.512 96.670, 116.859 99.750 C 116.937 100.438, 117.502 101, 118.115 101 C 120.813 101, 116.292 82.534, 113.113 80.570 C 112.501 80.192, 112 78.966, 112 77.847 C 112 76.647, 111.172 75.596, 109.979 75.284 C 108.391 74.869, 108.203 74.460, 109.101 73.378 C 109.730 72.620, 110.834 72, 111.555 72 C 112.276 72, 113.141 71.131, 113.478 70.068 C 113.816 69.006, 116.088 66.967, 118.527 65.537 C 125.810 61.269, 126.586 56.931, 120.679 53.502 C 118.930 52.487, 117.126 51.034, 116.669 50.273 C 116.023 49.196, 115.523 49.151, 114.416 50.070 C 113.266 51.024, 112.276 50.442, 109.247 47.030 C 106.086 43.469, 104.758 42.726, 100.750 42.275 L 96 41.740 96 20.870 L 96 0 48 0 L 0 0 0 72 M 71.861 55.939 L 69.500 57.878 71.750 60.161 L 74 62.444 74 60.222 C 74 59, 74.398 58, 74.883 58 C 75.369 58, 76.002 57.100, 76.290 56 C 76.964 53.422, 74.959 53.394, 71.861 55.939 M 115.766 59.250 C 115.521 61.587, 115.448 63.662, 115.603 63.859 C 116.220 64.645, 122 59.773, 122 58.467 C 122 57.100, 119.075 55, 117.171 55 C 116.642 55, 116.010 56.913, 115.766 59.250" stroke="none" fill="black" fill-rule="evenodd"/>
</svg>