<svg xmlns="http://www.w3.org/2000/svg" width="192" height="144" viewBox="0 0 192 144" version="1.1">
	<path d="M 0 72 L 0 144 34.782 144 L 69.563 144 70.851 139.250 C 71.559 136.638, 72.744 132.816, 73.486 130.757 C 75.071 126.353, 74.462 125.720, 69.899 127.029 C 64.778 128.498, 62.801 128.271, 63.188 126.260 C 63.415 125.083, 65.975 123.707, 71.096 122.010 C 76.071 120.361, 79.497 118.543, 81.084 116.709 C 83.843 113.522, 90.001 111.086, 93.575 111.770 L 96 112.233 96 128.117 L 96 144 108.500 144 C 115.375 144, 121 143.791, 121 143.535 C 121 143.279, 120.372 141.142, 119.604 138.785 C 118.183 134.424, 116.668 126.991, 117.205 127.011 C 117.367 127.017, 119.709 127.692, 122.409 128.511 C 128.493 130.356, 128.650 130.355, 129.387 128.434 C 129.839 127.257, 128.383 126.141, 123.516 123.934 C 119.956 122.321, 116.463 121, 115.754 121 C 115.044 121, 112.285 119.200, 109.623 117 C 106.960 114.800, 103.819 112.994, 102.641 112.986 C 101.464 112.979, 99.487 112.701, 98.250 112.370 L 96 111.767 96 55.883 L 96 0 48 0 L 0 0 0 72" stroke="none" fill="black" fill-rule="evenodd"/>
</svg>