<svg xmlns="http://www.w3.org/2000/svg" width="192" height="144" viewBox="0 0 192 144" version="1.1">
	<path d="M -0 72.005 L -0 144.010 96.250 143.755 L 192.500 143.500 192.757 71.750 L 193.013 0 96.507 0 L 0 0 -0 72.005 M 0.474 72.500 C 0.474 112.100, 0.598 128.154, 0.750 108.176 C 0.901 88.198, 0.901 55.798, 0.750 36.176 C 0.598 16.554, 0.474 32.900, 0.474 72.500 M 101 43.178 C 78.928 47.906, 72.075 50.821, 66.750 57.746 C 63.780 61.609, 63.081 66, 65.437 66 C 66.318 66, 66.994 67.227, 67.187 69.173 C 67.623 73.595, 69.584 73.791, 70.983 69.552 C 72.460 65.075, 73.600 64.996, 73.600 69.370 C 73.600 72.763, 76.253 78, 77.971 78 C 78.480 78, 78.883 75.325, 78.867 72.055 C 78.852 68.786, 79.293 65.299, 79.848 64.307 C 80.720 62.749, 81.127 63.131, 82.832 67.107 C 84.793 71.684, 86.413 73, 90.082 73 C 92.420 73, 92.552 71.703, 90.396 69.914 C 87.567 67.566, 86.860 64.171, 88.529 60.944 C 90.172 57.767, 92.329 57.282, 96.453 59.161 C 99.324 60.469, 99.699 62.693, 97.532 65.559 C 96.724 66.626, 96.049 68.320, 96.032 69.323 C 95.978 72.384, 99.137 70.842, 102.824 66.008 C 104.705 63.543, 107.426 60.799, 108.872 59.912 C 111.907 58.049, 111.434 57.785, 132 72.846 C 147.451 84.161, 151.480 85.978, 161.140 85.990 C 168.550 86, 182.125 83.977, 188.750 81.876 L 192 80.845 192 64.922 C 192 52.842, 191.698 49.004, 190.750 49.016 C 190.063 49.025, 183.981 51.420, 177.236 54.339 L 164.973 59.646 159.236 56.823 C 156.081 55.270, 147.425 52.444, 140 50.541 C 132.575 48.639, 123.159 45.939, 119.075 44.542 C 111.212 41.850, 108.244 41.626, 101 43.178 M 92.390 77.802 C 92.041 79.545, 90.661 81.647, 89.265 82.562 C 86.918 84.100, 86.805 84.562, 87.430 90.080 C 87.795 93.314, 88.988 97.980, 90.080 100.449 C 91.436 103.513, 91.976 106.613, 91.783 110.219 L 91.500 115.500 96.187 115.802 C 99.461 116.013, 102.128 115.465, 105.031 113.984 C 108.795 112.064, 109.048 111.706, 107.714 110.182 C 103.798 105.710, 102.629 101.540, 102.479 91.500 L 102.329 81.500 98.414 81.428 C 94.888 81.363, 94.500 81.099, 94.500 78.767 C 94.500 74.882, 93.101 74.243, 92.390 77.802" stroke="none" fill="black" fill-rule="evenodd"/>
</svg>