<svg xmlns="http://www.w3.org/2000/svg" width="192" height="144" viewBox="0 0 192 144" version="1.1">
	<path d="M 0 72 L 0 144 33.144 144 L 66.288 144 61.394 140.290 C 58.702 138.249, 54.700 134.919, 52.500 132.891 C 50.300 130.862, 46.025 127.281, 43 124.933 C 39.975 122.585, 35.864 119.212, 33.864 117.437 C 31.864 115.663, 27.139 112.745, 23.364 110.954 C 19.589 109.163, 16.275 107.419, 16 107.078 C 15.725 106.738, 14.262 105.916, 12.750 105.251 C 11.237 104.587, 10 103.583, 10 103.021 C 10 102.460, 9.311 102, 8.469 102 C 7.626 102, 6.678 101.325, 6.362 100.500 C 6.045 99.675, 5.321 99, 4.753 99 C 2.947 99, 1.065 95.610, 1.032 92.297 C 0.997 88.817, 2.814 84, 4.161 84 C 4.622 84, 5 83.380, 5 82.622 C 5 81.865, 5.636 80.717, 6.414 80.071 C 7.192 79.426, 9.034 75.883, 10.507 72.199 C 16.760 56.559, 23.165 45.619, 35.505 29.500 C 38.873 25.100, 44 18.016, 46.897 13.757 C 51.794 6.560, 53.853 4.378, 58.642 1.309 C 60.103 0.372, 54.044 0.105, 30.250 0.059 L 0 0 0 72 M 122 3.500 L 122.789 7 118.395 7 C 114.636 7, 114 7.296, 114 9.043 C 114 10.166, 115.727 13.429, 117.838 16.293 C 124.179 24.896, 127.512 34.171, 127.434 43 C 127.310 57.167, 119.909 64.628, 107.705 62.888 C 99.933 61.780, 83.505 61.858, 80.456 63.017 C 78.234 63.862, 77.991 64.284, 79.018 65.522 C 80.195 66.940, 79.967 70.978, 78.384 76.750 C 77.867 78.635, 78.161 79, 80.195 79 C 81.531 79, 86.196 79.979, 90.562 81.176 C 103.759 84.794, 119.701 83.267, 129.768 77.421 C 132.371 75.910, 134.725 74.357, 135 73.971 C 135.275 73.585, 136.512 72.954, 137.750 72.567 C 138.988 72.181, 140 71.446, 140 70.933 C 140 70.420, 140.605 70, 141.345 70 C 142.085 70, 143.377 69.212, 144.216 68.250 C 145.977 66.231, 151.952 47.778, 152.735 41.941 C 153.227 38.268, 155.091 36.720, 156.424 38.876 C 156.722 39.358, 156.058 43.908, 154.950 48.986 C 153.842 54.064, 153.189 59.020, 153.500 59.998 C 153.913 61.302, 155.575 61.966, 159.711 62.483 C 169.408 63.695, 174.549 68.431, 175.566 77.090 C 176.197 82.467, 176.323 82.662, 178.861 82.194 C 180.312 81.927, 181.840 81.134, 182.256 80.432 C 182.672 79.730, 184.359 78.860, 186.006 78.499 C 187.653 78.137, 189 77.427, 189 76.921 C 189 76.414, 189.675 76, 190.500 76 C 191.807 76, 192 71.111, 192 38 L 192 0 156.605 0 L 121.211 0 122 3.500 M 190.490 81.016 C 190.144 81.575, 189.423 81.762, 188.887 81.430 C 188.351 81.099, 187.277 81.355, 186.500 82 C 185.723 82.645, 184.678 82.919, 184.177 82.610 C 183.677 82.300, 182.472 82.926, 181.500 84 C 180.528 85.074, 179.343 85.712, 178.866 85.417 C 178.390 85.123, 178 85.359, 178 85.941 C 178 86.523, 177.325 87, 176.500 87 C 175.675 87, 175 87.437, 175 87.970 C 175 90.420, 169.614 100.303, 165.380 105.623 C 162.807 108.855, 156.359 116, 151.051 121.500 C 137.582 135.454, 132 141.741, 132 142.957 C 132 143.658, 141.845 144, 162 144 L 192 144 192 112 C 192 94.400, 191.802 80, 191.559 80 C 191.316 80, 190.835 80.457, 190.490 81.016 M 56 82.352 C 56 83.187, 56.476 85.121, 57.057 86.651 C 58.387 90.147, 60.109 88.054, 59.077 84.197 C 58.317 81.352, 56 79.963, 56 82.352 M 106 85 C 106 85.550, 106.423 86, 106.941 86 C 107.459 86, 108.160 85.550, 108.500 85 C 108.840 84.450, 108.416 84, 107.559 84 C 106.702 84, 106 84.450, 106 85" stroke="none" fill="black" fill-rule="evenodd"/>
</svg>