<svg xmlns="http://www.w3.org/2000/svg" width="192" height="144" viewBox="0 0 192 144" version="1.1">
	<path d="M 0 72.013 L 0 144.026 34.667 143.763 L 69.334 143.500 70.093 141 C 74.774 125.579, 79.575 112.002, 81.108 109.848 C 82.537 107.842, 83 105.453, 83 100.096 C 83 96.193, 82.745 93, 82.434 93 C 80.445 93, 78 95.431, 78 97.408 C 78 100.380, 74.849 107.500, 71.588 111.898 C 70.202 113.767, 65.565 117.766, 61.284 120.784 C 57.003 123.803, 51.598 128.011, 49.272 130.136 C 46.389 132.771, 44.117 134, 42.129 134 C 38.007 134, 37.739 132.019, 41.173 126.922 C 44.004 122.719, 44.051 122.485, 42.123 122.187 C 40.264 121.900, 40.376 121.565, 43.457 118.187 C 55.213 105.297, 60.410 99.046, 62.108 95.750 C 63.913 92.249, 63.819 91.520, 61.616 91.926 C 61.130 92.016, 61 90.751, 61.327 89.115 C 61.693 87.283, 61.483 85.994, 60.778 85.759 C 60.149 85.550, 61.694 83.480, 64.212 81.159 C 69.337 76.435, 70.187 73.869, 70.478 62.250 C 70.630 56.169, 70.399 55, 69.045 55 C 66.250 55, 60.342 41.878, 61.628 38.527 C 62.313 36.742, 67.727 36.488, 72.980 37.994 C 75.551 38.732, 78.393 38.571, 83.974 37.374 C 102.912 33.311, 102 32.953, 102 44.453 C 102 51.130, 101.553 53.544, 99.604 57.394 C 96.332 63.857, 96.970 69.331, 101.200 71.083 C 102.825 71.756, 104.892 73.431, 105.793 74.806 C 107.881 77.993, 111.989 88.041, 111.995 89.975 C 111.998 90.786, 115.010 94.483, 118.688 98.189 C 125.203 104.755, 125.339 104.997, 123.962 107.572 C 122.638 110.045, 122.726 110.368, 125.338 112.614 C 127.540 114.509, 127.811 115.135, 126.622 115.591 C 124.231 116.509, 121.806 115.666, 120.607 113.500 C 119.998 112.400, 119.390 111.315, 119.256 111.089 C 118.544 109.891, 114.951 114.745, 114.408 117.637 C 114.052 119.537, 113.173 121, 112.389 121 C 110.581 121, 110.555 120.785, 113.850 133 L 116.681 143.500 154.591 143.500 L 192.500 143.500 192.757 71.750 L 193.013 0 96.507 0 L 0 0 0 72.013 M 0.474 72.500 C 0.474 112.100, 0.598 128.154, 0.750 108.176 C 0.901 88.198, 0.901 55.798, 0.750 36.176 C 0.598 16.554, 0.474 32.900, 0.474 72.500" stroke="none" fill="black" fill-rule="evenodd"/>
</svg>