<svg xmlns="http://www.w3.org/2000/svg" width="192" height="144" viewBox="0 0 192 144" version="1.1">
	<path d="M 0 52.500 C 0 81.375, 0.340 105, 0.757 105 C 1.173 105, 3.085 104.505, 5.007 103.901 C 6.928 103.296, 11.420 102.508, 14.989 102.151 C 20.059 101.642, 21.552 101.117, 21.813 99.750 C 22.024 98.645, 21.527 98, 20.466 98 C 19.216 98, 18.999 97.552, 19.616 96.250 C 20.073 95.288, 20.478 89.325, 20.518 83 C 20.559 76.418, 21.105 70.296, 21.795 68.685 C 22.458 67.137, 23 64.199, 23 62.157 C 23 55.268, 28.136 51.501, 31.324 56.052 C 32.362 57.534, 32.620 59.870, 32.252 64.455 C 31.809 69.967, 32.023 71.108, 33.871 73.092 C 36.535 75.951, 36.576 77.682, 34 78.500 C 31.452 79.309, 31.484 80.012, 34.474 89.035 C 37.489 98.131, 37.502 98.339, 34.985 96.992 C 33.397 96.142, 32.844 96.243, 32.373 97.470 C 32.045 98.325, 32.327 99.689, 33.001 100.501 C 33.976 101.676, 33.948 102.064, 32.863 102.408 C 28.759 103.706, 11.596 106.106, 6.230 106.132 L -0 106.162 -0 125.081 L 0 144 36.813 144 L 73.626 144 76.205 141.250 C 77.624 139.738, 80.018 136.035, 81.524 133.023 C 83.031 130.011, 86.077 125.396, 88.293 122.768 C 90.509 120.139, 92.137 117.813, 91.911 117.597 C 91.685 117.381, 88.800 118.052, 85.500 119.088 C 79.036 121.116, 73.458 121.550, 72.559 120.095 C 72.251 119.597, 73.912 118.580, 76.250 117.834 C 79.352 116.845, 80.421 116.009, 80.206 114.739 C 80.045 113.783, 80.382 113, 80.956 113 C 81.530 113, 82 113.675, 82 114.500 C 82 116.369, 81.229 116.501, 89.976 113.141 C 97.707 110.171, 100.630 107.648, 98.139 106.094 C 97.391 105.627, 95.928 105.467, 94.889 105.739 C 93.612 106.073, 93 105.709, 93 104.617 C 93 103.727, 92.540 103, 91.978 103 C 89.727 103, 77.886 96.994, 78.423 96.125 C 78.742 95.608, 82.144 96.515, 86.067 98.163 C 91.776 100.562, 93.419 100.897, 94.612 99.907 C 95.815 98.909, 96.369 99.082, 97.601 100.841 C 99.672 103.797, 101.356 103.554, 104.474 99.848 C 106.315 97.660, 106.770 96.476, 105.960 95.975 C 105.159 95.480, 105.096 94.666, 105.758 93.377 C 107.399 90.184, 108.065 82.076, 106.846 80.125 C 106.080 78.899, 106.038 77.755, 106.713 76.549 C 108.040 74.177, 106.135 70.170, 103.500 69.789 C 102.051 69.580, 101.414 68.605, 101.187 66.250 C 100.895 63.226, 100.617 63.001, 97.187 63.010 C 90.785 63.027, 64.825 64.993, 56.645 66.080 C 52.325 66.654, 48.571 66.904, 48.302 66.636 C 48.034 66.367, 49.188 65.437, 50.866 64.569 C 54.295 62.796, 72.222 60.513, 91 59.459 C 97.875 59.073, 103.998 58.360, 104.608 57.874 C 106.075 56.705, 117.043 53.056, 119.184 53.025 C 120.277 53.009, 120.978 53.949, 121.184 55.707 C 121.475 58.202, 121.893 58.437, 126.500 58.699 C 135.087 59.189, 136.009 59.636, 135.930 63.269 C 135.891 65.046, 135.485 67.400, 135.028 68.500 C 134.343 70.147, 134.068 69.745, 133.467 66.228 C 132.599 61.146, 131.514 60.225, 129.038 62.466 C 127.514 63.845, 127.293 65.135, 127.737 70.035 C 128.248 75.671, 128.128 76.078, 125.136 78.873 C 122.193 81.622, 122.004 82.224, 122.070 88.651 C 122.183 99.607, 122.190 99.612, 131.328 95.293 C 137.854 92.208, 139.287 91.840, 140.052 93.051 C 140.555 93.848, 140.826 94.950, 140.653 95.500 C 140.480 96.050, 136.100 98.368, 130.919 100.650 C 123.404 103.961, 121.566 105.174, 121.829 106.650 C 122.383 109.771, 124.118 110.670, 135 113.473 C 140.775 114.961, 145.928 116.589, 146.450 117.089 C 147.983 118.558, 139.035 118.160, 132.548 116.471 C 129.319 115.629, 126.266 115.078, 125.765 115.245 C 125.263 115.412, 128.292 119.473, 132.496 124.268 C 137.896 130.428, 139.964 133.502, 139.541 134.743 C 138.575 137.584, 135.413 140.879, 132.351 142.236 C 129.961 143.296, 134.430 143.543, 159.990 143.765 C 176.759 143.911, 191.039 143.815, 191.724 143.553 C 192.700 143.178, 192.972 127.655, 192.986 71.538 L 193.005 0 156.813 0 L 120.620 0 131.060 10.717 C 144.081 24.083, 144.440 24.376, 152.159 27.885 C 158.875 30.938, 161.207 32.782, 165.546 38.471 C 167.026 40.412, 168.896 42, 169.702 42 C 171.349 42, 170.989 44.170, 169.247 44.751 C 168.626 44.958, 165.717 42.589, 162.783 39.487 C 158.022 34.452, 156.788 33.708, 151.301 32.563 C 143.531 30.941, 139.181 28.327, 125.504 17.059 C 119.455 12.077, 114.280 8.010, 114.004 8.022 C 113.727 8.034, 112.825 9.492, 112 11.262 C 108.104 19.622, 98.462 21.132, 92.135 14.374 C 89.002 11.026, 88.801 10.409, 89.218 5.390 L 89.665 -0 44.832 -0 L 0 0 0 52.500 M 0.465 53 C 0.465 81.875, 0.593 93.687, 0.749 79.250 C 0.905 64.812, 0.905 41.187, 0.749 26.750 C 0.593 12.312, 0.465 24.125, 0.465 53 M 26.190 100.618 C 27.080 101.508, 28.301 101.932, 28.904 101.559 C 30.890 100.332, 30.047 99, 27.286 99 C 24.785 99, 24.699 99.127, 26.190 100.618 M 0.419 125 C 0.419 135.725, 0.566 140.113, 0.746 134.750 C 0.925 129.387, 0.925 120.612, 0.746 115.250 C 0.566 109.888, 0.419 114.275, 0.419 125 M 83.158 141 L 80.940 144 90.637 144 C 99.497 144, 102.761 143.138, 96.501 142.451 C 95.091 142.296, 92.138 141.231, 89.938 140.085 C 87.738 138.938, 85.812 138, 85.657 138 C 85.503 138, 84.378 139.350, 83.158 141" stroke="none" fill="black" fill-rule="evenodd"/>
</svg>