<svg xmlns="http://www.w3.org/2000/svg" width="192" height="144" viewBox="0 0 192 144" version="1.1">
	<path d="M 93.677 89.721 C 83.482 99.917, 83.600 99.755, 83.600 103.555 C 83.600 106.524, 84.314 107.899, 87.251 110.591 C 89.259 112.432, 92.090 114.235, 93.542 114.600 C 97.251 115.531, 103.829 113.324, 107.101 110.052 C 109.606 107.548, 109.850 106.677, 109.667 100.893 C 109.454 94.138, 106.779 88.162, 105.142 90.784 C 104.002 92.609, 101.175 91.234, 100.808 88.676 C 100.319 85.259, 97.762 85.634, 93.677 89.721 M 103.405 94.858 C 105.443 97.150, 106 97.446, 106 96.241 C 106 95.823, 104.987 94.859, 103.750 94.099 C 101.508 92.722, 101.507 92.724, 103.405 94.858" stroke="none" fill="black" fill-rule="evenodd"/>
</svg>