<svg xmlns="http://www.w3.org/2000/svg" width="192" height="144" viewBox="0 0 192 144" version="1.1">
	<path d="M 51.957 30 C 51.933 30.275, 51.534 32.464, 51.070 34.864 C 50.363 38.521, 50.532 39.532, 52.114 41.114 C 53.151 42.151, 54 43.493, 54 44.096 C 54 44.698, 54.914 46.475, 56.031 48.044 L 58.062 50.896 56.003 51.998 C 54.871 52.604, 54.195 53.506, 54.502 54.003 C 54.808 54.499, 53.471 56.986, 51.530 59.529 C 47.826 64.381, 46.966 68.666, 49.500 69.638 C 51.467 70.393, 51.488 76.972, 49.532 79.559 C 48.724 80.626, 48.049 82.452, 48.032 83.615 C 48.014 84.778, 47.052 86.935, 45.894 88.407 C 44.545 90.122, 43.995 91.874, 44.363 93.281 C 44.679 94.490, 44.036 102.458, 42.933 110.989 C 40.726 128.064, 39.019 142.088, 39.008 143.250 C 39.003 143.662, 47.578 144, 58.061 144 L 77.123 144 76.532 139.750 C 76.208 137.412, 75.314 129.650, 74.546 122.500 C 73.778 115.350, 71.966 104.365, 70.521 98.089 L 67.893 86.678 70.107 82.505 C 72.036 78.869, 72.188 77.762, 71.287 73.916 C 70.718 71.487, 70.173 67.313, 70.075 64.641 C 69.977 61.969, 69.178 57.986, 68.300 55.792 C 66.603 51.551, 67.328 50.052, 71.089 50.015 C 72.706 50, 75 46.126, 75 43.413 C 75 41.096, 71.291 34.382, 68.430 31.521 C 66.081 29.172, 65.226 28.965, 58.925 29.220 C 55.116 29.374, 51.981 29.725, 51.957 30 M 134.500 127.673 C 131.752 128.440, 131.167 129.660, 131.167 134.624 C 131.167 140.216, 130.297 142.769, 128.203 143.320 C 127.266 143.566, 132.800 143.792, 140.500 143.821 C 149.659 143.855, 153.732 143.564, 152.280 142.980 C 149.680 141.934, 148.538 138.307, 149.373 133.743 C 149.700 131.960, 149.612 129.940, 149.178 129.255 C 148.322 127.905, 137.752 126.766, 134.500 127.673" stroke="none" fill="black" fill-rule="evenodd"/>
</svg>