<svg xmlns="http://www.w3.org/2000/svg" width="192" height="144" viewBox="0 0 192 144" version="1.1">
	<path d="M 65.475 3.286 C 70.632 15.628, 77.717 46.420, 80.825 70 C 82.448 82.309, 82.777 83.475, 84.552 83.216 C 92.652 82.035, 99.420 81.924, 103.963 82.899 C 106.894 83.527, 109.417 83.917, 109.569 83.764 C 109.721 83.612, 110.345 78.765, 110.956 72.994 C 114.022 43.991, 118.944 31.216, 131.982 18.422 C 134.740 15.715, 136.998 13.185, 136.999 12.801 C 137.001 11.602, 123.956 5.811, 118.090 4.408 C 115.016 3.673, 109.743 3.055, 106.372 3.036 C 102.181 3.011, 99.852 2.526, 99 1.500 C 97.984 0.275, 94.666 0, 80.929 0 L 64.102 0 65.475 3.286 M 28.840 21.250 C 23.988 28.649, 20.564 36.363, 18.520 44.500 C 14.623 60.009, 20.171 81.320, 28.660 83.451 C 31.691 84.212, 38 81.389, 38 79.273 C 38 76.833, 39.811 78.034, 43.575 82.971 C 47.414 88.004, 48.542 88.230, 51.217 84.500 C 51.652 83.894, 52.812 84.376, 54.164 85.725 C 56.320 87.875, 56.339 88.066, 54.744 91.410 C 53.837 93.313, 51.723 95.884, 50.047 97.123 C 48.371 98.362, 47 99.887, 47 100.510 C 47 101.134, 48.757 102.795, 50.904 104.201 L 54.808 106.757 59.963 101.537 C 65.566 95.864, 65.576 95.801, 62.477 86.500 C 61.744 84.300, 59.924 78.225, 58.431 73 C 53.892 57.106, 47.575 41.792, 40.488 29.500 C 38.586 26.200, 36.235 21.817, 35.265 19.760 C 34.294 17.703, 33.226 16.016, 32.892 16.010 C 32.557 16.005, 30.734 18.362, 28.840 21.250 M 153.763 36.703 C 151.158 37.572, 147.145 40.019, 144.847 42.141 C 142.548 44.264, 140.372 46, 140.011 46 C 139.315 46, 136.028 52.484, 134.180 57.500 C 132.853 61.104, 129.800 74.199, 127.452 86.358 L 125.742 95.215 130.017 99.358 C 136.536 105.674, 138.834 109.787, 139.877 117.002 C 140.394 120.576, 141.340 124.850, 141.981 126.500 C 142.621 128.150, 143.179 132.762, 143.222 136.750 L 143.299 144 161.149 144 C 170.967 144, 179 143.786, 179 143.524 C 179 143.262, 178.102 141.575, 177.004 139.774 C 174.343 135.410, 174.342 133.577, 177 135 C 179.369 136.268, 179.677 134.807, 177.434 132.945 C 175.515 131.352, 172.653 125.998, 173.724 126.005 C 174.151 126.007, 177.200 127.121, 180.500 128.481 C 183.800 129.840, 187.499 130.963, 188.719 130.976 C 190.801 130.999, 190.693 130.651, 186.969 125.334 C 183.094 119.802, 181.988 117.256, 184 118.500 C 185.596 119.487, 185.177 118.229, 182.575 114.229 C 178.730 108.318, 177.748 102.639, 177.519 85 C 177.290 67.320, 176.022 60.161, 171.383 50.347 C 168.548 44.351, 161.358 34.972, 159.665 35.062 C 159.024 35.096, 156.368 35.834, 153.763 36.703" stroke="none" fill="black" fill-rule="evenodd"/>
</svg>