<svg xmlns="http://www.w3.org/2000/svg" width="192" height="144" viewBox="0 0 192 144" version="1.1">
	<path d="M 0 72.007 L 0 144.014 66.667 143.757 L 133.334 143.500 134.723 139 C 135.487 136.525, 137.212 131.117, 138.556 126.982 C 141.507 117.904, 141.503 118, 138.969 118 C 136.007 118, 135.703 116.004, 137.985 111.529 C 139.093 109.355, 140 106.304, 140 104.749 C 140 103.193, 140.938 100.081, 142.085 97.833 C 144.691 92.725, 145.564 84.771, 144.109 79.388 C 143.004 75.301, 142.961 75.271, 137.248 74.593 C 134.087 74.218, 124.751 73.505, 116.502 73.008 C 103.202 72.207, 101.315 71.872, 99.841 70.052 C 98.927 68.924, 97.464 68, 96.590 68 C 95.715 68, 95 67.550, 95 67 C 95 66.450, 96.575 66, 98.500 66 C 101.090 66, 102 65.570, 102 64.345 C 102 62.850, 102.169 62.838, 103.750 64.228 C 105.159 65.466, 109.208 65.838, 124.500 66.133 C 143.413 66.498, 143.501 66.490, 143.811 64.311 C 143.989 63.062, 143.185 61.185, 141.936 59.936 C 139.174 57.174, 139.152 53.638, 141.875 49.955 C 143.044 48.374, 144 46.420, 144 45.613 C 144 44.087, 139.456 40, 137.759 40 C 137.226 40, 135.451 38.874, 133.816 37.499 C 131.402 35.467, 131.140 34.883, 132.424 34.391 C 136.358 32.881, 142.745 36.834, 146.073 42.840 L 148.102 46.500 147.555 43 C 147.183 40.612, 145.847 38.506, 143.351 36.371 C 140.884 34.261, 139.896 32.715, 140.315 31.621 C 142.416 26.147, 152 35.765, 152 43.347 C 152 45.064, 152.834 46.103, 154.901 46.959 C 160.309 49.199, 161.906 51.952, 163.078 61.060 C 163.675 65.702, 165.433 73.100, 166.983 77.500 C 170.518 87.529, 172.147 100.901, 171.165 111.812 C 170.426 120.013, 169.237 122.412, 166.442 121.340 C 164.872 120.737, 162.604 133.115, 162.882 140.777 L 163 144.053 177.750 143.777 L 192.500 143.500 192.757 71.750 L 193.013 0 96.507 0 L 0 0 0 72.007 M 0.474 72.500 C 0.474 112.100, 0.598 128.154, 0.750 108.176 C 0.901 88.198, 0.901 55.798, 0.750 36.176 C 0.598 16.554, 0.474 32.900, 0.474 72.500 M 146.565 131.585 C 143.504 138.024, 141 143.452, 141 143.646 C 141 143.841, 144.180 144, 148.067 144 L 155.135 144 154.817 132.331 C 154.604 124.474, 154.113 120.534, 153.315 120.270 C 152.624 120.040, 149.812 124.754, 146.565 131.585" stroke="none" fill="black" fill-rule="evenodd"/>
</svg>