<svg xmlns="http://www.w3.org/2000/svg" width="192" height="144" viewBox="0 0 192 144" version="1.1">
	<path d="M -0 72.005 L -0 144.010 96.250 143.755 L 192.500 143.500 192.757 71.750 L 193.013 0 96.507 0 L 0 0 -0 72.005 M 0.474 72.500 C 0.474 112.100, 0.598 128.154, 0.750 108.176 C 0.901 88.198, 0.901 55.798, 0.750 36.176 C 0.598 16.554, 0.474 32.900, 0.474 72.500 M 109.376 38.240 C 108.007 40.887, 108.032 41.396, 109.648 43.826 C 110.625 45.297, 111.507 48.075, 111.607 50 C 111.707 51.925, 112.081 54.400, 112.438 55.500 C 112.890 56.894, 111.830 59.430, 108.941 63.865 C 105.319 69.425, 103 74.666, 103 77.292 C 103 77.734, 104.463 78.732, 106.250 79.509 C 109.279 80.826, 109.330 80.924, 107 80.961 C 103.819 81.010, 81.626 77.456, 72.701 75.468 C 67.075 74.215, 63.972 74.140, 54.701 75.033 C 48.541 75.627, 42.713 76.342, 41.750 76.624 C 36.371 78.195, 45.451 91.157, 52.766 92.350 C 61.996 93.854, 64.825 94.880, 69.420 98.387 C 72.117 100.446, 76.511 103.239, 79.184 104.593 L 84.044 107.056 92.742 105.426 C 100.060 104.055, 102.611 103.985, 108.819 104.987 C 114.261 105.865, 117.814 105.895, 122.350 105.101 C 125.732 104.509, 130.188 103.774, 132.252 103.467 C 135.320 103.010, 136.727 101.952, 139.965 97.662 C 142.144 94.777, 145.099 89.735, 146.533 86.458 C 147.967 83.181, 150.062 79.783, 151.189 78.906 C 152.814 77.642, 153.024 76.913, 152.204 75.380 C 151.506 74.078, 151.497 72.863, 152.175 71.652 C 153.420 69.428, 152.358 64.714, 150.734 65.255 C 150.079 65.474, 148.383 67.643, 146.965 70.076 C 144.648 74.054, 143.889 74.587, 139.444 75.359 C 136.725 75.831, 132.376 76.790, 129.780 77.491 C 125.350 78.685, 125.020 78.640, 124.423 76.757 C 124.073 75.653, 124.250 74.464, 124.817 74.113 C 125.996 73.384, 124.199 64.801, 121.612 58.803 C 120.511 56.250, 120.352 54.900, 121.099 54.439 C 122.345 53.668, 121.480 47.742, 119.707 44.902 C 118.823 43.486, 118.839 42.761, 119.775 41.825 C 122.750 38.850, 119.628 35, 114.401 35.196 C 111.592 35.302, 110.577 35.917, 109.376 38.240 M 103.575 38.750 C 103.212 40.263, 102.738 48.475, 102.521 57 C 102.251 67.556, 102.396 70.905, 102.975 67.500 C 103.442 64.750, 103.884 59.575, 103.956 56 C 104.119 47.908, 105.465 40.678, 106.898 40.201 C 107.656 39.948, 107.674 39.260, 106.957 37.919 C 105.522 35.238, 104.346 35.527, 103.575 38.750" stroke="none" fill="black" fill-rule="evenodd"/>
</svg>