<svg xmlns="http://www.w3.org/2000/svg" width="192" height="144" viewBox="0 0 192 144" version="1.1">
	<path d="M 120 1.050 C 120 1.627, 120.691 3.435, 121.535 5.068 C 122.746 7.409, 122.799 8.121, 121.785 8.440 C 121.078 8.663, 118.170 9.580, 115.322 10.479 C 105.675 13.523, 96.933 21.933, 93.471 31.500 C 92.475 34.250, 90.950 37.364, 90.081 38.420 C 88.624 40.189, 88.637 40.289, 90.250 39.701 C 91.741 39.157, 92 39.687, 92 43.286 C 92 47.116, 92.523 48.006, 97.619 52.848 L 103.239 58.186 101.127 61.042 C 99.087 63.801, 99.078 63.942, 100.864 65.199 C 101.881 65.914, 103.026 67.489, 103.408 68.699 C 103.790 69.908, 104.979 71.176, 106.051 71.516 C 107.123 71.856, 108 72.822, 108 73.663 C 108 74.504, 108.948 76.522, 110.106 78.149 C 111.386 79.946, 112.032 82.054, 111.752 83.519 C 111.498 84.845, 111.665 86.058, 112.123 86.215 C 112.581 86.372, 113.448 90.051, 114.050 94.391 C 114.986 101.130, 114.923 102.505, 113.623 103.805 C 111.595 105.834, 109.662 104.240, 106.441 97.884 C 105.119 95.275, 103.558 92.845, 102.971 92.482 C 102.316 92.077, 102.149 90.189, 102.539 87.590 C 102.888 85.262, 102.674 81.501, 102.063 79.233 C 100.550 73.616, 97.008 71, 90.915 71 C 87.384 71, 85.828 70.533, 85.080 69.250 C 84.175 67.695, 84.057 67.757, 84.030 69.801 C 84.009 71.424, 83.043 72.521, 80.750 73.523 C 78.963 74.305, 76.508 75.745, 75.296 76.722 C 72.730 78.792, 70.998 85.395, 72.077 89 C 72.488 90.375, 73.096 92.729, 73.427 94.232 C 74.167 97.591, 79.549 103.878, 82.716 105.082 L 85.055 105.971 83.030 109.942 C 80.709 114.491, 78.991 123.835, 78.284 135.750 L 77.795 144 89.649 144 L 101.503 144 104.002 139.270 L 106.500 134.540 106.805 139.270 L 107.110 144 141.035 144 C 170.070 144, 175.547 143.765, 179.036 142.369 C 181.648 141.324, 182.929 140.257, 182.600 139.401 C 182.318 138.666, 182.518 137.798, 183.044 137.473 C 184.749 136.419, 184.056 135, 181.838 135 C 180.648 135, 177.497 136.398, 174.835 138.106 C 169.640 141.440, 167 141.369, 167 137.897 C 167 136.706, 166.576 134.105, 166.058 132.116 C 161.478 114.542, 159.793 106.873, 160.384 106.283 C 160.766 105.900, 161.331 106.549, 161.638 107.724 C 161.946 108.900, 162.843 110.109, 163.632 110.412 C 164.421 110.715, 165.958 112.884, 167.049 115.231 L 169.031 119.500 168.494 111.500 C 168.093 105.535, 168.237 103.882, 169.059 105 C 170.189 106.537, 169.948 102.964, 168.402 95.250 C 167.975 93.123, 168.139 92, 168.875 92 C 169.494 92, 170 92.563, 170.001 93.250 C 170.002 94.989, 175.945 107.388, 176.508 106.826 C 176.760 106.574, 176.523 104.825, 175.983 102.940 C 174.150 96.551, 174.741 95.154, 177.536 99.268 C 178.931 101.321, 180.323 103, 180.630 103 C 180.937 103, 180.917 100.862, 180.586 98.250 C 180.255 95.638, 179.536 84.950, 178.988 74.500 C 177.939 54.479, 175.160 38.671, 171.058 29.399 C 169.926 26.840, 169 24.200, 169 23.533 C 169 20.801, 162.662 9.895, 159.954 7.967 C 158.313 6.799, 155.260 5.825, 152.952 5.733 C 149.624 5.600, 148.551 5.049, 147.214 2.785 L 145.569 0 132.784 0 C 124.525 0, 120 0.372, 120 1.050" stroke="none" fill="black" fill-rule="evenodd"/>
</svg>