<svg xmlns="http://www.w3.org/2000/svg" width="192" height="144" viewBox="0 0 192 144" version="1.1">
	<path d="M 54.905 2.250 C 55.876 4.804, 56 5.399, 56 7.500 C 56 8.633, 57.222 9, 61 9 C 63.750 9, 66 9.250, 66 9.555 C 66 9.860, 64.171 12.803, 61.936 16.095 C 56.948 23.440, 56.965 26.281, 62 27 L 65.500 27.500 65.733 41.451 C 65.920 52.712, 66.258 55.565, 67.483 56.250 C 70.036 57.679, 69.200 59.371, 64.466 62.362 C 59.191 65.695, 57.586 68.380, 56.117 76.325 C 55.529 79.506, 54.581 83.841, 54.011 85.958 C 52.984 89.772, 52.938 89.801, 48.842 89.252 C 44.712 88.698, 44.710 88.700, 45.361 91.599 C 47.273 100.101, 47.219 100.808, 44.040 109.144 C 40.911 117.348, 32.726 134.346, 28.819 140.750 L 26.837 144 68.918 144 C 101.919 144, 110.999 143.730, 110.997 142.750 C 110.996 142.063, 110.512 137.569, 109.923 132.765 C 109.101 126.064, 109.149 122.689, 110.127 118.265 L 111.402 112.500 112.199 122 C 112.637 127.225, 113.257 134.313, 113.577 137.750 L 114.159 144 132.080 144 C 145.202 144, 150 143.683, 150 142.818 C 150 142.167, 149.539 137.555, 148.975 132.568 C 145.754 104.061, 141.607 91.454, 128.795 71.223 C 123.550 62.941, 122.992 61.560, 123.593 58.356 C 123.963 56.381, 123.700 50.170, 123.007 44.554 C 122.006 36.444, 122.001 33.867, 122.981 32.036 C 123.882 30.351, 124.427 30.072, 125 31 C 126.267 33.049, 128 28.774, 128 23.601 C 128 20.059, 128.447 18.831, 130.048 17.974 C 131.174 17.372, 132.523 15.893, 133.045 14.689 C 133.568 13.485, 134.517 11.600, 135.155 10.500 C 135.793 9.400, 136.689 7.825, 137.145 7 C 137.601 6.175, 138.667 4.263, 139.513 2.750 L 141.051 0 97.550 0 L 54.050 0 54.905 2.250 M 68.195 50.500 C 68.215 52.150, 68.439 52.704, 68.693 51.731 C 68.947 50.758, 68.930 49.408, 68.656 48.731 C 68.382 48.054, 68.175 48.850, 68.195 50.500 M 131.478 104.750 C 131.713 106.263, 132.156 109.406, 132.462 111.736 C 133.065 116.318, 135.866 123, 137.185 123 C 138.239 123, 138.264 123.246, 136.397 115.312 C 135.516 111.565, 134.701 108.050, 134.586 107.500 C 133.472 102.150, 130.690 99.689, 131.478 104.750" stroke="none" fill="black" fill-rule="evenodd"/>
</svg>