<svg xmlns="http://www.w3.org/2000/svg" width="192" height="144" viewBox="0 0 192 144" version="1.1">
	<path d="M 0 49.500 C 0 78.991, 0.372 99, 0.921 99 C 3.339 99, 39.393 94.648, 54.500 92.533 C 93.775 87.033, 100.662 86.486, 129.500 86.572 C 151.635 86.638, 154.583 86.861, 167.435 89.442 C 177.073 91.378, 182.992 92.074, 186.630 91.699 L 191.889 91.156 192.276 94.828 C 192.489 96.848, 192.637 76.225, 192.604 49 C 192.571 21.775, 192.412 8.566, 192.252 19.647 L 191.959 39.793 186.538 45.869 C 183.556 49.211, 179.917 53.993, 178.450 56.495 C 175.451 61.612, 172.894 63.494, 171.218 61.818 C 170.435 61.035, 168.976 61.193, 165.999 62.384 C 163.727 63.293, 161.488 63.801, 161.023 63.514 C 159.921 62.833, 162.007 57.046, 164.250 54.561 C 165.213 53.495, 166 52.084, 166 51.426 C 166 49.980, 170.336 47, 172.442 47 C 174.528 47, 176.582 43.571, 178.968 36.099 C 182.053 26.443, 181.914 21.855, 178.409 17.642 C 174.800 13.303, 172.109 13.126, 168.658 17 C 165.749 20.265, 161 21.164, 161 18.450 C 161 15.575, 164.184 10.530, 169.345 5.228 L 174.476 -0.045 155.002 0.228 L 135.528 0.500 133.235 4.881 C 131.974 7.290, 130.035 12.068, 128.927 15.499 C 126.364 23.432, 121.196 32.101, 118.117 33.632 C 116.229 34.571, 114.881 34.516, 111.632 33.370 C 107.893 32.051, 107.418 32.076, 106.265 33.653 C 105.569 34.604, 105 36.136, 105 37.057 C 105 39.459, 98.390 52.337, 96.087 54.421 C 93.883 56.416, 90 55.765, 90 53.400 C 90 52.595, 90.681 50.306, 91.513 48.314 C 93.352 43.913, 92.524 42.642, 89.914 45.861 C 87.449 48.902, 87.484 53.701, 90 57.500 C 91.093 59.150, 91.990 60.162, 91.993 59.750 C 91.997 59.337, 92.900 59.900, 94 61 C 96.861 63.861, 96.535 64.252, 91.701 63.770 L 87.402 63.341 88.076 68.420 C 88.855 74.297, 88.642 74.981, 86.222 74.348 C 84.874 73.995, 84.391 74.541, 84.220 76.611 C 83.905 80.417, 83.334 80.662, 80.652 78.142 C 79.290 76.863, 77.651 76.197, 76.732 76.549 C 73.779 77.683, 72.716 73.414, 73.254 62.585 C 73.813 51.345, 76.224 43.554, 81.436 36.144 C 83.121 33.749, 86.427 29.064, 88.783 25.734 L 93.067 19.679 90.655 17.089 C 85.630 11.692, 85.513 10.432, 89.529 4.961 L 93.170 0 46.585 0 L 0 0 0 49.500 M 0.463 50 C 0.463 77.225, 0.592 88.362, 0.749 74.750 C 0.906 61.137, 0.906 38.862, 0.749 25.250 C 0.592 11.637, 0.463 22.775, 0.463 50 M -0 124.505 L -0 144.010 96.250 143.755 L 192.500 143.500 192.586 123.500 C 192.634 112.500, 192.498 105.362, 192.284 107.639 L 191.896 111.777 181.698 112.311 C 176.089 112.605, 165.425 113.953, 158 115.308 C 146.055 117.486, 142.197 117.737, 124.500 117.489 C 107.393 117.248, 76.117 114.960, 69.530 113.467 C 65.354 112.521, 5.373 105.156, 0.750 105.022 C 0.337 105.010, -0 113.777, -0 124.505 M 0.420 124.500 C 0.419 135.500, 0.565 140.136, 0.745 134.803 C 0.924 129.470, 0.925 120.470, 0.746 114.803 C 0.568 109.136, 0.421 113.500, 0.420 124.500" stroke="none" fill="black" fill-rule="evenodd"/>
</svg>