<svg xmlns="http://www.w3.org/2000/svg" width="192" height="144" viewBox="0 0 192 144" version="1.1">
	<path d="M 131.074 5.330 C 127.500 6.275, 126.461 7.077, 125.674 9.500 C 124.517 13.064, 123.368 13.964, 119.946 13.985 C 116.325 14.006, 108.703 19.126, 106.157 23.247 C 102.793 28.689, 103.808 40, 107.661 40 C 109.750 40, 109.235 42.600, 106.829 44.197 C 105.281 45.225, 104.923 46.049, 105.579 47.069 C 106.085 47.856, 107.189 50.750, 108.031 53.500 C 109.484 58.245, 109.765 58.526, 113.531 59 C 117.352 59.481, 117.510 59.649, 117.779 63.500 C 118.044 67.305, 117.763 67.736, 112.029 72.346 C 108.713 75.012, 106 77.626, 106 78.156 C 106 78.686, 104.425 81.183, 102.500 83.704 C 100.575 86.225, 99 88.951, 99 89.762 C 99 90.573, 97.681 92.738, 96.070 94.573 L 93.140 97.910 91.570 91.008 C 89.645 82.543, 89.494 74.995, 91.250 75.012 C 91.938 75.018, 94.862 75.653, 97.750 76.421 C 105.272 78.424, 104.227 76.644, 96.045 73.517 C 91.543 71.797, 88.874 70.178, 88.476 68.926 C 87.456 65.711, 83.294 64.146, 78.595 65.209 C 76.343 65.719, 73.263 65.892, 71.750 65.593 C 68.601 64.971, 67.983 66.542, 71 67.500 C 72.266 67.902, 73 69.013, 73 70.527 C 73 71.843, 74.100 73.950, 75.444 75.210 C 78.614 78.181, 79.998 82.005, 80.008 87.815 C 80.012 90.392, 80.421 95.200, 80.917 98.500 C 81.413 101.800, 82.100 106.863, 82.444 109.750 L 83.069 115.001 76.935 111.036 C 73.561 108.856, 69.833 106.767, 68.650 106.395 C 67.468 106.023, 62.241 101.957, 57.036 97.360 C 51.831 92.762, 46.769 89, 45.786 89 C 43.614 89, 40 92.435, 40 94.500 C 40 95.325, 40.337 96.013, 40.750 96.029 C 42.199 96.085, 52 105.937, 52 107.338 C 52 108.118, 52.658 109.301, 53.461 109.968 C 54.265 110.635, 55.217 112.152, 55.577 113.340 C 55.937 114.528, 57.262 116.877, 58.521 118.559 C 60.632 121.380, 61.560 121.721, 70.431 122.939 C 78.269 124.015, 80.700 124.775, 83.553 127.042 C 85.478 128.572, 89.060 130.651, 91.512 131.662 C 94.927 133.070, 95.842 133.909, 95.419 135.246 C 95.116 136.206, 95.438 138.569, 96.135 140.496 L 97.402 144 122.701 144 C 136.615 144, 147.997 143.662, 147.993 143.250 C 147.983 142.051, 144.491 137.084, 142.711 135.734 C 140.778 134.270, 139.018 124.357, 139.008 114.872 C 139.001 109.137, 138.697 108.031, 136.750 106.666 C 134.594 105.154, 134.692 105.112, 139.118 105.662 C 142.034 106.024, 143.991 105.824, 144.427 105.118 C 144.807 104.503, 145.991 104, 147.059 104 C 148.127 104, 149 103.550, 149 103 C 149 102.450, 150.173 102, 151.607 102 C 153.513 102, 154.059 101.597, 153.638 100.500 C 153.006 98.852, 153.814 98.595, 155.755 99.827 C 156.683 100.416, 156.781 101.846, 156.134 105.312 C 155.652 107.890, 155.613 110, 156.046 110 C 156.479 110, 157.034 109.437, 157.280 108.750 C 158.256 106.017, 158.781 108.750, 158.047 112.750 C 157.619 115.088, 157.658 117, 158.134 117 C 158.610 117, 159 118.848, 159 121.107 C 159 124.438, 159.298 125.100, 160.579 124.608 C 161.881 124.109, 162.043 124.530, 161.500 127.001 C 160.863 129.902, 162.149 131.187, 163.500 129 C 164.618 127.191, 166.148 127.957, 165.500 130 C 163.873 135.126, 167.957 137.441, 170.107 132.611 C 170.962 130.689, 171.003 130.724, 170.571 133 C 170.309 134.375, 169.792 137.412, 169.420 139.750 L 168.744 144 180.372 144 L 192 144 191.991 111.250 L 191.983 78.500 185.241 74.341 C 177.013 69.265, 169.585 62.275, 164.682 54.994 C 162.657 51.987, 161 50.082, 161 50.760 C 161 51.439, 159.313 53.865, 157.250 56.152 L 153.500 60.309 152.855 53.905 C 152.500 50.382, 152.654 45.038, 153.197 42.029 C 154.457 35.040, 152.152 26.457, 147.285 20.021 C 144.811 16.748, 144.058 14.905, 144.491 13.178 C 144.953 11.340, 144.283 10.060, 141.471 7.408 C 137.501 3.663, 137.433 3.650, 131.074 5.330 M 133.857 116.334 C 133.528 120.469, 135.197 127, 136.582 127 C 137.407 127, 135.933 113.669, 134.996 112.658 C 134.567 112.195, 134.054 113.849, 133.857 116.334 M 95.500 115.469 C 93.850 116.821, 92.728 117.944, 93.007 117.964 C 93.285 117.984, 94.973 118.419, 96.757 118.930 C 99.965 119.850, 100 119.823, 100 116.430 C 100 112.350, 99.448 112.233, 95.500 115.469" stroke="none" fill="black" fill-rule="evenodd"/>
</svg>