<svg xmlns="http://www.w3.org/2000/svg" width="192" height="144" viewBox="0 0 192 144" version="1.1">
	<path d="M 0 74.005 L 0 144.010 96.250 143.755 L 192.500 143.500 192.543 73 C 192.567 34.225, 192.342 9.439, 192.043 17.920 L 191.500 33.340 186.806 34.920 C 183.507 36.030, 179.642 38.832, 173.806 44.345 C 169.237 48.660, 163.475 53.610, 161 55.345 C 158.525 57.080, 156.178 58.996, 155.783 59.601 C 155.389 60.207, 153.067 61.467, 150.622 62.400 C 145.791 64.245, 144.673 65.847, 145.609 69.579 C 145.970 71.018, 145.780 72, 145.140 72 C 144.537 72, 144.350 72.748, 144.715 73.699 C 145.262 75.126, 144.816 75.048, 141.933 73.214 C 138.559 71.068, 131.709 67.671, 127.220 65.917 C 125.278 65.159, 124.782 65.432, 123.873 67.763 C 123.286 69.269, 122.732 74.802, 122.642 80.060 C 122.443 91.710, 121.001 94.656, 115.029 95.611 C 112.864 95.958, 110.334 97.078, 109.408 98.102 C 107.267 100.468, 91.473 105.335, 88.070 104.678 C 74.181 101.996, 68.203 98.750, 61.539 90.271 C 57.160 84.700, 56.533 82.352, 56.663 72 C 56.788 62.004, 57.508 57.888, 59.984 52.997 C 63.043 46.957, 67.164 43.445, 73.784 41.239 L 79.290 39.403 72.895 34.286 C 64.272 27.386, 59.940 22.700, 55.228 15.176 C 53.050 11.698, 49.970 8.155, 48.384 7.304 C 45.654 5.839, 24.651 4.220, 6.250 4.056 L 0 4 0 74.005 M 0.474 74 C 0.474 112.775, 0.598 128.638, 0.750 109.250 C 0.901 89.863, 0.901 58.138, 0.750 38.750 C 0.598 19.363, 0.474 35.225, 0.474 74" stroke="none" fill="black" fill-rule="evenodd"/>
</svg>