<svg xmlns="http://www.w3.org/2000/svg" width="192" height="144" viewBox="0 0 192 144" version="1.1">
	<path d="M 0 72 L 0 144 6.500 144 L 13 144 13 140.550 C 13 138.600, 12.379 136.752, 11.572 136.300 C 10.184 135.522, 10.313 134.105, 12.572 125.334 C 12.737 124.693, 17.964 120.357, 24.186 115.699 C 31.289 110.383, 37.542 104.706, 40.985 100.448 C 46.332 93.836, 46.462 93.525, 46.165 88.101 C 45.997 85.040, 45.467 82.063, 44.987 81.484 C 44.487 80.882, 44.511 79.806, 45.042 78.966 C 45.552 78.160, 45.976 76.263, 45.985 74.750 C 45.997 72.561, 45.541 71.999, 43.750 71.996 C 40.384 71.990, 30.814 65.843, 28.250 62.041 C 23.947 55.661, 25.886 41.478, 32.490 31.016 C 36.174 25.180, 42.832 18.892, 48.444 15.949 C 52.283 13.935, 53.038 13.094, 52.688 11.214 C 52.303 9.142, 52.419 9.069, 53.922 10.429 C 55.386 11.754, 56.220 11.759, 61.040 10.477 C 72.478 7.433, 86.450 9.250, 96.699 15.114 C 105.854 20.352, 110.679 30.117, 107.589 37.157 C 106.782 38.996, 105.855 41.761, 105.529 43.303 C 105.164 45.024, 103.694 46.839, 101.718 48.006 C 99.948 49.051, 97.685 51.421, 96.689 53.273 C 94.736 56.905, 90.385 60, 87.231 60 C 84.766 60, 80 63.673, 80 65.573 C 80 66.358, 80.406 67, 80.902 67 C 82.084 67, 84 72.564, 84 75.994 C 84 79.051, 82.240 80.790, 76.531 83.378 C 72.602 85.158, 72.543 85.154, 70.781 82.978 C 69.801 81.768, 69 80.153, 69 79.389 C 69 78.625, 68.501 78, 67.891 78 C 66.500 78, 67.075 82.104, 69.850 92 C 71.647 98.410, 71.956 102.279, 71.976 118.625 C 71.989 129.144, 72.282 139.160, 72.627 140.883 L 73.253 144.016 132.877 143.758 L 192.500 143.500 192.757 71.750 L 193.013 0 96.507 0 L 0 0 0 72 M 0.474 72.500 C 0.474 112.100, 0.598 128.154, 0.750 108.176 C 0.901 88.198, 0.901 55.798, 0.750 36.176 C 0.598 16.554, 0.474 32.900, 0.474 72.500 M 101 7.893 C 101 9.017, 103.601 10.066, 104.402 9.264 C 105.606 8.061, 104.949 7, 103 7 C 101.900 7, 101 7.402, 101 7.893 M 119.232 19 C 118.540 20.108, 118.417 21, 118.956 21 C 119.492 21, 120.411 20.100, 121 19 C 121.589 17.900, 121.713 17, 121.276 17 C 120.839 17, 119.919 17.900, 119.232 19 M 116 22.882 C 116 23.432, 116.450 24.160, 117 24.500 C 117.550 24.840, 118 24.668, 118 24.118 C 118 23.568, 117.550 22.840, 117 22.500 C 116.450 22.160, 116 22.332, 116 22.882 M 100.475 64.960 C 100.829 65.532, 102.291 66, 103.726 66 C 106.860 66, 106.498 65.521, 102.666 64.601 C 100.808 64.154, 100.054 64.278, 100.475 64.960 M 75.361 67.990 C 73.591 68.704, 73.333 69.392, 73.862 71.978 C 74.213 73.696, 74.838 75.079, 75.250 75.051 C 75.663 75.023, 76.405 75, 76.900 75 C 77.395 75, 77.733 73.203, 77.650 71.006 C 77.568 68.809, 77.500 67.037, 77.500 67.069 C 77.500 67.101, 76.538 67.515, 75.361 67.990 M 155.813 81.683 C 156.534 81.972, 157.397 81.936, 157.729 81.604 C 158.061 81.272, 157.471 81.036, 156.417 81.079 C 155.252 81.127, 155.015 81.364, 155.813 81.683 M 186.500 85 C 186.139 85.583, 187.156 86, 188.941 86 C 190.623 86, 192 85.550, 192 85 C 192 84.450, 190.902 84, 189.559 84 C 188.216 84, 186.840 84.450, 186.500 85 M 16.500 93 C 16.160 93.550, 16.557 94, 17.382 94 C 18.207 94, 19.160 93.550, 19.500 93 C 19.840 92.450, 19.443 92, 18.618 92 C 17.793 92, 16.840 92.450, 16.500 93 M 157 118 C 157 118.550, 157.477 119, 158.059 119 C 158.641 119, 158.840 118.550, 158.500 118 C 158.160 117.450, 157.684 117, 157.441 117 C 157.198 117, 157 117.450, 157 118 M 128.150 125.950 C 128.580 127.239, 129.951 127.471, 130.075 126.275 C 130.116 125.876, 129.610 125.370, 128.950 125.150 C 128.290 124.930, 127.930 125.290, 128.150 125.950 M 128 137 C 128 137.550, 128.702 138, 129.559 138 C 130.416 138, 130.840 137.550, 130.500 137 C 130.160 136.450, 129.459 136, 128.941 136 C 128.423 136, 128 136.450, 128 137 M 167.840 139.307 C 169.749 141.607, 173.185 142.206, 172.800 140.172 C 172.609 139.164, 171.318 138.367, 169.548 138.165 C 167.057 137.881, 166.799 138.053, 167.840 139.307" stroke="none" fill="black" fill-rule="evenodd"/>
</svg>