<svg xmlns="http://www.w3.org/2000/svg" width="192" height="144" viewBox="0 0 192 144" version="1.1">
	<path d="M 76.444 38.250 C 76.818 42.237, 76.682 47.461, 76.144 49.857 C 75.420 53.076, 75.514 55.204, 76.501 58.003 C 77.461 60.723, 77.745 66.184, 77.509 77.359 C 77.174 93.181, 76.570 96.713, 72.722 105.354 L 70.560 110.209 74.265 113.604 C 80.097 118.948, 85.140 117.552, 86.613 110.184 C 87.375 106.376, 89.676 106.017, 91 109.500 C 91.797 111.595, 92.602 112, 95.975 112 C 102.182 112, 103.942 109.609, 103.862 101.286 C 103.827 97.554, 103.206 92.683, 102.483 90.463 C 101.760 88.243, 100.858 83.293, 100.478 79.463 C 100.099 75.633, 99.736 72.275, 99.672 72 C 99.608 71.725, 100.335 70.334, 101.288 68.909 C 102.916 66.476, 102.922 65.836, 101.392 58.409 C 99.441 48.940, 97.006 45, 93.106 45 C 90.097 45, 86.421 48.281, 85.838 51.489 C 85.349 54.183, 82 54.800, 82 52.196 C 82 51.123, 81.325 49.685, 80.500 49 C 79.385 48.075, 79 45.604, 79 39.378 C 79 32.327, 78.744 31, 77.383 31 C 75.979 31, 75.855 31.958, 76.444 38.250 M 79.309 60.636 C 78.349 63.140, 80.358 65.437, 83.748 65.712 C 86.631 65.946, 86.795 65.765, 86.702 62.480 C 86.610 59.222, 86.391 59, 83.270 59 C 81.107 59, 79.717 59.574, 79.309 60.636 M 80.195 72.500 C 80.215 74.150, 80.439 74.704, 80.693 73.731 C 80.947 72.758, 80.930 71.408, 80.656 70.731 C 80.382 70.054, 80.175 70.850, 80.195 72.500 M 80.008 80.750 C 80.017 82.927, 82.008 95.341, 82.413 95.746 C 82.576 95.909, 83.752 95.657, 85.026 95.186 C 86.545 94.624, 86.939 94.080, 86.170 93.605 C 85.351 93.099, 85.192 90.788, 85.642 85.940 L 86.287 79 83.144 79 C 80.813 79, 80.002 79.453, 80.008 80.750 M 86.500 103 C 86.160 103.550, 86.359 104, 86.941 104 C 87.523 104, 88 103.550, 88 103 C 88 102.450, 87.802 102, 87.559 102 C 87.316 102, 86.840 102.450, 86.500 103 M 188.682 134.033 C 187.202 138.690, 185.993 142.838, 185.996 143.250 C 185.998 143.662, 187.298 144, 188.884 144 C 191.686 144, 191.785 143.825, 192.401 137.750 C 192.750 134.313, 192.661 130.165, 192.204 128.533 C 191.429 125.765, 191.193 126.134, 188.682 134.033 M 1.158 135 C 1.158 136.375, 1.385 136.938, 1.662 136.250 C 1.940 135.563, 1.940 134.438, 1.662 133.750 C 1.385 133.063, 1.158 133.625, 1.158 135" stroke="none" fill="black" fill-rule="evenodd"/>
</svg>