<svg xmlns="http://www.w3.org/2000/svg" width="192" height="144" viewBox="0 0 192 144" version="1.1">
	<path d="M 122.444 27.484 C 119.421 28.819, 115.621 31.740, 112.738 34.947 C 107.957 40.264, 107.067 42, 109.122 42 C 109.912 42, 109.886 42.433, 109.034 43.459 C 107.369 45.466, 108.647 50.639, 111.260 52.470 C 113.200 53.828, 113.239 54.080, 111.763 55.721 C 110.523 57.101, 110.347 58.397, 110.980 61.500 C 113.090 71.861, 113.152 72, 115.625 72 C 117.069 72, 118 72.588, 118 73.500 C 118 74.325, 117.655 75, 117.233 75 C 116.811 75, 116.419 76.802, 116.361 79.005 C 116.281 82.065, 115.636 83.499, 113.628 85.078 C 112.183 86.215, 110.998 87.675, 110.995 88.323 C 110.992 88.970, 109.970 90.775, 108.723 92.333 C 106.625 94.954, 106.248 95.070, 103.654 93.888 C 101.375 92.850, 100.465 92.853, 98.781 93.905 C 96.803 95.140, 96.743 95.047, 97.431 91.849 C 97.828 90.007, 98.339 81.750, 98.566 73.500 C 98.794 65.250, 99.488 53.807, 100.107 48.072 C 101.150 38.416, 101.100 37.546, 99.426 36.322 C 95.572 33.504, 92.439 36.028, 93.323 41.241 C 93.948 44.932, 89.949 103.002, 89.070 102.995 C 88.756 102.993, 86.525 99.124, 84.111 94.398 C 79.914 86.181, 79.598 85.830, 76.873 86.375 C 74.335 86.883, 73.578 86.356, 69.946 81.544 C 66.810 77.391, 64.802 75.780, 61.256 74.571 C 58.719 73.707, 55.820 73, 54.813 73 C 53.241 73, 53.157 72.722, 54.216 71.025 C 55.682 68.678, 54.215 66.597, 51.759 67.539 C 49.221 68.513, 47.920 73.011, 48.929 77.325 C 49.988 81.855, 51.603 83.194, 58.707 85.434 C 62.089 86.500, 64.631 88.033, 65.686 89.644 C 67.309 92.120, 67.272 92.237, 64.048 94.759 C 59.218 98.539, 57.048 104.113, 57.022 112.803 C 56.987 124.422, 59.404 133.080, 64.328 138.972 L 68.500 143.964 80.250 143.982 C 88.925 143.995, 92.034 143.673, 92.129 142.750 C 92.200 142.063, 92.156 139.332, 92.032 136.683 C 91.841 132.613, 92.366 131.023, 95.413 126.433 C 99.102 120.877, 100.986 119.640, 101.018 122.750 C 101.028 123.713, 102.378 126.480, 104.018 128.900 C 106.021 131.856, 107 134.538, 107 137.069 C 107 144.446, 105.128 144, 136.107 144 L 164 144 164 137.518 C 164 133.953, 163.090 123.851, 161.978 115.070 L 159.957 99.104 161.978 87.877 C 164.202 75.529, 164.632 58.845, 162.891 52.500 C 161.711 48.198, 158.781 41.043, 156.545 37 C 154.201 32.763, 148.778 29.141, 142.500 27.621 C 132.089 25.100, 127.911 25.072, 122.444 27.484 M 59.587 41.203 C 58.964 42.589, 58.475 42.689, 56.957 41.741 C 54.594 40.265, 53.534 41.260, 54.849 43.718 C 55.643 45.202, 55.438 45.870, 53.891 46.836 C 51.150 48.548, 52.572 50.253, 56.095 49.479 C 58.470 48.958, 59.006 49.175, 59.032 50.671 C 59.061 52.372, 59.171 52.360, 60.602 50.500 C 61.449 49.400, 62.559 48.612, 63.071 48.750 C 64.326 49.088, 64.257 47.277, 62.984 46.490 C 62.425 46.144, 62.226 45.443, 62.543 44.931 C 62.859 44.419, 62.673 44, 62.129 44 C 61.584 44, 60.962 42.987, 60.745 41.750 C 60.408 39.820, 60.243 39.742, 59.587 41.203" stroke="none" fill="black" fill-rule="evenodd"/>
</svg>