<svg xmlns="http://www.w3.org/2000/svg" width="192" height="144" viewBox="0 0 192 144" version="1.1">
	<path d="M 0 72 L 0 144 39.318 144 L 78.636 144 79.962 135.250 C 81.743 123.494, 82.472 106, 81.180 106 C 80.629 106, 78.955 107.463, 77.460 109.250 C 75.965 111.038, 73.853 112.730, 72.767 113.011 C 70.564 113.580, 66.673 122.380, 67.371 125.213 C 67.847 127.145, 65.594 129.485, 64.129 128.580 C 63.602 128.254, 62.981 128.553, 62.748 129.244 C 62.417 130.228, 61.965 130.203, 60.663 129.128 C 59.492 128.161, 59 128.105, 59 128.937 C 59 129.586, 58.519 129.821, 57.931 129.457 C 57.343 129.094, 56.977 126.911, 57.119 124.607 C 57.261 122.303, 57.040 119.874, 56.629 119.209 C 56.179 118.481, 57.497 116.083, 59.941 113.185 C 62.173 110.538, 64 108.043, 64 107.642 C 64 106.415, 68.259 102.448, 73 99.259 C 75.475 97.595, 78.325 95.317, 79.332 94.197 C 81.111 92.220, 81.104 92.024, 79.082 87.453 C 76.476 81.561, 76.481 81.441, 79.837 70.258 C 81.725 63.966, 83.530 60.056, 85.492 58.008 C 87.077 56.354, 87.834 55, 87.173 55 C 84.508 55, 79.025 50.464, 79.012 48.250 C 79.002 46.447, 78.435 46, 76.155 46 C 71.517 46, 69.606 42.973, 70.339 36.788 C 70.680 33.905, 71.868 30.317, 72.978 28.816 C 74.695 26.493, 74.819 25.696, 73.805 23.471 C 72.385 20.355, 74.020 18.698, 77.862 19.359 C 80.026 19.731, 80.179 19.492, 79.693 16.498 C 79.231 13.648, 79.409 13.294, 81.082 13.732 C 82.527 14.109, 83 13.711, 83 12.117 C 83 8.669, 85.009 9.636, 91.590 16.250 C 95.011 19.688, 98.949 23.287, 100.341 24.249 C 103.894 26.703, 108.592 36.812, 111.379 48 C 112.681 53.225, 115.128 60.493, 116.816 64.152 C 121.397 74.075, 123.284 81.405, 122.518 86.305 C 122.158 88.612, 121.658 92.975, 121.408 96 C 120.893 102.226, 119.462 107.411, 117.313 110.830 C 114.651 115.067, 113 123.959, 113 134.060 L 113 144.023 152.750 143.761 L 192.500 143.500 192.757 71.750 L 193.013 0 96.507 0 L 0 0 0 72 M 0.474 72.500 C 0.474 112.100, 0.598 128.154, 0.750 108.176 C 0.901 88.198, 0.901 55.798, 0.750 36.176 C 0.598 16.554, 0.474 32.900, 0.474 72.500" stroke="none" fill="black" fill-rule="evenodd"/>
</svg>