<svg xmlns="http://www.w3.org/2000/svg" width="192" height="144" viewBox="0 0 192 144" version="1.1">
	<path d="M 102 33.345 C 102 34.635, 101.122 36.484, 100.049 37.455 C 98.351 38.992, 98.271 39.498, 99.427 41.360 C 101.735 45.075, 102.213 50.124, 100.385 51.460 C 98.898 52.548, 98.896 52.899, 100.361 55.732 C 101.240 57.430, 102.454 58.985, 103.060 59.187 C 103.666 59.389, 104.468 61.055, 104.844 62.891 C 105.389 65.557, 104.789 67.774, 101.860 73.922 C 99.843 78.154, 96.994 83.042, 95.528 84.785 L 92.862 87.953 95.402 90.493 C 97.397 92.488, 97.758 93.512, 97.084 95.266 C 96.187 97.599, 94.545 104.955, 93.552 111.082 C 92.924 114.963, 94.671 117.461, 98.500 118.157 C 99.629 118.362, 100.634 119.453, 100.807 120.662 C 101.146 123.029, 103.535 124.139, 112 125.863 C 121.549 127.809, 127.128 129.590, 127.977 130.963 C 128.498 131.806, 129.474 132.012, 130.649 131.526 C 132.332 130.830, 132.273 130.658, 129.995 129.630 C 125.283 127.504, 124.788 126.961, 126.109 125.369 C 127.600 123.572, 126.636 122.604, 121.822 121.067 C 118.342 119.956, 118.173 119.707, 118.702 116.449 C 119.224 113.233, 119.018 112.906, 115.575 111.467 C 112.896 110.348, 112.024 109.458, 112.385 108.213 C 112.658 107.271, 113.197 103.800, 113.584 100.500 C 114.062 96.419, 114.868 94.091, 116.104 93.221 C 118.917 91.241, 119.373 85.943, 117.516 76.803 C 116.589 72.236, 115.756 65.641, 115.665 62.147 L 115.500 55.794 119.731 56.272 C 124.810 56.846, 126.756 55.282, 125.014 52.026 C 124.395 50.870, 124.177 49.018, 124.529 47.910 C 125.061 46.232, 125.423 46.106, 126.692 47.160 C 127.950 48.203, 128.460 48.091, 129.608 46.521 C 131.365 44.118, 131.360 42.874, 129.581 40.441 C 128.188 38.536, 128.114 38.544, 125.675 40.836 C 123.566 42.817, 122.857 42.994, 120.999 41.999 C 119.156 41.013, 118.502 41.158, 116.866 42.914 C 114.922 45, 111.331 45.891, 112.502 43.997 C 112.843 43.445, 112.818 40.970, 112.447 38.497 C 111.884 34.738, 111.413 34, 109.578 34 C 108.370 34, 106.509 33.339, 105.441 32.532 C 102.722 30.476, 102 30.646, 102 33.345 M 48.169 35.986 C 46.954 37.628, 44.906 39.236, 43.617 39.560 C 41.642 40.056, 41.262 40.807, 41.202 44.324 C 41.126 48.761, 42.692 54.026, 44.443 55.222 C 45.105 55.674, 44.659 56.536, 43.250 57.529 C 41.673 58.639, 41 60.125, 41 62.492 C 41 67.962, 39.449 70.547, 34.385 73.515 C 29.910 76.137, 29.329 76.237, 25.056 75.120 C 22.550 74.464, 19.241 73.015, 17.703 71.899 C 15.090 70.004, 14.412 69.949, 7.453 71.072 C 0.380 72.213, 0.001 72.408, 0.025 74.887 C 0.047 77.313, 1.324 78.051, 17.856 85.200 C 29.589 90.275, 36.402 92.708, 37.831 92.334 C 40.343 91.677, 40.697 93.177, 38.467 95.028 C 37.106 96.157, 37.174 96.556, 39.071 98.576 C 40.247 99.828, 40.923 101.316, 40.573 101.883 C 40.222 102.450, 41.050 105.070, 42.411 107.707 C 46.554 115.727, 46.567 117.164, 42.522 119.759 C 39.091 121.960, 37.912 124, 40.072 124 C 40.661 124, 41.012 125.013, 40.852 126.250 C 40.693 127.487, 40.869 128.993, 41.245 129.596 C 41.656 130.257, 39.960 131.614, 36.975 133.012 C 31.312 135.664, 30.936 135.565, 21.984 129.044 L 16.467 125.026 8.234 127.725 C 3.705 129.210, 0.026 130.891, 0.058 131.462 C 0.090 132.033, 3.352 135.086, 7.308 138.247 L 14.500 143.993 28.250 143.997 C 35.813 143.998, 42 143.712, 42 143.360 C 42 143.008, 41.213 142.145, 40.252 141.442 C 37.326 139.302, 39.690 138.625, 43.603 140.482 C 48.455 142.784, 54.345 142.001, 57.916 138.580 C 59.398 137.161, 60.965 136, 61.400 136 C 62.745 136, 68 131.921, 68 130.877 C 68 130.334, 65.525 128.795, 62.500 127.458 C 59.475 126.120, 56.930 124.682, 56.843 124.263 C 56.757 123.843, 56.589 122.375, 56.469 121 C 56.349 119.625, 55.262 115.606, 54.053 112.068 C 52.211 106.676, 52.057 105.262, 53.097 103.318 C 53.780 102.043, 55.274 100.990, 56.419 100.978 C 58.971 100.951, 66.500 97.619, 67.438 96.100 C 67.814 95.491, 66.295 92.387, 64.061 89.203 C 61.828 86.019, 60 83.052, 60 82.611 C 60 82.170, 59.122 80.576, 58.050 79.070 C 56.977 77.563, 56.100 75.469, 56.102 74.415 C 56.115 63.820, 55.773 58.977, 54.974 58.484 C 54.410 58.135, 54.598 57, 55.435 55.698 C 57.035 53.208, 56.851 45.458, 55.114 42.213 C 54.501 41.068, 53.986 39.314, 53.968 38.316 C 53.938 36.603, 51.810 33, 50.828 33 C 50.579 33, 49.383 34.344, 48.169 35.986 M 160.928 37.250 C 160.838 38.802, 154.307 44.333, 152.564 44.333 C 151.173 44.333, 151.426 51.186, 153.001 56.179 C 153.846 58.856, 153.844 58.858, 147.277 59.561 C 141.245 60.207, 140.572 60.084, 139.048 58.064 C 137.775 56.376, 136.779 56.017, 134.767 56.522 C 130.876 57.499, 129.839 62, 133.504 62 C 134.267 62, 135.497 63.238, 136.237 64.750 C 137.427 67.182, 138.069 67.469, 141.792 67.232 C 145.969 66.966, 146.001 66.990, 146.125 70.482 C 146.295 75.270, 146.380 75.713, 147.304 76.638 C 147.747 77.080, 148.516 76.784, 149.013 75.979 C 149.628 74.983, 150.243 74.843, 150.939 75.539 C 151.855 76.455, 147.134 84.623, 140.413 93.750 C 138.306 96.611, 139.468 98.190, 146.187 101.595 C 150.610 103.836, 152.203 106.139, 150.190 107.382 C 149.745 107.657, 148.781 110.760, 148.047 114.276 C 146.873 119.902, 146.359 120.803, 143.772 121.780 C 140.308 123.087, 140.310 125.848, 143.777 127.576 C 147.528 129.446, 147.695 130.275, 144.168 129.519 C 141.472 128.941, 140.375 129.238, 138.418 131.077 C 137.088 132.326, 136 133.720, 136 134.174 C 136 135.575, 139.247 135.087, 141.104 133.406 C 145.070 129.817, 152.531 134.576, 149.798 138.952 C 148.738 140.649, 148.848 141.175, 150.525 142.443 C 153.137 144.418, 158.661 144.429, 159.761 142.462 C 160.410 141.303, 161.222 141.147, 163.061 141.827 C 166.106 142.953, 169.725 141.441, 170.603 138.675 C 171.071 137.201, 170.535 136.137, 168.622 134.743 C 165.612 132.551, 165.382 131.341, 167.524 128.973 C 169.341 126.966, 168.561 124.313, 165.907 123.470 C 162.824 122.492, 161.848 119.616, 162.962 114.790 C 163.506 112.430, 163.962 109.222, 163.976 107.660 C 163.990 105.964, 164.885 104.104, 166.198 103.041 C 168.377 101.276, 168.382 101.212, 166.704 95.381 C 163.981 85.911, 163.315 79.931, 164.215 73 C 164.678 69.425, 165.092 65.487, 165.135 64.250 C 165.206 62.177, 165.681 62, 171.165 62 C 174.671 62, 176.877 61.609, 176.531 61.050 C 176.208 60.527, 174.044 60.125, 171.722 60.155 C 163.566 60.263, 163.734 60.336, 165.605 57.481 C 166.714 55.787, 167.071 53.827, 166.694 51.499 C 166.385 49.595, 166.520 47.796, 166.995 47.503 C 167.470 47.209, 166.524 45.514, 164.892 43.735 C 162.777 41.430, 162.084 39.853, 162.481 38.250 C 162.787 37.013, 162.580 36, 162.019 36 C 161.459 36, 160.968 36.563, 160.928 37.250 M 113 47.441 C 113 48.298, 113.450 49, 114 49 C 114.550 49, 115 48.577, 115 48.059 C 115 47.541, 114.550 46.840, 114 46.500 C 113.450 46.160, 113 46.584, 113 47.441 M 41.551 79.339 C 39.907 80.541, 39.886 80.742, 41.344 81.302 C 42.380 81.699, 43.351 81.213, 44.020 79.963 C 45.238 77.688, 44.176 77.420, 41.551 79.339 M 101.176 96.750 C 95.564 111.227, 96.017 112.885, 105.176 111.370 L 108.852 110.762 109.554 103.269 C 110.322 95.068, 109.804 94.044, 104.871 94.015 C 102.922 94.004, 101.967 94.710, 101.176 96.750 M 153.716 111.981 C 152.222 115.820, 151 119.420, 151 119.981 C 151 121.815, 156.822 121.148, 157.379 119.250 C 159.304 112.699, 159.205 105, 157.197 105 C 156.776 105, 155.210 108.141, 153.716 111.981 M 48 123 C 47.187 124.518, 47.239 124.996, 48.215 124.985 C 50.355 124.959, 52.300 123.294, 51.569 122.112 C 50.533 120.436, 49.194 120.770, 48 123 M 117.338 124.191 C 119.351 124.925, 120.498 124.902, 121.287 124.112 C 122.104 123.296, 121.350 123.021, 118.450 123.079 C 114.544 123.157, 114.532 123.169, 117.338 124.191 M 37.730 134.670 C 34.375 136.436, 35.082 138.235, 38.811 137.420 C 44.108 136.263, 44.333 136.106, 42.990 134.488 C 41.546 132.748, 41.370 132.754, 37.730 134.670" stroke="none" fill="black" fill-rule="evenodd"/>
</svg>