<svg xmlns="http://www.w3.org/2000/svg" width="192" height="144" viewBox="0 0 192 144" version="1.1">
	<path d="M 93.350 75.062 C 89.392 76.534, 88.382 83.961, 91.114 91.500 C 91.314 92.050, 89.795 95.259, 87.738 98.631 C 83.555 105.492, 82.621 112.610, 85.582 115.068 C 86.452 115.790, 87.914 117.946, 88.832 119.860 C 90.059 122.421, 91.618 123.744, 94.731 124.870 C 100.754 127.047, 104.142 125.698, 105.337 120.644 C 106.031 117.710, 106.918 116.576, 109.122 115.808 C 110.705 115.256, 112 114.489, 112 114.103 C 112 113.718, 110.227 112.299, 108.060 110.951 C 105.320 109.246, 103.570 107.132, 102.310 104.005 C 101.315 101.532, 100.343 99.150, 100.152 98.711 C 99.961 98.272, 100.936 98.197, 102.320 98.544 C 105.475 99.336, 106.691 97.199, 106.488 91.221 C 106.299 85.646, 104.559 83.757, 102.422 86.807 C 101.565 88.032, 100.444 88.774, 99.932 88.458 C 98.688 87.689, 98.739 83.280, 100 82.500 C 100.550 82.160, 101 80.839, 101 79.563 C 101 75.944, 97.120 73.661, 93.350 75.062" stroke="none" fill="black" fill-rule="evenodd"/>
</svg>