<svg xmlns="http://www.w3.org/2000/svg" width="192" height="144" viewBox="0 0 192 144" version="1.1">
	<path d="M 88.620 19.418 C 84.490 24.458, 84.102 27.519, 86.912 32.864 C 87.963 34.864, 89.091 37.330, 89.417 38.345 C 89.743 39.360, 90.908 40.425, 92.005 40.712 C 94.417 41.342, 94.473 41.820, 92.404 44.106 C 91.113 45.533, 90.354 45.663, 88.434 44.788 C 83.667 42.616, 81.370 47.946, 84.480 53.961 C 85.538 56.007, 86.504 56.681, 87.868 56.324 C 89.393 55.925, 90.067 56.694, 91.232 60.163 C 92.641 64.359, 92.604 64.614, 90.094 68 C 88.667 69.925, 87.162 71.650, 86.750 71.833 C 84.914 72.649, 86.146 75.999, 88.500 76.589 C 91.339 77.302, 91.577 78.687, 89.652 83.282 C 87.055 89.477, 77.797 98, 73.662 98 C 72.441 98, 58 113.053, 58 114.326 C 58 114.605, 59.688 116.581, 61.750 118.718 C 66.141 123.268, 69.678 124.983, 74.797 125.044 C 76.834 125.068, 80.300 125.781, 82.500 126.628 C 84.700 127.474, 87.963 128.116, 89.750 128.052 C 92.403 127.958, 93 128.316, 93 130 C 93 132.873, 95.524 133.542, 98.647 131.496 C 100.927 130.002, 101.786 129.939, 105.080 131.026 C 107.171 131.716, 110.482 132.021, 112.439 131.704 C 115.308 131.238, 116.200 131.506, 117.045 133.084 C 119.349 137.390, 113.855 139.660, 99.500 140.331 C 92.328 140.666, 87.456 141.392, 85.500 142.417 C 82.689 143.889, 83.871 143.988, 104.250 143.994 C 116.213 143.997, 126 143.602, 126 143.117 C 126 142.631, 126.967 141.980, 128.148 141.671 C 130.172 141.142, 130.264 140.674, 129.731 133.629 L 129.166 126.149 133.193 122.041 C 136.573 118.593, 137.111 117.496, 136.542 115.216 C 136.169 113.722, 135.745 111.029, 135.601 109.231 C 135.334 105.898, 130.740 100, 128.411 100 C 127.077 100, 121.365 89.021, 117.659 79.333 L 115.300 73.166 118.607 72.546 C 124.725 71.398, 127.703 64.739, 124.664 59 C 116.713 43.983, 114.636 40.275, 113.419 38.921 C 112.639 38.053, 112 35.459, 112 33.156 C 112 28.479, 107.265 19, 103.673 16.483 C 102.508 15.667, 99.459 15, 96.898 15 C 92.604 15, 91.958 15.345, 88.620 19.418" stroke="none" fill="black" fill-rule="evenodd"/>
</svg>