<svg xmlns="http://www.w3.org/2000/svg" width="192" height="144" viewBox="0 0 192 144" version="1.1">
	<path d="M 0 72 L 0 144 40.352 144 L 80.704 144 81.500 135.750 C 82.556 124.817, 82.130 92.112, 80.902 89.817 C 80.023 88.174, 79.653 88.325, 76.905 91.455 C 72.924 95.989, 71.284 96.387, 64.175 94.545 C 60.895 93.695, 56.664 93, 54.772 93 C 52.279 93, 50.531 92.182, 48.417 90.028 C 46.796 88.376, 44.389 87.027, 43 86.992 C 40.051 86.917, 29.639 84.513, 28.073 83.545 C 26.448 82.541, 29.498 79.870, 31.426 80.610 C 32.292 80.942, 33 80.751, 33 80.184 C 33 79.012, 43.529 79.637, 45.873 80.949 C 46.676 81.398, 49.004 81.541, 51.048 81.267 C 53.455 80.944, 56.758 81.514, 60.420 82.884 C 63.530 84.048, 66.915 85, 67.942 85 C 70 85, 75 77.401, 75 74.275 C 75 73.247, 76.810 70.639, 79.021 68.479 C 81.297 66.257, 82.812 63.952, 82.512 63.170 C 82.213 62.391, 83.514 60.383, 85.491 58.573 C 89.306 55.077, 90.152 52.500, 87.172 53.445 C 84.920 54.160, 79.102 48.166, 79.340 45.376 C 79.447 44.125, 78.743 43.393, 77.225 43.178 C 75.974 43, 74.215 41.731, 73.315 40.358 C 71.797 38.041, 71.802 37.469, 73.395 32.417 C 74.496 28.923, 76.018 26.379, 77.645 25.313 C 79.650 24, 80.066 23.079, 79.633 20.916 C 79.015 17.826, 80.707 16.637, 84.403 17.565 C 86.303 18.042, 86.896 17.493, 88.277 13.977 C 89.272 11.443, 90.340 10.092, 91.017 10.510 C 91.627 10.887, 92.920 10.478, 93.890 9.599 C 95.517 8.128, 95.819 8.178, 97.765 10.251 C 100.327 12.981, 104.071 21.076, 103.327 22.280 C 103.032 22.757, 103.685 24.127, 104.778 25.324 C 109.235 30.202, 112.175 39.645, 113.552 53.500 C 113.934 57.350, 114.617 61.213, 115.070 62.084 C 115.522 62.955, 117.477 68.894, 119.413 75.283 C 122.665 86.013, 122.823 87.112, 121.474 89.699 C 120.586 91.403, 120.246 93.746, 120.605 95.680 C 120.982 97.709, 120.470 100.800, 119.191 104.219 C 118.088 107.167, 116.857 111.811, 116.455 114.539 C 116.053 117.268, 115.111 120.388, 114.362 121.473 C 113.429 122.824, 113 126.683, 113 133.734 L 113 144.023 152.750 143.761 L 192.500 143.500 192.757 71.750 L 193.013 0 96.507 0 L 0 0 0 72 M 0.474 72.500 C 0.474 112.100, 0.598 128.154, 0.750 108.176 C 0.901 88.198, 0.901 55.798, 0.750 36.176 C 0.598 16.554, 0.474 32.900, 0.474 72.500" stroke="none" fill="black" fill-rule="evenodd"/>
</svg>