<svg xmlns="http://www.w3.org/2000/svg" width="192" height="144" viewBox="0 0 192 144" version="1.1">
	<path d="M 0 72 L 0 144 34.841 144 L 69.682 144 70.936 138.396 C 72.174 132.863, 75.447 122.812, 78.229 116 C 79.313 113.345, 79.436 111.213, 78.739 107.164 C 77.896 102.269, 77.630 101.876, 75.524 102.405 C 73.734 102.854, 73.096 102.487, 72.628 100.740 C 71.652 97.101, 71.867 96.750, 74.640 97.446 C 77.217 98.093, 77.264 98.019, 76.651 94.304 C 76.305 92.212, 76.017 89.922, 76.011 89.215 C 76.005 88.509, 74.603 89.521, 72.896 91.465 C 70.698 93.969, 68.956 95, 66.924 95 C 64.414 95, 63.682 94.247, 61.065 88.972 C 59.420 85.656, 57.382 81.956, 56.537 80.749 C 55.692 79.542, 55 77.536, 55 76.291 C 55 74.675, 54.056 73.632, 51.704 72.650 C 48.210 71.190, 44.511 66.600, 45.517 64.972 C 45.848 64.437, 48.272 64, 50.904 64 C 54.431 64, 56.169 64.530, 57.513 66.014 C 58.576 67.189, 60.051 67.801, 61.053 67.483 C 62.925 66.889, 68 72.071, 68 74.577 C 68 75.360, 68.450 76, 69 76 C 69.550 76, 70 74.902, 70 73.559 C 70 72.216, 70.396 70.874, 70.879 70.575 C 71.362 70.276, 71.529 67.999, 71.249 65.516 C 70.745 61.045, 70.770 61, 73.763 61 C 77.361 61, 78 59.729, 78 52.577 C 78 45.919, 79.953 31.035, 81.119 28.812 C 81.868 27.383, 81.322 27.021, 77.570 26.458 C 75.130 26.092, 72.894 25.167, 72.600 24.401 C 72.105 23.111, 73.692 12.311, 74.590 10.855 C 75.231 9.817, 83.081 11.870, 88.500 14.493 C 94.409 17.353, 99.656 17.255, 108 14.127 C 111.025 12.993, 114.737 12.051, 116.250 12.033 C 118.990 12, 119 12.026, 119 18.965 C 119 25.009, 118.723 26.078, 116.907 27.050 C 115.756 27.666, 113.752 27.904, 112.455 27.578 C 110.122 26.993, 110.112 27.024, 111.548 30.461 C 112.381 32.455, 113.042 37.465, 113.099 42.218 C 113.229 53.134, 114.293 61.543, 115.516 61.324 C 116.057 61.227, 117.287 60.842, 118.250 60.467 C 119.725 59.893, 120 60.371, 120 63.510 C 120 66.749, 119.738 67.165, 117.987 66.707 C 116.150 66.227, 116.194 66.442, 118.487 69.167 C 119.869 70.810, 121 73.158, 121 74.386 C 121 75.613, 121.661 77.491, 122.468 78.559 C 123.912 80.468, 123.937 80.466, 123.968 78.437 C 124.005 76.049, 128.611 71.356, 131.417 70.847 C 134.071 70.367, 134.504 68.365, 132.091 67.734 C 129.456 67.045, 125.929 61.132, 126.587 58.508 C 126.874 57.368, 126.681 54.537, 126.160 52.217 C 125.398 48.825, 125.485 48, 126.606 48 C 127.478 48, 128 46.912, 128 45.098 C 128 42.794, 128.598 41.987, 130.902 41.184 C 132.975 40.462, 133.997 39.291, 134.481 37.086 C 135.492 32.481, 136.720 33.336, 138.009 39.542 C 138.975 44.198, 139.449 44.992, 140.974 44.508 C 143.367 43.749, 146 46.476, 146 49.714 C 146 51.128, 145.066 55.421, 143.924 59.256 C 142.440 64.239, 141.299 66.371, 139.924 66.730 C 138.866 67.007, 138 67.680, 138 68.225 C 138 68.775, 139.079 68.946, 140.421 68.609 C 141.752 68.275, 143.552 68.275, 144.421 68.608 C 146.186 69.285, 146.596 72, 144.933 72 C 144.346 72, 144.131 72.836, 144.455 73.859 C 145.137 76.008, 143.597 77.561, 139.853 78.501 C 138.051 78.953, 137.047 80.006, 136.677 81.831 C 136.380 83.299, 135.303 85.400, 134.283 86.500 C 133.263 87.600, 131.408 90.684, 130.161 93.353 C 127.984 98.011, 127.748 98.189, 124.305 97.787 C 121.421 97.451, 120.619 97.740, 120.222 99.259 C 119.851 100.679, 119.141 101.001, 117.364 100.555 C 115.363 100.053, 115 100.336, 115 102.399 C 115 105.920, 113.898 108.453, 113 106.999 C 112.521 106.225, 112.105 106.491, 111.766 107.788 C 111.484 108.864, 112.709 113.515, 114.488 118.123 C 116.267 122.730, 119.004 130.443, 120.571 135.263 L 123.421 144.025 157.960 143.763 L 192.500 143.500 192.757 71.750 L 193.013 0 96.507 0 L 0 0 0 72 M 0.474 72.500 C 0.474 112.100, 0.598 128.154, 0.750 108.176 C 0.901 88.198, 0.901 55.798, 0.750 36.176 C 0.598 16.554, 0.474 32.900, 0.474 72.500 M 59.290 30 C 58.754 32.048, 57 32.807, 57 30.992 C 57 30.341, 56.378 30.315, 55.250 30.919 C 54.288 31.433, 52.712 32.098, 51.750 32.396 C 49.618 33.056, 49.457 36.304, 51.474 37.978 C 53.850 39.950, 54.601 46.087, 52.641 47.520 C 48.078 50.857, 54.118 63, 60.341 63 C 63.154 63, 68 58.868, 68 56.469 C 68 55.787, 68.746 52.919, 69.658 50.095 C 71.387 44.743, 70.816 41.946, 67.223 38.152 C 66.417 37.301, 66.174 35.591, 66.563 33.516 C 66.929 31.564, 66.737 29.956, 66.090 29.556 C 65.461 29.167, 64.978 29.648, 64.948 30.691 C 64.902 32.262, 64.688 32.204, 63.326 30.250 C 61.385 27.467, 59.975 27.380, 59.290 30 M 58 38 C 58 39.100, 58.450 40, 59 40 C 59.550 40, 60 39.100, 60 38 C 60 36.900, 59.550 36, 59 36 C 58.450 36, 58 36.900, 58 38 M 116 93.378 C 116 95.042, 116.548 96, 117.500 96 C 118.325 96, 119 95.380, 119 94.622 C 119 93.865, 118.325 92.685, 117.500 92 C 116.232 90.947, 116 91.160, 116 93.378 M 111.574 93.667 C 111.222 94.584, 111.399 95.799, 111.967 96.367 C 112.678 97.078, 113 96.557, 113 94.700 C 113 91.615, 112.501 91.253, 111.574 93.667 M 111.015 100.750 C 111.024 101.162, 111.467 102.175, 112 103 C 112.784 104.213, 112.972 104.069, 112.985 102.250 C 112.993 101.013, 112.550 100, 112 100 C 111.450 100, 111.007 100.338, 111.015 100.750" stroke="none" fill="black" fill-rule="evenodd"/>
</svg>