<svg xmlns="http://www.w3.org/2000/svg" width="192" height="144" viewBox="0 0 192 144" version="1.1">
	<path d="M 82.425 53.408 C 78.534 54.146, 71.334 56.410, 66.425 58.438 C 45.087 67.253, 33.511 71.142, 25.622 72.144 C 11.080 73.992, 10.399 74.455, 20 75.963 C 27.903 77.205, 43.091 81.600, 64.713 88.903 C 86.143 96.141, 107.519 96.917, 125.625 91.114 C 128.856 90.078, 137.125 86.860, 144 83.962 C 158.907 77.680, 163.976 76.240, 174.271 75.368 C 178.545 75.005, 181.889 74.555, 181.701 74.368 C 181.513 74.180, 177.791 73.348, 173.430 72.519 C 169.068 71.690, 161.675 69.634, 157 67.949 C 152.325 66.264, 140.400 62.134, 130.500 58.770 C 113.126 52.866, 112.100 52.643, 101 52.359 C 94.251 52.186, 86.577 52.620, 82.425 53.408 M 89.828 55.527 C 86.623 56.548, 84.199 58.224, 82.108 60.864 C 75.749 68.893, 75.193 76.289, 80.348 84.298 C 83.197 88.724, 84.577 89.838, 89.598 91.769 C 95.443 94.016, 95.559 94.021, 101.665 92.269 C 106.856 90.780, 108.451 89.743, 111.759 85.707 C 115.316 81.368, 115.707 80.321, 115.891 74.641 C 116.072 69.033, 115.743 67.842, 112.797 63.433 C 107.496 55.501, 99.045 52.592, 89.828 55.527" stroke="none" fill="black" fill-rule="evenodd"/>
</svg>