<svg xmlns="http://www.w3.org/2000/svg" width="192" height="144" viewBox="0 0 192 144" version="1.1">
	<path d="M 24.455 4.455 C 23.105 5.805, 22 7.974, 22 9.276 C 22 10.713, 20.257 13.461, 17.559 16.277 C 13.303 20.719, 11.018 25.791, 11.006 30.822 C 10.998 33.794, 15.881 42.191, 17.158 41.402 C 18.907 40.321, 21.745 43.883, 21.240 46.525 C 20.980 47.886, 21.221 49, 21.775 49 C 22.330 49, 23.066 50.125, 23.411 51.500 C 23.756 52.875, 24.512 54, 25.090 54 C 25.669 54, 26.850 54.708, 27.715 55.572 C 28.701 56.558, 30.166 56.924, 31.644 56.553 C 36.286 55.388, 34.650 57.226, 25.545 63.405 C 20.819 66.612, 17.093 71.870, 16.610 76.011 C 16.098 80.414, 15.375 80.626, 13.464 76.930 C 12.032 74.162, 8 63.397, 8 62.343 C 8 62.155, 10.588 61.968, 13.750 61.930 C 19.138 61.864, 25.536 60.354, 22 59.983 C 21.175 59.897, 16.675 59.491, 12 59.082 C 7.325 58.673, 2.713 57.989, 1.750 57.562 C 0.170 56.861, 0 57.513, 0 64.271 C 0 69.704, 0.411 72.096, 1.500 73 C 2.325 73.685, 3 75.067, 3 76.071 C 3 77.075, 4.158 81.562, 5.573 86.042 C 6.988 90.522, 7.945 94.389, 7.699 94.635 C 7.453 94.881, 5.892 93.939, 4.231 92.541 C 2.570 91.143, 0.939 90, 0.606 90 C 0.273 90, 0.016 93.263, 0.036 97.250 L 0.072 104.500 5.036 109.912 C 10.332 115.686, 10.961 117.363, 8.372 118.812 C 7.198 119.468, 6.687 121.365, 6.539 125.611 C 6.427 128.850, 5.976 134.313, 5.538 137.750 L 4.742 144 32.397 144 L 60.051 144 58.533 141.063 C 57.698 139.448, 56.561 137.847, 56.007 137.504 C 54.067 136.305, 55.025 135.350, 57.765 135.752 C 60.750 136.190, 66 132.872, 66 130.546 C 66 128.869, 59.919 124.216, 55.891 122.812 C 52.990 121.801, 52.827 121.486, 53.386 117.988 C 53.715 115.930, 55.307 110.996, 56.923 107.024 C 58.539 103.053, 59.633 99.207, 59.354 98.479 C 58.845 97.155, 56.034 95.633, 55.353 96.314 C 55.154 96.512, 53.894 100.343, 52.552 104.826 C 51.210 109.309, 49.674 113.759, 49.139 114.716 C 48.274 116.261, 48.023 116.144, 46.897 113.673 C 45.871 111.421, 45.875 109.419, 46.917 103.195 C 48.453 94.014, 48.460 94, 51.559 94 C 52.902 94, 54 93.498, 54 92.883 C 54 92.232, 55.041 91.966, 56.500 92.245 C 58.176 92.565, 59 92.274, 59 91.361 C 59 90.613, 59.338 90.071, 59.750 90.159 C 61.208 90.467, 64.518 88.607, 65.878 86.714 C 66.982 85.178, 67.427 85.066, 68.113 86.148 C 68.584 86.892, 68.976 88.287, 68.985 89.250 C 69.005 91.555, 73.220 95.841, 73.789 94.134 C 74.559 91.822, 76.935 96.347, 76.968 100.191 C 76.986 102.221, 77.450 104.160, 78 104.500 C 78.550 104.840, 79 105.968, 79 107.006 C 79 108.045, 80.125 111.010, 81.500 113.596 C 82.875 116.182, 84 118.922, 84 119.684 C 84 120.760, 84.447 120.831, 86 120 C 87.756 119.060, 88 119.240, 88 121.465 C 88 123.373, 88.519 124, 90.098 124 C 92.078 124, 92.156 124.345, 91.485 130.129 C 90.993 134.366, 91.102 136.055, 91.837 135.601 C 92.421 135.240, 93.388 135.857, 93.985 136.972 C 95.624 140.034, 96.693 139.465, 99.091 134.250 L 101.275 129.500 102.239 133 C 103.714 138.355, 105.258 141.115, 106.509 140.635 C 107.133 140.395, 108.178 141.055, 108.830 142.100 C 109.944 143.883, 111.529 144, 134.508 144 C 152.273 144, 159 143.685, 159 142.852 C 159 141.448, 148.940 116.117, 146.071 110.298 C 143.450 104.982, 143.434 103.592, 146 104.383 C 147.100 104.723, 148.900 105.277, 150 105.617 C 151.100 105.956, 152 105.778, 152 105.222 C 152 104.192, 157.672 105.061, 159.889 106.431 C 160.508 106.814, 161.283 106.426, 161.612 105.569 C 161.943 104.706, 162.721 104.331, 163.355 104.727 C 165.498 106.065, 171 105.761, 171 104.304 C 171 103.240, 171.451 103.171, 173 104 C 175.671 105.429, 175.520 104.371, 172.488 100.395 L 169.976 97.102 174.571 99.134 C 177.098 100.252, 179.389 100.945, 179.661 100.673 C 179.933 100.400, 177.533 98.249, 174.328 95.892 C 171.122 93.535, 164 87.306, 158.500 82.052 C 146.454 70.542, 133.181 58.820, 129.370 56.324 C 126.921 54.720, 124.286 54.500, 107.490 54.500 L 88.394 54.500 78.754 49.750 C 73.452 47.138, 68.863 45, 68.557 45 C 68.251 45, 68 45.959, 68 47.132 C 68 48.947, 64.445 56, 63.531 56 C 63.362 56, 63.199 53.188, 63.167 49.750 C 63.128 45.452, 62.133 40.690, 59.981 34.500 C 55.331 21.121, 49.252 12.545, 42.653 10.052 C 41.088 9.460, 39.568 8.063, 39.276 6.948 C 37.989 2.025, 28.483 0.426, 24.455 4.455 M 58.676 53.403 C 58.304 54.371, 58 56.027, 58 57.082 C 58 58.356, 57.304 59, 55.927 59 C 54.490 59, 53.957 59.538, 54.190 60.750 C 54.641 63.088, 55.970 62.955, 59.443 60.223 C 62.250 58.016, 62.292 57.851, 60.845 54.794 C 59.598 52.163, 59.240 51.933, 58.676 53.403 M 49.710 63 C 49.998 64.100, 50.631 65, 51.117 65 C 51.602 65, 52 64.100, 52 63 C 52 61.900, 51.367 61, 50.594 61 C 49.680 61, 49.370 61.700, 49.710 63 M 0.030 81.450 C 0.008 83.601, 0.299 84.101, 1.104 83.296 C 1.895 82.505, 1.903 81.670, 1.134 80.346 C 0.193 78.728, 0.057 78.864, 0.030 81.450" stroke="none" fill="black" fill-rule="evenodd"/>
</svg>