<svg xmlns="http://www.w3.org/2000/svg" width="192" height="144" viewBox="0 0 192 144" version="1.1">
	<path d="M 138.500 24.431 C 137.950 24.648, 136.345 25.077, 134.934 25.385 C 130.535 26.346, 125 32.547, 125 36.515 C 125 38.138, 123.974 38.862, 120.250 39.868 L 115.500 41.151 118.377 43.465 C 119.960 44.737, 120.952 46.268, 120.583 46.866 C 119.187 49.125, 122.037 56.115, 125.054 57.831 C 128.127 59.579, 128.871 61.529, 126.750 62.271 C 125.834 62.591, 125.967 63.235, 127.250 64.683 C 128.213 65.769, 129 67.077, 129 67.589 C 129 69.823, 134.200 74, 136.981 74 C 140.435 74, 141.461 75.270, 140.085 77.842 C 139.175 79.542, 138.148 79.677, 129.538 79.226 C 121.170 78.789, 120 78.928, 120 80.364 C 120 81.264, 119.438 82.027, 118.750 82.060 C 118.063 82.092, 115.375 82.469, 112.778 82.897 C 108.669 83.574, 107.438 83.325, 103.278 80.978 C 93.858 75.663, 81.416 68.071, 76.792 64.815 C 74.202 62.992, 71.165 61.532, 70.042 61.571 C 57.637 62.005, 57.868 61.963, 58.162 63.750 C 58.321 64.713, 58.105 66.050, 57.683 66.722 C 56.490 68.624, 59.925 73.159, 62.049 72.484 C 63.458 72.037, 63.722 72.348, 63.300 73.959 C 62.714 76.203, 63.950 76.650, 65.754 74.846 C 67.167 73.433, 75.668 76.300, 78 78.976 C 78.825 79.922, 84.450 83.862, 90.500 87.731 C 103.231 95.873, 105.651 96.438, 122 95.087 C 127.775 94.610, 132.836 94.529, 133.247 94.907 C 133.657 95.284, 134.227 97.822, 134.514 100.547 C 135.441 109.365, 136.155 112.978, 137.087 113.554 C 137.589 113.864, 138 115.393, 138 116.952 C 138 119.827, 136.602 120.959, 132.363 121.517 C 131.187 121.672, 128.689 122.528, 126.810 123.420 C 121.924 125.739, 112.442 127.119, 109.384 125.956 C 105.532 124.491, 94.283 124.802, 91.074 126.462 C 87.968 128.068, 86.403 132.557, 88.648 133.419 C 89.392 133.704, 90 134.814, 90 135.885 C 90 136.957, 90.563 138.096, 91.250 138.417 C 92.243 138.880, 92.245 139.119, 91.258 139.581 C 90.339 140.010, 90.292 140.678, 91.080 142.149 C 92.091 144.038, 92.974 144.116, 108.822 143.717 C 121.529 143.397, 127.300 142.807, 133.061 141.238 C 137.219 140.105, 142.169 139.026, 144.061 138.839 C 147.168 138.533, 147.531 138.765, 147.816 141.250 L 148.133 144 169.816 143.971 L 191.500 143.942 186.302 139.058 C 180.638 133.737, 180.855 133, 188.082 133 L 192 133 192 107.655 C 192 84.371, 191.851 82.175, 190.171 80.655 C 189.165 79.745, 187.844 79, 187.234 79 C 185.790 79, 176.038 68.934, 175.875 67.275 C 175.753 66.026, 175.373 62.894, 175.125 61.090 C 175.056 60.589, 173.185 57.884, 170.967 55.078 C 167.167 50.270, 166.971 49.697, 167.574 45.157 C 168.637 37.141, 164.599 30.922, 155.807 27.033 C 151.522 25.137, 140.798 23.525, 138.500 24.431" stroke="none" fill="black" fill-rule="evenodd"/>
</svg>