<svg xmlns="http://www.w3.org/2000/svg" width="192" height="144" viewBox="0 0 192 144" version="1.1">
	<path d="M 78.642 3.750 C 78.301 5.813, 78.013 10.200, 78.002 13.500 C 77.991 16.800, 77.669 21.975, 77.286 25 L 76.589 30.500 75.506 25.570 C 74.006 18.745, 72 18.371, 72 24.917 C 72 31.187, 70.393 31.549, 67.220 25.992 C 65.129 22.330, 63 20.754, 63 22.869 C 63 23.347, 63.688 27.684, 64.529 32.507 C 65.370 37.329, 65.852 41.482, 65.599 41.734 C 64.922 42.411, 61.355 35.015, 60.543 31.250 C 60.157 29.462, 59.223 28, 58.468 28 C 57.305 28, 57.305 28.695, 58.467 32.556 C 59.462 35.861, 59.517 37.006, 58.670 36.723 C 57.669 36.390, 56.670 34.168, 53.401 25 C 52.940 23.708, 52.737 23.729, 51.941 25.147 C 51.332 26.232, 51.525 28.237, 52.508 31.023 C 55.017 38.134, 53.801 40.374, 49.944 35.750 C 47.552 32.883, 47.321 35.130, 49.477 40.290 L 50.954 43.825 45.227 44.260 C 39.644 44.685, 28.514 47.242, 24.500 49.023 C 17.174 52.273, 14.045 53, 7.378 53 L 0 53 0 98.500 L 0 144 38.878 144 C 72.981 144, 77.915 143.807, 79.058 142.430 C 79.787 141.552, 81.216 141.085, 82.304 141.369 C 84.058 141.828, 84.193 141.473, 83.690 137.724 C 83.383 135.439, 82.428 133.055, 81.566 132.425 C 79.421 130.856, 79.574 129.763, 82.733 124.106 C 85.165 119.749, 85.825 119.221, 88.733 119.304 C 92.479 119.410, 92.886 120.917, 90.474 125.752 C 89.271 128.163, 89.160 129.732, 89.949 133.156 C 90.500 135.545, 90.962 138.967, 90.976 140.759 L 91 144.018 141.750 143.759 L 192.500 143.500 192.761 98 L 193.023 52.500 177.761 52.806 C 162.702 53.108, 156.157 52.268, 151.500 49.434 C 150.400 48.764, 147.311 47.908, 144.635 47.530 C 140.217 46.906, 128.700 42.690, 126.674 40.955 C 126.220 40.566, 127.244 36.966, 128.951 32.955 C 130.658 28.945, 131.912 25.235, 131.737 24.712 C 131.563 24.190, 129.864 26.375, 127.960 29.568 C 124.057 36.118, 122 37.503, 122 33.583 C 122 30.413, 121.364 30.343, 118.958 33.250 L 117.095 35.500 117.700 31.616 C 118.520 26.354, 116.267 27.101, 113.306 33.074 L 111.112 37.500 111.638 26.500 C 112.017 18.564, 111.866 15.918, 111.097 17 C 110.510 17.825, 110.024 19.270, 110.015 20.211 C 109.992 22.797, 106.201 25.865, 103.804 25.239 C 101.932 24.749, 101.801 24.178, 102.353 18.897 C 102.994 12.768, 102.123 10.940, 99.863 13.667 C 98.637 15.147, 98.436 15.020, 97.868 12.406 C 97.521 10.808, 97.183 7.362, 97.118 4.750 L 97 0 88.131 0 L 79.262 0 78.642 3.750 M 0.461 98.500 C 0.461 123.800, 0.591 134.007, 0.749 121.181 C 0.908 108.356, 0.907 87.656, 0.749 75.181 C 0.590 62.707, 0.461 73.200, 0.461 98.500 M 96 87.059 C 96 87.641, 96.450 87.840, 97 87.500 C 97.550 87.160, 98 86.684, 98 86.441 C 98 86.198, 97.550 86, 97 86 C 96.450 86, 96 86.477, 96 87.059 M 90.500 88 C 90.160 88.550, 90.359 89, 90.941 89 C 91.523 89, 92 88.550, 92 88 C 92 87.450, 91.802 87, 91.559 87 C 91.316 87, 90.840 87.450, 90.500 88 M 90.500 101 C 88.741 101.756, 88.838 101.868, 91.309 101.930 C 92.941 101.971, 93.859 101.581, 93.500 101 C 93.160 100.450, 92.796 100.032, 92.691 100.070 C 92.586 100.109, 91.600 100.527, 90.500 101" stroke="none" fill="black" fill-rule="evenodd"/>
</svg>