<svg xmlns="http://www.w3.org/2000/svg" width="192" height="144" viewBox="0 0 192 144" version="1.1">
	<path d="M 0 72 L 0 144 35.500 144 C 69.632 144, 71 143.927, 71 142.112 C 71 139.512, 75.624 123.528, 78.028 117.815 C 80.098 112.895, 80.735 101.709, 79.092 99.115 C 77.760 97.011, 73.305 98.570, 71.522 101.763 L 69.994 104.500 70.643 101.601 C 71.086 99.620, 70.945 98.916, 70.196 99.379 C 69.593 99.751, 68.653 99.220, 68.106 98.198 C 67.198 96.501, 58.653 93, 55.420 93 C 54.677 93, 52.591 91.718, 50.785 90.150 C 48.585 88.242, 45.903 87.088, 42.668 86.658 C 36.918 85.894, 31 83.278, 31 81.500 C 31 80.540, 33.266 80.306, 40.250 80.546 C 45.337 80.720, 51.182 80.883, 53.237 80.908 C 55.293 80.933, 59.216 82.089, 61.954 83.477 C 68.813 86.952, 69.697 86.774, 70.524 81.750 C 70.909 79.413, 71.894 75.925, 72.712 74 C 73.531 72.075, 74.373 68.305, 74.583 65.623 C 74.793 62.941, 75.597 60.241, 76.370 59.623 C 77.271 58.903, 78.008 55.431, 78.423 49.958 C 79.138 40.526, 80.968 33.414, 84.005 28.267 C 86.395 24.217, 86.472 23.605, 84.500 24.362 C 82.056 25.300, 80 23.954, 80 21.415 C 80 20.111, 81.220 16.557, 82.711 13.516 C 85.376 8.082, 85.482 7.999, 88.961 8.607 C 92.960 9.305, 96.271 11.117, 100.172 14.742 C 102.472 16.879, 103.447 17.135, 107.172 16.581 C 119.697 14.716, 120 14.714, 120 16.505 C 120 17.443, 119.297 20.925, 118.437 24.243 C 117.333 28.502, 117.187 30.587, 117.937 31.337 C 119.683 33.083, 119.145 39.030, 116.915 42.638 C 115.768 44.494, 114.445 45.775, 113.976 45.485 C 113.507 45.195, 112.758 45.610, 112.311 46.408 C 111.865 47.205, 111.050 47.777, 110.500 47.679 C 109.950 47.581, 109.363 49.642, 109.195 52.260 C 108.965 55.843, 109.274 57.168, 110.445 57.617 C 111.300 57.945, 112 58.762, 112 59.433 C 112 60.103, 113.134 61.716, 114.519 63.018 C 119.431 67.633, 123.164 74.620, 122.898 78.701 C 122.393 86.432, 122.935 89.846, 124.750 90.383 C 125.712 90.668, 129.782 91.137, 133.792 91.425 C 137.803 91.712, 141.800 92.348, 142.674 92.837 C 144.208 93.696, 148.283 92.846, 152.291 90.832 C 153.276 90.337, 154.513 90.199, 155.041 90.525 C 155.568 90.851, 156 90.456, 156 89.648 C 156 87.612, 159.420 88.278, 159.833 90.394 C 160.680 94.735, 153.664 100, 147.032 100 C 145.364 100, 144 100.398, 144 100.883 C 144 102.557, 138.552 102.802, 132.034 101.420 C 128.440 100.658, 123.797 100.027, 121.715 100.017 C 118.238 100.001, 118.017 100.163, 119 102 C 120.790 105.345, 119.307 104.232, 117 100.500 C 114.573 96.573, 114.286 96.469, 111.554 98.536 C 110.043 99.678, 109.875 100.275, 110.804 101.204 C 111.462 101.862, 112 104.360, 112 106.757 C 112 109.478, 113.345 114.363, 115.584 119.772 C 117.556 124.535, 120.277 131.940, 121.632 136.229 L 124.095 144.026 158.298 143.763 L 192.500 143.500 192.757 71.750 L 193.013 0 96.507 0 L 0 0 0 72 M 0.474 72.500 C 0.474 112.100, 0.598 128.154, 0.750 108.176 C 0.901 88.198, 0.901 55.798, 0.750 36.176 C 0.598 16.554, 0.474 32.900, 0.474 72.500 M 44.745 45.985 C 43.810 47.076, 42.751 49.144, 42.391 50.580 C 41.969 52.260, 41.472 52.764, 40.996 51.993 C 39.534 49.628, 37 55.202, 37 60.782 C 37 64.535, 36.660 65.908, 35.855 65.410 C 35.041 64.907, 34.912 65.541, 35.409 67.601 C 35.794 69.196, 36.429 72.070, 36.820 73.989 C 37.278 76.241, 38.187 77.605, 39.384 77.835 C 40.533 78.057, 40.979 77.776, 40.559 77.096 C 40.187 76.493, 40.359 76, 40.941 76 C 41.523 76, 42 76.420, 42 76.933 C 42 78.983, 46.026 78.961, 50.294 76.888 L 54.788 74.705 54.733 68.852 C 54.702 65.634, 54.242 63, 53.710 63 C 53.113 63, 53.034 60.991, 53.504 57.750 C 53.923 54.862, 54.205 51.421, 54.132 50.101 C 53.892 45.809, 50 42.944, 50 47.059 C 50 48.191, 49.550 48.840, 49 48.500 C 48.450 48.160, 48 47.009, 48 45.941 C 48 43.460, 46.894 43.475, 44.745 45.985 M 111 91.941 C 111 93.073, 111.450 94, 112 94 C 112.550 94, 113 93.352, 113 92.559 C 113 91.766, 112.550 90.840, 112 90.500 C 111.450 90.160, 111 90.809, 111 91.941" stroke="none" fill="black" fill-rule="evenodd"/>
</svg>