<svg xmlns="http://www.w3.org/2000/svg" width="192" height="144" viewBox="0 0 192 144" version="1.1">
	<path d="M 43.648 2.750 C 38.927 28.159, 37.748 57.469, 40.502 81 C 43.745 108.724, 45.466 116.808, 53.114 140.257 L 54.340 144.014 123.420 143.757 L 192.500 143.500 192.818 116 C 192.993 100.875, 192.827 68.588, 192.450 44.250 L 191.764 0 117.961 0 L 44.159 0 43.648 2.750 M 1.090 97.250 L 1 144 21.500 144 C 32.775 144, 41.996 143.662, 41.991 143.250 C 41.987 142.838, 40.514 140.925, 38.720 139 C 24.498 123.744, 10.882 93.152, 3.114 59 L 1.181 50.500 1.090 97.250" stroke="none" fill="black" fill-rule="evenodd"/>
</svg>