<svg xmlns="http://www.w3.org/2000/svg" width="192" height="144" viewBox="0 0 192 144" version="1.1">
	<path d="M 0 52.045 L 0 104.091 3.750 103.414 C 5.813 103.041, 8.210 102.372, 9.077 101.926 C 9.945 101.480, 13.006 101.007, 15.880 100.876 C 21.559 100.617, 23.262 99.396, 20.631 97.472 C 19.267 96.475, 19.151 95.732, 20.008 93.480 C 21.243 90.232, 21.141 77.999, 19.866 76.389 C 19.339 75.724, 19.602 73.804, 20.522 71.601 C 21.367 69.579, 22.293 65.129, 22.580 61.712 C 23.284 53.329, 26.654 50.654, 31.015 55.015 C 32.533 56.533, 32.854 57.706, 32.316 59.765 C 30.950 64.988, 31.619 70.273, 33.877 72.101 C 36.544 74.261, 36.646 77, 34.059 77 C 32.991 77, 31.924 77.338, 31.686 77.750 C 31.448 78.162, 32.523 82.536, 34.075 87.469 C 36.879 96.385, 37.046 98.446, 34.783 96.183 C 33.029 94.429, 32 94.743, 32 97.031 C 32 98.149, 32.654 99.314, 33.454 99.621 C 37.145 101.037, 69.018 85.451, 70.906 81.306 C 72.317 78.209, 72.292 78, 70.500 78 C 69.675 78, 69 77.388, 69 76.639 C 69 75.891, 66.412 73.893, 63.250 72.200 C 55.976 68.304, 53.323 66.344, 54.174 65.492 C 54.543 65.123, 57.996 66.662, 61.847 68.911 C 70.559 73.999, 71.467 74.053, 69.511 69.371 C 68.096 65.985, 68.145 65.341, 70.247 59.729 C 72.055 54.904, 73.523 52.913, 77.681 49.651 C 80.530 47.415, 82.628 45.207, 82.342 44.744 C 82.056 44.281, 81.227 44.397, 80.500 45 C 79.570 45.772, 78.983 45.781, 78.520 45.032 C 78.158 44.447, 77.466 44.212, 76.981 44.511 C 75.472 45.444, 74.743 38.309, 75.968 34.598 C 76.609 32.655, 78.535 29.886, 80.248 28.445 C 83.354 25.831, 85.817 25.610, 91.500 27.433 C 93.098 27.946, 94.072 27.162, 96.342 23.537 C 97.905 21.042, 99.502 19, 99.891 19 C 101.424 19, 103.058 25.777, 102.096 28.145 C 101.569 29.440, 100.867 31.763, 100.536 33.307 C 100.052 35.561, 99.539 35.988, 97.930 35.478 C 96.142 34.910, 95.954 35.246, 96.180 38.599 C 96.332 40.860, 95.949 42.517, 95.216 42.761 C 94.547 42.984, 94 43.590, 94 44.106 C 94 44.623, 95.101 44.325, 96.446 43.443 C 97.791 42.562, 100.730 41.630, 102.977 41.371 C 105.224 41.113, 109.095 40.031, 111.579 38.966 C 117.430 36.458, 127.647 33.819, 130.028 34.201 C 131.351 34.413, 133.643 32.182, 137.940 26.500 C 141.268 22.100, 143.993 17.918, 143.995 17.207 C 143.998 16.495, 141.508 13.401, 138.462 10.331 L 132.925 4.749 129.185 8.799 C 124.802 13.548, 121.276 14.699, 115.979 13.112 C 111.674 11.822, 108 6.997, 108 2.632 L 108 0 54 0 L 0 0 0 52.045 M 141.646 3.274 C 143.216 5.074, 145.206 7.626, 146.070 8.945 C 147.357 10.911, 148.405 11.312, 151.893 11.175 C 156.317 11.002, 160 12.328, 160 14.094 C 160 14.657, 159.599 14.870, 159.108 14.567 C 158.618 14.264, 156.086 14.800, 153.483 15.758 C 148.658 17.534, 143.314 22.601, 137.671 30.750 C 135.261 34.230, 135.015 35.160, 136.014 37.025 C 137.431 39.675, 135.784 42.184, 133.878 40.278 C 133.261 39.661, 132.136 39.394, 131.378 39.685 C 129.676 40.338, 129.567 42.689, 131.212 43.237 C 132.017 43.506, 131.669 44.458, 130.176 46.071 C 126.981 49.523, 123.015 55.818, 122.689 57.955 C 122.537 58.954, 121.194 61.368, 119.706 63.319 C 118.218 65.270, 117 67.238, 117 67.693 C 117 68.147, 116.162 69.042, 115.138 69.682 C 114.114 70.321, 112.779 72.821, 112.170 75.238 C 111.562 77.655, 110.103 80.501, 108.930 81.564 C 105.848 84.352, 103.550 89, 105.253 89 C 107.445 89, 121 95.853, 121 96.961 C 121 98.961, 115.011 97.816, 107.169 94.316 C 105.337 93.498, 103.665 93.001, 103.455 93.212 C 103.244 93.422, 105.059 96.620, 107.488 100.317 L 111.904 107.040 108.764 110.616 C 107.037 112.583, 104.583 114.588, 103.312 115.072 C 100.642 116.086, 100.460 117.917, 102.471 123.500 C 103.264 125.700, 103.932 130.066, 103.956 133.203 C 103.980 136.340, 104.522 140.052, 105.161 141.453 L 106.321 144 149.101 144 C 172.631 144, 192.102 143.645, 192.370 143.210 C 192.639 142.776, 192.594 110.376, 192.271 71.210 L 191.683 -0 165.238 -0 L 138.793 0 141.646 3.274 M 43 6 C 41.718 6.828, 41.754 6.972, 43.250 6.985 C 44.212 6.993, 45 6.550, 45 6 C 45 4.780, 44.887 4.780, 43 6 M 115.500 30 C 115.840 30.550, 116.316 31, 116.559 31 C 116.802 31, 117 30.550, 117 30 C 117 29.450, 116.523 29, 115.941 29 C 115.359 29, 115.160 29.450, 115.500 30 M 126.543 37.931 C 125.860 39.036, 127.437 40.230, 128.361 39.306 C 129.311 38.355, 129.134 37, 128.059 37 C 127.541 37, 126.859 37.419, 126.543 37.931 M 115.629 42.181 C 111.851 43.818, 107.801 46.176, 106.629 47.422 C 105.458 48.668, 102.475 50.320, 100 51.093 L 95.500 52.500 95.861 62.123 C 96.099 68.482, 95.843 71.979, 95.107 72.434 C 93.841 73.217, 94.533 77.018, 96.739 81.392 L 98.198 84.283 100.349 80.703 C 101.532 78.734, 103.997 74.618, 105.826 71.557 C 107.655 68.496, 109.680 65.411, 110.326 64.703 C 110.972 63.995, 111.950 62.657, 112.500 61.730 C 113.050 60.803, 116.305 56.002, 119.734 51.062 C 123.537 45.581, 125.737 41.478, 125.377 40.539 C 124.601 38.517, 123.757 38.659, 115.629 42.181 M 90 45 C 90 45.550, 90.450 46, 91 46 C 91.550 46, 92 45.550, 92 45 C 92 44.450, 91.550 44, 91 44 C 90.450 44, 90 44.450, 90 45 M 187 50 C 187 50.550, 187.450 51, 188 51 C 188.550 51, 189 50.550, 189 50 C 189 49.450, 188.550 49, 188 49 C 187.450 49, 187 49.450, 187 50 M 76.170 63.009 C 74.036 64.787, 73.910 65.393, 74.677 70.213 C 75.261 73.878, 76.018 75.572, 77.172 75.795 C 79.249 76.195, 80.589 72.414, 79.034 70.541 C 78.256 69.604, 78.230 68.976, 78.951 68.530 C 80.137 67.798, 80.408 60.982, 79.250 61.033 C 78.838 61.052, 77.451 61.940, 76.170 63.009 M 63.500 91.747 C 51.212 97.949, 36.498 104, 33.705 104 C 32.437 104, 30.954 103.554, 30.410 103.010 C 29.756 102.356, 26.544 102.526, 20.960 103.508 C 16.307 104.327, 9.912 104.998, 6.750 104.999 L 1 105 1 124.500 L 1 144 35.933 144 C 75.904 144, 72.833 144.823, 71.538 134.459 C 71.156 131.400, 71.391 126.501, 72.091 122.943 C 73.112 117.754, 73.082 116.615, 71.904 115.905 C 68.145 113.635, 67.728 112.980, 67.740 109.357 C 67.747 107.236, 68.991 101.546, 70.506 96.713 C 72.020 91.880, 73.088 87.763, 72.879 87.565 C 72.671 87.367, 68.450 89.249, 63.500 91.747 M 39.500 96 C 39.840 96.550, 40.541 97, 41.059 97 C 41.577 97, 42 96.550, 42 96 C 42 95.450, 41.298 95, 40.441 95 C 39.584 95, 39.160 95.450, 39.500 96 M 26 99.500 C 26.685 100.325, 27.640 101, 28.122 101 C 28.605 101, 29 100.325, 29 99.500 C 29 98.638, 28.098 98, 26.878 98 C 25.104 98, 24.960 98.247, 26 99.500 M 80.486 119.431 C 79.137 120.459, 77 133.514, 77 140.724 L 77 144 88.500 144 C 101.807 144, 100.991 145.023, 97.937 132.177 C 94.480 117.638, 94.747 118.007, 87.830 118.197 C 84.562 118.287, 81.257 118.842, 80.486 119.431" stroke="none" fill="black" fill-rule="evenodd"/>
</svg>