<svg xmlns="http://www.w3.org/2000/svg" width="192" height="144" viewBox="0 0 192 144" version="1.1">
	<path d="M 0 53.579 C 0 104.293, 0.095 107.171, 1.750 106.428 C 2.712 105.996, 7.212 105.186, 11.750 104.629 C 18.432 103.809, 20 103.295, 20 101.925 C 20 100.994, 19.167 100.015, 18.149 99.749 C 16.224 99.246, 16.270 97.198, 18.508 83.951 C 19.053 80.728, 18.883 80, 17.588 80 C 15.642 80, 15.641 79.733, 17.566 73.500 C 18.416 70.750, 19.149 66.025, 19.196 63 C 19.305 55.949, 20.328 54, 23.920 54 C 27.936 54, 30.241 57.674, 28.981 62.067 C 27.799 66.187, 28.633 69.804, 31.501 73 C 34.484 76.324, 34.382 79, 31.272 79 C 28.990 79, 28.908 79.223, 29.534 83.750 C 29.895 86.362, 30.760 91.076, 31.455 94.223 C 32.848 100.526, 32.615 101.400, 29.929 99.962 C 27.443 98.632, 26.260 100.739, 28.553 102.415 C 29.517 103.120, 29.985 104.215, 29.594 104.848 C 29.196 105.492, 29.460 106.008, 30.191 106.017 C 32.459 106.048, 66.085 88.711, 66.946 87.067 C 67.398 86.205, 68.079 83.621, 68.459 81.325 C 69.073 77.615, 68.892 77.014, 66.825 75.921 C 63.433 74.126, 54 66.655, 54 65.763 C 54 64.038, 56.829 65.302, 62.424 69.527 C 65.683 71.987, 68.720 74, 69.174 74 C 69.628 74, 70 72.979, 70 71.732 C 70 70.485, 71.083 67.870, 72.408 65.921 C 73.732 63.972, 75.474 60.802, 76.279 58.875 C 77.084 56.948, 79.713 53.829, 82.121 51.943 C 84.530 50.058, 86.650 48.174, 86.833 47.757 C 87.017 47.341, 87.804 47, 88.583 47 C 89.362 47, 90 46.325, 90 45.500 C 90 43.763, 88.847 43.553, 87.378 45.022 C 86.682 45.718, 85.721 45.478, 84.364 44.272 C 82.019 42.185, 82.428 38.920, 85.876 32.211 C 89.494 25.172, 95.700 22.614, 102.258 25.458 C 103.683 26.076, 103.967 25.773, 103.758 23.860 C 103.589 22.314, 104.018 21.500, 105 21.500 C 105.839 21.500, 106.979 19.961, 107.589 18.005 L 108.677 14.511 109.387 19.858 C 109.937 24.003, 109.731 25.762, 108.472 27.683 C 107.002 29.927, 106.993 30.465, 108.381 33.390 C 109.223 35.165, 109.655 37.604, 109.340 38.809 C 108.962 40.252, 109.234 41.038, 110.133 41.111 C 113.481 41.382, 116.762 40.652, 120.292 38.851 C 127.631 35.107, 142.328 30.826, 146.158 31.316 C 149.573 31.754, 150.445 31.228, 159.311 23.387 C 165.756 17.687, 169.320 15.186, 170.403 15.601 C 171.282 15.938, 172 16.771, 172 17.452 C 172 19.141, 168.702 22, 166.754 22 C 165.880 22, 162.201 24.563, 158.577 27.694 C 153.929 31.712, 152.148 33.890, 152.528 35.089 C 153.288 37.483, 150.400 40, 146.893 40 C 144.177 40, 144.025 40.178, 145.072 42.135 C 146.134 44.118, 146.025 44.223, 143.558 43.604 C 141.258 43.027, 138.925 44.463, 126.201 54.288 C 118.115 60.531, 109.324 67.275, 106.665 69.274 C 104.006 71.274, 101.041 74.458, 100.077 76.349 C 98.402 79.634, 98.405 80.095, 100.136 86.644 C 101.132 90.415, 101.960 93.725, 101.975 94 C 102.025 94.882, 113.835 101.823, 124.865 107.453 C 127.252 108.671, 127.919 109.481, 127.161 110.239 C 125.875 111.525, 118.949 109.091, 111.629 104.779 C 108.950 103.200, 106.599 102.068, 106.405 102.261 C 106.212 102.455, 107.650 106.306, 109.601 110.819 L 113.148 119.024 111.099 122.340 C 109.971 124.164, 107.878 126.190, 106.446 126.843 C 105.014 127.495, 104.063 128.585, 104.331 129.264 C 104.599 129.944, 105.636 133.542, 106.634 137.261 L 108.448 144.021 150.474 143.761 L 192.500 143.500 192.761 71.723 L 193.022 -0.054 176.665 0.050 L 160.308 0.155 159.131 5.254 C 157.916 10.515, 158.485 11.946, 161.809 11.985 C 162.529 11.993, 162.808 12.501, 162.429 13.114 C 162.015 13.784, 160.175 14.019, 157.815 13.702 C 155.411 13.380, 152.846 13.720, 151.195 14.582 C 144.788 17.924, 137.076 14.325, 134.870 6.962 C 134.214 4.770, 133.005 2.419, 132.185 1.738 C 131.041 0.788, 115.482 0.435, 65.347 0.222 L 0 -0.056 0 53.579 M 0.466 54 C 0.466 83.425, 0.593 95.463, 0.749 80.750 C 0.905 66.037, 0.905 41.962, 0.749 27.250 C 0.593 12.537, 0.466 24.575, 0.466 54 M 26.500 14 C 26.160 14.550, 26.584 15, 27.441 15 C 28.298 15, 29 14.550, 29 14 C 29 13.450, 28.577 13, 28.059 13 C 27.541 13, 26.840 13.450, 26.500 14 M 128.500 41.579 C 124.100 43.534, 119.938 45.377, 119.250 45.674 C 118.563 45.971, 117.986 46.728, 117.969 47.357 C 117.922 49.064, 113.932 51.640, 109.091 53.091 C 106.730 53.798, 104.204 55.304, 103.476 56.438 C 102.210 58.412, 102.082 64.415, 103.280 65.613 C 103.594 65.928, 108.460 62.656, 114.093 58.343 C 119.726 54.029, 127.117 48.377, 130.518 45.782 C 141.987 37.031, 141.415 35.840, 128.500 41.579 M 187.500 60 C 187.840 60.550, 188.316 61, 188.559 61 C 188.802 61, 189 60.550, 189 60 C 189 59.450, 188.523 59, 187.941 59 C 187.359 59, 187.160 59.450, 187.500 60 M 79.659 67.054 C 78.204 68.198, 76.554 70.941, 75.933 73.250 C 74.960 76.864, 75.045 77.560, 76.600 78.697 C 79.020 80.467, 79.639 80.354, 81.415 77.818 C 82.492 76.280, 82.638 75.269, 81.909 74.390 C 81.182 73.514, 81.338 72.246, 82.437 70.121 C 85.233 64.715, 84.151 63.520, 79.659 67.054 M 72.667 82.667 C 71.452 83.881, 71.976 84.947, 73.500 84.362 C 74.325 84.045, 75 83.384, 75 82.893 C 75 81.845, 73.622 81.711, 72.667 82.667 M 57.283 98.672 C 39.782 107.806, 23.225 114.407, 20.469 113.350 C 17.956 112.385, 18.835 110.995, 23.250 108.949 L 27.500 106.980 20 107.458 C 15.875 107.721, 9.912 108.238, 6.750 108.608 L 1 109.280 1 126.640 L 1 144 35.855 144 L 70.711 144 71.296 137.738 C 71.617 134.293, 72.161 130.743, 72.505 129.847 C 72.950 128.687, 71.890 127.382, 68.815 125.303 C 64.684 122.511, 64.502 122.175, 64.554 117.443 C 64.594 113.856, 65.759 109.963, 68.804 103.249 C 71.112 98.160, 73 93.548, 73 92.999 C 73 90.985, 69.795 92.142, 57.283 98.672 M 22.500 101 C 22.840 101.550, 23.541 102, 24.059 102 C 24.577 102, 25 101.550, 25 101 C 25 100.450, 24.298 100, 23.441 100 C 22.584 100, 22.160 100.450, 22.500 101 M 56 106.059 C 56 107.191, 56.430 107.852, 56.956 107.527 C 57.482 107.202, 57.659 106.275, 57.349 105.468 C 56.556 103.401, 56 103.644, 56 106.059 M 79.595 133.271 C 79.327 135.047, 78.887 138.188, 78.617 140.250 L 78.126 144 89.151 144 L 100.176 144 99.487 139.750 C 98.078 131.048, 97.510 130.569, 88.287 130.291 L 80.083 130.043 79.595 133.271" stroke="none" fill="black" fill-rule="evenodd"/>
</svg>