<svg xmlns="http://www.w3.org/2000/svg" width="192" height="144" viewBox="0 0 192 144" version="1.1">
	<path d="M 63.755 4.805 C 65.034 18.110, 58.973 34.038, 48.712 44.341 C 45.295 47.772, 40.700 51.461, 38.500 52.539 C 36.300 53.618, 34.275 54.744, 34 55.042 C 33.363 55.733, 27.035 57.577, 20.132 59.084 C 14.923 60.221, 5.308 59.908, 1.750 58.486 C 0.100 57.826, 0 60.239, 0 100.893 L 0 144 56.420 144 L 112.841 144 113.452 137.250 C 113.788 133.537, 115.167 126, 116.517 120.500 C 120.222 105.410, 123.288 86.187, 122.696 81.772 C 122.407 79.612, 121.456 77.057, 120.585 76.094 C 118.308 73.578, 118.576 71.966, 122.500 64.569 C 124.425 60.940, 126 57.326, 126 56.537 C 126 55.748, 124.859 53.872, 123.464 52.367 C 122.069 50.862, 121.142 49.072, 121.404 48.391 C 121.665 47.709, 120.781 46.432, 119.440 45.552 C 116.948 43.920, 116.288 40.673, 117.923 38.090 C 118.493 37.189, 118.231 35.454, 117.194 33.281 C 115.899 30.566, 115.832 29.722, 116.857 29.089 C 118.684 27.959, 132.418 31.412, 136.902 34.128 C 139.443 35.667, 142.411 40.903, 143.436 45.652 C 143.810 47.386, 144.990 50.519, 146.058 52.614 C 147.126 54.709, 148 57.565, 148 58.961 C 148 60.358, 149.332 63.975, 150.961 67 C 152.720 70.269, 153.937 74.054, 153.960 76.332 C 153.982 78.440, 155.318 83.167, 156.928 86.837 C 159.630 92.993, 160.225 97.999, 159.115 105.250 C 158.866 106.876, 157.199 105.875, 156.617 103.750 C 156.167 102.111, 155.775 101.849, 155.170 102.784 C 153.381 105.551, 151.269 102.415, 145.546 88.492 C 141.843 79.482, 139.238 74.362, 138.655 74.945 C 138.139 75.461, 137.498 78.173, 137.229 80.972 C 136.800 85.428, 137.141 86.708, 139.963 91.248 C 141.736 94.100, 144.898 101.231, 146.990 107.095 C 149.082 112.958, 152.982 121.748, 155.659 126.628 C 158.335 131.507, 161.380 137.424, 162.426 139.776 L 164.328 144.053 178.414 143.776 L 192.500 143.500 192.825 129 C 193.003 121.025, 192.837 88.737, 192.455 57.250 L 191.761 0 127.527 -0 L 63.294 -0 63.755 4.805 M 0.459 101 C 0.459 124.925, 0.589 134.713, 0.749 122.750 C 0.908 110.788, 0.908 91.213, 0.749 79.250 C 0.589 67.288, 0.459 77.075, 0.459 101" stroke="none" fill="black" fill-rule="evenodd"/>
</svg>