<svg xmlns="http://www.w3.org/2000/svg" width="192" height="144" viewBox="0 0 192 144" version="1.1">
	<path d="M 0 72 L 0 144 50.331 144 L 100.662 144 101.886 141.712 C 102.912 139.796, 102.772 138.701, 101.021 134.962 C 99.871 132.508, 97.371 128.312, 95.465 125.637 C 93.559 122.962, 92 119.857, 92 118.737 C 92 116.761, 92.400 116.717, 105.500 117.266 L 119 117.832 118.927 109.666 C 118.887 105.175, 118.441 99.025, 117.937 96 C 115 78.394, 114.843 75.699, 116.503 71.353 C 118.159 67.017, 117.981 63.095, 115.796 55.750 C 115.182 53.688, 114.068 52, 113.320 52 C 112.572 52, 110.238 50.913, 108.134 49.584 C 105.168 47.712, 104.018 46.135, 103.020 42.571 C 101.863 38.439, 101.945 37.418, 103.832 32.487 L 105.931 27.001 103.466 25.386 C 100.404 23.380, 100.403 22.863, 103.450 19.241 C 105.722 16.542, 105.781 16.210, 104.260 14.688 C 102.077 12.506, 103.182 11.629, 108.276 11.501 C 111.394 11.423, 112.578 10.953, 112.820 9.698 C 113.208 7.684, 113.453 7.642, 115.897 9.168 C 117.414 10.115, 118.289 9.957, 120.519 8.332 L 123.271 6.327 130.886 8.738 C 142.325 12.360, 151.155 17.007, 153.605 20.696 C 154.772 22.453, 156.720 28.078, 157.934 33.196 C 159.279 38.869, 160.961 43.378, 162.244 44.750 L 164.349 47 162.174 47 C 160.331 47, 159.998 47.571, 159.985 50.750 C 159.975 53.215, 159.676 54.038, 159.115 53.151 C 158.517 52.208, 158.052 52.909, 157.569 55.484 C 156.881 59.150, 156.871 59.157, 155.072 57.083 C 152.644 54.283, 152 54.457, 152 57.912 C 152 60.425, 151.657 60.786, 149.500 60.549 C 147.647 60.346, 147 60.747, 147 62.099 C 147 63.375, 148.180 64.241, 150.927 64.980 C 155.697 66.265, 159.563 70.596, 161.028 76.295 C 161.622 78.608, 162.222 80.916, 162.362 81.424 C 162.502 81.932, 163.690 80.807, 165.003 78.924 C 166.316 77.041, 168.899 73.706, 170.744 71.513 C 173.104 68.707, 173.935 66.879, 173.550 65.344 C 173.126 63.652, 173.749 62.700, 176.324 61.109 C 180.122 58.761, 180.308 56.666, 177.748 45 C 176.963 41.425, 176.437 37.038, 176.578 35.250 C 176.802 32.409, 176.530 32, 174.417 32 C 171.493 32, 171.223 30.381, 174 29.500 C 176.474 28.715, 176.500 29.294, 173.512 18.493 C 170.951 9.232, 170.271 2, 171.961 2 C 172.490 2, 173.407 3.913, 173.999 6.250 C 174.591 8.588, 176.097 13.875, 177.346 18 C 179.472 25.023, 179.787 25.488, 182.308 25.312 C 185.502 25.088, 186.033 27.537, 183 28.500 C 180.287 29.361, 180.486 30.426, 183.573 31.557 C 185.488 32.259, 186.895 34.284, 189.073 39.471 C 191.847 46.078, 192 47.189, 192 60.721 C 192 71.770, 191.706 75, 190.700 75 C 189.985 75, 188.924 74.524, 188.342 73.942 C 187.260 72.860, 185.906 74.720, 177.575 88.740 C 173.582 95.461, 170.796 98, 167.415 98 C 165.567 98, 165.137 98.849, 164.254 104.250 C 163.087 111.386, 163.258 112, 166.404 112 C 169.015 112, 172 114.849, 172 117.342 C 172 118.269, 172.563 119.948, 173.250 121.074 C 174.314 122.817, 174.211 123.336, 172.559 124.561 C 171.388 125.429, 170.594 127.245, 170.559 129.135 C 170.483 133.158, 165.954 137.037, 163.607 135.089 C 162.790 134.410, 160.856 134.001, 159.310 134.178 C 156.832 134.462, 156.488 134.926, 156.397 138.108 C 156.340 140.092, 155.970 142.240, 155.574 142.880 C 155.034 143.754, 159.554 143.977, 173.677 143.772 L 192.500 143.500 192.757 71.750 L 193.013 0 96.507 0 L 0 0 0 72 M 0.474 72.500 C 0.474 112.100, 0.598 128.154, 0.750 108.176 C 0.901 88.198, 0.901 55.798, 0.750 36.176 C 0.598 16.554, 0.474 32.900, 0.474 72.500 M 119 61.382 C 119 62.207, 119.450 63.160, 120 63.500 C 120.550 63.840, 121 63.443, 121 62.618 C 121 61.793, 120.550 60.840, 120 60.500 C 119.450 60.160, 119 60.557, 119 61.382" stroke="none" fill="black" fill-rule="evenodd"/>
</svg>