<svg xmlns="http://www.w3.org/2000/svg" width="192" height="144" viewBox="0 0 192 144" version="1.1">
	<path d="M -0 72.005 L -0 144.010 96.250 143.755 L 192.500 143.500 192.757 71.750 L 193.013 0 96.507 0 L 0 0 -0 72.005 M 0.474 72.500 C 0.474 112.100, 0.598 128.154, 0.750 108.176 C 0.901 88.198, 0.901 55.798, 0.750 36.176 C 0.598 16.554, 0.474 32.900, 0.474 72.500 M 83.540 37.125 C 83.971 38.483, 83.839 39.019, 83.176 38.609 C 82.605 38.256, 81.861 38.416, 81.522 38.964 C 81.183 39.512, 83.177 41.358, 85.953 43.066 C 88.729 44.774, 91 46.583, 91 47.086 C 91 47.589, 91.675 48, 92.500 48 C 93.325 48, 94 48.873, 94 49.941 C 94 53.185, 92.261 53.188, 91.131 49.946 C 90.200 47.275, 89.813 47.030, 88.034 47.982 C 85.390 49.397, 85.467 50.421, 88.361 52.317 C 92.062 54.742, 92.456 59.318, 89.383 64.186 L 86.798 68.281 78.649 67.613 C 54.585 65.642, 53.708 65.623, 54.192 67.092 C 54.448 67.866, 55.746 68.654, 57.078 68.841 C 58.410 69.029, 60.192 69.799, 61.037 70.553 C 61.882 71.307, 63.487 71.685, 64.603 71.394 C 65.719 71.102, 69.190 71.994, 72.316 73.376 C 75.442 74.759, 78 75.451, 78 74.914 C 78 74.377, 77.325 73.678, 76.500 73.362 C 73.050 72.038, 75.452 71, 81.965 71 C 88.017 71, 89.077 71.275, 90.054 73.100 C 91.020 74.906, 91.771 75.111, 95.415 74.565 C 100.766 73.763, 103 74.610, 103 77.440 C 103 79.247, 103.565 79.667, 106 79.667 C 108.655 79.667, 109 79.327, 109 76.720 C 109 74.039, 109.248 73.822, 111.750 74.320 C 115.631 75.092, 123.429 76.884, 130.787 78.695 C 136.535 80.109, 137.229 80.103, 138.866 78.621 C 139.851 77.730, 141.410 77, 142.329 77 C 143.533 77, 144 76.129, 144 73.885 C 144 71.571, 143.035 69.873, 140.250 67.286 L 136.500 63.802 127 64.402 C 121.357 64.759, 116.891 64.602, 116 64.016 C 114.860 63.267, 115.321 63.027, 117.917 63.015 C 122.574 62.994, 121.236 62.011, 115.419 61.179 C 111.202 60.576, 110.550 60.147, 109.848 57.523 C 109.259 55.320, 109.435 54.336, 110.526 53.725 C 112.610 52.559, 112.354 50.260, 110 49 C 108.900 48.411, 108 47.319, 108 46.573 C 108 45.827, 106.200 44.497, 104 43.617 C 98.591 41.452, 98.416 38.511, 103.750 39.408 L 107.500 40.039 104.500 37.525 C 100.672 34.316, 94.914 34.132, 91.158 37.100 L 88.500 39.200 88.180 37.100 C 87.954 35.612, 87.132 35, 85.363 35 C 83.271 35, 82.975 35.345, 83.540 37.125 M 103 55.441 C 103 57.764, 104.501 58.028, 105.808 55.935 C 106.853 54.263, 106.744 54, 105.008 54 C 103.904 54, 103 54.648, 103 55.441 M 93.098 62.559 C 90.201 67.468, 90.472 68.451, 94 65.842 C 95.650 64.622, 97 62.835, 97 61.871 C 97 58.651, 95.218 58.965, 93.098 62.559" stroke="none" fill="black" fill-rule="evenodd"/>
</svg>