<svg xmlns="http://www.w3.org/2000/svg" width="192" height="144" viewBox="0 0 192 144" version="1.1">
	<path d="M 64.419 9.250 C 64.373 14.613, 63.665 20.745, 62.736 23.842 C 59.097 35.965, 47.806 49.514, 36.857 54.892 C 26.042 60.205, 10.467 62.289, 2.250 59.524 L 0 58.767 0 101.383 L 0 144 82.250 144.001 L 164.500 144.001 164.178 139.251 C 163.995 136.544, 164.928 129.982, 166.346 124 C 167.716 118.225, 169.124 111.025, 169.477 108 C 169.829 104.975, 170.820 99.198, 171.679 95.161 C 173.564 86.299, 173.008 79.702, 170.116 76.623 C 168.952 75.385, 168 74.035, 168 73.624 C 168 72.869, 172.328 62.974, 174.062 59.764 C 175.350 57.379, 175.237 56.006, 173.750 55.967 C 172.081 55.922, 168 52.461, 168 51.090 C 168 50.490, 167.190 50, 166.200 50 C 163.481 50, 162 47.974, 162 44.252 C 162 41.844, 161.228 40.235, 159.250 38.522 C 155.199 35.012, 157.178 33.912, 168.679 33.278 C 180.725 32.614, 183.719 33.807, 188.234 41.069 C 189.920 43.781, 191.457 46, 191.649 46 C 191.842 46, 192 35.650, 192 23 L 192 0 128.250 0 L 64.500 0 64.419 9.250" stroke="none" fill="black" fill-rule="evenodd"/>
</svg>