<svg xmlns="http://www.w3.org/2000/svg" width="192" height="144" viewBox="0 0 192 144" version="1.1">
	<path d="M 165.469 19.707 C 162.186 21.746, 156.314 25.757, 152.421 28.620 C 146.558 32.932, 129.724 43, 128.378 43 C 128.170 43, 128 42.380, 128 41.622 C 128 40.865, 127.361 39.715, 126.581 39.067 C 125.459 38.136, 124.949 38.268, 124.150 39.695 C 123.293 41.226, 121.776 41.500, 114.155 41.500 C 106.175 41.500, 104.898 41.755, 102.734 43.785 C 99.470 46.845, 97.102 53.827, 98.943 54.965 C 100.508 55.932, 99.485 58, 97.441 58 C 96.502 58, 96 56.940, 96 54.960 C 96 50.910, 92.602 44.440, 89.357 42.315 C 87.918 41.372, 84.934 40.352, 82.726 40.050 C 78.608 39.486, 78.074 38.943, 75.906 33.117 C 71.452 21.149, 56.984 16.198, 47.533 23.407 C 40.474 28.791, 36.006 38.888, 37.398 46.310 C 38.260 50.900, 42.969 56.433, 48.353 59.180 C 51.538 60.805, 53.596 61.133, 58.062 60.728 C 61.179 60.446, 64.352 60.609, 65.114 61.092 C 66.188 61.772, 66.065 61.973, 64.570 61.985 C 61.681 62.008, 53.056 68.220, 53.026 70.300 C 53.012 71.289, 52.343 73.370, 51.540 74.923 C 49.827 78.234, 50.453 79.358, 53.092 77.711 C 54.600 76.769, 55.297 76.868, 56.648 78.219 C 58.069 79.640, 58.121 80.149, 56.987 81.515 C 55.860 82.874, 55.892 83.559, 57.188 85.816 C 58.041 87.300, 59.006 92.268, 59.348 96.933 C 59.688 101.571, 60.423 105.823, 60.983 106.383 C 62.336 107.736, 62.284 111.739, 60.907 112.198 C 60.306 112.398, 59.881 114.123, 59.962 116.031 C 60.268 123.252, 60.146 126.603, 59.459 129.831 C 59.005 131.963, 59.227 134.056, 60.077 135.643 C 61.122 137.597, 61.149 138.532, 60.202 140.048 C 58.372 142.978, 58.723 143.667, 62.043 143.667 C 64.456 143.667, 64.937 143.339, 64.365 142.083 C 63.516 140.222, 63.581 136.803, 64.553 132.169 C 64.995 130.059, 64.768 127.935, 63.934 126.377 C 62.810 124.276, 62.864 123.500, 64.309 121.054 C 66.238 117.788, 66.508 113.908, 64.915 112.315 C 64.319 111.719, 63.981 110.185, 64.165 108.906 C 64.506 106.542, 64.561 106.520, 74.858 104.625 C 78.139 104.021, 78.196 104.069, 77.376 106.753 C 76.914 108.264, 76.528 117.261, 76.518 126.747 L 76.500 143.993 92.750 143.997 C 101.688 143.998, 109 143.830, 109 143.622 C 109 143.414, 108.325 141.629, 107.500 139.654 C 105.114 133.943, 105.576 126.367, 108.686 120.221 C 110.383 116.865, 111.616 115.388, 112.036 116.206 C 112.401 116.918, 113.497 122.154, 114.470 127.842 L 116.240 138.184 114.090 141.092 L 111.940 144 122.856 144 L 133.773 144 138.886 139.199 C 143.034 135.305, 144 133.775, 144 131.100 C 144 126.256, 141.634 122.058, 135.478 115.979 C 132.212 112.753, 130 109.699, 130 108.415 C 130 104.159, 133.094 88.372, 135.158 82.099 C 137.250 75.741, 137.275 75.713, 138.960 77.947 L 140.657 80.197 144.618 75.696 C 151.565 67.804, 155.656 57.152, 153.214 53.313 C 151.444 50.529, 146.844 49.855, 141.853 51.650 C 139.209 52.601, 136.735 53.069, 136.356 52.689 C 135.977 52.310, 135.854 51.868, 136.083 51.707 C 136.313 51.546, 139.290 49.046, 142.699 46.152 C 148.204 41.480, 149.268 40.959, 152.199 41.505 C 154.473 41.928, 156.978 41.464, 160.250 40.013 C 165.466 37.700, 166.015 36.651, 162.996 34.766 C 161.011 33.526, 161.013 33.499, 163.240 31.819 C 165.267 30.290, 165.317 30.059, 163.750 29.458 C 162.288 28.897, 162.901 27.781, 167.629 22.396 C 170.717 18.878, 172.838 16, 172.341 16 C 171.844 16, 168.752 17.668, 165.469 19.707 M 88 68.972 C 84.348 71.787, 78.953 72.425, 74.505 70.566 C 72.443 69.705, 70.658 69, 70.538 69 C 70.418 69, 69.742 70.753, 69.035 72.895 C 67.948 76.189, 67.982 77.257, 69.257 79.813 C 70.222 81.748, 70.418 83.182, 69.803 83.797 C 68.525 85.075, 69.896 94.010, 71.364 93.966 C 74.386 93.875, 88.223 90.096, 90.103 88.848 C 91.275 88.069, 93.331 84.522, 94.670 80.966 L 97.106 74.500 95.053 73.128 C 93.924 72.373, 93 70.686, 93 69.378 C 93 66.512, 91.363 66.379, 88 68.972 M 61.667 114.667 C 60.409 115.925, 61 119, 62.500 119 C 63.433 119, 64 118.056, 64 116.500 C 64 114.072, 63.026 113.307, 61.667 114.667 M 60.667 128.667 C 59.175 130.159, 60.049 133, 62 133 C 63.467 133, 64 132.333, 64 130.500 C 64 128.147, 62.185 127.149, 60.667 128.667" stroke="none" fill="black" fill-rule="evenodd"/>
</svg>