<svg xmlns="http://www.w3.org/2000/svg" width="192" height="144" viewBox="0 0 192 144" version="1.1">
	<path d="M 0 72 L 0 144 39.567 144 L 79.135 144 78.420 141.750 C 77.513 138.892, 77.751 126.828, 78.917 116.576 C 79.456 111.838, 79.453 107.691, 78.909 106.261 C 77.707 103.099, 77.746 90.373, 78.971 86.101 C 80.296 81.483, 79.636 80.911, 75.060 82.709 C 70.813 84.377, 66.548 83.870, 65.674 81.594 C 65.374 80.811, 66.727 77.544, 68.682 74.335 C 70.637 71.126, 72.296 67.696, 72.368 66.712 C 72.441 65.729, 73.162 64.516, 73.971 64.017 C 74.780 63.517, 75.230 62.946, 74.971 62.747 C 74.712 62.548, 72.621 60.938, 70.325 59.168 C 68.028 57.398, 65.778 56.015, 65.325 56.094 C 63.077 56.484, 62.199 55.745, 61.650 53 C 61.175 50.624, 60.528 50, 58.544 50 C 56.639 50, 55.877 49.340, 55.368 47.250 C 54.999 45.737, 53.643 43.428, 52.353 42.118 C 50.286 40.017, 50.073 39.072, 50.554 34.118 C 50.854 31.028, 51.497 28.103, 51.983 27.617 C 53.168 26.432, 56.301 27.705, 55.477 29.037 C 55.120 29.615, 55.372 30.743, 56.036 31.544 C 57.010 32.717, 56.930 33, 55.622 33 C 52 33, 55.071 36.671, 60.710 39.081 C 62.514 39.852, 64.047 41.313, 64.210 42.417 C 64.397 43.684, 65.654 44.679, 67.750 45.219 C 69.537 45.680, 71 46.693, 71 47.471 C 71 49.168, 85.655 59, 88.185 59 C 90.439 59, 91.712 54.369, 90.146 51.863 C 89.516 50.853, 89 48.186, 89 45.937 C 89 42.746, 89.645 41.201, 91.932 38.915 C 93.544 37.302, 95.006 34.974, 95.182 33.742 C 95.422 32.051, 96.164 31.500, 98.202 31.500 C 99.699 31.500, 101.525 30.655, 102.295 29.606 C 103.647 27.762, 103.725 27.769, 105.202 29.878 C 106.101 31.162, 107.335 31.809, 108.231 31.465 C 109.094 31.134, 109.998 31.553, 110.340 32.443 C 110.668 33.299, 111.796 34, 112.846 34 C 115.374 34, 116.657 35.746, 117.256 40 C 117.527 41.925, 118.351 44.954, 119.087 46.732 C 120.205 49.434, 120.203 50.745, 119.074 54.732 C 118.331 57.354, 117.497 60.850, 117.220 62.500 C 116.686 65.684, 112.711 70.135, 110.758 69.737 C 110.117 69.607, 108.961 71.525, 108.189 74 C 107.418 76.475, 105.443 81.875, 103.801 86 C 99.254 97.421, 99.202 96.830, 105.299 103.075 C 111.862 109.796, 114.435 114.763, 113.680 119.249 C 113.345 121.237, 114.052 125.609, 115.498 130.500 C 116.799 134.900, 118.129 139.743, 118.454 141.262 L 119.044 144.025 155.772 143.762 L 192.500 143.500 192.757 71.750 L 193.013 0 96.507 0 L 0 0 0 72 M 0.474 72.500 C 0.474 112.100, 0.598 128.154, 0.750 108.176 C 0.901 88.198, 0.901 55.798, 0.750 36.176 C 0.598 16.554, 0.474 32.900, 0.474 72.500 M 106 114.941 C 106 115.459, 106.445 116.157, 106.989 116.493 C 107.555 116.843, 107.723 116.442, 107.382 115.552 C 106.717 113.820, 106 113.503, 106 114.941" stroke="none" fill="black" fill-rule="evenodd"/>
</svg>