<svg xmlns="http://www.w3.org/2000/svg" width="192" height="144" viewBox="0 0 192 144" version="1.1">
	<path d="M 0.015 9.250 C 0.027 11.716, 0.264 12.138, 1 11 C 2.270 9.035, 2.270 6, 1 6 C 0.450 6, 0.007 7.462, 0.015 9.250 M -0 38.311 C -0 50.240, 0.204 60, 0.453 60 C 2.813 60, 6.138 57.111, 7.087 54.236 C 8.157 50.994, 7.711 41.016, 6.336 37.433 C 6.021 36.613, 7.113 34.762, 8.893 33.100 C 10.602 31.504, 12 29.933, 12 29.610 C 12 28.213, 8.408 25, 6.845 25 C 5.904 25, 4.824 24.022, 4.445 22.827 C 4.066 21.632, 2.910 19.747, 1.878 18.638 C 0.037 16.662, -0 17.045, -0 38.311 M 109.545 24.859 C 109.220 25.882, 109.244 27.472, 109.598 28.394 C 110.013 29.475, 108.779 32.154, 106.120 35.944 C 103.854 39.175, 102 42.212, 102 42.693 C 102 43.175, 103.412 44.403, 105.138 45.422 L 108.275 47.276 107.660 55.259 C 107.321 59.650, 106.615 63.759, 106.090 64.391 C 104.826 65.914, 109.219 74.637, 113.010 78.132 C 116.330 81.192, 117.595 86.304, 116.044 90.384 C 115.140 92.761, 115.248 93.461, 116.680 94.508 C 118.286 95.683, 118.214 96.135, 115.618 101.134 C 113.913 104.417, 111.917 111.158, 110.476 118.500 C 109.180 125.100, 107.418 133.182, 106.560 136.460 C 105.702 139.738, 105 142.776, 105 143.210 C 105 143.645, 116.044 144, 129.542 144 L 154.084 144 151.676 139.750 C 149.219 135.414, 148.580 133.288, 144.994 117.500 C 143.870 112.550, 141.993 106.173, 140.823 103.329 C 138.770 98.335, 138.757 98.032, 140.428 94.510 C 141.589 92.064, 142.215 88.044, 142.330 82.309 L 142.500 73.756 149 74.406 C 152.575 74.763, 156.867 75.305, 158.538 75.610 C 160.635 75.993, 162.273 75.598, 163.831 74.332 L 166.086 72.500 162.936 66.691 C 161.203 63.495, 159.946 60.772, 160.143 60.638 C 160.339 60.504, 161.783 59.591, 163.350 58.608 C 165.658 57.163, 166.119 56.268, 165.774 53.911 C 165.444 51.668, 165.737 51, 167.051 51 C 168.919 51, 174.472 53.316, 177.278 55.265 C 179.793 57.011, 180.965 54.813, 180.985 48.315 C 181.016 37.676, 176.990 34.206, 171.597 40.225 C 166.623 45.778, 159.705 47.804, 158.710 44 C 158.294 42.408, 157.346 42, 154.069 42 C 150.318 42, 149.898 42.261, 149.367 44.917 C 148.893 47.287, 147.912 48.149, 144.142 49.511 C 137.964 51.743, 133.375 52.416, 132.623 51.200 C 132.286 50.654, 132.680 48.924, 133.499 47.354 C 135.433 43.647, 135.410 38.553, 133.451 36.593 C 132.381 35.524, 132.085 34.031, 132.495 31.772 C 133.014 28.915, 132.724 28.296, 130.205 26.888 C 127.653 25.462, 127.001 25.444, 124.554 26.726 C 122.007 28.060, 121.396 27.971, 116.802 25.587 C 110.856 22.502, 110.310 22.448, 109.545 24.859 M 160 53.441 C 160 54.234, 160.450 55.160, 161 55.500 C 161.550 55.840, 162 55.191, 162 54.059 C 162 52.927, 161.550 52, 161 52 C 160.450 52, 160 52.648, 160 53.441 M 143.250 53.662 C 141.728 54.276, 141.578 57, 143.066 57 C 144.776 57, 148 55.017, 148 53.965 C 148 52.958, 145.404 52.793, 143.250 53.662 M 133.835 54.673 C 131.986 55.163, 130.686 57.682, 131.556 59.090 C 132.229 60.179, 139.006 60.325, 138.986 59.250 C 138.979 58.837, 138.701 57.487, 138.370 56.250 C 137.775 54.032, 137.118 53.803, 133.835 54.673 M 0.042 69.750 L 0.084 78.500 2 75 C 3.054 73.075, 3.935 70.465, 3.958 69.200 C 3.998 66.990, 1.454 61, 0.474 61 C 0.213 61, 0.019 64.938, 0.042 69.750 M 0.029 127.750 L 0 144 7.903 144 L 15.807 144 12.521 135.750 C 10.714 131.213, 8.447 125.302, 7.484 122.616 C 6.520 119.930, 4.456 116.330, 2.895 114.616 L 0.059 111.500 0.029 127.750" stroke="none" fill="black" fill-rule="evenodd"/>
</svg>