<svg xmlns="http://www.w3.org/2000/svg" width="192" height="144" viewBox="0 0 192 144" version="1.1">
	<path d="M 0 18.917 C 0 33.072, 0.315 37.980, 1.250 38.417 C 2.250 38.883, 2.250 39.117, 1.250 39.583 C -0.492 40.396, -0.539 74.061, 1.200 75.800 C 2.133 76.733, 2.133 77, 1.200 77 C 0.291 77, 0 85.111, 0 110.500 L 0 144 23.500 144 C 41.625 144, 47.004 143.714, 47.015 142.750 C 47.027 141.755, 47.194 141.757, 47.828 142.757 C 48.459 143.750, 63.675 143.960, 120.563 143.757 L 192.500 143.500 192.724 71.750 L 192.948 0 156.974 0 C 126.892 0, 121 0.228, 121 1.393 C 121 2.159, 120.315 3.049, 119.477 3.371 C 118.234 3.847, 118.149 3.591, 119.012 1.977 C 120.055 0.029, 119.652 0, 91.442 0 C 63.391 0, 62.802 0.042, 62.275 2.057 C 61.939 3.342, 61.193 3.904, 60.287 3.557 C 59.489 3.250, 58.648 3, 58.418 3 C 58.188 3, 58 2.325, 58 1.500 C 58 0.201, 54.111 0, 29 0 L 0 0 0 18.917 M 0.417 19.500 C 0.418 29.950, 0.566 34.089, 0.746 28.698 C 0.926 23.307, 0.925 14.757, 0.744 9.698 C 0.563 4.639, 0.416 9.050, 0.417 19.500 M 21 11.686 C 21 12.199, 21.661 13.491, 22.468 14.559 C 23.702 16.190, 23.941 16.240, 23.968 14.872 C 23.986 13.977, 23.325 12.685, 22.500 12 C 21.675 11.315, 21 11.174, 21 11.686 M 46.131 13.342 C 45.519 14.080, 45.313 14.980, 45.675 15.342 C 46.845 16.512, 47.755 16.045, 48.290 14 C 48.889 11.709, 47.770 11.368, 46.131 13.342 M 103.143 13.890 C 102.189 14.495, 102.117 14.955, 102.902 15.440 C 104.394 16.362, 108.182 15.104, 107.456 13.928 C 106.743 12.775, 104.928 12.759, 103.143 13.890 M 140.188 20.063 C 140.428 20.784, 141.216 21.572, 141.938 21.813 C 142.688 22.063, 143.063 21.688, 142.813 20.938 C 142.572 20.216, 141.784 19.428, 141.063 19.188 C 140.313 18.938, 139.938 19.313, 140.188 20.063 M 59.574 21.667 C 59.222 22.584, 59.399 23.799, 59.967 24.367 C 60.678 25.078, 61 25.051, 61 24.282 C 61 23.667, 61.273 22.452, 61.607 21.582 C 61.941 20.712, 61.764 20, 61.214 20 C 60.664 20, 59.926 20.750, 59.574 21.667 M 105.206 22.047 C 103.308 22.809, 103.092 23.304, 103.955 24.916 C 105.767 28.301, 111.069 28.702, 114.775 25.734 C 115.792 24.920, 115.710 24.337, 114.370 22.857 C 112.574 20.872, 108.936 20.551, 105.206 22.047 M 129.020 26.524 C 129.716 27.362, 130.491 27.842, 130.743 27.591 C 131.436 26.897, 130.027 25, 128.819 25 C 128.155 25, 128.231 25.574, 129.020 26.524 M 148 27.819 C 148 29.027, 149.897 30.436, 150.591 29.743 C 150.842 29.491, 150.362 28.716, 149.524 28.020 C 148.574 27.231, 148 27.155, 148 27.819 M 112.154 38.438 C 112.345 39.355, 112.950 40.082, 113.500 40.053 C 114.984 39.974, 114.712 37.737, 113.154 37.218 C 112.313 36.938, 111.939 37.395, 112.154 38.438 M 91.667 38.667 C 90.675 39.658, 90.860 44, 91.893 44 C 92.890 44, 94 41.587, 94 39.418 C 94 37.926, 92.795 37.538, 91.667 38.667 M 0.374 57.500 C 0.419 70.725, 0.517 72.145, 0.746 62.851 C 1.043 50.831, 1.156 50.228, 3.029 50.718 C 4.679 51.149, 5 50.726, 5 48.117 C 5 44.487, 3.574 43.999, 2.468 47.250 C 1.846 49.078, 1.573 48.563, 1.008 44.500 C 0.600 41.560, 0.339 46.915, 0.374 57.500 M 98 40.933 C 98 42.148, 101.689 43.310, 102.991 42.506 C 104.954 41.292, 104.042 39.907, 102 41 C 100.644 41.726, 100 41.737, 100 41.035 C 100 40.466, 99.550 40, 99 40 C 98.450 40, 98 40.420, 98 40.933 M 120.556 44.910 C 119.833 46.079, 120.941 49, 122.107 49 C 122.598 49, 123 47.875, 123 46.500 C 123 44.029, 121.645 43.147, 120.556 44.910 M 147 50 C 146.099 50.582, 145.975 50.975, 146.691 50.985 C 147.346 50.993, 148.160 50.550, 148.500 50 C 149.267 48.758, 148.921 48.758, 147 50 M 59 52 C 59 52.550, 59.477 53, 60.059 53 C 60.641 53, 60.840 52.550, 60.500 52 C 60.160 51.450, 59.684 51, 59.441 51 C 59.198 51, 59 51.450, 59 52 M 48 53 C 48 53.550, 48.477 54, 49.059 54 C 49.641 54, 49.840 53.550, 49.500 53 C 49.160 52.450, 48.684 52, 48.441 52 C 48.198 52, 48 52.450, 48 53 M 131.177 53.643 C 131.623 55.911, 134.369 57.456, 136.500 56.638 C 138.193 55.989, 138.192 55.870, 136.481 53.979 C 134.267 51.532, 130.717 51.307, 131.177 53.643 M 67 58.393 C 67 59.159, 67.739 60.070, 68.643 60.417 C 70.722 61.214, 71.214 60.722, 70.417 58.643 C 69.650 56.645, 67 56.451, 67 58.393 M 176.238 58.162 C 175.557 58.843, 175 60.081, 175 60.914 C 175 62.225, 175.218 62.211, 176.616 60.813 C 177.505 59.924, 178.062 58.685, 177.854 58.061 C 177.580 57.241, 177.131 57.269, 176.238 58.162 M 188.384 60.607 C 187.951 62.333, 188.198 63.511, 189.115 64.092 C 191.478 65.589, 192 65.120, 192 61.500 C 192 57.268, 189.384 56.622, 188.384 60.607 M 57.350 61.530 C 56.543 63.634, 58.803 66, 61.622 66 C 65.666 66, 64.349 62.328, 59.712 60.672 C 58.590 60.271, 57.710 60.591, 57.350 61.530 M 127 60.924 C 127 61.398, 127.675 62.045, 128.500 62.362 C 129.325 62.678, 130 62.549, 130 62.076 C 130 61.602, 129.325 60.955, 128.500 60.638 C 127.675 60.322, 127 60.451, 127 60.924 M 42.816 63.504 C 41.506 66.379, 42.004 67.320, 44.357 66.417 C 46.126 65.738, 46.670 61, 44.979 61 C 44.417 61, 43.444 62.127, 42.816 63.504 M 92.500 63 C 92.840 63.550, 93.316 64, 93.559 64 C 93.802 64, 94 63.550, 94 63 C 94 62.450, 93.523 62, 92.941 62 C 92.359 62, 92.160 62.450, 92.500 63 M 101 65 C 101 65.550, 101.477 66, 102.059 66 C 102.641 66, 102.840 65.550, 102.500 65 C 102.160 64.450, 101.684 64, 101.441 64 C 101.198 64, 101 64.450, 101 65 M 24 66 C 24 66.550, 23.325 67, 22.500 67 C 20.509 67, 20.572 69.622, 22.582 70.393 C 25.268 71.424, 25.758 71.101, 26.213 68 C 26.514 65.953, 26.232 65, 25.327 65 C 24.597 65, 24 65.450, 24 66 M 69.582 68.868 C 69.248 69.408, 69.511 71.026, 70.166 72.464 C 71.777 76.001, 74.500 75.387, 74.500 71.486 C 74.500 69.190, 74.002 68.429, 72.344 68.193 C 71.159 68.024, 69.916 68.328, 69.582 68.868 M 92.056 69.433 C 91.040 70.656, 90.976 71.376, 91.810 72.210 C 92.643 73.043, 93.097 72.911, 93.562 71.700 C 94.584 69.035, 93.607 67.564, 92.056 69.433 M 161.639 69.694 C 160.660 70.673, 160.880 77, 161.893 77 C 163.747 77, 164.819 70.624, 163.139 69.586 C 162.666 69.294, 161.991 69.342, 161.639 69.694 M 138 71.965 C 138 73.249, 141.991 75.342, 142.834 74.499 C 143.199 74.135, 142.624 73.198, 141.557 72.418 C 139.299 70.767, 138 70.601, 138 71.965 M 0.449 110.500 C 0.449 129.200, 0.584 136.709, 0.749 127.186 C 0.913 117.663, 0.913 102.363, 0.748 93.186 C 0.583 84.009, 0.449 91.800, 0.449 110.500 M 144.500 79 C 144.840 79.550, 145.793 80, 146.618 80 C 147.443 80, 147.840 79.550, 147.500 79 C 147.160 78.450, 146.207 78, 145.382 78 C 144.557 78, 144.160 78.450, 144.500 79 M 31.739 83.889 C 31.467 84.928, 31.633 86.391, 32.107 87.139 C 32.693 88.064, 32.974 87.460, 32.985 85.250 C 33.002 81.612, 32.483 81.045, 31.739 83.889 M 170.570 83.887 C 169.917 84.944, 172.783 87.550, 173.648 86.686 C 174.481 85.852, 173.276 83, 172.090 83 C 171.556 83, 170.871 83.399, 170.570 83.887 M 179.531 83.950 C 178.766 85.187, 181.151 86.321, 183.494 85.835 C 184.381 85.651, 185.096 85.050, 185.084 84.500 C 185.054 83.112, 180.338 82.645, 179.531 83.950 M 117 85 C 117 85.550, 117.477 86, 118.059 86 C 118.641 86, 118.840 85.550, 118.500 85 C 118.160 84.450, 117.684 84, 117.441 84 C 117.198 84, 117 84.450, 117 85 M 130 84.833 C 130 86.241, 131.126 86.889, 132.592 86.326 C 133.360 86.032, 133.740 85.388, 133.435 84.895 C 132.737 83.766, 130 83.717, 130 84.833 M 152.543 86.931 C 152.226 87.443, 152.425 88.144, 152.984 88.490 C 154.177 89.227, 156 88.291, 156 86.941 C 156 85.724, 153.293 85.716, 152.543 86.931 M 116.701 89.632 C 115.334 90.999, 116.028 92.135, 118.040 91.820 C 119.161 91.644, 120.085 91.050, 120.092 90.500 C 120.109 89.283, 117.674 88.660, 116.701 89.632 M 15.630 95.250 C 14.694 98.745, 14.827 99, 17.583 99 C 19.294 99, 19.970 98.578, 19.584 97.750 C 19.263 97.063, 18.724 95.713, 18.384 94.750 C 17.535 92.343, 16.352 92.558, 15.630 95.250 M 62 93.566 C 62 93.877, 62.498 95.063, 63.107 96.201 C 63.975 97.822, 64.396 97.977, 65.050 96.919 C 65.529 96.144, 65.431 95.019, 64.820 94.284 C 63.737 92.979, 62 92.536, 62 93.566 M 113.409 94.376 C 112.562 96.584, 113.689 97.711, 115.217 96.183 C 116.119 95.281, 116.122 94.722, 115.233 93.833 C 114.343 92.943, 113.909 93.072, 113.409 94.376 M 188.258 93.664 C 187.355 94.026, 187.296 94.685, 188.043 96.081 C 189.483 98.771, 192.226 98.588, 191.820 95.828 C 191.483 93.541, 190.324 92.837, 188.258 93.664 M 117 97.417 C 117 98.287, 117.713 99, 118.583 99 C 120.349 99, 120.042 96.847, 118.188 96.229 C 117.534 96.011, 117 96.546, 117 97.417 M 106.015 99.691 C 106.024 100.136, 106.467 101.175, 107 102 C 107.835 103.293, 107.971 103.266, 107.985 101.809 C 107.993 100.879, 107.550 99.840, 107 99.500 C 106.450 99.160, 106.007 99.246, 106.015 99.691 M 136 100 C 136 100.550, 136.477 101, 137.059 101 C 137.641 101, 137.840 100.550, 137.500 100 C 137.160 99.450, 136.684 99, 136.441 99 C 136.198 99, 136 99.450, 136 100 M 32.732 110.286 C 31.359 112.381, 31.313 112.906, 32.464 113.348 C 34.373 114.080, 35.899 111.902, 35.071 109.629 C 34.444 107.909, 34.255 107.962, 32.732 110.286 M 109.597 109.844 C 109.251 110.404, 109.455 111.163, 110.050 111.531 C 111.588 112.481, 112.580 111.180, 111.296 109.896 C 110.578 109.178, 110.019 109.161, 109.597 109.844 M 87 111 C 85.787 111.784, 85.931 111.972, 87.750 111.985 C 88.987 111.993, 90 111.550, 90 111 C 90 109.747, 88.939 109.747, 87 111 M 165.216 113.845 C 163.656 114.835, 164.566 117.620, 166.720 118.446 C 168.873 119.272, 169.351 118.535, 168.601 115.547 C 167.924 112.849, 167.289 112.530, 165.216 113.845 M 15 116.917 C 15 118.612, 15 120.338, 15 120.750 C 15 121.162, 15.563 121.500, 16.250 121.500 C 17.006 121.500, 17.500 120.150, 17.500 118.083 C 17.500 116.204, 16.938 114.479, 16.250 114.250 C 15.430 113.977, 15 114.894, 15 116.917 M 104.639 114.694 C 103.352 115.982, 104.003 120, 105.500 120 C 106.424 120, 107 119.062, 107 117.559 C 107 115.050, 105.773 113.560, 104.639 114.694 M 147 125.393 C 147 125.609, 147.698 126.054, 148.552 126.382 C 149.442 126.723, 149.843 126.555, 149.493 125.989 C 148.906 125.038, 147 124.583, 147 125.393" stroke="none" fill="black" fill-rule="evenodd"/>
</svg>