<svg xmlns="http://www.w3.org/2000/svg" width="192" height="144" viewBox="0 0 192 144" version="1.1">
	<path d="M 104.250 13.122 C 101.912 14.197, 100 15.489, 100 15.993 C 100 16.498, 98.898 18.535, 97.552 20.519 C 94.769 24.620, 93.030 33.177, 94.856 33.785 C 95.485 33.995, 96 34.760, 96 35.486 C 96 36.211, 97.384 37.287, 99.076 37.876 C 101.537 38.735, 102.023 39.353, 101.508 40.974 C 101.048 42.423, 101.892 44.252, 104.476 47.405 C 108.004 51.711, 109.209 52.250, 111.750 50.663 C 112.589 50.138, 113 50.522, 113 51.830 C 113 52.902, 110.323 56.368, 107.051 59.532 C 102.671 63.769, 101.121 65.973, 101.172 67.893 C 101.209 69.327, 100.474 72.525, 99.538 75 C 98.161 78.639, 98.025 80.457, 98.827 84.500 C 99.373 87.250, 99.669 89.653, 99.486 89.840 C 99.303 90.028, 96.531 89.048, 93.326 87.664 C 90.122 86.280, 85.829 84.872, 83.786 84.535 C 80.542 84, 79.943 83.454, 79.042 80.212 C 77.712 75.423, 77.732 75.037, 79.489 71.668 C 80.805 69.145, 80.791 68.490, 79.356 65.668 C 78.470 63.926, 77.623 62.358, 77.474 62.184 C 76.686 61.269, 68.894 64.330, 68.064 65.880 C 66.974 67.917, 65.103 80.048, 64.302 90.268 C 63.773 97.027, 64.828 101.721, 67.621 105.031 C 68.685 106.292, 68.571 107.879, 66.974 114.031 C 64.390 123.979, 64.381 128, 66.939 128 C 68.006 128, 70.958 129.800, 73.500 132 C 77.796 135.718, 81 137.085, 81 135.200 C 81 134.760, 80.441 133.841, 79.758 133.158 C 78.188 131.588, 80.293 130.038, 84.027 130.015 C 85.418 130.007, 87.555 129.299, 88.777 128.443 C 91.702 126.395, 91.649 122.443, 88.521 109.011 C 87.178 103.241, 86.406 98.194, 86.806 97.794 C 88.110 96.490, 99.980 105.071, 100.668 107.815 C 101.028 109.248, 100.147 115.603, 98.642 122.425 C 97.177 129.066, 95.697 136.637, 95.353 139.250 L 94.728 144 119.849 144 L 144.971 144 142.883 138.750 C 141.735 135.863, 140.369 132.375, 139.847 131 C 138.286 126.885, 132.910 116.776, 130.009 112.500 C 127.120 108.241, 126.455 106.127, 124.901 96.260 C 124.234 92.020, 124.253 89.396, 124.960 88.076 C 125.532 87.006, 126.019 85.089, 126.042 83.816 C 126.085 81.416, 129.884 73.562, 129.958 75.719 C 130.029 77.788, 133 75.911, 133 73.797 C 133 71.125, 130.004 60.740, 128.889 59.550 C 127.524 58.092, 127.834 56.722, 129.394 57.321 C 130.894 57.897, 135 54.136, 135 52.186 C 135 51.533, 135.477 51, 136.059 51 C 136.641 51, 136.828 50.530, 136.473 49.956 C 136.118 49.382, 136.297 48.347, 136.870 47.656 C 137.600 46.777, 137.487 44.617, 136.492 40.450 C 135.711 37.178, 135.035 33.150, 134.992 31.500 C 134.802 24.338, 129.448 15.637, 123.349 12.580 C 119.007 10.403, 109.583 10.671, 104.250 13.122" stroke="none" fill="black" fill-rule="evenodd"/>
</svg>