<svg xmlns="http://www.w3.org/2000/svg" width="192" height="144" viewBox="0 0 192 144" version="1.1">
	<path d="M 0.015 48.250 C 0.030 95.586, 0.389 101.722, 3.315 104.648 C 4.282 105.615, 4.167 110.807, 3.134 112.816 C 2.658 113.742, 1.974 116.814, 1.614 119.642 C 1.038 124.171, 1.171 124.768, 2.730 124.642 C 4.100 124.532, 4.524 125.301, 4.605 128.044 C 4.662 129.993, 5.223 132.548, 5.851 133.721 C 6.479 134.895, 6.721 136.564, 6.389 137.430 C 6.056 138.296, 6.066 140.128, 6.411 141.502 L 7.038 144 41.033 144 C 80.352 144, 79.275 144.246, 84.575 134.072 C 96.310 111.550, 110 100.893, 127.500 100.657 C 132.815 100.586, 135.591 101.093, 139.031 102.765 C 145.090 105.709, 151.126 111.668, 154.081 117.625 C 156.206 121.907, 156.492 123.808, 156.432 133.250 L 156.364 144 174.020 144 L 191.676 144 192.336 108.750 C 192.700 89.363, 192.998 56.962, 192.998 36.750 L 193 0 96.500 0 L 0 0 0.015 48.250 M 0.463 49.500 C 0.463 76.450, 0.592 87.331, 0.749 73.681 C 0.907 60.030, 0.906 37.980, 0.749 24.681 C 0.592 11.381, 0.463 22.550, 0.463 49.500" stroke="none" fill="black" fill-rule="evenodd"/>
</svg>