<svg xmlns="http://www.w3.org/2000/svg" width="192" height="144" viewBox="0 0 192 144" version="1.1">
	<path d="M -0 72.005 L -0 144.010 96.250 143.755 L 192.500 143.500 192.757 71.750 L 193.013 0 96.507 0 L 0 0 -0 72.005 M 0.474 72.500 C 0.474 112.100, 0.598 128.154, 0.750 108.176 C 0.901 88.198, 0.901 55.798, 0.750 36.176 C 0.598 16.554, 0.474 32.900, 0.474 72.500 M 88 34 C 88 35.100, 87.550 36, 87 36 C 84.753 36, 86.253 38.207, 90.250 40.782 C 95.341 44.061, 100 48.343, 100 49.742 C 100 50.299, 99.325 51.315, 98.500 52 C 97.232 53.053, 96.902 52.759, 96.370 50.102 C 95.650 46.499, 94.833 45.743, 92.590 46.604 C 90.453 47.424, 90.577 49.703, 92.824 50.906 C 93.827 51.443, 95.192 53.698, 95.857 55.917 C 96.925 59.481, 96.824 60.425, 94.988 64.024 C 93.845 66.265, 92.207 68.367, 91.349 68.696 C 89.945 69.235, 68.340 67.649, 58.653 66.296 C 55.313 65.829, 54.853 66, 55.160 67.593 C 55.386 68.768, 56.861 69.747, 59.257 70.313 C 61.316 70.800, 63 71.640, 63 72.179 C 63 72.722, 64.226 72.900, 65.750 72.579 C 67.263 72.260, 70.975 72.669, 74 73.488 C 81.333 75.472, 83.384 75.443, 82.587 73.366 C 82.052 71.971, 82.513 71.823, 85.730 72.355 C 87.803 72.698, 90.685 72.983, 92.133 72.989 C 93.980 72.997, 94.934 73.641, 95.328 75.146 C 95.837 77.093, 96.361 77.236, 100.976 76.689 C 107.274 75.943, 109 76.558, 109 79.548 C 109 82.052, 110.495 83.626, 111.432 82.110 C 111.745 81.603, 112.959 81.438, 114.128 81.744 C 116.059 82.249, 116.215 81.966, 115.828 78.650 C 115.316 74.269, 116.069 74.121, 124.260 77 C 127.389 78.100, 130.944 79, 132.159 79 C 133.375 79, 137.006 79.740, 140.230 80.645 C 145.286 82.063, 146.445 82.100, 148.670 80.909 C 150.088 80.150, 151.980 79.523, 152.874 79.515 C 153.979 79.505, 154.602 78.442, 154.817 76.198 C 155.083 73.427, 154.454 72.236, 150.899 68.786 C 146.294 64.317, 144.028 63.867, 133.452 65.321 C 129.589 65.852, 127.945 65.649, 126.452 64.456 C 124.550 62.936, 124.558 62.912, 126.750 63.516 C 127.991 63.857, 129 63.688, 129 63.139 C 129 62.592, 126.569 61.840, 123.597 61.469 C 118.364 60.815, 118.182 60.688, 117.800 57.409 C 117.554 55.309, 117.960 53.468, 118.868 52.560 C 120.153 51.275, 119.842 50.606, 116.316 47.081 C 114.107 44.872, 111.107 42.611, 109.650 42.057 C 106.942 41.027, 106.137 38.652, 108.087 37.446 C 108.685 37.077, 109.675 37.275, 110.287 37.887 C 110.899 38.499, 112.226 39, 113.235 39 C 114.651 39, 114.265 38.294, 111.546 35.906 C 106.913 31.839, 101.249 30.962, 98.589 33.901 C 96.134 36.615, 93 36.670, 93 34 C 93 32.533, 92.333 32, 90.500 32 C 88.667 32, 88 32.533, 88 34 M 109.710 56 C 109.998 57.100, 110.523 58, 110.876 58 C 111.230 58, 112.081 57.100, 112.768 56 C 113.887 54.207, 113.767 54, 111.602 54 C 109.680 54, 109.294 54.408, 109.710 56 M 98.219 63.685 C 96.964 66.207, 96.191 68.524, 96.501 68.834 C 96.811 69.144, 98.448 68.014, 100.139 66.323 C 102.428 64.034, 103.041 62.705, 102.539 61.124 C 101.568 58.062, 100.785 58.526, 98.219 63.685 M 118.500 65 C 121.252 66.183, 122.231 66.183, 121.500 65 C 121.160 64.450, 119.896 64.032, 118.691 64.070 C 116.579 64.138, 116.572 64.171, 118.500 65" stroke="none" fill="black" fill-rule="evenodd"/>
</svg>