<svg xmlns="http://www.w3.org/2000/svg" width="192" height="144" viewBox="0 0 192 144" version="1.1">
	<path d="M 0 72.009 L 0 144.018 51.577 143.759 L 103.155 143.500 110.061 130.097 C 113.860 122.725, 117.650 115.940, 118.484 115.018 C 119.318 114.097, 120 112.743, 120 112.009 C 120 110.394, 108.103 94.545, 101.365 87.185 C 97.035 82.455, 95.786 81.708, 90 80.386 C 83.188 78.830, 81.270 77.641, 76.750 72.173 C 74.677 69.665, 74 67.771, 74 64.474 C 74 60.652, 74.441 59.766, 77.500 57.432 C 79.425 55.964, 81.011 54.254, 81.025 53.631 C 81.062 51.910, 87.648 49, 91.506 49 C 100.060 49, 108.182 63.011, 103.502 69.694 C 102.081 71.722, 102.249 72.014, 106.752 75.344 C 109.363 77.275, 113.733 81.138, 116.462 83.928 C 119.192 86.717, 121.779 89, 122.212 89 C 123.588 89, 123.060 85.295, 121.500 84 C 119.243 82.127, 119.598 80.931, 124.489 73.928 C 127.953 68.968, 128.986 66.587, 129.011 63.500 C 129.031 61.091, 129.822 58.505, 131 57 C 133.506 53.796, 133.479 52.791, 130.750 47.698 C 129.513 45.389, 128.430 43.355, 128.344 43.177 C 128.258 43, 126.558 43.304, 124.565 43.854 C 121.936 44.580, 120.679 44.532, 119.979 43.677 C 119.448 43.030, 117.437 40.475, 115.510 38 C 113.582 35.525, 111.169 32.600, 110.148 31.500 C 109.126 30.400, 108.054 28.825, 107.765 28 C 107.476 27.175, 104.148 24.958, 100.370 23.074 C 96.591 21.190, 92.375 18.649, 91 17.428 C 89.625 16.207, 86.089 13.924, 83.142 12.354 C 76.647 8.894, 70 3.365, 70 1.422 C 70 0.220, 64.592 0, 35 0 L 0 0 0 72.009 M 186.076 75.661 C 187.409 77.125, 187.938 77.998, 187.250 77.602 C 185.766 76.747, 185.539 78.597, 187.016 79.510 C 187.575 79.856, 187.808 80.501, 187.535 80.944 C 187.261 81.387, 188.134 84.394, 189.476 87.625 L 191.915 93.500 191.950 84.500 C 191.984 75.691, 191.927 75.473, 189.293 74.250 C 184.669 72.103, 183.358 72.678, 186.076 75.661 M 143.040 112.452 C 142.281 113.367, 139.691 115.269, 137.285 116.679 C 134.150 118.516, 132.182 120.695, 130.336 124.371 C 128.919 127.192, 125.564 132.480, 122.880 136.122 C 120.196 139.765, 118 143.027, 118 143.372 C 118 143.718, 123.660 144, 130.578 144 L 143.155 144 147.110 139.750 C 149.285 137.412, 151.937 133.857, 153.002 131.849 L 154.939 128.198 151.991 122.349 C 150.369 119.132, 148.002 115.215, 146.731 113.644 C 144.616 111.031, 144.303 110.930, 143.040 112.452" stroke="none" fill="black" fill-rule="evenodd"/>
</svg>