<svg xmlns="http://www.w3.org/2000/svg" width="192" height="144" viewBox="0 0 192 144" version="1.1">
	<path d="M 14.016 4.250 C 14.025 6.588, 14.455 13.608, 14.972 19.852 L 15.911 31.204 12.903 33.735 C 10.435 35.812, 9.949 36.901, 10.198 39.806 C 10.548 43.909, 12.471 45.131, 13.341 41.804 C 13.918 39.599, 14.018 39.636, 16.468 42.957 C 19.431 46.972, 19.461 47.207, 17.517 50.966 C 16.576 52.788, 14.934 54.075, 13.017 54.496 C 9.994 55.160, 8.789 57, 11.378 57 C 12.135 57, 13.341 57.706, 14.058 58.570 C 14.785 59.446, 16.216 59.915, 17.298 59.632 C 18.613 59.288, 20.043 60.086, 21.751 62.116 C 23.579 64.288, 24.984 65.024, 26.884 64.804 C 29.374 64.515, 29.487 64.249, 29.223 59.277 C 28.958 54.282, 29.099 53.955, 32.459 51.777 C 36.265 49.311, 36.617 47.311, 33.157 47.813 C 30.567 48.189, 30.542 47.966, 32.651 43.218 C 35.358 37.123, 35.415 31.464, 32.794 29.023 C 31.571 27.883, 29.992 27.173, 29.285 27.444 C 27.076 28.292, 27.875 25.043, 30.988 20.518 C 32.631 18.129, 34.319 16.023, 34.738 15.837 C 35.157 15.652, 36.962 13.797, 38.750 11.715 C 42.627 7.200, 43.054 3.277, 39.750 2.527 C 30.546 0.437, 27.656 0.046, 21.250 0.024 L 14 0 14.016 4.250 M 96 72 L 96 144 128.842 144 L 161.683 144 162.826 140.187 C 164.268 135.373, 166.301 120.967, 165.632 120.298 C 165.355 120.022, 164.100 120.517, 162.842 121.398 C 159.015 124.079, 158 123.445, 158 118.378 C 158 114.421, 157.788 113.931, 156.528 114.977 C 153.972 117.098, 152.047 114.070, 152.727 108.996 C 153.188 105.558, 154.324 103.662, 158.402 99.523 C 161.206 96.677, 164.737 92.020, 166.250 89.174 C 169.446 83.160, 172.456 82.365, 176.545 86.455 C 179.806 89.715, 179.641 92.210, 175.980 95.015 L 172.961 97.329 174.962 99.459 C 176.062 100.630, 177.551 103.289, 178.270 105.367 C 179.568 109.115, 181.719 110.110, 181.262 106.750 C 180.841 103.655, 182.925 104.884, 184.503 108.661 C 186.475 113.382, 185.735 115.701, 180.882 120 L 176.932 123.500 179.466 130.925 C 180.860 135.009, 182 139.621, 182 141.175 C 182 143.898, 182.180 144, 187 144 L 192 144 192 72 L 192 0 144 0 L 96 0 96 72" stroke="none" fill="black" fill-rule="evenodd"/>
</svg>