<svg xmlns="http://www.w3.org/2000/svg" width="192" height="144" viewBox="0 0 192 144" version="1.1">
	<path d="M 82.396 1.750 C 83.131 4.175, 85.559 16.969, 87.029 26.166 C 88.744 36.899, 87.917 40.020, 81.510 46.989 C 78.555 50.203, 75.367 54.333, 74.424 56.166 C 73.482 58, 70.887 62.193, 68.659 65.485 C 65.178 70.626, 64.420 72.742, 63.285 80.485 C 62.559 85.443, 61.280 91.583, 60.442 94.129 C 59.605 96.675, 59.010 99.150, 59.121 99.629 C 59.721 102.219, 56.662 106.249, 52.777 107.989 C 49.406 109.498, 48.902 110.025, 50.313 110.566 C 52.008 111.217, 52.007 111.337, 50.293 113.276 C 48.524 115.278, 48.547 115.297, 52 114.674 L 55.500 114.043 52.500 116.517 C 49.975 118.598, 49.807 118.991, 51.436 118.995 C 52.500 118.998, 54.411 118.023, 55.682 116.829 C 58.009 114.643, 60.388 115.012, 58.183 117.217 C 57.533 117.868, 57.016 119.323, 57.036 120.450 C 57.068 122.270, 57.345 122.165, 59.513 119.512 C 60.856 117.869, 62.469 115.281, 63.098 113.762 C 63.728 112.243, 64.863 111, 65.621 111 C 66.380 111, 67 110.070, 67 108.934 C 67 106.048, 68.798 103, 70.500 103 C 72.346 103, 74 99.876, 74 96.389 C 74 94.881, 74.787 89.640, 75.750 84.743 C 77.337 76.667, 77.949 75.313, 82.330 70.170 C 84.987 67.051, 88.457 61.958, 90.043 58.852 C 91.629 55.745, 94.089 52.289, 95.510 51.171 C 98.910 48.497, 103.671 47.482, 105.541 49.034 C 107.769 50.883, 107.380 55.726, 104.896 57.056 C 103.006 58.067, 102.862 58.738, 103.478 63.668 C 104.084 68.517, 103.867 69.602, 101.621 72.997 C 100.223 75.109, 98.786 78.004, 98.429 79.429 C 98.071 80.853, 97.378 82.266, 96.889 82.568 C 96.400 82.871, 96 84.165, 96 85.445 C 96 86.724, 95.350 89.024, 94.556 90.555 C 93.540 92.512, 93.402 93.883, 94.091 95.170 C 94.630 96.176, 94.818 97, 94.510 97 C 94.201 97, 94.647 98.350, 95.500 100 C 96.353 101.650, 97.750 103, 98.605 103 C 99.459 103, 102.745 100.750, 105.907 98 C 109.429 94.936, 112.600 93, 114.095 93 C 115.438 93, 118.139 91.910, 120.099 90.579 L 123.662 88.157 129.581 90.146 C 138.074 93, 145.465 92.801, 152.772 89.522 C 156.188 87.989, 159.711 85.529, 161.012 83.769 C 163.135 80.898, 163.246 80.028, 162.688 70.598 C 162.194 62.233, 162.414 59.558, 163.973 55.011 C 165.008 51.992, 165.656 49.322, 165.412 49.079 C 164.722 48.389, 158.124 55.046, 154.902 59.683 C 150.611 65.860, 148.661 66.065, 143.392 60.894 C 140.976 58.523, 139 55.890, 139.001 55.042 C 139.001 54.194, 139.943 51.025, 141.094 48 C 142.820 43.466, 146 29.904, 146 27.080 C 146 26.670, 144.322 25.820, 142.270 25.191 C 138.881 24.151, 138.195 24.286, 134.752 26.672 C 132.668 28.116, 130.698 30.355, 130.373 31.649 C 130.049 32.942, 129.323 34, 128.762 34 C 126.718 34, 128.805 25.345, 133.223 15.500 C 135.691 10, 138.009 4.263, 138.374 2.750 C 138.957 0.338, 138.748 0, 136.672 0 C 135.228 0, 133.854 0.877, 133.148 2.250 L 131.989 4.500 132.562 2.250 L 133.135 0 107.500 0 C 83.550 0, 81.900 0.115, 82.396 1.750 M 188 72 C 188 143.333, 188.019 144, 190 144 C 191.981 144, 192 143.333, 192 72 C 192 0.667, 191.981 0, 190 0 C 188.019 0, 188 0.667, 188 72" stroke="none" fill="black" fill-rule="evenodd"/>
</svg>