<svg xmlns="http://www.w3.org/2000/svg" width="192" height="144" viewBox="0 0 192 144" version="1.1">
	<path d="M 0 72 L 0 144 48.500 144 L 97 144 97 139.680 C 97 135.795, 96.681 135.217, 93.825 133.930 C 89.057 131.782, 88.368 129.992, 89.941 123.851 C 90.685 120.950, 91.445 116.085, 91.631 113.038 C 92.125 104.930, 92.827 101.236, 94.480 98.040 C 95.289 96.473, 96.422 91.886, 96.997 87.846 C 97.572 83.806, 98.247 79.263, 98.496 77.750 C 98.746 76.237, 98.556 75, 98.074 75 C 96.587 75, 93.256 81.522, 92.522 85.871 C 91.772 90.307, 90 91.540, 90 87.626 C 90 83.914, 92.721 77.120, 95.558 73.748 L 98.141 70.679 95.220 69.451 C 93.614 68.775, 92.021 67.497, 91.681 66.611 C 90.531 63.614, 88.178 64.967, 86.388 69.655 C 82.476 79.897, 76.685 82.962, 68.622 79.059 C 63.783 76.717, 61.228 73.310, 65.256 74.572 C 66.490 74.959, 68.573 76.113, 69.885 77.138 C 73.108 79.655, 77.199 79.493, 79.713 76.750 C 82.660 73.533, 86.313 65.899, 85.331 65.008 C 84.874 64.594, 80.585 63.996, 75.801 63.680 C 67.786 63.150, 67.053 63.258, 66.483 65.052 C 65.737 67.403, 64.966 67.452, 34.500 67.064 C 17.469 66.848, 11.766 66.445, 9.250 65.278 C 5.331 63.462, 5.122 61.621, 8.577 59.358 C 10.963 57.794, 12.449 57.776, 28.720 59.116 C 45.982 60.537, 46.332 60.527, 48.868 58.531 C 51.232 56.671, 53.164 56.470, 71.801 56.146 L 92.153 55.792 89.888 53.381 L 87.622 50.969 90.561 49.862 C 93.413 48.788, 93.490 48.581, 93.163 42.918 C 92.840 37.324, 92.936 37.054, 95.474 36.417 C 96.930 36.052, 99.819 35.981, 101.895 36.259 C 105.911 36.798, 109 35.681, 109 33.690 C 109 31.936, 113.825 27, 115.540 27 C 116.802 27, 117 34.238, 117 80.236 L 117 133.471 119.664 138.736 L 122.327 144 130.164 144 C 134.474 144, 138 143.785, 138 143.523 C 138 143.260, 136.875 140.057, 135.500 136.404 C 132.428 128.241, 132.427 128.168, 135.472 127.011 C 139.538 125.465, 139.780 121.560, 136.130 116.383 C 134.409 113.940, 133 111.401, 133 110.740 C 133 109.292, 126.574 98.619, 123.326 94.673 C 121.525 92.484, 121 90.624, 121 86.423 C 121 83.440, 121.454 81, 122.009 81 C 123.372 81, 128.512 92.309, 129.952 98.476 C 131.612 105.590, 134.890 107.151, 136.132 101.418 C 136.568 99.402, 136.800 99.141, 136.882 100.573 C 137.030 103.171, 146.088 113, 148.335 113 C 150.315 113, 150.471 111.901, 148.750 110.071 C 147.722 108.977, 148.002 108.860, 150.331 109.410 C 154.814 110.469, 153.331 107.092, 148.600 105.470 C 144.922 104.209, 143.050 102.591, 143.015 100.643 C 143.007 100.172, 143.652 100.036, 144.449 100.342 C 146.996 101.319, 147.430 97.072, 145.104 93.926 C 142.971 91.042, 142.506 88.450, 143.607 85.582 C 144.045 84.441, 145.562 84, 149.048 84 C 151.707 84, 154.171 83.532, 154.525 82.960 C 155.395 81.552, 159 66.327, 159 64.059 C 159 63.061, 158.299 61.663, 157.442 60.952 C 156.585 60.241, 155.226 58.273, 154.421 56.580 C 150.479 48.281, 148.148 45.523, 144.850 45.255 C 141.120 44.953, 138.976 42.675, 141.964 42.189 C 143.842 41.883, 143.841 41.841, 141.939 39.939 C 140.872 38.872, 139.997 36.763, 139.994 35.250 C 139.991 33.738, 139.523 30.824, 138.954 28.775 C 137.928 25.081, 137.883 25.054, 133.671 25.632 C 130.467 26.071, 129.094 25.819, 128.089 24.607 C 126.577 22.785, 121.824 22.489, 118.934 24.035 C 117.070 25.033, 117 24.618, 117 12.535 L 117 0 58.500 0 L 0 0 0 72 M 97.095 38.920 C 94.490 40.569, 96.411 51, 99.320 51 C 101.071 51, 104 47.790, 104 45.871 C 104 45.062, 104.452 43.948, 105.006 43.394 C 105.680 42.720, 105.337 41.665, 103.967 40.194 C 101.812 37.882, 99.432 37.440, 97.095 38.920 M 133.694 51.026 C 132.277 52.140, 130.827 53.970, 130.471 55.092 C 129.970 56.669, 129.125 57.060, 126.746 56.816 C 124.926 56.629, 123.498 57.011, 123.251 57.750 C 122.987 58.539, 123.804 59, 125.464 59 C 126.986 59, 129.072 60.054, 130.412 61.500 C 133.148 64.452, 137.841 64.800, 143.426 62.466 L 147.096 60.933 144.798 58.078 C 143.534 56.508, 141.240 54.459, 139.699 53.525 C 137.452 52.163, 137.130 51.548, 138.072 50.414 C 139.931 48.173, 136.756 48.617, 133.694 51.026 M 102 55.059 C 102 55.641, 102.450 55.840, 103 55.500 C 103.550 55.160, 104 54.684, 104 54.441 C 104 54.198, 103.550 54, 103 54 C 102.450 54, 102 54.477, 102 55.059 M 133 81.500 C 135.790 84.470, 138 84.738, 138 82.107 C 138 80.091, 136.154 79, 132.744 79 C 130.689 79, 130.693 79.045, 133 81.500 M 132 89.163 C 132 89.497, 132.641 91.285, 133.425 93.135 C 134.630 95.980, 134.961 96.216, 135.564 94.667 C 136.044 93.433, 135.578 92.134, 134.139 90.695 C 132.963 89.518, 132 88.829, 132 89.163 M 114.250 135.662 C 113.549 135.945, 113 137.886, 113 140.083 C 113 143.333, 113.340 144, 115 144 C 116.704 144, 117 143.333, 117 139.500 C 117 135.063, 116.717 134.667, 114.250 135.662" stroke="none" fill="black" fill-rule="evenodd"/>
</svg>