<svg xmlns="http://www.w3.org/2000/svg" width="192" height="144" viewBox="0 0 192 144" version="1.1">
	<path d="M 0 72 L 0 144 15.877 144 L 31.755 144 27.947 136.250 C 19.205 118.455, 14.652 88.818, 16.873 64.155 C 17.528 56.884, 17.507 56.796, 14.797 55.395 C 10.463 53.154, 9.403 50.278, 11.750 47.125 C 15.252 42.420, 22.030 41.520, 19.143 46.143 C 18.438 47.271, 18.083 48.417, 18.355 48.688 C 18.626 48.960, 25.308 49.661, 33.203 50.247 L 47.558 51.311 56.029 48.409 C 63.421 45.877, 65.901 45.513, 75.500 45.553 C 81.990 45.580, 89.954 46.323, 94.924 47.365 C 103.124 49.085, 103.415 49.081, 105.924 47.220 C 107.487 46.060, 108.828 43.773, 109.334 41.404 C 111.493 31.297, 111.273 31.648, 117.525 28.304 C 126.568 23.467, 130.151 23.159, 134.778 26.824 C 138.388 29.683, 138.784 29.772, 143.307 28.737 C 146.972 27.898, 148.330 27.938, 149.276 28.910 C 150.248 29.910, 149.728 30.842, 146.750 33.440 C 142.593 37.067, 142.367 37.875, 144.406 41.818 C 146.301 45.482, 145.386 49.503, 142.341 50.890 C 140.496 51.731, 140.030 52.520, 140.503 54.009 C 140.893 55.237, 140.383 57.058, 139.173 58.757 L 137.211 61.512 142.260 64.006 C 145.037 65.378, 148.476 67.647, 149.904 69.050 C 155.005 74.061, 163.721 80, 165.974 80 C 168.459 80, 171.548 82.969, 172.600 86.369 C 172.963 87.541, 175.445 91.295, 178.115 94.710 C 180.786 98.126, 185.020 104.624, 187.524 109.152 C 191.941 117.138, 192.069 117.608, 191.786 124.942 C 191.530 131.589, 191.356 132.191, 190.343 129.936 C 184.721 117.424, 178.106 105.445, 173.950 100.250 C 168.678 93.660, 166 92.355, 166 96.378 C 166 99.260, 164.951 100.119, 158.529 102.495 C 155.794 103.507, 152.644 105.195, 151.529 106.246 C 150.044 107.644, 148.600 108.014, 146.144 107.624 C 143.418 107.191, 142.695 107.452, 142.286 109.013 C 141.697 111.265, 138.832 112.399, 136 111.500 C 133.387 110.671, 133.384 112.779, 135.984 125.098 C 137.076 130.269, 137.976 136.645, 137.984 139.266 L 138 144.032 165.250 143.766 L 192.500 143.500 192.757 71.750 L 193.013 0 96.507 0 L 0 0 0 72 M 0.474 72.500 C 0.474 112.100, 0.598 128.154, 0.750 108.176 C 0.901 88.198, 0.901 55.798, 0.750 36.176 C 0.598 16.554, 0.474 32.900, 0.474 72.500 M 62.500 53.367 C 60.300 54.125, 56.025 55.923, 53 57.363 C 49.975 58.802, 46.090 59.985, 44.367 59.990 C 42.004 59.998, 41.054 60.554, 40.505 62.250 C 40.104 63.487, 39.561 75.525, 39.299 89 C 38.869 111.058, 39.028 114.497, 40.895 123.500 C 42.035 129, 43.830 135.750, 44.883 138.500 L 46.799 143.500 73.758 143.766 L 100.718 144.032 101.320 138.950 C 101.667 136.018, 103.275 131.463, 105.121 128.184 C 112.967 114.245, 112.789 114.929, 113.312 96.750 C 113.724 82.428, 113.580 80, 112.318 80 C 110.884 80, 110.971 77.703, 112.626 71.802 C 112.943 70.669, 112.146 69.610, 110.228 68.618 C 106.452 66.665, 104.722 64.495, 103.479 60.148 C 102.513 56.770, 102.083 56.481, 95.479 54.761 C 86.079 52.314, 67.799 51.541, 62.500 53.367 M 132 70.941 C 132 71.459, 132.450 72.160, 133 72.500 C 133.550 72.840, 134 72.416, 134 71.559 C 134 70.702, 133.550 70, 133 70 C 132.450 70, 132 70.423, 132 70.941 M 150 81.504 C 150 82.331, 149.100 84.686, 148 86.739 C 145.960 90.544, 145.331 95, 146.833 95 C 147.291 95, 149.112 93.200, 150.880 91 C 152.648 88.800, 154.721 87, 155.488 87 C 158.172 87, 158.091 84.982, 155.308 82.533 C 152.105 79.716, 150 79.308, 150 81.504" stroke="none" fill="black" fill-rule="evenodd"/>
</svg>