<svg xmlns="http://www.w3.org/2000/svg" width="192" height="144" viewBox="0 0 192 144" version="1.1">
	<path d="M 0 72 L 0 144 37.913 144 L 75.826 144 74.850 141.250 C 74.071 139.056, 74.654 135.787, 77.736 125.080 C 80.857 114.235, 81.477 110.720, 80.969 106.760 C 80.502 103.117, 80.948 99.762, 82.709 93.684 C 85.547 83.884, 87.345 73.066, 87.100 67.258 C 87.001 64.925, 87.405 62.113, 87.996 61.008 C 88.600 59.878, 88.664 59, 88.142 59 C 87.632 59, 86.955 59.675, 86.638 60.500 C 85.764 62.778, 82 62.404, 82 60.040 C 82 58.579, 83.081 57.792, 86.250 56.947 C 88.588 56.323, 91.281 55.405, 92.236 54.906 C 94.550 53.699, 98.729 53.753, 99.500 55 C 99.840 55.550, 101.355 56, 102.868 56 C 106.514 56, 109.505 58.242, 108.690 60.365 C 108.341 61.274, 107.481 61.902, 106.778 61.759 C 105.253 61.450, 105.255 63.852, 106.795 77 C 107.406 82.225, 109.020 90.038, 110.380 94.363 C 112.548 101.258, 112.733 102.965, 111.885 108.232 C 111.133 112.900, 111.248 115.268, 112.398 118.869 C 116.587 131.971, 118.168 139.818, 117.043 141.920 L 115.917 144.024 154.208 143.762 L 192.500 143.500 192.757 71.750 L 193.013 0 96.507 0 L 0 0 0 72 M 0.474 72.500 C 0.474 112.100, 0.598 128.154, 0.750 108.176 C 0.901 88.198, 0.901 55.798, 0.750 36.176 C 0.598 16.554, 0.474 32.900, 0.474 72.500" stroke="none" fill="black" fill-rule="evenodd"/>
</svg>