<svg xmlns="http://www.w3.org/2000/svg" width="192" height="144" viewBox="0 0 192 144" version="1.1">
	<path d="M 0 72 L 0 144 40.352 144 L 80.704 144 81.547 135.750 C 82.682 124.636, 82.185 91.214, 80.847 88.714 C 79.850 86.852, 79.562 86.980, 76.009 90.867 C 71.656 95.629, 70.236 95.832, 61.161 92.987 C 57.674 91.894, 53.849 90.985, 52.661 90.967 C 50.339 90.931, 46 87.817, 46 86.187 C 46 85.641, 42.943 84.266, 39.206 83.131 C 35.218 81.920, 31.429 80.021, 30.032 78.534 C 28.007 76.379, 27.911 76, 29.385 76 C 30.338 76, 30.840 75.550, 30.500 75 C 30.160 74.450, 30.332 74, 30.882 74 C 31.432 74, 32.190 74.498, 32.566 75.107 C 33.043 75.879, 33.515 75.803, 34.125 74.857 C 34.858 73.720, 35.145 73.726, 35.899 74.896 C 36.394 75.663, 37.519 76.015, 38.399 75.677 C 39.280 75.339, 40 75.430, 40 75.880 C 40 77.290, 47.678 79.784, 50.411 79.262 C 51.926 78.972, 55.220 79.710, 58.261 81.020 C 68.660 85.500, 68.561 85.511, 71.971 79.550 C 73.637 76.639, 75 73.615, 75 72.831 C 75 72.047, 76.781 69.666, 78.959 67.540 C 81.136 65.414, 82.673 63.281, 82.375 62.798 C 82.078 62.316, 83.446 60.445, 85.417 58.640 C 89.284 55.097, 90.173 52.493, 87.190 53.440 C 84.990 54.138, 79.334 48.218, 79.815 45.720 C 80.023 44.643, 79.232 43.845, 77.532 43.419 C 76.071 43.052, 74.262 41.473, 73.406 39.818 C 72.035 37.166, 72.042 36.389, 73.482 32.053 C 74.362 29.403, 75.957 26.444, 77.026 25.476 C 78.297 24.326, 78.888 22.642, 78.735 20.609 C 78.505 17.573, 78.596 17.504, 82.601 17.675 C 86.361 17.835, 86.838 17.562, 88.349 14.394 C 89.256 12.493, 90.785 10.694, 91.749 10.396 C 92.712 10.098, 94.323 9.411, 95.328 8.870 C 96.581 8.195, 97.597 8.251, 98.555 9.046 C 100.976 11.055, 105.214 20.752, 104.564 22.797 C 104.198 23.952, 104.581 25.238, 105.527 26.022 C 108.419 28.422, 111.040 35.917, 112.604 46.254 C 114.626 59.624, 116.117 65.690, 119.893 75.904 C 122.979 84.252, 123.811 88.619, 122.114 87.571 C 120.741 86.722, 120.102 91.993, 121.197 95.135 C 121.921 97.213, 121.756 99.220, 120.563 102.809 C 119.675 105.483, 118.532 110.230, 118.023 113.358 C 117.514 116.486, 116.468 119.675, 115.699 120.444 C 114.082 122.061, 112.656 136.032, 113.618 140.841 L 114.255 144.023 153.377 143.761 L 192.500 143.500 192.757 71.750 L 193.013 0 96.507 0 L 0 0 0 72 M 0.474 72.500 C 0.474 112.100, 0.598 128.154, 0.750 108.176 C 0.901 88.198, 0.901 55.798, 0.750 36.176 C 0.598 16.554, 0.474 32.900, 0.474 72.500" stroke="none" fill="black" fill-rule="evenodd"/>
</svg>