<svg xmlns="http://www.w3.org/2000/svg" width="192" height="144" viewBox="0 0 192 144" version="1.1">
	<path d="M -0 36.908 L -0 73.817 5.750 72.035 C 14.247 69.403, 21.220 66.463, 28.886 62.281 L 35.718 58.555 45.109 66.217 C 50.274 70.431, 57.650 76.860, 61.500 80.503 C 71.448 89.916, 75.083 91.435, 87.736 91.471 L 97.972 91.500 101.078 85.189 C 104.469 78.301, 109.529 73.821, 116.161 71.834 C 118.273 71.201, 120 70.389, 120 70.030 C 120 69.670, 118.650 68.378, 117 67.158 L 114 64.940 114 67.470 C 114 70.109, 112.535 70.912, 111.662 68.750 C 111.379 68.047, 111.072 68.375, 110.961 69.500 C 110.827 70.859, 110.558 70.538, 110.122 68.500 C 109.769 66.850, 109.039 65.725, 108.500 66 C 107.961 66.275, 107.290 65.150, 107.010 63.500 C 106.644 61.347, 105.588 60.076, 103.272 59 C 100.983 57.936, 100.003 56.773, 99.906 55 C 99.831 53.625, 99.665 52.050, 99.537 51.500 C 99.409 50.950, 99.236 49.712, 99.152 48.750 C 99.069 47.788, 98.492 47, 97.871 47 C 97.069 47, 96.968 48.811, 97.524 53.250 C 98.777 63.259, 98.754 64.028, 96.990 70.806 C 95.869 75.117, 94.514 77.869, 92.906 79.106 C 89.732 81.546, 89.156 81.469, 88.412 78.507 C 88.068 77.136, 87.406 76.249, 86.941 76.537 C 85.493 77.431, 83.201 67.639, 83.583 62.188 C 83.913 57.484, 83.753 57, 81.868 57 C 79.998 57, 80.101 56.708, 82.894 54.099 C 84.602 52.503, 86 50.583, 86 49.831 C 86 49.079, 87.125 46.809, 88.500 44.785 C 89.875 42.762, 91 40.894, 91 40.636 C 91 40.377, 88.863 39.381, 86.250 38.423 C 78.921 35.734, 78.400 34.962, 80.441 29.825 C 82.558 24.498, 85.347 21.397, 90.307 18.853 C 94.463 16.722, 97.447 17.098, 98.969 19.943 C 99.848 21.585, 100.298 21.407, 103.885 17.995 C 109.009 13.120, 115.444 11.499, 126.132 12.391 C 135.060 13.135, 138.518 14.213, 141.781 17.270 C 144.070 19.414, 147.290 28.422, 146.951 31.732 C 146.623 34.930, 146.981 36, 148.378 36 C 151.415 36, 152.263 38.666, 150.993 44.222 C 150.329 47.125, 149.385 50.281, 148.893 51.236 C 148.402 52.191, 148 54.104, 148 55.486 C 148 56.869, 147.550 58, 147 58 C 146.450 58, 146 57.550, 146 57 C 146 54.760, 144.221 56.214, 143.247 59.250 C 142.413 61.848, 142.184 62.049, 142.102 60.250 C 142.046 59.013, 141.743 58, 141.429 58 C 140.276 58, 138 60.901, 138 62.370 C 138 63.201, 137.550 64.160, 137 64.500 C 136.450 64.840, 136 66.192, 136 67.504 C 136 69.458, 137.226 70.491, 142.750 73.195 C 149.048 76.279, 149.733 76.948, 152.981 83.196 L 156.461 89.893 170.507 89.553 C 180 89.324, 185.709 88.731, 188.118 87.724 L 191.683 86.235 192.336 76.367 C 192.696 70.940, 192.992 51.538, 192.995 33.250 L 193 0 96.500 0 L 0 0 -0 36.908 M 0.453 37.500 C 0.453 57.850, 0.586 66.033, 0.749 55.685 C 0.912 45.336, 0.911 28.686, 0.748 18.685 C 0.585 8.683, 0.452 17.150, 0.453 37.500 M 30.250 68.115 C 26.442 70.554, 26.451 70.505, 28.867 75.015 C 32.414 81.637, 32.377 84.036, 28.530 97.188 C 24.051 112.497, 24.081 112.414, 23.354 111.687 C 23.024 111.358, 21.531 104.973, 20.035 97.500 L 17.316 83.911 19.662 78.847 C 21.712 74.422, 21.787 73.878, 20.254 74.541 C 19.289 74.959, 15.145 76.522, 11.045 78.015 C 3.114 80.904, 1.916 82.105, 4.267 84.808 C 5.077 85.739, 6.169 87.838, 6.694 89.474 C 7.692 92.581, 7.323 94.375, 2.408 110.302 C 0.390 116.840, 0 120.199, 0 131.052 L 0 144 47.875 144 L 95.750 144 96.375 140.875 C 96.719 139.156, 97 136.116, 97 134.118 C 97 132.121, 97.471 128.915, 98.046 126.993 C 99.480 122.203, 100.115 102.844, 98.887 101.364 C 98.237 100.581, 98.259 99.958, 98.951 99.530 C 101.526 97.939, 99.503 97, 93.500 97 C 87.223 97, 86.034 97.538, 87.864 99.550 C 88.338 100.072, 89.210 101.948, 89.801 103.719 C 90.709 106.442, 90.323 108.867, 87.295 119.469 C 83.754 131.866, 82.495 134.120, 81.554 129.750 C 77.450 110.689, 76.953 106.356, 78.459 102.752 C 79.290 100.764, 80.427 98.854, 80.985 98.509 C 81.543 98.164, 82 97.480, 82 96.988 C 82 95.904, 75.534 94.013, 71.802 94.006 C 69.119 94, 69.112 94.020, 70.410 97.750 C 71.571 101.086, 71.453 102.439, 69.338 110 C 68.030 114.675, 66.482 120.638, 65.897 123.250 C 64.803 128.140, 63.515 129.323, 62.631 126.250 C 60.641 119.330, 57.921 102.143, 58.421 99.643 C 58.757 97.967, 59.979 95.587, 61.138 94.353 C 62.599 92.798, 63.060 91.376, 62.642 89.711 C 62.052 87.360, 52.294 77.373, 51.431 78.236 C 51.189 78.477, 51.600 80.430, 52.343 82.576 C 53.450 85.775, 53.465 87.288, 52.426 90.988 C 45.723 114.854, 45.477 115.538, 44.568 112.893 C 44.305 112.127, 42.956 105.790, 41.570 98.811 C 38.864 85.176, 38.853 85.301, 43.518 77.017 C 44.852 74.649, 44.699 74.340, 40.208 70.312 C 37.619 67.990, 35.050 66.077, 34.500 66.062 C 33.950 66.046, 32.038 66.970, 30.250 68.115 M 183.199 92.986 C 181.384 93.416, 179.645 94.022, 179.335 94.332 C 179.025 94.642, 179.803 97.026, 181.063 99.631 L 183.355 104.366 180.516 115.433 C 176.741 130.148, 176.080 131.913, 175.059 130 C 174.619 129.175, 173.052 123.013, 171.578 116.308 L 168.898 104.115 170.949 99.870 C 172.077 97.535, 173 95.484, 173 95.312 C 173 95.140, 169.400 95, 165 95 C 160.600 95, 157 95.168, 157 95.373 C 157 95.578, 157.943 97.878, 159.096 100.483 L 161.191 105.221 158.566 115.697 C 156.293 124.770, 156.031 127.368, 156.614 135.087 L 157.287 144 174.717 144 L 192.148 144 191.722 129.750 C 191.434 120.100, 190.648 112.879, 189.286 107.380 C 188.180 102.914, 187.609 98.639, 188.016 97.880 C 188.424 97.121, 189.068 95.487, 189.446 94.250 C 190.209 91.757, 189.228 91.559, 183.199 92.986" stroke="none" fill="black" fill-rule="evenodd"/>
</svg>