<svg xmlns="http://www.w3.org/2000/svg" width="192" height="144" viewBox="0 0 192 144" version="1.1">
	<path d="M 0 72 L 0 144 18.363 144 L 36.726 144 39.901 135.125 C 42.058 129.095, 44.826 123.910, 48.538 118.950 C 52.639 113.468, 54 110.806, 54 108.265 C 54 105.950, 53.633 105.109, 52.838 105.600 C 51.963 106.141, 51.885 103.502, 52.522 94.909 C 52.987 88.634, 53.233 74.683, 53.068 63.906 C 52.798 46.244, 52.961 43.878, 54.722 39.906 C 55.796 37.483, 57.396 34.905, 58.278 34.177 C 60.843 32.060, 57.557 26, 53.845 26 C 51.495 26, 51.401 23.011, 53.750 22.969 C 56.384 22.922, 63.698 18.180, 61.947 17.654 C 55.239 15.642, 50.757 13.491, 49.483 11.672 C 47.627 9.023, 48.896 8.420, 53.183 9.914 C 54.911 10.516, 56.501 10.833, 56.716 10.617 C 56.931 10.402, 56.185 8.712, 55.058 6.863 C 53.930 5.013, 53.006 2.712, 53.004 1.750 C 53 0.127, 51.070 0, 26.500 0 L 0 0 0 72 M 57.997 3.250 C 59.701 5.038, 61.846 7.738, 62.763 9.250 C 65.031 12.990, 65.651 12.724, 66.259 7.750 C 66.545 5.413, 67.102 2.713, 67.497 1.750 C 68.137 0.187, 67.504 0, 61.556 0 L 54.899 -0 57.997 3.250 M 71.642 3.750 C 70.428 11.096, 70.556 11.232, 75.557 7.857 C 78.064 6.165, 80.375 5.041, 80.693 5.359 C 81.706 6.373, 78.024 11.005, 73.983 13.799 C 69.628 16.809, 69.050 18, 71.941 18 C 73.009 18, 74.176 18.476, 74.536 19.059 C 74.904 19.654, 76.419 19.847, 78 19.500 C 80.800 18.885, 83.658 20.947, 81.159 21.780 C 78.878 22.541, 77 25.156, 77 27.571 C 77 28.907, 77.434 30, 77.965 30 C 79.347 30, 85.860 35.885, 87.249 38.387 C 87.981 39.707, 88.478 46.248, 88.572 55.811 C 88.723 71.089, 89.469 74.550, 91.965 71.542 C 93.639 69.525, 98.425 69.568, 100.476 71.619 C 101.367 72.510, 102.343 72.991, 102.645 72.688 C 102.948 72.386, 103.331 64.854, 103.497 55.951 C 103.768 41.401, 104.008 39.480, 105.877 36.952 C 107.851 34.283, 107.876 33.948, 106.375 30.356 C 104.286 25.356, 104.947 15.914, 107.799 10 C 109.925 5.593, 109.957 5.572, 109.349 9 C 108.387 14.418, 108.710 25.187, 109.929 28.352 C 110.760 30.508, 111.451 31.028, 112.764 30.486 C 120.545 27.271, 127.816 28.089, 132.424 32.697 L 135.115 35.388 137.527 32.444 C 141.196 27.964, 141.357 26.489, 138.513 23.419 C 135.324 19.979, 135.704 18.641, 140.050 18 C 142.986 17.567, 143.603 16.963, 144.644 13.500 C 145.391 11.013, 145.875 10.320, 145.923 11.668 C 146.055 15.378, 147.128 17, 149.452 17 C 150.683 17, 152.449 17.839, 153.377 18.864 C 154.974 20.628, 154.925 20.819, 152.465 22.431 C 150.401 23.783, 149.566 23.885, 148.409 22.924 C 146.649 21.464, 146.663 21.448, 145.152 26.710 C 144.487 29.026, 142.451 32.876, 140.627 35.265 C 137.873 38.874, 137.469 40.024, 138.245 42.055 C 138.758 43.400, 139.108 53.500, 139.022 64.500 C 138.762 97.717, 139.442 114.889, 141.076 116.382 C 141.859 117.097, 146.486 118.922, 151.358 120.437 C 158.872 122.773, 160.874 123.877, 164.551 127.714 C 168.667 132.010, 170.556 135.073, 172.911 141.265 C 173.938 143.966, 174.062 144, 182.975 144 L 192 144 192 72 L 192 0 132.131 0 L 72.262 0 71.642 3.750 M 90.232 77 C 90.232 78.925, 90.438 79.713, 90.689 78.750 C 90.941 77.787, 90.941 76.213, 90.689 75.250 C 90.438 74.287, 90.232 75.075, 90.232 77 M 101.232 77 C 101.232 78.925, 101.438 79.713, 101.689 78.750 C 101.941 77.787, 101.941 76.213, 101.689 75.250 C 101.438 74.287, 101.232 75.075, 101.232 77 M 94.119 95.558 C 93.525 97.762, 91.442 101.310, 89.488 103.443 C 86.015 107.235, 85.952 107.453, 86.615 113.309 C 87.093 117.538, 86.971 119.100, 86.199 118.623 C 85.475 118.175, 84.997 119.726, 84.781 123.224 C 84.458 128.462, 83.809 128.259, 82.469 122.500 C 81.786 119.562, 81.732 119.613, 79.813 125 C 77.449 131.634, 77.426 132.756, 79.524 139.071 L 81.161 144 97.936 144 L 114.711 144 115.348 137.250 C 116.392 126.201, 116.164 116.780, 114.874 117.578 C 114.138 118.033, 113.935 120.350, 114.289 124.253 C 114.930 131.325, 113.407 130.811, 111.496 123.311 L 110.269 118.500 109.548 122.745 C 108.461 129.136, 107.009 128.894, 106.930 122.309 C 106.876 117.881, 106.635 116.976, 105.914 118.500 C 105.266 119.872, 105.138 118.398, 105.506 113.810 L 106.043 107.120 102.022 103.139 C 99.810 100.949, 98 98.308, 98 97.270 C 98 96.232, 97.370 94.520, 96.599 93.466 C 95.287 91.672, 95.130 91.805, 94.119 95.558 M 76.015 123.250 C 76.026 127.008, 76.306 128.074, 77 127 C 78.279 125.021, 78.279 118, 77 118 C 76.450 118, 76.007 120.362, 76.015 123.250" stroke="none" fill="black" fill-rule="evenodd"/>
</svg>