<svg xmlns="http://www.w3.org/2000/svg" width="192" height="144" viewBox="0 0 192 144" version="1.1">
	<path d="M 0 29 C 0 54.111, 0.201 58, 1.500 58 C 2.325 58, 3 58.450, 3 59 C 3 59.550, 2.325 60, 1.500 60 C 0.190 60, 0 65.341, 0 102.066 L 0 144.133 2.750 143.816 C 5.674 143.480, 6.877 140.491, 5.421 137.177 C 4.429 134.918, 4.859 132.860, 6.768 130.724 C 7.804 129.567, 8.381 126.957, 8.428 123.225 C 8.479 119.179, 9.013 116.987, 10.250 115.750 C 12.170 113.830, 12.573 110.472, 11 109.500 C 9.342 108.476, 9.855 106.185, 12.737 101.730 C 15.928 96.798, 17.540 90.726, 17.882 82.357 C 18.109 76.790, 17.948 76.297, 15.541 75.201 C 12.775 73.940, 12.704 72.678, 15.036 66.213 C 16.104 63.251, 15.961 62.551, 13.578 59.113 C 12.125 57.016, 10.350 52.420, 9.635 48.900 C 8.557 43.597, 7.963 42.445, 6.167 42.180 C 3.124 41.732, 3.465 40.196, 6.692 39.816 C 8.766 39.573, 9.572 38.771, 10.201 36.327 C 11.289 32.097, 18.606 25.789, 27.430 21.474 C 32.885 18.806, 36.727 17.749, 44.250 16.848 L 54 15.679 54 11.840 C 54 9.728, 54.337 8.004, 54.750 8.009 C 55.163 8.014, 57.226 10.697, 59.336 13.972 C 61.447 17.247, 64.468 21.406, 66.052 23.214 C 67.635 25.021, 69.908 29.105, 71.102 32.289 C 73.512 38.716, 75.951 40.989, 80.473 41.022 C 82.138 41.034, 84.562 41.861, 85.860 42.859 C 88.150 44.621, 88.171 44.769, 86.576 47.854 C 85.171 50.569, 84.644 50.880, 82.966 49.982 C 81.172 49.022, 81 49.262, 81 52.730 C 81 56.628, 77.959 63.620, 76.381 63.349 C 75.897 63.265, 74.677 63.638, 73.671 64.176 C 72.119 65.007, 71.892 66.185, 72.171 71.953 C 72.406 76.810, 72.169 78.623, 71.340 78.303 C 70.703 78.057, 69.896 78.751, 69.549 79.845 C 69.202 80.940, 67.980 83.027, 66.834 84.484 C 64.993 86.824, 64.287 87.055, 60.792 86.465 C 57.056 85.834, 56.853 85.928, 57.167 88.148 C 57.465 90.251, 58.665 90.792, 68.500 93.257 C 80.169 96.181, 82.376 97.655, 81.329 101.826 C 80.785 103.991, 80.957 104.224, 82.600 103.550 C 91.928 99.725, 96.434 98.635, 104.609 98.228 C 115.936 97.663, 122.199 98.966, 132.805 104.095 C 143.513 109.272, 154.721 120.117, 160.250 130.649 C 162.313 134.578, 164 138.009, 164 138.274 C 164 138.539, 161.188 139.824, 157.750 141.128 L 151.500 143.500 170.971 143.772 C 181.679 143.922, 191.015 143.825, 191.716 143.555 C 192.733 143.165, 192.989 128.592, 192.979 71.533 L 192.968 0 96.484 0 L 0 0 0 29 M 0.441 29.500 C 0.442 45.450, 0.580 51.835, 0.748 43.689 C 0.916 35.543, 0.916 22.493, 0.747 14.689 C 0.579 6.885, 0.441 13.550, 0.441 29.500 M 119.811 56.757 C 118.349 57.645, 116.681 59.404, 116.106 60.666 C 115.234 62.580, 115.404 63.146, 117.126 64.067 C 118.851 64.991, 119.463 64.794, 120.845 62.868 C 124.792 57.372, 124.234 54.074, 119.811 56.757 M 0.458 102 C 0.458 125.375, 0.589 134.938, 0.749 123.250 C 0.909 111.563, 0.909 92.438, 0.749 80.750 C 0.589 69.063, 0.458 78.625, 0.458 102" stroke="none" fill="black" fill-rule="evenodd"/>
</svg>