<svg xmlns="http://www.w3.org/2000/svg" width="192" height="144" viewBox="0 0 192 144" version="1.1">
	<path d="M -0 72.005 L -0 144.010 96.250 143.755 L 192.500 143.500 192.757 71.750 L 193.013 0 96.507 0 L 0 0 -0 72.005 M 0.474 72.500 C 0.474 112.100, 0.598 128.154, 0.750 108.176 C 0.901 88.198, 0.901 55.798, 0.750 36.176 C 0.598 16.554, 0.474 32.900, 0.474 72.500 M 134.241 25.325 C 132.999 26.015, 131.330 27.512, 130.531 28.652 C 129.733 29.792, 127.700 31.296, 126.014 31.994 C 123.374 33.088, 122.689 33.029, 121.074 31.567 C 119.835 30.445, 118.974 30.233, 118.536 30.942 C 118.171 31.532, 118.577 32.284, 119.437 32.614 C 121.624 33.454, 121.383 34.667, 118.899 35.316 C 116.133 36.039, 117.415 38, 120.655 38 C 123.210 38, 129 40.850, 129 42.109 C 129 42.481, 128.325 43.045, 127.500 43.362 C 125.448 44.149, 125.608 47.679, 127.750 48.888 C 128.938 49.559, 129.500 51.100, 129.500 53.688 C 129.500 57.045, 129.769 57.472, 131.750 57.262 C 134.869 56.932, 134.674 59.549, 131.171 65.054 C 126.419 72.521, 126.845 72.395, 110.832 71.091 C 102.486 70.411, 96.295 70.305, 95.767 70.833 C 94.689 71.911, 97.510 75, 99.571 75 C 100.357 75, 101 75.509, 101 76.131 C 101 76.855, 102.205 77.066, 104.353 76.718 C 106.789 76.322, 108.869 76.833, 111.955 78.587 C 117.011 81.458, 118.942 81.698, 116.655 79.171 C 115.745 78.165, 115 77.040, 115 76.671 C 115 76.302, 117.894 76, 121.430 76 C 127.338 76, 127.887 76.183, 128.180 78.250 C 128.483 80.382, 128.874 80.482, 135.649 80.150 L 142.797 79.801 143.463 82.831 C 144.060 85.551, 145.642 87.795, 147 87.850 C 147.275 87.862, 148.353 88.198, 149.395 88.598 C 152.142 89.652, 154.272 86.368, 153.510 82.250 C 152.969 79.322, 153.146 79, 155.301 79 C 156.616 79, 158.999 79.648, 160.596 80.440 C 162.193 81.232, 167.588 82.534, 172.584 83.335 C 177.580 84.135, 183.430 85.674, 185.584 86.756 C 187.738 87.838, 190.063 88.522, 190.750 88.278 C 191.666 87.952, 192 84.246, 192 74.417 L 192 61 186.456 61 C 183.406 61, 178.119 61.696, 174.706 62.547 C 170.136 63.687, 167.445 63.845, 164.500 63.148 C 162.242 62.613, 161.454 62.157, 162.691 62.100 C 166.523 61.925, 166.194 60.136, 162.271 59.812 C 158.701 59.517, 158.483 59.300, 158.190 55.750 C 157.833 51.442, 156.965 51.214, 151.516 53.992 C 147.265 56.159, 146.045 55.551, 146.015 51.250 C 145.998 48.753, 146.982 48.382, 148.800 50.200 C 149.733 51.133, 150 51.120, 150 50.141 C 150 49.449, 150.450 49.160, 151 49.500 C 151.550 49.840, 152 49.677, 152 49.138 C 152 48.600, 153.326 47.868, 154.948 47.512 C 157.652 46.918, 157.804 46.663, 156.787 44.432 C 156.178 43.094, 155.107 42, 154.409 42 C 153.711 42, 152.995 40.987, 152.820 39.750 C 152.577 38.040, 151.300 37.104, 147.500 35.849 C 143.428 34.505, 142.442 33.726, 142.189 31.652 C 141.895 29.254, 142.084 29.139, 145.439 29.684 C 150.354 30.481, 149.897 28.835, 144.473 26.199 C 139.334 23.702, 137.453 23.542, 134.241 25.325 M 151 62.367 C 151 63.528, 156.970 65.999, 159.700 65.970 C 162.266 65.942, 162.337 65.845, 160.555 64.811 C 159.485 64.190, 157.685 63.570, 156.555 63.433 C 155.425 63.295, 153.713 62.869, 152.750 62.485 C 151.787 62.100, 151 62.048, 151 62.367" stroke="none" fill="black" fill-rule="evenodd"/>
</svg>