<svg xmlns="http://www.w3.org/2000/svg" width="192" height="144" viewBox="0 0 192 144" version="1.1">
	<path d="M 102.347 4.769 C 98.182 6.762, 94.454 14.926, 96.992 16.495 C 98.155 17.214, 98.321 22.021, 97.235 23.500 C 96.831 24.050, 95.825 24.648, 95 24.829 C 92.527 25.371, 90.142 28.039, 88.978 31.566 C 88.080 34.288, 88.185 35.352, 89.556 37.445 C 90.477 38.850, 91.698 40, 92.270 40 C 92.842 40, 92.634 40.788, 91.807 41.750 C 90.980 42.712, 90.014 44.316, 89.659 45.313 C 89.304 46.311, 88.582 46.860, 88.054 46.533 C 87.526 46.207, 86.593 47.798, 85.981 50.069 C 85.033 53.592, 85.122 54.477, 86.590 56.099 C 87.536 57.145, 89.253 58, 90.405 58 C 92.259 57.999, 92.486 58.554, 92.376 62.814 C 92.308 65.462, 91.954 68.569, 91.590 69.718 C 91.225 70.866, 90.507 74.385, 89.994 77.536 C 89.369 81.378, 87.767 85.282, 85.133 89.383 C 82.973 92.747, 80.886 96.625, 80.495 98 C 80.105 99.375, 78.103 102.300, 76.047 104.500 C 68.239 112.853, 65.799 120.698, 69.864 124.377 C 72.886 127.112, 84.842 130.155, 87.331 128.823 C 88.864 128.002, 89.504 128.011, 89.786 128.857 C 90.014 129.543, 92.533 130, 96.083 130 C 101.255 130, 102 130.242, 102 131.924 C 102 132.982, 102.527 136.132, 103.172 138.924 L 104.343 144 110.084 144 L 115.824 144 116.502 139.750 C 118.418 127.736, 118.565 127.501, 125.327 125.569 C 128.722 124.598, 134.425 122.765, 138 121.495 C 141.575 120.225, 147.676 118.257, 151.559 117.122 C 160.413 114.534, 165.588 111.154, 165.262 108.173 C 165.131 106.978, 165.477 106, 166.031 106 C 167.580 106, 166.013 100.804, 163.694 98.250 C 162.571 97.013, 161.245 96, 160.748 96 C 158.222 96, 135.555 81.119, 129.155 75.260 C 119.550 66.465, 118.678 64.726, 119.943 56.873 C 120.487 53.497, 121.113 50.554, 121.334 50.333 C 121.555 50.112, 123.526 50.333, 125.713 50.824 C 129.708 51.722, 135 50.141, 135 48.050 C 135 47.562, 135.254 46.502, 135.564 45.693 C 136.212 44.005, 130.582 38.237, 127.500 37.431 C 125.764 36.977, 125.487 36.024, 125.405 30.204 C 125.322 24.354, 124.865 22.799, 121.825 18 C 119.908 14.975, 118.052 11.713, 117.701 10.750 C 117.350 9.787, 116.163 9, 115.063 9 C 113.618 9, 113.238 8.544, 113.694 7.355 C 115.177 3.489, 108.298 1.921, 102.347 4.769 M 126 23 C 126 23.550, 126.423 24, 126.941 24 C 127.459 24, 128.160 23.550, 128.500 23 C 128.840 22.450, 128.416 22, 127.559 22 C 126.702 22, 126 22.450, 126 23 M 100 62.941 C 100 64.073, 100.450 65, 101 65 C 101.550 65, 102 64.352, 102 63.559 C 102 62.766, 101.550 61.840, 101 61.500 C 100.450 61.160, 100 61.809, 100 62.941" stroke="none" fill="black" fill-rule="evenodd"/>
</svg>