<svg xmlns="http://www.w3.org/2000/svg" width="192" height="144" viewBox="0 0 192 144" version="1.1">
	<path d="M 70 4.370 C 70 6.774, 70.929 14.087, 72.065 20.620 C 74.455 34.371, 74.106 43.070, 71.007 47 C 66.779 52.362, 57 73.614, 57 77.442 C 57 79.517, 56.232 84.397, 55.293 88.288 C 54 93.643, 53.878 95.459, 54.793 95.764 C 56.752 96.417, 56.180 102.501, 53.886 105.418 C 51.599 108.325, 51.996 110.078, 54.475 108.021 C 55.803 106.919, 55.925 107.190, 55.426 110.128 L 54.853 113.500 57.078 111 L 59.302 108.500 58.684 111.711 C 57.749 116.565, 59.624 116.597, 61.321 111.756 L 62.813 107.500 63.536 110.771 C 64.239 113.955, 65.623 115.711, 66.632 114.701 C 66.907 114.427, 66.617 112.292, 65.989 109.958 C 65.076 106.568, 65.111 105.549, 66.165 104.898 C 67.215 104.249, 67.230 103.830, 66.242 102.842 C 64.841 101.441, 64.545 97, 65.852 97 C 66.320 97, 67.003 93.512, 67.370 89.250 C 68.250 79.019, 69.906 73.276, 73.231 68.931 C 74.733 66.968, 77.286 62.441, 78.905 58.870 C 81.719 52.664, 86.553 46, 88.242 46 C 89.591 46, 87.827 51.395, 85.859 53.289 C 84.837 54.273, 84 56.130, 84 57.417 C 84 58.703, 83.348 60.296, 82.551 60.958 C 79.163 63.770, 76.583 79.103, 78.541 84.797 C 80.100 89.331, 83.578 93, 86.317 93 C 87.476 93, 90.367 91.093, 92.742 88.763 C 97.425 84.166, 104.578 81.543, 111 82.066 C 121.892 82.953, 127.602 82.450, 132.167 80.201 C 139.807 76.437, 141.103 73.211, 139.682 61.485 C 139.161 57.179, 139.383 54.055, 140.466 50.485 C 142.294 44.460, 142.271 45, 140.696 45 C 139.228 45, 134.443 49.857, 131.091 54.750 C 128.453 58.599, 126.156 58.860, 123.143 55.652 L 120.936 53.303 123.968 44.254 C 127.195 34.622, 127.569 31.627, 126.045 27.619 C 125.363 25.825, 124.078 24.918, 121.545 24.443 C 119.595 24.077, 118 23.594, 118 23.369 C 118 23.144, 119.125 21.178, 120.500 19 C 121.875 16.822, 123.004 14.468, 123.010 13.770 C 123.015 13.071, 124.140 10.093, 125.510 7.151 C 126.879 4.209, 128 1.396, 128 0.901 C 128 0.387, 115.535 0, 99 0 L 70 0 70 4.370 M 175 72 L 175 144 183.500 144 L 192 144 192 72 L 192 0 183.500 0 L 175 0 175 72" stroke="none" fill="black" fill-rule="evenodd"/>
</svg>