<svg xmlns="http://www.w3.org/2000/svg" width="192" height="144" viewBox="0 0 192 144" version="1.1">
	<path d="M 0.045 42.597 C 0.088 73.358, 0.430 85.715, 1.277 87.072 C 2.181 88.519, 2.169 89.231, 1.225 90.175 C 0.320 91.080, 0 98.280, 0 117.700 C 0 143.485, 0.040 144, 2.035 144 C 4.386 144, 9.190 141.116, 8.554 140.087 C 7.999 139.189, 17.745 133.353, 21.284 132.465 C 23.015 132.030, 24 132.185, 24 132.892 C 24 133.501, 24.900 134, 26 134 C 28.672 134, 28.520 135.770, 25.464 140.268 L 22.928 144 42.351 144 L 61.775 144 64.137 141.009 C 66.703 137.761, 70.028 137.123, 72 139.500 C 72.993 140.697, 72.993 141.303, 72 142.500 C 70.911 143.812, 71.771 144, 78.878 144 C 85.431 144, 87 143.710, 87 142.500 C 87 141.675, 87.338 140.966, 87.750 140.923 C 88.162 140.881, 89.287 140.696, 90.250 140.512 C 91.423 140.287, 92 140.807, 92 142.088 C 92 143.941, 93.330 144, 135 144 C 176.667 144, 178.062 143.938, 180 142 C 182.569 139.431, 186.446 139.446, 189.036 142.036 C 190.157 143.157, 191.488 143.816, 191.995 143.503 C 192.544 143.164, 192.924 114.007, 192.932 71.466 L 192.947 0 96.467 0 L -0.014 0 0.045 42.597 M 0.443 30.500 C 0.443 47, 0.580 53.890, 0.748 45.812 C 0.915 37.733, 0.916 24.233, 0.748 15.812 C 0.581 7.390, 0.444 14, 0.443 30.500 M 36 2.016 C 36 3.407, 42.789 6.545, 43.737 5.593 C 44.157 5.172, 43.438 3.967, 42.139 2.914 C 39.615 0.868, 36 0.339, 36 2.016 M 35.507 9.989 C 35.157 10.555, 35.558 10.723, 36.448 10.382 C 38.180 9.717, 38.497 9, 37.059 9 C 36.541 9, 35.843 9.445, 35.507 9.989 M 91.500 17 C 90.708 18.282, 95.017 18.282, 97 17 C 98.141 16.262, 97.737 16.027, 95.309 16.015 C 93.554 16.007, 91.840 16.450, 91.500 17 M 160.053 19.900 C 159.261 21.382, 159.412 21.944, 160.742 22.454 C 162.548 23.148, 165.358 20.388, 164.409 18.853 C 163.487 17.361, 161.106 17.933, 160.053 19.900 M 95 34.500 C 96.338 36.112, 101 36.584, 101 35.107 C 101 34.005, 98.518 33, 95.796 33 C 94.095 33, 93.963 33.250, 95 34.500 M 14.622 41.803 C 13.936 42.913, 16.214 47.248, 17.750 47.754 C 19.857 48.449, 19.224 43.190, 17.061 42.032 C 15.994 41.462, 14.897 41.358, 14.622 41.803 M 0.382 74.500 C 0.384 81.100, 0.546 83.670, 0.741 80.211 C 0.937 76.752, 0.936 71.352, 0.738 68.211 C 0.540 65.070, 0.380 67.900, 0.382 74.500 M 168 66 C 168 66.550, 168.675 67, 169.500 67 C 170.325 67, 171 66.550, 171 66 C 171 65.450, 170.325 65, 169.500 65 C 168.675 65, 168 65.450, 168 66 M 99.543 72.931 C 98.860 74.036, 100.437 75.230, 101.361 74.306 C 102.311 73.355, 102.134 72, 101.059 72 C 100.541 72, 99.859 72.419, 99.543 72.931 M 5 78 C 5 78.550, 5.702 79, 6.559 79 C 7.416 79, 7.840 78.550, 7.500 78 C 7.160 77.450, 6.459 77, 5.941 77 C 5.423 77, 5 77.450, 5 78 M 91 78.500 C 91 80.653, 94.651 84, 97 84 C 98.111 84, 99 83.333, 99 82.500 C 99 80.347, 95.349 77, 93 77 C 91.889 77, 91 77.667, 91 78.500 M 29.336 82.567 C 28.448 84.882, 30.413 86.412, 31.928 84.586 C 33.210 83.043, 32.629 81, 30.910 81 C 30.375 81, 29.667 81.705, 29.336 82.567 M 161.225 88.617 C 158.043 91.112, 155 96.599, 155 99.844 C 155 100.862, 155.818 100.313, 157.250 98.333 C 158.488 96.622, 160.780 93.611, 162.344 91.643 C 166.028 87.007, 165.410 85.336, 161.225 88.617 M 101 91 C 101 91.550, 102.827 92, 105.059 92 C 107.510 92, 108.873 91.604, 108.500 91 C 108.160 90.450, 106.334 90, 104.441 90 C 102.548 90, 101 90.450, 101 91 M 0.438 117.500 C 0.437 132.350, 0.576 138.564, 0.747 131.310 C 0.918 124.055, 0.918 111.905, 0.748 104.310 C 0.578 96.714, 0.438 102.650, 0.438 117.500 M 116.306 94.427 C 113.828 96.570, 113.705 96.933, 115.252 97.535 C 116.437 97.995, 117.641 97.452, 118.969 95.858 C 122.630 91.463, 120.843 90.503, 116.306 94.427 M 81.345 97.543 C 80.535 99.653, 81.887 100.793, 83.039 98.971 C 84.263 97.035, 84.239 96, 82.969 96 C 82.401 96, 81.671 96.694, 81.345 97.543 M 57.218 98.154 C 57.464 98.895, 58.468 99.655, 59.448 99.846 C 60.588 100.066, 61.069 99.706, 60.782 98.846 C 60.536 98.105, 59.532 97.345, 58.552 97.154 C 57.412 96.934, 56.931 97.294, 57.218 98.154 M 135.592 103.851 C 135.216 104.460, 135.471 105.980, 136.160 107.229 C 137.222 109.154, 137.468 109.238, 137.774 107.781 C 138.254 105.496, 136.513 102.360, 135.592 103.851 M 64 108 C 65.958 109.266, 67.282 109.266, 66.500 108 C 66.160 107.450, 65.121 107.007, 64.191 107.015 C 62.734 107.029, 62.707 107.165, 64 108 M 75.667 111.667 C 74.452 112.881, 74.976 113.947, 76.500 113.362 C 77.325 113.045, 78 112.384, 78 111.893 C 78 110.845, 76.622 110.711, 75.667 111.667 M 176.405 115.895 C 178.142 117.814, 183 119.348, 183 117.976 C 183 116.833, 178.284 114, 176.380 114 C 174.802 114, 174.804 114.126, 176.405 115.895 M 90.500 119 C 90.160 119.550, 90.610 120, 91.500 120 C 92.390 120, 92.840 119.550, 92.500 119 C 92.160 118.450, 91.710 118, 91.500 118 C 91.290 118, 90.840 118.450, 90.500 119 M 133.750 119.384 C 131.613 121.532, 131.564 122.393, 133.488 123.990 C 134.690 124.987, 135.090 124.929, 135.567 123.685 C 135.892 122.838, 136.010 121.129, 135.829 119.886 C 135.515 117.730, 135.419 117.707, 133.750 119.384 M 107.500 122 C 106.181 122.567, 106.011 122.878, 107 122.914 C 107.825 122.945, 109.175 122.533, 110 122 C 111.828 120.819, 110.249 120.819, 107.500 122 M 29.158 138 C 29.158 139.375, 29.385 139.938, 29.662 139.250 C 29.940 138.563, 29.940 137.438, 29.662 136.750 C 29.385 136.063, 29.158 136.625, 29.158 138 M 161 137.826 C 161 139.453, 165.671 143, 167.814 143 C 170.618 143, 170.581 141.894, 167.686 139.174 C 165.435 137.060, 161 136.165, 161 137.826" stroke="none" fill="black" fill-rule="evenodd"/>
</svg>