<svg xmlns="http://www.w3.org/2000/svg" width="192" height="144" viewBox="0 0 192 144" version="1.1">
	<path d="M 111.345 15.829 C 113.501 18.212, 113.456 19.310, 111.250 18.150 C 110.287 17.644, 107.241 16.926, 104.481 16.553 C 100.118 15.964, 98.974 16.207, 95.732 18.407 C 93.681 19.799, 91.327 20.679, 90.501 20.362 C 89.676 20.045, 88.264 20.069, 87.364 20.414 C 85.874 20.986, 85.888 21.219, 87.524 23.027 C 88.513 24.119, 89.028 25.306, 88.669 25.664 C 88.311 26.023, 88.469 26.860, 89.021 27.525 C 89.712 28.358, 89.581 29.103, 88.598 29.919 C 87.369 30.939, 87.366 31.475, 88.580 33.801 C 90.560 37.597, 90.484 56.138, 88.461 62.591 C 87.615 65.291, 86.715 71.325, 86.461 76 C 86.207 80.675, 85.567 89.225, 85.037 95 C 84.508 100.775, 83.591 112.700, 83.001 121.500 C 82.410 130.300, 81.747 138.963, 81.526 140.750 L 81.126 144 104.142 144 L 127.159 144 126.450 140.750 C 126.060 138.963, 123.505 129.625, 120.773 120 C 113.860 95.643, 111.423 83.475, 113.236 82.354 C 113.738 82.044, 115.171 82.751, 116.421 83.926 L 118.694 86.061 121.361 82.031 C 122.862 79.762, 124.829 78, 125.859 78 C 130.571 78, 132.820 70.642, 128.598 69.037 C 126.803 68.355, 126.021 67.086, 125.501 64.008 C 124.917 60.552, 125.223 59.262, 127.406 55.963 L 130.006 52.034 124.253 47.518 C 121.089 45.034, 117.713 43.001, 116.750 43.001 C 113.703 43, 114.810 39.344, 118.877 35.980 C 123.221 32.387, 123.397 29.482, 119.363 27.948 C 117.510 27.243, 117 26.306, 117 23.601 C 117 20.140, 113.007 14, 110.756 14 C 110.170 14, 110.435 14.823, 111.345 15.829" stroke="none" fill="black" fill-rule="evenodd"/>
</svg>