<svg xmlns="http://www.w3.org/2000/svg" width="192" height="144" viewBox="0 0 192 144" version="1.1">
	<path d="M 0 72 L 0 144 34.750 143.988 L 69.500 143.975 71.750 140.502 C 72.988 138.591, 74 136.159, 74 135.097 C 74 134.035, 74.968 130.991, 76.152 128.333 C 77.978 124.232, 78.268 121.909, 78.070 113 C 77.915 106.014, 77.395 101.998, 76.516 101 C 73.366 97.426, 75.054 83.071, 79.049 79.456 C 80.048 78.552, 80.625 77.186, 80.331 76.420 C 79.681 74.726, 83.922 72.905, 86.780 73.653 C 88.942 74.218, 90.514 72.640, 89.470 70.951 C 89.035 70.247, 88.306 70.329, 87.248 71.201 C 85.980 72.248, 85.592 72.253, 85.246 71.225 C 85.010 70.524, 83.357 69.340, 81.573 68.595 C 77.562 66.919, 71.152 60.453, 70.355 57.279 C 69.648 54.460, 72.007 51.466, 75.660 50.549 C 77.896 49.988, 78.149 49.454, 77.952 45.709 C 77.585 38.705, 77.738 38.405, 80.403 40.909 C 82.393 42.778, 82.953 42.920, 83.653 41.730 C 84.962 39.507, 88.511 38, 92.434 38 L 96 38 96 91 L 96 144 109 144 C 116.150 144, 122 143.801, 122 143.557 C 122 143.314, 121.056 141.514, 119.901 139.557 C 118.747 137.601, 118.065 136, 118.387 136 C 118.708 136, 118.077 133.733, 116.985 130.963 C 115.460 127.093, 115.017 123.675, 115.074 116.213 C 115.137 107.980, 116.488 94.882, 116.875 98.750 C 116.944 99.438, 117.502 100, 118.115 100 C 120.762 100, 116.204 81.480, 113.083 79.551 C 112.487 79.183, 112 77.784, 112 76.441 C 112 73.958, 110.643 73.431, 105.365 73.864 C 103.133 74.048, 101.387 71.497, 103.044 70.473 C 103.570 70.148, 104 70.359, 104 70.941 C 104 72.562, 106.986 72.200, 107.638 70.500 C 107.955 69.675, 109.275 69, 110.572 69 C 113.374 69, 119.486 63.895, 121.616 59.775 C 122.975 57.147, 122.969 56.602, 121.552 54.440 C 120.685 53.115, 118.813 51.740, 117.394 51.384 C 114.974 50.777, 114.853 50.464, 115.467 46.371 C 116.288 40.897, 115.443 39.289, 112.939 41.556 C 111.179 43.148, 110.902 43.096, 107.961 40.621 C 105.628 38.658, 103.737 38, 100.423 38 L 96 38 96 19 L 96 0 48 0 L 0 0 0 72 M 72.678 54.656 C 72.305 55.028, 72 55.911, 72 56.616 C 72 58.123, 78.185 64.148, 78.949 63.384 C 79.236 63.098, 78.352 62.016, 76.985 60.982 C 74.530 59.122, 74.524 59.083, 76.498 57.632 C 77.598 56.824, 78.273 55.958, 77.998 55.706 C 76.931 54.726, 73.320 54.013, 72.678 54.656 M 116.156 55.787 C 115.675 56.729, 115.002 58.973, 114.661 60.774 C 114.092 63.775, 114.202 63.962, 115.969 63.017 C 118.587 61.616, 120.961 58.062, 120.347 56.463 C 119.530 54.334, 117.098 53.942, 116.156 55.787 M 80.015 114.668 C 80.007 115.311, 79.727 116.548, 79.393 117.418 C 79.059 118.288, 79.236 119, 79.786 119 C 81.262 119, 81.949 116.530, 80.923 114.909 C 80.375 114.045, 80.025 113.951, 80.015 114.668" stroke="none" fill="black" fill-rule="evenodd"/>
</svg>