<svg xmlns="http://www.w3.org/2000/svg" width="192" height="144" viewBox="0 0 192 144" version="1.1">
	<path d="M 112.396 2.560 C 111.721 5.249, 112.315 12.374, 113.442 15.107 C 113.924 16.276, 113.235 17.074, 110.918 18.034 C 106.084 20.036, 98.254 26.610, 96.361 30.255 C 93.521 35.726, 90.941 45.341, 92.024 46.424 C 92.561 46.961, 93 48.496, 93 49.835 C 93 52.589, 96.363 56.108, 100.925 58.127 C 104.448 59.687, 104.666 60.604, 102.312 63.965 C 101.206 65.544, 101.007 66.502, 101.735 66.745 C 103.995 67.498, 111 77.732, 111 80.280 C 111 81.708, 111.696 85.876, 112.546 89.542 C 113.959 95.636, 113.950 96.633, 112.443 101.171 C 111.130 105.125, 110.459 105.989, 109.147 105.415 C 108.241 105.019, 106.375 104.651, 105 104.597 C 102.733 104.509, 102.471 104.919, 102.187 109 C 101.728 115.595, 100.535 115.916, 97.042 110.386 C 95.345 107.699, 92.357 104.149, 90.402 102.497 C 87.690 100.206, 86.740 98.546, 86.397 95.497 C 85.089 83.870, 83.353 81.558, 76.382 82.159 C 74.061 82.358, 72.504 82.012, 72.247 81.240 C 71.675 79.526, 70.191 79.677, 70.361 81.430 C 70.438 82.217, 68.501 83.927, 66.059 85.230 C 60.867 88, 59.640 90.956, 60.518 98.584 C 61.227 104.747, 65.366 110.306, 70.512 112.004 C 74.516 113.325, 74.480 113.201, 72.527 119.072 C 71.716 121.507, 70.600 126.875, 70.046 131 C 69.492 135.125, 68.753 139.738, 68.403 141.250 L 67.767 144 88.383 144 L 109 144 109 141.059 C 109 139.441, 109.450 137.840, 110 137.500 C 110.550 137.160, 111 137.772, 111 138.859 C 111 144.137, 110.282 144, 137.857 144.001 L 163.500 144.003 163.500 139.823 C 163.500 135.981, 163.753 135.578, 166.634 134.823 C 170.273 133.871, 173.932 129.295, 171.731 128.450 C 170.995 128.168, 167.865 129.054, 164.776 130.420 L 159.160 132.904 158.481 128.702 C 157.776 124.338, 154.339 108.809, 153.402 105.750 C 152.422 102.554, 154.784 103.942, 155.954 107.250 C 157.679 112.130, 159.125 108.722, 157.855 102.768 C 157.307 100.197, 157.052 96.835, 157.288 95.297 C 157.700 92.616, 157.749 92.593, 158.476 94.750 C 159.754 98.546, 161.055 97.247, 160.478 92.750 L 159.933 88.500 162.036 93.500 C 164.794 100.055, 166.084 101.293, 165.333 96.664 C 164.626 92.310, 165.393 91.964, 167.373 95.743 C 168.658 98.195, 168.758 96.688, 168.318 81.493 C 167.749 61.824, 165.986 48.002, 162.962 39.500 C 161.789 36.200, 160.147 31.057, 159.314 28.071 C 157.522 21.650, 154.203 16.092, 150.352 13.062 C 148.176 11.350, 146.446 10.927, 142.395 11.115 C 137.389 11.347, 137.009 11.168, 130.859 5.682 C 124.699 0.187, 124.320 0.009, 118.769 0.004 C 113.453 0, 112.992 0.185, 112.396 2.560 M 121 81.441 C 121 82.298, 121.450 83, 122 83 C 122.550 83, 123 82.577, 123 82.059 C 123 81.541, 122.550 80.840, 122 80.500 C 121.450 80.160, 121 80.584, 121 81.441" stroke="none" fill="black" fill-rule="evenodd"/>
</svg>