<svg xmlns="http://www.w3.org/2000/svg" width="192" height="144" viewBox="0 0 192 144" version="1.1">
	<path d="M 0 72 L 0 144 24 144 C 37.200 144, 48 143.825, 48 143.611 C 48 143.396, 46.137 139.459, 43.859 134.861 C 38.504 124.049, 37.961 119.673, 41.396 115 C 42.811 113.075, 44.897 109.700, 46.031 107.500 C 52.915 94.149, 52.169 94.908, 62.177 91.064 L 69.500 88.252 69.372 77.876 C 69.302 72.169, 68.912 64.713, 68.506 61.307 L 67.768 55.115 62.134 54.434 C 59.035 54.060, 55.959 53.322, 55.298 52.794 C 54.637 52.266, 53.174 52.127, 52.048 52.485 C 50.922 52.842, 50 52.689, 50 52.144 C 50 51.176, 53.755 46.324, 57.250 42.777 C 59.650 40.340, 59.488 39.832, 55.488 37.241 C 53.569 35.998, 52 34.587, 52 34.104 C 52 33.622, 53.961 32.933, 56.358 32.574 L 60.717 31.920 59.902 27.710 C 58.275 19.304, 58.586 19.153, 64.822 25.324 C 70.403 30.847, 70.766 31.037, 73.572 29.909 C 77.720 28.242, 103.587 27.413, 105.367 28.889 C 107.570 30.718, 109.788 29.162, 112.745 23.712 L 115.500 18.634 116.512 24.067 C 117.757 30.754, 120.480 35.975, 122.776 36.077 C 123.724 36.119, 126.300 36.711, 128.500 37.391 L 132.500 38.629 128 40.937 C 122.327 43.847, 122.255 43.922, 124.029 45.018 C 126.337 46.445, 123.377 48.771, 117.467 50.174 L 112.500 51.354 112.806 71.911 L 113.113 92.468 116.709 95.433 C 120.672 98.699, 126 109.207, 126 113.756 C 126 115.295, 125.391 117.443, 124.648 118.527 C 122.642 121.454, 121.928 127.848, 122.652 136.412 L 123.296 144.026 157.898 143.763 L 192.500 143.500 192.757 71.750 L 193.013 0 96.507 0 L 0 0 0 72 M 0.474 72.500 C 0.474 112.100, 0.598 128.154, 0.750 108.176 C 0.901 88.198, 0.901 55.798, 0.750 36.176 C 0.598 16.554, 0.474 32.900, 0.474 72.500 M 57.250 118.187 C 54.362 119.331, 52.004 120.770, 52.010 121.384 C 52.015 121.998, 53.494 127.225, 55.296 133 C 58.431 143.046, 58.701 143.513, 61.536 143.795 L 64.500 144.089 64.500 134.295 C 64.500 128.908, 64.723 122.706, 64.995 120.513 C 65.605 115.608, 64.553 115.292, 57.250 118.187" stroke="none" fill="black" fill-rule="evenodd"/>
</svg>