<svg xmlns="http://www.w3.org/2000/svg" width="192" height="144" viewBox="0 0 192 144" version="1.1">
	<path d="M 56.336 28.717 C 53.359 29.090, 53.130 29.418, 52.466 34.250 C 51.835 38.838, 52.001 39.582, 54.021 41.218 C 55.265 42.226, 56.006 43.327, 55.668 43.665 C 55.330 44.004, 55.795 45.538, 56.703 47.075 C 58.047 49.350, 58.119 50.152, 57.091 51.391 C 56.396 52.228, 56.129 53.400, 56.498 53.996 C 56.866 54.593, 56.117 55.916, 54.834 56.938 C 53.550 57.960, 51.636 60.427, 50.580 62.422 C 48.665 66.037, 48.665 66.056, 50.830 68.983 C 53.488 72.580, 53.519 73.860, 51.086 79.815 C 47.847 87.741, 44.956 105.299, 41.465 138.250 L 40.856 144 60.557 144 L 80.258 144 79.543 138.750 C 79.149 135.863, 78.224 128.966, 77.486 123.424 C 75.594 109.209, 70.606 90.640, 67.758 87.208 C 66.970 86.259, 67.218 85.197, 68.691 83.204 C 70.451 80.823, 70.676 79.090, 70.531 68.996 C 70.440 62.673, 70.010 56.263, 69.574 54.750 C 69.102 53.107, 69.171 52, 69.746 52 C 71.330 52, 75.714 47.478, 76.485 45.046 C 77.410 42.133, 74.612 35.550, 70.623 31.250 C 67.503 27.887, 65.617 27.553, 56.336 28.717 M 123.828 59.604 C 119.906 61.257, 118.282 63.682, 119.967 65.367 C 122.013 67.413, 120.914 70.541, 117.010 73.783 L 113.056 77.066 109.104 74.450 C 105.238 71.892, 105.074 71.871, 101.634 73.503 C 99.417 74.555, 97.267 74.902, 95.817 74.442 C 93.836 73.813, 93.691 73.923, 94.780 75.235 C 95.476 76.073, 97.433 77.037, 99.131 77.376 C 101.310 77.812, 102.050 78.427, 101.650 79.469 C 101.238 80.543, 102.231 81.242, 105.292 82.034 C 116.307 84.882, 128.458 91.431, 128.565 94.577 C 128.601 95.634, 129.389 98.173, 130.315 100.218 C 131.242 102.263, 131.996 104.513, 131.991 105.218 C 131.986 105.923, 129.990 113.453, 127.556 121.951 C 125.122 130.449, 123.352 137.761, 123.623 138.199 C 123.893 138.636, 125.925 139.284, 128.137 139.638 C 130.438 140.006, 132.655 141.076, 133.320 142.140 C 135.034 144.885, 144.549 144.834, 145.270 142.077 C 145.587 140.862, 146.825 140.034, 148.636 139.827 C 150.585 139.605, 151.383 139.021, 151.132 138 C 150.930 137.175, 150.184 132, 149.475 126.500 C 147.480 111.021, 145.106 97.406, 143.442 91.896 C 142.846 89.923, 152.206 85.469, 160.777 83.647 C 170.976 81.478, 176.342 77.079, 169.922 76.149 C 168.590 75.956, 167.235 75.371, 166.910 74.849 C 165.697 72.897, 162.239 73.901, 153.071 78.868 C 147.885 81.677, 143.553 83.868, 143.445 83.738 C 143.337 83.607, 142.962 82.567, 142.613 81.427 C 142.120 79.818, 142.877 78.630, 145.989 76.129 C 153.185 70.347, 150.041 64.627, 139.619 64.542 C 134.749 64.502, 134.499 64.366, 134.007 61.500 C 133.580 59.018, 132.974 58.462, 130.496 58.278 C 128.848 58.155, 125.848 58.752, 123.828 59.604" stroke="none" fill="black" fill-rule="evenodd"/>
</svg>