<svg xmlns="http://www.w3.org/2000/svg" width="192" height="144" viewBox="0 0 192 144" version="1.1">
	<path d="M 111.415 3.537 C 110.492 5.483, 107.361 9.195, 104.457 11.787 C 101.553 14.379, 98.587 17.798, 97.867 19.384 C 96.626 22.116, 96.734 22.415, 99.928 25.081 C 103.180 27.796, 103.243 27.981, 101.701 30.333 C 100.823 31.674, 100.381 33.047, 100.719 33.385 C 102.066 34.732, 104.797 33.884, 105.300 31.962 C 105.764 30.186, 106.512 29.961, 111.117 30.212 L 116.400 30.500 117.172 26.108 C 117.597 23.693, 119.271 18.881, 120.893 15.414 C 123.288 10.297, 125.007 8.255, 130.031 4.556 L 136.220 0 124.657 0 L 113.094 -0 111.415 3.537" stroke="none" fill="black" fill-rule="evenodd"/>
</svg>