<svg xmlns="http://www.w3.org/2000/svg" width="192" height="144" viewBox="0 0 192 144" version="1.1">
	<path d="M 62.751 27.689 C 58.433 28.818, 59.440 32.613, 69.080 51.551 C 74.219 61.648, 78.180 70.153, 77.882 70.452 C 77.583 70.750, 75.223 70.273, 72.637 69.392 C 64.037 66.462, 58 69.485, 58 76.723 C 58 78.913, 57.521 80, 56.556 80 C 53.055 80, 49.926 84.444, 48.457 91.500 C 45.418 106.099, 47.172 111.932, 54.210 110.628 C 57.271 110.061, 57.667 110.314, 59.899 114.259 C 64.736 122.811, 75.354 139.563, 77.323 141.750 L 79.349 144 115.318 144 L 151.288 144 146.894 140.677 C 144.477 138.849, 135.188 132.282, 126.250 126.082 L 110 114.810 110 105.874 C 110 95.968, 108.320 89.665, 102.351 77.172 C 99.595 71.403, 98.219 69.624, 95.887 68.811 C 93.982 68.147, 91.421 65.585, 88.717 61.639 C 82.992 53.283, 76.279 42.437, 73.466 37 C 71.095 32.415, 66.493 26.906, 65.210 27.116 C 64.819 27.180, 63.713 27.438, 62.751 27.689" stroke="none" fill="black" fill-rule="evenodd"/>
</svg>