<svg xmlns="http://www.w3.org/2000/svg" width="192" height="144" viewBox="0 0 192 144" version="1.1">
	<path d="M 75.020 32.167 C 75.031 32.900, 75.461 36.425, 75.976 40 C 76.531 43.853, 76.551 48.091, 76.026 50.405 C 75.372 53.291, 75.544 55.318, 76.684 58.169 C 77.533 60.291, 78.002 63.211, 77.725 64.658 C 77.449 66.104, 77.631 68.686, 78.131 70.394 C 78.631 72.102, 79.005 76.875, 78.962 81 C 78.918 85.125, 78.888 89.371, 78.893 90.436 C 78.899 91.501, 77.981 95.551, 76.854 99.436 C 73.526 110.906, 73.530 110.803, 76.241 113.514 C 81.314 118.587, 87.698 117.118, 89.459 110.473 C 89.976 108.520, 90.427 108.015, 90.773 109 C 91.063 109.825, 91.795 110.831, 92.400 111.235 C 94.290 112.497, 99.457 112.069, 101.755 110.459 C 103.692 109.103, 103.946 108.053, 103.876 101.709 C 103.832 97.744, 103.119 92.083, 102.292 89.129 C 101.227 85.325, 100.979 81.679, 101.443 76.629 C 102.425 65.940, 102.393 64.075, 101.110 57 C 99.674 49.078, 97.368 45.607, 93.267 45.195 C 90.951 44.963, 89.730 45.528, 88.116 47.580 C 86.952 49.059, 86 51.061, 86 52.028 C 86 53.821, 83.680 55.347, 82.598 54.264 C 82.269 53.936, 82 52.990, 82 52.162 C 82 51.335, 81.309 49.894, 80.464 48.961 C 79.534 47.932, 78.647 44.190, 78.214 39.463 C 77.775 34.661, 77.019 31.503, 76.250 31.248 C 75.563 31.020, 75.009 31.433, 75.020 32.167 M 80.391 60.424 C 79.133 63.703, 80.441 65.494, 84.328 65.815 C 87.861 66.106, 88.062 65.984, 87.073 64.137 C 86.487 63.041, 86.242 61.534, 86.528 60.787 C 86.887 59.851, 86.101 59.357, 84 59.197 C 82.081 59.051, 80.743 59.505, 80.391 60.424 M 81.523 82.135 C 82.901 90.295, 84.524 95.354, 85.909 95.809 C 86.963 96.156, 87.107 95.797, 86.481 94.386 C 85.422 92.003, 85.407 88.771, 86.424 82.750 L 87.227 78 84.026 78 C 80.827 78, 80.825 78.004, 81.523 82.135" stroke="none" fill="black" fill-rule="evenodd"/>
</svg>