<svg xmlns="http://www.w3.org/2000/svg" width="192" height="144" viewBox="0 0 192 144" version="1.1">
	<path d="M -0 39.094 L -0 78.188 4.750 77.616 C 7.362 77.301, 16.475 76.550, 25 75.947 C 52.364 74.010, 100.237 69.992, 109 68.897 C 138.435 65.219, 162.472 60.132, 179.500 53.978 C 182.800 52.785, 186.963 51.578, 188.750 51.295 L 192 50.781 192 59.172 L 192 67.563 187.250 68.871 C 184.638 69.590, 181.997 70.326, 181.382 70.507 C 180.768 70.688, 180.029 72.068, 179.741 73.574 C 179.335 75.698, 179.825 76.824, 181.929 78.593 C 183.420 79.848, 185.345 82.590, 186.207 84.687 C 187.069 86.784, 188.570 90.416, 189.543 92.759 C 191.197 96.741, 191.207 97.389, 189.701 102.759 C 186.475 114.261, 180 140.704, 180 142.377 C 180 143.850, 180.893 144.053, 186.250 143.798 L 192.500 143.500 192.747 71.750 L 192.993 0 96.497 0 L 0 0 -0 39.094 M 0.455 39.500 C 0.455 60.950, 0.587 69.583, 0.749 58.684 C 0.911 47.785, 0.910 30.235, 0.748 19.684 C 0.587 9.133, 0.454 18.050, 0.455 39.500 M 143.833 76.326 L 129.167 79.444 128.740 82.972 C 128.419 85.624, 128.833 86.997, 130.408 88.500 C 134.301 92.215, 138.583 105.046, 137.633 110.152 C 137.291 111.994, 136.563 116.598, 136.016 120.385 C 135.469 124.172, 134.570 127.814, 134.018 128.478 C 133.466 129.143, 132.406 132.907, 131.662 136.843 L 130.309 144 147.561 144 C 163.475 144, 164.782 143.864, 164.417 142.250 C 164.199 141.287, 161.766 130.960, 159.011 119.300 C 156.255 107.639, 154 97.202, 154 96.105 C 154 93.443, 160.259 79.838, 162.232 78.213 C 164.406 76.422, 163.327 72.973, 160.633 73.104 C 159.460 73.161, 151.900 74.611, 143.833 76.326 M 1 112 L 1 144 28.500 144 C 51.863 144, 56 143.782, 56 142.549 C 56 140.056, 54.004 130.877, 51.374 121.280 L 48.847 112.059 52.016 103.280 C 53.759 98.450, 56.218 93.600, 57.481 92.500 C 59.270 90.942, 59.667 89.781, 59.275 87.250 L 58.773 84 45.693 84 C 29.823 84, 4.858 82.172, 3.550 80.914 C 3.028 80.411, 2.240 80, 1.800 80 C 1.360 80, 1 94.400, 1 112 M 93 83.105 C 74.277 84.438, 75.667 84.078, 75.261 87.695 C 74.975 90.236, 75.423 91.231, 77.451 92.560 C 78.853 93.478, 80 94.881, 80 95.677 C 80 96.473, 81.182 99.622, 82.626 102.676 C 84.923 107.530, 85.172 109.017, 84.610 114.506 C 84.256 117.959, 83.144 123.196, 82.138 126.142 C 81.133 129.089, 80.022 134.313, 79.670 137.750 L 79.031 144 94.908 144 C 107.782 144, 110.890 143.728, 111.337 142.565 C 111.640 141.775, 111.539 140.988, 111.113 140.815 C 109.915 140.328, 102.748 108.043, 103.303 105.633 C 104.664 99.727, 108.419 91.244, 110.574 89.210 C 113.144 86.784, 113.362 86.107, 112.393 83.582 C 111.720 81.828, 111.128 81.814, 93 83.105" stroke="none" fill="black" fill-rule="evenodd"/>
</svg>