<svg xmlns="http://www.w3.org/2000/svg" width="192" height="144" viewBox="0 0 192 144" version="1.1">
	<path d="M 49.750 35.689 C 48.788 35.941, 48 36.959, 48 37.952 C 48 39.944, 51.238 41.489, 57.500 42.485 C 63.287 43.406, 72 46.229, 72 47.183 C 72 47.632, 70.036 48, 67.636 48 C 61.064 48, 52.801 49.796, 50.063 51.820 C 45.007 55.558, 46.159 55.926, 60.934 55.294 C 68.670 54.963, 75 54.964, 75 55.295 C 75 55.626, 72.277 56.661, 68.948 57.595 C 62.341 59.449, 55 64.139, 55 66.506 C 55 68.587, 56.933 68.385, 64.596 65.500 C 68.249 64.125, 72.602 63, 74.269 63 L 77.300 63 73.171 65.991 C 69.001 69.011, 67.247 72.594, 68.429 75.674 C 68.960 77.059, 69.898 76.542, 73.786 72.722 C 79.577 67.033, 84.593 65.813, 91.216 68.482 C 93.572 69.432, 99.549 70.500, 104.499 70.855 L 113.498 71.500 113.185 75.102 L 112.872 78.704 125.186 79.929 C 139.756 81.378, 148.615 82.961, 167.500 87.488 C 175.200 89.334, 183.862 91.029, 186.750 91.255 L 192 91.665 192 76.440 L 192 61.215 185.250 59.675 C 181.537 58.828, 174.900 57.622, 170.500 56.996 C 166.100 56.369, 161.150 55.664, 159.500 55.429 C 152.339 54.406, 142.895 52.690, 135 50.977 C 120.649 47.863, 120.261 47.820, 118.173 49.124 C 116.509 50.163, 114.711 49.920, 107.339 47.661 C 102.478 46.171, 96.717 44.663, 94.537 44.310 C 92.358 43.958, 88.147 42.393, 85.181 40.832 C 81.022 38.645, 78.495 38.010, 74.144 38.061 C 71.040 38.098, 65.350 37.432, 61.500 36.581 C 54.352 35.002, 52.824 34.886, 49.750 35.689" stroke="none" fill="black" fill-rule="evenodd"/>
</svg>