<svg xmlns="http://www.w3.org/2000/svg" width="192" height="144" viewBox="0 0 192 144" version="1.1">
	<path d="M -0 78.386 L -0 144.010 96.250 143.755 L 192.500 143.500 192.537 77.500 C 192.558 41.200, 192.432 17.012, 192.257 23.750 C 192.082 30.488, 191.709 36, 191.429 36 C 191.149 36, 189.080 35.061, 186.831 33.914 C 183.226 32.075, 182.205 31.963, 178.212 32.968 C 173.454 34.166, 171.848 35.087, 166.054 39.939 C 164.099 41.576, 160.025 44.870, 157 47.259 C 153.284 50.194, 151.401 52.442, 151.194 54.192 C 151.025 55.625, 149.218 58.328, 147.151 60.240 C 144.228 62.944, 142.949 63.525, 141.280 62.908 C 137.963 61.681, 136.936 63.802, 138.575 68.500 C 140.104 72.885, 140.427 77.618, 139.247 78.347 C 137.923 79.165, 131.221 76.364, 127.981 73.638 C 126.257 72.187, 123.643 70.732, 122.173 70.405 C 119.666 69.848, 106.485 64.388, 93.977 58.726 L 88.455 56.226 88.173 67.780 C 88.019 74.134, 87.466 80.128, 86.946 81.101 C 86.426 82.073, 86 83.708, 86 84.735 C 86 88.439, 83.557 91.930, 80.500 92.596 C 78.850 92.955, 76.273 94.116, 74.773 95.176 C 71.086 97.782, 59.340 101.689, 52.697 102.519 C 46.393 103.306, 42.316 101.699, 38.901 97.079 C 37.376 95.018, 35.584 94.007, 32.633 93.545 C 24.411 92.258, 18.938 84.516, 16.573 70.825 C 15.645 65.460, 17.740 54.135, 20.547 49.337 C 24.094 43.273, 28.239 41.107, 37.621 40.414 C 41.954 40.094, 46.625 39.682, 48 39.498 C 49.375 39.315, 50.837 39.127, 51.250 39.082 C 51.663 39.037, 52 38.028, 52 36.841 C 52 34.353, 43.443 26, 40.894 26 C 38.609 26, 37.300 24.147, 36.478 19.750 C 36.093 17.688, 35.190 16, 34.472 16 C 33.754 16, 32.986 15.457, 32.764 14.792 C 32.479 13.938, 27.621 13.464, 16.181 13.173 L 0 12.761 -0 78.386 M 0.472 78.500 C 0.472 114.800, 0.597 129.505, 0.750 111.177 C 0.902 92.850, 0.902 63.150, 0.749 45.177 C 0.597 27.205, 0.472 42.200, 0.472 78.500" stroke="none" fill="black" fill-rule="evenodd"/>
</svg>