<svg xmlns="http://www.w3.org/2000/svg" width="192" height="144" viewBox="0 0 192 144" version="1.1">
	<path d="M 93.760 84.807 C 91.858 85.174, 88.758 91.314, 89.189 93.859 C 89.358 94.856, 88.278 96.755, 86.786 98.085 C 82.887 101.559, 82.417 104.840, 85.222 109.001 C 88.966 114.558, 93.504 117.096, 98.384 116.363 C 100.648 116.023, 102.927 115.352, 103.450 114.872 C 103.972 114.392, 105.258 114, 106.307 114 C 107.620 114, 108.028 113.516, 107.618 112.448 C 107.277 111.558, 107.445 111.157, 108.011 111.507 C 109.370 112.347, 109.281 105.394, 107.900 102.814 C 107.277 101.649, 107.228 101.023, 107.787 101.368 C 108.329 101.703, 109.037 100.970, 109.361 99.739 C 109.684 98.507, 109.508 97.349, 108.968 97.165 C 108.429 96.980, 108.264 96.382, 108.601 95.836 C 108.987 95.212, 107.892 95.053, 105.656 95.408 L 102.097 95.974 102.672 91.122 C 103.076 87.707, 102.863 86.033, 101.950 85.469 C 100.584 84.625, 96.435 84.289, 93.760 84.807" stroke="none" fill="black" fill-rule="evenodd"/>
</svg>