<svg xmlns="http://www.w3.org/2000/svg" width="192" height="144" viewBox="0 0 192 144" version="1.1">
	<path d="M 0 72 L 0 144 40.352 144 L 80.704 144 81.547 135.750 C 82.010 131.213, 82.282 119.175, 82.150 109 C 81.866 87.025, 81.275 85.445, 75.595 91.468 C 71.627 95.675, 71.330 95.693, 58.500 92.532 C 49.865 90.404, 46.813 88.986, 46.250 86.844 C 46.001 85.894, 44.346 84.912, 42.367 84.541 C 38.928 83.896, 31.765 80.989, 29.088 79.151 C 27.896 78.333, 27.949 77.908, 29.429 76.429 C 30.903 74.954, 31.326 74.900, 32.091 76.088 C 32.851 77.269, 33.143 77.278, 33.875 76.143 C 34.510 75.159, 34.945 75.102, 35.459 75.934 C 35.849 76.565, 37.030 76.808, 38.084 76.473 C 39.155 76.133, 40 76.336, 40 76.933 C 40 77.520, 41.098 78, 42.441 78 C 43.784 78, 45.161 78.452, 45.502 79.004 C 45.844 79.556, 47.860 79.790, 49.982 79.523 C 52.708 79.181, 55.408 79.739, 59.171 81.423 C 68.690 85.682, 68.443 85.716, 71.905 79.666 C 73.607 76.691, 75 73.557, 75 72.701 C 75 71.846, 76.586 69.838, 78.525 68.240 C 80.464 66.642, 82.250 64.246, 82.494 62.917 C 82.738 61.588, 84.302 59.342, 85.969 57.927 C 89.349 55.058, 90.035 52.537, 87.190 53.440 C 85.011 54.131, 79.500 48.395, 79.500 45.436 C 79.500 44.187, 78.698 43.386, 77.239 43.179 C 75.936 42.994, 74.322 41.589, 73.430 39.865 C 72.029 37.155, 72.034 36.415, 73.482 32.053 C 74.362 29.403, 75.981 26.422, 77.080 25.428 C 78.423 24.212, 78.983 22.618, 78.789 20.560 C 78.507 17.570, 78.594 17.504, 82.631 17.677 C 86.531 17.845, 86.860 17.636, 88.533 13.927 C 89.845 11.017, 90.897 10, 92.593 10 C 93.852 10, 95.160 9.550, 95.500 9 C 96.646 7.146, 97.778 7.979, 101.060 13.093 C 102.921 15.994, 104.378 19.623, 104.444 21.522 C 104.508 23.356, 105.345 25.724, 106.305 26.785 C 109.057 29.826, 111.647 38.552, 113.386 50.640 C 114.389 57.619, 116.484 66.009, 118.994 73.106 C 122.920 84.207, 123.881 88.663, 122.114 87.571 C 120.728 86.714, 120.130 91.884, 121.267 94.897 C 122.064 97.008, 121.829 99.047, 120.214 104.056 C 119.072 107.600, 117.832 112.525, 117.459 115 C 117.087 117.475, 116.177 120.188, 115.437 121.028 C 114.602 121.976, 113.829 126.627, 113.398 133.290 L 112.704 144.023 152.602 143.762 L 192.500 143.500 192.757 71.750 L 193.013 0 96.507 0 L 0 0 0 72 M 0.474 72.500 C 0.474 112.100, 0.598 128.154, 0.750 108.176 C 0.901 88.198, 0.901 55.798, 0.750 36.176 C 0.598 16.554, 0.474 32.900, 0.474 72.500" stroke="none" fill="black" fill-rule="evenodd"/>
</svg>