<svg xmlns="http://www.w3.org/2000/svg" width="192" height="144" viewBox="0 0 192 144" version="1.1">
	<path d="M 0 72 L 0 144 34.759 144 L 69.518 144 71.832 135.250 C 73.105 130.438, 75.305 123.597, 76.722 120.050 C 78.467 115.680, 78.927 113.476, 78.149 113.216 C 77.517 113.006, 77 112.210, 77 111.448 C 77 110.628, 76.388 110.297, 75.500 110.638 C 74.404 111.059, 74 110.515, 74 108.619 C 74 106.524, 73.567 106.069, 71.750 106.262 C 69.744 106.474, 69.446 105.963, 69 101.539 L 68.500 96.578 62 94.315 C 58.425 93.071, 54.745 92.041, 53.823 92.027 C 52.900 92.012, 51.276 90.895, 50.214 89.545 C 48.764 87.702, 46.749 86.842, 42.139 86.100 C 35.669 85.058, 29.745 82.264, 30.325 80.529 C 30.514 79.963, 32.084 79.646, 33.815 79.823 C 35.546 80.001, 37.909 79.846, 39.067 79.479 L 41.171 78.811 39.058 76.562 C 37.896 75.325, 36.708 73.230, 36.417 71.907 C 34.839 64.712, 33.853 55.830, 34.460 54.276 C 35.060 52.742, 35.360 52.890, 36.667 55.360 C 38.607 59.028, 39.950 57.718, 40.162 51.951 C 40.415 45.053, 43.961 41.152, 45.518 46.057 C 45.877 47.189, 47.257 48.528, 48.585 49.032 C 49.913 49.537, 51.898 51.424, 52.996 53.225 C 56.547 59.050, 55.003 71.458, 50.346 74.509 C 48.930 75.437, 48 77.028, 48 78.523 C 48 81.135, 48.374 81.289, 54.077 81.033 C 56.256 80.935, 59.538 81.874, 62.476 83.436 C 67.801 86.268, 69.961 86.641, 70.077 84.750 C 70.119 84.063, 70.311 82.665, 70.504 81.644 C 70.813 80.005, 70.571 80.055, 68.427 82.069 C 67.092 83.323, 66 84.074, 66 83.739 C 66 82.126, 68.485 76.875, 72.073 70.910 C 75.631 64.993, 76.228 63, 77.915 51.410 C 79.828 38.261, 82.534 29.278, 85.602 25.888 C 87.243 24.074, 87.182 24, 84.023 24 C 80.790 24, 80.745 23.938, 81.251 20.166 C 81.534 18.058, 82.960 14.440, 84.419 12.128 C 86.948 8.123, 87.250 7.954, 90.787 8.581 C 92.939 8.962, 96.519 10.913, 99.302 13.222 C 103.539 16.738, 104.539 17.137, 107.802 16.614 C 121.904 14.352, 120.900 13.739, 118.470 23.115 C 117.371 27.355, 117.230 29.562, 117.970 30.944 C 119.612 34.012, 119.163 39.221, 116.942 42.863 C 115.815 44.712, 114.612 45.946, 114.270 45.604 C 113.928 45.262, 112.602 45.964, 111.324 47.165 C 108.518 49.802, 107.894 58, 110.500 58 C 111.325 58, 112 58.605, 112 59.345 C 112 60.085, 112.895 61.500, 113.989 62.490 C 115.082 63.479, 117.420 66.537, 119.182 69.284 C 121.992 73.662, 122.406 75.193, 122.536 81.682 C 122.617 85.753, 123.102 89.502, 123.614 90.014 C 124.126 90.526, 128.134 91.475, 132.522 92.123 C 136.910 92.772, 141.482 93.941, 142.683 94.722 C 144.394 95.835, 145.332 95.892, 147.026 94.986 C 148.214 94.350, 150.339 94.119, 151.748 94.473 C 153.378 94.882, 154.618 94.640, 155.155 93.808 C 155.846 92.739, 156.161 92.750, 156.883 93.870 C 157.614 95.004, 157.918 94.969, 158.648 93.665 C 159.240 92.606, 159.997 92.380, 160.958 92.974 C 162.121 93.693, 162.164 94.344, 161.191 96.480 C 159.723 99.703, 154.517 102, 148.681 102 C 146.271 102, 142.900 102.487, 141.191 103.083 C 138.802 103.916, 136.861 103.817, 132.792 102.656 C 129.881 101.825, 125.398 100.842, 122.829 100.471 C 117.438 99.693, 114.834 97.333, 112.977 91.541 L 111.707 87.582 110.336 92.940 C 109.150 97.574, 109.164 98.601, 110.437 100.544 C 111.370 101.969, 111.706 104.040, 111.353 106.209 C 110.932 108.806, 111.763 111.900, 114.806 119.064 C 117.010 124.254, 119.868 131.989, 121.157 136.252 L 123.500 144.005 158 143.752 L 192.500 143.500 192.757 71.750 L 193.013 0 96.507 0 L 0 0 0 72 M 0.474 72.500 C 0.474 112.100, 0.598 128.154, 0.750 108.176 C 0.901 88.198, 0.901 55.798, 0.750 36.176 C 0.598 16.554, 0.474 32.900, 0.474 72.500" stroke="none" fill="black" fill-rule="evenodd"/>
</svg>