<svg xmlns="http://www.w3.org/2000/svg" width="192" height="144" viewBox="0 0 192 144" version="1.1">
	<path d="M 120.288 1.475 C 118.521 2.243, 115.044 4.903, 112.560 7.387 C 108.276 11.671, 108.075 12.122, 108.637 16.201 C 108.963 18.566, 109.902 21.811, 110.725 23.413 C 112.111 26.113, 112.073 26.441, 110.207 27.913 C 108.373 29.359, 108.275 30.076, 109.103 36 C 110.274 44.384, 110.539 45, 112.969 45 C 114.108 45, 115 45.659, 115 46.500 C 115 47.325, 115.838 48, 116.861 48 C 120.737 48, 117.870 53.216, 109.262 61.824 C 102.618 68.468, 100.950 70.702, 101.387 72.372 C 101.692 73.537, 100.843 77.235, 99.501 80.590 C 97.330 86.015, 97.167 87.341, 98.020 92.594 C 98.548 95.842, 99.434 100.072, 99.990 101.993 C 101.782 108.192, 101.751 108.220, 93.750 107.495 C 79.974 106.246, 73.066 104.328, 72.943 101.715 C 72.911 101.047, 72.692 98.642, 72.455 96.371 C 72.117 93.122, 72.577 91.429, 74.611 88.432 C 76.983 84.937, 77.095 84.317, 75.973 80.919 C 74.028 75.024, 73.945 74.971, 68.057 75.902 C 61.575 76.927, 59.532 79.173, 57.961 87 C 57.354 90.025, 55.766 96.805, 54.433 102.067 C 52.343 110.315, 52.132 112.613, 52.901 118.737 C 53.391 122.644, 54.594 127.197, 55.574 128.856 C 57.431 132, 57.482 131.431, 54.369 142.250 C 53.905 143.863, 55.076 144, 69.318 144 L 84.771 144 83.030 137.250 C 82.073 133.537, 81 128.984, 80.646 127.132 L 80.003 123.764 85.251 124.308 C 89.455 124.743, 99.428 127.445, 100.790 128.518 C 100.949 128.644, 100.387 132.066, 99.541 136.123 C 98.694 140.180, 98.001 143.613, 98.001 143.750 C 98 143.887, 108.848 144, 122.107 144 C 149.774 144, 147.767 145.207, 140.218 133.108 C 134.284 123.598, 132.836 118.859, 132.293 107.175 C 131.883 98.363, 131.975 97.819, 133.958 97.301 C 135.579 96.877, 135.897 96.269, 135.357 94.626 C 133.826 89.975, 135.956 85.743, 140.750 83.910 C 142.181 83.363, 142.994 82.222, 142.983 80.775 C 142.963 78.160, 140.530 66.408, 139.434 63.635 C 138.797 62.021, 139.022 61.876, 141.099 62.563 C 142.419 62.999, 144.444 63.389, 145.597 63.428 C 146.750 63.468, 148.437 64.118, 149.347 64.872 C 150.795 66.075, 151 65.985, 151 64.147 C 151 62.377, 151.442 62.138, 153.840 62.618 C 156.173 63.085, 156.655 62.854, 156.542 61.325 C 156.467 60.302, 156.012 58.798, 155.531 57.982 C 154.972 57.036, 155.411 57.161, 156.743 58.328 C 158.827 60.153, 158.830 60.148, 158.289 55.828 C 157.991 53.448, 156.822 49.813, 155.690 47.752 L 153.634 44.004 156.039 36.752 C 160.932 22.001, 157.879 10.996, 146.636 2.851 C 142.946 0.179, 142.099 0.002, 133.100 0.039 C 127.165 0.063, 122.274 0.612, 120.288 1.475" stroke="none" fill="black" fill-rule="evenodd"/>
</svg>