<svg xmlns="http://www.w3.org/2000/svg" width="192" height="144" viewBox="0 0 192 144" version="1.1">
	<path d="M 46 2.557 C 46 3.964, 46.497 7.090, 47.106 9.505 C 48.156 13.677, 48.406 13.910, 52.147 14.198 L 56.083 14.500 52.512 19.590 C 48.542 25.249, 48.649 27.480, 52.934 28.337 C 56.218 28.994, 56.659 30.164, 58.089 42 C 60.041 58.149, 60.001 58.757, 56.899 60.042 C 52.144 62.011, 50.812 64.376, 50.330 71.702 C 49.666 81.807, 49.287 82.998, 46.731 83.015 C 42.198 83.046, 41.481 84.456, 43.908 88.568 C 45.993 92.102, 46.055 92.751, 44.946 99.414 C 44.035 104.879, 41.936 110.114, 35.770 122.296 C 28.323 137.007, 27.884 138.215, 29.387 139.875 C 30.274 140.855, 31 142.185, 31 142.829 C 31 143.708, 43.680 144, 81.934 144 L 132.868 144 132.389 141.361 C 132.126 139.909, 131.255 137.152, 130.453 135.233 C 129.304 132.484, 129.229 130.968, 130.097 128.070 C 131.085 124.771, 130.868 123.681, 127.981 117.447 C 126.211 113.626, 122.657 105.299, 120.082 98.942 C 115.673 88.055, 115.479 87.192, 116.746 84.086 C 117.902 81.255, 117.877 80.461, 116.571 78.467 C 115.734 77.190, 114.026 76, 112.775 75.823 C 110.967 75.566, 110.090 74.246, 108.500 69.386 C 107.400 66.023, 105.947 62.613, 105.270 61.808 C 104.408 60.782, 104.312 59.398, 104.949 57.178 C 106.017 53.454, 105.313 43.465, 103.757 40.255 C 102.866 38.419, 103.167 37.024, 105.411 32.589 C 106.920 29.607, 108.007 26.117, 107.827 24.833 C 107.585 23.106, 108.035 22.424, 109.561 22.205 C 112.014 21.854, 113.796 19.013, 118.383 8.137 L 121.815 0 83.907 0 L 46 0 46 2.557 M 61.231 121.750 C 60.233 128.558, 60.440 130.524, 61.907 128.151 C 62.730 126.819, 63.389 115, 62.641 115 C 62.410 115, 61.775 118.037, 61.231 121.750" stroke="none" fill="black" fill-rule="evenodd"/>
</svg>