<svg xmlns="http://www.w3.org/2000/svg" width="192" height="144" viewBox="0 0 192 144" version="1.1">
	<path d="M 0 72 L 0 144 34.841 144 L 69.682 144 70.946 138.351 C 71.641 135.243, 73.703 128.381, 75.527 123.101 C 80.479 108.766, 80.307 109.335, 79.234 110.833 C 78.557 111.779, 78.083 110.685, 77.603 107.067 C 76.982 102.381, 76.768 102.054, 74.954 103.025 C 73.283 103.919, 72.830 103.682, 71.991 101.475 C 70.680 98.027, 70.687 98, 73 98 C 74.519 98, 74.996 97.338, 74.985 95.250 C 74.958 90.433, 73.620 89.670, 71.123 93.048 C 69.881 94.727, 67.708 96.541, 66.293 97.079 C 63.085 98.298, 61.440 96.946, 58.050 90.302 C 56.702 87.661, 54.790 84.695, 53.800 83.711 C 52.810 82.727, 52 80.887, 52 79.621 C 52 77.827, 51.127 77.032, 48.035 76.011 C 45.854 75.292, 43.139 73.712, 42.001 72.501 C 40.138 70.518, 40.089 70.171, 41.508 68.993 C 42.418 68.238, 45.180 67.760, 48.042 67.861 C 51.479 67.983, 52.995 67.648, 52.985 66.768 C 52.962 64.927, 51.761 63.451, 49.649 62.670 C 47.998 62.059, 47.873 61.248, 48.485 55.150 C 49.043 49.597, 48.874 48.017, 47.586 46.729 C 45.950 45.093, 45.469 40.265, 46.765 38.500 C 47.580 37.392, 48.272 37.199, 54.492 36.346 C 58.270 35.828, 58.870 36.015, 59.466 37.893 C 60.245 40.346, 62 39.771, 62 37.063 C 62 36.063, 62.675 34.685, 63.500 34 C 64.786 32.933, 65 33.264, 65 36.319 C 65 38.278, 64.550 40.160, 64 40.500 C 63.450 40.840, 63 42.243, 63 43.618 C 63 44.993, 63.430 45.852, 63.956 45.527 C 64.482 45.202, 65.627 46.028, 66.502 47.362 C 68.252 50.033, 67.733 54.147, 65.402 56.081 C 64.631 56.721, 64 58.135, 64 59.222 C 64 61.706, 57.817 68, 55.377 68 C 53.786 68, 53.837 68.198, 55.779 69.558 C 57.003 70.415, 58.451 70.839, 58.997 70.502 C 60.322 69.683, 65 74.814, 65 77.087 C 65 78.074, 65.500 79.191, 66.112 79.569 C 67.479 80.414, 68.964 78.239, 68.985 75.361 C 68.993 74.184, 69.845 72.178, 70.878 70.902 C 72.278 69.173, 72.495 68.165, 71.732 66.942 C 71.168 66.040, 71.013 64.083, 71.387 62.594 C 71.905 60.532, 72.590 59.959, 74.259 60.193 C 76.352 60.486, 76.526 59.900, 78.103 47.254 C 79.011 39.968, 80.308 32.672, 80.984 31.039 C 82.545 27.271, 80.645 25, 75.932 25 L 72.721 25 73.307 20.054 C 73.629 17.333, 74.582 13.774, 75.425 12.145 L 76.957 9.183 81.655 10.597 C 84.238 11.374, 87.961 12.975, 89.926 14.155 C 94.459 16.875, 100.008 17.134, 107 14.951 C 110.025 14.007, 114.254 12.924, 116.397 12.544 L 120.295 11.854 119.671 17.177 C 119.328 20.105, 118.846 23.400, 118.600 24.500 C 118.354 25.600, 118.119 26.789, 118.077 27.143 C 117.917 28.482, 114.775 28.950, 112.852 27.921 C 110.977 26.918, 110.934 26.998, 112.174 29.174 C 113.107 30.811, 113.500 35.795, 113.500 46 L 113.500 60.500 116.202 60.812 C 119.375 61.178, 120.637 64.007, 118.881 66.818 C 117.868 68.441, 118.026 69.217, 119.834 71.516 C 121.025 73.030, 122 75.267, 122 76.486 C 122 77.704, 122.496 80.125, 123.103 81.865 L 124.206 85.029 127.988 81.131 C 130.912 78.119, 132.338 77.342, 134.268 77.711 C 135.642 77.974, 137.070 77.696, 137.442 77.094 C 138.522 75.346, 149.669 75.696, 150.362 77.500 C 150.712 78.414, 150.363 79, 149.469 79 C 148.661 79, 148 79.450, 148 80 C 148 80.550, 148.900 81, 150 81 C 154.051 81, 151.825 83.025, 145.892 84.737 C 141.411 86.030, 139.553 87.099, 138.917 88.750 C 138.440 89.987, 137.658 91, 137.180 91 C 136.702 91, 133.783 93.212, 130.693 95.916 C 126.645 99.459, 124.501 100.682, 123.022 100.295 C 121.893 100, 120.724 99.363, 120.425 98.879 C 119.505 97.389, 118.166 97.902, 117.500 99.999 C 117.007 101.555, 116.472 101.788, 115.090 101.048 C 113.558 100.228, 113.169 100.734, 112.253 104.736 C 111.265 109.055, 111.488 110.172, 115.491 120.937 C 117.856 127.297, 120.596 135.093, 121.582 138.263 L 123.373 144.025 157.937 143.763 L 192.500 143.500 192.757 71.750 L 193.013 0 96.507 0 L 0 0 0 72 M 0.474 72.500 C 0.474 112.100, 0.598 128.154, 0.750 108.176 C 0.901 88.198, 0.901 55.798, 0.750 36.176 C 0.598 16.554, 0.474 32.900, 0.474 72.500 M 140.015 40.800 C 139.999 44.405, 138.026 48.904, 135.566 50.945 C 134.705 51.660, 134 53.090, 134 54.122 C 134 55.189, 133.298 56, 132.375 56 C 131.055 56, 130.890 56.610, 131.497 59.250 C 131.907 61.038, 132.526 64.158, 132.872 66.183 C 133.644 70.713, 137.419 75.305, 139.791 74.602 C 140.731 74.323, 142.722 73.804, 144.215 73.448 C 146.378 72.932, 147.345 71.693, 148.965 67.363 C 152.067 59.073, 151.274 53.720, 146.481 50.580 C 145.228 49.759, 143.784 47.261, 143.147 44.816 C 141.511 38.532, 140.035 36.639, 140.015 40.800 M 113.751 93.524 C 113.211 96.345, 114.065 97.296, 116.350 96.419 C 117.584 95.946, 117.668 95.364, 116.780 93.416 C 115.366 90.314, 114.357 90.350, 113.751 93.524" stroke="none" fill="black" fill-rule="evenodd"/>
</svg>