<svg xmlns="http://www.w3.org/2000/svg" width="192" height="144" viewBox="0 0 192 144" version="1.1">
	<path d="M 0 72 L 0 144 33 144 L 66 144 66 141.465 C 66 139.268, 65.742 139.068, 64.066 139.965 C 60.893 141.663, 57.334 141.152, 54.249 138.556 C 52.040 136.698, 50.801 134.130, 49.077 127.840 C 47.830 123.290, 45.461 116.894, 43.812 113.627 C 40.920 107.898, 40.681 105.546, 42.512 100.814 C 42.992 99.574, 42.064 98.434, 38.997 96.498 C 36.231 94.752, 34.186 92.415, 32.920 89.552 C 31.870 87.179, 29.890 84.503, 28.520 83.605 C 26.907 82.548, 26.112 81.185, 26.264 79.740 C 26.434 78.134, 25.906 77.421, 24.387 77.202 C 21.741 76.820, 19.656 72.744, 21.277 71.123 C 21.895 70.505, 22.985 70, 23.700 70 C 24.513 70, 25 68.719, 25 66.577 C 25 62.637, 20.879 57, 18 57 C 16.803 57, 16.292 56.399, 16.512 55.250 C 16.696 54.288, 16.881 53.163, 16.923 52.750 C 16.966 52.337, 17.675 52, 18.500 52 C 20.503 52, 20.489 46.676, 18.477 43.606 C 16.886 41.178, 17.388 38, 19.362 38 C 19.994 38, 21.003 36.428, 21.604 34.507 C 22.454 31.792, 22.399 30.586, 21.357 29.099 C 20.619 28.046, 19.882 26.355, 19.718 25.342 C 19.555 24.329, 18.947 22.669, 18.367 21.654 C 17.727 20.534, 17.501 15.918, 17.790 9.904 L 18.267 0 9.134 0 L 0 0 0 72 M 52 2.309 C 52 5.271, 53.575 7.151, 58.307 9.838 C 62.337 12.126, 68 12.747, 68 10.901 C 68 10.297, 69.398 8.497, 71.106 6.901 C 72.892 5.233, 73.636 3.970, 72.856 3.930 C 70.773 3.822, 75.196 2.150, 77.775 2.070 C 79.889 2.005, 80.038 2.381, 79.876 7.354 C 79.780 10.298, 80.081 13.323, 80.546 14.075 C 81.011 14.827, 81.332 16.806, 81.259 18.471 L 81.126 21.500 82.554 18.278 C 84.176 14.620, 87 14.734, 87 18.458 C 87 19.692, 87.509 22.161, 88.131 23.946 C 88.987 26.402, 88.955 28.927, 88 34.345 C 86.057 45.358, 85.986 47.219, 87.534 46.625 C 88.417 46.286, 88.984 47.033, 89.189 48.805 C 89.473 51.265, 89.973 51.558, 94.921 52.162 C 99.621 52.735, 100.994 52.471, 105.243 50.176 C 109.606 47.820, 110.069 47.254, 109.464 45.015 C 109.091 43.632, 108.571 39.965, 108.310 36.866 C 107.906 32.082, 107.318 30.732, 104.417 27.920 C 102.201 25.771, 101 23.665, 101 21.926 C 101 19.202, 103.143 16.476, 104.342 17.675 C 104.997 18.330, 105.450 15.088, 105.170 11.750 C 104.927 8.845, 106.426 9.718, 112.348 15.926 C 116.707 20.496, 118 22.555, 118 24.926 C 118 26.992, 118.492 28, 119.500 28 C 120.550 28, 121 26.941, 121 24.465 C 121 22.520, 121.716 19.836, 122.592 18.500 C 123.547 17.043, 124.405 12.852, 124.735 8.035 L 125.286 0 107.843 0 C 95.610 0, 90.042 0.358, 89.200 1.200 C 88.267 2.133, 87.733 2.133, 86.800 1.200 C 85.962 0.362, 80.533 -0, 68.800 -0 L 52 0 52 2.309 M 163.440 1.705 C 163.800 2.642, 164.332 5.455, 164.622 7.955 C 164.913 10.455, 165.311 13.794, 165.507 15.375 C 165.704 16.956, 166.982 19.431, 168.347 20.875 C 169.713 22.319, 170.981 24.530, 171.165 25.790 C 171.349 27.049, 171.846 28.052, 172.270 28.019 C 173.749 27.902, 175.793 30.509, 175 31.500 C 174.560 32.050, 174.038 36.550, 173.841 41.500 C 173.435 51.668, 170.861 58.729, 167.750 58.206 C 166.787 58.045, 165.972 58.270, 165.937 58.706 C 165.903 59.143, 165.704 62.200, 165.496 65.500 C 165.101 71.755, 163.991 73.412, 156.985 78.198 L 154.500 79.895 157.095 79.948 C 160.697 80.020, 163.723 83.424, 162.016 85.481 C 161.322 86.317, 160.248 87.010, 159.628 87.022 C 159.007 87.034, 157.150 89.070, 155.500 91.547 C 153.656 94.314, 151.034 96.702, 148.696 97.741 C 145.344 99.232, 144.974 99.734, 145.587 101.966 C 146.644 105.820, 146.258 108.327, 143.545 115.201 C 142.179 118.666, 140.151 125.735, 139.039 130.911 C 137.928 136.087, 136.269 141.150, 135.354 142.161 C 133.742 143.942, 134.605 144, 162.845 144 L 192 144 192 72 L 192 0 177.393 0 C 164.040 0, 162.842 0.146, 163.440 1.705 M 22.628 9.260 C 21.322 14.132, 22.054 21.065, 24.445 26.471 C 26.982 32.208, 28.453 33.299, 29.444 30.176 C 29.762 29.173, 30.931 27.378, 32.042 26.186 C 33.249 24.890, 34.110 22.509, 34.185 20.260 C 34.254 18.192, 34.721 16.229, 35.224 15.898 C 35.727 15.567, 35.995 13.610, 35.819 11.548 L 35.500 7.800 32.842 9.900 C 29.373 12.641, 27.578 12.550, 25.187 9.510 L 23.228 7.020 22.628 9.260 M 119.438 80.326 C 118.489 82.766, 121.042 113.092, 122.140 112.413 C 122.613 112.121, 123.005 109.771, 123.012 107.191 C 123.018 104.611, 123.608 100.250, 124.323 97.500 C 125.545 92.800, 125.458 92.080, 122.886 85.500 C 120.814 80.200, 119.977 78.943, 119.438 80.326 M 69.564 84.800 C 68.859 87.021, 64.873 88.412, 61.910 87.471 C 58.702 86.453, 58.388 89.805, 61.215 94.904 C 62.616 97.432, 64.073 102.088, 64.453 105.250 C 65.020 109.969, 65.481 111, 67.027 111 C 69.159 111, 69.395 110.003, 70.938 94.516 C 71.499 88.884, 71.554 84.154, 71.065 83.665 C 70.576 83.176, 69.922 83.671, 69.564 84.800" stroke="none" fill="black" fill-rule="evenodd"/>
</svg>