<svg xmlns="http://www.w3.org/2000/svg" width="192" height="144" viewBox="0 0 192 144" version="1.1">
	<path d="M 190.693 17.653 C 190.353 21.969, 189.075 29.100, 187.853 33.500 C 185.956 40.329, 185.658 43.696, 185.815 56.500 C 185.916 64.750, 185.999 71.740, 185.999 72.034 C 186 72.328, 187.350 73.366, 189 74.341 C 191.853 76.026, 192 76.438, 192 82.731 L 192 89.349 189.686 87.174 C 188.413 85.978, 186.913 85, 186.353 85 C 185.793 85, 184.840 87.363, 184.237 90.250 C 183.633 93.138, 182.350 97.975, 181.385 101 C 178.886 108.835, 179.036 113.962, 181.870 117.551 C 184.193 120.492, 184.194 120.501, 182.100 120.820 C 179.367 121.236, 179.437 121.759, 182.944 127.054 C 188.137 134.895, 188.744 135.458, 190.469 134.026 C 191.796 132.925, 192 133.238, 192 136.378 C 192 139.857, 191.861 140, 188.468 140 C 186.525 140, 183.306 140.681, 181.314 141.513 C 176.119 143.684, 176.163 142.689, 181.410 139.363 C 183.894 137.788, 185.943 136.166, 185.963 135.759 C 185.984 135.351, 184.734 133.776, 183.187 132.259 C 181.640 130.741, 179.339 127.789, 178.073 125.697 C 176.807 123.606, 175.607 122.059, 175.406 122.260 C 175.205 122.461, 173.663 125.968, 171.978 130.053 C 170.294 134.138, 168.221 138.540, 167.373 139.835 L 165.830 142.189 163.419 139.924 C 160.683 137.354, 160.430 137.440, 159.467 141.277 L 158.771 144.049 175.635 143.775 L 192.500 143.500 192.757 78.174 C 192.899 42.245, 192.631 12.164, 192.163 11.327 C 191.608 10.335, 191.096 12.539, 190.693 17.653 M 1 79 L 1 144 74 144 C 114.150 144, 147 143.628, 147 143.174 C 147 142.720, 145.900 141.316, 144.556 140.053 C 140.967 136.681, 139 131.835, 139 126.367 L 139 121.536 141.536 125.268 C 142.931 127.321, 144.506 129, 145.036 129 C 146.284 129, 146.271 128.892, 144.500 124.654 C 141.910 118.454, 142.651 117.115, 146.233 121.522 C 148.011 123.710, 151.313 127.480, 153.571 129.899 C 157.052 133.631, 158.078 134.197, 160.332 133.632 C 166.384 132.113, 168.112 116.268, 163.480 104.761 C 159.983 96.074, 152.155 85.846, 144.934 80.530 C 135.883 73.868, 128.148 72.357, 119.927 75.646 C 115.923 77.248, 115.591 77.217, 107.426 74.504 C 97.888 71.335, 93.202 71.438, 82.321 75.060 C 76.296 77.064, 75.719 77.092, 71.303 75.588 C 63.355 72.880, 56.007 74.103, 47.840 79.494 C 44.853 81.465, 44.077 81.642, 43.621 80.455 C 42.855 78.459, 41.234 78.625, 40.739 80.750 C 40.461 81.943, 39.990 81.387, 39.256 79 C 38.455 76.394, 38.157 76.075, 38.090 77.750 C 38.041 78.987, 37.520 80, 36.933 80 C 36.298 80, 36.131 80.913, 36.520 82.250 C 36.993 83.877, 36.052 83.253, 33.125 80 C 30.898 77.525, 28.803 74.713, 28.471 73.750 C 28.138 72.787, 27.530 72, 27.121 72 C 26.712 72, 25.345 71.038, 24.083 69.862 C 22.209 68.117, 21.627 67.979, 20.909 69.112 C 20.426 69.876, 20.024 71.063, 20.015 71.750 C 20.007 72.438, 19.592 73, 19.094 73 C 18.595 73, 17.889 70.638, 17.525 67.750 C 16.348 58.433, 14.084 53.498, 12.708 57.250 C 11.687 60.035, 9.934 56.100, 9.334 49.679 C 8.694 42.815, 8.258 42.256, 4.934 44.035 C 2.427 45.377, 2.496 44.319, 5.195 40 C 6.399 38.075, 8.784 33.921, 10.496 30.768 L 13.610 25.036 8.475 19.518 C 5.650 16.483, 2.813 14, 2.170 14 C 1.289 14, 1 30.046, 1 79 M 62 89.059 C 62 89.641, 62.450 89.840, 63 89.500 C 63.550 89.160, 64 88.684, 64 88.441 C 64 88.198, 63.550 88, 63 88 C 62.450 88, 62 88.477, 62 89.059 M 29.123 96.924 C 28.397 97.373, 27.980 98.586, 28.195 99.620 C 28.551 101.325, 28.708 101.282, 29.875 99.164 C 31.331 96.522, 31.063 95.725, 29.123 96.924 M 54 103.653 C 54 104.196, 51.525 108.402, 48.500 113 C 45.475 117.598, 43 121.995, 43 122.772 C 43 123.549, 43.888 125.314, 44.974 126.694 C 46.059 128.074, 47.234 130.732, 47.585 132.601 C 48.330 136.571, 49.461 136.861, 52.056 133.750 C 54.556 130.754, 54.517 129.222, 52 131.500 C 49.738 133.547, 49.580 133.235, 50.994 129.516 C 51.540 128.079, 52.386 124.362, 52.873 121.256 C 53.779 115.481, 53.754 115.476, 50.264 120.663 C 49.187 122.266, 49.106 122.117, 49.636 119.500 C 49.971 117.850, 51.357 113.656, 52.719 110.180 C 54.080 106.704, 54.925 103.591, 54.597 103.263 C 54.268 102.935, 54 103.111, 54 103.653" stroke="none" fill="black" fill-rule="evenodd"/>
</svg>