<svg xmlns="http://www.w3.org/2000/svg" width="192" height="144" viewBox="0 0 192 144" version="1.1">
	<path d="M 114.095 3.402 C 109.923 7.707, 109.136 14.422, 112.197 19.610 C 114.223 23.043, 113.948 25, 111.442 25 C 110.292 25, 110.110 26.172, 110.540 30.824 C 111.366 39.754, 112.329 42.455, 114.817 42.820 C 116.018 42.995, 117 43.769, 117 44.538 C 117 45.371, 117.607 45.704, 118.500 45.362 C 119.637 44.926, 120 45.545, 120 47.917 C 120 50.522, 118.488 52.570, 111 60.108 C 102.431 68.735, 100.683 71.394, 103.060 72.187 C 103.703 72.401, 103.116 74.699, 101.570 78.020 C 98.633 84.331, 98.333 89.926, 100.500 98 C 101.312 101.025, 101.982 105.152, 101.988 107.170 L 102 110.841 95.360 111.552 C 86.877 112.460, 76.031 111.460, 74.168 109.597 C 71.891 107.320, 70.856 98.506, 72.494 95.348 C 73.250 93.891, 74.371 92.389, 74.984 92.010 C 75.598 91.630, 76.117 90.461, 76.137 89.410 C 76.172 87.598, 73.865 80.532, 72.935 79.601 C 71.997 78.664, 62.546 81.101, 60.711 82.752 C 58.273 84.948, 57.246 87.632, 55.466 96.470 C 54.687 100.337, 53.149 106.802, 52.049 110.839 C 49.609 119.794, 50.136 128.473, 53.498 134.659 C 54.890 137.222, 55.567 139.812, 55.262 141.409 L 54.767 144 68.750 144 L 82.732 144 81.310 137.844 C 79.356 129.386, 80.552 128.819, 95 131.358 C 102.103 132.606, 102.033 132.497, 100.747 140.250 L 100.126 144 124.598 144 C 147.596 144, 149.014 143.895, 148.132 142.250 C 147.617 141.287, 145.126 137.146, 142.597 133.046 C 140.069 128.946, 138 124.839, 138 123.918 C 138 122.997, 137.370 120.727, 136.601 118.872 C 135.281 115.692, 134.597 108.671, 134.876 101.156 C 134.965 98.750, 135.544 97.670, 136.941 97.305 C 138.634 96.862, 138.808 96.175, 138.304 91.920 C 137.833 87.944, 138.034 86.924, 139.393 86.403 C 140.310 86.051, 141.704 84.579, 142.490 83.131 C 143.703 80.899, 143.926 80.799, 143.960 82.473 C 143.999 84.379, 144.049 84.374, 145.474 82.340 C 146.774 80.485, 146.771 79.303, 145.453 72.368 C 144.630 68.040, 143.719 63.739, 143.429 62.808 C 143.044 61.572, 143.454 61.158, 144.951 61.271 C 146.078 61.356, 147 61.788, 147 62.232 C 147 62.675, 148.076 62.768, 149.391 62.438 C 150.706 62.108, 152.082 62.324, 152.450 62.919 C 153.538 64.680, 155 64.153, 155 62 C 155 59.843, 156.025 59.425, 157.558 60.958 C 158.153 61.553, 159.083 61.564, 160.008 60.989 C 161.237 60.225, 161.280 59.705, 160.250 58.044 C 158.391 55.045, 158.733 54.449, 161.090 56.581 L 163.179 58.472 162.454 54.486 C 162.056 52.294, 160.890 48.830, 159.865 46.790 C 157.509 42.102, 157.529 40.665, 160.057 33.407 C 163.831 22.570, 162.037 9.728, 155.857 3.353 L 152.608 -0 135 -0 L 117.392 0 114.095 3.402" stroke="none" fill="black" fill-rule="evenodd"/>
</svg>