<svg xmlns="http://www.w3.org/2000/svg" width="192" height="144" viewBox="0 0 192 144" version="1.1">
	<path d="M 102.741 6.376 C 100.673 7.143, 98.423 8.227, 97.741 8.784 C 95.782 10.384, 87.871 10.563, 83.639 9.103 C 81.120 8.234, 78.002 8.007, 74.664 8.450 C 68.990 9.203, 67 10.381, 67 12.989 C 67 15.642, 71.079 25.303, 72.916 27 C 75.365 29.263, 77.122 35.904, 75.883 38.218 C 74.290 41.195, 73.742 44.044, 73.616 50 C 73.535 53.846, 72.627 57.304, 70.598 61.500 C 66.358 70.265, 65.026 76.332, 65.002 87 C 64.984 94.866, 64.573 97.375, 62.611 101.589 C 60.910 105.242, 60.510 107.160, 61.194 108.382 C 61.808 109.479, 61.763 111.878, 61.068 115.121 C 60.423 118.127, 60.345 120.793, 60.873 121.738 C 61.428 122.730, 61.198 125.294, 60.257 128.603 C 58.632 134.314, 59.101 138.441, 61.479 139.353 C 62.500 139.745, 64.203 138.116, 66.849 134.214 C 76.350 120.202, 79.780 109.221, 80.817 89.500 C 81.225 81.732, 81.902 76.577, 82.500 76.691 C 84.118 77, 84.794 80.912, 84.900 90.578 C 84.983 98.103, 84.573 100.707, 82.500 105.808 C 81.125 109.192, 79.998 112.757, 79.995 113.730 C 79.992 114.704, 77.520 121.575, 74.500 129 C 71.480 136.425, 69.008 142.838, 69.005 143.250 C 69.002 143.662, 82.530 144, 99.067 144 C 127.246 144, 129.100 143.890, 128.584 142.250 C 124.058 127.856, 123.121 123.643, 124.056 121.895 C 124.614 120.853, 125.505 120, 126.035 120 C 126.566 120, 127 118.085, 127 115.743 C 127 113.402, 127.448 109.925, 127.996 108.016 C 128.876 104.945, 128.449 103.216, 124.291 93.022 C 120.546 83.842, 119.599 80.349, 119.635 75.838 C 119.675 70.849, 119.401 70.048, 117.340 69.109 C 115.378 68.215, 115 67.296, 115 63.421 C 115 59.411, 114.509 58.318, 111.286 55.150 C 109.243 53.142, 107.692 51.091, 107.839 50.592 C 107.985 50.092, 107.556 49.344, 106.884 48.928 C 104.885 47.693, 109.003 34.616, 111.535 34.160 C 114.989 33.538, 115.502 32.173, 113.379 29.257 C 109.633 24.113, 109.598 23.872, 112.627 24.198 C 115.034 24.457, 115.532 24.070, 116.100 21.500 C 117.087 17.038, 117.091 8.693, 116.108 7.141 C 114.870 5.187, 107.139 4.744, 102.741 6.376" stroke="none" fill="black" fill-rule="evenodd"/>
</svg>