<svg xmlns="http://www.w3.org/2000/svg" width="192" height="144" viewBox="0 0 192 144" version="1.1">
	<path d="M 0 72.015 L 0 144.031 28.684 143.765 L 57.368 143.500 61.110 132 C 63.168 125.675, 65.575 118.538, 66.459 116.141 C 68.646 110.206, 69.337 100.573, 67.866 96.505 C 66.797 93.550, 66.968 92.586, 69.462 87.488 C 70.998 84.348, 73.570 80.281, 75.178 78.450 C 78.024 75.209, 78.096 74.860, 77.928 65.105 C 77.783 56.715, 77.450 54.812, 75.878 53.389 C 74.661 52.288, 74 50.336, 74 47.845 C 74 44.071, 73.930 44, 70.250 43.985 C 65.572 43.966, 62.654 42.454, 65.321 41.430 C 66.291 41.058, 67.971 39.121, 69.053 37.127 C 70.135 35.132, 71.538 32.774, 72.169 31.887 C 73.081 30.606, 72.678 28.910, 70.211 23.637 C 68.503 19.987, 67.473 17, 67.922 17 C 68.371 17, 71.006 18.805, 73.776 21.011 C 78.264 24.584, 79.111 24.908, 81.545 23.983 C 83.047 23.412, 89.875 22.661, 96.718 22.314 L 109.160 21.683 114.007 16.602 C 116.673 13.808, 119.158 11.824, 119.529 12.195 C 119.899 12.566, 119.668 16.042, 119.014 19.920 C 118.359 23.798, 117.856 27.275, 117.894 27.646 C 117.933 28.018, 119.435 28.471, 121.232 28.651 C 126.955 29.228, 134.013 31.169, 133.486 32.022 C 133.206 32.475, 131.612 33.146, 129.944 33.512 C 128.275 33.879, 125.751 35.253, 124.333 36.567 C 122.916 37.880, 120.236 39.240, 118.378 39.589 C 114.708 40.277, 114.529 40.630, 115.949 44.365 C 116.470 45.737, 117.608 51.729, 118.478 57.680 C 120.675 72.721, 122.334 77.882, 126.397 82.318 C 129.744 85.972, 133.677 94.885, 133.315 97.996 C 133.219 98.818, 133.982 100.852, 135.010 102.516 C 138.038 107.416, 144.005 121.995, 143.941 124.339 C 143.885 126.392, 143.823 126.407, 142.691 124.631 C 142.036 123.604, 140.710 121.804, 139.745 120.631 C 138.004 118.518, 137.997 118.523, 138.995 121.317 C 139.549 122.867, 140.467 125.004, 141.036 126.067 C 141.749 127.399, 141.748 128, 141.035 128 C 140.466 128, 140 127.523, 140 126.941 C 140 126.359, 139.549 126.161, 138.998 126.501 C 138.427 126.854, 138.260 128.777, 138.611 130.968 C 139.145 134.307, 138.980 134.795, 137.363 134.658 C 136.101 134.551, 135.595 135.064, 135.794 136.250 C 135.955 137.213, 135.492 138, 134.763 138 C 134.035 138, 132.926 139.356, 132.301 141.014 L 131.163 144.029 161.831 143.764 L 192.500 143.500 192.757 71.750 L 193.013 0 96.507 0 L 0 0 0 72.015 M 0.474 72.500 C 0.474 112.100, 0.598 128.154, 0.750 108.176 C 0.901 88.198, 0.901 55.798, 0.750 36.176 C 0.598 16.554, 0.474 32.900, 0.474 72.500 M 84.079 70.583 C 84.127 71.748, 84.364 71.985, 84.683 71.188 C 84.972 70.466, 84.936 69.603, 84.604 69.271 C 84.272 68.939, 84.036 69.529, 84.079 70.583 M 78.750 111 C 77.542 114.474, 76 120.850, 76 122.366 C 76 123.515, 76.891 124, 79 124 C 80.650 124, 81.972 123.662, 81.938 123.250 C 81.613 119.292, 79.153 109.840, 78.750 111 M 68.333 140.008 L 66.166 144 70.583 144 C 73.012 144, 75 143.586, 75 143.081 C 75 141.907, 71.663 136.012, 71 136.015 C 70.725 136.016, 69.525 137.813, 68.333 140.008" stroke="none" fill="black" fill-rule="evenodd"/>
</svg>