<svg xmlns="http://www.w3.org/2000/svg" width="192" height="144" viewBox="0 0 192 144" version="1.1">
	<path d="M 0 72 L 0 144 37 144 C 73.101 144, 74 143.952, 74 142.037 C 74 140.957, 74.948 137.695, 76.107 134.787 C 77.265 131.879, 78.428 128.150, 78.690 126.500 C 79.953 118.542, 82.102 109.815, 83.954 105.117 C 86.678 98.207, 86.568 95.235, 83.500 92.821 C 79.391 89.589, 80.265 83.697, 85.724 77.839 L 88.203 75.178 84.102 71.473 C 79.649 67.450, 79.026 64.836, 81.633 61.114 C 82.964 59.213, 83.020 58.630, 81.935 57.960 C 80.978 57.368, 81.372 56.945, 83.339 56.451 C 86.032 55.775, 86.063 55.678, 85.407 49.882 C 84.734 43.934, 85.531 42.525, 87.932 45.418 C 88.934 46.625, 89.614 46.514, 92.512 44.668 L 95.915 42.500 95.958 21.250 L 96 0 48 0 L 0 0 0 72 M 99.250 42.263 L 96 43.289 96 58.445 C 96 69.184, 96.364 73.993, 97.250 74.947 C 98.262 76.038, 98.214 76.195, 97 75.774 C 95.682 75.317, 95.533 79.429, 95.775 109.627 L 96.051 144 107.932 144 C 118.811 144, 119.774 143.851, 119.349 142.228 C 119.075 141.177, 119.927 139.478, 121.443 138.054 C 124.435 135.242, 124.687 132.415, 122.250 128.973 C 118.167 123.204, 115.575 112.301, 117.622 109.503 C 118.816 107.869, 119.150 107.894, 123.356 109.930 C 125.812 111.119, 128.072 112.746, 128.379 113.546 C 129.030 115.241, 132.575 115.496, 133.550 113.919 C 133.918 113.324, 135.267 113.101, 136.548 113.423 C 141.232 114.598, 140.400 112.298, 133.295 104.439 C 131.616 102.581, 130.067 101.996, 126.795 101.985 C 124.433 101.976, 121.990 101.639, 121.366 101.235 C 119.961 100.325, 116.773 88.176, 117.591 86.852 C 119.182 84.278, 116.935 81.202, 112.509 79.895 C 109.424 78.984, 108 78.019, 108 76.841 C 108 74.229, 109.901 73.601, 112.016 75.514 C 113.804 77.133, 114.149 77.106, 118.449 75.025 C 123.262 72.695, 127.002 68.796, 126.996 66.115 C 126.994 65.227, 126.094 63.027, 124.996 61.226 C 123.898 59.425, 123 57.288, 123 56.476 C 123 55.664, 122.390 55, 121.644 55 C 120.549 55, 120.481 54.025, 121.288 49.944 C 122.009 46.296, 121.970 44.570, 121.147 43.747 C 120.294 42.894, 119.680 43.056, 118.705 44.389 C 117.461 46.090, 117.248 46.082, 113.951 44.201 C 109.627 41.735, 103.485 40.925, 99.250 42.263 M 120.558 65.540 C 120.076 68.111, 119.464 69.008, 118.454 68.621 C 116.952 68.044, 114.361 71.694, 115.478 72.812 C 116.366 73.699, 123.094 69.886, 124.411 67.750 C 125.176 66.508, 125.180 65.509, 124.423 64.310 C 122.573 61.375, 121.261 61.793, 120.558 65.540 M 81.733 64.600 C 80.468 65.865, 83.089 69.005, 87.130 71.066 C 89.365 72.207, 91.439 72.894, 91.739 72.594 C 92.557 71.777, 89.959 69, 88.378 69 C 87.620 69, 87 68.100, 87 67 C 87 65.900, 86.587 65, 86.082 65 C 85.577 65, 84.541 64.761, 83.780 64.469 C 83.018 64.177, 82.097 64.236, 81.733 64.600 M 83.137 113.328 C 82.414 116.533, 82.025 119.358, 82.273 119.606 C 83.004 120.337, 85.227 111.411, 84.822 109.370 C 84.618 108.341, 83.860 110.122, 83.137 113.328" stroke="none" fill="black" fill-rule="evenodd"/>
</svg>