<svg xmlns="http://www.w3.org/2000/svg" width="192" height="144" viewBox="0 0 192 144" version="1.1">
	<path d="M 75.920 69.074 C 64.629 70.828, 58.454 76.965, 54.363 90.500 C 53.482 93.412, 53.224 93.521, 45.588 94.215 C 36.098 95.078, 26.049 98.255, 23.192 101.295 C 22.041 102.520, 20.790 105.463, 20.410 107.835 C 19.744 112.002, 19.886 112.317, 24.610 117.151 C 27.300 119.902, 32.650 124.232, 36.500 126.773 C 47.358 133.938, 47.970 134.618, 46.906 138.329 C 46.408 140.066, 46 142.052, 46 142.743 C 46 143.736, 56.600 144, 96.371 144 L 146.742 144 145.885 139.414 C 145.229 135.905, 145.360 134.497, 146.443 133.414 C 148.292 131.565, 150.913 131.609, 151.638 133.500 C 152.794 136.512, 155.688 135.105, 157.364 130.717 C 158.264 128.361, 159 125.966, 159 125.394 C 159 124.823, 161.966 121.735, 165.592 118.532 L 172.183 112.709 171.519 108.104 C 171.132 105.427, 169.936 102.561, 168.661 101.256 C 165.627 98.154, 156.526 95.150, 147.811 94.376 C 139.519 93.639, 137 92.673, 137 90.229 C 137 87.009, 131.727 78.116, 128.117 75.247 C 120.818 69.445, 117.186 68.631, 98 68.490 C 88.375 68.420, 78.439 68.682, 75.920 69.074" stroke="none" fill="black" fill-rule="evenodd"/>
</svg>