<svg xmlns="http://www.w3.org/2000/svg" width="192" height="144" viewBox="0 0 192 144" version="1.1">
	<path d="M -0 72.005 L -0 144.010 96.250 143.755 L 192.500 143.500 192.757 71.750 L 193.013 0 96.507 0 L 0 0 -0 72.005 M 0.474 72.500 C 0.474 112.100, 0.598 128.154, 0.750 108.176 C 0.901 88.198, 0.901 55.798, 0.750 36.176 C 0.598 16.554, 0.474 32.900, 0.474 72.500 M 85 33.126 C 85 33.708, 84.129 35.291, 83.066 36.644 C 75.796 45.886, 83.524 85.766, 96.206 104.454 C 98.463 107.779, 100.802 110.827, 101.404 111.227 C 102.732 112.108, 104.871 111.536, 111.750 108.459 C 116.916 106.148, 117 106.041, 116.974 101.805 C 116.940 96.113, 111.622 73.490, 109.862 71.550 C 109.388 71.027, 109 69.972, 109 69.206 C 109 67.228, 96.651 42.035, 94.122 38.854 C 91.667 35.766, 85 31.579, 85 33.126" stroke="none" fill="black" fill-rule="evenodd"/>
</svg>