<svg xmlns="http://www.w3.org/2000/svg" width="192" height="144" viewBox="0 0 192 144" version="1.1">
	<path d="M 0 72.013 L 0 144.025 35.648 143.763 L 71.296 143.500 73.083 138.018 C 74.066 135.003, 74.706 132.372, 74.505 132.172 C 74.305 131.972, 72.122 132.239, 69.655 132.765 C 64.134 133.942, 61.477 132.742, 64.500 130.437 C 65.600 129.598, 68.975 128.221, 72 127.377 C 75.025 126.532, 78.403 124.854, 79.507 123.648 C 83.352 119.444, 86.348 118, 91.223 118 L 96 118 96 131 L 96 144 108.035 144 C 119.173 144, 120.003 143.869, 119.172 142.250 C 118.678 141.287, 117.986 138.610, 117.633 136.299 L 116.992 132.099 120.464 133.549 C 126.939 136.255, 132.550 134.717, 127.728 131.558 C 126.444 130.716, 122.767 129.124, 119.556 128.019 C 116.346 126.915, 111.870 124.499, 109.610 122.652 C 106.844 120.391, 103.947 119.061, 100.750 118.585 L 96 117.877 96 58.939 L 96 0 48 0 L 0 0 0 72.013" stroke="none" fill="black" fill-rule="evenodd"/>
</svg>