<svg xmlns="http://www.w3.org/2000/svg" width="192" height="144" viewBox="0 0 192 144" version="1.1">
	<path d="M 113.242 8.034 C 109.790 9.421, 108.410 13.339, 109.689 18.128 C 110.744 22.081, 110.712 22.157, 107.045 24.472 C 100.120 28.843, 95.354 35.360, 93.705 42.712 C 92.620 47.547, 92.499 49.931, 93.261 51.433 C 93.839 52.570, 94.604 54.175, 94.963 55 C 95.321 55.825, 97.485 57.400, 99.771 58.500 C 104.067 60.567, 104.699 61.826, 103.018 64.967 C 102.221 66.455, 102.884 67.720, 106.520 71.651 C 110.065 75.484, 110.918 77.076, 110.590 79.245 C 110.362 80.755, 110.558 82.227, 111.024 82.515 C 111.491 82.803, 111.822 83.818, 111.760 84.770 C 111.698 85.721, 111.959 88.118, 112.340 90.096 C 112.788 92.421, 112.526 94.895, 111.599 97.096 C 110.376 100, 109.676 100.500, 106.833 100.500 C 103.643 100.500, 103.487 100.677, 103.199 104.624 C 102.992 107.452, 102.121 109.477, 100.428 111.068 L 97.958 113.388 88.405 108.582 C 83.150 105.938, 78.693 103.263, 78.500 102.638 C 78.307 102.012, 77.858 99.330, 77.503 96.678 C 76.648 90.308, 74.028 87.659, 69.152 88.236 C 66.606 88.537, 65.131 88.188, 64.282 87.084 C 63.208 85.687, 63.060 85.749, 63.032 87.605 C 63.009 89.109, 62.075 89.976, 59.763 90.639 C 55.458 91.874, 53.819 95.231, 54.362 101.705 C 55.046 109.853, 60.876 116, 67.919 116 C 69.788 116, 69.871 116.507, 69.355 124.750 C 69.053 129.563, 68.403 135.075, 67.909 137 C 65.942 144.669, 61.633 144, 113.026 144 L 159.051 144 157.526 141.050 C 156.687 139.427, 156 136.327, 156 134.161 C 156 130.454, 156.205 130.184, 159.488 129.568 C 162.814 128.944, 165.936 125.603, 164.518 124.184 C 164.163 123.830, 161.255 124.493, 158.056 125.659 L 152.238 127.777 150.960 120.139 C 150.257 115.937, 149.593 111.825, 149.484 111 C 149.374 110.175, 148.970 107.250, 148.584 104.500 C 147.934 99.863, 147.996 99.641, 149.442 101.441 C 150.299 102.509, 151 103.746, 151 104.191 C 151 104.636, 151.439 105, 151.976 105 C 152.563 105, 152.764 102.187, 152.481 97.944 C 152.179 93.407, 152.366 91.108, 153.006 91.503 C 153.552 91.841, 154 92.793, 154 93.618 C 154 94.443, 154.417 94.860, 154.926 94.546 C 155.495 94.194, 155.495 92.725, 154.926 90.743 C 154.417 88.967, 154.023 86.385, 154.052 85.007 C 154.090 83.173, 154.646 83.910, 156.122 87.750 C 158.324 93.479, 160.429 94.983, 158.930 89.757 C 157.483 84.712, 157.807 84.261, 160.550 87.500 L 163.090 90.500 162.592 87.500 C 162.318 85.850, 161.807 78.650, 161.457 71.500 C 160.740 56.852, 158.911 46.319, 155.555 37.500 C 154.299 34.200, 152.773 29.692, 152.165 27.481 C 151.504 25.081, 149.430 21.873, 147.014 19.514 C 143.128 15.719, 142.703 15.562, 136.179 15.502 C 130.472 15.449, 128.998 15.066, 126.944 13.099 C 123.603 9.901, 118.813 6.995, 117 7.067 C 116.175 7.100, 114.484 7.535, 113.242 8.034 M 120.030 79.450 C 120.008 81.601, 120.299 82.101, 121.104 81.296 C 121.895 80.505, 121.903 79.670, 121.134 78.346 C 120.193 76.728, 120.057 76.864, 120.030 79.450" stroke="none" fill="black" fill-rule="evenodd"/>
</svg>