<svg xmlns="http://www.w3.org/2000/svg" width="192" height="144" viewBox="0 0 192 144" version="1.1">
	<path d="M 13.024 5.750 C 13.038 8.912, 13.491 13.415, 14.031 15.756 C 15.880 23.772, 15.680 35.118, 13.608 39.737 C 12.057 43.196, 11.946 44.230, 12.991 45.489 C 13.898 46.582, 14.626 46.726, 15.516 45.987 C 16.417 45.239, 16.939 45.398, 17.383 46.556 C 18.622 49.785, 17.911 50.946, 13.500 52.897 C 11.025 53.992, 9 55.305, 9 55.816 C 9 56.327, 10.800 57.032, 13 57.384 C 15.200 57.736, 17 58.468, 17 59.012 C 17 59.555, 17.822 60, 18.826 60 C 19.830 60, 21.708 61.125, 23 62.500 C 27.437 67.223, 29.322 65.324, 30.220 55.229 C 30.282 54.529, 31.833 53.030, 33.667 51.897 C 35.500 50.764, 37 49.472, 37 49.025 C 37 47.830, 34.228 46.975, 32.500 47.638 C 30.590 48.372, 30.527 45.835, 32.366 42.200 C 34.486 38.011, 35.225 32.289, 33.954 29.914 C 33.094 28.308, 32.119 27.902, 29.898 28.228 C 27.327 28.606, 27.048 28.406, 27.586 26.579 C 27.923 25.435, 29.512 22.925, 31.118 21 C 44.031 5.520, 44.434 4.320, 37.320 2.544 C 35.020 1.970, 32.808 1.163, 32.403 0.750 C 31.998 0.338, 27.467 0, 22.333 0 L 13 0 13.024 5.750 M 96 72 L 96 144 129.422 144 L 162.845 144 163.902 140.750 C 165.139 136.948, 167.057 120.723, 166.352 120.019 C 166.088 119.754, 164.489 120.331, 162.800 121.300 C 161.111 122.269, 159.500 122.833, 159.220 122.553 C 158.940 122.273, 158.497 119.821, 158.236 117.104 C 157.762 112.167, 157.760 112.165, 154.529 112.689 C 152.221 113.064, 151.131 112.785, 150.721 111.715 C 149.758 109.207, 152.976 103.638, 157.100 100.673 C 161.021 97.855, 161.693 95.945, 161.118 89.252 C 160.970 87.524, 161.802 86.624, 164.712 85.363 C 166.796 84.461, 169.470 83.282, 170.655 82.743 C 171.840 82.205, 173.241 82.031, 173.770 82.358 C 175.543 83.454, 175.950 91.196, 174.392 94.208 C 172.993 96.914, 173.077 97.228, 176.213 101.005 C 178.021 103.182, 180.231 104.972, 181.125 104.982 C 182.815 105.001, 184.522 109.810, 184.143 113.489 C 184.031 114.583, 182.302 117.155, 180.301 119.204 L 176.663 122.929 179.344 131.715 C 180.819 136.547, 182.020 141.287, 182.013 142.250 C 182.002 143.685, 182.900 144, 187 144 L 192 144 192 72 L 192 0 144 0 L 96 0 96 72 M 178.500 108 C 178.840 108.550, 179.316 109, 179.559 109 C 179.802 109, 180 108.550, 180 108 C 180 107.450, 179.523 107, 178.941 107 C 178.359 107, 178.160 107.450, 178.500 108" stroke="none" fill="black" fill-rule="evenodd"/>
</svg>