<svg xmlns="http://www.w3.org/2000/svg" width="192" height="144" viewBox="0 0 192 144" version="1.1">
	<path d="M 0 72 L 0 144 17.250 143.999 L 34.500 143.997 38.381 133.806 C 42.226 123.710, 42.265 123.468, 42.488 108.057 C 42.663 96.050, 43.191 90.675, 44.805 84.500 C 45.955 80.100, 47.609 68.686, 48.481 59.137 C 50.115 41.235, 51.043 37.839, 55.645 32.913 C 58.654 29.692, 57.944 27.421, 53.328 25.492 C 50.313 24.233, 50.029 23.814, 50.984 22.030 C 51.653 20.779, 53.113 19.983, 54.785 19.955 C 56.278 19.930, 58.850 19.320, 60.500 18.599 L 63.500 17.289 59.278 15.994 C 51.899 13.732, 48.001 7.993, 55.257 10.074 C 57.033 10.583, 58.562 11, 58.655 11 C 58.747 11, 57.625 8.534, 56.161 5.519 L 53.500 0.038 26.750 0.019 L 0 0 0 72 M 61.507 4.577 C 63.428 7.094, 65 9.569, 65 10.077 C 65 10.584, 65.450 11, 66 11 C 66.550 11, 67 9.679, 67 8.065 C 67 6.451, 67.439 3.976, 67.975 2.565 C 68.948 0.005, 68.939 -0, 63.482 -0 L 58.013 0 61.507 4.577 M 72.621 1.750 C 72.338 2.712, 71.795 5.257, 71.413 7.404 L 70.720 11.307 76.419 8.046 C 85.929 2.605, 84.624 6.824, 74.859 13.090 C 69.806 16.333, 69.376 18, 73.591 18 C 77.221 18, 83 20.672, 83 22.351 C 83 23.150, 81.650 24.275, 80 24.850 C 77.724 25.644, 77 26.511, 77 28.448 C 77 29.852, 77.395 31, 77.878 31 C 78.360 31, 80.835 33.527, 83.378 36.615 C 87.247 41.315, 88 42.913, 88 46.424 C 88 48.730, 87.339 51.491, 86.532 52.559 C 85.566 53.836, 85.063 56.894, 85.063 61.500 C 85.062 68.179, 86.581 82.914, 87.349 83.683 C 87.550 83.883, 88.453 83.763, 89.357 83.417 C 90.511 82.974, 91.005 81.554, 91.015 78.643 C 91.033 73.795, 91.701 72.519, 94.712 71.579 C 98.486 70.402, 101 72.550, 101 76.953 C 101 81.714, 101.808 84, 103.490 84 C 105.250 84, 105.848 80.538, 106.629 65.828 C 107.199 55.078, 107.047 52.618, 105.622 49.616 C 103.661 45.484, 104.236 41.882, 107.539 37.607 C 109.766 34.725, 109.767 34.699, 107.909 30.607 C 105.647 25.627, 105.394 13.021, 107.464 8.500 C 108.777 5.632, 108.841 5.833, 108.919 13.068 C 109 20.602, 111.318 31, 112.917 31 C 113.378 31, 115.371 30.325, 117.346 29.500 C 124.123 26.668, 133.369 28.264, 135.848 32.693 C 136.666 34.155, 137.080 33.917, 138.890 30.943 C 140.893 27.650, 140.907 27.435, 139.199 26 C 138.217 25.175, 136.815 23.713, 136.084 22.750 C 134.270 20.362, 136.269 18, 140.103 18 C 142.990 18, 143.115 17.806, 144.297 11.500 C 144.556 10.118, 144.905 10.624, 145.426 13.138 C 146.102 16.398, 146.494 16.761, 149.203 16.638 C 153.712 16.432, 155.097 19.203, 152.088 22.407 L 149.742 24.903 148.012 22.767 C 146.301 20.654, 146.275 20.678, 145.616 25.065 C 145.249 27.504, 143.919 31.312, 142.659 33.526 C 140.896 36.627, 140.555 38.236, 141.174 40.526 C 141.616 42.162, 142.674 50.925, 143.526 60 C 144.377 69.075, 145.767 79.200, 146.615 82.500 C 148.961 91.631, 150.962 105.723, 150.982 113.250 C 150.995 117.968, 151.376 120.003, 152.250 120.010 C 155.264 120.033, 164.048 125.127, 167.789 129.021 C 170.035 131.358, 172.913 135.676, 174.186 138.618 L 176.500 143.966 184.250 143.983 L 192 144 192 72 L 192 0 132.567 0 C 76.827 0, 73.103 0.109, 72.621 1.750 M 108.667 80.667 C 107.613 81.720, 107.891 87, 109 87 C 109.550 87, 110 85.425, 110 83.500 C 110 79.903, 109.818 79.516, 108.667 80.667 M 82 83.941 C 82 85.623, 82.450 87, 83 87 C 83.550 87, 84 85.902, 84 84.559 C 84 83.216, 83.550 81.840, 83 81.500 C 82.417 81.139, 82 82.156, 82 83.941 M 102 93 C 102 93.550, 102.450 94, 103 94 C 103.550 94, 104 93.550, 104 93 C 104 92.450, 103.550 92, 103 92 C 102.450 92, 102 92.450, 102 93 M 94.511 98.057 C 94.107 99.950, 93.081 102.289, 92.230 103.254 C 90.895 104.767, 90.854 105.771, 91.931 110.581 C 92.617 113.647, 92.974 116.359, 92.725 116.608 C 92.476 116.857, 91.281 114.755, 90.068 111.937 C 87.875 106.838, 87.853 106.822, 85.682 108.626 C 78.922 114.241, 77.019 116.485, 77.563 118.200 C 77.878 119.190, 77.654 120, 77.067 120 C 76.480 120, 76 119.550, 76 119 C 76 118.450, 75.550 118, 75 118 C 73.700 118, 73.695 123.694, 74.995 124.497 C 75.542 124.835, 76.452 125.976, 77.018 127.033 C 77.849 128.587, 77.754 128.843, 76.523 128.371 C 74.540 127.610, 74.593 129.033, 76.844 137 L 78.681 143.500 97.720 143.771 L 116.760 144.042 117.476 135.450 C 118.211 126.623, 117.845 124.755, 115.783 126.817 C 113.257 129.343, 112.960 127.836, 115.411 124.923 C 118.012 121.832, 118.763 118.590, 117.114 117.570 C 116.626 117.269, 115.883 118.030, 115.462 119.261 C 114.766 121.297, 114.660 121.209, 114.288 118.293 C 113.987 115.929, 112.570 113.989, 108.900 110.916 C 106.161 108.623, 103.781 106.916, 103.612 107.123 C 103.443 107.331, 102.258 109.634, 100.978 112.243 C 99.699 114.852, 98.479 116.812, 98.267 116.600 C 98.055 116.388, 98.624 113.660, 99.532 110.537 C 101.042 105.343, 101.047 104.710, 99.591 103.101 C 98.716 102.134, 98 100.676, 98 99.862 C 98 99.048, 97.380 97.534, 96.622 96.498 C 95.335 94.737, 95.196 94.840, 94.511 98.057 M 147 117.441 C 147 118.298, 147.450 119, 148 119 C 148.550 119, 149 118.577, 149 118.059 C 149 117.541, 148.550 116.840, 148 116.500 C 147.450 116.160, 147 116.584, 147 117.441" stroke="none" fill="black" fill-rule="evenodd"/>
</svg>