<svg xmlns="http://www.w3.org/2000/svg" width="192" height="144" viewBox="0 0 192 144" version="1.1">
	<path d="M 8 10.531 C 8 11.374, 7.328 12.321, 6.507 12.636 C 5.497 13.023, 5.208 13.982, 5.615 15.600 C 6.078 17.448, 5.509 18.612, 3.107 20.719 L 0 23.445 -0 46.023 C -0 60.947, 0.368 68.968, 1.087 69.687 C 1.870 70.470, 1.870 70.962, 1.087 71.446 C 0.337 71.910, -0 83.257, -0 108.059 L 0 144 21.425 144 L 42.850 144 40.230 137.927 C 38.779 134.565, 35.020 128.920, 31.805 125.279 C 28.612 121.662, 26 118.392, 26 118.012 C 26 117.632, 27.110 116.815, 28.467 116.197 L 30.935 115.073 28.989 110.786 C 26.579 105.475, 26.481 99.611, 28.648 90.345 C 30.497 82.438, 29.895 79.406, 25.423 74.091 C 22.953 71.155, 23.776 68.802, 27.500 68.150 C 32.187 67.330, 33 60.940, 29.665 51.139 L 27.065 43.500 29.479 39.853 L 31.893 36.205 29.696 35.454 C 25.044 33.863, 24.326 33.368, 20.290 28.961 C 16.500 24.821, 16.182 24.065, 16.677 20.370 C 17.149 16.856, 16.874 16.046, 14.610 14.265 C 13.175 13.136, 12 11.489, 12 10.606 C 12 9.667, 11.170 9, 10 9 C 8.871 9, 8 9.667, 8 10.531 M 143.331 27.578 C 142.703 28.909, 142.571 30.235, 143.039 30.524 C 144.247 31.270, 136.810 40.991, 135 41.031 C 134.175 41.049, 132.711 41.662, 131.748 42.394 C 130.090 43.652, 130.109 43.868, 132.083 46.378 C 134.678 49.677, 134.023 55.213, 130.409 60.540 C 127.713 64.511, 127.916 67.460, 131.123 70.901 C 133.064 72.985, 133.063 73, 131.098 73 C 127.611 73, 127.808 74.827, 131.951 80.928 C 135.375 85.971, 136 87.678, 136 91.995 C 136 94.802, 135.282 98.488, 134.404 100.186 C 133.090 102.726, 133.027 103.682, 134.047 105.589 C 135.087 107.530, 134.960 108.681, 133.264 112.703 C 132.151 115.341, 130.716 121.775, 130.075 127 C 129.435 132.225, 128.528 138.188, 128.061 140.250 L 127.211 144 150.549 144 L 173.888 144 171.836 139.250 C 170.708 136.637, 166.877 128.518, 163.323 121.207 L 156.861 107.913 159.373 103.626 C 160.755 101.268, 162.401 97.291, 163.031 94.789 C 164.775 87.864, 167.441 87.120, 174.742 91.523 C 181.383 95.527, 183.493 95.816, 185.036 92.933 C 185.895 91.328, 185.791 90.330, 184.571 88.468 C 182.517 85.333, 182.585 84, 184.800 84 C 187.141 84, 189 82.094, 189 79.693 C 189 78.409, 189.490 77.974, 190.500 78.362 C 191.649 78.803, 192 78.155, 192 75.594 C 192 72.678, 191.616 72.173, 189 71.650 C 186.706 71.191, 186 70.507, 186 68.741 C 186 67.252, 184.968 65.821, 183.096 64.716 C 179.319 62.485, 177.299 62.548, 175.803 64.943 C 174.735 66.654, 173.807 66.817, 168.045 66.306 C 164.445 65.986, 160.713 65.321, 159.750 64.827 C 157.697 63.774, 157.364 59, 159.343 59 C 160.081 59, 161.490 57.506, 162.474 55.679 C 163.894 53.041, 164.029 51.924, 163.131 50.244 C 161.937 48.013, 162.930 43.779, 164.938 42.538 C 166.869 41.345, 166.050 40.324, 161.750 38.569 C 153.737 35.297, 152.495 34.425, 149.498 29.966 C 145.976 24.724, 144.878 24.299, 143.331 27.578 M 154.499 68.002 C 153.943 68.901, 157.799 71, 160.006 71 C 161.639 71, 162.264 68.781, 160.878 67.904 C 159.004 66.716, 155.258 66.774, 154.499 68.002 M 165.032 70.750 C 165.049 71.162, 165.687 72.323, 166.450 73.329 C 167.620 74.873, 168.188 74.970, 170.098 73.947 C 172.279 72.780, 172.293 72.687, 170.489 71.368 C 168.488 69.905, 164.979 69.508, 165.032 70.750 M 183.015 78.250 C 183.024 78.938, 183.417 80.111, 183.890 80.857 C 185.001 82.609, 186.229 80.761, 185.396 78.590 C 184.672 76.704, 182.993 76.464, 183.015 78.250" stroke="none" fill="black" fill-rule="evenodd"/>
</svg>