<svg xmlns="http://www.w3.org/2000/svg" width="192" height="144" viewBox="0 0 192 144" version="1.1">
	<path d="M 0 56.500 L 0 113 5.500 113 L 11 113 11.136 108.750 C 11.592 94.430, 11.873 93.675, 17.132 92.624 C 19.997 92.051, 20.190 91.749, 19.803 88.435 C 19.487 85.732, 19.825 84.629, 21.193 83.897 C 22.210 83.352, 23 81.816, 23 80.381 C 23 78.782, 23.466 77.992, 24.250 78.260 C 24.938 78.494, 25.366 79.616, 25.202 80.753 C 25.029 81.959, 25.763 83.421, 26.966 84.264 C 28.100 85.058, 28.951 86.561, 28.856 87.604 C 28.489 91.635, 29.090 92.985, 31.526 93.596 C 35.123 94.499, 36 96.831, 36 105.498 L 36 113.127 39.250 112.813 C 42.386 112.511, 42.511 112.326, 42.812 107.567 C 43.107 102.918, 46 97, 47.979 97 C 49.268 97, 53 105.302, 53 108.169 C 53 110.608, 53.296 110.732, 60.651 111.353 C 64.859 111.709, 70.693 112, 73.616 112 C 78.134 112, 79.460 112.465, 82.465 115.104 L 86 118.207 86.005 109.354 C 86.009 101.596, 86.297 100.141, 88.331 97.600 L 90.651 94.700 92.977 98.463 C 95.281 102.191, 95.296 102.417, 94.614 123.113 L 93.925 144 142.802 144 L 191.680 144 192.340 119.838 C 192.703 106.549, 193 74.149, 193 47.838 L 193 0 96.500 0 L 0 0 0 56.500 M 0.468 57 C 0.468 88.075, 0.594 100.788, 0.749 85.250 C 0.904 69.713, 0.904 44.288, 0.749 28.750 C 0.594 13.213, 0.468 25.925, 0.468 57 M 115.438 34.207 C 114.558 36.054, 112.096 38.551, 109.924 39.802 C 105.103 42.576, 104.923 44, 109.393 44 C 113.502 44, 114.048 45.140, 113.319 52.196 C 112.886 56.398, 113.116 57.851, 114.383 58.903 C 117.067 61.130, 116.235 63.922, 111.468 68.690 C 108.199 71.959, 107.103 73.749, 107.535 75.111 C 107.865 76.150, 108.758 77, 109.520 77 C 112.301 77, 115.904 79.325, 116.198 81.309 C 116.595 83.984, 118.841 84.665, 119.581 82.333 C 121.397 76.611, 122.021 75.772, 123.529 77.024 C 124.342 77.699, 125.372 79.657, 125.818 81.376 C 126.810 85.204, 130.124 85.712, 130.961 82.164 L 131.513 79.829 134.256 81.987 C 136.647 83.867, 137 83.928, 137 82.456 C 137 81.278, 137.586 80.920, 138.935 81.273 C 141.152 81.853, 145.322 79.330, 144.458 77.932 C 144.141 77.419, 144.864 77, 146.063 77 C 147.800 77, 148.012 76.720, 147.105 75.627 C 146.478 74.871, 146.229 73.567, 146.551 72.728 C 146.873 71.889, 146.573 70.854, 145.885 70.429 C 144.956 69.854, 145.081 69.498, 146.369 69.046 C 147.843 68.529, 147.498 67.798, 144.093 64.218 C 140.654 60.604, 139.495 60, 135.995 60 L 131.909 60 132.566 56.500 C 133.309 52.537, 133.058 52.401, 128.932 54.535 C 126.340 55.875, 125.893 55.884, 125.401 54.604 C 124.820 53.090, 128.701 47, 130.247 47 C 130.726 47, 130.871 46.601, 130.570 46.113 C 130.269 45.626, 130.692 44.671, 131.511 43.991 C 133.897 42.011, 133.279 41.173, 128.775 40.282 C 124.942 39.524, 124.446 39.077, 123.440 35.473 C 122.546 32.269, 121.819 31.439, 119.681 31.185 C 117.519 30.928, 116.736 31.487, 115.438 34.207" stroke="none" fill="black" fill-rule="evenodd"/>
</svg>