<svg xmlns="http://www.w3.org/2000/svg" width="192" height="144" viewBox="0 0 192 144" version="1.1">
	<path d="M 115.749 4.413 C 113.137 5.116, 110.176 6.436, 109.171 7.346 C 108.165 8.256, 105.717 9, 103.730 9 C 101.744 9, 99.862 9.414, 99.550 9.919 C 99.229 10.438, 97.644 10.170, 95.903 9.302 C 92.586 7.647, 85.109 8.082, 80.460 10.200 C 77.181 11.694, 77.297 14.493, 80.972 22.598 C 83.474 28.116, 84.255 29.054, 85.910 28.529 C 87.649 27.977, 87.870 28.372, 87.820 31.958 C 87.789 34.187, 88.308 36.666, 88.972 37.467 C 89.917 38.605, 89.917 39.723, 88.972 42.586 C 88.276 44.693, 88.024 48.161, 88.379 50.747 C 89.140 56.302, 86.400 65, 83.888 65 C 81.380 65, 79.705 67.676, 80.291 70.744 C 80.978 74.335, 79.484 77.741, 72.575 88.341 C 68.660 94.348, 67.077 97.667, 67.497 98.990 C 67.832 100.047, 67.543 102.793, 66.854 105.091 C 65.662 109.071, 65.724 109.372, 68.139 111.386 C 69.751 112.729, 71.275 115.688, 72.320 119.500 C 74.477 127.370, 79.095 131.568, 80.344 126.794 C 80.661 125.580, 81.136 124.803, 81.400 125.066 C 81.663 125.330, 80.556 129.582, 78.939 134.516 C 77.323 139.450, 76 143.602, 76 143.743 C 76 143.885, 88.825 144, 104.500 144 C 127.666 144, 133 143.749, 133 142.659 C 133 141.921, 132.342 139.130, 131.537 136.456 C 130.732 133.781, 130.226 131.441, 130.412 131.254 C 130.599 131.068, 132.403 133.213, 134.421 136.022 C 136.815 139.355, 138.682 141.013, 139.795 140.795 C 141.824 140.397, 141.895 135.951, 140.120 120.500 C 139.268 113.084, 139.262 109.947, 140.096 108.360 C 141.050 106.544, 140.418 104.600, 135.939 95.566 C 130.685 84.968, 129.593 79.775, 131.089 72.500 C 131.386 71.055, 130.907 70.416, 129.358 70.195 C 127.555 69.938, 127.107 68.989, 126.525 64.195 C 125.996 59.839, 125.148 57.785, 122.922 55.459 C 119.585 51.971, 119.306 50.010, 120.862 41 C 121.480 37.425, 121.988 34.163, 121.992 33.750 C 121.997 33.337, 122.689 33, 123.531 33 C 126.094 33, 126.392 30.021, 124.135 26.968 C 121.490 23.391, 121.454 22.624, 123.963 23.280 C 126.902 24.049, 128.172 21.729, 128.749 14.540 C 129.625 3.621, 126.819 1.435, 115.749 4.413 M 118.115 94.691 C 118.052 97.546, 118.450 100.160, 119 100.500 C 120.180 101.229, 120.198 99.014, 119.057 93.500 L 118.230 89.500 118.115 94.691" stroke="none" fill="black" fill-rule="evenodd"/>
</svg>