<svg xmlns="http://www.w3.org/2000/svg" width="192" height="144" viewBox="0 0 192 144" version="1.1">
	<path d="M -0 11.495 C -0 18.989, 0.355 22.898, 1 22.500 C 1.550 22.160, 2 22.809, 2 23.941 C 2 25.073, 1.550 26, 1 26 C 0.349 26, 0 40.881, 0 68.642 L 0 111.285 6.147 110.642 C 9.527 110.289, 13.127 110, 14.147 110 C 16.464 110, 16.656 106.466, 14.407 105.208 C 12.971 104.405, 12.960 103.879, 14.294 99.908 C 15.108 97.484, 16.091 93.142, 16.479 90.260 C 17.153 85.259, 17.067 84.976, 14.592 84.035 C 11.586 82.892, 11.557 82.777, 13.366 79.200 C 14.118 77.715, 15.044 74.781, 15.425 72.679 C 15.806 70.577, 16.392 68.141, 16.729 67.265 C 17.140 66.194, 16.949 65.913, 16.146 66.410 C 14.130 67.656, 15.955 58.723, 18.101 56.843 C 20.169 55.031, 23.250 55.392, 25.139 57.667 C 25.801 58.466, 26.435 62.563, 26.547 66.773 C 26.741 74.066, 26.903 74.556, 29.972 77.118 L 33.193 79.807 30.970 82.030 C 28.938 84.062, 28.803 84.873, 29.402 91.483 C 29.763 95.460, 30.487 100.211, 31.012 102.041 C 32.129 105.938, 31.668 106.799, 29.448 104.957 C 27.010 102.934, 25.541 105.835, 27.761 108.288 C 29.963 110.721, 28.623 111.530, 20.051 112.945 C 16.448 113.540, 10.463 114.543, 6.750 115.174 L 0 116.320 0 130.160 L 0 144 31.767 144 L 63.533 144 63.593 138.250 C 63.637 133.942, 64.797 129.490, 68.216 120.500 C 70.726 113.900, 72.461 108.377, 72.071 108.227 C 71.681 108.077, 64.868 110.835, 56.931 114.356 C 38.941 122.338, 19.926 129.152, 13.961 129.755 C 10.597 130.095, 9.077 129.798, 8.089 128.607 C 6.924 127.203, 7.220 126.806, 10.431 125.464 C 12.452 124.620, 15.404 123.669, 16.989 123.352 C 18.575 123.035, 20.109 122.159, 20.398 121.405 C 20.688 120.651, 21.587 120.288, 22.398 120.599 C 23.884 121.170, 32.762 117.668, 56.365 107.204 C 65.972 102.945, 69.455 100.914, 70.115 99.185 C 71.469 95.641, 71.180 93, 69.437 93 C 68.413 93, 67.982 92.269, 68.187 90.879 C 68.440 89.167, 66.380 87.324, 57.500 81.320 C 47.073 74.268, 43.887 71, 47.442 71 C 48.316 71, 52.061 73.172, 55.765 75.828 C 59.469 78.483, 64.188 81.670, 66.250 82.909 L 70 85.163 70 80.111 C 70 76.477, 70.842 73.404, 73 69.156 C 74.650 65.909, 76 62.335, 76 61.213 C 76 59.063, 88.479 47.054, 90.750 47.019 C 91.450 47.008, 91.987 45.790, 91.970 44.250 C 91.944 41.899, 91.791 41.754, 90.920 43.250 C 89.674 45.390, 86.149 45.552, 85.364 43.506 C 85.048 42.684, 84.388 42.260, 83.895 42.565 C 83.403 42.869, 83 41.282, 83 39.038 C 83 33.179, 88.323 22.741, 92.944 19.539 C 97.137 16.633, 103.474 16.135, 106.559 18.468 C 109.417 20.630, 110.017 20.334, 109.367 17.084 C 108.865 14.577, 109.115 14.121, 111.142 13.834 C 113.178 13.546, 113.568 12.818, 114 8.500 C 114.527 3.230, 116 4.360, 116 10.035 C 116 11.614, 116.511 14.027, 117.135 15.398 C 118.114 17.546, 117.916 18.312, 115.694 20.951 L 113.118 24.013 114.981 28.256 C 117.237 33.396, 116.638 37.752, 113.478 39.192 C 112.236 39.758, 110.719 41.321, 110.106 42.667 C 109.493 44.012, 108.651 44.902, 108.235 44.645 C 107.282 44.056, 103.451 46.785, 104.191 47.525 C 104.491 47.825, 108.129 48.088, 112.275 48.109 C 118.736 48.143, 120.291 48.508, 123.157 50.661 C 129.043 55.083, 130.275 55.215, 144.122 52.904 C 156.195 50.890, 157.138 50.860, 159.521 52.422 C 162.005 54.050, 162.242 53.971, 170.779 48.684 C 183.936 40.536, 189.369 36.856, 190.750 35.156 C 191.806 33.857, 192 34.152, 191.999 37.059 C 191.999 40.321, 191.543 40.772, 183.249 45.715 C 170.101 53.552, 164.474 57.524, 164.736 58.784 C 164.867 59.408, 163.365 61.146, 161.399 62.645 C 158.322 64.991, 157.545 65.197, 155.818 64.118 C 153.935 62.943, 153.853 63.055, 154.485 65.933 C 155.239 69.363, 154.510 69.772, 151.882 67.394 C 150.245 65.912, 149.878 65.951, 147.149 67.894 C 145.522 69.052, 143.933 70, 143.617 70 C 142.368 70, 113.373 86.432, 111.500 88.202 C 110.400 89.241, 108.632 90.686, 107.571 91.413 C 105.695 92.698, 105.690 92.895, 107.389 98.617 C 108.350 101.853, 109.517 105.452, 109.985 106.615 C 110.904 108.904, 120.543 114.763, 136.750 122.883 C 142.387 125.707, 147 128.464, 147 129.009 C 147 129.554, 145.437 130, 143.527 130 C 141.211 130, 135.860 127.835, 127.462 123.500 C 120.537 119.925, 114.630 117, 114.336 117 C 114.043 117, 114.658 118.462, 115.703 120.250 C 116.748 122.037, 119.104 127.241, 120.939 131.812 C 123.432 138.024, 123.988 140.412, 123.138 141.262 C 122.512 141.888, 122 142.766, 122 143.213 C 122 143.660, 137.863 143.907, 157.250 143.763 L 192.500 143.500 192.730 71.889 L 192.959 0.278 96.480 0.075 L 0 -0.129 -0 11.495 M 0.378 12 C 0.378 18.325, 0.541 20.912, 0.739 17.750 C 0.937 14.587, 0.937 9.412, 0.739 6.250 C 0.541 3.087, 0.378 5.675, 0.378 12 M 0.458 68.500 C 0.459 92.150, 0.590 101.682, 0.749 89.682 C 0.909 77.683, 0.909 58.333, 0.749 46.682 C 0.589 35.032, 0.458 44.850, 0.458 68.500 M 109.876 60.224 C 109.456 61.157, 107.557 82.224, 107.865 82.532 C 108.201 82.868, 112.971 80.484, 120.933 76 C 122.398 75.175, 129.155 71.373, 135.950 67.551 C 142.744 63.728, 147.794 60.431, 147.172 60.224 C 146.549 60.016, 143.668 60.519, 140.770 61.340 C 133.737 63.334, 116.630 63.377, 112.827 61.410 C 111.272 60.606, 109.944 60.073, 109.876 60.224 M 10.500 62 C 10.160 62.550, 10.359 63, 10.941 63 C 11.523 63, 12 62.550, 12 62 C 12 61.450, 11.802 61, 11.559 61 C 11.316 61, 10.840 61.450, 10.500 62 M 81.903 72.295 C 78.776 75.341, 78.221 76.611, 77.658 82.002 C 77.301 85.414, 77.259 88.609, 77.564 89.103 C 78.643 90.849, 80.891 89.962, 83.042 86.941 C 85.068 84.096, 85.101 83.795, 83.522 82.640 C 81.940 81.483, 81.971 81.117, 83.988 77.247 C 85.178 74.964, 86.005 72.128, 85.826 70.943 C 85.520 68.925, 85.276 69.009, 81.903 72.295 M 19 106.800 C 19 108.046, 21.259 110, 22.700 110 C 23.415 110, 24 109.100, 24 108 C 24 106.533, 23.333 106, 21.500 106 C 20.125 106, 19 106.360, 19 106.800 M 0.397 130 C 0.397 137.975, 0.553 141.238, 0.743 137.250 C 0.932 133.262, 0.932 126.737, 0.743 122.750 C 0.553 118.763, 0.397 122.025, 0.397 130 M 15.701 116.632 C 14.235 118.098, 15.097 119.785, 17.553 120.255 C 19.699 120.665, 20.057 120.406, 19.803 118.632 C 19.500 116.519, 17.022 115.311, 15.701 116.632" stroke="none" fill="black" fill-rule="evenodd"/>
</svg>