<svg xmlns="http://www.w3.org/2000/svg" width="192" height="144" viewBox="0 0 192 144" version="1.1">
	<path d="M 0 72 L 0 144 34.981 144 L 69.962 144 70.504 141.250 C 70.802 139.738, 73.060 132.368, 75.523 124.872 C 77.985 117.377, 80 110.697, 80 110.027 C 80 108.478, 76.133 103, 75.040 103 C 74.588 103, 73.474 104.856, 72.567 107.125 C 70.589 112.068, 69.444 111.674, 70.862 106.537 C 71.675 103.592, 71.587 102.779, 70.405 102.325 C 69.550 101.997, 69.170 101.039, 69.493 100.023 C 69.797 99.066, 69.472 97.846, 68.773 97.313 C 67.278 96.175, 59.788 93.475, 55.500 92.527 C 53.850 92.163, 51.600 90.842, 50.500 89.592 C 49.165 88.075, 46.858 87.098, 43.564 86.653 C 38.076 85.913, 31.817 83.172, 31.220 81.247 C 30.996 80.524, 31.607 80.062, 32.666 80.155 C 33.675 80.244, 36.188 80.246, 38.250 80.158 C 42.619 79.974, 43.444 77.500, 39.621 76.046 C 37.695 75.314, 36.948 73.843, 35.698 68.321 C 34.090 61.219, 34.699 58.675, 37.458 60.965 C 38.442 61.782, 39 61.853, 39 61.163 C 39 60.568, 40.153 59.012, 41.562 57.705 C 43.271 56.121, 44.156 54.207, 44.220 51.960 C 44.314 48.657, 44.345 48.634, 45.780 50.795 C 46.585 52.008, 48.262 53, 49.505 53 C 51.768 53, 52.956 55.186, 52.986 59.406 C 52.994 60.454, 54.131 62.794, 55.513 64.606 L 58.026 67.901 54.763 71.700 C 52.968 73.790, 51.154 75.653, 50.732 75.839 C 50.310 76.026, 49.247 76.895, 48.371 77.772 C 46.914 79.229, 46.923 79.470, 48.475 80.605 C 49.484 81.343, 51.586 81.617, 53.660 81.280 C 56.188 80.870, 58.229 81.322, 61.079 82.924 C 64.798 85.014, 65.044 85.036, 65.609 83.317 C 66.593 80.326, 68.311 76.860, 72.254 69.909 C 75.424 64.324, 76.285 61.427, 77.902 50.909 C 79.869 38.117, 82.618 29.185, 85.602 25.888 C 87.242 24.075, 87.184 24, 84.155 24 C 81.005 24, 80.564 23.375, 80.988 19.514 C 81.332 16.375, 85.905 8, 87.273 8 C 90.586 8, 95.621 10.268, 99.663 13.580 C 104.409 17.469, 103.938 17.413, 114.738 15.385 C 120.692 14.266, 121.142 15.030, 119.027 22.658 C 117.772 27.184, 117.458 29.987, 118.076 31.143 C 119.610 34.009, 119.113 39.303, 116.981 42.799 C 115.874 44.614, 114.526 45.825, 113.985 45.490 C 113.443 45.156, 113 45.359, 113 45.941 C 113 46.523, 112.373 47, 111.607 47 C 109.808 47, 109 49.196, 109 54.082 C 109 56.898, 109.422 58, 110.500 58 C 111.325 58, 112 58.597, 112 59.326 C 112 60.055, 113.134 61.716, 114.519 63.018 C 115.905 64.320, 118.330 67.436, 119.910 69.942 C 122.390 73.879, 122.776 75.469, 122.744 81.608 C 122.723 85.517, 122.987 89.170, 123.331 89.727 C 123.675 90.283, 127.670 91.062, 132.210 91.458 C 136.750 91.854, 141.260 92.604, 142.232 93.124 C 143.413 93.756, 144.747 93.659, 146.250 92.830 C 147.488 92.148, 149.350 91.721, 150.389 91.882 C 151.863 92.109, 152.159 91.714, 151.733 90.086 C 151.116 87.728, 151.971 87.401, 153.912 89.250 C 154.984 90.271, 155.095 90.072, 154.518 88.164 C 153.874 86.038, 153.999 85.929, 155.905 86.949 C 160.633 89.480, 157.133 96.996, 150.500 98.559 C 148.850 98.947, 145.508 100.153, 143.073 101.238 C 139.300 102.920, 138.085 103.042, 134.836 102.069 C 132.739 101.441, 128.074 100.652, 124.468 100.315 C 119.014 99.806, 117.570 99.269, 115.886 97.128 C 114.772 95.712, 113.609 93.294, 113.301 91.756 C 112.331 86.905, 111.302 87.840, 110.640 94.175 C 110.235 98.048, 110.399 100.776, 111.088 101.606 C 111.703 102.348, 111.892 104.213, 111.523 105.895 C 111.060 108.002, 111.645 110.720, 113.521 115.186 C 114.979 118.659, 117.909 126.450, 120.030 132.500 L 123.887 143.500 158.194 143.500 L 192.500 143.500 192.757 71.750 L 193.013 0 96.507 0 L 0 0 0 72 M 0.474 72.500 C 0.474 112.100, 0.598 128.154, 0.750 108.176 C 0.901 88.198, 0.901 55.798, 0.750 36.176 C 0.598 16.554, 0.474 32.900, 0.474 72.500" stroke="none" fill="black" fill-rule="evenodd"/>
</svg>