<svg xmlns="http://www.w3.org/2000/svg" width="192" height="144" viewBox="0 0 192 144" version="1.1">
	<path d="M 0 72 L 0 144 39.399 144 L 78.797 144 79.440 136.750 C 79.793 132.762, 80.328 127.813, 80.629 125.750 C 81.141 122.242, 81.009 122, 78.588 122 C 76.944 122, 76 121.448, 76 120.486 C 76 119.654, 75.482 118.144, 74.850 117.131 C 73.895 115.602, 74.359 114.221, 77.575 109.010 C 82.603 100.864, 83.408 92.368, 80.084 82.528 C 77.985 76.315, 77.975 76.010, 79.638 69.334 C 81.858 60.426, 83.367 56.883, 85.928 54.565 L 88.022 52.670 83.984 50.262 C 81.439 48.745, 80.048 47.234, 80.223 46.177 C 80.426 44.950, 79.648 44.417, 77.327 44.192 C 71.218 43.600, 69.274 35.097, 73.665 28.180 C 74.977 26.113, 74.955 25.581, 73.464 23.304 C 71.572 20.417, 72.624 19.043, 76.750 19.015 C 78.479 19.004, 79 18.421, 79 16.500 C 79 14.944, 79.567 14, 80.500 14 C 81.333 14, 82 13.111, 82 12 C 82 8.872, 83.559 9.578, 89.722 15.500 C 92.870 18.525, 95.980 21, 96.634 21 C 100.166 21, 106.997 33.160, 109.369 43.670 C 110.259 47.614, 112.351 54.364, 114.017 58.670 C 115.684 62.977, 117.738 69.141, 118.582 72.368 C 119.974 77.695, 119.968 78.548, 118.512 81.616 C 117.494 83.761, 117.131 86.183, 117.519 88.248 C 117.944 90.514, 117.199 94.277, 115.065 100.648 C 111.763 110.503, 111.343 116.444, 112.651 134.858 L 113.301 144.023 152.901 143.761 L 192.500 143.500 192.757 71.750 L 193.013 0 96.507 0 L 0 0 0 72 M 0.474 72.500 C 0.474 112.100, 0.598 128.154, 0.750 108.176 C 0.901 88.198, 0.901 55.798, 0.750 36.176 C 0.598 16.554, 0.474 32.900, 0.474 72.500 M 83.015 91.750 C 83.007 94.088, 83.450 96, 84 96 C 85.276 96, 85.276 90.974, 84 89 C 83.290 87.901, 83.027 88.638, 83.015 91.750" stroke="none" fill="black" fill-rule="evenodd"/>
</svg>