<svg xmlns="http://www.w3.org/2000/svg" width="192" height="144" viewBox="0 0 192 144" version="1.1">
	<path d="M 0 56 L 0 64 8 64 L 16 64 16 56 L 16 48 8 48 L 0 48 0 56 M 96 55.880 L 96 63.760 102.250 64.216 C 111.869 64.919, 111.739 65.030, 111.905 55.915 L 112.049 48 104.024 48 L 96 48 96 55.880 M 108.195 57.500 C 108.215 59.150, 108.439 59.704, 108.693 58.731 C 108.947 57.758, 108.930 56.408, 108.656 55.731 C 108.382 55.054, 108.175 55.850, 108.195 57.500 M 84.250 95.807 L 80 96.115 80 104.057 L 80 112 87.911 112 L 95.822 112 96.161 106.250 C 96.705 97.015, 96.413 96.249, 92.194 95.850 C 90.162 95.657, 86.588 95.638, 84.250 95.807 M 32 119.430 C 32 126.341, 32.157 126.891, 34.250 127.294 C 35.487 127.533, 31.888 127.789, 26.250 127.864 L 16 128 16 136 L 16 144 40 144 L 64 144 64 136 L 64 128 56 128 L 48 128 48 120 L 48 112 40 112 L 32 112 32 119.430 M 80 136 L 80 144 104 144 L 128 144 128 136 L 128 128 104 128 L 80 128 80 136 M 144 136 L 144 144 152 144 L 160 144 160 136 L 160 128 156.570 128 C 153.807 128, 153.055 128.438, 152.706 130.250 L 152.272 132.500 152.136 130.250 C 152.019 128.314, 151.441 128, 148 128 L 144 128 144 136 M 32.750 140.662 C 33.438 140.940, 34.563 140.940, 35.250 140.662 C 35.938 140.385, 35.375 140.158, 34 140.158 C 32.625 140.158, 32.063 140.385, 32.750 140.662 M 119 142 C 119 142.550, 119.675 143, 120.500 143 C 121.325 143, 122 142.550, 122 142 C 122 141.450, 121.325 141, 120.500 141 C 119.675 141, 119 141.450, 119 142" stroke="none" fill="black" fill-rule="evenodd"/>
</svg>