<svg xmlns="http://www.w3.org/2000/svg" width="192" height="144" viewBox="0 0 192 144" version="1.1">
	<path d="M 78 22.500 C 76.296 23.475, 73.989 23.741, 70.753 23.336 C 66.219 22.770, 65.848 22.915, 62.503 26.567 C 60.576 28.670, 59 30.983, 59 31.706 C 59 32.430, 58.097 34.942, 56.994 37.289 C 55.891 39.636, 54.324 44.693, 53.512 48.528 C 51.813 56.549, 51.446 74.461, 53 73.500 C 53.550 73.160, 54.007 73.696, 54.015 74.691 C 54.028 76.225, 54.178 76.272, 55 75 C 55.613 74.051, 55.975 73.948, 55.985 74.719 C 55.993 75.407, 56.675 75.678, 57.551 75.342 C 58.798 74.864, 58.972 75.262, 58.442 77.374 C 57.682 80.402, 58.647 80.775, 60.708 78.250 C 61.983 76.688, 62.075 76.951, 61.566 80.690 C 61.243 83.060, 61.431 85.148, 61.998 85.499 C 63.564 86.466, 63.173 90, 61.500 90 C 60.675 90, 60 90.450, 60 91 C 60 91.550, 60.450 92, 61 92 C 62.293 92, 62.311 108.335, 61.022 113 C 60.491 114.925, 59.382 121.225, 58.559 127 C 57.736 132.775, 56.630 138.963, 56.101 140.750 L 55.140 144 72.658 144 L 90.176 144 89.494 139.965 C 88.978 136.910, 89.317 134.856, 90.891 131.508 C 92.035 129.076, 92.788 126.504, 92.565 125.793 C 92.343 125.082, 91.902 119.775, 91.585 114 C 91.040 104.052, 91.093 103.650, 92.590 106.351 C 93.459 107.919, 95.234 114.219, 96.536 120.351 C 99.030 132.103, 100.948 138.342, 103.150 141.868 C 104.335 143.766, 105.393 144, 112.780 144 C 119.085 144, 122.015 143.523, 124.970 142.016 C 128.599 140.164, 128.890 140.147, 129.324 141.766 C 129.712 143.215, 129.907 143.127, 130.516 141.229 C 131.091 139.437, 131.535 139.199, 132.622 140.101 C 133.711 141.005, 134 140.842, 134 139.322 C 134 138.265, 134.537 136.863, 135.193 136.207 C 137.218 134.182, 136.519 114.784, 134.090 105.590 C 132.941 101.240, 132 97.319, 132 96.879 C 132 96.438, 133.797 95.593, 135.993 95.002 C 140.335 93.833, 142.320 91.139, 143.509 84.805 C 144.096 81.674, 143.801 80.792, 141.344 78.340 C 137.406 74.408, 132.826 74.083, 129.416 77.493 C 127.323 79.586, 126.872 80.862, 127.160 83.883 L 127.520 87.657 122.010 88.885 C 118.980 89.560, 113.782 91.062, 110.461 92.222 L 104.421 94.331 99.590 91.500 C 96.416 89.640, 94.279 87.518, 93.357 85.312 C 92.177 82.488, 91.659 82.112, 90.101 82.946 C 88.498 83.804, 88.009 83.311, 86.473 79.289 C 85.081 75.645, 84.926 74.033, 85.758 71.831 C 86.341 70.285, 86.588 68.142, 86.307 67.067 C 85.981 65.821, 86.709 64.200, 88.314 62.595 C 89.879 61.030, 90.645 59.358, 90.337 58.179 C 89.952 56.707, 90.509 56.148, 92.825 55.685 C 99.720 54.306, 100.497 43.424, 94.282 35.283 C 92.406 32.824, 89.948 29.043, 88.821 26.880 C 85.781 21.050, 82.711 19.807, 78 22.500" stroke="none" fill="black" fill-rule="evenodd"/>
</svg>