<svg xmlns="http://www.w3.org/2000/svg" width="192" height="144" viewBox="0 0 192 144" version="1.1">
	<path d="M 115.348 0.693 C 111.359 1.472, 110.189 7.616, 112.522 15.536 C 112.995 17.143, 112.396 17.917, 109.677 19.214 C 105.504 21.204, 99.739 26.154, 96.821 30.251 C 94.278 33.823, 90.677 46.348, 92.054 46.833 C 92.575 47.017, 93 48.446, 93 50.011 C 93 52.078, 94.018 53.694, 96.728 55.927 C 98.778 57.617, 101.253 59, 102.228 59 C 104.390 59, 104.502 60.838, 102.515 63.675 C 101.125 65.660, 101.318 66.107, 105.531 70.648 C 108.007 73.317, 110.210 76.400, 110.426 77.500 C 110.643 78.600, 111.537 83.117, 112.413 87.537 C 113.891 94.994, 113.884 95.897, 112.314 100.037 C 111.384 102.492, 110.545 104.625, 110.450 104.778 C 110.355 104.931, 109.094 104.606, 107.647 104.056 C 103.510 102.483, 102 103.647, 102 108.407 C 102 115.911, 100.436 115.717, 92.355 107.210 C 85.921 100.439, 85.028 99.040, 85.015 95.718 C 84.995 90.759, 82.718 85.455, 79.979 83.989 C 78.741 83.326, 76.344 83.088, 74.463 83.441 C 71.889 83.924, 70.901 83.662, 70.098 82.283 C 69.132 80.622, 69.056 80.637, 68.994 82.500 C 68.950 83.827, 67.527 85.173, 64.763 86.500 C 61.678 87.982, 60.311 89.389, 59.484 91.931 C 57.035 99.462, 62.537 111.098, 69.225 112.533 C 74.016 113.560, 74.009 113.543, 71.921 119.485 C 70.864 122.491, 69.991 126.424, 69.979 128.225 C 69.968 130.026, 69.369 134.313, 68.649 137.750 L 67.339 144 87.694 144 L 108.050 144 108.654 140.979 C 109.527 136.615, 111 136.277, 111 140.441 L 111 144 136.512 144 L 162.024 144 161.404 140.126 C 160.734 135.932, 161.218 135.298, 166.500 133.451 C 168.150 132.874, 169.388 131.862, 169.250 131.201 C 169.113 130.541, 169.450 130, 170 130 C 170.550 130, 171 129.550, 171 129 C 171 127.435, 167.586 127.820, 162.632 129.943 C 157.298 132.230, 158.076 133.529, 155.040 117.256 C 153.886 111.072, 152.682 105.335, 152.364 104.506 C 152.046 103.678, 152.186 103, 152.674 103 C 153.162 103, 154.127 104.463, 154.817 106.250 C 155.912 109.082, 156.203 109.277, 157.079 107.763 C 157.758 106.591, 157.746 105.394, 157.042 104.079 C 156.469 103.008, 156.014 99.964, 156.032 97.316 C 156.060 93.097, 156.228 92.717, 157.392 94.250 C 159.408 96.905, 159.927 96.377, 159.354 92.250 C 158.840 88.546, 158.865 88.565, 161.371 93.750 C 162.766 96.638, 164.106 99, 164.349 99 C 164.591 99, 164.417 97.312, 163.962 95.250 L 163.134 91.500 165.554 94.500 L 167.975 97.500 167.507 89.500 C 167.249 85.100, 166.805 75.875, 166.519 69 C 165.963 55.614, 164.483 47.084, 161.055 37.500 C 159.875 34.200, 158.320 29.456, 157.600 26.958 C 154.629 16.651, 147.049 10.150, 139.626 11.542 C 136.401 12.147, 135.545 11.714, 128.875 6.100 C 121.908 0.235, 120.523 -0.318, 115.348 0.693 M 121 81.559 C 121 82.416, 121.457 82.835, 122.016 82.490 C 122.575 82.144, 122.774 81.443, 122.457 80.931 C 121.600 79.544, 121 79.802, 121 81.559" stroke="none" fill="black" fill-rule="evenodd"/>
</svg>