<svg xmlns="http://www.w3.org/2000/svg" width="192" height="144" viewBox="0 0 192 144" version="1.1">
	<path d="M 0 72 L 0 144 42 144 L 84 144 84 140.475 C 84 137.636, 83.514 136.766, 81.500 136 C 80.043 135.446, 79 134.256, 79 133.147 C 79 132.101, 78.337 130.695, 77.526 130.022 C 73.474 126.659, 74.811 120.727, 82.928 106.055 C 84.947 102.407, 85.746 99.837, 85.352 98.266 C 84.980 96.784, 85.628 94.292, 87.114 91.491 C 89.339 87.298, 89.370 86.991, 87.698 85.768 C 86.521 84.907, 85.651 82.311, 85.092 77.988 C 84.631 74.420, 84.183 72.400, 84.096 73.500 C 83.953 75.319, 83.849 75.345, 82.940 73.785 C 81.444 71.220, 84.379 59.940, 88.440 52.644 C 93.822 42.975, 96.279 36.041, 94.907 34.388 C 93.977 33.267, 94.236 33, 96.255 33 C 97.630 33, 99.357 32.275, 100.093 31.388 C 102.505 28.481, 105.104 28.221, 109.343 30.463 C 111.972 31.853, 113.691 33.611, 114.312 35.544 C 114.834 37.170, 115.877 39.210, 116.630 40.079 C 118.233 41.926, 118.449 43.396, 116.985 42.491 C 116 41.882, 108 49.628, 108 51.192 C 108 51.621, 109.733 53.118, 111.851 54.520 C 114.615 56.350, 116.405 58.697, 118.192 62.840 L 120.682 68.611 117.316 75.555 C 113.649 83.121, 113.648 83.075, 117.510 94 C 118.968 98.125, 120.221 102.400, 120.294 103.500 C 120.368 104.600, 120.987 106.076, 121.671 106.779 C 122.355 107.482, 122.694 108.635, 122.423 109.340 C 122.152 110.046, 123.314 113.970, 125.004 118.061 C 128.693 126.988, 128.464 126.110, 127.659 128.250 C 127.296 129.213, 126.768 130.730, 126.485 131.622 C 126.097 132.840, 125.216 133.093, 122.944 132.639 C 118.088 131.668, 116 133.656, 116 139.252 L 116 144.024 154.250 143.762 L 192.500 143.500 192.757 71.750 L 193.013 0 96.507 0 L 0 0 0 72 M 0.474 72.500 C 0.474 112.100, 0.598 128.154, 0.750 108.176 C 0.901 88.198, 0.901 55.798, 0.750 36.176 C 0.598 16.554, 0.474 32.900, 0.474 72.500 M 110.821 70.075 C 110.325 75.276, 111.214 75.815, 113.170 71.499 C 114.247 69.123, 114.392 67.792, 113.654 67.054 C 111.830 65.230, 111.222 65.878, 110.821 70.075 M 94.158 72 C 94.158 73.375, 94.385 73.938, 94.662 73.250 C 94.940 72.563, 94.940 71.438, 94.662 70.750 C 94.385 70.063, 94.158 70.625, 94.158 72 M 104.500 137.604 C 103.126 138.659, 101.329 138.958, 98.760 138.560 C 95.835 138.106, 94.582 138.418, 93.010 139.990 C 89.575 143.425, 90.556 144, 99.853 144 L 108.707 144 108.603 140.334 C 108.485 136.149, 107.365 135.403, 104.500 137.604" stroke="none" fill="black" fill-rule="evenodd"/>
</svg>