<svg xmlns="http://www.w3.org/2000/svg" width="192" height="144" viewBox="0 0 192 144" version="1.1">
	<path d="M 0 72 L 0 144 37.472 144 L 74.944 144 76.541 138.250 C 77.420 135.088, 78.958 129.970, 79.961 126.877 C 81.171 123.142, 81.604 119.670, 81.251 116.535 C 80.887 113.308, 81.581 108.128, 83.443 100.158 C 87.586 82.425, 88.050 79.730, 87.480 76.728 C 87.190 75.204, 87.429 73.066, 88.012 71.978 C 88.697 70.699, 88.717 70, 88.070 70 C 87.520 70, 86.561 70.952, 85.938 72.117 C 84.878 74.096, 84.698 74.125, 83.152 72.556 C 81.615 70.995, 81.635 70.778, 83.441 69.439 C 84.509 68.647, 86.591 68, 88.069 68 C 89.546 68, 91.315 67.325, 92 66.500 C 93.577 64.600, 97.031 64.584, 100.669 66.460 C 102.226 67.264, 104.767 68.180, 106.316 68.496 C 108.298 68.901, 109.028 69.580, 108.780 70.786 C 108.566 71.827, 107.697 72.371, 106.565 72.172 C 104.529 71.813, 104.510 70.887, 106.910 89 C 107.456 93.125, 109.004 99.875, 110.349 104 C 112.475 110.518, 112.673 112.271, 111.862 117.386 C 111.150 121.881, 111.275 124.363, 112.391 127.886 C 113.194 130.424, 114.574 135.093, 115.457 138.262 L 117.063 144.024 154.781 143.762 L 192.500 143.500 192.757 71.750 L 193.013 0 96.507 0 L 0 0 0 72 M 0.474 72.500 C 0.474 112.100, 0.598 128.154, 0.750 108.176 C 0.901 88.198, 0.901 55.798, 0.750 36.176 C 0.598 16.554, 0.474 32.900, 0.474 72.500" stroke="none" fill="black" fill-rule="evenodd"/>
</svg>