<svg xmlns="http://www.w3.org/2000/svg" width="192" height="144" viewBox="0 0 192 144" version="1.1">
	<path d="M 0 33.937 L 0 67.874 3.750 67.359 C 5.813 67.076, 11.913 65.987, 17.307 64.939 C 26.430 63.166, 29.736 62.048, 43.815 55.973 L 49.130 53.679 56.663 61.090 C 60.806 65.165, 67.283 72.163, 71.056 76.641 C 78.908 85.957, 84.290 89.176, 93.079 89.812 L 98.686 90.218 101.976 84.359 C 103.785 81.136, 107.023 76.866, 109.171 74.868 L 113.077 71.236 110.498 70.589 C 109.079 70.233, 108.188 69.505, 108.518 68.971 C 108.848 68.437, 108.360 68, 107.434 68 C 105.737 68, 105.775 65.305, 107.537 60.750 C 108.020 59.501, 107.724 59, 106.500 59 C 105.261 59, 104.985 58.515, 105.504 57.250 C 107.022 53.551, 106.579 52.500, 103.500 52.500 C 99.745 52.500, 96 50.429, 96 48.354 C 96 47.105, 95.299 46.909, 92.623 47.411 C 89.086 48.074, 84 46.718, 84 45.111 C 84 44.595, 86.092 42.168, 88.649 39.718 C 93.185 35.371, 93.258 35.206, 91.649 32.909 C 89.319 29.583, 89.579 28.417, 92.962 27.016 C 94.889 26.218, 96.677 24.234, 98.078 21.339 C 100.288 16.773, 107.935 10.114, 113.315 8.070 C 116.861 6.722, 126.117 6.730, 132 8.086 C 136.746 9.179, 143.520 13.848, 147.264 18.609 C 149.136 20.989, 149.514 22.761, 149.586 29.510 C 149.677 38.177, 150.989 41.452, 155.569 44.454 C 156.906 45.329, 158 46.711, 158 47.523 C 158 49.291, 157.517 49.347, 154.807 47.897 C 152.335 46.574, 150.698 48.384, 151.638 51.401 C 152.096 52.871, 151.855 53.158, 150.575 52.667 C 149.380 52.209, 149 52.514, 149.210 53.766 C 149.402 54.917, 148.743 55.608, 147.248 55.820 C 145.410 56.081, 145.109 56.585, 145.607 58.570 C 146.288 61.282, 145.813 61.506, 142.799 59.892 C 140.900 58.876, 140.783 59, 141.384 61.392 C 142.181 64.570, 141.359 64.686, 138.314 61.826 C 136.897 60.494, 136 60.148, 136 60.933 C 136 61.648, 135.352 61.965, 134.532 61.651 C 133.725 61.341, 132.796 61.521, 132.469 62.051 C 132.141 62.581, 132.577 63.284, 133.437 63.614 C 134.296 63.944, 135 65.302, 135 66.632 C 135 68.370, 135.773 69.319, 137.750 70.009 C 143.682 72.078, 145.631 73.811, 149.029 80.036 C 152.194 85.835, 152.863 86.488, 155.529 86.381 C 178.157 85.471, 187.515 84.032, 190.816 80.956 C 192.690 79.211, 192.780 77.446, 192.929 39.567 L 193.086 -0 96.543 -0 L 0 0 0 33.937 M 0.449 34.500 C 0.449 53.200, 0.584 60.709, 0.749 51.186 C 0.913 41.663, 0.913 26.363, 0.748 17.186 C 0.583 8.009, 0.449 15.800, 0.449 34.500 M 43.750 61.758 C 40.995 63.466, 39.868 68.182, 41.913 69.446 C 42.415 69.757, 43.139 71.865, 43.522 74.132 C 44.116 77.645, 43.502 80.077, 39.359 90.624 C 36.687 97.428, 34.198 102.996, 33.829 102.997 C 32.784 103.001, 32.127 98.450, 31.412 86.237 C 30.766 75.218, 30.809 74.887, 33.390 70.987 C 34.841 68.794, 35.894 67, 35.730 67 C 35.565 67, 32.870 67.900, 29.740 69 C 26.611 70.100, 23.390 71, 22.584 71 C 20.128 71, 19.860 72.697, 21.516 77.760 L 23.100 82.602 17.800 94.978 C 14.885 101.785, 11.985 107.521, 11.355 107.725 C 10.556 107.984, 9.992 104.019, 9.488 94.617 C 8.787 81.536, 8.835 81.039, 11.097 77.819 C 12.379 75.993, 13.782 74.350, 14.214 74.167 C 14.646 73.983, 15 73.368, 15 72.800 C 15 71.648, 2.557 72.109, 1.362 73.305 C 0.968 73.699, 0.441 89.770, 0.190 109.020 L -0.266 144.020 45.979 143.760 L 92.224 143.500 94.613 135.500 C 97.055 127.327, 97.875 123.439, 100.067 109.656 C 101.119 103.042, 101.096 101.677, 99.916 100.948 C 98.802 100.259, 98.770 99.830, 99.758 98.842 C 101.761 96.839, 101.209 96, 97.893 96 C 95.332 96, 94.910 96.307, 95.492 97.750 C 97.469 102.656, 97.004 106.821, 93.238 117.940 C 91.107 124.231, 88.896 129.535, 88.325 129.725 C 87.754 129.915, 87.013 127.918, 86.679 125.286 C 83.534 100.527, 83.548 103.281, 86.542 98.757 C 89.114 94.871, 89.161 94.591, 87.453 93.342 C 85.565 91.962, 79.221 90.446, 78.470 91.196 C 78.231 91.436, 78.442 93.056, 78.941 94.796 C 79.694 97.420, 79.068 100.184, 75.267 111.022 C 72.747 118.207, 70.354 123.729, 69.949 123.293 C 69.544 122.857, 68.459 116.805, 67.537 109.845 C 65.879 97.321, 65.883 97.149, 67.951 93.095 C 69.100 90.843, 70.482 89, 71.020 89 C 73.248 89, 71.739 84.458, 67.912 79.643 C 62.177 72.429, 61.043 71.976, 62.283 77.396 C 63.168 81.260, 62.865 82.905, 59.484 92.614 C 55.068 105.296, 54.183 107.231, 53.105 106.565 C 52.668 106.295, 51.727 100.029, 51.014 92.641 L 49.717 79.209 52.859 74.554 C 54.586 71.994, 56 69.623, 56 69.285 C 56 68.537, 47.702 60.007, 47 60.034 C 46.725 60.045, 45.263 60.820, 43.750 61.758 M 118.020 68.476 C 117.231 69.426, 117.155 70, 117.819 70 C 119.027 70, 120.436 68.103, 119.743 67.409 C 119.491 67.158, 118.716 67.638, 118.020 68.476 M 183.199 87.986 C 178.877 89.010, 178.439 89.562, 179.811 92.252 C 183.025 98.549, 183.007 99.509, 179.451 111.597 C 177.553 118.047, 176 123.476, 176 123.662 C 176 123.848, 175.599 124, 175.108 124 C 174.210 124, 169.974 103.473, 169.991 99.200 C 169.996 97.936, 170.687 95.573, 171.526 93.950 L 173.051 91 166.026 91 C 162.162 91, 159 91.277, 159 91.616 C 159 91.954, 159.759 94.368, 160.686 96.979 C 162.318 101.573, 162.299 101.982, 160.095 109.613 C 155.255 126.370, 154.490 127.956, 153.452 123.395 C 153.089 121.803, 152.465 119.150, 152.066 117.500 C 151.666 115.850, 151.375 121.137, 151.420 129.249 L 151.500 143.998 171.750 143.999 L 192 144 192 131.051 C 192 121.206, 191.404 115.171, 189.515 105.875 C 187.251 94.739, 187.162 93.382, 188.515 90.670 C 189.332 89.033, 190 87.537, 190 87.346 C 190 86.820, 186.885 87.114, 183.199 87.986 M 151.065 92.422 C 150.378 93.250, 150.285 94.058, 150.838 94.400 C 151.353 94.718, 152.296 94.348, 152.935 93.578 C 153.622 92.750, 153.715 91.942, 153.162 91.600 C 152.647 91.282, 151.704 91.652, 151.065 92.422" stroke="none" fill="black" fill-rule="evenodd"/>
</svg>