<svg xmlns="http://www.w3.org/2000/svg" width="192" height="144" viewBox="0 0 192 144" version="1.1">
	<path d="M 85.469 42.500 C 85.211 43.325, 84.770 44.726, 84.488 45.613 C 83.983 47.204, 82.795 47.164, 78.503 45.412 C 76.547 44.613, 76.542 44.653, 78.298 47.332 C 80.038 49.987, 80.030 50.146, 78.046 52.669 C 75.176 56.318, 75.372 62.253, 78.542 67.662 C 79.940 70.048, 81.500 72, 82.007 72 C 82.515 72, 84.468 73.350, 86.347 75 C 88.226 76.650, 90.172 78, 90.670 78 C 91.995 78, 103.325 89.025, 105.369 92.304 C 106.330 93.846, 107.878 95.379, 108.808 95.710 C 115.473 98.086, 133.275 105.259, 136.831 107.002 C 141.058 109.074, 141.380 109.087, 150.274 107.560 C 158.502 106.146, 160.939 105.046, 160.985 102.725 C 160.993 102.299, 159.650 101.680, 158 101.350 C 156.350 101.020, 155 100.439, 155 100.059 C 155 99.679, 156.608 97.945, 158.572 96.205 C 162.036 93.138, 162.393 91, 159.441 91 C 157.865 91, 157.488 89.434, 158.860 88.586 C 160.158 87.784, 160.967 79.960, 160.157 76.057 C 159.569 73.230, 158.589 72.189, 154.676 70.238 L 149.911 67.862 138.205 70.838 C 131.767 72.475, 124.798 74.105, 122.718 74.459 C 119.073 75.079, 118.955 75.010, 119.468 72.551 C 119.761 71.148, 120.234 68.875, 120.519 67.500 C 120.937 65.487, 120.644 65, 119.019 65 C 116.431 65, 116.420 63.381, 119 62 C 122.200 60.287, 121.330 59.423, 116.750 59.764 L 112.500 60.080 115.608 57.290 C 118.755 54.465, 119.087 52, 116.320 52 C 115.488 52, 112.762 53.800, 110.263 56 C 107.763 58.200, 104.867 60, 103.827 60 C 100.885 60, 95.014 57.248, 94.871 55.801 C 94.800 55.085, 94.668 53.343, 94.577 51.928 C 94.486 50.514, 93.864 48.714, 93.195 47.928 C 92.526 47.143, 91.050 45.263, 89.917 43.750 C 87.609 40.672, 86.166 40.267, 85.469 42.500" stroke="none" fill="black" fill-rule="evenodd"/>
</svg>