<svg xmlns="http://www.w3.org/2000/svg" width="192" height="144" viewBox="0 0 192 144" version="1.1">
	<path d="M 0 72 L 0 144 35.750 143.992 L 71.500 143.983 73.833 133.742 C 75.117 128.109, 77.091 121.025, 78.220 118 C 79.793 113.785, 80.353 109.522, 80.616 99.750 C 80.806 92.737, 80.622 87, 80.208 87 C 79.794 87, 78.620 88.551, 77.599 90.447 C 76.578 92.342, 74.660 94.910, 73.337 96.153 C 71.132 98.225, 70.664 98.302, 67.716 97.078 C 65.947 96.344, 61.423 94.912, 57.662 93.895 C 53.150 92.674, 50.187 91.236, 48.953 89.667 C 47.583 87.926, 45.705 87.125, 41.943 86.680 C 36.606 86.048, 29.841 83.260, 29.294 81.468 C 29.114 80.880, 30.983 80.349, 33.641 80.233 C 39.106 79.995, 39.429 79.792, 38.241 77.347 C 37.747 76.331, 36.376 73.538, 35.195 71.141 C 33.579 67.862, 33.297 66.313, 34.058 64.891 C 34.615 63.851, 35.513 63, 36.054 63 C 36.606 63, 36.761 61.894, 36.406 60.481 C 36.058 59.095, 36.329 56.620, 37.008 54.981 C 38.271 51.932, 39.424 51.258, 40.473 52.956 C 40.798 53.482, 41.677 53.677, 42.427 53.390 C 43.274 53.065, 44.164 53.932, 44.780 55.683 L 45.772 58.500 46.721 56.080 C 47.655 53.699, 47.722 53.735, 50.858 58.293 L 54.046 62.927 51.977 69.069 C 50.839 72.448, 49.176 76.327, 48.283 77.691 C 46.927 79.760, 46.885 80.311, 48.031 81.019 C 48.787 81.486, 49.876 81.574, 50.452 81.215 C 52.109 80.182, 55.734 80.968, 61.327 83.572 C 64.172 84.897, 66.965 85.985, 67.534 85.990 C 68.942 86.004, 71.967 77.589, 71.372 75.315 C 71.074 74.176, 72.236 71.916, 74.447 69.333 C 78.649 64.423, 78.742 64, 75.617 64 C 73.868 64, 73.106 63.334, 72.755 61.500 C 72.326 59.254, 72.603 59, 75.484 59 L 78.691 59 79.327 46.750 C 79.909 35.548, 80.536 31.585, 82.484 26.799 C 83.079 25.336, 82.691 25.176, 79.715 25.659 C 77.812 25.968, 76.023 25.833, 75.741 25.360 C 75.458 24.887, 74.899 21.179, 74.499 17.119 L 73.771 9.739 78.635 10.452 C 81.311 10.844, 85.470 12.028, 87.877 13.083 C 94.781 16.107, 99.580 15.599, 108.933 10.853 C 114.403 8.078, 117.438 7.038, 118.110 7.710 C 118.662 8.262, 119.729 11.361, 120.481 14.596 C 121.947 20.901, 121.311 23, 117.937 23 C 116.936 23, 115.814 23.492, 115.442 24.094 C 115.070 24.696, 113.734 24.991, 112.473 24.750 C 110.263 24.328, 110.229 24.422, 111.531 27.406 C 112.274 29.108, 113.847 36.568, 115.027 43.985 C 116.207 51.402, 117.385 57.814, 117.645 58.235 C 117.905 58.656, 119.264 59, 120.664 59 C 123.059 59, 123.185 59.251, 122.784 63.250 C 122.548 65.614, 122.981 69.014, 123.760 70.912 C 125.183 74.374, 124.671 81.533, 123.072 80.544 C 122.617 80.263, 122.013 82.613, 121.729 85.767 C 121.151 92.181, 121.791 93.648, 128.191 100.591 C 130.352 102.936, 132.016 105.450, 131.889 106.177 C 131.761 106.905, 132 110.003, 132.420 113.062 C 133.325 119.656, 131.575 124.922, 127.616 127.516 C 123.997 129.887, 122.051 128.949, 124.827 126.173 C 126.038 124.962, 127.106 123.190, 127.201 122.236 C 127.490 119.319, 125.801 112, 124.838 112 C 124.340 112, 123.004 110.426, 121.868 108.501 C 120.733 106.577, 119.398 105.254, 118.902 105.561 C 118.406 105.867, 117.986 105.304, 117.968 104.309 C 117.938 102.601, 117.863 102.597, 116.619 104.234 C 115.895 105.188, 115.031 105.698, 114.700 105.366 C 113.188 103.854, 112.894 110.449, 114.302 114.293 C 116.037 119.031, 121.554 137.042, 122.563 141.263 L 123.223 144.026 157.862 143.763 L 192.500 143.500 192.757 71.750 L 193.013 0 96.507 0 L 0 0 0 72 M 0.474 72.500 C 0.474 112.100, 0.598 128.154, 0.750 108.176 C 0.901 88.198, 0.901 55.798, 0.750 36.176 C 0.598 16.554, 0.474 32.900, 0.474 72.500 M 82.195 85.500 C 82.215 87.150, 82.439 87.704, 82.693 86.731 C 82.947 85.758, 82.930 84.408, 82.656 83.731 C 82.382 83.054, 82.175 83.850, 82.195 85.500" stroke="none" fill="black" fill-rule="evenodd"/>
</svg>