<svg xmlns="http://www.w3.org/2000/svg" width="192" height="144" viewBox="0 0 192 144" version="1.1">
	<path d="M 12.224 4.750 C 10.044 7.362, 6.402 12.545, 4.131 16.268 L 0 23.035 0 72.342 L 0 121.649 5.977 130.574 C 16.024 145.579, 11.980 144, 40.364 144 L 64.907 144 63.554 141.250 C 59.714 133.448, 58.852 120.600, 61.442 109.763 C 65.269 93.751, 81.084 76.938, 96.548 72.443 C 99.376 71.621, 103.801 69.610, 106.380 67.974 C 108.959 66.338, 111.403 65, 111.812 65 C 113.430 65, 126 50.993, 126 49.189 C 126 48.614, 126.565 47.548, 127.256 46.821 C 129.431 44.532, 132.738 36.720, 134.044 30.786 C 135.553 23.932, 134.795 11.590, 132.444 4.750 L 130.812 0 73.499 0 L 16.186 -0 12.224 4.750 M 181.189 5.750 C 183.527 8.912, 186.916 13.949, 188.720 16.941 L 192 22.382 192 11.191 L 192 0 184.468 0 L 176.937 0 181.189 5.750 M 76.090 12.091 C 71.477 13.935, 69 17.694, 69 22.849 C 69 27.060, 69.446 28.030, 72.963 31.464 C 76.356 34.777, 77.562 35.333, 81.353 35.333 C 84.537 35.333, 86.629 34.654, 88.797 32.917 C 92.208 30.183, 92.967 28.273, 92.986 22.366 C 92.998 18.804, 92.447 17.733, 88.997 14.616 C 84.795 10.820, 81.084 10.094, 76.090 12.091 M 103.597 108.266 C 101.230 109.621, 98.699 112.293, 97.163 115.057 C 94.812 119.290, 94.721 119.930, 95.882 124.057 C 97.228 128.839, 101.931 133.080, 107.346 134.395 C 111.481 135.399, 120.667 132.499, 122.126 129.729 C 122.771 128.503, 123.795 127.178, 124.400 126.785 C 125.006 126.391, 125.484 123.371, 125.465 120.064 C 125.435 114.824, 125.061 113.673, 122.528 111.030 C 120.932 109.363, 118.810 108, 117.813 108 C 116.816 108, 116 107.550, 116 107 C 116 105.118, 107.600 105.975, 103.597 108.266 M 187.818 128.761 C 185.793 131.917, 182.488 136.637, 180.473 139.250 L 176.808 144 184.404 144 L 192 144 192 133.500 C 192 127.725, 191.887 123.005, 191.750 123.011 C 191.613 123.017, 189.843 125.605, 187.818 128.761" stroke="none" fill="black" fill-rule="evenodd"/>
</svg>