<svg xmlns="http://www.w3.org/2000/svg" width="192" height="144" viewBox="0 0 192 144" version="1.1">
	<path d="M 63.755 4.805 C 65.052 18.301, 58.381 35.523, 48.086 45.257 C 35.961 56.720, 13.657 63.077, 1.750 58.464 C 0.100 57.825, 0 60.247, 0 100.893 L 0 144 52.362 144 L 104.725 144 105.361 138.586 C 105.711 135.608, 107.567 128.164, 109.486 122.044 C 111.405 115.924, 113.456 107.898, 114.043 104.209 C 114.630 100.519, 115.546 95.549, 116.079 93.165 C 117.392 87.284, 116.267 79.220, 114.035 78.511 C 113.092 78.212, 111.755 76.911, 111.064 75.620 C 110.018 73.665, 110.087 72.732, 111.478 70.043 C 112.396 68.267, 113.002 66.671, 112.824 66.497 C 112.646 66.322, 110.700 66.807, 108.500 67.574 C 103.765 69.226, 101 69.383, 101 68 C 101 67.450, 100.127 67, 99.059 67 C 97.991 67, 96.840 66.550, 96.500 66 C 96.160 65.450, 94.203 65, 92.151 65 C 90.099 65, 83.938 63.578, 78.460 61.839 C 72.982 60.101, 67.671 58.598, 66.658 58.500 C 64.920 58.331, 63.049 56.405, 63.015 54.750 C 62.987 53.364, 68.884 53.983, 73.713 55.873 C 76.346 56.904, 82.361 58.289, 87.079 58.952 C 94.957 60.060, 95.937 60.003, 99.079 58.263 C 101.388 56.984, 103.313 56.601, 105 57.084 C 106.375 57.478, 109.585 57.845, 112.133 57.900 C 115.972 57.983, 116.856 57.657, 117.290 56 C 117.613 54.762, 117.320 54, 116.521 54 C 114.796 54, 111.714 49.187, 112.361 47.502 C 112.643 46.767, 112.223 45.916, 111.428 45.611 C 110.633 45.306, 109.483 43.959, 108.872 42.618 C 107.997 40.698, 108.086 39.715, 109.290 37.996 C 110.637 36.073, 110.647 35.400, 109.378 32.362 C 108.585 30.465, 108.185 28.509, 108.490 28.016 C 109.138 26.967, 117.094 29.182, 124.597 32.500 C 130.914 35.294, 132.585 37.640, 133.860 45.500 C 134.395 48.800, 135.320 52.767, 135.916 54.315 C 136.512 55.863, 137 58.597, 137 60.391 C 137 62.540, 137.818 64.420, 139.400 65.906 C 141.014 67.422, 141.800 69.266, 141.800 71.535 C 141.800 73.391, 142.476 76.842, 143.303 79.205 C 144.129 81.567, 145.351 88.450, 146.016 94.500 C 146.682 100.550, 147.642 106.287, 148.149 107.250 C 148.726 108.346, 148.709 109, 148.103 109 C 147.570 109, 146.849 109.900, 146.500 111 C 146.151 112.100, 145.221 113, 144.433 113 C 143.645 113, 143 113.251, 143 113.558 C 143 113.864, 145.452 119.655, 148.448 126.427 C 151.445 133.198, 154.196 139.932, 154.562 141.391 L 155.228 144.043 173.864 143.772 L 192.500 143.500 192.825 129 C 193.003 121.025, 192.837 88.737, 192.455 57.250 L 191.761 0 127.527 -0 L 63.294 -0 63.755 4.805 M 0.459 101 C 0.459 124.925, 0.589 134.713, 0.749 122.750 C 0.908 110.788, 0.908 91.213, 0.749 79.250 C 0.589 67.288, 0.459 77.075, 0.459 101 M 137.410 91.285 C 138.243 100.829, 139.193 103.826, 140.014 99.500 C 140.605 96.385, 138.787 85.415, 137.478 84.196 C 137.067 83.813, 137.036 87.003, 137.410 91.285" stroke="none" fill="black" fill-rule="evenodd"/>
</svg>