<svg xmlns="http://www.w3.org/2000/svg" width="192" height="144" viewBox="0 0 192 144" version="1.1">
	<path d="M 0 72 L 0 144 34.849 144 L 69.697 144 71.981 135.250 C 73.237 130.438, 75.330 123.634, 76.632 120.131 C 79.229 113.146, 79.512 111.565, 78 112.500 C 77.450 112.840, 77 112.416, 77 111.559 C 77 110.702, 76.377 110, 75.617 110 C 74.856 110, 73.956 108.987, 73.617 107.750 C 73.101 105.868, 72.836 105.745, 72 107 C 70.475 109.288, 69.034 106.489, 69.015 101.199 C 69.001 97.276, 68.707 96.776, 65.668 95.506 C 63.835 94.740, 60.122 93.576, 57.418 92.920 C 54.713 92.264, 51.579 90.700, 50.453 89.444 C 49.041 87.869, 46.406 86.804, 41.953 86.009 C 35.115 84.787, 31 82.784, 31 80.678 C 31 79.808, 32.114 79.532, 34.495 79.810 C 36.418 80.034, 38.686 79.951, 39.537 79.624 C 40.877 79.110, 40.814 78.663, 39.066 76.265 C 36.238 72.388, 33.665 61.599, 34.503 57.131 L 35.184 53.503 36.624 56.252 C 38.772 60.351, 40 59.589, 40 54.155 C 40 50.736, 40.537 48.824, 41.824 47.660 C 43.532 46.114, 43.785 46.167, 45.817 48.505 C 47.010 49.877, 48.582 51, 49.309 51 C 51.473 51, 55 58.387, 55 62.918 C 55 68.164, 52.799 73.502, 50.024 74.987 C 48.630 75.733, 47.987 76.899, 48.189 78.318 C 48.453 80.170, 49.331 80.590, 54 81.094 C 57.025 81.421, 61.391 82.659, 63.702 83.844 C 68.791 86.455, 69.635 86.508, 70.221 84.250 C 71.089 80.901, 69.926 79.874, 67.948 82.244 C 66.110 84.448, 66.066 84.452, 66.033 82.441 C 66.015 81.309, 67.616 77.709, 69.591 74.441 C 75.705 64.327, 76.203 62.943, 78.006 51.055 C 80.226 36.416, 81.401 32.162, 84.471 27.637 L 86.940 24 83.970 24 C 81.476 24, 81 23.603, 81 21.522 C 81 18.493, 86.015 7.998, 87.458 8.006 C 90.787 8.023, 96.173 10.456, 99.848 13.602 C 103.576 16.793, 104.495 17.136, 107.782 16.559 C 118.493 14.681, 120 14.701, 120 16.718 C 120 17.773, 119.308 20.967, 118.463 23.814 C 117.347 27.570, 117.210 29.524, 117.963 30.930 C 118.533 31.996, 118.998 34.361, 118.996 36.184 C 118.992 39.729, 115.522 46.441, 114.136 45.584 C 113.678 45.301, 112.335 45.971, 111.151 47.074 C 108.494 49.549, 107.990 58, 110.500 58 C 111.325 58, 112 58.597, 112 59.326 C 112 60.055, 113.132 61.715, 114.516 63.015 C 115.900 64.315, 118.247 67.431, 119.732 69.939 C 121.947 73.681, 122.457 75.811, 122.567 81.801 C 122.641 85.816, 123.119 89.519, 123.630 90.030 C 124.140 90.540, 128.145 91.497, 132.529 92.156 C 136.913 92.816, 141.357 93.929, 142.405 94.630 C 143.789 95.557, 144.844 95.618, 146.269 94.856 C 147.348 94.279, 149.528 93.997, 151.115 94.230 C 153.453 94.573, 154 94.284, 154 92.704 C 154 91.043, 154.233 90.948, 155.576 92.063 C 156.882 93.147, 157.304 93.127, 158.035 91.944 C 159.425 89.695, 161.385 92.329, 160.612 95.409 C 159.803 98.634, 154.926 101.220, 149.008 101.561 C 146.529 101.704, 143.194 102.326, 141.598 102.943 C 139.266 103.846, 137.120 103.667, 130.658 102.033 C 126.237 100.915, 121.658 100, 120.484 100 C 117.684 100, 114.564 96.481, 112.949 91.500 L 111.652 87.500 110.281 92.857 C 109.111 97.431, 109.116 98.528, 110.318 100.362 C 111.142 101.621, 111.525 103.876, 111.242 105.807 C 110.900 108.138, 111.814 111.652, 114.365 117.807 C 116.350 122.594, 119.258 130.333, 120.827 135.005 L 123.682 143.500 158.091 143.500 L 192.500 143.500 192.757 71.750 L 193.013 0 96.507 0 L 0 0 0 72 M 0.474 72.500 C 0.474 112.100, 0.598 128.154, 0.750 108.176 C 0.901 88.198, 0.901 55.798, 0.750 36.176 C 0.598 16.554, 0.474 32.900, 0.474 72.500" stroke="none" fill="black" fill-rule="evenodd"/>
</svg>