<svg xmlns="http://www.w3.org/2000/svg" width="192" height="144" viewBox="0 0 192 144" version="1.1">
	<path d="M 0 37.594 L 0 75.188 4.887 71.676 C 9.645 68.259, 13.032 66.514, 27.480 60.043 C 36.137 56.166, 37.946 54.509, 44.448 44.500 C 52.247 32.496, 56.231 29.446, 65 28.770 C 67.808 28.553, 68.565 28.039, 68.830 26.168 C 69.012 24.885, 68.377 22.969, 67.420 21.911 C 65.174 19.430, 66.279 18.350, 69.543 19.838 C 74.861 22.261, 77.564 21.372, 82.594 15.545 C 86.807 10.665, 92.458 7.125, 93.835 8.502 C 94.116 8.783, 92.373 10.697, 89.962 12.756 L 85.578 16.500 89.322 17 C 94.125 17.641, 94.547 19.402, 90 19.828 C 84.886 20.308, 82.943 22.388, 84.286 25.946 C 84.874 27.504, 86.633 29.533, 88.195 30.456 C 91.575 32.453, 91.021 34.135, 87.211 33.440 C 83.343 32.735, 81.104 34.390, 82.771 36.722 C 85.612 40.695, 87.957 46.705, 87.978 50.063 C 88.005 54.500, 83.520 59.346, 79.860 58.832 C 78.032 58.575, 77.539 58.939, 77.672 60.447 C 77.766 61.518, 77.277 62.868, 76.585 63.447 C 75.892 64.026, 74.810 66.863, 74.180 69.752 C 73.025 75.046, 73.431 77.012, 77.190 84.346 C 77.875 85.681, 77.676 86.701, 76.470 88.033 C 74.610 90.089, 75.245 92, 77.790 92 C 78.709 92, 81.836 91.016, 84.739 89.813 C 88.947 88.069, 89.899 87.258, 89.441 85.813 C 89.124 84.816, 89.297 84, 89.824 84 C 91.340 84, 92.212 78.960, 90.957 77.448 C 89.115 75.228, 90.689 74.194, 95.976 74.153 C 101.211 74.113, 103.148 75.258, 100.423 76.783 C 98.955 77.605, 98.997 78.091, 100.877 81.981 C 102.017 84.341, 102.756 86.586, 102.519 86.970 C 102.281 87.354, 104.430 88.595, 107.294 89.728 C 116.030 93.183, 116 93.180, 116 90.669 C 116 89.421, 115.499 87.899, 114.887 87.287 C 114.227 86.627, 114.122 85.630, 114.629 84.837 C 117.276 80.696, 117.937 76.397, 116.833 70.500 C 114.617 58.666, 114.626 58.685, 111.576 58.277 C 110.016 58.068, 107.649 57.132, 106.316 56.198 C 104.086 54.635, 103.938 54.027, 104.451 48.559 C 104.923 43.534, 105.608 41.908, 108.891 38.015 C 112.563 33.659, 112.696 33.268, 111.373 30.742 C 110.604 29.274, 109.396 28.295, 108.689 28.566 C 107.982 28.837, 106.306 27.891, 104.965 26.463 L 102.526 23.866 104.737 22.183 C 106.358 20.949, 106.692 20.100, 105.989 19 C 104.676 16.945, 104.752 14.729, 106.107 15.566 C 106.865 16.035, 106.989 15.501, 106.500 13.875 C 105.860 11.747, 105.946 11.656, 107.334 13 C 108.185 13.825, 111.097 17.822, 113.805 21.882 L 118.727 29.265 126.816 29.382 C 134.831 29.499, 134.943 29.537, 139.071 33.500 C 141.362 35.700, 145.167 40.477, 147.526 44.116 C 153.402 53.180, 155.946 54.737, 169.265 57.424 C 175.444 58.670, 182.242 60.435, 184.372 61.345 C 186.502 62.255, 189.067 63, 190.072 63 C 191.589 63, 191.962 63.979, 192.261 68.750 C 192.459 71.912, 192.707 57.738, 192.811 37.250 L 193 0 96.500 0 L 0 0 0 37.594 M 0.453 38 C 0.453 58.625, 0.586 67.063, 0.749 56.750 C 0.911 46.438, 0.911 29.563, 0.749 19.250 C 0.586 8.938, 0.453 17.375, 0.453 38 M 190.500 85 C 190.840 85.550, 191.316 86, 191.559 86 C 191.802 86, 192 85.550, 192 85 C 192 84.450, 191.523 84, 190.941 84 C 190.359 84, 190.160 84.450, 190.500 85 M 116 86.059 C 116 86.641, 116.450 86.840, 117 86.500 C 117.550 86.160, 118 85.684, 118 85.441 C 118 85.198, 117.550 85, 117 85 C 116.450 85, 116 85.477, 116 86.059 M 145 85.453 C 145 87.123, 147.558 91, 148.661 91 C 150.469 91, 150.298 89.937, 148.056 87.250 C 146.311 85.158, 145 84.387, 145 85.453 M 149.250 93.031 C 146.778 94.025, 146.728 94.128, 147.607 96.418 C 148.034 97.531, 149.526 98, 152.637 98 L 157.060 98 154.842 95 C 152.410 91.711, 152.477 91.734, 149.250 93.031 M 161 95 C 161 95.550, 161.477 96, 162.059 96 C 164.967 96, 161.119 98.210, 154.949 100.084 C 151.127 101.245, 147.956 102.713, 147.903 103.347 C 147.578 107.219, 148.385 112.843, 149.604 115.201 C 150.757 117.432, 152.634 118.445, 159.684 120.643 C 169.590 123.731, 175.638 128.065, 183.290 137.558 C 186.530 141.577, 188.795 143.500, 190.290 143.500 C 192.462 143.500, 192.505 143.231, 192.808 128 C 192.978 119.475, 192.835 109.739, 192.491 106.365 L 191.865 100.230 182.295 97.086 C 177.031 95.357, 172.554 94.113, 172.344 94.322 C 172.135 94.531, 174.704 96.163, 178.053 97.947 C 181.401 99.732, 183.940 101.393, 183.694 101.639 C 183.448 101.885, 180.829 101.127, 177.874 99.954 C 161.782 93.571, 161 93.342, 161 95 M 0.500 96 C 0.160 96.550, 0.332 97, 0.882 97 C 1.432 97, 2.160 96.550, 2.500 96 C 2.840 95.450, 2.668 95, 2.118 95 C 1.568 95, 0.840 95.450, 0.500 96 M 30.742 96.914 C 26.581 99.582, 26.412 100, 29.500 100 C 31.058 100, 32.052 99.719, 31.709 99.376 C 31.366 99.033, 32.078 97.923, 33.293 96.909 C 36.089 94.575, 34.386 94.578, 30.742 96.914 M 39.667 95.667 C 38.744 96.589, 38.830 98, 39.809 98 C 40.254 98, 41.491 97.339, 42.559 96.532 C 44.466 95.089, 44.464 95.063, 42.417 95.032 C 41.271 95.014, 40.033 95.300, 39.667 95.667 M 80.770 99.887 C 75.968 102.424, 72.031 105.093, 72.020 105.817 C 72.008 106.614, 72.692 106.922, 73.750 106.596 C 74.713 106.299, 78.533 105.127, 82.240 103.991 C 87.696 102.319, 89.096 101.464, 89.588 99.506 C 89.922 98.175, 90.039 96.678, 89.848 96.180 C 89.656 95.682, 85.571 97.350, 80.770 99.887 M 102.355 98.024 C 102.721 99.856, 103.129 101.418, 103.260 101.496 C 105.303 102.702, 118.490 106.842, 118.916 106.411 C 119.751 105.567, 115.082 102.047, 107.887 98.097 L 101.689 94.693 102.355 98.024 M 1 99 C 0.175 99.533, -0.050 99.969, 0.500 99.969 C 1.050 99.969, 2.175 99.533, 3 99 C 3.825 98.467, 4.050 98.031, 3.500 98.031 C 2.950 98.031, 1.825 98.467, 1 99 M 10.500 104.034 C 4.507 107.956, 2.340 108.876, 3.493 107.011 C 3.843 106.445, 3.442 106.277, 2.552 106.618 C 1.227 107.127, 1 109.907, 1 125.607 L 1 144 11.930 144 L 22.860 144 28.103 134.916 C 30.986 129.920, 35.299 123.660, 37.686 121.004 C 42.459 115.695, 44.714 110.245, 44.204 105.247 C 43.908 102.340, 43.610 102.060, 41.402 102.614 C 40.044 102.955, 35.379 102.681, 31.036 102.006 L 23.139 100.777 17.842 104.328 C 14.928 106.280, 12.353 107.687, 12.120 107.453 C 11.744 107.078, 13.174 105.784, 18.940 101.282 C 20.312 100.211, 20.259 100.066, 18.500 100.086 C 17.400 100.098, 13.800 101.875, 10.500 104.034 M 93.500 106.718 C 91.736 109.994, 90.263 110.940, 81 114.753 C 74.429 117.457, 69.658 118.866, 68.250 118.518 C 66.411 118.064, 66.003 118.377, 66.017 120.231 C 66.036 122.672, 68.089 132.904, 69.939 139.772 L 71.077 144 97.397 144 L 123.718 144 124.859 133.964 C 126.570 118.919, 126.485 117.840, 123.656 118.550 C 122.103 118.940, 117.799 117.648, 110.906 114.722 C 101.903 110.902, 100.230 109.814, 98.500 106.656 C 97.400 104.648, 96.275 103.005, 96 103.005 C 95.725 103.005, 94.600 104.676, 93.500 106.718" stroke="none" fill="black" fill-rule="evenodd"/>
</svg>