<svg xmlns="http://www.w3.org/2000/svg" width="192" height="144" viewBox="0 0 192 144" version="1.1">
	<path d="M 0 72 L 0 144 16.465 144 C 31.720 144, 33.006 143.858, 33.965 142.066 C 35.688 138.847, 35.237 137.724, 32.500 138.411 C 28.733 139.356, 29.474 137.247, 33.500 135.564 C 35.425 134.760, 37 133.612, 37 133.013 C 37 131.869, 52.433 111.469, 54.059 110.464 C 54.576 110.144, 55 108.975, 55 107.865 C 55 106.756, 56.820 102.732, 59.045 98.923 C 64.642 89.340, 65.839 85.399, 66.068 75.809 C 66.243 68.442, 66.068 67.518, 64.520 67.658 C 63.049 67.791, 62.871 67.238, 63.386 64.158 C 63.723 62.146, 64.260 59.549, 64.580 58.388 C 65.006 56.839, 64.635 56.138, 63.190 55.760 C 61.111 55.216, 55.408 44.484, 54.467 39.344 C 53.502 34.079, 54.777 33.568, 63.936 35.547 C 71.687 37.222, 72.307 37.224, 75.724 35.595 C 80.712 33.216, 95.062 31.620, 96.657 33.267 C 98.339 35.005, 102 45.891, 102 49.156 C 102 50.655, 101.550 52.160, 101 52.500 C 100.450 52.840, 100 54.148, 100 55.406 C 100 56.664, 99.100 58.732, 98 60 C 96.009 62.296, 95.357 67.441, 96.775 69.671 C 97.185 70.315, 98.704 71.139, 100.150 71.502 C 104.820 72.674, 107.968 77.118, 110.061 85.495 C 111.128 89.762, 112 94.360, 112 95.713 C 112 97.359, 113.986 100.241, 118 104.421 C 124.033 110.705, 124.952 112.648, 122.873 114.727 C 121.375 116.225, 122.628 121, 124.519 121 C 125.334 121, 126 121.705, 126 122.566 C 126 125.067, 120.708 123.974, 119.502 121.224 C 118.333 118.559, 116.235 118.676, 114.535 121.500 C 113.571 123.101, 113.723 125.550, 115.295 133.762 L 117.260 144.024 154.880 143.762 L 192.500 143.500 192.757 71.750 L 193.013 0 96.507 0 L 0 0 0 72 M 0.474 72.500 C 0.474 112.100, 0.598 128.154, 0.750 108.176 C 0.901 88.198, 0.901 55.798, 0.750 36.176 C 0.598 16.554, 0.474 32.900, 0.474 72.500 M 79.683 113.328 C 77.584 115.897, 75.305 118, 74.620 118 C 72.998 118, 68.936 122.455, 65.956 127.500 C 64.657 129.700, 60.914 134.313, 57.639 137.750 L 51.683 144 62.262 144 L 72.841 144 73.550 140.750 C 75.095 133.662, 79.123 122.771, 81.564 119.082 C 83.326 116.420, 84.039 114.156, 83.820 111.922 L 83.500 108.655 79.683 113.328" stroke="none" fill="black" fill-rule="evenodd"/>
</svg>