<svg xmlns="http://www.w3.org/2000/svg" width="192" height="144" viewBox="0 0 192 144" version="1.1">
	<path d="M -0 72.005 L -0 144.010 96.250 143.755 L 192.500 143.500 192.757 71.750 L 193.013 0 96.507 0 L 0 0 -0 72.005 M 0.474 72.500 C 0.474 112.100, 0.598 128.154, 0.750 108.176 C 0.901 88.198, 0.901 55.798, 0.750 36.176 C 0.598 16.554, 0.474 32.900, 0.474 72.500 M 132.510 43.669 C 130.316 44.459, 128.156 45.757, 127.711 46.553 C 127.265 47.349, 126.506 48, 126.024 48 C 125.542 48, 122.102 49.767, 118.380 51.926 L 111.613 55.852 108.729 53.426 C 104.974 50.266, 102.361 49.680, 94.310 50.193 C 88.079 50.590, 87.469 50.850, 84.372 54.432 C 82.558 56.531, 79.707 60.874, 78.037 64.083 C 74.368 71.133, 74.069 76.546, 77.133 80.442 L 79.266 83.153 74.925 87.577 C 72.537 90.010, 71.015 92.002, 71.542 92.004 C 72.069 92.006, 71.150 92.878, 69.500 93.941 C 67.850 95.005, 65.423 96.741, 64.108 97.799 C 61.779 99.672, 61.759 99.810, 63.362 103.024 C 64.268 104.839, 64.782 106.552, 64.504 106.829 C 64.227 107.106, 64 106.733, 64 106 C 64 105.267, 63.762 104.904, 63.472 105.195 C 62.553 106.114, 64.950 111.149, 65.998 110.501 C 66.549 110.161, 67 110.419, 67 111.076 C 67 112.565, 70.123 108.512, 72.068 104.500 C 77.840 92.592, 85.106 86, 92.460 86 C 96.114 86, 96.816 86.784, 94.887 88.713 C 93.256 90.344, 94.524 91.682, 97.789 91.775 C 100.141 91.842, 100.859 91.278, 101.825 88.607 C 102.471 86.820, 103 84.672, 103 83.834 C 103 82.996, 103.968 81.453, 105.151 80.405 C 108.608 77.344, 113 69.831, 113 66.979 C 113 62.721, 120.097 57.667, 129.711 55.078 C 132.020 54.456, 134.573 53.284, 135.384 52.474 C 136.194 51.663, 137.677 50.968, 138.679 50.930 C 140.318 50.866, 140.300 50.774, 138.500 50 L 136.500 49.141 138.500 48.991 C 139.675 48.904, 139.967 48.628, 139.208 48.324 C 138.206 47.922, 138.182 47.486, 139.100 46.380 C 140.054 45.230, 139.973 45.073, 138.681 45.569 C 137.467 46.035, 137.177 45.678, 137.482 44.092 C 137.939 41.719, 137.930 41.718, 132.510 43.669" stroke="none" fill="black" fill-rule="evenodd"/>
</svg>