<svg xmlns="http://www.w3.org/2000/svg" width="192" height="144" viewBox="0 0 192 144" version="1.1">
	<path d="M 95 0.318 C 95 0.494, 95.761 3.081, 96.691 6.068 C 99.153 13.981, 98.840 30.398, 96.042 40.075 C 93.640 48.378, 91.987 52.065, 87.250 59.680 C 85.463 62.553, 84 65.376, 84 65.952 C 84 66.528, 83.535 67, 82.967 67 C 82.398 67, 80.358 68.575, 78.433 70.500 C 76.508 72.425, 74.704 74, 74.424 74 C 73.911 74, 72.270 75.247, 69.164 78 C 66.147 80.673, 51.825 87.235, 48.253 87.581 C 46.343 87.766, 43.215 88.434, 41.302 89.065 C 33.780 91.548, 11.253 88.554, 2.764 83.943 C 1.809 83.424, 0.796 83, 0.514 83 C 0.231 83, 0 96.725, 0 113.500 L 0 144 90.512 144 L 181.024 144 180.418 140.212 C 179.938 137.209, 180.739 133.944, 184.285 124.462 C 186.745 117.883, 189.375 109.800, 190.129 106.500 C 191.476 100.605, 191.510 100.868, 192.064 121.500 C 192.445 135.674, 192.532 131.774, 192.333 109.500 C 192.171 91.350, 192.070 71.708, 192.109 65.852 C 192.186 54.246, 190.886 50.409, 186.674 49.810 C 184.890 49.556, 184.445 48.735, 184.192 45.237 C 183.982 42.336, 183.104 40.195, 181.442 38.533 C 180.099 37.190, 179 35.673, 179 35.162 C 179 33.911, 182.586 33.030, 187.750 33.014 L 192 33 192 16.500 L 192 0 143.500 0 C 116.825 0, 95 0.143, 95 0.318 M 0.445 113.500 C 0.444 130.550, 0.581 137.666, 0.748 129.312 C 0.915 120.959, 0.915 107.009, 0.748 98.312 C 0.582 89.616, 0.445 96.450, 0.445 113.500" stroke="none" fill="black" fill-rule="evenodd"/>
</svg>