<svg xmlns="http://www.w3.org/2000/svg" width="192" height="144" viewBox="0 0 192 144" version="1.1">
	<path d="M 54.444 19.886 C 45.860 23.785, 39.203 35.530, 41.017 43.574 C 42.031 48.070, 44.326 51.330, 49.331 55.380 C 52.488 57.936, 53.911 58.385, 59.010 58.438 C 62.298 58.472, 64.972 58.725, 64.952 59 C 64.898 59.744, 58.436 63.727, 56.062 64.480 C 54.928 64.840, 54 65.989, 54 67.033 C 54 68.078, 53.244 70.517, 52.321 72.454 C 50.548 76.170, 51.039 78.043, 53.294 76.171 C 54.298 75.337, 55.199 75.451, 56.872 76.623 C 58.955 78.082, 59.002 78.348, 57.568 80.537 C 56.181 82.653, 56.182 83.040, 57.579 84.436 C 58.665 85.522, 59.282 88.760, 59.641 95.243 C 59.923 100.334, 60.660 105.540, 61.279 106.812 C 62.125 108.550, 62.106 109.601, 61.202 111.048 C 59.681 113.484, 59.639 120.239, 61.135 121.735 C 61.981 122.581, 61.871 123.865, 60.703 126.784 C 59.440 129.940, 59.347 131.531, 60.224 134.985 C 61.029 138.155, 61.011 139.753, 60.156 141.122 C 58.495 143.781, 58.670 144.057, 61.863 143.814 C 64.485 143.614, 64.737 143.253, 64.847 139.548 C 65 134.400, 65.039 127.916, 64.943 123.750 C 64.902 121.963, 65.166 118.866, 65.530 116.868 C 65.939 114.620, 65.774 112.978, 65.096 112.559 C 63.634 111.656, 63.699 107.701, 65.200 106.200 C 65.880 105.520, 69.139 105, 72.726 105 L 79.051 105 77.643 107.750 C 75.431 112.069, 74.745 120.080, 75.523 132.524 L 76.240 144 92.177 144 L 108.113 144 106.557 141.777 C 103.919 138.012, 104.500 128.709, 107.715 123.223 C 110.286 118.836, 110.463 118.720, 111.039 121.045 L 111.647 123.500 112.415 121.175 C 112.837 119.896, 113.349 119.016, 113.552 119.219 C 113.756 119.422, 114.884 123.965, 116.061 129.313 C 118.244 139.240, 118.123 143.177, 115.697 141.163 C 114.753 140.380, 114.098 140.613, 113.200 142.051 C 112.016 143.946, 112.349 144, 125.317 144 C 137.962 144, 138.764 143.880, 140.826 141.686 C 145.168 137.064, 143.424 130.081, 135.496 120.341 L 131.297 115.182 132.666 105.841 C 133.969 96.946, 135.844 89.158, 138.113 83.214 C 139.129 80.553, 139.179 80.539, 140.647 82.500 C 142.100 84.439, 142.291 84.343, 146.915 79.352 C 152.414 73.416, 156.237 66.025, 156.392 61.026 C 156.486 58.006, 156.020 57.292, 152.822 55.557 C 149.289 53.640, 149.001 53.629, 145.538 55.281 C 141.512 57.200, 139 57.489, 139 56.033 C 139 55.502, 142.210 52.638, 146.132 49.670 C 152.716 44.689, 153.486 44.357, 156.141 45.359 C 158.419 46.219, 159.693 46.107, 162.259 44.819 C 164.042 43.925, 166.287 42.939, 167.250 42.628 C 169.568 41.879, 169.466 40.308, 167 38.768 C 164.416 37.154, 164.476 36.387, 167.250 35.572 C 169.323 34.962, 169.364 34.816, 167.763 33.718 C 166.203 32.648, 166.658 31.890, 172.234 26.263 C 178.101 20.345, 178.603 18.571, 173.684 21.141 C 172.483 21.769, 165.852 25.992, 158.949 30.526 C 152.047 35.060, 143.624 40.170, 140.233 41.882 C 134.206 44.925, 134.043 44.950, 132.999 42.997 C 131.596 40.376, 129.377 40.449, 128.674 43.139 C 128.167 45.076, 127.707 45.203, 123.807 44.475 C 116.530 43.118, 109.411 43.501, 106.504 45.405 C 103.358 47.467, 99.624 55.024, 101.049 56.449 C 102.669 58.069, 102.099 60, 100 60 C 98.329 60, 98 59.333, 98 55.950 C 98 53.723, 97.341 50.627, 96.536 49.069 C 94.625 45.374, 89.379 41, 86.858 41 C 83.624 41, 81.002 39.088, 80.978 36.715 C 80.947 33.552, 77.637 26.682, 74.864 24.025 C 71.661 20.955, 65.156 18.044, 61.500 18.044 C 59.850 18.044, 56.675 18.873, 54.444 19.886 M 69.971 72.088 C 69.288 74.158, 69.064 76.672, 69.473 77.676 C 69.882 78.679, 70.350 82.795, 70.514 86.822 C 70.677 90.850, 70.966 94.287, 71.156 94.461 C 71.345 94.635, 76.225 93.815, 82 92.639 L 92.500 90.500 95.192 85 C 98.447 78.349, 98.574 76.830, 96.067 74.561 C 95.005 73.599, 94.376 72.183, 94.671 71.414 C 95.536 69.160, 92.098 68.583, 88.375 70.358 C 83.876 72.504, 79.280 72.437, 74.818 70.162 L 71.213 68.324 69.971 72.088 M 62 104 C 62 104.550, 62.477 105, 63.059 105 C 63.641 105, 63.840 104.550, 63.500 104 C 63.160 103.450, 62.684 103, 62.441 103 C 62.198 103, 62 103.450, 62 104 M 61 116.500 C 61 118.056, 61.567 119, 62.500 119 C 63.433 119, 64 118.056, 64 116.500 C 64 114.944, 63.433 114, 62.500 114 C 61.567 114, 61 114.944, 61 116.500 M 62.250 128.662 C 60.457 129.386, 60.670 133.667, 62.500 133.667 C 63.480 133.667, 64 132.685, 64 130.833 C 64 129.275, 63.888 128.036, 63.750 128.079 C 63.612 128.122, 62.938 128.385, 62.250 128.662" stroke="none" fill="black" fill-rule="evenodd"/>
</svg>