<svg xmlns="http://www.w3.org/2000/svg" width="192" height="144" viewBox="0 0 192 144" version="1.1">
	<path d="M 0 26.500 C 0 49.389, 0.204 53, 1.500 53 C 3.181 53, 3.545 55.545, 2 56.500 C 1.450 56.840, 1 57.602, 1 58.193 C 1 58.935, 5.722 59.108, 16.250 58.752 C 29.703 58.297, 32.148 57.943, 37 55.748 C 44.928 52.162, 52.155 50.880, 63.298 51.082 C 72.280 51.244, 73.299 51.067, 75.548 48.955 C 78.269 46.398, 78.857 43.734, 76.500 44.638 C 75.675 44.955, 74.251 44.926, 73.335 44.575 C 71.919 44.032, 72.143 43.447, 74.835 40.670 C 77.533 37.886, 78 36.666, 78 32.391 C 78 26.596, 79.712 24.208, 86.260 20.868 C 94.779 16.521, 97.504 16.552, 102.500 21.051 C 104.241 22.619, 105.115 22.710, 109.249 21.758 C 111.860 21.156, 114.304 20.971, 114.680 21.347 C 115.056 21.723, 113.877 23.564, 112.059 25.439 L 108.755 28.848 110.735 31.674 C 112.928 34.804, 112.725 36.423, 109.726 39.721 C 108.129 41.477, 107.954 42.240, 108.890 43.368 C 110.021 44.730, 109.004 47.984, 104.870 56.236 C 104.391 57.191, 104 58.368, 104 58.851 C 104 59.812, 111.694 63, 114.014 63 C 116.200 63, 126 67.249, 126 68.196 C 126 69.562, 136.738 76, 139.016 76 C 140.177 76, 142.222 77.237, 143.560 78.750 C 144.898 80.263, 149.146 84.911, 152.999 89.079 C 156.853 93.247, 163.717 102.247, 168.253 109.079 C 175.125 119.429, 176.960 121.553, 179.259 121.817 C 181.135 122.033, 182.514 123.094, 183.568 125.131 C 185.549 128.962, 185.109 134.368, 182.779 134.809 C 180.485 135.244, 171.352 126.610, 168.786 121.580 C 164.538 113.253, 156.083 101.252, 150.140 95.114 C 144.179 88.957, 143.889 88.790, 142.035 90.468 C 140.978 91.425, 139.975 93.399, 139.806 94.854 L 139.500 97.500 127.500 98.222 C 120.900 98.619, 114.586 98.748, 113.468 98.508 C 109.554 97.667, 108.784 100.994, 110.469 111.464 C 111.302 116.644, 112.282 126.088, 112.645 132.452 L 113.306 144.023 152.903 143.761 L 192.500 143.500 192.640 71.750 L 192.779 0 96.390 0 L 0 0 0 26.500 M 0.437 27 C 0.437 41.575, 0.577 47.537, 0.747 40.250 C 0.918 32.962, 0.918 21.037, 0.747 13.750 C 0.577 6.462, 0.437 12.425, 0.437 27 M 50 58.025 C 44.228 59.030, 41.249 60.213, 36.671 63.320 C 34.637 64.700, 31.067 66.147, 28.737 66.537 C 26.406 66.926, 24.169 67.752, 23.765 68.372 C 22.654 70.078, 22.863 101.967, 24.071 114.856 C 24.656 121.102, 26.129 130.102, 27.345 134.856 L 29.555 143.500 50.716 143.770 L 71.877 144.039 75.411 132.717 C 77.672 125.473, 80.450 119.071, 83.121 114.947 C 89.638 104.885, 90.031 103.487, 89.036 93.894 C 87.177 75.976, 86.708 73, 85.743 73 C 85.137 73, 84.997 71.418, 85.388 68.975 C 85.918 65.658, 85.721 64.852, 84.266 64.393 C 81.042 63.378, 78.527 62.050, 76 60.028 C 73.998 58.426, 71.608 57.950, 64 57.635 C 58.775 57.419, 52.475 57.595, 50 58.025 M 110.204 71.955 C 111.583 74.164, 112.555 73.889, 111.655 71.543 C 111.329 70.694, 110.595 70, 110.023 70 C 109.365 70, 109.431 70.717, 110.204 71.955 M 123.463 77.060 C 123.100 77.646, 123.520 78.917, 124.394 79.883 C 125.864 81.507, 125.758 81.858, 122.992 84.507 C 119.048 88.287, 119.218 89.041, 123.750 87.867 C 133.555 85.328, 135.578 83.240, 131.205 80.178 C 126.350 76.778, 124.178 75.903, 123.463 77.060 M 1.150 122.750 L 1 144 6.607 144 C 11.552 144, 12.130 143.793, 11.502 142.250 C 7.630 132.734, 2.971 114.838, 1.676 104.500 C 1.469 102.850, 1.232 111.063, 1.150 122.750" stroke="none" fill="black" fill-rule="evenodd"/>
</svg>