<svg xmlns="http://www.w3.org/2000/svg" width="192" height="144" viewBox="0 0 192 144" version="1.1">
	<path d="M 132.449 2.057 C 131.190 3.447, 129.858 3.930, 128.334 3.548 C 127.095 3.237, 124.222 3.622, 121.951 4.405 C 118.113 5.727, 117.567 5.677, 114.202 3.691 C 108.046 0.059, 89.917 1.369, 84.736 5.820 C 82.657 7.606, 83.118 11.827, 86.186 19.114 C 88.052 23.544, 88.062 23.936, 86.427 28.933 C 84.571 34.608, 85.108 38.121, 89.103 46.431 C 90.784 49.926, 90.833 50.607, 89.543 52.575 C 86.528 57.176, 85.067 66.979, 86.124 75.518 C 87.314 85.133, 88.614 87.021, 89.464 80.371 C 89.806 77.692, 90.721 74.150, 91.496 72.500 C 92.271 70.850, 93.403 67.475, 94.012 65 C 96.131 56.387, 96.106 56.438, 97.216 58.422 C 98.493 60.703, 96.303 73.078, 94.346 74.640 C 93.560 75.268, 92.764 77.362, 92.577 79.295 C 92.390 81.227, 91.857 83.414, 91.394 84.154 C 90.931 84.894, 90.687 89.615, 90.852 94.644 C 91.051 100.700, 90.768 104.025, 90.014 104.491 C 87.664 105.944, 86.865 110.146, 88.473 112.600 C 89.517 114.193, 90 117.431, 90 122.839 L 90 130.748 84.500 136.912 C 81.475 140.302, 79 143.284, 79 143.538 C 79 143.792, 93.205 144, 110.567 144 L 142.135 144 141.433 141.788 C 139.640 136.139, 141.578 116.997, 144.100 115.438 C 145.357 114.661, 145.223 117.417, 143.858 120.412 C 142.937 122.433, 143.034 123.403, 144.358 125.424 C 145.536 127.222, 146 130.198, 146 135.965 L 146 144 151.500 144 L 157 144 157 137.845 L 157 131.690 159.082 133.575 C 160.709 135.046, 161.090 136.394, 160.825 139.730 L 160.486 144 174.743 144 C 184.615 144, 189 143.655, 189 142.878 C 189 141.611, 181.820 128.079, 178.718 123.500 C 177.601 121.850, 175.122 118.844, 173.209 116.821 C 170.760 114.229, 169.646 112.043, 169.438 109.424 C 169.275 107.379, 168.548 105.329, 167.821 104.868 C 166.657 104.130, 161.855 103.546, 159.740 103.885 C 158.881 104.023, 153.961 96.503, 148.957 87.408 L 145.606 81.316 148.281 70.408 C 149.752 64.409, 151.241 57.813, 151.589 55.750 C 152.205 52.102, 152.338 52, 156.489 52 C 161.237 52, 163.509 50.180, 162.547 47.148 C 162.207 46.076, 160.121 42.403, 157.912 38.985 C 155.703 35.567, 154.061 32.605, 154.264 32.403 C 154.466 32.200, 156.048 32.569, 157.778 33.222 C 159.508 33.875, 161.206 34.128, 161.551 33.783 C 164.375 30.959, 163.706 11.019, 160.533 3.424 L 159.102 -0 146.706 -0 C 135.466 -0, 134.136 0.192, 132.449 2.057" stroke="none" fill="black" fill-rule="evenodd"/>
</svg>