<svg xmlns="http://www.w3.org/2000/svg" width="192" height="144" viewBox="0 0 192 144" version="1.1">
	<path d="M 182 2.483 C 178.251 4.476, 176.082 4.870, 169 4.845 C 153.373 4.789, 140.110 11.424, 134.710 22 C 131.846 27.610, 125.841 31, 118.767 31 C 114.635 31, 113.800 31.345, 112.843 33.446 C 111.935 35.437, 112.126 36.737, 113.869 40.446 C 115.810 44.574, 116.337 45, 119.505 45 C 121.856 45, 123 45.464, 123 46.419 C 123 48.569, 126.332 53.970, 127.750 54.119 C 128.438 54.191, 129.513 54.306, 130.141 54.375 C 130.769 54.444, 131.781 55.306, 132.391 56.292 C 133.298 57.758, 133.045 58.439, 131 60.035 C 129.017 61.582, 128.783 62.170, 129.871 62.876 C 131.523 63.950, 137.046 76.117, 136.375 77.203 C 136.114 77.625, 137.348 77.680, 139.118 77.326 C 141.843 76.781, 142.238 76.937, 141.699 78.341 C 141.349 79.254, 141.451 80, 141.924 80 C 142.398 80, 143.092 79.213, 143.465 78.250 C 144.067 76.700, 144.291 76.771, 145.426 78.878 L 146.707 81.256 148.382 78.878 C 149.796 76.870, 150.205 76.733, 151.013 78 C 152.274 79.977, 152.266 84.718, 151 85.500 C 150.450 85.840, 150 86.937, 150 87.938 C 150 90.609, 145.494 91.973, 137.500 91.721 L 130.500 91.500 130.181 94.826 C 129.866 98.108, 129.809 98.144, 125.931 97.488 C 122.452 96.901, 122 97.053, 122 98.812 C 122 100.418, 120.430 101.306, 113.812 103.440 C 106.654 105.749, 105.518 105.889, 104.771 104.555 C 103.953 103.094, 101.606 100.133, 88.728 84.314 C 85.553 80.415, 81.728 76.759, 80.228 76.189 C 60.576 68.733, 60.337 68.677, 51.212 69.326 C 38.024 70.265, 36 70.829, 36 73.564 C 36 74.837, 37.800 77.958, 40 80.500 C 42.310 83.169, 44 86.152, 44 87.561 C 44 89.216, 44.563 90.001, 45.750 90.004 C 46.712 90.006, 49.075 90.967, 50.999 92.141 C 53.620 93.738, 56.254 94.301, 61.499 94.385 C 65.350 94.446, 68.977 94.947, 69.559 95.498 C 70.141 96.049, 73.553 100.578, 77.140 105.562 C 80.727 110.547, 84.728 116.066, 86.031 117.828 C 87.334 119.590, 90.774 122.667, 93.676 124.666 L 98.953 128.300 107.227 127.636 C 111.777 127.271, 117.708 126.687, 120.408 126.338 L 125.315 125.704 124.723 134.852 L 124.130 144 143.985 144 L 163.839 144 165.520 138.941 L 167.200 133.881 172.850 134.535 C 179.580 135.314, 186.269 138.255, 188.890 141.587 C 189.934 142.914, 191.061 144, 191.394 144 C 192.576 144, 192.023 127.423, 190.800 126.200 C 189.867 125.267, 189.867 124.733, 190.800 123.800 C 191.707 122.893, 192 107.644, 192 61.300 L 192 0 189.250 0.045 C 187.738 0.070, 184.475 1.167, 182 2.483 M 184.250 84.718 C 183.563 84.965, 182.987 86.592, 182.971 88.333 L 182.941 91.500 180.057 88.331 C 176.938 84.904, 176 84.995, 176 88.726 C 176 90.077, 175.562 90.847, 174.993 90.496 C 173.099 89.325, 172.798 92.960, 174.400 97.660 C 175.280 100.243, 176 104.924, 176 108.063 C 176 113.148, 176.292 113.961, 178.678 115.525 C 181.273 117.225, 181.409 117.213, 183.099 115.126 C 185.911 111.654, 191.449 83.986, 189.033 85.479 C 188.417 85.860, 187.370 85.744, 186.706 85.220 C 186.043 84.697, 184.938 84.471, 184.250 84.718" stroke="none" fill="black" fill-rule="evenodd"/>
</svg>