<svg xmlns="http://www.w3.org/2000/svg" width="192" height="144" viewBox="0 0 192 144" version="1.1">
	<path d="M 0 72 L 0 144 20.500 144 C 31.775 144, 41 143.698, 41 143.329 C 41 142.960, 40.254 141.833, 39.343 140.826 C 37.921 139.255, 37.855 138.426, 38.882 135 C 40.173 130.691, 40.147 130.720, 47.332 125.377 C 50.509 123.014, 52.812 120.271, 54.057 117.367 C 55.098 114.938, 56.974 111.948, 58.225 110.723 C 63.729 105.333, 64.375 104.163, 62.888 102.269 C 61.618 100.651, 61.653 100.621, 63.300 101.914 C 64.864 103.142, 65.311 103.117, 66.704 101.724 C 68.170 100.258, 68.172 99.912, 66.723 97.700 C 63.206 92.332, 60.005 90.453, 59.994 93.750 C 59.990 94.907, 59.470 94.506, 58.459 92.569 C 57.287 90.320, 57.170 88.952, 57.957 86.693 C 58.522 85.074, 58.715 82.068, 58.386 80.013 L 57.789 76.278 65.620 71.524 C 71.995 67.653, 74.570 66.673, 79.475 66.249 C 82.789 65.963, 86.715 65.114, 88.200 64.364 C 89.686 63.614, 91.819 63, 92.942 63 C 94.065 63, 95.545 62.100, 96.232 61 C 97.796 58.496, 99 58.432, 99 60.852 C 99 61.870, 100.350 64.116, 102 65.843 C 103.650 67.569, 105 69.376, 105 69.858 C 105 70.340, 106.688 71.856, 108.750 73.227 C 114.899 77.314, 120.999 83.796, 121.006 86.249 C 121.010 87.487, 121.685 89.789, 122.506 91.364 C 124.213 94.637, 124.480 99.585, 123 100.500 C 122.450 100.840, 121.986 100.529, 121.968 99.809 C 121.932 98.283, 117 103.598, 117 105.163 C 117 105.741, 117.675 105.955, 118.500 105.638 C 121.198 104.603, 120.072 106.019, 117.250 107.210 C 115.737 107.849, 111.575 108.271, 108 108.150 C 104.425 108.028, 100.825 108.405, 100 108.988 C 98.731 109.884, 98.961 110.427, 101.500 112.519 C 103.150 113.878, 103.961 114.992, 103.302 114.995 C 102.642 114.998, 100.917 113.901, 99.467 112.557 C 97.387 110.629, 96.342 110.300, 94.514 110.995 C 92.737 111.670, 91.788 111.424, 90.444 109.938 C 87.979 107.215, 87 107.521, 87 111.016 C 87 113.479, 86.358 114.339, 83.495 115.704 C 79.035 117.830, 78.013 121.286, 78.006 134.258 L 78 144.016 135.250 143.758 L 192.500 143.500 192.531 71.500 C 192.547 31.900, 192.423 6.681, 192.254 15.457 C 192.085 24.234, 191.622 31.659, 191.224 31.957 C 190.826 32.256, 188.744 34.684, 186.598 37.354 C 180.728 44.655, 175.999 47.640, 168.047 49.061 C 162.697 50.017, 159.748 50.029, 154.830 49.114 C 146.908 47.641, 131.186 43.428, 124.212 40.910 C 121.304 39.859, 117.692 39, 116.186 39 C 114.131 39, 111.331 36.993, 104.974 30.964 C 89.084 15.895, 78.860 5.504, 77.213 2.750 L 75.569 0 37.784 0 L 0 0 0 72 M 0.474 72.500 C 0.474 112.100, 0.598 128.154, 0.750 108.176 C 0.901 88.198, 0.901 55.798, 0.750 36.176 C 0.598 16.554, 0.474 32.900, 0.474 72.500 M 59 97.882 C 59 98.432, 59.450 99.160, 60 99.500 C 60.550 99.840, 61 99.668, 61 99.118 C 61 98.568, 60.550 97.840, 60 97.500 C 59.450 97.160, 59 97.332, 59 97.882" stroke="none" fill="black" fill-rule="evenodd"/>
</svg>