<svg xmlns="http://www.w3.org/2000/svg" width="192" height="144" viewBox="0 0 192 144" version="1.1">
	<path d="M 0 72 L 0 144 41.622 144 C 75.306 144, 83.042 143.756, 82.184 142.721 C 81.419 141.800, 81.619 140.331, 82.899 137.471 C 85.351 131.991, 88.147 123.392, 88.522 120.177 C 88.694 118.705, 89.331 115.556, 89.938 113.180 C 91.035 108.884, 90.950 103.346, 89.757 101.416 C 89.413 100.859, 89.511 99.792, 89.973 99.043 C 90.436 98.294, 90.577 97.062, 90.287 96.305 C 89.854 95.178, 89.282 95.238, 87.129 96.639 C 84.631 98.264, 84.571 98.262, 85.936 96.598 C 87.183 95.077, 87.183 94.729, 85.936 93.939 C 84.157 92.814, 79 92.710, 79 93.800 C 79 94.240, 79.540 95.140, 80.200 95.800 C 80.860 96.460, 81.085 97, 80.700 97 C 80.315 97, 79.150 96.150, 78.111 95.111 C 73.864 90.864, 77.608 83.281, 86.088 78.955 C 89.102 77.417, 90.154 76.142, 91.001 72.997 C 91.627 70.672, 93.110 68.319, 94.539 67.382 C 96.081 66.372, 97 64.824, 97 63.239 L 97 60.708 99.452 63.354 C 100.801 64.809, 102.557 66, 103.355 66 C 104.153 66, 106.113 67.629, 107.711 69.621 C 109.965 72.430, 111.466 73.318, 114.410 73.582 C 119.774 74.064, 129 79.799, 129 82.653 C 129 83.317, 127.987 84.005, 126.750 84.180 C 125.513 84.356, 124.500 85.175, 124.500 86 C 124.500 87.947, 122.416 88.843, 117.684 88.930 C 115.586 88.968, 112.886 89.528, 111.684 90.173 C 109.526 91.332, 109.535 91.360, 112.500 92.628 C 114.461 93.466, 114.871 93.925, 113.684 93.955 C 112.686 93.980, 111.060 93.567, 110.072 93.039 C 108.842 92.380, 107.729 92.477, 106.540 93.347 C 104.984 94.485, 104.923 95.286, 105.956 101.058 C 108.373 114.571, 108.362 114.262, 106.481 115.637 C 104.779 116.882, 104.780 117.138, 106.498 121.718 C 107.484 124.348, 109.403 128.725, 110.761 131.444 C 112.154 134.233, 113.207 138.052, 113.178 140.206 L 113.125 144.023 152.813 143.761 L 192.500 143.500 192.757 71.750 L 193.013 0 153.246 -0 L 113.480 -0 113.470 11.250 C 113.459 25.197, 112.037 29.442, 103.714 40.375 C 100.376 44.761, 97.085 49.958, 96.401 51.925 C 95.371 54.888, 95.034 55.184, 94.435 53.653 C 94.037 52.637, 89.974 46.244, 85.406 39.447 C 80.838 32.650, 76.580 25.157, 75.943 22.795 C 75.287 20.359, 74.960 14.496, 75.189 9.250 L 75.592 0 37.796 0 L 0 0 0 72 M 0.474 72.500 C 0.474 112.100, 0.598 128.154, 0.750 108.176 C 0.901 88.198, 0.901 55.798, 0.750 36.176 C 0.598 16.554, 0.474 32.900, 0.474 72.500" stroke="none" fill="black" fill-rule="evenodd"/>
</svg>