<svg xmlns="http://www.w3.org/2000/svg" width="192" height="144" viewBox="0 0 192 144" version="1.1">
	<path d="M 76.970 7.030 C 75.259 8.741, 75.032 9.884, 75.530 14.280 C 76.535 23.156, 76.814 23.844, 79.554 24.184 L 82.103 24.500 79.539 27.962 C 76.579 31.957, 76.691 33.221, 80.074 34.013 C 81.935 34.448, 82.689 35.503, 83.313 38.540 C 83.760 40.718, 84.508 43.736, 84.975 45.246 C 85.476 46.869, 85.439 48.228, 84.885 48.571 C 84.369 48.890, 84.054 49.679, 84.185 50.325 C 84.315 50.971, 82.823 53.075, 80.869 55 C 78.028 57.798, 77.177 59.552, 76.624 63.750 C 76.062 68.005, 75.570 69, 74.025 69 C 71.458 69, 70.678 70.529, 71.992 72.984 C 73.344 75.511, 71.655 80.833, 65.480 93.500 L 61.093 102.500 61.987 110 C 63.243 120.539, 64.742 127.984, 65.884 129.361 C 66.532 130.141, 66.233 132.799, 64.993 137.268 L 63.127 144 93.519 144 L 123.911 144 120.829 136.750 C 119.134 132.763, 116.748 127.237, 115.526 124.471 C 114.305 121.705, 112.719 116.980, 112.001 113.971 C 111.284 110.962, 109.865 106.550, 108.848 104.167 C 106.743 99.232, 106.316 86.003, 108.060 79.724 C 109.847 73.288, 110.999 76.632, 111.017 88.309 C 111.027 94.464, 111.694 102.650, 112.499 106.500 C 114.376 115.471, 120.780 128.459, 126.371 134.635 C 130.194 138.857, 130.944 139.291, 132.370 138.108 C 134.270 136.531, 134.459 133.289, 132.884 129.315 C 131.866 126.746, 131.456 122.985, 130.617 108.500 C 130.457 105.750, 129.291 101.250, 128.024 98.500 C 126.359 94.883, 125.508 90.596, 124.948 83 C 124.318 74.454, 123.571 71.105, 120.930 65 C 119.044 60.639, 117.573 55.407, 117.416 52.500 C 117.268 49.750, 116.846 45.700, 116.479 43.500 C 115.252 36.141, 116.115 30.885, 119.029 27.971 C 120.987 26.013, 125 15.950, 125 12.998 C 125 11.938, 124.066 10.570, 122.924 9.959 C 120.119 8.458, 108.472 8.363, 106.708 9.827 C 105.656 10.700, 104.490 10.718, 102.136 9.897 C 100.397 9.291, 98.241 9.077, 97.343 9.422 C 96.445 9.766, 94.988 9.426, 94.105 8.666 C 89.607 4.792, 80.114 3.886, 76.970 7.030" stroke="none" fill="black" fill-rule="evenodd"/>
</svg>