<svg xmlns="http://www.w3.org/2000/svg" width="192" height="144" viewBox="0 0 192 144" version="1.1">
	<path d="M -0 72.005 L -0 144.010 96.250 143.755 L 192.500 143.500 192.757 71.750 L 193.013 0 96.507 0 L 0 0 -0 72.005 M 0.474 72.500 C 0.474 112.100, 0.598 128.154, 0.750 108.176 C 0.901 88.198, 0.901 55.798, 0.750 36.176 C 0.598 16.554, 0.474 32.900, 0.474 72.500 M 83.500 32 C 83.864 33.147, 83.680 34, 83.067 34 C 80.323 34, 82.464 37.251, 86.500 39.212 C 90.990 41.394, 92.287 43, 89.559 43 C 87.040 43, 86.596 45.254, 88.768 47.013 C 92.123 49.730, 92.635 55.237, 89.938 59.600 L 87.667 63.274 79.084 62.639 C 74.363 62.290, 66.727 61.709, 62.116 61.350 C 55.238 60.813, 53.814 60.943, 54.191 62.072 C 54.443 62.829, 56.005 63.726, 57.662 64.065 C 59.319 64.404, 61.310 65.074, 62.087 65.554 C 62.863 66.034, 64.639 66.307, 66.033 66.160 C 67.427 66.014, 70.740 66.382, 73.396 66.977 C 76.932 67.769, 78.588 67.757, 79.583 66.931 C 81.610 65.249, 91 66.730, 91 68.733 C 91 69.983, 91.908 70.179, 95.750 69.759 C 101.742 69.103, 103 69.583, 103 72.524 C 103 75.085, 104.496 76.625, 105.463 75.060 C 105.794 74.525, 106.725 74.341, 107.532 74.651 C 109.050 75.233, 109.369 74.262, 109.022 70.116 C 108.799 67.454, 109.545 67.477, 118 70.387 C 120.475 71.239, 125.615 72.626, 129.421 73.470 C 135.585 74.837, 136.594 74.841, 138.636 73.503 C 139.898 72.676, 141.568 72, 142.348 72 C 145.549 72, 145.147 64.499, 141.891 63.465 C 140.850 63.135, 139.499 61.932, 138.888 60.791 C 137.856 58.862, 137.166 58.758, 128.954 59.290 C 121.938 59.745, 119.883 59.564, 118.924 58.408 C 117.938 57.220, 118.017 57.069, 119.359 57.584 C 120.271 57.934, 121 57.723, 121 57.107 C 121 56.498, 119.462 56, 117.582 56 C 112.664 56, 111 55.103, 111 52.452 C 111 49.119, 109.413 48.587, 106.918 51.082 C 105.182 52.818, 104.596 52.971, 103.897 51.868 C 102.363 49.447, 102.938 48, 105.435 48 C 111.439 48, 115.613 43.964, 111.092 42.529 C 110.043 42.196, 108.950 41.311, 108.662 40.563 C 108.375 39.814, 106.534 38.671, 104.570 38.023 C 102.036 37.187, 101 36.256, 101 34.815 C 101 33.586, 101.493 32.987, 102.250 33.297 C 102.938 33.578, 104.287 34.124, 105.250 34.511 C 108.191 35.692, 107.183 33.611, 103.913 31.750 C 99.694 29.349, 93.792 29.468, 91.500 32 C 89.387 34.335, 88 34.576, 88 32.607 C 88 31.279, 85.964 30, 83.851 30 C 83.309 30, 83.151 30.900, 83.500 32 M 92 45.500 C 92 46.417, 92.484 47.005, 93.075 46.808 C 93.666 46.611, 94.150 46.023, 94.150 45.500 C 94.150 44.977, 93.666 44.389, 93.075 44.192 C 92.484 43.995, 92 44.583, 92 45.500 M 93.046 58.647 C 91.846 60.681, 91.274 62.674, 91.754 63.154 C 93.080 64.480, 98.182 58.639, 97.424 56.663 C 96.462 54.155, 95.417 54.629, 93.046 58.647" stroke="none" fill="black" fill-rule="evenodd"/>
</svg>