<svg xmlns="http://www.w3.org/2000/svg" width="192" height="144" viewBox="0 0 192 144" version="1.1">
	<path d="M 0 19.059 C 0 31.510, 0.347 37.904, 1 37.500 C 1.550 37.160, 2 36.245, 2 35.467 C 2 34.028, 7.987 30.303, 8.015 31.724 C 8.024 32.151, 8.361 32.019, 8.765 31.430 C 9.169 30.842, 12.019 28.516, 15.097 26.261 C 18.176 24.007, 21.438 21.419, 22.347 20.510 C 23.256 19.601, 24 19.141, 24 19.487 C 24 19.833, 26.663 18.067, 29.919 15.563 C 33.174 13.058, 40.712 8.536, 46.669 5.515 L 57.500 0.022 28.750 0.011 L 0 0 0 19.059 M 147 0.941 C 147 1.459, 147.455 2.163, 148.012 2.507 C 151.167 4.457, 160 20.878, 160 24.793 C 160 28.678, 159.109 29.301, 156.243 27.424 C 154.914 26.553, 153.568 26.099, 153.252 26.414 C 152.210 27.456, 152.403 33.405, 153.676 39.500 C 155.370 47.607, 155.301 52.400, 153.364 61.127 C 148.356 83.689, 133.400 98.154, 116.604 96.681 C 108.716 95.988, 105.427 92.958, 105.829 86.754 C 105.981 84.414, 106.194 76.328, 106.303 68.784 C 106.474 56.888, 106.268 54.837, 104.750 53.320 C 103.493 52.064, 103 51.948, 103 52.910 C 103 54.170, 98.948 54.138, 90.528 52.811 C 88.826 52.543, 88.595 53.002, 88.847 56.161 C 89.034 58.514, 88.006 62.624, 85.972 67.661 C 83.118 74.729, 82.867 76.179, 83.424 82.404 C 85.178 101.994, 98.946 112.483, 123.500 112.935 C 133.742 113.124, 144.213 107.057, 157.727 93.103 C 161.153 89.566, 165.201 84.834, 166.725 82.586 C 168.248 80.339, 169.933 78.187, 170.468 77.804 C 172.137 76.612, 172.393 77.901, 170.854 79.744 C 170.047 80.710, 168.866 82.723, 168.229 84.218 C 167.045 87, 164.723 89.902, 157.256 97.934 C 154.921 100.446, 153.009 102.838, 153.006 103.250 C 153.003 103.662, 152.325 104, 151.500 104 C 150.675 104, 150 104.413, 150 104.918 C 150 105.423, 149.748 106.493, 149.440 107.295 C 148.975 108.508, 149.604 108.613, 153.190 107.920 C 161.075 106.396, 165.460 106.796, 167.765 109.250 C 168.928 110.487, 169.906 111.838, 169.939 112.250 C 169.973 112.662, 170.052 113.338, 170.115 113.750 C 170.363 115.363, 169.767 118.550, 169.040 119.500 C 167.862 121.042, 166.807 126.237, 167.797 125.625 C 169.049 124.852, 173 127.837, 173 129.557 C 173 131.340, 172.095 131.364, 168.098 129.683 C 166.376 128.959, 165.307 127.947, 165.722 127.433 C 166.138 126.920, 164.908 127.897, 162.989 129.605 C 158.008 134.038, 150.760 138.765, 144.715 141.524 L 139.500 143.903 166 143.702 L 192.500 143.500 192.818 115 C 192.992 99.325, 192.827 67.038, 192.450 43.250 L 191.764 0 169.382 0 C 156.063 0, 147 0.381, 147 0.941 M 58.845 42.042 C 53.964 47.173, 53.924 48.815, 58.750 45.891 C 67.574 40.543, 70 38.947, 70 38.487 C 70 38.219, 68.355 38, 66.345 38 C 63.376 38, 61.969 38.758, 58.845 42.042 M 1 94.941 L 1 144 22.500 144 C 37.536 144, 44 143.668, 44 142.894 C 44 142.286, 42.854 140.427, 41.453 138.762 C 38.461 135.206, 30.016 118.089, 27.017 109.500 C 25.864 106.200, 23.601 97.650, 21.987 90.500 C 18.366 74.456, 16.445 68.713, 13.940 66.446 C 12.873 65.480, 12 64.137, 12 63.462 C 12 62.786, 11.007 61.974, 9.794 61.656 C 8.580 61.339, 7.867 60.800, 8.208 60.458 C 8.550 60.117, 7.775 58.284, 6.487 56.385 C 5.198 54.487, 3.852 51.604, 3.495 49.978 C 1.478 40.796, 1 49.417, 1 94.941 M 188.865 128.039 C 187.416 129.668, 186.576 131, 186.999 131 C 187.421 131, 188.002 131.900, 188.290 133 C 188.577 134.100, 189.530 135, 190.406 135 C 191.652 135, 192 133.908, 192 130 C 192 127.250, 191.887 125.018, 191.750 125.039 C 191.613 125.060, 190.314 126.410, 188.865 128.039" stroke="none" fill="black" fill-rule="evenodd"/>
</svg>