<svg xmlns="http://www.w3.org/2000/svg" width="192" height="144" viewBox="0 0 192 144" version="1.1">
	<path d="M 100.196 10.298 C 96.863 13.737, 96.322 15.865, 97.991 18.982 C 98.780 20.458, 98.271 21.683, 95.484 25.019 C 91.539 29.741, 90.569 32.491, 90.528 39.073 C 90.496 44.351, 94.812 52, 97.823 52 C 98.810 52, 100.474 52.626, 101.521 53.392 C 103.129 54.568, 103.220 55.030, 102.104 56.375 C 100.971 57.739, 101.120 58.099, 103.141 58.894 C 104.439 59.405, 106.982 61.419, 108.793 63.370 C 111.668 66.469, 112.407 66.796, 114.627 65.952 C 116.024 65.420, 117.621 65.266, 118.175 65.608 C 119.348 66.333, 112.203 74, 110.354 74 C 109.672 74, 108.525 74.828, 107.807 75.841 C 105.990 78.399, 89.500 79.649, 86.559 77.451 C 83.708 75.320, 80.540 75.674, 77.182 78.500 C 75.548 79.875, 73.527 81, 72.692 81 C 71.856 81, 69.538 78.079, 67.542 74.508 C 63.909 68.011, 61.065 65.994, 57.480 67.369 C 54.586 68.480, 54.845 70.899, 58.533 77.189 C 60.567 80.660, 62.360 84.625, 62.516 86 C 62.975 90.053, 64.792 99.377, 65.438 101 C 65.766 101.825, 69.684 104.300, 74.145 106.500 C 78.605 108.700, 82.985 111.575, 83.877 112.890 C 86.163 116.256, 89.771 119.929, 95 124.214 L 99.500 127.901 97.627 131.386 C 96.184 134.071, 95.911 135.922, 96.438 139.436 L 97.123 144 122.561 144 C 142.538 144, 148 143.726, 148 142.723 C 148 141.201, 145.253 137.099, 142.829 135 C 140.939 133.364, 139 121.915, 139 112.396 C 139 108.466, 138.580 106.776, 137.500 106.362 C 134.321 105.142, 136.210 104.067, 140.500 104.655 C 143.554 105.074, 145 104.907, 145 104.136 C 145 103.511, 146.125 103, 147.500 103 C 148.875 103, 150 102.550, 150 102 C 150 101.450, 150.911 101, 152.025 101 C 153.292 101, 154.473 99.972, 155.182 98.250 C 156.077 96.078, 156.402 95.868, 156.731 97.250 C 156.959 98.213, 157.599 99, 158.153 99 C 159.089 99, 158.762 102.235, 157.292 107.500 C 156.737 109.489, 156.747 109.489, 158.930 107.538 L 161.125 105.577 160.434 110.788 C 159.932 114.571, 160.073 116, 160.948 116 C 161.678 116, 162.083 117.282, 161.975 119.250 C 161.704 124.210, 161.934 124.668, 163.604 122.500 C 165.051 120.622, 165.103 120.728, 164.461 124.250 C 163.809 127.828, 164.998 129.431, 166.500 127 C 167.781 124.927, 168.829 126.109, 168.067 128.766 C 167.546 130.583, 167.690 131.921, 168.488 132.667 C 169.882 133.969, 171.144 133.351, 172.911 130.500 C 174.056 128.654, 174.104 128.647, 173.543 130.417 C 173.208 131.472, 172.660 134.959, 172.325 138.167 L 171.715 144 181.858 144 L 192 144 192 110.586 L 192 77.172 185.570 73.576 C 177.971 69.327, 169.532 61.855, 164.336 54.777 C 161.952 51.529, 160.439 50.199, 160.149 51.096 C 159.660 52.610, 150.522 64.830, 146.667 69.125 C 145.371 70.569, 143.077 72.558, 141.570 73.546 C 138.157 75.782, 137.038 74.495, 137.015 68.309 C 137.001 64.300, 138.395 61.686, 139.224 64.171 C 140 66.501, 142 63.815, 142 60.441 C 142 56.800, 143.605 55.808, 144.735 58.750 C 145.305 60.231, 145.515 60.116, 146.104 58 C 147.568 52.743, 146.980 48.318, 144.101 42.928 C 142.507 39.942, 140.877 35.925, 140.479 34 C 140.081 32.075, 138.895 28.800, 137.844 26.723 C 135.356 21.809, 125.337 14.402, 119.946 13.491 C 117.045 13.001, 115.562 12.132, 114.811 10.486 C 113.683 8.008, 111.340 7.036, 106.446 7.014 C 104.294 7.004, 102.449 7.973, 100.196 10.298 M 133 68 C 133 68.550, 133.477 69, 134.059 69 C 134.641 69, 134.840 68.550, 134.500 68 C 134.160 67.450, 133.684 67, 133.441 67 C 133.198 67, 133 67.450, 133 68 M 97.500 80.141 C 89.706 81.571, 89.965 81.215, 91.989 87.716 C 93.823 93.611, 97.645 101.007, 98.849 100.991 C 99.867 100.978, 103.039 89.856, 103.018 86.372 C 103.008 84.652, 103.675 82.685, 104.500 82 C 105.325 81.315, 106 80.360, 106 79.878 C 106 78.844, 104.278 78.898, 97.500 80.141 M 73.040 83.600 C 73.018 84.205, 74.289 86.455, 75.864 88.600 C 79.023 92.901, 84 97.785, 84 96.584 C 84 95.082, 78.477 88.042, 77.282 88.021 C 76.612 88.010, 75.393 86.763, 74.572 85.250 C 73.751 83.737, 73.062 82.995, 73.040 83.600 M 134.750 112.580 C 133.532 113.803, 133.979 121.257, 135.464 124.500 L 136.838 127.500 136.861 123.500 C 136.893 118.024, 135.664 111.663, 134.750 112.580 M 189.079 135.583 C 189.127 136.748, 189.364 136.985, 189.683 136.188 C 189.972 135.466, 189.936 134.603, 189.604 134.271 C 189.272 133.939, 189.036 134.529, 189.079 135.583" stroke="none" fill="black" fill-rule="evenodd"/>
</svg>