<svg xmlns="http://www.w3.org/2000/svg" width="192" height="144" viewBox="0 0 192 144" version="1.1">
	<path d="M 0 72 L 0 144 35.349 144 L 70.697 144 72.994 135.250 C 74.258 130.438, 76.576 123.275, 78.146 119.333 C 79.716 115.392, 81 111.117, 80.999 109.833 C 80.999 107.850, 77.480 97.166, 76.499 96.170 C 76.320 95.989, 75.122 96.513, 73.837 97.336 C 71.693 98.708, 70.922 98.595, 64.500 95.968 C 60.650 94.393, 56.491 93.081, 55.258 93.052 C 54.024 93.024, 51.866 91.710, 50.462 90.134 C 48.512 87.945, 46.713 87.126, 42.856 86.669 C 37.115 85.989, 30.252 82.997, 31 81.500 C 31.519 80.461, 32.037 80.308, 35.683 80.115 C 38.251 79.980, 39.689 76.535, 38.017 74.521 C 37.386 73.760, 36.610 70.622, 36.293 67.546 C 35.786 62.637, 35.916 62.031, 37.358 62.584 C 39.243 63.307, 39.494 60.829, 38.129 54.960 C 37.513 52.312, 37.736 50.618, 39.013 48.237 C 41.237 44.089, 41.816 44.863, 41.209 51.174 L 40.715 56.313 43.044 54.681 C 44.481 53.675, 46.082 50.743, 47.223 47.025 C 49.998 37.986, 51.443 39.012, 51.163 49.825 C 51.101 52.254, 51.741 55.202, 52.626 56.552 C 54.475 59.374, 54.512 63.263, 52.769 71.475 C 51.798 76.048, 50.944 77.726, 49.131 78.626 C 46.902 79.734, 46.872 79.860, 48.631 80.782 C 49.659 81.320, 51.919 81.545, 53.653 81.281 C 55.846 80.947, 58.128 81.561, 61.153 83.297 C 68.633 87.591, 69.510 87.578, 70.837 83.150 C 71.477 81.015, 72 78.292, 72 77.099 C 72 75.906, 72.768 73.757, 73.707 72.325 C 74.646 70.892, 75.506 67.921, 75.619 65.723 C 75.732 63.525, 76.325 61.417, 76.936 61.040 C 77.547 60.662, 78.489 55.323, 79.028 49.175 C 80.027 37.791, 82.395 29.468, 85.697 25.738 C 87.466 23.739, 87.450 23.713, 84.829 24.349 C 81.435 25.174, 79 24.252, 79.001 22.143 C 79.001 21.239, 80.338 17.676, 81.971 14.223 C 84.774 8.298, 85.095 7.984, 87.720 8.620 C 92.798 9.849, 94.746 10.838, 98.386 14.034 C 102.280 17.453, 100.925 17.345, 115.500 15.399 C 119.769 14.829, 120 14.924, 120 17.240 C 120 18.583, 119.338 21.882, 118.529 24.571 C 117.388 28.361, 117.301 30.273, 118.142 33.080 C 119.054 36.122, 118.897 37.444, 117.162 41.366 C 116.027 43.933, 114.738 45.954, 114.299 45.858 C 113.860 45.761, 112.712 46.027, 111.750 46.448 C 108.276 47.968, 110.169 59.406, 114.488 62.990 C 115.283 63.650, 117.543 67.067, 119.509 70.583 C 122.173 75.347, 122.847 77.424, 122.154 78.737 C 121.643 79.707, 121.451 82.811, 121.728 85.635 L 122.232 90.771 127.783 91.885 C 130.836 92.498, 134.721 93.014, 136.417 93.032 C 138.113 93.049, 140.363 93.717, 141.418 94.515 C 142.527 95.354, 143.792 95.611, 144.418 95.124 C 147.616 92.634, 158.128 92.936, 156.036 95.457 C 154.560 97.236, 155.902 98.078, 158.062 96.729 C 159.078 96.095, 160.219 95.885, 160.597 96.264 C 161.734 97.401, 158.923 100.005, 153.708 102.648 C 149.764 104.646, 147.982 105.004, 144.714 104.452 C 142.473 104.073, 138.808 103.620, 136.569 103.445 C 134.331 103.270, 128.707 102.275, 124.070 101.234 C 116.359 99.502, 115.512 99.071, 114.139 96.170 C 111.977 91.606, 110.866 92.267, 111.484 97.750 C 111.779 100.362, 111.996 104.037, 111.967 105.915 C 111.939 107.793, 113.927 114.318, 116.386 120.415 C 118.845 126.512, 121.676 134.317, 122.678 137.760 L 124.500 144.021 158.500 143.760 L 192.500 143.500 192.757 71.750 L 193.013 0 96.507 0 L 0 0 0 72 M 0.474 72.500 C 0.474 112.100, 0.598 128.154, 0.750 108.176 C 0.901 88.198, 0.901 55.798, 0.750 36.176 C 0.598 16.554, 0.474 32.900, 0.474 72.500 M 152 97 C 152 97.550, 152.450 98, 153 98 C 153.550 98, 154 97.550, 154 97 C 154 96.450, 153.550 96, 153 96 C 152.450 96, 152 96.450, 152 97" stroke="none" fill="black" fill-rule="evenodd"/>
</svg>