<svg xmlns="http://www.w3.org/2000/svg" width="192" height="144" viewBox="0 0 192 144" version="1.1">
	<path d="M 0 72 L 0 144 49.500 144 L 99 144 99 139.559 C 99 137.116, 98.519 134.821, 97.932 134.458 C 97.345 134.095, 94.173 133.554, 90.884 133.256 C 85.479 132.766, 84.753 132.422, 83.339 129.688 C 81.269 125.687, 82.089 120.039, 85.968 111.570 C 87.636 107.929, 89 104.431, 89 103.796 C 89 103.161, 89.435 101.260, 89.967 99.571 C 93.946 86.942, 94.343 84.747, 93.201 81.722 C 92.287 79.301, 92.331 78.459, 93.415 77.591 C 94.757 76.517, 96.104 71.379, 96.585 65.500 C 96.766 63.296, 95.991 61.613, 93.665 59.156 L 90.500 55.812 95.887 50.954 L 101.274 46.096 99.590 42.548 C 98.664 40.597, 97.204 39, 96.346 39 C 95.247 39, 95.003 38.483, 95.522 37.250 C 96.284 35.438, 96.773 32.799, 96.917 29.715 C 96.985 28.247, 97.354 28.119, 98.991 28.995 C 100.966 30.052, 113.839 28.376, 118.398 26.467 C 120.048 25.776, 120.228 26.027, 119.777 28.387 C 119.326 30.745, 119.635 31.177, 122.129 31.676 C 125.984 32.447, 125.745 33.601, 121.407 35.170 C 118.089 36.370, 117.855 36.718, 118.344 39.731 C 118.635 41.525, 120.463 45.582, 122.407 48.746 C 126.898 56.059, 129.267 62.745, 128.593 66.210 C 128.138 68.549, 128.884 69.631, 134.033 74.110 C 137.315 76.964, 140 79.625, 140 80.023 C 140 81.461, 131.201 80.947, 129.947 79.436 C 127.526 76.519, 116.918 67.748, 116.417 68.250 C 115.334 69.332, 119.754 75.514, 121.830 75.820 C 124.346 76.190, 124.393 76.501, 122.824 82.369 C 121.565 87.076, 121.480 86.900, 130 97.330 C 130.825 98.340, 133.525 100.215, 136 101.497 C 138.475 102.778, 142.179 105.564, 144.231 107.687 C 147.201 110.759, 147.882 112.153, 147.570 114.523 C 146.943 119.273, 145.168 123.035, 142.217 125.867 C 140.709 127.315, 138.805 129.527, 137.987 130.782 C 136.293 133.382, 129.261 135.156, 119.500 135.447 L 113.500 135.625 112.931 139.824 L 112.363 144.022 152.431 143.761 L 192.500 143.500 192.757 71.750 L 193.013 0 96.507 0 L 0 0 0 72 M 0.474 72.500 C 0.474 112.100, 0.598 128.154, 0.750 108.176 C 0.901 88.198, 0.901 55.798, 0.750 36.176 C 0.598 16.554, 0.474 32.900, 0.474 72.500" stroke="none" fill="black" fill-rule="evenodd"/>
</svg>