<svg xmlns="http://www.w3.org/2000/svg" width="192" height="144" viewBox="0 0 192 144" version="1.1">
	<path d="M 0 72 L 0 144 37.500 144 L 75 144 75 141.622 C 75 140.314, 75.675 137.629, 76.500 135.654 C 78.464 130.953, 78.400 126.485, 76.317 122.959 C 74.846 120.470, 74.783 119.301, 75.817 113.690 C 76.468 110.159, 77 106.464, 77 105.480 C 77 103.767, 76.914 103.768, 75 105.500 C 73.055 107.260, 73 107.247, 73 105.006 C 73 103.739, 75.025 98.988, 77.500 94.448 C 79.975 89.907, 82 85.304, 82 84.219 C 82 83.133, 82.674 81.686, 83.498 81.002 C 84.799 79.922, 84.593 79.300, 81.931 76.268 C 78.284 72.115, 76.729 68.430, 77.542 65.868 C 77.868 64.841, 77.669 64, 77.099 64 C 76.529 64, 76.322 63.325, 76.638 62.500 C 76.955 61.675, 77.841 61, 78.607 61 C 80.988 61, 80.135 59.072, 77.456 58.400 C 74.362 57.623, 74.813 55.395, 77.991 55.761 C 80.190 56.014, 80.240 55.837, 79.590 50.095 C 78.864 43.675, 80.001 41.572, 82.726 44.298 C 84.105 45.677, 84.677 45.621, 88.380 43.751 C 90.646 42.606, 93.287 40.999, 94.250 40.180 C 95.913 38.764, 96 41.297, 96 91.345 L 96 144 107.862 144 C 121.275 144, 121.158 144.101, 117.615 135.620 C 116.524 133.010, 116.024 128.954, 116.074 123.128 C 116.138 115.691, 117.516 103.162, 117.875 106.750 C 117.944 107.438, 118.513 108, 119.139 108 C 120.953 108, 119.478 99.138, 116.569 92.560 C 115.156 89.365, 114 85.709, 114 84.435 C 114 83.160, 113.614 81.880, 113.143 81.588 C 112.672 81.297, 114.247 79.013, 116.643 76.512 C 120.104 72.900, 121 71.239, 121 68.436 C 121 65.563, 120.444 64.591, 118.006 63.203 C 114.460 61.186, 114.266 60.425, 117.105 59.683 C 119.624 59.024, 119.080 56.357, 116.521 56.823 C 114.670 57.160, 114.671 57.103, 116.706 46.765 C 117.364 43.420, 114.673 41.899, 112.298 44.273 C 110.903 45.669, 110.446 45.633, 107.626 43.914 C 105.907 42.865, 103.698 42.006, 102.719 42.004 C 101.739 42.002, 100.685 41.342, 100.376 40.538 C 100.068 39.734, 98.957 38.804, 97.908 38.471 C 96.119 37.903, 96 36.681, 96 18.933 L 96 0 48 0 L 0 0 0 72 M 79.667 65.667 C 78.051 67.282, 79.271 70.870, 82.500 74 C 85.914 77.309, 87.045 76.821, 84.965 72.934 C 84.395 71.870, 83.235 71, 82.385 71 C 81.190 71, 80.990 70.323, 81.500 68 C 82.111 65.217, 81.233 64.100, 79.667 65.667 M 116.322 66.780 C 115.674 67.192, 115.224 68.422, 115.322 69.514 C 115.442 70.857, 114.802 71.599, 113.344 71.807 C 111.279 72.102, 109.168 76.501, 110.468 77.801 C 111.225 78.559, 115.925 74.981, 118.234 71.889 C 120.804 68.446, 119.439 64.798, 116.322 66.780 M 90.667 77.667 C 89.516 78.817, 89.938 80, 91.500 80 C 92.325 80, 93 79.325, 93 78.500 C 93 76.938, 91.817 76.516, 90.667 77.667 M 103.991 78.511 C 102.962 79.750, 103.111 80, 104.878 80 C 106.045 80, 107 79.577, 107 79.059 C 107 77.327, 105.240 77.006, 103.991 78.511" stroke="none" fill="black" fill-rule="evenodd"/>
</svg>