<svg xmlns="http://www.w3.org/2000/svg" width="192" height="144" viewBox="0 0 192 144" version="1.1">
	<path d="M 0 72 L 0 144 37.979 144 L 75.957 144 74.899 141.677 C 74.072 139.864, 74.427 137.201, 76.519 129.523 C 77.992 124.116, 79.804 117.972, 80.545 115.872 C 81.362 113.558, 81.520 111.821, 80.946 111.467 C 79.479 110.560, 79.830 101.856, 81.537 96.847 C 84.263 88.844, 87.579 70.635, 87.188 65.807 C 86.872 61.909, 86.443 61.062, 84.654 60.807 C 81.886 60.413, 81.181 56.535, 83.697 55.545 C 87.346 54.110, 99 52.260, 99 53.116 C 99 53.602, 100.058 54, 101.351 54 C 104.430 54, 110 55.962, 110 57.046 C 110 57.514, 108.840 59.149, 107.421 60.680 C 105.371 62.892, 104.975 64.081, 105.488 66.481 C 105.843 68.141, 106.380 72.650, 106.681 76.500 C 106.983 80.350, 108.492 87.775, 110.036 93 C 112.708 102.043, 113.202 108.338, 111.546 112.214 C 111.134 113.179, 111.680 116.677, 112.796 120.214 C 117.073 133.775, 118.232 139.697, 117.044 141.918 L 115.917 144.024 154.208 143.762 L 192.500 143.500 192.757 71.750 L 193.013 0 96.507 0 L 0 0 0 72 M 0.474 72.500 C 0.474 112.100, 0.598 128.154, 0.750 108.176 C 0.901 88.198, 0.901 55.798, 0.750 36.176 C 0.598 16.554, 0.474 32.900, 0.474 72.500" stroke="none" fill="black" fill-rule="evenodd"/>
</svg>