<svg xmlns="http://www.w3.org/2000/svg" width="192" height="144" viewBox="0 0 192 144" version="1.1">
	<path d="M 0 21.500 C 0 38.750, 0.264 43, 1.333 43 C 2.067 43, 3.003 42.663, 3.415 42.250 C 3.827 41.837, 5.814 41.037, 7.832 40.471 C 11.445 39.457, 11.509 39.350, 12.088 33.327 C 13.269 21.050, 20.478 12.560, 30.754 11.343 C 35.555 10.774, 36.378 10.273, 40.575 5.361 L 45.155 0 22.577 0 L 0 0 0 21.500 M 51.799 6.413 C 54.207 12.179, 54.867 12.943, 58.336 13.983 C 63.558 15.547, 70.793 22.409, 73.642 28.500 C 76.206 33.982, 76.725 41.315, 74.841 45.450 C 73.953 47.399, 73.971 48.960, 74.918 52.120 C 75.801 55.067, 75.846 56.554, 75.077 57.323 C 73.393 59.007, 73.756 69.207, 75.594 71.831 C 77.713 74.856, 78.222 79.299, 76.369 78.588 C 75.496 78.253, 75 78.776, 75 80.031 C 75 81.114, 74.662 82, 74.250 82.001 C 72.692 82.002, 72.903 90.674, 74.492 91.994 C 75.346 92.702, 75.812 94.018, 75.526 94.918 C 74.703 97.512, 80.372 107.561, 82.447 107.185 C 83.917 106.918, 84.132 107.531, 83.842 111.162 C 83.535 115.011, 83.784 115.592, 86.250 116.782 C 89.108 118.161, 89.413 119.132, 88.049 122.500 C 87.447 123.987, 88.556 127, 92.370 134.242 L 97.500 143.985 145 143.742 L 192.500 143.500 192.674 109 C 192.770 90.025, 192.585 57.738, 192.262 37.250 L 191.676 0 120.399 0 L 49.122 0 51.799 6.413 M 188 41 C 188 41.550, 188.450 42, 189 42 C 189.550 42, 190 41.550, 190 41 C 190 40.450, 189.550 40, 189 40 C 188.450 40, 188 40.450, 188 41 M 1.015 64.298 C 1.032 77.684, 0.961 77.649, 6.411 67 C 11.038 57.960, 11.439 56.373, 9.278 55.667 C 8.300 55.347, 6.038 54.413, 4.250 53.591 L 1 52.097 1.015 64.298 M 1 113.500 C 1 132.772, 1.361 144, 1.981 144 C 2.520 144, 3.167 142.988, 3.418 141.750 C 3.669 140.512, 4.136 138.262, 4.456 136.750 C 4.890 134.702, 4.651 134, 3.519 134 C 1.595 134, 1.611 133.012, 3.620 127.993 C 4.615 125.505, 4.999 122.744, 4.616 120.829 C 4.273 119.116, 4.398 117.216, 4.894 116.607 C 6.687 114.406, 8.660 105.407, 8.239 101.348 C 7.820 97.303, 7.931 97.125, 12.542 94.422 C 15.146 92.897, 19.979 90.670, 23.283 89.473 C 26.587 88.277, 28.888 87.059, 28.395 86.766 C 25.794 85.223, 20.160 84.950, 14.426 86.090 C 8.321 87.303, 7.838 87.256, 5.036 85.184 C 3.411 83.983, 1.838 83, 1.540 83 C 1.243 83, 1 96.725, 1 113.500 M 22 140.500 C 22 142.425, 22.450 144, 23 144 C 23.550 144, 24 142.425, 24 140.500 C 24 138.575, 23.550 137, 23 137 C 22.450 137, 22 138.575, 22 140.500" stroke="none" fill="black" fill-rule="evenodd"/>
</svg>