<svg xmlns="http://www.w3.org/2000/svg" width="192" height="144" viewBox="0 0 192 144" version="1.1">
	<path d="M 0 53.500 C 0 104.227, 0.093 107, 1.789 107 C 4.664 107, 39.341 104.002, 39.504 103.739 C 39.586 103.608, 40.659 101.826, 41.890 99.779 C 43.121 97.732, 46.124 94.301, 48.564 92.153 C 53.567 87.749, 53.884 86.733, 50.904 84.646 C 47.660 82.373, 49.103 80.008, 59.977 69.777 C 71.361 59.066, 75.476 54.163, 87.366 37.139 C 95.568 25.397, 96 24.514, 96 19.483 C 96 14.673, 95.816 14.235, 93.993 14.712 C 90.040 15.746, 85.886 12.952, 83.383 7.576 C 82.083 4.784, 81.015 1.938, 81.010 1.250 C 81.002 0.271, 72.228 0, 40.500 0 L 0 0 0 53.500 M 128 2.272 C 128 4.757, 123.666 31.465, 122.446 36.500 C 121.242 41.472, 119.316 44.556, 109.951 56.509 C 99.495 69.855, 92.967 80.259, 89.836 88.568 C 88.607 91.831, 86.530 96.451, 85.220 98.836 C 83.911 101.221, 82.988 103.302, 83.170 103.461 C 84.174 104.338, 111.668 105.505, 112.722 104.716 C 113.394 104.213, 115.068 101.347, 116.441 98.348 C 117.814 95.348, 120.059 91.462, 121.429 89.711 L 123.921 86.527 121.336 83.829 C 117.860 80.201, 118.382 78.610, 127.561 64.853 C 136.803 51, 141.720 40.892, 151.498 15.648 C 154.554 7.758, 155.129 5.269, 154.385 3.148 L 153.455 0.500 140.727 0.220 L 128 -0.060 128 2.272 M 182.811 35.156 C 172.974 54.793, 169.170 64.741, 165.521 80.375 C 162.524 93.215, 159.755 100, 157.511 100 C 156.173 100, 155.957 101.093, 156.204 106.629 L 156.500 113.258 164 115.183 C 168.125 116.242, 175.930 118.466, 181.345 120.126 C 186.759 121.786, 191.376 122.958, 191.604 122.730 C 191.831 122.502, 191.901 98.802, 191.759 70.064 L 191.500 17.812 182.811 35.156 M 78.525 122.722 C 77.439 123.003, 76.046 123.922, 75.431 124.763 C 74.678 125.793, 73.370 126.113, 71.424 125.741 C 69.745 125.420, 67.298 125.829, 65.580 126.717 C 63.272 127.911, 62.217 127.992, 60.772 127.090 C 59.305 126.174, 58.306 126.297, 55.961 127.682 C 53.217 129.303, 52.882 129.311, 51.360 127.789 C 49.839 126.267, 49.520 126.295, 46.980 128.173 C 43.509 130.739, 40 129.326, 40 125.361 L 40 122.792 31.750 123.419 C 27.212 123.763, 18.213 124.552, 11.750 125.171 L 0 126.296 0 135.153 L 0 144.010 96.250 143.755 L 192.500 143.500 192.563 134 L 192.626 124.500 192.274 133.842 C 191.990 141.404, 191.652 143.080, 190.503 142.640 C 187.549 141.506, 166.194 135.071, 159.086 133.172 C 153.594 131.705, 151.095 131.455, 149.446 132.207 C 147.914 132.905, 146.638 132.886, 145.359 132.146 C 143.816 131.253, 143.050 131.610, 140.856 134.244 C 138.405 137.184, 138.010 137.326, 135.476 136.171 C 133.058 135.069, 132.576 135.161, 131.314 136.962 C 129.815 139.103, 125.568 139.729, 124.481 137.969 C 124.111 137.371, 122.405 137.209, 120.411 137.583 C 115.754 138.456, 113.381 136.604, 115.319 133.609 C 117.106 130.847, 118.213 126.250, 117.237 125.647 C 116.814 125.385, 110.175 124.680, 102.484 124.079 C 94.793 123.479, 86.700 122.813, 84.500 122.599 C 82.300 122.386, 79.611 122.441, 78.525 122.722 M 0.360 135 C 0.360 140.225, 0.529 142.363, 0.735 139.750 C 0.941 137.137, 0.941 132.863, 0.735 130.250 C 0.529 127.638, 0.360 129.775, 0.360 135" stroke="none" fill="black" fill-rule="evenodd"/>
</svg>