<svg xmlns="http://www.w3.org/2000/svg" width="192" height="144" viewBox="0 0 192 144" version="1.1">
	<path d="M 0 72 L 0 144 3.250 143.946 C 6.143 143.897, 7.324 142.842, 14 134.350 C 22.580 123.435, 27.119 120, 32.961 120 C 36.522 120, 37.024 119.698, 37.527 117.250 C 37.838 115.737, 38.792 111.996, 39.648 108.935 C 41.064 103.871, 41.060 102.944, 39.602 98.650 C 37.301 91.871, 37.541 89.347, 40.681 87.290 C 42.155 86.324, 44.034 85.526, 44.856 85.517 C 46.860 85.494, 47.780 81.616, 48.507 70.115 C 49.311 57.406, 49.593 56.313, 52.567 54.364 C 56.602 51.720, 57.438 53.633, 58 66.796 L 58.500 78.500 62.242 71.292 C 67.455 61.249, 74.412 54.622, 76.388 57.818 C 76.666 58.268, 75.749 61.081, 74.351 64.068 C 71.196 70.806, 66 84.111, 66 85.448 C 66 85.995, 68.812 83.690, 72.250 80.326 C 77.568 75.122, 83.402 71, 85.450 71 C 87.420 71, 85.271 75.651, 81.213 80.169 C 76.169 85.786, 73 90.300, 73 91.869 C 73 92.385, 75.138 92.012, 77.750 91.039 C 84.384 88.569, 90.705 87.713, 91.601 89.163 C 92.602 90.784, 88.123 94.134, 82.094 96.274 C 74.518 98.963, 71.363 102.089, 70.520 107.742 C 69.600 113.905, 67.739 118.280, 64.060 122.925 L 61.091 126.673 65.486 130.986 C 67.903 133.359, 70.920 137.260, 72.191 139.657 L 74.500 144.014 133.500 143.757 L 192.500 143.500 192.516 71.500 C 192.525 31.900, 192.407 16.034, 192.254 36.242 L 191.975 72.985 188.238 72.513 C 181.357 71.645, 168.265 66.518, 166.319 63.929 C 165.669 63.065, 163.361 61.826, 161.190 61.175 C 157.324 60.017, 154.412 57.931, 147.126 51.100 C 145.132 49.230, 143.275 47.667, 143 47.626 C 141.970 47.474, 139 44.521, 139 43.649 C 139 43.150, 137.394 40.964, 135.430 38.791 C 131.542 34.488, 128.702 28.652, 127.596 22.698 C 127.208 20.607, 125.565 16.806, 123.945 14.252 C 121.738 10.772, 121 8.404, 121 4.804 L 121 0 60.500 0 L 0 0 0 72 M 0.474 72.500 C 0.474 112.100, 0.598 128.154, 0.750 108.176 C 0.901 88.198, 0.901 55.798, 0.750 36.176 C 0.598 16.554, 0.474 32.900, 0.474 72.500" stroke="none" fill="black" fill-rule="evenodd"/>
</svg>