<svg xmlns="http://www.w3.org/2000/svg" width="192" height="144" viewBox="0 0 192 144" version="1.1">
	<path d="M 0 72 L 0 144 35 144 C 64.347 144, 70 143.774, 70 142.599 C 70 141.828, 71.838 135.416, 74.085 128.349 C 76.331 121.282, 78.432 114.600, 78.753 113.500 C 79.074 112.400, 76.531 115.018, 73.102 119.318 C 67.979 125.742, 66.613 126.923, 65.434 125.945 C 64.645 125.291, 64 123.910, 64 122.878 C 64 120.838, 62.953 120.453, 61.450 121.940 C 60.927 122.457, 59.223 123.110, 57.662 123.390 C 55.368 123.802, 54.941 123.595, 55.435 122.308 C 55.944 120.983, 55.791 120.928, 54.523 121.981 C 52.410 123.734, 52.631 122.080, 54.987 118.506 C 56.821 115.723, 56.838 115.470, 55.237 114.908 C 53.839 114.417, 54.127 113.986, 56.757 112.626 C 58.540 111.703, 60.006 110.623, 60.013 110.224 C 60.020 109.826, 62.715 106.350, 66 102.500 C 70.244 97.527, 72.587 93.672, 74.090 89.186 C 75.253 85.713, 75.934 82.601, 75.603 82.269 C 75.271 81.938, 74.993 82.304, 74.985 83.083 C 74.972 84.249, 74.799 84.235, 74.008 83 C 73.478 82.175, 73.291 80.712, 73.590 79.750 C 73.890 78.787, 73.707 78, 73.184 78 C 72.661 78, 71.969 76.989, 71.646 75.753 C 71.203 74.059, 71.773 72.946, 73.959 71.235 C 76.363 69.354, 76.967 67.980, 77.483 63.232 C 77.825 60.079, 78.330 56.429, 78.604 55.120 C 79.018 53.146, 78.770 52.827, 77.150 53.251 C 75.637 53.646, 74.852 52.943, 73.671 50.131 C 69.280 39.681, 70.127 38.631, 83.192 38.336 C 88.862 38.209, 96.351 37.572, 99.835 36.923 C 105.318 35.900, 106.382 35.953, 107.744 37.315 C 109.176 38.747, 109.123 39.483, 107.159 45.466 C 105.971 49.083, 105 52.837, 105 53.810 C 105 54.782, 104.100 57.342, 103 59.500 C 100.013 65.359, 100.326 69.600, 103.882 71.439 C 106.903 73.001, 107.263 74.055, 108.543 85.096 C 109.318 91.781, 109.098 91.438, 116 96.722 C 126.356 104.651, 127.478 105.760, 125.539 106.150 C 124.021 106.455, 124.131 106.860, 126.398 109.302 C 129.773 112.935, 129.679 113.673, 125.771 114.247 C 123.159 114.630, 122.026 114.169, 119.846 111.835 C 118.363 110.247, 116.936 109.298, 116.675 109.724 C 116.414 110.151, 115.874 113.123, 115.475 116.329 C 115.076 119.536, 114.187 122.375, 113.500 122.639 C 112.566 122.997, 112.977 125.381, 115.125 132.059 C 116.706 136.977, 118 141.681, 118 142.512 C 118 143.839, 122.557 143.992, 155.250 143.762 L 192.500 143.500 192.757 71.750 L 193.013 0 96.507 0 L 0 0 0 72 M 0.474 72.500 C 0.474 112.100, 0.598 128.154, 0.750 108.176 C 0.901 88.198, 0.901 55.798, 0.750 36.176 C 0.598 16.554, 0.474 32.900, 0.474 72.500" stroke="none" fill="black" fill-rule="evenodd"/>
</svg>