<svg xmlns="http://www.w3.org/2000/svg" width="192" height="144" viewBox="0 0 192 144" version="1.1">
	<path d="M 37 18.884 C 37 19.370, 39.587 20.792, 42.750 22.044 C 54.490 26.692, 66.973 38.269, 66.993 44.527 C 66.997 45.642, 68.284 47.681, 69.853 49.059 C 71.423 50.436, 74.884 54.248, 77.544 57.531 C 80.205 60.814, 84.433 65.400, 86.941 67.721 C 89.448 70.043, 91.793 72.293, 92.150 72.721 C 96.815 78.311, 100.255 81.125, 102.225 80.964 C 105.888 80.665, 107 80.930, 107 82.099 C 107 82.703, 107.626 84.616, 108.391 86.349 C 109.155 88.082, 110.535 91.525, 111.456 94 C 112.377 96.475, 114.226 100.178, 115.565 102.229 C 116.904 104.279, 118 106.316, 118 106.756 C 118 107.195, 119.263 108.937, 120.807 110.627 L 123.613 113.700 123.183 128.850 L 122.752 144 157.376 144 L 192 144 192 105 C 192 74.454, 191.729 66.005, 190.750 66.024 C 190.063 66.038, 187.626 66.482, 185.336 67.010 C 182.197 67.735, 180.134 67.606, 176.960 66.486 C 171.918 64.707, 167.824 64.614, 161.260 66.129 C 157.269 67.051, 155.169 66.958, 149.869 65.629 C 146.296 64.733, 139.744 64, 135.309 64 C 129.402 64, 126.916 63.603, 126.014 62.517 C 125.177 61.508, 123.141 61.091, 119.642 61.211 C 115.914 61.340, 112.453 60.554, 107.059 58.354 C 100.607 55.723, 99.469 54.878, 98.499 51.998 C 97.131 47.935, 91.671 44, 87.401 44 C 84.783 44, 83.130 42.806, 77.701 36.993 C 74 33.031, 70.871 28.690, 70.501 27.005 C 69.477 22.343, 65.393 19.705, 60.112 20.295 C 57.699 20.565, 52.299 20.174, 48.112 19.428 C 39.036 17.809, 37 17.709, 37 18.884" stroke="none" fill="black" fill-rule="evenodd"/>
</svg>