<svg xmlns="http://www.w3.org/2000/svg" width="192" height="144" viewBox="0 0 192 144" version="1.1">
	<path d="M -0 25.584 L -0 51.168 4 48 C 6.200 46.258, 8 44.491, 8 44.075 C 8 41.873, 32.935 18.553, 43.058 11.288 C 49.351 6.771, 55.400 2.404, 56.500 1.582 C 58.290 0.246, 55.425 0.084, 29.250 0.045 L 0 0 -0 25.584 M 140.128 1.750 C 140.882 2.712, 141.735 3.725, 142.023 4 C 143.731 5.633, 146 10.243, 146 12.081 C 146 14.275, 144.231 14.410, 139.830 12.552 C 138.584 12.027, 138.068 12.439, 137.801 14.174 C 137.603 15.453, 137.755 17.175, 138.137 18 C 143.476 29.524, 145.372 38.860, 144.789 50.745 C 144.393 58.801, 143.829 61.458, 141.550 66 C 133.044 82.948, 117.272 87.305, 110.782 74.500 C 107.196 67.424, 94.232 52, 91.872 52 C 91.308 52, 89.482 53.364, 87.814 55.032 C 86.146 56.700, 83.256 58.702, 81.391 59.481 C 77.806 60.979, 77.126 62.380, 79.343 63.700 C 81.558 65.020, 83.790 69.142, 85.817 75.658 C 86.871 79.045, 88.803 83.319, 90.111 85.155 C 91.418 86.991, 92.359 89.170, 92.202 89.997 C 91.957 91.286, 92.055 91.295, 92.885 90.060 C 93.681 88.876, 94.427 89.180, 97.075 91.769 C 104.088 98.625, 113.570 101.221, 125 99.413 C 140.881 96.901, 146.140 94.082, 153.273 84.257 C 156.248 80.160, 158.251 76.786, 164.409 65.500 C 165.009 64.400, 165.785 63.275, 166.134 63 C 166.483 62.725, 166.976 61.600, 167.230 60.500 C 167.672 58.579, 167.722 58.574, 168.502 60.381 C 169.253 62.119, 168.631 63.977, 164.845 71.308 C 157.822 84.904, 155.141 92.005, 158.071 89.250 C 158.810 88.555, 161.864 88.007, 164.950 88.016 C 169.703 88.030, 170.998 88.471, 173.964 91.085 C 177.009 93.768, 177.406 94.666, 177.239 98.494 C 177.135 100.890, 176.985 103.222, 176.906 103.675 C 176.307 107.128, 177.187 108.889, 179.661 109.184 C 181.323 109.381, 182.419 110.183, 182.582 111.321 C 182.803 112.859, 182.228 113.097, 178.875 112.855 C 175.119 112.584, 174.546 112.950, 168.203 119.676 C 163.231 124.948, 158.531 128.537, 150 133.578 C 143.675 137.315, 137.150 141.185, 135.500 142.179 C 132.569 143.943, 133.189 143.979, 162.500 143.742 L 192.500 143.500 192.852 140 C 193.045 138.075, 192.878 105.788, 192.481 68.250 L 191.759 -0 165.257 -0 C 140.161 -0, 138.828 0.093, 140.128 1.750 M 52.092 57.402 C 49.883 59.754, 47.578 69.671, 49.746 67.500 C 52.068 65.174, 57 57.594, 57 56.350 C 57 54.241, 54.573 54.761, 52.092 57.402 M 169.543 57.931 C 169.226 58.443, 169.425 59.144, 169.984 59.490 C 170.543 59.835, 171 59.416, 171 58.559 C 171 56.802, 170.400 56.544, 169.543 57.931 M 1.007 106.750 L 1 144 27.174 144 L 53.349 144 51.240 141.750 C 44.209 134.250, 34.899 119.311, 25.242 100.035 C 21.394 92.354, 19.021 89.127, 12.655 82.915 C 8.340 78.704, 3.956 73.964, 2.912 72.380 C 1.029 69.525, 1.013 69.818, 1.007 106.750" stroke="none" fill="black" fill-rule="evenodd"/>
</svg>