<svg xmlns="http://www.w3.org/2000/svg" width="192" height="144" viewBox="0 0 192 144" version="1.1">
	<path d="M 0 72 L 0 144 16.894 144 L 33.787 144 32.893 140.018 C 32.401 137.828, 30.208 131.597, 28.020 126.170 C 20.236 106.862, 19.592 102.842, 19.543 73.222 L 19.500 46.943 16.025 43.385 C 12 39.264, 10.109 33.284, 10.044 24.473 C 9.989 16.890, 11.588 14.497, 17.979 12.599 C 22.242 11.333, 45.773 1.390, 46.917 0.371 C 47.146 0.167, 36.683 0, 23.667 0 L 0 0 0 72 M 158.666 3.250 C 159.004 5.038, 159.732 7.073, 160.283 7.774 C 160.834 8.475, 161.016 9.317, 160.687 9.646 C 160.359 9.975, 161.140 12.326, 162.425 14.872 C 163.709 17.417, 166.018 23.305, 167.555 27.956 C 171.833 40.896, 171.083 53.324, 166.448 46.301 L 164.599 43.500 162.809 56.308 C 160.190 75.034, 155.640 85.318, 145.110 96.313 C 139.324 102.353, 131.242 107.314, 123.572 109.531 C 106.739 114.398, 86.443 104.598, 88.717 92.702 C 89.283 89.738, 90.260 88.865, 99 83.510 C 102.025 81.657, 106.133 78.871, 108.128 77.320 C 114.463 72.396, 118.294 65, 114.509 65 C 113.688 65, 111.620 62.525, 109.913 59.500 C 108.206 56.475, 106.662 54, 106.481 54 C 106.301 54, 104.882 55.269, 103.327 56.820 C 101.402 58.739, 98.290 60.193, 93.578 61.374 C 89.771 62.328, 85.272 64.094, 83.581 65.298 C 81.890 66.503, 79.976 67.366, 79.328 67.217 C 78.681 67.069, 77.869 67.404, 77.523 67.962 C 77.147 68.572, 77.556 68.724, 78.547 68.344 C 80.003 67.785, 80.040 67.963, 78.858 69.855 C 78.122 71.035, 77.245 72, 76.911 72 C 76.577 72, 75.448 73.901, 74.402 76.225 C 71.543 82.575, 71.789 95.047, 74.888 100.927 C 81.096 112.705, 98.015 124.178, 109.690 124.526 C 116.644 124.734, 125.090 123.419, 132 121.053 C 138.121 118.957, 148.317 113.933, 148.833 112.759 C 149.017 112.342, 149.749 112, 150.461 112 C 151.173 112, 152.260 111.391, 152.878 110.647 C 153.495 109.904, 156.809 107.091, 160.242 104.397 C 165.913 99.948, 166.275 99.793, 164.202 102.710 C 162.947 104.476, 160.476 106.936, 158.710 108.178 C 156.945 109.420, 154.200 111.635, 152.610 113.102 C 151.021 114.568, 146.487 117.366, 142.536 119.320 C 138.584 121.274, 134.715 123.639, 133.938 124.575 C 132.617 126.167, 133.194 126.231, 142.822 125.563 C 151.416 124.966, 153.522 125.112, 155.559 126.447 C 158.773 128.552, 158.708 132.205, 155.381 136.567 C 153.155 139.486, 153.022 140, 154.498 140 C 155.741 140, 156.085 140.567, 155.710 142 C 155.209 143.916, 155.680 144, 166.914 144 L 178.640 144 181.431 140.500 C 183.942 137.350, 187.074 135.453, 185.465 138.057 C 185.106 138.638, 185.088 140.213, 185.425 141.557 C 185.904 143.464, 186.692 144, 189.019 144 L 192 144 192 72 L 192 0 175.025 -0 L 158.050 -0 158.666 3.250 M 78 27.500 L 75.500 28.929 79 28.973 C 80.925 28.998, 84.862 29.301, 87.750 29.648 C 93.430 30.330, 94.748 29.117, 90.453 27.161 C 87.012 25.593, 81.052 25.755, 78 27.500 M 150 143 C 149.099 143.582, 148.975 143.975, 149.691 143.985 C 150.346 143.993, 151.160 143.550, 151.500 143 C 152.267 141.758, 151.921 141.758, 150 143" stroke="none" fill="black" fill-rule="evenodd"/>
</svg>