<svg xmlns="http://www.w3.org/2000/svg" width="192" height="144" viewBox="0 0 192 144" version="1.1">
	<path d="M 84.392 2.426 C 84.896 4.432, 84.454 5.126, 81.847 6.426 C 80.112 7.292, 77.299 8.007, 75.596 8.015 C 71.525 8.035, 70.515 8.887, 70.278 12.500 C 70.059 15.833, 71.772 21, 73.096 21 C 74.541 21, 76.706 26.247, 77.427 31.500 C 77.805 34.250, 78.331 37.247, 78.596 38.160 C 79.003 39.564, 78.474 39.739, 75.155 39.294 C 72.044 38.877, 70.794 39.206, 69.116 40.884 C 67.952 42.048, 67.009 44.012, 67.021 45.250 C 67.057 49.046, 71.839 61.403, 73.940 63.129 C 75.911 64.748, 75.911 64.771, 73.962 66.534 C 72.883 67.511, 72 69.163, 72 70.205 C 72 73.135, 74.764 77.790, 76.909 78.471 C 78.164 78.870, 79.440 80.990, 80.553 84.530 C 83.031 92.406, 84.488 93.066, 84.554 86.343 C 84.584 83.328, 85.057 80.554, 85.605 80.180 C 86.153 79.806, 87.149 77.070, 87.818 74.100 C 88.849 69.522, 88.803 68.348, 87.517 66.386 C 85.531 63.354, 85.601 62.323, 88 59.273 C 89.384 57.513, 90 55.216, 90 51.810 C 90 49.064, 90.861 45.001, 91.948 42.615 C 93.019 40.263, 94.831 35.966, 95.974 33.067 C 97.117 30.167, 99.329 26.517, 100.889 24.957 C 102.957 22.889, 103.912 20.719, 104.411 16.958 C 105.235 10.746, 103.584 7.560, 98.422 5.403 C 96.154 4.455, 95 3.303, 95 1.987 C 95 0.241, 94.321 0, 89.392 0 C 83.954 0, 83.802 0.074, 84.392 2.426" stroke="none" fill="black" fill-rule="evenodd"/>
</svg>