<svg xmlns="http://www.w3.org/2000/svg" width="192" height="144" viewBox="0 0 192 144" version="1.1">
	<path d="M 0 72 L 0 144 37.500 144 L 75 144 75 141.622 C 75 140.314, 75.675 137.629, 76.500 135.654 C 78.893 129.928, 78.476 124.162, 75.500 121.821 C 72.476 119.443, 72.385 117.140, 74.987 108.839 C 77.467 100.927, 77.465 100.681, 74.914 102.046 C 73.767 102.660, 72.599 102.933, 72.319 102.653 C 71.407 101.740, 73.126 96.002, 74.329 95.944 C 75.851 95.871, 85.392 84.543, 85.858 82.256 C 86.054 81.290, 86.605 80.018, 87.082 79.428 C 87.627 78.754, 86.473 76.915, 83.975 74.475 C 80.742 71.319, 80 69.896, 80 66.854 C 80 64.111, 80.600 62.691, 82.250 61.529 C 84.160 60.183, 84.273 59.799, 83 58.987 C 82.175 58.461, 80.911 58.024, 80.191 58.015 C 79.471 58.007, 79.184 57.511, 79.554 56.913 C 79.923 56.315, 81.083 56.050, 82.132 56.324 C 83.908 56.789, 83.993 56.386, 83.381 50.411 C 82.821 44.945, 82.958 44, 84.312 44 C 85.186 44, 86.285 44.686, 86.754 45.525 C 87.496 46.850, 88.153 46.753, 91.795 44.775 L 95.984 42.500 95.992 21.250 L 96 0 48 0 L 0 0 0 72 M 98.250 41.977 C 96.082 43.753, 96 44.422, 96 60.327 C 96 72.621, 95.681 76.950, 94.750 77.292 C 93.750 77.658, 93.750 78.015, 94.750 79.075 C 95.696 80.078, 96 88.133, 96 112.200 L 96 144 107.862 144 C 121.368 144, 121.001 144.348, 117.430 134.923 C 114.865 128.151, 115.829 126.152, 125.166 118.881 C 137.139 109.555, 137.156 109.535, 136.805 104.695 C 136.520 100.774, 136.289 100.480, 133.273 100.188 C 130.589 99.929, 129.185 100.682, 124.927 104.665 L 119.808 109.454 120.472 104.218 C 120.987 100.165, 120.670 97.733, 119.069 93.454 C 117.931 90.413, 117 86.833, 117 85.498 C 117 84.033, 116.142 82.611, 114.838 81.913 C 112.707 80.773, 112.719 80.737, 115.622 79.517 C 119.611 77.840, 125 72.298, 125 69.873 C 125 68.788, 124.236 66.461, 123.302 64.700 C 122.368 62.940, 121.731 60.649, 121.888 59.610 C 122.102 58.195, 121.747 57.883, 120.475 58.371 C 119.071 58.910, 118.887 58.588, 119.408 56.511 C 121.861 46.735, 120.885 41.984, 117.123 45.389 C 115.519 46.840, 115.043 46.806, 111.474 44.987 C 109.331 43.894, 106.981 43, 106.253 43 C 105.525 43, 103.933 42.355, 102.715 41.567 C 100.747 40.294, 100.249 40.340, 98.250 41.977 M 81.327 66.591 C 80.674 68.291, 87.414 75.919, 88.558 74.775 C 89.761 73.572, 87.861 69.945, 86.174 70.224 C 84.888 70.436, 84.574 69.863, 84.822 67.750 C 85.054 65.760, 84.700 65, 83.540 65 C 82.659 65, 81.662 65.716, 81.327 66.591 M 119.688 66.646 C 119.309 67.024, 119 68.383, 119 69.667 C 119 71.319, 118.427 72, 117.035 72 C 115.112 72, 112.302 75.635, 113.387 76.720 C 114.217 77.550, 119.633 75.063, 121.508 72.991 C 124.038 70.196, 122.276 64.057, 119.688 66.646 M 106.624 78.538 C 106.284 79.423, 106.681 80.324, 107.560 80.661 C 109.539 81.421, 110.205 80.697, 109.417 78.643 C 108.625 76.580, 107.393 76.533, 106.624 78.538 M 84.697 111.393 C 84.288 112.434, 84.189 113.522, 84.476 113.810 C 85.389 114.722, 86.191 113.227, 85.809 111.328 C 85.459 109.588, 85.405 109.591, 84.697 111.393" stroke="none" fill="black" fill-rule="evenodd"/>
</svg>