<svg xmlns="http://www.w3.org/2000/svg" width="192" height="144" viewBox="0 0 192 144" version="1.1">
	<path d="M 49.311 1.250 C 48.868 1.938, 48.362 8.125, 48.188 15 C 47.934 25.012, 48.235 28.629, 49.698 33.169 L 51.526 38.838 57.013 36.851 C 64.229 34.238, 72.667 34.775, 79.519 38.282 C 93.307 45.340, 101.603 62.447, 97.568 75.500 C 95.412 82.471, 95.683 88.578, 98.428 94.943 C 102.403 104.156, 107.759 110.100, 115.974 114.417 C 123.174 118.201, 123.425 118.253, 131.956 117.767 C 136.722 117.495, 141.560 116.771, 142.706 116.157 C 145.517 114.653, 146.349 115.854, 148.482 124.500 C 150.181 131.387, 151.609 135.015, 153.010 136 C 153.401 136.275, 154.455 137.933, 155.352 139.684 C 156.983 142.867, 156.982 142.869, 154.242 143.285 C 152.734 143.513, 160.613 143.768, 171.750 143.850 L 192 144 192 72 L 192 0 188.515 0 L 185.031 0 185.765 6.250 C 187 16.757, 186.623 42.958, 185.142 49.500 C 181.666 64.857, 174.325 79.175, 164.561 89.645 C 160.531 93.965, 155.834 98.312, 154.121 99.304 L 151.008 101.108 152.059 98.344 C 152.637 96.824, 154.613 93.088, 156.451 90.040 C 161.573 81.546, 163.085 75.803, 163.706 62.500 C 164.610 43.110, 161.327 31.486, 151.835 20.468 C 146.304 14.048, 141.023 9.320, 133.584 4.128 L 127.668 0 88.893 0 C 58.970 0, 49.934 0.285, 49.311 1.250 M 45.685 45.163 C 44.136 46.317, 40.917 49.115, 38.531 51.381 C 36.145 53.646, 33.199 56.175, 31.984 57 C 27.740 59.884, 18.330 70.153, 15.200 75.316 C 11.473 81.467, 7.608 92.118, 5.643 101.656 C 3.857 110.323, 3.669 128.532, 5.279 137 L 6.514 143.500 29.507 143.742 L 52.500 143.985 47.975 141.130 C 39.321 135.672, 33.873 127.353, 30.538 114.503 C 26.252 97.993, 26.024 74.736, 30.058 65.500 C 32.637 59.594, 36.629 54, 38.264 54 C 38.903 54, 41.766 51.525, 44.627 48.500 C 50.073 42.741, 50.426 41.627, 45.685 45.163 M 113.250 63.989 C 109.319 66.386, 109.041 69.281, 112.280 74.087 C 114.805 77.834, 121.293 81.958, 124.703 81.984 C 127.368 82.003, 128.986 77.239, 128.994 69.348 C 129 64.466, 128.835 64.138, 125.851 63.098 C 121.167 61.465, 116.894 61.767, 113.250 63.989 M 58.750 69.689 C 56.329 70.322, 56.330 80.152, 58.752 85 C 60.382 88.265, 60.813 88.496, 65.152 88.443 C 68.650 88.401, 70.715 87.692, 73.474 85.587 C 78.509 81.747, 78.731 80.490, 74.942 77.269 C 66.643 70.214, 63.096 68.554, 58.750 69.689" stroke="none" fill="black" fill-rule="evenodd"/>
</svg>