<svg xmlns="http://www.w3.org/2000/svg" width="192" height="144" viewBox="0 0 192 144" version="1.1">
	<path d="M 0 72 L 0 144 34.779 144 L 69.557 144 71.406 136.750 C 72.424 132.762, 74.726 125.415, 76.522 120.423 C 80.179 110.262, 80.140 106.384, 76.369 104.950 C 75.066 104.455, 73.948 103.251, 73.885 102.275 C 73.821 101.299, 73.665 100.050, 73.537 99.500 C 73.409 98.950, 73.236 97.980, 73.152 97.344 C 73.068 96.707, 72.117 96.418, 71.034 96.701 C 69.953 96.984, 65.710 95.817, 61.604 94.108 C 57.498 92.398, 53.238 91, 52.138 91 C 51.037 91, 49.221 89.715, 48.102 88.143 C 46.405 85.760, 45.145 85.192, 40.493 84.711 C 35.031 84.148, 28.804 81.441, 28.602 79.542 C 28.546 79.016, 30.957 78.433, 33.961 78.249 C 36.964 78.064, 39.524 77.809, 39.650 77.684 C 39.775 77.558, 38.566 74.765, 36.962 71.478 C 35.357 68.190, 34.035 64.986, 34.022 64.357 C 34.010 63.728, 33.325 62.955, 32.500 62.638 C 31.601 62.293, 31 60.786, 31 58.876 C 31 55.853, 31.093 55.775, 32.829 57.345 C 35.402 59.674, 36 59.427, 36 56.034 C 36 51.172, 38.979 46, 41.779 46 C 43.346 46, 44.370 45.302, 44.710 44 C 45.455 41.154, 46.862 41.527, 47.541 44.750 C 47.860 46.263, 48.356 48.400, 48.643 49.500 C 48.930 50.600, 49.369 56.338, 49.618 62.250 C 50.129 74.391, 49.358 76.981, 45.215 77.035 L 42.500 77.071 45 78.500 C 46.375 79.286, 49.196 79.945, 51.268 79.965 C 53.341 79.984, 57.297 81.182, 60.059 82.626 C 62.821 84.070, 65.187 85.083, 65.316 84.876 C 65.799 84.103, 72.210 68.385, 73.219 65.500 C 73.796 63.850, 74.658 61.719, 75.134 60.764 C 75.610 59.809, 76.653 54.371, 77.452 48.679 C 79.005 37.619, 82.050 28.027, 84.703 25.841 C 86.134 24.662, 85.859 24.440, 82.415 24 C 77.359 23.354, 76.959 21.077, 80.563 13.459 L 83.247 7.784 87.237 8.422 C 90.903 9.008, 99.064 13.676, 100.508 16.013 C 101.398 17.452, 105.219 17.226, 112.043 15.328 C 120.045 13.104, 120.780 13.864, 118.685 22.202 C 117.656 26.299, 117.300 30.508, 117.675 34.144 C 118.379 40.962, 116.193 45.579, 111.806 46.543 C 109.191 47.117, 109 47.497, 109 52.122 C 109 54.851, 109.476 57.628, 110.057 58.292 C 110.638 58.956, 113.512 62.764, 116.442 66.753 L 121.771 74.005 121.722 81.593 C 121.687 87.011, 122.068 89.424, 123.055 90.034 C 123.814 90.503, 127.375 91.160, 130.968 91.492 C 134.561 91.825, 138.960 92.742, 140.745 93.530 C 142.862 94.465, 145.532 94.752, 148.424 94.355 C 153.319 93.684, 158 94.498, 158 96.019 C 158 96.559, 156.762 97.014, 155.250 97.030 C 152.987 97.055, 152.795 97.233, 154.167 98.033 C 155.083 98.568, 156.658 98.933, 157.667 98.845 C 161.217 98.532, 164 99.010, 164 99.933 C 164 101.444, 160.429 102.158, 150.164 102.697 C 136.623 103.407, 136.202 103.387, 129.500 101.704 C 126.200 100.875, 121.775 99.900, 119.667 99.538 C 116.309 98.960, 115.565 98.297, 113.667 94.189 L 111.500 89.500 111.175 93.487 C 110.997 95.680, 110.429 97.983, 109.913 98.605 C 109.307 99.335, 109.474 100.149, 110.387 100.906 C 111.329 101.688, 111.637 103.313, 111.311 105.789 C 110.932 108.663, 111.964 112.352, 115.888 122.148 C 118.673 129.104, 121.508 136.872, 122.187 139.410 L 123.422 144.025 157.961 143.763 L 192.500 143.500 192.757 71.750 L 193.013 0 96.507 0 L 0 0 0 72 M 0.474 72.500 C 0.474 112.100, 0.598 128.154, 0.750 108.176 C 0.901 88.198, 0.901 55.798, 0.750 36.176 C 0.598 16.554, 0.474 32.900, 0.474 72.500 M 149.750 77.689 C 148.787 77.941, 148 78.734, 148 79.451 C 148 80.168, 147.325 81.315, 146.500 82 C 144.407 83.737, 144.630 85.748, 147 86.500 C 148.278 86.906, 149 88.013, 149 89.567 C 149 91.590, 149.493 92, 151.929 92 C 155.290 92, 157.162 90.438, 158.936 86.154 C 160.113 83.313, 159.992 82.961, 156.843 80.098 C 153.475 77.036, 152.942 76.855, 149.750 77.689" stroke="none" fill="black" fill-rule="evenodd"/>
</svg>