<svg xmlns="http://www.w3.org/2000/svg" width="192" height="144" viewBox="0 0 192 144" version="1.1">
	<path d="M -0 72.005 L -0 144.010 96.250 143.755 L 192.500 143.500 192.757 71.750 L 193.013 0 96.507 0 L 0 0 -0 72.005 M 0.474 72.500 C 0.474 112.100, 0.598 128.154, 0.750 108.176 C 0.901 88.198, 0.901 55.798, 0.750 36.176 C 0.598 16.554, 0.474 32.900, 0.474 72.500 M 73.477 59.750 C 73.861 61.813, 74.249 63.895, 74.338 64.378 C 74.427 64.860, 73.158 65.452, 71.518 65.693 C 67.774 66.242, 67.633 66.400, 68.343 69.230 C 69.294 73.018, 75.610 79.596, 80.506 81.898 C 88.915 85.851, 110.256 89.003, 114.225 86.879 C 116.600 85.609, 116.464 83.849, 113.547 78.093 C 107.316 65.796, 90.315 56, 75.205 56 C 72.942 56, 72.825 56.254, 73.477 59.750" stroke="none" fill="black" fill-rule="evenodd"/>
</svg>