<svg xmlns="http://www.w3.org/2000/svg" width="192" height="144" viewBox="0 0 192 144" version="1.1">
	<path d="M 0 72 L 0 144 12.410 144 L 24.820 144 29.660 137.150 C 42.496 118.984, 54.855 103.683, 58.092 101.951 C 59.244 101.334, 61.157 101.066, 62.343 101.354 C 66.767 102.430, 69.237 99.766, 71.141 91.867 C 73.144 83.555, 73.404 79.638, 72.116 77.184 C 71.630 76.258, 70.921 73.621, 70.541 71.325 C 69.961 67.824, 70.199 66.801, 72.011 64.989 C 73.540 63.460, 74.880 63.004, 76.587 63.432 C 77.914 63.766, 79.041 63.917, 79.092 63.769 C 79.142 63.621, 79.490 57.493, 79.865 50.152 C 80.455 38.621, 80.808 36.613, 82.465 35.402 C 83.519 34.631, 84.730 34, 85.156 34 C 87.238 34, 88.247 39.089, 88.157 49.131 C 88.104 55.064, 88.397 60.127, 88.808 60.381 C 89.219 60.635, 91.262 57.527, 93.349 53.473 C 96.823 46.724, 103.577 39, 106.003 39 C 107.748 39, 107.082 42.906, 104.451 48.096 C 101.630 53.664, 96 67.889, 96 69.450 C 96 69.998, 99.037 67.471, 102.750 63.836 C 109.627 57.101, 112.642 55, 115.434 55 C 118.267 55, 117.076 58.038, 112.178 63.310 C 106.998 68.884, 102.550 74.884, 103.152 75.485 C 103.355 75.688, 105.992 75.002, 109.011 73.960 C 114.804 71.960, 123 71.358, 123 72.932 C 123 74.172, 118.131 77.550, 115 78.482 C 113.625 78.891, 110.364 80.371, 107.754 81.770 C 104.015 83.774, 102.795 85.077, 102.009 87.907 C 101.460 89.883, 101.009 92.025, 101.006 92.667 C 100.993 95.330, 96.899 103.106, 93.570 106.791 C 91.606 108.964, 90 111.066, 90 111.461 C 90 111.856, 92.213 114.663, 94.918 117.697 C 102.005 125.648, 106.119 133.793, 105.775 139.187 L 105.500 143.500 149 143.500 L 192.500 143.500 192.527 71.500 C 192.542 31.900, 192.420 7.767, 192.254 17.872 L 191.954 36.244 186.706 35.809 C 181.429 35.371, 179.521 34.055, 172.954 26.321 C 172.104 25.319, 169.786 23.217, 167.803 21.649 C 164.625 19.136, 164.294 18.463, 165.008 15.971 C 165.604 13.892, 165.446 13.001, 164.409 12.604 C 163.634 12.306, 163 11.374, 163 10.531 C 163 9.689, 162.550 9, 162 9 C 161.450 9, 161 8.325, 161 7.500 C 161 6.675, 160.550 6, 160 6 C 159.450 6, 159 4.650, 159 3 L 159 0 79.500 0 L 0 0 0 72 M 0.474 72.500 C 0.474 112.100, 0.598 128.154, 0.750 108.176 C 0.901 88.198, 0.901 55.798, 0.750 36.176 C 0.598 16.554, 0.474 32.900, 0.474 72.500" stroke="none" fill="black" fill-rule="evenodd"/>
</svg>