<svg xmlns="http://www.w3.org/2000/svg" width="192" height="144" viewBox="0 0 192 144" version="1.1">
	<path d="M 60.163 1.673 C 58.753 4.192, 64.904 20.407, 68.441 23.497 C 69.073 24.048, 70.412 27.035, 71.418 30.134 C 72.995 34.994, 73.092 36.653, 72.123 42.216 C 71.505 45.762, 71 50.230, 71 52.145 C 71 54.464, 69.600 57.942, 66.805 62.563 C 64.498 66.378, 61.236 72.875, 59.555 77 C 56.536 84.413, 56.500 84.712, 56.500 102.667 C 56.500 119.886, 56.616 120.991, 58.728 123.847 C 60.820 126.676, 60.866 127.077, 59.478 130.398 C 58.665 132.344, 58 136.200, 58 138.968 L 58 144 65.055 144 L 72.111 144 74.199 138.976 C 75.347 136.213, 76.439 134.106, 76.626 134.293 C 76.972 134.639, 75.782 139.088, 74.497 142.250 C 73.829 143.895, 75.703 144, 105.738 144 C 136.338 144, 137.766 143.916, 139.486 142.015 C 140.917 140.434, 141.161 139.011, 140.688 135.009 C 140.304 131.768, 140.601 128.547, 141.528 125.920 C 142.952 121.885, 142.921 121.758, 137.674 110.176 C 129.515 92.166, 127.340 84.926, 128.632 80.085 L 129.694 76.104 126.597 75.802 C 123.649 75.515, 123.440 75.197, 122.256 69.212 C 120.672 61.207, 118.773 57.570, 115.021 55.353 C 112.499 53.864, 112.108 53.112, 112.518 50.544 C 112.785 48.870, 113.551 43.775, 114.220 39.222 C 115.388 31.278, 115.556 30.913, 118.400 30.176 C 120.030 29.754, 121.518 28.946, 121.707 28.380 C 121.895 27.815, 120.463 25.275, 118.525 22.736 C 116.586 20.197, 115 17.896, 115 17.623 C 115 17.349, 116.509 17.371, 118.354 17.670 C 121.489 18.179, 121.749 18.004, 122.354 14.982 C 122.709 13.204, 123 9.106, 123 5.875 L 123 0 105.200 0 C 93.716 0, 87.014 0.386, 86.313 1.087 C 85.530 1.870, 85.038 1.870, 84.554 1.087 C 84.134 0.407, 79.615 0, 72.491 0 C 62.881 0, 60.953 0.262, 60.163 1.673 M 68.667 74.667 C 68.300 75.033, 68 75.798, 68 76.367 C 68 76.993, 68.466 76.934, 69.183 76.217 C 69.834 75.566, 70.134 74.801, 69.850 74.517 C 69.566 74.233, 69.033 74.300, 68.667 74.667 M 64.967 83.667 C 64.949 84.125, 64.543 87.541, 64.063 91.257 C 63.584 94.973, 63.443 99.882, 63.749 102.166 L 64.306 106.319 66.036 101.909 C 68.094 96.663, 68.240 83.919, 66.250 83.252 C 65.563 83.022, 64.985 83.208, 64.967 83.667 M 81.231 115.250 C 80.267 119.870, 80.575 121.287, 82.039 118.971 C 82.969 117.501, 83.393 111, 82.559 111 C 82.316 111, 81.719 112.912, 81.231 115.250" stroke="none" fill="black" fill-rule="evenodd"/>
</svg>