<svg xmlns="http://www.w3.org/2000/svg" width="192" height="144" viewBox="0 0 192 144" version="1.1">
	<path d="M 0 72 L 0 144 43 144 L 86 144 86.014 138.750 C 86.021 135.863, 86.273 132.587, 86.573 131.471 C 86.906 130.228, 86.320 128.522, 85.059 127.068 C 82.520 124.141, 82.517 124.315, 85.221 118.377 C 87.482 113.415, 87.647 110.192, 86.886 86 C 86.698 80.004, 88.706 71.091, 90.605 69.500 C 91.261 68.950, 92.083 67.539, 92.430 66.364 C 93.099 64.106, 90.107 59.746, 84.750 55.171 C 81.650 52.523, 81.365 50.455, 83.424 45.529 C 86.134 39.042, 96.932 34.753, 102.735 37.858 C 108.784 41.095, 111.034 47.280, 114.432 70 C 117.066 87.614, 117.331 91.769, 117.137 112.500 C 117.035 123.500, 117.232 135.093, 117.575 138.262 L 118.199 144.024 155.350 143.762 L 192.500 143.500 192.529 71.500 C 192.544 31.900, 192.421 7.260, 192.255 16.744 L 191.953 33.987 188.693 31.851 C 183.104 28.187, 175.429 15.127, 173.059 5.245 L 171.801 0 85.900 0 L 0 0 0 72 M 0.474 72.500 C 0.474 112.100, 0.598 128.154, 0.750 108.176 C 0.901 88.198, 0.901 55.798, 0.750 36.176 C 0.598 16.554, 0.474 32.900, 0.474 72.500" stroke="none" fill="black" fill-rule="evenodd"/>
</svg>