<svg xmlns="http://www.w3.org/2000/svg" width="192" height="144" viewBox="0 0 192 144" version="1.1">
	<path d="M 0.183 29.750 L 0.500 59.500 11.130 59.783 C 23.895 60.122, 30.355 59.107, 39 55.404 C 44.925 52.867, 46.715 52.600, 59.248 52.390 L 72.995 52.159 75.498 49.185 C 78.650 45.439, 78.645 44.644, 75.476 45.249 C 71.638 45.983, 71.377 44.089, 74.866 40.828 C 77.636 38.239, 78 37.266, 78 32.449 C 78 26.106, 79.263 24.420, 86.933 20.534 C 93.284 17.316, 97.234 17.314, 101.448 20.528 C 104.569 22.908, 105.030 22.984, 109.349 21.829 C 111.872 21.154, 114.257 20.924, 114.650 21.316 C 115.042 21.709, 113.932 23.507, 112.182 25.313 C 108.480 29.131, 108.314 30.069, 110.919 32.427 C 112.501 33.858, 112.663 34.668, 111.842 37.024 C 111.293 38.597, 110.199 40.420, 109.410 41.075 C 108.359 41.947, 108.265 42.614, 109.058 43.570 C 109.862 44.538, 109.235 46.964, 106.624 52.989 C 103.492 60.217, 103.293 61.169, 104.804 61.700 C 105.737 62.027, 108.010 62.901, 109.856 63.641 C 111.702 64.381, 113.598 64.749, 114.069 64.458 C 115.062 63.844, 125.333 68.815, 125.843 70.156 C 126.467 71.797, 137 78, 139.161 78 C 140.347 78, 142.653 79.575, 144.391 81.573 C 146.101 83.539, 150.528 88.456, 154.229 92.499 C 157.930 96.543, 164.269 104.948, 168.316 111.176 C 176.385 123.594, 177.337 124.646, 180.971 125.154 C 182.970 125.434, 183.700 126.420, 184.799 130.323 C 186.357 135.853, 185.888 138, 183.123 138 C 179.738 138, 172.692 129.897, 164.976 117.131 C 160.626 109.934, 154.701 101.799, 150.805 97.676 C 144.323 90.814, 144.049 90.646, 142.170 92.346 C 141.103 93.312, 139.960 95.450, 139.630 97.098 L 139.031 100.094 124.919 99.944 C 116.013 99.849, 110.411 100.189, 109.735 100.865 C 108.972 101.628, 109.138 104.905, 110.310 112.219 C 111.217 117.873, 112.259 127.343, 112.627 133.261 L 113.296 144.023 152.818 143.761 L 192.341 143.500 192.571 71.750 L 192.802 0 96.334 0 L -0.134 0 0.183 29.750 M 0.437 27 C 0.437 41.575, 0.577 47.537, 0.747 40.250 C 0.918 32.962, 0.918 21.037, 0.747 13.750 C 0.577 6.462, 0.437 12.425, 0.437 27 M 48 59.135 C 44.838 59.654, 40.374 61.374, 37.500 63.181 C 34.750 64.910, 30.264 66.846, 27.530 67.481 C 22.858 68.568, 22.509 68.872, 21.692 72.569 C 21.214 74.731, 21.058 86.400, 21.345 98.500 C 21.839 119.307, 23.292 132.294, 26.066 140.700 L 27.155 144 49.854 144 L 72.554 144 75.470 133.350 C 77.755 125.007, 79.549 120.906, 83.755 114.413 C 87.881 108.044, 89.136 105.206, 89.178 102.153 C 89.272 95.356, 86.749 74, 85.852 74 C 85.383 74, 85 72.019, 85 69.598 C 85 65.549, 84.745 65.107, 81.815 64.085 C 80.063 63.475, 77.887 62.303, 76.979 61.481 C 75.309 59.970, 63.439 57.990, 57 58.148 C 55.075 58.195, 51.025 58.640, 48 59.135 M 123.539 78.937 C 123.205 79.477, 123.510 80.865, 124.216 82.022 C 125.355 83.889, 125.176 84.407, 122.635 86.614 C 121.059 87.983, 119.934 89.265, 120.135 89.465 C 121.679 90.995, 134 86.260, 134 84.136 C 134 82.746, 124.196 77.873, 123.539 78.937 M 1.110 132.250 L 1 144 4.500 144 C 6.425 144, 8 143.832, 8 143.626 C 8 143.420, 7.281 141.282, 6.403 138.876 C 5.524 136.469, 3.999 131.350, 3.013 127.500 L 1.220 120.500 1.110 132.250" stroke="none" fill="black" fill-rule="evenodd"/>
</svg>