<svg xmlns="http://www.w3.org/2000/svg" width="192" height="144" viewBox="0 0 192 144" version="1.1">
	<path d="M 54.500 18.391 C 51.033 19.907, 44.491 26.291, 42.455 30.145 C 40.311 34.203, 39.648 40.403, 40.940 44.317 C 43.334 51.573, 55.123 59.190, 61.486 57.593 C 62.705 57.287, 63.992 57.326, 64.346 57.679 C 65.006 58.340, 64.284 58.848, 57.053 62.813 C 54.325 64.308, 53.025 65.622, 53.374 66.532 C 53.671 67.305, 53.261 69.190, 52.463 70.719 C 50.191 75.075, 50.893 77.707, 53.604 74.996 C 54.275 74.325, 55.242 74.457, 56.527 75.396 C 58.248 76.655, 58.303 77.066, 57.059 79.390 C 55.859 81.633, 55.878 82.217, 57.205 83.740 C 58.230 84.917, 58.923 88.533, 59.297 94.649 C 59.605 99.681, 60.447 104.744, 61.169 105.899 C 62.221 107.583, 62.235 108.394, 61.241 109.986 C 59.649 112.535, 59.649 117.465, 61.241 120.014 C 62.228 121.595, 62.228 122.405, 61.241 123.986 C 59.531 126.724, 59.688 129.662, 61.728 133.116 C 63.143 135.512, 63.233 136.397, 62.228 138.007 C 60.748 140.376, 60.611 144, 62 144 C 62.550 144, 63 143.373, 63 142.607 C 63 141.841, 63.675 140.955, 64.500 140.638 C 65.520 140.247, 66 140.692, 66 142.031 C 66 143.114, 66.450 144, 67 144 C 68.381 144, 68.225 143.117, 66.032 138.500 C 64.850 136.013, 64.485 134.141, 65.066 133.550 C 66.387 132.207, 66.226 126.335, 64.806 124.061 C 63.880 122.578, 63.880 121.559, 64.806 119.527 C 66.259 116.337, 66.367 111.345, 65 110.500 C 64.450 110.160, 64 108.792, 64 107.460 C 64 105.752, 64.664 104.901, 66.250 104.574 C 68.926 104.023, 79 103.193, 79 103.525 C 79 103.652, 78.303 105.424, 77.451 107.462 C 76.238 110.366, 75.940 114.722, 76.076 127.584 L 76.250 144 92.125 144 C 100.856 144, 108 143.640, 108 143.200 C 108 142.760, 107.566 141.966, 107.037 141.437 C 106.507 140.907, 105.776 137.942, 105.412 134.848 C 104.841 129.992, 105.124 128.423, 107.481 123.362 C 109.727 118.540, 110.341 117.847, 110.941 119.456 C 111.633 121.312, 111.722 121.320, 112.678 119.611 C 113.473 118.191, 114.140 119.946, 115.842 127.944 C 118.395 139.929, 118.423 140.376, 116.575 139.667 C 115.750 139.350, 114.479 140.146, 113.552 141.560 L 111.954 144 123.942 144 C 135.925 144, 135.932 143.999, 139.465 140.896 C 142.520 138.214, 143 137.187, 143 133.331 C 143 127.910, 142.119 126.142, 135.717 118.707 L 130.728 112.914 131.928 103.707 C 133.066 94.972, 134.876 87.086, 137.064 81.332 C 137.997 78.878, 138.152 78.828, 139.902 80.411 C 141.659 82.002, 141.971 81.843, 146.014 77.293 C 151.057 71.621, 155 63.339, 155 58.420 C 155 55.312, 154.571 54.719, 151.347 53.372 C 148.057 51.997, 147.283 52.002, 143.563 53.423 C 134.700 56.807, 134.976 55.150, 144.500 47.790 C 150.839 42.891, 151.762 42.476, 154.274 43.391 C 156.435 44.180, 157.684 44.027, 159.928 42.701 C 161.512 41.766, 163.500 41, 164.345 41 C 166.984 41, 167.430 38.767, 165.159 36.928 C 162.454 34.737, 162.463 34.384, 165.250 33.600 C 167.341 33.012, 167.377 32.873, 165.767 31.636 C 164.179 30.416, 164.501 29.787, 169.601 24.152 C 172.663 20.768, 174.883 18, 174.534 18 C 173.074 18, 166.858 21.710, 157 28.465 C 151.225 32.422, 143.085 37.478, 138.911 39.701 C 131.712 43.536, 131.261 43.648, 130.152 41.872 C 129.509 40.842, 128.285 40, 127.433 40 C 126.580 40, 126.129 40.399, 126.430 40.887 C 126.731 41.374, 126.325 42.315, 125.528 42.977 C 124.397 43.915, 123.271 43.915, 120.422 42.974 C 115.608 41.386, 107.506 42.232, 104.249 44.663 C 101.097 47.017, 97.818 55.092, 99.750 55.744 C 101.773 56.428, 101.180 59, 99 59 C 97.325 59, 97 58.333, 97 54.901 C 97 47.232, 91.383 40.014, 85.405 40.004 C 82.790 39.999, 80 37.023, 80 34.236 C 80 23.113, 65.005 13.795, 54.500 18.391 M 69.340 70.909 C 68.176 73.995, 68.618 78.646, 70.168 79.604 C 70.716 79.942, 70.634 80.736, 69.970 81.536 C 69.232 82.425, 69.084 84.822, 69.540 88.477 C 70.126 93.162, 70.517 93.971, 71.973 93.509 C 72.927 93.206, 77.426 92.304, 81.970 91.505 C 86.514 90.706, 90.797 89.584, 91.488 89.010 C 92.179 88.437, 93.741 85.233, 94.960 81.890 L 97.176 75.812 95.122 73.899 C 93.992 72.847, 93.325 71.318, 93.638 70.501 C 94.537 68.158, 91.178 67.545, 87.375 69.358 C 83.099 71.397, 78.381 71.447, 74.636 69.494 C 70.805 67.496, 70.609 67.549, 69.340 70.909 M 61.688 112.646 C 60.413 113.921, 60.987 117, 62.500 117 C 63.325 117, 64 116.325, 64 115.500 C 64 114.675, 64.034 113.674, 64.075 113.275 C 64.180 112.258, 62.515 111.819, 61.688 112.646 M 62.667 126.667 C 61.409 127.925, 62 131, 63.500 131 C 64.433 131, 65 130.056, 65 128.500 C 65 126.072, 64.026 125.307, 62.667 126.667" stroke="none" fill="black" fill-rule="evenodd"/>
</svg>