<svg xmlns="http://www.w3.org/2000/svg" width="192" height="144" viewBox="0 0 192 144" version="1.1">
	<path d="M -0 72.005 L -0 144.010 96.250 143.755 L 192.500 143.500 192.757 71.750 L 193.013 0 96.507 0 L 0 0 -0 72.005 M 0.474 72.500 C 0.474 112.100, 0.598 128.154, 0.750 108.176 C 0.901 88.198, 0.901 55.798, 0.750 36.176 C 0.598 16.554, 0.474 32.900, 0.474 72.500 M 85.797 32.726 C 85.604 33.152, 85.458 34.850, 85.473 36.500 C 85.496 39.044, 86.213 39.877, 90.194 41.979 C 92.776 43.343, 95.353 45.480, 95.922 46.729 C 96.492 47.978, 97.642 49, 98.479 49 C 100.379 49, 100.474 52.362, 98.617 53.903 C 97.098 55.163, 96 53.515, 96 49.977 C 96 47.456, 94.457 46.685, 92.021 47.989 C 89.270 49.461, 89.479 51.806, 92.483 53.174 C 94.144 53.931, 95.175 55.418, 95.597 57.664 C 95.943 59.511, 96.584 61.243, 97.022 61.513 C 98.117 62.191, 94.658 69.094, 92.033 71.470 C 89.581 73.689, 89.130 73.687, 66.124 71.388 C 56.545 70.431, 50.395 70.205, 49.810 70.790 C 48.331 72.269, 51.764 75, 55.103 75 C 56.807 75, 58.306 75.634, 58.636 76.495 C 59.063 77.606, 60.151 77.840, 62.872 77.404 C 66.200 76.872, 70.388 78.248, 79.250 82.783 C 79.662 82.994, 80 82.484, 80 81.651 C 80 80.817, 79.100 79.849, 78 79.500 C 73.998 78.230, 76.150 77, 82.375 77 C 91.392 77, 94.724 77.835, 95.356 80.253 C 95.838 82.097, 96.435 82.235, 101.613 81.701 C 108.636 80.976, 111 82.067, 111 86.035 C 111 89.132, 112.652 90.069, 113.629 87.526 C 114.126 86.228, 114.372 86.230, 115.678 87.535 C 117.555 89.413, 119 88.558, 119 85.569 C 119 83.638, 119.671 83.148, 123.061 82.606 C 125.294 82.249, 127.504 82.193, 127.972 82.483 C 128.440 82.772, 132.446 83.696, 136.875 84.536 C 141.305 85.376, 146.792 86.721, 149.070 87.525 C 152.939 88.890, 153.401 88.851, 156.099 86.930 C 157.687 85.799, 159.388 85.122, 159.880 85.426 C 161.391 86.359, 163.145 83.298, 162.805 80.321 C 162.615 78.658, 160.754 75.719, 158.270 73.159 C 153.134 67.866, 149.751 67.203, 136.863 68.965 C 129.687 69.945, 127.563 69.947, 126.651 68.971 C 125.748 68.005, 126.307 67.862, 129.250 68.307 C 133.550 68.957, 134.399 67.353, 130.250 66.419 C 119.893 64.086, 120 64.148, 120 60.461 C 120 58.558, 120.450 57, 121 57 C 122.814 57, 122.041 53.770, 119.750 51.777 C 118.513 50.700, 117.500 48.848, 117.500 47.660 C 117.500 46.068, 116.250 44.903, 112.750 43.231 C 108.266 41.088, 106.794 38.863, 108.971 37.518 C 109.504 37.188, 111.346 37.645, 113.064 38.533 C 114.781 39.421, 116.444 39.889, 116.760 39.574 C 117.075 39.258, 117.146 38.870, 116.917 38.710 C 116.687 38.551, 114.797 36.976, 112.715 35.210 C 109.564 32.537, 108.101 32, 103.974 32 C 100.100 32, 98.744 32.437, 97.768 34 C 96.279 36.385, 91.746 36.827, 92.638 34.500 C 92.955 33.675, 92.828 32.963, 92.357 32.918 C 91.886 32.873, 90.296 32.637, 88.824 32.393 C 87.352 32.150, 85.990 32.300, 85.797 32.726 M 111.015 57.250 C 111.024 57.938, 111.401 59.084, 111.854 59.797 C 112.507 60.827, 112.955 60.760, 114.024 59.471 C 115.158 58.104, 115.144 57.704, 113.936 56.939 C 111.945 55.679, 110.997 55.780, 111.015 57.250 M 101 62.738 C 101 63.279, 99.852 65.412, 98.450 67.479 C 94.591 73.165, 95.595 75.173, 100.252 71.084 C 104.235 67.586, 104.946 65.030, 102.500 63 C 101.675 62.315, 101 62.197, 101 62.738" stroke="none" fill="black" fill-rule="evenodd"/>
</svg>