<svg xmlns="http://www.w3.org/2000/svg" width="192" height="144" viewBox="0 0 192 144" version="1.1">
	<path d="M -0 9.927 L -0 19.853 5.396 22.941 C 11.053 26.177, 16.280 31.342, 20.345 37.713 C 24.604 44.388, 27.199 46.117, 33.872 46.722 C 37.670 47.067, 41.055 46.806, 42.946 46.022 C 46.404 44.590, 51 45.383, 51 47.412 C 51 48.168, 50.294 49.057, 49.431 49.388 C 48.422 49.775, 48.078 50.670, 48.467 51.896 C 48.808 52.971, 48.154 55.562, 46.964 57.844 C 45.805 60.067, 44.290 65.400, 43.597 69.693 C 42.547 76.193, 40.250 82.841, 38.318 84.971 C 38.083 85.230, 37.490 84.793, 37 84 C 35.471 81.526, 35.100 83.331, 36.137 88.196 C 36.685 90.764, 37.752 93.379, 38.507 94.006 C 39.263 94.633, 39.637 95.783, 39.338 96.561 C 39.040 97.339, 40.220 100.501, 41.962 103.587 C 45.109 109.163, 44.930 109.353, 39.846 105.836 C 38.386 104.826, 36.923 104, 36.596 104 C 35.365 104, 36.114 108.655, 38.022 112.859 C 40.760 118.893, 40.621 119.281, 36.002 118.500 C 32.668 117.937, 31.890 118.130, 31.314 119.662 C 30.355 122.216, 28.136 123.789, 23.750 125.022 C 21.608 125.625, 20 126.704, 20 127.539 C 20 128.342, 19.325 129, 18.500 129 C 16.689 129, 16.488 130.926, 18.250 131.397 C 18.938 131.581, 26.025 132.751, 34 133.998 C 48.051 136.194, 52.098 137.277, 51.872 138.780 C 51.812 139.176, 51.816 140.512, 51.882 141.750 L 52 144 122 144 L 192 144 192.004 86.250 C 192.006 54.487, 192.301 22.088, 192.659 14.250 L 193.311 0 96.656 0 L 0 0 -0 9.927 M 0.365 10.500 C 0.368 16, 0.536 18.122, 0.738 15.216 C 0.941 12.311, 0.939 7.811, 0.734 5.216 C 0.528 2.622, 0.363 5, 0.365 10.500 M 90 48.633 C 90 49.151, 92.250 51.791, 95 54.500 C 97.750 57.209, 100 58.916, 100 58.294 C 100 57.672, 100.268 56.465, 100.596 55.611 C 101.019 54.508, 100.079 53.556, 97.346 52.319 C 95.231 51.362, 92.713 49.929, 91.750 49.135 C 90.787 48.340, 90 48.114, 90 48.633" stroke="none" fill="black" fill-rule="evenodd"/>
</svg>