<svg xmlns="http://www.w3.org/2000/svg" width="192" height="144" viewBox="0 0 192 144" version="1.1">
	<path d="M 114.139 5.268 C 113.491 8.165, 112.069 12.001, 110.980 13.792 C 109.891 15.583, 109 18.762, 109 20.857 C 109 24.602, 109.078 24.680, 113.736 25.582 L 118.473 26.500 118.160 30.750 C 117.937 33.777, 118.229 34.996, 119.174 34.985 C 122.094 34.951, 123.458 33.089, 123.153 29.549 C 122.864 26.197, 123.015 26, 125.876 26 C 127.543 26, 130.001 25.501, 131.339 24.891 L 133.772 23.783 131.886 18.416 C 130.779 15.266, 130 10.355, 130 6.525 L 130 0 122.659 0 L 115.318 0 114.139 5.268" stroke="none" fill="black" fill-rule="evenodd"/>
</svg>