<svg xmlns="http://www.w3.org/2000/svg" width="192" height="144" viewBox="0 0 192 144" version="1.1">
	<path d="M 0 35.849 L 0 71.697 5.250 70.900 C 20.124 68.642, 41.956 67.780, 96.647 67.291 L 156.794 66.753 158.316 62.879 C 159.670 59.430, 160.093 59.098, 162.169 59.861 C 163.451 60.332, 164.644 61.681, 164.820 62.859 C 165.184 65.304, 167.641 65.555, 175 63.902 C 181.798 62.375, 183.163 62.635, 185.759 65.952 C 187.071 67.628, 188.975 69, 189.989 69 C 191.003 69, 192.060 69.563, 192.338 70.250 C 192.615 70.938, 192.878 55.413, 192.921 35.750 L 193 0 96.500 0 L 0 0 0 35.849 M 0.451 36.500 C 0.451 56.300, 0.585 64.542, 0.748 54.815 C 0.912 45.088, 0.912 28.888, 0.749 18.815 C 0.586 8.742, 0.452 16.700, 0.451 36.500 M 33 77.142 C 23.925 77.607, 12.787 78.256, 8.250 78.584 L 0 79.180 0 111.595 L 0 144.010 96.250 143.755 L 192.500 143.500 192.568 110.500 C 192.605 92.350, 192.469 80.127, 192.265 83.337 C 191.948 88.341, 191.653 89.080, 190.198 88.517 C 189.264 88.156, 187.150 87.602, 185.500 87.287 C 180.683 86.367, 168.278 80.167, 167.572 78.326 C 167.055 76.980, 166.578 77.333, 165.212 80.070 C 162.890 84.722, 159.885 84.692, 158.369 80 L 157.238 76.500 103.369 76.398 C 73.741 76.341, 42.075 76.676, 33 77.142 M 0.448 111.500 C 0.447 129.650, 0.582 137.216, 0.748 128.314 C 0.913 119.411, 0.914 104.561, 0.749 95.314 C 0.583 86.066, 0.448 93.350, 0.448 111.500" stroke="none" fill="black" fill-rule="evenodd"/>
</svg>