<svg xmlns="http://www.w3.org/2000/svg" width="192" height="144" viewBox="0 0 192 144" version="1.1">
	<path d="M -0 72.005 L -0 144.010 96.250 143.755 L 192.500 143.500 192.757 71.750 L 193.013 0 96.507 0 L 0 0 -0 72.005 M 0.474 72.500 C 0.474 112.100, 0.598 128.154, 0.750 108.176 C 0.901 88.198, 0.901 55.798, 0.750 36.176 C 0.598 16.554, 0.474 32.900, 0.474 72.500 M 96.500 47.353 C 78.744 54.713, 73.009 59.172, 69.510 68.335 C 68.059 72.133, 67.969 73.257, 69.011 74.513 C 69.712 75.357, 70.519 75.814, 70.805 75.529 C 71.091 75.243, 72.144 76.838, 73.145 79.074 C 75.092 83.424, 77 83.532, 77 79.293 C 77 76.717, 77.011 76.721, 79.250 80 C 80.487 81.812, 82.593 84.012, 83.930 84.889 C 86.313 86.452, 86.344 86.435, 85.545 83.991 C 85.097 82.621, 84.522 79.092, 84.267 76.148 C 83.751 70.195, 85.122 67.491, 86.937 70.882 C 87.554 72.036, 89.396 73.671, 91.030 74.515 C 94.568 76.345, 94.843 77.741, 91.750 78.180 C 89.623 78.482, 89.519 78.883, 89.840 85.485 C 90.028 89.326, 90.626 93.301, 91.170 94.318 C 92.128 96.108, 92.414 101.871, 91.800 107 C 91.505 109.460, 91.614 109.500, 98.598 109.500 C 106.992 109.500, 110.119 107.894, 107.456 104.951 C 105.532 102.825, 102.886 94.460, 103.572 92.672 C 103.843 91.968, 104.168 88.361, 104.296 84.656 C 104.512 78.402, 104.366 77.879, 102.266 77.352 C 101.022 77.040, 99.343 77.038, 98.534 77.348 C 97.726 77.659, 96.798 77.482, 96.473 76.956 C 96.148 76.430, 96.818 76, 97.962 76 C 99.311 76, 101.175 74.358, 103.271 71.323 C 105.047 68.750, 107.779 65.156, 109.342 63.336 L 112.185 60.025 118.342 64.740 C 121.729 67.332, 128.325 72.574, 133 76.387 C 144.068 85.414, 148.517 87.403, 157.500 87.338 C 164.892 87.284, 171.546 86.160, 184.250 82.819 L 192 80.781 192 64.890 C 192 56.151, 191.787 49, 191.526 49 C 190.500 49, 175.512 55.205, 168.495 58.535 L 161.071 62.057 155.786 59.094 C 152.879 57.464, 144.973 54.500, 138.218 52.508 C 131.463 50.516, 123.016 47.787, 119.445 46.443 C 110.756 43.173, 106.143 43.356, 96.500 47.353 M 93.677 62.750 C 93.434 63.163, 92.921 64.963, 92.538 66.751 C 91.712 70.603, 93.669 71.928, 97.564 70.153 C 100.441 68.842, 101.033 63.611, 98.418 62.607 C 96.267 61.782, 94.210 61.844, 93.677 62.750" stroke="none" fill="black" fill-rule="evenodd"/>
</svg>