<svg xmlns="http://www.w3.org/2000/svg" width="192" height="144" viewBox="0 0 192 144" version="1.1">
	<path d="M 0 57 L 0 114 4.034 114 L 8.068 114 7.887 107.447 C 7.702 100.694, 8.178 99.597, 12.166 97.599 C 13.759 96.801, 14.513 95.538, 14.541 93.621 C 14.565 92.046, 15.333 90.393, 16.291 89.857 C 17.231 89.331, 18 87.996, 18 86.891 C 18 85.786, 18.408 85.134, 18.906 85.442 C 19.404 85.750, 19.578 86.896, 19.293 87.989 C 18.963 89.249, 19.364 90.202, 20.387 90.595 C 21.361 90.969, 22 92.369, 22 94.132 C 22 96.332, 22.621 97.286, 24.527 98.010 C 27.190 99.023, 29.046 102.475, 28.285 105 C 28.032 105.839, 28.712 105.508, 29.827 104.250 C 30.923 103.013, 32.074 102, 32.385 102 C 33.436 102, 36 107.887, 36 110.299 C 36 112.679, 36.102 112.703, 49.113 113.281 C 60.878 113.804, 62.472 114.095, 64.613 116.107 L 67 118.349 67 112.125 C 67 106.176, 68.992 100, 70.911 100 C 71.383 100, 72.557 101.201, 73.519 102.670 C 75.079 105.050, 75.216 107.435, 74.783 124.670 L 74.298 144 132.989 144 L 191.681 144 192.338 120.750 C 192.700 107.963, 192.996 75.563, 192.998 48.750 L 193 0 96.500 0 L 0 0 0 57 M 0.468 57.500 C 0.468 88.850, 0.595 101.530, 0.750 85.679 C 0.904 69.827, 0.904 44.177, 0.749 28.679 C 0.594 13.180, 0.468 26.150, 0.468 57.500 M 125.174 37.314 C 123.978 38.587, 123 40.154, 123 40.795 C 123 41.437, 121.878 42.243, 120.507 42.588 C 119.136 42.932, 118.263 43.616, 118.567 44.109 C 118.871 44.601, 117.968 45.442, 116.560 45.977 C 113.223 47.246, 113.184 49.243, 116.513 48.407 C 120.697 47.357, 122.282 49.566, 121.564 55.448 C 121.078 59.434, 121.371 61.284, 122.956 64.214 C 124.102 66.333, 124.687 68.695, 124.317 69.714 C 123.315 72.473, 117.758 76.914, 115.250 76.959 C 114.013 76.982, 113 77.174, 113 77.386 C 113 78.674, 115.806 82.860, 116.323 82.343 C 116.668 81.999, 117.846 82.793, 118.942 84.108 C 120.037 85.424, 120.948 85.922, 120.967 85.215 C 121.024 82.998, 124.823 85.733, 125.180 88.248 C 125.696 91.879, 128.394 90.928, 129.426 86.750 C 129.936 84.688, 130.933 83, 131.641 83 C 133.228 83, 135 86.147, 135 88.966 C 135 92.146, 137.979 92.744, 140.195 90.008 L 142.078 87.682 145.055 89.882 C 147.632 91.788, 148.112 91.872, 148.634 90.512 C 149.006 89.542, 149.924 89.159, 151.033 89.510 C 152.171 89.872, 153.759 89.150, 155.369 87.540 C 156.766 86.143, 158.717 84.993, 159.705 84.985 C 161.057 84.973, 161.174 84.763, 160.178 84.131 C 158.466 83.046, 157.874 77.723, 159.357 76.750 C 160.184 76.207, 160.119 75.755, 159.122 75.112 C 158.364 74.623, 158.053 73.723, 158.431 73.112 C 158.809 72.500, 158.581 72, 157.924 72 C 157.267 72, 155.687 70.875, 154.412 69.500 C 152.477 67.412, 151.181 67, 146.548 67 C 140.687 67, 140.307 66.614, 142.162 62.543 C 143.739 59.083, 142.894 58.600, 138.486 60.441 C 133.854 62.377, 134 62.388, 134 60.107 C 134 59.066, 134.704 57.944, 135.563 57.614 C 136.423 57.284, 136.861 56.584, 136.535 56.057 C 136.210 55.531, 136.917 54.579, 138.107 53.943 C 139.770 53.052, 139.963 52.595, 138.939 51.962 C 137.911 51.327, 138.165 50.685, 140.053 49.151 L 142.500 47.163 137.750 45.963 C 135.137 45.303, 132.943 44.253, 132.872 43.631 C 132.802 43.009, 132.635 41.411, 132.501 40.080 C 132.283 37.925, 129.682 35, 127.983 35 C 127.634 35, 126.370 36.042, 125.174 37.314" stroke="none" fill="black" fill-rule="evenodd"/>
</svg>