<svg xmlns="http://www.w3.org/2000/svg" width="192" height="144" viewBox="0 0 192 144" version="1.1">
	<path d="M 88 0.383 C 88 0.594, 88.900 1.002, 90 1.290 C 91.100 1.577, 92 1.405, 92 0.906 C 92 0.408, 91.100 0, 90 0 C 88.900 0, 88 0.173, 88 0.383 M 93.184 2.748 C 93.420 4.801, 94.449 5.941, 97.250 7.256 C 99.313 8.224, 101 9.453, 101 9.988 C 101 11.647, 90.856 16.867, 83.205 19.146 C 77.921 20.719, 75.384 22.056, 74.005 23.993 C 71.981 26.835, 72.277 31, 74.502 31 C 76.288 31, 81.154 33.631, 82.050 35.082 C 82.523 35.846, 86.445 36.459, 92.650 36.738 C 102.931 37.200, 105.407 36.606, 112.500 31.979 C 114.150 30.903, 116.115 29.724, 116.867 29.359 C 118.607 28.515, 129.343 33.896, 147.314 44.618 C 165.266 55.329, 173.411 57.863, 187.750 57.197 L 192 57 192 28.500 L 192 0 142.434 0 L 92.867 0 93.184 2.748 M 117.762 2.707 C 119.006 2.946, 120.806 2.937, 121.762 2.687 C 122.718 2.437, 121.700 2.241, 119.500 2.252 C 117.300 2.263, 116.518 2.468, 117.762 2.707 M 67.500 121.516 C 66.950 121.712, 63.872 122.392, 60.661 123.026 C 52.865 124.565, 50.569 126.888, 51.434 132.360 C 51.793 134.637, 53.199 138.188, 54.558 140.250 L 57.028 144 75.411 144 L 93.793 144 96.882 140.482 C 100.179 136.726, 101.243 133.809, 101.401 128.080 C 101.488 124.947, 101.063 124.282, 98 122.752 C 95.177 121.341, 91.986 121.018, 81.500 121.081 C 74.350 121.123, 68.050 121.319, 67.500 121.516" stroke="none" fill="black" fill-rule="evenodd"/>
</svg>