<svg xmlns="http://www.w3.org/2000/svg" width="192" height="144" viewBox="0 0 192 144" version="1.1">
	<path d="M 0 31 C 0 48.050, 0.360 62, 0.800 62 C 1.240 62, 2.027 61.587, 2.550 61.083 C 3.546 60.122, 24.269 53, 26.070 53 C 29.858 53, 37.382 47.815, 45 39.955 C 54.601 30.049, 55.631 29.383, 62.827 28.429 C 67.145 27.856, 68 27.405, 68 25.700 C 68 24.577, 67.253 22.832, 66.339 21.823 C 64.092 19.340, 65.291 18.464, 68.894 19.956 C 70.521 20.630, 72.898 20.864, 74.176 20.476 C 76.989 19.622, 81 16.097, 81 14.479 C 81 12.309, 84.136 6.997, 86.010 5.995 C 89.182 4.297, 89.276 4.853, 86.595 9.428 C 83.413 14.858, 83.389 15.350, 86.333 14.787 C 89.148 14.249, 89.584 16.680, 86.829 17.554 C 85.819 17.875, 84.363 19.339, 83.593 20.807 C 82.394 23.096, 82.396 23.864, 83.608 26.208 C 84.385 27.711, 85.916 29.420, 87.010 30.006 C 90.074 31.645, 89.376 33, 85.469 33 C 81.081 33, 79.950 35.251, 82.807 38.301 C 85.509 41.186, 87 45.268, 87 49.783 C 87 54.243, 83.016 58.254, 79.043 57.794 C 76.977 57.555, 76.540 57.896, 76.714 59.611 C 76.877 61.221, 75.806 62.281, 72.214 64.069 C 69.621 65.359, 67.311 66.548, 67.079 66.711 C 66.848 66.874, 67.583 68.019, 68.712 69.254 C 73.072 74.022, 77.171 85.658, 74.970 87.018 C 73.147 88.145, 74.823 92.298, 76.846 91.667 C 87.905 88.215, 88.972 87.570, 89.526 84 C 89.824 82.075, 90.730 79.223, 91.539 77.661 C 92.347 76.100, 92.784 74.460, 92.510 74.016 C 91.775 72.827, 94.820 71.917, 97.382 72.560 C 99.805 73.168, 101.861 77.215, 102.868 83.358 C 103.465 87.005, 103.835 87.342, 109.638 89.520 C 114.142 91.211, 116.072 91.528, 116.888 90.712 C 118.245 89.355, 118.337 87.287, 117.061 86.833 C 115.325 86.217, 118.095 77.060, 121.587 71.870 C 125.340 66.294, 125.460 66, 123.986 66 C 121.614 66, 116.024 61.389, 116.012 59.423 C 116.002 57.729, 115.493 57.420, 113.250 57.746 C 111.197 58.045, 109.790 57.403, 107.697 55.213 C 105.097 52.493, 104.945 51.893, 105.601 46.951 C 106.166 42.691, 107.080 40.784, 110.154 37.449 C 112.269 35.154, 114 32.971, 114 32.598 C 114 32.225, 112.112 30.177, 109.806 28.047 C 106.222 24.737, 105.800 23.946, 106.911 22.608 C 107.913 21.400, 107.958 20.317, 107.105 17.872 C 105.681 13.787, 105.711 13.515, 107.421 14.935 C 108.594 15.908, 108.757 15.711, 108.352 13.807 C 107.926 11.803, 108.272 11.960, 110.984 15 C 112.701 16.925, 115.471 20.873, 117.139 23.773 L 120.173 29.046 124.862 28.424 C 132.492 27.412, 136.664 29.208, 144.782 37.001 C 154.826 46.643, 157.423 47.798, 170.634 48.496 C 176.610 48.812, 183.841 49.571, 186.703 50.184 L 191.906 51.297 192.268 56.398 C 192.467 59.204, 192.713 47.663, 192.815 30.750 L 193 0 96.500 0 L 0 0 0 31 M 0.445 31.500 C 0.444 48.550, 0.581 55.666, 0.748 47.312 C 0.915 38.959, 0.915 25.009, 0.748 16.312 C 0.582 7.616, 0.445 14.450, 0.445 31.500 M 142 69.819 C 142 71.027, 143.897 72.436, 144.591 71.743 C 144.842 71.491, 144.362 70.716, 143.524 70.020 C 142.574 69.231, 142 69.155, 142 69.819 M 95.140 77.331 C 93.937 78.781, 94.557 82, 96.040 82 C 96.494 82, 97.165 81.055, 97.532 79.899 C 98.389 77.199, 96.729 75.416, 95.140 77.331 M 148.762 77.707 C 150.006 77.946, 151.806 77.937, 152.762 77.687 C 153.718 77.437, 152.700 77.241, 150.500 77.252 C 148.300 77.263, 147.518 77.468, 148.762 77.707 M 145 81.845 C 145 82.205, 145.675 86.027, 146.500 90.338 C 147.325 94.649, 148 100.859, 148 104.138 C 148 113.361, 149.619 115.550, 158.263 118.010 C 168.848 121.023, 174.798 124.289, 181.895 130.979 C 185.368 134.253, 189.035 137.194, 190.043 137.514 C 191.051 137.834, 192.069 139.312, 192.304 140.798 C 192.923 144.705, 192.912 96.476, 192.293 90.393 L 191.773 85.287 183.516 84.003 C 174.720 82.634, 168.818 83.218, 170.855 85.255 C 173.452 87.852, 171.680 87.803, 166.750 85.142 C 162.643 82.926, 159.703 82.187, 153.250 81.749 C 148.713 81.441, 145 81.484, 145 81.845 M 186 82 C 189.599 83.153, 192 83.153, 192 82 C 192 81.450, 190.088 81.045, 187.750 81.100 C 184.140 81.184, 183.876 81.320, 186 82 M 38.506 85.332 C 34.110 86.439, 29.915 87.942, 29.185 88.672 C 27.625 90.232, 25 90.437, 25 89 C 25 87.722, 22.481 87.713, 20.236 88.982 C 19.281 89.522, 14.562 91.743, 9.750 93.918 L 1 97.871 1 120.935 L 1 144 9.396 144 C 18.958 144, 17.662 144.933, 29 129.889 C 32.025 125.875, 36.124 120.771, 38.108 118.546 C 43.251 112.778, 43.998 110.918, 44.017 103.816 C 44.027 100.342, 44.695 94.381, 45.503 90.569 C 46.311 86.757, 46.865 83.566, 46.736 83.479 C 46.606 83.391, 42.903 84.225, 38.506 85.332 M 95.130 94.250 C 95.300 97.910, 94.706 101.014, 93.169 104.500 L 90.964 109.500 79.836 113.801 C 73.716 116.167, 68.099 117.868, 67.354 117.582 C 65.468 116.858, 65.579 123.026, 67.662 134.692 L 69.325 144 97.662 144 L 126 144 126.150 132 C 126.233 125.400, 126.345 119.492, 126.400 118.872 C 126.455 118.251, 125.150 117.615, 123.500 117.458 C 121.850 117.301, 116.225 115.429, 111 113.298 C 102.146 109.686, 101.347 109.122, 99.250 105 C 97.685 101.923, 97 98.813, 97 94.788 C 97 91.387, 96.564 89, 95.943 89 C 95.303 89, 94.982 91.073, 95.130 94.250 M 3.750 91.572 C 2.238 92.393, 1 93.725, 1 94.532 C 1 96.643, 1.807 96.377, 5.653 93 C 9.281 89.815, 8.319 89.093, 3.750 91.572 M 79 99.763 C 69.425 105.054, 70.130 106.233, 80.910 102.959 C 87.574 100.935, 88 100.631, 88 97.903 C 88 96.306, 87.888 95.015, 87.750 95.033 C 87.612 95.051, 83.675 97.179, 79 99.763 M 104 97.864 C 104 100.658, 104.330 100.870, 111.818 102.890 C 123.993 106.176, 124.041 105.405, 112.048 99.147 L 104 94.947 104 97.864" stroke="none" fill="black" fill-rule="evenodd"/>
</svg>