<svg xmlns="http://www.w3.org/2000/svg" width="192" height="144" viewBox="0 0 192 144" version="1.1">
	<path d="M -0 72.005 L -0 144.010 96.250 143.755 L 192.500 143.500 192.757 71.750 L 193.013 0 96.507 0 L 0 0 -0 72.005 M 0.474 72.500 C 0.474 112.100, 0.598 128.154, 0.750 108.176 C 0.901 88.198, 0.901 55.798, 0.750 36.176 C 0.598 16.554, 0.474 32.900, 0.474 72.500 M 72.299 60.106 C 67.931 61.369, 67.394 62.690, 69.882 66.055 C 72.605 69.737, 72.549 70.594, 69.450 72.625 C 65.549 75.181, 66.618 77.962, 72.956 81.744 C 77.834 84.655, 79.217 85, 86.022 85 C 93.499 85, 101.092 84.013, 110 81.884 C 121.700 79.088, 122.415 77.533, 115.133 70.721 C 109.363 65.324, 102.493 61.672, 95.201 60.124 C 88.964 58.801, 76.845 58.791, 72.299 60.106" stroke="none" fill="black" fill-rule="evenodd"/>
</svg>