<svg xmlns="http://www.w3.org/2000/svg" width="192" height="144" viewBox="0 0 192 144" version="1.1">
	<path d="M 0 32.500 L 0 65 2.269 65 C 3.517 65, 7.712 63.667, 11.591 62.037 C 21.421 57.906, 30.974 56.614, 46 57.380 C 52.875 57.731, 59.454 58.276, 60.621 58.592 C 62.306 59.048, 62.879 58.617, 63.411 56.498 C 63.780 55.030, 65.229 52.766, 66.631 51.466 C 69.759 48.567, 68.991 47, 64.441 47 C 62.548 47, 61 46.604, 61 46.121 C 61 45.637, 62.800 43.386, 65 41.119 C 68.840 37.163, 69 36.735, 69 30.451 C 69 24.605, 69.294 23.627, 71.750 21.312 C 75.059 18.192, 85.497 13.117, 90.147 12.367 C 92.920 11.920, 94.320 12.454, 98.243 15.454 L 102.986 19.081 108.993 17.841 C 113.629 16.883, 115.271 16.871, 116.187 17.787 C 117.103 18.703, 116.307 19.955, 112.696 23.270 L 108.017 27.565 111.025 31.214 C 112.826 33.399, 113.618 35.118, 113 35.500 C 112.432 35.851, 112.223 36.552, 112.535 37.057 C 112.848 37.562, 111.955 39.214, 110.552 40.728 C 107.789 43.707, 107.440 45.040, 109.010 46.610 C 109.691 47.291, 109.202 49.234, 107.514 52.560 C 106.136 55.277, 105.006 58.547, 105.004 59.827 C 105.002 61.107, 103.708 63.446, 102.130 65.024 L 99.259 67.895 101.380 69.852 C 104.015 72.284, 110.464 75, 113.603 75 C 116.661 75, 129 81.079, 129 82.585 C 129 84.201, 144.750 94.272, 146.036 93.478 C 147.555 92.539, 153.722 97.559, 155.646 101.302 C 156.551 103.061, 160.497 107.915, 164.415 112.088 C 171.596 119.736, 181.293 133.277, 184.618 140.298 C 186.188 143.615, 186.801 144.058, 189.458 143.798 L 192.500 143.500 192.712 71.750 L 192.923 0 96.462 0 L 0 0 0 32.500 M 0.447 33 C 0.447 50.875, 0.582 58.188, 0.748 49.250 C 0.914 40.312, 0.914 25.687, 0.748 16.750 C 0.582 7.812, 0.447 15.125, 0.447 33 M 28.690 66.006 C 20.385 67.031, 17.172 68.107, 10.900 71.966 C 8.235 73.606, 4.917 75.234, 3.527 75.583 L 1 76.217 1 110.108 L 1 144 36.031 144 C 68.484 144, 71.110 143.871, 71.703 142.250 C 72.056 141.287, 74.099 137.889, 76.245 134.697 C 83.650 123.682, 84.168 119.660, 80.841 99 C 80.266 95.425, 79.824 91.150, 79.860 89.500 C 79.949 85.429, 79.068 82.840, 77.851 83.592 C 77.210 83.988, 76.942 82.111, 77.113 78.421 C 77.315 74.062, 77.025 72.527, 75.941 72.224 C 75.148 72.002, 73.150 71.222, 71.500 70.490 C 63.587 66.979, 40.447 64.556, 28.690 66.006 M 125.347 94.537 C 125.023 95.383, 125.561 96.962, 126.543 98.048 C 128.266 99.951, 128.244 100.114, 125.914 102.646 L 123.500 105.271 129.787 104.727 C 135.649 104.220, 139 102.848, 139 100.955 C 139 100.088, 128.085 93, 126.750 93 C 126.303 93, 125.672 93.692, 125.347 94.537 M 148.702 111.776 C 147.818 112.753, 146.504 115.341, 145.781 117.526 C 144.254 122.146, 142.934 122.355, 132 119.714 C 128.425 118.850, 122.125 117.739, 118 117.246 C 107.127 115.945, 106.653 116.912, 109.658 134.250 L 111.348 144 144.709 144 L 178.070 144 176.881 141.750 C 173.404 135.175, 164.828 123.644, 158.658 117.250 C 154.810 113.263, 151.358 110, 150.986 110 C 150.614 110, 149.587 110.799, 148.702 111.776" stroke="none" fill="black" fill-rule="evenodd"/>
</svg>