<svg xmlns="http://www.w3.org/2000/svg" width="192" height="144" viewBox="0 0 192 144" version="1.1">
	<path d="M 30.500 1 C 31.297 2.290, 33.703 2.290, 34.500 1 C 34.852 0.431, 33.991 -0, 32.500 -0 C 31.009 -0, 30.148 0.431, 30.500 1 M 0 56.500 C 0 63.324, 0.357 66.897, 1 66.500 C 2.306 65.693, 2.306 47.307, 1 46.500 C 0.357 46.103, 0 49.676, 0 56.500 M 52.736 72.752 L 50.099 79.504 52.097 87.002 C 53.196 91.126, 54.726 96.868, 55.496 99.762 C 57.292 106.510, 57.507 106.808, 60.226 106.342 C 63.902 105.712, 64.955 107.230, 65.579 114.056 C 65.903 117.600, 66.789 122.525, 67.548 125 C 68.307 127.475, 69.183 130.757, 69.494 132.293 C 69.805 133.829, 70.834 135.340, 71.780 135.650 C 75.951 137.018, 80 139.169, 80 140.016 C 80 140.522, 80.720 140.661, 81.601 140.323 C 82.481 139.985, 83.606 140.337, 84.101 141.104 C 85.847 143.814, 86.790 139.983, 86.598 130.965 C 86.415 122.380, 86.029 121.177, 82.142 117.074 C 80.725 115.579, 75.703 112.543, 72.835 111.447 C 70.563 110.579, 70.216 108.647, 69.434 92.500 C 68.711 77.598, 67.923 75.026, 62.154 68.750 C 57.884 64.105, 55.761 65.007, 52.736 72.752 M 0 127.500 L 0 144 14.174 144 L 28.349 144 26.217 141.731 C 25.044 140.483, 21.982 138.841, 19.410 138.081 C 16.140 137.116, 14.249 135.847, 13.118 133.857 C 12.134 132.127, 10.662 131.010, 9.361 131.006 C 8.184 131.003, 6.265 130.213, 5.095 129.250 C 3.284 127.759, 2.934 126.281, 2.735 119.260 C 2.570 113.467, 2.129 111.017, 1.250 111.010 C 0.300 111.002, 0 114.961, 0 127.500 M 4.252 124.500 C 4.263 126.700, 4.468 127.482, 4.707 126.238 C 4.946 124.994, 4.937 123.194, 4.687 122.238 C 4.437 121.282, 4.241 122.300, 4.252 124.500" stroke="none" fill="black" fill-rule="evenodd"/>
</svg>