<svg xmlns="http://www.w3.org/2000/svg" width="192" height="144" viewBox="0 0 192 144" version="1.1">
	<path d="M 14.026 6.250 C 14.040 9.688, 14.485 16.954, 15.014 22.398 C 15.788 30.361, 15.714 32.512, 14.635 33.398 C 12.263 35.345, 10 39.381, 10 41.663 C 10 44.741, 12.020 45.688, 13.714 43.403 C 15.098 41.535, 15.150 41.535, 16.562 43.441 C 19.549 47.473, 17.952 51.833, 12.860 53.547 C 8.861 54.894, 7.906 57, 11.294 57 C 12.648 57, 14.329 57.692, 15.031 58.537 C 15.732 59.382, 17.106 59.945, 18.083 59.787 C 19.060 59.629, 21.196 60.779, 22.831 62.342 C 26.424 65.779, 29.598 65.596, 29.291 61.969 C 28.835 56.586, 29.974 53.521, 33.088 51.749 C 36.492 49.812, 36.535 47.323, 33.157 47.813 C 30.459 48.204, 30.465 48.112, 33.500 42.404 C 37.979 33.979, 36.285 27.177, 29.875 27.849 C 28.294 28.015, 27 27.869, 27 27.526 C 27 25.765, 30.609 20.393, 35.397 15.027 C 39.973 9.898, 42.756 4.446, 41.466 3.137 C 40.387 2.043, 27.498 0.065, 21.250 0.035 L 14 0 14.026 6.250 M 96 72 L 96 144 129.370 144 L 162.740 144 163.904 139.750 C 165.592 133.582, 166.898 121.640, 165.991 120.657 C 165.564 120.193, 164.027 120.592, 162.576 121.542 C 159.296 123.691, 158.509 122.957, 158.642 117.877 C 158.724 114.731, 158.432 114.004, 157.262 114.453 C 156.287 114.827, 155.958 114.553, 156.302 113.655 C 156.691 112.642, 155.884 112.315, 153.197 112.394 C 148.712 112.525, 148.018 110.504, 150.589 104.804 C 151.796 102.127, 153.617 100.216, 156.234 98.881 C 158.359 97.797, 160.349 96.142, 160.656 95.205 C 163.331 87.035, 166.160 84.070, 171.591 83.738 C 174.820 83.541, 175.449 83.802, 175.209 85.239 C 175.049 86.195, 175.409 87.895, 176.009 89.017 C 176.884 90.652, 176.694 91.574, 175.050 93.663 C 172.451 96.967, 172.475 97.330, 175.500 100.595 C 177.853 103.134, 178.456 104.810, 178.075 107.750 C 177.985 108.437, 178.637 109, 179.524 109 C 180.710 109, 180.957 108.441, 180.462 106.882 C 179.529 103.941, 182.105 104.883, 183.735 108.079 C 186.064 112.643, 185.303 115.584, 180.800 119.440 L 176.599 123.035 179.300 131.327 C 180.785 135.888, 182 140.605, 182 141.810 C 182 143.771, 182.522 144, 187 144 L 192 144 192 72 L 192 0 144 0 L 96 0 96 72" stroke="none" fill="black" fill-rule="evenodd"/>
</svg>