<svg xmlns="http://www.w3.org/2000/svg" width="192" height="144" viewBox="0 0 192 144" version="1.1">
	<path d="M 0 72 L 0 144 43 144 C 83.282 144, 86.001 143.889, 86.010 142.250 C 86.016 141.287, 86.489 135.166, 87.060 128.647 C 88.008 117.846, 87.947 116.682, 86.371 115.530 C 84.755 114.348, 84.747 113.915, 86.246 108.883 C 88.569 101.086, 89.262 91.927, 87.930 86.635 C 87.035 83.080, 87.071 80.913, 88.097 76.789 C 88.820 73.880, 89.432 71.200, 89.456 70.833 C 89.480 70.467, 89.837 69.829, 90.250 69.417 C 91.605 68.061, 91.034 64.034, 89.233 62.250 C 88.262 61.287, 86.237 59.702, 84.733 58.727 C 78.920 54.956, 82.229 45.947, 90.750 42.347 C 97.145 39.644, 103.831 44.798, 106.395 54.408 C 111.337 72.932, 113.972 93.797, 113.984 114.500 C 113.988 122.862, 114.602 130.447, 115.703 135.762 L 117.415 144.024 154.958 143.762 L 192.500 143.500 192.519 71.500 C 192.530 31.900, 192.410 12.629, 192.254 28.676 L 191.970 57.852 189.226 57.065 C 178.908 54.106, 165.454 42.692, 160.861 33 C 156.012 22.770, 154.564 16.989, 154.662 8.250 L 154.754 0 77.377 0 L 0 0 0 72 M 0.474 72.500 C 0.474 112.100, 0.598 128.154, 0.750 108.176 C 0.901 88.198, 0.901 55.798, 0.750 36.176 C 0.598 16.554, 0.474 32.900, 0.474 72.500" stroke="none" fill="black" fill-rule="evenodd"/>
</svg>