<svg xmlns="http://www.w3.org/2000/svg" width="192" height="144" viewBox="0 0 192 144" version="1.1">
	<path d="M 0 9.385 L 0 18.770 5.482 19.454 C 9.634 19.973, 11.490 19.770, 13.136 18.617 C 16.067 16.564, 19.036 18.078, 18.274 21.237 C 17.826 23.092, 17.969 23.275, 19.064 22.250 C 19.799 21.563, 22.398 21, 24.840 21 C 29.480 21, 31.905 22.786, 31.968 26.250 C 31.986 27.212, 32.395 28, 32.879 28 C 33.362 28, 34.317 29.350, 35 31.001 C 36.009 33.437, 35.992 34.305, 34.906 35.613 C 33.748 37.008, 34.035 37.622, 37.034 40.174 C 38.940 41.796, 43.089 45.454, 46.253 48.303 L 52.006 53.483 51.416 59.492 C 50.633 67.453, 52.076 75.582, 57.080 91.406 C 59.357 98.608, 62.215 107.650, 63.431 111.500 C 66.327 120.671, 65.948 129.689, 62.613 130.957 C 61.406 131.416, 59.819 132.514, 59.086 133.396 C 58.173 134.497, 56.102 135, 52.485 135 C 46.772 135, 46 135.724, 46 141.082 L 46 144 60.877 144 L 75.754 144 75.221 139.272 C 74.928 136.672, 73.634 132.159, 72.344 129.244 C 71.055 126.328, 70 123.218, 70 122.332 C 70 121.446, 69.358 120.221, 68.574 119.610 C 67.790 119, 67.028 116.925, 66.881 115 C 66.565 110.866, 67.889 104, 69.003 104 C 69.432 104, 70.051 102.932, 70.379 101.627 C 70.720 100.269, 72.227 98.734, 73.901 98.041 C 78.169 96.273, 79.402 92.371, 78.675 82.937 C 78.337 78.562, 77.598 74.116, 77.031 73.057 C 75.527 70.248, 75.769 64.796, 77.591 60.436 C 79.601 55.626, 78.699 39, 76.429 39 C 74.874 39, 73.078 36.030, 73.661 34.422 C 74.082 33.262, 69.151 30.468, 67.500 30.931 C 63.864 31.951, 60.860 32.036, 61.436 31.104 C 61.793 30.526, 60.941 27.194, 59.542 23.698 C 58.144 20.203, 57 16.666, 57 15.838 C 57 15.011, 56.692 14.025, 56.315 13.648 C 55.104 12.438, 53.031 5.588, 53.015 2.750 L 53 0 26.500 0 L 0 0 0 9.385 M 0 81.892 L 0 144 14.891 144 L 29.781 144 30.251 140.250 C 30.852 135.462, 29.650 134, 25.115 134 C 22.299 134, 21.251 133.491, 20.487 131.750 C 19.671 129.889, 18.723 129.505, 15 129.529 C 12.525 129.545, 10.203 129.134, 9.840 128.615 C 8.673 126.949, 10.167 120.644, 12.946 115.500 C 17.368 107.317, 21.178 100.661, 22.964 98 C 28.446 89.832, 32.900 73.292, 30.085 71.553 C 29.382 71.118, 28.973 72.222, 28.923 74.691 L 28.846 78.500 27.577 74.500 L 26.308 70.500 25.512 74.500 C 25.074 76.700, 24.114 79.375, 23.377 80.445 C 22.534 81.670, 22.254 83.739, 22.622 86.035 C 23.154 89.367, 23.005 89.673, 20.881 89.590 C 19.121 89.522, 18.084 90.471, 16.607 93.500 L 14.657 97.500 13.684 94.250 C 13.047 92.122, 12.079 91, 10.881 91 C 7.789 91, 5.982 85.803, 5.731 76.187 C 5.505 67.524, 5.587 67.178, 9.899 58.705 L 14.299 50.061 13.552 42.280 C 13.142 38.001, 12.698 33.600, 12.567 32.500 C 12.383 30.963, 11.710 30.575, 9.660 30.822 C 6.444 31.210, 5.089 28.689, 6.930 25.741 C 8.442 23.320, 7.001 21.500, 2.750 20.457 L 0 19.783 0 81.892 M 35 69.559 C 35 71.677, 35.405 72.868, 36 72.500 C 36.550 72.160, 37 70.559, 37 68.941 C 37 67.323, 36.550 66, 36 66 C 35.450 66, 35 67.602, 35 69.559 M 36.261 140.500 C 35.205 143.944, 35.234 144, 38.094 144 C 40.749 144, 41 143.697, 41 140.500 C 41 137.774, 40.595 137, 39.168 137 C 37.945 137, 36.978 138.164, 36.261 140.500" stroke="none" fill="black" fill-rule="evenodd"/>
</svg>