<svg xmlns="http://www.w3.org/2000/svg" width="192" height="144" viewBox="0 0 192 144" version="1.1">
	<path d="M 78.698 22.699 C 76.071 23.381, 71.872 33.112, 72.611 36.807 C 73.294 40.218, 78.520 46.414, 79.963 45.523 C 80.494 45.195, 80.270 46.503, 79.464 48.431 C 77.512 53.103, 77.612 54.556, 80.114 57.940 C 82.171 60.723, 82.183 60.934, 80.553 65.839 C 78.387 72.362, 78.784 79.347, 81.350 79.834 C 82.925 80.133, 83.102 79.741, 82.541 77.188 C 82.126 75.297, 82.321 73.919, 83.070 73.456 C 83.965 72.903, 84.147 74.913, 83.807 81.611 C 83.420 89.234, 82.967 91.065, 80.626 94.465 C 78.323 97.812, 78.003 99.060, 78.574 102.465 C 79.764 109.563, 80.728 111.214, 83.251 110.480 C 84.488 110.121, 86.247 108.965, 87.160 107.913 C 89.042 105.745, 93.264 105.375, 94.737 107.250 C 96.467 109.452, 98.843 117.342, 99.367 122.623 L 99.876 127.745 95.938 129.292 C 93.772 130.143, 92 131.266, 92 131.787 C 92 132.308, 93.790 133.919, 95.979 135.367 C 101.206 138.826, 108.073 138.884, 117.277 135.545 C 120.999 134.195, 124.598 132.745, 125.273 132.324 C 125.948 131.903, 127.400 131.423, 128.500 131.258 C 129.600 131.093, 132.442 130.051, 134.817 128.943 L 139.133 126.927 136.317 123.450 C 133.525 120.003, 133.442 119.977, 127 120.459 C 123.425 120.727, 119.600 121.206, 118.500 121.524 C 116.759 122.026, 116.258 121.255, 114.633 115.576 C 113.607 111.987, 113.013 108.408, 113.314 107.623 C 113.795 106.372, 121.724 104, 125.427 104 C 128.490 104, 129.303 101.217, 127.542 96.761 C 125.644 91.962, 118.426 84, 115.972 84 C 114.044 84, 111.080 80.728, 106.446 73.483 C 104.564 70.540, 102.556 67.844, 101.986 67.491 C 101.374 67.113, 102.121 65.753, 103.808 64.175 C 106.024 62.101, 106.812 60.270, 107.313 56.027 C 107.925 50.837, 107.802 50.412, 104.918 47.777 C 103.245 46.250, 101.433 45, 100.891 45 C 100.348 45, 98.816 43.826, 97.486 42.391 C 95.488 40.235, 95.159 39.062, 95.589 35.641 C 96.155 31.136, 93.299 25, 90.637 25 C 89.871 25, 88.685 24.325, 88 23.500 C 86.811 22.067, 82.550 21.700, 78.698 22.699 M 84.667 68.667 C 84.300 69.033, 84.014 70.046, 84.030 70.917 C 84.055 72.217, 84.251 72.174, 85.122 70.675 C 86.199 68.823, 85.887 67.447, 84.667 68.667 M 103.543 106.930 C 103.225 107.445, 103.982 111.496, 105.225 115.933 C 107.135 122.749, 107.812 124, 109.589 124 C 111.690 124, 111.691 123.994, 109.879 118.750 C 108.881 115.862, 108.051 112.278, 108.033 110.785 C 107.999 107.987, 104.661 105.121, 103.543 106.930 M 107.250 125.689 C 108.213 125.941, 109.787 125.941, 110.750 125.689 C 111.713 125.438, 110.925 125.232, 109 125.232 C 107.075 125.232, 106.287 125.438, 107.250 125.689" stroke="none" fill="black" fill-rule="evenodd"/>
</svg>