<svg xmlns="http://www.w3.org/2000/svg" width="192" height="144" viewBox="0 0 192 144" version="1.1">
	<path d="M 63.755 4.805 C 65.047 18.244, 58.443 35.445, 48.324 45 C 45.121 48.025, 40.700 51.400, 38.500 52.500 C 36.300 53.600, 34.275 54.744, 34 55.042 C 33.363 55.733, 27.035 57.577, 20.132 59.084 C 14.923 60.221, 5.308 59.908, 1.750 58.486 C 0.100 57.826, 0 60.239, 0 100.893 L 0 144 53.902 144 L 107.804 144 108.529 137.752 C 108.928 134.316, 110.350 127.903, 111.690 123.502 C 114.511 114.235, 118.969 90.350, 118.969 84.500 C 118.970 78.141, 118.053 77.471, 112.692 79.913 C 109.939 81.167, 105.992 82.013, 102.805 82.032 C 97.155 82.066, 94 83.642, 94 86.430 C 94 89.160, 89.575 88.028, 89.173 85.195 C 88.753 82.229, 90.626 80, 93.539 80 C 94.801 80, 95.984 79.547, 96.169 78.994 C 96.353 78.440, 99.335 77.489, 102.796 76.879 C 107.627 76.028, 109.050 75.391, 108.928 74.135 C 108.605 70.801, 109.089 69.834, 113 66 C 115.200 63.844, 117 61.417, 117 60.607 C 117 59.797, 117.900 58.849, 119 58.500 C 121.676 57.651, 121.521 55.408, 118.542 51.867 C 117.190 50.260, 116.316 48.341, 116.599 47.602 C 116.883 46.863, 116.403 45.985, 115.533 45.651 C 113.051 44.699, 112.051 40.872, 113.528 37.979 C 114.588 35.902, 114.573 35.020, 113.443 32.979 C 111.331 29.164, 111.690 28, 114.977 28 C 119.348 28, 131.069 32.692, 134.207 35.698 C 136.013 37.428, 137.327 40.180, 138.127 43.901 C 138.788 46.980, 139.877 50.625, 140.546 52 C 141.216 53.375, 142.085 56.525, 142.477 59 C 142.870 61.475, 144.037 66.128, 145.071 69.341 C 146.510 73.810, 146.983 78.507, 147.087 89.341 C 147.269 108.449, 147.173 110.225, 145.998 109.499 C 143.565 107.995, 146.301 116.502, 151.929 127.937 C 155.268 134.722, 158 141.122, 158 142.160 C 158 143.947, 158.914 144.033, 175.250 143.774 L 192.500 143.500 192.825 129 C 193.003 121.025, 192.837 88.737, 192.455 57.250 L 191.761 0 127.527 -0 L 63.294 -0 63.755 4.805 M 0.459 101 C 0.459 124.925, 0.589 134.713, 0.749 122.750 C 0.908 110.788, 0.908 91.213, 0.749 79.250 C 0.589 67.288, 0.459 77.075, 0.459 101 M 133 84.382 C 133 86.307, 133.450 88.160, 134 88.500 C 134.594 88.867, 135 87.697, 135 85.618 C 135 83.693, 134.550 81.840, 134 81.500 C 133.406 81.133, 133 82.303, 133 84.382" stroke="none" fill="black" fill-rule="evenodd"/>
</svg>