<svg xmlns="http://www.w3.org/2000/svg" width="192" height="144" viewBox="0 0 192 144" version="1.1">
	<path d="M 87.994 57.934 C 81.057 60.044, 73.702 66.361, 72.467 71.268 C 71.950 73.326, 71.289 73.511, 64.003 73.640 C 53.697 73.822, 39.228 75.875, 35.750 77.649 C 29.804 80.681, 32.805 87.787, 45.600 100.977 L 51.883 107.454 51.548 113.593 C 51.364 116.969, 50.716 120.663, 50.107 121.800 C 48.329 125.123, 48.753 126.534, 50.936 124.558 C 52.812 122.861, 52.894 122.916, 53.531 126.316 C 53.894 128.246, 53.857 130.874, 53.451 132.155 C 52.803 134.194, 52.908 134.321, 54.289 133.175 C 55.618 132.072, 56.204 132.204, 58.008 134.008 C 59.768 135.768, 60.032 136.851, 59.487 140.075 L 58.824 144 103.558 144 L 148.291 144 147.707 131.750 C 147.386 125.013, 146.665 117.999, 146.107 116.164 C 145.372 113.751, 145.421 112.298, 146.286 110.914 C 147.925 108.290, 148.810 108.502, 150.797 111.994 C 152.643 115.239, 155.422 115.948, 156.392 113.420 C 156.726 112.551, 156.713 109.411, 156.364 106.442 C 155.796 101.605, 156.009 100.677, 158.411 97.528 C 162.136 92.644, 164.952 86.103, 164.978 82.273 C 165.009 77.775, 162.176 76.223, 150.201 74.175 C 140.653 72.542, 140.052 72.287, 135.868 68.082 C 130.870 63.061, 123.881 59.634, 115.464 58.078 C 108.895 56.864, 91.807 56.774, 87.994 57.934 M 59.158 132 C 59.158 133.375, 59.385 133.938, 59.662 133.250 C 59.940 132.563, 59.940 131.438, 59.662 130.750 C 59.385 130.063, 59.158 130.625, 59.158 132" stroke="none" fill="black" fill-rule="evenodd"/>
</svg>