<svg xmlns="http://www.w3.org/2000/svg" width="192" height="144" viewBox="0 0 192 144" version="1.1">
	<path d="M -0 72.005 L -0 144.010 96.250 143.755 L 192.500 143.500 192.757 71.750 L 193.013 0 96.507 0 L 0 0 -0 72.005 M 0.474 72.500 C 0.474 112.100, 0.598 128.154, 0.750 108.176 C 0.901 88.198, 0.901 55.798, 0.750 36.176 C 0.598 16.554, 0.474 32.900, 0.474 72.500 M 90.246 32.831 C 90.629 34.297, 90.357 35, 89.406 35 C 87.192 35, 87.763 37.615, 90.347 39.308 C 91.638 40.153, 94.418 42.471, 96.525 44.459 C 100.098 47.828, 100.244 48.184, 98.693 49.736 C 97.142 51.287, 96.987 51.183, 96.390 48.199 C 95.710 44.800, 93.999 44.091, 92.075 46.410 C 91.150 47.524, 91.340 48.125, 92.984 49.276 C 96.468 51.717, 97.258 56.573, 94.917 61.162 C 93.813 63.326, 92.245 65.352, 91.433 65.664 C 90.621 65.976, 83.329 65.558, 75.228 64.737 C 67.128 63.916, 60.141 63.454, 59.701 63.711 C 58.298 64.532, 61.160 67, 63.515 67 C 64.764 67, 66.042 67.667, 66.355 68.483 C 66.756 69.529, 67.783 69.793, 69.840 69.382 C 71.725 69.005, 74.446 69.546, 77.533 70.911 C 80.160 72.074, 82.529 72.804, 82.798 72.536 C 83.066 72.267, 82.547 71.763, 81.643 71.417 C 78.057 70.041, 80.349 69, 86.965 69 C 93.040 69, 94.075 69.271, 95.065 71.122 C 96.045 72.953, 96.801 73.162, 100.577 72.644 C 106.103 71.887, 108 72.614, 108 75.490 C 108 77.428, 108.483 77.739, 111.250 77.587 C 114.254 77.422, 114.477 77.173, 114.199 74.298 C 113.902 71.237, 113.950 71.201, 117.199 72.054 C 119.014 72.530, 122.750 73.421, 125.500 74.034 C 128.250 74.647, 133.086 75.861, 136.247 76.732 C 141.550 78.193, 142.136 78.187, 143.826 76.657 C 144.833 75.746, 146.410 75, 147.329 75 C 148.891 75, 149.487 73.322, 149.052 70.150 C 148.950 69.407, 147.273 67.206, 145.326 65.259 L 141.785 61.718 133.642 62.254 C 129.164 62.548, 124.600 62.418, 123.500 61.965 C 121.653 61.204, 121.685 61.135, 123.917 61.070 C 127.543 60.965, 125.546 59.707, 120.731 59.065 C 117.156 58.588, 116.450 58.112, 116.179 56 C 116.003 54.625, 115.129 52.938, 114.238 52.250 C 112.798 51.139, 112.865 51, 114.840 51 C 117.265 51, 119.145 47.882, 117.127 47.209 C 116.448 46.983, 114.905 45.744, 113.697 44.455 C 112.489 43.167, 110.263 41.648, 108.750 41.081 C 107.237 40.514, 106 39.574, 106 38.993 C 106 37.308, 108.661 36.748, 110.922 37.958 C 114.039 39.627, 113.423 37.689, 110.040 35.188 C 106.552 32.609, 99.886 32.228, 98 34.500 C 96.120 36.765, 93.731 36.424, 94.500 34 C 94.849 32.900, 94.691 32, 94.149 32 C 93.607 32, 92.379 31.699, 91.421 31.331 C 90.012 30.791, 89.787 31.078, 90.246 32.831 M 108.393 53.582 C 108.727 54.452, 109 55.407, 109 55.704 C 109 56.002, 109.675 55.685, 110.500 55 C 112.614 53.245, 112.363 52, 109.893 52 C 108.383 52, 107.958 52.448, 108.393 53.582 M 98.099 60.557 C 94.555 66.563, 95.754 67.954, 100.344 63.163 C 102.085 61.346, 102.833 59.728, 102.424 58.663 C 101.466 56.167, 100.418 56.626, 98.099 60.557" stroke="none" fill="black" fill-rule="evenodd"/>
</svg>