<svg xmlns="http://www.w3.org/2000/svg" width="192" height="144" viewBox="0 0 192 144" version="1.1">
	<path d="M 0 72 L 0 144 35.385 144 L 70.770 144 72.385 141.535 C 73.273 140.180, 74.010 138.267, 74.022 137.285 C 74.034 136.303, 74.982 133.475, 76.128 131 C 78.305 126.301, 78.624 120.609, 77.399 108.323 C 76.933 103.652, 76.447 102.275, 75.406 102.674 C 74.310 103.095, 74.104 101.997, 74.394 97.269 C 74.708 92.147, 76.538 86.662, 79.820 81 C 82.909 75.670, 82.941 75.293, 80.493 72.993 C 76.277 69.033, 75.116 65.163, 75.919 57.750 C 75.963 57.337, 76.675 57, 77.500 57 C 79.698 57, 79.331 55.320, 77 54.710 C 75.900 54.423, 75 53.440, 75 52.526 C 75 51.291, 75.541 51.037, 77.110 51.535 C 79.145 52.181, 79.195 51.992, 78.525 46.214 C 77.760 39.621, 78.874 37.671, 81.863 40.376 C 83.448 41.810, 83.987 41.761, 88.050 39.809 C 96.338 35.827, 96 36.782, 96 17.345 L 96 0 48 0 L 0 0 0 72 M 96 89.500 L 96 144 108.500 144 C 115.375 144, 121 143.769, 121 143.486 C 121 143.204, 120.609 142.191, 120.132 141.236 C 117.558 136.091, 115.583 128.760, 115.218 123 C 114.782 116.121, 115.963 98.628, 116.721 100.750 C 116.966 101.437, 117.621 102, 118.177 102 C 120.890 102, 116.685 87.342, 110.933 76.750 C 110.317 75.615, 110.335 75, 110.985 75 C 112.661 75, 118 66.860, 118 64.305 C 118 62.987, 116.875 60.784, 115.500 59.409 C 112.599 56.508, 112.450 56, 114.500 56 C 115.898 56, 116.344 55.021, 115.750 53.257 C 115.612 52.848, 114.923 52.646, 114.218 52.808 C 113.365 53.004, 113.095 52.333, 113.410 50.801 C 114.696 44.563, 114.884 41.369, 114.045 40.040 C 113.249 38.781, 112.859 38.817, 111.218 40.303 C 109.412 41.937, 109.079 41.922, 104.789 40.025 C 102.300 38.924, 99.700 37.343, 99.010 36.512 C 98.320 35.680, 97.360 35, 96.878 35 C 96.385 35, 96 58.903, 96 89.500 M 78.250 61.662 C 75.959 62.587, 76.961 66.570, 80.298 69.804 C 83.891 73.286, 85 73.723, 85 71.655 C 85 69.946, 81.558 66.775, 80.669 67.664 C 79.939 68.395, 79.677 66.761, 79.961 63.250 C 80.061 62.013, 79.998 61.036, 79.822 61.079 C 79.645 61.122, 78.938 61.385, 78.250 61.662 M 112.636 64.929 C 113.155 67.523, 112.945 68, 111.286 68 C 110.168 68, 108.837 69.063, 108.198 70.464 C 106.381 74.453, 108.675 74.525, 112.598 70.602 C 116.403 66.797, 116.955 62.798, 113.761 62.189 C 112.314 61.913, 112.125 62.374, 112.636 64.929 M 102 74.500 C 102 75.325, 102.661 76, 103.469 76 C 104.363 76, 104.712 75.414, 104.362 74.500 C 104.045 73.675, 103.384 73, 102.893 73 C 102.402 73, 102 73.675, 102 74.500 M 80 119.559 C 80 120.416, 80.457 120.835, 81.016 120.490 C 81.575 120.144, 81.774 119.443, 81.457 118.931 C 80.600 117.544, 80 117.802, 80 119.559" stroke="none" fill="black" fill-rule="evenodd"/>
</svg>