<svg xmlns="http://www.w3.org/2000/svg" width="192" height="144" viewBox="0 0 192 144" version="1.1">
	<path d="M 0 72 L 0 144 68.435 144 C 112.598 144, 137.823 143.638, 139.557 142.979 C 141.399 142.278, 142.637 142.284, 143.496 142.997 C 144.307 143.670, 153.173 143.942, 168.625 143.768 L 192.500 143.500 192.757 71.746 L 193.013 -0.009 128.548 0.022 C 72.190 0.050, 64.155 0.239, 64.649 1.527 C 65.382 3.439, 63.565 3.423, 61.643 1.500 C 60.448 0.305, 57.233 0.003, 45.821 0.015 C 36.205 0.026, 31.993 0.349, 33 1 C 34.293 1.835, 34.266 1.971, 32.809 1.985 C 31.879 1.993, 30.840 1.550, 30.500 1 C 30.133 0.406, 23.823 0, 14.941 0 L 0 0 0 72 M 0.474 72.500 C 0.474 112.100, 0.598 128.154, 0.750 108.176 C 0.901 88.198, 0.901 55.798, 0.750 36.176 C 0.598 16.554, 0.474 32.900, 0.474 72.500 M 112.032 2.250 C 112.068 3.675, 114.398 7, 115.360 7 C 116.468 7, 116.054 3.454, 114.800 2.200 C 113.246 0.646, 111.992 0.668, 112.032 2.250 M 130.015 4.250 C 130.028 6.069, 130.216 6.213, 131 5 C 132.253 3.061, 132.253 2, 131 2 C 130.450 2, 130.007 3.012, 130.015 4.250 M 108 6.559 C 108 7.416, 108.450 7.840, 109 7.500 C 109.550 7.160, 110 6.459, 110 5.941 C 110 5.423, 109.550 5, 109 5 C 108.450 5, 108 5.702, 108 6.559 M 12.192 9.091 C 12.741 10.757, 17 11.624, 17 10.070 C 17 9.481, 16.587 9, 16.082 9 C 15.577 9, 14.390 8.703, 13.445 8.341 C 12.239 7.878, 11.866 8.101, 12.192 9.091 M 50 9 C 50 9.550, 50.450 10, 51 10 C 51.550 10, 52 9.550, 52 9 C 52 8.450, 51.550 8, 51 8 C 50.450 8, 50 8.450, 50 9 M 26 11 C 26 11.550, 26.450 12, 27 12 C 27.550 12, 28 12.408, 28 12.906 C 28 13.405, 27.040 13.562, 25.866 13.255 C 24.323 12.851, 23.868 13.085, 24.223 14.098 C 24.523 14.958, 25.958 15.440, 27.928 15.345 C 32.154 15.141, 32.701 14.432, 30.506 12.006 C 28.590 9.890, 26 9.311, 26 11 M 114 13 C 114 13.550, 113.273 14, 112.383 14 C 111.195 14, 110.926 14.596, 111.370 16.250 C 111.701 17.488, 111.979 18.837, 111.986 19.250 C 112.018 20.996, 113.807 19.813, 114.255 17.750 C 114.523 16.512, 115.074 14.713, 115.478 13.750 C 115.922 12.694, 115.775 12, 115.107 12 C 114.498 12, 114 12.450, 114 13 M 49 14.883 C 49 15.369, 49.866 15.993, 50.925 16.270 C 52.276 16.623, 52.692 16.360, 52.318 15.387 C 51.737 13.872, 49 13.456, 49 14.883 M 104.638 15.500 C 104.955 16.325, 105.391 17, 105.607 17 C 105.823 17, 106 16.325, 106 15.500 C 106 14.675, 105.564 14, 105.031 14 C 104.499 14, 104.322 14.675, 104.638 15.500 M 94 17.345 C 94 18.085, 94.900 19.505, 96 20.500 C 98.197 22.488, 98.694 21.165, 96.965 17.934 C 95.775 15.712, 94 15.359, 94 17.345 M 142.393 18.582 C 142.727 19.452, 143.032 20.689, 143.070 21.332 C 143.109 21.974, 143.527 21.600, 144 20.500 C 145.267 17.551, 145.171 17, 143.393 17 C 142.338 17, 141.995 17.544, 142.393 18.582 M 47.500 19 C 47.160 19.550, 47.359 20, 47.941 20 C 48.523 20, 49 19.550, 49 19 C 49 18.450, 48.802 18, 48.559 18 C 48.316 18, 47.840 18.450, 47.500 19 M 149 21.393 C 149 22.159, 148.387 23.021, 147.639 23.308 C 146.059 23.915, 144.735 28, 146.118 28 C 146.630 28, 147.461 26.919, 147.963 25.597 C 148.466 24.276, 149.354 22.899, 149.938 22.538 C 151.282 21.708, 151.323 20, 150 20 C 149.450 20, 149 20.627, 149 21.393 M 41 21.810 C 41 22.347, 41.713 23.059, 42.584 23.394 C 43.557 23.767, 44.015 23.544, 43.771 22.813 C 43.273 21.318, 41 20.495, 41 21.810 M 136.923 30.750 C 136.881 31.163, 136.693 32.313, 136.504 33.306 C 136.227 34.764, 136.434 34.884, 137.580 33.933 C 139.210 32.581, 139.486 30, 138 30 C 137.450 30, 136.966 30.337, 136.923 30.750 M 129.732 34.085 C 130.147 35.669, 130.480 35.849, 131.123 34.835 C 132.355 32.891, 132.189 32, 130.594 32 C 129.661 32, 129.371 32.702, 129.732 34.085 M 42.639 33.694 C 41.513 34.820, 41.954 36, 43.500 36 C 44.325 36, 45 35.577, 45 35.059 C 45 33.798, 43.438 32.895, 42.639 33.694 M 124.667 36.667 C 123.646 37.687, 123.874 41, 124.965 41 C 126.222 41, 128.118 37.451, 127.298 36.631 C 126.483 35.816, 125.504 35.829, 124.667 36.667 M 141.484 40.072 C 140.612 44.042, 141.639 45.079, 142.972 41.574 C 144.243 38.232, 144.272 37, 143.079 37 C 142.573 37, 141.855 38.382, 141.484 40.072 M 93 38.941 C 93 39.459, 93.450 40.160, 94 40.500 C 94.550 40.840, 95 40.416, 95 39.559 C 95 38.702, 94.550 38, 94 38 C 93.450 38, 93 38.423, 93 38.941 M 61.629 40.791 C 60.904 41.964, 63.756 44.578, 64.715 43.619 C 65.081 43.252, 64.673 42.245, 63.809 41.380 C 62.874 40.445, 61.991 40.206, 61.629 40.791 M 80 41.500 C 80 42.325, 80.450 43, 81 43 C 81.550 43, 82 42.325, 82 41.500 C 82 40.675, 81.550 40, 81 40 C 80.450 40, 80 40.675, 80 41.500 M 120.079 44.583 C 120.127 45.748, 120.364 45.985, 120.683 45.188 C 120.972 44.466, 120.936 43.603, 120.604 43.271 C 120.272 42.939, 120.036 43.529, 120.079 44.583 M 76 45.441 C 76 46.234, 76.450 47.160, 77 47.500 C 77.550 47.840, 78 47.191, 78 46.059 C 78 44.927, 77.550 44, 77 44 C 76.450 44, 76 44.648, 76 45.441 M 32 46.500 C 32 47.333, 32.889 48, 34 48 C 36.384 48, 36.653 46.464, 34.418 45.607 C 32.183 44.749, 32 44.817, 32 46.500 M 85.382 47.447 C 85.077 48.243, 85.653 50.029, 86.663 51.416 C 89.937 55.911, 91.191 54.204, 88.474 48.950 C 86.760 45.635, 86.185 45.355, 85.382 47.447 M 44.150 50.950 C 44.580 52.239, 45.951 52.471, 46.075 51.275 C 46.116 50.876, 45.610 50.370, 44.950 50.150 C 44.290 49.930, 43.930 50.290, 44.150 50.950 M 129.345 51.543 C 129.019 52.392, 129.004 53.337, 129.310 53.643 C 130.186 54.519, 132 53.034, 132 51.441 C 132 49.522, 130.092 49.596, 129.345 51.543 M 79 52.882 C 79 53.432, 79.450 54.160, 80 54.500 C 80.550 54.840, 81 54.668, 81 54.118 C 81 53.568, 80.550 52.840, 80 52.500 C 79.450 52.160, 79 52.332, 79 52.882 M 105.500 53 C 105.840 53.550, 105.641 54, 105.059 54 C 104.477 54, 104 54.900, 104 56 C 104 57.100, 104.450 58, 105 58 C 105.550 58, 106 57.362, 106 56.582 C 106 55.802, 106.273 54.452, 106.607 53.582 C 106.947 52.697, 106.700 52, 106.048 52 C 105.407 52, 105.160 52.450, 105.500 53 M 153.695 54.057 C 153.254 55.745, 153.412 55.903, 154.579 54.935 C 156.170 53.614, 156.465 52, 155.117 52 C 154.631 52, 153.991 52.926, 153.695 54.057 M 149.926 53.250 C 149.885 53.388, 149.657 54.547, 149.420 55.827 C 149.036 57.899, 149.154 57.989, 150.495 56.648 C 152.213 54.930, 152.480 53, 151 53 C 150.450 53, 149.967 53.112, 149.926 53.250 M 53.666 58.427 C 53.018 60.117, 55.466 62.448, 56.936 61.540 C 57.615 61.120, 57.549 60.250, 56.739 58.954 C 55.291 56.635, 54.412 56.484, 53.666 58.427 M 140 59.622 C 140 60.951, 140.271 61.020, 141.500 60 C 142.325 59.315, 143 58.585, 143 58.378 C 143 58.170, 142.325 58, 141.500 58 C 140.675 58, 140 58.730, 140 59.622 M 96 61 C 96 61.550, 96.450 62, 97 62 C 97.550 62, 98 61.550, 98 61 C 98 60.450, 97.550 60, 97 60 C 96.450 60, 96 60.450, 96 61 M 89.154 65.552 C 89.345 66.532, 90.105 67.536, 90.846 67.782 C 91.706 68.069, 92.066 67.588, 91.846 66.448 C 91.655 65.468, 90.895 64.464, 90.154 64.218 C 89.294 63.931, 88.934 64.412, 89.154 65.552 M 36.553 67.915 C 36.231 68.436, 36.394 69.125, 36.915 69.447 C 37.436 69.769, 38.125 69.606, 38.447 69.085 C 38.769 68.564, 38.606 67.875, 38.085 67.553 C 37.564 67.231, 36.875 67.394, 36.553 67.915 M 117.091 67.923 C 116.316 68.413, 115.078 68.583, 114.341 68.300 C 113.550 67.997, 113 68.470, 113 69.452 C 113 70.368, 113.412 70.864, 113.915 70.553 C 114.418 70.242, 114.982 70.447, 115.170 71.009 C 115.372 71.617, 116.421 71.394, 117.755 70.459 C 121.160 68.074, 120.547 65.735, 117.091 67.923 M 89 70 C 89 70.550, 89.423 71, 89.941 71 C 90.459 71, 91.160 70.550, 91.500 70 C 91.840 69.450, 91.416 69, 90.559 69 C 89.702 69, 89 69.450, 89 70 M 104 78.617 C 104 80.927, 104.356 82.030, 104.914 81.450 C 106.383 79.921, 106.612 75.724, 105.250 75.260 C 104.395 74.968, 104 76.029, 104 78.617 M 107.695 82.057 C 107.254 83.745, 107.412 83.903, 108.579 82.935 C 110.170 81.614, 110.465 80, 109.117 80 C 108.631 80, 107.991 80.926, 107.695 82.057 M 136.200 82.200 C 134.804 83.596, 134.600 86, 135.878 86 C 136.360 86, 137.331 85.306, 138.035 84.458 C 139.659 82.501, 137.973 80.427, 136.200 82.200 M 65 83.500 C 65 84.325, 65.450 85, 66 85 C 66.550 85, 67 84.325, 67 83.500 C 67 82.675, 66.550 82, 66 82 C 65.450 82, 65 82.675, 65 83.500 M 96.500 84 C 96.160 84.550, 96.584 85, 97.441 85 C 98.298 85, 99 84.550, 99 84 C 99 83.450, 98.577 83, 98.059 83 C 97.541 83, 96.840 83.450, 96.500 84 M 90 85 C 90 85.550, 90.450 86, 91 86 C 91.550 86, 92 85.550, 92 85 C 92 84.450, 91.550 84, 91 84 C 90.450 84, 90 84.450, 90 85 M 110 86.500 C 110 87.325, 110.450 88, 111 88 C 111.550 88, 112 87.325, 112 86.500 C 112 85.675, 111.550 85, 111 85 C 110.450 85, 110 85.675, 110 86.500 M 127.655 87.829 C 125.841 89.834, 125.465 92, 126.933 92 C 127.446 92, 128.151 91.100, 128.500 90 C 128.849 88.900, 129.554 88, 130.067 88 C 130.580 88, 131 87.550, 131 87 C 131 85.441, 129.473 85.820, 127.655 87.829 M 94.583 88.866 C 94.152 89.563, 94.070 90.403, 94.400 90.733 C 95.295 91.628, 96.271 90.312, 95.787 88.862 C 95.449 87.846, 95.213 87.846, 94.583 88.866 M 147.683 88.650 C 147.308 89.026, 147 90.255, 147 91.381 C 147 93.311, 147.098 93.331, 148.707 91.721 C 149.872 90.557, 150.089 89.689, 149.390 88.990 C 148.827 88.427, 148.059 88.274, 147.683 88.650 M 91 95.083 C 91 98.919, 93.376 98.554, 93.675 94.672 C 93.810 92.918, 93.385 92, 92.440 92 C 91.498 92, 91 93.066, 91 95.083 M 97 94 C 97 94.550, 97.450 95, 98 95 C 98.550 95, 99 94.550, 99 94 C 99 93.450, 98.550 93, 98 93 C 97.450 93, 97 93.450, 97 94 M 101.651 96.095 C 100.664 97.247, 100.111 98.445, 100.422 98.756 C 101.087 99.421, 105 96.078, 105 94.845 C 105 93.371, 103.505 93.929, 101.651 96.095 M 75 97 C 75 97.550, 75.675 98, 76.500 98 C 77.325 98, 78 97.550, 78 97 C 78 96.450, 77.325 96, 76.500 96 C 75.675 96, 75 96.450, 75 97 M 121 100.122 C 121 101.896, 121.247 102.040, 122.500 101 C 123.325 100.315, 124 99.360, 124 98.878 C 124 98.395, 123.325 98, 122.500 98 C 121.638 98, 121 98.902, 121 100.122 M 88 103.559 C 88 104.416, 88.450 104.840, 89 104.500 C 89.550 104.160, 90 103.459, 90 102.941 C 90 102.423, 89.550 102, 89 102 C 88.450 102, 88 102.702, 88 103.559 M 112.639 106.694 C 111.513 107.820, 111.954 109, 113.500 109 C 114.325 109, 115 108.577, 115 108.059 C 115 106.798, 113.438 105.895, 112.639 106.694 M 84 110.500 C 84 111.325, 84.450 112, 85 112 C 85.550 112, 86 111.325, 86 110.500 C 86 109.675, 85.550 109, 85 109 C 84.450 109, 84 109.675, 84 110.500 M 102 111 C 102 111.550, 102.450 112, 103 112 C 103.550 112, 104 111.550, 104 111 C 104 110.450, 103.550 110, 103 110 C 102.450 110, 102 110.450, 102 111 M 133 111.500 C 131.649 113.128, 131.972 113.332, 134.418 112.393 C 135.288 112.059, 136 111.384, 136 110.893 C 136 109.510, 134.380 109.838, 133 111.500 M 114.500 112 C 114.160 112.550, 114.584 113, 115.441 113 C 116.298 113, 117 112.550, 117 112 C 117 111.450, 116.577 111, 116.059 111 C 115.541 111, 114.840 111.450, 114.500 112 M 139.065 113.421 C 138.097 114.588, 138.255 114.746, 139.943 114.305 C 141.074 114.009, 142 113.369, 142 112.883 C 142 111.535, 140.386 111.830, 139.065 113.421 M 148 114.559 C 148 115.416, 148.450 115.840, 149 115.500 C 149.550 115.160, 150 114.459, 150 113.941 C 150 113.423, 149.550 113, 149 113 C 148.450 113, 148 113.702, 148 114.559 M 130.005 116.894 C 128.633 117.275, 127.373 118.303, 127.204 119.178 C 126.954 120.476, 127.504 120.644, 130.193 120.094 C 132.148 119.695, 133.622 118.725, 133.817 117.710 C 134.169 115.882, 133.871 115.818, 130.005 116.894 M 90.229 118.188 C 90.847 120.042, 93 120.349, 93 118.583 C 93 117.713, 92.287 117, 91.417 117 C 90.546 117, 90.011 117.534, 90.229 118.188 M 113.250 118.250 C 113.479 118.938, 114.267 119.500, 115 119.500 C 115.733 119.500, 116.521 118.938, 116.750 118.250 C 116.998 117.506, 116.289 117, 115 117 C 113.711 117, 113.002 117.506, 113.250 118.250 M 113.543 126.931 C 113.226 127.443, 113.425 128.144, 113.984 128.490 C 115.177 129.227, 117 128.291, 117 126.941 C 117 125.724, 114.293 125.716, 113.543 126.931 M 130.500 128 C 130.160 128.550, 130.557 129, 131.382 129 C 132.207 129, 133.160 128.550, 133.500 128 C 133.840 127.450, 133.443 127, 132.618 127 C 131.793 127, 130.840 127.450, 130.500 128 M 103 129 C 104.939 130.253, 106 130.253, 106 129 C 106 128.450, 104.987 128.007, 103.750 128.015 C 101.931 128.028, 101.787 128.216, 103 129 M 153.469 132.050 C 152.519 133.588, 153.820 134.580, 155.104 133.296 C 155.822 132.578, 155.839 132.019, 155.156 131.597 C 154.596 131.251, 153.837 131.455, 153.469 132.050 M 87.229 137.188 C 87.847 139.042, 90 139.349, 90 137.583 C 90 136.713, 89.287 136, 88.417 136 C 87.546 136, 87.011 136.534, 87.229 137.188 M 146.029 136.961 C 145.220 137.473, 144.863 138.196, 145.236 138.569 C 146.151 139.484, 149 138.320, 149 137.031 C 149 135.761, 147.965 135.737, 146.029 136.961 M 120 141 C 120 141.550, 120.450 142, 121 142 C 121.550 142, 122 141.550, 122 141 C 122 140.450, 121.550 140, 121 140 C 120.450 140, 120 140.450, 120 141" stroke="none" fill="black" fill-rule="evenodd"/>
</svg>