<svg xmlns="http://www.w3.org/2000/svg" width="192" height="144" viewBox="0 0 192 144" version="1.1">
	<path d="M 0 72 L 0 144 48.975 144 L 97.950 144 97.350 141 C 96.896 138.732, 97.116 138, 98.253 138 C 100.796 138, 102.465 140.734, 101 142.500 C 99.262 144.594, 100.346 144.479, 112.158 141.311 C 121.245 138.874, 122.411 138.289, 124.606 135.061 C 126.821 131.805, 126.887 131.396, 125.376 130.289 C 124.182 129.413, 123.178 129.370, 121.755 130.131 C 119.613 131.278, 118.389 130.513, 117.847 127.691 C 117.635 126.585, 113.810 123.922, 108 120.835 C 94.395 113.605, 93.675 113.096, 94.922 111.594 C 95.750 110.597, 98.480 111.601, 107.568 116.245 C 118.817 121.992, 119.216 122.114, 121.140 120.373 C 122.842 118.833, 123.252 118.786, 124.046 120.040 C 124.554 120.843, 124.976 121.990, 124.985 122.589 C 124.993 123.189, 126.152 124.204, 127.559 124.845 C 129.784 125.859, 130.565 125.671, 133.533 123.407 L 136.948 120.802 136.474 111.306 C 136.213 106.083, 135.757 101.416, 135.459 100.934 C 135.162 100.453, 135.671 98.603, 136.591 96.823 C 137.929 94.237, 137.999 93.500, 136.939 93.146 C 136.210 92.903, 134.548 91.639, 133.245 90.336 C 130.745 87.836, 130.860 85.074, 133.592 81.950 C 134.749 80.627, 134.651 80.145, 132.921 78.665 C 130.472 76.567, 122.878 73.524, 117.779 72.597 C 115.733 72.225, 112.743 70.813, 111.135 69.460 C 107.559 66.451, 107.398 66.444, 106.566 69.250 L 105.898 71.500 104.959 69.190 L 104.020 66.879 66.760 67.435 C 46.267 67.741, 26.411 68.261, 22.635 68.590 C 17.343 69.053, 15.867 68.900, 16.191 67.926 C 17.456 64.133, 40.681 62.054, 82.177 62.019 C 102.923 62.002, 104.892 61.851, 105.311 60.250 C 105.746 58.583, 105.774 58.583, 105.884 60.250 C 106.015 62.223, 109.332 62.585, 113.336 61.062 C 115.289 60.320, 116.168 60.528, 117.556 62.062 C 120.484 65.297, 124.045 64.500, 128.861 59.530 C 132.448 55.829, 134.631 54.612, 141.553 52.455 C 152.266 49.116, 154.395 49.364, 154.822 54 C 155.033 56.288, 156.028 58.211, 157.696 59.555 C 160.051 61.451, 160.122 61.735, 158.624 63.233 C 156.558 65.299, 156.571 66.869, 158.675 69.193 C 160.522 71.234, 161.156 75.872, 159.827 77.617 C 159.318 78.285, 159.558 79.219, 160.423 79.936 C 162.878 81.974, 163.379 86.773, 161.444 89.725 C 159.109 93.290, 159.438 101.049, 162.419 112.721 C 164.826 122.142, 164.725 122.963, 161 124.249 C 159.688 124.702, 159.695 124.849, 161.058 125.417 C 161.915 125.774, 169.227 123.831, 177.308 121.098 L 192 116.130 192 120.865 L 192 125.599 179.750 129.337 C 162.620 134.565, 163.003 134.365, 163.869 137.602 C 165.166 142.453, 169.956 144.082, 182 143.771 L 192.500 143.500 192.757 71.750 L 193.013 0 96.507 0 L 0 0 0 72 M 0.474 72.500 C 0.474 112.100, 0.598 128.154, 0.750 108.176 C 0.901 88.198, 0.901 55.798, 0.750 36.176 C 0.598 16.554, 0.474 32.900, 0.474 72.500 M 157.347 5.507 C 155.633 6.777, 155.620 6.971, 157.166 8.188 C 158.083 8.910, 159.611 12.334, 160.562 15.798 C 164.226 29.148, 172.397 35.985, 185.700 36.832 L 192 37.233 192 32.116 L 192 27 185.750 26.994 C 172.451 26.983, 167.450 23.585, 164.081 12.272 C 161.853 4.791, 160.350 3.281, 157.347 5.507" stroke="none" fill="black" fill-rule="evenodd"/>
</svg>