<svg xmlns="http://www.w3.org/2000/svg" width="192" height="144" viewBox="0 0 192 144" version="1.1">
	<path d="M 0 72 L 0 144 52.250 143.969 L 104.500 143.937 106.283 141.487 L 108.066 139.037 104.783 139.609 C 102.977 139.923, 99.181 140.815, 96.346 141.590 C 90.239 143.261, 85.598 143.390, 82.934 141.965 C 79.406 140.077, 80.817 138.438, 87.085 137.143 C 92.146 136.098, 93.059 135.601, 92.511 134.193 C 91.314 131.118, 91.479 130.500, 93.500 130.500 C 94.931 130.500, 95.477 131.140, 95.421 132.750 C 95.325 135.473, 95.343 135.474, 103.763 133.103 C 113.729 130.296, 115.474 129.452, 117.405 126.504 C 119.538 123.249, 118.933 122.500, 114.166 122.500 C 111.272 122.500, 110.434 122.079, 110.185 120.500 C 109.963 119.086, 106.961 117.050, 99.935 113.550 C 90.991 109.093, 88.930 107.403, 90.512 105.821 C 90.794 105.540, 95.181 107.476, 100.262 110.123 C 109.354 114.861, 113 115.971, 113 114 C 113 111.978, 116.078 113.075, 116.967 115.414 C 118.337 119.017, 121.473 119.569, 124.942 116.820 L 127.868 114.500 127.556 104.500 C 127.384 99, 127.624 93.496, 128.090 92.268 C 128.747 90.536, 128.499 89.802, 126.980 88.989 C 124.225 87.515, 123.373 83.351, 125.373 81.141 C 128.113 78.113, 125.536 74.268, 119.568 72.479 C 116.856 71.665, 114.106 71, 113.458 71 C 112.810 71, 110.593 69.856, 108.531 68.457 C 104.972 66.041, 104.715 66.004, 103.424 67.707 C 102.144 69.394, 102.062 69.396, 102.032 67.750 C 102.003 66.146, 100.431 66, 83.250 66.006 C 72.938 66.009, 54.876 66.472, 43.113 67.036 C 31.351 67.599, 21.525 67.858, 21.278 67.611 C 20.540 66.873, 25.217 64.709, 29.500 63.808 C 31.700 63.345, 48.777 62.592, 67.449 62.136 C 91.545 61.547, 101.510 60.971, 101.782 60.153 C 102.323 58.531, 104 58.713, 104 60.394 C 104 61.506, 104.819 61.603, 108.054 60.876 C 111.243 60.160, 112.432 60.289, 113.626 61.483 C 115.949 63.806, 117.663 63.336, 121.763 59.250 C 125.628 55.399, 136.589 51, 142.321 51 C 144.698 51, 145 51.381, 145 54.378 C 145 56.762, 145.662 58.205, 147.250 59.283 C 149.201 60.606, 149.334 61.085, 148.250 62.891 C 146.617 65.611, 146.669 67.481, 148.420 68.933 C 149.279 69.647, 149.714 71.456, 149.523 73.519 C 149.333 75.560, 149.766 77.391, 150.603 78.085 C 152.522 79.678, 152.360 84.945, 150.322 87.196 C 148.237 89.500, 148.361 96.304, 150.691 107.386 C 152.285 114.971, 152.277 115.324, 150.483 116.636 C 147.329 118.942, 150.326 118.196, 165.099 113 C 172.916 110.250, 179.455 108, 179.630 108 C 180.515 108, 183.139 114.464, 182.382 114.780 C 181.897 114.982, 174.750 117.477, 166.500 120.324 C 152.261 125.237, 151.514 125.627, 151.769 128 C 152.142 131.461, 153.472 132.245, 167.858 137.473 C 174.811 140, 181.430 142.535, 182.567 143.105 C 183.704 143.676, 186.404 143.998, 188.567 143.821 L 192.500 143.500 192.757 71.750 L 193.013 0 96.507 0 L 0 0 0 72 M 0.474 72.500 C 0.474 112.100, 0.598 128.154, 0.750 108.176 C 0.901 88.198, 0.901 55.798, 0.750 36.176 C 0.598 16.554, 0.474 32.900, 0.474 72.500 M 183.590 4.530 C 180.180 6.308, 176.763 9.608, 175.147 12.684 C 173.199 16.394, 173.723 24.378, 176.114 27.418 C 177.277 28.896, 177.960 30.374, 177.632 30.702 C 177.304 31.030, 173.663 31.515, 169.541 31.779 C 160.026 32.390, 157.815 31.074, 153.919 22.482 C 149.025 11.688, 146.944 13.176, 151.569 24.164 C 156.700 36.354, 160.389 39, 172.254 39 C 176.353 39, 182.473 38.711, 185.853 38.358 L 192 37.715 192 20.358 L 192 3 189.250 3.006 C 187.738 3.010, 185.190 3.695, 183.590 4.530 M 156.129 141.384 C 157.214 143.766, 157.821 143.994, 162.911 143.929 L 168.500 143.859 164.124 141.917 C 161.717 140.849, 158.665 139.703, 157.342 139.371 C 155.063 138.799, 154.999 138.905, 156.129 141.384" stroke="none" fill="black" fill-rule="evenodd"/>
</svg>