<svg xmlns="http://www.w3.org/2000/svg" width="192" height="144" viewBox="0 0 192 144" version="1.1">
	<path d="M 143.761 11.966 C 141.490 14.618, 130.656 20, 127.588 20 C 124.438 20, 123.557 21.414, 125.498 23.356 C 127.749 25.606, 125.908 26.100, 119.605 24.935 C 116.511 24.363, 113.534 24.170, 112.990 24.506 C 111.537 25.404, 111.783 27.575, 113.500 29 C 114.325 29.685, 115 31.492, 115 33.015 C 115 34.610, 115.666 36.042, 116.569 36.388 C 117.520 36.753, 117.919 37.682, 117.582 38.745 C 117.276 39.710, 117.695 41.789, 118.513 43.364 C 120.360 46.922, 120.400 46.662, 117.910 47.313 C 116.370 47.716, 115.985 48.376, 116.445 49.826 C 117.699 53.778, 117.770 57.594, 116.618 59.170 C 115.551 60.629, 114.856 60.512, 109.399 57.955 C 104.442 55.632, 103.036 54.407, 101.551 51.113 C 99.472 46.502, 95.833 42.963, 90.631 40.495 C 87.194 38.864, 87 38.514, 87 33.933 C 87 28.279, 85.227 23.699, 83.322 24.430 C 81.565 25.104, 81.652 23.942, 83.564 21.212 C 85.173 18.915, 84.712 15, 82.833 15 C 82.265 15, 80.310 16.490, 78.490 18.310 C 74.220 22.580, 72.960 29.254, 75.491 34.188 C 76.425 36.010, 78.069 40.122, 79.144 43.326 C 80.950 48.711, 80.986 49.543, 79.621 54.326 C 77.618 61.346, 76.641 68.610, 77.510 70.016 C 77.991 70.794, 79.318 70.115, 81.557 67.944 L 84.889 64.715 89.796 69.108 C 92.494 71.523, 97.019 74.387, 99.851 75.470 C 102.683 76.554, 105 77.787, 105 78.210 C 105 78.634, 102.977 81.935, 100.505 85.546 C 95.225 93.258, 94.360 96.009, 95.771 100.606 C 96.344 102.473, 96.591 104.849, 96.319 105.887 C 96.048 106.925, 96.323 108.082, 96.931 108.457 C 97.640 108.895, 96.775 110.613, 94.518 113.250 C 90.768 117.631, 90.060 120, 92.500 120 C 93.325 120, 94 119.380, 94 118.622 C 94 117.865, 94.703 116.661, 95.563 115.948 C 96.929 114.814, 97.055 114.988, 96.563 117.325 C 96.253 118.796, 95.773 121.097, 95.496 122.439 C 94.972 124.978, 96.492 126.956, 97.278 124.756 C 97.524 124.065, 98.075 123.825, 98.501 124.221 C 98.928 124.618, 98.805 127.318, 98.228 130.221 C 97.374 134.523, 97.441 135.648, 98.590 136.300 C 99.376 136.746, 100 138.625, 100 140.550 L 100 144 136.645 144 L 173.290 144 172.710 137.250 C 172.390 133.537, 170.460 124.875, 168.419 118 C 160.803 92.340, 160.802 92.334, 161.344 81 C 162.017 66.938, 163.905 57.258, 166.807 53 C 168.911 49.914, 169.131 48.706, 168.674 42.778 C 168.307 38.021, 167.334 34.547, 165.346 30.894 C 162.395 25.472, 153.555 17.428, 149.401 16.386 C 146.912 15.761, 146.300 14.551, 147.956 13.527 C 149.193 12.763, 148.143 10, 146.615 10 C 145.971 10, 144.687 10.885, 143.761 11.966 M 137.710 129 C 137.998 130.100, 138.406 131, 138.617 131 C 138.827 131, 139 130.100, 139 129 C 139 127.900, 138.592 127, 138.094 127 C 137.595 127, 137.423 127.900, 137.710 129" stroke="none" fill="black" fill-rule="evenodd"/>
</svg>