<svg xmlns="http://www.w3.org/2000/svg" width="192" height="144" viewBox="0 0 192 144" version="1.1">
	<path d="M 0 72 L 0 144 73.117 144 L 146.233 144 145.512 141.750 C 145.116 140.512, 144.562 137.925, 144.281 136 C 144.001 134.075, 143.128 131.768, 142.343 130.874 C 141.557 129.980, 140.650 127.617, 140.326 125.624 C 139.743 122.029, 139.767 122, 143.286 122 C 145.238 122, 148.934 122.900, 151.500 124 C 158.405 126.960, 160.636 126.616, 165.228 121.885 C 168.181 118.842, 169.359 116.692, 169.750 113.635 C 170.302 109.320, 173.215 102.603, 175.018 101.489 C 175.697 101.070, 175.389 99.725, 174.145 97.671 C 173.089 95.927, 171.481 91.800, 170.572 88.500 C 169.662 85.200, 167.712 79.029, 166.239 74.786 C 163.839 67.875, 163.333 67.129, 161.373 67.621 C 160.170 67.923, 158.274 67.682, 157.159 67.085 C 155.750 66.331, 154.310 66.312, 152.444 67.021 C 150.531 67.749, 149.357 67.711, 148.370 66.892 C 147.301 66.005, 145.118 66.357, 138.868 68.423 C 128.519 71.843, 126.311 71.384, 120.846 64.678 C 118.526 61.830, 116.263 59.075, 115.819 58.555 C 115.343 57.999, 113.725 58.924, 111.886 60.805 C 109.003 63.754, 108.926 64, 110.893 64 C 112.826 64, 112.969 64.394, 112.428 68.250 C 112.101 70.588, 111.665 73.048, 111.460 73.718 C 111.255 74.388, 111.518 75.202, 112.044 75.527 C 112.570 75.852, 113 76.991, 113 78.059 C 113 79.662, 112.292 80, 108.933 80 C 105.516 80, 104.953 79.720, 105.416 78.250 C 105.719 77.287, 105.592 74.137, 105.133 71.249 C 104.478 67.130, 104.609 65.739, 105.739 64.801 C 106.980 63.771, 106.933 63.424, 105.399 62.303 C 102.709 60.336, 102.363 60.665, 102.829 64.750 C 103.238 68.340, 103.176 68.431, 101.378 66.880 C 100.345 65.990, 98.968 65.455, 98.318 65.691 C 96.615 66.311, 94.771 62.314, 95.560 59.712 C 96.589 56.316, 100.006 53.053, 105.422 50.297 C 113.038 46.421, 115.375 46.784, 124.036 53.189 L 131.569 58.760 135.601 56.630 C 140.889 53.836, 147 48.820, 147 47.273 C 147 45.228, 151.237 43.166, 156 42.893 C 162.503 42.521, 163 42.183, 163 38.136 C 163 29.024, 159.216 23.912, 153.038 24.677 C 151.092 24.918, 146.238 25.373, 142.250 25.689 C 136.017 26.182, 135 26.037, 135 24.655 C 135 23.770, 133.875 22.309, 132.500 21.408 C 131.125 20.507, 130 19.426, 130 19.006 C 130 17.638, 137.827 10.135, 142.003 7.498 C 144.378 5.999, 145.788 4.466, 145.388 3.818 C 144.921 3.063, 145.500 2.909, 147.196 3.334 C 148.659 3.702, 151.923 3.157, 155.095 2.016 L 160.500 0.072 80.250 0.036 L 0 0 0 72 M 107 59.083 C 107 61.520, 109.337 61.176, 109.823 58.667 C 110.015 57.680, 109.505 57, 108.573 57 C 107.646 57, 107 57.855, 107 59.083" stroke="none" fill="black" fill-rule="evenodd"/>
</svg>