<svg xmlns="http://www.w3.org/2000/svg" width="192" height="144" viewBox="0 0 192 144" version="1.1">
	<path d="M 0 72 L 0 144 15.383 144 L 30.767 144 31.240 141.524 C 31.848 138.344, 31.433 138, 26.994 138 C 24.030 138, 23.097 137.509, 22.162 135.456 C 21.108 133.144, 20.548 132.944, 16.001 133.261 L 11 133.609 11 129.536 C 11 126.701, 12.214 123.190, 14.994 117.982 C 22.434 104.046, 30.552 87.387, 31.915 83.258 C 33.381 78.815, 32.690 74.296, 30.962 77.028 C 30.293 78.085, 30.014 77.372, 29.971 74.500 C 29.914 70.738, 29.766 70.947, 27.483 78 C 25.753 83.347, 25.236 86.624, 25.683 89.416 C 26.214 92.743, 26.067 93.240, 24.706 92.717 C 22.905 92.026, 21.919 94.154, 21.780 99.031 C 21.732 100.712, 21.216 101.905, 20.623 101.708 C 18.902 101.134, 17.951 94.781, 19.138 91.785 C 20.003 89.603, 19.895 88.752, 18.589 87.446 C 17.090 85.947, 16.831 85.976, 15.232 87.824 C 14.280 88.925, 12.551 90.100, 11.391 90.436 C 7.701 91.502, 6.655 88.802, 6.841 78.699 C 7.003 69.896, 7.213 69.092, 11.726 60 C 15.183 53.037, 16.409 49.432, 16.314 46.500 C 16.244 44.300, 16.097 39.688, 15.988 36.250 C 15.802 30.355, 15.653 30, 13.364 30 C 10.239 30, 9.275 27.458, 11.477 25.026 C 13.580 22.702, 12.947 21.550, 8.185 19.035 C 3.894 16.768, 5.597 16.461, 11.939 18.358 C 15.536 19.433, 16.841 19.445, 18.814 18.422 C 22.112 16.710, 24.293 17.687, 23.731 20.625 C 23.342 22.662, 23.591 22.890, 25.648 22.373 C 29.894 21.308, 34.592 22.810, 35.884 25.646 C 36.539 27.083, 36.849 28.484, 36.573 28.761 C 36.297 29.037, 36.730 30.204, 37.535 31.354 C 39.218 33.757, 39.468 37.593, 38 38.500 C 36.095 39.677, 37.038 41.073, 45.144 49.082 L 53.289 57.129 52.018 62.427 C 50.241 69.832, 51.662 76.934, 59.486 99.759 C 63.468 111.377, 66.168 121.055, 66.590 125.223 C 67.255 131.795, 67.213 131.969, 64.696 132.925 C 63.280 133.464, 61.600 134.878, 60.964 136.068 C 59.948 137.965, 59.232 138.158, 55.153 137.631 C 49.736 136.931, 48.553 137.500, 47.635 141.250 L 46.962 144 88.981 144 C 136.480 144, 132.605 144.778, 129.448 135.876 C 128.595 133.469, 127.875 128.350, 127.849 124.500 C 127.823 120.650, 127.714 107.600, 127.608 95.500 L 127.415 73.500 124.458 67.513 C 122.055 62.650, 120.562 60.992, 116.500 58.674 C 109.735 54.815, 104.542 46.406, 99.564 31.250 C 98.615 28.363, 97.524 26, 97.139 26 C 96.754 26, 95.872 24.763, 95.180 23.250 C 92.859 18.180, 91.531 16, 90.763 16 C 90.343 16, 90 15.104, 90 14.008 C 90 12.913, 89.100 11.455, 88 10.768 C 86.900 10.081, 86 9.055, 86 8.487 C 86 7.920, 84.617 5.778, 82.927 3.728 L 79.854 -0 39.927 -0 L 0 0 0 72 M 166.287 58.892 C 164.457 62.098, 164.240 63.350, 165.037 66.128 C 165.566 67.975, 166 71.366, 166 73.662 C 166 77.335, 166.411 78.091, 169.414 79.947 C 171.292 81.107, 174.278 84.407, 176.051 87.278 C 177.823 90.150, 180.107 93.712, 181.125 95.194 C 186.648 103.229, 187.776 106.452, 188.513 116.300 C 189.178 125.203, 189.074 126.230, 187.373 127.518 C 186.343 128.298, 184.526 128.951, 183.335 128.968 C 182.144 128.986, 179.895 130.350, 178.338 132 C 175.921 134.561, 174.770 135, 170.476 135 C 163.914 135, 161.180 136.867, 161.778 140.941 L 162.227 144 177.113 144 L 192 144 192 120 L 192 96 189.607 96 C 186.561 96, 186 94.437, 186 85.942 C 186 80.786, 185.493 78.223, 183.988 75.774 C 182.881 73.973, 181.450 70.700, 180.807 68.500 C 179.398 63.676, 179.285 63.244, 179.125 62.119 C 178.862 60.262, 172.524 55, 170.560 55.008 C 169.219 55.013, 167.727 56.369, 166.287 58.892 M 151 140 C 151 143.600, 151.250 144, 153.500 144 C 156.429 144, 156.434 143.975, 154.551 139.468 C 152.616 134.837, 151 135.079, 151 140 M 38.200 141.200 C 36.336 143.064, 36.770 144, 39.500 144 C 41.333 144, 42 143.467, 42 142 C 42 139.772, 40.040 139.360, 38.200 141.200" stroke="none" fill="black" fill-rule="evenodd"/>
</svg>