<svg xmlns="http://www.w3.org/2000/svg" width="192" height="144" viewBox="0 0 192 144" version="1.1">
	<path d="M 31.550 0.905 C 32.855 2.148, 50.370 11.154, 56.500 13.734 C 60.779 15.535, 61.103 15.850, 58.750 15.919 C 57.237 15.964, 56 16.156, 56 16.346 C 56 17.710, 59.370 22.961, 61.350 24.683 C 62.675 25.835, 63.926 27.219, 64.130 27.759 C 64.333 28.299, 66.750 29.903, 69.500 31.324 C 72.250 32.744, 73.739 33.928, 72.809 33.953 C 71.879 33.979, 70.840 33.550, 70.500 33 C 70.160 32.450, 68.768 32, 67.406 32 C 65.365 32, 65.091 32.308, 65.846 33.750 C 67.634 37.167, 71 52.931, 71 57.892 C 71 63.986, 71.341 64.223, 83.556 66.611 C 89.618 67.796, 96.701 68.317, 105.538 68.226 C 117.680 68.101, 118.664 68.232, 119.857 70.143 C 120.562 71.272, 120.972 72.361, 120.769 72.564 C 120.283 73.051, 104.421 75.003, 95.227 75.708 C 91.227 76.015, 87.757 76.584, 87.517 76.973 C 87.276 77.362, 91.449 78.875, 96.790 80.334 C 116.738 85.787, 113.784 85.648, 133.563 82.061 C 157.037 77.803, 167.758 77.223, 181.454 79.469 C 187.318 80.431, 192.202 81.056, 192.308 80.859 C 192.413 80.662, 192.373 62.388, 192.217 40.250 L 191.934 -0 121.208 -0 C 51.564 -0, 50.462 0.031, 49.232 2 C 47.662 4.514, 45.214 4.514, 42 2 C 39.481 0.030, 29.538 -1.012, 31.550 0.905 M 50.083 15.250 C 50.313 15.387, 51.850 16.625, 53.500 18 L 56.500 20.500 54.076 17.750 C 52.742 16.238, 51.205 15, 50.659 15 C 50.113 15, 49.854 15.113, 50.083 15.250 M 23 25.943 C 23 27.020, 26.964 30, 28.397 30 C 28.920 30, 28.292 28.875, 27 27.500 C 24.571 24.915, 23 24.303, 23 25.943 M 33 32 C 33.825 32.533, 34.950 32.969, 35.500 32.969 C 36.050 32.969, 35.825 32.533, 35 32 C 34.175 31.467, 33.050 31.031, 32.500 31.031 C 31.950 31.031, 32.175 31.467, 33 32 M 34.500 39 C 37.209 41.750, 39.788 44, 40.233 44 C 42.014 44, 36.755 35.857, 34.394 34.960 C 29.577 33.128, 29.601 34.026, 34.500 39 M 35.433 43.891 C 36.146 45.045, 40 47.374, 40 46.650 C 40 46.419, 38.820 45.457, 37.377 44.511 C 35.934 43.566, 35.059 43.287, 35.433 43.891 M 29 44.443 C 29 44.686, 29.921 46.446, 31.046 48.354 C 34.190 53.683, 38 54.338, 38 49.550 C 38 47.760, 37.065 46.843, 33.980 45.609 C 29.716 43.902, 29 43.735, 29 44.443 M 69.500 79.632 C 72.655 82.151, 85.488 87.825, 89.425 88.441 C 91.391 88.748, 94.575 89.245, 96.500 89.545 C 102.108 90.419, 100.564 88.520, 92.871 85.080 C 86.104 82.054, 78.763 79.882, 71 78.609 C 67.659 78.061, 67.591 78.108, 69.500 79.632 M 91.519 133.750 C 90.455 135.813, 88.777 138.694, 87.792 140.154 C 86.806 141.614, 86 143.077, 86 143.404 C 86 143.732, 98.262 143.971, 113.250 143.935 L 140.500 143.869 128.535 141.389 C 116.186 138.829, 104.264 135.138, 97.790 131.872 C 95.749 130.842, 93.939 130, 93.767 130 C 93.595 130, 92.584 131.688, 91.519 133.750 M 0 141.892 C 0 143.848, 0.521 143.995, 7.250 143.933 L 14.500 143.865 9.500 142.456 C 6.750 141.681, 3.488 140.763, 2.250 140.415 C 0.428 139.903, 0 140.184, 0 141.892" stroke="none" fill="black" fill-rule="evenodd"/>
</svg>