<svg xmlns="http://www.w3.org/2000/svg" width="192" height="144" viewBox="0 0 192 144" version="1.1">
	<path d="M 63.755 4.805 C 65.034 18.110, 58.973 34.038, 48.712 44.341 C 45.295 47.772, 40.700 51.461, 38.500 52.539 C 36.300 53.618, 34.275 54.744, 34 55.042 C 33.363 55.733, 27.035 57.577, 20.132 59.084 C 14.923 60.221, 5.308 59.908, 1.750 58.486 C 0.100 57.826, 0 60.239, 0 100.893 L 0 144 52.981 144 L 105.962 144 106.523 141.250 C 106.832 139.738, 109.084 132.200, 111.527 124.500 C 117.045 107.109, 117.123 106.588, 114.250 106.180 C 110.552 105.655, 110.854 103.384, 116.094 92.301 C 120.473 83.041, 120.941 79.161, 118 76.500 C 116.900 75.505, 116 73.932, 116 73.005 C 116 71.038, 121.704 59.301, 123.070 58.457 C 124.682 57.460, 124.087 54.892, 121.542 51.867 C 120.190 50.260, 119.338 48.283, 119.649 47.473 C 119.999 46.561, 119.616 46, 118.642 46 C 115.990 46, 114.728 42.394, 116.076 38.666 C 117.049 35.976, 116.977 34.856, 115.669 32.326 C 112.986 27.138, 115.094 26.799, 126.877 30.521 C 135.912 33.375, 139.531 36.628, 140.516 42.779 C 140.843 44.826, 141.780 48.018, 142.598 49.872 C 144.089 53.256, 144.649 62.812, 145.415 98 L 145.752 113.500 150.776 125.500 C 153.539 132.100, 156.108 138.973, 156.485 140.773 L 157.169 144.045 174.834 143.773 L 192.500 143.500 192.825 129 C 193.003 121.025, 192.837 88.737, 192.455 57.250 L 191.761 0 127.527 -0 L 63.294 -0 63.755 4.805 M 0.459 101 C 0.459 124.925, 0.589 134.713, 0.749 122.750 C 0.908 110.788, 0.908 91.213, 0.749 79.250 C 0.589 67.288, 0.459 77.075, 0.459 101" stroke="none" fill="black" fill-rule="evenodd"/>
</svg>