<svg xmlns="http://www.w3.org/2000/svg" width="192" height="144" viewBox="0 0 192 144" version="1.1">
	<path d="M -0 12.345 C -0 23.517, 0.195 24.866, 2.048 26.544 C 3.175 27.563, 5.701 31.039, 7.662 34.267 C 11.681 40.883, 12.955 41.585, 22.623 42.516 C 27.948 43.029, 30.177 42.821, 32.500 41.596 C 36.293 39.594, 38.959 39.582, 41.777 41.557 C 44.553 43.501, 44.561 44.399, 41.828 46.946 C 39.912 48.730, 39.782 49.384, 40.729 52.468 C 41.616 55.359, 41.478 56.601, 39.934 59.629 C 38.907 61.644, 37.772 65.889, 37.414 69.061 C 36.927 73.358, 36.316 74.946, 35.016 75.286 C 33.908 75.575, 33.021 77.158, 32.587 79.621 C 31.642 84.985, 27.809 92.137, 26.208 91.525 C 25.231 91.151, 25.064 91.944, 25.525 94.765 C 26.878 103.053, 27.249 104.016, 29.823 105.938 C 32.005 107.567, 32.164 107.943, 30.683 107.968 C 29.263 107.993, 29.017 108.492, 29.559 110.250 C 30.623 113.699, 32.776 117.634, 34.596 119.453 C 37.676 122.533, 35.352 122, 30.424 118.496 C 27.719 116.573, 24.934 115, 24.234 115 C 22.819 115, 23.318 118.160, 25.633 123.872 C 27.406 128.247, 27.358 128.617, 25.250 126.807 C 21.704 123.762, 20.643 123.526, 21.270 125.923 C 21.697 127.557, 21.484 128.016, 20.478 127.630 C 18.530 126.883, 17.901 129.821, 19.007 134.500 C 20.275 139.864, 20.231 140.437, 18.658 139.131 C 17.920 138.519, 17.031 138.303, 16.682 138.651 C 16.334 139, 15.328 138.687, 14.448 137.957 C 13.112 136.848, 12.704 136.862, 11.976 138.038 C 11.497 138.813, 10.294 139.495, 9.303 139.553 C 4.591 139.827, 4 140.100, 4 142 C 4 143.986, 4.667 144, 98 144 L 192 144 192 90.160 C 192 60.548, 192.296 28.148, 192.658 18.160 L 193.316 0 96.658 0 L 0 0 -0 12.345 M 0.385 13 C 0.385 19.875, 0.545 22.688, 0.740 19.250 C 0.936 15.813, 0.936 10.188, 0.740 6.750 C 0.545 3.313, 0.385 6.125, 0.385 13 M 90.004 54.495 C 89.008 55.696, 89.059 56.434, 90.266 58.245 C 92.294 61.287, 95.606 65, 96.292 65 C 96.731 65, 96.613 58.783, 96.080 53.750 C 95.936 52.395, 91.272 52.967, 90.004 54.495 M 24.600 86.600 C 24.244 87.527, 24.178 88.511, 24.453 88.786 C 24.728 89.061, 25.244 88.527, 25.600 87.600 C 25.956 86.673, 26.022 85.689, 25.747 85.414 C 25.472 85.139, 24.956 85.673, 24.600 86.600" stroke="none" fill="black" fill-rule="evenodd"/>
</svg>