<svg xmlns="http://www.w3.org/2000/svg" width="192" height="144" viewBox="0 0 192 144" version="1.1">
	<path d="M 0 72 L 0 144 46 144 L 92 144 92 141.700 C 92 140.435, 91.622 138.972, 91.160 138.450 C 89.645 136.737, 86.016 122.604, 85.844 117.750 C 85.751 115.138, 85.411 113, 85.088 113.001 C 84.163 113.003, 79 122.620, 79 124.341 C 79 125.191, 79.817 126.475, 80.816 127.193 C 81.815 127.912, 82.928 129.293, 83.289 130.262 C 83.847 131.758, 83.535 131.926, 81.223 131.374 C 76.098 130.151, 73 125.671, 73 119.484 C 73 117.495, 72.577 115.077, 72.059 114.111 C 71.071 112.264, 73.663 107.210, 84.876 89.119 C 87.733 84.509, 89.848 80.515, 89.576 80.242 C 89.303 79.970, 86.860 81.606, 84.146 83.878 C 78.607 88.515, 74.045 91.146, 72.835 90.398 C 72.391 90.124, 74.834 87.771, 78.264 85.170 C 90.259 76.074, 89.763 76.806, 90.477 67.140 C 91.518 53.051, 92.788 49.220, 97.610 45.613 C 101.968 42.354, 103 39.375, 103 30.060 C 103 26.106, 104.417 24, 107.078 24 C 110.355 24, 111.373 26.611, 109.712 30.761 C 108.880 32.842, 108.041 36.109, 107.849 38.022 C 107.540 41.104, 107.784 41.530, 110 41.764 C 112.025 41.978, 113.117 41.079, 115.747 37.030 C 119.619 31.070, 124.914 27.338, 130.824 26.404 L 135.148 25.721 134.824 29.088 C 134.541 32.032, 133.966 32.652, 130.251 34.019 C 127.913 34.879, 123.989 37.557, 121.530 39.971 L 117.059 44.359 118.921 47.429 C 122.030 52.554, 122.367 56.229, 119.963 58.809 C 118.809 60.048, 117.618 62.579, 117.317 64.433 C 116.862 67.238, 117.183 68.074, 119.231 69.416 C 120.584 70.302, 122.211 72.169, 122.847 73.562 C 124.451 77.085, 122.020 81.547, 117.457 83.453 C 114.145 84.837, 113.993 85.112, 114.548 88.707 C 114.899 90.977, 114.546 94.139, 113.670 96.582 C 112.015 101.199, 112.563 105.490, 115.828 113.500 C 118.984 121.241, 120.863 128.822, 121.593 136.763 L 122.261 144.025 157.380 143.763 L 192.500 143.500 192.757 71.750 L 193.013 0 96.507 0 L 0 0 0 72 M 0.474 72.500 C 0.474 112.100, 0.598 128.154, 0.750 108.176 C 0.901 88.198, 0.901 55.798, 0.750 36.176 C 0.598 16.554, 0.474 32.900, 0.474 72.500" stroke="none" fill="black" fill-rule="evenodd"/>
</svg>