<svg xmlns="http://www.w3.org/2000/svg" width="192" height="144" viewBox="0 0 192 144" version="1.1">
	<path d="M 0 72 L 0 144 13.750 143.996 L 27.500 143.993 24.359 142.077 C 22.632 141.024, 20.933 139.701, 20.585 139.138 C 20.237 138.574, 19.720 133.475, 19.437 127.807 C 19.154 122.138, 18.040 112.865, 16.961 107.199 C 14.602 94.810, 14.467 83.341, 16.538 71.381 C 18.100 62.359, 22.493 48.165, 26.251 40 C 29.186 33.623, 30.132 27.988, 28.380 27.316 C 27.621 27.024, 27 26.159, 27 25.393 C 27 24.627, 26.148 24, 25.107 24 C 24.066 24, 22.941 23.288, 22.607 22.418 C 21.474 19.466, 21.993 8.270, 23.456 4.126 L 24.911 0 12.456 0 L 0 0 0 72 M 147.859 1.330 C 148.513 2.118, 150.195 2.478, 151.993 2.214 C 156.895 1.495, 156.519 0, 151.437 0 C 147.655 0, 146.967 0.256, 147.859 1.330 M 172.412 13.916 C 172.731 21.570, 173.697 31.132, 174.558 35.166 C 176.959 46.416, 176.965 62.515, 174.569 67.838 C 172.671 72.055, 172.618 72.089, 171.395 69.814 L 170.151 67.500 169.026 70.444 C 160.618 92.461, 152.050 104.106, 138 112.617 C 127.377 119.052, 122.120 120.500, 109.380 120.500 C 98.278 120.500, 98.248 120.493, 89.880 116.248 C 83.469 112.995, 80.508 110.766, 77.277 106.761 C 74.955 103.881, 72.782 100.282, 72.448 98.763 C 72.114 97.243, 71.427 96, 70.921 96 C 70.414 96, 70 93.257, 70 89.904 C 70 83.188, 71.844 78.957, 75.661 76.914 C 78.184 75.564, 77.797 75.434, 88 81.057 C 96.823 85.919, 104.275 88.123, 108.702 87.178 C 112.098 86.454, 112.468 86.076, 112.200 83.607 C 112.025 81.991, 112.957 79.042, 114.450 76.495 C 117.493 71.303, 117.680 69.649, 115.132 70.458 C 112.138 71.408, 108.729 69.554, 103.441 64.096 C 99.998 60.544, 96.872 58.429, 93.131 57.122 C 90.160 56.084, 88.374 55.003, 89.131 54.702 C 89.990 54.361, 90.056 54.128, 89.309 54.079 C 88.654 54.036, 87.840 54.450, 87.500 55 C 87.160 55.550, 85.446 56.010, 83.691 56.022 C 76.262 56.073, 66.572 63.026, 62.245 71.410 C 59.951 75.855, 59.617 77.704, 59.616 86 C 59.614 97.323, 61.597 103.297, 68.508 112.796 C 78.186 126.096, 92.062 132.048, 113.506 132.097 C 126.118 132.126, 137.045 129.368, 146.733 123.710 C 148.512 122.672, 150.537 122.017, 151.233 122.255 C 152.590 122.719, 144.281 127.250, 137.571 129.705 C 131.091 132.076, 123.124 133.761, 114.500 134.585 C 107.210 135.281, 106.811 135.427, 110 136.227 C 118.646 138.397, 121.856 138.917, 127 138.980 C 134.153 139.068, 140.157 140.494, 141.583 142.445 C 142.559 143.779, 146.225 144, 167.360 144 L 192 144 192 72 L 192 0 181.916 -0 L 171.832 -0 172.412 13.916 M 107.500 26.627 C 109.700 28.130, 111.650 29.728, 111.833 30.180 C 112.017 30.631, 112.772 31, 113.511 31 C 114.250 31, 115.678 32.013, 116.684 33.250 C 117.690 34.487, 119.298 36.118, 120.257 36.872 C 123.596 39.501, 122.227 35.540, 118.453 31.655 C 114.605 27.693, 111.183 25.669, 106.500 24.588 C 103.620 23.923, 103.661 24.005, 107.500 26.627" stroke="none" fill="black" fill-rule="evenodd"/>
</svg>