<svg xmlns="http://www.w3.org/2000/svg" width="192" height="144" viewBox="0 0 192 144" version="1.1">
	<path d="M 0 72 L 0 144 45.070 144 L 90.139 144 89.820 141.750 C 89.605 140.239, 88.920 139.598, 87.735 139.797 C 86.181 140.059, 82.872 138.710, 78 135.829 C 77.175 135.341, 75.757 134.689, 74.849 134.380 C 71.499 133.240, 71.983 128.929, 76.168 122.627 C 84.036 110.783, 84.487 109.318, 85.282 93.022 C 85.467 89.230, 85.194 88.493, 83.500 88.215 C 82.400 88.034, 80.046 87.138, 78.268 86.225 C 75.728 84.920, 74.775 84.825, 73.818 85.782 C 71.614 87.986, 70.764 87.072, 71.463 83.250 C 72.404 78.097, 74.260 75.528, 80.046 71.372 C 83.959 68.561, 85 67.224, 85 65.011 C 85 63.327, 85.990 61.270, 87.483 59.855 C 88.848 58.560, 89.988 56.375, 90.016 55 L 90.067 52.500 91.944 54.750 C 92.976 55.988, 94.595 57, 95.542 57 C 96.489 57, 98.690 58.512, 100.433 60.360 C 102.994 63.076, 104.646 63.854, 109.051 64.418 C 115.456 65.240, 118.053 66.507, 120.981 70.240 C 123.320 73.223, 122.954 75, 120 75 C 117.437 75, 116.354 77.054, 118.203 78.407 C 119.400 79.281, 118.844 79.544, 115.520 79.672 C 110.073 79.883, 103 81.803, 103 83.071 C 103 83.617, 104.012 84.471, 105.250 84.969 C 106.507 85.474, 106.838 85.894, 106 85.921 C 105.175 85.948, 103.846 85.556, 103.048 85.051 C 101.204 83.885, 99.610 84.803, 100.811 86.339 C 102.221 88.142, 103.091 94, 101.949 94 C 101.399 94, 101.635 95.328, 102.474 96.950 C 103.313 98.573, 104 100.598, 104 101.450 C 104 102.303, 104.675 103, 105.500 103 C 106.325 103, 107 102.235, 107 101.300 C 107 100.034, 107.289 99.889, 108.133 100.733 C 109.817 102.417, 108.391 105.001, 105.781 104.994 C 104.266 104.989, 102.867 103.898, 101.615 101.744 C 100.353 99.571, 99.566 98.962, 99.233 99.898 C 98.515 101.912, 100.808 114.194, 103.638 123.500 C 106.299 132.253, 106.369 136.141, 103.883 137.169 C 102.477 137.750, 102.214 139.336, 102.872 143.260 C 102.943 143.678, 123.138 143.903, 147.750 143.760 L 192.500 143.500 192.757 71.750 L 193.013 0 150.007 0 C 126.353 0, 107.005 0.112, 107.011 0.250 C 107.017 0.388, 107.692 2.709, 108.511 5.409 C 110.294 11.287, 110.428 18.840, 108.843 24.130 C 108.207 26.254, 105.263 30.929, 102.302 34.518 C 99.341 38.108, 96.581 41.957, 96.169 43.073 C 95.528 44.804, 94.387 43.669, 88.350 35.300 C 84.462 29.910, 80.732 24.449, 80.060 23.165 C 78.377 19.947, 78.584 10.399, 80.451 5.124 C 81.303 2.718, 82 0.580, 82 0.374 C 82 0.168, 63.550 0, 41 0 L 0 0 0 72 M 0.474 72.500 C 0.474 112.100, 0.598 128.154, 0.750 108.176 C 0.901 88.198, 0.901 55.798, 0.750 36.176 C 0.598 16.554, 0.474 32.900, 0.474 72.500 M 85 87 C 85 87.550, 85.423 88, 85.941 88 C 86.459 88, 87.160 87.550, 87.500 87 C 87.840 86.450, 87.416 86, 86.559 86 C 85.702 86, 85 86.450, 85 87 M 94.637 139.276 C 92.312 140.976, 93.521 144, 96.524 144 C 99.014 144, 99.943 142.535, 99.221 139.750 C 98.684 137.680, 97.050 137.512, 94.637 139.276" stroke="none" fill="black" fill-rule="evenodd"/>
</svg>