<svg xmlns="http://www.w3.org/2000/svg" width="192" height="144" viewBox="0 0 192 144" version="1.1">
	<path d="M 49.450 33.500 C 49.120 35.150, 48.634 37.271, 48.370 38.212 C 48.099 39.176, 48.788 40.694, 49.945 41.685 C 51.075 42.653, 52 43.983, 52 44.641 C 52 45.299, 52.788 47.245, 53.750 48.964 C 55.398 51.907, 55.400 52.148, 53.792 53.072 C 52.814 53.633, 52.333 54.705, 52.668 55.577 C 52.990 56.416, 52.409 58.091, 51.377 59.301 C 46.641 64.850, 45.746 69.258, 49 71 C 51.347 72.256, 51.609 75.896, 49.634 79.800 C 48.882 81.285, 47.945 84.300, 47.550 86.500 C 47.156 88.700, 46.014 92.975, 45.012 96 C 43.086 101.817, 37 136.036, 37 141.048 L 37 144 56.598 144 L 76.196 144 75.621 138.250 C 75.304 135.088, 74.757 127.550, 74.406 121.500 C 74.051 115.405, 72.709 106.296, 71.395 101.071 C 70.091 95.885, 69.240 91.427, 69.504 91.163 C 69.767 90.900, 69.504 90.107, 68.918 89.401 C 68.146 88.472, 68.424 86.830, 69.927 83.432 C 72.238 78.207, 72.484 75.773, 70.984 72.970 C 70.425 71.925, 69.725 69.009, 69.429 66.490 C 69.132 63.970, 68.015 59.867, 66.945 57.372 C 64.615 51.937, 64.544 51, 66.461 51 C 68.599 51, 72 46.968, 72 44.434 C 72 41.221, 69.539 35.874, 66.603 32.706 C 64.202 30.115, 63.571 29.951, 57.041 30.216 C 50.155 30.496, 50.040 30.545, 49.450 33.500 M 133.040 138.452 C 132.377 139.251, 132.127 140.826, 132.485 141.952 C 133.068 143.790, 133.951 144, 141.099 144 C 149.680 144, 151.179 143.071, 149.042 139.078 C 148.082 137.285, 146.992 137, 141.087 137 C 136.326 137, 133.878 137.442, 133.040 138.452" stroke="none" fill="black" fill-rule="evenodd"/>
</svg>