<svg xmlns="http://www.w3.org/2000/svg" width="192" height="144" viewBox="0 0 192 144" version="1.1">
	<path d="M 41.750 6.689 C 40.788 6.941, 40 7.935, 40 8.899 C 40 10.738, 36.078 15, 34.386 15 C 31.686 15, 31.119 17.358, 33.136 20.192 C 35.764 23.882, 36.092 32.155, 33.804 37.045 C 32.284 40.291, 32.277 40.863, 33.722 43.846 C 34.590 45.638, 36.545 47.748, 38.067 48.535 C 39.862 49.463, 41.083 51.100, 41.544 53.200 C 41.935 54.979, 42.728 57.192, 43.306 58.119 C 44.082 59.362, 43.958 60.420, 42.831 62.152 C 41.991 63.443, 40.731 66.300, 40.033 68.500 C 38.615 72.964, 33.996 80.989, 30.313 85.390 C 26.800 89.586, 27.417 94.128, 31.664 95.338 L 34.828 96.240 34.279 103.870 C 33.977 108.066, 33.343 112.255, 32.869 113.178 C 32.395 114.100, 32.273 115.547, 32.597 116.392 C 32.921 117.237, 32.203 120.886, 31 124.500 C 29.797 128.114, 29.046 131.677, 29.330 132.417 C 29.614 133.158, 32.131 134.312, 34.923 134.982 C 40.505 136.321, 40.981 136.906, 38 138.768 C 36.900 139.455, 36 140.913, 36 142.008 C 36 143.909, 36.688 144, 51.008 144 C 65.767 144, 65.996 143.967, 64.768 142 C 64.081 140.900, 63.225 140, 62.866 140 C 61.315 140, 61.134 136.614, 62.510 133.322 C 64.541 128.462, 64.393 124.727, 62.115 123.304 C 60.478 122.282, 60.209 120.729, 60.074 111.540 C 59.989 105.717, 59.690 100.355, 59.409 99.624 C 59.129 98.893, 60.047 96.137, 61.450 93.499 C 64.417 87.917, 64.574 84.273, 62.392 71.500 C 61.546 66.550, 60.739 60.250, 60.599 57.500 C 60.458 54.750, 59.990 50.970, 59.559 49.100 C 58.851 46.027, 58.955 45.777, 60.638 46.503 C 66.607 49.076, 70.143 45.910, 66.103 41.609 C 64.303 39.693, 64.177 38.992, 65.165 36.375 C 66.656 32.425, 65.582 28.427, 62.484 26.398 C 60.188 24.893, 59.810 24.894, 57.500 26.408 C 54.735 28.220, 54.865 28.584, 54.588 18.224 C 54.515 15.494, 53.834 14.564, 50.500 12.638 C 48.300 11.367, 46.636 9.733, 46.803 9.005 C 47.078 7.802, 45.211 5.887, 44 6.131 C 43.725 6.187, 42.712 6.438, 41.750 6.689 M 116.247 13.676 C 116.607 16.297, 105.748 26, 102.454 26 C 100.122 26, 100.028 26.171, 101.215 28.250 C 101.922 29.488, 102.541 32.525, 102.592 35 C 102.642 37.475, 103.390 41.300, 104.252 43.500 C 105.115 45.700, 105.749 47.570, 105.660 47.656 C 105.572 47.742, 104.150 48.038, 102.500 48.313 C 100.850 48.589, 97.827 49.532, 95.782 50.407 C 89.477 53.108, 85.515 52.542, 82.432 48.500 C 80.964 46.575, 79.254 45.003, 78.631 45.006 C 72.454 45.036, 64.722 50.945, 68.079 53.070 C 68.861 53.565, 71.177 53.976, 73.227 53.985 C 76.190 53.997, 77.314 54.563, 78.714 56.750 C 81.500 61.103, 82.490 61.831, 86.096 62.176 C 90.084 62.558, 91.337 65.417, 87.909 66.314 C 85.993 66.815, 85.788 67.384, 86.259 70.893 C 86.601 73.446, 86.380 75.057, 85.648 75.331 C 84.856 75.627, 84.972 76.258, 86.023 77.368 C 87.418 78.840, 87.756 78.787, 90.023 76.738 C 93.083 73.973, 103.266 73.426, 103.757 76 C 104.103 77.814, 98.530 88.133, 92.447 96.938 C 90.001 100.480, 88 103.906, 88 104.554 C 88 106.866, 92.326 111.167, 97.707 114.204 C 102.687 117.014, 103.113 117.525, 102.461 119.896 C 102.066 121.328, 101.544 126.186, 101.300 130.691 L 100.856 138.881 96.741 140.253 C 94.477 141.008, 92.447 142.159, 92.229 142.813 C 91.934 143.698, 96.179 144, 108.940 144 L 126.046 144 124.587 141.750 C 123.518 140.102, 123.143 136.511, 123.188 128.327 C 123.248 117.256, 123.271 117.149, 125.756 116.525 C 129.148 115.674, 131.926 112.127, 131.967 108.597 C 131.985 107, 130.690 102.921, 129.089 99.533 C 127.488 96.144, 125.855 91.151, 125.459 88.436 C 125.064 85.721, 124.095 82.230, 123.307 80.678 C 122.176 78.451, 122.130 77.548, 123.088 76.394 C 124.041 75.245, 124.029 74.423, 123.031 72.557 C 122.265 71.126, 122.006 68.755, 122.380 66.591 C 124.382 54.996, 123.831 56, 128.193 56 C 133.737 56, 132.667 53.596, 126.939 53.181 C 124.515 53.006, 122.239 52.387, 121.881 51.807 C 121.522 51.227, 122.302 49.170, 123.614 47.236 C 124.926 45.303, 126.037 43.221, 126.083 42.610 C 126.129 42, 126.292 40.375, 126.446 39 C 126.599 37.625, 126.400 35.606, 126.003 34.512 C 125.605 33.419, 125.779 31.673, 126.390 30.632 C 127.216 29.223, 127.199 28.629, 126.324 28.311 C 123.914 27.434, 119.561 20.448, 119.039 16.622 C 118.743 14.444, 117.936 12.476, 117.247 12.247 C 116.496 11.998, 116.095 12.570, 116.247 13.676 M 40.697 106.750 C 38.864 114.953, 38.645 118.074, 39.641 121.792 C 40.201 123.882, 40.663 124.032, 44.878 123.488 C 55.172 122.159, 54.370 123.224, 53.590 111.900 C 53.212 106.405, 52.651 101.254, 52.344 100.454 C 51.966 99.469, 50.278 99, 47.107 99 L 42.429 99 40.697 106.750 M 110.090 122.250 C 107.984 129.901, 107.134 137.418, 108.223 138.750 C 108.785 139.438, 110.500 140, 112.035 140 C 114.504 140, 114.901 139.546, 115.491 136.053 C 116.171 132.031, 113.453 118, 111.995 118 C 111.591 118, 110.734 119.912, 110.090 122.250" stroke="none" fill="black" fill-rule="evenodd"/>
</svg>