<svg xmlns="http://www.w3.org/2000/svg" width="192" height="144" viewBox="0 0 192 144" version="1.1">
	<path d="M 0 57 L 0 114 4 114 C 8.380 114, 8.048 114.691, 8.360 104.900 C 8.510 100.180, 10.212 97, 12.587 97 C 14.336 97, 16.154 93.565, 15.419 91.649 C 15.072 90.746, 15.680 89.706, 16.954 89.024 C 18.114 88.404, 18.937 87.274, 18.782 86.513 C 18.627 85.753, 18.950 85.171, 19.500 85.219 C 20.050 85.267, 20.369 86.082, 20.208 87.030 C 20.047 87.978, 20.610 89.020, 21.458 89.346 C 22.374 89.697, 23 91.157, 23 92.943 C 23 95.250, 23.676 96.298, 25.910 97.453 C 29.546 99.334, 29.769 100.008, 29.396 108 C 29.155 113.177, 29.246 113.686, 29.843 110.500 C 30.255 108.300, 31.438 105.221, 32.472 103.657 L 34.352 100.815 36.179 103.157 C 37.184 104.446, 38.267 106.625, 38.586 108 C 38.906 109.375, 39.340 111.063, 39.552 111.750 C 39.832 112.659, 43.200 113, 51.892 113 C 63.185 113, 64.011 113.138, 66.818 115.500 C 68.452 116.875, 70.079 118, 70.434 118 C 70.790 118, 70.974 114.906, 70.844 111.124 C 70.662 105.843, 71.034 103.597, 72.447 101.441 L 74.286 98.634 76.143 100.928 C 77.817 102.995, 78 105.234, 78 123.611 L 78 144 134.840 144 L 191.681 144 192.338 120.750 C 192.700 107.963, 192.996 75.563, 192.998 48.750 L 193 0 96.500 0 L 0 0 0 57 M 0.468 57.500 C 0.468 88.850, 0.595 101.530, 0.750 85.679 C 0.904 69.827, 0.904 44.177, 0.749 28.679 C 0.594 13.180, 0.468 26.150, 0.468 57.500 M 119.999 37.001 C 117.562 39.752, 114.766 42.257, 113.784 42.568 C 110.718 43.542, 111.764 45.211, 114.995 44.501 C 117.623 43.924, 118.120 44.185, 119.050 46.633 C 119.634 48.167, 119.789 50.564, 119.397 51.961 C 118.432 55.390, 118.875 58.152, 120.723 60.223 C 123.836 63.710, 118.864 72.874, 113.809 72.968 C 112.879 72.986, 111.840 73.449, 111.501 73.998 C 110.765 75.190, 113.400 79.267, 114.315 78.352 C 114.664 78.003, 115.862 78.793, 116.977 80.108 C 118.499 81.904, 118.843 82.039, 118.357 80.651 C 117.778 78.997, 117.930 78.940, 119.798 80.106 C 120.946 80.823, 122.145 82.443, 122.462 83.705 C 123.307 87.071, 125.733 86.503, 126.538 82.750 C 126.922 80.963, 127.435 79.161, 127.678 78.747 C 128.359 77.592, 132 79.886, 132 81.470 C 132 87.243, 136.169 89.448, 137.448 84.351 L 138.076 81.848 141.538 83.890 C 144.358 85.553, 145 85.656, 145 84.443 C 145 83.332, 145.895 83.051, 148.515 83.340 C 151.543 83.674, 152.114 83.396, 152.631 81.333 C 153.108 79.432, 153.670 79.078, 155.358 79.614 C 157.080 80.160, 157.275 80.023, 156.383 78.894 C 154.740 76.815, 153.830 71, 155.147 71 C 155.936 71, 155.931 70.622, 155.131 69.658 C 154.519 68.920, 154.313 68.020, 154.675 67.658 C 155.037 67.296, 154.808 67, 154.167 67 C 152.649 67, 148.991 63.342, 149.750 62.583 C 150.071 62.262, 147.528 62, 144.099 62 C 137.381 62, 137.516 62.179, 139.744 56.250 C 140.364 54.601, 138.115 54.719, 135 56.500 C 131.529 58.484, 131 58.357, 131 55.535 C 131 53.249, 134.325 50.242, 136.250 50.788 C 137.268 51.076, 137.192 50.228, 136.001 48.001 C 135.203 46.510, 135.404 46.007, 137.001 45.500 C 140.137 44.504, 139.360 43.174, 134.948 41.986 C 131.115 40.954, 128.473 37.791, 129.704 35.706 C 130.414 34.503, 127.976 32, 126.092 32 C 125.178 32, 122.436 34.250, 119.999 37.001" stroke="none" fill="black" fill-rule="evenodd"/>
</svg>