<svg xmlns="http://www.w3.org/2000/svg" width="192" height="144" viewBox="0 0 192 144" version="1.1">
	<path d="M 0 35.291 L 0 70.583 6.912 72.205 C 10.713 73.097, 16.588 75.096, 19.967 76.647 C 24.815 78.872, 26.010 79.855, 25.631 81.304 C 25.367 82.314, 26.017 84.609, 27.076 86.404 C 29.517 90.541, 29.692 96.178, 27.569 102.270 C 25.643 107.798, 26.115 109.159, 29.825 108.776 C 32.279 108.523, 32.527 108.829, 32.825 112.487 C 33.003 114.680, 33.605 117.024, 34.163 117.696 C 34.721 118.369, 34.873 120.304, 34.500 122 C 34.128 123.695, 34.251 125.626, 34.773 126.291 C 35.296 126.956, 36.014 129.725, 36.369 132.445 C 36.971 137.055, 36.799 137.612, 33.811 140.695 L 30.608 144 61.104 144 C 78.340 144, 92.013 143.599, 92.550 143.079 C 94.012 141.661, 109.338 134.027, 110.750 134.013 C 111.438 134.006, 112 133.558, 112 133.017 C 112 131.414, 121.710 126.951, 123.610 127.681 C 124.738 128.113, 125.091 127.956, 124.638 127.224 C 123.920 126.061, 130.633 123.655, 132.087 124.554 C 132.513 124.817, 133.123 124.611, 133.441 124.095 C 134.648 122.142, 146.319 121.746, 152.207 123.458 C 160.930 125.994, 165.368 129.981, 169.205 138.733 L 171.500 143.966 181.750 143.983 L 192 144 192 124.665 C 192 114.030, 192.299 81.630, 192.664 52.665 L 193.327 0 96.664 0 L 0 0 0 35.291 M 0.451 36 C 0.451 55.525, 0.585 63.513, 0.748 53.750 C 0.912 43.988, 0.912 28.013, 0.748 18.250 C 0.585 8.488, 0.451 16.475, 0.451 36" stroke="none" fill="black" fill-rule="evenodd"/>
</svg>