<svg xmlns="http://www.w3.org/2000/svg" width="192" height="144" viewBox="0 0 192 144" version="1.1">
	<path d="M 0 72 L 0 144 47.108 144 L 94.217 144 93.473 141.250 C 93.064 139.738, 92.650 137.722, 92.552 136.770 C 92.454 135.819, 92.087 134.753, 91.736 134.402 C 91.385 134.051, 91.345 132.525, 91.648 131.010 C 92.059 128.954, 91.414 127.174, 89.099 123.978 C 87.395 121.625, 86 118.454, 86 116.932 C 86 112.860, 85.026 111, 82.893 111 C 81.667 111, 81 111.704, 81 113 C 81 114.100, 80.646 115, 80.213 115 C 79.780 115, 79.352 116.012, 79.261 117.250 C 79.171 118.487, 77.950 120.491, 76.548 121.702 C 74.533 123.443, 74 124.830, 74 128.327 C 74 134.725, 73.059 138.482, 71.160 139.668 C 69.991 140.398, 66.523 140.297, 59.498 139.327 C 53.999 138.568, 46.350 137.515, 42.500 136.985 C 37.220 136.260, 35.048 135.475, 33.661 133.791 C 32.250 132.078, 32.130 131.457, 33.143 131.119 C 36.545 129.985, 37 128.145, 37 115.514 C 37 108.568, 37.446 99.874, 37.990 96.193 C 38.535 92.512, 39.680 84.550, 40.535 78.500 C 42.197 66.739, 43.838 57.969, 47.109 43.352 C 48.907 35.324, 49.759 33.458, 54.079 28.097 C 56.785 24.738, 59 21.510, 59 20.924 C 59 19.102, 56.129 16.875, 52.487 15.869 C 50.569 15.339, 49 14.488, 49 13.976 C 49 12.528, 53.132 10.289, 57.076 9.600 C 59.043 9.256, 61.513 8.346, 62.564 7.577 C 64.350 6.271, 64.230 6.134, 60.737 5.479 C 58.682 5.093, 57 4.377, 57 3.889 C 57 3.400, 56.663 3.049, 56.250 3.108 C 54.739 3.326, 51 1.741, 51 0.883 C 51 0.395, 39.589 0, 25.500 0 L 0 0 0 72 M 80.712 3.772 C 77.529 5.726, 75.279 7.641, 75.712 8.027 C 76.146 8.414, 79.425 9.285, 83 9.964 C 91.745 11.623, 93.463 13.980, 87.500 16.136 C 83.639 17.532, 82.721 20.855, 85.547 23.211 C 97.673 33.318, 100.736 42.413, 95.436 52.581 C 94.025 55.286, 91.367 61.888, 89.529 67.250 L 86.187 77 88.643 77 C 91.565 77, 96.656 79.467, 97.219 81.156 C 97.848 83.043, 99.841 81.234, 102.149 76.682 C 103.315 74.382, 104.598 72.275, 105 72 C 106.399 71.044, 110 63.066, 110 60.924 C 110 57.885, 116.651 44.037, 119.153 41.867 C 120.980 40.283, 121.153 39.380, 120.552 34.568 C 119.728 27.973, 120.758 20, 122.435 20 C 123.181 20, 123.727 21.845, 123.863 24.833 C 123.984 27.491, 124.434 30.979, 124.863 32.583 C 125.625 35.434, 125.803 35.504, 132.748 35.687 C 142.375 35.940, 145.379 37.558, 151.599 45.843 C 152.527 47.080, 153.185 46.841, 155.849 44.295 C 157.582 42.639, 159 40.770, 159 40.142 C 159 39.514, 159.450 39, 160 39 C 161.762 39, 161.071 34.020, 158.750 29.985 C 156.626 26.292, 156.596 25.978, 158.213 24.359 C 159.629 22.942, 160.365 22.845, 162.463 23.801 C 164.429 24.697, 165.003 24.681, 165.015 23.729 C 165.026 22.838, 165.263 22.867, 165.877 23.835 C 166.520 24.849, 166.853 24.669, 167.268 23.085 C 168.062 20.048, 170.726 20.526, 174.600 24.400 C 178.585 28.385, 178.821 29.735, 175.750 30.969 C 174.423 31.502, 174.115 31.912, 175 31.967 C 176.141 32.038, 176.053 32.320, 174.631 33.147 C 173.085 34.045, 172.377 33.752, 170.548 31.458 C 168.633 29.056, 168.247 28.913, 167.679 30.393 C 167.290 31.408, 167.425 31.855, 168.011 31.493 C 168.555 31.157, 169 31.359, 169 31.941 C 169 32.523, 168.550 33, 168 33 C 167.450 33, 167 33.733, 167 34.628 C 167 36.729, 161.138 47, 159.939 47 C 157.967 47, 154.241 54.643, 154.183 58.806 C 154.114 63.835, 151.835 72.742, 144.922 95 C 141.864 104.848, 139.470 114.725, 138.983 119.500 C 138.535 123.900, 137.231 130.157, 136.084 133.405 C 134.938 136.653, 134 140.366, 134 141.655 L 134 144 163 144 L 192 144 192 72 L 192 0 139.250 0.109 L 86.500 0.218 80.712 3.772" stroke="none" fill="black" fill-rule="evenodd"/>
</svg>