<svg xmlns="http://www.w3.org/2000/svg" width="192" height="144" viewBox="0 0 192 144" version="1.1">
	<path d="M 63.426 8.750 C 63.302 23.436, 58.088 35.981, 48.321 45.089 C 42.992 50.060, 34.136 55.458, 29.500 56.561 C 27.850 56.954, 25.907 57.744, 25.182 58.317 C 23.671 59.510, 4.386 59.703, 1.750 58.551 C 0.099 57.829, 0 60.214, 0 100.893 L 0 144 52.439 144 L 104.877 144 105.519 139.250 C 105.872 136.638, 107.720 129.550, 109.625 123.500 C 111.530 117.450, 114.115 106.875, 115.369 100 C 117.939 85.913, 117.537 81.154, 113.455 77.371 C 110.774 74.886, 110.420 72.952, 112.081 69.849 C 113.611 66.990, 112.911 66.767, 107.921 68.528 C 103.897 69.948, 103.429 69.939, 102.325 68.429 C 101.541 67.357, 98.740 66.495, 94.310 65.962 C 90.564 65.511, 84.125 64.393, 80 63.478 C 75.875 62.562, 70.700 61.742, 68.500 61.656 C 65.219 61.528, 64.500 61.141, 64.500 59.500 C 64.500 57.744, 65.109 57.521, 69.500 57.673 C 72.250 57.768, 79.225 58.535, 85 59.378 C 95.286 60.879, 99 60.769, 99 58.964 C 99 58.468, 99.675 58.322, 100.500 58.638 C 101.325 58.955, 102 58.753, 102 58.190 C 102 57.562, 105.145 57.231, 110.138 57.333 C 117.193 57.478, 118.312 57.267, 118.549 55.750 C 118.700 54.788, 118.285 54, 117.627 54 C 116.089 54, 113.126 48.887, 113.716 47.250 C 113.964 46.563, 113.443 46, 112.559 46 C 110.202 46, 108.793 41.548, 110.184 38.496 C 111.037 36.623, 111.031 35.364, 110.161 33.453 C 107.325 27.229, 108.705 26.853, 120.674 30.583 C 130.041 33.502, 133.548 36.599, 134.484 42.779 C 134.794 44.826, 135.560 47.850, 136.186 49.500 C 136.813 51.150, 137.522 55.190, 137.763 58.478 C 138.101 63.099, 138.729 64.946, 140.527 66.612 C 142.339 68.292, 142.783 69.621, 142.539 72.634 C 142.366 74.760, 142.787 77.625, 143.474 79 C 144.161 80.375, 145.020 86, 145.384 91.500 C 145.747 97, 146.294 103.346, 146.598 105.602 C 147 108.575, 146.718 110.139, 145.576 111.281 C 144.709 112.148, 144 113.369, 144 113.995 C 144 114.621, 146.244 120.191, 148.986 126.374 C 151.729 132.556, 154.262 139.060, 154.616 140.829 L 155.259 144.043 173.879 143.772 L 192.500 143.500 192.825 129 C 193.003 121.025, 192.837 88.737, 192.455 57.250 L 191.761 0 127.630 0 L 63.500 0 63.426 8.750 M 0.459 101 C 0.459 124.925, 0.589 134.713, 0.749 122.750 C 0.908 110.788, 0.908 91.213, 0.749 79.250 C 0.589 67.288, 0.459 77.075, 0.459 101" stroke="none" fill="black" fill-rule="evenodd"/>
</svg>