<svg xmlns="http://www.w3.org/2000/svg" width="192" height="144" viewBox="0 0 192 144" version="1.1">
	<path d="M 0 72 L 0 144 25.500 144 L 51 144 51 72 L 51 0 25.500 0 L 0 0 0 72 M 80.260 1.250 C 77.578 4.655, 77.978 7.862, 82.044 15.584 C 88.931 28.659, 91 34.688, 91 41.672 L 91 48 80.122 48 C 68.090 48, 67.394 48.319, 66.006 54.472 C 65.072 58.614, 66.093 59.033, 68.431 55.466 C 70.050 52.994, 70.342 52.938, 80.214 53.216 C 87.213 53.412, 90.466 53.886, 90.752 54.750 C 91.021 55.561, 90.131 56, 88.218 56 C 86.597 56, 84.067 56.946, 82.597 58.102 C 79.323 60.678, 80.154 62.023, 86.521 64.455 C 90.544 65.991, 91.130 66.630, 92.118 70.555 C 94.126 78.530, 98.091 78.990, 100.667 71.547 C 102.508 66.230, 103.452 65.343, 108.057 64.607 C 113.007 63.815, 114.248 61.429, 111.056 58.844 C 109.803 57.830, 107.895 57, 106.816 57 C 105.492 57, 104.962 56.436, 105.187 55.265 C 105.557 53.345, 110.384 52.154, 118.182 52.058 C 122.330 52.007, 123.121 52.362, 125.124 55.174 C 127.873 59.035, 128.437 57.946, 126.733 52.064 L 125.457 47.656 115.979 47.578 L 106.500 47.500 106.510 44.250 C 106.515 42.463, 106.159 41, 105.718 41 C 105.277 41, 104.021 40.166, 102.927 39.147 C 100.947 37.302, 100.954 37.260, 104.267 30.397 C 106.098 26.603, 109.765 20.256, 112.417 16.292 C 116.769 9.784, 117.169 8.715, 116.527 5.294 C 116.136 3.210, 115.295 1.173, 114.658 0.768 C 112.546 -0.576, 81.354 -0.139, 80.260 1.250 M 142 72 L 142 144 167 144 L 192 144 192 72 L 192 0 167 0 L 142 0 142 72" stroke="none" fill="black" fill-rule="evenodd"/>
</svg>