<svg xmlns="http://www.w3.org/2000/svg" width="192" height="144" viewBox="0 0 192 144" version="1.1">
	<path d="M 102.983 11.520 C 102.300 12.344, 100.033 13.291, 97.946 13.625 C 95.253 14.055, 94.307 14.637, 94.688 15.628 C 94.983 16.397, 94.673 17.689, 94 18.500 C 93.277 19.372, 93.047 21.050, 93.438 22.608 C 94.057 25.074, 93.924 25.198, 91.361 24.555 C 89.855 24.177, 88.061 23.110, 87.373 22.184 C 86.301 20.741, 85.813 20.689, 83.965 21.818 C 82.140 22.934, 81.542 22.896, 80.075 21.568 C 77.869 19.572, 76.377 19.576, 75.607 21.582 C 73.865 26.122, 76.389 29.582, 79.537 26.969 C 81.770 25.116, 82.279 26.332, 81.078 30.656 C 79.276 37.147, 79.402 37.337, 85.028 36.591 L 90.056 35.924 89.712 39.212 C 89.524 41.020, 89.651 43.625, 89.995 45 C 90.704 47.828, 87.186 57.851, 83.926 62.294 C 80.765 66.601, 81.684 70.025, 86.750 72.812 C 90.843 75.064, 91 75.329, 91 79.993 C 91 82.657, 91.273 85.548, 91.607 86.418 C 92.078 87.646, 91.537 88, 89.189 88 C 84.946 88, 83 88.928, 83 90.952 C 83 93.068, 86.061 96, 88.270 96 C 91.652 96, 90.932 98.043, 86.995 99.619 C 84.267 100.710, 83.074 101.722, 83.443 102.631 C 83.750 103.384, 84.273 104.675, 84.607 105.500 C 85.029 106.543, 84.590 107, 83.166 107 C 80.603 107, 79.356 108.816, 81.385 109.594 C 82.216 109.913, 83.932 109.209, 85.198 108.029 C 86.772 106.563, 88.607 105.945, 91 106.078 C 92.925 106.185, 95.625 105.824, 97 105.276 C 98.375 104.728, 101.142 103.980, 103.150 103.613 C 107.895 102.747, 109.643 100.706, 108.253 97.656 C 107.571 96.158, 107.547 94.775, 108.183 93.637 C 108.835 92.473, 108.643 88.546, 107.601 81.701 C 106.746 76.090, 106.141 70.825, 106.256 70 C 106.490 68.328, 103.284 53.783, 101.893 50.203 C 100.419 46.412, 100.799 40.014, 102.537 39.347 C 103.382 39.023, 104.793 37.366, 105.673 35.666 C 107.083 32.940, 107.095 32.463, 105.781 31.634 C 104.568 30.869, 104.481 29.930, 105.310 26.597 C 105.871 24.344, 106.748 22.222, 107.259 21.883 C 107.794 21.527, 107.490 19.915, 106.543 18.083 C 105.638 16.332, 105.163 14.060, 105.489 13.034 C 106.259 10.607, 104.582 9.594, 102.983 11.520 M 39 16.427 C 39 18.660, 35.767 22.188, 32.700 23.303 C 31.775 23.639, 31.787 24.224, 32.750 25.856 C 33.438 27.020, 34 28.893, 34 30.018 C 34 31.143, 34.640 32.308, 35.423 32.609 C 37.876 33.550, 38 35.796, 35.954 42.248 C 34.347 47.321, 33.248 48.997, 30.131 51.138 C 24.534 54.980, 19.118 55.667, 15.687 52.968 C 13.444 51.204, 12.226 50.954, 8.734 51.540 C 1.084 52.824, -0.163 53.639, 0.187 57.128 C 0.456 59.815, 1.419 60.783, 7 63.971 C 10.575 66.014, 17.884 70.231, 23.241 73.342 C 28.599 76.454, 34.103 79, 35.472 79 C 37.834 79, 37.931 79.223, 37.367 83.340 C 36.789 87.553, 36.907 87.790, 41.427 91.494 L 46.082 95.308 42.541 98.227 C 40.322 100.056, 39 102.022, 39 103.491 C 39 105.491, 38.036 106.158, 32.466 108.011 C 25.375 110.371, 26.366 110.562, 19.428 105.503 C 17.534 104.122, 16.697 104.261, 9.678 107.119 C 5.455 108.839, 2 110.577, 2 110.980 C 2 111.384, 9.945 118.836, 19.656 127.541 L 37.313 143.368 44.406 139.537 C 52.372 135.234, 54 134.115, 54 132.941 C 54 132.494, 50.323 129.286, 45.828 125.814 L 37.657 119.500 42.578 118.956 C 45.285 118.656, 49.008 117.608, 50.852 116.627 C 53.707 115.108, 54.140 114.410, 53.775 111.920 C 53.485 109.947, 53.940 108.460, 55.173 107.343 C 57.642 105.109, 57.473 101.377, 54.750 97.993 C 47.640 89.156, 45 84.665, 45 81.404 C 45 80.653, 46.237 79.743, 47.750 79.383 C 52.059 78.357, 56 75.731, 56 73.886 C 56 72.961, 53.985 68.179, 51.523 63.260 C 47.220 54.664, 47.069 54.063, 47.654 47.798 C 48.076 43.282, 47.900 41.057, 47.082 40.551 C 46.261 40.043, 46.665 39.113, 48.406 37.499 C 50.661 35.409, 50.803 34.845, 49.822 31.839 C 49.223 30.002, 48.776 27.245, 48.829 25.711 C 48.902 23.619, 48.309 22.688, 46.457 21.984 C 45.100 21.468, 43.233 19.460, 42.309 17.523 C 40.355 13.423, 39 12.975, 39 16.427 M 166.042 16 C 165.935 16.275, 165.697 17.279, 165.515 18.232 C 165.028 20.770, 160.799 25.728, 158.586 26.356 C 157.178 26.755, 156.942 27.243, 157.697 28.199 C 159.318 30.255, 158.576 40.707, 156.658 42.826 C 155.746 43.833, 154.990 45.297, 154.978 46.079 C 154.966 46.860, 154.076 48.625, 153 50 C 150.627 53.034, 150.561 53.857, 152.519 56.021 C 153.875 57.520, 153.876 58.009, 152.525 60.599 C 151.693 62.195, 151.010 64.424, 151.006 65.554 C 151.003 66.683, 149.830 69.955, 148.401 72.824 C 146.971 75.692, 146.060 78.715, 146.377 79.540 C 146.693 80.364, 148.538 81.975, 150.476 83.118 C 152.414 84.262, 154 85.333, 154 85.498 C 154 85.664, 152.425 88.139, 150.500 91 C 148.559 93.885, 147 97.456, 147 99.019 C 147 100.568, 146.755 102.476, 146.455 103.257 C 146.127 104.111, 148.025 106.772, 151.205 109.919 C 156.267 114.929, 156.415 115.222, 154.559 116.580 C 153.491 117.361, 151.830 118, 150.868 118 C 147.345 118, 147.783 120.322, 152.110 124.585 C 156.118 128.533, 159.672 129.995, 161.301 128.365 C 161.650 128.016, 159.925 126.399, 157.468 124.771 C 153.100 121.878, 152.440 120, 155.790 120 C 157.514 120, 165.260 122.787, 172.793 126.118 C 175.339 127.243, 178.073 127.769, 179.509 127.408 C 181.154 126.996, 182.788 127.474, 184.600 128.900 C 186.068 130.055, 188.447 130.980, 189.885 130.955 C 192.351 130.912, 192.200 130.636, 187.246 126.121 C 184.356 123.488, 180.756 120.697, 179.246 119.920 C 177.736 119.142, 174.387 117.018, 171.805 115.198 C 167.153 111.922, 167.127 111.873, 169.055 109.945 C 170.125 108.875, 171 107.550, 171 107 C 171 105.680, 167.287 102, 165.955 102 C 164.680 102, 165.340 95.102, 166.892 92.202 C 167.492 91.081, 167.708 88.792, 167.373 87.117 C 166.898 84.740, 167.333 83.393, 169.349 80.997 C 172.305 77.485, 172.197 75.646, 168.419 65.079 C 166.140 58.703, 166.138 58.640, 168.062 56.194 C 169.128 54.839, 170 52.666, 170 51.365 C 170 48.212, 171.535 48.384, 175.653 52 C 179.509 55.386, 179.900 55.449, 186.924 53.828 C 191.236 52.833, 192 52.306, 192 50.328 C 192 48.443, 191.465 48, 189.191 48 C 187.646 48, 185.509 47.332, 184.441 46.516 C 183.374 45.700, 180.813 44.558, 178.750 43.978 C 176.688 43.398, 175 42.456, 175 41.885 C 175 41.315, 177.051 38.182, 179.558 34.924 C 185.300 27.462, 183.822 27.151, 177.544 34.500 C 172.359 40.569, 168.165 42.386, 172.101 36.858 C 173.332 35.130, 174.432 32.542, 174.545 31.108 C 174.659 29.674, 175.110 27.639, 175.546 26.586 C 176.113 25.220, 175.999 24.883, 175.149 25.408 C 173.477 26.441, 167.635 21.301, 166.868 18.120 C 166.521 16.679, 166.149 15.725, 166.042 16 M 88.813 26.683 C 89.534 26.972, 90.397 26.936, 90.729 26.604 C 91.061 26.272, 90.471 26.036, 89.417 26.079 C 88.252 26.127, 88.015 26.364, 88.813 26.683 M 30.711 55.721 C 26.681 58.488, 26.954 60.772, 31.177 59.620 C 34.819 58.626, 37.107 56.443, 36.410 54.627 C 35.608 52.536, 35.251 52.604, 30.711 55.721 M 95.213 81.408 C 95.430 86.628, 95.866 88.371, 97 88.543 C 103.904 89.587, 103.479 89.787, 103.803 85.344 C 103.969 83.059, 103.437 79.587, 102.619 77.630 C 101.328 74.541, 100.721 74.099, 98.029 74.285 L 94.927 74.500 95.213 81.408 M 159 86.629 C 159 87.525, 157.425 90.001, 155.500 92.132 C 151.743 96.290, 151.469 97.139, 152.971 99.945 C 153.736 101.376, 154.635 101.618, 157.220 101.089 C 160.349 100.449, 160.551 100.126, 161.644 94.017 C 162.274 90.496, 162.564 87.027, 162.288 86.308 C 161.570 84.438, 159 84.689, 159 86.629 M 87.543 101.931 C 87.226 102.443, 87.417 103.140, 87.967 103.479 C 89.409 104.371, 96.087 102.949, 95.432 101.890 C 94.703 100.710, 88.277 100.743, 87.543 101.931 M 33 110.144 L 28.500 112.148 31.306 114.574 C 32.849 115.908, 34.689 117, 35.395 117 C 36.870 117, 39 112.836, 39 109.953 C 39 107.594, 38.709 107.603, 33 110.144" stroke="none" fill="black" fill-rule="evenodd"/>
</svg>