<svg xmlns="http://www.w3.org/2000/svg" width="192" height="144" viewBox="0 0 192 144" version="1.1">
	<path d="M 0 72 L 0 144 41.250 143.999 L 82.500 143.998 82.583 128.249 C 82.628 119.587, 83.211 108.450, 83.878 103.500 C 84.545 98.550, 85.166 90.820, 85.259 86.323 C 85.351 81.825, 85.812 78.384, 86.284 78.676 C 86.756 78.967, 86.998 77.697, 86.821 75.853 C 86.595 73.489, 86.058 72.598, 85 72.833 C 84.175 73.017, 83.802 72.865, 84.170 72.496 C 84.539 72.128, 84.165 69.550, 83.338 66.767 C 81.585 60.865, 82.534 55.378, 86.559 48.138 L 88.985 43.776 86.492 41.815 C 85.122 40.737, 84 39.213, 84 38.427 C 84 37.642, 83.170 37, 82.155 37 C 77.283 37, 75.369 29.344, 79.065 24.645 C 80.201 23.201, 80.837 21.545, 80.479 20.966 C 80.121 20.386, 80.370 19.259, 81.032 18.462 C 81.694 17.664, 81.991 16.073, 81.691 14.926 C 81.302 13.440, 81.537 12.992, 82.511 13.366 C 83.341 13.684, 83.998 13.100, 84.188 11.874 C 84.473 10.035, 84.859 10.167, 88.590 13.370 C 90.839 15.301, 93.872 17.181, 95.329 17.546 C 99.572 18.611, 103.547 24.134, 106.541 33.124 C 108.064 37.697, 110.504 43.477, 111.963 45.969 C 116.645 53.967, 118 58.599, 118 66.613 C 118 72.670, 117.600 74.693, 116 76.727 C 114.900 78.126, 114 79.806, 114 80.461 C 114 81.115, 112.838 82.742, 111.419 84.076 L 108.837 86.500 109.584 83.500 C 110.258 80.797, 110.169 80.634, 108.687 81.855 C 107.460 82.866, 107.293 83.679, 108.032 85.059 C 109.356 87.534, 109.945 94.528, 110.931 119.500 C 111.387 131.050, 112.089 141.293, 112.491 142.261 C 113.175 143.908, 115.814 144.006, 152.861 143.761 L 192.500 143.500 192.757 71.750 L 193.013 0 96.507 0 L 0 0 0 72 M 0.474 72.500 C 0.474 112.100, 0.598 128.154, 0.750 108.176 C 0.901 88.198, 0.901 55.798, 0.750 36.176 C 0.598 16.554, 0.474 32.900, 0.474 72.500" stroke="none" fill="black" fill-rule="evenodd"/>
</svg>