<svg xmlns="http://www.w3.org/2000/svg" width="192" height="144" viewBox="0 0 192 144" version="1.1">
	<path d="M 0 72 L 0 144 34.750 143.776 C 53.863 143.653, 61.916 143.417, 52.648 143.251 L 35.796 142.951 36.455 140.322 C 37.163 137.502, 41.323 131.023, 46.670 124.411 L 49.978 120.321 49.378 83.911 C 48.736 44.922, 48.964 42.279, 53.556 35.513 C 57.081 30.318, 56.562 26.843, 52.044 25.383 C 46.093 23.460, 46.943 21.658, 55.250 18.589 C 57.862 17.624, 60 16.504, 60 16.100 C 60 15.696, 57.577 14.602, 54.617 13.668 C 45.684 10.852, 40 5.027, 47.571 6.447 C 49.535 6.816, 51.838 7.384, 52.688 7.711 C 53.849 8.156, 53.645 7.271, 51.867 4.160 L 49.500 0.015 24.750 0.008 L 0 0 0 72 M 58.680 4.405 C 60.781 6.827, 62.670 8.645, 62.877 8.444 C 63.084 8.244, 63.586 6.261, 63.993 4.040 L 64.731 0 59.796 0 L 54.860 0 58.680 4.405 M 69.547 3.602 C 69.175 5.583, 69.023 7.356, 69.209 7.542 C 69.394 7.728, 71.516 6.557, 73.924 4.940 C 76.331 3.323, 78.683 2, 79.150 2 C 82.211 2, 76.784 9.437, 71 13.169 C 69.625 14.056, 68.761 15.055, 69.081 15.388 C 69.401 15.722, 72.438 16.285, 75.831 16.640 C 82.480 17.335, 84.094 19.253, 79.500 21 C 75.094 22.675, 76.153 26.735, 82.432 32.242 C 88.838 37.859, 90.469 41.844, 89.643 49.856 C 89.323 52.960, 88.968 56.400, 88.853 57.500 C 88.738 58.600, 88.724 62.979, 88.822 67.231 L 89 74.962 93.518 74.342 C 97.034 73.860, 98.466 74.111, 99.971 75.474 C 101.829 77.155, 101.924 77.131, 102.380 74.862 C 104.024 66.673, 104.975 59.395, 105.415 51.648 C 105.808 44.720, 106.436 41.918, 108.306 38.751 C 110.609 34.851, 110.642 34.526, 109.212 29.649 C 107.993 25.488, 107.936 23.469, 108.895 18.266 C 110.098 11.738, 112.772 5, 114.160 5 C 114.595 5, 114.461 6.237, 113.862 7.750 C 112.448 11.325, 112.458 25.700, 113.878 29.290 C 114.759 31.518, 115.336 31.897, 116.741 31.172 C 122.995 27.942, 131.887 29.206, 137.483 34.120 C 139.385 35.789, 141.434 36.850, 142.036 36.478 C 142.639 36.105, 144.477 33.944, 146.120 31.676 C 148.565 28.300, 148.857 27.365, 147.729 26.526 C 146.970 25.962, 145.519 24.224, 144.504 22.665 C 142.939 20.261, 142.875 19.686, 144.079 18.886 C 144.861 18.367, 146.741 18.103, 148.258 18.299 C 151.090 18.666, 151.621 17.728, 153.242 9.500 C 153.459 8.400, 153.988 9.879, 154.417 12.786 C 155.070 17.207, 155.486 17.981, 156.959 17.513 C 157.948 17.199, 159.770 17.816, 161.111 18.918 L 163.500 20.883 160.699 23.691 C 158.141 26.256, 157.810 26.348, 156.899 24.750 C 156.350 23.788, 155.473 23, 154.950 23 C 154.428 23, 153.990 23.788, 153.978 24.750 C 153.942 27.636, 150.477 34.387, 147 38.347 C 144.033 41.727, 143.793 42.476, 144.360 46.606 C 144.966 51.032, 142.876 79.427, 141.055 91.484 C 140.556 94.793, 139.844 103.367, 139.474 110.537 L 138.801 123.575 141.650 126.583 C 143.671 128.716, 147.093 130.411, 153.414 132.408 C 160.522 134.655, 163.277 136.114, 167.017 139.613 L 171.707 144 181.854 144 L 192 144 192 72 L 192 0 131.111 -0 L 70.223 -0 69.547 3.602 M 93.173 101.684 C 92.528 102.886, 92 104.737, 92 105.799 C 92 106.861, 91.041 108.950, 89.869 110.440 C 88.010 112.803, 87.748 114.389, 87.822 122.825 C 87.901 131.866, 87.814 132.303, 86.498 129.500 C 85.104 126.529, 85.089 126.557, 84.975 132.500 L 84.859 138.500 83.418 134.500 C 80.875 127.444, 80.692 127.358, 79.933 132.853 C 78.889 140.411, 77 141.922, 77 135.200 C 77 132.340, 76.586 130, 76.079 130 C 74.417 130, 73.850 135.767, 75.102 139.946 L 76.329 144.043 94.915 143.771 L 113.500 143.500 113.790 140 C 113.950 138.075, 113.419 134.700, 112.611 132.500 L 111.141 128.500 111.039 135 C 110.945 140.940, 110.810 141.333, 109.468 139.559 C 108.661 138.491, 108 135.904, 108 133.809 C 108 128.842, 106.398 128.940, 104.882 134 C 103.182 139.675, 101.824 138.956, 102.520 132.750 C 103.089 127.680, 103.056 127.586, 101.540 130 C 100.057 132.363, 99.983 131.966, 100.180 122.793 C 100.350 114.873, 100.076 112.742, 98.694 111.214 C 97.762 110.185, 96.980 108.478, 96.955 107.421 C 96.930 106.365, 96.333 104.150, 95.628 102.500 C 94.360 99.535, 94.332 99.526, 93.173 101.684 M 51.158 114 C 51.158 115.375, 51.385 115.938, 51.662 115.250 C 51.940 114.563, 51.940 113.438, 51.662 112.750 C 51.385 112.063, 51.158 112.625, 51.158 114 M 137.079 117.583 C 137.127 118.748, 137.364 118.985, 137.683 118.188 C 137.972 117.466, 137.936 116.603, 137.604 116.271 C 137.272 115.939, 137.036 116.529, 137.079 117.583" stroke="none" fill="black" fill-rule="evenodd"/>
</svg>