<svg xmlns="http://www.w3.org/2000/svg" width="192" height="144" viewBox="0 0 192 144" version="1.1">
	<path d="M 77.280 2.967 C 74.469 4.165, 73.574 7.715, 74.370 14.494 C 75.264 22.101, 75.865 23.259, 78.641 22.728 C 81.547 22.173, 81.549 22.102, 78.497 26.600 C 75.808 30.562, 76.410 33, 80.077 33 C 81.424 33, 82.065 33.994, 82.495 36.750 C 82.817 38.813, 83.550 42.251, 84.123 44.390 C 84.879 47.216, 84.854 48.472, 84.029 48.982 C 83.405 49.368, 83.031 50.105, 83.197 50.619 C 83.364 51.134, 81.813 53.246, 79.750 55.311 C 77.553 57.511, 76 60.037, 76 61.408 C 76 66.659, 74.772 70, 72.844 70 C 70.435 70, 69.529 72.252, 70.904 74.821 C 72.143 77.136, 70.427 82.729, 63.930 97.542 C 60.416 105.555, 59.895 107.583, 60.538 110.754 C 60.956 112.814, 61.199 115.925, 61.079 117.666 C 60.959 119.407, 61.580 122.221, 62.459 123.920 C 64.283 127.448, 64.895 135.952, 63.671 140.750 L 62.841 144 92.921 144 C 109.464 144, 123 143.819, 123 143.598 C 123 143.377, 120.970 138.444, 118.489 132.636 C 116.008 126.828, 113.257 119.246, 112.375 115.788 C 111.494 112.329, 110.126 108.239, 109.334 106.699 C 107.312 102.761, 107.031 84.613, 108.923 80.126 C 110.241 77, 110.443 76.885, 111.673 78.567 C 112.599 79.834, 113 83.965, 113 92.244 C 113 99.528, 113.623 106.882, 114.616 111.303 C 116.286 118.741, 121.689 130.961, 126.975 139.250 C 129.534 143.264, 130.490 144, 133.141 144 L 136.279 144 135.482 138.750 C 135.044 135.863, 134.772 130.936, 134.878 127.801 C 134.984 124.663, 134.425 120.559, 133.634 118.666 C 132.404 115.723, 132.399 115.030, 133.597 113.832 C 134.795 112.633, 134.438 110.933, 131.106 101.966 C 128.611 95.255, 126.960 88.809, 126.505 84 C 126.114 79.875, 125.684 75.375, 125.549 74 C 125.414 72.625, 123.818 68.350, 122.001 64.500 C 119.382 58.948, 118.645 56.014, 118.440 50.320 C 118.297 46.371, 117.599 41.534, 116.889 39.571 C 115.885 36.793, 115.865 35.735, 116.799 34.801 C 117.460 34.140, 118 32.516, 118 31.191 C 118 29.866, 118.949 27.796, 120.109 26.591 C 122.586 24.017, 126.902 14.430, 126.960 11.372 C 127.028 7.736, 124.365 6.554, 116.033 6.526 C 111.485 6.511, 107.719 6.990, 106.871 7.693 C 105.939 8.466, 104.917 8.559, 103.966 7.958 C 103.160 7.448, 101.180 7.024, 99.566 7.015 C 97.952 7.007, 94.780 6.104, 92.518 5.009 C 87.600 2.628, 80.354 1.657, 77.280 2.967 M 111.195 71.500 C 111.215 73.150, 111.439 73.704, 111.693 72.731 C 111.947 71.758, 111.930 70.408, 111.656 69.731 C 111.382 69.054, 111.175 69.850, 111.195 71.500" stroke="none" fill="black" fill-rule="evenodd"/>
</svg>