<svg xmlns="http://www.w3.org/2000/svg" width="192" height="144" viewBox="0 0 192 144" version="1.1">
	<path d="M 93 27.599 C 58.376 31.788, 46.121 34.773, 14.750 46.660 L 0 52.248 -0 73.105 L -0 93.962 2.750 94.581 C 4.262 94.922, 7.075 95.581, 9 96.046 C 17.828 98.180, 53.461 104.992, 62 106.179 C 73.952 107.841, 114.523 107.810, 125.500 106.131 C 146.846 102.866, 161.617 98.773, 181.198 90.698 L 191.896 86.286 192.280 89.893 C 192.491 91.877, 192.736 84.725, 192.823 74 C 193.005 51.789, 192.371 44, 190.382 44 C 189.645 44, 186.220 43.103, 182.771 42.006 C 165.678 36.572, 143.456 30.783, 134.500 29.431 C 124.437 27.912, 99.508 26.811, 93 27.599 M 92.500 50.530 C 89.750 51.875, 86.969 52.980, 86.321 52.987 C 85.143 53, 80.217 59.698, 77.631 64.802 C 76.769 66.503, 76.328 70.337, 76.439 75.179 C 76.609 82.594, 76.751 83.013, 80.558 87.329 C 82.726 89.788, 85.175 92.761, 86 93.937 C 86.937 95.273, 89 96.284, 91.500 96.633 C 93.700 96.940, 96.934 97.830, 98.687 98.612 C 101.480 99.858, 102.406 99.838, 106.187 98.446 C 108.559 97.573, 112.005 96.352, 113.844 95.733 C 116.332 94.895, 118.331 92.855, 121.659 87.756 C 126.590 80.203, 126.540 80.429, 125.480 70.500 C 124.854 64.638, 124.223 62.931, 121.597 60 C 119.872 58.075, 117.732 55.458, 116.841 54.185 C 115.358 52.066, 110.414 50.431, 99.500 48.450 C 98.400 48.250, 95.250 49.186, 92.500 50.530 M 0.425 73 C 0.425 84.825, 0.569 89.663, 0.746 83.750 C 0.923 77.838, 0.923 68.163, 0.746 62.250 C 0.569 56.338, 0.425 61.175, 0.425 73" stroke="none" fill="black" fill-rule="evenodd"/>
</svg>