<svg xmlns="http://www.w3.org/2000/svg" width="192" height="144" viewBox="0 0 192 144" version="1.1">
	<path d="M 0 16.655 C 0 32.974, 0.038 33.275, 1.906 31.585 C 3.335 30.291, 5.400 29.897, 10.156 30.007 C 13.645 30.089, 19.124 29.588, 22.332 28.896 C 27.631 27.751, 28.123 27.424, 27.720 25.318 C 27.477 24.043, 27.681 23, 28.174 23 C 28.667 23, 29.939 21.087, 31 18.750 C 32.062 16.413, 35.351 11.875, 38.310 8.668 L 43.690 2.835 55.095 4.473 C 65.466 5.963, 69.603 7.297, 77 11.537 C 78.375 12.326, 80.686 12.977, 82.135 12.985 C 83.832 12.995, 85.353 13.890, 86.408 15.500 C 87.309 16.875, 88.936 18, 90.023 18 C 91.616 18, 92 18.680, 92 21.500 C 92 23.425, 92.459 25, 93.019 25 C 93.606 25, 93.773 26.057, 93.413 27.491 C 92.972 29.249, 93.250 30.159, 94.362 30.585 C 95.590 31.057, 95.808 32.125, 95.353 35.445 C 95.032 37.785, 95.231 40.563, 95.795 41.617 C 96.536 43.001, 96.439 44.223, 95.446 46.016 C 94.690 47.382, 94.055 50.135, 94.035 52.133 C 94.002 55.525, 94.195 55.756, 96.931 55.619 C 98.543 55.537, 100.217 55.116, 100.651 54.683 C 101.084 54.249, 100.557 54.233, 99.478 54.647 C 97.754 55.308, 97.818 55.020, 100.009 52.255 C 102.691 48.870, 106.426 47.434, 103.925 50.750 C 103.199 51.712, 104.944 50.267, 107.803 47.538 C 112.608 42.949, 115.143 41.974, 111.339 46.177 C 109.250 48.486, 109.969 49.196, 115.269 50.060 L 119.500 50.750 114.154 50.875 C 111.110 50.946, 107.558 51.738, 105.904 52.716 C 102.623 54.654, 102.155 55.993, 104.750 56.015 C 106.220 56.028, 106.264 56.180, 105.026 56.963 C 104.078 57.562, 103.315 57.510, 102.887 56.817 C 102.039 55.446, 95 60.916, 95 62.945 C 95 64.755, 99.937 70, 101.640 70 C 104.324 70, 108 67.595, 108 65.839 C 108 64.795, 108.715 64, 109.654 64 C 110.563 64, 113.038 62.125, 115.154 59.834 C 118.945 55.726, 119 55.705, 119 58.334 C 119 59.800, 118.550 61, 118 61 C 117.450 61, 116.207 61.788, 115.238 62.750 C 110.954 67.005, 104.155 72, 102.647 72 C 100.290 72, 100.615 73.357, 103.250 74.513 C 104.592 75.102, 105.622 76.550, 105.802 78.101 C 106.061 80.331, 106.490 80.634, 108.802 80.221 C 110.286 79.956, 112.175 79.176, 113 78.488 C 113.825 77.800, 115.625 76.892, 117 76.472 C 119.334 75.758, 119.291 75.883, 116.356 78.354 C 114.626 79.809, 112.094 81, 110.728 81 C 109.362 81, 107.640 81.729, 106.900 82.620 C 105.686 84.084, 105.978 84.181, 109.938 83.627 C 114.910 82.931, 114.813 83.882, 109.807 84.906 C 106.266 85.630, 105.386 87.419, 106.462 91.706 L 107.102 94.253 109.771 91.877 C 111.238 90.569, 111.979 90.175, 111.415 91 C 110.852 91.825, 109.863 93.737, 109.217 95.250 C 107.745 98.697, 109.254 98.896, 112.298 95.655 C 113.737 94.123, 116.148 93.090, 119.253 92.674 C 121.867 92.324, 125.787 91.129, 127.963 90.019 C 130.140 88.908, 132.625 88, 133.485 88 C 134.399 88, 135.283 86.835, 135.610 85.201 C 135.918 83.660, 137.143 81.969, 138.335 81.439 C 139.948 80.723, 140.444 79.715, 140.281 77.489 C 140.135 75.487, 140.346 74.955, 140.920 75.878 C 141.391 76.636, 142.272 76.950, 142.877 76.576 C 144.117 75.810, 143.322 78.683, 141.722 80.750 C 140.351 82.522, 141.393 82.307, 145.587 79.951 C 147.594 78.824, 149.520 78.211, 149.868 78.588 C 150.215 78.965, 149.938 79.475, 149.250 79.720 C 147.800 80.238, 147.555 82, 148.933 82 C 149.446 82, 150.170 81.041, 150.542 79.868 C 151.019 78.364, 151.445 78.102, 151.987 78.979 C 152.921 80.490, 152.122 84, 150.844 84 C 149.687 84, 142.491 91.279, 141.757 93.192 C 141.457 93.972, 139.252 95.203, 136.856 95.927 C 122.157 100.372, 118.975 101.538, 114.175 104.238 C 111.246 105.885, 108.546 108.028, 108.175 108.999 C 106.821 112.541, 98.997 120, 96.634 120 C 95.356 120, 93.495 120.900, 92.500 122 C 91.505 123.100, 90.197 124.010, 89.595 124.022 C 88.993 124.034, 87.457 124.847, 86.181 125.828 C 83.889 127.592, 83.877 127.703, 85.154 135.815 L 86.444 144.017 139.273 143.759 L 192.102 143.500 192.335 71.750 L 192.567 0 96.283 0 L 0 0 0 16.655 M 0.407 17 C 0.407 26.075, 0.559 29.788, 0.744 25.250 C 0.929 20.712, 0.929 13.287, 0.744 8.750 C 0.559 4.212, 0.407 7.925, 0.407 17 M 15.583 7.866 C 15.152 8.563, 15.070 9.403, 15.400 9.733 C 16.295 10.628, 17.271 9.312, 16.787 7.862 C 16.449 6.846, 16.213 6.846, 15.583 7.866 M 118.020 36.524 C 118.716 37.362, 119.491 37.842, 119.743 37.591 C 120.436 36.897, 119.027 35, 117.819 35 C 117.155 35, 117.231 35.574, 118.020 36.524 M 115.500 47 C 115.160 47.550, 115.359 48, 115.941 48 C 116.523 48, 117 47.550, 117 47 C 117 46.450, 116.802 46, 116.559 46 C 116.316 46, 115.840 46.450, 115.500 47 M 110.421 58.459 C 110.070 59.857, 109.355 61, 108.833 61 C 108.310 61, 108.161 61.451, 108.502 62.003 C 109.471 63.571, 113 61.235, 113 59.024 C 113 56.044, 111.130 55.634, 110.421 58.459 M 115.500 66 C 115.840 66.550, 116.568 67, 117.118 67 C 117.668 67, 117.840 66.550, 117.500 66 C 117.160 65.450, 116.432 65, 115.882 65 C 115.332 65, 115.160 65.450, 115.500 66 M 106.458 72.067 C 106.139 72.585, 107.663 73, 109.882 73 C 112.082 73, 114.160 73.450, 114.500 74 C 114.840 74.550, 115.626 75, 116.248 75 C 116.869 75, 116.487 74.171, 115.400 73.158 C 113.309 71.210, 107.432 70.493, 106.458 72.067 M 144.079 72.583 C 144.127 73.748, 144.364 73.985, 144.683 73.188 C 144.972 72.466, 144.936 71.603, 144.604 71.271 C 144.272 70.939, 144.036 71.529, 144.079 72.583 M 155 86 C 155 86.550, 155.450 87, 156 87 C 156.550 87, 157 86.550, 157 86 C 157 85.450, 156.550 85, 156 85 C 155.450 85, 155 85.450, 155 86 M 112.750 97.682 C 108.377 100.432, 107 101.867, 107 103.675 C 107 105.994, 107.073 106.014, 110 104.500 C 111.650 103.647, 113 102.547, 113 102.057 C 113 101.567, 114.953 100.420, 117.339 99.508 C 119.725 98.597, 122.988 96.988, 124.589 95.932 L 127.500 94.013 123 94.040 C 119.586 94.060, 117.112 94.939, 112.750 97.682 M 8.576 128.178 C 7.517 128.792, 5.380 129.258, 3.826 129.214 L 1 129.134 1 136.567 L 1 144 6.115 144 L 11.230 144 9.615 141.535 C 7.413 138.175, 7.574 136.402, 10.542 131.338 C 13.144 126.899, 12.516 125.890, 8.576 128.178 M 68.734 129.694 C 67.252 131.176, 66.443 131.238, 62.270 130.188 C 57.659 129.028, 46.826 129.192, 39.692 130.530 C 36.589 131.112, 36.161 131.591, 35.599 135.108 C 35.253 137.268, 35.251 140.152, 35.594 141.518 L 36.217 144 51.562 144 L 66.906 144 68.916 139.457 C 71.309 134.048, 72.581 128, 71.326 128 C 70.832 128, 69.666 128.762, 68.734 129.694" stroke="none" fill="black" fill-rule="evenodd"/>
</svg>