<svg xmlns="http://www.w3.org/2000/svg" width="192" height="144" viewBox="0 0 192 144" version="1.1">
	<path d="M 60.357 6.799 C 58.577 8.505, 57.590 10.190, 58.082 10.682 C 60.931 13.531, 49.612 22.190, 42.764 22.400 C 40.109 22.481, 39.436 22.950, 39.159 24.915 C 38.971 26.244, 39.764 29.014, 40.920 31.071 C 42.603 34.065, 42.820 35.342, 42.011 37.471 C 40.357 41.821, 40.834 44.454, 43.896 47.884 C 45.755 49.966, 47.036 52.757, 47.475 55.680 C 48.049 59.511, 48.621 60.408, 51.079 61.336 C 53.943 62.417, 55.043 64, 52.929 64 C 52.341 64, 49.675 65.841, 47.007 68.091 C 43.089 71.394, 42.155 72.791, 42.158 75.341 C 42.164 83.160, 41.610 87.542, 40.071 91.843 C 38.421 96.455, 38.392 96.477, 31.458 98.119 C 27.631 99.024, 22.025 100.756, 19 101.967 C 14.715 103.682, 12.385 104.029, 8.453 103.537 C -0.291 102.445, -0 101.828, 0 121.476 L 0 138.739 6.066 141.369 L 12.132 144 52.625 144 C 78.523 144, 92.902 143.650, 92.519 143.030 C 92.189 142.497, 93.527 141.389, 95.492 140.568 C 99.996 138.686, 102.947 132.675, 102.978 125.317 C 103.005 118.955, 102.435 118.688, 89.189 118.872 L 79.769 119.003 76.270 115.605 C 72.931 112.362, 72.869 112.176, 74.897 111.533 C 78.692 110.328, 80.179 105.686, 79.987 95.643 C 79.891 90.614, 80.351 83.483, 81.010 79.795 C 82.080 73.804, 82.010 72.663, 80.354 69.083 C 79.132 66.441, 77.989 65.228, 77 65.522 C 76.175 65.767, 74.180 65.614, 72.567 65.180 L 69.634 64.392 74.303 62.198 C 82.064 58.550, 83.419 52.692, 79.262 40.759 C 77.646 36.118, 77.659 35.952, 79.889 32.937 L 82.166 29.856 80.083 29.311 C 78.937 29.012, 78 28.124, 78 27.340 C 78 26.555, 77.425 26.044, 76.723 26.206 C 76.020 26.367, 73.718 24.587, 71.606 22.249 C 69.093 19.468, 68.292 18, 69.286 18 C 70.121 18, 71.265 16.678, 71.829 15.061 C 72.975 11.772, 72.528 11.167, 67.290 8.923 C 65.524 8.166, 63.949 6.700, 63.790 5.666 C 63.533 4.001, 63.138 4.131, 60.357 6.799 M 181 22.072 C 181 22.700, 180.302 22.946, 179.448 22.618 C 178.472 22.244, 178.149 22.431, 178.576 23.123 C 178.950 23.728, 178.636 24.616, 177.878 25.096 C 176.880 25.729, 176.845 25.974, 177.750 25.985 C 178.438 25.993, 179 26.427, 179 26.948 C 179 28.326, 174.470 33, 173.135 33 C 172.511 33, 172 33.464, 172 34.031 C 172 34.599, 171.213 35.361, 170.250 35.725 C 166.854 37.011, 165.975 38.589, 167.519 40.628 C 168.298 41.658, 168.956 44.300, 168.980 46.500 C 169.020 50.119, 170.785 58.112, 172.410 62.029 C 172.881 63.165, 171.624 64.184, 167.522 65.990 C 161.220 68.765, 160.620 70.529, 164.621 74.531 C 167.417 77.326, 167.490 79.729, 165.077 89.500 C 162.679 99.213, 162.677 99.240, 164.255 100.123 C 165.531 100.837, 165.608 101.625, 164.711 104.742 C 164.116 106.809, 163.467 116.487, 163.271 126.250 L 162.913 144 177.456 144 L 192 144 192 126.447 C 192 109.557, 191.909 108.760, 189.596 105.355 L 187.191 101.817 189.596 96.380 C 191.957 91.041, 192 90.414, 192 61.604 L 192 32.266 187.862 29.527 C 185.586 28.021, 184.167 26.499, 184.709 26.144 C 185.274 25.775, 184.692 24.525, 183.347 23.215 C 182.056 21.958, 181 21.443, 181 22.072 M 4.372 107.474 C 3.538 109.647, 3.920 109.890, 9.329 110.632 C 13.131 111.153, 14 110.988, 14 109.744 C 14 108.904, 12.764 107.922, 11.250 107.561 C 9.738 107.200, 7.710 106.670, 6.745 106.384 C 5.691 106.070, 4.743 106.506, 4.372 107.474 M 39 115 C 37.793 115.780, 37.951 115.972, 39.809 115.985 C 41.097 115.993, 41.845 115.558, 41.500 115 C 40.757 113.798, 40.861 113.798, 39 115" stroke="none" fill="black" fill-rule="evenodd"/>
</svg>