<svg xmlns="http://www.w3.org/2000/svg" width="192" height="144" viewBox="0 0 192 144" version="1.1">
	<path d="M 94.500 24.078 C 67.719 26.298, 40.434 33.224, 11 45.272 L 0.500 49.571 0.233 74.237 L -0.035 98.903 3.733 99.523 C 8.594 100.324, 16.068 101.687, 23 103.038 C 52.227 108.733, 69.558 110.334, 95 109.688 C 118.422 109.093, 131.032 107.520, 149.500 102.889 C 160.780 100.060, 176.817 94.286, 187 89.386 L 191.500 87.221 192.082 92.860 C 192.887 100.659, 193.153 56.111, 192.358 46.705 L 191.716 39.108 184.904 37.039 C 145.788 25.158, 122.224 21.780, 94.500 24.078 M 89.664 50.843 C 83.651 54.060, 82.411 55.245, 79.357 60.689 C 75.906 66.842, 75.890 66.930, 76.597 75.638 C 77.178 82.800, 77.716 84.807, 79.548 86.639 C 80.780 87.871, 81.498 89.203, 81.144 89.600 C 80.790 89.996, 81.023 90.021, 81.663 89.655 C 82.333 89.272, 84.312 90.779, 86.332 93.211 C 89.511 97.038, 90.231 97.416, 94.060 97.263 C 96.382 97.170, 99.624 97.788, 101.264 98.636 C 103.970 100.036, 104.649 100.024, 108.623 98.506 C 111.030 97.587, 113 96.422, 113 95.917 C 113 95.413, 113.654 95, 114.453 95 C 118.378 95, 121.149 92.361, 124.926 85.027 C 128.429 78.223, 128.775 76.926, 128.023 73.433 C 127.557 71.270, 126.912 67.475, 126.589 65 C 126.251 62.410, 125.258 59.961, 124.251 59.231 C 120.995 56.871, 119.499 55.450, 117.217 52.549 C 115.443 50.294, 113.794 49.494, 109.721 48.915 C 96.414 47.022, 96.892 46.976, 89.664 50.843 M 0.434 74.500 C 0.433 88.250, 0.574 94.014, 0.747 87.308 C 0.919 80.603, 0.920 69.353, 0.748 62.308 C 0.576 55.264, 0.434 60.750, 0.434 74.500" stroke="none" fill="black" fill-rule="evenodd"/>
</svg>