<svg xmlns="http://www.w3.org/2000/svg" width="192" height="144" viewBox="0 0 192 144" version="1.1">
	<path d="M 186.407 1.963 C 183.011 3.474, 181.416 3.621, 177.029 2.823 C 170.153 1.574, 160.113 3.239, 152.347 6.918 C 147.076 9.415, 142.479 13.593, 138 19.957 C 135.865 22.991, 128.995 25.098, 123.632 24.363 C 119.637 23.815, 119.039 24.011, 117.493 26.370 C 116.480 27.916, 116.066 29.703, 116.479 30.742 C 116.864 31.709, 117.390 33.611, 117.649 34.969 C 118.336 38.582, 119.880 40, 123.122 40 C 124.868 40, 126 40.530, 126 41.346 C 126 43.658, 129.084 49, 130.418 49 C 131.118 49, 132.473 49.865, 133.429 50.922 C 135.095 52.762, 135.057 52.916, 132.543 54.564 L 129.918 56.284 132.133 58.642 C 133.352 59.939, 134.079 61, 133.749 61 C 133.419 61, 134.195 63.670, 135.474 66.934 C 136.753 70.197, 137.540 73.127, 137.223 73.444 C 136.905 73.761, 138.084 73.733, 139.841 73.382 C 142.523 72.845, 142.936 73.004, 142.411 74.371 C 141.680 76.277, 143.073 76.527, 144.800 74.800 C 145.733 73.867, 146 73.978, 146 75.300 C 146 77.433, 146.846 77.450, 149.150 75.364 C 150.826 73.848, 151.006 73.852, 151.607 75.419 C 152.534 77.834, 151.214 86.250, 149.768 87.143 C 149.100 87.557, 146.065 87.745, 143.026 87.563 C 139.987 87.380, 136.037 87.455, 134.250 87.729 C 131.411 88.164, 131 88.609, 131 91.245 C 131 94.189, 130.902 94.250, 127 93.727 C 123.558 93.265, 123 93.453, 123 95.076 C 123 96.325, 122.071 97.159, 120.250 97.546 C 118.737 97.867, 115.025 98.990, 112 100.042 L 106.500 101.955 102.544 97.227 C 94.393 87.485, 79.463 72.904, 77.026 72.305 C 75.637 71.963, 73.600 71.131, 72.500 70.456 C 71.400 69.781, 67.458 68.239, 63.740 67.029 C 56.832 64.782, 55.589 64.759, 38.750 66.568 C 33.901 67.088, 33 67.494, 33 69.158 C 33 71.841, 34.785 75.094, 37.579 77.500 C 38.856 78.600, 40.286 81.062, 40.756 82.970 C 41.440 85.744, 42.217 86.565, 44.626 87.057 C 46.283 87.396, 49.047 88.714, 50.768 89.986 C 53.570 92.058, 54.628 92.237, 60.931 91.709 L 67.966 91.119 74.546 98.810 C 78.164 103.039, 83.055 108.754, 85.413 111.510 C 87.772 114.265, 92.084 117.817, 94.996 119.401 C 100.184 122.225, 100.504 122.269, 110.895 121.606 C 116.728 121.233, 122.400 120.832, 123.500 120.714 C 125.410 120.510, 125.490 121.033, 125.286 132.271 L 125.072 144.042 144.654 143.771 L 164.237 143.500 166.155 137.250 C 167.934 131.452, 168.283 131, 170.987 131 C 177.847 131, 184.101 133.176, 188.058 136.940 L 192 140.690 192 70.345 C 192 31.655, 191.662 0.032, 191.250 0.071 C 190.838 0.109, 188.658 0.961, 186.407 1.963 M 184.250 83.708 C 183.563 83.960, 183 85.228, 183 86.524 C 183 89.933, 181.470 90.366, 179.586 87.491 C 177.518 84.334, 176 84.302, 176 87.417 C 176 88.746, 175.517 89.994, 174.927 90.191 C 174.207 90.431, 174.366 92.018, 175.413 95.024 C 176.270 97.486, 176.977 102.003, 176.985 105.062 C 176.999 110.062, 177.300 110.846, 179.971 112.821 L 182.943 115.017 184.393 112.759 C 185.191 111.516, 186.802 105.775, 187.974 100 C 189.146 94.225, 190.314 88.487, 190.571 87.250 C 190.920 85.570, 190.577 85, 189.219 85 C 188.219 85, 186.972 84.606, 186.450 84.125 C 185.928 83.644, 184.938 83.456, 184.250 83.708" stroke="none" fill="black" fill-rule="evenodd"/>
</svg>