<svg xmlns="http://www.w3.org/2000/svg" width="192" height="144" viewBox="0 0 192 144" version="1.1">
	<path d="M 0 57 L 0 114 3.981 114 C 7.418 114, 8.050 113.650, 8.605 111.440 C 8.958 110.031, 9.014 107.139, 8.728 105.012 C 8.120 100.473, 9.784 97.522, 13.477 96.595 C 15.551 96.075, 16 95.361, 16 92.588 C 16 90.511, 16.577 88.993, 17.500 88.638 C 18.325 88.322, 19 87.149, 19 86.031 C 19 84.914, 19.450 84, 20 84 C 20.550 84, 21 85.077, 21 86.393 C 21 87.709, 21.675 89.045, 22.500 89.362 C 23.381 89.700, 24 91.199, 24 92.993 C 24 95.286, 24.590 96.274, 26.364 96.948 C 29.414 98.108, 29.973 99.727, 30.125 107.832 C 30.236 113.755, 30.326 114.040, 30.925 110.380 C 31.595 106.289, 34.348 101, 35.807 101 C 37.120 101, 40 106.693, 40 109.288 C 40 112.501, 41.858 112.969, 54.673 112.986 C 64.056 112.999, 65.078 113.194, 67.818 115.500 C 69.452 116.875, 71.061 118, 71.394 118 C 71.727 118, 72 114.675, 72 110.611 C 72 104.698, 72.397 102.750, 73.986 100.861 L 75.973 98.500 78.008 101 C 79.958 103.396, 80.016 104.346, 79.381 123.750 L 78.718 144 135.199 144 L 191.681 144 192.338 120.750 C 192.700 107.963, 192.996 75.563, 192.998 48.750 L 193 0 96.500 0 L 0 0 0 57 M 0.468 57.500 C 0.468 88.850, 0.595 101.530, 0.750 85.679 C 0.904 69.827, 0.904 44.177, 0.749 28.679 C 0.594 13.180, 0.468 26.150, 0.468 57.500 M 121.139 32.550 C 120.036 33.953, 118.991 35.473, 118.817 35.928 C 118.642 36.384, 116.800 37.902, 114.722 39.302 C 111.021 41.796, 111.142 43.724, 114.925 42.524 C 117.688 41.647, 118.491 43.616, 118.496 51.286 C 118.499 55.978, 118.926 58.336, 119.882 58.927 C 122.133 60.318, 120.477 66.462, 117.483 67.826 C 116.118 68.448, 115 69.417, 115 69.979 C 115 70.540, 114.438 71.007, 113.750 71.015 C 113.063 71.024, 111.896 71.413, 111.158 71.881 C 110.062 72.576, 110.049 73.106, 111.086 74.766 C 111.785 75.885, 112.893 76.594, 113.549 76.343 C 114.205 76.091, 114.997 76.551, 115.310 77.365 C 115.655 78.266, 116.655 78.642, 117.863 78.326 C 119.341 77.939, 120.258 78.597, 121.450 80.903 C 123.538 84.941, 124.756 84.818, 125.568 80.489 C 125.930 78.558, 126.645 76.719, 127.157 76.403 C 128.718 75.438, 130.755 77.880, 131.441 81.536 C 132.242 85.809, 135.601 86.438, 136.589 82.500 C 137.348 79.477, 137.443 79.467, 141.096 82.068 C 143.667 83.899, 144 83.943, 144 82.451 C 144 81.230, 144.580 80.918, 146.110 81.319 C 147.499 81.682, 148.985 81.106, 150.457 79.634 C 151.687 78.404, 153.212 77.571, 153.847 77.782 C 155.080 78.193, 155.427 76.760, 154.354 75.687 C 153.265 74.598, 153.168 69, 154.239 69 C 154.808 69, 154.704 68.348, 154 67.500 C 153.315 66.675, 153.001 66, 153.301 66 C 153.601 66, 152.456 64.610, 150.757 62.911 C 148.310 60.464, 146.546 59.705, 142.279 59.265 C 138.502 58.875, 137.206 58.394, 137.946 57.654 C 139.309 56.291, 139.312 53, 137.950 53 C 137.373 53, 135.622 53.661, 134.059 54.469 C 131.450 55.819, 131.178 55.789, 130.737 54.102 C 130.428 52.919, 131.258 51.439, 133.071 49.941 C 135.047 48.309, 135.637 47.174, 135.053 46.130 C 134.486 45.118, 134.904 44.084, 136.360 42.895 C 138.081 41.491, 138.206 41.063, 137 40.711 C 130.442 38.797, 129.492 38.280, 129.221 36.479 C 128.358 30.762, 127.927 30, 125.554 30 C 124.163 30, 122.297 31.078, 121.139 32.550" stroke="none" fill="black" fill-rule="evenodd"/>
</svg>