<svg xmlns="http://www.w3.org/2000/svg" width="192" height="144" viewBox="0 0 192 144" version="1.1">
	<path d="M 0 11.326 C 0 22.189, 0.105 22.750, 2.564 25.060 C 3.975 26.385, 7.123 30.497, 9.561 34.198 C 11.999 37.899, 14.980 41.454, 16.185 42.099 C 19.072 43.644, 33.625 43.788, 37.732 42.312 C 40.487 41.322, 41.297 41.420, 43.223 42.980 C 45.434 44.770, 45.443 44.853, 43.622 46.865 C 42.307 48.318, 41.907 49.886, 42.257 52.211 C 42.564 54.248, 42.084 56.832, 40.995 59 C 40.029 60.925, 38.913 64.895, 38.515 67.821 C 38.118 70.748, 37.217 73.363, 36.514 73.633 C 35.811 73.903, 34.960 75.849, 34.623 77.958 C 33.855 82.761, 30.062 90, 28.314 90 C 26.756 90, 26.748 90.195, 28.082 95.985 C 28.651 98.452, 29.809 101.236, 30.656 102.172 C 31.503 103.108, 31.903 104.347, 31.546 104.925 C 30.741 106.228, 34.057 113.914, 36.462 116.319 C 39.645 119.502, 37.543 118.986, 32.222 115.278 C 29.359 113.282, 26.699 111.968, 26.310 112.356 C 25.643 113.024, 26.753 118.091, 28.532 122.500 C 29.308 124.423, 29.262 124.433, 27.341 122.750 C 24.755 120.486, 24 120.542, 24 123 C 24 124.100, 23.438 124.887, 22.750 124.750 C 21.846 124.569, 21.581 125.987, 21.791 129.869 L 22.083 135.238 19.374 134.558 C 16.334 133.795, 8.280 135.829, 7.629 137.524 C 7.396 138.131, 7.437 139.836, 7.720 141.313 L 8.233 144 100.117 144 L 192 144 192 88.660 C 192 58.223, 192.296 25.823, 192.657 16.660 L 193.314 -0 96.657 -0 L 0 0 0 11.326 M 0.378 12 C 0.378 18.325, 0.541 20.912, 0.739 17.750 C 0.937 14.587, 0.937 9.412, 0.739 6.250 C 0.541 3.087, 0.378 5.675, 0.378 12 M 90.048 53.442 C 89.077 54.612, 89.642 55.741, 93.053 59.442 C 95.364 61.949, 97.590 64, 98 64 C 98.410 64, 98.658 61.915, 98.551 59.367 C 98.415 56.157, 97.781 54.313, 96.487 53.367 C 94.069 51.599, 91.553 51.628, 90.048 53.442 M 27.116 83.668 C 27.052 84.311, 26.709 85.661, 26.353 86.668 C 25.851 88.089, 25.984 88.244, 26.947 87.356 C 27.629 86.727, 27.973 85.377, 27.710 84.356 C 27.447 83.335, 27.180 83.026, 27.116 83.668" stroke="none" fill="black" fill-rule="evenodd"/>
</svg>