<svg xmlns="http://www.w3.org/2000/svg" width="192" height="144" viewBox="0 0 192 144" version="1.1">
	<path d="M 63.728 9.250 C 63.163 18.861, 59.961 30.958, 57.426 33.061 C 56.642 33.712, 56 34.868, 56 35.629 C 56 36.390, 52.962 40.072, 49.250 43.810 C 41.399 51.715, 30.703 57.515, 21.134 59.056 C 15.180 60.015, 2.888 59.667, 0.976 58.485 C 0.347 58.096, -0 73.186, -0 100.941 L 0 144 52.862 144 L 105.725 144 106.343 138.740 C 106.683 135.847, 108.327 128.915, 109.995 123.337 C 111.664 117.759, 114.085 107.462, 115.375 100.454 C 118.004 86.169, 117.473 80.417, 113.250 77.461 C 110.760 75.719, 110.312 72.075, 112.212 69.032 C 114.012 66.150, 112.834 65.787, 107.777 67.661 C 103.536 69.233, 103.012 69.233, 99.719 67.671 C 97.782 66.752, 95.247 66, 94.086 66 C 92.924 66, 87.142 64.165, 81.237 61.921 C 75.332 59.678, 69.375 57.593, 68 57.287 C 64.865 56.591, 62.853 55.046, 63.570 53.887 C 64.509 52.368, 70.302 52.954, 74.883 55.032 C 80.598 57.626, 93.833 61.001, 95.611 60.319 C 96.375 60.026, 97 59.347, 97 58.810 C 97 58.273, 97.558 58.019, 98.241 58.247 C 98.924 58.475, 100.049 58.094, 100.742 57.401 C 101.650 56.493, 102.909 56.400, 105.245 57.070 C 107.028 57.582, 110.350 58, 112.627 58 C 115.926 58, 116.873 57.594, 117.290 56 C 117.626 54.713, 117.320 54, 116.432 54 C 114.911 54, 111.628 48.411, 112.408 47.149 C 112.677 46.713, 112.021 45.606, 110.949 44.688 C 108.614 42.689, 108.465 40.209, 110.504 37.298 C 111.644 35.670, 111.765 34.512, 111.004 32.510 C 110.452 31.058, 110 29.175, 110 28.326 C 110 26.262, 113.390 27.104, 122.729 31.488 C 130.904 35.326, 133.990 39.099, 133.996 45.265 C 134.003 51.868, 137.034 61.269, 140.104 64.205 C 142.109 66.124, 142.991 68.014, 143.135 70.705 C 143.247 72.792, 143.877 75.625, 144.535 77 C 145.194 78.375, 146.049 83.531, 146.435 88.458 C 146.822 93.385, 147.523 99.460, 147.994 101.958 C 148.477 104.517, 148.471 106.637, 147.982 106.815 C 147.503 106.988, 147.389 107.849, 147.726 108.729 C 148.134 109.791, 147.947 110.085, 147.170 109.605 C 146.526 109.207, 146 109.359, 146 109.941 C 146 110.523, 145.325 111, 144.500 111 C 143.675 111, 143 111.274, 143 111.608 C 143 111.943, 145.675 118.130, 148.943 125.358 C 152.212 132.586, 155.189 139.747, 155.557 141.272 L 156.228 144.044 174.364 143.772 L 192.500 143.500 192.825 129 C 193.003 121.025, 192.837 88.737, 192.455 57.250 L 191.761 0 128.017 0 L 64.273 0 63.728 9.250 M 0.459 101 C 0.459 124.925, 0.589 134.713, 0.749 122.750 C 0.908 110.788, 0.908 91.213, 0.749 79.250 C 0.589 67.288, 0.459 77.075, 0.459 101 M 137.503 82.355 C 136.302 88.405, 136.433 93.222, 137.896 96.750 C 140.247 102.423, 141.340 100.626, 140.633 92.250 C 140.273 87.987, 139.594 83.150, 139.124 81.500 L 138.269 78.500 137.503 82.355" stroke="none" fill="black" fill-rule="evenodd"/>
</svg>