<svg xmlns="http://www.w3.org/2000/svg" width="192" height="144" viewBox="0 0 192 144" version="1.1">
	<path d="M 63.364 5.750 C 64.139 12.908, 62.071 23.127, 58.171 31.412 C 50.413 47.892, 32.067 59.374, 13.500 59.368 C 9.100 59.366, 4.263 59.049, 2.750 58.663 L 0 57.962 0 100.981 L 0 144 52.862 144 L 105.725 144 106.373 138.482 C 106.730 135.448, 108.409 128.810, 110.104 123.732 C 111.799 118.655, 114.290 108.875, 115.640 102 C 118.596 86.935, 118.258 80.054, 114.437 77.551 C 111.846 75.853, 111.340 73.102, 113.035 69.934 C 114.323 67.528, 113.270 67.443, 108.238 69.545 C 104.824 70.972, 104.442 70.957, 103.270 69.354 C 102.571 68.399, 102 68.019, 102 68.509 C 102 68.999, 101.460 68.860, 100.800 68.200 C 100.140 67.540, 97.327 66.993, 94.550 66.984 C 91.772 66.976, 86.800 66.317, 83.500 65.520 C 76.451 63.818, 71 63.591, 71 65 C 71 66.655, 67.262 66.124, 66.590 64.373 C 66.246 63.479, 66.513 62.086, 67.183 61.280 C 68.172 60.088, 70.282 59.930, 78.450 60.440 C 83.978 60.785, 90.572 61.311, 93.105 61.608 C 96.324 61.985, 98.132 61.725, 99.114 60.743 C 99.886 59.971, 101.076 59.525, 101.759 59.753 C 102.442 59.981, 103 59.628, 103 58.970 C 103 58.120, 104.291 57.966, 107.453 58.441 C 113.598 59.362, 118.695 58.273, 119.314 55.906 C 119.627 54.710, 119.298 54, 118.429 54 C 116.712 54, 113.611 49.439, 114.428 48.116 C 114.759 47.581, 114.124 46.857, 113.017 46.505 C 110.524 45.714, 109.392 41.629, 110.806 38.526 C 111.608 36.766, 111.525 35.749, 110.465 34.350 C 109.694 33.332, 109.049 31.655, 109.032 30.621 C 109.003 28.931, 109.527 28.812, 114.250 29.436 C 126.076 30.998, 133.332 35.020, 134.511 40.665 C 134.837 42.224, 136.092 45.975, 137.300 49 C 138.596 52.242, 139.514 56.758, 139.538 60 C 139.562 63.335, 140.220 66.484, 141.209 68 C 142.197 69.514, 142.678 71.815, 142.430 73.834 C 142.204 75.668, 142.484 78.036, 143.052 79.097 C 144.605 81.999, 146.414 110.362, 145.075 110.808 C 143.181 111.440, 143.893 114.065, 148.935 125.051 C 151.649 130.964, 154.369 137.657, 154.979 139.924 L 156.089 144.045 174.295 143.772 L 192.500 143.500 192.825 129 C 193.003 121.025, 192.837 88.737, 192.455 57.250 L 191.761 0 127.251 -0 L 62.742 -0 63.364 5.750 M 0.459 101 C 0.459 124.925, 0.589 134.713, 0.749 122.750 C 0.908 110.788, 0.908 91.213, 0.749 79.250 C 0.589 67.288, 0.459 77.075, 0.459 101" stroke="none" fill="black" fill-rule="evenodd"/>
</svg>