<svg xmlns="http://www.w3.org/2000/svg" width="192" height="144" viewBox="0 0 192 144" version="1.1">
	<path d="M 81.642 3.750 C 81.301 5.813, 81.023 10.875, 81.024 15 C 81.027 23.222, 79.153 50.016, 78.296 54 C 77.806 56.283, 77.656 56.152, 76.575 52.500 L 75.391 48.500 74.022 51 C 73.269 52.375, 72.375 54.848, 72.036 56.495 L 71.420 59.490 68.960 55.068 C 65.888 49.547, 64 48.728, 64 52.917 C 64 56.565, 61.374 57.226, 60.691 53.750 C 60.448 52.513, 60.440 54.087, 60.674 57.250 C 60.908 60.412, 60.827 63, 60.493 63 C 59.841 63, 55.612 54.102, 55.542 52.583 C 55.519 52.079, 54.945 51.482, 54.267 51.256 C 53.349 50.950, 53.413 51.920, 54.517 55.048 C 56.460 60.555, 56.367 61.001, 53.902 58 L 51.847 55.500 52.484 58.500 C 54.345 67.265, 54.451 66.692, 50.845 67.380 C 49.005 67.731, 45.093 69.139, 42.151 70.509 C 37.060 72.880, 35.912 73, 18.401 73 L 0 73 0 108.500 L 0 144 39.500 144 C 71.064 144, 79 143.741, 79 142.711 C 79 142.003, 78.100 139.658, 77 137.500 C 74.691 132.971, 74.528 130.348, 76.201 124.616 C 77.651 119.648, 78.649 118.825, 82.291 119.590 C 84.935 120.146, 85.046 120.027, 84.395 117.339 C 83.209 112.445, 82.086 110, 81.025 110 C 80.461 110, 80 109.337, 80 108.527 C 80 106.731, 84.205 97.631, 85.250 97.167 C 85.662 96.983, 86 95.997, 86 94.976 C 86 93.954, 86.408 92.866, 86.907 92.558 C 87.405 92.249, 87.561 92.964, 87.252 94.145 C 86.761 96.021, 87.025 96.228, 89.345 95.785 C 91.671 95.340, 91.999 95.601, 91.994 97.889 C 91.990 99.325, 91.364 101.695, 90.602 103.156 C 89.458 105.349, 89.423 107.259, 90.400 114.099 C 91.509 121.863, 91.771 122.466, 94.542 123.648 C 96.169 124.342, 98.850 124.945, 100.500 124.988 C 108.331 125.193, 110.588 133.099, 104.500 139 C 102.575 140.866, 101 142.759, 101 143.206 C 101 143.654, 121.587 143.903, 146.750 143.760 L 192.500 143.500 192.742 107.500 C 192.882 86.761, 192.615 72.078, 192.113 72.864 C 191.403 73.975, 186.413 74.156, 165.170 73.841 L 139.098 73.454 134.307 70.077 C 131.362 68.001, 127.898 66.517, 125.317 66.227 C 123.008 65.966, 120.930 65.246, 120.699 64.627 C 120.467 64.007, 121.140 60.862, 122.193 57.637 C 124.538 50.457, 123.982 49.340, 121.064 55.367 C 117.979 61.742, 116.410 62.799, 115.653 59.016 C 115.011 55.807, 112.616 54.953, 111.610 57.574 C 110.428 60.655, 108 56.536, 108 51.449 C 108 47.636, 107.748 46.964, 106.658 47.869 C 105.920 48.481, 105.023 48.690, 104.665 48.332 C 104.307 47.974, 103.735 49.074, 103.395 50.776 C 103.054 52.479, 102.151 54.112, 101.388 54.405 C 100.306 54.820, 100 53.704, 100 49.346 C 100 44.490, 99.803 43.919, 98.500 45 C 97.675 45.685, 97 45.840, 97 45.346 C 97 44.852, 96.582 40.859, 96.070 36.474 C 95.559 32.088, 94.877 24, 94.554 18.500 C 94.232 13, 93.699 6.588, 93.371 4.250 L 92.773 -0 87.517 -0 L 82.262 0 81.642 3.750 M 0.451 108.500 C 0.451 128.300, 0.585 136.542, 0.748 126.815 C 0.912 117.088, 0.912 100.888, 0.749 90.815 C 0.586 80.742, 0.452 88.700, 0.451 108.500 M 93.500 88 C 93.840 88.550, 94.316 89, 94.559 89 C 94.802 89, 95 88.550, 95 88 C 95 87.450, 94.523 87, 93.941 87 C 93.359 87, 93.160 87.450, 93.500 88" stroke="none" fill="black" fill-rule="evenodd"/>
</svg>