<svg xmlns="http://www.w3.org/2000/svg" width="192" height="144" viewBox="0 0 192 144" version="1.1">
	<path d="M 103 12.123 C 96.307 12.937, 89.763 15.244, 84.736 18.563 C 81.023 21.013, 80.896 21.026, 75.559 19.474 C 72.406 18.557, 67.518 18.026, 63.849 18.200 C 58.488 18.455, 57.385 18.833, 56.440 20.735 C 55.378 22.874, 55.764 28.425, 57.552 36.750 C 58.164 39.598, 57.993 40, 56.172 40 C 55.029 40, 52.948 40.522, 51.547 41.161 C 49.387 42.145, 49 42.981, 49 46.661 C 49 50.356, 49.302 51, 51.031 51 C 53.961 51, 54.488 53.498, 52.236 56.715 C 48.095 62.628, 45.027 69, 46.320 69 C 47.024 69, 48.186 68.438, 48.902 67.750 C 49.966 66.729, 50.135 67.280, 49.826 70.750 C 49.618 73.088, 49.757 75, 50.136 75 C 50.514 75, 51.111 76.697, 51.461 78.770 C 51.812 80.844, 52.526 83.207, 53.049 84.020 C 53.887 85.324, 54.118 85.322, 54.994 84 C 55.820 82.753, 56.453 83.081, 58.744 85.940 C 60.260 87.833, 62.064 90.083, 62.752 90.940 C 63.845 92.300, 63.938 92.304, 63.480 90.971 C 63.192 90.131, 63.528 88.690, 64.228 87.771 C 65.408 86.220, 65.672 86.240, 67.869 88.056 C 70.026 89.838, 70.126 90.283, 68.983 93.040 C 68.294 94.705, 66.665 96.905, 65.365 97.928 C 62.342 100.306, 62.345 102.801, 65.373 103.952 C 66.687 104.451, 68.038 106.015, 68.399 107.454 C 68.758 108.884, 70.502 112.404, 72.274 115.277 C 74.672 119.163, 75.472 121.596, 75.402 124.780 L 75.307 129.060 77.451 127.046 C 78.631 125.937, 81.037 124.743, 82.798 124.390 C 85.972 123.756, 85.995 123.779, 85.413 127.125 C 85.091 128.981, 84.664 131.040, 84.464 131.699 C 83.712 134.187, 86.649 131.808, 88.443 128.475 C 90.403 124.837, 92 123.950, 92 126.500 C 92 127.325, 91.529 128, 90.954 128 C 90.343 128, 90.007 129.913, 90.146 132.601 C 90.346 136.456, 89.988 137.506, 87.942 139.079 C 84.637 141.619, 84.011 141.490, 82.694 138 C 81.557 134.989, 80.559 134.286, 79.606 135.828 C 79.325 136.284, 80.270 138.309, 81.707 140.328 L 84.319 144 96.085 144 L 107.850 144 115.520 132.906 C 123.316 121.632, 129.685 114.552, 132.971 113.509 C 134.054 113.165, 135.048 111.559, 135.427 109.538 C 135.938 106.813, 136.643 106.018, 139.009 105.498 C 142.820 104.661, 145.746 105.624, 146.487 107.959 C 146.811 108.980, 147.729 110.066, 148.527 110.372 C 149.652 110.804, 149.755 111.513, 148.989 113.529 C 147.585 117.223, 147.761 121.801, 149.550 128.068 C 152.935 139.930, 154.331 141.588, 155.384 135 C 155.736 132.800, 156.468 131, 157.012 131 C 157.555 131, 158.018 129.313, 158.040 127.250 L 158.080 123.500 159.618 126.338 C 161.992 130.718, 162.180 128.964, 159.981 122.949 C 158.892 119.968, 158 117.401, 158 117.245 C 158 117.089, 159.228 117.270, 160.728 117.647 L 163.457 118.331 160.574 114.916 C 155.311 108.680, 154.046 104.498, 154.022 93.250 L 154 83 157.250 83.024 C 159.037 83.037, 162.285 83.461, 164.466 83.967 C 171.646 85.632, 173.515 80.307, 167 76.748 C 163.151 74.646, 156 67.615, 156 65.932 C 156 65.347, 156.520 63.896, 157.156 62.708 C 161.180 55.190, 159.840 46.918, 152.923 36.576 C 146.015 26.249, 138.280 20.274, 125.676 15.530 C 117.274 12.367, 109.992 11.273, 103 12.123 M 96 124 C 96 125.111, 96.667 126, 97.500 126 C 98.333 126, 99 125.111, 99 124 C 99 122.889, 98.333 122, 97.500 122 C 96.667 122, 96 122.889, 96 124" stroke="none" fill="black" fill-rule="evenodd"/>
</svg>