<svg xmlns="http://www.w3.org/2000/svg" width="192" height="144" viewBox="0 0 192 144" version="1.1">
	<path d="M 53.749 15.081 C 52.786 15.641, 51.088 17.984, 49.976 20.286 C 48.339 23.673, 48.079 25.572, 48.608 30.249 C 49.094 34.546, 48.824 37.171, 47.556 40.492 C 45.649 45.487, 46.244 49.254, 48.870 48.809 C 49.808 48.650, 51.691 49.416, 53.056 50.510 C 56.781 53.497, 56.372 57.972, 51.944 62.702 C 46.615 68.393, 43 74.283, 43 77.274 C 43 79.099, 43.978 80.659, 46.102 82.220 C 49.076 84.406, 49.178 84.719, 48.582 89.843 C 48.240 92.781, 46.837 97.199, 45.463 99.660 C 44.089 102.121, 43.204 104.521, 43.496 104.994 C 43.789 105.467, 43.093 108.227, 41.950 111.127 C 40.807 114.027, 40.083 117.210, 40.342 118.200 C 40.601 119.190, 40.440 120, 39.984 120 C 38.805 120, 37.116 125.948, 37.286 129.500 C 37.365 131.150, 37.076 135.088, 36.643 138.250 L 35.856 144 59.428 144 C 77.620 144, 82.999 143.715, 82.997 142.750 C 82.996 142.063, 81.862 137.271, 80.477 132.102 C 79.092 126.933, 78.228 121.858, 78.556 120.824 C 78.884 119.791, 80.691 117.270, 82.573 115.223 C 84.454 113.175, 86.709 109.250, 87.584 106.500 C 88.459 103.750, 91.005 97.867, 93.240 93.427 C 97.903 84.167, 97.848 82.617, 92.618 76.007 C 90.732 73.624, 89.430 71.043, 89.726 70.273 C 90.021 69.503, 89.304 68.201, 88.131 67.380 C 86.959 66.558, 86 64.857, 86 63.598 C 86 60.851, 83.702 58.609, 78.775 56.550 C 76.166 55.460, 75.166 54.449, 75.274 53.012 C 75.397 51.382, 76.135 51, 79.162 51 C 82.278 51, 83.355 50.401, 85.649 47.393 C 89.386 42.494, 89.156 39.003, 84.454 29.289 C 81.616 23.424, 79.666 20.685, 77.504 19.527 C 75.852 18.642, 73.375 17.242, 72 16.417 C 70.382 15.445, 67.825 15.055, 64.750 15.311 C 62.138 15.528, 60 15.322, 60 14.853 C 60 13.683, 55.892 13.833, 53.749 15.081 M 123.374 43.355 C 121.242 45.189, 120.910 46.016, 121.723 47.470 C 122.468 48.801, 122.311 50.038, 121.138 52.083 C 119.826 54.369, 118.623 54.991, 114.517 55.507 C 106.342 56.536, 103.093 57.920, 101.465 61.068 C 99.369 65.121, 100.976 67.344, 108.796 71.208 C 112.748 73.162, 114.908 74.798, 114.598 75.606 C 114.326 76.314, 114.471 79.217, 114.920 82.057 C 115.489 85.659, 115.356 88.020, 114.480 89.861 C 110.144 98.968, 104.024 113.241, 102.628 117.500 C 100.571 123.779, 100.574 126.373, 102.642 130.346 C 103.545 132.081, 104.589 134.175, 104.961 135 C 105.333 135.825, 107.332 137.343, 109.403 138.373 C 112.217 139.772, 113.045 140.720, 112.678 142.123 C 112.212 143.906, 113.058 144, 129.569 144 L 146.950 144 145.922 141.294 C 143.445 134.780, 140.826 124.122, 140.624 119.741 L 140.405 114.981 144.491 118.991 C 146.979 121.433, 149.519 123, 150.988 123 C 152.771 123, 153.107 123.293, 152.278 124.122 C 150.771 125.629, 151.794 128, 153.952 128 C 157.227 128, 159.344 124.440, 158.548 120.273 C 158.151 118.198, 157.872 115.272, 157.928 113.770 C 158.018 111.330, 157.246 110.669, 150.642 107.535 C 143.413 104.105, 143.208 103.904, 141.064 98.172 C 139.859 94.950, 138.727 89.319, 138.547 85.657 L 138.221 79 144.860 78.985 C 153.236 78.967, 156.400 77.479, 156.803 73.367 C 157.212 69.202, 153.449 64.870, 147.023 62.105 C 142.372 60.104, 142 59.688, 142 56.472 C 142 54.562, 142.420 53, 142.933 53 C 144.466 53, 145.188 49.220, 144.059 47.110 C 143.432 45.939, 140.880 44.553, 137.753 43.683 C 127.740 40.899, 126.268 40.865, 123.374 43.355 M 73.519 81.146 C 68.683 94.305, 68.219 97.529, 70.234 103.986 L 71.468 107.940 74.222 102.720 C 79.713 92.312, 83.067 84.617, 82.621 83.454 C 82.370 82.800, 81.115 82.038, 79.832 81.761 C 78.549 81.484, 76.716 80.928, 75.758 80.525 C 74.656 80.061, 73.834 80.290, 73.519 81.146 M 116.049 103.909 C 114.659 106.506, 114.436 111.586, 115.476 117 C 116.652 123.122, 117.216 123.737, 118.229 120 C 119.990 113.502, 120.124 109.517, 118.716 105.522 C 117.326 101.578, 117.303 101.565, 116.049 103.909 M 112.085 133.250 C 111.161 135.695, 111.752 137.686, 113 136.337 C 114.445 134.776, 115.177 131, 114.035 131 C 113.430 131, 112.553 132.012, 112.085 133.250" stroke="none" fill="black" fill-rule="evenodd"/>
</svg>