<svg xmlns="http://www.w3.org/2000/svg" width="192" height="144" viewBox="0 0 192 144" version="1.1">
	<path d="M 44 0.374 C 44 0.580, 44.672 2.653, 45.493 4.981 C 46.314 7.308, 46.738 9.615, 46.434 10.106 C 45.490 11.634, 37.792 11.066, 31.123 8.975 C 24.445 6.882, 23.568 6.957, 14.500 10.396 C 12.300 11.230, 8.849 11.932, 6.832 11.956 C -0.625 12.045, 0 5.949, 0 78.612 L 0 144.010 96.250 143.755 L 192.500 143.500 192.757 77.750 C 192.980 20.900, 192.818 12, 191.566 12 C 190.770 12, 189.840 12.450, 189.500 13 C 188.501 14.617, 182.470 14.147, 179.878 12.250 C 175.200 8.827, 172.640 7.796, 166.111 6.702 C 154.997 4.840, 150.710 5.274, 146.337 8.702 C 139.986 13.681, 138.353 14.271, 134.469 12.990 L 131.035 11.857 131.268 5.928 L 131.500 -0.001 87.750 -0.001 C 63.688 -0, 44 0.168, 44 0.374 M 0.472 78.500 C 0.472 114.800, 0.597 129.505, 0.750 111.177 C 0.902 92.850, 0.902 63.150, 0.749 45.177 C 0.597 27.205, 0.472 42.200, 0.472 78.500 M 104.500 86 C 104.840 86.550, 105.316 87, 105.559 87 C 105.802 87, 106 86.550, 106 86 C 106 85.450, 105.523 85, 104.941 85 C 104.359 85, 104.160 85.450, 104.500 86 M 83 87.059 C 83 87.641, 83.450 87.840, 84 87.500 C 84.550 87.160, 85 86.684, 85 86.441 C 85 86.198, 84.550 86, 84 86 C 83.450 86, 83 86.477, 83 87.059 M 89 93 C 89 93.550, 89.450 94, 90 94 C 90.550 94, 91 93.550, 91 93 C 91 92.450, 90.550 92, 90 92 C 89.450 92, 89 92.450, 89 93 M 95.500 95 C 95.160 95.550, 95.359 96, 95.941 96 C 96.523 96, 97 95.550, 97 95 C 97 94.450, 96.802 94, 96.559 94 C 96.316 94, 95.840 94.450, 95.500 95 M 105.500 98 C 105.840 98.550, 106.316 99, 106.559 99 C 106.802 99, 107 98.550, 107 98 C 107 97.450, 106.523 97, 105.941 97 C 105.359 97, 105.160 97.450, 105.500 98 M 85 99 C 85 99.550, 85.450 100, 86 100 C 86.550 100, 87 99.550, 87 99 C 87 98.450, 86.550 98, 86 98 C 85.450 98, 85 98.450, 85 99 M 93 106.500 C 93 107.325, 93.450 108, 94 108 C 94.550 108, 95 107.325, 95 106.500 C 95 105.675, 94.550 105, 94 105 C 93.450 105, 93 105.675, 93 106.500 M 86.813 112.683 C 87.534 112.972, 88.397 112.936, 88.729 112.604 C 89.061 112.272, 88.471 112.036, 87.417 112.079 C 86.252 112.127, 86.015 112.364, 86.813 112.683" stroke="none" fill="black" fill-rule="evenodd"/>
</svg>