<svg xmlns="http://www.w3.org/2000/svg" width="192" height="144" viewBox="0 0 192 144" version="1.1">
	<path d="M 38.500 6.858 C 22.234 15.299, 15.986 18.912, 4.776 26.361 L 0.052 29.500 0.026 86.750 L 0 144 42.800 144 C 66.340 144, 86.028 143.604, 86.550 143.121 C 87.073 142.637, 89.300 141.682, 91.500 140.997 C 98.752 138.741, 128.270 125.498, 135.500 121.257 C 137.150 120.289, 141.078 118.036, 144.230 116.251 C 156.724 109.174, 171.587 97.531, 184.237 84.911 L 191.973 77.192 192.251 110.346 C 192.469 136.400, 192.578 132.666, 192.764 92.911 C 192.894 65.087, 192.703 32.800, 192.341 21.161 L 191.682 0 121.591 0.056 L 51.500 0.111 38.500 6.858 M 0.468 86.500 C 0.468 118.400, 0.595 131.595, 0.749 115.821 C 0.904 100.048, 0.904 73.948, 0.750 57.821 C 0.595 41.695, 0.468 54.600, 0.468 86.500 M 103.594 33.740 C 103.187 34.147, 99.317 34.739, 94.994 35.057 C 88.590 35.528, 86.389 36.151, 83.104 38.428 C 80.887 39.964, 79.170 41.723, 79.287 42.337 C 79.404 42.950, 78.531 43.601, 77.347 43.783 C 73.966 44.302, 66.923 56, 69.992 56 C 70.611 56, 70.833 56.462, 70.484 57.027 C 70.135 57.591, 69.319 57.931, 68.671 57.782 C 68.023 57.634, 65.919 58.450, 63.996 59.596 C 60.291 61.805, 55 70.817, 55 74.920 C 55 77.355, 59.440 84.153, 63.450 87.855 C 64.852 89.150, 66 90.613, 66 91.105 C 66 92.328, 75.356 92.244, 76.590 91.010 C 77.803 89.797, 86.766 92.897, 91.573 96.190 C 95.551 98.916, 95.438 99.273, 91.001 98 C 88.381 97.249, 87.901 97.301, 88.836 98.236 C 90.326 99.726, 100.841 99.728, 111 98.240 C 120.453 96.856, 121.689 96.361, 122.384 93.678 C 123.082 90.986, 126.459 87.133, 130.750 84.135 C 133.644 82.112, 134 81.342, 134 77.099 C 134 74.478, 134.510 69.796, 135.133 66.694 C 136.140 61.676, 136.057 60.750, 134.383 58.302 C 133.347 56.788, 131.150 52.847, 129.500 49.544 C 126.784 44.108, 125.884 43.229, 120 40.271 C 116.425 38.474, 112.949 36.546, 112.276 35.987 C 110.979 34.910, 106.392 33, 105.102 33 C 104.679 33, 104 33.333, 103.594 33.740 M 84 95.393 C 84 95.609, 84.698 96.054, 85.552 96.382 C 86.442 96.723, 86.843 96.555, 86.493 95.989 C 85.906 95.038, 84 94.583, 84 95.393" stroke="none" fill="black" fill-rule="evenodd"/>
</svg>