<svg xmlns="http://www.w3.org/2000/svg" width="192" height="144" viewBox="0 0 192 144" version="1.1">
	<path d="M 63.755 4.805 C 65.034 18.110, 58.973 34.038, 48.712 44.341 C 45.295 47.772, 40.700 51.461, 38.500 52.539 C 36.300 53.618, 34.275 54.744, 34 55.042 C 33.363 55.733, 27.035 57.577, 20.132 59.084 C 14.923 60.221, 5.308 59.908, 1.750 58.486 C 0.100 57.826, 0 60.239, 0 100.893 L 0 144 53.386 144 L 106.773 144 107.462 139.250 C 107.841 136.638, 109.927 129.174, 112.097 122.665 C 117.168 107.454, 121.341 87.842, 120.711 82.182 C 120.414 79.515, 119.405 77.094, 118.073 75.853 C 115.661 73.606, 115.922 71.263, 119.084 66.790 C 120.138 65.300, 121 63.536, 121 62.869 C 121 62.203, 121.709 60.874, 122.576 59.916 C 125.057 57.174, 124.862 55.064, 121.825 51.813 C 120.275 50.154, 119.280 48.356, 119.612 47.818 C 119.945 47.280, 119.268 46.176, 118.108 45.363 C 115.765 43.722, 115.447 41.307, 117.097 37.686 C 117.954 35.805, 117.845 34.600, 116.597 32.188 C 115.719 30.489, 115 28.791, 115 28.414 C 115 27.127, 123.809 28.932, 130.390 31.567 C 137.165 34.279, 141 38.317, 141 42.738 C 141 43.839, 141.906 47.574, 143.012 51.039 C 144.119 54.503, 144.984 59.400, 144.934 61.919 C 144.884 64.439, 145.328 68.072, 145.921 69.993 C 146.515 71.915, 147 76.247, 147 79.621 C 147 82.995, 147.694 87.417, 148.542 89.447 C 150.416 93.930, 150.205 107.107, 148.250 107.753 C 147.563 107.981, 147 107.417, 147 106.500 C 147 105.583, 146.438 105.031, 145.750 105.272 C 143.835 105.943, 144.753 110.603, 148.649 120 C 150.588 124.675, 153.372 131.982, 154.837 136.239 L 157.500 143.977 175 143.739 L 192.500 143.500 192.825 129 C 193.003 121.025, 192.837 88.737, 192.455 57.250 L 191.761 0 127.527 -0 L 63.294 -0 63.755 4.805 M 0.459 101 C 0.459 124.925, 0.589 134.713, 0.749 122.750 C 0.908 110.788, 0.908 91.213, 0.749 79.250 C 0.589 67.288, 0.459 77.075, 0.459 101" stroke="none" fill="black" fill-rule="evenodd"/>
</svg>