<svg xmlns="http://www.w3.org/2000/svg" width="192" height="144" viewBox="0 0 192 144" version="1.1">
	<path d="M 0 72 L 0 144 42.500 144 L 85 144 84.999 136.750 C 84.999 132.047, 84.087 126.174, 82.404 120.033 C 79.726 110.265, 79.703 106.791, 82.275 100.801 C 83.055 98.985, 84.276 95.700, 84.989 93.500 C 85.701 91.300, 87.121 88.427, 88.142 87.115 C 89.164 85.803, 90 83.750, 90 82.552 C 90 81.354, 91.350 79.081, 93 77.500 C 95.425 75.176, 96 73.800, 96 70.313 C 96 67.941, 95.622 66, 95.159 66 C 94.696 66, 93.112 63.784, 91.638 61.076 C 90.164 58.368, 88.405 55.928, 87.729 55.653 C 86.800 55.274, 86.840 54.915, 87.896 54.177 C 89.280 53.210, 88.772 49.864, 87.278 50.109 C 85.076 50.471, 84.153 49.596, 82.094 45.202 L 79.847 40.403 82.264 34.938 C 85.469 27.691, 89.655 23.693, 96.163 21.665 C 109.667 17.456, 116.512 18.534, 124.546 26.132 C 129.285 30.614, 130.037 31.930, 132.077 39.306 C 134.082 46.558, 134.361 50.030, 134.506 69.500 C 134.595 81.600, 135.179 102.300, 135.802 115.500 C 136.425 128.700, 136.950 140.520, 136.967 141.766 L 137 144.032 164.750 143.766 L 192.500 143.500 192.757 71.750 L 193.013 0 96.507 0 L 0 0 0 72 M 0.474 72.500 C 0.474 112.100, 0.598 128.154, 0.750 108.176 C 0.901 88.198, 0.901 55.798, 0.750 36.176 C 0.598 16.554, 0.474 32.900, 0.474 72.500" stroke="none" fill="black" fill-rule="evenodd"/>
</svg>