<svg xmlns="http://www.w3.org/2000/svg" width="192" height="144" viewBox="0 0 192 144" version="1.1">
	<path d="M 0 72 L 0 144 26 144 L 52 144 52 138.788 C 52 131.809, 56.681 113.466, 59.670 108.731 C 60.991 106.639, 63.602 103.233, 65.473 101.162 L 68.875 97.396 65.559 82.832 C 59.723 57.196, 59.544 56.931, 48.109 57.098 C 34.824 57.292, 29.601 52.669, 30.241 41.282 C 30.828 30.848, 36.569 26.927, 48.177 29.032 C 61.535 31.454, 73.026 40.107, 77.004 50.739 C 78.143 53.785, 80.188 63.494, 81.549 72.316 C 82.909 81.138, 84.130 88.463, 84.262 88.595 C 84.394 88.727, 86.751 88.399, 89.501 87.867 C 94.006 86.994, 102.068 87.338, 107.563 88.636 C 109.491 89.091, 109.705 88.441, 110.842 78.660 C 112.301 66.106, 114.419 57.393, 116.836 54 C 117.816 52.625, 120.616 50.458, 123.059 49.184 C 127.030 47.113, 128.558 46.908, 137.500 47.250 C 146.039 47.577, 148.454 48.074, 154.030 50.654 C 162.188 54.429, 166.870 58.491, 170.196 64.681 C 173.654 71.117, 174.476 75.436, 172.947 79.129 C 171.774 81.960, 171.478 82.088, 167.603 81.445 C 165.346 81.070, 162.299 80.149, 160.831 79.398 C 159.364 78.647, 155.539 77.056, 152.331 75.862 C 146.130 73.553, 144.534 72.690, 136.230 67.154 C 133 65, 130.606 64, 130.046 64.570 C 128.735 65.903, 123.751 94.873, 124.393 97.429 C 124.688 98.605, 127.308 102.325, 130.215 105.695 C 134.592 110.770, 135.995 113.405, 138.382 121.033 C 140.857 128.943, 141.174 131.218, 140.624 137.139 L 139.983 144.033 166.241 143.767 L 192.500 143.500 192.757 71.750 L 193.013 0 96.507 0 L 0 0 0 72 M 0.474 72.500 C 0.474 112.100, 0.598 128.154, 0.750 108.176 C 0.901 88.198, 0.901 55.798, 0.750 36.176 C 0.598 16.554, 0.474 32.900, 0.474 72.500" stroke="none" fill="black" fill-rule="evenodd"/>
</svg>