<svg xmlns="http://www.w3.org/2000/svg" width="192" height="144" viewBox="0 0 192 144" version="1.1">
	<path d="M 0 72 L 0 144 37.340 144 L 74.681 144 77.983 132.750 C 80.362 124.646, 81.232 119.796, 81.096 115.405 C 80.983 111.738, 81.732 106.359, 82.977 101.905 C 85.572 92.616, 87.097 83.294, 87.324 75.321 C 87.483 69.749, 87.345 69.282, 85.921 70.571 C 83.760 72.527, 81.782 72.368, 82.186 70.271 C 82.370 69.320, 83.865 68.152, 85.510 67.676 C 87.154 67.199, 89.774 66.178, 91.331 65.405 C 94.417 63.874, 98.238 63.564, 99.403 64.750 C 99.808 65.162, 102.020 65.972, 104.320 66.548 C 107.441 67.330, 108.500 68.090, 108.500 69.548 C 108.500 70.904, 107.928 71.402, 106.626 71.178 C 104.954 70.890, 104.821 71.324, 105.395 75.178 C 105.749 77.555, 106.458 83.100, 106.970 87.500 C 107.481 91.900, 109.015 98.747, 110.379 102.716 C 112.536 108.996, 112.745 110.732, 111.986 116.102 C 111.214 121.561, 111.471 123.526, 114.220 133.148 L 117.326 144.024 154.913 143.762 L 192.500 143.500 192.757 71.750 L 193.013 0 96.507 0 L 0 0 0 72 M 0.474 72.500 C 0.474 112.100, 0.598 128.154, 0.750 108.176 C 0.901 88.198, 0.901 55.798, 0.750 36.176 C 0.598 16.554, 0.474 32.900, 0.474 72.500" stroke="none" fill="black" fill-rule="evenodd"/>
</svg>