<svg xmlns="http://www.w3.org/2000/svg" width="192" height="144" viewBox="0 0 192 144" version="1.1">
	<path d="M 51.397 27.167 C 51.170 27.534, 50.708 29.854, 50.369 32.322 C 49.854 36.082, 50.090 37.097, 51.826 38.583 C 52.965 39.559, 53.667 40.730, 53.386 41.185 C 53.104 41.641, 53.872 43.416, 55.093 45.130 C 57.135 47.998, 57.176 48.322, 55.612 49.197 C 54.573 49.779, 54.133 50.842, 54.479 51.933 C 54.799 52.942, 54.355 54.290, 53.457 55.036 C 49.394 58.408, 47.730 65.701, 50.500 68 C 52.232 69.438, 52.522 76.078, 50.922 77.678 C 49.815 78.785, 48.100 84.570, 47.567 89 C 47.402 90.375, 46.758 94.200, 46.136 97.500 C 44.993 103.567, 42.014 134.757, 42.005 140.750 L 42 144 61.107 144 C 76.457 144, 80.115 143.742, 79.711 142.689 C 79.434 141.968, 78.468 136.230, 77.565 129.939 C 76.661 123.647, 75.469 115.800, 74.917 112.500 C 73.638 104.863, 69 87.798, 67.865 86.550 C 66.447 84.993, 66.874 82.430, 69 79.727 C 71.178 76.958, 71.582 72.957, 69.986 69.973 C 69.428 68.930, 68.783 64.798, 68.553 60.789 C 68.324 56.780, 67.828 52.487, 67.451 51.250 C 67.012 49.806, 67.187 49, 67.940 49 C 69.189 49, 75 43.071, 75 41.797 C 75 39.403, 71.268 32.035, 68.633 29.226 C 65.672 26.070, 65.311 25.962, 58.685 26.226 C 54.904 26.377, 51.624 26.800, 51.397 27.167" stroke="none" fill="black" fill-rule="evenodd"/>
</svg>