<svg xmlns="http://www.w3.org/2000/svg" width="192" height="144" viewBox="0 0 192 144" version="1.1">
	<path d="M 88.625 26.708 C 88.268 27.065, 88.245 28.789, 88.573 30.539 C 89.015 32.896, 88.764 33.877, 87.602 34.323 C 86.689 34.673, 86.280 35.567, 86.624 36.462 C 86.960 37.339, 86.678 38, 85.967 38 C 84.106 38, 82.068 41.153, 82.032 44.089 C 82.010 45.854, 82.747 47.019, 84.345 47.747 C 86.060 48.529, 87.297 50.703, 88.948 55.837 C 91.174 62.760, 91.105 65.340, 88.718 64.467 C 88.048 64.222, 86.856 64.431, 86.068 64.932 C 83.119 66.808, 89.032 79.576, 93.127 80.172 C 94.886 80.428, 95.643 81.543, 96.590 85.269 C 97.257 87.892, 97.569 90.932, 97.283 92.025 C 96.998 93.117, 97.317 94.677, 97.994 95.492 C 98.991 96.694, 98.702 97.969, 96.468 102.237 C 94.953 105.132, 92.933 110.650, 91.980 114.500 C 89.006 126.515, 87.076 132.301, 84.059 138.250 L 81.142 144 107.679 144 L 134.217 144 133.559 141.250 C 132.056 134.965, 122.579 106.346, 121.390 104.500 C 120.041 102.406, 120.023 100.354, 121.336 98.253 C 122.740 96.004, 122.630 77.468, 121.202 75.745 C 120.049 74.355, 120.776 74.108, 127.702 73.541 C 141.124 72.443, 142.626 72.067, 144.019 69.465 C 145.150 67.351, 145.006 66.604, 142.823 63.280 C 141.458 61.201, 139.815 57.975, 139.174 56.111 C 138.109 53.017, 138.224 52.522, 140.504 50.409 C 143.101 48.002, 143.719 45.562, 142 44.500 C 137.998 42.027, 145.732 41.060, 150 43.500 C 153.421 45.456, 154.745 45.345, 156.002 42.996 C 158.183 38.921, 152.984 27, 149.027 27 C 147.908 27, 146.161 28.756, 144.556 31.494 C 143.107 33.966, 140.497 36.726, 138.755 37.627 C 135.714 39.199, 135.531 39.180, 134.172 37.132 C 133.393 35.960, 131.771 35, 130.567 35 C 127.460 35, 124.045 38.457, 124.695 40.943 C 125.095 42.470, 124.556 43.218, 122.494 44.002 C 120.993 44.573, 118.640 45.925, 117.265 47.006 C 114.277 49.357, 113.104 48.908, 113.726 45.652 C 113.978 44.335, 113.468 41.871, 112.592 40.178 C 111.716 38.485, 111 35.560, 111 33.680 C 111 30.492, 110.702 30.176, 106.602 29.028 C 103.098 28.048, 101.496 28.053, 98.725 29.055 C 95.613 30.180, 94.934 30.089, 92.261 28.186 C 90.618 27.016, 88.982 26.351, 88.625 26.708 M 137 46.500 C 137 47.991, 137.431 48.852, 138 48.500 C 138.550 48.160, 139 47.260, 139 46.500 C 139 45.740, 138.550 44.840, 138 44.500 C 137.431 44.148, 137 45.009, 137 46.500 M 122.128 48.900 C 121.374 49.378, 120.924 50.249, 121.128 50.835 C 121.350 51.472, 122.506 51.125, 124 49.973 C 126.538 48.015, 124.956 47.108, 122.128 48.900 M 112.626 51.795 C 112.317 52.296, 112.624 53.471, 113.308 54.407 C 114.825 56.481, 118.242 55.503, 117.789 53.124 C 117.450 51.346, 113.528 50.336, 112.626 51.795 M 178.443 60.418 C 177.376 61.198, 176.822 62.155, 177.212 62.545 C 177.601 62.935, 177.274 64.503, 176.485 66.029 C 175.208 68.498, 175.228 68.873, 176.661 69.423 C 178.041 69.953, 178.175 71.230, 177.599 78.332 C 176.953 86.288, 177.019 86.669, 179.213 87.784 C 181.611 89.002, 184.644 89.416, 189.250 89.156 L 192 89 192 74 L 192 59 186.191 59 C 182.755 59, 179.590 59.579, 178.443 60.418" stroke="none" fill="black" fill-rule="evenodd"/>
</svg>