<svg xmlns="http://www.w3.org/2000/svg" width="192" height="144" viewBox="0 0 192 144" version="1.1">
	<path d="M 0 72 L 0 144 54.035 144 C 107.760 144, 108.064 143.989, 107 142 C 106.223 140.549, 106.240 140, 107.058 140 C 107.679 140, 108.424 140.905, 108.713 142.011 C 109.231 143.990, 109.895 144.018, 150.869 143.761 L 192.500 143.500 192.757 71.750 L 193.013 0 131.566 0 C 97.234 0, 69.878 0.389, 69.574 0.881 C 68.496 2.624, 63.981 2.787, 63.030 1.116 C 62.241 -0.271, 61.803 -0.311, 59.938 0.832 C 58.379 1.788, 57.458 1.858, 56.682 1.082 C 55.958 0.358, 46.406 0, 27.800 0 L 0 0 0 72 M 0.474 72.500 C 0.474 112.100, 0.598 128.154, 0.750 108.176 C 0.901 88.198, 0.901 55.798, 0.750 36.176 C 0.598 16.554, 0.474 32.900, 0.474 72.500 M 76.750 2.662 C 77.438 2.940, 78.563 2.940, 79.250 2.662 C 79.938 2.385, 79.375 2.158, 78 2.158 C 76.625 2.158, 76.063 2.385, 76.750 2.662 M 82.176 4.870 C 81.107 5.548, 81.169 6.026, 82.498 7.355 C 84.370 9.227, 84.296 9.208, 86.418 8.393 C 88.929 7.430, 88.405 3.997, 85.750 4.015 C 84.513 4.024, 82.904 4.408, 82.176 4.870 M 11.518 12.971 C 11.120 13.615, 11.624 14.741, 12.650 15.497 C 14.967 17.204, 15.850 15.421, 13.734 13.306 C 12.642 12.213, 12.042 12.122, 11.518 12.971 M 130.015 20.750 C 130.024 21.163, 130.467 22.175, 131 23 C 131.784 24.213, 131.972 24.069, 131.985 22.250 C 131.993 21.012, 131.550 20, 131 20 C 130.450 20, 130.007 20.337, 130.015 20.750 M 57.048 26.442 C 56.368 27.262, 56.003 28.509, 56.238 29.214 C 56.508 30.024, 57.123 29.638, 57.913 28.162 C 59.384 25.415, 58.824 24.303, 57.048 26.442 M 38.694 26.639 C 37.895 27.438, 38.798 29, 40.059 29 C 40.577 29, 41 28.325, 41 27.500 C 41 25.954, 39.820 25.513, 38.694 26.639 M 122.704 28.629 C 121.713 29.620, 123.903 33, 125.535 33 C 126.341 33, 127 32.620, 127 32.155 C 127 30.853, 123.419 27.914, 122.704 28.629 M 89.200 34.200 C 87.445 35.955, 87.731 37, 89.965 37 C 91.045 37, 92.411 36.100, 93 35 C 93.890 33.338, 93.760 33, 92.235 33 C 91.226 33, 89.860 33.540, 89.200 34.200 M 134.500 34 C 133.762 35.194, 135.722 35.194, 138.500 34 C 140.286 33.233, 140.212 33.133, 137.809 33.070 C 136.329 33.032, 134.840 33.450, 134.500 34 M 19.210 42.242 C 16.444 43.570, 16.703 46.383, 19.630 46.802 C 21.569 47.080, 22.114 46.318, 23.047 42.025 C 23.255 41.068, 21.442 41.171, 19.210 42.242 M 156.872 50.664 C 155.628 52.172, 155.710 52.216, 157.750 51.129 C 160.077 49.889, 160.650 49, 159.122 49 C 158.640 49, 157.627 49.749, 156.872 50.664 M 25.011 56.487 C 24.273 57.375, 24.094 58.685, 24.564 59.737 C 25.238 61.245, 25.413 61.138, 25.777 59 C 26.010 57.625, 26.719 56.169, 27.351 55.765 C 28.184 55.232, 28.190 55.026, 27.372 55.015 C 26.752 55.007, 25.689 55.669, 25.011 56.487 M 55.745 60.704 C 52.599 62.792, 50.020 64.783, 50.013 65.129 C 49.988 66.377, 56.013 68.213, 58.231 67.632 C 61.119 66.876, 68.216 60.153, 67.720 58.642 C 66.848 55.981, 61.466 56.907, 55.745 60.704 M 99.667 59.667 C 98.697 60.637, 98.850 63, 99.883 63 C 100.369 63, 101.002 62.100, 101.290 61 C 101.804 59.034, 100.978 58.356, 99.667 59.667 M 190 61.441 C 190 62.234, 190.450 63.160, 191 63.500 C 191.550 63.840, 192 63.191, 192 62.059 C 192 60.927, 191.550 60, 191 60 C 190.450 60, 190 60.648, 190 61.441 M 39.036 64.456 C 37.757 65.997, 38.401 68, 40.176 68 C 40.757 68, 41.004 67.122, 40.723 66.048 C 40.442 64.974, 40.727 63.885, 41.356 63.627 C 42.186 63.287, 42.191 63.136, 41.372 63.079 C 40.752 63.036, 39.701 63.655, 39.036 64.456 M 91.556 64.335 C 90.542 65.077, 89.612 67.182, 89.463 69.072 L 89.195 72.474 91.598 69.681 C 92.919 68.145, 94 66.014, 94 64.944 C 94 62.635, 93.911 62.613, 91.556 64.335 M 174 67.500 C 172.712 68.871, 171.884 70.217, 172.159 70.492 C 172.434 70.767, 173.712 69.871, 175 68.500 C 176.288 67.129, 177.116 65.783, 176.841 65.508 C 176.566 65.233, 175.288 66.129, 174 67.500 M 115.570 71.204 C 114.257 73.078, 114.228 73.713, 115.378 75.454 C 117.036 77.965, 120.539 78.643, 121.322 76.604 C 121.961 74.939, 119.354 69, 117.983 69 C 117.505 69, 116.419 69.992, 115.570 71.204 M 73.610 71.530 C 71.771 72.888, 71.770 72.999, 73.562 75.712 L 75.403 78.500 76.358 75.207 C 77.519 71.209, 76.283 69.556, 73.610 71.530 M 101.667 71.667 C 101.300 72.033, 101.014 73.046, 101.030 73.917 C 101.055 75.217, 101.251 75.174, 102.122 73.675 C 103.199 71.823, 102.887 70.447, 101.667 71.667 M 149.446 85.087 C 149.077 85.685, 149.263 86.663, 149.860 87.260 C 151.116 88.516, 156 86.735, 156 85.021 C 156 83.652, 150.298 83.710, 149.446 85.087 M 156.007 87.975 C 155.367 90.351, 155.062 93.128, 155.328 94.147 C 155.669 95.451, 155.272 96, 153.990 96 C 152.987 96, 151.938 95.539, 151.658 94.975 C 151.379 94.411, 151.263 94.524, 151.402 95.225 C 151.541 95.926, 152.828 96.640, 154.263 96.810 C 156.529 97.080, 157.012 96.618, 157.931 93.310 C 159.216 88.681, 159.246 86.937, 158.069 85.078 C 157.407 84.031, 156.863 84.795, 156.007 87.975 M 51 88 C 51 88.550, 51.675 89, 52.500 89 C 53.325 89, 54 88.550, 54 88 C 54 87.450, 53.325 87, 52.500 87 C 51.675 87, 51 87.450, 51 88 M 63.232 93 C 62.083 94.839, 62.233 95, 65.099 95 C 67.529 95, 68.080 94.652, 67.607 93.418 C 67.273 92.548, 67 91.648, 67 91.418 C 67 90.156, 64.300 91.290, 63.232 93 M 183.187 95.173 C 183.359 96.918, 184.024 98.518, 184.665 98.728 C 186.364 99.285, 187.377 95.159, 185.960 93.452 C 183.992 91.080, 182.852 91.787, 183.187 95.173 M 190.649 95.233 C 190.328 96.461, 190.501 97.901, 191.033 98.433 C 191.656 99.056, 192 98.261, 192 96.200 C 192 92.460, 191.473 92.083, 190.649 95.233 M 50.738 101.692 C 49.769 101.945, 49.233 102.567, 49.547 103.076 C 49.861 103.584, 49.727 104, 49.250 104 C 48.773 104, 47.509 104.641, 46.441 105.425 C 44.566 106.802, 44.594 106.886, 47.250 107.900 C 48.762 108.478, 51.340 108.682, 52.978 108.354 C 55.446 107.861, 55.926 107.307, 55.771 105.129 C 55.603 102.751, 54.299 100.870, 53 101.131 C 52.725 101.187, 51.707 101.439, 50.738 101.692 M 143.250 102.703 C 142.563 102.958, 142 103.752, 142 104.467 C 142 106.081, 145.772 107.178, 146.617 105.810 C 147.432 104.491, 144.851 102.110, 143.250 102.703 M 84 105 C 85.970 106.273, 88.287 106.273, 87.500 105 C 87.160 104.450, 85.896 104.007, 84.691 104.015 C 82.910 104.028, 82.781 104.212, 84 105 M 158.558 104.775 C 157.303 106.030, 158.125 108.799, 159.889 109.261 C 162.435 109.927, 164.204 108.694, 163.465 106.769 C 162.839 105.139, 159.536 103.797, 158.558 104.775 M 68.630 112.250 C 67.695 115.740, 67.887 117.204, 69.223 116.759 C 70.543 116.319, 71.269 110, 70 110 C 69.578 110, 68.962 111.013, 68.630 112.250 M 77.162 112.543 C 75.776 115.586, 75.685 117, 76.875 117 C 77.733 117, 79.346 111.012, 78.669 110.336 C 78.480 110.147, 77.802 111.140, 77.162 112.543 M 31 114.531 C 31 115.374, 30.325 116.322, 29.500 116.638 C 27.661 117.344, 27.503 120, 29.300 120 C 30.015 120, 31.140 119.460, 31.800 118.800 C 33.251 117.349, 33.401 113, 32 113 C 31.450 113, 31 113.689, 31 114.531 M 52.657 115.593 C 50.349 118.761, 51.129 123, 54.019 123 C 55.419 123, 56 122.326, 56 120.700 C 56 119.435, 56.510 117.890, 57.133 117.267 C 58.500 115.900, 57.571 112.988, 55.781 113.031 C 55.077 113.049, 53.671 114.201, 52.657 115.593 M 119.222 120 C 118.053 122.961, 118.508 124.126, 120.532 123.349 C 122.170 122.721, 122.216 122.365, 121.035 119.500 C 120.250 117.597, 120.162 117.621, 119.222 120 M 144.682 122.652 C 143.412 123.922, 143.991 127, 145.500 127 C 146.325 127, 146.993 126.438, 146.985 125.750 C 146.962 123.888, 145.463 121.871, 144.682 122.652 M 81 126.882 C 81 128.532, 81.450 130.160, 82 130.500 C 82.582 130.860, 83 129.863, 83 128.118 C 83 126.468, 82.550 124.840, 82 124.500 C 81.418 124.140, 81 125.137, 81 126.882 M 122.607 126.582 C 121.505 129.453, 121.973 131, 123.941 131 C 126.389 131, 127.057 129.933, 126.335 127.174 C 125.673 124.640, 123.485 124.293, 122.607 126.582 M 115.484 129.072 C 114.754 132.396, 115.249 133.582, 116.933 132.541 C 118.237 131.736, 118.365 126, 117.079 126 C 116.573 126, 115.855 127.382, 115.484 129.072" stroke="none" fill="black" fill-rule="evenodd"/>
</svg>