<svg xmlns="http://www.w3.org/2000/svg" width="192" height="144" viewBox="0 0 192 144" version="1.1">
	<path d="M 0.002 25.750 L 0.003 51.500 6.398 44.719 C 9.915 40.990, 14.302 35.400, 16.146 32.298 C 22.777 21.143, 38.786 7.333, 50.828 2.381 L 56.500 0.047 28.250 0.024 L 0 0 0.002 25.750 M 134.442 4.053 C 143.340 12.255, 152.350 26.124, 156.133 37.441 C 157.246 40.774, 158.572 43.927, 159.079 44.450 C 159.585 44.972, 160.014 46.322, 160.032 47.450 C 160.063 49.461, 160.092 49.463, 161.521 47.573 C 163.678 44.722, 164.231 45.541, 165.863 54 C 166.822 58.970, 167.834 61.883, 169.233 63.696 C 170.358 65.155, 174.747 63.729, 176.498 61.334 C 177.439 60.047, 178.069 59.966, 179.829 60.909 C 181.567 61.838, 182 62.975, 182 66.601 C 182 72.886, 181.262 74.082, 169.419 86.970 C 166.624 90.012, 162.437 95.200, 160.113 98.500 C 148.387 115.157, 136.322 124.918, 120.500 130.548 C 117.773 131.518, 112.203 131.962, 103 131.942 C 90.255 131.915, 87.187 131.575, 77.500 129.119 C 71.347 127.559, 57.453 120.057, 51.683 115.179 C 40.385 105.628, 39.646 104.749, 34.795 95.091 C 32.708 90.937, 31 88.106, 31 88.801 C 31 91.233, 37.068 105.772, 39.025 108.028 C 40.111 109.281, 41 110.583, 41 110.921 C 41 111.259, 43.686 114.430, 46.969 117.966 C 50.251 121.503, 52.815 124.519, 52.665 124.668 C 52.355 124.978, 43.107 115.781, 39.925 112 C 37.489 109.104, 30.435 94.792, 29.452 90.750 C 29.084 89.237, 28.413 88, 27.961 88 C 27.509 88, 27.519 89.237, 27.982 90.750 C 32.954 106.980, 39.052 117.029, 51.776 129.961 C 56.916 135.185, 60.644 139.619, 60.061 139.813 C 59.477 140.008, 59 141.032, 59 142.090 C 59 143.972, 60.459 144.009, 125.750 143.757 L 192.500 143.500 192.831 134 C 193.013 128.775, 192.846 96.487, 192.461 62.250 L 191.760 0 160.902 0 L 130.045 0 134.442 4.053 M 1.063 104.250 L 1 144 26.500 144 L 52 144 52 141.077 C 52 138.742, 50.845 137.191, 46.250 133.360 C 29.493 119.387, 20.415 104.569, 16.010 84 C 15.362 80.975, 14.359 76.959, 13.780 75.075 C 12.799 71.876, 12.639 71.773, 11.365 73.516 C 10.614 74.542, 10 76.196, 10 77.191 C 10 80.799, 8.080 78.851, 4.639 71.750 L 1.126 64.500 1.063 104.250 M 60.008 129.724 C 60.017 130.637, 65.162 133.172, 65.770 132.563 C 65.999 132.335, 64.794 131.428, 63.093 130.548 C 61.392 129.668, 60.004 129.298, 60.008 129.724" stroke="none" fill="black" fill-rule="evenodd"/>
</svg>