<svg xmlns="http://www.w3.org/2000/svg" width="192" height="144" viewBox="0 0 192 144" version="1.1">
	<path d="M 0 72 L 0 144 23 144 C 37.305 144, 46 143.631, 46 143.023 C 46 141.593, 41.991 139.334, 38.227 138.642 C 36.427 138.311, 33.285 136.907, 31.245 135.520 C 29.110 134.070, 26.118 133, 24.196 133 C 21.216 133, 12 128.661, 12 127.258 C 12 126.955, 13.574 124.335, 15.498 121.437 C 18.288 117.234, 19.958 115.816, 23.748 114.434 C 44.245 106.959, 47.389 105.235, 55.454 97.046 L 60.403 92.022 58.697 87.261 C 56.559 81.299, 56.577 80.306, 59 70.500 C 61.393 60.813, 61.506 58, 59.500 58 C 58.675 58, 58 57.580, 58 57.067 C 58 56.554, 57.212 55.884, 56.250 55.578 C 55.288 55.272, 53.224 53.838, 51.664 52.391 C 49.227 50.130, 48.384 49.886, 45.664 50.660 C 43.110 51.387, 42.238 52.383, 41.140 55.829 C 39.672 60.435, 36.824 62.882, 31.725 63.918 C 29.289 64.414, 28.415 65.177, 28.154 67.037 C 27.676 70.442, 26.176 72, 23.378 72 C 21.882 72, 21 72.583, 21 73.573 C 21 76.293, 17.698 74.681, 16.753 71.500 C 16.263 69.850, 15.843 64.225, 15.821 59 C 15.786 50.704, 16.155 48.597, 18.730 42.376 C 20.352 38.457, 23.777 32.097, 26.340 28.241 C 28.903 24.386, 31 20.970, 31 20.650 C 31 20.331, 29.603 18.479, 27.896 16.535 C 24.040 12.143, 24.775 11.985, 29.551 16.179 C 33.102 19.297, 33.224 19.325, 35.836 17.650 C 41.458 14.045, 51.729 9.158, 56.933 7.612 C 65.729 5, 82.486 5.930, 86.750 9.267 C 88.470 10.613, 88.323 13, 86.520 13 C 85.707 13, 84.133 14.779, 83.023 16.954 C 81.407 20.122, 80.294 21.042, 77.424 21.580 C 72.775 22.452, 70.535 26.455, 73.487 28.614 C 74.536 29.382, 76.319 29.786, 77.448 29.514 C 78.576 29.241, 78.949 29.273, 78.275 29.584 C 77.380 29.998, 77.569 30.869, 78.978 32.825 C 82.555 37.789, 82.589 40.664, 79.107 43.719 C 77.398 45.218, 76 47.155, 76 48.023 C 76 50.281, 73.969 52, 71.300 52 C 70.035 52, 69 52.450, 69 53 C 69 53.550, 69.406 54, 69.903 54 C 71.948 54, 81.064 64.690, 82.040 68.233 C 82.626 70.362, 84.020 72.457, 85.284 73.110 C 86.503 73.739, 88.875 75.810, 90.556 77.713 C 93.303 80.823, 93.747 81.009, 94.953 79.557 C 96.075 78.205, 96.071 77.497, 94.929 75.220 C 94.178 73.724, 93.400 72.162, 93.199 71.750 C 92.535 70.388, 94.828 70.971, 96.429 72.571 C 98.418 74.561, 98.470 80.365, 96.513 81.989 C 95.649 82.707, 93.955 82.955, 92.469 82.581 C 90.536 82.096, 88.822 82.722, 85.456 85.139 C 83.005 86.899, 81 88.458, 81 88.604 C 81 88.750, 81.489 90.137, 82.086 91.685 C 82.683 93.233, 83.396 101.021, 83.669 108.992 C 83.976 117.957, 84.586 123.744, 85.268 124.166 C 86.020 124.631, 86.050 125.270, 85.362 126.174 C 84.785 126.933, 84.537 131.034, 84.783 135.759 L 85.213 144.017 138.856 143.759 L 192.500 143.500 192.757 71.750 L 193.013 0 96.507 0 L 0 0 0 72 M 0.474 72.500 C 0.474 112.100, 0.598 128.154, 0.750 108.176 C 0.901 88.198, 0.901 55.798, 0.750 36.176 C 0.598 16.554, 0.474 32.900, 0.474 72.500 M 116.496 6.007 C 115.736 7.236, 118.488 8.434, 119.968 7.520 C 120.554 7.158, 120.774 6.443, 120.457 5.931 C 119.694 4.696, 117.277 4.742, 116.496 6.007 M 124 21 C 124 21.550, 124.477 22, 125.059 22 C 125.641 22, 125.840 21.550, 125.500 21 C 125.160 20.450, 124.684 20, 124.441 20 C 124.198 20, 124 20.450, 124 21 M 88 37 C 88 37.550, 88.423 38, 88.941 38 C 89.459 38, 90.160 37.550, 90.500 37 C 90.840 36.450, 90.416 36, 89.559 36 C 88.702 36, 88 36.450, 88 37 M 134.425 47.879 C 135.159 49.066, 139 50.018, 139 49.013 C 139 48.184, 136.565 47, 134.859 47 C 134.322 47, 134.127 47.396, 134.425 47.879 M 81.079 76.583 C 81.127 77.748, 81.364 77.985, 81.683 77.188 C 81.972 76.466, 81.936 75.603, 81.604 75.271 C 81.272 74.939, 81.036 75.529, 81.079 76.583 M 41 78.622 C 41 80.792, 41.249 81.038, 42.441 80.049 C 43.233 79.392, 43.635 78.212, 43.334 77.427 C 42.432 75.078, 41 75.812, 41 78.622 M 163 82.742 C 163 84.366, 166.150 88, 167.557 88 C 170.268 88, 168.858 85.015, 165.250 83.115 C 164.012 82.463, 163 82.295, 163 82.742 M 96.813 89.683 C 97.534 89.972, 98.397 89.936, 98.729 89.604 C 99.061 89.272, 98.471 89.036, 97.417 89.079 C 96.252 89.127, 96.015 89.364, 96.813 89.683 M 128.345 99.543 C 128.019 100.392, 128.004 101.337, 128.310 101.643 C 129.186 102.519, 131 101.034, 131 99.441 C 131 97.522, 129.092 97.596, 128.345 99.543 M 159.706 103.151 C 161.645 105.089, 162.164 105.175, 164.961 104.016 C 166.668 103.309, 167.863 102.530, 167.618 102.284 C 167.372 102.039, 166.195 102.360, 165.002 102.999 C 163.260 103.931, 162.491 103.849, 161.088 102.580 C 158.447 100.190, 157.243 100.687, 159.706 103.151 M 190 103 C 190 103.550, 190.477 104, 191.059 104 C 191.641 104, 191.840 103.550, 191.500 103 C 191.160 102.450, 190.684 102, 190.441 102 C 190.198 102, 190 102.450, 190 103 M 126.750 110.662 C 127.438 110.940, 128.563 110.940, 129.250 110.662 C 129.938 110.385, 129.375 110.158, 128 110.158 C 126.625 110.158, 126.063 110.385, 126.750 110.662 M 10 117.878 C 10 119.098, 10.638 120, 11.500 120 C 12.325 120, 13 119.605, 13 119.122 C 13 118.640, 12.325 117.685, 11.500 117 C 10.247 115.960, 10 116.104, 10 117.878 M 7.431 123.112 C 6.677 124.332, 8.923 126.166, 10.202 125.375 C 10.641 125.104, 11 124.234, 11 123.441 C 11 121.744, 8.423 121.506, 7.431 123.112 M 12.015 136.536 C 12.043 138.257, 13.871 140.463, 14.636 139.697 C 15.046 139.288, 14.620 138.192, 13.690 137.262 C 12.761 136.332, 12.007 136.005, 12.015 136.536 M 191.195 140.500 C 191.215 142.150, 191.439 142.704, 191.693 141.731 C 191.947 140.758, 191.930 139.408, 191.656 138.731 C 191.382 138.054, 191.175 138.850, 191.195 140.500" stroke="none" fill="black" fill-rule="evenodd"/>
</svg>