<svg xmlns="http://www.w3.org/2000/svg" width="192" height="144" viewBox="0 0 192 144" version="1.1">
	<path d="M 134.782 6.428 C 132.526 9.531, 121.297 17, 118.886 17 C 116.517 17, 116.442 18.586, 118.750 19.888 C 121.618 21.506, 119.057 22.862, 112.500 23.195 C 107.224 23.463, 106.463 23.761, 106.192 25.664 C 105.986 27.105, 106.538 28.036, 107.842 28.450 C 109.075 28.841, 110.288 30.724, 111.118 33.536 C 111.843 35.991, 112.788 38, 113.218 38 C 113.648 38, 114 38.637, 114 39.417 C 114 40.196, 114.563 41.063, 115.250 41.343 C 116.095 41.687, 115.728 42.477, 114.114 43.783 C 112.730 44.903, 112.156 45.979, 112.749 46.345 C 114.018 47.129, 114.943 52.917, 113.902 53.560 C 113.482 53.820, 112.862 53.586, 112.525 53.041 C 112.188 52.495, 109.569 50.486, 106.706 48.576 C 103.843 46.665, 99.384 42.910, 96.797 40.230 C 93.463 36.775, 90.480 34.808, 86.547 33.471 C 81.767 31.847, 81 31.234, 80.998 29.043 C 80.996 25.097, 77.789 19.450, 75.746 19.794 C 73.674 20.143, 73.416 17.376, 75.162 13.543 C 75.802 12.140, 76.065 10.732, 75.748 10.415 C 74.695 9.362, 70.921 12.082, 68.950 15.314 C 66.415 19.471, 66.479 24.068, 69.119 27.424 C 72.949 32.294, 74.839 38.786, 73.769 43.397 C 72.675 48.110, 73.465 59.865, 74.977 61.377 C 75.669 62.069, 77.055 61.370, 79.296 59.198 C 82.840 55.762, 85.077 55.227, 87.179 57.310 C 87.905 58.031, 92.550 61.241, 97.500 64.444 C 102.450 67.646, 106.677 70.421, 106.893 70.609 C 107.108 70.798, 106.707 71.648, 106 72.500 C 105.293 73.352, 104.973 74.306, 105.288 74.621 C 105.602 74.936, 104.004 78.187, 101.736 81.847 C 97.587 88.541, 97.580 88.574, 98.001 99 C 98.150 102.686, 97.566 105.117, 95.657 108.750 C 94.088 111.735, 94.212 112.440, 96.250 112.118 C 96.662 112.053, 97 112.873, 97 113.941 C 97 115.009, 97.450 116.160, 98 116.500 C 98.550 116.840, 99 118.415, 99 120 C 99 121.585, 98.550 123.160, 98 123.500 C 97.442 123.845, 97 128.510, 97 134.059 L 97 144 132.882 144 L 168.763 144 169.438 135.750 C 170.200 126.434, 169.279 121.429, 163.040 101 C 156.733 80.346, 156.557 78.832, 158.525 62.147 C 159.542 53.517, 160.863 46.612, 161.757 45.248 C 164.075 41.710, 162.929 31.477, 159.512 25.199 C 156.154 19.029, 148.124 12.312, 142.377 10.865 C 138.349 9.850, 138.127 9.613, 138.671 6.893 C 139.397 3.266, 137.265 3.011, 134.782 6.428 M 135.061 121.750 C 135.095 122.713, 135.971 125.975, 137.008 129 L 138.894 134.500 138.393 129.500 C 137.667 122.273, 137.090 120, 135.981 120 C 135.441 120, 135.027 120.787, 135.061 121.750" stroke="none" fill="black" fill-rule="evenodd"/>
</svg>