<svg xmlns="http://www.w3.org/2000/svg" width="192" height="144" viewBox="0 0 192 144" version="1.1">
	<path d="M 48.106 32.959 C 47.152 37.425, 48.009 41, 50.035 41 C 50.566 41, 51 41.718, 51 42.596 C 51 43.473, 51.788 45.529, 52.750 47.163 C 54.397 49.960, 54.400 50.191, 52.792 51.094 C 51.811 51.644, 51.332 52.703, 51.668 53.577 C 51.990 54.416, 51.409 56.091, 50.377 57.301 C 45.509 63.005, 44.936 66.239, 48.180 69.692 L 50.361 72.013 47.997 79.221 C 46.698 83.186, 45.562 87.121, 45.474 87.965 C 45.385 88.809, 44.794 91.341, 44.161 93.591 C 42.176 100.637, 40.985 107.948, 38.961 125.499 C 37.882 134.848, 37 142.835, 37 143.249 C 37 143.662, 45.833 144, 56.629 144 L 76.258 144 75.643 139.250 C 75.305 136.637, 74.526 128.875, 73.911 122 C 73.296 115.125, 71.714 105.235, 70.396 100.023 C 67.587 88.913, 67.486 86.709, 69.520 80.944 C 70.889 77.062, 70.882 76.161, 69.447 71.840 C 68.571 69.203, 68.119 66.616, 68.443 66.092 C 68.767 65.567, 68.606 64.874, 68.084 64.552 C 67.562 64.229, 67.170 62.727, 67.213 61.214 C 67.256 59.702, 66.551 57.032, 65.646 55.282 C 63.441 51.018, 63.562 50.148, 66.459 49.421 C 73.239 47.719, 72.834 39.054, 65.594 30.928 C 63.097 28.126, 62.599 27.986, 56.010 28.236 L 49.059 28.500 48.106 32.959" stroke="none" fill="black" fill-rule="evenodd"/>
</svg>