<svg xmlns="http://www.w3.org/2000/svg" width="192" height="144" viewBox="0 0 192 144" version="1.1">
	<path d="M 0 72 L 0 144 20.059 144 C 33.177 144, 39.904 143.654, 39.500 143 C 39.160 142.450, 37.626 142, 36.090 142 C 34.554 142, 31.160 140.863, 28.547 139.474 C 24.981 137.578, 22.961 137.104, 20.450 137.575 C 16.323 138.350, 7.104 134.406, 7.041 131.839 C 7.018 130.925, 7.970 127.644, 9.155 124.546 C 11.535 118.327, 14.212 116.319, 30.127 108.813 C 35.260 106.392, 39.984 103.103, 44.569 98.759 L 51.383 92.304 49.830 85.902 C 48.976 82.381, 48.606 78.825, 49.007 78 C 49.408 77.175, 50.041 74.813, 50.414 72.750 C 50.936 69.857, 50.766 69, 49.668 69 C 48.885 69, 47.685 69.675, 47 70.500 C 45.400 72.428, 42.681 72.403, 38.860 70.428 C 37.188 69.563, 35.211 69.089, 34.467 69.374 C 33.723 69.660, 31.797 68.394, 30.188 66.561 C 21.043 56.146, 28.327 31.032, 44.308 17.875 C 48.391 14.514, 49.591 12.966, 48.927 11.917 C 47.365 9.449, 47.927 8.624, 49.934 10.440 C 51.782 12.113, 52.147 12.079, 58.184 9.674 C 66.337 6.427, 75.235 4.855, 81.776 5.506 C 88.797 6.205, 99.128 10.077, 103.394 13.608 C 107.472 16.984, 109.863 23.388, 108.099 26.212 C 107.495 27.181, 107 28.901, 107 30.036 C 107 33.489, 104.218 37.729, 101.505 38.409 C 99.669 38.870, 98.767 39.916, 98.333 42.087 C 97.519 46.154, 92.876 50.613, 88.623 51.411 C 86.033 51.897, 84.613 52.991, 82.978 55.761 L 80.794 59.463 83.147 63.829 C 84.441 66.231, 86.210 68.714, 87.077 69.348 C 87.944 69.982, 89.168 71.400, 89.797 72.500 C 90.932 74.488, 90.939 74.488, 90.970 72.450 C 90.986 71.322, 90.467 69.867, 89.817 69.217 C 88.148 67.548, 89.628 66.446, 91.476 67.980 C 93.675 69.805, 93.512 76.867, 91.250 77.733 C 90.287 78.101, 88.768 79.305, 87.873 80.409 C 86.978 81.512, 83.378 83.380, 79.873 84.560 C 74.149 86.487, 73.540 86.950, 73.893 89.103 C 74.109 90.421, 74.426 97.575, 74.597 105 C 74.768 112.425, 75.215 124.241, 75.589 131.258 L 76.271 144.016 134.385 143.758 L 192.500 143.500 192.757 71.750 L 193.013 0 96.507 0 L 0 0 0 72 M 0.474 72.500 C 0.474 112.100, 0.598 128.154, 0.750 108.176 C 0.901 88.198, 0.901 55.798, 0.750 36.176 C 0.598 16.554, 0.474 32.900, 0.474 72.500 M 106 12.393 C 106 13.342, 108.993 13.820, 109.527 12.956 C 109.852 12.430, 109.191 12, 108.059 12 C 106.927 12, 106 12.177, 106 12.393 M 142.500 22 C 142.840 22.550, 143.316 23, 143.559 23 C 143.802 23, 144 22.550, 144 22 C 144 21.450, 143.523 21, 142.941 21 C 142.359 21, 142.160 21.450, 142.500 22 M 122.750 49.662 C 123.438 49.940, 124.563 49.940, 125.250 49.662 C 125.938 49.385, 125.375 49.158, 124 49.158 C 122.625 49.158, 122.063 49.385, 122.750 49.662 M 75.214 62.044 C 73.014 62.928, 72.988 63.075, 74.505 66.009 C 75.555 68.040, 75.864 70.210, 75.431 72.517 C 74.626 76.805, 76.466 77.845, 80.848 75.579 C 83.610 74.150, 83.825 73.682, 83.292 70.256 C 82.725 66.616, 79.567 60.935, 78.182 61.063 C 77.807 61.098, 76.472 61.540, 75.214 62.044 M 163.813 73.683 C 164.534 73.972, 165.397 73.936, 165.729 73.604 C 166.061 73.272, 165.471 73.036, 164.417 73.079 C 163.252 73.127, 163.015 73.364, 163.813 73.683 M 103 86.500 C 102.306 87.337, 102.197 88, 102.755 88 C 103.305 88, 104.315 87.325, 105 86.500 C 105.694 85.663, 105.803 85, 105.245 85 C 104.695 85, 103.685 85.675, 103 86.500 M 188.813 88.683 C 189.534 88.972, 190.397 88.936, 190.729 88.604 C 191.061 88.272, 190.471 88.036, 189.417 88.079 C 188.252 88.127, 188.015 88.364, 188.813 88.683 M 12 96.300 C 12 99.384, 17.055 101.337, 18.594 98.848 C 19.442 97.475, 16.364 95, 13.809 95 C 12.814 95, 12 95.585, 12 96.300 M 135 137 C 135 137.550, 135.450 138, 136 138 C 136.550 138, 137 137.550, 137 137 C 137 136.450, 136.550 136, 136 136 C 135.450 136, 135 136.450, 135 137 M 126 139.941 C 126 141.073, 126.450 142, 127 142 C 127.550 142, 128 141.352, 128 140.559 C 128 139.766, 127.550 138.840, 127 138.500 C 126.450 138.160, 126 138.809, 126 139.941" stroke="none" fill="black" fill-rule="evenodd"/>
</svg>