<svg xmlns="http://www.w3.org/2000/svg" width="192" height="144" viewBox="0 0 192 144" version="1.1">
	<path d="M 0 72 L 0 144 36 144 C 59.333 144, 72 143.648, 72 143 C 72 142.450, 71.662 142, 71.250 141.999 C 70.838 141.998, 69.283 139.831, 67.796 137.183 C 65.151 132.474, 64.959 129.211, 67.162 126.377 C 67.642 125.759, 67.751 124.516, 67.405 123.614 C 67.059 122.712, 67.331 121.306, 68.010 120.488 C 68.931 119.378, 68.971 118.306, 68.166 116.251 C 67.065 113.443, 66.580 109.347, 66.849 105.156 C 66.943 103.700, 67.788 102.607, 69.081 102.269 C 70.509 101.895, 71.010 101.144, 70.677 99.874 C 70.411 98.856, 71.121 96.845, 72.254 95.404 C 73.769 93.478, 74.440 90.829, 74.789 85.393 C 75.050 81.327, 75.583 78, 75.973 78 C 76.364 78, 77.247 76.120, 77.935 73.822 C 78.624 71.525, 79.849 68.635, 80.657 67.400 C 81.878 65.538, 81.947 63.854, 81.065 57.509 C 78.285 37.524, 78.746 20, 82.052 20 C 82.545 20, 83.736 21.462, 84.698 23.250 C 86.124 25.900, 86.514 29.729, 86.809 44 C 87.008 53.625, 87.583 61.927, 88.086 62.450 C 88.639 63.025, 89 50.878, 89 31.700 L 89 0 44.500 0 L 0 0 0 72 M 88.195 77.500 C 88.215 79.150, 88.439 79.704, 88.693 78.731 C 88.947 77.758, 88.930 76.408, 88.656 75.731 C 88.382 75.054, 88.175 75.850, 88.195 77.500 M 85.720 87.628 C 84.192 88.435, 83.230 89.563, 83.583 90.135 C 84.024 90.847, 84.568 90.832, 85.313 90.087 C 88.750 86.650, 89 88.438, 89 116.500 L 89 144 98.122 144 C 106.498 144, 107.133 143.865, 105.872 142.344 C 105.067 141.373, 104.426 137.964, 104.320 134.094 C 104.222 130.467, 104.081 126.263, 104.008 124.750 C 103.755 119.520, 104.193 116.492, 105.499 114.430 C 107.066 111.956, 106.869 104.469, 105.191 102.791 C 104.536 102.136, 104 100.655, 104 99.500 C 104 96.544, 102.112 95, 98.496 95 C 96.292 95, 94.502 94.058, 92.319 91.750 C 90.629 89.963, 89.078 87.974, 88.873 87.331 C 88.602 86.480, 87.743 86.561, 85.720 87.628 M 99.750 126.742 C 97.260 127.318, 97.582 129.655, 100.250 130.370 C 103.279 131.182, 104 131.147, 104 130.191 C 104 128.458, 101.413 126.358, 99.750 126.742 M 67.407 130.513 C 67.027 132.027, 67.318 133.679, 68.138 134.669 C 69.361 136.145, 69.557 136.017, 70.063 133.406 C 71.067 128.227, 68.644 125.587, 67.407 130.513 M 72.079 133.583 C 72.127 134.748, 72.364 134.985, 72.683 134.188 C 72.972 133.466, 72.936 132.603, 72.604 132.271 C 72.272 131.939, 72.036 132.529, 72.079 133.583" stroke="none" fill="black" fill-rule="evenodd"/>
</svg>