<svg xmlns="http://www.w3.org/2000/svg" width="192" height="144" viewBox="0 0 192 144" version="1.1">
	<path d="M 0.027 72 L -0.024 144 30.507 144 L 61.038 144 60.408 141.250 C 60.062 139.738, 58.474 137.375, 56.880 136 C 53.925 133.451, 53.148 130.645, 55.068 129.458 C 55.656 129.095, 55.885 128.143, 55.578 127.343 C 54.869 125.494, 57.707 122.689, 66.500 116.549 C 77.374 108.955, 80.489 105.693, 92.759 89.049 C 94.654 86.478, 91.706 81, 88.427 81 C 85.234 81, 85.339 79.622, 88.647 78.115 L 91.295 76.909 90.634 66.823 C 90.200 60.200, 90.339 56.297, 91.039 55.453 C 91.835 54.494, 91.608 54.010, 90.142 53.545 C 87.731 52.780, 84.650 48.334, 85.967 47.520 C 86.487 47.199, 86.681 46.333, 86.399 45.597 C 86.116 44.861, 86.571 43.995, 87.409 43.673 C 88.247 43.352, 90.320 40.631, 92.015 37.627 C 96.011 30.547, 98.939 28.620, 104.715 29.271 C 112.179 30.113, 117.865 37.647, 115.031 42.941 C 114.425 44.074, 113.052 45, 111.978 45 C 110.693 45, 109.527 46.195, 108.564 48.500 C 107.760 50.425, 106.404 52, 105.551 52 C 103.231 52, 103.677 53.558, 106.532 55.429 C 107.925 56.342, 110.191 59.636, 111.568 62.750 C 113.705 67.582, 113.901 68.824, 112.908 71.222 C 111.283 75.144, 112.257 79.672, 116.029 85.740 C 118.669 89.987, 119.571 90.765, 120.981 90.010 C 122.265 89.323, 124.071 89.969, 128.068 92.544 C 131.019 94.445, 134.604 96, 136.035 96 C 141.822 96, 150.443 99.495, 180 113.826 C 182.488 115.032, 182.485 115.036, 179.500 114.544 C 169.769 112.942, 148.977 108.796, 146 107.866 C 144.075 107.264, 139.877 105.461, 136.672 103.861 C 133.466 102.260, 128.227 100.593, 125.031 100.156 C 121.834 99.719, 118.462 98.605, 117.538 97.680 C 116.613 96.756, 114.950 96, 113.841 96 C 112.076 96, 111.895 96.468, 112.394 99.750 C 112.707 101.813, 113.450 107.325, 114.046 112 C 114.641 116.675, 115.999 124.529, 117.064 129.453 C 118.129 134.377, 119 139.670, 119 141.216 L 119 144.025 155.750 143.762 L 192.500 143.500 192.717 71.750 L 192.934 -0 169.128 -0 L 145.321 0 144.182 2.500 C 143.555 3.875, 142.531 5, 141.906 5 C 141.192 5, 141.378 4.073, 142.408 2.500 L 144.046 0 72.062 0 L 0.078 0 0.027 72 M 0.382 12.500 C 0.384 19.100, 0.546 21.670, 0.741 18.211 C 0.937 14.752, 0.936 9.352, 0.738 6.211 C 0.540 3.070, 0.380 5.900, 0.382 12.500 M 0.469 85.500 C 0.469 117.950, 0.595 131.080, 0.750 114.678 C 0.904 98.277, 0.904 71.727, 0.749 55.678 C 0.595 39.630, 0.469 53.050, 0.469 85.500 M 50 28.441 C 50 29.234, 50.450 30.160, 51 30.500 C 51.550 30.840, 52 30.191, 52 29.059 C 52 27.927, 51.550 27, 51 27 C 50.450 27, 50 27.648, 50 28.441 M 132.226 31.579 C 133.176 32.570, 134.168 33.166, 134.431 32.903 C 134.694 32.640, 133.917 31.829, 132.705 31.100 C 130.598 29.835, 130.577 29.857, 132.226 31.579 M 131.084 36.316 C 130.488 36.912, 130 37.760, 130 38.200 C 130 39.530, 133.675 39.097, 134.899 37.622 C 135.795 36.542, 135.623 36.135, 134.105 35.738 C 133.040 35.459, 131.681 35.719, 131.084 36.316 M 15 51 C 15 51.550, 15.450 52, 16 52 C 16.550 52, 17 51.550, 17 51 C 17 50.450, 16.550 50, 16 50 C 15.450 50, 15 50.450, 15 51 M 9.583 56.866 C 9.152 57.563, 9.070 58.403, 9.400 58.733 C 10.295 59.628, 11.271 58.312, 10.787 56.862 C 10.449 55.846, 10.213 55.846, 9.583 56.866 M 5 79 C 5 79.550, 5.450 80, 6 80 C 6.550 80, 7 79.550, 7 79 C 7 78.450, 6.550 78, 6 78 C 5.450 78, 5 78.450, 5 79 M 169 122.500 C 169 123.325, 169.730 124, 170.622 124 C 171.951 124, 172.020 123.729, 171 122.500 C 170.315 121.675, 169.585 121, 169.378 121 C 169.170 121, 169 121.675, 169 122.500 M 170.813 133.683 C 171.534 133.972, 172.397 133.936, 172.729 133.604 C 173.061 133.272, 172.471 133.036, 171.417 133.079 C 170.252 133.127, 170.015 133.364, 170.813 133.683" stroke="none" fill="black" fill-rule="evenodd"/>
</svg>