<svg xmlns="http://www.w3.org/2000/svg" width="192" height="144" viewBox="0 0 192 144" version="1.1">
	<path d="M -0 72.005 L -0 144.010 96.250 143.755 L 192.500 143.500 192.757 71.750 L 193.013 0 96.507 0 L 0 0 -0 72.005 M 0.474 72.500 C 0.474 112.100, 0.598 128.154, 0.750 108.176 C 0.901 88.198, 0.901 55.798, 0.750 36.176 C 0.598 16.554, 0.474 32.900, 0.474 72.500 M 80.389 60.513 C 80.916 72.422, 88.157 85.187, 97.775 91.160 C 103.893 94.960, 105.444 91.868, 102.171 82.397 C 100.178 76.633, 84.240 55.989, 82.337 56.708 C 81.698 56.949, 80.928 56.326, 80.626 55.323 C 80.325 54.321, 80.218 56.656, 80.389 60.513" stroke="none" fill="black" fill-rule="evenodd"/>
</svg>