<svg xmlns="http://www.w3.org/2000/svg" width="192" height="144" viewBox="0 0 192 144" version="1.1">
	<path d="M 152 1.351 C 152 4.033, 154.304 9.532, 156.043 11 C 157.738 12.431, 157.706 12.824, 155.360 19.500 C 154.007 23.350, 152.199 28.750, 151.341 31.500 C 150.484 34.250, 149.415 37.400, 148.966 38.500 C 145.970 45.838, 142.921 58.660, 142.545 65.500 C 142.191 71.950, 141.782 73.567, 140.433 73.846 C 138.604 74.225, 131.892 72.640, 125.293 70.272 C 121.316 68.844, 116 69.140, 116 70.789 C 116 71.203, 122.093 73.102, 129.540 75.010 C 141.442 78.060, 143.063 78.723, 142.940 80.490 C 142.862 81.595, 143.128 83.536, 143.529 84.801 C 144.159 86.785, 144.827 87.061, 148.375 86.801 C 152.016 86.535, 152.549 86.173, 152.995 83.661 C 153.346 81.688, 154.430 80.432, 156.553 79.542 C 159.225 78.422, 159.894 78.495, 161.914 80.131 C 164.965 82.602, 165.750 82.489, 165.750 79.578 C 165.750 78.121, 167.680 74.921, 170.595 71.544 L 175.440 65.932 177.198 68.216 C 179.444 71.135, 179.440 71.219, 176.607 79.308 C 175.198 83.334, 172.726 87.785, 170.559 90.199 C 168.543 92.444, 167.106 94.834, 167.366 95.511 C 167.625 96.187, 165.427 100.061, 162.480 104.120 C 159.534 108.179, 155.446 114.425, 153.397 118 C 151.347 121.575, 147.044 128.686, 143.835 133.802 C 140.626 138.919, 138 143.306, 138 143.552 C 138 143.799, 150.182 144, 165.072 144 L 192.144 144 191.822 77.250 L 191.500 10.500 189.247 6.283 C 188.007 3.964, 186.125 1.602, 185.062 1.033 C 183.971 0.449, 176.366 -0, 167.566 -0 C 155.160 -0, 152 0.274, 152 1.351 M 159.133 34.339 C 158.522 35.076, 156.413 40.588, 154.447 46.589 C 151.520 55.523, 150.877 58.964, 150.901 65.578 C 150.939 75.882, 151.438 77.209, 155.061 76.638 C 159.030 76.012, 159.756 75.402, 162.149 70.682 C 163.315 68.382, 165.559 65.022, 167.135 63.215 C 170.194 59.707, 170.594 58.485, 169 57.500 C 167.486 56.564, 167.803 50.282, 169.532 46.938 C 170.997 44.106, 170.963 43.936, 168.782 43.097 C 167.527 42.615, 165.197 40.146, 163.605 37.610 C 162.013 35.075, 160.605 33, 160.477 33 C 160.350 33, 159.745 33.603, 159.133 34.339 M 94.136 47.073 C 92.247 47.830, 91.921 48.470, 92.516 50.260 C 93.658 53.700, 93.041 62.620, 90.701 76.500 C 89.866 81.450, 88.888 88.057, 88.528 91.182 L 87.873 96.864 91.178 97.182 C 95.386 97.587, 96.059 100.197, 92.387 101.870 C 87.897 103.915, 91.269 105.400, 99.750 105.111 C 102.816 105.006, 104.581 103, 101.607 103 C 100.162 103, 99 100.926, 99 98.347 C 99 97.310, 99.837 96.955, 101.750 97.178 C 104.223 97.468, 104.493 97.197, 104.430 94.500 C 104.391 92.850, 104.001 88.906, 103.563 85.735 L 102.766 79.970 111.633 80.432 C 121.318 80.937, 120.404 80.473, 109.742 79.473 C 104.353 78.968, 102.763 78.426, 101.893 76.800 C 100.369 73.952, 99.697 55.070, 101.061 53.426 C 102.202 52.052, 100.788 48.226, 98.600 46.765 C 97.264 45.873, 97.107 45.884, 94.136 47.073 M 124.083 81.356 C 125.208 82.318, 131 82.836, 131 81.975 C 131 81.439, 129.350 81, 127.333 81 C 125.317 81, 123.854 81.160, 124.083 81.356" stroke="none" fill="black" fill-rule="evenodd"/>
</svg>