<svg xmlns="http://www.w3.org/2000/svg" width="192" height="144" viewBox="0 0 192 144" version="1.1">
	<path d="M 0 72 L 0 144 31 144 C 48.050 144, 62 143.795, 62 143.545 C 62 142.793, 54.271 125.469, 51.469 119.939 C 50.034 117.107, 48.904 113.600, 48.958 112.145 C 49.075 108.952, 49.676 103.500, 49.911 103.500 C 50.004 103.500, 50.225 101.124, 50.404 98.219 C 50.792 91.893, 51.228 91.327, 54.543 92.838 C 58.526 94.653, 60.021 94.239, 61.146 91.010 C 62.103 88.267, 71.101 80, 73.131 80 C 73.609 80, 74 75.002, 74 68.893 C 74 59.248, 73.795 57.865, 72.442 58.384 C 71.585 58.713, 69.184 58.114, 67.106 57.054 C 63.753 55.343, 63.378 54.782, 63.777 52.063 C 64.025 50.378, 64.765 49, 65.422 49 C 66.080 49, 67.451 48.390, 68.471 47.645 C 70.248 46.346, 70.215 46.148, 67.662 42.801 C 63.512 37.361, 64.641 32.881, 70.534 31.402 C 71.851 31.072, 73.216 29.896, 73.567 28.790 C 74.632 25.433, 80.934 19.174, 84.316 18.114 C 86.067 17.565, 90.538 16.812, 94.251 16.441 C 100.295 15.837, 101.569 16.044, 106.402 18.408 C 109.371 19.861, 112.965 22.577, 114.389 24.443 C 115.813 26.310, 118.558 28.359, 120.489 28.997 C 125.346 30.599, 126.053 33.872, 122.616 38.833 C 119.379 43.504, 119.376 44.105, 122.576 47.908 C 125.446 51.319, 125.456 54.497, 122.596 54.505 C 120.791 54.510, 118.517 58.410, 119.445 59.911 C 119.692 60.310, 120.418 66.681, 121.059 74.068 C 121.729 81.800, 122.762 88.137, 123.491 89 C 126.194 92.198, 128.128 97.326, 128.140 101.324 C 128.147 103.621, 128.665 106.981, 129.292 108.790 C 130.155 111.285, 130.144 112.540, 129.243 113.983 C 128.305 115.485, 128.368 116.637, 129.546 119.456 C 131.001 122.938, 130.976 123.054, 128.519 124.173 C 126.262 125.202, 126.001 125.903, 126.011 130.911 C 126.017 133.985, 126.302 138.194, 126.644 140.263 L 127.266 144.027 159.883 143.763 L 192.500 143.500 192.757 71.750 L 193.013 0 96.507 0 L 0 0 0 72 M 0.474 72.500 C 0.474 112.100, 0.598 128.154, 0.750 108.176 C 0.901 88.198, 0.901 55.798, 0.750 36.176 C 0.598 16.554, 0.474 32.900, 0.474 72.500 M 119 32.868 C 119 35.424, 120.949 36.690, 122.096 34.878 C 123.263 33.032, 122.699 31.571, 120.667 31.177 C 119.556 30.961, 119 31.525, 119 32.868 M 69.250 34.084 C 66.763 35.025, 66.485 36.168, 68.035 39.066 C 69.584 41.961, 70.699 41.416, 71.453 37.398 C 72.255 33.124, 72.161 32.983, 69.250 34.084 M 70 107.500 C 69.477 108.875, 68.363 110, 67.525 110 C 66.667 110, 66 110.874, 66 112 C 66 113.129, 65.333 114, 64.469 114 C 61.742 114, 61.850 116.507, 65 126.343 C 67.574 134.377, 68.436 136, 70.130 136 C 72.088 136, 72.153 135.517, 71.833 123.250 C 71.650 116.237, 71.886 109.263, 72.358 107.750 C 73.470 104.189, 71.345 103.963, 70 107.500 M 126.079 119.583 C 126.127 120.748, 126.364 120.985, 126.683 120.188 C 126.972 119.466, 126.936 118.603, 126.604 118.271 C 126.272 117.939, 126.036 118.529, 126.079 119.583" stroke="none" fill="black" fill-rule="evenodd"/>
</svg>