<svg xmlns="http://www.w3.org/2000/svg" width="192" height="144" viewBox="0 0 192 144" version="1.1">
	<path d="M -0 72.005 L -0 144.010 96.250 143.755 L 192.500 143.500 192.757 71.750 L 193.013 0 96.507 0 L 0 0 -0 72.005 M 0.474 72.500 C 0.474 112.100, 0.598 128.154, 0.750 108.176 C 0.901 88.198, 0.901 55.798, 0.750 36.176 C 0.598 16.554, 0.474 32.900, 0.474 72.500 M 83.322 37.123 C 83.592 38.155, 83.405 39, 82.906 39 C 80.669 39, 82.341 41.830, 85.750 43.812 C 91.082 46.913, 94 49.579, 94 51.351 C 94 54.226, 92.197 54.003, 91.149 50.999 C 89.994 47.684, 88.860 47.259, 87.036 49.456 C 85.693 51.075, 86.429 53, 88.391 53 C 89.091 53, 90.167 54.638, 90.781 56.639 C 91.731 59.733, 91.599 60.865, 89.904 64.188 C 88.807 66.338, 87.276 68.340, 86.502 68.637 C 85.084 69.182, 62.121 67.374, 56.712 66.292 C 54.239 65.798, 53.852 65.997, 54.159 67.605 C 54.374 68.731, 55.531 69.640, 57.010 69.846 C 58.380 70.036, 60.125 70.706, 60.889 71.334 C 61.653 71.962, 63.302 72.341, 64.553 72.178 C 65.805 72.014, 69.162 73.062, 72.014 74.507 C 77.712 77.394, 79.631 77.172, 75.892 74.058 L 73.500 72.067 81.215 72.033 C 88.047 72.004, 89.058 72.240, 90.054 74.100 C 91.020 75.906, 91.771 76.111, 95.415 75.565 C 100.766 74.763, 103 75.610, 103 78.440 C 103 80.247, 103.565 80.667, 106 80.667 C 108.476 80.667, 109 80.259, 109 78.333 C 109 75.225, 110.840 75.023, 121 77.017 C 124.025 77.611, 128.627 78.783, 131.227 79.621 C 135.492 80.996, 136.174 80.992, 138.200 79.573 C 139.435 78.708, 141.245 78, 142.223 78 C 143.880 78, 144.494 76.373, 144.052 73.150 C 143.950 72.407, 142.273 70.207, 140.326 68.259 L 136.786 64.719 126.468 65.386 C 119.775 65.819, 115.928 65.693, 115.516 65.027 C 115.136 64.411, 116.205 63.953, 118.191 63.883 C 120.679 63.795, 120.146 63.542, 116.046 62.862 C 113.046 62.365, 110.241 61.405, 109.811 60.729 C 108.515 58.688, 108.903 55.251, 110.500 54.638 C 112.632 53.820, 112.356 51.261, 110 50 C 108.900 49.411, 108 48.319, 108 47.573 C 108 46.827, 106.200 45.497, 104 44.617 C 99.808 42.939, 99.453 42.412, 100.939 40.064 C 101.679 38.895, 102.131 38.864, 103.376 39.897 C 104.216 40.594, 105.713 41, 106.702 40.798 C 108.027 40.528, 107.294 39.717, 103.912 37.716 C 98.442 34.478, 96.123 34.329, 92.727 37 C 89.758 39.336, 88 39.565, 88 37.617 C 88 36.856, 86.837 36.011, 85.415 35.739 C 83.269 35.329, 82.914 35.563, 83.322 37.123 M 103 56.500 C 103 57.325, 103.395 58, 103.878 58 C 104.360 58, 105.315 57.325, 106 56.500 C 107.040 55.247, 106.896 55, 105.122 55 C 103.902 55, 103 55.638, 103 56.500 M 93.098 63.559 C 90.201 68.468, 90.472 69.451, 94 66.842 C 95.650 65.622, 97 63.835, 97 62.871 C 97 59.651, 95.218 59.965, 93.098 63.559 M 110 65 C 110 65.550, 110.477 66, 111.059 66 C 111.641 66, 111.840 65.550, 111.500 65 C 111.160 64.450, 110.684 64, 110.441 64 C 110.198 64, 110 64.450, 110 65" stroke="none" fill="black" fill-rule="evenodd"/>
</svg>