<svg xmlns="http://www.w3.org/2000/svg" width="192" height="144" viewBox="0 0 192 144" version="1.1">
	<path d="M 0 72 L 0 144 42.500 144 L 85 144 85 141.882 C 85 140.717, 83.650 138.226, 82 136.347 C 80.350 134.468, 79 132.037, 79 130.945 C 79 129.854, 77.782 127.057, 76.293 124.730 C 74.804 122.404, 73.704 119.734, 73.848 118.798 C 73.992 117.862, 73.439 116.062, 72.620 114.798 C 69.935 110.655, 66.408 94.354, 65.198 80.500 C 64.273 69.894, 65.480 49.106, 67.492 41 C 70.522 28.797, 72.193 23.501, 74.597 18.484 C 75.919 15.725, 77 12.755, 77 11.884 C 77 11.013, 78.350 8.436, 80 6.159 C 81.650 3.881, 83 1.563, 83 1.009 C 83 0.347, 68.738 0, 41.500 0 L 0 0 0 72 M 115.627 7.746 C 119.407 12.006, 123.325 16.394, 124.334 17.496 C 125.342 18.598, 133.667 27.968, 142.834 38.318 L 159.500 57.136 164.360 56.519 C 167.033 56.180, 170.390 55.136, 171.820 54.201 C 173.754 52.935, 176.605 52.500, 182.960 52.500 L 191.500 52.500 191.767 26.250 L 192.033 -0 150.394 -0 L 108.755 -0 115.627 7.746 M 189.473 87.355 C 178.507 94.885, 170.081 97.053, 166.925 93.156 C 165.605 91.526, 163.896 90.833, 160.851 90.694 L 156.613 90.500 144.883 107 C 138.432 116.075, 129.947 128.113, 126.028 133.750 L 118.901 144 155.451 144 L 192 144 192 115 C 192 99.050, 191.875 86, 191.723 86 C 191.570 86, 190.557 86.610, 189.473 87.355" stroke="none" fill="black" fill-rule="evenodd"/>
</svg>