<svg xmlns="http://www.w3.org/2000/svg" width="192" height="144" viewBox="0 0 192 144" version="1.1">
	<path d="M 80.398 71.890 C 74.468 73.414, 68.531 77.471, 65.500 82.070 L 62.500 86.623 52.145 86.176 C 40.169 85.659, 31.518 87.163, 29.984 90.030 C 27.782 94.144, 34.044 105.231, 45.890 118.190 L 51.091 123.880 49.453 129.514 C 47.617 135.828, 48.055 137.631, 50.382 133.338 L 51.920 130.500 51.960 134.007 C 51.982 135.935, 51.581 138.973, 51.070 140.757 C 50.025 144.400, 51.374 145.193, 53.608 142.250 C 54.873 140.583, 54.938 140.583, 54.968 142.250 C 54.998 143.889, 57.703 144, 97.500 144 L 140 144 140.033 141.750 L 140.067 139.500 141.944 141.750 C 143.448 143.554, 146.121 144.883, 145.966 143.750 C 145.947 143.613, 145.017 139.900, 143.899 135.500 C 140.965 123.947, 140.975 123.832, 145.157 121.566 C 148.840 119.570, 152.720 114.043, 159.793 100.719 C 166.051 88.931, 163.453 86.689, 143.114 86.328 L 129.729 86.090 127.655 83.171 C 124.995 79.427, 120.589 76.429, 113.858 73.784 C 109.638 72.127, 105.844 71.617, 96 71.386 C 89.125 71.224, 82.104 71.451, 80.398 71.890" stroke="none" fill="black" fill-rule="evenodd"/>
</svg>