<svg xmlns="http://www.w3.org/2000/svg" width="192" height="144" viewBox="0 0 192 144" version="1.1">
	<path d="M 0 57.094 L 0 114.188 5.250 113.470 C 11.730 112.583, 15 111.396, 15 109.931 C 15 109.316, 14.100 108.577, 13 108.290 C 11.900 108.002, 11.002 107.707, 11.005 107.633 C 11.007 107.560, 12.121 104.800, 13.481 101.500 C 16.339 94.561, 16.964 85, 14.559 85 C 12.129 85, 12.026 83.591, 13.991 77.277 C 15.234 73.284, 15.724 69.461, 15.420 66.122 C 15.039 61.933, 15.322 60.678, 17.030 58.970 C 18.474 57.526, 19.769 57.101, 21.301 57.567 C 25.429 58.824, 26.749 60.802, 26.449 65.283 C 26.068 70.964, 27.854 76.740, 30.679 78.962 C 33.556 81.225, 33.601 82.466, 30.874 84.375 C 28.903 85.756, 28.788 86.505, 29.283 94.682 C 29.577 99.532, 30.153 104.579, 30.564 105.897 C 31.250 108.103, 31.098 108.241, 28.655 107.628 C 27.195 107.262, 26 107.384, 26 107.899 C 26 110.052, 27.317 112, 28.774 112 C 32.279 112, 28.604 113.283, 18.839 115.469 C 13.153 116.742, 6.588 118.097, 4.250 118.480 L 0 119.176 0 131.588 L 0 144 31.278 144 L 62.555 144 66.253 132.808 C 68.286 126.653, 69.750 121.417, 69.506 121.173 C 69.262 120.928, 62.410 123.678, 54.281 127.283 C 46.151 130.888, 36.260 134.981, 32.299 136.379 C 28.339 137.777, 24.289 139.359, 23.299 139.894 C 19.173 142.126, 11.969 143.096, 9.306 141.778 C 7.885 141.075, 6.736 140.050, 6.753 139.500 C 6.770 138.950, 9.934 137.375, 13.783 136 C 17.633 134.625, 21.769 132.375, 22.975 131 C 24.476 129.289, 24.993 129.052, 24.615 130.250 C 24.311 131.212, 24.276 132, 24.537 132 C 27.103 132, 69.821 112.365, 72.282 110.054 C 73.262 109.133, 74.332 106.727, 74.660 104.705 C 75.183 101.484, 74.963 100.919, 72.878 100.130 C 71.414 99.576, 70.036 99.604, 69.294 100.201 C 67.649 101.525, 66.091 100.387, 66.621 98.249 C 66.968 96.851, 63.945 94.997, 51.542 89 C 43.009 84.875, 36.022 80.964, 36.014 80.309 C 35.980 77.405, 39.005 78.251, 52.446 84.905 C 66.790 92.007, 69.345 92.869, 70.500 91 C 71.584 89.246, 73.158 89.927, 72.538 91.882 C 72.147 93.112, 72.520 93.985, 73.613 94.405 C 74.533 94.758, 75.458 94.875, 75.668 94.666 C 75.878 94.456, 74.689 91.408, 73.025 87.892 C 69.621 80.696, 69.361 78.062, 71.467 72.094 C 72.274 69.808, 73.175 65.814, 73.471 63.218 C 73.956 58.953, 74.684 57.851, 81.040 51.750 C 84.908 48.038, 88.576 45, 89.191 45 C 89.807 45, 89.499 44.104, 88.508 43.009 C 86.910 41.243, 86.579 41.193, 85.574 42.568 C 84.568 43.944, 84.180 43.891, 82.098 42.085 C 80.030 40.291, 79.806 39.378, 80.181 34.277 C 80.789 26.027, 84.787 17.896, 90.163 13.978 C 93.895 11.259, 95.145 10.878, 99.122 11.250 C 101.674 11.488, 105.126 12.665, 106.828 13.877 L 109.911 16.073 111.435 13.127 C 112.272 11.506, 113.861 7.890, 114.964 5.090 L 116.971 0 58.485 0 L 0 0 0 57.094 M 119 3.050 C 119 4.727, 119.672 7.398, 120.493 8.986 C 121.936 11.776, 121.652 15, 119.964 15 C 119.513 15, 118.436 15.707, 117.571 16.571 C 116.411 17.732, 116 20.186, 116 25.949 C 116 31.971, 115.624 34.067, 114.356 35.119 C 113.452 35.869, 111.909 38.287, 110.927 40.492 C 109.726 43.188, 109.113 43.846, 109.055 42.500 C 108.984 40.851, 108.804 40.762, 108.027 41.991 C 107.508 42.811, 106.316 43.486, 105.378 43.491 C 103.016 43.503, 102.525 45.610, 104.709 46.361 C 105.694 46.699, 110.068 48.894, 114.428 51.238 C 120.959 54.749, 122.552 56.089, 123.464 58.840 C 124.073 60.677, 125.294 62.585, 126.178 63.080 C 127.062 63.574, 133.121 64.264, 139.642 64.613 C 146.536 64.982, 152.823 65.854, 154.661 66.696 C 157.435 67.966, 158.177 67.960, 160.727 66.641 C 163.406 65.256, 175.873 57.651, 187.218 50.482 L 191.937 47.500 191.968 23.750 L 192 0 155.500 0 L 119 0 119 3.050 M 174.579 63.051 C 165.431 68.614, 161.298 71.725, 160.426 73.704 C 159.126 76.656, 154.445 82, 153.160 82 C 152.742 82, 151.809 81.438, 151.088 80.750 C 150.017 79.730, 149.900 79.914, 150.455 81.750 C 151.251 84.386, 149.522 84.783, 147.037 82.534 C 145.596 81.230, 144.426 81.580, 136.459 85.698 C 131.531 88.244, 127.344 90.720, 127.154 91.201 C 126.964 91.681, 123.139 93.910, 118.654 96.153 C 114.169 98.397, 110.356 100.361, 110.181 100.519 C 109.691 100.958, 112.229 109.340, 113.269 110.716 C 114.105 111.821, 141.639 122.970, 155 127.613 C 161.164 129.755, 161.762 131.348, 156.576 131.807 C 152.447 132.173, 144.621 129.855, 128.624 123.528 C 122.127 120.958, 116.655 119.011, 116.465 119.201 C 116.275 119.391, 117.373 121.561, 118.904 124.023 C 120.435 126.486, 123.220 131.979, 125.094 136.231 L 128.500 143.962 160.250 143.981 L 192 144 192 105.378 C 192 71.160, 191.829 66.897, 190.500 68 C 189.191 69.087, 189 68.340, 189 62.122 C 189 58.205, 188.662 55.043, 188.250 55.096 C 187.838 55.149, 181.685 58.729, 174.579 63.051 M 108.435 70.493 C 108.069 72.445, 107.954 76.944, 108.180 80.492 C 108.478 85.159, 108.233 87.080, 107.296 87.440 C 105.705 88.050, 105.559 93, 107.131 93 C 107.754 93, 111.691 91.255, 115.881 89.122 C 120.072 86.989, 127.325 83.326, 132 80.983 C 136.675 78.639, 141.082 76.264, 141.792 75.703 C 144.298 73.729, 141.150 72.733, 132.958 72.908 C 125.408 73.069, 123.314 72.662, 114 69.226 C 113.175 68.922, 112.275 68.627, 112 68.571 C 111.725 68.515, 110.960 68.126, 110.301 67.707 C 109.482 67.187, 108.890 68.071, 108.435 70.493 M 81.134 74.812 C 79.436 77.196, 79.129 78.404, 79.881 79.736 C 80.743 81.262, 81.095 80.982, 82.491 77.657 C 84.661 72.488, 83.910 70.913, 81.134 74.812 M 21.638 107.500 C 21.322 108.325, 20.388 109, 19.563 109 C 18.640 109, 18.284 109.578, 18.638 110.500 C 18.955 111.325, 20.066 112, 21.107 112 C 22.544 112, 23 111.277, 23 109 C 23 105.708, 22.526 105.186, 21.638 107.500 M 17.250 125.662 C 16.563 125.940, 16 127.026, 16 128.077 C 16 130.308, 19.620 130.233, 21.016 127.974 C 22.523 125.536, 20.556 124.328, 17.250 125.662" stroke="none" fill="black" fill-rule="evenodd"/>
</svg>