<svg xmlns="http://www.w3.org/2000/svg" width="192" height="144" viewBox="0 0 192 144" version="1.1">
	<path d="M 109 11.031 C 109 11.599, 109.675 12.322, 110.500 12.638 C 112.978 13.589, 112.194 15.798, 109.141 16.469 C 103.308 17.750, 98.340 26.449, 99.662 33.062 C 100.145 35.477, 99.737 36.190, 96.864 37.942 C 95.014 39.070, 92.739 39.994, 91.809 39.996 C 89.654 40.001, 88.816 41.356, 89.639 43.503 C 90.300 45.223, 94.337 45.243, 98.250 43.545 C 99.613 42.954, 100 43.267, 100 44.960 C 100 46.155, 101.214 48.725, 102.698 50.671 C 105.284 54.061, 105.396 54.713, 105.411 66.354 C 105.429 80.579, 103.906 88.498, 99.898 95.012 C 96.556 100.442, 96.379 101.553, 98.647 102.822 C 100.126 103.650, 99.957 104.546, 96.994 111.622 C 94.211 118.266, 93.665 120.870, 93.505 128.250 C 93.400 133.063, 93.553 137, 93.843 137 C 94.133 137, 95.427 136.008, 96.718 134.795 L 99.066 132.590 98.395 138.295 L 97.725 144 124.246 144 L 150.767 144 151.370 141.750 C 151.701 140.513, 151.987 137.700, 152.004 135.500 C 152.021 133.300, 152.680 127.565, 153.468 122.756 C 155.018 113.300, 154.371 107.031, 149.931 88.500 C 147.257 77.339, 147.124 50.625, 149.729 47.747 C 151.348 45.957, 151.351 45.776, 149.769 44.890 C 147.780 43.778, 146.013 38.059, 146.006 32.710 C 146.003 30.626, 145.113 27.181, 144.028 25.055 C 140.582 18.300, 135.746 15.716, 124 14.351 C 120.975 13.999, 117.306 12.877, 115.846 11.856 C 112.971 9.846, 109 9.368, 109 11.031" stroke="none" fill="black" fill-rule="evenodd"/>
</svg>