<svg xmlns="http://www.w3.org/2000/svg" width="192" height="144" viewBox="0 0 192 144" version="1.1">
	<path d="M -0 72.005 L -0 144.010 96.250 143.755 L 192.500 143.500 192.757 71.750 L 193.013 0 96.507 0 L 0 0 -0 72.005 M 0.474 72.500 C 0.474 112.100, 0.598 128.154, 0.750 108.176 C 0.901 88.198, 0.901 55.798, 0.750 36.176 C 0.598 16.554, 0.474 32.900, 0.474 72.500 M 63.367 44.250 C 63.663 51.845, 67.936 61.073, 74.892 69.141 C 92.156 89.167, 102.942 97.798, 120.253 105.440 C 124.974 107.524, 126.074 106.918, 130.975 99.537 C 134.280 94.560, 134.699 93.339, 133.858 91.128 C 133.317 89.705, 132.539 88.307, 132.129 88.020 C 131.720 87.734, 130.632 86.401, 129.713 85.058 C 127.458 81.761, 115.967 70.075, 110.863 65.888 C 108.592 64.025, 105.106 61.114, 103.117 59.421 C 98.691 55.653, 79.873 43.143, 74.806 40.599 C 72.727 39.556, 69.984 38.961, 68.532 39.239 C 67.113 39.510, 65.711 39.342, 65.417 38.866 C 63.955 36.500, 63.148 38.621, 63.367 44.250" stroke="none" fill="black" fill-rule="evenodd"/>
</svg>