<svg xmlns="http://www.w3.org/2000/svg" width="192" height="144" viewBox="0 0 192 144" version="1.1">
	<path d="M 0 72 L 0 144 24.893 144 C 46.670 144, 49.862 143.802, 50.393 142.418 C 51.480 139.585, 50.965 137.566, 48.152 133.630 C 45.780 130.311, 44.751 129.702, 40.942 129.357 C 36.748 128.977, 36.277 129.203, 32.500 133.414 C 29.010 137.305, 28.200 137.753, 26.143 136.929 C 24.194 136.149, 23.901 135.512, 24.449 133.243 C 24.813 131.734, 26.292 129.616, 27.735 128.536 C 29.179 127.455, 31.516 125.490, 32.930 124.168 C 34.343 122.847, 37.879 120.632, 40.787 119.248 C 43.695 117.864, 46.454 116.004, 46.920 115.116 C 47.385 114.227, 47.739 106.300, 47.706 97.500 C 47.649 82.384, 47.797 81.113, 50.372 74.500 C 51.871 70.650, 53.976 66.012, 55.049 64.193 C 56.122 62.374, 57 59.757, 57 58.377 C 57 51.723, 61.332 50.144, 66.392 54.953 C 68.102 56.577, 71.700 59.840, 74.389 62.203 C 77.078 64.566, 82.628 70.662, 86.722 75.750 C 91.125 81.220, 94.901 85, 95.963 85 C 97.021 85, 100.630 81.407, 104.751 76.250 C 108.597 71.438, 114.164 65.337, 117.122 62.693 C 120.080 60.048, 123.933 56.526, 125.684 54.864 C 129.743 51.014, 133.109 51.262, 134.310 55.500 C 135.742 60.558, 136.710 63.226, 139.749 70.500 C 144.292 81.377, 144.920 85.284, 144.482 99.987 C 144.032 115.085, 144.541 116.786, 150.173 119.003 C 152.003 119.724, 156.537 122.581, 160.250 125.353 C 166.117 129.733, 167 130.809, 167 133.579 C 167 138.810, 163.746 138.748, 159.393 133.434 C 156.038 129.340, 155.504 129.065, 151.273 129.249 C 147.214 129.426, 146.497 129.837, 144.372 133.203 C 143.031 135.327, 142 138.498, 142 140.497 L 142 144.034 167.250 143.767 L 192.500 143.500 192.757 71.750 L 193.013 0 96.507 0 L 0 0 0 72 M 0.474 72.500 C 0.474 112.100, 0.598 128.154, 0.750 108.176 C 0.901 88.198, 0.901 55.798, 0.750 36.176 C 0.598 16.554, 0.474 32.900, 0.474 72.500" stroke="none" fill="black" fill-rule="evenodd"/>
</svg>