<svg xmlns="http://www.w3.org/2000/svg" width="192" height="144" viewBox="0 0 192 144" version="1.1">
	<path d="M 130.273 6.113 C 127.807 6.825, 126.848 7.806, 126.210 10.269 C 125.457 13.177, 124.915 13.559, 120.686 14.164 C 115.392 14.921, 108.835 19.485, 106.470 24.058 C 104.255 28.341, 104.546 36.546, 107 39 C 109.450 41.450, 109.517 42.611, 107.283 43.861 C 105.850 44.663, 105.760 45.208, 106.739 47.161 C 107.384 48.447, 108.281 51.525, 108.732 54 C 109.535 58.402, 109.643 58.507, 113.673 58.802 C 117.596 59.090, 117.814 59.279, 118.217 62.732 C 118.681 66.705, 118.389 67.121, 110.738 73.370 C 108.132 75.499, 106 77.862, 106 78.620 C 106 80.380, 105.776 80.367, 97.953 78.130 C 93.527 76.864, 90.367 75.213, 88.177 73.024 C 84.722 69.568, 85.489 69.638, 74 71.744 C 69.734 72.526, 69.617 72.634, 71.750 73.820 C 72.987 74.507, 74 75.790, 74 76.671 C 74 77.551, 75.094 79.285, 76.432 80.524 C 77.769 81.763, 79.277 84.515, 79.784 86.639 C 80.290 88.762, 81.697 94.487, 82.910 99.359 C 84.122 104.232, 84.862 108.471, 84.553 108.780 C 84.245 109.089, 82.981 108.426, 81.746 107.307 C 80.511 106.188, 76.350 103.553, 72.500 101.451 C 68.476 99.254, 62.099 94.357, 57.500 89.933 C 48.188 80.973, 46.043 79.964, 43.079 83.146 C 41.935 84.373, 41 85.644, 41 85.970 C 41 86.296, 43.700 89.234, 47 92.500 C 50.300 95.766, 53 99.184, 53 100.096 C 53 101.009, 53.675 102.315, 54.500 103 C 55.325 103.685, 56 104.871, 56 105.636 C 56 108.031, 60.405 114.020, 62.500 114.474 C 63.600 114.712, 67.845 115.465, 71.934 116.147 C 78.445 117.232, 79.969 117.920, 84.209 121.685 C 86.871 124.050, 90.838 126.897, 93.025 128.013 C 97.527 130.310, 97.391 130.047, 95.840 133.452 C 94.941 135.425, 94.977 136.900, 96 139.999 L 97.320 144 122.660 144 C 136.597 144, 147.997 143.662, 147.993 143.250 C 147.982 141.977, 144.438 137.041, 142.536 135.650 C 140.337 134.042, 139.140 127.366, 139.060 116.258 C 139.008 109.137, 138.728 107.847, 137 106.768 C 133.869 104.813, 134.649 104.080, 138.578 105.285 C 141.256 106.107, 142.636 106.084, 144.065 105.192 C 145.114 104.536, 146.654 104, 147.486 104 C 148.319 104, 149 103.550, 149 103 C 149 102.450, 150.125 102, 151.500 102 C 153.308 102, 154 101.463, 154 100.059 C 154 98.991, 154.450 97.840, 155 97.500 C 155.550 97.160, 156 97.546, 156 98.358 C 156 99.169, 156.478 99.993, 157.062 100.187 C 157.812 100.437, 157.812 101.364, 157.062 103.336 C 156.478 104.873, 156 107.056, 156 108.188 C 156 109.988, 156.207 110.074, 157.657 108.872 C 159.170 107.619, 159.267 107.913, 158.780 112.250 C 158.486 114.863, 158.640 117, 159.123 117 C 159.605 117, 160 118.855, 160 121.122 C 160 124.846, 160.160 125.112, 161.657 123.872 C 163.165 122.623, 163.251 122.837, 162.612 126.250 C 161.832 130.415, 162.403 130.841, 165.296 128.250 C 167.201 126.544, 167.232 126.581, 166.554 129.712 C 165.300 135.500, 167.995 137.230, 170.899 132.500 C 172.049 130.626, 172.094 130.658, 171.611 133 C 171.328 134.375, 170.792 137.412, 170.420 139.750 L 169.744 144 180.872 144 L 192 144 191.985 111.250 L 191.970 78.500 183.890 73.500 C 175.864 68.534, 167.426 60.476, 163.731 54.250 C 162.670 52.462, 161.509 51.003, 161.151 51.006 C 160.793 51.010, 159.733 52.360, 158.797 54.006 C 157.860 55.653, 156.688 57, 156.193 57 C 154.933 57, 153.136 44.339, 153.703 39.450 C 154.321 34.112, 151.663 25.231, 147.996 20.386 C 146.379 18.249, 145.043 15.228, 145.028 13.673 C 145.010 11.908, 143.902 9.748, 142.077 7.923 C 138.983 4.829, 136.196 4.402, 130.273 6.113 M 151.115 54 C 151.161 55.925, 151.560 58.625, 152 60 C 152.664 62.073, 152.815 61.731, 152.885 58 C 152.931 55.525, 152.533 52.825, 152 52 C 151.278 50.883, 151.052 51.394, 151.115 54 M 90.902 79.432 C 90.606 79.728, 90.683 82.564, 91.074 85.735 C 91.870 92.195, 95.934 102.405, 96.751 100 C 97.032 99.175, 97.935 97.726, 98.758 96.780 C 99.582 95.834, 100.408 93.745, 100.596 92.137 C 100.783 90.530, 101.557 87.413, 102.315 85.211 L 103.695 81.207 99.597 80.556 C 97.344 80.197, 94.586 79.677, 93.470 79.399 C 92.353 79.121, 91.198 79.136, 90.902 79.432 M 133.574 116.356 C 133.086 119.611, 133.323 121.711, 134.405 123.706 C 135.901 126.466, 135.920 126.427, 135.945 120.500 C 135.977 112.719, 134.505 110.146, 133.574 116.356" stroke="none" fill="black" fill-rule="evenodd"/>
</svg>