<svg xmlns="http://www.w3.org/2000/svg" width="192" height="144" viewBox="0 0 192 144" version="1.1">
	<path d="M 0 51.361 L 0 102.723 2.750 102.328 C 4.263 102.110, 7.750 101.512, 10.500 100.997 C 13.250 100.482, 17.188 99.802, 19.250 99.485 C 22.901 98.925, 24.789 96, 21.500 96 C 19.618 96, 19.603 94.669, 21.445 91.107 C 22.239 89.570, 23.205 85.932, 23.592 83.021 C 24.217 78.305, 24.057 77.551, 22.113 76.086 C 20.008 74.497, 19.990 74.328, 21.588 71.124 C 22.538 69.219, 23.352 64.820, 23.500 60.787 C 23.761 53.708, 24.630 52.049, 28.095 52.015 C 30.709 51.990, 32.871 55.250, 32.731 59.002 C 32.538 64.172, 33.830 68.171, 36.651 71.138 L 39.159 73.775 36.933 75.334 C 34.863 76.785, 34.746 77.439, 35.264 84.697 C 35.570 88.989, 36.154 93.339, 36.562 94.365 C 37.178 95.917, 36.955 96.120, 35.235 95.575 C 32.580 94.732, 31.537 96.394, 33.494 98.351 C 34.844 99.701, 34.818 99.920, 33.253 100.395 C 29.512 101.531, 10.379 104, 5.324 104 L 0 104 0 124 L 0 144 34.941 144 C 54.159 144, 70.091 143.662, 70.346 143.249 C 70.601 142.836, 70.564 136.805, 70.264 129.846 C 69.718 117.197, 69.717 117.193, 67.109 116.636 C 62.997 115.756, 58 112.209, 58 110.170 C 58 108, 60.673 100.149, 64.473 91.160 C 65.947 87.672, 66.956 84.623, 66.716 84.383 C 66.476 84.143, 62.054 84.632, 56.890 85.469 C 45.160 87.371, 40.575 87.398, 39.059 85.571 C 38.069 84.378, 38.640 84.027, 42.512 83.446 C 45.820 82.950, 46.842 82.442, 46.075 81.675 C 44.557 80.157, 44.741 79, 46.500 79 C 47.325 79, 48 79.675, 48 80.500 C 48 82.901, 55.646 82.531, 56.965 80.066 C 58.510 77.178, 58.240 76.055, 55.750 75.034 C 44.739 70.519, 43.681 69.919, 44.780 68.820 C 45.563 68.037, 46.316 68.002, 47.208 68.709 C 47.918 69.273, 51.139 70.707, 54.363 71.895 C 58.729 73.505, 60.566 73.775, 61.556 72.953 C 63.297 71.509, 68.464 56.120, 68.138 53.353 C 67.881 51.181, 72.130 46, 74.168 46 C 74.863 46, 74.803 45.468, 74 44.500 C 73.315 43.675, 72.211 43, 71.546 43 C 70.880 43, 68.525 40.556, 66.312 37.569 C 64.099 34.582, 54.611 24.907, 45.227 16.069 L 28.166 0 14.083 0 L 0 0 0 51.361 M 36 5.202 C 39.025 8.040, 44.650 13.371, 48.500 17.051 C 52.350 20.730, 57.915 25.795, 60.867 28.307 L 66.234 32.875 68.725 29.915 C 72.529 25.395, 74.632 24.706, 85.609 24.386 L 95.754 24.090 96.281 29.295 C 96.764 34.079, 96.559 34.760, 93.745 37.711 C 92.061 39.477, 90.327 40.702, 89.892 40.433 C 89.456 40.164, 88.626 40.830, 88.047 41.913 C 87.215 43.467, 87.375 44.157, 88.808 45.191 C 89.806 45.911, 90.953 47.052, 91.356 47.727 C 92.432 49.526, 90.239 56.694, 88.397 57.401 C 87.154 57.878, 86.885 59.236, 87.137 63.754 C 87.313 66.914, 87.128 70.022, 86.725 70.660 C 85.589 72.461, 87.039 75.117, 88.868 74.585 C 93.001 73.383, 108.327 69.995, 108.555 70.233 C 108.695 70.380, 108.965 71.373, 109.155 72.439 C 109.453 74.112, 108.399 74.627, 101.500 76.184 C 97.100 77.177, 92.500 78.222, 91.277 78.507 C 89.364 78.952, 89.199 79.343, 90.096 81.311 C 91.166 83.659, 94.589 84.958, 109.250 88.577 C 112.963 89.493, 116 90.590, 116 91.015 C 116 92.915, 112.308 92.760, 103.323 90.480 C 97.999 89.130, 93.465 88.202, 93.247 88.419 C 93.030 88.636, 93.537 90.138, 94.374 91.756 C 95.211 93.374, 96.420 96.784, 97.062 99.333 C 98.049 103.250, 97.965 104.630, 96.524 108.232 C 95.586 110.576, 94.450 112.722, 94.001 113 C 93.551 113.278, 94.013 116.204, 95.027 119.502 C 96.042 122.801, 97.438 129.662, 98.130 134.750 L 99.388 144 145.694 144 L 192 144 192 72 L 192 0 158.500 0 C 129.389 0, 125 0.197, 125 1.500 C 125 2.325, 124.550 3, 124 3 C 123.450 3, 123 2.325, 123 1.500 C 123 0.321, 121.611 0, 116.500 0 C 112.925 0, 110 0.366, 110 0.813 C 110 1.260, 111.314 2.884, 112.919 4.422 C 116.155 7.523, 116.492 7.530, 136.500 4.933 C 144.998 3.829, 146.045 3.907, 155.283 6.337 C 166.913 9.397, 170.527 11.688, 172.123 17.017 C 175.308 27.648, 163.706 36.776, 154.299 31.040 C 150.223 28.556, 147.774 23.834, 148.181 19.250 C 148.469 16.015, 148.207 15.582, 145.500 14.805 C 143.850 14.331, 137.283 14.235, 130.907 14.591 C 116.372 15.402, 114.541 14.642, 109.021 5.500 C 107.692 3.300, 106.132 1.169, 105.553 0.765 C 104.974 0.361, 87.850 0.033, 67.500 0.037 L 30.500 0.043 36 5.202 M 180 21.469 C 180 22.363, 180.586 22.712, 181.500 22.362 C 182.325 22.045, 183 21.384, 183 20.893 C 183 20.402, 182.325 20, 181.500 20 C 180.675 20, 180 20.661, 180 21.469 M 106 39 C 106 39.550, 106.702 40, 107.559 40 C 108.416 40, 108.840 39.550, 108.500 39 C 108.160 38.450, 107.459 38, 106.941 38 C 106.423 38, 106 38.450, 106 39 M 142 49 C 141.207 49.490, 140.890 50.223, 141.296 50.629 C 141.701 51.035, 142.558 50.842, 143.200 50.200 C 144.711 48.689, 143.868 47.846, 142 49 M 150.496 58.007 C 149.701 59.292, 152.510 60.402, 154.563 59.614 C 156.567 58.845, 155.464 57, 153 57 C 151.965 57, 150.838 57.453, 150.496 58.007 M 68.250 68.956 C 65.324 74.080, 65.360 76, 68.383 76 C 70.860 76, 72.708 72.555, 70.848 71.406 C 70.317 71.078, 70.170 69.502, 70.521 67.905 C 71.368 64.049, 70.938 64.248, 68.250 68.956 M 27.750 96.083 C 25.529 98.516, 25.551 99, 27.883 99 C 29.098 99, 29.936 98.113, 30.245 96.500 C 30.807 93.561, 30.153 93.452, 27.750 96.083 M 79.387 117.765 C 77.591 118.052, 77.178 119.018, 76.637 124.198 C 75.832 131.897, 75.818 140.363, 76.607 142.418 C 77.098 143.697, 78.923 144, 86.142 144 C 94.659 144, 95.023 143.911, 94.035 142.066 C 93.466 141.002, 93 139.196, 93 138.052 C 93 136.908, 91.820 131.719, 90.378 126.521 C 87.508 116.177, 87.809 116.416, 79.387 117.765 M 168 136.893 C 168 137.786, 170.351 139, 172.082 139 C 172.587 139, 173 138.325, 173 137.500 C 173 136.567, 172.056 136, 170.500 136 C 169.125 136, 168 136.402, 168 136.893" stroke="none" fill="black" fill-rule="evenodd"/>
</svg>