<svg xmlns="http://www.w3.org/2000/svg" width="192" height="144" viewBox="0 0 192 144" version="1.1">
	<path d="M 0 47.500 L 0 95 5.250 94.996 C 20.177 94.984, 91.392 87.750, 93.458 86.035 C 94.060 85.535, 94.649 83.972, 94.765 82.563 C 95.001 79.719, 95.326 79.785, 79 79.360 C 65.751 79.015, 58.531 78.450, 57.250 77.656 C 54.886 76.192, 56.007 73.991, 60 72.261 C 62.200 71.308, 64 70.184, 64 69.764 C 64 69.344, 65.057 69, 66.350 69 C 69.107 69, 78.274 62.680, 76 62.347 C 75.175 62.226, 72.386 61.849, 69.802 61.510 C 63.709 60.710, 64.239 59.327, 72.663 54.046 L 79.157 49.974 86.203 35.287 L 93.250 20.599 88.625 16.696 C 83.310 12.210, 82.633 8.755, 85.989 3.250 L 87.971 0 61.844 0 L 35.718 0 36.285 8.250 C 36.629 13.254, 37.909 19.573, 39.536 24.309 L 42.220 32.118 39.501 38.177 C 37.205 43.294, 36.847 45.254, 37.199 50.785 C 37.601 57.097, 37.777 57.472, 42.058 61.164 C 46.297 64.820, 46.381 64.995, 43.898 64.997 C 39.820 65.002, 34.734 60.968, 32.089 55.634 C 30.031 51.484, 29.698 49.446, 29.817 41.754 C 29.940 33.862, 29.600 31.912, 27.097 26.119 C 23.288 17.305, 22.265 13.690, 21.471 6.250 L 20.804 -0 10.402 -0 L 0 0 0 47.500 M 118 0.731 C 114.026 1.461, 112.497 3.946, 112.526 9.628 C 112.540 12.448, 113.041 15.373, 113.638 16.128 C 114.236 16.883, 115.007 18.686, 115.352 20.135 C 115.698 21.584, 117.577 25.142, 119.528 28.041 C 121.479 30.941, 123.228 34.480, 123.414 35.907 C 123.600 37.333, 124.708 42.175, 125.876 46.667 C 128.205 55.623, 128.455 58.732, 127.026 60.992 C 126.275 62.180, 125.830 62.230, 124.842 61.242 C 122.481 58.881, 121.734 59.958, 122.408 64.750 C 122.776 67.362, 123.343 71.647, 123.668 74.271 C 123.993 76.895, 124.601 79.253, 125.019 79.512 C 126.061 80.155, 146.246 75.057, 165 69.413 C 173.525 66.847, 183.088 64.027, 186.250 63.146 L 192 61.543 192 30.771 L 192 0 156.250 0.136 C 136.588 0.211, 119.375 0.479, 118 0.731 M 91.332 7.578 C 90.999 8.445, 91.463 9.892, 92.363 10.792 C 93.879 12.307, 94 12.191, 94 9.214 C 94 5.856, 92.375 4.859, 91.332 7.578 M 109 83 C 109 83.550, 109.450 84, 110 84 C 110.550 84, 111 83.550, 111 83 C 111 82.450, 110.550 82, 110 82 C 109.450 82, 109 82.450, 109 83 M 184.191 134.925 C 180.236 139.284, 177 143.109, 177 143.425 C 177 143.741, 180.375 144, 184.500 144 L 192 144 192 135.500 C 192 130.825, 191.861 127, 191.691 127 C 191.521 127, 188.146 130.566, 184.191 134.925" stroke="none" fill="black" fill-rule="evenodd"/>
</svg>