<svg xmlns="http://www.w3.org/2000/svg" width="192" height="144" viewBox="0 0 192 144" version="1.1">
	<path d="M 49.750 41.749 C 48.788 41.968, 48 42.977, 48 43.992 C 48 45.006, 47.727 46.548, 47.393 47.418 C 46.958 48.552, 47.383 49, 48.893 49 C 50.250 49, 50.984 49.623, 50.956 50.750 C 50.830 55.850, 48.958 61.170, 45.993 64.860 C 43.165 68.378, 42.105 69, 38.936 69 C 35.919 69, 34.614 69.675, 32.104 72.535 C 30.397 74.479, 29 76.405, 29 76.816 C 29 77.226, 30.300 78.052, 31.889 78.652 C 34.316 79.568, 35.528 79.363, 39.457 77.371 C 45.270 74.424, 45.420 74.429, 43.408 77.500 C 41.893 79.812, 41.893 80, 43.404 80 C 45.378 80, 45.853 77.756, 36.735 111.500 C 34.803 118.650, 33.060 125.138, 32.861 125.918 C 32.663 126.698, 33.513 127.865, 34.752 128.511 C 36.999 129.684, 37 129.690, 35.002 131.498 C 30.795 135.306, 34.443 137.578, 40.404 134.862 C 42.461 133.924, 42.954 132.910, 43.201 129.112 C 43.473 124.911, 43.745 124.472, 46.250 124.184 C 47.763 124.010, 49.034 124.235, 49.077 124.684 C 49.119 125.133, 49.308 126.317, 49.498 127.316 C 49.687 128.315, 49.184 130.708, 48.380 132.633 L 46.918 136.133 50.209 135.816 C 52.615 135.585, 53.578 134.958, 53.789 133.483 C 53.948 132.374, 55.247 130.799, 56.676 129.983 L 59.274 128.500 59.809 109.500 C 60.104 99.050, 60.333 87.463, 60.318 83.750 C 60.296 77.914, 60.535 77, 62.087 77 C 64.269 77, 64.742 76.302, 65.509 71.949 C 65.837 70.088, 67.006 67.108, 68.108 65.326 L 70.110 62.086 68.055 60.802 C 65.140 58.982, 65.389 55.183, 68.500 54 C 71.274 52.945, 71.905 49.561, 69.500 48.638 C 68.675 48.322, 68 47.443, 68 46.686 C 68 43.656, 64.346 41.839, 58.772 42.097 C 55.802 42.235, 52.950 42.123, 52.436 41.850 C 51.921 41.576, 50.712 41.531, 49.750 41.749" stroke="none" fill="black" fill-rule="evenodd"/>
</svg>