<svg xmlns="http://www.w3.org/2000/svg" width="192" height="144" viewBox="0 0 192 144" version="1.1">
	<path d="M -0 37.489 L -0 74.979 7.969 72.071 C 12.352 70.471, 20.157 67.025, 25.313 64.413 L 34.688 59.663 44.094 67.218 C 49.267 71.373, 56.875 77.958, 61 81.851 C 71.554 91.812, 73.070 92.434, 87.750 92.832 C 97.515 93.096, 100 92.890, 100 91.817 C 100 89.765, 103.882 82.851, 106.852 79.614 C 108.309 78.027, 112.279 75.450, 115.677 73.888 C 119.074 72.325, 122.107 70.636, 122.417 70.135 C 122.727 69.633, 121.410 68.025, 119.490 66.560 L 116 63.898 115.921 67.699 C 115.878 69.790, 115.614 70.935, 115.336 70.244 C 115.057 69.553, 114.418 69.242, 113.915 69.553 C 113.412 69.864, 113 69.416, 113 68.559 C 113 67.702, 112.586 67, 112.079 67 C 111.573 67, 110.848 65.537, 110.468 63.750 C 109.541 59.388, 107.378 57.088, 104.829 57.755 C 103.097 58.208, 102.880 57.954, 103.454 56.146 C 103.890 54.772, 103.707 54, 102.945 54 C 102.037 54, 102.031 53.668, 102.921 52.596 C 103.590 51.790, 103.806 50.074, 103.428 48.569 C 102.886 46.411, 102.512 46.160, 101.316 47.152 C 100.166 48.107, 100.005 49.870, 100.541 55.595 C 101.109 61.656, 100.851 63.938, 98.952 69.645 C 96.977 75.579, 94.030 80.728, 93.985 78.321 C 93.976 77.870, 93.577 78.120, 93.096 78.878 C 91.964 80.666, 90 79.437, 90 76.941 C 90 75.873, 89.370 75, 88.600 75 C 85.520 75, 83.987 56.613, 86.830 53.770 C 87.473 53.127, 88 51.853, 88 50.940 C 88 50.026, 89.125 47.621, 90.500 45.595 C 91.875 43.569, 93 41.777, 93 41.614 C 93 41.450, 91.219 40.783, 89.042 40.131 C 86.865 39.479, 84.822 38.522, 84.503 38.004 C 84.183 37.487, 84.596 34.462, 85.421 31.282 C 88.261 20.335, 98.427 14.187, 101.845 21.350 L 103.205 24.200 105.353 20.676 C 110.073 12.929, 116.853 10.458, 131.313 11.215 C 141.798 11.763, 146.101 13.474, 149.004 18.247 C 151.673 22.636, 153.124 30.082, 152.044 33.848 C 151.334 36.324, 151.561 37.444, 153.198 39.525 C 156.433 43.637, 157.161 48.544, 154.848 50.637 C 153.793 51.592, 153.156 52.965, 153.433 53.687 C 154.057 55.313, 153.098 58, 151.893 58 C 151.402 58, 151 57.325, 151 56.500 C 151 53.581, 149.213 55.050, 148.566 58.500 C 147.786 62.659, 146.030 63.159, 145.930 59.250 C 145.867 56.813, 145.762 56.728, 145 58.500 C 144.527 59.600, 144.085 60.050, 144.017 59.500 C 143.896 58.529, 140.044 69.794, 140.015 71.203 C 140.007 71.590, 142.132 72.849, 144.738 74.002 C 151.101 76.817, 153.319 79.092, 156.405 85.968 L 159.012 91.777 171.756 91.784 C 178.765 91.788, 186.118 91.389, 188.096 90.898 L 191.692 90.006 192.346 77.846 C 192.706 71.158, 193 50.907, 193 32.843 L 193 0 96.500 0 L 0 0 -0 37.489 M 0.453 38 C 0.453 58.625, 0.586 67.063, 0.749 56.750 C 0.911 46.438, 0.911 29.563, 0.749 19.250 C 0.586 8.938, 0.453 17.375, 0.453 38 M 29.250 69.115 C 25.489 71.524, 25.151 73.932, 28.028 77.824 C 29.143 79.332, 30.276 82.126, 30.546 84.033 C 31.120 88.092, 25.026 113.367, 23.511 113.213 C 22.967 113.157, 21.089 106.980, 19.338 99.485 C 15.991 85.163, 16.057 82.074, 19.802 77.744 C 22.127 75.055, 20.615 74.647, 16.347 76.811 C 14.231 77.884, 9.912 79.572, 6.750 80.563 C 2.520 81.889, 1 82.846, 1 84.183 C 1 85.182, 1.382 86, 1.848 86 C 2.315 86, 3.430 87.866, 4.326 90.148 C 5.903 94.163, 5.860 94.671, 2.978 106.089 C 0.428 116.187, 0 119.761, 0 130.942 L 0 144 49 144 L 98 144 98 139.250 C 98 136.637, 98.670 131, 99.489 126.722 C 101.006 118.793, 101.050 104.509, 99.565 102.106 C 99.063 101.292, 99.279 100.438, 100.122 99.904 C 101.771 98.859, 101.255 98.789, 93.502 98.999 C 87.274 99.168, 85.803 99.621, 87.634 100.804 C 88.226 101.187, 89.236 103.114, 89.879 105.087 C 90.887 108.183, 90.628 110.439, 87.981 121.579 C 86.295 128.677, 84.484 134.916, 83.958 135.442 C 83.431 135.969, 83 136.045, 83 135.611 C 83 135.176, 81.640 128.936, 79.978 121.743 C 77.455 110.826, 77.138 108.112, 78.058 105.323 C 78.665 103.485, 79.759 101.384, 80.490 100.653 C 81.221 99.922, 81.499 98.807, 81.107 98.174 C 80.436 97.087, 70.073 94.594, 69.327 95.339 C 69.136 95.531, 69.583 97.446, 70.323 99.594 C 71.549 103.158, 71.393 104.664, 68.543 116.799 C 66.825 124.113, 64.987 130.104, 64.459 130.113 C 63.932 130.121, 62.251 125.037, 60.725 118.814 C 57.763 106.738, 57.591 99.281, 60.202 96.240 C 63.410 92.504, 63.143 91.068, 58.281 85.870 C 55.698 83.108, 52.804 80.430, 51.851 79.921 C 50.225 79.050, 50.213 79.269, 51.652 83.491 C 53.123 87.809, 53.056 88.522, 50.001 101.245 C 48.249 108.535, 46.441 114.895, 45.981 115.377 C 45.110 116.292, 44.423 114.151, 41.044 100 C 38.412 88.979, 38.477 86.281, 41.512 80.573 L 44.025 75.847 39.262 71.463 C 36.643 69.052, 34.050 67.069, 33.500 67.057 C 32.950 67.044, 31.038 67.970, 29.250 69.115 M 183.750 95.689 C 181.522 96.272, 181.545 96.523, 184.374 102.364 L 186.729 107.228 184.309 116.864 C 180.279 132.908, 179.951 134, 179.161 134 C 178.743 134, 176.884 127.758, 175.031 120.129 L 171.663 106.259 173.713 102.115 C 174.841 99.836, 175.479 97.797, 175.132 97.583 C 174.479 97.182, 159 96.965, 159 97.357 C 159 97.478, 159.900 99.342, 161 101.500 C 163.510 106.423, 163.502 108.789, 160.934 119.711 C 159.307 126.631, 159.011 130.148, 159.538 136.250 L 160.208 144 176.164 144 L 192.120 144 191.872 119.500 L 191.623 95 188.562 95.116 C 186.878 95.180, 184.713 95.438, 183.750 95.689" stroke="none" fill="black" fill-rule="evenodd"/>
</svg>