<svg xmlns="http://www.w3.org/2000/svg" width="192" height="144" viewBox="0 0 192 144" version="1.1">
	<path d="M 0 72.070 L 0 144.139 2.183 143.820 C 4.912 143.420, 6.517 138.471, 4.914 135.395 C 4.053 133.742, 4.242 132.347, 5.794 128.895 C 6.881 126.478, 7.761 122.617, 7.749 120.315 C 7.736 117.749, 8.360 115.497, 9.364 114.494 C 10.264 113.594, 11 112.084, 11 111.140 C 11 110.196, 11.900 107.658, 13 105.500 C 15.379 100.835, 15.356 101, 13.622 101 C 12.864 101, 11.554 102.013, 10.711 103.250 C 9.288 105.339, 9.058 105.383, 7.487 103.862 C 5.210 101.657, 6.267 98.813, 9.971 97.173 C 12.124 96.220, 13.236 94.815, 13.930 92.174 C 17.295 79.361, 17.324 69.550, 14.005 67 C 12.119 65.552, 12.110 65.338, 13.741 60.826 C 15.385 56.275, 15.371 56.033, 13.215 51.716 C 10.186 45.651, 10.201 37.006, 13.250 30.970 C 17.147 23.255, 29.263 16.082, 38.634 15.942 C 40.760 15.911, 44.272 15.570, 46.438 15.185 C 49.810 14.587, 50.497 14.020, 51.217 11.243 C 51.679 9.459, 52.465 8, 52.964 8 C 53.462 8, 55.137 9.783, 56.685 11.963 C 58.233 14.143, 60.740 16.449, 62.255 17.087 C 67.717 19.387, 72.854 27.054, 74.375 35.179 C 75.374 40.516, 78.007 43.333, 81.893 43.222 C 86.035 43.104, 86.785 45.089, 84.050 48.930 C 82.874 50.581, 81.235 54.213, 80.407 57.002 C 79.505 60.039, 77.711 63.133, 75.935 64.716 C 73.325 67.041, 73.029 67.856, 73.466 71.502 C 73.740 73.781, 74.647 77.582, 75.482 79.949 C 77.597 85.943, 77.461 86.205, 73.462 83.845 C 70.258 81.955, 69.763 81.903, 68.212 83.302 C 67.271 84.150, 64.250 85.730, 61.500 86.811 L 56.500 88.777 61 89.951 C 75.204 93.656, 77.660 94.444, 79.250 95.808 C 80.212 96.634, 81.007 98.703, 81.015 100.405 C 81.042 105.893, 81.937 106.207, 89.040 103.222 C 95.003 100.715, 96.539 100.507, 109 100.528 C 120.218 100.547, 123.446 100.905, 128.094 102.645 C 135.199 105.305, 143.769 110.778, 150.252 116.797 C 156.125 122.251, 164.470 134.498, 166.164 140.152 L 167.334 144.057 179.917 143.779 L 192.500 143.500 192.757 71.750 L 193.013 0 123.590 0 C 69.029 0, 54.042 0.268, 53.583 1.250 C 53.117 2.250, 52.883 2.250, 52.417 1.250 C 51.972 0.297, 45.672 0, 25.917 0 L 0 0 0 72.070 M 0.474 72.500 C 0.474 112.100, 0.598 128.154, 0.750 108.176 C 0.901 88.198, 0.901 55.798, 0.750 36.176 C 0.598 16.554, 0.474 32.900, 0.474 72.500 M 131.937 71.576 C 129.220 74.849, 136.423 76.400, 139.345 73.171 C 140.255 72.165, 141 71.040, 141 70.671 C 141 69.261, 133.212 70.039, 131.937 71.576 M 71 140 C 71 142.200, 71.450 144, 72 144 C 72.550 144, 73 142.200, 73 140 C 73 137.800, 72.550 136, 72 136 C 71.450 136, 71 137.800, 71 140" stroke="none" fill="black" fill-rule="evenodd"/>
</svg>