<svg xmlns="http://www.w3.org/2000/svg" width="192" height="144" viewBox="0 0 192 144" version="1.1">
	<path d="M 84.500 19.219 C 82.850 19.792, 80.649 20.990, 79.609 21.880 C 76.763 24.317, 74.047 30.986, 74.022 35.595 C 74.001 39.494, 71.818 43, 69.412 43 C 68.900 43, 67.889 43.948, 67.166 45.106 C 66.016 46.947, 66.134 47.514, 68.100 49.606 C 69.337 50.923, 70.923 52, 71.625 52 C 74.329 52, 74.938 55.364, 72.847 58.748 C 71.579 60.799, 71.276 62, 72.025 62 C 72.708 62, 72.951 62.687, 72.596 63.611 C 72.157 64.753, 72.408 65.057, 73.457 64.655 C 74.270 64.343, 75.206 64.525, 75.537 65.060 C 75.868 65.595, 76.508 65.804, 76.960 65.525 C 77.412 65.246, 78.519 66.143, 79.421 67.520 C 80.661 69.412, 81.631 69.880, 83.395 69.437 C 84.968 69.042, 85.920 69.348, 86.313 70.374 C 86.958 72.054, 86.417 72.284, 77.827 73.986 C 71.297 75.280, 70.627 75.907, 67.458 83.705 C 65.676 88.089, 64.461 89.680, 62.359 90.380 C 60.440 91.020, 59.483 90.950, 59.217 90.150 C 58.976 89.429, 56.161 88.992, 51.667 88.978 C 43.411 88.953, 38.901 87.255, 30.758 81.107 C 27.816 78.886, 23.292 76.132, 20.704 74.987 C 17.415 73.532, 16 72.319, 16 70.953 C 16 68.126, 14.708 68.546, 12.004 72.250 C 10.700 74.037, 7.465 78.010, 4.816 81.078 L 0 86.655 0 97.328 C 0 103.197, 0.337 107.999, 0.750 107.997 C 1.163 107.996, 2.625 105.860, 4 103.251 C 6.846 97.851, 8.959 96.966, 11.779 99.994 L 13.741 102.099 14.277 100.049 C 14.572 98.922, 15.552 98, 16.456 98 C 18.452 98, 23.994 100.768, 24.015 101.776 C 24.024 102.174, 24.394 103.072, 24.838 103.772 C 25.472 104.770, 26.632 104.608, 30.228 103.017 C 35.239 100.801, 36.796 101.035, 41.830 104.760 L 45.160 107.224 49.330 104.244 C 54.719 100.392, 62.850 96.302, 66.010 95.853 C 68.128 95.552, 68.501 95.904, 68.543 98.246 C 68.570 99.757, 69.134 101.534, 69.796 102.196 C 70.497 102.897, 71 106.221, 71 110.143 C 71 115.589, 71.359 117.138, 72.864 118.193 C 75.882 120.309, 74.607 125.325, 70.664 126.852 C 67.766 127.974, 67.647 128.189, 69.250 129.399 C 71.691 131.243, 71.433 134.585, 68.458 139.662 L 65.916 144 88.458 144 C 100.856 144, 110.968 143.662, 110.930 143.250 C 110.891 142.838, 110.508 141.600, 110.079 140.501 C 109.650 139.401, 109.714 136.997, 110.222 135.159 C 110.916 132.643, 110.789 131.407, 109.708 130.159 C 107.691 127.831, 107.015 122.175, 107.743 113.731 L 108.366 106.500 109.933 112.905 C 111.793 120.509, 113.720 122.240, 117.759 119.935 C 120.361 118.450, 120.489 118.031, 120.279 111.657 L 120.058 104.942 123.279 107.345 C 126.477 109.731, 126.521 109.734, 129.500 107.879 C 133.411 105.443, 137.493 105.503, 141.069 108.049 L 143.947 110.099 146.724 108.063 C 148.251 106.943, 150.963 105.740, 152.750 105.389 C 155.675 104.814, 156 104.985, 156 107.098 L 156 109.445 157.557 107.223 C 160.001 103.733, 161.808 104.564, 164.730 110.523 C 166.516 114.165, 167.905 115.867, 168.807 115.521 C 173.391 113.762, 178.208 113.906, 184.470 115.990 C 188.132 117.209, 191.363 117.970, 191.650 117.683 C 191.938 117.396, 187.287 112.440, 181.314 106.670 C 173.979 99.583, 168.542 93.230, 164.558 87.089 C 161.314 82.090, 158.339 78, 157.947 78 C 157.554 78, 157.022 78.809, 156.763 79.798 C 156.485 80.862, 154.589 82.106, 152.116 82.847 C 149.819 83.535, 145.365 85.605, 142.219 87.447 C 132.649 93.049, 122 94.530, 122 90.258 C 122 88.008, 116.312 79.431, 113.697 77.739 C 112.489 76.956, 110.150 76.005, 108.500 75.624 C 102.695 74.284, 100 72.779, 100 70.879 C 100 69.845, 100.450 69, 101 69 C 101.550 69, 102 69.505, 102 70.122 C 102 70.929, 102.397 70.916, 103.411 70.074 C 104.383 69.267, 105.025 69.231, 105.475 69.959 C 105.919 70.677, 106.576 70.613, 107.529 69.758 C 111.431 66.257, 111.724 66.126, 113.012 67.326 C 114.007 68.253, 114.158 68.026, 113.730 66.250 C 113.348 64.665, 113.637 64, 114.709 64 C 116.035 64, 116.017 63.676, 114.573 61.472 C 112.939 58.977, 113.261 56.425, 115.069 57.543 C 115.581 57.859, 116 57.161, 116 55.992 C 116 54.319, 116.427 54.001, 118.005 54.502 C 120.778 55.382, 121.646 52.635, 119.587 49.492 C 117.722 46.645, 118.487 46.226, 121.150 48.636 C 123.193 50.485, 123.688 49.815, 124.207 44.500 C 124.477 41.735, 124.766 41.527, 127.892 41.840 C 130.862 42.138, 131.185 41.952, 130.489 40.340 C 127.905 34.353, 126.147 28.279, 126.581 26.834 C 127.444 23.960, 125.120 23.762, 120.546 26.318 L 116.137 28.783 113.597 25.932 C 109.862 21.741, 106.377 20.313, 98 19.545 C 93.875 19.166, 89.825 18.704, 89 18.517 C 88.175 18.331, 86.150 18.647, 84.500 19.219" stroke="none" fill="black" fill-rule="evenodd"/>
</svg>