<svg xmlns="http://www.w3.org/2000/svg" width="192" height="144" viewBox="0 0 192 144" version="1.1">
	<path d="M 0 72 L 0 144 41.981 144 L 83.962 144 84.465 141.750 C 84.742 140.512, 85.088 137.730, 85.234 135.567 C 85.468 132.108, 85.198 131.555, 83 130.988 C 81.112 130.501, 79.696 131.036, 77.215 133.172 C 70.522 138.935, 66.992 135.673, 71.412 127.810 L 74.155 122.929 72.078 119.407 C 69.564 115.146, 69.537 113.526, 71.911 109.070 L 73.738 105.640 70.413 101.070 C 68.585 98.556, 66.056 95.323, 64.794 93.883 C 63.532 92.444, 61.375 89.783, 60 87.970 C 58.625 86.156, 55.824 82.631, 53.776 80.136 C 50.404 76.028, 50.195 75.442, 51.569 73.924 C 52.403 73.002, 55.429 71.658, 58.293 70.937 C 64.845 69.288, 83.514 69.116, 87.500 70.669 C 89.150 71.312, 91.798 72.123, 93.385 72.472 L 96.270 73.106 95.563 66.852 C 94.676 59.018, 93.645 57.079, 89.975 56.345 C 88.349 56.020, 86.795 54.930, 86.462 53.881 C 86.134 52.846, 85.172 52, 84.326 52 C 83.403 52, 83.005 51.428, 83.334 50.573 C 83.635 49.788, 83.237 48.612, 82.450 47.959 C 81.579 47.236, 81.247 45.865, 81.601 44.455 C 82.102 42.457, 81.880 42.219, 79.980 42.715 C 77.835 43.276, 77.847 43.188, 80.473 39.221 C 83.015 35.380, 88.653 32, 92.520 32 C 94.237 32, 94.475 28.755, 92.965 25.934 C 91.734 23.634, 89.171 23.392, 88.362 25.500 C 88.034 26.355, 86.542 27, 84.896 27 C 81.224 27, 74.525 21.120, 73.027 16.581 C 72.425 14.757, 70.864 12.804, 69.519 12.191 C 66.993 11.040, 64.747 7.444, 63.621 2.750 L 62.962 -0 31.481 -0 L 0 0 0 72 M 67 0.878 C 67 1.360, 67.622 2.272, 68.383 2.903 C 69.454 3.792, 69.906 3.688, 70.383 2.444 C 71.275 0.121, 71.206 0, 69 0 C 67.900 0, 67 0.395, 67 0.878 M 188.502 1.003 C 188.843 1.554, 189.766 3.242, 190.555 4.753 L 191.988 7.500 191.994 3.750 C 191.999 0.629, 191.655 0, 189.941 0 C 188.809 0, 188.161 0.451, 188.502 1.003 M 72.201 8.118 C 72.628 9.418, 79.618 13.948, 81.250 13.984 C 83.410 14.031, 81.415 11.999, 76.873 9.527 C 73.611 7.752, 71.911 7.240, 72.201 8.118 M 74 14.550 C 74 16.172, 77.306 21.095, 79.615 22.912 C 82.978 25.557, 86.067 25.571, 88.310 22.950 C 89.991 20.988, 89.976 20.775, 87.965 17.950 C 85.685 14.749, 85.235 14.566, 83.053 15.946 C 82.121 16.536, 80.385 16.352, 78.181 15.431 C 74.368 13.838, 74 13.760, 74 14.550 M 190.207 32.514 C 188.621 38.445, 188.684 40.493, 190.500 42 C 191.811 43.088, 192 42.285, 192 35.622 C 192 31.430, 191.868 28, 191.707 28 C 191.546 28, 190.871 30.031, 190.207 32.514 M 86.250 35.491 C 84.463 36.268, 83 37.359, 83 37.916 C 83 38.771, 91.578 35.755, 92.896 34.437 C 93.887 33.447, 89.269 34.179, 86.250 35.491 M 88.750 37.799 C 84.738 39.374, 83.793 41, 86.889 41 C 88.846 41, 93.883 37.496, 93 36.749 C 92.725 36.516, 90.813 36.989, 88.750 37.799 M 136.702 61.750 C 137.411 69.135, 137.262 69, 144.656 69 L 151.374 69 148.437 65.900 C 145.746 63.060, 137.750 57, 136.693 57 C 136.447 57, 136.451 59.138, 136.702 61.750 M 100 72.500 C 100 74.657, 100.404 75.869, 101 75.500 C 101.550 75.160, 102 73.810, 102 72.500 C 102 71.190, 101.550 69.840, 101 69.500 C 100.404 69.131, 100 70.343, 100 72.500 M 137.879 71 C 137.815 71.275, 137.794 71.771, 137.833 72.103 C 137.871 72.435, 138.368 81.712, 138.937 92.718 C 139.788 109.199, 140.526 115.092, 143.118 126.115 C 144.849 133.477, 146.483 140.512, 146.749 141.750 L 147.233 144 169.617 144 L 192 144 192 124.484 C 192 112.182, 191.559 103.557, 190.808 101.150 C 189.617 97.333, 189.612 97.330, 181.058 95.579 C 176.351 94.616, 170.553 92.702, 168.172 91.326 C 163.664 88.720, 158.573 81.885, 157.499 76.996 C 156.483 72.368, 154.248 71.196, 145.748 70.832 C 141.484 70.649, 137.943 70.725, 137.879 71 M 159 77.350 C 159 79.738, 164.498 86.975, 168.251 89.525 C 173.104 92.822, 173.720 92.645, 170.541 88.866 C 169.091 87.143, 166.965 83.881, 165.818 81.616 C 164.670 79.352, 163.229 77.169, 162.616 76.765 C 160.831 75.590, 159 75.886, 159 77.350 M 169.385 81.750 C 172.080 86.910, 180.341 93, 184.647 93 C 185.989 93, 185.597 92.178, 182.946 89.437 C 179.738 86.119, 169.921 79, 168.555 79 C 168.221 79, 168.595 80.237, 169.385 81.750" stroke="none" fill="black" fill-rule="evenodd"/>
</svg>