<svg xmlns="http://www.w3.org/2000/svg" width="192" height="144" viewBox="0 0 192 144" version="1.1">
	<path d="M 58.105 29.085 C 56.788 29.612, 54.912 29.789, 53.936 29.480 C 52.102 28.898, 51.741 29.543, 50.536 35.566 C 50.087 37.807, 50.470 39.328, 51.961 41.223 C 53.082 42.649, 54 44.159, 54 44.579 C 54 44.999, 54.768 46.191, 55.706 47.227 C 57.088 48.755, 57.186 49.473, 56.222 51.016 C 55.568 52.064, 55.297 53.610, 55.620 54.452 C 55.956 55.329, 55.558 56.232, 54.687 56.567 C 52.808 57.288, 48 64.408, 48 66.470 C 48 67.302, 48.900 68.545, 50 69.232 C 52.587 70.847, 52.610 75.391, 50.057 80.155 C 48.988 82.149, 48.319 83.986, 48.570 84.237 C 49.030 84.697, 47.042 89.442, 44.505 93.937 C 43.357 95.971, 43.351 96.550, 44.469 97.437 C 45.585 98.322, 45.510 100.924, 44.021 113 C 43.038 120.975, 41.970 131.213, 41.648 135.750 L 41.063 144 60.656 144 L 80.250 144 79.582 140.750 C 79.215 138.963, 78.030 131.650, 76.950 124.500 C 75.195 112.882, 70.422 94.070, 67.787 88.386 C 67.077 86.853, 67.239 85.438, 68.379 83.235 C 69.443 81.177, 69.932 77.596, 69.897 72.129 C 69.868 67.692, 70.101 63.646, 70.414 63.139 C 70.728 62.631, 70.211 60.130, 69.266 57.581 L 67.549 52.946 70.774 50.193 C 72.548 48.678, 74 46.891, 74 46.220 C 74 45.549, 74.391 45, 74.869 45 C 76.367 45, 75.113 38.968, 72.998 35.997 C 68.047 29.044, 63.492 26.930, 58.105 29.085 M 125.280 58.826 C 118.942 61.401, 118.236 62.436, 120.361 66.034 L 122.141 69.047 117.321 73.447 L 112.500 77.846 108.150 75.322 C 105.187 73.603, 103.475 73.125, 102.779 73.821 C 102.216 74.384, 101.136 74.606, 100.378 74.315 C 99.620 74.024, 99 74.320, 99 74.972 C 99 75.770, 98.018 75.943, 96 75.500 C 94.161 75.096, 93 75.245, 93 75.885 C 93 77.255, 96.324 79, 98.934 79 C 100.267 79, 101 79.647, 101 80.823 C 101 82.270, 102.291 82.886, 107.250 83.803 C 115.307 85.293, 128.606 91.856, 128.228 94.155 C 128.078 95.066, 128.908 97.425, 130.072 99.398 C 132.685 103.826, 132.420 106.023, 127.167 123.500 C 123.290 136.399, 123.275 136.514, 125.241 138.250 C 126.330 139.212, 128.491 140, 130.043 140 C 131.987 140, 133.063 140.622, 133.500 142 C 134.030 143.670, 135.013 144, 139.451 144 C 143.826 144, 144.854 143.665, 145.262 142.106 C 145.559 140.970, 147.042 139.930, 148.969 139.507 C 151.675 138.913, 152.080 138.462, 151.536 136.651 C 151.181 135.468, 150.255 130.225, 149.477 125 C 147.387 110.959, 144.309 93.723, 143.570 91.928 C 143.121 90.839, 143.779 89.953, 145.711 89.043 C 150.664 86.712, 157.368 84.863, 162.961 84.287 C 171.406 83.417, 177.684 79.052, 171.790 78.149 C 170.530 77.956, 169.275 77.506, 169 77.149 C 167.080 74.656, 164.369 74.285, 161 76.053 C 159.075 77.063, 154.012 79.461, 149.750 81.380 L 142 84.870 142 82.207 C 142 80.376, 143.250 78.401, 146 75.887 C 150.468 71.803, 150.997 69.213, 147.932 66.438 C 146.413 65.064, 144.416 64.587, 140.416 64.645 C 135.341 64.718, 134.926 64.545, 134.347 62.112 C 133.592 58.946, 132.147 56.981, 130.628 57.056 C 130.007 57.087, 127.601 57.883, 125.280 58.826" stroke="none" fill="black" fill-rule="evenodd"/>
</svg>