<svg xmlns="http://www.w3.org/2000/svg" width="192" height="144" viewBox="0 0 192 144" version="1.1">
	<path d="M 0 40.500 L 0 81 2.750 80.956 C 6.090 80.903, 12.220 80.163, 44.500 75.915 C 67.067 72.946, 72.030 72.621, 95.500 72.571 C 120.306 72.517, 122.089 72.643, 134.316 75.296 C 146.123 77.858, 147.777 77.991, 155.316 76.989 C 162.681 76.009, 172.689 73.439, 184.785 69.423 C 191.663 67.139, 191.863 67.268, 192.260 74.250 C 192.455 77.688, 192.701 62.388, 192.807 40.250 L 193 0 96.500 0 L 0 0 0 40.500 M 0.456 41 C 0.456 63.275, 0.588 72.388, 0.749 61.250 C 0.910 50.113, 0.910 31.888, 0.749 20.750 C 0.588 9.613, 0.456 18.725, 0.456 41 M -0 116.960 L -0 144.010 96.250 143.755 L 192.500 143.500 192.598 116 C 192.652 100.875, 192.503 90.071, 192.267 91.991 C 192.031 93.911, 191.311 95.858, 190.669 96.317 C 189.788 96.946, 189.808 97.277, 190.750 97.659 C 192.644 98.428, 192.281 102, 190.309 102 C 188.834 102, 188.866 102.188, 190.559 103.468 C 193.356 105.584, 191.336 105.338, 182.389 102.476 C 157.992 94.673, 152.100 94.085, 133.936 97.646 C 120.989 100.183, 117.540 100.465, 100.500 100.373 C 79.742 100.262, 66.451 99.183, 40.500 95.502 C 31.150 94.176, 19.675 92.616, 15 92.036 C 10.325 91.456, 5.038 90.740, 3.250 90.445 L -0 89.909 -0 116.960 M 0.439 117 C 0.439 132.125, 0.578 138.313, 0.748 130.750 C 0.917 123.188, 0.917 110.813, 0.748 103.250 C 0.578 95.688, 0.439 101.875, 0.439 117" stroke="none" fill="black" fill-rule="evenodd"/>
</svg>