<svg xmlns="http://www.w3.org/2000/svg" width="192" height="144" viewBox="0 0 192 144" version="1.1">
	<path d="M 117.888 8.112 C 116.103 9.897, 115.841 11.119, 116.194 16.005 L 116.612 21.786 112.818 23.460 C 107.169 25.953, 100.253 33.341, 98.923 38.305 C 98.305 40.612, 97.381 43.563, 96.870 44.862 C 96.324 46.250, 96.308 47.693, 96.833 48.362 C 97.323 48.988, 98.017 50.728, 98.376 52.228 C 98.798 53.997, 100.426 55.755, 103.006 57.228 C 107.474 59.780, 107.531 59.892, 105.636 62.483 C 104.422 64.143, 104.739 64.962, 108.511 69.924 C 112.101 74.647, 112.944 76.689, 114.019 83.267 C 115.168 90.297, 115.116 91.415, 113.474 95.058 C 112.230 97.817, 111.196 98.906, 110.189 98.519 C 107.064 97.320, 105 98.992, 105 102.723 C 105 105, 104.096 107.497, 102.524 109.557 L 100.048 112.803 92.522 110.413 C 88.383 109.099, 83.181 107.733, 80.962 107.378 C 76.477 106.661, 75.563 105.494, 74.510 99.144 C 73.556 93.385, 71.064 91, 66 91 C 63.504 91, 61.974 90.530, 61.930 89.750 C 61.891 89.063, 61.546 89.293, 61.162 90.262 C 60.779 91.231, 58.921 92.806, 57.034 93.762 C 51.409 96.610, 50.632 104.770, 55.322 111.736 C 57.478 114.939, 63.194 118, 67.020 118 C 68.109 118, 69 118.468, 69 119.041 C 69 121.105, 64.851 133.613, 62.463 138.750 L 60.022 144 83.511 144 C 105.198 144, 107.003 143.866, 107.045 142.250 C 107.070 141.287, 107.712 139.150, 108.471 137.500 C 109.827 134.554, 109.842 134.586, 109.290 139.250 L 108.728 144 135.864 144 C 150.789 144, 162.998 143.662, 162.995 143.250 C 162.992 142.838, 161.881 140.700, 160.526 138.500 C 159.071 136.138, 158.050 132.943, 158.031 130.698 C 158.004 127.355, 158.365 126.769, 161.021 125.843 C 162.683 125.264, 164.499 123.937, 165.056 122.895 C 165.902 121.315, 165.722 121, 163.969 121 C 162.814 121, 160.950 121.492, 159.827 122.093 C 158.704 122.694, 157.409 122.806, 156.950 122.343 C 156.490 121.879, 155.240 116.550, 154.170 110.500 C 153.100 104.450, 151.865 98.600, 151.425 97.500 C 150.714 95.721, 150.812 95.651, 152.313 96.872 C 153.807 98.088, 154.002 97.973, 154.015 95.872 C 154.028 93.939, 154.221 93.777, 155.061 95 C 155.793 96.064, 155.933 94.466, 155.544 89.500 L 154.995 82.500 156.923 86.500 C 157.984 88.700, 158.885 91.036, 158.926 91.691 C 158.967 92.346, 159.461 93.167, 160.024 93.515 C 160.699 93.932, 160.819 92.676, 160.376 89.824 C 159.707 85.520, 159.713 85.508, 161.761 87.322 L 163.817 89.145 163.335 74.822 C 162.805 59.078, 160.924 46.454, 157.941 38.604 C 156.874 35.797, 156.001 32.695, 156.001 31.710 C 156 29.056, 152.568 22.848, 149.538 20.020 C 147.480 18.099, 145.710 17.507, 141.690 17.395 C 136.800 17.259, 136.172 16.926, 130.815 11.625 C 124.522 5.398, 121.440 4.560, 117.888 8.112" stroke="none" fill="black" fill-rule="evenodd"/>
</svg>