<svg xmlns="http://www.w3.org/2000/svg" width="192" height="144" viewBox="0 0 192 144" version="1.1">
	<path d="M 60.975 2.565 C 57.869 10.734, 63.391 22.993, 71.925 26.874 L 75.500 28.500 69.706 28.801 C 64.786 29.057, 63.784 29.438, 63.068 31.322 C 62.603 32.543, 61.048 34.171, 59.612 34.940 C 56.514 36.598, 56.296 38.080, 58.910 39.712 C 61.355 41.239, 62.473 46.248, 60.988 49.023 C 60.065 50.747, 60.151 51.391, 61.428 52.332 C 62.792 53.336, 62.931 55.327, 62.417 66.500 C 61.408 88.414, 61.148 92.366, 60.463 96.162 C 60.099 98.176, 60.246 100.617, 60.788 101.586 C 61.481 102.823, 61.306 104.615, 60.201 107.595 C 58.846 111.251, 58.813 112.404, 59.963 115.888 C 61.035 119.136, 61.051 120.233, 60.047 121.444 C 59.213 122.448, 59.001 124.548, 59.412 127.726 C 60.213 133.928, 60.216 135.723, 59.431 140.250 C 59.003 142.720, 59.160 144, 59.891 144 C 60.501 144, 61 142.875, 61 141.500 C 61 139.944, 61.567 139, 62.500 139 C 63.433 139, 64 139.944, 64 141.500 C 64 142.875, 64.450 144, 65 144 C 66.387 144, 66.225 141.225, 64.563 136.500 C 63.700 134.050, 63.513 132.132, 64.078 131.550 C 65.352 130.237, 65.236 123.310, 63.898 120.809 C 63.135 119.383, 63.109 118.096, 63.814 116.625 C 65.585 112.931, 65.853 110.070, 64.711 107.044 C 63.858 104.786, 63.912 103.533, 64.945 101.603 C 65.868 99.878, 66.085 97.384, 65.642 93.608 C 65.217 89.996, 65.378 87.885, 66.111 87.431 C 66.797 87.007, 67.060 84.731, 66.793 81.515 L 66.359 76.287 70.804 79.680 C 73.248 81.546, 79.061 85.402, 83.720 88.250 C 91.679 93.113, 92.080 93.519, 90.345 94.963 C 87.437 97.384, 85 101.701, 85 104.431 C 85 105.807, 84.365 108.410, 83.590 110.216 C 81.624 114.793, 79 127.025, 79 131.610 C 79 133.713, 79.736 137.361, 80.636 139.717 L 82.272 144 105.252 144 C 127.507 144, 128.217 143.939, 127.726 142.059 C 127.053 139.488, 128.639 106.005, 129.542 103.707 C 129.930 102.721, 131.929 101.056, 133.986 100.007 C 138.395 97.758, 146.767 88.777, 147.619 85.383 C 147.947 84.076, 147.724 80.223, 147.125 76.819 C 146.526 73.416, 146.140 70.563, 146.268 70.478 C 146.395 70.394, 148.422 69.577, 150.770 68.663 C 154.989 67.020, 155.091 67.032, 159.270 69.635 L 163.500 72.270 161.076 69.635 C 159.408 67.823, 159.096 67, 160.076 66.999 C 162.411 66.998, 162.087 62.100, 159.647 60.524 C 157.278 58.994, 145.297 58.382, 140.500 59.546 L 137.500 60.274 139.635 57.887 C 140.809 56.574, 142.062 54.536, 142.418 53.358 C 142.775 52.180, 143.973 50.979, 145.082 50.689 C 146.269 50.378, 147.753 48.494, 148.692 46.103 C 149.569 43.870, 151.085 41.791, 152.061 41.481 C 156.163 40.179, 159 36.899, 159 33.459 C 159 29.467, 157.640 29.615, 152.682 34.144 C 150.962 35.715, 148.755 37, 147.777 37 C 146.800 37, 146 37.413, 146 37.918 C 146 39.315, 139.551 43, 137.107 43 C 135.785 43, 134.616 43.879, 134.087 45.271 C 133.612 46.520, 132.161 48.108, 130.862 48.799 C 128.857 49.865, 127.902 49.748, 124.539 48.027 C 120.267 45.841, 108 45.095, 108 47.021 C 108 47.583, 106.988 48.513, 105.750 49.087 C 103.082 50.326, 99.809 56.340, 100.634 58.489 C 101.051 59.574, 100.549 60, 98.852 60 C 97.084 60, 96.206 60.818, 95.364 63.250 C 94.746 65.037, 93.644 67.943, 92.917 69.706 C 91.667 72.737, 91.772 73.133, 94.851 76.964 C 96.642 79.193, 97.844 81.444, 97.521 81.966 C 97.199 82.487, 94.137 81.105, 90.717 78.894 C 87.298 76.683, 82.374 73.897, 79.776 72.705 C 74.470 70.268, 74.241 69.618, 73.548 55 C 73.353 50.875, 72.902 46.779, 72.546 45.898 C 72.114 44.828, 72.763 43.730, 74.498 42.593 C 77.040 40.928, 77.157 40.956, 79.931 43.926 C 83.251 47.480, 86.762 49, 91.655 49 C 94.008 49, 95.734 49.685, 96.848 51.061 C 99.146 53.898, 102.365 52.690, 101.705 49.239 C 101.393 47.603, 102.257 45.111, 104.246 41.911 C 106.873 37.685, 107.196 36.392, 106.759 31.843 C 106.334 27.417, 105.696 26.110, 102.561 23.236 C 98.585 19.593, 98.512 19.299, 99.520 11 C 99.911 7.779, 99.744 4.361, 99.118 2.750 L 98.050 0 80 0 L 61.950 0 60.975 2.565 M 60 38 C 60 38.550, 60.450 39, 61 39 C 61.550 39, 62 38.550, 62 38 C 62 37.450, 61.550 37, 61 37 C 60.450 37, 60 37.450, 60 38 M 63 83 C 63 84.111, 63.667 85, 64.500 85 C 65.333 85, 66 84.111, 66 83 C 66 81.889, 65.333 81, 64.500 81 C 63.667 81, 63 81.889, 63 83 M 62 97 C 62 98.111, 62.667 99, 63.500 99 C 64.333 99, 65 98.111, 65 97 C 65 95.889, 64.333 95, 63.500 95 C 62.667 95, 62 95.889, 62 97 M 61 111.500 C 61 113.056, 61.567 114, 62.500 114 C 63.433 114, 64 113.056, 64 111.500 C 64 109.944, 63.433 109, 62.500 109 C 61.567 109, 61 109.944, 61 111.500 M 60.336 125.567 C 59.614 127.448, 61.384 129.499, 62.913 128.554 C 64.561 127.535, 64.216 124, 62.469 124 C 61.626 124, 60.667 124.705, 60.336 125.567" stroke="none" fill="black" fill-rule="evenodd"/>
</svg>