<svg xmlns="http://www.w3.org/2000/svg" width="192" height="144" viewBox="0 0 192 144" version="1.1">
	<path d="M -0 72.005 L -0 144.010 96.250 143.755 L 192.500 143.500 192.757 71.750 L 193.013 0 96.507 0 L 0 0 -0 72.005 M 0.474 72.500 C 0.474 112.100, 0.598 128.154, 0.750 108.176 C 0.901 88.198, 0.901 55.798, 0.750 36.176 C 0.598 16.554, 0.474 32.900, 0.474 72.500 M 98.269 67.309 C 96.775 70.589, 94.682 70.771, 93.208 67.750 L 92.110 65.500 91.439 67.750 C 90.636 70.438, 88.233 70.676, 86.392 68.250 C 85.159 66.625, 85.061 66.657, 85.032 68.691 C 84.991 71.473, 83.337 72.525, 81.456 70.964 C 80.255 69.967, 80 70.146, 80 71.985 C 80 73.539, 79.553 74.043, 78.524 73.648 C 77.406 73.218, 77.125 73.742, 77.366 75.811 C 77.541 77.313, 78.205 79.515, 78.842 80.705 C 80.817 84.395, 80.238 87.615, 77.250 89.560 C 65.229 97.384, 75.608 107.998, 95.282 107.999 C 108.464 108, 120 102.742, 120 96.733 C 120 94.370, 115.348 89, 113.302 89 C 110.830 89, 110.785 82.394, 113.237 79.278 C 113.765 78.606, 114.564 76.435, 115.011 74.453 C 115.800 70.951, 115.769 70.899, 113.912 72.580 C 112.073 74.244, 112 74.203, 112 71.500 C 112 68.841, 111.902 68.779, 110.171 70.345 C 107.561 72.708, 107.001 72.426, 106.995 68.750 L 106.990 65.500 104.705 68.356 C 102.850 70.673, 102.212 70.956, 101.318 69.856 C 100.711 69.110, 100.053 67.626, 99.855 66.559 C 99.543 64.873, 99.334 64.972, 98.269 67.309" stroke="none" fill="black" fill-rule="evenodd"/>
</svg>