<svg xmlns="http://www.w3.org/2000/svg" width="192" height="144" viewBox="0 0 192 144" version="1.1">
	<path d="M 68.668 11.656 C 67.958 16.036, 68.418 16.980, 71.309 17.063 C 73.499 17.127, 73.499 17.127, 71.395 17.978 C 70.237 18.446, 66.862 19.110, 63.895 19.455 C 48.752 21.212, 43.417 22.157, 42.320 23.273 C 40.491 25.134, 40.169 35.867, 41.909 36.943 C 42.684 37.423, 43.922 37.583, 44.659 37.300 C 45.596 36.941, 46 37.686, 46 39.772 C 46 42.145, 46.614 43.012, 48.993 43.997 C 50.639 44.679, 52.889 45.001, 53.993 44.712 C 55.651 44.279, 56 44.676, 56 46.996 C 56 49.247, 56.625 50.022, 59.149 50.902 C 60.881 51.506, 63.817 52, 65.672 52 C 68.925 52, 68.995 52.081, 67.627 54.250 C 64.527 59.166, 64.722 60.500, 68.747 61.921 C 70.811 62.650, 73.307 63.953, 74.293 64.817 C 75.647 66.003, 78.095 66.350, 84.293 66.234 C 91.552 66.099, 93.270 65.680, 99.170 62.608 C 107.132 58.462, 105.572 57.952, 125.668 71.272 C 132.911 76.072, 139.323 80, 139.918 80 C 140.513 80, 141 80.340, 141 80.756 C 141 81.580, 141.412 81.764, 157.380 88.081 C 169.304 92.798, 172.655 93.163, 184.772 91.069 L 192.044 89.812 191.772 71.656 L 191.500 53.500 188.889 53.197 C 186.763 52.950, 185.975 53.534, 184.644 56.338 C 181.788 62.356, 176.845 62.628, 169.591 57.167 C 165.350 53.975, 147.434 42.829, 135.500 35.958 C 133.850 35.008, 128.225 31.737, 123 28.689 C 117.775 25.642, 111.025 22.397, 108 21.480 C 104.975 20.562, 100.392 18.954, 97.815 17.906 C 95.238 16.858, 92.514 16, 91.762 16 C 91.010 16, 86.672 14.200, 82.123 12 C 71.493 6.859, 69.455 6.807, 68.668 11.656 M 57.250 96.244 C 52.139 97.128, 52 97.242, 52 100.511 C 52 105.696, 53.724 109.133, 58.561 113.591 C 62.524 117.243, 63.718 119.821, 63.083 123.355 C 62.634 125.858, 65.556 126.999, 72.372 126.985 C 82.074 126.965, 84.366 125.690, 84.502 120.239 C 84.589 116.802, 85.296 115.266, 88.186 112.242 C 92.605 107.620, 94 104.975, 94 101.221 C 94 95.636, 91.840 94.889, 76.373 95.124 C 68.743 95.240, 60.138 95.744, 57.250 96.244" stroke="none" fill="black" fill-rule="evenodd"/>
</svg>