<svg xmlns="http://www.w3.org/2000/svg" width="192" height="144" viewBox="0 0 192 144" version="1.1">
	<path d="M 64 64.313 C 64 65.176, 64.441 66.154, 64.980 66.487 C 65.598 66.870, 65.519 67.797, 64.765 69.004 C 63.765 70.605, 63.959 71.328, 65.960 73.458 C 68.489 76.150, 68.174 76.392, 62.637 76.019 C 60.794 75.894, 60.013 76.213, 60.446 76.913 C 60.816 77.511, 61.574 78, 62.130 78 C 62.687 78, 63.818 78.675, 64.643 79.500 C 65.976 80.833, 65.940 81.013, 64.321 81.118 C 63.320 81.184, 61.825 81.141, 61 81.023 C 60.175 80.906, 59.831 81.146, 60.234 81.556 C 60.638 81.966, 60.232 82.841, 59.332 83.499 C 56.972 85.225, 58.331 86.624, 63.228 87.512 C 65.599 87.942, 66.721 88.478, 65.750 88.717 C 63.794 89.197, 63.459 91.059, 65.042 92.642 C 65.766 93.366, 65.612 94.077, 64.542 94.965 C 63.694 95.669, 63 97.142, 63 98.238 C 63 100.067, 63.446 100.175, 68.436 99.551 L 73.871 98.872 73.419 104.936 C 72.896 111.946, 73.490 112.292, 78.809 108.070 C 83.288 104.513, 88.903 103.303, 93.017 105.007 C 94.657 105.687, 96 106.526, 96 106.873 C 96 108.095, 104.565 111.845, 110 113.003 C 119.421 115.010, 119 114.704, 119 119.548 C 119 123.305, 119.335 124.039, 121.250 124.479 C 122.487 124.764, 129.406 126.128, 136.625 127.510 C 143.844 128.893, 158.637 132.943, 169.498 136.512 C 180.359 140.080, 189.865 143, 190.622 143 C 191.743 143, 192 139.566, 192 124.625 L 192 106.250 188.934 105.637 C 187.247 105.299, 186.095 104.655, 186.374 104.205 C 186.652 103.754, 184.094 102.804, 180.690 102.093 C 177.285 101.381, 171.321 99.945, 167.436 98.900 C 163.551 97.855, 158.826 96.993, 156.936 96.985 C 154.717 96.975, 153.965 96.674, 154.813 96.137 C 155.643 95.610, 153.254 94.826, 148.313 94.003 C 144.016 93.287, 138.830 91.868, 136.790 90.850 C 134.749 89.833, 132.162 89, 131.040 89 C 129.918 89, 129 88.560, 129 88.021 C 129 87.414, 128.097 87.454, 126.615 88.129 C 124.588 89.053, 122.784 88.526, 114.566 84.608 C 109.251 82.074, 104.562 80, 104.147 80 C 103.732 80, 101.842 78.387, 99.946 76.415 C 95.713 72.011, 92.019 70, 88.162 70 C 86.546 70, 82.362 68.667, 78.862 67.039 C 70.829 63.299, 64 62.047, 64 64.313 M 69.813 76.683 C 70.534 76.972, 71.397 76.936, 71.729 76.604 C 72.061 76.272, 71.471 76.036, 70.417 76.079 C 69.252 76.127, 69.015 76.364, 69.813 76.683" stroke="none" fill="black" fill-rule="evenodd"/>
</svg>