<svg xmlns="http://www.w3.org/2000/svg" width="192" height="144" viewBox="0 0 192 144" version="1.1">
	<path d="M 0 72 L 0 144 37.250 143.977 C 72.309 143.956, 74.306 143.859, 71.207 142.332 C 67.043 140.279, 65.649 137.685, 66.441 133.463 C 66.967 130.661, 66.590 129.650, 64.060 127.061 C 61.491 124.433, 61.196 123.615, 62.027 121.428 C 63.529 117.477, 63.393 117.289, 56.936 114.391 C 43.891 108.536, 34.112 91.023, 39.899 83.877 L 41.797 81.532 42.945 86.016 C 45.178 94.734, 47.215 98.129, 52.153 101.364 L 54.767 103.077 52.385 98.371 C 51.074 95.783, 50.236 93.431, 50.522 93.145 C 50.808 92.859, 52.945 94.444, 55.271 96.668 C 59.577 100.786, 73.568 109.583, 80.115 112.290 C 83.841 113.831, 86 117.642, 86 122.681 C 86 124.046, 86.747 125.328, 87.750 125.683 C 88.713 126.025, 90.236 126.934, 91.135 127.703 C 92.035 128.473, 94.027 129.199, 95.563 129.317 C 98.066 129.509, 98.478 130.075, 99.534 134.763 C 100.811 140.433, 100.535 141.059, 95.946 142.901 C 94.305 143.560, 109.796 143.820, 143 143.692 L 192.500 143.500 192.757 71.750 L 193.013 0 96.507 0 L 0 0 0 72 M 0.474 72.500 C 0.474 112.100, 0.598 128.154, 0.750 108.176 C 0.901 88.198, 0.901 55.798, 0.750 36.176 C 0.598 16.554, 0.474 32.900, 0.474 72.500 M 42.250 51.321 C 39.913 53.676, 38 56.142, 38 56.801 C 38 57.631, 40.418 58, 45.859 58 C 52.603 58, 54.554 58.424, 59.609 60.987 C 62.849 62.630, 65.612 63.980, 65.750 63.987 C 65.888 63.994, 66 62.606, 66 60.901 C 66 58.698, 65.061 56.920, 62.750 54.750 C 59.389 51.594, 50.635 47.012, 48 47.030 C 47.175 47.036, 44.587 48.967, 42.250 51.321 M 107 80.500 C 105.703 83.911, 106.765 88.430, 109.457 90.960 C 112.374 93.700, 121.487 97, 126.138 97 C 129.343 97, 129.941 96.608, 130.890 93.885 C 132.076 90.482, 131.648 89, 129.478 89 C 126.300 89, 116.758 84.640, 112.921 81.434 C 110.660 79.545, 108.617 78, 108.381 78 C 108.144 78, 107.523 79.125, 107 80.500 M 96.592 95.753 C 96.256 99.464, 96.370 106.100, 96.847 110.500 C 97.328 114.945, 97.332 119.248, 96.856 120.184 C 96.385 121.111, 96 122.487, 96 123.244 C 96 125.581, 105.112 135.464, 107.881 136.130 C 109.322 136.476, 112.700 137.763, 115.389 138.988 C 121.028 141.558, 125.193 141.280, 130.541 137.975 C 134.643 135.439, 134.854 134.346, 131.531 132.832 C 128.333 131.375, 129.168 130.110, 133.252 130.226 C 135.550 130.292, 138.130 131.699, 142.276 135.150 C 148.717 140.510, 151.374 141.528, 156.446 140.576 C 164.614 139.044, 167.897 128.105, 161.500 123.739 C 157.818 121.226, 149 112.843, 149 111.855 C 149 111.459, 150.012 110.827, 151.250 110.451 C 154.593 109.436, 160 105.109, 160 103.449 C 160 101.507, 159.445 101.611, 155.917 104.220 C 152.934 106.425, 152.882 106.427, 147.846 104.639 L 142.778 102.839 140.139 105.297 C 136.398 108.782, 133.660 110, 129.566 110 C 125.232 110, 124.844 111.819, 129 112.650 C 130.650 112.980, 132 113.609, 132 114.048 C 132 114.486, 129.507 116.976, 126.459 119.579 L 120.918 124.313 117.459 120.960 C 115.557 119.116, 114 117.104, 114 116.488 C 114 115.872, 115.807 114.353, 118.014 113.112 C 122.542 110.567, 122.419 109.005, 117.691 108.989 C 109.202 108.960, 107.200 108.017, 104.171 102.623 C 102.589 99.805, 100.746 95.819, 100.075 93.764 C 98.168 87.927, 97.253 88.450, 96.592 95.753 M 143.962 131.929 C 145.351 134.523, 151.598 137.256, 154.276 136.441 C 156.682 135.708, 160 133.125, 160 131.984 C 160 131.596, 158.283 131.736, 156.185 132.296 C 153.224 133.086, 151.321 132.957, 147.682 131.717 C 143.202 130.190, 143.036 130.200, 143.962 131.929" stroke="none" fill="black" fill-rule="evenodd"/>
</svg>