<svg xmlns="http://www.w3.org/2000/svg" width="192" height="144" viewBox="0 0 192 144" version="1.1">
	<path d="M 0 72 L 0 144 33.500 144 C 56.036 144, 67 143.659, 67 142.960 C 67 142.387, 67.977 140.597, 69.171 138.982 C 70.366 137.367, 72.136 132.921, 73.106 129.103 C 74.076 125.285, 76.234 118.750, 77.904 114.582 C 81.012 106.819, 81.067 104.442, 78.158 103.591 C 74.654 102.567, 68.334 101.630, 64.500 101.566 C 60.831 101.505, 60.496 101.273, 60.454 98.750 C 60.400 95.591, 60.386 95.599, 62.973 97.215 C 65.384 98.721, 71.779 96.722, 73.825 93.824 C 74.673 92.623, 76.113 92.047, 77.825 92.224 C 79.913 92.439, 80.568 92.025, 80.808 90.336 C 81.278 87.036, 77.705 86.401, 73.454 89.028 C 66.523 93.312, 62.651 89.365, 66.919 82.365 C 68.300 80.100, 68.528 78.928, 67.739 78.139 C 66.470 76.870, 69.419 73, 71.655 73 C 72.395 73, 73 72.539, 73 71.975 C 73 71.412, 74.208 70.491, 75.685 69.930 C 77.849 69.107, 78.547 69.227, 79.286 70.547 C 80.962 73.542, 91 70.564, 91 67.072 C 91 66.050, 90.325 64.955, 89.500 64.638 C 88.618 64.300, 88 62.800, 88 60.996 C 88 59.310, 87.285 56.839, 86.412 55.505 C 85.372 53.918, 85.044 52.076, 85.463 50.170 C 85.814 48.569, 86.275 45.134, 86.487 42.537 C 86.857 37.994, 89.324 34.464, 91.283 35.675 C 91.725 35.948, 92.733 35.636, 93.523 34.981 C 94.562 34.119, 95.768 34.072, 97.894 34.813 C 99.509 35.376, 101.094 35.573, 101.416 35.250 C 101.739 34.928, 103.015 35.129, 104.252 35.698 C 105.488 36.267, 107.850 37.140, 109.500 37.637 C 111.609 38.272, 112.604 39.277, 112.851 41.020 C 113.044 42.384, 113.687 43.801, 114.280 44.170 C 114.877 44.540, 115.546 49.114, 115.779 54.420 C 116.143 62.709, 115.984 64, 114.600 64 C 113.720 64, 113 64.461, 113 65.025 C 113 65.588, 111.875 66.477, 110.500 67 C 108.054 67.930, 107.019 70, 109 70 C 109.550 70, 110.900 70.900, 112 72 C 115.562 75.562, 114.104 86.197, 109.869 87.542 C 108.733 87.902, 107.466 90.059, 106.521 93.242 C 104.444 100.236, 104.530 104.911, 106.750 105.630 C 111.862 107.287, 121 112.300, 121 113.448 C 121 114.175, 118.938 117.275, 116.418 120.336 L 111.836 125.901 114.853 130.201 C 118.898 135.967, 121.866 139.152, 125.674 141.811 C 128.811 144.002, 129.221 144.025, 160.674 143.764 L 192.500 143.500 192.757 71.750 L 193.013 0 96.507 0 L 0 0 0 72 M 0.474 72.500 C 0.474 112.100, 0.598 128.154, 0.750 108.176 C 0.901 88.198, 0.901 55.798, 0.750 36.176 C 0.598 16.554, 0.474 32.900, 0.474 72.500 M 92 66.441 C 92 68.233, 93.652 69.333, 95.049 68.470 C 95.765 68.027, 95.727 67.376, 94.926 66.411 C 93.415 64.590, 92 64.605, 92 66.441 M 115.150 141 C 116.080 143.668, 116.644 144, 120.248 144 L 124.301 144 119.900 141.018 C 114.386 137.282, 113.853 137.280, 115.150 141" stroke="none" fill="black" fill-rule="evenodd"/>
</svg>