<svg xmlns="http://www.w3.org/2000/svg" width="192" height="144" viewBox="0 0 192 144" version="1.1">
	<path d="M 95.500 69.048 C 93.300 69.573, 89.884 70.713, 87.909 71.581 C 84.638 73.020, 83.983 73.020, 80.537 71.580 C 75.336 69.407, 69.230 69.601, 64.485 72.091 C 55.599 76.755, 44.425 92.540, 41.016 105.246 C 39.161 112.159, 40.109 124.412, 42.923 129.884 C 46.244 136.341, 49.092 138.741, 54.374 139.533 C 57.995 140.076, 59 140.637, 59 142.114 C 59 143.935, 60.609 144, 105.975 144 L 152.950 144 151.947 141.361 C 150.536 137.650, 151.203 137.559, 154.510 141.010 C 156.805 143.406, 158.214 144, 161.598 144 C 165.688 144, 165.903 143.836, 168.411 138.804 C 172.780 130.035, 171.700 117.603, 165.230 102.218 C 159.056 87.537, 148.480 73.654, 141.427 70.972 C 137.567 69.505, 129.277 69.805, 125.933 71.535 C 123.207 72.944, 122.426 72.903, 116.358 71.029 C 108.181 68.503, 100.740 67.796, 95.500 69.048 M 59.079 131.583 C 59.127 132.748, 59.364 132.985, 59.683 132.188 C 59.972 131.466, 59.936 130.603, 59.604 130.271 C 59.272 129.939, 59.036 130.529, 59.079 131.583 M 54.500 133 C 54.160 133.550, 54.584 134, 55.441 134 C 56.298 134, 57 133.550, 57 133 C 57 132.450, 56.577 132, 56.059 132 C 55.541 132, 54.840 132.450, 54.500 133" stroke="none" fill="black" fill-rule="evenodd"/>
</svg>