<svg xmlns="http://www.w3.org/2000/svg" width="192" height="144" viewBox="0 0 192 144" version="1.1">
	<path d="M 0 72 L 0 144 18.563 144 L 37.127 144 36.813 140.750 C 36.551 138.025, 36.047 137.448, 33.696 137.178 C 31.878 136.970, 30.499 135.995, 29.774 134.404 C 29.160 133.056, 27.722 131.765, 26.579 131.537 C 25.435 131.308, 23.150 130.837, 21.500 130.489 C 19.850 130.142, 17.375 129.727, 16 129.568 C 13.795 129.313, 13.526 128.849, 13.721 125.636 C 13.961 121.665, 20.202 112.408, 24.566 109.549 C 25.905 108.672, 27 107.468, 27 106.874 C 27 106.280, 29.057 103.506, 31.571 100.710 C 34.085 97.913, 36.793 94.367, 37.588 92.830 C 38.909 90.275, 38.860 89.860, 37.017 88.017 C 35.908 86.908, 35 85.460, 35 84.800 C 35 83.932, 34.698 83.902, 33.907 84.693 C 33.117 85.483, 33.117 86.350, 33.907 87.827 C 35.626 91.038, 35.293 93.228, 33.189 92.560 C 31.837 92.131, 30.961 92.859, 29.733 95.434 C 28.829 97.330, 27.169 99.375, 26.044 99.976 C 24.157 100.987, 24 100.787, 24 97.373 C 24 95.267, 25.041 91.900, 26.418 89.551 C 27.747 87.282, 29.556 82.644, 30.437 79.245 C 31.317 75.846, 32.286 72.262, 32.588 71.282 C 32.891 70.302, 32.469 70.625, 31.650 72 C 30.832 73.375, 29.951 74.275, 29.694 74 C 29.436 73.725, 28.243 74.625, 27.043 76 L 24.861 78.500 25.470 75.666 C 26.315 71.739, 24.437 73.147, 22.992 77.523 C 22.358 79.446, 21.422 80.761, 20.912 80.446 C 20.403 80.131, 19.719 80.569, 19.393 81.418 C 18.947 82.581, 18.343 82.719, 16.953 81.975 C 15.604 81.253, 14.891 81.367, 14.303 82.398 C 13.522 83.772, 11.795 84.360, 9.250 84.118 C 6.030 83.813, 9.394 67.342, 14.074 60.500 C 15.578 58.300, 18.466 54.925, 20.492 53 C 26.792 47.012, 28.179 44.365, 29.047 36.680 C 29.493 32.731, 30.163 28.712, 30.536 27.750 C 31.093 26.313, 30.658 26, 28.107 26 C 24.503 26, 24.198 25.036, 27 22.500 C 29.960 19.821, 29.466 18.278, 24.903 15.951 C 19.085 12.982, 20.868 12.319, 27.837 14.860 C 31.597 16.231, 34.811 16.788, 36.739 16.402 C 40.033 15.743, 41.986 17.414, 40.113 19.287 C 38.350 21.050, 38.815 22.282, 41.024 21.704 C 46.293 20.326, 53.045 24.834, 51.550 28.731 C 51.218 29.597, 51.452 31.840, 52.071 33.715 C 53.002 36.535, 52.920 37.431, 51.598 38.891 C 49.345 41.381, 49.530 42, 53.750 46.097 C 65.323 57.334, 65.456 57.535, 64.173 61.817 C 62.576 67.147, 62.699 75.618, 64.459 81.568 C 67.126 90.587, 71.871 113.429, 72.130 118.500 C 72.271 121.250, 72.299 125.862, 72.193 128.750 C 72.031 133.158, 71.698 134, 70.115 134 C 69.078 134, 67.502 135.110, 66.613 136.468 C 65.201 138.622, 64.343 138.908, 59.843 138.718 C 54.996 138.513, 54.645 138.663, 53.931 141.250 L 53.173 144 98.214 144 L 143.256 144 142.591 139.845 C 141.688 134.196, 141.487 134, 136.596 134 C 133.580 134, 131.774 133.407, 130.500 132 C 129.505 130.900, 128.085 130, 127.345 130 C 126.508 130, 125.974 128.772, 125.931 126.750 C 125.893 124.963, 125.689 122.171, 125.478 120.546 C 125.266 118.922, 125.516 117.084, 126.032 116.461 C 126.549 115.839, 126.933 113.118, 126.887 110.415 C 126.840 107.712, 127.719 101.675, 128.841 97 C 131.905 84.232, 134.348 66.506, 133.629 62.261 C 133.279 60.192, 132.751 57.150, 132.455 55.500 C 131.976 52.828, 132.741 51.649, 139.459 44.704 C 143.606 40.416, 147 36.626, 147 36.283 C 147 35.939, 146.235 34.812, 145.300 33.779 C 143.898 32.230, 143.794 31.383, 144.709 28.960 C 145.319 27.344, 145.599 25.182, 145.331 24.157 C 145.044 23.060, 145.869 21.102, 147.336 19.397 C 149.523 16.855, 150.433 16.525, 154.760 16.704 C 159.202 16.888, 159.914 16.607, 161.934 13.875 C 164.765 10.047, 165.657 10.767, 163.521 15.157 L 161.894 18.500 164.394 15.756 C 165.769 14.246, 167.256 12.446, 167.697 11.756 C 168.856 9.943, 173.503 6.229, 172.519 7.902 C 171.981 8.816, 172.327 9.766, 173.513 10.633 C 175.199 11.866, 175.082 12.068, 171.916 13.398 C 170.037 14.187, 167.737 16.137, 166.804 17.730 C 165.292 20.311, 165.260 21.056, 166.510 24.563 C 167.281 26.729, 167.932 30.877, 167.956 33.782 C 168.017 41.123, 169.780 44.601, 176.823 51.282 C 180.175 54.462, 184.624 59.187, 186.709 61.782 C 188.794 64.377, 190.838 66.650, 191.250 66.833 C 192.434 67.360, 192.124 71.476, 190.800 72.800 C 188.260 75.340, 184.680 74.183, 172.629 66.927 C 171.570 66.289, 171.029 66.238, 171.382 66.810 C 172.308 68.308, 173.050 80.201, 172.356 82.423 C 171.798 84.211, 171.661 84.176, 170.413 81.923 C 168.347 78.194, 168.755 81.243, 170.978 86.141 C 172.066 88.538, 172.966 91.483, 172.978 92.684 C 172.990 93.885, 174.324 97.035, 175.942 99.684 C 178.018 103.081, 179.343 107.225, 180.442 113.750 C 181.299 118.838, 182 123.403, 182 123.893 C 182 125.453, 178.803 126.082, 177.284 124.821 C 176.081 123.822, 175.882 123.941, 176.161 125.488 C 176.427 126.965, 175.655 127.548, 172.564 128.207 C 170.400 128.668, 167.167 130.161, 165.381 131.523 C 163.595 132.885, 161.372 134, 160.442 134 C 159.080 134, 158.872 134.610, 159.375 137.125 C 159.719 138.844, 160 141.105, 160 142.150 C 160 143.949, 160.856 144.035, 176.250 143.775 L 192.500 143.500 192.757 71.750 L 193.013 0 96.507 0 L 0 0 0 72 M 0.474 72.500 C 0.474 112.100, 0.598 128.154, 0.750 108.176 C 0.901 88.198, 0.901 55.798, 0.750 36.176 C 0.598 16.554, 0.474 32.900, 0.474 72.500 M 33.731 66.920 C 33.296 68.583, 33.426 68.974, 34.168 68.232 C 34.750 67.650, 35.028 66.585, 34.788 65.863 C 34.538 65.114, 34.085 65.568, 33.731 66.920 M 148.346 68.747 C 148.925 72.315, 152.114 76.157, 152.797 74.109 C 153.167 72.999, 149.261 65, 148.349 65 C 148.013 65, 148.012 66.686, 148.346 68.747 M 44.373 74.312 C 42.329 78.479, 41.885 80.285, 42.701 81.101 C 44.799 83.199, 49.721 72.785, 47.970 69.952 C 47.407 69.040, 46.301 70.380, 44.373 74.312 M 160.035 75.691 C 160.016 76.896, 160.480 78.179, 161.067 78.541 C 162.791 79.607, 162.934 78.673, 161.454 75.998 C 160.120 73.589, 160.070 73.578, 160.035 75.691 M 148.667 135.667 C 147.834 136.499, 147.800 140.316, 148.607 142.418 C 148.971 143.368, 150.397 144, 152.174 144 C 155.324 144, 155.344 143.807, 152.891 137.250 C 152.076 135.070, 150.030 134.303, 148.667 135.667 M 43.607 141.582 C 42.712 143.915, 42.778 144, 45.500 144 C 47.333 144, 48 143.467, 48 142 C 48 139.568, 44.507 139.235, 43.607 141.582" stroke="none" fill="black" fill-rule="evenodd"/>
</svg>