<svg xmlns="http://www.w3.org/2000/svg" width="192" height="144" viewBox="0 0 192 144" version="1.1">
	<path d="M 74 34.381 C 74 35.140, 75.159 38.841, 76.575 42.604 C 78.282 47.137, 79.056 50.974, 78.870 53.973 C 78.531 59.434, 79.522 62.674, 81.923 63.959 C 83.189 64.636, 83.883 66.581, 84.300 70.614 C 84.623 73.748, 85.302 76.580, 85.809 76.906 C 86.316 77.233, 87.044 78.505, 87.427 79.734 C 88.306 82.551, 87.024 96.133, 85.942 95.464 C 83.555 93.989, 84.441 97.814, 88.194 105.186 C 92.018 112.697, 92.403 114.115, 92.186 119.870 C 91.981 125.287, 92.306 126.708, 94.357 129.370 C 95.683 131.091, 98.083 133.261, 99.690 134.192 C 102.505 135.822, 102.716 135.801, 105.436 133.633 C 107.516 131.974, 108.449 130.132, 108.980 126.634 C 109.626 122.373, 109.400 121.471, 106.771 117.842 C 104.249 114.361, 103.989 113.429, 104.907 111.149 C 106.127 108.118, 105.768 96.539, 104.158 87 C 103.555 83.425, 103.064 73.346, 103.067 64.603 C 103.072 49.574, 102.952 48.578, 100.862 46.353 C 99.579 44.987, 97.496 44, 95.898 44 C 92.277 44, 88.689 48.427, 89.244 52.211 C 90.363 59.832, 81.911 52.196, 79.049 43 C 77.936 39.425, 77.020 35.712, 77.013 34.750 C 77.006 33.788, 76.325 33, 75.500 33 C 74.675 33, 74 33.621, 74 34.381 M 85.770 63.563 C 84.683 64.650, 86.662 69.503, 88.322 69.823 C 90.243 70.193, 90.407 69.200, 89.025 65.565 C 88.083 63.088, 86.945 62.388, 85.770 63.563" stroke="none" fill="black" fill-rule="evenodd"/>
</svg>