<svg xmlns="http://www.w3.org/2000/svg" width="192" height="144" viewBox="0 0 192 144" version="1.1">
	<path d="M 0 42 C 0 78.667, 0.190 84, 1.500 84 C 2.325 84, 3 84.498, 3 85.107 C 3 85.716, 2.337 85.960, 1.528 85.649 C 0.252 85.159, 0.055 89.017, 0.048 114.542 L 0.041 144 25.271 143.985 C 51.232 143.969, 52.970 143.610, 42.373 140.456 C 39.553 139.616, 36.446 138.046, 35.468 136.965 C 34.469 135.860, 32.402 135, 30.749 135 C 26.633 135, 21.776 131.965, 22.354 129.754 C 22.714 128.379, 22.184 128, 19.906 128 C 18.308 128, 17 127.715, 17 127.366 C 17 126.362, 22.381 122.003, 23.622 122.001 C 26.393 121.998, 41.063 116.558, 46.500 113.518 C 53.077 109.840, 55.182 107.814, 62.885 97.744 L 68.053 90.989 65.812 87.094 C 63.668 83.370, 63.623 82.833, 64.785 74.798 C 65.453 70.177, 66 64.315, 66 61.771 C 66 57.615, 65.691 56.992, 62.949 55.624 C 60.124 54.215, 59.755 54.245, 57.974 56.026 C 56.916 57.084, 54.892 58.240, 53.476 58.595 C 51.677 59.047, 50.730 60.102, 50.330 62.098 C 49.662 65.439, 48.193 66.854, 44.314 67.891 C 42.691 68.325, 41.349 69.460, 41.142 70.572 C 40.595 73.524, 38.998 75, 36.353 75 C 34.716 75, 33.650 75.790, 33.008 77.480 C 32.225 79.539, 31.679 79.817, 29.789 79.118 C 26.191 77.787, 23.717 68.472, 24.313 58.500 C 24.848 49.557, 27.216 42.345, 32.501 33.569 C 34.425 30.373, 36 27.274, 36 26.684 C 36 26.093, 34.762 24.278, 33.250 22.650 C 30.334 19.512, 31.991 19.940, 35.711 23.287 L 37.922 25.276 41.318 22.388 C 48.014 16.695, 49.150 15.923, 55.780 12.560 C 63.844 8.470, 73.245 6.600, 81.137 7.516 C 87.391 8.242, 88.421 9.016, 88.869 13.322 C 89.093 15.478, 88.671 16.273, 87.081 16.689 C 85.614 17.073, 85 18.039, 85 19.962 C 85 22.715, 82.968 25.176, 79.750 26.317 C 77.249 27.204, 77.580 28.565, 80.868 30.906 C 86.230 34.724, 87.536 43.060, 82.998 44.501 C 81.622 44.937, 81 46.014, 81 47.960 C 81 50.831, 79.530 52, 75.918 52 C 74.863 52, 74 52.450, 74 53 C 74 53.550, 74.378 54, 74.841 54 C 75.304 54, 78.317 56.472, 81.537 59.492 C 85.788 63.481, 87.630 64.645, 88.261 63.742 C 88.797 62.978, 88.876 63.401, 88.468 64.844 C 87.970 66.606, 88.497 67.909, 90.590 70.094 C 92.121 71.692, 93.866 73, 94.466 73 C 95.067 73, 97.230 74.624, 99.274 76.609 C 101.531 78.801, 103.581 79.991, 104.495 79.640 C 106.763 78.770, 106.358 74.262, 103.893 72.943 C 102.367 72.126, 102.087 71.513, 102.879 70.721 C 104.414 69.186, 109 73.646, 109 76.674 C 109 80.316, 105.447 83.257, 101.969 82.493 C 99.741 82.004, 98.076 82.529, 94.785 84.760 C 92.428 86.357, 89.800 87.916, 88.946 88.225 C 87.299 88.820, 87.250 88.132, 92.101 132.750 L 93.325 144 110.162 144 C 125.519 144, 127.003 143.846, 127.032 142.250 C 127.062 140.590, 127.133 140.591, 128.403 142.264 C 129.640 143.895, 132.129 144.009, 161.121 143.764 L 192.500 143.500 192.760 71.750 L 193.019 0 134.950 0 C 96.493 0, 77.091 0.338, 77.500 1 C 77.840 1.550, 77.668 2, 77.118 2 C 76.568 2, 75.840 1.550, 75.500 1 C 75.106 0.362, 61.323 0, 37.441 0 L 0 0 0 42 M 0.458 42.500 C 0.458 65.600, 0.589 74.907, 0.749 63.183 C 0.909 51.458, 0.909 32.558, 0.749 21.183 C 0.588 9.807, 0.457 19.400, 0.458 42.500 M 12 9.559 C 12 10.416, 12.450 10.840, 13 10.500 C 13.550 10.160, 14 9.459, 14 8.941 C 14 8.423, 13.550 8, 13 8 C 12.450 8, 12 8.702, 12 9.559 M 178.710 32 C 178.998 33.100, 179.406 34, 179.617 34 C 179.827 34, 180 33.100, 180 32 C 180 30.900, 179.592 30, 179.094 30 C 178.595 30, 178.423 30.900, 178.710 32 M 13.861 37.967 C 12.562 39.048, 11.993 39.948, 12.595 39.967 C 13.197 39.985, 14.505 39.100, 15.500 38 C 17.816 35.441, 16.915 35.423, 13.861 37.967 M 114.459 41.067 C 114.096 41.653, 113.957 42.288, 114.150 42.478 C 114.838 43.157, 120 41.750, 120 40.883 C 120 39.628, 115.251 39.785, 114.459 41.067 M 99 52.059 C 99 53.191, 99.430 53.852, 99.956 53.527 C 100.482 53.202, 100.659 52.275, 100.349 51.468 C 99.556 49.401, 99 49.644, 99 52.059 M 186 54.559 C 186 56.010, 186.433 56.851, 187 56.500 C 187.550 56.160, 188 55.009, 188 53.941 C 188 52.873, 187.550 52, 187 52 C 186.450 52, 186 53.152, 186 54.559 M 179.938 55.038 C 177.814 56.351, 179.696 57.441, 182.175 56.335 C 183.925 55.554, 184.061 55.237, 182.844 54.770 C 182.005 54.448, 180.697 54.569, 179.938 55.038 M 160.071 56.415 C 159.325 57.313, 159.012 58.345, 159.374 58.707 C 160.308 59.641, 162.306 57.417, 161.826 55.978 C 161.550 55.150, 161.008 55.285, 160.071 56.415 M 88 73.418 C 88 74.198, 87.727 75.548, 87.393 76.418 C 86.956 77.557, 87.385 78, 88.924 78 C 91.533 78, 92.671 75.513, 90.989 73.487 C 89.429 71.607, 88 71.574, 88 73.418 M 112.813 72.683 C 113.534 72.972, 114.397 72.936, 114.729 72.604 C 115.061 72.272, 114.471 72.036, 113.417 72.079 C 112.252 72.127, 112.015 72.364, 112.813 72.683 M 126.015 74.691 C 126.024 75.136, 126.467 76.175, 127 77 C 127.835 78.293, 127.971 78.266, 127.985 76.809 C 127.993 75.879, 127.550 74.840, 127 74.500 C 126.450 74.160, 126.007 74.246, 126.015 74.691 M 44 81.469 C 44 82.361, 44.587 82.712, 45.494 82.364 C 46.316 82.048, 46.740 81.388, 46.435 80.895 C 45.563 79.483, 44 79.851, 44 81.469 M 0.395 98.500 C 0.396 106.200, 0.553 109.218, 0.743 105.206 C 0.934 101.195, 0.932 94.895, 0.741 91.206 C 0.549 87.518, 0.393 90.800, 0.395 98.500 M 60 86.059 C 60 86.641, 60.450 86.840, 61 86.500 C 61.550 86.160, 62 85.684, 62 85.441 C 62 85.198, 61.550 85, 61 85 C 60.450 85, 60 85.477, 60 86.059 M 9.500 88 C 9.840 88.550, 10.568 89, 11.118 89 C 11.668 89, 11.840 88.550, 11.500 88 C 11.160 87.450, 10.432 87, 9.882 87 C 9.332 87, 9.160 87.450, 9.500 88 M 157.500 97 C 157.840 97.550, 159.018 98, 160.118 98 C 161.218 98, 161.840 97.550, 161.500 97 C 161.160 96.450, 159.982 96, 158.882 96 C 157.782 96, 157.160 96.450, 157.500 97 M 149 101.227 C 149 103.050, 150.773 104.561, 151.757 103.576 C 152.100 103.233, 151.620 102.192, 150.690 101.262 C 149.132 99.703, 149 99.700, 149 101.227 M 17.219 108.337 C 14.519 109.836, 15.287 111, 18.976 111 C 20.429 111, 22.491 111.661, 23.559 112.468 C 26.325 114.561, 27.620 114.343, 25.612 112.124 C 24.109 110.463, 24.091 110.179, 25.457 109.655 C 26.306 109.329, 27 108.599, 27 108.031 C 27 106.588, 19.974 106.808, 17.219 108.337 M 0.402 129 C 0.402 137.525, 0.556 141.012, 0.743 136.750 C 0.931 132.488, 0.931 125.513, 0.743 121.250 C 0.556 116.987, 0.402 120.475, 0.402 129 M 153.020 133.524 C 153.716 134.362, 154.491 134.842, 154.743 134.591 C 155.436 133.897, 154.027 132, 152.819 132 C 152.155 132, 152.231 132.574, 153.020 133.524" stroke="none" fill="black" fill-rule="evenodd"/>
</svg>