<svg xmlns="http://www.w3.org/2000/svg" width="192" height="144" viewBox="0 0 192 144" version="1.1">
	<path d="M 0 72 L 0 144 10.787 144 L 21.573 144 25.212 139.125 C 28.559 134.643, 28.849 133.716, 28.814 127.613 C 28.791 123.792, 29.295 120.350, 29.999 119.501 C 30.673 118.689, 30.963 117.345, 30.643 116.513 C 30.324 115.681, 30.499 115, 31.031 115 C 31.564 115, 32 113.650, 32 112 C 32 110.350, 32.473 109, 33.051 109 C 34.470 109, 37 102.741, 37 99.232 C 37 97.674, 37.540 95.860, 38.200 95.200 C 38.927 94.473, 38.991 94, 38.361 94 C 37.789 94, 36.740 95.237, 36.029 96.750 C 35.249 98.411, 34.554 98.990, 34.273 98.212 C 34.017 97.504, 34.526 95.411, 35.404 93.561 C 37.258 89.655, 37.489 86, 35.883 86 C 35.243 86, 34.963 84.973, 35.227 83.591 C 35.546 81.926, 35.296 81.333, 34.417 81.670 C 33.101 82.175, 33.518 78.562, 35.014 76.500 C 36.248 74.799, 37.101 68.250, 36.435 65.596 C 35.818 63.139, 35.252 62.791, 29.972 61.630 C 27.693 61.128, 27.447 60.603, 27.472 56.296 C 27.498 51.781, 27.664 51.491, 30.500 50.993 L 33.500 50.466 33.146 42.814 C 32.751 34.292, 33.941 29.388, 37.787 23.687 C 41.917 17.565, 47.703 14.801, 58.210 13.931 L 67.189 13.187 72.180 7.587 C 74.925 4.508, 77.527 2.208, 77.962 2.477 C 78.398 2.746, 79.776 5.561, 81.025 8.733 C 82.418 12.268, 85.183 16.456, 88.170 19.553 C 93.413 24.990, 97 32.691, 97 38.511 C 97 40.645, 97.488 42, 98.257 42 C 99.873 42, 102 48.809, 102 53.984 C 102 58.389, 101.407 58.905, 99.392 56.250 C 98.151 54.616, 98.062 54.637, 98.032 56.573 C 97.982 59.826, 106.468 76.405, 110.425 80.785 C 114.487 85.282, 115.049 86.848, 111.777 84.557 C 108.772 82.451, 107.058 82.597, 104.297 85.191 L 101.965 87.382 97.456 85.191 C 91.806 82.446, 91.008 82.453, 90.968 85.250 C 90.937 87.474, 90.919 87.477, 89.424 85.500 C 87.914 83.504, 87.904 83.504, 84.248 85.622 C 82.234 86.789, 80.441 88.177, 80.264 88.707 C 80.088 89.237, 83.384 90.757, 87.590 92.085 C 95.693 94.644, 100 97.673, 100 100.813 C 100 102.587, 100.653 102.689, 109.250 102.259 C 127.201 101.361, 140.972 106.890, 154.564 120.453 C 160.491 126.367, 163.671 130.560, 166.564 136.271 L 170.500 144.042 181.500 143.771 L 192.500 143.500 192.757 71.750 L 193.013 0 96.507 0 L 0 0 0 72 M 0.474 72.500 C 0.474 112.100, 0.598 128.154, 0.750 108.176 C 0.901 88.198, 0.901 55.798, 0.750 36.176 C 0.598 16.554, 0.474 32.900, 0.474 72.500 M 126.158 55 C 126.158 56.375, 126.385 56.938, 126.662 56.250 C 126.940 55.563, 126.940 54.438, 126.662 53.750 C 126.385 53.063, 126.158 53.625, 126.158 55" stroke="none" fill="black" fill-rule="evenodd"/>
</svg>