<svg xmlns="http://www.w3.org/2000/svg" width="192" height="144" viewBox="0 0 192 144" version="1.1">
	<path d="M 154.238 7.943 C 152.003 9.561, 146.423 14.416, 141.838 18.730 C 137.252 23.044, 131.250 28.086, 128.500 29.934 C 125.750 31.782, 122.299 34.402, 120.831 35.756 C 118.407 37.993, 115.178 38.139, 116.530 35.952 C 117.353 34.620, 115.162 31, 113.534 31 C 112.767 31, 111.995 32.012, 111.820 33.250 C 111.544 35.188, 110.736 35.579, 106 36.067 C 102.975 36.379, 99.269 37.236, 97.765 37.971 C 94.980 39.332, 91.032 46.060, 90.961 49.566 C 90.933 50.954, 90.547 50.639, 89.593 48.450 C 88.863 46.773, 86.821 44.186, 85.056 42.700 C 82.466 40.521, 80.839 40, 76.626 40 C 71.437 40, 71.385 39.969, 67.953 34.765 C 63.805 28.477, 59.380 25.330, 53.433 24.438 C 44.077 23.035, 37.123 26.856, 32.557 35.910 C 28.131 44.686, 28.358 53.372, 33.175 59.495 C 36.253 63.409, 44.458 66.972, 50.500 67.020 L 55.500 67.059 52.206 70.054 C 50.395 71.702, 49.152 73.438, 49.445 73.912 C 49.738 74.386, 49.308 75.329, 48.489 76.009 C 46.988 77.255, 46.426 80, 47.671 80 C 48.040 80, 49.176 79.246, 50.195 78.324 C 52.706 76.051, 55.077 78.046, 53.281 80.921 C 52.334 82.439, 52.454 83.101, 53.917 84.425 C 55.093 85.489, 55.942 88.174, 56.356 92.136 C 56.744 95.848, 58.043 100.146, 59.693 103.177 C 61.936 107.299, 62.191 108.464, 61.197 110.056 C 59.590 112.630, 59.688 114.541, 61.642 118.657 C 62.872 121.250, 62.997 122.403, 62.142 123.258 C 60.718 124.682, 60.633 132.655, 62.033 133.520 C 62.687 133.924, 62.320 135.364, 61.033 137.447 C 58.914 140.876, 58.366 144, 59.883 144 C 60.369 144, 61.002 143.100, 61.290 142 C 61.968 139.405, 64 139.405, 64 142 C 64 143.100, 64.450 144, 65 144 C 66.302 144, 66.302 139.305, 65 138.500 C 63.506 137.577, 63.793 134.416, 65.500 133 C 67.455 131.377, 67.406 127.686, 65.377 123.762 C 64.126 121.343, 64.011 120.211, 64.877 118.825 C 66.269 116.596, 66.361 110, 65 110 C 63.565 110, 63.764 105.429, 65.250 104.267 C 65.938 103.729, 68.580 102.782, 71.121 102.162 C 73.663 101.543, 76.363 100.798, 77.121 100.508 C 78.229 100.083, 78.563 102.097, 78.821 110.740 C 79.636 138.088, 79.764 136.309, 76.699 140.327 L 73.898 144 104.949 144 C 122.027 144, 136 143.745, 136 143.434 C 136 143.123, 135.591 142.104, 135.091 141.170 C 134.488 140.044, 134.633 138.854, 135.522 137.639 C 136.751 135.959, 136.964 136.146, 138.089 139.903 C 139.943 146.090, 142.204 145.319, 141.716 138.667 C 141.500 135.734, 140.940 132.696, 140.470 131.917 C 139.790 130.788, 139.993 130.805, 141.472 132 C 143.189 133.388, 143.251 133.351, 142.301 131.500 C 141.736 130.400, 140.982 127.589, 140.626 125.254 C 140.269 122.918, 139.122 119.093, 138.077 116.754 C 133.690 106.938, 130.990 94.793, 130.904 84.488 C 130.819 74.329, 131.660 67, 132.911 67 C 133.290 67, 134.122 67.522, 134.760 68.160 C 137.438 70.838, 144.025 58.554, 144.750 49.529 C 145.298 42.693, 145.021 42.245, 139.449 40.988 C 136.979 40.431, 135.345 40.720, 133.043 42.120 C 127.245 45.646, 127.550 44.008, 133.881 37.620 C 138.242 33.220, 140.766 31.387, 142.014 31.714 C 143.853 32.195, 153 27.460, 153 26.027 C 153 25.597, 152.319 24.680, 151.488 23.990 C 150.295 23, 150.229 22.429, 151.173 21.291 C 152.107 20.166, 152.095 19.677, 151.117 19.073 C 150.212 18.513, 151.280 16.450, 154.960 11.649 C 157.762 7.992, 159.661 5, 159.178 5 C 158.695 5, 156.472 6.324, 154.238 7.943 M 91 52.941 C 91 53.459, 91.450 54.160, 92 54.500 C 92.550 54.840, 93 54.416, 93 53.559 C 93 52.702, 92.550 52, 92 52 C 91.450 52, 91 52.423, 91 52.941 M 87.268 65.943 C 86.645 66.940, 84.009 68.785, 81.411 70.043 C 77.208 72.078, 76.123 72.215, 71.593 71.281 C 65.619 70.051, 64.688 70.765, 65.443 76 C 65.721 77.925, 66.148 82.126, 66.392 85.335 C 66.636 88.544, 67.089 91.422, 67.398 91.732 C 68.007 92.341, 79.211 88.955, 85.191 86.354 C 89.200 84.611, 89.480 84.163, 91.640 76.021 C 92.990 70.933, 92.966 70.447, 91.297 69.215 C 90.309 68.486, 89.624 67.273, 89.777 66.520 C 90.216 64.344, 88.511 63.952, 87.268 65.943 M 110.428 112.500 C 108.196 117.534, 107.900 131.145, 109.927 135.500 C 110.695 137.150, 111.256 138.821, 111.173 139.214 C 111.091 139.607, 111.648 139.689, 112.411 139.396 C 113.174 139.103, 114.095 139.344, 114.458 139.932 C 115.418 141.486, 117 141.239, 117 139.535 C 117 138.730, 117.900 137.589, 119 137 C 120.400 136.251, 121 134.906, 121 132.516 C 121 128.565, 116.302 113, 115.109 113 C 114.667 113, 113.832 111.987, 113.253 110.750 C 112.242 108.587, 112.133 108.655, 110.428 112.500 M 62 114.500 C 62 116.056, 62.567 117, 63.500 117 C 64.433 117, 65 116.056, 65 114.500 C 65 112.944, 64.433 112, 63.500 112 C 62.567 112, 62 112.944, 62 114.500 M 62.180 128.172 C 62.652 131.373, 65 131.716, 65 128.583 C 65 126.903, 64.451 126, 63.430 126 C 62.388 126, 61.968 126.729, 62.180 128.172" stroke="none" fill="black" fill-rule="evenodd"/>
</svg>