<svg xmlns="http://www.w3.org/2000/svg" width="192" height="144" viewBox="0 0 192 144" version="1.1">
	<path d="M 0 23.500 L 0 47 4.865 47 C 10.044 47, 13.958 49.189, 16.178 53.328 C 17.663 56.095, 17.287 64.004, 15.576 65.986 C 14.857 66.819, 13.973 68.743, 13.612 70.262 C 13.251 71.781, 11.614 74.220, 9.973 75.682 C 8.333 77.143, 7.063 78.825, 7.153 79.420 C 7.242 80.014, 6.971 81.287, 6.551 82.250 C 5.470 84.722, 6.672 87.212, 8.747 86.799 C 9.915 86.567, 10.396 85.707, 10.187 84.225 C 9.777 81.306, 13.015 81.192, 14.807 84.063 C 16.771 87.208, 15.375 89.648, 10.453 91.668 C 7.275 92.972, 6.155 93.932, 6.564 95 C 8.851 100.974, 10.165 131, 8.139 131 C 7.666 131, 7.023 133.137, 6.710 135.750 C 6.398 138.363, 5.837 141.287, 5.464 142.250 C 4.824 143.902, 7.573 144, 54.739 144 C 98.589 144, 105.086 143.804, 107.910 142.395 C 110.866 140.920, 111.222 140.921, 112.313 142.409 C 113.378 143.860, 117.569 144, 153 143.764 L 192.500 143.500 192.397 136 C 191.964 104.496, 192.040 71.817, 192.623 38.750 L 193.306 0 136.140 0 C 92.202 0, 78.483 0.289, 76.856 1.250 C 75.162 2.250, 74.648 2.250, 74.286 1.250 C 73.935 0.281, 65.542 0, 36.917 0 L 0 0 0 23.500 M 0.430 24 C 0.430 36.925, 0.573 42.212, 0.747 35.750 C 0.921 29.287, 0.921 18.712, 0.747 12.250 C 0.573 5.787, 0.430 11.075, 0.430 24 M 49 8 C 48.207 8.490, 47.783 9.116, 48.058 9.391 C 48.333 9.666, 49.207 9.490, 50 9 C 50.793 8.510, 51.217 7.884, 50.942 7.609 C 50.667 7.334, 49.793 7.510, 49 8 M 57.429 14.885 C 57.729 15.371, 59.400 15.979, 61.142 16.234 C 64.001 16.654, 64.129 16.568, 62.463 15.349 C 60.414 13.851, 56.570 13.496, 57.429 14.885 M 109.269 18.693 C 110.242 18.947, 111.592 18.930, 112.269 18.656 C 112.946 18.382, 112.150 18.175, 110.500 18.195 C 108.850 18.215, 108.296 18.439, 109.269 18.693 M 179.670 24.417 C 179.079 25.959, 180.753 26.966, 182.750 26.269 C 183.438 26.030, 184 25.196, 184 24.417 C 184 22.573, 180.378 22.573, 179.670 24.417 M 110 34.933 C 110 36.008, 113.890 37.443, 114.675 36.658 C 114.964 36.369, 114.904 35.653, 114.541 35.067 C 113.731 33.755, 110 33.645, 110 34.933 M 31.590 43.627 C 30.975 45.229, 32.512 48, 34.015 48 C 35.433 48, 36.048 44.763, 34.895 43.373 C 33.389 41.559, 32.353 41.639, 31.590 43.627 M 113.991 76.511 C 112.986 77.722, 113.047 78, 114.319 78 C 116.185 78, 117.406 76.369, 116.130 75.580 C 115.633 75.273, 114.671 75.692, 113.991 76.511 M 175 78 C 175 78.550, 175.900 79, 177 79 C 178.100 79, 179 78.550, 179 78 C 179 77.450, 178.100 77, 177 77 C 175.900 77, 175 77.450, 175 78 M 46.500 79 C 45.419 80.749, 47.022 82.227, 48.589 80.926 C 49.365 80.282, 50 79.360, 50 78.878 C 50 77.672, 47.262 77.768, 46.500 79 M 112 83.378 C 112 86, 113.498 87.628, 116.396 88.155 C 119.314 88.686, 119.428 86.337, 116.619 83.528 C 113.455 80.365, 112 80.317, 112 83.378 M 134.918 87.051 C 133.916 87.670, 134.285 88.158, 136.349 88.943 C 139.856 90.276, 143 90.303, 143 89 C 143 88.450, 142.885 88, 142.743 88 C 142.602 88, 141.088 87.599, 139.377 87.108 C 137.667 86.618, 135.660 86.592, 134.918 87.051 M 72.606 94.727 C 71.901 95.432, 73.875 98, 75.122 98 C 75.605 98, 76 97.373, 76 96.607 C 76 95.105, 73.573 93.761, 72.606 94.727 M 147.250 96.780 C 144.842 97.164, 144.073 100, 146.378 100 C 147.720 100, 150.674 97.215, 149.893 96.686 C 149.677 96.540, 148.488 96.582, 147.250 96.780 M 96 100.583 C 96 102.349, 98.153 102.042, 98.771 100.188 C 98.989 99.534, 98.454 99, 97.583 99 C 96.713 99, 96 99.713, 96 100.583 M 91.510 105.984 C 91.165 106.543, 89.694 107, 88.241 107 C 86.319 107, 85.900 107.300, 86.701 108.101 C 87.922 109.322, 94 108.388, 94 106.980 C 94 105.595, 92.196 104.874, 91.510 105.984 M 154.667 107.667 C 153.629 108.704, 153.883 112, 155 112 C 155.550 112, 156 110.875, 156 109.500 C 156 106.882, 155.769 106.564, 154.667 107.667 M 147.683 123.650 C 146.618 124.715, 146.881 128, 148.031 128 C 149.510 128, 150.441 125.041, 149.316 123.916 C 148.794 123.394, 148.059 123.274, 147.683 123.650 M 116 125 C 115.099 125.582, 114.975 125.975, 115.691 125.985 C 116.346 125.993, 117.160 125.550, 117.500 125 C 118.267 123.758, 117.921 123.758, 116 125 M 20.223 130.007 C 17.691 132.365, 18.082 134.056, 21.530 135.662 C 23.687 136.666, 24.172 136.548, 25.114 134.787 C 25.923 133.276, 25.876 132.137, 24.933 130.375 C 23.387 127.486, 22.964 127.453, 20.223 130.007 M 1 137.500 C 1 141.167, 1.436 144, 2 144 C 2.564 144, 3 141.167, 3 137.500 C 3 133.833, 2.564 131, 2 131 C 1.436 131, 1 133.833, 1 137.500 M 83.015 139.250 C 83.028 141.069, 83.216 141.213, 84 140 C 85.253 138.061, 85.253 137, 84 137 C 83.450 137, 83.007 138.012, 83.015 139.250" stroke="none" fill="black" fill-rule="evenodd"/>
</svg>