<svg xmlns="http://www.w3.org/2000/svg" width="192" height="144" viewBox="0 0 192 144" version="1.1">
	<path d="M 0 72 L 0 144 35 144 L 70 144 70.046 141.750 C 70.071 140.512, 71.890 134.325, 74.088 128 C 78.852 114.294, 79.631 111, 78.113 111 C 77.501 111, 76.932 111.563, 76.850 112.250 C 76.767 112.938, 76.430 111.475, 76.100 109 C 75.587 105.151, 75.189 104.532, 73.351 104.720 C 71.020 104.959, 69.482 101.515, 70.608 98.579 C 71.035 97.467, 70.627 97, 69.227 97 C 68.135 97, 64.149 95.433, 60.370 93.519 C 56.592 91.604, 52.750 90.029, 51.833 90.019 C 50.917 90.008, 49.286 88.791, 48.209 87.312 C 46.710 85.254, 44.789 84.326, 40.010 83.352 C 33.874 82.100, 29 79.777, 29 78.104 C 29 77.374, 34.250 76.792, 40.250 76.857 C 42.596 76.882, 42.482 75.288, 40.084 74.527 C 37.902 73.834, 35.987 69.337, 35.415 63.562 C 35.200 61.396, 34.569 59.169, 34.012 58.612 C 33.456 58.056, 33 56.735, 33 55.678 C 33 54.106, 33.266 53.976, 34.459 54.966 C 35.666 55.968, 36.029 55.688, 36.563 53.338 C 38.227 46.014, 38.658 44.506, 39.064 44.582 C 39.304 44.627, 41.413 44.970, 43.750 45.344 C 46.090 45.718, 48.003 46.580, 48.006 47.262 C 48.010 47.943, 48.668 49.757, 49.469 51.294 C 51.088 54.397, 52.316 66.893, 51.372 70.654 C 51.038 71.983, 49.417 73.767, 47.768 74.620 C 43.901 76.620, 45.287 78.127, 51.470 78.642 C 54.228 78.872, 57.650 80.064, 59.983 81.608 C 63.907 84.204, 66 84.136, 66 81.412 C 66 80.604, 67.350 77.269, 69 74 C 70.650 70.731, 72 66.836, 72 65.343 C 72 63.850, 72.874 61.698, 73.943 60.561 C 75.286 59.131, 76.521 54.886, 77.947 46.800 C 80.242 33.782, 81.076 31.107, 84.207 26.709 L 86.365 23.679 82.690 24.276 C 77.948 25.045, 75.800 23.167, 76.940 19.249 C 78.307 14.550, 80.747 9.275, 81.875 8.577 C 83.731 7.430, 90.400 9.823, 95.551 13.486 C 101.005 17.364, 103.667 17.735, 110 15.500 C 114.473 13.922, 121.010 13.475, 120.985 14.750 C 120.943 16.880, 117.811 28.522, 117.025 29.469 C 116.477 30.131, 116.483 31.150, 117.042 32.034 C 119.410 35.778, 117.417 42.344, 112.544 46.855 C 108.986 50.149, 108.955 56.799, 112.483 60.145 C 113.848 61.440, 114.973 63.069, 114.983 63.765 C 114.992 64.461, 116.633 67.490, 118.629 70.496 C 121.565 74.918, 122.138 76.558, 121.633 79.083 C 120.772 83.392, 121.932 89.760, 123.702 90.439 C 124.508 90.748, 128.393 91.288, 132.334 91.637 C 136.275 91.987, 140.089 92.738, 140.808 93.307 C 141.527 93.876, 145.461 94.377, 149.550 94.421 C 153.827 94.466, 156.959 94.925, 156.926 95.500 C 156.895 96.050, 156.257 96.376, 155.510 96.223 C 154.762 96.071, 153.865 96.409, 153.516 96.973 C 152.845 98.059, 154.131 98.282, 160.322 98.151 C 166.416 98.023, 164.198 100.257, 156.932 101.566 C 153.394 102.204, 146.675 102.625, 142 102.502 C 133.918 102.291, 118.154 99.831, 115.883 98.427 C 115.299 98.067, 113.993 95.910, 112.981 93.636 L 111.141 89.500 111.055 93 C 111.008 94.925, 110.560 97.147, 110.060 97.938 C 109.472 98.867, 109.625 100.055, 110.495 101.296 C 111.265 102.395, 111.627 104.559, 111.343 106.358 C 110.993 108.570, 112.044 112.459, 114.894 119.500 C 117.120 125, 119.960 132.768, 121.204 136.763 L 123.467 144.025 157.984 143.763 L 192.500 143.500 192.757 71.750 L 193.013 0 96.507 0 L 0 0 0 72 M 0.474 72.500 C 0.474 112.100, 0.598 128.154, 0.750 108.176 C 0.901 88.198, 0.901 55.798, 0.750 36.176 C 0.598 16.554, 0.474 32.900, 0.474 72.500 M 151.240 71.541 C 148.164 72.835, 147.379 74.541, 147.925 78.750 C 148.015 79.438, 147.618 80, 147.044 80 C 146.470 80, 146 79.550, 146 79 C 146 78.450, 145.325 78, 144.500 78 C 142.346 78, 142.647 79.848, 145.385 83.438 C 146.696 85.157, 147.938 87.450, 148.144 88.532 C 148.442 90.099, 149.470 90.562, 153.196 90.802 C 158.358 91.136, 158.934 90.600, 160.823 83.707 C 161.781 80.213, 161.631 79.650, 158.931 76.575 C 157.319 74.738, 156 72.759, 156 72.177 C 156 70.329, 154.575 70.139, 151.240 71.541" stroke="none" fill="black" fill-rule="evenodd"/>
</svg>