<svg xmlns="http://www.w3.org/2000/svg" width="192" height="144" viewBox="0 0 192 144" version="1.1">
	<path d="M 0 72 L 0 144 39.402 144 L 78.804 144 79.436 137.750 C 79.784 134.313, 80.320 129.363, 80.628 126.750 C 81.169 122.160, 81.100 122, 78.594 122 C 76.554 122, 76 121.509, 76 119.700 C 76 118.435, 75.528 116.928, 74.952 116.352 C 74.222 115.622, 75.048 113.385, 77.680 108.966 C 82.594 100.717, 83.365 92.241, 80.085 82.532 L 77.938 76.175 80.116 67.489 C 81.400 62.372, 83.262 57.654, 84.648 56.007 C 85.941 54.469, 87 52.975, 87 52.687 C 87 52.399, 85.415 51.184, 83.478 49.986 C 81.372 48.685, 80.065 47.144, 80.228 46.155 C 80.421 44.978, 79.634 44.404, 77.500 44.166 C 72.320 43.590, 70.707 41.276, 71.463 35.508 C 71.824 32.753, 72.781 29.483, 73.590 28.240 C 74.720 26.502, 74.804 25.502, 73.953 23.912 C 72.418 21.043, 73.464 19, 76.469 19 C 78.502 19, 79 18.508, 79 16.500 C 79 15.057, 79.518 14.106, 80.226 14.250 C 80.901 14.387, 81.607 13.488, 81.796 12.250 C 81.985 11.013, 82.548 10, 83.048 10 C 83.548 10, 86.329 12.234, 89.228 14.964 C 92.128 17.695, 96.075 20.974, 98 22.251 C 102.342 25.131, 107.395 34.796, 109.633 44.500 C 110.521 48.350, 112.526 54.875, 114.088 59 C 115.651 63.125, 117.620 69.262, 118.463 72.639 C 119.831 78.113, 119.834 79.087, 118.492 81.639 C 117.514 83.498, 117.181 85.901, 117.543 88.500 C 117.960 91.490, 117.330 94.590, 115.050 100.779 C 111.744 109.753, 111.308 115.943, 112.651 134.858 L 113.301 144.023 152.901 143.761 L 192.500 143.500 192.757 71.750 L 193.013 0 96.507 0 L 0 0 0 72 M 0.474 72.500 C 0.474 112.100, 0.598 128.154, 0.750 108.176 C 0.901 88.198, 0.901 55.798, 0.750 36.176 C 0.598 16.554, 0.474 32.900, 0.474 72.500 M 83 91.892 C 83 94.228, 83.414 95.862, 83.926 95.546 C 84.435 95.231, 84.673 93.568, 84.456 91.851 C 83.856 87.109, 83 87.134, 83 91.892" stroke="none" fill="black" fill-rule="evenodd"/>
</svg>