<svg xmlns="http://www.w3.org/2000/svg" width="192" height="144" viewBox="0 0 192 144" version="1.1">
	<path d="M 0 72 L 0 144 9.139 144 L 18.279 144 17.691 139.039 C 17.362 136.259, 14.912 129.335, 12.119 123.289 C 6.247 110.581, 4.365 103.773, 2.972 90.199 C 1.699 77.790, 3.019 62.125, 6.490 48.441 C 7.848 43.088, 9.194 38.473, 9.482 38.185 C 9.769 37.898, 9.284 36.867, 8.404 35.894 C 6.317 33.588, 7.388 32, 11.030 32 C 14.504 32, 28.774 37.069, 33.879 40.116 C 35.870 41.305, 45.146 44.635, 54.491 47.517 L 71.481 52.756 73.709 49.478 C 74.934 47.675, 76.703 44.243, 77.641 41.850 C 79.645 36.735, 85.281 27.562, 87.117 26.428 C 87.822 25.992, 89.322 25.536, 90.450 25.414 C 91.577 25.293, 94.442 24.638, 96.816 23.958 C 103.066 22.170, 108.009 24.039, 113.096 30.115 C 117.058 34.847, 117.072 34.893, 115.591 38.436 C 114.772 40.396, 113.577 42, 112.934 42 C 112.224 42, 111.992 42.861, 112.342 44.199 C 113.091 47.065, 109.575 55, 107.556 55 C 103.784 55, 106.536 58.048, 111.957 59.875 C 113.858 60.516, 116.333 61.901, 117.457 62.954 C 120.677 65.970, 148.586 71.747, 150.533 69.801 C 150.873 69.461, 152.579 69.621, 154.325 70.157 C 156.071 70.692, 158.017 71.233, 158.649 71.359 C 159.281 71.485, 160.406 72.092, 161.149 72.708 C 161.892 73.324, 169.138 74.850, 177.250 76.098 L 192 78.367 192 81.684 C 192 83.508, 191.538 85, 190.974 85 C 190.409 85, 186.471 84.146, 182.224 83.102 C 163.350 78.464, 160.517 77.948, 160.141 79.077 C 159.433 81.200, 153.694 87.107, 150.970 88.515 C 143.124 92.573, 128.706 97.147, 124.756 96.832 C 120.801 96.517, 120.543 96.666, 119.639 99.792 C 118.845 102.535, 119.047 103.572, 120.843 106.002 C 122.029 107.606, 123.002 109.950, 123.005 111.210 C 123.011 113.544, 123.653 114.689, 130.250 124.115 C 134.276 129.867, 134.884 132, 132.500 132 C 130.627 132, 130.632 132.156, 132.687 138.677 L 134.375 144.030 163.437 143.765 L 192.500 143.500 192.757 71.750 L 193.013 0 96.507 0 L 0 0 0 72 M 0.474 72.500 C 0.474 112.100, 0.598 128.154, 0.750 108.176 C 0.901 88.198, 0.901 55.798, 0.750 36.176 C 0.598 16.554, 0.474 32.900, 0.474 72.500 M 29.106 47.250 C 22.439 65.011, 20.551 76.109, 21.277 93.282 C 21.805 105.783, 22.166 107.340, 28.838 125.922 L 31.861 134.343 30.027 139.172 L 28.192 144 48.846 143.969 L 69.500 143.938 72.683 139.719 C 74.434 137.399, 76.684 134.591, 77.683 133.479 C 80.738 130.081, 88.432 119.838, 92.772 113.389 C 95.435 109.433, 96.686 106.612, 96.320 105.389 C 96.009 104.350, 92.998 101.224, 89.628 98.442 C 82.123 92.248, 81.639 90.122, 85.999 82.502 C 87.723 79.489, 88.892 76.635, 88.598 76.159 C 88.304 75.683, 88.595 73.883, 89.246 72.161 C 90.701 68.304, 89.126 65.820, 86.570 67.942 C 85.338 68.964, 84.757 68.900, 83.456 67.599 C 82.577 66.720, 81.431 66, 80.910 66 C 80.388 66, 80.226 64.763, 80.549 63.250 C 81.123 60.562, 81.098 60.545, 79.449 62.500 C 77.800 64.456, 77.776 64.441, 78.386 61.807 C 79.004 59.140, 78.898 59.080, 67.255 55.500 C 60.790 53.513, 50.774 50.337, 44.998 48.443 C 32.539 44.358, 30.256 44.187, 29.106 47.250 M 119.005 70.143 C 119.008 70.889, 120.119 73.300, 121.474 75.500 C 122.829 77.700, 123.952 80.936, 123.969 82.691 C 123.986 84.446, 124.436 86.152, 124.970 86.481 C 125.897 87.055, 145.572 81.762, 146.697 80.636 C 146.996 80.337, 146.966 79.002, 146.632 77.668 C 145.977 75.059, 143.563 74.187, 129.500 71.478 C 125.650 70.736, 121.713 69.827, 120.750 69.458 C 119.612 69.021, 119.002 69.261, 119.005 70.143 M 92.126 88.348 C 91.272 89.377, 91.482 90.126, 93.010 91.509 C 95.461 93.727, 95.982 93.326, 95.295 89.750 C 94.711 86.710, 93.815 86.313, 92.126 88.348" stroke="none" fill="black" fill-rule="evenodd"/>
</svg>