<svg xmlns="http://www.w3.org/2000/svg" width="192" height="144" viewBox="0 0 192 144" version="1.1">
	<path d="M 0 9.371 L 0 18.742 4.986 19.404 C 8.773 19.906, 10.574 19.670, 12.478 18.423 C 15.409 16.502, 18 17.149, 18 19.801 C 18 21.450, 18.637 21.612, 23.546 21.205 C 29.417 20.718, 31.895 22.202, 31.968 26.250 C 31.986 27.212, 32.406 28, 32.902 28 C 34.558 28, 35.808 33.357, 34.610 35.318 C 33.690 36.825, 33.981 37.511, 36.306 39.318 C 37.850 40.518, 41.411 43.637, 44.219 46.250 C 47.028 48.862, 49.687 51, 50.128 51 C 51.999 51, 52.912 54.772, 51.772 57.793 C 49.954 62.611, 52.170 75.065, 58.572 96 C 62.249 108.023, 64.408 117.007, 64.740 121.659 C 65.249 128.780, 65.235 128.827, 62.303 130.343 C 60.681 131.182, 58.744 132.604, 57.997 133.503 C 56.934 134.785, 55.628 134.999, 51.960 134.495 C 47.317 133.856, 47.275 133.876, 46.640 137.050 C 45.177 144.366, 44.472 144, 60 144 L 74 144 74 133.821 C 74 124.726, 75.292 117.411, 77.147 116 C 77.508 115.725, 79.214 112.800, 80.938 109.500 C 83.800 104.021, 84.021 102.936, 83.486 97 C 82.204 82.767, 82.297 83, 77.951 83 C 75.344 83, 73.458 82.335, 72.182 80.965 C 69.460 78.044, 62.788 63.994, 63.385 62.440 C 63.661 61.719, 63.566 60.988, 63.172 60.815 C 62.778 60.642, 60.954 55.775, 59.118 50 C 57.283 44.225, 55.380 38.466, 54.890 37.203 C 53.621 33.928, 53.755 21, 55.059 21 C 55.641 21, 55.828 20.530, 55.473 19.956 C 55.118 19.382, 55.266 18.370, 55.803 17.706 C 56.339 17.043, 57.104 13.575, 57.503 10 C 57.903 6.425, 58.643 2.712, 59.150 1.750 C 60.017 0.102, 58.324 0, 30.035 0 L 0 0 0 9.371 M 0 81.892 L 0 144 14.868 144 L 29.737 144 30.301 139.795 C 30.611 137.482, 30.644 135.232, 30.373 134.795 C 30.103 134.358, 27.956 134, 25.601 134 C 22.006 134, 21.139 133.600, 20.182 131.500 C 19.211 129.370, 18.374 129, 14.521 129 L 10 129 10 124.750 C 10 121.437, 11.241 118.295, 15.631 110.500 C 26.515 91.172, 30.150 83.680, 29.622 81.661 C 29.336 80.570, 29.529 78.880, 30.050 77.907 C 31.157 75.838, 29.208 66, 27.691 66 C 27.113 66, 26.943 68.696, 27.266 72.719 C 27.730 78.508, 27.631 79.113, 26.546 77.087 L 25.288 74.735 23.934 78.118 C 23.189 79.978, 22.561 83.300, 22.540 85.500 C 22.505 89.045, 22.248 89.465, 20.287 89.193 C 18.561 88.954, 17.741 89.685, 16.558 92.515 C 14.910 96.459, 13 96.383, 13 92.374 C 13 90.344, 12.629 89.983, 11.056 90.482 C 7.788 91.519, 6.138 87.556, 5.858 78 C 5.577 68.400, 5.824 67.335, 10.674 57.206 C 14.351 49.527, 15.079 43.916, 13.077 38.685 C 12.485 37.137, 12 34.611, 12 33.074 C 12 30.634, 11.683 30.338, 9.512 30.753 C 6.476 31.333, 5.247 28.948, 6.813 25.512 C 8.059 22.777, 7.076 21.559, 2.744 20.472 L 0 19.783 0 81.892 M 35 69.059 C 35 71.510, 35.396 72.873, 36 72.500 C 36.550 72.160, 37 70.334, 37 68.441 C 37 66.548, 36.550 65, 36 65 C 35.450 65, 35 66.827, 35 69.059 M 37.512 136.980 C 37.144 137.577, 36.459 139.400, 35.991 141.033 C 35.182 143.851, 35.290 144, 38.130 144 C 40.964 144, 41.105 143.808, 40.810 140.327 C 40.501 136.664, 38.784 134.922, 37.512 136.980" stroke="none" fill="black" fill-rule="evenodd"/>
</svg>