<svg xmlns="http://www.w3.org/2000/svg" width="192" height="144" viewBox="0 0 192 144" version="1.1">
	<path d="M 149.510 11.250 C 149.956 12.495, 140.585 19, 138.345 19 C 137.535 19, 137.247 21.445, 137.403 27 L 137.627 35 135.013 35 C 133.576 35, 131.860 35.540, 131.200 36.200 C 130.267 37.133, 129.733 37.133, 128.800 36.200 C 126.867 34.267, 122.207 34.745, 121 37 C 120.218 38.460, 120.240 39, 121.078 39 C 121.868 39, 122.022 40.367, 121.571 43.377 C 120.756 48.813, 122.237 49.683, 127.626 46.936 C 129.714 45.871, 131.734 45, 132.113 45 C 132.493 45, 132.681 48.050, 132.531 51.778 C 132.211 59.737, 128.729 67.675, 123.381 72.635 C 121.521 74.359, 120 76.656, 120 77.739 C 120 80.522, 124.017 84.515, 128.417 86.106 C 131.897 87.365, 132.109 87.670, 131.453 90.479 C 131.065 92.141, 130.692 96.417, 130.624 99.983 L 130.500 106.466 126.699 107.084 C 121.016 108.008, 120.444 109.013, 121.972 115.382 C 122.690 118.377, 123.037 121.751, 122.742 122.879 C 122.355 124.360, 122.790 125.116, 124.308 125.598 C 125.465 125.965, 126.560 125.819, 126.742 125.275 C 126.923 124.730, 127.654 123.488, 128.365 122.515 C 129.427 121.063, 130.042 120.952, 131.806 121.896 C 135.503 123.875, 136.336 126.620, 134.295 130.093 C 132.587 133, 132.585 133.211, 134.250 134.434 C 136.342 135.972, 136.551 138, 134.617 138 C 133.856 138, 132.962 139.012, 132.630 140.250 C 131.727 143.619, 131.842 144.002, 133.750 143.978 C 136.535 143.942, 140.053 140.678, 142.917 135.475 C 144.841 131.979, 146.218 130.613, 147.948 130.485 C 151.970 130.189, 155.937 123.315, 153.099 121.561 C 152.603 121.254, 152.171 114.365, 152.139 106.252 C 152.061 86.353, 149.501 64.856, 146.663 60.264 C 145.453 58.306, 147.914 48.749, 150.004 47.284 C 152.499 45.537, 152.704 40.484, 150.317 39.568 C 145.429 37.693, 160.981 31.548, 169.750 31.890 C 170.988 31.938, 172 31.533, 172 30.989 C 172 30.445, 171.408 30, 170.684 30 C 169.020 30, 158.123 31.928, 155.612 32.667 C 153.889 33.174, 153.768 32.764, 154.230 27.961 C 154.650 23.583, 154.344 22.123, 152.409 19.270 C 150.733 16.801, 150.245 15.024, 150.666 12.921 C 151.027 11.117, 150.832 10, 150.156 10 C 149.555 10, 149.264 10.563, 149.510 11.250 M 76 12.596 C 76 14.863, 72.137 20, 70.432 20 C 68.789 20, 68.516 21.583, 70 22.500 C 70.550 22.840, 71 24.075, 71 25.245 C 71 26.414, 72.007 28.443, 73.237 29.752 L 75.474 32.134 73.382 33.817 C 72.231 34.743, 70.996 36.334, 70.637 37.354 C 70.248 38.457, 69.391 38.980, 68.521 38.646 C 66.660 37.932, 63.914 40.612, 64.620 42.452 C 65.229 44.038, 62.158 46, 59.066 46 C 56.299 46, 56.456 48.140, 59.426 50.930 C 61.901 53.256, 64 53.031, 64 50.441 C 64 49.629, 64.947 49, 66.171 49 C 67.365 49, 69.072 48.340, 69.962 47.534 C 71.393 46.239, 71.962 46.298, 74.824 48.039 C 77.685 49.779, 77.931 50.260, 76.921 52.148 C 74.998 55.742, 70 71.235, 70 73.604 C 70 74.830, 71.112 76.658, 72.472 77.667 C 74.566 79.220, 74.998 80.476, 75.297 85.890 C 75.601 91.418, 75.401 92.344, 73.813 92.759 C 71.829 93.278, 70.381 97.190, 71.503 99.005 C 71.883 99.620, 73.276 100.534, 74.597 101.037 C 78.230 102.418, 77.498 103.874, 72.500 105.211 C 67.719 106.490, 67.381 106.975, 69.069 110.130 C 70.568 112.929, 68.598 115, 64.437 115 C 60.538 115, 59.387 116.247, 61.595 118.079 C 62.815 119.091, 63.541 119.120, 64.834 118.207 C 69.060 115.221, 73.549 113.868, 76.500 114.689 C 81.418 116.057, 84.546 115.112, 89.140 110.871 C 92.984 107.322, 93.287 106.740, 91.745 105.877 C 89.329 104.525, 89.531 103.604, 93.142 99.491 L 96.284 95.913 94.142 93.918 C 92.964 92.820, 92 90.870, 92 89.583 C 92 88.297, 91.319 85.614, 90.487 83.622 C 89.063 80.216, 89.084 80, 90.832 80 C 93.089 80, 96 76.977, 96 74.631 C 96 73.690, 95.159 71.251, 94.131 69.210 C 92.213 65.402, 89.733 54.442, 89.787 50.014 C 89.804 48.647, 89.426 46.796, 88.947 45.901 C 88.369 44.821, 88.731 42.990, 90.023 40.455 C 91.094 38.355, 91.864 36.560, 91.735 36.466 C 91.606 36.372, 90.632 35.828, 89.571 35.258 C 87.669 34.235, 86.794 29.772, 86.835 21.303 C 86.848 18.533, 86.385 17.952, 83.363 16.955 C 81.238 16.253, 79.519 14.866, 78.963 13.402 C 77.933 10.692, 76 10.166, 76 12.596 M 9.923 16.167 C 9.881 16.350, 9.693 17.310, 9.505 18.300 C 8.991 21.003, 6.874 23.154, 3.227 24.678 C 0.332 25.888, 0.083 26.286, 1.067 28.125 C 1.679 29.269, 1.954 31.066, 1.679 32.120 C 1.403 33.173, 1.913 34.770, 2.811 35.668 C 5.609 38.467, 6.984 42.035, 6.825 46.088 C 6.690 49.547, 6.294 50.126, 3.336 51.195 C 0.872 52.087, 0 53.003, 0 54.701 C -0 57.423, -0.178 57.390, 4.312 55.514 C 7.862 54.031, 7.870 54.033, 9.434 57.168 C 10.295 58.895, 11 60.411, 11 60.538 C 11 60.666, 8.525 61.079, 5.500 61.457 L -0 62.144 -0 74.072 C -0 80.632, 0.378 86, 0.841 86 C 1.304 86, 3.779 85.369, 6.342 84.597 C 11.969 82.904, 12.930 83.857, 10.376 88.600 C 8.025 92.965, 8.862 94.428, 16.223 98.829 L 21.790 102.157 17.463 106.484 C 14.871 109.077, 11.806 111.078, 9.818 111.477 C 3.183 112.809, -0 114.178, 0 115.700 C 0 116.818, 0.345 116.961, 1.250 116.216 C 1.938 115.650, 4.702 114.859, 7.392 114.459 C 12.262 113.734, 12.282 113.743, 11.788 116.330 C 11.514 117.760, 11.633 119.058, 12.052 119.215 C 12.470 119.372, 11.594 120.951, 10.104 122.725 L 7.396 125.951 3.698 122.902 L 0 119.854 0 131.927 L 0 144 12.723 144 L 25.446 144 18.582 137.082 L 11.717 130.165 16.429 129.458 C 21.321 128.725, 27 124.938, 27 122.409 C 27 121.632, 29.250 119.380, 32 117.405 C 34.750 115.429, 37 113.462, 37 113.033 C 37 110.954, 32.814 103.174, 30.552 101.049 C 29.148 99.730, 28 98.245, 28 97.749 C 28 97.252, 26.601 95.447, 24.891 93.737 L 21.781 90.628 26.625 89.215 C 29.288 88.439, 32.675 86.943, 34.151 85.893 C 37.902 83.222, 37.364 81.454, 25.971 59 C 24.995 57.075, 23.020 52.842, 21.584 49.594 C 19.109 43.998, 19.062 43.589, 20.682 41.799 C 22.179 40.145, 22.239 39.343, 21.169 35.340 C 20.288 32.049, 20.249 30.405, 21.028 29.466 C 21.853 28.472, 21.465 27.845, 19.397 26.831 C 17.905 26.099, 16.378 24.825, 16.004 24 C 13.509 18.503, 12.349 16.610, 11.250 16.247 C 10.563 16.019, 9.966 15.983, 9.923 16.167 M 10.500 67 C 10.160 67.550, 10.097 68, 10.359 68 C 10.622 68, 11.548 68.273, 12.418 68.607 C 13.456 69.005, 14 68.662, 14 67.607 C 14 65.843, 11.485 65.407, 10.500 67 M 80.630 82.250 C 80.299 83.487, 80.021 86.188, 80.014 88.250 C 80.002 91.587, 80.275 92, 82.500 92 C 83.875 92, 85.338 92.112, 85.750 92.250 C 87.501 92.834, 86.963 87.706, 84.884 84.008 C 82.307 79.423, 81.480 79.081, 80.630 82.250 M 137.057 90.788 C 136.496 92.871, 135.781 97.344, 135.469 100.727 L 134.900 106.878 138.700 107.934 C 144.894 109.654, 145.676 109.380, 146.358 105.250 C 147.367 99.148, 147.094 94.162, 145.551 90.468 C 144.352 87.599, 143.582 87, 141.090 87 C 138.449 87, 137.951 87.468, 137.057 90.788" stroke="none" fill="black" fill-rule="evenodd"/>
</svg>