<svg xmlns="http://www.w3.org/2000/svg" width="192" height="144" viewBox="0 0 192 144" version="1.1">
	<path d="M 63.950 4.750 C 63.857 13.507, 62.916 21.373, 61.593 24.449 C 56.965 35.211, 54.755 38.597, 48.164 45.021 C 37.676 55.245, 22.907 60.805, 9.648 59.522 C 5.879 59.157, 2.166 58.617, 1.398 58.322 C 0.214 57.868, 0 64.388, 0 100.893 L 0 144 61.273 144 L 122.545 144 123.808 138.250 C 124.503 135.088, 126.614 125.975, 128.500 118 C 135.223 89.563, 136.053 79.180, 131.843 76.193 C 129.443 74.492, 129.503 70.864, 131.996 66.774 C 133.094 64.973, 133.994 62.768, 133.996 61.872 C 133.998 60.977, 134.675 59.685, 135.500 59 C 137.878 57.026, 137.255 54.601, 134 53.160 C 132.350 52.430, 131 51.220, 131 50.471 C 131 49.722, 129.762 48.514, 128.250 47.786 C 126.005 46.705, 125.487 45.779, 125.429 42.736 C 125.383 40.358, 124.569 38.170, 123.179 36.690 C 120.149 33.465, 120.448 32.194, 124.413 31.450 C 129.029 30.584, 141.172 31.487, 143.796 32.891 C 146.176 34.165, 151 40.108, 151 41.768 C 151 42.361, 152.053 44.119, 153.340 45.673 C 156.127 49.039, 157.994 54.124, 158.015 58.399 C 158.023 60.105, 158.741 63.525, 159.612 66 C 160.795 69.362, 161.015 72.144, 160.482 77 C 160.090 80.575, 159.671 86.039, 159.550 89.142 C 159.430 92.246, 158.749 96.191, 158.038 97.909 C 156.901 100.652, 157.019 101.791, 159.004 107.266 C 160.247 110.695, 163.841 118.675, 166.992 125 C 170.142 131.325, 173.273 138.204, 173.950 140.288 L 175.180 144.075 183.840 143.788 L 192.500 143.500 192.825 129 C 193.003 121.025, 192.837 88.737, 192.455 57.250 L 191.761 0 127.880 0 L 64 0 63.950 4.750 M 0.459 101 C 0.459 124.925, 0.589 134.713, 0.749 122.750 C 0.908 110.788, 0.908 91.213, 0.749 79.250 C 0.589 67.288, 0.459 77.075, 0.459 101" stroke="none" fill="black" fill-rule="evenodd"/>
</svg>