<svg xmlns="http://www.w3.org/2000/svg" width="192" height="144" viewBox="0 0 192 144" version="1.1">
	<path d="M -0 25.490 L -0 50.981 10.250 50.364 C 20.774 49.731, 36.554 51.438, 47.745 54.419 C 53.661 55.995, 57.978 54.871, 57.992 51.750 C 57.998 50.444, 57.176 49.996, 54.750 49.985 C 47.631 49.951, 47.674 47.570, 54.921 40.547 C 58.956 36.637, 59 36.515, 59 29.332 C 59 22.668, 59.250 21.784, 62.039 18.608 C 68.409 11.354, 83.521 5.201, 90.344 7.084 C 92.236 7.607, 94.355 8.723, 95.053 9.564 C 95.751 10.405, 97.540 11.961, 99.029 13.020 C 101.589 14.843, 102.117 14.868, 108.792 13.476 C 120.512 11.033, 122.052 13.426, 113.849 21.333 C 110.276 24.776, 108.974 26.680, 109.599 27.546 C 110.095 28.232, 111.543 30.190, 112.818 31.897 C 114.093 33.604, 114.647 35, 114.049 35 C 113.419 35, 113.201 35.952, 113.530 37.265 C 113.949 38.935, 113.296 40.300, 111.050 42.453 C 107.587 45.770, 107.227 47.715, 109.737 49.549 C 111.322 50.709, 111.336 50.980, 109.902 52.660 C 109.037 53.672, 107.370 56.602, 106.197 59.171 C 105.024 61.740, 103.599 64.130, 103.032 64.480 C 102.464 64.831, 102 66.216, 102 67.559 C 102 68.902, 101.062 70.937, 99.917 72.083 C 98.771 73.229, 97.983 74.280, 98.167 74.419 C 102.159 77.440, 117.178 84.869, 118.369 84.412 C 119.317 84.048, 121.486 84.970, 123.730 86.689 C 125.804 88.277, 129.412 90.803, 131.750 92.302 C 134.087 93.802, 136 95.633, 136 96.371 C 136 97.883, 150.457 110.097, 152.622 110.415 C 153.391 110.528, 154.556 111.156, 155.210 111.810 C 155.865 112.465, 156.795 113, 157.277 113 C 158.963 113, 163.876 118.740, 164.685 121.655 C 165.133 123.272, 168.650 128.948, 172.500 134.268 L 179.500 143.942 186 143.721 L 192.500 143.500 192.688 71.750 L 192.877 0 96.438 0 L 0 0 -0 25.490 M 0.435 26 C 0.435 40.025, 0.575 45.763, 0.747 38.750 C 0.919 31.738, 0.919 20.263, 0.747 13.250 C 0.575 6.238, 0.435 11.975, 0.435 26 M 4.750 60.680 L 1 61.121 1 102.560 L 1 144 38.111 144 L 75.221 144 74.521 131.750 C 74.137 125.013, 73.423 117.700, 72.935 115.500 C 72.448 113.300, 72.038 107.814, 72.024 103.309 C 72.011 98.804, 71.550 94.840, 71 94.500 C 70.450 94.160, 70 94.385, 70 95 C 70 95.615, 69.609 95.877, 69.132 95.582 C 68.654 95.286, 68.484 91.972, 68.752 88.217 L 69.241 81.389 65.058 80.136 C 60.249 78.695, 53 72.605, 53 70.006 C 53 67.460, 51.256 66.367, 44.500 64.682 C 32.024 61.570, 13.260 59.681, 4.750 60.680 M 108 94.441 C 108 95.234, 108.450 96.160, 109 96.500 C 109.550 96.840, 110 98.216, 110 99.559 C 110 100.902, 110.450 102, 111 102 C 112.309 102, 112.286 97.403, 110.965 94.934 C 109.750 92.665, 108 92.374, 108 94.441 M 129.973 110.051 C 129.016 111.838, 129.200 112.584, 131.095 114.601 L 133.361 117.013 130.681 119.811 C 127.224 123.419, 127.304 124.002, 131.250 123.989 C 138.195 123.965, 142.146 122.773, 143.241 120.370 C 144.386 117.857, 144.207 117.650, 134.872 110.706 L 131.117 107.913 129.973 110.051 M 154.839 133.689 C 153.380 135.235, 151.731 138.188, 151.174 140.250 L 150.161 144 159.165 144 L 168.168 144 165.135 140.250 C 163.466 138.188, 161.064 135.235, 159.796 133.689 L 157.491 130.878 154.839 133.689 M 111.107 140.069 C 109.948 141.637, 109 143.162, 109 143.460 C 109 143.757, 116.088 143.984, 124.750 143.965 C 138.879 143.933, 140.243 143.783, 138 142.508 C 135.371 141.013, 124.379 138.438, 117.357 137.671 C 113.705 137.273, 112.965 137.557, 111.107 140.069" stroke="none" fill="black" fill-rule="evenodd"/>
</svg>