<svg xmlns="http://www.w3.org/2000/svg" width="192" height="144" viewBox="0 0 192 144" version="1.1">
	<path d="M 13.323 7.750 C 13.641 12.013, 14.380 19.238, 14.963 23.808 C 15.837 30.644, 15.748 33.183, 14.462 38.145 C 12.839 44.409, 13.471 47, 16.622 47 C 17.380 47, 18 47.879, 18 48.953 C 18 50.307, 16.618 51.518, 13.500 52.897 C 11.025 53.992, 9 55.305, 9 55.816 C 9 56.327, 10.800 57.032, 13 57.384 C 15.200 57.736, 17 58.468, 17 59.012 C 17 59.555, 17.822 60, 18.826 60 C 19.830 60, 21.708 61.125, 23 62.500 C 26.092 65.791, 29 65.814, 29 62.547 C 29 58.809, 31.020 54.794, 34.425 51.763 C 36.830 49.621, 37.204 48.831, 36.139 48.135 C 35.391 47.646, 33.928 47.467, 32.889 47.739 C 30.594 48.339, 30.384 46.118, 32.366 42.200 C 34.443 38.097, 35.225 32.289, 34.008 30.014 C 33.311 28.713, 31.913 28, 30.058 28 C 25.950 28, 26.913 25.521, 34.228 17.273 C 43.630 6.670, 44.200 3.716, 37.075 2.513 C 34.839 2.135, 32.757 1.415, 32.446 0.913 C 32.136 0.411, 27.576 -0, 22.312 -0 L 12.743 -0 13.323 7.750 M 96 72 L 96 144 129.422 144 L 162.845 144 163.902 140.750 C 165.473 135.924, 166.990 120.637, 165.999 119.621 C 165.511 119.121, 163.955 119.677, 162.384 120.912 C 159.902 122.865, 159.534 122.919, 158.714 121.453 C 158.212 120.557, 157.983 118.272, 158.204 116.375 C 158.587 113.100, 158.474 112.957, 155.963 113.508 C 154.313 113.870, 152.888 113.570, 152.175 112.710 C 150.485 110.675, 153.441 103.889, 157.074 101.462 C 160.477 99.189, 161.157 97.539, 161.251 91.332 C 161.315 87.127, 161.567 86.709, 164.910 85.269 C 166.884 84.419, 169.470 83.282, 170.655 82.743 C 171.840 82.205, 173.241 82.031, 173.770 82.358 C 175.555 83.461, 175.949 91.198, 174.375 94.241 C 172.953 96.992, 173.026 97.266, 176.134 100.806 C 177.918 102.838, 179.743 104.556, 180.189 104.625 C 180.635 104.694, 181.374 104.806, 181.832 104.875 C 183.321 105.099, 184.920 112.080, 184.023 114.439 C 183.555 115.670, 181.701 117.915, 179.903 119.428 C 176.700 122.124, 176.659 122.261, 177.844 126.339 C 178.510 128.628, 179.829 133.534, 180.777 137.243 L 182.500 143.986 187.250 143.993 L 192 144 192 72 L 192 0 144 0 L 96 0 96 72 M 179.079 107.583 C 179.127 108.748, 179.364 108.985, 179.683 108.188 C 179.972 107.466, 179.936 106.603, 179.604 106.271 C 179.272 105.939, 179.036 106.529, 179.079 107.583" stroke="none" fill="black" fill-rule="evenodd"/>
</svg>