<svg xmlns="http://www.w3.org/2000/svg" width="192" height="144" viewBox="0 0 192 144" version="1.1">
	<path d="M 85.884 16.250 C 83.068 19.331, 82 21.378, 82 23.697 C 82 27.236, 86.033 35.572, 88.682 37.510 C 90.220 38.634, 90.102 38.897, 87.440 40.291 C 83.528 42.338, 77.786 48.398, 78.123 50.123 C 78.271 50.880, 78.050 52.509, 77.631 53.742 C 76.903 55.887, 76.741 55.917, 73.885 54.441 C 70.215 52.543, 67.666 53.243, 66.152 56.566 C 63.651 62.054, 64.316 62.717, 72.250 62.653 C 80.103 62.589, 81.242 61.883, 85.113 54.668 L 86.727 51.661 88.463 56.888 C 90.281 62.363, 90.187 64.764, 87.709 76 C 84.586 90.162, 82.232 95.996, 79.635 96.003 C 77.945 96.008, 73.234 108.672, 72.511 115.152 C 71.940 120.275, 72.094 120.952, 74.163 122.402 C 75.418 123.281, 77.920 124, 79.723 124 C 82.819 124, 83 124.199, 83 127.599 C 83 132.450, 80.581 137.077, 76.779 139.500 C 69.967 143.842, 70.902 144, 103.350 144 L 133.867 144 134.284 141.250 L 134.700 138.500 134.850 141.250 C 135.051 144.928, 137 144.791, 137 141.099 C 137 138.837, 136.220 137.737, 133.462 136.110 C 125.851 131.619, 93.966 127.874, 91.843 131.220 C 91.291 132.090, 91.026 131.758, 91.015 130.184 C 90.987 125.892, 92.654 124.304, 97.923 123.605 C 100.670 123.240, 103.156 122.556, 103.448 122.084 C 103.739 121.613, 105.670 120.919, 107.739 120.542 C 111.227 119.908, 119.654 116.451, 128 112.231 C 131.751 110.335, 131.943 109.500, 130.477 101.500 C 129.721 97.377, 124.440 90.610, 122.779 91.637 C 121.266 92.572, 118.306 89.139, 115.997 83.772 C 114.032 79.204, 113.972 78.595, 115.405 77.793 C 116.591 77.129, 117.008 75.313, 117.032 70.700 C 117.052 66.841, 117.618 63.767, 118.532 62.559 C 120.782 59.584, 120.316 56.484, 116.549 49.387 C 113.199 43.073, 110.912 40.039, 106.250 35.723 C 103.053 32.762, 103.464 31.570, 106.969 33.641 C 108.602 34.606, 110.232 35.102, 110.590 34.744 C 110.948 34.385, 110.923 31.975, 110.535 29.386 C 109.975 25.652, 108.867 23.669, 105.165 19.782 C 96.405 10.584, 91.830 9.745, 85.884 16.250" stroke="none" fill="black" fill-rule="evenodd"/>
</svg>