<svg xmlns="http://www.w3.org/2000/svg" width="192" height="144" viewBox="0 0 192 144" version="1.1">
	<path d="M 0 64.288 L 0 128.576 9.750 127.780 C 29.458 126.172, 64.611 122.888, 68.378 122.304 L 72.257 121.703 68.378 119.805 C 66.245 118.760, 62.564 117.705, 60.198 117.461 C 57.833 117.216, 55.093 116.585, 54.110 116.059 C 53.127 115.533, 51.280 115.375, 50.005 115.709 C 47.877 116.265, 47.736 116.068, 48.289 113.303 C 48.621 111.647, 48.438 109.838, 47.883 109.283 C 47.205 108.605, 47.369 106.346, 48.384 102.387 C 49.214 99.149, 50.092 94.150, 50.335 91.277 C 51.194 81.145, 57.046 74.327, 71.684 66.406 C 82.237 60.695, 86.357 57.711, 89.198 53.721 L 91.325 50.735 86.505 46.553 C 80.741 41.553, 80.394 38.722, 84.595 31.004 C 86.095 28.246, 87.041 25.708, 86.697 25.364 C 86.352 25.019, 86.538 23.863, 87.110 22.794 C 87.682 21.725, 88.326 19.084, 88.541 16.924 C 88.756 14.764, 89.397 12.127, 89.966 11.064 C 91.669 7.882, 91.175 7.765, 87.590 10.499 C 85.334 12.220, 83.949 12.726, 83.497 11.995 C 83.121 11.387, 82.068 11.037, 81.157 11.217 C 78.913 11.661, 77.043 8.053, 78.260 5.629 C 78.931 4.294, 78.873 3.960, 78.060 4.463 C 77.417 4.860, 76.033 4.041, 74.887 2.584 L 72.855 0 53.624 0 L 34.393 0 32.168 6.662 C 28.738 16.936, 26.692 30.469, 27.356 38.500 C 27.675 42.350, 29.356 50.150, 31.093 55.834 L 34.250 66.168 31.580 72.973 C 30.112 76.716, 28.662 81.307, 28.359 83.175 C 27.422 88.948, 29.724 95.047, 34.615 99.750 C 38.833 103.805, 38.919 104, 36.498 104 C 31.982 104, 26.420 99.558, 23.524 93.639 C 21.118 88.721, 20.859 87.119, 20.918 77.488 C 20.978 67.726, 20.724 66.206, 17.993 59.984 C 16.348 56.236, 14.259 50.319, 13.350 46.835 C 11.170 38.478, 11.184 19.135, 13.376 9 C 14.268 4.875, 14.999 1.163, 14.999 0.750 C 15 0.337, 11.625 0, 7.500 0 L 0 0 0 64.288 M 107.695 2.542 C 105.567 5.466, 104.995 5.158, 118 8.095 C 133.365 11.566, 137.269 12.196, 140 11.650 C 141.442 11.362, 144.420 11.956, 146.745 12.997 C 149.035 14.022, 155.541 15.582, 161.204 16.463 C 166.867 17.345, 173.938 18.501, 176.917 19.033 C 179.896 19.565, 184.509 20, 187.167 20 L 192 20 192 10 L 192 0 150.750 0.031 L 109.500 0.063 107.695 2.542 M 111 12.374 C 111 13.203, 111.450 14.160, 112 14.500 C 112.550 14.840, 113 16.010, 113 17.100 C 113 19.744, 116.978 25.010, 118.938 24.961 C 119.797 24.940, 124.100 23.866, 128.500 22.575 C 136.775 20.148, 139.437 17.602, 134.816 16.538 C 133.542 16.244, 128.450 15.089, 123.500 13.971 C 118.550 12.853, 113.713 11.697, 112.750 11.402 C 111.620 11.055, 111 11.399, 111 12.374 M 147.247 21.977 C 144.672 26.099, 121.617 35.526, 116.470 34.560 C 113.356 33.976, 110.160 35.827, 111.673 37.339 C 112.033 37.700, 112.256 39.835, 112.168 42.084 C 112.079 44.345, 112.676 47.128, 113.504 48.309 C 114.327 49.484, 115 51.441, 115 52.659 C 115 53.877, 117.061 57.884, 119.580 61.563 C 125.642 70.418, 125.822 71, 122.500 71 C 120.313 71, 119.923 71.340, 120.491 72.750 C 120.878 73.712, 121.426 80.125, 121.707 87 L 122.219 99.500 119.103 103.750 C 117.389 106.087, 115.365 108, 114.605 108 C 113.255 108, 111.336 114.669, 112.384 115.718 C 113.009 116.342, 156.961 105.288, 177 99.466 L 191.500 95.253 191.764 62.698 C 192.016 31.489, 191.949 30.119, 190.131 29.541 C 184.533 27.765, 152.329 20, 150.558 20 C 149.416 20, 147.926 20.889, 147.247 21.977 M 89.446 37.087 C 89.077 37.685, 89.275 38.675, 89.887 39.287 C 90.704 40.104, 91 39.815, 91 38.200 C 91 35.785, 90.481 35.413, 89.446 37.087" stroke="none" fill="black" fill-rule="evenodd"/>
</svg>