<svg xmlns="http://www.w3.org/2000/svg" width="192" height="144" viewBox="0 0 192 144" version="1.1">
	<path d="M 29.604 4.250 C 32.705 9.262, 38.947 16, 40.491 16 C 41.087 16, 42.756 12.400, 44.198 8 L 46.821 0 36.898 0 L 26.975 0 29.604 4.250 M 75 1 C 75 1.550, 75.340 2, 75.756 2 C 76.675 2, 78.483 6.098, 79.948 11.500 C 80.544 13.700, 81.700 16.374, 82.516 17.441 C 83.534 18.772, 84 21.821, 84 27.144 C 84 31.413, 84.547 36.106, 85.215 37.573 C 86.536 40.472, 85.680 40.422, 102.187 38.556 C 105.288 38.206, 93.291 41.125, 88 42.008 C 86.716 42.223, 100.519 48, 102.315 48 C 104.561 48, 108.910 46.722, 116.383 43.866 C 122.369 41.579, 124 41.525, 124 43.613 C 124 44.823, 124.689 45.107, 126.750 44.749 C 129.893 44.203, 142.211 41.731, 152.500 39.581 C 165.515 36.861, 172.697 36, 182.365 36 L 192 36 192 18 L 192 0 133.500 0 C 95.167 0, 75 0.345, 75 1 M 72.610 93.823 C 71.896 94.977, 74.756 108.156, 75.987 109.387 C 77.465 110.865, 77.280 111.514, 74.411 114.923 C 72.987 116.615, 70.988 118, 69.968 118 C 67.341 118, 56.348 107.525, 55.528 104.240 C 54.366 99.585, 52.176 98, 46.904 98 C 44.272 98, 41.814 98.492, 41.442 99.094 C 41.014 99.786, 39.248 99.941, 36.633 99.515 C 34.360 99.145, 25.188 98.622, 16.250 98.354 L 0 97.865 0 120.938 L 0 144.010 96.250 143.755 L 192.500 143.500 192.567 120 C 192.604 107.075, 192.471 99.244, 192.273 102.597 L 191.913 108.694 184.206 108.284 C 171.072 107.585, 133.656 102.141, 131.091 100.556 C 130.455 100.163, 128.400 99.651, 126.526 99.418 C 124.652 99.186, 121.855 98.515, 120.309 97.928 C 118.764 97.340, 117.388 96.889, 117.251 96.926 C 117.115 96.963, 114.640 96.095, 111.751 94.997 C 107.265 93.292, 104.067 93.001, 89.809 93.001 C 80.629 93, 72.889 93.370, 72.610 93.823 M 0.430 121 C 0.430 133.925, 0.573 139.213, 0.747 132.750 C 0.921 126.287, 0.921 115.712, 0.747 109.250 C 0.573 102.787, 0.430 108.075, 0.430 121" stroke="none" fill="black" fill-rule="evenodd"/>
</svg>