<svg xmlns="http://www.w3.org/2000/svg" width="192" height="144" viewBox="0 0 192 144" version="1.1">
	<path d="M 69 7.818 C 69 33.654, 52.591 53.510, 26.840 58.835 C 18.890 60.479, 19.311 60.505, 2.750 57.305 L 0 56.773 0 100.387 L 0 144 68.793 144 L 137.586 144 139.493 138.250 C 140.542 135.088, 142.176 130.925, 143.125 129 C 146.055 123.054, 149.628 113.880, 152.457 105.041 C 153.947 100.388, 155.846 95.264, 156.679 93.655 C 157.929 91.237, 157.972 90.317, 156.927 88.364 C 155.144 85.031, 154.185 85.418, 153.485 89.750 C 152.224 97.564, 151.299 100.492, 150.168 100.250 C 149.526 100.113, 149 100.938, 149 102.083 C 149 105.305, 146.960 103.877, 144.297 98.790 C 142.044 94.489, 141.956 93.758, 143 88 C 143.616 84.603, 143.846 80.576, 143.511 79.051 C 143.134 77.335, 143.683 74.225, 144.951 70.889 C 146.077 67.925, 146.999 63.832, 146.999 61.793 C 147 57.892, 154.358 42.518, 158.255 38.278 C 160.936 35.360, 169.288 33, 176.935 33 C 184.147 33, 185.618 34.649, 181.917 38.588 C 180.185 40.432, 179.648 42.035, 179.841 44.788 C 180.086 48.278, 179.704 48.814, 173.459 53.750 C 169.805 56.637, 167.498 59, 168.331 59 C 170.681 59, 175.709 63.704, 176.430 66.577 C 176.787 67.998, 178.422 72.004, 180.064 75.479 C 182.646 80.944, 182.889 82.149, 181.864 84.399 C 181.202 85.851, 179.853 87, 178.808 87 C 176.169 87, 175.429 89.755, 177.233 92.861 C 178.076 94.313, 180.474 99.550, 182.563 104.500 C 184.652 109.450, 187.614 115.358, 189.146 117.629 C 191.696 121.412, 191.957 122.670, 192.253 132.629 C 192.430 138.608, 192.671 130.186, 192.788 113.914 C 192.904 97.642, 192.702 65.354, 192.337 42.164 L 191.674 0 130.337 0 L 69 0 69 7.818 M 0.459 100.500 C 0.460 124.700, 0.590 134.457, 0.749 122.182 C 0.908 109.907, 0.908 90.107, 0.749 78.182 C 0.589 66.257, 0.459 76.300, 0.459 100.500" stroke="none" fill="black" fill-rule="evenodd"/>
</svg>