<svg xmlns="http://www.w3.org/2000/svg" width="192" height="144" viewBox="0 0 192 144" version="1.1">
	<path d="M 95.097 20.572 C 93.416 21.987, 91.465 24.349, 90.763 25.822 C 89.875 27.683, 88.572 28.600, 86.493 28.827 C 82.148 29.302, 81.487 30.466, 83.743 33.673 C 84.837 35.228, 85.568 37.528, 85.367 38.785 C 84.917 41.602, 87.478 48, 89.056 48 C 89.693 48, 89.946 48.699, 89.618 49.554 C 89.290 50.409, 90.149 53.334, 91.527 56.054 C 93.975 60.884, 94.735 61.336, 99.750 60.941 C 100.751 60.862, 101.742 65.071, 101.220 67.179 C 100.991 68.102, 98.405 70.772, 95.473 73.111 C 92.542 75.451, 89.579 78.418, 88.890 79.705 C 87.196 82.871, 85.891 82.174, 84.241 77.222 C 83.336 74.509, 80.995 71.369, 77.488 68.163 C 71.934 63.087, 67.838 61.481, 64.713 63.154 C 62.157 64.522, 60.753 68.670, 62.035 71.065 C 63.282 73.395, 64.734 73.573, 65.177 71.452 C 65.441 70.184, 66.114 70.358, 68.893 72.414 C 72.483 75.070, 74.408 78.645, 78.044 89.409 C 79.802 94.616, 80.790 96.160, 82.660 96.629 C 85.785 97.414, 90.091 95.558, 93.570 91.927 C 96.104 89.282, 98.834 87.842, 97.634 89.783 C 96.719 91.264, 99.146 100, 100.473 100 C 101.955 100, 102.345 101.335, 104.065 112.294 C 105.346 120.453, 105.158 121.521, 98.957 141.278 L 98.085 144.055 127.149 143.970 C 143.134 143.922, 156.953 143.493, 157.857 143.015 C 158.760 142.537, 160.287 141.902, 161.250 141.604 C 164.340 140.648, 163.557 134.779, 158.509 121.053 L 156.874 116.606 160.352 113.553 C 169.337 105.667, 168.636 95.930, 158.183 83.399 C 155.018 79.604, 149.807 72.530, 146.603 67.678 C 143.398 62.825, 139.702 58.366, 138.388 57.767 C 137.075 57.169, 136 56.313, 136 55.865 C 136 55.418, 134.621 54.338, 132.936 53.467 C 128.775 51.315, 129.640 49.793, 136.079 47.938 C 142.647 46.046, 147 44.258, 147 43.453 C 147 41.873, 134.031 33.561, 127 30.634 C 125.075 29.833, 122.444 27.747, 121.153 25.998 C 117.947 21.654, 109.841 18.022, 103.327 18.010 C 99.220 18.002, 97.523 18.530, 95.097 20.572 M 140.731 122.174 C 142.344 124.553, 143.950 127.287, 144.300 128.250 C 144.651 129.213, 145.375 130, 145.910 130 C 147.993 130, 147.948 127.930, 145.761 123.313 C 143.928 119.441, 142.927 118.436, 140.641 118.174 L 137.799 117.848 140.731 122.174" stroke="none" fill="black" fill-rule="evenodd"/>
</svg>