<svg xmlns="http://www.w3.org/2000/svg" width="192" height="144" viewBox="0 0 192 144" version="1.1">
	<path d="M -0 4.991 L -0 9.982 4.957 6.931 C 7.684 5.254, 12.296 3.024, 15.207 1.977 L 20.500 0.072 10.250 0.036 L 0 0 -0 4.991 M 57.500 1.917 C 84.079 11.721, 100.080 38.629, 96.004 66.667 C 93.746 82.202, 93.594 93.584, 95.546 100.920 C 99.344 115.191, 108.614 128.935, 119.667 136.682 C 129.895 143.850, 130.625 144, 155.248 144 L 177.253 144 183.376 140.900 C 186.744 139.194, 190.063 137.339, 190.750 136.777 C 191.728 135.978, 192 120.968, 192 67.878 L 192 0 122.250 0.036 C 53.301 0.072, 52.557 0.093, 57.500 1.917 M 150.500 44.733 C 144.300 46.285, 140 52.298, 140 59.416 C 140 63.036, 140.613 64.628, 143.093 67.453 C 149.249 74.464, 158.751 74.464, 164.907 67.453 C 167.552 64.441, 168 63.144, 168 58.500 C 168 53.860, 167.551 52.559, 164.918 49.559 C 163.189 47.590, 160.225 45.601, 158.168 45.030 C 154.299 43.955, 153.698 43.932, 150.500 44.733 M 31 68.784 C 21.117 74.203, 19.334 87.534, 27.410 95.610 C 35.146 103.346, 48.177 101.454, 53.058 91.887 C 56.835 84.483, 54.854 75.279, 48.430 70.379 C 43.868 66.899, 35.786 66.160, 31 68.784" stroke="none" fill="black" fill-rule="evenodd"/>
</svg>