<svg xmlns="http://www.w3.org/2000/svg" width="192" height="144" viewBox="0 0 192 144" version="1.1">
	<path d="M 120.183 1.902 C 110.006 5.416, 106 11.901, 106 24.859 C 106 30.570, 105.835 30.961, 102.250 33.782 C 100.188 35.405, 97.455 37.059, 96.178 37.457 C 94.664 37.929, 94.055 38.700, 94.428 39.672 C 94.742 40.492, 95 41.802, 95 42.582 C 95 43.362, 95.787 44.003, 96.750 44.007 C 97.713 44.010, 99.850 44.907, 101.500 46 C 103.150 47.093, 105.513 47.990, 106.750 47.993 C 108.353 47.998, 109 48.592, 109 50.059 C 109 51.191, 109.450 51.840, 110 51.500 C 111.858 50.351, 111.016 53.354, 108.826 55.686 C 106.870 57.767, 106.831 58, 108.442 58 C 109.721 58, 110.089 58.554, 109.727 59.935 C 109.444 61.018, 109.799 62.093, 110.533 62.374 C 111.355 62.690, 111.622 63.740, 111.249 65.189 C 110.707 67.290, 110.812 67.369, 112.403 66.064 C 113.568 65.109, 114.378 64.980, 114.826 65.679 C 115.197 66.256, 117.802 66.639, 120.616 66.530 C 123.719 66.409, 126.473 66.880, 127.616 67.727 C 129.437 69.077, 129.439 69.169, 127.673 70.479 C 126.668 71.224, 123.743 72.127, 121.173 72.486 C 114.843 73.369, 113.116 74.447, 104.450 82.917 C 95.955 91.220, 97.630 91.330, 87.230 81.785 C 83.781 78.620, 79.506 75.300, 77.730 74.407 C 75.953 73.514, 73.774 71.868, 72.887 70.748 C 72 69.628, 70.784 69.015, 70.185 69.385 C 69.586 69.756, 65.977 74.208, 62.165 79.279 C 57.778 85.115, 51.795 91.391, 45.867 96.375 C 40.715 100.707, 36.350 104.644, 36.167 105.125 C 35.751 106.217, 39.137 106.180, 45 105.030 C 48.722 104.299, 50.221 104.503, 53.670 106.211 C 58.797 108.748, 60.334 108.226, 62.975 103.049 C 65.261 98.567, 66.544 97.987, 67.500 101 C 68.322 103.591, 70.040 103.565, 70.723 100.952 C 71.523 97.891, 74.215 98.986, 76.500 103.300 C 77.957 106.051, 78.999 106.950, 80.337 106.609 C 81.600 106.288, 82.694 107.055, 83.837 109.065 C 84.752 110.672, 85.805 111.990, 86.179 111.994 C 87.964 112.010, 90 115.490, 90 118.524 C 90 123.206, 91.886 126.890, 95.145 128.575 C 98.897 130.515, 101.265 130.366, 104.273 128 C 105.671 126.900, 107.733 126, 108.855 126 C 110.611 126, 110.938 126.731, 111.198 131.250 C 111.407 134.882, 110.962 137.424, 109.754 139.500 C 108.793 141.150, 108.006 142.838, 108.004 143.250 C 108.002 143.662, 118.800 144, 132 144 C 151.673 144, 156 143.753, 156 142.628 C 156 141.801, 157.584 141.002, 159.983 140.619 C 165.475 139.740, 166.825 137.257, 167.097 127.534 C 167.373 117.668, 168.681 113, 171.168 113 C 173.402 113, 173.472 112.119, 171.463 109.251 C 170.017 107.186, 170.071 107.020, 172.390 106.438 C 174.711 105.856, 182.531 109.557, 189.750 114.655 L 192 116.244 192 106.622 L 192 97 188.486 97 C 186.554 97, 184.112 97.537, 183.061 98.194 C 180.791 99.612, 176 97.915, 176 95.694 C 176 93.553, 170.970 81.679, 169.243 79.742 C 168.381 78.776, 164.160 76.874, 159.863 75.517 C 150.963 72.705, 148 71.113, 148 69.143 C 148 68.188, 148.824 67.924, 150.694 68.282 C 152.732 68.671, 154.009 68.139, 155.944 66.092 C 158.139 63.769, 158.990 63.490, 161.975 64.113 C 166.413 65.041, 167.152 64.531, 165.952 61.374 C 165.136 59.227, 165.290 58.737, 166.916 58.312 C 168.828 57.812, 168.828 57.766, 166.930 54.653 C 164.463 50.608, 164.489 46.351, 167.004 42.226 C 169.530 38.082, 169.512 36.465, 166.905 33.158 C 165.062 30.821, 165.007 30.460, 166.450 30.168 C 167.352 29.985, 169.487 30.323, 171.194 30.918 C 178.457 33.450, 181 31.591, 181 23.748 L 181 19.365 186.500 17.632 C 189.525 16.678, 192 15.401, 192 14.795 C 192 14.188, 190.258 12.201, 188.130 10.379 C 186.001 8.557, 183.505 5.476, 182.583 3.533 L 180.906 -0 173.203 0.022 C 167.203 0.040, 164.955 0.463, 163.036 1.938 C 160.617 3.797, 160.523 3.796, 157.882 1.916 C 155.515 0.231, 153.403 0.004, 140.346 0.033 C 128.601 0.058, 124.389 0.449, 120.183 1.902" stroke="none" fill="black" fill-rule="evenodd"/>
</svg>