<svg xmlns="http://www.w3.org/2000/svg" width="192" height="144" viewBox="0 0 192 144" version="1.1">
	<path d="M 45.250 0.655 C 43.448 1.393, 43.712 3, 45.635 3 C 46.826 3, 46.555 3.562, 44.635 5.073 C 41.571 7.483, 41.301 8.719, 43.737 9.188 C 45.014 9.434, 44.468 10.116, 41.679 11.762 C 38.050 13.903, 37.496 16, 40.559 16 C 41.352 16, 42 16.450, 42 17 C 42 17.550, 41.550 18, 41 18 C 40.450 18, 40 18.675, 40 19.500 C 40 20.325, 39.550 21, 39 21 C 38.450 21, 38 21.499, 38 22.109 C 38 22.788, 39.358 23.060, 41.500 22.810 C 45.706 22.319, 45.987 23.058, 42.250 24.776 C 37.545 26.939, 35.343 28.976, 36.760 29.852 C 37.606 30.375, 36.809 31.198, 34.293 32.398 L 30.575 34.171 33.037 36.063 C 34.392 37.104, 35.837 37.966, 36.250 37.978 C 36.663 37.990, 37 39.627, 37 41.617 C 37 44.793, 37.254 45.167, 39.091 44.686 C 41.249 44.122, 41.283 44.863, 39.385 51.250 C 38.653 53.714, 39.907 53.445, 45.404 49.959 L 50.199 46.918 49.488 52.087 C 49.023 55.467, 49.125 57.041, 49.782 56.635 C 50.422 56.239, 50.831 59.168, 50.909 64.706 C 50.998 71.049, 51.489 74.087, 52.726 75.949 C 54.946 79.289, 55.209 80.507, 55.038 86.659 C 54.874 92.600, 56.068 93.932, 58.964 91.036 C 60.084 89.916, 61.031 89.338, 61.069 89.750 C 61.107 90.163, 61.220 92.975, 61.319 96 C 61.477 100.811, 61.771 101.539, 63.665 101.808 C 66.671 102.237, 67.170 104.266, 65.462 109.108 C 63.577 114.451, 63.610 114.663, 66 112.500 C 68.211 110.499, 68.691 111.840, 66.937 115.117 C 66.353 116.210, 66.015 117.993, 66.187 119.081 C 66.474 120.893, 66.830 120.786, 70.414 117.821 L 74.329 114.583 73.640 119.542 C 73.261 122.269, 72.706 127.875, 72.406 132 C 71.926 138.604, 72.032 139.291, 73.291 137.750 C 75.198 135.416, 76.267 135.533, 75.567 138 C 75.255 139.100, 74.745 140.900, 74.433 142 C 74.002 143.519, 74.343 144, 75.849 144 C 76.941 144, 78.096 143.437, 78.417 142.750 C 78.883 141.750, 79.117 141.750, 79.583 142.750 C 80.026 143.700, 85.996 144, 104.423 144 L 128.680 144 129.994 136.750 C 131.187 130.168, 132.111 103.581, 132.384 68 C 132.504 52.245, 132.056 50.534, 122.388 29.870 C 118.881 22.374, 115.176 12.699, 114.155 8.370 L 112.298 0.500 79.399 0.322 C 61.305 0.224, 45.938 0.374, 45.250 0.655" stroke="none" fill="black" fill-rule="evenodd"/>
</svg>