<svg xmlns="http://www.w3.org/2000/svg" width="192" height="144" viewBox="0 0 192 144" version="1.1">
	<path d="M 59.816 28.725 C 57.136 29.007, 56.153 29.574, 56.206 30.806 C 56.246 31.738, 55.952 33.699, 55.553 35.163 C 54.998 37.199, 55.338 38.338, 56.997 39.997 C 58.190 41.190, 58.916 42.417, 58.610 42.724 C 58.303 43.030, 58.795 44.538, 59.703 46.075 C 61.047 48.350, 61.119 49.152, 60.091 50.391 C 59.396 51.228, 59.081 52.322, 59.390 52.823 C 59.700 53.323, 59.126 54.481, 58.115 55.396 C 57.104 56.311, 55.468 58.853, 54.479 61.046 C 52.698 64.997, 52.702 65.054, 54.951 67.448 L 57.220 69.863 54.678 78.182 C 51.628 88.160, 47.812 111.195, 46.508 127.500 C 46.200 131.350, 45.676 136.637, 45.345 139.250 L 44.742 144 63.871 144 C 85.586 144, 83.723 144.976, 82.004 134.500 C 81.463 131.200, 80.555 123.937, 79.987 118.359 C 79.419 112.782, 77.805 104.007, 76.400 98.859 C 74.996 93.712, 73.742 88.750, 73.615 87.833 C 73.488 86.917, 72.792 85.455, 72.070 84.584 C 71.062 83.369, 71.013 82.363, 71.859 80.251 C 73.384 76.444, 73.658 56.050, 72.220 53.391 C 71.225 51.549, 71.520 50.914, 74.540 48.396 C 76.540 46.729, 78 44.594, 78 43.339 C 78 39.746, 74.383 32.447, 71.466 30.152 C 68.809 28.062, 67.558 27.908, 59.816 28.725" stroke="none" fill="black" fill-rule="evenodd"/>
</svg>