<svg xmlns="http://www.w3.org/2000/svg" width="192" height="144" viewBox="0 0 192 144" version="1.1">
	<path d="M 0.045 33.250 C 0.081 59.999, 0.326 65.987, 1.295 63.874 C 4.985 55.832, 13.709 49.453, 29.968 42.909 C 37.318 39.950, 39.405 38.514, 45.774 32.033 C 49.809 27.925, 54.515 24.100, 56.230 23.533 C 60.143 22.237, 60.722 20.598, 58.067 18.326 C 55.105 15.789, 55.512 14.819, 59.250 15.510 C 61.292 15.888, 63.186 15.605, 64.347 14.748 C 66.117 13.442, 66.086 13.256, 63.597 10.298 C 60.847 7.030, 60.276 5, 62.107 5 C 62.716 5, 62.972 4.369, 62.676 3.598 C 61.744 1.170, 63.192 0.974, 64.995 3.284 C 67.319 6.261, 70.562 12.859, 71.386 16.285 C 71.789 17.961, 73.041 19.445, 74.528 20.011 C 77.470 21.129, 77.802 23, 75.059 23 C 71.712 23, 71.822 24.750, 75.470 29.529 C 80.548 36.181, 79.937 41.124, 73.767 43.310 C 72.696 43.690, 72.264 44.523, 72.636 45.494 C 73.288 47.192, 68.506 51.997, 66.161 51.999 C 65.313 52, 65.771 53.128, 67.411 55.077 C 68.835 56.769, 70.286 59.357, 70.634 60.827 C 70.983 62.297, 72.375 66.176, 73.729 69.446 C 75.919 74.736, 76.056 75.800, 74.970 79.090 C 74.299 81.123, 74.038 83.252, 74.390 83.821 C 74.741 84.390, 74.123 85.144, 73.015 85.495 C 71.367 86.018, 70.971 87.078, 70.842 91.317 C 70.756 94.168, 70.754 97.175, 70.839 98 C 70.924 98.825, 71.173 107.600, 71.392 117.500 C 71.612 127.400, 72.121 137.412, 72.523 139.750 L 73.256 144 98.128 144 L 123 144 123 139.314 C 123 136.736, 123.941 131.273, 125.092 127.173 C 126.462 122.291, 126.986 118.301, 126.611 115.610 C 126.297 113.349, 125.645 106.432, 125.163 100.237 C 124.503 91.762, 123.848 88.490, 122.518 87.020 C 121.443 85.832, 120.969 84.228, 121.309 82.928 C 121.616 81.752, 121.131 79.245, 120.230 77.355 C 118.823 74.405, 118.778 73.468, 119.910 70.710 C 120.635 68.945, 122.280 64.628, 123.564 61.118 C 124.848 57.608, 126.822 53.754, 127.949 52.554 C 130.136 50.226, 130.712 48.442, 128.919 49.550 C 127.476 50.442, 122 45.109, 122 42.813 C 122 41.722, 121.270 41, 120.169 41 C 119.162 41, 117.738 39.880, 117.006 38.510 C 115.172 35.084, 117.166 29.226, 121.586 25.058 C 124.266 22.530, 124.759 21.483, 124.104 19.707 C 123.003 16.720, 121.848 9, 122.503 9 C 122.792 9, 123.914 10.455, 124.995 12.232 L 126.961 15.465 126.352 9.982 C 125.847 5.447, 125.972 4.716, 127.071 5.750 C 127.802 6.438, 129.660 7, 131.200 7 C 134.425 7, 134.485 7.162, 132.594 10.818 C 129.722 16.372, 131.965 19.882, 139.414 21.491 C 141.016 21.837, 144.166 24.055, 146.414 26.420 C 148.661 28.784, 152.164 31.704, 154.198 32.909 C 159.519 36.060, 173.378 39.660, 187.250 41.494 C 192.314 42.164, 193.413 43.397, 189.789 44.345 L 187.579 44.923 189.743 47.227 C 191.509 49.106, 191.971 51.001, 192.252 57.515 C 192.442 61.907, 192.688 50.763, 192.799 32.750 L 193 0 96.500 0 L 0 0 0.045 33.250 M 0.448 33.500 C 0.447 51.650, 0.582 59.216, 0.748 50.314 C 0.913 41.411, 0.914 26.561, 0.749 17.314 C 0.583 8.066, 0.448 15.350, 0.448 33.500 M 140.511 49.983 C 140.179 50.520, 140.326 51.755, 140.838 52.729 C 141.349 53.703, 142.078 56.525, 142.457 59 C 143.318 64.628, 145.526 69.604, 147.495 70.360 C 149.360 71.076, 149.440 74.016, 147.660 76.450 C 146.809 77.614, 146.483 79.976, 146.767 82.930 C 147.099 86.383, 146.801 87.920, 145.607 88.911 C 144.723 89.645, 144 90.585, 144 91.001 C 144 91.948, 148.034 93.486, 154.401 94.966 C 160.608 96.408, 164.358 98.317, 169.941 102.875 C 172.384 104.869, 178.234 108.540, 182.941 111.034 L 191.500 115.569 192.093 128.034 C 192.422 134.941, 192.645 125.072, 192.593 105.903 C 192.518 77.910, 192.234 70.985, 191.107 69.629 C 190.342 68.706, 189.516 68.151, 189.272 68.395 C 189.028 68.638, 187.800 67.943, 186.542 66.850 C 183.857 64.515, 173.085 59.009, 171.191 59.004 C 170.471 59.002, 170.160 59.450, 170.500 60 C 171.267 61.242, 170.498 61.274, 168.236 60.094 C 165.149 58.484, 154.611 54.255, 150.500 52.976 C 148.300 52.292, 145.288 51.119, 143.807 50.370 C 142.133 49.523, 140.885 49.377, 140.511 49.983 M 46.820 57.322 C 43.147 59.620, 39.068 62.513, 37.756 63.750 C 36.444 64.987, 34.907 66, 34.341 66 C 33.774 66, 32.486 66.911, 31.479 68.024 C 30.309 69.316, 29.408 69.660, 28.984 68.975 C 28.588 68.334, 26.848 69.533, 24.663 71.951 C 20.698 76.340, 19.329 77.123, 20.965 74.066 C 23.044 70.181, 21.883 70.684, 16.500 76 C 13.475 78.987, 11 80.835, 11 80.105 C 11 79.353, 10.148 79.802, 9.033 81.139 C 7.110 83.448, 6.456 82.862, 6.925 79.250 C 7.140 77.598, 6.429 77.673, 3.465 79.615 L 1 81.230 1 110.615 C 1 139.647, 1.449 143.497, 4.147 137.578 C 4.754 136.245, 11.116 130.733, 18.286 125.328 C 33.061 114.188, 37.034 110.502, 45.456 100.118 C 51.031 93.243, 51.294 92.688, 49.574 91.431 C 48.083 90.340, 47.828 89.144, 48.219 85.077 C 48.518 81.965, 48.283 79.865, 47.600 79.533 C 46.843 79.166, 46.890 78.818, 47.750 78.417 C 49.611 77.548, 49.370 73.644, 47.500 74.362 C 46.675 74.678, 46 74.487, 46 73.937 C 46 73.387, 46.664 72.682, 47.475 72.371 C 49.559 71.572, 52.134 66.215, 52.702 61.500 C 52.967 59.300, 53.828 56.487, 54.615 55.250 C 56.760 51.878, 54.610 52.449, 46.820 57.322 M 144.015 72.250 C 144.024 72.938, 144.417 74.111, 144.890 74.857 C 145.989 76.591, 147.436 74.579, 146.620 72.452 C 145.938 70.675, 143.994 70.524, 144.015 72.250" stroke="none" fill="black" fill-rule="evenodd"/>
</svg>