<svg xmlns="http://www.w3.org/2000/svg" width="192" height="144" viewBox="0 0 192 144" version="1.1">
	<path d="M 98.165 2.991 C 95.140 7.082, 94.545 10.975, 96.301 15.179 C 97.704 18.535, 97.632 19.050, 94.918 25.109 C 93.344 28.624, 92.043 32.063, 92.028 32.750 C 91.942 36.588, 83.815 31.385, 82.651 26.747 C 81.956 23.977, 78.441 22.159, 76.851 23.749 C 76.266 24.334, 76.256 25.613, 76.824 27.098 C 80.110 35.677, 80.379 39.747, 77.858 42.713 C 77.022 43.696, 75.562 46.606, 74.613 49.181 C 72.893 53.847, 72.896 53.874, 75.438 57.902 C 77.008 60.389, 78.518 61.739, 79.365 61.413 C 81.063 60.762, 82.501 64.072, 80.939 65.038 C 80.192 65.499, 81.025 67.325, 83.405 70.444 C 87.848 76.264, 88.185 80.803, 84.500 85.183 C 83.125 86.817, 81.747 89.357, 81.439 90.827 C 81.130 92.297, 80.148 95.075, 79.256 97 C 78.308 99.047, 77.582 103.406, 77.508 107.500 C 77.414 112.712, 77.031 114.500, 76.007 114.500 C 74.963 114.500, 74.691 113.031, 74.880 108.403 C 75.097 103.079, 74.796 101.911, 72.497 99.179 C 71.050 97.459, 69.948 95.252, 70.048 94.276 C 70.148 93.299, 70.178 91.938, 70.115 91.250 C 69.952 89.481, 65.332 89.692, 64.638 91.500 C 64.241 92.537, 62.622 93, 59.399 93 C 51.011 93, 44.027 99.618, 43.974 107.618 C 43.951 111.140, 43.590 111.665, 40.092 113.276 C 30.130 117.864, 26.050 133.152, 32.683 141.035 L 35.178 144 48.229 144 C 62.618 144, 62.059 144.227, 66.023 136.790 C 67.110 134.749, 68 131.612, 68 129.817 L 68 126.555 69.600 128.839 C 71.068 130.936, 71.065 131.271, 69.560 132.934 C 68.579 134.017, 68.013 136.119, 68.150 138.161 C 68.277 140.039, 68.043 142.121, 67.631 142.788 C 67.167 143.539, 67.474 144, 68.441 144 C 69.298 144, 70 143.325, 70 142.500 C 70 141.675, 70.473 141, 71.051 141 C 72.650 141, 75.110 134.287, 74.460 131.698 C 73.744 128.845, 77.393 124.993, 79.149 126.749 C 80.843 128.443, 79.322 134.256, 75.977 138.873 C 74.340 141.133, 73 143.212, 73 143.491 C 73 143.771, 83.967 144, 97.370 144 L 121.740 144 123.106 139.250 C 125.072 132.410, 124.575 127.860, 120.546 115.832 L 116.972 105.164 118.432 93.832 C 119.355 86.670, 119.791 76.160, 119.617 65.269 C 119.408 52.189, 119.623 48.272, 120.513 49.010 C 123.359 51.373, 123.811 46.092, 121.444 38.122 C 120.553 35.122, 118.365 31.195, 116.327 28.940 C 113.398 25.698, 112.109 25, 109.049 25 L 105.331 25 105.730 16.750 C 105.950 12.212, 106.663 7.414, 107.315 6.086 C 108.243 4.195, 108.229 3.582, 107.250 3.253 C 106.563 3.022, 106 2.196, 106 1.417 C 106 -1.331, 100.550 -0.236, 98.165 2.991 M 70 136 C 70 138.384, 71.536 138.653, 72.393 136.418 C 73.251 134.183, 73.183 134, 71.500 134 C 70.667 134, 70 134.889, 70 136" stroke="none" fill="black" fill-rule="evenodd"/>
</svg>