<svg xmlns="http://www.w3.org/2000/svg" width="192" height="144" viewBox="0 0 192 144" version="1.1">
	<path d="M 0 72 L 0 144 32 144 C 53.355 144, 64 143.656, 64 142.967 C 64 142.398, 65.531 140.402, 67.403 138.531 C 69.601 136.333, 71.909 132.184, 73.922 126.814 C 75.636 122.241, 77.968 116.497, 79.104 114.049 C 81.025 109.909, 81.052 109.511, 79.488 108.368 C 78.564 107.692, 74.926 106.830, 71.404 106.453 C 67.882 106.076, 65 105.369, 65 104.884 C 65 104.398, 65.498 104, 66.107 104 C 66.716 104, 66.955 103.325, 66.638 102.500 C 65.999 100.834, 67.526 100.424, 68.500 102 C 69.521 103.651, 72.816 103.137, 76.510 100.750 C 80.122 98.415, 80.562 97.665, 81.475 92.272 C 81.965 89.372, 81.740 88.984, 79.260 88.461 C 77.742 88.141, 75.766 87.486, 74.870 87.006 C 73.781 86.423, 71.859 86.815, 69.084 88.189 C 65.094 90.162, 64.849 90.174, 62.964 88.467 C 60.457 86.199, 60.491 85.758, 63.450 82.242 C 64.951 80.458, 65.701 78.571, 65.386 77.368 C 64.881 75.437, 66.080 74.469, 71.500 72.428 C 72.600 72.014, 76.754 71.622, 80.731 71.557 C 88.982 71.422, 90.994 70.285, 89.203 66.770 C 86.436 61.343, 85.124 55.042, 85.231 47.693 C 85.322 41.346, 85.672 39.711, 87.099 38.947 C 88.065 38.430, 89.505 38.256, 90.299 38.561 C 91.092 38.866, 92.011 38.415, 92.339 37.559 C 92.940 35.993, 95.432 35.891, 97.750 37.338 C 98.454 37.777, 99 37.656, 99 37.059 C 99 35.473, 101.575 35.783, 103.038 37.546 C 103.743 38.396, 104.947 38.851, 105.713 38.557 C 107.679 37.802, 112 40.877, 112 43.032 C 112 44.023, 112.461 44.987, 113.025 45.175 C 113.588 45.363, 114.413 49.563, 114.858 54.508 C 115.639 63.194, 115.585 63.577, 113.282 65.750 C 111.970 66.987, 110.320 68, 109.615 68 C 108.910 68, 108.037 68.296, 107.675 68.658 C 106.662 69.672, 109.024 72, 111.066 72 C 116.031 72, 117.983 83.789, 113.686 87.826 C 112.413 89.022, 110.856 90, 110.226 90 C 109.154 90, 105 101.580, 105 104.567 C 105 105.327, 106.868 106.396, 109.250 106.999 C 115.695 108.631, 121 111.154, 121 112.587 C 121 115.030, 118.926 119.305, 115.867 123.168 C 113.732 125.863, 113.090 127.422, 113.763 128.274 C 116.326 131.516, 120 139.337, 120 141.548 L 120 144.025 156.250 143.762 L 192.500 143.500 192.757 71.750 L 193.013 0 96.507 0 L 0 0 0 72 M 0.474 72.500 C 0.474 112.100, 0.598 128.154, 0.750 108.176 C 0.901 88.198, 0.901 55.798, 0.750 36.176 C 0.598 16.554, 0.474 32.900, 0.474 72.500 M 91.530 66.951 C 90.667 68.348, 91.767 70, 93.559 70 C 95.395 70, 95.410 68.585, 93.589 67.074 C 92.624 66.273, 91.973 66.235, 91.530 66.951" stroke="none" fill="black" fill-rule="evenodd"/>
</svg>