<svg xmlns="http://www.w3.org/2000/svg" width="192" height="144" viewBox="0 0 192 144" version="1.1">
	<path d="M 53.191 29.500 C 52.849 30.050, 52.410 32.591, 52.217 35.146 C 51.930 38.945, 52.242 40.056, 53.927 41.236 C 55.060 42.030, 55.704 42.962, 55.358 43.308 C 55.012 43.654, 55.507 45.125, 56.458 46.576 C 57.708 48.484, 57.884 49.516, 57.093 50.307 C 56.492 50.908, 56 51.940, 56 52.600 C 56 53.259, 54.425 56.139, 52.500 59 C 48.390 65.107, 48.299 65.839, 51.189 69.513 C 53.345 72.254, 53.351 72.365, 51.622 76.898 C 49.530 82.380, 48.009 87.570, 47.490 91 C 47.282 92.375, 46.441 97.550, 45.621 102.500 C 42.456 121.620, 41.095 130.748, 40.444 137.250 L 39.767 144 59.884 144 C 75.313 144, 79.999 143.709, 79.995 142.750 C 79.977 138.637, 75.601 112.219, 73.825 105.500 C 69.829 90.385, 69.473 89.275, 68.081 87.598 C 66.871 86.140, 66.951 85.556, 68.679 83.208 C 70.423 80.837, 70.651 79.068, 70.510 69 C 70.421 62.675, 70.018 56.347, 69.613 54.938 C 69.011 52.842, 69.302 52.183, 71.215 51.312 C 72.500 50.726, 74.428 48.621, 75.498 46.634 C 77.356 43.184, 77.366 42.889, 75.722 40.106 C 74.775 38.503, 73.998 36.586, 73.995 35.846 C 73.993 35.106, 72.593 33.008, 70.884 31.185 C 67.866 27.964, 67.579 27.879, 60.796 28.185 C 56.956 28.358, 53.534 28.950, 53.191 29.500 M 125.067 56.369 C 120.609 58.011, 119.099 60.328, 120.757 62.983 C 122.751 66.175, 122.248 67.635, 118 71 C 115.044 73.341, 114 74.897, 114 76.962 C 114 80.864, 116.147 82.269, 121.463 81.846 C 124.695 81.589, 126.128 81.891, 126.519 82.911 C 127.817 86.293, 123.124 86.429, 108.339 83.438 C 105.669 82.898, 104.913 83.203, 103.474 85.400 C 101.909 87.788, 101.899 88.198, 103.358 90.424 C 105.745 94.067, 108.413 94.435, 114.414 91.947 C 118.597 90.213, 120.749 89.885, 124.375 90.429 C 127.172 90.848, 129 91.641, 129 92.434 C 129 93.156, 129.881 95.738, 130.959 98.173 C 133.418 103.733, 133.454 103.563, 124.970 125.846 C 123.145 130.638, 122.166 134.566, 122.670 135.070 C 123.153 135.553, 125.337 136.565, 127.524 137.318 C 130.648 138.395, 131.568 139.258, 131.816 141.344 C 132.121 143.905, 132.360 144, 138.441 144 C 144.628 144, 144.761 143.943, 145.340 141.048 C 145.825 138.625, 146.654 137.901, 149.965 137.009 C 154.219 135.864, 154.859 134.475, 152.857 130.733 C 151.345 127.907, 147.402 110.168, 146.489 102.084 C 146.091 98.555, 145.399 94.392, 144.952 92.834 C 143.977 89.432, 144.169 89.413, 152.331 92.092 L 158.705 94.184 163.414 92.039 C 167.487 90.184, 168.081 89.539, 167.811 87.263 C 167.384 83.648, 163.749 82.863, 154.707 84.433 C 150.703 85.128, 146.319 85.615, 144.964 85.514 C 142.705 85.346, 142.510 84.942, 142.615 80.654 C 142.720 76.376, 143.082 75.723, 146.865 72.983 C 149.258 71.250, 151 69.171, 151 68.050 C 151 65.142, 147.141 63, 141.900 63 C 136.897 63, 135.390 61.932, 134.846 58 C 134.572 56.022, 133.874 55.459, 131.500 55.303 C 129.850 55.194, 126.955 55.674, 125.067 56.369" stroke="none" fill="black" fill-rule="evenodd"/>
</svg>