<svg xmlns="http://www.w3.org/2000/svg" width="192" height="144" viewBox="0 0 192 144" version="1.1">
	<path d="M 0.021 28.250 L 0.042 56.500 3.135 50.500 C 4.836 47.200, 6.547 44.275, 6.937 44 C 7.327 43.725, 7.898 42.811, 8.207 41.970 C 8.516 41.128, 10.361 39.582, 12.308 38.534 C 16.525 36.263, 17.962 37.045, 21.189 43.370 C 22.313 45.573, 23.763 47.906, 24.412 48.555 C 25.062 49.205, 27.592 52.833, 30.034 56.618 C 32.477 60.403, 34.973 64.024, 35.581 64.665 C 36.189 65.305, 37.243 67.172, 37.923 68.813 C 39.299 72.136, 43.624 73.449, 47.897 71.840 C 49.798 71.125, 50.710 71.385, 52.307 73.099 C 56.123 77.195, 82.750 88.023, 84.007 85.989 C 84.434 85.298, 86.408 85.135, 89.408 85.542 C 95.663 86.390, 99 85.499, 99 82.981 C 99 81.891, 98.352 81, 97.559 81 C 94.389 81, 95.279 79.130, 99.520 76.880 L 104 74.503 104 68.391 L 104 62.278 99.462 59.889 C 93.493 56.747, 91.330 52.982, 91.626 46.249 C 91.851 41.146, 91.789 41.015, 89.429 41.607 C 86.703 42.291, 86.492 41.817, 88.147 38.726 C 89.773 35.688, 92.895 33.364, 97.319 31.899 C 100.515 30.841, 101.031 30.298, 100.482 28.567 C 100.121 27.430, 99.512 24.925, 99.128 23 L 98.431 19.500 92.164 19.830 C 86.693 20.118, 85.471 19.834, 82.534 17.594 C 80.684 16.183, 77.836 12.358, 76.205 9.094 C 73.928 4.538, 72.964 3.432, 72.053 4.330 C 71.143 5.226, 70.394 4.857, 68.850 2.750 L 66.833 0 33.417 0 L 0 0 0.021 28.250 M 78.441 1.532 C 79.509 2.339, 81.084 2.986, 81.941 2.968 C 83.187 2.943, 83.111 2.642, 81.559 1.468 C 80.491 0.661, 78.916 0.014, 78.059 0.032 C 76.813 0.057, 76.889 0.358, 78.441 1.532 M 78.004 6.800 C 78.002 6.964, 78.659 8.373, 79.464 9.931 C 81.731 14.315, 86.704 18.002, 90.327 17.985 C 96.027 17.957, 96.429 16.840, 92.687 11.417 C 89.302 6.509, 89.285 6.500, 83.651 6.500 C 80.547 6.500, 78.006 6.635, 78.004 6.800 M 101.052 24.183 C 102.386 28.833, 103.357 29.314, 105.914 26.591 L 108.202 24.156 105.151 22.578 C 100.673 20.263, 100.003 20.525, 101.052 24.183 M 95.370 34.440 C 92.379 35.742, 89.989 38.034, 91.691 37.969 C 92.136 37.952, 94.300 36.829, 96.500 35.474 C 100.864 32.786, 100.318 32.287, 95.370 34.440 M 98.540 36.347 C 97.213 37.318, 97.032 37.901, 97.892 38.433 C 99.132 39.200, 102 37.416, 102 35.878 C 102 34.614, 100.661 34.796, 98.540 36.347 M 147.643 53.750 C 149.759 62.290, 149.102 61.857, 158.809 61.102 C 160.713 60.954, 159.463 59.413, 153.823 54.954 C 147.908 50.279, 146.726 50.048, 147.643 53.750 M 150.386 66.750 C 150.695 68.813, 151.453 75, 152.070 80.500 C 152.688 86, 153.349 90.753, 153.539 91.062 C 153.730 91.371, 154.597 96.096, 155.467 101.562 C 157.548 114.634, 159.251 121.364, 163.620 133.779 L 167.238 144.058 179.869 143.779 L 192.500 143.500 192.817 127.500 C 192.991 118.700, 192.830 105.494, 192.459 98.154 L 191.785 84.808 189.142 85.326 C 184.715 86.195, 177.088 84.016, 173.486 80.854 C 170.684 78.393, 166.117 69.732, 166.708 68 C 166.802 67.725, 165.928 66.487, 164.765 65.250 C 162.999 63.370, 161.596 63, 156.238 63 L 149.824 63 150.386 66.750 M 168.734 69.151 C 171.038 78.195, 180.481 85.070, 188.525 83.561 C 195.640 82.227, 191.577 75.353, 180.878 70.624 C 177.787 69.257, 173.655 67.838, 171.696 67.471 C 168.333 66.840, 168.169 66.933, 168.734 69.151 M 49.473 88.344 C 48.388 89.083, 45.929 90.222, 44.010 90.875 C 40.971 91.910, 40.349 91.833, 39.199 90.282 C 37.738 88.311, 38.484 87.624, 20.675 107.338 C 16.371 112.102, 12.278 116, 11.580 116 C 9.873 116, 7.649 113.382, 4.993 108.245 C 3.783 105.905, 2.389 103.741, 1.896 103.436 C 1.379 103.116, 1 111.573, 1 123.441 L 1 144 49.481 144 L 97.962 144 98.537 141.250 C 98.854 139.738, 99.762 135.708, 100.556 132.294 C 102.414 124.311, 102.377 121.558, 100.392 119.910 C 99.024 118.775, 98.570 118.868, 97.353 120.538 C 89.831 130.858, 86.840 134, 84.536 134 C 79.832 134, 79.642 130.864, 83.942 124.212 C 86.081 120.902, 88.533 117.801, 89.391 117.321 C 90.609 116.639, 99 102.006, 99 100.563 C 99 99.557, 94.927 99.504, 91.077 100.460 C 84.773 102.025, 75.928 99.495, 63.500 92.571 C 58 89.507, 53.038 87, 52.473 87 C 51.907 87, 50.557 87.605, 49.473 88.344" stroke="none" fill="black" fill-rule="evenodd"/>
</svg>