<svg xmlns="http://www.w3.org/2000/svg" width="192" height="144" viewBox="0 0 192 144" version="1.1">
	<path d="M 0 72 L 0 144 15.560 144 L 31.121 144 30.810 140.250 C 30.513 136.653, 30.336 136.487, 26.500 136.193 C 24.045 136.005, 21.921 135.153, 21 133.986 C 19.983 132.699, 17.969 131.992, 14.751 131.793 C 10.020 131.501, 10.002 131.486, 10.001 127.904 C 10 123.833, 11.291 120.904, 18.150 109.412 C 25.375 97.309, 31.020 84.626, 31.686 79.003 C 32.070 75.757, 31.904 74, 31.213 74 C 30.626 74, 29.941 74.787, 29.689 75.750 C 29.438 76.712, 29.145 75.700, 29.038 73.500 C 28.850 69.634, 28.750 69.769, 26.065 77.500 C 24.018 83.391, 23.519 86.130, 24.171 87.889 C 25.160 90.559, 24.657 91.468, 22.179 91.487 C 21.027 91.496, 20.145 92.912, 19.370 96 L 18.240 100.500 17.120 97.685 C 15.644 93.976, 15.749 91.916, 17.532 89.559 C 19.501 86.955, 19.549 84.299, 17.597 85.919 C 16.520 86.813, 16.069 86.784, 15.655 85.792 C 15.250 84.822, 14.850 84.919, 14.046 86.183 C 13.457 87.108, 11.650 88.527, 10.030 89.335 C 5.437 91.627, 4.439 89.605, 4.783 78.703 C 5.056 70.022, 5.240 69.397, 10.441 59.480 C 14.631 51.492, 15.725 48.488, 15.401 45.865 C 15.172 44.014, 14.793 39.819, 14.559 36.542 C 14.148 30.789, 14.037 30.583, 11.317 30.542 C 8.373 30.498, 8.447 30.737, 9.250 23.857 C 9.438 22.245, 8.712 21.440, 6.322 20.607 C 1.763 19.019, 0.832 17.607, 5 18.602 C 8.377 19.409, 11.127 19.453, 17.500 18.805 C 19.971 18.554, 20.490 18.861, 20.442 20.550 C 20.389 22.424, 20.861 22.565, 25.945 22.198 C 31.849 21.771, 34.140 23.065, 35.330 27.500 C 35.625 28.600, 35.794 27.790, 35.704 25.701 C 35.615 23.611, 36.065 21.578, 36.706 21.182 C 37.346 20.786, 38.187 18.071, 38.575 15.148 C 39.036 11.672, 39.572 10.295, 40.125 11.167 C 40.738 12.134, 40.974 11.914, 40.985 10.364 C 40.993 9.190, 41.672 6.940, 42.494 5.364 C 45.347 -0.107, 45.757 0, 22 0 L 0 0 0 72 M 49.394 8.250 C 49.702 12.787, 50.232 17.903, 50.571 19.618 C 50.964 21.604, 50.610 23.854, 49.594 25.818 C 48.717 27.514, 48 31.169, 48 33.942 C 48 37.900, 47.570 39.251, 46 40.232 C 44.900 40.919, 44 42.048, 44 42.741 C 44 43.433, 43.547 44, 42.992 44 C 41.658 44, 46.554 49.645, 51.560 53.878 C 52.738 54.874, 53.009 56.120, 52.538 58.378 C 50.408 68.588, 51.123 74.149, 56.929 92.500 C 62.888 111.336, 64.269 116.438, 64.881 121.885 C 65.736 129.491, 65.267 131.781, 62.687 132.596 C 61.484 132.976, 59.912 134.122, 59.193 135.143 C 58.193 136.565, 56.610 137, 52.443 137 L 47 137 47 140.500 L 47 144 84.115 144 L 121.230 144 119.459 141.250 C 118.484 139.738, 116.633 137.426, 115.344 136.114 C 114.055 134.801, 113 133.370, 113 132.933 C 113 132.496, 111.992 131.995, 110.760 131.820 C 109.461 131.634, 108.365 130.660, 108.151 129.500 C 107.948 128.400, 105.468 124.944, 102.641 121.821 C 85.928 103.358, 81.254 97.034, 78.753 89.500 C 76.118 81.562, 74.706 72.456, 75.467 68.316 C 75.853 66.217, 76.507 58.875, 76.920 52 C 77.332 45.125, 78.155 38.150, 78.749 36.500 C 79.342 34.850, 79.867 33.893, 79.914 34.374 C 80.046 35.715, 88 26.933, 88 25.446 C 88 24.727, 89.013 23.995, 90.250 23.820 C 91.803 23.599, 92.862 22.416, 93.668 20 C 94.310 18.075, 95.362 16.625, 96.004 16.779 C 96.647 16.932, 97.411 16.144, 97.703 15.029 C 97.995 13.913, 98.618 13, 99.089 13 C 99.796 13, 106 1.687, 106 0.397 C 106 0.179, 93.137 -0, 77.417 -0 L 48.833 -0 49.394 8.250 M 37.880 33.749 C 38.590 35.018, 38.415 35.989, 37.242 37.285 C 35.747 38.938, 35.782 39.226, 37.713 41.157 C 39.728 43.173, 39.833 43.180, 40.794 41.372 C 41.883 39.324, 39.577 32, 37.843 32 C 37.267 32, 37.281 32.680, 37.880 33.749 M 37.343 140.676 C 36.985 141.679, 36.509 142.838, 36.287 143.250 C 36.064 143.662, 37.290 144, 39.011 144 C 41.679 144, 42.092 143.671, 41.820 141.760 C 41.421 138.964, 38.230 138.191, 37.343 140.676" stroke="none" fill="black" fill-rule="evenodd"/>
</svg>