<svg xmlns="http://www.w3.org/2000/svg" width="192" height="144" viewBox="0 0 192 144" version="1.1">
	<path d="M -0 72.005 L -0 144.010 96.250 143.755 L 192.500 143.500 192.757 71.750 L 193.013 0 96.507 0 L 0 0 -0 72.005 M 0.474 72.500 C 0.474 112.100, 0.598 128.154, 0.750 108.176 C 0.901 88.198, 0.901 55.798, 0.750 36.176 C 0.598 16.554, 0.474 32.900, 0.474 72.500 M 68.331 51.250 C 67.828 51.938, 66.788 53.755, 66.019 55.288 C 64.817 57.686, 64.194 57.992, 61.561 57.477 C 59.259 57.027, 58.872 57.138, 60 57.924 C 60.825 58.499, 62.261 58.976, 63.191 58.985 C 65.827 59.009, 66.318 60.810, 64.647 64.331 C 63.292 67.186, 62.380 67.715, 56.807 68.876 C 47.447 70.826, 43.919 72.048, 43.347 73.538 C 43.065 74.272, 42.197 74.629, 41.417 74.330 C 38.619 73.256, 40.085 76.291, 44.679 81.085 C 47.253 83.771, 52.159 87.419, 55.581 89.194 L 61.802 92.419 71.651 91.200 C 77.068 90.529, 83.750 89.980, 86.500 89.979 C 91.598 89.978, 105.907 86.915, 118.500 83.130 C 127.511 80.421, 138.420 74.927, 143.492 70.544 L 147.484 67.094 143.992 63.459 C 142.071 61.459, 138.860 58.513, 136.856 56.912 L 133.212 54 123.356 55.024 C 117.935 55.588, 107.403 57.298, 99.951 58.824 L 86.401 61.600 86.821 55.800 C 87.194 50.647, 87.032 50.002, 85.370 50.015 C 82.697 50.037, 80.494 51.570, 81.893 52.434 C 83.482 53.416, 83.260 60.540, 81.597 61.920 C 80.825 62.560, 78.847 63.470, 77.202 63.942 C 74.455 64.730, 74.165 64.573, 73.656 62.032 C 73.352 60.509, 73.449 57.968, 73.872 56.385 C 74.496 54.052, 74.220 53.174, 72.413 51.753 C 69.757 49.664, 69.513 49.634, 68.331 51.250 M 51 58.861 C 51 59.335, 52.125 59.508, 53.500 59.245 C 54.875 58.982, 56 58.594, 56 58.383 C 56 58.173, 54.875 58, 53.500 58 C 52.125 58, 51 58.388, 51 58.861" stroke="none" fill="black" fill-rule="evenodd"/>
</svg>