<svg xmlns="http://www.w3.org/2000/svg" width="192" height="144" viewBox="0 0 192 144" version="1.1">
	<path d="M 114.694 16.997 C 113.151 19.744, 110.339 24.023, 108.444 26.505 C 104.731 31.369, 104.058 33.575, 106.584 32.606 C 107.587 32.221, 108.017 32.457, 107.758 33.249 C 107.533 33.937, 104.896 35.400, 101.897 36.500 C 95.595 38.811, 94.802 41.658, 100.312 42.191 C 102.889 42.441, 103.695 43.105, 104.519 45.653 C 105.080 47.387, 106.494 49.637, 107.663 50.653 C 109.530 52.276, 109.726 53.259, 109.274 58.750 C 108.921 63.043, 108.341 65, 107.423 65 C 106.688 65, 99.893 63.413, 92.324 61.473 C 82.566 58.972, 76.515 57.968, 71.530 58.024 C 67.664 58.068, 63.491 58.085, 62.257 58.063 C 61.024 58.042, 57.649 58.959, 54.757 60.101 C 51.866 61.244, 47.700 62.487, 45.500 62.864 C 42.396 63.395, 41.429 64.043, 41.182 65.760 C 40.837 68.162, 39.480 68.091, 59.500 66.707 L 62.500 66.500 63.222 76 C 64.318 90.432, 63.674 89.609, 70.220 84.953 C 73.367 82.715, 77.576 80.618, 79.575 80.294 C 83.607 79.640, 102.815 81.891, 103.565 83.106 C 103.827 83.530, 102.516 87.617, 100.651 92.188 C 95.560 104.669, 95.483 105.931, 99.568 109.925 C 103.803 114.066, 103.872 116.496, 99.912 121.962 C 97.688 125.033, 97.129 126.529, 97.912 127.312 C 98.511 127.911, 99 129.435, 99 130.700 C 99 131.965, 99.450 133, 100 133 C 100.550 133, 101 135.475, 101 138.500 L 101 144 121.299 144 L 141.598 144 141.188 140.486 C 140.963 138.554, 141.230 136.416, 141.783 135.736 C 142.336 135.056, 144.018 130, 145.520 124.500 C 147.626 116.789, 148.280 112.059, 148.376 103.833 C 148.444 97.967, 148.834 92.833, 149.241 92.425 C 149.649 92.018, 149.528 91.136, 148.971 90.466 C 147.432 88.611, 147.388 79.610, 148.864 68.500 C 149.595 63, 150.401 58.163, 150.655 57.750 C 150.910 57.337, 151.991 57, 153.059 57 C 155.546 57, 155.525 55.785, 153 53.500 C 150.570 51.301, 150.487 48.911, 152.643 43.264 C 154.182 39.235, 154.175 38.714, 152.528 35.061 C 150.069 29.610, 143.681 23.481, 137.089 20.250 C 132.679 18.089, 130.074 17.510, 124.740 17.505 C 119.141 17.501, 118.081 17.243, 118.565 16 C 119.551 13.464, 119.539 12.764, 118.500 12.376 C 117.950 12.170, 116.238 14.250, 114.694 16.997" stroke="none" fill="black" fill-rule="evenodd"/>
</svg>