<svg xmlns="http://www.w3.org/2000/svg" width="192" height="144" viewBox="0 0 192 144" version="1.1">
	<path d="M 0 57 C 0 109.088, 0.141 114, 1.635 114 C 2.534 114, 6.134 113.472, 9.635 112.827 C 16.291 111.601, 17.481 110.234, 13.947 107.872 C 11.976 106.555, 11.960 106.367, 13.550 103.190 C 15.489 99.315, 16.669 92, 15.355 92 C 14.856 92, 14.619 90.200, 14.829 88 C 15.122 84.919, 14.861 84, 13.688 84 C 11.194 84, 11.288 82.111, 14.067 76.362 C 16.172 72.006, 16.603 69.920, 16.219 65.931 C 15.448 57.900, 19.778 54.678, 25.401 59.100 C 27.329 60.618, 27.894 61.759, 27.434 63.209 C 26.155 67.237, 28.011 75.356, 31.022 78.909 C 33.406 81.722, 34.170 82.104, 35.391 81.090 C 36.594 80.092, 38.305 80.552, 44.540 83.551 C 48.758 85.580, 55.874 88.723, 60.354 90.535 C 67.448 93.404, 68.704 93.647, 70.079 92.415 C 72.217 90.499, 72.908 90.636, 72.326 92.862 C 71.979 94.188, 72.511 94.904, 74.169 95.349 C 78.104 96.402, 78.199 96.139, 75.478 91.750 C 74.029 89.412, 71.999 85.682, 70.968 83.459 C 69.133 79.507, 69.133 79.259, 70.974 72.103 C 72.009 68.079, 72.645 64.237, 72.387 63.566 C 71.448 61.120, 74.094 56.847, 80.175 50.989 C 83.594 47.695, 86.823 45, 87.350 45 C 87.878 45, 87.480 44.083, 86.466 42.962 C 84.812 41.135, 84.528 41.092, 83.714 42.546 C 82.906 43.990, 82.544 43.921, 80.403 41.909 C 74.944 36.781, 79.938 19.007, 88.483 13.152 C 94.335 9.142, 98.693 9.493, 108.101 14.733 C 108.619 15.021, 115 1.848, 115 0.491 C 115 0.221, 89.125 0, 57.500 0 L 0 0 0 57 M 117.461 3.646 C 117.838 5.652, 118.874 8.405, 119.765 9.765 C 121.332 12.156, 121.281 12.323, 118.184 14.869 C 115.228 17.298, 114.982 17.961, 114.988 23.500 C 114.993 28.329, 114.337 30.804, 111.628 36.181 C 109.124 41.153, 107.973 42.573, 107.131 41.731 C 106.290 40.890, 106 40.934, 106 41.907 C 106 42.626, 105.380 42.976, 104.622 42.685 C 103.864 42.394, 102.766 42.634, 102.182 43.218 C 101.081 44.319, 102.115 45.229, 112.342 52.170 C 117.519 55.684, 120 59.338, 120 63.450 C 120 64.853, 120.112 66.016, 120.250 66.035 C 120.388 66.054, 124.100 66.720, 128.500 67.515 C 132.900 68.310, 137.980 68.970, 139.790 68.980 C 141.599 68.991, 144.763 69.859, 146.820 70.908 L 150.561 72.817 160.531 66.826 C 166.014 63.531, 173.608 58.772, 177.406 56.250 C 183.959 51.898, 184.443 51.738, 186.906 53.116 C 191.695 55.795, 190.528 62.573, 184.342 68.005 C 179.997 71.819, 178.251 71.860, 180.940 68.084 C 183.622 64.318, 184.771 59, 182.904 59 C 182.164 59, 175.132 62.846, 167.279 67.547 C 157.019 73.689, 153 76.623, 153 77.971 C 153 80.383, 148.293 86, 146.271 86 C 145.418 86, 144.190 86.725, 143.543 87.611 C 142.459 89.092, 142.235 89.092, 140.754 87.611 C 138.584 85.441, 137.281 85.656, 132 89.050 C 129.525 90.640, 123.524 94.004, 118.664 96.524 C 112.071 99.943, 109.977 101.498, 110.418 102.646 C 110.743 103.493, 111.283 105.281, 111.619 106.619 C 111.955 107.958, 113.191 109.577, 114.365 110.217 C 115.539 110.858, 126.242 114.559, 138.149 118.441 C 150.055 122.323, 159.955 125.950, 160.149 126.500 C 160.695 128.056, 154.080 128.313, 148 126.971 C 144.975 126.304, 136.674 123.787, 129.554 121.379 C 122.434 118.971, 116.194 117, 115.689 117 C 115.183 117, 115.583 118.237, 116.576 119.750 C 119.623 124.388, 128 141.178, 128 142.645 C 128 143.799, 133.335 143.984, 160.250 143.764 L 192.500 143.500 192.482 130.750 C 192.472 123.737, 192.360 91.450, 192.232 59 L 192 0 154.389 -0 L 116.777 -0 117.461 3.646 M 107.129 77.984 C 107.330 83.287, 107.024 86.376, 106.216 87.184 C 104.743 88.657, 104.612 92.642, 106.008 93.505 C 106.562 93.848, 110.950 92.126, 115.758 89.678 C 120.566 87.231, 126.399 84.440, 128.720 83.476 C 133.288 81.579, 136.764 78.431, 135.589 77.256 C 135.187 76.854, 130.917 76.246, 126.101 75.905 C 119.166 75.415, 116.405 74.736, 112.834 72.643 C 110.354 71.189, 107.987 70, 107.576 70 C 107.164 70, 106.963 73.593, 107.129 77.984 M 80.602 74.158 C 78.849 76.661, 78.461 80, 79.922 80 C 80.967 80, 83.467 73.134, 82.702 72.368 C 82.428 72.095, 81.483 72.900, 80.602 74.158 M 31.117 84.877 C 28.852 86.619, 28.761 87.124, 29.281 95.105 C 29.583 99.722, 30.162 104.579, 30.570 105.897 C 31.251 108.102, 31.096 108.241, 28.655 107.628 C 27.195 107.262, 26 107.384, 26 107.899 C 26 110.082, 27.328 112.002, 28.857 112.030 C 32.751 112.102, 26.918 113.916, 14.250 116.571 L 1 119.349 1 131.674 L 1 144 6.750 143.970 C 11.144 143.946, 12.087 143.699, 10.750 142.920 C 7.764 141.181, 8.748 140.220, 16.436 137.360 C 21.228 135.578, 24.040 133.956, 24.343 132.797 C 24.601 131.809, 25.291 131, 25.875 131 C 26.459 131, 26.650 131.749, 26.299 132.664 C 25.947 133.579, 26.074 134.083, 26.580 133.783 C 27.086 133.483, 29.750 132.236, 32.500 131.012 C 45.657 125.156, 69.673 113.525, 71.097 112.320 C 71.975 111.576, 73.256 109.089, 73.944 106.792 C 75.061 103.065, 75.003 102.475, 73.407 101.308 C 71.262 99.740, 70.325 99.666, 69.500 101 C 68.467 102.672, 67.158 102.122, 66.820 99.875 C 66.568 98.201, 63.745 96.551, 53.500 92.087 C 46.350 88.973, 38.968 85.654, 37.096 84.712 C 35.224 83.770, 33.649 83.010, 33.596 83.022 C 33.543 83.034, 32.428 83.869, 31.117 84.877 M 20.714 108.120 C 18.806 110.205, 19.197 112, 21.559 112 C 22.493 112, 23 110.945, 23 109 C 23 105.536, 23.057 105.558, 20.714 108.120 M 58.594 127.088 C 53.145 129.701, 44.370 133.515, 39.094 135.565 C 33.817 137.615, 28.150 139.861, 26.500 140.556 C 24.850 141.252, 22.150 142.280, 20.500 142.842 C 18.316 143.585, 23.723 143.813, 40.372 143.681 L 63.243 143.500 66.151 134.021 C 67.750 128.808, 68.933 124.046, 68.779 123.440 C 68.617 122.800, 64.345 124.329, 58.594 127.088 M 19.200 127.200 C 17.246 129.154, 17.826 131, 20.393 131 C 22.770 131, 24.521 128.652, 23.444 126.910 C 22.658 125.637, 20.623 125.777, 19.200 127.200" stroke="none" fill="black" fill-rule="evenodd"/>
</svg>