<svg xmlns="http://www.w3.org/2000/svg" width="192" height="144" viewBox="0 0 192 144" version="1.1">
	<path d="M 0 6 C 0 9.300, 0.388 12, 0.862 12 C 1.337 12, 3.474 10.605, 5.612 8.901 C 7.751 7.196, 11.157 4.952, 13.182 3.915 C 19.504 0.676, 18.792 -0, 9.059 -0 L 0 0 0 6 M 26.427 6.250 C 15.290 18.276, 7.674 32.306, 3.229 48.989 C 1.161 56.750, 0.684 60.892, 0.633 71.500 C 0.510 97.111, 9.136 119.312, 26.365 137.730 L 32.229 144 53.114 144 L 73.999 144 71.319 138.750 C 69.844 135.862, 68.175 132.600, 67.609 131.500 C 67.043 130.400, 66.399 124.636, 66.177 118.691 C 65.830 109.364, 66.081 107.044, 68.007 101.761 C 70.150 95.883, 74.936 88.052, 79.349 83.201 C 82.539 79.695, 91.106 74.309, 97.114 72.033 C 105.457 68.872, 115.046 61.216, 119.864 53.870 C 129.693 38.881, 130.734 21.685, 122.868 4.250 L 120.950 0 76.583 0 L 32.215 0 26.427 6.250 M 165.656 6.250 C 178.051 19.220, 186.213 35.078, 190.474 54.469 C 191.684 59.976, 191.808 57.874, 191.900 30.250 L 192 0 175.841 0 L 159.683 0 165.656 6.250 M 72.766 20.918 C 69.858 23.517, 69.520 24.365, 69.683 28.664 C 69.835 32.664, 70.391 33.960, 72.925 36.225 C 78.357 41.078, 83.999 40.823, 89.001 35.499 C 92.995 31.248, 90.698 19.961, 85.558 18.580 C 80.414 17.198, 76.032 17.999, 72.766 20.918 M 190.145 91.057 C 187.209 107.184, 178.403 124.359, 166.814 136.559 L 159.746 144 167.695 144 C 174.963 144, 175.980 143.745, 179.572 141.028 C 181.732 139.393, 183.950 138.025, 184.500 137.987 C 185.050 137.950, 186.971 136.660, 188.768 135.121 L 192.036 132.324 191.768 107.969 C 191.505 84.095, 191.473 83.761, 190.145 91.057 M 105.299 104.960 C 97.944 109.444, 97.026 118.886, 103.378 124.708 C 106.223 127.315, 107.827 128, 111.084 128 C 122.171 128, 127.587 119.354, 123.173 108.702 C 120.964 103.373, 111.240 101.337, 105.299 104.960" stroke="none" fill="black" fill-rule="evenodd"/>
</svg>