<svg xmlns="http://www.w3.org/2000/svg" width="192" height="144" viewBox="0 0 192 144" version="1.1">
	<path d="M 63.426 8.750 C 63.302 23.436, 58.088 35.981, 48.321 45.089 C 42.992 50.060, 34.136 55.458, 29.500 56.561 C 27.850 56.954, 25.907 57.744, 25.182 58.317 C 23.671 59.510, 4.386 59.703, 1.750 58.551 C 0.099 57.829, 0 60.214, 0 100.893 L 0 144 52.385 144 L 104.770 144 105.478 138.250 C 105.868 135.088, 107.708 127.775, 109.567 122 C 111.425 116.225, 113.861 106.343, 114.979 100.039 C 117.418 86.295, 116.960 79.859, 113.376 77.510 C 110.783 75.812, 110.265 72.243, 112.109 68.797 C 113.138 66.873, 113.014 66.775, 110.359 67.423 C 103.763 69.033, 101.743 69.202, 101.121 68.196 C 100.760 67.611, 95.972 66.216, 90.482 65.096 C 84.992 63.976, 77.639 62.120, 74.143 60.971 C 70.646 59.822, 67.570 59.096, 67.308 59.359 C 66.721 59.946, 63 56.853, 63 55.778 C 63 54.516, 69.797 54.889, 73.282 56.341 C 75.052 57.079, 80.885 58.261, 86.244 58.969 C 94.436 60.051, 96.252 60.036, 97.651 58.878 C 98.792 57.933, 102.140 57.500, 108.306 57.500 C 116.103 57.500, 117.333 57.267, 117.561 55.750 C 117.705 54.788, 117.285 54, 116.627 54 C 115.152 54, 111.801 48.532, 112.716 47.617 C 113.081 47.252, 112.394 46.264, 111.190 45.420 C 108.803 43.749, 108.325 40.054, 110.123 37.175 C 110.990 35.786, 110.868 34.646, 109.588 32.170 C 108.035 29.168, 108.039 28.922, 109.644 28.306 C 112.271 27.298, 127.643 33.018, 130.599 36.104 C 132.259 37.836, 133.338 40.312, 133.664 43.138 C 133.941 45.537, 134.805 49.197, 135.584 51.270 C 136.363 53.344, 137 56.797, 137 58.944 C 137 61.595, 137.763 63.753, 139.380 65.674 C 140.795 67.357, 141.970 70.324, 142.279 73.001 C 142.565 75.476, 143.274 79.300, 143.854 81.500 C 145.624 88.213, 147.752 108.375, 146.914 110.500 C 146.481 111.600, 146.098 112.130, 146.063 111.679 C 146.029 111.227, 145.311 111.546, 144.469 112.388 C 143.094 113.763, 143.440 115.021, 147.860 124.710 C 150.568 130.644, 153.356 137.422, 154.056 139.771 L 155.329 144.043 173.915 143.771 L 192.500 143.500 192.825 129 C 193.003 121.025, 192.837 88.737, 192.455 57.250 L 191.761 0 127.630 0 L 63.500 0 63.426 8.750 M 0.459 101 C 0.459 124.925, 0.589 134.713, 0.749 122.750 C 0.908 110.788, 0.908 91.213, 0.749 79.250 C 0.589 67.288, 0.459 77.075, 0.459 101 M 137.989 87 C 137.504 89.943, 138.218 98.526, 139.071 100 C 139.640 100.983, 139.909 99.776, 139.851 96.500 C 139.759 91.265, 138.416 84.412, 137.989 87" stroke="none" fill="black" fill-rule="evenodd"/>
</svg>