<svg xmlns="http://www.w3.org/2000/svg" width="192" height="144" viewBox="0 0 192 144" version="1.1">
	<path d="M 13.704 1.330 C 13.057 3.016, 13.436 9.843, 14.866 22.277 C 15.955 31.747, 15.918 32.171, 13.672 35.777 C 10.371 41.078, 9.974 42.582, 11.371 44.493 C 12.496 46.031, 12.722 46.040, 13.925 44.590 C 15.785 42.350, 16.684 42.605, 17.432 45.585 C 18.440 49.603, 17.295 51.581, 12.978 53.277 C 8.258 55.131, 7.783 57, 12.031 57 C 13.803 57, 15.302 57.623, 15.638 58.500 C 15.955 59.325, 17.212 60, 18.433 60 C 19.653 60, 21.726 61.144, 23.039 62.542 C 24.406 63.997, 26.291 64.959, 27.449 64.792 C 29.180 64.542, 29.487 63.714, 29.581 59.052 C 29.641 56.055, 30.188 53.437, 30.795 53.235 C 31.403 53.032, 33.085 51.934, 34.534 50.795 C 37.363 48.569, 36.419 46.816, 32.889 47.739 C 30.472 48.371, 30.501 46.923, 32.998 42.265 C 37.407 34.039, 36.401 27.421, 30.867 28.233 C 29.242 28.471, 27.688 28.305, 27.415 27.863 C 26.568 26.493, 29.792 21.308, 35.397 15.027 C 39.906 9.974, 42.758 4.449, 41.511 3.183 C 41.340 3.009, 38.567 2.237, 35.350 1.469 C 27.591 -0.385, 14.394 -0.469, 13.704 1.330 M 96 72 L 96 144 129.422 144 L 162.845 144 163.889 140.750 C 165.466 135.842, 166.994 121.616, 166.046 120.657 C 165.588 120.193, 164.027 120.592, 162.576 121.542 C 161.125 122.493, 159.686 123.020, 159.380 122.713 C 159.073 122.406, 158.790 120.079, 158.752 117.542 C 158.698 113.946, 158.331 112.965, 157.091 113.094 C 153.879 113.429, 149.093 111.725, 148.780 110.135 C 148.181 107.095, 152.260 101.358, 156.695 99.006 C 161.012 96.716, 161.049 96.644, 161.446 89.674 C 161.578 87.359, 165.819 84.051, 168.691 84.022 C 169.896 84.010, 171.160 83.550, 171.500 83 C 174.326 78.428, 177.023 89.120, 174.349 94.292 C 172.966 96.967, 173.047 97.290, 175.945 100.591 C 177.625 102.504, 179 105.179, 179 106.535 C 179 107.891, 179.408 109, 179.906 109 C 180.405 109, 180.577 108.100, 180.290 107 C 179.400 103.597, 182.006 104.770, 183.551 108.468 C 185.713 113.642, 185.390 114.938, 180.868 119.240 L 176.737 123.170 179.381 131.835 C 180.835 136.601, 182.020 141.287, 182.013 142.250 C 182.002 143.685, 182.900 144, 187 144 L 192 144 192 72 L 192 0 144 0 L 96 0 96 72" stroke="none" fill="black" fill-rule="evenodd"/>
</svg>