<svg xmlns="http://www.w3.org/2000/svg" width="192" height="144" viewBox="0 0 192 144" version="1.1">
	<path d="M 3 0.997 C 3.825 1.532, 5.240 1.976, 6.145 1.985 C 7.344 1.996, 7.905 3.153, 8.214 6.250 C 8.447 8.588, 8.269 10.650, 7.819 10.833 C 6.424 11.401, 6.907 16, 8.360 16 C 9.109 16, 11.359 14.889, 13.360 13.530 C 15.362 12.172, 17 11.427, 17 11.875 C 17 13.053, 14.003 15.504, 10.217 17.422 C 6.695 19.206, 6.741 20.981, 10.309 21.030 C 14.514 21.089, 9.278 23.142, 4.449 23.328 L 0 23.500 0.031 29.500 L 0.062 35.500 2.479 31.566 C 5.547 26.573, 9.957 23.117, 15.303 21.515 C 21.407 19.687, 23.420 20.846, 26.008 27.682 C 27.605 31.898, 31.592 47.866, 31.987 51.625 C 31.994 51.694, 33.237 51.998, 34.750 52.301 C 40.547 53.463, 47.081 59.876, 53.621 70.824 C 53.727 71.002, 55.093 70.491, 56.657 69.688 C 61.569 67.168, 68.883 65.018, 70.473 65.628 C 71.313 65.950, 72 67.212, 72 68.433 C 72 69.653, 73.074 71.661, 74.388 72.894 C 76.506 74.885, 77.211 75.021, 80.638 74.100 C 103.119 68.062, 129.802 65.922, 141.660 69.206 C 146.262 70.481, 148.664 70.668, 151.160 69.947 C 153.448 69.285, 155.366 69.337, 157.250 70.112 C 159.927 71.212, 161.010 73, 159 73 C 158.450 73, 158 73.600, 158 74.333 C 158 75.785, 159.470 76.122, 165.327 76.012 C 167.713 75.967, 168.915 76.328, 168.518 76.970 C 168.168 77.537, 167.178 78, 166.319 78 C 165.042 78, 164.984 78.275, 166 79.500 C 166.834 80.505, 166.881 81, 166.144 81 C 165.353 81, 165.363 81.703, 166.182 83.500 C 166.924 85.130, 168.135 86, 169.661 86 C 172.241 86, 172.634 86.966, 170.800 88.800 C 169.323 90.277, 171.663 90.379, 177.250 89.081 C 181.847 88.014, 181.949 88.424, 177.750 91.102 L 174.500 93.174 179.477 92.684 C 183.660 92.273, 184.179 92.396, 182.727 93.457 C 180.256 95.265, 180.536 95.687, 184.750 96.508 C 187.922 97.126, 188.192 97.364, 186.500 98.049 C 184.937 98.683, 185.319 98.875, 188.250 98.930 L 192 99 192.208 66.250 C 192.322 48.237, 192.310 26.075, 192.181 17 L 191.948 0.500 96.724 0.262 C 34.774 0.108, 2.024 0.364, 3 0.997 M 2.537 3.651 C 4.637 5.186, 7 5.432, 7 4.113 C 7 3.626, 5.581 3.019, 3.846 2.764 C 0.997 2.346, 0.870 2.432, 2.537 3.651 M 0.320 29 C 0.320 32.575, 0.502 34.038, 0.723 32.250 C 0.945 30.462, 0.945 27.538, 0.723 25.750 C 0.502 23.962, 0.320 25.425, 0.320 29 M 13 58.882 C 13 59.336, 18.512 62.513, 25.250 65.943 C 34.757 70.782, 38.280 72.103, 40.983 71.839 L 44.466 71.500 38.983 67.550 C 35.967 65.377, 30.800 62.498, 27.500 61.152 C 21.441 58.681, 13 57.359, 13 58.882 M 45.441 76.418 C 47.664 78.230, 49 78.448, 49 77 C 49 76.450, 48.587 76, 48.082 76 C 47.577 76, 46.339 75.738, 45.332 75.418 C 43.656 74.886, 43.665 74.971, 45.441 76.418 M 56 78 C 56 79.161, 60.376 79.161, 64 78 C 65.967 77.370, 65.381 77.178, 61.250 77.100 C 58.350 77.045, 56 77.448, 56 78 M 186.018 101.409 L 182.535 102.667 185.518 103.457 C 187.158 103.891, 187.938 104.454, 187.250 104.707 C 185.372 105.398, 185.745 106.784, 188 107.500 C 189.100 107.849, 190 108.585, 190 109.135 C 190 109.685, 189.100 109.849, 188 109.500 C 186.900 109.151, 186 109.315, 186 109.865 C 186 110.415, 186.900 111.151, 188 111.500 C 189.100 111.849, 190 112.606, 190 113.183 C 190 113.869, 188.105 113.994, 184.500 113.543 C 181.475 113.165, 179 113.129, 179 113.464 C 179 113.798, 181.025 114.939, 183.500 116 C 188.525 118.154, 189.457 119.541, 185.250 118.605 L 182.500 117.994 185.389 119.602 C 187.410 120.726, 187.904 121.441, 187.033 121.980 C 186.148 122.527, 186.107 122.948, 186.893 123.434 C 187.502 123.810, 188 124.525, 188 125.023 C 188 125.521, 185.938 125.045, 183.417 123.964 C 177.120 121.265, 176.512 121.579, 182.250 124.566 C 184.863 125.926, 187 127.212, 187 127.424 C 187 127.636, 182.613 127.631, 177.250 127.413 L 167.500 127.016 170 128.959 L 172.500 130.902 167 130.504 C 163.975 130.285, 160.375 129.826, 159 129.484 C 156.672 128.905, 156.637 128.948, 158.488 130.114 C 159.582 130.803, 161.382 132.240, 162.488 133.309 C 164.496 135.248, 164.494 135.251, 161.726 134.760 C 157.336 133.981, 157.707 135.416, 162.715 138.580 L 167.337 141.500 164.419 142.055 C 161.847 142.545, 159.187 142.109, 149 139.530 C 147.556 139.164, 148.400 139.955, 151 141.403 C 155.332 143.816, 156.180 143.911, 173.691 143.955 C 183.696 143.980, 192.100 143.647, 192.367 143.216 C 193.405 141.536, 191.701 99.999, 190.597 100.076 C 189.994 100.118, 187.933 100.718, 186.018 101.409 M 51.935 119.750 C 51.264 121.813, 50.104 124.388, 49.358 125.473 C 48.611 126.557, 48 128.145, 48 129 C 48 132.218, 44.309 133.871, 35.532 134.583 C 27.371 135.245, 26.989 135.381, 27.678 137.389 C 28.076 138.550, 28.424 140.512, 28.451 141.750 L 28.500 144 89.500 143.884 C 123.050 143.820, 149.600 143.549, 148.500 143.281 C 147.400 143.013, 145.825 142.237, 145 141.557 C 140.733 138.040, 122.704 133.323, 99 129.520 C 84.425 127.182, 71.250 123.627, 61.865 119.501 C 57.486 117.575, 53.735 116, 53.529 116 C 53.323 116, 52.606 117.688, 51.935 119.750 M 1 137.883 L 1 144 11.060 144 L 21.119 144 17.003 139.119 C 13.874 135.407, 12.002 134.089, 9.194 133.619 C 7.162 133.279, 4.488 132.723, 3.250 132.384 C 1.095 131.793, 1 132.024, 1 137.883" stroke="none" fill="black" fill-rule="evenodd"/>
</svg>