<svg xmlns="http://www.w3.org/2000/svg" width="192" height="144" viewBox="0 0 192 144" version="1.1">
	<path d="M 0 37.500 C 0 70.187, 0.193 75, 1.502 75 C 4.515 75, 20.754 68.832, 30.518 63.979 C 36.028 61.241, 41.087 59, 41.761 59 C 43.313 59, 60.158 73.026, 70.025 82.534 C 79.768 91.923, 82.766 93.185, 95.810 93.390 L 106.120 93.552 108.639 88.526 C 112.936 79.952, 115.585 77.288, 123.593 73.488 C 127.742 71.519, 130.985 69.456, 130.801 68.903 C 130.617 68.350, 129.011 66.976, 127.233 65.851 L 124 63.804 124 66.343 C 124 67.739, 123.618 69.118, 123.151 69.407 C 121.746 70.275, 118.330 65.557, 117.352 61.396 C 116.543 57.955, 116.055 57.463, 113.172 57.183 C 110.459 56.920, 110.011 56.540, 110.521 54.933 C 110.915 53.693, 110.663 52.995, 109.817 52.985 C 108.732 52.972, 108.733 52.822, 109.823 52.131 C 110.756 51.539, 110.940 50.197, 110.447 47.571 C 109.285 41.377, 108.148 44.902, 107.729 56 C 107.163 70.965, 105.008 77.262, 99.769 79.262 C 98.450 79.765, 97.382 78.803, 95.274 75.211 C 92.968 71.282, 92.508 69.338, 92.504 63.500 C 92.502 59.650, 92.062 56.186, 91.526 55.803 C 90.951 55.391, 91.415 54.163, 92.661 52.803 C 93.821 51.536, 95.106 49.375, 95.516 48 C 95.927 46.625, 97.152 44.237, 98.240 42.692 C 100.520 39.456, 100.628 39.678, 95.801 37.677 C 92.278 36.218, 92.127 35.963, 92.622 32.322 C 93.615 25.028, 95.924 20.325, 99.846 17.607 C 104.742 14.214, 106.615 14.319, 108.924 18.116 L 110.819 21.231 113.481 17.208 C 117.730 10.788, 123.134 9, 138.287 9 C 149.514 9, 151.025 9.216, 154.048 11.253 C 159.358 14.832, 161.395 19.293, 161.678 27.963 C 161.883 34.269, 162.256 35.724, 163.962 36.872 C 166.452 38.548, 166.765 46.404, 164.464 49.448 C 163.653 50.519, 163.207 52.094, 163.472 52.948 C 163.738 53.801, 163.549 55.146, 163.053 55.936 C 162.343 57.068, 161.847 57.118, 160.704 56.170 C 159.514 55.182, 159.026 55.523, 157.966 58.082 C 156.697 61.147, 156.657 61.162, 155.506 59.011 C 154.414 56.971, 154.119 57.279, 151.084 63.634 C 149.295 67.380, 148.207 70.594, 148.665 70.777 C 149.124 70.961, 152.425 72.549, 156 74.306 C 162.190 77.347, 162.667 77.844, 165.997 84.709 L 169.495 91.919 180.599 91.809 L 191.704 91.699 192.352 78.191 C 192.708 70.762, 193 50.130, 193 32.342 L 193 0 96.500 0 L 0 0 0 37.500 M 0.453 38 C 0.453 58.625, 0.586 67.063, 0.749 56.750 C 0.911 46.438, 0.911 29.563, 0.749 19.250 C 0.586 8.938, 0.453 17.375, 0.453 38 M 36.250 68.115 C 32.472 70.534, 32.151 72.933, 35.075 76.887 C 38.447 81.448, 38.431 86.254, 34.993 100.994 C 33.262 108.415, 31.686 114.648, 31.490 114.844 C 30.229 116.104, 28.779 112.389, 25.984 100.741 C 22.187 84.921, 22.172 84.618, 24.875 79.023 C 26.044 76.604, 27 74.512, 27 74.375 C 27 74.238, 24.188 75.393, 20.750 76.943 C 17.313 78.492, 13.043 80.074, 11.261 80.457 C 9.480 80.840, 7.751 81.594, 7.418 82.133 C 7.085 82.671, 8.060 85.492, 9.583 88.403 L 12.354 93.694 9.594 105.597 C 5.325 124.012, 4.974 125.158, 3.724 124.741 C 3.084 124.528, 2.028 122.361, 1.378 119.927 C 0.309 115.921, 0.187 116.856, 0.098 129.750 L 0 144 52.500 144 L 105 144 105 140.250 C 105 138.188, 105.672 132.988, 106.494 128.696 C 108.402 118.725, 109.199 103, 107.797 103 C 107.230 103, 107.017 102.041, 107.324 100.869 C 107.858 98.827, 107.646 98.766, 102.242 99.401 C 99.140 99.766, 96.434 100.233, 96.228 100.439 C 96.021 100.645, 96.561 102.184, 97.426 103.857 C 99.525 107.915, 99.437 109.573, 96.418 122.976 C 93.711 134.992, 92.303 138.788, 91.084 137.357 C 90.055 136.150, 84.994 113.101, 84.997 109.636 C 84.999 108.061, 85.985 105.019, 87.190 102.876 C 88.673 100.236, 89.052 98.652, 88.363 97.963 C 87.301 96.901, 77 95.338, 77 96.239 C 77 96.523, 77.611 98.273, 78.357 100.128 C 79.576 103.156, 79.413 104.877, 76.759 117 C 74.044 129.408, 72.480 133.814, 71.235 132.569 C 70.972 132.305, 69.280 125.703, 67.476 117.898 L 64.197 103.706 66.297 99.103 C 67.452 96.571, 68.754 93.682, 69.191 92.682 C 69.801 91.288, 68.789 89.600, 64.848 85.432 C 62.022 82.445, 59.319 80, 58.842 80 C 58.364 80, 58.668 81.663, 59.517 83.695 C 60.978 87.191, 60.892 88.151, 57.928 101.445 C 54.987 114.636, 53.767 118.100, 52.507 116.840 C 52.217 116.550, 50.425 109.979, 48.523 102.236 C 45.168 88.570, 45.113 88.026, 46.627 83.580 C 47.486 81.061, 48.543 79, 48.977 79 C 49.412 79, 49.991 78.143, 50.265 77.096 C 50.612 75.768, 49.349 73.798, 46.097 70.596 C 43.531 68.068, 40.997 66.008, 40.466 66.017 C 39.935 66.026, 38.038 66.970, 36.250 68.115 M 170 98.374 C 170 98.580, 171.174 100.848, 172.609 103.415 C 174.213 106.286, 175.008 108.933, 174.674 110.291 C 174.375 111.506, 173.024 116.953, 171.673 122.395 C 169.871 129.651, 169.358 133.852, 169.747 138.145 L 170.278 144 181.139 144 L 192 144 192 139.531 C 192 136.054, 191.681 135.185, 190.561 135.615 C 189.017 136.208, 189.118 136.500, 184.498 118.094 C 181.743 107.118, 181.946 104.298, 185.820 99.750 C 187.222 98.103, 186.799 98, 178.655 98 C 173.895 98, 170 98.168, 170 98.374" stroke="none" fill="black" fill-rule="evenodd"/>
</svg>