<svg xmlns="http://www.w3.org/2000/svg" width="192" height="144" viewBox="0 0 192 144" version="1.1">
	<path d="M 165.784 23.581 C 165.417 25.276, 163.785 28.089, 162.156 29.833 C 160.528 31.576, 159.601 33.254, 160.098 33.560 C 160.594 33.867, 161 35.412, 161 36.994 C 161 38.576, 161.439 41.024, 161.975 42.435 C 162.773 44.532, 162.656 45, 161.335 45 C 159.972 45, 159.810 45.873, 160.298 50.594 C 160.617 53.687, 161.528 56.705, 162.336 57.344 C 164.686 59.202, 165.243 62.553, 163.449 64.042 C 162.572 64.770, 161.012 67.016, 159.983 69.032 C 158.955 71.049, 156.479 74.839, 154.482 77.456 L 150.851 82.212 153.161 84.671 L 155.470 87.129 153.262 90.965 C 152.048 93.075, 150.564 96.758, 149.965 99.151 C 146.753 111.968, 146.753 111.974, 148.434 114.539 C 149.321 115.893, 150.583 117, 151.240 117 C 151.896 117, 154.390 117.747, 156.782 118.661 C 161.120 120.318, 161.131 120.334, 160.836 124.911 L 160.541 129.500 166.646 132.740 C 173.396 136.322, 177.049 137.149, 177.723 135.250 C 177.967 134.563, 177.425 134, 176.519 134 C 174.166 134, 165 129.923, 165 128.877 C 165 128.395, 165.563 127.998, 166.250 127.995 C 167.956 127.988, 176.361 130.787, 182.836 133.517 C 189.131 136.172, 192 135.802, 192 132.337 C 192 130.655, 191.048 129.383, 188.908 128.203 C 178.876 122.676, 176.795 120.951, 177.375 118.644 C 178.185 115.414, 175.551 112.194, 171.471 111.429 C 169.562 111.070, 168 110.264, 168 109.636 C 168 109.007, 168.900 105.346, 170 101.500 C 171.100 97.654, 172 93.483, 172 92.232 C 172 90.776, 172.900 89.547, 174.499 88.818 L 176.999 87.680 177.002 72.590 C 177.007 52.422, 177.117 50.627, 178.400 49.735 C 179.005 49.314, 182.313 49.254, 185.750 49.601 L 192 50.233 192 47.241 C 192 44.691, 191.539 44.158, 188.875 43.625 C 187.156 43.281, 184.681 43, 183.375 43 C 180.253 43, 180.353 42.236, 184.564 33.873 C 186.524 29.980, 187.903 26.570, 187.627 26.294 C 187.352 26.018, 185.310 29.406, 183.090 33.821 C 180.870 38.236, 178.552 42.159, 177.940 42.537 C 175.856 43.825, 174.788 41.427, 175.805 37.743 C 176.336 35.820, 176.404 33.653, 175.955 32.927 C 175.507 32.202, 175.574 30.796, 176.105 29.804 C 176.882 28.351, 176.690 28, 175.116 28 C 172.083 28, 167.109 24.727, 166.763 22.503 C 166.533 21.028, 166.275 21.313, 165.784 23.581 M 107 25.845 C 107 27.869, 104.046 31, 102.136 31 C 101.232 31, 101.203 31.511, 102.020 33.037 C 102.845 34.579, 102.753 35.788, 101.643 38.014 C 100.836 39.632, 100.426 41.911, 100.731 43.080 C 101.046 44.285, 100.729 45.549, 99.999 46.001 C 98.996 46.620, 99.202 47.591, 100.928 50.383 C 102.500 52.927, 102.920 54.628, 102.371 56.235 C 101.946 57.481, 101.515 59.625, 101.414 61 C 101.312 62.375, 100.283 67.775, 99.128 73 C 97.972 78.225, 97.020 82.859, 97.013 83.298 C 97.006 83.737, 98.188 85.196, 99.639 86.542 C 102.208 88.922, 102.248 89.140, 101.134 94.688 C 100.504 97.824, 99.437 100.730, 98.762 101.147 C 97.882 101.691, 98.362 102.768, 100.461 104.959 C 102.730 107.328, 103.119 108.281, 102.192 109.208 C 101.265 110.135, 101.677 111.026, 104.030 113.175 C 106.887 115.784, 107.554 115.934, 115.475 115.756 C 122.333 115.602, 123.682 115.322, 122.785 114.241 C 121.982 113.273, 121.997 112.603, 122.842 111.758 C 124.617 109.983, 124.230 109.001, 121.750 108.986 C 118.439 108.966, 115 107.895, 115 106.883 C 115 106.398, 115.575 106, 116.277 106 C 116.980 106, 118.557 105.298, 119.781 104.441 C 122.836 102.301, 121.187 99.241, 116.749 98.813 C 114.911 98.636, 113.543 97.957, 113.600 97.250 C 113.655 96.563, 113.767 93.960, 113.850 91.466 C 113.984 87.412, 114.370 86.714, 117.500 84.867 C 119.569 83.647, 121 82.017, 121 80.881 C 121 79.825, 118.955 74.888, 116.455 69.910 C 111.568 60.179, 111.441 58.068, 115.581 55.355 C 117.526 54.081, 118.306 54.009, 119.492 54.994 C 120.308 55.670, 121.600 55.984, 122.365 55.690 C 123.130 55.396, 124.250 55.650, 124.855 56.255 C 125.652 57.052, 126.507 56.851, 127.976 55.521 C 130.586 53.160, 130.566 51, 127.934 51 C 125.025 51, 122 49.198, 122 47.465 C 122 46.659, 121.438 45.948, 120.750 45.885 C 113.867 45.249, 111.013 42.387, 114.143 39.257 C 116.492 36.908, 115.899 32.278, 112.878 29.383 C 111.295 27.867, 110 26.035, 110 25.313 C 110 24.591, 109.325 24, 108.500 24 C 107.675 24, 107 24.830, 107 25.845 M 44 31.345 C 44 33.757, 41.831 36.224, 38.750 37.317 C 36.816 38.003, 36.453 39.544, 38 40.500 C 38.550 40.840, 39 42.022, 39 43.126 C 39 44.230, 40.111 46.590, 41.469 48.371 C 43.914 51.577, 43.919 51.625, 41.969 53.294 C 40.852 54.251, 40 56.233, 40 57.875 C 40 60.459, 39.470 60.943, 35.062 62.385 C 28.105 64.661, 22.537 64.493, 20.154 61.935 C 18.364 60.013, 17.789 59.948, 11.865 60.987 C 2.769 62.583, 2 62.906, 2 65.128 C 2 66.728, 5.697 68.901, 20.704 76.124 C 31.894 81.511, 40.170 84.927, 41.307 84.630 C 42.929 84.206, 43.113 84.527, 42.561 86.816 C 39.508 99.489, 39.556 99.712, 46 103 C 51.672 105.894, 52.625 107.545, 49.721 109.447 C 48.394 110.317, 46.842 112.051, 46.273 113.301 C 45.514 114.966, 43.234 116.202, 37.746 117.923 L 30.256 120.272 25.698 117.136 C 23.191 115.411, 20.771 113.992, 20.320 113.983 C 18.761 113.950, 5 119.464, 5 120.122 C 5 120.485, 11.298 126.006, 18.995 132.391 L 32.991 144 43.840 144 C 53.180 144, 54.926 143.739, 56.387 142.124 C 58.010 140.332, 57.859 140.087, 53.001 136.596 C 50.205 134.587, 48.163 132.545, 48.464 132.059 C 48.764 131.572, 50.828 130.867, 53.049 130.492 C 56.485 129.911, 57.175 129.376, 57.669 126.905 C 58.133 124.585, 58.779 123.999, 60.875 123.996 C 63.742 123.992, 70 120.611, 70 119.066 C 70 117.911, 63.748 113, 62.278 113 C 60.812 113, 58.649 110.169, 58.283 107.771 C 58.112 106.652, 56.404 104.122, 54.486 102.148 C 52.569 100.173, 51 98.052, 51 97.434 C 51 95.443, 54.393 93.188, 58.500 92.451 C 62.897 91.661, 67.513 89.597, 68.519 87.969 C 68.874 87.395, 67.578 85.168, 65.639 83.022 C 63.700 80.876, 61.344 77.630, 60.403 75.810 C 59.462 73.989, 58.040 72.022, 57.243 71.438 C 56.248 70.709, 55.778 68.358, 55.743 63.938 C 55.712 60.060, 55.109 56.603, 54.227 55.245 C 53.058 53.443, 53.011 52.691, 53.997 51.504 C 54.772 50.570, 54.980 48.809, 54.556 46.759 C 54.186 44.967, 53.796 42.231, 53.691 40.680 C 53.586 39.128, 52.727 37.427, 51.782 36.898 C 50.837 36.369, 49.323 34.376, 48.418 32.468 C 46.531 28.493, 44 27.849, 44 31.345 M 35.500 66.497 L 32.500 67.832 35.315 68.916 C 40.591 70.948, 44.553 69.901, 42.947 66.900 C 41.777 64.715, 39.752 64.605, 35.500 66.497 M 106.161 90.547 C 105.522 91.948, 105 94.423, 105 96.047 C 105 98.530, 105.398 99, 107.500 99 C 109.864 99, 110 98.700, 110 93.500 C 110 87.414, 108.214 86.040, 106.161 90.547 M 159.776 90.224 C 157.331 93.966, 154.150 100.537, 152.584 105.080 C 150.916 109.923, 151.950 113.425, 154.811 112.623 C 155.740 112.362, 157.966 111.854, 159.758 111.493 C 161.550 111.133, 163.423 110.078, 163.920 109.150 C 165.358 106.463, 167.352 90.945, 166.376 90.038 C 164.081 87.906, 161.239 87.987, 159.776 90.224 M 126.697 115.706 C 125.335 116.054, 125.160 116.488, 125.984 117.480 C 127.225 118.976, 131.266 118.299, 130.728 116.685 C 130.297 115.392, 129.079 115.096, 126.697 115.706 M 35 121.033 C 33.733 121.880, 33.936 122.421, 36.306 124.518 C 39.715 127.534, 40.181 127.563, 42.582 124.910 C 44.438 122.858, 44.437 122.793, 42.546 121.410 C 40.299 119.767, 37.131 119.609, 35 121.033" stroke="none" fill="black" fill-rule="evenodd"/>
</svg>