<svg xmlns="http://www.w3.org/2000/svg" width="192" height="144" viewBox="0 0 192 144" version="1.1">
	<path d="M 127.831 18.700 C 127.628 19.140, 125.373 21.466, 122.821 23.870 L 118.180 28.239 114.401 25.370 C 110.722 22.576, 110.333 22.506, 99.691 22.714 C 82.605 23.049, 77.584 26.955, 77.493 39.987 C 77.449 46.295, 77.349 46.547, 74.290 48 C 72.553 48.825, 70.893 50.388, 70.601 51.473 C 69.909 54.047, 73.606 58, 76.706 58 C 79.649 58, 80.654 60.428, 79.250 64.147 C 78.646 65.749, 78.574 67, 79.087 67 C 79.589 67, 80 67.661, 80 68.469 C 80 69.363, 80.586 69.712, 81.500 69.362 C 82.325 69.045, 83 69.263, 83 69.846 C 83 71.335, 89.674 74.339, 91.460 73.654 C 93.261 72.962, 94.597 74.803, 93.262 76.138 C 92.731 76.669, 89.925 77.728, 87.025 78.493 C 80.952 80.095, 78.053 82.472, 75.390 88.031 C 73.720 91.519, 73.093 91.976, 70 91.967 C 65.175 91.952, 59.403 89.111, 53.610 83.899 C 50.921 81.480, 47.096 78.588, 45.110 77.473 C 42.965 76.269, 41.370 74.544, 41.180 73.223 C 41.005 72, 40.618 71, 40.320 71 C 40.023 71, 36.219 74.349, 31.867 78.443 C 24.656 85.226, 17.924 89.931, 4.750 97.394 C 2.138 98.874, 0 100.515, 0 101.042 C 0 101.569, 2.957 102, 6.572 102 C 11.779 102, 14.030 102.520, 17.414 104.502 L 21.683 107.004 26.021 101.860 L 30.359 96.716 32.631 99.358 C 35.234 102.383, 36 102.636, 36 100.469 C 36 99.626, 36.664 98.683, 37.475 98.371 C 39.426 97.623, 45.732 101.579, 46.513 104.042 C 47.086 105.847, 47.333 105.879, 50.015 104.492 C 54.191 102.333, 57.855 102.652, 61.589 105.500 C 65.513 108.493, 66.721 108.565, 70 106 C 75.475 101.717, 77.100 103.879, 76.262 114.330 C 75.766 120.510, 75.860 120.862, 78.470 122.572 C 80.762 124.074, 81.522 124.155, 83.245 123.079 C 85.203 121.857, 85.267 121.966, 84.690 125.524 C 84.357 127.572, 83.484 129.980, 82.750 130.874 C 80.512 133.598, 78.545 140.348, 79.862 140.787 C 80.488 140.996, 81 141.804, 81 142.583 C 81 143.759, 84.480 144, 101.500 144 C 120.443 144, 124.236 143.500, 120.904 141.441 C 120.301 141.068, 120.019 139.354, 120.278 137.632 C 120.593 135.536, 120.105 133.588, 118.802 131.744 C 116.178 128.029, 116.811 125.980, 121 124.628 L 124.500 123.497 124.634 115.070 C 124.736 108.653, 125.145 106.367, 126.349 105.487 C 127.537 104.618, 127.645 104.045, 126.785 103.185 C 125.211 101.611, 127.715 97, 130.145 97 C 131.138 97, 135.827 99.027, 140.564 101.505 L 149.177 106.010 151.838 104.136 C 155.835 101.323, 158.233 100.890, 161 102.483 C 162.375 103.274, 164.064 104.213, 164.752 104.569 C 165.441 104.925, 166.791 104.254, 167.752 103.077 C 170.068 100.244, 177 99.005, 177 101.425 C 177 102.731, 177.508 102.521, 179.253 100.492 C 181.995 97.305, 184.141 97.871, 186.089 102.295 C 186.970 104.297, 188.344 105.620, 189.750 105.820 C 192.274 106.178, 192.399 105.525, 192.012 94.016 C 191.814 88.138, 191.442 87.109, 188.035 83.016 C 185.968 80.532, 183.528 77.037, 182.613 75.250 C 180.707 71.527, 179.508 71.182, 178.036 73.932 C 177.467 74.995, 175.989 76.164, 174.751 76.529 C 173.513 76.895, 168.011 79.731, 162.524 82.832 L 152.549 88.469 144.096 88.287 C 137.902 88.153, 135.358 88.475, 134.572 89.490 C 132.405 92.292, 128.101 90.132, 125.457 84.916 C 122.868 79.807, 123.552 80.180, 110.750 76.885 C 108.688 76.354, 107 75.536, 107 75.067 C 107 73.932, 109.941 72.846, 111.090 73.556 C 111.591 73.865, 112 73.593, 112 72.952 C 112 72.311, 112.652 72.036, 113.449 72.342 C 114.335 72.682, 115.147 72.113, 115.539 70.877 C 115.914 69.697, 116.754 69.075, 117.558 69.384 C 118.316 69.675, 119.190 69.502, 119.500 69 C 119.810 68.498, 120.692 68.328, 121.459 68.623 C 122.465 69.009, 122.703 68.579, 122.310 67.079 C 121.985 65.834, 122.244 65, 122.956 65 C 123.647 65, 123.265 63.881, 122.043 62.327 C 120.887 60.857, 120.291 59.395, 120.720 59.077 C 121.994 58.134, 126 52.154, 126 51.195 C 126 50.708, 125.100 49.495, 124 48.500 C 121.001 45.786, 121.550 45.186, 126.246 46.045 C 131.093 46.931, 131.961 46.208, 131.985 41.263 C 131.998 38.516, 132.529 37.806, 135.500 36.564 C 137.425 35.760, 139 34.863, 139 34.571 C 139 34.279, 137.221 31.690, 135.047 28.818 C 132.873 25.945, 130.960 22.483, 130.797 21.124 C 130.506 18.706, 128.562 17.117, 127.831 18.700" stroke="none" fill="black" fill-rule="evenodd"/>
</svg>