<svg xmlns="http://www.w3.org/2000/svg" width="192" height="144" viewBox="0 0 192 144" version="1.1">
	<path d="M 70.583 2.508 C 65.815 7.275, 65.142 13.586, 67.809 28.500 C 68.399 31.800, 69.151 37.195, 69.481 40.489 C 69.810 43.784, 70.511 46.911, 71.039 47.439 C 72.542 48.942, 72.186 49.807, 69.750 50.572 C 61.778 53.074, 59.342 67.499, 65.629 74.971 C 67.424 77.104, 69.066 78, 71.179 78 C 73.064 78, 74.882 78.836, 76.069 80.250 C 77.496 81.948, 78.165 82.190, 78.798 81.235 C 79.259 80.539, 81.357 79.093, 83.459 78.021 L 87.282 76.072 86.500 85.286 C 86.070 90.354, 85.669 96.343, 85.609 98.596 C 85.549 100.849, 84.922 103.389, 84.215 104.241 C 83.509 105.092, 82.666 108.025, 82.342 110.759 C 81.668 116.454, 82.867 117.944, 86.542 115.977 C 88.415 114.975, 88.780 114.152, 88.337 111.935 C 87.990 110.200, 88.387 108.286, 89.390 106.853 C 90.276 105.589, 91 103.903, 91 103.106 C 91 102.309, 91.631 100.947, 92.403 100.079 C 94.433 97.794, 95.550 85.541, 95.166 69.757 C 94.834 56.146, 94.854 56.006, 97.166 55.098 C 99.598 54.142, 107.503 46.308, 110.353 42.027 C 111.259 40.668, 112 37.625, 112 35.267 C 112 31.002, 115.443 22, 117.075 22 C 117.545 22, 119.858 20.650, 122.215 19.001 C 140.207 6.410, 143.013 4.775, 145.910 5.200 C 147.760 5.472, 150.989 4.624, 154.670 2.901 L 160.500 0.172 129.250 0.086 C 102.101 0.011, 98 0.197, 98 1.500 C 98 3.386, 96.860 3.386, 92.346 1.500 C 90.192 0.600, 85.623 -0, 80.923 -0 C 73.896 -0, 72.833 0.258, 70.583 2.508" stroke="none" fill="black" fill-rule="evenodd"/>
</svg>