<svg xmlns="http://www.w3.org/2000/svg" width="192" height="144" viewBox="0 0 192 144" version="1.1">
	<path d="M 84.708 10.250 C 84.382 15.888, 83.407 22.492, 82.540 24.926 C 80.333 31.127, 76.801 38, 75.823 38 C 75.370 38, 75 38.595, 75 39.321 C 75 40.048, 72.928 42.410, 70.395 44.571 C 67.863 46.732, 65.275 48.951, 64.645 49.502 C 61.725 52.056, 54.888 55.985, 52.331 56.578 C 50.774 56.939, 47.331 57.919, 44.680 58.755 C 34.424 61.991, 15.380 58.053, 4.911 50.531 L 0 47.003 0 95.502 L 0 144 83.293 144 L 166.585 144 167.753 139.634 C 168.395 137.232, 171.573 129.694, 174.815 122.884 C 181.823 108.161, 182.242 106.949, 180.992 105 C 180.352 104.002, 180.026 103.918, 180.015 104.750 C 180.007 105.438, 179.314 106, 178.475 106 C 175.939 106, 174.755 101.083, 175.467 93.500 C 175.829 89.650, 176.251 83.125, 176.406 79 C 176.832 67.655, 178.823 55.213, 180.765 51.751 C 181.719 50.049, 183.710 46.434, 185.190 43.715 C 186.669 40.997, 188.807 38.123, 189.940 37.330 C 191.890 35.964, 192 34.928, 192 17.943 L 192 0 138.651 0 L 85.301 0 84.708 10.250" stroke="none" fill="black" fill-rule="evenodd"/>
</svg>