<svg xmlns="http://www.w3.org/2000/svg" width="192" height="144" viewBox="0 0 192 144" version="1.1">
	<path d="M -0 72.005 L -0 144.010 96.250 143.755 L 192.500 143.500 192.757 71.750 L 193.013 0 168.007 0 L 143 0 142.985 6.750 C 142.946 24.589, 134.801 40.882, 121.500 49.727 C 104.645 60.934, 88.455 62.607, 71.304 54.912 C 58.162 49.016, 51.661 42.343, 45.086 28 C 41.722 20.660, 41.175 17.194, 41.023 2.250 L 41 0 20.500 0 L 0 0 -0 72.005 M 0.474 72.500 C 0.474 112.100, 0.598 128.154, 0.750 108.176 C 0.901 88.198, 0.901 55.798, 0.750 36.176 C 0.598 16.554, 0.474 32.900, 0.474 72.500" stroke="none" fill="black" fill-rule="evenodd"/>
</svg>