<svg xmlns="http://www.w3.org/2000/svg" width="192" height="144" viewBox="0 0 192 144" version="1.1">
	<path d="M -0 31.559 C -0 52.344, 0.341 62.907, 1 62.500 C 1.550 62.160, 2 60.649, 2 59.141 C 2 57.633, 2.540 55.860, 3.200 55.200 C 4.969 53.431, 9.155 53.779, 11.951 55.928 C 13.986 57.492, 14.188 58.068, 13.142 59.329 C 12.246 60.408, 12.086 62.635, 12.585 67.052 C 13.137 71.924, 13.931 73.991, 16.282 76.668 C 19.166 79.953, 19.207 80.130, 17.388 81.507 C 16.350 82.293, 14.938 82.951, 14.250 82.968 C 12.642 83.009, 12.586 91.606, 14.143 99.357 C 15.321 105.223, 14.848 107.248, 12.783 105.183 C 12.133 104.532, 11.240 104, 10.800 104 C 9.646 104, 9.814 107.767, 11 108.500 C 13.300 109.921, 11.644 110.941, 6 111.580 L 0 112.258 0 128.129 L 0 144 43.974 144 L 87.949 144 89.452 141.250 C 90.279 139.738, 93.010 136.256, 95.521 133.514 C 98.032 130.772, 99.690 128.397, 99.205 128.235 C 98.720 128.073, 95.663 128.703, 92.412 129.634 C 84.403 131.928, 77.646 132.029, 77.219 129.862 C 76.977 128.634, 78.158 127.922, 81.943 127.014 C 86.562 125.906, 86.938 125.600, 86.386 123.402 C 85.937 121.612, 86.193 121, 87.392 121 C 88.333 121, 89 121.829, 89 123 C 89 125.491, 88.744 125.504, 98.517 122.523 C 104.859 120.589, 106.941 119.480, 108.022 117.458 C 109.205 115.248, 109.203 114.743, 108.008 114.005 C 107.211 113.512, 105.876 113.531, 104.909 114.049 C 103.207 114.960, 100.355 112.979, 101.589 111.744 C 101.904 111.429, 98.363 109.392, 93.720 107.216 C 89.078 105.041, 84.984 102.783, 84.623 102.199 C 83.081 99.703, 86.215 100.343, 93.973 104.106 C 99.842 106.953, 102.582 107.818, 103.335 107.065 C 104.896 105.504, 107 105.766, 107 107.521 C 107 108.358, 108.123 109.555, 109.496 110.180 C 111.573 111.126, 112.344 110.999, 114.089 109.420 C 117.124 106.673, 118.386 103.986, 117.199 102.799 C 116.562 102.162, 116.549 100.596, 117.163 98.372 C 117.685 96.480, 117.838 94.064, 117.501 93.003 C 117.165 91.943, 117.400 90.121, 118.024 88.955 C 118.926 87.270, 118.834 86.475, 117.580 85.088 C 115.783 83.103, 115.512 79.888, 117.015 78.385 C 118.454 76.946, 115.320 71, 113.123 71 C 112.171 71, 109.866 69.425, 108 67.500 C 104.209 63.589, 103.014 63.173, 102.970 65.750 C 102.944 67.229, 102.803 67.268, 102.061 66 C 101.300 64.698, 97.370 64.583, 72.342 65.124 C 56.479 65.467, 40.575 66.100, 37 66.530 C 31.293 67.217, 30.651 67.130, 31.738 65.818 C 34.358 62.656, 46.488 61.491, 86.369 60.575 C 97.559 60.318, 101.452 59.895, 102.104 58.867 C 102.795 57.775, 102.972 57.831, 102.985 59.145 C 102.998 60.526, 103.597 60.655, 106.722 59.950 C 108.769 59.488, 110.606 59.272, 110.803 59.470 C 111.001 59.668, 112.729 58.767, 114.643 57.468 C 118.453 54.882, 127.298 52, 131.423 52 C 133.727 52, 133.962 52.303, 133.398 54.551 C 132.933 56.402, 133.271 57.478, 134.629 58.470 C 135.951 59.437, 136.555 61.256, 136.687 64.669 C 136.938 71.147, 137.308 73.093, 138.793 75.729 C 140.202 78.232, 139.521 82.323, 137.402 84.081 C 136.497 84.832, 136 87.281, 136 90.986 C 136 96.244, 137.508 106.841, 138.380 107.713 C 138.581 107.914, 143.415 106.307, 149.123 104.143 C 158.551 100.567, 159.617 100.356, 160.779 101.834 C 161.482 102.729, 161.932 104.084, 161.779 104.844 C 161.509 106.182, 153.813 109.462, 143.500 112.634 C 136.831 114.685, 135.719 115.809, 137.284 118.922 C 138.481 121.302, 142.931 123.130, 163.424 129.656 C 166.682 130.694, 169.555 132.165, 169.808 132.925 C 170.540 135.120, 161.010 133.704, 150.170 130.008 C 145.039 128.258, 140.648 127.019, 140.412 127.254 C 140.177 127.489, 141.226 129.293, 142.742 131.263 C 144.259 133.232, 147.075 136.893, 149 139.397 L 152.500 143.951 172.500 143.726 L 192.500 143.500 192.715 71.750 L 192.930 0 96.465 0 L 0 0 -0 31.559 M 0.445 32 C 0.445 49.325, 0.582 56.412, 0.748 47.750 C 0.915 39.087, 0.915 24.912, 0.748 16.250 C 0.582 7.587, 0.445 14.675, 0.445 32 M 152.761 14.062 C 148.891 16.106, 145 22.103, 145 26.026 C 145 28.581, 146.554 31.736, 149.296 34.746 C 152.011 37.727, 150.893 38.592, 146.900 36.600 C 142.838 34.574, 142.329 35.021, 145.406 37.911 C 148.685 40.992, 154.208 41.524, 167.512 40.041 C 175.880 39.109, 180.080 39.066, 183.853 39.875 C 190.995 41.407, 192 40.782, 192 34.811 L 192 29.837 182.116 25.212 C 174.380 21.592, 171.861 19.897, 170.522 17.411 C 167.488 11.777, 159.827 10.332, 152.761 14.062 M 1.079 66.583 C 1.127 67.748, 1.364 67.985, 1.683 67.188 C 1.972 66.466, 1.936 65.603, 1.604 65.271 C 1.272 64.939, 1.036 65.529, 1.079 66.583 M 5.583 106.866 C 5.152 107.563, 5.070 108.403, 5.400 108.733 C 6.295 109.628, 7.271 108.312, 6.787 106.862 C 6.449 105.846, 6.213 105.846, 5.583 106.866 M 0.407 128 C 0.407 137.075, 0.559 140.787, 0.744 136.250 C 0.929 131.713, 0.929 124.287, 0.744 119.750 C 0.559 115.213, 0.407 118.925, 0.407 128" stroke="none" fill="black" fill-rule="evenodd"/>
</svg>