<svg xmlns="http://www.w3.org/2000/svg" width="192" height="144" viewBox="0 0 192 144" version="1.1">
	<path d="M 0 72 L 0 144 57.893 144 C 111.148 144, 115.838 143.866, 116.430 142.323 C 117.159 140.421, 110.533 118.779, 105.308 106 C 101.817 97.464, 98.750 93, 96.375 93 C 91.301 93, 84.366 90.422, 80.819 87.217 C 75.883 82.758, 74 79.179, 74 74.258 C 74 71.026, 74.714 69.716, 78.500 66 C 80.975 63.571, 83 60.976, 83 60.233 C 83 59.490, 83.440 59.154, 83.979 59.487 C 84.517 59.819, 86.288 59.107, 87.915 57.905 C 93.420 53.835, 100.935 56.674, 106.063 64.760 C 109.506 70.189, 110.074 77.156, 107.322 80.197 C 105.734 81.952, 105.836 82.251, 109.219 85.775 C 112.828 89.535, 119.031 98.810, 120.405 102.500 C 121.082 104.320, 121.266 104.226, 122.440 101.457 C 123.149 99.783, 124.578 97.565, 125.615 96.529 C 130.968 91.177, 133 87.638, 133 83.666 C 133 80.933, 133.842 78.393, 135.578 75.888 C 138.116 72.225, 138.128 72.125, 136.345 69.404 C 135.350 67.885, 134.672 65.597, 134.839 64.321 C 135.171 61.785, 134.079 61.321, 132.200 63.200 C 131.267 64.133, 131 64.017, 131 62.674 C 131 61.085, 130.766 61.069, 128.050 62.474 C 126.427 63.313, 124.474 64, 123.710 64 C 122.277 64, 113 52.758, 113 51.022 C 113 50.485, 111.902 49.327, 110.560 48.448 C 109.219 47.568, 108.314 46.321, 108.550 45.675 C 108.786 45.029, 105.784 42.700, 101.878 40.500 C 97.972 38.300, 92.915 35.454, 90.638 34.177 C 88.362 32.899, 85.150 30.574, 83.500 29.011 C 81.850 27.448, 78.142 24.878, 75.260 23.301 C 68.843 19.787, 62 13.460, 62 11.041 C 62 9.863, 61.003 9.051, 59.088 8.668 C 57.028 8.256, 55.511 6.903, 53.904 4.043 L 51.632 -0 25.816 -0 L 0 0 0 72 M 186 2.893 C 186 5.702, 187.448 7, 190.582 7 C 191.536 7, 192 5.855, 192 3.500 C 192 0.278, 191.762 0, 189 0 C 186.358 0, 186 0.345, 186 2.893 M 138.096 140.044 L 132.692 144 141.360 144 L 150.028 144 147.381 140 C 145.925 137.800, 144.457 136.020, 144.117 136.044 C 143.778 136.069, 141.068 137.869, 138.096 140.044" stroke="none" fill="black" fill-rule="evenodd"/>
</svg>