<svg xmlns="http://www.w3.org/2000/svg" width="192" height="144" viewBox="0 0 192 144" version="1.1">
	<path d="M 37 0.466 C 37 0.722, 37.740 2.483, 38.644 4.379 C 39.723 6.642, 41.637 8.434, 44.216 9.598 C 49.026 11.767, 52 15.363, 52 19.012 C 52 21.648, 52.356 21.836, 61.250 23.908 C 66.338 25.093, 71.563 26.876, 72.862 27.870 L 75.225 29.678 72.670 31.688 C 71.190 32.852, 66.955 34.238, 62.605 34.982 L 55.095 36.267 57.048 40.093 C 59.541 44.981, 59.592 46.845, 57.171 44.655 C 54.705 42.423, 53.729 42.571, 54.518 45.058 C 55.581 48.405, 54.057 56.959, 52.505 56.364 C 51.742 56.071, 50.884 56.790, 50.481 58.060 C 49.949 59.736, 49.582 59.941, 48.948 58.916 C 48.327 57.911, 47.858 58.243, 47.105 60.223 C 46.550 61.684, 45.140 63.390, 43.972 64.015 C 42.034 65.052, 41.942 64.976, 42.924 63.141 C 44.556 60.093, 44.337 58.475, 42.500 60 C 39.853 62.197, 40.619 68.496, 44 72.347 C 45.650 74.226, 47 76.258, 47 76.862 C 47 77.465, 45.163 78.897, 42.917 80.042 C 40.430 81.311, 39.031 82.639, 39.339 83.441 C 40.036 85.258, 38.059 87, 35.300 87 C 32.819 87, 32.369 87.969, 34.063 89.663 C 34.813 90.413, 34.385 91.817, 32.606 94.439 C 31.221 96.480, 29.825 98.976, 29.505 99.983 C 28.640 102.709, 26.582 103.081, 21.274 101.470 C 18.648 100.674, 15.488 100.017, 14.250 100.011 C 12.231 100.001, 12 100.487, 12 104.750 C 12.001 109.248, 12.280 109.737, 17.250 113.953 C 20.138 116.403, 24.048 120.174, 25.939 122.334 C 27.831 124.493, 30.844 126.873, 32.636 127.621 C 34.427 128.370, 36.705 130.161, 37.697 131.603 C 38.688 133.044, 41.695 136.423, 44.379 139.112 L 49.257 144 97.521 144 L 145.785 144 151.317 138.024 C 158.051 130.751, 159.109 128.148, 156.133 126.172 C 153.140 124.185, 153.414 120.278, 156.750 117.384 C 160.936 113.752, 170.347 107, 171.223 107 C 172.764 107, 171.940 105.241, 168.750 101.717 C 163.298 95.696, 158 88.914, 158 87.957 C 158 87.459, 156.650 86.353, 155 85.500 C 151.236 83.553, 151.218 81.655, 154.923 77.435 C 157.617 74.366, 157.759 73.826, 156.743 70.515 C 156.033 68.200, 155.169 67.105, 154.312 67.434 C 153.580 67.715, 152.428 67.057, 151.750 65.972 C 150.253 63.574, 148.816 63.358, 149.701 65.664 C 150.131 66.783, 149.957 67.091, 149.170 66.605 C 148.526 66.207, 148 65.289, 148 64.563 C 148 63.838, 147.241 62.627, 146.313 61.872 C 144.816 60.655, 144.703 60.726, 145.315 62.500 C 145.973 64.407, 145.939 64.415, 144.583 62.669 C 143.800 61.661, 142.625 58.605, 141.971 55.877 C 140.939 51.579, 140.616 51.143, 139.546 52.607 C 138.416 54.152, 138.262 54.111, 137.742 52.122 C 137.241 50.205, 136.707 50.023, 133.219 50.581 C 129.540 51.169, 129.072 50.962, 126.509 47.601 L 123.754 43.989 120.377 46.076 C 117.459 47.879, 116.920 47.954, 116.410 46.627 C 116.086 45.782, 116.722 43.383, 117.822 41.295 C 118.923 39.208, 120.077 36.706, 120.386 35.735 C 120.696 34.764, 121.973 33.578, 123.224 33.100 C 125.452 32.248, 129.963 28, 128.640 28 C 127.553 28, 117.051 34.109, 116.441 35.095 C 115.375 36.820, 112.745 36.082, 113.238 34.197 C 114.176 30.610, 126.607 11.519, 131.066 6.816 C 137.550 -0.022, 140.674 0.307, 141.994 7.966 L 142.604 11.500 145.001 6.500 C 146.319 3.750, 147.571 1.162, 147.782 0.750 C 147.994 0.337, 123.154 -0, 92.583 -0 C 62.012 -0, 37 0.210, 37 0.466 M 132.231 10.750 C 127.530 16.752, 121.653 25.986, 122.192 26.525 C 122.464 26.797, 124.951 26.079, 127.718 24.928 C 132.089 23.112, 133.139 22.082, 135.712 17.094 C 137.863 12.923, 138.454 10.756, 137.869 9.176 C 136.741 6.125, 135.605 6.442, 132.231 10.750 M 158.183 118.217 C 156.773 119.627, 156.616 122, 157.933 122 C 158.915 122, 160.474 118.141, 159.775 117.441 C 159.550 117.217, 158.834 117.566, 158.183 118.217 M 26 128 C 26 128.550, 26.423 129, 26.941 129 C 27.459 129, 28.160 128.550, 28.500 128 C 28.840 127.450, 28.416 127, 27.559 127 C 26.702 127, 26 127.450, 26 128" stroke="none" fill="black" fill-rule="evenodd"/>
</svg>