<svg xmlns="http://www.w3.org/2000/svg" width="192" height="144" viewBox="0 0 192 144" version="1.1">
	<path d="M 113.985 4.516 C 110.147 8.426, 109.588 9.532, 109.812 12.766 C 109.955 14.820, 110.818 18.232, 111.732 20.348 C 113.336 24.066, 113.322 24.251, 111.310 25.848 C 109.332 27.418, 109.286 27.872, 110.390 34.961 C 111.427 41.620, 111.819 42.490, 114.026 43.050 C 115.387 43.395, 116.387 44.200, 116.250 44.839 C 116.112 45.477, 116.900 46, 118 46 C 119.463 46, 120 46.667, 120 48.484 C 120 50.273, 117.479 53.513, 111 60.054 C 102.798 68.335, 100.339 72, 102.987 72 C 103.530 72, 102.902 74.426, 101.591 77.390 C 97.873 85.798, 97.691 88.014, 99.941 97.487 C 102.914 110.007, 102.989 109.733, 96.399 110.556 C 89.923 111.365, 79.097 110.457, 75.458 108.799 C 74.080 108.171, 72.764 106.722, 72.534 105.579 C 71.205 98.978, 71.043 96.091, 71.969 95.519 C 72.536 95.169, 73 94.009, 73 92.941 C 73 91.873, 73.627 91, 74.393 91 C 76.695 91, 77.057 88.191, 75.330 83.720 C 74.433 81.399, 73.429 79.190, 73.100 78.812 C 72.047 77.604, 62.583 80.140, 60.291 82.243 C 58.941 83.483, 57.648 86.451, 56.964 89.885 C 56.349 92.973, 54.700 100.062, 53.299 105.638 C 50.262 117.732, 50.407 126.101, 53.775 133.044 C 55.533 136.668, 55.793 138.236, 55.059 140.794 L 54.140 144 68.637 144 C 81.980 144, 83.093 143.861, 82.605 142.250 C 81.670 139.165, 80.050 131.546, 80.024 130.116 C 79.992 128.285, 92.600 129.151, 99.950 131.484 C 101.596 132.007, 101.640 132.536, 100.495 138.026 L 99.248 144 123.624 144 C 137.031 144, 148 143.770, 148 143.489 C 148 143.208, 145.715 139.332, 142.923 134.876 C 137.140 125.650, 134.060 115.768, 134.024 106.332 C 133.997 99.265, 134.627 97, 136.619 97 C 137.696 97, 137.875 96.074, 137.388 93.023 C 136.829 89.530, 137.132 88.614, 139.876 85.489 C 141.594 83.532, 143 82.428, 143 83.037 C 143 83.656, 143.679 83.463, 144.544 82.599 C 145.935 81.207, 145.927 80.240, 144.454 72.778 C 142.256 61.641, 142.258 61.773, 144.250 61.456 C 145.213 61.302, 146 61.640, 146 62.205 C 146 62.774, 146.989 62.975, 148.213 62.655 C 149.552 62.304, 151.132 62.714, 152.213 63.693 C 153.876 65.198, 154 65.161, 154 63.155 C 154 60.745, 155.003 60.403, 156.800 62.200 C 157.733 63.133, 158 63.120, 158 62.141 C 158 61.449, 158.450 61.160, 159 61.500 C 160.419 62.377, 160.245 58.645, 158.800 57.200 C 158.133 56.533, 158.044 56, 158.600 56 C 159.150 56, 160.124 56.524, 160.764 57.164 C 162.605 59.005, 161.117 51.122, 158.882 47.193 C 156.508 43.021, 156.526 41.673, 159.057 34.407 C 162.970 23.173, 161.049 10.707, 154.348 3.844 L 150.594 0 134.505 0 L 118.416 0 113.985 4.516" stroke="none" fill="black" fill-rule="evenodd"/>
</svg>