<svg xmlns="http://www.w3.org/2000/svg" width="192" height="144" viewBox="0 0 192 144" version="1.1">
	<path d="M 147 11.500 C 147 12.325, 146.325 13, 145.500 13 C 144.675 13, 144 13.376, 144 13.835 C 144 14.294, 141.825 15.756, 139.166 17.085 L 134.332 19.500 134.612 26.758 C 134.766 30.751, 135.212 34.533, 135.602 35.165 C 136.105 35.979, 135.407 36.131, 133.194 35.689 C 131.480 35.346, 129.809 35.501, 129.480 36.033 C 128.690 37.311, 124 37.283, 124 36 C 124 34.505, 118.664 34.794, 116.454 36.410 C 114.652 37.727, 114.635 37.940, 116.185 39.660 C 117.097 40.672, 117.991 43.075, 118.172 45 C 118.579 49.345, 121.252 50.036, 126.136 47.058 C 127.986 45.930, 129.725 45.005, 130 45.003 C 130.275 45.001, 130.409 48.261, 130.297 52.249 C 130.079 60.075, 127.047 68.110, 122.468 73 C 116.827 79.024, 117.638 83.244, 125.176 87.090 C 128.872 88.975, 129.167 89.415, 128.610 92.201 C 128.274 93.878, 128 98.569, 128 102.625 C 128 109.875, 127.957 110, 125.434 110 C 119.799 110, 117.722 112.863, 120.250 117.144 C 121.250 118.838, 121.250 119.352, 120.250 119.714 C 119.563 119.963, 119 121.453, 119 123.024 C 119 124.596, 118.502 126.190, 117.893 126.566 C 117.122 127.043, 117.197 127.510, 118.143 128.110 C 120.852 129.826, 122.831 129.046, 123.500 126 C 123.862 124.350, 124.279 123, 124.426 123 C 124.573 123, 126.144 123.724, 127.917 124.609 C 132.260 126.775, 133.891 130.358, 131.659 132.825 C 129.830 134.845, 129.429 138, 131 138 C 132.648 138, 132.130 141.181, 130.250 142.608 C 128.713 143.774, 129.063 143.940, 133.112 143.968 C 137.673 144, 137.751 143.944, 140.098 139 C 142.103 134.779, 142.903 134, 145.236 134 C 150.224 134, 154.070 127.470, 150.931 124.331 C 150.259 123.659, 149.732 115.062, 149.512 101.194 C 149.178 80.074, 147.984 69.899, 144.942 62.257 C 143.678 59.080, 145.596 50.025, 148.009 47.777 C 150.468 45.486, 150.595 41.437, 148.250 40.106 C 146.698 39.226, 146.670 38.952, 148 37.694 C 149.562 36.215, 161.475 33.760, 166.250 33.933 C 167.762 33.987, 169 33.517, 169 32.887 C 169 31.783, 165.943 31.948, 154.972 33.640 L 151.444 34.185 151.526 29.814 C 151.571 27.410, 151.930 24.922, 152.324 24.285 C 152.717 23.649, 151.710 21.187, 150.086 18.814 C 148.246 16.127, 147.484 14.142, 148.066 13.550 C 149.304 12.291, 149.261 10, 148 10 C 147.450 10, 147 10.675, 147 11.500 M 72.500 12 C 72.160 12.550, 72.132 13.405, 72.438 13.899 C 72.743 14.394, 71.345 16.246, 69.329 18.016 C 66.190 20.772, 65.832 21.501, 66.832 23.103 C 67.475 24.131, 68 25.824, 68 26.864 C 68 27.904, 68.675 29.315, 69.500 30 C 71.326 31.515, 71.438 33.620, 69.750 34.700 C 69.063 35.140, 68.001 36.400, 67.391 37.500 C 66.781 38.600, 66.106 39.311, 65.891 39.081 C 65.676 38.851, 64.466 39.215, 63.202 39.892 C 61.597 40.751, 61.084 41.689, 61.500 43 C 62.158 45.073, 59.568 47, 56.125 47 C 52.971 47, 52.806 48.533, 55.652 51.379 C 58.809 54.537, 60.012 54.670, 60.725 51.943 C 61.029 50.779, 61.829 50.104, 62.568 50.388 C 63.285 50.663, 65.020 49.986, 66.422 48.883 C 68.694 47.095, 69.272 47.024, 71.736 48.231 C 73.256 48.976, 74.417 50.241, 74.315 51.043 C 74.214 51.844, 72.481 56.544, 70.464 61.487 C 65.251 74.264, 65.016 76.528, 68.681 78.631 C 71.491 80.244, 71.618 80.624, 71.701 87.658 C 71.748 91.696, 71.395 95, 70.917 95 C 70.438 95, 69.308 96.127, 68.405 97.505 C 67.029 99.605, 66.978 100.269, 68.091 101.609 C 68.821 102.489, 70.449 103.600, 71.709 104.079 C 75.234 105.419, 74.449 106.888, 69.500 108.211 C 64.635 109.512, 64.537 109.653, 65.938 113.336 C 67.073 116.322, 64.985 118.655, 60.719 119.166 C 57.521 119.550, 56.968 120.962, 59.428 122.464 C 60.746 123.269, 61.521 123.018, 62.898 121.342 C 65.082 118.684, 70.766 116.999, 73.785 118.116 C 77.473 119.480, 81.880 117.959, 86.166 113.841 C 89.437 110.697, 89.982 109.683, 89.022 108.526 C 87.626 106.845, 88.461 103.542, 91.153 100.096 C 92.837 97.939, 92.875 97.519, 91.515 96.017 C 90.682 95.096, 90 93.831, 90 93.206 C 90 92.581, 89.284 89.960, 88.408 87.382 L 86.817 82.694 89.908 80.275 C 93.420 77.526, 93.659 76.176, 91.406 71.818 C 89.923 68.950, 88.211 60.198, 87.531 52 C 87.371 50.075, 86.924 47.311, 86.539 45.858 C 86.082 44.137, 86.422 42.085, 87.513 39.975 C 89.230 36.654, 88.516 35.056, 85.297 35.015 C 84.541 35.006, 84.113 33.417, 84.146 30.750 C 84.289 19.244, 83.984 18.150, 80.302 16.935 C 78.232 16.252, 76.514 14.853, 75.963 13.402 C 75.008 10.890, 73.551 10.300, 72.500 12 M 3.688 16.646 C 3.309 17.024, 3 18.172, 3 19.198 C 3 20.224, 2.306 21.329, 1.457 21.655 C 0.135 22.162, -0.044 24.656, 0.207 39.122 C 0.411 50.855, 0.845 55.997, 1.633 55.998 C 2.257 55.999, 3.045 56.788, 3.384 57.750 C 3.724 58.712, 4.263 60.063, 4.584 60.750 C 4.970 61.578, 4.294 62, 2.583 62 L 0 62 0 73.827 L 0 85.654 3 85.213 C 5.480 84.849, 6 85.120, 6 86.772 C 6 87.872, 5.337 90.049, 4.527 91.610 C 3.136 94.293, 3.204 94.605, 5.777 97.316 C 7.275 98.893, 10.188 101.051, 12.250 102.112 C 14.313 103.173, 16 104.397, 16 104.832 C 16 105.268, 14.627 106.639, 12.950 107.879 C 11.272 109.119, 9.507 111.166, 9.028 112.427 C 8.388 114.110, 7.071 114.893, 4.078 115.372 C -0.752 116.144, -1.473 118.270, 3.250 117.814 C 6.243 117.525, 6.508 117.736, 6.604 120.488 C 6.717 123.722, 3.436 129, 1.312 129 C 0.346 129, 0 130.978, 0 136.500 L 0 144 7 144 C 10.850 144, 14 143.723, 14 143.384 C 14 143.045, 12.134 141.010, 9.854 138.863 C 7.574 136.715, 5.887 134.809, 6.104 134.627 C 6.322 134.444, 8.750 133.748, 11.500 133.079 C 16.013 131.981, 22 127.457, 22 125.144 C 22 124.741, 24.283 122.670, 27.074 120.542 C 30.454 117.964, 31.978 116.143, 31.640 115.086 C 30.027 110.052, 28.173 105.713, 27.394 105.148 C 26.653 104.611, 21.352 98.105, 17.741 93.301 C 17.093 92.439, 18.361 91.660, 22.257 90.528 C 25.236 89.662, 28.614 88.077, 29.764 87.005 C 31.596 85.299, 31.727 84.589, 30.828 81.279 C 30.263 79.200, 27.402 72.775, 24.470 67 C 12.939 44.288, 13.109 44.722, 14.758 42.238 C 15.949 40.444, 16.033 39.173, 15.183 35.821 C 14.484 33.067, 14.455 31.019, 15.098 29.816 C 15.881 28.353, 15.601 27.775, 13.684 26.902 C 12.369 26.303, 10.173 23.741, 8.805 21.209 C 6.301 16.576, 4.956 15.377, 3.688 16.646 M 4.658 67.707 C 2.952 68.147, 2.978 68.297, 5.016 69.724 C 6.825 70.991, 7.365 71.028, 8.043 69.931 C 8.897 68.549, 8.402 66.913, 7.191 67.116 C 6.811 67.180, 5.671 67.446, 4.658 67.707 M 76.860 84.250 C 76.216 94.605, 76.035 93.916, 79.579 94.581 C 83.920 95.395, 85.318 94.421, 84.516 91.141 C 83.653 87.616, 79.811 82.015, 78.250 82.007 C 77.563 82.003, 76.937 83.013, 76.860 84.250 M 134.883 91.750 C 134.296 93.263, 133.575 97.879, 133.281 102.009 L 132.747 109.518 137.508 110.791 C 140.127 111.491, 142.422 111.911, 142.610 111.724 C 142.797 111.537, 143.199 109.610, 143.504 107.442 C 143.809 105.274, 144.264 102.547, 144.515 101.383 C 144.766 100.219, 144.285 96.956, 143.447 94.133 C 142.054 89.442, 141.665 89, 138.937 89 C 136.605 89, 135.717 89.602, 134.883 91.750 M 69.500 112 C 69.840 112.550, 70.316 113, 70.559 113 C 70.802 113, 71 112.550, 71 112 C 71 111.450, 70.523 111, 69.941 111 C 69.359 111, 69.160 111.450, 69.500 112" stroke="none" fill="black" fill-rule="evenodd"/>
</svg>