<svg xmlns="http://www.w3.org/2000/svg" width="192" height="144" viewBox="0 0 192 144" version="1.1">
	<path d="M 0 72 L 0 144 27.155 144 C 52.964 144, 54.231 143.913, 52.725 142.248 C 46.193 135.031, 50.067 124.878, 61.500 119.245 C 82.575 108.862, 115.981 110.056, 134.251 121.846 C 142.107 126.916, 144.225 135.938, 138.892 141.614 L 136.621 144.032 164.561 143.766 L 192.500 143.500 192.757 71.750 L 193.013 0 96.507 0 L 0 0 0 72 M 0.474 72.500 C 0.474 112.100, 0.598 128.154, 0.750 108.176 C 0.901 88.198, 0.901 55.798, 0.750 36.176 C 0.598 16.554, 0.474 32.900, 0.474 72.500 M 101 118.514 C 101 118.647, 101.675 120.371, 102.500 122.346 C 103.325 124.320, 104 127.323, 104 129.019 C 104 131.625, 103.432 132.340, 100.324 133.638 C 96.287 135.325, 88.865 134.794, 87.220 132.701 C 85.576 130.610, 85.064 126.626, 85.941 122.750 C 86.913 118.452, 87.040 118.502, 80.229 120.525 C 73.527 122.515, 69.246 126.171, 68.412 130.616 C 67.611 134.886, 70.080 137.966, 77.217 141.599 C 81.525 143.792, 83.136 144, 95.828 144 C 109.181 144, 109.931 143.889, 115.042 141.158 C 121.756 137.570, 124.585 133.031, 122.554 129.104 C 119.922 124.015, 114.478 120.723, 106.212 119.220 C 103.345 118.699, 101 118.382, 101 118.514" stroke="none" fill="black" fill-rule="evenodd"/>
</svg>