<svg xmlns="http://www.w3.org/2000/svg" width="192" height="144" viewBox="0 0 192 144" version="1.1">
	<path d="M 130.828 5.577 C 126.898 6.787, 126.049 7.501, 125.483 10.075 C 124.763 13.354, 124.529 13.506, 118.636 14.489 C 112.729 15.474, 105.295 22.852, 104.436 28.580 C 103.607 34.104, 104.408 37.360, 107.262 40.070 L 109.500 42.194 107.397 43.622 L 105.294 45.049 107.551 51.774 L 109.809 58.500 113.904 58.807 C 117.943 59.111, 118 59.169, 118 62.999 C 118 66.492, 117.397 67.413, 112 72.163 C 108.700 75.068, 106 78.020, 106 78.722 C 106 80.418, 105.475 80.361, 97.944 77.857 C 93.617 76.418, 90.438 74.576, 88.267 72.250 C 85.269 69.037, 84.726 68.835, 80.767 69.450 C 78.420 69.814, 75.037 70.166, 73.250 70.231 C 71.463 70.297, 70 70.721, 70 71.175 C 70 71.629, 70.473 72, 71.051 72 C 71.629 72, 72.760 73.575, 73.564 75.500 C 74.369 77.425, 75.459 79, 75.988 79 C 77.307 79, 80 84.416, 80 87.071 C 80 88.264, 81.176 93.936, 82.613 99.674 C 84.050 105.412, 84.948 110.385, 84.609 110.724 C 84.270 111.064, 82.981 110.400, 81.746 109.251 C 80.511 108.101, 76.003 105.280, 71.728 102.981 C 67.088 100.486, 60.786 95.820, 56.088 91.401 C 47.294 83.128, 44.415 82.191, 41.493 86.651 L 39.756 89.303 45.411 94.263 C 48.522 96.992, 51.744 100.636, 52.572 102.362 C 58.867 115.485, 59.591 116.116, 70.177 117.683 C 77.378 118.749, 80.012 119.587, 81.974 121.438 C 83.363 122.749, 87.316 125.460, 90.757 127.463 C 96.190 130.625, 96.882 131.352, 96.007 132.986 C 94.682 135.463, 94.733 138.321, 96.161 141.453 L 97.321 144 122.567 144 C 147.225 144, 147.801 143.954, 147.296 142.022 C 147.011 140.935, 145.293 138.469, 143.477 136.544 C 140.549 133.439, 140.086 132.163, 139.393 125.271 C 138.963 120.997, 138.681 115.356, 138.767 112.734 C 138.890 108.977, 138.508 107.710, 136.962 106.744 C 134.422 105.158, 134.398 103.608, 136.934 104.965 C 139.397 106.283, 143.695 106.303, 144.500 105 C 144.840 104.450, 145.991 104, 147.059 104 C 148.127 104, 149 103.581, 149 103.070 C 149 102.558, 150.012 101.995, 151.250 101.820 C 152.488 101.644, 153.556 100.938, 153.625 100.250 C 153.919 97.308, 154.049 97, 155 97 C 155.550 97, 156 97.675, 156 98.500 C 156 99.325, 156.406 100, 156.902 100 C 157.398 100, 157.172 102.099, 156.400 104.665 C 154.832 109.876, 155.264 111.328, 157.519 108.427 C 158.887 106.667, 158.962 106.956, 158.380 111.750 C 157.938 115.387, 158.093 117, 158.883 117 C 159.661 117, 159.812 118.324, 159.357 121.166 C 158.762 124.889, 158.881 125.260, 160.474 124.648 C 162.011 124.059, 162.174 124.381, 161.654 126.982 C 160.961 130.443, 161.533 130.715, 164.324 128.250 C 166.256 126.543, 166.291 126.576, 165.718 129.547 C 165.395 131.223, 165.475 133.151, 165.896 133.831 C 166.968 135.566, 169.693 134.281, 170.362 131.724 C 170.669 130.549, 171.176 129.843, 171.488 130.155 C 171.801 130.467, 171.659 131.798, 171.173 133.111 C 170.688 134.425, 169.995 137.412, 169.633 139.750 L 168.976 144 180.488 144 L 192 144 191.989 111.250 L 191.978 78.500 185.848 75 C 178.086 70.568, 170.909 64.168, 165.732 57.058 C 163.505 54.001, 161.569 51.352, 161.428 51.170 C 161.288 50.989, 159.614 52.542, 157.708 54.621 L 154.243 58.402 153.438 51.951 C 152.995 48.403, 152.753 42.980, 152.900 39.900 C 153.238 32.797, 150.826 24.612, 146.987 19.835 C 145.183 17.590, 144 14.947, 144 13.162 C 144 11.032, 143.014 9.341, 140.465 7.104 C 136.452 3.580, 137.024 3.670, 130.828 5.577 M 150.543 54.931 C 150.226 55.443, 150.425 56.144, 150.984 56.490 C 151.543 56.835, 152 56.416, 152 55.559 C 152 53.802, 151.400 53.544, 150.543 54.931 M 90.912 78.419 C 90.863 78.464, 90.656 80.691, 90.452 83.369 C 90.198 86.695, 90.656 89.387, 91.898 91.869 C 92.898 93.866, 94.054 96.850, 94.466 98.500 C 95.143 101.209, 95.291 101.303, 95.996 99.465 C 96.425 98.346, 97.502 96.829, 98.388 96.093 C 99.275 95.357, 100 93.541, 100 92.056 C 100 90.572, 100.861 87.589, 101.913 85.429 C 102.965 83.268, 103.681 81.354, 103.505 81.175 C 103.211 80.878, 91.117 78.232, 90.912 78.419 M 133.491 116.210 C 132.999 119.490, 133.243 121.558, 134.365 123.629 C 135.919 126.498, 135.920 126.497, 135.945 120.500 C 135.977 112.665, 134.429 109.958, 133.491 116.210" stroke="none" fill="black" fill-rule="evenodd"/>
</svg>