<svg xmlns="http://www.w3.org/2000/svg" width="192" height="144" viewBox="0 0 192 144" version="1.1">
	<path d="M 126.966 10.319 C 123.390 13.718, 119.010 17.267, 117.232 18.203 C 113.453 20.195, 113.085 21.707, 116.250 22.239 C 118.492 22.616, 118.491 22.621, 116 23.715 C 114.625 24.318, 111.250 25.192, 108.500 25.656 C 104.485 26.334, 103.440 26.920, 103.196 28.633 C 102.966 30.243, 103.645 31.029, 105.961 31.837 C 108.204 32.619, 109.193 33.714, 109.630 35.902 C 109.960 37.550, 111.078 39.666, 112.115 40.604 C 114.400 42.672, 114.530 44.604, 112.461 45.762 C 111.109 46.519, 111.096 46.956, 112.351 49.375 C 113.137 50.890, 113.562 52.961, 113.296 53.978 C 112.857 55.656, 112.244 55.496, 106.656 52.242 C 103.270 50.270, 97.740 46.142, 94.367 43.068 C 90.601 39.636, 86.259 36.769, 83.117 35.639 C 79.812 34.451, 77.988 33.215, 77.967 32.150 C 77.909 29.265, 74.275 25.778, 72.061 26.481 C 69.872 27.176, 69.258 25.723, 68.767 18.682 L 68.500 14.864 66.296 16.928 C 61.465 21.453, 62.386 28.623, 68.670 35.399 C 70.986 37.897, 71.116 38.493, 70.181 42.316 C 68.409 49.568, 67.657 61.670, 68.930 62.456 C 69.557 62.844, 72.512 62.150, 75.495 60.914 L 80.919 58.666 86.709 62.213 C 89.894 64.165, 94.750 66.904, 97.500 68.301 C 107.209 73.232, 106.997 72.492, 101.576 82.517 C 97.546 89.971, 96.915 91.866, 97.450 94.909 C 98.829 102.752, 98.367 105.169, 94.295 111.419 C 91.140 116.262, 90.781 119.257, 93.639 116.884 C 94.806 115.916, 95.443 116.015, 96.800 117.372 C 98.260 118.833, 98.450 120.834, 98.146 131.550 L 97.792 144.027 131.646 143.763 L 165.500 143.500 166.005 136 C 166.690 125.840, 165.065 115.098, 160.407 99 C 156.864 86.752, 156.503 84.434, 156.522 74 C 156.534 67.675, 156.924 61.600, 157.389 60.500 C 157.854 59.400, 158.149 55.884, 158.044 52.686 C 157.911 48.642, 158.370 46.085, 159.551 44.282 C 161.636 41.100, 161.067 33.056, 158.352 27.318 C 154.593 19.374, 140.215 8.926, 134.940 10.305 C 132.889 10.842, 132.294 9.106, 133.958 7.442 C 134.485 6.915, 134.590 5.955, 134.192 5.310 C 133.713 4.536, 131.254 6.240, 126.966 10.319" stroke="none" fill="black" fill-rule="evenodd"/>
</svg>