<svg xmlns="http://www.w3.org/2000/svg" width="192" height="144" viewBox="0 0 192 144" version="1.1">
	<path d="M 84 55.228 C 84 57.909, 86.270 63.270, 88.238 65.238 C 89.303 66.303, 90.814 68.703, 91.594 70.571 C 93.290 74.630, 117.017 105.958, 138.877 133 C 140.434 134.925, 142.239 137.512, 142.889 138.750 C 143.539 139.988, 144.807 141, 145.706 141 C 146.606 141, 148.168 141.747, 149.177 142.661 C 150.187 143.574, 151.315 144.019, 151.684 143.649 C 152.452 142.881, 148.625 135.519, 145.855 132.436 C 144.835 131.300, 144 129.875, 144 129.269 C 144 128.663, 143.644 128.017, 143.210 127.833 C 142.775 127.650, 140.863 125.275, 138.960 122.556 C 137.057 119.837, 134.904 116.912, 134.175 116.056 C 132.410 113.983, 127.547 106.951, 113.557 86.243 C 107.145 76.751, 100.520 67.976, 98.835 66.743 C 97.150 65.509, 94.207 62.065, 92.295 59.088 C 89.771 55.160, 88.590 54.046, 87.985 55.024 C 87.298 56.136, 86.877 56.143, 85.576 55.063 C 84.263 53.973, 84 54.001, 84 55.228" stroke="none" fill="black" fill-rule="evenodd"/>
</svg>