<svg xmlns="http://www.w3.org/2000/svg" width="192" height="144" viewBox="0 0 192 144" version="1.1">
	<path d="M 0 72 L 0 144 44 144 L 88 144 88.013 141.250 C 88.020 139.738, 88.904 134.246, 89.977 129.047 C 91.049 123.848, 91.793 119.459, 91.629 119.295 C 91.464 119.131, 89.568 121.222, 87.415 123.941 C 82.601 130.021, 78.357 132.209, 76.446 129.596 C 74.682 127.182, 76.215 123.115, 80.585 118.616 L 84.031 115.067 81.266 113.284 C 77.176 110.647, 75.255 108.052, 73.440 102.709 L 71.812 97.919 75.620 92.390 L 79.427 86.862 77.112 75.417 C 75.839 69.123, 75.048 63.318, 75.355 62.518 C 76.425 59.730, 88 56.371, 88 58.849 C 88 59.315, 86.875 64.783, 85.500 71 C 82.483 84.638, 82.459 85.497, 85 88.727 C 87.161 91.474, 87.639 97.189, 86.057 101.350 C 85.329 103.265, 85.461 103.963, 86.639 104.415 C 89.553 105.533, 90.166 105.031, 89.513 102.059 C 88.768 98.666, 89.829 96.275, 94.821 90.101 C 98.366 85.716, 98.378 85.669, 98.405 75.601 C 98.419 70.045, 97.946 63.879, 97.354 61.897 C 95.904 57.047, 92.242 52.275, 88.801 50.752 C 87.247 50.064, 85.734 48.737, 85.437 47.802 C 85.088 46.703, 84.297 46.321, 83.199 46.721 C 81.496 47.340, 82.446 45.867, 86.750 41.210 C 88.675 39.127, 88.290 37.915, 84.478 34.061 C 82.540 32.102, 80.174 29.460, 79.219 28.189 C 77.578 26.005, 77.233 25.945, 72.896 27.105 C 70.373 27.780, 67.557 28.044, 66.639 27.692 C 62.576 26.132, 62.200 14.559, 66.053 9.659 C 67.082 8.351, 70.079 6.655, 72.712 5.891 C 78.852 4.107, 95.177 4.097, 101 5.872 C 103.475 6.627, 108.877 8.314, 113.003 9.622 C 125.116 13.461, 127.065 12.991, 141.400 2.779 L 145.300 -0 72.650 -0 L 0 0 0 72 M 175.810 3.500 C 176.248 7.248, 174.699 8.164, 172.005 5.750 C 171.238 5.063, 172.045 6.200, 173.799 8.278 C 181.050 16.868, 182.431 23.443, 179.520 35.500 C 176.720 47.097, 177.148 48.905, 184.657 57.171 C 188.319 61.202, 191.469 64.687, 191.657 64.917 C 191.846 65.146, 192 50.633, 192 32.667 L 192 0 183.701 0 L 175.402 0 175.810 3.500 M 67 14.057 C 67 16.497, 69.302 24, 70.051 24 C 71.260 24, 75 18.431, 75 16.631 C 75 15.773, 74.130 14.605, 73.066 14.035 C 70.555 12.692, 67 12.704, 67 14.057 M 65.070 20.191 C 65.032 21.671, 65.450 23.160, 66 23.500 C 67.194 24.238, 67.194 22.278, 66 19.500 C 65.233 17.714, 65.133 17.788, 65.070 20.191 M 81.109 23.932 C 79.453 24.956, 80.373 28.123, 83.026 30.523 C 84.956 32.270, 85 32.231, 85 28.777 C 85 24.903, 83.189 22.647, 81.109 23.932 M 87 25.950 C 87 28.836, 89.576 36.007, 90.779 36.469 C 92.768 37.232, 97.003 35.985, 96.984 34.642 C 96.975 34.014, 95.738 32.111, 94.234 30.412 C 91.135 26.912, 87 24.362, 87 25.950 M 134 59.777 C 134 60.205, 134.714 61.574, 135.587 62.820 C 136.900 64.695, 136.949 65.356, 135.875 66.651 C 134.787 67.962, 134.885 68.443, 136.479 69.608 C 137.526 70.374, 139.432 71, 140.714 71 C 142.913 71, 142.961 70.869, 141.550 68.716 C 140.727 67.460, 139.901 65.434, 139.715 64.214 C 139.273 61.318, 134 57.224, 134 59.777 M 144 65.797 C 144 69.200, 147.823 73, 151.247 73 L 154.349 73 151.924 70.402 C 150.591 68.973, 148.262 66.918, 146.750 65.834 C 144.044 63.896, 144 63.895, 144 65.797 M 102.583 72.643 C 101.567 75.291, 102.882 75.563, 105.250 73.194 L 107.444 71 105.329 71 C 104.166 71, 102.930 71.739, 102.583 72.643 M 136.443 81.305 C 137.840 101.880, 139.638 110.440, 144.872 121.425 C 149.532 131.205, 151.139 135.422, 152.429 141.250 L 153.038 144 172.519 144 L 192 144 192 127.382 L 192 110.764 189 107.347 C 186.652 104.673, 186 102.987, 186 99.591 L 186 95.251 177.750 94.759 C 165.679 94.039, 156.039 88.989, 147.739 79.037 C 144.533 75.193, 141.798 72.967, 139.364 72.220 L 135.750 71.111 136.443 81.305 M 149 74.772 C 149 76.046, 155.011 82.936, 157.097 84.052 C 158.916 85.026, 158.998 84.821, 158.400 80.795 C 158.049 78.433, 157.055 75.938, 156.190 75.250 C 154.477 73.888, 149 73.524, 149 74.772 M 159.470 80.209 C 160.523 85.567, 162.019 87.709, 165.866 89.365 C 171.089 91.612, 176.208 91.843, 179 89.956 C 180.254 89.108, 179.925 88.440, 177 85.889 C 173.279 82.643, 165.900 78.694, 161.490 77.587 C 158.923 76.943, 158.847 77.041, 159.470 80.209 M 189.035 103.059 C 189.016 103.916, 189.661 105.491, 190.468 106.559 C 192.348 109.045, 192.370 107.272, 190.500 104 C 189.584 102.398, 189.058 102.060, 189.035 103.059 M 147.761 141.530 C 148.021 142.889, 148.872 144, 149.652 144 C 150.747 144, 150.833 143.557, 150.030 142.056 C 148.427 139.061, 147.236 138.786, 147.761 141.530" stroke="none" fill="black" fill-rule="evenodd"/>
</svg>