<svg xmlns="http://www.w3.org/2000/svg" width="192" height="144" viewBox="0 0 192 144" version="1.1">
	<path d="M -0 72.005 L -0 144.010 96.250 143.755 L 192.500 143.500 192.757 71.750 L 193.013 0 96.507 0 L 0 0 -0 72.005 M 0.474 72.500 C 0.474 112.100, 0.598 128.154, 0.750 108.176 C 0.901 88.198, 0.901 55.798, 0.750 36.176 C 0.598 16.554, 0.474 32.900, 0.474 72.500 M 69.449 50.057 C 68.129 51.514, 66.847 51.948, 65.044 51.544 L 62.500 50.976 65.210 53.243 C 69.486 56.821, 67.633 58.023, 56.911 58.628 C 49.522 59.045, 47.058 59.570, 45.443 61.072 C 43.850 62.554, 43.117 62.717, 42.193 61.793 C 41.269 60.869, 41 60.938, 41 62.100 C 41 64.543, 50.191 75.254, 55.147 78.587 C 66.421 86.168, 113.383 90.651, 132.788 85.999 C 144.389 83.218, 147.336 81.562, 146.715 78.172 C 146.102 74.823, 142.314 64.914, 141.235 63.835 C 139.291 61.891, 106.612 58.044, 91.750 58.009 C 88.252 58.001, 88 57.798, 88 55 C 88 52.127, 87.820 52.003, 83.750 52.063 C 80.193 52.116, 79.867 52.274, 81.750 53.031 C 83.049 53.553, 84 54.795, 84 55.968 C 84 57.730, 83.359 58, 79.167 58 C 73.313 58, 72.546 57.404, 75.004 54.766 C 76.645 53.004, 76.702 52.559, 75.444 51.301 C 74.650 50.507, 74 49.439, 74 48.929 C 74 47.285, 71.366 47.938, 69.449 50.057" stroke="none" fill="black" fill-rule="evenodd"/>
</svg>