<svg xmlns="http://www.w3.org/2000/svg" width="192" height="144" viewBox="0 0 192 144" version="1.1">
	<path d="M -0 71.990 L -0 144.010 96.250 143.755 L 192.500 143.500 192.757 71.750 L 193.013 0 137.895 0 L 82.777 0 83.431 3.484 C 84.961 11.642, 91.206 32.634, 93.987 38.971 C 97.155 46.188, 97.932 49.770, 95.718 46.946 C 95.048 46.092, 92.025 43.528, 89 41.250 C 79.851 34.358, 71.581 24.239, 61.931 8.128 L 57.362 0.500 28.681 0.235 L 0 -0.031 -0 71.990 M 0.474 72.500 C 0.474 112.100, 0.598 128.154, 0.750 108.176 C 0.901 88.198, 0.901 55.798, 0.750 36.176 C 0.598 16.554, 0.474 32.900, 0.474 72.500 M 95.192 55.075 C 95.389 55.666, 95.977 56.150, 96.500 56.150 C 97.023 56.150, 97.611 55.666, 97.808 55.075 C 98.005 54.484, 97.417 54, 96.500 54 C 95.583 54, 94.995 54.484, 95.192 55.075" stroke="none" fill="black" fill-rule="evenodd"/>
</svg>