<svg xmlns="http://www.w3.org/2000/svg" width="192" height="144" viewBox="0 0 192 144" version="1.1">
	<path d="M 55.500 5.017 C 48.496 7.175, 40.589 16.464, 39.394 23.937 C 37.771 34.089, 47.491 45, 58.160 45 C 63.390 45, 62.324 46.308, 55.500 48.264 C 51.350 49.453, 50.448 50.130, 50.194 52.245 C 50.025 53.646, 49.013 55.584, 47.944 56.551 C 45.272 58.969, 45.495 61, 48.432 61 C 51.357 61, 55.246 65.946, 54.922 69.254 C 54.801 70.489, 54.957 72.175, 55.267 73 C 55.578 73.825, 56.091 81.007, 56.407 88.959 C 56.723 96.912, 57.436 106.024, 57.991 109.209 C 59.534 118.062, 60.742 125.641, 62.143 135.250 C 63.304 143.206, 63.619 144, 65.615 144 C 67.690 144, 67.785 143.656, 67.357 137.750 C 67.108 134.313, 66.664 130.375, 66.371 129 C 65.836 126.490, 64.908 120.514, 63.034 107.500 C 61.573 97.356, 60.646 85, 61.346 85 C 61.677 85, 62.643 86.342, 63.491 87.983 C 65.537 91.940, 69.453 93.821, 79.207 95.536 C 83.653 96.318, 87.524 97.190, 87.808 97.475 C 88.446 98.113, 86.750 101.413, 83.476 105.901 C 79.373 111.527, 78.704 115.979, 78.918 136.250 L 79 144 94.094 144 L 109.188 144 108.505 139.035 C 107.641 132.755, 109.263 127.661, 112.966 125.025 L 115.787 123.015 116.326 125.258 C 116.622 126.491, 117.396 131.213, 118.047 135.750 L 119.230 144 130.534 144 L 141.839 144 140.805 140.250 C 140.236 138.188, 138.283 133.546, 136.466 129.935 L 133.162 123.371 135.614 110.935 C 138.774 94.911, 141.586 87, 144.122 87 C 144.605 87, 145 87.675, 145 88.500 C 145 91.166, 147.017 90.113, 152.595 84.536 C 157.835 79.296, 162.970 70.487, 162.990 66.702 C 162.996 65.713, 161.762 63.752, 160.250 62.343 C 157.756 60.020, 156.964 59.837, 151.750 60.375 C 148.588 60.702, 146.010 60.639, 146.022 60.235 C 146.034 59.831, 149.441 57.364, 153.592 54.752 C 159.952 50.752, 161.463 50.177, 163.189 51.101 C 164.701 51.910, 166.775 51.856, 171.118 50.892 C 177.283 49.525, 178.482 47.942, 175 45.768 C 172.444 44.172, 172.444 43, 175 43 C 177.189 43, 177.571 41.971, 175.976 40.376 C 175.277 39.677, 176.866 37.816, 180.982 34.515 C 184.298 31.855, 186.814 29.481, 186.573 29.239 C 185.626 28.293, 177.979 31.518, 167 37.494 C 158.057 42.362, 142.813 49, 140.579 49 C 140.413 49, 140.476 47.960, 140.719 46.689 C 140.984 45.302, 140.490 43.822, 139.484 42.986 C 138.037 41.786, 137.681 41.819, 136.891 43.230 C 136.388 44.130, 134.648 45.528, 133.024 46.338 C 130.562 47.566, 129.374 47.604, 125.861 46.567 C 119.563 44.707, 113.202 46.153, 109.711 50.237 C 106.373 54.142, 105.354 57.517, 106.937 59.424 C 108.381 61.164, 106.788 62.385, 104.162 61.552 C 102.325 60.968, 102.142 61.394, 99.305 72.881 C 98.904 74.503, 99.240 75.555, 100.358 76.181 C 102.447 77.349, 102.429 79.033, 100.279 83.540 C 98.815 86.611, 98.181 87.066, 96.029 86.590 C 94.638 86.283, 88.985 85.495, 83.467 84.838 L 73.434 83.644 70.474 76.572 C 68.846 72.682, 67.510 68.825, 67.507 68 C 67.503 67.175, 66.699 65.322, 65.721 63.881 C 64.016 61.371, 64.016 61.133, 65.721 58.138 C 67.410 55.171, 69 54.044, 69 55.815 C 69 57.215, 75.910 60, 79.385 60 C 81.209 60, 84.154 59.494, 85.929 58.875 C 88.351 58.031, 89.801 58.044, 91.740 58.927 C 93.821 59.875, 94.604 59.825, 95.761 58.668 C 97.010 57.419, 96.980 56.900, 95.535 54.694 C 94.121 52.536, 94.051 51.561, 95.066 48.175 C 97.491 40.081, 92.814 31.101, 85.241 29.310 C 81.364 28.393, 81.441 28.518, 79.022 19.233 C 77.789 14.505, 73.178 8.660, 68.957 6.478 C 65.239 4.555, 59.147 3.894, 55.500 5.017 M 58.158 82 C 58.158 83.375, 58.385 83.938, 58.662 83.250 C 58.940 82.563, 58.940 81.438, 58.662 80.750 C 58.385 80.063, 58.158 80.625, 58.158 82 M 58 89 C 58 90.867, 58.267 91.133, 59.200 90.200 C 60.133 89.267, 60.133 88.733, 59.200 87.800 C 58.267 86.867, 58 87.133, 58 89 M 59.079 96.583 C 59.127 97.748, 59.364 97.985, 59.683 97.188 C 59.972 96.466, 59.936 95.603, 59.604 95.271 C 59.272 94.939, 59.036 95.529, 59.079 96.583 M 59 103 C 59 104.100, 59.450 105, 60 105 C 60.550 105, 61 104.100, 61 103 C 61 101.900, 60.550 101, 60 101 C 59.450 101, 59 101.900, 59 103 M 60.079 109.583 C 60.127 110.748, 60.364 110.985, 60.683 110.188 C 60.972 109.466, 60.936 108.603, 60.604 108.271 C 60.272 107.939, 60.036 108.529, 60.079 109.583 M 61 117 C 61 118.100, 61.450 119, 62 119 C 62.550 119, 63 118.100, 63 117 C 63 115.900, 62.550 115, 62 115 C 61.450 115, 61 115.900, 61 117 M 62.015 123.191 C 62.007 124.121, 62.450 125.160, 63 125.500 C 64.266 126.282, 64.266 124.958, 63 123 C 62.165 121.707, 62.029 121.734, 62.015 123.191 M 63 130.441 C 63 131.234, 63.450 132.160, 64 132.500 C 64.550 132.840, 65 132.191, 65 131.059 C 65 129.927, 64.550 129, 64 129 C 63.450 129, 63 129.648, 63 130.441 M 64 137.441 C 64 138.298, 64.450 139, 65 139 C 65.550 139, 66 138.577, 66 138.059 C 66 137.541, 65.550 136.840, 65 136.500 C 64.450 136.160, 64 136.584, 64 137.441" stroke="none" fill="black" fill-rule="evenodd"/>
</svg>