<svg xmlns="http://www.w3.org/2000/svg" width="192" height="144" viewBox="0 0 192 144" version="1.1">
	<path d="M -0 72.005 L -0 144.010 96.250 143.755 L 192.500 143.500 192.757 71.750 L 193.013 0 150.507 0 C 127.128 0, 108 0.115, 108 0.257 C 108 0.398, 108.470 2.085, 109.045 4.007 C 109.620 5.928, 110.087 10.297, 110.082 13.717 C 110.073 20.947, 108.228 25.206, 102.080 32.179 C 99.811 34.752, 97.371 37.984, 96.657 39.361 C 95.366 41.849, 95.316 41.808, 88.578 32.812 C 84.849 27.834, 81.168 22.254, 80.399 20.412 C 78.654 16.236, 78.666 8.681, 80.426 3.750 L 81.764 -0 40.882 -0 L 0 0 -0 72.005 M 0.474 72.500 C 0.474 112.100, 0.598 128.154, 0.750 108.176 C 0.901 88.198, 0.901 55.798, 0.750 36.176 C 0.598 16.554, 0.474 32.900, 0.474 72.500 M 90.703 49.630 C 90.316 50.017, 89.992 51.271, 89.983 52.417 C 89.973 53.563, 88.848 55.560, 87.483 56.855 C 85.958 58.301, 85 60.322, 85 62.092 C 85 64.342, 84.167 65.501, 81.208 67.369 C 77.225 69.883, 71 76.388, 71 78.035 C 71 78.566, 71 79.338, 71 79.750 C 71 80.162, 71.486 80.500, 72.081 80.500 C 72.675 80.500, 73.760 81.320, 74.493 82.321 C 75.626 83.870, 76.372 83.991, 79.487 83.131 C 84.804 81.663, 85.896 82.426, 85.564 87.380 C 85.409 89.703, 84.769 92.564, 84.141 93.736 C 83.513 94.909, 83 98.388, 83 101.466 C 83 108.083, 81.291 112.589, 76.299 119.135 C 74.283 121.779, 72.559 124.951, 72.468 126.183 C 72.305 128.395, 75.434 131.902, 77.628 131.967 C 78.248 131.985, 79.315 132.675, 80 133.500 C 80.751 134.405, 82.939 135, 85.515 135 C 90.181 135, 91.100 136.025, 90.280 140.313 C 89.871 142.456, 90.145 142.997, 91.633 142.985 C 92.660 142.976, 94.157 142.554, 94.960 142.046 C 96.220 141.249, 96.186 140.863, 94.710 139.232 C 92.583 136.881, 92.505 134.127, 94.543 133.345 C 96.745 132.500, 97.500 133.646, 97.500 137.834 C 97.500 140.833, 97.864 141.500, 99.500 141.500 C 101.500 141.500, 101.851 140.019, 100.578 136.944 C 100.190 136.004, 100.938 134.220, 102.466 132.444 C 105.449 128.975, 105.372 129.621, 103.542 123.432 C 101.880 117.809, 99 101.916, 99 98.369 C 99 95.302, 100.790 95.318, 101.960 98.395 C 103.040 101.236, 104.845 102.067, 107.250 100.830 C 109.032 99.913, 109.730 96, 108.111 96 C 107.622 96, 107.285 96.739, 107.361 97.642 C 107.558 99.968, 105.119 100.541, 104.422 98.333 C 104.104 97.325, 103.274 95.375, 102.578 94 C 101.883 92.625, 101.392 89.804, 101.487 87.732 C 101.585 85.617, 101.077 83.479, 100.331 82.859 C 97.969 80.899, 98.903 80, 103.300 80 C 105.665 80, 108.140 79.460, 108.800 78.800 C 109.733 77.867, 110.267 77.867, 111.200 78.800 C 111.860 79.460, 113.097 79.971, 113.950 79.937 C 114.901 79.898, 114.630 79.524, 113.250 78.969 C 112.013 78.471, 111 77.672, 111 77.193 C 111 75.960, 115.632 74, 118.547 74 C 120.772 74, 121.510 73.023, 121.083 70.645 C 120.999 70.174, 121.401 69.222, 121.977 68.527 C 122.720 67.632, 122.648 66.953, 121.729 66.190 C 119.245 64.128, 110.812 61, 107.738 61 C 105.477 61, 103.777 60.056, 101.436 57.500 C 99.673 55.575, 97.293 54, 96.147 54 C 94.933 54, 93.509 52.942, 92.735 51.464 C 92.004 50.069, 91.090 49.244, 90.703 49.630" stroke="none" fill="black" fill-rule="evenodd"/>
</svg>