<svg xmlns="http://www.w3.org/2000/svg" width="192" height="144" viewBox="0 0 192 144" version="1.1">
	<path d="M 0 72 L 0 144 38.885 144 L 77.770 144 79.539 138.750 C 80.566 135.701, 81.232 131.077, 81.126 127.719 C 81.013 124.116, 81.897 118.463, 83.472 112.719 C 84.861 107.648, 86.002 102.600, 86.005 101.500 C 86.009 100.400, 86.584 98.375, 87.282 97 C 88.090 95.408, 88.320 92.865, 87.915 90 C 87.565 87.525, 87.489 84.938, 87.746 84.250 C 88.312 82.739, 86.385 82.569, 85.470 84.049 C 85.028 84.764, 84.370 84.722, 83.399 83.916 C 81.491 82.333, 83.391 80, 86.589 80 C 87.878 80, 90.515 79.245, 92.450 78.322 C 95.281 76.973, 96.411 76.874, 98.234 77.818 C 99.480 78.463, 102.267 79.344, 104.426 79.775 C 108.822 80.653, 110.322 82.841, 107.105 83.683 C 104.711 84.309, 104.500 85.661, 106.165 89.685 C 106.806 91.233, 107.250 95.292, 107.151 98.704 C 107.020 103.221, 107.777 107.417, 109.936 114.130 C 111.567 119.201, 112.643 123.768, 112.328 124.279 C 110.983 126.455, 111.130 134.850, 112.591 139.262 L 114.168 144.023 153.334 143.762 L 192.500 143.500 192.757 71.750 L 193.013 0 96.507 0 L 0 0 0 72 M 0.474 72.500 C 0.474 112.100, 0.598 128.154, 0.750 108.176 C 0.901 88.198, 0.901 55.798, 0.750 36.176 C 0.598 16.554, 0.474 32.900, 0.474 72.500" stroke="none" fill="black" fill-rule="evenodd"/>
</svg>