<svg xmlns="http://www.w3.org/2000/svg" width="192" height="144" viewBox="0 0 192 144" version="1.1">
	<path d="M 0 72 L 0 144 33.094 144 L 66.187 144 66.760 141.808 C 67.076 140.602, 69.777 134.640, 72.764 128.558 C 75.751 122.476, 79.686 113, 81.508 107.500 C 83.330 102, 85.536 95.827, 86.410 93.782 C 88.471 88.962, 88.414 88, 86.067 88 C 83.741 88, 83.127 86.059, 83.451 79.734 C 83.652 75.819, 83.258 74.531, 81.247 72.519 C 78.029 69.302, 75.805 68.684, 71.611 69.842 C 67.109 71.085, 64.717 69.444, 62.476 63.576 C 60.801 59.191, 60.811 59.092, 63.520 53.324 C 65.024 50.121, 67.660 46.282, 69.377 44.792 C 72.159 42.380, 79.950 39.206, 87 37.611 C 88.863 37.190, 90.264 35.447, 92.500 30.773 C 94.504 26.583, 96.663 23.740, 99 22.211 C 101.196 20.775, 103.331 18.074, 104.731 14.961 C 105.957 12.233, 107.349 10, 107.822 10 C 108.803 10, 111.183 17.279, 110.771 19.019 C 110.622 19.649, 112.075 20.690, 114 21.332 C 117.003 22.334, 118.032 23.595, 121.245 30.210 C 124.767 37.460, 125.244 37.988, 129.245 39.051 C 137.051 41.127, 142.768 45.010, 148.005 51.794 C 154.124 59.719, 154.349 61.500, 149.278 61.842 C 142.795 62.279, 139.606 67.139, 144.565 69.025 C 148.003 70.332, 147.767 70.430, 150.011 66.750 C 151.101 64.962, 151.994 63.881, 151.996 64.346 C 151.998 64.811, 151.213 66.531, 150.250 68.169 C 148.492 71.159, 146.372 71.526, 141.942 69.608 C 141.014 69.206, 139.434 69.756, 138.039 70.967 C 135.120 73.498, 134.133 73.616, 136.347 71.169 C 137.259 70.162, 137.703 69.037, 137.336 68.669 C 136.249 67.582, 122.262 67.905, 117.402 69.129 C 114.927 69.752, 113.082 70.760, 113.282 71.379 C 114.416 74.880, 126.683 77.310, 131.151 74.919 C 132.262 74.324, 133.396 74.063, 133.671 74.338 C 133.946 74.613, 133.120 75.412, 131.836 76.113 C 128.309 78.039, 120.077 77.570, 114.559 75.129 C 109.319 72.811, 107.915 73.033, 109.705 75.898 C 110.325 76.893, 110.851 79.685, 110.872 82.103 C 110.894 84.521, 111.381 88.072, 111.956 89.993 C 112.530 91.915, 113 96.704, 113 100.636 C 113 106.069, 113.360 107.924, 114.500 108.362 C 116.458 109.113, 116.458 113, 114.500 113 C 113.576 113, 113 113.938, 113 115.441 C 113 116.784, 112.550 118.160, 112 118.500 C 111.450 118.840, 111 119.568, 111 120.118 C 111 120.668, 111.445 120.843, 111.989 120.507 C 112.560 120.154, 112.720 120.565, 112.369 121.482 C 112.034 122.354, 113.126 126.765, 114.796 131.284 C 116.466 135.803, 118.127 140.518, 118.487 141.762 L 119.143 144.024 155.821 143.762 L 192.500 143.500 192.757 71.750 L 193.013 0 96.507 0 L 0 0 0 72 M 0.474 72.500 C 0.474 112.100, 0.598 128.154, 0.750 108.176 C 0.901 88.198, 0.901 55.798, 0.750 36.176 C 0.598 16.554, 0.474 32.900, 0.474 72.500 M 63.417 61.134 C 62.432 62.728, 65.043 67.879, 67.180 68.557 C 69.875 69.413, 74 68.251, 74 66.636 C 74 63.582, 64.846 58.822, 63.417 61.134 M 80 68.590 C 80 70.387, 82.799 72.291, 84.487 71.643 C 85.319 71.324, 86 70.141, 86 69.016 C 86 67.357, 85.431 67.012, 83 67.197 C 81.350 67.323, 80 67.950, 80 68.590" stroke="none" fill="black" fill-rule="evenodd"/>
</svg>