<svg xmlns="http://www.w3.org/2000/svg" width="192" height="144" viewBox="0 0 192 144" version="1.1">
	<path d="M 53.902 13.382 C 54.845 14.518, 54.087 14.884, 49.626 15.441 C 44.282 16.109, 41.974 17.613, 40.674 21.275 C 40.232 22.519, 39.365 22.889, 37.772 22.515 C 36.522 22.221, 34.825 22.443, 34 23.009 C 32.703 23.899, 32.770 24.244, 34.500 25.562 C 35.743 26.509, 36.382 27.988, 36.188 29.468 C 35.965 31.175, 36.744 32.490, 38.938 34.113 C 41.595 36.077, 42 36.995, 42 41.053 C 42 44.232, 41.353 46.553, 39.979 48.300 C 38.473 50.214, 37.838 52.862, 37.488 58.684 C 37.085 65.391, 36.386 67.785, 32.561 75.558 C 28.229 84.361, 28.141 84.726, 29.451 88.535 C 30.192 90.691, 31.753 93.088, 32.920 93.863 C 34.772 95.093, 35.272 95.064, 36.850 93.636 C 39.206 91.503, 41.007 91.553, 40.974 93.750 C 40.960 94.713, 40.054 99.325, 38.960 104 C 36.428 114.821, 32.010 138.801, 32.004 141.750 L 32 144 54.079 144 L 76.159 144 75.610 141.250 C 74.680 136.588, 71.064 101.240, 70.074 87.136 C 69.085 73.045, 69.593 69.601, 72.782 68.767 C 75.180 68.140, 76.254 63.456, 74.360 61.884 C 72.438 60.288, 72.710 56.927, 75 54 C 76.076 52.625, 76.960 51.050, 76.966 50.500 C 76.972 49.950, 74.507 47.786, 71.488 45.690 L 66 41.880 66 35.005 C 66 31.224, 66.439 26.976, 66.975 25.565 C 67.512 24.154, 67.590 23, 67.150 23 C 66.710 23, 63.855 20.525, 60.806 17.500 C 57.756 14.475, 54.698 12, 54.008 12 C 53.055 12, 53.030 12.331, 53.902 13.382" stroke="none" fill="black" fill-rule="evenodd"/>
</svg>