<svg xmlns="http://www.w3.org/2000/svg" width="192" height="144" viewBox="0 0 192 144" version="1.1">
	<path d="M 0 72 L 0 144 56.500 144 C 120.847 144, 114.932 144.977, 111 135 C 109.900 132.209, 108.993 129.155, 108.985 128.213 C 108.976 127.271, 108.554 125.843, 108.046 125.040 C 107.249 123.780, 106.863 123.814, 105.234 125.288 C 103.340 127.002, 94.892 128.375, 91.904 127.455 C 91.026 127.184, 89.695 125.059, 88.946 122.731 C 88.197 120.404, 87.206 118.235, 86.744 117.911 C 85.717 117.192, 89.337 103.116, 92.068 97.204 C 96.517 87.576, 99.120 77.385, 100.039 66 C 100.626 58.736, 101.585 53.349, 102.643 51.377 C 104.206 48.463, 104.207 47.975, 102.659 44.106 C 100.332 38.290, 100.494 31.920, 103.039 29.189 C 105.809 26.216, 108.451 26.251, 107.578 29.250 C 105.986 34.715, 105.823 38.296, 106.979 42.425 C 108.735 48.696, 110.578 47.386, 110.535 39.896 C 110.503 34.310, 110.751 33.615, 113.742 30.941 C 117.573 27.516, 121.652 26.241, 123.323 27.947 C 124.231 28.874, 123.415 30.069, 119.750 33.178 C 115.787 36.541, 115 37.777, 115 40.644 C 115 43.404, 115.836 44.852, 119.250 48.005 L 123.500 51.929 123.217 58.965 C 122.897 66.917, 123.490 67.376, 129.983 64.200 C 132.845 62.801, 133.582 61.784, 134.116 58.504 C 134.473 56.308, 134.351 53.423, 133.845 52.093 C 132.148 47.628, 137.347 46.307, 139.514 50.652 C 140.099 51.826, 141.133 53.456, 141.812 54.273 C 142.663 55.299, 142.838 57.528, 142.376 61.459 C 141.612 67.955, 139.766 69.869, 130.711 73.555 C 125.188 75.802, 125.077 76.076, 127.194 82.232 C 128.214 85.197, 129.610 86.578, 133.989 88.955 C 140.028 92.233, 139.627 92.838, 132.970 90.489 C 130.615 89.658, 128.460 89.206, 128.182 89.484 C 127.904 89.763, 127.231 94.697, 126.685 100.450 C 125.696 110.895, 125.698 110.916, 128.328 114.364 L 130.963 117.817 128.138 118.802 C 125.341 119.777, 125.308 119.887, 124.724 130.143 C 124.400 135.840, 123.829 141.293, 123.456 142.263 C 122.813 143.930, 124.687 144.012, 157.638 143.763 L 192.500 143.500 192.757 71.750 L 193.013 0 96.507 0 L 0 0 0 72 M 0.474 72.500 C 0.474 112.100, 0.598 128.154, 0.750 108.176 C 0.901 88.198, 0.901 55.798, 0.750 36.176 C 0.598 16.554, 0.474 32.900, 0.474 72.500" stroke="none" fill="black" fill-rule="evenodd"/>
</svg>