<svg xmlns="http://www.w3.org/2000/svg" width="192" height="144" viewBox="0 0 192 144" version="1.1">
	<path d="M 54.459 19.880 C 47.317 23.124, 40.988 32.696, 41.016 40.210 C 41.038 45.784, 44.366 51.608, 49.655 55.325 C 52.932 57.628, 54.958 58.261, 59.395 58.367 C 62.476 58.440, 64.997 58.734, 64.998 59.019 C 64.999 59.305, 62.321 61.011, 59.047 62.811 C 55.162 64.947, 53.277 66.558, 53.620 67.451 C 53.908 68.204, 53.437 70.188, 52.572 71.860 C 50.544 75.783, 50.567 77.380, 52.641 76.584 C 53.543 76.238, 55.160 76.233, 56.234 76.574 C 57.861 77.091, 58.077 77.774, 57.534 80.673 C 57.148 82.727, 57.335 84.699, 57.990 85.488 C 58.601 86.224, 59.570 91.252, 60.146 96.663 C 60.721 102.073, 61.598 106.928, 62.096 107.450 C 63.310 108.726, 63.247 112.729, 62 113.500 C 60.446 114.460, 60.820 118.886, 62.728 122.116 C 64.143 124.512, 64.233 125.397, 63.228 127.007 C 61.755 129.365, 61.587 136, 63 136 C 64.407 136, 64.249 141.351, 62.800 142.800 C 61.867 143.733, 62.311 144, 64.800 144 C 68.427 144, 68.419 144.014, 66.827 140.520 C 65.930 138.551, 65.930 137.670, 66.827 136.773 C 68.258 135.342, 68.387 128.357, 66.999 127.499 C 66.385 127.120, 66.242 124.244, 66.629 120.080 C 67.057 115.472, 66.897 113.054, 66.131 112.581 C 64.621 111.648, 64.692 108.488, 66.250 107.259 C 66.938 106.716, 70.065 105.985, 73.200 105.633 L 78.900 104.994 77.301 108.747 C 75.451 113.090, 74.393 129.990, 75.445 138.406 L 76.144 144 91.091 144 L 106.038 144 105.337 141.250 C 104.132 136.525, 104.579 129.626, 106.292 126.500 C 110.565 118.704, 113.983 117.070, 114.015 122.809 C 114.026 124.676, 114.291 125.089, 114.881 124.159 C 115.442 123.273, 116.495 125.910, 117.980 131.918 C 119.813 139.336, 119.995 141.301, 118.964 142.543 C 117.842 143.895, 119.036 144.034, 129.600 143.783 L 141.500 143.500 141.832 140.592 C 142.404 135.574, 141.074 131.385, 137.370 126.534 C 133.026 120.844, 132.404 117.066, 133.928 105.615 C 135.075 96.999, 138.534 84, 139.680 84 C 140.010 84, 140.810 84.725, 141.458 85.612 C 144.149 89.292, 158 71.161, 158 63.959 C 158 58.529, 152.471 56.488, 143.250 58.513 C 141.463 58.906, 140.020 58.838, 140.044 58.363 C 140.069 57.889, 143.443 55.147, 147.543 52.271 C 154.250 47.566, 155.248 47.156, 157.501 48.182 C 159.509 49.097, 161.094 48.953, 165.502 47.455 C 171.381 45.456, 172.354 43.795, 168.771 41.877 L 166.541 40.684 168.771 39.689 C 171.213 38.599, 171.600 37.489, 169.901 36.439 C 169.228 36.023, 171.061 33.476, 174.619 29.880 C 183.303 21.104, 179.241 22.302, 160.402 34.072 C 154.956 37.475, 147.264 41.738, 143.310 43.545 L 136.120 46.832 134.433 44.258 C 132.759 41.703, 132.735 41.699, 131.123 43.697 C 128.717 46.681, 126.512 47.092, 121.812 45.434 C 118.426 44.239, 116.554 44.158, 112.371 45.027 C 109.502 45.622, 106.557 46.826, 105.827 47.701 C 103.321 50.706, 101.098 56.467, 102.066 57.450 C 103.804 59.218, 103.018 61, 100.500 61 C 98.151 61, 98 60.682, 97.996 55.750 C 97.991 47.677, 92.653 41, 86.205 41 C 83.507 41, 81.367 38.129, 80.670 33.577 C 79.895 28.517, 75.545 23.093, 69.980 20.250 C 64.667 17.535, 59.872 17.421, 54.459 19.880 M 97.079 63.583 C 97.127 64.748, 97.364 64.985, 97.683 64.188 C 97.972 63.466, 97.936 62.603, 97.604 62.271 C 97.272 61.939, 97.036 62.529, 97.079 63.583 M 70.161 71.547 C 68.639 74.885, 68.704 76.909, 70.438 80.233 C 71.296 81.878, 71.483 83.202, 70.907 83.557 C 70.123 84.042, 70.641 93.732, 71.508 94.790 C 71.639 94.949, 74.615 94.624, 78.123 94.067 C 81.630 93.510, 86.300 92.775, 88.500 92.432 C 93.688 91.625, 94.367 90.987, 97.033 84.417 L 99.267 78.914 97.134 76.642 C 95.960 75.393, 95 73.373, 95 72.154 C 95 69.168, 92.819 68.525, 89.140 70.428 C 85.381 72.371, 78.337 72.407, 75 70.500 C 71.646 68.583, 71.496 68.615, 70.161 71.547 M 54 74.059 C 54 74.641, 54.450 74.840, 55 74.500 C 55.550 74.160, 56 73.684, 56 73.441 C 56 73.198, 55.550 73, 55 73 C 54.450 73, 54 73.477, 54 74.059 M 63 117.500 C 63 119.056, 63.567 120, 64.500 120 C 65.433 120, 66 119.056, 66 117.500 C 66 115.944, 65.433 115, 64.500 115 C 63.567 115, 63 115.944, 63 117.500 M 63.412 130.369 C 62.661 132.325, 63.684 134, 65.629 134 C 66.610 134, 67.027 133.240, 66.820 131.828 C 66.432 129.191, 64.226 128.247, 63.412 130.369" stroke="none" fill="black" fill-rule="evenodd"/>
</svg>