<svg xmlns="http://www.w3.org/2000/svg" width="192" height="144" viewBox="0 0 192 144" version="1.1">
	<path d="M 0 72 L 0 144 39.625 144 L 79.250 144 78.625 140.875 C 78.281 139.156, 78 134.215, 78 129.894 C 78 120.419, 78.872 120.869, 60.109 120.651 C 48.639 120.517, 46.819 120.258, 44.322 118.400 C 40.768 115.754, 40.293 112.936, 43.076 110.998 C 44.259 110.174, 46.675 108.372, 48.446 106.992 C 50.216 105.613, 53.535 103.588, 55.821 102.492 C 58.107 101.397, 59.982 100.006, 59.989 99.402 C 59.995 98.798, 61.688 97.537, 63.750 96.600 C 65.813 95.662, 68.806 93.065, 70.402 90.826 C 73.302 86.760, 73.303 86.754, 71.740 81.867 C 70.262 77.245, 70.278 76.922, 72.022 75.988 C 73.038 75.445, 75.526 75, 77.551 75 L 81.233 75 80.529 68.250 C 80.142 64.537, 79.443 61.101, 78.976 60.614 C 78.489 60.105, 76.542 60.663, 74.405 61.923 C 72.358 63.131, 68.842 64.487, 66.591 64.937 C 64.341 65.386, 61.600 66.119, 60.500 66.564 C 58.720 67.285, 58.651 67.189, 59.872 65.687 C 61.119 64.155, 60.863 64, 57.079 64 C 51.910 64, 46.845 60.096, 48.862 57.667 C 49.526 56.866, 49.942 55.641, 49.785 54.945 C 49.455 53.479, 62.010 46.496, 66.628 45.577 C 69.985 44.910, 73.147 42.305, 76.758 37.232 L 79.016 34.060 75.817 32.406 C 72.864 30.878, 72.756 30.652, 74.400 29.449 C 75.651 28.535, 75.972 27.488, 75.480 25.937 C 74.858 23.978, 75.057 23.798, 77.238 24.345 C 79.211 24.840, 79.925 24.461, 80.852 22.425 C 82.126 19.630, 84 20.008, 84 23.059 C 84 24.385, 84.713 25.022, 86.250 25.069 C 90.858 25.210, 94.326 25.926, 95.348 26.948 C 95.926 27.526, 97.435 28, 98.700 28 C 100.466 28, 101 28.562, 101 30.417 C 101 31.746, 101.530 33.010, 102.177 33.226 C 103.951 33.817, 102.166 36, 99.910 36 C 96.427 36, 96.673 38.764, 100.579 43.531 C 103.720 47.365, 104.421 49.073, 104.795 53.814 C 105.042 56.941, 105.695 60.063, 106.245 60.750 C 107.417 62.215, 117.589 62.396, 123.373 61.054 C 125.913 60.464, 128.065 60.528, 129.623 61.238 C 135.120 63.743, 131.035 65.758, 117.930 67.007 C 108.099 67.943, 107.685 67.900, 103.568 65.487 C 101.237 64.121, 99.031 63.303, 98.665 63.668 C 97.318 65.016, 97.973 72.052, 99.500 72.638 C 100.368 72.972, 101 74.467, 101 76.189 C 101 83.245, 113.900 93.874, 125.710 96.547 C 138.683 99.484, 143.046 101.347, 141.750 103.395 C 141.613 103.612, 142.250 104.625, 143.166 105.645 C 145.381 108.111, 144.487 112.472, 141.242 115.025 C 137.775 117.752, 129.238 120.135, 125.470 119.428 C 123.753 119.106, 119.908 119.519, 116.924 120.346 C 113.941 121.173, 108.491 122.142, 104.813 122.498 C 97.070 123.248, 97.153 123.107, 96.587 136.340 L 96.258 144.019 144.379 143.760 L 192.500 143.500 192.757 71.750 L 193.013 0 96.507 0 L 0 0 0 72 M 0.474 72.500 C 0.474 112.100, 0.598 128.154, 0.750 108.176 C 0.901 88.198, 0.901 55.798, 0.750 36.176 C 0.598 16.554, 0.474 32.900, 0.474 72.500 M 94.562 44.257 C 94.253 45.215, 93.790 46.671, 93.534 47.492 C 93.154 48.710, 97.371 52, 99.312 52 C 100.274 52, 98.704 47.259, 96.989 44.986 C 95.348 42.810, 95.057 42.722, 94.562 44.257 M 87.750 125.332 C 87.338 126.339, 87.029 130.164, 87.063 133.832 C 87.115 139.225, 87.314 140.031, 88.106 138.048 C 88.644 136.700, 88.953 132.875, 88.792 129.548 C 88.605 125.665, 88.232 124.156, 87.750 125.332" stroke="none" fill="black" fill-rule="evenodd"/>
</svg>