<svg xmlns="http://www.w3.org/2000/svg" width="192" height="144" viewBox="0 0 192 144" version="1.1">
	<path d="M 107.819 15.981 C 103.312 17.341, 100.648 19.794, 98.840 24.246 C 95.724 31.917, 96.807 36.386, 102.250 38.317 C 103.213 38.658, 104 39.745, 104 40.731 C 104 42.896, 108.261 46.310, 111.830 47.003 C 114.394 47.501, 114.370 47.555, 109.221 52.868 C 106.363 55.818, 104.241 58.581, 104.506 59.009 C 104.770 59.437, 104.284 61.747, 103.426 64.144 C 102.484 66.774, 102.093 69.968, 102.438 72.206 L 103.010 75.912 97.755 73.466 C 94.865 72.120, 91.958 71.015, 91.295 71.010 C 89.518 70.995, 88.608 64.601, 90.011 61.980 C 90.950 60.226, 90.923 59.190, 89.885 57.125 C 89.160 55.681, 88.512 54.385, 88.445 54.245 C 88.056 53.426, 81.810 56.487, 81.079 57.855 C 79.517 60.776, 78.617 81.661, 79.917 84.800 C 80.914 87.206, 80.700 88.712, 78.494 94.828 C 75.863 102.121, 75.893 104, 78.637 104 C 79.473 104, 81.939 105.800, 84.117 108 C 89.112 113.045, 91.401 113.486, 88.965 108.934 C 88.040 107.205, 88.278 106.998, 91.215 106.985 C 97.374 106.956, 97.563 106.459, 96.170 93.933 C 95.486 87.777, 95.134 82.533, 95.388 82.279 C 96.182 81.484, 99.554 82.936, 101.824 85.050 C 104.455 87.502, 104.680 92.587, 102.525 100.903 C 101.714 104.033, 100.590 109.842, 100.027 113.810 C 99.464 117.779, 97.275 126.195, 95.162 132.513 L 91.321 144 121.161 144 C 137.572 144, 150.997 143.662, 150.993 143.250 C 150.988 142.838, 148.917 138.900, 146.390 134.500 C 143.862 130.100, 139.605 121.132, 136.929 114.571 C 134.252 108.009, 130.532 100.134, 128.662 97.071 C 123.643 88.851, 122.636 84.869, 123.355 76.083 C 123.880 69.665, 124.362 68.162, 126.488 66.298 C 129.499 63.658, 129.609 61.624, 127.096 55.011 C 126.049 52.256, 125.534 50.212, 125.951 50.470 C 127.328 51.321, 130.742 46.564, 131.398 42.878 C 131.857 40.301, 131.291 36.926, 129.437 31.178 C 127.295 24.537, 126.050 22.379, 122.438 19.050 C 117.830 14.802, 114.230 14.046, 107.819 15.981" stroke="none" fill="black" fill-rule="evenodd"/>
</svg>