<svg xmlns="http://www.w3.org/2000/svg" width="192" height="144" viewBox="0 0 192 144" version="1.1">
	<path d="M 58.667 0.667 C 58.300 1.033, 58 3.288, 58 5.678 C 58 13.662, 64.208 23.010, 70.570 24.607 C 74.107 25.495, 72.396 27.166, 68.148 26.972 C 62.648 26.722, 62 26.876, 62 28.432 C 62 29.219, 60.650 30.825, 59 32 C 55.334 34.611, 55.300 35.209, 58.629 38.538 C 60.972 40.881, 61.195 41.704, 60.676 46.084 C 60.215 49.983, 60.395 51, 61.547 51 C 63.131 51, 63.083 50.502, 63.507 71.500 C 63.651 78.650, 63.963 88.775, 64.200 94 C 64.437 99.225, 64.325 104.902, 63.951 106.616 C 63.577 108.330, 63.677 110.458, 64.173 111.344 C 64.767 112.405, 64.550 113.970, 63.537 115.928 C 62.692 117.563, 62 120.498, 62 122.450 C 62 124.403, 61.562 126, 61.026 126 C 59.758 126, 56.758 131.800, 57.448 132.916 C 58.276 134.255, 55.216 136.290, 53.176 135.756 C 51.143 135.225, 49.888 136.054, 45.563 140.786 L 42.626 144 50.372 144 C 55.498 144, 57.900 143.647, 57.473 142.956 C 57.118 142.382, 57.367 141.263, 58.026 140.469 C 58.685 139.675, 58.957 138.330, 58.631 137.481 C 58.242 136.468, 58.820 135.639, 60.310 135.072 C 63.278 133.944, 65.193 131.570, 64.958 129.310 C 64.616 126.023, 64.982 125, 66.500 125 C 67.665 125, 68 123.673, 68 119.059 C 68 115.791, 68.450 112.840, 69 112.500 C 70.300 111.697, 70.300 105.303, 69 104.500 C 68.450 104.160, 68 102.810, 68 101.500 C 68 100.190, 68.450 98.840, 69 98.500 C 70.416 97.625, 70.240 93.931, 68.554 89.152 C 67.683 86.683, 67.484 84.819, 68.054 84.467 C 69.315 83.687, 69.271 76.285, 68 75.500 C 67.450 75.160, 67 74.420, 67 73.856 C 67 73.292, 68.964 74.556, 71.364 76.665 C 73.765 78.774, 78.704 82.525, 82.341 85 C 85.977 87.475, 88.963 89.770, 88.976 90.101 C 88.989 90.431, 86.462 94.239, 83.359 98.564 C 71.233 115.463, 68.399 125.908, 73.512 134.852 C 74.880 137.246, 76 140.283, 76 141.602 C 76 143.502, 76.526 144, 78.535 144 C 80.768 144, 80.942 143.760, 79.990 141.981 C 79.153 140.417, 79.306 139.290, 80.670 136.981 C 81.639 135.341, 82.736 134, 83.109 134 C 84.178 134, 85 136.860, 85 140.582 L 85 144 109 144 L 133 144 133.063 141.750 L 133.127 139.500 134.031 141.750 C 134.529 142.988, 135.428 144, 136.029 144 C 137.265 144, 136.905 140.503, 133.925 123.535 C 132.866 117.505, 132 110.063, 132 106.999 C 132 101.467, 132.037 101.399, 137.065 97.645 C 139.851 95.566, 143.490 91.757, 145.153 89.182 C 148.003 84.766, 148.142 84.089, 147.602 77.268 C 147.030 70.050, 147.034 70.034, 149.965 68.518 C 154.056 66.402, 155.604 66.597, 159.751 69.750 C 162.532 71.864, 163.121 72.057, 162.301 70.584 C 161.619 69.359, 161.553 67.558, 162.117 65.591 C 163.317 61.408, 163.280 61.220, 161.021 60.011 C 158.111 58.454, 144.288 57.776, 141.866 59.072 C 138.892 60.663, 138.323 59.350, 140.829 56.682 C 142.023 55.411, 143 53.922, 143 53.374 C 143 52.825, 144.311 51.407, 145.913 50.222 C 147.523 49.032, 149.130 46.685, 149.506 44.974 C 149.964 42.886, 151.049 41.552, 152.841 40.870 C 157.128 39.241, 159 36.953, 159 33.345 C 159 29.222, 158.108 29.162, 153.989 33.010 C 152.217 34.666, 149.694 36.290, 148.383 36.619 C 147.072 36.948, 146 37.581, 146 38.027 C 146 39.338, 139.452 43, 137.107 43 C 135.741 43, 134.611 43.894, 134.023 45.439 C 132.490 49.472, 129.846 50.227, 125.172 47.969 C 120.088 45.513, 108 45.135, 108 47.433 C 108 48.221, 107.204 49.118, 106.231 49.427 C 103.773 50.207, 100.735 56.146, 101.617 58.445 C 102.233 60.049, 101.968 60.209, 99.664 59.631 C 97.739 59.147, 97 59.346, 97 60.348 C 97 61.110, 96.051 64.017, 94.891 66.809 L 92.781 71.884 94.891 74.847 C 98.925 80.513, 96.969 81.711, 91.144 77.141 C 89.140 75.569, 85.040 72.887, 82.033 71.182 L 76.566 68.081 74.867 59.291 C 73.933 54.456, 73.392 49.537, 73.665 48.359 C 73.938 47.182, 73.676 45.918, 73.081 45.550 C 71.357 44.484, 71.826 41.468, 74.025 39.477 C 76.008 37.682, 76.134 37.725, 79.986 41.486 C 83.415 44.834, 84.661 45.390, 89.664 45.805 C 93.888 46.155, 95.852 46.831, 97.089 48.358 C 98.545 50.156, 98.993 50.250, 100.430 49.058 C 101.557 48.122, 101.902 46.830, 101.506 45.025 C 101.095 43.154, 101.578 41.535, 103.140 39.549 C 106.077 35.816, 106.828 27.502, 104.615 23.223 C 103.733 21.516, 101.620 19.305, 99.922 18.310 C 96.859 16.515, 96.839 16.448, 97.493 10.279 C 98.645 -0.586, 99.751 -0, 78.099 -0 C 67.778 -0, 59.033 0.300, 58.667 0.667 M 59 36 C 59 36.550, 59.450 37, 60 37 C 60.550 37, 61 36.550, 61 36 C 61 35.450, 60.550 35, 60 35 C 59.450 35, 59 35.450, 59 36 M 64.177 79.667 C 64.663 82.176, 67 82.520, 67 80.083 C 67 78.855, 66.354 78, 65.427 78 C 64.495 78, 63.985 78.680, 64.177 79.667 M 65 94 C 65 95.111, 65.667 96, 66.500 96 C 67.333 96, 68 95.111, 68 94 C 68 92.889, 67.333 92, 66.500 92 C 65.667 92, 65 92.889, 65 94 M 65.667 106.667 C 64.449 107.885, 64.978 110, 66.500 110 C 67.333 110, 68 109.111, 68 108 C 68 106.008, 66.934 105.399, 65.667 106.667 M 64 120.969 C 64 121.501, 64.675 121.678, 65.500 121.362 C 66.325 121.045, 67 120.609, 67 120.393 C 67 120.177, 66.325 120, 65.500 120 C 64.675 120, 64 120.436, 64 120.969" stroke="none" fill="black" fill-rule="evenodd"/>
</svg>