<svg xmlns="http://www.w3.org/2000/svg" width="192" height="144" viewBox="0 0 192 144" version="1.1">
	<path d="M 44.965 10.542 C 44.077 11.612, 43.366 11.766, 42.642 11.042 C 40.941 9.341, 40.253 9.824, 39.779 13.050 C 39.413 15.549, 39.863 16.478, 42.269 18.192 C 44.231 19.588, 45.431 19.921, 45.882 19.192 C 46.253 18.591, 47.669 17.650, 49.028 17.101 L 51.500 16.102 49.250 15.434 C 46.645 14.661, 46.716 14.878, 47.975 11.565 C 49.109 8.583, 47.145 7.916, 44.965 10.542 M 97.667 24.667 C 97.300 25.033, 96.996 28.071, 96.991 31.417 C 96.986 34.763, 96.301 43.286, 95.468 50.358 C 94.271 60.528, 93.556 63.560, 92.048 64.858 C 90.028 66.598, 87 74.613, 87 78.220 C 87 79.403, 87.865 81.300, 88.922 82.436 C 90.819 84.474, 90.812 84.676, 88.437 98.206 C 87.113 105.744, 85.536 113.844, 84.933 116.206 C 84.330 118.568, 83.583 121.837, 83.272 123.471 C 82.962 125.105, 81.621 127.297, 80.293 128.341 C 78.965 129.386, 78.096 130.807, 78.361 131.499 C 78.830 132.720, 78.063 137.149, 76.587 141.750 L 75.865 144 121.576 144 L 167.286 144 166.708 136.250 C 166.390 131.988, 165.409 122.495, 164.528 115.155 C 163.647 107.815, 163.187 100.987, 163.506 99.981 C 165.265 94.440, 167.988 74.315, 167.993 66.817 C 167.999 59.837, 167.394 56.250, 164.910 48.536 C 163.211 43.258, 160.715 37.626, 159.364 36.021 C 156.335 32.421, 148.010 28.285, 142 27.394 C 139.525 27.027, 137.016 26.348, 136.423 25.885 C 135.362 25.055, 131.613 25.968, 125.294 28.593 C 121.796 30.047, 114 36.661, 114 38.175 C 114 38.694, 114.495 38.812, 115.100 38.438 C 115.899 37.944, 115.899 38.319, 115.100 39.814 C 113.210 43.345, 114.004 51.734, 116.105 50.435 C 116.597 50.131, 117 50.355, 117 50.933 C 117 51.510, 116.194 52.486, 115.210 53.101 C 113.707 54.040, 113.484 55.286, 113.824 60.860 C 114.263 68.047, 115.189 70, 118.160 70 C 119.789 70, 120.006 70.561, 119.614 73.750 C 118.986 78.844, 117.972 81.255, 115.801 82.817 C 114.795 83.541, 113.325 85.679, 112.537 87.567 C 110.085 93.434, 108.641 91.727, 105.517 79.269 C 104.658 75.842, 103.063 71.526, 101.972 69.677 C 100.133 66.560, 100.065 65.562, 101.035 55.908 C 101.611 50.184, 102.539 42.800, 103.098 39.500 C 105.300 26.496, 105.337 25.827, 103.895 24.914 C 102.242 23.867, 98.610 23.723, 97.667 24.667 M 96 90.807 C 96 91.251, 95.113 96.444, 94.028 102.347 C 92.944 108.250, 91.844 116.391, 91.585 120.438 C 91.143 127.322, 91.252 127.833, 93.263 128.358 C 94.445 128.668, 95.527 128.807, 95.666 128.667 C 95.806 128.527, 95.436 124.383, 94.844 119.457 C 93.461 107.940, 94.806 103.055, 99.750 101.640 C 103.574 100.546, 103.767 99.138, 100.816 93.886 C 98.883 90.447, 96 88.604, 96 90.807" stroke="none" fill="black" fill-rule="evenodd"/>
</svg>