<svg xmlns="http://www.w3.org/2000/svg" width="192" height="144" viewBox="0 0 192 144" version="1.1">
	<path d="M 13 5.816 C 13 9.015, 13.447 14.078, 13.992 17.066 C 15.172 23.525, 15.451 32.413, 14.712 40 C 14.250 44.742, 14.461 45.724, 16.244 47.122 C 18.864 49.177, 18.023 51.527, 14.336 52.452 C 11.322 53.208, 9 54.757, 9 56.011 C 9 56.433, 10.530 57.064, 12.399 57.415 C 17.029 58.284, 21.861 60.805, 23.295 63.100 C 24.899 65.669, 29 65.643, 29 63.065 C 29 62.001, 29.525 59.863, 30.166 58.315 C 30.808 56.767, 31.370 55.203, 31.416 54.841 C 31.462 54.478, 32.738 53.208, 34.250 52.018 C 37.836 49.197, 37.727 48, 33.883 48 C 30.414 48, 30.437 48.560, 33.472 38 C 35.484 30.999, 34.441 28, 29.996 28 L 26.949 28 28.623 24.750 C 29.544 22.962, 32.952 18.599, 36.197 15.054 C 43.527 7.042, 43.786 4.154, 37.320 2.542 C 35.020 1.969, 32.808 1.163, 32.403 0.750 C 31.998 0.338, 27.467 0, 22.333 0 L 13 0 13 5.816 M 96 72 L 96 144 129.422 144 L 162.845 144 163.948 140.656 C 165.621 135.587, 167.112 120.712, 166.052 119.652 C 165.506 119.106, 164.030 119.618, 162.356 120.934 C 159.731 123, 159.529 123.022, 158.855 121.313 C 158.462 120.316, 158.109 118.263, 158.070 116.750 C 158.014 114.539, 157.533 114, 155.617 114 C 154.184 114, 153.050 113.299, 152.774 112.243 C 152.208 110.080, 155.521 102, 156.974 102 C 159.205 102, 161.743 95.975, 161.437 91.402 C 161.147 87.070, 161.273 86.844, 164.818 85.313 C 166.843 84.438, 169.470 83.282, 170.655 82.743 C 173.234 81.571, 175.187 82.545, 174.856 84.839 C 174.724 85.752, 174.965 87.534, 175.391 88.798 C 175.817 90.062, 175.733 91.637, 175.205 92.298 C 172.713 95.417, 172.973 97.675, 176.215 101.067 C 178 102.935, 180.103 104.471, 180.888 104.482 C 182.951 104.508, 184.927 110.921, 183.821 114 C 183.327 115.375, 181.487 117.698, 179.732 119.162 C 176.582 121.789, 176.556 121.881, 177.797 126.162 C 178.488 128.548, 179.829 133.534, 180.777 137.243 L 182.500 143.986 187.250 143.993 L 192 144 192 72 L 192 0 144 0 L 96 0 96 72 M 179 107.559 C 179 108.416, 179.457 108.835, 180.016 108.490 C 180.575 108.144, 180.774 107.443, 180.457 106.931 C 179.600 105.544, 179 105.802, 179 107.559" stroke="none" fill="black" fill-rule="evenodd"/>
</svg>