<svg xmlns="http://www.w3.org/2000/svg" width="192" height="144" viewBox="0 0 192 144" version="1.1">
	<path d="M 0 52.559 C 0 86.325, 0.347 104.903, 0.972 104.517 C 1.506 104.187, 3.059 104.648, 4.423 105.541 C 5.926 106.526, 7.732 106.902, 9.009 106.497 C 10.507 106.022, 11.678 106.476, 13.058 108.067 C 14.126 109.299, 15 109.787, 15 109.153 C 15 108.401, 17.258 108, 21.500 108 C 30.407 108, 30.110 105.192, 21.168 104.866 C 19.151 104.793, 21.198 104.320, 25.718 103.816 C 30.238 103.312, 36.313 102.093, 39.218 101.108 L 44.500 99.316 45.063 86.408 C 45.373 79.309, 46.160 72.517, 46.813 71.316 C 47.466 70.114, 48 66.412, 48 63.089 C 48 54.162, 51.210 46.944, 58.500 39.480 C 64.568 33.266, 75.465 26.181, 83.251 23.385 C 90.142 20.911, 107.631 23.172, 116.308 27.659 C 118.577 28.833, 118.910 29.404, 117.978 30.527 C 117.071 31.619, 117.246 32.546, 118.768 34.715 C 121.952 39.252, 122.404 44.217, 119.920 47.374 C 117.102 50.958, 118.032 53, 122.484 53 C 125.783 53, 126.016 53.203, 125.811 55.900 C 125.689 57.496, 126.134 59.456, 126.799 60.257 C 127.539 61.150, 127.756 62.970, 127.358 64.958 C 126.978 66.858, 127.145 68.471, 127.760 68.852 C 128.338 69.209, 128.966 71.526, 129.156 74.001 C 129.496 78.453, 129.453 78.522, 125.011 80.653 C 120.111 83.004, 117.506 87.209, 119.103 90.192 C 119.675 91.261, 119.585 92.817, 118.858 94.413 C 117.980 96.340, 117.991 97.284, 118.904 98.384 C 121.161 101.104, 128.884 104, 133.878 104 C 140.030 104, 144.250 106.789, 142.071 109.415 C 140.898 110.828, 140.997 111.370, 142.773 113.279 C 145.274 115.966, 161.374 139.927, 162.300 142.339 C 162.887 143.869, 164.546 144.024, 177.729 143.777 L 192.500 143.500 192.820 71.750 L 193.140 -0 96.570 -0 L 0 0 0 52.559 M 0.465 53 C 0.465 81.875, 0.593 93.687, 0.749 79.250 C 0.905 64.812, 0.905 41.187, 0.749 26.750 C 0.593 12.312, 0.465 24.125, 0.465 53 M 40.095 119.892 C 37.123 121.431, 35.108 122.949, 35.618 123.264 C 37.044 124.145, 46 119.926, 46 118.373 C 46 116.692, 46.553 116.549, 40.095 119.892 M 1 122.833 C 1 124.165, 1.625 125, 2.622 125 C 4.011 125, 4.052 124.748, 2.905 123.250 C 2.169 122.287, 1.439 121.313, 1.283 121.083 C 1.127 120.854, 1 121.642, 1 122.833 M 1 137.500 L 1 144 22.433 144 C 46.518 144, 44.277 144.810, 45.573 135.641 C 46.355 130.110, 47.609 130.279, 35.126 134.234 C 27.199 136.746, 18.181 136.299, 12.996 133.139 C 10.881 131.849, 7.821 131.006, 5.250 131.004 L 1 131 1 137.500" stroke="none" fill="black" fill-rule="evenodd"/>
</svg>