<svg xmlns="http://www.w3.org/2000/svg" width="192" height="144" viewBox="0 0 192 144" version="1.1">
	<path d="M 0 72 L 0 144 40.067 144 L 80.135 144 79.390 141.750 C 78.980 140.512, 78.554 131.850, 78.443 122.500 C 78.331 113.150, 78.188 101.665, 78.124 96.979 C 78.061 92.292, 78.415 87.039, 78.913 85.304 C 79.410 83.570, 79.619 81.953, 79.377 81.711 C 79.135 81.468, 77.008 81.964, 74.650 82.812 C 66.425 85.770, 64.425 82.637, 68.966 73.911 C 70.712 70.556, 71.907 67.199, 71.620 66.453 C 71.334 65.706, 72.250 64.256, 73.658 63.231 L 76.216 61.367 71.311 57.261 C 68.614 55.002, 65.567 53.232, 64.541 53.327 C 63.205 53.451, 62.421 52.546, 61.781 50.142 C 61.140 47.736, 60.036 46.462, 57.889 45.652 C 55.619 44.795, 55.016 44.045, 55.404 42.561 C 55.686 41.483, 55.051 39.201, 53.994 37.490 L 52.070 34.378 54.695 30.689 C 58.641 25.142, 64.977 25.937, 61.947 31.599 C 60.813 33.719, 60.924 34.290, 62.875 36.367 C 64.094 37.664, 64.958 39.313, 64.796 40.030 C 64.629 40.764, 65.922 41.762, 67.750 42.312 C 69.537 42.850, 71 43.885, 71 44.613 C 71 47.097, 87.712 58.673, 89.121 57.165 C 90.409 55.785, 90.976 51.159, 89.900 50.800 C 89.297 50.599, 88.573 48.395, 88.293 45.903 C 87.828 41.778, 88.083 41.071, 91.141 38.007 C 92.988 36.156, 94.500 33.709, 94.500 32.571 C 94.500 30.969, 95.123 30.509, 97.249 30.539 C 99.036 30.565, 100.198 29.952, 100.567 28.789 C 101.177 26.866, 103.500 26.382, 104.483 27.973 C 104.814 28.509, 106.753 29.671, 108.792 30.556 C 115.039 33.269, 115.490 33.625, 115.808 36.102 C 115.978 37.421, 117.073 40.862, 118.242 43.748 C 120.300 48.833, 120.314 49.162, 118.683 54.336 C 117.757 57.273, 117 60.874, 117 62.338 C 117 63.802, 116.582 65, 116.071 65 C 115.561 65, 114.355 65.788, 113.393 66.750 C 112.430 67.713, 111.386 68.512, 111.071 68.526 C 108.871 68.627, 107.217 71.133, 106.679 75.185 C 106.336 77.762, 104.483 83.276, 102.560 87.438 C 100.638 91.600, 99.314 95.654, 99.618 96.447 C 99.922 97.240, 102.608 99.729, 105.586 101.977 C 111.957 106.788, 114.440 111.594, 113.540 117.375 C 113.080 120.330, 113.835 123.955, 116.718 132.632 L 120.500 144.013 156.500 143.756 L 192.500 143.500 192.757 71.750 L 193.013 0 96.507 0 L 0 0 0 72 M 0.474 72.500 C 0.474 112.100, 0.598 128.154, 0.750 108.176 C 0.901 88.198, 0.901 55.798, 0.750 36.176 C 0.598 16.554, 0.474 32.900, 0.474 72.500 M 81 66 C 81 66.550, 81.423 67, 81.941 67 C 82.459 67, 83.160 66.550, 83.500 66 C 83.840 65.450, 83.416 65, 82.559 65 C 81.702 65, 81 65.450, 81 66" stroke="none" fill="black" fill-rule="evenodd"/>
</svg>