<svg xmlns="http://www.w3.org/2000/svg" width="192" height="144" viewBox="0 0 192 144" version="1.1">
	<path d="M -0 72.005 L -0 144.010 96.250 143.755 L 192.500 143.500 192.757 71.750 L 193.013 0 96.507 0 L 0 0 -0 72.005 M 0.474 72.500 C 0.474 112.100, 0.598 128.154, 0.750 108.176 C 0.901 88.198, 0.901 55.798, 0.750 36.176 C 0.598 16.554, 0.474 32.900, 0.474 72.500 M 146.966 71.922 C 141.287 73.035, 140.853 73.637, 143.052 77.363 C 147.238 84.459, 151.361 88.015, 159 91.121 C 170.211 95.679, 189.960 103, 191.047 103 C 191.576 103, 192 99.245, 192 94.567 C 192 86.698, 191.850 86.088, 189.750 85.431 C 188.512 85.044, 181.019 81.639, 173.099 77.864 C 158.215 70.770, 155.731 70.205, 146.966 71.922" stroke="none" fill="black" fill-rule="evenodd"/>
</svg>