<svg xmlns="http://www.w3.org/2000/svg" width="192" height="144" viewBox="0 0 192 144" version="1.1">
	<path d="M 0 72 L 0 144 15.007 144 L 30.014 144 29.273 136.750 C 28.255 126.787, 28.748 119.189, 30.749 114 C 31.067 113.175, 31.405 112.275, 31.500 112 C 32.902 107.942, 37.512 98.698, 39.447 96.067 C 45.256 88.166, 57.437 79.335, 68.618 74.919 C 74.108 72.751, 76.001 72.586, 97 72.450 C 116.529 72.323, 120.160 72.051, 124.500 70.389 C 132.066 67.492, 140.301 63.078, 142.160 60.924 C 143.073 59.866, 144.239 59, 144.750 59 C 146.664 59, 153.182 50.868, 159.294 40.855 C 164.696 32.005, 168.036 12.920, 165.756 3.936 L 164.757 0 82.378 0 L 0 0 0 72 M 94.500 1.954 C 88.003 4.641, 84.666 14.540, 88.078 21 C 92.828 29.993, 103.539 31.198, 110.930 23.572 C 114.140 20.261, 114.265 19.852, 113.710 14.475 C 113.390 11.379, 112.390 7.717, 111.486 6.339 C 108.602 1.937, 99.944 -0.298, 94.500 1.954 M 82.907 114.325 C 78.033 116.896, 74.043 122.721, 74.016 127.305 C 73.991 131.599, 77.626 138.613, 81.347 141.451 C 87.131 145.862, 98.665 144.649, 102.689 139.207 C 108.703 131.073, 109.055 126.005, 104.102 118.854 C 99.406 112.074, 90.701 110.214, 82.907 114.325" stroke="none" fill="black" fill-rule="evenodd"/>
</svg>