<svg xmlns="http://www.w3.org/2000/svg" width="192" height="144" viewBox="0 0 192 144" version="1.1">
	<path d="M 0.022 3.250 L 0.044 6.500 2 4 C 4.488 0.819, 4.488 0, 2 0 C 0.406 0, 0.005 0.659, 0.022 3.250 M 188 0.592 C 188 0.918, 188.900 2.329, 190 3.727 L 192 6.270 192 3.135 C 192 0.667, 191.575 0, 190 0 C 188.900 0, 188 0.267, 188 0.592 M 38.500 34.626 C 27.655 36.098, 22.107 37.389, 19.382 39.073 C 17.667 40.133, 15.530 41, 14.632 41 C 13.734 41, 13 41.450, 13 42 C 13 42.550, 12.550 43, 12 43 C 11.450 43, 10.163 43.788, 9.141 44.750 C 8.118 45.712, 5.643 47.757, 3.641 49.293 L 0 52.085 0 94.473 C 0 136.720, 0.008 136.873, 2.250 140.388 L 4.500 143.915 96 143.920 L 187.500 143.924 190.250 139.949 L 193 135.973 192.774 93.237 C 192.650 69.731, 192.415 58.629, 192.252 68.565 L 191.956 86.630 188.480 90.315 C 186.569 92.342, 184.654 94, 184.225 94 C 183.796 94, 182.086 95.242, 180.424 96.760 C 178.762 98.278, 174.051 100.866, 169.956 102.510 C 162.903 105.342, 161.779 105.497, 148.682 105.441 C 141.076 105.408, 134.549 104.958, 134.177 104.441 C 133.805 103.923, 132.375 103.387, 131 103.248 C 125.873 102.731, 117.383 97.332, 109.331 89.468 C 102.017 82.325, 100.551 80.247, 96.088 70.688 C 91.746 61.390, 90.046 58.930, 83.502 52.470 C 79.340 48.362, 73.588 43.811, 70.718 42.356 C 59.436 36.638, 46.514 33.537, 38.500 34.626 M 140.357 37.387 C 134 40.919, 130.491 47.271, 131.367 53.659 C 132.864 64.583, 144.828 72.374, 153.213 67.886 C 157.012 65.853, 161.768 60.333, 162.468 57.145 C 165.199 44.711, 150.620 31.684, 140.357 37.387 M 0.459 95 C 0.459 118.925, 0.589 128.713, 0.749 116.750 C 0.908 104.788, 0.908 85.213, 0.749 73.250 C 0.589 61.288, 0.459 71.075, 0.459 95 M 38.534 80.201 C 33.924 82.874, 31.687 86.166, 31.629 90.361 C 31.539 96.888, 32.697 99.592, 37.065 103.052 L 41.136 106.276 46.818 104.537 C 51.337 103.154, 53.063 101.997, 55.250 98.886 C 59.365 93.032, 58.726 87.834, 53.177 82.028 C 50.715 79.452, 49.554 79.005, 45.392 79.030 C 42.701 79.047, 39.615 79.574, 38.534 80.201" stroke="none" fill="black" fill-rule="evenodd"/>
</svg>