<svg xmlns="http://www.w3.org/2000/svg" width="192" height="144" viewBox="0 0 192 144" version="1.1">
	<path d="M 164.001 13.595 C 161.527 15.009, 157.658 17.678, 155.403 19.526 C 146.995 26.416, 141.881 30.039, 133.060 35.357 C 125.302 40.034, 124 40.540, 124 38.878 C 124 36.293, 121.026 35.203, 119.825 37.348 C 119.075 38.688, 117.900 38.895, 113.699 38.430 C 106.799 37.665, 101.174 39.689, 98.250 43.988 C 95.928 47.401, 95.189 53, 97.059 53 C 97.641 53, 97.840 53.450, 97.500 54 C 96.228 56.058, 94.136 54.890, 93.472 51.750 C 91.782 43.762, 86.421 39, 79.119 39 C 75.273 39, 75.042 38.807, 72.313 33.293 C 66.018 20.576, 51.555 16.987, 41.868 25.738 C 35.923 31.109, 33.601 36.224, 33.546 44.069 C 33.487 52.503, 36.539 57.623, 43.605 60.944 C 48.239 63.122, 56.457 63.921, 59.253 62.465 C 59.939 62.108, 58.587 63.673, 56.250 65.944 C 53.913 68.214, 52 70.747, 52 71.571 C 52 72.396, 51.264 74.194, 50.365 75.566 C 48.391 78.578, 49.290 79.952, 51.767 77.711 C 54.287 75.431, 57.013 77.110, 55.295 79.884 C 54.339 81.427, 54.364 82.057, 55.416 82.930 C 56.145 83.536, 57.261 88.077, 57.895 93.021 C 58.529 97.966, 59.570 103.156, 60.207 104.555 C 61.089 106.491, 61.083 107.881, 60.183 110.370 C 58.737 114.369, 58.663 117.673, 60 118.500 C 61.302 119.305, 61.302 124, 60 124 C 58.616 124, 58.737 132.337, 60.142 133.742 C 60.997 134.597, 60.872 135.750, 59.642 138.343 C 57.761 142.306, 57.569 144, 59 144 C 59.550 144, 60 143.175, 60 142.167 C 60 141.158, 60.675 140.333, 61.500 140.333 C 62.325 140.333, 63 141.158, 63 142.167 C 63 143.175, 63.450 144, 64 144 C 65.307 144, 65.263 142.764, 63.834 139.315 C 62.223 135.426, 62.210 134.780, 63.697 132.527 C 65.239 130.193, 65.420 125.378, 64 124.500 C 62.703 123.699, 62.703 119.301, 64 118.500 C 64.550 118.160, 65 116.109, 65 113.941 C 65 111.773, 64.550 110, 64 110 C 62.574 110, 62.761 106.439, 64.250 105.231 C 64.938 104.673, 68.188 103.665, 71.474 102.991 C 74.760 102.317, 78.031 101.542, 78.743 101.268 C 79.773 100.873, 79.808 101.357, 78.918 103.636 C 78.159 105.577, 78.002 111.498, 78.430 122 C 78.955 134.873, 78.803 137.985, 77.531 140.364 C 76.689 141.940, 76 143.402, 76 143.614 C 76 143.826, 88.572 144, 103.937 144 L 131.875 144 137.431 137.451 C 140.486 133.849, 143.257 129.823, 143.588 128.504 C 144.660 124.234, 141.960 118.964, 134.883 111.513 C 130.701 107.111, 128 103.414, 128 102.092 C 128 98.718, 130.876 85.233, 133.196 77.734 C 135.184 71.305, 135.362 71.072, 136.757 73.063 L 138.225 75.159 141.207 72.329 C 144.890 68.835, 149.741 59.474, 150.576 54.248 C 151.690 47.281, 145.868 44.208, 138.416 47.829 C 136.030 48.988, 133.834 49.540, 133.535 49.056 C 133.236 48.573, 135.898 45.625, 139.450 42.506 C 144.435 38.130, 146.384 36.987, 147.993 37.498 C 150.046 38.149, 161 34.337, 161 32.971 C 161 32.607, 160.104 31.499, 159.009 30.508 C 157.131 28.808, 157.117 28.632, 158.759 27.372 C 160.276 26.210, 160.308 25.912, 159.007 25.060 C 157.760 24.242, 158.092 23.459, 161.029 20.291 C 166.525 14.361, 169.387 10.999, 168.924 11.012 C 168.691 11.019, 166.476 12.181, 164.001 13.595 M 86.302 67.635 C 82.450 70.696, 76.176 71.730, 71.987 69.995 C 67.295 68.051, 67.273 68.136, 68.129 84.667 C 68.333 88.609, 68.761 92.095, 69.080 92.414 C 69.400 92.733, 71.650 92.351, 74.080 91.566 C 76.511 90.780, 81.042 89.432, 84.148 88.570 L 89.796 87.003 92.580 79.371 C 95.154 72.313, 95.237 71.646, 93.682 70.509 C 92.757 69.833, 92 68.317, 92 67.140 C 92 64.347, 90.248 64.499, 86.302 67.635 M 61 114.500 C 61 116.056, 61.567 117, 62.500 117 C 63.433 117, 64 116.056, 64 114.500 C 64 112.944, 63.433 112, 62.500 112 C 61.567 112, 61 112.944, 61 114.500 M 108.648 119.184 C 106.797 126.095, 108.860 141, 111.667 141 C 112.672 141, 111.321 118.921, 110.250 117.850 C 109.607 117.207, 109.054 117.668, 108.648 119.184 M 127 125.714 C 127 128.215, 127.127 128.301, 128.618 126.810 C 129.508 125.920, 129.932 124.699, 129.559 124.096 C 128.332 122.110, 127 122.953, 127 125.714 M 123.667 124.667 C 122.608 125.725, 122.894 132, 124 132 C 124.550 132, 125 130.200, 125 128 C 125 123.913, 124.834 123.499, 123.667 124.667 M 60 128.500 C 60 130.056, 60.567 131, 61.500 131 C 62.433 131, 63 130.056, 63 128.500 C 63 126.944, 62.433 126, 61.500 126 C 60.567 126, 60 126.944, 60 128.500" stroke="none" fill="black" fill-rule="evenodd"/>
</svg>