<svg xmlns="http://www.w3.org/2000/svg" width="192" height="144" viewBox="0 0 192 144" version="1.1">
	<path d="M 0 72 L 0 144 24.362 144 L 48.725 144 49.388 138.359 C 49.752 135.256, 49.785 132.452, 49.461 132.128 C 49.137 131.804, 45.734 131.684, 41.899 131.861 C 37.701 132.055, 34.382 131.732, 33.560 131.050 C 32.490 130.161, 31.728 130.573, 30.030 132.959 C 28.838 134.631, 27.272 136, 26.548 136 C 24.630 136, 23.834 130.692, 25.602 129.692 C 26.388 129.247, 27.811 128.067, 28.765 127.069 C 29.719 126.071, 31.850 124.555, 33.500 123.701 C 35.150 122.846, 38.525 120.349, 41 118.151 L 45.500 114.155 45.597 94.828 C 45.703 73.633, 46.694 68.511, 53.182 55.646 C 54.806 52.426, 55.869 49.100, 55.544 48.255 C 55.220 47.410, 55.668 45.629, 56.540 44.299 C 58.578 41.188, 62.949 41.482, 64.616 44.843 C 65.255 46.132, 67.081 47.979, 68.674 48.948 C 71.911 50.917, 77.006 56.773, 87.794 70.929 C 91.806 76.193, 95.456 80.500, 95.905 80.500 C 96.353 80.500, 100.667 75.550, 105.491 69.500 C 115.946 56.387, 121.600 50.313, 125.035 48.505 C 126.430 47.771, 128.200 45.995, 128.969 44.558 C 132.067 38.770, 139.756 41.158, 138.559 47.537 C 138.133 49.809, 138.781 52.244, 140.991 56.666 C 146.040 66.770, 148.273 77.132, 147.421 86.500 C 147.020 90.900, 146.595 98.951, 146.476 104.391 L 146.260 114.282 149.774 118.172 C 153.131 121.887, 157.675 125.504, 164.745 130.088 C 167.470 131.854, 167.888 132.617, 167.354 134.846 C 167.005 136.306, 166.601 137.644, 166.457 137.819 C 165.829 138.585, 162.090 135.423, 160.560 132.832 C 158.755 129.777, 157 129.102, 157 131.465 C 157 133.866, 153.432 135.064, 148.184 134.425 C 143.704 133.879, 143.228 134.021, 142.694 136.062 C 142.372 137.292, 142.368 139.588, 142.683 141.166 L 143.257 144.034 167.878 143.767 L 192.500 143.500 192.757 71.750 L 193.013 0 96.507 0 L 0 0 0 72 M 0.474 72.500 C 0.474 112.100, 0.598 128.154, 0.750 108.176 C 0.901 88.198, 0.901 55.798, 0.750 36.176 C 0.598 16.554, 0.474 32.900, 0.474 72.500" stroke="none" fill="black" fill-rule="evenodd"/>
</svg>