<svg xmlns="http://www.w3.org/2000/svg" width="192" height="144" viewBox="0 0 192 144" version="1.1">
	<path d="M 0 22.500 C 0 35.587, 0.386 45, 0.923 45 C 1.980 45, 5.874 41.829, 11.589 36.314 C 26.893 21.544, 37.379 13.207, 49.976 5.794 C 54.664 3.035, 58.687 0.603, 58.917 0.389 C 59.146 0.175, 45.983 -0, 29.667 -0 L 0 0 0 22.500 M 142 0.489 C 142 0.758, 143.957 3.570, 146.350 6.739 C 153.174 15.777, 153.451 20.836, 146.936 17.467 C 145.219 16.579, 143.577 16.090, 143.287 16.380 C 142.996 16.670, 143.117 19.066, 143.555 21.704 C 144.484 27.302, 144.315 26.688, 145.971 30.500 C 148.064 35.318, 148.510 54.464, 146.695 61.519 C 142.583 77.497, 130 88.723, 118.600 86.585 C 115.234 85.953, 110.092 81.265, 109.923 78.673 C 109.720 75.551, 108.832 73.155, 105.003 65.389 C 102.724 60.767, 99.726 55.639, 98.341 53.993 C 95.679 50.830, 93 50.041, 93 52.420 C 93 53.255, 90.839 54.522, 87.750 55.497 C 84.862 56.409, 81.876 57.355, 81.114 57.598 C 79.964 57.966, 79.991 58.337, 81.271 59.771 C 83.168 61.896, 84.731 67.715, 85.361 75 C 85.623 78.025, 86.579 81.957, 87.486 83.737 C 88.392 85.518, 88.855 87.425, 88.515 87.976 C 88.156 88.557, 88.547 88.727, 89.448 88.382 C 90.302 88.054, 91 88.244, 91 88.804 C 91 89.363, 93.291 92.065, 96.091 94.807 C 102.237 100.824, 109.752 104.001, 117.839 103.999 C 124.241 103.997, 138.996 101.608, 141.769 100.123 C 144.075 98.889, 155.337 86.968, 157.691 83.269 C 158.661 81.746, 159.734 80.275, 160.075 80 C 160.417 79.725, 161.838 77.440, 163.233 74.921 C 168.015 66.288, 168.502 65.499, 169.500 64.765 C 171.782 63.088, 172.033 64.210, 170.082 67.368 C 168.937 69.220, 168 71.229, 168 71.833 C 168 72.436, 165.863 76.355, 163.250 80.543 C 157.602 89.597, 154.726 95.059, 155.303 95.636 C 155.534 95.867, 156.939 95.593, 158.426 95.028 C 168.535 91.185, 177.230 97.778, 174.960 107.565 C 173.664 113.157, 173.758 113.788, 176 114.500 C 179.325 115.555, 178.428 118, 174.716 118 C 172.053 118, 170.398 119.051, 165.966 123.561 C 160.121 129.508, 153.569 133.871, 141.217 140.038 L 133.500 143.892 163 143.696 L 192.500 143.500 192.829 133 C 193.011 127.225, 192.844 94.938, 192.459 61.250 L 191.760 0 166.880 0 C 153.196 0, 142 0.220, 142 0.489 M 55.208 50.567 C 53.118 52.031, 50 57.879, 50 60.335 C 50 60.934, 52.250 59.209, 55 56.500 C 59.920 51.654, 61.237 49, 58.723 49 C 58.020 49, 56.438 49.705, 55.208 50.567 M 1.023 103.250 L 1 144 25.535 144 C 49.012 144, 50.028 143.921, 49.090 142.168 C 48.550 141.160, 47.410 139.755, 46.555 139.045 C 45.700 138.336, 45 137.307, 45 136.760 C 45 136.212, 43.642 134.218, 41.983 132.327 C 38.379 128.224, 32.194 116.090, 24.994 99 C 19.252 85.372, 17.221 82.144, 9.443 74.281 C 6.603 71.411, 3.552 67.586, 2.663 65.781 C 1.146 62.703, 1.044 65.019, 1.023 103.250" stroke="none" fill="black" fill-rule="evenodd"/>
</svg>