<svg xmlns="http://www.w3.org/2000/svg" width="192" height="144" viewBox="0 0 192 144" version="1.1">
	<path d="M 93.380 9.925 C 85.294 11.249, 81.642 15.238, 79.673 24.892 C 78.348 31.385, 75.766 34.357, 71.278 34.553 C 66.845 34.747, 62.283 42, 66.594 42 C 67.470 42, 68.423 42.900, 68.710 44 C 68.998 45.100, 70.070 46, 71.094 46 C 72.117 46, 73.724 47.238, 74.664 48.750 C 77.876 53.914, 79.268 55.173, 80.214 53.774 C 80.749 52.981, 81.025 54.201, 80.945 57 C 80.733 64.308, 80.953 67.007, 81.750 66.882 C 83.882 66.545, 85.008 67.177, 85.079 68.750 C 85.127 69.806, 85.359 70.002, 85.664 69.244 C 85.943 68.553, 86.582 68.242, 87.085 68.553 C 87.588 68.864, 88 68.557, 88 67.872 C 88 67.187, 89.300 67.872, 90.890 69.394 C 92.983 71.399, 93.926 71.796, 94.311 70.831 C 94.614 70.071, 94.876 70.419, 94.921 71.643 C 95.019 74.295, 93.286 75, 86.668 75 C 81.700 74.999, 81.317 75.202, 76.776 80.250 L 72.052 85.500 70.059 83 C 68.962 81.625, 67.068 78.025, 65.848 75 C 64.629 71.975, 62.666 68.150, 61.487 66.500 C 60.307 64.850, 59.515 62.754, 59.727 61.843 C 59.938 60.932, 59.652 59.903, 59.092 59.557 C 57.939 58.844, 56.047 60.727, 51 67.612 C 49.075 70.238, 44.907 74.844, 41.738 77.847 L 35.976 83.307 38.877 85.072 C 42.253 87.124, 43.077 88.824, 41.852 91.208 C 41.202 92.474, 41.513 93.204, 43.052 94.028 C 44.714 94.917, 44.892 95.425, 43.942 96.570 C 43.289 97.356, 41.937 98, 40.937 98 C 39.936 98, 38.857 98.423, 38.537 98.939 C 37.888 99.990, 42.871 105, 44.565 105 C 45.163 105, 46.675 106.089, 47.926 107.421 C 49.737 109.349, 50.878 109.732, 53.532 109.301 C 56.748 108.779, 56.888 108.896, 57.527 112.630 C 59.103 121.837, 60.030 123.964, 63.175 125.591 C 65.651 126.871, 66.783 126.964, 68.783 126.053 L 71.289 124.911 70.698 130.638 C 70.372 133.800, 69.271 137.514, 68.239 138.932 C 67.212 140.344, 66.037 142.063, 65.627 142.750 C 65.040 143.735, 69.735 144, 87.802 144 L 110.722 144 109.764 140.250 C 108.924 136.964, 109.282 135.325, 112.656 127 C 116.050 118.626, 116.773 117.537, 118.753 117.813 C 120.720 118.087, 121 117.682, 121 114.563 C 121 112.603, 121.471 111, 122.048 111 C 122.624 111, 124.175 109.836, 125.494 108.412 L 127.892 105.825 133.696 108.943 C 136.888 110.657, 143.098 114.747, 147.496 118.030 C 151.893 121.314, 155.874 124, 156.341 124 C 156.809 124, 158.386 123.173, 159.846 122.163 C 165.409 118.312, 167.424 118.672, 176.310 125.110 L 180.311 128.008 181.414 125.754 C 182.103 124.347, 184.296 122.937, 187.253 122 L 191.990 120.500 191.995 103.331 L 192 86.161 188.513 87.124 C 186.595 87.654, 181.811 89.909, 177.881 92.135 C 163.453 100.311, 158.252 101.389, 145.547 98.838 C 140.545 97.833, 139.643 97.887, 138.889 99.234 C 138.210 100.447, 137.232 100.616, 134.480 99.995 C 129.426 98.856, 128 97.300, 128 92.925 C 128 86.934, 126.409 84.763, 119.085 80.757 C 112.032 76.900, 109.209 74.458, 110.412 73.255 C 110.795 72.872, 111.485 73.167, 111.945 73.911 C 112.588 74.952, 113.176 74.660, 114.494 72.649 L 116.207 70.035 117.976 72.219 L 119.745 74.404 121.739 70.518 C 123.670 66.753, 123.769 66.700, 124.901 68.816 C 126.930 72.606, 127.999 71.209, 128.015 64.750 C 128.024 61.313, 128.391 57.933, 128.831 57.240 C 129.271 56.547, 129.305 53.215, 128.906 49.835 C 127.846 40.846, 128.049 40.659, 135.710 43.543 C 139.300 44.894, 142.996 46, 143.923 46 C 144.850 46, 147.088 44.473, 148.896 42.607 C 151.676 39.740, 152.016 38.898, 151.092 37.173 C 149.468 34.137, 149.615 34, 154.500 34 C 156.975 34, 158.990 33.663, 158.978 33.250 C 158.965 32.837, 157.625 29.800, 156 26.500 C 153.970 22.379, 153.038 18.971, 153.022 15.618 L 153 10.737 145.750 11.212 C 140.512 11.556, 137.008 12.447, 133.125 14.424 L 127.751 17.160 123.622 14.195 C 121.352 12.565, 117.695 10.731, 115.497 10.121 C 111.200 8.928, 100.071 8.829, 93.380 9.925" stroke="none" fill="black" fill-rule="evenodd"/>
</svg>