<svg xmlns="http://www.w3.org/2000/svg" width="192" height="144" viewBox="0 0 192 144" version="1.1">
	<path d="M 22 1.250 C 22 1.938, 22.667 5.651, 23.483 9.500 C 25.110 17.182, 25.487 27, 24.155 27 C 23.690 27, 22.476 26.079, 21.457 24.953 C 18.481 21.664, 15.061 22.747, 13.415 27.500 C 11.829 32.082, 11.587 36, 12.892 36 C 13.382 36, 14.092 37.237, 14.470 38.750 C 15.359 42.313, 17.817 45.007, 19.567 44.336 C 20.713 43.896, 20.730 43.273, 19.671 40.653 C 18.417 37.550, 18.498 33.992, 19.823 34.008 C 20.195 34.013, 23.190 36.487, 26.478 39.507 L 32.457 44.998 29.948 47.506 C 27.854 49.600, 26.399 50.044, 21.150 50.189 C 15.732 50.338, 14.586 50.710, 12.882 52.878 L 10.903 55.393 13.701 56.842 C 15.241 57.639, 17.573 59.126, 18.885 60.146 C 20.197 61.166, 22.080 62, 23.071 62 C 24.221 62, 25.891 63.900, 27.687 67.250 C 31.107 73.633, 36.433 76.894, 40.203 74.914 C 41.467 74.251, 42.860 73.098, 43.301 72.352 C 43.741 71.606, 45.766 70.116, 47.801 69.042 L 51.500 67.088 47.950 67.044 C 43.212 66.985, 41.904 65.574, 43.183 61.904 C 43.948 59.710, 45.143 58.769, 48.217 57.941 C 56.344 55.753, 57.188 55.219, 56.005 53.009 C 55.307 51.705, 53.911 51, 52.024 51 C 50.426 51, 48.851 50.568, 48.525 50.041 C 47.911 49.046, 48.163 48.383, 51.881 41.211 C 54.908 35.373, 54.930 26.956, 51.935 20.585 C 50.593 17.731, 49.426 16.310, 48.996 17.006 C 48.579 17.681, 48.015 16.827, 47.641 14.956 C 46.575 9.623, 46.946 6.626, 49 4 C 50.076 2.625, 50.966 1.163, 50.978 0.750 C 50.990 0.337, 44.475 0, 36.500 0 C 25.564 0, 22 0.307, 22 1.250 M 130.630 2.250 C 130.299 3.488, 130.021 35.888, 130.014 74.250 L 130 144 148.332 144 L 166.665 144 166.232 138.750 C 165.892 134.629, 166.354 132.245, 168.382 127.664 C 170.677 122.482, 170.995 120.328, 171.233 108.418 C 171.423 98.863, 171.842 95.006, 172.691 95.004 C 173.346 95.002, 174.126 95.396, 174.425 95.879 C 174.724 96.362, 176.888 96.546, 179.234 96.287 C 181.658 96.019, 185.335 96.453, 187.750 97.291 L 192 98.766 192 49.383 L 192 0 161.617 0 L 131.233 0 130.630 2.250 M 38.079 23.583 C 38.127 24.748, 38.364 24.985, 38.683 24.188 C 38.972 23.466, 38.936 22.603, 38.604 22.271 C 38.272 21.939, 38.036 22.529, 38.079 23.583 M 190.446 115.087 C 190.077 115.685, 190.275 116.675, 190.887 117.287 C 191.704 118.104, 192 117.815, 192 116.200 C 192 113.785, 191.481 113.413, 190.446 115.087" stroke="none" fill="black" fill-rule="evenodd"/>
</svg>