<svg xmlns="http://www.w3.org/2000/svg" width="192" height="144" viewBox="0 0 192 144" version="1.1">
	<path d="M 0 58.500 L 0 117 4.500 117 L 9 117 9 109.434 C 9 100.559, 9.952 98.336, 14.580 96.402 C 17.681 95.106, 18 94.593, 18 90.893 C 18 87.654, 18.412 86.705, 20 86.290 C 21.433 85.915, 22 84.926, 22 82.800 C 22 80.869, 22.436 79.980, 23.250 80.254 C 23.941 80.486, 24.360 81.835, 24.187 83.269 C 23.970 85.073, 24.503 86.199, 25.937 86.967 C 27.486 87.795, 28 89.054, 28 92.016 C 28 95.373, 28.367 96.054, 30.459 96.579 C 34.738 97.653, 35.485 99.574, 35.176 108.703 L 34.890 117.143 37.673 116.822 C 40.087 116.543, 40.550 115.942, 41.170 112.282 C 42.090 106.852, 46.288 100.413, 47.725 102.227 C 49.888 104.956, 51.414 108.670, 51.945 112.500 L 52.500 116.500 67.088 116.776 L 81.675 117.052 84.525 120.026 C 86.092 121.662, 87.740 123, 88.187 123 C 88.634 123, 89.015 118.612, 89.033 113.250 C 89.061 105.211, 89.396 103.105, 90.944 101.250 C 93.376 98.334, 93.657 98.389, 96.011 102.250 C 97.805 105.192, 97.993 107.324, 97.996 124.750 L 98 144 144.841 144 L 191.682 144 192.341 122.839 C 192.703 111.200, 193 78.800, 193 50.839 L 193 0 96.500 0 L 0 0 0 58.500 M 0.469 59 C 0.469 91.175, 0.595 104.337, 0.749 88.250 C 0.904 72.162, 0.904 45.837, 0.749 29.750 C 0.595 13.662, 0.469 26.825, 0.469 59 M 118.028 30.186 C 116.917 32.009, 116.006 33.807, 116.004 34.183 C 116.002 34.558, 115.050 35.167, 113.890 35.535 C 111.467 36.304, 107 39.964, 107 41.180 C 107 41.631, 108.748 42, 110.883 42 C 114.322 42, 114.827 42.314, 115.291 44.739 C 115.579 46.246, 115.406 48.241, 114.907 49.174 C 113.275 52.224, 113.847 56.848, 116 58 C 119.424 59.832, 118.420 63.360, 112.896 68.914 C 108.971 72.859, 108.045 74.349, 108.887 75.364 C 109.490 76.090, 109.649 77.052, 109.241 77.501 C 108.834 77.951, 109.273 78.042, 110.218 77.703 C 111.163 77.364, 112.219 77.545, 112.565 78.105 C 112.911 78.665, 114.276 79.534, 115.597 80.037 C 117.059 80.593, 118 81.756, 118 83.007 C 118 85.507, 120.861 86.830, 122.086 84.896 C 122.572 84.128, 122.976 82.473, 122.985 81.219 C 123.005 78.183, 125.894 77.135, 127.645 79.529 C 128.390 80.548, 129 82.366, 129 83.569 C 129 86.691, 131.539 88.627, 133.500 87 C 134.325 86.315, 135 84.920, 135 83.899 C 135 82.282, 135.322 82.190, 137.500 83.182 C 138.875 83.808, 140 84.699, 140 85.161 C 140 85.622, 140.450 86, 141 86 C 141.550 86, 142 85.276, 142 84.392 C 142 83.188, 142.611 82.937, 144.428 83.392 C 145.953 83.775, 147.413 83.444, 148.356 82.501 C 149.182 81.675, 150.325 81, 150.897 81 C 151.469 81, 151.676 80.320, 151.357 79.489 C 150.942 78.407, 151.236 78.153, 152.389 78.596 C 154.023 79.223, 154.600 77.933, 153.277 76.610 C 152.100 75.434, 152.017 69, 153.179 69 C 153.910 69, 153.894 68.578, 153.131 67.658 C 152.519 66.920, 152.313 66.020, 152.675 65.658 C 153.037 65.296, 152.683 65, 151.889 65 C 150.321 65, 146.390 60.970, 146.768 59.750 C 146.896 59.337, 144.300 59, 141 59 C 135.475 59, 133.529 58.027, 136 56.500 C 137.274 55.712, 137.313 52, 136.047 52 C 135.523 52, 133.916 52.537, 132.475 53.193 C 130.343 54.165, 129.692 54.120, 128.971 52.953 C 127.946 51.295, 129.780 47.997, 134.170 43.599 C 135.763 42.004, 136.906 40.217, 136.710 39.629 C 136.514 39.041, 134.361 38.078, 131.927 37.489 C 127.777 36.485, 127.433 36.139, 126.421 31.959 C 125.516 28.217, 124.917 27.449, 122.696 27.186 C 120.605 26.938, 119.624 27.568, 118.028 30.186" stroke="none" fill="black" fill-rule="evenodd"/>
</svg>