<svg xmlns="http://www.w3.org/2000/svg" width="192" height="144" viewBox="0 0 192 144" version="1.1">
	<path d="M 0.030 5.250 C 0.064 10.963, 1.256 10.214, 2.417 3.750 C 2.957 0.744, 2.784 0, 1.545 0 C 0.344 0, 0.007 1.168, 0.030 5.250 M 75 1.059 C 75 1.641, 75.450 1.840, 76 1.500 C 76.550 1.160, 77 0.684, 77 0.441 C 77 0.198, 76.550 0, 76 0 C 75.450 0, 75 0.477, 75 1.059 M 93.776 1.750 C 93.525 2.712, 93.834 5.300, 94.465 7.500 C 95.377 10.684, 95.310 12.641, 94.135 17.093 C 92.671 22.643, 92.680 22.714, 95.330 26.188 C 96.798 28.113, 98 30.659, 98 31.844 C 98 34.195, 96.519 34.749, 95.578 32.750 C 94.750 30.990, 95.668 47.116, 96.517 49.250 C 97.890 52.698, 100.752 51.189, 103.633 45.500 C 105.165 42.475, 106.950 40, 107.600 40 C 108.251 40, 109.509 38.185, 110.397 35.966 C 111.791 32.482, 111.858 30.610, 110.886 22.216 C 110.267 16.872, 109.344 11.979, 108.834 11.341 C 108.324 10.704, 108.211 7.892, 108.582 5.091 L 109.258 -0 101.745 -0 C 95.432 -0, 94.160 0.279, 93.776 1.750 M 178.290 2.001 C 178.612 3.232, 178.414 3.756, 177.777 3.362 C 177.190 2.999, 176.953 3.324, 177.231 4.111 C 177.500 4.875, 178.634 5.402, 179.750 5.281 C 182.598 4.975, 183.081 8.617, 181.425 17.902 C 180.081 25.440, 179.644 32.880, 180.716 30 C 181.646 27.502, 185.016 24.792, 186.489 25.358 C 188.698 26.205, 189.714 31.931, 189 39.501 C 188.637 43.352, 188.733 49.202, 189.214 52.501 C 190.827 63.569, 190.625 65.351, 187.139 70.784 C 183.923 75.795, 183.901 75.908, 185.550 79.096 C 188.257 84.332, 187.082 90.929, 181.201 103.500 C 178.372 109.550, 175.783 114.348, 175.448 114.162 C 175.114 113.976, 173.313 115.214, 171.447 116.912 C 169.580 118.610, 167.646 120, 167.149 120 C 166.652 120, 165.627 120.748, 164.872 121.663 C 163.847 122.904, 163.803 123.427, 164.698 123.729 C 166.602 124.370, 164.039 129, 161.780 129 C 160.736 129, 160.100 128.646, 160.368 128.214 C 160.930 127.304, 159.970 127.146, 150.500 126.599 C 145.050 126.283, 142.808 126.592, 140.373 127.990 C 138.654 128.978, 135.890 130.085, 134.231 130.449 C 131.679 131.010, 130.907 130.679, 129.208 128.293 C 128.104 126.742, 127.043 124.377, 126.851 123.038 C 126.635 121.536, 125.193 119.840, 123.096 118.619 L 119.692 116.636 120.580 119.568 C 121.069 121.181, 121.504 125.425, 121.548 129 C 121.591 132.575, 121.711 137.418, 121.813 139.763 L 122 144.026 157.250 143.763 L 192.500 143.500 192.531 88.500 C 192.548 58.250, 192.414 25.963, 192.234 16.750 L 191.907 -0 184.837 -0 C 178.257 0, 177.803 0.139, 178.290 2.001 M 1 89.941 L 1 144 33.981 144 L 66.962 144 67.616 141.395 C 68.218 138.996, 67.490 126.157, 66.708 125.375 C 66.521 125.187, 65.015 125.422, 63.363 125.896 C 61.597 126.402, 58.118 126.350, 54.929 125.768 C 47.187 124.357, 39.983 124.056, 37.404 125.037 C 35.518 125.754, 34.417 125.057, 30.092 120.410 C 27.291 117.401, 25 114.069, 25 113.005 C 25 111.941, 24.112 110.595, 23.027 110.014 C 17.871 107.255, 11.438 99.229, 8.663 92.094 C 4.972 82.601, 3.966 66.629, 6.567 58.800 C 7.888 54.821, 7.992 53.279, 7.077 51.269 C 6.443 49.879, 6.135 48.532, 6.392 48.275 C 6.648 48.018, 5.990 46.263, 4.929 44.374 C 3.868 42.485, 3 40.079, 3 39.029 C 3 37.978, 2.550 36.840, 2 36.500 C 1.338 36.091, 1 54.156, 1 89.941 M 8 57.941 C 8 59.073, 8.450 60, 9 60 C 9.550 60, 10 59.352, 10 58.559 C 10 57.766, 9.550 56.840, 9 56.500 C 8.450 56.160, 8 56.809, 8 57.941 M 102.500 84.598 C 101.400 86.016, 99.531 88.238, 98.347 89.537 C 96.947 91.072, 96.597 92.063, 97.347 92.370 C 98.077 92.669, 97.992 92.871, 97.115 92.921 C 96.283 92.969, 96.765 93.814, 98.325 95.041 L 100.919 97.082 104.892 95.055 C 109.526 92.691, 110.658 91.258, 109.113 89.713 C 108.501 89.101, 108 87.655, 108 86.500 C 108 84.549, 106.316 81.987, 105.050 82.010 C 104.748 82.016, 103.600 83.181, 102.500 84.598" stroke="none" fill="black" fill-rule="evenodd"/>
</svg>