<svg xmlns="http://www.w3.org/2000/svg" width="192" height="144" viewBox="0 0 192 144" version="1.1">
	<path d="M 0 57.055 L 0 114.110 4.750 113.805 L 9.500 113.500 10.061 106 C 10.752 96.751, 11.357 95.379, 15.064 94.637 C 17.728 94.104, 18 93.678, 18 90.025 C 18 87.114, 18.415 86, 19.500 86 C 20.325 86, 21.052 85.438, 21.115 84.750 C 21.179 84.063, 21.291 82.943, 21.365 82.261 C 21.593 80.165, 23.500 80.909, 23.500 83.094 C 23.500 84.224, 24.260 85.707, 25.189 86.390 C 26.117 87.072, 26.738 88.501, 26.568 89.565 C 26.162 92.111, 27.709 95, 29.478 95 C 32.539 95, 33.889 98.942, 33.286 106.125 L 32.710 113 35.355 113 C 37.768 113, 38 112.654, 38 109.057 C 38 105.780, 41.220 98, 42.576 98 C 43.752 98, 46.478 103.847, 46.950 107.380 L 47.500 111.500 60.943 112.248 C 73.686 112.956, 74.532 113.135, 77.193 115.685 L 80 118.374 80 110.591 C 80 105.034, 80.491 101.978, 81.716 99.904 C 83.817 96.347, 84.493 96.297, 86.619 99.541 C 88.057 101.736, 88.256 104.944, 88.080 123.041 L 87.877 144 139.779 144 L 191.681 144 192.338 120.750 C 192.700 107.963, 192.996 75.563, 192.998 48.750 L 193 0 96.500 0 L 0 0 0 57.055 M 0.468 57.500 C 0.468 88.850, 0.595 101.530, 0.750 85.679 C 0.904 69.827, 0.904 44.177, 0.749 28.679 C 0.594 13.180, 0.468 26.150, 0.468 57.500 M 117.140 40.250 C 114.911 43.829, 112.321 46.279, 109.706 47.283 C 106.728 48.425, 107.722 50.306, 110.961 49.658 C 114.422 48.966, 114.942 49.544, 114.961 54.112 C 114.969 55.975, 114.984 58.997, 114.993 60.827 C 115.003 62.657, 115.716 64.859, 116.578 65.721 C 117.622 66.765, 117.930 68.157, 117.501 69.894 C 116.764 72.877, 112.341 76.911, 109.750 76.964 C 108.787 76.984, 108 77.589, 108 78.309 C 108 79.786, 110.919 84.001, 110.968 82.595 C 110.986 82.097, 111.900 82.505, 113 83.500 C 114.100 84.495, 115 84.960, 115 84.533 C 115 84.105, 115.675 84.315, 116.500 85 C 117.325 85.685, 118 87.063, 118 88.063 C 118 91.681, 120.112 91.123, 121.698 87.087 C 122.581 84.839, 123.630 83, 124.029 83 C 125.250 83, 127.098 85.721, 127.891 88.686 C 128.795 92.065, 131.572 92.925, 132.467 90.102 C 133.018 88.368, 133.443 88.245, 135.553 89.206 C 136.899 89.819, 138.029 90.811, 138.063 91.411 C 138.098 92.010, 138.553 91.436, 139.073 90.136 C 139.856 88.181, 140.278 87.986, 141.510 89.008 C 142.497 89.828, 143 89.877, 143 89.154 C 143 88.554, 143.634 88.306, 144.410 88.604 C 145.266 88.932, 146.087 88.302, 146.500 87 C 146.913 85.698, 147.734 85.068, 148.590 85.396 C 150.030 85.949, 150.520 84.853, 149.354 83.687 C 148.265 82.598, 148.168 77, 149.239 77 C 149.808 77, 149.704 76.348, 149 75.500 C 148.315 74.675, 148.123 74, 148.572 74 C 149.021 74, 147.957 72.944, 146.208 71.653 C 144.458 70.363, 143.321 69.013, 143.680 68.653 C 144.039 68.294, 143.021 67.931, 141.417 67.847 C 137.484 67.642, 133.676 67.338, 132.693 67.153 C 132.250 67.069, 132.587 66, 133.443 64.777 C 136.586 60.291, 134.892 58.764, 129.750 61.447 C 127.266 62.743, 127 62.717, 127 61.181 C 127 60.246, 127.900 58.919, 129 58.232 C 131.234 56.837, 131.662 53.527, 129.760 52.352 C 128.923 51.834, 129.330 51.394, 131.010 50.998 C 134.735 50.118, 134.050 47.705, 129.789 46.697 C 127.712 46.206, 125.881 45.089, 125.632 44.160 C 125.387 43.247, 124.910 41.263, 124.574 39.750 C 123.680 35.732, 119.790 35.994, 117.140 40.250" stroke="none" fill="black" fill-rule="evenodd"/>
</svg>