<svg xmlns="http://www.w3.org/2000/svg" width="192" height="144" viewBox="0 0 192 144" version="1.1">
	<path d="M 58.493 8.011 C 58.112 8.628, 58.078 9.411, 58.417 9.751 C 59.249 10.582, 52.951 17, 51.304 17 C 49.557 17, 49.653 18.467, 51.500 20 C 53.241 21.445, 53.662 34.473, 52 35.500 C 51.450 35.840, 51 37.865, 51 40 C 51 42.135, 50.550 44.160, 50 44.500 C 48.428 45.472, 48.831 49.688, 50.672 51.529 C 51.900 52.758, 53.328 53.043, 56.057 52.607 C 59.199 52.104, 59.850 52.320, 60.291 54.006 C 60.578 55.101, 60.394 56.256, 59.884 56.572 C 59.373 56.887, 57.606 59.700, 55.957 62.823 C 54.308 65.945, 51.594 70.616, 49.924 73.202 C 45.509 80.044, 45.590 82.941, 50.267 85.466 C 53.431 87.175, 53.949 87.900, 53.503 90 C 53.210 91.375, 52.908 96.074, 52.830 100.442 C 52.706 107.388, 52.395 108.656, 50.344 110.557 C 46.557 114.066, 47.281 116.459, 52.750 118.508 C 58.666 120.724, 58.541 120.602, 56.740 122.403 C 55.915 123.228, 54.936 125.527, 54.564 127.512 C 53.986 130.591, 54.246 131.406, 56.328 133.044 C 59.006 135.150, 59.342 139.678, 57.028 142.466 C 55.930 143.789, 56.185 144, 58.878 144 C 61.272 144, 62 143.560, 62 142.111 C 62 141.072, 62.848 139.174, 63.885 137.893 C 65.495 135.905, 66.005 135.759, 67.373 136.894 C 69.409 138.584, 72 137.631, 72 135.192 C 72 134.163, 73.101 132.819, 74.447 132.206 C 76.868 131.103, 76.890 130.976, 76.434 120.295 C 75.890 107.542, 74.076 92.217, 72.819 89.747 C 72.174 88.480, 72.510 87.372, 74.032 85.747 C 76.012 83.634, 76.106 82.727, 75.608 70.500 C 74.966 54.742, 74.942 40.054, 75.555 37.952 C 75.863 36.897, 74.886 35.999, 72.488 35.132 C 70.235 34.317, 69.229 33.438, 69.692 32.689 C 70.662 31.119, 70.851 17, 69.902 17 C 68.202 17, 63.107 11.771, 62.815 9.726 C 62.473 7.332, 59.614 6.198, 58.493 8.011 M 132.625 8.750 C 132.934 9.980, 131.406 11.688, 127.484 14.500 C 124.415 16.700, 121.138 18.521, 120.202 18.547 C 119.196 18.574, 118.674 19.188, 118.926 20.047 C 119.160 20.846, 119.500 23.975, 119.681 27 C 119.863 30.025, 120.121 33.568, 120.256 34.873 C 120.468 36.938, 119.853 37.418, 115.500 38.578 C 112.750 39.312, 108.275 39.932, 105.555 39.956 C 101.526 39.992, 100.094 39.506, 97.828 37.335 C 95.198 34.816, 94.823 34.737, 90.970 35.891 C 88.380 36.667, 86.595 37.912, 86.073 39.306 C 85.102 41.900, 86.308 42.963, 90.247 42.985 C 91.984 42.994, 94.465 44.329, 96.992 46.612 C 100.500 49.781, 101.421 50.144, 104.495 49.567 C 107.021 49.093, 108.021 49.271, 108.076 50.205 C 108.118 50.917, 108.164 53.750, 108.180 56.500 C 108.214 62.706, 108.709 63.573, 111.025 61.477 C 113.183 59.524, 115.863 59.828, 117.353 62.195 C 118.197 63.536, 117.210 66.383, 112.631 75.815 C 105.673 90.147, 105.595 92.162, 111.838 96.344 C 115.982 99.120, 116.143 99.412, 115.438 102.875 C 115.033 104.869, 114.656 110.510, 114.601 115.412 C 114.501 124.236, 114.471 124.340, 111.500 125.986 C 106.885 128.543, 106.947 132.259, 111.679 136.631 L 115.500 140.163 110.500 139.377 C 104.169 138.383, 100.405 138.618, 95.504 140.315 C 89.489 142.398, 89.563 144.475, 95.618 143.518 C 98.303 143.093, 102.525 142.812, 105 142.893 C 107.475 142.974, 116.250 143.278, 124.500 143.570 C 137.855 144.041, 139.281 143.938, 137.500 142.630 C 135.511 141.169, 135.512 141.148, 137.750 138.766 C 140.443 135.900, 140.612 132.863, 138.277 129.300 C 136.877 127.164, 136.525 124.068, 136.404 112.835 C 136.322 105.226, 136.655 99, 137.144 99 C 137.632 99, 138.781 97.430, 139.696 95.512 C 141.276 92.198, 141.253 91.660, 139.233 84.762 C 135.678 72.618, 134.150 64.616, 135.059 62.903 C 135.535 62.006, 135.510 60.910, 135.002 60.402 C 133.879 59.279, 135.416 51.979, 136.978 51.014 C 138.234 50.237, 138.427 48.056, 137.662 43.250 C 137.378 41.462, 137.466 40, 137.859 40 C 138.251 40, 138.666 39.212, 138.781 38.250 C 138.896 37.288, 139.338 33.575, 139.762 30 C 140.186 26.425, 140.889 22.938, 141.325 22.250 C 141.761 21.562, 141.717 21, 141.226 21 C 140.736 21, 138.872 19.179, 137.083 16.954 C 134.450 13.677, 134.061 12.631, 135.038 11.454 C 135.982 10.317, 135.974 9.673, 135 8.500 C 133.319 6.475, 132.088 6.604, 132.625 8.750 M 141.244 38.664 C 139.473 39.378, 140.733 41, 143.059 41 C 144.127 41, 145 40.325, 145 39.500 C 145 38.006, 143.632 37.701, 141.244 38.664 M 0 88.834 L 0 98.113 3.112 96.307 C 7.363 93.838, 7.649 92.511, 4.974 87.668 C 0.008 78.677, 0 78.679, 0 88.834 M 60.150 90.750 C 58.839 93.243, 57.694 104.459, 58.493 106.978 C 59.082 108.835, 59.809 109.062, 64.333 108.799 L 69.500 108.500 69.199 103.028 C 68.805 95.878, 65.810 89, 63.091 89 C 61.980 89, 60.656 89.787, 60.150 90.750 M 125.033 99.968 C 123.218 100.414, 122.375 101.489, 121.842 104.037 C 120.818 108.929, 120.497 123.377, 121.380 124.806 C 121.786 125.462, 123.605 126, 125.423 126 C 128.597 126, 128.753 125.816, 129.364 121.360 C 130.295 114.571, 130.011 107.001, 128.673 102.931 C 127.652 99.822, 127.181 99.439, 125.033 99.968 M 0.015 130.250 C -0.001 139.821, 0.832 140.936, 4.826 136.686 C 7.610 133.722, 7.561 132.652, 4.500 129.591 C 3.125 128.216, 1.993 126.508, 1.985 125.795 C 1.976 125.083, 1.533 123.825, 1 123 C 0.333 121.968, 0.026 124.231, 0.015 130.250" stroke="none" fill="black" fill-rule="evenodd"/>
</svg>