<svg xmlns="http://www.w3.org/2000/svg" width="192" height="144" viewBox="0 0 192 144" version="1.1">
	<path d="M 89 1.717 C 89 2.661, 88.249 5.400, 87.331 7.804 C 85.978 11.345, 85.878 12.775, 86.804 15.337 C 87.760 17.986, 87.573 19.678, 85.649 25.740 C 84.386 29.723, 83.084 33.250, 82.755 33.578 C 81.744 34.589, 76 29.734, 76 27.869 C 76 25.187, 72.125 22.863, 69.762 24.127 C 67.994 25.074, 67.965 25.304, 69.417 26.908 C 70.288 27.870, 71 29.833, 71 31.270 C 71 32.706, 71.444 34.156, 71.986 34.491 C 73.341 35.329, 72.671 40.324, 70.823 43.162 C 69.985 44.448, 68.705 47.831, 67.978 50.681 C 66.691 55.731, 66.727 55.953, 69.400 59.458 C 70.975 61.523, 72.858 62.937, 73.822 62.777 C 75.082 62.569, 75.455 63.175, 75.317 65.208 C 75.182 67.216, 76.410 69.275, 80.067 73.170 C 82.780 76.060, 85 78.826, 85 79.318 C 85 79.810, 83.712 81.852, 82.138 83.856 C 80.564 85.860, 78.795 89.075, 78.207 91 C 76.367 97.019, 74.849 107.442, 75.546 109.260 C 76.055 110.585, 75.695 111, 74.040 111 C 72.209 111, 71.995 110.644, 72.683 108.750 C 74.382 104.072, 73.627 95.678, 71.201 92.276 C 69.387 89.733, 69.123 88.640, 69.949 87.096 C 70.746 85.607, 70.621 84.764, 69.427 83.569 C 67.345 81.488, 66.290 81.590, 65 84 C 64.161 85.567, 62.906 86, 59.199 86 C 50.456 86, 43.017 92.377, 42.985 99.898 C 42.966 104.399, 42.227 105.514, 38.689 106.380 C 37.144 106.759, 33.915 109.033, 31.514 111.433 C 21.963 120.984, 23.161 133.215, 34.385 140.750 C 38.512 143.520, 40.114 144, 45.245 144 C 49.534 144, 52.201 143.421, 54.525 141.984 C 59.026 139.203, 63.197 133.443, 64.539 128.157 L 65.665 123.721 67.909 126.872 C 70.302 130.233, 72.153 130.303, 71.289 126.999 C 70.985 125.836, 71.259 125, 71.945 125 C 72.777 125, 72.921 126.344, 72.436 129.581 C 71.991 132.545, 72.182 134.972, 72.978 136.458 C 73.998 138.365, 73.915 139.200, 72.488 141.377 L 70.770 144 98.264 144 L 125.757 144 127.013 140.968 C 127.704 139.300, 128.505 138.171, 128.793 138.459 C 129.080 138.747, 129.920 138.481, 130.658 137.869 C 131.645 137.050, 132 137.052, 132 137.878 C 132 140.178, 133.842 138.891, 134.902 135.851 C 136.622 130.917, 136.253 128.754, 132.438 121.382 C 129.777 116.242, 128.675 112.601, 128.087 107 C 127.653 102.875, 125.909 95, 124.212 89.500 C 121.429 80.483, 115.614 57.767, 114.290 50.737 C 113.867 48.494, 114.073 48.091, 115.385 48.594 C 119.336 50.110, 116.149 35.607, 111.189 29.500 C 107.664 25.160, 105.470 24.246, 100.418 25.012 L 96 25.683 96 20.370 C 96 16.929, 96.850 13.136, 98.411 9.606 C 99.737 6.608, 100.570 3.903, 100.262 3.596 C 99.955 3.288, 98.645 3.302, 97.352 3.627 C 95.440 4.106, 95 3.823, 95 2.108 C 95 0.432, 94.385 0, 92 0 C 89.832 0, 89 0.476, 89 1.717 M 107.435 126.165 C 108.396 135.846, 110.062 137.736, 111.756 131.065 C 112.676 127.439, 112.524 126.870, 109.814 123.815 L 106.873 120.500 107.435 126.165 M 76.250 123.563 C 74.747 125.190, 74.622 127.648, 76 128.500 C 76.550 128.840, 77 129.991, 77 131.059 C 77 132.127, 77.450 133, 78 133 C 79.150 133, 79.383 123.350, 78.250 122.664 C 77.838 122.414, 76.938 122.819, 76.250 123.563 M 73.177 132.553 C 73.629 134.725, 75.404 134.858, 75.810 132.750 C 76.020 131.655, 75.530 131, 74.500 131 C 73.539 131, 72.988 131.647, 73.177 132.553" stroke="none" fill="black" fill-rule="evenodd"/>
</svg>