<svg xmlns="http://www.w3.org/2000/svg" width="192" height="144" viewBox="0 0 192 144" version="1.1">
	<path d="M 63.755 4.805 C 65.052 18.301, 58.381 35.523, 48.086 45.257 C 35.961 56.720, 13.657 63.077, 1.750 58.464 C 0.100 57.825, 0 60.247, 0 100.893 L 0 144 52.279 144 L 104.558 144 105.794 136.250 C 106.474 131.987, 108.112 125.544, 109.433 121.930 C 112.792 112.747, 117.104 89.474, 116.367 84.500 C 115.953 81.701, 114.833 79.693, 112.638 77.814 L 109.500 75.127 111.126 70.564 C 112.020 68.054, 112.414 66, 112.002 66 C 111.589 66, 109.338 66.675, 107 67.500 C 101.571 69.416, 100 69.392, 100 67.393 C 100 66.375, 99.450 65.997, 98.500 66.362 C 97.675 66.678, 97 66.501, 97 65.969 C 97 65.436, 95.597 65, 93.882 65 C 89.987 65, 63.861 56.393, 62.865 54.782 C 60.825 51.480, 65.507 51.132, 72 54.103 C 76.736 56.269, 89.775 59.314, 93.969 59.232 C 95.327 59.206, 96.603 58.690, 96.805 58.086 C 97.006 57.482, 97.602 57.254, 98.129 57.580 C 98.656 57.906, 99.712 57.654, 100.476 57.020 C 101.491 56.177, 102.888 56.153, 105.682 56.929 C 111.863 58.645, 115.686 58.310, 116.290 56 C 116.626 54.713, 116.320 54, 115.432 54 C 113.911 54, 110.628 48.411, 111.408 47.149 C 111.677 46.713, 111.021 45.606, 109.949 44.688 C 107.663 42.731, 107.454 40.129, 109.372 37.506 C 110.537 35.912, 110.527 35.112, 109.303 32.184 C 107.261 27.296, 108.691 26.339, 114.665 28.596 C 117.324 29.601, 120.625 31, 122 31.705 C 123.375 32.411, 124.978 32.990, 125.563 32.994 C 126.148 32.997, 127.860 34.288, 129.369 35.863 C 131.460 38.046, 132.331 40.275, 133.035 45.242 C 133.542 48.826, 134.417 52.967, 134.979 54.444 C 135.540 55.922, 136 58.367, 136 59.878 C 136 61.591, 137.069 63.650, 138.837 65.344 C 140.945 67.363, 141.715 69.098, 141.832 72.088 C 141.919 74.301, 142.495 77.056, 143.111 78.208 C 143.728 79.361, 144.846 84.623, 145.595 89.902 C 146.345 95.181, 147.323 101.300, 147.771 103.500 C 148.693 108.039, 148.296 111.301, 146.924 110.453 C 146.416 110.139, 146 110.411, 146 111.058 C 146 111.741, 145.162 112.014, 144 111.710 C 142.900 111.423, 142 111.356, 142 111.563 C 142 111.769, 144.688 118.014, 147.974 125.441 C 151.259 132.867, 154.236 140.091, 154.588 141.493 L 155.228 144.043 173.864 143.772 L 192.500 143.500 192.825 129 C 193.003 121.025, 192.837 88.737, 192.455 57.250 L 191.761 0 127.527 -0 L 63.294 -0 63.755 4.805 M 0.459 101 C 0.459 124.925, 0.589 134.713, 0.749 122.750 C 0.908 110.788, 0.908 91.213, 0.749 79.250 C 0.589 67.288, 0.459 77.075, 0.459 101 M 137.360 90.160 C 137.711 94.923, 138.400 99.873, 138.891 101.160 L 139.785 103.500 140.481 100.827 C 141.150 98.263, 138.640 83.247, 137.346 82.068 C 137.003 81.755, 137.009 85.397, 137.360 90.160" stroke="none" fill="black" fill-rule="evenodd"/>
</svg>