<svg xmlns="http://www.w3.org/2000/svg" width="192" height="144" viewBox="0 0 192 144" version="1.1">
	<path d="M -0 72.005 L -0 144.010 96.250 143.755 L 192.500 143.500 192.757 71.750 L 193.013 0 96.507 0 L 0 0 -0 72.005 M 0.474 72.500 C 0.474 112.100, 0.598 128.154, 0.750 108.176 C 0.901 88.198, 0.901 55.798, 0.750 36.176 C 0.598 16.554, 0.474 32.900, 0.474 72.500 M 67.213 37.885 C 67.281 38.223, 67.006 40.079, 66.602 42.008 C 64.398 52.543, 82.396 81.074, 101.048 96.610 C 108.746 103.023, 119.461 109.144, 121.571 108.334 C 122.978 107.795, 132 97.227, 132 96.119 C 132 94.403, 123.495 81.216, 119.264 76.373 C 106.993 62.325, 85.347 42.682, 78.624 39.492 C 74.987 37.766, 66.963 36.636, 67.213 37.885" stroke="none" fill="black" fill-rule="evenodd"/>
</svg>