<svg xmlns="http://www.w3.org/2000/svg" width="192" height="144" viewBox="0 0 192 144" version="1.1">
	<path d="M 0 72 L 0 144 45.392 144 L 90.783 144 91.422 141.454 C 92.334 137.821, 91.246 136.698, 87.418 137.320 C 85.035 137.706, 83.395 137.312, 81.638 135.930 C 80.289 134.868, 78.581 133.982, 77.842 133.959 C 75.377 133.885, 70.305 128.538, 69.699 125.374 C 69.199 122.765, 69.846 121.197, 73.626 115.874 C 81.877 104.254, 82.825 101.279, 84.524 81.707 C 84.888 77.508, 84.671 76.814, 82.777 76.113 C 80.694 75.343, 80.714 75.289, 83.308 74.638 C 84.788 74.266, 86 73.284, 86 72.456 C 86 69.497, 75.734 67.666, 73.223 70.177 C 72.320 71.080, 71.671 70.457, 70.438 67.506 C 69.360 64.926, 68.574 64.071, 68.054 64.912 C 66.870 66.828, 65.789 63.254, 66.924 61.178 C 68.594 58.124, 75.977 51.586, 80.677 49 C 84.604 46.839, 85.511 45.745, 86.669 41.773 C 87.630 38.477, 88.899 36.582, 90.962 35.363 C 92.573 34.412, 93.744 33.378, 93.563 33.067 C 93.030 32.146, 94.859 28, 95.799 28 C 96.274 28, 97.219 29.041, 97.900 30.313 C 98.580 31.584, 100.560 33.047, 102.299 33.563 C 104.310 34.159, 106.471 36.015, 108.238 38.663 C 110.542 42.116, 111.740 42.946, 115.258 43.526 C 119.722 44.262, 127.991 47.921, 131.689 50.797 C 134.337 52.857, 135.058 55.392, 133.014 55.455 C 131.354 55.505, 130.252 59, 131.895 59 C 132.468 59, 132.678 59.675, 132.362 60.500 C 131.998 61.447, 130.466 62, 128.209 62 C 124.192 62, 115.695 65.698, 116.546 67.075 C 116.850 67.566, 118.539 68.385, 120.299 68.894 C 123.266 69.752, 123.312 69.826, 120.917 69.910 C 119.496 69.959, 118.026 69.693, 117.651 69.317 C 116.969 68.636, 103 67.919, 103 68.565 C 103 68.752, 103.522 70.052, 104.161 71.453 C 105.387 74.145, 106.480 74.651, 107.500 73 C 107.840 72.450, 108.654 72.003, 109.309 72.007 C 109.964 72.010, 109.268 72.826, 107.762 73.819 C 105.596 75.247, 105.281 75.881, 106.254 76.854 C 107.226 77.826, 107.200 78.259, 106.125 78.923 C 105.020 79.606, 104.990 80.439, 105.966 83.395 C 107.009 86.556, 106.897 87.582, 105.103 91.288 C 102.528 96.607, 102.981 102.167, 107.196 116.949 C 110.546 128.699, 110.275 133.235, 106.190 133.823 C 104.168 134.114, 103.974 134.631, 104.223 139.079 L 104.500 144.012 148.500 143.756 L 192.500 143.500 192.757 71.750 L 193.013 0 96.507 0 L 0 0 0 72 M 0.474 72.500 C 0.474 112.100, 0.598 128.154, 0.750 108.176 C 0.901 88.198, 0.901 55.798, 0.750 36.176 C 0.598 16.554, 0.474 32.900, 0.474 72.500 M 67 69.333 C 67 70.260, 67.777 70.993, 68.750 70.985 C 69.749 70.976, 70.071 70.649, 69.500 70.223 C 68.950 69.813, 68.162 69.069, 67.750 68.572 C 67.338 68.074, 67 68.417, 67 69.333 M 77 75 C 77.825 75.533, 78.950 75.969, 79.500 75.969 C 80.050 75.969, 79.825 75.533, 79 75 C 78.175 74.467, 77.050 74.031, 76.500 74.031 C 75.950 74.031, 76.175 74.467, 77 75 M 96.651 136.266 C 95.040 137.444, 95.032 137.757, 96.533 140.766 C 98.402 144.512, 98.521 144.593, 98.721 142.250 C 98.804 141.287, 99.178 139.262, 99.552 137.750 C 100.292 134.762, 99.360 134.285, 96.651 136.266" stroke="none" fill="black" fill-rule="evenodd"/>
</svg>