<svg xmlns="http://www.w3.org/2000/svg" width="192" height="144" viewBox="0 0 192 144" version="1.1">
	<path d="M 0 57 L 0 114 4 114 L 8 114 8 108.082 C 8 100.673, 8.535 99.292, 12.121 97.437 C 14.277 96.322, 15 95.229, 15 93.081 C 15 91.455, 15.649 89.965, 16.500 89.638 C 17.325 89.322, 18 88.175, 18 87.090 C 18 86.006, 18.450 84.840, 19 84.500 C 19.568 84.149, 20 85, 20 86.472 C 20 87.897, 20.675 89.322, 21.500 89.638 C 22.417 89.990, 23 91.506, 23 93.540 C 23 96.114, 23.508 97.024, 25.250 97.567 C 28.207 98.490, 28.960 99.776, 29.016 104 C 29.066 107.664, 29.519 107.457, 32.586 102.372 C 33.590 100.710, 33.811 100.782, 35.468 103.311 C 36.455 104.817, 37.558 107.501, 37.919 109.275 L 38.576 112.500 51.278 113.067 C 62.677 113.575, 64.229 113.866, 66.396 115.902 C 68.806 118.166, 68.812 118.167, 69.469 116.099 C 69.830 114.959, 69.855 112.108, 69.523 109.763 C 69.051 106.424, 69.384 104.755, 71.062 102.059 L 73.203 98.618 75.079 101.059 C 76.770 103.259, 76.958 105.500, 76.978 123.750 L 77 144 134.340 144 L 191.681 144 192.338 120.750 C 192.700 107.963, 192.996 75.563, 192.998 48.750 L 193 0 96.500 0 L 0 0 0 57 M 0.468 57.500 C 0.468 88.850, 0.595 101.530, 0.750 85.679 C 0.904 69.827, 0.904 44.177, 0.749 28.679 C 0.594 13.180, 0.468 26.150, 0.468 57.500 M 121.759 37.488 C 120.517 39.406, 118.686 40.981, 117.691 40.988 C 116.696 40.994, 116.146 41.427, 116.469 41.950 C 116.792 42.472, 116.143 43.388, 115.028 43.985 C 112.035 45.587, 112.565 47.037, 115.899 46.370 C 119.416 45.667, 119.986 46.971, 119.753 55.196 C 119.632 59.466, 120.047 61.395, 121.414 62.905 C 122.654 64.275, 123.036 65.720, 122.608 67.424 C 121.723 70.951, 117.365 75, 114.455 75 C 113.105 75, 112.007 75.563, 112.015 76.250 C 112.039 78.149, 113.758 80.473, 115.208 80.564 C 118.657 80.780, 122.903 83.308, 123.191 85.317 C 123.361 86.506, 124.262 87.625, 125.193 87.802 C 126.438 88.039, 127.063 87.183, 127.554 84.562 C 127.922 82.603, 128.586 81, 129.030 81 C 131.505 81, 133 82.501, 133 84.985 C 133 88.723, 135.261 90.596, 137.305 88.552 C 138.139 87.718, 138.986 86.542, 139.187 85.938 C 139.619 84.643, 145 86.756, 145 88.220 C 145 88.714, 145.457 88.835, 146.016 88.490 C 146.575 88.144, 146.793 87.474, 146.500 87 C 146.207 86.526, 146.394 85.875, 146.915 85.553 C 147.436 85.231, 148.132 85.405, 148.463 85.940 C 149.135 87.027, 151.867 86.237, 153.702 84.425 C 154.364 83.772, 154.626 82.960, 154.286 82.619 C 153.945 82.279, 154.754 81.993, 156.083 81.985 C 157.459 81.976, 158.021 81.653, 157.388 81.235 C 156.777 80.831, 156.067 79.037, 155.811 77.250 C 155.456 74.769, 155.719 73.992, 156.923 73.968 C 158.201 73.942, 158.132 73.658, 156.559 72.468 C 155.491 71.661, 155.014 71, 155.497 71 C 155.981 71, 155.411 70.100, 154.230 69 C 153.050 67.900, 151.567 67, 150.935 67 C 150.303 67, 150.045 66.325, 150.362 65.500 C 150.836 64.263, 149.817 64, 144.555 64 L 138.174 64 139.292 61.038 C 140.795 57.055, 139.690 56.301, 135.369 58.361 L 131.763 60.081 132.461 57.290 C 132.845 55.756, 133.808 54.135, 134.601 53.689 C 135.393 53.242, 135.799 52.484, 135.502 52.003 C 135.205 51.522, 136.120 49.971, 137.535 48.556 C 140.440 45.651, 140.044 44, 136.441 44 C 133.415 44, 129.631 40.404, 130.440 38.296 C 131.262 36.155, 129.229 34, 126.387 34 C 124.780 34, 123.292 35.122, 121.759 37.488" stroke="none" fill="black" fill-rule="evenodd"/>
</svg>