<svg xmlns="http://www.w3.org/2000/svg" width="192" height="144" viewBox="0 0 192 144" version="1.1">
	<path d="M 0 20.500 C 0 38.056, 0.215 41, 1.500 41 C 2.684 41, 3.027 39.471, 3.128 33.750 C 3.198 29.762, 3.394 25.600, 3.563 24.500 C 4.363 19.291, 5.235 16.318, 6.558 14.285 C 7.351 13.067, 8 10.566, 8 8.726 C 8 6.887, 8.661 4.509, 9.468 3.441 C 11.785 0.377, 11.350 0, 5.500 0 L 0 0 0 20.500 M 0.110 113.750 L 0 144 31 144 L 62 144 62 141.858 C 62 139.545, 62.016 139.545, 45.438 141.605 C 41.643 142.077, 40.005 141.862, 38.890 140.747 C 36.745 138.602, 31.418 136, 29.172 136 C 28.112 136, 26.697 135.339, 26.027 134.532 C 25.356 133.725, 24.514 133.103, 24.154 133.150 C 22.056 133.428, 20.998 132.794, 20.985 131.250 C 20.973 129.927, 20.766 129.821, 20.134 130.817 C 18.915 132.740, 17.114 127.540, 17.118 122.111 C 17.120 119.697, 16.644 117.244, 16.061 116.661 C 15.477 116.077, 14.987 114.677, 14.972 113.550 C 14.956 112.422, 13.138 109.475, 10.932 107 C 6.386 101.901, 2.265 93.845, 1.045 87.674 C 0.529 85.065, 0.178 94.841, 0.110 113.750 M 95.691 107.048 C 94.761 108.134, 93.984 110.030, 93.965 111.261 C 93.945 112.493, 93.286 114.625, 92.500 116 C 90.241 119.951, 90.682 120.724, 95.910 121.978 C 100.611 123.106, 101.078 123.017, 106.910 119.887 C 113.010 116.612, 114.363 114.737, 111.437 113.614 C 110.577 113.284, 110.116 112.621, 110.413 112.141 C 111.328 110.661, 107.706 108.206, 103.500 107.454 C 101.300 107.061, 99.024 106.364, 98.441 105.906 C 97.814 105.412, 96.693 105.878, 95.691 107.048 M 185.164 127.250 C 182.936 129.037, 180.414 131.850, 179.560 133.500 C 176.982 138.482, 175.665 139.657, 171.850 140.370 C 169.843 140.746, 167.651 141.716, 166.978 142.526 C 165.911 143.812, 167.431 144, 178.878 144 L 192 144 192 134 C 192 122.514, 191.583 122.102, 185.164 127.250 M 128 142 C 128 143.826, 128.667 144, 135.655 144 C 143.247 144, 143.295 143.983, 141.500 142 C 140.083 140.435, 138.420 140, 133.845 140 C 128.667 140, 128 140.228, 128 142 M 67 143 C 65.787 143.784, 65.931 143.972, 67.750 143.985 C 68.987 143.993, 70 143.550, 70 143 C 70 141.747, 68.939 141.747, 67 143 M 119 143 C 119 143.550, 120.013 143.993, 121.250 143.985 C 123.069 143.972, 123.213 143.784, 122 143 C 120.061 141.747, 119 141.747, 119 143" stroke="none" fill="black" fill-rule="evenodd"/>
</svg>