<svg xmlns="http://www.w3.org/2000/svg" width="192" height="144" viewBox="0 0 192 144" version="1.1">
	<path d="M 0 72 L 0 144 40 144 C 79.333 144, 80 143.967, 80 142 C 80 140.642, 79.333 140, 77.923 140 C 75.298 140, 70.309 135.080, 69.446 131.640 C 68.996 129.846, 69.452 127.900, 70.894 125.454 C 72.053 123.492, 73 120.813, 73 119.502 C 73 118.191, 73.433 116.850, 73.963 116.523 C 74.527 116.174, 74.168 114.680, 73.094 112.915 C 70.865 109.248, 71.074 101.150, 73.443 99.418 C 74.300 98.792, 75 97.559, 75 96.679 C 75 95.798, 75.879 94.259, 76.954 93.258 C 78.516 91.803, 78.967 89.838, 79.204 83.469 C 79.375 78.860, 80.027 74.943, 80.750 74.179 C 81.438 73.452, 82 71.742, 82 70.379 C 82 69.016, 82.668 66.609, 83.485 65.030 C 84.855 62.380, 84.685 60.858, 81.291 45.329 C 76.101 21.588, 76.370 8.599, 81.897 16.075 C 84.056 18.995, 86.138 28.939, 88.476 47.500 C 89.427 55.048, 90.099 57.387, 91.680 58.654 C 92.534 59.339, 92.722 60.054, 92.141 60.413 C 91.534 60.788, 91.707 62.110, 92.599 63.897 C 93.666 66.036, 93.775 67.461, 93.024 69.436 C 92.341 71.234, 92.345 73.576, 93.036 76.660 C 94.153 81.645, 93.084 84.246, 90.117 83.763 C 89.074 83.593, 88.380 84.349, 88.162 85.891 C 87.881 87.876, 88.135 88.150, 89.662 87.507 C 90.673 87.081, 92.287 86.765, 93.250 86.804 C 94.891 86.871, 95 84.168, 95 43.438 L 95 0 47.500 0 L 0 0 0 72 M 95 116 L 95 144 106.035 144 C 116.480 144, 117.017 143.901, 116.076 142.142 C 115.529 141.120, 113.938 139.534, 112.541 138.619 C 110.968 137.588, 110 136.024, 110 134.512 C 110 133.169, 109.325 130.083, 108.501 127.655 C 107.172 123.741, 107.171 122.835, 108.491 119.676 C 109.310 117.716, 109.725 115.446, 109.413 114.633 C 109.101 113.820, 109.741 112.259, 110.837 111.163 C 112.456 109.544, 112.680 108.513, 112.033 105.648 C 110.479 98.757, 107.244 93.577, 103.278 91.632 C 101.200 90.612, 98.719 89.378, 97.764 88.889 C 96.809 88.400, 95.796 88, 95.514 88 C 95.231 88, 95 100.600, 95 116 M 103 125.031 C 103 125.564, 103.675 126, 104.500 126 C 105.325 126, 106 125.823, 106 125.607 C 106 125.391, 105.325 124.955, 104.500 124.638 C 103.675 124.322, 103 124.499, 103 125.031 M 72.200 126.200 C 70.195 128.205, 70.851 131.738, 73.635 133.927 C 76.629 136.283, 78.631 136.575, 79.273 134.750 C 79.844 133.126, 78.289 128.977, 76.275 126.752 C 74.401 124.681, 73.800 124.600, 72.200 126.200 M 118.813 143.683 C 119.534 143.972, 120.397 143.936, 120.729 143.604 C 121.061 143.272, 120.471 143.036, 119.417 143.079 C 118.252 143.127, 118.015 143.364, 118.813 143.683" stroke="none" fill="black" fill-rule="evenodd"/>
</svg>