<svg xmlns="http://www.w3.org/2000/svg" width="192" height="144" viewBox="0 0 192 144" version="1.1">
	<path d="M 80.398 71.883 C 74.453 73.424, 68.528 77.475, 65.500 82.070 L 62.500 86.623 52.145 86.176 C 40.169 85.659, 31.518 87.163, 29.984 90.030 C 27.795 94.119, 34.655 106.363, 45.682 118.047 L 50.916 123.593 49.399 129.404 C 47.689 135.953, 48.091 137.565, 50.382 133.338 L 51.920 130.500 51.936 133.500 C 51.945 135.150, 51.560 138.188, 51.081 140.250 C 50.130 144.348, 51.308 145.280, 53.608 142.250 C 54.873 140.583, 54.938 140.583, 54.968 142.250 C 54.998 143.889, 57.703 144, 97.500 144 L 140 144 140.033 141.750 L 140.067 139.500 141.944 141.750 C 143.448 143.554, 146.121 144.883, 145.966 143.750 C 145.947 143.613, 145.017 139.900, 143.899 135.500 C 140.960 123.929, 140.962 123.912, 145.367 121.417 C 147.924 119.967, 150.215 117.431, 152.133 113.924 C 153.727 111.008, 155.679 107.908, 156.469 107.034 C 158.916 104.330, 163.158 94.133, 162.820 91.766 C 162.262 87.846, 157.774 86.588, 143.443 86.333 L 130.386 86.100 125.443 81.194 C 118.153 73.959, 111.740 71.828, 96 71.410 C 89.125 71.228, 82.104 71.441, 80.398 71.883" stroke="none" fill="black" fill-rule="evenodd"/>
</svg>