<svg xmlns="http://www.w3.org/2000/svg" width="192" height="144" viewBox="0 0 192 144" version="1.1">
	<path d="M 0 72 L 0 144 13.750 143.973 L 27.500 143.946 30.430 137.223 C 32.041 133.525, 35.241 127.575, 37.540 124 L 41.721 117.500 40.858 108.500 C 38.694 85.910, 38.684 86.663, 41.337 73.838 C 42.741 67.052, 44.368 57.958, 44.952 53.629 C 46.293 43.687, 48.589 38.628, 54.224 33.194 C 58.124 29.434, 59.408 28.813, 64.345 28.304 C 69.171 27.806, 70 27.422, 70 25.689 C 70 24.572, 69.253 22.832, 68.339 21.823 C 66.164 19.418, 67.326 18.372, 70.543 19.838 C 74.241 21.523, 78.807 21.264, 80.919 19.250 C 81.929 18.288, 83.666 15.700, 84.780 13.500 C 86.976 9.164, 92 3.872, 92 5.896 C 92 6.580, 90.650 9.102, 89 11.500 C 87.350 13.898, 86 16.054, 86 16.292 C 86 16.529, 87.131 16.506, 88.514 16.242 C 90.498 15.863, 90.901 16.095, 90.422 17.343 C 90.088 18.212, 89.069 19.165, 88.158 19.460 C 83.615 20.931, 84.083 27.763, 89.006 31.859 C 91.651 34.059, 91.355 34.302, 86.351 34.033 C 81.904 33.794, 81.397 35.490, 84.509 40.193 C 86.433 43.101, 87.250 45.691, 87.354 49.220 C 87.480 53.496, 87.118 54.498, 84.694 56.584 C 83.101 57.956, 80.616 59, 78.944 59 C 76.726 59, 76 59.465, 76 60.886 C 76 62.059, 74.676 63.400, 72.500 64.433 C 70.575 65.346, 69 66.792, 69 67.646 C 69 68.500, 70.629 71.837, 72.619 75.062 C 75.432 79.619, 76.130 81.657, 75.755 84.213 C 75.291 87.368, 76.722 92.357, 77.922 91.769 C 90.075 85.813, 91 85.065, 91 81.177 C 91 79.090, 91.563 76.684, 92.250 75.831 C 95.945 71.245, 101 74.222, 101 80.986 C 101 85.100, 101.778 85.742, 114.078 91.769 C 115.262 92.349, 116.712 87.388, 116.259 84.306 C 115.914 81.961, 116.631 79.640, 118.956 75.577 C 120.698 72.533, 122.546 69.780, 123.064 69.460 C 124.631 68.492, 122.330 65.379, 119.038 64.016 C 116.849 63.109, 116 62.088, 116 60.360 C 116 58.318, 115.638 58.053, 113.562 58.574 C 112.037 58.957, 109.942 58.495, 107.971 57.343 C 104.870 55.530, 104.825 55.395, 105.182 48.931 C 105.491 43.333, 106.022 41.760, 108.772 38.287 C 110.548 36.046, 112 33.872, 112 33.457 C 112 33.042, 110.422 31.170, 108.494 29.297 C 105.796 26.676, 105.125 25.351, 105.579 23.540 C 105.904 22.245, 105.683 20.277, 105.089 19.166 C 104.494 18.054, 104.289 16.409, 104.634 15.511 C 105.168 14.119, 105.697 14.293, 108.198 16.688 C 109.813 18.235, 112.705 21.865, 114.624 24.755 C 117.796 29.532, 118.358 29.941, 120.807 29.255 C 122.288 28.840, 125.621 28.503, 128.214 28.507 C 132.444 28.512, 133.402 28.974, 137.547 33.007 C 143.800 39.091, 145.885 43.546, 147.030 53.270 C 147.562 57.797, 148.956 67.058, 150.127 73.852 C 152.084 85.208, 152.168 87.463, 151.165 101.839 C 150.565 110.439, 150.395 117.749, 150.787 118.083 C 151.179 118.418, 155.325 119.749, 160 121.041 C 167.471 123.105, 169.174 124.029, 174.070 128.675 C 177.164 131.611, 180.695 136.214, 182.013 139.028 C 184.345 144.006, 184.459 144.091, 188.443 143.798 L 192.500 143.500 192.757 71.750 L 193.013 0 96.507 0 L 0 0 0 72 M 0.474 72.500 C 0.474 112.100, 0.598 128.154, 0.750 108.176 C 0.901 88.198, 0.901 55.798, 0.750 36.176 C 0.598 16.554, 0.474 32.900, 0.474 72.500 M 80.704 99.395 C 76.415 102.186, 73.375 104.625, 73.947 104.816 C 74.758 105.086, 88.016 99.685, 89.907 98.314 C 90.131 98.152, 89.906 97.187, 89.407 96.170 C 88.577 94.478, 87.839 94.751, 80.704 99.395 M 102.001 96.250 C 102.002 98.084, 103.394 99.126, 109.532 101.886 C 113.674 103.748, 117.348 104.985, 117.698 104.636 C 118.047 104.286, 118.146 103.873, 117.917 103.717 C 113.007 100.379, 102.894 94, 102.512 94 C 102.230 94, 102 95.013, 102.001 96.250 M 94.216 103.278 C 93.248 105.956, 91.174 107.620, 82.885 112.370 C 75.621 116.531, 72.026 118.047, 70.233 117.704 L 67.729 117.226 68.298 123.863 C 68.612 127.513, 69.450 133.537, 70.162 137.250 L 71.456 144 97.728 144 L 124 144 124 130.525 L 124 117.050 121.250 117.535 C 119.171 117.902, 116.064 116.598, 108.518 112.192 C 100.218 107.345, 98.382 105.827, 97.623 103.181 C 96.467 99.149, 95.702 99.171, 94.216 103.278" stroke="none" fill="black" fill-rule="evenodd"/>
</svg>