<svg xmlns="http://www.w3.org/2000/svg" width="192" height="144" viewBox="0 0 192 144" version="1.1">
	<path d="M 0 32.500 L 0 65 35.893 65 C 69.119 65, 71.843 64.870, 72.551 63.250 C 72.971 62.288, 73.220 60.917, 73.104 60.205 C 72.817 58.453, 76.681 52.336, 78.520 51.631 C 79.334 51.318, 80 50.160, 80 49.056 C 80 47.368, 79.533 47.143, 77.048 47.640 C 74.479 48.154, 74.011 47.891, 73.440 45.615 C 73.079 44.177, 73.071 41.852, 73.424 40.449 C 74.034 38.015, 73.910 37.926, 70.718 38.525 C 68.333 38.972, 67.006 38.712, 66.098 37.618 C 65.022 36.322, 65.193 35.990, 67.194 35.487 C 68.526 35.153, 70.864 35.571, 72.532 36.442 C 75.339 37.907, 75.517 37.883, 75.820 35.991 C 76.098 34.254, 74.161 26.318, 68.315 5.250 L 66.858 0 33.429 0 L 0 0 0 32.500 M 70.284 1.298 C 70.558 2.011, 71.769 6.174, 72.975 10.548 C 77.952 28.598, 78.101 29, 79.830 29 C 80.759 29, 82.081 28.100, 82.768 27 C 84.468 24.278, 87.616 24.484, 89.555 27.443 C 90.953 29.577, 91.467 29.744, 93.615 28.766 C 96.990 27.228, 99.753 29.725, 98.098 32.818 C 96.268 36.236, 96.775 36.879, 102.645 38.585 C 114.139 41.927, 122 46.592, 122 50.073 C 122 52.908, 120.893 55, 119.393 55 C 118.627 55, 117.997 55.337, 117.994 55.750 C 117.986 56.616, 112.313 60, 110.869 60 C 110.337 60, 108.279 58.425, 106.297 56.500 C 102.360 52.676, 100.404 52.227, 97.441 54.468 C 96.374 55.276, 94.643 55.951, 93.595 55.968 C 91.844 55.997, 91.818 56.141, 93.275 57.752 C 94.147 58.715, 95.331 60.740, 95.906 62.252 L 96.950 65 144.475 65 L 192 65 192 32.500 L 192 0 130.893 0 C 81.221 0, 69.879 0.243, 70.284 1.298 M -0 106.005 L -0 144.010 96.250 143.755 L 192.500 143.500 192.762 105.500 L 193.024 67.500 147.470 67.770 L 101.917 68.040 102.544 71.381 C 103.074 74.207, 102.849 74.806, 101.085 75.267 C 99.844 75.592, 99 76.626, 99 77.823 C 99 78.929, 98.437 80.037, 97.750 80.285 C 96.900 80.592, 97.331 81.659, 99.097 83.618 C 106.019 91.300, 106.762 96.076, 102.112 102.999 L 99.224 107.299 101.668 116.399 C 104.436 126.704, 105.645 134.398, 104.116 131.976 C 102.980 130.177, 99.576 120.278, 98.020 114.250 C 96.413 108.023, 93.299 109.082, 93.866 115.663 C 94.068 118.013, 93.612 119.137, 92.136 119.927 C 88.735 121.747, 87.180 121.140, 85.854 117.474 C 85.026 115.182, 84.099 114.132, 83.208 114.474 C 82.454 114.763, 80.709 115, 79.330 115 C 76.969 115, 76.862 115.226, 77.487 118.925 C 78.267 123.539, 76.772 127, 74 127 C 71.644 127, 69.794 123.827, 69.055 118.516 C 68.548 114.879, 68.195 114.483, 64.988 113.962 C 54.481 112.256, 49.643 106.654, 49.817 96.396 C 50.038 83.468, 53.495 77.826, 63.487 74.089 C 69.028 72.018, 70.946 70.652, 70.985 68.750 C 70.993 68.338, 55.025 68, 35.500 68 L 0 68 -0 106.005 M 0.454 106 C 0.454 127.175, 0.587 135.838, 0.749 125.250 C 0.911 114.663, 0.911 97.338, 0.749 86.750 C 0.587 76.163, 0.454 84.825, 0.454 106" stroke="none" fill="black" fill-rule="evenodd"/>
</svg>