<svg xmlns="http://www.w3.org/2000/svg" width="192" height="144" viewBox="0 0 192 144" version="1.1">
	<path d="M 87.863 6.248 C 88.062 9.687, 87.684 16.173, 87.022 20.661 L 85.819 28.822 82.442 27.411 C 73.569 23.704, 65.009 28.064, 64.997 36.297 C 64.994 38.338, 67.104 46.572, 70.654 58.372 C 72.034 62.958, 72.004 63.368, 70.134 65.372 C 67.359 68.346, 66.663 72.035, 67.965 76.868 C 69.198 81.449, 72.795 84.517, 75.810 83.560 C 76.924 83.207, 78.229 83.571, 78.947 84.436 C 80.013 85.721, 80.528 85.591, 82.828 83.459 C 84.286 82.106, 85.775 81, 86.137 81 C 87.178 81, 87.680 98.089, 86.765 102.365 C 85.745 107.133, 86.606 110.222, 88.835 109.794 C 90.020 109.566, 90.548 108.325, 90.665 105.487 C 90.756 103.294, 91.318 100.233, 91.915 98.685 C 93.435 94.742, 93.240 79.651, 91.578 72.588 C 90.236 66.881, 90.372 64, 91.985 64 C 92.409 64, 94.340 61.638, 96.276 58.750 C 99.165 54.441, 99.898 52.276, 100.368 46.671 L 100.940 39.841 110.157 30.447 C 115.835 24.659, 121.318 20.085, 124.437 18.532 C 131.167 15.184, 141 5.615, 141 2.415 L 141 0 114.250 -0.002 L 87.500 -0.004 87.863 6.248" stroke="none" fill="black" fill-rule="evenodd"/>
</svg>