<svg xmlns="http://www.w3.org/2000/svg" width="192" height="144" viewBox="0 0 192 144" version="1.1">
	<path d="M 0 57 L 0 114 4.433 114 C 9.584 114, 10.354 112.754, 9.882 105.187 C 9.546 99.802, 10.578 96, 12.376 96 C 15.009 96, 17.312 93.268, 17.226 90.247 C 17.163 88.031, 17.667 87.059, 19.070 86.692 C 20.365 86.353, 21 85.314, 21 83.535 C 21 81.908, 21.413 81.137, 22.068 81.542 C 22.656 81.905, 22.890 82.844, 22.589 83.629 C 22.288 84.413, 22.919 85.806, 23.991 86.724 C 25.321 87.863, 25.755 89.128, 25.358 90.709 C 24.677 93.422, 26.479 96, 29.055 96 C 31.446 96, 32.402 99.093, 32.456 107 C 32.490 112.092, 32.825 113.500, 34 113.500 C 35.070 113.500, 35.585 112.197, 35.796 108.958 C 35.983 106.095, 36.927 103.370, 38.350 101.585 L 40.608 98.753 42.418 101.515 C 43.413 103.034, 44.452 105.954, 44.727 108.004 L 45.227 111.730 58.364 112.435 C 70.555 113.089, 71.691 113.322, 74.153 115.664 L 76.806 118.188 77.489 116.036 C 77.864 114.852, 77.867 111.667, 77.494 108.958 C 76.934 104.882, 77.192 103.425, 78.994 100.510 C 81.402 96.613, 82.281 96.708, 84.558 101.112 C 85.872 103.654, 85.997 107.062, 85.400 124.049 L 84.698 144 138.189 144 L 191.681 144 192.338 120.750 C 192.700 107.963, 192.996 75.563, 192.998 48.750 L 193 0 96.500 0 L 0 0 0 57 M 0.468 57.500 C 0.468 88.850, 0.595 101.530, 0.750 85.679 C 0.904 69.827, 0.904 44.177, 0.749 28.679 C 0.594 13.180, 0.468 26.150, 0.468 57.500 M 117.470 39.043 C 115.906 41.300, 114.101 42.869, 113.385 42.594 C 112.611 42.297, 112.309 42.641, 112.623 43.461 C 112.926 44.249, 112.275 45.095, 111.072 45.477 C 108.134 46.410, 108.489 48.331, 111.494 47.756 C 115.124 47.062, 116.367 49.172, 115.625 54.767 C 115.132 58.488, 115.436 60.342, 117.026 63.309 C 118.143 65.394, 118.735 67.639, 118.341 68.299 C 115.752 72.640, 112.222 76, 110.250 76 C 109.013 76, 108.014 76.338, 108.032 76.750 C 108.096 78.260, 110.553 80.509, 112.500 80.840 C 115.081 81.279, 117.999 83.896, 119.090 86.750 C 120.353 90.054, 121.531 89.510, 122.882 85 C 123.541 82.800, 124.457 81, 124.918 81 C 126.346 81, 127.960 83.549, 128.619 86.845 C 129.354 90.522, 132.844 91.313, 133.710 88 C 134.334 85.614, 134.988 85.523, 137.559 87.468 C 140.057 89.358, 141 89.366, 141 87.500 C 141 85.692, 142.167 85.567, 143.800 87.200 C 144.733 88.133, 145 88.120, 145 87.141 C 145 86.449, 145.437 86.152, 145.971 86.482 C 146.505 86.812, 147.215 85.990, 147.550 84.655 C 148.026 82.761, 148.635 82.351, 150.330 82.788 C 152.095 83.243, 152.293 83.081, 151.391 81.923 C 149.631 79.665, 148.835 74.003, 150.275 73.985 C 151.128 73.974, 151.082 73.705, 150.122 73.096 C 149.364 72.616, 149.053 71.723, 149.431 71.112 C 149.809 70.500, 149.647 70, 149.070 70 C 147.489 70, 144.030 66.760, 144.610 65.822 C 144.890 65.370, 142.414 65, 139.110 65 L 133.102 65 134.564 61.500 C 135.919 58.258, 135.895 58, 134.236 58 C 133.251 58, 131.445 58.701, 130.223 59.557 C 128.099 61.044, 128 60.999, 128 58.557 C 128 57.151, 128.787 55.174, 129.750 54.165 C 132.367 51.421, 134.500 48.073, 134.500 46.709 C 134.500 46.044, 133.150 45.348, 131.500 45.162 C 127.512 44.712, 126 43.314, 126 40.078 C 126 33.944, 121.391 33.385, 117.470 39.043" stroke="none" fill="black" fill-rule="evenodd"/>
</svg>