<svg xmlns="http://www.w3.org/2000/svg" width="192" height="144" viewBox="0 0 192 144" version="1.1">
	<path d="M 0 64.439 L 0 128.877 4.250 129.398 C 9.089 129.991, 36.942 131.904, 44.547 132.165 C 49.116 132.322, 49.922 132.003, 53.047 128.796 C 63.135 118.446, 67.573 112.486, 73.853 100.852 L 77.981 93.203 66.902 82.864 C 53.497 70.352, 52.015 69.342, 45.007 67.936 C 37.619 66.453, 32.707 63.092, 30.121 57.750 C 26.592 50.461, 26.699 50.185, 37.264 39.250 C 40.037 36.380, 41.029 36, 45.752 36 C 52.102 36, 55.979 37.795, 59.444 42.338 C 63.387 47.508, 64.462 51.470, 62.927 55.176 C 61.474 58.683, 60.695 57.743, 73.135 67.485 C 76.636 70.226, 79.725 72.747, 80 73.085 C 80.275 73.424, 81.507 74.231, 82.739 74.879 C 84.952 76.045, 84.976 75.985, 84.880 69.561 C 84.816 65.334, 84.296 62.661, 83.391 61.910 C 81.799 60.588, 81.543 56.858, 82.948 55.450 C 85.622 52.769, 88.684 45.210, 88.262 42.332 C 88.012 40.630, 88.301 38.932, 88.904 38.559 C 90.489 37.580, 90.249 32.383, 88.459 28.921 C 87.612 27.282, 87.201 25.484, 87.546 24.925 C 87.936 24.294, 86.719 23.975, 84.337 24.083 C 80.135 24.275, 75 22.618, 75 21.070 C 75 20.532, 73.875 18.966, 72.500 17.591 C 71.125 16.216, 70 14.426, 70 13.613 C 70 12.800, 69.100 11.849, 68 11.500 C 65.429 10.684, 65.446 8.827, 68.039 7.208 C 70.479 5.684, 69.751 4, 66.652 4 C 65.426 4, 62.658 3.100, 60.500 2 C 56.851 0.140, 54.603 0, 28.289 0 L 0 0 0 64.439 M 184.986 1.750 C 184.979 2.712, 184.701 4.512, 184.370 5.750 C 183.845 7.707, 184.147 8, 186.683 8 C 190.349 8, 192 6.385, 192 2.800 C 192 0.267, 191.667 0, 188.500 0 C 185.839 0, 184.997 0.419, 184.986 1.750 M 181.500 22.065 L 178.500 22.692 183.500 24.984 C 186.250 26.245, 188.860 27.889, 189.300 28.638 C 190.817 31.222, 192.120 29.989, 191.810 26.262 C 191.526 22.838, 191.205 22.478, 188 21.981 C 186.075 21.682, 183.150 21.720, 181.500 22.065 M 164.195 25.690 C 168.876 27.252, 172 26.988, 172 25.031 C 172 24.426, 169.417 24.026, 165.750 24.062 L 159.500 24.123 164.195 25.690 M 174.074 25.961 C 169.990 26.962, 170.653 28.655, 176.424 31.956 C 179.461 33.694, 182.746 36.130, 183.723 37.371 C 184.700 38.611, 186.400 40.181, 187.500 40.860 C 189.418 42.045, 189.407 42.070, 187.250 41.480 C 185.581 41.024, 185 41.289, 185 42.505 C 185 43.916, 184.631 43.855, 182.365 42.073 C 180.916 40.933, 179.298 40, 178.770 40 C 178.241 40, 176.596 39.136, 175.113 38.080 C 172.794 36.429, 171.269 36.239, 164.205 36.723 C 157.442 37.187, 156.191 37.526, 157.119 38.643 C 157.738 39.389, 159.367 40, 160.739 40 C 162.664 40, 163.124 40.418, 162.754 41.831 C 162.440 43.035, 163.563 44.903, 166.033 47.286 L 169.790 50.910 163.645 51.205 C 158.257 51.464, 157.540 51.732, 157.825 53.386 C 158.078 54.851, 157.743 55.114, 156.325 54.566 C 152.690 53.160, 148.677 52.668, 149.319 53.707 C 150.134 55.026, 158.938 57.525, 161.386 57.131 C 162.423 56.965, 164.673 57.094, 166.386 57.418 C 169.051 57.923, 169.716 58.691, 171 62.754 C 172.060 66.107, 172.940 67.372, 174 67.064 C 174.825 66.824, 179.213 66.175, 183.750 65.622 L 192 64.616 192 47.985 L 192 31.355 187.372 29.043 C 181.684 26.203, 177.267 25.179, 174.074 25.961 M 156.500 45 C 156.840 45.550, 157.568 46, 158.118 46 C 158.668 46, 158.840 45.550, 158.500 45 C 158.160 44.450, 157.432 44, 156.882 44 C 156.332 44, 156.160 44.450, 156.500 45 M 140 55.593 C 140 55.842, 141.307 59.298, 142.904 63.273 C 144.501 67.248, 146.356 71.963, 147.025 73.750 C 148.625 78.020, 149.763 77.859, 150.549 73.250 C 151.891 65.389, 153.129 62.023, 155.218 60.560 C 158.001 58.611, 157.516 58.229, 151.369 57.526 C 148.581 57.207, 144.882 56.540, 143.150 56.043 C 141.417 55.546, 140 55.343, 140 55.593 M 101.217 95.562 C 99.419 97.521, 96.393 99.773, 94.493 100.567 C 88.089 103.243, 76.522 119.780, 75.494 127.730 L 74.818 132.959 79.659 131.490 C 82.322 130.683, 84.763 130.017, 85.085 130.011 C 86.365 129.987, 106.982 109.916, 106.993 108.683 C 106.997 108.234, 108.099 106.425, 109.443 104.664 L 111.885 101.462 108.941 96.731 C 107.321 94.129, 105.657 92, 105.241 92 C 104.826 92, 103.015 93.603, 101.217 95.562" stroke="none" fill="black" fill-rule="evenodd"/>
</svg>