<svg xmlns="http://www.w3.org/2000/svg" width="192" height="144" viewBox="0 0 192 144" version="1.1">
	<path d="M 63.426 8.750 C 63.302 23.436, 58.088 35.981, 48.321 45.089 C 42.992 50.060, 34.136 55.458, 29.500 56.561 C 27.850 56.954, 25.907 57.744, 25.182 58.317 C 23.671 59.510, 4.386 59.703, 1.750 58.551 C 0.099 57.829, 0 60.214, 0 100.893 L 0 144 52.371 144 L 104.742 144 105.414 138.061 C 105.783 134.795, 107.427 128.157, 109.067 123.311 C 112.661 112.690, 117.045 88.862, 116.299 84 C 115.976 81.889, 114.576 79.392, 112.773 77.707 C 109.779 74.911, 109.564 73.325, 111.535 68.602 C 112.237 66.921, 111.994 66.779, 109.414 67.359 C 100.917 69.268, 100 69.297, 100 67.662 C 100 66.703, 99.440 66.278, 98.601 66.600 C 97.832 66.895, 96.905 66.656, 96.542 66.068 C 96.179 65.481, 94.221 64.991, 92.191 64.981 C 90.161 64.970, 84 63.384, 78.500 61.458 C 73 59.531, 67.667 57.757, 66.648 57.515 C 64.101 56.911, 61.907 54.959, 62.570 53.887 C 63.478 52.418, 68.238 52.925, 72.745 54.971 C 75.081 56.031, 80.970 57.629, 85.833 58.523 C 94.433 60.104, 94.774 60.093, 98.276 58.126 C 101.179 56.495, 102.515 56.287, 105.181 57.052 C 110.975 58.714, 115.697 58.266, 116.290 56 C 116.597 54.827, 116.320 54, 115.622 54 C 114.162 54, 110.800 48.534, 111.704 47.630 C 112.062 47.272, 111.375 46.066, 110.177 44.950 C 107.674 42.618, 107.411 40.188, 109.372 37.506 C 110.537 35.912, 110.527 35.112, 109.303 32.184 C 108.482 30.217, 108.239 28.361, 108.737 27.863 C 109.619 26.981, 117.112 29.132, 121.945 31.654 C 123.350 32.388, 124.978 32.990, 125.563 32.994 C 126.148 32.997, 127.827 34.253, 129.294 35.785 C 131.956 38.564, 134.438 47.199, 135.678 58 C 136.020 60.984, 137.079 63.439, 138.819 65.286 C 140.466 67.034, 141.528 69.393, 141.670 71.618 C 141.795 73.568, 142.569 77.039, 143.391 79.332 C 144.213 81.624, 145.176 86.650, 145.531 90.500 C 145.886 94.350, 146.772 100.088, 147.500 103.250 C 148.411 107.209, 148.487 109, 147.745 109 C 147.152 109, 146.945 109.279, 147.286 109.619 C 148.044 110.378, 145.552 113, 144.071 113 C 142.487 113, 142.541 113.166, 148.473 126.572 C 151.484 133.375, 154.235 140.089, 154.587 141.492 L 155.228 144.043 173.864 143.772 L 192.500 143.500 192.825 129 C 193.003 121.025, 192.837 88.737, 192.455 57.250 L 191.761 0 127.630 0 L 63.500 0 63.426 8.750 M 0.459 101 C 0.459 124.925, 0.589 134.713, 0.749 122.750 C 0.908 110.788, 0.908 91.213, 0.749 79.250 C 0.589 67.288, 0.459 77.075, 0.459 101 M 137.265 90.659 C 137.848 99.582, 139.256 103.919, 140.400 100.317 C 141.030 98.330, 138.512 84.131, 137.339 83.056 C 137.005 82.750, 136.971 86.171, 137.265 90.659" stroke="none" fill="black" fill-rule="evenodd"/>
</svg>