<svg xmlns="http://www.w3.org/2000/svg" width="192" height="144" viewBox="0 0 192 144" version="1.1">
	<path d="M -0 72.005 L -0 144.010 96.250 143.755 L 192.500 143.500 192.757 71.750 L 193.013 0 96.507 0 L 0 0 -0 72.005 M 0.474 72.500 C 0.474 112.100, 0.598 128.154, 0.750 108.176 C 0.901 88.198, 0.901 55.798, 0.750 36.176 C 0.598 16.554, 0.474 32.900, 0.474 72.500 M 93 64.827 C 93 68.204, 95.008 69.446, 97.512 67.615 C 100.053 65.757, 99.012 62.561, 95.741 62.184 C 93.299 61.902, 93 62.190, 93 64.827" stroke="none" fill="black" fill-rule="evenodd"/>
</svg>