<svg xmlns="http://www.w3.org/2000/svg" width="192" height="144" viewBox="0 0 192 144" version="1.1">
	<path d="M 83.521 48.267 C 83.299 48.945, 82.972 50.400, 82.795 51.500 C 82.447 53.657, 80.544 54.140, 77.750 52.781 C 75.748 51.807, 75.448 53.100, 77.003 56.005 C 77.686 57.283, 77.667 58.088, 76.941 58.536 C 75.018 59.725, 73.882 64.340, 74.545 68.266 C 75.356 73.069, 81.511 79.627, 88.692 83.341 C 90.344 84.195, 95.252 88.465, 99.598 92.830 C 106.901 100.164, 108.106 100.961, 115.500 103.350 C 126.829 107.010, 131.790 108.840, 135.289 110.649 C 137.946 112.024, 139.307 112.063, 145.918 110.959 C 150.088 110.262, 154.545 109.310, 155.823 108.843 C 159.076 107.654, 158.254 104.656, 154.488 103.976 L 151.500 103.436 155.383 99.838 C 159.129 96.368, 159.544 94, 156.406 94 C 155.248 94, 155.157 93.576, 155.982 92.034 C 157.450 89.291, 157.495 80.794, 156.056 78.105 C 154.310 74.841, 146.220 71.579, 143.240 72.936 C 140.933 73.988, 118.547 80, 116.940 80 C 116.476 80, 116.744 77.862, 117.537 75.250 C 118.330 72.638, 118.983 70.388, 118.989 70.250 C 118.995 70.112, 118.100 70, 117 70 C 115.900 70, 115 69.566, 115 69.035 C 115 68.505, 115.900 67.589, 117 67 C 120.360 65.202, 119.235 64.225, 114.750 65.047 C 112.412 65.476, 110.356 65.684, 110.181 65.511 C 109.480 64.817, 112.608 60.942, 114.303 60.404 C 115.297 60.088, 115.936 59.306, 115.722 58.665 C 115.075 56.721, 112.292 56.776, 110.341 58.771 C 109.328 59.807, 106.829 61.897, 104.788 63.417 C 101.387 65.948, 100.778 66.082, 97.530 65.010 C 93.794 63.777, 91.476 60.807, 92.391 58.424 C 93.027 56.766, 87.718 48.490, 85.464 47.625 C 84.617 47.300, 83.743 47.589, 83.521 48.267" stroke="none" fill="black" fill-rule="evenodd"/>
</svg>