<svg xmlns="http://www.w3.org/2000/svg" width="192" height="144" viewBox="0 0 192 144" version="1.1">
	<path d="M 155.145 26.750 C 153.849 29.996, 151.389 41.864, 149.995 51.589 C 149.451 55.390, 148.581 60.750, 148.062 63.500 C 147.544 66.250, 147.092 71.088, 147.060 74.250 C 147.027 77.412, 146.594 80, 146.098 80 C 145.602 80, 144.892 82.813, 144.521 86.250 C 143.843 92.514, 140.783 110.347, 137.014 129.998 C 134.123 145.070, 133.712 144, 142.389 144 L 149.777 144 150.358 140.750 C 150.677 138.963, 151.420 131.650, 152.009 124.500 C 152.598 117.350, 154.862 95.385, 157.040 75.690 C 161.021 39.687, 161.767 28.408, 160.097 29.440 C 159.601 29.747, 158.724 28.648, 158.149 26.999 C 156.862 23.307, 156.530 23.279, 155.145 26.750" stroke="none" fill="black" fill-rule="evenodd"/>
</svg>