<svg xmlns="http://www.w3.org/2000/svg" width="192" height="144" viewBox="0 0 192 144" version="1.1">
	<path d="M 0 72 L 0 144 37 144 C 71.748 144, 74 143.892, 74 142.228 C 74 141.253, 72.640 138.805, 70.977 136.788 C 67.985 133.158, 65 126.310, 65 123.074 C 65 122.153, 67.499 116.548, 70.554 110.618 C 75.064 101.864, 75.880 99.560, 74.895 98.373 C 73.924 97.203, 74.112 96.145, 75.841 93.070 C 78.398 88.520, 78.497 87.355, 76.500 85.357 C 75.221 84.078, 74.520 81.305, 74.852 78.838 C 74.901 78.473, 73.581 77.701, 71.918 77.121 C 69.453 76.262, 69.063 75.737, 69.812 74.284 C 70.317 73.303, 70.529 71.940, 70.283 71.254 C 69.576 69.282, 72.809 60.631, 76.125 55.625 C 77.792 53.108, 80.656 47.438, 82.490 43.025 C 85.504 35.770, 85.664 34.908, 84.162 34.031 C 82.761 33.213, 82.882 33.056, 84.936 33.030 C 86.275 33.014, 88.300 32.139, 89.436 31.087 C 92.211 28.515, 93.811 28.387, 98.300 30.381 C 101.175 31.658, 102.626 33.218, 104.257 36.784 C 105.443 39.378, 106.604 41.900, 106.836 42.389 C 107.069 42.878, 106.802 42.996, 106.243 42.650 C 105.684 42.305, 104.671 42.692, 103.991 43.511 C 103.311 44.330, 102.135 45, 101.378 45 C 100.620 45, 100 45.620, 100 46.378 C 100 47.135, 99.325 48.315, 98.500 49 C 96.306 50.821, 96.590 51.463, 100.830 54.269 C 103.842 56.262, 105.147 58.137, 106.935 63.043 L 109.210 69.281 107.105 73.027 C 105.947 75.087, 105 77.686, 105 78.803 C 105 79.920, 104.449 81.017, 103.776 81.241 C 102.904 81.532, 103.619 84.742, 106.268 92.433 C 108.312 98.364, 109.734 103.622, 109.428 104.116 C 109.123 104.611, 109.580 105.723, 110.445 106.588 C 111.311 107.453, 111.761 108.578, 111.446 109.087 C 111.131 109.596, 112.302 113.890, 114.048 118.629 C 116.452 125.156, 116.921 127.431, 115.982 128.011 C 115.301 128.432, 115.011 129.209, 115.338 129.737 C 116.199 131.131, 111.497 133.363, 109.048 132.723 C 105.110 131.693, 103.060 135.889, 104.633 141.760 L 105.239 144.021 148.869 143.760 L 192.500 143.500 192.757 71.750 L 193.013 0 96.507 0 L 0 0 0 72 M 0.474 72.500 C 0.474 112.100, 0.598 128.154, 0.750 108.176 C 0.901 88.198, 0.901 55.798, 0.750 36.176 C 0.598 16.554, 0.474 32.900, 0.474 72.500 M 100.032 69.781 C 100.062 73.268, 100.155 73.379, 101.532 71.559 C 103.409 69.077, 103.398 67.367, 101.500 66.638 C 100.329 66.189, 100.007 66.879, 100.032 69.781 M 83.015 73.250 C 83.027 75.716, 83.264 76.138, 84 75 C 85.270 73.035, 85.270 70, 84 70 C 83.450 70, 83.007 71.463, 83.015 73.250 M 92.333 136.938 C 90.592 138, 87.442 139.011, 85.333 139.185 C 82.214 139.441, 81.439 139.927, 81.175 141.792 C 80.856 144.042, 80.999 144.078, 89.164 143.792 C 98.154 143.476, 98.940 142.881, 97.570 137.421 C 96.837 134.502, 96.396 134.461, 92.333 136.938" stroke="none" fill="black" fill-rule="evenodd"/>
</svg>