<svg xmlns="http://www.w3.org/2000/svg" width="192" height="144" viewBox="0 0 192 144" version="1.1">
	<path d="M 0 72 L 0 144 35.892 144 L 71.785 144 73.547 136.750 C 74.516 132.762, 76.140 127.067, 77.155 124.093 C 79.497 117.231, 79.554 114.850, 77.355 115.694 C 76.385 116.066, 75.218 115.651, 74.509 114.681 C 73.531 113.344, 74.207 110.306, 78.135 98.393 C 80.791 90.338, 83.126 81.851, 83.326 79.531 C 83.525 77.211, 83.950 74.890, 84.270 74.372 C 84.590 73.854, 85.163 70.678, 85.544 67.314 C 86.166 61.817, 86.032 61.087, 84.223 60.119 C 82.062 58.963, 80 54.184, 80 50.332 C 80 48.043, 80.246 47.968, 87.250 48.120 C 91.237 48.207, 97.932 47.943, 102.126 47.533 C 107.173 47.040, 109.971 47.145, 110.403 47.843 C 111.346 49.369, 108.953 58.081, 107.431 58.665 C 105.227 59.511, 104.483 71.392, 106.384 75.397 C 107.273 77.270, 108 80.232, 108 81.979 C 108 83.726, 109.836 90.712, 112.079 97.503 C 116.574 111.110, 116.820 114.641, 113.247 114.262 C 110.541 113.975, 110.561 113.412, 113.022 120.565 C 114.135 123.798, 115.974 130.399, 117.109 135.234 L 119.172 144.024 155.836 143.762 L 192.500 143.500 192.757 71.750 L 193.013 0 96.507 0 L 0 0 0 72 M 0.474 72.500 C 0.474 112.100, 0.598 128.154, 0.750 108.176 C 0.901 88.198, 0.901 55.798, 0.750 36.176 C 0.598 16.554, 0.474 32.900, 0.474 72.500 M 111 110 C 111 110.550, 111.477 111, 112.059 111 C 112.641 111, 112.840 110.550, 112.500 110 C 112.160 109.450, 111.684 109, 111.441 109 C 111.198 109, 111 109.450, 111 110" stroke="none" fill="black" fill-rule="evenodd"/>
</svg>