<svg xmlns="http://www.w3.org/2000/svg" width="192" height="144" viewBox="0 0 192 144" version="1.1">
	<path d="M 0 72 L 0 144 8.480 144 L 16.959 144 18.899 140.197 C 21.435 135.227, 26.145 130.683, 33.242 126.362 C 39.030 122.837, 45 120.542, 45 121.842 C 45 122.229, 43.312 123.429, 41.250 124.508 C 34.277 128.158, 27.364 135.748, 25.547 141.750 L 24.865 144 51.408 144 L 77.950 144 77.027 141.570 C 75.885 138.568, 78.440 134.889, 82.966 133.014 L 86 131.757 86.044 120.129 C 86.072 112.696, 86.603 107.057, 87.515 104.500 C 88.450 101.881, 88.584 100.377, 87.904 100.144 C 82.625 98.336, 79.539 90.120, 82.225 85.030 C 84.016 81.637, 89.693 78, 93.198 78 C 96.837 78, 101.619 80.419, 102.970 82.945 C 104.887 86.526, 104.192 92.619, 101.501 95.817 C 99.409 98.303, 99.253 98.883, 100.546 99.379 C 103.313 100.441, 104.758 106.267, 105.490 119.314 C 106.154 131.153, 106.372 132.193, 108.354 132.968 C 113.694 135.058, 116.492 140.108, 113.800 142.800 C 112.867 143.733, 118.644 144, 139.800 144 C 154.760 144, 167 143.757, 167 143.460 C 167 139.872, 154.353 125, 151.303 125 C 150.586 125, 150 124.583, 150 124.073 C 150 123.564, 149.213 122.941, 148.250 122.689 C 146.816 122.315, 146.872 122.211, 148.559 122.116 C 149.691 122.052, 151.491 122.661, 152.559 123.468 C 153.626 124.276, 155.081 124.951, 155.790 124.968 C 159.098 125.050, 170.982 136.127, 173.007 141.016 L 174.272 144.071 183.386 143.786 L 192.500 143.500 192.757 71.750 L 193.013 0 96.507 0 L 0 0 0 72 M 0.474 72.500 C 0.474 112.100, 0.598 128.154, 0.750 108.176 C 0.901 88.198, 0.901 55.798, 0.750 36.176 C 0.598 16.554, 0.474 32.900, 0.474 72.500" stroke="none" fill="black" fill-rule="evenodd"/>
</svg>