<svg xmlns="http://www.w3.org/2000/svg" width="192" height="144" viewBox="0 0 192 144" version="1.1">
	<path d="M 56.421 2.541 C 57.714 7.693, 61.188 16.045, 62.644 17.501 C 63.468 18.325, 64.721 19, 65.427 19 C 67.392 19, 66.806 30.679, 64.614 35.200 C 63.627 37.235, 63.072 39.308, 63.381 39.807 C 63.690 40.307, 63.518 42.195, 62.999 44.004 C 62.389 46.132, 62.420 48.741, 63.089 51.396 C 64.485 56.944, 64.619 56.125, 60.294 68.500 C 56.769 78.587, 56.422 80.537, 56.112 91.992 C 55.778 104.338, 55.717 104.622, 50.851 116.460 C 45.944 128.399, 45.935 128.442, 47.997 129.998 C 49.976 131.491, 50 131.750, 48.533 135.905 C 45.715 143.895, 45.810 144, 55.839 144 C 64.506 144, 64.704 143.946, 65.957 141.250 C 71.093 130.195, 74.020 114.891, 74.302 97.627 C 74.417 90.613, 74.908 85.500, 75.468 85.500 C 77.526 85.500, 78.905 93.790, 78.789 105.473 C 78.692 115.195, 78.321 118.037, 76.813 120.593 C 75.791 122.325, 73.839 127.590, 72.476 132.294 C 71.112 136.998, 69.724 141.556, 69.391 142.423 C 68.848 143.838, 71.923 144, 99.258 144 C 129.014 144, 129.795 143.949, 132.490 141.829 C 135.090 139.784, 135.215 139.327, 134.647 133.898 C 134.234 129.949, 134.495 127.060, 135.475 124.713 C 136.858 121.403, 136.742 120.922, 131.977 110.243 C 129.266 104.167, 126.088 95.697, 124.914 91.419 C 122.925 84.167, 122.889 83.458, 124.390 80.917 C 126.684 77.034, 126.439 76.210, 122.500 74.564 C 119.372 73.258, 118.999 72.698, 118.994 69.301 C 118.984 62.373, 117.170 58.098, 113.010 55.197 C 109.958 53.068, 109.257 52.026, 109.680 50.250 C 110.151 48.275, 109.827 48, 107.025 48 C 105.270 48, 103.986 47.662, 104.173 47.250 C 109.011 36.566, 112.778 30.050, 114.128 30.027 C 117.778 29.966, 118.240 27.407, 115.557 22.112 C 114.151 19.337, 113 16.770, 113 16.408 C 113 16.046, 114.311 16.012, 115.913 16.333 C 117.697 16.689, 119.232 16.425, 119.875 15.650 C 120.931 14.378, 124 3.694, 124 1.290 C 124 0.262, 117.074 0, 89.892 0 L 55.783 0 56.421 2.541 M 75.158 75 C 75.158 76.375, 75.385 76.938, 75.662 76.250 C 75.940 75.563, 75.940 74.438, 75.662 73.750 C 75.385 73.063, 75.158 73.625, 75.158 75" stroke="none" fill="black" fill-rule="evenodd"/>
</svg>