<svg xmlns="http://www.w3.org/2000/svg" width="192" height="144" viewBox="0 0 192 144" version="1.1">
	<path d="M 0 57 L 0 114 4 114 L 8 114 8.158 109.750 C 8.246 107.412, 8.246 104.683, 8.159 103.684 C 7.919 100.934, 9.836 98.013, 12.561 96.977 C 14.396 96.279, 15 95.309, 15 93.060 C 15 91.078, 15.685 89.704, 17.032 88.983 C 18.149 88.385, 18.937 87.274, 18.782 86.513 C 18.627 85.753, 18.950 85.171, 19.500 85.219 C 20.050 85.267, 20.359 86.141, 20.186 87.160 C 20.013 88.180, 20.576 89.284, 21.436 89.614 C 22.351 89.965, 23 91.403, 23 93.081 C 23 95.256, 23.725 96.323, 26 97.500 C 29.199 99.154, 29.241 99.298, 29.235 108.500 C 29.232 112.822, 29.358 113.396, 29.687 110.553 C 29.939 108.382, 31.081 105.290, 32.226 103.682 L 34.309 100.758 36.132 103.129 C 37.135 104.433, 37.966 106.682, 37.978 108.128 C 37.990 109.573, 38.563 111.221, 39.250 111.790 C 39.938 112.359, 45.978 112.976, 52.672 113.162 C 63.940 113.475, 65.036 113.680, 67.422 115.924 L 70 118.349 70 111.309 C 70 105.609, 70.411 103.747, 72.161 101.523 L 74.322 98.775 76.139 101.138 C 77.755 103.239, 77.958 105.735, 77.978 123.750 L 78 144 134.840 144 L 191.681 144 192.338 120.750 C 192.700 107.963, 192.996 75.563, 192.998 48.750 L 193 0 96.500 0 L 0 0 0 57 M 0.468 57.500 C 0.468 88.850, 0.595 101.530, 0.750 85.679 C 0.904 69.827, 0.904 44.177, 0.749 28.679 C 0.594 13.180, 0.468 26.150, 0.468 57.500 M 118.301 38.578 C 112.266 44.830, 112.177 45, 114.929 45 C 119.011 45, 120.266 47.040, 119.466 52.375 C 118.981 55.613, 119.242 57.778, 120.396 60.092 C 121.278 61.860, 122 64.106, 122 65.082 C 122 67.188, 115.472 74.409, 114.250 73.655 C 113.785 73.367, 112.804 73.503, 112.069 73.957 C 110.978 74.631, 111.033 75.209, 112.367 77.114 C 113.265 78.396, 114 79.041, 114 78.548 C 114 78.055, 115.150 78.732, 116.556 80.052 C 118.413 81.797, 118.930 81.981, 118.449 80.726 C 116.825 76.495, 120.818 79.909, 122.850 84.490 C 124.123 87.361, 124.232 87.403, 125.588 85.549 C 126.365 84.487, 127 82.830, 127 81.868 C 127 77.288, 131.347 78.786, 132.584 83.793 C 133.624 88.003, 135.972 88.704, 137.484 85.257 C 138.578 82.763, 141.555 83.002, 143.724 85.757 C 144.800 87.123, 145.053 87.030, 145.810 84.985 C 146.347 83.533, 146.933 83.082, 147.367 83.785 C 148.121 85.005, 150.773 84.329, 152.702 82.425 C 153.364 81.772, 153.626 80.960, 153.286 80.619 C 152.945 80.279, 153.697 80, 154.956 80 C 156.647 80, 156.987 79.674, 156.257 78.750 C 155.713 78.063, 155.045 76.263, 154.773 74.750 C 154.402 72.690, 154.682 71.992, 155.889 71.968 C 157.358 71.939, 157.360 71.829, 155.912 70.718 C 155.039 70.048, 154.514 68.938, 154.746 68.250 C 154.977 67.563, 154.684 67, 154.095 67 C 152.495 67, 149.026 63.768, 149.610 62.822 C 149.890 62.370, 147.391 62, 144.059 62 C 140.727 62, 138 61.796, 138 61.547 C 138 61.298, 138.523 59.946, 139.162 58.543 C 140.729 55.104, 139.896 54.599, 135.608 56.390 C 132.064 57.871, 132 57.857, 132 55.564 C 132 54.186, 133.011 52.568, 134.468 51.613 C 136.088 50.551, 136.722 49.439, 136.313 48.374 C 135.939 47.399, 136.351 46.383, 137.346 45.827 C 139.885 44.405, 139.327 43.229, 135.750 42.464 C 131.357 41.525, 130 40.253, 130 37.078 C 130 34.051, 128.350 31.962, 126.050 32.078 C 125.198 32.122, 121.711 35.047, 118.301 38.578" stroke="none" fill="black" fill-rule="evenodd"/>
</svg>