<svg xmlns="http://www.w3.org/2000/svg" width="192" height="144" viewBox="0 0 192 144" version="1.1">
	<path d="M 164 23.209 C 164 24.489, 162.841 27.241, 161.425 29.325 C 159.704 31.857, 159.162 33.510, 159.790 34.307 C 161.201 36.098, 162.004 44, 160.775 44 C 158.813 44, 160.627 53.280, 162.959 55.168 C 164.669 56.552, 164.904 57.311, 164.093 58.826 C 163.531 59.877, 163.320 60.986, 163.624 61.291 C 163.929 61.595, 163.013 63.559, 161.589 65.654 C 160.165 67.750, 159 69.841, 159 70.302 C 159 70.763, 157.650 73.102, 156 75.500 C 152.408 80.721, 152.229 83.238, 155.279 85.677 C 157.989 87.845, 157.776 89.596, 154.030 95.949 C 147.927 106.299, 147.646 111.731, 153.068 114.535 C 158.192 117.185, 160 119.641, 160 123.953 C 160 126.127, 160.475 128.948, 161.055 130.221 C 162.387 133.144, 167.936 137, 170.812 137 C 173.670 137, 173.629 135.326, 170.750 134.451 C 168.281 133.700, 164.093 129.220, 164.036 127.269 C 163.966 124.869, 168.588 124.995, 175.500 127.581 C 184.602 130.986, 188.012 131.414, 190.500 129.466 C 192.483 127.913, 192.479 127.884, 190.059 126.051 C 188.716 125.035, 185.460 123.145, 182.824 121.851 C 178.194 119.580, 176.914 117.789, 179 116.500 C 179.550 116.160, 180 114.772, 180 113.416 C 180 110.789, 177.510 109.327, 171.250 108.281 C 167.425 107.642, 167.412 107.567, 169.999 100.761 C 171.099 97.867, 171.999 94.272, 171.999 92.770 C 172 90.601, 172.807 89.629, 175.932 88.035 C 178.095 86.931, 180.154 85.560, 180.508 84.987 C 180.862 84.414, 180.253 82.045, 179.154 79.723 C 178.055 77.400, 176.870 73.261, 176.519 70.525 C 176.169 67.788, 175.700 65.367, 175.477 65.143 C 175.253 64.920, 175.521 63.895, 176.072 62.866 C 176.622 61.837, 177.217 58.409, 177.394 55.248 L 177.715 49.500 182.608 49.472 C 189.803 49.431, 192 48.402, 192 45.070 C 192 42.423, 191.705 42.241, 186.432 41.621 C 183.369 41.261, 180.444 41.226, 179.932 41.542 C 178.371 42.507, 178.886 40.308, 181.099 36.557 C 184.114 31.446, 182.061 32.207, 178.500 37.520 C 176.850 39.982, 175.162 41.997, 174.750 41.998 C 173.649 42.001, 173.836 39.455, 175.147 36.577 C 175.986 34.735, 175.997 33.702, 175.189 32.728 C 174.581 31.995, 174.315 30.512, 174.597 29.433 C 175.021 27.813, 174.312 27.234, 170.555 26.124 C 168.050 25.385, 166 24.180, 166 23.449 C 166 22.717, 165.550 21.840, 165 21.500 C 164.443 21.156, 164 21.912, 164 23.209 M 110.261 24.109 C 109.958 25.269, 108.395 26.772, 106.787 27.447 C 104.031 28.606, 103.841 29.067, 103.429 35.588 C 103.123 40.441, 102.506 42.861, 101.359 43.711 C 99.986 44.729, 99.914 45.379, 100.912 47.787 C 102.716 52.142, 100.812 65.930, 97.110 75.315 C 95.407 79.635, 95.776 82.730, 98.199 84.427 C 100.895 86.315, 101 91.090, 98.464 96.434 C 96.730 100.088, 96.734 100.113, 99.362 102.856 C 100.813 104.370, 102 106.276, 102 107.091 C 102 107.905, 103.882 110.018, 106.182 111.786 C 110.435 115.055, 115.828 116.028, 118.901 114.082 C 119.762 113.537, 121.759 113.709, 124.085 114.530 C 127.303 115.666, 128.045 115.651, 129.056 114.432 C 129.988 113.309, 129.949 112.968, 128.872 112.852 C 128.118 112.771, 126.825 112.612, 126 112.500 C 125.175 112.388, 123.664 112.229, 122.642 112.148 C 121.188 112.032, 120.917 111.466, 121.399 109.547 C 121.947 107.364, 121.626 107.020, 118.496 106.433 C 113.817 105.555, 113.514 104.718, 117.108 102.595 C 120.573 100.549, 120.451 99.036, 116.676 97.195 C 114.186 95.982, 114 95.442, 114 89.445 C 114 84.973, 114.383 82.990, 115.250 82.968 C 115.938 82.951, 117.266 82.354, 118.202 81.643 C 119.782 80.442, 119.649 79.634, 116.354 70.425 C 111.364 56.480, 111.351 56.380, 114.311 55.637 C 117.769 54.769, 123 55.966, 123 57.625 C 123 59.676, 124.373 59.296, 126.975 56.526 C 129.450 53.892, 129.602 54.133, 124.453 52.513 C 123.601 52.245, 122.432 50.670, 121.855 49.013 C 121.183 47.086, 120.118 46, 118.902 46 C 117.856 46, 117 45.487, 117 44.860 C 117 44.233, 116.237 43.163, 115.306 42.481 C 113.756 41.348, 113.745 41.039, 115.174 38.857 C 116.034 37.544, 117.051 35.046, 117.433 33.305 C 117.994 30.752, 117.749 29.936, 116.169 29.091 C 115.092 28.514, 113.736 26.683, 113.157 25.021 C 111.920 21.471, 111.025 21.189, 110.261 24.109 M 43.816 29.666 C 43.598 31.503, 42.504 32.825, 40.296 33.916 C 37.299 35.398, 37.131 35.758, 37.679 39.500 C 38.002 41.700, 38.828 44.175, 39.515 45 C 41.351 47.206, 42.333 51, 41.067 51 C 40.480 51, 40 52.591, 40 54.536 C 40 57.745, 39.608 58.237, 35.750 59.876 C 28.202 63.081, 25.554 63.187, 21.516 60.446 C 18.016 58.071, 17.617 58.021, 11.376 59.171 C 4.071 60.517, 1.624 61.856, 2.464 64.046 C 3.242 66.073, 38.898 83.387, 41.856 83.174 C 43.736 83.039, 44.065 83.358, 43.486 84.752 C 41.727 88.984, 40.326 94.604, 40.737 95.777 C 40.983 96.479, 42.861 97.909, 44.909 98.954 C 50.431 101.771, 51.415 103.314, 49.053 105.452 C 47.986 106.417, 46.836 108.468, 46.498 110.010 C 45.972 112.402, 44.843 113.197, 38.769 115.448 L 31.656 118.085 26.762 115.043 C 24.070 113.369, 21.381 112, 20.786 112 C 19.118 112, 7.626 116.209, 6.500 117.233 C 5.854 117.820, 6.386 118.858, 8 120.163 C 9.375 121.274, 12.750 124.104, 15.500 126.452 C 18.250 128.800, 24.029 133.708, 28.343 137.360 L 36.186 144 43.113 144 C 48.788 144, 50.759 143.546, 54.020 141.487 C 56.209 140.106, 58 138.572, 58 138.079 C 58 137.587, 55.976 135.905, 53.502 134.342 C 51.028 132.779, 49.152 131.054, 49.332 130.510 C 49.513 129.965, 51.424 129.021, 53.580 128.412 C 57.237 127.379, 57.497 127.060, 57.452 123.652 C 57.408 120.370, 57.668 120, 60.013 120 C 62.585 120, 67 116.823, 67 114.974 C 67 114.452, 65.263 112.929, 63.140 111.588 C 60.527 109.939, 59.089 108.193, 58.686 106.182 C 58.360 104.549, 56.536 101.513, 54.634 99.437 C 51.430 95.939, 51.282 95.500, 52.623 93.453 C 53.519 92.086, 55.523 91.012, 57.885 90.634 C 59.983 90.299, 62.903 89.078, 64.374 87.920 L 67.049 85.816 64.833 82.158 C 63.614 80.146, 62.287 77.825, 61.884 77 C 61.482 76.175, 60.117 73.708, 58.851 71.517 C 56.158 66.857, 55.930 66.044, 55.558 59.770 C 55.404 57.168, 54.698 54.341, 53.988 53.486 C 52.935 52.217, 52.936 51.489, 53.991 49.516 C 55.037 47.562, 55.043 46.519, 54.024 44.057 C 53.330 42.383, 53.003 40.096, 53.296 38.974 C 53.670 37.545, 53.093 36.452, 51.365 35.319 C 50.009 34.431, 49.115 33.144, 49.378 32.459 C 49.819 31.309, 46.167 27, 44.752 27 C 44.411 27, 43.990 28.200, 43.816 29.666 M 37.130 63.909 L 32.760 65.658 35.785 66.911 C 41.279 69.187, 45.489 67.304, 42.763 63.790 C 41.598 62.288, 41.160 62.297, 37.130 63.909 M 105.212 87.250 C 104.087 89.498, 103.668 92.004, 103.885 95.190 C 103.990 96.739, 105.459 96.956, 110.133 96.114 C 110.481 96.051, 110.643 94.537, 110.493 92.750 C 110.342 90.963, 110.170 88.487, 110.110 87.250 C 110.038 85.776, 109.369 85, 108.169 85 C 107.162 85, 105.831 86.013, 105.212 87.250 M 163 89.804 C 163 90.247, 161.537 92.807, 159.750 95.494 C 153.310 105.173, 153.234 105.346, 154.318 107.764 C 154.939 109.148, 155.950 109.847, 156.917 109.562 C 157.788 109.305, 159.691 108.811, 161.147 108.465 C 163.523 107.899, 164.007 106.963, 165.880 99.295 C 167.028 94.599, 167.723 90.361, 167.425 89.878 C 166.744 88.778, 163 88.715, 163 89.804 M 35.695 118.700 C 33.299 119.321, 33.883 120.693, 37.517 122.981 C 40.078 124.594, 40.760 124.668, 42.341 123.504 C 45.073 121.490, 43.662 117.966, 40.183 118.116 C 38.707 118.180, 36.688 118.443, 35.695 118.700" stroke="none" fill="black" fill-rule="evenodd"/>
</svg>