<svg xmlns="http://www.w3.org/2000/svg" width="192" height="144" viewBox="0 0 192 144" version="1.1">
	<path d="M -0 72.005 L -0 144.010 96.250 143.755 L 192.500 143.500 192.757 71.750 L 193.013 0 96.507 0 L 0 0 -0 72.005 M 0.474 72.500 C 0.474 112.100, 0.598 128.154, 0.750 108.176 C 0.901 88.198, 0.901 55.798, 0.750 36.176 C 0.598 16.554, 0.474 32.900, 0.474 72.500 M 85.004 30.495 C 84.322 31.317, 84 32.892, 84.288 33.995 C 84.630 35.300, 84.322 36, 83.406 36 C 79.853 36, 84.233 40.705, 91.297 44.477 C 93.334 45.565, 95 46.958, 95 47.572 C 95 48.913, 98.987 52.704, 99.030 51.405 C 99.047 50.907, 99.516 51.282, 100.073 52.237 C 100.763 53.422, 100.742 54.613, 100.007 55.987 C 98.511 58.782, 97.148 58.500, 96.436 55.250 C 95.383 50.447, 95.104 50, 93.154 50 C 90.720 50, 88.601 52.517, 89.362 54.502 C 89.685 55.343, 91.029 56.441, 92.350 56.943 C 94.224 57.655, 94.901 58.856, 95.433 62.405 C 95.809 64.906, 96.538 67.214, 97.054 67.533 C 98.143 68.206, 95.941 72.928, 92.228 77.886 L 89.691 81.271 81.096 80.647 C 76.368 80.304, 65.400 79.266, 56.721 78.340 C 39.606 76.515, 36.945 76.945, 40.900 80.900 C 42.254 82.254, 44.276 83, 46.594 83 C 49.346 83, 50.310 83.468, 50.710 85 C 51.308 87.285, 51.977 87.423, 55.245 85.934 C 57.433 84.937, 63.235 86.550, 75.250 91.494 C 76.471 91.996, 77 91.748, 77 90.674 C 77 89.828, 76.008 88.820, 74.797 88.435 C 73.585 88.051, 71.978 87.121, 71.225 86.368 C 70.068 85.211, 70.907 85.015, 76.679 85.099 C 80.430 85.153, 85.956 85.491, 88.959 85.849 C 93.706 86.415, 94.496 86.826, 95.022 89 C 95.612 91.436, 95.825 91.492, 103.375 91.178 C 112.097 90.817, 114 91.702, 114 96.122 C 114 99.259, 116.349 100.140, 117.401 97.399 C 117.926 96.030, 118.282 96.126, 119.846 98.058 C 122.598 101.457, 124.372 99.731, 123.637 94.368 L 123.038 90 126.569 90 C 128.511 90, 131.333 90.638, 132.842 91.418 C 134.350 92.198, 140.065 93.596, 145.542 94.526 C 151.019 95.455, 156.175 96.564, 157 96.991 C 157.825 97.418, 160.385 98.080, 162.689 98.461 C 166.397 99.076, 167.136 98.858, 169.126 96.570 C 170.397 95.108, 172.054 94.195, 172.937 94.469 C 175.213 95.176, 176.817 93.828, 177.080 90.987 C 177.562 85.798, 176.944 84.437, 173 82 C 170.800 80.640, 169 79.152, 169 78.693 C 169 78.233, 168.302 77.160, 167.450 76.307 C 166.137 74.994, 164.036 74.865, 153.700 75.466 C 133.735 76.626, 125 76.128, 125 73.830 C 125 73.129, 126.141 73.005, 128.250 73.478 C 138.627 75.801, 139.393 75.843, 140.678 74.154 C 141.370 73.244, 141.951 72.232, 141.968 71.904 C 141.986 71.577, 138.512 70.902, 134.250 70.404 L 126.500 69.500 126 65 C 125.544 60.893, 125.282 60.527, 123 60.805 C 121.625 60.973, 119.506 62.214, 118.290 63.564 C 116.084 66.015, 116.078 66.015, 114.963 63.931 C 113.329 60.879, 114.378 59.322, 118.139 59.215 C 119.965 59.163, 121.616 58.651, 121.807 58.078 C 121.998 57.505, 123.948 56.553, 126.140 55.962 C 131.532 54.510, 131.246 51.292, 125.548 49.328 C 123.375 48.578, 121.314 47.509, 120.970 46.951 C 120.625 46.393, 118.128 45.085, 115.421 44.043 C 111.339 42.473, 110.546 41.764, 110.772 39.887 C 111.158 36.667, 111.534 36.526, 115.888 37.963 C 122.498 40.144, 122.761 38.094, 116.344 34.413 C 108.824 30.099, 102.596 29.786, 98.182 33.500 C 96.548 34.875, 94.248 36, 93.070 36 C 91.210 36, 91.076 35.727, 92.046 33.914 C 92.660 32.767, 93.013 31.755, 92.831 31.664 C 92.649 31.574, 91.494 30.938, 90.264 30.250 C 87.374 28.635, 86.515 28.675, 85.004 30.495 M 100.648 70.750 C 99.737 72.813, 98.219 75.712, 97.273 77.193 C 94.814 81.044, 96.360 81.726, 100.459 78.599 C 105.232 74.959, 106.301 72.754, 104.844 69.557 C 103.283 66.130, 102.602 66.323, 100.648 70.750" stroke="none" fill="black" fill-rule="evenodd"/>
</svg>