<svg xmlns="http://www.w3.org/2000/svg" width="192" height="144" viewBox="0 0 192 144" version="1.1">
	<path d="M 157.443 8.685 C 155.274 10.132, 151.250 13.336, 148.500 15.804 C 145.750 18.271, 142.150 21.494, 140.500 22.965 C 135.569 27.361, 119.194 38.861, 118.646 38.313 C 118.367 38.033, 118.382 37.168, 118.681 36.389 C 119.332 34.693, 117.305 32, 115.378 32 C 114.620 32, 114 32.900, 114 34 C 114 35.702, 113.333 36, 109.520 36 C 103.194 36, 97.427 38.572, 95.019 42.469 C 93.909 44.266, 93 46.470, 93 47.368 C 93 49.832, 91.726 49.333, 89.500 45.997 C 86.952 42.179, 81.898 39.765, 77.315 40.178 C 73.906 40.485, 73.565 40.218, 70.118 34.552 C 66.213 28.132, 63.114 25.815, 55.837 23.875 C 43.376 20.553, 31.629 31.809, 31.539 47.157 C 31.504 53.108, 31.825 54.222, 34.558 57.657 C 38.788 62.972, 45.067 65.993, 51.962 66.029 L 57.500 66.059 54 69.240 C 52.075 70.989, 50.618 72.941, 50.763 73.577 C 50.908 74.213, 50.345 75.298, 49.513 75.989 C 47.994 77.250, 47.416 80, 48.671 80 C 49.040 80, 50.137 79.281, 51.108 78.402 C 52.079 77.523, 53.352 77.100, 53.937 77.461 C 55.284 78.294, 55.331 81, 53.998 81 C 53.447 81, 53.897 82.681, 54.998 84.735 C 56.099 86.790, 57 90.245, 57 92.414 C 57 96.285, 58.233 101.231, 60.341 105.812 C 61.116 107.497, 61.078 108.645, 60.202 110.048 C 58.645 112.542, 58.664 117.489, 60.241 120.014 C 61.228 121.595, 61.228 122.405, 60.241 123.986 C 58.714 126.430, 58.610 132.641, 60.079 133.549 C 60.742 133.959, 60.955 136.198, 60.631 139.358 C 60.342 142.186, 60.332 143.751, 60.609 142.835 C 61.379 140.294, 64 139.673, 64 142.031 C 64 143.114, 64.499 144, 65.108 144 C 66.426 144, 65.347 138.678, 63.926 138.167 C 62.687 137.721, 62.742 134.278, 64 133.500 C 64.550 133.160, 65 131.135, 65 129 C 65 126.865, 64.550 124.840, 64 124.500 C 62.703 123.699, 62.703 119.301, 64 118.500 C 65.340 117.672, 65.278 111.678, 63.915 110.315 C 62.040 108.440, 63.278 104.601, 66 103.855 C 67.375 103.478, 70.885 102.490, 73.800 101.661 L 79.100 100.152 78.440 104.551 C 78.077 106.971, 78.339 114.288, 79.021 120.813 C 80.368 133.690, 79.778 137.714, 75.937 141.837 L 73.922 144 106.945 144 L 139.968 144 138.363 140.635 C 136.815 137.389, 136.851 137.110, 139.379 132.797 C 143.490 125.783, 142.633 121.296, 135.500 112.484 C 132.481 108.754, 132.199 107.757, 131.538 98.484 C 131.120 92.617, 131.286 84.400, 131.939 78.557 C 133.018 68.913, 133.797 66.166, 134.720 68.750 C 135.568 71.123, 137.511 69.980, 140.673 65.248 C 144.023 60.235, 147 52.444, 147 48.688 C 147 47.454, 146.299 45.445, 145.443 44.223 C 143.414 41.325, 137.932 41.261, 133.368 44.082 C 131.516 45.226, 130 45.684, 130 45.099 C 130 43.433, 142.235 32.027, 143.310 32.691 C 144.549 33.457, 154.992 27.844, 154.997 26.411 C 154.998 25.811, 153.806 24.777, 152.347 24.112 L 149.693 22.903 151.863 21.383 C 153.057 20.547, 153.825 19.526, 153.571 19.115 C 153.316 18.703, 155.146 15.770, 157.636 12.598 C 160.126 9.425, 161.988 6.655, 161.775 6.441 C 161.561 6.228, 159.612 7.237, 157.443 8.685 M 93.079 53.583 C 93.127 54.748, 93.364 54.985, 93.683 54.188 C 93.972 53.466, 93.936 52.603, 93.604 52.271 C 93.272 51.939, 93.036 52.529, 93.079 53.583 M 88.241 66.620 C 85.769 71.091, 76.605 73.321, 70.398 70.961 C 66.928 69.642, 65.741 71.157, 66.452 76 C 66.735 77.925, 67.086 82.050, 67.233 85.167 C 67.380 88.283, 67.828 91.162, 68.229 91.563 C 68.945 92.279, 81.440 88.879, 85.643 86.824 C 88.197 85.576, 93.075 70.291, 91.280 69.161 C 90.703 68.797, 90.047 67.600, 89.822 66.500 C 89.421 64.540, 89.389 64.542, 88.241 66.620 M 110.699 113.666 C 108.300 118.479, 107.404 128.663, 108.963 133.387 C 110.088 136.796, 114.473 142, 116.221 142 C 116.628 142, 117.244 140.875, 117.589 139.500 C 117.934 138.125, 118.791 137, 119.493 137 C 120.196 137, 121.503 135.881, 122.399 134.514 C 123.916 132.198, 123.896 131.669, 122.105 126.764 C 119.704 120.188, 114.721 110.731, 113.453 110.345 C 112.929 110.185, 111.690 111.679, 110.699 113.666 M 60.688 112.646 C 59.147 114.186, 60.040 117, 62.070 117 C 63.625 117, 64.060 116.461, 63.820 114.828 C 63.488 112.573, 61.880 111.453, 60.688 112.646 M 60.412 127.369 C 59.672 129.297, 60.676 131, 62.553 131 C 63.465 131, 63.865 130.201, 63.652 128.803 C 63.246 126.140, 61.226 125.246, 60.412 127.369" stroke="none" fill="black" fill-rule="evenodd"/>
</svg>