<svg xmlns="http://www.w3.org/2000/svg" width="192" height="144" viewBox="0 0 192 144" version="1.1">
	<path d="M -0 72.011 L -0 144.022 42.250 143.761 L 84.500 143.500 85.060 139.306 L 85.620 135.112 81.874 134.479 C 78.932 133.982, 77.496 134.313, 75.184 136.022 C 72.765 137.810, 71.862 137.996, 70.120 137.064 C 67.569 135.699, 67.522 135.069, 69.645 130.619 C 71.244 127.266, 71.216 127.044, 68.645 122.657 C 65.458 117.220, 65.382 115.735, 68.068 111.391 L 70.135 108.045 59.750 93.773 C 54.039 85.923, 49.019 78.918, 48.597 78.206 C 46.917 75.379, 50.188 73.835, 60.753 72.468 C 67.585 71.584, 82.158 75.673, 90.382 80.780 C 95.412 83.905, 95.982 83.003, 95.927 72 C 95.865 59.488, 94.999 55.766, 91.793 54.230 C 90.322 53.524, 88.849 52.101, 88.521 51.066 C 88.193 50.031, 87.266 48.932, 86.462 48.624 C 85.658 48.315, 85 47.374, 85 46.531 C 85 45.689, 84.550 45, 84 45 C 83.450 45, 83 44.048, 83 42.883 C 83 41.259, 82.535 40.888, 81 41.290 C 78.393 41.972, 78.476 41.376, 81.552 37.343 C 84.487 33.495, 88.774 31, 92.450 31 C 95.321 31, 95.727 29.848, 93.505 28.004 C 92.300 27.004, 91.525 27.081, 89.514 28.399 C 87.306 29.845, 86.627 29.871, 83.634 28.620 C 81.773 27.843, 78.956 25.517, 77.375 23.453 C 75.794 21.388, 72.169 17.389, 69.319 14.567 C 65.465 10.749, 63.834 8.228, 62.951 4.718 L 61.763 0 30.881 0 L 0 0 -0 72.011 M 66.174 3.750 C 67.629 9.140, 68.609 9.657, 70.487 6.025 C 72.602 1.935, 71.839 0, 68.112 0 C 65.189 0, 65.171 0.035, 66.174 3.750 M 128 1 C 128.825 1.533, 130.400 1.969, 131.500 1.969 C 132.600 1.969, 134.175 1.533, 135 1 C 136.078 0.303, 135.093 0.031, 131.500 0.031 C 127.907 0.031, 126.922 0.303, 128 1 M 187.689 2.250 C 188.810 3.488, 190.225 5.400, 190.833 6.500 C 191.783 8.218, 191.943 7.902, 191.970 4.250 C 191.999 0.136, 191.898 0, 188.826 0 L 185.651 0 187.689 2.250 M 73 10.945 C 73 15.051, 79.044 17.724, 79.773 13.940 C 79.953 13.007, 78.680 11.741, 76.534 10.718 C 73.133 9.096, 73 9.104, 73 10.945 M 70 10.941 C 70 11.459, 70.445 12.157, 70.989 12.493 C 71.555 12.843, 71.723 12.442, 71.382 11.552 C 70.717 9.820, 70 9.503, 70 10.941 M 81.037 16.930 C 80.469 17.992, 79.058 19.004, 77.902 19.180 L 75.800 19.500 77.873 22.123 C 81.114 26.225, 86.107 28.229, 89.343 26.726 C 92.934 25.059, 92.681 23.446, 88.118 18.882 C 83.737 14.502, 82.517 14.166, 81.037 16.930 M 90 33.164 C 88.075 33.704, 85.825 34.843, 85 35.693 C 83.667 37.068, 83.667 37.178, 85 36.685 C 85.825 36.380, 88.188 35.579, 90.250 34.907 C 92.313 34.234, 94 33.305, 94 32.842 C 94 32.379, 93.888 32.041, 93.750 32.090 C 93.612 32.140, 91.925 32.623, 90 33.164 M 189.903 37.545 C 188.806 42.444, 188.856 43.285, 190.331 44.759 C 191.890 46.318, 192 45.952, 192 39.214 C 192 35.246, 191.807 32, 191.572 32 C 191.336 32, 190.585 34.495, 189.903 37.545 M 89.104 36.893 C 87.155 37.931, 86.168 38.986, 86.786 39.368 C 87.993 40.114, 95 37.083, 95 35.815 C 95 34.527, 92.786 34.932, 89.104 36.893 M 137.843 64.513 C 138.268 71.338, 139.794 72.420, 147.615 71.442 L 153.118 70.755 150.809 68.286 C 148.020 65.305, 139.574 59.001, 138.366 58.999 C 137.890 58.998, 137.655 61.480, 137.843 64.513 M 100 71.786 C 100 76.452, 101.598 77.449, 102.611 73.415 C 103.049 71.668, 102.731 70.303, 101.630 69.201 C 100.123 67.695, 100 67.891, 100 71.786 M 138.518 77.750 C 138.751 80.362, 139.170 89.250, 139.447 97.500 C 139.975 113.162, 142.046 123.947, 147.176 137.750 L 149.499 144 170.769 144 L 192.038 144 191.769 121.750 L 191.500 99.500 185.500 98.863 C 171.001 97.324, 162.278 90.811, 159.564 79.500 C 158.202 73.825, 156.593 73, 146.892 73 L 138.094 73 138.518 77.750 M 164 79.468 C 164 82.061, 170.505 89.605, 175.473 92.773 C 178.982 95.011, 185.284 96.049, 186.709 94.624 C 187.465 93.869, 178.653 86.220, 173.500 83.159 C 168.347 80.098, 164 78.409, 164 79.468" stroke="none" fill="black" fill-rule="evenodd"/>
</svg>