<svg xmlns="http://www.w3.org/2000/svg" width="192" height="144" viewBox="0 0 192 144" version="1.1">
	<path d="M 0 72 L 0 144 34.758 144 L 69.517 144 71.694 135.577 C 72.892 130.945, 75.250 123.711, 76.936 119.502 C 78.621 115.293, 79.966 110.420, 79.924 108.674 L 79.848 105.500 78.544 109 L 77.241 112.500 76.527 109.500 C 75.081 103.417, 74.953 103.200, 73.097 103.685 C 70.772 104.293, 69.589 99.586, 71.640 97.884 C 73.113 96.662, 73.518 93, 72.180 93 C 71.730 93, 70.382 94.125, 69.187 95.500 C 66.116 99.032, 61.523 98.911, 59.629 95.249 C 58.847 93.737, 56.519 90.709, 54.456 88.522 C 52.393 86.335, 50.406 83.424, 50.039 82.054 C 49.534 80.165, 48.444 79.370, 45.526 78.764 C 43.410 78.324, 40.115 76.998, 38.205 75.817 C 34.961 73.813, 34.851 73.582, 36.556 72.335 C 37.561 71.601, 40.246 71, 42.524 71 C 47.641 71, 48.729 70.058, 45.994 67.996 C 44.435 66.819, 43.749 64.890, 43.314 60.457 C 42.992 57.181, 42.289 53.942, 41.751 53.261 C 39.930 50.953, 41.862 45.343, 45.409 42.637 C 48.362 40.385, 49.080 40.223, 51.384 41.289 C 52.824 41.955, 54.258 43.288, 54.569 44.250 C 55.331 46.608, 57 46.477, 57 44.059 C 57 42.991, 57.500 41.809, 58.112 41.431 C 59.838 40.364, 61.104 43.137, 60.653 47 C 60.429 48.925, 60.699 52.300, 61.254 54.500 C 62.205 58.271, 62.028 58.852, 58.161 64.657 C 55.905 68.043, 53.483 71.046, 52.780 71.331 C 51.783 71.733, 51.821 72.071, 52.952 72.858 C 53.751 73.413, 54.806 73.620, 55.298 73.316 C 57.006 72.260, 61.194 75.460, 63.168 79.329 C 65.060 83.039, 65.220 83.131, 66.531 81.259 C 67.288 80.178, 68.124 78.098, 68.389 76.636 C 68.655 75.175, 69.803 72.795, 70.941 71.348 C 72.266 69.664, 72.680 68.318, 72.094 67.609 C 70.710 65.935, 71.982 61.141, 73.976 60.507 C 75.352 60.071, 76.103 57.626, 77.444 49.225 C 78.386 43.326, 79.926 35.965, 80.867 32.867 C 82.913 26.132, 82.670 25.005, 79.167 24.985 C 73.451 24.952, 72.761 21.604, 76.583 12.455 C 77.969 9.139, 78.335 8.908, 81.293 9.480 C 83.057 9.822, 87.425 11.544, 91 13.307 C 98.231 16.874, 101.557 17.106, 110 14.634 C 113.025 13.748, 116.737 13.018, 118.250 13.012 C 121.575 12.998, 121.734 14.812, 119.125 23 C 117.643 27.654, 117.032 28.463, 115.155 28.256 C 113.251 28.047, 113.083 28.286, 113.968 29.940 C 115.444 32.698, 115.242 40.628, 113.615 43.800 C 112.854 45.285, 112.346 47.625, 112.488 49 C 112.629 50.375, 112.802 53.871, 112.872 56.769 C 112.996 61.868, 113.081 62.018, 115.500 61.411 C 117.872 60.815, 118 61, 118 65.024 C 118 67.551, 118.827 70.602, 120.047 72.576 C 121.172 74.397, 121.981 76.925, 121.843 78.194 C 121.705 79.462, 121.965 82.222, 122.422 84.327 C 123.182 87.832, 123.472 88.099, 125.876 87.499 C 127.319 87.139, 129.277 86.144, 130.228 85.287 C 131.435 84.199, 133.138 83.889, 135.885 84.258 C 138.047 84.548, 140.276 84.324, 140.840 83.760 C 141.403 83.197, 144.172 82.788, 146.992 82.851 C 151.254 82.947, 152.619 83.465, 155.071 85.918 C 156.694 87.540, 157.680 89.076, 157.261 89.331 C 156.842 89.585, 153.350 90.553, 149.500 91.482 C 145.650 92.411, 141.281 94.032, 139.790 95.085 C 138.300 96.138, 136.149 97, 135.009 97 C 133.869 97, 130.204 97.921, 126.863 99.046 C 121.461 100.866, 120.545 100.932, 118.576 99.642 C 116.575 98.330, 116.243 98.381, 115.125 100.172 C 114.261 101.554, 113.528 101.853, 112.694 101.161 C 110.120 99.025, 111.519 111.131, 114.757 119 C 116.453 123.125, 119.097 130.443, 120.631 135.263 L 123.421 144.025 157.960 143.763 L 192.500 143.500 192.757 71.750 L 193.013 0 96.507 0 L 0 0 0 72 M 0.474 72.500 C 0.474 112.100, 0.598 128.154, 0.750 108.176 C 0.901 88.198, 0.901 55.798, 0.750 36.176 C 0.598 16.554, 0.474 32.900, 0.474 72.500 M 48.812 26.829 C 48.577 28.432, 48.677 30.579, 49.035 31.600 C 49.637 33.317, 49.777 33.285, 50.906 31.176 C 52.312 28.549, 52.022 24.828, 50.370 24.285 C 49.748 24.081, 49.047 25.225, 48.812 26.829 M 141.563 49.213 C 140.249 51.090, 140.227 51.698, 141.410 53.504 C 142.610 55.335, 142.535 56.163, 140.828 59.885 C 139.505 62.772, 138.401 63.984, 137.434 63.613 C 136.645 63.310, 136.006 63.386, 136.013 63.781 C 136.043 65.469, 140.147 77.472, 141.076 78.592 C 141.636 79.266, 144.126 79.787, 146.611 79.750 C 150.980 79.684, 151.207 79.524, 153.564 74.874 C 156.427 69.225, 156.523 67.608, 154.429 60.404 C 153.267 56.407, 152.382 55, 151.028 55 C 149.747 55, 148.940 53.905, 148.335 51.347 C 147.278 46.880, 143.936 45.826, 141.563 49.213 M 111.751 93.524 C 111.240 96.193, 112.574 97.826, 114.054 96.346 C 115.044 95.356, 114.185 91, 113 91 C 112.578 91, 112.016 92.136, 111.751 93.524" stroke="none" fill="black" fill-rule="evenodd"/>
</svg>