<svg xmlns="http://www.w3.org/2000/svg" width="192" height="144" viewBox="0 0 192 144" version="1.1">
	<path d="M 74.500 1.358 C 70.630 2.523, 70.492 2.714, 70.240 7.280 C 70.018 11.320, 70.401 12.438, 72.905 15.058 C 75.613 17.891, 76.551 20.515, 78.554 30.852 C 79.195 34.159, 79.163 34.195, 76.160 33.535 C 72.680 32.771, 69.537 34.128, 67.959 37.077 C 66.397 39.996, 71.259 54.707, 74.766 57.671 C 77.243 59.764, 77.275 59.932, 75.667 62.386 C 73.340 65.937, 73.589 69.265, 76.377 71.884 C 77.961 73.372, 78.924 75.635, 79.266 78.670 C 79.561 81.283, 80.609 84.054, 81.726 85.171 C 83.655 87.100, 83.671 87.069, 83.516 81.809 C 83.328 75.413, 84.410 71.836, 86.312 72.566 C 88.106 73.254, 88.582 62.905, 86.882 60.183 C 85.920 58.642, 86.178 57.631, 88.357 54.425 C 90.307 51.556, 91 49.277, 91 45.738 C 91 42.962, 92 38.529, 93.373 35.220 C 94.678 32.074, 96.317 27.700, 97.016 25.500 C 97.714 23.300, 99.506 20.097, 100.997 18.382 C 104.094 14.819, 105.641 6.815, 104.044 2.615 L 103.050 0 90.775 0.077 C 84.024 0.119, 76.700 0.695, 74.500 1.358" stroke="none" fill="black" fill-rule="evenodd"/>
</svg>