<svg xmlns="http://www.w3.org/2000/svg" width="192" height="144" viewBox="0 0 192 144" version="1.1">
	<path d="M 0 72 L 0 144 34 144 L 68 144 68 133.500 L 68 123 63.655 123 C 58.033 123, 56.476 121.236, 53.838 111.875 C 52.695 107.819, 50.641 102.284, 49.274 99.575 C 47.258 95.579, 46.905 93.770, 47.407 89.991 C 47.978 85.685, 47.831 85.244, 45.460 84.164 C 44.015 83.505, 42.224 81.360, 41.357 79.248 C 40.510 77.186, 38.481 74.433, 36.848 73.130 C 35.188 71.805, 34.111 70.154, 34.405 69.387 C 34.953 67.959, 31.414 64.011, 29.561 63.985 C 28.978 63.976, 27.825 63.526, 27 62.985 C 25.667 62.109, 25.667 61.891, 27 61.015 C 28.258 60.189, 28.191 60.028, 26.583 60.015 C 25.529 60.007, 24.949 59.718, 25.293 59.373 C 25.638 59.028, 25.265 57.479, 24.464 55.930 C 22.768 52.651, 24.157 51.014, 26.579 53.436 C 28.259 55.117, 32 55.578, 32 54.105 C 32 53.613, 31.146 50.351, 30.102 46.855 C 27.677 38.731, 27.069 35.075, 28.045 34.472 C 28.472 34.208, 28.708 33.216, 28.569 32.267 C 28.429 31.318, 28.919 29.938, 29.658 29.199 C 30.396 28.461, 31 26.854, 31 25.629 C 31 24.403, 31.506 22.894, 32.124 22.276 C 32.903 21.497, 32.950 20.283, 32.277 18.326 C 31.130 14.988, 31.617 13, 33.583 13 C 34.363 13, 35 12.347, 35 11.550 C 35 10.752, 35.751 9.679, 36.669 9.166 C 37.586 8.652, 38.418 7.167, 38.517 5.866 C 38.616 4.565, 39.038 2.712, 39.455 1.750 C 40.119 0.218, 39.603 0, 35.307 0 C 32.608 0, 29.860 0.540, 29.200 1.200 C 28.267 2.133, 27.733 2.133, 26.800 1.200 C 25.992 0.392, 21.422 -0, 12.800 -0 L 0 0 0 72 M 90.468 3.714 C 90.118 5.796, 89.369 9.009, 88.804 10.854 C 87.333 15.656, 86.852 36.117, 88.173 37.709 C 89.382 39.165, 98.726 39.460, 100.857 38.110 C 101.794 37.516, 102.002 36.284, 101.529 34.130 C 100.933 31.420, 101.171 30.885, 103.336 30.062 C 104.707 29.541, 106.151 28.100, 106.544 26.861 C 107.255 24.622, 107.279 24.628, 110.005 27.680 C 111.515 29.370, 112.946 31.338, 113.184 32.053 C 114.196 35.089, 116 31.524, 116 26.488 C 116 20.748, 117.573 16, 119.475 16 C 121.098 16, 123.953 9.621, 124.669 4.396 L 125.272 -0 120.636 -0 L 116 0 115.968 3.750 C 115.941 6.903, 115.742 7.247, 114.718 5.912 C 114.048 5.039, 112.972 4.502, 112.327 4.720 C 111.682 4.937, 111.007 4.077, 110.827 2.808 C 110.514 0.602, 110.072 0.487, 100.802 0.214 L 91.104 -0.071 90.468 3.714 M 137.826 7.998 C 138.006 12.399, 138.568 16, 139.076 16 C 139.584 16, 140.007 14.988, 140.015 13.750 C 140.026 12.154, 140.274 11.884, 140.868 12.820 C 141.407 13.671, 141.932 12.247, 142.344 8.820 C 143.370 0.275, 143.305 0, 140.250 -0.002 L 137.500 -0.005 137.826 7.998 M 154.412 8.472 C 154.831 13.631, 154.706 17.681, 154.093 18.826 C 153.042 20.790, 154.483 33.752, 155.923 35.279 C 156.327 35.707, 157.818 35.144, 159.236 34.029 C 163.273 30.853, 164.086 31.401, 163.536 36.924 L 163.046 41.849 165.922 41.485 C 168.107 41.208, 168.920 41.587, 169.305 43.059 C 169.584 44.126, 169.374 45.269, 168.838 45.600 C 168.302 45.931, 168.096 46.809, 168.381 47.550 C 169.194 49.670, 165.204 50.364, 162.478 48.577 C 160.189 47.078, 159.974 47.115, 158.640 49.244 C 157.863 50.485, 156.460 53.876, 155.523 56.781 C 154.585 59.686, 152.767 63.312, 151.482 64.839 L 149.145 67.616 152.073 68.721 C 155.690 70.087, 155.853 72.654, 152.420 74.218 C 151.001 74.865, 148.950 77.138, 147.863 79.269 C 146.607 81.730, 144.812 83.518, 142.943 84.170 C 139.873 85.240, 139.235 86.409, 141.094 87.558 C 142.568 88.469, 141.777 94.187, 139.165 101.500 C 137.987 104.800, 136.289 111.027, 135.392 115.338 C 133.953 122.249, 133.390 123.401, 130.630 125.084 C 128.909 126.134, 126.263 126.994, 124.750 126.996 L 122 127 122 135.500 L 122 144 157 144 L 192 144 192 72 L 192 0 172.862 -0 L 153.725 -0 154.412 8.472 M 80.232 19 C 80.232 20.925, 80.438 21.712, 80.689 20.750 C 80.941 19.788, 80.941 18.212, 80.689 17.250 C 80.438 16.288, 80.232 17.075, 80.232 19 M 117.348 71.250 C 117.662 73.037, 118.197 79, 118.537 84.500 C 118.877 90, 119.370 95.162, 119.631 95.972 C 120.427 98.430, 121.967 95.095, 121.985 90.876 C 121.993 88.882, 122.675 85.338, 123.500 83 C 125.362 77.723, 125.413 74.343, 123.646 73.300 C 122.901 72.860, 121.760 71.487, 121.111 70.250 C 120.461 69.013, 119.220 68, 118.354 68 C 117.125 68, 116.903 68.717, 117.348 71.250 M 70.598 73.762 C 69.164 76.958, 68.133 78, 66.407 78 C 63.038 78, 62.683 79.457, 64.962 83.926 C 66.083 86.123, 67 89.487, 67 91.401 C 67 95.124, 68.509 96.891, 70.223 95.177 C 71.305 94.095, 73.352 75.466, 72.807 71.663 C 72.562 69.956, 72.116 70.380, 70.598 73.762" stroke="none" fill="black" fill-rule="evenodd"/>
</svg>