<svg xmlns="http://www.w3.org/2000/svg" width="192" height="144" viewBox="0 0 192 144" version="1.1">
	<path d="M 63.728 9.250 C 63.163 18.861, 59.961 30.958, 57.426 33.061 C 56.642 33.712, 56 34.868, 56 35.629 C 56 36.390, 52.962 40.072, 49.250 43.810 C 41.399 51.715, 30.703 57.515, 21.134 59.056 C 15.180 60.015, 2.888 59.667, 0.976 58.485 C 0.347 58.096, -0 73.186, -0 100.941 L 0 144 52.410 144 L 104.819 144 106.030 136.820 C 106.696 132.872, 108.316 126.481, 109.630 122.619 C 110.943 118.756, 113.157 109.630, 114.549 102.339 C 117.433 87.227, 117.197 79.515, 113.818 78.442 C 110.777 77.477, 109.723 73.436, 111.577 69.851 C 112.441 68.181, 112.911 66.578, 112.622 66.289 C 112.334 66, 109.930 66.543, 107.282 67.496 C 102.584 69.185, 102.374 69.176, 98.703 67.114 C 96.633 65.951, 94.060 65, 92.984 65 C 90.668 65, 73.972 59.554, 70.015 57.508 C 68.496 56.722, 66.982 56.351, 66.651 56.682 C 65.790 57.543, 63 55.018, 63 53.378 C 63 51.345, 67.772 51.706, 73 54.133 C 75.475 55.283, 81.227 57.056, 85.783 58.075 C 92.511 59.579, 94.576 59.703, 96.783 58.734 C 98.277 58.078, 99.792 57.129, 100.148 56.626 C 100.534 56.081, 102.635 56.174, 105.341 56.856 C 112.313 58.611, 115.676 58.348, 116.290 56 C 116.626 54.713, 116.320 54, 115.432 54 C 114.057 54, 110.770 48.765, 111.212 47.280 C 111.340 46.851, 110.590 45.220, 109.546 43.656 C 107.716 40.915, 107.711 40.692, 109.419 37.520 C 110.801 34.954, 110.950 33.776, 110.096 32.180 C 108.080 28.413, 108.679 26.704, 111.750 27.461 C 117.769 28.946, 126.669 33.451, 129.665 36.531 C 132.226 39.165, 132.952 40.900, 133.473 45.642 C 133.827 48.864, 134.540 52.534, 135.058 53.797 C 135.576 55.060, 136 57.409, 136 59.017 C 136 61.084, 136.851 62.569, 138.904 64.087 C 141.096 65.708, 141.978 67.370, 142.503 70.867 C 142.885 73.415, 143.661 76.367, 144.228 77.427 C 144.795 78.486, 145.636 83.436, 146.097 88.427 C 146.557 93.417, 147.344 99.744, 147.844 102.487 C 148.828 107.874, 148.419 110.377, 146.725 109.330 C 146.043 108.908, 145.906 109.313, 146.345 110.456 C 146.899 111.902, 146.629 112.136, 144.924 111.690 C 143.115 111.217, 142.903 111.477, 143.418 113.528 C 143.747 114.841, 146.105 120.322, 148.657 125.708 C 151.210 131.094, 153.843 137.300, 154.509 139.500 L 155.721 143.500 174.110 143.500 L 192.500 143.500 192.825 129 C 193.003 121.025, 192.837 88.737, 192.455 57.250 L 191.761 0 128.017 0 L 64.273 0 63.728 9.250 M 0.459 101 C 0.459 124.925, 0.589 134.713, 0.749 122.750 C 0.908 110.788, 0.908 91.213, 0.749 79.250 C 0.589 67.288, 0.459 77.075, 0.459 101 M 137.598 84.750 C 136.546 90.530, 138.137 101, 140.067 101 C 141.349 101, 141.159 94.795, 139.639 87 L 138.372 80.500 137.598 84.750" stroke="none" fill="black" fill-rule="evenodd"/>
</svg>