<svg xmlns="http://www.w3.org/2000/svg" width="192" height="144" viewBox="0 0 192 144" version="1.1">
	<path d="M 81 0.508 C 81 0.788, 82.125 5.778, 83.500 11.597 C 85.228 18.910, 86 25.046, 86 31.467 C 86 37.517, 86.530 42.025, 87.521 44.395 C 89.019 47.982, 89.004 48.048, 86.455 49.017 C 85.033 49.558, 83.612 50, 83.297 50 C 82.411 50, 67.649 61.309, 66.335 62.994 C 65.695 63.815, 64.631 66.290, 63.972 68.494 C 63.312 70.697, 61.459 75.105, 59.852 78.290 C 58.246 81.474, 57.165 84.459, 57.452 84.922 C 58.378 86.421, 53.963 90.952, 50.769 91.780 C 46.254 92.950, 45.008 95.427, 47.680 97.917 L 49.809 99.900 54.177 97.006 C 56.580 95.415, 59.626 92.962, 60.947 91.556 C 62.268 90.150, 64.115 89, 65.052 89 C 67.178 89, 68.524 87.337, 69.417 83.607 C 69.798 82.015, 71.395 77.880, 72.965 74.416 C 75.566 68.681, 76.341 67.855, 81.660 65.160 C 84.872 63.532, 88.592 61.030, 89.926 59.599 C 92.814 56.501, 98.762 54.558, 100.624 56.103 C 102.161 57.379, 101.316 60, 99.368 60 C 97.675 60, 96 63.997, 96 68.039 C 96 70.232, 95.292 71.315, 93.126 72.435 C 91.546 73.252, 88.396 76.139, 86.126 78.849 C 82.781 82.845, 82 84.544, 82 87.830 C 82 90.058, 82.445 92.157, 82.988 92.493 C 83.532 92.829, 86.120 92.135, 88.738 90.952 C 94.241 88.465, 105.373 88.157, 107.965 90.419 C 113.206 94.993, 124.159 96.521, 130.013 93.493 C 132.942 91.979, 133.576 90.534, 135.870 80.155 C 136.398 77.765, 137.847 74.728, 139.089 73.405 C 142.328 69.958, 139.556 70.262, 133.661 74 C 131.059 75.650, 128.508 77, 127.991 77 C 126.949 77, 124 71.771, 124 69.922 C 124 69.275, 127.245 64.923, 131.210 60.252 L 138.421 51.759 136.100 49.880 C 133.305 47.617, 129.703 47.448, 128 49.500 C 127.315 50.325, 125.851 51, 124.747 51 C 121.494 51, 123.090 45.455, 128.910 36.541 C 131.709 32.252, 134 28.177, 134 27.484 C 134 26.791, 135.425 23.179, 137.167 19.458 C 140.450 12.441, 141.487 3.996, 139.160 3.220 C 138.515 3.005, 138.242 2.418, 138.553 1.915 C 138.864 1.412, 138.668 1, 138.118 1 C 137.568 1, 136.901 1.352, 136.635 1.781 C 136.369 2.211, 134.655 2.664, 132.826 2.787 C 130.264 2.959, 128.615 4.043, 125.646 7.505 C 123.526 9.977, 121.389 12, 120.896 12 C 120.403 12, 120 9.300, 120 6 L 120 0 100.500 0 C 89.775 0, 81 0.229, 81 0.508 M 106.178 11.284 C 105.451 12.161, 105.026 14.144, 105.235 15.690 L 105.614 18.500 106.847 15.579 C 107.526 13.972, 107.950 11.990, 107.790 11.173 C 107.541 9.897, 107.315 9.912, 106.178 11.284" stroke="none" fill="black" fill-rule="evenodd"/>
</svg>