<svg xmlns="http://www.w3.org/2000/svg" width="192" height="144" viewBox="0 0 192 144" version="1.1">
	<path d="M -0 72.005 L -0 144.010 96.250 143.755 L 192.500 143.500 192.757 71.750 L 193.013 0 96.507 0 L 0 0 -0 72.005 M 0.474 72.500 C 0.474 112.100, 0.598 128.154, 0.750 108.176 C 0.901 88.198, 0.901 55.798, 0.750 36.176 C 0.598 16.554, 0.474 32.900, 0.474 72.500 M 88.918 32.250 C 87.687 35.992, 88.193 38.074, 90.721 39.665 C 92.250 40.627, 94.945 42.856, 96.711 44.617 C 99.439 47.339, 99.704 48.001, 98.473 49.023 C 97.316 49.982, 96.920 49.899, 96.512 48.613 C 96.230 47.726, 95.782 46.306, 95.515 45.457 C 95.132 44.239, 94.605 44.141, 93.015 44.992 C 90.492 46.342, 90.453 47.637, 92.895 48.944 C 95.721 50.456, 97.183 55.465, 95.768 58.788 C 92.882 65.566, 90.286 66.114, 71.542 63.903 C 66.427 63.300, 61.525 62.963, 60.648 63.153 C 58.506 63.619, 59.975 65.856, 62.696 66.271 C 63.856 66.448, 65.435 67.116, 66.205 67.755 C 66.974 68.394, 68.481 68.689, 69.552 68.412 C 70.623 68.134, 73.750 69.051, 76.500 70.449 C 79.250 71.848, 81.922 72.994, 82.439 72.996 C 83.563 73.001, 80.021 69.575, 77.954 68.658 C 77.154 68.303, 80.488 68.157, 85.363 68.333 C 92.385 68.587, 94.421 69.001, 95.163 70.327 C 95.857 71.567, 97.489 72, 101.470 72 C 106.643 72, 106.866 72.112, 107.510 75.048 C 108.023 77.382, 108.480 77.846, 109.463 77.031 C 110.169 76.445, 111.479 76.246, 112.373 76.590 C 113.629 77.072, 114 76.596, 114 74.502 C 114 71.951, 114.222 71.818, 117.750 72.264 C 124.407 73.105, 133.408 75.059, 137.024 76.449 C 140.012 77.597, 140.840 77.590, 142.465 76.402 C 143.520 75.631, 145.196 75, 146.191 75 C 147.203 75, 148.051 74.229, 148.115 73.250 C 148.333 69.936, 147.807 67.499, 146.793 67.130 C 146.234 66.926, 144.852 65.694, 143.720 64.393 C 141.017 61.285, 136.776 60.590, 129.050 61.991 C 124.791 62.763, 122.407 62.807, 121.724 62.124 C 121.041 61.441, 121.410 61.294, 122.856 61.673 C 124.035 61.981, 125 61.789, 125 61.245 C 125 60.702, 122.800 59.966, 120.111 59.609 C 115.650 59.017, 115.183 58.702, 114.789 56.016 C 114.521 54.193, 114.955 52.453, 115.928 51.446 C 117.361 49.965, 117.301 49.686, 115.250 48.289 C 114.013 47.446, 113 46.129, 113 45.362 C 113 44.595, 111.425 43.217, 109.500 42.299 C 106.066 40.661, 105.039 38.712, 106.979 37.513 C 107.518 37.180, 108.907 37.415, 110.065 38.035 C 113.608 39.931, 113.338 38.360, 109.636 35.536 C 105.607 32.463, 100.801 31.965, 98.168 34.348 C 95.709 36.573, 94 36.431, 94 34 C 94 32.533, 93.333 32, 91.500 32 C 90.125 32, 88.963 32.112, 88.918 32.250 M 108 54 C 108 54.550, 108.450 55, 109 55 C 109.550 55, 110 54.550, 110 54 C 110 53.450, 109.550 53, 109 53 C 108.450 53, 108 53.450, 108 54 M 98.150 59.471 C 95.233 64.414, 95.845 65.898, 99.501 62.753 C 101.974 60.626, 102.261 59.901, 101.398 57.967 C 100.403 55.737, 100.334 55.769, 98.150 59.471 M 114.500 62 C 114.840 62.550, 115.879 62.993, 116.809 62.985 C 118.266 62.971, 118.293 62.835, 117 62 C 115.042 60.734, 113.718 60.734, 114.500 62" stroke="none" fill="black" fill-rule="evenodd"/>
</svg>