<svg xmlns="http://www.w3.org/2000/svg" width="192" height="144" viewBox="0 0 192 144" version="1.1">
	<path d="M -0 72.025 L -0 144.051 15.528 143.775 L 31.056 143.500 34.553 135.500 C 38.240 127.066, 38.642 122.843, 35.796 122.435 C 34.645 122.270, 33.729 123.290, 32.973 125.581 C 31.094 131.277, 30.092 130.366, 31.514 124.255 C 32.251 121.090, 32.870 115.085, 32.890 110.911 C 32.910 106.737, 33.387 102.112, 33.950 100.632 C 34.512 99.152, 35.036 96.492, 35.114 94.721 C 35.192 92.949, 36.779 86.938, 38.640 81.361 C 40.682 75.248, 42.635 66.514, 43.562 59.361 C 44.407 52.838, 45.516 45.925, 46.027 44 C 47.441 38.673, 51.624 33.232, 56.034 30.983 C 60.658 28.624, 60.915 27.646, 57.500 25.408 C 52.727 22.281, 55.576 18, 62.430 18 C 66.027 18, 70 14.317, 70 10.983 C 70 7.804, 74.082 2.315, 75.702 3.316 C 76.268 3.666, 76.506 5.135, 76.229 6.581 L 75.727 9.211 80.013 6.105 C 82.371 4.397, 85.167 3, 86.227 3 C 87.777 3, 87.339 3.830, 83.982 7.250 C 80.147 11.157, 77.349 15, 78.339 15 C 78.564 15, 80.662 14.325, 83 13.500 C 87.712 11.837, 91.960 11.483, 90.450 12.878 C 89.928 13.361, 87.044 14.653, 84.042 15.751 C 77.655 18.085, 76.882 19.283, 80.712 20.910 C 88.665 24.287, 90.363 29.646, 84 31.281 C 82.075 31.775, 80.373 32.303, 80.218 32.455 C 80.064 32.606, 81.526 35.143, 83.468 38.092 C 87.993 44.961, 88.327 50.764, 84.424 54.667 C 82.425 56.666, 81.754 58.502, 81.425 62.871 C 81.192 65.967, 80.551 70.945, 80 73.934 C 78.880 80.019, 78.674 88.341, 79.621 89.288 C 79.963 89.629, 82.650 88.692, 85.594 87.204 C 90.644 84.653, 90.948 84.285, 90.973 80.684 C 91.011 75.271, 92.497 73, 96 73 C 99.526 73, 101 75.289, 101 80.763 C 101 84.475, 101.243 84.772, 106.169 87.079 C 109.012 88.411, 111.599 89.393, 111.919 89.263 C 113.275 88.709, 113.367 80.544, 112.108 72.500 C 111.505 68.650, 110.767 63.429, 110.467 60.898 C 110.046 57.344, 109.362 55.996, 107.461 54.979 C 105.332 53.839, 105 52.963, 105 48.471 C 105 44.613, 105.628 42.353, 107.446 39.675 L 109.892 36.071 106.938 30.285 C 103.667 23.879, 101.356 14.093, 102.456 11.303 C 103.009 9.899, 103.497 10.495, 104.664 14 C 107.002 21.022, 112.201 32, 113.188 32 C 113.678 32, 115.844 31.100, 118 30 C 120.156 28.900, 122.613 28, 123.460 28 C 125.288 28, 125.448 26.848, 123.842 25.242 C 122.075 23.475, 124.649 21, 128.252 21 C 131.226 21, 131.254 20.948, 130.753 16.500 C 130.147 11.128, 131.410 10.652, 133.431 15.490 C 134.376 17.751, 135.381 18.791, 136.285 18.444 C 138.435 17.619, 140.179 20.439, 139.411 23.499 C 138.914 25.477, 138.510 25.834, 137.883 24.845 C 137.320 23.957, 137.025 24.715, 137.015 27.076 C 137.004 29.649, 137.728 31.331, 139.597 33.076 C 144.702 37.841, 146.362 42.917, 149.056 62 C 149.716 66.675, 151.746 74.879, 153.567 80.230 C 159.553 97.819, 161.336 106.376, 160.717 114.554 C 160.197 121.439, 160.299 121.960, 162.297 122.594 C 165.999 123.769, 175.537 133.742, 178.011 139.023 L 180.382 144.086 186.441 143.793 L 192.500 143.500 192.757 71.750 L 193.013 0 96.507 0 L 0 0 -0 72.025 M 0.474 72.500 C 0.474 112.100, 0.598 128.154, 0.750 108.176 C 0.901 88.198, 0.901 55.798, 0.750 36.176 C 0.598 16.554, 0.474 32.900, 0.474 72.500 M 74.536 63.960 C 72.757 65.926, 72.902 68.835, 74.937 71.971 C 76.283 74.045, 76.676 73.234, 77.225 67.250 C 77.748 61.551, 77.258 60.952, 74.536 63.960 M 114.370 64.250 C 114.701 65.487, 114.994 68.075, 115.020 70 L 115.067 73.500 117.033 71.139 C 119.489 68.192, 119.533 65.792, 117.171 63.655 C 114.650 61.373, 113.655 61.584, 114.370 64.250 M 83.808 96.870 C 77.806 101.513, 77.559 103.664, 83.404 100.398 C 88.566 97.512, 90.698 95.268, 89.408 94.078 C 88.901 93.610, 86.429 94.843, 83.808 96.870 M 102.177 95.577 C 102.576 97.526, 113.013 103.469, 112.969 101.722 C 112.933 100.292, 104.875 94, 103.079 94 C 102.405 94, 101.999 94.710, 102.177 95.577 M 94.411 100.632 C 94.033 102.209, 93.246 104.105, 92.661 104.845 C 91.008 106.935, 73.963 118, 72.396 118 C 70.388 118, 70.718 123.753, 73.343 134.500 L 75.541 143.500 97.624 143.769 L 119.707 144.037 120.347 137.269 C 120.698 133.546, 120.984 127.800, 120.983 124.500 C 120.980 118.545, 120.952 118.487, 117.240 116.774 C 108.779 112.869, 99.507 106.021, 97.919 102.505 C 95.715 97.626, 95.197 97.349, 94.411 100.632" stroke="none" fill="black" fill-rule="evenodd"/>
</svg>