<svg xmlns="http://www.w3.org/2000/svg" width="192" height="144" viewBox="0 0 192 144" version="1.1">
	<path d="M 186.416 2.449 C 181.916 4.555, 180.775 4.710, 176.492 3.796 C 170.003 2.412, 159.481 4.191, 151.429 8.034 C 145.436 10.894, 138 17.679, 138 20.287 C 138 22.789, 131.807 25.313, 124.522 25.780 C 117.973 26.201, 117.270 26.464, 115.779 29.062 C 114.385 31.492, 114.357 32.051, 115.579 33.066 C 116.361 33.714, 117 35.225, 117 36.422 C 117 39.387, 118.843 41, 122.231 41 C 124.055 41, 125.256 41.623, 125.604 42.750 C 127.256 48.087, 129.118 51, 130.877 51 C 133.870 51, 134.466 54.140, 131.848 56.115 C 129.864 57.611, 129.766 58.014, 131.018 59.522 C 132.363 61.142, 133.759 64.411, 136.232 71.729 C 137.147 74.438, 137.698 74.863, 139.661 74.370 C 141.613 73.880, 142.005 74.174, 142.032 76.142 C 142.061 78.315, 142.168 78.363, 143.392 76.750 C 145.021 74.604, 146 74.510, 146 76.500 C 146 78.436, 146.903 78.397, 149.150 76.364 C 150.826 74.848, 151.006 74.851, 151.604 76.412 C 152.505 78.759, 151.440 85.765, 149.900 87.620 C 148.951 88.764, 146.928 89.112, 142.060 88.970 C 130.905 88.644, 131 88.616, 131 92.132 C 131 95.201, 130.921 95.253, 127.056 94.734 C 123.653 94.278, 123.070 94.483, 122.806 96.227 C 122.570 97.790, 121.023 98.651, 116 100.016 C 112.425 100.988, 108.487 102.109, 107.250 102.508 C 105.937 102.931, 105 102.818, 105 102.237 C 105 101.689, 101.671 97.474, 97.603 92.871 C 81.059 74.148, 82.476 75.308, 70.119 70.382 C 59.580 66.182, 58.247 65.885, 52.119 66.373 C 39.400 67.384, 33.497 68.461, 33.600 69.750 C 33.655 70.438, 33.768 71.648, 33.850 72.439 C 33.933 73.231, 35.835 75.998, 38.077 78.589 C 40.709 81.630, 41.983 83.958, 41.670 85.154 C 41.313 86.518, 41.880 87.183, 43.813 87.668 C 45.258 88.031, 48.029 89.266, 49.970 90.414 C 52.696 92.025, 55.203 92.502, 60.979 92.509 L 68.459 92.519 74.479 100.009 C 83.667 111.440, 94.298 121.613, 98.508 123.003 C 101.370 123.947, 104.665 123.961, 113.220 123.065 C 119.283 122.430, 124.475 122.141, 124.756 122.423 C 125.038 122.704, 125.233 127.684, 125.191 133.488 L 125.114 144.042 144.685 143.771 L 164.257 143.500 165.932 138 C 167.601 132.521, 167.622 132.500, 171.553 132.580 C 179.063 132.731, 182.725 134.006, 187.354 138.081 L 191.936 142.113 191.980 71.057 C 192.004 31.976, 191.906 0.016, 191.762 0.035 C 191.618 0.054, 189.212 1.141, 186.416 2.449 M 183.085 86.250 C 182.617 87.487, 182.434 88.838, 182.676 89.250 C 183.831 91.212, 180.624 89.682, 178.484 87.250 L 176.063 84.500 176.032 87.809 C 176.013 89.754, 175.588 90.863, 175 90.500 C 173.651 89.666, 173.736 90.889, 175.500 97.661 C 176.325 100.829, 177 105.281, 177 107.555 C 177 112.551, 180.021 116.095, 182.809 114.369 C 184.668 113.218, 188.307 100.124, 189.364 90.779 C 189.893 86.100, 189.755 85.157, 188.606 85.598 C 187.834 85.894, 186.905 85.656, 186.542 85.068 C 185.471 83.335, 183.996 83.839, 183.085 86.250" stroke="none" fill="black" fill-rule="evenodd"/>
</svg>