<svg xmlns="http://www.w3.org/2000/svg" width="192" height="144" viewBox="0 0 192 144" version="1.1">
	<path d="M 0 72 L 0 144 9.500 144 L 19 144 19 138.661 C 19 134.277, 18.096 131.475, 13.944 122.984 C 11.164 117.298, 7.729 108.788, 6.311 104.073 C 3.969 96.285, 3.722 93.806, 3.617 77 C 3.509 59.748, 3.694 57.735, 6.359 47.159 C 8.452 38.855, 8.921 35.521, 8.109 34.709 C 6.444 33.044, 6.771 31.207, 8.850 30.548 C 11.025 29.857, 27.958 35.192, 32.972 38.148 C 36.805 40.407, 69.934 50.159, 71.174 49.393 C 71.601 49.128, 73.022 45.427, 74.330 41.167 C 76.740 33.319, 81.208 25, 83.013 25 C 84.852 25, 85.494 24.788, 89 23.028 C 96.973 19.024, 102.117 19.549, 109.098 25.078 C 112.407 27.698, 112.871 28.568, 112.625 31.686 C 112.470 33.661, 111.610 35.812, 110.714 36.467 C 109.369 37.451, 109.312 37.905, 110.387 39.079 C 112.307 41.176, 110.479 49.062, 107.918 49.732 C 103.934 50.773, 105.959 53.853, 111.957 55.875 C 113.858 56.516, 116.374 57.942, 117.546 59.044 C 120.835 62.133, 149.145 67.192, 150.538 64.939 C 150.865 64.410, 152.640 64.658, 154.707 65.522 C 156.687 66.349, 158.539 66.794, 158.822 66.511 C 159.106 66.228, 160.049 66.619, 160.919 67.382 C 161.798 68.152, 168.052 69.508, 175 70.434 C 193.007 72.833, 192 72.475, 192 76.488 C 192 78.828, 191.598 79.788, 190.750 79.473 C 190.063 79.217, 182.975 77.663, 175 76.019 C 164.930 73.943, 160.384 73.374, 160.119 74.157 C 159.910 74.776, 158.200 76.987, 156.318 79.069 C 151.862 84.002, 132.778 92.407, 126 92.423 C 123.525 92.428, 121.169 92.898, 120.765 93.467 C 119.457 95.306, 119.951 101.715, 121.500 103 C 122.325 103.685, 123.002 105.427, 123.005 106.872 C 123.008 108.318, 123.796 110.665, 124.755 112.088 C 125.715 113.512, 128.444 117.562, 130.821 121.088 L 135.141 127.500 132.492 127.824 C 130.564 128.060, 130.006 128.573, 130.442 129.710 C 130.772 130.569, 131.586 134.142, 132.252 137.651 L 133.462 144.029 162.981 143.765 L 192.500 143.500 192.757 71.750 L 193.013 0 96.507 0 L 0 0 0 72 M 0.474 72.500 C 0.474 112.100, 0.598 128.154, 0.750 108.176 C 0.901 88.198, 0.901 55.798, 0.750 36.176 C 0.598 16.554, 0.474 32.900, 0.474 72.500 M 29.569 43.917 C 28.545 45.659, 23.131 64.091, 22.642 67.500 C 21.235 77.314, 20.968 90.700, 22.037 97.821 C 22.671 102.045, 25.130 110.675, 27.500 117 C 33.427 132.816, 33.315 132.154, 31.115 138.412 L 29.151 144 47.461 144 C 65.333 144, 65.806 143.946, 67.284 141.750 C 68.117 140.512, 72.910 134.775, 77.934 129 C 87.738 117.732, 97 104.852, 97 102.487 C 97 101.688, 94.073 98.733, 90.495 95.922 C 86.918 93.110, 83.743 89.823, 83.440 88.616 C 82.817 86.135, 84.174 81.992, 86.879 78.119 C 87.885 76.679, 88.996 73.250, 89.347 70.500 C 89.725 67.548, 89.631 66.056, 89.118 66.857 C 88.161 68.353, 84 67.554, 84 65.874 C 84 65.328, 83.550 65.160, 83 65.500 C 82.445 65.843, 81.993 65.091, 81.985 63.809 C 81.972 61.902, 81.784 61.761, 80.904 63 C 80.082 64.156, 79.975 63.873, 80.434 61.765 C 81.207 58.219, 78.139 55, 73.986 55 C 72.329 55, 70.191 54.555, 69.236 54.010 C 66.782 52.611, 33.875 43.195, 31.706 43.271 C 30.719 43.305, 29.758 43.596, 29.569 43.917 M 119 65.912 C 119 66.531, 120.350 69.568, 122 72.660 C 123.650 75.752, 125 79.343, 125 80.641 C 125 81.938, 125.112 82.991, 125.250 82.980 C 128.132 82.747, 146.471 75.946, 146.400 75.136 C 146.345 74.511, 146.233 73.179, 146.150 72.175 C 146.025 70.656, 143.977 69.975, 133.892 68.103 C 127.233 66.866, 121.158 65.614, 120.392 65.320 C 119.626 65.026, 119 65.293, 119 65.912 M 92.568 84.683 C 92.171 85.719, 92.707 87.151, 93.961 88.405 C 96.150 90.594, 96.557 89.681, 95.370 85.250 C 94.655 82.583, 93.466 82.342, 92.568 84.683" stroke="none" fill="black" fill-rule="evenodd"/>
</svg>