<svg xmlns="http://www.w3.org/2000/svg" width="192" height="144" viewBox="0 0 192 144" version="1.1">
	<path d="M 153.158 3.866 C 151.531 9.299, 151.709 14.715, 153.698 20.266 C 155.159 24.341, 155.236 25.862, 154.233 30.766 C 153.109 36.261, 152.582 36.967, 141.617 47.686 L 130.174 58.872 120.121 62.059 C 112.562 64.456, 109.662 65.866, 108.429 67.749 C 107.214 69.603, 107.095 70.441, 107.970 70.982 C 108.752 71.465, 107.823 72.764, 105.221 74.825 L 101.290 77.938 99.314 75.719 C 94.060 69.820, 91.126 60.276, 94.018 58.489 C 94.641 58.104, 94.253 56.866, 93.018 55.295 C 91.908 53.885, 91 52.186, 91 51.520 C 91 50.855, 90.136 49.528, 89.080 48.572 C 87.248 46.914, 87.108 46.930, 86.044 48.917 C 85.431 50.063, 85.260 51, 85.665 51 C 86.069 51, 85.912 51.488, 85.315 52.085 C 84.535 52.865, 83.313 52.696, 80.969 51.484 C 78.525 50.220, 77.846 50.136, 78.258 51.149 C 78.561 51.892, 79.124 53.288, 79.511 54.250 C 79.931 55.294, 79.762 56, 79.092 56 C 77.097 56, 74.008 62.377, 74.004 66.503 C 74.002 68.705, 74.900 73.654, 76 77.500 C 77.100 81.346, 78.019 86.745, 78.042 89.497 C 78.096 95.900, 81.052 108.201, 83 110.128 C 86.090 113.185, 87.806 113.049, 89.950 109.581 C 91.077 107.757, 92 105.380, 92 104.299 C 92 101.399, 92.988 100.907, 94.995 102.810 C 97.269 104.967, 100.754 119.145, 101.554 129.500 C 101.895 133.900, 102.619 138.963, 103.164 140.750 L 104.155 144 114.578 144 C 124.333 144, 125 143.872, 125 142 C 125 140.869, 125.667 140, 126.535 140 C 127.760 140, 127.854 140.404, 127 142 C 125.940 143.981, 126.240 144, 158.965 144 L 192 144 192 72 L 192 0 173.158 -0 L 154.317 -0 153.158 3.866 M 149.357 67.761 C 146.529 70.367, 143.222 74.075, 142.008 76 C 140.794 77.925, 136.179 82.916, 131.751 87.091 L 123.702 94.683 129.601 98.023 C 132.846 99.860, 136.983 102.476, 138.796 103.835 C 140.715 105.275, 142.445 105.930, 142.936 105.404 C 144.168 104.085, 156 67.584, 156 65.104 C 156 62.093, 155.130 62.441, 149.357 67.761 M 118.766 85.917 C 116.971 87.522, 115.809 89.142, 116.184 89.517 C 117.138 90.471, 118.558 89.430, 121.022 85.970 C 123.698 82.211, 122.934 82.193, 118.766 85.917 M 123 89.500 C 121.708 90.875, 121.128 92, 121.711 92 C 122.293 92, 123.507 90.875, 124.408 89.500 C 125.309 88.125, 125.889 87, 125.697 87 C 125.506 87, 124.292 88.125, 123 89.500" stroke="none" fill="black" fill-rule="evenodd"/>
</svg>