<svg xmlns="http://www.w3.org/2000/svg" width="192" height="144" viewBox="0 0 192 144" version="1.1">
	<path d="M 0 72 L 0 144 49.526 144 L 99.051 144 97.374 140.756 C 96.451 138.971, 94.231 135.259, 92.442 132.506 C 88.166 125.929, 87.457 123.422, 89.635 122.586 C 90.949 122.082, 106.094 123.235, 112.475 124.325 C 114.487 124.669, 111.468 112.349, 107.397 103.605 C 106.089 100.797, 105.012 97.150, 105.004 95.500 C 104.995 93.850, 104.283 91.150, 103.421 89.500 C 101.583 85.982, 102.122 82.042, 104.992 78.011 C 107.138 74.997, 107.641 72, 106 72 C 105.450 72, 104.994 70.313, 104.986 68.250 C 104.963 61.945, 104.056 60.348, 98.903 57.544 C 91.017 53.252, 89.052 46.709, 92.932 37.659 L 94.863 33.153 92.766 31.761 C 90.702 30.390, 90.698 30.320, 92.512 27.250 C 94.065 24.619, 94.145 23.880, 93.019 22.523 C 91.227 20.363, 92.963 18.667, 96.967 18.667 C 99.241 18.667, 100 18.208, 100 16.833 C 100 14.677, 100.380 14.596, 102.952 16.202 C 104.464 17.146, 105.396 17.126, 107.300 16.107 C 109.041 15.175, 110.255 15.102, 111.612 15.846 C 112.650 16.416, 117.243 17.588, 121.818 18.451 C 131.100 20.201, 134.350 21.612, 139.490 26.126 C 143.171 29.357, 146.267 37.459, 147.442 46.931 C 147.761 49.498, 148.909 52.338, 150.170 53.681 L 152.349 56 150.129 56 C 148.117 56, 147.973 56.341, 148.593 59.645 C 149.087 62.275, 148.957 63.091, 148.127 62.578 C 147.386 62.121, 146.747 63.013, 146.334 65.082 C 145.729 68.103, 145.607 68.183, 144.306 66.404 C 143.112 64.771, 142.791 64.716, 141.976 66.005 C 141.456 66.827, 141.024 67.838, 141.015 68.250 C 141.007 68.662, 140.100 69, 139 69 C 135.212 69, 137.008 70.774, 141.475 71.444 C 144.986 71.971, 146.600 72.905, 148.975 75.785 C 150.639 77.804, 152 80.028, 152 80.728 C 152 81.428, 152.434 82, 152.965 82 C 154.525 82, 155.944 78.501, 155.332 76.162 C 155.021 74.973, 155.157 73.998, 155.633 73.995 C 156.110 73.992, 157.837 72.921, 159.471 71.613 C 161.755 69.785, 162.190 68.921, 161.353 67.868 C 160.671 67.011, 160.309 61.204, 160.383 52.306 C 160.493 38.950, 160.388 38.124, 158.610 38.306 C 155.911 38.583, 155.469 36.303, 158.062 35.480 C 160.034 34.855, 160.179 34.315, 159.631 29.645 C 158.162 17.118, 157.738 2.280, 158.829 1.606 C 160.276 0.711, 160.720 2.658, 162.790 19 L 164.500 32.500 167.250 32.816 C 170.685 33.212, 170.849 35.570, 167.500 36.411 C 164.348 37.202, 164.291 38.780, 167.373 39.952 C 168.748 40.474, 170.040 42.025, 170.445 43.636 C 170.829 45.166, 172.311 48.803, 173.738 51.718 C 176.045 56.429, 176.219 57.513, 175.310 61.486 C 174.196 66.357, 174.412 67, 177.167 67 C 179.657 67, 179.478 67.685, 176.264 70.450 C 173.799 72.569, 173.541 73.410, 173.667 78.902 C 173.812 85.197, 172.904 86.995, 170.560 85.050 C 169.474 84.149, 168.134 86.052, 163.755 94.714 C 157.544 107, 157.385 109.781, 162.791 111.551 C 166.767 112.852, 168.158 114.196, 168.616 117.180 C 168.812 118.456, 169.256 120.737, 169.603 122.250 C 170.143 124.606, 169.919 125, 168.037 125 C 166.128 125, 165.925 125.384, 166.486 127.935 C 167.200 131.186, 167.247 131.128, 157.593 138.804 L 151.687 143.500 171.064 143.772 C 181.721 143.922, 191.017 143.824, 191.721 143.554 C 192.743 143.161, 193 128.713, 193 71.531 L 193 0 96.500 0 L 0 0 0 72 M 0.474 72.500 C 0.474 112.100, 0.598 128.154, 0.750 108.176 C 0.901 88.198, 0.901 55.798, 0.750 36.176 C 0.598 16.554, 0.474 32.900, 0.474 72.500 M 110.118 71.906 C 109.038 72.590, 109.217 72.934, 110.940 73.481 C 113.561 74.313, 118 73.370, 118 71.981 C 118 70.768, 112.005 70.711, 110.118 71.906" stroke="none" fill="black" fill-rule="evenodd"/>
</svg>