<svg xmlns="http://www.w3.org/2000/svg" width="192" height="144" viewBox="0 0 192 144" version="1.1">
	<path d="M 0 72 L 0 144 36.551 144 L 73.102 144 70.551 140.656 C 67.696 136.913, 67.380 133.709, 69.500 130 C 72.031 125.572, 71.297 122.123, 66.250 114.733 L 61.500 107.777 61.562 98.862 C 61.639 87.689, 62.512 86.534, 70.741 86.716 C 91.093 87.168, 119.603 97.757, 133.785 110.134 C 135.973 112.043, 138.169 113, 140.360 113 C 146.114 113, 149.917 118.933, 147.608 124.306 C 144.265 132.085, 138.683 134.416, 124.122 134.115 C 116.595 133.959, 114.383 134.249, 112.910 135.582 C 111.900 136.495, 110.399 136.983, 109.573 136.666 C 108.070 136.090, 104 140.652, 104 142.915 C 104 143.710, 116.432 143.948, 148.250 143.760 L 192.500 143.500 192.757 71.750 L 193.013 0 96.507 0 L 0 0 0 72 M 0.474 72.500 C 0.474 112.100, 0.598 128.154, 0.750 108.176 C 0.901 88.198, 0.901 55.798, 0.750 36.176 C 0.598 16.554, 0.474 32.900, 0.474 72.500 M 138 117.984 C 137.175 118.509, 136.500 119.964, 136.500 121.219 C 136.500 122.735, 135.939 123.458, 134.826 123.374 C 133.906 123.304, 131.656 124.826, 129.826 126.754 L 126.500 130.261 130.937 129.589 C 139.805 128.245, 145.051 123.886, 143.538 119.119 C 142.826 116.877, 140.493 116.399, 138 117.984" stroke="none" fill="black" fill-rule="evenodd"/>
</svg>