<svg xmlns="http://www.w3.org/2000/svg" width="192" height="144" viewBox="0 0 192 144" version="1.1">
	<path d="M 0 72 L 0 144 42.500 144 C 65.875 144, 85.038 143.887, 85.084 143.750 C 85.268 143.207, 86.966 104.289, 86.945 101.132 C 86.931 99.123, 85.928 96.462, 84.461 94.537 C 81.816 91.070, 81.235 86.165, 83.233 84.167 C 84.210 83.190, 83.998 82.812, 82.212 82.345 C 80.430 81.879, 80.197 81.467, 81.101 80.378 C 81.730 79.620, 82.858 79, 83.607 79 C 84.675 79, 84.834 77.704, 84.342 73 C 83.682 66.685, 83.891 66.290, 86.895 68.166 C 88.420 69.119, 89.266 68.936, 91.516 67.166 C 93.030 65.975, 94.659 65, 95.135 65 C 95.611 65, 96 82.775, 96 104.500 L 96 144 108.500 144 C 115.375 144, 120.993 143.662, 120.985 143.250 C 120.976 142.838, 120.376 140.513, 119.649 138.084 C 118.407 133.929, 118.813 126.854, 120.383 125.283 C 120.734 124.933, 121.682 125.513, 122.491 126.573 C 123.765 128.242, 124.096 128.299, 124.966 127 C 126.410 124.841, 126.228 123.025, 124.499 122.361 C 122.255 121.500, 118 112.333, 118 108.362 C 118 105.211, 117.585 104.704, 113.541 102.915 C 108.313 100.602, 107.377 99.455, 109.064 97.423 C 110.144 96.121, 110.584 96.200, 112.550 98.047 L 114.800 100.161 118.767 97.536 C 120.948 96.092, 123.570 93.356, 124.594 91.455 C 125.854 89.116, 127.170 88, 128.668 88 C 131.846 88, 132.171 89.046, 132.093 99.015 C 132.055 103.933, 132.523 109.054, 133.134 110.394 C 134.581 113.570, 137.889 114.404, 140.341 112.212 C 142.082 110.656, 142.201 109.519, 141.649 99.703 C 141.222 92.115, 141.396 88.338, 142.236 86.993 C 143.164 85.508, 143.159 84.330, 142.215 81.719 C 141.547 79.871, 141 77.003, 141 75.348 C 141 70.325, 133.034 67.771, 132.154 72.511 C 131.446 76.325, 129.895 77.155, 124.102 76.820 L 118.566 76.500 118.857 71.771 C 119.017 69.171, 118.847 66.095, 118.480 64.936 L 117.811 62.829 115.655 64.843 C 113.744 66.629, 113.280 66.695, 111.559 65.428 C 110.491 64.643, 108.219 64, 106.509 64 C 104.799 64, 102.849 63.449, 102.175 62.775 C 101.208 61.808, 100.536 61.808, 98.989 62.775 C 97.910 63.449, 96.796 64, 96.514 64 C 96.231 64, 96 49.600, 96 32 L 96 0 48 0 L 0 0 0 72 M 120.291 88.996 C 120.003 90.098, 118.972 91, 118 91 C 117.028 91, 115.998 91.900, 115.710 93 C 114.959 95.874, 117.017 95.491, 120.777 92.056 C 124.477 88.677, 124.567 88.432, 122.407 87.603 C 121.345 87.195, 120.640 87.659, 120.291 88.996 M 83.525 88.960 C 83.262 89.385, 83.937 90.538, 85.024 91.521 C 86.111 92.505, 87 93.052, 87 92.737 C 87 92.422, 87.250 91.511, 87.557 90.713 C 88.146 89.178, 84.397 87.549, 83.525 88.960" stroke="none" fill="black" fill-rule="evenodd"/>
</svg>