<svg xmlns="http://www.w3.org/2000/svg" width="192" height="144" viewBox="0 0 192 144" version="1.1">
	<path d="M 0 9.428 L 0 18.856 5.429 19.534 C 9.539 20.048, 11.389 19.841, 13.044 18.682 C 15.609 16.885, 18 17.492, 18 19.939 C 18 21.421, 18.783 21.600, 23.546 21.205 C 29.417 20.718, 31.895 22.202, 31.968 26.250 C 31.986 27.212, 32.406 28, 32.902 28 C 33.398 28, 34.298 29.417, 34.902 31.148 C 35.728 33.518, 35.699 34.658, 34.784 35.761 C 33.786 36.963, 34.190 37.740, 37.034 40.099 C 38.940 41.680, 42.075 44.505, 44 46.377 C 45.925 48.249, 48.400 50.248, 49.500 50.820 C 51.310 51.761, 51.510 52.933, 51.608 63.180 C 51.711 73.939, 51.977 75.317, 56.980 91 C 64.432 114.362, 65 116.681, 65 123.743 C 65 129.396, 64.763 130.140, 62.709 130.921 C 61.449 131.400, 59.803 132.533, 59.051 133.438 C 58.071 134.620, 56.321 135.022, 52.854 134.864 C 50.197 134.743, 47.755 134.912, 47.427 135.239 C 47.100 135.567, 46.585 137.672, 46.284 139.917 L 45.737 144 60.261 144 C 72.583 144, 74.878 143.760, 75.393 142.418 C 76.501 139.530, 76.028 137.238, 73.001 130.840 C 71.351 127.353, 69.987 123.600, 69.969 122.500 C 69.951 121.400, 69.276 119.626, 68.468 118.559 C 66.762 116.303, 66.594 112.003, 68.013 106.895 C 69.208 102.590, 71.673 99.547, 74.750 98.576 C 75.987 98.185, 77 97.446, 77 96.933 C 77 96.420, 77.711 96, 78.579 96 C 79.762 96, 80.028 95.309, 79.638 93.250 C 79.351 91.737, 78.820 86.063, 78.457 80.639 C 78.094 75.215, 77.400 69.393, 76.914 67.700 C 76.264 65.433, 76.411 64.203, 77.473 63.030 C 78.422 61.981, 79.068 58.309, 79.364 52.288 C 79.798 43.433, 79.720 43.013, 76.903 39.182 C 73.268 34.241, 69.249 31.527, 66 31.823 C 62.591 32.133, 59.812 27.588, 57.216 17.459 C 56.095 13.082, 54.619 7.925, 53.937 6 C 53.255 4.075, 52.554 1.938, 52.380 1.250 C 52.136 0.290, 46.021 0, 26.031 0 L 0 0 0 9.428 M 0 81.892 L 0 144 14.891 144 L 29.781 144 30.251 140.250 C 30.854 135.444, 29.650 134, 25.038 134 C 22.055 134, 21.099 133.512, 20.195 131.528 C 19.200 129.346, 18.508 129.082, 14.284 129.278 L 9.500 129.500 9.841 125.042 C 10.176 120.650, 12.613 115.313, 19.674 103.500 C 25.276 94.129, 30.121 84.017, 29.891 82.176 C 29.776 81.254, 30.023 79.282, 30.439 77.793 C 30.855 76.304, 30.737 73.829, 30.177 72.293 C 29.207 69.635, 29.150 69.718, 28.989 74 L 28.820 78.500 27.824 75.028 C 27.011 72.196, 26.659 71.859, 25.909 73.197 C 25.404 74.100, 24.893 76.028, 24.772 77.482 C 24.652 78.936, 23.982 80.600, 23.284 81.180 C 22.427 81.890, 22.222 83.535, 22.653 86.230 C 23.240 89.904, 23.130 90.176, 21.287 89.591 C 18.970 88.856, 17.460 90.319, 16.472 94.256 C 15.570 97.850, 14.322 97.742, 13.500 94 C 13.051 91.954, 12.239 91, 10.946 91 C 7.790 91, 6.003 85.925, 5.764 76.282 C 5.558 67.944, 5.732 67.138, 9.203 60.336 C 14.158 50.625, 15.039 47.069, 13.793 41.801 C 13.233 39.436, 12.683 35.925, 12.570 34 C 12.385 30.829, 12.113 30.530, 9.679 30.822 C 6.444 31.210, 5.084 28.697, 6.930 25.741 C 8.442 23.320, 7.001 21.500, 2.750 20.457 L 0 19.783 0 81.892 M 35.750 67.332 C 34.569 70.217, 34.792 73.608, 36.078 72.322 C 36.671 71.729, 37.009 69.951, 36.828 68.372 C 36.559 66.015, 36.366 65.828, 35.750 67.332 M 36.261 140.500 C 35.205 143.944, 35.234 144, 38.094 144 C 40.749 144, 41 143.697, 41 140.500 C 41 137.774, 40.595 137, 39.168 137 C 37.945 137, 36.978 138.164, 36.261 140.500" stroke="none" fill="black" fill-rule="evenodd"/>
</svg>