<svg xmlns="http://www.w3.org/2000/svg" width="192" height="144" viewBox="0 0 192 144" version="1.1">
	<path d="M 0 72 L 0 144 15.563 144 L 31.127 144 30.813 140.750 C 30.521 137.719, 30.223 137.480, 26.387 137.199 C 23.158 136.963, 22.036 136.376, 21.166 134.465 C 20.173 132.286, 19.531 132.063, 15.029 132.338 L 10 132.645 10 128.774 C 10 124.489, 10.897 122.462, 19.845 106.515 C 27.160 93.479, 32.006 82.223, 31.985 78.320 C 31.973 76.132, 31.752 75.836, 31 77 C 30.284 78.108, 30.027 77.469, 30.015 74.550 C 29.996 69.502, 28.797 70.858, 26.523 78.500 C 24.855 84.107, 24.474 87.727, 25.197 91.092 C 25.379 91.936, 24.829 92.389, 23.825 92.223 C 21.668 91.867, 20.974 93.070, 20.809 97.451 C 20.627 102.303, 18.346 102.007, 17.504 97.022 C 17.036 94.253, 17.313 92.078, 18.416 89.868 C 20.354 85.983, 20.440 83.836, 18.557 86.320 C 17.223 88.079, 17.144 88.079, 16.156 86.320 C 15.202 84.620, 15.091 84.614, 14.470 86.225 C 14.104 87.174, 12.497 88.603, 10.899 89.401 C 8.318 90.688, 7.814 90.671, 6.392 89.249 C 5.055 87.912, 4.890 86.078, 5.392 78.163 C 5.961 69.193, 6.269 68.162, 11.066 59.185 L 16.138 49.692 15.446 39.924 C 14.757 30.203, 14.741 30.158, 12.166 30.329 C 9.043 30.535, 8.055 27.702, 10.362 25.153 C 12.257 23.058, 11.467 21.778, 7.218 20.059 C 2.493 18.147, 4.036 17.569, 10.027 19.006 C 13.815 19.915, 15.455 19.945, 16.281 19.119 C 17.691 17.709, 21.672 17.661, 22.527 19.044 C 22.882 19.618, 22.615 20.759, 21.934 21.580 C 20.858 22.877, 21.234 22.986, 24.800 22.416 C 31.722 21.309, 34.082 22.537, 35.535 28 C 35.608 28.275, 36.236 29.850, 36.931 31.500 C 37.843 33.664, 37.912 35.272, 37.178 37.268 C 36.216 39.884, 36.628 40.503, 44.670 48.527 L 53.180 57.018 51.927 61.908 C 50.184 68.708, 51.627 76.331, 58.907 98.784 C 65.718 119.790, 67.605 131.487, 64.366 132.636 C 63.340 133, 61.492 134.206, 60.259 135.315 C 58.648 136.765, 56.540 137.355, 52.759 137.416 C 47.577 137.499, 47.495 137.547, 47.187 140.750 L 46.873 144 82.456 144 L 118.038 144 117.326 141.250 C 116.934 139.738, 116.654 137.825, 116.704 137 C 116.755 136.175, 117.129 131.194, 117.537 125.932 C 118.257 116.636, 118.210 116.307, 115.889 114.378 C 113.648 112.515, 106 99.179, 106 97.135 C 106 95.710, 99.171 85.834, 96.164 82.909 C 94.699 81.484, 91.250 79.495, 88.500 78.489 C 85.750 77.484, 82.749 76.025, 81.830 75.248 C 80.350 73.996, 80.118 74.100, 79.781 76.168 C 79.572 77.450, 79.042 75.688, 78.603 72.250 C 78.163 68.813, 77.491 66, 77.108 66 C 75.631 66, 73.938 53.876, 73.477 40 C 73.212 32.025, 72.637 22.350, 72.199 18.500 C 71.433 11.762, 71.914 5.429, 73.473 1.750 C 74.171 0.101, 72.063 0, 37.107 0 L 0 0 0 72 M 190.537 89.830 C 189.533 94.401, 189.194 104, 190.037 104 C 190.464 104, 190.577 104.900, 190.290 106 C 189.997 107.118, 190.259 108, 190.883 108 C 191.635 108, 192 104.564, 192 97.500 C 192 91.725, 191.811 87, 191.579 87 C 191.348 87, 190.879 88.273, 190.537 89.830 M 191.232 114 C 191.232 115.925, 191.438 116.713, 191.689 115.750 C 191.941 114.787, 191.941 113.213, 191.689 112.250 C 191.438 111.287, 191.232 112.075, 191.232 114 M 163.250 138.691 C 162.563 138.953, 162 140.254, 162 141.583 C 162 143.921, 162.241 144, 169.406 144 C 176.421 144, 176.784 143.890, 176.268 141.915 C 175.968 140.769, 175.222 139.682, 174.611 139.500 C 172.240 138.795, 164.437 138.239, 163.250 138.691 M 38.200 140.200 C 36.216 142.184, 36.837 144, 39.500 144 C 42.071 144, 42.445 143.324, 41.393 140.582 C 40.667 138.689, 39.813 138.587, 38.200 140.200 M 153 142 C 153 143.100, 153.408 144, 153.906 144 C 154.405 144, 154.577 143.100, 154.290 142 C 154.002 140.900, 153.594 140, 153.383 140 C 153.173 140, 153 140.900, 153 142" stroke="none" fill="black" fill-rule="evenodd"/>
</svg>