<svg xmlns="http://www.w3.org/2000/svg" width="192" height="144" viewBox="0 0 192 144" version="1.1">
	<path d="M 0 72 L 0 144 28 144 L 56 144 56 72 L 56 0 28 0 L 0 0 0 72 M 85.299 1.329 C 85.409 1.900, 84.296 2.967, 82.825 3.702 C 77.870 6.175, 78.241 9.356, 85.145 23.611 C 90.686 35.052, 91.363 37.104, 91.173 41.879 C 91.055 44.838, 90.716 47.650, 90.420 48.129 C 90.124 48.608, 85.464 49, 80.063 49 C 69.193 49, 68.148 49.513, 67.482 55.179 L 67.092 58.500 69.334 55.750 C 71.367 53.255, 72.186 53, 78.163 53 C 85.765 53, 91 53.867, 91 55.125 C 91 55.606, 89.650 56, 88 56 C 84.809 56, 80.614 59.302, 81.251 61.313 C 81.458 61.966, 83.751 63.146, 86.346 63.936 C 90.697 65.259, 91.149 65.706, 92.143 69.655 C 94.100 77.426, 97.950 77.822, 100.010 70.465 C 101.249 66.038, 101.663 65.721, 107.818 64.480 C 109.642 64.112, 111.384 63.162, 111.689 62.368 C 112.410 60.490, 109.529 57.350, 106.355 56.553 C 104.982 56.208, 104.039 55.380, 104.259 54.713 C 104.521 53.924, 107.581 53.397, 113.008 53.207 C 121.082 52.923, 121.432 53.005, 123.690 55.707 L 126.024 58.500 125.366 55.500 C 123.654 47.703, 123.688 47.728, 116.068 48.493 C 107.422 49.362, 105 48.672, 105 45.343 C 105 43.949, 104.014 42.022, 102.796 41.036 L 100.593 39.252 103.463 32.499 C 105.041 28.785, 108.349 22.802, 110.814 19.202 C 115.052 13.012, 116.229 8.797, 114.499 5.998 C 114.149 5.433, 112.319 4.324, 110.432 3.536 C 108.544 2.747, 107 1.680, 107 1.164 C 107 0.636, 102.220 0.241, 96.049 0.259 C 89.038 0.280, 85.170 0.665, 85.299 1.329 M 136 72 L 136 144 164 144 L 192 144 192 72 L 192 0 164 0 L 136 0 136 72" stroke="none" fill="black" fill-rule="evenodd"/>
</svg>