<svg xmlns="http://www.w3.org/2000/svg" width="192" height="144" viewBox="0 0 192 144" version="1.1">
	<path d="M 178.500 7.404 C 170.522 9.938, 164.448 13.830, 159.398 19.644 C 153.837 26.046, 152.213 30.123, 152.483 37 C 152.737 43.478, 153.812 45.978, 156.836 47.128 L 159.500 48.142 156.226 50.821 C 153.094 53.384, 153.022 53.599, 154.551 55.776 C 155.430 57.027, 155.955 58.602, 155.718 59.276 C 155.481 59.949, 155.726 61.625, 156.262 63 C 156.798 64.375, 157.412 66.850, 157.627 68.500 C 157.842 70.150, 158.441 71.642, 158.959 71.817 C 159.534 72.010, 159.501 73.175, 158.873 74.817 C 158.309 76.292, 157.658 82.472, 157.428 88.550 C 157.023 99.237, 154.288 113.112, 152.168 115.232 C 151.502 115.898, 150.399 115.692, 148.862 114.616 C 144.894 111.837, 144 112.518, 144 118.320 C 144 122.914, 143.541 124.177, 140.635 127.572 C 138.784 129.734, 136.253 133.865, 135.011 136.752 C 133.770 139.638, 132.359 142, 131.877 142 C 131.395 142, 131 142.450, 131 143 C 131 143.645, 141.833 144, 161.500 144 L 192 144 192 75 L 192 6 187.250 6.067 C 184.637 6.104, 180.700 6.705, 178.500 7.404 M 168.313 76.786 C 167.005 77.617, 164.696 83.029, 165.364 83.697 C 165.595 83.928, 167.457 83.418, 169.501 82.564 C 172.195 81.438, 173.051 80.574, 172.609 79.424 C 172.274 78.551, 172 77.423, 172 76.918 C 172 75.813, 169.957 75.740, 168.313 76.786" stroke="none" fill="black" fill-rule="evenodd"/>
</svg>