<svg xmlns="http://www.w3.org/2000/svg" width="192" height="144" viewBox="0 0 192 144" version="1.1">
	<path d="M 57.436 2.750 C 57.104 4.263, 56.658 6.067, 56.444 6.759 C 56.231 7.451, 56.920 8.558, 57.977 9.218 C 59.304 10.047, 59.595 10.783, 58.917 11.599 C 57.843 12.894, 57.587 17.018, 58.326 21.135 C 58.586 22.585, 58.196 24.835, 57.459 26.135 C 52.554 34.796, 51.504 42.337, 54.791 45.311 C 56.448 46.811, 56.830 46.781, 59.895 44.917 C 61.717 43.809, 63.681 43.060, 64.259 43.253 C 65.553 43.684, 67.964 51.488, 67.985 55.310 C 67.995 57.286, 66.582 59.659, 63.221 63.310 C 60.592 66.164, 57.722 70.087, 56.843 72.026 C 53.894 78.535, 46.087 88.683, 40.269 93.571 C 37.096 96.237, 33.557 99.336, 32.405 100.459 C 29.111 103.670, 23.987 111.170, 24.510 112.017 C 24.771 112.439, 25.206 114.516, 25.477 116.634 C 26.074 121.290, 28.758 125.132, 32.061 126.056 C 47.888 130.482, 51.934 131.276, 59.177 131.382 L 67.309 131.500 67.267 136.664 C 67.244 139.504, 66.922 142.316, 66.553 142.914 C 66.097 143.652, 67.944 144, 72.326 144 L 78.770 144 79.486 138.250 C 80.506 130.061, 81.371 128.824, 85.815 129.194 C 89.775 129.523, 89.947 129.856, 91.522 140.250 L 92.091 144 119.420 144 L 146.750 144 147.338 141.061 C 147.661 139.444, 147.380 132.807, 146.713 126.311 C 145.595 115.423, 145.279 91.701, 145.900 65.250 C 146.187 53.014, 144.644 46.694, 138.880 36.500 C 136.074 31.538, 134.537 30.009, 129.994 27.662 C 124.774 24.966, 123.997 24.847, 114.414 25.296 C 102.082 25.873, 98.008 27.986, 92.355 36.739 L 88.634 42.500 87.703 39 C 87.190 37.075, 86.889 33.925, 87.034 32 C 87.809 21.686, 87.515 19.839, 84.708 17.425 C 83.205 16.132, 82.052 14.720, 82.146 14.287 C 82.332 13.433, 81.558 11.182, 79.467 6.500 C 78.730 4.850, 77.888 2.712, 77.595 1.750 C 77.137 0.243, 75.740 0, 67.550 0 L 58.038 0 57.436 2.750 M 56.238 32.447 C 53.808 37.449, 53.822 37.494, 57.368 35.878 C 60.269 34.556, 61.262 31.740, 59.619 29.494 C 58.617 28.124, 58.133 28.547, 56.238 32.447 M 85.511 52.933 C 84.770 57.319, 86.832 62.937, 91.388 68.944 C 92.825 70.839, 94 72.734, 94 73.157 C 94 75.186, 98.266 85, 99.148 85 C 99.701 85, 100.030 83.300, 99.880 81.222 C 99.730 79.144, 99.985 76.833, 100.448 76.085 C 100.999 75.193, 100.604 74.171, 99.299 73.113 C 98.204 72.226, 96.282 68.899, 95.027 65.720 C 92.842 60.189, 92.819 59.857, 94.504 57.996 C 96.199 56.122, 96.168 56.014, 93.660 55.061 C 92.155 54.488, 90.787 53.001, 90.420 51.535 C 89.377 47.380, 86.302 48.256, 85.511 52.933" stroke="none" fill="black" fill-rule="evenodd"/>
</svg>