<svg xmlns="http://www.w3.org/2000/svg" width="192" height="144" viewBox="0 0 192 144" version="1.1">
	<path d="M 155.432 8.489 C 151.349 10.310, 149.787 12.355, 149.082 16.802 C 148.525 20.321, 148.051 20.717, 139.281 25 C 126.473 31.254, 119.259 38.866, 117.504 47.978 C 117.304 49.019, 116.686 50.719, 116.131 51.756 C 114.860 54.130, 116.525 61.376, 119.237 65.271 C 120.298 66.796, 122.704 68.685, 124.583 69.470 C 128.580 71.140, 128.761 72.122, 125.832 76.236 C 123.967 78.855, 123.868 79.436, 125.124 80.390 C 125.926 81.001, 127.620 83.197, 128.886 85.271 C 131.044 88.804, 131.109 89.373, 129.913 94.271 C 129.210 97.147, 128.726 100.850, 128.835 102.500 C 128.945 104.150, 128.648 107.841, 128.174 110.703 C 127.525 114.627, 127.625 116.026, 128.582 116.393 C 129.565 116.770, 129.605 117.679, 128.757 120.439 C 128.157 122.397, 127.992 124.326, 128.392 124.726 C 129.185 125.518, 135.901 118.166, 135.962 116.439 C 135.983 115.855, 136.791 114.505, 137.758 113.439 C 140.731 110.160, 142.757 106.542, 144.065 102.178 C 144.753 99.880, 145.627 98, 146.006 98 C 146.386 98, 147.489 99.757, 148.457 101.905 C 149.924 105.157, 150.025 106.394, 149.063 109.310 C 148.428 111.235, 147.963 114.540, 148.031 116.655 C 148.099 118.770, 147.902 125.787, 147.592 132.250 L 147.029 144 169.515 144 L 192 144 191.993 84.250 L 191.986 24.500 188.554 22.163 C 186.667 20.878, 183.182 19.569, 180.811 19.256 C 178.302 18.923, 175.963 17.927, 175.214 16.872 C 173.439 14.370, 164.043 8.264, 161 7.637 C 159.625 7.353, 157.119 7.737, 155.432 8.489 M 130.079 113.583 C 130.127 114.748, 130.364 114.985, 130.683 114.188 C 130.972 113.466, 130.936 112.603, 130.604 112.271 C 130.272 111.939, 130.036 112.529, 130.079 113.583" stroke="none" fill="black" fill-rule="evenodd"/>
</svg>