<svg xmlns="http://www.w3.org/2000/svg" width="192" height="144" viewBox="0 0 192 144" version="1.1">
	<path d="M 156 1.551 C 156 4.250, 149.221 6.292, 142.145 5.724 C 135.350 5.178, 134.182 5.740, 130.536 11.304 C 128.956 13.716, 129.070 15.155, 131.598 24.732 C 131.777 25.410, 133.691 26.247, 135.851 26.592 C 139.710 27.209, 142 29.774, 142 33.480 C 142 34.242, 142.859 35.138, 143.910 35.471 C 144.960 35.805, 146.376 36.748, 147.056 37.568 C 148.065 38.784, 147.891 39.487, 146.113 41.379 C 144.180 43.438, 144.107 43.844, 145.467 44.972 C 146.310 45.672, 147 47.315, 147 48.622 C 147 49.930, 147.478 51, 148.063 51 C 148.647 51, 149.028 51.788, 148.909 52.750 C 148.790 53.712, 149.034 55.286, 149.452 56.246 C 149.869 57.207, 150.276 59.124, 150.356 60.506 C 150.460 62.324, 150.915 62.848, 152 62.397 C 156.118 60.685, 156.872 60.773, 156.316 62.901 C 155.727 65.153, 156.611 65.531, 158.974 64.037 C 159.944 63.424, 160.698 63.511, 161.182 64.294 C 161.745 65.206, 162.206 65.194, 163.158 64.242 C 165.638 61.762, 167.002 62.850, 166.930 67.250 C 166.810 74.480, 166.060 75.368, 159.919 75.543 C 150.394 75.816, 146.020 77.028, 144.233 79.891 C 143.338 81.326, 142.432 82.725, 142.219 83 C 142.007 83.275, 140.408 83.500, 138.667 83.500 C 136.153 83.500, 135.435 83.960, 135.183 85.729 C 134.944 87.415, 133.846 88.217, 130.683 89.015 C 128.382 89.597, 124.500 90.698, 122.055 91.463 L 117.610 92.854 111.555 87.248 C 104.474 80.691, 89.542 68.760, 82.760 64.240 C 77.759 60.907, 61.148 55.578, 52.337 54.480 C 49.010 54.065, 46.365 54.270, 44.897 55.055 L 42.620 56.274 44.869 58.095 L 47.117 59.916 42.077 60.584 C 39.305 60.952, 36.241 61.865, 35.268 62.614 C 33.599 63.899, 33.627 64.075, 35.771 65.758 C 37.595 67.189, 37.918 68.159, 37.413 70.684 C 36.796 73.771, 39.348 80, 41.230 80 C 42.421 80, 45.981 86.222, 45.362 87.223 C 45.068 87.699, 45.372 88.743, 46.036 89.544 C 48.154 92.095, 62 91.081, 62 88.375 C 62 87.509, 63.129 87, 65.050 87 C 66.727 87, 69.476 86.288, 71.159 85.418 C 74.681 83.596, 72.699 82.237, 89.589 98.057 C 95.138 103.254, 102.111 108.831, 105.085 110.450 C 111.118 113.733, 115.386 114.111, 130 112.651 L 138.500 111.802 138.202 127.901 L 137.905 144 159.839 144 L 181.774 144 183.014 137.427 C 185.330 125.152, 186.419 122.535, 189.354 122.184 L 192 121.867 192 60.934 L 192 0 174 0 C 158.403 0, 156 0.207, 156 1.551" stroke="none" fill="black" fill-rule="evenodd"/>
</svg>