<svg xmlns="http://www.w3.org/2000/svg" width="192" height="144" viewBox="0 0 192 144" version="1.1">
	<path d="M 0 51.395 L 0 102.789 3.750 101.794 C 5.813 101.247, 10.763 100.570, 14.750 100.290 C 20.113 99.914, 22 99.411, 22 98.359 C 22 97.577, 21.370 96.695, 20.600 96.400 C 19.551 95.998, 19.406 95.063, 20.023 92.681 C 20.476 90.932, 21.145 87.166, 21.509 84.313 C 22.074 79.879, 21.881 78.879, 20.179 77.422 C 18.309 75.820, 18.278 75.468, 19.668 71.608 C 20.482 69.349, 21.130 65.034, 21.109 62.021 C 21.066 55.970, 22.964 52, 25.901 52 C 29.047 52, 30.424 54.844, 30.475 61.452 C 30.518 67.010, 30.826 67.947, 33.325 70.096 C 36.383 72.727, 36.231 75.445, 32.977 76.296 C 30.894 76.841, 30.972 78.863, 33.528 90.494 C 34.976 97.084, 34.816 97.922, 32.482 95.985 C 31.246 94.959, 30.660 94.943, 29.708 95.910 C 28.762 96.868, 28.880 97.416, 30.250 98.428 C 32.402 100.018, 32.444 100.616, 30.456 101.378 C 28.935 101.962, 9.713 103.959, 3.292 104.200 L -0 104.324 -0 124.162 L 0 144 35.885 144 L 71.770 144 73.259 141.728 C 74.077 140.479, 75.074 137.441, 75.473 134.978 C 75.872 132.515, 77.070 128.494, 78.135 126.043 C 79.730 122.370, 79.869 121.097, 78.922 118.811 C 78.270 117.238, 77.944 112.991, 78.169 109.007 C 78.431 104.383, 78.213 102.152, 77.533 102.488 C 76.965 102.769, 75.713 103.276, 74.750 103.616 C 73.788 103.955, 73 105.133, 73 106.233 C 73 107.772, 72.516 108.107, 70.901 107.684 C 69.740 107.381, 67.076 108.035, 64.940 109.148 C 60.971 111.217, 57.940 111.325, 57.306 109.420 C 57.108 108.826, 60.334 106.576, 64.475 104.420 C 74.221 99.345, 81 94.400, 81 92.365 C 81 91.115, 80.343 90.881, 78.087 91.333 C 76.258 91.698, 74.766 91.424, 74.077 90.593 C 73.474 89.866, 69.617 88.729, 65.506 88.065 C 58.822 86.987, 55.948 85.719, 57.246 84.421 C 57.491 84.175, 61.211 84.648, 65.513 85.471 C 71.408 86.599, 73.673 86.686, 74.709 85.826 C 75.741 84.970, 76.374 84.974, 77.242 85.842 C 79.374 87.974, 82.497 87.121, 84.408 83.886 C 85.486 82.061, 85.854 80.508, 85.296 80.136 C 84.772 79.786, 84.321 77.700, 84.294 75.500 C 84.267 73.300, 84.120 69.407, 83.966 66.849 C 83.768 63.552, 84.291 61.173, 85.762 58.680 C 87.690 55.412, 87.719 55.062, 86.168 53.744 C 83.668 51.619, 48.036 30, 47.034 30 C 46.557 30, 46.010 29.530, 45.819 28.956 C 45.627 28.381, 41.889 26.685, 37.513 25.187 C 31.146 23.008, 29.109 21.801, 27.322 19.150 L 25.089 15.836 28.758 10.168 C 30.776 7.051, 32.566 4.302, 32.736 4.061 C 33.378 3.149, 43.669 7.438, 47.713 10.302 C 52.124 13.426, 56.159 18.556, 57.939 23.303 C 58.926 25.934, 58.777 26.195, 55.495 27.566 C 53.573 28.370, 52.016 29.358, 52.035 29.763 C 52.054 30.169, 58.467 34.447, 66.285 39.272 C 79.526 47.443, 80.520 47.888, 80.792 45.772 C 81.524 40.064, 85.963 36, 91.465 36 C 92.876 36, 96.773 36.763, 100.125 37.695 C 107.540 39.756, 109.211 42.174, 106.723 47.247 C 105.845 49.036, 104.872 51.330, 104.559 52.345 C 104.246 53.360, 103.074 54.429, 101.954 54.722 C 99.019 55.490, 100.105 57.337, 103.955 58.125 C 107.595 58.869, 112.051 63.024, 112.265 65.874 C 112.350 66.990, 114.456 68.772, 117.701 70.471 C 123.117 73.306, 124.420 75, 121.186 75 C 120.188 75, 116.353 77.025, 112.662 79.500 C 108.972 81.975, 105.706 84, 105.405 84 C 103.805 84, 102.296 86.778, 103.108 88.229 C 103.815 89.492, 106.676 89.967, 117.020 90.539 C 124.182 90.935, 130.270 91.628, 130.549 92.079 C 131.903 94.269, 126.410 95.199, 116.217 94.504 L 105.713 93.788 107.911 96.875 C 109.120 98.572, 110.716 100.308, 111.458 100.731 C 112.200 101.154, 115.595 104.123, 119.003 107.329 L 125.199 113.159 122.850 115.675 C 121.557 117.059, 118.938 118.996, 117.029 119.981 L 113.558 121.770 113.875 130.130 C 114.049 134.728, 114.538 139.167, 114.961 139.995 C 115.384 140.823, 115.526 142.068, 115.278 142.762 C 114.918 143.767, 122.739 143.970, 153.663 143.762 L 192.500 143.500 192.758 71.750 L 193.017 0 152.258 0.001 L 111.500 0.001 118 3.974 C 122.015 6.428, 128.418 12.066, 134.747 18.723 C 140.383 24.650, 144.996 29.624, 144.997 29.776 C 145.011 31.206, 137.078 25.396, 131.392 19.812 L 124.284 12.832 123.654 15.981 C 122.900 19.750, 118.284 24.640, 114.609 25.562 C 113.153 25.928, 110.627 25.674, 108.996 24.998 C 105.403 23.510, 104.028 19.402, 103.974 10 C 103.911 -0.913, 108.781 0, 50.640 0 L 0 0 0 51.395 M 0.465 52 C 0.465 80.325, 0.593 91.913, 0.749 77.750 C 0.906 63.588, 0.906 40.413, 0.749 26.250 C 0.593 12.088, 0.465 23.675, 0.465 52 M 144.500 36 C 144.840 36.550, 145.568 37, 146.118 37 C 146.668 37, 146.840 36.550, 146.500 36 C 146.160 35.450, 145.432 35, 144.882 35 C 144.332 35, 144.160 35.450, 144.500 36 M 101.500 67 C 101.840 67.550, 102.568 68, 103.118 68 C 103.668 68, 103.840 67.550, 103.500 67 C 103.160 66.450, 102.432 66, 101.882 66 C 101.332 66, 101.160 66.450, 101.500 67 M 103.624 70.424 C 101.014 72.558, 100.829 73.111, 101.624 76.403 L 102.500 80.030 108 76.381 C 115.615 71.329, 115.596 71.360, 112.165 69.585 C 108.147 67.508, 107.059 67.614, 103.624 70.424 M 0.422 124 C 0.422 135.275, 0.568 139.887, 0.746 134.250 C 0.924 128.613, 0.924 119.388, 0.746 113.750 C 0.568 108.112, 0.422 112.725, 0.422 124 M 102.187 125.213 C 101.433 125.967, 97.994 126.408, 93.100 126.380 L 85.226 126.335 82.105 133.918 C 80.388 138.088, 78.987 142.063, 78.992 142.750 C 78.998 143.694, 82.671 144, 94 144 C 111.398 144, 110.194 145.104, 107.330 131.773 C 105.692 124.153, 104.618 122.782, 102.187 125.213" stroke="none" fill="black" fill-rule="evenodd"/>
</svg>