<svg xmlns="http://www.w3.org/2000/svg" width="192" height="144" viewBox="0 0 192 144" version="1.1">
	<path d="M 0 72 L 0 144 31 144 C 49.167 144, 62 143.620, 62 143.081 C 62 142.576, 59.047 135.797, 55.438 128.016 L 48.876 113.870 49.995 106.185 C 52.215 90.944, 51.983 91.773, 53.811 92.558 C 54.740 92.957, 56.743 93.496, 58.262 93.757 C 60.615 94.160, 61.178 93.788, 62.067 91.239 C 63.073 88.353, 68.082 83.611, 72.750 81.127 C 74.866 80.001, 75 79.300, 75 69.358 C 75 60.076, 74.805 58.861, 73.399 59.400 C 71.173 60.255, 63.796 55.973, 64.470 54.217 C 64.762 53.458, 65 52.198, 65 51.418 C 65 50.638, 65.527 50, 66.171 50 C 66.815 50, 68.155 49.265, 69.148 48.366 C 70.879 46.799, 70.850 46.610, 68.423 43.727 C 64.816 39.439, 65.403 35.308, 69.967 32.870 C 71.874 31.852, 74.066 29.777, 74.839 28.259 C 78.637 20.796, 83.273 18.148, 93.986 17.322 C 104.248 16.530, 109.536 18.377, 114.558 24.505 C 116.513 26.891, 119.403 29.293, 120.979 29.843 C 125.095 31.278, 126.484 34.322, 124.594 37.769 C 120.438 45.353, 120.512 44.688, 123.377 48.823 C 126.063 52.698, 126.101 56.637, 123.444 55.617 C 120.351 54.430, 120.015 57.513, 121.557 72.919 C 122.881 86.154, 123.423 88.682, 125.654 92.053 C 128.076 95.714, 130.416 106.884, 129.936 112.500 C 129.585 116.601, 129.762 119.564, 130.487 121.750 C 130.981 123.240, 130.832 124, 130.045 124 C 126.952 124, 126.196 126.596, 126.742 135.342 L 127.284 144.027 159.892 143.763 L 192.500 143.500 192.757 71.750 L 193.013 0 96.507 0 L 0 0 0 72 M 0.474 72.500 C 0.474 112.100, 0.598 128.154, 0.750 108.176 C 0.901 88.198, 0.901 55.798, 0.750 36.176 C 0.598 16.554, 0.474 32.900, 0.474 72.500 M 120 34.441 C 120 37.605, 121.621 38.577, 122.903 36.181 C 123.600 34.878, 123.555 33.955, 122.753 33.153 C 120.945 31.345, 120 31.788, 120 34.441 M 69.162 35.658 L 66.824 37.561 68.826 40.030 C 71.309 43.093, 72.227 42.310, 71.816 37.478 L 71.500 33.756 69.162 35.658 M 69.997 108.507 C 69.473 109.886, 68.493 110.899, 67.819 110.757 C 67.145 110.616, 66.572 111.400, 66.547 112.500 C 66.516 113.806, 65.704 114.613, 64.206 114.825 C 62.367 115.086, 62.042 115.581, 62.564 117.325 C 68.391 136.800, 68.476 137, 70.979 137 C 72.782 137, 73 136.354, 73 131.014 C 73 127.722, 72.458 123.002, 71.795 120.525 C 70.599 116.053, 70.685 115.474, 73.748 107.250 C 74.004 106.563, 73.480 106, 72.582 106 C 71.685 106, 70.522 107.128, 69.997 108.507 M 126.015 119.750 C 126.024 120.162, 126.467 121.175, 127 122 C 127.784 123.213, 127.972 123.069, 127.985 121.250 C 127.993 120.013, 127.550 119, 127 119 C 126.450 119, 126.007 119.338, 126.015 119.750" stroke="none" fill="black" fill-rule="evenodd"/>
</svg>