<svg xmlns="http://www.w3.org/2000/svg" width="192" height="144" viewBox="0 0 192 144" version="1.1">
	<path d="M 84 0.903 C 79.338 3.346, 78.055 3.815, 74.313 4.447 C 70.369 5.113, 70.202 5.291, 70.204 8.821 C 70.205 12.947, 71.797 18, 73.096 18 C 74.469 18, 76.707 23.135, 77.455 28 C 77.835 30.475, 78.377 33.315, 78.660 34.312 C 79.110 35.896, 78.732 36.040, 75.642 35.461 C 72.687 34.906, 71.694 35.215, 69.555 37.354 C 68.150 38.759, 67 40.663, 67 41.584 C 67 44.656, 72.103 57.470, 74.230 59.740 C 76.196 61.838, 76.224 62.095, 74.664 63.818 C 72.049 66.708, 72.587 70.812, 76 74 C 77.650 75.541, 79 77.527, 79 78.412 C 79 80.656, 83.027 89, 84.110 89 C 85.258 89, 85.265 87.282, 84.121 86.575 C 83.635 86.274, 83.881 83.229, 84.672 79.766 C 86.836 70.290, 87.340 64.503, 86.188 62.351 C 85.360 60.804, 85.729 59.548, 88.003 56.161 C 90.283 52.766, 90.857 50.803, 90.857 46.394 C 90.857 43.360, 91.275 40.342, 91.785 39.689 C 92.296 39.035, 93.983 35.125, 95.536 31 C 97.088 26.875, 99.566 22.289, 101.043 20.810 C 104.790 17.054, 105.936 8.737, 103.212 5.067 C 102.164 3.655, 100.226 1.944, 98.904 1.265 C 96.255 -0.097, 86.367 -0.336, 84 0.903" stroke="none" fill="black" fill-rule="evenodd"/>
</svg>