<svg xmlns="http://www.w3.org/2000/svg" width="192" height="144" viewBox="0 0 192 144" version="1.1">
	<path d="M 14.390 8.204 C 14.772 12.767, 15.355 19.761, 15.686 23.746 L 16.288 30.992 13.048 31.640 C 10.077 32.235, 9.857 32.536, 10.404 35.269 C 10.732 36.909, 11 38.869, 11 39.625 C 11 41.944, 12.553 41.153, 13.701 38.250 C 14.766 35.553, 14.789 35.546, 14.894 37.906 C 14.952 39.229, 16.113 41.771, 17.474 43.555 C 20.309 47.271, 20.002 47.783, 12.747 51.435 C 8.541 53.553, 6.690 56, 9.294 56 C 10.098 56, 11.315 56.675, 12 57.500 C 12.685 58.325, 14.120 59, 15.190 59 C 16.259 59, 18.620 60.575, 20.435 62.500 C 24.456 66.763, 26.765 66.898, 30.420 63.084 L 33.214 60.167 30.857 59.834 C 26.916 59.276, 27.283 55.712, 31.488 53.707 C 35.864 51.621, 36.888 49.399, 34.375 47.448 C 32.565 46.042, 32.589 45.913, 35.055 43.746 C 38.373 40.829, 41.403 33.844, 40.535 31.110 C 39.781 28.734, 36.159 28.247, 34.141 30.250 C 33.131 31.252, 33.014 31.153, 33.548 29.750 C 33.914 28.788, 33.753 28, 33.190 28 C 32.627 28, 31.992 28.523, 31.779 29.163 C 31.566 29.802, 30.669 30.431, 29.787 30.561 C 26.236 31.082, 29.352 20.702, 34.008 16.498 C 37.737 13.131, 42.075 7.208, 42.525 4.868 C 43.313 0.779, 41.731 0.281, 27.338 0.089 L 13.696 -0.092 14.390 8.204 M 97 72 L 97 144 129.363 144 L 161.727 144 162.939 137.750 C 163.606 134.313, 164.618 129.338, 165.188 126.696 C 165.759 124.054, 165.991 121.658, 165.706 121.372 C 165.420 121.086, 163.781 121.579, 162.064 122.467 C 158.173 124.479, 157 123.803, 157 119.548 C 157 117.507, 156.418 115.991, 155.500 115.638 C 152.153 114.354, 154.534 105.072, 159.628 99.545 C 161.633 97.370, 163.850 94.220, 164.555 92.545 C 166.726 87.385, 171.249 83.806, 175.130 84.178 C 177.304 84.386, 178.507 85.033, 178.520 86 C 178.532 86.825, 178.915 88.562, 179.373 89.860 C 180.056 91.800, 179.638 92.738, 177.025 95.124 L 173.846 98.028 176.247 100.881 C 177.567 102.450, 179.231 105.144, 179.945 106.867 C 181.509 110.643, 184 111.032, 184 107.500 C 184 106.055, 184.576 105, 185.364 105 C 186.562 105, 188 110.786, 188 115.605 C 188 117.467, 182.083 124, 180.396 124 C 178.502 124, 178.590 124.727, 181.729 135.037 L 184.457 144 188.229 144 L 192 144 192 72 L 192 0 144.500 0 L 97 0 97 72" stroke="none" fill="black" fill-rule="evenodd"/>
</svg>