<svg xmlns="http://www.w3.org/2000/svg" width="192" height="144" viewBox="0 0 192 144" version="1.1">
	<path d="M 94.701 0.699 C 93.653 0.971, 93.027 1.902, 93.201 2.929 C 93.555 5.018, 91.320 8, 89.401 8 C 88.656 8, 87.309 9.125, 86.408 10.500 C 85.507 11.875, 83.865 13, 82.760 13 C 81.037 13, 80.840 13.452, 81.382 16.162 C 81.986 19.178, 81.931 19.247, 80.179 17.662 C 77.663 15.385, 77.536 15.478, 77.239 19.817 C 77.039 22.757, 77.527 24.147, 79.370 25.878 C 81.395 27.781, 81.642 28.654, 80.981 31.586 C 80.551 33.490, 80.353 35.825, 80.540 36.774 C 80.728 37.723, 81.090 40.412, 81.345 42.750 C 81.779 46.721, 81.649 47, 79.357 47 C 78.007 47, 75.036 47.902, 72.754 49.005 C 70.472 50.107, 67.817 50.759, 66.854 50.454 C 63.137 49.274, 60.576 53.993, 56.121 70.229 C 53.490 79.815, 53.486 81.072, 56.079 83.854 C 58.614 86.576, 60.284 86.193, 68.500 81.008 C 71.800 78.925, 76.194 76.925, 78.264 76.563 L 82.029 75.904 81.430 81.702 C 81.101 84.891, 79.913 90.600, 78.790 94.390 C 76.923 100.687, 76.887 101.357, 78.374 102.189 C 80.105 103.158, 80.683 109.460, 79.129 110.420 C 78.650 110.716, 77.952 112.430, 77.578 114.229 C 76.891 117.533, 74.025 140.437, 74.009 142.750 C 74.002 143.720, 80.176 144, 101.567 144 L 129.135 144 128.430 141.750 C 127.127 137.592, 114.772 113.552, 111.245 108.312 L 107.752 103.123 111.498 93.872 C 114.802 85.710, 115.180 83.923, 114.706 78.693 L 114.168 72.766 117.451 73.298 C 119.257 73.591, 123.747 75.894, 127.430 78.416 C 136.428 84.576, 138.785 84.515, 147.021 77.905 C 150.512 75.103, 154.416 72.412, 155.697 71.925 C 156.977 71.438, 158.524 69.944, 159.134 68.605 C 159.744 67.265, 161.102 65.945, 162.151 65.671 C 163.199 65.397, 163.932 64.571, 163.779 63.836 C 163.387 61.957, 168.757 62.470, 171.033 64.530 C 173.191 66.483, 177.907 66.126, 179.296 63.905 C 179.845 63.027, 179.996 61.122, 179.632 59.670 C 178.862 56.602, 174.801 55.090, 172.487 57.011 C 171.238 58.047, 171 57.843, 171 55.734 C 171 53.656, 170.396 53.109, 167.500 52.566 C 165.575 52.205, 163.997 51.592, 163.994 51.205 C 163.983 50.068, 157.909 46.938, 156.911 47.555 C 156.410 47.865, 156 48.852, 156 49.750 C 156 51.115, 155.766 51.065, 154.571 49.441 C 153.309 47.725, 153.070 47.688, 152.515 49.118 C 151.998 50.451, 150.448 50.698, 143.694 50.520 C 133.736 50.259, 116 48.026, 116 47.035 C 116 46.639, 119.263 45.083, 123.250 43.576 C 127.237 42.070, 131.400 40.477, 132.500 40.038 C 133.600 39.599, 136.525 38.430, 139 37.441 C 145.212 34.958, 146.687 33.532, 145.064 31.577 C 143.932 30.213, 143.476 30.220, 140.728 31.641 C 136.639 33.755, 119.840 39.989, 118.215 39.995 C 117.254 39.999, 117.191 39.512, 117.965 38.066 C 119.525 35.151, 119.208 27.742, 117.413 25.179 C 115.959 23.103, 115.966 22.700, 117.501 20.358 C 121.130 14.820, 119.756 7.729, 115.379 9.408 C 114.471 9.756, 112.165 9.115, 110.239 7.979 C 108.318 6.845, 106.015 6.028, 105.123 6.164 C 102.553 6.553, 99 4.117, 99 1.965 C 99 0.023, 98.207 -0.211, 94.701 0.699 M 137 35.500 C 135.398 36.416, 135.060 36.942, 136.059 36.965 C 136.916 36.984, 138.491 36.339, 139.559 35.532 C 142.045 33.652, 140.272 33.630, 137 35.500 M 141.172 58.658 C 140.538 59.789, 138.460 60.463, 134.622 60.781 C 131.530 61.038, 129.032 61.529, 129.072 61.874 C 129.112 62.218, 130.714 63.806, 132.633 65.402 L 136.123 68.304 141.061 63.440 C 143.778 60.764, 146 58.221, 146 57.788 C 146 56.298, 142.099 57.001, 141.172 58.658" stroke="none" fill="black" fill-rule="evenodd"/>
</svg>