<svg xmlns="http://www.w3.org/2000/svg" width="192" height="144" viewBox="0 0 192 144" version="1.1">
	<path d="M 0 25.432 L 0 50.865 12.750 50.859 C 24.625 50.854, 39.828 52.637, 47.993 54.992 C 53.010 56.439, 54 56.261, 54 53.912 C 54 52.060, 53.577 51.892, 50.250 52.423 C 42.757 53.619, 42.335 50.243, 49.027 42.623 C 52.196 39.013, 52.205 38.969, 51.507 31.082 L 50.806 23.165 55.041 18.571 C 59.334 13.913, 60.564 13.061, 69.500 8.546 C 76.382 5.069, 80.282 5.272, 87.072 9.464 L 92.684 12.928 97.853 10.964 C 103.437 8.842, 108.519 8.412, 109.487 9.979 C 110.353 11.380, 108.329 14.906, 104.132 19.313 L 100.500 23.127 104.439 26.750 C 106.606 28.743, 107.891 30.536, 107.295 30.735 C 106.700 30.933, 106.442 31.975, 106.723 33.050 C 107.033 34.234, 106.203 36.356, 104.617 38.435 C 101.427 42.618, 101.386 43.348, 104.236 45.241 C 105.903 46.347, 106.211 47.079, 105.446 48.113 C 104.881 48.876, 103.560 52.136, 102.511 55.358 C 101.461 58.580, 100.016 61.440, 99.301 61.715 C 98.585 61.989, 98 63.095, 98 64.173 C 98 66.425, 96.200 70.176, 94.629 71.196 C 93.250 72.091, 92.852 71.821, 104.451 77.870 C 109.924 80.725, 114.990 82.834, 115.709 82.558 C 117.476 81.880, 134 92.634, 134 94.461 C 134 96.369, 149.320 108, 151.834 108 C 152.908 108, 154.045 108.675, 154.362 109.500 C 154.678 110.325, 155.514 111.008, 156.219 111.017 C 158.202 111.044, 161.798 115.328, 162.564 118.576 C 162.943 120.184, 164.483 122.850, 165.985 124.500 C 169.050 127.865, 178.406 140.116, 179.760 142.537 C 180.441 143.752, 181.991 144.041, 186.571 143.805 L 192.500 143.500 192.688 71.750 L 192.877 0 96.438 0 L 0 0 0 25.432 M 0.435 26 C 0.435 40.025, 0.575 45.763, 0.747 38.750 C 0.919 31.738, 0.919 20.263, 0.747 13.250 C 0.575 6.238, 0.435 11.975, 0.435 26 M 1.750 61.552 C 1.337 61.982, 1 80.708, 1 103.167 L 1 144 37.500 144 L 74 144 73.983 139.250 C 73.950 130.260, 71.974 115.609, 70.488 113.342 C 69.461 111.773, 69 108.395, 69 102.428 C 69 95.381, 68.738 93.886, 67.583 94.330 C 65.639 95.076, 64.881 92.599, 65.626 87.937 C 66.147 84.679, 65.940 83.934, 64.375 83.432 C 55.110 80.460, 49.585 75.635, 48.436 69.512 C 47.973 67.040, 47.133 65.827, 45.637 65.468 C 34.338 62.754, 27.546 61.806, 16 61.328 C 8.575 61.021, 2.163 61.122, 1.750 61.552 M 106 92.365 C 106 93.081, 106.338 94.004, 106.750 94.417 C 107.499 95.166, 107.640 95.676, 107.875 98.500 C 107.944 99.325, 108.423 100, 108.940 100 C 109.457 100, 109.733 98.763, 109.554 97.250 C 109.375 95.737, 109.177 93.986, 109.114 93.357 C 108.951 91.721, 106 90.781, 106 92.365 M 128.200 107.200 C 126.579 108.821, 126.686 110.942, 128.423 111.609 C 130.982 112.591, 130.962 114.891, 128.369 117.973 L 125.822 121 132.411 121 C 137.738 121, 139.396 120.604, 141.067 118.933 C 143.566 116.434, 142.997 115.538, 135.294 109.848 C 129.355 105.460, 129.781 105.619, 128.200 107.200 M 152.792 131.750 C 151.373 133.262, 149.909 135.931, 149.541 137.681 C 148.387 143.162, 146.664 143.759, 139.641 141.110 C 131.165 137.914, 122.548 136.077, 115.832 136.035 C 110.459 136.002, 110.054 136.176, 108.082 139.368 C 106.937 141.220, 106 143.020, 106 143.368 C 106 143.716, 120.228 144, 137.619 144 L 169.237 144 166.467 140.250 C 163.171 135.789, 156.845 129, 155.984 129 C 155.649 129, 154.212 130.238, 152.792 131.750" stroke="none" fill="black" fill-rule="evenodd"/>
</svg>