<svg xmlns="http://www.w3.org/2000/svg" width="192" height="144" viewBox="0 0 192 144" version="1.1">
	<path d="M 84.352 48.119 C 72.996 49.165, 61.396 51.799, 49 56.145 C 29.749 62.893, 17.650 66.714, 9.894 68.495 C 5.827 69.429, 1.938 70.361, 1.250 70.565 C -0.675 71.138, -0.276 75.784, 1.750 76.381 C 2.712 76.665, 9.800 78.551, 17.500 80.572 C 25.200 82.594, 38.700 86.224, 47.500 88.639 C 65.917 93.694, 78.527 95.876, 92 96.340 C 102.953 96.716, 118.472 95.608, 125 93.982 C 138.639 90.586, 142.845 89.306, 157 84.244 C 175.959 77.463, 184.344 75.067, 189.250 75.029 C 192.576 75.003, 193 74.717, 193 72.500 C 193 70.778, 192.451 70, 191.236 70 C 190.265 70, 181.153 67.481, 170.986 64.402 C 128.161 51.434, 118.590 48.923, 108.182 47.931 C 102.507 47.389, 96.432 47.062, 94.682 47.203 C 92.932 47.344, 88.283 47.756, 84.352 48.119 M 85.179 56.963 C 80.016 60.300, 79.085 61.425, 77.103 66.725 C 75.027 72.277, 74.956 73.169, 76.144 78.918 C 77.300 84.516, 77.929 85.551, 82.602 89.543 C 87.329 93.581, 88.375 94.020, 94.639 94.591 C 101.452 95.212, 101.544 95.187, 107.750 91.025 C 111.188 88.720, 114 86.114, 114 85.233 C 114 84.352, 114.922 81.727, 116.049 79.400 C 117.965 75.440, 117.997 74.930, 116.549 71.462 C 115.697 69.424, 115 66.758, 115 65.538 C 115 64.021, 113.169 61.899, 109.201 58.818 C 104.146 54.892, 102.607 54.242, 97.208 53.753 C 91.312 53.218, 90.734 53.372, 85.179 56.963 M 0.195 73.500 C 0.215 75.150, 0.439 75.704, 0.693 74.731 C 0.947 73.758, 0.930 72.408, 0.656 71.731 C 0.382 71.054, 0.175 71.850, 0.195 73.500" stroke="none" fill="black" fill-rule="evenodd"/>
</svg>