<svg xmlns="http://www.w3.org/2000/svg" width="192" height="144" viewBox="0 0 192 144" version="1.1">
	<path d="M 170 1.415 C 168.075 2.109, 166.355 3.425, 166.177 4.339 C 165.999 5.252, 165.457 6, 164.974 6 C 164.490 6, 163.625 7.687, 163.053 9.750 C 160.817 17.798, 162.336 22, 167.480 22 C 169.541 22, 170.421 22.763, 171.594 25.570 C 172.943 28.801, 173.365 29.079, 176.020 28.496 C 180 27.622, 183 28.727, 183 31.067 C 183 32.130, 183.635 33, 184.411 33 C 185.187 33, 186.958 34.350, 188.347 36 C 189.735 37.650, 191.125 39, 191.435 39 C 191.746 39, 192 30.225, 192 19.500 L 192 0 182.750 0.076 C 177.662 0.118, 171.925 0.720, 170 1.415 M 58.919 65.598 C 57.802 66.944, 58.009 68.479, 60.237 75.348 C 63.902 86.649, 64.279 89.644, 62.398 92.516 C 61.327 94.150, 61.042 95.913, 61.506 98.027 C 62.006 100.305, 61.717 101.656, 60.421 103.087 C 58.846 104.827, 58.780 105.715, 59.811 111.260 C 60.447 114.681, 61.809 118.610, 62.838 119.990 C 65.745 123.893, 76.262 130.566, 90.571 137.587 L 103.642 144 147.821 144 L 192 144 192 114 C 192 95.391, 191.634 84, 191.035 84 C 188.606 84, 180.190 87.439, 177.309 89.609 L 174.118 92.012 169.809 89.079 C 164.885 85.728, 162 82.596, 162 80.605 C 162 79.183, 159.067 78.037, 155.367 78.014 C 154.081 78.005, 153.025 77.205, 152.710 76 C 152.423 74.900, 151.804 74, 151.335 74 C 150.537 74, 140 89.382, 140 90.548 C 140 91.498, 137.689 94.073, 128.260 103.632 C 119.190 112.828, 115 115.215, 115 111.188 C 115 106.631, 102.112 73.167, 99.532 71.027 C 98.651 70.295, 97.414 70.272, 95.622 70.954 C 92.850 72.008, 92.098 75.445, 93.901 78.816 C 95.368 81.557, 96.134 89.383, 95.089 90.960 C 94.247 92.232, 93.888 92.217, 92.311 90.849 C 91.315 89.985, 88.387 88.062, 85.805 86.576 C 82.621 84.744, 81.293 83.400, 81.677 82.400 C 82.556 80.109, 79.064 77.034, 74.810 76.354 C 72.223 75.940, 70.224 74.800, 68.728 72.885 C 67.503 71.316, 65.453 68.676, 64.174 67.016 C 61.516 63.570, 60.769 63.368, 58.919 65.598" stroke="none" fill="black" fill-rule="evenodd"/>
</svg>