<svg xmlns="http://www.w3.org/2000/svg" width="192" height="144" viewBox="0 0 192 144" version="1.1">
	<path d="M 0 72 L 0 144 8 144 C 14.836 144, 16 143.755, 16 142.314 C 16 141.387, 15.039 139.606, 13.864 138.355 C 12.451 136.851, 11.727 134.786, 11.727 132.258 C 11.727 125.023, 12.039 124.646, 28.918 111.500 C 31.743 109.300, 36.349 104.672, 39.154 101.216 L 44.253 94.932 44.091 85.216 C 43.908 74.244, 43.587 73.705, 36.040 71.691 C 27.110 69.307, 22.076 60.520, 23.363 49.567 C 25.644 30.158, 42.859 14.449, 65 11.573 C 80.040 9.619, 100.223 19.588, 102.778 30.232 C 104.274 36.465, 102.909 44.601, 99.901 47.391 C 97.708 49.425, 95.315 53.962, 93.531 59.472 C 93.042 60.981, 92.700 61.132, 92.071 60.115 C 90.822 58.093, 87.014 59.719, 83 63.987 C 81.075 66.034, 78.834 67.921, 78.020 68.181 C 76.748 68.587, 76.797 69.224, 78.372 72.717 C 80.687 77.849, 80 79.932, 75.065 82.743 C 70.411 85.394, 68.356 84.899, 67.482 80.916 C 67.129 79.312, 66.387 78, 65.832 78 C 64.486 78, 65.388 83.920, 67.948 91.880 C 69.681 97.269, 70 100.859, 70 114.984 C 70 124.181, 70.289 134.476, 70.643 137.861 L 71.287 144.015 131.893 143.758 L 192.500 143.500 192.757 71.750 L 193.013 0 96.507 0 L 0 0 0 72 M 0.474 72.500 C 0.474 112.100, 0.598 128.154, 0.750 108.176 C 0.901 88.198, 0.901 55.798, 0.750 36.176 C 0.598 16.554, 0.474 32.900, 0.474 72.500 M 95.218 4.154 C 95.737 5.712, 97.974 5.984, 98.053 4.500 C 98.082 3.950, 97.355 3.345, 96.438 3.154 C 95.395 2.939, 94.938 3.313, 95.218 4.154 M 169 8.977 C 169 9.411, 169.900 10.002, 171 10.290 C 172.100 10.577, 173 10.457, 173 10.023 C 173 9.589, 172.100 8.998, 171 8.710 C 169.900 8.423, 169 8.543, 169 8.977 M 116.200 14.200 C 114.312 16.088, 114.797 17.179, 117 16 C 118.100 15.411, 119 14.495, 119 13.965 C 119 12.640, 117.646 12.754, 116.200 14.200 M 109 21 C 109 21.550, 109.450 22, 110 22 C 110.550 22, 111 21.550, 111 21 C 111 20.450, 110.550 20, 110 20 C 109.450 20, 109 20.450, 109 21 M 87.500 70 C 87.840 70.550, 89.104 70.993, 90.309 70.985 C 92.090 70.972, 92.219 70.788, 91 70 C 89.030 68.727, 86.713 68.727, 87.500 70 M 71.711 72.269 C 71.998 73.771, 72.631 75, 73.117 75 C 74.399 75, 74.201 73.658, 72.595 71.460 C 71.280 69.662, 71.223 69.715, 71.711 72.269 M 176.441 83.468 C 173.882 85.404, 176.332 85.445, 180.500 83.536 C 183.491 82.166, 183.492 82.162, 180.941 82.081 C 179.534 82.037, 177.509 82.661, 176.441 83.468 M 5.500 92 C 4.711 93.277, 8.024 93.277, 10 92 C 11.173 91.242, 10.914 91.027, 8.809 91.015 C 7.329 91.007, 5.840 91.450, 5.500 92 M 149 109.378 C 149 109.585, 149.787 110.373, 150.750 111.128 C 152.336 112.371, 152.371 112.336, 151.128 110.750 C 149.821 109.084, 149 108.555, 149 109.378 M 128 114 C 128 114.550, 128.477 115, 129.059 115 C 129.641 115, 129.840 114.550, 129.500 114 C 129.160 113.450, 128.684 113, 128.441 113 C 128.198 113, 128 113.450, 128 114 M 122 132 C 122 132.550, 122.675 133, 123.500 133 C 124.325 133, 125 132.550, 125 132 C 125 131.450, 124.325 131, 123.500 131 C 122.675 131, 122 131.450, 122 132 M 152 133.831 C 152 134.254, 152.540 135.140, 153.200 135.800 C 154.836 137.436, 156.057 137.312, 155.391 135.577 C 154.796 134.026, 152 132.586, 152 133.831" stroke="none" fill="black" fill-rule="evenodd"/>
</svg>