<svg xmlns="http://www.w3.org/2000/svg" width="192" height="144" viewBox="0 0 192 144" version="1.1">
	<path d="M 0 72 L 0 144 40.352 144 L 80.704 144 81.547 135.750 C 82.682 124.636, 82.185 91.214, 80.847 88.714 C 79.852 86.854, 79.551 86.993, 75.908 90.978 C 71.579 95.714, 71.592 95.713, 59 92.459 C 50.420 90.241, 47.697 88.894, 46.544 86.298 C 45.938 84.932, 43.957 83.688, 41.128 82.896 C 36.216 81.521, 30 76.680, 30 74.230 C 30 73.370, 30.293 72.960, 30.651 73.318 C 31.009 73.676, 31.895 73.188, 32.619 72.234 C 33.868 70.590, 33.938 70.591, 33.968 72.250 C 34.004 74.219, 35.980 74.697, 36.035 72.750 C 36.055 72.063, 36.636 72.517, 37.326 73.760 C 38.307 75.527, 38.844 75.756, 39.790 74.810 C 40.737 73.863, 41 73.867, 41 74.825 C 41 76.403, 45.378 78.127, 50.623 78.615 C 52.891 78.825, 57.291 80.123, 60.402 81.499 C 63.512 82.875, 66.832 84, 67.779 83.999 C 69.526 83.998, 75 75.501, 75 72.790 C 75 72.011, 76.387 70.052, 78.082 68.437 C 79.777 66.822, 81.764 64.073, 82.498 62.328 C 83.232 60.583, 84.996 58.394, 86.416 57.463 C 89.129 55.685, 90.066 52.377, 87.587 53.328 C 85.725 54.043, 79.403 47.861, 79.814 45.728 C 80.023 44.642, 79.237 43.847, 77.532 43.419 C 76.067 43.051, 74.261 41.471, 73.398 39.803 C 72.020 37.137, 72.023 36.381, 73.429 32.253 C 74.289 29.730, 75.768 26.809, 76.715 25.762 C 77.839 24.521, 78.331 22.615, 78.129 20.281 L 77.821 16.704 82.250 17.311 C 86.590 17.906, 86.722 17.839, 88.903 13.959 C 90.160 11.722, 91.883 10, 92.864 10 C 93.819 10, 95.121 9.479, 95.758 8.842 C 96.634 7.966, 97.303 8.007, 98.515 9.013 C 101.501 11.491, 105.165 18.867, 104.859 21.785 C 104.672 23.568, 105.393 25.685, 106.798 27.471 C 109.716 31.180, 111.639 38.011, 113.491 51.245 C 114.785 60.486, 117.437 69.978, 121.893 81.315 C 123.221 84.692, 123.349 88.334, 122.114 87.570 C 120.673 86.680, 120.068 90.898, 121.180 94.087 C 121.982 96.387, 121.745 98.758, 120.104 104.837 C 118.947 109.127, 118 113.920, 118 115.489 C 118 117.059, 117.399 119.053, 116.665 119.921 C 114.989 121.903, 113.059 135.250, 113.723 140.262 L 114.221 144.023 153.361 143.762 L 192.500 143.500 192.757 71.750 L 193.013 0 96.507 0 L 0 0 0 72 M 0.474 72.500 C 0.474 112.100, 0.598 128.154, 0.750 108.176 C 0.901 88.198, 0.901 55.798, 0.750 36.176 C 0.598 16.554, 0.474 32.900, 0.474 72.500" stroke="none" fill="black" fill-rule="evenodd"/>
</svg>