<svg xmlns="http://www.w3.org/2000/svg" width="192" height="144" viewBox="0 0 192 144" version="1.1">
	<path d="M 0 36.567 C 0 70.929, 0.106 73.103, 1.750 72.605 C 14.726 68.674, 20.940 66.335, 28.500 62.532 C 33.450 60.042, 37.782 58.004, 38.128 58.002 C 39.267 57.998, 53.352 70.103, 62.120 78.622 C 73.088 89.279, 77.299 91.252, 89.179 91.303 L 97.970 91.340 101.235 84.998 C 104.671 78.325, 109.431 74.003, 115.579 71.974 C 119.788 70.585, 119.841 69.928, 115.931 67.618 C 112.962 65.865, 112.817 65.866, 111.463 67.653 C 110.495 68.930, 110.054 69.076, 110.032 68.128 C 110.005 66.964, 109.746 66.964, 108.334 68.128 C 106.828 69.368, 106.737 69.223, 107.386 66.620 C 108.026 64.049, 107.880 63.798, 106.028 64.282 C 104.485 64.686, 104.023 64.399, 104.226 63.163 C 104.595 60.925, 100.711 60.431, 98.684 62.459 C 97.823 63.320, 96.806 66.112, 96.423 68.664 C 95.767 73.042, 91.703 79.011, 89.392 78.993 C 88.054 78.983, 84.077 72.755, 82.992 68.971 C 82.467 67.143, 82.292 63.064, 82.602 59.907 L 83.167 54.168 79.083 54.716 C 76.837 55.017, 75 54.964, 75 54.598 C 75 53.479, 80.523 48.458, 84.367 46.082 C 86.437 44.803, 88 43.037, 88 41.977 C 88 40.955, 88.450 39.840, 89 39.500 C 91.213 38.132, 89.756 36.072, 85.396 34.407 C 78.323 31.706, 77.633 30.639, 79.982 26.036 C 82.313 21.465, 87.547 16.927, 92.588 15.104 C 95.581 14.022, 96.666 14.019, 98.658 15.084 C 100.711 16.183, 101.512 16.129, 103.879 14.730 C 110.461 10.843, 126.578 10.970, 135.679 14.982 C 140.527 17.120, 142.665 20.583, 143.751 28.058 C 144.412 32.606, 144.910 33.426, 148 35.057 C 149.925 36.073, 152.339 37.157, 153.364 37.465 C 155.058 37.974, 155.093 38.229, 153.749 40.262 C 152.936 41.493, 151.311 42.644, 150.137 42.819 C 148.858 43.011, 147.759 44.112, 147.393 45.569 C 147.058 46.906, 146.117 48, 145.304 48 C 144.132 48, 143.965 48.831, 144.500 52 C 144.944 54.630, 144.803 56, 144.088 56 C 143.490 56, 143.113 56.355, 143.250 56.788 C 143.388 57.221, 142.183 58.896, 140.574 60.509 C 138.964 62.123, 137.480 62.941, 137.276 62.328 C 136.846 61.039, 133 61.777, 133 63.148 C 133 63.651, 133.688 64.327, 134.530 64.650 C 135.474 65.012, 135.838 65.935, 135.481 67.061 C 135.015 68.529, 136.229 69.533, 141.701 72.199 C 147.883 75.211, 148.787 76.056, 151.660 81.506 C 156.064 89.860, 156.581 90.307, 160.872 89.465 C 162.867 89.074, 169.029 88.625, 174.565 88.468 C 180.532 88.298, 186.066 87.581, 188.157 86.708 L 191.683 85.235 192.336 75.367 C 192.696 69.940, 192.992 50.763, 192.995 32.750 L 193 0 96.500 0 L 0 0 0 36.567 M 0.452 37 C 0.452 57.075, 0.585 65.288, 0.749 55.250 C 0.912 45.213, 0.912 28.788, 0.749 18.750 C 0.585 8.713, 0.452 16.925, 0.452 37 M 32.750 66.758 C 29.675 68.665, 29.183 71.779, 31.402 75.285 C 34.395 80.014, 34.153 83.092, 29.758 96.181 C 27.416 103.155, 25.062 109.005, 24.528 109.181 C 23.493 109.521, 22.734 106.005, 20.677 91.323 C 19.420 82.358, 19.446 82.037, 21.786 77.431 C 23.933 73.208, 23.991 72.794, 22.341 73.466 C 21.329 73.879, 17.350 75.353, 13.500 76.743 C 9.650 78.133, 6.335 79.412, 6.134 79.585 C 5.932 79.758, 6.751 82.285, 7.952 85.200 L 10.138 90.500 5.074 105 C 0.057 119.368, 0.011 119.611, 0.005 131.750 L 0 144 48 144 L 96 144 96 139.562 C 96 137.121, 96.646 132.284, 97.436 128.812 C 98.226 125.340, 99.317 118, 99.860 112.500 C 100.670 104.307, 100.599 102.305, 99.467 101.421 C 98.307 100.515, 98.353 100.076, 99.757 98.671 C 101.319 97.110, 101.014 97, 95.107 97 C 89.483 97, 88.864 97.193, 89.497 98.750 C 92.092 105.135, 92.005 106.258, 87.903 119.307 C 85.553 126.785, 83.467 131.867, 82.956 131.356 C 82.470 130.870, 81.370 125.754, 80.511 119.987 C 79.652 114.219, 78.702 108.703, 78.400 107.729 C 78.099 106.755, 79.010 103.886, 80.426 101.353 C 81.842 98.820, 83 96.426, 83 96.033 C 83 95.245, 72.083 92.583, 71.450 93.217 C 71.232 93.435, 71.518 95.291, 72.084 97.342 C 72.983 100.597, 72.594 102.720, 69.026 114.036 C 66.778 121.166, 64.563 127, 64.102 127 C 63.642 127, 62.334 121.068, 61.195 113.818 C 59.370 102.192, 59.291 100.240, 60.526 97.283 C 61.297 95.439, 62.619 93.239, 63.464 92.394 C 64.309 91.549, 65 90.294, 65 89.605 C 65 88.319, 54.068 76.599, 53.447 77.219 C 53.257 77.409, 53.586 79.473, 54.178 81.805 C 55.034 85.176, 54.940 86.911, 53.721 90.272 C 52.877 92.598, 50.940 98.438, 49.417 103.250 C 47.894 108.063, 46.326 112, 45.932 112 C 44.984 112, 44.454 109.621, 42.424 96.228 C 40.793 85.465, 40.797 84.777, 42.510 80.978 C 43.496 78.790, 44.633 77, 45.035 77 C 45.438 77, 45.986 76.163, 46.253 75.139 C 46.597 73.827, 45.324 72.059, 41.934 69.139 C 39.291 66.863, 36.762 65.012, 36.314 65.027 C 35.866 65.041, 34.263 65.820, 32.750 66.758 M 182.500 91.903 C 179.137 92.649, 179.058 93.364, 181.602 100.037 C 183.323 104.554, 183.317 104.619, 180.221 114.537 C 178.511 120.017, 176.804 125.770, 176.429 127.323 C 175.319 131.914, 174.047 129.103, 171.938 117.401 C 170.858 111.406, 169.721 105.703, 169.413 104.729 C 169.104 103.755, 169.989 100.924, 171.379 98.438 L 173.905 93.918 166.203 94.209 C 157.716 94.530, 157.954 94.240, 160.127 101.612 C 161.215 105.303, 161.027 106.840, 158.284 116.612 C 155.657 125.974, 155.298 128.656, 155.720 135.750 L 156.212 144 174.106 144 L 192 144 192 132.210 C 192 123.657, 191.355 117.368, 189.651 109.304 C 187.583 99.522, 187.463 97.803, 188.651 94.979 C 189.393 93.214, 190 91.597, 190 91.385 C 190 90.842, 186.050 91.115, 182.500 91.903" stroke="none" fill="black" fill-rule="evenodd"/>
</svg>