<svg xmlns="http://www.w3.org/2000/svg" width="192" height="144" viewBox="0 0 192 144" version="1.1">
	<path d="M 0 72 L 0 144 37.979 144 L 75.957 144 74.899 141.677 C 74.072 139.864, 74.427 137.201, 76.519 129.523 C 77.992 124.116, 79.804 117.972, 80.545 115.872 C 81.335 113.634, 81.511 111.816, 80.970 111.481 C 79.387 110.503, 80.172 101.833, 82.557 93.951 C 85.126 85.458, 87.016 74.273, 87.306 65.849 C 87.474 60.950, 87.287 60.311, 85.903 61.052 C 84.167 61.981, 82 60.473, 82 58.335 C 82 56.667, 85.223 55, 88.448 55 C 89.866 55, 91.895 54.458, 92.955 53.796 C 94.799 52.645, 97.694 53.021, 107.250 55.653 C 109.633 56.309, 109.453 59.167, 106.892 61.361 C 105.222 62.790, 104.923 63.825, 105.455 66.333 C 105.825 68.075, 106.526 73.325, 107.013 78 C 107.500 82.675, 109.023 90.100, 110.398 94.500 C 112.776 102.113, 113.066 106.413, 111.577 112 C 111.206 113.390, 111.545 116.298, 112.341 118.551 C 115.848 128.484, 118.125 139.898, 117.014 141.974 L 115.917 144.024 154.208 143.762 L 192.500 143.500 192.757 71.750 L 193.013 0 96.507 0 L 0 0 0 72 M 0.474 72.500 C 0.474 112.100, 0.598 128.154, 0.750 108.176 C 0.901 88.198, 0.901 55.798, 0.750 36.176 C 0.598 16.554, 0.474 32.900, 0.474 72.500" stroke="none" fill="black" fill-rule="evenodd"/>
</svg>