<svg xmlns="http://www.w3.org/2000/svg" width="192" height="144" viewBox="0 0 192 144" version="1.1">
	<path d="M 98.042 9.098 C 96.141 10.690, 93.900 11.882, 93.062 11.746 C 91.833 11.548, 91.535 12.733, 91.520 17.888 C 91.501 24.068, 91.413 24.285, 88.828 24.561 C 87.224 24.733, 85.937 24.277, 85.609 23.424 C 84.889 21.547, 82.092 21.597, 81.362 23.500 C 80.686 25.262, 77.876 25.476, 76.287 23.887 C 74.629 22.229, 73 23.741, 73 26.937 C 73 30.609, 75.242 32.619, 76.990 30.512 C 79.225 27.819, 80.288 28.798, 79.626 32.940 C 78.866 37.691, 79.946 38.597, 83.921 36.541 C 87.653 34.611, 89.377 34.575, 88.660 36.443 C 88.356 37.236, 88.519 39.324, 89.023 41.081 C 90.143 44.984, 86.074 58.718, 82.965 61.532 C 79.486 64.680, 80.555 67.121, 87.331 71.500 C 88.408 72.197, 89.057 74.852, 89.469 80.250 C 90.033 87.640, 89.964 88, 87.965 88 C 85.426 88, 82 89.721, 82 90.996 C 82 92.552, 86.265 96, 88.189 96 C 89.185 96, 90 96.378, 90 96.839 C 90 97.837, 85.520 100, 83.453 100 C 81.733 100, 81.537 102.137, 83.113 103.713 C 84.794 105.394, 83.244 107, 79.941 107 C 76.888 107, 75.932 108.653, 78.431 109.612 C 79.219 109.914, 81.215 109.162, 82.868 107.940 C 85.202 106.214, 86.692 105.851, 89.542 106.313 C 92.033 106.717, 93.976 106.407, 95.597 105.344 C 96.910 104.484, 98.574 104.006, 99.295 104.283 C 100.015 104.559, 102.044 104.181, 103.802 103.441 C 107.215 102.006, 108.191 98.671, 105.500 97.638 C 103.774 96.976, 103.508 93.892, 105.044 92.356 C 105.770 91.630, 105.749 89.204, 104.975 84.406 C 104.363 80.608, 103.717 72.325, 103.540 66 C 103.362 59.675, 102.659 52.475, 101.977 50 C 99.838 42.234, 100.152 38.890, 103.411 34.732 C 105.682 31.833, 106.091 30.691, 105.182 29.782 C 103.619 28.219, 103.663 19.737, 105.242 18.158 C 106.053 17.347, 106.132 16.671, 105.471 16.208 C 103.865 15.084, 102.001 10.161, 102.595 8.613 C 103.608 5.973, 101.509 6.196, 98.042 9.098 M 35.904 11.500 C 35.826 12.050, 35.834 12.890, 35.920 13.366 C 36.222 15.029, 32.876 19.096, 30.448 20.020 C 27.895 20.991, 27.290 22.443, 29 23.500 C 29.550 23.840, 30 25.201, 30 26.524 C 30 27.906, 30.851 29.385, 32 30 C 34.529 31.354, 34.607 35.395, 32.198 40.347 C 30.307 44.235, 21.503 50.988, 18.289 51.015 C 17.305 51.024, 15.835 51.451, 15.023 51.965 C 14.016 52.601, 12.997 52.402, 11.821 51.338 C 10.343 50.001, 9.374 49.951, 5.048 50.988 L 0 52.199 0 56.889 C 0 61.488, 0.101 61.638, 5.250 64.663 C 28.046 78.056, 31.254 79.746, 33.004 79.289 C 34.675 78.852, 34.840 79.212, 34.351 82.227 C 33.837 85.394, 34.213 86.038, 39.146 90.440 C 42.482 93.416, 44.015 95.400, 43.213 95.704 C 39.956 96.938, 36.212 101.096, 36.696 102.944 C 37.112 104.535, 36.528 104.980, 33.350 105.489 C 31.232 105.828, 27.553 106.547, 25.173 107.086 C 21.484 107.923, 20.361 107.768, 17.563 106.039 L 14.280 104.010 7.390 106.834 C 3.033 108.619, 0.500 110.229, 0.500 111.213 C 0.500 112.069, 5.450 117.394, 11.500 123.046 C 17.550 128.699, 25.060 135.741, 28.190 138.695 L 33.879 144.066 42.437 139.283 C 47.143 136.652, 50.995 134.036, 50.997 133.469 C 50.999 132.901, 47.400 129.596, 43 126.123 C 38.600 122.651, 35 119.622, 35 119.393 C 35 119.164, 36.728 119.253, 38.840 119.590 C 41.685 120.045, 43.756 119.655, 46.840 118.082 C 50.314 116.309, 51 115.468, 51 112.980 C 51 111.296, 51.904 109.096, 53.077 107.923 C 54.412 106.588, 54.902 105.247, 54.448 104.173 C 54.060 103.253, 53.660 101.729, 53.559 100.787 C 53.459 99.844, 52.617 98.234, 51.688 97.208 C 50.760 96.182, 50 94.963, 50 94.500 C 50 94.037, 49.360 92.947, 48.577 92.079 C 47.211 90.562, 44.070 82.921, 43.685 80.179 C 43.583 79.453, 45.244 78.249, 47.375 77.504 C 49.507 76.759, 51.737 75.663, 52.331 75.069 C 53.800 73.600, 51.860 66.362, 47.754 58 C 45.063 52.519, 44.600 50.532, 44.800 45.321 C 44.931 41.922, 44.580 38.858, 44.019 38.512 C 42.377 37.497, 42.841 36.185, 45.096 35.470 C 46.926 34.889, 47.113 34.278, 46.570 30.652 C 46.228 28.369, 45.847 25.196, 45.724 23.601 C 45.577 21.702, 44.731 20.359, 43.272 19.708 C 42.047 19.161, 40.802 17.991, 40.505 17.107 C 39.724 14.775, 36.069 10.322, 35.904 11.500 M 161 13.814 C 161 14.876, 158.962 17.624, 156.471 19.920 C 153.979 22.217, 152.223 24.551, 152.567 25.108 C 152.911 25.666, 153.263 28.588, 153.349 31.604 C 153.488 36.536, 153.276 37.144, 151.229 37.657 C 149.977 37.972, 148.359 39.077, 147.632 40.115 C 146.391 41.886, 146.116 41.904, 143.118 40.409 C 140.588 39.147, 139.623 39.068, 138.463 40.031 C 136.434 41.714, 136.613 42.804, 139.551 46.656 C 142.444 50.448, 143.940 50.740, 147.737 48.253 C 150.335 46.550, 150.383 46.557, 149.577 48.503 C 149.122 49.601, 148.389 52.075, 147.948 54 C 147.506 55.925, 146.480 60.425, 145.666 64 C 144.852 67.575, 143.900 71.625, 143.549 73 C 143.090 74.804, 143.621 76.459, 145.456 78.944 C 147.992 82.377, 148.642 85.024, 147.285 86.382 C 146.049 87.617, 144.090 96.316, 144.044 100.770 C 144.014 103.700, 144.814 106.330, 146.596 109.152 C 149.166 113.224, 148.902 114.655, 145.500 115.100 C 144.950 115.172, 144.050 115.335, 143.500 115.463 C 142.950 115.591, 141.739 115.764, 140.809 115.848 C 139.367 115.978, 139.298 116.330, 140.338 118.250 C 143.209 123.549, 144.600 125, 146.809 125 L 149.136 125 147.098 122.137 C 145.976 120.563, 145.346 118.988, 145.696 118.637 C 146.944 117.389, 151.795 118.023, 152.365 119.509 C 152.683 120.338, 154.194 121.574, 155.722 122.254 C 157.250 122.934, 159.903 124.955, 161.618 126.745 C 163.569 128.782, 165.708 130, 167.333 130 C 168.906 130, 170.351 130.788, 171 132 C 172.349 134.520, 176.605 137.362, 177.864 136.584 C 179.237 135.736, 175.800 129.197, 171.578 124.624 C 169.610 122.493, 168 119.919, 168 118.904 C 168 117.890, 166.661 116.070, 165.023 114.859 L 162.047 112.659 166.023 110.878 C 171.260 108.533, 170.978 105.179, 165.289 102.149 C 163.292 101.085, 163.141 100.464, 163.732 95.735 C 164.092 92.856, 164.295 88.185, 164.182 85.356 C 163.987 80.448, 164.139 80.116, 167.489 78.139 C 169.420 77, 171 75.372, 171 74.522 C 171 73.673, 169.193 70.331, 166.985 67.096 C 161.479 59.029, 160.296 55.436, 162.386 53.126 C 163.274 52.145, 164 50.365, 164 49.171 C 164 46.658, 166.035 46.354, 169.285 48.381 C 172.080 50.124, 184 51.386, 184 49.939 C 184 48.446, 179.326 44, 177.757 44 C 175.795 44, 168.778 40.252, 169.707 39.700 C 170.143 39.440, 173.088 38.655, 176.250 37.955 C 179.412 37.255, 182 36.303, 182 35.841 C 182 34.760, 181.661 34.791, 174.500 36.520 C 171.200 37.317, 167.403 37.976, 166.061 37.984 L 163.623 38 165.799 35.972 C 166.996 34.857, 168.177 32.945, 168.423 31.722 C 169.550 26.124, 169.801 22, 169.014 22 C 166.898 22, 162.214 16.898, 162.683 15.105 C 162.953 14.071, 162.685 12.923, 162.087 12.554 C 161.448 12.159, 161 12.677, 161 13.814 M 87.507 26.989 C 87.157 27.555, 87.558 27.723, 88.448 27.382 C 90.180 26.717, 90.497 26, 89.059 26 C 88.541 26, 87.843 26.445, 87.507 26.989 M 27.500 51.469 C 25.850 52.821, 23.993 53.944, 23.372 53.964 C 22.752 53.984, 21.728 54.622, 21.097 55.383 C 19.834 56.905, 21.486 58, 25.048 58 C 27.471 58, 34 54.900, 34 53.749 C 34 52.383, 32.013 48.999, 31.215 49.005 C 30.822 49.008, 29.150 50.117, 27.500 51.469 M 16.538 53.939 C 16.248 54.407, 16.669 55.043, 17.474 55.352 C 18.278 55.660, 19.173 55.529, 19.462 55.061 C 19.752 54.593, 19.331 53.957, 18.526 53.648 C 17.722 53.340, 16.827 53.471, 16.538 53.939 M 31 62 C 32.957 63.264, 35 63.264, 35 62 C 35 61.450, 33.763 61.007, 32.250 61.015 C 30.107 61.027, 29.831 61.245, 31 62 M 93 79.378 C 93 87.406, 94.100 89.407, 98.195 88.827 C 100.339 88.523, 100.488 88.069, 100.333 82.339 C 100.129 74.854, 98.785 72, 95.465 72 C 93.068 72, 93 72.203, 93 79.378 M 153.361 84.750 C 152.988 86.263, 152.064 88.457, 151.307 89.627 C 149.396 92.582, 147.997 97.829, 148.660 99.557 C 149.403 101.493, 158.568 101.568, 159.306 99.645 C 160.022 97.780, 159.438 84.517, 158.579 83.128 C 157.214 80.919, 154.063 81.898, 153.361 84.750 M 86.638 102.500 C 87.371 104.408, 90.059 104.423, 92.559 102.532 C 94.366 101.165, 94.208 101.061, 90.281 101.032 C 86.935 101.007, 86.182 101.310, 86.638 102.500 M 26.250 109.031 C 25.012 109.529, 24 110.238, 24 110.608 C 24 111.480, 26.745 113.628, 30.428 115.638 C 33.155 117.126, 33.445 117.112, 34.678 115.426 C 35.405 114.432, 36 112.354, 36 110.809 C 36 108.218, 35.708 108.005, 32.250 108.063 C 30.188 108.098, 27.488 108.534, 26.250 109.031" stroke="none" fill="black" fill-rule="evenodd"/>
</svg>