<svg xmlns="http://www.w3.org/2000/svg" width="192" height="144" viewBox="0 0 192 144" version="1.1">
	<path d="M 181.253 15.621 C 174.047 17.141, 164.103 21.569, 163.321 23.607 C 163.027 24.373, 162.238 25, 161.567 25 C 160.042 25, 156 29.221, 156 30.814 C 156 31.467, 155.550 32, 155 32 C 154.450 32, 154 34.250, 154 37 C 154 39.750, 154.398 42, 154.883 42 C 155.369 42, 156.031 43.010, 156.354 44.245 C 156.770 45.838, 156.049 47.600, 153.870 50.311 C 150.476 54.535, 150.633 55.333, 154.859 55.333 C 157.165 55.333, 157.942 55.950, 158.869 58.514 C 159.571 60.455, 161.381 62.429, 163.510 63.575 C 165.429 64.609, 167 65.802, 167 66.227 C 167 66.652, 167.605 67, 168.345 67 C 169.085 67, 170.440 67.829, 171.358 68.843 C 172.941 70.592, 172.726 70.920, 167.097 75.343 C 163.837 77.904, 160.343 80.003, 159.334 80.006 C 158.326 80.010, 156.326 80.625, 154.892 81.373 C 153.458 82.122, 149.752 83.050, 146.658 83.437 C 143.563 83.824, 140.773 84.558, 140.457 85.070 C 140.141 85.581, 137.920 86, 135.523 86 C 130.427 86, 128 86.760, 128 88.357 C 128 89.113, 125.206 89.538, 119.750 89.612 C 108.201 89.770, 98.917 94.015, 100.590 98.373 C 100.933 99.268, 101.841 100, 102.607 100 C 103.373 100, 104 100.460, 104 101.023 C 104 101.586, 105.220 101.248, 106.711 100.273 C 108.931 98.821, 111.224 98.548, 119.377 98.766 C 124.853 98.912, 129.937 99.533, 130.675 100.145 C 133.491 102.483, 161.930 100.439, 168.651 97.417 C 170.384 96.638, 172.071 96, 172.400 96 C 173.441 96, 188.952 88.285, 190.509 86.992 C 192.660 85.207, 192.771 14.490, 190.622 15.315 C 189.864 15.606, 188.851 15.497, 188.372 15.074 C 187.892 14.650, 184.689 14.897, 181.253 15.621" stroke="none" fill="black" fill-rule="evenodd"/>
</svg>