<svg xmlns="http://www.w3.org/2000/svg" width="192" height="144" viewBox="0 0 192 144" version="1.1">
	<path d="M 47 0.923 C 47 1.431, 45.825 3.242, 44.390 4.948 C 42.757 6.889, 41.973 8.789, 42.296 10.024 C 42.580 11.110, 42.397 12.255, 41.890 12.568 C 41.382 12.882, 41.189 13.497, 41.460 13.935 C 41.731 14.374, 41.063 15.538, 39.976 16.521 C 37.754 18.533, 37.248 25.891, 39.013 30.533 C 39.877 32.807, 39.511 34.043, 36.513 38.979 C 34.581 42.160, 33 45.009, 33 45.311 C 33 45.614, 34.013 46.005, 35.250 46.180 C 36.721 46.389, 37.402 47.088, 37.218 48.198 C 37.063 49.132, 37.851 50.385, 38.968 50.983 C 40.463 51.783, 40.991 53.051, 40.965 55.785 C 40.919 60.574, 39.803 62.465, 32.359 70.361 C 26.862 76.193, 25.462 77.106, 18.994 79.070 C 13.272 80.808, 10.716 82.270, 6.705 86.096 L 1.640 90.926 2.693 100.102 C 3.844 110.125, 3.697 109.915, 12 113.375 C 15.443 114.809, 19.979 115.370, 31.315 115.763 L 46.129 116.276 45.513 119.925 C 45.174 121.932, 45.325 125.583, 45.848 128.037 C 46.372 130.492, 47.103 135.088, 47.472 138.250 L 48.144 144 61.062 144 L 73.980 144 77.704 138.391 C 81.507 132.663, 83.045 132.563, 81.090 138.170 C 79.266 143.403, 79.595 144, 84.305 144 L 88.610 144 88.775 132.336 C 88.934 121.052, 89.030 120.577, 91.720 117.750 C 97.294 111.891, 100.506 111.741, 98.763 117.421 C 97.842 120.422, 98.081 121.550, 100.727 126.670 C 102.424 129.952, 104.047 135.013, 104.442 138.250 L 105.144 144 132.493 144 L 159.841 144 160.484 141.075 C 161.107 138.235, 159.860 121.686, 158.104 109.500 C 157.310 103.987, 157.526 98.300, 159.571 70.829 C 160.632 56.577, 158.790 47.995, 152.262 36.771 C 149.887 32.689, 147.575 30.247, 144.215 28.271 C 139.945 25.761, 138.561 25.494, 129.543 25.436 C 120.842 25.380, 119.049 25.672, 115.322 27.755 C 109.829 30.825, 100.688 42.448, 102.645 43.876 C 103.115 44.219, 103.606 46.246, 103.735 48.380 C 103.988 52.559, 105.422 55, 107.622 55 C 109.440 55, 109.362 55.943, 107.362 58.153 C 106.251 59.380, 106.034 60.371, 106.687 61.231 C 107.217 61.929, 108.196 64.412, 108.864 66.748 C 109.532 69.084, 111.009 71.862, 112.146 72.921 C 113.453 74.139, 113.915 75.329, 113.402 76.159 C 112.956 76.881, 112.709 78.846, 112.854 80.526 C 113.038 82.666, 112.351 84.409, 110.559 86.342 C 109.151 87.861, 108 89.514, 108 90.016 C 108 90.519, 107.087 91.418, 105.972 92.015 C 104.348 92.884, 103.416 92.686, 101.300 91.022 C 99.669 89.738, 98.301 89.299, 97.726 89.874 C 97.151 90.449, 96.120 90.227, 95.030 89.294 C 93.459 87.948, 93.251 85.526, 93.132 67.142 C 93.058 55.789, 93.419 44.729, 93.935 42.565 C 95.206 37.231, 93.847 34.783, 89.841 35.192 L 86.815 35.500 86.521 58.136 C 86.349 71.378, 85.794 81.545, 85.186 82.633 C 84.263 84.282, 82.776 83.080, 72.032 71.996 C 65.369 65.123, 59.672 58.524, 59.371 57.332 C 57.879 51.415, 64.684 32.333, 68.480 31.789 C 70.027 31.568, 70.573 30.623, 70.810 27.750 C 71.038 25.005, 70.734 24, 69.677 24 C 68.458 24, 67.063 21.287, 67.014 18.820 C 67.006 18.446, 68.460 18.558, 70.243 19.070 C 72.027 19.581, 76.683 20, 80.588 20 C 86.530 20, 88 19.657, 89.588 17.902 L 91.487 15.804 86.954 16.484 C 83.982 16.930, 80.197 16.606, 75.961 15.542 C 65.814 12.995, 64 12.066, 64 9.414 C 64 8.125, 63.152 6.616, 62.115 6.062 C 61.078 5.507, 59.945 3.916, 59.596 2.526 C 59.006 0.177, 58.543 -0, 52.981 -0 C 49.691 -0, 47 0.415, 47 0.923" stroke="none" fill="black" fill-rule="evenodd"/>
</svg>