<svg xmlns="http://www.w3.org/2000/svg" width="192" height="144" viewBox="0 0 192 144" version="1.1">
	<path d="M 0 35.500 C 0 55.025, 0.230 71, 0.511 71 C 0.792 71, 5.179 70.343, 10.261 69.539 C 23.975 67.371, 61.346 66, 106.736 66 C 142.611 66, 147 65.829, 147 64.434 C 147 63.573, 147.469 61.992, 148.042 60.922 C 148.879 59.358, 149.469 59.181, 151.042 60.022 C 152.119 60.599, 153 61.791, 153 62.673 C 153 64.034, 153.860 64.174, 158.708 63.604 C 161.848 63.235, 165.396 62.688, 166.594 62.387 C 168.143 61.998, 169.527 62.657, 171.392 64.670 C 173.736 67.201, 175.017 67.607, 183.506 68.509 L 193 69.517 193 34.759 L 193 0 96.500 0 L 0 0 0 35.500 M 0.451 36 C 0.451 55.525, 0.585 63.513, 0.748 53.750 C 0.912 43.988, 0.912 28.013, 0.748 18.250 C 0.585 8.488, 0.451 16.475, 0.451 36 M 45.852 75.032 C 36.695 75.426, 22.633 76.077, 14.602 76.478 L 0 77.208 0 110.609 L -0 144.010 96.250 143.755 L 192.500 143.500 192.779 111 C 192.933 93.125, 192.812 77.487, 192.510 76.250 C 192.002 74.164, 191.412 74, 184.422 74 C 179.905 74, 177.118 74.382, 177.470 74.952 C 177.794 75.475, 181.195 76.914, 185.029 78.149 L 192 80.394 192 85.697 C 192 88.614, 191.701 91, 191.335 91 C 190.969 91, 187.257 89.695, 183.085 88.101 C 178.913 86.506, 172.350 84.230, 168.500 83.042 C 164.650 81.855, 159.865 79.580, 157.866 77.988 L 154.232 75.092 153.627 78.117 C 153.143 80.536, 152.577 81.078, 150.802 80.821 C 149.394 80.617, 148.369 79.586, 147.999 78 C 147.428 75.550, 147.177 75.488, 135.458 74.886 C 119.365 74.059, 66.452 74.145, 45.852 75.032 M 0.449 110.500 C 0.449 129.200, 0.584 136.709, 0.749 127.186 C 0.913 117.663, 0.913 102.363, 0.748 93.186 C 0.583 84.009, 0.449 91.800, 0.449 110.500" stroke="none" fill="black" fill-rule="evenodd"/>
</svg>