<svg xmlns="http://www.w3.org/2000/svg" width="192" height="144" viewBox="0 0 192 144" version="1.1">
	<path d="M 16.461 4.410 C 15.989 7.562, 15.258 8.961, 13.900 9.316 C 12.510 9.679, 12.001 10.710, 12.005 13.156 C 12.012 18.355, 7.694 45.460, 6.798 45.833 C 5.361 46.433, 5.961 48.959, 7.816 50.117 C 9.353 51.077, 9.524 52.036, 8.929 56.375 C 8.542 59.194, 7.761 63.300, 7.192 65.500 C 6.623 67.700, 5.845 73.715, 5.464 78.866 C 4.846 87.194, 2.513 96.820, 0.664 98.670 C 0.299 99.035, 0 109.386, 0 121.672 L 0 144.010 96.250 143.755 L 192.500 143.500 192.539 120.500 C 192.561 107.850, 192.436 103.956, 192.261 111.846 C 191.971 124.955, 191.795 126.132, 190.222 125.494 C 189.275 125.110, 185.926 124.291, 182.780 123.675 C 175.887 122.324, 176.206 123.229, 175.078 101.806 C 174.423 89.367, 173.846 85.436, 172.088 81.446 C 169.244 74.990, 161.193 66.846, 152.750 61.881 C 149.038 59.698, 146 57.261, 146 56.467 C 146 55.672, 146.891 52.675, 147.981 49.808 C 150.314 43.669, 149.828 43.038, 142.750 43.015 C 140.137 43.007, 138 42.587, 138 42.083 C 138 41.579, 138.835 39.216, 139.855 36.833 C 142.502 30.652, 144.895 20.518, 145.865 11.379 C 146.325 7.046, 147.042 2.712, 147.458 1.750 C 148.174 0.093, 144.714 0, 82.668 0 L 17.123 0 16.461 4.410 M 55.026 42.088 C 51.809 50.149, 51.584 51.498, 53.674 50.196 C 55.116 49.297, 59.902 35.057, 58.958 34.474 C 58.564 34.230, 56.794 37.656, 55.026 42.088 M 0.429 121.500 C 0.429 134.150, 0.573 139.187, 0.747 132.694 C 0.922 126.200, 0.921 115.850, 0.746 109.694 C 0.571 103.537, 0.428 108.850, 0.429 121.500" stroke="none" fill="black" fill-rule="evenodd"/>
</svg>