<svg xmlns="http://www.w3.org/2000/svg" width="192" height="144" viewBox="0 0 192 144" version="1.1">
	<path d="M 45.526 11.564 C 43.270 13.654, 42.857 14.730, 43.288 17.387 C 43.746 20.212, 43.349 21.019, 40.304 23.449 C 36.607 26.399, 32.026 34.889, 32.010 38.822 C 31.996 42.207, 36.712 49.705, 39.287 50.392 C 43.292 51.460, 44.512 52.678, 43.182 54.281 C 42.218 55.443, 42.883 56.698, 46.690 60.894 C 50.786 65.409, 51.749 65.994, 54.194 65.457 C 58.251 64.566, 57.855 67.128, 53.392 70.652 C 51.407 72.218, 47.585 75.750, 44.898 78.500 C 40.873 82.619, 40.011 84.139, 40.006 87.128 C 40.003 89.123, 39.351 91.294, 38.558 91.952 C 37.371 92.937, 36.751 92.432, 35.051 89.100 C 33.915 86.874, 31.929 82.139, 30.637 78.580 L 28.287 72.108 33.894 71.492 C 45.562 70.209, 45.847 69.522, 35 68.820 C 29.225 68.446, 22.675 67.845, 20.444 67.484 C 17.371 66.986, 16.069 67.211, 15.072 68.413 C 13.282 70.570, 11.288 70.407, 10 68 C 9.175 66.458, 7.906 66, 4.465 66 L 0 66 0 78.953 C 0 86.767, 0.468 92.932, 1.179 94.493 C 1.827 95.915, 5.314 99.188, 8.929 101.766 C 17.689 108.014, 19 109.195, 19 110.837 C 19 111.603, 22.375 115.698, 26.500 119.937 C 30.625 124.175, 34 128.113, 34 128.687 C 34 129.261, 33.183 130.803, 32.185 132.115 C 30.839 133.883, 30.478 135.728, 30.786 139.250 L 31.201 144 60.101 144 C 87.339 144, 89 143.896, 89 142.187 C 89 139.850, 84.350 135.524, 80.500 134.280 C 77.769 133.398, 77.524 132.960, 77.771 129.406 C 77.921 127.257, 79.025 121.533, 80.226 116.685 C 82.109 109.080, 82.209 107.744, 80.954 106.951 C 78.534 105.422, 77.532 106.449, 76.860 111.147 C 75.655 119.572, 73.859 127, 73.027 127 C 71.888 127, 70 121.323, 70 117.900 C 70 116.359, 70.487 112.826, 71.083 110.049 C 72.058 105.501, 72.433 105, 74.860 105 C 76.342 105, 78.549 104.304, 79.764 103.453 C 80.978 102.602, 82.766 102.040, 83.736 102.203 C 84.900 102.399, 85.409 101.943, 85.232 100.864 C 84.935 99.047, 88.256 97.267, 88.814 98.943 C 89.008 99.524, 89.752 100, 90.467 100 C 91.182 100, 92.044 101.013, 92.383 102.250 C 92.856 103.975, 93.204 104.183, 93.875 103.143 C 94.495 102.182, 94.952 102.114, 95.444 102.910 C 95.826 103.527, 96.575 103.763, 97.109 103.433 C 97.688 103.075, 97.862 103.875, 97.540 105.416 C 97.243 106.837, 96.773 109.097, 96.496 110.439 C 96.219 111.780, 96.444 113.157, 96.996 113.498 C 97.548 113.839, 98 115.693, 98 117.618 C 98 119.543, 98.400 120.871, 98.888 120.569 C 99.376 120.267, 100.051 121.366, 100.388 123.010 C 100.725 124.655, 101.276 127.350, 101.613 129 C 102.235 132.037, 103.372 132.825, 104.500 131 C 104.840 130.450, 105.568 130, 106.118 130 C 106.668 130, 106.824 130.476, 106.465 131.057 C 105.311 132.924, 106.877 136.984, 108.510 136.358 C 109.681 135.908, 110 136.666, 110 139.893 L 110 144 150.083 144 C 172.129 144, 190.017 143.647, 189.833 143.217 C 189.539 142.525, 180.737 128.074, 175.629 119.896 L 173.758 116.901 176.534 117.598 C 179.018 118.221, 179.251 118.068, 178.749 116.147 C 178.097 113.656, 179.205 113.337, 181 115.500 C 182.868 117.751, 184 117.315, 184 114.345 C 184 111.836, 184.101 111.781, 185.829 113.345 C 188.283 115.566, 189.304 115.437, 188.035 113.066 C 186.522 110.238, 186.726 109.893, 189.500 110.589 C 192.981 111.463, 192.643 110.575, 187.846 106.247 C 185.561 104.186, 180.644 98.450, 176.919 93.500 C 167.443 80.907, 155.348 68.172, 151.231 66.452 C 148.904 65.480, 144.078 64.998, 136.628 64.992 C 130.508 64.988, 122.673 64.526, 119.217 63.965 C 112.179 62.823, 101.952 58.665, 100.706 56.440 C 100.049 55.265, 93.924 52, 92.378 52 C 92.170 52, 92 52.698, 92 53.552 C 92 55.432, 87.802 62.981, 86.750 62.992 C 85.584 63.004, 85.868 59.211, 87.062 58.813 C 87.804 58.565, 87.785 57.565, 87 55.500 C 86.355 53.804, 86.265 52.412, 86.789 52.237 C 87.292 52.069, 85.722 46.933, 83.299 40.823 C 77.876 27.147, 72.562 19.918, 65.788 17.004 C 62.506 15.592, 61 14.355, 61 13.070 C 61 11.867, 59.873 10.803, 57.851 10.098 C 52.611 8.271, 48.558 8.753, 45.526 11.564 M 82.032 63.215 C 82.003 65.709, 78.391 69.085, 77 67.919 C 76.725 67.689, 76.360 69.188, 76.190 71.250 C 76.019 73.313, 76.296 75, 76.806 75 C 77.757 75, 85 66.185, 85 65.027 C 85 64.672, 84.339 63.509, 83.532 62.441 C 82.124 60.580, 82.062 60.612, 82.032 63.215 M 16 78.783 C 16 79.213, 17.592 82.563, 19.538 86.227 C 23.021 92.787, 23.043 92.906, 21.010 93.994 C 19.001 95.070, 18.993 95.180, 20.714 98.093 C 22.533 101.172, 26.778 104.556, 27.684 103.649 C 27.965 103.368, 27.251 100.615, 26.098 97.531 C 24.944 94.448, 24 90.894, 24 89.634 C 24 87.173, 18.406 78, 16.906 78 C 16.408 78, 16 78.352, 16 78.783" stroke="none" fill="black" fill-rule="evenodd"/>
</svg>