<svg xmlns="http://www.w3.org/2000/svg" width="192" height="144" viewBox="0 0 192 144" version="1.1">
	<path d="M -0 8.219 L -0 16.437 6 10.500 C 9.300 7.234, 12 5.084, 12 5.722 C 12 6.360, 11.600 7.129, 11.112 7.431 C 10.624 7.733, 7.924 11.815, 5.112 16.504 L -0 25.028 -0 71.624 L 0 118.220 3.020 123.885 C 4.680 127.001, 8.395 132.689, 11.274 136.525 L 16.508 143.500 55.814 143.762 L 95.120 144.023 92.674 140.762 C 89.237 136.177, 86.501 130.468, 83.934 122.524 C 82.046 116.680, 81.811 114.299, 82.309 106.095 C 83.210 91.246, 87.052 82.569, 98.287 70 C 102.613 65.161, 106.010 59.206, 109.862 49.710 C 113.291 41.255, 111.919 21.762, 107.202 11.935 C 105.674 8.749, 104.890 6.422, 105.461 6.763 C 106.033 7.103, 104.804 5.721, 102.732 3.691 L 98.964 0 49.482 0 L 0 0 -0 8.219 M 176.970 1.944 C 177.543 3.014, 178.434 4.150, 178.952 4.470 C 180.220 5.254, 185.717 13.345, 189.164 19.500 L 191.964 24.500 191.982 12.250 L 192 0 183.965 0 C 176.316 0, 175.980 0.094, 176.970 1.944 M 52.235 27.425 C 48.830 30.547, 48.506 31.298, 48.573 35.935 C 48.634 40.121, 49.156 41.554, 51.526 44.027 C 54.947 47.598, 60.719 49.438, 64.267 48.089 C 65.621 47.574, 68.164 45.431, 69.918 43.326 C 72.797 39.874, 73.046 39.060, 72.465 35 C 71.483 28.129, 66.630 24, 59.535 24 C 56.870 24, 55.028 24.864, 52.235 27.425 M 130 93.160 C 123.252 95.926, 121.104 97.470, 119.137 100.970 C 115.010 108.312, 116.884 115.880, 123.788 119.761 C 131.844 124.289, 140.037 121.562, 144.572 112.844 C 147.409 107.391, 146.550 101.641, 142.257 97.348 C 140.153 95.244, 133.950 91.787, 132.782 92.068 C 132.627 92.105, 131.375 92.596, 130 93.160 M 188.139 126.407 C 186.461 129.382, 183.006 134.370, 180.463 137.493 C 173.397 146.167, 176.178 145.470, 184.514 136.477 C 190.918 129.567, 191.914 127.998, 191.954 124.750 C 191.979 122.688, 191.818 121, 191.595 121 C 191.373 121, 189.818 123.433, 188.139 126.407" stroke="none" fill="black" fill-rule="evenodd"/>
</svg>