<svg xmlns="http://www.w3.org/2000/svg" width="192" height="144" viewBox="0 0 192 144" version="1.1">
	<path d="M 0 72 L 0 144 37.500 144 L 75 144 74.985 140.250 C 74.965 135.428, 73.584 133.016, 71.842 134.758 C 69.980 136.620, 69.058 136.282, 67.934 133.328 C 66.420 129.343, 67.356 127.804, 70.554 129.020 C 73.146 130.006, 73.172 129.971, 72.631 126.259 C 72.329 124.192, 71.793 119.237, 71.440 115.250 L 70.797 108 67.399 108 C 62.881 108, 60.577 105.500, 58.505 98.350 C 57.573 95.133, 55.675 90.095, 54.287 87.155 C 52.152 82.631, 51.944 81.418, 52.931 79.253 C 53.971 76.970, 53.768 76.355, 51.048 73.550 C 49.372 71.820, 48 69.463, 48 68.311 C 48 66.839, 46.886 65.747, 44.250 64.635 C 42.188 63.766, 39.660 62.391, 38.634 61.582 C 36.825 60.155, 36.843 59.975, 39.208 55.744 C 41.134 52.298, 41.437 50.904, 40.645 49.130 C 39.938 47.547, 40.019 45.837, 40.916 43.356 C 41.729 41.107, 41.913 38.503, 41.423 36.165 C 40.459 31.566, 40.811 32.518, 37.504 25.561 C 34.534 19.315, 33.944 13.020, 35.506 4.250 L 36.263 0 18.132 0 L 0 0 0 72 M 74 2 C 74 3.100, 74.441 4, 74.980 4 C 75.518 4, 76.878 5.800, 78 8 C 79.122 10.200, 79.751 12, 79.398 12 C 79.044 12, 79.315 12.675, 80 13.500 C 81.676 15.519, 83.246 15.388, 86 13 C 87.268 11.900, 88.660 11, 89.092 11 C 90.648 11, 91.218 19.756, 89.899 23.404 C 88.190 28.130, 89.423 29.321, 95.968 29.266 C 102.504 29.210, 104.195 27.783, 103.895 22.574 C 103.766 20.333, 103.737 15.238, 103.830 11.250 C 103.977 4.998, 104.248 4, 105.800 4 C 107.655 4, 110 2.213, 110 0.800 C 110 -0.593, 92.230 -0.157, 91.662 1.250 C 91.259 2.250, 91.142 2.250, 91.079 1.250 C 91.022 0.354, 88.591 0, 82.500 0 C 74.667 0, 74 0.157, 74 2 M 116.872 1.750 C 116.802 2.712, 116.627 4.625, 116.483 6 C 116.189 8.803, 119.610 12.790, 121.062 11.338 C 121.555 10.845, 121.680 8.092, 121.340 5.221 C 120.842 1.018, 120.358 -0, 118.861 -0 C 117.804 -0, 116.945 0.756, 116.872 1.750 M 127.750 0.579 C 126.691 1.644, 126.845 9.206, 127.961 10.971 C 129.553 13.488, 130.003 11.592, 129.237 5.593 C 128.831 2.421, 128.162 0.165, 127.750 0.579 M 150.788 5.454 C 151.326 11.944, 150.480 16, 148.588 16 C 146.705 16, 146.268 17.498, 145.464 26.725 L 144.768 34.701 148.485 38.418 C 151.696 41.629, 152.273 42.920, 152.725 47.899 L 153.247 53.664 148.409 55.938 C 144.110 57.959, 143.761 58.352, 145.285 59.466 C 147.707 61.237, 147.413 63.491, 144.594 64.775 C 143.135 65.440, 141.922 67.079, 141.514 68.936 C 141.144 70.621, 140.539 72.014, 140.171 72.032 C 139.802 72.049, 138.683 72.683, 137.684 73.440 C 136.143 74.609, 136.061 75.124, 137.139 76.851 C 138.203 78.555, 138.060 79.913, 136.259 85.193 C 135.075 88.662, 133.371 94.951, 132.471 99.170 C 130.712 107.415, 129.281 109.399, 124.334 110.450 C 120.501 111.264, 120.344 111.632, 119.451 121.875 L 118.742 130.002 121.945 129.361 C 125.087 128.733, 125.141 128.785, 124.824 132.110 C 124.523 135.259, 124.270 135.482, 121.269 135.249 C 118.473 135.031, 117.956 135.367, 117.426 137.749 C 117.090 139.262, 116.601 141.287, 116.340 142.250 C 115.894 143.894, 118.164 144, 153.933 144 L 192 144 192 72 L 192 0 171.168 0 L 150.335 0 150.788 5.454 M 67.031 13.500 C 67.031 14.600, 67.467 16.175, 68 17 C 68.803 18.242, 68.969 18.156, 68.969 16.500 C 68.969 15.400, 68.533 13.825, 68 13 C 67.197 11.758, 67.031 11.844, 67.031 13.500 M 117.425 65.334 C 116.376 68.067, 117.474 83.330, 118.750 83.753 C 119.549 84.017, 120 83.166, 120 81.394 C 120 79.868, 120.533 76.040, 121.185 72.885 C 122.137 68.274, 122.113 66.841, 121.062 65.575 C 119.464 63.649, 118.107 63.559, 117.425 65.334 M 70.662 68.400 C 68.442 70.668, 67.967 71.865, 68.483 73.900 C 68.846 75.330, 69.385 77.963, 69.681 79.750 C 70.226 83.041, 72.600 84.206, 73.576 81.662 C 73.859 80.925, 73.957 76.988, 73.795 72.912 L 73.500 65.500 70.662 68.400" stroke="none" fill="black" fill-rule="evenodd"/>
</svg>