<svg xmlns="http://www.w3.org/2000/svg" width="192" height="144" viewBox="0 0 192 144" version="1.1">
	<path d="M 117.170 23.750 C 113.613 27.935, 112.916 28.349, 111.316 27.230 C 105.640 23.261, 102.906 22.767, 92.599 23.850 C 82.073 24.956, 79.518 26.086, 75.562 31.385 C 73.945 33.550, 73.500 35.637, 73.500 41.049 C 73.500 47.560, 73.316 48.118, 70.250 50.919 C 68.463 52.551, 67 54.330, 67 54.871 C 67 56.573, 72.345 60.143, 74.176 59.664 C 75.139 59.412, 76.487 59.882, 77.172 60.707 C 78.174 61.914, 78.123 62.725, 76.914 64.854 C 75.711 66.972, 75.647 67.967, 76.592 69.838 C 77.265 71.171, 78.049 71.730, 78.414 71.139 C 78.825 70.475, 80.290 70.829, 82.481 72.121 C 84.364 73.232, 86.939 73.997, 88.203 73.821 C 89.705 73.611, 90.500 74.010, 90.500 74.973 C 90.500 75.955, 88.181 77.054, 83.549 78.268 C 79.726 79.269, 76.024 80.565, 75.322 81.147 C 74.620 81.730, 72.858 84.635, 71.406 87.603 C 68.878 92.770, 68.597 93, 64.833 93 C 59.735 93, 56.155 91.078, 49 84.500 C 45.792 81.551, 41.780 78.420, 40.084 77.543 C 38.218 76.579, 37 75.169, 37 73.974 C 37 72.888, 36.727 72, 36.394 72 C 36.061 72, 32.525 75.037, 28.536 78.750 C 24.547 82.463, 16.495 88.377, 10.642 91.893 C 2.140 97, -0 98.741, -0 100.548 C -0 102.603, 0.359 102.761, 3.933 102.282 C 6.998 101.871, 8.930 102.349, 12.681 104.446 L 17.496 107.137 21.352 102.568 C 25.725 97.388, 27.545 96.907, 29.182 100.500 C 30.551 103.505, 32 103.762, 32 101 C 32 97.811, 36.354 98.444, 39.411 102.077 C 40.835 103.769, 42 105.546, 42 106.026 C 42 106.505, 43.561 106.246, 45.468 105.449 C 50.605 103.303, 53.127 103.656, 57.318 107.111 L 61.092 110.222 66.640 106.538 C 69.692 104.512, 72.458 103.125, 72.788 103.455 C 73.118 103.785, 73.282 107.395, 73.151 111.476 C 72.930 118.410, 73.079 119.005, 75.408 120.532 C 76.885 121.499, 78.738 121.901, 79.951 121.516 C 81.830 120.919, 82 121.280, 82 125.874 C 82 128.628, 81.609 131.124, 81.131 131.419 C 79.922 132.166, 78.934 139.032, 79.645 141.750 C 80.231 143.993, 80.300 144, 101.142 144 L 122.051 144 120.508 141.015 C 119.253 138.589, 119.196 137.659, 120.202 136.049 C 121.263 134.349, 121.070 133.672, 118.848 131.284 C 117.423 129.753, 115.978 127.310, 115.636 125.856 C 115.103 123.585, 115.400 123.116, 117.752 122.526 C 122.735 121.275, 123.198 120.291, 122.467 112.493 C 121.906 106.504, 122.073 105.070, 123.498 103.645 C 124.862 102.281, 124.957 101.653, 123.977 100.472 C 121.215 97.144, 127.300 99.442, 136.722 105.285 L 142.944 109.144 146.317 106.572 C 150.405 103.454, 152.242 103.368, 156.648 106.091 C 160.016 108.173, 160.039 108.174, 161.766 106.204 C 162.720 105.116, 165.007 103.733, 166.848 103.130 C 169.840 102.152, 170.252 102.247, 170.715 104.018 C 171.372 106.529, 172.191 106.524, 173.768 104 C 175.675 100.947, 177.753 101.595, 179.965 105.932 C 182.540 110.979, 183.161 111.303, 187.839 110.043 C 191.625 109.024, 191.741 108.858, 192.363 103.570 L 193.001 98.142 186.990 92.409 C 183.684 89.256, 179.398 84.294, 177.465 81.382 C 173.345 75.174, 172.214 74.278, 171.349 76.534 C 170.998 77.447, 168.761 79.031, 166.378 80.052 C 163.995 81.074, 159.448 83.578, 156.273 85.617 C 148.486 90.617, 143.765 91.911, 135.677 91.262 C 131.042 90.890, 129 91.074, 129 91.863 C 129 92.488, 128.414 93, 127.698 93 C 126.981 93, 125.595 90.775, 124.617 88.056 C 121.997 80.769, 119.234 78.500, 111.399 77.202 C 107.753 76.598, 104.514 75.848, 104.202 75.535 C 103.474 74.807, 105.699 72.557, 107.288 72.414 C 107.955 72.354, 109.257 72.236, 110.183 72.152 C 111.108 72.069, 112.128 71.173, 112.449 70.162 C 112.863 68.857, 113.898 68.375, 116.016 68.501 C 119.043 68.681, 119.927 67.691, 117.872 66.421 C 117.107 65.948, 117.296 65.414, 118.455 64.765 C 120.039 63.879, 120.012 63.642, 118.088 61.594 C 116.272 59.660, 116.166 59.046, 117.254 56.742 C 117.939 55.290, 119.287 53.897, 120.250 53.645 C 122.755 52.990, 122.409 50.467, 119.500 48.179 C 115.988 45.416, 116.378 44.719, 121 45.500 C 125.219 46.213, 125.641 45.621, 125.061 39.803 C 124.961 38.792, 126.227 37.428, 128.196 36.426 C 130.013 35.502, 131.670 34.595, 131.878 34.412 C 132.085 34.228, 130.173 31.762, 127.628 28.931 C 124.849 25.840, 123 22.828, 123 21.392 C 123 17.898, 121.697 18.425, 117.170 23.750 M 0.195 100.500 C 0.215 102.150, 0.439 102.704, 0.693 101.731 C 0.947 100.758, 0.930 99.408, 0.656 98.731 C 0.382 98.054, 0.175 98.850, 0.195 100.500" stroke="none" fill="black" fill-rule="evenodd"/>
</svg>