<svg xmlns="http://www.w3.org/2000/svg" width="192" height="144" viewBox="0 0 192 144" version="1.1">
	<path d="M 93.677 89.721 C 83.549 99.850, 83.600 99.781, 83.600 103.405 C 83.600 108.911, 90.369 115, 96.490 115 C 99.973 115, 106.633 111.500, 108.407 108.737 C 110.426 105.594, 109.994 95.236, 107.709 92 C 106.398 90.143, 105.737 89.830, 105.142 90.784 C 104.002 92.609, 101.175 91.234, 100.808 88.676 C 100.319 85.259, 97.762 85.634, 93.677 89.721 M 103.405 94.858 C 105.443 97.150, 106 97.446, 106 96.241 C 106 95.823, 104.987 94.859, 103.750 94.099 C 101.508 92.722, 101.507 92.724, 103.405 94.858" stroke="none" fill="black" fill-rule="evenodd"/>
</svg>