<svg xmlns="http://www.w3.org/2000/svg" width="192" height="144" viewBox="0 0 192 144" version="1.1">
	<path d="M 83.418 18.969 C 78.280 21.048, 72.808 32.730, 74.684 37.618 C 75.145 38.820, 74.059 40.391, 70.916 43.072 L 66.500 46.838 68.924 49.419 C 70.258 50.839, 72.122 52, 73.067 52 C 75.402 52, 76.258 54.671, 74.773 57.322 C 73.116 60.283, 73.052 64.194, 74.671 63.573 C 75.367 63.306, 76.221 63.548, 76.569 64.112 C 76.917 64.675, 77.776 64.916, 78.477 64.647 C 79.178 64.378, 80.213 65.173, 80.778 66.412 C 81.522 68.045, 82.659 68.667, 84.903 68.667 C 90.736 68.667, 90.216 71.566, 84.215 72.502 C 73.227 74.215, 71.638 75.526, 67.537 86.265 C 65.944 90.436, 64 92.568, 64 90.145 C 64 89.675, 60.884 89.029, 57.075 88.710 C 48.942 88.028, 46.537 86.900, 38.500 79.998 C 35.200 77.164, 30.813 73.971, 28.750 72.902 C 26.334 71.650, 25 70.255, 25 68.980 C 25 65.771, 23.632 66.617, 17.284 73.750 C 13.980 77.463, 8.761 82.300, 5.687 84.500 L 0.096 88.500 0.048 94.034 C 0.004 99.106, 0.243 99.712, 2.904 101.284 C 7.181 103.811, 8.288 103.464, 11.787 98.500 C 15.416 93.352, 16.581 92.987, 18.182 96.500 C 19.551 99.505, 21 99.762, 21 97 C 21 95.836, 21.667 95, 22.596 95 C 24.893 95, 29.774 98.713, 30.506 101.018 C 31.087 102.849, 31.328 102.882, 34.015 101.492 C 38.584 99.130, 42.502 99.624, 46.409 103.055 C 50.352 106.516, 48.908 106.895, 61.918 98.990 C 68.071 95.251, 71.415 94.591, 68.911 97.608 C 67.977 98.733, 68.091 99.444, 69.450 100.944 C 70.891 102.537, 71.058 103.941, 70.467 109.464 C 69.869 115.043, 70.036 116.383, 71.534 118.038 C 72.511 119.117, 74.365 120, 75.655 120 C 77.572 120, 78 120.526, 78 122.878 C 78 124.728, 77.197 126.319, 75.750 127.334 C 73.934 128.607, 73.767 129.092, 74.881 129.846 C 76.902 131.213, 76.873 134.981, 74.810 139.210 C 73.815 141.251, 73 143.163, 73 143.460 C 73 143.757, 83.325 144, 95.944 144 L 118.888 144 116.935 139.587 C 115.406 136.130, 115.204 134.593, 116.002 132.494 C 116.863 130.229, 116.632 129.352, 114.511 126.830 C 111.100 122.777, 111.345 121.515, 115.750 120.426 L 119.500 119.499 119.500 111.500 C 119.500 105.557, 119.940 102.878, 121.212 101.082 L 122.924 98.663 128.111 102.294 C 133.276 105.910, 133.308 105.917, 135.898 104.094 C 140.447 100.892, 142.394 100.778, 146.382 103.484 C 150.316 106.154, 152 106.616, 152 105.026 C 152 103.609, 157.477 101, 160.450 101 C 162.050 101, 163 101.559, 163 102.500 C 163 103.659, 163.462 103.538, 165.032 101.968 C 167.641 99.359, 169.339 100.297, 172.419 106.050 L 174.801 110.500 181.151 110.525 C 184.643 110.539, 188.512 110.906, 189.750 111.342 C 191.829 112.075, 191.999 111.845, 191.993 108.317 C 191.986 104.891, 191.209 103.734, 184.409 97.028 C 180.241 92.919, 174.353 85.831, 171.324 81.278 C 165.925 73.165, 164 71.408, 164 74.594 C 164 75.470, 162.988 76.443, 161.750 76.756 C 160.512 77.069, 154.799 79.780, 149.054 82.780 C 139.998 87.509, 137.857 88.235, 132.962 88.235 C 125.109 88.235, 123.539 87.522, 121.515 83.032 C 119.056 77.580, 116.297 75.299, 110.623 74.028 C 102.521 72.212, 98.693 69.125, 105.010 69.501 C 106.666 69.599, 108.521 69.077, 109.133 68.340 C 109.744 67.603, 110.865 67, 111.622 67 C 112.380 67, 113 66.495, 113 65.878 C 113 65.147, 113.585 65.235, 114.673 66.128 C 116.164 67.350, 116.284 67.254, 115.767 65.250 C 115.314 63.492, 115.610 63, 117.124 63 C 118.990 63, 118.983 62.895, 116.912 60.095 C 114.900 57.374, 115.007 54.268, 117.069 55.543 C 117.581 55.859, 118 55.161, 118 53.992 C 118 52.320, 118.428 52.001, 120 52.500 C 121.637 53.020, 122 52.680, 122 50.626 C 122 49.247, 121.550 47.840, 121 47.500 C 120.450 47.160, 120 46.389, 120 45.786 C 120 45.183, 120.927 45.529, 122.061 46.555 C 123.825 48.152, 124.255 48.210, 125.046 46.960 C 125.554 46.157, 125.976 44.066, 125.985 42.313 C 125.999 39.231, 126.116 39.144, 129.500 39.694 C 133.255 40.303, 133.826 39.592, 131.604 37.079 C 130.096 35.372, 127 26.871, 127 24.434 C 127 21.938, 124.468 21.771, 120.492 24.005 L 116.721 26.122 113.611 23.195 C 111.900 21.585, 108.970 19.758, 107.101 19.134 C 103.195 17.831, 86.519 17.715, 83.418 18.969" stroke="none" fill="black" fill-rule="evenodd"/>
</svg>