<svg xmlns="http://www.w3.org/2000/svg" width="192" height="144" viewBox="0 0 192 144" version="1.1">
	<path d="M 104.250 29.031 C 103.013 29.529, 102 30.400, 102 30.968 C 102 31.535, 101.452 31.887, 100.783 31.750 C 100.114 31.613, 98.759 33.075, 97.772 35 C 95.669 39.099, 96.206 43.674, 99.080 46.160 C 100.136 47.073, 101 48.233, 101 48.736 C 101 49.891, 105.036 53.604, 106.916 54.178 C 108.057 54.527, 107.990 54.891, 106.572 56.055 C 102.204 59.640, 99.971 62.483, 100.481 63.812 C 100.786 64.605, 100.562 65.822, 99.986 66.517 C 99.409 67.213, 98.838 69.180, 98.718 70.889 C 98.577 72.894, 97.968 73.991, 97 73.983 C 93.829 73.955, 92.598 72.124, 92.442 67.202 C 92.356 64.490, 91.970 61.760, 91.584 61.135 C 90.499 59.380, 86.176 59.794, 85.171 61.750 C 83.634 64.739, 82.882 79.364, 84.087 82.820 C 84.959 85.322, 84.856 86.974, 83.596 90.673 C 81.439 97.003, 81.515 100, 83.831 100 C 84.838 100, 86.242 101.083, 86.950 102.406 C 87.658 103.729, 89.302 105.016, 90.602 105.264 C 92.595 105.645, 92.884 105.385, 92.440 103.608 C 91.995 101.825, 92.383 101.484, 94.957 101.394 C 96.766 101.330, 98 101.789, 98 102.525 C 98 103.206, 95.525 111.479, 92.500 120.910 C 89.475 130.342, 87 139.395, 87 141.029 L 87 144 113.607 144 C 137.536 144, 140.152 143.840, 139.603 142.407 C 139.267 141.531, 138.743 139.619, 138.439 138.157 C 136.884 130.674, 135.315 125.921, 132.448 120.010 C 130.711 116.430, 128.268 110.575, 127.020 107 C 125.772 103.425, 123.141 97.594, 121.173 94.042 C 118.052 88.408, 117.625 86.826, 117.830 81.644 C 117.959 78.378, 118.376 75.209, 118.757 74.602 C 119.138 73.996, 119.332 72.781, 119.188 71.903 C 119.044 71.025, 119.618 69.732, 120.463 69.031 C 122.184 67.602, 122.586 60.480, 121 59.500 C 119.709 58.702, 119.693 54, 120.981 54 C 123.761 54, 122.554 39.134, 119.373 34.202 C 116.130 29.174, 109.519 26.913, 104.250 29.031 M 97 85.057 C 97 86.739, 97.537 90.226, 98.193 92.807 C 99.268 97.032, 99.457 97.251, 100.094 95 C 101.248 90.917, 101.088 84.488, 99.800 83.200 C 97.847 81.247, 97 81.808, 97 85.057" stroke="none" fill="black" fill-rule="evenodd"/>
</svg>