<svg xmlns="http://www.w3.org/2000/svg" width="192" height="144" viewBox="0 0 192 144" version="1.1">
	<path d="M 95.500 1.862 C 96.238 3.784, 91.210 9.018, 89.321 8.293 C 88.503 7.979, 87.223 8.665, 86.380 9.869 C 85.558 11.041, 84.264 12, 83.502 12 C 81.537 12, 80.570 13.970, 81.887 15.287 C 83.942 17.342, 83.025 18.332, 80.852 16.405 L 78.704 14.500 79.366 18.764 C 79.730 21.109, 80.857 23.857, 81.870 24.870 C 83.479 26.479, 83.582 27.347, 82.689 31.709 C 81.859 35.762, 81.976 37.482, 83.308 40.812 L 84.951 44.919 81.226 45.541 C 79.177 45.884, 77.050 46.289, 76.500 46.443 C 75.950 46.597, 73.774 45.856, 71.665 44.797 C 66.857 42.384, 61.349 42.266, 56.693 44.476 C 51.704 46.843, 47.705 50.716, 48.663 52.254 C 49.089 52.939, 49.513 55.075, 49.605 57 C 49.698 58.925, 50.474 63.425, 51.331 67 C 52.188 70.575, 53.166 75.220, 53.504 77.323 C 53.998 80.397, 54.735 81.406, 57.266 82.470 C 61.013 84.045, 62.994 83.438, 70.620 78.377 C 74.992 75.475, 82.854 72.405, 83.607 73.305 C 83.920 73.680, 81.162 89.544, 79.960 94.281 C 78.890 98.499, 78.953 99.291, 80.497 100.996 C 81.593 102.208, 82.035 103.783, 81.680 105.215 C 78.761 116.975, 78.131 121.087, 77.612 131.750 L 77.017 144 105.960 144 L 134.903 144 133.699 141.250 C 133.037 139.737, 130.884 136.021, 128.915 132.992 C 125.473 127.698, 122.876 123.283, 116.857 112.500 C 115.322 109.750, 112.926 106.193, 111.533 104.594 C 108.764 101.418, 108.583 100.866, 109.849 99.450 C 112.173 96.849, 116 83.481, 116 77.962 C 116 72.512, 116.196 71.989, 118.446 71.424 C 120.223 70.978, 122.482 71.792, 126.715 74.405 C 134.678 79.320, 137.486 79.161, 144.168 73.416 C 147.101 70.896, 151.188 67.961, 153.250 66.896 C 155.313 65.831, 157 64.309, 157 63.515 C 157 62.720, 157.900 61.589, 159 61 C 160.100 60.411, 161 59.045, 161 57.965 C 161 55.505, 161.684 55.510, 165.774 58.004 C 170.270 60.745, 173.770 60.599, 175.130 57.613 C 176.775 54.003, 174.358 49.598, 170.493 49.163 C 168.847 48.978, 167.140 48.191, 166.700 47.413 C 166.260 46.636, 164.559 46, 162.919 46 C 161.191 46, 159.695 45.369, 159.362 44.500 C 159.045 43.675, 157.934 43, 156.893 43 C 155.852 43, 155 42.550, 155 42 C 155 41.450, 154.100 41, 153 41 C 151.900 41, 151 41.408, 151 41.906 C 151 42.405, 150.100 42.577, 149 42.290 C 147.621 41.929, 147 42.259, 147 43.352 C 147 44.395, 146.452 44.727, 145.399 44.323 C 144.519 43.985, 143.506 44.176, 143.149 44.748 C 142.712 45.448, 138.632 45.522, 130.662 44.973 C 113.239 43.773, 113.471 42.842, 132.500 37.602 C 139.650 35.633, 147.412 33.550, 149.750 32.973 C 154.297 31.850, 154.891 30.984, 152.485 28.987 C 151.258 27.970, 149.877 28.055, 145.235 29.437 C 142.081 30.376, 136.347 31.947, 132.494 32.927 C 128.640 33.908, 124.535 35.013, 123.371 35.382 C 121.433 35.997, 121.247 35.666, 121.162 31.450 C 121.111 28.918, 120.387 25.477, 119.552 23.804 C 118.156 21.006, 118.186 20.548, 119.922 18.109 C 123.241 13.448, 120.736 6.435, 116.071 7.327 C 114.652 7.598, 111.767 6.968, 109.572 5.907 C 107.401 4.858, 104.809 4, 103.812 4 C 102.698 4, 102 3.268, 102 2.099 C 102 0.571, 101.307 0.218, 98.469 0.298 C 95.804 0.374, 95.076 0.757, 95.500 1.862 M 133.811 34.362 C 126.282 36.662, 119.820 38.847, 119.450 39.217 C 118.516 40.150, 144.438 33.371, 146.957 32.023 C 148.995 30.932, 149.672 29.919, 148.250 30.090 C 147.838 30.139, 141.340 32.062, 133.811 34.362 M 0 37.535 C 0 39.787, 0.231 39.947, 2.065 38.965 C 3.716 38.082, 3.892 37.574, 2.942 36.430 C 1.152 34.273, 0 34.706, 0 37.535 M 79 52 C 77.787 52.784, 77.931 52.972, 79.750 52.985 C 80.987 52.993, 82 52.550, 82 52 C 82 50.747, 80.939 50.747, 79 52 M 139.638 54.500 C 139.223 55.583, 137.526 56, 133.531 56 C 130.489 56, 128 56.372, 128 56.826 C 128 57.280, 129.082 58.668, 130.405 59.911 C 132.724 62.089, 132.905 62.109, 135.431 60.453 C 138.395 58.511, 142.642 53, 141.175 53 C 140.646 53, 139.955 53.675, 139.638 54.500 M 70.500 56.333 C 67.557 57.931, 66.416 59.231, 66.184 61.252 C 65.750 65.019, 68.482 64.903, 70.463 61.071 C 71.296 59.460, 72.883 57.855, 73.989 57.503 C 75.095 57.152, 76 56.221, 76 55.433 C 76 53.592, 75.352 53.698, 70.500 56.333" stroke="none" fill="black" fill-rule="evenodd"/>
</svg>