<svg xmlns="http://www.w3.org/2000/svg" width="192" height="144" viewBox="0 0 192 144" version="1.1">
	<path d="M 0 63.083 C 0 113.108, 0.259 126.080, 1.250 125.746 C 2.096 125.461, 2.525 122.836, 2.578 117.631 C 2.661 109.383, 4.671 104.885, 8.606 104.142 C 12.043 103.493, 13.226 101.782, 12.658 98.280 C 12.217 95.563, 12.548 94.687, 14.501 93.407 C 15.811 92.549, 17.021 90.743, 17.191 89.393 C 17.599 86.154, 19.500 86.323, 19.500 89.598 C 19.500 91.002, 20.400 92.811, 21.500 93.619 C 22.937 94.674, 23.500 96.243, 23.500 99.194 C 23.500 102.975, 23.772 103.394, 26.907 104.459 C 28.942 105.150, 30.699 106.599, 31.271 108.058 C 32.231 110.509, 32.316 118.526, 31.433 123.395 C 31.173 124.828, 31.420 126, 31.980 126 C 32.541 126, 33 125.477, 33 124.838 C 33 123.336, 38.979 114, 39.941 114 C 40.803 114, 46 124.007, 46 125.668 C 46 127.013, 51.745 127.564, 69 127.876 C 81.354 128.099, 81.536 128.137, 84.548 131.051 C 86.224 132.673, 87.911 134, 88.298 134 C 88.684 134, 89 129.441, 89 123.868 C 89 115.349, 89.331 113.200, 91.082 110.368 C 92.226 108.516, 93.567 107, 94.061 107 C 94.555 107, 95.868 108.782, 96.980 110.960 C 98.733 114.396, 99 116.845, 99 129.460 L 99 144 145.344 144 L 191.689 144 192.341 129.750 C 192.699 121.912, 192.994 89.513, 192.996 57.750 L 193 0 96.500 0 L 0 0 0 63.083 M 0.471 63.500 C 0.471 98.150, 0.596 112.180, 0.750 94.678 C 0.903 77.175, 0.903 48.825, 0.749 31.678 C 0.596 14.530, 0.471 28.850, 0.471 63.500 M 121.203 27.187 C 118.898 31.501, 115.204 35.244, 113.992 34.495 C 113.446 34.158, 113 34.282, 113 34.772 C 113 35.262, 111.881 36.261, 110.512 36.993 C 107.228 38.751, 108.827 40.778, 113.826 41.194 C 116.836 41.445, 117.561 41.934, 117.839 43.899 C 118.026 45.219, 117.755 47.244, 117.239 48.399 C 115.457 52.383, 114.219 56.886, 114.757 57.424 C 115.054 57.721, 116.292 57.714, 117.509 57.408 C 119.365 56.943, 119.823 57.364, 120.355 60.024 C 121.235 64.425, 120.259 67.523, 117.534 68.982 C 116.261 69.663, 114.645 71.296, 113.941 72.610 C 113.238 73.925, 112.063 75, 111.331 75 C 110.599 75, 110 75.814, 110 76.809 C 110 78.826, 112.918 83.212, 112.968 81.271 C 113.027 79, 119.962 83.270, 120.648 86 C 122.221 92.263, 124.608 92.444, 126.126 86.415 C 128.016 78.908, 131.563 79.326, 133.482 87.282 C 134.342 90.843, 134.889 91.500, 137 91.500 C 138.984 91.500, 139.565 90.932, 139.816 88.750 C 139.990 87.237, 140.350 86, 140.616 86 C 141.957 86, 147 89.180, 147 90.026 C 147 92.091, 148.816 90.871, 149.439 88.388 C 150.050 85.953, 150.215 85.885, 151.876 87.388 C 153.855 89.178, 155.460 89.553, 154.500 88 C 154.160 87.450, 154.809 87, 155.941 87 C 157.073 87, 158 86.550, 158 86 C 158 85.450, 158.730 85, 159.622 85 C 161.019 85, 161.054 84.767, 159.872 83.327 C 158.650 81.836, 158.746 81.716, 160.749 82.233 C 163.344 82.902, 164.770 81.509, 162.415 80.606 C 161.257 80.161, 161.009 79.234, 161.479 77.096 C 161.845 75.429, 161.666 73.912, 161.059 73.536 C 159.242 72.414, 159.898 71.001, 162.250 70.968 C 164.394 70.938, 164.413 70.870, 162.650 69.535 C 161.632 68.764, 161.096 67.653, 161.459 67.067 C 161.844 66.443, 161.263 66, 160.059 66 C 158.927 66, 158 65.355, 158 64.567 C 158 63.779, 157.067 62.839, 155.928 62.477 C 154.682 62.082, 154.071 61.257, 154.396 60.410 C 154.830 59.279, 153.539 59, 147.862 59 C 142.617 59, 140.908 58.676, 141.256 57.750 C 143.734 51.156, 143.078 50.390, 137.206 53.019 L 133 54.902 133 52.074 C 133 50.518, 133.675 48.685, 134.500 48 C 135.325 47.315, 136 46.166, 136 45.445 C 136 44.724, 136.934 43.838, 138.075 43.476 C 139.217 43.114, 139.891 42.557, 139.573 42.240 C 139.256 41.922, 139.744 40.836, 140.658 39.825 C 142.756 37.507, 141.983 36.748, 136.254 35.500 C 131.500 34.465, 131.177 34.042, 129.568 26.750 C 129.070 24.489, 128.423 24, 125.934 24 C 123.554 24, 122.543 24.681, 121.203 27.187" stroke="none" fill="black" fill-rule="evenodd"/>
</svg>