<svg xmlns="http://www.w3.org/2000/svg" width="192" height="144" viewBox="0 0 192 144" version="1.1">
	<path d="M 63.650 8.749 C 63.733 13.562, 63.454 17.950, 63.031 18.500 C 62.607 19.050, 61.938 21.289, 61.543 23.476 C 60.051 31.734, 48.830 46.933, 40.768 51.615 C 28.635 58.661, 9.861 61.990, 1.750 58.532 C 0.099 57.828, 0 60.221, 0 100.893 L 0 144 80.928 144 L 161.855 144 161.306 138.679 C 160.951 135.238, 161.491 129.671, 162.832 122.929 C 166.178 106.115, 168.503 88.872, 168.135 83.613 C 167.870 79.841, 167.197 78.214, 165.190 76.487 L 162.587 74.248 165.294 69.032 C 166.782 66.163, 168 63.237, 168 62.530 C 168 61.823, 168.675 60.685, 169.500 60 C 171.506 58.335, 171.507 54.868, 169.501 55.638 C 168.597 55.985, 166.849 54.979, 165.100 53.107 C 163.504 51.398, 161.533 50, 160.721 50 C 158.297 50, 156.771 47.320, 157.446 44.247 C 157.934 42.022, 157.524 40.901, 155.534 39.032 C 154.140 37.723, 153 36.117, 153 35.465 C 153 34.128, 160.390 33.022, 169.406 33.009 C 176.171 32.999, 180.344 35.450, 184.421 41.830 C 185.711 43.848, 187.944 46.850, 189.382 48.500 L 191.998 51.500 191.999 25.750 L 192 0 127.750 -0.001 L 63.500 -0.001 63.650 8.749 M 185.031 84 C 185.031 87.916, 185.310 89.068, 186 88 C 186.533 87.175, 186.969 85.375, 186.969 84 C 186.969 82.625, 186.533 80.825, 186 80 C 185.310 78.932, 185.031 80.084, 185.031 84" stroke="none" fill="black" fill-rule="evenodd"/>
</svg>