<svg xmlns="http://www.w3.org/2000/svg" width="192" height="144" viewBox="0 0 192 144" version="1.1">
	<path d="M 122.226 27.649 C 119.192 29.102, 115.379 32.059, 113.246 34.610 C 110.132 38.335, 109.489 39.914, 109.228 44.481 C 108.972 48.945, 109.296 50.296, 111.040 52.040 C 113.036 54.036, 113.063 54.273, 111.483 56.018 C 110.560 57.039, 110.109 58.367, 110.482 58.970 C 110.854 59.573, 111.349 61.600, 111.582 63.474 C 112.281 69.111, 113.769 72, 115.975 72 C 117.967 72, 118.609 73.058, 117.369 74.298 C 117.021 74.645, 116.640 76.537, 116.521 78.501 C 116.385 80.726, 115.346 83.097, 113.764 84.787 C 112.367 86.279, 110.938 88.453, 110.587 89.618 C 110.236 90.783, 109.035 92.563, 107.919 93.574 C 106.201 95.128, 105.573 95.215, 103.848 94.137 C 102.151 93.078, 101.517 93.127, 100.075 94.432 C 97.466 96.793, 97.184 96.394, 98.178 91.750 C 98.678 89.412, 99.301 81.650, 99.561 74.500 C 100.009 62.194, 101.337 47.390, 102.632 40.278 C 103.141 37.483, 102.863 36.895, 100.532 35.832 C 95.514 33.546, 94.902 35.019, 94.435 50.500 C 94.202 58.200, 93.559 68.100, 93.006 72.500 C 92.453 76.900, 91.708 84.453, 91.350 89.284 C 90.992 94.115, 90.373 98.270, 89.973 98.517 C 89.573 98.764, 88.065 96.241, 86.621 92.912 C 84.271 87.492, 83.721 86.891, 81.375 87.179 C 79.159 87.451, 78.114 86.577, 74.587 81.500 C 71.958 77.716, 68.956 74.753, 66.459 73.478 C 64.282 72.365, 62.500 70.790, 62.500 69.978 C 62.500 69.118, 61.377 68.370, 59.813 68.190 C 57.841 67.962, 56.686 68.549, 55.476 70.396 C 54.570 71.780, 54.047 73.269, 54.315 73.706 C 54.583 74.143, 55.082 76.266, 55.423 78.424 C 56.234 83.543, 57.195 84.572, 62.959 86.486 C 65.602 87.364, 68.531 88.929, 69.467 89.963 C 71.084 91.750, 71.033 91.932, 68.442 93.630 C 64.327 96.326, 61.017 104.311, 61.034 111.500 C 61.055 120.751, 64.125 132.962, 67.914 138.867 L 71.208 144 81.585 144 C 91.755 144, 91.974 143.951, 92.575 141.557 C 92.912 140.213, 92.891 138.633, 92.528 138.046 C 91.885 137.005, 98.193 125.617, 100.047 124.471 C 101.703 123.448, 107 133.081, 107 137.114 C 107 144.444, 105.089 144, 136.614 144 L 165.014 144 164.440 136.750 C 164.124 132.762, 163.224 124.100, 162.440 117.500 C 160.359 99.987, 160.388 97.929, 162.941 82 C 165.735 64.559, 165.054 55.722, 159.996 43.823 C 154.999 32.065, 149.488 27.855, 137.370 26.534 C 134.141 26.183, 130.600 25.721, 129.500 25.509 C 128.400 25.296, 125.127 26.259, 122.226 27.649 M 54.304 42.055 C 54.710 43.609, 54.199 44.354, 52.205 45.112 C 50.081 45.920, 49.853 46.295, 51.034 47.042 C 51.840 47.552, 53.288 47.976, 54.250 47.985 C 55.212 47.993, 56 48.675, 56 49.500 C 56 51.233, 57.573 51.500, 58.542 49.932 C 58.905 49.344, 59.782 49.086, 60.491 49.358 C 61.343 49.685, 61.732 49.031, 61.640 47.427 C 61.563 46.093, 61.205 45.001, 60.844 45.001 C 60.483 45, 60.436 44.049, 60.740 42.886 C 61.209 41.093, 60.967 40.876, 59.146 41.454 C 57.866 41.860, 57 41.704, 57 41.067 C 57 40.480, 56.273 40, 55.383 40 C 54.245 40, 53.926 40.608, 54.304 42.055" stroke="none" fill="black" fill-rule="evenodd"/>
</svg>