<svg xmlns="http://www.w3.org/2000/svg" width="192" height="144" viewBox="0 0 192 144" version="1.1">
	<path d="M 62.750 2.573 C 59.693 4.575, 59.001 5.627, 59.004 8.265 C 59.010 13.799, 64.786 21.320, 71.765 24.880 L 75.784 26.930 73.642 31.215 C 71.774 34.952, 71.505 37.163, 71.541 48.500 C 71.577 59.865, 71.825 61.783, 73.514 63.750 C 74.576 64.987, 75.878 66, 76.408 66 C 76.938 66, 78.436 67.001, 79.738 68.224 C 81.599 69.972, 82.281 70.163, 82.927 69.118 C 83.594 68.039, 84.241 68.112, 86.366 69.504 C 87.806 70.448, 89.649 70.965, 90.460 70.654 C 91.272 70.342, 92.203 70.520, 92.530 71.048 C 93.502 72.621, 93.926 81, 93.034 81 C 92.581 81, 92.591 82.687, 93.056 84.750 C 93.522 86.813, 93.924 88.612, 93.951 88.750 C 93.978 88.888, 94 91.925, 94 95.500 C 94 100.357, 94.349 102, 95.379 102 C 96.834 102, 97.775 104.053, 100.422 113 C 103.276 122.652, 103.968 122.312, 103.985 111.250 C 103.995 104.432, 104.371 101, 105.107 101 C 105.790 101, 105.917 100.329, 105.439 99.250 C 104.023 96.051, 103.373 84, 104.618 84 C 106.209 84, 107.718 86.029, 108.528 89.256 C 108.907 90.765, 109.560 92, 109.978 92 C 110.397 92, 111.325 94.091, 112.041 96.646 C 113.270 101.035, 113.197 101.549, 110.725 105.948 C 108.702 109.546, 108.114 111.955, 108.135 116.552 C 108.149 119.823, 107.675 124.924, 107.081 127.886 C 106.486 130.849, 106 135.251, 106 137.669 C 106 141.293, 105.605 142.223, 103.750 142.969 C 102.335 143.538, 113.467 143.897, 133.750 143.937 C 158.921 143.986, 165.998 143.726, 165.992 142.750 C 165.988 142.063, 164.863 136.110, 163.492 129.522 C 160.610 115.668, 160.543 114.812, 162.560 117.479 C 164.437 119.963, 170 137.818, 170 141.361 C 170 143.861, 170.263 144, 175 144 C 177.769 144, 180 143.540, 180 142.968 C 180 141.853, 176.471 130.766, 175.077 127.500 C 174.608 126.400, 172.991 122.575, 171.486 119 C 168.478 111.857, 157.318 90.061, 155.895 88.550 C 155.403 88.027, 155 86.953, 155 86.162 C 155 85.372, 156.365 86.442, 158.033 88.541 C 159.701 90.640, 161.904 92.945, 162.928 93.662 C 164.652 94.870, 164.774 94.690, 164.578 91.233 C 164.461 89.180, 163.608 86.060, 162.683 84.300 C 160.564 80.269, 160.553 79.384, 162.644 81.120 C 164.112 82.338, 164.208 82.230, 163.537 80.117 C 163.020 78.488, 163.131 77.963, 163.893 78.434 C 165.468 79.407, 165.278 78.465, 163 74 C 160.611 69.316, 160.487 68.330, 162.500 70 C 164.393 71.571, 164.388 71.498, 162.084 63.855 C 161.030 60.360, 159.201 53.904, 158.021 49.509 C 153.824 33.886, 146.619 19.429, 140.122 13.595 C 138.955 12.547, 138 11.108, 138 10.396 C 138 9.684, 136.066 7.053, 133.701 4.551 L 129.403 -0 117.760 -0 C 111.077 -0, 105.855 0.426, 105.500 1 C 105.160 1.550, 103.645 2, 102.132 2 C 100.620 2, 98.509 2.661, 97.441 3.468 C 94.707 5.537, 92.729 5.356, 86.808 2.500 C 79.485 -1.033, 68.204 -0.998, 62.750 2.573 M 116.277 88.379 C 116.329 96.528, 117.073 97.098, 120.897 91.925 L 123.099 88.947 121.096 86.135 C 116.762 80.049, 116.225 80.299, 116.277 88.379 M 41 139.732 L 36.500 143.964 50.250 143.982 C 57.813 143.992, 64 143.753, 64 143.450 C 64 141.799, 60.698 136.909, 58.952 135.974 C 57.837 135.378, 54.354 135.027, 51.212 135.195 C 46.059 135.470, 45.059 135.914, 41 139.732" stroke="none" fill="black" fill-rule="evenodd"/>
</svg>