<svg xmlns="http://www.w3.org/2000/svg" width="192" height="144" viewBox="0 0 192 144" version="1.1">
	<path d="M 104.791 5.988 C 103.302 6.437, 100.784 7.730, 99.196 8.860 C 96.068 11.088, 90.099 11.647, 81.500 10.517 C 78.750 10.155, 74.700 10.246, 72.500 10.719 C 69.270 11.413, 68.443 12.057, 68.205 14.064 C 67.898 16.659, 71.872 26.677, 74.171 29.099 C 74.902 29.870, 76.233 32.642, 77.130 35.260 C 78.513 39.301, 78.566 40.585, 77.481 43.760 C 76.777 45.817, 76.356 48.850, 76.543 50.500 C 76.759 52.401, 75.938 55.148, 74.302 58 C 65.966 72.526, 63.365 82.224, 64.353 95.095 C 64.651 98.973, 64.459 103.293, 63.926 104.695 C 63.269 106.423, 63.308 107.667, 64.048 108.558 C 64.839 109.511, 64.814 110.479, 63.956 112.083 C 63.256 113.390, 63.002 116.174, 63.332 118.896 C 63.640 121.428, 63.380 126.069, 62.754 129.208 C 61.839 133.804, 61.884 135.415, 62.986 137.475 L 64.356 140.033 67.024 137.477 C 70.591 134.059, 78.639 117.971, 80.519 110.500 C 82.704 101.815, 84.081 88.281, 83.368 82.500 C 82.848 78.282, 82.966 77.703, 84.126 78.798 C 85.146 79.762, 85.486 83.113, 85.445 91.798 C 85.398 101.973, 84.996 104.740, 82.364 113 C 80.699 118.225, 78.615 124.075, 77.733 126 C 74.266 133.565, 70 143.295, 70 143.638 C 70 143.837, 83.530 144, 100.067 144 C 128.231 144, 130.102 143.889, 129.624 142.250 C 126.453 131.385, 125.887 128.417, 126.432 125.512 C 126.774 123.687, 127.660 121.961, 128.401 121.676 C 129.615 121.210, 130.973 113.550, 131.179 106 C 131.217 104.625, 129.072 98.325, 126.414 92 C 122.874 83.579, 121.569 79.162, 121.540 75.501 C 121.505 71.183, 121.228 70.502, 119.500 70.501 C 117.864 70.500, 117.318 69.499, 116.500 65 C 115.329 58.561, 114.436 56.918, 110.851 54.609 L 108.203 52.903 109.566 47.201 C 110.315 44.066, 110.945 40.038, 110.964 38.250 C 110.993 35.662, 111.414 35, 113.031 35 C 116.218 35, 116.462 32.294, 113.611 28.556 L 111 25.133 113.750 24.816 C 116.461 24.504, 116.504 24.389, 116.794 16.628 C 117.030 10.334, 116.748 8.379, 115.389 6.878 C 113.600 4.900, 109.533 4.559, 104.791 5.988 M 71.160 81.668 C 71.072 83.411, 70.741 85.661, 70.424 86.668 C 69.882 88.397, 69.913 88.400, 70.986 86.728 C 71.612 85.754, 71.943 83.504, 71.722 81.728 L 71.320 78.500 71.160 81.668" stroke="none" fill="black" fill-rule="evenodd"/>
</svg>