<svg xmlns="http://www.w3.org/2000/svg" width="192" height="144" viewBox="0 0 192 144" version="1.1">
	<path d="M 175.061 2.104 C 172.608 3.600, 170.649 4.042, 168.228 3.650 C 163.419 2.869, 154.598 4.709, 147.316 8.011 C 140.349 11.170, 132.500 18.504, 131.529 22.763 C 130.255 28.353, 125.097 31.839, 116.552 32.885 C 112.280 33.408, 111.318 33.934, 110.141 36.392 C 108.920 38.939, 108.948 39.391, 110.378 40.191 C 111.270 40.691, 112 41.720, 112 42.478 C 112 45.232, 115.187 47.231, 118.674 46.665 C 121.527 46.203, 122 46.415, 122 48.155 C 122 51.026, 125.796 55.500, 128.232 55.500 C 131.567 55.500, 132.776 58.485, 130.471 61.032 C 128.774 62.908, 128.715 63.329, 130.013 64.348 C 131.982 65.894, 136.580 75.073, 136.206 76.711 C 136.026 77.502, 136.895 78, 138.456 78 C 139.855 78, 141 78.520, 141 79.155 C 141 79.810, 141.866 79.526, 143 78.500 C 144.799 76.872, 145 76.857, 145 78.345 C 145 80.531, 147.625 80.467, 148.932 78.250 C 149.832 76.724, 150.092 76.692, 150.966 78 C 152.264 79.940, 152.283 83.707, 151 84.500 C 150.450 84.840, 150 85.980, 150 87.033 C 150 90.090, 144.563 92.332, 138.957 91.589 C 136.357 91.244, 133.044 91.413, 131.592 91.965 C 129.411 92.794, 129.063 93.404, 129.585 95.484 C 130.183 97.866, 129.998 98, 126.108 98 C 122.724 98, 122 98.338, 122 99.920 C 122 101.354, 120.672 102.268, 116.750 103.533 C 113.862 104.464, 110.423 105.904, 109.106 106.731 C 106.951 108.085, 106.620 108.072, 105.795 106.599 C 104.602 104.466, 96.112 93.264, 89.322 84.862 C 86.371 81.212, 82.729 77.800, 81.229 77.281 C 67.429 72.508, 61.715 71.003, 57.460 71.020 C 52.249 71.041, 38.928 72.739, 38.190 73.476 C 37.082 74.585, 39.412 79.479, 42.537 82.603 C 44.931 84.998, 46 86.982, 46 89.033 C 46 91.350, 46.446 92, 48.035 92 C 49.155 92, 51.196 92.737, 52.571 93.639 C 54.261 94.746, 57.499 95.322, 62.551 95.414 L 70.029 95.550 79.723 109.917 C 89.754 124.783, 95.372 130.357, 101.500 131.521 C 103.150 131.835, 108.771 131.207, 113.990 130.126 C 121.116 128.650, 123.684 128.452, 124.295 129.330 C 124.742 129.974, 124.856 133.537, 124.547 137.250 L 123.986 144 143.922 144 L 163.858 144 165.400 138.695 L 166.942 133.390 173.221 134.080 C 180.623 134.893, 183.930 136.082, 188.516 139.580 L 191.895 142.157 191.960 71.079 L 192.025 0 185.262 0.004 C 180.161 0.007, 177.655 0.522, 175.061 2.104 M 184.464 83.389 C 184.263 84, 183.964 85.612, 183.799 86.971 C 183.500 89.439, 183.496 89.438, 180.255 85.971 L 177.009 82.500 177.005 85.809 C 177.002 87.759, 176.589 88.864, 176 88.500 C 175.450 88.160, 175 88.407, 175 89.048 C 175 89.689, 174.325 89.955, 173.500 89.638 C 171.546 88.889, 171.600 89.546, 174.071 96.593 C 175.209 99.842, 176.222 104.802, 176.321 107.615 C 176.474 111.998, 176.878 112.948, 179.142 114.256 C 181.675 115.720, 181.874 115.662, 183.954 112.848 C 186.160 109.865, 190.976 91.141, 190.989 85.500 C 190.995 82.838, 190.648 82.488, 187.913 82.389 C 186.218 82.328, 184.666 82.778, 184.464 83.389" stroke="none" fill="black" fill-rule="evenodd"/>
</svg>