<svg xmlns="http://www.w3.org/2000/svg" width="192" height="144" viewBox="0 0 192 144" version="1.1">
	<path d="M 0 72 L 0 144 29 144 C 44.950 144, 58 143.786, 58 143.525 C 58 142.649, 48.534 138.615, 45.575 138.230 C 43.967 138.020, 41.625 138.398, 40.371 139.069 C 38.483 140.079, 37.638 139.993, 35.459 138.565 C 34.011 137.616, 32.597 137.069, 32.317 137.349 C 32.037 137.629, 30.263 136.990, 28.374 135.929 C 26.485 134.868, 24.260 134, 23.430 134 C 20.962 134, 14.144 130.138, 13.071 128.133 C 11.813 125.782, 11.598 114.441, 12.739 110.579 C 13.217 108.961, 13.225 104.726, 12.756 101.079 C 11.194 88.924, 13.861 67.920, 18.547 55.470 C 21.995 46.310, 25.199 40.218, 31.332 31.159 C 34.230 26.879, 37.220 21.882, 37.977 20.055 C 39.231 17.027, 39.183 16.607, 37.427 15.322 C 36.367 14.547, 34.542 13.673, 33.371 13.379 C 31.405 12.885, 31.282 12.354, 31.758 6.422 L 32.274 0 16.137 0 L 0 0 0 72 M 146 0.325 C 146 0.960, 159.333 11.510, 160.904 12.118 C 162.942 12.906, 167.998 9.393, 168.006 7.182 C 168.010 6.257, 168.658 4.263, 169.447 2.750 L 170.881 0 158.441 0 C 151.598 0, 146 0.146, 146 0.325 M 177.373 3.031 C 181.531 7.973, 182.067 11.781, 180.370 24.327 C 179.529 30.546, 178.904 42.073, 178.960 50.326 C 179.076 67.485, 177.911 75.327, 174.235 82.134 C 171.403 87.378, 170.600 87.894, 169.190 85.374 C 168.422 84.003, 168.180 84.145, 167.644 86.282 C 166.743 89.871, 156.311 103.564, 149.906 109.565 C 140.484 118.393, 129.342 123.649, 115 126.032 C 95.513 129.270, 73.062 118.127, 64.717 101.074 C 61.787 95.086, 61.508 93.697, 61.586 85.500 C 61.642 79.526, 62.215 75.288, 63.288 72.895 C 65.187 68.662, 70.957 63.300, 74.595 62.387 C 78.234 61.473, 81.783 63.706, 82.554 67.393 C 83.903 73.844, 87.229 83.042, 89.325 86.121 C 93.115 91.688, 100.871 95.756, 100.226 91.838 C 100.027 90.627, 101.382 89.714, 105.226 88.470 C 110.962 86.615, 114.790 84, 111.771 84 C 108.627 84, 107 79.985, 107 72.229 C 107 66.981, 106.440 63.744, 105.025 60.816 C 103.939 58.567, 103.333 56.270, 103.680 55.709 C 104.026 55.149, 103.855 54.972, 103.300 55.315 C 102.745 55.658, 100.874 54.673, 99.141 53.126 C 95.317 49.712, 89.978 48, 83.154 48 C 73.137 48, 63.986 53.631, 58.113 63.410 C 47.067 81.802, 51.615 107.378, 68.416 121.360 C 81.464 132.218, 90.223 135.595, 108.089 136.658 C 119.310 137.325, 127.888 136.237, 138 132.865 C 141.840 131.584, 142.952 131.451, 141.685 132.423 C 135.354 137.280, 110.154 140.183, 96.717 137.603 C 87.151 135.767, 88.677 137.670, 99.547 141.133 L 108.500 143.985 150.250 143.993 L 192 144 192 72 L 192 0 183.411 -0 L 174.822 -0 177.373 3.031 M 126.042 34.308 C 126.019 34.752, 127.162 37.197, 128.583 39.741 C 130.003 42.286, 132.119 46.872, 133.285 49.934 C 135.940 56.904, 136.864 54.154, 134.448 46.474 C 132.983 41.817, 126.163 31.947, 126.042 34.308 M 145.500 130 C 145.160 130.550, 145.359 131, 145.941 131 C 146.523 131, 147 130.550, 147 130 C 147 129.450, 146.802 129, 146.559 129 C 146.316 129, 145.840 129.450, 145.500 130" stroke="none" fill="black" fill-rule="evenodd"/>
</svg>