<svg xmlns="http://www.w3.org/2000/svg" width="192" height="144" viewBox="0 0 192 144" version="1.1">
	<path d="M 0 72 L 0 144 13.500 144 L 27 144 27 72 L 27 0 13.500 0 L 0 0 0 72 M 83.445 3.250 C 84.222 5.038, 86.212 10.857, 87.868 16.183 C 90.587 24.926, 90.822 26.737, 90.297 34.846 L 89.715 43.827 79.369 44.532 C 73.678 44.920, 67.860 45.015, 66.439 44.744 C 64.452 44.364, 63.665 44.750, 63.032 46.416 C 62.579 47.607, 61.486 49.181, 60.604 49.914 C 58.549 51.619, 58.486 54.134, 60.519 53.354 C 61.794 52.865, 61.870 53.212, 60.991 55.525 C 59.400 59.709, 60.438 59.582, 64.832 55.054 L 68.827 50.937 81.164 51.219 L 93.500 51.500 93.801 54.585 C 94.196 58.629, 92.384 59.999, 85.924 60.542 C 81.046 60.953, 77 63.067, 77 65.206 C 77 65.699, 78.575 66.760, 80.500 67.564 C 82.425 68.369, 84 69.648, 84 70.406 C 84 72.003, 86.137 73, 89.561 73 C 91.381 73, 92.474 74.025, 94.093 77.250 C 97.115 83.272, 99.909 86, 103.052 86 C 106.759 86, 107.829 84.350, 108.607 77.434 C 108.974 74.170, 109.627 70.808, 110.058 69.963 C 110.490 69.117, 113.465 67.639, 116.671 66.678 C 124.651 64.286, 125.775 63.500, 124.397 61.278 C 123.617 60.020, 121.764 59.411, 118.061 59.195 C 113.587 58.934, 112.932 58.644, 113.543 57.195 C 113.936 56.263, 114.478 54.481, 114.748 53.235 C 115.018 51.990, 115.621 50.734, 116.089 50.445 C 117.486 49.582, 133.370 47.986, 135.104 48.535 C 135.986 48.814, 137.545 50.596, 138.568 52.496 C 140.466 56.022, 142.464 57.449, 144.090 56.444 C 145.633 55.491, 145.101 53.544, 142.927 52.187 C 141.338 51.194, 140.917 50.031, 141.120 47.196 C 141.599 40.511, 140.627 39.902, 131.196 40.978 C 120.353 42.214, 118.583 41.515, 121.021 36.961 C 122.213 34.734, 120.396 26, 118.742 26 C 118.180 26, 117.108 25.213, 116.360 24.250 C 115.109 22.642, 114.919 22.633, 114.012 24.138 C 113.469 25.039, 111.895 26.061, 110.513 26.407 C 109.131 26.754, 108 27.480, 108 28.019 C 108 28.559, 107.592 29, 107.094 29 C 106.595 29, 106.419 27.987, 106.702 26.750 C 107.452 23.474, 116.938 3.805, 118.759 1.750 C 120.230 0.090, 119.323 0, 101.171 0 L 82.032 0 83.445 3.250 M 165 72 L 165 144 178.500 144 L 192 144 192 72 L 192 0 178.500 0 L 165 0 165 72" stroke="none" fill="black" fill-rule="evenodd"/>
</svg>