<svg xmlns="http://www.w3.org/2000/svg" width="192" height="144" viewBox="0 0 192 144" version="1.1">
	<path d="M 0 72 L 0 144 36.500 144 L 73 144 73.015 139.250 C 73.023 136.637, 73.756 131.575, 74.644 128 C 76.230 121.609, 77.285 89.008, 75.905 89.002 C 75.578 89.001, 74.476 89.921, 73.457 91.047 C 70.884 93.890, 66.810 93.282, 65.620 89.878 C 64.871 87.735, 65.183 86.626, 67.327 83.816 C 69.642 80.781, 69.878 79.766, 69.336 75.188 C 68.733 70.095, 68.660 70, 65.380 70 C 62.541 70, 61.952 69.587, 61.462 67.250 C 61.146 65.737, 60.490 62.732, 60.004 60.571 C 59.129 56.674, 60.082 53, 61.968 53 C 62.461 53, 63.135 52.149, 63.466 51.108 C 64.103 49.102, 67.125 47.823, 68.750 48.873 C 70.287 49.866, 72.770 55.376, 72.288 56.724 C 72.047 57.398, 72.559 58.960, 73.425 60.197 C 74.291 61.433, 75 63.320, 75 64.389 C 75 65.458, 75.271 66.062, 75.603 65.731 C 75.934 65.399, 77.240 65.521, 78.504 66.002 C 80.255 66.667, 81.216 66.419, 82.535 64.961 C 83.488 63.909, 84.611 63.259, 85.030 63.519 C 85.450 63.778, 85.824 61.449, 85.861 58.344 C 85.919 53.494, 85.495 52.150, 82.858 48.821 C 80.290 45.578, 79.893 44.381, 80.434 41.502 C 80.789 39.608, 82.187 36.743, 83.540 35.135 C 84.998 33.403, 86 30.946, 86 29.106 C 86 26.287, 86.850 25.473, 89.336 25.910 C 89.796 25.991, 90.411 25.144, 90.703 24.029 C 91.404 21.349, 92.499 21.482, 100.655 25.242 C 101.840 25.789, 103.324 25.918, 103.953 25.529 C 105.179 24.771, 110.443 29.878, 115.208 36.450 C 117.977 40.268, 118.062 40.740, 117.786 50.684 C 117.589 57.762, 117.110 61.119, 116.250 61.453 C 115.562 61.719, 115 62.420, 115 63.011 C 115 63.601, 114.437 64.698, 113.750 65.449 C 112.697 66.598, 112.224 66.567, 110.750 65.252 C 109.152 63.826, 109 63.849, 109 65.516 C 109 66.521, 109.641 68.053, 110.425 68.921 C 113.577 72.413, 112.825 81.021, 109.039 84.808 C 106.949 86.897, 105.514 89.937, 104.165 95.132 C 103.113 99.181, 102.459 103.033, 102.712 103.693 C 102.965 104.352, 106.245 106.065, 110 107.500 C 113.755 108.935, 117.106 110.835, 117.447 111.722 C 117.787 112.609, 118.343 115.984, 118.681 119.221 C 119.211 124.296, 118.993 125.518, 117.097 128.082 C 114.957 130.977, 114.940 131.217, 116.449 137.109 C 117.302 140.438, 118 143.356, 118 143.593 C 118 143.830, 134.763 143.906, 155.250 143.762 L 192.500 143.500 192.757 71.750 L 193.013 0 96.507 0 L 0 0 0 72 M 0.474 72.500 C 0.474 112.100, 0.598 128.154, 0.750 108.176 C 0.901 88.198, 0.901 55.798, 0.750 36.176 C 0.598 16.554, 0.474 32.900, 0.474 72.500 M 88.494 61.839 C 88.222 62.111, 88 63.211, 88 64.283 C 88 65.817, 88.480 66.105, 90.250 65.630 C 91.487 65.299, 93.063 65.021, 93.750 65.014 C 94.438 65.006, 95 64.376, 95 63.613 C 95 62.288, 89.536 60.797, 88.494 61.839" stroke="none" fill="black" fill-rule="evenodd"/>
</svg>