<svg xmlns="http://www.w3.org/2000/svg" width="192" height="144" viewBox="0 0 192 144" version="1.1">
	<path d="M 101 33.277 C 101 34.530, 100.307 36.544, 99.461 37.753 C 98.112 39.679, 98.099 40.231, 99.363 42.225 C 101.690 45.899, 102.353 50.651, 100.629 51.312 C 98.703 52.051, 99.624 55.623, 102.208 57.433 C 104.887 59.310, 106.347 65.956, 104.525 67.980 C 103.772 68.816, 102.831 70.850, 102.435 72.500 C 101.536 76.242, 97.385 84.644, 96.019 85.488 C 94.515 86.418, 94.781 89.638, 96.505 91.362 C 97.842 92.699, 97.843 93.504, 96.518 98.592 C 95.698 101.741, 94.740 106.478, 94.390 109.119 C 93.765 113.828, 93.823 113.963, 97.375 116.059 C 99.367 117.234, 100.783 118.542, 100.522 118.964 C 99.615 120.433, 103.806 123.116, 107.642 123.523 C 113.349 124.128, 127.144 127.744, 128.352 128.952 C 129.576 130.176, 132 130.354, 132 129.219 C 132 128.790, 130.650 127.929, 129 127.306 C 126.190 126.246, 124.727 123, 127.059 123 C 129.481 123, 126.732 121.185, 122.526 120.007 C 120.037 119.310, 118 118.558, 118 118.335 C 118 118.112, 118.728 116.818, 119.618 115.460 C 121.662 112.341, 120.084 110, 115.937 110 C 114.386 110, 112.925 109.662, 112.688 109.250 C 112.452 108.838, 112.763 105.223, 113.379 101.217 C 114.334 95.012, 114.870 93.750, 117 92.694 C 120.391 91.013, 120.616 87.215, 117.937 76.878 C 116.743 72.270, 115.706 65.413, 115.633 61.641 L 115.500 54.781 120.297 55.349 C 125.618 55.979, 127.002 54.741, 125.053 51.099 C 124.447 49.967, 124.242 47.886, 124.596 46.474 C 125.183 44.133, 125.389 44.042, 126.934 45.440 C 128.970 47.283, 131 45.816, 131 42.500 C 131 38.741, 128.910 37.736, 126.265 40.221 C 124.262 42.103, 123.620 42.244, 121.912 41.177 C 120.223 40.122, 119.504 40.245, 117.320 41.963 C 113.870 44.677, 112.234 44.532, 112.106 41.500 C 111.784 33.899, 111.972 34.251, 107.887 33.598 C 105.749 33.256, 104 32.532, 104 31.988 C 104 31.445, 103.325 31, 102.500 31 C 101.606 31, 101 31.920, 101 33.277 M 50 34.432 C 50 36.041, 44.914 40, 42.846 40.001 C 41.947 40.001, 41.519 41.247, 41.557 43.751 C 41.629 48.489, 43.796 55, 45.300 55 C 45.930 55, 45.458 55.691, 44.252 56.536 C 42.703 57.621, 41.863 59.556, 41.389 63.128 C 40.673 68.519, 39.157 70.524, 33.479 73.582 C 30.442 75.217, 29.503 75.285, 25.275 74.178 C 22.649 73.491, 19.284 72.047, 17.798 70.970 C 15.303 69.161, 14.520 69.101, 7.548 70.185 C 0.400 71.296, 0.001 71.495, 0.027 73.929 C 0.053 76.287, 1.443 77.114, 16.777 83.899 C 27.193 88.508, 34.902 91.328, 37.216 91.377 C 40.878 91.453, 40.910 91.489, 39.399 93.794 C 38.203 95.620, 38.127 96.448, 39.051 97.562 C 39.703 98.347, 40 99.891, 39.712 100.994 C 39.402 102.178, 40.167 104.441, 41.583 106.526 C 42.900 108.467, 44.646 111.348, 45.463 112.928 C 46.910 115.726, 46.857 115.872, 43.469 118.456 C 40.718 120.554, 40.112 121.599, 40.576 123.446 C 40.898 124.731, 40.718 126.056, 40.175 126.392 C 39.632 126.727, 39.398 127.805, 39.655 128.787 C 39.991 130.074, 39.119 131.050, 36.527 132.286 C 34.550 133.229, 32.422 134, 31.798 134 C 31.174 134, 27.589 131.757, 23.832 129.016 L 17.002 124.032 9.041 126.547 C 4.662 127.930, 0.849 129.436, 0.566 129.893 C 0.283 130.350, 3.621 133.712, 7.982 137.362 L 15.911 144 30.206 143.968 L 44.500 143.937 41.750 141.516 C 40.237 140.185, 39 138.849, 39 138.548 C 39 137.648, 42.838 137.928, 43.420 138.871 C 44.944 141.337, 58 140.457, 58 137.889 C 58 137.451, 59.912 136.246, 62.250 135.209 C 64.588 134.173, 67.129 132.563, 67.898 131.631 C 69.115 130.158, 69.050 129.748, 67.398 128.482 C 66.354 127.681, 63.821 126.502, 61.769 125.861 C 58.311 124.780, 56.176 122.035, 56.867 119.555 C 57.011 119.036, 56.716 117.686, 56.211 116.555 C 55.706 115.425, 54.349 112.395, 53.195 109.823 L 51.097 105.146 53.121 102.573 C 54.400 100.947, 56.136 100, 57.838 100 C 61.136 100, 67.400 96.774, 67.773 94.883 C 67.923 94.123, 66.348 91.194, 64.273 88.375 C 57.114 78.651, 56.584 77.248, 56.461 67.724 C 56.395 62.645, 55.867 58.467, 55.208 57.808 C 54.357 56.957, 54.424 56.396, 55.475 55.585 C 57.569 53.968, 57.735 44.888, 55.723 42.016 C 54.821 40.728, 54.343 39.254, 54.660 38.742 C 55.480 37.414, 52.921 33, 51.331 33 C 50.599 33, 50 33.644, 50 34.432 M 161.225 35.698 C 161.636 36.964, 153.225 44.257, 152.133 43.582 C 151.138 42.967, 151.606 49.177, 152.959 54.546 C 153.714 57.543, 153.646 57.611, 148.702 58.785 C 143.445 60.034, 141 59.270, 141 56.378 C 141 54.555, 138.971 54.631, 136.223 56.557 C 133.698 58.325, 133.341 60.521, 135.389 61.700 C 136.152 62.140, 136.954 63.400, 137.169 64.500 C 137.489 66.128, 138.325 66.485, 141.670 66.422 L 145.779 66.344 146.272 70.721 C 146.853 75.874, 147.445 76.705, 149.387 75.094 C 151.456 73.377, 152.598 75.656, 150.750 77.813 C 149.955 78.741, 149.007 80.334, 148.644 81.352 C 148.281 82.371, 146.134 85.843, 143.872 89.067 C 141.460 92.506, 140.002 95.564, 140.347 96.462 C 140.671 97.305, 143.087 99.008, 145.718 100.247 C 151.667 103.050, 152.174 103.750, 150.559 106.941 C 149.847 108.348, 148.658 111.911, 147.916 114.857 C 146.919 118.817, 145.972 120.441, 144.284 121.082 C 140.946 122.351, 141.488 124.766, 145.664 127.229 C 149.342 129.399, 148.850 131.061, 145.121 129.065 C 142.014 127.402, 140.601 127.797, 139.250 130.707 C 138.563 132.188, 138 133.759, 138 134.199 C 138 135.842, 141.939 134.925, 143.314 132.962 C 144.548 131.201, 145.090 131.084, 147.315 132.098 C 150.487 133.543, 151.330 135.515, 149.910 138.168 C 149.036 139.801, 149.221 140.558, 150.872 142.095 C 153.675 144.707, 158.666 144.628, 159.513 141.958 C 160.003 140.414, 160.690 140.077, 162.331 140.573 C 163.524 140.935, 164.725 141.232, 165 141.234 C 168.025 141.253, 169.220 140.612, 170.210 138.438 C 171.258 136.139, 171.083 135.642, 168.506 133.586 C 165.830 131.453, 165.719 131.092, 166.881 128.287 C 167.999 125.587, 167.868 124.894, 165.604 121.559 C 163.302 118.166, 163.133 117.212, 163.675 110.670 C 164.110 105.430, 164.744 103.167, 166.033 102.265 C 167.505 101.233, 167.641 100.409, 166.858 97.265 C 165.682 92.539, 163.788 79.998, 163.949 78 C 164.016 77.175, 164.034 74.402, 163.990 71.837 C 163.946 69.272, 164.380 66.883, 164.955 66.528 C 165.530 66.173, 166 64.784, 166 63.441 C 166 61.084, 166.242 61, 173.059 61 C 177.003 61, 179.872 60.602, 179.560 60.097 C 179.253 59.601, 175.852 59.427, 172.001 59.712 C 166.112 60.147, 165 59.982, 165 58.673 C 165 57.818, 165.469 56.828, 166.042 56.474 C 166.615 56.120, 166.981 53.852, 166.856 51.434 C 166.731 49.017, 166.878 46.789, 167.183 46.484 C 167.487 46.179, 166.435 44.536, 164.843 42.832 C 162.997 40.855, 162.154 39.089, 162.515 37.951 C 162.827 36.971, 162.602 35.872, 162.016 35.510 C 161.430 35.148, 161.074 35.232, 161.225 35.698 M 113 46.941 C 113 48.073, 113.450 49, 114 49 C 114.550 49, 115 48.352, 115 47.559 C 115 46.766, 114.550 45.840, 114 45.500 C 113.450 45.160, 113 45.809, 113 46.941 M 116 46 C 116 46.550, 116.450 47, 117 47 C 117.550 47, 118 46.550, 118 46 C 118 45.450, 117.550 45, 117 45 C 116.450 45, 116 45.450, 116 46 M 42.074 78.411 C 41.187 79.480, 41.184 79.996, 42.063 80.539 C 43.139 81.204, 44.949 79.475, 44.985 77.750 C 45.010 76.518, 43.328 76.899, 42.074 78.411 M 102.666 95.172 C 100.288 98.905, 97.888 107.073, 98.554 109.169 C 99.087 110.849, 99.769 111.010, 103.833 110.421 C 106.400 110.048, 108.612 109.652, 108.749 109.540 C 108.885 109.428, 109.289 105.886, 109.645 101.668 C 110.200 95.101, 110.069 94, 108.729 94 C 107.868 94, 106.485 93.740, 105.656 93.422 C 104.737 93.069, 103.570 93.752, 102.666 95.172 M 154.672 109.750 C 153.190 112.912, 151.869 116.584, 151.738 117.909 C 151.538 119.933, 152.009 120.381, 154.682 120.707 C 157.784 121.086, 157.882 120.977, 158.633 116.298 C 159.056 113.659, 159.368 110.938, 159.326 110.250 C 159.284 109.563, 159.194 107.875, 159.125 106.500 C 158.928 102.557, 157.584 103.538, 154.672 109.750 M 48.473 122.030 C 47.486 123.120, 46.864 124.182, 47.089 124.390 C 47.816 125.057, 52 123.099, 52 122.091 C 52 120.130, 50.220 120.099, 48.473 122.030 M 115 122.100 C 115 122.595, 115.900 123.067, 117 123.150 C 118.100 123.233, 119.525 123.345, 120.167 123.400 C 120.808 123.455, 121.506 122.983, 121.717 122.350 C 121.958 121.627, 120.781 121.200, 118.550 121.200 C 116.597 121.200, 115 121.605, 115 122.100 M 38 134.002 L 34.500 135.916 39.323 135.958 C 43.301 135.993, 44.090 135.708, 43.823 134.333 C 43.355 131.920, 41.955 131.840, 38 134.002" stroke="none" fill="black" fill-rule="evenodd"/>
</svg>