<svg xmlns="http://www.w3.org/2000/svg" width="192" height="144" viewBox="0 0 192 144" version="1.1">
	<path d="M 154.819 9.755 C 141.586 20.341, 138 23.382, 138 24.016 C 138 24.398, 135.188 26.658, 131.750 29.039 C 128.313 31.421, 124.228 34.411, 122.673 35.684 C 119.022 38.675, 118.202 38.602, 117.816 35.250 C 117.415 31.759, 113 30.550, 113 33.930 C 113 35.696, 112.381 36, 108.783 36 C 106.464 36, 102.651 36.732, 100.310 37.626 C 96.854 38.945, 95.593 40.175, 93.606 44.164 L 91.158 49.076 89.462 46.206 C 87.061 42.141, 84.295 40.640, 78.081 40.031 C 73.133 39.546, 72.497 39.195, 70.779 36 C 65.726 26.604, 54.923 21.220, 46.622 23.960 C 41.688 25.588, 37.528 29.246, 34.230 34.855 C 31.906 38.810, 31.500 40.625, 31.500 47.074 C 31.500 53.777, 31.813 55.060, 34.223 58.222 C 38.001 63.181, 44.233 65.990, 51.566 66.041 L 57.500 66.081 54 69.087 C 52.075 70.740, 50.618 72.687, 50.763 73.413 C 50.908 74.139, 50.345 75.298, 49.513 75.989 C 47.792 77.418, 47.481 80, 49.031 80 C 49.599 80, 50.322 79.325, 50.638 78.500 C 50.955 77.675, 51.855 77, 52.638 77 C 54.617 77, 55.587 80.019, 53.935 81.040 C 52.820 81.729, 52.871 82.200, 54.223 83.694 C 55.127 84.692, 56.160 87.982, 56.520 91.005 C 57.248 97.126, 58.567 102.332, 60.272 105.812 C 61.126 107.556, 61.109 108.596, 60.202 110.048 C 58.587 112.634, 58.687 116.169, 60.474 119.612 C 61.430 121.455, 61.605 122.795, 60.974 123.426 C 59.729 124.671, 59.694 133, 60.933 133 C 62.412 133, 63.312 137.088, 62.099 138.301 C 60.725 139.675, 60.650 144, 62 144 C 62.550 144, 63 143.100, 63 142 C 63 140.889, 63.667 140, 64.500 140 C 65.333 140, 66 140.889, 66 142 C 66 143.100, 66.459 144, 67.019 144 C 68.109 144, 67.221 138.872, 65.981 138 C 64.674 137.081, 63.818 133, 64.933 133 C 66.578 133, 66.214 125.423, 64.500 124 C 62.793 122.584, 62.506 119.423, 64 118.500 C 65.300 117.697, 65.300 111.303, 64 110.500 C 62.665 109.675, 62.721 105.291, 64.077 104.452 C 64.670 104.086, 67.707 103.190, 70.827 102.461 C 73.947 101.731, 77.257 100.843, 78.181 100.487 C 79.681 99.909, 79.743 100.226, 78.758 103.438 C 77.934 106.122, 77.984 110.189, 78.954 119.441 C 80.385 133.082, 80.040 135.928, 76.371 140.750 L 73.898 144 108.449 144 C 127.452 144, 143 143.830, 143 143.622 C 143 143.414, 142.325 141.629, 141.500 139.654 C 139.585 135.070, 139.612 134.434, 141.655 136.128 C 143.174 137.388, 143.172 137.234, 141.624 134.241 C 140.302 131.684, 140.181 130.530, 141.061 128.886 C 142.581 126.046, 141.488 120.998, 138.354 116.380 C 133.593 109.364, 132.571 104, 132.534 85.836 C 132.501 69.701, 133.066 65.948, 135.062 69.029 C 135.858 70.257, 136.349 70.088, 138.043 68 C 144.587 59.934, 148.169 46.045, 144.493 42.994 C 142.021 40.943, 135.587 41.159, 133.138 43.375 C 132.026 44.382, 130.569 45.023, 129.902 44.801 C 128.450 44.317, 140.898 32.021, 142.853 32.009 C 145.030 31.995, 153.998 26.611, 153.999 25.317 C 154 24.667, 153.100 23.849, 152 23.500 C 149.631 22.748, 149.403 21.443, 151.500 20.638 C 152.325 20.322, 153 19.290, 153 18.346 C 153 17.401, 154.800 14.494, 157 11.885 C 163.060 4.698, 162.195 3.854, 154.819 9.755 M 92 52.941 C 92 53.459, 92.450 54.160, 93 54.500 C 93.550 54.840, 94 54.416, 94 53.559 C 94 52.702, 93.550 52, 93 52 C 92.450 52, 92 52.423, 92 52.941 M 86.294 68.013 C 82.422 71.492, 76.987 72.677, 71.553 71.226 C 68.547 70.424, 67.335 70.449, 66.778 71.325 C 65.686 73.042, 65.838 76.829, 67.093 79.173 C 67.798 80.491, 67.842 81.558, 67.216 82.184 C 66.365 83.035, 67.356 90.689, 68.461 91.795 C 68.881 92.214, 84.430 87.375, 86.886 86.061 C 88.970 84.946, 92.777 70.105, 91.229 69.129 C 90.680 68.783, 90.067 67.742, 89.866 66.816 C 89.558 65.401, 88.989 65.592, 86.294 68.013 M 110.504 113.437 C 108.458 118.212, 107.497 126.505, 108.420 131.423 C 109.051 134.790, 114.215 142, 115.995 142 C 116.429 142, 117.066 140.875, 117.411 139.500 C 117.756 138.125, 118.660 137, 119.420 137 C 121.018 137, 125.005 130.696, 124.990 128.193 C 124.976 125.679, 120.571 116.844, 117.990 114.152 C 116.242 112.328, 115.557 112.100, 114.921 113.128 C 114.315 114.109, 113.855 113.810, 113.146 111.976 C 112.201 109.528, 112.171 109.544, 110.504 113.437 M 60.796 112.537 C 59.752 113.581, 61.200 117, 62.686 117 C 63.609 117, 64.022 116.207, 63.820 114.828 C 63.501 112.661, 61.892 111.442, 60.796 112.537 M 61 127.941 C 61 130.259, 62.795 131.605, 64.120 130.280 C 65.375 129.025, 64.155 126, 62.393 126 C 61.627 126, 61 126.873, 61 127.941" stroke="none" fill="black" fill-rule="evenodd"/>
</svg>