<svg xmlns="http://www.w3.org/2000/svg" width="192" height="144" viewBox="0 0 192 144" version="1.1">
	<path d="M -0 72.005 L -0 144.010 96.250 143.755 L 192.500 143.500 192.757 71.750 L 193.013 0 96.507 0 L 0 0 -0 72.005 M 0.474 72.500 C 0.474 112.100, 0.598 128.154, 0.750 108.176 C 0.901 88.198, 0.901 55.798, 0.750 36.176 C 0.598 16.554, 0.474 32.900, 0.474 72.500 M 82.109 62.218 C 73.112 69.117, 71.626 70, 69.013 70 C 67.091 70, 65.985 70.737, 65.148 72.575 C 63.852 75.418, 64.357 77, 66.559 77 C 67.352 77, 68 77.408, 68 77.906 C 68 78.405, 70.227 79.119, 72.950 79.493 C 75.672 79.867, 78.485 80.879, 79.200 81.742 C 80.869 83.755, 86.236 86, 89.379 86 C 93.753 86, 102.788 81.856, 107.866 77.522 C 111.242 74.640, 114.162 73.070, 116.984 72.618 C 121.411 71.911, 126 68.241, 126 65.410 C 126 63.973, 125.308 63.829, 121.250 64.421 C 107.943 66.361, 106.673 66.314, 102.917 63.741 C 100.827 62.310, 97.284 61.069, 94.417 60.764 C 91.713 60.477, 88.800 59.948, 87.945 59.589 C 86.982 59.184, 84.759 60.185, 82.109 62.218" stroke="none" fill="black" fill-rule="evenodd"/>
</svg>