<svg xmlns="http://www.w3.org/2000/svg" width="192" height="144" viewBox="0 0 192 144" version="1.1">
	<path d="M -0 72.072 L -0 144.010 96.250 143.755 L 192.500 143.500 192.675 71.500 C 192.771 31.900, 192.628 0.040, 192.358 0.700 C 192.011 1.547, 191.141 1.624, 189.398 0.961 C 187.920 0.399, 149.426 0.045, 93.465 0.078 L 0 0.134 -0 72.072 M 0.474 72.500 C 0.474 112.100, 0.598 128.154, 0.750 108.176 C 0.901 88.198, 0.901 55.798, 0.750 36.176 C 0.598 16.554, 0.474 32.900, 0.474 72.500 M 106 17.059 C 106 17.641, 106.450 17.840, 107 17.500 C 107.550 17.160, 108 16.684, 108 16.441 C 108 16.198, 107.550 16, 107 16 C 106.450 16, 106 16.477, 106 17.059 M 77.150 20.950 C 77.580 22.239, 78.951 22.471, 79.075 21.275 C 79.116 20.876, 78.610 20.370, 77.950 20.150 C 77.290 19.930, 76.930 20.290, 77.150 20.950 M 98 38 C 98 38.550, 98.477 39, 99.059 39 C 99.641 39, 99.840 38.550, 99.500 38 C 99.160 37.450, 98.684 37, 98.441 37 C 98.198 37, 98 37.450, 98 38 M 68.500 47 C 68.840 47.550, 69.316 48, 69.559 48 C 69.802 48, 70 47.550, 70 47 C 70 46.450, 69.523 46, 68.941 46 C 68.359 46, 68.160 46.450, 68.500 47 M 77 49 C 77 49.550, 77.675 50, 78.500 50 C 79.325 50, 80 49.550, 80 49 C 80 48.450, 79.325 48, 78.500 48 C 77.675 48, 77 48.450, 77 49 M 88 50 C 88 50.550, 88.477 51, 89.059 51 C 89.641 51, 89.840 50.550, 89.500 50 C 89.160 49.450, 88.684 49, 88.441 49 C 88.198 49, 88 49.450, 88 50 M 98.588 49.857 C 98.200 50.486, 98.306 51, 98.824 51 C 99.343 51, 100.026 51.993, 100.344 53.206 C 100.661 54.420, 101.199 55.135, 101.539 54.795 C 101.878 54.455, 101.513 52.948, 100.726 51.446 C 99.815 49.707, 99.038 49.130, 98.588 49.857 M 82.446 52.087 C 82.077 52.685, 82.275 53.675, 82.887 54.287 C 83.704 55.104, 84 54.815, 84 53.200 C 84 50.785, 83.481 50.413, 82.446 52.087 M 103.079 53.583 C 103.127 54.748, 103.364 54.985, 103.683 54.188 C 103.972 53.466, 103.936 52.603, 103.604 52.271 C 103.272 51.939, 103.036 52.529, 103.079 53.583 M 72 53.941 C 72 54.459, 72.445 55.157, 72.989 55.493 C 73.555 55.843, 73.723 55.442, 73.382 54.552 C 72.717 52.820, 72 52.503, 72 53.941 M 101 59 C 101 59.550, 101.450 60, 102 60 C 102.550 60, 103 59.550, 103 59 C 103 58.450, 102.550 58, 102 58 C 101.450 58, 101 58.450, 101 59 M 110 61 C 110 61.550, 110.477 62, 111.059 62 C 111.641 62, 111.840 61.550, 111.500 61 C 111.160 60.450, 110.684 60, 110.441 60 C 110.198 60, 110 60.450, 110 61 M 79 65 C 79 65.550, 79.450 66, 80 66 C 80.550 66, 81 65.550, 81 65 C 81 64.450, 80.550 64, 80 64 C 79.450 64, 79 64.450, 79 65 M 105 67.500 C 105 68.325, 105.450 69, 106 69 C 106.550 69, 107 68.325, 107 67.500 C 107 66.675, 106.550 66, 106 66 C 105.450 66, 105 66.675, 105 67.500 M 74.188 69.063 C 74.428 69.784, 75.216 70.572, 75.938 70.813 C 76.688 71.063, 77.063 70.688, 76.813 69.938 C 76.572 69.216, 75.784 68.428, 75.063 68.188 C 74.313 67.938, 73.938 68.313, 74.188 69.063 M 70.500 71 C 70.840 71.550, 71.316 72, 71.559 72 C 71.802 72, 72 71.550, 72 71 C 72 70.450, 71.523 70, 70.941 70 C 70.359 70, 70.160 70.450, 70.500 71 M 74.543 73.931 C 74.226 74.443, 74.425 75.144, 74.984 75.490 C 75.543 75.835, 76 75.416, 76 74.559 C 76 72.802, 75.400 72.544, 74.543 73.931 M 112.553 75.915 C 112.231 76.436, 112.394 77.125, 112.915 77.447 C 113.436 77.769, 114.125 77.606, 114.447 77.085 C 114.769 76.564, 114.606 75.875, 114.085 75.553 C 113.564 75.231, 112.875 75.394, 112.553 75.915 M 81.262 79.690 C 82.192 80.620, 83.288 81.046, 83.697 80.636 C 84.107 80.226, 83.780 79.473, 82.971 78.961 C 80.536 77.421, 79.455 77.883, 81.262 79.690 M 98 81.559 C 98 82.416, 98.457 82.835, 99.016 82.490 C 99.575 82.144, 99.774 81.443, 99.457 80.931 C 98.600 79.544, 98 79.802, 98 81.559 M 70 82 C 70 82.550, 70.477 83, 71.059 83 C 71.641 83, 71.840 82.550, 71.500 82 C 71.160 81.450, 70.684 81, 70.441 81 C 70.198 81, 70 81.450, 70 82 M 107 82 C 107 83.253, 108.061 83.253, 110 82 C 111.213 81.216, 111.069 81.028, 109.250 81.015 C 108.013 81.007, 107 81.450, 107 82 M 87 84 C 87 85.100, 87.408 86, 87.906 86 C 88.405 86, 88.577 85.100, 88.290 84 C 88.002 82.900, 87.594 82, 87.383 82 C 87.173 82, 87 82.900, 87 84 M 104.500 83 C 104.160 83.550, 104.359 84, 104.941 84 C 105.523 84, 106 83.550, 106 83 C 106 82.450, 105.802 82, 105.559 82 C 105.316 82, 104.840 82.450, 104.500 83 M 91.500 86 C 91.840 86.550, 92.541 87, 93.059 87 C 93.577 87, 94 86.550, 94 86 C 94 85.450, 93.298 85, 92.441 85 C 91.584 85, 91.160 85.450, 91.500 86 M 96.500 89 C 96.840 89.550, 97.316 90, 97.559 90 C 97.802 90, 98 89.550, 98 89 C 98 88.450, 97.523 88, 96.941 88 C 96.359 88, 96.160 88.450, 96.500 89 M 114 90.392 C 114 91.891, 114.410 92.865, 114.911 92.555 C 115.915 91.935, 115.787 89.454, 114.696 88.362 C 114.313 87.980, 114 88.893, 114 90.392 M 93.500 90 C 93.840 90.550, 94.316 91, 94.559 91 C 94.802 91, 95 90.550, 95 90 C 95 89.450, 94.523 89, 93.941 89 C 93.359 89, 93.160 89.450, 93.500 90 M 78.500 92 C 78.840 92.550, 79.316 93, 79.559 93 C 79.802 93, 80 92.550, 80 92 C 80 91.450, 79.523 91, 78.941 91 C 78.359 91, 78.160 91.450, 78.500 92 M 107 94 C 107 94.550, 107.450 95, 108 95 C 108.550 95, 109 94.550, 109 94 C 109 93.450, 108.550 93, 108 93 C 107.450 93, 107 93.450, 107 94 M 85.250 94.720 C 83.830 95.227, 83.528 98, 84.893 98 C 85.735 98, 87.362 94.967, 86.774 94.494 C 86.623 94.373, 85.938 94.475, 85.250 94.720 M 97.500 95 C 97.840 95.550, 98.316 96, 98.559 96 C 98.802 96, 99 95.550, 99 95 C 99 94.450, 98.523 94, 97.941 94 C 97.359 94, 97.160 94.450, 97.500 95 M 114.250 98.496 C 112.393 100.605, 112.734 101.183, 115 99.768 C 116.100 99.081, 117 98.177, 117 97.759 C 117 96.569, 115.622 96.938, 114.250 98.496 M 94.569 101.112 C 94.947 101.723, 94.636 102.616, 93.878 103.096 C 93.120 103.577, 92.950 103.969, 93.500 103.969 C 95.383 103.969, 97.257 102.224, 96.569 101.112 C 96.191 100.500, 95.432 100, 94.882 100 C 94.332 100, 94.191 100.500, 94.569 101.112 M 99 104.059 C 99 104.641, 99.450 104.840, 100 104.500 C 100.550 104.160, 101 103.684, 101 103.441 C 101 103.198, 100.550 103, 100 103 C 99.450 103, 99 103.477, 99 104.059 M 90.225 108.445 C 90.341 109.850, 90.788 111, 91.218 111 C 92.355 111, 92.178 107.228, 91.007 106.504 C 90.431 106.148, 90.102 106.964, 90.225 108.445 M 83 110 C 83 110.550, 83.450 111, 84 111 C 84.550 111, 85 110.550, 85 110 C 85 109.450, 84.550 109, 84 109 C 83.450 109, 83 109.450, 83 110 M 103.553 110.915 C 103.231 111.436, 103.394 112.125, 103.915 112.447 C 104.436 112.769, 105.125 112.606, 105.447 112.085 C 105.769 111.564, 105.606 110.875, 105.085 110.553 C 104.564 110.231, 103.875 110.394, 103.553 110.915 M 85.500 118 C 85.160 118.550, 85.359 119, 85.941 119 C 86.523 119, 87 118.550, 87 118 C 87 117.450, 86.802 117, 86.559 117 C 86.316 117, 85.840 117.450, 85.500 118 M 93.429 119 C 93.429 121.339, 94.294 121.555, 95.903 119.617 C 96.792 118.546, 96.688 118.094, 95.444 117.617 C 94.560 117.278, 93.745 117, 93.632 117 C 93.520 117, 93.429 117.900, 93.429 119 M 97.400 123.250 C 97.607 125.037, 97.827 126.838, 97.888 127.250 C 97.950 127.662, 98.723 128, 99.607 128 C 100.751 128, 101.002 127.496, 100.478 126.250 C 100.074 125.287, 99.523 123.487, 99.255 122.250 C 98.500 118.772, 96.977 119.593, 97.400 123.250 M 100.500 121 C 100.160 121.550, 100.809 122, 101.941 122 C 103.073 122, 104 121.550, 104 121 C 104 120.450, 103.352 120, 102.559 120 C 101.766 120, 100.840 120.450, 100.500 121 M 93 126.059 C 93 127.191, 93.450 127.840, 94 127.500 C 94.550 127.160, 95 126.234, 95 125.441 C 95 124.648, 94.550 124, 94 124 C 93.450 124, 93 124.927, 93 126.059 M 87.494 127.009 C 86.710 128.278, 87.839 132, 89.008 132 C 89.489 132, 90.160 131.550, 90.500 131 C 90.840 130.450, 90.459 130, 89.653 130 C 88.680 130, 88.363 129.328, 88.710 128 C 89.262 125.889, 88.547 125.306, 87.494 127.009 M 94.117 131.375 L 91.886 133.750 94.318 133.750 C 96.211 133.750, 96.750 133.224, 96.750 131.375 C 96.750 130.069, 96.660 129, 96.549 129 C 96.439 129, 95.345 130.069, 94.117 131.375" stroke="none" fill="black" fill-rule="evenodd"/>
</svg>