<svg xmlns="http://www.w3.org/2000/svg" width="192" height="144" viewBox="0 0 192 144" version="1.1">
	<path d="M 0.081 33.250 C 0.146 59.887, 0.400 65.966, 1.355 63.814 C 3.832 58.237, 12.161 50.820, 19.959 47.250 C 40.356 37.910, 41.805 37.047, 46.687 31.333 C 49.599 27.925, 53.151 25.007, 55.740 23.897 C 60.493 21.860, 60.928 20.775, 58 18.268 C 55.149 15.827, 55.518 15.050, 59.250 15.634 C 61.250 15.947, 63.247 15.586, 64.442 14.694 C 66.342 13.278, 66.326 13.176, 63.729 10.090 C 61.602 7.562, 61.253 6.465, 61.973 4.570 C 62.468 3.270, 62.564 1.827, 62.186 1.363 C 61.809 0.900, 62.514 1.375, 63.752 2.418 C 66.845 5.022, 71.213 13.079, 70.665 15.171 C 70.199 16.957, 72.241 19.250, 75.250 20.317 C 77.650 21.168, 77.458 23, 74.969 23 C 71.750 23, 71.366 25.903, 74.261 28.347 C 77.358 30.961, 79 34.056, 79 37.279 C 79 40.021, 76.190 43, 73.604 43 C 72.323 43, 72.032 43.524, 72.498 44.992 C 73.215 47.253, 68.407 52.264, 66.250 51.504 C 64.359 50.837, 64.752 52.465, 66.964 54.467 C 68.044 55.445, 69.661 58.327, 70.557 60.872 C 71.453 63.418, 73.103 67.598, 74.223 70.163 C 75.678 73.494, 76.037 75.637, 75.478 77.663 C 75.048 79.223, 74.651 81.619, 74.598 82.986 C 74.538 84.509, 73.821 85.603, 72.750 85.810 C 71.788 85.995, 70.972 86.451, 70.938 86.823 C 70.449 92.126, 71.736 134.054, 72.555 139.517 L 73.227 144 97.453 144 L 121.678 144 123.267 135.750 C 124.141 131.213, 125.369 125.475, 125.996 123 C 126.623 120.525, 126.849 117.150, 126.498 115.500 C 126.147 113.850, 125.505 107.244, 125.071 100.820 C 124.464 91.836, 123.883 88.741, 122.555 87.412 C 121.455 86.312, 121.006 84.749, 121.319 83.110 C 121.590 81.694, 121.150 79.257, 120.342 77.695 C 118.762 74.640, 119.262 70.075, 121.566 66.515 C 122.283 65.407, 123.393 62.400, 124.033 59.832 C 124.673 57.265, 126.277 54.149, 127.598 52.908 C 130.225 50.440, 130.764 48.769, 128.676 49.571 C 126.663 50.343, 121.847 45.057, 122.549 42.845 C 122.979 41.491, 122.626 41, 121.222 41 C 120.171 41, 118.512 40.118, 117.536 39.040 C 114.830 36.050, 116.287 30.369, 120.880 26 L 124.578 22.481 123.333 16.491 C 122.648 13.196, 122.068 10.136, 122.044 9.691 C 121.951 7.972, 124.263 10.391, 125.560 13.370 C 127.106 16.923, 127.293 15.466, 126.091 9.250 C 125.329 5.313, 126.049 3.653, 127.500 6 C 127.840 6.550, 129.441 7, 131.059 7 C 134.425 7, 134.632 7.717, 132.404 11.669 C 130.369 15.280, 131.848 20, 135.015 20 C 138.310 20, 144.644 23.691, 146.981 26.974 C 148.163 28.634, 151.089 31.140, 153.483 32.543 C 158.239 35.330, 177.626 40.941, 182.625 40.977 C 187.176 41.010, 192 42.115, 192 43.125 C 192 43.606, 191.352 44, 190.559 44 C 188.145 44, 187.845 45.778, 189.932 47.722 C 191.509 49.191, 191.978 51.171, 192.253 57.531 C 192.442 61.914, 192.688 50.763, 192.799 32.750 L 193 0 96.500 0 L 0 0 0.081 33.250 M 0.448 33.500 C 0.447 51.650, 0.582 59.216, 0.748 50.314 C 0.913 41.411, 0.914 26.561, 0.749 17.314 C 0.583 8.066, 0.448 15.350, 0.448 33.500 M 140.443 50.091 C 140.149 50.568, 140.378 51.838, 140.954 52.914 C 141.529 53.989, 142 56.273, 142 57.989 C 142 61.855, 145.410 69.560, 147.471 70.351 C 149.411 71.095, 149.431 73.939, 147.516 76.674 C 146.330 78.366, 146.255 79.434, 147.143 81.979 C 148.101 84.729, 147.956 85.568, 146.081 88.104 C 144.886 89.721, 144.132 91.405, 144.405 91.847 C 144.678 92.289, 148.463 93.464, 152.816 94.458 C 159.524 95.990, 162.085 97.235, 169.615 102.624 C 174.502 106.121, 178.813 108.986, 179.196 108.991 C 179.579 108.996, 182.603 110.589, 185.916 112.530 L 191.939 116.060 192.295 127.780 C 192.491 134.226, 192.617 124.103, 192.576 105.285 C 192.507 74.093, 192.345 70.915, 190.750 69.321 C 189.332 67.904, 188.988 67.850, 188.937 69.036 C 188.899 69.898, 188.526 69.642, 188.030 68.415 C 187.542 67.209, 184.060 64.785, 179.769 62.665 C 172.173 58.912, 169.345 58.132, 170.580 60.130 C 170.964 60.751, 170.878 61.074, 170.389 60.848 C 165.960 58.796, 163.758 57.880, 159 56.109 C 155.975 54.983, 150.683 52.973, 147.240 51.643 C 143.797 50.313, 140.738 49.614, 140.443 50.091 M 52.459 54.074 C 50.832 55.168, 48.085 56.752, 46.355 57.595 C 44.626 58.438, 41.404 60.674, 39.196 62.564 C 36.988 64.454, 34.761 66, 34.246 66 C 33.731 66, 32.523 66.870, 31.561 67.933 C 30.599 68.995, 29.246 69.648, 28.554 69.382 C 27.862 69.117, 25.893 70.497, 24.178 72.450 C 20.716 76.393, 19.367 77.051, 21 74 C 22.763 70.706, 20.777 71.733, 16.022 76.574 C 13.559 79.082, 11.384 80.651, 11.187 80.061 C 10.990 79.471, 9.983 80.004, 8.948 81.244 L 7.067 83.500 7.033 80.750 C 6.994 77.543, 6.748 77.464, 3.465 79.615 L 1 81.230 1 110.615 C 1 126.777, 1.375 140, 1.833 140 C 2.291 140, 4.036 138.294, 5.712 136.209 C 7.387 134.124, 14.798 127.856, 22.179 122.279 C 32.810 114.247, 37.209 110.144, 43.340 102.538 C 50.532 93.617, 50.963 92.820, 49.430 91.287 C 48.192 90.050, 47.911 88.498, 48.304 85.069 C 48.688 81.715, 48.400 80.023, 47.220 78.707 C 45.738 77.054, 45.744 76.965, 47.306 77.564 C 48.584 78.054, 49 77.670, 49 76 C 49 74.443, 48.555 73.957, 47.500 74.362 C 45.333 75.193, 45.594 74.549, 49.500 69.432 C 52.044 66.100, 53 63.835, 53 61.146 C 53 59.110, 53.721 56.416, 54.602 55.158 C 56.770 52.063, 56.018 51.683, 52.459 54.074 M 144.015 72.250 C 144.024 72.938, 144.417 74.111, 144.890 74.857 C 145.989 76.591, 147.436 74.579, 146.620 72.452 C 145.938 70.675, 143.994 70.524, 144.015 72.250" stroke="none" fill="black" fill-rule="evenodd"/>
</svg>