<svg xmlns="http://www.w3.org/2000/svg" width="192" height="144" viewBox="0 0 192 144" version="1.1">
	<path d="M 123.488 27.405 C 118.584 29.628, 107.783 40.094, 109.725 40.742 C 110.232 40.911, 110.451 42.382, 110.212 44.012 C 109.612 48.096, 110.740 52, 112.519 52 C 114.437 52, 114.438 54.656, 112.520 55.729 C 111.280 56.423, 111.207 57.596, 112.070 62.956 C 113.284 70.495, 113.531 71, 116 71 C 118.479 71, 119.562 72.847, 117.538 73.624 C 116.423 74.052, 116.249 74.595, 116.954 75.445 C 118.374 77.155, 116.549 82.927, 114.031 84.691 C 112.914 85.473, 112 86.548, 112 87.078 C 112 87.609, 110.862 89.763, 109.471 91.864 C 107.874 94.278, 107.192 96.337, 107.621 97.455 C 108.207 98.981, 107.888 99.134, 105.309 98.568 C 103.170 98.098, 101.938 98.370, 100.981 99.523 C 99.769 100.983, 99.531 100.926, 98.454 98.914 C 97.508 97.146, 97.619 95.041, 98.999 88.596 C 99.953 84.143, 101.007 74.200, 101.341 66.500 C 101.676 58.800, 102.647 48.510, 103.500 43.633 C 105.200 33.916, 104.691 32, 100.413 32 C 97.513 32, 96.092 34.529, 96.709 38.586 C 97.207 41.857, 94.819 67.417, 92.607 82.500 L 91.286 91.500 89.757 88 C 88.916 86.075, 87.934 83.118, 87.574 81.429 C 86.739 77.508, 81.410 71, 79.034 71 C 78.033 71, 76.958 70.333, 76.645 69.517 C 75.734 67.143, 73.647 68.709, 71.640 73.272 C 70.617 75.597, 69.373 78.293, 68.874 79.262 C 67.239 82.441, 69.077 85.739, 75.085 90.404 C 80.995 94.994, 82.286 97.292, 79.545 98.344 C 78.745 98.651, 77.170 100.707, 76.045 102.911 C 73.152 108.583, 73.369 116.708, 76.705 127.638 C 78.193 132.512, 79.409 138.188, 79.407 140.250 L 79.403 144 122.958 144 L 166.514 144 166.246 139.250 C 166.099 136.637, 165.011 126.871, 163.829 117.546 C 161.680 100.596, 161.680 100.589, 163.590 87.546 C 165.935 71.532, 165.930 59.512, 163.575 51.500 C 162.605 48.200, 161.459 45.050, 161.028 44.500 C 160.597 43.950, 159.912 42.375, 159.506 41 C 157.264 33.409, 148.619 27.710, 137.500 26.493 C 134.200 26.132, 130.825 25.678, 130 25.485 C 129.175 25.292, 126.245 26.156, 123.488 27.405 M 43.505 31.985 C 42.994 33.595, 42.492 33.798, 40.999 32.999 C 37.824 31.300, 36.794 31.761, 38.206 34.250 C 38.907 35.487, 39.486 37.400, 39.491 38.500 C 39.497 39.788, 40.123 40.451, 41.250 40.361 C 42.212 40.285, 43 40.622, 43 41.111 C 43 41.600, 43.450 42, 44 42 C 44.550 42, 45 41.395, 45 40.655 C 45 39.915, 45.917 38.480, 47.038 37.466 C 48.806 35.866, 48.872 35.508, 47.538 34.761 C 46.692 34.288, 46 33.275, 46 32.509 C 46 30.206, 44.190 29.825, 43.505 31.985 M 77.629 73.791 C 76.904 74.964, 79.756 77.578, 80.715 76.619 C 81.081 76.252, 80.673 75.245, 79.809 74.380 C 78.874 73.445, 77.991 73.206, 77.629 73.791 M 105 139.500 C 105 140.325, 105.450 141, 106 141 C 106.550 141, 107 140.325, 107 139.500 C 107 138.675, 106.550 138, 106 138 C 105.450 138, 105 138.675, 105 139.500" stroke="none" fill="black" fill-rule="evenodd"/>
</svg>