<svg xmlns="http://www.w3.org/2000/svg" width="192" height="144" viewBox="0 0 192 144" version="1.1">
	<path d="M 63.950 4.750 C 63.857 13.507, 62.916 21.373, 61.593 24.449 C 56.965 35.211, 54.755 38.597, 48.164 45.021 C 37.676 55.245, 22.907 60.805, 9.648 59.522 C 5.879 59.157, 2.166 58.617, 1.398 58.322 C 0.214 57.868, 0 64.388, 0 100.893 L 0 144 58.928 144 L 117.856 144 118.492 138.250 C 118.842 135.088, 120.424 126.650, 122.007 119.500 C 128.837 88.657, 129.470 80.879, 125.500 76.595 C 124.125 75.111, 123 73.711, 123 73.485 C 123 73.258, 124.879 69.446, 127.175 65.014 L 131.350 56.956 128.062 53.564 C 126.254 51.699, 125.077 49.684, 125.447 49.086 C 125.816 48.489, 125.442 48, 124.616 48 C 122.101 48, 120.089 44.176, 120.977 41.082 C 121.559 39.051, 121.280 37.709, 119.904 35.919 C 115.813 30.597, 117.619 29.549, 128.244 31.075 C 140.390 32.819, 143.654 34.933, 146.453 42.866 C 147.281 45.212, 148.872 48.416, 149.990 49.985 C 151.107 51.554, 152.450 55.012, 152.975 57.669 C 153.499 60.326, 155.069 64.714, 156.464 67.419 C 157.859 70.125, 159.011 73.950, 159.024 75.919 C 159.037 77.889, 159.513 81.300, 160.081 83.500 C 160.649 85.700, 161.526 89.125, 162.031 91.112 C 163.055 95.144, 160.630 103.799, 157.638 106.791 C 156.121 108.308, 156 108.183, 156 105.092 C 156 102.281, 155.770 101.946, 154.541 102.966 C 153.343 103.960, 152.994 103.758, 152.588 101.838 C 152.316 100.552, 151.431 96.350, 150.622 92.500 C 149.812 88.650, 148.137 82.639, 146.899 79.141 L 144.649 72.782 142.946 77.137 C 140.960 82.217, 141.846 86.634, 146.248 93.603 C 147.674 95.860, 150.252 101.707, 151.977 106.595 C 153.703 111.484, 157.981 120.662, 161.484 126.992 C 164.988 133.321, 168.164 139.751, 168.543 141.281 L 169.232 144.061 180.866 143.781 L 192.500 143.500 192.825 129 C 193.003 121.025, 192.837 88.737, 192.455 57.250 L 191.761 0 127.880 0 L 64 0 63.950 4.750 M 0.459 101 C 0.459 124.925, 0.589 134.713, 0.749 122.750 C 0.908 110.788, 0.908 91.213, 0.749 79.250 C 0.589 67.288, 0.459 77.075, 0.459 101" stroke="none" fill="black" fill-rule="evenodd"/>
</svg>