<svg xmlns="http://www.w3.org/2000/svg" width="192" height="144" viewBox="0 0 192 144" version="1.1">
	<path d="M 0 72 L 0 144 26.875 144 L 53.751 144 49.014 139.111 C 46.409 136.423, 43.365 133.933, 42.249 133.579 C 39.365 132.664, 38.739 128.296, 41.240 126.544 C 42.327 125.783, 42.935 124.703, 42.590 124.145 C 41.822 122.902, 47.242 118.791, 52 117.008 C 57.377 114.992, 65.161 110.414, 68.600 107.245 C 70.304 105.673, 74.266 100.917, 77.404 96.674 L 83.108 88.960 80.991 85.987 C 79.826 84.352, 79.080 82.673, 79.332 82.257 C 80.116 80.961, 78.062 69.691, 76.314 65.699 C 75.087 62.895, 74.898 61.192, 75.595 59.209 C 76.437 56.815, 76.220 56.356, 73.605 55.011 C 69.734 53.019, 68.471 49.536, 70.774 47.205 C 71.723 46.244, 73.625 43.023, 75 40.048 C 77.485 34.671, 77.664 34.096, 77.885 30.753 C 78.069 27.968, 84.943 21.063, 90.167 18.415 C 109.101 8.821, 133.578 12.754, 148.882 27.851 C 158.220 37.062, 162.355 46.813, 159.905 53.843 C 158.370 58.246, 149.481 64.535, 146.612 63.247 C 145.009 62.528, 144.036 62.746, 142.575 64.150 C 140.389 66.251, 136.845 66.545, 134.133 64.851 C 132.746 63.985, 131.473 63.988, 128.961 64.864 C 126.136 65.848, 125.030 65.729, 121.699 64.081 C 116.820 61.667, 113.354 62.650, 112.408 66.715 C 112.051 68.247, 110.922 72.200, 109.899 75.500 C 108.877 78.800, 108.099 82.400, 108.171 83.500 C 108.243 84.600, 107.750 87.475, 107.076 89.888 C 106.045 93.573, 106.083 94.512, 107.313 95.741 C 109.283 97.712, 112.789 96.495, 113.187 93.703 C 113.359 92.491, 113.944 91.500, 114.486 91.500 C 116.253 91.500, 116.219 95.101, 114.433 97.074 C 110.812 101.075, 103 98.325, 103 93.050 C 103 91.452, 102.345 89.963, 101.500 89.638 C 100.631 89.305, 100 89.621, 100 90.390 C 100 94.278, 104.376 120.607, 106.168 127.500 C 107.311 131.900, 108.679 137.417, 109.207 139.761 L 110.167 144.022 151.333 143.761 L 192.500 143.500 192.757 71.750 L 193.013 0 154.038 0 C 119.804 0, 115.133 0.182, 115.638 1.500 C 115.955 2.325, 115.764 3, 115.214 3 C 114.664 3, 113.955 2.325, 113.638 1.500 C 113.136 0.191, 105.859 0, 56.531 0 L 0 0 0 72 M 0.471 72.500 C 0.465 112.100, 0.590 134.294, 0.749 121.820 C 1.010 101.297, 1.202 99.096, 2.769 98.686 C 4.403 98.258, 4.402 98.225, 2.760 98.116 C 1.135 98.008, 1.001 94.756, 0.750 49.250 C 0.602 22.438, 0.476 32.900, 0.471 72.500 M 107.500 3 C 107.160 3.550, 107.557 4, 108.382 4 C 109.207 4, 110.160 3.550, 110.500 3 C 110.840 2.450, 110.443 2, 109.618 2 C 108.793 2, 107.840 2.450, 107.500 3 M 74.564 4.707 C 74.022 6.132, 74.136 6.247, 75.124 5.267 C 75.808 4.588, 76.115 3.781, 75.807 3.474 C 75.499 3.166, 74.940 3.721, 74.564 4.707 M 89.590 52.890 C 87.913 53.547, 88.157 53.936, 91.584 56.069 C 95.747 58.660, 104.755 61.206, 105.499 60.002 C 106.279 58.740, 104.770 58, 101.418 58 C 99.104 58, 97.355 57.137, 95.338 55 C 92.270 51.750, 92.387 51.793, 89.590 52.890 M 188.491 60.041 C 188.083 61.900, 188.294 63.649, 189.034 64.541 C 191.122 67.056, 192 66.156, 192 61.500 C 192 56.182, 189.561 55.168, 188.491 60.041 M 101.467 66.867 C 101.210 67.123, 101 68.357, 101 69.608 C 101 70.859, 100.550 72.160, 100 72.500 C 99.450 72.840, 99 75.116, 99 77.559 C 99 81.944, 99.043 82, 102.403 82 C 105.742 82, 105.844 81.871, 107.903 75.095 C 109.056 71.297, 109.999 67.809, 109.997 67.345 C 109.994 66.471, 102.294 66.039, 101.467 66.867 M 175.531 82.293 C 175.103 83.279, 175.034 84.367, 175.376 84.710 C 176.392 85.725, 177.211 84.299, 176.743 82.328 C 176.329 80.581, 176.275 80.580, 175.531 82.293 M 38.500 83 C 38.160 83.550, 38.332 84, 38.882 84 C 39.432 84, 40.160 83.550, 40.500 83 C 40.840 82.450, 40.668 82, 40.118 82 C 39.568 82, 38.840 82.450, 38.500 83 M 31 125 C 30.175 125.533, 29.950 125.969, 30.500 125.969 C 31.050 125.969, 32.175 125.533, 33 125 C 33.825 124.467, 34.050 124.031, 33.500 124.031 C 32.950 124.031, 31.825 124.467, 31 125" stroke="none" fill="black" fill-rule="evenodd"/>
</svg>