<svg xmlns="http://www.w3.org/2000/svg" width="192" height="144" viewBox="0 0 192 144" version="1.1">
	<path d="M 0 72 L 0 144 33.500 144 L 67 144 67.034 141.250 C 67.070 138.360, 69.677 127.301, 72.515 118 C 73.438 114.975, 74.516 110.475, 74.910 108 C 75.305 105.525, 76.329 102.150, 77.186 100.500 C 78.930 97.145, 84 76.670, 84 72.984 C 84 71.678, 82.835 69.393, 81.410 67.906 C 79.217 65.617, 78.996 64.877, 79.963 63.070 C 81.008 61.117, 80.899 60.987, 78.684 61.543 C 76.824 62.010, 75.770 61.523, 74.132 59.440 C 72.959 57.950, 72 55.843, 72 54.758 C 72 53.416, 71.521 52.970, 70.500 53.362 C 69.513 53.740, 69 53.329, 69 52.158 C 69 49.956, 73.426 38.525, 75.511 35.344 C 79.294 29.570, 90.309 25.029, 100.579 25.011 C 105.706 25.002, 107.385 25.482, 111.312 28.083 C 118.840 33.069, 121.533 36.138, 123.966 42.500 C 126.636 49.484, 127.055 61.287, 125.615 89 L 124.758 105.500 128.129 109.418 C 129.983 111.573, 133.679 115.623, 136.343 118.418 C 142.233 124.599, 152.913 138.642, 154.102 141.768 C 154.965 144.039, 155.015 144.044, 173.734 143.772 L 192.500 143.500 192.757 71.750 L 193.013 0 96.507 0 L 0 0 0 72 M 0.474 72.500 C 0.474 112.100, 0.598 128.154, 0.750 108.176 C 0.901 88.198, 0.901 55.798, 0.750 36.176 C 0.598 16.554, 0.474 32.900, 0.474 72.500" stroke="none" fill="black" fill-rule="evenodd"/>
</svg>