<svg xmlns="http://www.w3.org/2000/svg" width="192" height="144" viewBox="0 0 192 144" version="1.1">
	<path d="M 0 31.969 C 0 57.085, 0.268 63.854, 1.250 63.547 C 1.938 63.333, 7.450 62.889, 13.500 62.560 C 31.169 61.601, 71.643 58.515, 79.500 57.529 C 81.150 57.321, 85.561 56.838, 89.303 56.454 L 96.106 55.756 95.803 52.163 C 95.534 48.980, 95.120 48.494, 92.157 47.893 C 90.319 47.520, 88.316 46.716, 87.707 46.107 C 87.098 45.498, 84.980 45, 83 45 C 81.020 45, 78.887 44.487, 78.260 43.860 C 76.826 42.426, 67.994 40.673, 61.750 40.583 C 57.482 40.522, 57 40.282, 57 38.218 C 57 36.954, 57.982 34.026, 59.183 31.710 C 60.383 29.395, 61.420 25.925, 61.487 24 C 61.618 20.218, 64.659 14.671, 66.109 15.568 C 66.599 15.870, 67.008 15.529, 67.017 14.809 C 67.046 12.615, 71.348 9.242, 80.130 4.527 L 88.500 0.033 68.923 0.017 L 49.346 0 49.770 2.887 C 50.009 4.516, 49.280 7.839, 48.097 10.514 C 45.856 15.580, 45.386 22.254, 46.975 26.434 C 47.511 27.845, 49.424 29.898, 51.225 30.996 C 54.368 32.912, 54.399 32.991, 52 32.961 C 44.097 32.861, 38.151 22.884, 39.578 12.121 C 39.966 9.201, 39.747 5.763, 39.037 3.611 L 37.845 0 18.922 0 L 0 0 0 31.969 M 121.932 2.904 C 124.100 5.949, 124.709 10, 123 10 C 122.408 10, 121.987 13.771, 121.968 19.250 C 121.935 28.895, 120.568 32.816, 117.631 31.689 C 115.903 31.026, 115.004 32.945, 114.989 37.332 C 114.969 43.072, 113.786 47.853, 111.879 49.900 C 109.942 51.979, 109.403 54, 110.785 54 C 114.886 54, 170.220 42.106, 180.500 39.015 C 182.150 38.518, 185.412 37.620, 187.750 37.018 L 192 35.923 192 17.961 L 192 0 155.932 0 L 119.864 0 121.932 2.904 M 186.328 87.153 C 176.220 99.558, 174.575 101, 170.533 101 C 167.758 101, 165.673 101.935, 162.168 104.750 C 159.601 106.813, 157.275 108.752, 157 109.060 C 156.725 109.369, 153.452 111.778, 149.726 114.415 C 137.804 122.854, 116.878 129.540, 93.500 132.382 C 67.669 135.522, 51.928 136.381, 42.475 135.166 C 33.354 133.995, 14.175 129.499, 6 126.616 C 3.525 125.743, 1.163 125.023, 0.750 125.015 C 0.337 125.007, 0 129.275, 0 134.500 L 0 144 96.031 144 C 171.949 144, 192.157 143.738, 192.515 142.750 C 192.764 142.063, 192.637 127.844, 192.234 111.153 L 191.500 80.807 186.328 87.153 M 0.365 134.500 C 0.368 140, 0.536 142.122, 0.738 139.216 C 0.941 136.311, 0.939 131.811, 0.734 129.216 C 0.528 126.622, 0.363 129, 0.365 134.500" stroke="none" fill="black" fill-rule="evenodd"/>
</svg>