<svg xmlns="http://www.w3.org/2000/svg" width="192" height="144" viewBox="0 0 192 144" version="1.1">
	<path d="M 0 72 L 0 144 44.500 144 L 89 144 89 140.441 C 89 138.484, 89.379 137.116, 89.842 137.402 C 90.304 137.688, 90.602 139.290, 90.502 140.961 C 90.365 143.261, 90.748 144, 92.077 144 C 93.043 144, 94.062 143.437, 94.341 142.750 C 94.685 141.901, 95.113 141.836, 95.674 142.548 C 96.128 143.124, 97.513 143.659, 98.750 143.736 C 100.357 143.836, 101 143.322, 101 141.938 C 101 140.872, 101.450 140, 102 140 C 102.550 140, 102.947 140.338, 102.882 140.750 C 102.366 144.013, 102.517 144.023, 147.750 143.760 L 192.500 143.500 192.757 71.750 L 193.013 0 96.507 0 L 0 0 0 72 M 0.474 72.500 C 0.474 112.100, 0.598 128.154, 0.750 108.176 C 0.901 88.198, 0.901 55.798, 0.750 36.176 C 0.598 16.554, 0.474 32.900, 0.474 72.500 M 84 12 C 84 12.550, 84.477 13, 85.059 13 C 85.641 13, 85.840 12.550, 85.500 12 C 85.160 11.450, 84.684 11, 84.441 11 C 84.198 11, 84 11.450, 84 12 M 96.625 18.798 C 96.354 19.237, 96.545 20.249, 97.051 21.048 C 97.768 22.182, 97.973 22.007, 97.985 20.250 C 98 17.937, 97.492 17.394, 96.625 18.798 M 61 30.941 C 61 31.459, 61.450 32.160, 62 32.500 C 62.550 32.840, 63 32.416, 63 31.559 C 63 30.702, 62.550 30, 62 30 C 61.450 30, 61 30.423, 61 30.941 M 83 33.882 C 83 34.432, 83.450 35.160, 84 35.500 C 84.550 35.840, 85 35.668, 85 35.118 C 85 34.568, 84.550 33.840, 84 33.500 C 83.450 33.160, 83 33.332, 83 33.882 M 98.225 35.555 C 98.102 37.036, 98.431 37.852, 99.007 37.496 C 100.178 36.772, 100.355 33, 99.218 33 C 98.788 33, 98.341 34.150, 98.225 35.555 M 70.500 35 C 70.840 35.550, 71.316 36, 71.559 36 C 71.802 36, 72 35.550, 72 35 C 72 34.450, 71.523 34, 70.941 34 C 70.359 34, 70.160 34.450, 70.500 35 M 75.015 35.750 C 75.024 36.163, 75.449 37.162, 75.961 37.971 C 77.113 39.793, 78.465 38.653, 77.655 36.543 C 77.057 34.985, 74.987 34.363, 75.015 35.750 M 105 36.941 C 105 37.459, 105.450 38.160, 106 38.500 C 106.550 38.840, 107 38.416, 107 37.559 C 107 36.702, 106.550 36, 106 36 C 105.450 36, 105 36.423, 105 36.941 M 100 39 C 100 39.550, 100.450 40, 101 40 C 101.550 40, 102 39.550, 102 39 C 102 38.450, 101.550 38, 101 38 C 100.450 38, 100 38.450, 100 39 M 83.543 39.931 C 83.226 40.443, 83.425 41.144, 83.984 41.490 C 84.543 41.835, 85 41.416, 85 40.559 C 85 38.802, 84.400 38.544, 83.543 39.931 M 81 42.441 C 81 43.298, 81.450 44, 82 44 C 82.550 44, 83 43.577, 83 43.059 C 83 42.541, 82.550 41.840, 82 41.500 C 81.450 41.160, 81 41.584, 81 42.441 M 105.500 42 C 105.160 42.550, 105.359 43, 105.941 43 C 106.523 43, 107 42.550, 107 42 C 107 41.450, 106.802 41, 106.559 41 C 106.316 41, 105.840 41.450, 105.500 42 M 114.079 47.583 C 114.127 48.748, 114.364 48.985, 114.683 48.188 C 114.972 47.466, 114.936 46.603, 114.604 46.271 C 114.272 45.939, 114.036 46.529, 114.079 47.583 M 57.500 51 C 57.840 51.550, 58.316 52, 58.559 52 C 58.802 52, 59 51.550, 59 51 C 59 50.450, 58.523 50, 57.941 50 C 57.359 50, 57.160 50.450, 57.500 51 M 74 52.500 C 74 53.325, 74.436 54, 74.969 54 C 75.501 54, 75.678 53.325, 75.362 52.500 C 75.045 51.675, 74.609 51, 74.393 51 C 74.177 51, 74 51.675, 74 52.500 M 64 52.878 C 64 53.360, 64.675 54.315, 65.500 55 C 66.753 56.040, 67 55.896, 67 54.122 C 67 52.902, 66.362 52, 65.500 52 C 64.675 52, 64 52.395, 64 52.878 M 108.459 55.067 C 108.096 55.653, 108.040 56.373, 108.333 56.667 C 109.050 57.383, 111 56.121, 111 54.941 C 111 53.663, 109.274 53.748, 108.459 55.067 M 67 60.382 C 67 61.207, 67.450 62.160, 68 62.500 C 68.550 62.840, 69 62.443, 69 61.618 C 69 60.793, 68.550 59.840, 68 59.500 C 67.450 59.160, 67 59.557, 67 60.382 M 64 61 C 64 61.550, 64.450 62, 65 62 C 65.550 62, 66 61.550, 66 61 C 66 60.450, 65.550 60, 65 60 C 64.450 60, 64 60.450, 64 61 M 107 62.059 C 107 62.641, 107.450 62.840, 108 62.500 C 108.550 62.160, 109 61.684, 109 61.441 C 109 61.198, 108.550 61, 108 61 C 107.450 61, 107 61.477, 107 62.059 M 73 65 C 73 65.550, 73.450 66, 74 66 C 74.550 66, 75 65.550, 75 65 C 75 64.450, 74.550 64, 74 64 C 73.450 64, 73 64.450, 73 65 M 121.729 66.604 C 121.328 67.005, 121 68.023, 121 68.867 C 121 69.992, 121.296 70.104, 122.112 69.287 C 122.724 68.676, 123.052 67.657, 122.842 67.025 C 122.631 66.392, 122.130 66.203, 121.729 66.604 M 98.597 67.844 C 98.251 68.404, 98.455 69.163, 99.050 69.531 C 100.588 70.481, 101.580 69.180, 100.296 67.896 C 99.578 67.178, 99.019 67.161, 98.597 67.844 M 127 68.059 C 127 68.641, 127.450 68.840, 128 68.500 C 128.550 68.160, 129 67.684, 129 67.441 C 129 67.198, 128.550 67, 128 67 C 127.450 67, 127 67.477, 127 68.059 M 110.195 71.500 C 110.215 73.150, 110.439 73.704, 110.693 72.731 C 110.947 71.758, 110.930 70.408, 110.656 69.731 C 110.382 69.054, 110.175 69.850, 110.195 71.500 M 78 71 C 78 71.550, 78.450 72, 79 72 C 79.550 72, 80 71.550, 80 71 C 80 70.450, 79.550 70, 79 70 C 78.450 70, 78 70.450, 78 71 M 62.694 71.639 C 61.537 72.796, 62.963 73.822, 64.990 73.292 C 66.083 73.007, 66.731 72.374, 66.430 71.886 C 65.793 70.856, 63.621 70.712, 62.694 71.639 M 115.500 72 C 115.160 72.550, 115.584 73, 116.441 73 C 117.298 73, 118 72.550, 118 72 C 118 71.450, 117.577 71, 117.059 71 C 116.541 71, 115.840 71.450, 115.500 72 M 88 74 C 88 74.550, 88.450 75, 89 75 C 89.550 75, 90 74.550, 90 74 C 90 73.450, 89.550 73, 89 73 C 88.450 73, 88 73.450, 88 74 M 84 75 C 84 75.550, 84.450 76, 85 76 C 85.550 76, 86 75.550, 86 75 C 86 74.450, 85.550 74, 85 74 C 84.450 74, 84 74.450, 84 75 M 85 78 C 85 78.550, 85.450 79, 86 79 C 86.550 79, 87 78.550, 87 78 C 87 77.450, 86.550 77, 86 77 C 85.450 77, 85 77.450, 85 78 M 90 78 C 90 78.550, 90.702 79, 91.559 79 C 92.416 79, 92.840 78.550, 92.500 78 C 92.160 77.450, 91.459 77, 90.941 77 C 90.423 77, 90 77.450, 90 78 M 119 79.059 C 119 79.641, 119.450 79.840, 120 79.500 C 120.550 79.160, 121 78.684, 121 78.441 C 121 78.198, 120.550 78, 120 78 C 119.450 78, 119 78.477, 119 79.059 M 121.667 80.667 C 120.629 81.704, 120.883 85, 122 85 C 122.550 85, 123 83.875, 123 82.500 C 123 79.882, 122.769 79.564, 121.667 80.667 M 62 82 C 62 82.550, 62.477 83, 63.059 83 C 63.641 83, 63.840 82.550, 63.500 82 C 63.160 81.450, 62.684 81, 62.441 81 C 62.198 81, 62 81.450, 62 82 M 98 82 C 98 82.550, 98.450 83, 99 83 C 99.550 83, 100 82.550, 100 82 C 100 81.450, 99.550 81, 99 81 C 98.450 81, 98 81.450, 98 82 M 111 83 C 110.207 83.490, 109.890 84.223, 110.296 84.629 C 110.701 85.035, 111.558 84.842, 112.200 84.200 C 113.711 82.689, 112.868 81.846, 111 83 M 73 84 C 73 84.550, 73.477 85, 74.059 85 C 74.641 85, 74.840 84.550, 74.500 84 C 74.160 83.450, 73.684 83, 73.441 83 C 73.198 83, 73 83.450, 73 84 M 99 87 C 99 87.550, 99.450 88, 100 88 C 100.550 88, 101 87.550, 101 87 C 101 86.450, 100.550 86, 100 86 C 99.450 86, 99 86.450, 99 87 M 79.150 88.950 C 79.370 89.610, 79.876 90.116, 80.275 90.075 C 81.471 89.951, 81.239 88.580, 79.950 88.150 C 79.290 87.930, 78.930 88.290, 79.150 88.950 M 95 89 C 95 89.550, 95.450 90, 96 90 C 96.550 90, 97 89.550, 97 89 C 97 88.450, 96.550 88, 96 88 C 95.450 88, 95 88.450, 95 89 M 123 91.469 C 123 92.363, 123.586 92.712, 124.500 92.362 C 125.325 92.045, 126 91.384, 126 90.893 C 126 90.402, 125.325 90, 124.500 90 C 123.675 90, 123 90.661, 123 91.469 M 120 93 C 120 93.550, 120.450 94, 121 94 C 121.550 94, 122 93.550, 122 93 C 122 92.450, 121.550 92, 121 92 C 120.450 92, 120 92.450, 120 93 M 94 95 C 94 95.550, 94.450 96, 95 96 C 95.550 96, 96 95.550, 96 95 C 96 94.450, 95.550 94, 95 94 C 94.450 94, 94 94.450, 94 95 M 103.200 96.051 C 101.748 98.377, 101.698 99, 102.965 99 C 104.281 99, 106.203 95.243, 105.203 94.625 C 104.761 94.353, 103.860 94.994, 103.200 96.051 M 96 98.500 C 95.306 99.337, 95.197 100, 95.755 100 C 96.305 100, 97.315 99.325, 98 98.500 C 98.694 97.663, 98.803 97, 98.245 97 C 97.695 97, 96.685 97.675, 96 98.500 M 98 104.441 C 98 105.234, 98.450 106.160, 99 106.500 C 99.550 106.840, 100 106.191, 100 105.059 C 100 103.927, 99.550 103, 99 103 C 98.450 103, 98 103.648, 98 104.441 M 90.583 106.643 C 90.237 107.547, 90.159 108.492, 90.410 108.743 C 91.205 109.538, 93 107.942, 93 106.441 C 93 104.479, 91.361 104.617, 90.583 106.643 M 110 109 C 110 109.550, 110.450 110, 111 110 C 111.550 110, 112 109.550, 112 109 C 112 108.450, 111.550 108, 111 108 C 110.450 108, 110 108.450, 110 109 M 105 110 C 105 110.550, 105.450 111, 106 111 C 106.550 111, 107 110.550, 107 110 C 107 109.450, 106.550 109, 106 109 C 105.450 109, 105 109.450, 105 110 M 108.500 114 C 108.160 114.550, 108.359 115, 108.941 115 C 109.523 115, 110 114.550, 110 114 C 110 113.450, 109.802 113, 109.559 113 C 109.316 113, 108.840 113.450, 108.500 114 M 94 115.059 C 94 115.641, 94.450 115.840, 95 115.500 C 95.550 115.160, 96 114.684, 96 114.441 C 96 114.198, 95.550 114, 95 114 C 94.450 114, 94 114.477, 94 115.059 M 119 117 C 119 117.550, 119.450 118, 120 118 C 120.550 118, 121 117.550, 121 117 C 121 116.450, 120.550 116, 120 116 C 119.450 116, 119 116.450, 119 117 M 84 119.500 C 84 120.325, 84.450 121, 85 121 C 85.550 121, 86 120.325, 86 119.500 C 86 118.675, 85.550 118, 85 118 C 84.450 118, 84 118.675, 84 119.500 M 101.500 119 C 101.160 119.550, 101.332 120, 101.882 120 C 102.432 120, 103.160 119.550, 103.500 119 C 103.840 118.450, 103.668 118, 103.118 118 C 102.568 118, 101.840 118.450, 101.500 119 M 93 120 C 93 120.550, 93.477 121, 94.059 121 C 94.641 121, 94.840 120.550, 94.500 120 C 94.160 119.450, 93.684 119, 93.441 119 C 93.198 119, 93 119.450, 93 120 M 106.306 121.639 C 106.729 122.063, 108.288 122.571, 109.770 122.770 C 111.252 122.968, 112.117 122.784, 111.694 122.361 C 111.271 121.937, 109.712 121.429, 108.230 121.230 C 106.748 121.032, 105.883 121.216, 106.306 121.639 M 102.607 124.582 C 101.749 126.817, 101.817 127, 103.500 127 C 104.333 127, 105 126.111, 105 125 C 105 122.616, 103.464 122.347, 102.607 124.582 M 106 125.059 C 106 125.641, 106.450 125.840, 107 125.500 C 107.550 125.160, 108 124.684, 108 124.441 C 108 124.198, 107.550 124, 107 124 C 106.450 124, 106 124.477, 106 125.059 M 95 129 C 95 129.550, 95.702 130, 96.559 130 C 97.416 130, 97.840 129.550, 97.500 129 C 97.160 128.450, 96.459 128, 95.941 128 C 95.423 128, 95 128.450, 95 129 M 104 129 C 104 129.550, 104.450 130, 105 130 C 105.550 130, 106 129.550, 106 129 C 106 128.450, 105.550 128, 105 128 C 104.450 128, 104 128.450, 104 129 M 84 130 C 84 130.550, 84.477 131, 85.059 131 C 85.641 131, 85.840 130.550, 85.500 130 C 85.160 129.450, 84.684 129, 84.441 129 C 84.198 129, 84 129.450, 84 130 M 104.496 133.007 C 104.153 133.561, 104.596 134.292, 105.480 134.631 C 107.394 135.365, 108.461 134.556, 107.541 133.067 C 106.711 131.723, 105.306 131.696, 104.496 133.007 M 85.079 134.583 C 85.127 135.748, 85.364 135.985, 85.683 135.188 C 85.972 134.466, 85.936 133.603, 85.604 133.271 C 85.272 132.939, 85.036 133.529, 85.079 134.583 M 99 135.500 C 99 136.325, 99.436 137, 99.969 137 C 100.501 137, 100.678 136.325, 100.362 135.500 C 100.045 134.675, 99.609 134, 99.393 134 C 99.177 134, 99 134.675, 99 135.500 M 102 136 C 102 136.550, 102.450 137, 103 137 C 103.550 137, 104 136.550, 104 136 C 104 135.450, 103.550 135, 103 135 C 102.450 135, 102 135.450, 102 136 M 85 138 C 85 138.550, 85.450 139, 86 139 C 86.550 139, 87 138.550, 87 138 C 87 137.450, 86.550 137, 86 137 C 85.450 137, 85 137.450, 85 138 M 96.607 139.582 C 95.727 141.876, 95.798 142, 98 142 C 100.202 142, 100.273 141.876, 99.393 139.582 C 98.617 137.558, 97.383 137.558, 96.607 139.582" stroke="none" fill="black" fill-rule="evenodd"/>
</svg>