<svg xmlns="http://www.w3.org/2000/svg" width="192" height="144" viewBox="0 0 192 144" version="1.1">
	<path d="M 0 72 L 0 144 25.607 144 C 48.546 144, 51.151 143.835, 50.607 142.418 C 50.273 141.548, 49.986 140.311, 49.968 139.668 C 49.951 139.026, 49.229 139.400, 48.365 140.500 L 46.793 142.500 47.338 140.500 C 48.004 138.055, 48.246 134.029, 48.106 127.731 C 48.002 123.055, 47.946 122.975, 45.250 123.610 C 43.738 123.967, 42.073 124.650, 41.550 125.129 C 41.028 125.608, 38.951 126, 36.935 126 C 34.765 126, 32.216 126.829, 30.686 128.032 C 26.009 131.711, 19.588 127.538, 23.217 123.178 C 23.985 122.255, 25.121 120.305, 25.743 118.844 C 26.517 117.021, 27.913 115.970, 30.186 115.495 C 34.234 114.651, 40.821 110.960, 43.435 108.072 C 45.738 105.527, 46.728 99.901, 47.935 82.500 C 48.828 69.622, 50.280 63.660, 55.054 53.261 C 56.124 50.929, 57 48.469, 57 47.794 C 57 44.370, 60.439 37.928, 62.549 37.398 C 65.286 36.711, 68.656 38.353, 69.430 40.749 C 69.741 41.712, 71.250 43.212, 72.785 44.081 C 74.319 44.951, 80.175 51.790, 85.797 59.279 C 91.420 66.767, 96.452 73.161, 96.980 73.487 C 97.508 73.814, 100.091 71.275, 102.720 67.845 C 111.654 56.193, 123.220 43.955, 127.867 41.239 C 130.415 39.750, 133.553 37.287, 134.839 35.766 C 137.598 32.503, 140.013 32.252, 142.475 34.973 C 143.769 36.403, 144.087 37.815, 143.629 40.103 C 143.177 42.365, 143.571 44.188, 145.018 46.529 C 150.493 55.388, 153.924 72.249, 152.135 81.500 C 150.453 90.190, 148.042 106.136, 148.019 108.715 C 147.994 111.633, 153.332 117.619, 158.154 120.079 C 162.452 122.271, 166.625 127.875, 167.603 132.766 C 168.381 136.657, 167.193 136.899, 164 133.500 C 162.708 132.125, 160.637 131, 159.398 131 C 157.333 131, 155.536 129.324, 152.282 124.358 C 151.130 122.601, 151.005 122.595, 149.982 124.250 C 149.387 125.213, 148.257 126, 147.469 126 C 145.791 126, 145.276 128.075, 144.672 137.268 L 144.227 144.035 168.364 143.768 L 192.500 143.500 192.757 71.750 L 193.013 0 96.507 0 L 0 0 0 72 M 0.474 72.500 C 0.474 112.100, 0.598 128.154, 0.750 108.176 C 0.901 88.198, 0.901 55.798, 0.750 36.176 C 0.598 16.554, 0.474 32.900, 0.474 72.500" stroke="none" fill="black" fill-rule="evenodd"/>
</svg>