<svg xmlns="http://www.w3.org/2000/svg" width="192" height="144" viewBox="0 0 192 144" version="1.1">
	<path d="M -0 72.005 L -0 144.010 96.250 143.755 L 192.500 143.500 192.757 71.750 L 193.013 0 96.507 0 L 0 0 -0 72.005 M 0.474 72.500 C 0.474 112.100, 0.598 128.154, 0.750 108.176 C 0.901 88.198, 0.901 55.798, 0.750 36.176 C 0.598 16.554, 0.474 32.900, 0.474 72.500 M 68.250 50.662 C 67.563 50.940, 67 51.818, 67 52.615 C 67 53.411, 66.328 54.321, 65.506 54.636 C 64.684 54.952, 64.272 55.630, 64.590 56.145 C 64.931 56.697, 64.007 56.806, 62.334 56.411 C 60.395 55.953, 59.816 56.068, 60.500 56.774 C 61.050 57.341, 62.395 57.967, 63.489 58.164 C 66.144 58.643, 66.401 60.963, 64.125 63.900 C 62.625 65.835, 60.639 66.558, 53.882 67.625 C 47.730 68.596, 45.054 69.493, 43.822 70.996 C 42.826 72.211, 41.888 72.628, 41.513 72.021 C 40.681 70.675, 39 70.710, 39 72.074 C 39 74.142, 50.049 84.709, 55.065 87.439 C 59.786 90.008, 60.880 90.186, 71.313 90.075 C 91.270 89.862, 115.131 85.938, 129.630 80.486 C 136.750 77.807, 147 71.293, 147 69.446 C 147 68.747, 144.661 65.375, 141.801 61.953 L 136.603 55.732 123.551 56.303 C 116.373 56.618, 105.325 57.800, 99 58.931 C 92.675 60.062, 87.275 60.990, 87 60.995 C 86.725 60.999, 86.654 58.527, 86.843 55.501 C 87.202 49.732, 86.760 49.256, 82.566 50.898 C 81.237 51.418, 81.003 51.884, 81.816 52.387 C 82.467 52.789, 83 54.819, 83 56.899 C 83 59.979, 82.529 60.894, 80.453 61.839 C 76.623 63.585, 74.430 63.249, 73.338 60.750 C 72.654 59.185, 72.726 57.781, 73.574 56.141 C 74.583 54.189, 74.514 53.455, 73.174 51.891 C 71.543 49.986, 70.544 49.737, 68.250 50.662 M 51.813 57.683 C 52.534 57.972, 53.397 57.936, 53.729 57.604 C 54.061 57.272, 53.471 57.036, 52.417 57.079 C 51.252 57.127, 51.015 57.364, 51.813 57.683" stroke="none" fill="black" fill-rule="evenodd"/>
</svg>