<svg xmlns="http://www.w3.org/2000/svg" width="192" height="144" viewBox="0 0 192 144" version="1.1">
	<path d="M 155.973 6.676 C 154.613 7.597, 149.342 12.137, 144.260 16.764 C 133.056 26.964, 118.158 38.215, 116.891 37.433 C 116.383 37.119, 116.221 36.452, 116.530 35.952 C 117.353 34.620, 115.162 31, 113.534 31 C 112.767 31, 111.995 32.012, 111.820 33.250 C 111.546 35.179, 110.716 35.589, 106 36.122 C 102.975 36.464, 99.269 37.320, 97.765 38.025 C 95.171 39.241, 91.050 45.925, 90.958 49.066 C 90.935 49.855, 90.124 49.015, 89.157 47.200 C 86.742 42.671, 82.375 40.015, 77.332 40.007 C 72.646 39.999, 70 39.229, 70 37.873 C 70 37.371, 68.845 35.131, 67.433 32.894 C 61.776 23.932, 47.212 21.244, 39.240 27.691 C 33.640 32.219, 30 39.891, 30 47.164 C 30 54.021, 31.512 57.486, 36.363 61.746 C 40.641 65.502, 45.894 67.316, 51.065 66.822 C 55.494 66.400, 55.869 66.903, 53.038 69.465 C 50.705 71.577, 46.677 79.010, 47.447 79.781 C 47.745 80.078, 48.862 79.530, 49.931 78.563 C 52.339 76.383, 54.355 77.448, 53.591 80.495 C 53.258 81.821, 53.581 83.237, 54.365 83.888 C 55.106 84.503, 55.976 87.839, 56.299 91.302 C 56.670 95.276, 57.899 99.548, 59.630 102.885 C 61.896 107.252, 62.167 108.503, 61.187 110.073 C 59.610 112.597, 59.699 114.899, 61.506 118.364 C 63.233 121.674, 63.436 124, 62 124 C 60.629 124, 60.743 128.648, 62.215 132.719 C 63.169 135.357, 63.169 136.499, 62.215 138.027 C 60.746 140.379, 60.616 144, 62 144 C 62.550 144, 63 143.100, 63 142 C 63 139.256, 65.758 139.465, 66.294 142.250 C 66.614 143.909, 66.763 143.661, 66.864 141.309 C 66.939 139.554, 66.550 137.840, 66 137.500 C 64.699 136.696, 64.699 133, 66 133 C 67.523 133, 67.192 125.599, 65.526 122.388 C 64.570 120.545, 64.395 119.205, 65.026 118.574 C 66.233 117.367, 66.319 110.289, 65.132 109.833 C 64.655 109.650, 63.975 108.566, 63.620 107.425 C 62.883 105.051, 64.819 103.765, 71.813 101.986 C 74.184 101.383, 76.659 100.685, 77.313 100.435 C 78.173 100.106, 78.605 103.085, 78.880 111.240 C 79.740 136.708, 79.770 136.307, 76.699 140.330 L 73.898 144 106.928 144 L 139.957 144 138.783 141.250 C 138.137 139.737, 137.241 137.997, 136.792 137.383 C 136.326 136.745, 136.550 135.788, 137.313 135.155 C 138.361 134.286, 139.014 134.807, 140.325 137.556 C 141.246 139.488, 142 141.728, 142 142.534 C 142 143.340, 142.492 144, 143.092 144 C 144.324 144, 143.816 134.175, 142.467 131.879 C 142.021 131.120, 142.634 131.357, 143.828 132.405 C 146.681 134.907, 146.591 133.660, 143.631 129.683 C 142.329 127.932, 140.958 125.150, 140.586 123.500 C 140.214 121.850, 137.843 113.764, 135.317 105.531 C 130.765 90.697, 130.729 90.463, 131.291 79.799 C 131.915 67.977, 132.400 66.257, 134.595 68.079 C 135.729 69.020, 136.459 68.687, 138.256 66.409 C 144.253 58.805, 147.232 46.394, 143.996 42.495 C 142.385 40.554, 134.994 40.537, 132.441 42.468 C 131.374 43.276, 129.838 43.951, 129.029 43.968 C 128.220 43.986, 130.464 41.068, 134.016 37.484 C 137.568 33.900, 141.057 31.192, 141.770 31.465 C 143.445 32.108, 152.967 26.874, 152.986 25.300 C 152.994 24.640, 152.213 23.635, 151.250 23.068 C 149.891 22.267, 149.787 21.847, 150.784 21.188 C 151.503 20.713, 151.780 19.590, 151.414 18.635 C 150.971 17.481, 152.272 15.005, 155.446 10.965 C 160.228 4.878, 160.374 3.693, 155.973 6.676 M 91 52.941 C 91 53.459, 91.450 54.160, 92 54.500 C 92.550 54.840, 93 54.416, 93 53.559 C 93 52.702, 92.550 52, 92 52 C 91.450 52, 91 52.423, 91 52.941 M 86.772 66.512 C 85.822 67.780, 82.985 69.604, 80.469 70.565 C 76.680 72.012, 75.086 72.128, 71.198 71.238 C 68.616 70.647, 66.311 70.356, 66.076 70.591 C 65.275 71.392, 66.509 90.842, 67.419 91.752 C 68.095 92.429, 84.925 87.060, 87.639 85.301 C 89.074 84.371, 90.330 81.720, 91.454 77.242 C 92.973 71.197, 92.983 70.461, 91.565 69.424 C 90.704 68.795, 90 67.568, 90 66.699 C 90 64.125, 88.621 64.045, 86.772 66.512 M 110.312 112.628 C 108.095 117.710, 107.875 132.432, 109.962 136 C 110.767 137.375, 111.335 138.821, 111.224 139.214 C 111.114 139.607, 111.648 139.689, 112.411 139.396 C 113.174 139.103, 114.095 139.344, 114.458 139.932 C 115.320 141.327, 117 141.307, 117 139.901 C 117 139.297, 118.410 137.486, 120.132 135.876 C 123.004 133.194, 123.214 132.575, 122.648 128.445 C 121.840 122.554, 118.127 114, 116.377 114 C 115.620 114, 115 113.380, 115 112.622 C 115 111.865, 114.325 110.685, 113.500 110 C 112.235 108.951, 111.735 109.363, 110.312 112.628 M 62 114.500 C 62 116.056, 62.567 117, 63.500 117 C 64.433 117, 65 116.056, 65 114.500 C 65 112.944, 64.433 112, 63.500 112 C 62.567 112, 62 112.944, 62 114.500 M 63 128.500 C 63 130.056, 63.567 131, 64.500 131 C 65.433 131, 66 130.056, 66 128.500 C 66 126.944, 65.433 126, 64.500 126 C 63.567 126, 63 126.944, 63 128.500" stroke="none" fill="black" fill-rule="evenodd"/>
</svg>