<svg xmlns="http://www.w3.org/2000/svg" width="192" height="144" viewBox="0 0 192 144" version="1.1">
	<path d="M 131.067 2.049 C 120.704 5.105, 114.602 11.054, 112.568 20.087 C 111.545 24.629, 110.963 25.499, 108.439 26.260 C 101.841 28.249, 100.773 29.214, 101.335 32.675 C 101.962 36.543, 99.760 37.759, 95.578 35.854 C 92.036 34.240, 89.788 36.433, 89.622 41.664 C 89.504 45.383, 89.599 45.495, 92.771 45.350 C 95.300 45.235, 95.980 45.575, 95.771 46.850 C 95.575 48.042, 96.121 48.414, 97.737 48.189 C 99.455 47.951, 100.365 48.697, 101.653 51.398 C 102.817 53.839, 103.931 54.854, 105.288 54.709 C 106.740 54.554, 107.625 55.533, 108.715 58.500 C 110.556 63.509, 109.727 88.846, 107.179 105.442 L 105.500 116.385 98.969 116.532 L 92.438 116.679 85.719 107.782 C 79.437 99.462, 79 98.547, 78.994 93.692 C 78.988 87.305, 77.387 81.155, 75.041 78.500 C 74.069 77.400, 72.031 73.125, 70.513 69 C 66.874 59.109, 65.631 57.237, 62.814 57.405 C 59.909 57.578, 60.063 59.998, 63.532 68.671 C 66.660 76.491, 66.658 77.382, 63.514 76.593 C 61.497 76.087, 60.271 76.749, 57.020 80.099 C 50.970 86.333, 49.096 95, 53.798 95 C 55.066 95, 56.429 96.665, 58.079 100.230 C 59.411 103.106, 64.676 111.067, 69.779 117.921 C 74.883 124.776, 79.290 131.310, 79.574 132.442 C 79.858 133.574, 79.394 136.469, 78.545 138.876 C 77.695 141.282, 77 143.420, 77 143.626 C 77 143.832, 102.875 144, 134.500 144 C 199.490 144, 193.321 144.926, 190.489 135.591 C 188.593 129.341, 188.615 122.271, 190.607 98.045 C 191.730 84.371, 192.002 74.295, 191.510 64.500 C 191.123 56.800, 190.865 49.375, 190.937 48 C 192.206 23.789, 192.290 25.506, 189.568 20.135 C 186.149 13.387, 179.951 7.562, 171.775 3.413 C 165.057 0.003, 165.036 0, 151.275 0.076 C 140.855 0.134, 135.933 0.615, 131.067 2.049 M 122.780 90.814 C 123.040 95.042, 123.332 98.599, 123.430 98.720 C 123.527 98.841, 125.256 98.166, 127.271 97.220 C 132.448 94.790, 132.251 91.625, 126.622 86.814 L 122.309 83.129 122.780 90.814" stroke="none" fill="black" fill-rule="evenodd"/>
</svg>