<svg xmlns="http://www.w3.org/2000/svg" width="192" height="144" viewBox="0 0 192 144" version="1.1">
	<path d="M 121.026 2.567 C 121.562 3.979, 122.542 6.117, 123.202 7.317 C 123.862 8.518, 124.548 10.380, 124.726 11.457 C 124.905 12.533, 125.522 13.704, 126.097 14.060 C 127.637 15.011, 128.088 18.810, 128.681 35.786 C 129.172 49.835, 129.043 51.471, 127.091 56.010 C 125.923 58.725, 124.821 62.206, 124.641 63.744 C 124.462 65.283, 123.779 67.545, 123.123 68.771 C 122.467 69.997, 122.170 71, 122.465 71 C 122.759 71, 122.213 71.868, 121.250 72.928 C 117.763 76.771, 117 77.943, 117 79.458 C 117 80.306, 116.199 81.801, 115.220 82.780 C 114.242 83.758, 111.915 86.683, 110.051 89.280 C 108.186 91.876, 106.146 94, 105.518 94 C 103.918 94, 98.823 99.490, 99.653 100.319 C 100.027 100.694, 99.838 101, 99.232 101 C 97.625 101, 94.054 102.671, 89.500 105.553 C 87.300 106.946, 84.713 108.344, 83.750 108.659 C 82.788 108.975, 82 109.661, 82 110.184 C 82 110.707, 81.171 110.872, 80.157 110.550 C 79.075 110.206, 77.255 110.799, 75.746 111.985 C 74.280 113.138, 72.480 113.738, 71.552 113.381 C 70.641 113.032, 69.086 113.517, 68.017 114.485 C 66.336 116.006, 64.227 116.164, 50.304 115.813 C 37.397 115.487, 33.400 115.021, 28.500 113.274 C 25.200 112.098, 21.294 110.879, 19.820 110.566 C 18.346 110.253, 16.534 109.435, 15.793 108.748 C 12.869 106.039, 8 102.991, 8 103.871 C 8 104.383, 6.602 103.497, 4.894 101.901 C 3.186 100.306, 1.386 99, 0.894 99 C 0.395 99, 0 108.941, 0 121.500 L 0 144 95.941 144 C 148.857 144, 192.122 143.612, 192.417 143.135 C 192.711 142.659, 192.664 110.259, 192.312 71.135 L 191.673 0 155.861 0 L 120.050 0 121.026 2.567 M 0.429 121.500 C 0.429 134.150, 0.573 139.187, 0.747 132.694 C 0.922 126.200, 0.921 115.850, 0.746 109.694 C 0.571 103.537, 0.428 108.850, 0.429 121.500" stroke="none" fill="black" fill-rule="evenodd"/>
</svg>