<svg xmlns="http://www.w3.org/2000/svg" width="192" height="144" viewBox="0 0 192 144" version="1.1">
	<path d="M 156.833 6.859 C 153.318 9.117, 137.007 23.322, 137.003 24.128 C 137.001 24.474, 134.412 26.493, 131.250 28.616 C 128.088 30.738, 124.022 33.718, 122.215 35.237 C 118.191 38.622, 117 38.710, 117 35.622 C 117 31.797, 112.860 29.525, 112.375 33.083 C 112.306 33.587, 112.194 34.450, 112.125 35 C 112.056 35.550, 109.953 36, 107.450 36 C 99.863 36, 93.444 40.119, 92.405 45.653 L 91.771 49.032 87.566 44.516 C 83.549 40.202, 83.110 40, 77.776 40 L 72.191 40 69.153 34.617 C 67.470 31.634, 64.601 28.298, 62.718 27.135 C 55.382 22.601, 45.773 22.783, 39.489 27.576 C 32.937 32.574, 28.488 45.890, 30.915 53.242 C 33.558 61.252, 45.241 68.165, 53.267 66.468 L 56.500 65.784 53.138 69.306 C 51.288 71.243, 50.040 73.256, 50.364 73.780 C 50.688 74.304, 50.074 75.528, 49 76.500 C 47.926 77.472, 47.306 78.686, 47.623 79.199 C 47.941 79.713, 48.985 79.418, 49.955 78.541 C 50.925 77.663, 52.447 77.234, 53.355 77.583 C 55.302 78.330, 55.426 79.174, 53.824 80.776 C 52.922 81.678, 53.009 82.367, 54.197 83.726 C 55.049 84.702, 56.057 88.364, 56.436 91.864 C 56.815 95.364, 57.506 98.964, 57.972 99.864 C 60.810 105.348, 61.815 108.584, 60.949 109.450 C 59.522 110.878, 59.807 116.400, 61.474 119.612 C 62.430 121.455, 62.605 122.795, 61.974 123.426 C 60.457 124.943, 60.824 131.609, 62.500 133 C 64.207 134.416, 64.494 137.577, 63 138.500 C 62.450 138.840, 62 140.216, 62 141.559 C 62 142.902, 62.450 144, 63 144 C 63.550 144, 64 143.100, 64 142 C 64 140.889, 64.667 140, 65.500 140 C 66.333 140, 67 140.889, 67 142 C 67 143.100, 67.459 144, 68.019 144 C 69.109 144, 68.221 138.872, 66.981 138 C 65.674 137.081, 64.818 133, 65.933 133 C 67.578 133, 67.214 125.423, 65.500 124 C 63.793 122.584, 63.506 119.423, 65 118.500 C 66.493 117.577, 66.207 112.656, 64.532 110.441 C 61.253 106.107, 62.774 104.196, 71.121 102.162 C 73.663 101.543, 76.363 100.799, 77.121 100.509 C 78.232 100.084, 78.576 102.270, 78.892 111.741 C 79.730 136.884, 79.775 136.300, 76.699 140.330 L 73.898 144 109.449 144 C 148.020 144, 146.200 144.286, 144.028 138.574 C 142.944 135.723, 143.668 132.677, 145.205 133.626 C 145.758 133.969, 145.696 133.301, 145.065 132.121 C 143.717 129.603, 142.792 129.293, 143.701 131.664 C 144.147 132.825, 143.966 133.097, 143.102 132.563 C 142.421 132.142, 142.093 131.201, 142.372 130.472 C 142.652 129.742, 142.461 127.875, 141.947 126.323 C 133.409 100.514, 132.697 97.545, 132.226 85.804 C 131.667 71.845, 132.401 66.258, 134.559 68.049 C 136.664 69.796, 138.447 67.943, 142.189 60.117 C 146.039 52.068, 146.613 44.655, 143.559 42.421 C 140.794 40.397, 136.280 40.664, 132.368 43.082 C 130.516 44.226, 129 44.776, 129 44.303 C 129 42.639, 141.575 31, 143.373 31 C 144.373 31, 146.386 30.173, 147.846 29.163 C 149.306 28.152, 151.400 26.993, 152.500 26.586 C 154.384 25.889, 154.329 25.708, 151.544 23.471 C 149.010 21.436, 148.831 21.002, 150.294 20.441 C 151.232 20.081, 152 19.047, 152.001 18.143 C 152.001 17.239, 154.033 13.912, 156.515 10.750 C 161.227 4.748, 161.288 3.997, 156.833 6.859 M 92 53.559 C 92 54.416, 92.457 54.835, 93.016 54.490 C 93.575 54.144, 93.774 53.443, 93.457 52.931 C 92.600 51.544, 92 51.802, 92 53.559 M 85.984 67.517 C 82.582 71.138, 77.168 72.540, 71.822 71.183 C 69.235 70.526, 67.148 70.452, 66.602 70.998 C 65.281 72.319, 65.652 77.874, 67.185 79.732 C 68.221 80.987, 68.235 81.414, 67.251 81.745 C 65.920 82.194, 66.536 89.708, 68.040 91.362 C 68.975 92.390, 87.647 86.355, 88.740 84.671 C 89.158 84.027, 90.253 80.575, 91.173 77 C 92.614 71.400, 92.649 70.346, 91.423 69.390 C 90.640 68.779, 90 67.542, 90 66.640 C 90 64.322, 88.723 64.601, 85.984 67.517 M 111.767 109.584 C 111.461 110.088, 110.488 112.944, 109.605 115.932 C 106.727 125.670, 107.843 134.139, 112.667 139.175 C 115.893 142.542, 117 142.729, 117 139.906 C 117 138.695, 117.796 137.605, 118.889 137.319 C 119.928 137.047, 121.907 134.727, 123.288 132.162 L 125.798 127.500 123.444 122.223 C 121.121 117.017, 118.889 114, 117.359 114 C 116.928 114, 115.618 112.800, 114.449 111.334 C 113.280 109.868, 112.073 109.080, 111.767 109.584 M 61.180 114.240 C 61.356 115.472, 62.229 116.618, 63.121 116.788 C 64.366 117.025, 64.628 116.506, 64.254 114.548 C 63.641 111.343, 60.725 111.050, 61.180 114.240 M 62.354 127.480 C 62.709 128.406, 63 129.577, 63 130.082 C 63 130.587, 63.706 131, 64.570 131 C 66.851 131, 65.976 126.611, 63.604 126.159 C 62.175 125.886, 61.867 126.212, 62.354 127.480" stroke="none" fill="black" fill-rule="evenodd"/>
</svg>