<svg xmlns="http://www.w3.org/2000/svg" width="192" height="144" viewBox="0 0 192 144" version="1.1">
	<path d="M 0 72 L 0 144 42.575 144 L 85.150 144 84.490 134.750 C 84.126 129.663, 82.967 122.321, 81.915 118.436 C 79.588 109.852, 79.514 106.083, 81.576 101.218 C 82.442 99.173, 83.848 95.475, 84.700 93 C 85.552 90.525, 87.049 87.482, 88.028 86.238 C 89.006 84.994, 89.598 83.179, 89.343 82.204 C 89.041 81.048, 90.291 79.127, 92.940 76.676 C 97.714 72.258, 98.272 68.476, 94.715 64.637 C 93.458 63.281, 91.771 60.896, 90.967 59.336 C 90.162 57.776, 89.081 56.197, 88.566 55.826 C 88.008 55.425, 88.144 54.531, 88.900 53.620 C 90.429 51.778, 89.551 50, 87.112 50 C 85.972 50, 84.526 48.258, 83.049 45.105 L 80.757 40.211 83.230 34.855 C 86.654 27.439, 90.149 24.343, 97.745 21.997 C 110.213 18.146, 118.093 19.715, 125.593 27.543 C 132.515 34.768, 133.335 38.607, 133.595 65 C 133.716 77.375, 134.307 92.450, 134.907 98.500 C 135.507 104.550, 135.999 114.496, 135.999 120.603 C 136 126.710, 136.290 134.480, 136.644 137.869 L 137.288 144.031 164.894 143.766 L 192.500 143.500 192.757 71.750 L 193.013 0 96.507 0 L 0 0 0 72 M 0.474 72.500 C 0.474 112.100, 0.598 128.154, 0.750 108.176 C 0.901 88.198, 0.901 55.798, 0.750 36.176 C 0.598 16.554, 0.474 32.900, 0.474 72.500" stroke="none" fill="black" fill-rule="evenodd"/>
</svg>