<svg xmlns="http://www.w3.org/2000/svg" width="192" height="144" viewBox="0 0 192 144" version="1.1">
	<path d="M 103 15 C 103 15.550, 103.402 16, 103.893 16 C 105.998 16, 105.870 19.100, 103.731 19.936 C 100.322 21.268, 97.088 24.753, 96.452 27.778 C 96.137 29.275, 95.453 31.288, 94.931 32.250 C 94.294 33.426, 94.395 34.675, 95.242 36.060 C 96.356 37.883, 96.125 38.456, 93.234 41.060 C 91.438 42.677, 89.076 44, 87.984 44 C 85.732 44, 85.441 45.041, 87.200 46.800 C 88.736 48.336, 92.255 48.345, 93.783 46.817 C 94.434 46.166, 95.087 45.828, 95.233 46.067 C 95.380 46.305, 96.241 47.850, 97.147 49.500 C 98.052 51.150, 99.680 52.918, 100.763 53.430 C 103.575 54.757, 105.955 69.732, 104.090 74.359 C 103.393 76.087, 102.396 79.255, 101.873 81.400 C 101.350 83.545, 100.039 86.540, 98.960 88.056 C 97.881 89.571, 96.211 92.630, 95.249 94.854 C 94.287 97.077, 89.260 103.712, 84.077 109.599 L 74.654 120.303 74.491 127.402 C 74.396 131.487, 73.611 136.167, 72.641 138.427 C 70.385 143.679, 72.014 145.195, 75.225 140.835 C 76.575 139.001, 78.257 136.037, 78.961 134.250 C 80.489 130.376, 81.026 130.258, 83 133.364 C 89.852 144.149, 93.305 146.441, 94.500 141 C 94.862 139.350, 95.573 138, 96.079 138 C 96.586 138, 97 139.350, 97 141 L 97 144 124.389 144 L 151.777 144 152.358 140.750 C 156.704 116.426, 156.466 107.205, 151.075 91 C 147.720 80.918, 146.629 75.722, 145.429 64.137 C 144.311 53.339, 144.226 49.433, 145.084 48.399 C 145.961 47.342, 145.869 46.887, 144.683 46.432 C 142.751 45.690, 141.007 40.826, 140.978 36.101 C 140.966 34.120, 140.118 30.655, 139.095 28.401 C 135.998 21.582, 129.914 18.456, 117.574 17.343 C 113.683 16.992, 109.612 16.097, 108.527 15.353 C 106.217 13.768, 103 13.563, 103 15" stroke="none" fill="black" fill-rule="evenodd"/>
</svg>