<svg xmlns="http://www.w3.org/2000/svg" width="192" height="144" viewBox="0 0 192 144" version="1.1">
	<path d="M 0 16.456 L 0 32.912 6.250 29.609 C 18.482 23.146, 22.942 21.999, 35.788 22.011 C 48.568 22.023, 52.547 22.890, 63.430 28.037 C 78.983 35.393, 92.991 54.632, 95.481 72.059 C 97.789 88.211, 106.779 102.921, 121 113.815 C 128.913 119.877, 140.281 123.836, 152.181 124.675 C 163.666 125.485, 171.338 123.913, 182.750 118.413 L 192 113.955 192 81.140 C 192 63.091, 192.297 37.451, 192.660 24.162 L 193.320 0 96.660 0 L 0 0 0 16.456 M 0.407 17 C 0.407 26.075, 0.559 29.788, 0.744 25.250 C 0.929 20.712, 0.929 13.287, 0.744 8.750 C 0.559 4.212, 0.407 7.925, 0.407 17 M 143.098 31.507 C 137.167 34.164, 134.704 37.451, 134.274 43.284 C 133.167 58.272, 151.391 64.585, 159.730 52.102 C 167.197 40.924, 155.210 26.081, 143.098 31.507 M 37 82.946 C 26.574 88.480, 25.014 102.262, 33.904 110.294 C 49.239 124.149, 70.212 102.309, 56.329 86.942 C 50.995 81.039, 43.509 79.491, 37 82.946" stroke="none" fill="black" fill-rule="evenodd"/>
</svg>