<svg xmlns="http://www.w3.org/2000/svg" width="192" height="144" viewBox="0 0 192 144" version="1.1">
	<path d="M 0 72 L 0 144 45.060 144 L 90.121 144 89.810 140.257 C 89.566 137.315, 88.912 136.234, 86.750 135.203 C 85.093 134.412, 84 133.090, 84 131.874 C 84 130.765, 83.325 129.182, 82.500 128.357 C 79.784 125.641, 80.818 121.050, 86.552 110.359 C 90.797 102.446, 91.877 99.603, 91.141 98.288 C 90.434 97.025, 90.832 95.394, 92.636 92.164 C 94.868 88.165, 94.952 87.604, 93.547 86.052 C 92.696 85.112, 92 83.789, 92 83.112 C 92 82.436, 91.601 82.129, 91.113 82.430 C 89.764 83.264, 87.694 80.239, 88.385 78.440 C 88.719 77.568, 88.543 76.015, 87.994 74.989 C 86.490 72.179, 88.634 63.525, 92.624 56.294 C 98.292 46.022, 102.104 35.830, 100.845 34.313 C 100.007 33.304, 100.215 33, 101.743 33 C 102.836 33, 104.874 32.100, 106.273 31 C 109.334 28.592, 111.398 28.549, 115.927 30.798 C 118.101 31.877, 119.703 33.598, 120.308 35.500 C 120.832 37.150, 121.947 39.287, 122.785 40.250 C 123.857 41.480, 123.943 42, 123.077 42 C 121.836 42, 114 49.836, 114 51.077 C 114 51.443, 115.623 52.813, 117.606 54.121 C 120.074 55.749, 122.071 58.387, 123.933 62.476 L 126.653 68.452 123.209 76.110 L 119.765 83.768 122.954 92.036 C 124.708 96.584, 126.179 101.586, 126.223 103.152 C 126.268 104.719, 126.686 106, 127.152 106 C 127.618 106, 128 107.133, 128 108.518 C 128 109.903, 129.515 114.853, 131.368 119.518 C 133.220 124.183, 134.376 128, 133.937 128 C 133.498 128, 132.995 129.012, 132.820 130.250 C 132.554 132.122, 131.876 132.500, 128.785 132.500 C 122.628 132.500, 120.047 135.843, 121.634 141.763 L 122.240 144.025 157.370 143.763 L 192.500 143.500 192.757 71.750 L 193.013 0 96.507 0 L 0 0 0 72 M 0.474 72.500 C 0.474 112.100, 0.598 128.154, 0.750 108.176 C 0.901 88.198, 0.901 55.798, 0.750 36.176 C 0.598 16.554, 0.474 32.900, 0.474 72.500 M 116.821 70.075 C 116.328 75.254, 117.625 76.122, 119.433 71.821 C 120.411 69.496, 120.519 68.125, 119.792 67.250 C 118.013 65.105, 117.224 65.855, 116.821 70.075 M 99.574 72.297 C 99.126 73.835, 99.039 75.372, 99.380 75.713 C 100.499 76.833, 101.158 75.235, 100.770 72.341 L 100.389 69.500 99.574 72.297 M 110.392 137.438 C 109.262 138.229, 106.125 139.017, 103.419 139.188 C 99.193 139.456, 98.455 139.817, 98.180 141.750 C 97.872 143.923, 98.137 144, 105.863 144 C 112.987 144, 113.935 143.780, 114.500 142 C 115.183 139.850, 114.320 136, 113.155 136 C 112.765 136, 111.521 136.647, 110.392 137.438" stroke="none" fill="black" fill-rule="evenodd"/>
</svg>