<svg xmlns="http://www.w3.org/2000/svg" width="192" height="144" viewBox="0 0 192 144" version="1.1">
	<path d="M 0 25.963 L 0 51.911 2.534 55.645 C 4.036 57.859, 4.796 60.015, 4.401 60.940 C 4.034 61.798, 3.795 63.666, 3.870 65.092 C 3.948 66.556, 3.136 68.472, 2.004 69.497 C -0.605 71.857, -1.009 84, 1.521 84 C 2.358 84, 3.580 85.180, 4.237 86.622 C 5.313 88.982, 5.161 89.460, 2.716 91.409 L 0 93.575 0 118.788 L 0 144 11.550 144 C 23.341 144, 26.683 143.180, 31.396 139.129 C 32.812 137.913, 33.403 137.817, 33.729 138.750 C 33.970 139.437, 35.296 140, 36.677 140 C 38.346 140, 39.362 140.670, 39.710 142 C 40.206 143.894, 41.074 144, 56.117 144 L 72 144 72 141 C 72 139.350, 72.450 138, 73 138 C 73.550 138, 74 138.450, 74 139 C 74 139.550, 75.800 140, 78 140 C 81.333 140, 82 140.333, 82 142 C 82 143.778, 82.667 144, 88 144 C 91.333 144, 94 143.556, 94 143 C 94 142.450, 94.900 142, 96 142 C 97.100 142, 98 142.450, 98 143 C 98 143.647, 110.233 144, 132.700 144 C 159.689 144, 167.133 143.733, 166.200 142.800 C 164.365 140.965, 164.759 140, 167.345 140 C 168.635 140, 170.505 140.900, 171.500 142 C 173.760 144.498, 180.740 144.703, 185.188 142.403 C 187.519 141.198, 188.835 141.059, 190.547 141.839 L 192.816 142.873 192.804 71.445 L 192.792 0.016 96.396 0.015 L 0 0.014 0 25.963 M 0.437 27 C 0.437 41.575, 0.577 47.537, 0.747 40.250 C 0.918 32.962, 0.918 21.037, 0.747 13.750 C 0.577 6.462, 0.437 12.425, 0.437 27 M 41.568 4.890 C 40.854 6.045, 42.017 6.858, 46.033 8.009 C 47.665 8.477, 49 8.497, 49 8.053 C 49 5.975, 42.585 3.245, 41.568 4.890 M 97.500 17 L 94.500 17.763 97.750 17.882 C 99.537 17.947, 101 17.550, 101 17 C 101 16.450, 100.888 16.053, 100.750 16.118 C 100.612 16.183, 99.150 16.580, 97.500 17 M 165.607 20.582 C 164.731 22.866, 164.802 23, 166.893 23 C 168.461 23, 170 21.226, 170 19.418 C 170 18.207, 166.124 19.234, 165.607 20.582 M 98 33.893 C 98 34.995, 100.482 36, 103.204 36 C 104.905 36, 105.037 35.750, 104 34.500 C 102.662 32.888, 98 32.416, 98 33.893 M 18 42.777 C 18 44.075, 21.049 48, 22.057 48 C 23.404 48, 23.224 44.624, 21.800 43.200 C 20.456 41.856, 18 41.583, 18 42.777 M 169.543 68.931 C 168.803 70.128, 170.684 71.313, 172.016 70.490 C 173.135 69.799, 172.400 68, 171 68 C 170.515 68, 169.859 68.419, 169.543 68.931 M 0.328 77.500 C 0.333 81.350, 0.513 82.802, 0.730 80.728 C 0.946 78.653, 0.943 75.503, 0.722 73.728 C 0.501 71.952, 0.324 73.650, 0.328 77.500 M 103.979 73.013 C 102.836 73.720, 102.780 74.180, 103.726 75.126 C 104.671 76.071, 105.078 75.961, 105.591 74.624 C 106.426 72.447, 105.842 71.862, 103.979 73.013 M 8 79 C 8 79.550, 8.477 80, 9.059 80 C 9.641 80, 9.840 79.550, 9.500 79 C 9.160 78.450, 8.684 78, 8.441 78 C 8.198 78, 8 78.450, 8 79 M 96 79.845 C 96 82.265, 99.093 85, 101.829 85 C 104.630 85, 104.622 82.658, 101.811 80.039 C 99.052 77.468, 96 77.367, 96 79.845 M 33.380 81.452 C 33.074 82.251, 33.128 83.398, 33.500 84.001 C 34.355 85.383, 37 83.401, 37 81.378 C 37 79.546, 34.088 79.606, 33.380 81.452 M 110 90 C 110 90.550, 111.827 91, 114.059 91 C 116.510 91, 117.873 90.604, 117.500 90 C 117.160 89.450, 115.334 89, 113.441 89 C 111.548 89, 110 89.450, 110 90 M 173.197 92.828 C 169.659 95.851, 166.983 100.205, 167.027 102.864 C 167.054 104.492, 168.615 102.925, 176.106 93.750 C 179.757 89.278, 178.001 88.722, 173.197 92.828 M 0.436 118.500 C 0.436 132.800, 0.577 138.511, 0.748 131.191 C 0.919 123.871, 0.918 112.171, 0.747 105.191 C 0.575 98.211, 0.435 104.200, 0.436 118.500 M 125.335 93.695 C 122.835 94.182, 121.817 96.085, 123.016 98.026 C 123.712 99.152, 124.113 99.151, 125.478 98.018 C 127.412 96.413, 129.408 92.941, 128.285 93.136 C 127.853 93.211, 126.526 93.462, 125.335 93.695 M 60 96.878 C 60 98.353, 62.845 100.214, 64.005 99.497 C 64.785 99.015, 64.763 98.419, 63.926 97.411 C 62.633 95.853, 60 95.496, 60 96.878 M 84.651 98.468 C 83.759 100.792, 85.781 101.277, 86.985 99.028 C 87.840 97.431, 87.767 97, 86.642 97 C 85.857 97, 84.960 97.661, 84.651 98.468 M 140.733 104.624 C 139.818 106.104, 140.510 109.337, 141.837 109.779 C 143.136 110.212, 143.245 108.484, 142.102 105.566 C 141.686 104.503, 141.069 104.079, 140.733 104.624 M 68.425 107.879 C 68.724 108.363, 69.902 109.003, 71.042 109.301 C 72.743 109.746, 72.903 109.588, 71.935 108.421 C 70.670 106.898, 67.518 106.411, 68.425 107.879 M 78.500 111 C 78.160 111.550, 78.782 112, 79.882 112 C 80.982 112, 82.160 111.550, 82.500 111 C 82.840 110.450, 82.218 110, 81.118 110 C 80.018 110, 78.840 110.450, 78.500 111 M 179 113.590 C 179 114.855, 183.606 117.934, 185.500 117.935 C 187.282 117.937, 187.194 117.668, 184.694 115.468 C 182.118 113.202, 179 112.173, 179 113.590 M 92.813 119.683 C 93.534 119.972, 94.397 119.936, 94.729 119.604 C 95.061 119.272, 94.471 119.036, 93.417 119.079 C 92.252 119.127, 92.015 119.364, 92.813 119.683 M 137.468 121.101 C 136.608 123.809, 138.669 126.138, 140.026 123.992 C 141.442 121.752, 141.189 119, 139.567 119 C 138.779 119, 137.835 119.945, 137.468 121.101 M 109.500 123 C 108.181 123.567, 108.011 123.878, 109 123.914 C 109.825 123.945, 111.175 123.533, 112 123 C 113.828 121.819, 112.249 121.819, 109.500 123" stroke="none" fill="black" fill-rule="evenodd"/>
</svg>