<svg xmlns="http://www.w3.org/2000/svg" width="192" height="144" viewBox="0 0 192 144" version="1.1">
	<path d="M 64.484 11.017 C 62.289 13.307, 61.649 14.855, 61.823 17.446 C 62.017 20.316, 61.482 21.293, 58.461 23.598 C 54.494 26.624, 51.484 31.754, 50.572 37.047 C 49.706 42.068, 54.290 50.092, 58.750 51.363 C 62.189 52.343, 62.804 53.747, 60.750 55.925 C 59.749 56.986, 59.756 57.344, 60.784 57.720 C 61.489 57.978, 63.925 60.171, 66.196 62.595 C 68.736 65.304, 71.202 67, 72.604 67 C 73.857 67, 75.163 67.454, 75.506 68.010 C 76.244 69.204, 70.841 73.990, 66.822 75.702 C 65.270 76.363, 64 77.341, 64 77.875 C 64 78.409, 62.801 80.271, 61.336 82.013 C 59.801 83.837, 58.619 86.518, 58.548 88.339 C 58.425 91.464, 56.010 98, 54.978 98 C 54.137 98, 45 75.475, 45 73.400 C 45 73.307, 47.429 72.927, 50.398 72.556 C 61.305 71.193, 62.054 70.076, 52 70.167 C 46.050 70.222, 41.264 69.743, 39.191 68.885 C 36.192 67.645, 35.510 67.720, 31.932 69.680 L 27.982 71.844 26.582 69.172 C 25.219 66.570, 24.930 66.498, 15.591 66.408 C 10.316 66.358, 6 66.485, 6 66.690 C 6 66.895, 8.929 72.751, 12.508 79.704 C 16.087 86.656, 19.469 94.028, 20.023 96.086 C 20.848 99.149, 22.477 100.879, 29.015 105.634 C 33.407 108.829, 37 112.026, 37 112.740 C 37 113.454, 40.431 117.894, 44.623 122.607 L 52.247 131.175 50.029 134.175 C 48.316 136.491, 47.956 137.954, 48.450 140.588 L 49.091 144 77.795 143.971 L 106.500 143.941 103.234 140.971 C 101.438 139.337, 99.076 138, 97.984 138 C 96.311 138, 96 137.322, 96 133.676 C 96 131.298, 96.713 125.202, 97.584 120.130 C 98.856 112.727, 98.922 110.611, 97.920 109.403 C 96.882 108.153, 97.037 107.803, 98.836 107.333 C 100.026 107.021, 101 106.369, 101 105.883 C 101 105.398, 102.336 105, 103.969 105 C 106.072 105, 106.784 104.601, 106.411 103.629 C 106.122 102.875, 106.542 102.006, 107.344 101.698 C 108.243 101.353, 108.997 101.880, 109.308 103.069 C 109.860 105.182, 112 105.745, 112 103.777 C 112 103.105, 112.645 103.476, 113.434 104.603 C 114.508 106.136, 114.646 107.635, 113.983 110.574 C 113.441 112.980, 113.466 114.866, 114.049 115.449 C 114.572 115.972, 115 117.885, 115 119.700 C 115 121.515, 115.484 123, 116.075 123 C 116.667 123, 117.063 124.238, 116.955 125.750 C 116.669 129.766, 118.067 135, 119.425 135 C 120.071 135, 121.198 134.438, 121.929 133.750 C 123.021 132.723, 123.146 132.976, 122.630 135.171 C 121.829 138.577, 122.757 141.030, 124.583 140.330 C 125.529 139.967, 126 140.486, 126 141.893 C 126 143.993, 126.108 144, 159 144 L 192 144 192 125.460 C 192 104.508, 192.314 105.669, 182.550 90.533 C 172.695 75.257, 170.696 73.820, 157.500 72.515 C 137.498 70.537, 127.886 66.906, 122.208 59.183 C 120.213 56.470, 118.644 55.417, 116.250 55.186 C 113.722 54.942, 113 55.254, 113 56.592 C 113 58.760, 109.258 63.753, 101.643 71.745 C 96.983 76.636, 95.401 77.748, 94.346 76.872 C 93.606 76.258, 93 75.116, 93 74.336 C 93 72.235, 96.444 68.918, 98.811 68.739 C 99.947 68.654, 101.087 67.776, 101.345 66.788 C 101.648 65.628, 102.379 65.208, 103.407 65.603 C 104.661 66.084, 105 65.529, 105 63 C 105 60.494, 105.345 59.918, 106.565 60.387 C 107.733 60.835, 107.984 60.524, 107.552 59.162 C 107.233 58.158, 106.805 55.574, 106.602 53.419 C 106.398 51.263, 104.628 45.125, 102.669 39.777 C 97.600 25.945, 89.609 16, 83.563 16 C 82.718 16, 81.397 14.491, 80.626 12.648 C 79.569 10.119, 78.430 9.136, 75.988 8.648 C 69.839 7.418, 67.463 7.907, 64.484 11.017 M 33.005 80.821 C 33.002 81.547, 34.462 84.815, 36.250 88.083 C 38.834 92.807, 39.224 94.200, 38.154 94.880 C 37.081 95.563, 37.348 96.591, 39.476 99.963 C 40.944 102.287, 42.343 103.990, 42.587 103.747 C 42.830 103.503, 42.170 100.423, 41.120 96.902 C 40.069 93.381, 38.933 89.375, 38.594 88 C 37.881 85.105, 33.012 78.852, 33.005 80.821 M 90.619 108.807 C 90.345 109.250, 89.602 112.513, 88.968 116.057 C 87.966 121.659, 88.043 123.022, 89.561 126.500 L 91.308 130.500 92.103 127.500 C 92.541 125.850, 93.284 120.787, 93.755 116.250 C 94.534 108.739, 94.454 108, 92.864 108 C 91.904 108, 90.894 108.363, 90.619 108.807" stroke="none" fill="black" fill-rule="evenodd"/>
</svg>