<svg xmlns="http://www.w3.org/2000/svg" width="192" height="144" viewBox="0 0 192 144" version="1.1">
	<path d="M 44.242 4.025 C 45.841 7.256, 46.507 7.824, 47.617 6.903 C 48.659 6.038, 49.348 6.044, 50.411 6.926 C 52.115 8.341, 53.219 6.972, 51.985 4.975 C 51.405 4.038, 51.654 2.935, 52.706 1.773 C 54.225 0.094, 53.989 0, 48.280 0 L 42.251 0 44.242 4.025 M 97.402 23.765 C 96.782 24.179, 96.033 29.345, 95.683 35.604 C 94.917 49.330, 93.128 61.280, 91.706 62.172 C 90.523 62.914, 88.114 71.200, 88.044 74.764 C 88.020 76.009, 88.490 77.812, 89.089 78.771 C 91.183 82.124, 82.304 126.398, 79.086 128.652 C 78.035 129.388, 77.275 131.297, 77.196 133.397 C 77.124 135.329, 76.398 138.506, 75.583 140.455 L 74.102 144 120.680 144 L 167.258 144 166.671 138.250 C 166.347 135.088, 165.359 125.750, 164.475 117.500 L 162.867 102.500 165.434 88.683 C 168.900 70.019, 168.782 57.290, 165.059 48.500 C 164.593 47.400, 163.453 44.366, 162.526 41.757 C 161.477 38.806, 159.453 35.870, 157.170 33.986 C 153.038 30.578, 144.328 27, 140.162 27 C 138.643 27, 136.954 26.554, 136.408 26.008 C 134.517 24.117, 123.606 28.554, 118.252 33.391 C 114.627 36.666, 114.403 37.214, 114.176 43.361 C 113.983 48.611, 114.265 50.049, 115.639 50.818 C 117.200 51.692, 117.172 51.876, 115.298 53.046 C 113.484 54.179, 113.312 55.055, 113.758 60.911 C 114.303 68.064, 115.231 70, 118.114 70 C 119.643 70, 119.906 70.591, 119.559 73.250 C 119.326 75.037, 119.105 77.047, 119.067 77.715 C 119.030 78.384, 117.704 80.409, 116.119 82.215 C 114.535 84.022, 113.073 86.363, 112.869 87.417 C 111.767 93.140, 107.357 85.833, 104.938 74.275 C 104.337 71.402, 102.812 67.529, 101.550 65.668 C 99.417 62.526, 99.309 61.687, 100.033 53.893 C 100.462 49.277, 101.600 41.130, 102.562 35.790 C 103.989 27.867, 104.076 25.796, 103.033 24.540 C 101.671 22.899, 99.204 22.560, 97.402 23.765 M 93.552 97.338 C 92.035 105.677, 90.491 115.943, 90.119 120.150 L 89.444 127.801 92.587 128.765 C 94.326 129.299, 96.399 129.356, 97.226 128.893 C 98.538 128.159, 98.549 127.409, 97.315 122.778 C 96.541 119.875, 95.641 113.625, 95.315 108.889 C 94.771 100.993, 94.900 100.100, 96.861 98.139 C 98.037 96.963, 100.125 96, 101.500 96 C 103.177 96, 104 95.446, 104 94.316 C 104 91.686, 100.258 84.626, 98.182 83.338 C 96.420 82.245, 96.144 83.080, 93.552 97.338" stroke="none" fill="black" fill-rule="evenodd"/>
</svg>