<svg xmlns="http://www.w3.org/2000/svg" width="192" height="144" viewBox="0 0 192 144" version="1.1">
	<path d="M 111.456 5.048 C 110.380 5.457, 108.218 7.148, 106.650 8.805 C 104.276 11.315, 103.917 12.344, 104.496 14.981 C 105.115 17.798, 104.769 18.506, 101.340 21.441 C 92.071 29.375, 92.235 45.693, 101.625 49.617 C 105.279 51.143, 105.674 51.926, 103.758 53.842 C 102.564 55.036, 102.961 55.635, 106.007 57.234 C 106.287 57.380, 108.023 59.427, 109.867 61.782 C 112.226 64.796, 113.566 65.775, 114.393 65.089 C 115.793 63.927, 119.260 64.279, 119.709 65.628 C 120.099 66.797, 114.021 72.806, 110.851 74.387 C 109.580 75.021, 107.986 76.656, 107.309 78.020 C 106.347 79.957, 105.030 80.645, 101.289 81.162 C 93.890 82.186, 86.184 82.107, 85.500 81 C 84.314 79.081, 79.169 79.987, 75.971 82.678 C 71.983 86.033, 71.038 85.487, 66.145 77.006 C 61.793 69.462, 58.374 67.447, 55.041 70.463 C 53.025 72.287, 53.029 72.307, 56.909 79.396 C 59.397 83.943, 61.043 88.480, 61.481 92 C 62.556 100.627, 64.068 104.847, 66.398 105.716 C 72.066 107.830, 82.999 114.422, 83.511 116.034 C 83.829 117.037, 87.444 120.426, 91.545 123.567 C 95.645 126.708, 99 129.610, 99 130.016 C 99 130.423, 98.325 131.315, 97.500 132 C 95.887 133.339, 95.633 135.914, 96.625 140.875 L 97.250 144 122.625 144 C 146.564 144, 148 143.896, 148 142.167 C 148 141.158, 146.485 138.796, 144.633 136.917 C 141.721 133.961, 141.113 132.448, 140.133 125.709 C 139.510 121.424, 139 115.448, 139 112.428 C 139 108.470, 138.581 106.777, 137.500 106.362 C 134.542 105.227, 136.076 104.200, 139.952 104.720 C 142.126 105.012, 144.714 104.900, 145.702 104.472 C 146.691 104.044, 147.950 103.617, 148.500 103.524 C 152.304 102.881, 156.006 100.501, 156.823 98.172 L 157.762 95.500 158.860 98.261 C 159.464 99.779, 159.711 103.154, 159.409 105.761 C 158.920 109.978, 159.017 110.307, 160.290 108.750 C 161.077 107.787, 161.896 107.002, 162.110 107.005 C 162.325 107.007, 162.568 110.863, 162.651 115.572 C 162.806 124.380, 163.418 126.534, 165.039 123.971 C 165.705 122.918, 165.974 123.622, 165.985 126.450 C 165.997 129.522, 166.267 130.133, 167.200 129.200 C 169.072 127.328, 170.289 127.786, 169.676 130.131 C 169.179 132.031, 170.873 135, 172.453 135 C 172.781 135, 173.501 133.813, 174.053 132.361 C 175.496 128.566, 176.048 129.873, 174.969 134.528 C 174.462 136.713, 174.037 139.738, 174.024 141.250 L 174 144 182.955 144 L 191.909 144 191.973 110.535 L 192.036 77.070 188.768 75.390 C 179.980 70.873, 167.873 59.884, 163.003 52.005 C 162.511 51.209, 161.951 50.770, 161.759 51.029 C 161.567 51.288, 159.698 54.043, 157.607 57.150 C 153.088 63.866, 142.334 75, 140.366 75 C 139.345 75, 139.053 73.822, 139.266 70.555 C 139.518 66.693, 141 62.658, 141 65.833 C 141 66.475, 141.625 67, 142.389 67 C 143.201 67, 144.069 65.448, 144.479 63.263 C 145.116 59.865, 145.300 59.690, 146.502 61.334 C 147.685 62.952, 147.957 62.550, 149.080 57.532 C 150.218 52.449, 150.141 51.432, 148.267 46.711 C 147.129 43.845, 145.660 38.581, 145.002 35.013 C 144.344 31.445, 143.187 27.328, 142.429 25.863 C 140.484 22.102, 131.073 14.093, 127.500 13.159 C 125.850 12.727, 123.990 11.352, 123.366 10.103 C 122.742 8.854, 121.785 7.385, 121.238 6.838 C 119.722 5.322, 113.654 4.211, 111.456 5.048 M 135.234 70.613 C 135.889 72.051, 136.596 72.711, 136.807 72.080 C 137.338 70.486, 136.269 68, 135.053 68 C 134.419 68, 134.486 68.973, 135.234 70.613 M 96.500 83.737 C 92.650 84.545, 89.420 85.277, 89.323 85.364 C 88.625 85.983, 93.159 96.520, 95.369 99.418 C 98.589 103.639, 100 103.959, 100 100.468 C 100 99.075, 100.707 96.263, 101.572 94.218 C 102.436 92.173, 103.258 88.588, 103.398 86.250 C 103.539 83.912, 103.619 82.060, 103.577 82.133 C 103.535 82.207, 100.350 82.928, 96.500 83.737 M 76.590 93.250 C 77.831 95.443, 81.318 99, 82.225 99 C 82.707 99, 81.900 97.425, 80.432 95.500 C 77.922 92.209, 75.047 90.525, 76.590 93.250 M 134.519 115.346 C 134.007 117.880, 134.208 120.610, 135.108 123.346 L 136.475 127.500 136.778 123.500 C 136.945 121.300, 136.680 117.700, 136.189 115.500 L 135.297 111.500 134.519 115.346" stroke="none" fill="black" fill-rule="evenodd"/>
</svg>