<svg xmlns="http://www.w3.org/2000/svg" width="192" height="144" viewBox="0 0 192 144" version="1.1">
	<path d="M 110 3.094 C 110 3.695, 110.900 4.423, 112 4.710 C 114.848 5.455, 114.473 6.865, 111.250 7.526 C 100.671 9.698, 96.735 12.364, 95.180 18.410 C 94.527 20.946, 93.813 21.556, 91.194 21.813 C 87.292 22.196, 85.604 24.923, 86.565 29.294 C 87.504 33.573, 89.518 36.459, 92.514 37.824 C 94.780 38.857, 94.999 39.513, 94.986 45.229 C 94.966 54.742, 94.496 55.757, 90.165 55.643 C 88.097 55.589, 84.315 56.627, 81.498 58.023 C 76.877 60.313, 75.595 60.477, 64.500 60.191 C 57.900 60.021, 50.678 59.477, 48.452 58.982 C 43.724 57.931, 40 58.651, 40 60.617 C 40 62.305, 37.947 62.388, 34.543 60.838 C 33.140 60.198, 31.683 59.984, 31.305 60.361 C 30.212 61.455, 33.163 63.815, 37.502 65.317 L 41.500 66.701 41.164 73.256 C 40.760 81.134, 41.649 81.756, 50 79.434 C 53.025 78.593, 57.884 77.251, 60.799 76.452 C 63.713 75.654, 68.213 74.995, 70.799 74.988 C 73.384 74.982, 77.975 74.312, 81 73.500 C 88.074 71.601, 88.275 71.618, 86.992 74.015 C 86.144 75.600, 86.243 76.156, 87.457 76.622 C 88.306 76.948, 89 78.334, 89 79.703 C 89 81.071, 89.975 83.561, 91.167 85.234 C 93.090 87.934, 93.192 88.628, 92.079 91.389 C 89.846 96.924, 88.840 102.283, 89.911 102.945 C 92.786 104.722, 92.107 119.702, 88.427 135.706 C 87.642 139.119, 87 142.381, 87 142.956 C 87 143.652, 94.979 144, 110.981 144 L 134.962 144 134.369 139.250 C 134.043 136.637, 133.427 132.821, 132.999 130.769 C 132.461 128.186, 132.700 125.723, 133.777 122.769 C 134.661 120.343, 135.525 113.859, 135.777 107.750 C 136.187 97.820, 136.945 95.092, 138.415 98.250 C 138.736 98.938, 138.748 97.378, 138.443 94.785 C 137.991 90.944, 138.294 89.521, 140.079 87.107 C 141.284 85.478, 142.025 83.549, 141.725 82.822 C 141.426 82.095, 140.490 79.884, 139.644 77.910 C 138.108 74.323, 138.111 74.313, 142.577 67.655 L 147.048 60.991 140.130 56.515 L 133.212 52.040 132.487 43.853 C 131.451 32.152, 131.337 19.054, 132.268 18.744 C 132.705 18.598, 130.769 16.459, 127.966 13.989 C 125.162 11.520, 121.116 7.813, 118.974 5.750 C 115.221 2.137, 110 0.591, 110 3.094 M 100.393 46.582 C 100.727 47.452, 101 49.477, 101 51.082 C 101 54.022, 102.402 55.069, 103.235 52.750 C 103.905 50.884, 102.105 45, 100.864 45 C 100.271 45, 100.059 45.712, 100.393 46.582" stroke="none" fill="black" fill-rule="evenodd"/>
</svg>