<svg xmlns="http://www.w3.org/2000/svg" width="192" height="144" viewBox="0 0 192 144" version="1.1">
	<path d="M -0 72.005 L -0 144.010 96.250 143.755 L 192.500 143.500 192.757 71.750 L 193.013 0 161.007 0 L 129 0 129 7.290 C 129 25.195, 120.745 41.117, 106.737 50.230 C 93.473 58.858, 80.231 61.717, 68.032 58.589 C 49.705 53.888, 38.473 44.469, 31.247 27.741 C 27.983 20.186, 27.686 18.689, 27.665 9.750 L 27.644 0 13.822 0 L 0 0 -0 72.005 M 0.474 72.500 C 0.474 112.100, 0.598 128.154, 0.750 108.176 C 0.901 88.198, 0.901 55.798, 0.750 36.176 C 0.598 16.554, 0.474 32.900, 0.474 72.500" stroke="none" fill="black" fill-rule="evenodd"/>
</svg>