<svg xmlns="http://www.w3.org/2000/svg" width="192" height="144" viewBox="0 0 192 144" version="1.1">
	<path d="M 166.627 2.750 C 166.993 4.263, 167.677 6.542, 168.146 7.815 C 169.810 12.327, 169.015 14.487, 163.545 20.317 C 158.771 25.406, 151.269 36, 152.439 36 C 152.671 36, 151.766 38.691, 150.430 41.980 C 149.093 45.269, 148 49.196, 148 50.707 C 148 55.024, 151.201 69.392, 152.409 70.500 C 153.009 71.050, 154.760 73.357, 156.301 75.627 C 158.399 78.719, 159.948 79.892, 162.470 80.301 C 167.685 81.148, 171.185 83.834, 170.391 86.382 C 170.028 87.547, 169.295 88.780, 168.762 89.123 C 167.232 90.107, 169.693 93.790, 173.034 95.518 C 174.670 96.364, 177.187 98.836, 178.626 101.011 C 180.066 103.187, 181.644 104.720, 182.132 104.419 C 182.620 104.117, 184.189 105.259, 185.618 106.957 C 187.047 108.656, 189.067 110.501, 190.108 111.058 C 191.954 112.046, 192 110.696, 192 56.035 L 192 0 178.981 0 L 165.962 0 166.627 2.750 M 108.398 50 C 109.903 60.482, 111.130 66.375, 112.479 69.604 C 114.396 74.192, 113.664 75.309, 109.132 74.714 C 106.518 74.371, 104.582 74.835, 102.225 76.369 C 98.441 78.831, 97.264 82.089, 98.879 85.633 C 99.843 87.751, 99.651 88.591, 97.578 91.309 C 94.913 94.804, 91.552 105.734, 90.464 114.445 C 89.957 118.496, 90.395 123.244, 92.082 131.999 L 94.394 144 106.716 144 L 119.038 144 118.388 141.250 C 118.031 139.738, 116.235 133.951, 114.398 128.391 L 111.059 118.283 115.599 113.391 C 118.096 110.701, 120.794 107.263, 121.595 105.750 C 122.396 104.237, 123.377 103.005, 123.776 103.012 C 124.174 103.018, 126.509 108.037, 128.964 114.165 C 131.419 120.293, 134.217 126.250, 135.181 127.403 L 136.933 129.500 136.967 127.419 C 136.985 126.275, 135.147 119.300, 132.882 111.919 C 129.708 101.575, 128.689 96.503, 128.438 89.788 C 128.083 80.308, 127.058 77.353, 123.678 76.068 C 122.217 75.512, 120.849 73.429, 119.604 69.866 C 118.574 66.915, 116.441 62.195, 114.865 59.378 C 113.289 56.561, 112 53.574, 112 52.739 C 112 51.904, 111.076 50.159, 109.948 48.861 L 107.895 46.500 108.398 50 M 167 77.651 C 167 78.201, 168.125 79.708, 169.500 81 C 170.875 82.292, 172 82.899, 172 82.349 C 172 81.799, 170.875 80.292, 169.500 79 C 168.125 77.708, 167 77.101, 167 77.651 M 189 117.525 C 187.625 118.335, 184.363 119.882, 181.750 120.963 C 178.999 122.102, 177 123.575, 177 124.464 C 177 125.309, 176.662 126.008, 176.250 126.017 C 175.838 126.027, 171.318 126.475, 166.208 127.014 C 154.567 128.240, 151.408 129.771, 150.040 134.851 C 149.130 138.231, 148.321 138.994, 143.253 141.252 L 137.500 143.816 164.750 143.908 L 192 144 192 130 C 192 122.300, 191.887 116.012, 191.750 116.027 C 191.613 116.041, 190.375 116.716, 189 117.525" stroke="none" fill="black" fill-rule="evenodd"/>
</svg>