<svg xmlns="http://www.w3.org/2000/svg" width="192" height="144" viewBox="0 0 192 144" version="1.1">
	<path d="M 0.116 11.250 C 0.237 22.969, 0.452 23.355, 1.510 13.750 C 2.087 8.517, 2.361 8, 4.552 8 C 6.415 8, 7.628 9.188, 9.914 13.250 C 11.539 16.138, 13.306 18.999, 13.841 19.608 C 14.377 20.219, 20.132 21.027, 26.657 21.407 C 49.902 22.763, 64.036 25.112, 68.474 28.358 C 71.092 30.272, 71.828 39.428, 69.565 41.928 C 67.673 44.019, 67.847 44.200, 73.500 46.037 L 77.500 47.336 74.500 48.623 C 72.850 49.331, 70.074 49.930, 68.332 49.955 C 62.453 50.039, 62 50.603, 61.995 57.857 C 61.991 63.162, 61.493 65.306, 59.526 68.500 C 57.257 72.185, 57.060 73.490, 57.031 85.062 L 57 97.624 59.993 99.837 C 65.247 103.721, 66.459 106.556, 67.673 117.805 C 68.199 122.669, 67.987 123.433, 65.123 126.996 C 63.405 129.134, 62 131.375, 62 131.977 C 62 132.578, 61.369 134.067, 60.598 135.285 C 59.827 136.503, 58.891 138.963, 58.519 140.750 L 57.841 144 124.921 144 L 192 144 191.984 97.250 C 191.975 71.537, 192.204 39.138, 192.493 25.250 L 193.019 0 96.510 0 L 0 0 0.116 11.250 M 0.374 11.500 C 0.376 17.550, 0.541 19.896, 0.740 16.713 C 0.939 13.531, 0.937 8.581, 0.736 5.713 C 0.535 2.846, 0.372 5.450, 0.374 11.500" stroke="none" fill="black" fill-rule="evenodd"/>
</svg>