<svg xmlns="http://www.w3.org/2000/svg" width="192" height="144" viewBox="0 0 192 144" version="1.1">
	<path d="M 0 72 L 0 144 36.500 144 C 70.917 144, 73 143.898, 73 142.208 C 73 141.223, 74.575 134.893, 76.500 128.141 C 80.474 114.202, 80.504 114, 78.607 114 C 76.647 114, 75.969 111.636, 76.980 108.323 C 79.259 100.856, 84.116 81.654, 85.528 74.532 C 87.245 65.872, 86.942 62.927, 84.009 59.780 C 81.811 57.420, 80.395 52.170, 81.649 51.025 C 82.784 49.987, 109.855 48.957, 110.455 49.928 C 111.157 51.063, 109.118 57.739, 107.608 59.249 C 106.885 59.973, 105.971 62.710, 105.577 65.333 C 104.831 70.308, 105.842 75.791, 110.770 93.500 C 112.147 98.450, 113.417 103.625, 113.591 105 C 113.765 106.375, 114.181 108.418, 114.515 109.539 C 114.915 110.882, 114.441 112.196, 113.124 113.388 C 111.471 114.884, 111.302 115.657, 112.148 117.849 C 114.160 123.058, 118.915 142.329, 118.396 143.169 C 118.105 143.639, 134.659 143.906, 155.183 143.762 L 192.500 143.500 192.757 71.750 L 193.013 0 96.507 0 L 0 0 0 72 M 0.474 72.500 C 0.474 112.100, 0.598 128.154, 0.750 108.176 C 0.901 88.198, 0.901 55.798, 0.750 36.176 C 0.598 16.554, 0.474 32.900, 0.474 72.500" stroke="none" fill="black" fill-rule="evenodd"/>
</svg>