<svg xmlns="http://www.w3.org/2000/svg" width="192" height="144" viewBox="0 0 192 144" version="1.1">
	<path d="M 0 54.567 C 0 106.058, 0.099 109.107, 1.750 108.639 C 2.713 108.367, 6.763 107.841, 10.750 107.470 C 17.963 106.800, 19.444 105.776, 16.409 103.557 C 15.101 102.600, 14.994 101.690, 15.811 98.447 C 16.358 96.276, 17.091 92.133, 17.439 89.239 C 18.037 84.267, 17.932 83.925, 15.536 83.014 C 12.539 81.874, 12.528 81.813, 14.639 77.731 C 15.541 75.987, 16.396 71.847, 16.539 68.530 C 16.682 65.214, 16.844 61.520, 16.900 60.321 C 17.016 57.790, 19.489 55, 21.617 55 C 22.428 55, 24.213 56.122, 25.584 57.493 C 27.435 59.344, 27.848 60.439, 27.187 61.743 C 26.697 62.709, 26.418 65.525, 26.566 68 C 26.783 71.612, 27.436 73.001, 29.879 75.040 C 32.105 76.899, 32.772 78.156, 32.363 79.721 C 32.043 80.944, 31.245 81.648, 30.503 81.363 C 28.084 80.434, 27.976 82.807, 29.972 93.104 C 31.067 98.751, 31.757 103.576, 31.505 103.828 C 31.254 104.079, 30.343 103.700, 29.482 102.985 C 26.900 100.842, 25.163 103.417, 27.470 105.966 C 29.256 107.940, 29.220 108.010, 25.677 109.490 C 23.360 110.458, 22.252 111.493, 22.589 112.371 C 23.165 113.873, 20.406 115.369, 18.842 114.402 C 18.304 114.070, 18.105 113.168, 18.400 112.399 C 19.071 110.651, 16.358 110.592, 6.943 112.147 L 0 113.293 0 128.647 L 0 144 35.893 144 C 76.284 144, 76.351 143.987, 68.441 137.505 C 64.296 134.109, 64 133.542, 64 129.012 C 64 125.595, 65.332 120.822, 68.500 112.891 C 70.975 106.693, 73 101.258, 73 100.812 C 73 99.037, 69.552 100.336, 52.874 108.397 C 27.411 120.703, 12.972 125.153, 13.010 120.683 C 13.021 119.433, 17.309 117.341, 28 113.370 C 38.691 109.399, 65.857 95.811, 66.536 94.095 C 66.883 93.218, 67.514 90.351, 67.938 87.723 L 68.710 82.947 59.855 76.448 C 54.985 72.873, 51 69.537, 51 69.033 C 51 66.700, 53.102 67.551, 59.741 72.574 C 67.410 78.377, 69.007 79.012, 68.988 76.250 C 68.982 75.287, 71.046 70.374, 73.574 65.330 C 77.417 57.665, 79.129 55.408, 84.001 51.580 C 87.208 49.061, 90.319 47, 90.916 47 C 91.512 47, 92 46.520, 92 45.933 C 92 45.346, 91.213 45.102, 90.250 45.392 C 86.926 46.392, 84.498 43.343, 84.527 38.207 C 84.599 25.943, 96.054 16.874, 104.490 22.402 C 107.980 24.688, 109 24.395, 109 21.107 C 109 19.516, 109.633 17.971, 110.406 17.675 C 111.179 17.378, 112.115 15.755, 112.485 14.068 C 113.562 9.167, 114.500 10.513, 114.500 16.958 C 114.500 21.645, 114.097 23.203, 112.604 24.298 C 111.138 25.371, 110.870 26.348, 111.425 28.594 C 113.495 36.975, 113.381 38.059, 110.120 41.037 C 106.389 44.446, 105.959 46.609, 109.250 45.422 C 110.487 44.975, 115.148 44.712, 119.607 44.837 C 126.711 45.036, 129.256 44.565, 140.185 41.024 C 150.981 37.527, 153.080 37.132, 155.812 38.084 C 158.828 39.136, 159.402 38.861, 168.734 31.911 C 174.105 27.911, 180.701 22.730, 183.392 20.399 C 189.541 15.070, 192 14.269, 192 17.596 C 192 19.384, 190.489 21.098, 186.131 24.252 C 164.490 39.916, 161.002 42.665, 161.001 44.062 C 161 46.141, 155.502 50.130, 153.628 49.411 C 152.508 48.981, 152.286 49.378, 152.719 51.035 C 153.211 52.916, 152.987 53.131, 151.137 52.543 C 149.547 52.039, 147.210 53.017, 142.240 56.265 C 130.222 64.121, 112.568 75.565, 109.841 77.267 C 108.378 78.180, 105.930 80.087, 104.401 81.504 L 101.620 84.082 103.901 92.791 C 105.155 97.581, 106.636 102.051, 107.192 102.725 C 107.748 103.398, 114.682 107.613, 122.601 112.091 C 130.521 116.570, 137 120.631, 137 121.117 C 137 123.834, 125.545 119.504, 114.250 112.516 C 109.871 109.807, 109.028 110.097, 111.314 113.527 C 113.698 117.104, 118 128.086, 118 130.592 C 118 132.175, 116.395 134.658, 113.500 137.553 C 111.025 140.028, 109 142.496, 109 143.037 C 109 143.672, 123.840 143.929, 150.750 143.761 L 192.500 143.500 192.559 71.500 C 192.592 31.900, 192.460 2.734, 192.267 6.686 L 191.915 13.873 188.312 15.062 C 179.335 18.025, 167.094 13.772, 158.042 4.544 L 153.584 0 76.792 0 L 0 0 0 54.567 M 0.466 55 C 0.466 84.975, 0.594 97.237, 0.749 82.250 C 0.905 67.262, 0.905 42.737, 0.749 27.750 C 0.594 12.762, 0.466 25.025, 0.466 55 M 12.667 18.667 C 11.516 19.817, 11.938 21, 13.500 21 C 14.325 21, 15 20.325, 15 19.500 C 15 17.938, 13.817 17.516, 12.667 18.667 M 103.557 46.582 C 102.491 47.362, 102.041 47.993, 102.559 47.985 C 103.941 47.962, 106.520 46.186, 105.969 45.636 C 105.710 45.376, 104.624 45.802, 103.557 46.582 M 138.500 49.074 C 135.200 50.680, 131.276 51.995, 129.781 51.997 C 128.285 51.999, 125.135 53.013, 122.781 54.250 C 119.743 55.847, 116.830 56.490, 112.749 56.465 C 108.421 56.439, 106.886 56.810, 106.546 57.965 C 106.160 59.272, 105.683 70.955, 105.921 73.265 C 105.999 74.020, 142.122 50.076, 144.964 47.386 C 147.161 45.307, 145.173 45.826, 138.500 49.074 M 80.188 70.750 C 77.088 73.607, 75.965 75.508, 75.474 78.733 C 74.885 82.602, 75.052 83.066, 77.411 84.141 C 79.575 85.128, 80.315 85.025, 81.996 83.504 C 84.269 81.446, 84.599 79.368, 82.750 78.746 C 81.834 78.438, 82.101 77.118, 83.750 73.803 C 87.655 65.955, 86.482 64.950, 80.188 70.750 M 72.656 89.206 C 71.908 92.067, 72.356 92.415, 74.979 91.011 C 76.702 90.089, 76.893 89.576, 75.942 88.430 C 74.276 86.422, 73.326 86.647, 72.656 89.206 M 21 104.941 C 21 105.459, 21.450 106.160, 22 106.500 C 22.550 106.840, 23 106.416, 23 105.559 C 23 104.702, 22.550 104, 22 104 C 21.450 104, 21 104.423, 21 104.941 M 0.405 128.500 C 0.406 137.300, 0.559 140.766, 0.745 136.203 C 0.930 131.639, 0.929 124.439, 0.742 120.203 C 0.555 115.966, 0.404 119.700, 0.405 128.500 M 39.685 125.096 C 39.023 127.628, 39.865 130.201, 41.105 129.435 C 42.265 128.718, 42.275 123, 41.117 123 C 40.631 123, 39.987 123.943, 39.685 125.096 M 52.964 135.164 C 51.819 137.397, 51.846 137.424, 53.574 135.774 C 54.568 134.824, 55.107 133.773, 54.771 133.438 C 54.436 133.103, 53.623 133.880, 52.964 135.164 M 81.813 143.683 C 82.534 143.972, 83.397 143.936, 83.729 143.604 C 84.061 143.272, 83.471 143.036, 82.417 143.079 C 81.252 143.127, 81.015 143.364, 81.813 143.683" stroke="none" fill="black" fill-rule="evenodd"/>
</svg>