<svg xmlns="http://www.w3.org/2000/svg" width="192" height="144" viewBox="0 0 192 144" version="1.1">
	<path d="M 0 72 L 0 144 31.750 143.996 L 63.500 143.992 68.464 141.473 C 71.194 140.088, 75.170 138.677, 77.299 138.336 C 79.429 137.996, 81.327 137.218, 81.518 136.608 C 81.709 135.999, 82.064 131.563, 82.308 126.750 C 82.663 119.744, 82.475 118, 81.365 118 C 80.602 118, 74.758 119.800, 68.378 122 C 61.998 124.200, 55.968 126, 54.978 126 C 51.855 126, 48 120.348, 48 115.769 C 48 112.250, 48.547 111.223, 52 108.268 C 54.200 106.385, 56 104.271, 56 103.570 C 56 102.870, 57.350 100.884, 59 99.157 C 60.650 97.431, 62 95.202, 62 94.205 C 62 90.514, 71.175 84.031, 81.093 80.716 C 82.415 80.274, 82.815 77.496, 83.448 64.342 C 83.868 55.629, 84.276 47.175, 84.355 45.555 C 84.482 42.986, 84.052 42.491, 81 41.686 C 79.075 41.178, 75.800 40.654, 73.722 40.520 C 71.645 40.387, 69.714 40.048, 69.432 39.766 C 69.023 39.356, 72.664 36.059, 80 30.197 C 80.275 29.977, 78.588 28.143, 76.250 26.121 C 73.913 24.100, 72 22.120, 72 21.723 C 72 21.325, 74.876 21, 78.392 21 L 84.784 21 85.642 16.332 C 86.114 13.765, 86.950 11.516, 87.500 11.335 C 88.050 11.154, 89.625 13.142, 91 15.753 L 93.500 20.500 108.203 22.104 C 118.564 23.235, 123.720 24.241, 125.662 25.514 C 128.404 27.311, 128.429 27.306, 130.459 24.521 C 131.582 22.982, 133.277 20.772, 134.226 19.611 C 135.901 17.562, 135.933 17.641, 135.332 22.305 C 134.794 26.479, 134.995 27.308, 136.856 28.612 C 138.035 29.438, 139 31.158, 139 32.435 C 139 34.076, 139.886 35.124, 142.021 36.009 C 146.346 37.800, 146.430 38.568, 142.507 40.430 C 139.443 41.884, 139.173 42.305, 140.228 43.994 C 140.886 45.047, 141.208 46.125, 140.944 46.389 C 140.370 46.963, 135.488 47.801, 132 47.923 C 129.739 48.003, 129.333 48.708, 127.750 55.311 C 125.466 64.838, 125.287 83.789, 127.473 84.628 C 129.620 85.452, 134.016 95.343, 134.663 100.806 C 135.108 104.557, 134.766 106.283, 132.978 109.314 C 131.220 112.293, 130.709 114.778, 130.617 120.802 L 130.500 128.488 134.250 129.421 C 138.812 130.554, 139.110 132.680, 135.526 138.500 C 134.171 140.700, 133.048 142.844, 133.031 143.265 C 133.014 143.686, 146.387 143.911, 162.750 143.765 L 192.500 143.500 192.757 71.750 L 193.013 0 96.507 0 L 0 0 0 72 M 0.474 72.500 C 0.474 112.100, 0.598 128.154, 0.750 108.176 C 0.901 88.198, 0.901 55.798, 0.750 36.176 C 0.598 16.554, 0.474 32.900, 0.474 72.500" stroke="none" fill="black" fill-rule="evenodd"/>
</svg>