<svg xmlns="http://www.w3.org/2000/svg" width="192" height="144" viewBox="0 0 192 144" version="1.1">
	<path d="M 181.122 3.519 C 180.588 5.455, 180.323 8.404, 180.535 10.073 C 181.497 17.680, 161.875 62.296, 149.368 80.936 C 146.069 85.854, 147.671 86.981, 156.739 86.118 C 157.420 86.053, 159.735 82.512, 161.882 78.250 C 164.029 73.987, 168.084 66.527, 170.893 61.671 C 173.702 56.815, 176 52.640, 176 52.393 C 176 52.145, 177.522 48.693, 179.381 44.722 C 181.241 40.750, 183.301 35.813, 183.959 33.750 C 185.244 29.721, 187.486 28.806, 188.471 31.910 C 188.805 32.960, 189.735 34.365, 190.539 35.032 C 191.811 36.088, 192 33.904, 192 18.122 L 192 0 187.047 0 C 182.232 0, 182.067 0.098, 181.122 3.519 M 190.250 46.343 C 189.563 47.856, 189 50.050, 189 51.218 C 189 52.387, 188.232 54.191, 187.294 55.227 C 185.899 56.769, 185.809 57.464, 186.800 59.051 C 188.118 61.162, 187.978 61.362, 180.834 67.518 C 178.908 69.178, 176.695 71.861, 175.916 73.481 C 174.705 76, 169.936 80.131, 167.026 81.183 C 164.957 81.930, 164.894 86.647, 166.921 89.063 L 168.965 91.500 169.581 89.319 C 170.242 86.980, 172.597 85.538, 173.464 86.942 C 173.755 87.412, 172.757 89.111, 171.246 90.718 C 169.254 92.837, 166.818 93.993, 162.374 94.930 C 156.089 96.254, 150.225 95.847, 131.142 92.763 C 124.296 91.656, 123.688 91.706, 122.392 93.478 C 120.201 96.475, 120.625 99.891, 123.250 100.386 C 127.393 101.168, 145.459 103.019, 149 103.025 C 153.139 103.032, 156.380 104.575, 153.972 105.392 C 148.828 107.137, 143.721 107.990, 138.390 107.994 C 129.144 108.003, 123 109.057, 123 110.636 C 123 111.386, 122.325 112, 121.500 112 C 118.980 112, 119.827 113.686, 123.009 115.004 C 125.412 115.999, 127.979 115.998, 135.759 114.999 C 157.042 112.267, 164.579 109.364, 172.564 100.828 C 175.048 98.173, 177.434 96, 177.866 96 C 180.632 96, 186.599 85.485, 187.603 78.842 C 187.965 76.454, 189.115 73.557, 190.160 72.404 C 191.861 70.527, 192.031 68.905, 191.780 56.950 C 191.536 45.327, 191.338 43.949, 190.250 46.343 M 93.750 46.689 C 91.722 47.219, 91.467 50.174, 93.209 52.963 C 94.182 54.521, 94.102 55.562, 92.801 58.290 C 91.912 60.155, 91.514 62.214, 91.917 62.866 C 92.321 63.519, 92.098 66.730, 91.424 70.004 C 90.749 73.277, 90.041 80.803, 89.849 86.728 C 89.508 97.259, 89.550 97.507, 91.750 97.820 C 94.539 98.216, 94.703 100.642, 92 101.500 C 90.900 101.849, 90 102.771, 90 103.548 C 90 105.513, 94.151 106.354, 99.723 105.519 C 103.782 104.910, 104.154 104.669, 102.460 103.743 C 99.977 102.385, 99.035 100.989, 99.015 98.642 C 99.003 97.169, 99.506 96.910, 101.439 97.395 C 102.780 97.732, 104.150 97.566, 104.484 97.026 C 104.817 96.486, 104.095 91.197, 102.879 85.272 C 101.664 79.348, 100.568 72.250, 100.445 69.500 C 100.322 66.750, 100.089 62.395, 99.928 59.823 C 99.758 57.123, 100.163 54.508, 100.886 53.637 C 101.877 52.444, 101.884 51.644, 100.920 49.814 C 99.005 46.180, 97.766 45.640, 93.750 46.689 M 190.556 105.910 C 190.247 106.410, 190.267 107.532, 190.601 108.403 C 190.971 109.366, 189.176 113.189, 186.018 118.162 C 180.665 126.594, 172 142.152, 172 143.332 C 172 143.699, 176.500 144, 182 144 L 192 144 192 124.500 C 192 113.775, 191.802 105, 191.559 105 C 191.316 105, 190.865 105.409, 190.556 105.910" stroke="none" fill="black" fill-rule="evenodd"/>
</svg>