<svg xmlns="http://www.w3.org/2000/svg" width="192" height="144" viewBox="0 0 192 144" version="1.1">
	<path d="M 0 112.548 L 0 133.096 4.430 130.048 C 13.084 124.094, 14.773 127.230, 6.926 134.682 C 4.136 137.332, 1.436 139.650, 0.926 139.833 C 0.417 140.017, -0 141.029, -0 142.083 C -0 143.906, 0.945 144, 19.187 144 L 38.374 144 35.437 140.857 C 33.822 139.129, 29.701 134.741, 26.279 131.107 C 16.425 120.641, 16.030 120.124, 13.505 114.415 C 12.188 111.437, 10.691 109, 10.179 109 C 9.667 109, 7.388 105.175, 5.114 100.500 C 2.840 95.825, 0.759 92, 0.490 92 C 0.220 92, 0 101.247, 0 112.548" stroke="none" fill="black" fill-rule="evenodd"/>
</svg>