<svg xmlns="http://www.w3.org/2000/svg" width="192" height="144" viewBox="0 0 192 144" version="1.1">
	<path d="M 159.809 2.750 C 157.475 5.253, 155 9.159, 155 10.341 C 155 10.600, 156.012 10.552, 157.250 10.233 C 159.237 9.721, 159.343 9.845, 158.155 11.293 C 157.416 12.195, 156.997 13.492, 157.225 14.175 C 157.477 14.930, 159.751 13.473, 163.025 10.459 L 168.411 5.500 164.706 10.103 C 162.668 12.635, 161 14.997, 161 15.353 C 161 16.886, 163.282 15.743, 167.195 12.250 C 170.162 9.602, 170.897 9.226, 169.698 10.973 C 166.651 15.410, 167.771 16.614, 171.544 12.958 C 174.168 10.414, 175.294 9.857, 175.883 10.811 C 176.462 11.748, 177.653 11.020, 180.257 8.138 C 187.665 -0.063, 187.712 0, 174.222 0 C 162.586 0, 162.328 0.049, 159.809 2.750 M 185.087 4.197 C 183.389 6.505, 182.020 9.318, 182.045 10.447 C 182.082 12.083, 183.098 11.394, 187.045 7.060 C 192.480 1.092, 192.951 0, 190.087 -0 C 188.996 -0, 186.845 1.805, 185.087 4.197 M 190.213 6.411 C 188.839 9.449, 189.336 11.064, 191.101 9.299 C 191.689 8.711, 192.019 7.181, 191.835 5.897 C 191.509 3.626, 191.466 3.639, 190.213 6.411 M 90.688 18.646 C 90.309 19.024, 90 20.158, 90 21.167 C 90 23.254, 87.054 23.654, 85.217 21.817 C 83.405 20.005, 82.695 21.525, 84.181 24.033 C 85.240 25.822, 85.249 26.352, 84.229 26.721 C 81.993 27.530, 80 32.751, 80 37.800 C 80 41.618, 80.632 43.561, 82.864 46.600 C 85.898 50.730, 89.420 54.148, 92.154 55.613 C 96.746 58.076, 103.929 66.024, 104.934 69.753 C 105.748 72.776, 108.194 75.833, 115.250 82.646 C 120.338 87.558, 126.750 94.175, 129.500 97.350 L 134.500 103.124 142.399 101.800 C 147.834 100.889, 150.641 99.925, 151.399 98.709 C 152.229 97.377, 152.178 96.742, 151.190 96.126 C 150.200 95.508, 150.468 94.923, 152.289 93.730 C 153.733 92.784, 155.203 90.348, 155.959 87.647 C 156.653 85.169, 158.357 82.097, 159.747 80.821 C 161.218 79.470, 162.035 79.127, 161.702 80 C 159.629 85.434, 158.789 89.115, 159.477 89.756 C 159.915 90.165, 160.475 89.938, 160.720 89.250 C 160.966 88.562, 161.536 88, 161.987 88 C 162.439 88, 161.995 90.138, 161.002 92.751 C 160.010 95.365, 158.883 99.595, 158.500 102.153 C 157.762 107.073, 157.947 107.299, 163.670 108.453 C 164.677 108.656, 166.850 109.354, 168.500 110.003 C 170.150 110.653, 172.625 111.372, 174 111.602 C 175.375 111.833, 177.493 112.245, 178.707 112.519 C 180.246 112.866, 181.845 112.106, 183.992 110.008 C 187.868 106.219, 189 106.217, 189 110 C 189 112, 189.500 113, 190.500 113 C 191.813 113, 191.992 107.058, 191.932 65.250 C 191.893 37.215, 191.505 18.326, 190.994 19.500 C 190.515 20.600, 188.013 26.900, 185.435 33.500 C 182.856 40.100, 178.952 48.875, 176.760 53 C 168.625 68.306, 162.618 78.353, 162.254 77.261 C 162.047 76.642, 162.581 74.777, 163.439 73.117 C 165.314 69.491, 165.482 63.317, 163.750 61.666 C 159.048 57.183, 157.354 56.835, 140.661 56.921 C 131.773 56.966, 123.936 56.637, 123.246 56.190 C 121.775 55.237, 121.958 50.055, 123.468 49.881 C 124.036 49.816, 122.250 49.184, 119.500 48.477 L 114.500 47.192 119 47.064 C 121.475 46.994, 124.374 46.276, 125.441 45.468 C 126.509 44.661, 126.828 44, 126.151 44 C 125.473 44, 123.641 43.055, 122.079 41.901 C 119.803 40.218, 118.835 40.018, 117.200 40.893 C 115.631 41.733, 113.680 41.527, 108.745 40.003 C 101.308 37.706, 98.909 35.510, 98.778 30.881 C 98.726 29.054, 97.505 25.555, 96.065 23.105 C 93.424 18.609, 91.948 17.385, 90.688 18.646" stroke="none" fill="black" fill-rule="evenodd"/>
</svg>