<svg xmlns="http://www.w3.org/2000/svg" width="192" height="144" viewBox="0 0 192 144" version="1.1">
	<path d="M 94.500 52.356 C 90.383 54.237, 88.595 56.478, 85.487 63.655 C 82.834 69.779, 82.806 69.805, 79.667 68.905 C 75.736 67.777, 76 67.742, 76 69.389 C 76 70.178, 77.477 71.054, 79.421 71.419 C 82.732 72.040, 82.813 72.165, 81.921 75.274 C 79.735 82.897, 82.535 90.087, 89.565 94.904 C 94.270 98.128, 103.911 98.854, 110.954 96.515 C 116.329 94.730, 122.203 90.344, 124.217 86.613 C 125.975 83.355, 126.187 70.262, 124.534 67.065 C 119.381 57.101, 102.360 48.765, 94.500 52.356" stroke="none" fill="black" fill-rule="evenodd"/>
</svg>