<svg xmlns="http://www.w3.org/2000/svg" width="192" height="144" viewBox="0 0 192 144" version="1.1">
	<path d="M 0 72 L 0 144 36.500 144 C 70.488 144, 73 143.880, 73 142.263 C 73 141.308, 74.639 134.724, 76.642 127.632 C 80.023 115.659, 80.159 114.668, 78.544 113.764 C 76.403 112.566, 76.954 107.494, 80.529 95.500 C 83.373 85.960, 87 68.802, 87 64.890 C 87 63.355, 86.386 61.740, 85.635 61.300 C 84.008 60.346, 81 54.711, 81 52.617 C 81 50.758, 83.658 49.885, 88.639 50.108 C 90.763 50.203, 96.247 50.162, 100.828 50.018 C 105.408 49.873, 109.535 50.148, 110 50.628 C 110.921 51.579, 108.705 58.929, 107.205 59.900 C 106.695 60.230, 105.959 62.660, 105.570 65.300 C 104.802 70.513, 106.023 77.004, 111.133 94.867 C 112.764 100.569, 113.868 105.466, 113.585 105.749 C 113.302 106.032, 113.549 107.158, 114.135 108.251 C 114.969 109.810, 114.776 110.812, 113.241 112.887 C 111.728 114.934, 111.495 116.098, 112.216 118.018 C 114.160 123.200, 117.995 138.616, 117.997 141.262 L 118 144.024 155.250 143.762 L 192.500 143.500 192.757 71.750 L 193.013 0 96.507 0 L 0 0 0 72 M 0.474 72.500 C 0.474 112.100, 0.598 128.154, 0.750 108.176 C 0.901 88.198, 0.901 55.798, 0.750 36.176 C 0.598 16.554, 0.474 32.900, 0.474 72.500" stroke="none" fill="black" fill-rule="evenodd"/>
</svg>