<svg xmlns="http://www.w3.org/2000/svg" width="192" height="144" viewBox="0 0 192 144" version="1.1">
	<path d="M 0 72 L 0 144 33.876 144 L 67.752 144 65.321 137.303 C 58.567 118.697, 55.537 97.849, 55.537 70 C 55.537 50.557, 55.849 45.937, 57.829 36 C 60.203 24.090, 62.914 12.959, 65.442 4.750 L 66.904 0 33.452 0 L 0 0 0 72 M 133 2.012 C 137.675 3.023, 150.050 5.488, 160.500 7.488 C 170.950 9.489, 181.660 11.547, 184.299 12.063 C 192.197 13.605, 192 13.748, 192 6.500 L 192 0 158.250 0.087 L 124.500 0.173 133 2.012 M 116.515 9.895 L 112.530 10.500 109.250 19.500 C 103.975 33.970, 99.197 51.772, 97.843 62 C 97.152 67.225, 96.604 80.500, 96.625 91.500 C 96.668 113.126, 98.024 123.858, 102.311 136.500 L 104.685 143.500 148.350 143.761 L 192.016 144.021 191.758 83.801 L 191.500 23.582 188 22.803 C 186.075 22.375, 178.650 20.876, 171.500 19.472 C 164.350 18.068, 155.575 16.278, 152 15.494 C 123.760 9.299, 122.133 9.042, 116.515 9.895" stroke="none" fill="black" fill-rule="evenodd"/>
</svg>