<svg xmlns="http://www.w3.org/2000/svg" width="192" height="144" viewBox="0 0 192 144" version="1.1">
	<path d="M 98 102.897 C 98 104.021, 96.754 105.861, 95.231 106.987 C 92.624 108.915, 92.474 109.440, 92.666 116.017 C 92.791 120.338, 92.470 123, 91.823 123 C 90.678 123, 91.647 130.125, 92.911 130.998 C 93.311 131.274, 94.413 133.469, 95.361 135.875 C 96.982 139.990, 96.983 140.361, 95.387 142.125 C 93.743 143.942, 93.914 144, 100.908 144 C 107.183 144, 108.102 143.771, 107.948 142.250 C 107.850 141.287, 107.822 139.029, 107.885 137.231 C 107.988 134.292, 108.244 134.023, 110.418 134.569 C 112.230 135.023, 113.116 134.652, 113.953 133.088 C 114.568 131.940, 114.841 131, 114.560 131 C 114.279 131, 114.476 129.879, 114.997 128.509 C 116.387 124.851, 115.265 123.002, 111.643 122.985 C 106.544 122.960, 105.928 122.040, 106.247 114.928 C 106.514 108.980, 106.330 108.327, 103.791 106.181 C 102.281 104.905, 101.148 103.357, 101.273 102.740 C 101.398 102.123, 100.713 101.447, 99.750 101.236 C 98.529 100.969, 98 101.472, 98 102.897 M 177.074 111.217 C 169.234 126.132, 169.305 126.063, 169.653 118.468 C 169.876 113.583, 169.621 112, 168.609 112 C 166.524 112, 161.824 107.901, 162.347 106.539 C 162.604 105.868, 162.413 104.684, 161.923 103.909 C 161.182 102.739, 161.028 102.768, 161.015 104.084 C 161.007 104.955, 159.251 107.561, 157.114 109.876 C 153.269 114.041, 153.235 114.148, 153.920 119.957 C 154.301 123.186, 155.205 126.542, 155.929 127.414 C 157.073 128.793, 156.903 129, 154.622 129 C 152.388 129, 152 129.434, 152 131.935 C 152 136.093, 153.684 140, 155.475 140 C 156.333 140, 157 140.874, 157 142 C 157 143.825, 157.667 144, 164.636 144 L 172.272 144 171.655 139.500 C 170.955 134.395, 171.209 134.268, 178.485 136.100 C 182.584 137.133, 183.075 137.026, 186.401 134.372 C 189.972 131.522, 192.839 126.506, 191.603 125.270 C 191.237 124.903, 187.793 125.143, 183.950 125.802 C 175.303 127.285, 172 127.318, 172 125.922 C 172 125.329, 174.497 119.881, 177.548 113.816 C 180.600 107.751, 182.957 102.372, 182.787 101.862 C 182.617 101.352, 180.046 105.562, 177.074 111.217 M 38.240 105.753 C 37.558 105.981, 37 106.999, 37 108.015 C 37 110.092, 32.096 114, 29.489 114 C 28.252 114, 27.989 114.479, 28.526 115.750 C 28.934 116.713, 29.199 118.743, 29.116 120.263 C 29.034 121.783, 29.821 124.796, 30.866 126.960 L 32.767 130.892 29.666 131.573 C 27.961 131.948, 25.750 132.760, 24.752 133.377 C 22.901 134.524, 22.665 134.357, 20.081 130.069 C 19.336 128.834, 18.564 128.848, 14.408 130.174 C 9.399 131.773, 6.680 134.620, 11.260 133.471 C 13.352 132.946, 14.160 133.526, 16.723 137.395 C 18.377 139.893, 19.904 141.785, 20.115 141.601 C 20.327 141.417, 22.637 141.037, 25.250 140.756 C 29.411 140.309, 30 140.478, 30 142.123 C 30 143.795, 30.833 144, 37.625 144 L 45.250 144 44.679 141.146 C 44.365 139.576, 44.576 137.824, 45.147 137.253 C 45.866 136.534, 45.658 135.408, 44.475 133.602 C 43.092 131.491, 43.002 130.703, 44.007 129.492 C 45.997 127.094, 45.834 116.834, 43.773 114.773 C 42.823 113.823, 42.303 112.373, 42.618 111.552 C 43.330 109.697, 39.927 105.191, 38.240 105.753" stroke="none" fill="black" fill-rule="evenodd"/>
</svg>