<svg xmlns="http://www.w3.org/2000/svg" width="192" height="144" viewBox="0 0 192 144" version="1.1">
	<path d="M 0 72 L 0 144 35.981 144 L 71.962 144 72.534 141.250 C 72.849 139.738, 74.922 133.100, 77.140 126.500 C 79.358 119.900, 81.542 111.125, 81.993 107 C 82.709 100.459, 82.553 98.944, 80.771 95.154 L 78.728 90.808 76.400 93.654 C 75.120 95.219, 74.049 97.400, 74.021 98.500 C 73.981 100.032, 73.765 100.177, 73.096 99.122 C 72.616 98.364, 71.763 98.029, 71.199 98.377 C 70.636 98.725, 66.798 97.658, 62.671 96.005 C 58.544 94.352, 54.297 93, 53.233 93 C 52.169 93, 50.311 91.710, 49.102 90.134 C 47.365 87.867, 45.849 87.142, 41.855 86.669 C 36.316 86.013, 29.401 83.079, 29.672 81.500 C 29.766 80.950, 31.777 80.365, 34.139 80.199 C 38.845 79.870, 40.063 79.275, 38.284 78.175 C 34.870 76.065, 33.293 60.593, 36.158 57.317 C 37.032 56.318, 38.289 53.813, 38.951 51.750 C 39.613 49.687, 40.540 48, 41.010 48 C 41.480 48, 42.177 47.018, 42.558 45.817 L 43.251 43.635 44.375 46.067 C 44.994 47.405, 46.175 48.500, 47 48.500 C 48.192 48.500, 48.432 49.630, 48.168 54 L 47.836 59.500 50.018 57.184 C 51.219 55.910, 52.392 55.059, 52.626 55.292 C 53.545 56.212, 53.242 62.805, 52.041 68.013 C 50.029 76.731, 49.328 78, 46.521 78 C 45.135 78, 44 78.401, 44 78.892 C 44 80.155, 48.925 81.426, 52.647 81.123 C 54.709 80.955, 57.775 81.985, 61.534 84.106 C 67.041 87.214, 67.329 87.270, 68.637 85.482 C 69.387 84.457, 70 82.199, 70 80.465 C 70 78.732, 70.900 74.697, 72 71.500 C 73.100 68.303, 74 65.497, 74 65.264 C 74 65.031, 72.650 65.138, 71 65.500 C 68.173 66.121, 68 65.981, 68 63.079 C 68 61.335, 68.542 59.957, 69.250 59.901 C 69.938 59.847, 71.604 59.735, 72.954 59.651 C 75.272 59.508, 75.529 58.858, 77.614 47.846 C 78.828 41.436, 80.762 34.067, 81.911 31.469 C 84.739 25.075, 84.602 24.500, 80.251 24.500 C 76.525 24.500, 76.501 24.473, 76.597 20.500 C 76.651 18.300, 77.437 14.762, 78.343 12.638 C 79.939 8.898, 80.111 8.798, 83.746 9.472 C 85.811 9.855, 90.119 11.560, 93.320 13.261 C 100.150 16.890, 102.771 17.234, 109.432 15.376 C 114.854 13.863, 121 13.552, 121 14.790 C 121 16.686, 117.816 27.581, 117.033 28.366 C 116.557 28.842, 116.415 31.618, 116.716 34.535 C 117.166 38.896, 116.866 40.481, 115.026 43.458 C 112.915 46.874, 112.858 47.447, 114.022 53.616 C 115.163 59.665, 115.424 60.110, 117.514 59.586 C 119.228 59.156, 119.903 59.521, 120.317 61.106 C 121.060 63.944, 120.139 65.990, 118.417 65.330 C 116.556 64.616, 116.623 65.570, 118.967 73.157 C 120.049 76.659, 121.511 82.444, 122.217 86.012 C 123.304 91.510, 123.843 92.549, 125.750 92.820 C 127.306 93.041, 128 93.819, 128 95.342 C 128 96.834, 129.130 98.153, 131.500 99.430 C 133.425 100.467, 135 101.858, 135 102.521 C 135 103.187, 137.698 104.299, 141.029 105.006 C 147.059 106.286, 149.939 108, 146.059 108 C 143.425 108, 143.468 108.436, 146.500 112.411 C 147.875 114.214, 149 116.101, 149 116.604 C 149 117.906, 145.969 119.628, 142.234 120.449 C 139.510 121.047, 138.667 120.731, 136.563 118.326 C 135.203 116.772, 133.566 114.263, 132.924 112.750 C 132.266 111.199, 130.972 110, 129.955 110 C 128.964 110, 126.881 108.953, 125.327 107.674 C 117.077 100.887, 109.195 96.915, 112.946 101.435 C 113.675 102.313, 113.921 104.083, 113.550 105.774 C 113.094 107.850, 114.142 111.756, 117.384 120.065 C 119.838 126.354, 122.668 134.317, 123.673 137.761 L 125.500 144.021 159 143.761 L 192.500 143.500 192.757 71.750 L 193.013 0 96.507 0 L 0 0 0 72 M 0.474 72.500 C 0.474 112.100, 0.598 128.154, 0.750 108.176 C 0.901 88.198, 0.901 55.798, 0.750 36.176 C 0.598 16.554, 0.474 32.900, 0.474 72.500 M 108.802 52.568 C 108.477 55.351, 108.816 56.366, 110.341 57.182 C 112.141 58.146, 112.244 57.972, 111.648 54.989 C 111.292 53.208, 111 51.131, 111 50.375 C 111 47.406, 109.195 49.207, 108.802 52.568 M 32 58.500 C 32 59.325, 32.450 60, 33 60 C 33.550 60, 34 59.325, 34 58.500 C 34 57.675, 33.550 57, 33 57 C 32.450 57, 32 57.675, 32 58.500 M 118.569 86.849 C 118.087 88.942, 118.204 90.604, 118.882 91.282 C 120.619 93.019, 121.096 91.598, 120.186 87.401 L 119.340 83.500 118.569 86.849" stroke="none" fill="black" fill-rule="evenodd"/>
</svg>