<svg xmlns="http://www.w3.org/2000/svg" width="192" height="144" viewBox="0 0 192 144" version="1.1">
	<path d="M 0 49.561 L 0 99.121 6.750 98.545 C 57.298 94.235, 91.073 90.691, 93.008 89.495 C 93.421 89.240, 93.981 88.180, 94.253 87.140 C 94.674 85.529, 93.988 85.138, 89.624 84.503 C 86.806 84.094, 78.785 83.700, 71.800 83.629 C 57.401 83.483, 54.581 82.425, 58.990 78.824 C 60.360 77.705, 63.735 75.664, 66.490 74.288 C 71.643 71.714, 77 67.337, 77 65.702 C 77 65.193, 75.488 65.061, 73.639 65.408 C 71.791 65.755, 69.269 65.665, 68.035 65.209 C 65.854 64.402, 65.894 64.298, 69.503 61.439 C 78.535 54.286, 80.507 51.536, 86.724 37.423 L 92.858 23.500 88.272 19.437 C 83.919 15.579, 83.715 15.164, 84.242 11.234 C 84.547 8.957, 85.743 5.766, 86.899 4.142 C 88.054 2.519, 89 0.923, 89 0.596 C 89 0.268, 76.850 0, 62 0 L 35 0 35 7.357 C 35 12.540, 35.887 17.808, 38.001 25.183 L 41.002 35.651 38.501 41.806 C 34.285 52.180, 35.733 62.233, 41.952 65.773 C 43.621 66.723, 44.990 67.838, 44.994 68.250 C 45.007 69.889, 40.202 68.862, 37.080 66.559 C 30.471 61.683, 28.838 57.291, 28.927 44.632 C 28.976 37.679, 28.538 34.765, 26.896 31.132 C 22.834 22.143, 21.020 15.681, 20.370 7.883 L 19.712 0 9.856 0 L 0 0 0 49.561 M 124 2 C 121.525 3.039, 118.543 3.913, 117.372 3.944 C 116.202 3.975, 114.627 4.744, 113.872 5.653 C 112.021 7.884, 111.847 15.974, 113.591 18.715 C 114.366 19.933, 115 21.528, 115 22.260 C 115 22.992, 117.020 26.946, 119.488 31.046 C 121.956 35.146, 123.764 39.079, 123.505 39.786 C 123.247 40.494, 123.927 44.899, 125.017 49.575 C 126.108 54.251, 127 59.324, 127 60.848 C 127 64.205, 124.651 67.862, 123.594 66.151 C 120.934 61.848, 120.495 68.454, 122.630 80.635 L 123.180 83.771 139.840 79.469 C 157.602 74.883, 168.745 71.681, 181.281 67.559 C 185.560 66.151, 189.723 65, 190.531 65 C 191.793 65, 192 60.418, 192 32.500 L 192 0 160.250 0.056 C 131.458 0.107, 128.081 0.288, 124 2 M 91.224 10.176 C 90.365 11.035, 90.344 11.710, 91.146 12.676 C 92.846 14.725, 94 14.249, 94 11.500 C 94 8.781, 93.065 8.335, 91.224 10.176 M 186.750 137.453 C 184.137 140.391, 182 143.067, 182 143.398 C 182 143.729, 184.250 144, 187 144 L 192 144 192 138 C 192 134.700, 191.887 132.025, 191.750 132.055 C 191.613 132.086, 189.363 134.515, 186.750 137.453" stroke="none" fill="black" fill-rule="evenodd"/>
</svg>