<svg xmlns="http://www.w3.org/2000/svg" width="192" height="144" viewBox="0 0 192 144" version="1.1">
	<path d="M 101.199 9.426 C 97.818 13.276, 97.380 14.974, 98.991 17.982 C 99.780 19.457, 99.275 20.678, 96.510 23.988 C 90.224 31.512, 89.347 41.833, 94.427 48.494 C 95.898 50.422, 97.866 52.007, 98.801 52.015 C 99.735 52.024, 101.146 52.439, 101.936 52.939 C 103.115 53.685, 103.142 54.125, 102.084 55.399 C 100.996 56.710, 101.166 57.119, 103.182 58.037 C 104.494 58.635, 106.434 60.414, 107.494 61.991 C 108.554 63.568, 109.729 64.667, 110.106 64.435 C 110.482 64.202, 111.039 64.659, 111.343 65.451 C 111.764 66.548, 112.618 66.683, 114.934 66.019 C 116.606 65.540, 118.185 65.491, 118.445 65.911 C 119.025 66.850, 112.167 73.481, 109.735 74.331 C 108.764 74.671, 107.562 76.022, 107.063 77.334 C 106.253 79.464, 105.205 79.840, 97.238 80.862 C 89.513 81.853, 87.889 81.791, 85.107 80.403 C 82.444 79.075, 81.390 79.010, 78.947 80.022 C 77.326 80.693, 76 81.622, 76 82.086 C 76 82.550, 75.126 83.398, 74.057 83.969 C 72.327 84.895, 71.640 84.163, 67.775 77.268 C 62.824 68.433, 59.570 66.269, 56.041 69.463 C 54.026 71.287, 54.031 71.309, 58.037 78.567 C 60.246 82.568, 61.964 86.215, 61.855 86.671 C 61.558 87.918, 63.035 97.086, 64.083 100.500 C 64.822 102.905, 66.428 104.195, 72.178 107 C 76.799 109.254, 81.514 112.648, 85.426 116.535 C 88.767 119.855, 93.300 123.989, 95.500 125.722 C 99 128.480, 99.343 129.101, 98.244 130.687 C 95.975 133.961, 95.769 134.974, 96.450 139.512 L 97.123 144 122.561 144 C 142.538 144, 148 143.726, 148 142.723 C 148 141.232, 145.297 137.155, 142.879 135 C 141.024 133.346, 139 121.570, 139 112.428 C 139 108.470, 138.581 106.777, 137.500 106.362 C 134.363 105.158, 136.183 104.063, 140.368 104.637 C 143.125 105.015, 144.991 104.823, 145.427 104.118 C 145.807 103.503, 146.991 103, 148.059 103 C 149.127 103, 150 102.550, 150 102 C 150 101.450, 151.076 101, 152.392 101 C 154.157 101, 154.975 100.279, 155.515 98.250 C 156.010 96.390, 156.417 95.985, 156.773 97 C 157.063 97.825, 157.685 98.753, 158.155 99.062 C 158.627 99.373, 158.618 101.722, 158.134 104.312 C 157.237 109.115, 158.035 110.361, 160.014 107.250 C 160.873 105.900, 160.995 106.829, 160.547 111.319 C 160.165 115.147, 160.314 116.924, 160.983 116.510 C 161.610 116.123, 162 117.484, 162 120.063 C 162 123.848, 162.158 124.115, 163.666 122.872 C 165.183 121.623, 165.278 121.837, 164.729 125.250 C 164.163 128.767, 165.114 130.243, 166.500 128 C 167.576 126.259, 169.160 126.921, 168.546 128.855 C 167.765 131.316, 169.217 135.114, 170.592 134.209 C 171.186 133.819, 172.181 132.600, 172.805 131.500 C 174.236 128.977, 174.316 130.962, 173.007 136.500 C 171.333 143.582, 171.866 144, 182.567 144 L 192 144 192 110.586 L 192 77.172 185.510 73.543 C 178.197 69.453, 168.735 61.111, 164.535 55.051 C 162.991 52.823, 161.452 51.012, 161.114 51.027 C 160.776 51.042, 159.375 52.922, 158 55.205 C 152.373 64.547, 140.492 76.040, 138.031 74.519 C 137.464 74.169, 137 71.628, 137 68.874 C 137 64.222, 137.151 63.913, 139.125 64.540 C 141.683 65.352, 142.950 63.711, 143.016 59.500 C 143.060 56.739, 143.173 56.645, 144.438 58.313 C 145.710 59.990, 145.869 59.877, 146.546 56.813 C 147.696 51.617, 147.312 48.532, 144.935 43.872 C 143.723 41.496, 141.947 36.810, 140.988 33.459 C 140.030 30.108, 138.628 26.350, 137.873 25.107 C 135.503 21.206, 125.103 14.040, 120.816 13.355 C 117.945 12.895, 116.605 12.092, 115.984 10.457 C 114.880 7.555, 114.097 7.112, 108.782 6.384 C 104.672 5.820, 104.198 6.010, 101.199 9.426 M 133 68 C 133 68.550, 133.450 69, 134 69 C 134.550 69, 135 68.550, 135 68 C 135 67.450, 134.550 67, 134 67 C 133.450 67, 133 67.450, 133 68 M 95.163 83.286 C 90.084 84.261, 89.857 84.436, 90.474 86.905 C 90.830 88.332, 91.359 90.661, 91.649 92.080 C 92.337 95.443, 98.840 103.720, 99.342 101.871 C 99.547 101.117, 100.438 98.025, 101.322 95 C 102.205 91.975, 103.079 87.813, 103.263 85.750 C 103.638 81.553, 103.855 81.619, 95.163 83.286 M 77 91.826 C 77 92.280, 78.196 93.742, 79.658 95.076 L 82.317 97.500 79.970 94.250 C 77.530 90.869, 77 90.437, 77 91.826 M 134.719 113.332 C 133.610 116.157, 133.946 121.184, 135.464 124.500 L 136.838 127.500 136.861 123.500 C 136.874 121.300, 136.559 117.700, 136.161 115.500 C 135.611 112.459, 135.265 111.939, 134.719 113.332 M 189.158 137 C 189.158 138.375, 189.385 138.938, 189.662 138.250 C 189.940 137.563, 189.940 136.438, 189.662 135.750 C 189.385 135.063, 189.158 135.625, 189.158 137" stroke="none" fill="black" fill-rule="evenodd"/>
</svg>