<svg xmlns="http://www.w3.org/2000/svg" width="192" height="144" viewBox="0 0 192 144" version="1.1">
	<path d="M 0 72 L 0 144 13.750 143.997 L 27.500 143.993 30.403 136.915 C 33.061 130.435, 37.902 122.346, 42.920 116 L 44.897 113.500 42.281 106 C 39.049 96.732, 38.949 88.626, 41.887 73.930 C 43.034 68.194, 44.409 59.560, 44.942 54.744 C 46.123 44.079, 48.380 38.829, 54.192 33.225 C 57.922 29.630, 59.466 28.851, 63.902 28.325 C 69.883 27.617, 71.005 26.182, 68.530 22.406 C 66.536 19.362, 67.038 18.415, 69.849 19.919 C 72.847 21.524, 78.224 21.169, 80.507 19.217 C 81.611 18.273, 83.355 15.612, 84.384 13.305 C 86.386 8.814, 91.821 2.656, 90.369 6.524 C 89.961 7.611, 88.813 9.850, 87.817 11.500 C 85.443 15.435, 85.530 16.251, 88.250 15.577 C 89.487 15.270, 89.963 15.268, 89.306 15.574 C 88.650 15.879, 88.360 16.775, 88.663 17.565 C 88.966 18.354, 88.727 19, 88.133 19 C 87.538 19, 86.353 20.350, 85.500 22 C 84.103 24.701, 84.102 25.296, 85.485 27.970 C 86.329 29.604, 87.955 31.441, 89.096 32.051 C 91.885 33.544, 90.665 34.507, 86.444 34.144 C 81.842 33.747, 81.212 35.750, 84.443 40.510 C 88.161 45.989, 88.074 53.514, 84.254 56.796 C 82.387 58.400, 80.628 59.026, 78.754 58.751 C 76.480 58.417, 76 58.720, 76 60.488 C 76 61.951, 74.891 63.158, 72.500 64.299 C 69.902 65.537, 69 66.601, 69 68.425 C 69 69.776, 69.456 71.164, 70.014 71.509 C 72.195 72.857, 75.142 80.430, 75.549 85.733 C 75.784 88.801, 76.199 91.532, 76.470 91.803 C 76.741 92.075, 80.117 90.767, 83.971 88.898 C 90.825 85.575, 90.980 85.416, 90.990 81.684 C 91.005 76.060, 92.460 74, 96.419 74 C 100.101 74, 100.939 75.459, 101.011 82 C 101.048 85.301, 101.429 85.691, 107.705 88.864 C 114.093 92.094, 114.414 92.154, 115.724 90.364 C 116.475 89.339, 116.857 87.573, 116.573 86.439 C 115.849 83.550, 117.582 77.896, 120.514 73.574 C 123.961 68.495, 123.723 66.312, 119.500 64.299 C 117.005 63.109, 116 61.972, 116 60.340 C 116 58.358, 115.618 58.126, 113.164 58.617 C 111.285 58.993, 109.790 58.647, 108.735 57.592 C 107.859 56.717, 106.661 56, 106.071 56 C 104.490 56, 104.747 45.387, 106.405 42.200 C 107.178 40.715, 108.978 38.409, 110.405 37.076 C 111.832 35.742, 113 34.257, 113 33.775 C 113 33.293, 111.318 31.357, 109.263 29.474 C 106.470 26.916, 105.505 25.222, 105.444 22.775 C 105.399 20.974, 104.979 18.639, 104.511 17.586 C 103.873 16.150, 103.979 15.869, 104.937 16.461 C 105.899 17.056, 106.039 16.664, 105.503 14.875 C 104.878 12.787, 105.204 12.922, 108.207 16 C 110.085 17.925, 113.127 21.854, 114.966 24.730 C 117.972 29.430, 118.574 29.886, 120.905 29.230 C 122.332 28.829, 125.666 28.547, 128.314 28.604 C 132.580 28.696, 133.645 29.208, 137.684 33.104 C 143.816 39.018, 145.949 44.167, 147.089 55.801 C 147.612 61.135, 148.759 70.211, 149.639 75.970 C 151.411 87.569, 151.071 97.029, 148.717 101.580 C 145.799 107.223, 145.642 111.173, 148.185 114.943 C 150.185 117.909, 151.588 118.665, 158.500 120.500 C 162.900 121.668, 167.625 123.234, 169 123.979 C 173.225 126.271, 179.406 133.327, 182.016 138.841 C 184.456 143.992, 184.572 144.080, 188.500 143.793 L 192.500 143.500 192.757 71.750 L 193.013 0 96.507 0 L 0 0 0 72 M 0.474 72.500 C 0.474 112.100, 0.598 128.154, 0.750 108.176 C 0.901 88.198, 0.901 55.798, 0.750 36.176 C 0.598 16.554, 0.474 32.900, 0.474 72.500 M 80.704 99.416 C 71.997 105.059, 72.111 106.570, 80.943 102.606 C 84.137 101.173, 87.208 100, 87.768 100 C 89.149 100, 89.859 97.849, 89.112 95.931 C 88.613 94.652, 87.064 95.293, 80.704 99.416 M 102.375 95.465 C 101.483 97.789, 102.848 99.016, 109.797 102.133 C 119.613 106.537, 120.203 105.176, 111.042 99.263 C 104.850 95.267, 102.796 94.367, 102.375 95.465 M 94.515 102.931 C 93.776 106.295, 92.941 107.111, 86.895 110.380 C 72.024 118.419, 72.567 117.845, 76.187 121.699 L 78.373 124.026 75.245 122.935 C 73.524 122.336, 71.585 121.205, 70.936 120.422 C 69.194 118.324, 66.605 118.573, 67.526 120.750 C 67.934 121.713, 68.192 123.842, 68.100 125.483 C 68.008 127.123, 68.688 131.960, 69.611 136.233 L 71.289 144 97.645 144 L 124 144 124 136.083 C 124 130.661, 123.606 128.022, 122.750 127.708 C 121.750 127.342, 121.750 126.985, 122.750 125.925 C 124.548 124.020, 124.367 120.922, 122.500 121.638 C 121.675 121.955, 121 121.716, 121 121.107 C 121 120.498, 121.402 120, 121.893 120 C 122.384 120, 123.033 119.357, 123.334 118.571 C 123.801 117.354, 123.114 117.370, 118.691 118.677 C 115.836 119.520, 113.050 120.427, 112.500 120.692 C 111.950 120.957, 112.537 120.327, 113.805 119.291 C 116.010 117.490, 116.031 117.343, 114.305 115.872 C 113.312 115.027, 110.025 113.085, 107 111.556 C 99.948 107.992, 98.259 106.456, 97.477 102.896 C 96.660 99.178, 95.336 99.193, 94.515 102.931" stroke="none" fill="black" fill-rule="evenodd"/>
</svg>