<svg xmlns="http://www.w3.org/2000/svg" width="192" height="144" viewBox="0 0 192 144" version="1.1">
	<path d="M 57 50 C 57 50.550, 59.299 52.238, 62.109 53.750 C 79.193 62.946, 92.631 74.141, 97.995 83.646 C 99.681 86.632, 102.893 90.351, 105.258 92.056 C 107.591 93.737, 114.900 100.393, 121.500 106.847 C 128.100 113.302, 135.525 119.985, 138 121.699 C 140.475 123.414, 146.896 129.133, 152.269 134.408 L 162.037 144 177.019 144 L 192 144 192 130.711 L 192 117.422 183.250 114.696 C 178.438 113.196, 172.025 111.481, 169 110.885 C 165.975 110.288, 159.745 107.773, 155.156 105.296 C 148.565 101.739, 146.518 100.091, 145.417 97.456 C 143.485 92.831, 138.162 89.063, 132.239 88.127 C 128.636 87.557, 126.222 86.378, 123.392 83.806 C 121.251 81.860, 116.233 77.353, 112.240 73.791 C 108.248 70.228, 103.618 65.256, 101.952 62.741 C 98.978 58.251, 95.206 56.009, 90.601 55.993 C 89.445 55.989, 81.975 54.417, 74 52.500 C 58.157 48.692, 57 48.521, 57 50" stroke="none" fill="black" fill-rule="evenodd"/>
</svg>