<svg xmlns="http://www.w3.org/2000/svg" width="192" height="144" viewBox="0 0 192 144" version="1.1">
	<path d="M 136.886 1.154 C 139.191 1.817, 140.612 1.788, 141.336 1.064 C 142.088 0.312, 141.095 0.026, 137.950 0.090 L 133.500 0.180 136.886 1.154 M 190.436 2.201 C 187.727 10.736, 187.014 34.078, 189.276 40.176 C 190.158 42.554, 191.070 45.625, 191.304 47 C 191.537 48.375, 191.789 38.363, 191.864 24.750 C 191.939 11.137, 191.805 0, 191.567 0 C 191.329 0, 190.820 0.991, 190.436 2.201 M 26 20.441 C 26 25.278, 26.945 26.470, 30.009 25.497 C 31.603 24.991, 32 23.980, 32 20.433 C 32 16.174, 31.882 16, 29 16 C 26.117 16, 26 16.173, 26 20.441 M 0.032 139.750 L 0 144 6.979 144 L 13.957 144 12.818 141.500 C 11.850 139.375, 11.007 139, 7.200 139 C 4.107 139, 2.309 138.458, 1.392 137.250 C 0.220 135.707, 0.060 136.002, 0.032 139.750" stroke="none" fill="black" fill-rule="evenodd"/>
</svg>