<svg xmlns="http://www.w3.org/2000/svg" width="192" height="144" viewBox="0 0 192 144" version="1.1">
	<path d="M 0 72.038 L 0 144.075 9.248 143.788 L 18.496 143.500 19.229 137.612 C 20.037 131.124, 18.230 125.384, 15.196 124.799 C 13.923 124.554, 14.379 123.586, 17.283 120.372 C 19.327 118.109, 21 115.257, 21 114.033 C 21 112.810, 21.726 110.579, 22.614 109.076 C 24.068 106.614, 24.078 106.051, 22.712 103.410 C 21.321 100.720, 21.349 100.288, 23.048 98.190 C 24.066 96.932, 24.669 95.302, 24.388 94.568 C 24.106 93.835, 25.052 90.440, 26.490 87.025 C 28.962 81.151, 32.661 76.683, 36 75.538 C 37.174 75.136, 37.500 73.192, 37.500 66.593 C 37.500 59.046, 37.754 57.890, 39.924 55.581 C 41.258 54.161, 42.804 53, 43.360 53 C 43.916 53, 46.506 51.200, 49.115 49 C 52.191 46.406, 54.851 44.998, 56.679 44.995 C 58.231 44.993, 62.200 43.885, 65.500 42.533 C 71.206 40.195, 71.484 39.921, 71.172 36.933 C 70.824 33.597, 72.661 28, 74.104 28 C 74.578 28, 76.077 25.808, 77.435 23.128 L 79.904 18.256 88.702 17.766 C 98.456 17.224, 103.699 18.396, 105.402 21.500 C 106.925 24.274, 108.208 25.096, 110.250 24.607 C 112.003 24.186, 112.503 25.444, 112.147 29.383 C 112.053 30.419, 112.383 31.769, 112.880 32.383 C 113.377 32.997, 113.991 35.348, 114.244 37.606 C 114.787 42.445, 115.593 44, 117.559 44 C 119.081 44, 119.466 45.201, 118.313 46.354 C 117.935 46.732, 117.543 47.819, 117.442 48.770 C 117.341 49.722, 116.909 51.400, 116.482 52.500 C 115.843 54.145, 115.945 54.278, 117.053 53.250 C 118.876 51.558, 121.889 51.511, 120.200 53.200 C 118.167 55.233, 118.866 56.002, 121.750 54.906 C 123.826 54.117, 123.091 55.128, 118.750 59.033 C 115.122 62.297, 113.004 64.998, 113.010 66.353 C 113.017 68.075, 114.325 67.139, 119.620 61.620 C 123.750 57.316, 126.483 55.164, 126.921 55.872 C 127.877 57.419, 131.757 53.073, 136.455 45.191 C 138.524 41.722, 140.444 39.110, 140.722 39.389 C 141 39.667, 140.277 41.434, 139.114 43.315 C 136.193 48.041, 136.444 48.525, 140.557 46.099 C 145.320 43.289, 146.141 43.451, 142.594 46.501 C 140.996 47.876, 139.291 49, 138.804 49 C 137.309 49, 132.059 53.262, 130.360 55.855 C 128.869 58.129, 128.874 58.262, 130.427 57.666 C 131.416 57.287, 131.853 57.429, 131.493 58.011 C 131.157 58.555, 130.207 59, 129.382 59 C 128.557 59, 128.131 59.403, 128.435 59.895 C 128.740 60.388, 128.266 61.068, 127.383 61.407 C 126.201 61.860, 125.941 61.595, 126.400 60.400 C 126.857 59.209, 126.599 58.940, 125.430 59.389 C 124.553 59.725, 123.648 60, 123.418 60 C 123.188 60, 123 60.605, 123 61.345 C 123 62.085, 122.054 63.546, 120.898 64.593 C 117.663 67.520, 116.019 71.283, 117.118 73.246 C 118.754 76.171, 122.544 73.443, 124.920 67.630 L 127.016 62.500 126.707 66.267 C 126.537 68.339, 126.646 69.909, 126.949 69.757 C 127.252 69.605, 130.351 68.398, 133.835 67.075 C 140.880 64.400, 143.200 61.806, 143.200 56.600 C 143.200 53.650, 143.499 53.211, 145.276 53.553 C 146.418 53.773, 147.948 53.458, 148.676 52.854 C 149.589 52.096, 150 52.085, 150 52.819 C 150 53.403, 149.519 54.179, 148.932 54.542 C 148.344 54.905, 148.100 55.817, 148.388 56.569 C 148.677 57.321, 148.475 58.206, 147.940 58.537 C 147.405 58.868, 147.226 59.557, 147.543 60.069 C 147.859 60.581, 147.601 61, 146.968 61 C 146.335 61, 143.978 62.575, 141.729 64.500 C 139.480 66.425, 136.925 68, 136.052 68 C 135.179 68, 132.809 69.125, 130.785 70.500 C 128.762 71.875, 126.740 73, 126.293 73 C 124.437 73, 120 78.256, 120 80.453 C 120 82.519, 120.421 82.791, 123.250 82.555 C 128.626 82.108, 128.800 82.057, 130.401 80.456 C 131.250 79.607, 134.320 78.662, 137.222 78.355 C 140.125 78.049, 143.719 76.944, 145.210 75.899 C 146.700 74.855, 148.355 74, 148.888 74 C 149.421 74, 150.614 73.243, 151.539 72.318 C 153.116 70.741, 153.108 70.552, 151.420 69.318 C 149.727 68.080, 149.751 68, 151.809 68 C 153.028 68, 153.889 68.554, 153.750 69.250 C 153.587 70.063, 154.550 70.426, 156.500 70.290 C 158.150 70.174, 158.825 70.348, 158 70.677 C 157.175 71.005, 155.695 72.112, 154.711 73.137 C 153.727 74.162, 151.901 75, 150.652 75 C 149.404 75, 147.509 75.694, 146.441 76.541 C 144.623 77.985, 144.761 78.058, 148.606 77.689 C 150.865 77.473, 153.227 76.977, 153.856 76.589 C 154.485 76.200, 155 76.323, 155 76.862 C 155 77.400, 153.650 78.138, 152 78.500 C 150.350 78.862, 149 79.764, 149 80.503 C 149 81.242, 147.952 83.119, 146.670 84.673 C 145.389 86.228, 144.049 88.298, 143.693 89.273 C 143.147 90.767, 143.348 90.884, 144.967 90.018 C 146.024 89.452, 147.158 88.554, 147.487 88.022 C 147.815 87.490, 149.834 86.583, 151.973 86.007 C 154.206 85.406, 156.054 84.224, 156.314 83.230 C 156.740 81.607, 156.775 81.608, 156.884 83.250 C 156.948 84.213, 157.338 84.993, 157.750 84.985 C 159.794 84.943, 161.057 82.989, 161.362 79.400 C 161.547 77.218, 162.184 74.524, 162.779 73.413 C 163.453 72.153, 163.516 70.848, 162.946 69.946 C 162.442 69.151, 162.031 67.825, 162.031 67 C 162.031 65.667, 162.138 65.667, 163 67 C 163.835 68.293, 163.971 68.266, 163.985 66.809 C 163.993 65.879, 164.457 64.835, 165.016 64.490 C 166.162 63.782, 165.851 74.482, 164.693 75.641 C 163.432 76.902, 163.921 80.968, 165.272 80.449 C 167.699 79.518, 169.129 76.110, 167.988 73.977 C 167.266 72.629, 167.259 72, 167.965 72 C 168.534 72, 169 72.648, 169 73.441 C 169 76.329, 171.127 76.076, 174.182 72.826 C 176.043 70.847, 177.476 69.985, 177.721 70.698 C 178.289 72.354, 183 70.185, 183 68.268 C 183 67.154, 183.350 67.207, 184.662 68.519 C 186.032 69.889, 186.084 70.330, 184.960 71.025 C 184.209 71.489, 183.228 71.641, 182.779 71.363 C 182.330 71.086, 181.314 72.353, 180.521 74.179 C 179.727 76.006, 179.061 76.912, 179.039 76.194 C 179.017 75.438, 177.345 76.276, 175.075 78.182 C 172.116 80.667, 171.413 81.793, 172.218 82.763 C 173.563 84.383, 173.516 84.416, 167.500 85.991 C 158.837 88.258, 148.035 94.077, 143.008 99.184 C 140.409 101.824, 136.532 104.709, 134.392 105.596 C 128.285 108.127, 127.448 109.128, 130.182 110.634 C 132.395 111.853, 132.349 111.893, 129.167 111.518 C 125.690 111.108, 125.742 110.955, 127.703 115.750 C 128.486 117.665, 126.231 117.235, 125.125 115.258 C 124.589 114.300, 123.779 113.887, 123.325 114.341 C 122.506 115.158, 122.480 118.390, 123.151 135.263 L 123.500 144.025 158 143.763 L 192.500 143.500 192.757 71.750 L 193.013 0 96.507 0 L 0 0 0 72.038 M 0.474 72.500 C 0.474 112.100, 0.598 128.154, 0.750 108.176 C 0.901 88.198, 0.901 55.798, 0.750 36.176 C 0.598 16.554, 0.474 32.900, 0.474 72.500 M 45 19 C 45 19.550, 45.450 20, 46 20 C 46.550 20, 47 19.550, 47 19 C 47 18.450, 46.550 18, 46 18 C 45.450 18, 45 18.450, 45 19 M 156 27 C 156 27.550, 156.450 28, 157 28 C 157.550 28, 158 27.550, 158 27 C 158 26.450, 157.550 26, 157 26 C 156.450 26, 156 26.450, 156 27 M 170 27 C 170 27.550, 170.450 28, 171 28 C 171.550 28, 172 27.550, 172 27 C 172 26.450, 171.550 26, 171 26 C 170.450 26, 170 26.450, 170 27 M 56 35 C 56 35.550, 56.450 36, 57 36 C 57.550 36, 58 35.550, 58 35 C 58 34.450, 57.550 34, 57 34 C 56.450 34, 56 34.450, 56 35 M 121.211 40.601 C 120.501 41.370, 120.362 42, 120.902 42 C 121.940 42, 123.443 40.098, 122.850 39.534 C 122.658 39.351, 121.920 39.831, 121.211 40.601 M 148.500 46 C 148.160 46.550, 148.332 47, 148.882 47 C 149.432 47, 150.160 46.550, 150.500 46 C 150.840 45.450, 150.668 45, 150.118 45 C 149.568 45, 148.840 45.450, 148.500 46 M 150.430 54.321 C 149.620 56.434, 150.127 57.157, 151.726 56.169 C 152.469 55.710, 152.569 54.921, 152.001 54.002 C 151.250 52.787, 150.999 52.838, 150.430 54.321 M 142 67 C 139.631 67.759, 139.671 67.806, 142.750 67.900 C 144.537 67.955, 146 67.550, 146 67 C 146 65.870, 145.529 65.870, 142 67 M 178.500 68 C 178.160 68.550, 178.332 69, 178.882 69 C 179.432 69, 180.160 68.550, 180.500 68 C 180.840 67.450, 180.668 67, 180.118 67 C 179.568 67, 178.840 67.450, 178.500 68 M 159 73.882 C 159 74.432, 159.450 75.160, 160 75.500 C 160.550 75.840, 161 75.668, 161 75.118 C 161 74.568, 160.550 73.840, 160 73.500 C 159.450 73.160, 159 73.332, 159 73.882 M 140.890 80.374 C 139.127 81.294, 137.730 81.429, 136.586 80.788 C 135.404 80.126, 134.154 80.324, 132.446 81.443 C 131.101 82.325, 130 83.228, 130 83.450 C 130 84, 135.822 83.228, 136.954 82.528 C 137.453 82.220, 138.144 82.425, 138.490 82.984 C 138.835 83.543, 138.529 84.033, 137.809 84.074 C 137.089 84.115, 135.375 84.371, 134 84.643 C 132.625 84.915, 129.979 85.219, 128.120 85.319 C 123.296 85.577, 121.722 88.293, 123.479 93.324 C 125.202 98.256, 125.121 98.202, 128.892 96.888 C 131.765 95.886, 132.040 95.460, 131.474 92.883 C 131.082 91.095, 131.251 90, 131.921 90 C 132.514 90, 133 90.900, 133 92 C 133 97.123, 142.264 90.796, 147.442 82.138 C 147.941 81.304, 147.722 80.438, 146.878 79.904 C 144.989 78.707, 143.926 78.790, 140.890 80.374 M 175.089 80.472 L 171.677 81.705 174.339 82.214 C 175.802 82.494, 177 82.335, 177 81.861 C 177 81.388, 177.648 81, 178.441 81 C 179.234 81, 180.160 80.550, 180.500 80 C 181.281 78.736, 179.448 78.896, 175.089 80.472 M 140 83.393 C 140 83.609, 140.698 84.054, 141.552 84.382 C 142.442 84.723, 142.843 84.555, 142.493 83.989 C 141.906 83.038, 140 82.583, 140 83.393 M 174 84 C 174 84.550, 175.238 84.968, 176.750 84.930 C 179.187 84.867, 179.272 84.762, 177.500 84 C 174.769 82.826, 174 82.826, 174 84 M 165.813 84.683 C 166.534 84.972, 167.397 84.936, 167.729 84.604 C 168.061 84.272, 167.471 84.036, 166.417 84.079 C 165.252 84.127, 165.015 84.364, 165.813 84.683 M 153 88.059 C 153 88.641, 153.450 88.840, 154 88.500 C 154.550 88.160, 155 87.684, 155 87.441 C 155 87.198, 154.550 87, 154 87 C 153.450 87, 153 87.477, 153 88.059 M 149.455 89.073 C 149.091 89.663, 145.531 91.631, 141.545 93.448 C 136.218 95.875, 134.130 97.379, 133.663 99.125 C 132.213 104.542, 133.319 104.327, 141.193 97.661 C 144.662 94.724, 148.512 91.783, 149.750 91.125 C 150.988 90.468, 152 89.495, 152 88.965 C 152 87.665, 150.280 87.738, 149.455 89.073 M 127.268 100.250 C 126.730 100.938, 125.798 102.963, 125.197 104.750 C 124.326 107.341, 124.375 108, 125.441 108 C 127.631 108, 130.868 104.696, 131.566 101.750 C 132.109 99.455, 131.889 99, 130.231 99 C 129.139 99, 127.805 99.563, 127.268 100.250 M 187.667 100.254 C 185.511 101.831, 186.359 108.183, 188.610 107.319 C 190.644 106.539, 190.389 110.913, 188.263 113.262 C 186.611 115.087, 186.619 115.248, 188.435 116.576 C 190.176 117.850, 190.235 118.388, 189.105 122.736 C 186.709 131.957, 186.689 132.669, 188.785 134.137 C 189.872 134.898, 190.988 136.416, 191.265 137.510 C 191.541 138.605, 191.820 130.387, 191.884 119.250 C 192.006 97.988, 191.833 97.208, 187.667 100.254 M 165.093 101.388 C 163.491 103.318, 165.692 108, 168.201 108 C 170.090 108, 176 104.190, 176 102.972 C 176 101.945, 171.143 100, 168.575 100 C 167.294 100, 165.726 100.625, 165.093 101.388 M 127 103 C 127 103.550, 127.423 104, 127.941 104 C 128.459 104, 129.160 103.550, 129.500 103 C 129.840 102.450, 129.416 102, 128.559 102 C 127.702 102, 127 102.450, 127 103 M 31.924 114.301 C 32.964 117.035, 32.240 121.727, 30.354 124.473 C 28.773 126.776, 28.533 137.641, 29.980 141.447 L 30.959 144.023 70.230 143.762 L 109.500 143.500 110.178 137.500 C 110.551 134.200, 111.563 129.827, 112.428 127.782 C 114.512 122.853, 114.507 116.408, 112.418 115.607 C 108.871 114.246, 104.093 115.051, 101.182 117.500 C 98.873 119.443, 97.088 120, 93.171 120 C 90.398 120, 86.886 120.473, 85.364 121.052 C 83.380 121.806, 81.193 121.766, 77.623 120.909 C 71.026 119.327, 64.962 119.204, 62.500 120.602 C 59.774 122.149, 52.808 121.752, 49.891 119.882 C 48.576 119.039, 45.250 117.744, 42.500 117.005 C 39.750 116.266, 36.427 114.837, 35.115 113.830 C 31.912 111.372, 30.869 111.525, 31.924 114.301 M 112 112.393 C 112 112.609, 112.675 113.045, 113.500 113.362 C 114.325 113.678, 115 113.501, 115 112.969 C 115 112.436, 114.325 112, 113.500 112 C 112.675 112, 112 112.177, 112 112.393" stroke="none" fill="black" fill-rule="evenodd"/>
</svg>