<svg xmlns="http://www.w3.org/2000/svg" width="192" height="144" viewBox="0 0 192 144" version="1.1">
	<path d="M 0 72 L 0 144 17 144 C 35.052 144, 35.661 143.817, 32.524 139.338 C 31.699 138.159, 29.387 136.928, 27.274 136.542 C 25.199 136.162, 22.451 135.176, 21.169 134.350 C 19.887 133.524, 18.214 133.088, 17.451 133.380 C 16.688 133.673, 15.768 133.434, 15.407 132.850 C 14.439 131.283, 17.145 123.707, 19.214 122.193 C 20.196 121.475, 21 120.437, 21 119.887 C 21 118.562, 26.980 113.141, 29.228 112.427 C 30.203 112.118, 31 111.345, 31 110.710 C 31 110.074, 33.725 106.805, 37.055 103.445 C 42.683 97.766, 43.029 97.157, 41.958 94.806 C 40.797 92.259, 41.519 90.055, 45.242 84.775 C 46.204 83.411, 46.175 82.367, 45.103 79.775 C 42.855 74.338, 42.658 70.451, 44.490 67.656 C 45.415 66.244, 45.882 64.618, 45.527 64.044 C 45.172 63.470, 45.535 63, 46.334 63 C 47.133 63, 48.066 62.271, 48.408 61.379 C 48.886 60.133, 48.564 59.881, 47.015 60.286 C 45.907 60.576, 45 60.363, 45 59.813 C 45 59.263, 45.895 58.579, 46.989 58.293 C 49.112 57.737, 53.638 51.304, 52.620 50.287 C 51.716 49.383, 48.332 52.764, 45.235 57.666 C 43.731 60.048, 42.166 61.997, 41.759 61.998 C 40.583 62.001, 34.939 68.228, 33.373 71.250 C 31.851 74.189, 30.381 75.055, 31.394 72.416 C 32.436 69.701, 29.664 71.412, 27.250 74.975 C 26.012 76.801, 24.986 77.892, 24.968 77.398 C 24.951 76.904, 24.316 77.319, 23.557 78.320 C 22.231 80.069, 22.139 80.070, 21.171 78.341 C 20.206 76.617, 20.077 76.620, 18.082 78.426 C 16.845 79.545, 16 79.823, 16 79.111 C 16 78.452, 15.212 78.045, 14.250 78.206 C 11.487 78.670, 11.988 69.772, 15.078 63.500 C 19.045 55.448, 20.819 53.324, 28.044 47.967 C 36.904 41.399, 40.398 37.330, 42.431 31.209 C 43.339 28.473, 44.964 25.438, 46.041 24.463 C 48.552 22.191, 48.536 20.373, 46 19.710 C 43.098 18.951, 43.547 17.353, 47 16.150 C 50.793 14.828, 50.801 13.466, 47.030 11.515 C 45.396 10.671, 43.548 9.023, 42.922 7.854 C 41.866 5.881, 41.976 5.777, 44.473 6.404 C 47.663 7.204, 55 11.895, 55 13.133 C 55 13.610, 55.421 14, 55.935 14 C 56.449 14, 58.083 14.461, 59.567 15.025 C 62.184 16.020, 62.211 16.110, 60.471 18.032 C 59.486 19.121, 58.864 20.122, 59.089 20.256 C 59.315 20.390, 61.300 21.461, 63.500 22.637 C 68.501 25.308, 70.147 29.075, 67.561 31.932 C 66.569 33.029, 66.025 34.623, 66.352 35.475 C 67.130 37.503, 65.054 42, 63.339 42 C 61.092 42, 61.838 44.471, 65 47.500 C 66.650 49.081, 68 50.820, 68 51.364 C 68 51.908, 69.591 54.664, 71.536 57.488 L 75.072 62.621 73.107 67.010 C 70.681 72.428, 70.840 76.417, 74.440 100.500 C 78.150 125.324, 78.564 141, 75.509 141 C 74.814 141, 73.685 141.675, 73 142.500 C 71.898 143.828, 75.382 144, 103.378 144 C 131.329 144, 135 143.819, 135 142.444 C 135 141.588, 133.685 139.675, 132.079 138.194 C 127.301 133.788, 125.998 124.646, 125.582 92.633 C 125.279 69.278, 124.988 65.034, 123.493 62.152 C 121.808 58.905, 121.820 58.724, 123.875 56.152 C 125.041 54.693, 127.120 51.379, 128.496 48.786 C 129.872 46.193, 131.898 43.590, 132.999 43.001 C 135.237 41.803, 135.741 38, 133.661 38 C 131.911 38, 129.877 33.485, 130.681 31.388 C 131.061 30.398, 130.656 29.387, 129.654 28.827 C 125.696 26.611, 129.088 20.115, 135.629 17.382 C 138.369 16.237, 139.180 15.172, 140.103 11.504 C 141.360 6.514, 142.947 6.411, 143.099 11.309 C 143.180 13.917, 143.474 13.450, 144.707 8.750 C 145.537 5.588, 146.617 3, 147.108 3 C 147.599 3, 148 3.450, 148 4 C 148 4.550, 148.873 5, 149.941 5 C 152.981 5, 153.306 6.754, 150.595 8.530 C 149.237 9.419, 147.828 11.508, 147.462 13.172 C 146.915 15.663, 147.324 16.753, 149.777 19.348 C 151.415 21.082, 154.132 25.425, 155.815 29 C 158.073 33.798, 161.022 37.595, 167.079 43.500 C 171.591 47.900, 175.926 53.023, 176.711 54.884 C 178.770 59.763, 179.504 70.944, 178.054 75.337 C 176.873 78.915, 174.788 80.084, 173.450 77.919 C 173.077 77.316, 171.682 77.114, 170.295 77.462 C 167.102 78.264, 165 76.493, 165 73 C 165 71.485, 164.325 69.685, 163.500 69 C 162.268 67.977, 162 68.055, 162 69.437 C 162 72.686, 160.114 69.903, 158.472 64.232 C 157.559 61.079, 155.955 57.695, 154.906 56.711 C 153.858 55.727, 153 54.602, 152.999 54.211 C 152.998 53.265, 146.506 46, 145.662 46 C 143.838 46, 145.380 50.226, 148.250 53.094 C 150.037 54.881, 151.594 57.501, 151.709 58.917 C 151.824 60.333, 152.653 63.122, 153.552 65.115 C 155 68.327, 155.021 69.067, 153.733 71.620 C 152.934 73.204, 151.997 75.685, 151.651 77.133 C 151.105 79.413, 151.455 79.943, 154.260 81.089 C 156.042 81.817, 162.271 87.238, 168.101 93.135 C 176.955 102.089, 179.072 104.846, 180.948 109.860 C 184.059 118.181, 184.172 124.828, 181.250 127.750 C 180.013 128.988, 178.571 130, 178.047 130 C 175.731 130, 172.194 132.401, 170.643 135.027 C 169.306 137.291, 167.975 138.031, 164.234 138.592 C 161.638 138.982, 158.305 140.193, 156.829 141.285 C 155.352 142.376, 153.451 143.003, 152.604 142.678 C 151.757 142.353, 150.792 142.527, 150.461 143.064 C 150.073 143.690, 157.493 143.943, 171.179 143.770 L 192.500 143.500 192.757 71.750 L 193.013 0 96.507 0 L 0 0 0 72 M 0.474 72.500 C 0.474 112.100, 0.598 128.154, 0.750 108.176 C 0.901 88.198, 0.901 55.798, 0.750 36.176 C 0.598 16.554, 0.474 32.900, 0.474 72.500 M 141.070 68.250 C 141.125 71.542, 141.334 72.049, 142 70.500 C 143.198 67.711, 143.198 64, 142 64 C 141.450 64, 141.032 65.912, 141.070 68.250 M 53.571 68.885 C 53.271 69.371, 53.617 71.479, 54.340 73.568 C 55.915 78.117, 57.402 76.662, 56.437 71.517 C 55.796 68.100, 54.686 67.080, 53.571 68.885" stroke="none" fill="black" fill-rule="evenodd"/>
</svg>