<svg xmlns="http://www.w3.org/2000/svg" width="192" height="144" viewBox="0 0 192 144" version="1.1">
	<path d="M 0 72 L 0 144 35 144 L 70 144 70.029 141.750 C 70.045 140.512, 70.932 136.350, 72 132.500 C 73.068 128.650, 73.955 125.159, 73.971 124.741 C 73.987 124.324, 71.525 124.273, 68.500 124.629 C 59.149 125.728, 62.649 121.778, 74.017 118.402 C 76.815 117.571, 79.411 116.022, 80.314 114.644 C 82.313 111.592, 87.865 109, 92.401 109 L 96 109 96 54.500 L 96 0 48 0 L 0 0 0 72 M 96 127 L 96 144 108.500 144 C 122.450 144, 122.039 144.267, 119.608 136.785 C 118.842 134.428, 117.997 130.675, 117.729 128.445 L 117.243 124.389 122.358 126.121 C 126.019 127.361, 127.835 127.552, 128.749 126.794 C 129.714 125.992, 129.746 125.399, 128.880 124.356 C 127.624 122.842, 121.009 119.716, 116.873 118.681 C 115.429 118.320, 112.062 116.218, 109.392 114.012 C 105.401 110.714, 103.777 110, 100.268 110 L 96 110 96 127" stroke="none" fill="black" fill-rule="evenodd"/>
</svg>