<svg xmlns="http://www.w3.org/2000/svg" width="192" height="144" viewBox="0 0 192 144" version="1.1">
	<path d="M 134.736 0.598 C 134.407 0.927, 134.357 1.767, 134.625 2.466 C 134.894 3.165, 134.190 3.979, 133.062 4.274 C 131.933 4.569, 130.733 5.531, 130.395 6.413 C 129.450 8.875, 130.901 14.901, 132.925 16.925 C 134.677 18.677, 134.674 18.992, 132.836 26.119 C 130.607 34.768, 129.278 49.287, 130.030 56.770 C 130.321 59.669, 130.169 62.431, 129.693 62.907 C 129.203 63.397, 129.299 64.067, 129.913 64.446 C 131.591 65.483, 131.199 66.999, 129.250 67.010 C 128.287 67.016, 121.313 66.057, 113.750 64.880 L 100 62.741 100 58.857 C 100 56.721, 100.531 54.123, 101.179 53.085 C 102.126 51.568, 102.016 50.673, 100.618 48.539 C 99.234 46.428, 98.223 45.946, 95.688 46.191 C 92.803 46.471, 92.528 46.785, 92.794 49.500 C 93.379 55.465, 93.133 58.467, 90.521 77.296 C 88.417 92.462, 88.686 96.231, 91.926 96.988 C 95.333 97.785, 95.630 99.756, 92.553 101.158 C 91.120 101.811, 90.108 102.830, 90.303 103.422 C 90.773 104.848, 103 105.450, 103 104.048 C 103 103.471, 102.334 103, 101.519 103 C 99.875 103, 98.428 98.734, 99.490 97.016 C 99.863 96.413, 101.033 96.193, 102.089 96.528 C 105.058 97.471, 105.199 95.415, 102.950 84 C 101.813 78.225, 100.634 71.790, 100.331 69.701 L 99.781 65.902 104.640 66.554 C 107.313 66.912, 114.225 67.946, 120 68.853 L 130.500 70.500 130.807 74.189 C 131.070 77.358, 131.493 77.922, 133.807 78.189 C 135.854 78.425, 136.429 78.980, 136.205 80.500 C 135.519 85.149, 133.570 87.942, 128.894 90.972 C 121.064 96.046, 118 98.986, 118 101.428 C 118 103.909, 121.451 106, 125.547 106 C 127.501 106, 128 105.488, 128 103.485 C 128 101.770, 128.942 100.398, 130.962 99.169 C 134.977 96.728, 144 88.336, 144 87.043 C 144 86.469, 144.475 86, 145.056 86 C 145.637 86, 144.510 88.813, 142.551 92.250 C 132.980 109.046, 129.427 119.786, 128.324 135.250 L 127.701 144 153.896 144 L 180.092 144 180.132 121.750 C 180.188 91.320, 180.218 91.997, 178.629 87.500 C 176.778 82.261, 174.165 70.466, 173.830 65.836 C 173.623 62.977, 174.095 61.743, 175.983 60.215 C 177.719 58.809, 178.400 57.256, 178.400 54.701 L 178.400 51.144 181.665 54.822 C 183.461 56.845, 185.649 59.315, 186.527 60.311 C 188.699 62.777, 191.433 62.060, 191.798 58.930 C 192.044 56.825, 189.830 54.108, 179.177 43.439 C 167.178 31.423, 166.135 30.072, 164.541 24.500 C 162.540 17.501, 159.091 10, 157.874 10 C 157.408 10, 156.369 8.425, 155.564 6.500 C 154.760 4.575, 153.404 3, 152.551 3 C 151.698 3, 151 2.325, 151 1.500 C 151 0.294, 149.463 0, 143.167 0 C 138.858 0, 135.064 0.269, 134.736 0.598 M 136.586 44.062 C 135.849 49.623, 136.744 60.495, 138.167 63.250 C 139.051 64.963, 143.010 65.657, 144.336 64.331 C 144.703 63.963, 144.259 62.838, 143.347 61.831 C 142.356 60.736, 142.155 60, 142.845 60 C 143.552 60, 144.012 58.157, 144.032 55.250 C 144.049 52.638, 144.724 49.626, 145.532 48.559 C 147.423 46.059, 147.390 45, 145.423 45 C 144.556 45, 142.496 43.650, 140.846 42 C 139.196 40.350, 137.714 39, 137.552 39 C 137.390 39, 136.955 41.278, 136.586 44.062 M 139 72.059 C 139 72.641, 139.450 72.840, 140 72.500 C 140.550 72.160, 141 71.684, 141 71.441 C 141 71.198, 140.550 71, 140 71 C 139.450 71, 139 71.477, 139 72.059 M 148.387 80.282 L 145.771 85.500 149.120 82.500 C 154.460 77.715, 155.009 76.601, 152.501 75.639 C 151.440 75.232, 150.237 76.590, 148.387 80.282" stroke="none" fill="black" fill-rule="evenodd"/>
</svg>