<svg xmlns="http://www.w3.org/2000/svg" width="192" height="144" viewBox="0 0 192 144" version="1.1">
	<path d="M -0 72.005 L -0 144.010 96.250 143.755 L 192.500 143.500 192.757 71.750 L 193.013 0 96.507 0 L 0 0 -0 72.005 M 0.474 72.500 C 0.474 112.100, 0.598 128.154, 0.750 108.176 C 0.901 88.198, 0.901 55.798, 0.750 36.176 C 0.598 16.554, 0.474 32.900, 0.474 72.500 M 84.280 49.654 C 82.328 51.017, 82.238 51.380, 83.530 52.673 C 87.132 56.275, 83.110 67.847, 78.215 67.968 C 77.274 67.991, 77.194 67.505, 77.917 66.155 C 78.621 64.840, 78.497 63.726, 77.485 62.283 C 76.486 60.856, 76.315 59.389, 76.907 57.324 C 77.647 54.743, 77.413 54.199, 74.948 52.785 C 72.352 51.295, 72.034 51.305, 70.574 52.918 C 69.708 53.875, 69 55.635, 69 56.829 C 69 58.023, 68.602 59, 68.117 59 C 67.631 59, 66.979 59.974, 66.667 61.164 C 66.196 62.965, 65.848 63.118, 64.594 62.078 C 63.766 61.391, 62.611 61.123, 62.027 61.483 C 60.138 62.651, 62.030 64, 65.559 64 C 69.404 64, 69.517 64.320, 67.750 70.167 C 66.647 73.818, 65.855 74.589, 61 76.737 C 44.102 84.213, 44.412 83.813, 50.608 90.134 C 53.298 92.879, 58.027 96.668, 61.116 98.554 C 66.626 101.918, 66.841 101.961, 72.591 100.899 C 75.814 100.303, 79.587 99.016, 80.975 98.038 C 85.208 95.059, 91.190 92.401, 97.623 90.642 C 111.254 86.915, 132.050 72.710, 137.506 63.399 C 139.759 59.555, 139.985 58.578, 138.856 57.555 C 136.564 55.479, 125.036 51, 121.984 51 C 118.625 51, 101.546 56.950, 95 60.401 C 92.525 61.706, 89.455 63.090, 88.178 63.477 C 85.884 64.172, 85.874 64.144, 87.428 61.140 C 89.064 57.975, 89.400 54.095, 88.370 50.250 C 87.667 47.630, 87.265 47.571, 84.280 49.654 M 55.134 64.632 C 53.282 65.440, 52.002 66.336, 52.289 66.623 C 52.576 66.910, 54.541 66.232, 56.656 65.116 C 61.088 62.778, 60.102 62.464, 55.134 64.632 M 75 64.559 C 75 65.416, 75.457 65.835, 76.016 65.490 C 76.575 65.144, 76.774 64.443, 76.457 63.931 C 75.600 62.544, 75 62.802, 75 64.559" stroke="none" fill="black" fill-rule="evenodd"/>
</svg>