<svg xmlns="http://www.w3.org/2000/svg" width="192" height="144" viewBox="0 0 192 144" version="1.1">
	<path d="M 0 72 L 0 144 13.810 144 L 27.619 144 31.946 134.750 C 36.198 125.660, 36.280 125.284, 36.677 113 C 36.899 106.125, 37.041 97.575, 36.993 94 C 36.933 89.653, 37.953 83.525, 40.071 75.500 C 41.812 68.900, 44.035 58.907, 45.010 53.293 C 46.931 42.239, 48.627 38.686, 54.898 32.586 C 58.378 29.200, 59.669 28.609, 64.461 28.212 C 69.227 27.816, 70 27.466, 70 25.705 C 70 24.579, 69.246 22.824, 68.324 21.805 C 65.894 19.120, 67.830 17.680, 71.388 19.526 C 77.345 22.617, 80.789 20.946, 86.295 12.293 C 89.212 7.708, 93.475 4.482, 92.328 7.727 C 91.984 8.702, 90.960 10.400, 90.054 11.500 C 85.256 17.321, 85.255 17.322, 88.770 16.551 C 92.884 15.647, 93.065 17.398, 89.071 19.463 C 83.952 22.110, 84.054 25.916, 89.377 30.895 C 92.487 33.804, 91.940 35.138, 87.964 34.343 C 86.259 34.002, 84.390 34.261, 83.554 34.955 C 82.312 35.986, 82.528 36.746, 85.051 40.230 C 87.419 43.498, 88 45.328, 88 49.514 C 88 54.433, 87.783 54.879, 84.155 57.392 C 81.845 58.993, 79.650 59.803, 78.655 59.421 C 77.469 58.966, 77 59.330, 77 60.708 C 77 61.920, 75.707 63.246, 73.500 64.299 C 69.122 66.386, 69.051 68.340, 73.115 74.879 C 75.504 78.721, 76.231 81.041, 76.231 84.823 C 76.231 92.224, 76.727 92.445, 84.303 88.423 C 90.739 85.005, 91 84.720, 91 81.124 C 91 79.066, 91.563 76.684, 92.250 75.831 C 95.929 71.265, 101 74.222, 101 80.933 C 101 84.765, 101.172 84.958, 107.697 88.423 C 115.252 92.434, 115.769 92.212, 115.769 84.951 C 115.769 81.405, 116.585 78.720, 118.885 74.702 C 120.598 71.707, 122 68.517, 122 67.612 C 122 66.708, 120.424 65.216, 118.499 64.298 C 116.406 63.300, 115.099 62.002, 115.249 61.072 C 115.416 60.037, 114.492 59.346, 112.493 59.008 C 107.986 58.247, 105.084 55.749, 104.845 52.425 C 104.321 45.148, 105.036 42.029, 108 38.653 C 111.695 34.444, 111.691 33.403, 107.959 29.038 C 106.332 27.134, 104.984 24.659, 104.965 23.538 C 104.945 22.417, 104.286 20.375, 103.500 19 C 101.114 14.827, 101.905 14.294, 105.041 17.962 C 107.064 20.329, 108 20.901, 108 19.771 C 108 18.862, 107.604 17.873, 107.121 17.575 C 106.637 17.276, 105.997 16.098, 105.699 14.958 C 104.889 11.858, 107.138 14.023, 113.208 22.186 L 118.294 29.026 124.397 28.452 C 131.646 27.770, 134.587 29.218, 140.427 36.346 C 144.520 41.341, 146.342 46.304, 147.458 55.500 C 147.858 58.800, 149.515 66.675, 151.140 73 C 152.765 79.325, 154.263 87.650, 154.468 91.500 C 154.673 95.350, 155.354 101.650, 155.981 105.500 C 156.608 109.350, 156.981 114.237, 156.810 116.361 L 156.500 120.221 162.575 122.093 C 167.618 123.647, 169.671 125.029, 174.671 130.235 C 177.982 133.684, 181.309 138.213, 182.063 140.299 C 183.404 144.005, 183.538 144.085, 187.967 143.796 L 192.500 143.500 192.757 71.750 L 193.013 0 96.507 0 L 0 0 0 72 M 0.474 72.500 C 0.474 112.100, 0.598 128.154, 0.750 108.176 C 0.901 88.198, 0.901 55.798, 0.750 36.176 C 0.598 16.554, 0.474 32.900, 0.474 72.500 M 82.027 98.601 C 78.467 101.011, 75.092 103.149, 74.527 103.354 C 73.962 103.559, 73.810 104.061, 74.190 104.469 C 74.714 105.035, 87.594 99.991, 89.907 98.314 C 90.131 98.152, 89.906 97.165, 89.407 96.120 C 88.564 94.356, 88.041 94.531, 82.027 98.601 M 102.605 94.728 C 100.858 96.476, 102.723 98.374, 109.465 101.710 C 113.570 103.742, 117.245 105.088, 117.631 104.702 C 118.017 104.316, 118.146 103.873, 117.917 103.717 C 109.913 98.276, 103.073 94.261, 102.605 94.728 M 94.223 103.259 C 93.270 105.896, 91.136 107.627, 83.045 112.326 C 76.949 115.866, 72.157 118.010, 70.772 117.817 C 68.676 117.525, 68.515 117.849, 68.690 122 C 68.794 124.475, 69.667 130.438, 70.631 135.250 L 72.382 144 97.691 144 L 123 144 123 136.647 C 123 132.602, 123.289 126.526, 123.643 123.143 L 124.286 116.993 121.393 117.507 C 119.131 117.908, 116.323 116.749, 108.518 112.192 C 100.218 107.345, 98.382 105.827, 97.623 103.181 C 96.468 99.154, 95.701 99.171, 94.223 103.259" stroke="none" fill="black" fill-rule="evenodd"/>
</svg>