<svg xmlns="http://www.w3.org/2000/svg" width="192" height="144" viewBox="0 0 192 144" version="1.1">
	<path d="M 73 3.500 C 73 5.425, 72.550 7, 72 7 C 71.343 7, 71 30.500, 71 75.500 L 71 144 131.500 144 L 192 144 192 119.160 C 192 105.498, 192.164 86.261, 192.365 76.410 C 192.566 66.560, 192.549 62.171, 192.327 66.659 C 191.806 77.233, 190.769 78.119, 184.953 72.956 C 182.504 70.782, 180.080 69.002, 179.566 69.001 C 178.145 68.999, 169.722 64.882, 167.833 63.266 C 166.520 62.143, 165.708 62.086, 164.005 62.997 C 162.816 63.633, 161.208 63.910, 160.432 63.612 C 159.525 63.264, 158.799 63.952, 158.402 65.535 C 157.689 68.375, 157.901 68.293, 154.565 67.025 C 152.768 66.341, 152 65.311, 152 63.581 C 152 60.578, 148.826 58.164, 143.818 57.359 C 141.005 56.906, 139.791 56.053, 138.672 53.743 C 137.456 51.232, 135.968 50.326, 129.896 48.401 C 122.244 45.975, 120.908 45.979, 122.936 48.423 C 123.765 49.421, 123.849 50.448, 123.198 51.611 C 122.334 53.155, 122.168 53.105, 121.534 51.108 C 120.554 48.020, 113.300 43, 109.819 43 C 108.213 43, 106.689 42.353, 106.376 41.538 C 106.068 40.734, 104.952 39.802, 103.897 39.467 C 101.913 38.838, 98.657 33.676, 99.630 32.703 C 100.155 32.178, 106.242 33.983, 110.500 35.927 C 111.600 36.429, 115.875 38.040, 120 39.508 C 124.125 40.975, 129.235 42.827, 131.356 43.622 C 135.724 45.261, 136.359 44.981, 141.712 39.056 C 143.744 36.807, 144.939 34.426, 144.962 32.579 C 144.983 30.972, 145.735 28.846, 146.633 27.853 C 148.156 26.170, 147.990 25.507, 144.133 17.905 C 141.860 13.425, 140 9.461, 140 9.096 C 140 8.413, 145.337 5, 146.404 5 C 146.732 5, 147 6.312, 147 7.917 C 147 11.331, 148.412 12.068, 152.356 10.712 C 158.639 8.552, 165.123 15.007, 164.918 23.218 L 164.837 26.500 163.416 23.250 C 162.634 21.462, 161.546 20, 160.997 20 C 159.613 20, 159.719 20.529, 162 25 C 164.131 29.177, 164.587 32.620, 163.082 33.167 C 160.920 33.952, 164.610 42.930, 168.772 47.010 C 172.719 50.879, 173.458 51.184, 180.740 51.956 C 185.008 52.409, 189.287 53.102, 190.250 53.497 C 191.891 54.169, 192 52.530, 192 27.107 L 192 0 132.500 0 L 73 0 73 3.500 M 148.046 40.914 C 147.272 42.361, 147.257 43, 147.996 43 C 149.209 43, 150.529 40.195, 149.705 39.371 C 149.406 39.073, 148.660 39.767, 148.046 40.914 M 4.750 56.068 L 1 58.048 1.006 70.774 L 1.013 83.500 4.090 85.252 C 9.273 88.201, 14.071 88.457, 19.581 86.075 C 26.509 83.080, 29.500 78.385, 29.500 70.500 C 29.500 65.660, 29.017 63.852, 27 61.150 C 21.888 54.299, 12.264 52.101, 4.750 56.068" stroke="none" fill="black" fill-rule="evenodd"/>
</svg>