<svg xmlns="http://www.w3.org/2000/svg" width="192" height="144" viewBox="0 0 192 144" version="1.1">
	<path d="M 72.056 11.250 C 69.403 13.960, 68.974 15.027, 69.469 17.675 C 69.992 20.472, 69.623 21.186, 66.375 23.663 C 62.555 26.577, 58.027 34.761, 58.010 38.783 C 58.004 40.039, 59.122 43.281, 60.493 45.987 C 62.585 50.115, 63.551 51.013, 66.493 51.565 C 70.020 52.226, 70.902 53.698, 68.945 55.655 C 67.283 57.317, 76.946 67, 80.266 67 C 81.705 67, 83.181 67.483, 83.546 68.074 C 84.459 69.552, 80.198 73.961, 76.215 75.657 C 74.407 76.427, 72.547 78.056, 72.079 79.278 C 71.612 80.500, 70.278 82.357, 69.115 83.405 C 67.771 84.615, 67 86.517, 67 88.621 C 67 92.323, 64.096 99.199, 62.725 98.742 C 61.920 98.473, 60.199 94.550, 54.214 79.336 L 52.182 74.171 54.341 73.657 C 55.528 73.375, 58.750 72.830, 61.500 72.447 C 70.914 71.137, 69.708 70.050, 59 70.196 C 53.225 70.274, 47 69.981, 45.166 69.543 C 42.512 68.911, 41.249 69.179, 38.974 70.861 L 36.117 72.973 33.882 69.737 C 32.653 67.956, 31.519 66.330, 31.362 66.122 C 31.205 65.914, 29.105 66.240, 26.695 66.847 C 23.938 67.541, 21.170 67.622, 19.232 67.066 C 17.537 66.580, 15.894 66.440, 15.580 66.754 C 15.266 67.068, 17.071 71.189, 19.592 75.912 C 22.113 80.635, 25.317 88.022, 26.713 92.328 C 28.109 96.633, 29.757 100.578, 30.375 101.095 C 30.994 101.612, 34.763 104.353, 38.750 107.185 C 42.737 110.017, 46 112.931, 46 113.661 C 46 114.390, 49.210 118.630, 53.134 123.083 L 60.268 131.179 58.218 134.839 C 56.914 137.169, 56.363 139.500, 56.701 141.250 L 57.233 144 85.291 144 L 113.349 144 111.050 141.553 C 109.786 140.208, 107.795 138.970, 106.626 138.803 C 104.610 138.516, 104.513 138.013, 104.744 129.128 C 104.879 123.973, 105.468 117.976, 106.053 115.801 C 106.848 112.850, 106.814 111.480, 105.917 110.400 C 105.256 109.603, 104.892 108.807, 105.107 108.630 C 106.748 107.285, 112.736 105, 114.622 105 C 116.375 105, 116.800 104.575, 116.374 103.250 C 115.910 101.806, 115.993 101.757, 116.851 102.971 C 117.423 103.780, 118.194 104.139, 118.565 103.769 C 118.935 103.398, 119.883 103.740, 120.671 104.528 C 121.804 105.661, 121.888 106.747, 121.072 109.701 C 120.398 112.143, 120.380 113.780, 121.020 114.420 C 121.559 114.959, 122 116.858, 122 118.641 C 122 120.424, 122.493 122.187, 123.096 122.559 C 123.699 122.932, 123.999 124.553, 123.763 126.162 C 123.527 127.772, 123.708 129.320, 124.167 129.603 C 124.625 129.886, 125 131.216, 125 132.559 C 125 135.035, 126.372 135.826, 127.500 134 C 128.874 131.777, 129.839 133.218, 129.281 136.658 C 128.733 140.031, 128.855 140.271, 130.844 139.751 C 132.611 139.289, 133 139.621, 133 141.594 L 133 144 162.500 144 L 192 144 192 122.643 L 192 101.287 186.897 92.393 C 184.090 87.502, 181.313 82.912, 180.726 82.192 C 178.995 80.070, 173.414 78.139, 164.168 76.461 C 144.869 72.960, 136.205 68.680, 130.795 59.977 C 129.093 57.240, 127.345 55, 126.909 55 C 126.473 55, 124.087 57.638, 121.606 60.863 C 119.125 64.087, 113.816 69.761, 109.809 73.471 C 102.863 79.902, 102.492 80.106, 101.861 77.858 C 100.849 74.251, 100.890 70.814, 101.939 71.462 C 102.455 71.781, 103.272 71.336, 103.755 70.473 C 104.238 69.610, 105.616 68.829, 106.817 68.739 C 108.018 68.648, 109 67.995, 109 67.287 C 109 66.579, 109.666 66, 110.481 66 C 111.295 66, 112.244 64.875, 112.589 63.500 C 112.934 62.125, 113.873 61, 114.676 61 C 115.635 61, 115.936 60.373, 115.554 59.169 C 115.234 58.161, 114.790 55.574, 114.567 53.419 C 113.875 46.722, 107.264 30.264, 102.996 24.612 C 100.794 21.694, 97.311 18.502, 95.248 17.510 C 93.187 16.518, 90.825 15.390, 90 15.001 C 89.175 14.613, 88.361 13.364, 88.191 12.225 C 87.841 9.883, 83.507 8, 78.469 8 C 76.142 8, 74.347 8.910, 72.056 11.250 M 41 82.402 C 41 83.157, 44.356 89.670, 45.946 92 C 46.795 93.244, 46.972 93.140, 46.985 91.388 C 46.993 90.226, 45.650 87.576, 44 85.500 C 42.350 83.424, 41 82.030, 41 82.402 M 45.700 95.339 C 45.389 96.149, 46.064 97.642, 47.200 98.656 C 49.236 100.474, 49.255 100.464, 48.521 98 C 47.513 94.621, 46.384 93.556, 45.700 95.339 M 97.593 114.889 C 96.363 120.297, 96.268 122.500, 97.150 125.139 C 98.352 128.737, 99.939 131.066, 100.087 129.450 C 100.135 128.928, 100.509 124.675, 100.918 120 C 101.327 115.325, 102.011 110.713, 102.438 109.750 C 103.035 108.404, 102.747 108, 101.187 108 C 99.499 108, 98.898 109.152, 97.593 114.889" stroke="none" fill="black" fill-rule="evenodd"/>
</svg>