<svg xmlns="http://www.w3.org/2000/svg" width="192" height="144" viewBox="0 0 192 144" version="1.1">
	<path d="M 102.500 13.102 C 98.212 14.419, 95.990 16.391, 95.117 19.655 C 94.663 21.351, 93.577 22.617, 92.428 22.789 C 85.461 23.833, 84.611 24.808, 87.694 28.214 C 88.626 29.244, 89.479 31.875, 89.591 34.061 C 89.702 36.247, 90.615 39.266, 91.619 40.768 C 92.623 42.271, 93.341 43.848, 93.214 44.274 C 92.901 45.326, 97.017 53.339, 98.290 54.155 C 98.852 54.516, 100.315 54.629, 101.540 54.407 C 105.694 53.654, 105.629 61.790, 101.463 64.020 C 99.339 65.157, 94.629 72.034, 91.033 79.250 C 90.279 80.763, 89.309 82, 88.878 82 C 88.447 82, 86.671 80.228, 84.930 78.063 C 80.526 72.582, 70.877 66, 67.246 66 C 63.500 66, 60.751 68.982, 61.175 72.584 C 61.514 75.461, 64 77.293, 64 74.666 C 64 73.444, 64.739 73.568, 67.992 75.333 C 70.187 76.525, 71.987 77.887, 71.992 78.360 C 71.996 78.834, 75.450 82.884, 79.666 87.360 C 85.673 93.740, 87.869 95.453, 89.818 95.281 C 92.601 95.036, 96.348 91.895, 98.803 87.750 C 100.911 84.189, 102 84.263, 102 87.965 C 102 89.836, 102.689 91.298, 103.867 91.929 C 105.217 92.651, 105.963 94.668, 106.563 99.214 C 107.780 108.429, 107.489 112.271, 105.205 117.142 C 104.082 119.539, 101.829 124.474, 100.200 128.109 C 98.571 131.743, 95.236 136.806, 92.790 139.359 L 88.343 144 126.921 143.978 C 165.395 143.956, 165.493 143.950, 163 142 C 161.625 140.924, 159.970 140.034, 159.323 140.022 C 156.827 139.975, 154.120 135.034, 154.685 131.557 C 155.009 129.554, 154.491 126.049, 153.397 122.852 C 152.390 119.908, 151.505 116.600, 151.430 115.500 C 151.354 114.400, 150.978 112.362, 150.594 110.972 C 149.945 108.625, 150.238 108.351, 154.669 107.166 C 164.873 104.437, 169 99.841, 169 91.205 C 169 87.206, 168.292 85.229, 165.131 80.405 C 163.004 77.157, 159.594 72.925, 157.556 71 C 155.517 69.075, 151.909 64.800, 149.539 61.500 C 145.456 55.814, 139.401 49.771, 135.452 47.441 C 134.465 46.858, 133.588 45.443, 133.503 44.296 C 133.366 42.425, 133.997 42.170, 139.636 41.810 C 146.659 41.363, 147.472 40.951, 146.522 38.325 C 145.567 35.687, 134.700 26.550, 129.737 24.213 C 127.407 23.116, 123.793 20.606, 121.706 18.635 C 119.461 16.514, 115.814 14.428, 112.775 13.526 C 107.033 11.821, 106.714 11.807, 102.500 13.102" stroke="none" fill="black" fill-rule="evenodd"/>
</svg>