<svg xmlns="http://www.w3.org/2000/svg" width="192" height="144" viewBox="0 0 192 144" version="1.1">
	<path d="M 135.111 3.481 C 132.563 5.942, 130.529 6.896, 126.915 7.324 C 114.905 8.746, 103 19.992, 103 29.915 C 103 33.486, 99.715 37.248, 92.750 41.653 C 90.688 42.958, 89 44.476, 89 45.027 C 89 46.988, 95.232 49.904, 98.168 49.316 C 99.887 48.973, 101 49.177, 101 49.836 C 101 51.846, 105.354 55, 108.130 55 C 111.405 55, 112.635 56.530, 110.971 58.535 C 109.997 59.709, 110.358 60.532, 112.885 62.892 C 114.598 64.493, 116 66.733, 116 67.870 C 116 69.297, 116.465 69.759, 117.500 69.362 C 118.325 69.045, 119 69.193, 119 69.689 C 119 70.765, 123.513 70.821, 124.575 69.759 C 125.815 68.518, 127.827 70.945, 127.283 73.025 C 127.002 74.099, 125.255 75.916, 123.399 77.062 C 121.544 78.209, 119.248 80.464, 118.298 82.073 C 117.347 83.683, 116.328 85.002, 116.034 85.004 C 115.740 85.006, 114.023 85.908, 112.218 87.009 C 109.429 88.709, 109.093 89.305, 109.984 90.971 C 110.852 92.591, 110.593 93.221, 108.491 94.598 C 106.950 95.607, 106.136 96.901, 106.424 97.882 C 106.685 98.772, 105.584 101.043, 103.977 102.930 C 101.068 106.343, 101.044 106.350, 98.927 104.434 C 97.757 103.375, 94.482 99.647, 91.650 96.148 C 83.235 85.755, 72.720 81.833, 57.611 83.451 C 51.660 84.088, 51 84.381, 51 86.380 C 51 87.601, 51.559 89.159, 52.242 89.842 C 53.230 90.830, 53.220 91.246, 52.190 91.882 C 51.243 92.468, 52.136 93.992, 55.536 97.591 L 60.174 102.500 69.146 102.500 L 78.118 102.500 84.440 112.500 C 92.371 125.046, 97.399 130.783, 101.386 131.836 C 104.187 132.576, 104.472 133.002, 104.223 136.079 C 104.070 137.961, 103.724 140.513, 103.454 141.750 L 102.962 144 122.981 144 C 143.746 144, 145.859 143.529, 139.997 140.203 C 138.346 139.267, 136.678 137.600, 136.290 136.500 C 135.022 132.900, 135.847 121.616, 137.789 116 C 139.680 110.530, 139.717 110.496, 144.595 109.788 C 147.313 109.394, 151.208 109.532, 153.330 110.098 C 158.036 111.354, 166.482 119.436, 174.302 130.165 C 177.375 134.381, 180.820 138.126, 181.959 138.487 C 183.430 138.954, 185.184 138.230, 188.015 135.988 L 192 132.832 192 119.397 L 192 105.962 189.250 106.731 C 185.210 107.861, 166.467 107.024, 164.182 105.612 C 162.829 104.776, 164.500 100.405, 167.204 97.711 C 168.192 96.727, 169 95.040, 169 93.961 C 169 92.707, 169.679 92, 170.883 92 C 171.926 92, 173 91.107, 173.290 90 C 174.016 87.224, 175.399 87.497, 178.347 91 C 181.605 94.872, 184.599 94.871, 186.797 90.997 C 187.733 89.346, 189.287 87.741, 190.250 87.430 C 192.922 86.568, 192.308 84.757, 188.410 82 C 182.069 77.515, 176.830 72.580, 173.891 68.325 C 168.145 60.006, 166.010 59.326, 165.987 65.809 C 165.974 69.608, 162.061 83.060, 159.585 87.818 C 155.251 96.149, 149.058 96.982, 148.486 89.310 C 148.317 87.046, 147.239 83.067, 146.089 80.469 C 144.940 77.871, 144 74.642, 144 73.293 C 144 71.089, 144.303 70.908, 147 71.500 C 149.409 72.029, 150 71.826, 150 70.471 C 150 69.174, 150.574 68.927, 152.478 69.405 C 154.778 69.982, 154.913 69.816, 154.366 67.078 C 153.846 64.478, 154.017 64.192, 155.818 64.663 C 157.163 65.014, 158.272 64.537, 159.068 63.263 C 159.882 61.959, 161.044 61.477, 162.638 61.782 C 165.302 62.291, 165.751 60.868, 163.511 59.009 C 162.692 58.329, 162.249 57.405, 162.527 56.956 C 162.805 56.506, 162.575 55.856, 162.016 55.510 C 161.457 55.165, 161 54.459, 161 53.941 C 161 52.684, 164.717 52.732, 165.500 54 C 166.417 55.483, 169 55.212, 169 53.632 C 169 52.879, 166.917 50.180, 164.372 47.635 C 159.902 43.165, 159.769 42.861, 160.491 38.753 C 161.199 34.724, 161.732 31.375, 161.917 29.783 C 161.963 29.389, 163.597 27.470, 165.549 25.517 C 167.501 23.565, 168.862 21.586, 168.574 21.119 C 168.285 20.652, 165.327 19.734, 161.999 19.080 C 155.554 17.812, 155.154 17.007, 159.979 15.009 C 163.760 13.443, 164.022 9.686, 160.750 3.956 L 158.500 0.015 148.500 0.112 C 138.615 0.207, 138.461 0.246, 135.111 3.481 M 128.079 68.583 C 128.127 69.748, 128.364 69.985, 128.683 69.188 C 128.972 68.466, 128.936 67.603, 128.604 67.271 C 128.272 66.939, 128.036 67.529, 128.079 68.583" stroke="none" fill="black" fill-rule="evenodd"/>
</svg>