<svg xmlns="http://www.w3.org/2000/svg" width="192" height="144" viewBox="0 0 192 144" version="1.1">
	<path d="M -0 72.005 L -0 144.010 96.250 143.755 L 192.500 143.500 192.757 71.750 L 193.013 0 151.707 -0 L 110.402 -0 110.789 3.316 C 111.595 10.222, 109.606 14.487, 100.072 26.300 L 95.644 31.786 91.788 27.143 C 82.978 16.534, 80.648 12.279, 80.191 5.968 L 79.760 0 39.880 0 L 0 0 -0 72.005 M 0.474 72.500 C 0.474 112.100, 0.598 128.154, 0.750 108.176 C 0.901 88.198, 0.901 55.798, 0.750 36.176 C 0.598 16.554, 0.474 32.900, 0.474 72.500 M 93.731 38.602 C 93.329 39.004, 93 40.275, 93 41.426 C 93 42.577, 92.120 44.069, 91.044 44.741 C 89.968 45.413, 88.601 47.768, 88.007 49.975 C 87.287 52.648, 86.021 54.482, 84.213 55.470 C 80.812 57.329, 76.973 60.773, 74.727 63.979 C 72.848 66.661, 72.393 69.493, 74 68.500 C 74.569 68.148, 75 69.009, 75 70.500 C 75 71.940, 75.419 72.859, 75.932 72.542 C 76.444 72.226, 77.569 72.974, 78.432 74.206 C 79.294 75.437, 80 75.921, 80 75.282 C 80 74.642, 79.492 73.804, 78.872 73.421 C 76.941 72.227, 80.803 70.798, 84.038 71.508 C 86.714 72.096, 88.371 75, 86.031 75 C 85.499 75, 85.301 75.620, 85.591 76.377 C 85.882 77.135, 85.195 79.272, 84.064 81.127 C 82.933 82.982, 82.006 85.651, 82.004 87.059 C 82.002 88.466, 81.339 90.491, 80.532 91.559 C 78.642 94.057, 78.634 95, 80.500 95 C 81.444 95, 82 95.952, 82 97.566 C 82 98.977, 82.484 101.036, 83.075 102.141 C 83.969 103.810, 83.569 104.897, 80.712 108.564 C 75.817 114.846, 76.497 116.986, 84.665 121.007 C 90.763 124.008, 91.113 124.369, 90.815 127.330 C 90.477 130.697, 92.213 131.823, 94.992 130.040 C 96.180 129.278, 96.230 128.830, 95.242 127.842 C 93.511 126.111, 93.692 123.332, 95.582 122.607 C 98.781 121.379, 99.266 121.935, 98.604 126.073 C 97.994 129.891, 98.095 130.125, 100.227 129.823 C 102.235 129.538, 102.462 129.020, 102.176 125.377 C 101.893 121.768, 102.143 121.180, 104.176 120.664 C 108.865 119.474, 109.257 117, 106.623 105.240 C 102.905 88.645, 102.756 87.553, 104.395 88.913 C 105.470 89.805, 106.154 89.703, 107.394 88.463 C 109.213 86.644, 109.485 84.418, 108 83.500 C 107.447 83.158, 106.982 83.914, 106.960 85.191 C 106.922 87.387, 106.845 87.362, 105.386 84.670 C 104.543 83.114, 103.718 79.834, 103.554 77.382 C 103.390 74.929, 102.974 72.640, 102.628 72.295 C 101.277 70.944, 102.104 69.794, 104.059 70.305 C 105.332 70.638, 107.910 69.738, 110.809 67.949 C 113.525 66.273, 117.227 64.938, 119.601 64.777 C 123.252 64.530, 123.582 64.304, 122.601 62.719 C 121.518 60.968, 122.262 59.919, 125.500 58.636 C 128.421 57.478, 115.473 50, 110.547 50 C 108.268 50, 106.472 49.050, 104.076 46.578 C 102.252 44.696, 99.762 42.906, 98.542 42.600 C 97.323 42.294, 95.906 41.105, 95.394 39.957 C 94.882 38.809, 94.134 38.200, 93.731 38.602" stroke="none" fill="black" fill-rule="evenodd"/>
</svg>