<svg xmlns="http://www.w3.org/2000/svg" width="192" height="144" viewBox="0 0 192 144" version="1.1">
	<path d="M 0 57 L 0 114 3.250 113.958 C 8.064 113.895, 17.319 111.542, 17.742 110.273 C 17.945 109.666, 17.153 108.866, 15.983 108.495 C 14.513 108.028, 14.054 107.306, 14.497 106.160 C 15.262 104.179, 17 95.296, 17 93.364 C 17 92.614, 16.320 92, 15.488 92 C 14.284 92, 14.107 91.185, 14.616 88 C 15.146 84.684, 14.972 84, 13.596 84 C 11.272 84, 10.476 81.258, 12.207 79.213 C 15.640 75.156, 17.595 70.221, 17.799 65.094 C 18.049 58.793, 19.201 57, 23 57 C 27.051 57, 28.124 59.043, 28.491 67.453 C 28.761 73.632, 29.324 75.803, 31.581 79.370 C 35.069 84.883, 35.597 85.194, 50.305 90.410 C 66.819 96.266, 68.792 96.650, 70.539 94.345 C 71.869 92.589, 71.938 92.609, 71.968 94.750 C 71.986 95.987, 72.413 97, 72.918 97 C 73.423 97, 74.548 97.273, 75.418 97.607 C 78.210 98.678, 77.162 95.659, 72.988 90.608 C 68.189 84.800, 67.492 82.468, 68.527 75.666 C 68.960 72.825, 69.421 68.700, 69.551 66.500 C 69.682 64.300, 69.837 61.711, 69.895 60.747 C 70.023 58.607, 81.902 46.483, 84.759 45.576 C 87.004 44.864, 88.421 42.378, 87.061 41.538 C 86.593 41.248, 85.928 41.745, 85.584 42.642 C 85.009 44.141, 84.809 44.137, 83.103 42.593 C 81.432 41.081, 81.187 41.071, 80.642 42.492 C 80.097 43.912, 79.774 43.898, 77.415 42.353 C 74.949 40.736, 74.818 40.250, 75.186 34.068 C 75.438 29.824, 76.477 25.554, 78.120 22 C 82.917 11.627, 93.589 7.363, 101.014 12.852 C 102.764 14.146, 104.541 14.821, 104.964 14.352 C 105.387 13.884, 107.406 10.462, 109.452 6.750 L 113.172 -0 56.586 -0 L 0 0 0 57 M 115.588 3.750 C 115.962 5.813, 116.882 8.715, 117.634 10.200 C 119.547 13.982, 119.360 14.872, 116.500 15.589 C 114.627 16.059, 113.997 16.879, 113.989 18.858 C 113.969 23.552, 112.769 28.975, 111.872 28.421 C 111.393 28.125, 111 28.329, 111 28.876 C 111 29.423, 110.478 31.137, 109.840 32.685 C 109.201 34.233, 108.779 36.099, 108.902 36.830 C 109.261 38.974, 105.916 43.482, 105.030 42.048 C 104.470 41.143, 104.131 41.217, 103.700 42.339 C 103.350 43.251, 102.355 43.644, 101.174 43.335 C 100.102 43.055, 98.932 43.302, 98.572 43.884 C 98.204 44.479, 99.013 45.216, 100.423 45.570 C 101.801 45.916, 103.214 47.167, 103.563 48.349 C 103.912 49.532, 106.403 52.567, 109.099 55.094 C 113.364 59.092, 114 60.200, 114 63.638 L 114 67.588 122.310 70.294 C 126.880 71.782, 131.499 73, 132.574 73 C 133.650 73, 136.285 73.941, 138.431 75.091 L 142.332 77.182 146.416 74.909 C 148.662 73.659, 151.625 71.882, 153 70.960 C 174.519 56.533, 175.684 55.899, 178.407 57.140 C 179.859 57.801, 181.234 59.278, 181.461 60.421 C 182.315 64.718, 182.856 77, 182.192 76.999 C 181.192 76.998, 176 67.491, 176 65.662 C 176 61.695, 173.442 62.831, 153.162 75.806 C 146.589 80.011, 145.643 81.023, 144.096 85.499 C 142.198 90.994, 139.568 92.477, 137.250 89.359 C 135.986 87.658, 135.926 87.734, 136.542 90.250 C 137.317 93.408, 135.707 93.950, 132.954 91.459 C 131.408 90.060, 130.987 90.140, 128.376 92.328 C 126.794 93.653, 122.271 96.360, 118.324 98.344 C 114.378 100.327, 110.887 102.374, 110.567 102.891 C 109.499 104.619, 111.822 108.732, 114.176 109.280 C 124.373 111.654, 160.383 121.050, 160.770 121.437 C 161.039 121.705, 160.076 122.464, 158.630 123.123 C 155.414 124.588, 147.778 123.394, 128.121 118.355 C 120.762 116.469, 114.560 115.106, 114.339 115.328 C 114.117 115.549, 116.491 120.156, 119.613 125.564 C 123.283 131.921, 125.462 136.922, 125.777 139.712 L 126.263 144.027 159.382 143.763 L 192.500 143.500 192.807 133 C 193.205 119.352, 192.424 113.924, 189.968 113.281 C 188.937 113.012, 187.332 111.629, 186.401 110.208 L 184.709 107.626 187.489 109.813 C 189.018 111.016, 190.659 112, 191.135 112 C 191.611 112, 192 86.847, 192 56 L 192 0 153.455 -0 L 114.909 -0 115.588 3.750 M 47.500 6 C 47.840 6.550, 48.316 7, 48.559 7 C 48.802 7, 49 6.550, 49 6 C 49 5.450, 48.523 5, 47.941 5 C 47.359 5, 47.160 5.450, 47.500 6 M 136.500 55 C 136.160 55.550, 136.359 56, 136.941 56 C 137.523 56, 138 55.550, 138 55 C 138 54.450, 137.802 54, 137.559 54 C 137.316 54, 136.840 54.450, 136.500 55 M 78.025 75.940 C 77.355 77.556, 77.156 79.444, 77.583 80.134 C 78.103 80.976, 78.769 80.254, 79.603 77.945 C 81.154 73.654, 81.222 73, 80.121 73 C 79.638 73, 78.695 74.323, 78.025 75.940 M 104 74.557 C 104 75.414, 104.507 78.128, 105.127 80.589 C 106.090 84.414, 106.010 85.331, 104.578 86.914 C 103.450 88.161, 103.114 89.606, 103.550 91.341 C 104.875 96.623, 106.231 96.544, 116.669 90.581 C 122.042 87.511, 126.789 85, 127.219 85 C 127.648 85, 128 83.905, 128 82.567 C 128 79.852, 127.686 79.715, 117.500 77.994 C 113.650 77.343, 109.281 75.953, 107.790 74.905 C 104.505 72.595, 104 72.549, 104 74.557 M 30.152 85.906 C 29.141 86.531, 28.945 88.757, 29.342 95.115 C 29.630 99.727, 30.190 104.579, 30.588 105.897 C 31.251 108.099, 31.093 108.240, 28.655 107.628 C 27.195 107.262, 26 107.384, 26 107.899 C 26 109.999, 27.301 112, 28.666 112 C 29.465 112, 29.878 112.389, 29.584 112.864 C 29.291 113.339, 22.739 115.021, 15.025 116.601 L 1 119.475 1 131.737 L 1 144 6.022 144 C 12.817 144, 24.539 138.848, 23.559 136.293 C 23.193 135.340, 23.214 134.881, 23.605 135.272 C 23.996 135.663, 24.985 135.428, 25.802 134.749 C 27.059 133.706, 27.184 133.846, 26.610 135.652 L 25.932 137.788 30.716 135.657 C 33.347 134.485, 43.573 129.470, 53.441 124.513 L 71.382 115.500 72.672 110.500 C 73.381 107.750, 73.970 104.970, 73.981 104.323 C 74.011 102.452, 70.676 102.204, 68.645 103.926 C 66.907 105.400, 66.812 105.342, 67.145 103.010 C 67.463 100.776, 66.933 100.340, 62 98.783 C 46.056 93.750, 32.714 88.402, 32.124 86.806 C 31.706 85.675, 31.027 85.365, 30.152 85.906 M 22.200 108.200 C 20.801 109.599, 20.601 112, 21.883 112 C 22.369 112, 22.982 110.875, 23.245 109.500 C 23.796 106.615, 23.791 106.609, 22.200 108.200 M 65.454 126.851 C 63.829 127.829, 56.425 131.427, 49 134.847 C 41.575 138.267, 34.150 141.696, 32.500 142.468 C 29.790 143.736, 31.201 143.878, 47.063 143.936 L 64.625 144 66.952 134.973 C 68.232 130.008, 69.083 125.750, 68.843 125.510 C 68.604 125.270, 67.078 125.874, 65.454 126.851 M 19.667 130.667 C 18.125 132.208, 19.083 134.127, 21.240 133.820 C 24.071 133.416, 24.965 130, 22.240 130 C 21.191 130, 20.033 130.300, 19.667 130.667" stroke="none" fill="black" fill-rule="evenodd"/>
</svg>