<svg xmlns="http://www.w3.org/2000/svg" width="192" height="144" viewBox="0 0 192 144" version="1.1">
	<path d="M 64 72 L 64 144 127.853 144 L 191.706 144 192.233 106.274 C 192.523 85.525, 192.523 53.125, 192.232 34.274 L 191.703 0 127.852 0 L 64 0 64 72 M 136.750 16.392 C 134.429 18.154, 134.579 19.714, 137.526 24.500 C 138.881 26.700, 139.992 29.423, 139.995 30.550 C 139.998 31.678, 140.517 33.117, 141.149 33.749 C 142.014 34.614, 141.890 35.519, 140.649 37.413 C 139.742 38.797, 139 41.205, 139 42.763 C 139 44.713, 137.741 46.908, 134.963 49.799 C 132.742 52.109, 130.482 54, 129.939 54 C 129.090 54, 118.239 50.042, 99.565 42.919 C 96.850 41.884, 94.434 41.233, 94.195 41.472 C 93.141 42.526, 95.191 46.926, 97.003 47.501 C 98.103 47.850, 99.467 49.005, 100.036 50.068 C 100.692 51.293, 102.128 52, 103.958 52 C 107.618 52, 112.794 56.283, 114.779 60.953 C 116.565 65.157, 117.668 63.354, 116.086 58.817 C 115.484 57.089, 115.175 55.491, 115.401 55.266 C 115.626 55.041, 119.274 55.948, 123.507 57.283 C 129.986 59.326, 131.437 60.191, 132.678 62.755 C 133.779 65.028, 135.213 66.077, 138.327 66.889 C 144.055 68.382, 145.095 69.230, 145.874 73.040 C 146.405 75.633, 147.116 76.414, 149.199 76.693 C 151.064 76.943, 152.017 76.522, 152.414 75.272 C 152.724 74.296, 154.641 72.976, 156.675 72.339 C 159.998 71.299, 160.682 71.418, 163.437 73.520 C 165.123 74.806, 168.682 76.792, 171.345 77.934 C 174.009 79.075, 177.764 81.308, 179.690 82.896 C 182.888 85.532, 183.414 85.666, 185.765 84.447 C 187.552 83.520, 188.899 83.411, 190.170 84.091 C 191.843 84.987, 192 84.585, 192 79.401 C 192 69.916, 190.486 66.555, 185.125 64.146 C 182.581 63.003, 177.350 61.772, 173.500 61.410 C 167.032 60.803, 166.177 60.440, 162.258 56.627 C 159.335 53.784, 158.013 51.657, 158.008 49.789 C 158.003 48.298, 157.163 46.273, 156.141 45.289 C 155.118 44.305, 153.997 42.150, 153.648 40.500 C 153.017 37.513, 153.021 37.510, 154.629 39.750 C 158.162 44.673, 159.087 41.626, 156 35.236 C 153.716 30.509, 153.619 30, 154.997 30 C 155.546 30, 156.634 31.462, 157.416 33.250 L 158.837 36.500 158.918 33.218 C 159.029 28.771, 156.687 23.496, 153.746 21.569 C 152.178 20.542, 149.593 20.074, 146.412 20.241 C 141.597 20.495, 141.506 20.446, 141.788 17.750 C 142.112 14.653, 139.846 14.042, 136.750 16.392 M 141.139 51.033 C 138.484 53.245, 138.730 53.433, 142.435 52.025 C 143.846 51.488, 145 50.588, 145 50.025 C 145 48.509, 143.790 48.825, 141.139 51.033 M 1 70.531 C 1 89.341, 0.947 89.229, 8.904 87.107 C 16.781 85.007, 22.013 78.483, 21.984 70.800 C 21.949 61.819, 14.205 54.051, 5.250 54.016 L 1 54 1 70.531" stroke="none" fill="black" fill-rule="evenodd"/>
</svg>