<svg xmlns="http://www.w3.org/2000/svg" width="192" height="144" viewBox="0 0 192 144" version="1.1">
	<path d="M 0 58.853 L 0 117.707 7.621 118.351 C 11.813 118.705, 18 119.439, 21.371 119.982 C 27.716 121.004, 56.971 123.570, 74.547 124.646 L 84.595 125.261 88.673 120.381 C 90.916 117.696, 94.806 112.020, 97.317 107.767 C 101.252 101.102, 101.662 99.910, 100.289 99.142 C 98.881 98.354, 97.765 91.452, 97.071 79.250 C 97.030 78.536, 95.680 78, 93.923 78 C 90.337 78, 85 73.305, 85 70.150 C 85 67.867, 91.591 62, 94.155 62 C 96.640 62, 99.995 66.787, 100.032 70.385 C 100.070 74.100, 102.345 77.465, 104.310 76.711 C 106.035 76.049, 107.210 70.687, 106.367 67.326 C 105.874 65.364, 105.281 64.964, 103.517 65.406 C 101.854 65.824, 100.517 65.116, 98.235 62.608 C 96.555 60.762, 95.252 58.455, 95.340 57.481 C 95.446 56.313, 94.738 55.646, 93.265 55.523 C 92.035 55.420, 90.235 54.658, 89.265 53.828 C 88.294 52.999, 84.463 50.821, 80.750 48.989 C 77.037 47.157, 74 45.310, 74 44.884 C 74 44.458, 72.801 43.522, 71.335 42.805 C 68.724 41.527, 67.661 39.048, 68.634 36.511 C 68.993 35.576, 70.101 35.466, 72.811 36.095 C 74.840 36.567, 77.366 36.963, 78.424 36.976 C 80.288 36.999, 80.285 36.929, 78.309 34.750 C 76.103 32.318, 74.700 26.945, 75.634 24.511 C 76.448 22.389, 77.671 22.632, 78.300 25.040 C 78.726 26.670, 79.354 26.949, 81.423 26.430 C 84.938 25.548, 91 26.789, 91 28.390 C 91 29.105, 90.100 30.505, 89 31.500 C 85.557 34.616, 86.424 36.111, 91.250 35.379 C 94.662 34.862, 96.328 33.804, 99.702 30.011 C 104.825 24.252, 110.011 22.486, 119.554 23.252 C 124.184 23.624, 127.036 24.459, 129.412 26.138 C 131.250 27.437, 136.522 31.200, 141.127 34.500 L 149.500 40.500 145.727 40.812 C 143.230 41.018, 140.122 40.257, 136.539 38.562 C 133.561 37.153, 129.971 36, 128.562 36 C 126.171 36, 126 36.318, 126 40.769 L 126 45.539 134.513 47.888 C 143.995 50.504, 151.495 55.106, 150.710 57.826 C 150.444 58.747, 149.923 60.236, 149.551 61.135 C 149.007 62.449, 149.870 63.009, 153.935 63.984 C 156.718 64.652, 158.745 65.604, 158.439 66.099 C 158.132 66.595, 158.625 67, 159.533 67 C 160.441 67, 162.329 67.900, 163.727 69 C 165.574 70.452, 165.829 71, 164.660 71 C 163.364 71, 163.231 71.479, 163.982 73.452 C 164.772 75.530, 164.653 75.821, 163.207 75.359 C 162.146 75.020, 162.446 75.597, 164 76.885 C 166.858 79.252, 166.710 79.351, 162.224 78.064 C 160.198 77.483, 159.181 77.483, 159.540 78.064 C 159.870 78.599, 157.923 79, 155 79 C 151.378 79, 150.091 79.338, 150.597 80.158 C 151.088 80.951, 150.634 81.138, 149.156 80.751 C 146.574 80.076, 146.457 80.779, 148.634 83.888 C 150.091 85.968, 150.793 86.152, 155.084 85.583 C 159.304 85.023, 160.038 85.203, 161.017 87.031 C 161.631 88.179, 162.021 92.129, 161.884 95.809 C 161.581 103.922, 161.748 104.044, 176.500 106.441 C 193.124 109.142, 191.841 108.583, 192.271 113.318 C 192.480 115.618, 192.729 91.063, 192.825 58.750 L 193 0 96.500 0 L 0 0 0 58.853 M 0.469 59.500 C 0.469 91.950, 0.595 105.080, 0.750 88.678 C 0.904 72.277, 0.904 45.727, 0.749 29.678 C 0.595 13.630, 0.469 27.050, 0.469 59.500 M 134.372 84.347 C 136.133 91.364, 140 96.898, 140 92.401 C 140 89.349, 143.109 84.105, 144.584 84.671 C 145.363 84.969, 146 84.768, 146 84.224 C 146 83.679, 145.099 82.998, 143.999 82.710 C 142.750 82.383, 142.242 82.583, 142.648 83.239 C 143.083 83.943, 142.339 84.047, 140.399 83.552 C 133.943 81.905, 133.765 81.928, 134.372 84.347 M 110.690 96.701 C 110.422 97.141, 109.666 99.500, 109.011 101.944 C 108.355 104.388, 105.849 108.947, 103.442 112.076 C 96.329 121.319, 95.316 124.933, 100.203 123.626 C 102.982 122.883, 114.547 113.548, 117.300 109.825 L 119.278 107.150 116.697 102.745 C 113.854 97.895, 111.443 95.469, 110.690 96.701 M 159.118 111.901 C 155.931 113.931, 167.619 118, 176.636 118 C 182.366 118, 180.367 116.501, 171.750 114.337 C 167.213 113.198, 162.825 111.985, 162 111.643 C 161.175 111.301, 159.878 111.417, 159.118 111.901 M 0 136.930 L 0 144 19.750 143.985 C 40.922 143.968, 40.692 144.068, 31 139.096 C 22.156 134.560, 18.377 133.601, 14.941 135.024 C 13.324 135.694, 12 136.638, 12 137.121 C 12 137.605, 10.166 138, 7.923 138 L 3.847 138 4.173 134.250 C 4.455 131.004, 4.197 130.457, 2.250 130.180 C 0.099 129.875, 0 130.171, 0 136.930 M 40.571 133.900 C 41.082 134.372, 43.140 135.282, 45.145 135.922 C 48.043 136.847, 48.685 137.488, 48.277 139.048 C 47.069 143.670, 48.717 144, 73.006 144 L 95.767 144 96.232 141.565 C 96.936 137.882, 95.556 136.584, 90.809 136.465 C 86.744 136.364, 60.141 134.623, 46.071 133.538 C 42.467 133.260, 40.050 133.419, 40.571 133.900" stroke="none" fill="black" fill-rule="evenodd"/>
</svg>