<svg xmlns="http://www.w3.org/2000/svg" width="192" height="144" viewBox="0 0 192 144" version="1.1">
	<path d="M 138 1.500 C 137.315 2.325, 135.229 3, 133.364 3 C 131.499 3, 129.131 3.526, 128.102 4.169 C 126.617 5.095, 125.473 4.978, 122.567 3.599 C 115.977 0.472, 99.307 2.010, 94.243 6.213 C 92.768 7.437, 92.817 14.275, 94.325 17.724 C 95.075 19.439, 94.691 21.297, 92.648 25.849 C 91.192 29.094, 90 33.169, 90 34.904 C 90 38.645, 95.643 50.339, 97.034 49.479 C 97.575 49.145, 98 50.227, 98 51.941 C 98 53.623, 97.578 55, 97.061 55 C 96.545 55, 95.830 57.138, 95.473 59.750 C 95.116 62.362, 94.461 65.920, 94.018 67.656 C 93.575 69.392, 93.573 71.192, 94.014 71.656 C 96.552 74.328, 96.922 100.215, 94.523 107.280 C 93.655 109.838, 93.170 112.958, 93.445 114.215 C 93.721 115.472, 94.176 118.840, 94.456 121.699 C 94.737 124.558, 95.027 127.258, 95.101 127.699 C 95.504 130.080, 94.326 131.414, 87.250 136.591 C 82.987 139.709, 79.073 142.652, 78.550 143.130 C 78.010 143.625, 92.079 144, 111.178 144 L 144.755 144 145.189 135.250 C 145.635 126.254, 147.339 120.939, 149.186 122.786 C 149.853 123.453, 149.619 124.652, 148.483 126.385 C 146.606 129.251, 147.088 132, 149.469 132 C 150.674 132, 151 133.279, 151 138 L 151 144 156.500 144 C 160.951 144, 162 143.684, 162 142.345 C 162 140.805, 162.127 140.805, 163.829 142.345 C 165.336 143.709, 167.976 144, 178.829 144 C 186.073 144, 192 143.750, 192 143.444 C 192 141.339, 183.730 127.974, 180.250 124.455 C 177.912 122.092, 175.997 119.560, 175.994 118.829 C 175.977 114.634, 173.690 109.891, 171.018 108.509 C 168.322 107.115, 168.088 107.149, 167.498 109.008 C 167.150 110.104, 166.474 111, 165.996 111 C 164.935 111, 155.770 94.817, 154.161 90.102 C 153.272 87.497, 153.280 86.368, 154.196 85.264 C 156.381 82.631, 159.033 73.619, 160.526 63.757 C 161.337 58.398, 162 53.785, 162 53.507 C 162 53.228, 163.520 53, 165.378 53 C 169.358 53, 171.450 50.923, 170.652 47.763 C 170.338 46.518, 168.038 42.695, 165.541 39.266 C 163.043 35.837, 161 32.779, 161 32.470 C 161 32.162, 162.575 32.205, 164.500 32.566 C 167.994 33.221, 168 33.216, 168.129 29.361 C 168.407 21.033, 167.769 15.183, 165.770 7.750 L 163.686 0 151.466 0 C 141.823 0, 138.982 0.316, 138 1.500 M 102.463 68.398 C 102.083 70.929, 101.374 73, 100.886 73 C 100.399 73, 100 73.675, 100 74.500 C 100 76.349, 100.224 76.351, 104.532 74.551 C 108.768 72.781, 109.178 69.455, 105.577 66.072 L 103.153 63.795 102.463 68.398" stroke="none" fill="black" fill-rule="evenodd"/>
</svg>