<svg xmlns="http://www.w3.org/2000/svg" width="192" height="144" viewBox="0 0 192 144" version="1.1">
	<path d="M 63.938 4.750 C 63.791 15.982, 60.444 30.557, 57.439 33.051 C 56.648 33.707, 56 34.830, 56 35.545 C 56 36.259, 52.962 39.943, 49.250 43.729 C 41.716 51.414, 31.619 56.993, 22 58.787 C 16.441 59.823, 2.840 59.637, 0.999 58.499 C 0.340 58.092, -0 72.528, -0 100.941 L 0 144 53.412 144 L 106.824 144 107.512 139.750 C 107.890 137.412, 109.915 130.100, 112.011 123.500 C 114.106 116.900, 116.322 108.350, 116.935 104.500 C 117.548 100.650, 118.313 96.150, 118.636 94.500 L 119.223 91.500 116.202 94.351 C 112.983 97.387, 111.594 100.631, 113.110 101.568 C 114.626 102.505, 113.052 104, 110.548 104 C 105.297 104, 107.057 97.996, 115.605 86.757 C 118.022 83.578, 120 80.716, 120 80.397 C 120 80.077, 119.100 78.671, 118 77.273 C 115.480 74.069, 115.480 70.221, 118 67 C 119.076 65.625, 119.966 63.712, 119.978 62.750 C 119.990 61.788, 120.900 60.100, 122 59 C 124.584 56.416, 124.522 55.612, 121.500 52.591 C 120.125 51.216, 119 49.279, 119 48.286 C 119 47.293, 118.100 45.919, 117 45.232 C 114.884 43.911, 114.327 39.612, 115.940 37.062 C 116.533 36.125, 116.354 34.916, 115.425 33.590 C 114.641 32.471, 114 30.698, 114 29.650 C 114 28.008, 114.519 27.827, 117.750 28.345 C 119.813 28.676, 124.538 29.900, 128.251 31.066 C 135.799 33.437, 138.399 35.929, 140.059 42.385 C 140.641 44.648, 141.602 47.850, 142.195 49.500 C 143.813 54.001, 145.987 81.547, 146.456 103.500 C 146.733 116.460, 146.747 116.527, 150.917 125.254 C 153.217 130.068, 155.636 136.266, 156.292 139.026 L 157.484 144.044 174.992 143.772 L 192.500 143.500 192.825 129 C 193.003 121.025, 192.837 88.737, 192.455 57.250 L 191.761 0 127.880 0 L 64 0 63.938 4.750 M 0.459 101 C 0.459 124.925, 0.589 134.713, 0.749 122.750 C 0.908 110.788, 0.908 91.213, 0.749 79.250 C 0.589 67.288, 0.459 77.075, 0.459 101" stroke="none" fill="black" fill-rule="evenodd"/>
</svg>