<svg xmlns="http://www.w3.org/2000/svg" width="192" height="144" viewBox="0 0 192 144" version="1.1">
	<path d="M 0 10.797 L 0 21.594 4.122 25.547 C 6.389 27.721, 9.714 31.750, 11.512 34.500 C 17.044 42.964, 18.752 44.060, 27.426 44.716 C 32.538 45.102, 36.406 44.856, 39.080 43.974 C 42.639 42.799, 43.270 42.845, 44.791 44.388 C 46.404 46.024, 46.394 46.201, 44.617 47.519 C 43.206 48.565, 42.883 49.667, 43.332 51.910 C 43.691 53.705, 43.347 56.025, 42.472 57.702 C 41.670 59.241, 40.500 63.098, 39.872 66.274 C 39.244 69.450, 38.341 72.289, 37.865 72.583 C 37.389 72.877, 36.990 74.104, 36.978 75.309 C 36.947 78.416, 33.266 86.221, 30.992 88 C 29.309 89.317, 29.198 90.048, 30.078 94 C 30.629 96.475, 31.624 98.950, 32.290 99.500 C 32.955 100.050, 33.545 101.895, 33.599 103.600 C 33.654 105.334, 35.137 108.793, 36.963 111.447 C 40.435 116.493, 39.676 116.517, 33.056 111.572 C 31.161 110.158, 29.249 109, 28.806 109 C 27.450 109, 27.944 112.281, 29.973 116.750 C 31.888 120.968, 31.389 122.378, 29 119.500 C 27.402 117.575, 25.615 117.554, 26.349 119.468 C 26.659 120.275, 26.482 121.202, 25.956 121.527 C 25.430 121.852, 25 124.357, 25 127.094 C 25 131.823, 24.897 132.015, 22.922 130.958 C 21.317 130.099, 20.088 130.205, 17.521 131.423 C 15.693 132.290, 13.451 133, 12.539 133 C 11.233 133, 10.945 133.799, 11.190 136.750 L 11.500 140.500 17.323 141.223 C 20.526 141.621, 24.801 142.406, 26.823 142.968 C 29.185 143.624, 59.380 143.991, 111.250 143.994 L 192 144 192.003 87.750 C 192.005 56.813, 192.301 24.413, 192.660 15.750 L 193.313 -0 96.657 -0 L 0 0 0 10.797 M 0.374 11.500 C 0.376 17.550, 0.541 19.896, 0.740 16.713 C 0.939 13.531, 0.937 8.581, 0.736 5.713 C 0.535 2.846, 0.372 5.450, 0.374 11.500 M 89.511 52.982 C 88.959 53.875, 97.667 62.943, 99.114 62.983 C 99.451 62.992, 99.727 61.183, 99.727 58.961 C 99.727 56, 99.170 54.532, 97.641 53.461 C 95.267 51.798, 90.419 51.513, 89.511 52.982 M 28.638 84.500 C 28.322 85.325, 28.499 86, 29.031 86 C 29.564 86, 30 85.325, 30 84.500 C 30 83.675, 29.823 83, 29.607 83 C 29.391 83, 28.955 83.675, 28.638 84.500 M 7 138.441 C 7 139.298, 7.450 140, 8 140 C 8.550 140, 9 139.577, 9 139.059 C 9 138.541, 8.550 137.840, 8 137.500 C 7.450 137.160, 7 137.584, 7 138.441" stroke="none" fill="black" fill-rule="evenodd"/>
</svg>