<svg xmlns="http://www.w3.org/2000/svg" width="192" height="144" viewBox="0 0 192 144" version="1.1">
	<path d="M -0 72.023 L -0 144.046 17.621 143.773 L 35.243 143.500 44.871 130.355 C 58.273 112.059, 62.598 106.414, 69.500 98.203 C 74.651 92.075, 75.924 91.089, 78.500 91.234 C 80.150 91.327, 82.650 90.830, 84.055 90.130 C 86.207 89.058, 86.779 87.802, 87.677 82.178 C 88.717 75.669, 88.657 75.303, 85.300 67.715 C 81.552 59.243, 81.489 54.879, 85.088 52.953 C 86.632 52.127, 87.511 52.420, 89.527 54.436 C 90.909 55.818, 92.318 58.338, 92.657 60.037 C 93.005 61.777, 93.653 62.747, 94.141 62.259 C 95.580 60.820, 97.125 45.250, 96.803 35.433 C 96.540 27.437, 96.759 25.926, 98.449 24.058 C 99.795 22.570, 101.330 21.995, 103.410 22.201 C 107.155 22.573, 107.859 24.946, 106.733 33.403 C 105.656 41.493, 105.380 48.370, 106.024 51.100 C 106.437 52.852, 107.650 51.119, 111.755 42.911 C 118.378 29.666, 120.777 27, 126.072 27 C 128.635 27, 130.262 27.519, 130.619 28.450 C 130.931 29.262, 128.349 34.205, 124.743 39.700 C 118.377 49.399, 113.339 59.673, 114.420 60.753 C 114.727 61.061, 117.738 58.301, 121.110 54.621 C 127.611 47.526, 134.786 42, 137.496 42 C 140.411 42, 142.845 43.883, 142.325 45.737 C 142.053 46.707, 138.607 50.043, 134.665 53.151 C 130.724 56.258, 126.695 60.182, 125.711 61.870 L 123.923 64.939 130.211 62.602 C 139.179 59.268, 143.204 58.696, 145.549 60.422 C 147.477 61.843, 147.476 61.883, 145.416 63.814 C 144.270 64.889, 141.795 66.101, 139.916 66.508 C 135.811 67.397, 125.809 72.306, 124.306 74.168 C 123.715 74.901, 122.898 77.075, 122.491 79 C 121.277 84.748, 116.495 93.219, 111.908 97.750 C 109.542 100.087, 107.244 102, 106.803 102 C 104.956 102, 106.286 104.429, 110.806 109.310 C 116.353 115.300, 121.169 121.468, 122.953 124.867 C 123.972 126.807, 123.935 127.493, 122.752 128.676 C 121.590 129.838, 121.519 130.905, 122.389 134.161 C 123.532 138.444, 123.247 138.928, 117.369 142.698 C 115.902 143.639, 123.773 143.854, 154 143.698 L 192.500 143.500 192.568 71.500 C 192.606 31.900, 192.470 1.862, 192.266 4.750 C 191.924 9.596, 191.702 10, 189.376 10 C 186.202 10, 184.628 8.432, 183.073 3.722 L 181.845 0 90.922 0 L 0 0 -0 72.023 M 0.474 72.500 C 0.474 112.100, 0.598 128.154, 0.750 108.176 C 0.901 88.198, 0.901 55.798, 0.750 36.176 C 0.598 16.554, 0.474 32.900, 0.474 72.500" stroke="none" fill="black" fill-rule="evenodd"/>
</svg>