<svg xmlns="http://www.w3.org/2000/svg" width="192" height="144" viewBox="0 0 192 144" version="1.1">
	<path d="M 109 14.693 C 108.175 14.987, 105.695 16.103, 103.488 17.172 C 98.928 19.382, 96.245 24.490, 95.777 31.854 C 95.519 35.912, 95.737 36.336, 99 38.115 C 100.925 39.164, 102.505 40.669, 102.512 41.458 C 102.532 43.789, 108.180 49, 110.687 49 C 111.959 49, 113 49.354, 113 49.788 C 113 50.221, 110.742 52.800, 107.982 55.518 C 105.205 58.253, 103.191 61.057, 103.474 61.794 C 103.756 62.527, 103.260 64.531, 102.372 66.247 C 101.206 68.502, 100.913 70.866, 101.315 74.767 C 101.810 79.564, 101.685 80.084, 100.186 79.442 C 99.259 79.044, 95.814 77.711, 92.530 76.481 C 87.359 74.543, 86.448 73.808, 85.716 70.984 C 85.165 68.859, 85.291 66.711, 86.078 64.812 C 87.040 62.488, 87.015 61.397, 85.953 59.412 C 84.832 57.318, 84.137 57.025, 81.561 57.563 C 79.877 57.914, 77.974 58.718, 77.331 59.350 C 76.007 60.653, 73.605 77.430, 73.874 83.500 C 73.971 85.700, 74.709 88.907, 75.514 90.627 C 76.838 93.456, 76.788 94.304, 74.988 99.533 C 72.364 107.162, 72.355 111, 74.961 111 C 76.040 111, 78.705 112.800, 80.883 115 C 85.053 119.212, 87.708 120.269, 86.533 117.250 C 85.238 113.924, 85.515 113.499, 89.174 113.194 C 95.143 112.697, 95.534 111.468, 93.557 99.420 C 91.353 85.993, 91.648 85.128, 97.229 88.623 C 99.578 90.095, 101.831 91.794, 102.235 92.399 C 103.480 94.265, 103.085 99.708, 101.081 108.286 C 100.026 112.804, 98.654 119.597, 98.032 123.383 C 97.410 127.169, 95.861 133.356, 94.589 137.133 L 92.276 144 120.734 144 L 149.191 144 146.200 138.700 C 144.555 135.785, 140.862 127.632, 137.995 120.583 C 135.127 113.533, 131.079 105.006, 128.998 101.633 C 124.049 93.607, 122.523 87.275, 123.451 78.611 C 124.154 72.049, 125.777 68.908, 129.023 67.826 C 130.043 67.486, 130.056 66.400, 129.086 62.358 C 128.421 59.585, 127.256 56.119, 126.497 54.658 C 125.734 53.186, 125.557 52, 126.101 52 C 127.792 52, 130.657 48.634, 131.767 45.343 C 132.895 41.996, 132.565 39.968, 129.122 29.104 C 125.635 18.102, 116.927 11.865, 109 14.693" stroke="none" fill="black" fill-rule="evenodd"/>
</svg>