<svg xmlns="http://www.w3.org/2000/svg" width="192" height="144" viewBox="0 0 192 144" version="1.1">
	<path d="M 34 3.402 C 34 6.464, 35.094 7.789, 44.937 16.652 C 50.953 22.068, 56.199 27.603, 56.596 28.950 C 57.330 31.444, 55.803 40.658, 53.605 46.998 C 52.937 48.924, 50.270 53.713, 47.678 57.639 C 42.342 65.723, 42.355 66.041, 48.367 74.336 C 50.532 77.323, 51.640 79.807, 51.267 80.836 C 50.609 82.645, 44.133 90.502, 34.267 101.461 C 30.820 105.289, 28 109.276, 28 110.321 C 28 111.410, 33.703 118.057, 41.365 125.898 C 48.716 133.421, 55.047 140.572, 55.433 141.788 L 56.135 144 96.844 144 L 137.553 144 144.905 129.192 C 150.702 117.514, 152.096 113.867, 151.498 111.942 C 151.081 110.599, 148.323 106.056, 145.370 101.848 C 142.416 97.639, 140 93.518, 140 92.690 C 140 91.862, 141.575 88.268, 143.500 84.704 C 146.194 79.716, 146.984 77.104, 146.930 73.362 C 146.838 67.003, 146.512 66.342, 139.772 58.859 C 133.195 51.557, 126.316 43.027, 122.665 37.648 L 120.143 33.931 122.497 27.216 C 127.480 13.006, 130.703 4.414, 131.864 2.250 L 133.070 0 83.535 0 L 34 0 34 3.402" stroke="none" fill="black" fill-rule="evenodd"/>
</svg>