<svg xmlns="http://www.w3.org/2000/svg" width="192" height="144" viewBox="0 0 192 144" version="1.1">
	<path d="M 0 57 L 0 114 3.956 114 L 7.912 114 8.206 106.827 C 8.485 100.019, 8.652 99.571, 11.500 98.003 C 13.575 96.861, 14.604 95.449, 14.837 93.426 C 15.022 91.817, 15.809 90.140, 16.587 89.700 C 17.364 89.260, 18 88.023, 18 86.950 C 18 85.878, 18.450 85, 19 85 C 19.550 85, 20 86.088, 20 87.417 C 20 88.746, 20.563 90.023, 21.250 90.254 C 21.938 90.486, 22.500 91.975, 22.500 93.565 C 22.500 95.718, 23.190 96.787, 25.211 97.763 C 27.139 98.694, 28.119 100.115, 28.600 102.679 L 29.276 106.285 31.151 103.893 C 33.009 101.520, 33.038 101.517, 34.556 103.500 C 35.398 104.600, 36.330 106.625, 36.627 108 C 36.924 109.375, 37.315 110.995, 37.495 111.601 C 37.699 112.288, 42.584 112.907, 50.488 113.248 C 61.877 113.740, 63.397 114.025, 65.577 116.072 L 68 118.349 68.140 115.924 C 68.217 114.591, 68.182 111.857, 68.063 109.848 C 67.843 106.117, 70.289 100, 72.003 100 C 72.526 100, 73.666 101.087, 74.537 102.416 C 75.875 104.458, 76.072 107.873, 75.810 124.418 L 75.500 144.002 133.590 144.001 L 191.681 144 192.338 120.750 C 192.700 107.963, 192.996 75.563, 192.998 48.750 L 193 0 96.500 0 L 0 0 0 57 M 0.468 57.500 C 0.468 88.850, 0.595 101.530, 0.750 85.679 C 0.904 69.827, 0.904 44.177, 0.749 28.679 C 0.594 13.180, 0.468 26.150, 0.468 57.500 M 123.250 38.015 C 121.463 39.641, 120 41.476, 120 42.093 C 120 42.709, 119.348 42.964, 118.551 42.658 C 117.614 42.299, 117.286 42.582, 117.623 43.461 C 117.926 44.249, 117.275 45.095, 116.072 45.477 C 113.106 46.418, 113.460 48.352, 116.460 47.599 C 119.797 46.762, 120.853 49.017, 120.679 56.606 C 120.572 61.258, 120.962 63.104, 122.342 64.485 C 123.603 65.746, 123.951 67.070, 123.501 68.894 C 122.661 72.296, 118.155 76.997, 116.385 76.318 C 115.623 76.025, 114.355 76.033, 113.567 76.336 C 112.400 76.784, 112.354 77.360, 113.317 79.443 C 113.968 80.850, 115.030 81.802, 115.677 81.560 C 116.324 81.317, 117.369 81.740, 118 82.499 C 118.630 83.259, 120.107 84.019, 121.282 84.190 C 122.582 84.379, 123.640 85.449, 123.987 86.926 C 124.696 89.952, 126.805 90.778, 127.581 88.333 C 129.433 82.498, 129.933 81.894, 131.996 82.998 C 133.280 83.685, 134 85.092, 134 86.913 C 134 90.788, 136.251 92.607, 138.394 90.463 C 139.277 89.580, 140 88.439, 140 87.929 C 140 86.340, 141.600 86.900, 144.354 89.452 C 146.862 91.777, 147 91.799, 147 89.889 C 147 88.569, 147.603 87.936, 148.750 88.052 C 152.488 88.433, 153.890 87.923, 154.513 85.958 C 155.007 84.403, 155.676 84.080, 157.323 84.602 C 159.076 85.159, 159.276 85.025, 158.383 83.894 C 157.777 83.127, 157.004 81.037, 156.666 79.250 C 156.165 76.608, 156.373 75.994, 157.775 75.968 C 159.314 75.940, 159.291 75.778, 157.559 74.468 C 156.160 73.410, 156.020 72.992, 157.059 72.970 C 158.024 72.949, 157.850 72.562, 156.534 71.799 C 155.453 71.172, 153.520 69.611, 152.238 68.329 C 150.369 66.460, 148.833 66, 144.455 66 C 139.403 66, 137.596 64.986, 140 63.500 C 140.550 63.160, 141 61.777, 141 60.428 C 141 57.995, 140.968 57.987, 137.378 59.487 C 135.386 60.319, 133.586 61, 133.378 61 C 132.642 61, 133.012 57, 133.750 56.968 C 134.162 56.951, 135.297 56.331, 136.272 55.592 C 137.700 54.509, 137.850 53.737, 137.047 51.624 C 136.275 49.593, 136.356 49, 137.402 49 C 138.146 49, 139.305 48.337, 139.977 47.528 C 141.010 46.283, 140.560 45.953, 137.063 45.394 C 132.997 44.744, 130.228 42.059, 131.500 40 C 132.429 38.497, 130.116 34.997, 128.215 35.029 C 127.272 35.045, 125.037 36.389, 123.250 38.015" stroke="none" fill="black" fill-rule="evenodd"/>
</svg>