<svg xmlns="http://www.w3.org/2000/svg" width="192" height="144" viewBox="0 0 192 144" version="1.1">
	<path d="M 0 71.997 L 0 143.994 96.250 143.747 L 192.500 143.500 192.757 71.750 L 193.013 0 96.507 0 L 0 0 0 71.997 M 0.474 72.500 C 0.474 112.100, 0.598 128.154, 0.750 108.176 C 0.901 88.198, 0.901 55.798, 0.750 36.176 C 0.598 16.554, 0.474 32.900, 0.474 72.500 M 50.393 28.131 C 49.353 29.488, 45.718 38.578, 45.446 40.500 C 45.368 41.050, 45.186 41.950, 45.042 42.500 C 44.897 43.050, 44.849 44.625, 44.934 46 C 45.058 47.999, 44.883 48.199, 44.060 47 C 43.431 46.084, 43.025 45.964, 43.015 46.691 C 43.007 47.346, 43.408 48.134, 43.906 48.442 C 44.404 48.750, 44.569 49.933, 44.271 51.071 C 43.742 53.096, 43.812 53.106, 47.615 51.538 C 49.752 50.657, 53.594 48.647, 56.153 47.070 C 60.674 44.285, 69.628 41.652, 71.224 42.638 C 71.659 42.907, 72.291 42.406, 72.629 41.526 C 73.589 39.024, 70.180 31.348, 67.259 29.434 C 63.753 27.137, 51.859 26.218, 50.393 28.131 M 159.047 116.088 C 160.905 119.559, 167.127 125.991, 171.610 129.076 C 175.780 131.945, 186.811 135.538, 187.926 134.391 C 188.971 133.316, 180.670 126.962, 174.031 123.756 C 170.439 122.021, 165.811 119.116, 163.747 117.301 C 159.398 113.476, 157.369 112.952, 159.047 116.088" stroke="none" fill="black" fill-rule="evenodd"/>
</svg>