<svg xmlns="http://www.w3.org/2000/svg" width="192" height="144" viewBox="0 0 192 144" version="1.1">
	<path d="M 87.643 16.028 C 81.636 17.828, 77.062 25.028, 77.022 32.744 C 77.002 36.560, 76.582 37.290, 72.850 39.994 C 70.567 41.647, 68.044 43, 67.242 43 C 66.158 43, 65.957 43.691, 66.458 45.688 C 67.146 48.429, 68.378 49.706, 73.250 52.726 C 74.763 53.664, 76 54.784, 76 55.216 C 76 55.647, 76.627 56, 77.393 56 C 79.721 56, 80.002 58.727, 77.944 61.344 C 75.607 64.315, 75.524 65, 77.500 65 C 78.325 65, 79 65.825, 79 66.833 C 79 69.399, 80.070 70.186, 81.709 68.827 C 82.814 67.909, 83.217 68.115, 83.664 69.824 C 83.974 71.009, 84.646 71.719, 85.157 71.403 C 85.669 71.086, 86.743 71.372, 87.544 72.036 C 88.693 72.990, 89 72.968, 89 71.931 C 89 70.643, 91.901 73.788, 91.968 75.149 C 91.986 75.505, 88.737 76.117, 84.750 76.507 C 77.525 77.215, 77.481 77.237, 72 83.013 C 67.270 87.998, 66.046 88.775, 63.257 88.566 C 59.344 88.272, 57.436 86.636, 51.374 78.380 C 48.819 74.900, 45.665 71.355, 44.364 70.503 C 42.932 69.564, 42 67.978, 42 66.477 C 42 65.115, 41.697 64, 41.327 64 C 40.957 64, 37.503 67.421, 33.650 71.602 C 29.798 75.782, 23.013 81.745, 18.573 84.852 L 10.500 90.500 14.132 90.803 C 16.535 91.004, 19.136 92.280, 21.816 94.574 L 25.867 98.042 28.605 94.451 L 31.343 90.861 32.549 93.681 L 33.755 96.500 34.903 93.618 C 36.038 90.768, 36.074 90.757, 38.163 92.618 C 39.325 93.653, 40.890 95.951, 41.641 97.724 C 42.874 100.639, 43.251 100.855, 45.568 99.974 C 49.847 98.347, 51.166 98.815, 55.734 103.583 C 58.149 106.104, 60.704 107.944, 61.412 107.672 C 62.410 107.289, 62.518 108.113, 61.893 111.339 C 60.499 118.538, 60.833 123.539, 62.829 125.345 C 64.960 127.274, 70.067 127.533, 71.800 125.800 C 72.733 124.867, 72.999 125.144, 72.994 127.050 C 72.985 131.028, 71.144 136.508, 68.516 140.382 L 66.060 144 90.065 144 C 113.531 144, 114.047 143.956, 113.030 142.056 C 112.457 140.986, 111.542 139.835, 110.995 139.497 C 108.717 138.089, 109.997 134.362, 113.250 132.930 C 116.277 131.598, 116.591 130.989, 117.828 124.043 C 118.830 118.414, 119.775 116.011, 121.682 114.244 C 123.283 112.760, 124.025 111.205, 123.710 109.997 C 123.374 108.713, 124.042 107.547, 125.760 106.422 C 128.175 104.840, 128.542 104.865, 132.741 106.905 C 135.179 108.089, 140.112 111.070, 143.703 113.529 C 147.294 115.988, 150.518 117.997, 150.866 117.993 C 151.215 117.990, 152.850 117.093, 154.500 116 C 158.666 113.241, 161.542 113.498, 167.207 117.133 L 172.089 120.265 174.601 117.905 C 176.625 116.003, 178.219 115.541, 182.807 115.523 C 187.958 115.502, 188.530 115.714, 188.820 117.750 C 189.190 120.360, 190.516 120.705, 191.393 118.418 C 192.474 115.601, 192.087 80, 190.975 80 C 190.412 80, 189.560 81.028, 189.082 82.284 C 188.445 83.959, 186.809 84.927, 182.940 85.919 C 180.039 86.662, 174.260 89.043, 170.098 91.209 C 165.937 93.375, 160.246 95.743, 157.452 96.471 C 152.323 97.806, 150.415 97.728, 141.702 95.825 C 137.618 94.933, 136.623 95.031, 135.023 96.479 C 131.775 99.418, 129.274 97.636, 127.994 91.472 C 126.708 85.275, 124.133 82.651, 117.619 80.899 C 111.916 79.364, 107.800 77.100, 108.251 75.746 C 108.801 74.098, 113.811 72.934, 114.282 74.346 C 114.492 74.976, 116.037 73.988, 117.715 72.151 C 119.516 70.179, 121.031 69.242, 121.415 69.862 C 122.409 71.471, 125.205 69.977, 124.524 68.201 C 124.198 67.353, 124.481 66.321, 125.152 65.906 C 126.105 65.317, 126.093 64.817, 125.097 63.617 C 123.672 61.900, 124.338 57.267, 126.665 52.714 C 127.956 50.187, 127.899 49.687, 126.044 47.329 C 124.920 45.900, 124 44.351, 124 43.887 C 124 43.423, 127.092 44.158, 130.871 45.521 C 134.650 46.885, 138.167 48, 138.686 48 C 140.204 48, 143.124 40.967, 142.467 38.895 C 141.959 37.297, 142.385 36.998, 145.183 36.985 C 147.007 36.976, 149.157 36.554, 149.960 36.046 C 151.229 35.243, 151.212 34.885, 149.831 33.311 C 147 30.085, 144.618 24.605, 144.046 20 C 143.515 15.731, 143.333 15.511, 140.493 15.712 C 138.847 15.828, 134.425 17.524, 130.667 19.480 L 123.833 23.036 120.167 20.174 C 118.150 18.600, 114.970 16.792, 113.101 16.156 C 109.213 14.834, 91.918 14.747, 87.643 16.028" stroke="none" fill="black" fill-rule="evenodd"/>
</svg>