<svg xmlns="http://www.w3.org/2000/svg" width="192" height="144" viewBox="0 0 192 144" version="1.1">
	<path d="M 77.635 32.073 C 76.186 33.212, 75 34.718, 75 35.419 C 75 36.120, 74.298 38.099, 73.441 39.818 C 72.001 42.705, 72.026 43.270, 73.778 47.222 C 75.947 52.113, 78.463 54.678, 79.480 53.032 C 79.842 52.447, 80.579 52.240, 81.118 52.573 C 81.703 52.934, 81.737 53.646, 81.204 54.339 C 80.712 54.978, 79.725 57.662, 79.010 60.305 C 78.033 63.914, 77.994 65.394, 78.855 66.255 C 80.294 67.694, 80.353 72.664, 78.941 73.536 C 77.766 74.263, 78.622 79.743, 80.220 81.729 C 80.926 82.606, 81.753 82.667, 83.105 81.944 C 85.142 80.853, 85.657 78.386, 83.965 77.822 C 83.328 77.609, 83.488 76.714, 84.384 75.490 C 85.183 74.397, 86.171 73.837, 86.579 74.246 C 86.988 74.654, 87.221 80.386, 87.098 86.982 C 86.904 97.335, 86.559 99.558, 84.573 103.237 C 82.655 106.790, 82.374 108.416, 82.886 113 L 83.500 118.500 89.500 118.210 C 96.632 117.866, 109.196 119.783, 110.235 121.374 C 110.639 121.993, 110.976 123.469, 110.985 124.654 C 110.997 126.374, 109.367 127.574, 102.885 130.615 C 98.422 132.710, 95.272 134.591, 95.885 134.795 C 96.498 134.999, 97 135.606, 97 136.142 C 97 136.679, 96.550 136.840, 96 136.500 C 95.450 136.160, 95 136.286, 95 136.780 C 95 138.178, 99.743 140, 103.380 140 C 108.041 140, 130.563 132.471, 130.225 131.026 C 130.074 130.380, 130.455 130.163, 131.071 130.544 C 132.839 131.637, 136.785 128.991, 137.473 126.251 C 137.817 124.880, 138.835 123.025, 139.735 122.129 C 141.248 120.623, 140.893 120.477, 135.027 120.198 C 131.537 120.032, 128.416 120.300, 128.091 120.794 C 127.535 121.638, 124.344 122.659, 119.292 123.609 C 117.431 123.959, 116.910 123.380, 115.983 119.937 C 114.376 113.968, 114.942 112.648, 119.511 111.718 C 121.705 111.272, 124.682 110.659, 126.127 110.358 C 128.187 109.928, 129.304 108.536, 131.295 103.922 L 133.835 98.035 129.998 95.879 C 127.887 94.692, 125.949 92.914, 125.691 91.927 C 125.399 90.808, 123.868 89.878, 121.629 89.458 C 115.872 88.378, 104.963 77.493, 105.016 72.882 C 105.025 72.122, 106.375 69.977, 108.016 68.114 C 109.657 66.252, 111 64.148, 111 63.439 C 111 61.967, 101.441 52, 100.030 52 C 98.604 52, 94 47.429, 94 46.013 C 94 45.006, 94.304 45.007, 95.524 46.020 C 97.753 47.870, 98.188 46.794, 97.125 42.060 C 96.003 37.068, 94.117 34.784, 88.849 32.038 C 83.889 29.453, 80.954 29.462, 77.635 32.073" stroke="none" fill="black" fill-rule="evenodd"/>
</svg>