<svg xmlns="http://www.w3.org/2000/svg" width="192" height="144" viewBox="0 0 192 144" version="1.1">
	<path d="M 0 72 L 0 144 40.475 144 L 80.950 144 80.391 141.204 C 80.083 139.666, 80.318 130.995, 80.912 121.935 C 81.632 110.971, 81.663 104.312, 81.006 102.022 C 80.356 99.754, 80.357 98.243, 81.010 97.590 C 81.663 96.937, 82 97.328, 82 98.741 C 82 99.919, 82.450 101.160, 83 101.500 C 84.215 102.251, 84.215 97.328, 83 94.500 C 82.265 92.790, 82.130 92.754, 82.070 94.250 C 81.924 97.903, 80 95.813, 80 92 C 80 89.800, 79.706 88, 79.346 88 C 78.986 88, 77.116 89.841, 75.190 92.091 C 71.220 96.729, 71.363 96.722, 57.608 92.957 C 52.959 91.684, 48.849 89.889, 47.608 88.588 C 46.225 87.140, 44.125 86.309, 41.500 86.173 C 39.300 86.058, 36.257 85.466, 34.737 84.856 C 31.179 83.427, 30.031 79.433, 32.629 77.519 C 33.658 76.760, 34.651 76.561, 34.835 77.076 C 35.020 77.591, 35.582 77.758, 36.085 77.447 C 36.588 77.136, 37 77.592, 37 78.460 C 37 79.641, 37.625 79.881, 39.482 79.415 C 40.848 79.072, 43.407 79.295, 45.169 79.909 C 47.043 80.562, 48.744 80.656, 49.264 80.136 C 50.362 79.038, 54.952 80.082, 61.333 82.881 C 63.991 84.046, 66.714 85, 67.384 85 C 68.907 85, 73 76.736, 73 73.660 C 73 72.403, 74.391 70.052, 76.092 68.437 C 77.792 66.822, 80.029 63.855, 81.064 61.845 C 82.098 59.834, 84.082 57.294, 85.472 56.201 C 88.110 54.126, 88.938 51.703, 86.719 52.555 C 85.120 53.168, 78.791 46.782, 79.200 44.967 C 79.365 44.234, 78.236 43.004, 76.691 42.234 C 72.230 40.011, 71.350 36.903, 73.369 30.497 C 74.314 27.502, 75.706 24.702, 76.463 24.276 C 77.221 23.849, 77.989 21.925, 78.170 20 C 78.491 16.591, 78.604 16.506, 82.500 16.739 C 86.191 16.960, 86.655 16.690, 88.505 13.239 C 89.608 11.183, 91.235 9.493, 92.120 9.485 C 93.005 9.477, 94.465 8.859, 95.364 8.112 C 96.663 7.035, 97.304 7.008, 98.477 7.981 C 101.059 10.124, 105.224 19.717, 104.527 21.915 C 104.096 23.272, 104.579 24.705, 105.967 26.195 C 108.857 29.297, 111.580 38.722, 112.997 50.533 C 113.785 57.105, 115.693 64.942, 118.596 73.540 C 121.018 80.712, 123 86.885, 123 87.259 C 123 87.632, 122.258 87.653, 121.352 87.305 C 119.966 86.773, 119.819 87.136, 120.423 89.586 C 122.063 96.227, 122.091 98.862, 120.584 104.676 C 119.713 108.038, 119 112.356, 119 114.272 C 119 116.188, 118.389 118.262, 117.643 118.881 C 115.960 120.278, 114.733 132.508, 115.612 139.133 L 116.261 144.024 154.380 143.762 L 192.500 143.500 192.757 71.750 L 193.013 0 96.507 0 L 0 0 0 72 M 0.474 72.500 C 0.474 112.100, 0.598 128.154, 0.750 108.176 C 0.901 88.198, 0.901 55.798, 0.750 36.176 C 0.598 16.554, 0.474 32.900, 0.474 72.500" stroke="none" fill="black" fill-rule="evenodd"/>
</svg>