<svg xmlns="http://www.w3.org/2000/svg" width="192" height="144" viewBox="0 0 192 144" version="1.1">
	<path d="M -0 72.005 L -0 144.010 96.250 143.755 L 192.500 143.500 192.757 71.750 L 193.013 0 140.507 0 C 111.628 0, 88 0.366, 88 0.812 C 88 2.718, 94.137 19.566, 95.950 22.640 C 97.250 24.843, 97.514 25.990, 96.716 25.972 C 93.968 25.909, 81.642 15.082, 73.593 5.661 L 68.757 -0 34.379 -0 L 0 0 -0 72.005 M 0.474 72.500 C 0.474 112.100, 0.598 128.154, 0.750 108.176 C 0.901 88.198, 0.901 55.798, 0.750 36.176 C 0.598 16.554, 0.474 32.900, 0.474 72.500 M 94.533 89.947 C 93.653 91.370, 94.775 93, 96.632 93 C 97.508 93, 98.010 92.297, 97.823 91.333 C 97.434 89.324, 95.437 88.484, 94.533 89.947" stroke="none" fill="black" fill-rule="evenodd"/>
</svg>