<svg xmlns="http://www.w3.org/2000/svg" width="192" height="144" viewBox="0 0 192 144" version="1.1">
	<path d="M 42.515 35.024 C 42.930 35.696, 41.747 35.823, 39.064 35.394 C 35.615 34.843, 34.361 35.171, 30.990 37.507 C 28.796 39.028, 27 40.886, 27 41.636 C 27 42.386, 26.438 43.018, 25.750 43.041 C 25.063 43.063, 26.019 44.380, 27.875 45.967 C 31.048 48.682, 31.209 49.121, 30.576 53.345 C 30.205 55.815, 29.249 58.378, 28.451 59.041 C 27.535 59.801, 26.991 62.136, 26.976 65.372 C 26.953 70.447, 26.604 72.300, 23.656 83 C 22.721 86.395, 22.497 88.864, 23.071 89.450 C 23.582 89.972, 24 91.180, 24 92.133 C 24 93.086, 24.900 94.151, 26 94.500 C 27.782 95.066, 27.990 95.971, 27.910 102.817 C 27.861 107.043, 27.524 115.811, 27.160 122.302 C 26.483 134.403, 26.842 136, 30.235 136 C 31.767 136, 31.891 136.334, 30.989 138.021 C 29.615 140.589, 30.483 142, 33.437 142 C 36.570 142, 38.199 139.776, 37.980 135.800 C 37.599 128.917, 37.637 128.859, 42.250 129.193 L 46.500 129.500 46.443 133.500 C 46.412 135.700, 46.187 138.175, 45.943 139 C 45.619 140.099, 46.303 140.500, 48.500 140.500 C 51.103 140.500, 51.539 140.102, 51.795 137.492 C 52.005 135.357, 52.978 133.976, 55.148 132.730 C 57.143 131.585, 58.004 130.452, 57.626 129.468 C 56.360 126.169, 50.983 101.942, 49.532 93 C 48.684 87.775, 47.543 81.062, 46.995 78.083 C 46.448 75.104, 46.242 72.424, 46.538 72.128 C 46.834 71.833, 48.442 72.106, 50.111 72.736 C 51.780 73.366, 53.788 73.635, 54.573 73.334 C 56.305 72.669, 56.425 69.653, 54.821 67.085 C 53.877 65.573, 53.977 64.685, 55.321 62.633 C 56.244 61.224, 57 59.871, 57 59.627 C 57 59.383, 54.976 57.905, 52.502 56.342 C 47.490 53.176, 47.466 53.107, 49.434 47.500 C 50.698 43.899, 50.665 43.301, 49.104 41.500 C 48.150 40.400, 46.601 38.263, 45.662 36.750 C 44.722 35.237, 43.488 34, 42.918 34 C 42.348 34, 42.167 34.461, 42.515 35.024 M 26.469 91.050 C 25.519 92.588, 26.820 93.580, 28.104 92.296 C 28.822 91.578, 28.839 91.019, 28.156 90.597 C 27.596 90.251, 26.837 90.455, 26.469 91.050" stroke="none" fill="black" fill-rule="evenodd"/>
</svg>