<svg xmlns="http://www.w3.org/2000/svg" width="192" height="144" viewBox="0 0 192 144" version="1.1">
	<path d="M 93.322 20.852 C 82.973 21.937, 78.004 27.523, 78.002 38.076 C 78 43.824, 76.219 46.742, 71.750 48.320 C 68.763 49.374, 69.668 53.269, 73.473 55.734 C 75.370 56.962, 77.556 57.724, 78.332 57.426 C 80.545 56.577, 81.145 59.819, 79.399 63.196 C 78.178 65.557, 78.094 66.440, 79.034 67.021 C 79.706 67.436, 79.947 68.277, 79.569 68.888 C 78.681 70.325, 80.267 70.333, 81.701 68.899 C 82.502 68.098, 82.979 68.357, 83.452 69.848 C 83.851 71.107, 84.661 71.683, 85.551 71.342 C 86.348 71.036, 87 71.232, 87 71.776 C 87 73.285, 91.325 74.093, 92.160 72.740 C 92.669 71.917, 93.106 72.112, 93.592 73.379 C 94.462 75.647, 92.836 76.740, 87.353 77.569 C 81.421 78.466, 77.446 81.245, 73.937 86.948 C 71.078 91.595, 70.663 91.885, 67.687 91.320 C 62.794 90.390, 59.928 88.638, 54.493 83.252 C 51.747 80.532, 47.481 76.858, 45.012 75.089 C 42.544 73.320, 40.519 71.232, 40.512 70.448 C 40.488 67.691, 39.176 68.566, 32.466 75.814 C 28.742 79.836, 21.151 86.328, 15.598 90.240 C 2.256 99.639, 2.474 99.335, 9.500 98.743 C 14.670 98.308, 15.980 98.567, 18.972 100.619 C 20.881 101.929, 22.990 103, 23.657 103 C 24.324 103, 26.137 101.210, 27.685 99.021 C 30.812 94.601, 32.547 93.998, 33.500 97 C 34.313 99.562, 35.620 99.562, 36.290 97 C 36.577 95.900, 37.257 95, 37.801 95 C 39.130 95, 44.547 100.131, 45.158 101.969 C 45.577 103.232, 46.208 103.251, 49.664 102.111 C 53.101 100.977, 54.105 101.003, 56.594 102.290 C 58.195 103.118, 60.361 104.741, 61.407 105.898 C 63.786 108.526, 64.462 108.519, 68.236 105.832 C 71.063 103.819, 71.370 103.785, 72.518 105.355 C 73.509 106.711, 73.444 108.461, 72.193 114.165 C 70.636 121.261, 70.638 121.289, 72.926 123.141 C 75.549 125.265, 79.042 125.558, 80.800 123.800 C 81.733 122.867, 82 122.945, 82 124.151 C 82 126.028, 79.914 132.303, 79.059 133 C 77.657 134.142, 74.826 141.910, 75.446 142.913 C 75.895 143.639, 83.030 144, 96.948 144 L 117.777 144 118.409 140.634 C 119.078 137.067, 118.377 134, 116.893 134 C 116.402 134, 116 132.686, 116 131.079 C 116 128.646, 116.501 128.049, 119.008 127.498 C 123.043 126.612, 123.998 124.434, 123.877 116.386 C 123.790 110.594, 124.088 109.347, 125.909 107.873 C 127.167 106.854, 127.624 105.886, 127.021 105.513 C 125.250 104.418, 125.909 102.387, 128.483 101.009 C 131.357 99.471, 135.265 100.824, 145.194 106.792 L 150.889 110.216 153.694 108.270 C 158.542 104.910, 159.969 104.812, 164.787 107.505 L 169.327 110.042 171.567 107.937 C 172.799 106.780, 175.477 105.456, 177.518 104.996 C 180.730 104.272, 181.296 104.417, 181.731 106.080 C 182.372 108.530, 183.201 108.508, 184.768 106 C 186.309 103.533, 189.552 103.401, 190.920 105.750 C 191.654 107.010, 191.948 104.124, 191.970 95.447 C 192 83.532, 191.965 83.346, 188.913 79.197 C 185.395 74.413, 184.954 74.242, 183.232 77 C 182.545 78.100, 181.322 79, 180.514 79 C 179.707 79, 173.771 81.761, 167.324 85.134 L 155.602 91.269 145.801 90.729 C 137.792 90.288, 136 90.446, 136 91.594 C 136 93.102, 134.771 93.314, 131.351 92.396 C 129.963 92.024, 128.595 90.229, 127.486 87.325 C 125.515 82.162, 121.901 79.512, 115.532 78.557 C 113.188 78.206, 110.466 77.330, 109.482 76.611 C 107.420 75.103, 108.343 72.767, 110.839 73.177 C 111.752 73.327, 113.063 73.097, 113.750 72.666 C 114.510 72.189, 115.016 72.395, 115.040 73.191 C 115.062 73.911, 115.714 73.333, 116.489 71.908 C 117.585 69.893, 118.589 69.357, 120.996 69.500 C 123.390 69.642, 123.961 69.341, 123.512 68.172 C 123.193 67.340, 123.492 66.314, 124.176 65.891 C 125.128 65.303, 125.019 64.678, 123.710 63.232 C 121.357 60.632, 121.565 58.572, 124.500 55.405 C 127.523 52.144, 127.611 50.968, 125 48.732 C 123.226 47.213, 122.287 45, 123.417 45 C 123.646 45, 125.855 45.866, 128.325 46.925 C 130.795 47.984, 133.083 48.584, 133.408 48.258 C 133.734 47.933, 134 45.774, 134 43.461 C 134 39.328, 134.069 39.245, 138 38.616 C 142.340 37.922, 142.915 37.002, 140.342 34.872 C 138.075 32.997, 135.049 26.101, 135.022 22.750 C 134.992 18.956, 132.456 19.156, 126.066 23.455 L 120.932 26.911 116.450 23.752 C 111.525 20.280, 105.724 19.553, 93.322 20.852" stroke="none" fill="black" fill-rule="evenodd"/>
</svg>