<svg xmlns="http://www.w3.org/2000/svg" width="192" height="144" viewBox="0 0 192 144" version="1.1">
	<path d="M 58.147 3.029 C 56.714 6.268, 56.451 5.729, 64.122 15.290 C 65.117 16.531, 66.373 17.071, 67.372 16.687 C 69.987 15.684, 69.343 19.032, 66.313 22.195 L 63.626 25 66.392 25 C 68.990 25, 69.116 25.197, 68.449 28.230 C 67.840 31.003, 67.949 31.288, 69.212 30.239 C 70.920 28.822, 72 29.563, 72 32.151 C 72 34.453, 77.899 41.141, 78.041 39 C 78.107 38.007, 78.405 38.177, 78.921 39.500 C 79.350 40.600, 80.318 41.500, 81.071 41.500 C 81.825 41.500, 82.928 42.478, 83.524 43.673 C 84.506 45.642, 84.709 45.689, 85.686 44.173 C 86.280 43.253, 87.143 42.862, 87.604 43.304 C 88.065 43.747, 87.844 44.478, 87.114 44.930 C 86.311 45.426, 86.042 46.557, 86.433 47.788 C 86.990 49.545, 86.280 50.123, 81.290 51.972 C 78.105 53.152, 73.863 55.189, 71.862 56.499 L 68.224 58.880 65.283 54.148 L 62.342 49.417 53.921 50.337 C 43.255 51.502, 36.262 50.139, 28.362 45.355 C 25.138 43.403, 18.492 39.784, 13.593 37.314 C 6.067 33.518, 4.323 32.988, 2.343 33.890 C 0.633 34.668, 0 35.779, 0 37.998 C 0 40.721, 0.254 40.974, 2.438 40.426 C 5.034 39.775, 11.028 42.614, 10.965 44.466 C 10.945 45.035, 10.286 46.625, 9.500 48 C 6.929 52.497, 7.751 56.477, 13.730 68.489 C 16.881 74.820, 19.754 80, 20.113 80 C 21.419 80, 21.973 75.266, 21.986 63.982 C 21.999 53.289, 21.818 52.197, 19.464 48.732 C 16.412 44.241, 17.151 44.076, 23.185 47.902 C 28.782 51.452, 29.538 52.582, 28.165 55.345 C 24.740 62.237, 24.929 64.310, 30.158 77.215 C 32.895 83.972, 35.497 89.870, 35.941 90.323 C 37.052 91.458, 37.668 88.379, 39.027 74.903 C 40.144 63.827, 40.101 63.119, 38.078 59.153 L 35.959 55 43.421 55 C 51.396 55, 53.211 56.004, 50.550 58.945 C 49.645 59.945, 48.447 62.418, 47.889 64.441 C 47.002 67.654, 47.404 69.710, 51.082 80.746 L 55.290 93.375 53.179 100.553 C 52.017 104.501, 50.763 109.628, 50.393 111.945 C 50.022 114.262, 48.995 116.584, 48.110 117.104 C 47.224 117.624, 40.003 122.055, 32.063 126.952 L 17.625 135.854 10.861 128.927 C 3.663 121.556, -0 120.035, 0 124.417 C 0 125.746, 0.515 127.005, 1.143 127.214 C 2.001 127.500, 2.001 128.129, 1.143 129.732 C 0.515 130.907, 0 134.598, 0 137.934 L 0 144 18.021 144 C 35.195 144, 36.218 143.890, 39.771 141.657 C 59.455 129.288, 59.749 128.983, 64.404 116.077 C 68.669 104.255, 68.944 104.343, 68.885 117.500 C 68.831 129.595, 67.939 139.022, 66.543 142.250 C 65.832 143.895, 67.598 144, 95.885 144 L 125.984 144 124.467 140.209 C 123.632 138.123, 123.068 135.536, 123.212 134.459 C 123.356 133.381, 123.151 129.350, 122.756 125.500 C 122.361 121.650, 122.382 116.938, 122.804 115.028 L 123.570 111.557 126.337 119.141 C 129.779 128.580, 132.630 131.545, 144.996 138.546 L 154.707 144.045 173.604 143.773 L 192.500 143.500 192.796 136.750 C 193.033 131.327, 192.801 130, 191.613 130 C 189.592 130, 188.407 125.984, 190.117 124.928 C 190.905 124.441, 191.758 124.594, 192.208 125.303 C 192.666 126.022, 192.975 125.426, 192.985 123.809 C 192.993 122.329, 192.539 120.833, 191.976 120.485 C 189.905 119.205, 184.963 121.172, 183.559 123.833 C 182.785 125.300, 180.372 128.447, 178.196 130.828 L 174.240 135.155 168.870 132.435 C 165.916 130.939, 160.347 127.801, 156.493 125.463 C 152.639 123.124, 147.384 120.189, 144.814 118.940 C 140.369 116.781, 140.109 116.424, 139.454 111.585 C 139.075 108.788, 137.964 103.907, 136.984 100.737 C 135.247 95.119, 135.252 94.843, 137.204 89.737 C 139.895 82.698, 145 66.092, 145 64.377 C 145 63.620, 145.466 63, 146.036 63 C 146.605 63, 147.939 60.975, 149 58.500 C 150.567 54.844, 151.408 54, 153.485 54 L 156.041 54 153.919 58.158 C 151.896 62.123, 151.849 62.889, 152.899 74.677 C 153.505 81.475, 154 87.479, 154 88.019 C 154 89.682, 156.027 89.102, 156.685 87.250 C 157.027 86.288, 159.458 80.740, 162.087 74.923 C 167.147 63.728, 167.318 61.890, 163.971 54.754 C 162.844 52.352, 162.922 51.743, 164.591 49.898 C 166.637 47.635, 173.136 44, 175.134 44 C 175.839 44, 175.489 44.944, 174.299 46.250 C 170.110 50.849, 169.774 52.575, 170.526 65.610 C 170.919 72.425, 171.560 78, 171.950 78 C 172.340 78, 174.612 74.287, 176.999 69.750 C 179.385 65.213, 182.186 59.981, 183.223 58.123 C 185.111 54.742, 184.988 52.431, 182.496 44.395 C 181.600 41.508, 188.473 37.190, 191.226 38.909 C 192.774 39.876, 193 39.642, 193 37.080 C 193 34.391, 190.856 31, 189.156 31 C 188.529 31, 184.083 33.322, 161.177 45.608 C 157.700 47.474, 154.212 49, 153.427 49 C 151.731 49, 151.537 47.404, 153.114 46.429 C 153.875 45.959, 153.989 43.796, 153.474 39.620 C 153.059 36.254, 152.625 30.125, 152.511 26 C 152.330 19.486, 152.662 17.843, 155.038 13.500 C 156.543 10.750, 158.007 6.587, 158.292 4.250 L 158.810 -0 109.149 -0 L 59.488 0 58.147 3.029 M 132.249 22.122 C 129.011 27.725, 128.101 32.326, 130 33.500 C 131.944 34.701, 130.965 35.716, 128.345 35.215 C 125.788 34.726, 125.712 34.841, 126.283 38.354 C 126.892 42.106, 125.738 43.361, 124.540 40.250 C 123.898 38.583, 123.819 38.583, 122.883 40.250 C 122.343 41.212, 121.248 42, 120.450 42 C 119.653 42, 119 42.627, 119 43.393 C 119 44.159, 118.325 45.045, 117.500 45.362 C 116.675 45.678, 116 46.626, 116 47.469 C 116 50.383, 112.963 49.063, 112.324 45.872 L 111.699 42.744 108.849 46.007 C 106.085 49.173, 105.999 49.200, 105.970 46.886 C 105.942 44.732, 105.837 44.676, 104.886 46.311 C 103.254 49.116, 104.430 50.618, 109.653 52.397 C 112.297 53.298, 116.139 55.384, 118.190 57.033 L 121.920 60.030 125.447 54.515 C 128.593 49.598, 129.344 49, 132.382 49 C 135.773 49, 135.786 48.983, 134.983 45.426 C 134.540 43.461, 134.615 37.131, 135.150 31.360 C 136.543 16.323, 136.211 15.268, 132.249 22.122 M 88 31.020 C 88 31.949, 93.932 35.435, 94.473 34.824 C 94.630 34.646, 93.239 33.508, 91.380 32.296 C 89.521 31.084, 88 30.510, 88 31.020 M 0.232 38 C 0.232 39.925, 0.438 40.712, 0.689 39.750 C 0.941 38.788, 0.941 37.212, 0.689 36.250 C 0.438 35.288, 0.232 36.075, 0.232 38 M 0 59.443 C 0 70.192, 0.189 71.339, 2.585 75.135 C 4.017 77.403, 5.547 78.844, 6.015 78.365 C 6.480 77.889, 6.373 72.100, 5.777 65.500 C 4.858 55.318, 4.338 53.072, 2.347 50.673 L 0 47.847 0 59.443 M 189.852 50.686 C 188.876 52.354, 187.907 57.165, 187.475 62.500 C 187.074 67.450, 186.638 72.523, 186.508 73.774 C 186.146 77.235, 187.610 77.357, 189.956 74.062 C 191.857 71.392, 192.037 69.958, 191.782 59.486 C 191.507 48.168, 191.458 47.943, 189.852 50.686 M 129.698 59.512 C 126.970 62.930, 126.842 65, 129.358 65 C 130.040 65, 131.249 63.313, 132.044 61.250 C 132.839 59.188, 133.642 57.163, 133.828 56.750 C 134.760 54.684, 132.166 56.419, 129.698 59.512 M 58 57.664 C 58 59.018, 61.409 66, 62.070 66 C 62.447 66, 63.223 65.437, 63.794 64.748 C 64.550 63.837, 64.043 62.613, 61.931 60.248 C 59.079 57.057, 58 56.347, 58 57.664 M 0.195 124.500 C 0.215 126.150, 0.439 126.704, 0.693 125.731 C 0.947 124.758, 0.930 123.408, 0.656 122.731 C 0.382 122.054, 0.175 122.850, 0.195 124.500 M 0.328 137.500 C 0.333 141.350, 0.513 142.802, 0.730 140.728 C 0.946 138.653, 0.943 135.503, 0.722 133.728 C 0.501 131.952, 0.324 133.650, 0.328 137.500" stroke="none" fill="black" fill-rule="evenodd"/>
</svg>