<svg xmlns="http://www.w3.org/2000/svg" width="192" height="144" viewBox="0 0 192 144" version="1.1">
	<path d="M 65.500 10.535 C 56.883 13.472, 54.163 13.947, 45.832 13.971 L 36.165 14 33.183 23.250 C 25.092 48.349, 14 113.108, 14 135.244 L 14 144 73.750 144 L 133.500 144 138.109 137.750 C 147.009 125.681, 146.500 128.343, 146.500 93.837 C 146.500 71.364, 146.202 63.422, 145.383 64.100 C 144.666 64.693, 143.813 64.480, 143.005 63.506 C 141.350 61.511, 142.443 53.055, 145.056 47.647 C 146.125 45.435, 147 43.070, 147 42.393 C 147 41.715, 144.744 40.411, 141.986 39.495 C 136.524 37.681, 133.478 34.479, 130.072 26.972 C 128.957 24.512, 128.034 20.883, 128.022 18.908 L 128 15.315 119.250 12.645 C 105.272 8.379, 97.222 7.032, 86 7.081 C 76.747 7.122, 74.312 7.532, 65.500 10.535 M 189.062 130.750 C 189.096 131.162, 189.726 134.425, 190.464 138 L 191.804 144.500 191.902 137.250 C 191.981 131.429, 191.704 130, 190.500 130 C 189.675 130, 189.028 130.338, 189.062 130.750" stroke="none" fill="black" fill-rule="evenodd"/>
</svg>