<svg xmlns="http://www.w3.org/2000/svg" width="192" height="144" viewBox="0 0 192 144" version="1.1">
	<path d="M 0 72 L 0 144 33 144 L 66 144 66 139.521 C 66 135.129, 65.953 135.064, 63.545 136.161 C 61.700 137.002, 60.351 136.974, 58.117 136.049 C 53.741 134.236, 52.353 132.220, 50.509 125 C 49.596 121.425, 47.293 115.035, 45.391 110.799 C 42.081 103.429, 41.995 102.947, 43.395 99.596 L 44.859 96.094 40.492 93.331 C 36.324 90.695, 34 87.537, 34 84.509 C 34 83.741, 32.650 82.316, 31 81.341 C 29.350 80.366, 28 78.866, 28 78.007 C 28 77.147, 27.100 75.674, 26 74.732 C 23.609 72.684, 23.500 71.660, 25.500 70 C 27.031 68.729, 27.486 64.430, 26.391 61.576 C 26.049 60.686, 24.080 59.717, 21.910 59.370 C 17.019 58.587, 15.073 56.566, 17.804 55.105 C 18.867 54.536, 20.009 54.342, 20.341 54.674 C 21.781 56.115, 22.999 49.712, 21.995 45.980 C 21.428 43.876, 21.244 39.757, 21.585 36.827 C 21.936 33.815, 21.662 28.893, 20.955 25.500 C 19.422 18.140, 19.364 16.402, 20.344 7.250 L 21.121 0 10.561 0 L 0 0 0 72 M 52 2.083 C 52 4.520, 54.337 4.176, 54.823 1.667 C 55.015 0.680, 54.505 0, 53.573 0 C 52.646 0, 52 0.855, 52 2.083 M 68.362 1.500 C 68.045 2.325, 66.934 3, 65.893 3 C 64.316 3, 64 3.751, 64 7.500 C 64 11.090, 63.646 12.015, 62.250 12.076 C 61.288 12.118, 62.075 12.730, 64 13.436 C 67.318 14.653, 67.571 14.590, 68.860 12.210 C 69.609 10.830, 70.313 9.071, 70.426 8.302 C 70.659 6.717, 76 3.609, 76 5.059 C 76 5.577, 76.619 6, 77.375 6 C 78.131 6, 79.020 7.350, 79.350 9 C 79.863 11.567, 80.402 12, 83.082 12 C 85.430 12, 86.072 11.631, 85.649 10.526 C 85.338 9.716, 85.833 8.633, 86.750 8.120 C 88.288 7.259, 88.267 6.912, 86.481 3.594 L 84.545 -0 76.741 -0 C 70.727 -0, 68.805 0.344, 68.362 1.500 M 89.361 6.755 L 86.221 13.500 87.071 24.736 C 87.750 33.709, 87.627 36.805, 86.461 40.111 C 85.657 42.388, 85 44.629, 85 45.091 C 85 46.714, 88.951 48.013, 95.330 48.486 C 100.706 48.885, 102.194 48.636, 104.295 46.982 C 105.681 45.892, 107.260 45, 107.802 45 C 109.923 45, 104.727 29.410, 101.822 27.057 C 100.130 25.687, 100.008 25.076, 100.995 22.910 C 101.938 20.840, 102.699 20.449, 105.096 20.801 C 107.921 21.215, 107.998 21.125, 107.019 18.551 C 105.151 13.636, 105.691 12.712, 109.003 15.160 C 112.637 17.847, 116 24.444, 116 28.885 C 116 31.688, 116.312 32.095, 118.250 31.820 C 120.178 31.546, 120.544 30.806, 120.809 26.655 C 121.038 23.055, 120.806 22.002, 119.904 22.559 C 119.052 23.086, 118.952 22.891, 119.569 21.905 C 120.052 21.132, 120.465 20.050, 120.486 19.500 C 120.507 18.950, 121.267 16.250, 122.174 13.500 C 123.081 10.750, 124.093 6.587, 124.423 4.250 L 125.024 0 108.762 0.005 L 92.500 0.010 89.361 6.755 M 146.232 2 C 146.919 3.100, 148.048 4, 148.741 4 C 149.433 4, 150 3.100, 150 2 C 150 0.532, 149.333 0, 147.492 0 C 145.233 0, 145.108 0.200, 146.232 2 M 160.460 3.250 C 160.850 5.038, 161.522 9.425, 161.953 13 C 162.384 16.575, 163.537 21.300, 164.515 23.500 C 165.493 25.700, 166.419 28.104, 166.572 28.842 C 166.954 30.685, 168 31.613, 168 30.108 C 168 29.434, 168.470 29.172, 169.044 29.527 C 169.618 29.882, 170.743 29.628, 171.544 28.964 C 172.766 27.949, 173 28.257, 173 30.878 C 173 32.595, 172.608 34, 172.129 34 C 171.650 34, 170.942 38.044, 170.555 42.987 C 170.168 47.929, 169.435 52.231, 168.926 52.546 C 168.417 52.861, 168 54.007, 168 55.093 C 168 56.179, 166.640 58.397, 164.977 60.022 C 163.315 61.647, 161.682 64.342, 161.348 66.009 C 161.015 67.677, 160.342 69.288, 159.855 69.590 C 159.367 69.891, 159.216 70.541, 159.520 71.033 C 159.824 71.525, 159.082 72.918, 157.870 74.130 C 155.684 76.316, 155.683 76.338, 157.695 77.083 C 160.608 78.161, 161.497 81.164, 159.363 82.724 C 158.403 83.426, 157.351 84, 157.024 84 C 156.698 84, 155.627 85.362, 154.643 87.027 C 152.315 90.969, 148.561 94.687, 146.132 95.458 C 144.540 95.963, 144.289 96.737, 144.707 99.854 C 145.063 102.504, 144.301 106.313, 142.165 112.569 C 140.487 117.481, 138.587 124.573, 137.941 128.330 C 136.478 136.841, 134.070 139.913, 128.248 140.694 C 125.598 141.049, 124 141.778, 124 142.632 C 124 143.763, 129.899 144, 158 144 L 192 144 192 72 L 192 0 175.875 -0 L 159.750 -0 160.460 3.250 M 32.091 22.909 C 31.316 23.407, 30.137 23.606, 29.472 23.351 C 27.557 22.616, 26.899 27.197, 28.557 29.728 C 30.488 32.675, 33.041 32.567, 35.316 29.443 C 38.488 25.087, 36.130 20.311, 32.091 22.909 M 158.667 62.667 C 157.742 63.591, 157.829 66, 158.787 66 C 159.220 66, 159.642 65.100, 159.725 64 C 159.887 61.851, 159.708 61.625, 158.667 62.667 M 118.868 77.500 C 118.665 79.150, 118.800 82.975, 119.166 86 C 119.532 89.025, 119.875 94.425, 119.929 98 C 119.983 101.575, 120.297 105.507, 120.627 106.739 C 121.635 110.500, 122.999 108.183, 123.011 102.691 C 123.017 99.836, 123.623 95.475, 124.359 93 C 125.642 88.681, 125.565 88.218, 122.465 81.500 C 119.492 75.058, 119.206 74.739, 118.868 77.500 M 69.091 82.889 C 67.553 84.752, 65.981 85.613, 64.430 85.443 C 60.236 84.983, 59.591 87.323, 62.437 92.670 C 64.041 95.683, 65 99.089, 65 101.773 C 65 106.090, 67.018 108.382, 69.039 106.361 C 69.945 105.455, 72.532 81.199, 71.801 80.467 C 71.587 80.254, 70.368 81.344, 69.091 82.889" stroke="none" fill="black" fill-rule="evenodd"/>
</svg>