<svg xmlns="http://www.w3.org/2000/svg" width="192" height="144" viewBox="0 0 192 144" version="1.1">
	<path d="M 87.512 40.011 C 79.316 41.475, 70.146 45.920, 58.500 54.074 C 39.964 67.051, 31.595 71.291, 22.099 72.516 C 12.432 73.763, 12.097 74.168, 19.500 75.658 C 24.730 76.710, 32.820 80.223, 51.500 89.554 C 78.776 103.180, 87.027 106, 99.611 106 C 103.621 106, 109.286 105.512, 112.201 104.915 C 120.533 103.209, 135.486 95.154, 149.725 84.702 C 157.231 79.192, 165.369 75.937, 173.299 75.272 C 180.249 74.689, 180.463 73.843, 174 72.505 C 169.507 71.575, 165.722 69.718, 141.752 56.681 C 130.890 50.774, 118.737 44.633, 114.744 43.034 C 106.591 39.770, 95.659 38.556, 87.512 40.011 M 86.975 55.250 C 80.219 58.667, 76.646 64.487, 76.203 72.793 C 75.905 78.394, 76.243 80.242, 78.251 84 C 83.495 93.814, 96.945 97.617, 106.736 92.054 C 114.624 87.573, 119.305 77.369, 117.126 69.404 C 113.411 55.822, 99.114 49.110, 86.975 55.250" stroke="none" fill="black" fill-rule="evenodd"/>
</svg>