<svg xmlns="http://www.w3.org/2000/svg" width="192" height="144" viewBox="0 0 192 144" version="1.1">
	<path d="M -0 68.080 L -0 136.159 6.250 135.610 C 9.688 135.309, 16.325 134.815, 21 134.514 C 28.900 134.005, 44.363 132.654, 56.764 131.390 C 62.504 130.804, 63.104 129.586, 57.850 129.185 C 56.034 129.047, 53.540 128.274, 52.309 127.467 C 51.078 126.660, 48.570 126, 46.735 126 C 44.901 126, 42.860 125.460, 42.200 124.800 C 40.292 122.892, 40.796 117.461, 43.500 110.808 C 44.875 107.424, 46 102.915, 46 100.788 C 46 91.355, 53.851 82.759, 69.334 75.237 C 81.230 69.458, 85.992 66.225, 89.158 61.778 L 91.245 58.847 86.122 54.113 C 80.133 48.578, 79.622 45.755, 83.474 39.500 C 84.829 37.300, 85.952 34.632, 85.969 33.571 C 85.986 32.510, 86.411 30.260, 86.913 28.571 C 87.416 26.882, 88.242 23.630, 88.749 21.344 C 89.548 17.746, 89.459 17.264, 88.086 17.750 C 87.214 18.058, 86.046 18.656, 85.490 19.078 C 83.680 20.455, 78.524 18.642, 78.158 16.500 C 77.971 15.400, 77.408 14.350, 76.908 14.167 C 76.409 13.983, 76 13.206, 76 12.440 C 76 10.260, 72.459 8.507, 59.147 4.095 C 50.955 1.379, 45.017 0, 41.516 0 L 36.237 0 32.703 8.250 C 28.066 19.072, 25.820 30.188, 25.781 42.500 C 25.755 50.910, 26.247 54.125, 28.875 62.718 C 30.594 68.338, 32 74.022, 32 75.347 C 32 76.673, 30.849 80.272, 29.443 83.344 C 24.802 93.480, 26.318 103.800, 33.393 110.236 C 37.110 113.617, 37.282 113.973, 35.200 113.986 C 29.953 114.018, 24.392 109.296, 21.084 102 C 19.421 98.332, 19.040 95.405, 19.022 86.168 C 19.002 75.806, 18.745 74.254, 16.022 68.049 C 8.214 50.261, 7.276 31.552, 13.051 8.833 C 14.123 4.617, 15 0.904, 15 0.583 C 15 0.263, 11.625 0, 7.500 0 L 0 0 -0 68.080 M 62 0.403 C 62 0.624, 65.225 1.785, 69.167 2.982 C 75.201 4.815, 76.707 4.960, 78.689 3.899 L 81.045 2.638 77.908 1.319 C 75.112 0.144, 62 -0.612, 62 0.403 M 111.500 5.528 C 108.750 8.453, 106.500 11.422, 106.500 12.124 C 106.500 13.846, 136.574 20.894, 140 19.975 C 141.640 19.535, 144.278 20.081, 147.669 21.561 C 152.669 23.744, 155.632 24.370, 176 27.537 C 181.225 28.350, 186.963 29.287, 188.750 29.619 L 192 30.223 192 15.111 L 192 0 154.250 0.104 L 116.500 0.208 111.500 5.528 M 111.952 22.250 C 112.452 23.488, 113.121 25.625, 113.439 27 C 113.756 28.375, 114.919 30.570, 116.022 31.878 C 118.015 34.240, 118.065 34.246, 123.764 32.690 C 126.919 31.829, 131.441 30.622, 133.813 30.007 C 141.211 28.089, 139.115 26.035, 126.498 22.838 C 120.449 21.306, 114.497 20.040, 113.271 20.026 C 111.355 20.004, 111.170 20.315, 111.952 22.250 M 147.097 31.912 C 141.334 37.128, 125.234 43.434, 117.893 43.351 L 112.286 43.288 112.247 48.894 C 112.225 52.033, 112.823 55.475, 113.604 56.715 C 114.372 57.933, 115 59.811, 115 60.887 C 115 61.964, 117.247 66.142, 119.993 70.172 C 125.225 77.851, 125.992 80, 123.500 80 C 121.687 80, 121.694 79.391, 123.412 87.685 C 124.189 91.433, 125.135 97.917, 125.515 102.092 C 126.175 109.350, 126.080 109.867, 123.353 113.804 C 121.784 116.070, 119.938 117.941, 119.250 117.962 C 118.563 117.983, 118 119.114, 118 120.475 C 118 122.724, 118.297 122.895, 121.250 122.349 C 127.734 121.150, 175.710 108.936, 183.764 106.433 L 192.027 103.865 191.764 71.281 L 191.500 38.698 182.500 36.241 C 177.550 34.890, 168.458 32.551, 162.295 31.042 L 151.089 28.299 147.097 31.912 M 89 45.441 C 89 46.234, 89.450 47.160, 90 47.500 C 90.550 47.840, 91 47.191, 91 46.059 C 91 44.927, 90.550 44, 90 44 C 89.450 44, 89 44.648, 89 45.441" stroke="none" fill="black" fill-rule="evenodd"/>
</svg>