<svg xmlns="http://www.w3.org/2000/svg" width="192" height="144" viewBox="0 0 192 144" version="1.1">
	<path d="M 85.886 14.248 C 82.470 17.985, 82.076 18.918, 82.613 21.998 C 82.950 23.924, 83.849 26.497, 84.612 27.715 C 85.376 28.933, 86 30.590, 86 31.397 C 86 32.205, 86.925 33.159, 88.055 33.517 C 90.889 34.417, 90.118 35.866, 85.459 38.398 C 83.281 39.582, 80.282 41.365, 78.794 42.361 C 77.306 43.357, 75.575 43.856, 74.949 43.468 C 73.575 42.619, 69.313 44.743, 68.585 46.638 C 68.020 48.111, 73.566 57, 75.050 57 C 75.549 57, 78.394 54.525, 81.371 51.500 C 84.348 48.475, 86.998 46, 87.261 46 C 87.768 46, 88.718 50.400, 89.930 58.361 C 90.656 63.133, 89.021 71.510, 85.802 79.500 C 84.154 83.591, 78.697 93.004, 72.853 101.834 C 70.184 105.867, 68 109.726, 68 110.409 C 68 112.438, 72.292 115.634, 75.257 115.813 C 78.179 115.989, 85 118.527, 85 119.438 C 85 121.549, 79.536 133, 78.529 133 C 77.836 133, 76.059 133.952, 74.580 135.116 C 71.016 137.919, 71.337 142.057, 75.223 143.415 C 78.068 144.410, 80.517 143.585, 86.292 139.688 C 88.080 138.482, 89.952 138.022, 91.497 138.410 C 93.856 139.002, 110.534 140.245, 114.500 140.124 C 124.205 139.829, 135 136.652, 135 134.092 C 135 130.615, 119.806 126.928, 104.467 126.684 C 95.163 126.535, 92.751 126.790, 91.983 128 C 90.048 131.047, 91.006 126.655, 93.291 122 C 95.446 117.609, 95.645 117.480, 101.500 116.689 C 105.350 116.168, 108.038 115.221, 109 114.045 C 111.039 111.555, 114.763 110.558, 116.535 112.029 C 118.446 113.615, 121 112.542, 121 110.153 C 121 108.984, 122.136 107.772, 123.928 107.030 C 128.535 105.122, 130.369 102.553, 129.456 99.290 C 129.026 97.756, 128.780 95.880, 128.910 95.123 C 129.180 93.550, 123.187 87, 121.478 87 C 119.426 87, 116.170 82.599, 112.972 75.500 C 111.237 71.650, 109.317 67.458, 108.705 66.185 C 107.559 63.801, 108.817 62.052, 111.705 62.015 C 113.188 61.996, 114.431 68.066, 113.528 70.913 C 112.979 72.641, 113.286 73, 115.310 73 C 119.009 73, 120.302 70.763, 119.481 65.785 C 119.092 63.428, 118.289 60.901, 117.697 60.169 C 117.105 59.437, 116.247 56.512, 115.790 53.669 C 115.334 50.826, 114.781 47.600, 114.563 46.500 C 114.345 45.400, 114.129 44.157, 114.083 43.737 C 114.037 43.318, 112.440 41.293, 110.534 39.237 C 105.088 33.364, 103 30.762, 103 29.847 C 103 28.504, 104.640 28.861, 106 30.500 C 106.685 31.325, 107.880 32, 108.657 32 C 109.781 32, 109.929 30.929, 109.381 26.750 C 108.694 21.505, 106.596 17, 104.840 17 C 104.328 17, 102.795 15.886, 101.432 14.523 C 95.417 8.508, 91.201 8.433, 85.886 14.248" stroke="none" fill="black" fill-rule="evenodd"/>
</svg>