<svg xmlns="http://www.w3.org/2000/svg" width="192" height="144" viewBox="0 0 192 144" version="1.1">
	<path d="M 0 53.579 C 0 104.293, 0.095 107.171, 1.750 106.428 C 2.712 105.996, 7.212 105.186, 11.750 104.629 C 18.432 103.809, 20 103.295, 20 101.925 C 20 100.994, 19.175 100.018, 18.167 99.754 C 16.544 99.330, 16.417 98.602, 17.057 93.387 C 17.454 90.149, 18.120 86.192, 18.537 84.594 C 19.111 82.395, 18.881 81.386, 17.591 80.443 C 15.992 79.274, 15.990 78.843, 17.552 73.469 C 18.468 70.318, 19.228 65.437, 19.242 62.620 C 19.274 55.989, 20.353 54, 23.920 54 C 27.936 54, 30.241 57.674, 28.981 62.067 C 27.799 66.187, 28.633 69.804, 31.501 73 C 34.448 76.284, 34.381 79, 31.352 79 C 29.176 79, 29.073 79.283, 29.624 83.750 C 29.946 86.362, 30.783 91.113, 31.484 94.306 L 32.758 100.111 30.216 99.806 C 27.370 99.463, 25.957 101.663, 28.417 102.606 C 29.288 102.941, 30 103.841, 30 104.607 C 30 105.373, 30.337 106.008, 30.750 106.017 C 32.605 106.061, 66.214 88.465, 66.946 87.067 C 67.398 86.205, 68.079 83.621, 68.459 81.325 C 69.073 77.615, 68.892 77.014, 66.825 75.920 C 64.931 74.917, 59.353 70.783, 54.637 66.887 C 54.163 66.495, 54.074 65.688, 54.441 65.095 C 54.855 64.425, 57.612 65.910, 61.703 69.008 C 65.331 71.753, 68.681 74, 69.149 74 C 69.617 74, 70 73.091, 70 71.980 C 70 70.869, 71.096 68.224, 72.436 66.102 C 73.775 63.980, 75.517 60.697, 76.307 58.808 C 77.097 56.918, 79.713 53.829, 82.121 51.943 C 84.530 50.058, 86.650 48.174, 86.833 47.757 C 87.017 47.341, 87.804 47, 88.583 47 C 89.362 47, 90 46.325, 90 45.500 C 90 44.675, 89.550 44, 89 44 C 88.450 44, 88 44.450, 88 45 C 88 46.466, 86.683 46.224, 84.348 44.330 C 82.583 42.897, 82.413 42.106, 83.159 38.786 C 85.667 27.626, 93.890 21.892, 102.258 25.469 C 103.680 26.077, 103.966 25.770, 103.758 23.860 C 103.589 22.314, 104.018 21.500, 105 21.500 C 105.839 21.500, 106.979 19.961, 107.589 18.005 L 108.677 14.511 109.387 19.858 C 109.937 24.003, 109.731 25.762, 108.472 27.683 C 107.002 29.927, 106.993 30.465, 108.381 33.390 C 109.223 35.165, 109.655 37.604, 109.340 38.809 C 108.962 40.252, 109.234 41.038, 110.133 41.111 C 113.481 41.382, 116.762 40.652, 120.292 38.851 C 127.637 35.104, 142.328 30.826, 146.163 31.317 C 149.581 31.755, 150.447 31.236, 159.129 23.543 C 165.390 17.995, 169.015 15.453, 170.216 15.767 C 171.197 16.023, 172 16.786, 172 17.462 C 172 19.144, 168.697 22, 166.751 22 C 165.876 22, 162.188 24.537, 158.556 27.637 C 153.763 31.729, 152.105 33.757, 152.510 35.032 C 153.286 37.477, 150.433 40, 146.893 40 C 144.177 40, 144.025 40.178, 145.072 42.135 C 146.128 44.108, 146.020 44.222, 143.648 43.626 C 141.526 43.094, 139.554 44.149, 132.290 49.709 C 127.455 53.409, 118.550 60.205, 112.500 64.812 C 105.425 70.199, 100.904 74.409, 99.830 76.608 C 98.251 79.842, 98.268 80.425, 100.135 87.294 C 101.935 93.916, 102.481 94.789, 106.305 97.160 C 110.523 99.775, 118.614 104.262, 124.865 107.453 C 127.252 108.671, 127.919 109.481, 127.161 110.239 C 125.875 111.525, 118.949 109.091, 111.629 104.779 C 108.950 103.200, 106.599 102.068, 106.405 102.261 C 106.212 102.455, 107.650 106.306, 109.601 110.819 L 113.148 119.024 111.099 122.340 C 109.971 124.164, 107.878 126.190, 106.446 126.843 C 105.014 127.495, 104.063 128.585, 104.331 129.264 C 104.599 129.944, 105.636 133.542, 106.634 137.261 L 108.448 144.021 150.474 143.761 L 192.500 143.500 192.761 71.723 L 193.022 -0.054 176.665 0.050 L 160.308 0.155 159.131 5.254 C 157.916 10.515, 158.485 11.946, 161.809 11.985 C 162.529 11.993, 162.807 12.503, 162.427 13.118 C 162.002 13.805, 160.150 14.023, 157.618 13.682 C 154.855 13.311, 152.861 13.601, 151.559 14.564 C 146.264 18.480, 137.066 14.290, 134.870 6.962 C 134.214 4.770, 133.005 2.419, 132.185 1.738 C 131.041 0.788, 115.482 0.435, 65.347 0.222 L 0 -0.056 0 53.579 M 0.466 54 C 0.466 83.425, 0.593 95.463, 0.749 80.750 C 0.905 66.037, 0.905 41.962, 0.749 27.250 C 0.593 12.537, 0.466 24.575, 0.466 54 M 26.500 14 C 26.160 14.550, 26.584 15, 27.441 15 C 28.298 15, 29 14.550, 29 14 C 29 13.450, 28.577 13, 28.059 13 C 27.541 13, 26.840 13.450, 26.500 14 M 128.500 41.579 C 124.100 43.534, 119.938 45.377, 119.250 45.674 C 118.563 45.971, 117.986 46.728, 117.969 47.357 C 117.921 49.082, 113.847 51.695, 109.292 52.921 C 107.060 53.522, 104.629 54.742, 103.890 55.632 C 102.335 57.506, 102.014 66.015, 103.500 65.970 C 104.050 65.953, 108.550 62.779, 113.500 58.915 C 118.450 55.051, 125.704 49.444, 129.620 46.454 C 142.030 36.980, 141.736 35.698, 128.500 41.579 M 187.500 60 C 187.840 60.550, 188.316 61, 188.559 61 C 188.802 61, 189 60.550, 189 60 C 189 59.450, 188.523 59, 187.941 59 C 187.359 59, 187.160 59.450, 187.500 60 M 79.659 67.054 C 78.204 68.198, 76.554 70.941, 75.933 73.250 C 74.960 76.864, 75.045 77.560, 76.600 78.697 C 78.949 80.414, 79.368 80.356, 81.483 78.019 C 82.907 76.445, 83.029 75.740, 82.075 74.591 C 81.131 73.452, 81.208 72.499, 82.437 70.121 C 85.233 64.715, 84.151 63.520, 79.659 67.054 M 72.667 82.667 C 71.452 83.881, 71.976 84.947, 73.500 84.362 C 74.325 84.045, 75 83.384, 75 82.893 C 75 81.845, 73.622 81.711, 72.667 82.667 M 57.372 98.668 C 39.593 107.878, 23.203 114.399, 20.469 113.350 C 17.945 112.381, 18.842 110.988, 23.250 109.030 C 27.396 107.188, 27.427 107.139, 24.500 107.065 C 22.850 107.023, 16.888 107.522, 11.250 108.174 L 1 109.360 1 126.680 L 1 144 35.863 144 L 70.726 144 71.261 137.750 C 71.555 134.313, 72.096 130.762, 72.463 129.860 C 72.948 128.666, 71.956 127.433, 68.815 125.329 C 65.052 122.808, 64.461 121.915, 64.199 118.355 C 63.986 115.459, 64.775 112.357, 66.915 107.685 C 71.065 98.625, 73 93.916, 73 92.878 C 73 91.038, 69.842 92.208, 57.372 98.668 M 22.500 101 C 22.840 101.550, 23.541 102, 24.059 102 C 24.577 102, 25 101.550, 25 101 C 25 100.450, 24.298 100, 23.441 100 C 22.584 100, 22.160 100.450, 22.500 101 M 56.158 106 C 56.158 107.375, 56.385 107.938, 56.662 107.250 C 56.940 106.563, 56.940 105.438, 56.662 104.750 C 56.385 104.063, 56.158 104.625, 56.158 106 M 79.595 133.271 C 79.327 135.047, 78.887 138.188, 78.617 140.250 L 78.126 144 89.151 144 L 100.176 144 99.487 139.750 C 98.078 131.048, 97.510 130.569, 88.287 130.291 L 80.083 130.043 79.595 133.271" stroke="none" fill="black" fill-rule="evenodd"/>
</svg>