<svg xmlns="http://www.w3.org/2000/svg" width="192" height="144" viewBox="0 0 192 144" version="1.1">
	<path d="M 94.500 62.195 C 91.470 63.913, 90.941 65.116, 91.181 69.743 C 91.330 72.613, 90.892 74.393, 89.828 75.243 C 88.415 76.371, 88.402 77.225, 89.698 83.582 L 91.141 90.663 85.924 101.370 C 80.899 111.682, 80.751 112.225, 81.906 116.080 C 83.066 119.951, 85.009 121.480, 91.172 123.366 C 93.058 123.943, 92.580 127.557, 90.319 129.821 C 88.588 131.556, 88.640 134.456, 90.429 135.941 C 91.306 136.669, 96.525 137.245, 103.929 137.432 L 116 137.737 116 135.368 C 116 134.066, 116.402 133, 116.893 133 C 117.384 133, 118.050 132.311, 118.373 131.470 C 118.769 130.439, 118.068 129.576, 116.230 128.829 C 114.729 128.218, 112.082 127.107, 110.349 126.359 C 108.616 125.612, 106.256 125, 105.105 125 C 103.187 125, 103.303 124.621, 106.507 120.423 C 110.552 115.124, 110.740 113.133, 107.972 104.918 C 106.857 101.607, 106.203 98.481, 106.519 97.970 C 106.834 97.459, 106.579 96.081, 105.951 94.908 C 105.322 93.734, 104.607 88.677, 104.362 83.670 C 104.089 78.120, 103.447 74.276, 102.716 73.824 C 101.789 73.252, 101.799 72.801, 102.758 71.842 C 104.607 69.993, 104.264 66.605, 101.927 63.635 C 99.695 60.797, 97.661 60.403, 94.500 62.195" stroke="none" fill="black" fill-rule="evenodd"/>
</svg>