<svg xmlns="http://www.w3.org/2000/svg" width="192" height="144" viewBox="0 0 192 144" version="1.1">
	<path d="M 0 7.366 L 0 14.731 4.250 13.909 C 6.588 13.457, 11.313 13.068, 14.750 13.044 L 21 13 21.158 9.250 C 21.244 7.188, 21.294 4.938, 21.269 4.250 C 21.183 1.948, 22.764 2.964, 26.647 7.708 C 30.735 12.704, 32.017 13.968, 38.738 19.637 C 41.680 22.118, 44.105 25.622, 46.665 31.090 C 50.038 38.297, 50.721 39.110, 54.667 40.617 C 57.275 41.613, 60.345 42.043, 62.429 41.705 C 67.658 40.857, 68.696 42.884, 65.469 47.649 C 64.034 49.767, 62.104 51.772, 61.180 52.105 C 60.256 52.438, 59.464 53.788, 59.421 55.105 C 59.209 61.543, 58.777 62.848, 55.881 65.810 C 52.425 69.345, 50.738 69.923, 51.679 67.250 C 52.144 65.927, 52.001 65.769, 51.094 66.604 C 49.823 67.771, 50.855 81.420, 52.522 85.500 C 53.328 87.472, 53.309 87.473, 51.175 85.600 C 49.019 83.707, 49.008 83.712, 48.413 86.684 C 47.482 91.340, 42.551 96, 38.556 96 C 35.703 96, 34 97.304, 34 99.488 C 34 99.666, 36.362 100.120, 39.250 100.497 C 48.215 101.666, 57.443 104.188, 58.755 105.827 C 59.445 106.690, 59.762 108.176, 59.459 109.130 C 59.032 110.474, 63.603 120.937, 65.402 122.736 C 65.591 122.925, 67.823 121.975, 70.361 120.625 C 80.768 115.092, 87.612 113.500, 101 113.500 C 112.044 113.500, 114.437 113.822, 121.544 116.264 C 132.953 120.183, 143.351 126.653, 151.750 135.060 C 155.737 139.051, 159 142.695, 159 143.158 C 159 143.621, 166.425 144, 175.500 144 L 192 144 192 82.656 C 192 48.916, 192.293 16.516, 192.652 10.656 L 193.304 -0 96.652 -0 L 0 0 0 7.366 M 0.336 8 C 0.336 12.125, 0.513 13.813, 0.728 11.750 C 0.944 9.688, 0.944 6.313, 0.728 4.250 C 0.513 2.188, 0.336 3.875, 0.336 8 M 97.408 49.511 C 96.576 52.824, 100.191 61, 102.487 61 C 105.259 61, 103.412 51.588, 100.042 48.538 C 98.162 46.836, 98.071 46.870, 97.408 49.511 M 75.750 57.392 C 73.453 59.135, 73.536 60, 76 60 C 77.100 60, 78 59.812, 78 59.582 C 78 59.352, 78.273 58.452, 78.607 57.582 C 79.341 55.669, 78.126 55.589, 75.750 57.392" stroke="none" fill="black" fill-rule="evenodd"/>
</svg>