<svg xmlns="http://www.w3.org/2000/svg" width="192" height="144" viewBox="0 0 192 144" version="1.1">
	<path d="M 56.336 28.717 C 53.359 29.090, 53.130 29.418, 52.466 34.250 C 51.839 38.803, 52.009 39.589, 53.956 41.165 C 55.164 42.144, 55.899 43.354, 55.590 43.855 C 55.280 44.355, 55.915 45.893, 56.999 47.272 C 58.740 49.485, 58.795 49.926, 57.463 51.031 C 56.634 51.719, 56.203 53.066, 56.507 54.023 C 56.832 55.046, 56.447 55.998, 55.573 56.334 C 53.828 57.003, 49 64.343, 49 66.325 C 49 67.076, 49.900 68.505, 51 69.500 C 53.496 71.759, 53.513 73.874, 51.083 79.815 C 50.028 82.392, 48.903 85.706, 48.581 87.180 C 48.260 88.654, 47.410 90.454, 46.693 91.180 C 44.487 93.412, 43.921 96.064, 45.346 97.489 C 46.467 98.610, 46.399 100.980, 44.935 111.942 C 43.971 119.154, 42.863 129.317, 42.472 134.527 L 41.762 144 61.506 144 L 81.250 144 80.571 140.750 C 80.197 138.963, 79.037 131.875, 77.993 125 C 75.491 108.528, 70.685 90.735, 67.797 87.255 C 67.064 86.373, 67.289 85.209, 68.567 83.258 C 69.967 81.121, 70.421 78.158, 70.601 70.003 C 70.728 64.226, 70.355 57.947, 69.772 56.048 C 69.028 53.625, 69.027 52.491, 69.768 52.244 C 71.914 51.529, 75.937 47.099, 76.508 44.824 C 77.293 41.695, 74.547 35.262, 70.713 31.250 C 67.504 27.891, 65.597 27.555, 56.336 28.717 M 123.828 59.604 C 119.906 61.257, 118.282 63.682, 119.967 65.367 C 122.007 67.407, 120.916 70.540, 117.049 73.750 C 114.896 75.537, 112.855 77, 112.514 77 C 112.173 77, 110.259 75.889, 108.261 74.532 C 105.543 72.685, 104.298 72.338, 103.314 73.154 C 102.591 73.754, 102 73.875, 102 73.422 C 102 72.970, 101.460 73.140, 100.800 73.800 C 100.140 74.460, 98.313 75, 96.741 75 C 93.115 75, 94.061 76.700, 98.299 77.798 C 100.060 78.254, 101.500 79.228, 101.500 79.961 C 101.500 80.741, 103.996 81.987, 107.500 82.959 C 117.995 85.868, 129.538 92.156, 128.646 94.479 C 128.362 95.221, 129 97.538, 130.064 99.626 C 131.129 101.714, 132 104.150, 132 105.039 C 132 105.928, 129.952 113.490, 127.450 121.842 C 124.947 130.195, 123.173 137.471, 123.507 138.012 C 123.841 138.552, 125.925 139.284, 128.137 139.638 C 130.438 140.006, 132.655 141.076, 133.320 142.140 C 134.207 143.562, 135.694 144, 139.624 144 C 143.926 144, 144.852 143.673, 145.290 142 C 145.577 140.900, 146.642 139.993, 147.656 139.985 C 151.673 139.951, 152.060 138.833, 150.618 131.449 C 149.872 127.627, 148.701 120.675, 148.017 116 C 146.783 107.569, 144.396 94.950, 143.463 91.926 C 142.732 89.557, 153.455 85.072, 163.584 83.510 C 171.365 82.310, 176.958 77, 170.441 77 C 169.098 77, 168 76.599, 168 76.108 C 168 75.618, 166.883 74.937, 165.518 74.594 C 163.682 74.133, 160.591 75.274, 153.623 78.986 C 148.445 81.744, 143.810 84, 143.323 84 C 142.835 84, 142.349 82.942, 142.242 81.648 C 142.103 79.980, 143.201 78.369, 146.023 76.101 C 153.185 70.347, 150.016 64.627, 139.619 64.542 C 134.749 64.502, 134.499 64.366, 134.007 61.500 C 133.580 59.018, 132.974 58.462, 130.496 58.278 C 128.848 58.155, 125.848 58.752, 123.828 59.604" stroke="none" fill="black" fill-rule="evenodd"/>
</svg>