<svg xmlns="http://www.w3.org/2000/svg" width="192" height="144" viewBox="0 0 192 144" version="1.1">
	<path d="M 0 9.371 L 0 18.742 6.077 19.429 C 10.101 19.884, 12.617 19.733, 13.522 18.982 C 14.274 18.357, 15.927 17.995, 17.195 18.176 C 18.950 18.428, 19.438 19.069, 19.242 20.863 C 19.034 22.766, 19.323 23.078, 20.742 22.481 C 26.715 19.972, 31.740 21.450, 32.647 25.983 C 32.979 27.643, 33.600 29, 34.027 29 C 35.520 29, 37.077 35.203, 35.930 36.584 C 34.538 38.262, 36.265 41.632, 38.955 42.486 C 40.031 42.827, 41.944 44.328, 43.206 45.820 C 44.468 47.313, 47.188 49.817, 49.250 51.386 C 51.312 52.954, 53 54.859, 53 55.619 C 53 56.378, 53.450 57, 54 57 C 54.550 57, 55 55.473, 55 53.607 C 55 51.513, 55.574 49.994, 56.500 49.638 C 57.325 49.322, 58 48.528, 58 47.874 C 58 47.220, 59.912 44.206, 62.249 41.177 L 66.498 35.670 66.712 20.871 C 66.837 12.216, 66.526 5.825, 65.963 5.477 C 65.433 5.150, 65 3.784, 65 2.441 L 65 0 32.500 0 L 0 0 0 9.371 M 0 82 L 0 144 14.883 144 C 29.473 144, 29.779 143.956, 30.370 141.750 C 31.677 136.871, 31.210 136, 27.288 136 C 24.536 136, 23.048 135.352, 21.538 133.497 C 19.931 131.523, 18.496 130.961, 14.750 130.835 L 10 130.676 10.031 127.088 C 10.064 123.282, 11.553 119.990, 19.865 105.347 C 28.752 89.692, 32.087 79.225, 30.496 71.981 C 29.799 68.811, 29.757 68.854, 26.430 76.139 C 23.751 82.004, 23.191 84.278, 23.674 87.326 C 24.201 90.653, 24.042 91.109, 22.455 90.826 C 20.692 90.511, 19.062 92.678, 17.435 97.500 C 16.841 99.258, 16.583 99.085, 15.302 96.067 C 14.171 93.403, 14.097 92.082, 14.971 90.165 C 16.697 86.375, 14.731 85.418, 11.455 88.454 C 6.148 93.373, 3.764 89.352, 4.664 77 C 5.217 69.417, 5.821 67.437, 10.260 58.645 C 14.834 49.586, 15.178 48.414, 14.518 44.145 C 14.123 41.590, 13.732 37.700, 13.650 35.500 C 13.514 31.878, 13.217 31.453, 10.500 30.998 C 7.389 30.478, 6.987 29.150, 8.496 24.377 C 9.049 22.626, 8.601 22.056, 5.934 21.127 C 4.156 20.507, 2.094 20, 1.351 20 C 0.231 20, 0 30.600, 0 82 M 36.195 70.500 C 36.215 72.150, 36.439 72.704, 36.693 71.731 C 36.947 70.758, 36.930 69.408, 36.656 68.731 C 36.382 68.054, 36.175 68.850, 36.195 70.500 M 55.078 83.083 C 55.035 84.504, 55.337 86.003, 55.750 86.415 C 56.163 86.827, 57.015 88.814, 57.645 90.832 C 58.275 92.849, 58.803 93.600, 58.818 92.500 C 58.833 91.400, 58.015 88.250, 57 85.500 C 55.576 81.640, 55.137 81.089, 55.078 83.083 M 59.598 95 C 59.264 95.825, 59.872 98.750, 60.949 101.500 C 63.194 107.235, 63.653 104.725, 61.588 98 C 60.702 95.114, 59.988 94.038, 59.598 95 M 66 124.933 C 66 130.208, 65.751 130.944, 63.750 131.576 C 62.513 131.967, 60.912 133.122, 60.193 134.143 C 59.170 135.597, 57.598 136, 52.943 136 L 47 136 47 140 L 47 144 67.155 144 L 87.310 144 85.441 141.750 C 84.414 140.512, 81.531 137.389, 79.036 134.809 C 76.541 132.229, 73.289 128.854, 71.808 127.309 C 70.328 125.764, 68.817 123.263, 68.450 121.750 C 67.307 117.034, 66 118.732, 66 124.933 M 37.035 139.934 C 35.418 142.956, 35.794 144, 38.500 144 C 40.611 144, 41 143.533, 41 141 C 41 137.525, 38.661 136.896, 37.035 139.934" stroke="none" fill="black" fill-rule="evenodd"/>
</svg>