<svg xmlns="http://www.w3.org/2000/svg" width="192" height="144" viewBox="0 0 192 144" version="1.1">
	<path d="M 164.515 17.092 C 161.834 18.793, 156.104 22.876, 151.784 26.164 C 147.464 29.453, 140.232 34.334, 135.714 37.011 C 128.117 41.512, 127.434 41.736, 126.623 39.997 C 125.320 37.203, 122.909 36.632, 122.297 38.974 C 121.823 40.784, 121.159 40.908, 114.639 40.410 C 108.918 39.973, 106.815 40.226, 104.055 41.682 C 98.874 44.416, 94.989 52.639, 98 54.500 C 99.691 55.545, 99.109 57, 97 57 C 95.376 57, 95 56.333, 95 53.450 C 95 46.314, 89.719 40.157, 82.848 39.283 C 77.382 38.588, 76.368 37.776, 75.555 33.443 C 74.201 26.223, 64.823 19.069, 56.651 19.022 C 48.786 18.977, 40.656 25.691, 37.554 34.795 C 35.477 40.891, 35.596 44.533, 38.035 49.573 C 41.649 57.037, 50.648 61.527, 58.951 60.009 C 61.201 59.597, 63.285 59.652, 63.581 60.130 C 63.876 60.609, 63.645 61, 63.068 61 C 61.154 61, 52.501 68.246, 52.454 69.888 C 52.429 70.774, 51.793 72.739, 51.042 74.254 C 49.385 77.594, 50.088 78.586, 52.878 76.844 C 55.872 74.974, 58.026 77.127, 56.157 80.121 C 55.073 81.856, 55.118 82.472, 56.432 83.925 C 57.458 85.058, 58 87.567, 58 91.180 C 58 96.542, 59.025 101.138, 61.247 105.741 C 62.035 107.374, 62.012 108.678, 61.164 110.539 C 59.560 114.059, 59.705 116.621, 61.679 119.633 C 63.023 121.685, 63.123 122.573, 62.179 124.085 C 60.642 126.546, 60.673 131.503, 62.241 134.014 C 63.228 135.595, 63.228 136.405, 62.241 137.986 C 61.558 139.079, 61.052 140.991, 61.116 142.236 C 61.203 143.930, 61.347 144.059, 61.689 142.750 C 61.941 141.787, 62.981 141, 64 141 C 65.019 141, 66.059 141.787, 66.311 142.750 C 66.653 144.059, 66.797 143.930, 66.884 142.236 C 66.948 140.991, 66.442 139.079, 65.759 137.986 C 64.772 136.405, 64.772 135.595, 65.759 134.014 C 67.454 131.300, 67.320 126.463, 65.500 124.643 C 63.780 122.923, 63.535 120.405, 65 119.500 C 66.301 118.696, 66.301 111.304, 65 110.500 C 63.383 109.500, 63.854 106.146, 65.750 105.161 C 66.713 104.660, 70.075 103.938, 73.222 103.557 L 78.944 102.863 77.841 106.027 C 77.137 108.047, 76.905 114.699, 77.201 124.432 C 77.456 132.815, 77.305 140.648, 76.865 141.837 L 76.064 144 93.782 143.985 C 103.527 143.976, 111.049 143.639, 110.498 143.235 C 108.143 141.507, 106.710 136.656, 106.677 130.297 C 106.648 124.926, 107.176 122.461, 109.190 118.550 L 111.739 113.599 113.870 122.673 C 116.420 133.535, 116.548 138.234, 114.385 141.535 L 112.770 144 122.733 144 L 132.696 144 138.348 138.074 C 146.403 129.629, 145.890 125.429, 135.468 114.500 C 130.131 108.904, 129.758 108.200, 129.930 104.040 C 130.169 98.245, 132.550 85.869, 134.633 79.599 C 136.172 74.967, 136.366 74.777, 137.714 76.578 C 139.092 78.420, 139.307 78.327, 142.854 74.371 C 147.630 69.045, 152 60.086, 152 55.620 C 152 49.790, 145.840 47.162, 140 50.500 C 138.625 51.286, 136.600 51.927, 135.500 51.925 C 134.019 51.922, 135.310 50.270, 140.474 45.560 C 146.498 40.064, 147.860 39.263, 150.474 39.673 C 153.618 40.166, 163 36.674, 163 35.010 C 163 34.517, 161.988 33.392, 160.750 32.510 C 158.643 31.009, 158.614 30.842, 160.294 29.879 C 161.436 29.225, 161.875 28.183, 161.503 27.010 C 161.182 25.997, 161.346 24.904, 161.869 24.581 C 163.644 23.484, 171.191 14, 170.289 14 C 169.795 14, 167.197 15.392, 164.515 17.092 M 87.880 67.548 C 84.557 70.872, 77.567 71.272, 70.823 68.525 C 69.444 67.963, 69.022 68.669, 68.448 72.499 C 68.031 75.279, 68.188 78.117, 68.837 79.542 C 69.563 81.134, 69.588 82.136, 68.914 82.553 C 68.042 83.092, 68.555 91.254, 69.575 93.069 C 70.022 93.865, 88.211 89.189, 89.437 87.963 C 89.989 87.411, 91.654 83.932, 93.139 80.230 C 95.824 73.533, 95.828 73.492, 93.833 71.931 C 92.731 71.068, 91.980 69.510, 92.165 68.467 C 92.597 66.022, 89.970 65.458, 87.880 67.548 M 62 115 C 62 116.111, 62.667 117, 63.500 117 C 64.333 117, 65 116.111, 65 115 C 65 113.889, 64.333 113, 63.500 113 C 62.667 113, 62 113.889, 62 115 M 63.152 126.885 C 61.559 127.895, 61.960 131.154, 63.750 131.750 C 64.570 132.023, 65 131.105, 65 129.083 C 65 125.655, 65.032 125.693, 63.152 126.885" stroke="none" fill="black" fill-rule="evenodd"/>
</svg>