<svg xmlns="http://www.w3.org/2000/svg" width="192" height="144" viewBox="0 0 192 144" version="1.1">
	<path d="M 0 50.500 L 0 101 2.314 101 C 3.586 101, 9.549 100.358, 15.564 99.573 C 21.579 98.789, 33.700 97.636, 42.500 97.013 C 58.023 95.912, 58.560 95.799, 60.500 93.238 C 61.600 91.786, 63.850 89.314, 65.500 87.744 C 68.401 84.984, 68.436 84.842, 66.582 83.462 C 64.086 81.603, 65.065 79.439, 71.924 71.648 C 78.873 63.756, 85.916 53.158, 92.080 41.319 C 96.703 32.441, 97.245 30.709, 97.738 23.242 L 98.283 14.984 94.391 16.596 C 92.251 17.483, 90.050 18.550, 89.500 18.967 C 87.467 20.507, 83.057 20.972, 80.319 19.935 C 74.289 17.650, 69.067 9.939, 69.022 3.250 L 69 0 34.500 0 L 0 0 0 50.500 M 126.628 1.283 C 125.325 2.236, 124.374 5.901, 122.933 15.533 C 118.646 44.167, 118.611 44.300, 112.771 53.757 C 109.802 58.565, 106.183 64.774, 104.731 67.553 C 101.976 72.823, 94.506 94.840, 95.228 95.561 C 95.456 95.789, 101.084 96.560, 107.734 97.274 L 119.826 98.571 122.897 92.096 C 125.635 86.323, 125.807 85.444, 124.484 83.982 C 122.238 81.500, 122.617 79.552, 127.378 69.106 C 132.609 57.631, 134.001 52.881, 137.511 34.528 L 140.183 20.556 137.368 10.278 C 134.573 0.069, 134.533 -0, 131.468 -0 C 129.771 -0, 127.593 0.577, 126.628 1.283 M 172.320 1.348 C 170.020 1.982, 167.847 2.799, 167.489 3.164 C 167.132 3.529, 167.332 8.758, 167.934 14.785 L 169.030 25.742 165.449 37.121 C 160.342 53.351, 158.147 63.262, 157.502 73 C 156.642 86.007, 155.968 89.124, 153.526 91.403 C 151.575 93.224, 151.341 94.239, 151.751 99.105 L 152.224 104.710 161.024 107.345 C 165.864 108.794, 174.809 111.896, 180.900 114.240 L 191.976 118.500 191.988 126.250 C 191.995 130.512, 191.788 134, 191.530 134 C 191.271 134, 188.600 132.875, 185.594 131.500 C 182.588 130.125, 179.514 129, 178.764 129 C 178.014 129, 176.972 128.607, 176.450 128.126 C 174.587 126.411, 150.703 119.527, 141.173 117.957 C 137.455 117.345, 135.281 117.432, 133.979 118.245 C 132.469 119.188, 131.719 119.056, 130.056 117.551 C 128.909 116.512, 128 116.201, 128 116.845 C 128 118.736, 124.352 118.156, 122.872 116.030 C 121.704 114.352, 119.533 113.890, 108.245 112.917 C 100.954 112.289, 93.529 112.080, 91.745 112.453 C 89.960 112.826, 83.479 113.275, 77.343 113.449 C 71.206 113.624, 65.665 114.089, 65.030 114.482 C 64.394 114.874, 63.017 114.421, 61.971 113.473 C 60.327 111.986, 58.733 111.841, 50.284 112.407 C 36.312 113.345, 19.934 114.908, 9.500 116.300 L 0.500 117.500 0.221 130.750 L -0.058 144 95.912 144 C 148.695 144, 192.066 143.662, 192.290 143.250 C 192.515 142.838, 192.483 110.438, 192.220 71.250 L 191.742 0 184.121 0.098 C 179.929 0.152, 174.619 0.715, 172.320 1.348 M 0.392 131 C 0.392 138.425, 0.549 141.463, 0.742 137.750 C 0.934 134.037, 0.934 127.963, 0.742 124.250 C 0.549 120.537, 0.392 123.575, 0.392 131" stroke="none" fill="black" fill-rule="evenodd"/>
</svg>