<svg xmlns="http://www.w3.org/2000/svg" width="192" height="144" viewBox="0 0 192 144" version="1.1">
	<path d="M 87.380 28.802 C 86.033 28.994, 84.302 30.866, 82.630 33.938 C 79.674 39.369, 79.253 43.483, 81.524 44.753 C 82.421 45.255, 83.293 47.682, 83.645 50.650 C 84.353 56.627, 83.378 57.391, 77.082 55.793 C 74.797 55.213, 72.662 55.005, 72.337 55.330 C 72.012 55.655, 71.690 58.608, 71.623 61.893 C 71.514 67.161, 71.831 68.210, 74.307 70.796 C 76.445 73.029, 77.333 75.249, 78.037 80.114 C 79.447 89.873, 79.534 89.604, 75.122 89.183 C 71.961 88.882, 70.944 89.241, 69.622 91.129 C 68.730 92.403, 68.001 95.032, 68.002 96.973 C 68.005 101.375, 73.095 111.426, 77.494 115.714 C 80.542 118.686, 80.789 119.403, 80.761 125.214 C 80.745 128.672, 80.297 132.050, 79.766 132.722 C 79.020 133.667, 69.854 133.805, 39.401 133.331 L 0 132.719 0 138.359 L 0 144 42.067 144 L 84.135 144 83.413 141.750 C 81.949 137.186, 81.127 132.541, 81.692 132.028 C 82.012 131.738, 82.481 132.081, 82.734 132.792 C 83.092 133.795, 83.513 133.819, 84.621 132.899 C 86.617 131.243, 87.041 132.001, 87.702 138.404 L 88.282 144.018 140.391 143.759 L 192.500 143.500 192.701 137.500 C 192.812 134.200, 192.662 132.063, 192.368 132.750 C 191.951 133.725, 181.408 134, 144.464 134 C 95.341 134, 89.331 133.558, 94.004 130.285 C 95.102 129.516, 96 128.050, 96 127.027 C 96 126.004, 96.486 125.005, 97.080 124.807 C 98.423 124.359, 96.587 119.879, 93.163 115.248 C 91.003 112.326, 90.887 111.687, 92.018 108.957 C 92.831 106.995, 93.058 103.834, 92.661 100.032 C 92.148 95.127, 92.446 93.241, 94.444 88.723 C 95.763 85.740, 97.368 81.320, 98.011 78.900 C 98.653 76.480, 100.009 73.600, 101.023 72.500 C 105.020 68.164, 106.111 61.049, 103.540 56.077 C 101.852 52.814, 99.546 51.983, 94.171 52.704 C 91.365 53.080, 90.318 52.853, 90.277 51.859 C 90.246 51.112, 89.792 47.927, 89.267 44.782 C 88.521 40.314, 88.628 38.413, 89.757 36.083 C 91.641 32.192, 90.394 28.371, 87.380 28.802 M 0.310 138.500 C 0.315 141.800, 0.502 143.029, 0.725 141.232 C 0.947 139.435, 0.943 136.735, 0.715 135.232 C 0.486 133.729, 0.304 135.200, 0.310 138.500" stroke="none" fill="black" fill-rule="evenodd"/>
</svg>