<svg xmlns="http://www.w3.org/2000/svg" width="192" height="144" viewBox="0 0 192 144" version="1.1">
	<path d="M 115.253 24.497 C 111.764 26.644, 110.896 27.797, 110.390 30.965 C 109.817 34.547, 109.454 34.900, 105.257 35.957 L 100.740 37.094 102.985 39.484 C 104.425 41.017, 105.343 43.420, 105.546 46.187 C 105.798 49.628, 106.524 51.055, 109.137 53.244 C 111.584 55.296, 112.124 56.276, 111.273 57.127 C 109.235 59.165, 117.049 69, 120.706 69 C 122.002 69, 123.314 69.653, 123.620 70.452 C 124.754 73.408, 122.992 73.814, 116.960 71.988 C 112.389 70.604, 109.104 70.298, 103.431 70.727 C 95.520 71.325, 95.151 71.228, 75.500 63.388 C 72.200 62.071, 68.804 60.996, 67.953 60.997 C 66.387 61, 65.090 60.135, 57.766 54.202 C 55.527 52.387, 53.052 51.150, 52.266 51.452 C 51.480 51.753, 48.533 52, 45.718 52 C 41.822 52, 40.878 52.278, 41.765 53.165 C 42.652 54.052, 42.521 54.645, 41.215 55.646 C 39.830 56.709, 39.757 57.131, 40.835 57.843 C 41.570 58.327, 42.106 59.123, 42.026 59.612 C 41.947 60.100, 42.696 60.725, 43.691 61 C 44.686 61.275, 45.500 62.175, 45.500 63 C 45.500 64.061, 46.379 64.420, 48.500 64.227 C 51.554 63.949, 60.279 67.781, 62.372 70.320 C 62.993 71.072, 66.425 72.708, 70 73.956 C 73.575 75.204, 79.875 77.474, 84 79.001 C 92.823 82.267, 98.745 83.698, 110.135 85.314 L 118.490 86.500 119.621 94 C 120.243 98.125, 121.079 102.912, 121.479 104.639 C 122.155 107.558, 121.971 107.852, 118.853 108.849 C 117.009 109.439, 110.399 110.016, 104.165 110.132 C 95.275 110.298, 92.641 110.037, 91.952 108.922 C 90.704 106.903, 80.265 106.966, 78.979 109 C 77.663 111.082, 77.900 118.797, 79.409 123 C 80.908 127.173, 83.641 127.830, 91.879 125.996 C 96.085 125.060, 97.421 125.064, 98.008 126.014 C 98.590 126.955, 100.626 126.977, 107.039 126.114 C 111.592 125.501, 118.902 125, 123.283 125 L 131.248 125 130.618 130.250 C 130.272 133.137, 129.719 137.412, 129.390 139.750 L 128.790 144 152.962 144 L 177.135 144 176.435 141.750 C 175.524 138.825, 170.608 133.262, 165.215 129.055 C 160.424 125.318, 160.242 123.644, 164.577 123.202 C 175.341 122.106, 184.642 117.174, 188.563 110.482 C 192.659 103.494, 191.421 97.601, 184.102 89.249 C 172.191 75.657, 168.484 71.909, 166.444 71.396 C 165.231 71.092, 162.182 68.697, 159.668 66.073 C 156.219 62.475, 155.380 61.020, 156.248 60.152 C 156.882 59.518, 158.226 59, 159.235 59 C 160.717 59, 160.878 58.641, 160.070 57.131 C 159.520 56.104, 159.274 55.060, 159.522 54.811 C 159.771 54.563, 157.479 52.205, 154.430 49.572 C 150.623 46.286, 148.938 44.114, 149.053 42.643 C 149.415 38.032, 148.890 36.177, 145.982 31.787 C 142.240 26.137, 135.417 22.897, 126 22.299 C 120.328 21.938, 118.959 22.218, 115.253 24.497" stroke="none" fill="black" fill-rule="evenodd"/>
</svg>