<svg xmlns="http://www.w3.org/2000/svg" width="192" height="144" viewBox="0 0 192 144" version="1.1">
	<path d="M 0 70.500 L 0 141 2.750 141.029 C 4.263 141.045, 12.700 141.711, 21.500 142.508 C 30.300 143.305, 45.600 143.951, 55.500 143.944 L 73.500 143.930 80 136.224 C 87.381 127.473, 90.319 123.091, 96.637 111.405 C 99.086 106.876, 101.744 102.627, 102.544 101.963 C 103.345 101.299, 104 99.872, 104 98.793 C 104 96.173, 80.561 73.156, 77.105 72.382 C 67.829 70.307, 66.282 69.578, 62.250 65.385 C 58.602 61.591, 58 60.359, 58 56.691 C 58 52.958, 58.535 51.917, 62.227 48.459 C 71.764 39.526, 75.575 38.817, 82.150 44.750 C 88.479 50.461, 90.734 57.426, 87.434 61.073 C 85.982 62.677, 86.565 63.335, 95.482 70.151 C 100.769 74.193, 105.466 77.631, 105.920 77.791 C 107.413 78.317, 107.825 74.100, 106.397 72.914 C 104.295 71.170, 104.713 67.250, 107.382 63.683 C 111.420 58.287, 113.017 54.336, 112.403 51.265 C 112.011 49.305, 112.333 47.968, 113.414 47.072 C 115.498 45.342, 115.417 42.752, 113.139 38.210 C 112.115 36.170, 111.502 33.866, 111.775 33.091 C 112.140 32.058, 111.768 31.876, 110.386 32.411 C 104.454 34.705, 103.480 34.395, 99.179 28.843 C 96.903 25.904, 94.345 22.777, 93.496 21.894 C 92.647 21.010, 92.235 19.552, 92.580 18.652 C 93.047 17.434, 92.098 16.495, 88.854 14.964 C 81.471 11.482, 73.778 7.134, 71.589 5.207 C 65.553 -0.105, 66.347 -0, 32.035 -0 L 0 0 0 70.500 M 172 48.815 C 172 49.862, 175.882 51.333, 181.750 52.508 C 185.050 53.169, 186.292 55, 183.441 55 C 182.584 55, 182.134 55.408, 182.442 55.907 C 182.751 56.405, 182.102 56.578, 181.001 56.290 C 177.852 55.466, 178.639 57.897, 182.137 59.797 C 186.051 61.922, 190.840 65.930, 189.500 65.958 C 188.950 65.969, 186.291 65.308, 183.591 64.489 C 177.935 62.773, 173.598 62.540, 174.500 64 C 174.840 64.550, 174.416 65, 173.559 65 C 171.277 65, 171.657 66.529, 174.250 67.780 C 177.233 69.218, 174.618 69.299, 169.656 67.922 C 167.542 67.335, 165.603 67.063, 165.348 67.319 C 165.092 67.574, 165.977 70.420, 167.314 73.642 C 168.651 76.864, 170.288 81.188, 170.950 83.250 C 172.653 88.549, 175 88.201, 175 82.649 C 175 76.060, 176.665 72.387, 180.471 70.581 C 186.465 67.736, 190.073 68.709, 191.295 73.500 C 191.575 74.600, 191.736 70.582, 191.653 64.570 L 191.500 53.640 188.500 52.791 C 186.850 52.324, 183.250 51.322, 180.500 50.564 C 177.750 49.806, 174.713 48.871, 173.750 48.486 C 172.763 48.091, 172 48.235, 172 48.815 M 125.214 99.029 C 124.515 100.148, 122.526 101.926, 120.793 102.980 C 119.061 104.033, 115.498 107.956, 112.875 111.698 C 97.205 134.054, 96.781 134.760, 96.259 139.399 L 95.740 144 101.120 143.988 C 105.988 143.976, 106.928 143.591, 111 139.936 C 125.997 126.474, 136.083 114.804, 135.939 111.079 C 135.863 109.138, 128.885 97.772, 127.492 97.321 C 126.938 97.142, 125.913 97.910, 125.214 99.029 M 180 106.305 C 180 107.216, 188.193 112.102, 189.173 111.776 C 189.742 111.586, 187.911 110.181, 185.104 108.653 C 182.297 107.125, 180 106.068, 180 106.305" stroke="none" fill="black" fill-rule="evenodd"/>
</svg>