<svg xmlns="http://www.w3.org/2000/svg" width="192" height="144" viewBox="0 0 192 144" version="1.1">
	<path d="M 0 72 L 0 144 28.038 144 L 56.076 144 55.788 141.304 C 55.536 138.942, 55.995 138.457, 59.500 137.381 C 61.700 136.706, 65.686 136.119, 68.357 136.077 C 72.227 136.016, 73.098 135.698, 72.643 134.512 C 72.329 133.694, 71.772 130.759, 71.404 127.990 C 70.654 122.337, 69 120.239, 69 124.941 C 69 126.623, 68.559 128, 68.019 128 C 66.139 128, 65.959 123.426, 67.410 112.519 C 68.214 106.480, 68.722 101.389, 68.539 101.206 C 68.356 101.023, 65.933 102.062, 63.154 103.515 C 59.323 105.518, 57.667 105.913, 56.303 105.150 C 54.957 104.397, 53.678 104.654, 51.221 106.172 C 49.175 107.437, 47.064 107.982, 45.618 107.619 C 44.172 107.256, 41.313 107.995, 38.026 109.580 C 35.127 110.979, 30.670 112.370, 28.124 112.672 C 22.179 113.376, 19.295 111.219, 17.864 105 C 16.223 97.868, 14.172 82.271, 14.478 79.253 C 14.910 74.993, 18.988 59.920, 20.483 57.060 C 22.994 52.257, 27.676 48.732, 32.523 47.997 C 39.324 46.964, 41.482 47.678, 42.829 51.405 C 44.598 56.295, 44.365 56.718, 39.503 57.447 C 35.029 58.118, 33 59.990, 33 63.445 C 33 64.312, 32.049 67.044, 30.887 69.516 C 29.413 72.653, 28.964 74.991, 29.402 77.255 C 29.748 79.040, 30.243 82.075, 30.503 84 C 30.763 85.925, 31.234 89.412, 31.549 91.750 C 31.865 94.088, 32.299 96, 32.514 96 C 33.754 96, 38 93.544, 38 92.826 C 38 92.358, 39.939 91.032, 42.309 89.881 C 44.678 88.729, 47.041 86.823, 47.559 85.644 C 48.353 83.835, 49.870 83.320, 57.281 82.345 C 62.110 81.710, 66.722 80.937, 67.531 80.627 C 69.546 79.853, 69.380 76.397, 67.250 74.807 C 65.245 73.310, 57.836 63.633, 56.059 60.191 C 54.221 56.632, 55.701 52.405, 59.968 49.026 C 62.069 47.361, 64.286 46, 64.894 46 C 66.986 46, 65.997 44.216, 63.567 43.606 C 62.228 43.270, 60.848 42.096, 60.499 40.998 C 60.151 39.899, 59.446 39, 58.933 39 C 56.298 39, 58.599 35.779, 62.999 33.308 C 68.394 30.277, 68.375 30.319, 67.080 24.745 C 66.012 20.145, 66.870 19.501, 71.490 21.431 L 75.068 22.926 76.682 19.541 C 78.984 14.712, 81.645 14.292, 82.458 18.627 L 83.095 22.021 89.797 21.861 C 99.638 21.626, 111.005 22.490, 115 23.777 C 116.925 24.396, 120.427 25.263, 122.782 25.702 L 127.065 26.500 124.048 30.143 L 121.031 33.786 124.265 36.265 C 128.416 39.446, 133 44.052, 133 45.043 C 133 45.466, 131.532 45.362, 129.739 44.812 C 127.188 44.029, 125.172 44.234, 120.489 45.752 L 114.500 47.693 113.899 52.596 C 113.546 55.480, 114.072 62.649, 115.175 70 C 116.831 81.031, 117.605 83.575, 121.764 91.646 C 126.243 100.338, 126.414 100.966, 125.214 104.284 C 124.483 106.306, 124.168 109.948, 124.465 112.937 C 125.104 119.352, 127.763 130.998, 128.916 132.431 C 129.389 133.019, 130.095 135.869, 130.484 138.764 L 131.192 144.029 161.846 143.764 L 192.500 143.500 192.757 71.750 L 193.013 0 96.507 0 L 0 0 0 72 M 0.474 72.500 C 0.474 112.100, 0.598 128.154, 0.750 108.176 C 0.901 88.198, 0.901 55.798, 0.750 36.176 C 0.598 16.554, 0.474 32.900, 0.474 72.500 M 68.750 53.963 C 67.787 54.901, 67.002 56.305, 67.004 57.084 C 67.009 58.956, 70.723 65, 71.869 65 C 73.461 65, 73.833 61.150, 72.634 57.088 C 71.162 52.101, 70.887 51.881, 68.750 53.963 M 115.158 130 C 115.158 131.375, 115.385 131.938, 115.662 131.250 C 115.940 130.563, 115.940 129.438, 115.662 128.750 C 115.385 128.063, 115.158 128.625, 115.158 130" stroke="none" fill="black" fill-rule="evenodd"/>
</svg>