<svg xmlns="http://www.w3.org/2000/svg" width="192" height="144" viewBox="0 0 192 144" version="1.1">
	<path d="M 62.800 13.200 C 64.853 15.253, 64.142 16, 60.135 16 C 56.020 16, 51 19.055, 51 21.559 C 51 22.337, 49.370 23.654, 47.378 24.487 C 44.383 25.738, 43.964 26.252, 44.960 27.452 C 45.623 28.251, 45.884 29.789, 45.541 30.870 C 45.074 32.341, 45.808 33.514, 48.459 35.536 C 51.667 37.983, 52 38.700, 52 43.151 C 52 45.853, 51.303 49.731, 50.452 51.769 C 49.601 53.807, 48.770 59.080, 48.607 63.487 C 48.343 70.591, 47.883 72.269, 44.548 78.276 C 41.426 83.902, 40.900 85.652, 41.449 88.582 C 42.389 93.589, 45.194 96.111, 48.979 95.354 C 50.881 94.974, 52 95.159, 52 95.854 C 52 96.461, 50.015 103.155, 47.590 110.729 C 43.330 124.030, 40 137.731, 40 141.958 C 40 143.954, 40.511 144, 62.629 144 L 85.258 144 84.629 137.250 C 83.463 124.749, 82.066 99.598, 81.782 86 C 81.513 73.142, 81.607 72.393, 83.750 70.250 C 86.340 67.660, 86.382 67.395, 84.890 63.115 C 83.913 60.313, 84.093 59.457, 86.390 55.987 C 87.826 53.818, 89 51.661, 89 51.195 C 89 50.728, 86.335 48.416, 83.078 46.056 C 77.609 42.095, 77.105 41.401, 76.499 36.996 C 76.139 34.373, 76.139 30.253, 76.501 27.841 C 77.153 23.496, 77.104 23.404, 71.154 17.728 C 67.851 14.578, 64.350 12, 63.374 12 C 61.994 12, 61.867 12.267, 62.800 13.200" stroke="none" fill="black" fill-rule="evenodd"/>
</svg>