<svg xmlns="http://www.w3.org/2000/svg" width="192" height="144" viewBox="0 0 192 144" version="1.1">
	<path d="M 0 72 L 0 144 11.763 144 L 23.526 144 27.868 138.440 C 31.425 133.887, 32.088 132.394, 31.534 130.190 C 30.567 126.350, 30.358 113.897, 31.250 113.346 C 31.662 113.091, 32 111.559, 32 109.941 C 32 108.323, 32.406 107, 32.902 107 C 34.285 107, 36 101.191, 36 96.506 C 36 91.215, 37.753 89.599, 45.296 87.938 C 48.483 87.236, 51.366 86.217, 51.702 85.673 C 52.084 85.054, 51.413 84.963, 49.906 85.428 C 48.583 85.836, 45.101 86.633, 42.168 87.199 C 37.622 88.076, 36.339 87.959, 33.454 86.405 C 30.097 84.597, 30.053 84.601, 27.536 86.966 C 24.488 89.830, 24.326 88.770, 26.976 83.287 C 29.093 78.905, 33.272 61.606, 32.790 59.216 C 32.631 58.423, 29.800 56.770, 26.500 55.543 C 21.715 53.764, 20.430 52.825, 20.154 50.906 C 19.964 49.583, 19.405 48.009, 18.913 47.408 C 17.787 46.034, 18.772 45, 21.207 45 C 22.237 45, 24.797 44.124, 26.896 43.053 C 30.528 41.200, 30.738 40.825, 31.240 35.303 C 32.069 26.186, 34.065 20.965, 38.473 16.390 C 42.481 12.229, 47.582 10.017, 53.199 10.006 C 55.105 10.002, 56.683 8.971, 58.568 6.500 C 60.036 4.575, 61.855 3, 62.609 3 C 63.364 3, 64.998 4.569, 66.241 6.488 C 67.980 9.172, 69.191 9.983, 71.500 10.010 C 75.411 10.054, 82.747 13.410, 86.363 16.809 C 93.147 23.184, 96.997 33.843, 94.796 40.155 C 94.022 42.377, 94.278 43.721, 96.088 46.943 C 98.271 50.827, 98.286 51.027, 96.541 52.955 C 95.068 54.582, 94.861 55.896, 95.417 60.085 C 95.792 62.909, 96.697 66.183, 97.430 67.360 C 99.122 70.078, 100.389 75.359, 99.169 74.604 C 97.509 73.578, 97.015 82.300, 98.557 85.404 C 100.853 90.023, 100.390 91.976, 97.745 88.827 C 95.924 86.659, 95.075 86.322, 93.250 87.045 C 90.200 88.252, 90.370 88.638, 94.998 90.999 C 98.457 92.763, 98.985 93.474, 98.915 96.269 C 98.870 98.046, 99.648 102.310, 100.644 105.745 C 102.196 111.099, 102.729 111.903, 104.379 111.380 C 105.946 110.882, 106.166 111.115, 105.566 112.635 C 103.427 118.053, 103.710 120.863, 106.692 123.846 C 109.289 126.443, 109.473 127, 108.271 128.642 C 106.819 130.626, 107.100 132.830, 109.689 139.761 L 111.280 144.022 151.890 143.761 L 192.500 143.500 192.757 71.750 L 193.013 0 96.507 0 L 0 0 0 72 M 0.474 72.500 C 0.474 112.100, 0.598 128.154, 0.750 108.176 C 0.901 88.198, 0.901 55.798, 0.750 36.176 C 0.598 16.554, 0.474 32.900, 0.474 72.500 M 181 13.382 C 181 14.207, 181.450 15.160, 182 15.500 C 182.550 15.840, 183 15.443, 183 14.618 C 183 13.793, 182.550 12.840, 182 12.500 C 181.450 12.160, 181 12.557, 181 13.382 M 153.813 36.683 C 154.534 36.972, 155.397 36.936, 155.729 36.604 C 156.061 36.272, 155.471 36.036, 154.417 36.079 C 153.252 36.127, 153.015 36.364, 153.813 36.683 M 118 97 C 118 97.550, 118.450 98, 119 98 C 119.550 98, 120 97.550, 120 97 C 120 96.450, 119.550 96, 119 96 C 118.450 96, 118 96.450, 118 97" stroke="none" fill="black" fill-rule="evenodd"/>
</svg>