<svg xmlns="http://www.w3.org/2000/svg" width="192" height="144" viewBox="0 0 192 144" version="1.1">
	<path d="M 0 22.500 C 0 36.962, 0.360 45, 1.009 45 C 2.161 45, 5.625 42.062, 14.568 33.500 C 22.267 26.129, 29.075 20.236, 35 15.814 C 41.162 11.215, 53.761 3.007, 54.718 2.968 C 55.148 2.951, 56.374 2.276, 57.441 1.468 C 59.162 0.167, 56.012 0, 29.691 0 L 0 0 0 22.500 M 142 0.941 C 142 1.459, 142.439 2.153, 142.976 2.485 C 145.187 3.852, 151 13.898, 151 16.354 C 151 19.520, 150.483 19.592, 146.250 17.011 L 143 15.029 143 17.297 C 143 18.544, 143.697 22.025, 144.549 25.032 C 148.669 39.576, 149.340 52.880, 146.453 62.811 C 142.181 77.505, 130.257 88.102, 119.603 86.674 C 115.116 86.072, 110 81.495, 110 78.084 C 110 75.368, 102.791 60.244, 99.115 55.250 C 96.066 51.107, 93 49.648, 93 52.339 C 93 53.914, 89.621 55.605, 84.589 56.549 C 80.524 57.312, 80.429 57.547, 82.502 61.704 C 83.328 63.360, 84.499 68.492, 85.102 73.108 C 85.929 79.428, 86.916 82.611, 89.101 86 C 93.689 93.115, 99.089 98.392, 104.500 101.047 C 111.181 104.325, 124.898 104.701, 135.377 101.894 C 142.023 100.114, 142.959 99.501, 149.352 92.743 C 155.411 86.339, 164 75.086, 164 73.552 C 164 73.245, 165.341 70.858, 166.981 68.247 C 169.648 63.999, 169.964 63.773, 169.981 66.096 C 170.005 69.328, 168.089 73.251, 161.401 83.662 C 158.517 88.152, 156.412 92.078, 156.722 92.388 C 157.031 92.698, 156.658 93.711, 155.893 94.640 C 154.627 96.173, 154.699 96.221, 156.684 95.164 C 157.886 94.524, 161.288 94, 164.244 94 C 168.951 94, 170.030 94.401, 172.916 97.222 C 175.906 100.146, 176.157 100.839, 175.625 104.721 C 175.302 107.074, 174.770 110.067, 174.442 111.374 C 173.922 113.447, 174.273 113.829, 177.205 114.379 C 179.871 114.879, 180.607 115.525, 180.771 117.509 C 180.973 119.939, 180.806 120.005, 174.881 119.872 C 171.527 119.796, 168.494 120.175, 168.141 120.714 C 164.288 126.602, 150.094 137.045, 144 138.475 C 143.725 138.539, 141.250 139.792, 138.500 141.258 L 133.500 143.924 163 143.712 L 192.500 143.500 192.829 133 C 193.011 127.225, 192.844 94.938, 192.459 61.250 L 191.760 0 166.880 0 C 152 0, 142 0.378, 142 0.941 M 55.208 50.567 C 53.097 52.045, 49.990 57.906, 50.009 60.372 C 50.020 61.892, 59.904 51.837, 59.958 50.250 C 60.016 48.540, 57.901 48.681, 55.208 50.567 M 1 104.277 L 1 144 25.622 144 C 49.644 144, 50.211 143.954, 48.872 142.096 C 36.630 125.105, 34.040 120.436, 24.971 99 C 22.062 92.125, 18.853 85.427, 17.841 84.115 C 16.828 82.803, 15.997 81.228, 15.994 80.615 C 15.990 80.002, 14.679 78.756, 13.079 77.846 C 11.480 76.936, 9.345 74.929, 8.336 73.386 C 7.326 71.843, 5.263 69.225, 3.750 67.568 L 1 64.554 1 104.277" stroke="none" fill="black" fill-rule="evenodd"/>
</svg>