<svg xmlns="http://www.w3.org/2000/svg" width="192" height="144" viewBox="0 0 192 144" version="1.1">
	<path d="M 0 72 L 0 144 16.465 144 C 31.720 144, 33.006 143.858, 33.965 142.066 C 35.688 138.847, 35.237 137.724, 32.500 138.411 C 28.733 139.356, 29.474 137.247, 33.500 135.564 C 35.425 134.760, 37 133.612, 37 133.013 C 37 131.869, 52.433 111.469, 54.059 110.464 C 54.576 110.144, 55 108.975, 55 107.865 C 55 106.756, 56.820 102.732, 59.045 98.923 C 64.642 89.340, 65.839 85.399, 66.068 75.809 C 66.243 68.442, 66.068 67.518, 64.520 67.658 C 63.049 67.791, 62.871 67.238, 63.386 64.158 C 63.723 62.146, 64.277 59.487, 64.616 58.250 C 65.062 56.626, 64.806 56, 63.698 56 C 61.821 56, 58.860 51.334, 56.083 44 C 53.762 37.869, 53.657 37.089, 54.893 35.140 C 55.613 34.003, 57.101 34.070, 63.936 35.547 C 71.687 37.222, 72.307 37.224, 75.724 35.595 C 80.296 33.414, 94.868 31.646, 96.577 33.064 C 97.250 33.623, 98.832 37.224, 100.092 41.067 C 102.051 47.042, 102.210 48.531, 101.191 51.348 C 100.536 53.160, 100 55.402, 100 56.331 C 100 57.260, 99.100 58.790, 98 59.732 C 96.694 60.851, 96.005 62.668, 96.015 64.972 C 96.035 69.399, 96.840 70.671, 100.150 71.502 C 104.820 72.674, 107.968 77.118, 110.061 85.495 C 111.128 89.762, 112 94.360, 112 95.713 C 112 97.359, 113.986 100.241, 118 104.421 C 124.033 110.705, 124.952 112.648, 122.873 114.727 C 121.375 116.225, 122.628 121, 124.519 121 C 125.334 121, 126 121.705, 126 122.566 C 126 125.067, 120.708 123.974, 119.502 121.224 C 118.333 118.559, 116.235 118.676, 114.535 121.500 C 113.571 123.101, 113.723 125.550, 115.295 133.762 L 117.260 144.024 154.880 143.762 L 192.500 143.500 192.757 71.750 L 193.013 0 96.507 0 L 0 0 0 72 M 0.474 72.500 C 0.474 112.100, 0.598 128.154, 0.750 108.176 C 0.901 88.198, 0.901 55.798, 0.750 36.176 C 0.598 16.554, 0.474 32.900, 0.474 72.500 M 79.545 113.510 C 77.522 115.980, 75.305 118, 74.620 118 C 72.998 118, 68.936 122.455, 65.956 127.500 C 64.657 129.700, 60.914 134.313, 57.639 137.750 L 51.683 144 62.262 144 L 72.841 144 73.550 140.750 C 75.027 133.973, 79.159 122.585, 81.162 119.773 C 83.484 116.512, 85.219 110.253, 84.008 109.505 C 83.577 109.238, 81.569 111.041, 79.545 113.510" stroke="none" fill="black" fill-rule="evenodd"/>
</svg>