<svg xmlns="http://www.w3.org/2000/svg" width="192" height="144" viewBox="0 0 192 144" version="1.1">
	<path d="M 0 50.319 L 0 100.638 6.750 99.888 C 10.463 99.476, 17.861 98.658, 23.192 98.070 C 28.522 97.481, 35.272 96.994, 38.192 96.986 C 46.412 96.965, 47.712 96.320, 49.624 91.315 C 50.563 88.855, 52.608 85.081, 54.166 82.929 C 57.627 78.152, 57.650 77.686, 54.500 76 C 53.125 75.264, 52 74.200, 52 73.635 C 52 72.193, 56.568 65.495, 61.981 59 C 72.539 46.330, 73.896 44.157, 84.770 22.500 C 88.636 14.800, 92.109 6.588, 92.487 4.250 L 93.176 0 46.588 0 L 0 0 0 50.319 M 124.556 1.250 C 124.346 1.938, 123.210 6.775, 122.031 12 C 119.261 24.272, 118.892 25.159, 111.271 37.820 C 102.761 51.959, 97.526 63.061, 94.963 72.403 C 93.808 76.613, 91.591 83.143, 90.035 86.915 L 87.207 93.772 90.354 94.268 C 92.084 94.541, 97.775 94.838, 103 94.929 C 108.225 95.019, 118.566 95.692, 125.980 96.424 C 141.784 97.984, 140.795 98.507, 143.942 86.932 C 146.402 77.885, 146.542 73.219, 144.443 70.223 C 141.512 66.037, 137.145 67.753, 131.648 75.250 C 126.791 81.874, 123.300 79.290, 127.051 71.847 C 129.506 66.974, 133.396 61.880, 142.767 51.264 L 149.155 44.028 146.577 42.853 C 145.160 42.207, 144 41.148, 144 40.498 C 144 39.849, 146.588 35.670, 149.750 31.212 C 152.912 26.753, 157.997 19.594, 161.048 15.303 C 164.100 11.011, 167.572 5.813, 168.764 3.750 L 170.933 0 147.935 0 C 130.407 0, 124.847 0.297, 124.556 1.250 M 189.682 49.032 C 188.700 51.799, 186.950 55.665, 185.795 57.623 C 183.622 61.306, 182.631 61.505, 176.385 59.512 C 174.346 58.862, 174.249 59.212, 173.720 69.169 C 173.418 74.851, 172.686 81.098, 172.093 83.050 C 170.859 87.118, 162.959 96.856, 159.292 98.828 C 157.934 99.559, 156.976 100.309, 157.162 100.495 C 157.617 100.950, 184.642 107.156, 188.750 107.750 L 192 108.219 192 76.109 C 192 58.449, 191.881 44, 191.735 44 C 191.589 44, 190.665 46.264, 189.682 49.032 M 81.249 93.250 C 81.694 94.586, 86 95.239, 86 93.970 C 86 93.171, 83.524 92, 81.835 92 C 81.284 92, 81.021 92.563, 81.249 93.250 M 2.250 115.668 C 0.047 116.129, -0 116.429, -0 130.075 L -0 144.010 96.250 143.755 L 192.500 143.500 192.566 129 C 192.602 121.025, 192.472 117.671, 192.276 121.548 L 191.921 128.595 183.653 126.922 C 179.106 126.001, 169.112 124.726, 161.443 124.089 C 153.774 123.451, 140.975 122.048, 133 120.971 C 119.022 119.084, 93.642 117.048, 83.698 117.015 C 79.256 117.001, 78.818 117.225, 77.850 120 C 77.275 121.650, 76.206 123, 75.474 123 C 73.517 123, 71 120.146, 71 117.929 C 71 115.602, 69.453 115.378, 68.607 117.582 C 68.273 118.452, 68 122.291, 68 126.113 C 68 133.526, 66.608 135.579, 63.391 132.909 C 62.131 131.864, 61.879 129.999, 62.161 123.797 C 62.355 119.509, 62.204 116, 61.825 116 C 60.441 116, 59.908 120.072, 60.201 128.391 C 60.544 138.157, 59.426 140.601, 56.024 137.521 C 54.255 135.921, 54 134.458, 54 125.904 C 54 120.522, 53.567 115.851, 53.038 115.524 C 51.694 114.693, 48.401 121.605, 47.570 127 C 46.681 132.775, 43.903 138.500, 41.991 138.500 C 39.646 138.500, 39.624 131.976, 41.943 124.193 C 43.074 120.393, 44 116.864, 44 116.350 C 44 115.396, 6.476 114.783, 2.250 115.668 M 0.397 130 C 0.397 137.975, 0.553 141.238, 0.743 137.250 C 0.932 133.262, 0.932 126.737, 0.743 122.750 C 0.553 118.763, 0.397 122.025, 0.397 130" stroke="none" fill="black" fill-rule="evenodd"/>
</svg>