<svg xmlns="http://www.w3.org/2000/svg" width="192" height="144" viewBox="0 0 192 144" version="1.1">
	<path d="M 0 72 L 0 144 30 144 L 60 144 60 141.559 C 60 140.216, 60.450 138.840, 61 138.500 C 61.583 138.139, 62 139.156, 62 140.941 L 62 144 86.500 144 C 99.975 144, 111 143.732, 111 143.404 C 111 142.400, 107.548 136.521, 106.750 136.167 C 106.337 135.983, 105.985 135.083, 105.967 134.167 C 105.948 133.250, 104.208 128, 102.100 122.500 C 98.444 112.961, 98.340 112.373, 99.849 109.750 C 100.719 108.237, 101.742 107, 102.123 107 C 102.503 107, 104.938 109.363, 107.533 112.250 C 110.128 115.138, 113 117.547, 113.916 117.603 C 114.831 117.660, 116.866 118.898, 118.436 120.353 C 120.007 121.809, 121.939 123, 122.729 123 C 123.520 123, 123.965 123.562, 123.718 124.250 C 123.072 126.053, 124.820 129, 126.535 129 C 130.606 129, 126.604 119.148, 121.050 115.500 C 119.376 114.400, 118.004 113.145, 118.003 112.710 C 118.001 112.276, 115.075 108.806, 111.500 105 C 105.654 98.775, 105 97.661, 105 93.925 L 105 89.770 107.587 91.465 C 109.009 92.397, 110.414 92.920, 110.707 92.626 C 111.750 91.583, 109.937 87, 108.481 87 C 107.666 87, 107 86.546, 107 85.991 C 107 85.360, 109.007 85.218, 112.366 85.613 C 115.900 86.029, 117.969 85.860, 118.427 85.118 C 118.810 84.499, 120.136 84.247, 121.375 84.558 C 124.861 85.433, 128.325 82.145, 127.477 78.765 C 127.105 77.284, 125.958 75.804, 124.927 75.477 C 123.896 75.149, 122.110 73.558, 120.958 71.941 C 118.620 68.658, 114.712 68.028, 111.454 70.410 C 109.563 71.793, 109.562 71.858, 111.418 73.910 L 113.310 76 106.762 76 C 101.785 76, 100.072 75.630, 99.622 74.458 C 99.297 73.610, 97.561 72.278, 95.765 71.497 C 93.969 70.717, 93.091 70.061, 93.813 70.039 C 94.593 70.016, 94.999 69.087, 94.813 67.750 C 94.402 64.795, 97.486 65.209, 101.059 68.588 L 103.618 71.008 106.187 68.254 C 109.767 64.416, 111 61.696, 111 57.638 C 111 52.820, 107.338 50, 101.081 50 C 96.975 50, 96.224 49.649, 94.659 47 C 93.684 45.350, 92.511 44, 92.052 44 C 91.593 44, 90.910 42.763, 90.534 41.250 C 89.745 38.070, 86.260 34, 84.326 34 C 83.597 34, 82.100 34.900, 81 36 C 79.900 37.100, 78.662 37.914, 78.250 37.810 C 77.837 37.705, 76.019 37.970, 74.209 38.398 C 72.041 38.911, 70.420 38.764, 69.459 37.966 C 67.321 36.191, 65.300 38.263, 64.490 43.062 C 64.123 45.232, 63.451 46.779, 62.997 46.498 C 62.543 46.217, 62.020 46.445, 61.835 47.003 C 61.651 47.562, 61.635 37.215, 61.801 24.009 L 62.101 -0 31.051 -0 L 0 0 0 72 M 98 54.066 C 98 54.652, 98.496 56.059, 99.103 57.193 C 99.951 58.776, 99.893 59.450, 98.853 60.096 C 97.793 60.756, 98.088 61.528, 100.212 63.658 C 102.908 66.363, 102.937 66.367, 105.064 64.442 C 107.872 61.901, 110.029 57.652, 109.177 56.341 C 107.322 53.488, 98 51.591, 98 54.066 M 62 61 C 62 61.550, 62.450 62, 63 62 C 63.550 62, 64 61.550, 64 61 C 64 60.450, 63.550 60, 63 60 C 62.450 60, 62 60.450, 62 61 M 62 82 C 62 92.450, 62.337 100.987, 62.750 100.971 C 63.966 100.923, 69.378 95.682, 71.972 92.039 C 74.142 88.992, 74.349 87.791, 74.122 79.583 C 73.838 69.288, 72.520 66.254, 67.934 65.337 C 66.297 65.009, 64.716 64.350, 64.420 63.871 C 62.534 60.819, 62 64.817, 62 82 M 75.606 93.584 C 75.233 94.557, 75.456 95.015, 76.187 94.771 C 77.682 94.273, 78.505 92, 77.190 92 C 76.653 92, 75.941 92.713, 75.606 93.584 M 73.766 97.377 C 72.377 98.766, 70.396 103.331, 66.454 114.230 C 64.702 119.076, 63.586 119.423, 61.902 115.648 C 61.018 113.667, 60.984 113.695, 61.458 116 C 61.741 117.375, 61.979 122.239, 61.986 126.809 C 62.001 135.650, 63.432 137.239, 64.203 129.271 C 64.457 126.647, 66.284 121.091, 68.263 116.925 C 72.157 108.727, 76.364 97.031, 75.669 96.336 C 75.432 96.099, 74.576 96.567, 73.766 97.377 M 58.484 106.144 L 55.500 109.384 58.215 107.692 C 61.674 105.536, 61.797 105.554, 62.180 108.250 C 62.466 110.261, 62.679 110.131, 64.189 107.022 C 66.039 103.209, 65.832 102.065, 63.621 103.899 C 62.621 104.729, 62.086 104.757, 61.831 103.993 C 61.631 103.393, 60.125 104.361, 58.484 106.144 M 99.079 105.583 C 99.127 106.748, 99.364 106.985, 99.683 106.188 C 99.972 105.466, 99.936 104.603, 99.604 104.271 C 99.272 103.939, 99.036 104.529, 99.079 105.583" stroke="none" fill="black" fill-rule="evenodd"/>
</svg>