<svg xmlns="http://www.w3.org/2000/svg" width="192" height="144" viewBox="0 0 192 144" version="1.1">
	<path d="M 0 8.928 L 0 17.856 5.611 18.557 C 9.138 18.998, 11.460 18.876, 11.861 18.229 C 12.504 17.194, 14.433 16.662, 16.750 16.882 C 17.438 16.947, 18 17.930, 18 19.067 C 18 20.757, 18.411 21.004, 20.250 20.418 C 26.463 18.437, 32 20.686, 32 25.191 C 32 26.186, 32.406 27, 32.902 27 C 33.398 27, 34.298 28.417, 34.902 30.148 C 35.728 32.519, 35.699 33.658, 34.782 34.763 C 33.786 35.963, 34.103 36.654, 36.532 38.572 C 39.327 40.779, 46.772 47.265, 51.175 51.327 C 52.479 52.531, 52.900 53.725, 52.407 54.827 C 49.529 61.268, 51.575 73.619, 59.147 95.518 C 63.596 108.382, 64.385 111.808, 64.733 119.755 C 65.094 128.011, 64.941 129.080, 63.319 129.654 C 62.318 130.008, 60.504 131.194, 59.286 132.290 C 57.506 133.890, 56.212 134.164, 52.695 133.682 C 47.255 132.936, 46 134.065, 46 139.700 L 46 144 64.500 144 C 82.333 144, 83 143.928, 83 142 C 83 140.900, 82.481 140, 81.847 140 C 81.213 140, 81.696 139.131, 82.920 138.069 C 86.007 135.392, 85.473 130.706, 82 130.005 C 78.906 129.380, 75 126.867, 75 125.500 C 75 124.940, 74.076 123.904, 72.947 123.199 C 71.818 122.494, 69.333 118.537, 67.425 114.406 C 63.965 106.915, 63.957 106.864, 64.574 96.197 C 64.914 90.314, 65.128 83.175, 65.048 80.333 C 64.969 77.491, 65.601 73.498, 66.452 71.461 C 67.303 69.423, 68 66.310, 68 64.543 C 68 62.247, 68.841 60.581, 70.947 58.705 C 72.685 57.156, 74.171 54.604, 74.569 52.484 C 74.940 50.507, 76.516 45.477, 78.072 41.307 L 80.901 33.724 79.293 25.112 C 77.725 16.718, 76.054 13.452, 73 12.813 C 71.312 12.461, 68.141 5.685, 68.056 2.250 L 68 0 34 0 L 0 0 0 8.928 M 0 49.167 C 0 65.758, 0.232 79.101, 0.515 78.818 C 0.799 78.535, 1.716 75.647, 2.553 72.401 C 3.391 69.156, 6.309 62.617, 9.038 57.871 C 14.425 48.503, 14.726 46.777, 12.772 36.474 C 11.612 30.361, 11.389 30, 8.772 30 C 6.500 30, 6 29.560, 6 27.559 C 6 26.216, 6.450 24.840, 7 24.500 C 8.879 23.339, 8.002 21.899, 4.532 20.449 C 2.625 19.652, 0.825 19, 0.532 19 C 0.239 19, 0 32.575, 0 49.167 M 35.711 64.622 C 35.320 65.013, 35.018 67.171, 35.040 69.417 L 35.080 73.500 36.534 70.822 C 37.953 68.210, 37.270 63.064, 35.711 64.622 M 24.605 74.588 C 24.272 75.454, 24 77.421, 24 78.957 C 24 85.204, 22.889 87.875, 20.159 88.195 C 18.560 88.381, 17.065 89.470, 16.306 91 C 15.624 92.375, 14.489 93.500, 13.783 93.500 C 11.870 93.500, 11.605 87.573, 13.449 86.042 C 15.144 84.636, 15.550 80.458, 14.080 79.549 C 13.574 79.237, 12.224 80.171, 11.080 81.625 C 9.936 83.080, 8.993 83.872, 8.985 83.385 C 8.976 82.898, 8.584 83.107, 8.114 83.850 C 7.643 84.592, 5.738 85.511, 3.879 85.890 L 0.500 86.581 0.235 115.291 L -0.031 144 14.855 144 L 29.740 144 30.275 139.251 C 30.570 136.639, 30.602 134.164, 30.346 133.751 C 30.091 133.338, 28.099 133, 25.920 133 C 22.649 133, 21.755 132.557, 20.802 130.465 C 19.742 128.139, 19.285 127.985, 15.242 128.591 L 10.837 129.251 11.368 124.876 C 12.140 118.512, 12.908 116.369, 17.226 108.541 C 19.362 104.668, 23.109 97.450, 25.552 92.500 C 29.707 84.082, 29.950 83.145, 29.311 78 C 28.755 73.528, 28.493 72.967, 27.913 75 C 27.492 76.476, 27.159 76.808, 27.100 75.809 C 26.962 73.469, 25.339 72.675, 24.605 74.588 M 38.265 135.836 C 37.136 136.534, 35 141.264, 35 143.065 C 35 143.579, 36.350 144, 38 144 C 40.826 144, 41 143.771, 41 140.059 C 41 135.929, 40.175 134.656, 38.265 135.836" stroke="none" fill="black" fill-rule="evenodd"/>
</svg>