<svg xmlns="http://www.w3.org/2000/svg" width="192" height="144" viewBox="0 0 192 144" version="1.1">
	<path d="M 70.002 12.159 C 68.415 13.896, 65.437 19.089, 63.383 23.698 C 59.954 31.393, 59.780 32.209, 61.255 33.684 C 62.730 35.159, 62.610 35.603, 59.785 39.117 C 56.392 43.340, 56.852 45.244, 61.549 46.423 C 63.849 47, 63.966 47.330, 63.264 51.271 C 62.395 56.157, 62.427 60.835, 63.367 66.500 C 63.733 68.700, 64.052 71.297, 64.076 72.272 C 64.133 74.518, 66 73.470, 66.001 71.191 C 66.001 70.124, 66.864 69.451, 68.340 69.366 C 70.293 69.254, 70.603 69.627, 70.220 71.630 C 69.888 73.368, 70.139 73.884, 71.134 73.502 C 73.187 72.714, 73.432 114.476, 71.439 125.360 C 70.648 129.684, 70 135.653, 70 138.626 L 70 144.031 98.750 143.765 C 126.760 143.507, 127.499 143.449, 127.461 141.500 C 127.167 126.438, 124.570 112.871, 120.457 104.917 C 119.575 103.210, 118.998 101.703, 119.176 101.566 C 119.354 101.430, 121.597 100.749, 124.160 100.054 C 128.425 98.898, 128.998 98.364, 130.910 93.762 C 133.790 86.831, 133.568 84.486, 129.649 80.450 C 125.271 75.943, 119.326 75.583, 115.325 79.584 C 113.032 81.877, 112.807 82.721, 113.324 87.084 C 113.644 89.788, 113.711 92, 113.473 92 C 113.235 92, 112.140 90.234, 111.039 88.076 C 109.218 84.507, 109.132 83.398, 110.083 75.826 C 110.852 69.701, 110.815 65.834, 109.942 61.200 C 108.949 55.929, 108.987 54.704, 110.176 53.700 C 114.212 50.294, 116.597 42.701, 114.974 38.431 C 114.355 36.803, 114.803 35.282, 116.745 32.425 C 120.698 26.607, 123.224 19.286, 122.040 17.075 C 120.220 13.673, 104.639 13.275, 99.464 16.498 C 97.746 17.568, 97.066 17.472, 95.103 15.883 C 93.717 14.760, 91.208 14, 88.889 14 C 86.750 14, 85 13.562, 85 13.026 C 85 11.495, 79.419 9, 75.993 9 C 73.783 9, 72.055 9.911, 70.002 12.159 M 101.625 61.735 C 99.540 68.828, 99.758 70.816, 103.068 74.935 C 104.864 77.170, 106.526 78.808, 106.760 78.574 C 106.994 78.340, 106.468 75.683, 105.593 72.670 C 104.717 69.657, 104 65.826, 104 64.155 C 104 60.700, 102.407 59.077, 101.625 61.735 M 75.015 104.191 C 75.027 107.342, 75.291 108.097, 76 107 C 77.269 105.037, 77.269 101.284, 76 100.500 C 75.392 100.124, 75.006 101.570, 75.015 104.191" stroke="none" fill="black" fill-rule="evenodd"/>
</svg>