<svg xmlns="http://www.w3.org/2000/svg" width="192" height="144" viewBox="0 0 192 144" version="1.1">
	<path d="M 0 72 L 0 144 15.563 144 L 31.127 144 30.813 140.750 C 30.516 137.664, 30.309 137.511, 26.715 137.724 C 23.507 137.914, 22.787 137.571, 21.990 135.474 C 21.067 133.047, 18.069 132.282, 11.673 132.843 C 10.157 132.976, 9.894 132.367, 10.127 129.252 C 10.486 124.439, 11.145 122.927, 19.174 108.496 C 26.681 95.002, 32.035 82.297, 31.930 78.224 C 31.868 75.827, 31.761 75.740, 31.040 77.500 C 30.381 79.108, 30.148 78.715, 29.854 75.500 L 29.488 71.500 27.541 77.500 C 26.470 80.800, 25.572 85.750, 25.547 88.500 C 25.512 92.260, 25.151 93.425, 24.092 93.197 C 22.177 92.785, 21.034 94.848, 21.015 98.750 C 20.994 103.200, 19.566 102.833, 18.120 98.006 C 17.236 95.054, 17.212 93.472, 18.031 91.942 C 18.867 90.381, 18.823 89.458, 17.852 88.186 C 17.145 87.259, 16.428 86.302, 16.260 86.060 C 16.092 85.819, 15.300 86.555, 14.500 87.696 C 12.803 90.120, 8.157 91.557, 6.707 90.107 C 6.148 89.548, 5.778 84.817, 5.872 79.439 C 6.038 69.936, 6.124 69.616, 11.039 60.113 L 16.038 50.450 15.769 40.231 L 15.500 30.011 12.809 30.005 C 9.250 29.998, 8.463 28.468, 10.455 25.428 C 12.475 22.345, 11.883 21.337, 6.873 19.333 C 1.320 17.111, 2.711 16.601, 9.495 18.373 C 13.732 19.479, 15.807 19.589, 17.539 18.800 C 20.592 17.409, 23.366 18.491, 22.754 20.833 C 22.333 22.442, 22.847 22.594, 27.430 22.214 C 33.496 21.711, 33.988 22.139, 36.904 30.454 C 38.290 34.407, 38.657 36.743, 37.996 37.404 C 36.037 39.363, 37.111 41.132, 45.089 49.089 C 52.456 56.436, 53.103 57.394, 52.339 59.828 C 51.877 61.298, 51.591 65.875, 51.703 70 C 51.873 76.312, 52.998 80.746, 58.805 98 C 66.095 119.659, 68.494 132, 65.415 132 C 64.584 132, 62.794 133.198, 61.438 134.662 C 59.386 136.875, 58.194 137.294, 54.354 137.149 C 49.072 136.949, 47 138.214, 47 141.639 L 47 144.033 73.750 143.766 C 90.861 143.596, 100.449 143.140, 100.357 142.500 C 100.056 140.390, 104.129 134.003, 107.335 131.558 C 109.277 130.077, 112.003 129, 113.809 129 C 117.925 129, 119 126.804, 119 118.394 C 119 113.726, 118.526 111.134, 117.457 109.953 C 116.609 109.015, 115.673 106.505, 115.378 104.374 C 114.784 100.089, 114.639 99.706, 109.589 89 C 107.643 84.875, 104.796 80.150, 103.263 78.500 C 101.729 76.850, 99.684 74.265, 98.718 72.756 C 97.752 71.247, 96.633 70.082, 96.231 70.168 C 94.674 70.498, 90.110 68.023, 89.111 66.305 C 88.533 65.312, 88.047 65.023, 88.030 65.662 C 87.997 66.940, 86.249 66.911, 84.143 65.597 C 83.001 64.884, 83.001 64.614, 84.143 63.890 C 85.213 63.212, 85.145 63.027, 83.823 63.015 C 82.901 63.007, 81.941 63.788, 81.689 64.750 C 81.408 65.827, 81.187 65.442, 81.116 63.750 C 81.048 62.131, 80.431 61, 79.616 61 C 78.855 61, 77.193 58.440, 75.923 55.311 C 74.147 50.936, 73.601 47.606, 73.557 40.894 C 73.526 36.094, 73.163 31.829, 72.750 31.416 C 72.338 31.004, 72 25.173, 72 18.458 C 72 11.744, 71.719 4.844, 71.375 3.125 L 70.750 0 35.375 0 L 0 0 0 72 M 189.047 62.627 C 187.515 66.090, 187 69.364, 187 75.641 C 187 80.253, 187.416 84.809, 187.926 85.764 C 188.435 86.719, 189.523 89.975, 190.345 93 C 191.807 98.383, 191.840 98.070, 191.919 78.250 C 191.964 67.112, 191.796 58, 191.547 58 C 191.298 58, 190.173 60.082, 189.047 62.627 M 190.802 125.250 L 190.500 130.500 184 132.671 C 180.425 133.865, 176.600 135.419, 175.500 136.124 C 174.337 136.869, 171.239 137.293, 168.100 137.137 C 162.229 136.845, 161.026 137.686, 161.768 141.565 L 162.233 144 177.117 144 L 192 144 192 132 C 192 119.663, 191.339 115.935, 190.802 125.250 M 151.607 139.582 C 150.497 142.474, 150.978 144, 153 144 C 154.100 144, 155 143.362, 155 142.582 C 155 140.506, 153.906 138, 153 138 C 152.568 138, 151.941 138.712, 151.607 139.582 M 37.607 141.582 C 36.712 143.915, 36.778 144, 39.500 144 C 41.333 144, 42 143.467, 42 142 C 42 139.568, 38.507 139.235, 37.607 141.582" stroke="none" fill="black" fill-rule="evenodd"/>
</svg>