<svg xmlns="http://www.w3.org/2000/svg" width="192" height="144" viewBox="0 0 192 144" version="1.1">
	<path d="M 0 57 L 0 114 4.034 114 L 8.068 114 7.887 107.447 C 7.702 100.694, 8.178 99.597, 12.166 97.599 C 13.759 96.801, 14.513 95.538, 14.541 93.621 C 14.565 92.046, 15.333 90.393, 16.291 89.857 C 17.231 89.331, 18 87.996, 18 86.891 C 18 85.786, 18.408 85.134, 18.906 85.442 C 19.404 85.750, 19.578 86.896, 19.293 87.989 C 18.963 89.249, 19.364 90.202, 20.387 90.595 C 21.361 90.969, 22 92.369, 22 94.132 C 22 96.332, 22.621 97.286, 24.527 98.010 C 27.190 99.023, 29.046 102.475, 28.285 105 C 28.036 105.825, 28.808 105.391, 30 104.036 L 32.168 101.571 34.062 104.036 C 35.103 105.391, 35.966 107.898, 35.978 109.606 L 36 112.713 49.064 113.242 C 60.564 113.709, 62.398 114.025, 64.379 115.886 C 65.616 117.049, 66.955 118, 67.355 118 C 67.754 118, 67.981 114.963, 67.860 111.250 C 67.714 106.800, 68.123 103.733, 69.060 102.250 C 70.874 99.377, 71.575 99.421, 73.615 102.535 C 75.065 104.748, 75.213 107.539, 74.787 124.535 L 74.298 144 132.989 144 L 191.681 144 192.338 120.750 C 192.700 107.963, 192.996 75.563, 192.998 48.750 L 193 0 96.500 0 L 0 0 0 57 M 0.468 57.500 C 0.468 88.850, 0.595 101.530, 0.750 85.679 C 0.904 69.827, 0.904 44.177, 0.749 28.679 C 0.594 13.180, 0.468 26.150, 0.468 57.500 M 123.849 39.038 C 122.098 41.217, 120.039 43, 119.274 43 C 118.508 43, 118.159 43.448, 118.497 43.996 C 118.836 44.543, 117.962 45.516, 116.556 46.156 C 113.268 47.655, 113.237 49.230, 116.513 48.407 C 120.680 47.361, 122.276 49.568, 121.603 55.448 C 121.170 59.228, 121.492 61.478, 122.883 64.384 C 123.906 66.520, 124.527 69.091, 124.264 70.097 C 123.629 72.526, 117.668 77, 115.067 77 C 112.622 77, 112.615 77.030, 114.348 80.371 C 115.090 81.800, 115.979 82.688, 116.323 82.343 C 116.668 81.999, 117.846 82.793, 118.942 84.108 C 120.037 85.424, 120.948 85.922, 120.967 85.215 C 121.023 83.044, 124.818 85.705, 125.180 88.169 C 125.741 91.980, 127.831 91.341, 128.999 87.002 C 130.433 81.680, 132.991 81.913, 134.560 87.508 C 135.820 92.001, 138.796 93.498, 139.688 90.087 C 140.378 87.448, 142.023 87.443, 145.365 90.073 L 148 92.145 148 90.073 C 148 87.928, 149.437 87.280, 150.473 88.956 C 151.136 90.029, 153.877 89.226, 155.702 87.425 C 156.364 86.772, 156.626 85.960, 156.286 85.619 C 155.945 85.279, 156.754 84.993, 158.083 84.985 C 159.453 84.976, 160.021 84.651, 159.394 84.235 C 157.920 83.255, 156.477 75.559, 157.936 76.461 C 158.521 76.822, 159 76.641, 159 76.059 C 159 75.477, 158.564 75, 158.031 75 C 157.499 75, 157.322 74.325, 157.638 73.500 C 157.960 72.663, 157.665 72, 156.972 72 C 156.288 72, 154.687 70.875, 153.412 69.500 C 151.477 67.412, 150.181 67, 145.548 67 C 140.416 67, 138.584 65.993, 141 64.500 C 141.550 64.160, 142 62.753, 142 61.374 C 142 59.238, 141.666 58.966, 139.750 59.545 C 138.512 59.919, 137.073 60.624, 136.550 61.112 C 135.030 62.532, 134 62.145, 134 60.155 C 134 58.137, 136.952 55, 138.852 55 C 139.659 55, 139.515 54.190, 138.408 52.500 C 136.998 50.348, 136.978 50, 138.263 50 C 139.083 50, 140.269 49.381, 140.897 48.624 C 141.824 47.508, 141.188 47.033, 137.536 46.113 C 133.012 44.974, 132.701 44.568, 131.789 38.613 C 131.630 37.575, 130.495 36.355, 129.266 35.901 C 127.398 35.212, 126.512 35.725, 123.849 39.038" stroke="none" fill="black" fill-rule="evenodd"/>
</svg>