<svg xmlns="http://www.w3.org/2000/svg" width="192" height="144" viewBox="0 0 192 144" version="1.1">
	<path d="M -0 72.005 L -0 144.010 96.250 143.755 L 192.500 143.500 192.757 71.750 L 193.013 0 96.507 0 L 0 0 -0 72.005 M 0.474 72.500 C 0.474 112.100, 0.598 128.154, 0.750 108.176 C 0.901 88.198, 0.901 55.798, 0.750 36.176 C 0.598 16.554, 0.474 32.900, 0.474 72.500 M 66.396 50.410 C 66.099 51.185, 66.589 53.238, 67.485 54.972 C 69.637 59.132, 69.622 66.889, 67.455 71.116 C 66.501 72.977, 65.404 74.725, 65.018 75 C 64.631 75.275, 64.025 76.988, 63.671 78.807 C 63.075 81.871, 63.283 82.220, 66.514 83.570 C 68.837 84.541, 70 85.690, 70 87.013 C 70 88.106, 70.450 89, 71 89 C 71.550 89, 72 88.127, 72 87.060 C 72 85.541, 72.812 85.054, 75.750 84.810 L 79.500 84.500 79.589 75.779 C 79.674 67.477, 79.855 66.792, 83.339 61.544 C 88.815 53.297, 88.504 52.663, 77.736 50.123 C 71.281 48.601, 67.049 48.708, 66.396 50.410" stroke="none" fill="black" fill-rule="evenodd"/>
</svg>