<svg xmlns="http://www.w3.org/2000/svg" width="192" height="144" viewBox="0 0 192 144" version="1.1">
	<path d="M 87.500 3.412 C 81.891 5.905, 76.963 13.584, 76.777 20.122 C 76.690 23.184, 73.515 26, 70.150 26 C 69.094 26, 67.559 27.024, 66.739 28.276 C 65.347 30.400, 65.464 30.811, 68.492 34.417 C 70.377 36.663, 72.213 37.986, 72.875 37.577 C 75.136 36.180, 75.401 40.257, 73.167 42.066 C 70.623 44.126, 70.424 45, 72.500 45 C 73.325 45, 74 45.637, 74 46.417 C 74 47.196, 74.357 47.983, 74.793 48.167 C 75.229 48.350, 76.609 50.177, 77.860 52.227 C 79.111 54.278, 80.442 55.894, 80.818 55.819 C 82.418 55.499, 85 57.338, 85 58.798 C 85 60.077, 85.274 60.008, 86.418 58.443 C 87.198 57.376, 88.181 56.847, 88.602 57.268 C 89.022 57.689, 88.869 58.531, 88.261 59.139 C 87.654 59.746, 87.384 60.838, 87.663 61.564 C 87.994 62.428, 85.689 64.065, 80.987 66.305 L 73.804 69.726 71.909 66.613 L 70.015 63.500 59.757 63.500 L 49.500 63.500 36.913 56.750 C 29.990 53.038, 23.817 50, 23.196 50 C 22.576 50, 19.261 51.814, 15.831 54.031 C 12.401 56.248, 7.435 58.829, 4.797 59.766 L 0 61.469 0 67.235 C 0 73.845, 1.300 74.706, 3.043 69.250 C 4.348 65.168, 5.640 63.306, 6.542 64.209 C 7.068 64.734, 4.930 77.364, 3.404 82.750 C 2.231 86.893, 4.695 85.070, 11.376 76.855 C 17.648 69.143, 18 68.434, 18 63.510 C 18 59.663, 18.497 57.861, 19.909 56.582 C 21.677 54.983, 22.047 54.973, 24.909 56.453 C 28.635 58.380, 28.671 58.689, 25.556 61.945 C 23.286 64.318, 23.100 65.304, 22.935 75.795 C 22.837 82.007, 22.984 87.317, 23.261 87.594 C 23.538 87.871, 26.116 83.520, 28.990 77.924 C 33.510 69.124, 34.132 67.228, 33.596 63.875 C 32.908 59.570, 33.554 59.201, 37.872 61.434 C 43.009 64.090, 43.483 65.500, 40.538 69.362 C 37.927 72.785, 37.912 72.905, 38.703 83.927 C 39.141 90.039, 39.875 95.144, 40.333 95.270 C 40.791 95.397, 43.101 90.813, 45.465 85.084 C 49.037 76.432, 49.616 74.146, 48.883 71.590 C 47.563 66.988, 47.549 67, 53.941 67 C 59.570 67, 62.258 68.105, 60.009 69.494 C 59.446 69.842, 58.291 71.471, 57.441 73.114 C 56.043 75.817, 56.053 77.170, 57.540 87.301 C 58.444 93.460, 59.372 98.692, 59.603 98.927 C 59.833 99.163, 60.760 97.475, 61.662 95.177 C 62.565 92.880, 63.659 91, 64.093 91 C 65.947 91, 65.950 93.297, 64.103 98.923 C 63.020 102.222, 61.841 106.879, 61.482 109.272 C 60.861 113.416, 60.463 113.846, 53.165 118.283 C 48.949 120.846, 44.140 123.836, 42.477 124.926 L 39.453 126.909 34.149 121.955 C 31.231 119.230, 28.279 117, 27.589 117 C 25.335 117, 24.962 118.301, 26.674 120.192 C 29.024 122.788, 27.534 123.751, 20.540 124.155 C 15.171 124.466, 14.466 124.275, 13.439 122.232 C 11.635 118.647, 11.248 118.620, 9.521 121.959 C 7.943 125.010, 7.981 125.244, 10.776 129.802 C 12.699 132.938, 14.462 134.617, 16.078 134.851 C 17.410 135.044, 18.805 135.693, 19.178 136.294 C 19.663 137.075, 20.525 137.082, 22.198 136.319 C 23.992 135.502, 26.409 135.725, 32.520 137.272 L 40.500 139.291 50.947 133.896 C 64.171 127.066, 69.173 122.422, 71.569 114.750 C 74.480 105.430, 76.239 107.858, 75.866 120.684 C 75.689 126.752, 75.008 129.919, 72.819 134.843 C 71.269 138.332, 70 141.819, 70 142.593 C 70 143.767, 74.386 144, 96.462 144 L 122.924 144 119.629 136.250 C 116.736 129.444, 116.318 127.343, 116.203 119 C 116.095 111.115, 116.268 109.925, 117.225 112 C 117.859 113.375, 119.268 116.466, 120.355 118.869 C 122.546 123.710, 126.289 126.458, 141.435 134.347 C 151.075 139.367, 154.550 139.897, 163 137.634 C 166.751 136.629, 167.896 136.676, 169.879 137.914 C 172.046 139.267, 172.403 139.226, 173.879 137.450 C 174.771 136.377, 176.158 135.500, 176.962 135.500 C 177.766 135.500, 178.960 134.375, 179.615 133 C 183.227 125.427, 183.254 125.299, 182.035 121.606 C 180.611 117.292, 179.554 117.072, 177.802 120.728 C 176.584 123.268, 176.091 123.446, 170.633 123.314 C 163.759 123.148, 161.865 121.911, 164.324 119.195 C 166.583 116.698, 166.436 116, 163.649 116 C 162.001 116, 159.996 117.633, 156.935 121.469 L 152.571 126.938 148.035 124.311 C 145.541 122.867, 141.700 120.469, 139.500 118.983 C 137.300 117.497, 134.091 115.559, 132.368 114.676 C 129.969 113.446, 129.081 112.185, 128.573 109.285 C 128.209 107.203, 126.970 102.388, 125.821 98.585 C 123.905 92.243, 123.866 91.571, 125.356 90.481 C 126.837 89.398, 126.807 89.135, 125.014 87.513 C 123.932 86.534, 123.288 85.343, 123.583 84.866 C 124.806 82.887, 125.954 84.351, 128 90.500 C 129.190 94.075, 130.519 97, 130.954 97 C 131.966 97, 132.798 91.739, 133.568 80.463 C 133.904 75.533, 134.624 70.037, 135.167 68.250 C 136.021 65.443, 136.603 65, 139.443 65 C 142.706 65, 142.726 65.029, 142.036 68.804 C 141.439 72.066, 142.027 74.065, 146.172 82.861 C 148.845 88.533, 151.450 92.840, 152.002 92.499 C 152.566 92.150, 153 87.190, 153 81.081 C 153 71.208, 152.785 69.962, 150.500 66.595 C 149.125 64.569, 148.003 62.594, 148.007 62.206 C 148.015 61.383, 153.697 57.413, 156.245 56.450 C 157.790 55.865, 157.922 56.290, 157.396 60.145 C 156.863 64.052, 157.249 65.221, 161.151 71.508 C 166.988 80.914, 168.858 83.475, 169.455 82.878 C 169.730 82.603, 169.526 77.491, 169.002 71.518 C 168.143 61.750, 167.776 60.376, 165.347 57.840 C 163.861 56.289, 162.838 54.880, 163.073 54.708 C 167.838 51.215, 168.979 50.940, 171.601 52.658 C 173.799 54.099, 174.118 54.888, 173.653 57.752 C 172.853 62.680, 174.191 65.230, 181.387 72.498 C 190.538 81.739, 190.856 81.483, 186.875 68.098 C 185.828 64.577, 185.183 61.484, 185.442 61.224 C 186.475 60.192, 189 62.052, 189 63.846 C 189 64.896, 189.648 66.293, 190.440 66.950 C 191.232 67.607, 192.071 69.125, 192.304 70.323 C 192.537 71.520, 192.783 70.025, 192.850 67 C 193.001 60.235, 192.201 57, 190.379 57 C 189.615 57, 184.253 54.527, 178.463 51.504 L 167.935 46.007 160.718 49.636 C 156.748 51.631, 151.700 54.461, 149.500 55.925 C 145.069 58.874, 140.545 61, 138.703 61 C 138.021 61, 137.441 59.485, 137.364 57.500 C 136.839 43.966, 136.909 43.163, 138.929 39.394 C 142.672 32.410, 141.275 22.609, 136.359 21.375 C 133.911 20.761, 132.576 21.054, 126.750 23.484 C 125.335 24.074, 125 23.697, 125 21.508 C 125 17.459, 122.139 12.208, 118.365 9.329 C 116.200 7.678, 111.431 5.925, 104.917 4.385 C 93.398 1.663, 91.654 1.566, 87.500 3.412 M 121.426 43.933 C 119.049 47.524, 118.852 48.381, 119.884 50.644 C 120.894 52.862, 120.843 53.154, 119.533 52.651 C 118.414 52.222, 118 52.721, 118 54.500 C 118 56.237, 117.576 56.775, 116.525 56.371 C 115.631 56.028, 113.697 57.239, 111.621 59.441 L 108.192 63.076 107.346 60.612 L 106.500 58.148 103.723 60.549 L 100.946 62.951 104.595 64.475 C 106.602 65.314, 108.570 66, 108.967 66 C 109.365 66, 110.505 66.900, 111.500 68 C 114.167 70.947, 115.720 70.469, 118 66 C 119.257 63.535, 120.743 62, 121.870 62 C 123.490 62, 123.768 60.778, 124.305 51.289 C 124.639 45.398, 124.740 40.407, 124.531 40.197 C 124.321 39.988, 122.924 41.669, 121.426 43.933 M 91 51.349 C 91.825 52.139, 93.625 53.115, 95 53.517 C 98.168 54.444, 97.469 53.778, 93 51.611 C 90.461 50.379, 89.912 50.308, 91 51.349 M 0.320 67 C 0.320 70.575, 0.502 72.037, 0.723 70.250 C 0.945 68.463, 0.945 65.537, 0.723 63.750 C 0.502 61.962, 0.320 63.425, 0.320 67 M 121.115 70.059 C 119.312 72.497, 119.096 73.411, 120.049 74.559 C 121.808 76.679, 122.704 76.333, 123.439 73.250 C 123.800 71.737, 124.329 69.713, 124.615 68.750 C 125.429 66.011, 123.602 66.694, 121.115 70.059 M 65.748 68.585 C 65.127 69.207, 66.791 74.959, 67.979 76.292 C 68.367 76.728, 69.248 76.407, 69.936 75.578 C 70.959 74.345, 70.793 73.518, 69.025 71.035 C 66.693 67.761, 66.624 67.709, 65.748 68.585 M 64.607 86.582 C 63.668 89.028, 63.872 89.351, 65.500 88 C 67.162 86.620, 67.490 85, 66.107 85 C 65.616 85, 64.941 85.712, 64.607 86.582" stroke="none" fill="black" fill-rule="evenodd"/>
</svg>