<svg xmlns="http://www.w3.org/2000/svg" width="192" height="144" viewBox="0 0 192 144" version="1.1">
	<path d="M 0 72 L 0 144 35.750 143.961 C 66.919 143.927, 71.096 143.746, 68.349 142.551 C 66.111 141.577, 64.999 140.273, 64.510 138.046 C 64.036 135.887, 62.606 134.145, 59.911 132.444 C 55.795 129.846, 54.920 127.628, 57.604 126.599 C 58.516 126.249, 58.962 125.342, 58.638 124.498 C 58.036 122.932, 65.389 116.894, 72 113.525 C 78.844 110.037, 84.818 104.918, 92.427 96.022 L 100.139 87.004 98.001 84.002 C 96.826 82.351, 95.219 81, 94.432 81 C 92.372 81, 92.656 80.048, 95.500 77.412 C 97.422 75.631, 97.999 74.102, 97.994 70.798 C 97.983 62.158, 96.302 55.534, 93.307 52.329 C 90.398 49.215, 89.353 45.518, 91.080 44.451 C 91.604 44.127, 91.806 43.495, 91.529 43.047 C 91.252 42.599, 92.260 41.721, 93.768 41.096 C 95.276 40.471, 97.380 38.666, 98.443 37.085 C 101.032 33.233, 105.042 31, 109.371 31 C 116.349 31, 123.392 41.699, 119.353 46.163 C 118.438 47.173, 116.860 48, 115.845 48 C 114.813 48, 114 48.712, 114 49.615 C 114 50.988, 114.819 51.128, 119.458 50.549 C 124.267 49.948, 125.459 50.185, 129.481 52.542 C 131.992 54.013, 134.501 56.068, 135.058 57.108 C 136.287 59.405, 138.324 59.533, 140.412 57.445 C 141.532 56.326, 142.321 56.186, 143.233 56.945 C 143.930 57.526, 145.584 58.828, 146.909 59.838 C 148.292 60.893, 149.012 62.171, 148.600 62.838 C 147.491 64.632, 146 64.213, 146 62.107 C 146 60.237, 144.176 59, 141.418 59 C 140.432 59, 140 60.209, 140 62.965 C 140 65.879, 139.481 67.208, 138.041 67.978 C 136.963 68.555, 135.226 70.933, 134.181 73.263 C 132.508 76.993, 126.837 84, 125.491 84 C 125.221 84, 125 82.887, 125 81.527 C 125 78.764, 128.953 70, 130.199 70 C 130.640 70, 131 68.055, 131 65.678 C 131 61.699, 130.664 61.135, 126.770 58.586 C 122.756 55.958, 122.262 55.872, 117.103 56.908 C 114.113 57.509, 111.435 58.232, 111.152 58.515 C 110.868 58.798, 112.014 60.486, 113.698 62.265 C 118.937 67.801, 119.191 68.991, 116.381 74.863 C 114.226 79.366, 113.969 80.939, 114.515 86.292 C 114.864 89.706, 115.733 93.175, 116.448 94 C 118.242 96.072, 119.326 102.680, 118.006 103.496 C 117.378 103.885, 117.167 106.040, 117.486 108.824 C 118.465 117.376, 118.899 122.405, 119.596 133.262 L 120.286 144.025 156.393 143.762 L 192.500 143.500 192.757 71.750 L 193.013 0 96.507 0 L 0 0 0 72 M 0.474 72.500 C 0.474 112.100, 0.598 128.154, 0.750 108.176 C 0.901 88.198, 0.901 55.798, 0.750 36.176 C 0.598 16.554, 0.474 32.900, 0.474 72.500 M 54.638 16.500 C 54.955 17.325, 55.391 18, 55.607 18 C 55.823 18, 56 17.325, 56 16.500 C 56 15.675, 55.564 15, 55.031 15 C 54.499 15, 54.322 15.675, 54.638 16.500 M 26.500 50 C 26.840 50.550, 27.568 51, 28.118 51 C 28.668 51, 28.840 50.550, 28.500 50 C 28.160 49.450, 27.432 49, 26.882 49 C 26.332 49, 26.160 49.450, 26.500 50 M 44.071 52.415 C 43.325 53.313, 43.012 54.345, 43.374 54.707 C 44.308 55.641, 46.306 53.417, 45.826 51.978 C 45.550 51.150, 45.008 51.285, 44.071 52.415 M 52.667 58.667 C 52.300 59.033, 52 59.798, 52 60.367 C 52 60.993, 52.466 60.934, 53.183 60.217 C 53.834 59.566, 54.134 58.801, 53.850 58.517 C 53.566 58.233, 53.033 58.300, 52.667 58.667 M 21 76.941 C 21 78.073, 21.450 79, 22 79 C 22.550 79, 23 78.352, 23 77.559 C 23 76.766, 22.550 75.840, 22 75.500 C 21.450 75.160, 21 75.809, 21 76.941 M 145 119 C 145 119.550, 145.450 120, 146 120 C 146.550 120, 147 119.550, 147 119 C 147 118.450, 146.550 118, 146 118 C 145.450 118, 145 118.450, 145 119" stroke="none" fill="black" fill-rule="evenodd"/>
</svg>