<svg xmlns="http://www.w3.org/2000/svg" width="192" height="144" viewBox="0 0 192 144" version="1.1">
	<path d="M 0 72 L 0 144 25.974 144 L 51.949 144 53.377 141.250 C 56.143 135.924, 63.891 131.551, 76 128.481 L 84.500 126.327 85.245 115.913 C 85.655 110.186, 86.406 104.299, 86.914 102.832 C 87.649 100.712, 87.452 99.814, 85.957 98.461 C 84.922 97.524, 83.561 95.201, 82.933 93.297 C 81.320 88.409, 83.903 81.697, 88.060 79.975 C 92.066 78.316, 99.718 79.274, 102.187 81.743 C 104.916 84.472, 105.639 91.012, 103.653 94.994 C 102.301 97.705, 102.266 98.491, 103.421 100.336 C 104.912 102.720, 107 115.608, 107 122.427 L 107 126.773 111.711 127.479 C 122.315 129.070, 134.699 135.535, 137.872 141.139 L 139.500 144.013 166 143.756 L 192.500 143.500 192.757 71.750 L 193.013 0 96.507 0 L 0 0 0 72 M 0.474 72.500 C 0.474 112.100, 0.598 128.154, 0.750 108.176 C 0.901 88.198, 0.901 55.798, 0.750 36.176 C 0.598 16.554, 0.474 32.900, 0.474 72.500 M 107 139.087 L 107 144 113 144 C 116.693 144, 119 143.578, 119 142.901 C 119 141.204, 113.649 136.633, 110.145 135.337 L 107 134.174 107 139.087 M 78 137.115 C 70.960 141.412, 71.148 144, 78.500 144 L 84 144 84 140.500 C 84 138.575, 84.024 136.662, 84.053 136.250 C 84.164 134.666, 81.355 135.067, 78 137.115" stroke="none" fill="black" fill-rule="evenodd"/>
</svg>