<svg xmlns="http://www.w3.org/2000/svg" width="192" height="144" viewBox="0 0 192 144" version="1.1">
	<path d="M 103.529 9.970 C 99.959 13.626, 99.747 14.150, 100.854 16.578 C 101.957 19.001, 101.737 19.561, 98.160 23.442 C 96.018 25.767, 93.703 29.371, 93.016 31.453 C 90.350 39.530, 93.953 49.112, 100.309 50.842 C 102.296 51.383, 103.361 52.237, 103.131 53.106 C 102.927 53.873, 102.702 54.950, 102.631 55.500 C 102.429 57.043, 111.614 65.103, 113.673 65.190 C 114.678 65.232, 116.287 64.934, 117.250 64.527 C 118.564 63.970, 119 64.262, 119 65.697 C 119 67.936, 113.086 74, 110.902 74 C 108.986 74, 107 75.970, 107 77.871 C 107 78.680, 106.213 80.213, 105.250 81.276 C 104.287 82.339, 103.410 84.850, 103.299 86.855 C 103.090 90.642, 99.913 100.963, 98.949 100.987 C 97.810 101.014, 90 82.350, 90 79.600 C 90 79.345, 93.487 78.327, 97.750 77.338 C 106.294 75.356, 104.361 74.433, 94.500 75.785 C 89.925 76.413, 87.732 76.256, 85.266 75.127 C 82.453 73.838, 81.672 73.831, 79.266 75.071 C 77.745 75.855, 76.140 77.060, 75.700 77.748 C 74.102 80.250, 72.098 78.871, 68.074 72.500 C 64.398 66.679, 63.630 66, 60.725 66 C 58.672 66, 57.064 66.668, 56.346 67.818 C 55.408 69.320, 55.961 70.866, 59.533 76.724 C 61.910 80.622, 63.631 84.035, 63.358 84.309 C 63.085 84.582, 63.343 86.649, 63.931 88.903 C 67.230 101.543, 66.135 100.092, 76.066 105 C 83.212 108.532, 85.442 110.148, 86.435 112.512 C 87.130 114.169, 90.242 117.848, 93.350 120.689 C 99.405 126.222, 99.912 127.647, 97.366 131.958 C 96.143 134.027, 95.907 135.893, 96.427 139.362 L 97.123 144 122.561 144 C 140.335 144, 148 143.670, 148 142.904 C 148 140.951, 144.613 136.012, 142.901 135.468 C 140.948 134.849, 139 123.842, 139 113.428 C 139 108.581, 138.620 106.791, 137.500 106.362 C 134.321 105.142, 136.210 104.067, 140.500 104.655 C 143.554 105.074, 145 104.907, 145 104.136 C 145 103.511, 146.125 103, 147.500 103 C 148.875 103, 150 102.550, 150 102 C 150 101.450, 150.911 101, 152.025 101 C 153.292 101, 154.473 99.972, 155.182 98.250 C 156.077 96.078, 156.402 95.868, 156.731 97.250 C 156.959 98.213, 157.599 99, 158.153 99 C 159.089 99, 158.762 102.235, 157.292 107.500 L 156.734 109.500 158.988 107.500 L 161.242 105.500 160.527 110.750 C 160.041 114.319, 160.163 116, 160.906 116 C 161.521 116, 162.014 117.860, 162.032 120.250 C 162.062 124.303, 162.137 124.407, 163.644 122.500 C 165.140 120.606, 165.189 120.699, 164.566 124.250 C 163.945 127.795, 165.044 129.357, 166.500 127 C 167.475 125.423, 169.001 125.835, 168.361 127.502 C 168.044 128.328, 168.062 130.113, 168.402 131.467 C 169.122 134.335, 171.183 133.978, 172.875 130.692 C 173.882 128.737, 173.943 128.846, 173.435 131.694 C 173.122 133.451, 172.698 136.939, 172.494 139.444 L 172.123 144 182.062 144 L 192 144 192 110.632 L 192 77.264 185.327 73.382 C 177.349 68.741, 169.443 61.733, 164.336 54.777 C 161.952 51.529, 160.439 50.199, 160.149 51.096 C 159.412 53.377, 149.340 66.425, 144.849 70.916 C 142.566 73.198, 140.204 74.904, 139.599 74.705 C 138.995 74.506, 138.361 72.186, 138.190 69.548 C 137.888 64.876, 137.944 64.769, 140.385 65.382 C 142.761 65.978, 142.910 65.766, 143.272 61.255 C 143.579 57.442, 143.811 56.946, 144.444 58.750 C 145.381 61.422, 146.975 61.727, 147.060 59.250 C 147.093 58.288, 147.332 55.358, 147.590 52.741 C 147.977 48.821, 147.614 47.325, 145.530 44.259 C 144.138 42.211, 143 39.822, 143 38.949 C 143 38.077, 142.288 34.965, 141.418 32.035 C 139.280 24.837, 131.693 16.761, 124.628 14.163 C 121.571 13.039, 119.098 11.406, 118.504 10.118 C 117.583 8.122, 112.699 6.019, 108.953 6.006 C 108.102 6.003, 105.661 7.787, 103.529 9.970 M 134.015 67.691 C 134.007 68.896, 134.450 70.160, 135 70.500 C 136.273 71.287, 136.273 68.970, 135 67 C 134.212 65.781, 134.028 65.910, 134.015 67.691 M 77 86.754 C 77 87.233, 78.427 88.948, 80.170 90.563 L 83.341 93.500 81.124 90.280 C 78.750 86.833, 77 85.337, 77 86.754 M 134.750 112.577 C 133.478 113.860, 133.991 122.360, 135.500 125 L 136.929 127.500 136.890 124 C 136.829 118.458, 135.572 111.748, 134.750 112.577" stroke="none" fill="black" fill-rule="evenodd"/>
</svg>