<svg xmlns="http://www.w3.org/2000/svg" width="192" height="144" viewBox="0 0 192 144" version="1.1">
	<path d="M 52.750 14.324 C 51.237 15.562, 50 17.352, 50 18.301 C 50 19.250, 49.460 20.892, 48.799 21.950 C 47.905 23.382, 47.859 25.448, 48.619 30.044 C 49.483 35.272, 49.349 37.113, 47.741 42.077 C 46 47.456, 45.973 48.124, 47.422 50.192 C 48.290 51.431, 49 51.935, 49 51.311 C 49 50.687, 49.653 50.273, 50.452 50.390 C 52.762 50.729, 56.120 54.244, 55.551 55.726 C 55.266 56.470, 55.551 57.909, 56.184 58.923 C 57.164 60.492, 56.784 61.251, 53.631 64.019 C 48.478 68.544, 42.997 77.106, 43.015 80.604 C 43.034 84.076, 43.771 85.317, 46.750 86.885 C 50.247 88.727, 49.901 96.873, 46 104.500 C 44.350 107.726, 43 111.257, 43 112.345 C 43 114.997, 40.143 124.511, 37.801 129.661 C 36.338 132.875, 36.061 134.980, 36.583 138.911 L 37.258 144 60.629 144 C 87.408 144, 85.497 144.892, 81.939 134.052 L 79.878 127.774 81.956 126.318 C 83.098 125.518, 83.810 124.502, 83.537 124.061 C 83.265 123.619, 83.914 122.252, 84.981 121.022 C 86.048 119.792, 87.653 116.247, 88.549 113.143 C 89.444 110.039, 91.541 104.575, 93.209 101 C 97.607 91.571, 97.886 87.251, 94.483 81.316 C 92.964 78.667, 91.787 75.312, 91.868 73.860 C 91.954 72.322, 91.386 70.978, 90.508 70.641 C 89.678 70.323, 89 68.908, 89 67.496 C 89 63.681, 86.373 60.366, 81.945 58.595 C 78.975 57.406, 78.084 56.533, 78.312 55.036 C 78.727 52.321, 79.169 52.015, 83.469 51.464 C 88.455 50.826, 88.906 50.468, 91.179 45.328 C 93.034 41.135, 93.050 40.667, 91.504 36.013 C 90.609 33.318, 88.962 29.951, 87.845 28.530 C 86.727 27.109, 85.487 24.728, 85.088 23.238 C 84.573 21.309, 82.512 19.434, 77.932 16.726 C 72.238 13.358, 70.892 12.965, 66.208 13.297 C 63.297 13.503, 60.683 13.295, 60.399 12.836 C 59.444 11.291, 55.523 12.053, 52.750 14.324 M 119.700 40.779 C 118.727 41.854, 118.037 44.003, 118.150 45.608 C 118.262 47.199, 117.587 49.962, 116.651 51.750 C 115.198 54.524, 114.403 55.002, 111.224 55.015 C 105.704 55.038, 98.940 57.356, 96.845 59.943 C 92.776 64.968, 95.144 68.624, 105.366 73.104 L 110.834 75.500 110.290 80.149 C 109.898 83.495, 110.194 85.438, 111.344 87.081 C 112.282 88.421, 112.590 89.805, 112.089 90.432 C 111.619 91.019, 108.932 97.373, 106.117 104.550 C 101.241 116.985, 101 118.046, 101 127.059 C 101 135.436, 101.229 136.662, 103 137.768 C 104.131 138.474, 105 140.100, 105 141.508 L 105 144 124.500 144 C 135.225 144, 143.997 143.662, 143.992 143.250 C 143.988 142.838, 143.092 139.575, 142 136 C 139.346 127.308, 139.397 126.559, 142.505 128.595 C 144.418 129.849, 145.336 129.966, 146.388 129.093 C 148.165 127.618, 149.394 130.206, 147.715 131.885 C 146.030 133.570, 149.191 136.392, 151.827 135.555 C 154.603 134.674, 156.382 129.134, 155.030 125.579 C 154.464 124.089, 154 121.580, 154 120.003 C 154 117.102, 152.037 115.205, 145.781 112.062 C 139.346 108.828, 136.798 102.416, 136.563 88.868 L 136.414 80.236 143.477 79.783 C 152.968 79.174, 156.406 77.466, 156.820 73.155 C 157.088 70.365, 156.490 69.205, 153.140 66.018 C 150.940 63.926, 147.196 61.568, 144.820 60.780 C 141.064 59.533, 140.459 58.931, 140.186 56.165 C 139.997 54.251, 140.494 52.363, 141.436 51.421 C 145.048 47.809, 142.672 43.903, 135.500 41.665 C 126.478 38.851, 121.688 38.582, 119.700 40.779 M 74.933 88.645 C 71.082 98.666, 70.101 109, 73.002 109 C 74.976 109, 83.621 89.203, 82.235 87.856 C 81.831 87.463, 80.269 86.838, 78.765 86.466 C 76.401 85.882, 75.881 86.177, 74.933 88.645 M 113.050 108.906 C 111.444 111.907, 111.788 115.665, 114.081 120.160 L 116.163 124.240 117.679 121.370 C 119.053 118.771, 119.028 117.999, 117.418 113.198 C 115.353 107.040, 114.498 106.200, 113.050 108.906" stroke="none" fill="black" fill-rule="evenodd"/>
</svg>