<svg xmlns="http://www.w3.org/2000/svg" width="192" height="144" viewBox="0 0 192 144" version="1.1">
	<path d="M 83.086 65.754 C 77.705 67.338, 71.345 72.417, 67.919 77.868 C 66.482 80.156, 65.952 80.245, 52.465 80.466 C 35.375 80.746, 31 82.093, 31 87.077 C 31 91.407, 35.652 99.201, 44.014 108.877 C 47.856 113.324, 51 117.881, 51 119.006 C 51 120.130, 50.112 123.626, 49.027 126.775 L 47.053 132.500 49.432 129.804 L 51.810 127.109 52.371 129.343 C 52.679 130.571, 52.294 133.697, 51.514 136.288 C 50.060 141.117, 51.022 142.695, 53.078 138.854 C 54.190 136.776, 54.292 136.824, 56.320 140.372 L 58.414 144.036 102.805 143.979 L 147.197 143.922 146.468 141.211 C 146.066 139.720, 144.966 134.717, 144.022 130.094 L 142.306 121.689 145.105 118.594 L 147.905 115.500 149.509 117.750 C 153.276 123.033, 157.468 118.761, 156.388 110.739 C 155.896 107.086, 156.318 105.671, 159.443 100.502 C 163.552 93.704, 165.565 87.915, 164.650 85.530 C 163.576 82.731, 157.140 80.896, 146.236 80.278 L 135.708 79.682 132.407 76.029 C 125.365 68.234, 112.742 63.981, 97 64.098 C 92.325 64.133, 86.064 64.878, 83.086 65.754 M 152.079 112.583 C 152.127 113.748, 152.364 113.985, 152.683 113.188 C 152.972 112.466, 152.936 111.603, 152.604 111.271 C 152.272 110.939, 152.036 111.529, 152.079 112.583" stroke="none" fill="black" fill-rule="evenodd"/>
</svg>