<svg xmlns="http://www.w3.org/2000/svg" width="192" height="144" viewBox="0 0 192 144" version="1.1">
	<path d="M 4.879 74.057 C 2.654 74.609, 2.630 74.688, 4.500 75.275 C 5.600 75.621, 10.281 76.406, 14.903 77.020 C 19.524 77.635, 30.324 79.943, 38.903 82.151 C 47.481 84.359, 56.300 86.602, 58.500 87.136 C 60.700 87.670, 64.428 88.758, 66.785 89.553 C 72.514 91.488, 76.929 91.459, 72 89.520 C 69.155 88.400, 52.990 83.316, 35.500 78.039 C 24.463 74.709, 9.891 72.814, 4.879 74.057 M 167.224 74.749 C 163.196 75.437, 155.535 77.869, 150.200 80.154 C 144.865 82.440, 136.450 85.793, 131.500 87.605 C 126.550 89.417, 123.100 90.923, 123.834 90.950 C 124.988 90.993, 139.822 86.174, 157.933 79.872 C 160.921 78.832, 169.130 77.390, 176.175 76.666 C 183.219 75.942, 189.250 75.083, 189.576 74.757 C 190.785 73.548, 174.298 73.542, 167.224 74.749" stroke="none" fill="black" fill-rule="evenodd"/>
</svg>