<svg xmlns="http://www.w3.org/2000/svg" width="192" height="144" viewBox="0 0 192 144" version="1.1">
	<path d="M 0 72 L 0 144 39.250 143.996 C 78.118 143.993, 78.470 143.974, 75.411 142.109 C 71.706 139.850, 67.999 135.348, 68.004 133.115 C 68.006 132.227, 68.846 130.124, 69.872 128.443 C 72.281 124.492, 73.046 118.176, 71.501 115 C 70.024 111.965, 70.317 102.728, 71.907 102.198 C 72.535 101.988, 73.691 100.283, 74.474 98.408 C 75.257 96.534, 76.371 95, 76.949 95 C 77.600 95, 78 91.812, 78 86.622 C 78 80.734, 78.409 77.906, 79.375 77.104 C 80.132 76.476, 81.051 74.081, 81.419 71.781 C 81.787 69.481, 82.579 67.008, 83.179 66.285 C 84.163 65.099, 83.452 57.700, 81.374 47.500 C 81.150 46.400, 80.245 40.775, 79.363 35 C 78.044 26.366, 77.976 23.702, 78.982 20.010 L 80.206 15.521 82.523 18.426 C 85.255 21.853, 85.400 22.583, 87.594 44 C 88.524 53.075, 89.740 60.795, 90.297 61.155 C 91.416 61.878, 92.276 66.127, 92.089 70 C 92.023 71.375, 91.982 75.538, 91.999 79.250 C 92.028 85.802, 91.955 86, 89.515 86 C 87.542 86, 87 86.506, 87 88.351 C 87 90.579, 87.182 90.645, 90.500 89.606 L 94 88.511 94 44.255 L 94 0 47 0 L 0 0 0 72 M 94 116.845 L 94 144 104.250 143.964 L 114.500 143.928 111.750 141.676 C 110.031 140.269, 109 138.449, 109 136.822 C 109 135.390, 108.140 132.297, 107.089 129.949 C 105.443 126.273, 105.373 125.484, 106.589 124.269 C 107.912 122.945, 108.473 120.234, 108.056 117.170 C 107.957 116.438, 108.510 114.863, 109.286 113.670 C 111.485 110.287, 111.096 105.945, 108.105 100.512 C 105.940 96.581, 104.601 95.310, 101.780 94.512 C 99.811 93.956, 97.256 92.643, 96.100 91.595 L 94 89.690 94 116.845 M 71.750 128.710 C 69.437 131.284, 69.535 134.269, 72.006 136.506 C 74.814 139.047, 75.430 137.859, 74.394 131.904 C 73.526 126.912, 73.449 126.819, 71.750 128.710 M 102 128 C 102 128.550, 102.450 129, 103 129 C 103.550 129, 104 128.550, 104 128 C 104 127.450, 103.550 127, 103 127 C 102.450 127, 102 127.450, 102 128 M 75.837 135.087 C 76.051 137.334, 76.577 138.797, 77.006 138.337 C 77.896 137.381, 77.117 131, 76.110 131 C 75.745 131, 75.623 132.839, 75.837 135.087" stroke="none" fill="black" fill-rule="evenodd"/>
</svg>