<svg xmlns="http://www.w3.org/2000/svg" width="192" height="144" viewBox="0 0 192 144" version="1.1">
	<path d="M 95.289 78.965 C 93.523 80.042, 91.048 82.465, 89.789 84.349 C 88.530 86.233, 86.150 89.479, 84.500 91.562 C 81.963 94.766, 81.505 96.212, 81.531 100.935 C 81.558 105.827, 82.098 107.326, 85.885 113.010 C 91.325 121.178, 98.206 126.608, 104.265 127.517 C 109.787 128.345, 111.843 127.380, 118.651 120.767 L 123.803 115.763 125.065 118.132 C 126.259 120.371, 126.224 120.422, 124.414 119.055 C 122.607 117.690, 122.592 117.710, 124.144 119.414 C 125.317 120.700, 126.261 120.953, 127.436 120.296 C 128.927 119.461, 128.879 119.116, 126.929 116.637 L 124.777 113.900 128.517 106.531 C 132.689 98.312, 132.678 96.251, 128.429 89.756 C 122.112 80.101, 103.413 74.012, 95.289 78.965" stroke="none" fill="black" fill-rule="evenodd"/>
</svg>