<svg xmlns="http://www.w3.org/2000/svg" width="192" height="144" viewBox="0 0 192 144" version="1.1">
	<path d="M 125.492 0.837 C 124.946 1.344, 122.907 2.266, 120.960 2.887 C 119.013 3.508, 115.136 6.195, 112.346 8.857 C 107.302 13.667, 107.275 13.725, 107.984 18.397 C 108.377 20.982, 109.216 23.616, 109.849 24.249 C 111.606 26.006, 111.226 28.378, 108.961 29.792 C 107.840 30.492, 107.220 31.548, 107.585 32.137 C 107.949 32.726, 108.460 35.524, 108.722 38.354 C 109.252 44.097, 110.347 46, 113.122 46 C 114.155 46, 114.888 46.542, 114.750 47.205 C 114.613 47.867, 115.175 48.442, 116 48.481 C 117.668 48.562, 117.642 53.259, 115.971 53.833 C 115.437 54.017, 115 54.636, 115 55.211 C 115 55.785, 111.625 59.501, 107.500 63.468 C 100.848 69.866, 98.253 74, 100.888 74 C 101.377 74, 100.713 76.588, 99.412 79.750 C 96.649 86.468, 96.489 89.507, 98.500 97 C 100.665 105.066, 100.523 106.032, 97.250 105.518 C 76.333 102.232, 74.191 101.610, 73.438 98.608 C 73.129 97.378, 72.976 95.950, 73.097 95.436 C 73.218 94.921, 72.972 93.709, 72.549 92.742 C 71.821 91.077, 73.359 86.930, 76.231 82.815 C 77.107 81.561, 77.123 80.538, 76.294 78.815 C 75.682 77.542, 74.921 75.691, 74.604 74.702 C 74.132 73.233, 73.339 73.018, 70.263 73.528 C 61.551 74.971, 59.640 76.861, 58.384 85.283 C 58.038 87.602, 56.716 93.876, 55.447 99.224 C 52.803 110.363, 53.047 117.833, 56.284 124.818 L 58.284 129.136 56.236 136.568 L 54.189 144 70.094 144 C 78.842 144, 86 143.781, 86 143.513 C 86 143.244, 84.875 138.695, 83.500 133.403 C 80.445 121.645, 80.381 120, 82.977 120 C 85.271 120, 97.762 124.558, 99.561 126.051 C 100.513 126.841, 100.388 128.863, 98.989 135.281 C 98.004 139.802, 97.311 143.621, 97.450 143.768 C 97.589 143.916, 108.597 143.916, 121.911 143.768 L 146.119 143.500 140.005 133.750 C 136.619 128.351, 133.300 121.657, 132.566 118.750 C 129.623 107.083, 129.656 97, 132.637 97 C 133.700 97, 133.871 96.045, 133.370 92.910 C 132.797 89.330, 133.045 88.513, 135.358 86.369 C 136.811 85.022, 138.007 83.375, 138.015 82.710 C 138.027 81.774, 138.203 81.771, 138.792 82.697 C 139.246 83.411, 140.094 83.560, 140.893 83.066 C 141.995 82.385, 141.857 80.601, 140.117 73.043 C 137.506 61.704, 137.506 61.665, 140.078 63.042 C 141.221 63.654, 142.763 63.921, 143.505 63.636 C 144.247 63.352, 145.425 63.807, 146.122 64.647 C 147.236 65.990, 147.490 65.908, 148.205 63.974 C 148.812 62.333, 149.344 62.041, 150.294 62.829 C 152.182 64.396, 154.391 62.602, 153.722 60.045 C 153.262 58.284, 153.415 58.099, 154.552 59.043 C 156.595 60.739, 156.213 53.531, 154.020 49 C 152.253 45.350, 152.287 44.957, 155.329 33.752 C 156.966 27.724, 156.253 18.266, 153.810 13.598 C 151.926 9.999, 146.153 4.953, 141.735 3.045 C 136.697 0.870, 126.892 -0.463, 125.492 0.837" stroke="none" fill="black" fill-rule="evenodd"/>
</svg>