<svg xmlns="http://www.w3.org/2000/svg" width="192" height="144" viewBox="0 0 192 144" version="1.1">
	<path d="M 0 72 L 0 144 40.352 144 L 80.704 144 81.547 135.750 C 82.682 124.636, 82.185 91.214, 80.847 88.714 C 79.852 86.854, 79.551 86.993, 75.908 90.978 C 71.508 95.791, 71.594 95.786, 57.662 91.970 C 50.449 89.995, 46 87.366, 46 85.080 C 46 84.575, 43.763 83.418, 41.030 82.510 C 36.274 80.930, 30.991 76.272, 31.008 73.673 C 31.012 73.028, 32.137 71.980, 33.508 71.344 C 35.621 70.364, 36.012 70.440, 36.079 71.844 C 36.128 72.883, 36.346 73.034, 36.662 72.250 C 37.470 70.247, 39 70.808, 39 73.107 C 39 74.569, 39.459 75.038, 40.500 74.638 C 41.325 74.322, 42 74.510, 42 75.056 C 42 76.394, 46.687 78.242, 51.061 78.628 C 53.019 78.801, 57.194 80.081, 60.339 81.471 C 63.484 82.862, 66.832 84, 67.779 83.999 C 69.523 83.998, 75 75.503, 75 72.799 C 75 72.025, 76.575 69.866, 78.500 68 C 80.425 66.134, 82 63.999, 82 63.254 C 82 62.510, 83.565 60.289, 85.478 58.320 C 87.391 56.350, 88.710 54.340, 88.409 53.853 C 88.108 53.366, 87.440 53.228, 86.924 53.547 C 85.579 54.378, 79.438 47.568, 79.816 45.665 C 80.019 44.646, 79.194 43.836, 77.532 43.419 C 76.071 43.052, 74.262 41.473, 73.406 39.818 C 72.034 37.164, 72.043 36.388, 73.496 32.013 C 74.383 29.340, 75.760 26.614, 76.555 25.955 C 77.376 25.273, 78 23.022, 78 20.742 L 78 16.728 82.339 17.323 C 86.572 17.903, 86.732 17.821, 88.903 13.959 C 90.160 11.722, 91.883 10, 92.864 10 C 93.819 10, 95.121 9.479, 95.758 8.842 C 96.634 7.966, 97.303 8.007, 98.515 9.013 C 101.501 11.491, 105.165 18.867, 104.859 21.785 C 104.672 23.564, 105.391 25.682, 106.782 27.451 C 109.769 31.248, 111.652 37.987, 113.540 51.636 C 114.614 59.402, 116.370 66.411, 119.058 73.655 C 122.891 83.989, 123.923 88.689, 122.114 87.570 C 120.681 86.685, 120.065 90.889, 121.165 94.044 C 121.913 96.189, 121.771 98.598, 120.624 103.226 C 119.768 106.677, 118.767 111.525, 118.398 114 C 118.029 116.475, 117.226 119.128, 116.613 119.897 C 115.306 121.537, 113.360 136.044, 113.814 140.762 L 114.128 144.023 153.314 143.762 L 192.500 143.500 192.757 71.750 L 193.013 0 96.507 0 L 0 0 0 72 M 0.474 72.500 C 0.474 112.100, 0.598 128.154, 0.750 108.176 C 0.901 88.198, 0.901 55.798, 0.750 36.176 C 0.598 16.554, 0.474 32.900, 0.474 72.500" stroke="none" fill="black" fill-rule="evenodd"/>
</svg>