<svg xmlns="http://www.w3.org/2000/svg" width="192" height="144" viewBox="0 0 192 144" version="1.1">
	<path d="M 0 72 L 0 144 35.852 144 L 71.703 144 73.481 137.250 C 74.459 133.537, 76.776 126.388, 78.630 121.362 C 82.233 111.591, 83.158 103.342, 80.537 104.348 C 79.715 104.663, 78.287 103.943, 77.280 102.704 C 73.628 98.214, 72.159 97.546, 70.081 99.427 C 68.847 100.543, 67.972 100.763, 67.540 100.065 C 66.356 98.149, 62.956 98.945, 60.338 101.750 L 57.772 104.500 59.386 101.785 C 61.377 98.436, 61.391 98, 59.500 98 C 58.675 98, 58 97.121, 58 96.047 C 58 94.660, 56.970 93.810, 54.445 93.113 C 52.491 92.573, 50.034 91.041, 48.986 89.710 C 47.590 87.934, 45.737 87.129, 42.041 86.691 C 39.269 86.363, 35.426 85.347, 33.501 84.433 C 29.855 82.703, 28.710 79.915, 31.750 80.170 C 35.804 80.510, 40 79.932, 40 79.035 C 40 78.504, 38.690 76.578, 37.090 74.755 C 34.313 71.592, 34.190 71.053, 34.415 62.970 C 34.544 58.312, 35.194 53.487, 35.860 52.250 C 36.526 51.012, 36.744 50, 36.344 50 C 35.945 50, 36.488 49.363, 37.553 48.585 C 39.899 46.869, 40.955 48.068, 41 52.500 C 41.024 54.806, 41.255 55.153, 41.999 54 C 42.531 53.175, 42.699 51.038, 42.372 49.250 C 41.444 44.180, 44.364 45.121, 46.764 50.665 L 48.783 55.329 50.740 51.515 C 53.441 46.250, 54.324 48.432, 53.089 57.317 C 52.528 61.350, 52.338 66.307, 52.666 68.332 C 53.204 71.644, 52.886 72.371, 49.508 75.557 C 45.944 78.919, 45.848 79.169, 47.626 80.472 C 48.743 81.290, 50.660 81.614, 52.369 81.274 C 54.396 80.870, 56.823 81.532, 60.641 83.529 C 66.692 86.695, 67.450 86.399, 68.406 80.500 L 69.054 76.500 67.402 79.750 C 66.494 81.538, 65.083 83, 64.267 83 C 62.064 83, 63.393 78.735, 68.061 70.825 C 70.227 67.154, 72 63.607, 72 62.943 C 72 62.279, 72.850 60.333, 73.890 58.618 C 74.929 56.903, 76.789 51.008, 78.024 45.518 C 80.362 35.128, 83.062 27.698, 84.917 26.551 C 87.078 25.216, 85.918 24.274, 82.250 24.386 C 78.894 24.488, 78.468 24.219, 78.191 21.823 C 78.021 20.351, 78.883 16.818, 80.107 13.972 L 82.333 8.798 86.417 9.439 C 88.662 9.792, 92.919 11.680, 95.875 13.634 C 100.542 16.718, 101.793 17.108, 105.375 16.590 C 107.644 16.263, 112.060 15.719, 115.188 15.382 L 120.877 14.769 119.290 21.134 C 118.417 24.635, 117.781 30.337, 117.876 33.804 C 118.072 40.958, 115.994 45.713, 112.260 46.650 C 110.303 47.141, 110 47.865, 110 52.052 C 110 55.607, 110.487 57.232, 111.841 58.193 C 112.853 58.912, 115.396 63.307, 117.492 67.961 C 121.047 75.855, 121.227 76.703, 120.176 80.632 C 118.874 85.500, 120.043 90.461, 123.132 93.176 C 124.181 94.098, 127.334 95.615, 130.140 96.546 C 132.945 97.478, 136.011 99.011, 136.951 99.951 C 138.137 101.137, 139.864 101.557, 142.581 101.321 C 147.393 100.901, 151 101.675, 151 103.126 C 151 103.724, 150.339 103.960, 149.532 103.651 C 146.027 102.306, 146.947 105.622, 151.077 109.221 C 155.267 112.870, 155.394 113.135, 153.500 114.235 C 152.400 114.873, 150.825 115.483, 150 115.591 C 149.175 115.699, 147.038 116.116, 145.251 116.518 C 142.323 117.177, 141.619 116.842, 138.118 113.125 C 135.981 110.856, 133.606 109, 132.839 109 C 132.072 109, 130.511 108.346, 129.369 107.546 C 125.815 105.056, 112.858 98.808, 112.335 99.332 C 112.062 99.605, 112.363 100.809, 113.004 102.007 C 113.645 103.206, 113.899 105.266, 113.568 106.585 C 113.168 108.178, 114.459 112.761, 117.414 120.242 C 119.860 126.434, 122.643 134.318, 123.599 137.763 L 125.335 144.026 158.918 143.763 L 192.500 143.500 192.757 71.750 L 193.013 0 96.507 0 L 0 0 0 72 M 0.474 72.500 C 0.474 112.100, 0.598 128.154, 0.750 108.176 C 0.901 88.198, 0.901 55.798, 0.750 36.176 C 0.598 16.554, 0.474 32.900, 0.474 72.500 M 106 56 C 106 56.550, 106.477 57, 107.059 57 C 107.641 57, 107.840 56.550, 107.500 56 C 107.160 55.450, 106.684 55, 106.441 55 C 106.198 55, 106 55.450, 106 56" stroke="none" fill="black" fill-rule="evenodd"/>
</svg>