<svg xmlns="http://www.w3.org/2000/svg" width="192" height="144" viewBox="0 0 192 144" version="1.1">
	<path d="M 0 72 L 0 144 14.883 144 C 31.582 144, 30.954 144.315, 30.986 135.911 C 30.997 133.028, 30.499 132.093, 28.453 131.161 C 27.052 130.522, 24.566 130, 22.928 130 C 20.718 130, 19.719 129.391, 19.052 127.638 C 18.291 125.635, 17.224 125.171, 12.042 124.584 L 5.930 123.893 6.609 120.196 C 6.983 118.163, 7.703 116.230, 8.211 115.900 C 8.718 115.570, 9.248 114.670, 9.388 113.900 C 9.820 111.525, 14.011 105.210, 15.546 104.621 C 16.346 104.314, 17 103.408, 17 102.608 C 17 101.808, 18.062 99.881, 19.359 98.327 C 22.892 94.094, 25.226 89.030, 24.505 87.160 C 23.977 85.790, 23.355 86.112, 20.945 89 C 18.515 91.912, 17.858 92.248, 17.028 91 C 15.222 88.284, 15.953 85.218, 19.021 82.636 C 21.833 80.269, 22.105 79.434, 22.943 70.578 C 23.438 65.345, 24.124 60.608, 24.468 60.052 C 24.811 59.496, 24.590 58.103, 23.977 56.957 C 23.145 55.403, 23.162 54.509, 24.044 53.447 C 25.787 51.346, 24.430 45.851, 20.321 38.376 C 17.172 32.647, 16.813 31.269, 17.213 26.449 C 17.643 21.260, 17.552 21, 15.301 21 C 12.370 21, 11.460 18.892, 13.069 15.828 C 14.258 13.563, 14.237 13.548, 12.314 15.252 C 10.182 17.142, 9 16.680, 9 13.955 C 9 11.582, 13.395 10.125, 20.490 10.144 C 26.598 10.160, 28.759 11.380, 26.820 13.716 C 25.994 14.712, 26.422 15, 28.728 15 C 35.919 15, 40.419 18.859, 38.639 23.498 C 38.322 24.324, 38.499 25, 39.031 25 C 39.564 25, 40 27.029, 40 29.510 C 40 32.782, 40.549 34.489, 42 35.732 C 43.100 36.674, 44 37.929, 44 38.521 C 44 39.856, 48.981 41.608, 55.200 42.462 C 58.767 42.952, 60.059 43.612, 60.564 45.200 C 61.004 46.589, 60.703 47.587, 59.669 48.165 C 57.806 49.208, 57.927 59.002, 59.831 61.297 C 60.553 62.167, 60.749 64.006, 60.338 66.060 C 59.784 68.831, 59.549 69.070, 58.971 67.453 C 57.962 64.626, 56.651 80.975, 57.489 85.937 C 57.867 88.172, 58.634 90, 59.195 90 C 59.755 90, 59.995 90.570, 59.728 91.266 C 59.461 91.962, 59.900 95.450, 60.704 99.016 C 61.507 102.582, 62.401 110.344, 62.690 116.265 L 63.215 127.029 60.187 128.084 C 58.523 128.665, 56.913 129.783, 56.612 130.570 C 56.265 131.473, 54.620 132, 52.148 132 C 47.799 132, 47.039 133.220, 47.014 140.250 L 47 144 68.500 144 C 92.855 144, 92.145 144.294, 87.488 136.148 C 84.616 131.124, 84.517 129.389, 86.485 118.500 C 87.280 114.100, 87.946 106.828, 87.965 102.340 C 87.995 95.307, 87.586 93.304, 85.001 87.840 C 83.351 84.353, 82.001 80.323, 82.001 78.886 C 82 77.396, 80.705 74.815, 78.989 72.886 C 77.333 71.023, 75.801 68.600, 75.585 67.500 C 71.856 48.571, 70.575 31.489, 72 19.697 C 72.678 14.089, 73.449 7.362, 73.713 4.750 L 74.193 0 70.343 0 C 67.362 0, 65.855 0.677, 63.662 3 C 61.603 5.181, 59.909 6, 57.456 6 C 53.517 6, 47.060 3.060, 47.025 1.250 C 47.006 0.286, 41.620 0, 23.500 0 L 0 0 0 72 M 39.353 132.792 C 38.252 133.481, 36.017 140.177, 36.006 142.816 C 36.002 143.663, 36.981 144.020, 38.750 143.816 C 41.281 143.525, 41.525 143.111, 41.810 138.610 C 42.132 133.542, 41.300 131.571, 39.353 132.792" stroke="none" fill="black" fill-rule="evenodd"/>
</svg>