<svg xmlns="http://www.w3.org/2000/svg" width="192" height="144" viewBox="0 0 192 144" version="1.1">
	<path d="M 35 4.022 C 35 7.293, 35.721 8.834, 38.859 12.272 C 40.981 14.598, 43.974 18.525, 45.511 21 C 47.048 23.475, 49.792 26.850, 51.610 28.500 L 54.916 31.500 54.014 39.866 C 53.356 45.971, 52.458 49.220, 50.693 51.888 C 46.051 58.903, 43.876 64.034, 44.583 66.307 C 44.957 67.513, 46.814 70.849, 48.709 73.720 C 51.213 77.514, 51.964 79.537, 51.459 81.128 C 50.765 83.317, 45.994 89.525, 36.855 100.136 C 31.736 106.078, 31.187 107.403, 33.305 108.700 C 34.023 109.140, 36.992 112.388, 39.902 115.918 C 42.812 119.448, 45.713 122.923, 46.347 123.641 C 46.981 124.359, 48.850 126.801, 50.500 129.068 C 52.150 131.336, 54.709 134.386, 56.186 135.846 C 57.664 137.306, 59.340 139.737, 59.912 141.250 L 60.950 144 98.523 144 L 136.096 144 142.184 131.250 C 149.712 115.486, 150.007 113.026, 145.291 105.310 C 143.338 102.114, 140.868 98.060, 139.801 96.300 L 137.861 93.100 141.431 85.578 C 144.072 80.013, 145 76.732, 145 72.963 C 145 67.148, 144.066 64.923, 139.560 60 C 135.977 56.086, 123.842 39.621, 122.204 36.451 C 121.382 34.861, 122.005 31.022, 124.991 19.288 C 127.106 10.975, 129.339 3.235, 129.954 2.087 L 131.070 0 83.035 0 L 35 0 35 4.022" stroke="none" fill="black" fill-rule="evenodd"/>
</svg>