<svg xmlns="http://www.w3.org/2000/svg" width="192" height="144" viewBox="0 0 192 144" version="1.1">
	<path d="M 64.022 4.750 C 64.052 11.330, 67.005 17.267, 72.074 20.938 L 76.300 24 70.150 24 C 66.518 24, 64 24.430, 64 25.051 C 64 25.629, 62.314 27.646, 60.254 29.534 L 56.507 32.966 58.737 34.528 C 61.473 36.445, 63.007 41.637, 61.807 44.917 C 61.255 46.426, 61.298 47.566, 61.921 47.951 C 63.019 48.630, 63.292 57.624, 62.544 68.500 C 62.279 72.350, 61.861 88.325, 61.615 104 C 61.369 119.675, 60.725 134.198, 60.184 136.274 C 58.852 141.382, 59.661 144, 62.571 144 C 65.157 144, 65.945 141.439, 65.954 133 C 65.957 130.525, 66.081 115.535, 66.229 99.690 L 66.500 70.880 68.596 73.317 C 69.749 74.657, 75.149 79.504, 80.596 84.088 C 86.043 88.671, 90.407 92.718, 90.293 93.082 C 90.179 93.445, 87.095 98.122, 83.440 103.475 C 71.324 121.222, 68.661 128.748, 71.019 138.580 C 72.561 145.006, 73.748 145.307, 78.789 140.551 C 82.615 136.942, 83.954 137.251, 83.985 141.750 L 84 144 105.927 144 C 125.968 144, 127.893 143.850, 128.311 142.250 C 128.746 140.583, 128.774 140.583, 128.884 142.250 C 128.948 143.213, 129.675 144, 130.500 144 C 132.364 144, 132.486 137.545, 130.899 122.957 C 129.423 109.392, 130.197 104.467, 134.122 102.437 C 138.731 100.053, 144.837 94.135, 147.665 89.308 C 150.232 84.929, 150.359 81.801, 148.320 73.250 C 147.869 71.361, 148.475 70.690, 152.087 69.072 L 156.392 67.145 160.696 69.668 C 165.242 72.332, 166.152 71.972, 163.250 68.659 C 161.840 67.049, 161.798 66.769, 163.035 67.217 C 164.209 67.642, 164.562 67.041, 164.535 64.667 C 164.483 60.070, 161.311 58.754, 152.097 59.507 C 148.026 59.839, 143.301 60.376, 141.597 60.700 L 138.500 61.288 140.750 58.830 C 141.987 57.477, 143 55.922, 143 55.374 C 143 54.825, 144.349 53.378, 145.999 52.159 C 147.648 50.940, 149.632 48.423, 150.407 46.567 C 151.218 44.627, 152.812 42.889, 154.159 42.478 C 158.055 41.289, 160 38.914, 160 35.345 C 160 32.667, 159.601 32, 158 32 C 156.900 32, 155.994 32.563, 155.988 33.250 C 155.973 34.733, 149.684 39, 147.514 39 C 146.681 39, 146 39.438, 146 39.974 C 146 41.351, 139.851 44.449, 137.743 44.134 C 136.777 43.990, 135.699 44.688, 135.348 45.686 C 134.997 46.684, 133.782 48.248, 132.647 49.161 C 130.704 50.725, 130.305 50.681, 125.825 48.411 C 122.126 46.537, 119.488 46, 113.974 46 C 109.848 46, 107.123 46.390, 107.458 46.932 C 107.774 47.444, 107.187 48.456, 106.153 49.182 C 103.237 51.226, 100.167 56.924, 100.760 59.191 C 101.187 60.825, 100.918 61.117, 99.396 60.666 C 97.862 60.212, 96.895 61.311, 94.330 66.420 C 91.168 72.721, 91.165 72.742, 92.999 75.759 C 94.011 77.421, 95.324 79.082, 95.919 79.450 C 96.514 79.817, 97 80.585, 97 81.156 C 97 81.727, 95.313 80.781, 93.250 79.054 C 91.188 77.327, 86.463 73.843, 82.750 71.310 C 76.521 67.062, 76 66.428, 75.994 63.103 C 75.991 61.121, 75.546 56.800, 75.005 53.500 C 74.367 49.609, 74.364 47.385, 74.996 47.172 C 75.554 46.984, 75.296 45.540, 74.392 43.792 C 72.894 40.894, 72.926 40.634, 75.024 38.620 C 76.857 36.862, 77.326 36.756, 77.771 38 C 78.067 38.825, 79.986 41.188, 82.037 43.250 C 84.960 46.190, 86.538 47, 89.343 47 C 92.841 47, 93.722 47.549, 96.363 51.377 C 98.286 54.163, 101.923 52.050, 101.252 48.536 C 100.888 46.636, 101.647 45.026, 104.276 42.116 C 110.125 35.643, 110.144 28.811, 104.336 21.196 L 101.809 17.884 103.532 11.518 C 104.485 8, 104.966 4.001, 104.609 2.577 L 103.962 0 83.981 0 L 64 0 64.022 4.750 M 60.500 33 C 60.160 33.550, 60.359 34, 60.941 34 C 61.523 34, 62 33.550, 62 33 C 62 32.450, 61.802 32, 61.559 32 C 61.316 32, 60.840 32.450, 60.500 33 M 64.079 65.583 C 64.127 66.748, 64.364 66.985, 64.683 66.188 C 64.972 65.466, 64.936 64.603, 64.604 64.271 C 64.272 63.939, 64.036 64.529, 64.079 65.583 M 63.180 79.250 C 63.356 80.487, 63.950 81.500, 64.500 81.500 C 65.050 81.500, 65.644 80.487, 65.820 79.250 C 66.039 77.702, 65.628 77, 64.500 77 C 63.372 77, 62.961 77.702, 63.180 79.250 M 63 94 C 63 95.111, 63.667 96, 64.500 96 C 65.333 96, 66 95.111, 66 94 C 66 92.889, 65.333 92, 64.500 92 C 63.667 92, 63 92.889, 63 94 M 63 108.500 C 63 110.189, 63.458 111.014, 64.250 110.750 C 64.938 110.521, 65.500 109.508, 65.500 108.500 C 65.500 107.492, 64.938 106.479, 64.250 106.250 C 63.458 105.986, 63 106.811, 63 108.500 M 62.744 121.750 C 62 123.243, 62.528 125.343, 63.750 125.750 C 64.535 126.012, 65 125.206, 65 123.583 C 65 121.181, 63.596 120.041, 62.744 121.750 M 61.607 137.582 C 60.647 140.084, 60.886 141, 62.500 141 C 63.433 141, 64 140.056, 64 138.500 C 64 135.707, 62.541 135.147, 61.607 137.582" stroke="none" fill="black" fill-rule="evenodd"/>
</svg>