<svg xmlns="http://www.w3.org/2000/svg" width="192" height="144" viewBox="0 0 192 144" version="1.1">
	<path d="M 14.366 6.250 C 14.720 9.688, 15.295 16.372, 15.643 21.104 L 16.277 29.708 13.087 30.820 C 10.060 31.875, 9.932 32.126, 10.580 35.716 C 11.589 41.308, 12.220 41.774, 13.603 37.945 C 14.847 34.501, 14.848 34.501, 14.924 37.356 C 14.966 38.926, 16.128 41.552, 17.507 43.190 C 20.440 46.677, 20.137 47.596, 15.739 48.544 C 7.823 50.248, 4.526 54.109, 9.403 55.963 C 10.724 56.466, 12.101 57.354, 12.462 57.938 C 12.823 58.522, 13.879 59.003, 14.809 59.006 C 15.739 59.010, 17.269 60.364, 18.209 62.015 C 19.148 63.667, 21.106 65.470, 22.558 66.022 C 24.796 66.873, 25.805 66.581, 29.168 64.108 L 33.137 61.189 30.069 60.515 C 28.381 60.144, 27 59.459, 27 58.992 C 27 57.676, 29.990 55, 31.461 55 C 32.185 55, 33.793 54.178, 35.034 53.174 L 37.289 51.347 34.957 49.174 L 32.624 47.001 35.259 44.251 C 40.650 38.623, 42.886 28.726, 38.996 27.709 C 37.565 27.335, 35.680 28.461, 32.393 31.656 C 29.863 34.115, 27.600 35.934, 27.364 35.698 C 27.129 35.462, 27.393 33.296, 27.952 30.885 C 28.511 28.473, 29.188 25.347, 29.456 23.938 C 29.724 22.528, 32.234 18.759, 35.032 15.561 C 41.096 8.631, 42.553 6.401, 43.400 2.750 L 44.038 0 28.880 -0 L 13.722 -0 14.366 6.250 M 98 72 L 98 144 130.344 144 L 162.688 144 163.882 136.250 C 164.539 131.988, 165.335 127.039, 165.651 125.254 L 166.226 122.008 162.569 123.536 C 158.192 125.365, 157 124.827, 157 121.024 C 157 119.453, 156.552 118.017, 156.005 117.833 C 154.041 117.175, 157.070 104.759, 160.151 100.838 C 161.733 98.824, 163.680 95.616, 164.477 93.709 C 165.274 91.802, 167.107 88.838, 168.551 87.122 C 170.776 84.478, 171.711 84.069, 174.692 84.439 C 176.626 84.679, 178.283 85.016, 178.374 85.188 C 178.466 85.359, 179.105 87.075, 179.796 89 C 181.007 92.375, 180.929 92.613, 177.627 95.671 L 174.202 98.841 176.584 101.079 C 177.894 102.309, 179.252 104.258, 179.601 105.408 C 179.951 106.559, 180.927 108.286, 181.770 109.246 C 183.675 111.416, 186.042 109.876, 185.280 106.963 C 184.936 105.649, 185.269 105, 186.285 105 C 187.394 105, 187.988 106.591, 188.489 110.903 C 189.302 117.906, 187.844 120.897, 182.349 123.505 C 179.911 124.662, 178.958 125.697, 179.277 126.841 C 179.531 127.753, 180.810 131.983, 182.119 136.241 L 184.500 143.981 188.250 143.991 L 192 144 192 72 L 192 0 145 0 L 98 0 98 72 M 170.079 111.583 C 170.127 112.748, 170.364 112.985, 170.683 112.188 C 170.972 111.466, 170.936 110.603, 170.604 110.271 C 170.272 109.939, 170.036 110.529, 170.079 111.583" stroke="none" fill="black" fill-rule="evenodd"/>
</svg>