<svg xmlns="http://www.w3.org/2000/svg" width="192" height="144" viewBox="0 0 192 144" version="1.1">
	<path d="M 136.003 3.330 C 132.270 4.301, 131.206 5.137, 129.745 8.250 C 128.279 11.372, 127.476 12, 124.952 12 C 120.568 12, 114.754 15.302, 110.607 20.146 C 107.368 23.930, 107 24.949, 107 30.128 C 107 34.941, 107.427 36.358, 109.577 38.677 L 112.153 41.457 109.880 43.299 C 107.913 44.891, 107.777 45.413, 108.872 47.167 C 109.569 48.282, 109.936 49.397, 109.689 49.645 C 109.441 49.892, 109.794 51.986, 110.473 54.297 C 111.575 58.047, 112.074 58.536, 115.100 58.832 C 119.618 59.274, 121 60.598, 121 64.486 C 121 67.080, 120.012 68.650, 116.043 72.363 C 113.316 74.913, 110.625 77, 110.062 77 C 109.499 77, 108.777 78.013, 108.458 79.250 C 108.139 80.487, 106.445 82.175, 104.693 83 C 102.942 83.825, 101.001 85.541, 100.381 86.813 C 99.760 88.086, 97.641 90.603, 95.671 92.407 L 92.090 95.687 91.587 93.094 C 91.311 91.667, 90.789 85.662, 90.429 79.750 C 89.687 67.591, 89.233 68.147, 98 70.500 C 104.559 72.260, 104 72.204, 104 71.101 C 104 70.607, 100.679 68.992, 96.619 67.511 C 91.257 65.555, 88.936 64.155, 88.132 62.389 C 86.756 59.370, 82.663 57.729, 78.592 58.565 C 74.217 59.464, 70.856 59.479, 68.250 58.613 C 65.061 57.553, 65.458 59.249, 68.871 61.265 C 70.649 62.315, 71.972 64.111, 72.346 65.980 C 72.678 67.641, 73.584 69, 74.360 69 C 75.135 69, 76.583 70.238, 77.576 71.750 C 79.155 74.155, 79.389 76.944, 79.441 93.957 L 79.500 113.414 82.069 114.861 C 85.343 116.704, 88.121 115.975, 94.885 111.500 C 97.847 109.540, 100.423 108.090, 100.610 108.277 C 101.391 109.057, 102.217 123, 101.623 125.366 C 100.980 127.927, 100.949 127.934, 92.739 127.368 C 87.181 126.984, 83.665 126.216, 81.933 125.005 C 80.521 124.018, 77.146 122.049, 74.433 120.629 C 71.720 119.209, 64.446 113.537, 58.270 108.024 C 52.093 102.511, 46.440 98, 45.707 98 C 43.916 98, 38.983 103.243, 39.068 105.055 C 39.106 105.850, 41.788 108.750, 45.030 111.500 C 48.271 114.250, 50.964 117.175, 51.015 118 C 51.066 118.825, 53.221 122.650, 55.804 126.500 C 60.033 132.804, 60.898 133.561, 64.500 134.112 C 78.211 136.210, 82.779 137.269, 85 138.861 C 90.407 142.739, 95.595 143.397, 123.468 143.736 L 150.436 144.064 147.812 141.282 C 144.882 138.176, 143 129.025, 143 117.887 C 143 113.709, 142.498 111.103, 141.476 109.973 C 140.062 108.411, 140.315 108.324, 144.976 108.772 C 148.322 109.093, 150 108.878, 150 108.127 C 150 107.507, 151.125 107, 152.500 107 C 153.875 107, 155 106.550, 155 106 C 155 105.450, 155.900 105, 157 105 C 158.208 105, 159.031 104.307, 159.079 103.250 C 159.127 102.194, 159.359 101.998, 159.664 102.756 C 159.943 103.447, 160.648 103.718, 161.231 103.357 C 161.939 102.920, 162.061 103.623, 161.598 105.468 C 161.216 106.989, 160.631 109.643, 160.299 111.367 L 159.695 114.500 161.980 112.500 L 164.266 110.500 163.720 112.500 C 162.322 117.626, 161.969 122, 162.955 122 C 163.530 122, 164 123.848, 164 126.107 C 164 129.491, 164.287 130.104, 165.629 129.589 C 166.982 129.070, 167.155 129.474, 166.654 131.982 C 166.008 135.210, 167.527 136.073, 169.819 133.781 C 170.777 132.823, 170.902 133.241, 170.403 135.737 C 169.961 137.944, 170.238 139.381, 171.312 140.455 C 172.704 141.847, 173.072 141.728, 175.052 139.249 L 177.248 136.500 176.487 139 C 176.068 140.375, 175.514 142.063, 175.256 142.750 C 174.903 143.690, 176.924 144, 183.393 144 L 192 144 192 110.137 L 192 76.275 185.077 71.127 C 179.130 66.705, 169.827 56.255, 168.272 52.250 C 167.479 50.210, 166.663 50.744, 162.480 56.038 L 158.500 61.076 157.990 54.871 C 157.710 51.458, 157.902 45.613, 158.418 41.882 C 159.592 33.387, 157.408 24.411, 152.744 18.562 C 150.593 15.865, 149.673 13.703, 149.826 11.703 C 149.995 9.484, 149.185 7.967, 146.453 5.391 C 142.500 1.663, 142.452 1.653, 136.003 3.330 M 138.015 122.191 C 138.024 125.111, 138.467 128.175, 139 129 C 139.684 130.058, 139.974 128.675, 139.985 124.309 C 139.993 120.904, 139.550 117.840, 139 117.500 C 138.381 117.117, 138.006 118.903, 138.015 122.191" stroke="none" fill="black" fill-rule="evenodd"/>
</svg>