<svg xmlns="http://www.w3.org/2000/svg" width="192" height="144" viewBox="0 0 192 144" version="1.1">
	<path d="M -0 72.005 L -0 144.010 96.250 143.755 L 192.500 143.500 192.757 71.750 L 193.013 0 151.007 0 L 109 0 108.994 3.250 C 108.985 8.977, 106.902 14.288, 101.647 21.987 C 98.826 26.119, 96.413 29.676, 96.284 29.892 C 95.864 30.594, 92.119 25.651, 87.336 18.081 C 83.326 11.736, 82.637 9.892, 82.574 5.337 L 82.500 0.012 41.250 0.006 L 0 0 -0 72.005 M 0.474 72.500 C 0.474 112.100, 0.598 128.154, 0.750 108.176 C 0.901 88.198, 0.901 55.798, 0.750 36.176 C 0.598 16.554, 0.474 32.900, 0.474 72.500 M 95 39.455 C 95 40.805, 93.875 43.034, 92.500 44.409 C 91.125 45.784, 90 48.049, 90 49.442 C 90 51.301, 88.957 52.633, 86.080 54.450 C 81.266 57.489, 77.449 62.417, 76.521 66.791 C 75.859 69.915, 75.949 70.051, 78.299 69.461 C 80.114 69.006, 81.151 69.377, 82.185 70.854 C 83.127 72.199, 84.488 72.770, 86.282 72.573 C 88.656 72.313, 88.899 72.553, 88.376 74.639 C 88.022 76.049, 88.226 77, 88.883 77 C 90.194 77, 89.530 89.142, 88.070 91.870 C 87.484 92.964, 87.482 95.197, 88.064 97.787 C 88.858 101.321, 88.622 102.797, 86.499 107.598 C 85.125 110.706, 84 114.530, 84 116.096 C 84 118.469, 84.540 119.082, 87.250 119.780 C 90.191 120.537, 90.529 121.014, 90.807 124.808 C 91.052 128.138, 91.502 129, 92.998 129 C 95.189 129, 96.913 126.804, 95.177 126.226 C 94.530 126.010, 94 124.971, 94 123.917 C 94 122.438, 94.712 122, 97.111 122 C 100.138 122, 100.204 122.097, 99.551 125.577 C 98.929 128.898, 99.046 129.131, 101.190 128.827 C 103.096 128.557, 103.500 127.894, 103.500 125.034 C 103.500 122.077, 103.940 121.418, 106.500 120.547 C 108.150 119.985, 109.734 119.211, 110.020 118.826 C 110.307 118.440, 111.667 117.697, 113.043 117.174 C 116.998 115.670, 116.529 112.074, 110.960 101.207 C 108.200 95.822, 105.719 89.635, 105.447 87.458 C 105.006 83.931, 105.082 83.748, 106.142 85.778 C 106.796 87.031, 107.819 87.896, 108.415 87.700 C 110.430 87.038, 110.226 82.859, 108.082 80.862 C 106.937 79.795, 105.994 78.152, 105.986 77.211 C 105.979 76.270, 105.688 74.436, 105.340 73.136 C 104.777 71.033, 104.971 70.841, 107.104 71.391 L 109.500 72.011 107.250 70.852 C 106.013 70.216, 105 69.384, 105 69.005 C 105 68.073, 112.111 66, 115.307 66 C 116.723 66, 118.161 65.549, 118.502 64.997 C 118.913 64.332, 119.858 64.351, 121.311 65.052 C 123.463 66.092, 123.466 66.083, 121.500 64.493 C 119.524 62.895, 119.523 62.859, 121.441 61.438 C 122.509 60.647, 124.196 60, 125.191 60 C 127.225 60, 127.469 58.363, 126.006 54.517 C 124.868 51.524, 120.766 49.528, 113.528 48.448 C 109.993 47.921, 107.995 46.992, 106.611 45.232 C 105.540 43.871, 103.145 42.123, 101.289 41.347 C 99.432 40.571, 97.659 39.276, 97.350 38.468 C 96.458 36.146, 95 36.759, 95 39.455" stroke="none" fill="black" fill-rule="evenodd"/>
</svg>