<svg xmlns="http://www.w3.org/2000/svg" width="192" height="144" viewBox="0 0 192 144" version="1.1">
	<path d="M 113 8.525 C 112.175 9.355, 109.786 11.447, 107.691 13.173 C 102.432 17.505, 99.979 22.594, 101.266 26.500 C 101.810 28.150, 103.171 30.508, 104.292 31.740 C 106.200 33.837, 106.224 34.095, 104.662 35.821 C 103.746 36.834, 103.302 37.969, 103.676 38.343 C 104.051 38.718, 105.085 41.129, 105.974 43.702 C 107.251 47.397, 108.193 48.541, 110.460 49.148 C 113.145 49.866, 114.949 51.505, 114.985 53.258 C 114.993 53.675, 111.580 57.415, 107.399 61.568 C 101.672 67.259, 99.927 69.612, 100.320 71.116 C 100.607 72.214, 99.904 75.370, 98.758 78.128 C 96.888 82.628, 96.791 83.773, 97.812 89.263 C 98.438 92.629, 98.747 95.586, 98.500 95.833 C 98.253 96.081, 95.309 95.094, 91.959 93.642 C 88.609 92.189, 84.885 90.993, 83.684 90.985 C 79.714 90.958, 76.808 88.627, 75.366 84.311 C 74.074 80.444, 74.127 79.834, 76.060 76.394 C 78.089 72.781, 78.100 72.548, 76.418 68.818 C 74.767 65.157, 74.507 65, 71.091 65.596 C 65.236 66.620, 62.917 69.691, 62.010 77.625 C 61.578 81.406, 60.549 87.425, 59.723 91 C 58.172 97.710, 58.575 104.715, 60.830 110.250 C 62.088 113.339, 63.959 113.914, 64.079 111.250 C 64.127 110.176, 64.355 109.990, 64.668 110.767 C 64.949 111.464, 63.933 117.622, 62.412 124.452 C 60.126 134.715, 59.870 137.138, 60.936 138.423 C 61.646 139.278, 62.572 139.764, 62.995 139.503 C 63.417 139.242, 65.411 140.147, 67.426 141.514 C 71.671 144.395, 73.945 144.597, 78.079 142.459 C 79.718 141.612, 81.440 141.154, 81.907 141.442 C 82.373 141.730, 84.272 140.929, 86.127 139.661 C 89.201 137.559, 89.476 136.963, 89.234 132.928 C 89.088 130.492, 87.850 123.454, 86.484 117.287 C 85.118 111.119, 84 105.832, 84 105.537 C 84 104.229, 86.417 105.310, 92.969 109.548 C 101.311 114.945, 101.291 114.847, 97.509 131.518 C 96.139 137.558, 95.014 142.838, 95.009 143.250 C 95.004 143.662, 106.025 144, 119.500 144 C 133.690 144, 144 143.614, 144 143.083 C 144 141.136, 140.046 133.123, 134.830 124.500 C 127.530 112.432, 125.200 103.069, 127.060 93.269 C 128.182 87.356, 132.965 76.427, 132.991 79.719 C 132.996 80.390, 133.674 80.679, 134.500 80.362 C 136.412 79.628, 136.389 77.459, 134.384 69.478 C 132.602 62.385, 133.038 58.956, 135.464 60.970 C 137.366 62.548, 141.727 59.533, 142.653 56 C 143.013 54.625, 143.783 53.190, 144.364 52.811 C 145.090 52.337, 145.114 50.620, 144.439 47.311 C 143.899 44.665, 143.779 40.700, 144.171 38.500 C 145.413 31.538, 145.061 26.239, 142.990 20.702 C 139.591 11.618, 133.660 7.842, 122 7.339 C 116.313 7.093, 114.137 7.380, 113 8.525" stroke="none" fill="black" fill-rule="evenodd"/>
</svg>