<svg xmlns="http://www.w3.org/2000/svg" width="192" height="144" viewBox="0 0 192 144" version="1.1">
	<path d="M 0 72 L 0 144 38.875 144 L 77.750 144 78.375 140.875 C 79.268 136.409, 79.147 132.143, 78.070 130.130 C 76.943 128.025, 79.340 120.232, 83.879 111.239 L 87 105.057 87 84.667 L 87 64.277 89.468 64.749 C 90.842 65.012, 92.234 66.163, 92.610 67.347 C 93.133 68.993, 93.992 67.447, 96.421 60.486 L 99.557 51.500 96.528 45.767 C 94.863 42.613, 93.220 40.026, 92.878 40.017 C 92.536 40.007, 91.964 41.821, 91.608 44.047 C 91.015 47.761, 89 48.837, 89 45.441 C 89 44.648, 88.550 44, 88 44 C 87.422 44, 87 40.814, 87 36.441 C 87 31.656, 87.367 29.109, 88 29.500 C 88.550 29.840, 89 29.247, 89 28.181 C 89 25.230, 91.310 23.787, 94.247 24.904 C 96.578 25.790, 100.229 29.581, 101.371 32.300 C 101.712 33.113, 102.379 32.873, 103.437 31.559 C 104.806 29.858, 105 29.827, 105 31.309 C 105 33.599, 106.302 33.436, 108.595 30.859 C 111.533 27.556, 117.974 25.046, 123.572 25.022 C 129.146 24.998, 138 27.582, 138 29.234 C 138 29.809, 138.736 30.817, 139.635 31.475 C 140.964 32.447, 141.321 34.954, 141.547 44.896 C 141.820 56.893, 141.781 57.143, 139.468 58.197 C 136.568 59.518, 136.129 60.586, 136.752 64.796 C 137.106 67.182, 138.395 68.977, 141.422 71.296 C 147.344 75.834, 157.880 87.728, 158.753 90.860 C 159.157 92.312, 159.491 96.271, 159.494 99.657 L 159.500 105.814 164.064 107.743 L 168.629 109.671 168.203 116.086 C 167.969 119.613, 167.378 123.258, 166.889 124.184 C 166.400 125.111, 166 129.961, 166 134.963 L 166 144.058 179.250 143.779 L 192.500 143.500 192.757 71.750 L 193.013 0 148.026 -0 L 103.038 -0 102.469 2.267 C 101.964 4.280, 101.242 4.549, 96.034 4.669 C 90.623 4.793, 90.121 4.617, 89.565 2.402 L 88.962 0 44.481 0 L 0 0 0 72 M 0.474 72.500 C 0.474 112.100, 0.598 128.154, 0.750 108.176 C 0.901 88.198, 0.901 55.798, 0.750 36.176 C 0.598 16.554, 0.474 32.900, 0.474 72.500 M 87.813 52.683 C 88.534 52.972, 89.397 52.936, 89.729 52.604 C 90.061 52.272, 89.471 52.036, 88.417 52.079 C 87.252 52.127, 87.015 52.364, 87.813 52.683 M 94.510 72.016 C 94.856 72.575, 95.557 72.774, 96.069 72.457 C 97.456 71.600, 97.198 71, 95.441 71 C 94.584 71, 94.165 71.457, 94.510 72.016 M 111.035 139.934 C 109.441 142.913, 109.787 144, 112.327 144 C 114.343 144, 114.595 143.600, 114.213 141 C 113.707 137.549, 112.524 137.152, 111.035 139.934" stroke="none" fill="black" fill-rule="evenodd"/>
</svg>