<svg xmlns="http://www.w3.org/2000/svg" width="192" height="144" viewBox="0 0 192 144" version="1.1">
	<path d="M 46.364 22.505 C 46.849 23.771, 46.110 23.916, 41.721 23.415 C 37.240 22.904, 36.172 23.130, 34.185 25.009 C 32.348 26.747, 31.162 27.065, 28.435 26.554 C 25.773 26.054, 25 26.244, 25 27.396 C 25 28.213, 25.493 29.187, 26.096 29.559 C 26.699 29.932, 27.003 31.529, 26.771 33.108 C 26.466 35.183, 26.994 36.586, 28.675 38.164 C 31.517 40.835, 31.839 47.476, 29.358 52.274 C 28.431 54.066, 27.601 58.401, 27.451 62.229 C 27.180 69.124, 25.508 73.062, 19.806 80.235 L 17.632 82.970 19.608 86.735 C 21.295 89.948, 22.141 90.546, 25.390 90.816 L 29.195 91.132 28.577 109.316 C 28.237 119.317, 27.703 131.213, 27.390 135.750 L 26.820 144 34.410 144 L 42 144 42 141 C 42 139.205, 42.522 138, 43.300 138 C 45.155 138, 47 140.094, 47 142.200 C 47 143.762, 47.926 144, 54 144 C 57.850 144, 60.991 143.662, 60.980 143.250 C 60.957 142.371, 57.766 115.752, 55.616 98.500 C 53.437 81.015, 53.303 79, 54.323 79 C 54.834 79, 54.791 78.442, 54.226 77.750 C 53.666 77.063, 52.740 74.787, 52.169 72.694 C 50.937 68.180, 52.539 66.880, 56.633 69.071 C 61.586 71.722, 64.905 66.657, 60.964 62.462 C 58.709 60.061, 58.781 59.128, 61.505 55.404 C 62.970 53.403, 62.792 53.145, 57.519 49.644 C 54.484 47.629, 52 45.325, 52 44.525 C 52 43.724, 53.350 41.532, 55 39.653 C 58.621 35.529, 58.696 34.686, 55.623 32.672 C 54.315 31.816, 52.932 29.852, 52.549 28.307 C 51.821 25.378, 48.329 21, 46.719 21 C 46.206 21, 46.046 21.677, 46.364 22.505" stroke="none" fill="black" fill-rule="evenodd"/>
</svg>