<svg xmlns="http://www.w3.org/2000/svg" width="192" height="144" viewBox="0 0 192 144" version="1.1">
	<path d="M 77.064 26.967 C 71.862 27.808, 68.286 31.408, 64.120 40 C 62.653 43.025, 61.035 46.167, 60.524 46.982 C 60.013 47.797, 59.475 53.872, 59.328 60.482 C 59.063 72.414, 59.073 72.475, 60.760 69 L 62.459 65.500 63.022 71.500 L 63.584 77.500 65.253 74 C 66.899 70.547, 66.922 70.537, 66.961 73.250 C 66.982 74.763, 67.450 76, 68 76 C 68.550 76, 69 78.025, 69 80.500 C 69 83.028, 69.469 85, 70.070 85 C 71.570 85, 70.778 89.472, 69.250 89.625 C 66.659 89.884, 66.563 90.152, 68.750 91.031 C 71.294 92.054, 71.400 93.151, 69.961 103.500 C 69.425 107.350, 68.511 114.550, 67.929 119.500 C 67.347 124.450, 66.264 130.750, 65.523 133.500 C 64.781 136.250, 63.902 139.738, 63.568 141.250 L 62.962 144 80.098 144 L 97.235 144 96.626 136.250 C 95.971 127.898, 96.369 128.130, 100.051 138.250 L 102.144 144 112.626 144 C 122.892 144, 123.175 143.938, 126.304 141.005 C 129.632 137.886, 131 137.302, 131 139 C 131 139.550, 131.450 140, 132 140 C 132.550 140, 133 139.325, 133 138.500 C 133 137.675, 133.366 137, 133.813 137 C 134.260 137, 134.727 135.051, 134.850 132.670 C 135.114 127.572, 131.235 114.593, 126.386 104.346 C 124.524 100.411, 123 96.960, 123 96.675 C 123 96.391, 124.365 95.859, 126.034 95.493 C 129.677 94.692, 131.995 91.457, 132.702 86.183 C 133.151 82.835, 132.825 81.918, 130.372 79.645 C 127.149 76.655, 123.496 76.264, 120.223 78.557 C 118.436 79.808, 118 81.082, 118 85.057 C 118 88.951, 117.655 90, 116.377 90 C 115.484 90, 111.881 92.050, 108.371 94.555 C 104.860 97.060, 101.579 98.858, 101.081 98.550 C 100.582 98.242, 99.859 96.079, 99.474 93.745 C 99.089 91.410, 97.205 86.676, 95.287 83.225 L 91.800 76.950 93.645 67.822 C 95.395 59.165, 95.657 58.623, 98.709 57.348 C 103.292 55.433, 104.291 53.025, 103.123 46.707 C 102.589 43.820, 102.011 41.017, 101.838 40.479 C 101.666 39.940, 102.164 37.971, 102.945 36.102 C 104.318 32.817, 104.270 32.627, 101.525 30.438 C 98.147 27.744, 94.697 26.940, 91.032 27.991 C 89.316 28.483, 87.480 28.276, 85.926 27.415 C 83.260 25.938, 83.392 25.945, 77.064 26.967" stroke="none" fill="black" fill-rule="evenodd"/>
</svg>