<svg xmlns="http://www.w3.org/2000/svg" width="192" height="144" viewBox="0 0 192 144" version="1.1">
	<path d="M 30.265 48.815 C 28.325 50.047, 31.364 53.623, 34.964 54.343 C 38.014 54.953, 39.248 57, 36.565 57 C 35.776 57, 34.012 57.425, 32.644 57.945 C 30.790 58.650, 30.295 59.412, 30.696 60.945 C 31.154 62.695, 32.069 63.015, 36.867 63.100 C 39.965 63.155, 43.625 63.522, 45 63.917 C 47.429 64.614, 47.397 64.668, 43.871 65.855 C 36.594 68.302, 34.373 74.909, 41.262 73.615 C 43.043 73.281, 46.268 72.711, 48.429 72.348 L 52.358 71.689 50.179 74.749 C 47.786 78.110, 47.287 82.002, 49.250 81.996 C 49.938 81.993, 52.525 80.645, 55 79 C 60.679 75.225, 67.629 74.827, 70.595 78.106 C 73.278 81.073, 78.753 83.626, 83.828 84.276 C 89.393 84.989, 92.353 87.461, 90.738 90.048 C 89.823 91.513, 89.940 92.276, 91.313 93.793 C 92.758 95.391, 95.010 95.799, 105.268 96.324 C 116.109 96.879, 132.233 99.711, 148.500 103.918 C 150.700 104.487, 161.387 104.963, 172.250 104.976 L 192 105 192 89.458 L 192 73.917 184.750 74.551 C 172.680 75.607, 164.067 75.371, 152 73.653 C 145.675 72.753, 136.228 71.554, 131.007 70.990 C 125.785 70.426, 115.900 69.028, 109.039 67.884 C 100.358 66.437, 96.454 66.138, 96.199 66.902 C 95.435 69.195, 89.842 67.598, 75.207 60.911 C 72.847 59.832, 69.247 58.322, 67.207 57.555 C 65.168 56.788, 60.350 54.936, 56.500 53.440 C 44.442 48.753, 33.421 46.810, 30.265 48.815" stroke="none" fill="black" fill-rule="evenodd"/>
</svg>