<svg xmlns="http://www.w3.org/2000/svg" width="192" height="144" viewBox="0 0 192 144" version="1.1">
	<path d="M -0 72.005 L -0 144.010 96.250 143.755 L 192.500 143.500 192.757 71.750 L 193.013 0 96.507 0 L 0 0 -0 72.005 M 0.474 72.500 C 0.474 112.100, 0.598 128.154, 0.750 108.176 C 0.901 88.198, 0.901 55.798, 0.750 36.176 C 0.598 16.554, 0.474 32.900, 0.474 72.500 M 139.196 70.810 C 136.778 70.984, 134.667 71.705, 134.379 72.454 C 133.767 74.049, 139.929 86.411, 143.192 90.134 C 144.461 91.583, 149.100 94.679, 153.500 97.014 C 157.900 99.349, 164.875 103.168, 169 105.499 C 177.115 110.087, 190.626 117, 191.475 117 C 191.764 117, 192 112.115, 192 106.143 L 192 95.287 186.750 91.869 C 183.863 89.990, 175.941 84.680, 169.148 80.069 C 157.439 72.124, 156.449 71.656, 150.148 71.094 C 146.491 70.767, 141.563 70.640, 139.196 70.810" stroke="none" fill="black" fill-rule="evenodd"/>
</svg>