<svg xmlns="http://www.w3.org/2000/svg" width="192" height="144" viewBox="0 0 192 144" version="1.1">
	<path d="M 0 14.429 L 0 28.858 5.576 30.016 C 22.534 33.536, 31.823 33.781, 41.503 30.963 C 54.927 27.055, 75.414 27.355, 92.875 31.714 C 98.992 33.242, 99.292 33.229, 100.304 31.403 C 100.884 30.356, 102.628 28.307, 104.179 26.849 C 107.519 23.710, 107.785 22, 104.934 22 C 101.698 22, 99 20.125, 99 17.875 C 99 15.599, 101.438 13.216, 107.590 9.481 C 111.249 7.259, 114 3.599, 114 0.953 C 114 0.360, 92.457 0, 57 0 L 0 0 0 14.429 M 181.905 1.614 C 181.169 2.502, 178.189 4.570, 175.283 6.209 C 172.377 7.849, 170 9.561, 170 10.013 C 170 10.464, 170.884 12.897, 171.965 15.419 C 173.924 19.988, 173.924 20.015, 171.918 23.414 C 170.699 25.481, 168.153 27.648, 165.453 28.917 C 161.214 30.910, 159.825 33.156, 162 34.500 C 163.186 35.233, 163.354 39, 162.201 39 C 161.761 39, 161.580 40.525, 161.797 42.388 C 162.172 45.598, 159.852 52.026, 156.810 56.202 C 156.129 57.138, 155.780 58.079, 156.035 58.293 C 160.220 61.793, 176.326 71, 178.265 71 C 179.685 71, 182.794 72.482, 185.173 74.294 C 187.553 76.106, 190.063 77.932, 190.750 78.353 C 191.742 78.960, 192 70.948, 192 39.559 L 192 0 187.622 0 C 184.814 0, 182.765 0.578, 181.905 1.614 M 51 40.732 C 49.625 40.985, 44.450 42.779, 39.500 44.718 C 32.312 47.534, 28.799 48.316, 22.053 48.599 C 16.547 48.830, 13.370 49.397, 12.931 50.227 C 11.241 53.416, 6.924 72.793, 5.072 85.500 C 3.950 93.200, 2.353 104, 1.522 109.500 C 0.691 115, 0.009 125.013, 0.006 131.750 L 0 144 55.980 144 L 111.959 144 114.230 139.750 C 116.436 135.619, 116.500 134.706, 116.500 107.254 C 116.500 81.020, 116.375 79.007, 114.750 79.004 C 113.598 79.001, 113.006 78.231, 113.017 76.750 C 113.034 74.537, 116.126 62.043, 117.438 58.887 C 117.971 57.606, 117.274 57.140, 114.061 56.626 C 111.131 56.157, 108.711 54.731, 105.302 51.465 C 101.231 47.565, 99.362 46.622, 91.546 44.526 C 76.993 40.625, 60.149 39.049, 51 40.732 M 161.518 81.697 C 162.368 83.731, 162.882 85.868, 162.661 86.447 C 162.439 87.026, 162.797 90.195, 163.456 93.490 L 164.654 99.480 167.402 95.328 C 169.783 91.729, 170.058 90.567, 169.463 86.601 C 168.904 82.876, 168.171 81.651, 165.520 80.013 C 160.637 76.994, 159.715 77.382, 161.518 81.697 M 190.500 114 C 190.160 114.550, 190.359 115, 190.941 115 C 191.523 115, 192 114.550, 192 114 C 192 113.450, 191.802 113, 191.559 113 C 191.316 113, 190.840 113.450, 190.500 114 M 164.335 135.750 C 161.604 138.912, 159.035 142.063, 158.626 142.750 C 158.043 143.730, 161.564 144, 174.941 144 L 192 144 192 140.083 C 192 136.390, 191.756 136.074, 187.750 134.577 C 181.082 132.085, 173.697 130.023, 171.400 130.011 C 170.078 130.004, 167.461 132.130, 164.335 135.750" stroke="none" fill="black" fill-rule="evenodd"/>
</svg>