<svg xmlns="http://www.w3.org/2000/svg" width="192" height="144" viewBox="0 0 192 144" version="1.1">
	<path d="M 93.816 61.581 C 87.490 63.527, 83.427 67.783, 82.132 73.818 C 81.562 76.476, 81.273 79.517, 81.488 80.575 C 81.704 81.634, 82.085 84.376, 82.334 86.668 C 82.741 90.407, 82.541 90.898, 80.394 91.437 C 79.077 91.768, 78 92.488, 78 93.038 C 78 93.619, 79.152 93.767, 80.750 93.391 C 82.263 93.035, 83.864 92.689, 84.308 92.622 C 84.753 92.555, 85.724 94.220, 86.465 96.322 C 88.487 102.051, 93.966 105.735, 101.858 106.670 C 112.575 107.939, 126.130 96.336, 128.367 83.977 C 128.874 81.181, 128.298 78.979, 125.576 73.298 C 121.843 65.509, 119.928 63.792, 112.440 61.520 C 106.341 59.670, 99.957 59.691, 93.816 61.581" stroke="none" fill="black" fill-rule="evenodd"/>
</svg>