<svg xmlns="http://www.w3.org/2000/svg" width="192" height="144" viewBox="0 0 192 144" version="1.1">
	<path d="M 0 72 L 0 144 43 144 C 83.272 144, 86.002 143.889, 86.036 142.250 C 86.055 141.287, 86.471 136.025, 86.959 130.554 C 87.723 122.008, 87.628 120.448, 86.286 119.467 C 85.142 118.631, 84.899 117.415, 85.376 114.913 C 87.829 102.039, 88.614 92.808, 87.655 88.124 C 86.909 84.483, 86.965 81.832, 87.862 78.317 C 88.538 75.668, 89.146 72.830, 89.212 72.012 C 89.279 71.193, 89.933 69.924, 90.667 69.190 C 93.288 66.569, 92.157 63.508, 86.908 59.019 C 82.350 55.121, 81.880 54.348, 82.423 51.635 C 83.378 46.862, 85.806 43.973, 90.673 41.820 C 95.659 39.615, 98.332 39.900, 102.357 43.067 C 106.504 46.328, 107.738 49.662, 110.531 65.143 C 112.641 76.841, 113.211 83.667, 113.604 102 C 113.911 116.267, 114.698 128.072, 115.756 134.262 L 117.424 144.024 154.962 143.762 L 192.500 143.500 192.527 71.500 C 192.542 31.900, 192.317 12.212, 192.027 27.749 L 191.500 55.998 185.416 53.120 C 177.351 49.305, 167.171 39.675, 163.072 31.983 C 158.741 23.858, 156 13.885, 156 6.253 L 156 0 78 0 L 0 0 0 72 M 0.474 72.500 C 0.474 112.100, 0.598 128.154, 0.750 108.176 C 0.901 88.198, 0.901 55.798, 0.750 36.176 C 0.598 16.554, 0.474 32.900, 0.474 72.500" stroke="none" fill="black" fill-rule="evenodd"/>
</svg>