<svg xmlns="http://www.w3.org/2000/svg" width="192" height="144" viewBox="0 0 192 144" version="1.1">
	<path d="M 0 72 L 0 144 27.889 144 L 55.777 144 56.381 140.750 C 56.713 138.963, 57.635 133.154, 58.429 127.842 C 59.224 122.529, 60.374 116.323, 60.987 114.050 C 61.818 110.962, 61.803 109.097, 60.927 106.675 C 59.888 103.801, 60.062 102.844, 62.465 98.249 C 64.918 93.557, 65.080 92.614, 64.165 88.323 C 63.118 83.415, 63.904 80.321, 66.604 78.724 C 67.326 78.297, 67.676 77.319, 67.381 76.552 C 66.515 74.294, 68.932 70.749, 70.974 71.283 C 72.557 71.697, 72.793 71.006, 72.907 65.627 C 72.979 62.257, 73.428 57.700, 73.904 55.500 C 74.443 53.012, 74.813 68.986, 74.885 97.750 L 75 144 90 144 C 98.250 144, 105 143.779, 105 143.509 C 105 143.238, 103.607 141.686, 101.904 140.058 C 99.111 137.389, 98.874 136.703, 99.492 133.050 C 100.231 128.673, 101.026 128.122, 103.061 130.574 C 104.222 131.972, 104.518 131.858, 105.728 129.550 C 107.147 126.841, 106.727 125, 104.689 125 C 104.033 125, 102.515 123.088, 101.316 120.750 C 98.788 115.823, 97.068 100.694, 98.906 99.558 C 99.508 99.186, 100 97.319, 100 95.410 C 100 93.215, 100.563 91.721, 101.530 91.350 C 102.537 90.964, 102.842 90.078, 102.423 88.757 C 102.052 87.588, 102.313 86.425, 103.048 85.970 C 104.018 85.371, 103.812 84.346, 102.155 81.538 C 100.970 79.529, 100 76.610, 100 75.050 C 100 71.840, 98.599 70.972, 94.639 71.729 C 92.711 72.097, 91.471 71.698, 90.436 70.376 C 87.861 67.087, 85.797 61.635, 85.409 57.097 C 85.203 54.676, 84.307 51.892, 83.419 50.910 C 82.531 49.929, 82.102 48.644, 82.465 48.056 C 82.829 47.467, 82.473 46.735, 81.674 46.428 C 80.875 46.122, 79.159 43.087, 77.860 39.685 L 75.500 33.500 75 41.500 L 74.500 49.500 68.250 33.472 C 63.427 21.105, 62 16.252, 62 12.222 C 62 9.350, 62.313 7, 62.695 7 C 63.812 7, 68.997 12.272, 69.027 13.437 C 69.042 14.022, 70.367 18.100, 71.971 22.500 L 74.888 30.500 74.944 15.250 L 75 0 37.500 0 L 0 0 0 72 M 63.571 100.571 C 61.754 102.389, 61.530 104.592, 63.067 105.541 C 64.459 106.402, 64.880 105.907, 65.961 102.136 C 66.943 98.713, 66.028 98.115, 63.571 100.571 M 93 104.417 C 93 105.287, 93.713 106, 94.583 106 C 96.349 106, 96.042 103.847, 94.188 103.229 C 93.534 103.011, 93 103.546, 93 104.417 M 62.568 118.250 C 61.613 121.138, 60.580 128.113, 60.272 133.750 L 59.713 144 64.128 144 L 68.544 144 69.772 137.526 C 71.231 129.835, 71.340 125.328, 70.087 124.554 C 69.585 124.243, 68.859 122.079, 68.474 119.745 C 67.787 115.581, 66.469 113, 65.029 113 C 64.630 113, 63.523 115.362, 62.568 118.250" stroke="none" fill="black" fill-rule="evenodd"/>
</svg>