<svg xmlns="http://www.w3.org/2000/svg" width="192" height="144" viewBox="0 0 192 144" version="1.1">
	<path d="M 0 72 L 0 144 37.059 144 C 61.510 144, 73.908 143.660, 73.500 143 C 73.160 142.450, 72.346 141.996, 71.691 141.992 C 68.938 141.974, 66.574 130.999, 69 129.500 C 69.550 129.160, 70 127.135, 70 125 C 70 122.865, 70.445 120.843, 70.989 120.507 C 71.608 120.124, 71.463 119.075, 70.601 117.698 C 68.711 114.680, 67.690 108.310, 68.969 107.519 C 69.536 107.169, 70 106.057, 70 105.048 C 70 104.039, 70.675 102.955, 71.500 102.638 C 72.325 102.322, 73 101.332, 73 100.439 C 73 99.546, 73.900 97.671, 75 96.273 C 76.516 94.346, 77 92.216, 77 87.479 C 77 83.880, 77.634 80.014, 78.494 78.364 C 79.315 76.789, 79.993 74.825, 80 74 C 80.007 73.175, 80.721 71.150, 81.587 69.500 C 82.822 67.148, 82.998 65.095, 82.403 60 C 81.985 56.425, 81.587 53.275, 81.518 53 C 80.368 48.377, 78.887 30.387, 79.315 26.236 C 80.064 18.980, 81.214 17.992, 83.884 22.312 C 86.100 25.897, 86.270 27.149, 87.561 49.332 C 88.038 57.528, 88.771 62.628, 89.590 63.447 C 90.318 64.175, 90.496 65.111, 90.003 65.614 C 89.510 66.118, 89.753 67.338, 90.567 68.441 C 91.821 70.139, 92 65.974, 92 35.191 L 92 0 46 0 L 0 0 0 72 M 90.475 76.282 C 90.136 78.088, 90.003 81.350, 90.180 83.532 C 90.460 87.001, 90.217 87.540, 88.250 87.820 C 86.579 88.057, 86 88.805, 86 90.725 C 86 93.101, 86.141 93.187, 87.750 91.785 C 88.713 90.947, 90.063 90.465, 90.750 90.714 C 91.691 91.055, 92 88.925, 92 82.083 C 92 72.588, 91.514 70.741, 90.475 76.282 M 92 118 L 92 144 100.700 144 C 107.467 144, 109.133 143.733, 108.200 142.800 C 107.540 142.140, 107 139.732, 107 137.449 C 107 135.166, 106.504 131.876, 105.898 130.137 C 105.292 128.398, 105.146 126.193, 105.574 125.237 C 106.002 124.282, 106.402 122.375, 106.461 121 C 106.597 117.868, 107.909 114, 108.835 114 C 110.141 114, 109.222 107.187, 107.465 103.835 C 106.503 102.001, 105.394 99.826, 105 99.002 C 104.606 98.178, 102.690 97.053, 100.742 96.502 C 98.794 95.951, 96.333 94.713, 95.272 93.750 C 94.211 92.787, 93.040 92, 92.671 92 C 92.302 92, 92 103.700, 92 118 M 100 130 C 100 130.550, 100.413 131, 100.918 131 C 101.423 131, 102.553 131.275, 103.430 131.611 C 104.596 132.059, 104.857 131.791, 104.404 130.611 C 103.737 128.872, 100 128.353, 100 130 M 69.667 131.667 C 68.663 132.670, 68.866 136, 69.930 136 C 70.442 136, 71.056 135.213, 71.296 134.250 C 71.535 133.287, 71.574 133.755, 71.382 135.288 C 71.140 137.235, 71.557 138.269, 72.767 138.715 C 73.720 139.067, 74.831 139.837, 75.235 140.427 C 75.639 141.017, 75.962 139.925, 75.953 138 C 75.929 132.841, 72.224 129.109, 69.667 131.667" stroke="none" fill="black" fill-rule="evenodd"/>
</svg>