<svg xmlns="http://www.w3.org/2000/svg" width="192" height="144" viewBox="0 0 192 144" version="1.1">
	<path d="M 0 39.155 L 0 78.310 2.250 76.443 C 3.488 75.416, 7.006 72.178, 10.069 69.248 L 15.638 63.921 23.571 67.317 C 27.935 69.184, 34.849 72.465, 38.936 74.606 C 46.874 78.766, 46.683 78.742, 64.763 77.856 L 72.027 77.500 75.785 72.500 C 77.982 69.577, 81.505 66.462, 84.268 65 C 87.759 63.153, 88.995 61.912, 88.997 60.250 C 88.999 59.013, 89.477 58, 90.059 58 C 90.641 58, 90.858 57.579, 90.539 57.064 C 89.866 55.974, 85.751 56.048, 84.964 57.164 C 83.874 58.712, 80.395 56.788, 79.134 53.940 C 78.418 52.323, 77.195 51, 76.416 51 C 75.637 51, 75 50.325, 75 49.500 C 75 48.675, 74.534 48, 73.965 48 C 73.251 48, 73.251 47.399, 73.965 46.066 C 75.424 43.340, 75.292 43.004, 72.750 42.968 C 71.513 42.951, 69.251 41.838, 67.725 40.495 C 65.294 38.356, 65.107 37.802, 66.216 36.026 C 66.912 34.912, 67.978 34, 68.586 34 C 71.210 34, 73 30.267, 73 24.793 C 73 18.316, 74.783 13.477, 78.428 10.062 C 80.685 7.947, 82.319 7.538, 90.746 6.984 C 106.340 5.957, 111.713 7.714, 115.990 15.239 L 118.116 18.978 121.680 17.489 C 129.581 14.188, 132.737 16.901, 131.580 26 C 130.586 33.816, 130.651 35.524, 132.264 44 C 132.840 47.025, 133.229 50.942, 133.128 52.704 C 132.890 56.834, 130.475 63.668, 128.584 65.559 C 127.284 66.859, 126.882 66.790, 125.195 64.979 C 122.329 61.903, 119.624 49.162, 120.444 42.601 C 121.182 36.695, 119.971 34.574, 118.146 38.578 C 116.673 41.813, 116.691 44.291, 118.200 45.800 C 119.133 46.733, 118.998 47, 117.592 47 C 116.167 47, 115.915 47.525, 116.404 49.473 C 116.879 51.366, 116.687 51.817, 115.587 51.395 C 114.734 51.068, 113.461 51.893, 112.459 53.422 C 111.530 54.840, 110.309 56, 109.745 56 C 109.182 56, 108.123 56.787, 107.392 57.750 C 106.456 58.983, 106.054 59.099, 106.032 58.143 C 106.014 57.380, 105.372 57.027, 104.565 57.337 C 103.775 57.640, 102.937 57.350, 102.702 56.694 C 101.828 54.255, 101.095 56.708, 101.848 59.550 C 102.384 61.574, 103.950 63.234, 106.839 64.838 C 109.154 66.124, 112.950 69.534, 115.274 72.415 L 119.500 77.654 127 77.901 C 131.125 78.036, 136.750 78.227, 139.500 78.324 C 143.782 78.475, 146.294 77.623, 157 72.388 C 177.274 62.475, 174.763 62.668, 183.101 70.387 C 187.029 74.024, 190.864 77, 191.622 77 C 192.769 77, 193 70.544, 193 38.500 L 193 0 96.500 0 L 0 0 0 39.155 M 0.455 39.500 C 0.455 60.950, 0.587 69.583, 0.749 58.684 C 0.911 47.785, 0.910 30.235, 0.748 19.684 C 0.587 9.133, 0.454 18.050, 0.455 39.500 M 14.638 70.848 C 12.867 72.805, 12.882 75.918, 14.674 78.152 C 17.083 81.156, 17.077 84.042, 14.649 90.719 C 10.657 101.694, 9.969 103.302, 9.480 102.813 C 8.453 101.786, 5.945 84.353, 6.504 82.126 L 7.104 79.738 3.802 81.843 C 1.013 83.621, 0.546 84.456, 0.797 87.224 C 0.960 89.026, 1.049 92.075, 0.994 94 C 0.939 95.925, 0.677 107.963, 0.411 120.750 L -0.072 144 35.305 144 L 70.682 144 71.859 138.750 C 72.507 135.863, 74.139 131.124, 75.487 128.220 C 77.172 124.586, 78.024 120.791, 78.216 116.051 C 78.475 109.695, 77.376 105.672, 76.247 108.847 C 74.294 114.343, 56.051 126.912, 41.500 132.786 C 31.839 136.687, 30.065 136.738, 23 133.319 L 17.500 130.658 23.597 129.906 C 30.473 129.059, 37 126.661, 37 124.984 C 37 124.320, 36.186 124.124, 35 124.500 C 33.588 124.948, 33 124.680, 33 123.586 C 33 121.521, 37.004 120.624, 42.523 121.451 C 46.997 122.122, 47.070 122.085, 57.260 113.889 L 67.500 105.653 68.799 99.237 C 69.793 94.324, 69.823 92.492, 68.926 91.411 C 68.042 90.345, 68.037 89.661, 68.907 88.612 C 70.879 86.236, 68.273 82, 64.839 82 C 61.631 82, 61.418 82.649, 63.383 86.437 C 64.302 88.209, 64.510 90.176, 64.001 92.302 C 61.351 103.383, 59.655 109, 58.961 109 C 58.523 109, 57.175 104.659, 55.967 99.354 C 53.903 90.294, 53.867 89.501, 55.385 86.320 C 56.273 84.457, 57 82.722, 57 82.466 C 57 82.210, 54.477 82, 51.393 82 C 46.675 82, 45.883 82.252, 46.397 83.593 C 48.173 88.222, 47.963 90.418, 44.879 99.401 C 43.069 104.674, 41.301 108.653, 40.950 108.244 C 40.599 107.835, 39.583 103.306, 38.692 98.179 C 37.018 88.545, 37.174 87.419, 40.819 82.845 C 41.971 81.399, 41.594 80.822, 37.819 78.264 C 32.918 74.942, 30 73.680, 30 74.882 C 30 75.333, 30.503 77.145, 31.118 78.909 C 32.085 81.683, 31.834 83.157, 29.259 89.808 C 27.622 94.039, 25.963 98.400, 25.574 99.500 C 24.481 102.585, 23.498 99.868, 22.048 89.756 C 20.858 81.454, 20.901 80.833, 22.897 77.449 C 24.054 75.489, 25 73.697, 25 73.466 C 25 73.136, 17.099 69, 16.467 69 C 16.381 69, 15.558 69.831, 14.638 70.848 M 169.708 71.137 C 165.765 73.132, 165.758 73.230, 169.183 78.181 C 170.966 80.758, 170.973 81.254, 169.366 90.931 C 168.446 96.469, 167.350 101, 166.929 101 C 166.509 101, 164.721 96.665, 162.956 91.367 C 160.167 82.995, 159.890 81.266, 160.841 78.168 C 161.443 76.206, 161.768 74.435, 161.564 74.231 C 161.130 73.796, 154.319 77.228, 151.665 79.220 C 149.896 80.548, 149.908 80.730, 152.014 84.299 C 154.126 87.879, 154.157 88.346, 152.949 98.534 C 152.263 104.327, 151.378 109.266, 150.984 109.510 C 149.881 110.191, 143.721 90.199, 144.264 87.702 C 144.527 86.491, 145.074 84.713, 145.478 83.750 C 146.132 82.194, 145.537 82, 140.107 82 C 136.702 82, 134 82.442, 134 83 C 134 83.550, 134.351 84, 134.781 84 C 135.210 84, 136.075 85.360, 136.703 87.023 C 137.591 89.378, 137.497 92.198, 136.276 99.773 C 135.413 105.123, 134.372 109.879, 133.962 110.342 C 133.552 110.805, 132.755 109.680, 132.191 107.842 C 126.563 89.485, 126.648 89.962, 128.377 86.336 C 130.490 81.904, 130.526 81.999, 126.750 82.008 C 123.014 82.017, 120.574 85.487, 122.226 88.440 C 122.840 89.537, 122.751 90.595, 121.964 91.543 C 121.039 92.659, 121.042 94.425, 121.981 99.400 L 123.192 105.818 132.346 112.254 C 140.671 118.106, 142.069 118.740, 147.787 119.253 C 153.854 119.797, 157 121.158, 157 123.239 C 157 123.786, 156.100 123.998, 155 123.710 C 153.797 123.396, 153 123.680, 153 124.423 C 153 126.141, 161.728 130.045, 166.194 130.324 C 171.478 130.653, 171.887 131.731, 167.433 133.592 C 161.753 135.966, 154.668 135.065, 148.389 131.170 C 145.579 129.426, 142.743 128, 142.087 128 C 139.820 128, 120.641 116.487, 117.421 113.193 C 115.643 111.375, 113.916 110.328, 113.583 110.866 C 112.301 112.940, 113.898 122.746, 116.373 128 C 117.797 131.025, 119.493 135.863, 120.141 138.750 L 121.318 144 156.711 144 L 192.103 144 191.596 120.250 C 191.317 107.188, 190.994 95.150, 190.879 93.500 C 190.764 91.850, 190.984 89.150, 191.368 87.500 C 191.999 84.792, 191.663 84.218, 187.920 81.603 C 184.267 79.052, 183.909 78.962, 184.916 80.843 C 186.117 83.087, 184.873 97.559, 183.077 102.233 L 182.206 104.500 181.259 102 C 180.739 100.625, 179.044 95.976, 177.493 91.668 L 174.672 83.836 176.829 78.731 C 178.794 74.080, 178.851 73.421, 177.470 71.313 C 175.689 68.595, 174.772 68.575, 169.708 71.137" stroke="none" fill="black" fill-rule="evenodd"/>
</svg>