<svg xmlns="http://www.w3.org/2000/svg" width="192" height="144" viewBox="0 0 192 144" version="1.1">
	<path d="M 0 72 L 0 144 36.386 144 L 72.773 144 73.442 139.250 C 74.603 131.014, 76.139 122.783, 78.160 113.968 C 79.668 107.392, 79.874 104.798, 79.058 102.653 C 77.678 99.024, 77.629 89.878, 79 92 C 79.533 92.825, 79.976 94.963, 79.985 96.750 C 79.993 98.537, 80.441 100, 80.981 100 C 82.661 100, 83.245 95.272, 82.022 91.567 C 80.891 88.140, 79 85.839, 79 87.889 C 79 89.177, 75.077 93.355, 72.592 94.713 C 71.191 95.479, 68.932 95.281, 64.092 93.965 C 60.466 92.980, 55.832 91.893, 53.793 91.550 C 51.755 91.207, 49.280 89.930, 48.293 88.713 C 46.907 87.002, 45.276 86.443, 41.101 86.248 C 34.150 85.924, 27.767 84.199, 28.242 82.773 C 28.447 82.159, 29.489 81.587, 30.557 81.502 C 33.766 81.246, 40 78.908, 40 77.961 C 40 77.475, 39.070 76.212, 37.933 75.153 C 36.272 73.605, 35.998 72.526, 36.538 69.649 C 37.317 65.498, 38.335 64.480, 42.625 63.564 C 45.423 62.966, 46.085 63.319, 48.950 66.937 L 52.151 70.979 50.076 73.894 C 48.934 75.497, 48 77.302, 48 77.904 C 48 78.507, 47.438 79.007, 46.750 79.015 C 45.868 79.026, 45.917 79.295, 46.914 79.926 C 47.692 80.418, 49.824 80.578, 51.651 80.282 C 53.807 79.932, 56.647 80.457, 59.737 81.778 C 68.242 85.412, 69.040 85.232, 71.098 79.209 C 72.092 76.299, 72.680 73.330, 72.405 72.612 C 72.129 71.893, 73.500 69.394, 75.452 67.058 C 77.403 64.722, 79 62.494, 79 62.107 C 79 61.720, 80.810 59.519, 83.023 57.216 C 88.162 51.868, 87.758 49.925, 79.886 42.126 C 73.355 35.655, 72.911 33.994, 75.937 27.331 C 76.978 25.039, 77.700 23.014, 77.543 22.831 C 77.385 22.649, 76.939 20.314, 76.551 17.643 L 75.845 12.786 80.673 13.380 C 89.208 14.431, 90.244 14.177, 94.507 9.993 C 96.745 7.797, 99.256 6, 100.088 6 C 100.920 6, 102.121 5.479, 102.758 4.842 C 104.397 3.203, 106.585 5.247, 109.637 11.270 C 112.744 17.401, 112.479 20.387, 108.789 20.813 L 106.078 21.125 108.932 25.065 C 112.013 29.318, 114.266 37.457, 116.110 51 C 117.014 57.633, 118.224 61.367, 121.619 68 C 124.011 72.675, 126.234 78.075, 126.558 80 C 127.144 83.482, 127.137 83.489, 125.323 81.369 C 124.321 80.196, 122.944 78.396, 122.264 77.369 C 121.138 75.666, 121.072 75.722, 121.512 78 C 121.777 79.375, 122.194 85.225, 122.438 91 C 122.682 96.775, 123.540 103.297, 124.345 105.494 C 125.297 108.088, 125.493 110.079, 124.905 111.178 C 124.407 112.108, 123.993 115.036, 123.985 117.684 C 123.977 120.333, 123.329 123.625, 122.546 125 C 117.608 133.665, 117.075 135.265, 117.673 139.628 L 118.275 144.024 155.388 143.762 L 192.500 143.500 192.757 71.750 L 193.013 0 96.507 0 L 0 0 0 72 M 0.474 72.500 C 0.474 112.100, 0.598 128.154, 0.750 108.176 C 0.901 88.198, 0.901 55.798, 0.750 36.176 C 0.598 16.554, 0.474 32.900, 0.474 72.500 M 112.613 107.817 C 111.628 109.411, 112.672 114, 114.019 114 C 115.113 114, 115.136 112.704, 114.108 109.010 C 113.613 107.232, 113.186 106.891, 112.613 107.817" stroke="none" fill="black" fill-rule="evenodd"/>
</svg>