<svg xmlns="http://www.w3.org/2000/svg" width="192" height="144" viewBox="0 0 192 144" version="1.1">
	<path d="M 40 51.676 C 40 53.917, 43.845 55.500, 51.750 56.514 C 54.638 56.885, 57 57.530, 57 57.949 C 57 58.368, 54.087 58.983, 50.526 59.315 C 46.935 59.651, 42.836 60.716, 41.323 61.708 L 38.593 63.497 41.547 64.130 C 43.171 64.478, 47.650 64.824, 51.500 64.897 C 55.350 64.970, 59.175 65.467, 60 66 C 61.294 66.836, 61.268 66.971, 59.815 66.985 C 58.888 66.993, 56.863 67.525, 55.315 68.166 C 53.767 68.808, 52.243 69.370, 51.929 69.416 C 51.614 69.462, 50.566 70.292, 49.598 71.259 C 48.630 72.227, 47.367 72.727, 46.790 72.370 C 46.193 72.001, 45.940 72.321, 46.203 73.111 C 46.457 73.875, 47.798 74.544, 49.183 74.599 C 50.569 74.653, 52.117 74.954, 52.624 75.267 C 53.131 75.581, 56.401 75.177, 59.892 74.371 C 63.382 73.565, 66.485 73.151, 66.786 73.452 C 67.087 73.754, 66.707 74, 65.942 74 C 64.192 74, 57.552 81.351, 58.898 81.799 C 59.443 81.981, 60.814 81.635, 61.945 81.030 C 63.706 80.087, 64 80.221, 64 81.965 C 64 84.784, 65.045 84.535, 70.109 80.510 C 75.524 76.206, 78.106 76.124, 83.125 80.099 C 86.082 82.441, 88.562 83.393, 93.269 83.994 C 104.800 85.466, 105.177 85.674, 104.836 90.375 L 104.538 94.500 122.866 94.749 C 137.077 94.942, 144.824 95.594, 157.347 97.653 C 166.231 99.114, 177.662 100.508, 182.750 100.751 L 192 101.193 192 85.783 L 192 70.372 172.750 69.124 C 138.645 66.913, 126.613 65.946, 121.154 64.979 C 118.214 64.459, 115.064 64.404, 114.154 64.859 C 111.419 66.225, 105.972 65.315, 97 61.992 C 92.325 60.260, 85.575 57.927, 82 56.806 C 78.425 55.685, 72.800 53.853, 69.500 52.736 C 65.354 51.332, 59.868 50.557, 51.750 50.229 C 40.660 49.780, 40 49.861, 40 51.676" stroke="none" fill="black" fill-rule="evenodd"/>
</svg>