<svg xmlns="http://www.w3.org/2000/svg" width="192" height="144" viewBox="0 0 192 144" version="1.1">
	<path d="M 0 72 L 0 144 43.355 144 L 86.710 144 88.096 134.750 C 88.858 129.662, 89.486 125.088, 89.491 124.583 C 89.512 122.409, 87.311 123.314, 85 126.430 C 83.625 128.284, 81.039 130.802, 79.254 132.026 C 76.601 133.845, 75.734 134.024, 74.504 133.004 C 72.224 131.111, 72.736 127.922, 76.017 123.587 C 78.912 119.761, 78.934 119.642, 77.011 118.295 C 74.363 116.441, 68.982 105.227, 69.745 103.154 C 70.080 102.244, 71.471 99.707, 72.837 97.516 L 75.320 93.532 72.537 86.016 C 71.006 81.882, 69.130 76.700, 68.369 74.500 C 67.608 72.300, 66.539 69.719, 65.993 68.764 C 65.447 67.809, 65 66.407, 65 65.649 C 65 63.546, 72.875 61, 79.382 61 C 85.899 61, 90.633 62.875, 93.274 66.503 C 95.022 68.905, 94.969 69.096, 89.489 80.022 L 83.931 91.104 85.011 97.059 C 85.735 101.055, 85.768 104.180, 85.110 106.563 C 84.316 109.438, 84.418 110.223, 85.643 110.693 C 88.110 111.640, 90.411 108.636, 89.098 106.182 C 86.898 102.071, 87.823 98.231, 92.455 92.251 L 96.910 86.500 97.474 75.768 C 98.113 63.616, 96.857 56.407, 93.941 55.481 C 92.930 55.160, 91.824 54.021, 91.484 52.949 C 91.144 51.877, 90.269 51, 89.540 51 C 88.811 51, 87.955 50.325, 87.638 49.500 C 87.322 48.675, 86.424 48, 85.642 48 C 84.861 48, 84.285 47.212, 84.361 46.250 C 84.452 45.101, 83.899 44.601, 82.750 44.794 C 80.079 45.242, 80.640 43.693, 84.574 39.759 L 88.148 36.185 82.703 30.842 C 79.708 27.904, 77.051 24.830, 76.799 24.012 C 76.415 22.764, 75.901 22.724, 73.624 23.762 C 69.496 25.643, 67.359 25.270, 64.961 22.250 C 63.020 19.808, 62.837 18.674, 63.321 12.117 C 63.913 4.098, 64.469 3.093, 69.294 1.326 C 71.856 0.388, 65.219 0.137, 36.250 0.076 L 0 0 0 72 M 100.500 0.679 C 105.082 1.704, 118.599 6.345, 119.817 7.312 C 120.542 7.887, 123.242 8.374, 125.817 8.396 C 129.659 8.427, 131.667 7.679, 137 4.227 L 143.500 0.019 121 0.126 C 108.625 0.184, 99.400 0.433, 100.500 0.679 M 181 1.450 C 181 2.248, 180.215 3.340, 179.256 3.876 C 177.630 4.787, 177.655 5.008, 179.637 7.176 C 182.757 10.590, 186 18.695, 186 23.078 C 186 25.182, 185.331 29.471, 184.513 32.610 C 183.696 35.749, 182.749 40.413, 182.409 42.975 C 181.807 47.511, 181.924 47.776, 186.857 53.067 L 191.924 58.500 191.962 29.250 L 192 0 186.500 0 C 182.362 0, 181 0.359, 181 1.450 M 66 9.351 C 66 11.900, 67.834 18.008, 68.988 19.301 C 69.781 20.190, 72.323 16.729, 73.416 13.272 C 73.990 11.458, 73.505 10.669, 70.810 9.026 C 66.579 6.446, 66 6.485, 66 9.351 M 76 18 C 76 18.550, 76.450 19, 77 19 C 77.550 19, 78 18.550, 78 18 C 78 17.450, 77.550 17, 77 17 C 76.450 17, 76 17.450, 76 18 M 72.500 20 C 72.160 20.550, 72.332 21, 72.882 21 C 73.432 21, 74.160 20.550, 74.500 20 C 74.840 19.450, 74.668 19, 74.118 19 C 73.568 19, 72.840 19.450, 72.500 20 M 79.690 21.114 C 77.971 22.113, 77.966 22.302, 79.590 24.833 C 81.261 27.438, 86.937 32.879, 88.069 32.959 C 88.382 32.982, 88.138 30.497, 87.528 27.438 C 86.146 20.518, 83.870 18.682, 79.690 21.114 M 90 25.900 C 90 29.630, 91.887 33, 93.975 33 C 96.792 33, 96.506 31.340, 93 27.347 C 90.505 24.506, 90 24.262, 90 25.900 M 87.500 39 C 86.718 40.266, 88.042 40.266, 90 39 C 91.293 38.165, 91.266 38.029, 89.809 38.015 C 88.879 38.007, 87.840 38.450, 87.500 39 M 89.029 40.961 C 88.220 41.473, 87.818 42.151, 88.136 42.469 C 88.924 43.257, 92 42.002, 92 40.893 C 92 39.753, 90.899 39.778, 89.029 40.961 M 136.924 62.301 C 137.405 63.566, 137.574 65.776, 137.300 67.212 C 136.663 70.541, 139.514 72.232, 145.041 71.806 L 149.007 71.500 147.253 68.020 C 144.360 62.278, 134.930 57.056, 136.924 62.301 M 101.737 72.595 C 101.165 75.587, 101.781 76.188, 104.131 74.930 C 106.550 73.636, 106.529 71.372, 104.094 70.735 C 102.688 70.367, 102.070 70.855, 101.737 72.595 M 137.406 76.113 C 137.708 77.976, 138.433 85.213, 139.018 92.196 C 140.298 107.485, 141.743 113.379, 146.870 124.236 C 152.377 135.896, 154 139.967, 154 142.122 C 154 143.893, 155.079 144, 173 144 L 192 144 192 127.450 C 192 114.838, 191.650 110.224, 190.529 108.055 C 189.719 106.490, 188.762 103.363, 188.401 101.105 C 187.777 97.203, 187.571 97, 184.237 97 C 182.309 97, 177.835 96.466, 174.295 95.814 C 169.155 94.867, 166.963 93.839, 163.408 90.710 C 160.126 87.821, 150.574 76.515, 149.567 74.327 C 149.524 74.232, 146.646 73.833, 143.173 73.440 L 136.858 72.726 137.406 76.113 M 154.624 74.799 C 154.048 75.732, 157.880 80.454, 158.616 79.717 C 159.535 78.798, 158.045 75.231, 156.494 74.636 C 155.708 74.334, 154.866 74.407, 154.624 74.799 M 160 80.396 C 160 83.127, 164.940 87.908, 170.904 90.951 C 174.761 92.919, 182 92.856, 182 90.855 C 182 89.153, 175.443 84.056, 169.377 81.042 C 161.886 77.320, 160 77.190, 160 80.396 M 181 93.393 C 181 94.342, 183.993 94.820, 184.527 93.956 C 184.852 93.430, 184.191 93, 183.059 93 C 181.927 93, 181 93.177, 181 93.393 M 190.015 100.250 C 190.024 102.037, 190.467 104.175, 191 105 C 191.701 106.085, 191.974 105.185, 191.985 101.750 C 191.993 99.138, 191.550 97, 191 97 C 190.450 97, 190.007 98.463, 190.015 100.250 M 150 143 C 150 143.550, 150.477 144, 151.059 144 C 151.641 144, 151.840 143.550, 151.500 143 C 151.160 142.450, 150.684 142, 150.441 142 C 150.198 142, 150 142.450, 150 143" stroke="none" fill="black" fill-rule="evenodd"/>
</svg>