<svg xmlns="http://www.w3.org/2000/svg" width="192" height="144" viewBox="0 0 192 144" version="1.1">
	<path d="M 44.682 0.750 C 43.931 2.043, 37.216 27.079, 35.093 36.500 C 30.076 58.772, 27.764 81.519, 28.539 100.986 C 29.039 113.552, 31.051 131.892, 32.819 140 L 33.582 143.500 105.291 143.757 L 177 144.013 177 141.941 C 177 138.750, 183.279 126.123, 187.876 120.069 L 192 114.639 192 74.319 C 192 38.326, 191.831 34, 190.428 34 C 189.108 34, 188.957 33.080, 189.489 28.250 C 189.837 25.088, 190.615 20.419, 191.218 17.875 C 192.796 11.215, 190.577 5.802, 185.874 4.840 C 184.026 4.462, 181.893 3.219, 181.135 2.077 C 179.762 0.009, 179.474 0, 112.437 0 C 75.412 0, 44.922 0.337, 44.682 0.750 M 0 137.300 L 0 144 3.107 144 C 5.191 144, 6.050 143.588, 5.717 142.750 C 5.443 142.063, 4.427 139.475, 3.459 137 C 0.713 129.979, 0 130.041, 0 137.300" stroke="none" fill="black" fill-rule="evenodd"/>
</svg>