<svg xmlns="http://www.w3.org/2000/svg" width="192" height="144" viewBox="0 0 192 144" version="1.1">
	<path d="M 0 37.784 L 0 75.567 17.250 74.371 C 48.167 72.226, 94.066 71, 143.438 71 L 191.861 71 192.294 73.250 C 192.533 74.487, 192.789 58.513, 192.864 37.750 L 193 0 104.622 0 C 26.060 0, 16.102 0.172, 14.960 1.548 C 13.487 3.323, 9.374 3.069, 9.750 1.226 C 9.921 0.388, 8.418 -0, 5 -0 L 0 0 0 37.784 M 0.454 38.500 C 0.453 59.400, 0.586 68.092, 0.748 57.816 C 0.911 47.540, 0.911 30.440, 0.749 19.816 C 0.587 9.192, 0.454 17.600, 0.454 38.500 M 183 10 C 183 10.550, 183.450 11, 184 11 C 184.550 11, 185 10.550, 185 10 C 185 9.450, 184.550 9, 184 9 C 183.450 9, 183 9.450, 183 10 M 49 85.029 C 38.825 85.416, 23.637 86.075, 15.250 86.494 L 0 87.256 0 115.628 L 0 144 4.881 144 L 9.761 144 12.631 137.003 C 15.786 129.309, 16.702 129.791, 16.900 139.250 L 17 144 95.430 144 L 173.861 144 174.303 141.750 L 174.746 139.500 175.500 141.788 C 176.214 143.957, 176.678 144.062, 184.377 143.788 L 192.500 143.500 192.781 116 C 192.935 100.875, 192.814 87.487, 192.512 86.250 L 191.962 84 129.731 84.163 C 95.504 84.253, 59.175 84.643, 49 85.029 M 0.441 115.500 C 0.442 131.450, 0.580 137.835, 0.748 129.689 C 0.916 121.543, 0.916 108.493, 0.747 100.689 C 0.579 92.885, 0.441 99.550, 0.441 115.500" stroke="none" fill="black" fill-rule="evenodd"/>
</svg>