<svg xmlns="http://www.w3.org/2000/svg" width="192" height="144" viewBox="0 0 192 144" version="1.1">
	<path d="M 33.435 0.894 C 33.739 1.386, 34.878 6.309, 35.967 11.835 C 37.755 20.902, 37.804 22.225, 36.474 25.408 C 34.633 29.814, 34.620 31, 36.413 31 C 37.567 31, 37.742 32.858, 37.370 41.145 C 37.120 46.725, 36.412 52.230, 35.797 53.380 C 35.182 54.529, 34.354 60.919, 33.957 67.580 C 33.561 74.240, 32.674 80.741, 31.985 82.027 C 31.273 83.358, 30.567 89.349, 30.345 95.932 C 30.101 103.176, 29.373 108.985, 28.396 111.474 C 27.419 113.966, 26.681 119.862, 26.418 127.290 C 26.188 133.803, 25.550 139.973, 25 141.001 C 23.453 143.891, 23.626 144, 29.756 144 L 35.512 144 35.694 137.750 C 35.793 134.313, 36.624 129.718, 37.539 127.540 C 38.722 124.723, 39.265 120.104, 39.421 111.540 C 39.565 103.605, 40.107 98.648, 41.009 97 C 41.904 95.368, 42.485 90.182, 42.684 82.055 C 42.852 75.211, 43.406 69.194, 43.916 68.684 C 44.485 68.115, 45.891 69.830, 47.560 73.128 C 51.851 81.612, 56.707 88.231, 72.728 107.429 L 87.690 125.359 84.636 129.929 C 82.956 132.443, 81.232 134.648, 80.804 134.829 C 78.551 135.782, 76.009 138.821, 75.434 141.250 L 74.783 144 133.392 144 L 192 144 192 105.441 C 192 82.951, 191.626 67.113, 191.103 67.436 C 189.123 68.660, 183.860 65.093, 177.482 58.204 C 168.566 48.573, 158.431 43.427, 145.057 41.739 C 138.066 40.857, 135.730 40.870, 134.802 41.798 C 133.868 42.732, 133.868 43, 134.800 43 C 136.827 43, 136.129 44.824, 133.823 45.556 C 132.626 45.936, 130.493 47.316, 129.083 48.624 C 127.674 49.931, 126.187 51, 125.781 51 C 125.374 51, 124.122 52.800, 123 55 C 121.878 57.200, 121.249 59, 121.602 59 C 121.956 59, 121.744 59.604, 121.131 60.342 C 119.424 62.399, 121.096 63.223, 123.169 61.347 C 124.727 59.937, 125 59.914, 125 61.190 C 125 62.015, 124.132 63.475, 123.072 64.435 C 120.776 66.513, 118.260 65.931, 113.984 62.333 L 110.979 59.805 109.462 63.436 C 108.628 65.434, 106.883 67.552, 105.586 68.143 C 104.263 68.746, 102.834 70.597, 102.332 72.359 C 101.681 74.642, 100.762 75.583, 98.968 75.803 C 97.427 75.992, 95.411 77.633, 93.600 80.172 L 90.700 84.237 93.216 89.369 C 94.600 92.191, 96.061 96.075, 96.464 98 C 97.189 101.471, 97.180 101.483, 95.282 99.500 C 94.230 98.400, 89.511 93, 84.796 87.500 C 80.081 82, 73.976 75.430, 71.228 72.901 C 66.321 68.382, 66.221 68.171, 65.513 60.901 C 65.118 56.830, 63.715 48.151, 62.397 41.612 C 59.511 27.299, 59.531 28, 62 28 C 64.600 28, 64.550 27.743, 61 22.841 C 59.350 20.564, 58.012 18.205, 58.027 17.600 C 58.043 16.995, 59.986 15.527, 62.346 14.339 L 66.636 12.177 67.831 17.839 C 70.074 28.475, 77.556 36.774, 87.903 40.103 C 92.887 41.707, 93.622 42.463, 94.877 47.280 C 96.275 52.645, 97.726 54.920, 98.750 53.351 C 99.162 52.719, 100.625 52.044, 102 51.851 C 104.185 51.544, 104.571 50.881, 105.064 46.585 C 105.663 41.372, 105.899 41.098, 114.209 35.990 C 124.739 29.518, 130.710 14.071, 126.902 3.149 L 125.804 0 79.343 0 C 52.288 0, 33.113 0.373, 33.435 0.894 M 41.079 49.583 C 41.127 50.748, 41.364 50.985, 41.683 50.188 C 41.972 49.466, 41.936 48.603, 41.604 48.271 C 41.272 47.939, 41.036 48.529, 41.079 49.583 M 37.709 60.250 C 37.208 63.400, 39.226 66.596, 41.018 65.489 C 42.477 64.587, 43.053 58.651, 41.762 57.832 C 39.378 56.318, 38.226 57.006, 37.709 60.250 M 37.638 73.063 C 36.769 77.406, 36.837 79, 37.891 79 C 39.018 79, 39.988 71.777, 39.007 70.688 C 38.604 70.241, 37.988 71.309, 37.638 73.063 M 34.432 88.513 C 33.682 92.510, 34.917 94.630, 37.433 93.664 C 38.379 93.301, 39 91.861, 39 90.031 C 39 88.364, 39.112 86.662, 39.250 86.250 C 39.388 85.838, 38.513 85.360, 37.307 85.188 C 35.490 84.929, 34.997 85.499, 34.432 88.513 M 34.750 99.571 C 34.337 99.990, 34.029 102.396, 34.063 104.917 C 34.119 108.955, 34.244 109.207, 35.111 107.035 C 36.208 104.286, 35.922 98.380, 34.750 99.571 M 30.668 118.656 C 29.977 122.919, 30.437 124, 32.942 124 C 34.798 124, 35.961 121.422, 35.986 117.250 C 35.997 115.546, 35.425 115, 33.631 115 C 31.679 115, 31.157 115.644, 30.668 118.656 M 30.607 131.582 C 29.643 134.094, 29.903 139, 31 139 C 31.550 139, 32 136.975, 32 134.500 C 32 129.767, 31.614 128.958, 30.607 131.582" stroke="none" fill="black" fill-rule="evenodd"/>
</svg>