<svg xmlns="http://www.w3.org/2000/svg" width="192" height="144" viewBox="0 0 192 144" version="1.1">
	<path d="M -0 72.005 L -0 144.010 96.250 143.755 L 192.500 143.500 192.675 71.500 C 192.771 31.900, 192.621 0.062, 192.341 0.750 C 191.718 2.285, 184.810 2.410, 183.314 0.914 C 182.569 0.169, 176.771 0.014, 164.864 0.420 C 155.314 0.745, 145.925 0.981, 144 0.945 C 142.075 0.908, 119.382 0.667, 93.571 0.410 C 52.867 0.004, 46.215 0.145, 43.420 1.471 C 39.413 3.373, 33.299 3.386, 30 1.500 C 28.176 0.457, 23.782 0.061, 13.750 0.035 L 0 0 -0 72.005 M 0.474 72.500 C 0.474 112.100, 0.598 128.154, 0.750 108.176 C 0.901 88.198, 0.901 55.798, 0.750 36.176 C 0.598 16.554, 0.474 32.900, 0.474 72.500 M 79 26 C 79 26.550, 79.450 27, 80 27 C 80.550 27, 81 26.550, 81 26 C 81 25.450, 80.550 25, 80 25 C 79.450 25, 79 25.450, 79 26 M 89.500 37 C 89.840 37.550, 90.316 38, 90.559 38 C 90.802 38, 91 37.550, 91 37 C 91 36.450, 90.523 36, 89.941 36 C 89.359 36, 89.160 36.450, 89.500 37 M 98 42 C 98 42.550, 98.450 43, 99 43 C 99.550 43, 100 42.550, 100 42 C 100 41.450, 99.550 41, 99 41 C 98.450 41, 98 41.450, 98 42 M 78 51.559 C 78 52.416, 78.450 52.840, 79 52.500 C 79.550 52.160, 80 51.459, 80 50.941 C 80 50.423, 79.550 50, 79 50 C 78.450 50, 78 50.702, 78 51.559 M 89 53 C 89 53.550, 89.477 54, 90.059 54 C 90.641 54, 90.840 53.550, 90.500 53 C 90.160 52.450, 89.684 52, 89.441 52 C 89.198 52, 89 52.450, 89 53 M 102 55.059 C 102 55.641, 101.550 55.840, 101 55.500 C 100.450 55.160, 100 55.359, 100 55.941 C 100 57.557, 102.709 57.202, 103.362 55.500 C 103.678 54.675, 103.501 54, 102.969 54 C 102.436 54, 102 54.477, 102 55.059 M 83 56 C 83 56.550, 83.423 57, 83.941 57 C 84.459 57, 85.160 56.550, 85.500 56 C 85.840 55.450, 85.416 55, 84.559 55 C 83.702 55, 83 55.450, 83 56 M 73.564 57.293 C 73.940 58.279, 74.499 58.834, 74.807 58.526 C 75.115 58.219, 74.808 57.412, 74.124 56.733 C 73.136 55.753, 73.022 55.868, 73.564 57.293 M 104 69.500 C 104 70.325, 104.450 71, 105 71 C 105.550 71, 106 70.325, 106 69.500 C 106 68.675, 105.550 68, 105 68 C 104.450 68, 104 68.675, 104 69.500 M 70 70 C 70 70.550, 70.477 71, 71.059 71 C 71.641 71, 71.840 70.550, 71.500 70 C 71.160 69.450, 70.684 69, 70.441 69 C 70.198 69, 70 69.450, 70 70 M 76 71.941 C 76 72.459, 76.450 73.160, 77 73.500 C 77.550 73.840, 78 73.416, 78 72.559 C 78 71.702, 77.550 71, 77 71 C 76.450 71, 76 71.423, 76 71.941 M 76 77 C 76 77.550, 76.450 78, 77 78 C 77.550 78, 78 77.550, 78 77 C 78 76.450, 77.550 76, 77 76 C 76.450 76, 76 76.450, 76 77 M 111 78 C 111 78.550, 111.450 79, 112 79 C 112.550 79, 113 78.550, 113 78 C 113 77.450, 112.550 77, 112 77 C 111.450 77, 111 77.450, 111 78 M 73 81.059 C 73 81.641, 73.450 81.840, 74 81.500 C 74.550 81.160, 75 80.684, 75 80.441 C 75 80.198, 74.550 80, 74 80 C 73.450 80, 73 80.477, 73 81.059 M 82 82 C 82 82.550, 82.423 83, 82.941 83 C 83.459 83, 84.160 82.550, 84.500 82 C 84.840 81.450, 84.416 81, 83.559 81 C 82.702 81, 82 81.450, 82 82 M 71 83.882 C 71 84.432, 71.450 85.160, 72 85.500 C 72.550 85.840, 73 85.668, 73 85.118 C 73 84.568, 72.550 83.840, 72 83.500 C 71.450 83.160, 71 83.332, 71 83.882 M 97.500 84 C 97.160 84.550, 97.359 85, 97.941 85 C 98.523 85, 99 84.550, 99 84 C 99 83.450, 98.802 83, 98.559 83 C 98.316 83, 97.840 83.450, 97.500 84 M 106 84 C 106 84.550, 106.423 85, 106.941 85 C 107.459 85, 108.160 84.550, 108.500 84 C 108.840 83.450, 108.416 83, 107.559 83 C 106.702 83, 106 83.450, 106 84 M 87 85.941 C 87 87.073, 87.450 88, 88 88 C 88.550 88, 89 87.352, 89 86.559 C 89 85.766, 88.550 84.840, 88 84.500 C 87.450 84.160, 87 84.809, 87 85.941 M 92 87 C 92 87.550, 92.477 88, 93.059 88 C 93.641 88, 93.840 87.550, 93.500 87 C 93.160 86.450, 92.684 86, 92.441 86 C 92.198 86, 92 86.450, 92 87 M 96 90 C 96 90.550, 96.477 91, 97.059 91 C 97.641 91, 97.840 90.550, 97.500 90 C 97.160 89.450, 96.684 89, 96.441 89 C 96.198 89, 96 89.450, 96 90 M 112 91 C 112 91.550, 112.450 92, 113 92 C 113.550 92, 114 91.550, 114 91 C 114 90.450, 113.550 90, 113 90 C 112.450 90, 112 90.450, 112 91 M 79 93 C 79 93.550, 79.450 94, 80 94 C 80.550 94, 81 93.550, 81 93 C 81 92.450, 80.550 92, 80 92 C 79.450 92, 79 92.450, 79 93 M 84.736 95.598 C 84.018 96.315, 84.931 99, 85.893 99 C 86.266 99, 86.571 98.100, 86.571 97 C 86.571 95.004, 85.867 94.466, 84.736 95.598 M 106 96.059 C 106 96.641, 106.450 96.840, 107 96.500 C 107.550 96.160, 108 95.684, 108 95.441 C 108 95.198, 107.550 95, 107 95 C 106.450 95, 106 95.477, 106 96.059 M 112.573 99.521 C 111.513 100.323, 111.012 101.321, 111.460 101.740 C 111.908 102.158, 112.475 101.938, 112.720 101.250 C 112.966 100.563, 113.804 100, 114.583 100 C 115.362 100, 116 99.550, 116 99 C 116 97.622, 114.853 97.797, 112.573 99.521 M 94.569 102.112 C 94.947 102.723, 94.636 103.658, 93.878 104.188 C 92.745 104.981, 92.767 105.079, 94 104.743 C 95.774 104.260, 96.657 101, 95.014 101 C 94.392 101, 94.191 101.500, 94.569 102.112 M 90.225 108.445 C 90.341 109.850, 90.788 111, 91.218 111 C 92.355 111, 92.178 107.228, 91.007 106.504 C 90.431 106.148, 90.102 106.964, 90.225 108.445 M 84 109.226 C 84 110.084, 84.739 111.069, 85.641 111.416 C 87.070 111.964, 87.107 111.816, 85.924 110.273 C 85.177 109.298, 84.439 108.313, 84.283 108.083 C 84.127 107.854, 84 108.369, 84 109.226 M 95 110 C 95 110.550, 95.450 111, 96 111 C 96.550 111, 97 110.550, 97 110 C 97 109.450, 96.550 109, 96 109 C 95.450 109, 95 109.450, 95 110 M 102 112 C 102 112.550, 102.450 113, 103 113 C 103.550 113, 104 112.550, 104 112 C 104 111.450, 103.550 111, 103 111 C 102.450 111, 102 111.450, 102 112 M 93 119.059 C 93 119.641, 92.438 119.800, 91.750 119.412 C 90.762 118.854, 90.763 118.990, 91.757 120.060 C 92.810 121.194, 93.292 121.136, 94.721 119.707 C 96.331 118.098, 96.331 118, 94.714 118 C 93.771 118, 93 118.477, 93 119.059 M 99 121 C 99 121.550, 99.675 122, 100.500 122 C 101.325 122, 102 121.550, 102 121 C 102 120.450, 101.325 120, 100.500 120 C 99.675 120, 99 120.450, 99 121 M 96.787 124 C 97.029 125.650, 97.626 127, 98.113 127 C 99.148 127, 99.194 126.325, 98.370 123.250 C 97.482 119.939, 96.275 120.511, 96.787 124 M 93 126.059 C 93 126.641, 93.450 126.840, 94 126.500 C 94.550 126.160, 95 125.684, 95 125.441 C 95 125.198, 94.550 125, 94 125 C 93.450 125, 93 125.477, 93 126.059 M 87.688 126.645 C 86.753 127.581, 88.137 130, 89.607 130 C 90.373 130, 91 129.743, 91 129.429 C 91 128.394, 88.250 126.083, 87.688 126.645 M 92.500 131 C 92.160 131.550, 92.584 132, 93.441 132 C 94.298 132, 95 131.550, 95 131 C 95 130.450, 94.577 130, 94.059 130 C 93.541 130, 92.840 130.450, 92.500 131" stroke="none" fill="black" fill-rule="evenodd"/>
</svg>