<svg xmlns="http://www.w3.org/2000/svg" width="192" height="144" viewBox="0 0 192 144" version="1.1">
	<path d="M 0 72 L 0 144 34.782 144 L 69.564 144 73.121 131.750 C 75.077 125.013, 77.456 117.752, 78.408 115.616 C 79.929 112.203, 79.949 111.806, 78.569 112.335 C 77.592 112.710, 77 112.395, 77 111.500 C 77 110.633, 76.405 110.291, 75.500 110.638 C 74.394 111.063, 74 110.502, 74 108.500 C 74 106.376, 73.637 105.925, 72.330 106.427 C 70.141 107.267, 69.034 105.375, 69.015 100.763 C 69.002 97.402, 68.627 96.871, 65.279 95.472 C 63.233 94.617, 59.521 93.425, 57.029 92.822 C 54.538 92.220, 51.600 90.751, 50.500 89.560 C 49.191 88.141, 46.301 86.993, 42.134 86.235 C 35.176 84.971, 31 82.798, 31 80.442 C 31 79.330, 31.463 79.165, 32.750 79.818 C 33.774 80.338, 35.882 80.332, 37.831 79.804 C 41.317 78.859, 41.284 78.476, 37.359 74.292 C 36.169 73.023, 34 62.288, 34 57.668 C 34 54.458, 35.500 54.198, 37.072 57.135 C 38.620 60.026, 39.964 57.882, 39.985 52.491 C 40.006 46.959, 42.834 45.074, 45.872 48.567 C 47.035 49.905, 48.615 51, 49.383 51 C 51.314 51, 55 59.217, 55 63.521 C 55 68.183, 52.688 73.561, 50.085 74.955 C 48.837 75.622, 48 77.060, 48 78.535 C 48 81.101, 48.657 81.352, 54.550 81.042 C 56.227 80.954, 59.892 82.033, 62.695 83.441 C 68.689 86.451, 69.574 86.553, 70.426 84.333 C 71.458 81.643, 69.251 80.285, 67.536 82.554 C 66.086 84.471, 66.063 84.469, 66.032 82.441 C 66.014 81.309, 67.616 77.709, 69.591 74.441 C 75.706 64.325, 76.161 63.034, 78 50.595 C 79.836 38.171, 82.593 29.213, 85.602 25.888 C 87.243 24.074, 87.182 24, 84.023 24 C 80.790 24, 80.745 23.938, 81.251 20.166 C 81.534 18.058, 82.960 14.440, 84.419 12.128 C 86.948 8.123, 87.250 7.954, 90.787 8.581 C 92.939 8.962, 96.519 10.913, 99.302 13.222 C 103.539 16.738, 104.539 17.137, 107.802 16.614 C 120.166 14.631, 120.001 14.630, 119.988 16.620 C 119.982 17.654, 119.329 20.933, 118.537 23.907 C 117.574 27.525, 117.413 29.903, 118.049 31.092 C 119.617 34.022, 119.123 39.287, 116.942 42.863 C 115.815 44.712, 114.612 45.946, 114.270 45.604 C 113.928 45.262, 112.602 45.964, 111.324 47.165 C 109.587 48.798, 109 50.440, 109 53.674 C 109 56.492, 109.440 58, 110.263 58 C 110.957 58, 111.970 58.848, 112.513 59.885 C 113.056 60.922, 115.523 64.409, 117.996 67.635 C 122.405 73.386, 122.494 73.651, 122.585 81.289 C 122.636 85.573, 123.098 89.498, 123.611 90.011 C 124.124 90.524, 128.134 91.475, 132.522 92.123 C 136.910 92.772, 141.482 93.941, 142.683 94.722 C 144.320 95.787, 145.366 95.874, 146.867 95.071 C 147.968 94.482, 149.986 94, 151.351 94 C 152.716 94, 154.062 93.438, 154.341 92.750 C 154.737 91.772, 155.052 91.791, 155.785 92.834 C 156.547 93.918, 156.834 93.875, 157.323 92.601 C 158.042 90.727, 161 91.564, 161 93.642 C 161 98.259, 153.968 102.462, 147.152 101.919 C 145.693 101.803, 143.150 102.261, 141.500 102.937 C 139.058 103.937, 137.477 103.886, 133 102.665 C 129.975 101.840, 125.398 100.857, 122.829 100.481 C 117.434 99.691, 114.841 97.334, 112.949 91.500 L 111.652 87.500 110.303 92.772 C 109.228 96.972, 109.203 98.497, 110.179 100.272 C 110.854 101.497, 111.486 104.750, 111.585 107.500 C 111.701 110.734, 113.013 115.326, 115.298 120.500 C 117.242 124.900, 119.882 131.989, 121.166 136.252 L 123.500 144.005 158 143.752 L 192.500 143.500 192.757 71.750 L 193.013 0 96.507 0 L 0 0 0 72 M 0.474 72.500 C 0.474 112.100, 0.598 128.154, 0.750 108.176 C 0.901 88.198, 0.901 55.798, 0.750 36.176 C 0.598 16.554, 0.474 32.900, 0.474 72.500" stroke="none" fill="black" fill-rule="evenodd"/>
</svg>