<svg xmlns="http://www.w3.org/2000/svg" width="192" height="144" viewBox="0 0 192 144" version="1.1">
	<path d="M 0 72 L 0 144 22.469 144 C 41.957 144, 44.861 143.802, 44.366 142.511 C 44.052 141.692, 41.928 140.560, 39.647 139.995 C 37.366 139.430, 33.654 138.008, 31.397 136.835 C 28.076 135.109, 26.740 134.895, 24.392 135.714 C 22.724 136.295, 20.535 136.372, 19.244 135.894 C 18.008 135.437, 16.369 135.305, 15.600 135.600 C 13.516 136.400, 12.597 134.120, 14.224 132.187 C 15.006 131.259, 16.241 128.603, 16.971 126.285 C 18.700 120.789, 21.014 118.792, 29.500 115.467 C 38.107 112.094, 45.385 107.048, 50.928 100.609 C 58.225 92.133, 58.375 91.763, 56.295 87.345 C 55.299 85.230, 53.813 83.500, 52.992 83.500 C 52.171 83.500, 51.500 82.825, 51.500 82 C 51.500 81.175, 52.149 80.500, 52.943 80.500 C 53.911 80.500, 55.123 77.703, 56.627 72 C 59.039 62.853, 59.642 56.485, 58 57.500 C 57.450 57.840, 57 57.641, 57 57.059 C 57 56.477, 56.360 56, 55.577 56 C 54.794 56, 52.803 54.863, 51.152 53.474 C 47.882 50.723, 47.826 50.754, 46.048 56.267 C 44.801 60.135, 41.007 63, 37.131 63 C 33.842 63, 32 64.115, 32 66.107 C 32 69.344, 28.276 72.219, 25.013 71.503 C 22.604 70.974, 22.104 71.218, 21.828 73.059 L 21.500 75.243 19.052 73.252 C 16.830 71.445, 16.565 70.377, 16.185 61.693 C 15.849 53.997, 16.173 50.794, 17.846 45.313 C 19.857 38.722, 28.299 23.657, 31.443 21.047 C 32.804 19.918, 32.620 19.308, 29.872 15.838 C 25.932 10.864, 26.593 9.953, 30.909 14.407 L 34.182 17.783 42.341 13.469 C 46.828 11.097, 53.200 8.381, 56.500 7.433 C 67.731 4.208, 84.941 5.850, 89.692 10.601 C 91.012 11.921, 92.434 13, 92.854 13 C 93.274 13, 94.491 13.661, 95.559 14.468 C 97.380 15.846, 97.273 15.938, 93.821 15.968 C 91.772 15.986, 89.447 15.304, 88.571 14.429 C 87.143 13, 87 13.171, 87 16.306 C 87 20.296, 85.692 21.689, 81.500 22.162 C 79.003 22.443, 78.443 23.003, 78.162 25.500 C 77.975 27.150, 77.351 29.071, 76.774 29.769 C 76.020 30.679, 76.172 31.532, 77.309 32.789 C 81.122 37.002, 81.010 43.190, 77.098 44.494 C 76.219 44.787, 74.825 46.483, 74 48.263 C 73.074 50.262, 71.639 51.622, 70.250 51.820 C 69.012 51.995, 68 52.298, 68 52.492 C 68 52.686, 70.689 55.692, 73.975 59.172 C 77.262 62.653, 79.962 66.098, 79.975 66.829 C 80.002 68.252, 91.766 80, 93.164 80 C 94.566 80, 94.096 75.582, 92.443 73.223 C 91.077 71.272, 91.070 71, 92.387 71 C 94.205 71, 97 74.770, 97 77.223 C 97 79.955, 93.240 83.211, 90.930 82.478 C 89.619 82.062, 87.943 82.712, 85.905 84.427 C 84.223 85.842, 82.149 87, 81.295 87 C 80.007 87, 79.885 87.721, 80.573 91.250 C 81.029 93.588, 81.471 101.350, 81.556 108.500 C 81.641 115.650, 82.225 123.924, 82.855 126.886 C 83.485 129.849, 84 134.915, 84 138.145 L 84 144.017 138.250 143.759 L 192.500 143.500 192.757 71.750 L 193.013 0 138.038 0 C 89.399 0, 83.130 0.174, 83.643 1.511 C 84.058 2.593, 83.764 2.847, 82.611 2.404 C 81.725 2.064, 81 1.384, 81 0.893 C 81 0.384, 63.599 0, 40.500 0 L 0 0 0 72 M 0.474 72.500 C 0.474 112.100, 0.598 128.154, 0.750 108.176 C 0.901 88.198, 0.901 55.798, 0.750 36.176 C 0.598 16.554, 0.474 32.900, 0.474 72.500 M 124.500 10 C 124.840 10.550, 125.991 11, 127.059 11 C 128.127 11, 129 10.550, 129 10 C 129 9.450, 127.848 9, 126.441 9 C 124.990 9, 124.149 9.433, 124.500 10 M 86 33.059 C 86 33.641, 86.450 33.840, 87 33.500 C 87.550 33.160, 88 32.684, 88 32.441 C 88 32.198, 87.550 32, 87 32 C 86.450 32, 86 32.477, 86 33.059 M 96.750 46.662 C 97.438 46.940, 98.563 46.940, 99.250 46.662 C 99.938 46.385, 99.375 46.158, 98 46.158 C 96.625 46.158, 96.063 46.385, 96.750 46.662 M 148 59.383 C 148 59.594, 148.900 60.002, 150 60.290 C 151.100 60.577, 152 60.405, 152 59.906 C 152 59.408, 151.100 59, 150 59 C 148.900 59, 148 59.173, 148 59.383 M 79.656 75.206 C 78.995 77.737, 79.404 78.486, 80.933 77.541 C 82.217 76.748, 82.368 73, 81.117 73 C 80.631 73, 79.974 73.993, 79.656 75.206 M 182 89.845 C 182 91.046, 185.433 94, 186.829 94 C 188.785 94, 188.144 92.325, 185.535 90.615 C 182.751 88.791, 182 88.627, 182 89.845 M 159.346 106.134 C 160.670 106.903, 161.505 106.895, 162.296 106.104 C 163.101 105.299, 162.601 105.008, 160.450 105.030 C 157.864 105.057, 157.728 105.193, 159.346 106.134 M 137.683 106.650 C 137.308 107.026, 137 108.255, 137 109.381 C 137 111.311, 137.098 111.331, 138.707 109.721 C 139.872 108.557, 140.089 107.689, 139.390 106.990 C 138.827 106.427, 138.059 106.274, 137.683 106.650 M 173 115.792 C 173 116.833, 175.161 119, 176.200 119 C 177.673 119, 177.020 117.494, 175 116.232 C 173.900 115.545, 173 115.347, 173 115.792 M 180.750 120.162 C 179.238 120.715, 178 121.517, 178 121.945 C 178 123.164, 182.808 121.936, 184.092 120.389 C 185.414 118.796, 184.636 118.743, 180.750 120.162 M 96 126.878 C 96 127.360, 96.635 128.282, 97.411 128.926 C 98.480 129.813, 98.996 129.816, 99.539 128.937 C 99.934 128.299, 99.636 127.384, 98.878 126.904 C 97.104 125.780, 96 125.770, 96 126.878" stroke="none" fill="black" fill-rule="evenodd"/>
</svg>