<svg xmlns="http://www.w3.org/2000/svg" width="192" height="144" viewBox="0 0 192 144" version="1.1">
	<path d="M 44 35.845 C 44 36.490, 42.513 37, 40.635 37 C 38.784 37, 36.155 37.877, 34.793 38.948 C 33.208 40.195, 31.505 40.683, 30.059 40.305 C 27.826 39.721, 27.819 39.750, 29.441 42.887 C 30.344 44.631, 30.843 46.444, 30.552 46.916 C 30.261 47.387, 30.983 48.024, 32.157 48.331 C 34.086 48.835, 34.234 49.373, 33.698 53.900 C 33.372 56.656, 32.469 59.943, 31.693 61.205 C 30.916 62.467, 30.179 65.966, 30.054 68.980 C 29.901 72.668, 28.875 76.379, 26.916 80.329 C 25.314 83.556, 24.328 86.715, 24.724 87.349 C 25.120 87.982, 25.532 89.085, 25.641 89.800 C 25.951 91.850, 28.129 94.038, 29.200 93.376 C 29.816 92.996, 29.774 92.374, 29.087 91.687 C 27.558 90.158, 27.736 89, 29.500 89 C 31.691 89, 31.381 96.573, 28.046 124.500 C 27.339 130.420, 27.460 131.696, 28.826 132.772 C 29.715 133.472, 31.068 133.804, 31.833 133.511 C 32.835 133.126, 33.021 133.468, 32.498 134.739 C 30.599 139.354, 30.704 140, 33.360 140 C 36.528 140, 39.465 136.040, 38.516 133.049 C 38.158 131.922, 38.158 130.076, 38.517 128.947 C 39.060 127.236, 39.864 126.944, 43.334 127.197 C 47.216 127.479, 47.521 127.719, 47.810 130.704 C 47.980 132.466, 47.601 134.877, 46.967 136.061 C 45.461 138.876, 47.011 140.465, 50.427 139.608 C 52.477 139.093, 53 138.351, 53 135.956 C 53 133.670, 53.599 132.723, 55.500 132 C 58.458 130.875, 58.562 129.525, 56.404 120.312 C 54.817 113.536, 52.927 102.314, 50.962 88 C 50.396 83.875, 49.748 79.178, 49.524 77.561 C 48.968 73.563, 49.620 72.870, 52.645 74.248 C 54.841 75.249, 55.422 75.143, 56.604 73.527 C 57.794 71.900, 57.769 71.296, 56.426 69.246 C 55.007 67.081, 55.007 66.638, 56.431 64.465 C 58.656 61.069, 58.486 60.642, 53.873 58.049 L 49.747 55.730 50.297 49.667 C 50.664 45.614, 50.408 42.756, 49.526 41.049 C 47.915 37.935, 44 34.247, 44 35.845" stroke="none" fill="black" fill-rule="evenodd"/>
</svg>