<svg xmlns="http://www.w3.org/2000/svg" width="192" height="144" viewBox="0 0 192 144" version="1.1">
	<path d="M 0 72 L 0 144 15.383 144 L 30.767 144 31.240 141.524 C 31.848 138.344, 31.433 138, 26.994 138 C 24.018 138, 23.098 137.511, 22.148 135.426 C 21.264 133.484, 20.303 132.896, 18.238 133.032 C 11.433 133.479, 10.998 133.251, 11.024 129.250 C 11.047 125.551, 11.752 123.970, 22.390 103.781 C 27.910 93.304, 32.991 81.340, 32.997 78.809 C 33.001 76.681, 31.341 75.567, 30.664 77.244 C 30.386 77.935, 30.087 76.925, 29.999 75 C 29.856 71.827, 29.619 72.155, 27.465 78.500 C 25.827 83.327, 25.271 86.664, 25.673 89.250 C 26.192 92.591, 26.024 93, 24.128 93 C 22.418 93, 21.977 93.639, 21.882 96.250 C 21.816 98.037, 21.847 100.110, 21.950 100.856 C 22.052 101.602, 21.556 102.019, 20.848 101.783 C 19.042 101.181, 17.766 94.305, 19.024 91.955 C 19.751 90.596, 19.682 89.463, 18.782 88.023 C 17.275 85.609, 16.417 85.471, 15.633 87.515 C 15.313 88.348, 13.837 89.492, 12.352 90.056 C 7.654 91.842, 6.502 89.506, 6.774 78.735 C 6.997 69.927, 7.225 69.070, 11.707 60.194 C 15.024 53.626, 16.366 49.801, 16.267 47.194 C 16.191 45.162, 16.057 40.308, 15.969 36.407 C 15.815 29.498, 15.749 29.325, 13.418 29.771 C 10.234 30.380, 9.356 27.913, 11.559 24.550 C 13.525 21.550, 13.713 21.882, 8.500 19.170 C 3.851 16.751, 5.656 16.390, 12.342 18.403 C 14.995 19.201, 17.243 19.416, 17.560 18.903 C 17.867 18.406, 19.494 18, 21.176 18 C 23.807 18, 24.173 18.313, 23.803 20.250 C 23.400 22.357, 23.714 22.500, 28.723 22.500 C 34.775 22.500, 35.098 22.803, 37.647 30.860 C 38.981 35.076, 39.093 36.621, 38.172 38.097 C 37.527 39.129, 37 40.212, 37 40.504 C 37 40.797, 40.675 44.667, 45.167 49.105 L 53.334 57.173 52.074 62.090 C 50.015 70.124, 51.771 78.330, 61.288 105.144 C 64.003 112.793, 66.057 120.590, 66.488 124.881 C 67.173 131.703, 67.111 132.008, 64.850 132.895 C 63.558 133.402, 61.738 134.734, 60.807 135.853 C 59.483 137.446, 58.014 137.864, 54.061 137.774 C 48.285 137.643, 48.393 137.585, 47.473 141.252 L 46.783 144 88.392 144 L 130 144 130 141.667 C 130 140.383, 129.739 139.072, 129.419 138.753 C 129.100 138.433, 128.698 132.846, 128.526 126.336 C 128.355 119.826, 127.740 112.250, 127.161 109.500 C 126.523 106.472, 126.343 98.712, 126.704 89.826 C 127.260 76.144, 127.145 74.735, 124.997 68.992 C 123.211 64.216, 121.869 62.311, 119.027 60.517 C 117.011 59.244, 114.057 56.821, 112.463 55.132 C 109.128 51.599, 100.778 36.887, 98.931 31.291 C 97.444 26.783, 93.669 19.736, 90.373 15.317 C 89.068 13.566, 88 11.668, 88 11.099 C 88 10.529, 85.806 7.799, 83.125 5.032 L 78.249 0 39.125 0 L 0 0 0 72 M 171 56 C 172.245 56.805, 172.160 56.977, 170.500 57.016 C 169.400 57.042, 167.693 58.171, 166.708 59.526 C 165.202 61.594, 165.022 63.158, 165.578 69.298 C 166.279 77.035, 167.131 78.944, 170.737 80.865 C 171.968 81.521, 174.443 84.433, 176.237 87.337 C 179.738 93.003, 179.896 93.247, 184.621 100.315 C 187.407 104.483, 187.818 106.064, 188.456 115.068 C 189.081 123.886, 188.952 125.395, 187.431 127.077 C 186.473 128.135, 184.719 129, 183.532 129 C 182.345 129, 180.081 130.350, 178.500 132 C 176.044 134.564, 174.886 135, 170.535 135 C 163.912 135, 161.178 136.855, 161.778 140.941 L 162.227 144 177.113 144 L 192 144 191.959 122.250 L 191.919 100.500 188.959 97.038 C 186.244 93.860, 186 92.950, 186 85.976 C 186 78.691, 185.876 78.284, 183 76.158 C 180.469 74.287, 180 73.262, 180 69.605 C 180 66.940, 179.295 64.351, 178.170 62.885 C 177.164 61.573, 176.053 59.712, 175.702 58.750 C 175.350 57.788, 174.572 57, 173.972 57 C 173.373 57, 173.160 56.550, 173.500 56 C 173.845 55.442, 173.097 55.007, 171.809 55.015 C 169.951 55.028, 169.793 55.220, 171 56 M 151 140 C 151 143.600, 151.250 144, 153.500 144 C 156.429 144, 156.434 143.975, 154.551 139.468 C 152.616 134.837, 151 135.079, 151 140 M 38.200 141.200 C 36.336 143.064, 36.770 144, 39.500 144 C 41.333 144, 42 143.467, 42 142 C 42 139.772, 40.040 139.360, 38.200 141.200" stroke="none" fill="black" fill-rule="evenodd"/>
</svg>