<svg xmlns="http://www.w3.org/2000/svg" width="192" height="144" viewBox="0 0 192 144" version="1.1">
	<path d="M 0 72 L 0 144 35.339 144 L 70.679 144 71.798 141.545 C 72.418 140.183, 72.674 136.954, 72.372 134.295 C 72.073 131.658, 72.293 127.479, 72.862 125.009 C 73.780 121.021, 73.664 120.271, 71.826 118.315 C 70.066 116.441, 69.864 115.392, 70.477 111.306 C 70.873 108.663, 71.675 105.608, 72.258 104.518 C 73.489 102.217, 77.069 88.736, 76.579 88.246 C 76.397 88.064, 70.296 88.885, 63.022 90.071 C 52.728 91.750, 49.251 91.980, 47.341 91.110 C 43.612 89.411, 45.244 88.351, 52.722 87.614 C 65.617 86.345, 71 84.938, 71 82.839 C 71 81.793, 70.213 80.674, 69.250 80.353 C 64.135 78.646, 55 73.966, 55 73.053 C 55 71.593, 54.993 71.591, 63.390 75.418 C 68.913 77.935, 71.134 78.528, 71.815 77.668 C 72.323 77.026, 73.036 72.450, 73.400 67.500 L 74.062 58.500 78.618 54.113 C 82.053 50.805, 82.845 49.517, 81.837 48.878 C 81.102 48.412, 80.006 48.024, 79.402 48.015 C 78.798 48.007, 77.515 46.251, 76.551 44.113 C 74.888 40.426, 74.887 40.041, 76.526 36.586 C 78.966 31.444, 82.459 29.001, 87.385 28.993 C 89.808 28.990, 92.734 28.170, 94.500 27 C 96.150 25.907, 98.737 25.010, 100.250 25.007 C 102.537 25.001, 103 25.432, 103 27.566 C 103 28.977, 103.419 30.914, 103.931 31.871 C 105.176 34.197, 101.069 41.618, 98.757 41.221 C 97.577 41.019, 97.044 41.843, 96.816 44.221 C 96.542 47.066, 96.069 47.566, 93.241 48 C 89.989 48.499, 89.996 48.507, 96.574 51.902 C 100.753 54.059, 103.498 56.179, 104.075 57.696 C 104.575 59.012, 108.915 64.007, 113.719 68.795 C 118.522 73.583, 122.463 78.050, 122.476 78.721 C 122.501 80.016, 159.883 118, 161.132 118 C 161.535 118, 162.170 118.959, 162.542 120.132 C 163.074 121.807, 163.406 121.968, 164.094 120.882 C 164.796 119.774, 164.972 119.833, 164.985 121.183 C 164.993 122.108, 165.900 123.151, 167 123.500 C 168.100 123.849, 169 124.562, 169 125.085 C 169 126.405, 175.911 132.993, 177.336 133.030 C 177.976 133.047, 177.688 133.533, 176.696 134.110 C 174.031 135.661, 172.192 134.130, 155.425 116.408 C 127.109 86.479, 120.698 80.068, 119.699 80.686 C 119.148 81.027, 118.192 80.616, 117.576 79.772 C 116.576 78.405, 115.517 78.470, 107.800 80.370 C 103.040 81.541, 98.870 82.779, 98.535 83.121 C 98.200 83.462, 98.473 84.943, 99.142 86.412 C 100.184 88.699, 102.057 89.611, 112.179 92.761 C 118.681 94.784, 124 96.853, 124 97.359 C 124 98.664, 115.556 97.463, 108.750 95.189 C 105.025 93.945, 103.015 93.662, 103.042 94.384 C 103.066 94.998, 105.038 98.650, 107.426 102.500 C 110.946 108.177, 111.576 109.878, 110.758 111.500 C 109.219 114.553, 105.808 118, 104.326 118 C 103.042 118, 102.501 119.440, 103.010 121.500 C 103.146 122.050, 103.619 126.550, 104.061 131.500 C 104.502 136.450, 105.170 141.292, 105.543 142.261 C 106.179 143.909, 108.963 144.005, 149.361 143.761 L 192.500 143.500 192.757 71.750 L 193.013 0 171.481 0 L 149.949 0 151.427 2.859 C 152.240 4.432, 154.332 6.309, 156.076 7.031 C 162.517 9.700, 163.483 19.899, 157.179 18.694 C 155.726 18.416, 153.403 18.768, 152.018 19.477 C 150.633 20.186, 147.184 21.079, 144.354 21.462 C 137.932 22.332, 133.618 20.363, 131.301 15.506 C 130.203 13.203, 128.841 11.969, 127.089 11.692 C 124.530 11.287, 124.526 11.273, 126.761 10.522 C 128.035 10.093, 129.304 8.613, 129.669 7.131 C 130.025 5.684, 130.972 3.488, 131.773 2.250 L 133.230 0 66.615 0 L 0 0 0 72 M 0.474 72.500 C 0.474 112.100, 0.598 128.154, 0.750 108.176 C 0.901 88.198, 0.901 55.798, 0.750 36.176 C 0.598 16.554, 0.474 32.900, 0.474 72.500 M 93.708 12.625 C 92.928 13.405, 94.003 16, 95.107 16 C 96.250 16, 96.275 13.288, 95.139 12.586 C 94.666 12.294, 94.022 12.311, 93.708 12.625 M 147 29.622 C 147 30.951, 147.271 31.020, 148.500 30 C 149.325 29.315, 150 28.585, 150 28.378 C 150 28.170, 149.325 28, 148.500 28 C 147.675 28, 147 28.730, 147 29.622 M 69 38.941 C 69 39.459, 69.450 40.160, 70 40.500 C 70.550 40.840, 71 40.416, 71 39.559 C 71 38.702, 70.550 38, 70 38 C 69.450 38, 69 38.423, 69 38.941 M 26.750 53.080 C 25.497 53.810, 25 55.367, 25 58.561 C 25 62.806, 21.846 71.359, 19.819 72.612 C 19.288 72.940, 19.647 74.058, 20.633 75.147 C 22.768 77.506, 23.593 87.861, 22.008 92.406 C 21.142 94.891, 21.230 95.695, 22.468 96.600 C 25.365 98.719, 23.985 99.725, 17.250 100.406 C 9.047 101.236, 2.477 103.059, 4.092 104.057 C 5.462 104.903, 9.553 104.555, 24.642 102.306 C 35.289 100.719, 35.692 100.571, 33.733 98.985 C 31.259 96.982, 32.156 94.966, 35.170 95.755 C 36.929 96.215, 37.210 95.990, 36.663 94.563 C 36.291 93.596, 35.493 89.615, 34.888 85.716 C 33.901 79.353, 33.967 78.497, 35.536 77.350 C 36.497 76.647, 37.759 75.914, 38.341 75.720 C 38.938 75.521, 38.332 73.874, 36.949 71.934 C 34.998 69.198, 34.488 67.221, 34.440 62.212 C 34.358 53.645, 31.535 50.293, 26.750 53.080 M 98.371 65.447 C 97.799 66.060, 97.035 69.389, 96.674 72.845 C 96.028 79.022, 96.055 79.117, 98.259 78.417 C 99.491 78.025, 102.903 77.146, 105.840 76.463 C 108.776 75.780, 111.597 74.803, 112.107 74.293 C 113.246 73.154, 104.461 66.597, 103.002 67.499 C 102.451 67.839, 102 67.266, 102 66.226 C 102 64.138, 99.996 63.708, 98.371 65.447 M 79.863 66.640 C 78.082 68.663, 75.635 78.600, 76.552 80.084 C 77.590 81.764, 79.666 81.028, 80.780 78.584 C 81.648 76.678, 81.583 76.054, 80.473 75.628 C 79.274 75.168, 79.291 74.548, 80.587 71.446 C 82.585 66.664, 82.184 64.002, 79.863 66.640 M 56 85 C 56 85.550, 56.450 86, 57 86 C 57.550 86, 58 85.550, 58 85 C 58 84.450, 57.550 84, 57 84 C 56.450 84, 56 84.450, 56 85 M 27.694 97.639 C 26.895 98.438, 27.798 100, 29.059 100 C 29.577 100, 30 99.325, 30 98.500 C 30 96.954, 28.820 96.513, 27.694 97.639 M 93.746 121.588 C 93.423 121.911, 90.202 122.152, 86.589 122.125 C 79.128 122.067, 79.853 121.087, 78.037 133.692 C 76.410 144.976, 75.419 144, 88.500 144 C 98.786 144, 100 143.815, 99.999 142.250 C 99.998 140.737, 98.042 130.200, 96.471 123.250 C 95.973 121.051, 94.923 120.410, 93.746 121.588" stroke="none" fill="black" fill-rule="evenodd"/>
</svg>