<svg xmlns="http://www.w3.org/2000/svg" width="192" height="144" viewBox="0 0 192 144" version="1.1">
	<path d="M 65.496 10.004 C 63.985 11.674, 63.876 12.432, 64.841 14.551 C 65.479 15.950, 66 17.995, 66 19.097 C 66 22.555, 68.887 27, 71.133 27 C 72.729 27, 73.042 27.408, 72.477 28.750 C 72.071 29.713, 71.389 32.525, 70.961 35 C 70.532 37.475, 69.850 40.805, 69.445 42.399 C 68.924 44.450, 69.039 45.094, 69.839 44.599 C 70.882 43.955, 70.681 47.686, 69.457 51.718 C 69.254 52.388, 69.511 53.198, 70.030 53.518 C 70.548 53.839, 70.792 55.091, 70.572 56.300 C 70.351 57.510, 69.846 61.122, 69.448 64.327 C 68.844 69.191, 68.334 70.303, 66.362 71.052 C 63.665 72.078, 63.583 72.353, 65.123 75.229 C 66.809 78.380, 64.563 86.891, 59.248 97.488 C 55.536 104.890, 54.906 106.919, 55.675 108.988 C 56.190 110.374, 56.255 113.068, 55.819 115 C 55.384 116.925, 55.253 120.075, 55.527 122 C 55.801 123.925, 55.610 127.975, 55.102 131 C 54.173 136.534, 55.171 140.921, 57.531 141.687 C 59.776 142.414, 71.925 121.274, 73.503 113.896 C 74.609 108.727, 76.167 106.739, 75.381 111.500 C 75.017 113.700, 74.387 116.400, 73.980 117.500 C 73.573 118.600, 73.110 119.950, 72.951 120.500 C 72.793 121.050, 70.956 126.450, 68.871 132.500 L 65.078 143.500 93.690 143.766 C 109.427 143.912, 122.498 143.836, 122.736 143.597 C 122.975 143.358, 122.021 139.393, 120.615 134.785 C 117.858 125.747, 117.944 120.263, 120.903 116.432 C 122.069 114.922, 122.467 112.357, 122.376 106.932 C 122.272 100.659, 121.625 98.019, 118.229 90 C 114.913 82.168, 114.266 79.592, 114.547 75.328 C 114.848 70.754, 114.605 69.971, 112.444 68.555 C 110.743 67.441, 110 66.034, 110 63.927 C 110 59.934, 107.532 55.303, 104.969 54.490 C 103.499 54.024, 103.089 53.294, 103.526 51.919 C 103.992 50.449, 103.651 50, 102.067 50 C 100.930 50, 100 49.757, 100 49.460 C 100 48.526, 104.178 40.619, 106.153 37.815 C 107.607 35.751, 107.894 34.188, 107.394 31.065 C 106.780 27.220, 106.880 27, 109.251 27 C 111.815 27, 112.330 26.191, 114.914 18.101 C 115.511 16.231, 116 13.846, 116 12.800 C 116 8.989, 103.839 6.410, 98.739 9.140 C 95.677 10.778, 85.882 10.894, 83.527 9.319 C 82.355 8.535, 78.666 8, 74.432 8 C 68.575 8, 66.988 8.356, 65.496 10.004 M 77.780 77.567 C 76.714 79.327, 75.719 106, 76.719 106 C 79.944 106, 82.176 87.309, 79.756 80.567 C 78.980 78.403, 78.091 77.053, 77.780 77.567" stroke="none" fill="black" fill-rule="evenodd"/>
</svg>