<svg xmlns="http://www.w3.org/2000/svg" width="192" height="144" viewBox="0 0 192 144" version="1.1">
	<path d="M 89.694 17.750 C 83.761 24.020, 83.090 25.203, 83.687 28.348 C 84.016 30.082, 84.896 32.715, 85.643 34.200 C 86.389 35.686, 87 37.542, 87 38.325 C 87 39.109, 88.378 40.418, 90.063 41.233 L 93.125 42.717 90.286 45.108 C 86.534 48.268, 84.608 53.099, 85.406 57.349 C 86.258 61.892, 85.287 64, 82.343 64 C 79.001 64, 74.617 66.410, 72.736 69.281 C 70.832 72.186, 71.479 73.323, 75.899 74.836 C 80.675 76.471, 82 76.295, 82 74.026 C 82 72.829, 83.222 71.420, 85.102 70.447 C 88.054 68.921, 88.301 68.946, 90.195 70.979 C 92.184 73.114, 92.184 73.120, 89.927 78.808 C 88.685 81.938, 86.634 86.592, 85.369 89.149 C 82.964 94.011, 76.671 100, 73.968 100 C 71.692 100, 66 106.221, 66 108.709 C 66 109.871, 64.650 111.958, 63 113.347 C 61.350 114.735, 60 116.476, 60 117.215 C 60 117.954, 61.626 120.233, 63.614 122.279 C 66.710 125.467, 67.861 126, 71.646 126 C 74.076 126, 77.680 126.675, 79.654 127.500 C 81.629 128.325, 85.229 129, 87.654 129 C 93.523 129, 99 131.330, 99 133.827 C 99 135.893, 96.709 138.375, 95.717 137.384 C 95.010 136.677, 84.929 138.996, 83.550 140.183 C 83.028 140.632, 81.678 141.016, 80.550 141.035 C 79.423 141.055, 77.375 141.714, 76 142.500 C 73.770 143.775, 75.686 143.933, 93.750 143.965 C 109.308 143.992, 113.997 143.710, 113.988 142.750 C 113.982 142.063, 113.351 139.150, 112.586 136.277 L 111.195 131.054 114.848 130.439 C 119.918 129.586, 124.750 127.267, 128.402 123.936 C 130.106 122.382, 132.827 120.019, 134.450 118.685 C 137.330 116.317, 137.360 116.198, 135.711 113.682 C 134.782 112.265, 134.276 110.445, 134.586 109.638 C 135.193 108.054, 128.556 100.004, 126.634 99.994 C 125.062 99.985, 122.315 95.163, 117.429 83.837 L 113.261 74.174 116.602 73.547 C 120.605 72.796, 123 69.723, 123 65.339 C 123 63.495, 120.835 57.724, 117.926 51.812 C 115.093 46.054, 112.644 39.562, 112.382 37.112 C 111.590 29.720, 105.014 18.716, 100.324 16.933 C 96.446 15.459, 91.503 15.838, 89.694 17.750 M 114.395 139.586 C 114.728 140.454, 115 141.802, 115 142.582 C 115 143.711, 116.986 143.994, 124.750 143.970 C 131.890 143.947, 134.029 143.665, 132.742 142.915 C 131.775 142.352, 130.468 142.211, 129.838 142.600 C 129.168 143.014, 128.963 142.870, 129.343 142.254 C 129.956 141.262, 125.957 140.055, 117.145 138.572 C 114.370 138.106, 113.894 138.281, 114.395 139.586" stroke="none" fill="black" fill-rule="evenodd"/>
</svg>