<svg xmlns="http://www.w3.org/2000/svg" width="192" height="144" viewBox="0 0 192 144" version="1.1">
	<path d="M 102.301 12.780 C 103.833 14.473, 103.582 14.542, 97.154 14.179 C 91.041 13.833, 90.100 14.045, 87.303 16.398 C 85.454 17.955, 82.987 19, 81.165 19 C 77.954 19, 76.224 20.402, 78.045 21.528 C 79.925 22.690, 81.149 27.116, 79.979 28.525 C 79.193 29.473, 79.597 30.541, 81.533 32.630 C 83.977 35.267, 84.108 35.887, 83.508 41.977 C 83.155 45.565, 82.748 53.900, 82.603 60.500 C 82.458 67.100, 81.783 74.460, 81.103 76.855 C 80.423 79.250, 80.093 81.800, 80.370 82.521 C 80.778 83.586, 78.505 105.540, 74.496 139.250 L 73.931 144 96.441 144 L 118.950 144 118.370 140.750 C 117.614 136.516, 114.871 123.082, 111.071 105 C 107.294 87.027, 106.883 82.400, 109.098 82.759 C 111.129 83.088, 111.500 77.384, 109.521 76.262 C 107.889 75.338, 106.331 68, 107.766 68 C 108.310 68, 109.315 68.675, 110 69.500 C 111.510 71.320, 116.374 71.477, 117.754 69.750 C 118.304 69.063, 119.080 65.805, 119.478 62.511 C 119.877 59.218, 121.058 55.323, 122.102 53.857 C 123.146 52.391, 123.978 50.811, 123.952 50.346 C 123.882 49.121, 112.872 41, 111.281 41 C 110.542 41, 109.678 41.675, 109.362 42.500 C 108.354 45.125, 107 44.116, 107.011 40.750 C 107.019 38.304, 108.062 36.412, 111.223 33.106 C 116.346 27.748, 116.635 26.380, 113.035 24.518 C 110.178 23.040, 109 21.169, 109 18.105 C 109 16.088, 104.016 11, 102.040 11 C 101.004 11, 101.065 11.414, 102.301 12.780" stroke="none" fill="black" fill-rule="evenodd"/>
</svg>