<svg xmlns="http://www.w3.org/2000/svg" width="192" height="144" viewBox="0 0 192 144" version="1.1">
	<path d="M 0 72 L 0 144 38.139 144 L 76.279 144 75.648 138.750 C 75.301 135.863, 75.013 132.452, 75.009 131.171 C 75.001 129.127, 74.648 128.918, 72.130 129.471 C 69.714 130.002, 69.162 129.737, 68.644 127.801 C 67.505 123.551, 67.835 122.742, 70.439 123.395 C 71.780 123.732, 73.149 123.568, 73.480 123.032 C 73.812 122.496, 73.546 118.219, 72.890 113.528 L 71.697 105 68.598 104.978 C 64.256 104.947, 61.352 102.256, 59.987 97 C 59.345 94.525, 57.494 89.463, 55.874 85.751 C 53.467 80.235, 53.134 78.618, 54.054 76.899 C 54.994 75.142, 54.775 74.362, 52.718 72.148 C 51.365 70.692, 49.966 68.263, 49.610 66.750 C 49.216 65.081, 48.282 63.987, 47.231 63.967 C 45.317 63.930, 41 60.689, 41 59.290 C 41 58.800, 41.492 57.908, 42.093 57.307 C 42.695 56.705, 43.348 52.344, 43.546 47.614 C 43.877 39.694, 43.633 38.340, 40.452 30.452 C 36.889 21.612, 36.107 15.120, 37.917 9.399 C 38.422 7.805, 39.098 5.294, 39.419 3.819 C 39.797 2.086, 40.798 0.986, 42.252 0.706 C 43.488 0.467, 34.488 0.211, 22.250 0.136 L 0 0 0 72 M 76 2.929 C 76 4.539, 76.634 6.491, 77.409 7.266 C 78.184 8.041, 79.215 10.661, 79.700 13.088 C 80.556 17.370, 80.694 17.500, 84.360 17.500 C 88.631 17.500, 90.497 19.622, 89.734 23.613 C 89.478 24.952, 89.698 26.314, 90.224 26.639 C 92.049 27.766, 100.190 27.581, 101.841 26.375 C 103.564 25.115, 103.715 24.099, 103.893 12.550 C 103.976 7.144, 104.267 5.867, 105.200 6.800 C 105.860 7.460, 107.435 8, 108.700 8 C 110.717 8, 111 7.507, 111 4 L 111 0 93.500 0 L 76 0 76 2.929 M 118 5 C 118 7.750, 118.379 10, 118.841 10 C 119.304 10, 119.762 7.750, 119.860 5 C 119.960 2.157, 119.597 -0, 119.018 -0 C 118.458 -0, 118 2.250, 118 5 M 151.980 1.476 C 154.293 4.263, 151.458 18.399, 148.029 21.177 C 145.584 23.157, 143 28.923, 143 32.397 C 143 33.836, 144.453 36.399, 146.500 38.569 C 149.682 41.942, 150 42.814, 150 48.155 C 150 53.645, 149.798 54.152, 146.917 55.904 C 145.087 57.017, 144.274 58.051, 144.917 58.449 C 146.703 59.553, 146.143 61.820, 143.909 62.529 C 142.759 62.894, 141.190 64.694, 140.423 66.529 C 139.656 68.365, 138.089 70.524, 136.941 71.329 C 135.130 72.597, 135.024 73.065, 136.140 74.852 C 137.216 76.576, 137.127 77.747, 135.592 82.014 C 134.583 84.820, 132.936 90.801, 131.932 95.306 C 129.982 104.053, 127.829 107, 123.389 107 C 122.075 107, 120.993 107.563, 120.985 108.250 C 120.974 109.083, 120.646 109, 120 108 C 119.322 106.952, 119.022 108.607, 119.002 113.500 C 118.986 117.350, 118.701 121.513, 118.370 122.750 C 117.837 124.738, 118.137 125, 120.947 125 C 123.932 125, 124.108 125.199, 123.813 128.250 C 123.496 131.537, 122.442 132.022, 118.836 130.537 C 117.459 129.970, 116.922 130.946, 115.730 136.176 C 114.937 139.654, 114.475 142.838, 114.703 143.250 C 114.931 143.662, 132.416 144, 153.559 144 L 192 144 192 72 L 192 0 171.378 0 C 153.308 0, 150.907 0.183, 151.980 1.476 M 117.131 65.250 C 115.899 68.632, 116.964 81, 118.487 81 C 119.847 81, 121.649 65.859, 120.509 64.014 C 119.468 62.330, 117.999 62.868, 117.131 65.250 M 123 65 C 123 65.550, 123.450 66, 124 66 C 124.550 66, 125 65.550, 125 65 C 125 64.450, 124.550 64, 124 64 C 123.450 64, 123 64.450, 123 65 M 71.389 66.980 C 68.298 68.229, 67.990 70.062, 69.916 75.751 C 72.267 82.696, 74.252 81.407, 74.815 72.568 C 75.243 65.843, 75.036 65.506, 71.389 66.980" stroke="none" fill="black" fill-rule="evenodd"/>
</svg>