<svg xmlns="http://www.w3.org/2000/svg" width="192" height="144" viewBox="0 0 192 144" version="1.1">
	<path d="M 0 72.012 L 0 144.025 36.226 143.762 L 72.452 143.500 73.333 140.500 C 73.818 138.850, 75.200 134.897, 76.406 131.716 C 78.190 127.007, 78.465 124.868, 77.883 120.216 C 77.490 117.072, 77.131 112.138, 77.084 109.250 C 77.021 105.322, 76.628 104, 75.522 104 C 72.179 104, 76.090 84.916, 79.917 82.551 C 80.513 82.183, 81 81.046, 81 80.024 C 81 79.003, 81.563 77.956, 82.250 77.698 C 83.191 77.345, 83.123 76.892, 81.976 75.865 C 78.267 72.543, 76.630 69.668, 75.930 65.245 C 75.270 61.077, 75.442 60.290, 77.340 58.772 C 78.973 57.466, 79.122 57.039, 77.950 57.022 C 75.813 56.992, 74.049 55.037, 74.678 53.396 C 75.080 52.350, 75.671 52.289, 77.242 53.129 C 79.225 54.191, 79.264 54.046, 78.591 48.098 C 77.768 40.825, 78.421 39.166, 81.140 41.627 C 82.970 43.283, 83.245 43.287, 85.945 41.692 C 87.520 40.761, 89.448 40, 90.230 40 C 91.012 40, 92.630 38.958, 93.826 37.686 C 95.889 35.489, 96 34.467, 96 17.686 L 96 0 48 0 L 0 0 0 72.012 M 96 90 L 96 144 108.508 144 C 120.106 144, 120.950 143.873, 120.095 142.250 C 119.587 141.287, 118.172 137.586, 116.950 134.025 C 114.968 128.249, 114.795 126.307, 115.348 116.025 C 115.689 109.686, 115.975 103.882, 115.984 103.128 C 115.998 101.964, 116.253 101.964, 117.663 103.128 C 121.137 105.994, 117.376 88.558, 113.538 84 C 111.102 81.108, 110.912 76.390, 113.150 74.364 C 115.529 72.211, 118 67.760, 118 65.626 C 118 64.816, 116.875 62.816, 115.500 61.182 C 112.607 57.744, 112.429 57, 114.500 57 C 115.898 57, 116.344 56.021, 115.750 54.257 C 115.612 53.848, 114.963 53.637, 114.306 53.788 C 113.425 53.990, 113.266 52.216, 113.701 47.031 C 114.313 39.732, 113.877 38.896, 110.876 41.612 C 109.231 43.101, 108.752 43.058, 104.628 41.062 C 102.172 39.873, 99.620 38.247, 98.958 37.450 C 98.297 36.652, 97.360 36, 96.878 36 C 96.385 36, 96 59.690, 96 90 M 78.040 64.452 C 77.377 65.251, 77.102 66.746, 77.429 67.776 C 78.225 70.284, 83.793 75.540, 84.697 74.637 C 85.686 73.647, 82.432 68.501, 80.813 68.495 C 79.971 68.492, 79.615 67.506, 79.822 65.745 C 80.185 62.646, 79.782 62.353, 78.040 64.452 M 112.650 66 C 113.154 68.519, 112.935 69, 111.286 69 C 109.680 69, 107 72.469, 107 74.547 C 107 76.032, 110.062 74.531, 112.804 71.702 C 116.201 68.198, 116.747 66.147, 114.800 64.200 C 112.794 62.194, 112.019 62.843, 112.650 66 M 101.500 76 C 101.160 76.550, 101.584 77, 102.441 77 C 103.298 77, 104 76.550, 104 76 C 104 75.450, 103.577 75, 103.059 75 C 102.541 75, 101.840 75.450, 101.500 76" stroke="none" fill="black" fill-rule="evenodd"/>
</svg>