<svg xmlns="http://www.w3.org/2000/svg" width="192" height="144" viewBox="0 0 192 144" version="1.1">
	<path d="M 6.685 3.534 C 3.314 10.603, 5.669 22.141, 10.750 23.456 C 12.533 23.917, 13 24.750, 13 27.472 C 13 31.321, 14.877 36.194, 16.074 35.454 C 16.504 35.188, 17.131 35.836, 17.466 36.893 C 17.802 37.950, 18.734 39.068, 19.538 39.376 C 21.657 40.190, 21.331 42.680, 19.026 43.283 C 17.940 43.567, 15.353 43.440, 13.276 43.001 C 3.677 40.973, -0 40.817, -0 42.439 C -0 43.694, 1.276 44, 6.500 44 C 10.167 44, 13 44.436, 13 45 C 13 45.550, 12.392 46, 11.649 46 C 10.343 46, 4 55.176, 4 57.066 C 4 58.887, 1.922 57.966, 1.031 55.750 C 0.471 54.356, 0.103 70.715, 0.063 98.750 L 0 144 21.475 144 L 42.950 144 42.414 140.750 C 41.243 133.648, 39.853 128.705, 38.404 126.495 C 36.887 124.179, 36.892 124.176, 40.921 124.716 C 44.966 125.259, 50 123.187, 50 120.980 C 50 119.206, 43.030 112.255, 39.989 110.996 C 38.345 110.315, 37.013 109.024, 37.028 108.129 C 37.044 107.233, 38.831 103.350, 40.999 99.500 C 47.540 87.887, 47.493 88.005, 46.339 86.172 C 44.260 82.872, 42.499 83.857, 39.613 89.935 C 31.543 106.926, 28.608 104.532, 34.603 85.848 L 36.095 81.197 42.185 80.124 C 45.534 79.534, 48.663 79.292, 49.137 79.585 C 49.612 79.878, 50 79.641, 50 79.059 C 50 78.477, 50.942 78, 52.094 78 C 53.360 78, 54.398 77.194, 54.721 75.959 C 55.517 72.917, 57.413 74.176, 58.064 78.178 C 58.603 81.492, 63 87.737, 63 85.189 C 63 84.535, 63.450 84, 64 84 C 64.550 84, 65 85.321, 65 86.935 C 65 90.795, 67.690 103.494, 68.983 105.737 C 69.542 106.707, 70.448 108.765, 70.998 110.310 C 71.547 111.856, 72.379 112.884, 72.847 112.594 C 73.316 112.305, 74.292 113.178, 75.018 114.534 C 75.744 115.890, 76.718 117, 77.183 117 C 77.648 117, 77.740 118.463, 77.387 120.250 C 76.413 125.186, 76.679 126.679, 78.933 128.933 C 80.070 130.070, 81.199 131, 81.443 131 C 81.687 131, 82.975 129.174, 84.306 126.942 L 86.726 122.885 87.366 126.888 C 87.735 129.197, 88.848 131.481, 89.996 132.285 C 91.090 133.051, 92.269 135.093, 92.615 136.823 C 92.960 138.552, 93.573 139.764, 93.976 139.515 C 94.378 139.266, 95.214 140.174, 95.832 141.531 L 96.957 144 118.998 144 L 141.038 144 140.534 141.750 C 136.345 123.069, 134.670 115.831, 133.469 111.219 C 132.149 106.154, 132.173 105.594, 133.754 104.438 C 134.702 103.744, 135.708 103.271, 135.989 103.386 C 136.270 103.500, 137.722 104.203, 139.216 104.948 C 141.224 105.949, 142.280 106.012, 143.269 105.192 C 144.273 104.358, 145.407 104.569, 147.827 106.041 C 151.422 108.227, 154 108.576, 154 106.878 C 154 106.109, 154.480 106.154, 155.522 107.019 C 156.360 107.713, 159.455 108.397, 162.402 108.537 C 167.244 108.768, 167.711 108.609, 167.259 106.881 C 166.984 105.829, 166.363 104.724, 165.879 104.425 C 165.396 104.127, 165 103.484, 165 102.997 C 165 102.511, 167.062 103.025, 169.583 104.140 C 172.104 105.255, 174.373 105.960, 174.627 105.707 C 174.880 105.453, 172.073 102.603, 168.389 99.373 C 164.705 96.143, 157.172 88.325, 151.648 82 C 135.915 63.984, 123.024 51.156, 119.586 50.092 C 117.889 49.566, 110.875 48.851, 104 48.502 C 97.125 48.153, 89.135 47.209, 86.243 46.404 C 80.727 44.868, 72.455 40.402, 67.673 36.379 C 64.199 33.455, 63.322 33.410, 62.465 36.110 C 61.757 38.341, 58.071 43, 57.014 43 C 56.671 43, 56.342 39.738, 56.285 35.750 C 56.142 25.901, 52.651 9.968, 49.433 4.476 L 46.810 0 27.590 0 L 8.370 0 6.685 3.534 M 50.200 43.169 C 49.108 47.215, 49.258 47.467, 51.914 46.046 C 54.348 44.743, 54.602 42.744, 52.550 41.041 C 51.348 40.044, 50.945 40.408, 50.200 43.169 M 40.475 48.796 C 40.764 49.548, 41 50.632, 41 51.204 C 41 51.834, 41.592 51.754, 42.500 51 C 44.649 49.217, 44.350 47.098, 41.975 47.277 C 40.707 47.372, 40.147 47.940, 40.475 48.796" stroke="none" fill="black" fill-rule="evenodd"/>
</svg>