<svg xmlns="http://www.w3.org/2000/svg" width="192" height="144" viewBox="0 0 192 144" version="1.1">
	<path d="M 0 72 L 0 144 14.500 144 C 30.859 144, 33.629 142.779, 22.385 140.525 C 20.672 140.181, 18.422 139.122, 17.385 138.171 C 16.348 137.220, 14.712 136.601, 13.750 136.795 C 12.568 137.032, 12 136.523, 12 135.223 C 12 132.247, 14.099 126.924, 16.188 124.600 C 21.550 118.636, 24.408 116.005, 26.113 115.464 C 27.151 115.135, 28 114.464, 28 113.974 C 28 113.484, 31.623 109.577, 36.050 105.292 C 42.483 99.066, 44.187 96.801, 44.532 94.021 C 44.769 92.107, 45.871 89.313, 46.982 87.811 C 49.569 84.312, 49.528 83.782, 46.393 80.055 C 44.233 77.488, 43.892 76.318, 44.406 73.229 C 44.747 71.178, 45.133 68.600, 45.263 67.500 C 45.393 66.400, 46.288 65.177, 47.250 64.782 C 48.212 64.387, 49 63.359, 49 62.497 C 49 61.240, 48.605 61.141, 47 62 C 45.598 62.750, 45 62.754, 45 62.010 C 45 61.427, 46.013 60.553, 47.250 60.067 C 50.442 58.813, 53 55.411, 53 52.420 L 53 49.864 50.175 51.875 C 48.622 52.981, 46.086 55.712, 44.539 57.943 C 42.993 60.174, 41.287 62, 40.747 62 C 39.722 62, 33.718 68.143, 30.813 72.165 L 29.127 74.500 29.633 72 C 30.107 69.659, 29.943 69.720, 27.069 72.962 C 25.381 74.866, 24 76.779, 24 77.212 C 24 77.646, 23.363 78, 22.583 78 C 21.804 78, 20.930 78.562, 20.641 79.250 C 20.269 80.137, 19.785 79.975, 18.977 78.695 C 18.049 77.223, 17.562 77.119, 16.343 78.130 C 15.142 79.127, 14.677 79.095, 13.978 77.965 C 13.500 77.191, 12.788 76.878, 12.396 77.270 C 12.005 77.662, 11.139 77.531, 10.474 76.978 C 8.865 75.643, 10.244 68.233, 13.203 62.307 C 16.554 55.598, 21.286 50.625, 28.753 45.966 C 37.871 40.276, 40.798 37.398, 43.467 31.500 C 44.712 28.750, 46.916 25.409, 48.365 24.076 C 51.512 21.180, 51.720 19.422, 49 18.710 C 46.036 17.935, 46.572 16.412, 50.172 15.380 C 54.470 14.147, 54.589 12.899, 50.653 10.350 C 48.827 9.168, 47.333 7.480, 47.333 6.600 C 47.333 3.549, 51.110 5.015, 56.095 10 C 58.845 12.750, 61.636 15.007, 62.298 15.015 C 62.959 15.024, 64.151 15.442, 64.947 15.946 C 66.144 16.703, 65.991 17.186, 64.059 18.751 L 61.726 20.641 65.289 22.743 C 70.435 25.779, 72.485 29.223, 70.908 32.183 C 70.229 33.457, 69.004 34.994, 68.185 35.597 C 67.177 36.340, 67.050 36.913, 67.789 37.370 C 69.162 38.218, 66.081 43.984, 64.250 43.994 C 62.190 44.004, 62.831 46.493, 65.552 49.049 C 66.955 50.367, 68.907 53.258, 69.889 55.473 C 70.871 57.688, 72.423 60.118, 73.337 60.872 C 75.472 62.635, 75.460 66.368, 73.308 69.652 C 71.099 73.024, 71.090 79.701, 73.271 98.500 C 75.962 121.694, 76.542 129.932, 76 137.251 L 75.500 144.002 103.750 144.001 C 128.172 144, 132 143.797, 132 142.503 C 132 141.679, 130.578 137.995, 128.839 134.316 L 125.679 127.627 125.342 98.651 C 125.031 71.801, 124.859 69.426, 123.003 66.280 C 120.368 61.814, 120.455 60.961, 124 56.500 C 125.650 54.424, 127 52.113, 127 51.365 C 127 50.618, 128.612 48.221, 130.582 46.041 C 134.015 42.241, 134.379 40, 131.562 40 C 130.097 40, 127.368 34.299, 128.359 33.308 C 128.705 32.962, 128.090 32.051, 126.994 31.283 C 125.897 30.515, 125 28.822, 125 27.520 C 125 24.529, 129.247 19.406, 132.378 18.620 C 134.915 17.983, 135.964 15.551, 135.986 10.250 C 135.994 8.462, 136.450 7, 137 7 C 137.550 7, 138 8.098, 138 9.441 C 138 10.784, 138.450 12.160, 139 12.500 C 139.575 12.855, 140.006 11.924, 140.014 10.309 C 140.035 5.896, 141.092 2.938, 142.364 3.732 C 142.989 4.123, 144.373 4.578, 145.439 4.744 C 148.390 5.202, 148.529 5.807, 146.245 8.254 C 145.092 9.489, 143.835 11.760, 143.453 13.300 C 142.849 15.735, 143.300 16.565, 146.913 19.658 C 149.199 21.614, 151.915 24.854, 152.950 26.857 C 155.094 31.011, 160.142 35.977, 167.736 41.407 C 174.599 46.313, 179.387 52.010, 180.905 57.076 C 182.729 63.167, 183.612 75.496, 182.158 74.598 C 181.521 74.204, 181 74.343, 181 74.906 C 181 75.469, 180.089 76.417, 178.976 77.013 C 177.411 77.851, 176.603 77.745, 175.405 76.548 C 174.554 75.697, 173.445 75, 172.942 75 C 172.439 75, 171.369 73.425, 170.564 71.500 C 169.760 69.575, 168.426 68, 167.599 68 C 166.772 68, 164.637 65.862, 162.853 63.250 C 159.482 58.313, 154.091 52.815, 147.168 47.254 L 143.127 44.008 143.722 47.754 C 144.446 52.313, 146.528 55.715, 149.089 56.528 C 150.587 57.004, 151 58.081, 151 61.508 C 151 63.914, 151.450 66.160, 152 66.500 C 153.851 67.644, 153.026 73.100, 150.500 76.411 C 149.125 78.214, 148 80.155, 148 80.726 C 148 81.296, 149.912 82.249, 152.250 82.844 C 156.426 83.907, 167.116 92.383, 179.053 104.096 C 184.259 109.203, 187.103 115.968, 187.351 123.835 C 187.518 129.111, 185.681 131.786, 180.467 133.858 C 178.798 134.521, 176.341 136.830, 175.006 138.990 C 173.672 141.149, 171.662 143.106, 170.540 143.339 C 169.418 143.571, 173.900 143.703, 180.500 143.631 L 192.500 143.500 192.757 71.750 L 193.013 0 96.507 0 L 0 0 0 72 M 0.474 72.500 C 0.474 112.100, 0.598 128.154, 0.750 108.176 C 0.901 88.198, 0.901 55.798, 0.750 36.176 C 0.598 16.554, 0.474 32.900, 0.474 72.500 M 147 59.893 C 147 60.384, 147.652 61.036, 148.449 61.342 C 149.418 61.714, 149.714 61.418, 149.342 60.449 C 148.735 58.867, 147 58.455, 147 59.893" stroke="none" fill="black" fill-rule="evenodd"/>
</svg>