<svg xmlns="http://www.w3.org/2000/svg" width="192" height="144" viewBox="0 0 192 144" version="1.1">
	<path d="M 173.057 3.790 C 172.288 6.643, 169.374 10.193, 161.268 18.148 C 150.965 28.261, 150.150 28.833, 142.391 31.394 C 133.788 34.233, 130 37.156, 130 40.953 C 130 42.274, 128.274 45.149, 126 47.616 C 121.907 52.056, 120.824 54.665, 123.500 53.638 C 125.248 52.968, 125.432 54.325, 123.965 57.066 C 122.508 59.788, 124.209 59.471, 127 56.500 C 130.044 53.260, 131.519 53.279, 129.388 56.531 C 127.426 59.525, 128.034 60.587, 130.849 59.081 C 133.839 57.481, 134.825 57.747, 135.180 60.250 C 135.666 63.670, 137.002 62.946, 142.480 56.294 C 147.436 50.275, 152.160 46.418, 148.045 51.749 C 138.942 63.543, 138.858 66.930, 147.894 57.854 L 154.219 51.500 151.109 56.180 C 147.537 61.557, 147.033 63.798, 149.844 61.807 C 153.723 59.058, 168.159 42.607, 170.166 38.648 C 172.033 34.964, 173.995 32.661, 174.681 33.347 C 175.190 33.857, 160.924 76.277, 157.583 84.187 L 156.026 87.874 151.763 85.493 C 149.418 84.184, 146.150 82.858, 144.500 82.547 C 142.850 82.236, 137.675 81.070, 133 79.955 C 128.325 78.841, 122.523 77.497, 120.107 76.968 C 114.831 75.814, 113.472 74.794, 112.148 70.993 C 111.165 68.174, 111.203 68.127, 113.733 69.088 C 117.276 70.436, 118.730 68.899, 117.164 65.461 C 116.056 63.030, 115.670 62.907, 110.991 63.501 C 108.246 63.850, 106 63.762, 106 63.307 C 106 62.851, 103.478 60.466, 100.396 58.007 C 94.868 53.596, 94.800 53.477, 95.374 49.288 C 95.825 45.999, 95.463 44.189, 93.773 41.270 C 90.212 35.122, 88.681 34.608, 87.134 39.045 L 86.073 42.089 82.905 40.451 L 79.736 38.812 80.420 41.536 C 80.942 43.616, 80.559 44.840, 78.802 46.711 C 76.911 48.724, 76.500 50.267, 76.500 55.353 C 76.500 61.146, 76.854 62.100, 82 70.172 C 85.025 74.916, 89.491 82.023, 91.925 85.964 C 94.629 90.343, 97.546 93.748, 99.425 94.718 C 101.116 95.592, 103.041 97.026, 103.702 97.904 C 105.205 99.901, 113.259 116.300, 115.044 121 C 117.576 127.664, 119.001 129.159, 122.164 128.464 C 123.743 128.117, 127.021 127.833, 129.449 127.833 C 133.426 127.833, 133.963 127.545, 134.879 124.917 C 135.438 123.312, 136.369 122, 136.948 122 C 138.377 122, 138.395 121.934, 135 129.500 C 131.643 136.982, 131.123 140.551, 133.523 139.629 C 134.752 139.158, 134.849 139.414, 134.023 140.957 C 133.460 142.008, 133 143.123, 133 143.434 C 133 143.745, 146.275 144, 162.500 144 L 192 144 192 72 L 192 0 183.039 0 L 174.077 0 173.057 3.790 M 132.872 51.750 C 131.629 53.336, 131.664 53.371, 133.250 52.128 C 134.916 50.821, 135.445 50, 134.622 50 C 134.415 50, 133.627 50.788, 132.872 51.750" stroke="none" fill="black" fill-rule="evenodd"/>
</svg>