<svg xmlns="http://www.w3.org/2000/svg" width="192" height="144" viewBox="0 0 192 144" version="1.1">
	<path d="M -0 72.005 L -0 144.010 96.250 143.755 L 192.500 143.500 192.757 71.750 L 193.013 0 146.157 0 L 99.301 0 98.642 10.250 C 97.921 21.454, 97.166 26, 96.028 26 C 94.934 26, 92.695 8.992, 93.155 4.167 L 93.553 0 46.776 0 L 0 0 -0 72.005 M 0.474 72.500 C 0.474 112.100, 0.598 128.154, 0.750 108.176 C 0.901 88.198, 0.901 55.798, 0.750 36.176 C 0.598 16.554, 0.474 32.900, 0.474 72.500 M 98.032 37.715 C 98.014 38.934, 96.718 41.409, 95.150 43.215 C 93.583 45.022, 92.009 47.700, 91.652 49.167 C 91.282 50.690, 89.542 52.738, 87.598 53.939 C 83.361 56.558, 77 63.499, 77 65.503 C 77 66.326, 77.645 67, 78.433 67 C 79.221 67, 80.130 67.833, 80.453 68.851 C 80.947 70.410, 81.808 70.629, 85.890 70.237 C 91.141 69.732, 92.935 70.922, 90.537 73.320 C 89.229 74.628, 89.238 74.952, 90.613 76.094 C 91.733 77.023, 92.032 78.526, 91.676 81.443 C 89.870 96.243, 88.778 102.509, 87.001 108.262 C 84.323 116.931, 85.436 119.953, 91.317 119.985 C 94.008 119.999, 94.121 120.189, 93.817 124.195 L 93.500 128.389 98.500 128.445 C 103.351 128.498, 103.492 128.419, 103.218 125.789 C 102.974 123.440, 103.546 122.801, 107.506 120.997 C 117.130 116.613, 118.061 113.632, 112.500 105 C 108.600 98.946, 108.317 97.421, 110.511 94.288 C 111.422 92.987, 111.635 91.892, 111.048 91.530 C 110.513 91.199, 110.096 89.032, 110.122 86.714 C 110.149 84.396, 109.460 80.540, 108.592 78.144 C 107.724 75.747, 107.243 73.416, 107.523 72.963 C 107.803 72.509, 107.575 71.856, 107.016 71.510 C 106.457 71.165, 106 70.199, 106 69.365 C 106 68.222, 106.954 67.916, 109.865 68.126 C 112.830 68.340, 114.451 67.798, 116.830 65.796 C 118.535 64.361, 121.719 62.885, 123.904 62.516 C 126.961 62, 127.739 61.483, 127.276 60.278 C 126.925 59.361, 127.444 58.148, 128.529 57.355 C 130.328 56.040, 130.326 55.956, 128.441 54.477 C 124.882 51.686, 119.450 49.174, 115.453 48.473 C 112.830 48.013, 110.424 46.639, 108.301 44.390 C 106.542 42.525, 104.179 41, 103.051 41 C 101.923 41, 101 40.636, 101 40.191 C 101 39.746, 100.339 38.509, 99.532 37.441 C 98.098 35.546, 98.063 35.552, 98.032 37.715 M 97 124.083 C 97 126.520, 99.337 126.176, 99.823 123.667 C 100.015 122.680, 99.505 122, 98.573 122 C 97.646 122, 97 122.855, 97 124.083" stroke="none" fill="black" fill-rule="evenodd"/>
</svg>