<svg xmlns="http://www.w3.org/2000/svg" width="192" height="144" viewBox="0 0 192 144" version="1.1">
	<path d="M 63.650 8.749 C 63.733 13.562, 63.454 17.950, 63.031 18.500 C 62.607 19.050, 61.938 21.289, 61.543 23.476 C 60.051 31.734, 48.830 46.933, 40.768 51.615 C 28.635 58.661, 9.861 61.990, 1.750 58.532 C 0.099 57.828, 0 60.221, 0 100.893 L 0 144 69 144 L 138 144 138 136.210 C 138 131.926, 138.628 125.963, 139.395 122.960 C 140.831 117.338, 143.031 102.299, 142.960 98.591 C 142.925 96.768, 142.725 96.860, 141.396 99.311 C 140.558 100.856, 140.014 103.309, 140.186 104.761 C 140.436 106.866, 139.994 107.531, 138 108.042 C 135.296 108.735, 133 107.542, 133 105.446 C 133 104.330, 139.022 91.219, 142.039 85.764 C 143.493 83.136, 143.212 81.079, 140.886 77.315 L 138.771 73.894 141.386 68.855 C 142.824 66.083, 144 63.237, 144 62.530 C 144 61.823, 144.675 60.685, 145.500 60 C 147.454 58.378, 147.427 56, 145.455 56 C 144.605 56, 142.692 54.762, 141.205 53.250 C 139.717 51.737, 137.600 50.032, 136.500 49.459 C 135.090 48.725, 134.497 47.398, 134.489 44.959 C 134.481 42.487, 133.662 40.693, 131.616 38.673 C 130.042 37.118, 129.147 35.485, 129.627 35.045 C 130.107 34.605, 134.816 33.987, 140.091 33.671 C 152.735 32.914, 154.598 33.866, 162.254 45 C 165.469 49.675, 168.775 55.075, 169.602 57 C 170.429 58.925, 172.183 61.625, 173.499 63 C 174.815 64.375, 177.041 68.102, 178.447 71.282 C 179.853 74.462, 182.604 78.469, 184.560 80.187 C 188.443 83.597, 192 89.720, 192 92.995 C 192 94.809, 191.729 94.925, 189.848 93.919 C 188.071 92.968, 187.794 93.021, 188.257 94.228 C 189.208 96.707, 184.304 95.094, 180.340 91.625 C 178.376 89.906, 174.270 85.914, 171.215 82.753 C 168.160 79.592, 165.513 77.154, 165.332 77.334 C 165.152 77.515, 166.090 80.326, 167.418 83.581 C 170.763 91.783, 175 105.488, 175 108.105 C 175 109.301, 174.230 110.842, 173.290 111.530 C 171.107 113.126, 171.883 114.926, 179.986 127.059 C 183.276 131.987, 186.900 137.844, 188.038 140.075 C 189.176 142.306, 190.646 143.952, 191.304 143.733 C 193.020 143.163, 193.270 124.397, 192.455 57.250 L 191.761 0 127.630 -0.001 L 63.500 -0.001 63.650 8.749 M 0.459 101 C 0.459 124.925, 0.589 134.713, 0.749 122.750 C 0.908 110.788, 0.908 91.213, 0.749 79.250 C 0.589 67.288, 0.459 77.075, 0.459 101 M 159.522 85.967 C 160.318 89.737, 162.040 93, 163.232 93 C 164.105 93, 161.161 84.984, 159.744 83.500 C 159.135 82.862, 159.055 83.755, 159.522 85.967" stroke="none" fill="black" fill-rule="evenodd"/>
</svg>