<svg xmlns="http://www.w3.org/2000/svg" width="192" height="144" viewBox="0 0 192 144" version="1.1">
	<path d="M 0 72 L 0 144 11.985 144 L 23.971 144 28.512 138.250 C 31.724 134.183, 32.902 131.874, 32.536 130.363 C 32.251 129.187, 32.434 126.037, 32.941 123.363 C 33.653 119.610, 33.537 117.994, 32.432 116.285 C 30.451 113.221, 30.640 111.112, 33.071 109.143 C 34.628 107.883, 35.740 104.490, 37.548 95.483 C 40.537 80.595, 40.586 79, 38.059 79 C 35.213 79, 34.708 77.437, 36.368 73.761 C 39.269 67.338, 39.248 66.352, 36.134 62.806 C 29.969 55.783, 28.511 42.764, 33.065 35.395 C 36.669 29.563, 49.703 20.619, 58.937 17.641 C 63.439 16.188, 68.058 15, 69.201 15 C 71.106 15, 71.229 14.586, 70.686 10 C 70.361 7.250, 70.411 5.018, 70.797 5.040 C 71.184 5.062, 73.300 7.379, 75.500 10.189 C 77.700 12.998, 81.416 17.107, 83.758 19.319 C 86.100 21.530, 89.138 25.712, 90.510 28.612 C 91.882 31.512, 93.564 34.231, 94.249 34.654 C 94.934 35.077, 98.195 35.506, 101.497 35.607 C 104.799 35.707, 108.063 35.837, 108.750 35.895 C 110.102 36.009, 110.431 39.845, 109.235 41.542 C 108.831 42.116, 107.186 42.679, 105.581 42.795 C 101.702 43.075, 101.509 43.400, 103.034 47.082 C 104.156 49.791, 104.081 50.980, 102.493 55.653 C 101.233 59.359, 100.219 60.914, 99.294 60.559 C 96.844 59.619, 95.567 64.455, 96.664 70.511 C 97.437 74.770, 97.379 76, 96.407 76 C 95.719 76, 94.653 77.521, 94.040 79.379 C 92.558 83.869, 90.328 85.575, 85.500 85.909 C 83.300 86.062, 81.291 86.391, 81.035 86.641 C 79.608 88.038, 83.420 90.466, 89.527 92.048 C 102.525 95.417, 104.525 96.418, 104.302 99.448 C 104.193 100.930, 104.491 103.160, 104.963 104.403 C 105.782 106.558, 106.135 106.626, 112.475 105.863 C 128.203 103.969, 146.959 108.423, 159.500 117.030 C 165.102 120.875, 173 129.152, 175.767 134.078 C 177.050 136.363, 177.965 138.351, 177.800 138.494 C 177.635 138.638, 175.250 139.923, 172.500 141.350 L 167.500 143.943 180 143.722 L 192.500 143.500 192.757 71.750 L 193.013 0 96.507 0 L 0 0 0 72 M 0.474 72.500 C 0.474 112.100, 0.598 128.154, 0.750 108.176 C 0.901 88.198, 0.901 55.798, 0.750 36.176 C 0.598 16.554, 0.474 32.900, 0.474 72.500 M 116.200 51.200 C 114.132 53.268, 114.879 54.754, 118.250 55.279 C 122.554 55.950, 123.686 54.686, 121.100 52.100 C 118.684 49.684, 117.867 49.533, 116.200 51.200 M 25.030 72.550 C 25.057 75.136, 25.193 75.272, 26.134 73.654 C 26.903 72.330, 26.895 71.495, 26.104 70.704 C 25.299 69.899, 25.008 70.399, 25.030 72.550 M 14.500 133 C 14.160 133.550, 14.359 134, 14.941 134 C 15.523 134, 16 133.550, 16 133 C 16 132.450, 15.802 132, 15.559 132 C 15.316 132, 14.840 132.450, 14.500 133" stroke="none" fill="black" fill-rule="evenodd"/>
</svg>