<svg xmlns="http://www.w3.org/2000/svg" width="192" height="144" viewBox="0 0 192 144" version="1.1">
	<path d="M 0 72 L 0 144 69.500 144 C 130.313 144, 139 143.814, 139 142.514 C 139 141.697, 138.538 139.110, 137.974 136.764 C 137.409 134.419, 136.104 129.008, 135.073 124.739 C 133.583 118.568, 133.434 116.469, 134.349 114.497 C 134.982 113.132, 135.838 112.012, 136.250 112.008 C 136.662 112.004, 137.002 111.213, 137.005 110.250 C 137.011 107.701, 141.696 96.601, 142.941 96.186 C 143.523 95.992, 144 95.304, 144 94.657 C 144 94.010, 144.851 92.949, 145.892 92.300 C 147.403 91.356, 147.723 90.150, 147.482 86.309 L 147.181 81.500 117.840 80.353 C 81.144 78.918, 52.827 75.518, 62.014 73.651 C 63.381 73.373, 67.650 72.684, 71.500 72.119 C 78.297 71.122, 83.468 70.718, 131 67.469 C 143.375 66.623, 161.150 65.274, 170.500 64.471 C 179.850 63.668, 188.512 63.009, 189.750 63.006 C 191.905 63, 192 63.354, 192 71.394 L 192 79.788 182.750 80.465 C 170.428 81.368, 170.286 81.425, 169.787 85.700 C 169.415 88.882, 169.830 89.755, 173.126 92.732 C 175.195 94.602, 177.435 97.790, 178.103 99.816 C 178.771 101.842, 180.092 104.880, 181.039 106.568 C 181.986 108.255, 183.074 111.062, 183.457 112.806 C 183.840 114.550, 184.569 116.234, 185.077 116.548 C 186.252 117.274, 186.274 123.198, 185.113 126.203 C 184.625 127.466, 183.757 130.750, 183.184 133.500 C 182.612 136.250, 181.872 139.760, 181.540 141.301 L 180.936 144.102 186.718 143.801 L 192.500 143.500 192.757 71.750 L 193.013 0 96.507 0 L 0 0 0 72 M 0.474 72.500 C 0.474 112.100, 0.598 128.154, 0.750 108.176 C 0.901 88.198, 0.901 55.798, 0.750 36.176 C 0.598 16.554, 0.474 32.900, 0.474 72.500" stroke="none" fill="black" fill-rule="evenodd"/>
</svg>