<svg xmlns="http://www.w3.org/2000/svg" width="192" height="144" viewBox="0 0 192 144" version="1.1">
	<path d="M 0 72 L 0 144 35.299 144 L 70.599 144 74.049 132.250 C 75.947 125.788, 77.500 119.825, 77.500 119 C 77.500 117.889, 76.333 117.500, 73 117.500 C 68.652 117.500, 68.489 117.390, 68.186 114.243 C 67.973 112.031, 68.361 110.799, 69.397 110.401 C 71.911 109.436, 80.060 91.427, 80.600 85.640 C 80.864 82.813, 81.260 79.027, 81.481 77.228 C 81.739 75.123, 81.509 74.186, 80.837 74.601 C 80.263 74.956, 80.491 74.178, 81.345 72.873 C 82.198 71.568, 83.207 67.462, 83.587 63.750 C 84.165 58.084, 84.033 57, 82.761 57 C 81.890 57, 80.299 54.798, 79.016 51.815 C 76.874 46.836, 76.857 46.577, 78.602 45.302 C 79.726 44.480, 82.721 44.049, 86.459 44.173 C 89.782 44.282, 96.609 44.019, 101.631 43.589 C 108.059 43.038, 110.967 43.138, 111.454 43.926 C 112.396 45.449, 109.123 55.016, 107.439 55.662 C 106.546 56.004, 106.276 57.129, 106.644 58.969 C 106.955 60.524, 106.715 62.058, 106.101 62.438 C 104.499 63.427, 104.753 71.298, 106.494 74.636 C 107.315 76.211, 107.990 80.110, 107.994 83.300 C 108 89.195, 108.846 91.532, 113.749 99.198 C 118.317 106.341, 118.969 107.411, 120.139 109.686 C 121.809 112.934, 120.539 115.195, 117.256 114.817 C 114.999 114.557, 114.560 114.072, 114.832 112.139 C 115.058 110.524, 114.743 109.919, 113.832 110.222 C 111.247 111.082, 111.381 116.353, 114.214 125.250 C 115.746 130.063, 117.003 134.563, 117.006 135.250 C 117.009 135.938, 117.481 138.193, 118.056 140.262 L 119.101 144.025 155.800 143.762 L 192.500 143.500 192.757 71.750 L 193.013 0 96.507 0 L 0 0 0 72 M 0.474 72.500 C 0.474 112.100, 0.598 128.154, 0.750 108.176 C 0.901 88.198, 0.901 55.798, 0.750 36.176 C 0.598 16.554, 0.474 32.900, 0.474 72.500" stroke="none" fill="black" fill-rule="evenodd"/>
</svg>