<svg xmlns="http://www.w3.org/2000/svg" width="192" height="144" viewBox="0 0 192 144" version="1.1">
	<path d="M 9.500 0.765 C 8.950 1.169, 7.839 2.400, 7.030 3.500 C 5.945 4.977, 6.272 4.866, 8.280 3.076 C 10.728 0.894, 11.473 -0.029, 10.750 0.015 C 10.613 0.024, 10.050 0.361, 9.500 0.765 M 88.992 4.111 C 91.196 6.383, 93 8.637, 93 9.121 C 93 9.604, 93.947 10.947, 95.104 12.104 C 96.261 13.261, 97.298 14.723, 97.408 15.354 C 97.519 15.984, 98.410 18.013, 99.389 19.863 C 105.930 32.224, 105.399 52.908, 98.190 66.558 C 87.040 87.669, 85.352 93.512, 86.222 107.985 C 86.946 120.043, 93.063 134.115, 100.686 141.261 L 103.631 144.021 148.005 143.761 L 192.379 143.500 192.151 79 L 191.922 14.500 187.125 7.500 L 182.327 0.500 133.655 0.240 L 84.984 -0.019 88.992 4.111 M 2.263 8.769 C 1.033 10.271, 0.023 11.950, 0.018 12.500 C 0.009 13.621, 4.908 7.926, 4.964 6.750 C 5.020 5.576, 4.656 5.848, 2.263 8.769 M 47.643 28.038 C 44.324 29.021, 41 31.771, 41 33.533 C 41 34.205, 40.360 35.286, 39.578 35.935 C 35.408 39.396, 37.542 51.114, 43.059 55.042 C 48.147 58.665, 57.613 58.148, 62.135 54 C 65.250 51.143, 67.992 45.484, 67.951 42 C 67.831 31.872, 57.856 25.014, 47.643 28.038 M 133.299 90.960 C 127.613 94.426, 125.510 101.235, 128.405 106.800 C 133.087 115.798, 143.062 117.068, 150 109.548 C 153.275 105.999, 153.534 97.864, 150.500 93.863 C 146.763 88.935, 138.818 87.594, 133.299 90.960 M 1 138.362 L 1 144 5.035 144 C 9.639 144, 9.575 143.498, 4.095 136.612 L 1 132.725 1 138.362" stroke="none" fill="black" fill-rule="evenodd"/>
</svg>