<svg xmlns="http://www.w3.org/2000/svg" width="192" height="144" viewBox="0 0 192 144" version="1.1">
	<path d="M 115.297 2.750 C 116.038 4.263, 117.247 7.412, 117.982 9.750 C 118.718 12.088, 119.602 14, 119.948 14 C 120.965 14, 121.474 21.617, 121.384 35.513 C 121.303 48.046, 121.165 48.868, 117.641 57.778 C 115.629 62.867, 113.862 67.823, 113.714 68.793 C 113.566 69.762, 112.557 71.523, 111.472 72.706 C 108.120 76.361, 107 77.882, 107 78.777 C 107 79.251, 105.875 80.618, 104.500 81.813 C 103.125 83.009, 102 84.665, 102 85.493 C 102 86.322, 101.397 87, 100.661 87 C 99.924 87, 98.797 88.150, 98.156 89.556 C 97.516 90.962, 96.570 91.852, 96.056 91.534 C 95.541 91.216, 93.629 92.203, 91.807 93.728 C 87.986 96.925, 86.827 97.660, 78 102.491 C 74.425 104.448, 70.150 106.287, 68.500 106.579 C 66.850 106.871, 64.375 107.666, 63 108.346 C 61.554 109.061, 55.414 109.701, 48.441 109.864 C 38.813 110.090, 34.578 109.713, 27.441 107.993 C 18.048 105.730, 12.669 103.658, 9.750 101.177 C 8.787 100.359, 8 100.025, 8 100.434 C 8 100.843, 6.615 100.013, 4.923 98.589 C 3.231 97.165, 1.431 96, 0.923 96 C 0.385 96, 0 105.998, 0 120.005 L 0 144.010 96.250 143.755 L 192.500 143.500 192.143 92 C 191.836 47.781, 191.571 40.258, 190.271 38.787 C 188.708 37.019, 189.148 34, 190.969 34 C 191.637 34, 192 28.012, 192 17 L 192 0 152.974 -0 L 113.949 -0 115.297 2.750 M 0.432 120 C 0.432 133.475, 0.574 138.988, 0.747 132.250 C 0.920 125.513, 0.920 114.487, 0.747 107.750 C 0.574 101.013, 0.432 106.525, 0.432 120" stroke="none" fill="black" fill-rule="evenodd"/>
</svg>