<svg xmlns="http://www.w3.org/2000/svg" width="192" height="144" viewBox="0 0 192 144" version="1.1">
	<path d="M 92.429 4.377 C 93.237 9.766, 92.574 10.169, 81.631 10.943 L 73.761 11.500 73.377 15.809 C 73.002 20.022, 74.021 23.163, 76.598 25.741 C 77.924 27.066, 78.662 31.312, 79.298 41.265 C 79.649 46.742, 79.563 46.993, 77.583 46.297 C 71.792 44.261, 65.997 47.067, 66.004 51.905 C 66.008 54.718, 71.321 69.721, 72.858 71.258 C 73.447 71.847, 73.089 72.911, 71.900 74.100 C 68.892 77.108, 69.930 83.032, 73.896 85.497 C 76.046 86.832, 82 86.974, 82 85.689 C 82 85.127, 82.271 84.938, 82.603 85.270 C 82.935 85.602, 83.589 89.286, 84.057 93.457 C 84.525 97.628, 85.184 101.489, 85.523 102.037 C 87.140 104.653, 87.676 100.959, 87.479 88.558 C 87.361 81.126, 87.614 75.261, 88.042 75.526 C 88.469 75.790, 88.788 73.962, 88.751 71.462 C 88.713 68.963, 89.204 66.396, 89.841 65.759 C 90.478 65.122, 91 61.924, 91 58.654 C 91 53.578, 91.494 51.959, 94.369 47.604 C 96.221 44.797, 98.651 40.700, 99.769 38.500 C 100.886 36.300, 103.143 33.513, 104.784 32.306 C 108.027 29.921, 112.311 22.124, 111.605 19.889 C 111.364 19.125, 110.898 17.271, 110.569 15.768 C 110.211 14.130, 108.811 12.436, 107.074 11.538 C 105.200 10.569, 104.300 9.415, 104.525 8.270 C 104.717 7.297, 105.115 5.038, 105.412 3.250 L 105.950 0 98.861 0 L 91.773 0 92.429 4.377" stroke="none" fill="black" fill-rule="evenodd"/>
</svg>