<svg xmlns="http://www.w3.org/2000/svg" width="192" height="144" viewBox="0 0 192 144" version="1.1">
	<path d="M -0 8.855 L -0 17.735 4.912 18.706 C 8.803 19.476, 10.335 19.367, 12.286 18.183 C 15.361 16.318, 18 17.235, 18 20.169 C 18 21.904, 18.267 22.133, 19.200 21.200 C 19.860 20.540, 22.265 20, 24.545 20 C 28.921 20, 32 22.201, 32 25.329 C 32 26.248, 32.406 27, 32.902 27 C 34.434 27, 36.131 33.137, 34.982 34.521 C 33.495 36.313, 34.631 38.357, 38.281 40.459 C 40.052 41.478, 42.860 43.704, 44.523 45.406 C 46.185 47.108, 48.809 49.542, 50.355 50.815 C 52.282 52.402, 52.950 53.659, 52.484 54.815 C 49.297 62.703, 50.834 70.451, 63.608 110.909 C 64.374 113.334, 65 118.410, 65 122.190 C 65 127.834, 64.687 129.173, 63.250 129.680 C 62.288 130.020, 60.600 131.104, 59.500 132.088 C 58.221 133.233, 55.517 133.990, 52 134.189 L 46.500 134.500 46.195 139.250 L 45.890 144 64.308 144 L 82.725 144 83.366 138.542 C 84.011 133.054, 81.948 126, 79.698 126 C 79.186 126, 78.989 125.152, 79.260 124.115 C 79.625 122.717, 78.746 121.664, 75.859 120.041 C 73.359 118.636, 71.421 116.550, 70.444 114.213 C 69.608 112.211, 68.300 109.882, 67.537 109.037 C 66.774 108.191, 65.706 105.475, 65.162 103 C 64.619 100.525, 63.395 95.115, 62.444 90.978 C 60.833 83.977, 60.827 83.236, 62.356 80.278 C 63.260 78.530, 64 75.086, 64 72.626 C 64 69.328, 64.649 67.382, 66.472 65.216 C 69.781 61.284, 70.667 58.683, 71.506 50.451 C 71.895 46.628, 73.048 41.569, 74.068 39.210 C 76.420 33.771, 77.918 12.811, 76.111 10.634 C 75.463 9.853, 74.598 7.253, 74.189 4.857 L 73.445 0.500 36.723 0.238 L -0 -0.025 -0 8.855 M 0 81.570 L 0 144 14.899 144 L 29.799 144 30.230 139.250 C 30.467 136.637, 30.486 134.162, 30.272 133.750 C 30.057 133.338, 28.160 133, 26.056 133 C 23.075 133, 21.867 132.446, 20.587 130.493 C 19.142 128.287, 18.466 128.062, 14.972 128.620 L 11 129.256 11.030 124.878 C 11.062 120.285, 12.483 117.058, 23.488 96.576 C 29.410 85.555, 30.678 80.629, 29.366 73.750 C 28.557 69.511, 26.821 70.444, 27.506 74.750 C 28.078 78.340, 28.043 78.398, 26.694 76.115 C 24.907 73.090, 24.282 74.144, 23.621 81.304 C 22.990 88.135, 22.580 88.964, 20.144 88.327 C 18.801 87.976, 17.679 88.879, 16.069 91.607 C 14.330 94.554, 13.651 95.060, 12.939 93.936 C 11.610 91.836, 11.802 88.653, 13.389 86.483 C 16.118 82.750, 14.007 81.827, 9.999 85.001 C 5.784 88.339, 3.836 88.712, 2.023 86.528 C 1.097 85.412, 1.060 83.898, 1.872 80.278 C 2.461 77.650, 3.436 73.250, 4.040 70.500 C 4.643 67.750, 7.180 61.948, 9.678 57.606 C 13.989 50.114, 14.189 49.427, 13.612 44.106 C 12.214 31.191, 11.881 29.903, 10.089 30.472 C 9.158 30.767, 7.633 30.445, 6.702 29.755 C 5.159 28.611, 5.144 28.241, 6.533 25.579 C 8.262 22.269, 7.704 21.349, 3.183 20.052 L 0 19.140 0 81.570 M 35.711 64.622 C 34.686 65.648, 34.834 72, 35.883 72 C 36.369 72, 37.014 71.056, 37.315 69.903 C 37.950 67.476, 36.764 63.570, 35.711 64.622 M 36.647 137.750 C 36.378 138.713, 35.868 140.512, 35.512 141.750 C 34.941 143.735, 35.227 144, 37.933 144 C 40.845 144, 41 143.797, 41 140 C 41 136.713, 40.655 136, 39.067 136 C 38.004 136, 36.915 136.787, 36.647 137.750" stroke="none" fill="black" fill-rule="evenodd"/>
</svg>