<svg xmlns="http://www.w3.org/2000/svg" width="192" height="144" viewBox="0 0 192 144" version="1.1">
	<path d="M 95.174 55.314 C 92.682 57.968, 92.374 62.277, 94.401 66.161 C 95.660 68.575, 95.613 68.868, 93.895 69.317 C 91.875 69.845, 91.830 70.154, 91.957 82.500 C 91.997 86.350, 92.009 90.820, 91.985 92.432 C 91.960 94.045, 89.617 100.087, 86.777 105.858 C 79.522 120.603, 79.940 123.950, 89.754 129.702 C 94.233 132.327, 95.665 135.213, 94.598 139.465 C 94.213 140.998, 93.466 141.732, 92.619 141.407 C 91.870 141.120, 90.989 141.586, 90.660 142.443 C 90.134 143.815, 92.049 143.996, 106.781 143.968 C 121.971 143.939, 123.317 143.797, 121.500 142.412 C 120.152 141.386, 118.414 141.089, 116.172 141.504 C 113.374 142.022, 112.758 141.792, 112.305 140.060 C 111.723 137.834, 109.064 137.201, 108.900 139.250 C 108.740 141.261, 107.209 135.761, 107.100 132.781 C 107.034 130.994, 107.428 130.224, 108.250 130.533 C 110.255 131.288, 115.954 127.246, 117.112 124.250 C 118.466 120.743, 117.621 114.395, 115.062 108.842 C 110.806 99.608, 107.900 90.971, 108.644 89.767 C 109.070 89.078, 109.436 84.569, 109.459 79.746 C 109.496 72.118, 109.264 70.901, 107.678 70.398 C 106.415 69.997, 106.083 69.310, 106.598 68.160 C 107.006 67.247, 107.537 64.555, 107.777 62.178 C 108.129 58.683, 107.776 57.391, 105.932 55.428 C 102.934 52.236, 98.114 52.185, 95.174 55.314 M 100.015 134.691 C 100.024 135.686, 100.467 137.175, 101 138 C 101.758 139.173, 101.973 138.914, 101.985 136.809 C 101.993 135.329, 101.550 133.840, 101 133.500 C 100.450 133.160, 100.007 133.696, 100.015 134.691 M 113.500 140 C 113.840 140.550, 114.316 141, 114.559 141 C 114.802 141, 115 140.550, 115 140 C 115 139.450, 114.523 139, 113.941 139 C 113.359 139, 113.160 139.450, 113.500 140" stroke="none" fill="black" fill-rule="evenodd"/>
</svg>