<svg xmlns="http://www.w3.org/2000/svg" width="192" height="144" viewBox="0 0 192 144" version="1.1">
	<path d="M -0 72.005 L -0 144.010 96.250 143.755 L 192.500 143.500 192.757 71.750 L 193.013 0 96.507 0 L 0 0 -0 72.005 M 0.474 72.500 C 0.474 112.100, 0.598 128.154, 0.750 108.176 C 0.901 88.198, 0.901 55.798, 0.750 36.176 C 0.598 16.554, 0.474 32.900, 0.474 72.500 M 117.547 27.654 L 113.998 31.309 111.749 28.691 C 110.102 26.775, 109.097 26.323, 108 27.006 C 106.763 27.775, 106.720 28.293, 107.750 29.956 C 109.373 32.575, 109.327 33, 107.417 33 C 104.337 33, 106.703 35.519, 111.072 36.891 C 116.591 38.625, 116.571 38.607, 114.925 40.590 C 113.754 42.002, 113.861 42.469, 115.702 43.960 C 116.878 44.912, 118.340 47.550, 118.952 49.822 C 119.912 53.386, 119.787 54.496, 118.046 57.911 C 115.394 63.107, 112.726 64.873, 108.177 64.440 C 88.459 62.564, 77.824 61.843, 77.319 62.347 C 76.239 63.427, 79.184 66, 81.500 66 C 82.740 66, 84.269 66.619, 84.896 67.375 C 85.659 68.294, 87.441 68.604, 90.269 68.309 C 92.596 68.066, 96.665 68.537, 99.312 69.355 C 103.453 70.634, 104.200 70.643, 104.669 69.421 C 105.023 68.497, 106.722 68, 109.525 68 C 114.787 68, 117 68.771, 117 70.604 C 117 71.669, 118.653 71.968, 124.089 71.885 C 131.740 71.769, 132.654 72.183, 133.165 76 C 133.421 77.911, 134.089 78.500, 136 78.500 C 138.304 78.500, 138.485 78.167, 138.311 74.250 C 138.140 70.421, 138.350 70, 140.434 70 C 141.705 70, 144.715 70.865, 147.123 71.923 C 149.530 72.981, 155.016 74.330, 159.313 74.922 C 163.611 75.513, 167.969 76.448, 168.998 76.999 C 171.945 78.576, 175.944 78.176, 179.005 75.997 C 180.552 74.895, 182.494 74.252, 183.319 74.569 C 185.086 75.247, 185.978 72.965, 185.809 68.199 C 185.713 65.466, 185.132 64.664, 182.427 63.534 C 180.631 62.783, 178.659 61.231, 178.045 60.085 C 177.095 58.309, 175.992 58, 170.601 58 C 167.121 58, 161.995 58.432, 159.210 58.960 C 155.204 59.720, 153.506 59.600, 151.074 58.387 C 147.040 56.374, 147.184 55.756, 151.500 56.566 C 153.794 56.996, 155 56.840, 155 56.111 C 155 55.496, 153.326 54.994, 151.250 54.986 C 145.199 54.964, 143 54.034, 143 51.498 C 143 50.178, 141.948 48.541, 140.484 47.581 C 138.068 45.999, 137.872 46.035, 135.598 48.489 L 133.228 51.046 132.618 48.616 C 132.283 47.279, 131.764 45.547, 131.464 44.767 C 131.022 43.616, 131.822 43.462, 135.710 43.950 C 144.929 45.109, 145.927 43.776, 140.468 37.594 C 138.010 34.811, 135.938 33.514, 133.259 33.081 C 130.324 32.606, 129.428 31.970, 129.173 30.177 C 128.869 28.048, 129.107 27.929, 132.423 28.551 C 134.390 28.921, 136 28.984, 136 28.693 C 136 27.134, 128.775 24, 125.180 24 C 121.794 24, 120.490 24.624, 117.547 27.654 M 121.250 58.956 C 117.940 64.752, 118.511 66.044, 122.396 61.549 C 124.263 59.388, 125.565 57.030, 125.289 56.310 C 124.483 54.212, 123.646 54.761, 121.250 58.956" stroke="none" fill="black" fill-rule="evenodd"/>
</svg>