<svg xmlns="http://www.w3.org/2000/svg" width="192" height="144" viewBox="0 0 192 144" version="1.1">
	<path d="M 45 0.971 C 45 1.506, 46.075 4.373, 47.388 7.343 C 49.779 12.749, 51.938 15.269, 52.070 12.809 C 52.109 12.089, 52.527 12.400, 53 13.500 C 54.314 16.559, 54.193 26.769, 52.837 27.221 C 52.059 27.480, 51.559 31.882, 51.326 40.554 C 51.134 47.674, 50.768 54.737, 50.513 56.250 C 50.182 58.217, 50.470 59, 51.525 59 C 52.713 59, 53 60.704, 52.998 67.750 C 52.996 76.288, 52.873 76.742, 47.916 86.500 C 45.122 92, 41.973 97.429, 40.918 98.564 C 39.863 99.700, 39 101.318, 39 102.159 C 39 103.001, 38.154 104.456, 37.120 105.392 C 36.086 106.327, 32.658 112.360, 29.502 118.797 C 26.346 125.233, 23.161 131.662, 22.425 133.082 C 21.688 134.502, 20.664 137.539, 20.149 139.832 L 19.213 144 105.356 144 L 191.500 144 191.798 129.394 L 192.097 114.788 185.545 115.240 L 178.993 115.692 176.883 108.607 C 175.722 104.710, 173.967 96.965, 172.981 91.395 C 170.857 79.388, 169.636 76.762, 163.573 71.174 L 158.993 66.952 157.423 51.883 C 156.559 43.595, 156.055 36.611, 156.303 36.364 C 156.551 36.116, 157.948 38.745, 159.409 42.207 L 162.064 48.500 161.627 43.500 C 161.386 40.750, 160.026 31.975, 158.603 24 C 157.181 16.025, 156.013 8.995, 156.008 8.378 C 156.003 7.713, 157.666 7.300, 160.091 7.364 C 164.427 7.477, 167 5.408, 167 1.809 C 167 0.083, 164.185 0, 106 0 C 67.194 0, 45 0.353, 45 0.971 M 65.618 39.129 C 63.724 57.410, 64.889 61.187, 68.331 47.923 C 70.259 40.494, 70.258 40.473, 68.218 37.119 L 66.174 33.757 65.618 39.129 M 61 62.083 C 61 64.520, 63.337 64.176, 63.823 61.667 C 64.015 60.680, 63.505 60, 62.573 60 C 61.646 60, 61 60.855, 61 62.083" stroke="none" fill="black" fill-rule="evenodd"/>
</svg>