<svg xmlns="http://www.w3.org/2000/svg" width="192" height="144" viewBox="0 0 192 144" version="1.1">
	<path d="M 2.250 70.639 C 0.383 71.054, 0 71.808, 0 75.070 L 0 79 90.750 78.900 C 140.662 78.845, 182.625 78.440, 184 78 C 186.139 77.315, 185.850 77.159, 182 76.923 C 178.226 76.691, 178.629 76.554, 184.500 76.073 C 190.145 75.611, 191.632 75.790, 192.180 77 C 192.554 77.825, 192.884 76.475, 192.914 74 C 192.950 71.054, 192.667 69.978, 192.093 70.884 C 191.358 72.045, 183.750 72.166, 144.858 71.635 C 64.692 70.540, 4.584 70.120, 2.250 70.639 M 0.272 75 C 0.272 77.475, 0.467 78.487, 0.706 77.250 C 0.944 76.013, 0.944 73.987, 0.706 72.750 C 0.467 71.513, 0.272 72.525, 0.272 75" stroke="none" fill="black" fill-rule="evenodd"/>
</svg>