<svg xmlns="http://www.w3.org/2000/svg" width="192" height="144" viewBox="0 0 192 144" version="1.1">
	<path d="M 119.250 5.541 C 115.631 7.732, 115 8.602, 115 11.407 C 115 14.264, 114.358 15.100, 110.159 17.710 C 104.873 20.997, 100 28.919, 100 34.228 C 100 38.450, 102.382 43.365, 105.380 45.330 C 107.621 46.798, 107.865 47.384, 106.948 49.098 C 106.137 50.612, 106.187 51.520, 107.142 52.671 C 108.425 54.218, 109.919 56.633, 112.078 60.656 C 113.516 63.334, 117.620 64.237, 119.556 62.301 C 120.815 61.043, 121 61.238, 121 63.825 C 121 66.931, 116.323 71.984, 111.353 74.249 C 110.032 74.851, 108.697 76.358, 108.386 77.598 C 108.075 78.838, 106.961 80.631, 105.910 81.581 C 104.780 82.604, 104 84.631, 104 86.546 C 104 88.325, 103.110 91.743, 102.022 94.141 C 100.934 96.538, 100.034 99.513, 100.022 100.750 C 99.989 104.112, 98.836 103.480, 95.421 98.232 C 92.275 93.395, 89.478 84.654, 90.532 82.949 C 90.854 82.427, 92.329 81.995, 93.809 81.989 C 98.400 81.970, 104 80.782, 104 79.827 C 104 79.307, 100.893 79.180, 96.750 79.531 C 90.647 80.048, 88.893 79.828, 85.661 78.135 C 82.445 76.451, 81.389 76.315, 79.161 77.300 C 77.697 77.947, 76.034 79.073, 75.465 79.804 C 74.896 80.535, 72.602 81.378, 70.369 81.677 C 66.381 82.212, 66.253 82.132, 63.221 77.205 C 59.890 71.791, 55.369 69.619, 52.459 72.034 C 50.328 73.803, 50.598 74.837, 55.010 81.790 C 57.204 85.250, 59 88.941, 59 89.993 C 59 91.045, 59.412 92.940, 59.916 94.203 C 60.420 95.466, 61.390 98.678, 62.072 101.341 C 62.756 104.013, 64.025 106.433, 64.905 106.742 C 71.375 109.013, 81.102 114.314, 82.830 116.511 C 83.976 117.968, 87.971 121.447, 91.707 124.242 C 95.443 127.036, 98.685 129.472, 98.911 129.655 C 99.136 129.838, 98.574 130.813, 97.661 131.823 C 95.879 133.791, 95.635 135.925, 96.625 140.875 L 97.250 144 122.625 144 C 142.550 144, 148 143.726, 148 142.723 C 148 141.220, 145.280 137.133, 142.860 135 C 141.071 133.422, 139 121.026, 139 111.891 C 139 108.379, 138.533 106.830, 137.250 106.090 C 135.990 105.364, 136.970 105.249, 140.750 105.680 C 144.362 106.092, 146 105.923, 146 105.139 C 146 104.513, 147.125 104, 148.500 104 C 149.875 104, 151 103.550, 151 103 C 151 102.450, 152.152 102, 153.559 102 C 154.966 102, 155.938 101.662, 155.718 101.250 C 155.497 100.838, 156.154 99.704, 157.177 98.732 C 158.961 97.036, 159.072 97.058, 159.918 99.283 C 160.402 100.558, 160.593 103.829, 160.341 106.551 C 159.981 110.438, 160.120 111.125, 160.991 109.750 C 162.984 106.603, 163.497 107.896, 163.728 116.655 C 163.966 125.642, 164.469 127.453, 166.039 124.971 C 166.706 123.916, 166.974 124.605, 166.985 127.405 L 167 131.310 169.136 129.405 C 171.272 127.500, 171.272 127.500, 170.835 130.574 C 170.582 132.353, 170.951 134.165, 171.712 134.875 C 173.217 136.282, 175 135.536, 175 133.500 C 175 132.740, 175.498 131.810, 176.107 131.434 C 176.824 130.991, 177.020 131.410, 176.664 132.625 C 176.361 133.656, 175.809 136.657, 175.437 139.292 L 174.760 144.085 183.130 143.792 L 191.500 143.500 191.763 110.362 L 192.027 77.224 184.722 72.671 C 177.698 68.293, 168.298 59.475, 164.583 53.779 L 162.809 51.059 158.957 56.827 C 156.838 59.999, 154.259 63.360, 153.226 64.295 C 151.401 65.947, 151.377 65.852, 152.375 60.977 C 153.123 57.328, 153.076 54.732, 152.202 51.465 C 151.541 48.993, 150.980 43.940, 150.956 40.236 C 150.932 36.531, 150.341 31.904, 149.644 29.953 C 147.635 24.335, 142.209 17.157, 137.930 14.456 C 135.583 12.975, 134 11.202, 134 10.056 C 134 7.921, 129.695 4.447, 125.939 3.551 C 124.300 3.159, 122.106 3.812, 119.250 5.541 M 147.753 65.760 C 147.495 67.267, 146.918 69.400, 146.472 70.500 C 145.672 72.473, 145.690 72.474, 147.830 70.595 C 150.015 68.677, 150.761 64.588, 149.112 63.569 C 148.624 63.267, 148.012 64.253, 147.753 65.760 M 141.623 70.823 C 140.839 73.087, 140.767 73.100, 138.757 71.323 C 136.712 69.515, 136.700 69.529, 137.358 72.927 C 138.238 77.476, 138.684 77.761, 141.115 75.329 C 142.380 74.065, 143.030 72.350, 142.800 70.885 L 142.426 68.500 141.623 70.823 M 68 84.659 C 68 86.071, 76.208 96.093, 79.120 98.236 C 80.811 99.481, 82.838 101.737, 83.623 103.250 C 86.337 108.475, 86.881 105.982, 84.278 100.250 C 81.171 93.410, 77.272 88, 75.449 88 C 74.726 88, 73.849 87.100, 73.500 86 C 73.094 84.722, 71.987 84, 70.433 84 C 69.095 84, 68 84.297, 68 84.659 M 134.540 116.185 C 134.068 118.539, 134.289 121.248, 135.151 123.685 L 136.500 127.500 136.803 123.344 C 136.970 121.058, 136.694 117.683, 136.192 115.844 L 135.277 112.500 134.540 116.185" stroke="none" fill="black" fill-rule="evenodd"/>
</svg>