<svg xmlns="http://www.w3.org/2000/svg" width="192" height="144" viewBox="0 0 192 144" version="1.1">
	<path d="M 0 72.012 L 0 144 2.832 144 C 5.233 144, 5.840 143.429, 6.817 140.250 C 7.553 137.857, 7.613 136.379, 6.985 136.167 C 5.389 135.627, 5.858 130.815, 7.704 128.774 C 8.913 127.438, 9.372 125.311, 9.281 121.452 C 9.189 117.519, 9.576 115.777, 10.679 115.160 C 11.517 114.691, 12.989 112.100, 13.949 109.403 C 14.909 106.706, 16.004 103.797, 16.382 102.938 C 16.854 101.865, 16.258 100.941, 14.481 99.990 C 12.064 98.697, 11.738 98.795, 9.611 101.463 C 7.041 104.686, 5 104.211, 5 100.389 C 5 98.523, 5.748 97.635, 7.973 96.860 C 9.608 96.289, 11.821 94.400, 12.889 92.662 C 15.341 88.672, 18 78.485, 18 73.081 C 18 69.632, 17.601 68.799, 15.580 68.030 L 13.159 67.110 15.080 63.344 C 17.486 58.624, 17.475 57.851, 14.931 52.864 C 11.818 46.763, 12.065 36.271, 15.456 30.484 C 20.038 22.666, 29.819 17.663, 42.757 16.520 C 50.630 15.825, 51.041 15.667, 51.591 13.145 C 52.852 7.354, 53.006 7.319, 57.075 11.868 C 59.224 14.271, 62.941 17.479, 65.334 18.997 C 71.226 22.733, 74.103 27.716, 76.412 38.180 C 77.267 42.057, 79.658 44, 83.571 44 C 87.593 44, 88.069 45.825, 85.050 49.663 C 83.978 51.026, 82.369 54.659, 81.474 57.737 C 80.513 61.043, 78.869 64.102, 77.456 65.213 C 74.884 67.236, 74.757 69.554, 76.540 81.933 L 77.322 87.365 74.181 85.129 L 71.040 82.892 66.682 85.446 C 64.285 86.851, 61.576 88, 60.662 88 C 59.748 88, 59 88.386, 59 88.858 C 59 89.330, 62.937 90.708, 67.750 91.922 C 80.524 95.142, 81.323 95.666, 82.500 101.601 L 83.500 106.642 87.607 104.846 C 98.198 100.213, 111.083 98.811, 122.201 101.083 C 130.288 102.735, 143.013 109.416, 149.840 115.593 C 156.659 121.764, 165.331 134.035, 167.140 140.072 L 168.334 144.059 180.417 143.779 L 192.500 143.500 192.757 71.748 L 193.013 -0.004 96.507 0.010 L 0 0.024 0 72.012 M 0.474 72.500 C 0.474 112.100, 0.598 128.154, 0.750 108.176 C 0.901 88.198, 0.901 55.798, 0.750 36.176 C 0.598 16.554, 0.474 32.900, 0.474 72.500 M 132.861 70.980 C 130.848 72.668, 130.721 73.106, 132 73.957 C 134.518 75.632, 140 73.179, 140 70.378 C 140 68.327, 135.580 68.699, 132.861 70.980 M 71.607 138.582 C 70.671 141.020, 70.888 144, 72 144 C 72.550 144, 73.006 143.438, 73.014 142.750 C 73.021 142.063, 73.299 140.488, 73.630 139.250 C 74.310 136.712, 72.548 136.130, 71.607 138.582" stroke="none" fill="black" fill-rule="evenodd"/>
</svg>