<svg xmlns="http://www.w3.org/2000/svg" width="192" height="144" viewBox="0 0 192 144" version="1.1">
	<path d="M 112.859 10.823 C 109.649 12.425, 109.499 12.751, 109.467 18.143 C 109.436 23.632, 109.313 23.880, 104.993 27.175 C 98.618 32.038, 95.142 37.475, 94.027 44.327 C 93.471 47.749, 93.446 50.845, 93.967 51.827 C 94.455 52.747, 95.097 54.285, 95.393 55.244 C 95.981 57.144, 101.916 61.170, 103.075 60.454 C 104.420 59.623, 104.970 63.075, 103.793 64.960 C 102.789 66.567, 103.156 67.395, 106.309 70.642 C 109.096 73.511, 110.016 75.306, 110.064 77.971 C 110.100 79.912, 110.713 84.200, 111.427 87.500 C 113.213 95.749, 111.854 99.372, 106.948 99.447 C 103.655 99.498, 103.486 99.680, 103.183 103.500 C 102.977 106.095, 101.981 108.428, 100.348 110.143 L 97.831 112.785 91.666 110.366 C 88.275 109.036, 83.718 107.467, 81.541 106.879 C 76.769 105.591, 75.074 103.591, 75.032 99.200 C 75.014 97.386, 74.336 94.617, 73.525 93.049 C 72.249 90.580, 71.374 90.150, 67.024 89.848 C 64.260 89.657, 61.886 89.757, 61.749 90.070 C 61.612 90.384, 59.721 91.509, 57.546 92.570 C 54.740 93.939, 53.368 95.366, 52.821 97.480 C 50.649 105.876, 56.471 115.348, 64.548 116.560 L 68.956 117.220 68.407 124.860 C 68.105 129.062, 67.440 134.660, 66.929 137.299 C 66.418 139.939, 66 142.526, 66 143.049 C 66 143.636, 83.588 144, 112 144 C 142.111 144, 158 143.653, 158 142.996 C 158 142.444, 157.100 140.314, 156 138.261 C 152.646 132.003, 153.498 128.997, 159 127.675 C 160.375 127.345, 162.066 126.158, 162.758 125.037 C 163.890 123.205, 163.777 123, 161.631 123 C 160.318 123, 157.604 123.685, 155.600 124.523 C 152.730 125.722, 151.873 125.775, 151.573 124.773 C 150.311 120.571, 147.030 100.637, 147.519 100.147 C 148.075 99.591, 149.509 101.290, 150.347 103.500 C 150.555 104.050, 151.049 104.201, 151.444 103.836 C 151.839 103.470, 151.676 102.262, 151.081 101.151 C 150.486 100.040, 150.030 96.514, 150.068 93.316 C 150.125 88.392, 150.302 87.845, 151.220 89.750 C 151.817 90.987, 152.717 92, 153.220 92 C 153.723 92, 153.856 90.987, 153.516 89.750 C 152.966 87.753, 153.043 87.687, 154.198 89.163 C 154.914 90.078, 156 91.653, 156.612 92.663 C 157.530 94.180, 157.642 93.890, 157.254 91 C 156.816 87.727, 156.882 87.626, 158.277 89.452 C 159.613 91.200, 159.721 89.739, 159.314 75.452 C 158.812 57.854, 156.918 44.878, 153.847 38 C 152.741 35.525, 151.661 32.192, 151.446 30.594 C 150.962 26.991, 146.676 20.673, 143.147 18.360 C 141.359 17.188, 138.389 16.602, 133.994 16.555 C 128.292 16.495, 126.994 16.102, 123.494 13.376 C 118.109 9.184, 116.781 8.865, 112.859 10.823 M 119 79.714 C 119 83.122, 119.132 83.296, 120.603 81.826 C 121.626 80.802, 121.963 79.460, 121.535 78.112 C 120.465 74.740, 119 75.667, 119 79.714" stroke="none" fill="black" fill-rule="evenodd"/>
</svg>