<svg xmlns="http://www.w3.org/2000/svg" width="192" height="144" viewBox="0 0 192 144" version="1.1">
	<path d="M 183.651 9.624 C 181.959 10.541, 179.787 10.912, 178.301 10.539 C 176.925 10.194, 174.269 10.416, 172.399 11.033 C 169.336 12.044, 168.532 13.003, 168.876 15.234 C 168.939 15.638, 166.725 17.660, 163.957 19.726 C 157.699 24.398, 157.762 26.403, 164.281 29.982 C 166.910 31.426, 170.261 33.806, 171.727 35.272 L 174.391 37.937 168.757 40.429 C 164.292 42.403, 162.120 42.802, 158.289 42.348 C 153.292 41.756, 137.516 44.383, 135.314 46.174 C 134.541 46.803, 133.358 46.727, 131.918 45.956 C 130.512 45.204, 127.851 45.014, 124.604 45.433 C 117.612 46.337, 117.053 46.321, 112.500 45.092 C 110.300 44.498, 105.350 43.764, 101.500 43.461 C 84.544 42.127, 77.632 40.123, 75.453 35.909 C 73.893 32.893, 69.389 30, 66.253 30 C 63.782 30, 57.549 23.405, 55.655 18.786 C 54.106 15.008, 50.674 13.144, 47.507 14.359 C 46.683 14.675, 43.504 14.471, 40.442 13.905 C 32.102 12.363, 31.740 13.296, 39.282 16.896 C 44.265 19.274, 47.105 21.457, 50.027 25.154 C 52.212 27.918, 54 30.745, 54 31.436 C 54 32.128, 55.463 34.247, 57.250 36.146 C 59.038 38.045, 61.437 40.702, 62.582 42.050 C 63.728 43.397, 66.428 46.139, 68.582 48.143 C 70.737 50.147, 73.080 52.509, 73.789 53.393 C 74.499 54.277, 76.136 55, 77.429 55 C 81.012 55, 83.608 57.855, 86.522 65 C 87.981 68.575, 90.195 73.300, 91.443 75.500 C 93.834 79.715, 95.162 90.877, 96.597 118.825 L 97.230 131.150 94.577 133.919 C 93.119 135.442, 91.658 138.333, 91.332 140.344 L 90.738 144 126.799 144 L 162.860 144 162.037 141.250 C 161.584 139.737, 160.670 137.150, 160.006 135.500 C 158.366 131.426, 159.566 102.489, 161.681 95.105 C 162.577 91.978, 163.030 87.668, 162.760 84.855 C 162.447 81.592, 162.721 79.647, 163.597 78.920 C 164.314 78.325, 165.762 75.962, 166.816 73.669 C 172.761 60.733, 174 57.853, 174 56.973 C 174 56.438, 174.694 56, 175.542 56 C 176.390 56, 177.628 55.519, 178.292 54.931 C 178.956 54.343, 182.200 52.386, 185.500 50.582 L 191.500 47.302 191.771 28.273 L 192.042 9.244 189.771 8.636 C 186.829 7.847, 186.972 7.824, 183.651 9.624" stroke="none" fill="black" fill-rule="evenodd"/>
</svg>