<svg xmlns="http://www.w3.org/2000/svg" width="192" height="144" viewBox="0 0 192 144" version="1.1">
	<path d="M 0 72 L 0 144 34.889 144 L 69.777 144 70.452 140.250 C 70.824 138.188, 72.942 131.085, 75.160 124.466 C 78.826 113.529, 79.092 112.056, 78.084 108.313 C 77.170 104.919, 76.625 104.285, 74.988 104.714 C 73.435 105.120, 72.977 104.716, 72.894 102.867 C 72.616 96.682, 72.536 96.495, 70.304 96.804 C 69.095 96.971, 65.668 95.992, 62.686 94.628 C 59.705 93.264, 55.455 91.661, 53.242 91.065 C 50.981 90.456, 48.545 88.955, 47.683 87.639 C 46.519 85.862, 44.891 85.147, 40.947 84.680 C 35.501 84.035, 28.335 80.943, 28.730 79.409 C 28.857 78.917, 30.432 78.406, 32.230 78.275 C 34.029 78.144, 36.517 77.793, 37.759 77.497 C 39.824 77.004, 39.899 76.765, 38.630 74.729 C 37.866 73.503, 36.430 70.250, 35.438 67.500 C 34.447 64.750, 33.043 61.612, 32.318 60.527 C 31.593 59.443, 31.029 57.193, 31.063 55.527 C 31.119 52.853, 31.226 52.746, 31.980 54.611 C 33.662 58.773, 35.703 58.181, 36.367 53.338 C 37.256 46.855, 39.641 43.209, 42.620 43.778 C 44.333 44.106, 45 43.780, 45 42.617 C 45 40.583, 46.595 40.503, 47.361 42.499 C 48.389 45.176, 50.168 65.362, 49.829 70.500 C 49.525 75.116, 49.289 75.524, 46.750 75.816 C 45.238 75.990, 44 76.445, 44 76.826 C 44 78.325, 48.010 79.904, 50.890 79.539 C 52.927 79.281, 55.758 80.144, 59.467 82.154 C 64.592 84.929, 65.051 85.017, 65.634 83.326 C 65.980 82.322, 67.779 78.068, 69.632 73.874 C 71.484 69.680, 73 65.440, 73 64.453 C 73 63.465, 73.663 61.925, 74.473 61.029 C 75.307 60.108, 76.592 54.805, 77.432 48.820 C 78.983 37.773, 81.694 29.100, 84.602 25.888 C 86.250 24.066, 86.164 24, 82.124 24 C 76.819 24, 76.223 22.547, 78.973 16.323 C 82.993 7.223, 83.279 6.987, 88.206 8.675 C 90.568 9.484, 94.525 11.722, 97 13.649 C 101.875 17.444, 102.662 17.504, 113.779 14.941 C 116.682 14.271, 119.357 14.023, 119.723 14.390 C 120.089 14.756, 119.757 17.855, 118.985 21.278 C 118.213 24.700, 117.699 30.315, 117.843 33.756 C 118.114 40.205, 115.990 46, 113.356 46 C 111.078 46, 109 49.139, 109 52.580 C 109 55.159, 110.586 58.340, 115.353 65.322 L 121.706 74.627 121.706 81.833 C 121.706 85.796, 121.979 89.313, 122.313 89.647 C 123.204 90.537, 130.885 91.901, 135.500 91.988 C 137.700 92.030, 140.337 92.697, 141.359 93.472 C 142.650 94.449, 144.688 94.706, 148.025 94.311 C 153.308 93.685, 158 94.489, 158 96.019 C 158 96.559, 156.800 97, 155.333 97 C 153.867 97, 153.003 97.336, 153.413 97.746 C 153.824 98.157, 156.229 98.511, 158.758 98.532 C 161.288 98.554, 163.525 99.074, 163.729 99.687 C 164.196 101.087, 150.929 103.436, 146.998 102.650 C 145.450 102.340, 142.888 102.458, 141.304 102.913 C 139.382 103.464, 135.943 103.143, 130.962 101.948 C 126.858 100.963, 121.811 99.876, 119.746 99.532 C 116.529 98.997, 115.641 98.234, 113.542 94.204 L 111.093 89.500 111.047 93.550 C 111.021 95.778, 110.531 98.069, 109.958 98.642 C 109.234 99.366, 109.357 100.051, 110.357 100.881 C 111.331 101.689, 111.640 103.284, 111.311 105.789 C 110.933 108.660, 111.958 112.336, 115.843 122.035 C 118.604 128.929, 121.399 136.698, 122.053 139.298 L 123.244 144.026 157.872 143.763 L 192.500 143.500 192.757 71.750 L 193.013 0 96.507 0 L 0 0 0 72 M 0.474 72.500 C 0.474 112.100, 0.598 128.154, 0.750 108.176 C 0.901 88.198, 0.901 55.798, 0.750 36.176 C 0.598 16.554, 0.474 32.900, 0.474 72.500 M 151.170 75.827 C 149.650 76.044, 148.487 77.174, 147.822 79.080 C 147.262 80.686, 146.173 82, 145.402 82 C 143.345 82, 143.690 83.633, 146.250 86.018 C 147.488 87.171, 148.556 88.539, 148.625 89.057 C 148.694 89.576, 148.806 90.450, 148.875 91 C 149.033 92.263, 153.566 92.303, 155.885 91.061 C 156.850 90.545, 158.242 88.297, 158.978 86.066 C 160.303 82.053, 160.281 81.975, 156.908 78.752 C 154.620 76.565, 152.734 75.604, 151.170 75.827" stroke="none" fill="black" fill-rule="evenodd"/>
</svg>