<svg xmlns="http://www.w3.org/2000/svg" width="192" height="144" viewBox="0 0 192 144" version="1.1">
	<path d="M 0 72 L 0 144 35.479 144 L 70.957 144 69.818 141.500 C 68.946 139.585, 68.979 138.356, 69.960 136.250 C 70.665 134.738, 71.380 131.700, 71.549 129.500 C 71.717 127.300, 73.474 121, 75.451 115.500 C 77.429 110, 79.279 103.025, 79.563 100 C 79.847 96.975, 80.272 93.938, 80.508 93.250 C 80.744 92.562, 80.674 91.314, 80.352 90.474 C 79.913 89.330, 79.435 89.224, 78.438 90.051 C 76.109 91.984, 72.533 90.780, 72.203 87.952 C 71.870 85.096, 65.996 81.279, 62.773 81.825 C 61.732 82.002, 60.345 81.715, 59.690 81.188 C 58.966 80.605, 56.162 80.555, 52.527 81.059 C 49.242 81.515, 46.486 81.801, 46.402 81.694 C 46.317 81.587, 45.916 80.419, 45.509 79.099 C 44.917 77.176, 45.077 76.816, 46.315 77.290 C 48.004 77.939, 59 72.421, 59 70.925 C 59 69.886, 66.308 69.641, 67.313 70.646 C 67.668 71.001, 69.333 71.400, 71.013 71.532 C 73.447 71.724, 74.350 71.223, 75.467 69.064 C 77.342 65.437, 79.621 63.577, 80.482 64.970 C 80.845 65.558, 82.873 65.917, 84.989 65.769 C 88.533 65.521, 88.868 65.238, 89.225 62.189 C 89.438 60.368, 89.250 58.654, 88.806 58.380 C 88.363 58.106, 88 56.109, 88 53.941 C 88 51.773, 87.586 50, 87.079 50 C 84.995 50, 84.953 44.192, 87.001 38.997 C 88.152 36.077, 88.867 33.096, 88.590 32.373 C 87.900 30.576, 90.909 27.751, 92.756 28.460 C 93.579 28.776, 94.850 28.540, 95.579 27.935 C 97.042 26.720, 101 27.573, 101 29.103 C 101 29.699, 101.751 29.668, 102.958 29.022 C 104.544 28.174, 105.125 28.366, 106.019 30.035 C 106.747 31.397, 107.735 31.901, 108.929 31.522 C 111.012 30.861, 114 34.675, 114 37.996 C 114 39.133, 114.587 40.288, 115.304 40.563 C 117.684 41.476, 115.935 61, 113.474 61 C 112.737 61, 111.849 61.900, 111.500 63 C 110.837 65.088, 109 65.779, 109 63.941 C 109 63.359, 108.567 63.149, 108.038 63.476 C 107.428 63.854, 107.454 65.063, 108.110 66.785 C 108.942 68.973, 108.417 72.276, 105.404 83.797 C 101.111 100.219, 100.724 98.784, 111.079 104.845 C 117.164 108.407, 117.494 108.793, 117.392 112.228 C 117.319 114.701, 116.249 117.161, 114.022 119.972 C 111.113 123.645, 110.832 124.548, 111.428 128.296 C 111.796 130.608, 113.088 135.086, 114.298 138.246 L 116.500 143.991 154.500 143.746 L 192.500 143.500 192.757 71.750 L 193.013 0 96.507 0 L 0 0 0 72 M 0.474 72.500 C 0.474 112.100, 0.598 128.154, 0.750 108.176 C 0.901 88.198, 0.901 55.798, 0.750 36.176 C 0.598 16.554, 0.474 32.900, 0.474 72.500 M 90.844 59.628 C 90.277 62.794, 90.591 65.995, 91.466 65.968 C 93.264 65.913, 95.884 63.424, 95.178 62.442 C 93.874 60.630, 90.999 58.763, 90.844 59.628" stroke="none" fill="black" fill-rule="evenodd"/>
</svg>