<svg xmlns="http://www.w3.org/2000/svg" width="192" height="144" viewBox="0 0 192 144" version="1.1">
	<path d="M 113.574 5.128 C 110.864 5.544, 107.395 6.811, 105.864 7.942 C 104.333 9.074, 101.908 10, 100.475 10 C 99.041 10, 96.950 10.492, 95.827 11.093 C 94.350 11.883, 93.483 11.883, 92.693 11.093 C 89.920 8.320, 74.726 10.944, 73.389 14.427 C 72.676 16.287, 78.553 27.704, 81.015 29.241 C 82.107 29.923, 83 31.398, 83 32.518 C 83 33.638, 83.695 35.547, 84.545 36.760 C 85.782 38.526, 85.856 39.401, 84.916 41.157 C 84.162 42.565, 83.959 45.658, 84.347 49.812 C 85.059 57.439, 83.129 64.591, 79.416 68.079 C 78.087 69.327, 77 71.220, 77 72.286 C 77 73.958, 71.635 89.597, 69.036 95.500 C 68.552 96.600, 67.896 99.373, 67.580 101.663 C 67.263 103.952, 66.754 106.476, 66.449 107.273 C 66.143 108.069, 66.981 110.020, 68.310 111.610 C 69.972 113.598, 70.950 116.372, 71.443 120.500 C 72.218 126.973, 74.166 131, 76.523 131 C 78.529 131, 78.346 133.642, 75.978 138.859 C 74.890 141.257, 74 143.394, 74 143.609 C 74 143.824, 87.647 144, 104.326 144 L 134.651 144 136.923 141.582 C 139.140 139.222, 139.177 138.826, 138.477 125.240 C 137.961 115.222, 138.091 110.698, 138.941 109.111 C 139.958 107.210, 139.480 105.578, 135.495 97.332 C 129.455 84.832, 126.857 76.508, 128.031 73.420 C 128.950 71, 127.848 69.358, 126.050 70.469 C 124.750 71.273, 123.409 68.381, 122.587 63 C 122.208 60.525, 121.299 57.583, 120.565 56.461 C 119.802 55.295, 118.978 50.055, 118.640 44.211 C 118.136 35.518, 118.272 34, 119.556 34 C 122.272 34, 122.274 31.048, 119.560 27.490 L 116.898 24 119.842 24 C 123.482 24, 124 22.759, 124 14.041 C 124 5.159, 122.382 3.775, 113.574 5.128 M 116.233 84 C 116.235 87.025, 116.580 90.850, 117 92.500 C 117.691 95.215, 117.769 95.073, 117.824 91 C 117.857 88.525, 117.512 84.700, 117.057 82.500 C 116.237 78.533, 116.230 78.545, 116.233 84 M 132 141.441 C 132 142.298, 132.450 143, 133 143 C 133.550 143, 134 142.577, 134 142.059 C 134 141.541, 133.550 140.840, 133 140.500 C 132.450 140.160, 132 140.584, 132 141.441" stroke="none" fill="black" fill-rule="evenodd"/>
</svg>