<svg xmlns="http://www.w3.org/2000/svg" width="192" height="144" viewBox="0 0 192 144" version="1.1">
	<path d="M 0 72 L 0 144 20.500 144 C 31.775 144, 41 143.800, 41 143.555 C 41 143.311, 38.554 138.473, 35.564 132.805 C 30.598 123.392, 26.568 113.996, 25.495 109.329 C 25.264 108.323, 24.394 104.800, 23.563 101.500 C 22.732 98.200, 21.350 89.875, 20.493 83 C 18.401 66.215, 16.877 61.242, 12.531 57.030 C 10.578 55.137, 8.558 52.219, 8.041 50.544 C 7.524 48.870, 6.178 44.843, 5.050 41.595 C 3.923 38.347, 3 34.488, 3 33.019 C 3 30.332, 6.232 26.432, 8.961 25.825 C 9.764 25.646, 10.889 25.161, 11.461 24.747 C 15.152 22.070, 23.047 17, 23.524 17 C 23.839 17, 26.635 15.376, 29.738 13.391 C 32.841 11.406, 39.682 7.588, 44.940 4.907 L 54.500 0.032 27.250 0.016 L 0 0 0 72 M 151 1.941 C 151 3.009, 151.414 4.138, 151.919 4.450 C 155.208 6.482, 165.236 29.381, 164.339 32.810 C 163.624 35.546, 161.414 35.642, 160 33 C 157.817 28.921, 157.262 31.335, 157.296 44.750 C 157.349 65.093, 153.126 78.230, 142.959 89.355 C 131.449 101.948, 112.627 105.871, 103.647 97.549 C 100.646 94.767, 100.015 88.884, 102.351 85.473 C 105.493 80.886, 110.127 65.428, 109.813 60.583 C 109.503 55.804, 109.462 55.752, 105.880 55.539 C 103.889 55.421, 100.662 54.336, 98.709 53.129 C 94.959 50.812, 94.650 50.936, 93.642 55.160 C 93.293 56.623, 90.564 61.045, 87.579 64.985 C 84.008 69.698, 81.916 73.538, 81.465 76.206 C 80.978 79.089, 80.523 79.863, 79.891 78.881 C 79.304 77.968, 79.159 78.517, 79.462 80.500 C 79.715 82.150, 80.176 85.528, 80.486 88.007 C 82.204 101.744, 93.088 112.229, 109.141 115.613 C 119.612 117.821, 128.061 117.093, 135.500 113.343 C 146.378 107.859, 148.142 106.795, 148.681 105.390 C 148.974 104.626, 149.731 104, 150.363 104 C 151.466 104, 163 93.394, 163 92.380 C 163 91.520, 169.367 86.034, 169.829 86.496 C 170.826 87.492, 166.198 93.043, 156.693 102.250 C 151.158 107.613, 146.262 112, 145.814 112 C 145.366 112, 145 112.615, 145 113.366 C 145 114.435, 145.923 114.553, 149.250 113.909 C 157.361 112.340, 162.294 112.817, 164.750 115.408 C 167.660 118.479, 167.589 119.790, 164.117 127.080 C 161.624 132.315, 160.308 133.729, 154.367 137.559 C 150.590 139.994, 146.964 141.990, 146.309 141.993 C 145.654 141.997, 144.840 142.450, 144.500 143 C 144.095 143.656, 152.156 144, 167.941 144 C 183.314 144, 192 143.639, 192 143 C 192 142.450, 190.200 142, 188 142 C 184.228 142, 184 141.830, 184 139.020 C 184 137.090, 185.408 134.184, 187.996 130.770 L 191.991 125.500 191.996 62.750 L 192 0 171.500 0 C 151.874 0, 151 0.083, 151 1.941 M 64.501 36.133 C 62.539 37.856, 61.146 39.479, 61.406 39.739 C 61.666 39.999, 64.043 39.442, 66.689 38.500 C 76.981 34.838, 78.768 33, 72.035 33 C 69.018 33, 67.217 33.749, 64.501 36.133 M 170 84.059 C 170 84.641, 170.450 84.840, 171 84.500 C 171.550 84.160, 172 83.684, 172 83.441 C 172 83.198, 171.550 83, 171 83 C 170.450 83, 170 83.477, 170 84.059 M 164 133.500 C 164.523 134.875, 164.624 136.014, 164.225 136.030 C 162.707 136.094, 167.607 138.393, 169.750 138.623 C 172.577 138.925, 172.593 137.721, 169.812 133.960 C 168.497 132.181, 166.712 131, 165.337 131 C 163.310 131, 163.158 131.285, 164 133.500" stroke="none" fill="black" fill-rule="evenodd"/>
</svg>