<svg xmlns="http://www.w3.org/2000/svg" width="192" height="144" viewBox="0 0 192 144" version="1.1">
	<path d="M 0 38 C 0 74.897, 0.056 76, 1.933 76 C 2.997 76, 14.584 74.579, 27.683 72.842 C 48.424 70.091, 54.600 69.672, 75.500 69.592 C 97.292 69.508, 100.487 69.719, 110.231 71.876 C 124.607 75.060, 133.188 74.567, 150.468 69.564 C 158.880 67.129, 163.565 66.195, 163.802 66.905 C 164.438 68.815, 169.106 68.088, 172.035 65.624 C 173.588 64.317, 176.870 62.947, 179.330 62.578 C 181.789 62.209, 184.815 61.028, 186.053 59.954 C 187.292 58.879, 189.120 58, 190.114 58 C 191.695 58, 191.964 59.099, 192.255 66.750 C 192.439 71.563, 192.681 58.513, 192.794 37.750 L 193 0 96.500 0 L 0 0 0 38 M 0.454 38.500 C 0.453 59.400, 0.586 68.092, 0.748 57.816 C 0.911 47.540, 0.911 30.440, 0.749 19.816 C 0.587 9.192, 0.454 17.600, 0.454 38.500 M -0 114.486 L -0 144.010 96.250 143.755 L 192.500 143.500 192.622 113.500 C 192.688 97, 192.545 84.513, 192.302 85.750 C 192.059 86.987, 191.154 88, 190.291 88 C 189.427 88, 188.168 88.756, 187.492 89.680 C 186.353 91.238, 185.886 91.197, 181.044 89.114 C 177.891 87.758, 172.989 86.694, 168.662 86.427 L 161.500 85.986 165 87.620 C 168.155 89.094, 168.303 89.334, 166.500 90.057 C 165.400 90.498, 162.700 90.922, 160.500 90.997 C 156.223 91.145, 156.066 90.989, 164 94.470 L 167.500 96.005 162.750 95.625 C 160.137 95.417, 158 95.640, 158 96.123 C 158 96.605, 158.525 97, 159.167 97 C 159.808 97, 160.091 97.242, 159.796 97.538 C 159.500 97.833, 155.038 96.757, 149.879 95.146 C 130.934 89.230, 126.828 88.881, 111.909 91.912 C 97.904 94.758, 87.216 95.276, 68.943 93.994 C 55.183 93.029, 9.924 87.252, 2.250 85.481 L 0 84.962 -0 114.486 M 0.443 114.500 C 0.443 131, 0.580 137.890, 0.748 129.812 C 0.915 121.733, 0.916 108.233, 0.748 99.812 C 0.581 91.390, 0.444 98, 0.443 114.500 M 189.958 112.550 C 188.896 113.831, 188.961 114.390, 190.336 115.764 C 191.888 117.317, 192 117.212, 192 114.214 C 192 110.568, 191.763 110.375, 189.958 112.550" stroke="none" fill="black" fill-rule="evenodd"/>
</svg>