<svg xmlns="http://www.w3.org/2000/svg" width="192" height="144" viewBox="0 0 192 144" version="1.1">
	<path d="M 88.223 11.557 C 87 12.413, 86 13.538, 86 14.057 C 86 14.576, 85.151 15.849, 84.114 16.886 C 82.583 18.417, 82.374 19.503, 83.005 22.636 C 84.171 28.427, 86.230 31.987, 88.796 32.648 C 90.934 33.199, 90.981 33.364, 89.474 35.029 C 87.432 37.285, 79.035 40.083, 76.386 39.391 C 75.236 39.090, 73.500 39.640, 72.304 40.684 C 70.521 42.240, 70.314 43.214, 70.861 47.489 C 71.695 54.001, 73.377 54.272, 80.643 49.069 C 83.768 46.831, 86.604 45, 86.944 45 C 87.716 45, 89.777 52.126, 90.604 57.656 C 91.044 60.597, 90.603 63.667, 89.096 68.156 C 86.580 75.653, 85.008 78.322, 74.731 92.549 C 70.458 98.465, 66.691 104.384, 66.360 105.703 C 65.525 109.028, 67.739 110.378, 76.616 111.955 C 80.677 112.677, 84.005 113.545, 84.010 113.884 C 84.016 114.223, 83.042 117.285, 81.846 120.690 C 79.790 126.546, 79.469 126.914, 75.894 127.518 C 71.463 128.266, 69.720 129.997, 70.173 133.195 C 70.418 134.925, 71.441 135.733, 74.273 136.432 C 78.020 137.358, 79.025 139.805, 75.396 139.166 C 73.982 138.918, 73.784 139.126, 74.618 139.985 C 75.461 140.853, 76.663 140.750, 79.491 139.568 C 83.734 137.795, 87.148 137.556, 88.550 138.933 C 89.863 140.223, 101.634 141.683, 106.770 141.193 C 109.822 140.902, 111.022 140.332, 111.079 139.145 C 111.122 138.240, 111.354 137.971, 111.595 138.547 C 112.114 139.791, 119 139.181, 119 137.891 C 119 137.401, 120.688 136.966, 122.750 136.924 C 127.722 136.823, 133.427 134.696, 133.795 132.806 C 133.958 131.972, 133.051 130.608, 131.781 129.776 C 127.080 126.696, 119.680 125.554, 104.250 125.527 C 95.862 125.512, 89 125.370, 89 125.211 C 89 125.052, 90.617 121.384, 92.594 117.060 L 96.188 109.197 105.306 108.476 C 113.905 107.795, 114.505 107.875, 115.834 109.877 C 116.610 111.045, 118.089 112, 119.122 112 C 120.574 112, 121.001 111.262, 121.003 108.750 C 121.005 106.024, 121.609 105.173, 124.753 103.472 C 128.387 101.505, 128.490 101.296, 128.182 96.547 C 127.821 90.995, 125.196 86.996, 120.513 84.862 C 117.593 83.531, 114.805 79.013, 109.491 67 C 108.396 64.526, 107.369 62.221, 107.209 61.878 C 107.049 61.535, 107.861 61.008, 109.014 60.707 C 111.359 60.093, 113.063 63.131, 113.382 68.492 C 113.580 71.820, 115.600 72.777, 118.208 70.779 C 119.664 69.663, 119.724 68.925, 118.682 65 C 118.024 62.525, 117.057 59.827, 116.533 59.004 C 116.008 58.182, 115.205 55.257, 114.748 52.504 C 114.291 49.752, 113.670 46.115, 113.369 44.422 C 113.054 42.654, 110.731 39.070, 107.911 36.002 C 103.320 31.009, 101.809 28, 103.893 28 C 104.384 28, 105.045 28.675, 105.362 29.500 C 105.678 30.325, 106.626 31, 107.469 31 C 108.646 31, 109 29.807, 109 25.841 C 109 20.974, 108.731 20.432, 104.250 16.259 C 97.313 9.801, 92.673 8.439, 88.223 11.557" stroke="none" fill="black" fill-rule="evenodd"/>
</svg>