<svg xmlns="http://www.w3.org/2000/svg" width="192" height="144" viewBox="0 0 192 144" version="1.1">
	<path d="M 115.025 11.421 C 115.011 11.928, 115.787 13.242, 116.750 14.341 C 118.433 16.262, 118.423 16.308, 116.500 15.523 C 115.400 15.074, 111.778 14.501, 108.450 14.250 C 103.108 13.846, 102.055 14.082, 99.450 16.265 C 97.219 18.135, 95.708 18.621, 93.250 18.256 C 90.705 17.878, 90 18.130, 90 19.418 C 90 20.323, 90.621 21.301, 91.380 21.592 C 92.814 22.143, 93.022 26.617, 91.710 28.690 C 91.295 29.344, 91.850 31.349, 92.941 33.144 C 95.662 37.618, 94.799 47.511, 91.426 50.500 C 88.799 52.828, 88.324 55.061, 89.349 60.250 C 89.878 62.925, 90.608 64, 91.896 64 C 93.570 64, 93.618 64.488, 92.559 70.750 C 91.798 75.247, 91.680 81.672, 92.205 90 C 92.751 98.664, 92.534 108.484, 91.498 122 C 90.675 132.725, 90.002 142.063, 90.001 142.750 C 90 143.709, 94.766 144, 110.500 144 L 131 144 130.993 141.750 C 130.990 140.512, 130.071 134.325, 128.953 128 C 122.326 90.538, 121.412 83.482, 123.051 82.469 C 123.738 82.044, 125.194 82.934, 126.575 84.623 C 127.869 86.205, 128.944 86.964, 128.964 86.309 C 128.984 85.654, 128.602 84.872, 128.116 84.572 C 126.738 83.720, 123 75.254, 123 72.985 C 123 71.103, 123.209 71.051, 125.750 72.298 C 129.386 74.082, 131.898 73.400, 133.073 70.309 C 133.828 68.323, 133.569 67.038, 131.856 64.267 L 129.680 60.747 132.090 56.290 L 134.500 51.833 130.500 48.417 C 128.300 46.539, 125.263 44.441, 123.750 43.757 C 120.062 42.087, 120.192 38.858, 124.077 35.589 C 125.769 34.165, 126.808 33, 126.386 33 C 125.963 33, 126.456 32.387, 127.480 31.638 C 129.247 30.346, 129.158 30.092, 125.753 26.686 C 123.272 24.205, 122.322 22.483, 122.680 21.115 C 123.040 19.737, 121.959 17.821, 119.124 14.817 C 116.883 12.443, 115.039 10.915, 115.025 11.421" stroke="none" fill="black" fill-rule="evenodd"/>
</svg>