<svg xmlns="http://www.w3.org/2000/svg" width="192" height="144" viewBox="0 0 192 144" version="1.1">
	<path d="M 0 34.582 L 0 69.163 3.368 67.082 C 8.101 64.156, 12.046 64.395, 15.313 67.805 C 18.650 71.288, 18.745 74.466, 15.574 76.544 C 13.519 77.890, 13.231 78.697, 13.694 81.817 C 13.994 83.843, 14.852 86.482, 15.599 87.683 C 16.752 89.534, 16.735 90.500, 15.489 94.031 C 14.257 97.522, 13.669 101.609, 13.080 110.750 C 13.036 111.438, 12.109 112, 11.019 112 C 9.711 112, 8.862 112.849, 8.519 114.500 C 8.234 115.875, 7.790 118.031, 7.534 119.291 C 7.277 120.550, 7.968 123.138, 9.069 125.041 C 10.979 128.342, 10.982 128.397, 9.125 126.250 C 8.055 125.013, 6.953 124, 6.675 124 C 6.398 124, 4.783 126.257, 3.086 129.015 C 0.720 132.859, -0 135.195, -0 139.020 L -0 144.010 96.018 143.755 L 192.036 143.500 192.556 71.750 L 193.076 -0 96.538 -0 L 0 0 0 34.582 M 0.450 35 C 0.450 53.975, 0.584 61.737, 0.748 52.250 C 0.913 42.762, 0.913 27.237, 0.748 17.750 C 0.584 8.262, 0.450 16.025, 0.450 35 M 85.558 51.775 C 85.251 52.082, 85 53.215, 85 54.292 C 85 55.934, 84.516 56.153, 82 55.650 C 78.477 54.945, 78.283 55.831, 80.776 61.242 C 82.679 65.373, 96.891 81.336, 100.281 83.150 C 102.357 84.262, 102.376 84.222, 100.866 81.899 C 99.038 79.086, 96.448 71.179, 95.495 65.500 C 94.243 58.042, 87.964 49.369, 85.558 51.775 M 0.310 138.500 C 0.315 141.800, 0.502 143.029, 0.725 141.232 C 0.947 139.435, 0.943 136.735, 0.715 135.232 C 0.486 133.729, 0.304 135.200, 0.310 138.500" stroke="none" fill="black" fill-rule="evenodd"/>
</svg>