<svg xmlns="http://www.w3.org/2000/svg" width="192" height="144" viewBox="0 0 192 144" version="1.1">
	<path d="M 56.685 18.973 C 48.503 21.556, 41.025 31.873, 41.009 40.602 C 40.999 46.464, 43.270 50.520, 49.266 55.345 C 52.486 57.936, 53.900 58.385, 59.010 58.438 C 62.298 58.472, 64.985 58.725, 64.982 59 C 64.972 59.766, 58.736 63.632, 56.226 64.428 C 54.667 64.923, 53.990 65.938, 53.968 67.817 C 53.951 69.293, 53.276 71.374, 52.468 72.441 C 50.161 75.491, 50.596 77.140, 53.513 76.407 C 57.128 75.500, 59.194 77.481, 57.806 80.526 C 56.966 82.370, 57.096 83.682, 58.388 86.405 C 59.491 88.729, 60.069 92.619, 60.104 97.945 C 60.133 102.363, 60.571 106.235, 61.078 106.548 C 62.314 107.312, 62.256 111.724, 61 112.500 C 59.660 113.328, 59.721 120.321, 61.080 121.680 C 61.854 122.454, 61.728 124.036, 60.635 127.254 C 59.426 130.814, 59.340 132.498, 60.220 135.364 C 61.041 138.041, 61.032 139.633, 60.186 141.490 C 59.101 143.872, 59.199 144, 62.101 144 C 64.973 144, 65.119 143.819, 64.506 141.025 C 64.146 139.389, 64.416 136.491, 65.106 134.584 C 66.127 131.759, 66.106 130.351, 64.992 126.975 C 63.923 123.736, 63.884 122.416, 64.812 120.929 C 66.258 118.614, 66.375 113.350, 65 112.500 C 63.600 111.635, 63.752 108.091, 65.250 106.679 C 65.938 106.030, 69.296 105.371, 72.714 105.214 L 78.928 104.928 77.575 108.214 C 75.398 113.501, 74.741 121.387, 75.505 133.076 L 76.219 144 92.264 144 C 108.127 144, 108.290 143.978, 106.540 142.044 C 103.722 138.931, 104.720 127.726, 108.279 122.518 C 110.345 119.494, 111.008 119.013, 111.032 120.518 C 111.062 122.416, 111.122 122.423, 112.443 120.681 C 113.776 118.922, 113.839 118.922, 114.361 120.681 C 115.141 123.312, 118 138.970, 118 140.610 C 118 142.200, 115.339 142.518, 114.830 140.990 C 114.645 140.435, 113.929 140.885, 113.238 141.990 C 112.004 143.966, 112.211 144, 125.492 144 C 137.667 144, 139.197 143.803, 141 142 C 142.374 140.626, 142.999 138.670, 142.996 135.750 C 142.992 131.175, 141.081 127.340, 135.202 120.107 L 131.632 115.714 132.789 106.549 C 133.955 97.314, 137.379 84.345, 139.135 82.508 C 139.757 81.858, 140.378 81.994, 140.941 82.904 C 142.180 84.908, 144.248 83.758, 148.259 78.833 C 153.312 72.628, 155.975 67.460, 156.648 62.553 C 157.156 58.846, 156.923 58.059, 154.894 56.639 C 152.322 54.837, 145.479 54.417, 144.500 56 C 143.787 57.154, 138.978 57.374, 139.044 56.250 C 139.069 55.837, 142.331 53.006, 146.294 49.959 C 152.694 45.037, 153.798 44.524, 156.166 45.372 C 158.114 46.070, 160.335 45.854, 164.416 44.570 C 167.487 43.604, 170 42.443, 170 41.990 C 170 41.537, 168.791 40.286, 167.314 39.210 C 164.650 37.270, 164.646 37.247, 166.814 36.559 C 169.232 35.792, 169.681 34.420, 167.750 33.702 C 166.985 33.418, 168.729 30.951, 172.250 27.340 C 175.412 24.096, 178 21.129, 178 20.746 C 178 19.306, 172.360 22.295, 161.113 29.698 C 154.726 33.901, 146.206 39.120, 142.181 41.294 L 134.862 45.248 133.374 43.124 C 131.490 40.433, 130.315 40.432, 129.462 43.118 C 128.855 45.031, 128.340 45.163, 124.145 44.479 C 116.969 43.309, 110.728 43.542, 107.472 45.103 C 103.661 46.929, 100.857 52.453, 101.559 56.750 C 102.014 59.530, 101.795 60, 100.045 60 C 98.322 60, 98 59.363, 98 55.950 C 98 53.723, 97.341 50.627, 96.536 49.069 C 94.400 44.939, 89.279 41, 86.046 41 C 82.619 41, 81.754 39.901, 80.144 33.500 C 77.543 23.163, 66.019 16.026, 56.685 18.973 M 70.161 71.547 C 68.627 74.912, 68.696 76.511, 70.526 80.050 C 71.526 81.985, 71.666 83, 70.932 83 C 69.757 83, 70.572 92.870, 71.852 94.146 C 72.798 95.089, 91.255 91.176, 92.688 89.728 C 93.357 89.053, 95.024 85.959, 96.394 82.853 C 98.854 77.274, 98.860 77.184, 96.942 75.448 C 95.874 74.481, 95 72.846, 95 71.814 C 95 69.100, 92.486 68.542, 88.591 70.390 C 84.430 72.364, 78.348 72.414, 75 70.500 C 71.646 68.583, 71.496 68.615, 70.161 71.547 M 62 104 C 62 104.550, 62.477 105, 63.059 105 C 63.641 105, 63.840 104.550, 63.500 104 C 63.160 103.450, 62.684 103, 62.441 103 C 62.198 103, 62 103.450, 62 104 M 62.250 114.662 C 60.482 115.376, 60.691 119, 62.500 119 C 63.433 119, 64 118.056, 64 116.500 C 64 115.125, 63.888 114.036, 63.750 114.079 C 63.612 114.122, 62.938 114.385, 62.250 114.662 M 61 131.500 C 61 133.056, 61.567 134, 62.500 134 C 63.433 134, 64 133.056, 64 131.500 C 64 129.944, 63.433 129, 62.500 129 C 61.567 129, 61 129.944, 61 131.500" stroke="none" fill="black" fill-rule="evenodd"/>
</svg>