<svg xmlns="http://www.w3.org/2000/svg" width="192" height="144" viewBox="0 0 192 144" version="1.1">
	<path d="M 163.265 15.942 C 160.935 17.474, 155.475 21.477, 151.132 24.837 C 139.083 34.158, 126.865 41.392, 125.857 39.802 C 125.402 39.086, 125.024 38.163, 125.015 37.750 C 124.986 36.321, 121 37.007, 121 38.441 C 121 40.651, 119.770 40.960, 115.128 39.917 C 109.973 38.759, 103.546 40.210, 100.233 43.280 C 97.379 45.924, 94.999 53.166, 96.788 53.763 C 98.524 54.341, 98.288 57, 96.500 57 C 95.496 57, 95 55.996, 95 53.968 C 95 46.625, 88.672 39, 82.578 39 C 79.035 39, 76.675 36.998, 75.504 33 C 73.306 25.496, 66.519 19.746, 58.310 18.433 C 47.792 16.752, 36.306 28.818, 36.076 41.790 C 35.969 47.817, 39.013 53.157, 44.708 56.934 C 49.127 59.864, 50.061 60.091, 56.707 59.846 C 60.670 59.700, 64.233 59.900, 64.623 60.290 C 65.014 60.681, 64.432 61, 63.331 61 C 60.695 61, 51.779 67.982, 52.388 69.570 C 52.649 70.250, 52.233 71.637, 51.463 72.653 C 50.027 74.548, 49.496 78, 50.640 78 C 50.992 78, 51.864 77.212, 52.579 76.250 C 53.801 74.603, 53.979 74.600, 55.603 76.200 C 56.994 77.570, 57.090 78.187, 56.097 79.383 C 55.117 80.564, 55.150 81.338, 56.261 83.183 C 57.029 84.457, 57.753 88.200, 57.870 91.500 C 58.014 95.551, 58.919 99.233, 60.657 102.835 C 62.549 106.759, 62.935 108.465, 62.115 109.285 C 60.623 110.777, 60.697 116.542, 62.241 119.014 C 63.228 120.595, 63.228 121.405, 62.241 122.986 C 60.753 125.368, 60.595 131.632, 62 132.500 C 63.302 133.305, 63.302 138, 62 138 C 61.450 138, 61.061 139.463, 61.136 141.250 C 61.239 143.701, 61.381 143.932, 61.713 142.192 C 62.233 139.471, 65.673 139.564, 65.206 142.286 C 65.045 143.229, 65.382 144, 65.956 144 C 67.525 144, 67.211 140.252, 65.413 137.508 C 63.964 135.296, 63.964 134.889, 65.413 132.821 C 67.404 129.978, 67.425 127.158, 65.482 123.265 C 64.101 120.495, 64.123 119.948, 65.730 117.148 C 67.424 114.196, 67.420 113.935, 65.619 110.591 C 64.588 108.676, 63.984 106.483, 64.278 105.718 C 64.747 104.496, 77.825 101.492, 78.732 102.398 C 78.910 102.577, 78.558 104.023, 77.950 105.611 C 77.252 107.432, 76.964 114.414, 77.172 124.500 C 77.352 133.300, 77.114 141.287, 76.643 142.250 C 75.842 143.886, 76.986 143.995, 94.143 143.921 C 104.239 143.878, 111.941 143.616, 111.259 143.341 C 110.576 143.065, 109.281 141.288, 108.382 139.392 C 106.131 134.649, 106.871 122.036, 109.724 116.516 L 111.784 112.532 113.425 118.016 C 114.328 121.032, 115.583 126.476, 116.214 130.112 C 117.274 136.228, 117.199 136.998, 115.214 140.362 L 113.067 144 122.784 143.905 L 132.500 143.811 138.250 137.433 C 142.100 133.162, 144 130.206, 144 128.487 C 144 124.561, 140.694 119.020, 135.081 113.538 C 129.346 107.936, 129.190 107.155, 131.054 93.322 C 132.147 85.212, 134.884 74, 135.772 74 C 136.051 74, 136.829 74.752, 137.501 75.671 C 138.602 77.176, 139.033 77.003, 141.856 73.921 C 146.379 68.981, 151 59.368, 151 54.897 C 151 48.537, 144.663 45.991, 138.146 49.731 C 132.503 52.969, 133.518 49.892, 140.020 44.046 C 145.529 39.093, 146.949 38.290, 149.500 38.684 C 152.667 39.173, 162 35.648, 162 33.962 C 162 33.442, 161.100 32.455, 160 31.768 C 157.633 30.289, 157.400 29, 159.500 29 C 161.157 29, 161.582 26.363, 160.011 25.833 C 159.467 25.650, 161.527 22.688, 164.591 19.250 C 170.548 12.564, 170.100 11.446, 163.265 15.942 M 87.028 67.549 C 83.250 70.217, 77.229 70.798, 72.398 68.961 C 70.339 68.178, 69.465 68.240, 68.848 69.211 C 67.665 71.076, 67.814 78.767, 69.049 79.530 C 69.774 79.978, 69.760 80.585, 69.002 81.498 C 67.575 83.217, 68.819 93.277, 70.386 92.697 C 70.999 92.470, 73.975 91.717, 77 91.022 C 90.581 87.904, 90.031 88.281, 92.864 80.159 C 95.239 73.350, 95.301 72.748, 93.712 71.859 C 92.699 71.292, 92 69.696, 92 67.950 C 92 64.413, 91.525 64.375, 87.028 67.549 M 63.250 111.662 C 61.445 112.391, 61.661 117, 63.500 117 C 64.500 117, 65 116, 65 114 C 65 112.350, 64.888 111.036, 64.750 111.079 C 64.612 111.122, 63.938 111.385, 63.250 111.662 M 63.250 125.662 C 61.445 126.391, 61.661 131, 63.500 131 C 64.500 131, 65 130, 65 128 C 65 126.350, 64.888 125.036, 64.750 125.079 C 64.612 125.122, 63.938 125.385, 63.250 125.662" stroke="none" fill="black" fill-rule="evenodd"/>
</svg>