<svg xmlns="http://www.w3.org/2000/svg" width="192" height="144" viewBox="0 0 192 144" version="1.1">
	<path d="M -0 72.005 L -0 144.010 96.250 143.755 L 192.500 143.500 192.757 71.750 L 193.013 0 96.507 0 L 0 0 -0 72.005 M 0.474 72.500 C 0.474 112.100, 0.598 128.154, 0.750 108.176 C 0.901 88.198, 0.901 55.798, 0.750 36.176 C 0.598 16.554, 0.474 32.900, 0.474 72.500 M 86.278 33.955 C 86.558 35.027, 86.273 36.078, 85.644 36.289 C 84.036 36.831, 86.332 39.430, 90.862 42.198 C 96.819 45.838, 100.229 49.703, 99.502 51.993 C 98.563 54.953, 97.037 54.434, 96.333 50.914 C 95.583 47.167, 93.429 46.131, 91.172 48.431 C 89.606 50.028, 89.679 50.281, 92.321 52.413 C 97.904 56.917, 97.794 65.257, 92.083 70.425 C 89.836 72.458, 89.957 72.462, 55.750 69.253 C 51.921 68.893, 51 69.110, 51 70.368 C 51 72.218, 53.980 74, 57.074 74 C 58.287 74, 59.843 74.771, 60.532 75.712 C 61.562 77.122, 62.054 77.200, 63.315 76.153 C 65.004 74.752, 70.960 75.898, 76.279 78.646 C 79.644 80.384, 82.203 79.353, 79.474 77.358 C 78.469 76.622, 77.838 75.869, 78.073 75.683 C 78.308 75.498, 82.021 75.544, 86.324 75.786 C 93.189 76.172, 94.246 76.488, 94.943 78.363 C 95.649 80.260, 96.507 80.500, 102.593 80.500 C 108.670 80.500, 109.486 80.727, 109.783 82.500 C 110.503 86.808, 110.912 87.318, 112.554 85.955 C 113.714 84.993, 114.366 84.966, 115.242 85.842 C 117.224 87.824, 118 87.135, 118 83.395 C 118 79.807, 118.018 79.792, 121.750 80.290 C 129.015 81.258, 140.564 83.732, 146.243 85.536 C 151.921 87.340, 152.013 87.338, 154.243 85.308 C 155.485 84.179, 157.032 83.450, 157.682 83.688 C 158.333 83.926, 159.294 83.307, 159.819 82.311 C 160.995 80.080, 161.057 75, 159.908 75 C 159.445 75, 157.445 73.378, 155.462 71.395 C 151.049 66.982, 147.208 66.301, 135.990 67.941 C 129.660 68.867, 127.539 68.863, 126.406 67.922 C 124.334 66.202, 125.137 65.892, 128.883 66.966 C 131.299 67.659, 132.033 67.591, 131.742 66.699 C 131.527 66.040, 128.910 65.022, 125.926 64.438 L 120.500 63.376 120.479 58.269 C 120.463 54.634, 119.896 52.543, 118.509 51.010 C 117.438 49.826, 116.548 47.877, 116.531 46.679 C 116.507 45.024, 115.479 44.147, 112.250 43.031 C 108.922 41.880, 108 41.067, 108 39.281 C 108 36.579, 109.175 36.413, 112.566 38.635 C 116.707 41.349, 116.605 39.240, 112.417 35.542 C 107.650 31.333, 101.157 30.625, 98.268 34 C 96.128 36.499, 92.165 36.700, 92.361 34.299 C 92.462 33.059, 91.589 32.518, 89.134 32.302 C 86.225 32.046, 85.837 32.270, 86.278 33.955 M 110 55.566 C 110 55.877, 110.486 57.039, 111.079 58.148 C 112.117 60.086, 112.211 60.094, 113.494 58.339 C 114.493 56.973, 114.536 56.326, 113.665 55.772 C 112.282 54.892, 110 54.764, 110 55.566 M 100.409 62.500 C 100.005 63.600, 98.848 65.694, 97.837 67.154 C 96.827 68.614, 96 70.565, 96 71.488 C 96 72.813, 96.845 72.499, 100 70 C 104.350 66.555, 104.745 65.394, 102.571 62.441 C 101.161 60.524, 101.134 60.525, 100.409 62.500" stroke="none" fill="black" fill-rule="evenodd"/>
</svg>