<svg xmlns="http://www.w3.org/2000/svg" width="192" height="144" viewBox="0 0 192 144" version="1.1">
	<path d="M 53.375 3.125 C 53.719 4.844, 54 6.644, 54 7.125 C 54 7.606, 56.280 8, 59.067 8 C 63.864 8, 64.097 8.120, 63.433 10.250 C 63.047 11.488, 61.403 14.360, 59.781 16.632 C 56.207 21.637, 56.296 25.339, 60 25.835 C 61.375 26.019, 62.808 26.469, 63.185 26.835 C 63.562 27.201, 63.093 32.112, 62.143 37.750 C 61.193 43.387, 60.546 48, 60.705 48 C 60.864 48, 61.634 46.537, 62.416 44.750 C 64.195 40.680, 64.350 42.807, 62.968 52.366 C 62.186 57.777, 61.453 59.642, 59.512 61.169 C 57.004 63.142, 56.375 64.862, 53.415 77.837 L 51.742 85.174 48.449 84.556 C 44.267 83.772, 43.684 84.790, 45.159 90.306 C 46.247 94.374, 46.100 95.419, 43.424 102.577 C 41.816 106.880, 36.797 117.961, 32.270 127.200 L 24.041 144 81.520 144 C 123.354 144, 139 143.694, 139 142.878 C 139 142.126, 139.521 142.188, 140.576 143.063 C 141.882 144.147, 142.316 144.125, 143.107 142.936 C 144.278 141.175, 143.970 138.756, 140.633 123.500 C 136.311 103.738, 131.553 90.443, 124.092 77.281 C 121.842 73.310, 120 69.407, 120 68.607 C 120 67.808, 118.875 65.816, 117.500 64.182 C 114.918 61.114, 114.186 56.621, 116.078 55.452 C 116.797 55.008, 116.983 51.089, 116.637 43.717 C 116.121 32.721, 117.136 26.984, 119.050 30.081 C 120.157 31.872, 122 27.140, 122 22.507 C 122 20.164, 122.716 18.582, 124.362 17.287 C 125.662 16.265, 128.597 11.957, 130.884 7.714 L 135.044 0 93.897 -0 L 52.750 -0 53.375 3.125 M 62.827 102 C 62.457 103.375, 61.912 108.100, 61.616 112.500 L 61.078 120.500 62.536 115 C 63.338 111.975, 63.883 107.250, 63.747 104.500 C 63.559 100.696, 63.339 100.098, 62.827 102" stroke="none" fill="black" fill-rule="evenodd"/>
</svg>