<svg xmlns="http://www.w3.org/2000/svg" width="192" height="144" viewBox="0 0 192 144" version="1.1">
	<path d="M 0 72 L 0 144 30 144 C 46.500 144, 60 143.845, 60 143.656 C 60 143.466, 58.843 142.004, 57.429 140.406 C 53.644 136.128, 52.755 133.271, 54.019 129.444 C 59.835 111.821, 105.522 106.238, 129.081 120.272 C 138.496 125.881, 140.210 133.275, 133.788 140.589 L 130.767 144.029 161.634 143.765 L 192.500 143.500 192.757 71.750 L 193.013 0 96.507 0 L 0 0 0 72 M 0.474 72.500 C 0.474 112.100, 0.598 128.154, 0.750 108.176 C 0.901 88.198, 0.901 55.798, 0.750 36.176 C 0.598 16.554, 0.474 32.900, 0.474 72.500 M 84.667 120.366 C 78.690 122.057, 74.798 124.868, 73.538 128.405 C 72.370 131.687, 73.406 133.627, 77.995 136.752 C 83.011 140.168, 88.585 141.282, 98.018 140.754 C 109.134 140.132, 116.227 136.654, 118.292 130.814 C 119.112 128.495, 115.648 124.371, 110.805 121.901 C 105.594 119.242, 91.557 118.418, 84.667 120.366 M 89.200 127.200 C 88.540 127.860, 88 128.965, 88 129.655 C 88 131.052, 93.447 132.357, 97.109 131.837 C 99.789 131.456, 100.931 128.205, 98.848 126.885 C 96.848 125.617, 90.578 125.822, 89.200 127.200" stroke="none" fill="black" fill-rule="evenodd"/>
</svg>