<svg xmlns="http://www.w3.org/2000/svg" width="192" height="144" viewBox="0 0 192 144" version="1.1">
	<path d="M 140.537 8.061 C 141.416 9.482, 134.203 15.720, 130.758 16.519 C 128.017 17.155, 128.017 17.159, 128.410 24.828 C 128.626 29.047, 128.960 33.155, 129.152 33.955 C 129.388 34.941, 128.534 35.499, 126.500 35.688 C 124.850 35.841, 120.800 36.329, 117.500 36.772 C 112.058 37.502, 111.265 37.366, 108.972 35.314 C 106.715 33.294, 106.053 33.171, 102.801 34.169 C 98.160 35.593, 97.031 38.740, 100.843 39.627 C 102.304 39.968, 105.159 42.017, 107.187 44.180 C 110.531 47.749, 111.204 48.052, 114.426 47.448 C 117.206 46.926, 118.090 47.132, 118.489 48.391 C 118.770 49.276, 119.230 50.726, 119.512 51.613 C 119.931 52.932, 120.299 52.997, 121.536 51.970 C 123.689 50.184, 124.224 51.185, 124.331 57.202 C 124.410 61.616, 123.640 64.083, 119.713 71.989 C 113.585 84.327, 113.573 86.337, 119.598 90.061 C 122.517 91.865, 122.901 92.539, 122.313 94.831 C 121.937 96.299, 121.600 101.759, 121.564 106.964 C 121.503 115.944, 121.376 116.490, 119.081 117.641 C 115.164 119.604, 114.779 121.395, 117.434 125.307 L 119.836 128.848 116.384 128.287 C 110.198 127.284, 101.198 133.276, 103.441 136.905 C 104.397 138.452, 108 138.270, 108 136.674 C 108 135.945, 109.100 134.315, 110.444 133.053 C 112.418 131.198, 113.559 130.882, 116.373 131.410 C 118.289 131.770, 120.895 132.904, 122.162 133.930 C 124.276 135.642, 124.377 136.137, 123.373 139.898 L 122.278 144 133.066 144 C 143.530 144, 143.917 143.921, 145.927 141.365 C 148.693 137.850, 148.572 134.421, 145.614 132.483 C 143.603 131.165, 143.340 130.416, 143.939 127.710 C 144.329 125.944, 144.482 122.025, 144.278 119 C 143.531 107.891, 143.882 90.493, 144.910 87.713 C 145.383 86.436, 145.188 83.453, 144.439 80.516 C 140.180 63.802, 139.612 52.106, 142.890 48.618 C 145.368 45.979, 145.644 41.779, 143.458 39.965 C 141.047 37.964, 143.138 36.864, 149.886 36.580 C 153.254 36.439, 156.308 36.026, 156.672 35.662 C 157.576 34.757, 151.489 34.568, 146.500 35.344 C 145.950 35.430, 145.681 34.825, 145.901 34 C 146.966 30.017, 147.748 20.460, 147.045 20.009 C 146.609 19.729, 145.321 17.960, 144.182 16.079 C 142.581 13.430, 142.350 12.215, 143.160 10.701 C 143.941 9.241, 143.863 8.528, 142.853 7.888 C 140.975 6.698, 139.752 6.789, 140.537 8.061 M 66.735 9.598 C 66.331 10.002, 66 11.074, 66 11.980 C 66 13.914, 60.981 19, 59.073 19 C 58.037 19, 58.012 19.309, 58.955 20.446 C 59.948 21.642, 62.838 31.595, 62.964 34.250 C 62.984 34.663, 62.325 35, 61.500 35 C 60.675 35, 60 35.851, 60 36.892 C 60 38.098, 59.052 39.021, 57.385 39.440 C 55.114 40.010, 54.846 40.482, 55.356 43.028 C 55.995 46.225, 54.082 48, 49.996 48 C 46.501 48, 47.836 52.167, 52 54.254 C 54.823 55.669, 55.557 55.745, 55.796 54.644 C 55.960 53.893, 57.210 52.770, 58.575 52.148 C 59.939 51.526, 61.317 50.338, 61.635 49.509 C 62.481 47.305, 65.534 47.666, 67.195 50.167 C 68.511 52.149, 68.286 52.977, 64.547 59.917 C 60.006 68.341, 57 75.665, 57 78.300 C 57 79.277, 58.445 80.722, 60.316 81.613 L 63.631 83.195 63.204 91.847 C 62.875 98.521, 62.345 100.972, 60.889 102.564 C 57.976 105.749, 58.584 107.747, 63.178 110.091 L 67.356 112.223 64.928 114.089 C 63.593 115.116, 61.986 115.966, 61.357 115.978 C 59.605 116.012, 58.948 118.734, 60.016 121.542 C 61.323 124.979, 59.402 127.834, 55.260 128.611 C 51.403 129.335, 50.950 131.698, 54.498 132.589 C 57.422 133.323, 60.383 132.429, 59.541 131.067 C 59.219 130.546, 59.969 129.175, 61.208 128.021 C 62.906 126.439, 64.578 125.973, 67.994 126.129 C 73.102 126.362, 77.781 124.471, 79.408 121.515 C 80.008 120.424, 81.287 118.936, 82.250 118.209 C 84.093 116.817, 84.590 114.398, 83.149 113.833 C 82.681 113.650, 82.723 110.097, 83.243 105.938 C 84.055 99.437, 83.908 97.473, 82.191 91.938 C 80.222 85.591, 80.221 85.470, 82.110 83.421 C 84.112 81.251, 84.075 79.226, 81.524 51 C 80.793 42.910, 80.936 39.783, 82.101 38.379 C 82.872 37.449, 82.411 36.747, 80.321 35.666 C 77.564 34.241, 77.501 34.020, 77.565 25.998 C 77.628 18.117, 77.528 17.744, 75.065 16.665 C 73.654 16.048, 72.180 15.042, 71.790 14.431 C 69.704 11.168, 67.384 8.949, 66.735 9.598 M 0 34.941 C 0 39.923, 0.414 44, 0.921 44 C 2.101 44, 3.357 38.387, 2.491 36.985 C 2.129 36.400, 1.833 33.917, 1.833 31.468 C 1.833 29.019, 1.421 26.760, 0.917 26.448 C 0.387 26.121, 0 29.705, 0 34.941 M 114 39.269 C 111.835 40.166, 111.749 40.364, 113.356 40.746 C 114.377 40.989, 115.697 40.703, 116.290 40.110 C 117.902 38.498, 116.821 38.100, 114 39.269 M 0.040 77.128 C 0.006 104.287, 0.215 108.934, 1.525 110.021 C 2.892 111.155, 2.892 111.462, 1.525 112.972 C -0.661 115.388, -0.735 141, 1.444 141 C 2.239 141, 5.814 138.075, 9.389 134.500 C 12.964 130.925, 16.354 128, 16.921 128 C 17.489 128, 18.706 126.851, 19.626 125.448 C 21.218 123.018, 21.193 122.753, 19.104 119.926 C 17.896 118.293, 17.144 116.575, 17.433 116.109 C 17.721 115.643, 16.800 113.965, 15.387 112.380 C 13.974 110.796, 12.188 108.062, 11.418 106.305 C 10.649 104.548, 9.442 102.748, 8.736 102.305 C 8.030 101.862, 6.721 100.349, 5.828 98.941 L 4.205 96.383 9.852 94.695 C 12.959 93.767, 16.835 91.935, 18.467 90.624 L 21.435 88.242 16.245 77.621 C 13.391 71.779, 10.593 67, 10.028 67 C 9.463 67, 9 66.379, 9 65.621 C 9 64.862, 7.775 61.600, 6.278 58.371 C 4.781 55.142, 3.526 52.275, 3.490 52 C 3.453 51.725, 2.671 50.150, 1.752 48.500 C 0.161 45.645, 0.078 47.029, 0.040 77.128 M 69.686 85.750 C 68.703 87.460, 67.957 95.981, 68.576 98.446 C 69.180 100.854, 69.629 101.075, 73.363 100.802 C 78.335 100.438, 78.952 98.782, 76.505 92.373 C 74.255 86.482, 71.054 83.373, 69.686 85.750 M 130.075 92.972 C 127.948 94.335, 126.310 114.463, 128.145 116.675 C 128.750 117.404, 130.951 118, 133.037 118 L 136.829 118 137.544 110.373 C 138.023 105.264, 137.835 100.981, 136.975 97.397 C 135.842 92.673, 135.412 92.071, 133.295 92.246 C 131.977 92.355, 130.528 92.682, 130.075 92.972" stroke="none" fill="black" fill-rule="evenodd"/>
</svg>