<svg xmlns="http://www.w3.org/2000/svg" width="192" height="144" viewBox="0 0 192 144" version="1.1">
	<path d="M 9.684 4.250 C 7.787 6.588, 4.832 10.800, 3.117 13.611 L 0 18.721 0.055 54.611 L 0.109 90.500 2.134 85.500 C 3.247 82.750, 4.798 80.140, 5.579 79.700 C 6.361 79.260, 7 78.307, 7 77.581 C 7 75.654, 14.934 66, 16.518 66 C 17.259 66, 18.153 65.093, 18.505 63.985 C 18.856 62.877, 19.531 62.210, 20.003 62.502 C 20.475 62.794, 21.151 62.564, 21.505 61.991 C 22.667 60.112, 35.384 54.268, 41 53.033 C 46.310 51.865, 63.299 52, 67.500 53.243 C 76.305 55.850, 89.647 64.626, 94.423 70.953 C 102.641 81.840, 118.835 92.461, 129.291 93.822 C 137.023 94.828, 153.204 94.288, 154.002 92.996 C 154.377 92.390, 155.092 91.990, 155.592 92.106 C 156.614 92.344, 158.518 91.670, 164.941 88.797 C 172.944 85.217, 180.762 78.233, 186.252 69.760 C 187.949 67.142, 189.711 65, 190.168 65 C 190.626 65, 191.094 63.987, 191.208 62.750 C 191.322 61.513, 191.679 67.025, 192 75 C 192.450 86.165, 192.631 82.140, 192.788 57.500 C 192.900 39.900, 192.699 19.762, 192.342 12.750 L 191.691 0 102.413 0 L 13.134 0 9.684 4.250 M 0.452 54 C 0.452 74.075, 0.585 82.288, 0.749 72.250 C 0.912 62.213, 0.912 45.788, 0.749 35.750 C 0.585 25.713, 0.452 33.925, 0.452 54 M 133.500 29.456 C 123.322 34.065, 122.704 47.784, 132.465 52.416 C 136.958 54.548, 140.723 54.132, 145.296 50.999 C 149.210 48.318, 149.966 46.612, 149.986 40.417 C 150.014 32.150, 140.913 26.100, 133.500 29.456 M 52.500 87.681 C 43.160 89.779, 40 93.504, 40 102.416 C 40 107.174, 40.409 108.183, 43.982 112.242 C 47.528 116.271, 48.563 116.840, 53.458 117.451 C 58.452 118.075, 59.279 117.889, 62.535 115.405 C 66.898 112.078, 69 108.244, 69 103.615 C 69 96.955, 65.593 91.440, 59.648 88.474 C 56.629 86.968, 55.991 86.897, 52.500 87.681 M 0 124.965 C 0 126.243, 3.812 133, 4.533 133 C 5.010 133, 1.518 125.184, 0.655 124.322 C 0.295 123.961, 0 124.251, 0 124.965 M 189.882 129.250 C 189.228 130.488, 186.737 134.053, 184.347 137.174 C 181.956 140.295, 180 143.107, 180 143.424 C 180 143.741, 182.700 144, 186 144 L 192 144 192 135.500 C 192 130.825, 191.791 127, 191.535 127 C 191.280 127, 190.536 128.012, 189.882 129.250 M 7.524 138.645 C 8.359 140.374, 9.707 142.342, 10.521 143.017 C 13.032 145.102, 12.103 142.685, 8.976 139 L 6.007 135.500 7.524 138.645" stroke="none" fill="black" fill-rule="evenodd"/>
</svg>