<svg xmlns="http://www.w3.org/2000/svg" width="192" height="144" viewBox="0 0 192 144" version="1.1">
	<path d="M 58.994 3.924 C 51.772 6.150, 45.141 12.024, 42.375 18.645 C 37.885 29.390, 45.936 42.278, 58.155 43.908 L 63.500 44.621 59.628 46.311 C 57.498 47.240, 54.686 48, 53.378 48 C 51.596 48, 51 48.550, 51 50.195 C 51 51.403, 49.826 53.616, 48.391 55.114 C 45.843 57.774, 45.806 60.395, 48.330 59.427 C 50.568 58.568, 54.249 63.677, 55.023 68.718 C 55.427 71.348, 55.471 76.883, 55.121 81.018 C 54.193 91.985, 55.543 112.083, 57.942 123 C 59.090 128.225, 60.552 135.088, 61.191 138.250 C 61.885 141.684, 62.873 144, 63.645 144 C 64.419 144, 64.716 143.298, 64.387 142.250 C 63.863 140.583, 63.905 140.583, 65.279 142.250 C 66.072 143.213, 67.057 144, 67.467 144 C 67.878 144, 67.906 143.213, 67.531 142.250 C 67.155 141.287, 65.498 133.995, 63.850 126.045 C 60.512 109.950, 59.065 94.808, 59.928 85.009 L 60.500 78.518 62.377 82.704 C 65.747 90.220, 70.196 92.893, 82.818 94.989 C 88.575 95.945, 90.015 96.519, 89.568 97.684 C 89.256 98.498, 89 99.507, 89 99.926 C 89 100.346, 87.874 101.996, 86.499 103.594 C 81.239 109.704, 80.543 112.470, 80.170 128.750 L 79.821 144 94.885 144 L 109.950 144 109.789 137.750 C 109.610 130.783, 111.642 125.588, 114.877 124.742 C 116.602 124.291, 116.968 125.020, 117.955 130.865 C 118.571 134.514, 119.333 138.963, 119.649 140.750 L 120.223 144 130.611 144 C 136.325 144, 141 143.842, 141 143.649 C 141 142.722, 138.596 136.045, 136.900 132.261 C 135.855 129.929, 135 126.194, 135 123.959 C 135 118.250, 138.832 99.862, 141.406 93.215 C 143.499 87.811, 146 85.199, 146 88.417 C 146 91.377, 148.857 90.013, 154.159 84.520 C 160.397 78.058, 164 71.770, 164 67.347 C 164 64.763, 163.313 63.739, 160.359 61.913 C 157.131 59.918, 156.250 59.788, 152.609 60.767 C 145.649 62.637, 146.485 60.478, 154.611 55.594 C 161.440 51.489, 162.707 51.051, 165.221 51.927 C 167.066 52.570, 168.968 52.582, 170.603 51.961 C 171.993 51.432, 174.199 51, 175.506 51 C 179.242 51, 179.645 48.927, 176.411 46.339 C 173.688 44.160, 173.641 44.010, 175.691 44.005 C 178.148 43.999, 179.572 42.472, 178.016 41.510 C 176.205 40.391, 176.902 39.466, 182.960 34.946 C 186.238 32.501, 188.938 30.187, 188.960 29.804 C 189.037 28.460, 178.392 32.812, 167.658 38.513 C 158.275 43.495, 143.064 49.985, 140.742 49.996 C 140.324 49.998, 140.546 49.098, 141.234 47.997 C 142.140 46.546, 142.192 45.528, 141.421 44.306 C 139.981 42.022, 138 41.480, 138 43.370 C 138 45.994, 132.037 48.158, 127.998 46.999 C 119.412 44.537, 112.635 46.745, 109.016 53.185 C 107.177 56.458, 106.935 57.666, 107.832 59.102 C 109.194 61.284, 107.861 62.408, 104.991 61.497 C 103.483 61.018, 103 61.323, 103 62.754 C 103 63.794, 102.268 66.792, 101.373 69.417 C 99.802 74.030, 99.816 74.261, 101.812 76.256 L 103.877 78.321 101.866 82.263 C 100.027 85.867, 99.582 86.158, 96.677 85.651 C 94.930 85.346, 89.112 84.542, 83.750 83.864 C 78.388 83.187, 74 82.272, 74 81.832 C 74 81.392, 72.650 78.245, 71 74.839 C 69.350 71.432, 68 67.825, 68 66.823 C 68 65.820, 67.094 64.094, 65.986 62.986 C 63.887 60.887, 63.917 60.747, 67.619 55.162 C 67.742 54.976, 69.830 55.988, 72.259 57.412 C 76.945 60.158, 82.677 60.779, 86.156 58.916 C 87.641 58.122, 88.975 58.161, 91.156 59.065 C 93.672 60.107, 94.381 60.048, 95.749 58.680 C 97.239 57.190, 97.232 56.914, 95.669 55.187 C 94.121 53.477, 94.105 52.992, 95.486 49.688 C 98.799 41.758, 95.696 34.128, 87.478 30 C 83.078 27.790, 82.467 27.094, 82.214 24 C 81.368 13.648, 74.233 5.470, 64.500 3.698 C 62.850 3.397, 60.372 3.499, 58.994 3.924 M 50 57 C 50 57.550, 50.450 58, 51 58 C 51.550 58, 52 57.550, 52 57 C 52 56.450, 51.550 56, 51 56 C 50.450 56, 50 56.450, 50 57 M 57 74.500 C 57 75.325, 57.450 76, 58 76 C 58.550 76, 59 75.325, 59 74.500 C 59 73.675, 58.550 73, 58 73 C 57.450 73, 57 73.675, 57 74.500 M 56.651 80.468 C 56.341 81.275, 56.518 82.202, 57.044 82.527 C 57.570 82.852, 58 82.191, 58 81.059 C 58 78.644, 57.444 78.401, 56.651 80.468 M 56 87.500 C 56 88.325, 56.450 89, 57 89 C 57.550 89, 58 88.325, 58 87.500 C 58 86.675, 57.550 86, 57 86 C 56.450 86, 56 86.675, 56 87.500 M 56.531 93.293 C 56.103 94.279, 56.034 95.367, 56.376 95.710 C 57.392 96.725, 58.211 95.299, 57.743 93.328 C 57.329 91.581, 57.275 91.580, 56.531 93.293 M 57.158 102 C 57.158 103.375, 57.385 103.938, 57.662 103.250 C 57.940 102.563, 57.940 101.438, 57.662 100.750 C 57.385 100.063, 57.158 100.625, 57.158 102 M 57 108.441 C 57 109.234, 57.450 110.160, 58 110.500 C 58.550 110.840, 59 110.191, 59 109.059 C 59 107.927, 58.550 107, 58 107 C 57.450 107, 57 107.648, 57 108.441 M 58 115.441 C 58 116.234, 58.450 117.160, 59 117.500 C 59.550 117.840, 60 117.191, 60 116.059 C 60 114.927, 59.550 114, 59 114 C 58.450 114, 58 114.648, 58 115.441 M 60.158 123 C 60.158 124.375, 60.385 124.938, 60.662 124.250 C 60.940 123.563, 60.940 122.438, 60.662 121.750 C 60.385 121.063, 60.158 121.625, 60.158 123 M 61 129.500 C 61 130.325, 61.450 131, 62 131 C 62.550 131, 63 130.325, 63 129.500 C 63 128.675, 62.550 128, 62 128 C 61.450 128, 61 128.675, 61 129.500 M 62.704 134.669 C 61.988 135.828, 63.657 138.676, 64.537 137.796 C 64.893 137.441, 64.754 136.383, 64.230 135.447 C 63.706 134.510, 63.019 134.160, 62.704 134.669" stroke="none" fill="black" fill-rule="evenodd"/>
</svg>