<svg xmlns="http://www.w3.org/2000/svg" width="192" height="144" viewBox="0 0 192 144" version="1.1">
	<path d="M 0 21.500 L 0 43 9.083 43 C 15.257 43, 20.783 42.301, 26.333 40.818 C 37.128 37.934, 55.118 37.936, 69.500 40.823 C 75 41.927, 80.245 43.125, 81.155 43.486 C 82.404 43.980, 82.968 43.423, 83.454 41.212 C 83.807 39.600, 85.683 36.878, 87.621 35.162 C 91.567 31.669, 91.439 30.538, 86.997 29.649 C 80.743 28.399, 82.785 23.514, 91.492 18.895 C 95.488 16.775, 95.939 16.115, 97.539 10.052 C 98.490 6.448, 99.657 3.073, 100.134 2.550 C 100.610 2.028, 101 1.240, 101 0.800 C 101 0.360, 78.275 0, 50.500 0 L 0 0 0 21.500 M 144.151 1.870 C 145.105 3.398, 146.954 3.834, 154.254 4.250 C 165.219 4.875, 167.776 6.481, 164.077 10.418 C 162.807 11.770, 159.346 14.142, 156.386 15.688 C 153.426 17.235, 151.004 18.833, 151.002 19.239 C 151.001 19.646, 151.878 22.288, 152.950 25.111 C 154.611 29.482, 154.695 30.448, 153.516 31.627 C 152.754 32.389, 151.849 33.900, 151.505 34.986 C 151.160 36.071, 150.568 36.896, 150.189 36.818 C 148.664 36.506, 143.912 39.067, 143.362 40.498 C 143.040 41.338, 143.348 42.715, 144.048 43.557 C 145.115 44.844, 144.745 45.682, 141.734 48.795 C 139.381 51.227, 137.913 53.875, 137.462 56.500 C 137.085 58.700, 136.084 61.599, 135.238 62.943 C 133.437 65.805, 132.789 65.177, 146.127 73.496 C 151.336 76.746, 155.496 78.693, 156.627 78.413 C 157.775 78.128, 160.436 79.421, 163.500 81.753 C 166.250 83.845, 170.188 86.594, 172.250 87.860 C 174.703 89.366, 176.007 90.913, 176.019 92.332 C 176.032 93.773, 178.699 96.846, 183.978 101.500 L 191.918 108.500 191.959 120.635 C 191.998 132.322, 191.912 132.827, 189.628 134.324 C 188.324 135.179, 187.032 136.918, 186.757 138.189 C 186.482 139.460, 185.914 141.318, 185.495 142.318 C 184.824 143.921, 185.194 144.099, 188.617 143.818 L 192.500 143.500 192.825 129 C 193.003 121.025, 192.837 88.737, 192.455 57.250 L 191.761 0 167.372 0 C 143.797 0, 143.022 0.062, 144.151 1.870 M 31.500 50.953 C 29.850 51.364, 25.604 52.934, 22.063 54.442 C 17.918 56.207, 13.023 57.379, 8.313 57.736 L 1 58.289 1 101.144 L 1 144 50.439 144 L 99.877 144 100.495 139.750 C 101.142 135.300, 100.787 83.020, 100.110 83.007 C 99.896 83.003, 99.123 83.788, 98.392 84.750 C 96.436 87.327, 96.628 85.120, 99.296 74.343 L 101.564 65.186 98.032 64.600 C 96.089 64.278, 92.586 62.485, 90.247 60.616 C 85.772 57.041, 76.435 53.999, 62 51.413 C 53.997 49.980, 36.463 49.715, 31.500 50.953 M 141 85.435 C 141 85.674, 141.502 87.137, 142.116 88.685 C 142.729 90.233, 143.413 93.468, 143.636 95.874 C 144.256 102.584, 145.200 103.573, 147.726 100.157 C 149.493 97.767, 149.708 96.638, 148.996 93.484 C 148.494 91.257, 146.974 88.733, 145.320 87.379 C 142.660 85.203, 141 84.456, 141 85.435 M 170 106.884 C 170 107.409, 170.780 109.197, 171.733 110.858 C 173.415 113.788, 173.399 113.969, 171.203 116.939 L 168.940 120 173.992 120 C 178.453 120, 179.180 119.698, 180.220 117.417 C 181.305 115.035, 181.089 114.566, 177.449 111.404 C 172.563 107.161, 170 105.606, 170 106.884 M 145.250 138.231 C 142.912 140.620, 141 142.896, 141 143.288 C 141 143.680, 149.438 143.980, 159.750 143.956 L 178.500 143.912 174.824 141.970 C 170.723 139.804, 157.820 135.428, 152.776 134.493 C 149.871 133.955, 149.019 134.378, 145.250 138.231" stroke="none" fill="black" fill-rule="evenodd"/>
</svg>