<svg xmlns="http://www.w3.org/2000/svg" width="192" height="144" viewBox="0 0 192 144" version="1.1">
	<path d="M 0 57 L 0 114 4.378 114 C 10.126 114, 11.259 112.486, 10.899 105.284 C 10.516 97.626, 11.460 95.252, 15.573 93.534 C 18.460 92.327, 19 91.600, 19 88.911 C 19 87.032, 19.716 85.197, 20.743 84.446 C 21.701 83.745, 22.489 82.463, 22.493 81.597 C 22.497 80.731, 22.950 80.026, 23.500 80.031 C 24.050 80.035, 24.500 80.963, 24.500 82.094 C 24.500 83.224, 25.317 84.749, 26.315 85.482 C 27.313 86.215, 28.047 87.420, 27.947 88.158 C 27.489 91.507, 28.179 93.117, 30.439 93.977 C 34.093 95.366, 35.229 98.432, 34.844 105.860 C 34.502 112.457, 34.518 112.502, 37.250 112.816 C 39.800 113.110, 40 112.871, 40 109.527 C 40 106.007, 42.999 98.737, 44.947 97.533 C 46.315 96.687, 50 104.291, 50 107.960 C 50 109.632, 50.337 111.017, 50.750 111.037 C 51.163 111.058, 57.286 111.470, 64.358 111.953 C 76.475 112.782, 77.382 112.992, 80.108 115.603 L 83 118.374 83.004 110.437 C 83.007 104.121, 83.439 101.792, 85.123 99.030 L 87.238 95.561 89.706 98.530 L 92.174 101.500 91.557 122.750 L 90.940 144 141.310 144 L 191.681 144 192.338 120.750 C 192.700 107.963, 192.996 75.563, 192.998 48.750 L 193 0 96.500 0 L 0 0 0 57 M 0.468 57.500 C 0.468 88.850, 0.595 101.530, 0.750 85.679 C 0.904 69.827, 0.904 44.177, 0.749 28.679 C 0.594 13.180, 0.468 26.150, 0.468 57.500 M 116.529 36.943 C 115.658 38.629, 113.157 41.191, 110.972 42.637 C 106.161 45.821, 106.001 46.776, 110.211 47.187 C 112.677 47.427, 113.564 48.080, 114.038 50 C 114.377 51.375, 114.223 53.485, 113.695 54.689 C 112.974 56.332, 113.240 57.849, 114.761 60.767 C 117.021 65.103, 116.734 69.607, 114.140 70.499 C 113.238 70.808, 111.220 72.111, 109.656 73.394 C 107.097 75.492, 106.945 75.940, 108.146 77.863 C 108.880 79.038, 109.979 80, 110.588 80 C 111.196 80, 112.227 81.013, 112.878 82.250 C 113.529 83.487, 113.837 83.713, 113.562 82.750 C 112.983 80.721, 114.282 80.430, 115.793 82.250 C 116.818 83.486, 117 84.050, 117 86 C 117 88.421, 119.799 86.693, 120.643 83.750 C 122.002 79.012, 125 79.360, 126.419 84.420 C 127.770 89.234, 129.435 89.957, 131.239 86.513 L 132.607 83.903 135.303 86.024 L 138 88.145 138 86.037 C 138 84.284, 138.316 84.099, 139.880 84.936 C 141.302 85.697, 142.273 85.498, 143.862 84.120 C 145.018 83.117, 145.634 81.939, 145.232 81.501 C 144.829 81.063, 145.512 80.954, 146.750 81.259 C 148.949 81.800, 149.873 80.658, 148.115 79.571 C 147.629 79.271, 147.032 77.669, 146.788 76.012 C 146.470 73.845, 146.753 73, 147.796 73 C 148.895 73, 148.976 72.676, 148.131 71.658 C 147.519 70.920, 147.313 70.020, 147.675 69.658 C 148.037 69.296, 147.787 69, 147.119 69 C 146.451 69, 144.862 67.875, 143.588 66.500 C 141.744 64.510, 140.302 64, 136.528 64 C 132.404 64, 131.880 63.772, 132.506 62.250 C 132.903 61.288, 133.472 59.641, 133.771 58.592 C 134.340 56.599, 134.548 56.598, 128 58.617 C 126.355 59.124, 126 58.772, 126 56.636 C 126 54.716, 126.637 53.878, 128.440 53.426 C 130.526 52.902, 130.750 52.473, 129.985 50.460 C 129.258 48.549, 129.458 47.989, 131.045 47.486 C 134.165 46.496, 133.310 44.281, 129.535 43.573 C 125.678 42.849, 124.963 42.068, 124.055 37.587 C 123.568 35.188, 122.837 34.431, 120.772 34.189 C 118.664 33.942, 117.787 34.512, 116.529 36.943" stroke="none" fill="black" fill-rule="evenodd"/>
</svg>