<svg xmlns="http://www.w3.org/2000/svg" width="192" height="144" viewBox="0 0 192 144" version="1.1">
	<path d="M 0 72 L 0 144 39.300 144 L 78.600 144 80.213 132.750 C 82.287 118.282, 82.511 106, 80.702 106 C 79.982 106, 77.866 107.575, 76 109.500 C 74.134 111.425, 71.879 113, 70.988 113 C 69.163 113, 64.950 122.244, 65.291 125.500 C 65.437 126.893, 64.818 127.596, 63.250 127.819 C 62.012 127.995, 61 128.574, 61 129.105 C 61 129.701, 60.330 129.726, 59.250 129.170 C 58.288 128.675, 56.907 128.482, 56.183 128.741 C 55.151 129.110, 54.955 127.720, 55.277 122.325 C 55.627 116.483, 56.111 114.988, 58.472 112.469 C 60.002 110.836, 62.382 107.813, 63.760 105.750 C 65.138 103.687, 66.586 102, 66.978 102 C 67.369 102, 70.460 100.210, 73.845 98.022 C 80.556 93.684, 81.323 91.766, 78.506 86.364 C 76.455 82.431, 76.593 80.876, 79.951 70.117 C 81.842 64.060, 83.854 59.718, 85.627 57.867 C 87.321 56.099, 87.847 55, 86.999 55 C 84.286 55, 79.014 50.547, 79.007 48.250 C 79.001 46.446, 78.437 46, 76.155 46 C 71.575 46, 69.608 42.961, 70.316 36.980 C 70.645 34.202, 71.840 30.630, 72.971 29.041 C 74.732 26.567, 74.854 25.774, 73.820 23.505 C 72.398 20.384, 73.992 18.695, 77.750 19.338 C 79.710 19.673, 80 19.293, 80 16.393 C 80 13.986, 80.379 13.208, 81.369 13.588 C 82.181 13.900, 82.956 13.277, 83.275 12.057 C 83.571 10.925, 84.192 10.002, 84.656 10.005 C 85.560 10.010, 90.817 14.807, 95.150 19.581 C 96.608 21.186, 99.101 23.468, 100.690 24.652 C 104.661 27.609, 108.578 36.066, 111.370 47.710 C 112.661 53.095, 115.077 60.430, 116.738 64.012 C 122.585 76.615, 123.225 79.552, 122.516 90.500 C 121.777 101.905, 119.702 110.508, 117.377 111.809 C 115.091 113.088, 113.771 119.864, 113.294 132.762 L 112.879 144.023 152.689 143.762 L 192.500 143.500 192.757 71.750 L 193.013 0 96.507 0 L 0 0 0 72 M 0.474 72.500 C 0.474 112.100, 0.598 128.154, 0.750 108.176 C 0.901 88.198, 0.901 55.798, 0.750 36.176 C 0.598 16.554, 0.474 32.900, 0.474 72.500" stroke="none" fill="black" fill-rule="evenodd"/>
</svg>