<svg xmlns="http://www.w3.org/2000/svg" width="192" height="144" viewBox="0 0 192 144" version="1.1">
	<path d="M 92.089 84.135 C 89.555 86.855, 88.467 91.652, 89.972 93.466 C 90.881 94.561, 90.490 95.317, 88.104 97.081 C 84.495 99.749, 82.723 104.142, 83.952 107.374 C 85.364 111.087, 91.521 116.989, 94.118 117.118 C 99.282 117.375, 107.273 115.251, 106.408 113.851 C 106.119 113.383, 106.541 113, 107.346 113 C 108.486 113, 108.690 112.060, 108.270 108.750 C 107.973 106.412, 107.228 103.825, 106.615 103 C 105.642 101.692, 105.727 101.678, 107.274 102.893 C 109.626 104.738, 110.340 103.824, 109.507 100.032 C 108.811 96.863, 108.462 96.788, 103.351 98.705 C 101.363 99.451, 100.818 97.098, 102.442 94.779 C 103.299 93.556, 104 90.916, 104 88.913 C 104 85.546, 103.678 85.149, 99.717 83.636 C 94.343 81.584, 94.474 81.575, 92.089 84.135" stroke="none" fill="black" fill-rule="evenodd"/>
</svg>