<svg xmlns="http://www.w3.org/2000/svg" width="192" height="144" viewBox="0 0 192 144" version="1.1">
	<path d="M 61 72 L 61 144 126.349 144 L 191.698 144 192.238 106.750 C 192.535 86.262, 192.536 53.863, 192.241 34.750 L 191.703 0 126.352 0 L 61 0 61 72 M 1 70.868 C 1 90.149, 0.768 89.678, 8.500 86.110 C 13.128 83.974, 16.417 80.688, 17.933 76.685 C 21.552 67.134, 14.860 55.596, 4.930 54.264 L 1 53.737 1 70.868 M 116.500 58.662 C 111.706 61.189, 109.049 64.103, 107.830 68.173 L 106.694 71.965 95.437 71.732 C 84.839 71.514, 81.700 72.033, 83.393 73.726 C 83.792 74.125, 89.379 74.341, 95.809 74.204 L 107.500 73.957 109.809 78.029 C 113.223 84.050, 117.271 86.239, 123.853 85.624 C 126.797 85.348, 129.983 84.420, 130.932 83.562 C 131.881 82.703, 134.006 82, 135.654 82 C 137.582 82, 139.515 81.081, 141.071 79.424 C 143.033 77.336, 144.060 76.975, 146.496 77.516 C 148.148 77.883, 152.800 78.786, 156.833 79.523 C 164.142 80.858, 164.180 80.853, 168.045 78.181 C 173.345 74.518, 173.310 71.457, 167.923 67.645 C 164.214 65.021, 163.551 64.874, 159.695 65.832 C 157.388 66.404, 152.792 67.173, 149.482 67.539 C 142.892 68.269, 139.232 66.821, 133.036 61.033 C 128.556 56.848, 121.782 55.877, 116.500 58.662" stroke="none" fill="black" fill-rule="evenodd"/>
</svg>