<svg xmlns="http://www.w3.org/2000/svg" width="192" height="144" viewBox="0 0 192 144" version="1.1">
	<path d="M -0 32.011 C -0 62.036, 0.109 64, 1.783 64 C 3.463 64, 3.657 64.936, 3.081 70.250 C 3.037 70.662, 2.325 71, 1.500 71 C 0.194 71, 0 75.722, 0 107.500 L 0 144 7.434 144 C 14.637 144, 14.877 143.922, 15.184 141.469 C 15.593 138.190, 17.407 138.194, 17.817 141.474 L 18.134 144.011 105.317 143.755 L 192.500 143.500 192.723 71.749 L 192.947 -0.001 96.473 0.010 L -0 0.021 -0 32.011 M 0.446 32.500 C 0.447 50.100, 0.583 57.159, 0.749 48.187 C 0.914 39.215, 0.914 24.815, 0.748 16.187 C 0.581 7.559, 0.446 14.900, 0.446 32.500 M 58.071 2.415 C 57.325 3.313, 57.012 4.345, 57.374 4.707 C 58.308 5.641, 60.306 3.417, 59.826 1.978 C 59.550 1.150, 59.008 1.285, 58.071 2.415 M 21 6.500 C 21 7.325, 21.436 8, 21.969 8 C 22.501 8, 22.678 7.325, 22.362 6.500 C 22.045 5.675, 21.609 5, 21.393 5 C 21.177 5, 21 5.675, 21 6.500 M 109.872 6.750 C 108.629 8.336, 108.664 8.371, 110.250 7.128 C 111.213 6.373, 112 5.585, 112 5.378 C 112 4.555, 111.179 5.084, 109.872 6.750 M 66.651 7.468 C 66.341 8.275, 66.518 9.202, 67.044 9.527 C 67.570 9.852, 68 9.903, 68 9.641 C 68 9.378, 68.273 8.452, 68.607 7.582 C 68.941 6.712, 68.764 6, 68.214 6 C 67.664 6, 66.960 6.661, 66.651 7.468 M 44.246 14.362 C 41.760 15.593, 41.765 16.818, 44.262 18.393 C 46.236 19.638, 46.631 19.318, 47.527 15.748 C 48.265 12.810, 47.787 12.608, 44.246 14.362 M 136.636 18.780 C 136.298 19.326, 136.692 20.329, 137.511 21.009 C 139.137 22.359, 139.476 21.300, 138.110 19.143 C 137.587 18.319, 137.009 18.176, 136.636 18.780 M 97.929 20.585 C 96.774 21.977, 96.963 22.129, 99.480 21.835 C 101.056 21.651, 102.530 20.938, 102.756 20.250 C 103.352 18.434, 99.492 18.702, 97.929 20.585 M 127 25.723 C 127 26.981, 129.858 29.475, 130.530 28.803 C 130.795 28.538, 130.110 27.504, 129.006 26.506 C 127.903 25.507, 127 25.155, 127 25.723 M 37.954 29.086 C 36.776 31.287, 37.222 32.599, 38.813 31.616 C 40.096 30.823, 41.031 27, 39.942 27 C 39.462 27, 38.568 27.939, 37.954 29.086 M 143.818 28.218 C 144.351 28.751, 145.623 29.011, 146.644 28.794 C 148.019 28.503, 147.767 28.251, 145.674 27.825 C 143.849 27.452, 143.192 27.592, 143.818 28.218 M 9.638 32.500 C 9.955 33.325, 10.671 34, 11.229 34 C 11.815 34, 11.718 33.365, 11 32.500 C 10.315 31.675, 9.599 31, 9.409 31 C 9.219 31, 9.322 31.675, 9.638 32.500 M 89.038 32.840 C 87.151 33.852, 85.442 35.174, 85.241 35.776 C 84.683 37.450, 89.621 40.255, 91.869 39.542 C 94.316 38.765, 99 35.141, 99 34.025 C 99 33.424, 93.860 31, 92.585 31 C 92.521 31, 90.925 31.828, 89.038 32.840 M 52.036 36.456 C 51.372 37.257, 51.123 38.389, 51.483 38.973 C 52.385 40.432, 54.257 39.113, 53.624 37.463 C 53.343 36.730, 53.650 35.911, 54.306 35.644 C 55.116 35.314, 55.137 35.132, 54.372 35.079 C 53.752 35.036, 52.701 35.655, 52.036 36.456 M 5.500 37 C 5.840 37.550, 6.316 38, 6.559 38 C 6.802 38, 7 37.550, 7 37 C 7 36.450, 6.523 36, 5.941 36 C 5.359 36, 5.160 36.450, 5.500 37 M 108.622 43.825 C 108.179 45.104, 108.083 46.417, 108.409 46.742 C 109.445 47.779, 110.174 46.250, 109.794 43.836 L 109.426 41.500 108.622 43.825 M 99.742 48.085 C 98.775 48.648, 97.538 48.832, 96.992 48.495 C 96.446 48.158, 96 48.557, 96 49.382 C 96 51.796, 97.755 52.206, 100.472 50.427 C 104.343 47.890, 103.688 45.787, 99.742 48.085 M 85.667 48.667 C 84.611 49.723, 84.891 52.815, 86.112 53.569 C 87.401 54.366, 88.962 52.290, 88.985 49.750 C 89 48.027, 86.969 47.364, 85.667 48.667 M 152 49.059 C 152 49.641, 152.450 49.840, 153 49.500 C 153.550 49.160, 154 48.684, 154 48.441 C 154 48.198, 153.550 48, 153 48 C 152.450 48, 152 48.477, 152 49.059 M 114.426 52.333 C 114.074 53.250, 114.107 54.788, 114.499 55.750 C 115.135 57.311, 115.326 57.253, 116.273 55.217 C 117.038 53.574, 117.017 52.617, 116.200 51.800 C 115.354 50.954, 114.903 51.089, 114.426 52.333 M 126.302 57.656 C 125.528 59.674, 129.427 63.157, 131.549 62.343 C 133.266 61.684, 133.372 60.564, 131.965 57.934 C 130.698 55.567, 127.170 55.393, 126.302 57.656 M 175.500 60 C 174.505 61.100, 174.140 62, 174.690 62 C 175.240 62, 176.505 61.100, 177.500 60 C 178.495 58.900, 178.860 58, 178.310 58 C 177.760 58, 176.495 58.900, 175.500 60 M 189.229 59.188 C 189.847 61.042, 192 61.349, 192 59.583 C 192 58.712, 191.287 58, 190.417 58 C 189.546 58, 189.011 58.534, 189.229 59.188 M 51 66 C 51 66.550, 51.477 67, 52.059 67 C 52.641 67, 52.840 66.550, 52.500 66 C 52.160 65.450, 51.684 65, 51.441 65 C 51.198 65, 51 65.450, 51 66 M 66.676 70.402 C 65.993 72.182, 66.812 73, 69.274 73 C 70.632 73, 71.032 72.526, 70.607 71.418 C 70.273 70.548, 70 69.648, 70 69.418 C 70 68.325, 67.149 69.169, 66.676 70.402 M 0.453 107.500 C 0.453 127.850, 0.586 136.033, 0.749 125.685 C 0.912 115.336, 0.911 98.686, 0.748 88.685 C 0.585 78.683, 0.452 87.150, 0.453 107.500 M 160.605 73.588 C 160.272 74.454, 160 76.532, 160 78.204 C 160 80.794, 160.223 81.060, 161.500 80 C 163.130 78.647, 163.552 73.459, 162.105 72.565 C 161.612 72.260, 160.937 72.721, 160.605 73.588 M 55.574 76.667 C 54.748 78.821, 55.805 79.811, 59.781 80.606 C 63.252 81.300, 63.804 80.372, 61.965 76.934 C 60.694 74.560, 56.451 74.382, 55.574 76.667 M 143.929 76.415 C 145.492 78.298, 149.352 78.566, 148.756 76.750 C 148.530 76.063, 147.056 75.349, 145.480 75.165 C 142.963 74.871, 142.774 75.023, 143.929 76.415 M 38.977 81.750 C 37.026 84.225, 36.980 84.535, 38.523 84.846 C 39.465 85.036, 40.971 84.458, 41.868 83.560 C 43.215 82.213, 43.262 81.780, 42.137 81.085 C 40.986 80.373, 40.986 80.158, 42.137 79.700 C 42.971 79.368, 43.043 79.127, 42.323 79.079 C 41.675 79.036, 40.170 80.237, 38.977 81.750 M 148 81.987 C 148 82.816, 150.435 84, 152.141 84 C 152.678 84, 152.873 83.604, 152.575 83.121 C 151.841 81.934, 148 80.982, 148 81.987 M 66.667 82.667 C 65.466 83.867, 65.967 87.728, 67.487 88.989 C 68.340 89.697, 70.046 89.954, 71.487 89.593 C 73.361 89.122, 74 88.304, 74 86.374 C 74 84.552, 73.581 83.947, 72.583 84.330 C 71.803 84.629, 70.917 84.227, 70.614 83.437 C 70.041 81.943, 67.823 81.510, 66.667 82.667 M 186.250 84.031 C 183.120 85.289, 183.437 87, 186.800 87 C 189.499 87, 192 85.461, 192 83.800 C 192 82.764, 189.113 82.880, 186.250 84.031 M 87.079 85.583 C 87.127 86.748, 87.364 86.985, 87.683 86.188 C 87.972 85.466, 87.936 84.603, 87.604 84.271 C 87.272 83.939, 87.036 84.529, 87.079 85.583 M 176 85.227 C 176 86.764, 177.937 89, 179.270 89 C 179.748 89, 179.995 87.992, 179.820 86.760 C 179.475 84.342, 176 82.947, 176 85.227 M 136 90.427 C 136 91.354, 136.855 92, 138.083 92 C 140.520 92, 140.176 89.663, 137.667 89.177 C 136.680 88.985, 136 89.495, 136 90.427 M 156 91.927 C 156 93.358, 156.642 94, 158.073 94 C 159.504 94, 160.043 93.461, 159.812 92.261 C 159.310 89.655, 156 89.364, 156 91.927 M 10 92.393 C 10 94.091, 12.447 95.150, 14.526 94.352 C 15.702 93.900, 15.788 93.450, 14.903 92.383 C 13.413 90.587, 10 90.594, 10 92.393 M 118.574 98.667 C 118.222 99.584, 118.290 100.690, 118.726 101.126 C 119.987 102.387, 122.353 100.363, 121.677 98.601 C 120.880 96.523, 119.385 96.555, 118.574 98.667 M 71 106.227 C 71 109.355, 72.740 110.842, 73.644 108.486 C 73.999 107.559, 73.561 106.132, 72.637 105.208 C 71.121 103.693, 71 103.768, 71 106.227 M 115 106.083 C 115 108.520, 117.337 108.176, 117.823 105.667 C 118.015 104.680, 117.505 104, 116.573 104 C 115.646 104, 115 104.855, 115 106.083 M 120 105.941 C 120 108.350, 121.813 109.587, 123.245 108.155 C 124.005 107.395, 123.945 106.638, 123.035 105.542 C 121.287 103.437, 120 103.606, 120 105.941 M 140.639 105.694 C 139.513 106.820, 139.954 108, 141.500 108 C 142.325 108, 143 107.577, 143 107.059 C 143 105.798, 141.438 104.895, 140.639 105.694 M 29 107.882 C 29 108.432, 29.450 109.160, 30 109.500 C 30.550 109.840, 31 109.668, 31 109.118 C 31 108.568, 30.550 107.840, 30 107.500 C 29.450 107.160, 29 107.332, 29 107.882 M 108.070 112.691 C 108.032 113.896, 108.450 115.160, 109 115.500 C 110.183 116.231, 110.183 115.252, 109 112.500 C 108.171 110.572, 108.138 110.579, 108.070 112.691 M 17.707 114.734 C 17.470 115.155, 16.981 116.737, 16.619 118.250 C 16.072 120.538, 16.291 121, 17.922 121 C 20.348 121, 21.699 119.050, 20 118 C 19.309 117.573, 19.034 116.754, 19.388 116.181 C 19.743 115.607, 19.606 114.875, 19.085 114.553 C 18.564 114.231, 17.944 114.312, 17.707 114.734 M 177 117 C 177 118.281, 180.696 122, 181.969 122 C 183.011 122, 182.299 119.288, 180.722 117.250 C 179.567 115.757, 177 115.585, 177 117 M 95.095 122.941 C 94.376 123.386, 94.194 124.002, 94.691 124.309 C 95.188 124.616, 96.185 124.504, 96.905 124.059 C 97.624 123.614, 97.806 122.998, 97.309 122.691 C 96.812 122.384, 95.815 122.496, 95.095 122.941 M 114.813 122.683 C 115.534 122.972, 116.397 122.936, 116.729 122.604 C 117.061 122.272, 116.471 122.036, 115.417 122.079 C 114.252 122.127, 114.015 122.364, 114.813 122.683 M 108 127.918 C 108 130.531, 109.024 133, 110.107 133 C 111.129 133, 111.292 129.923, 110.393 127.582 C 109.549 125.383, 108 125.600, 108 127.918 M 31.500 132 C 31.160 132.550, 31.359 133, 31.941 133 C 32.523 133, 33 132.550, 33 132 C 33 131.450, 32.802 131, 32.559 131 C 32.316 131, 31.840 131.450, 31.500 132 M 29.920 135.596 C 28.764 136.990, 28.897 137.148, 30.970 136.846 C 32.275 136.656, 33.529 135.938, 33.755 135.250 C 34.348 133.451, 31.486 133.709, 29.920 135.596" stroke="none" fill="black" fill-rule="evenodd"/>
</svg>