<svg xmlns="http://www.w3.org/2000/svg" width="192" height="144" viewBox="0 0 192 144" version="1.1">
	<path d="M -0 72.005 L -0 144.010 96.250 143.755 L 192.500 143.500 192.579 71.500 C 192.622 31.900, 192.488 1.315, 192.282 3.534 C 191.922 7.395, 191.717 7.611, 187.467 8.597 C 184.734 9.231, 182.670 9.270, 182.098 8.698 C 181.527 8.127, 179.503 8.395, 176.835 9.395 C 172.479 11.028, 158.675 11.114, 154.827 9.533 C 152.933 8.754, 151.713 6.273, 152.556 4.910 C 152.865 4.409, 152.191 4, 151.059 4 C 149.927 4, 149 3.373, 149 2.607 C 149 1.841, 148.288 0.941, 147.418 0.607 C 146.548 0.273, 113.023 0, 72.918 0 L 0 0 -0 72.005 M 0.474 72.500 C 0.474 112.100, 0.598 128.154, 0.750 108.176 C 0.901 88.198, 0.901 55.798, 0.750 36.176 C 0.598 16.554, 0.474 32.900, 0.474 72.500 M 179.034 37.306 C 175.845 38.404, 173.920 40.768, 172.605 45.201 C 172.328 46.136, 169.805 47.889, 166.999 49.096 C 163.949 50.408, 162.087 51.784, 162.369 52.519 C 162.665 53.290, 160.172 54.780, 155.670 56.523 C 151.727 58.050, 146.284 60.404, 143.576 61.755 L 138.652 64.210 132.576 61.096 C 123.818 56.607, 100.564 48, 97.193 48 C 93.565 48, 75.212 56.959, 72.355 60.124 C 68.985 63.857, 66.008 69.291, 66.004 71.716 C 65.999 74.724, 69.142 81.119, 70.417 80.694 C 70.982 80.506, 71.750 79.260, 72.123 77.926 C 72.526 76.482, 72.841 76.179, 72.900 77.177 C 72.955 78.100, 74.513 80.125, 76.363 81.677 C 79.119 83.990, 79.847 85.441, 80.393 89.712 C 80.861 93.378, 80.615 95.986, 79.562 98.506 C 78.230 101.694, 78.232 102.152, 79.576 102.667 C 80.407 102.986, 81.338 102.995, 81.646 102.687 C 81.954 102.380, 83.172 102.480, 84.353 102.910 C 85.534 103.340, 87.925 103.308, 89.667 102.839 L 92.834 101.986 91.273 98.014 C 90.004 94.782, 89.898 92.780, 90.706 87.271 C 91.252 83.547, 92.040 79.713, 92.456 78.750 C 93.086 77.296, 92.688 77, 90.107 77 C 86.691 77, 85.897 75.522, 88.892 74.739 C 89.932 74.466, 92.520 71.634, 94.642 68.445 C 96.764 65.255, 98.950 62.502, 99.500 62.326 C 100.050 62.150, 105.900 66.339, 112.500 71.634 C 119.100 76.929, 126.075 81.933, 128 82.752 C 132.859 84.821, 142.351 83.876, 156.730 79.894 L 168.324 76.682 170.202 79.001 C 171.975 81.191, 172.397 81.262, 177.790 80.279 C 182.809 79.364, 183.821 79.465, 186.154 81.119 C 192.008 85.267, 192 85.295, 192 59.500 L 192 36 187.250 36.056 C 184.637 36.087, 180.940 36.650, 179.034 37.306 M 84.480 64.250 C 84.229 64.938, 83.906 66.624, 83.762 67.997 C 83.560 69.920, 84.015 70.567, 85.740 70.815 C 88.690 71.238, 90.970 66.874, 89.025 64.530 C 87.490 62.680, 85.108 62.534, 84.480 64.250 M 77.527 70.806 C 76.363 71.970, 77.089 78.829, 78.500 80 C 79.767 81.051, 80 80.848, 80 78.692 C 80 76.965, 80.613 76.036, 81.896 75.820 C 83.582 75.535, 83.475 75.212, 80.923 72.890 C 79.345 71.454, 77.817 70.517, 77.527 70.806" stroke="none" fill="black" fill-rule="evenodd"/>
</svg>