<svg xmlns="http://www.w3.org/2000/svg" width="192" height="144" viewBox="0 0 192 144" version="1.1">
	<path d="M 0 72 L 0 144 21.549 144 L 43.098 144 39.549 137.654 C 35.947 131.212, 35.134 126.488, 37.021 122.962 C 37.908 121.304, 37.399 120.729, 33.129 118.565 C 29.205 116.577, 27.704 115.046, 25.665 110.955 C 24.261 108.139, 21.973 104.777, 20.579 103.486 C 18.100 101.188, 18.079 101.054, 19.625 97.355 C 21.192 93.605, 21.181 93.552, 18.368 91.133 C 15.268 88.466, 14.120 86.745, 10.994 80.075 C 8.387 74.511, 8.736 72.655, 12.512 71.987 C 14.324 71.666, 15.039 71.167, 14.328 70.718 C 13.684 70.312, 12.844 67.052, 12.460 63.476 C 12.077 59.899, 11.367 56.727, 10.882 56.427 C 10.397 56.127, 10 54.619, 10 53.076 C 10 51.532, 9.187 49.197, 8.194 47.885 C 4.372 42.836, 2.265 29.804, 4.096 22.534 L 5.247 17.964 9.940 18.586 C 14.199 19.151, 14.787 18.974, 16.297 16.670 C 17.212 15.273, 18.387 12.234, 18.908 9.916 C 20.112 4.555, 22.513 2.193, 27.282 1.678 C 36.069 0.728, 31.248 0, 16.167 0 L 0 0 0 72 M 63.245 0.578 C 63.563 0.896, 65.305 1.951, 67.116 2.922 C 69.976 4.456, 70.637 5.595, 72.150 11.594 C 73.107 15.392, 73.916 19.734, 73.946 21.243 C 74.009 24.450, 77.083 32, 78.326 32 C 79.763 32, 82.931 36.384, 82.967 38.421 C 82.985 39.478, 83.659 41.071, 84.465 41.961 C 85.752 43.383, 85.752 43.924, 84.465 46.405 C 83.659 47.958, 83 49.884, 83 50.685 C 83 51.486, 81.569 54.724, 79.820 57.881 C 78.051 61.076, 76.909 64.321, 77.246 65.198 C 77.947 67.025, 86.233 68.851, 95.976 69.326 C 102.644 69.652, 114.568 66.613, 114.917 64.500 C 115.007 63.950, 114.817 61.025, 114.494 58 C 113.054 44.506, 110.141 39.198, 105.384 41.402 C 104.081 42.006, 103.012 42.882, 103.008 43.349 C 103.004 43.816, 102.274 45.728, 101.386 47.599 C 100.238 50.018, 99.106 51, 97.466 51 C 92.404 51, 93.946 40.242, 99.995 33.352 C 101.648 31.470, 103 29.473, 103 28.913 C 103 28.354, 104.350 27.425, 106 26.850 C 108.875 25.848, 110.413 22, 107.939 22 C 106.245 22, 108.010 8.030, 110.148 4.525 C 111.162 2.861, 111.994 1.163, 111.996 0.750 C 111.998 0.337, 100.900 0, 87.333 0 C 73.767 0, 62.927 0.260, 63.245 0.578 M 162 1.889 C 162 2.928, 161.117 4.841, 160.037 6.139 L 158.075 8.500 155.697 5.582 C 152.287 1.395, 150 2.573, 150 8.516 C 150 12.194, 150.526 13.583, 152.670 15.570 C 154.139 16.931, 156.150 19.854, 157.140 22.064 C 158.383 24.840, 159.876 26.409, 161.970 27.139 C 164.055 27.866, 165.011 28.867, 165.035 30.348 C 165.055 31.532, 165.714 33.625, 166.500 35 C 167.286 36.375, 167.945 38.556, 167.965 39.847 C 167.987 41.348, 170.327 44.605, 174.454 48.880 C 178.823 53.406, 180.854 56.282, 180.741 57.783 C 180.650 59.002, 180.220 60, 179.787 60 C 179.354 60, 179 60.943, 179 62.096 C 179 63.248, 178.365 65.386, 177.590 66.846 C 175.064 71.599, 173.250 76.427, 172.592 80.150 C 172.237 82.157, 171.212 84.407, 170.314 85.150 C 168.598 86.569, 164.027 95.657, 164.010 97.683 C 164.004 98.333, 164.828 99.128, 165.840 99.449 C 166.852 99.770, 168.288 101.170, 169.032 102.560 C 170.260 104.853, 170.158 105.312, 167.942 107.503 C 166.599 108.832, 164.150 111.716, 162.500 113.913 C 160.559 116.498, 157.703 118.671, 154.408 120.072 L 149.316 122.237 149.768 126.942 C 150.116 130.561, 149.619 132.962, 147.610 137.353 C 146.175 140.491, 145 143.271, 145 143.530 C 145 143.788, 155.575 144, 168.500 144 L 192 144 192 72 L 192 0 189.500 0 C 187.064 0, 186.308 0.974, 187.679 2.346 C 189.505 4.171, 188.960 11.156, 186.544 16.896 C 185.145 20.220, 184 23.687, 184 24.601 C 184 25.990, 183.387 26.136, 180.250 25.492 C 178.188 25.068, 175.037 24.752, 173.250 24.790 C 170.005 24.858, 170 24.851, 170 19.822 C 170 15.779, 170.293 14.898, 171.485 15.356 C 173.267 16.040, 174.484 13.931, 175.442 8.500 C 175.830 6.300, 176.800 3.488, 177.597 2.250 L 179.046 0 170.523 0 C 162.833 0, 162 0.185, 162 1.889 M 93.250 10.496 C 91.540 12.438, 91.677 15.662, 93.500 16.362 C 94.678 16.814, 95 16.085, 95 12.969 C 95 8.532, 94.991 8.519, 93.250 10.496 M 182.607 35.582 C 182.273 36.452, 182 38.927, 182 41.082 C 182 43.237, 181.550 45, 181 45 C 180.450 45, 180 45.675, 180 46.500 C 180 47.325, 180.863 48, 181.917 48 C 182.971 48, 184.040 48.563, 184.293 49.250 C 184.546 49.938, 185.056 49.150, 185.426 47.500 C 185.796 45.850, 186.616 42.759, 187.248 40.632 C 188.265 37.211, 188.180 36.605, 186.508 35.382 C 184.076 33.604, 183.352 33.641, 182.607 35.582 M 121.457 118.056 C 122.186 130.353, 123.907 138.012, 123.970 129.235 C 123.986 126.889, 124.742 122.300, 125.649 119.037 L 127.299 113.104 124.009 109.358 L 120.720 105.611 121.457 118.056 M 56 110.191 C 56 111.121, 56.453 112.162, 57.007 112.504 C 59.023 113.750, 61.327 119.628, 61.907 125 C 62.451 130.042, 62.708 130.500, 65 130.500 C 67.245 130.500, 67.568 129.990, 68.162 125.500 C 68.527 122.750, 68.864 117.800, 68.912 114.500 L 69 108.500 62.500 108.500 C 57.063 108.500, 56 108.776, 56 110.191" stroke="none" fill="black" fill-rule="evenodd"/>
</svg>