<svg xmlns="http://www.w3.org/2000/svg" width="192" height="144" viewBox="0 0 192 144" version="1.1">
	<path d="M 0 57.055 L 0 114.110 4.750 113.805 L 9.500 113.500 10 105.500 C 10.548 96.740, 11.200 95, 13.937 95 C 16.523 95, 18.316 92.434, 17.761 89.528 C 17.416 87.724, 17.794 86.883, 19.143 86.455 C 20.265 86.098, 21 84.926, 21 83.492 C 21 82.186, 21.450 80.840, 22 80.500 C 22.990 79.888, 23.411 81.235, 23.050 83.858 C 22.947 84.605, 23.720 85.816, 24.767 86.549 C 26.152 87.520, 26.548 88.719, 26.220 90.953 C 25.824 93.651, 26.142 94.154, 28.844 95.095 C 32.623 96.413, 33.462 98.709, 33.099 106.750 C 32.840 112.514, 32.981 113, 34.909 113 C 36.647 113, 37 112.386, 37 109.368 C 37 105.792, 40.312 99, 42.056 99 C 43.343 99, 45.997 104.498, 46.015 107.200 C 46.024 108.465, 46.361 109.994, 46.765 110.599 C 47.196 111.242, 52.859 111.962, 60.433 112.337 C 72.533 112.936, 73.540 113.143, 76.053 115.550 C 78.482 117.878, 78.803 117.955, 79.416 116.359 C 79.788 115.388, 79.803 112.273, 79.449 109.436 C 78.977 105.658, 79.230 103.456, 80.395 101.203 C 82.722 96.704, 83.738 96.521, 85.978 100.201 C 87.877 103.320, 87.951 104.602, 87.334 123.750 L 86.683 144 139.182 144 L 191.681 144 192.338 120.750 C 192.700 107.963, 192.996 75.563, 192.998 48.750 L 193 0 96.500 0 L 0 0 0 57.055 M 0.468 57.500 C 0.468 88.850, 0.595 101.530, 0.750 85.679 C 0.904 69.827, 0.904 44.177, 0.749 28.679 C 0.594 13.180, 0.468 26.150, 0.468 57.500 M 116.698 41.094 C 114.970 43.609, 113.360 44.968, 112.499 44.638 C 111.629 44.304, 111.293 44.599, 111.607 45.420 C 111.897 46.173, 111.232 46.967, 110.057 47.275 C 106.734 48.144, 107.614 50.166, 111.163 49.814 C 113.936 49.539, 114.426 49.869, 115.147 52.500 C 115.599 54.150, 115.664 56.400, 115.293 57.500 C 114.357 60.270, 114.901 63.181, 116.740 65.241 C 119.361 68.178, 117.309 72.836, 112.277 75.373 C 107.528 77.766, 107.148 78.777, 109.952 81.561 C 113.714 85.298, 115 86.152, 115 84.917 C 115 82.926, 117.842 85.891, 118.190 88.244 C 118.735 91.935, 120.829 91.302, 122.099 87.064 C 123.886 81.100, 126.581 81.719, 127.949 88.407 C 128.706 92.108, 131.866 93.228, 132.688 90.087 C 133.376 87.456, 134.453 87.453, 137.074 90.074 C 139.089 92.089, 139.163 92.093, 139.651 90.228 C 140.018 88.825, 140.797 88.430, 142.539 88.763 C 144.897 89.214, 148.497 86.830, 147.286 85.619 C 146.945 85.279, 147.697 85, 148.956 85 C 150.647 85, 150.987 84.674, 150.257 83.750 C 149.713 83.063, 149.045 81.263, 148.773 79.750 C 148.402 77.690, 148.682 76.992, 149.889 76.968 C 151.276 76.941, 151.247 76.745, 149.683 75.559 C 148.684 74.802, 147.797 73.804, 147.712 73.341 C 147.627 72.878, 146.353 71.323, 144.881 69.884 C 142.588 67.642, 141.528 67.325, 137.480 67.673 C 133.251 68.037, 132.834 67.892, 133.506 66.290 C 136.097 60.115, 135.145 58.839, 129.950 61.526 C 127.147 62.975, 127 62.949, 127 61.004 C 127 59.783, 128.024 58.491, 129.539 57.800 C 131.264 57.014, 131.874 56.140, 131.443 55.072 C 131.094 54.207, 130.599 52.993, 130.344 52.373 C 130.089 51.754, 131.033 50.958, 132.440 50.604 C 136.221 49.655, 135.566 48.418, 130.535 47.010 C 126.402 45.853, 126.010 45.453, 125.259 41.630 C 124.590 38.228, 124.011 37.457, 121.974 37.257 C 120.070 37.069, 118.854 37.954, 116.698 41.094" stroke="none" fill="black" fill-rule="evenodd"/>
</svg>