<svg xmlns="http://www.w3.org/2000/svg" width="192" height="144" viewBox="0 0 192 144" version="1.1">
	<path d="M 103.895 17.492 C 100.018 19.512, 99.102 20.571, 98.098 24.195 C 95.765 32.615, 96.116 35.119, 100 37.770 C 101.925 39.083, 103.375 40.765, 103.223 41.507 C 102.841 43.362, 109.154 48, 112.060 48 C 114.190 48, 113.887 48.551, 109.096 53.402 C 106.162 56.374, 104.058 59.285, 104.421 59.873 C 104.785 60.461, 104.338 62.379, 103.430 64.136 C 102.296 66.328, 101.924 68.856, 102.244 72.187 C 102.776 77.722, 102.967 77.694, 93.387 73.480 C 87.422 70.856, 85.977 67.756, 88.429 62.841 C 89.776 60.141, 89.769 59.576, 88.357 57.422 C 87.118 55.531, 86.217 55.148, 84.141 55.633 C 79.373 56.744, 78.729 58.234, 77.705 70.535 C 76.953 79.571, 77.030 83.060, 78.047 86.143 C 79.215 89.683, 79.121 90.846, 77.179 96.877 C 74.450 105.350, 74.460 105.648, 77.491 106.408 C 78.861 106.752, 81.408 108.601, 83.152 110.517 C 86.667 114.380, 89.807 115.376, 88.035 112.066 C 86.532 109.258, 86.691 109, 89.918 109 C 96.597 109, 97.010 107.590, 94.804 92.331 C 94.146 87.781, 93.912 83.755, 94.284 83.383 C 94.655 83.011, 96.713 83.868, 98.856 85.286 C 103.720 88.505, 104.691 92.498, 102.605 100.710 C 101.796 103.894, 100.413 110.757, 99.531 115.961 C 98.649 121.164, 96.594 129.402, 94.964 134.268 C 93.334 139.133, 92 143.313, 92 143.557 C 92 143.801, 105.050 144, 121 144 C 136.950 144, 150 143.732, 150 143.404 C 150 143.076, 148.017 139.139, 145.594 134.654 C 143.170 130.169, 139.281 121.775, 136.951 116 C 134.620 110.225, 131.025 102.575, 128.960 99 C 123.578 89.679, 122.628 85.962, 123.359 77.083 C 123.966 69.715, 125.276 67.096, 128.991 65.829 C 130.046 65.469, 128.093 56.910, 126.109 53.204 C 125.213 51.530, 125.211 51, 126.098 51 C 127.208 51, 130.908 47.361, 131.082 46.097 C 131.127 45.769, 131.379 44.180, 131.641 42.566 C 131.913 40.894, 130.987 36.081, 129.490 31.380 C 127.306 24.520, 126.120 22.443, 122.454 19.064 C 118.554 15.470, 117.493 15.005, 113.272 15.047 C 110.258 15.076, 106.804 15.977, 103.895 17.492" stroke="none" fill="black" fill-rule="evenodd"/>
</svg>