<svg xmlns="http://www.w3.org/2000/svg" width="192" height="144" viewBox="0 0 192 144" version="1.1">
	<path d="M 0 35.500 L 0 71 6.250 71.003 C 9.688 71.005, 16.325 71.670, 21 72.480 C 34.145 74.760, 61.214 77.809, 74.500 78.508 C 83.325 78.971, 89.146 78.712, 96.500 77.528 C 109.284 75.471, 110 75.233, 110 73.040 C 110 70.840, 109.454 70.609, 100.232 68.904 C 96.232 68.164, 93 67.053, 93 66.418 C 93 65.786, 93.967 64.040, 95.150 62.537 C 96.850 60.375, 97.023 59.632, 95.976 58.985 C 94.998 58.381, 96.354 56.377, 101.154 51.333 C 111.002 40.983, 112.020 39.182, 111.882 32.346 C 111.709 23.809, 110.811 20.639, 108.247 19.513 C 107.011 18.970, 106 18.190, 106 17.780 C 106 16.678, 96.069 11.839, 95.072 12.455 C 94.603 12.745, 93.406 16.249, 92.412 20.241 C 90.787 26.762, 90.437 31.769, 90.711 44.500 C 90.759 46.700, 90.731 51.522, 90.649 55.216 C 90.517 61.166, 90.330 61.761, 89.010 60.439 C 87.897 59.325, 87.283 54.765, 86.585 42.427 C 85.776 28.120, 85.890 24.639, 87.433 16.446 C 88.413 11.243, 89.546 6.781, 89.950 6.531 C 90.355 6.281, 93.104 7.634, 96.059 9.538 C 99.015 11.442, 101.898 12.994, 102.466 12.986 C 103.035 12.978, 104.737 10.728, 106.250 7.986 L 108.999 3 114.443 3 C 118.935 3, 120.159 3.389, 121.443 5.223 C 123.684 8.421, 123.366 11.502, 120.474 14.623 C 117.533 17.796, 118.163 18.872, 123.670 20.077 C 125.776 20.538, 130.987 21.671, 135.250 22.596 C 140.404 23.713, 143 24.743, 143 25.670 C 143 28.068, 139.844 28.414, 134.683 26.581 C 125.657 23.375, 125.237 23.440, 123.866 28.238 C 122.163 34.195, 122.361 36.163, 125.272 42.205 C 129.344 50.659, 131.112 62.423, 128.024 60.515 C 127.563 60.230, 127.031 62.493, 126.843 65.545 C 126.440 72.061, 123.702 72.088, 147.990 65.335 C 159.476 62.142, 166.373 60.750, 170.716 60.750 L 176.952 60.750 179.933 56.125 C 183.981 49.847, 188.560 45, 190.444 45 C 193 45, 192.376 51.438, 189.352 56.270 C 182.440 67.310, 163.922 92.219, 158.054 98.369 C 149.701 107.123, 134.980 119.677, 131.527 120.990 C 127.416 122.553, 124.582 122.205, 120.866 119.684 C 118.842 118.311, 114.467 116.875, 110.116 116.156 C 105.333 115.366, 100.093 113.562, 95.064 110.972 C 87.553 107.105, 87.078 107, 77.132 107 C 71.513 107, 63.587 106.313, 59.519 105.472 C 52.137 103.947, 52.104 103.950, 41.932 106.972 C 36.326 108.638, 30.424 110, 28.815 110 C 24.805 110, 13.314 104.967, 6.029 100.020 L 0 95.925 -0 119.968 L -0 144.010 96.250 143.755 L 192.500 143.500 192.706 71.750 L 192.913 0 96.456 0 L 0 0 0 35.500 M 0.451 36 C 0.451 55.525, 0.585 63.513, 0.748 53.750 C 0.912 43.988, 0.912 28.013, 0.748 18.250 C 0.585 8.488, 0.451 16.475, 0.451 36 M 0.432 120 C 0.432 133.475, 0.574 138.988, 0.747 132.250 C 0.920 125.513, 0.920 114.487, 0.747 107.750 C 0.574 101.013, 0.432 106.525, 0.432 120" stroke="none" fill="black" fill-rule="evenodd"/>
</svg>