<svg xmlns="http://www.w3.org/2000/svg" width="192" height="144" viewBox="0 0 192 144" version="1.1">
	<path d="M 97.990 88.527 C 97.461 89.917, 96.015 91.429, 94.774 91.888 C 92.677 92.664, 92.543 93.220, 92.850 99.861 C 93.031 103.787, 92.802 107.007, 92.340 107.015 C 91.878 107.024, 90.854 107.439, 90.064 107.939 C 88.868 108.696, 88.849 109.113, 89.951 110.441 C 90.678 111.317, 91.227 113.713, 91.171 115.767 C 91.116 117.820, 90.942 125.013, 90.785 131.750 L 90.500 144 101.729 144 L 112.957 144 111.779 141.250 C 111.131 139.738, 108.665 135.081, 106.300 130.902 C 103.935 126.723, 102 122.838, 102 122.268 C 102 119.979, 106.324 120.146, 109.485 122.557 C 113.322 125.483, 114.183 125.560, 116.345 123.171 C 118.746 120.518, 118.389 119.032, 115.073 117.875 C 113.434 117.304, 111.647 115.676, 111.014 114.177 C 108.819 108.984, 107.513 107, 106.288 107 C 105.501 107, 105.205 105.998, 105.476 104.250 C 106.951 94.730, 106.912 94.023, 104.858 92.924 C 103.749 92.331, 102.383 90.530, 101.823 88.923 C 100.571 85.332, 99.256 85.196, 97.990 88.527 M 157.725 88.626 C 157.384 90.328, 155.957 93.086, 154.554 94.754 C 152.702 96.954, 152.360 97.924, 153.308 98.288 C 155.186 99.009, 157.137 108.130, 155.766 109.782 C 154.500 111.307, 156.714 121.953, 158.434 122.613 C 159.844 123.154, 159.652 127.913, 158.104 130.805 C 156.897 133.062, 154.032 141.770, 154.011 143.250 C 154.005 143.662, 158.725 144, 164.500 144 C 171.502 144, 175 143.632, 175 142.894 C 175 142.286, 174.318 139.158, 173.485 135.942 C 172.300 131.370, 172.201 129.067, 173.027 125.378 C 173.609 122.784, 173.805 119.387, 173.463 117.830 C 172.749 114.581, 172.913 114.540, 179.090 116.415 C 185.655 118.407, 192 116.723, 192 112.988 C 192 110.534, 191.585 110.320, 184.521 109.133 C 180.407 108.442, 176.799 107.484, 176.503 107.004 C 176.206 106.524, 174.449 106.377, 172.598 106.678 L 169.233 107.224 169.438 99.112 C 169.639 91.185, 169.590 91, 167.272 91 C 164.378 91, 159.334 88.503, 158.762 86.787 C 158.532 86.096, 158.065 86.924, 157.725 88.626 M 34.676 89.658 C 34.304 90.029, 34 91.080, 34 91.992 C 34 94.147, 29.882 98, 27.579 98 C 26.243 98, 25.983 98.446, 26.560 99.750 C 26.985 100.713, 27.259 102.963, 27.167 104.750 C 27.076 106.537, 27.379 108, 27.840 108 C 28.301 108, 29.224 109.197, 29.891 110.659 C 30.842 112.748, 30.840 113.481, 29.880 114.074 C 29.207 114.490, 28.397 116.733, 28.079 119.059 C 27.478 123.451, 27.115 123.798, 20.500 126.322 C 13.388 129.036, 10.242 129.176, 8.098 126.874 C 6.597 125.263, 5.484 124.954, 3.084 125.481 C 0.006 126.158, -0 126.173, -0 132.981 C -0 139.738, 0.034 139.822, 3.557 141.901 C 6.865 143.853, 8.582 144, 28.057 144 C 39.576 144, 49 143.699, 49 143.331 C 49 142.963, 47.594 140.170, 45.875 137.124 C 43.004 132.037, 42.798 131.068, 43.345 125.212 C 43.800 120.338, 43.571 118.275, 42.372 116.445 C 40.946 114.269, 40.949 113.908, 42.402 112.455 C 44.228 110.629, 44.421 108.239, 43.038 104.601 C 42.422 102.981, 42.422 101.857, 43.038 101.476 C 44.605 100.508, 44.141 99.180, 42 98.500 C 40.778 98.112, 40 96.987, 40 95.607 C 40 93.202, 35.811 88.522, 34.676 89.658 M 178.583 102.028 C 176.979 103.662, 175.945 105.279, 176.286 105.619 C 176.897 106.231, 177.679 105.558, 181.405 101.219 C 184.226 97.932, 181.966 98.580, 178.583 102.028 M 24.333 129.806 C 18.346 132.240, 18.063 133, 23.142 133 C 27.943 133, 31.755 131.031, 30.594 129.152 C 29.702 127.708, 29.420 127.738, 24.333 129.806" stroke="none" fill="black" fill-rule="evenodd"/>
</svg>