<svg xmlns="http://www.w3.org/2000/svg" width="192" height="144" viewBox="0 0 192 144" version="1.1">
	<path d="M -0 72.005 L -0 144.010 96.250 143.755 L 192.500 143.500 192.757 71.750 L 193.013 0 129.897 0 L 66.781 0 67.464 11.250 C 68.263 24.421, 70.477 43.713, 72.586 55.891 C 74.622 67.642, 81.570 91.567, 84.166 95.768 C 85.841 98.478, 86.013 99.374, 84.984 100.010 C 82.793 101.364, 80.221 99.733, 72.393 92.027 C 55.429 75.327, 40.039 44.641, 32.005 11.500 C 31.338 8.750, 30.354 5.038, 29.819 3.250 L 28.845 0 14.422 0 L 0 0 -0 72.005 M 0.474 72.500 C 0.474 112.100, 0.598 128.154, 0.750 108.176 C 0.901 88.198, 0.901 55.798, 0.750 36.176 C 0.598 16.554, 0.474 32.900, 0.474 72.500" stroke="none" fill="black" fill-rule="evenodd"/>
</svg>