<svg xmlns="http://www.w3.org/2000/svg" width="192" height="144" viewBox="0 0 192 144" version="1.1">
	<path d="M 86.117 9.580 C 84.916 10.961, 84.042 12.634, 84.174 13.296 C 85.136 18.111, 76.177 27, 70.361 27 C 66.713 27, 65.212 29.438, 67.347 31.895 C 70.515 35.538, 71.058 37.754, 69.873 42.201 C 68.786 46.281, 68.875 46.667, 71.614 49.778 C 73.201 51.581, 74.988 54.506, 75.584 56.278 C 76.180 58.050, 77.650 59.995, 78.851 60.601 C 80.053 61.207, 81.325 61.991, 81.678 62.345 C 82.793 63.460, 78.792 67, 76.416 67 C 73.130 67, 70.870 69.636, 71.615 72.602 C 72.050 74.335, 71.467 76.162, 69.636 78.804 C 68.208 80.864, 66.772 84.114, 66.444 86.025 C 65.106 93.833, 63.255 96.362, 56.201 100.023 C 52.515 101.935, 48.453 104.400, 47.172 105.500 C 45.019 107.351, 38.477 108.428, 24.925 109.165 C 20.692 109.395, 17.171 108.115, 16.537 106.117 C 15.793 103.773, 11.672 102.896, 5.069 103.678 L -0 104.279 -0 115.522 L 0 126.766 14.750 131.523 C 22.863 134.140, 34.761 138.017, 41.190 140.140 L 52.881 144 95.690 143.995 L 138.500 143.990 141.138 141.745 C 144.427 138.946, 146 134.281, 146 127.326 C 146 122.476, 145.749 121.855, 143.435 120.975 C 139.731 119.567, 131.555 119.775, 121.476 121.532 C 115.769 122.527, 110.568 122.824, 106.635 122.379 C 101.297 121.775, 100.178 121.248, 97.199 117.929 C 95.339 115.858, 93.826 113.816, 93.835 113.392 C 93.845 112.969, 95.798 111.867, 98.176 110.944 C 104.003 108.684, 105.047 106.303, 104.943 95.500 C 104.896 90.550, 104.879 85.375, 104.905 84 C 104.932 82.625, 104.810 78.350, 104.634 74.500 L 104.313 67.500 100.134 67.191 C 97.793 67.019, 96.215 66.462, 96.546 65.925 C 96.872 65.398, 97.577 65.238, 98.113 65.570 C 98.649 65.901, 99.723 65.645, 100.500 65 C 101.277 64.355, 102.310 64.073, 102.795 64.373 C 103.280 64.673, 104.708 63.086, 105.967 60.845 C 108.648 56.074, 108.419 49.044, 105.374 42.658 C 103.644 39.031, 103.640 38.693, 105.277 35.840 C 107.401 32.139, 107.446 31, 105.469 31 C 104.626 31, 103.679 30.328, 103.364 29.506 C 103.048 28.684, 102.465 28.213, 102.067 28.458 C 101.669 28.704, 98.693 26.227, 95.453 22.953 C 92.213 19.679, 90.011 17, 90.559 17 C 91.107 17, 92.370 17.951, 93.365 19.113 C 95.398 21.487, 96.798 20.726, 97.221 17.015 C 97.441 15.089, 96.707 14.141, 93.753 12.536 C 91.692 11.416, 90.004 9.964, 90.003 9.309 C 89.997 6.983, 88.271 7.104, 86.117 9.580 M 173.415 24.421 C 163.960 28.538, 163.475 41, 172.770 41 C 174.481 41, 176.160 40.550, 176.500 40 C 177.853 37.811, 178.704 39.214, 178.422 43.170 C 178.259 45.463, 177.293 48.500, 176.276 49.920 C 173.171 54.252, 167.611 66.379, 167.765 68.481 C 167.951 71.011, 170.664 72.998, 173.941 73.006 C 175.349 73.009, 178.224 73.490, 180.330 74.075 C 183.343 74.911, 184.013 75.498, 183.471 76.819 C 183.091 77.744, 182.377 82.305, 181.883 86.956 C 181.126 94.093, 181.222 95.545, 182.493 96.256 C 184.382 97.313, 184.443 100.839, 182.609 102.921 C 181.844 103.790, 179.874 107.875, 178.232 112 C 176.589 116.125, 172.715 124.735, 169.622 131.133 C 166.530 137.531, 164 143.043, 164 143.383 C 164 143.722, 170.300 144, 178 144 L 192 144 192 87.326 L 192 30.651 189.585 32.920 C 186.138 36.158, 183 35.007, 183 30.505 C 183 28.066, 182.278 26.577, 180.365 25.073 C 177.300 22.662, 177.429 22.674, 173.415 24.421 M 183.968 54.250 C 183.951 55.487, 183.276 57.374, 182.468 58.441 C 180.340 61.255, 180.639 62, 183.893 62 C 187.022 62, 188 60.577, 188 56.025 C 188 54.384, 187.342 52.961, 186.418 52.607 C 184.105 51.719, 184.003 51.787, 183.968 54.250 M 62.250 108.566 C 59.913 109.967, 58 111.577, 58 112.145 C 58 113.504, 66.243 112.150, 67.235 110.628 C 68.198 109.149, 68.208 105.997, 67.250 106.009 C 66.838 106.015, 64.588 107.165, 62.250 108.566" stroke="none" fill="black" fill-rule="evenodd"/>
</svg>