<svg xmlns="http://www.w3.org/2000/svg" width="192" height="144" viewBox="0 0 192 144" version="1.1">
	<path d="M 0 72 L 0 144 35.389 144 L 70.777 144 71.468 140.250 C 71.848 138.188, 74.148 130.587, 76.579 123.360 C 79.011 116.133, 81 108.901, 81 107.288 C 81 104.284, 78.212 95, 77.310 95 C 77.034 95, 75.614 95.845, 74.154 96.877 C 71.524 98.737, 71.438 98.729, 64.500 95.906 C 60.650 94.340, 56.491 93.045, 55.258 93.029 C 54.024 93.013, 51.866 91.710, 50.462 90.134 C 48.508 87.941, 46.714 87.126, 42.827 86.666 C 35.026 85.742, 26.997 80.738, 32.769 80.398 C 39.185 80.020, 38.858 80.285, 37.885 76.250 C 37.388 74.188, 36.765 69.913, 36.501 66.750 C 36.104 61.989, 36.291 61, 37.590 61 C 38.923 61, 39.056 60.040, 38.476 54.623 C 37.626 46.681, 39.470 44.573, 40.553 52.249 C 40.960 55.137, 41.514 56.825, 41.784 56 C 42.053 55.175, 43.095 53.712, 44.098 52.748 C 45.100 51.784, 46.465 49.084, 47.129 46.748 C 48.952 40.339, 49.645 40.319, 50.389 46.652 C 50.762 49.822, 51.754 53.176, 52.594 54.104 C 54.410 56.110, 54.570 61.118, 53.105 70 C 52.040 76.452, 50.362 78.960, 47.059 79.035 C 46.063 79.058, 46.392 79.565, 47.968 80.437 C 49.350 81.202, 51.828 81.578, 53.599 81.290 C 55.843 80.926, 58.033 81.506, 61.131 83.285 C 68.635 87.592, 69.510 87.580, 70.837 83.150 C 71.477 81.015, 72.010 78.195, 72.022 76.884 C 72.034 75.573, 72.892 73.398, 73.927 72.051 C 75.285 70.284, 75.653 68.639, 75.250 66.151 C 74.841 63.634, 75.133 62.376, 76.327 61.503 C 77.552 60.607, 78.208 57.532, 78.930 49.301 C 79.916 38.066, 82.377 29.495, 85.697 25.731 C 87.460 23.731, 87.446 23.699, 85.088 24.292 C 82.368 24.975, 79 23.549, 79.001 21.715 C 79.002 19.781, 84.825 8, 85.779 8 C 88.585 8, 95.977 11.467, 98.799 14.107 C 101.764 16.881, 102.550 17.133, 106.549 16.597 C 120.871 14.676, 120.001 14.673, 119.988 16.649 C 119.982 17.667, 119.318 20.974, 118.513 23.998 C 117.352 28.363, 117.291 30.162, 118.219 32.728 C 119.203 35.450, 119.075 36.711, 117.410 40.730 C 116.323 43.353, 114.998 45.539, 114.466 45.586 C 110.906 45.905, 110 47.328, 110 52.607 C 110 55.573, 110.450 58, 111 58 C 111.550 58, 112 58.620, 112 59.378 C 112 60.135, 112.749 61.373, 113.666 62.128 C 114.582 62.882, 116.928 65.975, 118.880 69 C 122.263 74.241, 122.417 74.866, 122.167 82.263 C 121.974 87.961, 122.255 90.160, 123.223 90.532 C 125.774 91.511, 141.529 94.121, 144 93.975 C 150.412 93.594, 160.099 93.766, 160.602 94.269 C 161.875 95.542, 158.622 99.156, 154.214 101.367 C 150.316 103.322, 148.202 103.689, 142 103.489 C 137.875 103.356, 131.575 102.523, 128 101.638 C 124.425 100.753, 120.263 100.023, 118.750 100.015 C 117.237 100.007, 116 99.534, 116 98.965 C 116 98.263, 115.356 98.274, 114 99 C 110.509 100.868, 111.312 108.381, 116.331 120.791 C 118.713 126.681, 121.525 134.318, 122.581 137.762 L 124.500 144.024 158.500 143.762 L 192.500 143.500 192.757 71.750 L 193.013 0 96.507 0 L 0 0 0 72 M 0.474 72.500 C 0.474 112.100, 0.598 128.154, 0.750 108.176 C 0.901 88.198, 0.901 55.798, 0.750 36.176 C 0.598 16.554, 0.474 32.900, 0.474 72.500 M 41.750 79.662 C 42.438 79.940, 43.563 79.940, 44.250 79.662 C 44.938 79.385, 44.375 79.158, 43 79.158 C 41.625 79.158, 41.063 79.385, 41.750 79.662 M 111.531 93.293 C 111.103 94.279, 111.034 95.367, 111.376 95.710 C 112.392 96.725, 113.211 95.299, 112.743 93.328 C 112.329 91.581, 112.275 91.580, 111.531 93.293" stroke="none" fill="black" fill-rule="evenodd"/>
</svg>