<svg xmlns="http://www.w3.org/2000/svg" width="192" height="144" viewBox="0 0 192 144" version="1.1">
	<path d="M 157.327 11.649 C 154.672 13.657, 150.909 16.694, 148.964 18.399 C 138.443 27.625, 119.391 41.030, 120.349 38.532 C 121.165 36.406, 119.389 33, 117.465 33 C 116.659 33, 116 33.900, 116 35 C 116 36.780, 115.333 37, 109.950 37 C 101.080 37, 96.501 39.876, 94.128 46.937 C 93.349 49.258, 93.303 50.703, 93.987 51.387 C 95.272 52.672, 95.305 55, 94.039 55 C 93.510 55, 92.602 53.312, 92.022 51.250 C 89.990 44.025, 84.994 40.018, 78 40.004 C 73.553 39.995, 73.465 39.929, 70.574 34.395 C 66.558 26.710, 61.811 23.664, 53.111 23.188 C 47.464 22.880, 45.996 23.169, 43.042 25.175 C 35.056 30.598, 30.205 41.175, 31.626 50.065 C 32.425 55.061, 38.730 62.426, 43.578 64.026 C 45.520 64.667, 49.335 65.174, 52.055 65.153 C 54.775 65.132, 57 65.485, 57 65.939 C 57 66.392, 55.417 67.970, 53.481 69.446 C 51.546 70.923, 50.215 72.538, 50.523 73.037 C 50.831 73.536, 50.328 75.095, 49.406 76.503 C 47.339 79.657, 48.295 80.948, 50.931 78.563 C 53.400 76.328, 55.354 77.454, 54.552 80.649 C 54.184 82.113, 54.550 83.947, 55.471 85.262 C 56.312 86.463, 57.005 89.257, 57.011 91.473 C 57.022 95.618, 58.987 103.239, 61.029 107.053 C 61.865 108.616, 61.883 109.517, 61.093 110.307 C 59.619 111.781, 59.707 117.559, 61.241 120.014 C 62.228 121.595, 62.228 122.405, 61.241 123.986 C 59.649 126.535, 59.649 131.465, 61.241 134.014 C 62.228 135.595, 62.228 136.405, 61.241 137.986 C 60.558 139.079, 60.052 140.991, 60.116 142.236 C 60.203 143.930, 60.347 144.059, 60.689 142.750 C 61.247 140.616, 64 140.408, 64 142.500 C 64 143.325, 64.450 144, 65 144 C 66.344 144, 66.262 141.669, 64.806 138.473 C 63.880 136.441, 63.880 135.422, 64.806 133.939 C 66.339 131.485, 66.339 126.515, 64.806 124.061 C 63.880 122.578, 63.880 121.559, 64.806 119.527 C 66.428 115.966, 66.307 112.450, 64.500 110.643 C 60.843 106.986, 63.027 104.733, 72.321 102.578 C 80.725 100.629, 80.285 100.598, 78.981 103.035 C 78.239 104.421, 78.114 110.129, 78.589 120.935 C 79.261 136.216, 79.205 136.933, 77.062 140.400 L 74.837 144 103.324 144 L 131.811 144 136.828 137.232 C 139.588 133.509, 142.148 129.258, 142.518 127.785 C 143.666 123.212, 141.099 118.111, 133.770 110.395 L 126.774 103.030 128.481 92.765 C 130.152 82.718, 132.737 71.306, 133.710 69.685 C 133.979 69.237, 134.956 69.555, 135.882 70.393 C 137.412 71.778, 137.802 71.621, 140.151 68.677 C 144.353 63.411, 147.134 57.097, 147.710 51.517 C 148.193 46.845, 148 46.114, 145.903 44.644 C 142.758 42.441, 139.205 42.578, 135.137 45.058 C 129.655 48.400, 130.214 46.352, 136.526 39.974 C 140.680 35.776, 143.190 34.005, 144.969 34.017 C 148.209 34.039, 156.910 29.880, 156.961 28.285 C 156.983 27.617, 156.019 26.545, 154.820 25.904 C 152.761 24.802, 152.739 24.664, 154.420 23.435 C 155.399 22.719, 155.897 21.643, 155.527 21.043 C 155.156 20.444, 156.610 17.826, 158.757 15.227 C 165.729 6.784, 165.273 5.641, 157.327 11.649 M 86.601 68.010 C 82.575 72.113, 75.414 73.116, 68.811 70.501 C 66.253 69.489, 65.216 76.154, 67.411 79.504 C 68.462 81.108, 68.634 82, 67.894 82 C 67.083 82, 66.948 83.549, 67.436 87.232 C 67.818 90.109, 68.233 92.566, 68.358 92.691 C 68.703 93.036, 84.200 88.112, 86.578 86.903 C 87.937 86.212, 89.435 83.427, 90.908 78.852 C 93.043 72.224, 93.076 71.680, 91.534 68.429 C 90.638 66.543, 89.815 65.013, 89.703 65.028 C 89.591 65.043, 88.195 66.385, 86.601 68.010 M 61 114.893 C 61 115.934, 61.675 117.045, 62.500 117.362 C 63.584 117.777, 64 117.252, 64 115.469 C 64 113.941, 63.428 113, 62.500 113 C 61.675 113, 61 113.852, 61 114.893 M 108.649 119.472 C 107.485 122.506, 107.966 133.706, 109.377 136.426 C 111.251 140.039, 111.773 138.122, 111.447 128.820 C 111.160 120.620, 109.867 116.299, 108.649 119.472 M 123.995 122.514 C 121.990 127.786, 123.486 132.378, 126.195 129.274 C 129.675 125.286, 129.939 123.612, 127.390 121.699 C 125.024 119.924, 124.975 119.936, 123.995 122.514 M 62 129.333 C 62 130.741, 62.595 131.667, 63.500 131.667 C 64.405 131.667, 65 130.741, 65 129.333 C 65 127.926, 64.405 127, 63.500 127 C 62.595 127, 62 127.926, 62 129.333 M 110.079 134.583 C 110.127 135.748, 110.364 135.985, 110.683 135.188 C 110.972 134.466, 110.936 133.603, 110.604 133.271 C 110.272 132.939, 110.036 133.529, 110.079 134.583" stroke="none" fill="black" fill-rule="evenodd"/>
</svg>