<svg xmlns="http://www.w3.org/2000/svg" width="192" height="144" viewBox="0 0 192 144" version="1.1">
	<path d="M 0 72 L 0 144 6 144 L 12 144 12 132.526 C 12 121.986, 11.745 120.419, 8.864 113.276 C 3.699 100.472, 1.903 92.413, 1.334 79.500 C 0.674 64.518, 2.622 50.872, 7.501 36.290 C 10.189 28.257, 10.762 25.418, 9.904 24.384 C 8.409 22.582, 9.484 19.995, 11.719 20.018 C 14.323 20.045, 29.760 26.575, 34.263 29.555 C 41.307 34.217, 81.004 48.671, 77.707 45.373 C 77.362 45.028, 77.748 43.453, 78.566 41.873 C 79.758 39.567, 79.790 39, 78.725 39 C 77.996 39, 76.223 38.445, 74.785 37.767 L 72.172 36.533 79.901 28.917 C 84.152 24.728, 89.751 20.058, 92.343 18.539 L 97.055 15.778 101.778 17.761 C 104.375 18.852, 107.685 20.022, 109.133 20.362 C 113.842 21.466, 117.643 26.047, 119.043 32.303 C 120.273 37.798, 120.231 38.125, 117.988 40.513 C 116.703 41.881, 114.797 43, 113.752 43 C 112.478 43, 111.967 43.576, 112.200 44.750 C 112.413 45.824, 111.051 47.757, 108.672 49.756 L 104.797 53.011 107.649 54.259 C 109.217 54.946, 111.625 56.259, 113 57.177 C 116.491 59.508, 140.754 65.832, 145 65.517 C 148.454 65.260, 155.952 67.556, 157.080 69.216 C 157.400 69.685, 165.387 71.714, 174.830 73.724 L 192 77.378 192 81.296 C 192 84.405, 191.683 85.093, 190.467 84.626 C 188.410 83.836, 167.764 77.459, 161.487 75.674 L 156.473 74.248 152.763 78.514 C 149.523 82.239, 147.454 83.368, 136.444 87.423 C 128.054 90.513, 122.609 91.971, 120.168 91.783 C 116.621 91.509, 116.490 91.618, 116.199 95.086 C 116.005 97.405, 116.446 99.126, 117.449 99.958 C 118.302 100.666, 119 102.452, 119 103.927 C 119 106.391, 120.745 109.515, 127.421 119 C 130.483 123.351, 130.610 125, 127.883 125 C 126.099 125, 125.859 125.431, 126.354 127.750 C 126.677 129.262, 127.472 133.544, 128.120 137.264 L 129.298 144.028 160.899 143.764 L 192.500 143.500 192.757 71.750 L 193.013 0 96.507 0 L 0 0 0 72 M 0.474 72.500 C 0.474 112.100, 0.598 128.154, 0.750 108.176 C 0.901 88.198, 0.901 55.798, 0.750 36.176 C 0.598 16.554, 0.474 32.900, 0.474 72.500 M 27.306 42.162 C 21.545 56.044, 19.992 62.705, 18.464 80.077 C 17.730 88.419, 19.197 97.527, 23.523 111.500 C 26.587 121.397, 26.590 122.608, 23.572 129.434 C 22.236 132.454, 20.999 136.854, 20.822 139.212 L 20.500 143.500 34 143.768 L 47.500 144.037 54.544 137.268 C 58.417 133.546, 65.842 127.267, 71.044 123.316 C 83.542 113.821, 85.501 112.030, 90.031 105.958 C 94.612 99.818, 94.436 98.967, 87.250 92.523 C 82.854 88.580, 82 87.257, 82 84.387 C 82 82.502, 83.058 79.282, 84.352 77.230 C 86.676 73.543, 87.195 71.726, 88.977 61.027 C 89.871 55.655, 89.573 53.570, 88.196 55.566 C 86.732 57.687, 81.109 56.392, 78.273 53.282 C 76.151 50.956, 71.037 48.535, 56.500 42.976 C 46.050 38.980, 35.892 35.511, 33.926 35.267 L 30.351 34.823 27.306 42.162 M 115 63.890 C 115 64.498, 116.357 67.866, 118.015 71.376 C 119.673 74.886, 120.768 78.442, 120.447 79.278 C 119.446 81.886, 121.205 81.889, 131.001 79.301 C 141.925 76.415, 142.884 75.846, 142.269 72.626 C 141.869 70.532, 140.465 69.905, 129.886 67.092 C 123.323 65.347, 117.290 63.665, 116.477 63.353 C 115.665 63.041, 115 63.283, 115 63.890 M 90.510 82.984 C 89.773 84.177, 90.709 86, 92.059 86 C 93.276 86, 93.284 83.293, 92.069 82.543 C 91.557 82.226, 90.856 82.425, 90.510 82.984" stroke="none" fill="black" fill-rule="evenodd"/>
</svg>