<svg xmlns="http://www.w3.org/2000/svg" width="192" height="144" viewBox="0 0 192 144" version="1.1">
	<path d="M -0 72.005 L -0 144.010 96.250 143.755 L 192.500 143.500 192.757 71.750 L 193.013 0 96.507 0 L 0 0 -0 72.005 M 0.474 72.500 C 0.474 112.100, 0.598 128.154, 0.750 108.176 C 0.901 88.198, 0.901 55.798, 0.750 36.176 C 0.598 16.554, 0.474 32.900, 0.474 72.500 M 154.250 69.491 C 150.244 71.232, 150.161 72.822, 153.890 76.394 C 157.144 79.512, 160.679 80.479, 176.397 82.552 C 192.573 84.686, 192.001 84.789, 191.996 79.750 L 191.992 75.500 176.746 71.721 C 159.926 67.551, 158.938 67.453, 154.250 69.491" stroke="none" fill="black" fill-rule="evenodd"/>
</svg>