<svg xmlns="http://www.w3.org/2000/svg" width="192" height="144" viewBox="0 0 192 144" version="1.1">
	<path d="M 0 72 L 0 144 39.378 144 L 78.757 144 79.792 140.250 C 80.361 138.188, 82.356 131.059, 84.224 124.408 C 87.054 114.335, 87.414 111.997, 86.377 110.408 C 84.628 107.725, 87.062 102, 89.952 102 C 92.503 102, 92.520 102.187, 89.421 96.214 C 86.171 89.949, 85.345 84.014, 87.019 78.942 C 88.144 75.535, 88.077 74.209, 86.523 69.078 C 85.536 65.817, 85.025 62.378, 85.387 61.434 C 86.192 59.335, 83.524 55, 81.427 55 C 80.588 55, 78.579 55.684, 76.963 56.519 C 71.201 59.499, 64.935 54.378, 62.639 44.813 C 61.890 41.696, 64.816 35.984, 68.300 33.760 C 74.087 30.067, 79.512 28.809, 89.161 28.924 C 94.474 28.987, 99.925 28.535, 101.275 27.921 C 102.625 27.306, 106.034 24.184, 108.851 20.983 C 114.723 14.313, 118.890 12.450, 125.875 13.374 C 129.016 13.790, 130.019 13.677, 129 13.022 C 127.777 12.235, 127.729 11.728, 128.740 10.278 C 129.421 9.300, 130.996 6.816, 132.240 4.758 C 133.483 2.699, 134.816 1.012, 135.202 1.008 C 135.771 1.001, 135.581 7.076, 134.952 9 C 134.862 9.275, 134.870 10.736, 134.969 12.247 C 135.118 14.509, 134.828 14.881, 133.325 14.350 C 131.091 13.561, 132.099 14.584, 137.356 18.437 C 142.208 21.993, 143.996 26.233, 144.014 34.218 C 144.021 37.673, 144.297 41.508, 144.628 42.740 C 144.958 43.972, 148.367 47.306, 152.203 50.150 C 162.475 57.765, 169.778 68.160, 169.593 74.900 C 169.523 77.455, 169.003 78.402, 167.500 78.709 C 164.706 79.279, 163.705 79.311, 162.125 78.877 C 159.938 78.277, 159.766 80.490, 161.805 83.008 C 163.850 85.533, 166 85.017, 166 82 C 166 80.965, 166.498 79.810, 167.107 79.434 C 167.883 78.954, 167.997 79.759, 167.489 82.125 C 166.171 88.264, 165.123 88.470, 160.445 83.510 L 157.154 80.021 151.827 82.501 C 148.897 83.865, 144.808 84.985, 142.739 84.990 C 137.841 85.003, 130.108 81.331, 128.748 78.347 C 128.160 77.056, 127.354 76, 126.956 76 C 126.559 76, 125.998 75.101, 125.711 74.003 C 125.120 71.743, 121.486 70.060, 118.745 70.777 C 117.089 71.210, 116.975 72.067, 117.542 79.878 C 117.886 84.620, 118.784 90.525, 119.536 93 C 123.415 105.763, 124.027 110.186, 124.059 125.680 C 124.080 135.805, 123.716 141.595, 123.046 141.818 C 122.471 142.010, 122 142.585, 122 143.096 C 122 143.656, 136.012 143.921, 157.250 143.763 L 192.500 143.500 192.757 71.750 L 193.013 0 96.507 0 L 0 0 0 72 M 0.474 72.500 C 0.474 112.100, 0.598 128.154, 0.750 108.176 C 0.901 88.198, 0.901 55.798, 0.750 36.176 C 0.598 16.554, 0.474 32.900, 0.474 72.500 M 66 46.865 C 66 50.108, 69.096 54.578, 71.976 55.492 C 73.943 56.117, 80 53.593, 80 52.149 C 80 49.998, 70.835 44, 67.550 44 C 66.511 44, 66 44.944, 66 46.865 M 86 56.785 C 86 58.136, 90.325 64.288, 91.559 64.692 C 92.801 65.099, 92.609 59.178, 91.342 58.005 C 89.936 56.702, 86 55.804, 86 56.785 M 89 67.753 C 89 71.262, 90.221 76, 91.125 76 C 92.631 76, 92.098 68.326, 90.500 67 C 89.252 65.964, 89 66.090, 89 67.753 M 95 66.882 C 95 67.432, 95.450 68.160, 96 68.500 C 96.550 68.840, 97 68.668, 97 68.118 C 97 67.568, 96.550 66.840, 96 66.500 C 95.450 66.160, 95 66.332, 95 66.882 M 131.377 71.999 C 127.588 72.459, 127.322 72.683, 128.096 74.752 C 129.333 78.065, 137.669 83.007, 141.946 82.964 C 143.901 82.945, 147.726 81.888, 150.447 80.616 L 155.393 78.304 152.819 76.617 C 147.701 73.264, 138.062 71.188, 131.377 71.999 M 163.166 75.876 C 162.102 76.551, 162.169 76.851, 163.498 77.361 C 165.825 78.254, 166 78.193, 166 76.500 C 166 74.817, 165.137 74.627, 163.166 75.876" stroke="none" fill="black" fill-rule="evenodd"/>
</svg>