<svg xmlns="http://www.w3.org/2000/svg" width="192" height="144" viewBox="0 0 192 144" version="1.1">
	<path d="M 165.941 18.291 C 162.949 20.101, 157.048 24.143, 152.830 27.272 C 142.767 34.735, 128 43.221, 128 41.540 C 128 40.828, 127.291 39.656, 126.424 38.937 C 124.852 37.632, 123.790 38.342, 122.710 41.418 C 122.523 41.952, 120.439 41.844, 117.715 41.159 C 112.475 39.839, 104.740 41.021, 101.921 43.571 C 99.280 45.961, 97.408 52.822, 98.792 55.038 C 99.532 56.223, 99.600 57.129, 98.980 57.513 C 97.449 58.458, 96.002 57.098, 95.978 54.691 C 95.943 51.192, 92.492 44.532, 89.491 42.171 C 87.774 40.821, 85.315 40, 82.988 40 C 78.716 40, 78.014 39.313, 75.594 32.761 C 72.365 24.020, 62.245 18.027, 53.897 19.910 C 48.947 21.027, 44.509 24.532, 40.876 30.193 C 33.733 41.325, 36.822 53.297, 48.354 59.181 C 51.582 60.828, 53.518 61.126, 57.956 60.662 C 61.220 60.321, 64.130 60.516, 65.007 61.135 C 66.263 62.021, 66.227 62.101, 64.777 61.636 C 63.783 61.317, 61.879 62.061, 60.277 63.393 C 58.750 64.664, 56.487 66.236, 55.250 66.887 C 54.013 67.538, 53 68.977, 53 70.085 C 53 71.193, 52.343 73.370, 51.540 74.923 C 49.842 78.206, 50.449 79.361, 53.027 77.751 C 55.280 76.344, 58.782 78.618, 57.042 80.358 C 55.724 81.676, 55.686 84.727, 56.983 85.167 C 57.524 85.350, 58.431 89.984, 58.998 95.465 C 59.565 100.945, 60.406 105.806, 60.866 106.266 C 61.855 107.255, 61.146 111.792, 59.881 112.574 C 58.528 113.410, 58.896 118.278, 60.468 120.353 C 61.477 121.686, 61.609 122.899, 60.936 124.669 C 59.702 127.915, 59.739 133.721, 61 134.500 C 62.365 135.344, 62.258 138.614, 60.788 140.968 C 60.121 142.036, 59.958 143.267, 60.425 143.705 C 60.892 144.142, 61.475 143.938, 61.720 143.250 C 61.966 142.562, 62.767 142, 63.500 142 C 64.233 142, 65.060 142.562, 65.338 143.250 C 65.637 143.992, 65.874 143.783, 65.921 142.736 C 65.964 141.766, 65.442 140.079, 64.759 138.986 C 63.772 137.405, 63.772 136.595, 64.759 135.014 C 66.375 132.427, 66.331 129.017, 64.632 124.975 C 63.479 122.234, 63.477 121.310, 64.619 119.111 C 65.991 116.469, 65.785 114.351, 63.757 110.230 C 62.167 106.998, 63.850 105.718, 71.293 104.500 L 77.502 103.484 77.232 118.492 C 77.084 126.746, 76.859 135.863, 76.731 138.751 L 76.500 144.003 92.750 144.001 C 109.384 144, 111.147 143.547, 107.750 140.150 C 106.962 139.362, 106.509 136.055, 106.523 131.200 C 106.541 125.176, 107.036 122.575, 108.794 119.250 C 110.029 116.913, 111.211 115, 111.420 115 C 111.899 115, 114.703 127.985, 115.553 134.138 C 116.037 137.644, 115.776 139.412, 114.482 141.388 L 112.770 144 123.240 144 L 133.710 144 138.855 138.560 C 142.951 134.229, 144 132.434, 144 129.756 C 144 125.752, 139.982 119.156, 134.127 113.547 C 131.057 110.607, 130 108.813, 130.001 106.547 C 130.003 102.059, 132.625 88.177, 134.448 83 C 137.317 74.856, 136.985 75.290, 138.647 77.500 C 140.113 79.448, 140.248 79.393, 143.854 75.371 C 151.933 66.362, 155.313 54.734, 150.777 51.557 C 147.977 49.595, 142.975 49.552, 140.441 51.468 C 138.359 53.043, 134.615 53.542, 135.167 52.171 C 135.350 51.715, 138.516 48.797, 142.202 45.687 C 148.074 40.730, 149.286 40.107, 151.996 40.649 C 153.933 41.037, 156.285 40.681, 158.294 39.698 C 160.057 38.834, 162.400 37.841, 163.500 37.490 C 165.394 36.887, 165.354 36.727, 162.741 34.467 C 160.022 32.115, 160.012 32.064, 162.055 30.970 C 163.693 30.094, 163.885 29.566, 162.966 28.459 C 162.034 27.336, 162.944 25.862, 167.554 21.029 C 170.717 17.713, 172.872 15, 172.343 15 C 171.815 15, 168.934 16.481, 165.941 18.291 M 87.500 68.526 C 82.985 71.307, 76.983 71.762, 72.901 69.632 C 70.405 68.329, 70.254 68.410, 69.077 71.663 C 68.352 73.670, 68.147 76.365, 68.576 78.275 C 68.973 80.049, 69.344 84.050, 69.399 87.167 C 69.455 90.284, 69.785 93.120, 70.134 93.468 C 70.961 94.294, 86.905 90.249, 89.500 88.555 C 90.600 87.837, 92.578 84.198, 93.896 80.468 C 96.098 74.238, 96.159 73.589, 94.646 72.483 C 93.741 71.821, 93 70.092, 93 68.640 C 93 65.419, 92.560 65.410, 87.500 68.526 M 61 115.667 C 61 117.074, 61.595 118, 62.500 118 C 63.405 118, 64 117.074, 64 115.667 C 64 114.259, 63.405 113.333, 62.500 113.333 C 61.595 113.333, 61 114.259, 61 115.667 M 62.250 127.662 C 60.508 128.365, 60.684 131.665, 62.500 132.362 C 63.626 132.794, 64 132.197, 64 129.969 C 64 128.336, 63.888 127.036, 63.750 127.079 C 63.612 127.122, 62.938 127.385, 62.250 127.662" stroke="none" fill="black" fill-rule="evenodd"/>
</svg>