<svg xmlns="http://www.w3.org/2000/svg" width="192" height="144" viewBox="0 0 192 144" version="1.1">
	<path d="M 0 72 L 0 144 23.083 144 C 41.101 144, 46.077 143.726, 45.759 142.750 C 45.535 142.063, 43.278 141.093, 40.745 140.595 C 37.154 139.890, 36.011 139.182, 35.560 137.381 C 35.131 135.673, 33.875 134.798, 30.740 134.020 C 28.408 133.442, 25.076 132.250, 23.335 131.373 C 21.594 130.495, 19.679 130.080, 19.078 130.452 C 16.125 132.277, 17.336 123.278, 20.418 120.500 C 21.028 119.950, 22.342 118.228, 23.337 116.673 C 24.333 115.118, 26.689 112.936, 28.574 111.824 C 30.458 110.712, 32 109.300, 32 108.686 C 32 108.071, 34.137 105.388, 36.750 102.722 C 41.240 98.141, 41.398 97.799, 39.629 96.489 C 37.280 94.748, 38.025 89.509, 41.196 85.478 C 43.139 83.008, 43.249 82.201, 42.366 76.865 C 41.551 71.936, 41.679 70.367, 43.149 67.238 C 44.781 63.765, 44.788 63.411, 43.248 62.240 C 41.873 61.195, 41.425 61.280, 40.616 62.740 C 40.080 63.708, 38.485 65.639, 37.071 67.030 C 35.657 68.422, 33.964 70.447, 33.309 71.530 C 32.177 73.402, 32.114 73.375, 32.042 71 C 31.977 68.852, 31.549 69.203, 29 73.500 C 27.369 76.250, 26.010 77.825, 25.982 77 C 25.950 76.091, 25.366 76.485, 24.500 78 C 23.327 80.053, 23.065 80.168, 23.035 78.643 C 23.009 77.282, 22.532 76.971, 21.250 77.479 C 17.554 78.942, 13.908 78.924, 13.339 77.440 C 12.585 75.475, 14.576 67.799, 17.496 61.416 C 19.141 57.818, 21.910 54.478, 26.647 50.378 C 36.951 41.460, 38.882 39.184, 39.987 34.659 C 40.546 32.372, 41.902 28.836, 43.001 26.802 C 45.502 22.176, 45.513 21, 43.059 21 C 39.807 21, 39.759 19.176, 42.967 17.517 C 46.880 15.494, 46.789 14.398, 42.500 11.867 C 40.575 10.732, 39 9.166, 39 8.388 C 39 7.192, 39.571 7.212, 42.696 8.518 C 44.729 9.367, 47.882 11.198, 49.702 12.586 C 51.522 13.975, 53.419 14.859, 53.916 14.552 C 54.413 14.245, 55.551 14.274, 56.446 14.618 C 57.915 15.181, 57.925 15.466, 56.547 17.569 C 54.897 20.088, 55.110 20.391, 59.222 21.374 C 64.655 22.672, 67.641 28.216, 64.564 31.293 C 63.758 32.100, 63.505 33.117, 63.987 33.614 C 65.409 35.081, 63.875 40.220, 61.858 40.747 C 59.382 41.395, 59.516 42.642, 62.348 45.298 C 63.639 46.509, 65.831 49.300, 67.218 51.500 C 68.606 53.700, 70.699 56.357, 71.870 57.405 C 74.395 59.663, 74.497 60.819, 72.506 64.636 C 70.568 68.351, 70.583 77.891, 72.541 87.185 C 79.063 118.136, 80.112 136.247, 75.484 138.006 C 74.268 138.468, 73.001 139.556, 72.668 140.423 C 72.218 141.596, 70.645 142, 66.531 142 C 63.489 142, 61 142.450, 61 143 C 61 143.649, 74.333 144, 99 144 C 136.072 144, 137 143.952, 137 142.040 C 137 139.893, 132.694 135.323, 129.445 134.021 C 126.024 132.650, 125.177 124.302, 125.739 97.500 C 126.422 65, 126.379 63.634, 124.575 60.146 C 123.709 58.470, 123 56.879, 123 56.610 C 123 56.150, 127.019 51.110, 133.951 42.878 C 137.313 38.885, 137.729 37.217, 135.570 36.388 C 133.668 35.659, 131.772 30.259, 133.125 29.423 C 133.741 29.042, 133.489 28.093, 132.475 26.972 C 131.453 25.843, 131.066 24.368, 131.463 23.116 C 132.375 20.244, 137.729 16, 140.441 16 C 142.242 16, 143.124 14.990, 144.589 11.250 L 146.449 6.500 147 10 L 147.551 13.500 149.424 8.716 C 150.482 6.015, 151.777 4.165, 152.399 4.466 C 153.004 4.759, 154.287 5.276, 155.250 5.616 C 157.650 6.463, 157.444 7.663, 154.575 9.543 C 153.241 10.417, 151.700 12.422, 151.150 14 C 150.327 16.360, 150.507 17.277, 152.171 19.184 C 154.888 22.300, 156.607 25.785, 157.504 30 C 158.372 34.079, 160.545 37.412, 167.280 45 C 173.843 52.393, 175.610 56.127, 177.077 65.707 C 178.080 72.262, 178.071 74.414, 177.031 76.925 C 176.040 79.317, 175.443 79.782, 174.436 78.947 C 173.491 78.162, 172.515 78.189, 170.917 79.044 C 169.083 80.026, 168.546 79.941, 167.763 78.541 C 166.901 77, 166.668 76.991, 165.072 78.435 C 163.472 79.883, 163.177 79.853, 161.568 78.075 C 160.363 76.744, 159.998 75.250, 160.404 73.317 C 161.165 69.700, 159.479 66.568, 158.366 69.528 C 157.958 70.613, 157.086 71.950, 156.428 72.500 C 155.770 73.050, 155.015 74.748, 154.750 76.273 C 154.367 78.477, 154.805 79.364, 156.884 80.600 C 158.323 81.455, 161.300 84.576, 163.500 87.535 C 165.700 90.494, 167.827 92.935, 168.227 92.958 C 168.626 92.981, 170.732 95.250, 172.906 98 C 177.178 103.405, 180.118 111.694, 180.354 119 C 180.522 124.182, 177.658 128, 173.604 128 C 172.117 128, 170.041 129.329, 168.134 131.500 C 165.683 134.292, 164.327 135, 161.435 135 C 156.173 135, 152 137.758, 152 141.236 L 152 144.041 172.250 143.771 L 192.500 143.500 192.757 71.750 L 193.013 0 96.507 0 L 0 0 0 72 M 0.474 72.500 C 0.474 112.100, 0.598 128.154, 0.750 108.176 C 0.901 88.198, 0.901 55.798, 0.750 36.176 C 0.598 16.554, 0.474 32.900, 0.474 72.500 M 48.197 52.947 C 46.999 54.568, 46.393 56.125, 46.850 56.408 C 47.599 56.870, 52 51.856, 52 50.540 C 52 49.126, 50.163 50.288, 48.197 52.947 M 45.742 59.125 C 44.784 59.661, 44 60.527, 44 61.050 C 44 62.657, 46.748 62.100, 47.417 60.357 C 48.239 58.212, 47.865 57.937, 45.742 59.125 M 141.444 66.446 C 140.988 68.876, 141.221 71.074, 142.119 72.827 C 143.456 75.437, 143.496 75.373, 143.802 70.107 C 144.178 63.611, 142.473 60.963, 141.444 66.446 M 53.572 68.187 C 52.703 70.941, 52.275 79.052, 52.975 79.484 C 54.126 80.196, 56 75.256, 56 71.512 C 56 68.069, 54.330 65.782, 53.572 68.187 M 142.370 140.250 C 142.701 141.488, 142.979 142.838, 142.986 143.250 C 142.994 143.662, 143.636 144, 144.413 144 C 145.568 144, 145.620 143.452, 144.694 141 C 143.382 137.524, 141.474 136.908, 142.370 140.250" stroke="none" fill="black" fill-rule="evenodd"/>
</svg>