<svg xmlns="http://www.w3.org/2000/svg" width="192" height="144" viewBox="0 0 192 144" version="1.1">
	<path d="M 0 71.983 L 0 144 53.984 144 L 107.968 144 106.268 140.435 C 104.816 137.391, 104.401 137.099, 103.424 138.435 C 101.819 140.630, 101.440 140.447, 99.614 136.599 C 98.593 134.447, 97.992 130.498, 97.978 125.849 C 97.960 120.098, 97.530 117.956, 96 116 C 94.924 114.625, 94.014 112.600, 93.977 111.500 C 93.940 110.400, 93.330 108.150, 92.621 106.500 L 91.332 103.500 89.666 106.700 C 88.750 108.461, 88 110.520, 88 111.276 C 88 112.032, 86.830 113.742, 85.401 115.076 C 83.024 117.292, 82.855 117.965, 83.429 122.920 C 83.898 126.961, 83.605 129.441, 82.279 132.666 C 80.454 137.104, 79.261 137.861, 77.255 135.855 C 76.396 134.996, 75.945 135.369, 75.447 137.355 C 75.082 138.810, 74.382 140, 73.892 140 C 73.401 140, 73.113 140.563, 73.250 141.250 C 73.547 142.734, 73.716 142.730, 54.038 141.643 C 39.118 140.819, 34 139.950, 34 138.241 C 34 137.796, 35.355 135.872, 37.011 133.966 C 46.712 122.801, 47.850 120.195, 46.182 112.968 C 45.054 108.080, 45.927 78.293, 47.952 52.598 C 48.935 40.129, 48.625 41.020, 56.062 29.247 C 57.921 26.303, 56.473 23.887, 51.948 22.383 C 46.188 20.468, 47.117 18.316, 54.631 16.170 C 59.333 14.828, 62.547 12.001, 59.372 11.999 C 58.343 11.999, 54.650 10.650, 51.166 9.002 C 44.299 5.753, 43.447 3.500, 49.086 3.500 C 51.454 3.500, 52.500 3.040, 52.500 2 C 52.500 0.712, 48.798 0.462, 26.250 0.233 L 0 -0.033 0 71.983 M 60.592 2.500 C 62.548 5.485, 63.589 5.637, 64.930 3.131 C 66.191 0.775, 65.419 0, 61.810 0 C 58.993 0, 58.977 0.035, 60.592 2.500 M 70.710 2 C 70.032 4.594, 71.976 4.595, 76.226 2.004 L 79.500 0.007 75.367 0.004 C 72.072 0.001, 71.127 0.406, 70.710 2 M 81.150 3.257 C 80.043 5.049, 77.056 7.830, 74.514 9.437 C 69.143 12.832, 69.798 13.761, 78.139 14.578 C 85.991 15.348, 87.156 16.833, 82 19.500 C 79.687 20.696, 79 21.732, 79 24.026 C 79 25.662, 79.449 27, 79.997 27 C 81.595 27, 88.996 34.091, 90.565 37.125 C 92.365 40.606, 92.391 48.941, 90.624 55.580 C 89.880 58.373, 89.192 64.351, 89.096 68.863 C 88.927 76.769, 88.992 77.022, 90.873 75.847 C 92.451 74.862, 93.644 74.949, 97.090 76.303 C 99.436 77.225, 101.469 77.864, 101.609 77.725 C 102.609 76.725, 106.403 61.198, 107.039 55.500 C 108.005 46.854, 109.444 41.976, 111.980 38.753 C 113.749 36.504, 113.824 35.709, 112.797 30.182 C 111.464 23.016, 113.205 10, 115.496 10 C 116.518 10, 116.689 11.773, 116.266 17.955 C 115.897 23.335, 116.139 26.922, 117.015 29.036 C 118.303 32.146, 118.336 32.157, 124 31.500 C 131.685 30.608, 136.994 32.200, 141.373 36.707 L 144.953 40.393 147.502 37.998 C 148.904 36.681, 150.656 34.392, 151.394 32.912 C 152.617 30.460, 152.477 29.805, 149.803 25.509 C 148.190 22.917, 147.144 20.523, 147.479 20.188 C 147.814 19.853, 149.900 19.651, 152.113 19.739 C 155.700 19.882, 156.276 19.574, 157.393 16.916 L 158.648 13.932 159.803 16.466 C 160.438 17.860, 161.796 19, 162.824 19 C 165.676 19, 168.652 22.742, 167.391 24.742 C 165.443 27.830, 163.010 28.671, 161.581 26.750 C 159.977 24.594, 159 24.510, 159 26.529 C 159 29.019, 153.364 39.262, 150.212 42.500 C 147.505 45.280, 147.323 45.940, 147.727 51.500 C 148.148 57.294, 143.347 91.990, 141.017 99.993 C 140.458 101.915, 140 105.997, 140 109.065 C 140 112.133, 139.278 116.764, 138.395 119.355 C 135.202 128.726, 138.531 134.848, 148.493 137.925 C 152.005 139.010, 156.688 140.821, 158.900 141.949 C 162.408 143.739, 164.773 144, 177.460 144 L 192 144 192 72 L 192 0 137.582 0 L 83.163 0 81.150 3.257" stroke="none" fill="black" fill-rule="evenodd"/>
</svg>