<svg xmlns="http://www.w3.org/2000/svg" width="192" height="144" viewBox="0 0 192 144" version="1.1">
	<path d="M 176.001 1.250 C 176.001 1.938, 177.726 4.173, 179.834 6.218 C 183.097 9.383, 183.668 10.572, 183.675 14.218 C 183.687 20.547, 187.963 28, 191.582 28 C 191.812 28, 192 21.700, 192 14 L 192 0 184 0 C 178.266 0, 176 0.354, 176.001 1.250 M 73.449 15.083 C 73.087 15.669, 73.730 17.149, 74.879 18.371 L 76.968 20.595 73.484 20.188 C 70.310 19.817, 70 20.008, 70 22.332 C 70 23.734, 70.430 25.148, 70.956 25.473 C 71.482 25.798, 71.659 26.726, 71.348 27.534 C 70.460 29.849, 71.882 34, 73.563 34 C 74.402 34, 75.015 34.563, 74.925 35.250 C 74.472 38.740, 75.373 39.787, 80.750 42.013 C 83.912 43.323, 88.525 46.273, 91 48.569 C 93.475 50.865, 96.513 53.056, 97.750 53.439 C 98.987 53.822, 100 54.554, 100 55.067 C 100 55.580, 100.734 56, 101.631 56 C 102.936 56, 103.148 56.699, 102.694 59.500 C 102.186 62.629, 102.364 63, 104.369 63 C 106.492 63, 117.174 66.138, 121.500 68.032 C 122.600 68.514, 125.412 69.450, 127.750 70.112 C 130.088 70.775, 132 71.695, 132 72.158 C 132 72.621, 132.519 73, 133.154 73 C 133.788 73, 136.766 74.163, 139.772 75.586 C 142.778 77.008, 146.020 77.966, 146.977 77.716 C 149.731 76.996, 152.120 78.780, 151.094 80.790 C 147.514 87.804, 144.929 94.392, 145.201 95.806 C 145.379 96.731, 147.690 98.905, 150.336 100.636 C 152.982 102.368, 154.730 103.945, 154.220 104.142 C 153.658 104.359, 153.702 106.700, 154.331 110.084 C 155.252 115.040, 155.793 115.912, 159.133 117.834 C 161.934 119.446, 164.556 120, 169.385 120 L 175.873 120 176.187 123.156 C 176.445 125.755, 177.118 126.522, 180 127.503 C 181.925 128.158, 185.412 128.946, 187.750 129.252 L 192 129.810 192 108.924 C 192 85.318, 193.035 88.085, 183.505 86.202 C 180.985 85.704, 179.392 84.794, 179.188 83.738 C 178.903 82.260, 179.638 82.135, 185.433 82.676 L 192 83.289 192 69.190 L 192 55.091 188.366 54.409 C 185.837 53.934, 183.926 54.203, 182.081 55.293 C 179.845 56.614, 177.807 56.718, 169.050 55.957 C 158.246 55.019, 145.378 51.312, 123.548 42.851 C 118.074 40.729, 112.899 39.210, 112.048 39.474 C 110.026 40.101, 108.398 38.943, 95.077 27.400 C 85.738 19.306, 74.717 13.030, 73.449 15.083 M 168.750 124.662 C 169.438 124.940, 170.563 124.940, 171.250 124.662 C 171.938 124.385, 171.375 124.158, 170 124.158 C 168.625 124.158, 168.063 124.385, 168.750 124.662" stroke="none" fill="black" fill-rule="evenodd"/>
</svg>