<svg xmlns="http://www.w3.org/2000/svg" width="192" height="144" viewBox="0 0 192 144" version="1.1">
	<path d="M 0 72 L 0 144 56.939 144 L 113.877 144 114.580 139.312 C 115.336 134.275, 114.432 113.289, 113.337 110.435 C 112.768 108.953, 113.091 108.806, 115.586 109.413 C 122.496 111.093, 124.323 111.169, 128.641 109.961 C 132.168 108.973, 134.080 107.575, 137.065 103.799 C 141.622 98.033, 142.786 93.448, 140.726 89.371 C 139.927 87.792, 139.494 85.881, 139.762 85.125 C 140.065 84.273, 139.727 83.940, 138.875 84.250 C 138.119 84.525, 136.300 83.634, 134.834 82.269 C 132.952 80.517, 130.966 79.761, 128.078 79.697 C 124.629 79.622, 123.375 80.204, 120.094 83.408 C 117.708 85.738, 115.732 88.886, 114.989 91.541 C 113.508 96.829, 111.692 97.720, 109.243 94.359 L 107.392 91.818 87.661 92.916 L 67.930 94.013 60.376 88.916 C 54.672 85.067, 52.476 82.923, 51.409 80.160 C 50.631 78.147, 49.118 74.873, 48.045 72.885 C 46.291 69.633, 46.190 68.375, 47.041 60.385 C 47.562 55.498, 47.715 49.593, 47.382 47.263 C 46.579 41.644, 47.508 38.362, 50.092 37.686 C 52.065 37.170, 52.102 36.984, 50.654 34.917 C 49.176 32.806, 49.278 32.566, 52.801 29.862 C 54.835 28.301, 56.950 26.656, 57.500 26.206 C 58.050 25.756, 58.942 25.413, 59.483 25.444 C 60.024 25.475, 60.783 23.700, 61.171 21.500 C 61.884 17.458, 60.599 11.594, 57.282 3.750 L 55.696 -0 27.848 -0 L 0 0 0 72 M 37 50 C 37 50.550, 37.477 51, 38.059 51 C 38.641 51, 38.840 50.550, 38.500 50 C 38.160 49.450, 37.684 49, 37.441 49 C 37.198 49, 37 49.450, 37 50 M 37.687 54.088 C 37.267 55.694, 37.689 56.993, 39.038 58.250 C 40.908 59.992, 40.998 59.994, 40.965 58.289 C 40.945 57.305, 40.337 55.432, 39.613 54.127 L 38.298 51.754 37.687 54.088 M 3.286 108.500 C 3.294 111.250, 3.488 112.256, 3.718 110.736 C 3.947 109.216, 3.941 106.966, 3.704 105.736 C 3.467 104.506, 3.279 105.750, 3.286 108.500" stroke="none" fill="black" fill-rule="evenodd"/>
</svg>