<svg xmlns="http://www.w3.org/2000/svg" width="192" height="144" viewBox="0 0 192 144" version="1.1">
	<path d="M 0 72 L 0 144 39.267 144 L 78.534 144 80.268 132.750 C 82.142 120.596, 82.554 107.461, 81.091 106.556 C 80.591 106.247, 78.958 107.458, 77.462 109.247 C 75.966 111.036, 73.853 112.730, 72.767 113.011 C 70.564 113.580, 66.673 122.380, 67.371 125.213 C 67.847 127.145, 65.594 129.485, 64.129 128.580 C 63.602 128.254, 62.981 128.553, 62.748 129.244 C 62.417 130.228, 61.965 130.203, 60.663 129.128 C 59.582 128.235, 59 128.148, 59 128.878 C 59 129.495, 58.494 130, 57.876 130 C 57.126 130, 56.903 128.180, 57.206 124.527 C 57.466 121.398, 57.238 118.913, 56.674 118.725 C 56.132 118.544, 58.009 115.517, 60.844 111.998 C 63.680 108.479, 66 105.257, 66 104.837 C 66 104.418, 68.587 102.312, 71.750 100.159 C 74.912 98.005, 78.325 95.325, 79.332 94.202 C 81.111 92.220, 81.104 92.024, 79.082 87.453 C 76.460 81.525, 76.466 81.340, 79.611 70.500 C 81.472 64.086, 83.109 60.566, 85.307 58.250 C 87.004 56.462, 87.848 55, 87.182 55 C 84.502 55, 78.995 50.489, 79.247 48.500 C 79.447 46.918, 78.836 46.436, 76.327 46.192 C 71.725 45.746, 69.608 42.101, 70.499 36.157 C 70.880 33.618, 72.055 30.328, 73.109 28.847 C 74.737 26.560, 74.845 25.753, 73.820 23.505 C 72.387 20.359, 73.999 18.695, 77.838 19.355 C 80.012 19.728, 80.131 19.512, 79.527 16.291 C 78.932 13.123, 79.053 12.882, 80.938 13.480 C 82.567 13.997, 83 13.700, 83 12.067 C 83 8.748, 84.740 9.604, 91.499 16.250 C 94.995 19.688, 98.927 23.244, 100.237 24.152 C 103.986 26.754, 108.768 36.855, 111.349 47.622 C 112.652 53.055, 115.105 60.493, 116.802 64.152 C 121.260 73.764, 123.339 81.600, 122.566 85.882 C 122.208 87.872, 121.667 92.650, 121.366 96.500 C 121.002 101.140, 119.876 105.523, 118.026 109.500 C 113.879 118.416, 113 122.678, 113 133.877 L 113 144.023 152.750 143.761 L 192.500 143.500 192.757 71.750 L 193.013 0 96.507 0 L 0 0 0 72 M 0.474 72.500 C 0.474 112.100, 0.598 128.154, 0.750 108.176 C 0.901 88.198, 0.901 55.798, 0.750 36.176 C 0.598 16.554, 0.474 32.900, 0.474 72.500" stroke="none" fill="black" fill-rule="evenodd"/>
</svg>