<svg xmlns="http://www.w3.org/2000/svg" width="192" height="144" viewBox="0 0 192 144" version="1.1">
	<path d="M -0 72.016 L 0 144 20.500 144 C 33.002 144, 41 143.624, 41 143.035 C 41 141.002, 37.089 140.144, 29.934 140.608 C 25.307 140.908, 20.612 140.579, 17.500 139.736 C 13.185 138.567, 12.348 137.920, 11.391 135.009 C 10.781 133.154, 9.151 130.706, 7.769 129.568 C 6.387 128.431, 4.730 126.481, 4.085 125.235 C 3.118 123.365, 3.193 122.863, 4.514 122.356 C 5.395 122.018, 5.891 121.158, 5.617 120.444 C 4.969 118.755, 6.172 117.914, 13.969 114.609 C 21.281 111.510, 29.179 105.467, 33.848 99.400 C 36.722 95.666, 36.945 94.864, 36.348 90.400 C 35.627 85.012, 34.596 83.812, 31.379 84.620 C 28.303 85.392, 20.023 80.817, 16.620 76.464 C 11.602 70.047, 10.633 60.287, 14.032 50.408 C 19.583 34.272, 33.730 23.430, 50.709 22.297 C 68.803 21.089, 81.811 29.047, 83.648 42.446 C 84.553 49.054, 81.153 60.244, 77.308 63.307 C 76.060 64.301, 74.349 66.571, 73.504 68.351 C 72.659 70.131, 70.602 72.395, 68.933 73.380 C 66.545 74.791, 66.140 75.464, 67.032 76.538 C 67.655 77.290, 67.899 78.744, 67.573 79.771 C 66.766 82.314, 61.344 86.184, 59.117 85.807 C 56.546 85.371, 56.473 85.892, 58.319 91.500 C 60.280 97.458, 61.610 106.712, 62.562 121 C 63.359 132.976, 66.465 141.375, 69.751 140.437 C 70.713 140.163, 70.487 140.471, 69.250 141.122 C 68.012 141.773, 67 142.687, 67 143.153 C 67 143.619, 93.775 144, 126.500 144 C 170.090 144, 186 143.698, 186 142.869 C 186 142.135, 187.229 141.938, 189.500 142.306 L 193 142.874 193 71.441 L 193 0.008 96.500 0.020 L -0 0.032 -0 72.016 M 0.455 72.500 C 0.444 112.100, 0.575 138.749, 0.747 131.720 C 1.025 120.369, 1.292 118.708, 3.130 116.870 C 4.749 115.251, 4.933 114.549, 3.975 113.650 C 3.045 112.776, 2.600 112.861, 2.125 114 C 1.781 114.825, 1.269 89.625, 0.988 58 L 0.475 0.500 0.455 72.500 M 127.441 8.468 C 125.577 9.878, 125.606 9.938, 128.168 9.968 C 131.637 10.010, 134.134 9.027, 133.435 7.895 C 132.596 6.538, 129.617 6.823, 127.441 8.468 M 104.441 9.555 C 102.577 11.049, 102.589 11.067, 104.750 10.020 C 105.987 9.420, 107 8.720, 107 8.465 C 107 7.700, 106.481 7.921, 104.441 9.555 M 80.500 26 C 80.160 26.550, 80.359 27, 80.941 27 C 81.523 27, 82 26.550, 82 26 C 82 25.450, 81.802 25, 81.559 25 C 81.316 25, 80.840 25.450, 80.500 26 M 90.500 66 C 90.160 66.550, 90.359 67, 90.941 67 C 91.523 67, 92 66.550, 92 66 C 92 65.450, 91.802 65, 91.559 65 C 91.316 65, 90.840 65.450, 90.500 66 M 151.937 79.850 C 150.405 81.090, 149.887 82.264, 150.345 83.457 C 150.909 84.927, 151.284 85.009, 152.566 83.945 C 154.811 82.082, 156.163 79.219, 155.107 78.566 C 154.613 78.261, 153.186 78.838, 151.937 79.850 M 120.651 88.468 C 120.341 89.275, 120.518 90.202, 121.044 90.527 C 121.570 90.852, 122 90.191, 122 89.059 C 122 86.644, 121.444 86.401, 120.651 88.468 M 146.500 96 C 145.498 97.107, 144.904 98.237, 145.179 98.512 C 145.454 98.787, 146.498 98.107, 147.500 97 C 148.502 95.893, 149.096 94.763, 148.821 94.488 C 148.546 94.213, 147.502 94.893, 146.500 96 M 128.500 97 C 128.840 97.550, 129.316 98, 129.559 98 C 129.802 98, 130 97.550, 130 97 C 130 96.450, 129.523 96, 128.941 96 C 128.359 96, 128.160 96.450, 128.500 97 M 182.813 106.683 C 183.534 106.972, 184.397 106.936, 184.729 106.604 C 185.061 106.272, 184.471 106.036, 183.417 106.079 C 182.252 106.127, 182.015 106.364, 182.813 106.683 M 123.750 113.194 C 124.957 114.401, 126.246 115.087, 126.615 114.719 C 127.588 113.746, 125.033 111, 123.155 111 C 121.870 111, 121.986 111.431, 123.750 113.194 M 185.500 118 C 185.160 118.550, 185.782 119, 186.882 119 C 187.982 119, 189.160 118.550, 189.500 118 C 189.840 117.450, 189.218 117, 188.118 117 C 187.018 117, 185.840 117.450, 185.500 118 M 121.892 133.942 L 119.500 135.933 121.781 135.967 C 123.036 135.985, 124.329 135.306, 124.655 134.457 C 125.599 131.997, 124.477 131.788, 121.892 133.942 M 59 141.500 C 59 143.271, 59.543 144, 60.861 144 C 62.308 144, 62.616 143.442, 62.245 141.500 C 61.982 140.125, 61.144 139, 60.383 139 C 59.574 139, 59 140.038, 59 141.500 M 48.500 143 C 48.149 143.567, 48.990 144, 50.441 144 C 51.848 144, 53 143.550, 53 143 C 53 142.450, 52.127 142, 51.059 142 C 49.991 142, 48.840 142.450, 48.500 143" stroke="none" fill="black" fill-rule="evenodd"/>
</svg>