<svg xmlns="http://www.w3.org/2000/svg" width="192" height="144" viewBox="0 0 192 144" version="1.1">
	<path d="M 47.501 2.138 C 47.166 3.473, 47.356 6.576, 47.922 9.033 C 48.488 11.490, 48.962 14.545, 48.976 15.821 C 48.998 17.932, 48.857 18, 47.429 16.571 C 45.193 14.336, 45.133 14.485, 46.217 19.571 C 46.753 22.084, 46.991 24.342, 46.745 24.588 C 46.499 24.834, 43.465 24.309, 40.002 23.422 C 32.614 21.529, 29.011 22.042, 23.516 25.766 C 19.955 28.180, 18.396 28.528, 9.750 28.838 L -0 29.187 -0 86.594 L 0 144 40.250 143.986 L 80.500 143.971 83.250 138.986 C 85.799 134.363, 88 132.548, 88 135.067 C 88 135.680, 88.853 135.864, 90 135.500 C 92.480 134.713, 92.658 136.826, 90.470 141.059 L 88.939 144.018 140.720 143.759 L 192.500 143.500 192.739 85.500 C 192.871 53.600, 192.646 27.996, 192.239 28.603 C 191.833 29.209, 189.082 30.501, 186.127 31.474 C 181.503 32.996, 180.178 33.066, 176.627 31.977 C 174.357 31.280, 169.885 30.770, 166.689 30.843 C 160.571 30.983, 156.845 29.704, 151.102 25.492 C 146.686 22.253, 144.122 22.350, 137.654 26 C 134.730 27.650, 131.137 29, 129.669 29 C 127.359 29, 127 28.589, 127 25.943 C 127 24.262, 128.595 19.034, 130.544 14.325 C 134.589 4.554, 134.676 0.873, 130.673 8.842 C 126.686 16.781, 125.203 18.693, 124.485 16.822 C 124.164 15.984, 123.999 14.894, 124.119 14.399 C 124.620 12.332, 122.681 6, 121.547 6 C 120.870 6, 119.746 7.913, 119.049 10.250 C 118.351 12.588, 117.114 15.793, 116.300 17.374 C 114.982 19.934, 114.655 20.084, 113.314 18.743 C 112.076 17.504, 111.989 16.286, 112.826 11.869 C 115.174 -0.517, 115.186 0, 112.534 0 C 111.205 0, 109.833 0.461, 109.485 1.024 C 108.813 2.112, 104.556 1.889, 103.371 0.704 C 102.984 0.317, 96.892 0, 89.833 0 L 77 0 77 3.941 C 77 9.495, 75.357 9.863, 74.551 4.490 C 74.019 0.945, 73.469 0, 71.939 0 C 70.310 0, 70 0.714, 70 4.469 C 70 8.085, 69.706 8.824, 68.457 8.345 C 67.609 8.020, 66.025 6.009, 64.937 3.877 C 63.719 1.489, 62.250 0, 61.114 0 C 59.481 0, 59.363 0.488, 60.091 4.250 C 60.543 6.588, 60.915 9.625, 60.917 11 C 60.921 13.311, 60.815 13.254, 59.509 10.250 C 57.715 6.122, 56.633 6.054, 57.527 10.125 C 58.038 12.451, 57.903 13.058, 56.998 12.499 C 56.081 11.932, 55.932 12.826, 56.392 16.123 C 57.110 21.270, 56.420 20.026, 52.439 9 C 49.243 0.147, 48.322 -1.132, 47.501 2.138 M 0.468 86.500 C 0.468 118.400, 0.595 131.595, 0.749 115.821 C 0.904 100.048, 0.904 73.948, 0.750 57.821 C 0.595 41.695, 0.468 54.600, 0.468 86.500 M 90 79 C 88.718 79.828, 88.754 79.972, 90.250 79.985 C 91.213 79.993, 92 79.550, 92 79 C 92 77.780, 91.887 77.780, 90 79 M 98.250 95.559 C 96.777 97.157, 96.654 98, 97.893 98 C 98.746 98, 100.343 94.991, 99.774 94.458 C 99.623 94.317, 98.938 94.812, 98.250 95.559 M 87.638 97.500 C 87.955 98.325, 88.343 99, 88.500 99 C 88.657 99, 89.045 98.325, 89.362 97.500 C 89.709 96.595, 89.367 96, 88.500 96 C 87.633 96, 87.291 96.595, 87.638 97.500 M 91.143 97.890 C 90.309 98.419, 90.172 98.988, 90.788 99.369 C 91.340 99.710, 92.048 99.316, 92.364 98.494 C 93.026 96.767, 92.964 96.737, 91.143 97.890 M 88.195 102.500 C 88.215 104.150, 88.439 104.704, 88.693 103.731 C 88.947 102.758, 88.930 101.408, 88.656 100.731 C 88.382 100.054, 88.175 100.850, 88.195 102.500" stroke="none" fill="black" fill-rule="evenodd"/>
</svg>