<svg xmlns="http://www.w3.org/2000/svg" width="192" height="144" viewBox="0 0 192 144" version="1.1">
	<path d="M 102.081 16.287 C 101.569 17.635, 100.005 19.637, 98.607 20.737 C 96.337 22.523, 96.168 23.099, 97.032 26.112 C 98.622 31.657, 98.256 34.784, 95.928 35.523 C 94.503 35.975, 94.057 36.700, 94.501 37.840 C 94.856 38.753, 95.379 53, 95.664 69.500 C 95.949 86, 96.266 100.625, 96.368 102 C 96.696 106.410, 99.036 109.126, 104.647 111.608 C 109.225 113.632, 110.022 114.356, 109.495 116.015 C 108.962 117.695, 109.328 118, 111.874 118 C 115.420 118, 116.861 116.408, 114.107 115.534 C 112.030 114.875, 110.397 112, 112.099 112 C 112.680 112, 112.856 111.121, 112.500 110 C 112.109 108.769, 112.320 108, 113.049 108 C 114.189 108, 114.030 106.450, 112.512 102.764 C 111.979 101.471, 112.461 100.775, 114.398 100.039 C 117.366 98.910, 117.908 95.608, 115.360 94.181 C 114.213 93.540, 113.601 91.495, 113.327 87.382 C 113.111 84.147, 112.523 80.263, 112.019 78.750 C 111.344 76.721, 111.434 76, 112.363 76 C 113.056 76, 114.585 75.103, 115.762 74.007 C 117.671 72.228, 117.772 71.666, 116.698 68.757 C 116.037 66.966, 113.359 62.233, 110.748 58.240 C 108.137 54.247, 106 50.561, 106 50.049 C 106 48.396, 107.906 47.879, 109.956 48.977 C 111.420 49.760, 112.490 49.711, 113.958 48.794 C 117.004 46.892, 117.135 45.337, 114.465 42.805 C 113.128 41.537, 112.027 39.650, 112.017 38.610 C 112.008 37.571, 111.213 36.123, 110.250 35.392 C 109.287 34.661, 109.034 34.049, 109.687 34.032 C 110.494 34.010, 110.817 31.963, 110.696 27.634 C 110.550 22.356, 110.181 21.116, 108.542 20.384 C 107.455 19.898, 106.313 18.408, 106.005 17.074 C 105.235 13.738, 103.205 13.331, 102.081 16.287 M 166 18.648 C 166 20.709, 162.981 26.289, 161.134 27.642 C 159.976 28.490, 159.855 29.133, 160.661 30.142 C 162.418 32.339, 162.948 41.806, 161.349 42.420 C 159.591 43.094, 159.679 45.992, 161.532 48.441 C 163.234 50.692, 163.470 54.592, 161.959 55.525 C 161.387 55.879, 161.172 56.967, 161.482 57.943 C 161.793 58.924, 161.364 60.283, 160.523 60.981 C 159.685 61.676, 159 62.827, 159 63.537 C 159 64.248, 157.222 68.186, 155.049 72.287 L 151.098 79.744 153.364 81.872 C 154.610 83.042, 156.387 84, 157.314 84 C 159.883 84, 159.362 86.921, 155.523 94.046 C 153.217 98.325, 152.043 101.848, 152.038 104.500 C 152.029 109.143, 152.416 109.840, 156.634 112.784 C 159.257 114.614, 159.910 115.901, 160.634 120.663 L 161.500 126.355 167 127.741 C 176.297 130.084, 178 130.297, 178 129.118 C 178 128.508, 175.300 127.258, 172 126.340 C 168.700 125.423, 166 124.266, 166 123.769 C 166 123.272, 166.787 123.081, 167.750 123.345 C 168.713 123.609, 171.300 124.114, 173.500 124.467 C 175.700 124.820, 179.347 125.796, 181.605 126.635 C 187.072 128.667, 191.500 128.159, 191.500 125.500 C 191.500 123.985, 189.500 122.529, 183.260 119.500 C 177.159 116.538, 175.177 115.111, 175.624 114 C 177.603 109.076, 176.039 106.177, 170.806 105.073 C 167.878 104.455, 167.533 104.040, 167.787 101.438 C 167.945 99.822, 168.732 96.803, 169.537 94.730 C 170.342 92.656, 171 89.703, 171 88.168 C 171 86.200, 171.923 84.693, 174.129 83.063 C 177.163 80.820, 177.240 80.572, 176.657 74.992 C 176.326 71.826, 175.503 67.171, 174.828 64.647 C 173.772 60.698, 173.838 59.564, 175.301 56.496 C 176.235 54.536, 177 51.597, 177 49.966 C 177 46.442, 177.366 46.390, 183.400 49.059 C 189.484 51.750, 192 50.985, 192 46.444 C 192 43.247, 191.748 42.983, 188.138 42.406 C 181.354 41.321, 181.201 40.682, 186.358 34.947 C 188.941 32.073, 190.836 29.503, 190.569 29.235 C 190.301 28.968, 187.824 31.220, 185.064 34.240 C 180.940 38.752, 179.592 39.645, 177.508 39.246 C 174.180 38.610, 173.626 37.534, 175.204 34.771 C 175.917 33.522, 176.521 30.613, 176.548 28.308 C 176.587 24.813, 176.233 24.024, 174.414 23.568 C 173.215 23.267, 170.831 21.710, 169.117 20.109 C 167.064 18.192, 166 17.693, 166 18.648 M 42 21.345 C 42 24.047, 39.161 27, 36.564 27 C 35.257 27, 34.981 27.464, 35.522 28.750 C 35.926 29.712, 36.497 31.625, 36.789 33 C 37.082 34.375, 38.220 36.719, 39.318 38.208 C 40.801 40.221, 41.035 41.253, 40.226 42.228 C 39.627 42.949, 38.994 45.522, 38.819 47.945 C 38.528 51.969, 38.141 52.541, 34.371 54.529 C 28.283 57.738, 22.204 58.494, 19.820 56.338 C 18.099 54.780, 17.196 54.731, 10.717 55.842 C 2.637 57.227, 1.012 58.210, 2.610 60.743 C 3.883 62.762, 37.694 80.849, 40.361 80.938 C 41.932 80.990, 42.122 81.534, 41.581 84.422 C 41.021 87.404, 41.373 88.272, 44.313 91.172 C 49.840 96.623, 50.306 98.094, 47.428 101 C 46.066 102.375, 43.950 105.024, 42.726 106.887 C 41.247 109.137, 38.849 110.916, 35.582 112.186 L 30.665 114.098 26.419 111.049 C 24.084 109.372, 21.710 108, 21.144 108 C 19.157 108, 6 113.240, 6 114.032 C 6 114.472, 12.581 120.382, 20.625 127.166 C 28.668 133.950, 36.431 140.496, 37.875 141.714 C 39.319 142.932, 41.219 143.944, 42.098 143.964 C 44.194 144.011, 57.243 136.830, 57.720 135.367 C 57.923 134.744, 55.382 132.269, 52.073 129.867 C 48.765 127.465, 46.045 125.219, 46.029 124.875 C 46.013 124.531, 47.355 123.979, 49.010 123.648 C 50.666 123.317, 53.606 121.461, 55.544 119.523 C 57.481 117.585, 59.695 116, 60.462 116 C 62.273 116, 65 113.257, 65 111.436 C 65 110.655, 63.650 108.813, 62 107.342 C 60.350 105.872, 59 104.153, 59 103.523 C 59 101.748, 54.987 93.733, 52.981 91.500 C 51.337 89.671, 51.310 89.188, 52.658 85.852 C 53.897 82.786, 54.831 82.028, 58.507 81.103 C 60.913 80.497, 63.156 79.557, 63.491 79.014 C 64.077 78.067, 56.368 64.345, 53.245 60.775 C 52.083 59.447, 51.888 57.706, 52.398 53.198 C 52.968 48.158, 52.769 46.975, 50.957 44.673 C 49.293 42.558, 49.169 42, 50.360 42 C 52.389 42, 53.317 38.667, 52.386 34.728 C 51.966 32.952, 51.738 30.889, 51.880 30.142 C 52.021 29.395, 51.206 28.132, 50.069 27.335 C 48.931 26.539, 47.985 25.350, 47.967 24.693 C 47.921 23.068, 44.437 19, 43.090 19 C 42.490 19, 42 20.055, 42 21.345 M 35.770 58.399 C 30.329 60.816, 29.732 62, 33.953 62 C 37.690 62, 42 60.071, 42 58.399 C 42 56.220, 40.675 56.220, 35.770 58.399 M 27.500 60 C 27.840 60.550, 28.316 61, 28.559 61 C 28.802 61, 29 60.550, 29 60 C 29 59.450, 28.523 59, 27.941 59 C 27.359 59, 27.160 59.450, 27.500 60 M 100.419 79.131 C 99.603 80.452, 99.625 91.585, 100.448 92.915 C 100.756 93.414, 101.794 93.671, 102.754 93.487 C 103.714 93.304, 105.737 93.119, 107.250 93.077 C 109.634 93.010, 110 92.593, 110 89.943 C 110 88.261, 109.497 84.886, 108.881 82.443 C 107.839 78.302, 107.537 78, 104.440 78 C 102.613 78, 100.804 78.509, 100.419 79.131 M 164.220 87.935 C 163.535 89.824, 162.351 92.074, 161.589 92.935 C 156.279 98.930, 155.285 106.523, 159.971 105.297 C 161.122 104.996, 162.454 104.019, 162.933 103.125 C 164.273 100.620, 166.231 89.661, 165.826 86.935 C 165.491 84.679, 165.373 84.752, 164.220 87.935 M 37.250 113.810 C 33.318 115.686, 33.239 116.271, 36.620 118.487 C 39.125 120.128, 39.328 120.116, 41.225 118.219 C 42.577 116.868, 42.995 115.560, 42.537 114.118 C 41.773 111.708, 41.669 111.702, 37.250 113.810" stroke="none" fill="black" fill-rule="evenodd"/>
</svg>