<svg xmlns="http://www.w3.org/2000/svg" width="192" height="144" viewBox="0 0 192 144" version="1.1">
	<path d="M 0 72 L 0 144 36.767 144 L 73.535 144 75.302 130.784 C 76.274 123.516, 77.780 115.124, 78.649 112.136 C 79.905 107.814, 80 105.944, 79.114 102.986 C 77.729 98.364, 77.668 93, 79 93 C 79.550 93, 80 94.612, 80 96.583 C 80 99.018, 80.401 100.025, 81.250 99.726 C 82.755 99.195, 82.625 92.036, 81.057 89.107 C 80.038 87.203, 79.776 87.318, 76.085 91.275 L 72.188 95.452 66.344 94.128 C 63.130 93.400, 58.135 92.353, 55.244 91.802 C 51.960 91.175, 49.333 89.992, 48.244 88.649 C 46.863 86.947, 45.252 86.450, 40.500 86.260 C 33.342 85.974, 28.778 84.834, 28.232 83.195 C 27.980 82.440, 28.969 82, 30.917 82 C 32.612 82, 34 81.606, 34 81.125 C 34 80.644, 35.350 79.980, 37 79.650 C 40.456 78.959, 40.966 76.587, 38 75 C 35.697 73.767, 35.475 71.913, 37.250 68.736 C 38.975 65.651, 40.023 65.033, 43.562 65.015 C 45.845 65.004, 47.215 65.799, 48.945 68.140 C 51.111 71.069, 51.163 71.454, 49.730 73.890 C 48.885 75.325, 48.038 77.376, 47.847 78.446 C 47.538 80.181, 48.020 80.362, 52.303 80.117 C 54.944 79.966, 57.644 80.264, 58.303 80.780 C 58.961 81.295, 61.659 82.435, 64.298 83.314 C 67.920 84.520, 69.203 84.616, 69.532 83.706 C 72.133 76.494, 72.845 73.760, 72.413 72.635 C 72.133 71.904, 73.500 69.394, 75.452 67.058 C 77.403 64.722, 79 62.501, 79 62.123 C 79 61.745, 81.020 59.387, 83.488 56.883 L 87.977 52.330 83.944 46.915 C 81.726 43.937, 78.581 40.455, 76.955 39.178 C 73.380 36.368, 73.049 32.245, 75.962 26.810 C 77.491 23.956, 77.791 22.032, 77.322 18.075 L 76.721 13 80.111 13.015 C 81.975 13.024, 84.092 13.406, 84.815 13.864 C 87.314 15.449, 90.860 13.809, 93.474 9.860 C 94.904 7.698, 96.621 6.040, 97.287 6.175 C 97.954 6.309, 99.450 5.893, 100.612 5.248 C 102.393 4.261, 103.042 4.424, 104.749 6.289 C 107.208 8.973, 111 16.346, 111 18.441 C 111 19.278, 109.880 20.243, 108.511 20.587 L 106.021 21.211 107.970 23.689 C 111.334 27.966, 113.874 36.462, 115.596 49.198 C 117.055 59.982, 117.806 62.591, 121.687 70.344 C 124.445 75.853, 125.992 80.190, 125.789 81.844 L 125.463 84.500 123.320 81.130 L 121.176 77.760 121.447 88.630 C 121.597 94.609, 122.232 101.349, 122.860 103.608 C 124.588 109.830, 122.945 123.217, 119.658 129.694 C 117.497 133.954, 117.136 135.710, 117.649 139.456 L 118.275 144.024 155.388 143.762 L 192.500 143.500 192.757 71.750 L 193.013 0 96.507 0 L 0 0 0 72 M 0.474 72.500 C 0.474 112.100, 0.598 128.154, 0.750 108.176 C 0.901 88.198, 0.901 55.798, 0.750 36.176 C 0.598 16.554, 0.474 32.900, 0.474 72.500 M 112.116 109.168 C 111.952 111.529, 113.033 114, 114.229 114 C 114.916 114, 114.917 113.596, 114.230 112.750 C 113.672 112.063, 112.994 110.600, 112.724 109.500 C 112.361 108.024, 112.202 107.937, 112.116 109.168" stroke="none" fill="black" fill-rule="evenodd"/>
</svg>