<svg xmlns="http://www.w3.org/2000/svg" width="192" height="144" viewBox="0 0 192 144" version="1.1">
	<path d="M -0 71.997 L -0 144.022 42.183 143.761 L 84.366 143.500 85.619 136.063 C 86.749 129.356, 86.707 128.501, 85.186 127.345 C 82.842 125.564, 82.987 125.499, 78.206 130.504 C 73.519 135.411, 71.614 136.016, 70.050 133.093 C 69.227 131.555, 69.806 130.020, 73.035 125.185 L 77.042 119.185 74.973 115.679 L 72.904 112.172 74.952 108.351 C 76.078 106.249, 77 104.240, 77 103.886 C 77 103.531, 71.399 97.003, 64.553 89.379 L 52.105 75.517 54.227 73.258 C 55.394 72.016, 57.080 71, 57.974 71 C 58.868 71, 60.027 70.582, 60.550 70.072 C 61.625 69.022, 76.723 66.007, 78.405 66.507 C 79.007 66.685, 83.044 67.093, 87.375 67.414 L 95.249 67.996 94.619 64.843 C 93.763 60.567, 92.409 59.167, 88.400 58.415 C 86.530 58.064, 85 57.395, 85 56.928 C 85 56.460, 84.178 55.273, 83.173 54.289 C 81.891 53.034, 81.368 51.111, 81.423 47.850 C 81.493 43.638, 81.327 43.292, 79.664 44.181 C 77.063 45.571, 76.621 44.634, 78.324 41.341 C 80.441 37.246, 82.912 35.343, 87.801 34.041 C 92.843 32.698, 93.600 31.349, 92.014 26.541 C 90.862 23.051, 87.923 21.697, 86.500 24 C 85.439 25.717, 80.391 25.096, 77.607 22.905 C 76.142 21.753, 74.022 19.004, 72.896 16.796 C 71.769 14.588, 69.338 11.272, 67.494 9.427 C 65.649 7.582, 63.996 4.819, 63.820 3.287 L 63.500 0.500 31.750 0.236 L 0 -0.028 -0 71.997 M 68 1.059 C 68 1.641, 68.450 1.840, 69 1.500 C 69.550 1.160, 70 0.684, 70 0.441 C 70 0.198, 69.550 0, 69 0 C 68.450 0, 68 0.477, 68 1.059 M 189.830 1.750 C 190.325 2.712, 190.980 4.175, 191.286 5 C 191.592 5.825, 191.878 5.038, 191.921 3.250 C 191.977 0.960, 191.546 0, 190.465 0 C 189.327 0, 189.162 0.452, 189.830 1.750 M 71 5.912 C 71 7.359, 76.249 10.787, 79.561 11.502 C 82.409 12.117, 82.438 12.085, 80.500 10.490 C 77.392 7.932, 71 4.851, 71 5.912 M 73 13.183 C 73 15.618, 77.506 21.309, 80.395 22.524 C 83.042 23.637, 83.886 23.590, 86.244 22.197 C 89.529 20.256, 89.568 19.991, 87.032 16.767 C 85.639 14.997, 84.373 14.397, 82.701 14.717 C 81.402 14.965, 78.688 14.478, 76.669 13.635 C 74.319 12.653, 73 12.491, 73 13.183 M 189.901 30.596 C 188.555 35.724, 188.514 36.982, 189.640 38.523 C 191.675 41.305, 192.120 39.932, 191.796 31.870 L 191.500 24.500 189.901 30.596 M 93.500 27 C 93.160 27.550, 93.359 28, 93.941 28 C 94.523 28, 95 27.550, 95 27 C 95 26.450, 94.802 26, 94.559 26 C 94.316 26, 93.840 26.450, 93.500 27 M 85.500 36.386 C 82.575 37.660, 78.980 41, 80.532 41 C 81.987 41, 90.918 36.503, 90.959 35.750 C 91.019 34.653, 88.914 34.898, 85.500 36.386 M 87.110 39.642 C 84.666 40.707, 84.024 41.424, 84.809 42.209 C 86.001 43.401, 91 40.792, 91 38.977 C 91 38.440, 90.888 38.037, 90.750 38.082 C 90.612 38.126, 88.974 38.828, 87.110 39.642 M 134.765 55.568 C 134.241 56.092, 136.541 66.874, 137.349 67.682 C 137.614 67.948, 140.375 67.847, 143.484 67.459 L 149.137 66.752 146.319 63.776 C 142.930 60.198, 135.449 54.884, 134.765 55.568 M 137.382 72.378 C 137.688 74.095, 138.413 80.450, 138.994 86.500 C 140.430 101.455, 142.357 112.402, 146.500 129.140 C 148.425 136.916, 150 143.441, 150 143.640 C 150 143.838, 159.450 144, 171 144 L 192 144 192 124.769 C 192 107.362, 191.796 105.046, 189.848 100.347 C 188.016 95.928, 187.082 94.921, 183.565 93.578 C 181.292 92.710, 177.281 92, 174.651 92 C 169 92, 166.794 91, 161.707 86.136 C 159.176 83.716, 157.417 80.802, 156.421 77.378 C 154.265 69.959, 152.727 68.930, 144.061 69.108 L 136.826 69.257 137.382 72.378 M 157 74.960 C 157 77.286, 161.031 83.848, 163.987 86.336 C 166.580 88.518, 172.519 90.974, 175.250 90.994 C 176.831 91.006, 175.896 88.251, 173.580 86.076 C 172.250 84.825, 170.611 82.476, 169.940 80.854 C 168.637 77.709, 165.514 75.675, 160.250 74.541 C 158.102 74.078, 157 74.221, 157 74.960 M 176 83.932 C 176 84.967, 181.324 89.009, 182.654 88.984 C 183.441 88.969, 177.167 83, 176.364 83 C 176.164 83, 176 83.419, 176 83.932 M 190.070 95.750 C 190.109 96.162, 190.527 97.400, 191 98.500 C 191.762 100.272, 191.867 100.187, 191.930 97.750 C 191.968 96.237, 191.550 95, 191 95 C 190.450 95, 190.032 95.338, 190.070 95.750" stroke="none" fill="black" fill-rule="evenodd"/>
</svg>