<svg xmlns="http://www.w3.org/2000/svg" width="192" height="144" viewBox="0 0 192 144" version="1.1">
	<path d="M 70 4.689 C 61.467 7.843, 59.390 8.215, 49.591 8.350 L 38.682 8.500 35.807 17 C 32.230 27.579, 27.532 48.769, 21.507 81.500 C 17.634 102.534, 16.088 114.753, 15.355 130.109 L 14.692 144 75.846 144 C 109.481 144, 137.005 143.662, 137.011 143.250 C 137.016 142.838, 139.087 139.800, 141.613 136.500 C 144.138 133.200, 147.315 128.141, 148.672 125.257 L 151.140 120.015 150.046 99.471 C 149.267 84.833, 149.260 76.459, 150.020 70.340 C 150.607 65.618, 150.781 61.471, 150.407 61.127 C 150.032 60.782, 149.525 61.063, 149.280 61.750 C 148.643 63.533, 147.668 63.299, 146.246 61.023 C 144.767 58.654, 146.139 50.798, 149.123 44.554 C 151.356 39.879, 150.863 39.122, 144.206 37 C 139.926 35.636, 139.190 34.914, 136.077 29.026 C 133.764 24.651, 132.468 20.621, 132.077 16.591 L 131.500 10.630 123.302 7.866 C 110.919 3.691, 100.573 1.723, 89.500 1.436 C 80.203 1.195, 78.832 1.424, 70 4.689" stroke="none" fill="black" fill-rule="evenodd"/>
</svg>