<svg xmlns="http://www.w3.org/2000/svg" width="192" height="144" viewBox="0 0 192 144" version="1.1">
	<path d="M 101.689 9.806 C 98.507 13.065, 98.062 14.062, 98.598 16.740 C 99.144 19.468, 98.711 20.355, 95.212 23.684 C 92.307 26.448, 90.740 29.086, 89.529 33.252 C 87.864 38.980, 87.868 39.027, 90.425 44.434 C 92.872 49.606, 95.735 51.900, 97.998 50.501 C 99.570 49.530, 100.286 52.597, 99.034 54.937 C 98.120 56.645, 98.226 57.149, 99.609 57.680 C 100.541 58.038, 102.817 60.005, 104.666 62.052 C 108.095 65.847, 111.551 67.535, 112.558 65.906 C 113.536 64.323, 115 64.929, 115 66.916 C 115 68.849, 108.196 75, 106.058 75 C 105.423 75, 104.361 76.238, 103.698 77.750 C 103.035 79.263, 101.679 81.701, 100.684 83.170 C 99.689 84.638, 98.986 86.438, 99.121 87.170 C 99.496 89.201, 95.857 101, 94.856 101 C 93.178 101, 86 82.409, 86 78.065 C 86 77.604, 88.138 76.934, 90.750 76.576 C 101.564 75.093, 101.724 74.515, 91.500 73.850 C 86 73.493, 80 72.874, 78.166 72.474 C 75.564 71.908, 74.200 72.215, 71.956 73.874 C 70.375 75.043, 68.639 76, 68.098 76 C 67.558 76, 65.852 73.750, 64.308 71.001 C 61.647 66.264, 61.284 66.002, 57.372 66.001 C 50.710 65.999, 50.146 67.832, 54.567 75.111 C 56.632 78.510, 58.699 83.026, 59.161 85.146 C 59.622 87.266, 60.371 90.688, 60.825 92.750 C 62.209 99.042, 63.661 100.642, 71.730 104.766 C 77.663 107.798, 80.209 109.782, 82.500 113.156 C 84.150 115.586, 87.633 119.523, 90.240 121.905 C 95.319 126.546, 95.638 128.482, 92.197 133.796 C 90.933 135.748, 90.906 136.684, 92.015 140.046 L 93.320 144 119.252 144 L 145.184 144 143.303 140.750 C 142.269 138.963, 140.464 137.072, 139.292 136.548 C 137.534 135.762, 137.031 134.366, 136.407 128.548 C 135.992 124.672, 135.574 118.800, 135.480 115.500 C 135.243 107.216, 135.192 107, 133.500 107 C 132.675 107, 132 106.546, 132 105.991 C 132 105.437, 133.688 105.051, 135.750 105.134 C 140.326 105.317, 146 104.067, 146 102.875 C 146 102.394, 146.886 102, 147.968 102 C 149.087 102, 150.580 100.813, 151.428 99.250 C 152.415 97.430, 152.933 97.064, 152.960 98.167 C 152.982 99.083, 153.476 99.992, 154.057 100.186 C 154.789 100.430, 154.806 101.907, 154.113 104.992 C 153.202 109.049, 153.655 112.231, 154.720 109.250 C 155.840 106.115, 156.848 108.487, 156.314 113 C 155.892 116.558, 156.068 118, 156.925 118 C 157.680 118, 158.011 119.210, 157.814 121.250 C 157.602 123.443, 157.907 124.419, 158.750 124.250 C 159.542 124.092, 160 125.173, 160 127.200 C 160 129.689, 160.267 130.133, 161.200 129.200 C 163.147 127.253, 164.268 127.820, 163.756 130.494 C 163.141 133.715, 165.365 135.772, 167.526 133.979 C 168.874 132.860, 168.974 133.369, 168.388 138.356 L 167.725 144 179.862 144 L 192 144 192 111.019 L 192 78.038 189.250 77.377 C 181.375 75.484, 168.949 66.367, 162.435 57.702 C 159.871 54.291, 157.608 51.500, 157.406 51.500 C 157.205 51.500, 154.779 54.640, 152.016 58.478 C 149.253 62.316, 144.682 67.832, 141.859 70.737 C 137.718 74.998, 136.453 75.791, 135.313 74.845 C 134.448 74.127, 134.016 72.278, 134.199 70.086 C 134.455 67.037, 134.837 66.536, 136.750 66.738 C 137.988 66.869, 139 66.617, 139 66.177 C 139 65.737, 140.012 64.290, 141.250 62.962 C 142.488 61.634, 143.556 60.199, 143.625 59.773 C 143.694 59.348, 143.858 58.663, 143.990 58.250 C 144.122 57.837, 144.150 56.712, 144.052 55.750 C 143.954 54.788, 144.305 54, 144.832 54 C 146.114 54, 144.729 48.053, 142.722 44.941 C 141.856 43.599, 140.403 39.595, 139.493 36.044 C 137.378 27.791, 136.043 25.319, 131.332 20.928 C 126.379 16.312, 122.592 14, 119.983 14 C 118.580 14, 117.565 13.051, 116.886 11.103 C 116.086 8.807, 114.967 7.977, 111.495 7.103 C 105.553 5.607, 105.877 5.518, 101.689 9.806 M 74.134 87.503 C 76.085 90.810, 78 92.812, 78 91.545 C 78 90.503, 73.514 84.025, 72.784 84.012 C 72.390 84.006, 72.998 85.576, 74.134 87.503 M 130.726 113.332 C 129.635 116.085, 129.852 121.516, 131.179 124.685 C 132.196 127.115, 132.403 127.227, 132.695 125.500 C 133.279 122.038, 131.538 111.281, 130.726 113.332" stroke="none" fill="black" fill-rule="evenodd"/>
</svg>