<svg xmlns="http://www.w3.org/2000/svg" width="192" height="144" viewBox="0 0 192 144" version="1.1">
	<path d="M -0 25.566 C -0 51.525, 0.311 53.996, 3.913 56.684 C 5.184 57.632, 6.356 57.391, 9.800 55.476 L 14.101 53.085 18.300 55.239 C 20.610 56.424, 23.625 58.167, 25 59.112 C 30.391 62.819, 31.805 62.584, 37.082 57.109 L 41.981 52.026 50.241 54.006 C 60.508 56.467, 67.820 56.634, 68.667 54.425 C 69.439 52.413, 67.591 46.257, 63.816 38.266 L 60.847 31.982 64.159 27.741 C 65.981 25.408, 68.037 22.909, 68.728 22.186 C 70.535 20.297, 68.192 16.216, 61.547 9.676 C 57.573 5.764, 56.393 3.991, 57.062 2.934 C 57.561 2.145, 57.976 1.163, 57.985 0.750 C 57.993 0.337, 44.950 0, 29 0 L 0 0 -0 25.566 M 96 0.650 C 94.625 0.857, 91.565 1.277, 89.199 1.582 C 83.240 2.352, 82.487 4.672, 85.106 14.191 C 90.426 33.526, 96.128 45.495, 101.808 49.254 C 107.390 52.948, 112.681 55, 116.624 55 C 119.537 55, 120.503 54.305, 123.626 49.958 C 125.618 47.184, 127.520 45.187, 127.852 45.519 C 128.184 45.851, 128.691 48.458, 128.978 51.311 C 129.451 56.013, 129.829 56.671, 133 58.320 C 139.628 61.765, 160.583 59.618, 177.249 53.785 C 181.101 52.436, 182.943 50.042, 187.079 41.009 C 189.851 34.956, 191.883 25.879, 191.253 22.368 C 190.715 19.366, 188.344 16, 186.768 16 C 185.132 16, 168.543 8.626, 167.179 7.292 C 166.452 6.581, 165.282 6, 164.579 6 C 163.875 6, 161.436 4.650, 159.159 3 L 155.017 0 126.759 0.136 C 111.216 0.211, 97.375 0.442, 96 0.650 M 143.232 74.556 L 137.850 80.112 129.675 78.105 C 119.596 75.630, 108.979 74.576, 107.083 75.862 C 105.083 77.220, 105.325 82.329, 107.549 85.671 C 109.218 88.180, 109.475 88.282, 109.823 86.571 C 110.327 84.095, 112.709 81.702, 113.923 82.453 C 114.439 82.772, 115.144 82.575, 115.490 82.016 C 117.439 78.863, 122.731 82.899, 127.994 91.554 C 129.314 93.724, 130.690 95.725, 131.052 96 C 131.414 96.275, 132.250 98.156, 132.910 100.181 C 133.790 102.882, 135.440 104.716, 139.111 107.071 C 144.968 110.830, 148.730 115.399, 149.617 119.834 C 150.058 122.038, 150.820 123, 152.125 123 C 153.156 123, 154 122.605, 154 122.121 C 154 121.638, 155.364 120.677, 157.032 119.987 C 158.700 119.296, 159.863 118.530, 159.618 118.284 C 159.372 118.039, 158.279 118.315, 157.189 118.899 C 155.497 119.805, 155.114 119.592, 154.576 117.445 C 154.228 116.062, 154.650 112.852, 155.512 110.312 C 157.075 105.709, 157.071 105.684, 154.347 102.840 C 152.217 100.617, 151.879 99.721, 152.816 98.784 C 153.754 97.846, 154.682 97.972, 157.022 99.354 C 161.433 101.960, 166.752 99.508, 168.477 94.072 C 169.373 91.248, 173.057 88.933, 175.811 89.464 C 179.398 90.154, 188.026 95.218, 190.092 97.844 L 192 100.270 192 95.635 C 192 93.086, 191.582 91, 191.071 91 C 190.560 91, 189.627 88.519, 188.997 85.486 C 188.035 80.850, 187.270 79.576, 184.194 77.486 C 179.626 74.382, 178.371 74.384, 173.785 77.500 C 171.762 78.875, 169.858 80, 169.555 80 C 169.252 80, 166.866 78.479, 164.252 76.620 C 158.887 72.804, 151.696 69, 149.846 69 C 149.168 69, 146.192 71.500, 143.232 74.556 M 7.231 76.877 C 5.271 80.443, 4 84.174, 4 86.366 C 4 90.624, 7.134 99.368, 9.697 102.260 C 11.492 104.287, 11.476 104.292, 5.750 103.639 L 0 102.983 0 112.912 L 0 122.841 2.931 123.485 C 9.024 124.823, 9.056 128.251, 3.023 133.328 C 0.572 135.390, 0 136.640, 0 139.935 C 0 142.171, 0.449 144, 0.998 144 C 1.546 144, 4.138 142.461, 6.756 140.580 C 13.113 136.013, 16.493 135.185, 17.918 137.846 C 18.513 138.959, 19 140.798, 19 141.934 C 19 143.898, 19.549 144, 30.114 144 L 41.227 144 40.545 139.453 L 39.863 134.905 44.930 138.545 C 47.716 140.547, 50.249 142.593, 50.557 143.092 C 51.227 144.177, 91.003 144.332, 90.993 143.250 C 90.978 141.447, 83.979 132.934, 76.500 125.620 C 71.825 121.048, 65.884 117, 63.850 117 C 60.878 117, 61.698 114.320, 66.068 109.752 C 70.230 105.401, 74.078 98.807, 76.677 91.571 C 78.829 85.580, 81.991 72.657, 81.439 72.106 C 80.533 71.199, 57.604 78.070, 51.487 81.081 C 48.110 82.743, 43.059 86.105, 40.262 88.552 C 37.466 90.998, 34.981 93, 34.741 93 C 34.500 93, 33.474 91.161, 32.461 88.913 C 30.470 84.499, 15.133 71, 12.108 71 C 11.133 71, 9.144 73.396, 7.231 76.877 M 106.250 112.603 C 105.013 114.015, 104 116.073, 104 117.178 C 104 119.602, 110.962 128.897, 112.823 128.957 C 113.706 128.986, 113.433 128.095, 111.999 126.272 C 109.856 123.547, 109.856 123.544, 111.883 122.639 C 113.242 122.033, 115.480 122.250, 118.663 123.298 C 124.763 125.306, 125.879 124.539, 122.332 120.774 C 119.838 118.127, 109.571 109.970, 108.793 110.018 C 108.632 110.028, 107.487 111.191, 106.250 112.603 M 178 115.301 C 178 116.066, 177.283 118.129, 176.408 119.884 C 175.257 122.190, 174.325 122.920, 173.047 122.515 C 172.070 122.205, 170.248 122.788, 168.975 123.819 L 166.672 125.684 169.836 126.317 C 172.370 126.824, 173 127.445, 173 129.436 C 173 130.803, 172.397 132.485, 171.660 133.173 C 170.544 134.215, 170.670 135.224, 172.410 139.189 L 174.500 143.953 182.766 143.976 L 191.032 144 191.068 141.250 C 191.088 139.738, 191.342 133.325, 191.632 127 L 192.160 115.500 188.830 115.480 C 186.998 115.469, 183.813 115.112, 181.750 114.685 C 178.842 114.083, 178 114.222, 178 115.301" stroke="none" fill="black" fill-rule="evenodd"/>
</svg>