<svg xmlns="http://www.w3.org/2000/svg" width="192" height="144" viewBox="0 0 192 144" version="1.1">
	<path d="M 103.162 16.304 C 98.341 18.882, 95.618 23.653, 94.574 31.351 C 93.963 35.860, 94.004 35.942, 97.990 38.207 C 100.339 39.542, 101.906 41.126, 101.742 42 C 101.299 44.359, 108.094 50.151, 110.750 49.678 C 114.342 49.038, 113.400 51.123, 107.465 56.945 C 104.262 60.086, 102.151 62.951, 102.455 63.743 C 102.744 64.496, 102.310 66.717, 101.490 68.678 C 99.748 72.847, 99.592 76.798, 101.022 80.557 C 102.187 83.622, 102.910 83.687, 91.525 79.705 C 85.601 77.633, 84.353 76.781, 83.241 74.055 C 82.129 71.331, 82.163 70.379, 83.465 67.769 C 85.399 63.894, 85.368 63.036, 83.194 60.211 C 81.496 58.005, 81.298 57.978, 77.734 59.467 C 73.680 61.161, 73.915 60.554, 71.680 75.078 C 70.191 84.754, 70.522 89.971, 72.954 95.103 C 73.985 97.280, 73.844 98.928, 72.094 105.167 C 69.488 114.452, 69.466 116, 71.939 116 C 73.006 116, 75.958 117.800, 78.500 120 C 83.593 124.408, 85.694 125.166, 83.989 121.979 C 82.493 119.184, 83.292 118.358, 88.120 117.711 C 94.443 116.863, 94.550 116.292, 91.424 100.143 C 89.123 88.254, 89.493 87.844, 97.338 93.599 L 102.177 97.148 101.757 102.324 C 101.281 108.202, 97.624 127.169, 95.023 137.250 L 93.282 144 120.141 144 C 134.913 144, 147 143.640, 147 143.200 C 147 142.760, 146.587 141.973, 146.082 141.450 C 145.577 140.928, 142.577 134.200, 139.414 126.500 C 136.251 118.800, 131.882 109.575, 129.705 106 C 123.167 95.266, 121.665 86.857, 124.552 77.137 C 125.714 73.222, 126.738 71.670, 128.630 70.950 C 130.852 70.106, 131.073 69.599, 130.461 66.745 C 130.078 64.960, 128.961 61.363, 127.979 58.750 C 126.927 55.954, 126.619 54, 127.229 54 C 128.924 54, 131.918 49.956, 132.926 46.306 C 133.899 42.782, 133.696 40.285, 132.089 36 C 131.573 34.625, 130.628 31.163, 129.989 28.306 C 129.051 24.113, 127.889 22.235, 123.957 18.556 C 119.332 14.230, 118.793 14, 113.277 14 C 109.127 14, 106.240 14.658, 103.162 16.304" stroke="none" fill="black" fill-rule="evenodd"/>
</svg>