<svg xmlns="http://www.w3.org/2000/svg" width="192" height="144" viewBox="0 0 192 144" version="1.1">
	<path d="M 52.708 2.918 C 49.522 8.311, 49.410 14.274, 52.381 20.346 C 54.992 25.683, 61.030 31, 64.479 31 C 65.315 31, 66 31.424, 66 31.943 C 66 32.461, 64.091 33.023, 61.759 33.193 C 58.456 33.432, 57.434 33.940, 57.140 35.486 C 56.932 36.578, 55.691 38.392, 54.381 39.517 C 51.728 41.797, 51.200 45, 53.477 45 C 57.410 45, 60.755 56.909, 59.094 65 C 58.586 67.475, 57.637 72.875, 56.985 77 C 56.334 81.125, 55.217 86.750, 54.505 89.500 C 50.499 104.955, 48.777 118.324, 49.481 128.500 C 50.345 140.982, 51.408 144, 54.943 144 C 57.702 144, 57.722 143.956, 56.804 139.750 C 55.183 132.323, 54.430 118.755, 55.264 112.016 C 56.032 105.813, 57.068 100.288, 60.423 84.500 C 61.242 80.650, 62.209 75.925, 62.573 74 C 63.598 68.584, 63.983 68.574, 66.636 73.896 C 69.475 79.595, 73.727 82.693, 87.335 88.980 L 96.112 93.035 93.109 95.561 C 91.458 96.951, 89.813 99.081, 89.453 100.294 C 89.094 101.507, 87.712 104.110, 86.383 106.078 C 82.687 111.550, 81.602 118.779, 82.454 132.250 L 83.197 144 98.171 144 L 113.144 144 112.483 138.711 C 112.022 135.019, 112.264 132.376, 113.284 129.961 L 114.747 126.500 118.998 135.250 L 123.249 144 130.563 144 L 137.877 144 138.536 139.606 C 138.899 137.190, 138.705 129.836, 138.105 123.264 C 136.870 109.734, 137.201 105.366, 140.193 95.673 L 142.300 88.846 144.238 91.907 L 146.176 94.968 149.769 92.234 C 154.521 88.618, 161.680 78.801, 163.155 73.877 C 164.293 70.080, 164.215 69.817, 160.971 66.470 C 158.294 63.708, 156.832 63, 153.804 63 C 151.712 63, 150.028 62.663, 150.063 62.250 C 150.168 60.983, 163.410 54.926, 165.518 55.180 C 168.204 55.505, 177 53.932, 177 53.127 C 177 52.772, 176.116 51.929, 175.035 51.254 C 173.099 50.045, 173.103 49.993, 175.285 47.731 C 176.503 46.468, 178.737 44.651, 180.250 43.694 C 184.202 41.193, 183.748 39.769, 179.266 40.610 C 175.028 41.405, 161.492 46.179, 155.500 48.993 C 153.300 50.026, 149.790 51.179, 147.701 51.556 C 143.922 52.237, 143.905 52.226, 144.582 49.371 C 144.956 47.792, 146.553 45.455, 148.131 44.178 C 149.882 42.760, 151 40.897, 151 39.396 C 151 35.812, 148.349 35.286, 145.911 38.387 C 144.780 39.824, 143.096 41, 142.168 41 C 141.240 41, 139.919 41.900, 139.232 43 C 138.545 44.100, 137.142 45, 136.114 45 C 135.086 45, 133.710 45.645, 133.056 46.432 C 132.030 47.669, 131.324 47.673, 127.882 46.458 C 123.881 45.047, 116.259 45.379, 112.865 47.112 C 111.965 47.572, 110.273 49.781, 109.105 52.022 C 107.463 55.173, 107.220 56.543, 108.034 58.063 C 109.207 60.255, 107.695 61.393, 104.377 60.817 C 103.299 60.630, 102.515 61.116, 102.469 62 C 102.426 62.825, 101.856 64.757, 101.203 66.294 C 98.606 72.407, 98.634 73.924, 101.387 76.090 C 104.070 78.200, 104.828 81.370, 102.930 82.543 C 102.342 82.907, 99.229 81.802, 96.012 80.087 C 92.796 78.373, 87.401 75.931, 84.024 74.662 L 77.884 72.354 74.865 63.597 C 73.205 58.781, 72.076 54.244, 72.356 53.514 C 72.636 52.785, 71.995 51.401, 70.933 50.439 C 68.567 48.298, 68.572 48.094, 71.068 45.096 L 73.070 42.692 75.785 45.283 C 79.618 48.940, 83.686 50.231, 89.049 49.493 C 92.566 49.010, 93.945 49.229, 94.943 50.431 C 96.579 52.403, 97.454 52.403, 99.427 50.431 C 100.643 49.214, 100.753 48.406, 99.914 46.839 C 99.069 45.261, 99.305 43.719, 100.987 39.809 C 104.487 31.673, 101.654 23.334, 94.178 19.760 C 91.798 18.622, 91.431 17.758, 90.884 11.990 C 90.545 8.421, 89.769 4.263, 89.159 2.750 L 88.050 0 71.240 0 L 54.431 0 52.708 2.918 M 60.583 66.866 C 60.152 67.563, 60.070 68.403, 60.400 68.733 C 61.295 69.628, 62.271 68.312, 61.787 66.862 C 61.449 65.846, 61.213 65.846, 60.583 66.866 M 59.667 73.667 C 59.300 74.033, 59 74.798, 59 75.367 C 59 75.993, 59.466 75.934, 60.183 75.217 C 60.834 74.566, 61.134 73.801, 60.850 73.517 C 60.566 73.233, 60.033 73.300, 59.667 73.667 M 58 81.059 C 58 82.191, 58.450 82.840, 59 82.500 C 59.550 82.160, 60 81.234, 60 80.441 C 60 79.648, 59.550 79, 59 79 C 58.450 79, 58 79.927, 58 81.059 M 56.638 87.500 C 56.322 88.325, 56.499 89, 57.031 89 C 57.564 89, 58 88.325, 58 87.500 C 58 86.675, 57.823 86, 57.607 86 C 57.391 86, 56.955 86.675, 56.638 87.500 M 55 94.500 C 55 95.325, 55.450 96, 56 96 C 56.550 96, 57 95.325, 57 94.500 C 57 93.675, 56.550 93, 56 93 C 55.450 93, 55 93.675, 55 94.500 M 54.079 101.583 C 54.127 102.748, 54.364 102.985, 54.683 102.188 C 54.972 101.466, 54.936 100.603, 54.604 100.271 C 54.272 99.939, 54.036 100.529, 54.079 101.583 M 52 108.500 C 52 109.325, 52.450 110, 53 110 C 53.550 110, 54 109.325, 54 108.500 C 54 107.675, 53.550 107, 53 107 C 52.450 107, 52 107.675, 52 108.500 M 52.079 115.583 C 52.127 116.748, 52.364 116.985, 52.683 116.188 C 52.972 115.466, 52.936 114.603, 52.604 114.271 C 52.272 113.939, 52.036 114.529, 52.079 115.583 M 51 122.941 C 51 124.073, 51.450 125, 52 125 C 52.550 125, 53 124.352, 53 123.559 C 53 122.766, 52.550 121.840, 52 121.500 C 51.450 121.160, 51 121.809, 51 122.941 M 52.638 137.500 C 52.955 138.325, 53.602 139, 54.076 139 C 54.549 139, 54.678 138.325, 54.362 137.500 C 54.045 136.675, 53.398 136, 52.924 136 C 52.451 136, 52.322 136.675, 52.638 137.500" stroke="none" fill="black" fill-rule="evenodd"/>
</svg>