<svg xmlns="http://www.w3.org/2000/svg" width="192" height="144" viewBox="0 0 192 144" version="1.1">
	<path d="M 68.827 16.312 C 66.761 17.606, 63.630 18.450, 60.566 18.537 C 52.925 18.755, 50.649 22.238, 44.955 42.432 C 43.498 47.597, 43 52.490, 43 61.623 C 43 72.600, 43.906 77.303, 45.336 73.756 C 45.641 72.998, 45.873 73.194, 45.921 74.250 C 45.964 75.213, 46.450 76, 47 76 C 47.550 76, 48.016 75.213, 48.037 74.250 C 48.057 73.287, 48.989 74.454, 50.108 76.843 C 52.024 80.932, 52.231 81.078, 53.643 79.343 C 55.034 77.634, 55.104 77.734, 54.605 80.711 C 54.308 82.477, 54.501 84.191, 55.033 84.520 C 56.617 85.499, 56.131 88.827, 54.250 89.883 C 52.583 90.819, 52.583 90.898, 54.250 91.540 C 57.905 92.948, 55.879 124.708, 51.510 134.500 C 50.283 137.250, 48.961 140.512, 48.572 141.750 L 47.865 144 66.433 144 L 85 144 85 140.614 C 85 138.752, 85.672 135.940, 86.494 134.364 C 88.200 131.092, 88.392 123.445, 87.005 114 C 86.175 108.349, 86.272 107.334, 87.745 106.229 C 90.236 104.361, 90.675 106.350, 91.277 122.219 C 91.676 132.733, 92.228 136.802, 93.649 139.710 L 95.500 143.500 104.191 143.788 C 110.193 143.987, 113.983 143.616, 116.441 142.589 C 118.713 141.640, 120 141.489, 120 142.173 C 120 142.851, 120.561 142.780, 121.524 141.980 C 122.362 141.284, 123.307 140.974, 123.624 141.290 C 123.940 141.607, 125.493 140.542, 127.074 138.924 C 132.270 133.609, 135.876 115.654, 134.077 104.058 C 133.485 100.241, 133 96.901, 133 96.638 C 133 96.374, 134.463 95.865, 136.250 95.505 C 142.488 94.249, 143.197 93.779, 145.070 89.653 C 147.724 83.810, 147.506 80.499, 144.250 77.170 C 140.249 73.079, 134.040 72.866, 131.002 76.715 C 129.276 78.903, 128.907 80.411, 129.280 83.750 L 129.754 88 125.987 88 C 123.915 88, 117.872 88.895, 112.558 89.988 L 102.896 91.976 96.879 88.939 C 92.430 86.693, 90.594 85.132, 89.833 82.951 C 88.768 79.895, 87.174 79.226, 85.336 81.064 C 84.585 81.815, 83.616 81.015, 82.035 78.335 C 80.265 75.335, 79.938 73.704, 80.468 70.522 C 80.836 68.310, 81.119 65.574, 81.096 64.443 C 81.073 63.312, 82.409 60.903, 84.064 59.091 C 86.391 56.543, 86.820 55.488, 85.951 54.441 C 84.799 53.052, 85.550 50.604, 86.877 51.424 C 87.284 51.675, 88.940 50.825, 90.558 49.534 C 93.208 47.421, 93.479 46.670, 93.284 41.970 C 93.164 39.092, 92.303 35.574, 91.363 34.126 C 87.826 28.677, 75.727 15.162, 73.978 14.704 C 72.975 14.442, 70.657 15.166, 68.827 16.312" stroke="none" fill="black" fill-rule="evenodd"/>
</svg>