<svg xmlns="http://www.w3.org/2000/svg" width="192" height="144" viewBox="0 0 192 144" version="1.1">
	<path d="M 0 32.500 L 0 65 42 65 C 71.258 65, 84 64.674, 84 63.926 C 84 63.336, 82.487 57.373, 80.637 50.676 C 78.788 43.979, 75.585 32.200, 73.521 24.500 C 71.457 16.800, 69.113 8.138, 68.313 5.250 L 66.858 0 33.429 0 L 0 0 0 32.500 M 70.279 1.284 C 70.830 2.722, 78.643 31.154, 82.702 46.500 C 84.158 52, 85.720 56.927, 86.174 57.450 C 87.103 58.519, 89.410 56.668, 89.586 54.712 C 89.646 54.045, 89.764 52.712, 89.848 51.750 C 89.931 50.788, 90.675 50, 91.500 50 C 92.325 50, 93 49.491, 93 48.869 C 93 48.143, 94.209 47.934, 96.377 48.286 C 99.250 48.753, 99.919 48.473, 100.856 46.417 C 102.008 43.887, 104.838 43.238, 106.680 45.080 C 107.454 45.854, 109.081 45.712, 112.415 44.580 C 114.975 43.711, 119.907 43, 123.374 43 C 128.704 43, 130.239 43.425, 133.308 45.750 C 137.894 49.224, 138.499 51.058, 136.873 56.564 C 135.804 60.185, 134.974 61.184, 132.297 62.067 C 130.499 62.660, 128.770 63.563, 128.455 64.073 C 128.108 64.635, 140.505 65, 159.941 65 L 192 65 192 32.500 L 192 0 130.893 0 C 81.566 0, 69.881 0.247, 70.279 1.284 M 116 63.500 C 116 64.610, 117.105 64.980, 120.250 64.924 L 124.500 64.848 121 63.500 C 116.400 61.729, 116 61.729, 116 63.500 M 0 105.989 L 0 144 53.019 144 L 106.038 144 105.386 141.250 C 105.027 139.738, 104.051 136.925, 103.216 135 C 102.096 132.416, 101.588 131.958, 101.276 133.250 C 100.992 134.425, 99.885 135, 97.905 135 C 94.857 135, 93.791 133.572, 92.579 127.866 C 92.081 125.516, 91.418 125.158, 86.428 124.534 C 78.359 123.526, 74.452 120.838, 70.939 113.878 C 67.026 106.128, 64.794 97.411, 65.547 92.826 C 66.546 86.743, 73.503 80.689, 81 79.379 C 85.889 78.525, 86.124 78.226, 85.805 73.260 L 85.500 68.500 42.750 68.239 L 0 67.979 0 105.989 M 113.240 70.095 C 112.283 71.247, 110.658 72.515, 109.628 72.912 C 107.879 73.587, 107.928 73.820, 110.378 76.463 C 113.675 80.020, 113.717 82.716, 110.500 84.182 C 109.125 84.808, 108 85.631, 108 86.010 C 108 87.008, 113.381 94.265, 115.278 95.827 C 116.165 96.557, 117.637 99.401, 118.549 102.147 C 119.868 106.120, 119.994 107.983, 119.161 111.262 C 118.575 113.574, 118.484 116.042, 118.955 116.884 C 119.473 117.809, 119.248 119.218, 118.368 120.561 C 117.131 122.448, 117.135 123.120, 118.398 125.619 C 119.199 127.203, 121.451 131.988, 123.402 136.250 L 126.949 144 159.475 144 L 192 144 192 106 L 192 68 153.490 68 C 115.620 68, 114.952 68.035, 113.240 70.095 M 106.750 124.796 C 104.497 125.247, 104.545 126.600, 107.157 136.130 L 109.314 144 115.642 144 L 121.971 144 120.070 139.250 C 115.159 126.982, 114.094 125.240, 111.254 124.837 C 109.739 124.622, 107.713 124.604, 106.750 124.796" stroke="none" fill="black" fill-rule="evenodd"/>
</svg>