<svg xmlns="http://www.w3.org/2000/svg" width="192" height="144" viewBox="0 0 192 144" version="1.1">
	<path d="M 0 72 L 0 144 7.474 144 C 14.624 144, 15.009 143.881, 16.341 141.250 C 18.337 137.306, 19.272 131.286, 18.010 130.506 C 16.615 129.644, 17.292 123.559, 19.013 121.484 C 20.039 120.248, 20.124 119.166, 19.355 117.130 C 18.793 115.640, 18.655 113.763, 19.050 112.960 C 22.374 106.201, 24.457 97.900, 23.048 97.030 C 21.117 95.836, 23.001 93.208, 28.158 89.899 C 31.750 87.594, 32.770 86.470, 31.819 85.867 C 29.575 84.444, 28.116 84.901, 26.782 87.446 C 25.676 89.557, 25.510 88.287, 25.573 78.196 C 25.614 71.763, 26.009 63.237, 26.452 59.250 C 27.199 52.539, 27.119 51.999, 25.379 51.985 C 24.346 51.977, 21.711 50.457, 19.526 48.608 C 16.397 45.962, 15.791 44.954, 16.680 43.873 C 17.300 43.118, 17.964 41.375, 18.154 40 C 18.457 37.813, 18.939 37.533, 22 37.763 C 23.925 37.908, 25.962 37.683, 26.528 37.263 C 27.093 36.843, 28.103 33.812, 28.772 30.527 C 30.375 22.652, 34.448 16.247, 40.392 12.250 C 44.968 9.174, 45.714 9, 54.363 8.999 C 62.781 8.998, 63.736 8.792, 66.500 6.385 C 71.175 2.313, 73.821 0.771, 74.943 1.465 C 75.510 1.815, 76.714 4.649, 77.619 7.762 C 78.803 11.833, 80.473 14.631, 83.565 17.723 C 89.335 23.493, 92.411 31.573, 91.582 38.785 C 91.107 42.916, 91.435 45.140, 93.084 48.974 C 95.428 54.423, 95.060 56, 91.441 56 C 90.098 56, 89 56.185, 89 56.412 C 89 56.639, 89.632 60.130, 90.405 64.170 C 92.062 72.826, 95.862 81.763, 98.974 84.322 C 101.945 86.764, 100.853 87.605, 97.534 85.431 C 94.987 83.762, 94.787 83.781, 91.792 85.995 C 89.021 88.045, 88.333 88.161, 85.351 87.082 C 83.514 86.418, 81.559 86.154, 81.006 86.496 C 80.453 86.838, 80 86.416, 80 85.559 C 80 84.444, 79.003 84, 76.500 84 C 70.809 84, 72.469 85.538, 80.750 87.939 C 90.009 90.623, 91.178 91.441, 90.369 94.666 C 89.949 96.339, 90.294 97.495, 91.471 98.355 C 92.414 99.045, 93.597 101.834, 94.100 104.554 C 94.603 107.274, 95.630 109.959, 96.383 110.519 C 97.352 111.242, 97.608 113.019, 97.262 116.625 C 96.847 120.945, 97.104 122.019, 98.973 123.760 C 100.821 125.482, 100.988 126.153, 100.020 127.963 C 98.896 130.062, 99.099 132.324, 101.123 140.260 L 102.083 144.020 147.291 143.760 L 192.500 143.500 192.757 71.750 L 193.013 0 96.507 0 L 0 0 0 72 M 0.474 72.500 C 0.474 112.100, 0.598 128.154, 0.750 108.176 C 0.901 88.198, 0.901 55.798, 0.750 36.176 C 0.598 16.554, 0.474 32.900, 0.474 72.500 M 102 6 C 102 6.550, 102.450 7, 103 7 C 103.550 7, 104 6.550, 104 6 C 104 5.450, 103.550 5, 103 5 C 102.450 5, 102 5.450, 102 6 M 10 18.532 C 10 19.375, 10.696 21.730, 11.547 23.766 C 12.768 26.689, 13.290 27.155, 14.031 25.984 C 15.110 24.278, 15.276 20.882, 14.393 18.582 C 13.614 16.552, 10 16.511, 10 18.532 M 172 49 C 172 49.550, 172.477 50, 173.059 50 C 173.641 50, 173.840 49.550, 173.500 49 C 173.160 48.450, 172.684 48, 172.441 48 C 172.198 48, 172 48.450, 172 49 M 146.667 81.667 C 145.356 82.978, 146.034 83.804, 148 83.290 C 149.100 83.002, 150 82.369, 150 81.883 C 150 80.850, 147.637 80.697, 146.667 81.667 M 78.937 138.250 C 78.310 140.588, 77.591 142.838, 77.340 143.250 C 77.088 143.662, 78.259 144, 79.941 144 C 82.945 144, 83 143.910, 83 139 C 83 132.534, 80.590 132.089, 78.937 138.250" stroke="none" fill="black" fill-rule="evenodd"/>
</svg>