<svg xmlns="http://www.w3.org/2000/svg" width="192" height="144" viewBox="0 0 192 144" version="1.1">
	<path d="M -0 72.005 L -0 144.010 96.250 143.755 L 192.500 143.500 192.757 71.750 L 193.013 0 96.507 0 L 0 0 -0 72.005 M 0.474 72.500 C 0.474 112.100, 0.598 128.154, 0.750 108.176 C 0.901 88.198, 0.901 55.798, 0.750 36.176 C 0.598 16.554, 0.474 32.900, 0.474 72.500 M 101.011 52.487 C 99.413 54.412, 100.421 57, 102.769 57 C 105.586 57, 107.084 55.025, 105.918 52.847 C 104.725 50.617, 102.687 50.468, 101.011 52.487 M 82.709 52.624 C 81.384 53.949, 81.993 57.783, 83.627 58.410 C 85.843 59.261, 88.162 57.135, 87.798 54.588 C 87.503 52.518, 84.120 51.213, 82.709 52.624 M 118.037 53.931 C 117.254 55.395, 117.394 56.251, 118.618 57.475 C 119.506 58.363, 120.710 58.930, 121.295 58.735 C 123.057 58.148, 124.359 55.377, 123.691 53.636 C 122.829 51.391, 119.298 51.575, 118.037 53.931 M 65.089 55.393 C 63.633 57.147, 65.230 61, 67.413 61 C 69.737 61, 71.521 58.049, 70.335 56.166 C 68.926 53.929, 66.590 53.584, 65.089 55.393 M 134.582 56.316 C 131.772 58.371, 132.938 61.500, 136.514 61.500 C 138.900 61.500, 139.568 61.021, 139.837 59.113 C 140.023 57.800, 139.573 56.345, 138.837 55.878 C 137.048 54.744, 136.681 54.782, 134.582 56.316 M 49.105 59.373 C 46.944 61.977, 50.114 65.661, 53.423 64.391 C 56.908 63.054, 55.783 58, 52 58 C 51.035 58, 49.732 58.618, 49.105 59.373 M 146.750 61.067 C 144.624 62.321, 144.473 65.317, 146.452 66.960 C 149.653 69.617, 154.570 65.715, 152.388 62.250 C 151.040 60.110, 149.071 59.697, 146.750 61.067 M 38.200 64.200 C 37.540 64.860, 37 66.003, 37 66.740 C 37 67.478, 36.022 69.404, 34.827 71.020 C 32.716 73.875, 32.706 74.018, 34.482 75.980 C 35.487 77.091, 36.866 78, 37.547 78 C 38.227 78, 39.062 79.112, 39.403 80.471 C 40.749 85.834, 48 85.789, 48 80.418 C 48 78.675, 47.084 77.386, 45.006 76.203 C 41.738 74.343, 41.155 71.946, 43.500 70 C 45.429 68.399, 45.404 66.547, 43.429 64.571 C 41.550 62.692, 39.830 62.570, 38.200 64.200 M 153.223 67.557 C 152 68.413, 151 69.880, 151 70.816 C 151 71.753, 150.100 73.081, 149 73.768 C 146.616 75.257, 146.376 79.237, 148.560 81.050 C 150.861 82.960, 155.356 81.103, 155.994 77.978 C 156.272 76.615, 157.347 74.251, 158.382 72.724 C 160.190 70.057, 160.194 69.872, 158.477 67.974 C 156.324 65.596, 156.053 65.574, 153.223 67.557 M 131.604 81.155 C 128.517 85.562, 134.957 90.159, 139.040 86.464 C 141.481 84.254, 141.515 82.776, 139.171 80.655 C 136.647 78.370, 133.405 78.584, 131.604 81.155 M 55.750 82.080 C 51.915 84.314, 54.583 90.496, 59.093 89.827 C 62.332 89.346, 63.647 86.716, 62.217 83.578 C 60.989 80.883, 58.712 80.355, 55.750 82.080 M 106.452 86.646 C 105.104 88.101, 104 88.776, 104 88.146 C 104 86.097, 102.538 86.945, 100.797 90.006 C 98.391 94.235, 93.609 94.235, 91.203 90.006 C 89.426 86.883, 88.011 86.111, 87.985 88.250 C 87.974 89.115, 87.743 89.161, 87.235 88.400 C 86.831 87.795, 85.557 86.803, 84.405 86.197 C 81.711 84.780, 78.014 87.140, 77.968 90.307 C 77.939 92.343, 77.841 92.375, 76.608 90.750 C 74.712 88.253, 73.936 88.582, 74.180 91.779 C 74.296 93.307, 74.052 95.107, 73.637 95.779 C 72.732 97.243, 67.373 97.413, 66.503 96.005 C 66.165 95.458, 64.980 94.524, 63.869 93.930 C 62.046 92.954, 61.954 93.045, 62.924 94.859 C 64.413 97.640, 64.269 100.532, 62.572 101.940 C 61.458 102.865, 60.468 102.776, 58.072 101.537 C 54.674 99.780, 54.136 100.387, 56.638 103.153 C 57.973 104.628, 58.043 105.243, 57.016 106.481 C 56.322 107.317, 55.109 108, 54.319 108 C 53.528 108, 53.131 108.402, 53.434 108.894 C 53.738 109.385, 53.318 111.389, 52.500 113.346 C 50.053 119.201, 53.670 125.331, 62.722 130.668 C 75.719 138.331, 105.315 139.849, 122 133.708 C 135.456 128.755, 141.989 121.107, 139.161 113.615 C 138.404 111.611, 138.353 110.247, 139.008 109.592 C 140.657 107.943, 140.124 106.826, 138.009 107.497 C 134.506 108.609, 133.751 107.088, 135.953 103.355 C 137.079 101.447, 138 99.677, 138 99.423 C 138 99.168, 136.185 99.886, 133.966 101.017 C 131.747 102.149, 129.497 102.807, 128.966 102.479 C 127.682 101.685, 127.740 98.355, 129.081 95.849 C 130.765 92.703, 129.390 92.494, 125.966 95.376 C 124.250 96.819, 122.296 98, 121.623 98 C 119.538 98, 118 95.732, 118 92.658 C 118 89.464, 113.243 84, 110.461 84 C 109.605 84, 107.801 85.191, 106.452 86.646 M 84.734 103.021 C 75.815 105.281, 68.721 110.953, 69.534 115.174 C 71.099 123.305, 78.403 126.376, 96 126.300 C 110.173 126.239, 114.979 124.889, 119.948 119.570 C 122.318 117.033, 122.348 116.818, 120.901 112.725 C 119.612 109.079, 118.606 108.109, 113.565 105.648 C 108.652 103.249, 106.195 102.738, 98.112 102.431 C 92.825 102.231, 86.806 102.496, 84.734 103.021" stroke="none" fill="black" fill-rule="evenodd"/>
</svg>