<svg xmlns="http://www.w3.org/2000/svg" width="192" height="144" viewBox="0 0 192 144" version="1.1">
	<path d="M 142.232 2.750 C 141.437 5.020, 140.330 5.719, 135.884 6.757 C 125.338 9.219, 117.307 17.625, 116.315 27.240 C 115.602 34.148, 116.279 36.990, 119.571 40.902 C 122.160 43.979, 122.109 46, 119.441 46 C 117.650 46, 117.617 46.984, 119.322 49.527 C 120.050 50.612, 121.248 54.093, 121.985 57.263 C 122.722 60.432, 123.824 63.439, 124.432 63.944 C 125.041 64.449, 127.555 65.006, 130.020 65.181 L 134.500 65.500 134.500 69.542 C 134.500 73.258, 133.960 74.072, 127.779 79.674 C 122.184 84.744, 120.258 85.882, 116.279 86.471 C 111.428 87.188, 108 89.294, 108 91.556 C 108 92.241, 105.977 93.634, 103.504 94.651 C 101.031 95.668, 99.006 97.014, 99.004 97.643 C 99 98.744, 96.823 100, 94.918 100 C 94.394 100, 94 92.068, 94 81.500 C 94 71.325, 94.250 63, 94.555 63 C 94.860 63, 98.311 64.362, 102.223 66.027 C 112.594 70.440, 112.813 69.098, 102.646 63.437 C 95.801 59.625, 93.527 57.803, 92.475 55.286 C 90.696 51.028, 85.441 47.778, 81.649 48.592 C 78.779 49.207, 70.316 47.438, 68.550 45.853 C 68.027 45.384, 66.735 45, 65.678 45 C 64.011 45, 63.936 45.218, 65.113 46.636 C 65.860 47.536, 68.127 49.318, 70.152 50.596 C 72.940 52.356, 73.705 53.411, 73.304 54.944 C 72.318 58.715, 73.815 62, 76.519 62 C 78.093 62, 79 62.567, 79 63.550 C 79 64.402, 79.699 66.451, 80.553 68.102 C 81.948 70.799, 81.954 72.094, 80.612 80.803 C 76.297 108.823, 76.131 113.878, 79.401 117.680 C 82.525 121.312, 87.046 121.252, 98.018 117.432 C 104.523 115.168, 106.301 114.869, 106.957 115.931 C 107.408 116.660, 108.222 116.981, 108.766 116.645 C 109.799 116.006, 110.589 121.242, 111.648 135.750 L 112.251 144 136.639 144 L 161.027 144 160.764 134.432 L 160.500 124.865 169.100 124.584 C 177.822 124.299, 180.497 123.614, 179.457 121.931 C 179.141 121.419, 180.484 121, 182.441 121 L 186 121 185.785 125.951 C 185.527 131.876, 186.297 132.946, 189.037 130.467 C 191.080 128.618, 191.084 128.626, 190.383 133.056 C 189.996 135.500, 189.681 137.950, 189.682 138.500 C 189.692 142.159, 190.133 144, 191 144 C 191.652 144, 192 128.333, 192 99 C 192 57.637, 191.555 49.813, 189.541 55.750 C 188.963 57.454, 184.494 63, 183.698 63 C 183.347 63, 182.619 53.224, 181.578 34.500 C 181.071 25.372, 174.073 10.715, 168.900 7.946 C 167.700 7.304, 166.945 5.974, 167.048 4.681 C 167.424 -0.054, 167.563 0, 155.098 0 L 143.196 0 142.232 2.750 M 185.500 119 C 185.840 119.550, 186.316 120, 186.559 120 C 186.802 120, 187 119.550, 187 119 C 187 118.450, 186.523 118, 185.941 118 C 185.359 118, 185.160 118.450, 185.500 119 M 39.678 133.429 C 37.696 136.415, 35.783 140.015, 35.428 141.429 L 34.783 144 48.916 144 L 63.049 144 54.274 136.007 C 49.448 131.611, 45.001 128.011, 44.392 128.007 C 43.782 128.003, 41.661 130.443, 39.678 133.429" stroke="none" fill="black" fill-rule="evenodd"/>
</svg>