<svg xmlns="http://www.w3.org/2000/svg" width="192" height="144" viewBox="0 0 192 144" version="1.1">
	<path d="M 146 2.134 C 146 6.242, 148.391 12.289, 150.202 12.763 C 151.191 13.022, 152 13.363, 152 13.521 C 152 13.679, 150.842 17.114, 149.427 21.154 C 142.728 40.283, 140 52.411, 140 63.063 C 140 68.701, 139.608 72, 138.938 72 C 138.354 72, 133.846 70.840, 128.919 69.423 C 123.992 68.006, 119.424 67.025, 118.767 67.244 C 118.109 67.464, 122.686 69.066, 128.937 70.806 C 135.188 72.546, 140.542 74.209, 140.835 74.502 C 141.127 74.794, 140.845 75.555, 140.208 76.192 C 139.329 77.071, 135.596 76.931, 124.774 75.613 C 116.923 74.657, 108.997 73.483, 107.160 73.003 C 105.323 72.524, 103.226 72.360, 102.500 72.638 C 101.774 72.917, 100.961 72.325, 100.693 71.322 C 99.687 67.568, 100.017 54.946, 101.169 53.101 C 102.129 51.564, 102.023 50.684, 100.618 48.539 C 99.234 46.428, 98.223 45.946, 95.688 46.191 C 92.803 46.471, 92.528 46.785, 92.794 49.500 C 93.402 55.708, 92.970 60.901, 90.671 75 C 89.819 80.225, 88.982 87.189, 88.811 90.475 C 88.502 96.411, 88.519 96.453, 91.488 96.983 C 95.374 97.676, 95.854 100.290, 92.387 101.870 C 87.897 103.915, 91.269 105.400, 99.750 105.111 C 102.873 105.004, 104.553 103, 101.519 103 C 99.962 103, 98.406 98.771, 99.382 97.191 C 99.696 96.683, 101.139 96.495, 102.589 96.772 L 105.226 97.276 104.519 92.142 C 104.131 89.318, 103.257 84.306, 102.576 81.004 C 101.098 73.830, 99.313 74.228, 120.500 77 C 128.750 78.079, 136.918 78.971, 138.652 78.981 C 141.248 78.997, 141.989 79.529, 142.850 82 C 143.786 84.685, 144.332 85, 148.059 85 L 152.223 85 151.574 81.545 C 150.985 78.405, 151.212 77.942, 154.056 76.471 C 155.777 75.581, 157.257 74.998, 157.343 75.176 C 158.903 78.391, 160.159 79.555, 162.351 79.816 C 165.598 80.204, 165.602 80.390, 162.500 87.404 C 161.125 90.513, 160 93.835, 160 94.786 C 160 95.737, 156.621 99.436, 152.492 103.007 L 144.984 109.500 145.454 114.327 C 145.895 118.853, 145.515 119.835, 139.364 130.079 C 135.756 136.087, 132.398 141.254, 131.902 141.561 C 128.620 143.589, 133.611 144, 161.500 144 L 192 144 192 92.949 L 192 41.898 188 32.500 C 185.224 25.979, 183.993 21.632, 183.978 18.301 C 183.949 12.050, 181.200 6.153, 176.722 2.737 C 173.219 0.065, 172.810 0, 159.567 0 C 146.383 0, 146 0.060, 146 2.134 M 150.981 41.250 C 148.176 50.432, 146.922 60.048, 147.668 66.644 C 148.487 73.876, 148.937 74.365, 153.607 73.099 C 156.725 72.254, 158.052 71.094, 160.276 67.272 C 161.802 64.647, 163.599 61.714, 164.268 60.753 C 165.226 59.379, 165.221 58.583, 164.243 57.017 C 162.619 54.417, 162.677 51.143, 164.406 47.830 C 165.725 45.301, 165.654 45.099, 163.066 44.027 C 161.562 43.405, 159.067 40.894, 157.521 38.448 C 155.975 36.001, 154.369 34, 153.952 34 C 153.536 34, 152.198 37.263, 150.981 41.250 M 165.615 72.465 C 163.908 75.070, 163.560 77.227, 164.669 78.335 C 165.215 78.882, 170 71.758, 170 70.398 C 170 68.986, 166.954 70.421, 165.615 72.465" stroke="none" fill="black" fill-rule="evenodd"/>
</svg>