<svg xmlns="http://www.w3.org/2000/svg" width="192" height="144" viewBox="0 0 192 144" version="1.1">
	<path d="M 49.544 30 C 47.717 36.271, 47.852 38.783, 50.101 40.358 C 51.354 41.236, 52.082 42.251, 51.719 42.614 C 51.356 42.977, 51.946 44.520, 53.030 46.041 C 55.408 49.382, 55.501 50.594, 53.437 51.386 C 52.577 51.716, 52.128 52.398, 52.439 52.902 C 52.751 53.405, 51.429 56.211, 49.503 59.136 C 45.503 65.210, 45.157 67.478, 48 69 C 50.373 70.270, 50.726 75.501, 48.642 78.527 C 47.342 80.416, 45.465 87.638, 45.845 89.291 C 45.945 89.725, 45.557 90.958, 44.984 92.031 C 43.577 94.659, 40.265 118.846, 39.409 132.750 L 38.715 144 57.358 144 C 68.934 144, 76 143.627, 76 143.015 C 76 135.495, 72.367 107.360, 70.466 100.161 C 67.551 89.121, 67.461 86.979, 69.668 81.200 C 71.089 77.479, 71.155 76.130, 70.115 72.073 C 69.444 69.455, 68.990 66.905, 69.107 66.407 C 69.223 65.908, 69.082 64.825, 68.795 64 C 68.066 61.910, 65.958 53.791, 65.707 52.110 C 65.593 51.345, 66.850 49.962, 68.500 49.036 C 73.926 45.989, 72.829 37.030, 66.259 30.745 C 63.628 28.227, 62.802 28.011, 56.680 28.245 C 51.744 28.433, 49.866 28.895, 49.544 30" stroke="none" fill="black" fill-rule="evenodd"/>
</svg>