<svg xmlns="http://www.w3.org/2000/svg" width="192" height="144" viewBox="0 0 192 144" version="1.1">
	<path d="M 0 72 L 0 144 39.894 144 L 79.787 144 78.868 139.908 C 78.362 137.657, 78.122 129.770, 78.335 122.381 C 78.576 114.029, 78.342 108.711, 77.717 108.325 C 76.630 107.653, 77.398 87.731, 78.636 84.507 C 79.237 82.941, 78.990 82.788, 76.919 83.444 C 71.582 85.131, 68.394 85.179, 67.076 83.591 C 65.967 82.255, 66.264 81.001, 68.992 75.515 C 70.769 71.943, 71.966 68.353, 71.653 67.537 C 71.339 66.721, 71.742 65.684, 72.546 65.234 C 73.711 64.582, 73.212 63.636, 70.099 60.597 C 67.949 58.497, 65.134 56.241, 63.844 55.584 C 62.513 54.905, 61.626 53.661, 61.791 52.706 C 62.240 50.114, 60.151 47, 57.965 47 C 55.802 47, 55.437 45.963, 57.037 44.363 C 57.753 43.647, 57.753 42.482, 57.037 40.598 C 56.467 39.097, 56 36.711, 56 35.295 C 56 30.887, 61.394 28.360, 64.028 31.534 C 65.063 32.780, 65.043 33.551, 63.924 35.641 C 62.676 37.974, 62.750 38.379, 64.713 39.968 C 66.257 41.219, 66.570 42.030, 65.803 42.797 C 65.036 43.564, 65.689 44.121, 68.082 44.741 C 70.273 45.309, 71.620 46.359, 71.968 47.769 C 72.827 51.253, 83.334 60, 86.660 59.999 C 89.343 59.998, 89.497 59.764, 89.442 55.749 C 89.411 53.412, 88.848 50.517, 88.192 49.316 C 85.941 45.192, 86.719 40.435, 90.217 36.937 C 91.986 35.168, 93.449 32.771, 93.467 31.610 C 93.491 30.051, 94.233 29.416, 96.309 29.178 C 97.854 29.001, 99.365 28.213, 99.666 27.428 C 100.385 25.555, 102.432 25.610, 104.038 27.546 C 104.743 28.396, 105.886 28.874, 106.577 28.609 C 107.269 28.343, 108.083 28.773, 108.386 29.563 C 108.689 30.353, 110.068 31, 111.450 31 C 113.388 31, 114.090 31.628, 114.522 33.750 C 114.830 35.263, 116.032 38.423, 117.193 40.774 C 119.668 45.786, 119.736 49.267, 117.493 56.022 C 116.592 58.735, 116.138 61.414, 116.485 61.976 C 117.269 63.244, 112.092 67.925, 109.857 67.968 C 107.917 68.006, 107 70.010, 107 74.210 C 107 75.886, 105.174 81.531, 102.942 86.756 C 100.710 91.980, 99.094 96.803, 99.352 97.474 C 99.609 98.146, 102.338 99.717, 105.416 100.966 C 110.287 102.943, 111.269 103.821, 113.006 107.746 C 115.232 112.778, 115.514 116.171, 113.950 119.094 C 113.160 120.570, 113.431 122.845, 115.046 128.278 C 116.226 132.250, 117.676 137.418, 118.267 139.762 L 119.343 144.024 155.921 143.762 L 192.500 143.500 192.757 71.750 L 193.013 0 96.507 0 L 0 0 0 72 M 0.474 72.500 C 0.474 112.100, 0.598 128.154, 0.750 108.176 C 0.901 88.198, 0.901 55.798, 0.750 36.176 C 0.598 16.554, 0.474 32.900, 0.474 72.500" stroke="none" fill="black" fill-rule="evenodd"/>
</svg>