<svg xmlns="http://www.w3.org/2000/svg" width="192" height="144" viewBox="0 0 192 144" version="1.1">
	<path d="M 52.545 26.928 C 52.196 27.491, 51.645 30.204, 51.319 32.955 C 50.837 37.025, 51.032 38.075, 52.363 38.586 C 53.263 38.931, 54 40.005, 54 40.972 C 54 41.939, 54.894 43.866, 55.986 45.255 C 57.724 47.465, 57.786 47.933, 56.486 49.012 C 55.669 49.690, 55 51.020, 55 51.967 C 55 52.915, 54.162 54.448, 53.139 55.375 C 52.115 56.301, 50.446 58.901, 49.431 61.153 C 47.593 65.229, 47.594 65.253, 49.793 67.033 C 52.086 68.890, 52.951 75.294, 51.066 76.459 C 49.655 77.331, 47.369 86.268, 45.556 98 C 44.664 103.775, 43.518 111.200, 43.010 114.500 C 42.501 117.800, 41.810 124.775, 41.473 130 C 41.136 135.225, 40.618 140.512, 40.322 141.750 L 39.783 144 59.508 144 L 79.233 144 78.679 141.250 C 78.375 139.738, 77.402 132.875, 76.517 126 C 74.629 111.323, 69.166 87.383, 67.365 85.888 C 66.470 85.145, 66.382 84.126, 67.058 82.348 C 67.580 80.974, 68.173 75.946, 68.375 71.175 C 68.576 66.404, 69.034 61.814, 69.391 60.976 C 69.748 60.138, 69.373 57.234, 68.557 54.523 C 67.741 51.812, 67.169 49.517, 67.287 49.424 C 67.404 49.331, 68.956 48.514, 70.736 47.609 C 76.570 44.642, 76.088 36.762, 69.642 29.725 C 66.822 26.647, 65.559 26.003, 62.365 26.015 C 60.239 26.024, 57.840 26.448, 57.034 26.958 C 56.118 27.537, 55.118 27.513, 54.373 26.894 C 53.580 26.237, 52.965 26.248, 52.545 26.928 M 164.500 139.713 C 162.106 140.314, 160 141.910, 160 143.122 C 160 143.605, 164.050 144, 169 144 C 177.668 144, 179.421 143.378, 176.750 141.249 C 175.217 140.027, 167.234 139.026, 164.500 139.713" stroke="none" fill="black" fill-rule="evenodd"/>
</svg>