<svg xmlns="http://www.w3.org/2000/svg" width="192" height="144" viewBox="0 0 192 144" version="1.1">
	<path d="M 51.873 26.500 C 51.801 26.500, 51.602 27.625, 51.432 29 C 51.261 30.375, 50.830 32.666, 50.474 34.092 C 50.020 35.911, 50.370 37.227, 51.648 38.505 C 52.649 39.506, 53.475 40.814, 53.484 41.413 C 53.493 42.011, 54.375 43.792, 55.444 45.371 C 57.308 48.123, 57.314 48.297, 55.594 49.555 C 54.607 50.276, 54.117 51.380, 54.505 52.007 C 54.892 52.635, 54.319 54.127, 53.230 55.324 C 48.898 60.085, 47.695 65.672, 50.500 68 C 52.284 69.481, 52.462 74.269, 50.844 77.292 C 49.694 79.441, 48.183 84.613, 47.547 88.575 C 47.364 89.716, 46.737 93.091, 46.152 96.075 C 44.471 104.660, 42.156 123.612, 41.490 134.250 L 40.879 144 59.940 144 C 71.192 144, 79 143.614, 79 143.058 C 79 142.541, 78.099 134.553, 76.999 125.308 C 74.988 108.418, 70.566 88.591, 68.164 85.697 C 67.108 84.425, 67.130 83.633, 68.286 81.322 C 69.911 78.072, 69.910 57.166, 68.283 53.063 C 67.438 50.930, 67.822 50.160, 71.365 46.889 L 75.413 43.151 73.681 37.657 C 72.517 33.963, 70.801 31.154, 68.445 29.086 C 65.213 26.249, 64.437 26.028, 58.472 26.255 C 54.915 26.390, 51.945 26.500, 51.873 26.500 M 131.500 54.713 C 130.400 54.978, 129.072 55.600, 128.550 56.097 C 128.028 56.594, 126.822 57, 125.871 57 C 124.921 57, 123.471 57.672, 122.649 58.494 C 121.325 59.818, 121.340 60.457, 122.787 64.141 C 124.387 68.214, 124.375 68.325, 122.129 69.897 C 120.869 70.779, 118.465 72.654, 116.785 74.065 C 114.110 76.312, 113.876 76.900, 114.901 78.815 C 115.878 80.641, 116.944 81, 121.382 81 C 128.760 81, 129.702 83.145, 125.977 91.470 C 124.493 94.786, 122.981 98.745, 122.616 100.266 C 121.845 103.485, 124.491 113.655, 126.774 116.253 C 128.792 118.549, 127.208 124.204, 123.099 129.375 C 118.835 134.741, 120.239 137.345, 128 138.459 C 129.595 138.688, 131 140.374, 131 142.059 C 131 143.795, 131.738 144, 138 144 C 143.538 144, 145 143.688, 145 142.508 C 145 141.688, 145.900 140.455, 147 139.768 C 148.829 138.626, 149 137.436, 149 125.876 C 149 114.085, 149.134 113.198, 150.995 112.712 C 152.092 112.425, 153.292 111.403, 153.661 110.441 C 154.711 107.705, 152.270 100.231, 148.726 95.326 C 146.952 92.870, 144.708 89.430, 143.740 87.681 C 142.612 85.641, 141.364 84.624, 140.260 84.847 C 138.957 85.109, 139.093 84.745, 140.822 83.345 C 142.077 82.329, 143.234 80.598, 143.392 79.499 C 143.560 78.337, 144.586 77.366, 145.841 77.180 C 147.028 77.005, 148 76.347, 148 75.718 C 148 75.089, 149.216 73.606, 150.702 72.421 C 153.346 70.312, 153.367 70.209, 151.679 67.633 C 150.188 65.357, 149.260 65, 144.837 65 C 139.171 65, 137.087 63.384, 137.032 58.950 C 137.002 56.581, 135.317 53.849, 134.050 54.116 C 133.748 54.180, 132.600 54.448, 131.500 54.713 M 129.746 97.587 C 128.245 99.088, 129.022 103.533, 131 104.768 C 132.717 105.840, 132.994 105.768, 132.955 104.258 C 132.885 101.541, 130.581 96.752, 129.746 97.587" stroke="none" fill="black" fill-rule="evenodd"/>
</svg>