<svg xmlns="http://www.w3.org/2000/svg" width="192" height="144" viewBox="0 0 192 144" version="1.1">
	<path d="M 0 72 L 0 144 35 144 C 58.799 144, 70 143.664, 70 142.949 C 70 141.554, 75.869 139.163, 82.269 137.949 C 88.025 136.857, 89.278 136.068, 88.149 134.241 C 87.563 133.293, 85.858 133.599, 80.941 135.535 C 72.441 138.881, 68.207 138.547, 65.757 134.336 C 64.010 131.333, 63.999 130.825, 65.543 124.336 C 67.235 117.225, 67.868 112.340, 68.314 102.949 C 68.748 93.794, 75.189 84.612, 82.645 82.515 L 86.500 81.431 86.418 70.966 C 86.373 65.210, 85.974 57.061, 85.532 52.859 L 84.728 45.218 81.114 44.620 C 79.126 44.291, 76.037 44.017, 74.250 44.011 C 72.463 44.005, 71 43.599, 71 43.109 C 71 42.619, 72.788 40.054, 74.974 37.409 C 78.526 33.110, 78.791 32.427, 77.474 30.971 C 75.382 28.660, 75.649 27, 78.111 27 C 80.351 27, 80.347 27.193, 78.291 16.750 C 77.480 12.627, 79.238 13.393, 84.367 19.396 L 88.977 24.792 93.239 23.814 C 95.582 23.275, 103.893 22.984, 111.706 23.167 L 125.912 23.500 130.531 19 L 135.149 14.500 134.450 22.700 L 133.751 30.899 136.625 31.550 C 148.443 34.225, 150.666 35.416, 146.672 36.935 C 145.154 37.512, 142.807 38.261, 141.456 38.600 C 140.105 38.939, 139 39.834, 139 40.589 C 139 41.958, 137.934 42.330, 130.657 43.505 C 127.212 44.061, 126.877 44.372, 127.414 46.512 C 128.291 50.008, 129.966 71.404, 129.984 79.354 C 129.998 85.257, 130.494 87.148, 133.564 92.989 C 137.266 100.035, 138.140 104.922, 136.130 107.344 C 135.286 108.360, 135.246 109.517, 135.986 111.462 C 136.551 112.950, 136.800 114.514, 136.539 114.937 C 136.278 115.360, 136.520 118.585, 137.079 122.103 C 137.774 126.483, 138.726 128.987, 140.100 130.045 C 141.697 131.274, 141.922 132.090, 141.201 134.045 C 140.702 135.395, 140.503 138.195, 140.759 140.267 L 141.223 144.033 166.861 143.767 L 192.500 143.500 192.757 71.750 L 193.013 0 96.507 0 L 0 0 0 72 M 0.474 72.500 C 0.474 112.100, 0.598 128.154, 0.750 108.176 C 0.901 88.198, 0.901 55.798, 0.750 36.176 C 0.598 16.554, 0.474 32.900, 0.474 72.500 M 84.887 114.250 C 83.543 118.208, 83.507 119, 84.668 119 C 86.501 119, 87.215 116.960, 86.820 112.845 L 86.500 109.500 84.887 114.250" stroke="none" fill="black" fill-rule="evenodd"/>
</svg>