<svg xmlns="http://www.w3.org/2000/svg" width="192" height="144" viewBox="0 0 192 144" version="1.1">
	<path d="M 45 72 L 45 144 118.407 144 L 191.813 144 192.157 106.750 C 192.346 86.262, 192.344 53.863, 192.153 34.750 L 191.806 0 118.403 0 L 45 0 45 72 M 120.608 55.005 C 118.750 56.903, 118.761 56.998, 121.214 60.219 C 122.588 62.024, 124.030 64.625, 124.419 66 C 124.808 67.375, 125.621 69.509, 126.227 70.741 C 126.995 72.304, 127.017 73.667, 126.300 75.241 C 125.735 76.484, 125.477 78.893, 125.727 80.594 C 126.117 83.253, 125.583 84.201, 121.934 87.324 C 117.092 91.469, 118.206 91.528, 101.500 86.247 C 88.430 82.115, 82.075 80.592, 81.269 81.398 C 80.310 82.357, 84.027 85.862, 86.354 86.194 C 87.534 86.362, 88.500 87.175, 88.500 88 C 88.500 89.019, 89.520 89.500, 91.684 89.500 C 93.723 89.500, 95.882 90.434, 97.684 92.097 C 100.989 95.144, 105.119 98, 106.223 98 C 108.179 98, 106.611 96.153, 102.391 93.486 C 99.856 91.883, 98.296 90.401, 98.924 90.192 C 100.218 89.761, 116.534 93.776, 119.328 95.213 C 120.333 95.730, 120.930 96.739, 120.656 97.455 C 119.988 99.194, 121.916 100.999, 124.450 101.006 C 125.578 101.009, 128.188 101.480, 130.250 102.053 C 133.632 102.992, 134 103.423, 134 106.453 C 134 109.320, 134.293 109.736, 136 109.290 C 137.118 108.997, 138 109.259, 138 109.883 C 138 110.498, 138.675 111, 139.500 111 C 140.474 111, 141 110.024, 141 108.217 C 141 105.619, 141.295 105.422, 145.456 105.241 C 147.906 105.134, 150.162 105.454, 150.469 105.951 C 150.777 106.448, 152.709 107.390, 154.764 108.045 C 156.819 108.701, 161.533 110.548, 165.239 112.150 C 171.586 114.893, 172.150 114.974, 174.926 113.538 C 176.547 112.700, 178.574 112.283, 179.430 112.612 C 180.456 113.005, 181.270 112.445, 181.816 110.967 C 183.160 107.334, 182.600 105.518, 178.742 101.012 C 174.762 96.362, 171.139 95.126, 161.250 95.044 C 156.358 95.003, 154.633 93.963, 157.016 92.490 C 158.601 91.511, 157.129 90, 154.590 90 C 147.863 90, 143.942 86.083, 146.412 81.830 C 147.165 80.533, 146.667 79.492, 144.191 77.178 C 142.436 75.539, 141 73.721, 141 73.138 C 141 72.555, 140.103 71.242, 139.007 70.221 C 137.291 68.622, 137.199 68.109, 138.350 66.536 C 139.631 64.784, 139.817 64.805, 142.831 67.033 C 148.199 71.002, 147.755 68.118, 142.180 62.799 C 137.144 57.995, 136.672 57.773, 132.668 58.322 C 127.777 58.992, 125.713 58.061, 126.173 55.394 C 126.625 52.776, 123.035 52.526, 120.608 55.005 M 1.328 70.500 C 1.333 74.350, 1.513 75.802, 1.730 73.728 C 1.946 71.653, 1.943 68.503, 1.722 66.728 C 1.501 64.952, 1.324 66.650, 1.328 70.500 M 126.104 87.561 C 122.263 91.452, 122.458 91.703, 127.466 89.315 C 129.594 88.300, 131 86.908, 131 85.815 C 131 83.261, 129.997 83.619, 126.104 87.561 M 144 90.943 C 144 92.755, 148.473 95, 151.973 94.944 L 155.500 94.888 151.333 93.194 C 149.041 92.262, 146.829 91.162, 146.416 90.750 C 145.371 89.704, 144 89.814, 144 90.943" stroke="none" fill="black" fill-rule="evenodd"/>
</svg>