<svg xmlns="http://www.w3.org/2000/svg" width="192" height="144" viewBox="0 0 192 144" version="1.1">
	<path d="M 0 35.088 L 0 70.176 3.750 69.614 C 5.813 69.305, 11.100 68.812, 15.500 68.517 C 47.293 66.388, 83.403 62.893, 96.464 60.680 C 103.197 59.539, 103.449 59.392, 104.091 56.233 C 104.487 54.281, 104.325 52.701, 103.687 52.307 C 101.180 50.757, 77.257 50.542, 75.437 52.052 C 74.649 52.706, 73.854 52.529, 73.011 51.513 C 71.428 49.605, 73.044 45.247, 76.560 41.944 C 78.707 39.927, 78.790 39.567, 77.357 38.519 C 75.147 36.903, 76.306 33.788, 80.830 29.185 C 91.120 18.715, 100.283 8.474, 101.242 6.369 C 102.107 4.469, 101.964 3.617, 100.504 2.004 C 98.811 0.134, 97.433 0, 79.845 0 C 58.176 -0, 59.732 -0.958, 62.635 10.600 C 63.921 15.717, 64.025 17.649, 63.123 19.629 C 59.345 27.922, 59.831 36.368, 64.266 39.474 C 67.429 41.689, 65.884 42.186, 61.946 40.220 C 57.094 37.798, 55.002 33.058, 55.008 24.500 C 55.012 19.630, 54.175 14.839, 52.257 8.752 L 49.500 0.004 24.750 0.002 L 0 0 0 35.088 M 120.644 2.719 C 121.020 4.215, 123.081 8.152, 125.224 11.469 C 129.019 17.339, 129.064 17.513, 126.923 18.018 C 124.827 18.513, 124.734 18.991, 124.921 28.256 C 125.106 37.466, 124.983 38.108, 122.567 40.524 C 120.280 42.811, 120.039 43.774, 120.223 49.887 C 120.390 55.428, 120.715 56.638, 121.964 56.363 C 136.577 53.155, 169.070 45.462, 174 44.045 C 177.575 43.017, 183.088 41.449, 186.250 40.560 L 192 38.944 192 19.472 L 192 0 155.981 0 L 119.962 0 120.644 2.719 M 112.500 57 C 112.160 57.550, 112.809 58, 113.941 58 C 115.073 58, 116 57.550, 116 57 C 116 56.450, 115.352 56, 114.559 56 C 113.766 56, 112.840 56.450, 112.500 57 M 188.618 87.429 C 182.771 95.106, 157.684 118.403, 150 123.292 C 146.631 125.435, 124.635 130.793, 113.500 132.183 C 105.340 133.201, 103.712 133.105, 96.060 131.153 C 91.135 129.897, 84.470 128.994, 80.060 128.985 C 67.161 128.960, 50.219 124.069, 32.642 115.295 C 22.856 110.410, 21.178 109.885, 15.642 109.980 C 12.264 110.038, 7.475 110.404, 5 110.793 L 0.500 111.500 0.225 127.755 L -0.050 144.010 96.225 143.755 L 192.500 143.500 192.752 133 C 192.891 127.225, 192.666 113.758, 192.252 103.073 L 191.500 83.645 188.618 87.429 M 0.407 128 C 0.407 137.075, 0.559 140.787, 0.744 136.250 C 0.929 131.713, 0.929 124.287, 0.744 119.750 C 0.559 115.213, 0.407 118.925, 0.407 128" stroke="none" fill="black" fill-rule="evenodd"/>
</svg>