<svg xmlns="http://www.w3.org/2000/svg" width="192" height="144" viewBox="0 0 192 144" version="1.1">
	<path d="M 36 0.453 C 36 0.702, 36.562 2.165, 37.250 3.703 C 38.751 7.062, 41.588 9.744, 45.051 11.076 C 47.737 12.109, 51 16.688, 51 19.426 C 51 21.202, 52.611 22.007, 61.345 24.599 C 64.560 25.553, 68.160 27.159, 69.345 28.167 L 71.500 30 69.219 31.935 C 67.965 32.999, 64.446 34.428, 61.398 35.110 C 56.474 36.212, 55.931 36.581, 56.510 38.425 C 58.340 44.252, 58.296 44.890, 56.104 44.317 C 54.194 43.817, 54 44.184, 54 48.302 C 54 53.399, 53.196 56.239, 51.967 55.480 C 51.514 55.200, 50.856 55.877, 50.505 56.985 C 50.153 58.093, 49.251 59, 48.500 59 C 47.749 59, 46.862 59.859, 46.529 60.910 C 46.195 61.960, 45.200 63.419, 44.317 64.152 C 42.899 65.329, 42.799 65.209, 43.463 63.117 C 43.980 61.488, 43.869 60.963, 43.107 61.434 C 40.425 63.091, 43.006 73.021, 46.463 74.347 C 49.127 75.370, 48.219 78.896, 44.750 81.002 C 42.962 82.088, 41.257 83.994, 40.960 85.238 C 40.590 86.791, 39.558 87.600, 37.666 87.821 C 35.475 88.076, 35.033 88.530, 35.511 90.035 C 35.859 91.132, 35.308 93.101, 34.199 94.715 C 33.147 96.247, 31.537 98.737, 30.620 100.250 C 28.798 103.257, 25.325 103.814, 19.257 102.074 C 17.480 101.564, 15.836 101.456, 15.604 101.832 C 15.371 102.209, 15.532 104.441, 15.962 106.792 C 16.535 109.927, 17.730 111.924, 20.445 114.283 C 31.938 124.272, 50 141.914, 50 143.153 C 50 143.619, 71.115 144, 96.922 144 L 143.845 144 148.395 138.799 C 153.852 132.560, 155.505 128.664, 153.427 126.939 C 150.157 124.226, 152.531 119.592, 160.620 112.901 C 164.129 109.998, 167 107.213, 167 106.713 C 167 106.212, 165.762 104.540, 164.250 102.996 C 162.737 101.453, 159.925 98.080, 158 95.500 C 156.075 92.920, 153.262 89.547, 151.750 88.004 C 148.286 84.469, 148.311 83.740, 152.054 79.082 C 154.531 76.001, 154.974 74.734, 154.399 72.391 C 153.712 69.593, 149.770 65, 148.055 65 C 147.593 65, 146.953 64.321, 146.635 63.491 C 146.316 62.661, 145.530 62.098, 144.887 62.241 C 144.245 62.383, 142.965 60.376, 142.044 57.780 C 140.444 53.269, 140.289 53.136, 138.554 54.780 C 136.826 56.417, 136.763 56.393, 137.266 54.287 C 137.916 51.561, 136.387 50.216, 132.661 50.235 C 130.719 50.245, 128.880 49.219, 126.845 46.991 C 124.626 44.562, 123.579 44.021, 122.734 44.866 C 122.110 45.490, 120.738 46, 119.683 46 C 118.196 46, 117.892 45.496, 118.327 43.750 C 118.636 42.513, 119.251 40.074, 119.694 38.332 C 120.137 36.590, 121.737 34.194, 123.250 33.009 C 127.620 29.585, 126.441 28.582, 121.374 31.415 C 112.878 36.163, 112.928 34.780, 121.755 20.874 C 128.751 9.853, 131.057 6.789, 134.729 3.641 C 136.870 1.806, 136.920 1.820, 138.731 4.797 L 140.564 7.812 142.812 3.906 L 145.060 0 90.530 0 C 60.538 0, 36 0.204, 36 0.453 M 134.445 8.209 C 131.854 11.206, 128 16.761, 128 17.500 C 128 17.820, 127.019 19.407, 125.821 21.028 C 124.623 22.649, 123.891 24.225, 124.196 24.530 C 125.199 25.533, 133 21.815, 133 20.334 C 133 19.537, 134.113 16.892, 135.473 14.456 C 137.170 11.416, 137.707 9.382, 137.186 7.972 C 136.432 5.935, 136.409 5.937, 134.445 8.209 M 156.600 119.600 C 156.244 120.527, 156.178 121.511, 156.453 121.786 C 156.728 122.061, 157.244 121.527, 157.600 120.600 C 157.956 119.673, 158.022 118.689, 157.747 118.414 C 157.472 118.139, 156.956 118.673, 156.600 119.600" stroke="none" fill="black" fill-rule="evenodd"/>
</svg>