<svg xmlns="http://www.w3.org/2000/svg" width="192" height="144" viewBox="0 0 192 144" version="1.1">
	<path d="M 167.500 1.403 C 163 3.389, 160.821 6.412, 160.252 11.456 C 159.762 15.801, 159.566 16.038, 155.620 17.053 C 142.955 20.311, 137.957 22.820, 131.982 28.923 C 129.294 31.667, 126.713 35.591, 125.660 38.531 C 124.682 41.264, 123.462 44.274, 122.951 45.220 C 121.730 47.478, 123.746 56.605, 126.280 60.295 C 127.340 61.838, 129.500 63.350, 131.100 63.670 C 134.487 64.347, 134.692 65.559, 132 69 C 129.704 71.936, 129.502 73.595, 131.306 74.700 C 132.024 75.140, 133.573 77.376, 134.748 79.669 C 136.514 83.117, 136.714 84.453, 135.901 87.396 C 134.709 91.714, 133.983 110, 135.004 110 C 135.803 110, 140.397 99.960, 140.152 98.750 C 139.887 97.441, 141.706 97.941, 143.035 99.542 C 144.005 100.711, 144.034 101.366, 143.158 102.242 C 142.521 102.879, 141.995 104.548, 141.988 105.950 C 141.982 107.353, 141.349 110.856, 140.583 113.735 C 139.246 118.756, 139.265 118.928, 141.059 117.968 C 142.088 117.418, 145.051 113.156, 147.645 108.498 C 150.239 103.840, 152.497 100.164, 152.664 100.330 C 152.830 100.497, 152.513 102.178, 151.960 104.066 C 151.406 105.955, 150.963 112.450, 150.974 118.500 C 150.985 124.550, 150.710 132.762, 150.363 136.750 L 149.731 144 170.866 144 L 192 144 191.919 80.250 L 191.837 16.500 186.669 12.194 C 180.922 7.405, 171.213 -0.022, 170.779 0.039 C 170.626 0.061, 169.150 0.674, 167.500 1.403" stroke="none" fill="black" fill-rule="evenodd"/>
</svg>