<svg xmlns="http://www.w3.org/2000/svg" width="192" height="144" viewBox="0 0 192 144" version="1.1">
	<path d="M 0 72 L 0 144 39.872 144 L 79.744 144 80.580 139.750 C 81.580 134.671, 81.889 95.049, 80.934 94.459 C 80.567 94.232, 79.449 94.951, 78.449 96.057 C 76.779 97.902, 75.806 98.016, 66.565 97.459 C 61.029 97.124, 55.544 96.389, 54.375 95.823 C 52.978 95.148, 51.607 95.130, 50.375 95.770 C 47.845 97.084, 31.803 96.090, 32.284 94.649 C 32.483 94.050, 34.415 93.096, 36.575 92.530 C 38.736 91.963, 41.073 91.131, 41.768 90.681 C 43.451 89.591, 42.367 88, 39.941 88 C 36.182 88, 38.052 86.117, 42.250 85.676 C 51.146 84.740, 58.717 85.064, 64.687 86.635 C 68.089 87.530, 71.478 88.030, 72.218 87.747 C 73.584 87.222, 77 77.792, 77 74.544 C 77 73.565, 78.369 71.205, 80.041 69.300 C 81.999 67.070, 82.878 65.192, 82.509 64.030 C 82.118 62.797, 83.058 61.165, 85.468 58.891 C 89.385 55.197, 90.079 52.905, 87.040 53.700 C 84.541 54.353, 78.759 48.336, 79.535 45.889 C 79.914 44.697, 79.198 43.916, 77.035 43.162 C 72.486 41.576, 71.410 38.291, 73.440 32.181 C 74.421 29.226, 76.115 26.500, 77.554 25.557 C 79.222 24.463, 80 23.028, 80 21.040 C 80 18.511, 80.412 18.085, 83.125 17.813 C 85.694 17.556, 86.460 16.876, 87.424 14 C 88.093 12.005, 89.168 10.625, 89.924 10.792 C 90.653 10.952, 92.040 10.369, 93.005 9.496 C 94.634 8.022, 94.981 8.210, 97.857 12.120 C 99.561 14.437, 101.483 17.945, 102.129 19.916 C 102.775 21.887, 104.292 24.850, 105.501 26.500 C 108.969 31.235, 110.757 36.907, 112.474 48.619 C 113.351 54.604, 115.605 64, 117.482 69.500 C 121.345 80.816, 122.828 89.370, 121.112 90.431 C 120.500 90.809, 120 93.163, 120 95.663 C 120 99.569, 117.498 109.791, 113.920 120.500 C 113.369 122.150, 112.644 128.118, 112.308 133.761 L 111.697 144.023 152.099 143.761 L 192.500 143.500 192.757 71.750 L 193.013 0 96.507 0 L 0 0 0 72 M 0.474 72.500 C 0.474 112.100, 0.598 128.154, 0.750 108.176 C 0.901 88.198, 0.901 55.798, 0.750 36.176 C 0.598 16.554, 0.474 32.900, 0.474 72.500" stroke="none" fill="black" fill-rule="evenodd"/>
</svg>