<svg xmlns="http://www.w3.org/2000/svg" width="192" height="144" viewBox="0 0 192 144" version="1.1">
	<path d="M 170.750 0.716 C 169.237 0.945, 167.517 2.034, 166.928 3.134 C 166.218 4.461, 164.954 5.077, 163.178 4.962 C 158.335 4.648, 157.542 4.961, 153.250 8.884 C 149.838 12.003, 149 13.442, 149 16.184 C 149 18.063, 149.471 20.071, 150.046 20.646 C 150.621 21.221, 151.261 24.905, 151.468 28.831 L 151.844 35.970 148.985 34.492 C 144.797 32.326, 140.112 34.815, 140.032 39.250 C 140.014 40.212, 139.887 41.019, 139.750 41.043 C 112.536 45.672, 112.072 45.715, 110.038 43.821 C 107.511 41.467, 102.328 41.503, 98.393 43.902 C 94.681 46.166, 93.198 50, 96.035 50 C 97.051 50, 98.160 50.450, 98.500 51 C 98.840 51.550, 100.202 52, 101.528 52 C 103.080 52, 103.762 52.457, 103.444 53.285 C 103.173 53.992, 103.974 55.654, 105.225 56.978 C 106.476 58.302, 109.549 62.337, 112.054 65.943 C 116.287 72.038, 116.899 72.521, 120.730 72.804 C 123.655 73.020, 126.690 72.260, 131.176 70.188 C 137.975 67.049, 145.613 65.565, 146.616 67.187 C 146.955 67.736, 147.157 73.228, 147.066 79.394 C 146.917 89.480, 147.115 90.876, 149.042 93.326 L 151.184 96.049 148.713 100.775 C 147.354 103.374, 144.630 110.225, 142.659 116 C 137.269 131.799, 135.333 136.770, 133.099 140.556 L 131.067 144 161.534 144 L 192 144 192 139.967 C 192 134.396, 186.265 110.584, 183.458 104.500 C 180.331 97.723, 180.183 96.345, 182.406 94.705 C 184.119 93.441, 184.196 92.835, 183.164 88.736 C 182.532 86.227, 182.218 82.898, 182.466 81.337 C 182.714 79.777, 183.185 76.787, 183.514 74.694 C 183.918 72.121, 185.391 69.569, 188.056 66.823 C 192.156 62.598, 192.555 60.995, 191.341 53.647 C 190.834 50.576, 190.125 49.591, 187.852 48.799 C 186.284 48.252, 185 47.572, 185 47.288 C 185 46.157, 190.364 37, 191.026 37 C 192.191 37, 191.214 29.757, 189.493 25.638 C 188.105 22.316, 188.083 21.646, 189.325 20.650 C 190.114 20.018, 191.062 18.206, 191.431 16.624 C 191.981 14.266, 191.818 13.856, 190.528 14.351 C 189.192 14.863, 189.131 14.624, 190.120 12.775 C 191.005 11.122, 191.006 10.502, 190.126 10.209 C 189.487 9.996, 188.410 9.289, 187.732 8.638 C 187.054 7.986, 184.161 6.357, 181.303 5.016 C 177.297 3.137, 176.351 2.282, 177.175 1.289 C 178.299 -0.065, 176.794 -0.199, 170.750 0.716 M 42.079 17.372 C 42.016 18.872, 41.718 19.011, 40.584 18.070 C 39.453 17.131, 39.037 17.308, 38.517 18.947 C 38.158 20.076, 37.390 21, 36.810 21 C 36.106 21, 36.130 21.451, 36.883 22.358 C 37.768 23.426, 36.947 24.711, 33.048 28.358 C 30.319 30.911, 27.504 33.007, 26.793 33.015 C 26.082 33.024, 24.846 33.444, 24.048 33.949 C 22.847 34.709, 23.062 35.335, 25.289 37.562 C 27.607 39.880, 27.895 40.802, 27.357 44.170 C 26.849 47.349, 27.138 48.518, 28.898 50.391 C 30.756 52.369, 30.909 53.109, 29.970 55.578 C 29.202 57.599, 29.192 58.564, 29.938 58.813 C 32.120 59.540, 30.867 60.857, 26.615 62.306 C 22.777 63.614, 22.047 63.619, 20.774 62.346 C 19.568 61.139, 18.529 61.090, 14.690 62.056 C 9.098 63.464, 7.138 65.390, 8.718 67.921 C 10.462 70.713, 8.601 72.482, 4.046 72.362 L 0 72.256 0 80.628 L 0 89 3.300 89 C 7.152 89, 9 87.496, 9 84.359 C 9 83.126, 9.399 81.871, 9.887 81.570 C 11.434 80.614, 12.852 83.390, 13.181 88.020 C 13.486 92.303, 13.648 92.514, 16.873 92.823 C 19.866 93.109, 20.842 92.500, 25.525 87.428 C 29.156 83.495, 31.302 81.902, 32.402 82.324 C 33.281 82.661, 34 83.540, 34 84.276 C 34 85.012, 35.553 88.701, 37.450 92.473 C 40.880 99.289, 40.889 99.346, 39.045 101.937 C 36.831 105.046, 20.388 138.526, 19.491 141.750 L 18.865 144 42.683 144 L 66.500 144.001 66.235 126.750 C 66.089 117.263, 65.448 107.700, 64.811 105.500 C 62.988 99.203, 62.972 98.572, 64.603 97.339 C 65.981 96.298, 65.964 95.677, 64.440 91.339 C 63.505 88.677, 62.687 83.725, 62.620 80.334 C 62.523 75.326, 62.938 73.576, 64.831 71.015 C 66.113 69.281, 66.957 67.331, 66.708 66.681 C 66.458 66.032, 63.610 64.628, 60.377 63.561 C 57.145 62.495, 54.325 61.495, 54.111 61.339 C 53.896 61.182, 54.912 59.494, 56.366 57.586 C 58.634 54.613, 58.955 53.360, 58.611 48.809 C 58.391 45.889, 57.888 42.257, 57.494 40.737 C 57.027 38.937, 57.251 37.399, 58.138 36.324 C 59.403 34.792, 58.941 34.023, 56.631 33.812 C 55.565 33.714, 45 23.214, 45 22.253 C 45 21.656, 45.563 20.940, 46.250 20.662 C 47.250 20.259, 47.250 20.142, 46.250 20.079 C 45.563 20.036, 45 19.298, 45 18.441 C 45 17.584, 44.588 17.136, 44.085 17.447 C 43.582 17.758, 42.943 17.447, 42.664 16.756 C 42.376 16.042, 42.124 16.308, 42.079 17.372 M 125.243 45.295 C 119.052 46.409, 114.192 47.525, 114.444 47.777 C 115.135 48.468, 137.358 44.837, 138.450 43.855 C 139.671 42.756, 138.893 42.841, 125.243 45.295 M 124.250 47.755 C 119.713 48.600, 116 49.729, 116 50.262 C 116 51.532, 122.956 61, 123.889 61 C 125.247 61, 134 55.044, 134 54.120 C 134 53.612, 135.400 52.707, 137.112 52.111 C 139.351 51.330, 140.052 50.579, 139.612 49.431 C 139.275 48.554, 139 47.423, 139 46.918 C 139 45.653, 134.013 45.936, 124.250 47.755" stroke="none" fill="black" fill-rule="evenodd"/>
</svg>