<svg xmlns="http://www.w3.org/2000/svg" width="192" height="144" viewBox="0 0 192 144" version="1.1">
	<path d="M 62.667 0.667 C 62.300 1.033, 62 3.420, 62 5.970 C 62 12.676, 66.072 20.333, 71.294 23.447 C 74.632 25.438, 75.084 26.031, 73.676 26.571 C 72.720 26.938, 70.563 26.963, 68.883 26.627 C 66.219 26.094, 65.245 26.597, 61.302 30.540 L 56.778 35.065 59.519 37.606 C 62.001 39.906, 62.206 40.613, 61.678 45.073 C 61.357 47.783, 61.469 50, 61.927 50 C 63.165 50, 63.854 62.108, 62.780 65 C 62.162 66.666, 62.260 68.740, 63.075 71.218 C 63.961 73.907, 63.998 75.297, 63.211 76.245 C 62.511 77.089, 62.227 82.454, 62.414 91.310 C 62.574 98.875, 62.304 105.312, 61.813 105.615 C 61.323 105.918, 60.943 109.166, 60.969 112.833 C 61.053 124.743, 60.367 133.453, 59.171 135.684 C 58.527 136.886, 58 139.248, 58 140.934 C 58 143.648, 58.332 144, 60.889 144 C 63.396 144, 63.864 143.540, 64.431 140.514 C 64.791 138.597, 64.657 136.228, 64.134 135.250 C 63.482 134.032, 63.651 132.374, 64.672 129.986 C 65.719 127.534, 65.977 124.819, 65.540 120.834 C 65.146 117.236, 65.310 114.927, 65.989 114.507 C 66.597 114.131, 67.031 110.754, 66.996 106.673 C 66.962 102.728, 66.958 97.588, 66.987 95.250 C 67.016 92.912, 67.056 89.537, 67.074 87.750 C 67.093 85.963, 67.160 82.250, 67.223 79.500 L 67.339 74.500 70.773 77.666 C 72.662 79.407, 77.746 83.232, 82.071 86.166 C 86.396 89.100, 89.949 91.889, 89.967 92.364 C 89.985 92.839, 88.001 96.439, 85.559 100.364 C 74.694 117.821, 71.749 128.829, 75.870 136.579 C 79.617 143.626, 82.142 145.713, 83.338 142.750 C 83.741 141.750, 83.858 141.750, 83.921 142.750 C 83.982 143.713, 89.460 144, 107.757 144 L 131.515 144 131.221 135.750 C 131.059 131.213, 130.528 123.900, 130.041 119.500 C 129.284 112.666, 129.858 103.706, 131.123 102.588 C 131.330 102.404, 132.850 101.565, 134.500 100.723 C 138.330 98.768, 144.735 92.378, 146.749 88.504 C 148.281 85.556, 148.571 79.167, 147.419 73.731 C 146.884 71.203, 147.239 70.782, 151.497 68.898 C 155.604 67.082, 156.360 67.009, 157.830 68.289 C 158.749 69.089, 160.625 70.312, 162 71.007 L 164.500 72.271 162 69.476 C 160.392 67.677, 160.068 66.882, 161.091 67.248 C 162.324 67.688, 162.711 67.081, 162.806 64.552 C 162.902 61.993, 162.398 61.047, 160.472 60.169 C 157.478 58.805, 144.227 58.808, 141.675 60.174 C 138.879 61.670, 138.522 60.423, 140.886 57.418 C 142.049 55.940, 143.003 54.228, 143.006 53.615 C 143.010 53.002, 144.368 51.729, 146.024 50.786 C 147.990 49.668, 149.251 47.996, 149.655 45.973 C 150.140 43.551, 151.122 42.535, 154.147 41.325 C 158.105 39.741, 159.495 37.297, 158.833 33.089 C 158.517 31.079, 158.255 31.148, 153.574 34.487 C 150.865 36.419, 148.052 38, 147.324 38 C 146.596 38, 146 38.406, 146 38.901 C 146 40.223, 139.221 44, 136.849 44 C 135.699 44, 134.599 44.816, 134.322 45.876 C 134.052 46.908, 132.808 48.300, 131.558 48.969 C 129.654 49.988, 128.618 49.846, 125.182 48.093 C 122.159 46.551, 119.211 46, 113.981 46 C 109.753 46, 107.119 46.384, 107.469 46.950 C 107.792 47.472, 107.184 48.367, 106.117 48.937 C 103.396 50.394, 99.854 56.455, 100.595 58.387 C 101.057 59.590, 100.614 60, 98.852 60 C 97.084 60, 96.206 60.818, 95.364 63.250 C 94.746 65.037, 93.651 67.925, 92.932 69.667 C 91.728 72.582, 91.844 73.165, 94.387 77.009 C 95.907 79.305, 96.946 81.387, 96.697 81.636 C 96.448 81.885, 92.883 79.676, 88.774 76.728 C 84.665 73.780, 79.885 70.781, 78.151 70.063 C 75.100 68.799, 74.993 68.547, 74.794 62.129 C 74.445 50.921, 74.136 46.602, 73.499 44 C 73.033 42.098, 73.414 41.177, 75.090 40.150 C 77.101 38.918, 77.506 39.072, 79.734 41.920 C 82.835 45.882, 86.924 48, 91.472 48 C 94.311 48, 95.276 48.513, 96.182 50.500 C 96.808 51.875, 97.869 53, 98.538 53 C 100.590 53, 102.208 50.230, 101.485 47.954 C 100.996 46.412, 101.515 45.069, 103.339 43.156 C 106.346 40.004, 108 35.998, 108 31.869 C 108 28.192, 106.644 25.436, 102.872 21.444 L 99.984 18.388 101.568 11.944 C 102.758 7.105, 102.891 4.815, 102.101 2.750 L 101.050 0 82.191 0 C 71.819 0, 63.033 0.300, 62.667 0.667 M 60.500 35 C 60.160 35.550, 60.359 36, 60.941 36 C 61.523 36, 62 35.550, 62 35 C 62 34.450, 61.802 34, 61.559 34 C 61.316 34, 60.840 34.450, 60.500 35 M 63.446 80.087 C 62.573 81.499, 64.501 83.427, 65.913 82.554 C 66.511 82.184, 67 81.234, 67 80.441 C 67 78.757, 64.426 78.501, 63.446 80.087 M 63.180 95.172 C 63.652 98.373, 66 98.716, 66 95.583 C 66 93.903, 65.451 93, 64.430 93 C 63.388 93, 62.968 93.729, 63.180 95.172 M 63 110.083 C 63 112.520, 65.337 112.176, 65.823 109.667 C 66.015 108.680, 65.505 108, 64.573 108 C 63.646 108, 63 108.855, 63 110.083 M 61.656 124.206 C 60.964 126.853, 61.399 127.445, 63.457 126.655 C 65.374 125.919, 65.508 122, 63.617 122 C 62.856 122, 61.974 122.993, 61.656 124.206 M 60 139.583 C 60 142.716, 62.348 142.373, 62.820 139.172 C 63.032 137.729, 62.612 137, 61.570 137 C 60.549 137, 60 137.903, 60 139.583" stroke="none" fill="black" fill-rule="evenodd"/>
</svg>