<svg xmlns="http://www.w3.org/2000/svg" width="192" height="144" viewBox="0 0 192 144" version="1.1">
	<path d="M 0 72 L 0 144 42.645 144 L 85.291 144 84.666 131.750 C 84.322 125.013, 83.357 117.039, 82.521 114.032 C 81.684 111.025, 81 106.916, 81 104.901 C 81 101.491, 84.160 91.730, 87.669 84.300 C 88.500 82.540, 88.906 80.657, 88.571 80.116 C 88.237 79.574, 89.996 77.431, 92.481 75.354 C 96.380 72.095, 97 71.056, 97 67.788 C 97 65.655, 96.542 64.109, 95.952 64.250 C 95.376 64.388, 93.362 61.912, 91.478 58.750 C 89.594 55.587, 88.491 53, 89.026 53 C 90.864 53, 90 50.474, 87.825 49.487 C 84.969 48.191, 81.629 41.613, 82.356 38.716 C 83.581 33.838, 89.081 27.139, 93.697 24.905 C 99.254 22.215, 111.034 21.196, 116.340 22.947 C 120.699 24.386, 127.525 31.826, 129.121 36.877 C 129.750 38.870, 130.633 51.075, 131.082 64 C 131.532 76.925, 132.349 98.300, 132.897 111.500 C 133.445 124.700, 133.918 137.419, 133.947 139.765 L 134 144.030 163.250 143.765 L 192.500 143.500 192.757 71.750 L 193.013 0 96.507 0 L 0 0 0 72 M 0.474 72.500 C 0.474 112.100, 0.598 128.154, 0.750 108.176 C 0.901 88.198, 0.901 55.798, 0.750 36.176 C 0.598 16.554, 0.474 32.900, 0.474 72.500" stroke="none" fill="black" fill-rule="evenodd"/>
</svg>