<svg xmlns="http://www.w3.org/2000/svg" width="192" height="144" viewBox="0 0 192 144" version="1.1">
	<path d="M 0 57.055 L 0 114.110 4.750 113.805 L 9.500 113.500 10.061 106 C 10.752 96.751, 11.357 95.379, 15.064 94.637 C 17.719 94.106, 18 93.671, 18 90.092 C 18 86.982, 18.438 85.996, 20.049 85.485 C 21.405 85.054, 21.997 84.133, 21.799 82.760 C 21.634 81.619, 22.131 80.471, 22.902 80.209 C 23.919 79.863, 24.147 80.329, 23.735 81.905 C 23.371 83.298, 23.826 84.692, 25.002 85.789 C 26.012 86.730, 26.986 89.075, 27.169 91 C 27.431 93.771, 27.980 94.568, 29.804 94.827 C 32.992 95.279, 34.041 98.752, 33.320 106.473 L 32.711 113 35.355 113 C 37.776 113, 38 112.659, 38 108.986 C 38 105.405, 41.395 98.049, 43.065 98.012 C 44.067 97.990, 47 104.995, 47 107.411 C 47 108.700, 47.563 110.199, 48.250 110.742 C 48.938 111.285, 55.081 111.996, 61.902 112.323 C 73.661 112.886, 74.451 113.058, 77.152 115.645 L 80 118.374 80 110.381 C 80 103.524, 80.340 101.928, 82.390 99.149 L 84.781 95.909 86.992 99.488 C 89.121 102.931, 89.191 103.841, 88.852 123.533 L 88.500 144 140.090 144 L 191.681 144 192.338 120.750 C 192.700 107.963, 192.996 75.563, 192.998 48.750 L 193 0 96.500 0 L 0 0 0 57.055 M 0.468 57.500 C 0.468 88.850, 0.595 101.530, 0.750 85.679 C 0.904 69.827, 0.904 44.177, 0.749 28.679 C 0.594 13.180, 0.468 26.150, 0.468 57.500 M 116.887 40.468 C 115.761 42.375, 113.301 44.887, 111.420 46.049 C 107.164 48.680, 106.946 50.461, 110.979 49.654 C 113.681 49.114, 114.038 49.358, 114.817 52.279 C 115.322 54.175, 115.287 56.376, 114.733 57.628 C 114.051 59.167, 114.290 60.809, 115.598 63.565 C 116.592 65.660, 117.314 68.476, 117.203 69.822 C 116.960 72.756, 112.671 77, 109.948 77 C 107.976 77, 107.415 78.669, 108.772 80.500 C 109.179 81.050, 111.304 82.463, 113.494 83.640 C 115.705 84.828, 117.703 86.744, 117.988 87.949 C 118.739 91.129, 120.342 90.662, 121.617 86.891 C 122.231 85.075, 123.202 83.433, 123.774 83.242 C 125.088 82.804, 128 86.884, 128 89.163 C 128 91.990, 130.186 92.488, 132.119 90.101 C 133.565 88.315, 134.295 88.088, 135.870 88.931 C 136.946 89.506, 138.054 90.545, 138.334 91.239 C 138.613 91.932, 138.878 91.487, 138.921 90.250 C 139.009 87.748, 139.990 87.390, 141.800 89.200 C 142.733 90.133, 143 90.120, 143 89.141 C 143 88.449, 143.435 88.151, 143.967 88.480 C 144.499 88.809, 145.508 88.160, 146.208 87.039 C 146.908 85.917, 148.074 85, 148.800 85 C 149.609 85, 149.813 84.518, 149.327 83.750 C 148.148 81.885, 148.084 77, 149.239 77 C 149.860 77, 149.818 76.486, 149.131 75.658 C 148.519 74.920, 148.252 74.081, 148.540 73.793 C 148.827 73.506, 147.811 72.452, 146.281 71.452 C 144.752 70.452, 142.905 69.041, 142.179 68.317 C 141.452 67.592, 138.853 67, 136.403 67 L 131.949 67 133.474 64.050 C 134.313 62.427, 135 60.800, 135 60.433 C 135 59.715, 131.588 60.285, 128.750 61.478 C 127.421 62.037, 127 61.732, 127 60.214 C 127 58.424, 129.405 56.466, 131.173 56.816 C 131.543 56.889, 131.467 55.629, 131.005 54.016 C 130.305 51.577, 130.486 50.980, 132.082 50.474 C 135.383 49.426, 134.247 47.218, 130.042 46.507 C 126.075 45.837, 125.873 45.588, 124.574 39.750 C 123.645 35.578, 119.546 35.961, 116.887 40.468" stroke="none" fill="black" fill-rule="evenodd"/>
</svg>