<svg xmlns="http://www.w3.org/2000/svg" width="192" height="144" viewBox="0 0 192 144" version="1.1">
	<path d="M 83.750 1.989 C 85.537 3.079, 87.002 4.090, 87.004 4.235 C 87.006 4.381, 88.107 10.114, 89.451 16.975 C 91.170 25.748, 92.430 29.856, 93.697 30.820 C 97.077 33.387, 118.130 30.711, 119.339 27.560 C 119.634 26.790, 119.966 22.064, 120.076 17.059 C 120.186 12.053, 120.604 6.168, 121.004 3.979 L 121.731 0 101.116 0.004 L 80.500 0.007 83.750 1.989 M 184.250 35.201 C 177.119 43.605, 175.786 46, 178.240 46 C 178.922 46, 177.538 47.884, 175.165 50.188 L 170.851 54.375 164.944 48.188 C 158.432 41.365, 156.020 40.623, 151.615 44.088 C 148.085 46.865, 146.660 49.860, 144.047 60 C 142.843 64.675, 141.159 69.271, 140.306 70.214 C 138.553 72.152, 132.321 74.577, 126.792 75.474 C 122.139 76.228, 117.405 81.641, 116.449 87.301 C 115.470 93.095, 113.336 97.685, 109.826 101.541 C 106.021 105.723, 101.146 107.429, 95.294 106.627 C 89.488 105.831, 87 107.188, 87 111.150 C 87 113.621, 85.542 115.740, 79.628 121.865 C 71.957 129.810, 68.117 135.220, 66.217 140.757 L 65.099 144.015 128.799 143.757 L 192.500 143.500 192.821 126.500 C 192.997 117.150, 192.833 97.217, 192.456 82.204 L 191.770 54.909 189.635 56.446 C 188.461 57.292, 186.617 58.504, 185.537 59.141 C 183.605 60.280, 183.603 60.253, 185.420 57.399 C 186.434 55.805, 188.345 53.047, 189.666 51.272 C 191.903 48.266, 192.049 47.310, 191.784 37.351 L 191.500 26.657 184.250 35.201 M 95.614 47.529 C 93.798 49.345, 94.465 51.643, 97.239 53.128 C 98.839 53.984, 99.643 53.801, 101.222 52.222 C 102.849 50.596, 102.999 49.866, 102.065 48.122 C 100.734 45.634, 97.780 45.363, 95.614 47.529 M 177.250 53.662 C 174.912 54.490, 173 55.482, 173 55.868 C 173 56.870, 178.527 60, 180.297 60 C 181.961 60, 183.326 57.337, 182.417 55.866 C 182.093 55.341, 182.372 54.257, 183.036 53.456 C 184.607 51.564, 183.019 51.620, 177.250 53.662 M 1 113.845 L 1 144 32.627 144 L 64.255 144 59.971 139.250 C 45.778 123.510, 27.666 106.069, 10.975 92.069 C 7.414 89.083, 3.712 85.975, 2.750 85.164 C 1.089 83.765, 1 85.231, 1 113.845" stroke="none" fill="black" fill-rule="evenodd"/>
</svg>