<svg xmlns="http://www.w3.org/2000/svg" width="192" height="144" viewBox="0 0 192 144" version="1.1">
	<path d="M 0 72 L 0 144 39.850 144 L 79.701 144 80.393 130.886 C 80.774 123.673, 81.784 113.885, 82.638 109.136 C 84.362 99.539, 83.849 75.455, 81.840 71.701 C 79.472 67.277, 83.104 50.908, 86.986 48.509 C 88.731 47.430, 88.107 46.106, 85.127 44.566 C 83.547 43.749, 82.014 42.160, 81.720 41.036 C 81.379 39.732, 80.645 39.199, 79.695 39.564 C 78.853 39.887, 77.276 39.140, 76.074 37.849 C 74.291 35.935, 74.049 34.823, 74.594 31.031 C 74.952 28.539, 75.842 25.815, 76.572 24.977 C 77.454 23.965, 77.586 22.959, 76.965 21.977 C 75.466 19.607, 75.837 18.395, 78.421 17.218 C 80.197 16.409, 80.698 15.562, 80.301 14.042 C 79.881 12.436, 80.123 12.110, 81.379 12.592 C 82.574 13.050, 83 12.630, 83 10.992 C 83 8.822, 83.064 8.810, 85.750 10.472 C 87.263 11.409, 89.625 13.412, 91 14.925 C 92.375 16.437, 94.857 18.458, 96.515 19.414 C 100.726 21.843, 103.653 26.730, 106.623 36.292 C 108.026 40.806, 110.325 46.975, 111.733 50 C 117.295 61.953, 118 64.937, 118 76.532 C 118 85.576, 117.681 87.986, 116.251 89.749 L 114.502 91.904 112.793 88.702 C 111.625 86.513, 111.071 86.072, 111.042 87.309 C 111.019 88.304, 110.563 88.848, 110.029 88.518 C 108.592 87.630, 107.667 92.509, 108.853 94.725 C 109.415 95.776, 110.197 107.297, 110.589 120.329 L 111.304 144.022 151.902 143.761 L 192.500 143.500 192.757 71.750 L 193.013 0 96.507 0 L 0 0 0 72 M 0.474 72.500 C 0.474 112.100, 0.598 128.154, 0.750 108.176 C 0.901 88.198, 0.901 55.798, 0.750 36.176 C 0.598 16.554, 0.474 32.900, 0.474 72.500 M 84.100 79.250 C 84.155 79.938, 84.560 81.625, 85 83 C 85.715 85.231, 85.811 85.097, 85.900 81.750 C 85.955 79.688, 85.550 78, 85 78 C 84.450 78, 84.045 78.563, 84.100 79.250" stroke="none" fill="black" fill-rule="evenodd"/>
</svg>