<svg xmlns="http://www.w3.org/2000/svg" width="192" height="144" viewBox="0 0 192 144" version="1.1">
	<path d="M 39.177 10.250 C 37.440 15.888, 33.588 31.750, 30.617 45.500 C 23 80.756, 21.456 89.180, 18.521 111.500 C 18.030 115.234, 17.811 123.847, 17.918 135.250 L 18 144 79.750 143.990 L 141.500 143.979 148.483 134.444 C 159.229 119.773, 159.187 119.949, 157.848 94.775 C 156.979 78.457, 156.997 71.757, 157.927 65.687 C 159.095 58.052, 158.772 55.133, 157.064 57.897 C 156.410 58.954, 155.772 58.772, 154.032 57.032 L 151.828 54.828 154.920 45.274 C 158.388 34.562, 158.178 33.604, 152.150 32.640 C 147.520 31.900, 145.944 30.247, 142.575 22.597 C 138.744 13.900, 138.327 9.806, 140.837 5.552 C 142.864 2.116, 142.869 2, 141.024 1.013 C 139.821 0.369, 121.501 -0, 90.733 -0 L 42.335 0 39.177 10.250" stroke="none" fill="black" fill-rule="evenodd"/>
</svg>