<svg xmlns="http://www.w3.org/2000/svg" width="192" height="144" viewBox="0 0 192 144" version="1.1">
	<path d="M 108 15.131 C 106.075 15.702, 103.790 16.807, 102.921 17.585 C 102.053 18.363, 100.928 19.002, 100.421 19.004 C 98.807 19.010, 96 27.354, 96 32.147 C 96 36.468, 96.235 36.884, 99.575 38.469 C 101.877 39.561, 102.959 40.665, 102.612 41.569 C 101.993 43.182, 107.795 48.210, 111.243 49.049 C 113.360 49.564, 113.173 49.936, 108.235 55.040 C 105.340 58.032, 103.199 61.076, 103.478 61.804 C 103.757 62.531, 103.261 64.528, 102.376 66.240 C 101.199 68.515, 100.932 70.761, 101.381 74.585 L 101.996 79.817 98.248 78.026 C 96.187 77.041, 93.069 75.928, 91.319 75.553 C 89.570 75.178, 87.719 74.338, 87.207 73.686 C 85.381 71.360, 85.079 67.401, 86.517 64.629 C 87.786 62.185, 87.783 61.480, 86.492 58.985 C 85.140 56.371, 84.748 56.211, 81.759 57.064 C 77.182 58.369, 76.410 59.862, 75.469 69.237 C 74.315 80.740, 74.482 86.664, 76.042 89.579 C 77.200 91.742, 77.086 93.070, 75.189 99.517 C 72.469 108.764, 72.456 110, 75.078 110 C 76.222 110, 78.939 111.800, 81.117 114 C 85.291 118.216, 87.685 119.211, 86.533 116.250 C 85.221 112.880, 85.534 112.496, 90 112 C 94.070 111.548, 94.531 111.226, 94.828 108.632 C 95.008 107.055, 94.446 101.599, 93.578 96.508 C 92.710 91.418, 92 86.971, 92 86.626 C 92 85.168, 94.982 86.204, 98.850 89.006 C 102.547 91.684, 103 92.458, 103 96.090 C 103 98.332, 102.147 103.617, 101.104 107.833 C 100.061 112.050, 98.909 117.944, 98.545 120.932 C 98.181 123.920, 96.607 130.332, 95.047 135.182 L 92.211 144 120.606 144 C 136.223 144, 149 143.790, 149 143.534 C 149 143.278, 147.456 140.241, 145.569 136.784 C 143.681 133.328, 139.899 125.033, 137.164 118.351 C 134.429 111.669, 130.657 103.794, 128.783 100.851 C 124.122 93.530, 122.577 87.429, 123.334 79.323 C 123.978 72.433, 126.009 68, 128.523 68 C 129.335 68, 130 67.407, 130 66.682 C 130 64.526, 126.879 54.601, 125.776 53.250 C 125.067 52.381, 125.110 52, 125.919 52 C 128.799 52, 133.515 43.987, 132.557 40.722 C 127.464 23.356, 126.153 20.669, 120.970 16.978 C 117.370 14.415, 112.664 13.745, 108 15.131" stroke="none" fill="black" fill-rule="evenodd"/>
</svg>