<svg xmlns="http://www.w3.org/2000/svg" width="192" height="144" viewBox="0 0 192 144" version="1.1">
	<path d="M 55.533 49.053 C 55.891 49.633, 60.017 51.954, 64.702 54.211 C 69.386 56.469, 75.533 60.046, 78.360 62.160 C 86.016 67.885, 96.757 78.894, 97.473 81.750 C 98.475 85.739, 102.624 91.172, 106.822 93.992 C 108.951 95.421, 113.396 99.733, 116.701 103.572 C 123.350 111.298, 131.122 118.593, 138.039 123.599 C 140.535 125.406, 144.129 129.044, 146.025 131.684 C 147.921 134.324, 151.113 138.175, 153.119 140.242 L 156.766 144 174.383 144 L 192 144 192 129.158 L 192 114.316 182.250 112.219 C 176.887 111.065, 170.326 109.873, 167.668 109.568 C 164.846 109.246, 159.562 107.312, 154.967 104.922 C 148.521 101.569, 146.905 100.243, 146.030 97.592 C 144.213 92.085, 139.287 88.224, 133.031 87.402 C 128.073 86.751, 126.903 86.069, 120.507 80.092 C 116.627 76.466, 111.390 71.638, 108.869 69.361 C 106.348 67.085, 103.302 63.189, 102.099 60.704 C 99.433 55.197, 94.790 52.613, 88.648 53.218 C 86.367 53.442, 82.475 53.020, 80 52.280 C 67.873 48.652, 54.168 46.844, 55.533 49.053" stroke="none" fill="black" fill-rule="evenodd"/>
</svg>