<svg xmlns="http://www.w3.org/2000/svg" width="192" height="144" viewBox="0 0 192 144" version="1.1">
	<path d="M 0 32.369 L 0 64.738 8.818 65.869 C 21.775 67.531, 28.876 67.284, 35.595 64.938 C 53.172 58.802, 81.117 62.403, 110.693 74.617 C 115.200 76.477, 119.303 78, 119.813 78 C 121.137 78, 122.138 70.738, 120.974 69.574 C 119.035 67.635, 120.041 61.839, 123.394 55.628 C 125.691 51.374, 126.627 48.501, 126.290 46.738 C 126.001 45.226, 126.465 43.175, 127.396 41.845 C 128.278 40.585, 129 38.578, 129 37.384 C 129 36.191, 129.629 34.972, 130.399 34.677 C 131.217 34.363, 132.007 32.141, 132.303 29.320 C 132.581 26.669, 133.129 23.262, 133.521 21.750 C 133.963 20.042, 133.835 19, 133.182 19 C 132.603 19, 130.927 18.543, 129.456 17.983 C 127.238 17.140, 126.992 16.714, 128.014 15.483 C 128.691 14.668, 130.770 14, 132.635 14 C 135.765 14, 136.204 13.596, 138.357 8.727 C 139.640 5.826, 141.466 2.676, 142.416 1.727 C 144.052 0.091, 140.341 0, 72.071 0 L 0 0 0 32.369 M 172.778 2.222 L 175 4.444 177.222 2.222 L 179.444 0 175 0 L 170.556 0 172.778 2.222 M 190.015 1.750 C 190.024 2.712, 190.467 4.175, 191 5 C 191.736 6.138, 191.973 5.716, 191.985 3.250 C 191.993 1.462, 191.550 0, 191 0 C 190.450 0, 190.007 0.788, 190.015 1.750 M 188.337 11.633 C 187.480 11.984, 187.534 12.801, 188.546 14.752 C 190.482 18.482, 188.979 19.790, 181.826 20.599 C 178.458 20.980, 175.617 21.834, 175.343 22.548 C 175.075 23.247, 175.318 25.492, 175.883 27.537 C 176.733 30.617, 176.575 31.912, 174.967 35.065 C 173.041 38.841, 173.041 38.878, 174.986 39.496 C 177.861 40.408, 181 44.859, 181 48.024 C 181 49.539, 180.144 51.835, 179.098 53.127 C 177.199 55.473, 177.201 55.480, 180.707 59.360 C 183.810 62.796, 184.146 63.686, 183.608 67.052 C 183.129 70.047, 183.656 72.277, 186.081 77.516 C 187.776 81.178, 189.401 86.498, 189.693 89.337 C 190.347 95.711, 189.417 96.701, 179.052 100.664 L 171.604 103.511 171.465 108.006 C 171.354 111.600, 171.882 113.144, 174.103 115.716 C 178.932 121.309, 185.123 130.995, 188.183 137.744 C 189.809 141.328, 191.445 143.865, 191.819 143.381 C 192.194 142.896, 192.375 112.913, 192.222 76.750 C 191.937 9.355, 191.984 10.142, 188.337 11.633 M 44.355 70.994 C 42.075 71.470, 38 72.980, 35.300 74.348 C 32.599 75.717, 28.614 77.124, 26.445 77.476 C 17.825 78.873, 18.342 78.413, 17.730 85.232 C 16.942 94.020, 18.517 129.133, 20.063 137.260 L 21.350 144.021 64.239 143.760 L 107.129 143.500 110.629 135.563 C 112.554 131.198, 115.899 122.427, 118.062 116.071 C 121.461 106.086, 121.850 104.076, 120.927 101.278 C 120.339 99.496, 120.154 97.561, 120.515 96.976 C 120.876 96.391, 120.626 95.254, 119.959 94.450 C 119.291 93.646, 118.448 91.528, 118.086 89.744 C 117.452 86.626, 116.894 86.295, 103.699 81.216 C 96.148 78.310, 85.140 74.861, 79.235 73.552 C 67.249 70.893, 50.662 69.677, 44.355 70.994 M 162.507 76.967 C 162.149 78.599, 160.739 81.580, 159.373 83.591 C 157.899 85.764, 157.015 88.315, 157.196 89.875 C 157.457 92.132, 157.920 92.461, 160.500 92.223 C 164.634 91.841, 175 87.968, 175 86.806 C 175 84.512, 169.516 76.801, 166.935 75.466 C 163.217 73.544, 163.263 73.528, 162.507 76.967 M 169.250 124.750 C 171.009 128.757, 177.174 139.297, 178.599 140.732 C 179.271 141.410, 180.025 142.535, 180.274 143.232 C 180.523 143.929, 181.100 144.150, 181.558 143.722 C 182.644 142.706, 178.255 133.889, 173.365 127.265 C 169.133 121.534, 167.363 120.451, 169.250 124.750" stroke="none" fill="black" fill-rule="evenodd"/>
</svg>