<svg xmlns="http://www.w3.org/2000/svg" width="192" height="144" viewBox="0 0 192 144" version="1.1">
	<path d="M 0 72 L 0 144 13.809 144 L 27.618 144 30.988 136.028 C 32.842 131.643, 35.994 125.894, 37.994 123.252 L 41.630 118.448 40.757 107.974 C 40.277 102.213, 39.645 94.911, 39.353 91.748 C 38.981 87.713, 39.580 82.338, 41.361 73.748 C 42.757 67.011, 44.208 58.575, 44.584 55 C 45.614 45.209, 48.254 39.160, 53.938 33.561 C 58.443 29.124, 59.413 28.630, 64.450 28.213 C 69.226 27.816, 70 27.467, 70 25.705 C 70 24.579, 69.253 22.832, 68.339 21.823 C 66.023 19.263, 67.326 18.478, 71.215 20.089 C 77.186 22.562, 81.056 20.740, 84.564 13.803 C 86.474 10.026, 89.922 6, 91.248 6 C 91.742 6, 90.719 8.495, 88.975 11.544 L 85.803 17.088 88.413 16.433 C 90.521 15.903, 90.907 16.080, 90.419 17.351 C 90.087 18.216, 89.069 19.165, 88.158 19.460 C 83.702 20.903, 84.031 27.528, 88.748 31.330 C 91.558 33.594, 90.977 34.782, 87.294 34.305 C 85.757 34.106, 83.853 34.372, 83.062 34.896 C 81.861 35.693, 82.067 36.489, 84.312 39.729 C 86.473 42.847, 87 44.743, 87 49.393 C 87 56.151, 84.745 58.911, 79.177 58.967 C 76.557 58.993, 75.926 59.371, 76.196 60.750 C 76.433 61.965, 75.387 63.020, 72.769 64.201 C 70.696 65.137, 69 66.567, 69 67.379 C 69 68.192, 70.626 71.587, 72.614 74.924 C 75.386 79.577, 76.117 81.749, 75.750 84.245 C 75.290 87.375, 76.728 92.354, 77.922 91.769 C 90.222 85.742, 91 85.100, 91 80.986 C 91 74.222, 96.055 71.245, 99.750 75.831 C 100.438 76.684, 101 79.091, 101 81.179 C 101 84.869, 101.191 85.071, 107.865 88.432 L 114.730 91.889 115.894 89.333 C 116.631 87.716, 116.714 86.358, 116.119 85.638 C 114.852 84.103, 116.874 78.458, 120.749 72.717 C 124.221 67.572, 123.855 66.260, 118.288 63.905 C 115.671 62.797, 115.181 62.125, 115.646 60.276 C 116.162 58.217, 115.942 58.062, 113.271 58.596 C 111.279 58.994, 109.813 58.670, 108.735 57.592 C 107.859 56.717, 106.610 56, 105.959 56 C 105.124 56, 104.888 53.985, 105.160 49.181 C 105.493 43.281, 105.989 41.801, 108.845 38.196 C 111.156 35.278, 111.953 33.426, 111.505 32.015 C 111.153 30.907, 110.405 30, 109.843 30 C 107.855 30, 105.111 25.548, 105.673 23.237 C 105.976 21.992, 105.686 20.326, 105.029 19.535 C 104.359 18.727, 104.133 17.156, 104.515 15.954 C 105.184 13.843, 105.237 13.853, 108.118 16.613 C 109.726 18.154, 112.676 21.787, 114.674 24.688 C 117.921 29.403, 118.581 29.884, 120.903 29.231 C 122.331 28.829, 125.621 28.503, 128.214 28.507 C 132.444 28.512, 133.402 28.974, 137.547 33.007 C 143.763 39.055, 145.653 43.086, 146.952 53.068 C 147.556 57.706, 148.997 67.048, 150.154 73.828 C 152.084 85.131, 152.168 87.459, 151.167 101.816 C 150.566 110.428, 150.395 117.751, 150.787 118.089 C 151.179 118.426, 154.425 119.496, 158 120.466 C 161.575 121.437, 166.086 123.036, 168.025 124.020 C 172.703 126.397, 180.060 134.451, 182.437 139.799 C 184.282 143.949, 184.489 144.088, 188.424 143.799 L 192.500 143.500 192.757 71.750 L 193.013 0 96.507 0 L 0 0 0 72 M 0.474 72.500 C 0.474 112.100, 0.598 128.154, 0.750 108.176 C 0.901 88.198, 0.901 55.798, 0.750 36.176 C 0.598 16.554, 0.474 32.900, 0.474 72.500 M 80.742 99.349 C 76.475 102.179, 73.408 104.636, 73.926 104.809 C 75.210 105.237, 90.004 98.334, 89.985 97.315 C 89.925 94.118, 87.984 94.545, 80.742 99.349 M 102.166 96.113 C 102.416 97.860, 104.136 99.256, 109 101.659 C 120.349 107.265, 121.395 105.686, 110.763 99 C 101.707 93.305, 101.767 93.325, 102.166 96.113 M 94.515 102.931 C 93.751 106.411, 93.500 106.625, 84.500 111.503 C 80.650 113.589, 76.487 115.957, 75.248 116.764 C 74.010 117.572, 71.872 118.018, 70.498 117.755 C 68.089 117.294, 68.003 117.460, 68.084 122.389 C 68.131 125.200, 68.918 131.100, 69.834 135.500 L 71.500 143.500 97.750 143.767 L 124 144.033 124 130.542 L 124 117.050 121.250 117.535 C 119.171 117.902, 116.064 116.598, 108.518 112.192 C 100.218 107.345, 98.382 105.827, 97.623 103.181 C 96.485 99.212, 95.352 99.121, 94.515 102.931" stroke="none" fill="black" fill-rule="evenodd"/>
</svg>