<svg xmlns="http://www.w3.org/2000/svg" width="192" height="144" viewBox="0 0 192 144" version="1.1">
	<path d="M 101 59.115 C 99.625 60.134, 97.409 61.128, 96.076 61.322 C 93.589 61.685, 92.877 63.467, 92.907 69.259 C 92.920 71.758, 92.665 71.956, 90.210 71.354 C 88.720 70.989, 87.350 70.310, 87.167 69.845 C 86.696 68.652, 83 68.789, 83 70 C 83 71.509, 80.879 71.201, 78.892 69.402 C 76.594 67.323, 75 68.387, 75 72 C 75 75.422, 76.508 76.653, 78.586 74.928 C 80.984 72.939, 82.107 75.030, 80.929 79.294 C 80.362 81.347, 80.166 83.460, 80.493 83.988 C 80.830 84.533, 83.091 84.675, 85.711 84.316 C 89.618 83.781, 90.244 83.921, 89.746 85.220 C 89.421 86.065, 89.548 88.494, 90.026 90.617 C 90.729 93.730, 90.393 95.928, 88.291 101.988 C 86.858 106.120, 84.590 110.693, 83.251 112.151 C 79.997 115.694, 80.665 118.001, 85.761 120.812 C 90.367 123.352, 90.220 122.848, 90.429 136.750 L 90.500 141.500 86.750 141.810 C 84.688 141.981, 83 142.544, 83 143.060 C 83 143.597, 88.416 144, 95.625 144 L 108.250 144 107.628 140.890 C 107.286 139.179, 106.518 132.541, 105.922 126.140 C 105.326 119.738, 104.175 110.225, 103.365 105 C 100.859 88.843, 100.834 87.813, 102.886 85.552 C 105.768 82.379, 107.164 79.220, 106.003 78.502 C 104.608 77.640, 104.743 69.657, 106.176 68.224 C 107.078 67.322, 106.980 66.633, 105.755 65.274 C 104.876 64.298, 104.009 62.096, 103.828 60.381 L 103.500 57.261 101 59.115 M 40.651 58.682 C 40.293 59.040, 40 60.074, 40 60.979 C 40 62.688, 34.940 67, 32.934 67 C 32.227 67, 32.069 67.673, 32.522 68.750 C 32.926 69.713, 33.491 71.625, 33.777 73 C 34.063 74.375, 35.100 76.534, 36.080 77.798 C 37.814 80.033, 37.782 80.254, 34.875 85.933 C 32.580 90.418, 30.720 92.497, 26.852 94.901 C 21.416 98.280, 13.727 100.558, 13.167 98.955 C 12.795 97.890, 5.758 97.690, 2.199 98.644 C 0.215 99.175, -0.061 99.807, 0.199 103.227 L 0.500 107.194 15.750 113.756 C 25.279 117.857, 31 120.857, 31 121.753 C 31 122.542, 31.925 123.429, 33.057 123.725 C 34.514 124.106, 34.901 124.735, 34.386 125.881 C 33.987 126.772, 33.499 129.300, 33.302 131.500 C 32.986 135.039, 33.413 135.989, 37.009 139.750 C 40.244 143.134, 41.771 144, 44.502 144 L 47.933 144 46.028 140.750 C 43.306 136.104, 40.692 127.887, 41.670 127.049 C 42.126 126.657, 44.300 125.813, 46.500 125.172 C 52.849 123.322, 53.221 122.874, 52.099 118.415 C 51.557 116.262, 50.686 112.814, 50.163 110.753 C 49.640 108.692, 48.345 105.253, 47.285 103.110 C 45.591 99.686, 45.475 98.343, 46.332 92.012 C 47.120 86.189, 47.044 84.645, 45.933 83.958 C 45.177 83.491, 44.770 82.972, 45.029 82.804 C 45.288 82.637, 46.400 81.993, 47.500 81.373 C 49.501 80.246, 49.620 79.302, 48.778 71.248 C 48.575 69.299, 47.549 67.372, 46.219 66.441 C 44.999 65.586, 43.986 64.125, 43.968 63.193 C 43.928 61.074, 41.526 57.807, 40.651 58.682 M 160.035 61.070 C 160.016 61.934, 158.481 64.414, 156.625 66.583 C 153.262 70.512, 153.254 70.547, 154.207 76.847 C 154.733 80.324, 154.880 83.453, 154.533 83.800 C 154.186 84.147, 151.704 84.335, 149.018 84.218 C 143.191 83.965, 142.227 85.483, 144.352 91.570 C 145.539 94.967, 146.132 95.500, 148.729 95.498 C 151.600 95.497, 151.724 95.673, 151.534 99.498 C 151.425 101.699, 151.083 104.175, 150.775 105 C 150.020 107.016, 147.985 121.812, 147.993 125.224 C 147.998 127.236, 148.784 128.354, 151 129.500 C 154.301 131.207, 154.386 131.378, 153.137 133.816 C 152.663 134.742, 151.982 137.412, 151.625 139.750 C 151.023 143.693, 151.141 144, 153.247 144 C 155.136 144, 155.910 142.907, 157.849 137.500 C 159.572 132.695, 160.661 131, 162.023 131 C 164.038 131, 164.509 132.127, 165.477 139.250 C 166.004 143.124, 166.493 144, 168.129 144 C 169.986 144, 170.114 143.435, 169.853 136.410 C 169.620 130.174, 169.867 128.654, 171.236 127.888 C 174.379 126.129, 175.921 123.959, 175.263 122.221 C 174.905 121.274, 172.472 117.216, 169.858 113.201 C 163.940 104.115, 163.425 102.526, 165.417 99.486 C 166.288 98.158, 167 95.930, 167 94.535 C 167 91.543, 169.356 91.160, 172.823 93.589 C 174.795 94.970, 175.773 95.010, 180.296 93.897 C 183.158 93.192, 186.512 92.734, 187.750 92.879 C 188.988 93.024, 190 92.671, 190 92.095 C 190 90.281, 185.600 88.062, 178.100 86.093 C 174.117 85.047, 170.609 83.942, 170.304 83.638 C 170 83.333, 171.693 82.306, 174.068 81.356 C 179.401 79.222, 177.805 78.388, 172.130 80.343 C 169 81.421, 168 81.472, 168 80.550 C 168 79.881, 168.338 78.996, 168.750 78.584 C 169.963 77.372, 169.795 66.899, 168.570 67.327 C 167.181 67.813, 162.841 64.440, 161.285 61.666 C 160.420 60.122, 160.061 59.951, 160.035 61.070 M 92 75 C 92 75.550, 92.450 76, 93 76 C 93.550 76, 94 75.550, 94 75 C 94 74.450, 93.550 74, 93 74 C 92.450 74, 92 74.450, 92 75 M 180 78 C 178.793 78.780, 178.951 78.972, 180.809 78.985 C 182.097 78.993, 182.845 78.558, 182.500 78 C 181.757 76.798, 181.861 76.798, 180 78 M 28.166 99.455 C 25.052 101.656, 24.969 101.856, 26.916 102.473 C 29.248 103.213, 35.419 99.488, 34.453 97.924 C 33.556 96.472, 31.770 96.907, 28.166 99.455 M 94.015 131.250 C 94.024 135.787, 94.361 139.992, 94.765 140.593 C 95.169 141.194, 96.957 141.969, 98.738 142.315 C 101.613 142.875, 102.048 142.658, 102.619 140.384 C 103.446 137.087, 102.489 127.783, 101.046 125.086 C 100.300 123.691, 98.947 123, 96.965 123 L 94 123 94.015 131.250" stroke="none" fill="black" fill-rule="evenodd"/>
</svg>