<svg xmlns="http://www.w3.org/2000/svg" width="192" height="144" viewBox="0 0 192 144" version="1.1">
	<path d="M 139.585 3.426 C 136.885 5.737, 134.340 6.927, 131.388 7.260 C 126.736 7.784, 120.725 10.583, 115.200 14.797 C 111.403 17.693, 107.026 25.889, 107.010 30.131 C 106.995 33.983, 101.172 39.326, 94.750 41.378 C 93.746 41.699, 93.010 42.910, 93.025 44.219 C 93.055 47.014, 98.467 50.016, 102.193 49.303 C 104.108 48.937, 104.846 49.302, 105.240 50.808 C 105.526 51.902, 106.941 53.570, 108.385 54.516 C 110.494 55.898, 111.302 55.994, 112.493 55.006 C 113.698 54.006, 114.102 54.102, 114.646 55.520 C 115.014 56.480, 114.784 58.116, 114.135 59.155 C 113.199 60.654, 113.240 61.155, 114.329 61.573 C 115.085 61.863, 117.174 64.063, 118.971 66.461 C 121.406 69.712, 123.156 70.994, 125.840 71.498 C 128.117 71.925, 129.575 71.774, 129.804 71.087 C 130.593 68.720, 132.189 70.111, 131.560 72.618 C 130.820 75.567, 121.541 84.482, 116.688 86.907 C 114.166 88.167, 113.500 89.127, 113.500 91.500 C 113.500 93.884, 113.020 94.568, 111.162 94.831 C 109.282 95.097, 108.936 95.608, 109.395 97.436 C 109.829 99.168, 109.129 100.471, 106.455 102.905 L 102.944 106.100 97.986 100.675 C 95.260 97.692, 91.560 93.413, 89.764 91.167 C 84.644 84.762, 78.546 82.871, 64.130 83.219 L 52.500 83.500 52.742 87.437 C 52.902 90.043, 53.831 92.258, 55.492 93.991 C 56.871 95.431, 58 97.372, 58 98.305 C 58 99.508, 58.840 100, 60.893 100 C 62.650 100, 64.033 100.643, 64.414 101.637 C 64.919 102.953, 65.969 103.163, 69.771 102.708 C 72.372 102.397, 75.179 101.879, 76.009 101.557 C 77.505 100.976, 84.030 109.838, 90.459 121.185 C 91.919 123.762, 94.938 127.518, 97.167 129.532 C 100.558 132.595, 101.793 133.126, 104.732 132.783 L 108.244 132.373 107.717 138.187 L 107.190 144 126.345 143.995 L 145.500 143.990 142.544 141.625 C 139.784 139.417, 139.588 138.803, 139.592 132.380 C 139.594 127.655, 140.356 123.349, 142.024 118.633 L 144.452 111.766 151.759 112.235 C 161.186 112.840, 163.580 114.713, 175.500 130.806 C 184.537 143.008, 187.547 145.451, 190.513 142.989 C 191.711 141.995, 192 138.767, 192 126.378 L 192 111 187.250 110.921 C 184.637 110.878, 179.542 110.315, 175.926 109.671 C 169.371 108.503, 169.354 108.492, 170.109 105.677 C 170.525 104.124, 172.021 101.783, 173.433 100.474 C 174.845 99.166, 176 97.126, 176 95.941 C 176 94.480, 176.462 93.963, 177.435 94.337 C 178.349 94.688, 179.638 93.584, 180.991 91.291 L 183.113 87.694 187.556 92.055 L 192 96.416 192 88.203 L 192 79.990 183.409 71.495 C 178.684 66.823, 174.409 63, 173.909 63 C 173.409 63, 173.007 64.237, 173.014 65.750 C 173.028 68.331, 170.599 77.147, 167.245 86.693 C 166.435 88.999, 164.227 92.292, 162.338 94.011 C 159.457 96.633, 158.483 96.994, 156.278 96.259 C 154.060 95.520, 153.463 94.460, 152.435 89.442 C 151.765 86.174, 150.430 81.853, 149.467 79.841 C 147.054 74.798, 148.053 72.585, 152.422 73.294 C 155.260 73.754, 155.896 73.506, 156.353 71.757 C 156.813 69.999, 157.142 69.873, 158.449 70.958 C 160.096 72.325, 160.337 71.897, 160.027 68.156 C 159.870 66.269, 160.204 65.930, 161.741 66.418 C 163.115 66.854, 164.026 66.320, 164.994 64.512 C 165.876 62.863, 167.193 62, 168.824 62 C 171.247 62, 171.264 61.949, 169.500 60 C 168.505 58.900, 168.040 58, 168.467 58 C 168.895 58, 168.627 57.247, 167.872 56.327 C 166.638 54.821, 166.751 54.727, 169 55.391 C 173.263 56.648, 174.412 56.556, 174.751 54.928 C 174.939 54.022, 174.020 52.874, 172.580 52.218 C 171.206 51.592, 168.936 49.349, 167.536 47.234 L 164.992 43.389 166.855 36.050 C 168.209 30.721, 169.581 27.830, 171.865 25.494 L 175.010 22.277 169.255 20.556 C 166.090 19.610, 162.909 18.651, 162.187 18.425 C 160.190 17.801, 161.669 16.232, 164.928 15.516 C 168.543 14.722, 169.092 13.355, 167.909 8.089 C 166.129 0.169, 165.830 -0.005, 154.009 0.038 C 143.556 0.075, 143.479 0.093, 139.585 3.426" stroke="none" fill="black" fill-rule="evenodd"/>
</svg>