<svg xmlns="http://www.w3.org/2000/svg" width="192" height="144" viewBox="0 0 192 144" version="1.1">
	<path d="M 0 72 L 0 144 34.379 144 L 68.758 144 74.516 126.250 C 77.683 116.487, 81.113 107.097, 82.137 105.382 C 83.162 103.667, 84 101.440, 84 100.432 C 84 97.744, 82.604 99.757, 80.487 105.499 C 79.124 109.196, 76.447 112.696, 70.213 118.930 L 61.781 127.362 60.111 125.147 C 58.513 123.029, 58.303 123.002, 55.257 124.522 C 52.823 125.736, 51.594 125.853, 50.037 125.020 C 48.917 124.420, 48 123.808, 48 123.659 C 48 123.510, 49.144 121.839, 50.542 119.944 L 53.085 116.500 50.792 115.932 C 48.594 115.388, 48.633 115.295, 51.750 113.657 C 53.538 112.717, 55.010 111.623, 55.021 111.224 C 55.033 110.826, 57.974 107.350, 61.558 103.500 C 67.458 97.160, 73 87.902, 73 84.384 C 73 83.632, 72.100 82.455, 71 81.768 C 69.900 81.081, 69 79.952, 69 79.259 C 69 78.567, 68.438 77.999, 67.750 77.997 C 67.063 77.996, 68.452 76.308, 70.838 74.247 C 75.110 70.556, 75.182 70.390, 75.587 63.156 C 75.813 59.117, 76.250 55.404, 76.558 54.906 C 76.866 54.408, 75.985 54, 74.599 54 C 72.372 54, 71.848 53.248, 70.072 47.498 C 68.968 43.922, 68.316 40.341, 68.624 39.539 C 69.070 38.376, 71.444 38.094, 80.341 38.147 C 88.286 38.195, 92.989 37.726, 96.670 36.518 C 103.686 34.216, 105.419 34.687, 105.841 39.008 C 106.279 43.504, 104.399 52.394, 101.929 57.500 C 100.865 59.700, 99.996 63.436, 99.997 65.802 C 100 69.678, 100.296 70.207, 102.988 71.146 C 106.172 72.256, 106.787 73.645, 109.340 85.500 C 110.565 91.190, 110.958 91.745, 116.947 96.238 C 124.716 102.066, 126.259 103.982, 124.700 105.862 C 123.814 106.929, 124.175 107.753, 126.340 109.616 C 127.867 110.929, 128.838 112.453, 128.499 113.002 C 127.337 114.882, 122.915 114.011, 120.524 111.431 L 118.144 108.863 116.972 111.053 C 116.327 112.258, 115.481 115.326, 115.092 117.872 C 114.627 120.915, 113.936 122.401, 113.074 122.211 C 111.554 121.875, 111.830 123.308, 115.686 135.762 L 118.243 144.024 155.372 143.762 L 192.500 143.500 192.757 71.750 L 193.013 0 96.507 0 L 0 0 0 72 M 0.474 72.500 C 0.474 112.100, 0.598 128.154, 0.750 108.176 C 0.901 88.198, 0.901 55.798, 0.750 36.176 C 0.598 16.554, 0.474 32.900, 0.474 72.500 M 82.739 85.889 C 82.467 86.928, 82.633 88.391, 83.107 89.139 C 83.693 90.064, 83.974 89.460, 83.985 87.250 C 84.002 83.612, 83.483 83.045, 82.739 85.889" stroke="none" fill="black" fill-rule="evenodd"/>
</svg>