<svg xmlns="http://www.w3.org/2000/svg" width="192" height="144" viewBox="0 0 192 144" version="1.1">
	<path d="M 0 72 L 0 144 16.500 144 L 33 144 33 141.107 C 33 137.988, 31.576 137, 27.079 137 C 25.152 137, 23.997 136.290, 23.247 134.643 C 22.228 132.406, 17.500 130.855, 11.750 130.871 C 8.960 130.879, 9.501 124.734, 12.730 119.730 C 14.231 117.404, 15.918 114.757, 16.480 113.848 C 17.041 112.940, 20.018 108.890, 23.095 104.848 C 32.413 92.612, 33.943 89.964, 33.365 87.074 C 33.076 85.631, 33.946 80.524, 35.297 75.725 C 37.641 67.401, 37.610 64.423, 35.228 69.250 C 30.045 79.754, 27.996 86.122, 28.595 89.867 C 29.143 93.293, 28.983 93.795, 27.389 93.658 C 26.170 93.553, 25.205 94.511, 24.526 96.500 C 23.217 100.327, 22.127 102, 20.941 102 C 19.376 102, 19.883 95.813, 21.883 90.500 C 24.445 83.694, 25.500 78.573, 24.172 79.394 C 23.552 79.777, 22.980 78.714, 22.761 76.769 C 22.395 73.529, 22.380 73.542, 20.989 78.250 C 20.217 80.863, 19.004 83, 18.293 83 C 17.582 83, 17 83.679, 17 84.508 C 17 85.726, 16.643 85.794, 15.148 84.860 C 13.632 83.914, 12.906 84.094, 11.148 85.852 C 8.357 88.643, 7.213 88.561, 5.804 85.468 C 4.923 83.535, 4.953 80.992, 5.932 74.718 C 7.295 65.974, 8.874 62.809, 16.612 53.309 C 21.475 47.339, 21.674 46.728, 22.369 35.652 C 22.828 28.321, 22.736 27.836, 20.967 28.298 C 19.926 28.571, 18.541 28.152, 17.890 27.367 C 16.952 26.238, 17.143 25.477, 18.807 23.705 C 21.365 20.983, 20.704 19.744, 15.500 17.501 C 9.900 15.087, 12.453 14.592, 19.135 16.796 C 23.043 18.086, 25.296 18.347, 26.782 17.684 C 29.987 16.254, 32.164 17.500, 31.447 20.354 C 30.913 22.483, 31.127 22.698, 33.348 22.274 C 37.446 21.490, 42.913 23.806, 43.621 26.624 C 43.961 27.982, 43.965 29.368, 43.629 29.705 C 43.292 30.041, 43.401 30.807, 43.871 31.408 C 45.798 33.874, 46.040 37.878, 44.321 38.840 C 42.760 39.714, 42.754 39.968, 44.237 42.143 C 45.121 43.439, 48.832 47.631, 52.484 51.457 C 57.772 56.996, 58.980 58.830, 58.412 60.457 C 56.352 66.363, 56.880 75.770, 59.963 88.074 C 67.105 116.575, 68.938 132.382, 65.250 133.678 C 64.287 134.016, 62.353 135.349, 60.952 136.640 C 59.032 138.409, 57.431 138.927, 54.452 138.744 C 50.814 138.519, 50.475 138.718, 50.184 141.250 L 49.867 144 95.934 144 L 142 144 141.985 140.250 C 141.966 135.568, 141.203 134.465, 137.819 134.225 C 136.345 134.120, 133.455 132.892, 131.398 131.495 C 127.842 129.082, 127.646 128.663, 127.424 122.979 C 127.296 119.691, 127.568 116.767, 128.029 116.482 C 128.491 116.197, 128.626 114.469, 128.329 112.642 C 128.020 110.733, 128.655 106.169, 129.825 101.904 C 134.677 84.219, 136.711 64.478, 134.555 56 C 134.012 53.863, 135.087 52.290, 141.960 45.173 C 146.382 40.593, 150 36.485, 150 36.045 C 150 35.605, 149.329 34.688, 148.510 34.008 C 147.114 32.850, 147.266 29.262, 148.826 26.542 C 149.128 26.016, 149.488 24.519, 149.627 23.217 C 150.143 18.380, 154.727 16.168, 160.664 17.892 C 163.385 18.682, 164.150 18.470, 166.116 16.376 C 167.375 15.037, 169.028 14.181, 169.791 14.473 C 170.554 14.766, 172.307 14.117, 173.688 13.031 C 175.965 11.240, 176.344 11.202, 177.762 12.619 C 179.092 13.949, 179.114 14.315, 177.912 15.075 C 177.135 15.567, 175.960 15.976, 175.301 15.985 C 174.641 15.993, 172.907 17.567, 171.447 19.481 C 169.091 22.570, 168.916 23.319, 169.896 26.130 C 170.503 27.873, 171.002 31.819, 171.005 34.899 C 171.011 41.520, 173.022 44.475, 180 48.114 C 182.475 49.405, 186.188 51.745, 188.250 53.314 L 192 56.168 192 64.084 C 192 68.438, 191.745 72, 191.434 72 C 191.123 72, 189.998 71.534, 188.934 70.965 C 187.566 70.232, 187 70.252, 187 71.032 C 187 72.531, 183.386 71.377, 178.771 68.403 C 174.594 65.711, 173.518 65.410, 174.652 67.250 C 175.076 67.938, 174.218 67.713, 172.747 66.750 C 171.275 65.788, 169.317 65, 168.395 65 C 167.474 65, 166.078 64.213, 165.292 63.250 C 164.001 61.669, 163.927 61.789, 164.519 64.500 C 164.879 66.150, 165.999 71.351, 167.008 76.058 C 168.928 85.022, 170.735 88.802, 177.576 98.166 C 180.907 102.727, 182.152 105.723, 183.953 113.520 C 186.365 123.956, 185.895 126.664, 182.084 124.285 C 180.488 123.288, 180.288 123.386, 180.701 124.963 C 181.211 126.913, 180.365 127.344, 173.910 128.428 C 171.935 128.759, 169.269 130.149, 167.986 131.515 C 166.265 133.347, 164.615 134, 161.709 134 C 158.109 134, 157.819 134.195, 158.370 136.250 C 158.701 137.487, 158.979 139.748, 158.986 141.274 L 159 144.048 175.750 143.774 L 192.500 143.500 192.757 71.750 L 193.013 0 96.507 0 L 0 0 0 72 M 0.474 72.500 C 0.474 112.100, 0.598 128.154, 0.750 108.176 C 0.901 88.198, 0.901 55.798, 0.750 36.176 C 0.598 16.554, 0.474 32.900, 0.474 72.500 M 167.711 17.003 C 166.795 18.310, 166.271 19.605, 166.547 19.880 C 167.406 20.739, 170.255 17.266, 169.804 15.911 C 169.521 15.062, 168.811 15.432, 167.711 17.003 M 154.386 64.750 C 154.686 66.263, 155.220 69.179, 155.573 71.230 C 156.051 74.009, 156.953 75.329, 159.108 76.404 C 160.698 77.197, 162 77.590, 162 77.276 C 162 76.065, 157.613 64.435, 156.709 63.250 C 155.059 61.087, 153.819 61.888, 154.386 64.750 M 40.600 74.600 C 40.244 75.527, 40.178 76.511, 40.453 76.786 C 40.728 77.061, 41.244 76.527, 41.600 75.600 C 41.956 74.673, 42.022 73.689, 41.747 73.414 C 41.472 73.139, 40.956 73.673, 40.600 74.600 M 147.796 137.693 C 146.959 141.745, 148.128 144, 151.064 144 L 153.895 144 152.598 140.250 C 151.204 136.221, 148.407 134.731, 147.796 137.693 M 39.607 141.582 C 38.712 143.915, 38.778 144, 41.500 144 C 43.333 144, 44 143.467, 44 142 C 44 139.568, 40.507 139.235, 39.607 141.582" stroke="none" fill="black" fill-rule="evenodd"/>
</svg>