<svg xmlns="http://www.w3.org/2000/svg" width="192" height="144" viewBox="0 0 192 144" version="1.1">
	<path d="M 0 40 C 0 62, 0.344 80, 0.763 80 C 2.224 80, 11.644 73.178, 17.216 68.085 L 22.824 62.960 27.870 64.949 C 30.645 66.043, 37.081 69.030, 42.172 71.587 C 51.375 76.209, 51.472 76.232, 58.964 75.601 C 63.109 75.252, 66.958 74.899, 67.518 74.817 C 68.078 74.734, 69.679 74.954, 71.076 75.304 C 73.263 75.853, 74.122 75.265, 77.246 71.080 C 79.242 68.406, 82.816 65.136, 85.188 63.812 C 89.634 61.331, 90.318 59.175, 87.541 56.398 C 85.993 54.850, 85 55.589, 85 58.289 C 85 59.812, 84.703 59.998, 83.658 59.131 C 82.920 58.519, 82.020 58.313, 81.658 58.675 C 81.296 59.037, 81 57.993, 81 56.355 C 81 53.454, 78.436 49.687, 75.806 48.727 C 74.760 48.345, 74.749 47.986, 75.750 46.925 C 77.579 44.986, 77.276 43.778, 75.132 44.458 C 74.105 44.784, 72.061 44.593, 70.590 44.034 L 67.916 43.018 71.345 39.588 C 74.562 36.371, 74.768 35.766, 74.670 29.829 C 74.553 22.726, 76.114 18.705, 80.149 15.720 C 82.280 14.143, 84.823 13.689, 93.149 13.394 C 105.403 12.961, 108.968 13.924, 112.936 18.739 C 115.425 21.758, 116.140 22.129, 117.420 21.066 C 118.673 20.027, 119.575 20.192, 122.496 21.998 C 128.270 25.566, 131.551 34.629, 128.349 38.167 C 126.881 39.789, 126.831 40.665, 127.925 45.556 C 129.643 53.233, 129.478 59.191, 127.426 63.515 C 124.198 70.316, 121.057 69.149, 118.450 60.179 C 117.324 56.308, 116.964 52.394, 117.306 47.762 C 117.580 44.042, 117.465 40.787, 117.049 40.530 C 115.825 39.774, 113.823 45.076, 114.847 46.362 C 116.199 48.060, 114.576 51.490, 112.418 51.495 C 111.320 51.498, 109.940 52.734, 109.113 54.457 C 108.332 56.083, 106.862 58.305, 105.846 59.395 C 104.019 61.357, 104 61.348, 104 58.566 C 104 56.181, 103.773 55.944, 102.500 57 C 99.917 59.144, 100.827 60.780, 106.220 63.687 C 109.092 65.234, 112.804 68.317, 114.470 70.538 C 117.452 74.512, 117.611 74.580, 124.500 74.861 C 139.034 75.452, 138.806 75.503, 152.469 68.576 C 159.602 64.959, 166.042 62, 166.779 62 C 167.516 62, 170.473 64.226, 173.350 66.947 C 178.700 72.006, 189.342 79, 191.691 79 C 192.748 79, 193 71.380, 193 39.500 L 193 0 96.500 0 L 0 0 0 40 M 0.456 40.500 C 0.456 62.500, 0.588 71.358, 0.749 60.183 C 0.910 49.009, 0.910 31.009, 0.749 20.183 C 0.587 9.358, 0.455 18.500, 0.456 40.500 M 162.250 68.175 L 159 70.184 161 72.727 C 162.635 74.806, 163 76.784, 163 83.576 C 163 88.144, 162.564 92.151, 162.031 92.481 C 161.498 92.810, 159.266 89.508, 157.072 85.142 C 153.685 78.408, 153.216 76.735, 153.971 74.103 C 155.030 70.408, 154.696 70.349, 149.500 73.320 C 145.334 75.702, 145.340 75.683, 146.596 83.245 C 147.268 87.292, 144.348 101.333, 143.006 100.504 C 141.748 99.726, 138.025 84.779, 138.273 81.500 C 138.490 78.629, 138.328 78.500, 134.500 78.500 L 130.500 78.500 130.439 82.621 C 130.388 86.035, 129.488 87.860, 125.189 93.263 C 119.824 100.005, 119.244 101.901, 121.081 106.685 C 122.017 109.119, 128.939 141.161, 128.984 143.264 C 128.993 143.684, 143.287 143.909, 160.750 143.764 L 192.500 143.500 192.595 115.500 C 192.647 100.100, 192.422 89.956, 192.095 92.959 L 191.500 98.417 186.687 92.959 C 182.457 88.160, 181.938 87.087, 182.401 84.084 C 182.787 81.585, 182.468 80.318, 181.214 79.366 C 178.164 77.048, 177.851 77.866, 178.582 86.248 C 179.430 95.973, 178.783 95.911, 172.082 85.626 C 167.819 79.083, 167.319 76.921, 169.028 72.425 C 169.846 70.274, 169.712 69.339, 168.373 67.860 C 166.359 65.634, 166.360 65.634, 162.250 68.175 M 20.868 70.391 C 19.971 72.360, 20.160 73.298, 21.943 75.710 L 24.108 78.638 21.724 85.012 C 20.413 88.518, 18.874 91.542, 18.303 91.732 C 17.733 91.922, 16.451 88.937, 15.456 85.099 C 13.532 77.684, 13.460 77.645, 8.500 81.346 C 6.511 82.831, 6.512 82.852, 8.759 85.244 C 11.138 87.776, 11.077 88.527, 7.793 97.250 C 6.372 101.023, 5.403 100.712, 3.122 95.750 L 1.169 91.500 1.084 117.750 L 1 144 35.428 144 L 69.856 144 71.807 138.750 C 72.879 135.863, 74.088 131.925, 74.493 130 C 74.898 128.075, 76.253 124.025, 77.504 121 C 79.841 115.349, 81.738 102.003, 80.492 99.987 C 80.082 99.324, 78.858 100.853, 77.538 103.677 C 75.608 107.805, 73.894 109.413, 65.648 114.835 C 55.734 121.353, 42.926 127.017, 38.186 126.978 C 35.166 126.953, 27 123.532, 27 122.292 C 27 121.848, 28.946 121.640, 31.325 121.830 C 35.954 122.198, 45.092 119.083, 41.750 118.276 C 40.788 118.044, 40 117.170, 40 116.335 C 40 115.113, 41.133 114.881, 45.800 115.150 L 51.600 115.484 59.488 109.139 C 63.826 105.648, 67.932 102.580, 68.611 102.319 C 71.384 101.255, 70.668 98.777, 65.955 93.138 C 61.783 88.145, 61 86.558, 61 83.104 L 61 79 56.488 79 L 51.976 79 52.605 82.930 C 53.236 86.878, 51.423 97, 50.084 97 C 49.690 97, 48.073 94.291, 46.490 90.980 C 43.833 85.421, 43.713 84.684, 44.916 81.356 C 46.371 77.331, 46.493 77.502, 39.607 73.868 C 35.963 71.945, 35.763 71.931, 36.471 73.657 C 36.887 74.671, 37.420 76.175, 37.656 77 C 38.209 78.934, 33.622 90.214, 32.416 89.886 C 31.912 89.749, 30.690 86.998, 29.700 83.773 C 28.053 78.408, 28.031 77.643, 29.450 74.800 C 30.302 73.091, 31 71.514, 31 71.295 C 31 70.754, 24.323 68, 23.011 68 C 22.431 68, 21.467 69.076, 20.868 70.391 M 68.076 81.750 C 69.409 83.263, 70.612 84.688, 70.750 84.917 C 71.513 86.188, 72.001 83.853, 71.440 81.618 C 70.945 79.645, 70.151 79, 68.217 79 L 65.651 79 68.076 81.750 M 118 79.985 C 116.799 80.749, 116.735 81.318, 117.678 82.841 C 118.414 84.030, 118.504 85.096, 117.916 85.684 C 116.878 86.722, 117.806 93, 118.996 93 C 119.407 93, 120.028 90.846, 120.377 88.214 C 120.726 85.581, 121.710 82.431, 122.563 81.214 C 124.029 79.120, 123.988 79.001, 121.807 79.015 C 120.538 79.024, 118.825 79.460, 118 79.985 M 0.345 85.543 C -0.585 87.967, 0.713 88.405, 1.954 86.086 C 2.728 84.639, 2.743 84, 2.004 84 C 1.417 84, 0.671 84.694, 0.345 85.543 M 71 89 C 71 90.867, 71.267 91.133, 72.200 90.200 C 73.133 89.267, 73.133 88.733, 72.200 87.800 C 71.267 86.867, 71 87.133, 71 89 M 112.116 110.931 C 112.052 112.819, 113.346 117.769, 114.990 121.931 C 116.635 126.094, 118.496 131.525, 119.126 134 C 119.756 136.475, 120.473 137.938, 120.719 137.251 C 120.965 136.564, 119.357 130.489, 117.146 123.751 C 114.935 117.013, 112.925 110.600, 112.679 109.500 C 112.420 108.339, 112.183 108.940, 112.116 110.931" stroke="none" fill="black" fill-rule="evenodd"/>
</svg>