<svg xmlns="http://www.w3.org/2000/svg" width="192" height="144" viewBox="0 0 192 144" version="1.1">
	<path d="M 0 72 L 0 144 14.981 144 C 29.714 144, 29.969 143.963, 30.420 141.750 C 31.933 134.325, 31.852 133.881, 28.628 131.915 C 26.908 130.866, 24.046 130.006, 22.269 130.004 C 19.671 130.001, 18.917 129.518, 18.420 127.536 C 17.717 124.736, 16.233 124.073, 10.136 123.834 L 5.840 123.666 6.478 120.264 C 7.245 116.178, 11.342 108.472, 14.623 104.945 C 15.930 103.540, 17 102.086, 17 101.715 C 17 101.343, 18.499 98.668, 20.330 95.769 C 24.137 89.746, 25.312 87, 24.084 87 C 23.614 87, 22.493 88.125, 21.592 89.500 C 19.549 92.618, 17.040 92.751, 16.882 89.750 C 16.668 85.690, 17.134 84.533, 20.085 81.806 C 22.813 79.285, 23 78.626, 23 71.507 C 23 66.645, 23.550 62.836, 24.526 60.950 C 25.365 59.328, 25.638 58, 25.133 58 C 23.390 58, 22.956 54.707, 24.476 53.027 C 27.140 50.083, 26.417 43.545, 22.997 39.649 C 18.547 34.581, 16.703 29.464, 17.474 24.324 C 18.092 20.205, 18.004 20, 15.620 20 C 12.523 20, 11.416 18.409, 13.100 16.380 C 14.137 15.130, 14.107 14.680, 12.936 13.939 C 12.146 13.439, 10.681 13.024, 9.680 13.015 C 8.369 13.004, 7.950 12.372, 8.180 10.750 C 8.463 8.760, 9.019 8.524, 13 8.710 C 15.475 8.825, 19.750 9.015, 22.500 9.131 C 27.909 9.360, 29.377 10.428, 27.948 13.097 C 27.171 14.549, 27.525 14.787, 30.344 14.707 C 32.164 14.656, 35.081 15.205, 36.826 15.928 C 39.330 16.965, 40 17.838, 40 20.062 C 40 21.613, 40.495 23.188, 41.101 23.562 C 41.753 23.965, 41.949 25.506, 41.582 27.340 C 41.103 29.736, 41.232 30.168, 42.153 29.247 C 43.075 28.325, 43.073 26.747, 42.147 22.278 C 41.488 19.100, 40.423 12.787, 39.780 8.250 L 38.610 -0 19.305 -0 L 0 0 0 72 M 65 10.800 C 65 12.890, 65.517 15.117, 66.149 15.749 C 67.014 16.614, 66.871 17.548, 65.571 19.532 C 64.046 21.859, 63.299 22.128, 59.172 21.833 L 54.500 21.500 54.194 25.180 C 53.998 27.533, 54.692 30.417, 56.121 33.180 C 57.349 35.556, 58.899 41.100, 59.567 45.500 C 60.234 49.900, 61.027 54.502, 61.328 55.727 C 62.120 58.942, 66.062 62.682, 69.249 63.240 C 71.739 63.677, 72.097 63.352, 73.057 59.787 C 74.385 54.858, 74.362 32.059, 73.025 27.094 C 72.367 24.649, 72.363 22.220, 73.014 19.951 C 74.727 13.977, 74.261 10.401, 71.535 8.615 C 70.180 7.727, 68.155 7, 67.035 7 C 65.345 7, 65 7.645, 65 10.800 M 70.667 91.667 C 70.300 92.033, 70 93.074, 70 93.979 C 70 94.884, 69.060 97.569, 67.912 99.947 C 64.801 106.384, 63.082 112.695, 62.348 120.366 C 61.720 126.930, 61.549 127.291, 58.437 128.591 C 56.648 129.338, 55.006 130.482, 54.789 131.133 C 54.572 131.783, 53.006 132.276, 51.308 132.228 C 48.639 132.152, 48.139 132.553, 47.611 135.195 C 47.275 136.875, 47 139.544, 47 141.125 L 47 144 69 144 L 91 144 91 141.450 C 91 140.048, 90.377 137.686, 89.616 136.200 C 88.722 134.456, 88.091 128.865, 87.834 120.415 C 87.460 108.088, 87.249 106.949, 84.207 100.769 C 81.471 95.211, 80.364 93.963, 76.968 92.604 C 72.518 90.823, 71.640 90.693, 70.667 91.667 M 38.041 134.393 C 37.540 135.710, 36.820 138.445, 36.439 140.472 C 35.764 144.073, 35.814 144.150, 38.624 143.829 C 41.379 143.514, 41.513 143.259, 41.800 137.750 C 42.045 133.057, 41.810 132, 40.525 132 C 39.659 132, 38.541 133.077, 38.041 134.393" stroke="none" fill="black" fill-rule="evenodd"/>
</svg>