<svg xmlns="http://www.w3.org/2000/svg" width="192" height="144" viewBox="0 0 192 144" version="1.1">
	<path d="M 0 72 L 0 144 7.500 144 C 14.805 144, 15 143.936, 15 141.535 C 15 140.180, 14.195 138.639, 13.211 138.113 C 11.756 137.334, 11.470 136.075, 11.683 131.383 C 11.985 124.702, 11.913 124.793, 24.460 115.288 C 29.388 111.555, 35.998 105.426, 39.149 101.669 L 44.878 94.838 44.752 84.528 L 44.626 74.217 40.286 72.109 C 37.899 70.949, 35.318 70, 34.550 70 C 33.782 70, 31.801 68.862, 30.149 67.472 C 18.010 57.258, 25.235 31.159, 43.532 19.130 C 51.117 14.143, 56.136 12.257, 65.276 10.961 C 82.177 8.564, 102.273 18.410, 104.981 30.414 C 106.165 35.667, 103.832 44.915, 100.673 47.483 C 99.308 48.592, 97.529 51.110, 96.719 53.078 C 95.399 56.284, 92.571 58.417, 87.371 60.128 C 86.750 60.333, 84.399 62.176, 82.146 64.225 L 78.050 67.950 79.832 72.225 C 82.193 77.886, 81.701 79.399, 76.514 82.439 C 71.436 85.415, 69.611 85.040, 67.895 80.670 L 66.650 77.500 66.268 80.150 C 66.058 81.607, 66.878 85.657, 68.091 89.150 C 70.017 94.698, 70.388 98.531, 71.025 119.500 C 71.426 132.700, 71.810 143.616, 71.877 143.758 C 71.945 143.900, 99.113 143.900, 132.250 143.758 L 192.500 143.500 192.757 71.750 L 193.013 0 96.507 0 L 0 0 0 72 M 0.474 72.500 C 0.474 112.100, 0.598 128.154, 0.750 108.176 C 0.901 88.198, 0.901 55.798, 0.750 36.176 C 0.598 16.554, 0.474 32.900, 0.474 72.500 M 97.688 4.646 C 96.383 5.950, 97.006 7, 99.083 7 C 100.247 7, 100.992 6.476, 100.771 5.813 C 100.284 4.351, 98.614 3.719, 97.688 4.646 M 173 11 C 174.958 12.266, 176.282 12.266, 175.500 11 C 175.160 10.450, 174.121 10.007, 173.191 10.015 C 171.734 10.029, 171.707 10.165, 173 11 M 117.506 15.994 C 116.507 17.097, 116.155 18, 116.723 18 C 117.981 18, 120.475 15.142, 119.803 14.470 C 119.538 14.205, 118.504 14.890, 117.506 15.994 M 112.079 21.583 C 112.127 22.748, 112.364 22.985, 112.683 22.188 C 112.972 21.466, 112.936 20.603, 112.604 20.271 C 112.272 19.939, 112.036 20.529, 112.079 21.583 M 92.583 62.866 C 92.152 63.563, 92.070 64.403, 92.400 64.733 C 93.295 65.628, 94.271 64.312, 93.787 62.862 C 93.449 61.846, 93.213 61.846, 92.583 62.866 M 92.441 68.418 C 94.694 70.254, 95.641 70.390, 96.500 69 C 96.840 68.450, 96.453 68, 95.641 68 C 94.828 68, 93.339 67.738, 92.332 67.418 C 90.656 66.886, 90.665 66.971, 92.441 68.418 M 72.473 71.748 C 73.251 74.848, 73.752 75.581, 74.549 74.785 C 75.406 73.928, 73.902 69, 72.783 69 C 72.192 69, 72.065 70.123, 72.473 71.748 M 181 83.305 C 178.533 84.333, 178.529 84.352, 180.721 84.739 C 183.465 85.224, 186.947 83.575, 184.859 82.780 C 184.112 82.496, 182.375 82.732, 181 83.305 M 9.750 92.662 C 10.438 92.940, 11.563 92.940, 12.250 92.662 C 12.938 92.385, 12.375 92.158, 11 92.158 C 9.625 92.158, 9.063 92.385, 9.750 92.662 M 152.500 113 C 152.840 113.550, 153.568 114, 154.118 114 C 154.668 114, 154.840 113.550, 154.500 113 C 154.160 112.450, 153.432 112, 152.882 112 C 152.332 112, 152.160 112.450, 152.500 113 M 128 118.559 C 128 119.416, 128.457 119.835, 129.016 119.490 C 129.575 119.144, 129.774 118.443, 129.457 117.931 C 128.600 116.544, 128 116.802, 128 118.559 M 124 134 C 124 134.550, 124.675 135, 125.500 135 C 126.325 135, 127 134.550, 127 134 C 127 133.450, 126.325 133, 125.500 133 C 124.675 133, 124 133.450, 124 134 M 157 135.878 C 157 137.156, 159.940 139.393, 160.667 138.667 C 161.393 137.940, 159.156 135, 157.878 135 C 157.395 135, 157 135.395, 157 135.878" stroke="none" fill="black" fill-rule="evenodd"/>
</svg>