<svg xmlns="http://www.w3.org/2000/svg" width="192" height="144" viewBox="0 0 192 144" version="1.1">
	<path d="M 0 72 L 0 144 80.513 144 L 161.027 144 159.407 140.250 C 158.516 138.188, 156.533 133.575, 155.002 130 C 153.470 126.425, 151.021 120.850, 149.559 117.611 C 147.913 113.962, 147.096 110.729, 147.413 109.111 C 147.694 107.675, 148.191 104.025, 148.519 101 C 149.505 91.891, 149.395 92.026, 155.301 92.693 C 158.160 93.016, 160.180 92.935, 159.790 92.513 C 158.673 91.307, 161.616 86.482, 164.699 84.465 C 166.239 83.458, 168.095 82.041, 168.821 81.317 C 169.548 80.592, 171.025 80, 172.104 80 C 173.953 80, 174.049 79.356, 173.783 68.765 L 173.500 57.531 170 56.949 C 164.608 56.053, 162.081 54.039, 162.306 50.815 C 162.444 48.847, 163.279 47.716, 165.178 46.928 C 168.898 45.385, 169.269 43.602, 166.428 40.932 C 163.377 38.066, 163.013 34.401, 165.934 35.965 C 168.874 37.538, 169.723 37.240, 170.440 34.382 C 171.302 30.950, 170.739 30.547, 166.940 31.871 C 164.123 32.853, 163.918 32.803, 165.070 31.416 C 165.781 30.559, 167.634 29.327, 169.187 28.679 C 170.741 28.030, 173.471 25.263, 175.256 22.529 C 178.764 17.154, 184.808 13.043, 189.243 13.016 L 191.986 13 192.250 78.250 L 192.515 143.500 192.757 71.750 L 193 0 96.500 0 L 0 0 0 72 M 0.474 72.500 C 0.474 112.100, 0.598 128.154, 0.750 108.176 C 0.901 88.198, 0.901 55.798, 0.750 36.176 C 0.598 16.554, 0.474 32.900, 0.474 72.500 M 162.397 116.593 C 162.733 117.469, 163.268 119.381, 163.586 120.843 C 163.903 122.304, 164.524 124.625, 164.965 126 C 165.407 127.375, 166.342 130.412, 167.044 132.750 C 169.032 139.372, 170.202 137.817, 169.677 129.250 C 168.911 116.773, 168.302 115, 164.780 115 C 162.452 115, 161.922 115.354, 162.397 116.593" stroke="none" fill="black" fill-rule="evenodd"/>
</svg>