<svg xmlns="http://www.w3.org/2000/svg" width="192" height="144" viewBox="0 0 192 144" version="1.1">
	<path d="M 0 72 L 0 144 34.841 144 L 69.682 144 70.962 138.250 C 71.666 135.088, 73.565 128.900, 75.182 124.500 C 79.863 111.758, 80.352 109.490, 79.099 106.315 C 78.095 103.772, 78.031 103.741, 78.435 106 C 78.681 107.375, 78.263 109.333, 77.507 110.351 C 76.238 112.059, 76.046 111.883, 75.018 108.068 C 74.207 105.055, 73.444 104.011, 72.203 104.217 C 70.060 104.573, 69.175 99.138, 71.170 97.874 C 72.030 97.329, 71.176 97.025, 68.752 97.015 C 66.097 97.004, 63.617 96.003, 60.244 93.580 C 57.625 91.698, 54.309 89.865, 52.874 89.504 C 51.439 89.144, 49.338 87.596, 48.206 86.064 C 46.736 84.076, 44.911 83.082, 41.832 82.589 C 36.569 81.748, 28.826 78.020, 29.314 76.562 C 29.510 75.978, 31.207 75.477, 33.085 75.450 C 34.963 75.422, 37.816 75.310, 39.424 75.200 L 42.349 75 40.365 72.750 C 37.167 69.123, 36.265 65.903, 36.554 59.157 C 36.843 52.410, 40.207 41.903, 42.756 39.788 C 44.028 38.732, 44.480 38.832, 45.395 40.368 C 46.003 41.388, 47.900 43.691, 49.611 45.486 C 52.465 48.481, 52.781 49.499, 53.431 57.810 C 54.224 67.942, 53.632 69.923, 48.993 72.663 C 47.347 73.636, 46 74.736, 46 75.109 C 46 76.136, 49.140 77.280, 52.512 77.482 C 54.169 77.581, 57.823 79.313, 60.632 81.331 C 66.495 85.543, 67.386 85.792, 66.489 82.966 C 66.081 81.679, 66.974 78.515, 68.922 74.354 C 70.615 70.736, 72 66.436, 72 64.798 C 72 63.059, 72.822 61.130, 73.977 60.160 C 75.456 58.918, 76.484 55.480, 78.062 46.500 C 79.276 39.592, 81.195 32.449, 82.585 29.668 C 85.531 23.773, 85.530 23.814, 82.750 24.039 C 77.540 24.461, 76 24.005, 76 22.038 C 76 19.685, 79.803 9.239, 80.909 8.556 C 82.346 7.668, 89.455 10.152, 94.327 13.244 C 99.991 16.839, 103.896 17.390, 109.785 15.428 C 114.882 13.729, 121 13.554, 121 15.106 C 121 17.126, 117.858 28.487, 117.074 29.298 C 116.650 29.737, 116.759 31.804, 117.317 33.892 C 118.174 37.105, 117.984 38.402, 116.074 42.347 C 114.834 44.909, 113.457 46.782, 113.014 46.509 C 111.803 45.760, 110.988 48.663, 111.100 53.332 C 111.231 58.822, 112.168 61.500, 113.959 61.500 C 114.776 61.500, 115.689 62.819, 116.035 64.500 C 116.374 66.150, 117.850 69.395, 119.314 71.712 C 121.648 75.404, 121.910 76.639, 121.437 81.712 C 121.140 84.895, 121.336 88.146, 121.872 88.936 C 122.525 89.897, 125.601 90.568, 131.174 90.965 C 135.753 91.292, 140.485 92.109, 141.689 92.782 C 143.111 93.577, 144.096 93.654, 144.498 93.003 C 145.436 91.485, 157.268 91.697, 156.759 93.222 C 156.535 93.895, 155.260 94.762, 153.926 95.151 C 152.439 95.583, 153.544 95.745, 156.777 95.567 C 161.330 95.318, 164.112 96.221, 162.808 97.525 C 161.809 98.525, 150.636 100.866, 145.844 101.081 C 142.905 101.212, 140.050 101.651, 139.500 102.055 C 138.950 102.459, 135.575 102.171, 132 101.415 C 128.425 100.660, 124.008 100.032, 122.184 100.021 C 117.441 99.991, 115.081 98.399, 113.048 93.858 C 111.426 90.236, 111.212 90.082, 110.670 92.153 C 110.343 93.404, 110.526 94.707, 111.076 95.047 C 111.744 95.460, 111.745 96.542, 111.077 98.298 C 110.438 99.979, 110.425 101.144, 111.040 101.525 C 111.571 101.853, 111.737 103.790, 111.411 105.829 C 110.953 108.696, 111.608 111.462, 114.300 118.019 C 116.215 122.683, 119.069 130.442, 120.641 135.260 L 123.500 144.020 158 143.760 L 192.500 143.500 192.757 71.750 L 193.013 0 96.507 0 L 0 0 0 72 M 0.474 72.500 C 0.474 112.100, 0.598 128.154, 0.750 108.176 C 0.901 88.198, 0.901 55.798, 0.750 36.176 C 0.598 16.554, 0.474 32.900, 0.474 72.500 M 34 51.382 C 34 52.207, 34.450 53.160, 35 53.500 C 35.550 53.840, 36 53.443, 36 52.618 C 36 51.793, 35.550 50.840, 35 50.500 C 34.450 50.160, 34 50.557, 34 51.382 M 148.007 66.301 C 147.232 67.510, 146.528 70.075, 146.444 72 C 146.204 77.492, 146.074 77.652, 144 75 C 141.428 71.712, 141.466 74.014, 144.071 79.298 C 145.210 81.609, 146.321 84.348, 146.540 85.385 C 147.047 87.791, 146.707 87.614, 152.235 88.338 C 156.735 88.927, 157.047 88.810, 158.504 85.992 C 159.348 84.361, 160.269 81.059, 160.552 78.654 C 161.005 74.804, 160.704 73.895, 158.033 71.035 C 156.365 69.250, 155 66.936, 155 65.894 C 155 63.846, 153.519 63.351, 152.470 65.049 C 152.037 65.750, 151.424 65.767, 150.620 65.099 C 149.771 64.395, 149.002 64.749, 148.007 66.301" stroke="none" fill="black" fill-rule="evenodd"/>
</svg>