<svg xmlns="http://www.w3.org/2000/svg" width="192" height="144" viewBox="0 0 192 144" version="1.1">
	<path d="M 0 72 L 0 144 34.548 144 L 69.095 144 71.584 141.315 C 73.099 139.680, 73.822 138.018, 73.432 137.065 C 73.080 136.204, 72.712 129.200, 72.615 121.500 C 72.466 109.820, 72.135 107.047, 70.615 104.767 C 69.018 102.372, 68.936 101.433, 69.956 97.183 C 71.468 90.879, 74.309 86.300, 78.016 84.192 C 81.282 82.333, 81.559 81.365, 82.489 68.500 C 82.909 62.697, 82.636 59.059, 81.496 55.252 C 80.631 52.366, 80.053 48.766, 80.212 47.252 C 80.492 44.576, 80.347 44.492, 75 44.223 C 66.732 43.806, 66.476 43.567, 69.681 39.259 C 71.219 37.192, 73.270 34.773, 74.238 33.884 C 75.915 32.343, 75.906 32.150, 74.032 29.767 C 71.898 27.055, 72.247 26, 75.275 26 C 76.782 26, 77.096 25.496, 76.677 23.750 C 75.260 17.850, 74.858 14, 75.658 14 C 76.143 14, 78.331 16.272, 80.520 19.050 L 84.500 24.099 89.500 23.415 C 92.250 23.039, 100.893 22.679, 108.708 22.616 L 122.915 22.500 127.533 18 L 132.151 13.500 131.552 17 C 131.222 18.925, 130.569 22.646, 130.102 25.269 C 129.634 27.891, 129.532 30.192, 129.876 30.382 C 130.219 30.571, 133.782 31.516, 137.794 32.481 C 141.805 33.447, 144.932 34.703, 144.742 35.273 C 144.552 35.843, 142.529 36.861, 140.247 37.535 C 137.964 38.209, 135.409 39.448, 134.568 40.289 C 133.727 41.130, 131.118 42.139, 128.770 42.531 C 123.628 43.391, 122.911 44.312, 124.213 48.384 C 124.760 50.098, 125.386 58.792, 125.603 67.704 C 125.980 83.184, 126.113 84.077, 128.592 87.704 C 132.327 93.167, 136 100.636, 136 102.767 C 136 103.775, 135.528 105.072, 134.950 105.650 C 134.222 106.378, 134.211 109.182, 134.916 114.800 C 136.110 124.326, 138.216 130, 140.557 130 C 141.866 130, 142.072 130.578, 141.531 132.731 C 140.702 136.035, 140.736 135.640, 140.882 140.267 L 141 144.034 166.750 143.767 L 192.500 143.500 192.757 71.750 L 193.013 0 96.507 0 L 0 0 0 72 M 0.474 72.500 C 0.474 112.100, 0.598 128.154, 0.750 108.176 C 0.901 88.198, 0.901 55.798, 0.750 36.176 C 0.598 16.554, 0.474 32.900, 0.474 72.500" stroke="none" fill="black" fill-rule="evenodd"/>
</svg>