<svg xmlns="http://www.w3.org/2000/svg" width="192" height="144" viewBox="0 0 192 144" version="1.1">
	<path d="M 0 51.500 C 0 79.825, 0.112 102.994, 0.250 102.988 C 0.388 102.981, 7.250 102.315, 15.500 101.508 C 23.750 100.701, 33.650 100.025, 37.500 100.005 C 41.350 99.985, 45.086 99.598, 45.802 99.143 C 46.519 98.689, 48.545 96.116, 50.306 93.425 L 53.508 88.532 50.579 85.915 L 47.651 83.299 49.996 79.899 C 51.286 78.030, 55.337 73.350, 58.998 69.500 C 65.963 62.176, 72.961 51.984, 81.999 36 C 84.953 30.775, 87.920 25.825, 88.592 25 C 89.264 24.175, 89.968 22.375, 90.157 21 C 90.457 18.817, 90.056 18.437, 87 18 C 85.075 17.725, 82.773 17.050, 81.885 16.500 C 79.528 15.040, 77.057 9.692, 76.347 4.517 L 75.728 0 37.864 0 L 0 0 0 51.500 M 123.661 7.750 C 120.633 22.200, 117.251 36.491, 116.373 38.537 C 115.893 39.658, 112.074 45.733, 107.887 52.037 C 97.552 67.599, 93.387 75.542, 88.936 88.182 L 85.161 98.902 89.330 99.414 C 99.686 100.685, 112 101.097, 112 100.170 C 112 98.639, 125.855 77.873, 129.277 74.274 L 132.345 71.049 129.672 68.572 C 128.203 67.210, 127 65.671, 127 65.153 C 127 64.035, 136.671 50.400, 142.002 44 C 144.064 41.525, 147.772 35.842, 150.241 31.371 C 154.546 23.578, 165 1.762, 165 0.572 C 165 0.258, 156.064 -0, 145.142 -0 L 125.285 -0 123.661 7.750 M 185.381 41.235 C 179.148 53.729, 178.160 56.191, 173.514 70.799 C 170.361 80.712, 167.497 85.861, 164.502 86.999 C 162.466 87.773, 162.252 88.676, 161.739 98.669 C 161.433 104.626, 161.308 109.629, 161.462 109.788 C 161.616 109.946, 165.737 111.156, 170.621 112.478 C 175.504 113.799, 182.200 115.748, 185.500 116.809 L 191.500 118.737 191.769 96.368 C 191.917 84.066, 191.917 63.868, 191.769 51.485 L 191.500 28.971 185.381 41.235 M 120.635 98.073 C 117.090 100.861, 117.311 101.693, 121.750 102.260 C 126.306 102.841, 127.004 102.304, 126.306 98.750 C 125.662 95.463, 124.178 95.286, 120.635 98.073 M 43.607 119.582 C 43.273 120.452, 43 122.220, 43 123.510 C 43 124.801, 42.277 126.580, 41.394 127.463 C 39.026 129.831, 37 127.648, 37 122.727 L 37 118.699 25.790 119.380 C 19.625 119.755, 11.300 120.338, 7.290 120.677 L 0 121.293 0 132.652 L 0 144.010 96.250 143.755 L 192.500 143.500 192.559 131.500 C 192.605 122.225, 192.540 121.600, 192.272 128.750 C 192.081 133.838, 191.501 138, 190.983 138 C 190.464 138, 188.344 137.360, 186.270 136.578 C 178.499 133.648, 150.295 126, 147.262 126 C 146.426 126, 143.999 127.575, 141.868 129.500 C 139.620 131.531, 136.946 133, 135.497 133 C 134.124 133, 133 133.438, 133 133.974 C 133 135.805, 126.768 138.336, 124.992 137.227 C 124.095 136.667, 122.207 136.429, 120.798 136.698 C 116.893 137.445, 116.706 135.750, 119.931 128.830 C 121.553 125.349, 122.570 122.225, 122.190 121.889 C 121.415 121.202, 103.499 119.305, 88.825 118.356 L 79.150 117.730 78.151 121.615 C 77.601 123.752, 76.999 126.400, 76.812 127.500 C 76.270 130.694, 72.568 130.094, 72.184 126.750 C 71.694 122.491, 70.322 123.488, 68.982 129.077 C 66.974 137.446, 62.881 136.979, 62.771 128.367 C 62.704 123.103, 62.641 123.223, 60.215 133.243 C 59.783 135.027, 58.712 136.624, 57.836 136.793 C 55.480 137.247, 52.733 134.051, 53.366 131.592 C 55.060 125.010, 55.226 123.742, 54.318 124.304 C 53.783 124.634, 52.520 127.631, 51.511 130.964 C 49.324 138.188, 48.002 139.606, 44.970 137.984 C 43.359 137.122, 42.983 136.280, 43.488 134.664 C 45.469 128.330, 47.042 120.552, 46.584 119.359 C 45.881 117.527, 44.352 117.641, 43.607 119.582 M 0.382 132.500 C 0.384 139.100, 0.546 141.670, 0.741 138.211 C 0.937 134.752, 0.936 129.352, 0.738 126.211 C 0.540 123.070, 0.380 125.900, 0.382 132.500" stroke="none" fill="black" fill-rule="evenodd"/>
</svg>