<svg xmlns="http://www.w3.org/2000/svg" width="192" height="144" viewBox="0 0 192 144" version="1.1">
	<path d="M 0 72 L 0 144 41.909 144 L 83.818 144 85.032 137.207 C 86.314 130.036, 85.318 115.376, 82.792 104.232 C 81.755 99.659, 81.846 98.210, 83.479 93.232 C 84.514 90.080, 85.985 86.225, 86.749 84.666 C 87.513 83.107, 88.176 80.501, 88.223 78.876 C 88.302 76.093, 92.705 71, 95.031 71 C 95.514 71, 96.216 69.365, 96.591 67.366 C 97.117 64.563, 96.903 63.525, 95.656 62.827 C 93.188 61.446, 88.876 53.488, 89.588 51.630 C 90.008 50.536, 89.681 50, 88.592 50 C 86.055 50, 82.826 44.028, 83.374 40.347 C 84.653 31.747, 92.935 25.270, 103.925 24.273 C 111.821 23.557, 114.323 24.335, 119.513 29.119 C 126.023 35.120, 127.470 40.726, 127.170 58.782 C 127.039 66.637, 127.401 77.632, 127.974 83.216 C 128.547 88.800, 129.042 104.767, 129.074 118.698 L 129.132 144.028 160.816 143.764 L 192.500 143.500 192.757 71.750 L 193.013 0 96.507 0 L 0 0 0 72 M 0.474 72.500 C 0.474 112.100, 0.598 128.154, 0.750 108.176 C 0.901 88.198, 0.901 55.798, 0.750 36.176 C 0.598 16.554, 0.474 32.900, 0.474 72.500" stroke="none" fill="black" fill-rule="evenodd"/>
</svg>