<svg xmlns="http://www.w3.org/2000/svg" width="192" height="144" viewBox="0 0 192 144" version="1.1">
	<path d="M 34 72 L 34 144 113 144 L 192 144 192 72 L 192 0 113 0 L 34 0 34 72 M 107.286 52.714 C 104.499 55.501, 102.323 56.094, 100.951 54.441 C 99.429 52.607, 98.517 52.626, 96.614 54.529 C 94.397 56.746, 95.628 58.766, 100.875 61.522 C 108.557 65.558, 108.778 65.873, 108.632 72.609 C 108.515 77.956, 108.108 79.116, 105.174 82.457 L 101.847 86.243 94.674 85.569 C 90.728 85.199, 83.075 84.207, 77.666 83.365 C 72.257 82.524, 67.589 82.078, 67.292 82.374 C 66.075 83.592, 68.103 86, 70.346 86 C 71.671 86, 73.341 86.706, 74.058 87.570 C 74.774 88.433, 76.206 88.918, 77.240 88.648 C 78.323 88.364, 81.646 89.662, 85.091 91.714 C 88.375 93.670, 91.359 94.975, 91.721 94.612 C 92.422 93.912, 89.183 91.317, 85.021 89.245 C 82.859 88.170, 83.640 88.068, 90.500 88.529 C 102.246 89.319, 105.189 90.007, 105.734 92.091 C 106.117 93.557, 107.403 93.967, 112.355 94.205 C 118.487 94.499, 118.501 94.507, 118.813 97.750 C 119.126 100.990, 120.300 101.941, 121.530 99.951 C 121.975 99.231, 122.605 99.258, 123.545 100.038 C 125.493 101.654, 127.264 100.187, 126.593 97.514 C 125.505 93.179, 133.115 93.529, 149.134 98.548 C 154.957 100.372, 156.449 100.369, 157.976 98.529 C 158.647 97.720, 160.165 97.158, 161.348 97.279 C 163.094 97.458, 163.558 96.898, 163.809 94.309 C 164.062 91.693, 163.372 90.372, 159.977 86.977 L 155.836 82.836 147.240 83.133 C 141.158 83.343, 138.525 83.075, 138.238 82.215 C 138.016 81.547, 137.083 80.997, 136.167 80.994 C 135.250 80.991, 132.813 80.520, 130.750 79.947 C 127.066 78.924, 127 78.819, 127 73.988 C 127 70.055, 126.590 68.851, 124.952 67.974 C 123.516 67.206, 123.091 66.287, 123.532 64.899 C 124.042 63.291, 123.397 62.599, 120.090 61.210 C 117.543 60.140, 116.017 58.845, 116.010 57.750 C 115.998 55.647, 116.865 55.583, 119.397 57.500 C 122.888 60.142, 123.007 57.945, 119.538 54.899 C 115.085 50.990, 109.930 50.070, 107.286 52.714 M 120 73.441 C 120 74.298, 120.450 75, 121 75 C 121.550 75, 122 74.577, 122 74.059 C 122 73.541, 121.550 72.840, 121 72.500 C 120.450 72.160, 120 72.584, 120 73.441 M 109.685 81.528 C 106.459 85.572, 107.230 86.015, 111.500 82.570 C 113.560 80.907, 114.180 79.821, 113.478 79.102 C 112.772 78.380, 111.598 79.130, 109.685 81.528 M 133 83.094 C 133 83.592, 133.900 84, 135 84 C 136.100 84, 137 83.827, 137 83.617 C 137 83.406, 136.100 82.998, 135 82.710 C 133.900 82.423, 133 82.595, 133 83.094" stroke="none" fill="black" fill-rule="evenodd"/>
</svg>