<svg xmlns="http://www.w3.org/2000/svg" width="192" height="144" viewBox="0 0 192 144" version="1.1">
	<path d="M 0 25.250 L 0.001 50.500 16.250 50.514 C 29.538 50.525, 34.395 50.949, 42.898 52.841 C 53.036 55.098, 53.379 55.111, 56.648 53.350 C 60.645 51.198, 61.204 48, 57.582 48 C 50.554 48, 50.373 45.323, 56.985 39.152 C 61.643 34.805, 62.009 34.107, 62.566 28.500 C 62.894 25.200, 63.617 21.295, 64.173 19.822 C 66.171 14.526, 79.084 8.053, 89.236 7.260 L 95.972 6.733 101.353 11.331 L 106.735 15.928 112.711 14.816 C 119.451 13.563, 124 14.280, 124 16.596 C 124 18.260, 120.286 22.194, 115.540 25.557 L 112.638 27.613 115.867 32.307 C 117.643 34.888, 118.624 37, 118.048 37 C 117.472 37, 117 38.350, 117 40 C 117 41.650, 116.662 43.002, 116.250 43.005 C 115.838 43.008, 114.172 44.073, 112.548 45.372 C 109.605 47.727, 109.601 47.743, 111.403 50.493 C 112.562 52.260, 112.839 53.482, 112.175 53.892 C 110.648 54.835, 105 65.915, 105 67.967 C 105 68.937, 104.033 70.960, 102.850 72.463 C 100.380 75.603, 99.744 74.921, 111 81.189 C 115.125 83.486, 119.400 85.395, 120.500 85.432 C 123.429 85.531, 137.928 95.223, 137.967 97.107 C 138.001 98.765, 152.143 111, 154.025 111 C 155.147 111, 160.287 114.471, 162.974 117.043 C 163.861 117.891, 165.217 120.141, 165.989 122.043 C 166.761 123.944, 170.342 129.676, 173.946 134.780 L 180.500 144.060 186.500 143.780 L 192.500 143.500 192.693 71.750 L 192.886 0 96.443 0 L 0 0 0 25.250 M 0.435 26 C 0.435 40.025, 0.575 45.763, 0.747 38.750 C 0.919 31.738, 0.919 20.263, 0.747 13.250 C 0.575 6.238, 0.435 11.975, 0.435 26 M 4.250 60.723 L 1 61.127 1 102.563 L 1 144 38.500 144 L 76 144 75.998 140.750 C 75.996 138.963, 75.481 131.425, 74.853 124 C 74.224 116.575, 73.636 107.800, 73.546 104.500 C 73.292 95.283, 73.167 94.722, 71.500 95.362 C 69.759 96.030, 69.521 91.427, 70.923 84.173 C 71.808 79.594, 71.880 79.689, 66.725 78.558 C 63.583 77.869, 56.376 71.760, 55.519 69.061 C 53.974 64.192, 20.354 58.725, 4.250 60.723 M 109 93.800 C 109 94.240, 109.498 95.098, 110.107 95.707 C 110.716 96.316, 111.570 98.319, 112.005 100.157 L 112.795 103.500 112.898 99.450 C 112.954 97.223, 112.460 94.860, 111.800 94.200 C 110.426 92.826, 109 92.623, 109 93.800 M 131.067 110.874 C 130.294 112.319, 130.516 113.157, 132.032 114.529 C 134.625 116.875, 134.520 117.848, 131.313 121.195 L 128.626 124 135.274 124 C 140.807 124, 142.261 123.636, 143.943 121.831 C 146.333 119.265, 145.946 118.606, 138.660 112.834 C 133.140 108.461, 132.454 108.284, 131.067 110.874 M 155.893 134.360 C 154.433 135.647, 152.984 138.272, 152.598 140.329 L 151.909 144 160.534 144 L 169.159 144 164.330 138.057 C 161.673 134.788, 159.275 132.102, 159 132.088 C 158.725 132.075, 157.327 133.097, 155.893 134.360 M 112.158 141 L 109.940 144 125.220 143.960 C 138.743 143.925, 140.210 143.762, 137.978 142.548 C 135.098 140.980, 121.501 138, 117.230 138 C 115.219 138, 113.721 138.885, 112.158 141" stroke="none" fill="black" fill-rule="evenodd"/>
</svg>