<svg xmlns="http://www.w3.org/2000/svg" width="192" height="144" viewBox="0 0 192 144" version="1.1">
	<path d="M 0 72 L 0 144 80.500 144 L 161 144 160.984 140.250 C 160.970 136.736, 160.647 136.343, 155.851 134 C 149.487 130.891, 147.556 128.182, 148.420 123.577 C 148.774 121.690, 149.494 120, 150.021 119.823 C 150.547 119.645, 151.463 116.870, 152.057 113.656 C 152.650 110.442, 154.677 104.431, 156.560 100.298 C 158.444 96.165, 159.737 92.383, 159.433 91.892 C 159.130 91.401, 159.385 91, 160 91 C 160.615 91, 160.905 90.655, 160.645 90.234 C 160.384 89.813, 160.803 87.032, 161.576 84.054 C 163.405 77.003, 162.109 71.316, 158.464 70.402 C 157.109 70.061, 155.939 69.269, 155.864 68.642 C 155.790 68.014, 155.386 70.756, 154.968 74.735 C 154.444 79.718, 153.408 83.298, 151.640 86.235 C 148.838 90.890, 142.834 98, 141.707 98 C 140.052 98, 141.261 95.511, 144.953 91.316 C 150.763 84.716, 153 79.445, 153 72.357 L 153 66.346 146.635 65.173 C 136.773 63.356, 132.337 63.602, 131.710 66 C 131.099 68.338, 131.831 68.295, 97.586 68.014 C 74.429 67.824, 71.467 67.473, 69.119 64.644 C 68.009 63.306, 68.304 62.785, 71.161 61.043 C 75.076 58.656, 76.767 58.598, 96.205 60.188 C 109.209 61.252, 111.118 61.211, 112.705 59.836 C 115.939 57.035, 124.021 55.839, 138.500 56.016 C 156.446 56.236, 155.481 56.338, 153.571 54.429 C 151.206 52.063, 151.644 51.157, 155.500 50.434 C 158.371 49.895, 159 49.336, 159 47.323 C 159 45.973, 159.466 43.998, 160.035 42.934 C 160.857 41.398, 160.742 41, 159.476 41 C 155.925 41, 159.419 39.013, 164.050 38.399 C 168.502 37.808, 169.244 37.337, 171.193 33.870 C 172.390 31.741, 173.735 30, 174.184 30 C 174.633 30, 175 55.650, 175 87 C 175 137, 175.184 144, 176.500 144 C 177.548 144, 178 142.944, 178 140.500 C 178 137.637, 178.374 137, 180.052 137 C 181.434 137, 182.446 137.982, 183.152 140.006 C 184.213 143.049, 187.096 144.513, 190.671 143.825 C 192.422 143.488, 192.502 140.419, 192.537 71.486 C 192.558 31.894, 192.431 5.012, 192.256 11.750 L 191.938 24 188.711 24 C 186.936 24, 183.371 25.125, 180.788 26.500 C 178.205 27.875, 175.846 29, 175.546 29 C 175.246 29, 175 22.475, 175 14.500 L 175 0 87.500 0 L 0 0 0 72 M 0.474 72.500 C 0.474 112.100, 0.598 128.154, 0.750 108.176 C 0.901 88.198, 0.901 55.798, 0.750 36.176 C 0.598 16.554, 0.474 32.900, 0.474 72.500 M 163.200 42.200 C 161.713 43.687, 161.618 49.646, 163.067 50.541 C 164.587 51.481, 167.079 47.800, 165.892 46.370 C 165.265 45.614, 165.498 45.023, 166.587 44.605 C 167.915 44.095, 167.991 43.695, 166.990 42.488 C 165.495 40.686, 164.769 40.631, 163.200 42.200 M 188 59 C 188 59.550, 188.900 60, 190 60 C 191.100 60, 192 59.550, 192 59 C 192 58.450, 191.100 58, 190 58 C 188.900 58, 188 58.450, 188 59 M 187.614 79.401 C 186.726 81.272, 186.012 84.984, 186.027 87.651 C 186.048 91.537, 186.639 93.195, 189 96 L 191.946 99.500 191.973 87.750 C 191.995 78.389, 191.718 76, 190.614 76 C 189.852 76, 188.502 77.531, 187.614 79.401" stroke="none" fill="black" fill-rule="evenodd"/>
</svg>