<svg xmlns="http://www.w3.org/2000/svg" width="192" height="144" viewBox="0 0 192 144" version="1.1">
	<path d="M 63.755 4.805 C 65.071 18.500, 58.319 35.724, 47.835 45.412 C 35.421 56.884, 13.613 63.060, 1.750 58.464 C 0.100 57.825, 0 60.247, 0 100.893 L 0 144 52.955 144 L 105.909 144 106.495 140.250 C 106.816 138.188, 108.867 130.875, 111.052 124 C 115.938 108.622, 119.882 88.993, 119.250 83.201 C 118.910 80.090, 118.120 78.470, 116.390 77.336 C 114.960 76.399, 114 74.798, 114 73.350 C 114 71.240, 113.744 71.067, 112 72 C 110.778 72.654, 109.319 72.728, 108.250 72.190 C 107.287 71.705, 104.475 71.401, 102 71.514 C 99.525 71.626, 93.900 71.107, 89.500 70.361 C 78.818 68.547, 75.901 68.579, 76.638 70.500 C 77.034 71.531, 76.577 72, 75.174 72 C 72.614 72, 71.362 68.473, 73.156 66.312 C 74.283 64.955, 76.391 64.796, 87.488 65.232 C 100.794 65.754, 103.440 65.521, 102.447 63.915 C 102.136 63.412, 102.535 63, 103.334 63 C 104.133 63, 105.044 62.328, 105.359 61.506 C 105.744 60.503, 107.179 60.061, 109.719 60.160 C 113.812 60.320, 121 58.138, 121 56.735 C 121 56.260, 119.631 54.719, 117.958 53.311 C 116.285 51.903, 115.158 50.509, 115.454 50.212 C 115.750 49.916, 114.598 48.825, 112.893 47.789 C 110.133 46.110, 109.844 45.497, 110.264 42.202 C 110.615 39.443, 110.227 37.940, 108.741 36.301 C 107.536 34.972, 107.003 33.435, 107.394 32.415 C 107.966 30.924, 109.168 30.810, 117.771 31.431 C 123.359 31.834, 128.440 32.741, 129.708 33.562 C 130.923 34.348, 133.901 38.985, 136.326 43.865 C 141.155 53.584, 141.877 58.041, 142.419 81.500 C 142.991 106.273, 143.677 110.328, 149.674 124.389 C 152.697 131.478, 155.418 138.801, 155.720 140.661 L 156.269 144.044 174.384 143.772 L 192.500 143.500 192.825 129 C 193.003 121.025, 192.837 88.737, 192.455 57.250 L 191.761 0 127.527 -0 L 63.294 -0 63.755 4.805 M 0.459 101 C 0.459 124.925, 0.589 134.713, 0.749 122.750 C 0.908 110.788, 0.908 91.213, 0.749 79.250 C 0.589 67.288, 0.459 77.075, 0.459 101" stroke="none" fill="black" fill-rule="evenodd"/>
</svg>