<svg xmlns="http://www.w3.org/2000/svg" width="192" height="144" viewBox="0 0 192 144" version="1.1">
	<path d="M 0 39.120 L 0 78.241 4.750 74.457 C 7.362 72.375, 11.364 68.900, 13.641 66.734 L 17.783 62.797 33.197 70.398 C 49.546 78.461, 52.410 79.127, 61.604 77.003 C 64.100 76.427, 66.946 76.411, 68.870 76.963 C 71.902 77.832, 72.199 77.645, 76.047 72.436 C 78.716 68.823, 81.726 66.159, 85.031 64.485 C 87.764 63.100, 90 61.624, 90 61.206 C 90 59.922, 86.944 56, 85.943 56 C 85.424 56, 85 56.900, 85 58 C 85 60.454, 83.028 60.693, 82.930 58.250 C 82.870 56.758, 82.745 56.793, 82.085 58.483 C 81.446 60.118, 81.182 59.785, 80.583 56.590 C 79.798 52.405, 77.623 49.497, 76.019 50.488 C 75.422 50.857, 75.288 50.412, 75.685 49.378 C 76.192 48.056, 75.956 47.803, 74.674 48.295 C 72.881 48.983, 72.335 47.529, 74 46.500 C 76.198 45.142, 74.869 43.393, 71.568 43.299 C 65.894 43.138, 65.643 42.213, 69.945 37.325 C 73.628 33.141, 73.888 32.463, 73.341 28.473 C 72.514 22.434, 73.634 17.588, 76.701 13.943 C 80.380 9.572, 82.537 9.012, 96.034 8.928 C 109.420 8.844, 111.863 9.667, 115.954 15.637 C 117.592 18.028, 118.635 18.765, 119.358 18.042 C 122.097 15.303, 128.672 18.471, 131.386 23.838 C 134.034 29.072, 134.285 33.822, 132.064 36.646 C 130.944 38.070, 130.242 39.582, 130.504 40.007 C 130.766 40.431, 131.670 44.054, 132.512 48.058 C 133.883 54.577, 133.885 55.870, 132.525 60.419 C 131.029 65.425, 127.066 71.742, 127.022 69.191 C 127.010 68.471, 126.550 68.160, 126 68.500 C 125.450 68.840, 125 68.341, 125 67.392 C 125 66.443, 124.679 65.988, 124.286 66.380 C 123.197 67.469, 120.060 57.058, 120.028 52.250 C 120.008 49.151, 119.594 48, 118.500 48 C 117.638 48, 117 48.902, 117 50.122 C 117 51.852, 116.734 52.025, 115.567 51.056 C 114.049 49.796, 114.334 49.486, 109.209 57.976 C 107.147 61.392, 106.925 61.337, 105.785 57.116 C 105.488 56.019, 105.047 56.095, 103.655 57.487 C 101.198 59.944, 101.921 62.018, 106 64.213 C 107.925 65.248, 111.975 68.779, 115 72.059 C 120.051 77.535, 120.737 77.956, 123.409 77.213 C 125.150 76.729, 128.756 76.907, 132.388 77.655 C 139.815 79.186, 145.205 78.184, 152.924 73.839 C 155.908 72.160, 161.969 69.260, 166.393 67.393 L 174.438 64.001 179.469 68.825 C 188.108 77.110, 191.194 79.300, 192.137 77.813 C 192.595 77.091, 192.976 59.288, 192.985 38.250 L 193 0 96.500 0 L 0 0 0 39.120 M 0.455 39.500 C 0.455 60.950, 0.587 69.583, 0.749 58.684 C 0.911 47.785, 0.910 30.235, 0.748 19.684 C 0.587 9.133, 0.454 18.050, 0.455 39.500 M 117.972 40.052 C 116.630 42.559, 117.052 46.196, 118.750 46.755 C 119.628 47.044, 120 45.803, 120 42.583 C 120 37.507, 119.601 37.008, 117.972 40.052 M 16.038 70.460 L 13.814 72.827 16.448 77.321 L 19.081 81.815 16.934 90.657 C 14.651 100.061, 13.529 102.345, 12.664 99.351 C 12.370 98.333, 11.160 94.167, 9.976 90.093 C 8.305 84.348, 8.061 82.161, 8.890 80.343 C 10.259 77.338, 9.689 77.395, 5.183 80.710 C 3.157 82.200, 1.299 83.564, 1.053 83.740 C 0.806 83.917, 1.324 85.285, 2.203 86.781 C 3.083 88.276, 3.927 90.400, 4.079 91.500 C 4.425 93.992, 2.268 104.896, 0.966 107.236 C 0.435 108.191, 0 116.854, 0 126.486 L 0 144 35.341 144 L 70.682 144 71.942 138.367 C 72.636 135.269, 74.446 129.963, 75.966 126.576 C 79.144 119.492, 79.877 110.973, 77.480 108.983 C 76.666 108.308, 76 108.199, 76 108.741 C 76 112.166, 55.707 126.048, 43.635 130.882 C 34.472 134.551, 30.584 134.755, 24.476 131.884 C 18.154 128.912, 18.079 128, 24.158 128 C 29.488 128, 38 125.457, 38 123.864 C 38 123.389, 37.063 123, 35.917 123 C 34.691 123, 34.008 122.485, 34.257 121.750 C 34.540 120.914, 36.974 120.493, 41.609 120.479 L 48.539 120.459 55.718 114.658 L 62.897 108.858 59.758 100.679 C 56.532 92.277, 56.015 88.542, 57.414 83.750 C 58.213 81.013, 58.194 81, 53.275 81 C 50.557 81, 48.051 81.282, 47.707 81.627 C 47.362 81.972, 47.698 83.450, 48.455 84.912 C 49.647 87.218, 49.574 88.816, 47.903 96.964 C 46.843 102.130, 45.767 106.566, 45.511 106.822 C 44.943 107.390, 44.627 106.573, 41.539 96.543 L 39.089 88.586 41.008 84.248 L 42.927 79.910 38.268 76.955 C 32.060 73.018, 30.449 73.035, 32.507 77.013 C 33.960 79.823, 33.896 80.643, 31.566 89.146 C 30.192 94.162, 28.838 98.496, 28.557 98.776 C 27.921 99.413, 27.559 98.384, 25.024 88.738 C 23.152 81.618, 23.108 80.676, 24.492 77.365 C 26.555 72.428, 26.514 72.303, 22.131 70.067 L 18.261 68.093 16.038 70.460 M 168.750 71.068 C 166.688 72.157, 165 73.236, 165 73.467 C 165 73.697, 165.934 75.469, 167.076 77.404 L 169.152 80.922 167.069 91.135 C 165.923 96.752, 164.775 101.559, 164.517 101.817 C 163.941 102.393, 163.723 101.770, 160.519 90.424 C 158.111 81.893, 158.049 81.126, 159.492 77.674 C 160.336 75.653, 160.683 74.004, 160.263 74.009 C 159.170 74.023, 149 79.938, 149 80.560 C 149 80.846, 149.909 82.861, 151.019 85.038 L 153.039 88.996 150.605 98.579 C 149.267 103.849, 147.919 108.414, 147.610 108.724 C 146.848 109.485, 146.376 107.987, 144.091 97.560 C 142.391 89.801, 142.310 88.195, 143.474 85.408 L 144.816 82.197 141.206 81.776 C 139.221 81.544, 136.615 81.542, 135.416 81.771 C 133.305 82.175, 133.283 82.311, 134.739 86.018 C 136.179 89.684, 136.110 90.219, 133.122 98.477 C 131.405 103.222, 130 107.742, 130 108.521 C 130 109.300, 132.456 111.751, 135.457 113.968 C 140.031 117.347, 141.691 118.002, 145.707 118.015 C 150.781 118.030, 155.536 119.832, 154.888 121.493 C 154.675 122.039, 153.890 122.346, 153.144 122.175 C 152.398 122.004, 151.971 122.457, 152.194 123.182 C 152.856 125.330, 161.119 129, 165.295 129 C 170.070 129, 169.876 130.951, 164.925 132.732 C 160.869 134.192, 153.496 133.485, 150.117 131.312 C 148.807 130.470, 142.711 127.214, 136.571 124.078 C 123.126 117.211, 116.352 112.685, 115.499 109.998 C 114.798 107.789, 113.053 107.286, 112.907 109.250 C 112.497 114.786, 113.641 120.761, 116.500 128 C 118.345 132.675, 120.163 138.188, 120.539 140.250 L 121.223 144 156.611 144 L 192 144 192 123.559 C 192 112.316, 191.612 102.878, 191.137 102.585 C 190.663 102.291, 189.695 99.982, 188.987 97.453 C 187.858 93.421, 187.914 92.404, 189.440 89.205 L 191.180 85.555 188.340 83.228 C 186.778 81.948, 184.678 80.439, 183.674 79.875 C 182.032 78.952, 181.966 79.068, 183.017 81.031 C 183.930 82.738, 183.817 85.425, 182.496 93.357 C 180.863 103.163, 180.418 104.803, 179.630 103.917 C 179.426 103.687, 177.849 98.923, 176.125 93.328 C 172.988 83.150, 172.944 79.389, 175.938 77.538 C 177.622 76.497, 177.173 72.466, 175.171 70.655 C 172.967 68.660, 173.359 68.635, 168.750 71.068 M 63 81.550 C 63 81.852, 63.724 83.500, 64.610 85.213 C 66.009 87.919, 66.070 89.498, 65.070 97.290 C 64.438 102.220, 64.099 106.432, 64.317 106.651 C 64.535 106.869, 65.412 106.779, 66.265 106.452 C 68.241 105.693, 71.442 92.238, 70.046 90.556 C 69.517 89.918, 69.330 88.453, 69.632 87.300 C 70.445 84.188, 68.337 81, 65.465 81 C 64.109 81, 63 81.247, 63 81.550 M 121.565 84.596 C 121.207 86.023, 121.408 87.787, 122.012 88.515 C 122.836 89.508, 122.699 90.069, 121.464 90.760 C 120.065 91.543, 119.981 92.268, 120.903 95.591 C 121.500 97.741, 121.991 100.726, 121.994 102.224 C 121.999 104.265, 122.789 105.357, 125.145 106.575 L 128.290 108.201 127.593 104.851 C 125.812 96.299, 125.734 88.416, 127.397 85.199 L 129.051 82 125.634 82 C 122.789 82, 122.108 82.435, 121.565 84.596" stroke="none" fill="black" fill-rule="evenodd"/>
</svg>