<svg xmlns="http://www.w3.org/2000/svg" width="192" height="144" viewBox="0 0 192 144" version="1.1">
	<path d="M 0 72 L 0 144 42.250 143.998 L 84.500 143.996 86.752 132.300 C 89.678 117.101, 88.266 115.438, 80.500 124.941 C 75.477 131.088, 72.671 132.802, 70.534 131.028 C 68.475 129.320, 68.543 128.982, 71.953 123.904 C 74.670 119.859, 74.789 119.326, 73.436 117.262 C 72.627 116.027, 69.948 108.784, 67.484 101.164 C 64.739 92.683, 62.185 86.573, 60.894 85.406 C 59.082 83.768, 58.871 82.772, 59.394 78.318 C 59.952 73.561, 59.817 73.077, 57.751 72.422 C 56.513 72.029, 53.925 70.714, 52 69.499 C 50.075 68.284, 48.050 67.164, 47.500 67.010 C 43.166 65.794, 40 63.402, 40 61.345 C 40 57.657, 47.469 45.493, 52.268 41.366 C 56.140 38.035, 63.154 34.269, 67 33.456 C 71.657 32.471, 80.209 32.809, 81.426 34.026 C 83.148 35.748, 87.848 35.079, 89.961 32.811 C 92.067 30.551, 92.648 25.572, 91.092 23.115 C 90.520 22.211, 89.332 21.951, 87.677 22.366 C 86.281 22.717, 84.095 22.596, 82.819 22.099 C 79.503 20.806, 74.543 16.034, 72.635 12.300 C 71.736 10.540, 70.373 8.740, 69.608 8.300 C 68.842 7.860, 67.515 5.812, 66.659 3.750 L 65.102 -0 32.551 -0 L 0 0 0 72 M 71.526 2.958 C 70.960 3.874, 74.708 8, 76.107 8 C 76.508 8, 77.548 8.273, 78.418 8.607 C 79.288 8.941, 80 8.776, 80 8.240 C 80 6.770, 72.182 1.897, 71.526 2.958 M 74 11.064 C 74 11.768, 76.033 14.291, 78.518 16.671 C 85.685 23.539, 91.919 21.908, 86.865 14.486 C 84.891 11.587, 83.894 11.013, 80.832 11.007 C 78.814 11.003, 76.452 10.727, 75.582 10.393 C 74.648 10.035, 74 10.310, 74 11.064 M 189.989 28.544 C 188.800 33.504, 188.835 34.264, 190.330 35.758 C 191.890 37.319, 192 36.954, 192 30.214 C 192 26.246, 191.847 23, 191.660 23 C 191.473 23, 190.721 25.495, 189.989 28.544 M 93 25.417 C 93 26.288, 93.713 27, 94.583 27 C 96.349 27, 96.042 24.847, 94.188 24.229 C 93.534 24.011, 93 24.546, 93 25.417 M 85.250 37.031 C 81.771 38.429, 82.454 40.086, 86 38.850 C 87.650 38.275, 89 37.398, 89 36.902 C 89 35.813, 88.213 35.840, 85.250 37.031 M 85.250 40.662 C 83.335 41.435, 83.765 43, 85.893 43 C 86.934 43, 88.045 42.325, 88.362 41.500 C 88.933 40.012, 87.690 39.678, 85.250 40.662 M 75.106 55.500 C 72.689 60.450, 70.351 65.211, 69.911 66.080 C 69.429 67.034, 69.731 68.819, 70.674 70.580 C 71.533 72.186, 72.336 75.975, 72.457 79 C 72.627 83.250, 73.764 86.730, 77.461 94.309 L 82.245 104.118 84.623 101.885 C 87.525 99.158, 87.638 98, 85 98 C 82.602 98, 82.632 98.465, 84.633 92.428 C 86.836 85.780, 87.533 85.212, 90.301 87.813 C 91.581 89.016, 92.995 90, 93.443 90 C 93.891 90, 93.952 85.388, 93.578 79.750 C 92.497 63.434, 92.508 63.465, 87.104 61.140 C 81.878 58.892, 80.188 56.438, 79.777 50.500 L 79.500 46.500 75.106 55.500 M 133.114 54.363 C 132.424 55.194, 132.512 57.166, 133.388 60.542 L 134.676 65.500 140.531 65.224 C 143.751 65.072, 146.606 64.728, 146.874 64.459 C 147.607 63.726, 140.990 57.192, 137.329 55.032 C 134.850 53.569, 133.898 53.418, 133.114 54.363 M 135 67.326 C 135 68.643, 138.146 89.822, 138.522 91.033 C 138.783 91.876, 140.076 97.672, 141.395 103.913 C 142.714 110.154, 146.202 121.721, 149.147 129.618 L 154.500 143.977 173.250 143.988 L 192 144 192 123.904 C 192 105.212, 191.856 103.607, 189.939 100.914 C 188.805 99.322, 187.615 96.401, 187.294 94.424 C 186.558 89.890, 184.755 89.188, 175.394 89.788 C 169.189 90.187, 167.639 89.940, 164.615 88.071 C 159.531 84.929, 156.266 80.636, 154.540 74.824 C 152.304 67.295, 151.865 67, 142.878 67 C 138.545 67, 135 67.147, 135 67.326 M 156.067 75.250 C 157.279 79.493, 159.899 82.966, 163.990 85.750 C 166.624 87.543, 168.688 88, 174.148 88 C 177.917 88, 181 87.588, 181 87.085 C 181 83.732, 162.405 72, 157.092 72 C 155.366 72, 155.247 72.376, 156.067 75.250 M 189.189 95.250 C 190.916 100.428, 192 100.794, 192 96.200 C 192 92.704, 191.673 92, 190.052 92 C 188.299 92, 188.212 92.324, 189.189 95.250" stroke="none" fill="black" fill-rule="evenodd"/>
</svg>