<svg xmlns="http://www.w3.org/2000/svg" width="192" height="144" viewBox="0 0 192 144" version="1.1">
	<path d="M 18.340 12.502 C 17.006 14.024, 16.383 15.747, 16.711 17.002 C 17.367 19.511, 11.186 25.715, 7.181 26.568 C -0.241 28.148, 0 27.636, -0 41.804 C -0 54.079, 0.107 54.752, 2.405 56.910 C 3.727 58.153, 5.098 60.708, 5.451 62.589 C 6.189 66.523, 9.441 69.987, 12.439 70.029 C 14.258 70.055, 14.117 70.407, 11.234 73.029 C 9.438 74.663, 7.413 76.001, 6.734 76.002 C 6.055 76.004, 4.317 78.366, 2.871 81.252 L 0.241 86.500 0.046 115.250 L -0.150 144 26.410 144 L 52.971 144 50.964 138.910 C 47.854 131.017, 46.314 128.442, 43.081 125.721 C 39.064 122.342, 38.121 118.541, 40.925 117.040 C 42.570 116.160, 42.813 115.520, 42.048 114.089 C 41.510 113.085, 41.325 112.008, 41.637 111.697 C 41.948 111.385, 41.680 108.031, 41.041 104.243 C 40.172 99.094, 40.163 95.729, 41.002 90.908 C 42.298 83.467, 41.647 80.945, 37.090 75.755 C 33.943 72.172, 33.975 71, 37.218 71 C 39.503 71, 42 65.581, 42 60.621 C 42 58.728, 41.116 54.336, 40.035 50.863 C 38.079 44.579, 38.079 44.531, 40.046 41.197 C 42.138 37.651, 41.902 36, 39.300 36 C 36.826 36, 27.800 25.925, 28.606 24.064 C 30.605 19.445, 30.221 17.244, 27.096 15.397 C 25.392 14.391, 23.743 12.765, 23.431 11.784 C 22.653 9.331, 20.901 9.578, 18.340 12.502 M 159 27.500 C 159 28.325, 158.550 29, 158 29 C 157.450 29, 157 29.936, 157 31.079 C 157 33.436, 148.924 42, 146.701 42 C 143.972 42, 142.916 44.435, 144.603 46.843 C 146.844 50.044, 144.760 59.165, 140.763 63.645 C 139.512 65.046, 139.222 66.019, 139.925 66.454 C 140.516 66.819, 141 67.943, 141 68.952 C 141 69.961, 141.675 71.045, 142.500 71.362 C 144.844 72.261, 144.274 73.644, 141 75 C 137.601 76.408, 137.325 77.195, 139.573 79.061 C 144.819 83.414, 146.495 94.149, 143 101 C 140.603 105.698, 140.499 107, 142.519 107 C 144.207 107, 143.750 110.449, 141.457 115.013 C 140.762 116.395, 139.687 120.445, 139.068 124.013 C 137.877 130.871, 136.152 139.328, 135.347 142.250 C 134.899 143.878, 136.399 144, 156.933 144 C 169.070 144, 179 143.861, 179 143.690 C 179 141.859, 170.243 117.418, 168.381 114.053 C 166.263 110.225, 166.082 109.216, 167.082 106.803 C 167.720 105.261, 168.589 104, 169.013 104 C 169.436 104, 170.496 102.217, 171.368 100.038 C 172.344 97.598, 174.096 95.484, 175.927 94.538 C 179.765 92.553, 180.599 92.599, 182.924 94.924 C 185.339 97.339, 188.400 99, 190.434 99 C 191.675 99, 192 97.797, 192 93.200 C 192 90.010, 191.511 86.911, 190.913 86.313 C 190.130 85.530, 190.130 85.038, 190.913 84.554 C 191.538 84.167, 192 80.721, 192 76.441 C 192 69.505, 191.855 69, 189.860 69 C 188.683 69, 187.188 69.728, 186.538 70.617 C 185.448 72.107, 185.108 72.107, 182.227 70.617 C 180.507 69.728, 178.289 68.998, 177.300 68.996 C 174.550 68.991, 169.333 65.440, 169.333 63.574 C 169.333 62.662, 170.570 61.186, 172.081 60.293 C 175.346 58.364, 177.077 55.011, 176.314 52.094 C 175.711 49.785, 177.717 44, 179.121 44 C 179.605 44, 180 43.600, 180 43.111 C 180 42.623, 178.385 41.920, 176.410 41.549 C 172.330 40.784, 164 33.721, 164 31.028 C 164 29.387, 161.084 26, 159.671 26 C 159.302 26, 159 26.675, 159 27.500 M 166.445 69.089 C 165.580 70.489, 166.906 72, 169 72 C 171.370 72, 172.440 70.393, 170.766 69.347 C 168.881 68.169, 167.080 68.062, 166.445 69.089 M 176.672 75.044 C 177.944 77.595, 178.434 77.885, 179.698 76.836 C 181.019 75.739, 180.932 75.363, 178.992 73.792 C 175.749 71.166, 174.952 71.596, 176.672 75.044" stroke="none" fill="black" fill-rule="evenodd"/>
</svg>