<svg xmlns="http://www.w3.org/2000/svg" width="192" height="144" viewBox="0 0 192 144" version="1.1">
	<path d="M 90.658 21.675 C 90.296 22.037, 90 23.132, 90 24.108 C 90 26.790, 88.108 27.408, 85.931 25.437 C 83.510 23.246, 82.453 24.109, 84.005 27.009 C 84.986 28.843, 84.822 29.560, 82.970 31.532 C 79.911 34.788, 79.217 41.938, 81.473 46.941 C 83.071 50.483, 92.722 60, 94.717 60 C 96.270 60, 105.692 70.431, 108.064 74.776 C 109.347 77.128, 111.545 79.648, 112.949 80.378 C 123.367 85.792, 132.174 90.934, 135.967 93.818 C 142.684 98.925, 144.259 99.274, 150.277 96.986 C 153.150 95.894, 156.542 95.001, 157.816 95.001 C 163.328 94.999, 165.921 91.099, 161.856 88.923 C 159.739 87.790, 159.752 87.745, 162.856 85.315 C 166.443 82.508, 166.636 81.779, 164.385 79.528 C 162.929 78.072, 162.921 77.744, 164.309 76.206 C 165.156 75.268, 166.165 71.696, 166.552 68.268 C 167.417 60.596, 165.988 57.925, 159.745 55.540 C 155.640 53.973, 154.754 53.995, 143.342 55.942 C 127.947 58.568, 123.686 58.638, 124.358 56.250 C 126.206 49.687, 126.127 48.266, 123.880 47.679 L 121.658 47.098 124.079 45.069 C 125.651 43.752, 126.124 42.770, 125.427 42.270 C 124.837 41.847, 124.064 40.712, 123.708 39.750 C 122.780 37.234, 119.270 37.595, 115.736 40.569 C 112.377 43.395, 110.828 43.318, 103.172 39.948 C 99.217 38.208, 98.866 37.760, 99.111 34.772 C 99.483 30.232, 92.665 19.669, 90.658 21.675 M 188.116 49.266 C 184.599 56.339, 184.208 58.518, 186.621 57.592 C 188.409 56.906, 188.430 56.788, 185.126 65.972 C 184.043 68.982, 183.373 71.795, 183.637 72.222 C 183.902 72.650, 185.891 73, 188.059 73 L 192 73 192 58 C 192 49.750, 191.827 43, 191.616 43 C 191.405 43, 189.830 45.820, 188.116 49.266" stroke="none" fill="black" fill-rule="evenodd"/>
</svg>