<svg xmlns="http://www.w3.org/2000/svg" width="192" height="144" viewBox="0 0 192 144" version="1.1">
	<path d="M 0 72 L 0 144 34.771 144 L 69.542 144 71.830 135.232 C 73.088 130.410, 75.214 123.772, 76.554 120.482 C 79.437 113.404, 79.807 110.085, 77.500 112 C 76.233 113.052, 76 112.847, 76 110.681 C 76 107.907, 74.531 106.331, 73.500 108 C 72.184 110.129, 71 107.715, 71 102.905 C 71 97.941, 70.989 97.924, 66.380 95.949 C 63.840 94.860, 59.677 93.466, 57.130 92.851 C 54.584 92.236, 51.150 90.500, 49.500 88.993 C 47.339 87.020, 45.047 86.093, 41.304 85.680 C 35.567 85.047, 29.677 82.469, 30.223 80.830 C 30.416 80.251, 32.461 79.686, 34.768 79.574 C 40.259 79.308, 40.707 78.675, 37.698 75.431 C 35.429 72.983, 35.222 72.046, 35.486 65.426 C 35.694 60.211, 36.329 57.318, 37.707 55.311 C 39.927 52.078, 42 45.473, 42 41.634 C 42 37.998, 43.913 38.317, 44.666 42.078 C 45.064 44.070, 46.124 45.477, 47.667 46.064 C 48.980 46.563, 50.463 47.990, 50.963 49.235 C 51.499 50.570, 51.914 50.884, 51.972 50 C 52.185 46.766, 54.930 53.673, 54.953 57.500 C 54.988 63.508, 52.412 72.023, 50.061 73.670 C 48.927 74.464, 48 75.763, 48 76.557 C 48 77.351, 47.495 78, 46.878 78 C 46.073 78, 46.088 78.401, 46.931 79.417 C 47.602 80.225, 49.909 80.836, 52.303 80.839 C 54.703 80.843, 58.855 81.945, 62 83.413 C 68.432 86.415, 69.574 86.552, 70.393 84.418 C 71.557 81.386, 70.985 80.703, 68.867 82.595 C 66.744 84.491, 66.738 84.489, 67.468 82 C 67.872 80.625, 69.931 76.306, 72.043 72.402 C 75.450 66.108, 76.105 63.711, 77.829 51.240 C 79.657 38.016, 80.546 35.057, 85.785 24.750 C 85.995 24.337, 85.052 24, 83.690 24 C 80.184 24, 79.669 21.538, 82.047 16.155 C 85.865 7.514, 86.415 7.014, 90.718 8.278 C 92.798 8.889, 96.645 11.149, 99.267 13.302 C 103.509 16.783, 104.446 17.144, 107.767 16.569 C 116.749 15.015, 118.800 14.867, 119.334 15.731 C 119.646 16.236, 119.202 19.316, 118.348 22.575 C 117.141 27.176, 117.040 29.186, 117.897 31.571 C 118.504 33.260, 118.998 35.510, 118.995 36.571 C 118.989 38.824, 114.532 46.548, 113.324 46.398 C 112.871 46.341, 111.712 46.787, 110.750 47.388 C 108.418 48.844, 108.202 58, 110.500 58 C 111.325 58, 112 58.867, 112 59.927 C 112 60.988, 113.054 62.684, 114.342 63.697 C 115.630 64.710, 117.971 67.556, 119.543 70.020 C 121.990 73.854, 122.409 75.538, 122.451 81.700 C 122.478 85.659, 122.950 89.349, 123.500 89.899 C 124.050 90.449, 127.875 91.406, 132 92.027 C 136.125 92.647, 140.625 93.715, 142 94.399 C 144.477 95.633, 154.961 95.760, 156.870 94.580 C 157.416 94.243, 158.156 94.443, 158.515 95.024 C 158.874 95.606, 159.993 95.820, 161 95.500 C 163.325 94.762, 164.170 96.063, 162.661 98.058 C 160.379 101.076, 152.180 102.779, 138 103.179 C 129.885 103.408, 114 97.935, 114 94.910 C 114 94.481, 113.501 92.863, 112.891 91.315 L 111.782 88.500 110.363 93.244 C 109.133 97.352, 109.135 98.361, 110.377 100.762 C 111.166 102.288, 111.577 104.760, 111.291 106.256 C 110.941 108.089, 112.252 112.645, 115.314 120.238 C 117.813 126.432, 120.676 134.317, 121.678 137.760 L 123.500 144.021 158 143.760 L 192.500 143.500 192.757 71.750 L 193.013 0 96.507 0 L 0 0 0 72 M 0.474 72.500 C 0.474 112.100, 0.598 128.154, 0.750 108.176 C 0.901 88.198, 0.901 55.798, 0.750 36.176 C 0.598 16.554, 0.474 32.900, 0.474 72.500 M 51.079 62.583 C 51.127 63.748, 51.364 63.985, 51.683 63.188 C 51.972 62.466, 51.936 61.603, 51.604 61.271 C 51.272 60.939, 51.036 61.529, 51.079 62.583" stroke="none" fill="black" fill-rule="evenodd"/>
</svg>