<svg xmlns="http://www.w3.org/2000/svg" width="192" height="144" viewBox="0 0 192 144" version="1.1">
	<path d="M 0 72 L 0 144 34.750 143.988 L 69.500 143.975 71.750 140.502 C 72.988 138.591, 74 136.159, 74 135.097 C 74 134.035, 74.968 130.991, 76.152 128.333 C 77.972 124.246, 78.271 121.880, 78.092 113 C 77.925 104.701, 77.543 102.241, 76.270 101.266 C 73.017 98.771, 75.006 84.312, 79.318 79.117 C 79.951 78.354, 80.477 77.002, 80.485 76.114 C 80.496 74.930, 81.645 74.417, 84.804 74.190 C 87.462 73.998, 89.327 73.312, 89.678 72.397 C 90.513 70.221, 89.468 69.679, 86.993 71.004 C 83.622 72.808, 80.627 71.461, 76.648 66.354 C 72.546 61.089, 71.748 55.892, 74.750 53.992 C 76.049 53.169, 76.167 52.745, 75.208 52.345 C 74.211 51.928, 74.184 51.483, 75.091 50.390 C 76.032 49.256, 76.561 49.221, 77.757 50.213 C 79.064 51.298, 79.160 50.685, 78.532 45.279 C 77.679 37.924, 78.382 36.131, 81.140 38.627 C 82.970 40.283, 83.245 40.287, 85.945 38.692 C 87.520 37.761, 89.604 37, 90.576 37 C 91.547 37, 93.165 36.255, 94.171 35.345 C 95.941 33.744, 96 35.475, 96 88.845 L 96 144 109 144 C 116.150 144, 122 143.801, 122 143.557 C 122 143.314, 121.056 141.514, 119.901 139.557 C 118.747 137.601, 118.065 136, 118.387 136 C 118.708 136, 118.077 133.733, 116.985 130.963 C 113.832 122.964, 114.405 98.451, 117.715 99.721 C 120.786 100.899, 117.544 86.528, 113.042 79 C 112.548 78.175, 111.901 76.713, 111.604 75.750 C 111.209 74.472, 110.003 74, 107.138 74 C 104.421 74, 103.020 73.495, 102.583 72.357 C 101.665 69.964, 102.301 69.804, 105.801 71.551 C 109.639 73.465, 111.407 72.679, 116.412 66.832 C 120.572 61.972, 121.174 57.373, 118.024 54.521 C 116.937 53.538, 116.288 52.343, 116.583 51.866 C 116.877 51.390, 116.223 51, 115.129 51 C 113.361 51, 113.243 50.639, 114.070 47.757 C 116.194 40.351, 114.430 35.367, 111.104 39.375 C 110.154 40.519, 109.002 40.253, 104.231 37.782 C 101.079 36.150, 97.938 34.351, 97.250 33.785 C 96.343 33.037, 96 28.264, 96 16.378 L 96 0 48 0 L 0 0 0 72 M 115 59 C 115 60.100, 114.550 61, 114 61 C 113.450 61, 113 62.155, 113 63.567 C 113 65.680, 112.645 66.022, 111 65.500 C 109.440 65.005, 109 65.320, 109 66.933 C 109 69.798, 111.145 69.516, 114.191 66.250 C 117.987 62.180, 119.146 59.546, 117.753 58.153 C 116.035 56.435, 115 56.753, 115 59 M 75.113 61.250 C 77.229 65.275, 82.071 69.329, 83.298 68.102 C 84.532 66.868, 82.829 64.504, 80.700 64.495 C 79.981 64.492, 79.629 63.390, 79.822 61.745 C 80.111 59.272, 79.836 59, 77.036 59 C 74.131 59, 74.006 59.146, 75.113 61.250 M 80 117 C 80 118.867, 80.267 119.133, 81.200 118.200 C 82.133 117.267, 82.133 116.733, 81.200 115.800 C 80.267 114.867, 80 115.133, 80 117" stroke="none" fill="black" fill-rule="evenodd"/>
</svg>