<svg xmlns="http://www.w3.org/2000/svg" width="192" height="144" viewBox="0 0 192 144" version="1.1">
	<path d="M 155.500 9.689 C 152.750 11.691, 146.900 16.554, 142.500 20.496 C 138.100 24.438, 132.250 29.155, 129.500 30.979 C 126.750 32.802, 123.312 35.390, 121.860 36.729 C 120.054 38.395, 118.995 38.801, 118.510 38.015 C 118.119 37.384, 118.054 36.613, 118.365 36.302 C 119.265 35.401, 117.065 32, 115.581 32 C 114.840 32, 113.998 32.900, 113.710 34 C 113.279 35.650, 112.339 36.003, 108.344 36.016 C 101.670 36.039, 96.083 39.335, 93.500 44.773 L 91.500 48.984 89.584 46.129 C 86.825 42.017, 84.214 40.632, 78.092 40.031 C 72.817 39.513, 72.620 39.380, 70.047 34.598 C 66.871 28.693, 62.452 25.468, 55.365 23.882 C 50.833 22.868, 49.429 22.946, 45.549 24.428 C 37.560 27.479, 31 37.708, 31 47.113 C 31 57.837, 39.904 65.970, 51.710 66.029 L 57.500 66.059 54 69.240 C 52.075 70.989, 50.618 72.941, 50.763 73.577 C 50.908 74.213, 50.345 75.298, 49.513 75.989 C 47.994 77.250, 47.416 80, 48.671 80 C 49.040 80, 50.137 79.281, 51.108 78.402 C 52.079 77.523, 53.352 77.100, 53.937 77.461 C 55.344 78.330, 55.304 81, 53.885 81 C 53.210 81, 53.428 82.004, 54.437 83.545 C 55.355 84.944, 56.347 88.432, 56.643 91.295 C 57.239 97.056, 58.547 102.291, 60.272 105.812 C 61.126 107.556, 61.109 108.596, 60.202 110.048 C 58.749 112.375, 58.600 119, 60 119 C 60.550 119, 61 120.098, 61 121.441 C 61 122.784, 60.550 124.160, 60 124.500 C 58.398 125.490, 58.847 131.173, 60.688 133.207 C 62.159 134.833, 62.210 135.529, 61.087 138.636 C 60.150 141.228, 60.098 142.498, 60.899 143.299 C 61.700 144.100, 62 143.966, 62 142.807 C 62 141.931, 62.675 140.955, 63.500 140.638 C 64.520 140.247, 65 140.692, 65 142.031 C 65 143.114, 65.499 144, 66.108 144 C 67.425 144, 66.347 138.678, 64.927 138.167 C 64.396 137.976, 64.275 134.888, 64.644 130.917 C 65.100 126.019, 64.953 124, 64.144 124 C 62.738 124, 62.616 119.355, 64 118.500 C 65.300 117.697, 65.300 111.303, 64 110.500 C 62.723 109.711, 62.695 105.307, 63.962 104.524 C 64.491 104.197, 67.979 103.154, 71.712 102.206 L 78.500 100.484 78.871 111.992 C 79.689 137.329, 79.767 136.310, 76.699 140.330 L 73.898 144 107.914 144 L 141.929 144 139.943 139.368 C 137.959 134.739, 137.959 134.735, 139.979 131.311 C 141.091 129.427, 142 126.768, 142 125.403 C 142 122.432, 139.069 116.574, 135.633 112.678 C 132.479 109.103, 131.677 102.319, 132.151 83.241 C 132.494 69.400, 133.168 66.114, 135.067 69.029 C 135.852 70.234, 136.563 69.867, 138.996 67 C 144.773 60.195, 148.111 45.997, 144.616 43.096 C 142.507 41.346, 136.442 41.481, 133.603 43.341 C 128.214 46.872, 128.835 44.720, 135 38.500 C 138.957 34.508, 142.273 32, 143.595 32 C 145.934 32, 155 27.297, 155 26.083 C 155 25.673, 153.841 24.718, 152.425 23.960 C 150.173 22.754, 150.048 22.438, 151.425 21.431 C 152.291 20.798, 153 19.732, 153 19.064 C 153 18.395, 155.051 15.182, 157.558 11.924 C 160.066 8.666, 161.753 6.011, 161.308 6.025 C 160.864 6.038, 158.250 7.688, 155.500 9.689 M 92.543 52.931 C 92.226 53.443, 92.425 54.144, 92.984 54.490 C 93.543 54.835, 94 54.416, 94 53.559 C 94 51.802, 93.400 51.544, 92.543 52.931 M 88.466 66.129 C 85.651 70.877, 76.567 73.307, 70.398 70.961 C 66.928 69.642, 65.741 71.157, 66.452 76 C 66.735 77.925, 67.086 82.050, 67.233 85.167 C 67.380 88.283, 67.808 91.142, 68.185 91.519 C 68.835 92.168, 74.495 90.659, 83.621 87.404 C 87.646 85.967, 87.794 85.748, 90.035 77.877 C 91.564 72.506, 91.979 69.601, 91.280 69.161 C 90.703 68.797, 90.051 67.600, 89.831 66.500 C 89.477 64.730, 89.320 64.687, 88.466 66.129 M 112.985 112.750 C 112.972 114.214, 112.818 114.260, 112.042 113.034 C 110.811 111.087, 109.236 115.141, 108.374 122.474 C 107.503 129.889, 108.576 134.448, 112.153 138.521 C 115.788 142.661, 116.580 142.809, 117.411 139.500 C 117.756 138.125, 118.660 137, 119.420 137 C 120.180 137, 121.740 135.412, 122.885 133.470 L 124.968 129.940 122.340 123.375 C 118.677 114.226, 113.028 107.810, 112.985 112.750 M 60.688 112.646 C 59.216 114.117, 59.990 117.149, 61.750 116.810 C 62.712 116.624, 63.500 115.616, 63.500 114.570 C 63.500 112.580, 61.869 111.464, 60.688 112.646 M 61 128.500 C 61 130.056, 61.567 131, 62.500 131 C 63.433 131, 64 130.056, 64 128.500 C 64 126.944, 63.433 126, 62.500 126 C 61.567 126, 61 126.944, 61 128.500" stroke="none" fill="black" fill-rule="evenodd"/>
</svg>