<svg xmlns="http://www.w3.org/2000/svg" width="192" height="144" viewBox="0 0 192 144" version="1.1">
	<path d="M 44 4.948 C 44 5.985, 43.442 7.019, 42.759 7.247 C 41.864 7.545, 41.997 8.139, 43.237 9.380 C 44.182 10.325, 45.408 11.864, 45.960 12.799 C 46.763 14.161, 47.138 14.236, 47.838 13.173 C 48.319 12.443, 49.423 11.993, 50.291 12.173 C 51.852 12.496, 52.168 11.601, 51.296 9.328 C 51.048 8.684, 51.346 7.221, 51.958 6.078 C 53.227 3.707, 52.126 3.327, 48.934 5.035 C 47.821 5.631, 47 5.676, 47 5.142 C 47 4.632, 46.325 3.955, 45.500 3.638 C 44.494 3.252, 44 3.683, 44 4.948 M 97.537 24.605 C 96.573 25.570, 96.180 26.992, 96.553 28.167 C 96.895 29.244, 96.427 36.959, 95.514 45.312 C 94.073 58.501, 93.568 60.746, 91.677 62.371 C 90.480 63.400, 89.627 64.841, 89.783 65.574 C 89.939 66.307, 89.379 68.549, 88.540 70.558 C 86.902 74.480, 87.370 78.548, 89.603 79.798 C 90.751 80.440, 90.477 83.388, 87.978 97.294 C 83.606 121.624, 82.395 126.287, 80.039 127.872 C 78.531 128.887, 78 130.332, 78 133.422 C 78 135.720, 77.601 138.027, 77.112 138.550 C 76.624 139.072, 75.919 140.512, 75.545 141.750 L 74.865 144 120.933 144 L 167 144 167 141.163 C 167 139.602, 166.109 130.265, 165.019 120.413 L 163.038 102.500 165.519 89.096 C 169.005 70.263, 168.883 59.751, 165.047 48.475 C 163.423 43.700, 161.369 38.686, 160.483 37.334 C 158.062 33.638, 150.447 29.237, 144.122 27.878 C 141.030 27.213, 137.959 26.257, 137.298 25.753 C 136.100 24.838, 131.754 25.856, 125.500 28.516 C 122.009 30.001, 114 36.701, 114 38.137 C 114 38.677, 114.495 38.812, 115.100 38.438 C 115.899 37.944, 115.899 38.319, 115.100 39.814 C 113.210 43.345, 114.004 51.734, 116.105 50.435 C 116.597 50.131, 117 50.355, 117 50.933 C 117 51.510, 116.194 52.486, 115.210 53.101 C 113.707 54.040, 113.484 55.286, 113.824 60.860 C 114.263 68.047, 115.189 70, 118.160 70 C 119.789 70, 120.006 70.561, 119.614 73.750 C 118.972 78.961, 117.967 81.214, 115.370 83.270 C 114.140 84.243, 112.991 86.008, 112.817 87.192 C 111.900 93.419, 108.201 88.147, 105.544 76.825 C 104.812 73.704, 103.208 69.364, 101.981 67.181 C 99.813 63.323, 99.783 62.877, 100.928 51.355 C 101.576 44.835, 102.757 36.876, 103.553 33.669 C 105.344 26.453, 105.344 26.487, 103.429 24.571 C 101.425 22.567, 99.565 22.578, 97.537 24.605 M 93.760 101.250 C 92.257 110.188, 90.866 119.828, 90.668 122.674 C 90.351 127.239, 90.555 127.914, 92.404 128.410 C 97.634 129.814, 97.796 129.563, 96.380 122.250 C 94.742 113.789, 94.642 103.880, 96.161 100.547 C 96.999 98.707, 98.092 98, 100.101 98 C 103.956 98, 104.485 96.559, 102.519 91.412 C 101.139 87.798, 98.649 85, 96.812 85 C 96.636 85, 95.262 92.313, 93.760 101.250" stroke="none" fill="black" fill-rule="evenodd"/>
</svg>