<svg xmlns="http://www.w3.org/2000/svg" width="192" height="144" viewBox="0 0 192 144" version="1.1">
	<path d="M 0 72 L 0 144 44.560 144 L 89.121 144 88.810 140.250 C 88.525 136.805, 88.154 136.391, 84.250 135.155 C 81.912 134.415, 80 133.403, 80 132.905 C 80 132.407, 79.267 132, 78.372 132 C 75.541 132, 66.327 126.117, 63.640 122.594 C 60.832 118.914, 59.381 112.601, 60.405 108.522 C 61.270 105.076, 67.520 98.786, 72.700 96.149 C 76.826 94.048, 84 85.964, 84 83.415 C 84 81.010, 81.954 80.829, 78.410 82.921 C 73.930 85.564, 73.002 85.535, 72.994 82.750 C 72.990 81.293, 71.915 79.890, 69.946 78.769 C 66.580 76.854, 66.605 76.835, 58.456 87 C 56.913 88.925, 53.382 92.862, 50.609 95.750 C 47.837 98.637, 46.115 101, 46.784 101 C 49.229 101, 47.911 102.874, 44.726 103.925 C 42.609 104.624, 40.780 106.252, 39.553 108.531 C 38.254 110.944, 37.331 111.731, 36.628 111.028 C 33.917 108.317, 23.296 110.708, 19.595 114.862 C 17.262 117.481, 14.810 117.723, 15.674 115.250 C 16.424 113.105, 19.843 109.689, 22.855 108.078 C 24.087 107.418, 25.529 105.740, 26.058 104.349 C 26.587 102.957, 28.335 101.322, 29.944 100.715 C 31.552 100.108, 33.084 98.786, 33.348 97.777 C 33.612 96.768, 34.418 96.068, 35.140 96.221 C 35.862 96.375, 36.612 95.453, 36.806 94.174 C 37.022 92.753, 37.667 92.042, 38.465 92.348 C 39.931 92.911, 45 88.082, 45 86.122 C 45 85.425, 48.266 81.524, 52.259 77.453 C 59.542 70.027, 62.309 65.887, 63.441 60.726 C 64.031 58.040, 67.291 56.049, 77.966 51.854 C 79.569 51.225, 80.023 50.632, 79.263 50.163 C 78.620 49.765, 77.803 47.429, 77.447 44.970 C 77.092 42.512, 75.946 39.281, 74.900 37.790 C 72.728 34.693, 72.514 32.160, 74.128 28.618 C 75.074 26.542, 74.912 25.704, 73.128 23.436 C 71.958 21.948, 71 20.425, 71 20.053 C 71 19.680, 73.161 18.431, 75.803 17.278 C 78.444 16.124, 81.199 14.465, 81.925 13.590 C 82.651 12.716, 83.865 12, 84.622 12 C 85.380 12, 86 11.550, 86 11 C 86 9.408, 95.563 9.842, 99.716 11.621 C 106.158 14.381, 106.490 14.637, 106.851 17.102 C 107.044 18.421, 107.667 19.789, 108.236 20.142 C 108.805 20.496, 109.446 24.096, 109.660 28.142 C 110.233 38.929, 110.637 40.264, 112.959 39.022 C 115.686 37.562, 118.701 37.758, 121.473 39.574 C 123.414 40.846, 125.425 41.013, 131.938 40.445 C 136.372 40.058, 140 39.350, 140 38.871 C 140 38.392, 141.463 37.995, 143.250 37.988 C 145.037 37.982, 148.975 37.312, 152 36.500 C 155.025 35.688, 158.581 35.018, 159.903 35.012 L 162.306 35 160 37 C 158.732 38.100, 157.286 39, 156.788 39 C 156.290 39, 156.179 39.481, 156.542 40.068 C 156.905 40.656, 157.869 40.880, 158.685 40.567 C 159.506 40.252, 160.006 40.481, 159.806 41.081 C 159.215 42.856, 141.809 48.993, 140.092 48.031 C 136.971 46.285, 127.945 48.172, 122.773 51.653 C 119.844 53.624, 116.549 55, 114.760 55 L 111.721 55 112.528 60.250 C 112.972 63.138, 113.345 67.525, 113.357 70 C 113.383 75.207, 114.129 75.964, 119.250 75.985 C 121.313 75.993, 123 76.205, 123 76.456 C 123 76.706, 121.848 78.609, 120.439 80.684 L 117.879 84.457 120.196 85.077 C 126.635 86.799, 133.153 91.507, 135.595 96.200 C 136.726 98.374, 136.783 99.935, 135.885 104.200 C 134.499 110.782, 127.589 125.560, 125.528 126.351 C 124.687 126.673, 124 127.408, 124 127.983 C 124 129.081, 117.996 134.920, 116.815 134.971 C 116.438 134.987, 114.863 135.538, 113.315 136.195 C 110.125 137.550, 109.401 137.723, 106.250 137.885 C 104.440 137.977, 104 138.589, 104 141.010 L 104 144.021 148.250 143.760 L 192.500 143.500 192.757 71.750 L 193.013 0 96.507 0 L 0 0 0 72 M 0.474 72.500 C 0.474 112.100, 0.598 128.154, 0.750 108.176 C 0.901 88.198, 0.901 55.798, 0.750 36.176 C 0.598 16.554, 0.474 32.900, 0.474 72.500 M 80.384 43.442 C 79.011 47.019, 81.171 49.807, 83.954 48.049 C 85.200 47.261, 85.211 46.764, 84.035 44.565 C 82.496 41.689, 81.208 41.293, 80.384 43.442 M 79.691 69.653 C 77.933 73.028, 78.860 74.328, 82.159 73.112 C 83.595 72.582, 83.651 72.096, 82.575 69.500 L 81.332 66.500 79.691 69.653" stroke="none" fill="black" fill-rule="evenodd"/>
</svg>