<svg xmlns="http://www.w3.org/2000/svg" width="192" height="144" viewBox="0 0 192 144" version="1.1">
	<path d="M 57.665 26.012 C 56.106 26.485, 54.239 26.645, 53.517 26.368 C 51.709 25.674, 50.647 27.715, 50.231 32.682 C 49.966 35.852, 50.363 37.363, 51.856 38.856 C 52.944 39.944, 53.597 41.070, 53.308 41.359 C 53.018 41.648, 53.726 43.210, 54.879 44.830 C 56.730 47.429, 56.799 47.922, 55.465 49.029 C 54.596 49.750, 54.205 51.072, 54.545 52.141 C 54.869 53.164, 54.660 54, 54.080 54 C 52.436 54, 48 61.669, 48 64.512 C 48 65.915, 48.675 67.322, 49.500 67.638 C 51.430 68.379, 51.523 75.798, 49.637 78.527 C 48.393 80.328, 47.098 85.246, 46.879 89 C 46.831 89.825, 46.205 92.975, 45.487 96 C 44.295 101.029, 41.953 120.481, 40.521 137.250 L 39.944 144 60.040 144 C 78.715 144, 80.097 143.876, 79.601 142.250 C 79.307 141.287, 78.120 133.750, 76.963 125.500 C 74.993 111.463, 72.919 102.064, 69.300 90.772 C 67.798 86.086, 67.812 85.995, 70.892 80.537 C 72.601 77.508, 74 74.361, 74 73.542 C 74 72.724, 72.815 69.552, 71.367 66.494 C 69.919 63.435, 68.990 60.677, 69.303 60.364 C 69.616 60.050, 69.517 58.828, 69.083 57.647 C 66.850 51.577, 66.920 50.237, 69.508 49.587 C 70.878 49.243, 72 48.295, 72 47.481 C 72 46.666, 72.378 46, 72.839 46 C 73.301 46, 74.193 44.871, 74.822 43.491 C 75.770 41.410, 75.585 40.185, 73.733 36.311 C 69.425 27.299, 64.283 24.003, 57.665 26.012 M 189.750 142.083 C 188.076 143.917, 188.087 144, 190 144 C 191.333 144, 192 143.333, 192 142 C 192 139.629, 191.990 139.630, 189.750 142.083 M 184.813 143.683 C 185.534 143.972, 186.397 143.936, 186.729 143.604 C 187.061 143.272, 186.471 143.036, 185.417 143.079 C 184.252 143.127, 184.015 143.364, 184.813 143.683" stroke="none" fill="black" fill-rule="evenodd"/>
</svg>