<svg xmlns="http://www.w3.org/2000/svg" width="192" height="144" viewBox="0 0 192 144" version="1.1">
	<path d="M 0 27.500 L 0 55 14.750 54.999 C 22.863 54.998, 33.140 55.506, 37.588 56.128 C 44.829 57.139, 45.960 57.072, 48.384 55.484 C 52.507 52.783, 51.437 50.472, 46.238 50.847 C 43.164 51.069, 41.836 50.736, 41.414 49.637 C 40.723 47.836, 41.369 46.617, 46 40.970 C 49.468 36.742, 49.497 36.626, 49.149 28.375 L 48.799 20.048 52.649 16.176 C 54.767 14.047, 59.614 10.580, 63.419 8.472 C 72.705 3.327, 77.607 3.186, 84.349 7.866 L 89.198 11.232 96.434 9.084 C 103.859 6.880, 107 7.070, 107 9.723 C 107 11.698, 100.159 21, 98.707 21 C 98.089 21, 99.571 23.025, 102 25.500 C 104.429 27.975, 105.820 30, 105.092 30 C 104.262 30, 103.961 30.743, 104.286 31.985 C 104.616 33.246, 103.746 35.303, 101.903 37.623 C 98.444 41.975, 98.384 42.455, 101.074 44.339 C 102.689 45.471, 102.929 46.201, 102.158 47.646 C 101.613 48.666, 100.443 51.300, 99.558 53.500 C 98.672 55.700, 97.284 58.774, 96.474 60.331 C 95.663 61.888, 95 64.213, 95 65.498 C 95 66.860, 93.917 68.622, 92.402 69.726 L 89.803 71.619 100.152 76.676 C 107.201 80.121, 111.009 81.472, 112.095 80.914 C 113.064 80.417, 114.439 80.618, 115.595 81.426 C 116.643 82.159, 120.359 84.255, 123.853 86.086 C 127.348 87.916, 130.559 90.333, 130.988 91.457 C 131.893 93.823, 147.911 105, 150.398 105 C 154.072 105, 161.603 111.568, 162.633 115.672 C 162.954 116.952, 165.199 120.137, 167.623 122.750 C 173.765 129.372, 183 141.483, 183 142.917 C 183 143.716, 184.567 144.009, 187.750 143.805 L 192.500 143.500 192.695 71.750 L 192.890 0 96.445 0 L 0 0 0 27.500 M 0.439 28 C 0.439 43.125, 0.578 49.313, 0.748 41.750 C 0.917 34.188, 0.917 21.813, 0.748 14.250 C 0.578 6.688, 0.439 12.875, 0.439 28 M 2.750 65.618 C 1.122 66.110, 1 68.868, 1 105.073 L 1 144 37 144 L 73 144 72.963 135.750 C 72.916 125.060, 70.932 115.001, 68.183 111.506 C 66.388 109.223, 66 107.422, 66 101.365 C 66 96.357, 65.634 94.080, 64.856 94.250 C 63.292 94.592, 61.698 88.248, 62.346 84.257 C 62.793 81.501, 62.570 81, 60.897 81 C 56.428 81, 47.263 74.289, 45.820 69.960 C 45.183 68.048, 33.087 66.113, 18.500 65.591 C 10.800 65.316, 3.713 65.328, 2.750 65.618 M 106.079 95.583 C 106.127 96.748, 106.364 96.985, 106.683 96.188 C 106.972 95.466, 106.936 94.603, 106.604 94.271 C 106.272 93.939, 106.036 94.529, 106.079 95.583 M 126.118 104.282 C 124.501 105.899, 124.726 107.080, 127.144 109.653 L 129.287 111.935 126.593 115.467 L 123.898 119 127.199 118.956 C 133.174 118.878, 139.359 117.230, 140.738 115.349 C 141.938 113.714, 141.771 113.236, 139.298 111.219 C 133.193 106.242, 127.274 103.126, 126.118 104.282 M 152.686 127.539 C 151.030 128.995, 149.642 131.434, 149.312 133.464 C 149.004 135.362, 147.961 137.630, 146.994 138.505 C 145.380 139.966, 144.638 139.887, 137.891 137.529 C 133.322 135.933, 126.567 134.604, 120.022 134.014 L 109.500 133.066 107.255 135.783 C 106.020 137.277, 105.008 139.738, 105.005 141.250 L 105 144 139.104 144 L 173.207 144 170.354 140.729 C 168.784 138.930, 165.070 134.655, 162.100 131.229 C 159.130 127.803, 156.430 125.014, 156.100 125.032 C 155.770 125.049, 154.234 126.177, 152.686 127.539" stroke="none" fill="black" fill-rule="evenodd"/>
</svg>