<svg xmlns="http://www.w3.org/2000/svg" width="192" height="144" viewBox="0 0 192 144" version="1.1">
	<path d="M 0 72 L 0 144 94 144 C 145.700 144, 188 143.745, 188 143.434 C 188 143.123, 187.514 141.960, 186.919 140.849 C 185.264 137.757, 186.418 137.639, 189.874 140.548 L 193 143.178 193 71.589 L 193 0 96.500 0 L 0 0 0 72 M 0.474 72.500 C 0.474 112.100, 0.598 128.154, 0.750 108.176 C 0.901 88.198, 0.901 55.798, 0.750 36.176 C 0.598 16.554, 0.474 32.900, 0.474 72.500 M 64.391 34.554 C 60.318 39.894, 60.881 44.979, 66.950 57.686 C 71.559 67.335, 75.853 72.895, 78.750 72.968 C 79.665 72.992, 80 70.445, 80 63.475 C 80 56.776, 80.548 52.391, 81.847 48.694 C 83.177 44.911, 83.387 43.159, 82.597 42.440 C 78.064 38.314, 68.730 31, 67.999 31 C 67.506 31, 65.882 32.599, 64.391 34.554" stroke="none" fill="black" fill-rule="evenodd"/>
</svg>