<svg xmlns="http://www.w3.org/2000/svg" width="192" height="144" viewBox="0 0 192 144" version="1.1">
	<path d="M 0 9.406 L 0 18.812 5.027 19.504 C 8.831 20.027, 10.642 19.809, 12.474 18.609 C 15.270 16.777, 18 17.435, 18 19.939 C 18 21.421, 18.783 21.600, 23.546 21.205 C 29.417 20.718, 31.895 22.202, 31.968 26.250 C 31.986 27.212, 32.406 28, 32.902 28 C 33.398 28, 34.298 29.417, 34.902 31.148 C 35.728 33.518, 35.699 34.658, 34.784 35.761 C 33.786 36.963, 34.190 37.739, 37.034 40.090 C 38.940 41.666, 41.683 44.135, 43.128 45.577 C 44.573 47.020, 47.048 49.048, 48.628 50.084 C 51.497 51.966, 51.500 51.980, 51.608 63.234 C 51.711 73.928, 51.984 75.338, 56.980 91 C 64.432 114.362, 65 116.681, 65 123.743 C 65 129.396, 64.763 130.140, 62.709 130.921 C 61.449 131.400, 59.819 132.514, 59.086 133.396 C 58.173 134.496, 56.102 135, 52.494 135 C 46.899 135, 46.049 135.885, 46.014 141.750 C 46 143.981, 46.126 144, 60.500 144 L 75 144 75 139.467 C 75 136.614, 74.073 133.105, 72.500 130 C 71.125 127.287, 70 123.982, 70 122.656 C 70 121.330, 69.272 119.640, 68.381 118.901 C 67.113 117.849, 66.873 116.339, 67.272 111.941 C 67.917 104.825, 70.358 100.069, 74.088 98.661 C 75.689 98.056, 77 97.210, 77 96.781 C 77 96.351, 77.684 96, 78.519 96 C 79.564 96, 79.894 95.298, 79.577 93.750 C 79.323 92.513, 78.840 87, 78.503 81.500 C 78.166 76, 77.437 69.771, 76.882 67.657 C 76.066 64.550, 76.163 63.592, 77.389 62.657 C 78.485 61.821, 79.025 58.963, 79.335 52.353 L 79.765 43.205 76.133 38.651 C 74.135 36.146, 71.938 34.074, 71.250 34.048 C 70.563 34.022, 70 33.550, 70 33 C 70 32.450, 68.437 32, 66.526 32 C 63.629 32, 62.762 31.459, 61.312 28.750 C 58.990 24.409, 57.034 18.918, 57.015 16.685 C 57.007 15.687, 56.137 12.762, 55.083 10.185 C 54.028 7.608, 52.895 4.263, 52.564 2.750 L 51.962 0 25.981 0 L 0 0 0 9.406 M 0 81.892 L 0 144 14.891 144 L 29.781 144 30.251 140.250 C 30.854 135.444, 29.650 134, 25.038 134 C 22.019 134, 21.102 133.519, 20.153 131.437 C 19.266 129.489, 18.327 128.925, 16.243 129.088 C 9.304 129.629, 8.919 129.376, 9.630 124.750 C 10.351 120.058, 13.067 114.193, 19.025 104.459 C 24.802 95.021, 30.131 84.093, 29.891 82.175 C 29.776 81.254, 30.023 79.282, 30.439 77.793 C 30.855 76.304, 30.737 73.829, 30.177 72.293 C 29.207 69.635, 29.150 69.718, 28.989 74 L 28.820 78.500 27.824 75.028 C 27.011 72.196, 26.659 71.859, 25.909 73.197 C 25.404 74.100, 24.893 76.028, 24.772 77.482 C 24.652 78.936, 23.982 80.600, 23.284 81.180 C 22.427 81.890, 22.222 83.535, 22.653 86.230 C 23.240 89.904, 23.130 90.176, 21.287 89.591 C 18.970 88.856, 17.460 90.319, 16.472 94.256 C 15.570 97.850, 14.322 97.742, 13.500 94 C 13.051 91.954, 12.239 91, 10.946 91 C 8.087 91, 6.216 86.292, 5.764 77.963 C 5.325 69.869, 6.043 66.933, 10.942 56.774 C 14.203 50.012, 14.834 45.812, 13.460 40 C 12.466 35.796, 12.349 35.114, 12.152 32.389 C 12.031 30.704, 11.497 30.373, 9.512 30.753 C 6.464 31.336, 5.095 28.679, 6.930 25.741 C 8.442 23.320, 7.001 21.500, 2.750 20.457 L 0 19.783 0 81.892 M 35.764 67 C 35.359 68.375, 35.035 70.625, 35.044 72 C 35.059 74.198, 35.185 74.286, 36.092 72.728 C 36.659 71.754, 36.983 69.504, 36.812 67.728 C 36.513 64.635, 36.469 64.605, 35.764 67 M 36.261 140.500 C 35.205 143.944, 35.234 144, 38.094 144 C 40.749 144, 41 143.697, 41 140.500 C 41 137.774, 40.595 137, 39.168 137 C 37.945 137, 36.978 138.164, 36.261 140.500" stroke="none" fill="black" fill-rule="evenodd"/>
</svg>