<svg xmlns="http://www.w3.org/2000/svg" width="192" height="144" viewBox="0 0 192 144" version="1.1">
	<path d="M 188.666 64.968 C 187.851 66.601, 186.870 71.716, 186.485 76.334 C 185.719 85.536, 186.690 89, 190.035 89 C 191.891 89, 192 88.253, 192 75.500 C 192 67.878, 191.596 62, 191.073 62 C 190.564 62, 189.480 63.336, 188.666 64.968 M -0 121.350 L 0 144 8.083 144 C 14.103 144, 16.062 143.681, 15.755 142.750 C 15.529 142.063, 14.351 141.354, 13.138 141.176 C 11.664 140.960, 10.163 139.302, 8.608 136.176 C 7.330 133.604, 5.547 130.150, 4.648 128.500 C 2.468 124.501, 2.577 120.147, 5.014 113.964 C 6.122 111.154, 6.709 108.325, 6.319 107.677 C 5.929 107.030, 4.348 104.745, 2.805 102.600 L -0 98.700 -0 121.350 M 190.250 126.662 C 189.563 126.940, 189 128.678, 189 130.524 C 189 132.371, 188.550 134.160, 188 134.500 C 187.450 134.840, 187 136.246, 187 137.625 C 187 139.003, 186.534 141.002, 185.965 142.066 C 185.032 143.809, 185.280 144, 188.465 144 L 192 144 192 135 C 192 130.050, 191.887 126.036, 191.750 126.079 C 191.613 126.122, 190.938 126.385, 190.250 126.662 M 89.665 132.250 C 88.147 135.933, 89.320 136.970, 92.861 135.075 C 94.846 134.012, 95.092 132.537, 93.663 130.250 C 92.368 128.178, 91.079 128.823, 89.665 132.250" stroke="none" fill="black" fill-rule="evenodd"/>
</svg>