<svg xmlns="http://www.w3.org/2000/svg" width="192" height="144" viewBox="0 0 192 144" version="1.1">
	<path d="M 0 72 L 0 144 36 144 C 55.800 144, 71.984 143.662, 71.965 143.250 C 71.945 142.838, 71.309 141.380, 70.551 140.011 C 69.377 137.890, 69.383 137.020, 70.587 134.138 C 71.364 132.278, 72 129.573, 72.001 128.128 C 72.001 126.683, 73.552 120.717, 75.448 114.871 C 77.343 109.025, 78.890 103.400, 78.886 102.371 C 78.881 101.342, 79.183 97.800, 79.556 94.500 L 80.233 88.500 76.367 88.500 C 72.601 88.500, 72.502 88.408, 72.568 85 C 72.606 83.075, 72.968 80.358, 73.374 78.962 C 74.022 76.730, 73.668 76.212, 70.449 74.677 C 67.875 73.450, 66.419 73.237, 65.546 73.962 C 64.654 74.702, 63.784 74.418, 62.463 72.959 C 61.119 71.474, 59.888 71.085, 57.906 71.521 C 56.410 71.849, 54.897 71.642, 54.536 71.059 C 53.703 69.710, 45.471 69.678, 42.976 71.013 C 41.483 71.812, 40.864 71.615, 40.042 70.078 C 38.601 67.387, 38.714 67, 40.941 67 C 42.009 67, 43.165 66.541, 43.512 65.981 C 43.858 65.421, 46.360 63.838, 49.071 62.464 C 51.782 61.090, 54 59.468, 54 58.858 C 54 57.479, 59.678 58.488, 61.794 60.244 C 62.610 60.921, 64.296 61.342, 65.541 61.179 C 66.846 61.008, 68.375 61.655, 69.152 62.707 C 69.893 63.710, 71.734 65.075, 73.243 65.741 C 75.723 66.835, 76.141 66.714, 77.602 64.484 C 78.491 63.127, 79.649 62.283, 80.174 62.608 C 80.700 62.932, 82.626 62.918, 84.455 62.574 C 87.985 61.912, 89.806 58.677, 87.925 56.410 C 87.380 55.753, 87.193 53.743, 87.510 51.943 C 87.882 49.829, 87.637 48.394, 86.816 47.886 C 84.669 46.559, 85.293 39.448, 87.861 35.974 C 89.437 33.842, 89.986 32.081, 89.580 30.461 C 89.139 28.705, 89.515 27.795, 91.012 26.994 C 92.128 26.396, 93.512 26.198, 94.087 26.554 C 94.662 26.909, 95.724 26.393, 96.445 25.406 C 97.683 23.713, 97.904 23.707, 100.326 25.294 C 101.739 26.220, 103.536 26.732, 104.319 26.431 C 105.101 26.131, 106.011 26.586, 106.340 27.443 C 106.668 28.299, 107.826 29, 108.912 29 C 111.300 29, 114 32.583, 114 35.754 C 114 37.024, 114.675 38.322, 115.500 38.638 C 116.325 38.955, 117.003 40.403, 117.007 41.857 C 117.019 46.865, 114.652 60, 113.737 60 C 113.233 60, 111.976 61.012, 110.944 62.250 C 109.911 63.487, 109.052 63.938, 109.033 63.250 C 109.015 62.563, 108.550 62, 108 62 C 107.440 62, 107 64.752, 107 68.257 C 107 71.846, 105.939 78.349, 104.512 83.507 C 101.233 95.362, 101.295 97.229, 105.077 100.411 C 106.769 101.835, 108.534 103, 109 103 C 109.466 103, 111.231 104.165, 112.923 105.589 C 116.929 108.960, 117.190 114.433, 113.549 118.759 C 111.106 121.663, 111.103 121.697, 112.464 130.086 C 113.215 134.714, 114.143 139.743, 114.526 141.262 L 115.223 144.023 153.861 143.762 L 192.500 143.500 192.757 71.750 L 193.013 0 96.507 0 L 0 0 0 72 M 0.474 72.500 C 0.474 112.100, 0.598 128.154, 0.750 108.176 C 0.901 88.198, 0.901 55.798, 0.750 36.176 C 0.598 16.554, 0.474 32.900, 0.474 72.500 M 89.711 58.999 C 89.074 61.433, 90.323 62.350, 93.082 61.474 C 95.047 60.850, 95.063 60.728, 93.418 58.909 C 91.220 56.480, 90.364 56.501, 89.711 58.999" stroke="none" fill="black" fill-rule="evenodd"/>
</svg>