<svg xmlns="http://www.w3.org/2000/svg" width="192" height="144" viewBox="0 0 192 144" version="1.1">
	<path d="M 63.938 4.750 C 63.791 15.982, 60.444 30.557, 57.439 33.051 C 56.648 33.707, 56 34.830, 56 35.545 C 56 36.259, 52.962 39.943, 49.250 43.729 C 41.716 51.414, 31.619 56.993, 22 58.787 C 16.441 59.823, 2.840 59.637, 0.999 58.499 C 0.340 58.092, -0 72.528, -0 100.941 L 0 144 53.878 144 L 107.757 144 108.896 136.339 C 109.523 132.126, 111.148 125.038, 112.507 120.589 C 116.641 107.062, 120.613 80, 118.465 80 C 118.170 80, 116.884 80.685, 115.606 81.523 C 114.327 82.360, 110.325 83.664, 106.711 84.420 C 98.653 86.106, 98 86.492, 98 89.559 C 98 92.629, 94.569 92.932, 93 90 C 90.865 86.010, 95.435 82.317, 106.904 78.762 C 111.017 77.488, 111.317 77.154, 111.458 73.708 C 111.559 71.236, 112.475 69.107, 114.233 67.259 C 115.676 65.742, 117.166 63.251, 117.544 61.724 C 117.921 60.197, 119.074 58.496, 120.105 57.944 C 122.450 56.689, 122.211 55.601, 118.754 51.809 C 117.243 50.152, 116.247 48.409, 116.540 47.935 C 116.833 47.461, 116.157 46.157, 115.036 45.036 C 112.752 42.752, 112.493 40.816, 114.077 37.856 C 114.892 36.333, 114.771 35.037, 113.577 32.521 C 112.710 30.693, 112 28.928, 112 28.599 C 112 26.991, 120.326 28.381, 126.500 31.020 C 127.600 31.490, 129.441 32.135, 130.592 32.454 C 134.001 33.400, 136.798 37.168, 138.049 42.500 C 138.694 45.250, 140.072 49.425, 141.111 51.777 C 142.150 54.129, 143.003 57.504, 143.008 59.277 C 143.012 61.050, 143.908 65.425, 145 69 C 146.650 74.404, 146.986 78.409, 146.992 92.750 C 146.997 103.588, 146.628 110, 146 110 C 144.035 110, 145.084 113.233, 151.005 125.430 C 154.308 132.233, 157.291 139.205, 157.635 140.923 L 158.259 144.046 175.380 143.773 L 192.500 143.500 192.825 129 C 193.003 121.025, 192.837 88.737, 192.455 57.250 L 191.761 0 127.880 0 L 64 0 63.938 4.750 M 0.459 101 C 0.459 124.925, 0.589 134.713, 0.749 122.750 C 0.908 110.788, 0.908 91.213, 0.749 79.250 C 0.589 67.288, 0.459 77.075, 0.459 101 M 133 84.941 C 133 86.623, 133.450 88, 134 88 C 134.550 88, 135 86.902, 135 85.559 C 135 84.216, 134.550 82.840, 134 82.500 C 133.417 82.139, 133 83.156, 133 84.941" stroke="none" fill="black" fill-rule="evenodd"/>
</svg>