<svg xmlns="http://www.w3.org/2000/svg" width="192" height="144" viewBox="0 0 192 144" version="1.1">
	<path d="M 95 2 C 95 3.100, 95.422 4, 95.938 4 C 96.454 4, 96.878 4.787, 96.880 5.750 C 96.882 6.713, 97.371 9.750, 97.967 12.500 C 100.475 24.093, 95.904 45.859, 88.543 57.366 C 86.705 60.238, 82.794 65.199, 79.851 68.391 C 74.056 74.676, 59.915 85, 57.102 85 C 56.145 85, 52.919 85.729, 49.932 86.619 C 46.944 87.510, 43.825 88.375, 43 88.543 C 42.175 88.710, 41.388 88.938, 41.250 89.048 C 41.112 89.159, 40.550 89.362, 40 89.500 C 39.450 89.638, 38.663 89.835, 38.250 89.939 C 35.375 90.663, 18.218 89.635, 15.657 88.584 C 13.921 87.872, 9.688 86.390, 6.250 85.292 L 0 83.295 0 113.648 L 0 144 90.369 144 L 180.738 144 180.290 140.127 C 179.991 137.536, 180.696 133.894, 182.421 129.127 C 188.739 111.668, 189.864 108.234, 190.657 104 C 191.280 100.673, 191.647 105.104, 192.064 121 C 192.455 135.919, 192.537 132.398, 192.333 109.500 C 192.171 91.350, 192.070 71.708, 192.109 65.852 C 192.186 54.246, 190.886 50.409, 186.674 49.810 C 184.890 49.556, 184.445 48.735, 184.192 45.237 C 183.982 42.336, 183.104 40.195, 181.442 38.533 C 180.099 37.190, 179 35.673, 179 35.162 C 179 33.911, 182.586 33.030, 187.750 33.014 L 192 33 192 16.500 L 192 0 143.500 0 C 95.667 0, 95 0.027, 95 2 M 0.445 113.500 C 0.444 130.550, 0.581 137.666, 0.748 129.312 C 0.915 120.959, 0.915 107.009, 0.748 98.312 C 0.582 89.616, 0.445 96.450, 0.445 113.500" stroke="none" fill="black" fill-rule="evenodd"/>
</svg>