<svg xmlns="http://www.w3.org/2000/svg" width="192" height="144" viewBox="0 0 192 144" version="1.1">
	<path d="M 63.755 4.805 C 65.054 18.318, 58.343 35.765, 48.255 45.103 C 45.048 48.071, 40.191 51.625, 37.462 53 C 34.733 54.375, 32.275 55.783, 32 56.129 C 31.725 56.475, 27.533 57.541, 22.683 58.500 C 14.372 60.142, 7.692 60.128, 2.250 58.457 L 0 57.767 0 100.883 L 0 144 53.386 144 L 106.773 144 107.483 139.250 C 107.874 136.638, 109.908 129.098, 112.004 122.495 C 116.815 107.333, 120.010 90.164, 119.254 83.521 C 118.827 79.766, 118.056 78.046, 116.114 76.521 C 114.697 75.410, 113.145 74.628, 112.664 74.785 C 112.183 74.942, 111.274 74.691, 110.645 74.227 C 110.015 73.763, 108.600 73.527, 107.500 73.703 C 106.400 73.878, 103.906 74.280, 101.957 74.596 C 99.888 74.931, 95.936 74.462, 92.457 73.468 C 85.162 71.382, 81.146 71.417, 79.565 73.580 C 78.456 75.097, 78.234 75.091, 76.638 73.495 C 75.121 71.979, 75.082 71.507, 76.319 69.634 C 78.151 66.857, 80.493 66.658, 92.233 68.280 C 101.945 69.622, 101.970 69.620, 103.983 67.305 C 105.092 66.029, 106 64.586, 106 64.099 C 106 63.012, 108.484 62, 111.154 62 C 113.248 62, 122.005 57.279, 121.994 56.155 C 121.990 55.795, 120.640 54.733, 118.994 53.797 C 117.347 52.860, 116 51.397, 116 50.547 C 116 49.696, 115.395 49, 114.655 49 C 112.100 49, 109.715 45.270, 110.435 42.401 C 110.961 40.307, 110.527 39.115, 108.445 36.942 C 106.980 35.413, 106.082 33.676, 106.450 33.081 C 106.855 32.426, 110.938 32.001, 116.809 32.004 C 128.128 32.008, 131.341 33.385, 134.504 39.583 C 135.602 41.735, 137.625 45.263, 139 47.423 C 142.174 52.410, 143.105 61.254, 143.377 89 L 143.577 109.500 149.815 123.754 C 153.245 131.594, 156.323 139.366, 156.655 141.026 L 157.259 144.045 174.880 143.773 L 192.500 143.500 192.825 129 C 193.003 121.025, 192.837 88.737, 192.455 57.250 L 191.761 0 127.527 -0 L 63.294 -0 63.755 4.805 M 0.459 101 C 0.459 124.925, 0.589 134.713, 0.749 122.750 C 0.908 110.788, 0.908 91.213, 0.749 79.250 C 0.589 67.288, 0.459 77.075, 0.459 101" stroke="none" fill="black" fill-rule="evenodd"/>
</svg>