<svg xmlns="http://www.w3.org/2000/svg" width="192" height="144" viewBox="0 0 192 144" version="1.1">
	<path d="M 0 72 L 0 144 40.352 144 L 80.704 144 81.547 135.750 C 82.682 124.636, 82.185 91.214, 80.847 88.714 C 79.850 86.852, 79.562 86.980, 76.009 90.867 C 71.830 95.439, 69.486 95.936, 63.636 93.492 C 61.652 92.663, 57.686 91.483, 54.824 90.869 C 49.812 89.794, 46.107 87.004, 46.033 84.250 C 46.015 83.563, 45.242 83, 44.316 83 C 41.155 83, 34.310 78.976, 33.154 76.438 C 31.641 73.118, 31.685 70.727, 33.250 71.254 C 33.938 71.486, 35.048 70.961, 35.718 70.088 C 36.819 68.652, 36.939 68.665, 36.968 70.219 C 36.990 71.385, 37.519 71.738, 38.615 71.317 C 39.915 70.819, 40.091 71.137, 39.517 72.947 C 38.888 74.929, 39.067 75.113, 41.027 74.492 C 42.365 74.067, 43.014 74.168, 42.657 74.747 C 41.861 76.035, 46.559 78.106, 51.500 78.646 C 53.700 78.886, 57.875 80.189, 60.777 81.541 C 63.680 82.894, 66.830 84, 67.777 83.999 C 69.523 83.998, 75 75.504, 75 72.799 C 75 72.025, 76.575 69.866, 78.500 68 C 80.425 66.134, 82 63.999, 82 63.254 C 82 62.510, 83.565 60.289, 85.478 58.320 C 87.391 56.350, 88.710 54.340, 88.409 53.853 C 88.108 53.366, 87.440 53.228, 86.924 53.547 C 85.579 54.378, 79.438 47.568, 79.816 45.665 C 80.019 44.646, 79.194 43.836, 77.532 43.419 C 76.071 43.052, 74.262 41.473, 73.406 39.818 C 72.034 37.164, 72.043 36.388, 73.496 32.013 C 74.383 29.340, 75.786 26.592, 76.613 25.906 C 77.572 25.111, 78.005 23.359, 77.809 21.079 L 77.500 17.500 82.122 17.651 C 86.511 17.794, 86.853 17.606, 88.936 13.901 C 90.169 11.706, 91.887 10, 92.864 10 C 93.819 10, 95.129 9.471, 95.776 8.824 C 98.296 6.304, 105.407 16.558, 104.846 21.902 C 104.673 23.552, 105.436 25.739, 106.782 27.451 C 109.767 31.245, 111.652 37.986, 113.534 51.597 C 114.971 61.987, 117.292 70.397, 121.433 80.218 C 123.319 84.692, 123.462 88.092, 121.750 87.750 C 120.919 87.584, 120.606 88.507, 120.817 90.500 C 120.992 92.150, 121.172 95.075, 121.218 97 C 121.338 102.009, 117.964 118.223, 116.432 120.002 C 115.651 120.909, 114.856 125.967, 114.426 132.764 L 113.714 144.023 153.107 143.762 L 192.500 143.500 192.757 71.750 L 193.013 0 96.507 0 L 0 0 0 72 M 0.474 72.500 C 0.474 112.100, 0.598 128.154, 0.750 108.176 C 0.901 88.198, 0.901 55.798, 0.750 36.176 C 0.598 16.554, 0.474 32.900, 0.474 72.500" stroke="none" fill="black" fill-rule="evenodd"/>
</svg>