<svg xmlns="http://www.w3.org/2000/svg" width="192" height="144" viewBox="0 0 192 144" version="1.1">
	<path d="M 67.673 5.989 C 66.094 7.662, 65.387 9.121, 65.978 9.486 C 69.489 11.656, 57.830 21.385, 51.919 21.217 C 47.495 21.091, 46.699 23.631, 49.609 28.596 C 51.615 32.019, 51.864 33.227, 51.022 35.441 C 49.378 39.766, 49.821 42.515, 52.656 45.573 C 54.116 47.149, 55.715 50.235, 56.208 52.430 C 57.286 57.227, 58.612 59, 61.122 59 C 64.227 59, 63.219 60.301, 56.967 64.366 C 51.965 67.618, 51.110 68.590, 51.585 70.484 C 52.215 72.991, 50.893 81.122, 48.545 89.193 C 47.179 93.887, 46.452 94.804, 42.250 97.132 C 39.638 98.580, 36.375 100.107, 35 100.526 C 33.625 100.945, 31.150 102.303, 29.500 103.544 C 27.187 105.284, 24.669 105.928, 18.500 106.358 C 14.100 106.664, 8.784 107.212, 6.687 107.574 C 3.358 108.150, 2.804 107.965, 2.320 106.117 C 2.016 104.953, 1.357 104, 0.857 104 C 0.339 104, 0.066 110.325, 0.223 118.684 L 0.500 133.367 15 138.678 L 29.500 143.989 66.312 143.995 L 103.124 144 108.674 141.375 C 113.223 139.223, 114.542 138.005, 115.989 134.625 C 118.099 129.698, 118.526 121.659, 116.753 120.264 C 114.445 118.448, 108.412 118.169, 97.577 119.380 L 86.827 120.581 85.020 117.041 C 84.026 115.093, 82.263 112.641, 81.103 111.591 L 78.992 109.683 81.945 107.887 C 85.655 105.631, 87.062 100.764, 86.865 90.871 C 86.785 86.817, 87.206 80.821, 87.801 77.546 C 88.596 73.171, 88.578 70.452, 87.734 67.296 C 86.607 63.080, 86.505 63, 82.293 63 C 76.872 63, 76.763 61.451, 82.071 59.860 C 85.210 58.920, 86.585 57.775, 88.071 54.860 C 90.516 50.069, 90.490 48.423, 87.851 40.797 C 85.821 34.932, 85.793 34.426, 87.351 31.712 C 89.381 28.174, 89.430 27, 87.550 27 C 86.752 27, 85.641 26.213, 85.080 25.250 C 84.519 24.288, 84.047 23.896, 84.030 24.379 C 83.994 25.429, 76.002 17.835, 76.001 16.750 C 76 16.337, 76.626 16, 77.392 16 C 78.157 16, 79.089 14.780, 79.464 13.289 C 80.201 10.350, 78.504 8.416, 74.250 7.348 C 73.013 7.037, 72 6.184, 72 5.451 C 72 2.924, 70.374 3.126, 67.673 5.989 M 72.500 14 C 72.840 14.550, 73.568 15, 74.118 15 C 74.668 15, 74.840 14.550, 74.500 14 C 74.160 13.450, 73.432 13, 72.882 13 C 72.332 13, 72.160 13.450, 72.500 14 M 183.032 23.357 C 183.011 24.584, 182.495 25.020, 181.512 24.643 C 180.694 24.329, 180.072 24.393, 180.130 24.786 C 180.537 27.516, 179.575 29.289, 176.750 31.017 C 174.963 32.110, 172.961 32.801, 172.301 32.553 C 171.642 32.305, 170.824 32.979, 170.484 34.051 C 170.144 35.123, 169.446 36, 168.933 36 C 167.264 36, 167.949 39.644, 169.961 41.465 C 171.334 42.707, 171.903 44.479, 171.858 47.370 C 171.823 49.641, 172.513 53.525, 173.391 56 C 174.941 60.368, 174.925 60.544, 172.846 62 C 171.667 62.825, 169.307 63.990, 167.602 64.589 C 164.220 65.775, 162.978 68.743, 165.155 70.434 C 165.910 71.020, 167.335 72.762, 168.323 74.305 C 169.767 76.562, 169.922 77.736, 169.113 80.305 C 168.560 82.062, 167.562 86.379, 166.895 89.897 C 165.818 95.578, 165.867 96.430, 167.336 97.504 C 168.867 98.623, 168.870 99.079, 167.379 103.607 C 166.247 107.046, 165.621 113.774, 165.273 126.250 L 164.777 144 178.354 144 L 191.930 144 191.958 86.095 C 191.985 29.908, 191.930 28.206, 190.106 28.683 C 189.072 28.953, 187.923 28.685, 187.554 28.087 C 187.184 27.489, 187.376 27, 187.980 27 C 188.687 27, 188.619 26.501, 187.789 25.601 C 187.080 24.831, 186.319 24.374, 186.099 24.585 C 185.878 24.796, 185.105 24.188, 184.381 23.234 C 183.141 21.602, 183.062 21.609, 183.032 23.357 M 46.750 106.173 C 43.587 107.889, 41 109.677, 41 110.146 C 41 111.381, 46.760 111.198, 47.538 109.938 C 47.899 109.354, 49.276 108.466, 50.597 107.963 C 52.042 107.414, 53 106.243, 53 105.025 C 53 103.911, 52.888 103.012, 52.750 103.027 C 52.612 103.041, 49.913 104.457, 46.750 106.173" stroke="none" fill="black" fill-rule="evenodd"/>
</svg>