<svg xmlns="http://www.w3.org/2000/svg" width="192" height="144" viewBox="0 0 192 144" version="1.1">
	<path d="M 0 35.371 L 0 70.742 4.750 69.873 C 13.487 68.275, 23.416 64.932, 33.213 60.291 L 42.925 55.690 49.706 61.595 C 53.436 64.843, 60.742 71.889, 65.944 77.253 C 76.830 88.481, 81.674 91, 92.377 91 C 98.286 91, 98.756 90.828, 99.915 88.250 C 103.585 80.087, 107.206 76.024, 113.631 72.861 C 120.828 69.318, 122.229 68.002, 118.809 67.996 C 117.539 67.994, 115.083 67.129, 113.352 66.073 C 111.621 65.017, 109.142 64.270, 107.843 64.413 C 105.757 64.642, 105.484 64.261, 105.491 61.137 C 105.499 57.907, 105.248 57.598, 102.579 57.551 C 100.137 57.508, 99.237 58.244, 97.079 62.044 C 93.846 67.741, 89.877 73, 88.812 73 C 88.365 73, 88 72.073, 88 70.941 C 88 69.809, 87.597 69.131, 87.105 69.435 C 85.693 70.308, 85 67.359, 85 60.477 C 85 56.980, 84.550 53.840, 84 53.500 C 83.450 53.160, 83 51.784, 83 50.441 C 83 48.981, 82.420 48, 81.557 48 C 79.660 48, 77.005 44.151, 77.683 42.385 C 77.975 41.622, 80.211 40.116, 82.651 39.036 C 90.495 35.567, 92.705 33.456, 93.409 28.760 C 94.415 22.048, 99.308 14.404, 104.262 11.804 C 107.808 9.944, 110.148 9.574, 118.590 9.540 C 128.185 9.502, 129.015 9.672, 135.540 13 C 143.628 17.126, 146.214 20.737, 146.545 28.368 C 146.667 31.191, 146.820 33.826, 146.884 34.224 C 147.023 35.094, 152.361 38.080, 156.423 39.561 L 159.347 40.627 154.656 43.996 C 151.474 46.281, 150.292 47.692, 150.982 48.382 C 152.656 50.056, 152.147 50.840, 149.572 50.557 C 147.742 50.356, 146.998 50.871, 146.553 52.645 C 146.228 53.940, 145.535 55, 145.012 55 C 144.490 55, 144.314 55.653, 144.620 56.452 C 145.503 58.753, 144.145 60.148, 142.093 59.050 C 139.983 57.920, 137.875 59.511, 138.685 61.622 C 139.289 63.196, 137.437 63.516, 136.500 62 C 135.536 60.441, 133 60.826, 133 62.531 C 133 63.374, 133.688 64.327, 134.530 64.650 C 135.469 65.010, 135.838 65.936, 135.485 67.046 C 135.025 68.496, 136.232 69.486, 141.554 72.026 C 147.845 75.028, 148.357 75.538, 151.215 81.647 L 154.234 88.097 167.867 87.506 C 175.365 87.180, 184.041 86.201, 187.146 85.330 L 192.793 83.746 192.934 41.873 L 193.075 0 96.538 0 L 0 0 0 35.371 M 0.451 36 C 0.451 55.525, 0.585 63.513, 0.748 53.750 C 0.912 43.988, 0.912 28.013, 0.748 18.250 C 0.585 8.488, 0.451 16.475, 0.451 36 M 37.750 64.572 C 34.598 66.282, 34.191 69.220, 36.494 73.636 C 38.855 78.163, 38.340 81.061, 32.843 94.186 C 27.265 107.506, 27.234 107.567, 26.514 106.848 C 25.634 105.967, 23.760 81.091, 24.386 78.596 C 24.724 77.253, 26.232 74.689, 27.740 72.898 C 30.840 69.214, 31.230 69.199, 19.813 73.199 C 16.135 74.487, 12.813 75.854, 12.432 76.235 C 12.050 76.616, 12.472 78.475, 13.369 80.365 C 14.266 82.256, 15 84.824, 15 86.073 C 15 88.228, 5.743 110.075, 3.686 112.774 C 2.039 114.935, 1.619 113.309, 0.958 102.215 C 0.483 94.243, 0.278 98.221, 0.160 117.750 L 0 144 46.981 144 L 93.962 144 94.380 141.750 C 94.610 140.512, 95.748 135.225, 96.909 130 C 100.132 115.495, 101.503 101.929, 99.849 100.906 C 98.788 100.251, 98.770 99.830, 99.758 98.842 C 100.441 98.159, 101 97.349, 101 97.043 C 101 96.589, 91.013 96.183, 91.003 96.636 C 91.001 96.710, 91.672 98.060, 92.494 99.636 C 94.958 104.360, 94.836 104.932, 87.023 125.343 C 85.793 128.557, 84.443 130.807, 84.023 130.343 C 83.257 129.498, 81 111.402, 81 106.104 C 81 104.550, 82.132 101.610, 83.517 99.571 C 84.901 97.531, 85.802 95.489, 85.520 95.032 C 84.932 94.082, 75.109 91.558, 74.473 92.194 C 74.243 92.424, 74.496 94.214, 75.037 96.170 C 75.899 99.293, 75.451 101.244, 71.380 112.114 C 68.829 118.926, 66.381 124.896, 65.941 125.380 C 64.969 126.448, 64.313 122.800, 62.983 108.934 C 61.923 97.885, 62.650 94.195, 66.521 90.983 C 67.334 90.308, 68 89.071, 68 88.235 C 68 86.490, 59.330 76, 57.888 76 C 57.325 76, 57.189 77.955, 57.559 80.750 C 58.107 84.897, 57.594 86.959, 53.518 97 C 50.950 103.325, 48.490 108.871, 48.050 109.325 C 46.980 110.429, 46.225 105.691, 45.404 92.715 C 44.807 83.270, 44.954 81.500, 46.589 78.465 C 47.615 76.559, 48.754 75, 49.120 75 C 49.486 75, 50.075 74.246, 50.429 73.324 C 50.870 72.175, 49.740 70.292, 46.828 67.324 C 42.142 62.550, 41.715 62.421, 37.750 64.572 M 1 80.223 L 1 84.445 2.709 81.973 C 3.649 80.613, 4.999 78.905, 5.709 78.179 C 7.568 76.275, 7.352 76, 4 76 C 1.140 76, 1 76.197, 1 80.223 M 184.157 89.995 C 179.141 91.181, 178.575 92.255, 180.930 96.116 C 182.064 97.977, 182.994 100.351, 182.996 101.391 C 183 103.195, 176.138 125.987, 175.295 126.971 C 174.266 128.172, 173.122 123.835, 171.480 112.495 L 169.695 100.181 171.814 96.591 L 173.933 93 166.466 93 C 162.360 93, 158.998 93.338, 158.995 93.750 C 158.992 94.162, 159.706 96.525, 160.581 99 C 162.160 103.467, 162.141 103.593, 158.086 116.298 C 154.815 126.543, 154 130.584, 154 136.548 L 154 144 173 144 L 192 144 192 132.453 C 192 125.144, 191.236 116.637, 189.918 109.275 C 187.936 98.209, 187.901 96.526, 189.536 91.250 C 190.302 88.778, 189.801 88.661, 184.157 89.995" stroke="none" fill="black" fill-rule="evenodd"/>
</svg>