<svg xmlns="http://www.w3.org/2000/svg" width="192" height="144" viewBox="0 0 192 144" version="1.1">
	<path d="M 53.500 24.892 C 50.437 25.358, 49.469 25.969, 49.366 27.500 C 49.293 28.600, 48.930 30.644, 48.560 32.043 C 48.082 33.847, 48.485 35.346, 49.943 37.201 C 51.075 38.639, 52 40.246, 52 40.773 C 52 41.299, 52.974 42.969, 54.165 44.483 C 56.165 47.025, 56.200 47.309, 54.621 48.192 C 53.513 48.812, 53.127 49.825, 53.524 51.074 C 53.860 52.133, 53.673 53, 53.110 53 C 51.747 53, 47 61.177, 47 63.523 C 47 64.540, 47.960 66.393, 49.133 67.641 C 51.006 69.636, 51.138 70.373, 50.217 73.706 C 46.918 85.636, 46.015 89.162, 44.635 95.500 C 43.257 101.827, 39.988 125.363, 38.628 138.750 L 38.094 144 58.931 144 L 79.768 144 78.491 137.250 C 77.790 133.537, 76.682 126.225, 76.030 121 C 74.951 112.355, 73.488 105.596, 69.655 91.551 C 68.400 86.951, 68.470 86.180, 70.652 80.611 C 73.368 73.681, 73.515 71.800, 71.622 68.154 C 69.507 64.082, 68.372 60.941, 67.134 55.736 C 65.669 49.581, 65.701 49, 67.500 49 C 68.325 49, 69 48.341, 69 47.535 C 69 46.730, 69.870 45.605, 70.932 45.036 C 71.995 44.467, 73.140 43.135, 73.476 42.074 C 74.524 38.774, 71.065 30.264, 67.351 27.004 C 63.804 23.889, 61.953 23.607, 53.500 24.892 M 172.068 124.937 C 171.281 125.435, 169.931 128.691, 169.068 132.171 C 167.705 137.672, 167.173 138.539, 165 138.797 C 161.139 139.254, 157.201 141.034, 156.603 142.592 C 156.151 143.771, 158.989 144, 174.031 144 C 191.333 144, 192 143.926, 192 142 C 192 140.900, 191.374 140, 190.608 140 C 188.706 140, 187.776 135.678, 188.557 130.470 L 189.205 126.150 185.352 125.081 C 180.661 123.778, 174.013 123.706, 172.068 124.937" stroke="none" fill="black" fill-rule="evenodd"/>
</svg>