<svg xmlns="http://www.w3.org/2000/svg" width="192" height="144" viewBox="0 0 192 144" version="1.1">
	<path d="M 83.791 71.028 C 74.542 72.470, 68.472 76.439, 63.473 84.313 C 61.742 87.040, 61.500 87.106, 55.530 86.466 C 48.301 85.692, 34.525 87.507, 31.135 89.681 C 29.191 90.927, 28.866 91.789, 29.311 94.531 C 30.028 98.947, 35.919 108.015, 42.915 115.471 C 51.500 124.620, 51.208 123.995, 49.508 129.599 C 47.548 136.062, 47.668 138.227, 49.780 134.500 L 51.480 131.500 51.801 134.198 C 51.978 135.682, 51.681 138.494, 51.142 140.448 C 50.056 144.380, 51.301 145.289, 53.608 142.250 C 54.873 140.583, 54.938 140.583, 54.968 142.250 C 54.998 143.889, 57.703 144, 97.500 144 L 140 144 140.052 141.750 L 140.105 139.500 141.674 141.750 C 143.562 144.456, 146.392 144.818, 145.585 142.250 C 143.472 135.524, 141.125 124.606, 141.621 123.805 C 141.949 123.273, 143.556 122.025, 145.190 121.031 C 148.071 119.279, 150.708 115.955, 159.026 103.595 C 163.718 96.623, 164.301 91.887, 160.750 89.592 C 157.933 87.771, 140.695 85.806, 134.721 86.625 C 130.496 87.204, 130.151 87.065, 128.384 84.074 C 125.801 79.700, 117.611 74.351, 110.831 72.609 C 103.250 70.660, 90.810 69.933, 83.791 71.028" stroke="none" fill="black" fill-rule="evenodd"/>
</svg>