<svg xmlns="http://www.w3.org/2000/svg" width="192" height="144" viewBox="0 0 192 144" version="1.1">
	<path d="M -0 72.005 L -0 144.010 96.250 143.755 L 192.500 143.500 192.757 71.750 L 193.013 0 96.507 0 L 0 0 -0 72.005 M 0.474 72.500 C 0.474 112.100, 0.598 128.154, 0.750 108.176 C 0.901 88.198, 0.901 55.798, 0.750 36.176 C 0.598 16.554, 0.474 32.900, 0.474 72.500 M 113.634 28.727 C 111.582 29.034, 110.454 29.985, 109.665 32.078 C 109.058 33.685, 108.294 35, 107.968 35 C 107.641 35, 106.081 33.650, 104.500 32 C 102.919 30.350, 101.319 29, 100.943 29 C 98.471 29, 96.411 66.816, 98.756 69.153 C 99.165 69.561, 99.630 64.856, 99.788 58.697 C 100.071 47.715, 101.445 37.516, 102.976 35.039 C 103.943 33.474, 109 36.476, 109 38.615 C 109 39.377, 109.614 40, 110.364 40 C 111.229 40, 111.961 41.698, 112.364 44.640 C 113.632 53.889, 113.287 55.243, 108 61.805 C 105.250 65.218, 103 68.818, 103 69.805 C 103 70.792, 102.490 72.110, 101.867 72.733 C 99.937 74.663, 101.556 76.466, 106.376 77.756 C 111.937 79.243, 112.833 82.005, 107.750 81.991 C 100.404 81.972, 80.434 79.863, 64.033 77.375 C 47.747 74.904, 45.693 74.798, 33.639 75.806 C 26.530 76.401, 20.260 77.340, 19.708 77.892 C 17.764 79.836, 28.449 92.329, 32.375 92.702 C 39.002 93.332, 47.229 96.087, 50.671 98.827 C 54.844 102.149, 63.450 106.695, 68.079 108.023 C 70.180 108.625, 73.498 108.176, 79.907 106.419 C 87.170 104.429, 89.338 104.184, 91.657 105.090 C 93.992 106.002, 109.178 107.508, 124.613 108.356 C 126.325 108.450, 128.441 109.121, 129.315 109.846 C 131.482 111.645, 134.017 110.644, 138.470 106.229 C 146.851 97.919, 164 69.414, 164 63.794 C 164 59.348, 161.429 60.425, 157.543 66.500 C 154.603 71.096, 153.547 72, 151.122 72 C 148.522 72, 132.003 75.904, 127.867 77.496 C 126.578 77.992, 126.144 77.359, 125.811 74.503 C 125.548 72.254, 125.861 70.618, 126.637 70.183 C 127.591 69.650, 127.288 67.832, 125.356 62.492 C 122.245 53.894, 121.393 48.493, 122.993 47.504 C 123.643 47.103, 124.675 47.275, 125.287 47.887 C 126.665 49.265, 129 49.345, 129 48.013 C 129 47.471, 127.481 46.392, 125.625 45.617 C 123.620 44.779, 121.587 42.879, 120.619 40.938 C 119.165 38.024, 119.152 37.490, 120.494 36.006 C 121.322 35.091, 122 33.815, 122 33.171 C 122 31.798, 118.343 27.932, 117.250 28.150 C 116.838 28.232, 115.210 28.492, 113.634 28.727" stroke="none" fill="black" fill-rule="evenodd"/>
</svg>