<svg xmlns="http://www.w3.org/2000/svg" width="192" height="144" viewBox="0 0 192 144" version="1.1">
	<path d="M 117.696 21.130 L 112.892 25.248 110.696 23.247 C 106.815 19.712, 102.069 18.833, 92.199 19.823 C 80.938 20.952, 76.860 23.180, 74.436 29.528 C 73.349 32.374, 72.915 35.556, 73.232 38.362 C 73.693 42.459, 73.460 42.999, 69.691 46.549 L 65.655 50.349 69.061 53.192 C 70.934 54.756, 73.050 55.811, 73.764 55.537 C 74.477 55.263, 75.544 56.100, 76.135 57.396 C 76.980 59.251, 76.843 60.311, 75.489 62.376 C 73.958 64.713, 73.943 65, 75.354 65 C 76.445 65, 76.733 65.544, 76.281 66.750 C 75.709 68.278, 75.838 68.327, 77.301 67.137 C 78.733 65.973, 79.066 66.008, 79.593 67.382 C 79.932 68.265, 80.616 68.737, 81.112 68.430 C 81.609 68.124, 82.752 68.609, 83.651 69.509 C 84.694 70.551, 86.143 70.930, 87.644 70.553 C 88.988 70.216, 90 70.409, 90 71.002 C 90 72.234, 87.326 73.333, 80.500 74.905 C 74.859 76.204, 71.938 79.048, 69.362 85.750 C 67.783 89.858, 67.581 90, 63.332 90 C 57.262 90, 52.875 87.933, 46.739 82.183 C 43.858 79.483, 39.621 76.102, 37.324 74.671 C 35.027 73.240, 33.002 71.154, 32.824 70.037 C 32.549 68.310, 31.450 68.989, 25.500 74.562 C 18.603 81.021, 8.128 88.622, 2.750 91.069 C 0.549 92.071, 0 92.988, 0 95.661 C 0 98.453, 0.368 99.002, 2.250 99.012 C 3.488 99.019, 6.510 100.173, 8.967 101.577 L 13.434 104.130 17.544 99.392 C 21.885 94.389, 24.643 93.920, 25.712 98.005 C 26.381 100.564, 27.620 100.562, 28.290 98 C 28.588 96.859, 29.654 96, 30.770 96 C 33.017 96, 38 100.592, 38 102.662 C 38 103.817, 38.498 103.794, 40.950 102.526 C 45.557 100.143, 49.487 100.611, 53.347 104 C 55.226 105.650, 57.053 107, 57.406 107 C 57.759 107, 60.338 105.425, 63.136 103.500 C 65.935 101.575, 68.819 100, 69.545 100 C 71.538 100, 72.402 103.765, 72.102 111.139 C 71.809 118.308, 72.153 118.879, 77.413 119.945 C 79.817 120.433, 80.569 121.162, 80.812 123.242 C 81.009 124.925, 80.423 126.514, 79.226 127.538 C 77.562 128.963, 77.436 129.851, 78.203 134.743 C 78.780 138.420, 78.724 140.676, 78.039 141.361 C 77.468 141.932, 77 142.760, 77 143.200 C 77 143.640, 87.134 144, 99.520 144 L 122.041 144 119.926 139.855 C 118.248 136.565, 118.030 135.231, 118.869 133.388 C 119.739 131.478, 119.518 130.573, 117.622 128.283 C 114.494 124.505, 113.651 121, 115.871 121 C 116.797 121, 118.602 120.266, 119.883 119.370 C 122.077 117.833, 122.172 117.324, 121.533 110.513 C 120.969 104.486, 121.134 103.009, 122.527 101.615 C 123.867 100.276, 123.956 99.652, 122.977 98.472 C 120.181 95.103, 129.268 98.828, 135.594 103.644 C 139.322 106.482, 139.491 106.493, 142.846 104.131 C 147.480 100.868, 149.379 100.768, 153.502 103.566 C 156.855 105.841, 157.439 105.967, 158.214 104.582 C 159.332 102.584, 164.259 100, 166.950 100 C 168.352 100, 169 100.650, 169 102.056 C 169 103.930, 169.211 103.866, 171.385 101.338 C 173.486 98.896, 173.972 98.732, 175.459 99.966 C 176.387 100.736, 178.022 103.084, 179.093 105.183 C 181.305 109.518, 180.989 109.420, 187 107.628 C 191.382 106.322, 191.517 106.158, 192.162 101.393 C 192.527 98.702, 192.797 95.150, 192.763 93.500 C 192.701 90.526, 192.697 90.524, 192.284 93.250 C 192.055 94.762, 191.518 96, 191.092 96 C 189.860 96, 178.704 84.011, 174.575 78.250 C 172.506 75.362, 170.513 73, 170.147 73 C 169.781 73, 168.989 73.788, 168.387 74.750 C 167.785 75.713, 165.567 77.122, 163.458 77.883 C 161.349 78.643, 156.257 81.343, 152.142 83.883 L 144.660 88.500 134.985 88.523 L 125.311 88.546 123.405 83.628 C 121.022 77.476, 118.052 75.229, 110.730 74.037 C 107.563 73.522, 104.506 72.813, 103.937 72.461 C 102.482 71.562, 104.948 68.766, 106.628 69.411 C 107.347 69.687, 108.206 69.475, 108.537 68.940 C 108.868 68.405, 109.587 68.245, 110.136 68.584 C 110.685 68.924, 111.388 68.231, 111.699 67.044 C 112.038 65.746, 112.808 65.096, 113.631 65.412 C 114.384 65.701, 115 65.453, 115 64.862 C 115 64.270, 115.704 64.056, 116.565 64.387 C 117.767 64.848, 117.984 64.524, 117.498 62.994 C 117.031 61.523, 117.322 61, 118.607 61 C 120.128 61, 120.068 60.701, 118.132 58.640 C 116.199 56.583, 116.069 55.943, 117.118 53.640 C 117.780 52.188, 118.876 51, 119.554 51 C 122.195 51, 122.050 47.661, 119.281 44.726 L 116.500 41.777 120 42.498 C 121.925 42.895, 123.950 43.282, 124.500 43.360 C 125.050 43.437, 125.636 41.630, 125.803 39.345 C 126.043 36.046, 126.558 35.070, 128.303 34.604 C 133.355 33.256, 133.525 32.431, 129.673 27.931 C 127.669 25.590, 125.748 22.173, 125.403 20.337 C 125.059 18.502, 124.265 17.003, 123.639 17.006 C 123.012 17.010, 120.338 18.866, 117.696 21.130 M 0.252 95.500 C 0.263 97.700, 0.468 98.482, 0.707 97.238 C 0.946 95.994, 0.937 94.194, 0.687 93.238 C 0.437 92.282, 0.241 93.300, 0.252 95.500" stroke="none" fill="black" fill-rule="evenodd"/>
</svg>