<svg xmlns="http://www.w3.org/2000/svg" width="192" height="144" viewBox="0 0 192 144" version="1.1">
	<path d="M -0 33.061 L -0 66.121 6.750 65.544 C 10.463 65.227, 22.725 64.287, 34 63.456 C 54.503 61.944, 90.722 58.492, 96.640 57.485 C 99.213 57.047, 99.860 56.404, 100.225 53.922 C 100.768 50.218, 98.904 48.971, 91 47.750 C 78.224 45.776, 70.790 45.459, 68.866 46.806 C 67.209 47.967, 66.878 47.848, 66.119 45.813 C 65.103 43.093, 66.280 39.411, 69.141 36.356 C 70.808 34.577, 70.945 33.884, 69.944 32.282 C 68.972 30.726, 69.069 29.657, 70.446 26.756 C 72.108 23.253, 80.214 15.039, 86.982 10 C 88.829 8.625, 92.176 5.824, 94.420 3.775 L 98.500 0.050 76.304 0.025 L 54.108 0 55.636 5.147 C 57.078 10.002, 57.046 10.604, 55.082 15.736 C 51.560 24.940, 52.731 32.623, 58.110 35.604 C 60.382 36.863, 60.396 36.931, 58.398 36.965 C 57.242 36.984, 54.767 35.977, 52.898 34.727 C 48.351 31.685, 45.813 24.562, 46.647 17.182 C 47.124 12.957, 46.763 10.646, 44.891 5.932 L 42.535 0 21.267 0 L 0 0 -0 33.061 M 120 0.524 C 120 0.812, 121.575 3.338, 123.500 6.136 C 127.545 12.016, 127.738 12.994, 125 13.710 C 123.181 14.186, 123 15.074, 123 23.528 C 123 32.784, 122.987 32.833, 119.754 35.554 C 116.746 38.085, 116.508 38.733, 116.504 44.393 C 116.500 50.694, 115.919 52.010, 112.500 53.461 C 108.473 55.170, 113.729 55.186, 122.231 53.490 C 136.635 50.618, 177.117 41.096, 188.250 37.962 L 192 36.906 192 18.453 L 192 0 156 0 C 136.200 0, 120 0.236, 120 0.524 M 183.507 92.737 C 179.111 97.557, 171.911 104.775, 167.507 108.778 C 160.002 115.599, 158.841 116.270, 149 119.464 C 143.225 121.338, 136.812 123.581, 134.748 124.450 C 132.685 125.318, 127.735 126.703, 123.748 127.527 C 119.762 128.352, 112.764 129.934, 108.199 131.044 C 100.748 132.854, 97.830 132.999, 79.699 132.456 C 62.092 131.929, 57.956 131.478, 47.469 128.936 C 33.810 125.625, 18.264 119.835, 7.398 114.010 L 0 110.043 0 127.027 L 0 144.010 96.250 143.755 L 192.500 143.500 192.750 131.500 C 192.887 124.900, 192.662 111.507, 192.250 101.737 L 191.500 83.975 183.507 92.737 M 0.411 127 C 0.411 136.625, 0.561 140.563, 0.745 135.750 C 0.928 130.938, 0.928 123.062, 0.745 118.250 C 0.561 113.438, 0.411 117.375, 0.411 127" stroke="none" fill="black" fill-rule="evenodd"/>
</svg>