<svg xmlns="http://www.w3.org/2000/svg" width="192" height="144" viewBox="0 0 192 144" version="1.1">
	<path d="M 119.500 45.784 C 117.850 46.824, 115.882 48.424, 115.128 49.338 C 114.099 50.584, 112.086 51, 107.088 51 C 103.421 51, 97.859 51.667, 94.729 52.482 C 90.674 53.538, 88.294 53.682, 86.454 52.982 C 77.061 49.411, 64.250 55.232, 51.514 68.857 C 41.123 79.974, 37.386 88.291, 38.292 98.285 C 38.718 102.979, 39.382 104.799, 41.328 106.603 C 43.342 108.471, 43.927 108.633, 44.382 107.447 C 44.691 106.641, 45.294 106.097, 45.722 106.237 C 46.150 106.378, 48.117 105.257, 50.094 103.747 C 52.071 102.236, 54.159 101, 54.735 101 C 55.310 101, 56.838 103.995, 58.130 107.656 C 59.610 111.846, 61.132 114.483, 62.240 114.773 C 63.208 115.026, 64 115.631, 64 116.117 C 64 116.602, 64.566 117, 65.257 117 C 67.129 117, 66.230 132.267, 63.976 138.750 C 62.973 141.637, 62.455 143.995, 62.826 143.989 C 63.197 143.983, 65.075 141.754, 67 139.036 C 68.925 136.318, 70.838 134.073, 71.250 134.047 C 73.026 133.936, 71.781 138.619, 69.365 141.141 L 66.729 143.892 109.615 143.968 L 152.500 144.044 152.162 128.022 C 151.976 119.210, 152.102 112, 152.441 112 C 152.780 112, 155.731 113.350, 159 115 C 166.619 118.846, 168.347 118.793, 170.918 114.632 C 177.323 104.269, 167.060 78.493, 147.620 56.118 C 139.781 47.095, 135.847 44.650, 128.500 44.232 C 123.910 43.972, 121.795 44.336, 119.500 45.784" stroke="none" fill="black" fill-rule="evenodd"/>
</svg>