<svg xmlns="http://www.w3.org/2000/svg" width="192" height="144" viewBox="0 0 192 144" version="1.1">
	<path d="M 0 72 L 0 144 34.889 144 L 69.777 144 70.448 140.250 C 70.816 138.188, 72.914 131.174, 75.110 124.664 C 77.797 116.695, 78.784 112.445, 78.129 111.656 C 76.711 109.947, 74.031 101.868, 74.015 99.250 C 74.004 97.551, 73.417 97, 71.619 97 C 70.310 97, 66.249 95.875, 62.596 94.500 C 58.943 93.125, 55.149 92, 54.164 92 C 53.180 92, 51.138 90.710, 49.628 89.134 C 47.474 86.886, 45.700 86.146, 41.400 85.702 C 35.703 85.114, 29.411 82.225, 30.102 80.515 C 30.321 79.974, 32.498 79.401, 34.941 79.241 C 37.383 79.082, 39.588 78.746, 39.839 78.494 C 40.091 78.243, 38.681 75.963, 36.706 73.429 C 33.396 69.180, 33.155 68.417, 33.616 63.660 C 33.891 60.822, 34.641 56.475, 35.283 54 C 35.924 51.525, 36.334 49.120, 36.193 48.656 C 36.053 48.192, 36.452 47.984, 37.081 48.194 C 38.296 48.599, 45 42.423, 45 40.900 C 45 40.405, 45.450 40, 46 40 C 46.565 40, 46.904 42.222, 46.778 45.111 C 46.593 49.357, 46.935 50.529, 48.799 52.038 C 50.113 53.102, 50.620 54.117, 50.021 54.487 C 48.679 55.317, 48.709 58.702, 50.067 59.541 C 52.202 60.861, 53.194 57.226, 51.922 52.750 C 51.478 51.190, 51.534 50, 52.051 50 C 53.430 50, 54.307 54.645, 53.514 57.750 C 53.127 59.262, 52.618 62.011, 52.383 63.859 C 52.147 65.706, 51.418 68.181, 50.762 69.359 C 49.512 71.606, 49.329 72.162, 49.125 74.331 C 49.056 75.063, 47.858 76.273, 46.462 77.020 C 44.137 78.265, 44.074 78.462, 45.712 79.381 C 46.696 79.932, 49.623 80.513, 52.218 80.672 C 54.812 80.831, 58.631 81.870, 60.703 82.981 C 65.354 85.474, 67.995 85.571, 68.015 83.250 C 68.024 82.287, 69.832 77.454, 72.033 72.509 C 75.108 65.601, 76.265 61.431, 77.028 54.509 C 78.527 40.893, 79.912 35.019, 82.969 29.304 L 85.749 24.109 83.124 23.804 C 79.608 23.397, 79.236 20.210, 82.032 14.434 C 85.360 7.560, 86.222 6.971, 90.715 8.500 C 92.797 9.208, 96.440 11.466, 98.812 13.517 C 103.401 17.487, 102.887 17.422, 113.738 15.385 C 119.562 14.291, 120.054 15.014, 118.372 22.190 C 117.186 27.252, 117.125 29.330, 118.062 32.697 C 119.096 36.413, 118.978 37.414, 117.024 41.450 C 115.811 43.956, 114.509 45.815, 114.131 45.581 C 112.442 44.537, 109.038 48.759, 108.427 52.655 C 107.866 56.230, 108.069 56.967, 109.887 57.940 C 111.049 58.562, 112 59.651, 112 60.361 C 112 61.071, 113.168 62.742, 114.595 64.076 C 116.023 65.409, 118.374 68.512, 119.820 70.971 C 121.980 74.644, 122.398 76.465, 122.165 81.175 C 121.741 89.728, 122.508 90.552, 132.221 91.970 C 136.775 92.634, 141.060 93.641, 141.744 94.207 C 142.429 94.773, 146.403 95.295, 150.576 95.368 C 156.574 95.472, 158.433 95.870, 159.454 97.267 C 160.179 98.259, 161.415 98.778, 162.272 98.449 C 164.731 97.506, 165.264 99.788, 162.883 101.063 C 161.087 102.024, 149.775 103.022, 138 103.257 C 135.826 103.301, 126.894 101.391, 119 99.195 C 117.324 98.729, 115.694 96.874, 114.055 93.565 C 111.807 89.029, 111.561 88.827, 111.007 91.065 C 110.676 92.404, 110.558 95.525, 110.745 98 C 110.931 100.475, 111.059 104.120, 111.029 106.100 C 110.997 108.203, 113.046 114.852, 115.956 122.090 C 118.696 128.905, 121.489 136.628, 122.161 139.253 L 123.385 144.025 157.942 143.763 L 192.500 143.500 192.757 71.750 L 193.013 0 96.507 0 L 0 0 0 72 M 0.474 72.500 C 0.474 112.100, 0.598 128.154, 0.750 108.176 C 0.901 88.198, 0.901 55.798, 0.750 36.176 C 0.598 16.554, 0.474 32.900, 0.474 72.500 M 43.162 52.543 C 41.767 55.605, 41.735 56, 42.883 56 C 43.676 56, 45.184 50.868, 44.574 50.246 C 44.437 50.106, 43.802 51.140, 43.162 52.543 M 35 63.500 C 35 64.325, 35.375 65, 35.833 65 C 36.292 65, 36.667 64.325, 36.667 63.500 C 36.667 62.675, 36.292 62, 35.833 62 C 35.375 62, 35 62.675, 35 63.500 M 148.557 83.223 C 146.528 86.119, 146.592 86.736, 149 87.500 C 150.100 87.849, 151 88.806, 151 89.626 C 151 90.447, 151.457 90.835, 152.016 90.490 C 152.575 90.144, 152.800 89.485, 152.515 89.024 C 152.230 88.563, 152.892 88.421, 153.986 88.707 C 157.085 89.517, 157.668 86.340, 154.952 83.449 C 152.104 80.417, 150.560 80.362, 148.557 83.223" stroke="none" fill="black" fill-rule="evenodd"/>
</svg>