<svg xmlns="http://www.w3.org/2000/svg" width="192" height="144" viewBox="0 0 192 144" version="1.1">
	<path d="M 148 2.481 C 148 4.380, 147.355 5.098, 145.250 5.541 C 143.738 5.860, 141.719 6.544, 140.764 7.060 C 139.809 7.577, 136.809 8, 134.098 8 C 129.537 8, 128.930 8.301, 125.985 12.020 C 124.202 14.271, 123.051 16.690, 123.369 17.520 C 124.103 19.432, 122.548 19.405, 119.569 17.453 C 118.250 16.589, 114.625 15.817, 111.354 15.703 C 105.722 15.508, 105.500 15.595, 105.500 18 C 105.500 19.375, 105.052 20.820, 104.505 21.211 C 103.907 21.637, 104.269 22.476, 105.408 23.309 C 106.452 24.073, 108.025 26.212, 108.903 28.064 C 110.121 30.632, 111.390 31.640, 114.250 32.315 C 118.914 33.414, 118.975 34.246, 114.507 35.861 C 111.227 37.047, 111.033 37.366, 111.326 41.072 C 111.629 44.906, 111.524 45.051, 107.692 46.083 C 104.892 46.837, 103.434 46.834, 102.673 46.073 C 101.253 44.653, 95.423 44.703, 92.705 46.158 C 89.792 47.717, 87.963 49.630, 88.691 50.357 C 89.018 50.685, 88.488 51.259, 87.513 51.633 C 86.026 52.204, 86.274 52.591, 89.045 54.024 C 92.709 55.918, 92.764 56.102, 93.654 69.500 C 93.983 74.450, 94.758 78.831, 95.376 79.235 C 95.994 79.639, 98.395 79.976, 100.711 79.985 C 104.228 79.997, 105.832 79.259, 110.447 75.500 C 113.486 73.025, 116.433 71, 116.996 71 C 117.673 71, 117.815 75.187, 117.414 83.332 C 116.898 93.837, 117.044 95.901, 118.404 97.261 C 120.520 99.377, 120.420 102.567, 118.119 106.382 C 117.085 108.097, 115.029 113.285, 113.552 117.911 C 110.997 125.912, 105.566 137.929, 104.021 139 C 103.624 139.275, 102.766 140.512, 102.115 141.750 L 100.930 144 133.072 144 C 163.273 144, 165.173 143.894, 164.542 142.250 C 164.173 141.287, 161.911 133.901, 159.516 125.835 C 155.197 111.290, 153.891 107.891, 151.506 105 C 149.162 102.158, 148.923 98.510, 150.967 96.760 C 152.599 95.363, 152.728 94.598, 151.862 91.462 C 151.143 88.858, 151.200 86.303, 152.057 82.648 C 153.583 76.143, 154.473 74.412, 158.755 69.624 C 162.052 65.939, 162.201 65.453, 161.788 59.740 C 161.481 55.502, 160.830 53.349, 159.578 52.433 C 157.895 51.203, 157.952 50.686, 160.651 42.551 L 163.500 33.967 176.500 29.914 C 183.650 27.685, 190.063 25.681, 190.750 25.462 C 191.438 25.242, 192 24.643, 192 24.131 C 192 23.618, 188.772 24.291, 184.828 25.625 C 180.883 26.960, 177.232 27.911, 176.715 27.738 C 176.197 27.566, 179.425 26.154, 183.887 24.601 C 188.349 23.047, 192 21.377, 192 20.888 C 192 19.597, 192.061 19.583, 176.319 24.608 C 168.380 27.143, 161.608 28.941, 161.271 28.605 C 160.934 28.268, 161.538 26.981, 162.612 25.746 C 163.839 24.335, 164.434 22.454, 164.210 20.688 C 163.901 18.237, 163.647 18.044, 162.240 19.188 C 160.562 20.551, 160.573 20.459, 162.703 15.250 C 162.984 14.562, 162.513 14, 161.657 14 C 160.801 14, 158.071 12.631, 155.591 10.957 C 151.545 8.226, 151.178 7.663, 152.013 5.466 C 153.207 2.326, 152.304 0, 149.893 0 C 148.544 0, 148 0.713, 148 2.481 M 11.242 20.984 C 10.559 22.078, 9.991 23.766, 9.980 24.736 C 9.970 25.706, 7.702 28.888, 4.941 31.807 L -0.079 37.114 0.210 45.272 C 0.492 53.211, 0.581 53.471, 3.500 54.965 C 5.150 55.809, 6.557 56.500, 6.626 56.500 C 6.695 56.500, 7.036 57.428, 7.383 58.562 C 7.891 60.219, 7.230 61.065, 4.008 62.876 L 0 65.128 -0 76.497 C -0 87.111, 0.137 87.909, 2.067 88.521 C 4.099 89.166, 13 100.293, 13 102.188 C 13 102.721, 11.425 106.431, 9.500 110.433 C 7.575 114.435, 6 118.585, 6 119.655 C 6 120.725, 5.612 122.027, 5.138 122.550 C 4.216 123.568, -0 139.905, -0 142.464 C -0 143.802, 3.032 144, 23.500 144 C 36.425 144, 47 143.662, 46.999 143.250 C 46.999 142.838, 46.047 140.025, 44.883 137 C 43.720 133.975, 41.956 126.775, 40.964 121 C 39.973 115.225, 38.241 108.475, 37.117 106 C 35.074 101.502, 35.074 101.500, 37.078 100.579 C 38.180 100.072, 38.866 99.172, 38.600 98.579 C 35.105 90.757, 33.043 85.075, 33.024 83.210 C 32.995 80.454, 36.643 73, 38.020 73 C 40.631 73, 38.536 69.798, 35 68.383 C 31.072 66.812, 29.642 63.957, 32.041 62.475 C 32.613 62.121, 32.790 60.913, 32.434 59.791 C 32.002 58.430, 32.155 57.978, 32.893 58.434 C 34.415 59.375, 34.347 58.982, 31.440 50.001 C 29.472 43.920, 29.125 41.635, 29.940 40.112 C 31.523 37.154, 31.235 36, 28.911 36 C 25.600 36, 16.707 27.594, 15.512 23.334 C 14.293 18.990, 12.949 18.250, 11.242 20.984 M 171 29 C 169.667 29.862, 169.667 29.969, 171 29.969 C 171.825 29.969, 173.175 29.533, 174 29 C 175.333 28.138, 175.333 28.031, 174 28.031 C 173.175 28.031, 171.825 28.467, 171 29 M 109.811 50.142 C 106.862 51.221, 105.872 53.614, 107.345 56.100 C 108.180 57.507, 108.631 57.532, 111.094 56.303 C 112.635 55.535, 114.174 54.027, 114.515 52.953 C 114.856 51.877, 116.029 51, 117.126 51 C 118.222 51, 118.840 50.550, 118.500 50 C 117.734 48.761, 113.391 48.832, 109.811 50.142 M 5.250 64.662 C 2.828 65.640, 4.035 67.030, 6.750 66.390 C 10.549 65.495, 11.990 63.981, 8.950 64.079 C 7.602 64.122, 5.938 64.385, 5.250 64.662" stroke="none" fill="black" fill-rule="evenodd"/>
</svg>