<svg xmlns="http://www.w3.org/2000/svg" width="192" height="144" viewBox="0 0 192 144" version="1.1">
	<path d="M 66.303 4.911 C 67.076 11.438, 70.316 17.598, 74.290 20.097 L 77.500 22.115 71.498 21.818 C 65.661 21.529, 65.379 21.635, 61.248 25.644 C 57.104 29.665, 55.930 32, 58.051 32 C 59.946 32, 62.230 39.159, 61.598 43.115 C 61.213 45.518, 61.412 46.971, 62.158 47.219 C 63.031 47.510, 63.020 51.142, 62.114 62.052 C 61.454 69.999, 60.700 79.650, 60.438 83.500 C 59.959 90.533, 59.876 117.722, 60.282 134.500 L 60.500 143.500 63.250 143.816 C 65.742 144.103, 66.011 143.821, 66.118 140.816 C 66.184 138.992, 66.090 137.050, 65.910 136.500 C 65.028 133.804, 64.777 100.504, 65.548 88.500 C 65.830 84.100, 66.047 77.800, 66.030 74.500 L 65.998 68.500 68.718 71.937 C 71.388 75.312, 82.642 86.322, 88.452 91.243 L 91.404 93.744 82.319 107.622 C 70.259 126.045, 68.800 129.108, 68.216 137.250 L 67.731 144 71.171 144 C 73.270 144, 75.932 143.026, 78 141.500 C 79.864 140.125, 81.751 139, 82.194 139 C 82.637 139, 83 140.125, 83 141.500 L 83 144 108 144 C 132.100 144, 133 143.930, 133 142.054 C 133 140.984, 132.511 134.382, 131.912 127.382 C 131.314 120.382, 131.118 112.702, 131.475 110.315 C 132.038 106.564, 132.643 105.713, 135.941 104.030 C 138.040 102.960, 142.565 99.275, 145.997 95.843 L 152.238 89.602 151.691 82.551 C 151.390 78.673, 150.853 74.559, 150.497 73.410 C 149.950 71.642, 150.592 70.999, 154.664 69.236 C 157.316 68.088, 159.932 67.519, 160.489 67.969 C 162.614 69.687, 169 72.935, 169 72.297 C 169 71.930, 167.988 70.532, 166.750 69.190 C 164.547 66.802, 164.544 66.765, 166.597 67.395 C 168.397 67.946, 168.707 67.608, 168.781 65.010 C 168.848 62.640, 168.240 61.658, 165.983 60.491 C 162.732 58.810, 153.444 58.472, 152.500 60 C 152.160 60.550, 150.199 61, 148.141 61 C 146.083 61, 143.868 61.532, 143.217 62.183 C 142.566 62.834, 141.779 63.112, 141.467 62.801 C 140.690 62.023, 145.566 54.992, 148.127 53.199 C 149.273 52.396, 150.831 50.255, 151.589 48.442 C 152.351 46.619, 153.979 44.837, 155.233 44.454 C 159.056 43.289, 161 40.892, 161 37.345 C 161 33.329, 160.006 33.163, 156.331 36.569 C 154.806 37.982, 152.308 39.388, 150.779 39.694 C 149.251 40, 148 40.599, 148 41.026 C 148 42.350, 141.073 45.965, 139.611 45.404 C 138.807 45.096, 137.311 46.158, 136.045 47.936 C 133.424 51.618, 131.757 51.712, 126.500 48.474 C 123.217 46.452, 121.200 46.009, 115.250 46.005 C 111.262 46.002, 108.100 46.338, 108.223 46.750 C 108.345 47.163, 106.813 49.261, 104.816 51.413 C 101.996 54.453, 101.270 55.980, 101.559 58.262 C 101.898 60.946, 101.718 61.146, 99.465 60.581 C 97.690 60.135, 97 60.370, 97 61.419 C 97 62.221, 95.664 65.311, 94.031 68.286 L 91.062 73.696 93.531 77.042 C 97.478 82.392, 96.409 82.347, 90.750 76.927 C 87.862 74.161, 83.659 70.727, 81.410 69.295 C 77.333 66.701, 77.315 66.661, 76.022 57.596 C 75.309 52.593, 74.597 47.150, 74.441 45.500 C 74.285 43.850, 73.865 41.569, 73.509 40.430 C 72.791 38.136, 75.967 34.437, 76.724 36.685 C 76.944 37.337, 78.451 39.703, 80.073 41.942 C 82.315 45.038, 84.105 46.303, 87.539 47.222 C 90.933 48.129, 92.541 49.252, 94.007 51.736 C 95.765 54.716, 96.164 54.917, 98.036 53.772 C 99.443 52.910, 99.976 51.761, 99.688 50.211 C 99.370 48.499, 100.409 46.823, 103.810 43.564 C 108.042 39.508, 108.383 38.800, 108.721 33.353 C 109.081 27.545, 108.706 26.370, 104.688 20.714 C 102.926 18.232, 102.936 18.046, 105.040 13.922 C 106.230 11.589, 107.270 7.615, 107.352 5.090 L 107.500 0.500 86.608 0.229 L 65.717 -0.041 66.303 4.911 M 60.583 29.866 C 60.152 30.563, 60.070 31.403, 60.400 31.733 C 61.295 32.628, 62.271 31.312, 61.787 29.862 C 61.449 28.846, 61.213 28.846, 60.583 29.866 M 63.484 63.293 C 62.695 65.229, 63.311 66.424, 64.803 65.854 C 65.314 65.659, 65.390 64.600, 64.973 63.500 C 64.266 61.635, 64.165 61.621, 63.484 63.293 M 62.667 76.667 C 62.300 77.033, 62 78.196, 62 79.250 C 62 81.843, 64.415 80.920, 64.820 78.172 C 65.129 76.069, 64.031 75.302, 62.667 76.667 M 61.180 93.250 C 61.356 94.487, 61.950 95.500, 62.500 95.500 C 63.050 95.500, 63.644 94.487, 63.820 93.250 C 64.039 91.702, 63.628 91, 62.500 91 C 61.372 91, 60.961 91.702, 61.180 93.250 M 61 108.583 C 61 111.716, 63.348 111.373, 63.820 108.172 C 64.032 106.729, 63.612 106, 62.570 106 C 61.549 106, 61 106.903, 61 108.583 M 61.639 121.694 C 60.403 122.930, 61.017 126, 62.500 126 C 63.325 126, 64 125.127, 64 124.059 C 64 121.972, 62.682 120.651, 61.639 121.694 M 62 139.500 C 62 141.056, 62.567 142, 63.500 142 C 64.433 142, 65 141.056, 65 139.500 C 65 137.944, 64.433 137, 63.500 137 C 62.567 137, 62 137.944, 62 139.500" stroke="none" fill="black" fill-rule="evenodd"/>
</svg>