<svg xmlns="http://www.w3.org/2000/svg" width="192" height="144" viewBox="0 0 192 144" version="1.1">
	<path d="M 177.511 6.371 C 176.418 6.992, 174.445 8.287, 173.127 9.250 C 171.809 10.213, 169.778 11.016, 168.615 11.036 C 166.643 11.070, 166.685 11.224, 169.250 13.324 C 170.762 14.562, 172 16.346, 172 17.288 C 172 18.229, 172.450 19, 173 19 C 174.882 19, 174 22.161, 170.674 27.331 C 168.845 30.174, 166.575 33.753, 165.629 35.284 C 164.629 36.902, 162.695 38.311, 161.009 38.648 C 159.045 39.041, 158.011 39.917, 157.805 41.364 C 157.620 42.661, 156.657 43.620, 155.352 43.806 C 151.104 44.412, 151.868 47.665, 157.088 51.199 C 162.782 55.055, 163.473 56.530, 162.054 61.798 C 159.796 70.185, 163.447 81.942, 169.850 86.904 C 171.692 88.332, 174.134 90.221, 175.276 91.102 C 177.268 92.639, 177.057 92.770, 170.053 94.352 C 166.039 95.258, 161.780 96, 160.589 96 C 159.398 96, 156.658 96.900, 154.500 98 C 152.342 99.100, 150.008 100, 149.312 100 C 148.616 100, 147.319 101.110, 146.430 102.467 C 145.541 103.823, 142.801 106.058, 140.342 107.433 L 135.870 109.932 134.491 106.634 C 133.734 104.820, 132.820 100.898, 132.460 97.918 C 132.101 94.938, 130.951 91.281, 129.904 89.790 C 128.857 88.300, 128 86.211, 128 85.147 C 128 82.842, 126.149 82, 121.084 82 C 118.820 82, 114.433 80.590, 110.031 78.448 C 104.878 75.940, 101.669 74.984, 99.116 75.198 L 95.500 75.500 98.750 78.473 C 100.537 80.108, 102 81.737, 102 82.093 C 102 83.162, 93.950 84.866, 86.658 85.340 C 75.910 86.038, 75.129 88.693, 85 90.976 C 87.475 91.548, 91.975 92.742, 95 93.630 C 98.025 94.518, 101.990 95.467, 103.811 95.739 C 106.264 96.105, 107.724 97.187, 109.447 99.916 C 112.392 104.582, 115.466 111.919, 117.480 119.094 C 119.593 126.618, 120.798 128.004, 126.483 129.447 C 132.637 131.010, 137.650 130.104, 148.229 125.520 C 160.885 120.036, 171 120.898, 171 127.463 C 171 128.456, 171.432 130.895, 171.959 132.884 C 172.487 134.873, 173.183 138.188, 173.505 140.250 L 174.091 144 183.045 144 L 192 144 192 82.598 L 192 21.196 188.750 19.997 C 186.963 19.337, 186.038 18.589, 186.695 18.334 C 187.352 18.079, 188.814 18.365, 189.945 18.970 C 191.873 20.002, 192 19.800, 192 15.702 C 192 12.963, 191.534 11.271, 190.750 11.165 C 183.549 10.198, 181.837 9.573, 180.723 7.508 C 179.694 5.602, 179.184 5.421, 177.511 6.371 M 66 134.538 C 65.175 134.706, 59.550 135.607, 53.500 136.540 C 31.767 139.893, 20.572 142.028, 19.594 143.006 C 18.935 143.665, 30.379 143.979, 53.550 143.937 C 75.123 143.897, 87.650 143.531, 86.280 142.980 C 85.059 142.489, 83.781 140.975, 83.440 139.616 C 82.433 135.605, 73.511 133.007, 66 134.538" stroke="none" fill="black" fill-rule="evenodd"/>
</svg>