<svg xmlns="http://www.w3.org/2000/svg" width="192" height="144" viewBox="0 0 192 144" version="1.1">
	<path d="M 94.397 2.517 C 93.078 4.530, 92.463 4.799, 91.331 3.860 C 89.651 2.466, 88.818 3.243, 86.963 7.934 C 85.915 10.583, 85.883 11.461, 86.820 11.773 C 87.489 11.996, 88.761 12.904, 89.648 13.791 C 91.130 15.273, 90.988 15.493, 87.880 16.533 C 84.367 17.707, 80 22.981, 80 26.047 C 80 28.636, 86.576 37.945, 91.202 41.905 C 94.747 44.939, 95.038 45.499, 93.617 46.538 C 91.770 47.889, 91.545 50.281, 93.008 53.015 C 93.745 54.392, 93.559 55.857, 92.318 58.459 C 91.193 60.819, 90.955 62.355, 91.614 63.014 C 92.273 63.673, 91.867 67.019, 90.413 72.932 C 88.407 81.089, 87.701 82.456, 82.194 88.855 C 78.881 92.704, 74.942 98.024, 73.441 100.677 C 71.940 103.330, 69.651 107.099, 68.356 109.054 C 67.060 111.008, 66.002 113.483, 66.005 114.554 C 66.015 118.383, 72.177 125.929, 80.480 132.280 C 87.859 137.924, 92.727 141.001, 95.105 141.523 C 96.697 141.873, 98 142.573, 98 143.079 C 98 143.586, 101.108 144, 104.906 144 C 111.320 144, 111.775 143.857, 111.290 142 C 110.905 140.528, 111.259 140, 112.633 139.999 C 114.815 139.998, 124.040 135.506, 132.307 130.418 C 139.643 125.903, 140.646 123.842, 139.145 116.367 C 138.515 113.232, 138 109.296, 138 107.621 C 138 104.179, 124.863 77.332, 119.378 69.562 L 115.891 64.624 116.528 54.062 C 116.879 48.253, 117.598 42.083, 118.127 40.351 C 118.656 38.619, 118.795 36.031, 118.436 34.601 C 118.027 32.971, 118.197 32, 118.892 32 C 120.932 32, 120.056 23.663, 117.422 18.003 C 114.455 11.629, 112.413 9.120, 109.190 7.887 C 107.919 7.401, 107.161 6.549, 107.504 5.993 C 107.848 5.437, 107.836 4.059, 107.478 2.931 C 106.948 1.260, 106.286 0.998, 103.913 1.519 C 102.100 1.917, 101 1.751, 101 1.079 C 101 -1.095, 96.059 -0.019, 94.397 2.517 M 97.188 3.063 C 97.428 3.784, 98.216 4.572, 98.938 4.813 C 99.688 5.063, 100.063 4.688, 99.813 3.938 C 99.572 3.216, 98.784 2.428, 98.063 2.188 C 97.313 1.938, 96.938 2.312, 97.188 3.063" stroke="none" fill="black" fill-rule="evenodd"/>
</svg>