<svg xmlns="http://www.w3.org/2000/svg" width="192" height="144" viewBox="0 0 192 144" version="1.1">
	<path d="M 0 72 L 0 144 6.955 144 L 13.909 144 14.566 140.500 C 15.479 135.632, 14.557 131.649, 9.983 120.702 C 3.709 105.687, 2.606 99.804, 2.629 81.500 C 2.651 64.458, 3.723 57.514, 8.614 42.715 C 10.659 36.530, 10.940 34.632, 9.982 33.478 C 9.319 32.679, 9.056 31.296, 9.399 30.403 C 9.883 29.142, 10.805 28.928, 13.541 29.442 C 18.043 30.286, 32.104 36.290, 35.724 38.914 C 38.672 41.050, 47.440 44.462, 68.423 51.639 C 78.428 55.061, 81.529 55.770, 82.158 54.779 C 83.700 52.349, 82.987 51.220, 79.500 50.566 C 77.575 50.205, 76 49.430, 76 48.844 C 76 48.259, 78.309 44.567, 81.131 40.640 C 91.481 26.236, 94.078 24.486, 102.967 25.917 C 112.489 27.451, 115.562 29.381, 118.557 35.712 C 121.720 42.398, 121.238 45.337, 116.524 48.118 C 114.573 49.269, 113.327 50.689, 113.613 51.434 C 113.888 52.151, 112.513 54.435, 110.557 56.509 C 108.600 58.583, 107 60.407, 107 60.562 C 107 60.718, 108.586 61.368, 110.525 62.008 C 112.464 62.648, 115.277 64.181, 116.775 65.414 C 120.161 68.200, 142.659 74.092, 149 73.852 C 152.033 73.738, 155.304 74.527, 159.035 76.272 C 162.080 77.697, 170.742 80.120, 178.285 81.657 L 192 84.452 192 87.851 C 192 91.852, 193.311 91.969, 173.500 86.198 L 160.500 82.411 156 87.149 C 152.246 91.102, 149.842 92.504, 141.500 95.605 C 134.717 98.126, 129.576 99.385, 125.519 99.519 C 119.664 99.713, 119.524 99.784, 118.891 102.879 C 118.419 105.184, 118.753 106.687, 120.122 108.428 C 121.155 109.741, 122.002 111.869, 122.005 113.158 C 122.011 115.543, 122.642 116.672, 129.250 126.115 C 133.420 132.074, 133.889 134, 131.170 134 C 129.434 134, 129.419 134.261, 130.878 139.014 L 132.416 144.029 162.458 143.764 L 192.500 143.500 192.757 71.750 L 193.013 0 96.507 0 L 0 0 0 72 M 0.474 72.500 C 0.474 112.100, 0.598 128.154, 0.750 108.176 C 0.901 88.198, 0.901 55.798, 0.750 36.176 C 0.598 16.554, 0.474 32.900, 0.474 72.500 M 29.532 47.579 C 23.053 63.085, 20.004 77.484, 20.021 92.500 C 20.031 101.421, 21.558 108.993, 26.152 122.886 L 29.255 132.272 27.128 137.405 C 25.957 140.229, 25 142.867, 25 143.269 C 25 143.671, 34.616 144, 46.369 144 L 67.737 144 76.796 134.062 C 85.953 124.016, 96 110.237, 96 107.723 C 96 106.971, 93.075 103.771, 89.500 100.613 C 81.990 93.979, 81.311 91.259, 85.474 84.500 C 86.829 82.300, 87.952 79.289, 87.969 77.809 C 87.986 76.329, 88.450 74.840, 89 74.500 C 89.550 74.160, 90 71.828, 90 69.319 C 90 65.232, 89.831 64.895, 88.385 66.095 C 87.004 67.241, 86.516 67.120, 85.010 65.260 C 84.041 64.064, 82.944 63.390, 82.571 63.762 C 82.199 64.134, 82.221 63.587, 82.621 62.546 C 83.184 61.077, 82.991 60.790, 81.756 61.263 C 80.867 61.604, 79.940 61.286, 79.655 60.542 C 79.374 59.810, 76.074 58.201, 72.322 56.966 C 68.570 55.731, 59.043 52.308, 51.151 49.360 C 33.704 42.843, 31.583 42.668, 29.532 47.579 M 118 72.519 C 118 72.804, 119.372 75.610, 121.050 78.753 C 123.039 82.482, 123.900 85.263, 123.525 86.756 C 122.516 90.776, 123.789 90.717, 142.309 85.885 C 145.797 84.975, 146.093 84.629, 145.809 81.789 C 145.502 78.706, 145.420 78.665, 133 75.359 C 120.462 72.021, 118 71.555, 118 72.519 M 92.049 89.441 C 90.869 90.862, 90.907 91.336, 92.312 92.741 C 94.468 94.897, 95.432 93.797, 94.318 90.453 C 93.508 88.023, 93.302 87.931, 92.049 89.441" stroke="none" fill="black" fill-rule="evenodd"/>
</svg>