<svg xmlns="http://www.w3.org/2000/svg" width="192" height="144" viewBox="0 0 192 144" version="1.1">
	<path d="M 0 72 L 0 144 35.849 144 L 71.697 144 73.984 135.250 C 75.242 130.438, 77.584 123.168, 79.187 119.095 C 80.992 114.509, 81.988 110.322, 81.801 108.095 C 81.516 104.695, 81.310 104.504, 78 104.568 C 75.694 104.612, 74.050 104.009, 73.182 102.801 C 72.456 101.792, 71.495 101.194, 71.045 101.472 C 70.595 101.750, 69.671 101.308, 68.991 100.489 C 67.068 98.172, 64.582 98.721, 62.158 102 C 60.938 103.650, 59.490 105, 58.940 105 C 58.390 105, 58.955 103.627, 60.196 101.949 C 62.117 99.351, 62.233 98.762, 60.976 97.985 C 60.164 97.483, 59.500 96.508, 59.500 95.819 C 59.500 95.129, 57.841 94.099, 55.813 93.530 C 53.785 92.961, 50.860 91.317, 49.313 89.877 C 47.434 88.128, 44.895 87.052, 41.668 86.637 C 36.072 85.918, 30 83.298, 30 81.604 C 30 80.909, 31.885 80.353, 34.652 80.233 C 37.210 80.121, 39.521 79.812, 39.787 79.546 C 40.310 79.023, 37.460 74.330, 35.307 72.169 C 33.396 70.251, 34.162 54.521, 36.375 50.241 C 38.426 46.276, 39.768 46.119, 40.568 49.750 C 41.608 54.464, 41.734 54.581, 42.460 51.500 C 43.893 45.421, 43.998 45.315, 46.074 47.861 C 47.133 49.159, 48 51.098, 48 52.170 C 48 55.213, 49.820 53.334, 51.140 48.926 C 53.096 42.398, 54.141 45.949, 53.061 55.454 C 52.414 61.144, 52.404 64.886, 53.031 66.058 C 54.611 69.010, 54.190 70.419, 50.399 74.846 C 46.101 79.868, 46.866 82.221, 52.499 81.306 C 54.991 80.902, 57.080 81.433, 60.485 83.336 C 63.682 85.123, 65.230 85.543, 65.531 84.706 C 69.090 74.843, 69.486 72.226, 66.566 77.873 C 65.348 80.229, 61 82.958, 61 81.367 C 61 80.154, 65.600 72.076, 68.100 68.898 C 72.695 63.057, 75.639 56.138, 78.001 45.629 C 80.224 35.739, 83.208 27.607, 85.028 26.482 C 87.084 25.212, 85.845 24.277, 82.250 24.386 C 79.041 24.484, 78.452 24.163, 78.169 22.163 C 77.987 20.878, 78.827 17.390, 80.035 14.413 C 81.745 10.201, 82.706 9.010, 84.366 9.044 C 87.804 9.115, 93.403 11.443, 97.319 14.430 C 100.525 16.875, 101.524 17.129, 105.729 16.569 C 108.353 16.220, 112.860 15.682, 115.743 15.375 L 120.987 14.816 120.344 18.158 C 119.990 19.996, 119.136 23.415, 118.446 25.756 C 117.756 28.097, 117.429 31.782, 117.720 33.946 C 118.010 36.109, 117.984 38.928, 117.662 40.209 C 116.858 43.414, 113.096 47.251, 111.398 46.599 C 110.362 46.202, 109.980 47.027, 109.923 49.781 C 109.881 51.827, 109.695 54.293, 109.510 55.261 C 109.325 56.230, 109.925 57.425, 110.844 57.916 C 111.762 58.408, 114.429 62.405, 116.771 66.800 L 121.028 74.790 120.384 83.163 L 119.741 91.537 125.120 93.856 C 128.079 95.131, 132.750 97.295, 135.500 98.665 C 139.308 100.561, 141.572 101.046, 144.995 100.703 C 147.468 100.454, 150.052 100.467, 150.739 100.730 C 152.513 101.411, 151.254 103, 148.941 103 C 145.801 103, 146.691 104.647, 151.463 107.672 C 153.918 109.227, 155.943 111.031, 155.963 111.679 C 156.010 113.184, 145.479 116.287, 142.997 115.499 C 141.966 115.172, 139.742 113.332, 138.055 111.410 C 136.367 109.488, 134.427 108.022, 133.743 108.152 C 133.060 108.282, 128 106.164, 122.500 103.444 C 117 100.725, 112.125 98.338, 111.667 98.139 C 111.209 97.940, 111.504 99.073, 112.323 100.657 C 113.141 102.240, 113.581 104.744, 113.298 106.220 C 112.957 108.008, 114.304 112.673, 117.338 120.202 C 119.842 126.416, 122.665 134.318, 123.613 137.763 L 125.335 144.026 158.918 143.763 L 192.500 143.500 192.757 71.750 L 193.013 0 96.507 0 L 0 0 0 72 M 0.474 72.500 C 0.474 112.100, 0.598 128.154, 0.750 108.176 C 0.901 88.198, 0.901 55.798, 0.750 36.176 C 0.598 16.554, 0.474 32.900, 0.474 72.500" stroke="none" fill="black" fill-rule="evenodd"/>
</svg>