<svg xmlns="http://www.w3.org/2000/svg" width="192" height="144" viewBox="0 0 192 144" version="1.1">
	<path d="M 0 32.500 L 0 65 22.525 65 L 45.050 65 46.037 62.403 C 46.580 60.974, 47.187 57.262, 47.386 54.153 C 47.585 51.044, 48.011 47.825, 48.332 47 C 48.654 46.175, 49.096 42.125, 49.315 38 C 49.535 33.875, 50.181 28.813, 50.752 26.751 C 51.630 23.578, 51.498 22.631, 49.895 20.593 C 47.965 18.140, 47.440 14.353, 48.765 12.439 C 49.169 11.855, 51.044 10.947, 52.932 10.421 C 56.003 9.565, 56.363 9.099, 56.356 5.982 C 56.351 3.986, 57.020 1.980, 57.924 1.282 C 59.173 0.316, 53.337 0.057, 29.750 0.032 L 0 0 0 32.500 M 76 3.826 C 76 7.949, 78.165 10.625, 83.250 12.788 C 85.801 13.872, 87.161 17, 85.082 17 C 83.098 17, 81 15.723, 81 14.515 C 81 13.168, 78.229 10.437, 77.550 11.116 C 77.330 11.337, 77.678 13.501, 78.325 15.925 C 79.090 18.794, 79.151 20.455, 78.500 20.683 C 75.052 21.889, 74.632 22.790, 76.318 25.362 C 77.688 27.454, 78.892 27.947, 83.234 28.197 C 88.428 28.496, 88.529 28.564, 91.702 33.883 C 93.469 36.844, 95.369 41.569, 95.926 44.383 C 96.910 49.359, 96.167 59.447, 94.536 63.250 C 93.828 64.903, 96.505 65, 142.893 65 L 192 65 192 32.500 L 192 0 137.500 0 C 107.525 0, 83 0.366, 83 0.813 C 83 1.260, 84.350 2.919, 86 4.500 C 87.650 6.081, 89 8.398, 89 9.650 C 89 11.706, 88.567 11.505, 84.500 7.552 C 82.025 5.146, 80 2.463, 80 1.589 C 80 0.667, 79.161 0, 78 0 C 76.349 0, 76 0.667, 76 3.826 M 64.169 44.128 C 64.516 46.548, 69.355 49.979, 70.626 48.707 C 71.643 47.691, 67.688 42.579, 65.563 42.161 C 64.262 41.906, 63.919 42.390, 64.169 44.128 M -0 106.005 L -0 144.010 96.250 143.755 L 192.500 143.500 192.762 105.500 L 193.024 67.500 141.762 68 C 93.029 68.475, 90.339 68.597, 87.245 70.468 L 83.991 72.437 90.096 78.597 C 93.585 82.117, 95.754 85.034, 95.157 85.403 C 94.582 85.759, 91.178 85.926, 87.592 85.775 C 82.503 85.560, 80.695 85.877, 79.353 87.219 C 77.760 88.811, 77.754 89.070, 79.269 90.744 C 80.168 91.738, 81.143 94.114, 81.437 96.025 C 81.730 97.936, 82.253 100.963, 82.598 102.750 C 83.176 105.736, 83.018 106, 80.661 106 C 79.249 106, 76.894 105.453, 75.427 104.785 C 72.881 103.625, 72.787 103.316, 73.347 97.952 C 73.704 94.534, 73.519 91.919, 72.875 91.275 C 71.717 90.117, 64.071 90.729, 62.577 92.100 C 61.603 92.993, 65.599 101.180, 69.615 106.520 C 70.865 108.181, 72.306 111.331, 72.819 113.520 C 73.332 115.709, 73.880 117.950, 74.037 118.500 C 74.194 119.050, 73.787 120.850, 73.132 122.500 C 72.477 124.150, 71.743 126.063, 71.502 126.750 C 70.894 128.482, 67.508 128.317, 65.984 126.481 C 65.128 125.449, 64.911 123.156, 65.306 119.323 C 65.960 112.989, 64.922 110.181, 59.411 103.375 C 57.574 101.106, 55.546 98.097, 54.904 96.688 C 53.829 94.328, 53.231 94.125, 47.376 94.125 C 37.731 94.125, 32.088 93.032, 30.972 90.948 C 29.638 88.454, 29.754 84.814, 31.285 81.174 C 32.699 77.811, 39.518 70, 41.040 70 C 41.568 70, 42 69.550, 42 69 C 42 68.365, 34.333 68, 21 68 L 0 68 -0 106.005 M 0.454 106 C 0.454 127.175, 0.587 135.838, 0.749 125.250 C 0.911 114.663, 0.911 97.338, 0.749 86.750 C 0.587 76.163, 0.454 84.825, 0.454 106" stroke="none" fill="black" fill-rule="evenodd"/>
</svg>