<svg xmlns="http://www.w3.org/2000/svg" width="192" height="144" viewBox="0 0 192 144" version="1.1">
	<path d="M 0 28 L 0 56 2.345 56 C 3.635 56, 5.494 55.111, 6.477 54.025 C 8.237 52.081, 8.383 52.160, 15.734 59.025 C 19.842 62.861, 23.575 66, 24.030 66 C 25.299 66, 28.081 62.939, 31.012 58.319 L 33.664 54.138 39.582 56.931 C 52.487 63.023, 58 63.377, 58 58.112 C 58 55.645, 54.794 44.813, 52.597 39.859 C 52.017 38.551, 53.294 37.561, 58.874 34.989 C 62.726 33.213, 66.133 31.095, 66.445 30.282 C 67.070 28.654, 63.394 23.652, 57.085 17.547 C 54.838 15.373, 53 13.292, 53 12.923 C 53 12.553, 54.599 10.507, 56.554 8.376 L 60.109 4.500 57.499 2.250 C 54.929 0.035, 54.465 0, 27.444 0 L 0 0 0 28 M 129.136 1.336 C 127.380 3.452, 113.288 9.721, 104.119 12.465 C 99.509 13.845, 95.154 15.457, 94.442 16.048 C 90.707 19.148, 99.130 38.073, 108.454 47.534 C 115.316 54.495, 126.356 60.629, 130.261 59.649 C 132.713 59.034, 135.223 54.816, 136.443 49.257 C 137.538 44.273, 138.807 44.469, 139.500 49.731 C 140.723 59.007, 141.106 60.003, 144.034 61.517 C 149.345 64.264, 164.261 62.897, 172.069 58.949 C 177.836 56.032, 185.626 49.404, 188.930 44.602 C 191.796 40.436, 192 39.545, 192 31.182 L 192 22.225 184.014 19.005 C 174.297 15.089, 166.333 10.382, 159.398 4.457 L 154.181 0 142.213 0 C 133.448 0, 129.948 0.358, 129.136 1.336 M 14.660 79.824 C 9.012 92.409, 8.832 99.470, 13.964 107.112 C 15.567 109.500, 16.724 111.609, 16.534 111.799 C 16.344 111.989, 14.459 111.062, 12.344 109.739 C 8.717 107.470, 2.726 105, 0.851 105 C 0.383 105, 0 109.014, 0 113.920 L 0 122.839 4.988 124.496 C 7.732 125.407, 10.275 126.637, 10.641 127.228 C 11.427 128.500, 5.476 133.733, 2.250 134.607 C 0.407 135.107, 0 135.920, 0 139.108 C 0 141.249, 0.268 143, 0.596 143 C 0.923 143, 2.466 142.093, 4.023 140.984 C 5.580 139.875, 8.787 138.102, 11.149 137.045 C 16.501 134.649, 18.334 135.701, 17.408 140.638 L 16.777 144 26.968 144 L 37.159 144 36.525 140.750 L 35.890 137.500 38.695 140.759 L 41.500 144.018 58.250 144.009 C 67.463 144.004, 75 143.721, 75 143.380 C 75 142.154, 60.439 127.787, 57.800 126.409 C 56.314 125.634, 53.952 125, 52.550 125 C 48.902 125, 49.404 123.352, 53.460 122.013 C 59.927 119.879, 67.987 113.481, 72.827 106.642 C 80.737 95.461, 87.264 84.931, 86.659 84.326 C 85.620 83.286, 57.644 90.178, 51.297 93.038 C 47.885 94.575, 42.823 97.956, 40.047 100.553 L 35 105.274 34.988 100.887 C 34.980 98.033, 34.080 94.927, 32.413 92 C 28.674 85.436, 19.797 74, 18.441 74 C 17.798 74, 16.097 76.621, 14.660 79.824 M 139.937 81.478 C 138.322 85.041, 137 88.389, 137 88.919 C 137 90.958, 134.670 91.097, 127.220 89.504 C 122.974 88.596, 116.800 87.998, 113.500 88.176 C 107.569 88.496, 107.496 88.537, 107.192 91.676 C 106.852 95.188, 109.152 100.287, 115.180 109.378 C 117.323 112.611, 118.947 115.333, 118.788 115.426 C 116.380 116.835, 104.982 126.604, 104.608 127.579 C 103.845 129.568, 106.656 132.391, 115.473 138.487 L 123.447 144 142.699 144 L 161.950 144 160.913 141.271 C 160.187 139.363, 160.195 138.435, 160.938 138.187 C 161.522 137.993, 162 137.210, 162 136.448 C 162 135.567, 162.606 135.295, 163.664 135.701 C 164.783 136.131, 165.091 135.957, 164.605 135.170 C 163.648 133.622, 166.246 133.646, 167.800 135.200 C 168.733 136.133, 169 136.120, 169 135.141 C 169 134.449, 169.412 134.136, 169.915 134.447 C 170.418 134.758, 171 134.500, 171.209 133.874 C 171.832 132.003, 177.125 135.327, 180.797 139.897 C 183.655 143.453, 184.621 144, 188.047 144 L 192 144 192 118.500 L 192 93 188.595 93 C 185.650 93, 184.851 92.426, 182.680 88.750 C 176.951 79.052, 173.696 77.898, 168.395 83.684 L 165.021 87.368 162.760 85.353 C 160.687 83.504, 158.576 82.181, 149.220 76.864 C 144.093 73.951, 143.134 74.428, 139.937 81.478" stroke="none" fill="black" fill-rule="evenodd"/>
</svg>