<svg xmlns="http://www.w3.org/2000/svg" width="192" height="144" viewBox="0 0 192 144" version="1.1">
	<path d="M 110.083 2.052 C 98.434 5.241, 91.759 10.995, 90.421 19 C 89.206 26.272, 88.427 27.449, 82.690 30.678 C 79.585 32.425, 76.022 34, 74.772 34.178 C 72.053 34.563, 72.162 37.484, 75.005 40.401 C 76.644 42.083, 77.215 42.154, 79.961 41.016 C 81.668 40.309, 83.178 39.904, 83.317 40.115 C 86.338 44.711, 91.358 49.800, 92.457 49.378 C 93.942 48.808, 97.726 53.608, 96.644 54.689 C 96.299 55.034, 96.519 55.921, 97.133 56.660 C 97.750 57.404, 97.981 59.345, 97.650 61.002 C 97.075 63.874, 98.206 65.094, 99.500 63 C 100.576 61.260, 101.834 61.919, 101.304 63.946 C 100.762 66.018, 100.981 66.080, 108.462 65.968 C 110.642 65.935, 112.120 66.213, 111.747 66.586 C 111.375 66.958, 111.477 68.023, 111.975 68.953 C 112.710 70.327, 112.191 70.886, 109.189 71.948 C 104.359 73.658, 103.154 74.696, 101.554 78.525 C 100.822 80.277, 98.362 83.013, 96.086 84.605 C 92.376 87.201, 92.006 87.827, 92.505 90.672 C 92.950 93.207, 92.606 94.163, 90.791 95.434 C 88.619 96.955, 88.389 96.873, 85.510 93.562 C 83.682 91.459, 79.948 89.042, 76 87.405 C 70.244 85.018, 67.898 84.664, 55.500 84.309 C 38.855 83.834, 37.736 84.235, 40.511 89.691 C 41.576 91.786, 42.610 93.838, 42.807 94.251 C 43.005 94.664, 42.476 94.736, 41.631 94.412 C 38.073 93.047, 38.123 95.315, 41.714 98.139 C 43.796 99.777, 46.231 102.062, 47.124 103.217 C 48.412 104.882, 49.999 105.365, 54.782 105.543 C 58.100 105.666, 61.269 106.048, 61.823 106.391 C 62.378 106.734, 63.994 106.573, 65.413 106.033 C 67.786 105.131, 68.315 105.473, 71.963 110.276 C 74.145 113.149, 76.928 116.794, 78.147 118.377 C 79.365 119.959, 81.845 121.873, 83.657 122.630 C 88.080 124.478, 89.770 128.221, 88.988 134.439 C 88.646 137.155, 87.829 139.557, 87.172 139.776 C 86.515 139.995, 85.516 141.035, 84.953 142.087 C 83.959 143.946, 84.596 144, 107.431 144 L 130.933 144 128.033 141.033 C 124.006 136.914, 123.210 130.799, 125.460 121.258 C 126.860 115.319, 127.652 113.703, 129.508 112.997 C 130.778 112.514, 132.645 110.698, 133.658 108.961 C 135.409 105.958, 135.735 105.829, 140.249 106.354 C 148.530 107.316, 153.215 110.227, 165.266 121.902 C 171.567 128.006, 177.390 133, 178.206 133 C 179.022 133, 180.547 132.052, 181.595 130.894 C 183.901 128.344, 190.509 124.842, 191.376 125.710 C 191.719 126.053, 192 119.958, 192 112.167 C 192 104.375, 191.757 98, 191.460 98 C 191.163 98, 189.180 98.888, 187.052 99.974 C 181.275 102.921, 176.356 103.334, 168 101.573 C 161.223 100.145, 160.389 100.142, 159.354 101.545 C 158.352 102.902, 157.030 102.466, 148.854 98.081 L 139.500 93.064 139.500 88.223 C 139.500 84.358, 138.925 82.699, 136.643 79.988 C 134.107 76.974, 133.835 75.998, 134.225 71.297 C 134.662 66.036, 135.866 63.358, 136.720 65.750 C 137.658 68.377, 139.739 67.012, 139.388 64 C 139.016 60.804, 139.824 60.224, 141.842 62.242 C 142.731 63.131, 143.284 63.170, 143.792 62.376 C 144.181 61.768, 145.536 60.946, 146.803 60.551 C 148.368 60.062, 148.813 59.458, 148.193 58.666 C 147.692 58.025, 147.004 56.038, 146.666 54.250 C 145.983 50.649, 147.404 49.986, 150.997 52.230 C 152.617 53.242, 153.257 53.172, 154.591 51.838 C 156.089 50.340, 155.899 49.899, 152.133 46.133 C 149.888 43.888, 147.772 40.938, 147.430 39.579 C 146.622 36.358, 148.740 30, 150.620 30 C 152.269 30, 161.155 21.995, 164.103 17.855 L 166.031 15.148 160.297 13.958 L 154.563 12.768 158.282 10.860 C 162.274 8.812, 162.839 6.936, 160.808 2.478 L 159.616 -0.138 137.742 0.165 C 121.678 0.388, 114.332 0.889, 110.083 2.052" stroke="none" fill="black" fill-rule="evenodd"/>
</svg>