<svg xmlns="http://www.w3.org/2000/svg" width="192" height="144" viewBox="0 0 192 144" version="1.1">
	<path d="M 95 48.622 C 84.210 50.724, 79.646 54.123, 76.479 62.417 C 74.905 66.536, 74.415 66.965, 70.631 67.530 C 68.359 67.869, 65.233 67.664, 63.685 67.073 C 60.142 65.723, 56.270 65.690, 55.831 67.006 C 55.647 67.560, 52.572 68.518, 48.998 69.136 C 39.887 70.711, 37 72.350, 37 75.949 C 37 79.067, 39.235 82.240, 47.600 91 L 52.852 96.500 53.176 106.749 C 53.354 112.386, 53.808 116.998, 54.184 116.999 C 54.560 116.999, 55.926 119.332, 57.220 122.183 L 59.572 127.366 61.756 123.933 L 63.940 120.500 63.424 124 C 63.140 125.925, 62.569 131.213, 62.154 135.750 L 61.400 144 105.181 144 L 148.962 144 149.419 141.750 C 150.545 136.213, 150.790 122.939, 149.909 115.190 C 149.380 110.531, 149.173 106.494, 149.449 106.217 C 149.726 105.941, 150.648 106.293, 151.500 107 C 154.022 109.093, 154.475 107.292, 152.769 101.957 C 151.190 97.021, 151.204 96.885, 153.775 92.225 C 155.208 89.626, 156.643 87.275, 156.964 87 C 158.468 85.709, 160.806 81.162, 161.432 78.308 C 162.879 71.719, 158.178 67.159, 148.254 65.525 C 145.348 65.046, 143.297 63.946, 141.754 62.038 C 138.488 57.998, 130.273 52.542, 124.500 50.578 C 119.536 48.889, 100.208 47.608, 95 48.622" stroke="none" fill="black" fill-rule="evenodd"/>
</svg>