<svg xmlns="http://www.w3.org/2000/svg" width="192" height="144" viewBox="0 0 192 144" version="1.1">
	<path d="M 0 72 L 0 144 34.779 144 L 69.557 144 71.394 136.750 C 72.404 132.762, 74.786 125.450, 76.687 120.500 C 79.667 112.740, 80.054 110.768, 79.492 106.188 C 78.856 100.999, 78.776 100.890, 76.050 101.489 C 73.742 101.996, 73.159 101.717, 72.678 99.877 C 71.872 96.795, 72.696 95.886, 75.630 96.622 C 78.063 97.233, 78.117 97.136, 77.438 93.376 C 76.472 88.033, 76.229 87.804, 73.455 89.621 C 69.706 92.078, 66.515 90.743, 64.580 85.909 C 63.676 83.649, 61.825 80.165, 60.468 78.168 C 59.111 76.170, 58 73.390, 58 71.990 C 58 70.590, 57.100 68.674, 56 67.732 C 54.900 66.790, 54 65.395, 54 64.632 C 54 63.869, 53.325 62.685, 52.500 62 C 47.946 58.220, 54.158 57.985, 61.904 61.643 C 64.982 63.097, 68.464 65.405, 69.642 66.771 L 71.783 69.255 71.288 64.862 L 70.793 60.468 74.146 60.484 C 77.355 60.499, 77.510 60.327, 77.741 56.500 C 78.413 45.354, 80.209 30.478, 81.080 28.851 C 81.871 27.373, 81.714 27.042, 80.282 27.165 C 79.302 27.248, 77.244 27.246, 75.708 27.158 L 72.916 27 73.208 19.250 L 73.500 11.500 77 11.848 C 78.925 12.039, 83.033 13.223, 86.128 14.478 C 93.175 17.336, 99.157 17.471, 104.227 14.884 C 106.377 13.787, 110.356 12.627, 113.068 12.305 L 118 11.721 118 19.361 C 118 27.583, 117.896 27.710, 111.640 27.151 C 110.229 27.025, 109.959 27.409, 110.519 28.742 C 110.926 29.709, 111.883 37.025, 112.647 45 C 114.297 62.225, 114.348 62.419, 116.854 61.078 C 117.890 60.524, 119.021 60.355, 119.369 60.702 C 120.346 61.679, 120.114 67, 119.094 67 C 118.596 67, 118.687 68.056, 119.296 69.347 L 120.403 71.694 121.952 68.652 C 122.803 66.978, 124.796 64.903, 126.380 64.040 C 129.647 62.259, 129.984 60.644, 127.181 60.199 C 126.137 60.033, 124.657 58.683, 123.892 57.199 C 123.126 55.715, 121.713 53.628, 120.750 52.561 C 118.888 50.499, 118.501 47.334, 119.850 45.208 C 120.301 44.497, 120.404 42.022, 120.079 39.708 C 119.636 36.549, 120.028 34.378, 121.652 31.001 L 123.816 26.502 125.069 29.251 C 126.589 32.588, 127.572 32.737, 128.363 29.750 C 128.940 27.571, 129.030 27.602, 131.229 30.733 C 132.478 32.511, 133.811 33.973, 134.191 33.983 C 134.571 33.992, 135.285 32.087, 135.778 29.750 L 136.673 25.500 137.627 30 C 138.151 32.475, 138.253 36.945, 137.852 39.932 C 137.451 42.920, 137.364 46.571, 137.659 48.044 C 138.219 50.847, 135.688 57, 133.974 57 C 133.438 57, 133 57.694, 133 58.543 C 133 59.710, 133.906 60.015, 136.715 59.793 C 139.492 59.574, 140.514 59.909, 140.763 61.121 C 140.962 62.087, 140.268 62.958, 139.044 63.278 C 137.706 63.628, 137.196 64.347, 137.579 65.346 C 137.918 66.228, 137.284 67.632, 136.083 68.661 C 134.938 69.642, 134 71.529, 134 72.854 C 134 74.180, 133.141 76.667, 132.091 78.382 C 131.042 80.097, 129.680 83.392, 129.065 85.705 C 127.292 92.373, 123.001 95.116, 120 91.500 C 118.062 89.165, 117 89.718, 117 93.063 C 117 95.665, 117.338 96.079, 119.250 95.813 C 121.067 95.560, 121.500 95.981, 121.500 98 C 121.500 100.019, 121.067 100.440, 119.250 100.187 C 117.272 99.912, 116.985 100.335, 116.880 103.687 L 116.760 107.500 115.731 103.216 C 114.411 97.725, 112.657 98.312, 111.937 104.486 C 111.510 108.142, 111.959 110.912, 113.787 115.906 C 115.114 119.533, 117.843 127.334, 119.850 133.242 L 123.500 143.984 158 143.742 L 192.500 143.500 192.757 71.750 L 193.013 0 96.507 0 L 0 0 0 72 M 0.474 72.500 C 0.474 112.100, 0.598 128.154, 0.750 108.176 C 0.901 88.198, 0.901 55.798, 0.750 36.176 C 0.598 16.554, 0.474 32.900, 0.474 72.500 M 59.658 26.648 C 59.308 28.767, 59.017 32.172, 59.011 34.215 C 59.003 36.879, 58.443 38.228, 57.031 38.983 C 55.580 39.760, 55.087 41.017, 55.158 43.769 C 55.258 47.696, 57.654 54, 59.047 54 C 59.497 54, 60.151 54.900, 60.500 56 C 61.254 58.375, 66.555 58.777, 69.427 56.677 C 71.867 54.893, 74.066 48.397, 73.887 43.500 C 73.807 41.300, 74.074 38.709, 74.481 37.742 C 74.927 36.681, 74.582 35.011, 73.610 33.527 C 72.724 32.176, 72 30.416, 72 29.616 C 72 28.509, 70.901 28.235, 67.406 28.471 C 63.129 28.759, 62.724 28.573, 61.553 25.788 L 60.295 22.796 59.658 26.648 M 113 94.500 C 113 95.325, 113.450 96, 114 96 C 114.550 96, 115 95.325, 115 94.500 C 115 93.675, 114.550 93, 114 93 C 113.450 93, 113 93.675, 113 94.500" stroke="none" fill="black" fill-rule="evenodd"/>
</svg>