<svg xmlns="http://www.w3.org/2000/svg" width="192" height="144" viewBox="0 0 192 144" version="1.1">
	<path d="M 63.755 4.805 C 65.455 22.496, 53.553 44.974, 38.500 52.500 C 36.300 53.600, 34.275 54.744, 34 55.042 C 33.363 55.733, 27.035 57.577, 20.132 59.084 C 14.923 60.221, 5.308 59.908, 1.750 58.486 C 0.100 57.826, 0 60.239, 0 100.893 L 0 144 52.885 144 L 105.770 144 106.479 138.250 C 106.869 135.088, 108.509 128.362, 110.123 123.305 C 114.206 110.518, 118.108 89.585, 117.349 84.548 C 116.952 81.917, 115.735 79.557, 113.869 77.806 C 110.594 74.732, 110.416 73.644, 112.524 69.601 C 113.355 68.007, 113.861 66.528, 113.648 66.315 C 113.435 66.101, 110.871 66.868, 107.951 68.019 C 103.301 69.852, 102.537 69.924, 101.795 68.597 C 101.328 67.765, 100.284 67.338, 99.474 67.649 C 98.663 67.960, 98 67.716, 98 67.107 C 98 66.498, 96.452 66, 94.560 66 C 91.282 66, 80.201 62.507, 73.258 59.284 C 71.475 58.457, 69.381 58.023, 68.605 58.321 C 66.726 59.042, 63.505 56.610, 64.406 55.152 C 65.484 53.408, 71.216 53.771, 76.123 55.893 C 83.165 58.940, 96.270 61.690, 96.759 60.224 C 96.983 59.551, 98.029 59, 99.083 59 C 100.138 59, 101 58.563, 101 58.029 C 101 57.462, 104.389 57.150, 109.136 57.279 C 116.214 57.471, 117.308 57.272, 117.548 55.750 C 117.699 54.788, 117.260 54, 116.572 54 C 115.283 54, 112.483 49.181, 112.867 47.625 C 112.986 47.144, 112.336 45.924, 111.422 44.914 C 110.209 43.573, 109.948 42.193, 110.456 39.789 C 111.181 36.356, 111.295 32.892, 110.795 29.500 C 110.352 26.498, 114.409 27.164, 123.463 31.579 C 132.260 35.869, 133.582 37.711, 135.093 47.783 C 135.647 51.477, 136.348 56.169, 136.651 58.208 C 137.049 60.885, 138.148 62.638, 140.601 64.509 C 143.367 66.619, 144.007 67.790, 144.035 70.801 C 144.055 72.835, 144.714 75.625, 145.500 77 C 146.400 78.574, 146.969 82.649, 147.038 88 C 147.097 92.675, 147.482 98.862, 147.894 101.750 C 148.305 104.638, 148.286 107, 147.852 107 C 147.418 107, 147.345 107.788, 147.691 108.750 C 148.036 109.713, 147.968 110.184, 147.540 109.798 C 146.629 108.975, 144 111.342, 144 112.986 C 144 113.607, 146.424 119.377, 149.387 125.808 C 152.349 132.238, 155.087 138.973, 155.471 140.772 L 156.169 144.044 174.334 143.772 L 192.500 143.500 192.825 129 C 193.003 121.025, 192.837 88.737, 192.455 57.250 L 191.761 0 127.527 -0 L 63.294 -0 63.755 4.805 M 0.459 101 C 0.459 124.925, 0.589 134.713, 0.749 122.750 C 0.908 110.788, 0.908 91.213, 0.749 79.250 C 0.589 67.288, 0.459 77.075, 0.459 101 M 138.556 81.304 C 137.526 84.916, 138.718 96.051, 140.304 97.638 C 141.184 98.518, 141.056 90.075, 140.090 83.500 C 139.412 78.886, 139.294 78.716, 138.556 81.304" stroke="none" fill="black" fill-rule="evenodd"/>
</svg>