<svg xmlns="http://www.w3.org/2000/svg" width="192" height="144" viewBox="0 0 192 144" version="1.1">
	<path d="M 0 72.011 L 0 144.022 41.671 143.761 L 83.342 143.500 84.756 137.500 C 86.443 130.340, 85.787 114.825, 83.408 105.645 C 81.606 98.691, 81.919 96.260, 85.977 85.722 C 87.609 81.485, 88.712 77.414, 88.429 76.675 C 88.126 75.887, 89.540 74.205, 91.853 72.602 C 96.124 69.642, 98.053 64.256, 95.396 62.711 C 93.213 61.442, 88.910 53.398, 89.538 51.762 C 89.893 50.836, 89.419 50.081, 88.299 49.788 C 85.701 49.109, 82.570 42.848, 83.325 39.841 C 85.142 32.602, 91.974 26.775, 100.812 24.927 C 108.406 23.338, 114.208 24.854, 119.231 29.740 C 125.146 35.493, 126.489 40.849, 126.566 59 C 126.602 67.525, 127.161 87.325, 127.807 103 C 128.454 118.675, 128.699 134.319, 128.352 137.764 L 127.721 144.028 160.110 143.764 L 192.500 143.500 192.757 71.750 L 193.013 0 96.507 0 L 0 0 0 72.011 M 0.474 72.500 C 0.474 112.100, 0.598 128.154, 0.750 108.176 C 0.901 88.198, 0.901 55.798, 0.750 36.176 C 0.598 16.554, 0.474 32.900, 0.474 72.500" stroke="none" fill="black" fill-rule="evenodd"/>
</svg>