<svg xmlns="http://www.w3.org/2000/svg" width="192" height="144" viewBox="0 0 192 144" version="1.1">
	<path d="M 158.293 100.627 C 159.108 101.441, 156.457 106.543, 153.880 109.120 C 152.553 110.447, 152.181 111.537, 152.789 112.317 C 154.468 114.470, 156.245 123.418, 155.071 123.810 C 153.733 124.256, 153.672 131.006, 154.975 134.435 C 155.512 135.846, 156.587 137, 157.364 137 C 158.188 137, 159.051 138.460, 159.434 140.500 L 160.091 144 166.612 144 L 173.133 144 172.850 137.050 C 172.694 133.228, 172.910 129.756, 173.332 129.335 C 173.753 128.914, 176.438 128.679, 179.299 128.813 C 182.159 128.947, 186.188 128.779, 188.250 128.440 C 191.490 127.908, 192 127.462, 192.001 125.162 L 192.002 122.500 183.983 122.784 C 174.157 123.133, 173.761 122.564, 177.438 113.379 C 178.896 109.736, 179.924 106.591, 179.722 106.389 C 179.520 106.187, 177.871 109.617, 176.057 114.011 C 173.497 120.210, 172.313 122, 170.771 122 C 169.122 122, 168.896 121.550, 169.446 119.359 C 169.810 117.907, 169.807 114.307, 169.439 111.359 C 168.903 107.067, 168.404 106, 166.932 106 C 163.746 106, 160 103.752, 160 101.839 C 160 100.828, 159.475 100, 158.833 100 C 158.192 100, 157.949 100.282, 158.293 100.627 M 97 102.854 C 97 103.874, 95.963 105.826, 94.696 107.193 C 93.430 108.561, 92.495 110.089, 92.621 110.589 C 92.746 111.090, 93.032 114.088, 93.256 117.250 C 93.564 121.577, 93.335 123, 92.332 123 C 90.288 123, 90.751 127.465, 93.008 129.507 C 94.733 131.068, 94.948 132.218, 94.533 137.662 L 94.049 144 100.632 144 C 106.510 144, 107.136 143.813, 106.488 142.250 C 105.623 140.166, 105.646 139.558, 106.756 135 C 107.653 131.321, 109.368 130.784, 114.719 132.504 C 118.010 133.562, 123.558 127.910, 122.030 125.056 C 121.221 123.545, 120.290 123.192, 118.207 123.609 C 116.206 124.009, 114.937 123.588, 113.559 122.066 C 112.070 120.419, 110.953 120.106, 108.332 120.597 C 105.263 121.173, 105 121.021, 105 118.670 C 105 117.267, 105.389 115.878, 105.864 115.584 C 107.285 114.706, 106.905 107, 105.441 107 C 104.733 107, 102.804 105.650, 101.154 104 C 97.661 100.507, 97 100.325, 97 102.854 M 180 103.500 C 180 104.325, 180.177 105, 180.393 105 C 180.609 105, 181.045 104.325, 181.362 103.500 C 181.678 102.675, 181.501 102, 180.969 102 C 180.436 102, 180 102.675, 180 103.500 M 34.620 108.377 C 34.056 110.623, 29.676 114.389, 27.500 114.498 C 26.950 114.526, 26.642 115.437, 26.815 116.524 C 26.989 117.611, 27.100 119.588, 27.063 120.918 C 27.025 122.248, 27.558 124.048, 28.247 124.918 C 28.936 125.788, 30.048 127.482, 30.717 128.683 C 31.747 130.531, 31.674 130.916, 30.246 131.191 C 29.280 131.377, 27.893 133.431, 27.002 135.993 C 25.788 139.487, 24.792 140.666, 22.473 141.360 C 15.213 143.533, 16.080 143.868, 29.143 143.932 C 40.702 143.990, 42.879 143.758, 43.393 142.418 C 44.381 139.844, 44.095 137.085, 42.526 134.051 C 41.227 131.538, 41.228 131.056, 42.535 129.971 C 44.679 128.191, 43.984 116.130, 41.661 114.830 C 40.748 114.319, 40 113.232, 40 112.415 C 40 110.645, 37.099 106, 35.993 106 C 35.566 106, 34.948 107.070, 34.620 108.377 M 0 142.500 C 0 143.452, 0.958 144, 2.622 144 C 4.840 144, 5.053 143.768, 4 142.500 C 3.315 141.675, 2.135 141, 1.378 141 C 0.620 141, 0 141.675, 0 142.500" stroke="none" fill="black" fill-rule="evenodd"/>
</svg>