<svg xmlns="http://www.w3.org/2000/svg" width="192" height="144" viewBox="0 0 192 144" version="1.1">
	<path d="M 0 72 L 0 144 59.863 144 L 119.726 144 120.404 137.250 C 120.776 133.537, 121.212 129.326, 121.371 127.892 C 121.531 126.457, 122.615 123.740, 123.781 121.854 C 125.054 119.794, 126.171 115.789, 126.577 111.825 L 127.253 105.225 122.106 103.716 C 115.981 101.920, 112.689 102.959, 110.902 107.250 C 109.885 109.694, 109.238 110, 105.089 110 C 102.521 110, 97.738 110.746, 94.460 111.657 C 87.741 113.525, 84.341 113.586, 78.364 111.942 C 74.998 111.016, 73.789 111.078, 71.864 112.275 C 68.472 114.386, 58.742 113.982, 56.134 111.621 C 54.762 110.380, 51.443 109.492, 45.820 108.863 C 38.468 108.040, 37.148 107.570, 34.175 104.718 C 30.647 101.333, 26 93.209, 26 90.427 C 26 89.526, 24.875 87.903, 23.500 86.821 C 20.613 84.551, 20.051 79.032, 22.500 77 C 23.325 76.315, 24 74.421, 24 72.790 C 24 70.534, 25.136 68.778, 28.750 65.447 C 31.363 63.039, 34.288 60.799, 35.250 60.467 C 37.071 59.841, 37.836 54, 36.098 54 C 35.602 54, 34.699 52.576, 34.092 50.835 C 33.204 48.287, 33.282 47.345, 34.494 46.006 C 35.323 45.091, 36.002 43.703, 36.004 42.921 C 36.006 42.140, 36.841 40.134, 37.859 38.464 C 39.702 35.441, 40.612 32.108, 41.669 24.500 C 41.975 22.300, 42.715 19.894, 43.315 19.154 C 43.914 18.414, 44.298 14.934, 44.168 11.420 C 44 6.852, 44.402 4.316, 45.581 2.516 L 47.230 0 23.615 0 L 0 0 0 72 M 127.576 3.750 C 128.522 9.073, 129.408 9.551, 132.383 6.343 C 133.822 4.791, 135 3.784, 135 4.107 C 135 5.232, 131.866 10.965, 130.937 11.539 C 130.422 11.858, 130 13.072, 130 14.238 C 130 16.846, 128.242 22.546, 126.275 26.319 C 125.467 27.870, 125.051 29.384, 125.351 29.685 C 126.137 30.470, 130.928 24.785, 130.984 23 C 131.025 21.667, 131.138 21.667, 132 23 C 132.828 24.282, 132.972 24.246, 132.985 22.750 C 133.003 20.711, 133.422 20.620, 136.130 22.069 C 138.581 23.381, 139.899 22.421, 144.012 16.326 C 146.885 12.070, 148.205 8.369, 148.148 4.728 C 148.133 3.754, 148.447 3.158, 148.846 3.405 C 149.245 3.651, 149.571 2.986, 149.571 1.927 C 149.571 0.138, 148.761 -0, 138.240 -0 L 126.909 -0 127.576 3.750 M 151.338 1.845 C 151.049 2.755, 150.344 4.752, 149.772 6.282 C 149.199 7.812, 148.929 9.263, 149.172 9.505 C 149.571 9.904, 153.683 6.646, 158.246 2.316 C 160.573 0.107, 161.269 1.027, 159.740 4.290 C 159.058 5.745, 156.566 7.931, 154.203 9.149 C 151.840 10.366, 148.577 13.170, 146.953 15.378 C 143.781 19.691, 142.972 23.608, 145.449 22.658 C 146.418 22.286, 146.714 22.582, 146.342 23.551 C 146.036 24.348, 145.456 25, 145.053 25 C 144.650 25, 143.731 26.785, 143.011 28.967 C 142.291 31.149, 141.312 32.693, 140.835 32.398 C 140.358 32.103, 140.292 31.330, 140.689 30.681 C 141.086 30.031, 140.028 30.658, 138.338 32.074 C 136.648 33.489, 133.895 35.215, 132.219 35.909 C 128.011 37.652, 124.902 46.116, 127.276 49.363 C 128.404 50.905, 128.910 50.771, 133.187 47.794 C 136.730 45.328, 138.019 43.711, 138.504 41.126 C 139.088 38.013, 141.579 34.237, 142.458 35.131 C 142.658 35.334, 142.275 37.082, 141.609 39.016 L 140.397 42.532 151.260 37.151 C 159.930 32.857, 162.640 30.990, 164.682 27.905 C 166.467 25.208, 167.081 23.206, 166.715 21.288 C 166.254 18.876, 166.345 18.751, 167.455 20.269 C 169.210 22.670, 169.539 22.468, 169.817 18.816 C 169.951 17.066, 170.551 15.041, 171.152 14.316 C 172.539 12.645, 175.140 12.599, 174.925 14.250 C 174.529 17.304, 175.081 18.024, 177.484 17.589 C 178.849 17.341, 180.424 16.856, 180.984 16.510 C 181.543 16.165, 182 16.584, 182 17.441 C 182 18.298, 181.175 19, 180.167 19 C 179.158 19, 178.032 19.301, 177.664 19.669 C 176.807 20.527, 179.918 24, 181.544 24 C 182.223 24, 182.757 24.563, 182.731 25.250 C 182.706 25.938, 182.756 28.924, 182.842 31.886 L 183 37.273 185.636 34.636 C 188.912 31.361, 189.641 31.341, 190.246 34.509 C 190.627 36.500, 190.454 36.792, 189.407 35.923 C 187.559 34.389, 186 35.651, 186 38.681 C 186 40.812, 186.246 41.041, 187.456 40.036 C 188.257 39.372, 189.409 39.135, 190.016 39.510 C 190.749 39.963, 190.511 40.653, 189.310 41.564 C 187.604 42.857, 187.630 42.938, 189.750 42.968 L 192 43 192 21.500 L 192 0 181.456 0 C 171.595 0, 170.738 0.162, 168.217 2.500 C 166.734 3.875, 164.841 4.982, 164.010 4.960 C 163.177 4.938, 163.734 4.251, 165.250 3.428 C 166.762 2.607, 168 1.543, 168 1.063 C 168 0.583, 164.369 0.190, 159.932 0.190 C 153.304 0.190, 151.770 0.486, 151.338 1.845 M 178.459 14.067 C 178.096 14.653, 178.070 15.403, 178.400 15.733 C 178.730 16.063, 179 15.822, 179 15.198 C 179 14.550, 179.714 14.337, 180.664 14.701 C 181.783 15.131, 182.091 14.957, 181.605 14.170 C 180.703 12.711, 179.325 12.666, 178.459 14.067 M 183.507 14.989 C 183.157 15.555, 183.558 15.723, 184.448 15.382 C 186.180 14.717, 186.497 14, 185.059 14 C 184.541 14, 183.843 14.445, 183.507 14.989 M 181 21 C 181 21.550, 181.450 22, 182 22 C 182.550 22, 183 21.550, 183 21 C 183 20.450, 182.550 20, 182 20 C 181.450 20, 181 20.450, 181 21 M 173.911 22.168 C 172.823 22.927, 172.787 23.269, 173.756 23.662 C 175.483 24.362, 174.292 26, 172.056 26 C 171.052 26, 169.526 27.074, 168.666 28.387 C 167.806 29.700, 165.480 31.776, 163.498 33.001 C 161.516 34.226, 160.088 35.421, 160.324 35.657 C 160.958 36.291, 168 32.766, 168 31.815 C 168 31.367, 168.498 31, 169.107 31 C 169.716 31, 169.989 31.586, 169.714 32.303 C 169.374 33.189, 170.275 33.677, 172.532 33.829 C 174.960 33.993, 176.255 33.474, 177.361 31.894 C 178.713 29.965, 178.709 29.485, 177.322 27.368 C 175.911 25.216, 176.160 24.552, 178.250 24.882 C 179.686 25.108, 178.987 23.473, 177.161 22.332 C 175.928 21.563, 174.855 21.508, 173.911 22.168 M 125.250 31.706 C 123.479 32.047, 123 32.816, 123.001 35.320 L 123.002 38.500 125.501 35.594 C 127.516 33.251, 128.899 30.510, 127.750 31.136 C 127.612 31.211, 126.487 31.467, 125.250 31.706 M 178.497 32.005 C 178.076 32.685, 178.352 33.609, 179.122 34.096 C 180.638 35.057, 179.485 35.372, 175.500 35.087 C 173.647 34.954, 173.630 35.024, 175.271 36.033 C 176.245 36.633, 176.813 37.494, 176.532 37.948 C 176.252 38.402, 176.661 39.303, 177.441 39.951 C 179.956 42.038, 182.206 35.452, 180.110 32.143 C 179.448 31.100, 179.076 31.068, 178.497 32.005 M 165 36.131 C 163.625 36.683, 161.150 37.165, 159.500 37.202 C 157.850 37.239, 155.243 37.905, 153.708 38.682 C 148.775 41.178, 137.601 48.757, 134.206 51.909 C 130.655 55.206, 130.717 55.862, 135.050 60.943 L 137.133 63.386 141.316 61.261 C 158.083 52.749, 162.487 51, 167.163 51 C 169.901 51, 172 50.540, 172 49.941 C 172 49.359, 172.404 49.132, 172.898 49.437 C 173.392 49.743, 175.305 48.554, 177.148 46.796 C 179.594 44.464, 180.094 43.506, 179 43.253 C 178.175 43.062, 176.397 41.127, 175.049 38.953 C 172.442 34.749, 170.088 34.087, 165 36.131 M 113.122 39.904 C 112.364 40.384, 112.021 41.225, 112.359 41.773 C 112.698 42.320, 113.051 44.782, 113.144 47.242 C 113.263 50.377, 113.865 52.059, 115.157 52.866 C 116.653 53.800, 117 53.722, 117 52.449 C 117 51.587, 116.531 51.172, 115.958 51.526 C 115.254 51.961, 115.109 50.034, 115.509 45.585 C 116.097 39.039, 115.759 38.233, 113.122 39.904 M 157 45 C 157 45.550, 157.477 46, 158.059 46 C 158.641 46, 158.840 45.550, 158.500 45 C 158.160 44.450, 157.684 44, 157.441 44 C 157.198 44, 157 44.450, 157 45 M 187.250 44.662 C 185.327 45.438, 185.769 47.557, 187.888 47.717 C 189.288 47.822, 189.645 47.360, 189.271 45.929 C 188.994 44.868, 188.707 44.036, 188.633 44.079 C 188.560 44.122, 187.938 44.385, 187.250 44.662 M 190.446 45.087 C 190.077 45.685, 190.275 46.675, 190.887 47.287 C 191.704 48.104, 192 47.815, 192 46.200 C 192 43.785, 191.481 43.413, 190.446 45.087 M 179.750 47.758 C 178.787 47.972, 178 48.572, 178 49.092 C 178 49.860, 182.695 49.366, 183.793 48.483 C 184.456 47.950, 181.373 47.397, 179.750 47.758 M 156.750 56.080 C 154.508 57.386, 154.371 60.455, 156.593 59.603 C 157.469 59.267, 159.236 58.728, 160.521 58.405 C 161.805 58.083, 163.099 57.185, 163.396 56.410 C 164.046 54.718, 159.478 54.491, 156.750 56.080 M 167.053 55.968 C 165.276 57.065, 167.098 57.896, 169.427 57.050 C 171.001 56.478, 171.076 56.243, 169.836 55.767 C 169.002 55.447, 167.749 55.537, 167.053 55.968 M 152 58.500 C 150.980 59.729, 151.049 60, 152.378 60 C 153.270 60, 154 59.325, 154 58.500 C 154 57.675, 153.830 57, 153.622 57 C 153.415 57, 152.685 57.675, 152 58.500 M 187 60.009 C 185.075 61.062, 182.150 62.578, 180.500 63.379 C 176.172 65.480, 168.498 73.161, 164.925 78.968 C 163.230 81.722, 160.532 84.909, 158.929 86.050 L 156.015 88.126 158.757 91.563 C 160.713 94.014, 162.360 95.033, 164.500 95.116 C 166.150 95.180, 166.730 95.434, 165.788 95.682 C 164.494 96.022, 164.215 96.826, 164.645 98.974 C 165.078 101.140, 164.747 102.065, 163.254 102.864 C 161.767 103.660, 161.139 105.394, 160.652 110.053 C 159.862 117.616, 160.603 121, 163.049 121 C 165.486 121, 166.543 122.854, 164.544 123.622 C 163.542 124.006, 163.059 125.197, 163.230 126.865 C 163.402 128.546, 163.048 129.410, 162.250 129.250 C 160.667 128.933, 160.659 131.976, 162.227 138.721 L 163.455 144 177.727 144 L 192 144 192 101 C 192 77.350, 191.662 58.022, 191.250 58.048 C 190.838 58.074, 188.925 58.957, 187 60.009 M 160 60.385 C 155.277 61.656, 155.137 61.880, 156.396 66.178 C 157.468 69.837, 159.025 70.179, 163.732 67.788 C 167.252 66, 167.718 65.363, 167.504 62.624 C 167.222 59.012, 166.218 58.712, 160 60.385 M 123 92.694 C 121.145 93.357, 119 95.976, 119 97.578 C 119 98.235, 121.088 99.086, 123.640 99.469 C 129.388 100.331, 130.736 98.842, 127.861 94.805 C 125.799 91.909, 125.527 91.791, 123 92.694 M 140.118 111.750 C 140.216 116.482, 140.372 116.969, 141 114.500 C 142.134 110.042, 142.134 106, 141 106 C 140.436 106, 140.052 108.504, 140.118 111.750" stroke="none" fill="black" fill-rule="evenodd"/>
</svg>