<svg xmlns="http://www.w3.org/2000/svg" width="192" height="144" viewBox="0 0 192 144" version="1.1">
	<path d="M 0 72 L 0 144 33 144 L 66 144 66 138.447 C 66 134.171, 65.425 132.047, 63.500 129.215 C 60.603 124.951, 60.372 121.747, 62.582 116.459 C 63.866 113.386, 63.934 112.245, 62.945 110.397 C 62.270 109.135, 61.996 106.772, 62.330 105.099 C 62.663 103.437, 62.539 101.833, 62.056 101.534 C 60.815 100.767, 63.166 95, 64.719 95 C 65.505 95, 66 93.708, 66 91.661 C 66 89.116, 66.565 88.064, 68.375 87.239 C 70.463 86.288, 70.836 85.239, 71.460 78.578 C 71.851 74.410, 72.511 71, 72.927 71 C 73.343 71, 74.255 69.091, 74.954 66.758 C 75.653 64.425, 76.849 61.625, 77.613 60.536 C 78.659 59.041, 79.001 54.497, 79.006 42.027 C 79.011 25.174, 79.998 18.322, 82.562 17.338 C 83.655 16.919, 84 14.769, 84 8.393 L 84 0 42 0 L 0 0 0 72 M 83.335 49.250 C 83.315 65.338, 83.484 76.305, 83.709 73.623 C 83.935 70.941, 84.815 67.686, 85.664 66.390 C 86.876 64.540, 86.982 63.387, 86.156 61.017 C 85.400 58.849, 85.414 58, 86.207 58 C 86.868 58, 86.717 57.299, 85.831 56.250 C 84.583 54.772, 84.487 52.167, 85.213 39.500 C 85.687 31.250, 85.824 23.488, 85.518 22.250 C 83.928 15.815, 83.367 22.747, 83.335 49.250 M 80 81 C 80 81.550, 80.675 82, 81.500 82 C 82.801 82, 83 86.111, 83 113 L 83 144 96 144 C 104 144, 109 143.615, 109 143 C 109 142.450, 108.100 142, 107 142 C 105.900 142, 105 141.585, 105 141.077 C 105 140.569, 103.843 138.778, 102.429 137.097 C 100.188 134.435, 99.871 133.171, 99.964 127.271 C 100.023 123.547, 99.874 118.025, 99.632 115 C 99.331 111.218, 99.656 108.772, 100.673 107.169 C 101.486 105.887, 101.928 104.255, 101.654 103.541 C 101.380 102.828, 101.638 101.762, 102.227 101.173 C 102.987 100.413, 102.820 99.374, 101.649 97.587 C 100.742 96.203, 100 94.191, 100 93.117 C 100 89.111, 98.896 88, 94.916 88 C 91.871 88, 90.690 87.456, 89.375 85.449 C 86.921 81.705, 80 78.420, 80 81 M 94.105 119.921 C 91.915 121.573, 91.880 121.739, 93.623 122.237 C 94.655 122.532, 96.287 123.097, 97.250 123.494 C 98.571 124.037, 99 123.727, 99 122.229 C 99 118.927, 96.799 117.889, 94.105 119.921 M 62.379 121.455 C 61.702 123.218, 63.741 128, 65.169 128 C 66.606 128, 66.071 122.304, 64.512 121.010 C 63.303 120.007, 62.902 120.091, 62.379 121.455" stroke="none" fill="black" fill-rule="evenodd"/>
</svg>