<svg xmlns="http://www.w3.org/2000/svg" width="192" height="144" viewBox="0 0 192 144" version="1.1">
	<path d="M 87.500 43.952 C 79.110 45.346, 69.837 49.313, 58.853 56.209 C 40.765 67.563, 27.771 72.967, 18.436 73.015 C 12.059 73.049, 13.050 74.688, 20.211 75.955 C 27.060 77.165, 34.625 80.201, 64.365 93.672 C 77.734 99.728, 87.424 102.152, 98.500 102.211 C 114.501 102.297, 125.410 98.588, 145.642 86.186 C 157.977 78.624, 164.621 75.999, 173.254 75.275 C 176.986 74.963, 179.870 74.537, 179.662 74.329 C 179.455 74.121, 176.050 73.055, 172.097 71.960 C 168.144 70.864, 158.663 66.839, 151.029 63.015 C 133.850 54.409, 117.935 47.213, 112 45.368 C 106.272 43.587, 93.971 42.876, 87.500 43.952 M 90.010 54.316 C 85.267 55.826, 78.408 62.905, 76.940 67.806 C 74.252 76.779, 79.094 87.944, 87.358 91.828 C 108.906 101.957, 127.618 74.536, 110.012 58.630 C 104.221 53.398, 97.467 51.941, 90.010 54.316" stroke="none" fill="black" fill-rule="evenodd"/>
</svg>