<svg xmlns="http://www.w3.org/2000/svg" width="192" height="144" viewBox="0 0 192 144" version="1.1">
	<path d="M 165.063 19.800 C 164.985 22.657, 162.210 28.218, 160.309 29.331 C 159.376 29.877, 159.212 30.562, 159.831 31.331 C 161.510 33.413, 162.289 40.946, 160.989 42.513 C 160.057 43.636, 160.059 45.076, 160.995 48.979 C 161.657 51.740, 162.579 54, 163.043 54 C 164.531 54, 163.509 60.780, 161.724 62.752 C 160.776 63.800, 160 65.099, 160 65.638 C 160 66.177, 158.425 69.233, 156.500 72.430 C 152.224 79.531, 152.148 81.310, 156 84.158 C 159.273 86.578, 159.829 89.067, 157.524 90.980 C 155.151 92.950, 151 102.591, 151 106.134 C 151 108.756, 151.905 110.188, 155.636 113.472 C 159.865 117.193, 160.271 117.945, 160.250 122.026 C 160.222 127.448, 161.805 129.491, 168.432 132.588 C 173.548 134.980, 175 134.934, 175 132.382 C 175 131.557, 174.537 131.168, 173.970 131.518 C 172.461 132.451, 164 127.191, 164 125.320 C 164 123.979, 164.857 123.825, 169.378 124.357 C 172.336 124.704, 176.724 125.882, 179.128 126.972 C 185.778 129.990, 193.102 129.314, 191.756 125.808 C 191.462 125.041, 187.797 122.721, 183.611 120.652 C 176.224 117.001, 174.918 115.786, 177 114.500 C 178.572 113.528, 178.171 110.461, 176.250 108.766 C 175.287 107.917, 173.011 106.906, 171.191 106.519 C 168.091 105.860, 167.924 105.615, 168.555 102.658 C 168.925 100.921, 169.852 97.983, 170.614 96.128 C 171.376 94.273, 172 91.505, 172 89.977 C 172 87.861, 172.835 86.705, 175.500 85.133 C 179.189 82.956, 179.598 81.985, 178.045 79.083 C 177.519 78.101, 176.790 74.419, 176.425 70.899 C 176.059 67.380, 175.556 64.152, 175.307 63.728 C 175.058 63.303, 175.609 60.684, 176.530 57.908 C 177.452 55.133, 177.996 51.757, 177.737 50.407 C 177.101 47.076, 177.970 46.786, 183.543 48.463 C 189.418 50.231, 192 49.196, 192 45.072 C 192 41.906, 190.573 41, 185.585 41 C 181.006 41, 180.571 40.057, 183.663 36.830 C 185.143 35.285, 186.005 33.679, 185.577 33.260 C 185.150 32.842, 183.335 34.188, 181.544 36.250 C 177.747 40.623, 173.234 41.587, 174.522 37.750 C 174.937 36.513, 175.384 33.138, 175.514 30.250 C 175.693 26.263, 175.408 25, 174.325 25 C 171.726 25, 166.910 21.928, 166.012 19.698 L 165.127 17.500 165.063 19.800 M 107.311 20.918 C 107.035 21.973, 105.570 23.350, 104.056 23.977 C 101.372 25.088, 101.310 25.296, 101.613 32.162 C 101.895 38.545, 101.733 39.257, 99.888 39.740 C 98.213 40.177, 97.991 40.737, 98.634 42.886 C 99.887 47.067, 98.714 64.597, 96.436 75.759 C 96.015 77.820, 96.232 79.575, 97.027 80.532 C 97.949 81.643, 98.103 84.438, 97.606 91.023 C 97.189 96.541, 97.297 100, 97.885 100 C 98.411 100, 99.157 101.440, 99.544 103.200 C 99.931 104.961, 101.620 107.773, 103.299 109.450 C 106.091 112.240, 106.921 112.500, 113.016 112.500 C 117.095 112.500, 120.306 113.017, 121.292 113.833 C 123.163 115.380, 126.147 115.061, 126.750 113.250 C 127.019 112.443, 126.145 112, 124.283 112 C 120.811 112, 119 110.396, 119 107.319 C 119 105.720, 118.253 104.851, 116.500 104.411 C 113.478 103.652, 113.357 102.883, 116 101.232 C 117.100 100.545, 118 99.117, 118 98.059 C 118 97.001, 117.100 95.849, 116 95.500 C 114.300 94.961, 114 93.987, 114 89.014 C 114 85.796, 113.731 82.462, 113.402 81.605 C 112.999 80.555, 113.685 79.645, 115.506 78.815 C 117.921 77.715, 118.153 77.177, 117.693 73.746 C 117.410 71.634, 115.564 66.508, 113.591 62.354 C 111.618 58.200, 110.285 54.348, 110.628 53.793 C 110.983 53.219, 112.885 53.046, 115.043 53.391 C 117.621 53.803, 118.995 53.598, 119.338 52.749 C 119.615 52.062, 119.878 52.737, 119.921 54.250 C 120.016 57.569, 122.136 57.864, 125.036 54.964 C 127.263 52.737, 126.871 51, 124.141 51 C 121.882 51, 120 49.080, 120 46.775 C 120 45.734, 118.892 44.529, 117.419 43.969 C 115.999 43.429, 115.026 42.428, 115.256 41.744 C 115.487 41.060, 115.098 40.050, 114.392 39.500 C 113.352 38.689, 113.382 37.466, 114.555 33.032 C 115.984 27.625, 115.972 27.540, 113.500 25.416 C 112.125 24.234, 111 22.307, 111 21.134 C 111 18.442, 108.004 18.267, 107.311 20.918 M 43.667 23.667 C 43.300 24.033, 43 25.080, 43 25.992 C 43 27.863, 38.996 32, 37.186 32 C 35.700 32, 35.636 33.657, 37.087 34.554 C 37.685 34.923, 37.944 36.105, 37.663 37.180 C 37.367 38.311, 38.179 40.648, 39.588 42.725 C 41.816 46.007, 41.890 46.464, 40.457 48.047 C 39.595 49, 39.027 50.990, 39.195 52.470 C 39.464 54.846, 38.956 55.369, 34.826 56.954 C 26.755 60.053, 23.629 60.283, 20.715 57.990 C 18.213 56.022, 17.857 56.003, 10.875 57.459 C 3.070 59.086, 1.629 59.880, 2.485 62.083 C 3.156 63.810, 38.747 82.068, 41.367 82.028 C 42.834 82.006, 43.093 82.481, 42.578 84.250 C 40.457 91.529, 40.630 92.608, 44.281 94.864 C 49.929 98.355, 50.640 99.680, 48.262 102.279 C 47.144 103.501, 45.927 105.501, 45.556 106.724 C 44.731 109.444, 40.512 112.555, 35.019 114.493 C 31.004 115.910, 30.809 115.874, 26.803 112.972 C 24.546 111.338, 21.872 110, 20.860 110 C 18.600 110, 6 114.965, 6 115.856 C 6 116.210, 7.688 117.833, 9.750 119.461 C 11.813 121.090, 19.199 127.277, 26.165 133.211 C 41.240 146.053, 42.721 146.445, 53.124 140.348 L 59.356 136.696 56.428 134.304 C 54.818 132.988, 52.263 131.160, 50.750 130.240 C 49.237 129.321, 48 128.288, 48 127.944 C 48 127.601, 49.827 126.717, 52.061 125.980 C 55.187 124.948, 56.246 124.020, 56.660 121.948 C 57.073 119.887, 58.084 118.992, 60.981 118.124 C 63.061 117.501, 65.367 116.263, 66.106 115.372 C 67.271 113.968, 66.973 113.340, 63.853 110.627 C 61.875 108.907, 59.243 105.410, 58.004 102.855 C 56.765 100.301, 54.625 96.997, 53.249 95.513 L 50.748 92.815 52.715 90.180 C 53.797 88.731, 55.991 87.275, 57.591 86.946 C 62.124 86.013, 65 84.107, 65 82.036 C 65 80.180, 59.030 69.162, 56.196 65.787 C 55.372 64.806, 54.657 61.514, 54.523 58.082 C 54.390 54.688, 53.606 51.048, 52.715 49.688 C 51.291 47.515, 51.290 47.139, 52.698 45.730 C 53.901 44.527, 54.065 43.301, 53.420 40.337 C 52.961 38.227, 52.671 35.724, 52.776 34.776 C 52.881 33.828, 52.074 32.575, 50.984 31.991 C 49.893 31.407, 48.985 30.158, 48.967 29.215 C 48.937 27.660, 45.779 23, 44.756 23 C 44.524 23, 44.033 23.300, 43.667 23.667 M 38 60.542 C 36.625 61.305, 34.712 61.945, 33.750 61.965 C 31.568 62.009, 31.460 63.579, 33.582 64.393 C 36.047 65.339, 39.284 65.049, 41.792 63.657 C 43.982 62.441, 44.004 62.314, 42.292 60.770 C 40.730 59.361, 40.179 59.332, 38 60.542 M 102.464 85.342 C 102.119 87.180, 101.986 89.993, 102.168 91.592 C 102.473 94.263, 102.826 94.500, 106.500 94.500 L 110.500 94.500 110.237 89.500 C 109.877 82.666, 109.508 82, 106.077 82 C 103.483 82, 103.008 82.439, 102.464 85.342 M 164.421 87.687 C 163.707 89.977, 163.331 90.617, 158.687 97.432 C 154.300 103.871, 154.359 107, 158.867 107 C 162.136 107, 164 105.365, 164 102.500 C 164 101.345, 164.412 99.972, 164.915 99.450 C 166.402 97.905, 167.367 87.345, 166.093 86.558 C 165.480 86.179, 164.733 86.683, 164.421 87.687 M 37.250 116.031 C 34.346 117.198, 34.402 118.562, 37.433 120.548 C 39.365 121.814, 40.307 121.906, 42.011 120.994 C 43.319 120.294, 43.930 119.260, 43.578 118.342 C 43.260 117.514, 43 116.423, 43 115.918 C 43 114.778, 40.233 114.832, 37.250 116.031" stroke="none" fill="black" fill-rule="evenodd"/>
</svg>