<svg xmlns="http://www.w3.org/2000/svg" width="192" height="144" viewBox="0 0 192 144" version="1.1">
	<path d="M 0 72 L 0 144 32.954 144 L 65.908 144 61.947 135.746 C 57.236 125.928, 52.634 108.458, 50.943 93.971 C 48.542 73.410, 50.736 49.083, 57.094 25.761 L 59.476 17.022 57.238 15.454 C 54.315 13.407, 54.406 11.436, 57.518 9.396 C 59.722 7.952, 60.811 7.899, 66.268 8.971 C 77.226 11.123, 96.408 16.988, 99.247 19.055 C 101.773 20.894, 112.970 23.848, 146 31.388 C 164.454 35.601, 163.625 35.535, 164.344 32.847 C 164.690 31.556, 164.979 29.275, 164.986 27.779 C 165.004 24.160, 169.097 15.164, 172.244 11.825 C 173.630 10.354, 176.615 8.596, 178.876 7.919 C 181.776 7.050, 183.568 5.702, 184.960 3.344 L 186.933 -0 93.466 -0 L 0 0 0 72 M 92.933 29.999 C 91.065 34.022, 86.063 49.831, 83.915 58.500 C 81.553 68.036, 80.470 99.259, 82.112 110.500 C 83.225 118.113, 86.653 129.187, 90.703 138.250 L 93.273 144 138.387 143.970 L 183.500 143.940 187.750 138.331 L 192 132.723 192 123.886 L 192 115.050 182.499 105.775 C 173.790 97.274, 172.998 96.183, 172.999 92.700 C 173 87.761, 174.809 84.410, 181.556 76.849 C 184.761 73.257, 186.855 70.064, 186.541 69.246 C 186.243 68.471, 186 66.788, 186 65.507 C 186 63.885, 185.485 63.253, 184.304 63.426 C 183.372 63.563, 182.442 64.173, 182.240 64.781 C 182.037 65.390, 181.225 65.640, 180.435 65.337 C 179.646 65.034, 179 65.311, 179 65.952 C 179 66.593, 178.528 66.827, 177.952 66.470 C 177.376 66.114, 176.996 65.075, 177.108 64.161 C 177.221 63.248, 176.850 61.375, 176.285 60 C 175.019 56.922, 175.735 51.464, 177.609 49.910 C 179.387 48.434, 179.420 45, 177.655 45 C 176.915 45, 175.453 45.962, 174.405 47.138 C 172.570 49.197, 167.167 52, 165.032 52 C 164.463 52, 164 49.804, 164 47.108 L 164 42.215 157.250 40.647 C 153.537 39.784, 140.114 36.576, 127.419 33.517 C 114.725 30.458, 102.033 27.853, 99.216 27.727 C 94.621 27.522, 93.974 27.756, 92.933 29.999 M 188.466 90.038 C 186.663 92.030, 186.682 92.136, 189.311 94.765 L 192 97.455 192 92.727 C 192 87.534, 191.249 86.962, 188.466 90.038" stroke="none" fill="black" fill-rule="evenodd"/>
</svg>