<svg xmlns="http://www.w3.org/2000/svg" width="192" height="144" viewBox="0 0 192 144" version="1.1">
	<path d="M 0 72 L 0 144 3.877 144 L 7.754 144 9.346 137.750 C 10.756 132.219, 10.767 131.370, 9.447 130.374 C 8.235 129.458, 8.169 128.708, 9.096 126.374 C 11.082 121.367, 11.790 117.190, 10.816 116.216 C 10.232 115.632, 10.591 114, 11.768 111.889 C 14.028 107.837, 16.294 99.284, 15.463 97.940 C 15.137 97.413, 15.167 96.048, 15.530 94.907 C 16.248 92.642, 28.082 86.450, 33.709 85.395 C 35.519 85.055, 37 84.377, 37 83.889 C 37 82.431, 27.727 82.894, 24.636 84.506 C 20.721 86.548, 18.439 86.384, 14.962 83.814 C 12.121 81.714, 11.868 81.692, 8.548 83.276 C 5.660 84.653, 5.184 84.684, 5.653 83.462 C 5.962 82.658, 6.573 82, 7.011 82 C 8.981 82, 18.082 60.887, 17.973 56.568 C 17.958 55.981, 15.043 54.203, 11.495 52.619 C 6.340 50.316, 5.075 49.312, 5.195 47.619 C 5.278 46.453, 5.013 44.487, 4.606 43.250 C 3.997 41.400, 4.235 41, 5.946 41 C 7.091 41, 8.809 40.550, 9.764 40 C 10.719 39.451, 12.737 38.562, 14.250 38.025 C 16.604 37.190, 17 36.496, 17 33.206 C 17 20.358, 25.924 9, 36.019 9 C 38.303 9, 39.995 8.028, 42.546 5.250 C 44.441 3.188, 45.993 1.163, 45.995 0.750 C 45.998 0.337, 35.650 0, 23 0 L 0 0 0 72 M 53 0.540 C 53 0.837, 53.855 2.749, 54.901 4.790 C 56.420 7.756, 57.838 8.864, 61.971 10.316 C 68.031 12.445, 74.095 17.599, 77.623 23.619 C 80.519 28.561, 81.826 37.588, 80.110 40.794 C 79.149 42.590, 79.305 43.093, 81.122 44.065 C 82.764 44.944, 82.959 45.407, 81.949 46.031 C 80.855 46.707, 80.856 47.121, 81.952 48.443 C 83.062 49.780, 83.011 50.330, 81.638 51.847 C 79.394 54.327, 79.576 61.470, 82.022 66.859 C 84.064 71.360, 84.661 75.527, 83.128 74.579 C 81.584 73.625, 81.187 82.972, 82.575 87.584 C 83.314 90.039, 83.718 92.600, 83.472 93.274 C 82.646 95.539, 87.694 107.511, 89.412 107.361 C 91.285 107.197, 91.315 107.442, 89.974 112.007 C 89.014 115.271, 89.159 115.680, 92.179 118.244 C 94.701 120.386, 95.146 121.254, 94.206 122.194 C 92.297 124.103, 92.717 126.915, 96.224 135.743 L 99.500 143.986 145.750 143.993 L 192 144 192 72 L 192 0 177.583 0 C 166.961 0, 163.046 0.329, 162.708 1.250 C 162.342 2.250, 161.985 2.250, 160.925 1.250 C 159.899 0.282, 147.567 0, 106.300 0 C 76.985 0, 53 0.243, 53 0.540 M 78.500 88 C 78.840 88.550, 79.541 89, 80.059 89 C 80.577 89, 81 88.550, 81 88 C 81 87.450, 80.298 87, 79.441 87 C 78.584 87, 78.160 87.450, 78.500 88 M 28.200 134.200 C 27.540 134.860, 27 137.335, 27 139.700 C 27 143.647, 27.210 144, 29.561 144 C 32.045 144, 32.102 143.857, 31.444 139.250 C 30.659 133.746, 29.874 132.526, 28.200 134.200" stroke="none" fill="black" fill-rule="evenodd"/>
</svg>