<svg xmlns="http://www.w3.org/2000/svg" width="192" height="144" viewBox="0 0 192 144" version="1.1">
	<path d="M 164.001 13.595 C 161.527 15.009, 157.658 17.678, 155.403 19.526 C 146.995 26.416, 141.881 30.039, 133.060 35.357 C 125.302 40.034, 124 40.540, 124 38.878 C 124 36.252, 121.021 35.211, 119.792 37.407 C 119 38.822, 117.926 39.014, 113.666 38.501 C 106.797 37.674, 101.186 39.672, 98.250 43.988 C 95.873 47.482, 95.242 52.581, 97.110 53.203 C 97.806 53.435, 97.624 54.067, 96.621 54.899 C 95.291 56.003, 94.956 55.997, 94.622 54.863 C 91.159 43.113, 88.228 39.780, 80.693 39.022 C 75.665 38.517, 75.429 38.352, 73.278 33.852 C 68.777 24.436, 58.393 18.740, 49.897 21.028 C 41.013 23.420, 33.741 33.705, 33.600 44.077 C 33.534 48.955, 33.989 50.522, 36.511 54.103 C 41.646 61.397, 51.909 64.886, 59.611 61.958 C 61.931 61.076, 61.672 61.531, 57.926 64.917 C 55.492 67.117, 53.163 68.936, 52.750 68.959 C 52.337 68.982, 52 69.916, 52 71.035 C 52 72.155, 51.264 74.194, 50.365 75.566 C 48.302 78.715, 49.334 79.913, 52.017 77.484 C 53.597 76.054, 54.313 75.913, 55.249 76.849 C 56.175 77.775, 56.179 78.483, 55.270 79.940 C 54.341 81.427, 54.380 82.070, 55.452 82.960 C 56.201 83.582, 57.118 86.883, 57.490 90.295 C 58.253 97.305, 59.879 103.880, 61.319 105.776 C 61.975 106.640, 61.697 108.147, 60.458 110.448 C 58.815 113.499, 58.769 114.269, 60.002 118.007 C 61.076 121.261, 61.117 122.583, 60.188 124.071 C 58.676 126.491, 58.659 131.481, 60.154 133.875 C 61.066 135.335, 60.961 136.218, 59.654 138.084 C 57.817 140.706, 57.453 144, 59 144 C 59.550 144, 60 143.100, 60 142 C 60 139.256, 62.758 139.465, 63.294 142.250 C 63.664 144.170, 63.748 144.094, 63.864 141.736 C 63.939 140.216, 63.481 138.141, 62.846 137.125 C 61.934 135.665, 62.039 134.782, 63.346 132.916 C 65.147 130.345, 65.613 124, 64 124 C 62.698 124, 62.698 119.305, 64 118.500 C 65.383 117.646, 65.256 111.384, 63.810 109.068 C 61.996 106.163, 64.092 104.439, 71.119 103.056 C 74.465 102.398, 77.840 101.615, 78.620 101.316 C 79.794 100.865, 79.844 101.264, 78.913 103.636 C 78.150 105.580, 77.989 111.478, 78.413 122 C 78.929 134.810, 78.774 137.997, 77.519 140.364 C 76.683 141.940, 76 143.402, 76 143.614 C 76 143.826, 88.572 144, 103.937 144 L 131.875 144 137.431 137.451 C 140.486 133.849, 143.257 129.823, 143.588 128.504 C 144.666 124.211, 141.960 118.963, 134.756 111.380 L 127.746 104 129.403 94.750 C 130.315 89.663, 132.006 82.260, 133.161 78.301 C 135.224 71.231, 135.292 71.139, 136.985 73.230 L 138.708 75.358 141.822 71.929 C 145.270 68.131, 149.352 60.244, 150.442 55.272 C 151.508 50.406, 150.359 48.188, 146.110 46.915 C 142.856 45.940, 141.778 46.072, 138.225 47.885 C 131.820 51.153, 132.354 48.736, 139.404 42.546 C 144.810 37.800, 146.231 37.020, 148.449 37.577 C 150.238 38.026, 152.669 37.483, 156.040 35.882 C 161.535 33.274, 161.927 32.596, 159 30.768 C 156.633 29.289, 156.400 28, 158.500 28 C 160.311 28, 160.512 25.354, 158.750 24.708 C 157.936 24.410, 158.727 22.900, 161.021 20.375 C 167.056 13.735, 169.364 11, 168.924 11.012 C 168.691 11.019, 166.476 12.181, 164.001 13.595 M 86.500 67.532 C 82.652 70.687, 77.854 71.573, 72.806 70.060 C 70.606 69.401, 68.533 69.134, 68.200 69.467 C 67.867 69.799, 67.651 71.743, 67.721 73.786 C 68.117 85.506, 68.559 91.893, 69.006 92.339 C 69.638 92.972, 89.018 87.409, 90.019 86.308 C 90.422 85.863, 91.769 82.389, 93.012 78.586 C 95.087 72.240, 95.138 71.574, 93.636 70.476 C 92.736 69.818, 92 68.317, 92 67.140 C 92 64.355, 90.220 64.482, 86.500 67.532 M 61 114.500 C 61 116.056, 61.567 117, 62.500 117 C 63.433 117, 64 116.056, 64 114.500 C 64 112.944, 63.433 112, 62.500 112 C 61.567 112, 61 112.944, 61 114.500 M 109.126 118.315 C 107.379 122.684, 107.691 135.599, 109.615 138.535 C 112.641 143.154, 113.335 141.501, 112.671 131.250 C 112.324 125.888, 111.638 120.150, 111.146 118.500 L 110.252 115.500 109.126 118.315 M 124 126.941 C 124 128.559, 124.450 130.160, 125 130.500 C 125.595 130.868, 126 129.677, 126 127.559 C 126 125.602, 125.550 124, 125 124 C 124.450 124, 124 125.323, 124 126.941 M 128 125.559 C 128 126.416, 128.450 126.840, 129 126.500 C 129.550 126.160, 130 125.459, 130 124.941 C 130 124.423, 129.550 124, 129 124 C 128.450 124, 128 124.702, 128 125.559 M 60 128.500 C 60 131.292, 62.423 131.947, 63.393 129.418 C 64.407 126.775, 64.091 126, 62 126 C 60.533 126, 60 126.667, 60 128.500" stroke="none" fill="black" fill-rule="evenodd"/>
</svg>