<svg xmlns="http://www.w3.org/2000/svg" width="192" height="144" viewBox="0 0 192 144" version="1.1">
	<path d="M 0 72 L 0 144 9.833 144 L 19.666 144 22.813 137.898 C 24.987 133.684, 25.696 131.285, 25.104 130.148 C 24.131 128.276, 24.700 120.828, 25.878 120.028 C 26.304 119.737, 26.680 117.071, 26.713 114.103 C 26.755 110.339, 27.238 108.447, 28.308 107.847 C 32.290 105.619, 35.020 86.950, 31.717 84.535 C 30.686 83.781, 30.304 82.552, 30.668 81.160 C 31.124 79.418, 30.901 79.101, 29.580 79.608 C 28.039 80.199, 28.034 79.956, 29.516 76.252 C 30.483 73.835, 30.992 70.167, 30.807 66.958 C 30.522 62.039, 30.284 61.593, 27.500 60.764 C 25.850 60.273, 23.443 59.439, 22.151 58.912 C 19.912 57.998, 19.877 57.837, 21.401 55.511 C 22.280 54.169, 23 52.368, 23 51.510 C 23 50.652, 24.174 49.504, 25.608 48.959 C 28.016 48.044, 28.152 47.680, 27.384 44.234 C 25.236 34.600, 27.953 24.082, 34 18.619 C 40.290 12.936, 43.524 11.742, 53.995 11.238 L 63.500 10.781 68.584 5.838 C 74.352 0.232, 74.788 0.359, 77.537 8.457 C 78.453 11.156, 81.025 15.480, 83.252 18.066 C 87.682 23.207, 90.998 30.728, 90.999 35.633 C 91 37.835, 91.547 38.910, 92.840 39.248 C 94.229 39.611, 94.940 41.297, 95.736 46.115 C 96.455 50.459, 96.466 52.820, 95.771 53.500 C 95.088 54.169, 94.598 54.086, 94.292 53.250 C 94.040 52.562, 93.237 52, 92.507 52 C 91.408 52, 91.405 52.849, 92.486 56.947 C 94.206 63.468, 100.289 73.356, 104.605 76.648 C 108.652 79.735, 108.530 80.429, 104.204 78.921 C 101.467 77.967, 100.675 78.146, 97.747 80.379 C 94.633 82.755, 94.221 82.827, 91.590 81.463 C 87.933 79.565, 86.362 79.615, 85.579 81.653 C 84.999 83.166, 84.834 83.156, 83.646 81.531 C 82.113 79.434, 79.828 79.938, 75.116 83.414 L 71.871 85.808 77.395 87.875 C 80.433 89.011, 84.174 90.245, 85.709 90.617 C 90.878 91.867, 93.856 94.731, 94.191 98.776 C 94.450 101.897, 94.824 102.434, 96.500 102.093 C 97.600 101.870, 104.125 101.645, 111 101.593 C 122.421 101.508, 124.175 101.748, 131.325 104.379 C 144.107 109.081, 154.112 116.841, 162.596 128.634 C 165.024 132.007, 167.935 136.860, 169.066 139.417 L 171.123 144.066 181.811 143.783 L 192.500 143.500 192.757 71.750 L 193.013 0 96.507 0 L 0 0 0 72 M 0.474 72.500 C 0.474 112.100, 0.598 128.154, 0.750 108.176 C 0.901 88.198, 0.901 55.798, 0.750 36.176 C 0.598 16.554, 0.474 32.900, 0.474 72.500 M 125.058 59.860 C 124.328 61.622, 124.004 63.337, 124.337 63.671 C 125.081 64.414, 127.199 59.097, 126.725 57.676 C 126.538 57.115, 125.788 58.098, 125.058 59.860 M 81.787 141 C 81.373 143.820, 81.546 144, 84.673 144 C 88.697 144, 89.100 141.951, 85.535 139.615 C 82.310 137.502, 82.300 137.506, 81.787 141" stroke="none" fill="black" fill-rule="evenodd"/>
</svg>