<svg xmlns="http://www.w3.org/2000/svg" width="192" height="144" viewBox="0 0 192 144" version="1.1">
	<path d="M 93.471 11.091 C 93.106 12.241, 91.337 13.797, 89.541 14.547 C 86.488 15.823, 86.294 16.192, 86.579 20.187 C 86.746 22.538, 87.360 24.620, 87.942 24.814 C 88.524 25.008, 89 26.246, 89 27.564 C 89 30.246, 86.796 31.122, 81.022 30.734 C 78.509 30.565, 77.531 30.916, 77.498 32 C 77.464 33.098, 76.452 33.441, 73.726 33.280 C 70.245 33.074, 70 33.247, 70 35.907 C 70 39.636, 72.767 42.169, 74.146 39.703 C 75.539 37.215, 77 37.623, 77 40.500 C 77 43.368, 77.818 43.605, 80.559 41.532 C 83.889 39.013, 85.823 39.676, 87.045 43.756 C 88.085 47.226, 87.828 48.314, 83.686 58.006 C 78.795 69.450, 78.821 70.855, 83.962 72.984 C 87.109 74.288, 87.102 74.267, 87.380 83.500 C 87.492 87.233, 87.300 87.523, 84.503 87.840 C 79.001 88.465, 79.038 91.841, 84.577 94.470 C 89.079 96.606, 88.900 97.832, 83.973 98.620 C 80.063 99.246, 79.954 99.369, 80.223 102.882 C 80.492 106.398, 80.395 106.509, 76.750 106.810 C 74.688 106.981, 73 107.517, 73 108.001 C 73 110.030, 75.330 110.019, 79.560 107.971 C 82.803 106.401, 85.016 105.968, 87.455 106.426 C 89.319 106.775, 91.105 106.640, 91.423 106.125 C 91.741 105.609, 92.833 105.405, 93.849 105.671 C 96.290 106.309, 102.866 103.512, 103.635 101.508 C 103.969 100.638, 103.468 99.070, 102.522 98.024 C 100.960 96.299, 100.943 95.919, 102.337 93.929 C 103.655 92.048, 103.678 91.435, 102.498 89.618 C 101.741 88.453, 100.902 84.884, 100.633 81.686 C 100.241 77.040, 100.550 75.182, 102.168 72.440 L 104.193 69.008 101.999 59.254 C 98.884 45.406, 98.696 41.202, 101.060 38.196 C 102.979 35.757, 103.700 32.001, 102.250 31.999 C 101.838 31.998, 101.500 28.823, 101.500 24.943 C 101.500 18.920, 101.171 17.577, 99.250 15.769 C 98.013 14.605, 97 12.605, 97 11.326 C 97 8.408, 94.378 8.233, 93.471 11.091 M 156.520 13.103 C 154.882 14.691, 152.069 16.688, 150.270 17.542 C 147.096 19.048, 146.207 20.392, 147.753 21.348 C 148.168 21.604, 148.434 24.443, 148.344 27.657 C 148.210 32.483, 147.861 33.552, 146.341 33.802 C 145.328 33.967, 143.600 34.493, 142.500 34.971 C 138.404 36.747, 134.204 36.951, 132.946 35.435 C 131.657 33.882, 128.061 34.395, 126.835 36.306 C 126.008 37.595, 133.802 47, 135.697 47 C 136.458 47, 138.407 46.019, 140.028 44.821 C 143.706 42.102, 144.537 42.842, 143.009 47.474 C 142.354 49.459, 142.076 51.757, 142.393 52.581 C 142.709 53.405, 142.540 54.849, 142.017 55.790 C 139.967 59.479, 136 70.779, 136 72.927 C 136 74.184, 137.405 76.510, 139.147 78.137 C 142.098 80.894, 142.229 81.307, 141.247 84.788 C 140.672 86.830, 140.321 90.718, 140.467 93.429 C 140.686 97.493, 140.316 98.775, 138.359 100.732 C 135.825 103.266, 136.131 105.011, 139.878 109.398 C 141.442 111.228, 141.351 111.273, 137.323 110.648 C 133.596 110.070, 132.918 110.289, 131.035 112.683 C 129.874 114.159, 129.059 116.066, 129.223 116.922 C 129.601 118.883, 133 119.641, 133 117.764 C 133 117.004, 133.623 115.530, 134.385 114.488 C 135.740 112.636, 135.864 112.635, 139.891 114.451 C 145.121 116.809, 146.528 118.531, 146.152 122.113 C 145.916 124.368, 146.396 125.223, 148.418 126.145 C 150.411 127.053, 150.736 127.614, 149.870 128.656 C 149.048 129.648, 149.086 130.793, 150.018 133.043 L 151.279 136.087 153.639 133.869 C 155.420 132.197, 156 130.580, 156 127.294 C 156 124.017, 156.434 122.803, 157.750 122.396 C 162.668 120.877, 163.807 117.378, 160.469 114.041 C 159.180 112.751, 159.313 112.326, 161.570 110.526 C 164.095 108.513, 164.114 108.401, 162.671 103.989 C 161.864 101.520, 160.980 95.450, 160.707 90.500 C 160.433 85.550, 159.914 80.777, 159.553 79.893 C 159.079 78.734, 159.747 77.933, 161.948 77.022 C 165.721 75.459, 165.901 72.870, 162.540 68.464 C 161.187 66.690, 158.951 62.685, 157.571 59.564 C 155.138 54.062, 155.110 53.760, 156.679 49.694 C 157.569 47.387, 159.082 44.825, 160.042 44 C 162.640 41.767, 163.481 38.122, 161.569 37.388 C 158.478 36.202, 160.117 35.263, 167.474 34.004 C 171.585 33.301, 174.700 32.324, 174.396 31.832 C 173.902 31.032, 169.306 31.412, 164.851 32.623 C 163.447 33.004, 163.253 32.321, 163.545 28.030 C 163.734 25.258, 164.141 22.580, 164.451 22.079 C 164.761 21.578, 163.647 19.801, 161.976 18.130 C 159.597 15.751, 159.077 14.541, 159.578 12.546 C 160.353 9.459, 160.265 9.475, 156.520 13.103 M 31.735 15.598 C 31.331 16.002, 31 17.153, 31 18.154 C 31 19.199, 29.247 21.081, 26.885 22.573 C 23.859 24.483, 23.065 25.465, 23.885 26.285 C 24.498 26.898, 25 28.638, 25 30.150 C 25 31.663, 25.609 33.260, 26.354 33.700 C 28.995 35.260, 29.800 38.312, 28.543 42 C 27.608 44.744, 26.178 46.102, 21.925 48.288 C 14.690 52.006, 9.052 53.300, 8.327 51.409 C 7.768 49.952, 4.348 49.545, 1.582 50.607 C 0.369 51.072, 0 52.697, 0 57.572 L 0 63.931 6.750 68.306 C 22.911 78.780, 25.141 80, 28.126 80 C 30.685 80, 31.086 80.300, 30.466 81.750 C 28.136 87.198, 28.622 88.732, 33.878 92.508 L 38.963 96.161 35.981 98.669 C 34.342 100.049, 33 101.792, 33 102.544 C 33 103.344, 31.448 104.168, 29.250 104.535 C 27.188 104.879, 23.430 105.730, 20.900 106.427 C 16.746 107.570, 16.041 107.505, 13.639 105.755 C 10.994 103.829, 10.948 103.831, 5.489 106.093 C 0.074 108.337, -0 108.424, -0 112.553 C -0 116.620, 0.394 117.120, 14.046 130.369 C 22.586 138.656, 28.877 144, 30.093 144 C 32.847 144, 47 136.111, 47 134.576 C 47 133.892, 43.655 130.671, 39.566 127.416 C 35.477 124.162, 31.934 121.050, 31.693 120.500 C 31.428 119.897, 32.890 119.629, 35.377 119.826 C 40.549 120.235, 46.349 116.718, 46.799 112.901 C 47.018 111.042, 48.017 110.034, 50.549 109.119 C 55.516 107.322, 55.366 103.340, 50.161 98.828 C 46.957 96.050, 39 85.109, 39 83.481 C 39 83.216, 39.929 83, 41.065 83 C 42.200 83, 45.397 82.025, 48.168 80.832 C 53.003 78.752, 53.186 78.531, 52.672 75.367 C 52.378 73.554, 50.419 69.100, 48.319 65.470 C 42.433 55.296, 40.839 51.883, 40.423 48.561 C 40.213 46.878, 39.789 44.348, 39.482 42.939 C 39.086 41.123, 39.528 39.832, 41 38.500 C 42.606 37.046, 42.928 35.929, 42.422 33.561 C 42.063 31.877, 41.349 29.978, 40.836 29.339 C 40.249 28.609, 40.292 27.938, 40.951 27.530 C 42.749 26.419, 42.115 25.111, 39 23.500 C 37.350 22.647, 36 21.335, 36 20.585 C 36 18.662, 32.622 14.712, 31.735 15.598 M 135 38.941 C 135 40.673, 136.760 40.994, 138.009 39.489 C 139.038 38.250, 138.889 38, 137.122 38 C 135.955 38, 135 38.423, 135 38.941 M 21.692 52.938 C 15.945 55.620, 15.446 56.528, 18.929 57.971 C 21.390 58.990, 22.818 58.979, 26.423 57.915 L 30.877 56.600 29.223 53.800 C 27.322 50.582, 26.857 50.529, 21.692 52.938 M 29.500 63 C 29.160 63.550, 29.584 64, 30.441 64 C 31.298 64, 32 63.550, 32 63 C 32 62.450, 31.577 62, 31.059 62 C 30.541 62, 29.840 62.450, 29.500 63 M 91.409 76.377 C 91.118 77.134, 91.020 79.947, 91.190 82.627 C 91.475 87.110, 91.720 87.525, 94.250 87.816 C 96.726 88.101, 97 87.825, 97 85.034 C 97 78.841, 92.900 72.492, 91.409 76.377 M 146.221 86.703 C 145.553 89.891, 144.893 94.291, 144.754 96.480 L 144.500 100.460 149.977 101.148 C 152.990 101.527, 155.802 101.622, 156.227 101.359 C 157.350 100.665, 157.099 94.399, 155.671 87.500 C 154.458 81.641, 154.347 81.493, 150.931 81.203 L 147.434 80.905 146.221 86.703 M 84.250 102.250 C 84.479 102.938, 85.492 103.500, 86.500 103.500 C 87.508 103.500, 88.521 102.938, 88.750 102.250 C 89.014 101.458, 88.189 101, 86.500 101 C 84.811 101, 83.986 101.458, 84.250 102.250 M 22.750 108.162 C 19.184 109.465, 19.279 110.160, 23.535 113.896 C 29.033 118.724, 31.237 117.869, 31.600 110.766 C 31.784 107.154, 31.663 107.003, 28.646 107.079 C 26.916 107.122, 24.262 107.610, 22.750 108.162" stroke="none" fill="black" fill-rule="evenodd"/>
</svg>