<svg xmlns="http://www.w3.org/2000/svg" width="192" height="144" viewBox="0 0 192 144" version="1.1">
	<path d="M 0 72 L 0 144 15.563 144 L 31.127 144 30.813 140.750 C 30.518 137.687, 30.294 137.516, 26.921 137.772 C 23.931 137.999, 23.152 137.628, 22.192 135.522 C 21.072 133.065, 18.097 132.298, 11.750 132.830 C 7.906 133.152, 10.562 124.271, 18.735 109.480 C 26.140 96.078, 32.040 82.089, 31.884 78.307 C 31.813 76.593, 31.589 76.186, 31.308 77.262 C 30.535 80.227, 29.026 78.122, 29.658 74.961 C 30.653 69.986, 29.249 71.661, 27.321 77.750 C 26.319 80.912, 25.500 85.750, 25.500 88.500 C 25.500 92.675, 25.216 93.453, 23.778 93.213 C 21.955 92.908, 20.579 96.240, 21.175 99.512 C 21.354 100.491, 21.012 101.464, 20.417 101.674 C 18.698 102.279, 16.713 94.406, 17.984 92.029 C 18.759 90.581, 18.705 89.500, 17.782 88.023 C 16.275 85.609, 15.417 85.471, 14.633 87.515 C 14.313 88.348, 12.837 89.492, 11.352 90.056 C 6.757 91.803, 5.596 89.538, 5.827 79.279 C 6.014 70.956, 6.284 69.970, 11.023 60.281 L 16.022 50.063 15.761 39.986 C 15.530 31.061, 15.305 29.960, 13.796 30.349 C 12.860 30.591, 11.310 30.216, 10.352 29.515 C 8.711 28.316, 8.709 28.093, 10.306 25.656 C 11.237 24.234, 12 22.839, 12 22.556 C 12 22.272, 10.156 21.100, 7.903 19.951 C 5.650 18.801, 3.983 17.683, 4.200 17.467 C 4.416 17.251, 7.038 17.719, 10.026 18.507 C 13.537 19.433, 15.803 19.597, 16.430 18.970 C 16.963 18.437, 18.712 18, 20.317 18 C 22.860 18, 23.174 18.309, 22.772 20.412 C 22.346 22.643, 22.557 22.784, 25.601 22.290 C 30.578 21.482, 33.924 22.701, 35.175 25.778 C 35.783 27.275, 36.952 30.042, 37.771 31.926 C 38.912 34.549, 38.996 35.777, 38.131 37.163 C 37.509 38.158, 37 39.421, 37 39.969 C 37 40.517, 40.635 44.561, 45.078 48.956 L 53.155 56.947 51.950 62.332 C 50.328 69.582, 51.674 76.877, 58.102 95.675 C 64.485 114.338, 65.769 119.156, 66.175 125.957 C 66.464 130.809, 66.246 131.543, 64.212 132.569 C 62.953 133.203, 61.330 134.534, 60.605 135.525 C 59.597 136.904, 58.089 137.285, 54.188 137.147 C 50.043 137, 48.893 137.331, 48.044 138.917 C 45.260 144.120, 44.921 144.054, 73.238 143.767 L 99.475 143.500 101.659 139.111 C 102.860 136.698, 105.405 133.323, 107.315 131.611 C 109.225 129.900, 111.025 127.825, 111.315 127 C 111.709 125.878, 111.862 125.969, 111.921 127.358 C 111.986 128.876, 112.503 129.091, 114.740 128.529 C 116.247 128.151, 117.835 127.315, 118.270 126.671 C 119.913 124.236, 116.287 100.929, 114.154 100.218 C 113.519 100.006, 113 98.833, 113 97.609 C 113 93.066, 106.170 81.598, 99.441 74.845 C 94.332 69.717, 91.779 67.930, 88.318 67.059 C 83.654 65.884, 77 60.470, 77 57.849 C 77 57.052, 76.438 55.839, 75.750 55.154 C 74.347 53.755, 73.319 41.958, 72.406 16.750 L 71.798 0 35.899 0 L 0 0 0 72 M 188.973 62.250 C 186.334 68.065, 186.118 85.635, 188.664 87.496 C 189.579 88.165, 190.647 90.690, 191.039 93.106 C 191.461 95.715, 191.801 89.476, 191.875 77.750 C 191.944 66.888, 191.753 58, 191.451 58 C 191.149 58, 190.034 59.913, 188.973 62.250 M 88.079 62.583 C 88.127 63.748, 88.364 63.985, 88.683 63.188 C 88.972 62.466, 88.936 61.603, 88.604 61.271 C 88.272 60.939, 88.036 61.529, 88.079 62.583 M 18.500 87 C 18.160 87.550, 18.359 88, 18.941 88 C 19.523 88, 20 87.550, 20 87 C 20 86.450, 19.802 86, 19.559 86 C 19.316 86, 18.840 86.450, 18.500 87 M 191 123.826 C 191 127.546, 190.484 129.129, 188.750 130.737 C 185.528 133.722, 174.639 137, 167.942 137 C 161.993 137, 161 137.727, 161 142.082 C 161 143.890, 161.887 144, 176.500 144 L 192 144 192 131.500 C 192 124.625, 191.775 119, 191.500 119 C 191.225 119, 191 121.172, 191 123.826 M 152 141 C 152 143.307, 152.450 144, 153.948 144 C 155.678 144, 155.779 143.665, 154.850 141 C 154.275 139.350, 153.398 138, 152.902 138 C 152.406 138, 152 139.350, 152 141 M 37.607 141.582 C 36.712 143.915, 36.778 144, 39.500 144 C 41.333 144, 42 143.467, 42 142 C 42 139.568, 38.507 139.235, 37.607 141.582" stroke="none" fill="black" fill-rule="evenodd"/>
</svg>