<svg xmlns="http://www.w3.org/2000/svg" width="192" height="144" viewBox="0 0 192 144" version="1.1">
	<path d="M -0 34.611 L -0 69.223 3.750 68.546 C 14.038 66.691, 24.445 63.518, 33.505 59.474 C 39.019 57.014, 43.914 55, 44.383 55 C 45.636 55, 60.088 68.195, 69.767 78.178 C 78.622 87.310, 81.988 89.286, 90.709 90.469 C 95.829 91.164, 95.929 91.128, 96.601 88.338 C 98.470 80.570, 103.268 73.950, 109.250 70.882 C 111.673 69.640, 113 68.259, 113 66.980 C 113 65.891, 112.635 65, 112.189 65 C 111.742 65, 110.371 64.063, 109.141 62.917 C 107.303 61.204, 106.636 61.057, 105.390 62.092 C 104.081 63.177, 103.966 62.985, 104.543 60.684 C 105.037 58.718, 104.785 57.855, 103.586 57.395 C 102.542 56.994, 102.057 55.828, 102.230 54.135 C 102.462 51.874, 102.075 51.453, 99.500 51.166 C 96.257 50.806, 93 48.443, 93 46.452 C 93 44.620, 90.142 43.854, 87.861 45.075 C 86.341 45.888, 85.286 45.762, 83.433 44.548 C 80.304 42.498, 80.370 41.803, 83.888 39.725 C 85.476 38.787, 88.136 36.470, 89.798 34.577 C 92.362 31.657, 92.712 30.633, 92.109 27.818 C 91.218 23.659, 91.751 21, 93.475 21 C 94.205 21, 95.716 19.452, 96.832 17.560 C 99.040 13.818, 107.044 8.680, 113.500 6.860 C 116.534 6.005, 119.191 6.035, 124.500 6.984 C 128.350 7.672, 132.269 8.212, 133.209 8.183 C 135.744 8.105, 144.770 18.499, 146.140 23.074 C 147.018 26.005, 147.048 28.265, 146.252 31.740 C 144.977 37.315, 146.185 40.434, 151.114 44.292 C 154.923 47.273, 154.227 49.073, 149.557 48.315 C 146.358 47.796, 146.168 47.923, 146.438 50.381 C 146.622 52.066, 146.239 53, 145.362 53 C 144.613 53, 144 53.858, 144 54.906 C 144 56.279, 143.474 56.675, 142.123 56.322 C 140.531 55.905, 140.327 56.262, 140.784 58.665 C 141.277 61.262, 141.177 61.380, 139.585 60.064 C 137.815 58.602, 136.840 59.210, 135.680 62.500 C 135.465 63.110, 134.288 62.946, 132.665 62.082 C 129.955 60.638, 127.445 61.421, 129.907 62.943 C 130.649 63.401, 130.979 64.226, 130.639 64.775 C 129.828 66.088, 131.665 67.471, 136.129 68.907 C 140.834 70.421, 142.373 72.230, 145.046 79.385 L 147.245 85.270 154.872 84.527 C 159.068 84.119, 165.598 83.623, 169.384 83.426 C 178.064 82.973, 181.944 81.689, 187.544 77.415 L 192 74.013 192 76.520 C 192 77.899, 191.438 79.980, 190.750 81.144 C 189.750 82.838, 189.750 83.352, 190.750 83.714 C 191.671 84.047, 191.996 87.897, 191.985 98.333 C 191.970 111.473, 190.985 117.870, 189.575 113.972 C 183.374 96.824, 182.067 91.954, 183.004 89.489 C 183.552 88.048, 184 86.460, 184 85.960 C 184 85.011, 179.220 85.664, 175.118 87.174 C 173.017 87.947, 172.899 88.254, 174.118 89.775 C 178.041 94.671, 178.176 95.660, 176.442 106.818 C 175.529 112.693, 174.442 118.121, 174.028 118.880 C 173.287 120.238, 170.356 113.376, 166.536 101.339 C 165.065 96.704, 165.051 95.813, 166.398 92.589 L 167.898 89 161.508 89 C 157.994 89, 154.838 89.453, 154.496 90.007 C 154.154 90.561, 154.862 92.402, 156.070 94.098 C 157.975 96.773, 158.181 97.992, 157.627 103.291 C 156.566 113.447, 154.845 122.022, 153.977 121.486 C 153.526 121.207, 151.891 117.271, 150.342 112.740 C 148.017 105.935, 147.466 105.011, 147.179 107.434 C 146.988 109.048, 147.346 114.792, 147.975 120.200 C 148.608 125.648, 148.810 133.156, 148.428 137.036 L 147.738 144.039 170.119 143.769 L 192.500 143.500 192.732 71.750 L 192.964 0 96.482 0 L 0 0 -0 34.611 M 0.450 35 C 0.450 53.975, 0.584 61.737, 0.748 52.250 C 0.913 42.762, 0.913 27.237, 0.748 17.750 C 0.584 8.262, 0.450 16.025, 0.450 35 M 40.153 62.708 C 38.311 63.608, 36.585 64.918, 36.316 65.619 C 36.047 66.320, 37.441 69.007, 39.413 71.590 L 43 76.288 43 90.144 C 43 97.765, 42.658 104, 42.240 104 C 41.822 104, 38.598 98.525, 35.077 91.832 L 28.674 79.664 29.728 74.582 C 30.308 71.787, 30.704 69.410, 30.608 69.300 C 30.393 69.054, 13.668 74.177, 13.068 74.673 C 12.831 74.869, 14.101 76.541, 15.891 78.388 C 18.172 80.741, 19.252 82.906, 19.500 85.623 C 20.118 92.382, 20.248 108.085, 19.690 108.643 C 19.082 109.252, 6.532 90.252, 5.598 87.308 C 5.262 86.251, 5.403 83.166, 5.910 80.451 C 6.901 75.150, 6.222 73.868, 2.889 74.739 C 1.083 75.212, 1 76.746, 1 109.617 L 1 144 47.362 144 L 93.725 144 94.383 138.396 C 94.989 133.240, 94.624 131.715, 89.817 119.310 L 84.592 105.827 86.296 101.029 C 87.233 98.391, 88 95.788, 88 95.246 C 88 94.133, 79.243 91.424, 78.393 92.274 C 78.091 92.576, 78.447 93.974, 79.184 95.382 C 80.233 97.383, 80.352 100.826, 79.732 111.200 C 79.297 118.493, 78.564 124.836, 78.105 125.295 C 77.113 126.287, 66.991 101.553, 66.996 98.151 C 66.998 96.859, 67.725 94.275, 68.610 92.409 C 70.702 88.001, 69.956 85.490, 64.924 80 C 62.655 77.525, 61.452 76.625, 62.251 78 C 63.394 79.969, 63.604 83.367, 63.240 94 C 62.986 101.425, 62.455 107.851, 62.060 108.279 C 61.036 109.390, 50 85.364, 50 82.026 C 50 80.500, 50.688 77.301, 51.529 74.917 L 53.059 70.582 48.279 65.827 L 43.500 61.072 40.153 62.708 M 146 91 C 146 91.550, 146.423 92, 146.941 92 C 147.459 92, 148.160 91.550, 148.500 91 C 148.840 90.450, 148.416 90, 147.559 90 C 146.702 90, 146 90.450, 146 91 M 95 97.500 C 95 98.325, 95.402 99, 95.893 99 C 96.384 99, 97.045 98.325, 97.362 97.500 C 97.712 96.586, 97.363 96, 96.469 96 C 95.661 96, 95 96.675, 95 97.500 M 97 100.941 C 97 101.459, 97.450 102.160, 98 102.500 C 98.550 102.840, 99 102.416, 99 101.559 C 99 100.702, 98.550 100, 98 100 C 97.450 100, 97 100.423, 97 100.941" stroke="none" fill="black" fill-rule="evenodd"/>
</svg>