<svg xmlns="http://www.w3.org/2000/svg" width="192" height="144" viewBox="0 0 192 144" version="1.1">
	<path d="M -0 72.005 L -0 144.010 96.250 143.755 L 192.500 143.500 192.757 71.750 L 193.013 0 96.507 0 L 0 0 -0 72.005 M 0.474 72.500 C 0.474 112.100, 0.598 128.154, 0.750 108.176 C 0.901 88.198, 0.901 55.798, 0.750 36.176 C 0.598 16.554, 0.474 32.900, 0.474 72.500 M 108.250 72.731 C 107.563 72.970, 107 74.206, 107 75.476 C 107 76.747, 106.288 78.059, 105.418 78.393 C 104.548 78.727, 95.436 79.007, 85.168 79.015 C 64.550 79.032, 60.501 79.884, 69.015 82.412 C 72.943 83.578, 78.679 84, 90.615 84 L 106.867 84 107.184 86.750 C 107.622 90.560, 111.368 90.642, 111.807 86.851 C 112.054 84.713, 112.778 84.077, 115.557 83.555 C 118.687 82.968, 123.677 83.400, 128.250 84.655 C 129.679 85.047, 130 84.482, 130 81.578 L 130 78.022 121 78.661 L 112 79.299 112 76.257 C 112 73.217, 110.608 71.908, 108.250 72.731" stroke="none" fill="black" fill-rule="evenodd"/>
</svg>