<svg xmlns="http://www.w3.org/2000/svg" width="192" height="144" viewBox="0 0 192 144" version="1.1">
	<path d="M 105.929 25.688 C 105.341 27.233, 104.158 29.273, 103.299 30.223 C 101.838 31.837, 101.094 35.340, 100.692 42.500 C 100.599 44.150, 100.117 45.791, 99.620 46.147 C 99.123 46.502, 99.708 48.186, 100.920 49.887 C 103.818 53.958, 103.786 54.757, 99.979 73.309 L 97.761 84.117 99.792 86.309 C 101.754 88.425, 101.773 88.785, 100.362 96.871 C 98.939 105.024, 98.954 105.280, 100.954 106.681 C 102.375 107.676, 102.837 108.803, 102.452 110.336 C 102.068 111.864, 102.611 113.204, 104.198 114.648 C 106.064 116.347, 108.265 116.851, 115.822 117.312 C 123.863 117.801, 124.981 117.682, 123.950 116.440 C 123.036 115.338, 123.030 114.668, 123.926 113.589 C 125.329 111.898, 124.663 111.403, 119.742 110.479 C 115.448 109.674, 115.056 108.888, 118.250 107.487 C 119.720 106.842, 120.500 105.633, 120.500 104 C 120.500 101.941, 119.919 101.412, 117.211 101 C 115.402 100.725, 113.939 100.162, 113.961 99.750 C 113.982 99.338, 114 96.344, 114 93.099 C 114 87.415, 114.129 87.122, 117.500 85.133 C 122.012 82.470, 121.960 80.934, 116.979 69.713 C 113.400 61.648, 113.078 60.295, 114.041 57.375 C 115.296 53.574, 117.972 52.353, 120.998 54.202 C 122.818 55.314, 123.311 55.245, 124.443 53.721 C 125.709 52.015, 125.792 52.015, 126.456 53.721 C 127.088 55.343, 127.318 55.292, 129.074 53.139 C 132.198 49.310, 131.618 47.180, 127.483 47.298 C 124.942 47.370, 123.548 46.799, 122.456 45.241 C 121.584 43.995, 120.322 43.323, 119.470 43.650 C 116.854 44.654, 113 43.099, 113 41.040 C 113 39.983, 113.400 38.871, 113.890 38.568 C 114.930 37.925, 115.905 31, 114.955 31 C 113.746 31, 109 26.439, 109 25.277 C 109 22.761, 106.936 23.037, 105.929 25.688 M 165.734 25.133 C 165.342 26.582, 163.737 29.141, 162.167 30.821 C 159.419 33.763, 159.345 34.104, 160.162 40.074 C 160.845 45.071, 160.725 46.488, 159.544 47.386 C 157.946 48.600, 157.147 56.810, 158.424 58.877 C 158.852 59.570, 159.785 59.913, 160.498 59.639 C 162.649 58.814, 163.107 64.197, 161.082 66.500 C 160.115 67.600, 158.288 70.230, 157.022 72.345 C 155.756 74.459, 153.716 77.193, 152.488 78.421 C 148.544 82.365, 147.828 84.534, 149.861 86.374 C 150.849 87.268, 152.158 88, 152.770 88 C 154.974 88, 155.121 90.130, 153.148 93.473 C 150.985 97.139, 147 110.277, 147 113.742 C 147 116.690, 149.275 118.660, 155.047 120.710 C 160.294 122.574, 160.714 123.339, 158.797 127.546 C 157.723 129.904, 157.856 130.385, 160.047 132.051 C 167.107 137.422, 173.751 139.250, 174.797 136.111 C 175.080 135.260, 174.817 134.995, 174.117 135.428 C 172.776 136.256, 162 131.229, 162 129.776 C 162 129.231, 162.563 129.001, 163.250 129.264 C 163.938 129.527, 166.975 130.588, 170 131.621 C 173.025 132.655, 175.725 133.725, 176 134 C 177.553 135.553, 184.543 138, 187.427 138 C 192.381 138, 192.989 135.268, 188.807 131.797 C 186.988 130.288, 185.136 129.042, 184.691 129.027 C 182.754 128.962, 176.049 122.515, 174.935 119.645 C 174.263 117.915, 172.396 115.360, 170.785 113.967 L 167.856 111.434 169.428 104.655 C 170.293 100.926, 171 96.141, 171 94.021 C 171 91.901, 171.454 90.015, 172.010 89.830 C 173.404 89.365, 173.908 86.194, 174.524 74 C 175.317 58.324, 176.299 52.428, 178.045 52.861 C 178.845 53.059, 182.313 53.458, 185.750 53.747 L 192 54.274 192 51.274 C 192 48.397, 191.741 48.220, 185.750 46.983 C 182.313 46.274, 179.323 45.548, 179.107 45.370 C 178.891 45.193, 181.527 41.410, 184.966 36.966 C 188.404 32.521, 190.943 28.610, 190.609 28.275 C 190.274 27.941, 189.846 27.854, 189.658 28.083 C 189.470 28.313, 187.478 30.975, 185.231 34 C 178.070 43.639, 176.405 45.369, 175.078 44.548 C 174.318 44.078, 174.092 42.935, 174.503 41.637 C 174.875 40.462, 175.278 37.362, 175.398 34.750 C 175.560 31.235, 175.252 30, 174.213 30 C 171.667 30, 167.095 26.660, 166.769 24.561 C 166.490 22.767, 166.356 22.841, 165.734 25.133 M 45 30.742 C 45 32.817, 41.106 37, 39.174 37 C 37.183 37, 39.015 45.106, 41.852 48.851 C 44.158 51.894, 44.236 52.288, 42.700 53.148 C 41.770 53.669, 40.737 55.795, 40.404 57.874 C 39.842 61.389, 39.439 61.769, 34.650 63.295 C 25.509 66.209, 23.634 66.286, 20.573 63.879 C 17.948 61.814, 17.348 61.746, 10.763 62.765 C -3.147 64.918, -1.498 67.366, 20.929 77.851 C 34.296 84.100, 39.358 86.021, 41.047 85.485 C 42.961 84.878, 43.193 85.052, 42.582 86.635 C 41.284 89.996, 39.971 98.334, 40.485 99.953 C 40.762 100.825, 42.555 102.383, 44.470 103.414 C 46.385 104.445, 48.695 106.111, 49.605 107.116 C 51.156 108.830, 51.073 109.153, 48.245 112.374 C 46.587 114.262, 45.067 116.206, 44.866 116.696 C 44.665 117.185, 41.193 118.569, 37.150 119.772 L 29.801 121.959 25.470 118.979 C 23.088 117.341, 20.546 115.998, 19.820 115.995 C 19.094 115.993, 15.178 117.199, 11.118 118.677 L 3.736 121.364 7.682 124.932 C 9.852 126.894, 15.853 131.988, 21.017 136.250 L 30.407 144 43.704 144 C 59.099 144, 59.953 143.351, 51.937 137.739 C 46.546 133.965, 46.549 133.644, 52 132.502 C 56.268 131.608, 58 130.311, 58 128.009 C 58 126.718, 59.080 126.118, 62.147 125.707 C 64.427 125.401, 67.212 124.233, 68.334 123.111 C 70.245 121.200, 70.268 120.954, 68.709 119.230 C 67.793 118.218, 65.477 116.776, 63.562 116.024 C 60.972 115.008, 59.665 113.619, 58.457 110.601 C 57.564 108.369, 55.589 104.699, 54.067 102.445 C 51.451 98.567, 51.391 98.235, 52.963 96.294 C 53.877 95.165, 56.172 93.907, 58.063 93.499 C 62.489 92.542, 69 89.248, 69 87.966 C 69 87.419, 66.981 84.391, 64.513 81.236 C 62.046 78.081, 59.089 74.265, 57.942 72.756 C 56.370 70.687, 55.800 68.310, 55.625 63.095 C 55.496 59.237, 54.820 55.489, 54.097 54.617 C 53.022 53.321, 53.088 52.769, 54.487 51.370 C 55.669 50.189, 55.964 48.909, 55.473 47.092 C 55.088 45.666, 54.746 43.043, 54.711 41.262 C 54.670 39.093, 54.071 37.840, 52.900 37.468 C 51.938 37.163, 50.300 35.273, 49.259 33.268 C 47.119 29.144, 45 27.888, 45 30.742 M 36.058 67.026 C 31.897 68.617, 31.751 68.796, 33.743 69.862 C 36.554 71.367, 40.201 71.304, 42.375 69.715 C 44.048 68.492, 44.045 68.355, 42.316 66.879 C 40.672 65.474, 40.079 65.488, 36.058 67.026 M 106.041 90.393 C 103.035 98.299, 103.813 102.385, 108.111 101.261 C 109.714 100.841, 110 99.801, 110 94.383 C 110 89.330, 109.682 88, 108.475 88 C 107.637 88, 106.541 89.077, 106.041 90.393 M 156.001 99.384 C 152.257 106.767, 150.810 112.143, 152.194 113.527 C 152.438 113.771, 155.167 113.440, 158.259 112.791 C 164.627 111.456, 164.561 111.569, 165.630 100.068 C 166.160 94.371, 166.003 92.615, 164.903 91.919 C 161.665 89.869, 160.204 91.094, 156.001 99.384 M 127.250 119.250 C 127.479 119.938, 128.492 120.500, 129.500 120.500 C 130.508 120.500, 131.521 119.938, 131.750 119.250 C 132.014 118.458, 131.189 118, 129.500 118 C 127.811 118, 126.986 118.458, 127.250 119.250 M 35 123.039 C 33.740 123.886, 33.979 124.442, 36.500 126.518 C 39.737 129.184, 40.814 129.241, 42.338 126.826 C 44.700 123.081, 39.178 120.231, 35 123.039" stroke="none" fill="black" fill-rule="evenodd"/>
</svg>