<svg xmlns="http://www.w3.org/2000/svg" width="192" height="144" viewBox="0 0 192 144" version="1.1">
	<path d="M 55.615 18.472 C 47.123 21.499, 39.233 33.243, 40.307 41.256 C 41.504 50.174, 49.371 57.151, 58.725 57.587 C 61.722 57.727, 64.342 58.009, 64.546 58.213 C 64.750 58.417, 62.218 60.068, 58.920 61.881 C 54.390 64.371, 53.055 65.598, 53.466 66.892 C 53.765 67.834, 53.347 69.481, 52.536 70.552 C 50.206 73.634, 50.567 76.140, 53.250 75.509 C 57.074 74.610, 58.537 76.289, 57.053 79.872 C 55.996 82.424, 56.027 83.169, 57.238 84.380 C 58.174 85.317, 58.917 89.049, 59.333 94.911 C 59.688 99.905, 60.541 104.893, 61.229 105.996 C 62.227 107.593, 62.229 108.404, 61.241 109.986 C 59.685 112.478, 59.623 119.223, 61.142 120.742 C 61.997 121.597, 61.843 122.810, 60.528 125.582 C 58.995 128.813, 58.937 129.780, 60.074 133.225 C 61.087 136.295, 61.113 137.590, 60.188 139.071 C 58.787 141.314, 58.626 144, 59.893 144 C 60.384 144, 61.045 143.325, 61.362 142.500 C 62.141 140.469, 63.750 140.605, 64.311 142.750 C 64.592 143.827, 64.813 143.442, 64.884 141.750 C 64.948 140.238, 64.550 139, 64 139 C 62.728 139, 62.694 135.706, 63.952 134.448 C 64.476 133.924, 64.900 131.922, 64.895 129.998 C 64.890 128.074, 64.882 124.925, 64.877 123 C 64.872 121.075, 65.166 117.866, 65.530 115.868 C 65.939 113.620, 65.774 111.978, 65.096 111.559 C 63.860 110.795, 63.600 106.362, 64.750 105.661 C 65.162 105.409, 68.584 104.875, 72.353 104.474 C 79.102 103.756, 79.190 103.777, 78.083 105.846 C 75.819 110.075, 75.015 118.452, 75.656 131.124 L 76.308 144 92.103 144 L 107.898 144 106.449 140.532 C 104.194 135.135, 104.639 129.109, 107.747 122.946 C 110.130 118.223, 110.541 117.828, 110.846 119.968 L 111.196 122.436 112.423 120.144 C 113.534 118.068, 113.866 118.803, 115.933 127.922 C 118.105 137.502, 118.138 143.460, 116.001 140.001 C 115.510 139.207, 114.972 138.770, 114.804 139.029 C 114.637 139.288, 113.934 140.512, 113.242 141.750 L 111.983 144 124.386 144 C 136.692 144, 136.813 143.978, 139.894 141.099 C 142.235 138.912, 143 137.328, 143 134.664 C 143 129.571, 141.798 127.063, 136.045 120.150 L 130.926 113.998 132.037 105.249 C 133.307 95.255, 136.763 81.264, 138.179 80.389 C 138.704 80.065, 139.687 80.557, 140.363 81.482 C 141.467 82.991, 142.021 82.701, 145.734 78.673 C 153.442 70.311, 157.481 58.304, 153.655 55.128 C 151.172 53.068, 146.414 52.734, 143.202 54.396 C 141.511 55.270, 139.450 55.726, 138.624 55.409 C 137.037 54.800, 138.655 53.150, 147.665 46.185 C 151.297 43.379, 152.147 43.110, 154.293 44.088 C 156.218 44.965, 157.492 44.877, 160.128 43.684 C 161.983 42.845, 164.512 41.868, 165.750 41.512 C 168.589 40.696, 168.601 39.535, 165.794 37.568 C 163.617 36.044, 163.614 36.002, 165.544 34.530 C 167.233 33.241, 167.296 32.904, 166 32.054 C 164.768 31.245, 165.528 30.029, 170.250 25.256 C 173.412 22.058, 176 19.108, 176 18.701 C 176 17.413, 167.844 22.012, 158 28.852 C 152.775 32.482, 144.961 37.361, 140.635 39.694 L 132.770 43.937 130.899 41.719 L 129.027 39.500 127.100 41.961 C 125.237 44.341, 125.007 44.380, 120.192 43.146 C 114.767 41.755, 109.076 42.350, 104.924 44.742 C 101.893 46.488, 98.374 54.774, 99.981 56.381 C 101.572 57.972, 101.186 59, 99 59 C 97.339 59, 97 58.333, 97 55.065 C 97 52.901, 96.603 50.088, 96.118 48.815 C 94.632 44.918, 90.114 41.195, 86.033 40.506 C 82.026 39.829, 81.032 38.459, 79.503 31.500 C 78.478 26.835, 74.546 22.451, 68.832 19.603 C 62.930 16.663, 61.126 16.508, 55.615 18.472 M 69.263 71.113 C 68.341 73.558, 68.373 75.053, 69.413 78.074 C 70.142 80.189, 70.331 82.056, 69.833 82.222 C 69.324 82.392, 69.226 85.075, 69.610 88.340 C 70.232 93.635, 70.482 94.104, 72.397 93.569 C 73.554 93.246, 77.873 92.497, 81.995 91.904 C 86.117 91.311, 90.157 90.452, 90.974 89.995 C 91.790 89.538, 93.686 86.315, 95.186 82.832 C 97.867 76.607, 97.880 76.477, 95.957 75.128 C 94.880 74.373, 94 72.672, 94 71.347 C 94 68.178, 91.892 67.488, 88.140 69.428 C 84.381 71.371, 77.337 71.407, 74 69.500 C 70.617 67.566, 70.600 67.572, 69.263 71.113 M 61 115.500 C 61 117.056, 61.567 118, 62.500 118 C 63.433 118, 64 117.056, 64 115.500 C 64 113.944, 63.433 113, 62.500 113 C 61.567 113, 61 113.944, 61 115.500 M 61 129.500 C 61 131.056, 61.567 132, 62.500 132 C 63.433 132, 64 131.056, 64 129.500 C 64 127.944, 63.433 127, 62.500 127 C 61.567 127, 61 127.944, 61 129.500" stroke="none" fill="black" fill-rule="evenodd"/>
</svg>