<svg xmlns="http://www.w3.org/2000/svg" width="192" height="144" viewBox="0 0 192 144" version="1.1">
	<path d="M -0 72.005 L -0 144.010 96.250 143.755 L 192.500 143.500 192.757 71.750 L 193.013 0 96.507 0 L 0 0 -0 72.005 M 0.474 72.500 C 0.474 112.100, 0.598 128.154, 0.750 108.176 C 0.901 88.198, 0.901 55.798, 0.750 36.176 C 0.598 16.554, 0.474 32.900, 0.474 72.500 M 90.577 56.440 C 83.194 58.907, 81.009 60.843, 80.985 64.941 C 80.957 69.587, 79.885 70.125, 69.895 70.507 C 64.728 70.704, 60.114 70.896, 59.643 70.933 C 59.172 70.970, 59.031 71.638, 59.330 72.417 C 59.629 73.197, 59.235 74.080, 58.454 74.379 C 56.770 75.026, 57.528 77.605, 59.641 78.416 C 60.458 78.729, 62.517 78.267, 64.217 77.388 C 65.917 76.509, 70.726 75.564, 74.904 75.289 C 82.378 74.796, 82.547 74.837, 85.437 77.894 C 88.242 80.860, 88.276 81, 86.187 81 C 83.533 81, 83.396 82.143, 85.791 84.311 C 87.446 85.808, 87.809 85.794, 90.551 84.127 C 92.184 83.134, 96.393 82.061, 99.904 81.742 C 104.205 81.352, 107.251 80.451, 109.241 78.980 L 112.194 76.797 119.847 79.467 C 128.769 82.581, 130.993 82.731, 132.744 80.335 C 133.839 78.837, 133.666 78.245, 131.557 76.290 C 130.113 74.951, 127.830 74, 126.058 74 C 124.392 74, 121.046 73.470, 118.622 72.821 C 114.532 71.727, 114.178 71.366, 113.698 67.784 C 112.792 61.030, 105.450 53.886, 99.596 54.063 C 98.443 54.098, 94.385 55.168, 90.577 56.440" stroke="none" fill="black" fill-rule="evenodd"/>
</svg>