<svg xmlns="http://www.w3.org/2000/svg" width="192" height="144" viewBox="0 0 192 144" version="1.1">
	<path d="M 56.067 28.882 C 52.742 29.480, 52.622 29.664, 52.246 34.697 C 51.922 39.038, 52.183 40.098, 53.829 41.126 C 54.913 41.803, 55.586 42.915, 55.324 43.597 C 55.062 44.280, 55.610 46.002, 56.542 47.424 C 57.884 49.472, 57.986 50.312, 57.032 51.461 C 56.370 52.259, 56.076 53.313, 56.378 53.803 C 56.681 54.293, 55.628 55.941, 54.037 57.464 C 49.628 61.688, 48.388 65.418, 50.381 68.459 C 52.355 71.472, 52.490 77.845, 50.637 80.527 C 49.888 81.612, 48.992 84.075, 48.647 86 C 48.302 87.925, 47.809 90.400, 47.552 91.500 C 46.718 95.064, 42.209 128.274, 41.477 136.250 L 40.765 144 60.491 144 L 80.217 144 79.656 141.750 C 79.347 140.512, 78.604 135.225, 78.004 130 C 76.099 113.414, 71.333 93.075, 68.219 88.247 C 66.888 86.183, 66.998 85.692, 69.525 82.379 C 72.054 79.062, 72.200 78.403, 71.289 74.418 C 70.742 72.029, 70.475 67.619, 70.695 64.618 C 70.947 61.184, 70.540 57.836, 69.598 55.582 C 68.202 52.240, 68.223 52, 69.915 52 C 70.912 52, 72.989 50.181, 74.529 47.958 C 77.283 43.983, 77.302 43.858, 75.665 40.424 C 74.749 38.503, 74 36.459, 74 35.880 C 74 35.301, 72.551 33.291, 70.780 31.414 C 67.390 27.820, 64.614 27.342, 56.067 28.882 M 126 58.639 C 119.833 60.754, 118.174 62.448, 119.770 65.003 C 120.446 66.086, 121 67.638, 121 68.450 C 121 70.206, 112.746 78.162, 112.009 77.117 C 110.728 75.299, 104.107 72.018, 103.547 72.924 C 103.211 73.468, 102.275 73.659, 101.468 73.349 C 100.661 73.040, 100 73.284, 100 73.893 C 100 74.502, 98.595 75, 96.878 75 C 94.215 75, 93.939 75.221, 95 76.500 C 95.685 77.325, 97.357 78, 98.716 78 C 100.351 78, 101.365 78.681, 101.713 80.011 C 102.010 81.147, 103.383 82.274, 104.869 82.601 C 116.236 85.102, 130.843 92.491, 128.685 94.648 C 128.356 94.978, 128.993 97.027, 130.103 99.201 C 132.406 103.717, 132.276 106.430, 129.274 116.500 C 128.126 120.350, 126.460 126.649, 125.572 130.498 C 124.060 137.048, 124.067 137.576, 125.670 138.748 C 126.612 139.436, 128.616 140, 130.124 140 C 131.987 140, 133.069 140.641, 133.500 142 C 134.030 143.670, 135.013 144, 139.451 144 C 143.847 144, 144.853 143.669, 145.268 142.085 C 145.544 141.028, 146.829 140.019, 148.134 139.835 C 149.952 139.578, 150.466 138.921, 150.353 137 C 149.918 129.570, 148.639 119.222, 146.893 109 C 145.027 98.077, 144.719 96.557, 143.475 92.134 C 143.058 90.651, 144.007 89.813, 148.092 88.056 C 150.921 86.839, 156.308 85.203, 160.064 84.420 C 170.538 82.236, 177.861 77, 170.441 77 C 169.098 77, 168 76.602, 168 76.117 C 168 75.631, 166.996 74.971, 165.768 74.650 C 164.229 74.247, 160.219 75.763, 152.849 79.533 C 146.970 82.540, 141.891 85, 141.561 85 C 139.782 85, 142.777 79.003, 146.123 75.866 C 150.491 71.771, 150.974 69.189, 147.891 66.405 C 146.315 64.981, 144.418 64.533, 140.380 64.630 C 135.327 64.752, 134.938 64.591, 134.351 62.130 C 133.689 59.351, 132.177 56.968, 131.128 57.048 C 130.782 57.074, 128.475 57.790, 126 58.639" stroke="none" fill="black" fill-rule="evenodd"/>
</svg>