<svg xmlns="http://www.w3.org/2000/svg" width="192" height="144" viewBox="0 0 192 144" version="1.1">
	<path d="M 75.469 70.500 C 75.211 71.325, 74.805 72.633, 74.568 73.406 C 74.330 74.179, 72.755 75.115, 71.068 75.485 C 68.030 76.152, 67.152 77.358, 68.912 78.445 C 69.449 78.778, 69.389 80.158, 68.764 81.813 C 66.597 87.555, 69.595 94.188, 75.810 97.402 C 77.564 98.309, 79 99.490, 79 100.026 C 79 100.562, 80.109 101, 81.465 101 C 83.599 101, 90.871 106.085, 91.833 108.250 C 92.017 108.662, 92.586 109, 93.097 109 C 93.609 109, 95.259 110.365, 96.764 112.033 C 99.074 114.594, 101.523 115.591, 112.500 118.441 C 119.650 120.298, 126.767 122.308, 128.315 122.908 C 130.028 123.572, 131.791 123.654, 132.815 123.116 C 133.742 122.630, 136.525 121.912, 139 121.520 C 141.475 121.128, 144.512 120.166, 145.750 119.381 C 148.800 117.446, 148.661 115, 145.500 115 C 144.091 115, 143 114.422, 143 113.674 C 143 112.945, 144.125 111.292, 145.500 110 C 148.299 107.371, 148.773 105, 146.500 105 C 145.675 105, 144.968 104.662, 144.930 104.250 C 144.891 103.838, 144.754 100.642, 144.626 97.149 C 144.375 90.330, 143.967 89.780, 137.351 87.337 C 134.666 86.346, 133.193 86.534, 127.351 88.610 C 123.583 89.950, 119.600 91.449, 118.500 91.941 C 116.322 92.915, 109.996 95, 109.219 95 C 108.954 95, 108.973 93.240, 109.261 91.089 C 109.713 87.723, 109.492 87.101, 107.682 86.627 C 105.598 86.082, 105.601 86.053, 108.039 83.414 L 110.500 80.752 108 81.530 C 104.126 82.737, 99 83.827, 99 83.445 C 99 83.255, 100.386 81.047, 102.079 78.538 C 106.743 71.628, 105.124 71.109, 98.487 77.386 C 94.856 80.819, 91.666 83, 90.275 83 C 87.447 83, 83.851 79.553, 84.611 77.572 C 85.384 75.556, 80.213 69, 77.850 69 C 76.798 69, 75.726 69.675, 75.469 70.500" stroke="none" fill="black" fill-rule="evenodd"/>
</svg>