<svg xmlns="http://www.w3.org/2000/svg" width="192" height="144" viewBox="0 0 192 144" version="1.1">
	<path d="M 0 72.023 L 0 144.045 18.158 143.773 L 36.316 143.500 38.517 136.973 C 41.095 129.329, 43.343 124.694, 46.560 120.392 C 48.577 117.696, 48.807 116.528, 48.295 111.571 C 47.971 108.429, 47.405 106.344, 47.038 106.938 C 46.033 108.565, 46.880 96.684, 48.496 86.500 C 49.281 81.550, 50.207 70.573, 50.553 62.106 C 51.230 45.534, 52.443 39.730, 56.279 34.701 C 59.301 30.738, 58.447 27.372, 53.991 25.691 C 50.498 24.372, 50.561 22.895, 54.152 21.935 C 57.514 21.036, 62.101 17.972, 61.512 17.020 C 61.253 16.601, 59.783 16.007, 58.244 15.699 C 55.144 15.079, 50 11.423, 50 9.840 C 50 9.212, 51.502 9.078, 53.932 9.489 L 57.864 10.153 55.182 5.085 L 52.500 0.017 26.250 0.008 L 0 0 0 72.023 M 60.507 4.577 C 62.428 7.094, 64 9.569, 64 10.077 C 64 10.584, 64.450 11, 65 11 C 65.550 11, 66 9.679, 66 8.065 C 66 6.451, 66.439 3.976, 66.975 2.565 C 67.948 0.005, 67.939 -0, 62.482 -0 L 57.013 0 60.507 4.577 M 71.083 5.049 C 70.487 7.826, 70 10.309, 70 10.566 C 70 10.823, 72.351 9.416, 75.224 7.439 C 78.420 5.241, 80.598 4.295, 80.834 5.003 C 81.321 6.463, 76.574 11.476, 72.058 14.270 L 68.616 16.401 71.609 17.622 C 73.255 18.294, 76.126 19.017, 77.987 19.230 C 82.185 19.709, 82.863 21.286, 79.526 22.806 C 75.395 24.688, 76.241 28.111, 82.348 34.218 C 88.356 40.225, 89.640 44.045, 87.825 50.500 C 86.343 55.769, 85.659 69.897, 86.503 77.826 C 87.157 83.976, 87.228 84.103, 89.088 82.421 C 90.408 81.226, 91 79.354, 91 76.374 C 91 72.351, 91.222 71.997, 94.250 71.175 C 99.167 69.841, 101 71.255, 101 76.380 C 101 79.323, 101.594 81.228, 102.873 82.385 C 104.643 83.987, 104.775 83.968, 105.284 82.023 C 106.014 79.231, 105.507 54.930, 104.563 47.500 C 103.870 42.042, 104.031 41.165, 106.344 37.789 C 108.766 34.254, 108.813 33.932, 107.331 30.962 C 105.474 27.240, 105.321 16.640, 107.046 11.242 C 109.016 5.077, 109.527 5.682, 109.202 13.795 C 108.854 22.474, 110.765 30.626, 113.069 30.293 C 113.856 30.179, 116.318 29.548, 118.540 28.892 C 123.738 27.357, 129.111 28.381, 132.991 31.646 C 136.448 34.555, 137.931 33.994, 140.003 28.993 C 141.103 26.338, 140.962 25.744, 138.554 22.882 C 135.536 19.296, 136.056 18.142, 141.157 17.107 C 144.234 16.482, 144.542 16.073, 145.033 11.964 L 145.567 7.500 146.371 11.750 C 147.089 15.542, 147.476 16, 149.965 16 C 151.500 16, 153.337 16.701, 154.048 17.557 C 155.136 18.869, 154.921 19.534, 152.685 21.769 C 150.142 24.313, 149.974 24.346, 148.671 22.565 C 147.423 20.858, 147.221 21.065, 146.198 25.103 C 145.586 27.521, 143.680 31.709, 141.964 34.409 C 139.087 38.933, 138.924 39.642, 139.883 43.450 C 140.455 45.723, 141.193 54.539, 141.522 63.041 C 141.851 71.544, 142.747 82.100, 143.514 86.500 C 145.142 95.845, 145.532 106.561, 144.485 113.188 L 143.745 117.876 151.502 120.130 C 161.315 122.981, 168.437 129.024, 172.592 138.024 L 175.351 144 183.676 144 L 192 144 192 72 L 192 0 132.083 0 L 72.166 0 71.083 5.049 M 87.543 91.931 C 87.226 92.443, 87.425 93.144, 87.984 93.490 C 88.543 93.835, 89 93.416, 89 92.559 C 89 90.802, 88.400 90.544, 87.543 91.931 M 103 93.059 C 103 94.191, 103.430 94.852, 103.956 94.527 C 104.482 94.202, 104.659 93.275, 104.349 92.468 C 103.556 90.401, 103 90.644, 103 93.059 M 94.667 94.667 C 94.300 95.033, 94 96.275, 94 97.427 C 94 98.578, 92.821 100.792, 91.380 102.346 L 88.760 105.171 90.451 113.682 C 91.380 118.363, 91.944 122.389, 91.704 122.629 C 91.345 122.988, 88.011 114.530, 86.377 109.114 C 86.043 108.007, 85.559 108.089, 83.979 109.519 C 82.593 110.773, 81.970 112.687, 81.900 115.905 C 81.818 119.696, 81.661 120.062, 81 118 C 80.326 115.896, 80.172 116.213, 80.029 120 C 79.936 122.475, 79.505 125.400, 79.071 126.500 C 78.387 128.236, 78.185 128.058, 77.540 125.151 C 77.029 122.845, 76.476 122.124, 75.764 122.836 C 74.712 123.888, 75.296 127.208, 78.568 138.750 L 80.056 144 97.920 144 L 115.784 144 116.493 134.092 C 116.937 127.888, 116.823 123.507, 116.188 122.371 C 115.321 120.822, 115.072 121.100, 114.475 124.279 C 113.390 130.063, 112.004 128.666, 111.965 121.750 C 111.930 115.720, 111.876 115.588, 110.407 118 C 108.927 120.432, 108.901 120.381, 109.472 116.138 C 110.059 111.780, 108.941 108.981, 106.628 109.018 C 106.007 109.028, 104.405 112.493, 103.067 116.718 C 100.074 126.168, 99.293 124.820, 101.498 114.011 L 103.141 105.956 100.655 103.002 C 99.288 101.377, 97.871 98.687, 97.505 97.024 C 96.854 94.057, 95.992 93.341, 94.667 94.667" stroke="none" fill="black" fill-rule="evenodd"/>
</svg>