<svg xmlns="http://www.w3.org/2000/svg" width="192" height="144" viewBox="0 0 192 144" version="1.1">
	<path d="M 0 72 L 0 144 36.187 144 L 72.374 144 69.548 141.050 C 67.185 138.584, 66.816 137.519, 67.298 134.550 C 67.729 131.898, 67.520 131, 66.472 131 C 64.483 131, 63.105 127.864, 64.055 125.500 C 65.969 120.740, 65.112 118.611, 59.841 115.034 C 54.086 111.129, 48.762 103.704, 46.907 97 C 46.223 94.525, 45.304 92.088, 44.866 91.585 C 44.428 91.082, 45.268 88.539, 46.732 85.934 C 48.802 82.252, 50.224 80.950, 53.123 80.081 C 59.070 78.300, 65.975 68.168, 66.015 61.167 C 66.033 58.142, 67.549 55.216, 68.570 56.237 C 68.944 56.611, 69.173 61.092, 69.080 66.196 C 68.937 74.042, 68.534 76.119, 66.471 79.639 C 63.801 84.196, 55.522 92, 53.359 92 C 52.612 92, 52 92.689, 52 93.532 C 52 95.662, 54.910 102.424, 55.551 101.783 C 55.839 101.494, 55.535 100.073, 54.875 98.625 C 52.916 94.326, 54.755 94.350, 59.271 98.682 C 63.621 102.857, 79.441 113.884, 84.148 116.024 C 86.843 117.249, 88 120.280, 88 126.112 C 88 128.460, 88.656 129.247, 91.654 130.500 C 93.663 131.339, 95.521 131.812, 95.783 131.550 C 96.045 131.288, 95.077 127.886, 93.633 123.989 C 90.556 115.689, 88.247 105.276, 87.334 95.593 C 86.605 87.848, 87.409 87.524, 90.753 94.220 C 91.952 96.621, 95.461 101.379, 98.551 104.793 L 104.168 111 112.334 111.027 L 120.500 111.054 116.586 114.691 L 112.672 118.327 115.542 120.615 C 118.756 123.178, 121.513 122.192, 120.455 118.859 C 119.991 117.395, 120.382 117, 122.298 117 C 125.464 117, 128.967 114.175, 133.558 107.920 L 137.268 102.867 140.432 105.934 C 143.987 109.380, 146.480 109.781, 149.177 107.339 C 152.182 104.620, 152.582 106.783, 149.643 109.851 L 146.931 112.682 151.300 116.591 C 153.702 118.741, 157.093 121.697, 158.834 123.160 C 163.223 126.847, 163.259 131.763, 158.923 135.411 C 153.190 140.235, 146.487 140.133, 136.838 135.075 C 133.611 133.384, 130.551 132, 130.037 132 C 129.523 132, 127.942 133.076, 126.523 134.391 C 125.105 135.706, 121.873 137.463, 119.341 138.297 C 115.062 139.706, 114.523 139.681, 111.660 137.939 C 109.804 136.811, 107.666 136.297, 106.278 136.645 C 105.011 136.963, 103.294 136.659, 102.463 135.969 C 100.304 134.178, 99.840 135.149, 100.596 139.876 L 101.259 144.020 146.879 143.760 L 192.500 143.500 192.757 71.750 L 193.013 0 96.507 0 L 0 0 0 72 M 0.474 72.500 C 0.474 112.100, 0.598 128.154, 0.750 108.176 C 0.901 88.198, 0.901 55.798, 0.750 36.176 C 0.598 16.554, 0.474 32.900, 0.474 72.500 M 102.625 84.125 C 101.528 89.611, 101.947 93.975, 103.947 97.897 C 105.679 101.290, 106.415 101.785, 110.587 102.357 C 113.168 102.711, 117.488 103, 120.188 103 C 124.995 103, 125.138 102.911, 127.027 98.750 C 128.088 96.412, 128.963 94.050, 128.971 93.500 C 128.979 92.950, 126.401 91.667, 123.243 90.649 C 120.084 89.631, 114.423 87.043, 110.662 84.899 C 106.901 82.754, 103.695 81, 103.537 81 C 103.379 81, 102.969 82.406, 102.625 84.125 M 153.479 128.494 C 151.841 129.833, 148.941 131.462, 147.035 132.113 C 143.661 133.266, 143.633 133.320, 145.942 134.174 C 149.188 135.375, 154.674 133.427, 156.684 130.359 C 159.071 126.716, 157.076 125.555, 153.479 128.494" stroke="none" fill="black" fill-rule="evenodd"/>
</svg>