<svg xmlns="http://www.w3.org/2000/svg" width="192" height="144" viewBox="0 0 192 144" version="1.1">
	<path d="M 0 72 L 0 144 37.255 144 L 74.510 144 76.755 138.211 C 79.397 131.397, 79.664 123.942, 77.389 120.471 C 76.254 118.739, 75.665 114.979, 75.397 107.756 C 75.187 102.115, 74.738 95.813, 74.398 93.750 C 73.857 90.463, 73.438 90, 70.998 90 C 69.467 90, 67.983 89.398, 67.701 88.662 C 66.843 86.428, 70.069 81.080, 73.962 78.282 C 75.983 76.829, 78.914 73.942, 80.476 71.866 C 83.379 68.006, 89.090 65, 93.520 65 L 96 65 96 32.500 L 96 0 48 0 L 0 0 0 72 M 96 104.893 L 96 144 106.250 144.001 L 116.500 144.002 116.160 128.498 C 115.857 114.653, 115.991 113.059, 117.410 113.604 C 119.592 114.441, 119.566 108.454, 117.363 102.950 C 115.958 99.438, 115.910 98.303, 117.023 94.929 C 118.033 91.869, 118.830 91, 120.625 91 C 125.939 91, 125.176 84.286, 119.342 79.697 C 117.871 78.540, 114.188 75.211, 111.156 72.297 C 106.814 68.126, 104.954 67, 102.403 67 C 100.621 67, 98.452 66.727, 97.582 66.393 C 96.156 65.846, 96 69.643, 96 104.893 M 116 82.118 C 116 84.019, 119.733 87.601, 120.703 86.630 C 121.083 86.250, 120.180 84.726, 118.697 83.242 C 116.721 81.267, 116 80.966, 116 82.118 M 71.980 83.524 C 71.284 84.362, 70.985 85.318, 71.314 85.648 C 72.338 86.672, 75 85.143, 75 83.531 C 75 81.573, 73.602 81.569, 71.980 83.524" stroke="none" fill="black" fill-rule="evenodd"/>
</svg>