<svg xmlns="http://www.w3.org/2000/svg" width="192" height="144" viewBox="0 0 192 144" version="1.1">
	<path d="M 68.484 11.017 C 66.289 13.307, 65.649 14.855, 65.823 17.446 C 66.017 20.316, 65.482 21.293, 62.461 23.598 C 58.677 26.484, 55.696 31.405, 54.571 36.623 C 54.065 38.968, 54.583 41.145, 56.653 45.366 C 58.986 50.121, 59.917 51.081, 62.705 51.604 C 66.033 52.229, 66.870 53.730, 64.958 55.642 C 63.474 57.126, 73.605 67, 76.611 67 C 80.456 67, 80.582 69.147, 76.919 72.262 C 75.038 73.860, 72.476 75.574, 71.224 76.069 C 69.973 76.565, 68.651 77.746, 68.287 78.694 C 67.923 79.642, 66.498 81.388, 65.121 82.573 C 63.309 84.131, 62.582 85.803, 62.494 88.614 C 62.427 90.751, 61.550 94.062, 60.546 95.970 L 58.721 99.440 56.274 93.970 C 53.804 88.449, 49.020 75.137, 49.007 73.750 C 49.003 73.338, 50.462 72.957, 52.250 72.904 C 54.038 72.851, 57.750 72.192, 60.500 71.439 C 65.466 70.079, 65.434 70.073, 55.896 70.545 C 48.878 70.892, 45.360 70.631, 42.833 69.575 C 39.862 68.333, 39.029 68.326, 36.937 69.525 C 32.359 72.148, 31.621 72.364, 31.231 71.193 C 31.017 70.552, 30.036 69.032, 29.051 67.815 C 27.401 65.777, 26.890 65.688, 22.545 66.683 C 19.162 67.457, 17.016 67.455, 14.953 66.676 C 13.371 66.079, 11.733 65.933, 11.314 66.352 C 10.895 66.772, 13.088 72.151, 16.188 78.307 C 19.287 84.463, 22.313 90.963, 22.912 92.750 C 25.260 99.762, 26.278 102, 27.119 102 C 29.408 102, 40.669 111.541, 42.282 114.848 C 43.262 116.857, 46.749 121.212, 50.032 124.527 C 53.314 127.842, 56 130.897, 56 131.317 C 56 131.737, 55.053 133.362, 53.896 134.927 C 52.308 137.074, 51.959 138.538, 52.475 140.887 L 53.159 144 81.725 144 L 110.292 144 107.604 141.508 C 106.125 140.138, 103.748 138.724, 102.321 138.366 L 99.727 137.715 100.378 129.242 C 100.736 124.582, 101.542 118.733, 102.168 116.245 C 103.024 112.847, 103.021 111.264, 102.157 109.879 C 101.172 108.303, 101.367 107.946, 103.503 107.410 C 104.876 107.065, 106 106.382, 106 105.892 C 106 105.401, 107.073 105, 108.383 105 C 109.988 105, 110.987 104.265, 111.442 102.750 C 112.095 100.572, 112.142 100.564, 112.909 102.500 C 113.345 103.600, 114.219 104.556, 114.851 104.625 C 115.483 104.694, 116.627 104.806, 117.394 104.875 C 118.517 104.976, 118.591 105.773, 117.778 108.977 C 117.223 111.164, 117.110 113.752, 117.528 114.727 C 117.945 115.702, 118.193 117.693, 118.079 119.151 C 117.964 120.609, 118.349 122.098, 118.935 122.460 C 119.521 122.822, 120 124.640, 120 126.500 C 120 128.360, 120.489 130.184, 121.087 130.554 C 121.685 130.923, 121.952 132.075, 121.681 133.113 C 121.117 135.269, 122.955 135.636, 124.868 133.750 C 125.887 132.745, 126.092 132.990, 125.912 135 C 125.460 140.058, 125.883 141.172, 128 140.500 C 129.560 140.005, 130 140.320, 130 141.933 C 130 143.978, 130.330 144, 161 144 L 192 144 192 123.732 C 192 103.761, 191.963 103.410, 189.500 99.785 C 188.125 97.762, 187 95.832, 187 95.498 C 187 95.163, 184.735 91.358, 181.967 87.043 C 175.940 77.648, 174.122 76.614, 159.898 74.503 C 154.179 73.653, 147.250 72.308, 144.500 71.513 C 136.993 69.343, 128.812 63.789, 126.153 59.059 C 124.899 56.826, 123.705 55, 123.501 55 C 121.618 55, 118 57.260, 118 58.437 C 118 59.255, 113.860 64.255, 108.800 69.548 C 100.432 78.301, 99.481 79.011, 98.300 77.395 C 97.585 76.417, 97 75.029, 97 74.309 C 97 72.573, 100.278 69.364, 102.901 68.531 C 104.056 68.165, 105 67.446, 105 66.933 C 105 66.420, 105.900 66, 107 66 C 108.551 66, 109 65.333, 109 63.031 C 109 60.709, 109.352 60.198, 110.615 60.683 C 111.870 61.164, 112.090 60.860, 111.602 59.320 C 111.255 58.229, 110.805 55.574, 110.602 53.419 C 109.980 46.849, 103.407 30.453, 99.119 24.777 C 95.066 19.414, 90.551 16, 87.509 16 C 86.561 16, 85.336 14.701, 84.703 13.025 C 83.484 9.794, 79.855 8, 74.538 8 C 72.324 8, 70.506 8.906, 68.484 11.017 M 39.171 86.500 C 42.379 92.423, 43 93.017, 43 90.161 C 43 88.348, 38.117 81.107, 36.846 81.036 C 36.487 81.016, 37.533 83.475, 39.171 86.500 M 42.310 94.410 C 41.511 95.838, 41.759 97.037, 43.385 99.592 C 46.192 104.003, 47.055 103.864, 45.512 99.250 C 44.822 97.188, 44.054 94.837, 43.804 94.026 C 43.438 92.837, 43.149 92.911, 42.310 94.410 M 93.956 112.164 C 92.453 117.746, 92.417 123.867, 93.867 127.389 C 94.521 128.977, 95.262 130.072, 95.513 129.821 C 95.764 129.569, 96.430 125.794, 96.992 121.432 C 97.554 117.069, 98.225 112.263, 98.482 110.750 C 98.859 108.536, 98.573 108, 97.014 108 C 95.588 108, 94.781 109.098, 93.956 112.164" stroke="none" fill="black" fill-rule="evenodd"/>
</svg>