<svg xmlns="http://www.w3.org/2000/svg" width="192" height="144" viewBox="0 0 192 144" version="1.1">
	<path d="M 12.750 0.662 C 13.438 0.940, 14.563 0.940, 15.250 0.662 C 15.938 0.385, 15.375 0.158, 14 0.158 C 12.625 0.158, 12.063 0.385, 12.750 0.662 M 51 1.114 C 51 1.727, 49.087 3.998, 46.750 6.161 C 43.108 9.532, 42.858 10, 45 9.435 C 47.288 8.831, 47.174 9.115, 43.658 12.774 C 41.091 15.445, 40.255 16.918, 41.138 17.213 C 42.001 17.500, 41.513 18.273, 39.730 19.442 C 36.127 21.802, 36.280 23, 40.182 23 L 43.363 23 39.682 26.275 C 35.874 29.663, 34.884 31.642, 37.500 30.638 C 38.325 30.322, 39.675 30.322, 40.501 30.639 C 42.048 31.232, 38.562 34.426, 31.250 39.114 C 27.217 41.700, 27.161 42.857, 31 44.306 C 34.299 45.551, 34.529 46.143, 32.897 49.193 C 32.056 50.763, 32.105 51.447, 33.099 52.061 C 33.817 52.505, 34.763 52.646, 35.202 52.375 C 36.308 51.692, 36.199 52.760, 34.919 55.151 C 33.109 58.534, 34.491 58.285, 41.048 54.048 C 44.500 51.816, 47.494 50.160, 47.701 50.368 C 47.908 50.575, 47.438 52.602, 46.656 54.872 C 45.203 59.090, 45.585 59.972, 47.905 57.750 C 48.971 56.730, 49.107 57.052, 48.646 59.500 C 47.079 67.819, 46.800 74, 47.992 74 C 48.664 74, 48.960 74.661, 48.651 75.468 C 48.341 76.275, 48.518 77.202, 49.044 77.527 C 49.570 77.852, 50 79.231, 50 80.590 C 50 83.574, 52.399 84.733, 54.700 82.862 C 56.133 81.696, 56.295 81.716, 55.824 83 C 53.828 88.445, 53.838 89, 55.933 89 C 58.399 89, 58.690 91.705, 56.532 94.559 C 54.659 97.035, 54.579 99.376, 56.391 98.680 C 57.535 98.241, 57.508 98.843, 56.235 102.084 C 54.331 106.931, 54.967 107.723, 58.900 105.400 C 62.646 103.187, 63.703 103.997, 61.486 107.381 C 60.565 108.786, 60.015 110.513, 60.262 111.218 C 60.510 111.923, 60.279 113.625, 59.750 115 C 59.220 116.375, 58.409 118.760, 57.949 120.300 C 57.189 122.839, 57.306 123.038, 59.203 122.435 C 61.109 121.831, 61.238 122.060, 60.650 125.001 C 60.295 126.777, 58.639 130.086, 56.971 132.354 C 53.396 137.215, 54.638 138.276, 59.532 134.543 C 62.302 132.431, 63 132.224, 63 133.515 C 63 134.404, 62.612 135.889, 62.138 136.816 C 61.664 137.742, 60.981 139.737, 60.619 141.250 L 59.962 144 74.872 144 L 89.781 144 90.263 140.750 C 90.529 138.963, 92.801 130.447, 95.313 121.826 C 97.825 113.205, 100.163 104.650, 100.507 102.813 C 100.852 100.977, 101.976 98.358, 103.005 96.994 C 104.583 94.902, 104.973 94.767, 105.496 96.130 C 105.861 97.080, 104.856 99.735, 103.058 102.569 C 99.649 107.945, 99.022 111.313, 101.615 110.317 C 102.900 109.824, 103.091 110.138, 102.548 111.849 C 101.599 114.838, 102.534 114.541, 105.998 110.750 L 108.967 107.500 107.323 112.446 C 106.130 116.034, 105.997 117.499, 106.839 117.780 C 107.478 117.993, 108 119.479, 108 121.083 C 108 123.009, 108.510 124, 109.500 124 C 110.325 124, 111 124.702, 111 125.559 C 111 126.416, 111.450 126.840, 112 126.500 C 112.550 126.160, 113 126.639, 113 127.563 C 113 129.015, 113.228 129.057, 114.666 127.872 C 116.170 126.633, 116.263 126.775, 115.626 129.334 C 115.166 131.180, 115.278 131.946, 115.948 131.532 C 116.628 131.112, 116.771 132.524, 116.370 135.698 L 115.764 140.500 118.841 137 L 121.919 133.500 121.959 138.750 L 122 144 127 144 C 131.697 144, 132 143.845, 132 141.441 C 132 139.990, 132.433 139.149, 133 139.500 C 133.550 139.840, 134 140.991, 134 142.059 C 134 143.463, 134.692 144, 136.500 144 C 137.936 144, 139 143.424, 139 142.645 C 139 141.900, 138.581 135.713, 138.070 128.895 C 137.558 122.078, 136.882 106.150, 136.567 93.500 C 135.674 57.671, 134.965 45.943, 133.331 40 C 132.500 36.975, 128.863 29.780, 125.250 24.012 C 118.614 13.419, 114 4.175, 114 1.471 C 114 0.207, 109.562 0, 82.500 0 C 60.015 0, 51 0.319, 51 1.114" stroke="none" fill="black" fill-rule="evenodd"/>
</svg>