<svg xmlns="http://www.w3.org/2000/svg" width="192" height="144" viewBox="0 0 192 144" version="1.1">
	<path d="M 0 4 C 0 6.200, 0.450 8, 1 8 C 1.550 8, 2 7.830, 2 7.622 C 2 7.414, 2.681 5.614, 3.513 3.622 C 5.019 0.019, 5.014 0, 2.513 0 C 0.248 0, 0 0.394, 0 4 M 169.200 61.200 C 167.210 63.190, 167.823 67.485, 170.449 69.952 C 173.962 73.252, 176 72.070, 176 66.731 C 176 62.197, 174.694 60, 172 60 C 171.120 60, 169.860 60.540, 169.200 61.200" stroke="none" fill="black" fill-rule="evenodd"/>
</svg>