<svg xmlns="http://www.w3.org/2000/svg" width="192" height="144" viewBox="0 0 192 144" version="1.1">
	<path d="M 63.728 9.250 C 63.163 18.861, 59.961 30.958, 57.426 33.061 C 56.642 33.712, 56 34.868, 56 35.629 C 56 36.390, 52.962 40.072, 49.250 43.810 C 41.399 51.715, 30.703 57.515, 21.134 59.056 C 15.180 60.015, 2.888 59.667, 0.976 58.485 C 0.347 58.096, -0 73.186, -0 100.941 L 0 144 52.858 144 L 105.715 144 106.317 138.250 C 106.648 135.088, 108.263 128.138, 109.904 122.807 C 112.270 115.126, 116.877 93.834, 117.328 88.500 C 117.596 85.329, 115.370 79.293, 113.346 77.700 C 110.821 75.714, 110.312 72.154, 112.081 68.849 C 113.673 65.874, 112.654 65.585, 107.507 67.551 C 102.984 69.278, 102.811 69.270, 98.851 67.157 C 96.629 65.970, 93.508 65, 91.915 65 C 90.322 65, 84.852 63.394, 79.759 61.430 C 74.667 59.467, 69.082 57.433, 67.349 56.911 C 64.105 55.933, 62.334 53.529, 64.068 52.458 C 65.427 51.618, 70.795 52.887, 75.103 55.067 C 79.969 57.530, 95.878 60.769, 96.796 59.485 C 98.520 57.074, 101.860 56.099, 105.157 57.045 C 106.989 57.570, 110.422 58, 112.787 58 C 117.748 58, 118.143 56.338, 114.148 52.278 C 112.678 50.783, 111.988 49.154, 112.308 47.930 C 112.640 46.662, 112.148 45.614, 110.910 44.952 C 108.816 43.831, 108.236 38.590, 110.079 37.451 C 110.774 37.021, 110.912 34.997, 110.466 31.755 L 109.775 26.727 112.595 27.434 C 114.146 27.824, 118.721 29.754, 122.761 31.724 C 131.168 35.824, 132.768 38.040, 134.099 47.431 C 135.849 59.783, 136.651 62.176, 139.891 64.712 C 142.346 66.633, 143.007 67.919, 143.035 70.822 C 143.055 72.845, 143.714 75.625, 144.500 77 C 145.322 78.438, 145.944 82.262, 145.965 86 C 145.984 89.576, 146.661 95.651, 147.468 99.500 C 148.300 103.466, 148.541 106.636, 148.024 106.815 C 147.523 106.988, 147.389 107.849, 147.726 108.729 C 148.134 109.791, 147.947 110.085, 147.170 109.605 C 146.526 109.207, 146 109.359, 146 109.941 C 146 110.523, 145.325 111, 144.500 111 C 142.248 111, 142.571 112.185, 147.894 123.470 C 150.586 129.177, 153.550 136.140, 154.482 138.945 L 156.175 144.044 174.338 143.772 L 192.500 143.500 192.825 129 C 193.003 121.025, 192.837 88.737, 192.455 57.250 L 191.761 0 128.017 0 L 64.273 0 63.728 9.250 M 0.459 101 C 0.459 124.925, 0.589 134.713, 0.749 122.750 C 0.908 110.788, 0.908 91.213, 0.749 79.250 C 0.589 67.288, 0.459 77.075, 0.459 101 M 137.579 83.500 C 137.200 85.700, 136.720 88.331, 136.513 89.347 C 135.979 91.968, 139.087 101.064, 140.268 100.334 C 141.334 99.675, 140.553 87.599, 139.115 82.500 L 138.269 79.500 137.579 83.500" stroke="none" fill="black" fill-rule="evenodd"/>
</svg>