<svg xmlns="http://www.w3.org/2000/svg" width="192" height="144" viewBox="0 0 192 144" version="1.1">
	<path d="M 0 72 L 0 144 35.858 144 L 71.715 144 73.463 135.750 C 74.424 131.213, 75.557 125.700, 75.981 123.500 C 76.406 121.300, 77.500 117.484, 78.413 115.020 C 79.626 111.747, 80.034 107.640, 79.926 99.770 C 79.845 93.847, 79.476 89, 79.105 89 C 78.734 89, 77.688 90.259, 76.779 91.797 C 75.870 93.336, 73.937 95.231, 72.483 96.009 C 70.124 97.272, 69.174 97.191, 63.669 95.260 C 60.276 94.070, 55.893 92.814, 53.929 92.470 C 51.842 92.105, 49.602 90.838, 48.539 89.422 C 47.431 87.947, 45.700 86.998, 44.110 86.994 C 40.978 86.988, 34.364 85.337, 31.250 83.784 C 28.344 82.335, 28.344 80.088, 31.250 80.245 C 32.487 80.312, 34.942 80.284, 36.703 80.183 C 39.862 80.003, 39.887 79.961, 38.495 77.250 C 34.081 68.653, 33.039 65, 35 65 C 35.550 65, 36 63.227, 36 61.059 C 36 56.780, 37.060 55.616, 41.165 55.390 C 43.100 55.283, 43.995 55.826, 44.432 57.371 C 44.983 59.325, 45.139 59.362, 46.324 57.822 C 47.919 55.749, 48.904 56.415, 51.652 61.422 C 54.004 65.708, 53.821 66.672, 48.811 76.358 C 47.369 79.147, 47.119 80.519, 47.908 81.308 C 48.688 82.088, 49.308 82.092, 50.077 81.323 C 51.350 80.050, 55.216 80.833, 62.911 83.924 C 67.221 85.655, 68.492 85.833, 69.157 84.799 C 70.421 82.835, 71.988 76.827, 71.994 73.924 C 71.998 72.475, 73.094 70.321, 74.500 69 C 77.075 66.581, 77.815 64, 75.934 64 C 75.347 64, 75.010 62.762, 75.184 61.250 C 75.455 58.894, 75.896 58.546, 78.264 58.823 L 81.028 59.147 80.488 51.823 C 80.192 47.796, 79.746 41.943, 79.497 38.818 C 79.203 35.125, 79.562 31.899, 80.522 29.600 C 82.462 24.958, 82.462 24.958, 79.133 25.623 C 75.919 26.266, 75.668 25.767, 74.427 16.250 L 73.742 11 77.121 11.033 C 78.980 11.051, 82.975 11.936, 86 13 C 93.619 15.680, 98.407 15.554, 102.318 12.571 C 104.930 10.579, 114.141 6, 115.536 6 C 116.259 6, 119.847 14.938, 120.033 17.201 C 120.379 21.424, 120.022 22, 117.059 22 C 115.441 22, 113.840 22.450, 113.500 23 C 113.160 23.550, 111.939 24, 110.786 24 C 108.864 24, 108.819 24.145, 110.245 25.750 C 111.100 26.712, 112.974 32.900, 114.409 39.500 C 117.997 55.994, 118.907 59.008, 120.221 58.736 C 120.846 58.606, 121.699 60.300, 122.117 62.500 C 122.536 64.700, 123.805 68.283, 124.939 70.461 C 127.202 74.811, 127.833 79.130, 125.624 75.146 C 124.451 73.032, 124.354 73.390, 124.665 78.646 C 124.898 82.591, 124.726 83.848, 124.136 82.500 C 123.459 80.954, 123.151 81.749, 122.779 86 C 122.248 92.061, 124.172 97.372, 128.598 102.064 C 130.840 104.440, 130.980 105.194, 130.507 112.351 C 129.827 122.623, 128.109 126.525, 123.305 128.710 C 121.212 129.662, 119.387 130.492, 119.249 130.555 C 119.111 130.618, 119.739 133.674, 120.646 137.347 L 122.294 144.025 157.397 143.763 L 192.500 143.500 192.757 71.750 L 193.013 0 96.507 0 L 0 0 0 72 M 0.474 72.500 C 0.474 112.100, 0.598 128.154, 0.750 108.176 C 0.901 88.198, 0.901 55.798, 0.750 36.176 C 0.598 16.554, 0.474 32.900, 0.474 72.500 M 81.072 86 C 80.965 90.914, 82.295 99, 83.211 99 C 84.229 99, 83.262 88.836, 81.927 85.500 C 81.203 83.689, 81.122 83.737, 81.072 86 M 117 104.333 C 117 106.248, 115.042 106.641, 114.919 104.750 C 114.874 104.063, 114.251 104.830, 113.534 106.456 C 112.715 108.314, 112.545 110.172, 113.076 111.456 C 113.541 112.580, 114.858 116.763, 116.003 120.750 C 117.148 124.737, 118.433 128, 118.858 128 C 119.284 128, 120.682 126.131, 121.966 123.846 C 124.177 119.912, 124.207 119.625, 122.529 118.398 C 121.173 117.406, 120.908 116.307, 121.395 113.707 C 121.875 111.149, 121.535 109.655, 120.016 107.655 C 118.907 106.195, 118.037 104.737, 118.083 104.417 C 118.129 104.096, 117.904 103.571, 117.583 103.250 C 117.263 102.929, 117 103.417, 117 104.333" stroke="none" fill="black" fill-rule="evenodd"/>
</svg>