<svg xmlns="http://www.w3.org/2000/svg" width="192" height="144" viewBox="0 0 192 144" version="1.1">
	<path d="M 0 72 L 0 144 33.500 144 L 67 144 67 135.563 L 67 127.126 63.637 127.671 C 58.518 128.502, 54.743 124.402, 52.454 115.524 C 51.465 111.688, 49.349 106.065, 47.752 103.029 C 44.972 97.743, 44.731 95.418, 46.491 90.869 C 46.936 89.721, 46.099 88.606, 43.662 87.100 C 41.550 85.795, 39.589 83.430, 38.629 81.031 C 37.764 78.869, 36.191 76.637, 35.133 76.071 C 33.058 74.961, 31 70.130, 31 66.370 C 31 64.656, 30.271 63.860, 28.250 63.365 C 25.088 62.591, 24.037 61.361, 24.015 58.411 C 24.006 57.161, 22.995 55.863, 21.500 55.182 C 18.649 53.883, 18.257 52.222, 20.591 51.327 C 21.579 50.947, 23.097 51.703, 24.599 53.324 C 26.941 55.849, 30.612 56.063, 29.693 53.621 C 26.313 44.637, 24.573 31.099, 26.275 27.028 C 26.857 25.638, 27.408 24.275, 27.500 24 C 27.592 23.725, 28.195 22.227, 28.839 20.671 C 29.483 19.116, 29.932 15.766, 29.836 13.228 C 29.731 10.452, 30.127 8.458, 30.831 8.223 C 31.474 8.009, 32 7.296, 32 6.639 C 32 5.982, 32.900 4.674, 34 3.732 C 35.100 2.790, 36 1.565, 36 1.010 C 36 0.367, 29.450 0, 18 0 L 0 0 0 72 M 79.647 4.250 C 79.342 6.588, 78.798 10.188, 78.437 12.250 C 78.076 14.313, 78.180 16, 78.668 16 C 80.292 16, 84 12.906, 84 11.550 C 84 10.815, 84.675 9.955, 85.500 9.638 C 87.054 9.042, 87.455 14.724, 87.081 32 C 87.003 35.575, 87.361 39.134, 87.877 39.908 C 88.999 41.594, 100.664 42.353, 101.622 40.802 C 101.970 40.239, 102.274 37.128, 102.296 33.889 C 102.330 29.016, 102.632 28, 104.046 28 C 104.987 28, 106.468 26.988, 107.339 25.750 L 108.921 23.500 110.910 26 C 112.004 27.375, 113.191 30.212, 113.547 32.305 C 114.026 35.122, 114.623 36.025, 115.847 35.783 C 117.192 35.517, 117.505 34.157, 117.525 28.478 C 117.552 20.864, 119.026 9.734, 119.737 11.770 C 120.034 12.620, 120.729 12.290, 121.840 10.770 C 124.302 7.403, 127 2.344, 127 1.096 C 127 -0.420, 89.828 -0.428, 88.313 1.087 C 87.530 1.870, 87.038 1.870, 86.554 1.087 C 86.184 0.489, 84.604 -0, 83.042 -0 C 80.454 -0, 80.152 0.378, 79.647 4.250 M 138.487 1.750 C 138.873 2.712, 139.765 5.679, 140.471 8.342 C 141.890 13.695, 144.493 17.356, 144.673 14.250 C 144.728 13.287, 145.114 9.688, 145.529 6.250 L 146.285 0 142.035 0 C 138.388 0, 137.885 0.248, 138.487 1.750 M 157.360 2.750 C 156.436 20.974, 156.694 27.036, 158.563 30.934 C 159.628 33.158, 160.826 34.982, 161.224 34.989 C 161.623 34.995, 162.663 33.618, 163.537 31.929 C 164.800 29.486, 165.407 29.093, 166.507 30.006 C 168.040 31.278, 167.674 37.483, 165.942 39.570 C 165.151 40.523, 165.719 40.734, 168.401 40.485 C 173.043 40.053, 174.626 41.922, 172.816 45.698 C 171.878 47.656, 170.724 48.500, 168.987 48.500 C 166.912 48.500, 166.448 47.961, 166.187 45.250 C 166.014 43.462, 165.425 42, 164.878 42 C 164.330 42, 164.153 42.438, 164.484 42.973 C 164.814 43.509, 164.166 44.734, 163.043 45.696 C 161.916 46.661, 161 48.663, 161 50.163 C 161 51.659, 160.538 53.167, 159.973 53.516 C 159.409 53.865, 159.064 54.679, 159.208 55.325 C 159.601 57.091, 156.909 63, 155.712 63 C 155.137 63, 154.953 63.287, 155.304 63.637 C 155.654 63.988, 155.005 65.588, 153.861 67.195 C 152.718 68.801, 151.943 70.202, 152.141 70.308 C 157.549 73.205, 158.428 75.507, 154.672 76.935 C 153.311 77.452, 151.180 79.687, 149.935 81.901 C 148.632 84.219, 146.254 86.601, 144.328 87.515 C 141.508 88.853, 141.142 89.397, 141.992 90.985 C 143.499 93.800, 143.219 97.243, 141.089 102.123 C 140.038 104.530, 138.243 111, 137.101 116.500 C 134.728 127.926, 132.468 131, 126.444 131 L 123 131 123 137.500 L 123 144 157.500 144 L 192 144 192 72 L 192 0 174.750 0 L 157.500 0 157.360 2.750 M 86.015 5.250 C 86.007 6.763, 86.450 8, 87 8 C 88.264 8, 88.264 5.957, 87 4 C 86.245 2.831, 86.027 3.107, 86.015 5.250 M 118.540 82.135 C 118.941 88.936, 119.399 95.175, 119.558 96 C 119.717 96.825, 119.881 98.287, 119.923 99.250 C 120.085 102.944, 122 100.790, 122 96.914 C 122 94.667, 122.762 89.967, 123.694 86.471 C 125.385 80.125, 125.384 80.105, 122.944 75.371 C 118.566 66.875, 117.717 68.179, 118.540 82.135 M 70.180 74.221 C 69.841 78.672, 68.198 81.198, 66.080 80.525 C 65.082 80.209, 63.731 80.619, 63.042 81.449 C 62.037 82.660, 62.180 83.565, 63.796 86.222 C 64.893 88.025, 66.105 91.862, 66.489 94.750 C 67.198 100.077, 67.954 101.003, 69.754 98.750 C 70.593 97.700, 73.012 79.169, 73.003 73.857 C 72.998 70.725, 70.421 71.057, 70.180 74.221" stroke="none" fill="black" fill-rule="evenodd"/>
</svg>