<svg xmlns="http://www.w3.org/2000/svg" width="192" height="144" viewBox="0 0 192 144" version="1.1">
	<path d="M 101.139 13.035 C 99.841 14.116, 97.986 15, 97.017 15 C 95.731 15, 95.080 16.096, 94.606 19.061 C 94.249 21.294, 94.218 23.544, 94.537 24.061 C 95.734 25.997, 92.748 24.911, 91.025 22.782 C 89.524 20.929, 88.975 20.776, 87.684 21.847 C 86.392 22.920, 85.959 22.792, 85.035 21.065 C 83.549 18.289, 81.204 18.457, 79.847 21.436 C 78.462 24.477, 79.371 27.023, 82.097 27.736 C 83.948 28.220, 84.111 28.777, 83.531 32.641 C 82.823 37.366, 82.806 37.353, 88.862 37.015 C 90.823 36.906, 91.975 37.232, 91.625 37.798 C 91.295 38.332, 90.972 40.958, 90.907 43.634 C 90.842 46.310, 90.161 51.340, 89.394 54.812 C 87.390 63.886, 87.568 70.510, 89.875 72.711 C 91.062 73.843, 92.013 76.668, 92.466 80.407 C 92.861 83.655, 93.425 86.945, 93.721 87.716 C 94.052 88.578, 93.434 89.335, 92.119 89.679 C 89.166 90.451, 88.284 94.552, 90.536 97.040 C 92.235 98.917, 92.234 99.084, 90.523 100.974 C 89.540 102.060, 87.869 103.224, 86.809 103.560 C 85.020 104.129, 84.993 104.341, 86.441 106.551 C 88.551 109.771, 88.405 110.908, 85.750 111.932 C 83.773 112.694, 83.709 112.884, 85.224 113.497 C 86.284 113.925, 87.597 113.546, 88.629 112.513 C 90.738 110.405, 94.859 108.795, 96.132 109.581 C 96.662 109.909, 98.260 109.012, 99.684 107.589 C 101.108 106.165, 103.011 105, 103.914 105 C 106.539 105, 110.199 101.961, 109.565 100.308 C 109.242 99.467, 109.924 98.072, 111.140 97.088 C 113.119 95.485, 113.198 94.974, 112.167 90.426 C 111.553 87.717, 110.561 82.638, 109.961 79.139 C 108.942 73.190, 109.005 72.684, 110.936 71.332 C 113.787 69.336, 113.540 67.835, 109.581 63.097 C 107.701 60.847, 105.417 56.759, 104.505 54.014 C 103.593 51.269, 102.519 48.821, 102.117 48.572 C 100.870 47.802, 102.158 40.877, 103.655 40.302 C 105.113 39.743, 108 34.923, 108 33.050 C 108 32.472, 107.052 32, 105.893 32 C 104.281 32, 103.954 31.588, 104.499 30.250 C 107.947 21.784, 108.234 20.006, 106.563 17.455 C 105.661 16.079, 105.053 14.223, 105.212 13.330 C 105.637 10.934, 103.822 10.803, 101.139 13.035 M 40.658 16.551 C 41.323 18.285, 37.425 23, 35.326 23 C 33.779 23, 33.537 25.596, 35 26.500 C 35.550 26.840, 36 28.033, 36 29.151 C 36 30.270, 36.890 32.316, 37.978 33.699 C 39.346 35.438, 39.685 36.720, 39.077 37.857 C 38.593 38.761, 37.884 41.589, 37.501 44.142 C 35.916 54.712, 22.873 60.603, 17.421 53.211 C 16.480 51.935, 15.351 51.982, 8.560 53.583 C 0.675 55.442, -1.403 57.085, 1.113 59.469 C 2.460 60.746, 25.088 73.516, 33.847 77.943 C 36.238 79.151, 38.825 79.897, 39.597 79.601 C 40.466 79.268, 40.998 79.716, 40.996 80.781 C 40.993 81.727, 42.665 85.803, 44.711 89.840 C 48.194 96.713, 48.314 97.245, 46.603 98.203 C 43.311 100.045, 41 102.958, 41 105.265 C 41 107.073, 40.013 107.881, 36.116 109.265 C 29.635 111.567, 28.303 111.469, 24.267 108.390 C 21.682 106.419, 20.129 105.924, 17.911 106.368 C 13.799 107.190, 5 111.078, 5 112.072 C 5 112.527, 12.942 119.820, 22.648 128.280 L 40.296 143.661 48.398 139.005 C 52.854 136.444, 56.500 133.861, 56.500 133.265 C 56.500 132.669, 52.907 129.558, 48.516 126.351 L 40.531 120.520 45.149 119.860 C 52.137 118.860, 55.591 116.209, 55.073 112.241 C 54.982 111.549, 56.167 109.895, 57.704 108.565 L 60.500 106.148 58.624 102.324 C 53.942 92.780, 52.584 90.361, 50.788 88.364 C 49.293 86.703, 49.017 85.426, 49.545 82.612 C 50.122 79.537, 50.893 78.699, 54.687 77.021 C 60.012 74.665, 59.985 74.378, 53.317 62.500 C 49.460 55.628, 48.902 53.930, 49.366 50.455 C 49.663 48.230, 50.178 45.700, 50.510 44.834 C 50.843 43.967, 50.414 42.557, 49.558 41.700 C 47.591 39.734, 47.555 38, 49.481 38 C 51.511 38, 52.340 34.025, 51.030 30.579 C 50.435 29.015, 50.216 26.896, 50.542 25.869 C 50.967 24.529, 50.479 23.748, 48.817 23.105 C 47.543 22.611, 45.642 20.586, 44.593 18.604 C 42.738 15.100, 39.441 13.380, 40.658 16.551 M 166.040 20.817 C 165.991 23.667, 161.314 30, 159.259 30 C 158.024 30, 157.982 30.273, 159.021 31.525 C 160.485 33.289, 161.184 44.768, 159.878 45.576 C 159.395 45.874, 159 48.315, 159 51 C 159 53.685, 158.550 56.160, 158 56.500 C 157.450 56.840, 157 57.998, 157 59.073 C 157 60.148, 156.598 61.809, 156.106 62.764 C 152.397 69.964, 148 80.055, 148 81.366 C 148 83.211, 151.308 85.571, 155.250 86.541 C 156.762 86.913, 158 87.645, 158 88.168 C 158 88.692, 156.425 91.183, 154.500 93.704 C 152.575 96.225, 151 99.326, 151 100.594 C 151 101.863, 150.222 103.336, 149.271 103.868 C 147.650 104.775, 147.662 104.969, 149.468 106.965 C 150.528 108.136, 153.131 110.070, 155.252 111.262 C 158.566 113.125, 159.020 113.786, 158.477 115.965 C 158.129 117.359, 157.160 119.259, 156.324 120.187 C 155.488 121.115, 155.071 122.306, 155.397 122.834 C 156.316 124.320, 170.711 129.296, 171.924 128.547 C 173.749 127.419, 173.116 126.004, 170.750 125.926 C 167.200 125.809, 160.387 122.497, 161.844 121.596 C 162.528 121.174, 163.662 121.305, 164.364 121.887 C 165.067 122.470, 168.534 123.153, 172.071 123.404 C 175.607 123.655, 179.887 124.360, 181.582 124.970 C 183.761 125.754, 185.470 125.772, 187.416 125.032 C 188.929 124.457, 190.580 124.240, 191.084 124.552 C 191.588 124.863, 192 124.420, 192 123.567 C 192 122.714, 190.313 121.197, 188.250 120.196 C 186.188 119.196, 184.585 117.924, 184.689 117.371 C 184.793 116.817, 183.668 116.537, 182.189 116.749 C 180.710 116.960, 177.363 116.182, 174.750 115.020 C 170.120 112.960, 168.518 111, 171.465 111 C 172.270 111, 173.456 110.016, 174.099 108.814 C 175.112 106.921, 174.909 106.318, 172.579 104.314 C 171.099 103.041, 169.005 102, 167.925 102 C 166.285 102, 166.074 101.548, 166.645 99.250 C 167.020 97.737, 167.949 95.004, 168.708 93.177 C 169.467 91.349, 169.833 89.048, 169.520 88.064 C 169.122 86.810, 170.007 85.469, 172.476 83.586 C 176.517 80.504, 176.678 79.799, 174.182 76.154 C 173.182 74.694, 171.600 70.667, 170.665 67.205 L 168.967 60.910 171.733 57.205 C 176.669 50.595, 176.506 50.663, 180.834 53.395 C 182.982 54.751, 185.586 55.702, 186.620 55.507 C 187.654 55.312, 189.287 55.119, 190.250 55.077 C 191.425 55.025, 192 54.186, 192 52.526 C 192 49.834, 188.993 47.778, 183.250 46.541 C 181.463 46.156, 180.017 45.539, 180.037 45.171 C 180.057 44.802, 182.286 41.367, 184.990 37.537 C 187.694 33.707, 189.650 30.332, 189.336 30.037 C 189.022 29.742, 188.256 30.346, 187.633 31.380 C 187.010 32.415, 184.528 35.984, 182.119 39.311 C 178.247 44.659, 177.595 45.167, 176.509 43.681 C 175.833 42.756, 174.556 42, 173.671 42 C 171.885 42, 172.345 39.624, 174.655 36.918 C 175.398 36.048, 175.943 34.248, 175.867 32.918 C 175.791 31.588, 176.076 29.679, 176.500 28.675 C 177.050 27.375, 176.873 26.935, 175.886 27.144 C 173.894 27.567, 169.154 24.156, 167.497 21.107 C 166.095 18.527, 166.080 18.524, 166.040 20.817 M 35.523 55.974 C 34.540 57.060, 32.896 58.216, 31.868 58.542 C 29.125 59.413, 29.593 61, 32.592 61 C 35.907 61, 39.662 58.019, 39.206 55.750 C 38.748 53.476, 37.728 53.538, 35.523 55.974 M 98.114 74.724 C 95.808 75.160, 95.748 75.397, 96.343 81.767 C 96.681 85.392, 97.305 88.687, 97.729 89.089 C 98.153 89.491, 100.525 89.973, 103 90.160 L 107.500 90.500 107.200 85.753 C 107.035 83.142, 106.242 79.430, 105.437 77.503 C 103.970 73.992, 103.309 73.741, 98.114 74.724 M 159.196 95.298 C 155.349 99.267, 155.190 100.612, 158.494 101.244 C 161.506 101.819, 162.527 100.680, 163.415 95.750 C 164.246 91.139, 163.323 91.040, 159.196 95.298 M 92.500 103.322 C 88.367 104.834, 88.261 104.986, 90.303 106.480 C 91.803 107.576, 92.602 107.546, 95.102 106.299 C 96.751 105.476, 97.938 104.313, 97.738 103.714 C 97.221 102.164, 95.930 102.067, 92.500 103.322 M 35.750 111.572 C 32.415 113.381, 32.308 114.402, 35.238 116.454 C 37.326 117.917, 37.591 117.871, 39.215 115.761 C 41.251 113.117, 41.543 109.983, 39.750 110.040 C 39.063 110.062, 37.263 110.751, 35.750 111.572" stroke="none" fill="black" fill-rule="evenodd"/>
</svg>