<svg xmlns="http://www.w3.org/2000/svg" width="192" height="144" viewBox="0 0 192 144" version="1.1">
	<path d="M 0 72 L 0 144 29.750 143.964 L 59.500 143.928 56.500 141.469 C 54.850 140.117, 53.193 139.008, 52.817 139.005 C 52.442 139.002, 51.815 137.987, 51.424 136.750 C 51.033 135.512, 49.878 133.912, 48.857 133.193 C 46.591 131.598, 46.505 129.299, 48.560 125.180 C 50.213 121.866, 57.671 114.993, 61.945 112.845 C 68.463 109.569, 73.507 105.274, 80.091 97.391 C 87.105 88.994, 87.191 88.822, 85.114 87.367 C 83.951 86.553, 83 85.237, 83 84.443 C 83 83.649, 82.175 83, 81.167 83 C 78.319 83, 77.815 81.818, 80.006 80.283 C 82.404 78.604, 82.663 72.994, 80.695 65.405 C 79.977 62.638, 79.705 59.197, 80.089 57.759 C 80.628 55.745, 80.466 55.268, 79.387 55.682 C 78.615 55.978, 76.863 55.485, 75.492 54.587 C 71.859 52.207, 72.106 47.772, 76.028 44.980 C 77.693 43.795, 80.171 40.622, 81.535 37.930 C 85.467 30.171, 90.671 27.964, 97.938 30.974 C 103.839 33.419, 106.143 42.066, 101.461 44.200 C 100.065 44.836, 99.113 45.853, 99.347 46.461 C 99.937 48.001, 96.749 51.705, 94.427 52.177 C 92.752 52.518, 92.892 52.817, 95.500 54.465 C 97.150 55.507, 98.989 56.940, 99.587 57.649 C 100.436 58.654, 101.417 57.947, 104.047 54.438 C 108.186 48.913, 111.722 47.057, 119.508 46.323 C 129.394 45.390, 140.832 50.298, 147.371 58.277 C 154.394 66.848, 156.708 83.701, 151.932 91.500 C 149.553 95.385, 143.444 100.180, 141.229 99.900 C 140.278 99.780, 138.195 100.044, 136.599 100.487 C 134.775 100.994, 133.016 100.867, 131.863 100.146 C 130.853 99.516, 128.516 99, 126.669 99 C 124.601 99, 122.627 98.245, 121.534 97.038 C 120.557 95.958, 118.237 94.573, 116.379 93.960 C 114.121 93.215, 112.796 92.035, 112.387 90.405 C 111.804 88.081, 111.635 88.184, 108.868 92.547 C 107.270 95.067, 106.222 97.550, 106.540 98.065 C 107.357 99.387, 111.373 99.227, 112.783 97.817 C 114.428 96.172, 115.664 97.722, 114.364 99.798 C 113.778 100.734, 111.881 101.641, 110.149 101.813 C 107.965 102.031, 107 102.651, 107 103.840 C 107 106.393, 108.812 121.062, 110.632 133.250 L 112.238 144 141.869 143.985 C 161.369 143.975, 170.987 143.638, 170 143 C 168.793 142.220, 168.951 142.028, 170.809 142.015 C 172.150 142.006, 172.850 142.434, 172.478 143.036 C 172.048 143.732, 175.230 143.978, 182.169 143.786 L 192.500 143.500 192.757 71.750 L 193.013 0 147.590 -0 C 112.229 -0, 102.037 0.277, 101.583 1.250 C 101.117 2.250, 100.883 2.250, 100.417 1.250 C 99.961 0.274, 88.872 0, 49.917 0 L 0 0 0 72 M 0.474 72.500 C 0.474 112.100, 0.598 128.154, 0.750 108.176 C 0.901 88.198, 0.901 55.798, 0.750 36.176 C 0.598 16.554, 0.474 32.900, 0.474 72.500 M 96.872 3.750 C 95.629 5.336, 95.664 5.371, 97.250 4.128 C 98.213 3.373, 99 2.585, 99 2.378 C 99 1.555, 98.179 2.084, 96.872 3.750 M 3 15.583 C 3 17.349, 5.153 17.042, 5.771 15.188 C 5.989 14.534, 5.454 14, 4.583 14 C 3.712 14, 3 14.713, 3 15.583 M 15 22 C 15 22.550, 15.477 23, 16.059 23 C 16.641 23, 16.840 22.550, 16.500 22 C 16.160 21.450, 15.684 21, 15.441 21 C 15.198 21, 15 21.450, 15 22 M 55 37 C 55 37.550, 55.648 38, 56.441 38 C 57.234 38, 58.160 37.550, 58.500 37 C 58.840 36.450, 58.191 36, 57.059 36 C 55.927 36, 55 36.450, 55 37 M 103 81.255 C 103 84.812, 103.959 86.136, 107.444 87.388 C 109.285 88.049, 109.298 87.987, 107.694 86.214 C 106.762 85.185, 106 83.421, 106 82.294 C 106 81.167, 105.325 79.685, 104.500 79 C 103.215 77.934, 103 78.257, 103 81.255 M 168.173 94.564 C 168.602 98.209, 170.735 98.914, 170.601 95.366 C 170.546 93.880, 169.903 92.466, 169.173 92.223 C 168.237 91.912, 167.942 92.601, 168.173 94.564 M 4 110 C 3.099 110.582, 2.975 110.975, 3.691 110.985 C 4.346 110.993, 5.160 110.550, 5.500 110 C 6.267 108.758, 5.921 108.758, 4 110 M 165.500 123 C 165.840 123.550, 166.766 124, 167.559 124 C 168.352 124, 169 123.550, 169 123 C 169 122.450, 168.073 122, 166.941 122 C 165.809 122, 165.160 122.450, 165.500 123" stroke="none" fill="black" fill-rule="evenodd"/>
</svg>