<svg xmlns="http://www.w3.org/2000/svg" width="192" height="144" viewBox="0 0 192 144" version="1.1">
	<path d="M 66 1.022 C 66 1.585, 67.857 4.060, 70.127 6.522 L 74.255 11 71.531 11 C 70.033 11, 66.319 10.277, 63.277 9.392 L 57.747 7.785 55.623 10.311 C 54.456 11.701, 51.558 13.799, 49.185 14.973 C 43.193 17.937, 45.061 21.153, 51.250 18.528 C 52.603 17.954, 53 18.272, 53 19.928 C 53 21.811, 52.739 21.931, 50.848 20.919 C 48.943 19.899, 48.782 19.981, 49.446 21.634 C 52.915 30.281, 53.517 36.094, 51.478 41.250 C 51.010 42.434, 51.259 43, 52.248 43 C 54.076 43, 55.465 55.263, 53.956 58.082 C 53.411 59.100, 52.741 64.785, 52.466 70.716 C 52.192 76.647, 51.731 85.775, 51.444 91 C 51.156 96.225, 50.782 104.100, 50.612 108.500 C 50.443 112.900, 49.758 118.523, 49.092 120.995 C 48.420 123.485, 48.153 127.500, 48.492 129.995 C 48.895 132.960, 48.570 136.006, 47.541 138.906 C 45.766 143.912, 46.181 144.993, 49.163 143.130 C 50.650 142.202, 51.542 142.142, 52.318 142.918 C 54.508 145.108, 55.128 143.871, 54.472 138.621 C 54.007 134.898, 54.209 132.513, 55.129 130.871 C 55.917 129.464, 56.523 124.840, 56.617 119.500 C 56.704 114.550, 57.361 108.325, 58.076 105.666 C 58.985 102.283, 59.080 100.033, 58.390 98.166 C 57.740 96.406, 57.749 93.971, 58.415 91 C 58.970 88.525, 59.332 82.940, 59.219 78.590 C 59.105 74.239, 59.193 70.864, 59.413 71.090 C 59.634 71.315, 61.543 74.071, 63.657 77.213 C 65.771 80.356, 72 87.781, 77.500 93.713 C 91.212 108.504, 90.425 107.277, 88.537 110.928 C 87.663 112.618, 86.398 114.002, 85.724 114.003 C 85.051 114.005, 83.151 116.593, 81.502 119.753 C 79.853 122.914, 76.899 127.975, 74.938 131 C 72.976 134.025, 70.351 138.188, 69.104 140.250 L 66.837 144 103.193 144 L 139.549 144 140.737 136.534 C 141.811 129.783, 145.142 121, 146.627 121 C 146.950 121, 146.976 121.620, 146.685 122.378 C 145.634 125.118, 148.014 125.870, 152.854 124.327 C 163.438 120.954, 176.844 111.594, 181.936 104.023 C 185.237 99.114, 185.319 98.771, 184.037 95.207 C 183.303 93.168, 182.026 90.462, 181.198 89.192 C 179.378 86.400, 173.010 83, 169.599 83 C 168.234 83, 166.798 82.482, 166.406 81.848 C 165.389 80.203, 168.357 78.357, 173.271 77.580 C 175.597 77.212, 180.357 76.032, 183.849 74.957 C 187.341 73.883, 190.603 73.255, 191.099 73.561 C 191.603 73.873, 192 70.784, 192 66.540 L 192 58.962 189.250 59.578 C 187.738 59.917, 184.925 60.598, 183 61.091 C 181.075 61.585, 177.077 61.991, 174.115 61.994 L 168.730 62 171.365 59.927 C 174.279 57.635, 174.824 53.929, 172.528 52.023 C 171.354 51.049, 170.749 51.109, 169.538 52.319 C 167.902 53.956, 162.215 55.548, 161.295 54.628 C 160.985 54.319, 159.619 54.941, 158.259 56.011 C 156.323 57.534, 155.357 57.726, 153.807 56.897 C 152.719 56.315, 151.585 56.081, 151.288 56.379 C 150.990 56.677, 147.909 54.895, 144.440 52.420 C 139.198 48.680, 136.815 47.689, 130.317 46.551 C 125.830 45.766, 122.358 45.570, 122.167 46.091 C 121.983 46.591, 120.746 47, 119.417 47 C 118.088 47, 117 47.591, 117 48.313 C 117 49.035, 115.694 50.877, 114.099 52.406 C 111.335 55.053, 109.280 62, 111.260 62 C 111.732 62, 111.840 62.450, 111.500 63 C 110.699 64.297, 106.301 64.297, 105.500 63 C 104.415 61.244, 102 61.928, 102 63.992 C 102 65.087, 101.100 66.545, 100 67.232 C 98.900 67.919, 98 69.257, 98 70.205 C 98 71.154, 97.105 72.409, 96.010 72.994 C 94.916 73.580, 93.369 75.320, 92.572 76.861 C 91.237 79.443, 91.312 79.972, 93.530 83.582 C 94.854 85.737, 95.952 87.987, 95.969 88.581 C 95.986 89.176, 90.825 84.611, 84.500 78.437 C 74.941 69.106, 73 66.710, 73 64.245 C 73 62.613, 72.057 56.656, 70.905 51.007 C 69.361 43.437, 69.113 40.548, 69.963 40.023 C 70.781 39.517, 70.483 38.238, 68.934 35.613 C 67.734 33.579, 66.920 31.821, 67.126 31.707 C 67.332 31.593, 68.523 30.927, 69.773 30.227 C 71.738 29.127, 72.121 29.195, 72.607 30.727 C 75.509 39.878, 79.150 44.111, 86.525 46.911 C 90.906 48.574, 91.488 49.176, 92.688 53.294 L 94.014 57.840 97.007 56.347 C 99.439 55.134, 100 54.225, 100 51.502 C 100 48.609, 100.570 47.831, 104.161 45.825 C 115.307 39.597, 119.084 26.297, 112.474 16.556 C 109.313 11.899, 109.390 10.380, 113.028 5.572 C 114.663 3.411, 116 1.274, 116 0.822 C 116 0.370, 104.750 0, 91 0 C 74.636 0, 66 0.353, 66 1.022 M 55 64 C 55 66, 55.500 67, 56.500 67 C 58.154 67, 58.256 66.559, 57.370 63.250 C 56.501 60.007, 55 60.482, 55 64 M 54 83.073 C 54 85.454, 54.392 86.071, 55.739 85.812 C 57.906 85.394, 58.663 82.035, 56.848 80.885 C 54.570 79.441, 54 79.879, 54 83.073 M 52.872 100.750 C 52.198 104.711, 52.466 105.889, 54.140 106.326 C 55.684 106.730, 56 106.235, 56 103.406 C 56 101.045, 55.540 100, 54.500 100 C 53.675 100, 52.943 100.338, 52.872 100.750 M 53.158 114 C 53.158 115.375, 53.385 115.938, 53.662 115.250 C 53.940 114.563, 53.940 113.438, 53.662 112.750 C 53.385 112.063, 53.158 112.625, 53.158 114 M 51 124 C 51 127.531, 53.468 128.143, 54.335 124.826 C 55.013 122.234, 54.402 121, 52.441 121 C 51.507 121, 51 122.055, 51 124 M 51.158 135 C 51.158 136.375, 51.385 136.938, 51.662 136.250 C 51.940 135.563, 51.940 134.438, 51.662 133.750 C 51.385 133.063, 51.158 133.625, 51.158 135" stroke="none" fill="black" fill-rule="evenodd"/>
</svg>