<svg xmlns="http://www.w3.org/2000/svg" width="192" height="144" viewBox="0 0 192 144" version="1.1">
	<path d="M 52.967 28.033 C 51.297 29.665, 49.454 31, 48.870 31 C 46.719 31, 53.543 40.750, 61.533 49.092 C 66.060 53.818, 71.001 59.556, 72.514 61.842 C 74.028 64.129, 75.560 66, 75.920 66 C 76.280 66, 76.642 66.900, 76.725 68 C 76.847 69.613, 76.258 70.001, 73.688 70.004 C 68.385 70.010, 61.104 75.312, 61.032 79.220 C 61.014 80.166, 59.605 81.966, 57.900 83.220 C 53.567 86.407, 50.846 92.293, 49.956 100.405 C 49.020 108.925, 50.118 112, 54.095 112 C 59.579 112, 61.649 113.761, 68.980 124.668 C 72.985 130.626, 77.808 137.412, 79.698 139.750 L 83.134 144 112.317 143.978 L 141.500 143.956 135 137.813 C 131.425 134.433, 125.575 128.931, 122 125.584 L 115.500 119.500 115.462 108 C 115.430 98.227, 115.042 95.449, 112.873 89.500 C 108.335 77.048, 105.789 72.659, 101.854 70.500 C 99.849 69.400, 96.708 66.700, 94.875 64.500 C 93.041 62.300, 87.707 56.236, 83.020 51.024 C 78.334 45.812, 72.925 39.783, 71 37.626 C 65.735 31.728, 60.054 26.587, 57.912 25.783 C 56.533 25.265, 55.158 25.891, 52.967 28.033" stroke="none" fill="black" fill-rule="evenodd"/>
</svg>