<svg xmlns="http://www.w3.org/2000/svg" width="192" height="144" viewBox="0 0 192 144" version="1.1">
	<path d="M 142.281 1.848 C 134.727 4.239, 134.253 5.079, 138.029 9.380 C 139.803 11.401, 140.966 13.645, 140.657 14.452 C 140.287 15.416, 140.583 15.713, 141.547 15.344 C 142.679 14.909, 142.864 15.430, 142.401 17.747 C 141.825 20.625, 145.052 28.957, 146.770 29.032 C 147.172 29.049, 148.354 29.710, 149.398 30.501 C 150.954 31.678, 151.071 32.210, 150.046 33.445 C 149.014 34.688, 149.294 35.615, 151.647 38.730 C 155.415 43.720, 156.934 46.130, 157.646 48.250 C 158.298 50.192, 163.439 50.716, 164.530 48.951 C 164.979 48.225, 165.563 48.222, 166.431 48.943 C 167.120 49.515, 167.980 49.687, 168.342 49.325 C 170.110 47.557, 168.677 52.454, 166.250 56.470 C 164.322 59.663, 163.053 60.830, 162 60.377 C 159.313 59.221, 151.625 58.121, 145.807 58.060 C 141.035 58.010, 139.864 58.356, 138.572 60.201 C 136.175 63.623, 121.259 66.485, 114.500 64.820 C 108.561 63.356, 109.546 63.565, 104 62.592 C 101.525 62.158, 96.359 60.947, 92.520 59.901 C 88.681 58.856, 84.631 57.992, 83.520 57.982 C 81.348 57.962, 74.285 53.600, 69.639 49.407 C 67.738 47.692, 66.075 47.009, 64.687 47.372 C 63.538 47.672, 60.610 47.473, 58.182 46.929 C 51.242 45.373, 47.121 47.476, 52.750 49.701 L 55.500 50.787 53 50.909 C 49.926 51.059, 47.285 52.618, 48.333 53.666 C 48.759 54.092, 50.771 54.335, 52.804 54.207 L 56.500 53.973 53.250 55.438 C 48.569 57.548, 49.010 59.414, 54 58.616 C 57.864 57.998, 59.565 59.186, 56.500 60.362 C 53.198 61.629, 55.130 62.944, 59.428 62.355 C 62.978 61.868, 64.579 62.195, 67.502 64.001 C 69.508 65.241, 73.027 66.807, 75.324 67.482 C 78.232 68.337, 79.592 69.326, 79.804 70.738 C 80.061 72.453, 81.494 73.019, 89.078 74.407 C 94.012 75.309, 101.750 77.220, 106.274 78.652 C 114.066 81.118, 115.209 81.219, 127.960 80.562 C 135.362 80.181, 143.636 79.448, 146.346 78.934 C 149.056 78.420, 153.425 78, 156.054 78 L 160.836 78 163.039 87.750 C 165.600 99.084, 165.772 99.462, 172.237 107.902 C 176.020 112.840, 177.004 114.849, 176.542 116.689 C 176.213 118.001, 176.444 120.935, 177.056 123.209 C 179.117 130.862, 179.098 135.199, 176.987 139.249 C 175.894 141.346, 175 143.273, 175 143.531 C 175 143.789, 178.825 144, 183.500 144 L 192 144 192 72 L 192 0 169.750 0.098 C 152.041 0.176, 146.435 0.533, 142.281 1.848" stroke="none" fill="black" fill-rule="evenodd"/>
</svg>