<svg xmlns="http://www.w3.org/2000/svg" width="192" height="144" viewBox="0 0 192 144" version="1.1">
	<path d="M -0 72.005 L -0 144.010 96.250 143.755 L 192.500 143.500 192.757 71.750 L 193.013 0 154.148 0 L 115.283 0 114.712 10.750 C 113.959 24.899, 111.520 31.388, 103.026 41.838 C 96.779 49.523, 83.414 57.060, 72.394 59.112 C 62.457 60.962, 50.352 58.799, 39.452 53.226 C 34.544 50.717, 26 43.282, 26 41.522 C 26 40.803, 25.321 39.953, 24.491 39.635 C 23.662 39.317, 22.450 37.806, 21.798 36.278 C 21.146 34.750, 20.063 32.825, 19.390 32 C 16.052 27.907, 14.001 19.440, 14.001 9.750 L 14 0 7 0 L 0 0 -0 72.005 M 0.474 72.500 C 0.474 112.100, 0.598 128.154, 0.750 108.176 C 0.901 88.198, 0.901 55.798, 0.750 36.176 C 0.598 16.554, 0.474 32.900, 0.474 72.500" stroke="none" fill="black" fill-rule="evenodd"/>
</svg>