<svg xmlns="http://www.w3.org/2000/svg" width="192" height="144" viewBox="0 0 192 144" version="1.1">
	<path d="M 72 83.467 C 72 84.090, 72.413 85.027, 72.918 85.550 C 73.423 86.073, 73.985 88.300, 74.168 90.500 C 74.498 94.471, 74.471 94.504, 70.500 95.108 C 68.300 95.443, 67.287 95.780, 68.250 95.858 C 69.213 95.936, 70 96.638, 70 97.417 C 70 98.196, 70.563 99.101, 71.250 99.428 C 71.938 99.755, 71.482 99.833, 70.237 99.601 C 66.995 98.998, 64.995 102.792, 67.565 104.671 C 68.564 105.402, 69.746 106, 70.191 106 C 70.636 106, 71 106.477, 71 107.059 C 71 107.641, 70.581 107.859, 70.069 107.543 C 69.557 107.226, 68.813 107.494, 68.415 108.138 C 67.991 108.824, 68.122 109.042, 68.732 108.666 C 69.305 108.312, 70.217 108.580, 70.758 109.261 C 71.958 110.770, 71.506 114.331, 70.054 114.815 C 68.594 115.302, 68.730 117.686, 70.250 118.247 C 70.938 118.500, 73.203 118.566, 75.285 118.393 C 77.523 118.207, 78.827 118.471, 78.476 119.039 C 78.149 119.568, 78.319 120, 78.853 120 C 79.882 120, 79.773 123.069, 78.616 126.666 C 77.484 130.182, 79.743 130.358, 83.737 127.065 C 86.810 124.533, 88.328 124.004, 92.478 124.025 C 96.991 124.048, 98.084 124.537, 103.265 128.847 C 107.502 132.371, 111.016 134.252, 116.515 135.939 C 123.566 138.103, 124 138.403, 124 141.118 L 124 144 158 144 L 192 144 192 136.929 C 192 132.548, 191.517 129.374, 190.731 128.588 C 190.033 127.890, 187.125 127.009, 184.269 126.630 C 181.413 126.251, 176.247 125.023, 172.788 123.902 C 169.330 122.780, 165.150 121.732, 163.500 121.573 C 161.850 121.415, 159.911 121.221, 159.191 121.142 C 158.471 121.064, 158.117 120.619, 158.405 120.154 C 158.693 119.688, 155.682 118.740, 151.714 118.046 C 147.746 117.352, 141.785 115.682, 138.467 114.335 C 133.713 112.404, 131.883 112.094, 129.832 112.874 C 127.750 113.665, 126.826 113.487, 125.209 111.980 C 124.097 110.944, 120.783 108.636, 117.844 106.851 C 114.905 105.065, 112.135 103.009, 111.689 102.281 C 111.242 101.553, 110.433 101.232, 109.891 101.568 C 109.348 101.903, 107.736 101.009, 106.309 99.581 C 103.091 96.363, 97.791 93.038, 95.036 92.507 C 93.894 92.287, 91.715 91.221, 90.194 90.138 C 86.687 87.641, 76.055 82.696, 73.750 82.491 C 72.787 82.405, 72 82.844, 72 83.467 M 82.401 119.205 C 83.366 119.744, 84.694 119.709, 85.750 119.114 C 87.157 118.322, 86.844 118.146, 84.151 118.219 C 81.630 118.288, 81.198 118.531, 82.401 119.205" stroke="none" fill="black" fill-rule="evenodd"/>
</svg>