<svg xmlns="http://www.w3.org/2000/svg" width="192" height="144" viewBox="0 0 192 144" version="1.1">
	<path d="M 0 72 L 0 144 49.500 144 C 97.879 144, 99 143.956, 99 142.054 C 99 140.983, 100.575 137.420, 102.500 134.135 C 106.435 127.421, 106.560 127, 104.607 127 C 102.394 127, 102 124.637, 102 111.352 C 102 104.486, 101.534 97.998, 100.965 96.934 C 100.236 95.572, 98.865 95, 96.333 95 C 92.401 95, 86.548 91.892, 84.987 88.976 C 83.283 85.791, 83.854 81.146, 86.244 78.756 C 87.479 77.521, 88.361 75.953, 88.204 75.271 C 88.044 74.575, 88.524 74.264, 89.300 74.561 C 90.059 74.853, 91.257 74.396, 91.962 73.546 C 92.668 72.695, 94.540 72, 96.122 72 C 99.409 72, 99.746 71.266, 97.288 69.468 C 95.920 68.468, 95.819 67.924, 96.784 66.760 C 97.753 65.593, 97.616 64.962, 96.096 63.587 C 94.800 62.414, 93.982 62.220, 93.515 62.976 C 92.667 64.348, 88.800 63.252, 87.673 61.320 C 86.753 59.744, 78.109 55.551, 73.484 54.438 C 69.376 53.449, 64.661 51.004, 63.700 49.365 C 63.260 48.614, 61.981 48, 60.858 48 C 58.313 48, 54.208 44.876, 54.723 43.331 C 54.933 42.700, 54.665 41.911, 54.126 41.578 C 52.891 40.814, 54.423 35.148, 56.400 33.172 C 57.183 32.389, 59.631 31.701, 61.840 31.643 C 65.627 31.544, 65.827 31.387, 65.331 28.906 C 64.903 26.764, 65.428 25.831, 68.153 23.888 C 70.937 21.902, 72.712 21.500, 78.700 21.500 C 88.306 21.500, 89.343 22.602, 85.182 28.396 C 80.868 34.403, 81.028 35.322, 86.250 34.534 C 95.061 33.205, 96.041 32.821, 97.417 30.167 C 98.177 28.700, 100.646 25.404, 102.903 22.843 C 107.990 17.070, 113.270 15.081, 125.580 14.302 C 136.897 13.585, 141.865 15.063, 151.538 22.028 C 155.361 24.780, 161.979 28.847, 166.244 31.066 C 170.510 33.285, 174 35.508, 174 36.005 C 174 37.355, 167.444 38.327, 163.065 37.626 C 160.953 37.289, 156.812 35.889, 153.863 34.516 C 150.799 33.090, 146.666 32.015, 144.222 32.010 L 139.944 32 140.609 38.750 C 140.974 42.462, 141.381 45.632, 141.512 45.792 C 141.644 45.953, 146.870 47.166, 153.126 48.488 C 171.760 52.426, 174.858 53.470, 178.570 57.068 C 181.913 60.308, 183.015 63, 181 63 C 180.450 63, 180 63.567, 180 64.260 C 180 64.953, 178.851 66.759, 177.447 68.273 L 174.895 71.026 179.697 73.141 C 182.339 74.304, 186.300 75.843, 188.500 76.561 L 192.500 77.866 187.500 77.948 C 183.886 78.008, 182.916 78.299, 184 79 C 184.825 79.533, 186.689 79.976, 188.143 79.985 C 191.491 80.004, 192 81.407, 192 90.617 C 192 98.030, 191.988 98.064, 189.750 96.890 C 187.512 95.715, 187.510 95.720, 189.405 97.854 C 191.607 100.334, 190.217 100.669, 186.200 98.627 C 181.205 96.086, 179 95.721, 179 97.433 C 179 99.400, 178.530 99.393, 175.465 97.385 C 172.924 95.720, 172.073 96.673, 174.200 98.800 C 175.892 100.492, 174.450 100.290, 170.700 98.311 C 164.202 94.881, 154.628 91.984, 153.865 93.218 C 153.315 94.109, 152.533 94.108, 150.572 93.215 C 147.209 91.682, 147.324 92.611, 151.383 99.794 C 153.244 103.086, 155.915 108.641, 157.318 112.140 C 160.340 119.674, 162.999 121.164, 163.002 115.323 C 163.004 109.324, 165.800 104.885, 170.680 103.136 C 175.750 101.319, 177.607 102.390, 178.605 107.710 C 179.247 111.130, 179.356 111.201, 182.882 110.515 C 184.872 110.128, 187.727 109.580, 189.226 109.296 L 191.952 108.780 192.251 126.140 C 192.416 135.688, 192.652 111.213, 192.775 71.750 L 193 0 96.500 0 L 0 0 0 72 M 0.474 72.500 C 0.474 112.100, 0.598 128.154, 0.750 108.176 C 0.901 88.198, 0.901 55.798, 0.750 36.176 C 0.598 16.554, 0.474 32.900, 0.474 72.500 M 108.342 77.180 C 104.963 78.814, 104.712 86.380, 107.877 91.214 C 110.666 95.474, 112 95.289, 112 90.641 C 112 88.858, 112.509 86.891, 113.131 86.269 C 113.972 85.428, 113.916 83.968, 112.912 80.569 C 111.449 75.611, 111.502 75.651, 108.342 77.180 M 117.500 127.998 C 116.545 131.896, 114.504 136.765, 112.893 138.989 C 111.302 141.186, 110 143.212, 110 143.491 C 110 143.771, 114.286 144, 119.525 144 C 128.977 144, 129.057 143.979, 130.087 141.272 C 130.859 139.240, 130.763 137.623, 129.708 134.938 C 128.294 131.339, 121.074 121.165, 119.858 121.057 C 119.504 121.026, 118.444 124.149, 117.500 127.998" stroke="none" fill="black" fill-rule="evenodd"/>
</svg>