<svg xmlns="http://www.w3.org/2000/svg" width="192" height="144" viewBox="0 0 192 144" version="1.1">
	<path d="M 0 72 C 0 135.333, 0.181 144, 1.500 144 C 2.819 144, 3 135.333, 3 72 C 3 8.667, 2.819 0, 1.500 0 C 0.181 0, 0 8.667, 0 72 M 84.416 3.250 C 88.193 27.466, 88.228 27.871, 87.101 34.343 C 86.287 39.014, 86.276 41.594, 87.060 43.653 C 87.958 46.012, 87.856 46.671, 86.464 47.500 C 82.121 50.084, 80.112 52.312, 77.203 57.770 C 75.475 61.013, 72.894 64.834, 71.468 66.259 C 69.075 68.653, 68.640 68.752, 65.798 67.557 C 61.789 65.872, 57.598 67.780, 57.318 71.419 C 57.078 74.550, 59.583 75.140, 70.860 74.607 L 79.219 74.212 81.674 69.856 C 86.698 60.940, 88.557 58.783, 92.840 56.901 C 95.228 55.852, 97.590 55.247, 98.090 55.556 C 99.450 56.396, 99.187 58.791, 97.635 59.700 C 96.885 60.140, 95.513 61.982, 94.588 63.793 C 93.662 65.604, 91.913 67.536, 90.702 68.086 C 83.688 71.271, 78.757 75.850, 77.668 80.188 C 76.340 85.477, 77.219 85.921, 88.336 85.585 L 98.500 85.278 102.358 89.129 C 109.679 96.438, 119.908 96.611, 123.306 89.484 C 124.238 87.530, 125 85.335, 125 84.606 C 125 83.876, 126.111 81.641, 127.470 79.640 C 130.200 75.616, 129.681 75.271, 124.291 77.523 C 120.295 79.192, 119.465 78.810, 118.489 74.855 C 117.922 72.557, 118.405 71.807, 122.168 69.152 C 124.551 67.471, 128.231 64.603, 130.347 62.778 C 134.156 59.493, 134.175 59.439, 132.347 57.250 C 130.456 54.987, 124.591 53.899, 122.212 55.369 C 120.600 56.365, 120.684 55.001, 122.500 50.655 C 123.420 48.451, 126.190 45.411, 129.672 42.783 C 133.496 39.896, 134.815 38.398, 133.720 38.186 C 132.405 37.932, 132.771 36.931, 135.649 32.926 C 139.895 27.015, 142.919 18.433, 140.417 19.394 C 139.209 19.857, 139.019 19.516, 139.550 17.842 C 140.094 16.129, 139.901 15.824, 138.592 16.326 C 137.242 16.844, 137.133 16.620, 137.974 15.048 C 138.917 13.287, 138.752 13.211, 135.814 14.053 C 134.064 14.555, 132.414 14.748, 132.147 14.481 C 131.881 14.214, 130.838 14.741, 129.831 15.653 C 128.736 16.644, 128 16.845, 128 16.155 C 128 15.520, 127.362 15, 126.583 15 C 125.804 15, 124.958 14.438, 124.703 13.750 C 124.432 13.021, 123.820 13.542, 123.234 15 C 122.183 17.616, 117.983 21.973, 118.024 20.405 C 118.037 19.907, 118.440 17.813, 118.919 15.750 C 120.129 10.536, 118.586 11.017, 114.905 17 C 111.378 22.733, 109.731 23.478, 111.038 18.750 C 111.863 15.761, 111.818 15.656, 110.468 17.441 C 109.660 18.509, 109 19.746, 109 20.191 C 109 20.636, 108.550 21, 108 21 C 106.446 21, 106.823 15.698, 108.552 13.229 C 109.406 12.010, 111.200 8.535, 112.540 5.506 L 114.975 0 99.442 -0 L 83.909 -0 84.416 3.250 M 189 72 C 189 135.333, 189.181 144, 190.500 144 C 191.819 144, 192 135.333, 192 72 C 192 8.667, 191.819 0, 190.500 0 C 189.181 0, 189 8.667, 189 72" stroke="none" fill="black" fill-rule="evenodd"/>
</svg>