<svg xmlns="http://www.w3.org/2000/svg" width="192" height="144" viewBox="0 0 192 144" version="1.1">
	<path d="M 83.230 1.189 C 83.448 1.843, 84.871 3.306, 86.394 4.439 C 88.905 6.309, 90.520 6.494, 103.831 6.434 C 118.790 6.367, 130.623 4.549, 136 1.492 C 138.207 0.237, 135.239 0.067, 110.667 0.035 C 89.591 0.009, 82.930 0.289, 83.230 1.189 M 91.387 64.284 C 88.571 66.865, 87.698 68.525, 87.313 72.034 C 86.389 80.457, 92.386 85.626, 100.669 83.547 C 104.098 82.686, 106.992 77.379, 106.996 71.941 C 107 67.119, 106.036 65.315, 102.027 62.646 C 98.326 60.181, 95.367 60.637, 91.387 64.284" stroke="none" fill="black" fill-rule="evenodd"/>
</svg>