<svg xmlns="http://www.w3.org/2000/svg" width="192" height="144" viewBox="0 0 192 144" version="1.1">
	<path d="M 0 16.953 L 0 33.906 3.750 34.947 C 5.813 35.520, 8.115 35.991, 8.867 35.994 C 9.777 35.998, 10.077 36.818, 9.765 38.451 C 9.495 39.864, 10.078 42.089, 11.141 43.701 C 12.894 46.360, 13.691 51, 12.394 51 C 12.061 51, 10.922 49.899, 9.864 48.554 C 8.805 47.208, 6.398 45.550, 4.515 44.869 C 2.431 44.116, 0.931 42.823, 0.682 41.566 C 0.457 40.429, 0.211 63.013, 0.136 91.750 L 0 144 50.124 144 L 100.248 144 99.671 138.250 C 99.354 135.088, 98.601 129.125, 97.999 125 C 97.397 120.875, 96.660 115.811, 96.363 113.747 C 95.762 109.583, 95.791 109.580, 102.705 113.105 C 108.089 115.849, 115.706 115.597, 122.223 112.458 C 132.443 107.536, 137.590 94.236, 131.920 87.403 C 131.033 86.335, 131.035 85.663, 131.926 84.589 C 132.647 83.721, 132.727 82.949, 132.134 82.583 C 131.604 82.255, 130.968 82.553, 130.721 83.244 C 130.432 84.051, 129.476 83.509, 128.047 81.730 C 123.101 75.569, 112.922 73.932, 107.769 78.467 C 104.414 81.420, 101.473 86.529, 100.020 91.927 C 99.238 94.831, 98.360 96.043, 96.961 96.150 C 95.883 96.232, 94.535 96.345, 93.967 96.400 C 93.399 96.455, 92.375 95.375, 91.692 94 C 90.608 91.817, 89.693 91.459, 84.475 91.180 C 81.189 91.004, 68.878 91.336, 57.119 91.918 L 35.737 92.976 32.429 90.072 C 30.609 88.474, 28.413 86.771, 27.548 86.287 C 25.888 85.358, 22.304 76.890, 21.078 71 C 20.678 69.075, 19.837 66.547, 19.211 65.383 C 17.860 62.872, 19.514 44.918, 21.192 43.882 C 21.891 43.449, 21.864 41.595, 21.109 38.074 C 20.499 35.229, 20 31.511, 20 29.811 C 20 28.079, 19.266 26.184, 18.331 25.500 C 16.814 24.391, 16.901 24.073, 19.289 21.996 C 21.377 20.181, 21.712 19.331, 20.923 17.856 C 20.146 16.404, 20.281 16, 21.547 16 C 23.705 16, 32 9.134, 32 7.348 C 32 6.572, 32.675 5.678, 33.500 5.362 C 34.325 5.045, 35 3.709, 35 2.393 L 35 0 17.500 0 L 0 0 0 16.953 M 13 52.581 C 13 53.541, 16.144 59.189, 16.485 58.843 C 17.306 58.010, 15.658 53.083, 14.396 52.599 C 13.628 52.304, 13 52.296, 13 52.581" stroke="none" fill="black" fill-rule="evenodd"/>
</svg>