<svg xmlns="http://www.w3.org/2000/svg" width="192" height="144" viewBox="0 0 192 144" version="1.1">
	<path d="M 160.617 1.444 C 161.423 3.545, 159.077 6.253, 156.936 5.694 C 155.999 5.448, 154.517 6.083, 153.643 7.104 C 152.459 8.487, 150.871 8.908, 147.403 8.757 C 143.111 8.570, 142.496 8.859, 139.449 12.488 C 137.336 15.004, 136.174 17.432, 136.225 19.225 C 136.269 20.767, 136.066 22.267, 135.774 22.559 C 135.482 22.851, 133.146 22.562, 130.583 21.917 C 125.386 20.608, 124.965 20.807, 123.395 25.322 C 122.412 28.149, 122.604 28.960, 125.133 32.663 C 126.697 34.952, 128.544 37.063, 129.238 37.355 C 130.151 37.738, 130.017 38.190, 128.750 38.992 C 127.787 39.601, 127 41.186, 127 42.515 C 127 45.324, 125.164 46.492, 119.188 47.482 C 115.842 48.037, 114.463 47.824, 113.037 46.533 C 111.492 45.135, 110.552 45.043, 107.153 45.959 C 101.535 47.472, 96.440 54, 100.878 54 C 104.382 54, 105.422 56.806, 105.830 67.367 C 106.046 72.940, 106.677 78.063, 107.233 78.750 C 107.790 79.437, 110.102 79.998, 112.372 79.996 C 115.644 79.992, 117.604 79.155, 121.822 75.956 C 124.750 73.737, 128.394 71.671, 129.920 71.366 L 132.695 70.811 131.779 77.156 C 130.618 85.199, 131.352 94.362, 133.408 97.501 C 135.247 100.306, 135.483 103.583, 133.917 104.551 C 132.608 105.360, 129.280 112.935, 128.053 117.900 C 126.324 124.891, 122.687 133.559, 119.409 138.500 L 116.091 143.500 146.698 143.765 C 163.531 143.910, 177.526 143.808, 177.797 143.537 C 178.771 142.562, 169.883 112.361, 166.792 106.143 L 163.632 99.786 165.943 98.043 C 168.099 96.417, 168.170 96.044, 166.996 92.488 C 164.950 86.290, 167.233 75.841, 171.549 71.650 C 175.741 67.579, 176.693 64.805, 176.026 58.602 C 175.649 55.091, 174.933 53.391, 173.500 52.602 C 172.400 51.996, 171.328 51.403, 171.117 51.283 C 170.906 51.164, 172.027 47.924, 173.607 44.082 L 176.481 37.098 183.017 35.496 C 186.612 34.615, 190.216 33.438, 191.027 32.881 C 192.195 32.079, 192.085 31.979, 190.500 32.398 C 185.052 33.838, 178.691 35.024, 178.332 34.666 C 178.111 34.445, 181.096 33.443, 184.965 32.439 C 189.382 31.294, 192 30.103, 192 29.240 C 192 28.404, 191.314 28.064, 190.250 28.373 C 189.287 28.652, 186.475 29.385, 184 30 C 181.525 30.615, 178.710 31.349, 177.743 31.629 C 175.377 32.316, 173.697 28.121, 175.489 26 C 177.372 23.771, 178.031 17.774, 176.321 18.430 C 175.341 18.806, 175.135 18.311, 175.562 16.609 C 175.989 14.906, 175.654 14.103, 174.324 13.648 C 173.321 13.304, 171.150 12.113, 169.500 11 C 167.850 9.887, 165.713 8.704, 164.750 8.372 C 162.842 7.712, 162.348 6, 164.066 6 C 164.653 6, 164.990 4.763, 164.816 3.250 C 164.590 1.283, 163.861 0.409, 162.255 0.181 C 160.555 -0.060, 160.157 0.246, 160.617 1.444 M 23.188 19.813 C 21.984 21.016, 20.982 23.012, 20.960 24.250 C 20.916 26.738, 12.955 35.991, 10.838 36.015 C 10.102 36.024, 8.833 36.452, 8.018 36.968 C 6.777 37.752, 6.997 38.388, 9.365 40.859 C 11.354 42.935, 12.005 44.409, 11.557 45.821 C 10.384 49.517, 12.057 53.126, 15.635 54.621 C 19.466 56.221, 20.202 59.667, 17.250 62.180 C 15.035 64.065, 2.172 68.224, 0.930 67.457 C 0.373 67.113, 0 72.525, 0 80.941 C 0 94.222, 0.108 95, 1.953 95 C 3.028 95, 5.912 92.966, 8.363 90.480 C 12.496 86.288, 13.008 86.046, 15.426 87.148 C 16.860 87.801, 19.882 91.264, 22.142 94.843 C 26.151 101.191, 26.211 101.412, 24.578 103.925 C 21.165 109.179, 11.763 132.703, 10.059 140.250 L 9.213 144 33.055 144 L 56.898 144 55.447 140.527 C 54.649 138.618, 53.349 130.630, 52.559 122.777 C 51.768 114.925, 50.447 106.700, 49.623 104.500 C 48.261 100.866, 48.275 100.384, 49.775 99.234 C 51.220 98.126, 51.261 97.564, 50.100 94.734 C 46.703 86.448, 45.873 81.631, 47.156 77.635 C 47.838 75.509, 49.207 73.263, 50.198 72.644 C 52.239 71.370, 52.647 68, 50.761 68 C 48.774 68, 41.008 64.578, 41.004 63.700 C 41.002 63.261, 41.751 61.461, 42.669 59.700 C 44.601 55.996, 44.532 50.759, 42.473 44.924 C 41.463 42.061, 41.324 40.263, 42.013 38.976 C 43.407 36.371, 43.237 34.695, 41.641 35.307 C 39.481 36.136, 27.761 26.024, 28.335 23.827 C 28.598 22.822, 28.357 22, 27.799 22 C 27.242 22, 27.054 21.302, 27.382 20.448 C 27.709 19.594, 27.571 19.147, 27.074 19.454 C 26.577 19.761, 25.992 19.475, 25.773 18.819 C 25.515 18.045, 24.605 18.395, 23.188 19.813 M 122.665 48.585 C 117.577 49.902, 114.518 51.743, 119.250 50.641 C 125.632 49.154, 127.124 49.183, 122.176 50.699 C 117.583 52.105, 116.929 52.615, 117.413 54.414 C 117.721 55.561, 118.024 58.300, 118.086 60.500 C 118.180 63.821, 118.317 64.076, 118.893 62 C 119.313 60.487, 121.247 58.582, 123.793 57.175 C 126.107 55.896, 128 54.261, 128 53.542 C 128 52.822, 128.900 51.998, 130 51.710 C 132.551 51.043, 132.614 49, 130.083 49 C 129.029 49, 128.017 48.625, 127.833 48.167 C 127.650 47.709, 125.324 47.897, 122.665 48.585 M 8.750 70.080 C 7.787 70.641, 7 71.742, 7 72.528 C 7 73.689, 7.468 73.744, 9.500 72.818 C 10.875 72.192, 12 71.076, 12 70.339 C 12 68.757, 11.139 68.689, 8.750 70.080" stroke="none" fill="black" fill-rule="evenodd"/>
</svg>