<svg xmlns="http://www.w3.org/2000/svg" width="192" height="144" viewBox="0 0 192 144" version="1.1">
	<path d="M 133 72 L 133 144 162.500 144 L 192 144 192 72 L 192 0 162.500 0 L 133 0 133 72 M 64.250 47.708 C 63.563 47.960, 62.998 48.692, 62.996 49.333 C 62.994 49.975, 60.924 51.351, 58.396 52.390 C 52.685 54.740, 50.009 58.800, 50.004 65.124 C 49.992 79.075, 60.069 88.905, 73.258 87.812 C 83.644 86.950, 90.114 81.583, 91.380 72.777 C 92.224 66.903, 90.222 61.827, 84.913 56.381 C 80.041 51.382, 75.414 49, 70.578 49 C 68.830 49, 66.973 48.606, 66.450 48.125 C 65.927 47.644, 64.938 47.456, 64.250 47.708" stroke="none" fill="black" fill-rule="evenodd"/>
</svg>