<svg xmlns="http://www.w3.org/2000/svg" width="192" height="144" viewBox="0 0 192 144" version="1.1">
	<path d="M 0 72 L 0 144 35.433 144 L 70.865 144 71.614 141.750 C 72.025 140.512, 72.521 135.675, 72.716 131 C 73.229 118.698, 73.204 116.901, 72.470 112.863 C 72.026 110.427, 72.542 106.467, 74.034 100.863 C 77.735 86.959, 77.793 88.004, 73.358 88.672 C 71.236 88.991, 68.774 90.161, 67.887 91.270 C 66.782 92.652, 65.837 93.006, 64.887 92.394 C 64.124 91.902, 59.719 91.500, 55.097 91.500 C 45.360 91.500, 42.774 89.631, 50.953 88.506 C 53.958 88.093, 56.434 87.140, 57.061 86.156 C 57.829 84.950, 58.259 84.840, 58.641 85.750 C 59.603 88.038, 63.553 87.096, 65.812 84.040 C 67.015 82.413, 68 80.899, 68 80.677 C 68 80.455, 65.188 79.025, 61.750 77.500 C 54.357 74.220, 54.628 74.411, 55.452 73.078 C 55.870 72.402, 58.228 73.096, 62.023 75.012 C 65.279 76.655, 68.363 78, 68.876 78 C 70.884 78, 75.403 68.486, 75.557 63.935 C 75.733 58.728, 77.611 55.378, 81.967 52.500 C 85.587 50.108, 85.728 49.411, 82.750 48.615 C 81.389 48.251, 79.603 46.221, 78.228 43.476 L 75.956 38.938 79.083 35.047 C 82.538 30.748, 86.882 28.474, 90.056 29.304 C 91.194 29.602, 93.658 29.205, 95.531 28.423 C 97.403 27.640, 100.463 27, 102.329 27 C 105.412 27, 105.679 27.230, 105.244 29.506 C 104.980 30.884, 105.281 32.633, 105.911 33.393 C 106.798 34.461, 106.541 35.584, 104.779 38.345 C 103.525 40.309, 101.938 41.934, 101.250 41.958 C 100.563 41.981, 100 43.098, 100 44.441 C 100 47.081, 98.799 48.225, 95.851 48.393 C 92.667 48.574, 93.726 49.976, 99.213 52.843 C 102.385 54.499, 105.075 56.765, 105.987 58.546 C 106.819 60.171, 107.602 61.677, 107.726 61.893 C 107.850 62.108, 108.648 61.707, 109.500 61 C 111.491 59.347, 112.757 60.581, 111.344 62.798 C 110.464 64.179, 111.037 65.443, 114.380 69.500 C 119.314 75.487, 124.951 81, 126.140 81 C 126.613 81, 127 81.613, 127 82.362 C 127 83.876, 139.319 95.408, 160.500 113.722 C 174.919 126.190, 184.057 135, 182.569 135 C 181.663 135, 180.992 134.417, 147.645 104.651 C 135.625 93.922, 125.250 85.351, 124.589 85.604 C 123.362 86.075, 120.806 83.834, 116.491 78.500 C 114.270 75.756, 114.061 75.683, 114.032 77.639 C 114.007 79.315, 113.190 79.923, 110.250 80.450 C 101.788 81.967, 99 83.061, 99 84.864 C 99 86.701, 102.895 90.998, 104.564 91.003 C 107.146 91.010, 123.427 96.781, 123.770 97.811 C 124.307 99.420, 122.775 99.297, 114.038 97.028 C 109.934 95.962, 106.396 95.271, 106.175 95.491 C 105.147 96.519, 112.916 99.993, 116.250 99.996 C 119.675 100, 119.999 100.238, 119.993 102.750 C 119.981 107.934, 114.599 113.623, 106.067 117.470 C 102.751 118.965, 102.235 119.570, 103.021 121.040 C 103.542 122.013, 104.224 126.115, 104.537 130.155 C 104.850 134.195, 105.328 138.967, 105.600 140.761 L 106.095 144.021 149.297 143.761 L 192.500 143.500 192.757 71.750 L 193.013 0 96.507 0 L 0 0 0 72 M 0.474 72.500 C 0.474 112.100, 0.598 128.154, 0.750 108.176 C 0.901 88.198, 0.901 55.798, 0.750 36.176 C 0.598 16.554, 0.474 32.900, 0.474 72.500 M 141.500 6.672 C 139.850 6.876, 134.549 7.988, 129.721 9.141 C 124.792 10.319, 119.639 10.978, 117.971 10.644 C 114.600 9.970, 113.891 11.513, 117.103 12.533 C 119.812 13.392, 124.604 13.380, 131.032 12.496 L 136.154 11.791 135.463 16.401 C 134.860 20.422, 135.104 21.448, 137.375 24.424 C 140.478 28.493, 145.567 30.495, 149.249 29.096 C 150.644 28.565, 152.805 28.398, 154.051 28.723 C 156.012 29.237, 156.237 29.013, 155.725 27.057 C 154.967 24.157, 156.668 20.448, 159.654 18.491 C 164.462 15.341, 161.942 11.107, 153.307 7.827 C 148.582 6.033, 147.503 5.927, 141.500 6.672 M 100 12 C 100 13.100, 100.450 14, 101 14 C 101.550 14, 102 13.100, 102 12 C 102 10.900, 101.550 10, 101 10 C 100.450 10, 100 10.900, 100 12 M 27.161 53.306 C 26.565 54.025, 25.960 56.612, 25.816 59.056 C 25.644 62.001, 24.454 65.270, 22.291 68.749 C 19.105 73.872, 19.074 74.029, 21.013 75.240 C 22.128 75.937, 23.007 77.582, 23.015 78.991 C 23.024 80.371, 23.403 82.087, 23.857 82.804 C 24.675 84.092, 23.813 91.861, 22.476 95.250 C 21.984 96.499, 22.270 97, 23.476 97 C 24.406 97, 24.980 97.562, 24.752 98.250 C 24.502 99.002, 20.607 99.997, 14.971 100.748 C 3.874 102.227, 0.806 104, 9.345 104 C 17.884 104, 35.321 100.921, 34.040 99.640 C 33.468 99.068, 33 97.735, 33 96.678 C 33 95.069, 33.249 94.961, 34.524 96.020 C 36.770 97.884, 37.281 96.675, 36.078 92.344 C 35.491 90.230, 35.009 85.912, 35.006 82.750 C 35.001 78.251, 35.333 77, 36.531 77 C 39.061 77, 39.296 74.320, 37.035 71.261 C 35.444 69.110, 34.843 66.667, 34.651 61.573 C 34.450 56.244, 33.983 54.461, 32.506 53.381 C 30.142 51.652, 28.552 51.630, 27.161 53.306 M 97.184 71.125 C 96.588 75.144, 96.299 78.633, 96.543 78.877 C 96.787 79.121, 98.678 78.830, 100.744 78.231 C 102.810 77.632, 106.482 76.623, 108.904 75.991 L 113.308 74.840 108.404 70.443 L 103.500 66.046 102.466 69.572 C 101.335 73.429, 100.009 73.168, 99.985 69.083 C 99.976 67.663, 99.587 65.896, 99.119 65.158 C 98.569 64.291, 97.885 66.400, 97.184 71.125 M 78.198 73.081 C 74.973 79.333, 75.078 80.939, 78.715 80.985 C 80.661 81.009, 82.480 76.914, 80.944 75.965 C 79.927 75.337, 79.927 74.591, 80.941 72.143 C 83.398 66.212, 81.386 66.899, 78.198 73.081 M 118 71 C 118 71.550, 118.900 72, 120 72 C 121.100 72, 122 71.550, 122 71 C 122 70.450, 121.100 70, 120 70 C 118.900 70, 118 70.450, 118 71 M 28.543 97.931 C 28.226 98.443, 28.425 99.144, 28.984 99.490 C 29.543 99.835, 30 99.416, 30 98.559 C 30 96.802, 29.400 96.544, 28.543 97.931 M 86.250 121.724 C 82.813 121.928, 79.978 122.186, 79.951 122.298 C 79.546 123.972, 77.061 140.972, 77.035 142.250 C 77.004 143.817, 78.201 144, 88.500 144 L 100 144 99.952 141.250 C 99.926 139.738, 99.138 134.675, 98.202 130 C 96.297 120.486, 97.149 121.076, 86.250 121.724" stroke="none" fill="black" fill-rule="evenodd"/>
</svg>