<svg xmlns="http://www.w3.org/2000/svg" width="192" height="144" viewBox="0 0 192 144" version="1.1">
	<path d="M 165.987 19.655 C 162.969 21.665, 156.900 25.866, 152.500 28.991 C 148.100 32.116, 141.047 36.559, 136.826 38.864 C 129.531 42.849, 129.121 42.956, 128.509 41.028 C 127.659 38.350, 124.385 38.419, 123.676 41.130 C 123.259 42.725, 122.665 43.071, 121.310 42.509 C 117.745 41.030, 110.430 40.862, 106.500 42.169 C 103.313 43.229, 101.992 44.462, 100 48.234 C 97.885 52.239, 97.693 53.277, 98.750 54.971 C 100.412 57.632, 100.336 58, 98.130 58 C 96.656 58, 96.153 57.049, 95.754 53.506 C 95.054 47.300, 91.126 42.379, 85.724 40.939 C 79.409 39.257, 78.616 38.652, 77.206 34.439 C 71.754 18.154, 52.226 14.895, 42.736 28.687 C 39.170 33.868, 38 37.310, 38 42.615 C 38 48.056, 39.774 51.716, 44.363 55.746 C 48.934 59.759, 54.045 61.370, 59.575 60.541 C 62.009 60.176, 64 60.086, 64 60.341 C 64 60.597, 61.525 62.448, 58.500 64.456 C 54.388 67.185, 53 68.710, 53 70.494 C 53 71.808, 52.550 73.160, 52 73.500 C 51.450 73.840, 51 75.220, 51 76.567 C 51 78.760, 51.208 78.887, 52.984 77.778 C 54.618 76.758, 55.251 76.822, 56.571 78.143 C 57.894 79.465, 57.957 80.096, 56.934 81.735 C 55.912 83.370, 55.985 84.141, 57.346 86.084 C 58.363 87.535, 59 90.421, 59 93.573 C 59 98.486, 60.052 103.168, 62.135 107.533 C 62.831 108.990, 62.667 110.408, 61.559 112.533 C 59.791 115.925, 59.533 119.594, 61 120.500 C 62.214 121.250, 62.336 125.701, 61.155 126.167 C 59.912 126.657, 58.974 133.866, 60.066 134.541 C 61.465 135.406, 61.192 138.777, 59.516 141.335 C 58.072 143.539, 58.126 143.600, 61.516 143.600 C 64.937 143.600, 65.976 142.721, 64 141.500 C 62.564 140.613, 62.767 137.675, 64.494 134.364 C 66.296 130.910, 66.390 128.598, 64.831 126.102 C 63.905 124.618, 64.021 123.476, 65.391 120.589 C 67.080 117.030, 66.884 113.914, 64.808 111.314 C 62.814 108.817, 65.726 106.246, 71.730 105.203 C 74.904 104.651, 77.642 104.335, 77.816 104.499 C 77.989 104.664, 77.623 106.687, 77.001 108.995 C 76.316 111.539, 75.995 119.251, 76.186 128.587 L 76.500 143.982 92.750 143.991 C 101.688 143.996, 108.984 143.662, 108.965 143.250 C 108.945 142.838, 108.286 141.375, 107.500 140 C 105.819 137.060, 105.551 127.310, 107.044 123.385 C 107.618 121.875, 109.120 119.608, 110.381 118.346 L 112.675 116.052 114.532 126.172 L 116.388 136.292 114.277 140.146 L 112.166 144 123.086 144 L 134.007 144 139.003 139.184 C 146.412 132.043, 145.683 127.172, 135.569 116.247 C 129.913 110.139, 129.870 110.046, 130.499 105.293 C 131.687 96.320, 133.125 89.510, 135.166 83.188 C 137.101 77.197, 137.297 76.959, 139.017 78.516 C 140.719 80.056, 141.053 79.922, 144.481 76.328 C 148.987 71.603, 153.998 61.589, 153.999 57.307 C 154.001 51.594, 147.359 49.212, 140.835 52.585 C 138.939 53.566, 137.414 53.814, 136.837 53.237 C 136.261 52.661, 138.541 50.148, 142.816 46.650 C 148.848 41.715, 150.122 41.074, 152.822 41.614 C 156.328 42.316, 164.990 39.251, 164.996 37.307 C 164.998 36.650, 164.061 35.456, 162.913 34.652 L 160.826 33.190 162.913 32.528 C 165.294 31.772, 165.519 30.919, 163.792 29.192 C 162.848 28.248, 163.722 26.832, 167.792 22.711 C 175.488 14.918, 174.813 13.775, 165.987 19.655 M 88.179 69.004 C 84.018 72.468, 79.437 72.625, 71.923 69.562 C 70.742 69.080, 70.021 69.906, 69.048 72.855 C 67.945 76.195, 67.977 77.248, 69.257 79.813 C 70.193 81.690, 70.410 83.190, 69.828 83.772 C 69.303 84.297, 69.195 86.987, 69.582 89.909 C 70.095 93.775, 70.630 94.972, 71.668 94.574 C 72.436 94.279, 75.862 93.341, 79.282 92.489 C 90.857 89.604, 92.265 88.629, 94.763 81.769 C 96.963 75.729, 96.968 75.595, 95.100 73.564 C 94.055 72.429, 93.042 70.637, 92.850 69.583 C 92.364 66.919, 90.900 66.738, 88.179 69.004 M 62 116.500 C 62 118.056, 62.567 119, 63.500 119 C 64.433 119, 65 118.056, 65 116.500 C 65 114.944, 64.433 114, 63.500 114 C 62.567 114, 62 114.944, 62 116.500 M 61.667 128.667 C 60.409 129.925, 61 133, 62.500 133 C 63.433 133, 64 132.056, 64 130.500 C 64 128.072, 63.026 127.307, 61.667 128.667" stroke="none" fill="black" fill-rule="evenodd"/>
</svg>