<svg xmlns="http://www.w3.org/2000/svg" width="192" height="144" viewBox="0 0 192 144" version="1.1">
	<path d="M 0 72 L 0 144 30 144 C 54.788 144, 60 143.761, 60 142.625 C 60 141.121, 55.797 140.002, 50.125 139.996 C 46.564 139.993, 40 136.861, 40 135.167 C 40 134.692, 38.216 133.499, 36.035 132.516 C 32.690 131.007, 31.799 129.929, 30.331 125.614 C 28.274 119.567, 28.423 118.162, 31.401 115.500 C 32.631 114.400, 33.895 112.806, 34.208 111.957 C 34.522 111.108, 38.178 108.734, 42.333 106.680 C 48.574 103.595, 51.456 101.264, 58.911 93.268 C 66 85.665, 67.819 83.127, 67.393 81.430 C 67.039 80.017, 67.395 79.062, 68.426 78.667 C 70.092 78.027, 70.358 74.372, 69.056 70 C 68.416 67.852, 67.990 68.555, 66.031 75 C 64.777 79.125, 63.079 83.175, 62.258 84 C 60.934 85.331, 60.821 84.968, 61.256 80.783 C 61.692 76.590, 61.559 76.166, 60.061 76.967 C 59.133 77.464, 56.542 79.858, 54.302 82.288 C 49.765 87.211, 46.689 88.535, 44.873 86.347 C 43.884 85.155, 45.184 83.498, 52.263 76.936 C 58.291 71.348, 61.208 67.857, 62.039 65.236 C 62.690 63.181, 63.882 60.451, 64.687 59.170 C 68.925 52.424, 69.925 37.089, 66.136 36.932 C 64.963 36.884, 65.142 36.555, 66.772 35.770 C 69.518 34.446, 70.693 30.540, 68.969 28.463 C 67.181 26.308, 68.639 25.363, 70.772 27.294 C 73.262 29.547, 85.285 28.957, 88.060 26.446 C 90.732 24.028, 91.472 25.186, 89.586 28.834 L 88.025 31.853 91.687 33.062 C 95.056 34.173, 95.204 34.378, 93.533 35.599 C 92.534 36.330, 91.235 37.088, 90.646 37.285 C 89.904 37.532, 89.963 38.997, 90.839 42.071 C 93.230 50.457, 94.229 51.934, 100.737 56.710 C 104.327 59.344, 108.307 63.032, 109.580 64.905 C 111.604 67.882, 111.724 68.556, 110.533 70.257 C 109.116 72.280, 109.441 77.260, 111.027 77.823 C 112.700 78.416, 113.394 85.136, 111.882 86.094 C 109.471 87.621, 108 87.075, 108 84.655 C 108 83.365, 107.100 81.495, 106 80.500 C 104.900 79.505, 104 78.155, 104 77.500 C 104 75.706, 100.940 73.394, 96.812 72.069 C 94.784 71.419, 91.948 69.960, 90.510 68.829 C 87.297 66.302, 86.755 66.774, 86.615 72.221 L 86.505 76.500 91.002 77 L 95.500 77.500 95.801 82.158 C 96.054 86.068, 95.733 87.080, 93.801 88.463 L 91.500 90.111 94.159 92.305 C 96.472 94.215, 96.911 95.523, 97.538 102.380 C 98.216 109.788, 98.491 110.491, 102.130 114.130 C 104.258 116.258, 106.900 118, 108 118 C 109.100 118, 110.954 118.954, 112.120 120.120 C 114.628 122.628, 114.302 127.797, 111.176 135.090 C 109.426 139.171, 108.821 139.668, 104.131 140.870 C 101.309 141.593, 99 142.598, 99 143.102 C 99 143.650, 117.864 143.915, 145.750 143.760 L 192.500 143.500 192.757 71.750 L 193.013 0 96.507 0 L 0 0 0 72 M 0.474 72.500 C 0.474 112.100, 0.598 128.154, 0.750 108.176 C 0.901 88.198, 0.901 55.798, 0.750 36.176 C 0.598 16.554, 0.474 32.900, 0.474 72.500 M 71.633 50.513 C 71.361 51.223, 71.358 52.025, 71.627 52.293 C 72.330 52.997, 76 51.912, 76 51 C 76 49.617, 72.142 49.187, 71.633 50.513 M 68.813 143.683 C 69.534 143.972, 70.397 143.936, 70.729 143.604 C 71.061 143.272, 70.471 143.036, 69.417 143.079 C 68.252 143.127, 68.015 143.364, 68.813 143.683" stroke="none" fill="black" fill-rule="evenodd"/>
</svg>