<svg xmlns="http://www.w3.org/2000/svg" width="192" height="144" viewBox="0 0 192 144" version="1.1">
	<path d="M 113.686 8.958 C 112.138 9.455, 110.232 10.393, 109.449 11.042 C 107.574 12.599, 98.293 12.602, 94.500 11.047 C 91.177 9.685, 83.316 10.225, 79.906 12.050 C 78.052 13.042, 77.837 13.793, 78.345 17.497 C 78.668 19.860, 79.672 23.640, 80.575 25.896 C 81.890 29.182, 82.720 30, 84.739 30 C 87.126 30, 87.234 30.233, 86.765 34.393 C 86.388 37.739, 86.678 39.136, 87.982 40.253 C 89.112 41.220, 89.928 43.989, 90.378 48.382 C 91.022 54.667, 90.917 55.170, 88.534 57.272 C 87.144 58.497, 85.402 61.290, 84.661 63.477 C 83.717 66.264, 82.595 67.631, 80.907 68.047 C 78.837 68.557, 78.532 69.168, 78.730 72.408 C 78.994 76.716, 77.661 79.677, 71.037 89.500 C 66.836 95.730, 66.253 97.270, 65.741 103.500 C 65.251 109.454, 65.452 110.853, 67.083 112.861 C 68.137 114.159, 69.025 116.184, 69.056 117.361 C 69.152 121.029, 72.561 128.195, 74.774 129.379 L 76.887 130.510 74.618 137.255 L 72.348 144 100.674 144 C 116.253 144, 129 143.854, 129 143.676 C 129 143.498, 127.867 139.561, 126.483 134.926 C 125.099 130.292, 123.714 125.600, 123.406 124.500 C 123.097 123.400, 123.777 123.968, 124.915 125.762 C 128.889 132.024, 137.192 142, 138.431 142 C 139.117 142, 140.184 140.892, 140.800 139.539 C 141.688 137.591, 141.500 135.467, 139.899 129.354 C 138.786 125.106, 138.119 120.663, 138.415 119.481 C 138.712 118.298, 138.550 115.918, 138.055 114.191 C 137.486 112.207, 137.536 110.030, 138.190 108.276 C 139.108 105.816, 138.633 104.477, 134.015 96.502 C 128.655 87.246, 126.311 78.162, 128.874 76.578 C 130.793 75.392, 130.116 73.246, 127.625 72.621 C 125.552 72.100, 125.190 71.303, 124.779 66.346 C 124.426 62.089, 123.764 60.227, 122.133 58.907 C 120.156 57.306, 120.052 56.730, 120.987 52.560 C 121.552 50.037, 121.724 45.505, 121.370 42.487 C 120.887 38.382, 121.044 37, 121.993 37 C 123.274 37, 122.999 32.595, 121.478 28.750 C 120.929 27.362, 121.309 27, 123.315 27 C 125.293 27, 126.068 26.290, 126.869 23.750 C 128.462 18.692, 129.147 11.636, 128.184 10.194 C 127.098 8.566, 117.467 7.745, 113.686 8.958 M 114.912 82.750 C 114.437 86.770, 114.653 94, 115.247 94 C 115.661 94, 116 91.300, 116 88 C 116 84.700, 115.775 82, 115.500 82 C 115.225 82, 114.960 82.338, 114.912 82.750" stroke="none" fill="black" fill-rule="evenodd"/>
</svg>