<svg xmlns="http://www.w3.org/2000/svg" width="192" height="144" viewBox="0 0 192 144" version="1.1">
	<path d="M 39.764 15.750 C 37.721 24.413, 35.303 36.450, 34.390 42.500 C 32.251 56.690, 31.420 90.906, 32.903 103.721 C 34.260 115.436, 36.797 131.346, 37.972 135.500 C 38.439 137.150, 39.094 139.737, 39.429 141.250 L 40.038 144 113.991 144 L 187.944 144 189.711 138.250 L 191.477 132.500 192.159 138 C 192.534 141.025, 192.653 130.225, 192.422 114 C 192.192 97.775, 192.003 65.487, 192.002 42.250 L 192 0 117.740 0 L 43.479 0 39.764 15.750 M 1.050 125.250 L 1 144 8.957 144 L 16.914 144 12.449 134.750 C 9.993 129.662, 6.435 121.225, 4.542 116 L 1.100 106.500 1.050 125.250" stroke="none" fill="black" fill-rule="evenodd"/>
</svg>