<svg xmlns="http://www.w3.org/2000/svg" width="192" height="144" viewBox="0 0 192 144" version="1.1">
	<path d="M 63.719 10.291 C 63.137 20.561, 60.677 29.461, 57.421 33.079 C 56.639 33.947, 56 35.181, 56 35.821 C 56 37.532, 46.651 47.969, 43.839 49.398 C 41.358 50.659, 38.222 52.571, 36.857 53.656 C 36.110 54.249, 32.800 55.759, 29.500 57.013 C 23.198 59.406, 8.533 60.348, 2.750 58.731 L 0 57.962 0 100.981 L 0 144 77.469 144 L 154.937 144 154.407 136.250 C 154.082 131.494, 154.433 125.461, 155.315 120.634 C 156.743 112.816, 156.605 109.643, 154.733 107.249 C 154.064 106.395, 154.495 104.336, 156.092 100.749 C 157.913 96.661, 158.438 93.680, 158.465 87.271 C 158.497 79.851, 158.279 78.887, 156.250 77.464 C 153.473 75.517, 153.392 72.509, 156.004 68.226 C 157.102 66.425, 158 64.288, 158 63.476 C 158 62.664, 158.787 61.175, 159.750 60.167 C 162.183 57.618, 162.337 56, 160.146 56 C 159.126 56, 156.989 54.766, 155.396 53.257 C 153.803 51.749, 151.600 50.043, 150.500 49.466 C 149.074 48.719, 148.500 47.402, 148.500 44.877 C 148.500 42.207, 147.784 40.720, 145.590 38.832 C 143.989 37.454, 142.961 35.873, 143.304 35.316 C 143.648 34.760, 148.453 34.009, 153.982 33.646 C 166.179 32.847, 169.653 33.970, 173.712 40.025 C 175.245 42.313, 177.903 45.830, 179.618 47.842 C 181.333 49.854, 183.651 53.300, 184.771 55.500 C 185.890 57.700, 187.974 60.591, 189.403 61.924 C 191.988 64.338, 192 64.420, 192 80.233 C 192 88.970, 191.626 95.887, 191.169 95.605 C 190.712 95.322, 189.797 92.669, 189.134 89.708 C 188.471 86.747, 186.282 81.692, 184.270 78.474 L 180.611 72.624 179.818 75.562 C 179.365 77.240, 179.468 79.854, 180.059 81.657 C 180.628 83.393, 180.813 86.993, 180.470 89.657 C 179.825 94.656, 179.710 94.289, 187.205 111 C 188.315 113.475, 189.834 116.194, 190.579 117.043 C 191.523 118.117, 192.031 122.370, 192.251 131.043 C 192.425 137.894, 192.664 130.450, 192.783 114.500 C 192.901 98.550, 192.700 66.263, 192.336 42.750 L 191.674 0 127.988 0 L 64.301 0 63.719 10.291 M 0.459 101 C 0.459 124.925, 0.589 134.713, 0.749 122.750 C 0.908 110.788, 0.908 91.213, 0.749 79.250 C 0.589 67.288, 0.459 77.075, 0.459 101" stroke="none" fill="black" fill-rule="evenodd"/>
</svg>