<svg xmlns="http://www.w3.org/2000/svg" width="192" height="144" viewBox="0 0 192 144" version="1.1">
	<path d="M 126.782 3.212 C 124.543 4.904, 122.937 16.102, 122.128 35.671 C 121.782 44.014, 121.162 51.177, 120.750 51.587 C 120.338 51.998, 119.999 51.921, 119.999 51.417 C 119.998 50.913, 115.552 50.500, 110.119 50.500 L 100.240 50.500 94.460 46.518 C 91.281 44.328, 86.614 40.053, 84.090 37.018 C 78.871 30.744, 69.653 25.341, 66.095 26.470 C 64.783 26.886, 64.257 27.595, 64.719 28.322 C 65.590 29.694, 66.559 37.679, 67.901 54.539 C 68.428 61.161, 68.968 67.011, 69.101 67.539 C 69.234 68.068, 68.981 70.691, 68.540 73.369 C 67.694 78.499, 69.342 96.778, 71.211 103 C 76.826 121.694, 82.905 123.764, 127 122 C 138.564 121.537, 139.837 121.670, 144 123.773 C 149.679 126.641, 152.361 128.225, 154.393 129.911 C 156.084 131.315, 156.566 135.936, 155.190 137.550 C 154.744 138.072, 153.854 139.738, 153.211 141.250 L 152.043 144 172.021 144 L 192 144 192 103.893 C 192 67.732, 191.844 63.846, 190.418 64.393 C 189.548 64.727, 188.478 65, 188.040 65 C 187.602 65, 185.552 67.456, 183.484 70.458 C 180.165 75.278, 179.792 76.413, 180.296 80.168 C 181.161 86.620, 180.197 90, 177.492 90 C 175.273 90, 174.046 92.181, 174.014 96.185 C 174.006 97.112, 173.536 99.090, 172.969 100.580 L 171.939 103.291 169.655 101.146 C 167.862 99.461, 166.126 99, 161.579 99 C 156.663 99, 155.220 98.550, 152.031 96.024 C 147.835 92.701, 147.096 90.599, 144.461 74.500 C 143.560 69, 142.358 62.700, 141.789 60.500 C 141.221 58.300, 140.822 55.150, 140.905 53.500 C 141.365 44.261, 140.969 31.685, 140.038 26 C 137.979 13.418, 137.742 12.484, 136.154 10.674 C 135.273 9.669, 134.090 7.419, 133.526 5.674 C 132.390 2.161, 129.546 1.123, 126.782 3.212" stroke="none" fill="black" fill-rule="evenodd"/>
</svg>