<svg xmlns="http://www.w3.org/2000/svg" width="192" height="144" viewBox="0 0 192 144" version="1.1">
	<path d="M 0 72 L 0 144 94 144 L 188 144 188 140.121 C 188 136.686, 187.628 136.090, 184.750 134.906 C 179.990 132.949, 173.312 128.254, 172.582 126.352 C 171.961 124.734, 175.716 118.021, 177.250 118.007 C 177.662 118.003, 178 117.042, 178 115.871 C 178 113.321, 182.375 100.909, 184.390 97.745 C 187.377 93.052, 190.394 76, 188.237 76 C 187.818 76, 187.030 74.990, 186.487 73.756 C 185.944 72.522, 184.825 71.388, 184 71.236 C 182.781 71.012, 182.494 72.323, 182.468 78.230 C 182.441 84.341, 181.899 86.656, 179.070 92.750 C 176.666 97.928, 175.175 100, 173.852 100 C 171.414 100, 171.433 99.925, 175.500 93.567 C 179.706 86.993, 181.444 79.710, 180.538 72.461 C 179.925 67.551, 179.609 67.030, 176.685 66.114 C 174.933 65.565, 170.527 64.819, 166.893 64.457 C 160.743 63.843, 160.248 63.943, 159.737 65.899 C 159.113 68.282, 161.551 68.089, 127.500 68.459 C 106.276 68.691, 101.015 68.194, 97.507 65.629 C 95.869 64.431, 95.777 63.973, 96.904 62.615 C 99.559 59.417, 105 58.915, 121.594 60.337 L 137.407 61.693 142.412 59.097 C 147.258 56.583, 147.969 56.503, 164.709 56.579 C 174.219 56.623, 182 56.433, 182 56.158 C 182 55.883, 181.253 54.832, 180.339 53.823 C 178.360 51.635, 178.622 51.253, 182.460 50.739 C 185.009 50.398, 185.577 49.693, 186.892 45.238 C 187.850 41.993, 189.057 39.957, 190.200 39.658 C 192.426 39.076, 192.570 41.662, 190.468 44.441 C 188.801 46.645, 188.490 51, 190 51 C 190.550 51, 191.106 50.438, 191.235 49.750 C 191.365 49.063, 191.709 69.875, 192 96 C 192.526 143.221, 192.531 143.078, 192.765 71.750 L 193 0 96.500 0 L 0 0 0 72 M 0.474 72.500 C 0.474 112.100, 0.598 128.154, 0.750 108.176 C 0.901 88.198, 0.901 55.798, 0.750 36.176 C 0.598 16.554, 0.474 32.900, 0.474 72.500 M 188.500 72 C 188.840 72.550, 189.568 73, 190.118 73 C 190.668 73, 190.840 72.550, 190.500 72 C 190.160 71.450, 189.432 71, 188.882 71 C 188.332 71, 188.160 71.450, 188.500 72" stroke="none" fill="black" fill-rule="evenodd"/>
</svg>