<svg xmlns="http://www.w3.org/2000/svg" width="192" height="144" viewBox="0 0 192 144" version="1.1">
	<path d="M 0 72 L 0 144 10.287 144 L 20.573 144 24.514 138.750 C 28.110 133.960, 28.465 132.930, 28.568 127 C 28.630 123.425, 28.940 119.825, 29.256 119 C 29.573 118.175, 29.852 116.825, 29.876 116 C 29.974 112.642, 31.410 108.435, 32.811 107.403 C 33.749 106.713, 34.587 103.561, 35.071 98.903 C 35.494 94.831, 36.262 89.611, 36.776 87.302 C 37.506 84.031, 37.413 82.989, 36.356 82.583 C 34.517 81.877, 34.641 74.059, 36.532 71.559 C 37.389 70.426, 38 67.437, 38 64.381 L 38 59.143 32.593 57.933 C 27.653 56.828, 27.144 56.455, 26.698 53.612 C 26.429 51.900, 25.884 49.487, 25.488 48.250 C 24.863 46.300, 25.121 46, 27.424 46 C 31.396 46, 36.083 42.178, 35.408 39.488 C 35.108 38.294, 35.606 34.451, 36.513 30.948 C 39.841 18.105, 47.019 12.017, 58.872 11.985 C 65.266 11.967, 64.825 12.204, 71.462 5.221 L 76.425 -0 38.212 -0 L 0 0 0 72 M 81.028 7.243 C 82.754 11.679, 84.748 15.045, 86.173 15.928 C 94.746 21.240, 99.220 29.464, 98.901 39.321 C 98.754 43.852, 99.285 46.856, 100.863 50.423 C 102.721 54.624, 102.831 55.538, 101.644 56.907 C 99.965 58.841, 100.225 59.915, 104.930 70.500 C 107.591 76.487, 111.837 83.005, 114.250 84.807 C 117.130 86.957, 116.229 87.961, 112.907 86.304 C 110.011 84.859, 109.632 84.896, 106.948 86.880 C 103.465 89.455, 102.061 89.514, 98.104 87.250 C 95.613 85.824, 94.684 85.725, 93.094 86.714 C 91.798 87.520, 91.026 87.577, 90.795 86.884 C 90.415 85.746, 85 87.752, 85 89.031 C 85 89.421, 87.138 90.315, 89.750 91.018 C 92.362 91.721, 96.007 93.412, 97.850 94.775 C 100.729 96.906, 101.115 97.677, 100.596 100.270 C 100.264 101.929, 100.400 103.784, 100.899 104.393 C 101.397 105.002, 102.316 107.412, 102.941 109.750 C 103.665 112.461, 104.645 114, 105.646 114 C 106.667 114, 107.002 114.553, 106.605 115.587 C 106.270 116.461, 105.725 118.866, 105.395 120.934 C 104.873 124.193, 105.151 124.974, 107.487 126.811 C 110.071 128.843, 110.120 129.053, 108.685 131.929 C 107.425 134.455, 107.389 135.603, 108.455 139.214 L 109.720 143.500 150.860 143.761 L 192 144.022 192 72.011 L 192 0 144.583 -0 C 107.628 -0, 97.038 0.276, 96.583 1.250 C 96.117 2.250, 95.883 2.250, 95.417 1.250 C 95.019 0.397, 92.193 0, 86.522 0 L 78.210 0 81.028 7.243 M 166 45 C 166 45.550, 166.450 46, 167 46 C 167.550 46, 168 45.550, 168 45 C 168 44.450, 167.550 44, 167 44 C 166.450 44, 166 44.450, 166 45 M 135.500 75 C 135.160 75.550, 135.584 76, 136.441 76 C 137.298 76, 138 75.550, 138 75 C 138 74.450, 137.577 74, 137.059 74 C 136.541 74, 135.840 74.450, 135.500 75 M 37.473 92.030 C 35.079 94.676, 35.941 95.307, 38.901 93.075 C 40.232 92.071, 40.832 91.014, 40.270 90.667 C 39.718 90.326, 38.460 90.939, 37.473 92.030 M 89.639 137.694 C 88.309 139.025, 88.988 144, 90.500 144 C 91.493 144, 92 143.007, 92 141.059 C 92 138.124, 90.850 136.484, 89.639 137.694" stroke="none" fill="black" fill-rule="evenodd"/>
</svg>