<svg xmlns="http://www.w3.org/2000/svg" width="192" height="144" viewBox="0 0 192 144" version="1.1">
	<path d="M 0 57 L 0 114 4.433 114 C 9.584 114, 10.354 112.754, 9.882 105.187 C 9.487 98.862, 10.521 96.363, 14.041 95.136 C 16.852 94.156, 17.464 92.880, 17.066 88.833 C 16.976 87.916, 17.824 86.873, 18.951 86.515 C 20.277 86.095, 21 85.006, 21 83.433 C 21 82.095, 21.502 81, 22.117 81 C 22.754 81, 23.001 81.890, 22.691 83.073 C 22.346 84.394, 22.848 85.746, 24.074 86.796 C 25.244 87.797, 26 89.724, 26 91.703 C 26 94.370, 26.468 95.079, 28.573 95.608 C 31.972 96.461, 32.914 99.303, 32.281 106.806 C 31.792 112.615, 31.891 113, 33.880 113 C 35.651 113, 36 112.402, 36 109.368 C 36 106, 39.277 99, 40.854 99 C 42.009 99, 44.900 105.307, 45.209 108.500 L 45.500 111.500 58.956 112.319 C 71.510 113.084, 72.582 113.310, 74.956 115.691 L 77.500 118.243 78 109.872 C 78.441 102.491, 80.158 97, 82.025 97 C 82.324 97, 83.341 98.307, 84.284 99.904 C 85.756 102.395, 86 105.742, 86 123.404 L 86 144 138.840 144 L 191.681 144 192.338 120.750 C 192.700 107.963, 192.996 75.563, 192.998 48.750 L 193 0 96.500 0 L 0 0 0 57 M 0.468 57.500 C 0.468 88.850, 0.595 101.530, 0.750 85.679 C 0.904 69.827, 0.904 44.177, 0.749 28.679 C 0.594 13.180, 0.468 26.150, 0.468 57.500 M 117.104 40.020 C 115.312 42.250, 113.388 43.740, 112.782 43.365 C 112.146 42.972, 111.976 43.152, 112.373 43.795 C 112.749 44.403, 112.143 45.388, 111.028 45.985 C 108.195 47.501, 108.447 49.356, 111.386 48.618 C 114.960 47.721, 116.367 50.066, 115.545 55.550 C 115.016 59.077, 115.296 60.960, 116.773 63.809 C 117.825 65.839, 118.458 68.171, 118.179 68.990 C 117.397 71.294, 112.332 76, 110.636 76 C 109.801 76, 108.939 76.338, 108.720 76.750 C 108.167 77.793, 110.543 82.124, 111.270 81.397 C 112.295 80.372, 118 84.353, 118 86.093 C 118 87.007, 118.668 88.309, 119.483 88.986 C 120.714 90.008, 121.140 89.762, 121.983 87.544 C 122.543 86.073, 123 84.476, 123 83.994 C 123 82.377, 125.074 81.816, 126.544 83.036 C 127.345 83.701, 128 85.260, 128 86.500 C 128 89.062, 130.390 91.495, 131.956 90.527 C 132.530 90.172, 133 89.234, 133 88.441 C 133 86.505, 136.428 86.606, 138.075 88.590 C 139.280 90.042, 139.498 90.039, 140.585 88.553 C 141.240 87.658, 142.163 86.995, 142.638 87.081 C 145.192 87.543, 146.937 86.773, 147.523 84.928 C 147.910 83.709, 148.748 83.073, 149.558 83.384 C 150.316 83.675, 151.178 83.521, 151.474 83.042 C 151.770 82.563, 151.459 81.986, 150.783 81.761 C 149.221 81.240, 148.838 75.005, 150.367 74.985 C 151.030 74.976, 150.929 74.607, 150.122 74.096 C 149.364 73.616, 149.053 72.723, 149.431 72.112 C 149.809 71.500, 149.581 71, 148.924 71 C 148.267 71, 146.687 69.875, 145.412 68.500 C 143.518 66.456, 142.155 66, 137.941 66 C 133.418 66, 132.876 65.785, 133.522 64.250 C 133.926 63.288, 134.485 61.445, 134.763 60.155 C 135.264 57.837, 135.233 57.828, 132.184 59.405 C 130.488 60.282, 128.852 61, 128.550 61 C 127.441 61, 128.045 57.862, 129.615 55.465 C 130.503 54.109, 130.974 53, 130.660 53 C 130.347 53, 131.220 51.871, 132.599 50.492 C 135.617 47.474, 135.169 46.442, 130.458 45.558 C 127.059 44.920, 124.491 41.760, 125.704 39.706 C 126.422 38.488, 123.966 36, 122.045 36 C 121.104 36, 118.881 37.809, 117.104 40.020" stroke="none" fill="black" fill-rule="evenodd"/>
</svg>