<svg xmlns="http://www.w3.org/2000/svg" width="192" height="144" viewBox="0 0 192 144" version="1.1">
	<path d="M 105.457 17.368 C 101.271 19.317, 100.197 20.378, 99.140 23.608 C 98.439 25.749, 97.784 29.250, 97.683 31.390 C 97.520 34.851, 97.855 35.456, 100.727 36.890 C 102.603 37.826, 103.964 39.277, 103.977 40.356 C 104.005 42.595, 108.433 46.308, 111.905 47.003 C 114.365 47.495, 114.309 47.618, 109.221 52.868 C 106.363 55.818, 104.253 58.600, 104.531 59.050 C 104.809 59.500, 104.304 61.700, 103.408 63.939 C 102.360 66.557, 102.008 69.231, 102.422 71.434 L 103.064 74.859 97.282 72.625 C 90.079 69.842, 88.031 66.648, 90.403 61.895 C 91.782 59.129, 91.777 58.590, 90.351 56.414 C 89.482 55.086, 88.664 54, 88.534 54 C 88.405 54, 86.879 54.495, 85.143 55.100 C 81.645 56.320, 81.687 56.197, 80.075 69.702 C 79.171 77.275, 79.233 79.649, 80.429 83.118 C 81.794 87.081, 81.735 87.692, 79.440 93.339 C 76.224 101.255, 76.303 102.688, 80 103.500 C 81.650 103.862, 83 104.465, 83 104.840 C 83 105.981, 88.010 111, 89.149 111 C 89.789 111, 89.965 109.998, 89.589 108.500 C 88.998 106.144, 89.193 106, 92.981 106 C 95.472 106, 97.041 105.525, 97.108 104.750 C 97.326 102.222, 97.151 98.296, 96.436 89.750 C 96.034 84.938, 96.003 81, 96.366 81 C 96.730 81, 98.591 82.012, 100.502 83.250 C 103.648 85.288, 103.976 85.941, 103.988 90.188 C 103.994 92.766, 103.347 97.716, 102.548 101.188 C 101.749 104.660, 100.604 110.611, 100.002 114.414 C 99.401 118.217, 97.182 126.429, 95.070 132.664 L 91.231 144 121.115 144 C 137.552 144, 151 143.781, 151 143.513 C 151 143.246, 148.170 137.508, 144.712 130.763 C 141.254 124.018, 136.984 114.883, 135.224 110.462 C 133.465 106.041, 130.549 99.966, 128.746 96.962 C 123.840 88.788, 122.613 84.146, 123.280 76.286 C 123.977 68.062, 124.613 66.257, 127.092 65.471 C 129.546 64.692, 129.548 61.462, 127.096 55.011 C 126.049 52.256, 125.534 50.212, 125.951 50.470 C 127.328 51.321, 130.742 46.564, 131.398 42.878 C 131.857 40.301, 131.291 36.926, 129.437 31.178 C 127.295 24.537, 126.050 22.379, 122.438 19.050 C 117.152 14.177, 113.158 13.782, 105.457 17.368" stroke="none" fill="black" fill-rule="evenodd"/>
</svg>