<svg xmlns="http://www.w3.org/2000/svg" width="192" height="144" viewBox="0 0 192 144" version="1.1">
	<path d="M 0 55.500 C 0 86.025, 0.173 111, 0.385 111 C 0.597 111, 1.495 109.893, 2.382 108.540 C 3.697 106.533, 3.777 105.605, 2.817 103.498 C 1.799 101.263, 1.937 100.619, 3.841 98.714 C 5.891 96.665, 6.228 96.617, 8.736 98.025 C 10.949 99.268, 11.454 100.290, 11.571 103.768 C 11.669 106.705, 11.303 108, 10.375 108 C 9.374 108, 9.187 109.086, 9.632 112.331 C 10.043 115.329, 9.733 117.615, 8.627 119.754 C 7.748 121.455, 6.742 125.930, 6.391 129.699 C 5.868 135.332, 6.043 136.791, 7.377 137.898 C 9.465 139.631, 9.430 140.953, 7.250 142.608 C 5.787 143.718, 13.568 143.942, 54.665 143.968 L 103.829 144 104.527 136.250 C 104.935 131.714, 105.968 127.256, 107.017 125.500 C 108.003 123.850, 108.965 120.312, 109.155 117.637 L 109.500 112.775 104.505 110.808 L 99.510 108.841 96.296 112.671 C 93.276 116.267, 92.698 116.519, 86.790 116.813 C 76.627 117.320, 72.808 117.256, 67.339 116.488 C 63.457 115.942, 61.649 116.132, 60.048 117.254 C 57.352 119.142, 49.527 118.407, 46 115.933 C 44.625 114.968, 41.254 113.870, 38.510 113.492 C 34.339 112.918, 32.750 112.036, 28.833 108.119 C 26.256 105.541, 23.861 102.098, 23.512 100.466 C 23.163 98.835, 22.260 96.085, 21.505 94.355 C 20.087 91.106, 20.393 88.387, 22.669 84.027 C 23.394 82.637, 23.990 80.916, 23.994 80.202 C 24.002 78.556, 28.658 74.448, 32.237 72.929 C 33.780 72.275, 34.683 71.296, 34.307 70.687 C 33.572 69.499, 33.753 61.071, 34.605 56.782 C 35.219 53.690, 49.029 42, 52.067 42 C 53.062 42, 55.355 40.650, 57.161 39 C 58.968 37.350, 61.020 36, 61.723 36 C 62.425 36, 63 35.303, 63 34.450 C 63 32.201, 65.842 26.999, 69.139 23.215 C 70.712 21.409, 72 19.303, 72 18.537 C 72 15.736, 75.063 14, 80.006 14 C 82.681 14, 86.077 13.541, 87.553 12.980 C 90.880 11.715, 97.265 14.230, 99.539 17.699 C 100.553 19.247, 102.020 20, 104.023 20 C 106.819 20, 107 20.238, 107 23.917 C 107 26.071, 107.479 27.993, 108.065 28.188 C 108.650 28.383, 109.383 30.439, 109.694 32.757 C 110.005 35.074, 110.928 37.525, 111.744 38.203 C 112.966 39.216, 113.661 38.933, 115.666 36.602 C 117.006 35.044, 118.302 33.968, 118.545 34.212 C 118.788 34.455, 117.640 36.163, 115.994 38.007 C 113.512 40.787, 113 42.218, 113 46.380 C 113 50.284, 113.267 51.133, 114.200 50.200 C 115.651 48.749, 117.365 48.600, 116.500 50 C 116.160 50.550, 116.359 51, 116.941 51 C 117.523 51, 118 50.550, 118 50 C 118 48.782, 120.205 49.119, 121.274 50.500 C 122.354 51.897, 126.417 46.838, 130.509 39 C 132.375 35.425, 133.922 33.175, 133.947 34 C 133.972 34.825, 133.101 36.963, 132.011 38.750 C 129.715 42.516, 130.248 42.756, 134.774 39.996 C 138.819 37.530, 138.911 37.531, 138.722 40.035 C 138.625 41.325, 137.641 42.287, 136.035 42.663 C 132.204 43.560, 127.409 46.727, 125.524 49.604 C 123.158 53.215, 124.386 53.765, 127.445 50.465 C 128.850 48.949, 130 48.191, 130 48.781 C 130 50.608, 124.870 54, 122.107 54 C 118.552 54, 111.008 63.998, 111.003 68.716 L 111 71.933 114.655 69.776 C 116.996 68.395, 118.848 66.250, 119.807 63.810 C 120.630 61.714, 121.674 60, 122.127 60 C 122.580 60, 122.512 61.154, 121.975 62.565 C 120.637 66.084, 120.647 66.094, 123.750 64.447 C 125.263 63.644, 129.107 61.843, 132.293 60.444 C 138.016 57.933, 140.942 54.334, 139.353 51.762 C 138.961 51.128, 139.163 50.982, 139.847 51.406 C 140.546 51.837, 141.369 51.160, 141.925 49.697 C 142.996 46.880, 146 45.284, 146 47.531 C 146 48.339, 145.555 49, 145.011 49 C 143.723 49, 144.101 54.279, 145.458 55.235 C 146.031 55.639, 145.248 55.976, 143.719 55.985 C 142.156 55.993, 140.680 56.670, 140.350 57.530 C 140.027 58.372, 138.579 59.704, 137.131 60.490 C 135.684 61.277, 135.092 61.938, 135.816 61.960 C 136.539 61.982, 138.059 61.504, 139.193 60.897 C 140.740 60.069, 141.444 60.100, 142.013 61.022 C 142.431 61.697, 143.970 62.382, 145.434 62.542 C 146.898 62.703, 148.793 63.413, 149.645 64.121 C 151.160 65.378, 155 66.409, 155 65.559 C 155 65.323, 154.536 63.909, 153.968 62.416 C 153.020 59.922, 153.075 59.815, 154.655 61.101 C 156.169 62.333, 156.298 62.295, 155.731 60.782 C 155.377 59.837, 155.518 58.798, 156.044 58.473 C 156.992 57.887, 157.179 59.474, 157.390 69.915 C 157.458 73.271, 157.975 75.489, 158.749 75.748 C 160.649 76.384, 161.404 73.224, 160.251 69.467 C 159.356 66.549, 159.498 65.874, 161.343 64.305 C 163.005 62.891, 163.189 62.859, 162.190 64.154 C 160.843 65.900, 161.528 71, 163.108 71 C 163.599 71, 164.006 70.662, 164.013 70.250 C 164.035 69.020, 173.972 58.404, 173.987 59.595 C 173.994 60.197, 173.063 61.538, 171.917 62.575 C 170.228 64.103, 167 70.042, 167 71.620 C 167 71.827, 169.182 70.429, 171.848 68.513 C 174.515 66.598, 176.954 65.287, 177.267 65.601 C 177.581 65.915, 178.340 65.233, 178.954 64.086 C 179.568 62.939, 180.842 62.002, 181.785 62.004 C 182.883 62.007, 181.188 64.165, 177.070 68.004 C 170.959 73.702, 167.173 76.017, 170.128 72.250 C 171.354 70.686, 171.324 70.637, 169.845 71.794 C 167.774 73.413, 168.040 75.547, 170.559 77.522 C 172.374 78.946, 172.268 79.006, 168.927 78.445 C 163.321 77.502, 145.674 86.390, 139.290 93.370 C 136.656 96.250, 132.138 99.933, 129.251 101.554 C 123.356 104.862, 122.723 105.993, 126.750 106.015 C 128.262 106.024, 130.175 106.507, 131 107.090 C 132.112 107.876, 131.505 107.985, 128.652 107.511 C 124.589 106.837, 124.470 107.364, 127.807 111.250 C 129.114 112.772, 129.119 113, 127.843 113 C 127.036 113, 125.358 111.623, 124.113 109.940 C 121.418 106.294, 119.907 107.030, 118.168 112.835 C 117.311 115.695, 117.295 118.222, 118.108 122.597 C 118.744 126.020, 118.923 131.755, 118.533 136.250 L 117.863 144 141.569 144 L 165.275 144 164.639 138.585 C 163.818 131.602, 163.278 130.306, 160.931 129.692 C 158.688 129.106, 158.322 124.817, 160.132 120.315 C 160.754 118.767, 161.355 113.450, 161.467 108.500 C 161.642 100.768, 161.412 99.316, 159.835 98.193 C 158.826 97.475, 158 96.263, 158 95.500 C 158 93.784, 161.834 91, 164.197 91 C 166.382 91, 169.311 96.445, 168.500 99 C 167.815 101.157, 170.249 106.480, 172.494 107.737 C 173.738 108.433, 173.788 109.102, 172.793 111.736 C 171.766 114.459, 171.855 115.182, 173.433 116.926 C 174.442 118.041, 175.610 118.741, 176.029 118.482 C 176.873 117.960, 178.322 121.012, 177.581 121.752 C 177.325 122.008, 175.713 121.220, 174 120 C 172.287 118.780, 170.696 117.970, 170.466 118.201 C 170.236 118.431, 170.962 121.025, 172.079 123.966 C 173.710 128.257, 173.853 129.478, 172.805 130.146 C 172.087 130.604, 170.880 130.751, 170.121 130.472 C 169.044 130.075, 168.897 130.678, 169.449 133.232 C 169.837 135.029, 170.404 138.188, 170.709 140.250 L 171.263 144 181.471 144 L 191.679 144 192.340 118.338 C 192.703 104.224, 193 71.824, 193 46.338 L 193 0 96.500 0 L 0 0 0 55.500 M 0.467 56 C 0.467 86.525, 0.594 99.012, 0.749 83.750 C 0.905 68.487, 0.905 43.512, 0.749 28.250 C 0.594 12.987, 0.467 25.475, 0.467 56 M 140 37.059 C 140 37.641, 140.450 37.840, 141 37.500 C 141.550 37.160, 142 36.684, 142 36.441 C 142 36.198, 141.550 36, 141 36 C 140.450 36, 140 36.477, 140 37.059 M 143 39.500 C 141.980 40.729, 142.049 41, 143.378 41 C 144.270 41, 145 40.325, 145 39.500 C 145 38.675, 144.830 38, 144.622 38 C 144.415 38, 143.685 38.675, 143 39.500 M 5 39.393 C 5 39.609, 5.698 40.054, 6.552 40.382 C 7.442 40.723, 7.843 40.555, 7.493 39.989 C 6.906 39.038, 5 38.583, 5 39.393 M 108.298 41.226 C 106.449 43.612, 106.116 45.852, 107.447 46.956 C 108.501 47.831, 108.871 47.281, 109.245 44.279 C 109.789 39.912, 109.654 39.476, 108.298 41.226 M 146.631 49.440 C 145.709 50.848, 145.212 52, 145.527 52 C 146.529 52, 152 48.971, 152 48.415 C 152 48.122, 151.500 48.191, 150.888 48.569 C 150.277 48.947, 149.446 48.722, 149.042 48.068 C 148.542 47.259, 147.775 47.695, 146.631 49.440 M 109.606 52.584 C 109.233 53.557, 109.456 54.015, 110.187 53.771 C 111.682 53.273, 112.505 51, 111.190 51 C 110.653 51, 109.941 51.713, 109.606 52.584 M 103.638 53.500 C 103.322 54.325, 103.499 55, 104.031 55 C 104.564 55, 105 54.325, 105 53.500 C 105 52.675, 104.823 52, 104.607 52 C 104.391 52, 103.955 52.675, 103.638 53.500 M 108.443 56.418 C 107.376 57.198, 106.796 58.129, 107.154 58.488 C 107.895 59.228, 112 56.917, 112 55.759 C 112 54.591, 110.582 54.854, 108.443 56.418 M 121.015 57.250 C 121.028 59.069, 121.216 59.213, 122 58 C 123.253 56.061, 123.253 55, 122 55 C 121.450 55, 121.007 56.013, 121.015 57.250 M 109.459 60.067 C 108.383 61.808, 109.608 62.177, 110.980 60.524 C 111.769 59.574, 111.845 59, 111.181 59 C 110.597 59, 109.821 59.480, 109.459 60.067 M 100 61.559 C 100 62.497, 100.937 64.780, 102.082 66.632 C 104.183 70.032, 105.332 71.052, 104.468 68.750 C 104.210 68.063, 103.875 65.929, 103.724 64.009 C 103.538 61.639, 102.896 60.411, 101.725 60.186 C 100.636 59.976, 100 60.482, 100 61.559 M 124.283 67.030 C 119.615 70.015, 118.224 71.420, 118.701 72.664 C 119.203 73.972, 118.887 74.204, 117.205 73.764 C 113.899 72.899, 112.515 75.330, 114.548 78.433 C 116.515 81.435, 116.416 81.413, 119.846 79.586 C 127.828 75.334, 131.812 73.810, 136.346 73.273 C 139.516 72.897, 143.006 71.578, 145.775 69.710 C 149.780 67.007, 150.031 66.602, 148.593 65.164 C 147.463 64.034, 144.669 63.510, 138.757 63.319 C 130.649 63.057, 130.388 63.124, 124.283 67.030 M 152.638 68.500 C 152.955 69.325, 153.391 70, 153.607 70 C 153.823 70, 154 69.325, 154 68.500 C 154 67.675, 153.564 67, 153.031 67 C 152.499 67, 152.322 67.675, 152.638 68.500 M 146.250 70.662 C 143.751 71.670, 145.081 73.102, 148.186 72.747 C 151.903 72.323, 153.362 69.960, 149.833 70.079 C 148.550 70.122, 146.938 70.385, 146.250 70.662 M 177 73.022 C 177 73.401, 175.537 74.180, 173.750 74.753 C 171.963 75.327, 171.307 75.842, 172.294 75.898 C 173.383 75.960, 173.972 76.646, 173.794 77.646 C 173.632 78.552, 174.110 79.505, 174.855 79.765 C 175.836 80.106, 176.025 79.655, 175.540 78.126 C 175.020 76.488, 175.443 75.755, 177.435 74.848 C 180.286 73.549, 180.801 72.333, 178.500 72.333 C 177.675 72.333, 177 72.643, 177 73.022 M 148.250 74.975 C 146.463 76.072, 145 77.544, 145 78.245 C 145 78.946, 144.100 80.081, 143 80.768 C 140.932 82.060, 140.237 85, 142 85 C 142.550 85, 143 84.540, 143 83.979 C 143 83.417, 144.125 82.445, 145.500 81.818 C 146.875 81.192, 148 79.986, 148 79.139 C 148 77.942, 148.267 77.867, 149.200 78.800 C 150.942 80.542, 153.588 80.414, 152.131 78.658 C 150.640 76.861, 151.938 75.704, 153.754 77.211 C 154.947 78.201, 155.133 77.989, 154.846 75.962 C 154.398 72.803, 152.299 72.488, 148.250 74.975 M 139 76.002 L 135.500 77.916 138.417 77.958 C 143.939 78.037, 139.918 79.405, 133.214 79.728 C 124.883 80.129, 123.892 80.472, 124.592 82.712 C 125.120 84.399, 125.088 84.401, 124.026 82.750 C 122.519 80.406, 121.528 80.545, 119.685 83.358 C 117.598 86.543, 119.334 94.498, 121.886 93.442 C 122.774 93.074, 124.292 92.545, 125.260 92.267 C 126.599 91.882, 126.932 90.952, 126.648 88.381 C 126.206 84.371, 126.690 84.056, 128 87.500 C 129.202 90.661, 129.608 90.635, 135.286 87.034 C 138.848 84.775, 139.810 83.642, 139.322 82.284 C 138.970 81.303, 139.026 80.810, 139.447 81.190 C 140.482 82.122, 143.728 78.960, 144.156 76.604 C 144.637 73.953, 143.080 73.772, 139 76.002 M 129.393 77.080 L 126.500 78.987 129.168 78.993 C 134.032 79.005, 136.853 76.925, 133.643 75.693 C 132.897 75.407, 130.984 76.031, 129.393 77.080 M 133.750 90.566 C 130.024 92.505, 129 93.573, 129 95.519 C 129 98.906, 129.966 98.662, 135.359 93.915 C 142.354 87.758, 141.712 86.421, 133.750 90.566 M 151.837 92.741 C 150.251 93.096, 147 98.581, 147 100.901 C 147 103.552, 155.573 100.740, 156.331 97.841 C 157.312 94.090, 155.418 91.940, 151.837 92.741 M 123.750 95.572 C 121 97.064, 120.052 99, 122.071 99 C 122.661 99, 122.432 99.711, 121.562 100.581 C 119.235 102.908, 120.709 104.237, 123.552 102.374 C 126.263 100.598, 126.641 99.425, 124.750 98.662 C 124.003 98.361, 124.205 98.126, 125.250 98.079 C 126.307 98.031, 127 97.208, 127 96 C 127 94.900, 126.888 94.018, 126.750 94.040 C 126.612 94.062, 125.263 94.751, 123.750 95.572 M 109 105.625 C 109 106.897, 108.349 107.120, 106 106.650 C 102.448 105.940, 101.912 107.510, 105.407 108.387 C 106.731 108.720, 108.473 109.244, 109.278 109.553 C 110.954 110.196, 112.219 107.735, 111.362 105.500 C 110.594 103.499, 109 103.584, 109 105.625" stroke="none" fill="black" fill-rule="evenodd"/>
</svg>