<svg xmlns="http://www.w3.org/2000/svg" width="192" height="144" viewBox="0 0 192 144" version="1.1">
	<path d="M 75.435 7.434 C 73.546 11.523, 72 16.407, 72 18.287 C 72 24.672, 79.982 33.024, 88.897 35.966 C 92.953 37.304, 93.515 37.261, 96.880 35.344 C 98.871 34.210, 101.589 31.642, 102.919 29.639 C 105.202 26.200, 105.440 26.088, 107.169 27.653 C 109.456 29.723, 109.586 28.305, 107.336 25.819 C 105.898 24.230, 105.854 23.641, 107.013 21.475 C 108.856 18.032, 108.573 10.524, 106.481 7.331 C 102.239 0.857, 100.365 0.066, 89.185 0.032 L 78.870 0 75.435 7.434" stroke="none" fill="black" fill-rule="evenodd"/>
</svg>