<svg xmlns="http://www.w3.org/2000/svg" width="192" height="144" viewBox="0 0 192 144" version="1.1">
	<path d="M -0 32.129 L -0 64.258 7.016 63.567 C 10.875 63.187, 16.387 61.843, 19.266 60.580 C 22.145 59.318, 26.750 57.757, 29.500 57.112 C 35.702 55.657, 51.268 55.270, 60.250 56.349 C 65.949 57.033, 67 56.925, 67 55.656 C 67 54.830, 68.125 52.816, 69.500 51.182 C 72.875 47.172, 72.649 46, 68.500 46 C 66.575 46, 65 45.638, 65 45.196 C 65 44.754, 66.575 42.866, 68.500 41 C 71.689 37.909, 72 37.105, 72 31.939 C 72 24.568, 74.164 21.802, 83.388 17.381 C 92.480 13.024, 95.517 13.039, 100.691 17.467 C 104.375 20.621, 105.046 20.847, 108.114 19.967 C 112.328 18.759, 117 18.715, 117 19.884 C 117 20.370, 115.186 22.406, 112.969 24.409 L 108.937 28.051 111.492 31.400 C 113.698 34.293, 113.900 35.140, 112.972 37.624 C 112.381 39.206, 110.976 41.211, 109.849 42.079 C 107.970 43.529, 107.933 43.790, 109.406 45.263 C 110.879 46.736, 110.853 47.140, 109.086 50.184 C 108.027 52.008, 106.677 55.341, 106.085 57.591 C 105.493 59.841, 104.107 62.499, 103.004 63.496 C 101.902 64.494, 101 65.683, 101 66.138 C 101 67.459, 110.679 72, 113.495 72 C 116.431 72, 128 77.556, 128 78.966 C 128 80.357, 141.754 89, 143.968 89 C 148.668 89, 168.714 113.626, 182.476 136.306 C 186.664 143.209, 187.518 144.077, 189.856 143.806 L 192.500 143.500 192.692 71.750 L 192.884 0 96.442 0 L 0 0 -0 32.129 M 0.446 32.500 C 0.447 50.100, 0.583 57.159, 0.749 48.187 C 0.914 39.215, 0.914 24.815, 0.748 16.187 C 0.581 7.559, 0.446 14.900, 0.446 32.500 M 36.500 63.610 C 29.454 64.616, 24.197 66.333, 19.700 69.095 C 17.060 70.716, 11.885 72.833, 8.200 73.798 L 1.500 75.553 1.237 109.776 L 0.974 144 35.909 144 L 70.845 144 71.961 140.619 C 72.574 138.759, 75.759 133.054, 79.038 127.940 C 85.773 117.437, 85.891 116.740, 83.894 99.211 C 82.731 89.003, 82.291 84.685, 82.110 81.691 C 82.046 80.645, 81.536 80.169, 80.900 80.562 C 80.134 81.035, 79.906 79.504, 80.150 75.530 L 80.500 69.817 76.500 68.390 C 67.199 65.073, 44.909 62.409, 36.500 63.610 M 124.461 90.063 C 124.100 90.648, 124.523 91.921, 125.402 92.892 C 127.528 95.241, 127.417 96.723, 125 98.232 C 121.833 100.210, 122.634 100.794, 127.750 100.237 C 138.255 99.093, 139.620 96.618, 132.304 91.978 C 127.292 88.799, 125.511 88.364, 124.461 90.063 M 146.907 106.282 C 146.032 106.952, 144.749 109.219, 144.057 111.320 C 143.365 113.421, 142.140 115.393, 141.336 115.701 C 140.531 116.010, 137.539 115.507, 134.686 114.584 C 131.834 113.661, 125.900 112.640, 121.500 112.316 C 117.100 111.992, 112.997 111.333, 112.383 110.851 C 111.698 110.315, 110.791 110.547, 110.042 111.449 C 108.660 113.115, 108.925 119.183, 111.037 134.250 L 112.405 144 145.202 144 C 163.241 144, 178 143.810, 178 143.579 C 178 142.914, 168.131 126, 165.749 122.582 C 163.257 119.005, 149.941 104.985, 149.081 105.032 C 148.761 105.049, 147.783 105.612, 146.907 106.282" stroke="none" fill="black" fill-rule="evenodd"/>
</svg>