<svg xmlns="http://www.w3.org/2000/svg" width="192" height="144" viewBox="0 0 192 144" version="1.1">
	<path d="M 35.118 15.750 C 35.554 18.507, 34.785 21, 33.500 21 C 31.567 21, 31.555 22.615, 33.483 23.355 C 34.327 23.679, 34.712 24.587, 34.376 25.462 C 33.765 27.054, 35.098 27.568, 36.417 26.250 C 37.212 25.454, 37.757 25.324, 41.107 25.125 C 42.589 25.037, 43.035 24.534, 42.611 23.428 C 42.279 22.563, 42.504 20.927, 43.111 19.792 C 44.109 17.927, 43.986 17.787, 41.826 18.329 C 40.101 18.762, 39.095 18.382, 38.210 16.964 C 37.024 15.065, 34.877 14.222, 35.118 15.750 M 126.568 27.062 C 123.817 28.107, 119.615 30.924, 117.068 33.434 C 112.993 37.448, 112.467 38.482, 112.197 43.012 C 111.864 48.579, 112.662 52.327, 114.003 51.498 C 114.475 51.206, 115.131 51.402, 115.459 51.934 C 115.787 52.465, 115.115 53.404, 113.964 54.019 C 112.394 54.860, 111.996 55.808, 112.371 57.820 C 112.646 59.294, 113.155 62.655, 113.503 65.288 C 114.069 69.586, 114.435 70.137, 117.067 70.663 C 120.168 71.284, 121.130 73, 118.378 73 C 117.142 73, 117.018 73.317, 117.857 74.328 C 119.466 76.266, 117.629 81.718, 114.551 84.139 C 113.148 85.242, 112 86.865, 112 87.744 C 112 88.623, 111.272 90.147, 110.382 91.130 C 109.492 92.114, 108.468 94.365, 108.106 96.134 C 107.745 97.903, 106.940 99.520, 106.319 99.727 C 103.817 100.561, 100.625 83.672, 100.889 71 C 101.110 60.415, 103.746 37.577, 105.239 33.316 C 106.627 29.354, 105.041 27, 100.985 27 C 97.843 27, 96.809 28.752, 97.584 32.761 C 97.876 34.267, 97.167 42.925, 96.010 52 C 93.673 70.324, 92.308 78.001, 92.100 74 C 92.028 72.625, 91.572 70.872, 91.086 70.104 C 90.408 69.034, 89.800 69.487, 88.476 72.047 C 87.526 73.884, 85.906 76.888, 84.875 78.723 C 82.196 83.493, 82.533 86.095, 86.421 90.636 L 89.841 94.632 88.006 105.066 C 86.997 110.805, 85.646 117.525, 85.004 120 C 84.362 122.475, 83.595 125.750, 83.301 127.278 C 83.006 128.805, 81.981 130.475, 81.024 130.987 C 79.964 131.554, 79.050 133.615, 78.689 136.255 C 78.362 138.639, 77.800 141.358, 77.440 142.295 C 76.830 143.886, 79.801 144, 121.893 144 L 167 144 167.013 139.750 C 167.020 137.412, 166.043 127.870, 164.841 118.544 L 162.655 101.588 164.840 88.044 C 167.888 69.143, 167.430 54.651, 163.540 47 C 162.842 45.625, 161.320 42.373, 160.160 39.774 C 157.156 33.047, 151.972 29.633, 140.886 27.081 C 135.916 25.936, 131.770 25.043, 131.674 25.095 C 131.579 25.148, 129.280 26.033, 126.568 27.062" stroke="none" fill="black" fill-rule="evenodd"/>
</svg>