<svg xmlns="http://www.w3.org/2000/svg" width="192" height="144" viewBox="0 0 192 144" version="1.1">
	<path d="M 0 72 L 0 144 86 144 C 133.599 144, 172 143.614, 172 143.137 C 172 142.266, 182.916 137, 184.720 137 C 185.254 137, 186.505 136.100, 187.500 135 C 190.554 131.625, 191.862 132.518, 192.263 138.250 C 192.465 141.137, 192.713 111.213, 192.815 71.750 L 193 0 179.594 0 L 166.188 0 165.476 5.177 C 164.891 9.428, 165.065 10.575, 166.451 11.588 C 168.012 12.730, 167.995 12.867, 166.211 13.433 C 163.179 14.395, 161.570 28.299, 162.730 43.500 C 163.423 52.573, 163.324 57.086, 162.323 62 C 161.595 65.574, 161 72.578, 161 77.563 C 161 86.164, 161.140 86.756, 163.750 89.180 C 165.262 90.585, 168.648 92.968, 171.273 94.476 C 176.295 97.360, 178.519 100.204, 177.608 102.578 C 176.478 105.523, 172.548 104.046, 167.813 98.896 C 165.233 96.089, 162.574 93.975, 161.906 94.198 C 160.428 94.691, 158.023 102.367, 158.051 106.500 C 158.062 108.150, 158.714 110.625, 159.500 112 C 161.459 115.428, 161.353 115.895, 158.750 115.288 C 157.513 115, 155.150 113.316, 153.500 111.546 C 146.606 104.152, 137.578 100, 128.395 100 C 125.388 100, 123.331 99.308, 121.327 97.623 C 116.764 93.785, 106.938 89.071, 100.871 87.809 C 93.099 86.192, 84.408 88.596, 74.398 95.130 C 67.076 99.910, 61.832 101.927, 67.265 97.874 C 71.127 94.993, 72.323 92.472, 71 90 C 70.411 88.900, 69.469 88, 68.906 88 C 68.343 88, 68.160 88.450, 68.500 89 C 68.840 89.550, 68.859 90.420, 68.542 90.933 C 67.981 91.840, 61.571 85.941, 60.625 83.647 C 60.303 82.866, 59.822 82.976, 59.118 83.992 C 58.447 84.959, 57.766 85.135, 57.180 84.492 C 55.978 83.173, 53.891 75.539, 53.285 70.250 C 52.776 65.806, 52.185 65.215, 50.217 67.183 C 47.449 69.951, 48.082 66.678, 51.495 60.576 L 55.172 54 52.159 54 C 50.060 54, 48.491 53.165, 46.991 51.250 C 45.215 48.982, 43.843 48.412, 39.169 48 C 34.196 47.561, 33.538 47.254, 33.807 45.500 C 34.607 40.282, 41.328 38.726, 51.500 41.405 C 60.073 43.662, 65.992 40.174, 69.515 30.788 C 71.704 24.955, 79.566 16.291, 89 9.313 C 92.025 7.076, 95.591 4.065, 96.924 2.623 L 99.349 0 49.674 0 L 0 0 0 72 M 0.474 72.500 C 0.474 112.100, 0.598 128.154, 0.750 108.176 C 0.901 88.198, 0.901 55.798, 0.750 36.176 C 0.598 16.554, 0.474 32.900, 0.474 72.500" stroke="none" fill="black" fill-rule="evenodd"/>
</svg>