<svg xmlns="http://www.w3.org/2000/svg" width="192" height="144" viewBox="0 0 192 144" version="1.1">
	<path d="M 118.265 7.491 C 117.558 8.754, 116.485 9.135, 114.631 8.780 C 111.905 8.259, 111.100 9.700, 113.037 11.637 C 113.744 12.344, 113.752 13.521, 113.062 15.337 C 112.230 17.524, 112.332 18, 113.628 18 C 114.496 18, 111.942 20.523, 107.951 23.606 C 101.695 28.440, 100.247 29.140, 97.444 28.685 C 94.777 28.252, 94.097 28.520, 93.663 30.179 C 93.373 31.291, 92.654 31.904, 92.067 31.542 C 89.858 30.176, 91.123 34.346, 94.430 39.331 L 97.860 44.500 95.836 50.495 C 93.048 58.747, 93.938 69.768, 97.718 73.795 L 100.256 76.500 99.523 74 L 98.791 71.500 100.832 73.500 C 101.955 74.600, 103.014 76.089, 103.187 76.808 C 103.487 78.064, 98.444 80.499, 93 81.727 C 91.625 82.037, 89.612 82.901, 88.527 83.646 C 87.443 84.390, 85.773 85, 84.816 85 C 83.860 85, 82.197 85.946, 81.120 87.102 C 78.940 89.441, 73.951 92.284, 73.252 91.585 C 73.004 91.337, 73.266 89.641, 73.836 87.817 C 74.405 85.993, 74.646 82.475, 74.372 80 C 73.306 70.397, 74.134 65, 76.674 65 C 78.105 65, 78.071 64.732, 76.405 62.864 L 74.500 60.728 77.750 61.191 C 81.535 61.730, 81.754 61.186, 78.961 58.189 C 73.671 52.510, 65 59.249, 65 69.039 C 65 71.864, 64.423 73.148, 62.622 74.328 C 59.616 76.298, 58.780 80.534, 58.786 93.772 C 58.792 104.746, 59.376 106.376, 63.691 107.459 C 66.224 108.094, 76.276 105.404, 82.130 102.525 C 83.576 101.813, 85.860 101.442, 87.205 101.699 C 89.490 102.136, 89.624 102.506, 89.249 107.333 C 89.013 110.365, 89.649 115.891, 90.786 120.705 L 92.724 128.910 90.518 130.983 C 89.301 132.127, 87.627 132.794, 86.787 132.472 C 85.796 132.091, 85.075 132.606, 84.725 133.943 C 84.265 135.704, 83.347 136.017, 78.344 136.118 C 75.130 136.184, 72.132 136.174, 71.683 136.096 C 71.234 136.019, 68.084 135.695, 64.683 135.376 C 61.282 135.057, 50.742 132.352, 41.261 129.365 C 25.764 124.482, 23.958 123.681, 23.396 121.440 C 22.408 117.505, 19.909 116.813, 9.459 117.580 L 0 118.274 0 131.137 L 0 144 64.475 144 L 128.950 144 127.975 141.435 C 126.717 138.125, 126.733 138, 128.427 138 C 130.439 138, 133.818 133.401, 134.952 129.119 C 135.480 127.129, 135.995 122.074, 136.098 117.886 C 136.242 112.027, 136.795 109.427, 138.501 106.600 C 140.287 103.641, 140.576 102.148, 139.985 98.918 C 139.374 95.577, 139.658 94.309, 141.689 91.317 C 143.029 89.342, 143.760 87.389, 143.313 86.978 C 142.866 86.567, 138.816 84.327, 134.313 82 C 125.670 77.534, 123.063 74.912, 127.810 75.460 C 129.290 75.631, 131.287 75.078, 132.250 74.230 C 133.213 73.383, 134 73.017, 134 73.416 C 134 73.816, 134.663 73.480, 135.474 72.669 C 139.097 69.045, 139.523 58.567, 136.405 49.731 C 135.116 46.076, 135.195 45.735, 138.533 40.516 C 140.440 37.535, 142 34.893, 142 34.646 C 142 34.398, 140.650 33.725, 139 33.150 C 137.350 32.575, 136 31.652, 136 31.099 C 136 30.546, 134.443 29.355, 132.540 28.452 C 128.940 26.744, 120.416 18.251, 121.357 17.310 C 122.141 16.526, 128.761 20.820, 130.421 23.190 C 132.142 25.647, 133.458 24.995, 134.853 20.993 C 136.028 17.622, 135.931 17.525, 126.546 12.626 C 123.821 11.204, 121.069 9.064, 120.430 7.869 C 119.343 5.839, 119.203 5.814, 118.265 7.491" stroke="none" fill="black" fill-rule="evenodd"/>
</svg>