<svg xmlns="http://www.w3.org/2000/svg" width="192" height="144" viewBox="0 0 192 144" version="1.1">
	<path d="M 0 8.583 C 0 15.063, 0.306 17.038, 1.250 16.643 C 6.817 14.311, 13.950 12.975, 22 12.757 L 31.500 12.500 32 7.133 C 32.473 2.053, 32.588 1.866, 34.136 3.633 C 35.035 4.660, 37.470 8.200, 39.545 11.500 C 41.621 14.800, 44.431 18.842, 45.791 20.483 C 47.150 22.123, 49.716 26.656, 51.493 30.554 C 54.999 38.246, 56.555 39.388, 64.833 40.336 C 70.124 40.942, 70.294 41.096, 69.106 44.221 C 68.478 45.872, 67.120 46.926, 65.099 47.330 C 62.234 47.903, 62.048 48.212, 62.163 52.221 C 62.231 54.574, 61.787 57.727, 61.176 59.228 C 59.965 62.206, 55.534 66.499, 53.670 66.501 C 52.282 66.502, 52.662 78.479, 54.138 81.250 C 55.198 83.240, 53.994 83.594, 52.217 81.817 C 50.423 80.023, 49.490 81.692, 49.594 86.502 L 49.688 90.836 45.113 90.531 C 40.337 90.211, 36 91.313, 36 92.845 C 36 93.337, 38.813 94.275, 42.250 94.930 C 57.727 97.876, 63.546 100.433, 61.202 103.257 C 59.706 105.060, 66.781 115.498, 69.500 115.499 C 70.926 115.500, 71.543 116.218, 71.651 118 C 71.735 119.375, 71.847 121.008, 71.901 121.629 C 71.956 122.249, 73.387 123.332, 75.082 124.034 C 77.883 125.194, 78.107 125.616, 77.537 128.655 C 77.150 130.715, 77.311 132, 77.955 132 C 78.530 132, 79 131.550, 79 131 C 79 130.450, 81.448 130, 84.441 130 C 87.434 130, 90.190 129.502, 90.567 128.892 C 90.986 128.213, 92.711 128.018, 95.021 128.387 C 100.775 129.307, 108.231 128.045, 107.549 126.267 C 107.243 125.471, 107.265 124.381, 107.596 123.845 C 108.482 122.411, 112 125.952, 112 128.277 C 112 129.735, 112.324 129.978, 113.250 129.212 C 114.120 128.494, 115.710 128.597, 118.479 129.551 C 120.668 130.305, 123.820 130.871, 125.483 130.808 C 127.147 130.746, 129.912 131.420, 131.627 132.307 C 133.343 133.194, 134.985 133.682, 135.277 133.390 C 135.568 133.099, 137.735 133.791, 140.091 134.930 C 142.448 136.068, 145.165 137, 146.129 137 C 147.093 137, 148.138 137.414, 148.450 137.920 C 148.763 138.426, 151.096 140.001, 153.635 141.420 C 158.089 143.909, 158.847 144, 175.126 144 L 192 144 192 84.157 C 192 51.243, 192.294 18.843, 192.654 12.157 L 193.307 0 96.654 0 L 0 0 0 8.583 M 0.349 9 C 0.349 13.675, 0.522 15.587, 0.732 13.250 C 0.943 10.912, 0.943 7.087, 0.732 4.750 C 0.522 2.412, 0.349 4.325, 0.349 9 M 107.777 44.170 C 107.145 46.065, 108.590 52.990, 109.888 54.288 C 110.723 55.123, 111.432 54.997, 112.630 53.798 C 114.062 52.367, 114.090 51.687, 112.873 47.850 C 111.533 43.620, 108.653 41.541, 107.777 44.170" stroke="none" fill="black" fill-rule="evenodd"/>
</svg>