<svg xmlns="http://www.w3.org/2000/svg" width="192" height="144" viewBox="0 0 192 144" version="1.1">
	<path d="M 0 72 L 0 144 11.445 144 L 22.890 144 27.445 138.408 C 30.978 134.071, 32.005 131.996, 32.024 129.158 C 32.059 123.654, 35.784 110.705, 37.822 109 C 40.106 107.089, 42.106 102.439, 41.416 100.641 C 41.124 99.880, 41.625 98.518, 42.529 97.614 C 44.054 96.089, 43.905 95.858, 40.460 94.419 C 36.823 92.899, 36.689 92.924, 33.874 95.621 C 30.696 98.665, 29.908 97.832, 32.875 94.564 C 35.821 91.320, 39.461 77.914, 40.198 67.586 C 40.460 63.928, 40.249 63.588, 36.989 62.412 C 35.070 61.719, 32.237 61.118, 30.693 61.076 C 28.018 61.004, 27.900 60.799, 28.193 56.750 C 28.465 52.982, 28.784 52.494, 31 52.447 C 32.375 52.418, 34.643 51.826, 36.040 51.132 C 38.409 49.955, 38.580 49.385, 38.572 42.685 C 38.553 26.217, 48.343 16, 64.140 16 L 69.548 16 73.939 9.971 C 76.353 6.656, 78.817 4.089, 79.414 4.267 C 80.011 4.446, 82.006 7.496, 83.847 11.046 C 86.121 15.430, 88.732 18.680, 91.990 21.181 C 98.747 26.368, 102.135 33.537, 101.898 42.147 C 101.755 47.357, 102.186 49.427, 104.108 52.767 C 106.458 56.849, 106.465 56.940, 104.551 58.339 C 102.648 59.730, 102.691 59.995, 106.441 70.131 C 108.552 75.834, 111.546 83.126, 113.095 86.336 L 115.912 92.172 113.324 90.476 C 110.856 88.859, 110.557 88.881, 106.903 90.934 C 103.417 92.894, 102.819 92.958, 100.279 91.644 C 96.116 89.491, 90.877 88.981, 87.500 90.399 L 84.500 91.659 92.669 94.384 C 97.161 95.884, 101.886 98.146, 103.169 99.413 C 105.113 101.334, 106.910 101.808, 114 102.271 C 129.363 103.274, 142.378 109.057, 153.523 119.835 C 159.529 125.642, 165.910 134.455, 168.368 140.339 L 169.926 144.066 181.213 143.783 L 192.500 143.500 192.757 71.750 L 193.013 0 96.507 0 L 0 0 0 72 M 0.474 72.500 C 0.474 112.100, 0.598 128.154, 0.750 108.176 C 0.901 88.198, 0.901 55.798, 0.750 36.176 C 0.598 16.554, 0.474 32.900, 0.474 72.500 M 126.611 51.821 C 126.273 52.368, 126.374 53.836, 126.835 55.084 L 127.675 57.353 128.305 54.944 C 128.961 52.435, 127.685 50.083, 126.611 51.821 M 18 113 C 18 113.550, 18.450 114, 19 114 C 19.550 114, 20 113.550, 20 113 C 20 112.450, 19.550 112, 19 112 C 18.450 112, 18 112.450, 18 113" stroke="none" fill="black" fill-rule="evenodd"/>
</svg>