<svg xmlns="http://www.w3.org/2000/svg" width="192" height="144" viewBox="0 0 192 144" version="1.1">
	<path d="M 0 72 L 0 144 21.474 144 L 42.949 144 44.559 140.885 C 46.307 137.505, 56.440 124.584, 61.660 119.078 C 63.444 117.197, 66.351 112.922, 68.119 109.578 C 69.887 106.235, 71.601 103.275, 71.928 103 C 73.227 101.909, 81.305 84.454, 83.505 77.986 L 85.842 71.115 82.696 70.807 C 80.214 70.565, 79.073 69.655, 77.291 66.500 C 74.368 61.322, 74.421 57.386, 77.516 49.768 C 80.687 41.964, 83.644 38.882, 91.220 35.482 C 105.821 28.929, 116.531 29.753, 127.575 38.279 C 137.820 46.189, 140.524 54.889, 137.589 70.500 C 134.025 89.451, 132.641 95.537, 131.764 96.111 C 130.834 96.720, 135.550 102.316, 146.002 113.008 C 149.029 116.104, 155.883 121.884, 161.233 125.853 C 166.584 129.822, 173.645 135.555, 176.926 138.592 C 182.638 143.880, 183.094 144.101, 187.695 143.807 L 192.500 143.500 192.757 71.750 L 193.013 0 96.507 0 L 0 0 0 72 M 0.474 72.500 C 0.474 112.100, 0.598 128.154, 0.750 108.176 C 0.901 88.198, 0.901 55.798, 0.750 36.176 C 0.598 16.554, 0.474 32.900, 0.474 72.500 M 87.449 85.793 C 83.899 92.790, 83.908 93.581, 87.492 89.765 C 90.920 86.115, 91.843 83.639, 90.165 82.602 C 89.705 82.318, 88.483 83.754, 87.449 85.793 M 72.322 123.710 C 68.451 128.428, 62.411 137.347, 60.107 141.750 C 59.130 143.618, 59.191 144, 60.465 144 C 61.309 144, 62 143.564, 62 143.031 C 62 142.498, 65.412 137.059, 69.581 130.946 C 77.579 119.219, 78.927 115.662, 72.322 123.710 M 72.615 128.814 C 70.854 131.663, 65 142.867, 65 143.388 C 65 143.725, 65.787 144, 66.750 143.999 C 68.036 143.999, 69.208 141.945, 71.171 136.254 C 73.594 129.227, 74.159 126.315, 72.615 128.814 M 127 141 C 127 143.889, 127.167 144, 131.500 144 C 133.975 144, 136 143.791, 136 143.536 C 136 142.897, 128.718 138, 127.768 138 C 127.346 138, 127 139.350, 127 141 M 76 142 C 75.100 143.681, 75.240 144, 76.871 144 C 78.320 144, 78.680 143.493, 78.290 142 C 78.002 140.900, 77.610 140, 77.419 140 C 77.227 140, 76.589 140.900, 76 142" stroke="none" fill="black" fill-rule="evenodd"/>
</svg>