<svg xmlns="http://www.w3.org/2000/svg" width="192" height="144" viewBox="0 0 192 144" version="1.1">
	<path d="M 0 72 L 0 144 20.500 144 C 39.054 144, 44.018 143.372, 39.418 141.607 C 38.548 141.273, 36.636 140.997, 35.168 140.993 C 33.701 140.990, 31.150 140.093, 29.500 139 C 27.504 137.678, 24.807 137.011, 21.438 137.007 C 16.693 137, 8.894 134.256, 7.581 132.131 C 7.280 131.644, 8.098 128.153, 9.399 124.373 C 11.667 117.777, 11.999 117.370, 17.631 114.274 C 20.859 112.499, 25.525 110.278, 28 109.338 C 34.456 106.886, 41.761 102.046, 47.333 96.529 C 51.282 92.618, 52.018 91.355, 51.359 89.622 C 50.914 88.455, 50.612 83.561, 50.686 78.747 C 50.818 70.241, 50.753 69.976, 48.371 69.378 C 46.793 68.982, 45.282 69.340, 44.131 70.381 C 41.893 72.407, 39.727 72.427, 35.921 70.459 C 34.282 69.612, 32.545 69.163, 32.062 69.462 C 30.319 70.539, 26.204 64.117, 25.539 59.283 C 23.519 44.598, 32.683 25.417, 46.367 15.683 C 48.140 14.422, 48.151 14.181, 46.572 10.928 L 44.908 7.500 47.266 10.281 L 49.624 13.061 55.062 10.573 C 68.098 4.608, 80.242 3.782, 92.651 8.017 C 101.251 10.953, 105.981 15.276, 106.720 20.877 C 107.173 24.314, 106.943 25.452, 105.649 26.177 C 104.659 26.730, 103.994 28.379, 103.985 30.300 C 103.965 34.424, 102.898 36.022, 98.880 37.940 C 96.679 38.991, 95.357 40.497, 94.828 42.555 C 93.774 46.660, 90.268 49.760, 84.930 51.305 C 78.125 53.276, 77.636 56.143, 82.835 63.599 C 89.330 72.915, 91.989 75.842, 91.995 73.684 C 91.998 72.686, 91.549 71.025, 90.997 69.995 C 90.368 68.818, 90.349 67.902, 90.947 67.533 C 93.625 65.878, 95.103 75.840, 92.500 78 C 91.675 78.685, 90.998 78.852, 90.995 78.372 C 90.992 77.893, 89.980 78.734, 88.745 80.241 C 87.300 82.007, 84.363 83.629, 80.500 84.797 C 74.767 86.530, 74.516 86.742, 74.868 89.555 C 75.071 91.175, 75.385 98.575, 75.567 106 C 75.748 113.425, 76.207 125.012, 76.586 131.750 L 77.275 144 86.937 144 C 93.299 144, 97.024 143.576, 97.842 142.758 C 98.830 141.770, 99.241 141.772, 99.857 142.769 C 100.462 143.748, 110.633 143.964, 146.565 143.760 L 192.500 143.500 192.757 71.750 L 193.013 0 96.507 0 L 0 0 0 72 M 0.474 72.500 C 0.474 112.100, 0.598 128.154, 0.750 108.176 C 0.901 88.198, 0.901 55.798, 0.750 36.176 C 0.598 16.554, 0.474 32.900, 0.474 72.500 M 105.813 12.683 C 106.534 12.972, 107.397 12.936, 107.729 12.604 C 108.061 12.272, 107.471 12.036, 106.417 12.079 C 105.252 12.127, 105.015 12.364, 105.813 12.683 M 142.020 21.524 C 142.716 22.362, 143.491 22.842, 143.743 22.591 C 144.436 21.897, 143.027 20, 141.819 20 C 141.155 20, 141.231 20.574, 142.020 21.524 M 122.750 45.662 C 123.438 45.940, 124.563 45.940, 125.250 45.662 C 125.938 45.385, 125.375 45.158, 124 45.158 C 122.625 45.158, 122.063 45.385, 122.750 45.662 M 74.519 60.610 C 72.880 61.808, 72.753 62.347, 73.774 63.777 C 76.367 67.408, 77.192 70.438, 76.077 72.236 C 73.292 76.728, 75.449 78.707, 80.502 76.298 C 83.922 74.667, 84.101 74.351, 83.486 71.031 C 82.818 67.424, 79.962 62.043, 77.735 60.195 C 76.866 59.474, 75.903 59.598, 74.519 60.610 M 162.813 71.683 C 163.534 71.972, 164.397 71.936, 164.729 71.604 C 165.061 71.272, 164.471 71.036, 163.417 71.079 C 162.252 71.127, 162.015 71.364, 162.813 71.683 M 56.500 83 C 56.840 83.550, 57.316 84, 57.559 84 C 57.802 84, 58 83.550, 58 83 C 58 82.450, 57.523 82, 56.941 82 C 56.359 82, 56.160 82.450, 56.500 83 M 103.872 84.664 C 102.628 86.172, 102.710 86.216, 104.750 85.129 C 107.077 83.889, 107.650 83, 106.122 83 C 105.640 83, 104.627 83.749, 103.872 84.664 M 12 93 C 12 95.036, 15.851 97.852, 17.902 97.315 C 19.510 96.895, 19.748 96.397, 19.004 95.007 C 17.569 92.326, 12 90.730, 12 93 M 134 135 C 134 135.550, 134.477 136, 135.059 136 C 135.641 136, 135.840 135.550, 135.500 135 C 135.160 134.450, 134.684 134, 134.441 134 C 134.198 134, 134 134.450, 134 135 M 124.154 139.438 C 124.345 140.355, 124.950 141.082, 125.500 141.053 C 126.984 140.974, 126.712 138.737, 125.154 138.218 C 124.313 137.938, 123.939 138.395, 124.154 139.438" stroke="none" fill="black" fill-rule="evenodd"/>
</svg>