<svg xmlns="http://www.w3.org/2000/svg" width="192" height="144" viewBox="0 0 192 144" version="1.1">
	<path d="M 94.584 2.250 C 101.104 22.651, 101.463 48.098, 95.561 71.500 C 89.580 95.218, 89.867 112.888, 96.700 141.750 L 97.233 144 144.617 144 L 192 144 192 72 L 192 0 142.933 0 L 93.865 0 94.584 2.250 M 30.450 55.407 C 24.102 58.172, 19.247 66.975, 20.344 73.735 C 21.610 81.536, 29.128 88, 36.936 88 C 43.958 88, 49.436 83.987, 52.533 76.575 C 57.805 63.959, 43.124 49.886, 30.450 55.407 M 148.778 59.145 C 138.958 64.992, 139.934 79.429, 150.464 84.087 C 154.092 85.692, 155.640 85.867, 159.187 85.073 C 164.423 83.901, 169.588 78.716, 170.532 73.683 C 171.362 69.258, 168.252 61.867, 164.537 59.432 C 160.299 56.655, 153.178 56.525, 148.778 59.145" stroke="none" fill="black" fill-rule="evenodd"/>
</svg>