<svg xmlns="http://www.w3.org/2000/svg" width="192" height="144" viewBox="0 0 192 144" version="1.1">
	<path d="M 0 72 L 0 144 39.981 144 L 79.962 144 80.484 141.750 C 80.771 140.512, 81.386 134.775, 81.851 129 C 82.556 120.243, 82.438 118.047, 81.144 115.769 C 79.736 113.292, 79.742 112.594, 81.213 108.269 C 83.521 101.478, 84.214 92.737, 82.868 87.390 C 81.973 83.834, 82.006 81.267, 83.018 75.905 C 83.734 72.107, 84.699 69, 85.160 69 C 85.622 69, 85.982 67.763, 85.961 66.250 C 85.932 64.174, 84.829 62.696, 81.461 60.218 C 77.466 57.279, 77 56.518, 77 52.923 C 77 48.300, 79.838 44.801, 85.510 42.432 C 92.172 39.648, 98.630 44.505, 101.317 54.321 C 103.383 61.868, 106.844 81.476, 107.438 89 C 108.339 100.422, 109.362 122.382, 109.160 125.979 C 109.053 127.892, 109.694 132.734, 110.586 136.740 L 112.206 144.023 152.353 143.761 L 192.500 143.500 192.519 71.500 C 192.530 31.900, 192.410 12.710, 192.254 28.855 L 191.969 58.209 189.361 57.554 C 183.806 56.160, 174.268 50.673, 169.250 45.984 C 166.363 43.286, 164 40.806, 164 40.473 C 164 40.139, 162.924 38.434, 161.610 36.683 C 157.364 31.029, 153.826 19.417, 153.251 9.250 L 152.727 0 76.364 0 L 0 0 0 72 M 0.474 72.500 C 0.474 112.100, 0.598 128.154, 0.750 108.176 C 0.901 88.198, 0.901 55.798, 0.750 36.176 C 0.598 16.554, 0.474 32.900, 0.474 72.500" stroke="none" fill="black" fill-rule="evenodd"/>
</svg>