<svg xmlns="http://www.w3.org/2000/svg" width="192" height="144" viewBox="0 0 192 144" version="1.1">
	<path d="M 0 72 L 0 144 37.961 144 L 75.923 144 77.012 139.750 C 77.611 137.412, 78.939 132.941, 79.964 129.813 C 81.176 126.110, 81.632 122.679, 81.270 119.980 C 80.904 117.246, 81.643 111.860, 83.441 104.167 C 87.586 86.426, 88.051 83.731, 87.480 80.728 C 87.190 79.204, 87.429 77.066, 88.012 75.978 C 89.306 73.559, 88.297 73.421, 85.805 75.676 C 84.424 76.926, 83.664 77.064, 82.819 76.219 C 81.048 74.448, 83.419 72.349, 88.019 71.613 C 90.208 71.263, 92 70.584, 92 70.105 C 92 68.531, 96.412 68.040, 98.478 69.383 C 99.590 70.107, 102.211 71.016, 104.303 71.404 C 108.106 72.110, 109.774 73.938, 108.500 76.001 C 108.014 76.787, 107.423 76.766, 106.411 75.926 C 105.265 74.975, 105 75.191, 105 77.076 C 105 82.921, 107.523 97.331, 110.002 105.652 C 112.387 113.653, 112.609 115.504, 111.772 120.365 C 111.026 124.694, 111.154 126.984, 112.352 130.712 C 113.198 133.346, 114.383 137.418, 114.987 139.762 L 116.083 144.024 154.292 143.762 L 192.500 143.500 192.757 71.750 L 193.013 0 96.507 0 L 0 0 0 72 M 0.474 72.500 C 0.474 112.100, 0.598 128.154, 0.750 108.176 C 0.901 88.198, 0.901 55.798, 0.750 36.176 C 0.598 16.554, 0.474 32.900, 0.474 72.500" stroke="none" fill="black" fill-rule="evenodd"/>
</svg>