<svg xmlns="http://www.w3.org/2000/svg" width="192" height="144" viewBox="0 0 192 144" version="1.1">
	<path d="M 0 72 L 0 144 9.383 144 C 18.269 144, 18.799 143.881, 19.370 141.750 C 20.391 137.938, 20.082 129, 18.929 129 C 17.652 129, 15 126.498, 15 125.292 C 15 124.824, 16.506 122.880, 18.347 120.971 C 20.740 118.490, 21.859 116.247, 22.271 113.106 C 22.589 110.689, 23.350 108.402, 23.963 108.023 C 25.219 107.247, 23.876 102.659, 22.065 101.540 C 21.340 101.092, 21.423 100.039, 22.327 98.193 C 23.053 96.712, 23.471 94.725, 23.255 93.777 C 23.040 92.829, 24.033 89.447, 25.463 86.262 C 27.346 82.065, 29.225 79.677, 32.281 77.593 L 36.500 74.716 36.500 66.439 C 36.500 59.054, 36.762 57.883, 38.924 55.581 C 40.258 54.161, 41.787 53, 42.323 53 C 42.859 53, 45.769 50.965, 48.790 48.478 C 52.993 45.018, 55.013 44.004, 57.391 44.158 C 59.101 44.268, 61.625 43.750, 63 43.006 C 64.375 42.262, 66.850 41.373, 68.500 41.030 C 71.371 40.435, 71.486 40.211, 71.171 35.829 C 70.887 31.893, 71.273 30.759, 73.921 27.743 C 75.614 25.814, 77 23.794, 77 23.253 C 77 22.712, 77.972 21.034, 79.161 19.523 C 81.076 17.088, 81.820 16.832, 85.712 17.271 C 88.128 17.543, 91.703 17.405, 93.658 16.964 C 98.091 15.965, 105.494 18.830, 106.476 21.925 C 107.109 23.919, 108.090 24.417, 110.722 24.081 C 111.393 23.995, 112.191 25.180, 112.495 26.713 C 113.668 32.640, 114.882 38.615, 115.448 41.250 C 115.772 42.763, 116.705 44, 117.519 44 C 119.075 44, 119.477 45.190, 118.313 46.354 C 117.935 46.732, 117.547 47.819, 117.450 48.770 C 117.353 49.722, 117.100 51.175, 116.887 52 C 116.491 53.535, 117.224 53.645, 120.177 52.495 C 121.537 51.965, 121.741 52.282, 121.254 54.171 C 120.701 56.315, 120.806 56.389, 122.577 55.100 C 123.634 54.330, 121.912 56.055, 118.750 58.933 C 113.307 63.887, 111.547 67, 114.190 67 C 114.844 67, 117.488 64.718, 120.065 61.930 C 122.642 59.141, 125.479 56.753, 126.370 56.622 C 128.881 56.253, 133.796 51.079, 137.646 44.750 C 139.571 41.587, 141.323 39, 141.541 39 C 142.145 39, 140.832 42.258, 139.334 44.473 C 137.101 47.774, 137.823 48.302, 141.557 46.099 C 143.514 44.944, 145.426 44.002, 145.807 44.005 C 146.812 44.012, 140.670 48.921, 139.603 48.964 C 137.611 49.044, 129.901 56.299, 130.407 57.618 C 130.716 58.422, 130.299 59, 129.410 59 C 128.569 59, 128.129 59.399, 128.430 59.887 C 128.731 60.374, 128.243 61.383, 127.345 62.129 C 125.887 63.339, 125.794 63.217, 126.480 60.992 L 127.248 58.500 124.668 60.883 C 123.248 62.194, 120.912 64.963, 119.475 67.037 C 117.245 70.254, 117.045 71.099, 118.108 72.801 C 119.131 74.439, 119.761 74.610, 121.628 73.760 C 122.878 73.190, 124.178 71.467, 124.515 69.931 C 124.853 68.395, 125.859 66.545, 126.752 65.819 C 128.468 64.424, 128.493 64.225, 126.217 70 C 125.747 71.191, 125.921 71.262, 127.063 70.345 C 127.853 69.710, 130.750 68.453, 133.500 67.552 C 139.959 65.436, 142.782 63.186, 143.401 59.663 C 143.928 56.664, 145.933 53.599, 146.800 54.467 C 147.084 54.751, 147.807 54.606, 148.408 54.147 C 149.009 53.687, 150.282 53.032, 151.238 52.691 C 152.594 52.208, 152.904 52.548, 152.647 54.233 C 152.465 55.422, 151.733 56.589, 151.019 56.827 C 150.187 57.104, 150 56.808, 150.500 56 C 151.012 55.172, 150.804 54.899, 149.893 55.202 C 149.132 55.456, 148.463 56.302, 148.407 57.082 C 148.350 57.862, 148.236 59.288, 148.152 60.250 C 148.069 61.212, 147.382 62, 146.626 62 C 145.870 62, 143.550 63.558, 141.471 65.463 C 139.391 67.368, 137.284 68.675, 136.787 68.368 C 136.291 68.062, 134.120 68.978, 131.964 70.405 C 129.807 71.832, 127.623 73, 127.110 73 C 126.597 73, 125.052 74.338, 123.676 75.974 C 118.650 81.947, 123.315 84.889, 131.252 80.751 C 133.361 79.652, 136.852 78.667, 139.009 78.563 C 141.166 78.458, 143.734 77.667, 144.715 76.805 C 145.697 75.942, 147.472 74.941, 148.660 74.580 C 149.848 74.218, 151.365 73.265, 152.032 72.461 C 152.699 71.658, 154.202 71.036, 155.372 71.079 C 156.543 71.122, 156.938 71.385, 156.250 71.662 C 155.562 71.940, 155 72.768, 155 73.504 C 155 74.239, 153.538 75.135, 151.750 75.495 C 146.236 76.605, 145 77.096, 145 78.179 C 145 79.139, 148.937 78.794, 153.821 77.405 C 154.744 77.143, 154.037 77.701, 152.250 78.645 C 150.462 79.590, 149 80.922, 149 81.605 C 149 82.288, 147.875 84.184, 146.500 85.818 C 142.649 90.394, 143.738 93.335, 147.711 89.088 C 148.695 88.037, 151.223 86.855, 153.330 86.462 C 155.436 86.069, 157.411 85.092, 157.719 84.290 C 158.177 83.095, 158.437 83.073, 159.158 84.166 C 159.857 85.225, 160.351 85.089, 161.558 83.505 C 162.395 82.408, 162.988 80.608, 162.876 79.505 C 162.764 78.402, 163.269 76.263, 163.997 74.750 C 165.053 72.557, 165.075 71.460, 164.105 69.332 C 163.024 66.958, 163.061 66.806, 164.445 67.954 C 165.769 69.053, 166 68.929, 166 67.122 C 166 65.955, 166.450 65, 167 65 C 168.246 65, 168.265 66.588, 167.070 70.757 C 166.105 74.122, 166.734 74.866, 168.800 72.800 C 169.460 72.140, 170 71.963, 170 72.406 C 170 72.849, 168.875 74.097, 167.500 75.179 C 165.140 77.035, 164.013 81, 165.845 81 C 167.140 81, 169.998 77.520, 170.015 75.921 C 170.028 74.724, 170.177 74.731, 170.958 75.966 C 171.703 77.143, 172.718 76.504, 176.122 72.716 C 178.453 70.122, 180.799 68, 181.335 68 C 181.871 68, 181.565 68.823, 180.655 69.829 C 178.072 72.683, 178.668 72.913, 183.042 70.749 C 185.264 69.650, 187.321 68.987, 187.611 69.277 C 188.158 69.825, 185.034 72.446, 176.500 78.598 C 171.489 82.211, 171.587 82.281, 179 80.372 C 182.940 79.357, 180.121 81.668, 176 82.832 C 174.075 83.375, 173.287 83.860, 174.250 83.910 C 175.213 83.959, 176 84.354, 176 84.786 C 176 85.218, 175.213 85.623, 174.250 85.687 C 166.075 86.226, 148.846 94.354, 142.922 100.468 C 140.495 102.972, 137.607 105.293, 136.505 105.625 C 135.402 105.956, 132.998 107.138, 131.161 108.250 C 128.667 109.761, 128.161 110.487, 129.161 111.121 C 130.125 111.732, 129.870 111.974, 128.250 111.985 C 125.756 112.002, 125.156 114.756, 127.200 116.800 C 127.867 117.467, 127.956 118, 127.400 118 C 126.850 118, 125.868 117.468, 125.217 116.817 C 123.194 114.794, 122.485 116.919, 122.877 123.838 C 123.084 127.502, 123.309 133.544, 123.377 137.263 L 123.500 144.027 158 143.763 L 192.500 143.500 192.757 71.750 L 193.013 0 176.590 -0 C 164.387 -0, 160.037 0.321, 159.662 1.250 C 159.259 2.250, 159.142 2.250, 159.079 1.250 C 159.016 0.261, 142.391 0, 79.500 0 L 0 0 0 72 M 0.474 72.500 C 0.474 112.100, 0.598 128.154, 0.750 108.176 C 0.901 88.198, 0.901 55.798, 0.750 36.176 C 0.598 16.554, 0.474 32.900, 0.474 72.500 M 54 6.059 C 54 6.641, 54.450 6.840, 55 6.500 C 55.550 6.160, 56 5.684, 56 5.441 C 56 5.198, 55.550 5, 55 5 C 54.450 5, 54 5.477, 54 6.059 M 50.500 12 C 50.840 12.550, 51.316 13, 51.559 13 C 51.802 13, 52 12.550, 52 12 C 52 11.450, 51.523 11, 50.941 11 C 50.359 11, 50.160 11.450, 50.500 12 M 171 19.941 C 171 20.459, 171.450 21.160, 172 21.500 C 172.550 21.840, 173 21.416, 173 20.559 C 173 19.702, 172.550 19, 172 19 C 171.450 19, 171 19.423, 171 19.941 M 182.543 20.931 C 182.226 21.443, 182.425 22.144, 182.984 22.490 C 183.543 22.835, 184 22.416, 184 21.559 C 184 19.802, 183.400 19.544, 182.543 20.931 M 62 28 C 62 28.550, 62.423 29, 62.941 29 C 63.459 29, 64.160 28.550, 64.500 28 C 64.840 27.450, 64.416 27, 63.559 27 C 62.702 27, 62 27.450, 62 28 M 121.100 41.295 C 119.835 43.402, 119.857 43.423, 121.579 41.774 C 122.570 40.824, 123.166 39.832, 122.903 39.569 C 122.640 39.306, 121.829 40.083, 121.100 41.295 M 153.813 44.683 C 154.534 44.972, 155.397 44.936, 155.729 44.604 C 156.061 44.272, 155.471 44.036, 154.417 44.079 C 153.252 44.127, 153.015 44.364, 153.813 44.683 M 149.459 46.067 C 148.383 47.808, 149.608 48.177, 150.980 46.524 C 151.769 45.574, 151.845 45, 151.181 45 C 150.597 45, 149.821 45.480, 149.459 46.067 M 141.655 67.750 C 141.400 68.162, 142.274 68.565, 143.596 68.644 C 144.918 68.724, 146 68.386, 146 67.894 C 146 66.814, 142.309 66.691, 141.655 67.750 M 141.775 80.558 C 141.465 80.869, 139.375 81.148, 137.130 81.179 C 134.886 81.210, 132.533 81.857, 131.902 82.618 C 130.977 83.733, 131.250 84, 133.319 84 C 134.728 84, 136.165 83.543, 136.510 82.984 C 136.856 82.425, 137.596 82.251, 138.156 82.597 C 140.081 83.786, 137.460 84.933, 131.736 85.406 C 128.583 85.666, 125.553 86.158, 125.002 86.499 C 123.365 87.511, 123.862 93.608, 125.775 95.970 C 127.349 97.914, 127.856 98.023, 130.256 96.929 C 132.412 95.947, 132.842 95.219, 132.373 93.348 C 132.020 91.942, 132.228 91, 132.892 91 C 133.501 91, 134 91.900, 134 93 C 134 94.100, 134.338 94.998, 134.750 94.996 C 136.329 94.988, 142.096 90.914, 142.679 89.394 C 143.015 88.518, 144.350 86.741, 145.645 85.446 C 146.940 84.151, 148 82.491, 148 81.758 C 148 80.442, 142.879 79.454, 141.775 80.558 M 167 85 C 166.175 85.533, 165.950 85.969, 166.500 85.969 C 167.050 85.969, 168.175 85.533, 169 85 C 169.825 84.467, 170.050 84.031, 169.500 84.031 C 168.950 84.031, 167.825 84.467, 167 85 M 151.946 88.937 C 150.051 89.970, 145.301 92.373, 141.392 94.277 C 135.717 97.041, 134.181 98.274, 133.776 100.393 C 133.497 101.853, 133.602 103.254, 134.009 103.506 C 134.417 103.757, 137.782 101.609, 141.488 98.732 C 148.034 93.649, 151.926 90.854, 154.992 89.035 C 158.048 87.222, 155.260 87.132, 151.946 88.937 M 129.750 100.110 C 128.787 100.654, 128 101.554, 128 102.109 C 128 102.664, 128.450 102.840, 129 102.500 C 129.550 102.160, 130 102.327, 130 102.871 C 130 103.416, 128.988 104.005, 127.750 104.180 C 126.304 104.386, 125.386 105.304, 125.180 106.750 C 124.777 109.589, 125.760 109.582, 129.338 106.719 C 131.433 105.043, 132.088 103.750, 131.838 101.784 C 131.557 99.570, 131.205 99.287, 129.750 100.110 M 170.871 102.377 C 166.604 104.504, 167.689 110, 172.376 110 C 174.449 110, 180.737 104.404, 179.760 103.427 C 178.264 101.930, 173.011 101.310, 170.871 102.377 M 160 114 C 159.207 114.490, 158.890 115.223, 159.296 115.629 C 159.701 116.035, 160.558 115.842, 161.200 115.200 C 162.711 113.689, 161.868 112.846, 160 114 M 33.781 117.961 C 34.040 119.729, 33.366 122.679, 32.108 125.277 C 30.027 129.577, 29.360 137.009, 30.630 141.750 L 31.233 144 70.617 144 L 110 144 110 139.435 C 110 136.925, 110.862 132.762, 111.915 130.185 C 112.969 127.608, 114.065 123.813, 114.352 121.751 C 114.779 118.682, 114.502 117.804, 112.823 116.905 C 110.049 115.421, 102.401 116.662, 100.229 118.949 C 99.041 120.199, 96.310 120.979, 91.500 121.441 C 81.714 122.382, 79.514 122.354, 71 121.179 C 65.238 120.384, 63.037 120.434, 61.500 121.397 C 58.808 123.083, 51.174 122.234, 47.846 119.879 C 46.386 118.845, 44.303 118, 43.218 118 C 42.132 118, 39.629 117.325, 37.654 116.500 C 33.065 114.582, 33.274 114.504, 33.781 117.961" stroke="none" fill="black" fill-rule="evenodd"/>
</svg>