<svg xmlns="http://www.w3.org/2000/svg" width="192" height="144" viewBox="0 0 192 144" version="1.1">
	<path d="M 0 72 L 0 144 39.375 144 L 78.750 144 79.308 141.210 C 80.564 134.930, 81.271 116, 80.249 116 C 78.324 116, 78.005 112.890, 79.612 109.783 C 81.743 105.662, 82.588 92.394, 81.097 86.471 C 80.126 82.615, 80.196 80.798, 81.498 76.146 C 82.366 73.041, 83.601 69.458, 84.242 68.185 C 85.731 65.227, 84.636 63.396, 79.157 59.684 C 75.649 57.307, 75 56.337, 75 53.469 C 75 49.205, 79.666 43.595, 84.556 41.982 C 89.586 40.321, 94.702 43.050, 97.716 49 C 102.017 57.492, 106.008 81.494, 107.499 107.836 C 107.821 113.520, 108.346 119.482, 108.667 121.083 C 108.987 122.685, 108.762 124.582, 108.167 125.299 C 107.135 126.542, 107.333 127.922, 110.523 141.761 L 111.044 144.022 151.772 143.761 L 192.500 143.500 192.519 71.500 C 192.529 31.900, 192.410 12.833, 192.254 29.128 L 191.971 58.756 187.892 57.351 C 174.999 52.909, 164.821 44.546, 158.588 33.273 C 158.215 32.598, 156.805 28.999, 155.455 25.277 C 153.513 19.922, 153 16.576, 153 9.254 L 153 0 76.500 0 L 0 0 0 72 M 0.474 72.500 C 0.474 112.100, 0.598 128.154, 0.750 108.176 C 0.901 88.198, 0.901 55.798, 0.750 36.176 C 0.598 16.554, 0.474 32.900, 0.474 72.500" stroke="none" fill="black" fill-rule="evenodd"/>
</svg>