<svg xmlns="http://www.w3.org/2000/svg" width="192" height="144" viewBox="0 0 192 144" version="1.1">
	<path d="M 0 72 L 0 144 34.758 144 L 69.517 144 71.691 135.589 C 72.887 130.963, 75.087 124.125, 76.579 120.394 C 79.308 113.572, 79.691 110.422, 78.467 104.850 C 77.910 102.312, 77.439 101.924, 75.506 102.409 C 73.178 102.993, 72 101.616, 72 98.310 C 72 97.181, 72.651 96.947, 74.500 97.411 C 77.244 98.099, 77.562 97.058, 76.393 91.213 L 75.785 88.175 72.743 91.640 C 70.340 94.377, 69.073 95.041, 66.710 94.802 C 64.065 94.535, 63.215 93.526, 59.360 86.082 C 56.962 81.452, 55 76.922, 55 76.017 C 55 75.111, 53.411 73.613, 51.469 72.687 C 49.527 71.761, 47.648 70.215, 47.292 69.251 C 46.937 68.288, 46.218 67.213, 45.695 66.862 C 45.172 66.511, 45.087 65.668, 45.507 64.989 C 46.498 63.385, 55.230 64.347, 58.131 66.379 C 59.285 67.188, 60.792 67.633, 61.480 67.369 C 62.914 66.819, 68 72.441, 68 74.577 C 68 75.360, 68.450 76, 69 76 C 69.550 76, 70 74.950, 70 73.667 C 70 72.383, 70.333 71, 70.740 70.593 C 71.147 70.186, 71.485 67.749, 71.490 65.177 C 71.500 60.649, 71.596 60.500, 74.500 60.500 C 77.355 60.500, 77.511 60.283, 77.727 56 C 78.179 47.073, 80.250 30.464, 81.118 28.812 C 81.869 27.381, 81.316 27.020, 77.490 26.446 C 75.007 26.074, 72.718 25.353, 72.404 24.845 C 71.728 23.751, 74.051 9.997, 74.910 10.008 C 76.297 10.026, 87.753 13.904, 90.500 15.285 C 94.035 17.063, 100.794 16.818, 106.500 14.704 C 108.700 13.890, 112.412 12.908, 114.750 12.524 L 119 11.824 119 18.877 C 119 25.011, 118.727 26.076, 116.907 27.050 C 115.756 27.666, 113.785 27.912, 112.529 27.597 C 110.288 27.034, 110.270 27.096, 111.578 30.762 C 112.312 32.818, 112.971 38.325, 113.044 43 C 113.116 47.675, 113.473 53.750, 113.838 56.500 C 114.465 61.235, 114.646 61.483, 117.250 61.178 C 119.742 60.887, 120 61.156, 120 64.045 C 120 66.748, 119.693 67.153, 117.987 66.707 C 116.150 66.227, 116.194 66.442, 118.487 69.167 C 119.869 70.810, 121.037 72.456, 121.083 72.827 C 121.129 73.197, 121.280 74.528, 121.419 75.785 C 121.753 78.818, 124 81.185, 124 78.505 C 124 75.819, 128.936 71, 131.687 71 C 134.469 71, 134.710 69.450, 132.142 68.076 C 129.069 66.431, 126.869 62.123, 126.575 57.172 C 126.422 54.603, 125.956 51.263, 125.540 49.750 C 124.942 47.576, 125.120 47, 126.392 47 C 127.441 47, 128 46.130, 128 44.500 C 128 42.122, 128.323 41.834, 131.250 41.600 C 131.938 41.545, 133.057 40.223, 133.738 38.663 C 135.400 34.855, 137.287 35.744, 138.288 40.806 C 138.965 44.230, 139.481 44.917, 141.233 44.729 C 142.624 44.579, 143.878 45.408, 144.867 47.131 C 146.179 49.417, 146.199 50.530, 145.021 55.631 C 143.317 63.013, 141.372 67, 139.474 67 C 138.663 67, 138 67.502, 138 68.117 C 138 68.789, 139.069 69.029, 140.687 68.720 C 142.164 68.437, 143.964 68.433, 144.687 68.710 C 146.116 69.258, 146.519 72, 145.171 72 C 144.714 72, 144.377 73, 144.421 74.221 C 144.478 75.841, 143.484 76.927, 140.750 78.229 C 138.523 79.290, 137 80.727, 137 81.768 C 137 82.732, 135.988 84.641, 134.750 86.010 C 133.512 87.380, 131.470 90.685, 130.212 93.355 C 128.015 98.018, 127.781 98.193, 124.320 97.789 C 121.412 97.450, 120.620 97.736, 120.218 99.274 C 119.857 100.654, 119.069 101.055, 117.360 100.728 C 115.370 100.348, 114.998 100.687, 114.985 102.889 C 114.976 104.325, 114.533 106.175, 114 107 C 113.290 108.099, 113.027 107.362, 113.015 104.250 C 113.007 101.912, 112.638 100, 112.195 100 C 110.126 100, 112.174 112.030, 115.964 122.140 C 118.173 128.033, 120.754 135.368, 121.699 138.440 L 123.419 144.025 157.960 143.763 L 192.500 143.500 192.757 71.750 L 193.013 0 96.507 0 L 0 0 0 72 M 0.474 72.500 C 0.474 112.100, 0.598 128.154, 0.750 108.176 C 0.901 88.198, 0.901 55.798, 0.750 36.176 C 0.598 16.554, 0.474 32.900, 0.474 72.500 M 59 30 C 59 31.478, 58.283 32.040, 56.250 32.152 C 54.737 32.236, 52.831 32.349, 52.013 32.404 C 49.672 32.561, 49.609 35.987, 51.909 38.130 C 54.365 40.418, 54.737 46.143, 52.549 47.960 C 48.678 51.172, 54.270 62.114, 60.123 62.783 C 63.803 63.203, 67.533 59.368, 68.455 54.217 C 68.821 52.173, 69.627 49.056, 70.247 47.290 C 71.278 44.350, 71.147 43.904, 68.686 41.968 C 66.707 40.411, 66 38.955, 66 36.435 C 66 32.862, 62.726 28, 60.320 28 C 59.594 28, 59 28.900, 59 30 M 58 38 C 58 39.100, 58.450 40, 59 40 C 59.550 40, 60 39.100, 60 38 C 60 36.900, 59.550 36, 59 36 C 58.450 36, 58 36.900, 58 38 M 116.032 93.250 C 116.011 95.042, 116.523 96, 117.500 96 C 119.393 96, 119.403 94.915, 117.532 92.441 C 116.126 90.582, 116.062 90.616, 116.032 93.250 M 111.574 93.667 C 111.222 94.584, 111.399 95.799, 111.967 96.367 C 112.678 97.078, 113 96.557, 113 94.700 C 113 91.615, 112.501 91.253, 111.574 93.667" stroke="none" fill="black" fill-rule="evenodd"/>
</svg>