<svg xmlns="http://www.w3.org/2000/svg" width="192" height="144" viewBox="0 0 192 144" version="1.1">
	<path d="M 0 72 L 0 144 26.487 144 L 52.973 144 54.522 140.750 C 55.374 138.963, 57.407 135.250, 59.040 132.500 C 60.672 129.750, 61.808 126.654, 61.564 125.621 C 60.835 122.535, 63.837 116.672, 67.514 114 C 69.769 112.362, 70.742 110.983, 70.336 110 C 69.996 109.175, 69.508 107.288, 69.253 105.807 C 68.852 103.476, 69.283 102.909, 72.463 101.580 L 76.137 100.045 75.856 92.272 C 75.702 87.998, 74.964 83.264, 74.216 81.753 C 73.052 79.401, 73.084 78.249, 74.435 73.753 C 75.304 70.864, 76.603 67.740, 77.322 66.811 C 79.460 64.053, 77.315 52.253, 74.321 50.290 C 72.801 49.295, 72 47.796, 72 45.948 C 72 43.509, 71.560 43.076, 68.750 42.749 L 65.500 42.372 68.721 41.098 C 73.357 39.265, 74.123 34.547, 70.622 29.394 C 67.608 24.958, 67.833 24.189, 71.451 26.560 C 73.940 28.191, 74.592 28.182, 84.071 26.390 C 93.488 24.609, 94.240 24.283, 97.080 20.750 C 101.176 15.654, 102.393 15.894, 101.533 21.628 C 101.151 24.173, 100.572 26.951, 100.246 27.801 C 99.795 28.978, 100.095 29.178, 101.500 28.638 C 102.516 28.249, 105.370 28.233, 107.843 28.604 L 112.339 29.278 109.664 31.226 C 108.193 32.298, 107.262 33.615, 107.595 34.154 C 107.929 34.694, 107.234 35.388, 106.052 35.697 C 104.870 36.006, 104.049 36.763, 104.227 37.379 C 104.405 37.996, 105.718 42.325, 107.144 47 C 108.571 51.675, 110.467 58.566, 111.358 62.313 C 112.249 66.060, 114.563 71.830, 116.500 75.136 C 118.438 78.441, 120.420 82.913, 120.905 85.073 C 121.668 88.470, 121.554 89, 120.056 89 C 117.303 89, 117.561 95.521, 120.523 100.820 C 123.418 106, 123.500 106.406, 121.500 105.638 C 119.476 104.862, 119.535 107.891, 121.602 110.842 C 123.659 113.780, 122.616 114.867, 120.006 112.506 C 118.159 110.834, 118 110.825, 118 112.395 C 118 114.843, 115.154 120, 113.803 120 C 113.173 120, 111.832 119.253, 110.823 118.339 C 109.813 117.426, 108.811 116.864, 108.595 117.089 C 107.804 117.917, 116.893 137.108, 119.653 140.439 L 122.500 143.873 157.500 143.687 L 192.500 143.500 192.757 71.750 L 193.013 0 96.507 0 L 0 0 0 72 M 0.474 72.500 C 0.474 112.100, 0.598 128.154, 0.750 108.176 C 0.901 88.198, 0.901 55.798, 0.750 36.176 C 0.598 16.554, 0.474 32.900, 0.474 72.500 M 84.500 62 C 84.160 62.550, 84.332 63, 84.882 63 C 85.432 63, 86.160 62.550, 86.500 62 C 86.840 61.450, 86.668 61, 86.118 61 C 85.568 61, 84.840 61.450, 84.500 62" stroke="none" fill="black" fill-rule="evenodd"/>
</svg>