<svg xmlns="http://www.w3.org/2000/svg" width="192" height="144" viewBox="0 0 192 144" version="1.1">
	<path d="M 0.233 24.750 L 0.500 49.500 2.750 49.820 C 4.560 50.077, 4.989 50.762, 4.944 53.320 C 4.866 57.697, 2.659 63.553, 1.201 63.250 C 0.282 63.059, -0 72.505, -0 103.500 C -0 125.775, 0.337 144, 0.750 144 C 1.163 144, 1.533 142.762, 1.573 141.250 C 1.915 128.257, 2.479 122.203, 3.506 120.500 C 5.717 116.833, 6.941 105.673, 7.061 88.079 C 7.164 72.986, 7.435 70.181, 9.090 67.093 C 10.140 65.133, 11.030 62.398, 11.068 61.015 C 11.129 58.739, 11.212 58.690, 11.940 60.500 C 12.382 61.600, 13.546 64.975, 14.526 68 C 19.058 81.991, 26.687 93.262, 54.286 126.743 L 68.500 143.986 130.500 143.743 L 192.500 143.500 192.500 71.500 C 192.500 31.900, 192.375 5.688, 192.222 13.250 L 191.944 27 187.722 26.965 C 185.400 26.946, 180.575 26.286, 177 25.500 C 167.957 23.511, 163.609 23.539, 164.393 25.582 C 164.727 26.452, 165 27.352, 165 27.582 C 165 27.812, 165.675 28, 166.500 28 C 167.325 28, 168 28.343, 168 28.763 C 168 29.691, 155.028 36.048, 153.191 36.020 C 152.471 36.009, 152.135 36.410, 152.445 36.911 C 152.754 37.412, 151.283 39.099, 149.175 40.661 C 143.035 45.210, 134.577 56, 137.151 56 C 137.810 56, 137.258 57.162, 135.924 58.581 L 133.500 61.163 136.399 60.436 C 138.468 59.917, 139.095 60.037, 138.590 60.854 C 138.201 61.484, 138.359 62, 138.941 62 C 140.214 62, 140.274 63.019, 139.110 64.857 C 137.702 67.078, 132.604 65.283, 127.462 60.757 C 121.868 55.834, 120.371 56.278, 118.059 63.546 C 116.646 67.990, 116.082 68.593, 112.037 69.994 C 108.295 71.289, 107.468 72.056, 106.918 74.744 C 105.720 80.604, 103.415 83, 98.977 83 C 96.385 83, 95 83.452, 95 84.297 C 95 85.010, 93.200 87.352, 91 89.500 C 85.955 94.426, 85.851 97.217, 90.344 107.125 C 93.635 114.383, 95.482 120, 94.577 120 C 94.324 120, 91.981 117.188, 89.370 113.750 C 81.796 103.778, 73.507 94.413, 60.307 80.914 C 48.437 68.775, 48 68.176, 48 64.042 C 48 58.239, 45.483 41.697, 41.933 24.169 C 38.339 6.426, 38.314 5.768, 41.250 6.148 C 45.312 6.672, 46.431 5.088, 43.901 2.395 C 41.667 0.017, 41.503 -0, 20.808 -0 L -0.035 -0 0.233 24.750 M 56.877 3.750 C 61.725 13.229, 71.800 21.434, 83.123 25.123 C 90.872 27.648, 93.522 30.324, 94.459 36.575 C 94.851 39.192, 95.826 42.331, 96.625 43.551 C 97.424 44.770, 98.007 46.157, 97.920 46.634 C 97.834 47.110, 97.816 48.100, 97.882 48.833 C 98.036 50.568, 100.459 49.759, 100.635 47.914 C 100.709 47.136, 100.821 45.997, 100.885 45.382 C 100.948 44.767, 102.865 44.013, 105.144 43.707 C 107.423 43.402, 109.666 42.555, 110.129 41.826 C 110.591 41.097, 110.983 37.800, 111 34.500 C 111.017 31.200, 111.361 28.012, 111.765 27.417 C 112.169 26.821, 115.264 24.871, 118.642 23.085 C 128.408 17.920, 141 5.493, 141 1.020 C 141 0.343, 126.552 0, 97.980 0 L 54.959 0 56.877 3.750 M 0.432 25 C 0.432 38.475, 0.574 43.987, 0.747 37.250 C 0.920 30.512, 0.920 19.487, 0.747 12.750 C 0.574 6.012, 0.432 11.525, 0.432 25 M 5.195 15.500 C 5.215 17.150, 5.439 17.704, 5.693 16.731 C 5.947 15.758, 5.930 14.408, 5.656 13.731 C 5.382 13.054, 5.175 13.850, 5.195 15.500 M 2.585 33.069 C 1.838 38.701, 2.123 39.551, 4.457 38.655 C 5.495 38.257, 6 36.742, 6 34.031 C 6 31.814, 6.024 29.663, 6.053 29.250 C 6.082 28.837, 5.468 28.366, 4.688 28.203 C 3.673 27.990, 3.076 29.373, 2.585 33.069 M 143.100 61.079 C 141.848 62.772, 141.037 64.371, 141.298 64.631 C 141.860 65.194, 146 60.117, 146 58.865 C 146 57.453, 145.497 57.837, 143.100 61.079 M 0.457 103.500 C 0.456 126.050, 0.588 135.418, 0.749 124.317 C 0.909 113.216, 0.910 94.766, 0.749 83.317 C 0.589 71.868, 0.457 80.950, 0.457 103.500" stroke="none" fill="black" fill-rule="evenodd"/>
</svg>