<svg xmlns="http://www.w3.org/2000/svg" width="192" height="144" viewBox="0 0 192 144" version="1.1">
	<path d="M 0 72 L 0 144 6.383 144 C 12.158 144, 12.824 143.785, 13.370 141.750 C 14.801 136.411, 13.867 130.881, 9.844 120.855 C 3.670 105.468, 2.933 101.956, 2.319 85 C 1.687 67.515, 2.908 58.556, 8.156 42.170 C 10.320 35.416, 10.863 32.463, 10.084 31.684 C 8.106 29.706, 8.913 28, 11.828 28 C 15.824 28, 34.548 35.799, 36.025 38.079 C 36.481 38.783, 63.039 48.916, 76 53.332 C 80.100 54.729, 80.611 54.721, 81.750 53.241 C 83.835 50.533, 83.175 49.123, 79.500 48.434 C 77.575 48.073, 76 47.320, 76 46.760 C 76 46.200, 77.462 44.075, 79.250 42.036 C 81.037 39.998, 84.226 36.212, 86.335 33.623 C 88.444 31.034, 91.900 27.771, 94.016 26.371 C 97.708 23.928, 98.095 23.875, 103.681 25.066 C 112.684 26.986, 116.549 29.524, 118.942 35.087 C 120.074 37.718, 121 40.820, 121 41.981 C 121 44.160, 116.894 49, 115.045 49 C 114.470 49, 114 49.853, 114 50.896 C 114 51.939, 112.402 54.196, 110.450 55.910 C 107.071 58.876, 106.628 61, 109.388 61 C 110.086 61, 112.647 62.311, 115.079 63.913 C 121.114 67.889, 147.298 74.945, 148.543 72.931 C 149.079 72.063, 158.090 74.943, 159.092 76.304 C 159.797 77.261, 166.620 79.028, 181.250 82.044 L 192 84.261 192 87.747 C 192 90.580, 191.672 91.145, 190.250 90.763 C 189.287 90.505, 181.936 88.375, 173.913 86.031 L 159.327 81.769 154.413 86.634 C 150.147 90.859, 147.918 92.064, 137.489 95.786 C 129.964 98.472, 124.175 99.966, 121.989 99.786 C 118.841 99.528, 118.469 99.769, 118.183 102.257 C 117.990 103.931, 118.685 106.055, 119.950 107.664 C 121.097 109.122, 121.801 111.051, 121.515 111.952 C 121.229 112.853, 122.234 115.420, 123.748 117.655 C 134.381 133.356, 134.215 133, 130.893 133 C 129.501 133, 128.968 133.474, 129.322 134.396 C 129.616 135.164, 130.413 137.645, 131.091 139.910 L 132.325 144.029 162.413 143.764 L 192.500 143.500 192.757 71.750 L 193.013 0 96.507 0 L 0 0 0 72 M 0.474 72.500 C 0.474 112.100, 0.598 128.154, 0.750 108.176 C 0.901 88.198, 0.901 55.798, 0.750 36.176 C 0.598 16.554, 0.474 32.900, 0.474 72.500 M 29.417 45.776 C 24.062 58.328, 21.867 66.084, 20.374 77.720 C 18.404 93.082, 19.211 100.959, 24.577 118.751 L 28.273 131.001 25.636 136.876 C 24.186 140.107, 23 143.031, 23 143.375 C 23 143.719, 31.360 144, 41.579 144 L 60.157 144 67.329 138.127 C 82.627 125.597, 95 111.578, 95 106.774 C 95 105.245, 94.102 103.634, 92.750 102.736 C 91.513 101.914, 88.813 99.591, 86.750 97.573 C 82.203 93.123, 81.862 89.365, 85.474 83.500 C 86.829 81.300, 87.952 78.289, 87.969 76.809 C 87.986 75.329, 88.450 73.840, 89 73.500 C 89.550 73.160, 90 70.828, 90 68.319 C 90 64.587, 89.752 63.961, 88.641 64.883 C 87.603 65.745, 86.659 65.519, 84.632 63.925 C 83.174 62.778, 82.178 61.521, 82.418 61.132 C 82.659 60.743, 81.651 59.905, 80.178 59.270 C 73.363 56.332, 37.144 43.254, 34.253 42.688 C 31.232 42.095, 30.895 42.311, 29.417 45.776 M 118 72.046 C 118 72.621, 119.125 75.205, 120.500 77.788 C 121.875 80.371, 123 83.875, 123 85.575 C 123 87.276, 123.242 88.909, 123.538 89.205 C 123.834 89.501, 126.872 88.920, 130.288 87.913 C 133.705 86.906, 138.425 85.593, 140.778 84.995 C 144.615 84.020, 145.020 83.635, 144.702 81.265 C 144.253 77.910, 143.777 77.671, 130.266 74.029 C 117.446 70.572, 118 70.662, 118 72.046 M 92.049 88.441 C 90.869 89.862, 90.907 90.336, 92.312 91.741 C 94.468 93.897, 95.432 92.797, 94.318 89.453 C 93.508 87.023, 93.302 86.931, 92.049 88.441" stroke="none" fill="black" fill-rule="evenodd"/>
</svg>