<svg xmlns="http://www.w3.org/2000/svg" width="192" height="144" viewBox="0 0 192 144" version="1.1">
	<path d="M 0 34.500 C 0 53.475, 0.337 68.994, 0.750 68.987 C 1.163 68.980, 4.355 68.079, 7.843 66.986 C 11.332 65.892, 14.523 65.205, 14.935 65.460 C 15.346 65.714, 17.193 64.365, 19.038 62.461 C 20.883 60.557, 22.990 59, 23.721 59 C 25.481 59, 38.450 65.549, 43.500 68.987 C 49.387 72.996, 53.933 74.141, 62.677 73.818 C 66.980 73.659, 71.656 73.888, 73.070 74.328 C 75.393 75.050, 75.815 74.736, 77.471 71.064 C 79.004 67.666, 80.362 66.501, 85.781 63.941 L 92.259 60.880 89.443 57.940 C 85.854 54.195, 84.680 54.244, 82.115 58.250 C 80.625 60.576, 80.029 60.986, 80.017 59.691 C 80.008 58.696, 79.539 58.167, 78.976 58.515 C 78.302 58.932, 78.183 57.707, 78.629 54.921 C 79.132 51.772, 78.931 50.416, 77.840 49.598 C 77.035 48.994, 76.077 47.703, 75.712 46.730 C 75.346 45.756, 73.687 44.687, 72.024 44.355 C 68.202 43.590, 68.225 42.664, 72.152 39.155 C 75.130 36.495, 75.311 35.925, 75.420 28.848 C 75.620 15.917, 79.375 13, 95.819 13 C 107.972 13, 110.872 13.949, 114.145 18.998 L 116.704 22.944 119.026 20.472 C 122.103 17.197, 123.956 17.353, 128.239 21.250 C 131.761 24.455, 134 29.211, 134 33.489 C 134 35.659, 130.589 38, 127.427 38 C 126.167 38, 126.199 38.479, 127.643 41.250 C 128.634 43.150, 129.501 47.615, 129.731 52 C 130.164 60.257, 128.578 64.265, 123.580 67.539 C 121.154 69.129, 120.981 69.090, 118.690 66.426 C 117.264 64.769, 116.252 62.232, 116.157 60.082 C 116.070 58.112, 115.643 55.201, 115.208 53.613 C 114.485 50.975, 114.280 50.863, 112.827 52.316 C 111.953 53.190, 110.960 53.626, 110.619 53.286 C 110.279 52.945, 110 53.229, 110 53.917 C 110 54.604, 109.478 54.993, 108.839 54.780 C 107.251 54.250, 103 58.342, 103 60.400 C 103 61.441, 104.791 62.839, 107.750 64.107 C 113.557 66.596, 115.885 68.589, 117.553 72.500 C 118.630 75.026, 119.438 75.529, 122.666 75.686 C 124.775 75.789, 129.302 76.180, 132.726 76.555 C 138.634 77.202, 139.373 77.029, 147.226 73.157 C 151.777 70.913, 158.401 67.930, 161.947 66.528 L 168.395 63.980 172.080 67.578 C 174.586 70.025, 178.319 72.071, 183.749 73.971 L 191.733 76.765 192.359 70.133 C 192.704 66.485, 192.989 49.212, 192.993 31.750 L 193 0 96.500 0 L 0 0 0 34.500 M 0.450 35 C 0.450 53.975, 0.584 61.737, 0.748 52.250 C 0.913 42.762, 0.913 27.237, 0.748 17.750 C 0.584 8.262, 0.450 16.025, 0.450 35 M 22.500 65 C 22.160 65.550, 22.332 66, 22.882 66 C 23.432 66, 24.160 65.550, 24.500 65 C 24.840 64.450, 24.668 64, 24.118 64 C 23.568 64, 22.840 64.450, 22.500 65 M 33.945 70.566 C 31.742 73.220, 27.655 74.780, 24.250 74.265 C 17.907 73.305, 11.902 74.929, 8.381 78.555 C 6.574 80.416, 3.949 82.226, 2.548 82.577 L -0 83.217 -0 113.608 L 0 144 33.305 144 L 66.610 144 67.908 136.250 C 68.621 131.988, 70.555 123.325, 72.204 117 C 75.639 103.831, 77.289 90.196, 75.692 88.185 C 74.739 86.985, 74.139 84.148, 73.935 79.872 C 73.881 78.738, 72.590 78.072, 69.679 77.676 C 65.921 77.164, 65.266 77.404, 63.178 80.053 C 60.494 83.458, 59.729 83.563, 53.355 81.399 C 49.444 80.072, 48.013 80.006, 44.960 81.013 C 42.068 81.968, 39.697 81.965, 33.890 81 C 29.825 80.325, 25.825 79.405, 25 78.956 C 23.244 78.001, 24.851 77.265, 34.750 74.489 C 41.342 72.641, 42.227 71.727, 39.066 70.035 C 36.438 68.629, 35.470 68.729, 33.945 70.566 M 152.500 74.228 C 150.564 75.359, 150.580 75.419, 153 76.098 C 154.375 76.485, 156.357 76.845, 157.405 76.900 C 159.247 76.997, 159.250 76.934, 157.500 75 C 155.413 72.694, 155.188 72.659, 152.500 74.228 M 168.336 79.433 C 168.868 80.820, 166.580 81.539, 152.241 84.492 C 150.449 84.861, 149.238 85.576, 149.550 86.081 C 149.879 86.614, 146.290 87, 141.011 87 C 132.448 87, 131.758 86.842, 129.452 84.354 C 128.104 82.899, 127 81.324, 127 80.854 C 127 79.352, 120.917 79.941, 119.253 81.604 C 118.017 82.840, 117.901 83.612, 118.747 84.967 C 119.573 86.289, 119.512 87.070, 118.503 88.113 C 117.433 89.218, 117.336 91.736, 118.029 100.500 C 118.507 106.550, 118.921 117.030, 118.949 123.790 C 118.992 134.081, 119.329 136.724, 121.020 140.040 L 123.041 144 157.520 144 L 192 144 192 117.621 L 192 91.243 188.877 89.949 C 186.966 89.158, 185.234 87.411, 184.414 85.449 C 183.013 82.096, 181.337 81, 177.609 81 C 176.384 81, 174.509 80.339, 173.441 79.532 C 170.880 77.595, 167.606 77.531, 168.336 79.433 M 189.166 79.876 C 188.102 80.551, 188.169 80.851, 189.498 81.361 C 191.825 82.254, 192 82.193, 192 80.500 C 192 78.817, 191.137 78.627, 189.166 79.876" stroke="none" fill="black" fill-rule="evenodd"/>
</svg>