<svg xmlns="http://www.w3.org/2000/svg" width="192" height="144" viewBox="0 0 192 144" version="1.1">
	<path d="M 44.439 1.298 C 43.366 4.095, 44.454 7.480, 46.750 8.487 C 49.274 9.595, 49.455 10.281, 47.962 13.072 C 46.974 14.917, 48.410 22.654, 49.990 24 C 50.313 24.275, 51.451 27.120, 52.520 30.321 L 54.463 36.142 51.981 38.049 C 49.904 39.645, 49.794 39.959, 51.306 39.978 C 52.793 39.996, 52.617 40.452, 50.306 42.560 C 47.595 45.034, 47.585 45.080, 50 43.912 C 51.375 43.247, 53.794 41.626, 55.376 40.310 C 59.976 36.483, 60.104 36.685, 64.288 54.354 L 65.438 59.208 59.219 64.699 C 55.798 67.719, 53 70.976, 53 71.937 C 53 75.313, 41.012 85.379, 31.574 89.926 C 22.669 94.218, 13.903 101.581, 12.522 105.930 C 11.774 108.287, 17.298 118.512, 20.381 120.475 C 21.546 121.217, 26.325 122.575, 31 123.493 C 35.675 124.412, 41.845 125.828, 44.712 126.641 C 47.579 127.455, 51.404 127.943, 53.212 127.726 C 60.324 126.875, 63.696 133.275, 58.372 137.521 C 56.377 139.111, 55.911 140.145, 56.439 141.808 C 57.102 143.896, 57.679 144, 68.567 144 L 80 144 80 136.500 C 80 131.198, 80.366 128.983, 81.250 128.940 C 81.938 128.908, 84.672 128.524, 87.326 128.087 C 93.654 127.047, 94.700 128.180, 95.571 137.028 L 96.261 144.031 123.881 143.766 L 151.500 143.500 151.792 135.772 C 151.952 131.521, 151.450 123.421, 150.677 117.772 C 149.547 109.523, 149.460 102.773, 150.232 83.500 C 151.325 56.261, 150.701 50.149, 145.847 40.500 C 139.533 27.951, 132.872 24.324, 117.922 25.292 C 108.139 25.926, 103.179 28.228, 98.698 34.212 C 95.536 38.435, 92.718 44, 93.741 44 C 94.177 44, 94.581 45.797, 94.639 47.993 C 94.749 52.213, 96.334 55, 98.622 55 C 100.460 55, 100.377 57.442, 98.488 59.010 C 97.569 59.773, 97.315 60.704, 97.840 61.383 C 98.315 61.997, 99.534 64.862, 100.549 67.750 C 101.565 70.638, 102.955 73, 103.639 73 C 105.264 73, 106.506 75.042, 105.378 75.862 C 104.895 76.213, 104.477 78.456, 104.448 80.846 C 104.410 84.008, 103.829 85.644, 102.318 86.846 C 101.176 87.756, 100.074 89.061, 99.870 89.747 C 99.592 90.684, 98.633 90.560, 96.005 89.247 C 92.345 87.417, 88.521 81.671, 87.608 76.627 C 87.322 75.047, 86.393 72.987, 85.544 72.049 C 83.691 70.001, 83.409 54.233, 85.046 44.148 C 86.224 36.884, 85.402 35, 81.052 35 C 78.330 35, 74 31.430, 74 29.186 C 74 27.568, 75.511 27.718, 82.405 30.025 C 90.246 32.648, 91.891 32.642, 89.500 30 C 88.505 28.900, 87.033 28, 86.229 28 C 85.426 28, 82.609 27.233, 79.970 26.296 C 74.972 24.520, 74.650 23.956, 73.731 15.333 C 73.604 14.141, 73.162 12.829, 72.750 12.416 C 72.338 12.004, 72 9.042, 72 5.833 L 72 0 67.117 -0 C 63.074 -0, 62.143 0.344, 61.710 2 C 61.059 4.489, 55.549 4.804, 54.219 2.428 C 52.947 0.154, 45.220 -0.738, 44.439 1.298" stroke="none" fill="black" fill-rule="evenodd"/>
</svg>