<svg xmlns="http://www.w3.org/2000/svg" width="192" height="144" viewBox="0 0 192 144" version="1.1">
	<path d="M 57 1 C 57 1.550, 57.450 2, 58 2 C 58.550 2, 59 1.550, 59 1 C 59 0.450, 58.550 0, 58 0 C 57.450 0, 57 0.450, 57 1 M 62.356 2.196 C 62.695 3.463, 62.979 5.047, 62.986 5.716 C 62.994 6.384, 64.350 8.312, 66 10 C 67.650 11.688, 69 13.503, 69 14.034 C 69 16.097, 71.006 14.872, 71.105 12.750 C 71.182 11.102, 71.516 11.481, 72.355 14.168 C 73.616 18.208, 75 20.150, 75 17.879 C 75 17.080, 75.946 16.354, 77.103 16.267 C 78.933 16.129, 79.154 16.555, 78.804 19.554 C 78.366 23.309, 79.266 24.002, 81.008 21.250 C 81.741 20.092, 81.976 20.007, 81.702 21 C 81.474 21.825, 81.666 23.525, 82.129 24.778 C 83.064 27.305, 83.420 27.081, 72.087 31.095 C 68.560 32.344, 63.632 34.925, 61.136 36.830 C 58.640 38.735, 56.454 39.890, 56.279 39.397 C 56.103 38.904, 54.609 36.348, 52.958 33.718 L 49.957 28.937 44.729 29.718 C 41.853 30.148, 34.300 30.500, 27.944 30.500 C 16.605 30.500, 16.246 30.429, 8.805 26.750 C 4.634 24.688, 0.946 23, 0.611 23 C 0.275 23, 0 24.317, 0 25.927 C 0 27.859, 0.850 29.524, 2.500 30.821 C 5.686 33.327, 5.657 35.252, 2.386 38.523 L -0.228 41.137 0.303 54.318 C 0.594 61.568, 1.362 69.661, 2.009 72.303 L 3.185 77.106 7.240 76.803 L 11.295 76.500 14.621 65 C 16.450 58.675, 17.958 52.330, 17.973 50.899 C 18.007 47.644, 16.150 42.003, 14.358 39.921 C 13.611 39.053, 13 38.040, 13 37.671 C 13 37.302, 17.163 37.006, 22.250 37.014 C 35.370 37.033, 38.748 38.191, 33.646 40.922 C 32.304 41.640, 30.349 44.459, 29.094 47.485 C 26.728 53.196, 26.655 51.981, 30.575 72.385 C 31.226 75.773, 26.548 75.593, 72.500 73.992 C 87.350 73.474, 113.335 73.015, 130.245 72.971 L 160.989 72.891 161.454 70.696 C 163.448 61.281, 165.007 52.356, 165.045 50.143 C 165.070 48.689, 165.750 46.150, 166.556 44.500 C 167.789 41.976, 167.949 41.883, 167.562 43.913 C 167.135 46.151, 167.221 46.207, 168.743 44.685 C 169.646 43.782, 170.861 41.588, 171.442 39.809 C 172.269 37.280, 173.223 36.427, 175.814 35.900 C 178.636 35.326, 179.023 35.469, 178.427 36.863 C 174.305 46.503, 173.716 49.114, 174.834 52.777 C 175.459 54.825, 177.024 60.100, 178.312 64.500 L 180.653 72.500 185.570 72.500 L 190.486 72.500 191.647 67.500 C 192.286 64.750, 192.851 57.403, 192.904 51.173 L 193 39.846 189.967 36.814 C 186.527 33.373, 186.691 31.039, 190.517 28.991 C 192.869 27.732, 194.008 23.341, 192.400 21.733 C 192.069 21.403, 189.257 22.404, 186.150 23.959 C 179.480 27.295, 175.998 28.448, 176.006 27.317 C 176.021 25.001, 178.221 19, 179.054 19 C 179.631 19, 179.787 16.111, 179.444 11.750 C 178.428 -1.165, 179.810 0, 165.500 0 L 153.038 0 152.380 2.624 C 151.502 6.121, 152.561 22.794, 153.878 26.215 C 154.453 27.708, 154.603 29.123, 154.212 29.361 C 153.820 29.598, 151.114 29.413, 148.197 28.948 C 145.280 28.484, 142.355 28.310, 141.697 28.563 C 141.039 28.815, 138.715 31.940, 136.534 35.507 L 132.568 41.992 128.534 38.105 C 124.062 33.796, 121.025 32.096, 113.262 29.559 C 110.381 28.617, 107.796 27.478, 107.517 27.028 C 107.239 26.577, 107.680 24.924, 108.499 23.354 L 109.988 20.500 109.994 23.719 C 110.002 28.056, 112.349 27.129, 115.293 21.627 L 117.500 17.500 117.810 21.250 C 118.004 23.588, 118.632 25, 119.477 25 C 120.223 25, 121.060 25.563, 121.338 26.250 C 121.615 26.938, 121.878 26.488, 121.921 25.250 C 122.014 22.588, 123.656 22.245, 124.311 24.750 C 124.679 26.161, 124.790 26.094, 124.884 24.405 C 125.007 22.175, 127.897 19, 129.803 19 C 130.433 19, 131.647 17.650, 132.500 16 C 134.359 12.405, 134.627 12.362, 137.125 15.250 L 139.071 17.500 138.901 13 C 138.637 6.008, 138.639 6.005, 143.250 5.941 C 146.952 5.890, 147.254 5.729, 145.588 4.691 C 144.536 4.036, 142.849 2.712, 141.838 1.750 C 140.194 0.185, 137.545 0.002, 116.750 0.023 C 94.302 0.045, 93.617 0.103, 96.903 1.722 C 101.557 4.014, 99.287 4.486, 93.880 2.349 C 90.690 1.089, 85.729 0.520, 75.619 0.255 L 61.738 -0.109 62.356 2.196 M 105 20 C 105 20.550, 105.450 21, 106 21 C 106.550 21, 107 20.550, 107 20 C 107 19.450, 106.550 19, 106 19 C 105.450 19, 105 19.450, 105 20 M 0.232 26 C 0.232 27.925, 0.438 28.712, 0.689 27.750 C 0.941 26.788, 0.941 25.212, 0.689 24.250 C 0.438 23.288, 0.232 24.075, 0.232 26 M 143.073 41.728 C 139.446 46.128, 139.368 46.591, 142.021 48.011 C 144.621 49.403, 145.691 48.684, 146.500 45 C 146.860 43.363, 147.550 41.778, 148.033 41.479 C 149.054 40.848, 148.180 38, 146.966 38 C 146.515 38, 144.763 39.678, 143.073 41.728 M 43.682 39.705 C 43.369 40.211, 43.875 42.746, 44.807 45.338 C 46.563 50.224, 48.343 50.997, 50.383 47.757 C 51.286 46.324, 50.838 45.371, 47.866 42.399 C 45.878 40.411, 43.995 39.199, 43.682 39.705 M 0.382 52.500 C 0.384 59.100, 0.546 61.670, 0.741 58.211 C 0.937 54.752, 0.936 49.352, 0.738 46.211 C 0.540 43.070, 0.380 45.900, 0.382 52.500 M 68.029 88.178 C 50.170 88.653, 35.166 89.434, 34.687 89.913 C 34.191 90.409, 34.260 91.617, 34.846 92.712 C 35.618 94.155, 35.275 96.632, 33.481 102.570 C 32.163 106.931, 30.593 113.043, 29.992 116.152 L 28.899 121.803 22.200 125.281 C 18.515 127.194, 12.125 130.759, 8 133.204 C 1.442 137.091, 0.461 138.048, 0.187 140.825 L -0.127 144 18.750 144 L 37.626 144 40.183 141.250 C 44.296 136.828, 45.954 133.706, 51.073 120.744 L 55.909 108.500 56.171 115.500 C 56.316 119.350, 56.284 127.338, 56.101 133.250 L 55.768 144 95.972 144 L 136.176 144 135.613 140.250 C 134.471 132.641, 134.613 118, 135.828 118 C 136.284 118, 138.086 121.713, 139.833 126.250 C 141.581 130.787, 144.594 136.646, 146.529 139.270 L 150.048 144.040 171.274 143.770 L 192.500 143.500 192.714 140 C 192.831 138.075, 192.675 137.081, 192.367 137.792 C 192.011 138.611, 191.384 138.751, 190.653 138.174 C 189.032 136.896, 180.109 132.036, 169.281 126.535 C 160.601 122.125, 160.026 121.637, 159.441 118.176 C 158.103 110.273, 155.050 98.210, 153.004 92.740 L 150.856 87 125.678 87.157 C 111.830 87.243, 85.888 87.703, 68.029 88.178 M 154.473 89.748 C 155.367 93.309, 155.901 93.771, 157.039 91.971 C 158.692 89.358, 158.147 87, 155.892 87 C 154.091 87, 153.884 87.401, 154.473 89.748 M 0.232 141 C 0.232 142.925, 0.438 143.713, 0.689 142.750 C 0.941 141.787, 0.941 140.213, 0.689 139.250 C 0.438 138.287, 0.232 139.075, 0.232 141" stroke="none" fill="black" fill-rule="evenodd"/>
</svg>