<svg xmlns="http://www.w3.org/2000/svg" width="192" height="144" viewBox="0 0 192 144" version="1.1">
	<path d="M 79.879 23.364 C 75.749 26.253, 73 32.083, 73 37.953 C 73 41.139, 72.582 41.994, 70.750 42.557 C 67.440 43.574, 64.785 46.746, 65.461 48.876 C 65.780 49.883, 67.382 51.901, 69.021 53.361 C 72.406 56.377, 72.647 57.632, 70.443 60.777 C 69.471 62.166, 69.308 63, 70.011 63 C 70.679 63, 70.878 63.809, 70.502 64.994 C 70.016 66.524, 70.233 66.848, 71.435 66.387 C 72.325 66.045, 73 66.309, 73 67 C 73 67.668, 73.641 67.968, 74.425 67.667 C 75.256 67.348, 76.535 68.168, 77.499 69.639 C 78.406 71.024, 79.747 71.927, 80.477 71.647 C 81.208 71.367, 82.637 71.773, 83.653 72.550 C 86.051 74.383, 84.426 75.559, 78.204 76.492 C 75.749 76.860, 72.693 77.638, 71.414 78.221 C 69.296 79.186, 66.266 84.254, 64.611 89.598 C 63.829 92.124, 59.272 94.451, 57.638 93.160 C 57.012 92.665, 53.555 92.036, 49.955 91.762 C 42.206 91.171, 38.761 89.545, 30.595 82.619 C 27.243 79.775, 23.038 76.843, 21.250 76.103 C 19.462 75.363, 17.944 74.362, 17.875 73.879 C 17.806 73.395, 17.694 72.588, 17.625 72.083 C 17.296 69.670, 15.801 70.658, 8.159 78.340 L -0.077 86.619 0.211 96.560 L 0.500 106.500 3.798 101.750 C 7.494 96.427, 9.503 95.815, 11.182 99.500 C 12.558 102.519, 13.588 102.685, 14.290 100 C 14.577 98.900, 15.495 98, 16.330 98 C 18.386 98, 24 102.832, 24 104.602 C 24 105.819, 24.529 105.806, 27.622 104.513 C 32.909 102.305, 35.515 102.635, 39.347 106 C 41.226 107.650, 43.155 108.999, 43.632 108.997 C 44.109 108.995, 47.200 107.193, 50.500 104.993 C 57.613 100.250, 64.283 97.511, 66.575 98.390 C 67.897 98.898, 67.985 99.313, 67.016 100.481 C 66.047 101.648, 66.213 102.456, 67.848 104.535 C 69.563 106.714, 69.816 108.159, 69.428 113.531 C 68.996 119.510, 69.131 120.040, 71.483 121.581 C 74.982 123.873, 74.926 128.257, 71.377 129.874 C 68.928 130.990, 68.861 131.189, 70.377 132.864 C 72.505 135.216, 72.425 136.576, 69.918 140.632 L 67.837 144 89.168 143.997 L 110.500 143.994 110.500 138.651 C 110.500 135.713, 109.949 132.644, 109.275 131.832 C 107.214 129.347, 105.472 120.666, 105.886 114.934 C 106.101 111.945, 106.407 109.950, 106.566 110.500 C 106.725 111.050, 107.575 114.088, 108.455 117.250 C 109.997 122.787, 110.180 123, 113.405 123 C 119.247 123, 119.844 120.740, 117.434 107.750 C 116.579 103.142, 117.853 102.888, 122.818 106.675 C 126.225 109.274, 126.408 109.302, 129.244 107.675 C 133.296 105.349, 137.045 105.582, 140.862 108.398 L 144.113 110.796 146.511 108.398 C 149.493 105.416, 157 104.898, 157 107.674 C 157 109.096, 157.349 109.021, 159.314 107.174 C 162.838 103.864, 164.700 104.483, 168.164 110.112 L 171.309 115.223 176.953 114.585 C 180.887 114.140, 183.907 114.409, 186.924 115.473 C 192.371 117.395, 192.012 117.483, 191.930 114.250 C 191.874 112.045, 190.075 110.014, 182.851 104 C 174.249 96.839, 167.826 90.085, 161.570 81.622 C 158.735 77.788, 158.684 77.767, 157.101 79.811 C 156.221 80.948, 154.150 82.196, 152.500 82.583 C 150.850 82.970, 145.609 85.305, 140.854 87.772 C 133.989 91.334, 131.238 92.238, 127.500 92.163 C 120.904 92.031, 119.712 91.478, 117.613 87.581 C 114.760 82.281, 111.024 79.371, 104.801 77.598 C 98.895 75.915, 97.397 74.785, 98.566 72.893 C 99.043 72.121, 99.515 72.197, 100.125 73.143 C 100.851 74.268, 101.171 74.244, 102 73 C 102.889 71.667, 103.109 71.667, 103.985 73 C 104.643 74.003, 104.974 74.086, 104.985 73.250 C 104.993 72.563, 105.852 72, 106.893 72 C 107.934 72, 109.064 71.274, 109.405 70.387 C 109.890 69.124, 110.329 69.028, 111.433 69.945 C 112.584 70.900, 112.744 70.737, 112.305 69.057 C 111.920 67.586, 112.244 67, 113.440 67 C 114.970 67, 114.980 66.809, 113.557 64.777 C 111.604 61.990, 111.589 61, 113.500 61 C 114.361 61, 115 60.098, 115 58.883 C 115 57.238, 115.459 56.887, 117.061 57.306 C 119.658 57.985, 120.779 55.477, 119.089 52.770 C 117.552 50.309, 118.425 49.278, 120.552 51.043 C 121.889 52.153, 122.302 52.135, 123.061 50.936 C 123.561 50.146, 123.976 48.302, 123.985 46.838 C 123.998 44.515, 124.510 44.090, 128 43.500 C 130.200 43.128, 131.998 42.751, 131.996 42.662 C 131.994 42.573, 130.869 40.286, 129.496 37.581 C 128.123 34.875, 127 31.189, 127 29.390 C 127 27.590, 126.616 25.881, 126.146 25.590 C 125.677 25.300, 123.139 26.429, 120.507 28.098 L 115.721 31.133 112.053 27.552 C 107.595 23.198, 104.172 22.120, 92.500 21.392 C 84.026 20.864, 83.288 20.979, 79.879 23.364" stroke="none" fill="black" fill-rule="evenodd"/>
</svg>