<svg xmlns="http://www.w3.org/2000/svg" width="192" height="144" viewBox="0 0 192 144" version="1.1">
	<path d="M 59.525 3.026 C 61.119 4.690, 62.959 5.846, 63.613 5.595 C 64.268 5.344, 65.029 6.004, 65.306 7.061 C 65.643 8.351, 64.853 9.787, 62.904 11.427 C 59.352 14.416, 59.286 15, 62.500 15 C 64.707 15, 65 15.425, 65 18.622 C 65 21.627, 65.241 22.045, 66.411 21.074 C 67.988 19.765, 68.421 20.237, 69.402 24.336 C 70.278 27.992, 74.389 32.211, 75.750 30.850 C 76.412 30.188, 76.980 30.785, 77.442 32.625 C 77.985 34.790, 78.338 35.079, 79.053 33.948 C 79.740 32.863, 79.973 32.828, 79.985 33.809 C 79.993 34.529, 80.450 34.840, 81 34.500 C 81.574 34.145, 82.014 35.079, 82.032 36.691 C 82.061 39.240, 82.187 39.338, 83.392 37.750 C 84.837 35.846, 87 35.397, 87 37 C 87 37.550, 86.353 38, 85.562 38 C 84.622 38, 84.189 38.928, 84.312 40.676 C 84.482 43.104, 83.879 43.592, 77.826 45.926 C 74.155 47.342, 69.785 49.513, 68.116 50.750 C 66.447 51.988, 64.941 53, 64.770 53 C 64.598 53, 63.358 50.986, 62.013 48.524 C 60.668 46.062, 59.044 43.847, 58.404 43.601 C 57.764 43.356, 53.777 43.617, 49.544 44.183 C 45.311 44.749, 39.394 44.905, 36.394 44.530 C 31.104 43.869, 28.945 42.908, 9.745 32.669 C 4.929 30.101, 0.767 28, 0.495 28 C -0.566 28, 0.069 35.669, 1.225 36.825 C 2.192 37.792, 2.192 38.464, 1.225 40.011 C 0.514 41.150, 0.002 45.441, 0.005 50.236 C 0.009 56.846, 0.599 60.145, 2.953 66.718 C 6.327 76.141, 7.717 79, 8.924 79 C 9.913 79, 10.348 76.789, 12.537 60.627 L 14.146 48.753 11.114 43.877 C 8.517 39.698, 8.335 39, 9.846 39 C 12.105 39, 20.888 44.546, 21.611 46.429 C 21.914 47.217, 21.213 49.146, 20.053 50.714 C 16.545 55.460, 16.418 59.936, 19.520 69.474 L 22.294 78 26.108 78 C 29.675 78, 29.987 77.756, 30.907 74.250 C 31.449 72.188, 32.190 67.766, 32.555 64.425 C 33.109 59.358, 32.868 57.662, 31.109 54.214 C 29.949 51.940, 29 49.770, 29 49.392 C 29 48.647, 46.062 49.729, 46.857 50.524 C 47.124 50.790, 46.380 52.031, 45.204 53.282 C 42.206 56.474, 40.119 62.933, 41.096 66 C 41.534 67.375, 42.392 70.442, 43.002 72.815 L 44.112 77.130 49.306 76.568 C 54.356 76.021, 86.513 74.728, 127.820 73.411 L 148.140 72.763 149.144 70.131 C 149.696 68.684, 150.489 65.681, 150.906 63.457 C 151.323 61.234, 152.498 58.441, 153.518 57.250 C 154.537 56.059, 155.850 53.604, 156.436 51.793 C 157.309 49.090, 158.076 48.444, 160.713 48.189 L 163.927 47.879 161.335 52.517 C 159.072 56.565, 158.827 57.870, 159.405 62.785 C 160.603 72.983, 160.614 73, 166.001 73 C 171.219 73, 170.827 73.424, 174.028 64.311 C 176.021 58.635, 175.322 53.532, 171.997 49.500 C 171.090 48.400, 170.522 46.742, 170.735 45.815 C 171.142 44.043, 178.915 38.689, 182.751 37.539 C 184.898 36.896, 184.857 37.098, 181.862 41.916 L 178.722 46.966 179.919 57.733 C 181.487 71.829, 181.813 73, 184.165 73 C 185.544 73, 186.691 71.613, 188.093 68.250 C 189.183 65.638, 190.766 62.106, 191.612 60.403 C 193.077 57.453, 193.117 55.628, 192.111 37.500 C 192.080 36.950, 192.313 34.363, 192.628 31.750 C 193.013 28.563, 192.832 27, 192.078 27 C 190.826 27, 178.699 33.179, 169.500 38.503 C 166.200 40.413, 162.713 41.982, 161.750 41.988 C 159.827 42.001, 159.359 39.041, 161.022 37.378 C 161.717 36.683, 161.703 33.986, 160.977 28.928 C 160.391 24.843, 159.675 18.208, 159.388 14.184 C 158.903 7.418, 159.061 6.609, 161.483 3.434 L 164.102 0 110.364 0 L 56.626 0 59.525 3.026 M 136.549 12.346 C 132.791 19.065, 132.021 23.687, 134.500 24.638 C 137.201 25.675, 136.071 26.964, 133 26.350 C 130.036 25.757, 130 25.802, 129.968 30.125 C 129.939 34.090, 129.805 34.327, 128.537 32.653 C 127.183 30.866, 127.097 30.871, 125.891 32.803 C 125.205 33.902, 124.049 34.572, 123.322 34.293 C 122.484 33.972, 122 34.557, 122 35.893 C 122 37.099, 121.359 38, 120.500 38 C 119.675 38, 119 38.852, 119 39.893 C 119 40.934, 118.382 42.023, 117.626 42.313 C 116.226 42.850, 114.420 40.162, 113.721 36.500 C 113.373 34.673, 113.232 34.721, 112.099 37.054 C 111.416 38.459, 109.990 40.150, 108.929 40.812 C 107.300 41.830, 106.995 41.744, 106.970 40.258 C 106.941 38.633, 106.858 38.639, 105.866 40.346 C 104.509 42.681, 105.243 43.364, 111.925 45.983 C 114.908 47.152, 119.113 49.505, 121.268 51.212 C 125.591 54.636, 125.017 54.907, 129.630 47.250 C 131.983 43.344, 132.527 43, 136.345 42.996 L 140.500 42.993 140.686 24.496 C 140.788 14.323, 140.698 6, 140.485 6 C 140.272 6, 138.501 8.856, 136.549 12.346 M 87 20.931 C 87 22.022, 91.881 25.220, 92.925 24.813 C 93.366 24.641, 92.214 23.508, 90.364 22.296 C 88.514 21.084, 87 20.470, 87 20.931 M 0.272 32 C 0.272 34.475, 0.467 35.487, 0.706 34.250 C 0.944 33.013, 0.944 30.988, 0.706 29.750 C 0.467 28.512, 0.272 29.525, 0.272 32 M 103.638 36.500 C 103.322 37.325, 103.499 38, 104.031 38 C 104.564 38, 105 37.325, 105 36.500 C 105 35.675, 104.823 35, 104.607 35 C 104.391 35, 103.955 35.675, 103.638 36.500 M 0.365 50.500 C 0.368 56, 0.536 58.122, 0.738 55.216 C 0.941 52.311, 0.939 47.811, 0.734 45.216 C 0.528 42.622, 0.363 45, 0.365 50.500 M 53.567 51.891 C 53.264 52.382, 53.950 54.893, 55.091 57.472 C 57.085 61.980, 57.238 62.095, 59.060 60.446 C 60.909 58.773, 60.880 58.637, 57.893 54.865 C 54.583 50.685, 54.393 50.555, 53.567 51.891 M 133.430 54.502 C 131.239 57.375, 130.982 58.274, 132.002 59.502 C 133.895 61.784, 134.641 61.355, 136.391 56.980 C 139.206 49.944, 137.803 48.770, 133.430 54.502 M 135.908 87.374 C 135.684 87.570, 122.675 88.008, 107 88.347 C 91.325 88.686, 71.653 89.266, 63.284 89.636 L 48.069 90.308 48.225 93.904 C 48.310 95.882, 47.433 101.100, 46.275 105.500 C 45.117 109.900, 43.922 114.640, 43.620 116.034 C 43.241 117.781, 41.709 119.229, 38.686 120.698 C 36.274 121.869, 28.862 126.238, 22.215 130.406 C 5.548 140.856, 5.543 140.858, 2.490 137.991 L 0 135.651 0 139.826 L 0 144 18.250 143.999 L 36.500 143.999 42.809 140.118 C 53.808 133.353, 55.920 130.435, 61.593 114.165 L 64.500 105.831 65 114.665 C 65.275 119.524, 65.275 126.425, 65 130 C 64.725 133.575, 64.640 138.188, 64.810 140.250 L 65.121 144 96.310 144.001 L 127.500 144.002 126.613 130.079 C 125.526 113.015, 126.250 110.052, 129.444 118.500 C 133.244 128.553, 133.711 129.503, 136.433 132.738 C 137.879 134.457, 142.254 137.703, 146.155 139.952 L 153.248 144.041 172.874 143.771 L 192.500 143.500 192.818 139.618 C 193.255 134.292, 191.678 133.044, 189.394 136.910 C 188.390 138.609, 187.103 139.997, 186.534 139.993 C 185.965 139.988, 181.900 137.922, 177.500 135.400 C 162.005 126.518, 158.444 124.530, 152.501 121.446 L 146.503 118.332 144.442 108.916 C 141.209 94.140, 137.855 85.672, 135.908 87.374 M 140.519 90.168 C 140.912 92, 141.414 93.695, 141.633 93.933 C 142.409 94.774, 143.946 92.427, 144.221 89.982 C 144.439 88.045, 143.989 87.433, 142.152 87.171 C 139.978 86.860, 139.858 87.081, 140.519 90.168 M 164 88.059 C 164 88.641, 164.450 88.840, 165 88.500 C 165.550 88.160, 166 87.684, 166 87.441 C 166 87.198, 165.550 87, 165 87 C 164.450 87, 164 87.477, 164 88.059 M 0.272 140 C 0.272 142.475, 0.467 143.488, 0.706 142.250 C 0.944 141.012, 0.944 138.988, 0.706 137.750 C 0.467 136.512, 0.272 137.525, 0.272 140" stroke="none" fill="black" fill-rule="evenodd"/>
</svg>