<svg xmlns="http://www.w3.org/2000/svg" width="192" height="144" viewBox="0 0 192 144" version="1.1">
	<path d="M 0 72 L 0 144 5.367 144 C 10.574 144, 10.818 143.873, 13.546 139.750 C 18.053 132.938, 28.739 120.401, 31.683 118.472 C 33.172 117.496, 36.644 116.198, 39.398 115.586 L 44.407 114.474 46.382 106.129 C 48.053 99.068, 48.175 97.105, 47.178 93.377 C 45.231 86.096, 45.613 83.247, 48.750 81.663 C 50.263 80.899, 52.037 80.467, 52.693 80.701 C 54.203 81.242, 54.867 77.581, 55.886 63.101 C 56.543 53.761, 57.021 51.457, 58.535 50.351 C 63.653 46.609, 65.294 50.194, 64.979 64.428 C 64.880 68.868, 64.851 72.950, 64.914 73.500 C 64.977 74.050, 66.840 71.125, 69.055 67 C 73.181 59.316, 78.789 53, 81.485 53 C 83.794 53, 83.377 54.875, 78.564 66.128 C 76.124 71.833, 73.847 77.850, 73.504 79.500 C 72.905 82.375, 73.080 82.286, 77.690 77.369 C 82.824 71.893, 89.407 67, 91.640 67 C 94.376 67, 92.882 70.969, 88.190 76.169 C 85.544 79.101, 82.307 83.269, 80.996 85.431 C 78.810 89.037, 78.774 89.295, 80.556 88.547 C 86.388 86.098, 90.786 84.863, 94.146 84.729 C 102.005 84.415, 100.402 86.981, 89.628 91.961 C 79.882 96.466, 78.315 98.065, 77.034 104.819 C 75.953 110.520, 74.028 114.811, 70.343 119.734 L 67.922 122.969 73.323 129.335 C 76.293 132.836, 79.549 137.572, 80.558 139.859 L 82.392 144.017 137.446 143.758 L 192.500 143.500 192.524 71.500 C 192.539 24.312, 192.360 11.044, 192.003 33 C 191.704 51.425, 191.356 65.938, 191.230 65.250 C 191.103 64.563, 190.319 64, 189.486 64 C 187.719 64, 184.358 62.227, 181.441 59.756 C 180.309 58.796, 177.317 57.625, 174.793 57.154 C 172.268 56.682, 167.919 54.891, 165.128 53.174 C 162.337 51.457, 158.949 49.774, 157.598 49.435 C 156.180 49.079, 154.504 47.484, 153.632 45.659 C 152.801 43.922, 150.036 40.475, 147.486 38 C 141.272 31.967, 137.451 26.169, 136.719 21.658 C 136.387 19.612, 135.376 16.490, 134.471 14.719 C 133.567 12.949, 132.578 8.912, 132.275 5.750 L 131.722 -0 65.861 -0 L 0 0 0 72 M 0.474 72.500 C 0.474 112.100, 0.598 128.154, 0.750 108.176 C 0.901 88.198, 0.901 55.798, 0.750 36.176 C 0.598 16.554, 0.474 32.900, 0.474 72.500" stroke="none" fill="black" fill-rule="evenodd"/>
</svg>