<svg xmlns="http://www.w3.org/2000/svg" width="192" height="144" viewBox="0 0 192 144" version="1.1">
	<path d="M 0.086 58.750 C 0.174 119.087, 0.528 123.294, 3.594 100.500 C 5.094 89.347, 6.958 84.845, 10.353 84.177 C 13.108 83.635, 14.240 88.597, 13.507 98 C 13.142 102.675, 12.605 107.513, 12.314 108.750 C 11.286 113.109, 13.561 110.916, 18.006 103.262 C 24.822 91.526, 34 83.033, 34 88.463 C 34 89.202, 31.075 95.536, 27.500 102.538 C 23.925 109.540, 21 115.937, 21 116.755 C 21 117.584, 24.108 115.310, 28.016 111.623 C 35.464 104.597, 41.976 100, 44.480 100 C 47.662 100, 46.090 102.397, 36.074 112.821 C 28.327 120.883, 28.142 122.498, 35.250 120.014 C 43.847 117.010, 51 116.609, 51 119.131 C 51 120.488, 45.015 123.887, 40.500 125.094 C 38.300 125.682, 34.681 127.216, 32.458 128.502 C 29.158 130.411, 28.089 131.820, 26.639 136.170 C 25.662 139.102, 24.631 142.063, 24.348 142.750 C 23.939 143.744, 41.042 144, 107.917 144 L 192 144 192 140 L 192 136 184.659 136 C 176.547 136, 161.620 134.334, 158.500 133.081 C 153.914 131.238, 149.196 130, 146.762 130 C 145.335 130, 144.010 129.531, 143.819 128.957 C 143.628 128.383, 142.334 127.793, 140.943 127.644 C 139.553 127.496, 137.759 126.955, 136.958 126.443 C 135.494 125.507, 133.884 124.628, 127.788 121.437 C 125.980 120.490, 123.825 119.321, 123 118.838 C 122.175 118.355, 120.150 117.325, 118.500 116.549 C 116.850 115.774, 113.950 113.983, 112.056 112.569 C 110.161 111.156, 108.136 109.993, 107.556 109.985 C 106.975 109.977, 104.087 107.502, 101.137 104.485 C 98.187 101.468, 95.405 99, 94.955 99 C 94.505 99, 93.175 97.650, 92 96 C 90.825 94.350, 89.235 93, 88.467 93 C 87.699 93, 86.605 92.130, 86.036 91.068 C 85.467 90.005, 84.095 88.848, 82.987 88.496 C 81.878 88.144, 81.227 87.442, 81.540 86.936 C 81.852 86.430, 81.648 85.225, 81.085 84.258 C 80.521 83.291, 80.047 82.903, 80.030 83.396 C 79.985 84.727, 75.423 79.549, 73.787 76.310 C 71.911 72.595, 69.622 68.622, 69 68 C 66.915 65.915, 64 60.726, 64 59.100 C 64 58.010, 63.551 56.841, 63.003 56.502 C 61.785 55.749, 57.026 45.624, 55.952 41.500 C 55.523 39.850, 54.461 36.025, 53.594 33 C 51.620 26.118, 50.235 19.673, 49.619 14.500 C 49.357 12.300, 48.823 8.137, 48.432 5.250 L 47.721 -0 23.861 -0 L 0 0 0.086 58.750" stroke="none" fill="black" fill-rule="evenodd"/>
</svg>