<svg xmlns="http://www.w3.org/2000/svg" width="192" height="144" viewBox="0 0 192 144" version="1.1">
	<path d="M 0 72 L 0 144 43 144 C 83.282 144, 86.001 143.889, 86.010 142.250 C 86.016 141.287, 86.489 135.166, 87.060 128.647 C 88.019 117.724, 87.960 116.691, 86.316 115.489 C 84.760 114.351, 84.687 113.756, 85.742 110.838 C 88.098 104.321, 89.232 92.135, 87.971 86.877 C 87.050 83.041, 87.079 80.879, 88.106 76.750 C 88.825 73.862, 89.432 71.200, 89.456 70.833 C 89.480 70.467, 89.837 69.829, 90.250 69.417 C 90.662 69.004, 91 67.492, 91 66.056 C 91 63.417, 89.751 61.952, 84.750 58.727 C 78.971 55.001, 82.210 45.957, 90.592 42.412 C 97.265 39.591, 103.951 44.659, 106.369 54.370 C 111.703 75.794, 112.748 83.756, 113.538 109 C 113.840 118.625, 114.829 130.443, 115.736 135.262 L 117.387 144.024 154.943 143.762 L 192.500 143.500 192.519 71.500 C 192.530 31.900, 192.410 12.629, 192.254 28.676 L 191.970 57.852 189.226 57.065 C 178.908 54.106, 165.454 42.692, 160.861 33 C 156.012 22.770, 154.564 16.989, 154.662 8.250 L 154.754 0 77.377 0 L 0 0 0 72 M 0.474 72.500 C 0.474 112.100, 0.598 128.154, 0.750 108.176 C 0.901 88.198, 0.901 55.798, 0.750 36.176 C 0.598 16.554, 0.474 32.900, 0.474 72.500" stroke="none" fill="black" fill-rule="evenodd"/>
</svg>