<svg xmlns="http://www.w3.org/2000/svg" width="192" height="144" viewBox="0 0 192 144" version="1.1">
	<path d="M 0 72 L 0 144 21.750 143.921 C 33.712 143.878, 42.825 143.603, 42 143.310 C 38.814 142.179, 33 137.660, 33 136.314 C 33 133.633, 36.107 128.906, 40.753 124.517 C 45.329 120.194, 45.380 120.078, 43.575 118.083 C 42.017 116.361, 41.915 115.619, 42.908 113.222 C 44.946 108.302, 51.834 101.888, 62.750 94.744 C 66.737 92.135, 73.037 87.991, 76.750 85.536 C 83.261 81.230, 91 73.051, 91 70.477 C 91 69.791, 89.987 68.558, 88.750 67.736 C 80.499 62.259, 79.082 57.631, 83.474 50.500 C 84.829 48.300, 85.952 45.064, 85.969 43.309 C 85.986 41.554, 86.450 39.840, 87 39.500 C 87.550 39.160, 88 37.123, 88 34.972 C 88 31.908, 87.676 31.187, 86.500 31.638 C 85.675 31.955, 85 31.746, 85 31.173 C 85 30.601, 83.875 30.336, 82.500 30.586 C 80.850 30.885, 80 30.583, 80 29.698 C 80 28.960, 78.746 26.674, 77.212 24.618 C 74.733 21.292, 72.992 20.385, 61.462 16.405 C 54.333 13.945, 46.700 11.306, 44.500 10.542 C 35.602 7.451, 35.274 7.599, 31.339 16.500 C 26.393 27.688, 24.084 37.556, 23.400 50.434 C 22.852 60.752, 23.030 62.312, 26.036 73.500 C 30.550 90.299, 30.531 90.019, 27.572 95.858 C 22.155 106.548, 23.541 117.602, 31.225 124.986 C 35.034 128.646, 35.199 129, 33.088 129 C 29.592 129, 23.771 125.321, 21.308 121.555 C 17.431 115.629, 15.665 107.497, 16.344 98.696 C 16.984 90.398, 17.154 91.139, 10.665 73.980 C 4.284 57.104, 6.032 25.921, 14.494 5.668 C 15.322 3.686, 16 1.600, 16 1.032 C 16 0.409, 12.833 0, 8 0 L 0 0 0 72 M 37.388 2.488 C 42.418 5.902, 75.853 17.254, 78.742 16.529 C 82.087 15.689, 81.482 14.181, 77.500 13.434 C 75.575 13.073, 74 12.459, 74 12.069 C 74 11.680, 75.800 8.949, 78 6 C 80.200 3.051, 82 0.495, 82 0.319 C 82 0.144, 71.137 -0, 57.860 -0 L 33.721 -0 37.388 2.488 M 114.397 2.250 C 114.744 3.488, 115.296 6.330, 115.624 8.568 C 116.164 12.244, 115.919 12.890, 113.076 15.283 C 111.346 16.739, 108.747 19.336, 107.301 21.054 C 105.155 23.604, 104.932 24.340, 106.086 25.055 C 108.661 26.650, 137.427 33.278, 141.500 33.215 C 143.700 33.181, 147.545 33.991, 150.044 35.015 C 154.818 36.972, 168.519 39.970, 183.250 42.281 L 192 43.653 192 21.827 L 192 0 152.883 0 L 113.767 0 114.397 2.250 M 112.423 34.092 C 112.829 35.416, 113.420 37.625, 113.735 39 C 114.051 40.375, 115.359 42.884, 116.641 44.576 L 118.973 47.653 129.178 45 C 143.932 41.166, 143.644 39.569, 127.500 35.685 C 121.450 34.229, 115.416 32.733, 114.092 32.361 C 111.912 31.748, 111.754 31.912, 112.423 34.092 M 148.500 45.780 C 145.502 48.647, 141.871 50.542, 133.999 53.346 C 122.555 57.423, 121.283 57.647, 115.836 56.549 L 112.172 55.810 112.739 62.155 C 113.051 65.645, 113.973 69.527, 114.788 70.781 C 115.604 72.036, 116.004 73.329, 115.678 73.655 C 114.936 74.398, 117.955 80.011, 122.512 86.359 C 126.308 91.648, 126.737 93, 124.616 93 C 123.511 93, 123.680 94.557, 125.458 100.750 C 126.682 105.013, 128.265 111.968, 128.976 116.207 C 130.118 123.019, 130.078 124.315, 128.634 127.359 C 127.735 129.253, 127 131.349, 127 132.018 C 127 132.741, 126.190 133.021, 125 132.710 C 123.900 132.423, 123 132.595, 123 133.094 C 123 133.592, 123.665 134, 124.479 134 C 127.591 134, 172.436 123.267, 190.250 118.259 C 191.871 117.803, 192 115.355, 192 85.050 L 192 52.333 175.250 47.675 C 151.780 41.147, 153.237 41.250, 148.500 45.780 M 89 57 C 89 57.550, 89.450 58, 90 58 C 90.550 58, 91 57.550, 91 57 C 91 56.450, 90.550 56, 90 56 C 89.450 56, 89 56.450, 89 57" stroke="none" fill="black" fill-rule="evenodd"/>
</svg>