<svg xmlns="http://www.w3.org/2000/svg" width="192" height="144" viewBox="0 0 192 144" version="1.1">
	<path d="M 0 72 L 0 144 40 144 C 71.323 144, 80.004 143.729, 80.020 142.750 C 80.031 142.063, 80.494 138.575, 81.050 135 C 81.605 131.425, 81.976 124, 81.874 118.500 C 81.772 113, 81.703 105.013, 81.720 100.750 C 81.738 96.488, 81.471 93.008, 81.126 93.017 C 80.782 93.027, 79.394 94.200, 78.042 95.625 C 75.856 97.928, 75.080 98.141, 71.042 97.551 C 68.544 97.185, 64.025 96.650, 61 96.360 C 57.975 96.071, 54.825 95.589, 54 95.290 C 53.175 94.990, 47.775 94.690, 42 94.623 C 30.687 94.491, 28.766 93.328, 36.570 91.337 C 41.704 90.028, 44.580 88.087, 41.700 87.875 C 38.382 87.631, 38 87.489, 38.004 86.500 C 38.007 85.635, 41.012 85.364, 57 84.788 C 58.375 84.738, 62.351 85.410, 65.835 86.280 L 72.171 87.862 74.585 82.403 C 75.913 79.400, 77 76.003, 77 74.854 C 77 73.704, 78.369 71.205, 80.041 69.300 C 82.137 66.914, 82.889 65.227, 82.461 63.877 C 82.007 62.447, 82.806 61.031, 85.419 58.638 C 89.377 55.013, 90.062 52.910, 87.028 53.703 C 84.671 54.319, 79.348 48.593, 79.799 45.928 C 79.990 44.800, 79.061 43.868, 77.046 43.166 C 72.458 41.566, 71.408 38.299, 73.479 32.064 C 74.481 29.045, 76.179 26.273, 77.593 25.347 C 79.215 24.284, 80 22.829, 80 20.885 C 80 18.284, 80.327 18, 83.324 18 C 86.326 18, 86.741 17.638, 87.612 14.250 C 88.199 11.970, 89.101 10.614, 89.914 10.792 C 90.649 10.952, 92.062 10.349, 93.054 9.452 C 94.747 7.919, 95.041 8.074, 97.877 11.989 C 99.538 14.282, 101.438 17.810, 102.100 19.829 C 102.762 21.848, 104.351 24.881, 105.632 26.569 C 109.018 31.030, 110.735 36.661, 112.441 48.894 C 113.273 54.859, 115.251 63.285, 116.837 67.619 C 120.754 78.325, 122.534 88.133, 121.061 90.886 C 120.443 92.042, 120.019 94.453, 120.119 96.244 C 120.275 99.024, 118.497 106.025, 113.918 120.674 C 113.372 122.419, 112.649 128.387, 112.311 133.935 L 111.696 144.023 152.098 143.761 L 192.500 143.500 192.757 71.750 L 193.013 0 96.507 0 L 0 0 0 72 M 0.474 72.500 C 0.474 112.100, 0.598 128.154, 0.750 108.176 C 0.901 88.198, 0.901 55.798, 0.750 36.176 C 0.598 16.554, 0.474 32.900, 0.474 72.500" stroke="none" fill="black" fill-rule="evenodd"/>
</svg>