<svg xmlns="http://www.w3.org/2000/svg" width="192" height="144" viewBox="0 0 192 144" version="1.1">
	<path d="M 73.187 7.275 C 71.693 9.075, 70.631 18.217, 71.424 22.445 C 72.012 25.582, 72.444 26, 75.096 26 L 78.102 26 75.551 29.344 C 72.463 33.393, 72.309 35.646, 75.060 36.519 C 76.658 37.026, 77.007 37.772, 76.614 39.837 C 75.036 48.128, 74.827 51.225, 75.891 50.568 C 77.970 49.283, 77.153 56.551, 75 58.500 C 73.900 59.495, 73 60.733, 73 61.251 C 73 61.769, 72.293 64.624, 71.429 67.596 C 70.097 72.178, 69.497 73, 67.481 73 C 65.310 73, 65.189 73.244, 66.083 75.809 C 66.902 78.159, 66.387 80.240, 62.929 88.548 C 60.656 94.010, 57.850 100.284, 56.693 102.490 C 54.766 106.164, 54.615 107.839, 54.894 122.500 C 55.181 137.640, 55.838 141.524, 58.400 143.235 C 60.300 144.503, 117.854 144.146, 120.316 142.850 C 123.620 141.111, 123.968 140.106, 123.985 132.250 C 123.993 128.262, 124.430 125, 124.955 125 C 126.799 125, 127.363 117.886, 125.739 115.116 C 124.405 112.842, 124.393 112.326, 125.643 111.172 C 126.743 110.157, 126.931 108.393, 126.442 103.672 C 124.823 88.055, 121.715 78.167, 114.444 65.500 C 110.075 57.889, 109.843 57.095, 109.676 49.179 C 109.532 42.375, 109.819 40.569, 111.250 39.274 C 112.213 38.403, 113 36.410, 113 34.845 C 113 33.280, 113.435 32, 113.966 32 C 114.497 32, 116.724 28.755, 118.914 24.789 C 123.323 16.805, 123.181 15.811, 117.282 13.345 C 113.289 11.676, 103.815 11.585, 102.200 13.200 C 101.267 14.133, 100.733 14.133, 99.800 13.200 C 99.140 12.540, 96.938 12, 94.907 12 C 92.690 12, 91.002 11.449, 90.685 10.620 C 90.023 8.897, 81.720 6, 77.444 6 C 75.685 6, 73.769 6.574, 73.187 7.275 M 103.844 87.583 C 103.472 94.521, 104.264 107.580, 105.111 108.467 C 105.675 109.058, 105.779 104.788, 105.378 97.467 C 104.731 85.653, 104.148 81.901, 103.844 87.583 M 117 140.882 C 117 141.432, 117.450 142.160, 118 142.500 C 118.550 142.840, 119 142.668, 119 142.118 C 119 141.568, 118.550 140.840, 118 140.500 C 117.450 140.160, 117 140.332, 117 140.882" stroke="none" fill="black" fill-rule="evenodd"/>
</svg>