<svg xmlns="http://www.w3.org/2000/svg" width="192" height="144" viewBox="0 0 192 144" version="1.1">
	<path d="M -0 72.005 L -0 144.010 96.250 143.755 L 192.500 143.500 192.757 71.750 L 193.013 0 96.507 0 L 0 0 -0 72.005 M 0.474 72.500 C 0.474 112.100, 0.598 128.154, 0.750 108.176 C 0.901 88.198, 0.901 55.798, 0.750 36.176 C 0.598 16.554, 0.474 32.900, 0.474 72.500 M 154.249 71.420 C 148.808 73.398, 148.616 74.281, 152.733 78.423 C 154.805 80.508, 157.625 82.663, 159 83.213 C 161.299 84.132, 171.996 86.725, 183 89.029 C 185.475 89.548, 188.512 90.212, 189.750 90.505 C 191.901 91.015, 192 90.762, 192 84.756 L 192 78.474 183.750 76.222 C 158.614 69.361, 159.512 69.507, 154.249 71.420" stroke="none" fill="black" fill-rule="evenodd"/>
</svg>