<svg xmlns="http://www.w3.org/2000/svg" width="192" height="144" viewBox="0 0 192 144" version="1.1">
	<path d="M 91.500 7.492 C 88.325 8.898, 84.970 13.591, 85.340 16.109 C 85.610 17.948, 90.896 24.538, 97.211 30.905 C 100.804 34.528, 102.083 36.666, 102.602 39.913 C 102.977 42.255, 103.902 44.409, 104.659 44.700 C 106.946 45.577, 111.932 42.924, 113.736 39.870 C 114.668 38.292, 115.791 37, 116.230 37 C 117.182 37, 120.991 30.958, 120.996 29.439 C 120.998 28.856, 118.750 27.801, 115.999 27.096 C 112.773 26.270, 110.269 24.872, 108.942 23.157 C 105.271 18.414, 101.037 11.530, 101.018 10.276 C 101.003 9.273, 95.848 5.796, 94.800 6.082 C 94.635 6.126, 93.150 6.761, 91.500 7.492" stroke="none" fill="black" fill-rule="evenodd"/>
</svg>