<svg xmlns="http://www.w3.org/2000/svg" width="192" height="144" viewBox="0 0 192 144" version="1.1">
	<path d="M 179.571 2.656 C 175.653 4.694, 173.706 5.113, 170.071 4.697 C 156.039 3.094, 136.857 12.776, 133.484 23.166 C 132.002 27.733, 123.267 32.399, 117.778 31.557 C 114.566 31.064, 113.827 31.335, 112.385 33.536 C 110.793 35.966, 110.827 36.310, 113.107 40.793 C 115.269 45.043, 115.840 45.500, 118.984 45.500 C 121.646 45.500, 122.556 45.962, 122.847 47.458 C 123.478 50.712, 126.106 53.988, 128.582 54.610 C 129.867 54.932, 131.477 55.870, 132.160 56.692 C 133.182 57.925, 132.978 58.508, 131 60 C 129.034 61.483, 128.821 62.080, 129.828 63.292 C 131.901 65.790, 135.991 74.396, 135.996 76.269 C 135.999 77.656, 136.540 77.903, 138.500 77.411 C 140.459 76.919, 141 77.165, 141 78.547 C 141 80.219, 141.099 80.221, 142.909 78.582 C 144.732 76.933, 144.852 76.958, 145.540 79.125 L 146.261 81.396 148.200 79.002 C 149.802 77.023, 150.298 76.859, 151.054 78.053 C 152.281 79.992, 152.246 84.730, 151 85.500 C 150.450 85.840, 150 86.937, 150 87.938 C 150 90.496, 144.872 92.380, 139.771 91.696 C 137.466 91.387, 134.325 91.385, 132.790 91.692 C 130.479 92.154, 130 92.766, 130 95.257 C 130 98.180, 129.891 98.249, 126.056 97.734 C 122.627 97.274, 122.072 97.475, 121.806 99.275 C 121.573 100.851, 119.950 101.847, 115 103.452 C 111.425 104.612, 107.987 105.880, 107.359 106.272 C 106.704 106.681, 105.525 105.924, 104.586 104.490 C 103.688 103.120, 98.473 96.438, 92.997 89.643 L 83.042 77.287 71.027 73.051 C 60.801 69.445, 58.230 68.897, 53.756 69.371 C 40.285 70.800, 36.504 71.544, 36.600 72.750 C 36.655 73.438, 36.767 74.674, 36.850 75.497 C 36.932 76.321, 38.600 78.765, 40.555 80.929 C 42.569 83.158, 44.203 86.082, 44.325 87.675 C 44.486 89.765, 45.178 90.631, 47.021 91.045 C 48.384 91.351, 51.286 92.413, 53.468 93.405 C 56.324 94.703, 59.059 95.091, 63.228 94.790 L 69.020 94.371 75.260 103.345 C 84.954 117.286, 89.181 122.233, 94.402 125.750 C 99.894 129.450, 102.695 129.691, 115.500 127.567 C 119.900 126.837, 123.897 126.474, 124.382 126.760 C 124.867 127.047, 125.030 131.043, 124.743 135.641 L 124.221 144 144.030 144 L 163.839 144 165.520 138.941 L 167.200 133.881 172.850 134.561 C 180.064 135.430, 183.739 136.954, 188.323 140.978 L 192 144.207 192 135.804 C 192 130.601, 191.543 126.943, 190.800 126.200 C 189.867 125.267, 189.867 124.733, 190.800 123.800 C 191.707 122.893, 192 107.644, 192 61.300 L 192 0 188.250 0.047 C 186.188 0.072, 182.282 1.247, 179.571 2.656 M 183.617 84.716 C 183.278 85.056, 183 86.383, 183 87.667 C 183 90.699, 181.645 90.633, 179.592 87.500 C 177.281 83.973, 175.608 84.288, 176.371 88.105 C 176.876 90.632, 176.706 91.101, 175.458 90.622 C 172.999 89.679, 172.562 92.770, 174.351 98.446 C 175.258 101.322, 176 105.947, 176 108.723 C 176 113.080, 176.362 114.007, 178.653 115.508 C 181.235 117.200, 181.354 117.183, 183.115 114.873 C 185.056 112.328, 188.855 97.699, 189.705 89.500 C 190.220 84.531, 190.204 84.499, 187.229 84.299 C 185.582 84.189, 183.957 84.377, 183.617 84.716" stroke="none" fill="black" fill-rule="evenodd"/>
</svg>