<svg xmlns="http://www.w3.org/2000/svg" width="192" height="144" viewBox="0 0 192 144" version="1.1">
	<path d="M 0 72 L 0 144 55 144 C 85.250 144, 110 143.628, 110 143.174 C 110 138.832, 107.576 118.912, 106.328 113 C 104.234 103.081, 102.473 100.195, 97.771 98.977 C 95.697 98.440, 92.214 97.536, 90.030 96.970 C 87.031 96.191, 84.952 94.579, 81.530 90.378 C 77.663 85.630, 77 84.163, 77 80.350 C 77 76.329, 77.450 75.474, 81.500 71.788 C 83.975 69.535, 86 67.060, 86 66.287 C 86 65.514, 86.423 65.143, 86.940 65.463 C 87.457 65.782, 89.369 65.136, 91.190 64.026 C 97.569 60.137, 103.883 62.063, 108.965 69.449 C 112.832 75.069, 113.952 81.898, 111.596 85.493 C 109.997 87.934, 110.032 88.176, 112.437 91.328 C 114.494 94.026, 117.204 100.214, 120.524 109.798 C 120.802 110.599, 122.701 109.151, 125.487 106.015 C 129.359 101.654, 130 100.319, 130 96.606 C 130 93.606, 130.790 91.115, 132.574 88.486 L 135.149 84.692 133.136 81.970 C 131.975 80.400, 131.345 78.395, 131.648 77.236 C 132.280 74.821, 130.139 73.172, 128.904 75.122 C 128.287 76.096, 128.026 76.138, 128.015 75.266 C 128.004 74.375, 127.003 74.508, 124.410 75.744 L 120.821 77.456 117.937 73.978 C 116.351 72.065, 115.042 70.016, 115.027 69.424 C 115.012 68.833, 113.875 67.292, 112.500 66 C 111.125 64.708, 110 63.092, 110 62.409 C 110 61.726, 108.763 60.229, 107.250 59.083 C 104.945 57.336, 104.743 56.841, 106 56.028 C 110.741 52.959, 110.636 53.203, 108.250 50.811 C 107.013 49.570, 106 49.063, 106 49.684 C 106 50.931, 102.275 50.317, 100.255 48.737 C 99.570 48.201, 98.486 46.017, 97.847 43.884 C 96.966 40.944, 95.646 39.396, 92.389 37.488 C 90.026 36.103, 87.509 34.165, 86.796 33.182 C 86.083 32.199, 82.575 29.319, 79 26.781 C 70.923 21.048, 64.671 14.825, 63.956 11.807 C 63.657 10.544, 62.532 9.347, 61.456 9.148 C 58.687 8.634, 57.198 7.219, 55.368 3.362 L 53.772 0 26.886 0 L 0 0 0 72 M 189.750 11.689 C 188.637 11.980, 187.945 13.211, 187.850 15.073 C 187.767 16.683, 187.655 18.563, 187.600 19.250 C 187.545 19.938, 188.512 20.644, 189.750 20.820 C 191.829 21.115, 192 20.755, 192 16.070 C 192 13.281, 191.887 11.052, 191.750 11.116 C 191.613 11.180, 190.713 11.438, 189.750 11.689 M 190 109.941 C 190 110.459, 190.450 111.160, 191 111.500 C 191.550 111.840, 192 111.416, 192 110.559 C 192 109.702, 191.550 109, 191 109 C 190.450 109, 190 109.423, 190 109.941" stroke="none" fill="black" fill-rule="evenodd"/>
</svg>