<svg xmlns="http://www.w3.org/2000/svg" width="192" height="144" viewBox="0 0 192 144" version="1.1">
	<path d="M -0 72.005 L -0 144.010 96.250 143.755 L 192.500 143.500 192.757 71.750 L 193.013 0 136.995 0 L 80.976 0 81.607 4.250 C 83.536 17.241, 91.471 45.208, 95.365 52.740 C 97.162 56.214, 97.618 62.500, 96 61.500 C 95.450 61.160, 95 59.795, 95 58.467 C 95 56.791, 94.075 55.573, 91.980 54.490 C 82.697 49.689, 64.527 26.288, 56.497 8.790 L 52.500 0.080 26.250 0.040 L 0 0 -0 72.005 M 0.474 72.500 C 0.474 112.100, 0.598 128.154, 0.750 108.176 C 0.901 88.198, 0.901 55.798, 0.750 36.176 C 0.598 16.554, 0.474 32.900, 0.474 72.500" stroke="none" fill="black" fill-rule="evenodd"/>
</svg>