<svg xmlns="http://www.w3.org/2000/svg" width="192" height="144" viewBox="0 0 192 144" version="1.1">
	<path d="M 0 70 C 0 108.500, 0.337 139.993, 0.750 139.985 C 1.163 139.976, 12.525 139.083, 26 138 C 39.475 136.917, 51.400 136.014, 52.500 135.993 C 56.101 135.925, 49.963 132.048, 46.215 132.022 C 44.408 132.010, 41.790 131.254, 40.398 130.341 C 38.220 128.914, 37.941 128.151, 38.399 124.876 C 38.692 122.782, 40.163 118.691, 41.667 115.784 C 43.337 112.559, 44.489 108.617, 44.624 105.665 C 44.775 102.364, 45.657 99.668, 47.404 97.165 C 53.355 88.642, 56.289 86.382, 71 79 C 77.933 75.521, 82.918 72.211, 86.164 68.930 C 90.488 64.561, 92.322 61, 90.250 61 C 89.837 61, 87.587 59.252, 85.250 57.116 C 80.189 52.490, 79.829 49.591, 83.512 43.148 C 84.880 40.754, 86 37.582, 86 36.098 C 86 34.614, 86.395 32.972, 86.878 32.450 C 87.361 31.927, 87.981 29.363, 88.255 26.750 C 88.634 23.141, 88.423 22, 87.377 22 C 86.620 22, 86 22.498, 86 23.107 C 86 23.777, 85.309 23.921, 84.250 23.473 C 83.287 23.066, 81.696 22.766, 80.713 22.807 C 79.511 22.857, 78.735 21.924, 78.341 19.957 C 78.020 18.348, 77.409 17.247, 76.985 17.509 C 76.561 17.772, 75.945 16.916, 75.616 15.608 C 75.097 13.537, 72.849 12.502, 58.255 7.614 C 49.035 4.527, 40.262 2, 38.759 2 C 35.841 2, 35.687 2.248, 30.380 15.456 C 27.063 23.712, 24.802 36.715, 24.816 47.451 C 24.825 54.458, 25.449 58.531, 27.583 65.500 C 31.549 78.454, 31.695 81.696, 28.589 87.824 C 23.902 97.074, 25.362 108.384, 32.020 114.399 C 36.576 118.515, 36.779 119, 33.950 119 C 30.750 119, 26.345 116.318, 23.571 112.682 C 19.224 106.983, 17.878 101.518, 18.110 90.500 C 18.309 81.022, 18.122 80.004, 14.529 71 C 8.953 57.030, 7.326 45.705, 8.790 31.064 C 9.460 24.367, 11.183 15.275, 12.840 9.702 L 15.725 0 7.862 0 L 0 0 0 70 M 62.917 4.671 C 74.482 8.548, 76.689 9.007, 78.909 7.996 L 81.483 6.823 78.037 5.374 C 73.605 3.510, 73.472 3.342, 74.980 1.524 C 76.103 0.171, 74.746 0.010, 62.872 0.087 L 49.500 0.174 62.917 4.671 M 115.735 2.396 C 116.090 4.253, 115.038 5.972, 111.060 10.035 C 108.236 12.919, 106.090 15.771, 106.291 16.374 C 106.813 17.938, 132.258 24.050, 140 24.471 C 143.575 24.665, 147.973 25.577, 149.773 26.497 C 152.776 28.031, 172.350 31.800, 186.250 33.519 L 192 34.230 192 17.115 L 192 0 153.639 -0 L 115.277 -0 115.735 2.396 M 112.938 28.750 C 115.440 36.040, 117.919 39.274, 120.413 38.505 C 121.561 38.151, 125.875 36.959, 130 35.856 C 142.845 32.422, 142.126 30.893, 125.769 26.859 C 110.327 23.050, 110.950 22.958, 112.938 28.750 M 148.699 35.537 C 146.428 38.657, 141.015 41.441, 129.189 45.573 C 121.738 48.176, 119.255 48.647, 116.755 47.930 C 115.038 47.437, 113.381 47.285, 113.075 47.592 C 111.895 48.772, 112.211 58.559, 113.507 60.969 C 114.256 62.361, 115.117 64.680, 115.421 66.122 C 115.725 67.564, 117.557 70.939, 119.493 73.622 C 124.714 80.858, 125.658 82.975, 124.096 83.941 C 123.050 84.587, 123.102 86.139, 124.371 92.119 C 125.232 96.179, 126.432 102.989, 127.037 107.254 C 128.065 114.495, 128.001 115.183, 126.069 117.639 C 124.931 119.086, 124 120.884, 124 121.635 C 124 122.386, 123.100 123, 122 123 C 120.645 123, 120 123.667, 120 125.067 C 120 126.572, 120.477 126.990, 121.750 126.604 C 122.713 126.312, 125.750 125.582, 128.500 124.982 C 140.157 122.438, 167.433 115.625, 179.250 112.305 L 192 108.723 192 75.985 L 192 43.247 183.750 41.046 C 169.675 37.289, 152.548 33.045, 151.500 33.054 C 150.950 33.059, 149.690 34.176, 148.699 35.537 M 89 49.500 C 89 50.325, 89.450 51, 90 51 C 90.550 51, 91 50.325, 91 49.500 C 91 48.675, 90.550 48, 90 48 C 89.450 48, 89 48.675, 89 49.500" stroke="none" fill="black" fill-rule="evenodd"/>
</svg>