<svg xmlns="http://www.w3.org/2000/svg" width="192" height="144" viewBox="0 0 192 144" version="1.1">
	<path d="M 17.910 24.250 C 16.237 27.495, 12.855 31, 11.397 31 C 10.707 31, 9.548 30.423, 8.821 29.717 C 6.994 27.943, 1.321 24, 0.596 24 C 0.268 24, 0 40.431, 0 60.514 L 0 97.028 3.250 99.990 C 8.686 104.945, 11.761 104.818, 14.121 99.541 C 15.597 96.241, 20.443 88.157, 21.697 86.903 C 22.572 86.028, 23.743 86.296, 26.514 88.008 C 30.106 90.228, 30.209 90.235, 32.068 88.377 C 33.427 87.017, 34.053 84.721, 34.284 80.238 C 34.461 76.804, 35.040 73.560, 35.570 73.030 C 36.101 72.499, 38.324 71.694, 40.512 71.239 C 42.944 70.734, 44.612 69.778, 44.804 68.780 C 44.977 67.882, 43.476 64.673, 41.468 61.649 C 38.896 57.777, 38.012 55.538, 38.476 54.076 C 38.838 52.934, 39.554 52, 40.067 52 C 41.908 52, 40.948 48.838, 38.250 46.013 C 34.721 42.318, 26.489 38, 22.974 38 C 21.473 38, 19.709 37.354, 19.053 36.564 C 17.753 34.997, 18.509 32.966, 22.320 27.792 C 23.970 25.551, 24.093 24.817, 23.035 23.542 C 21.223 21.359, 19.261 21.630, 17.910 24.250 M 130.655 27.829 C 129.745 28.835, 129.001 30.522, 129.002 31.579 C 129.005 33.465, 134.258 40.454, 135.744 40.548 C 136.160 40.574, 138.075 41.585, 140 42.794 C 141.925 44.003, 147.775 46.830, 153 49.076 C 164.403 53.976, 167.835 57.353, 170.973 66.756 C 172.742 72.054, 173.319 76.502, 173.667 87.500 C 173.910 95.200, 174.315 102.501, 174.567 103.725 C 175.139 106.503, 179.022 107.621, 186.484 107.157 L 192 106.815 192 70.357 L 192 33.898 188.750 36.266 C 183.068 40.407, 173.655 44.744, 168.869 45.426 C 160.009 46.690, 146.936 39.671, 139.744 29.788 C 136.659 25.549, 133.362 24.838, 130.655 27.829 M 72 107.542 C 72 108.390, 73.418 112.102, 75.150 115.792 C 77.402 120.586, 78.329 124.069, 78.400 128 C 78.488 132.851, 78.757 133.537, 80.677 133.810 C 83.441 134.203, 84.593 135.618, 85.720 140 L 86.621 143.500 93.818 143.794 C 100.886 144.083, 101.035 144.037, 102.084 141.294 C 102.671 139.757, 102.898 136.925, 102.590 135 C 102.281 133.075, 101.624 128.463, 101.130 124.751 C 99.785 114.641, 96.453 110.561, 91.416 112.856 C 88.603 114.138, 86.610 118.270, 86.921 122.174 C 87.098 124.391, 86.796 124.759, 85.153 124.330 C 82.135 123.541, 79.604 120.178, 76.435 112.750 C 73.663 106.253, 72 104.300, 72 107.542 M 23.473 124.489 C 20.664 130.023, 19.506 133.688, 19.191 138.038 L 18.760 144 27.334 144 L 35.909 144 36.583 140.409 C 38.175 131.921, 33.821 117.832, 29.412 117.202 C 27.711 116.959, 26.608 118.311, 23.473 124.489 M 148.255 118.821 C 147.570 119.256, 146.189 122.028, 145.185 124.981 C 143.599 129.647, 142.976 130.399, 140.430 130.717 C 138.818 130.919, 135.580 131.804, 133.233 132.684 C 128.468 134.472, 126.986 137.478, 128.852 141.574 L 129.957 144 160.872 144 C 194.656 144, 193.020 144.297, 192.985 138.168 C 192.973 136.089, 192.758 135.831, 192.013 137 C 190.681 139.090, 188.086 137.342, 185.346 132.507 C 182.614 127.687, 174.363 119, 172.516 119 C 171.745 119, 170.037 120.805, 168.722 123.011 C 166.391 126.920, 166.286 126.973, 164.593 125.102 C 163.637 124.047, 161.425 122.639, 159.678 121.974 C 157.930 121.309, 155.082 120.143, 153.349 119.383 C 149.689 117.777, 149.869 117.797, 148.255 118.821 M 86.446 134.087 C 86.077 134.685, 86.275 135.675, 86.887 136.287 C 87.704 137.104, 88 136.815, 88 135.200 C 88 132.785, 87.481 132.413, 86.446 134.087 M 48.500 136.610 C 46.300 137.406, 42.925 139.382, 41 141.002 L 37.500 143.946 53.215 143.973 C 67.743 143.998, 69.008 143.854, 69.965 142.066 C 72.418 137.481, 71.424 136.269, 64.750 135.706 C 55.232 134.904, 52.844 135.037, 48.500 136.610 M 1.190 139.750 L 1.500 143.500 6.888 143.807 L 12.277 144.114 8.432 140.057 C 3.378 134.723, 0.764 134.613, 1.190 139.750" stroke="none" fill="black" fill-rule="evenodd"/>
</svg>