<svg xmlns="http://www.w3.org/2000/svg" width="192" height="144" viewBox="0 0 192 144" version="1.1">
	<path d="M 63.755 4.805 C 65.052 18.301, 58.381 35.523, 48.086 45.257 C 35.961 56.720, 13.657 63.077, 1.750 58.464 C 0.100 57.825, 0 60.247, 0 100.893 L 0 144 52.385 144 L 104.770 144 105.487 138.254 C 105.882 135.094, 107.702 127.735, 109.531 121.901 C 116.361 100.118, 118.451 79.913, 114.019 78.506 C 111.002 77.549, 109.774 73.337, 111.525 69.952 C 113.246 66.624, 112.890 66.502, 106.460 68.222 C 103.365 69.050, 101.668 69.112, 101.196 68.415 C 100.139 66.854, 95.075 65.224, 89.500 64.651 C 85.153 64.204, 72.075 60.573, 65.250 57.918 C 64.013 57.437, 63 56.297, 63 55.386 C 63 53.996, 63.729 53.828, 67.517 54.347 C 70.002 54.688, 73.264 55.598, 74.767 56.369 C 76.270 57.141, 81.560 58.323, 86.522 58.997 C 94.883 60.132, 95.799 60.081, 99.022 58.295 C 101.379 56.989, 103.306 56.599, 105 57.084 C 106.375 57.478, 109.585 57.845, 112.133 57.900 C 115.972 57.983, 116.856 57.657, 117.290 56 C 117.613 54.762, 117.320 54, 116.521 54 C 114.753 54, 111.722 49.168, 112.393 47.419 C 112.692 46.639, 112.512 46, 111.992 46 C 111.472 46, 110.331 44.909, 109.458 43.576 C 108.007 41.362, 108.007 40.887, 109.461 38.076 C 110.893 35.306, 110.900 34.707, 109.526 32.050 C 108.687 30.427, 108 28.852, 108 28.550 C 108 27.266, 113.389 28.180, 120.193 30.618 C 129.269 33.869, 132.618 37.151, 133.530 43.687 C 133.899 46.334, 134.831 50.428, 135.600 52.785 C 136.370 55.142, 137 58.551, 137 60.361 C 137 62.553, 137.811 64.414, 139.430 65.934 C 140.991 67.401, 141.830 69.261, 141.777 71.136 C 141.731 72.742, 142.412 76.406, 143.291 79.278 C 144.169 82.150, 145.419 89.447, 146.068 95.493 C 146.718 101.539, 147.444 106.993, 147.682 107.614 C 147.920 108.234, 147.436 109.422, 146.605 110.252 C 145.775 111.082, 145.374 112.040, 145.714 112.381 C 146.055 112.721, 145.583 113, 144.667 113 C 143.750 113, 143 113.301, 143 113.668 C 143 114.035, 145.205 119.098, 147.900 124.918 C 150.596 130.738, 153.370 137.422, 154.065 139.771 L 155.329 144.043 173.915 143.771 L 192.500 143.500 192.825 129 C 193.003 121.025, 192.837 88.737, 192.455 57.250 L 191.761 0 127.527 -0 L 63.294 -0 63.755 4.805 M 0.459 101 C 0.459 124.925, 0.589 134.713, 0.749 122.750 C 0.908 110.788, 0.908 91.213, 0.749 79.250 C 0.589 67.288, 0.459 77.075, 0.459 101 M 137.556 92 C 137.942 96.125, 138.519 99.945, 138.837 100.490 C 140.007 102.495, 140.573 96.347, 139.664 91.500 C 138.128 83.311, 136.772 83.633, 137.556 92" stroke="none" fill="black" fill-rule="evenodd"/>
</svg>