<svg xmlns="http://www.w3.org/2000/svg" width="192" height="144" viewBox="0 0 192 144" version="1.1">
	<path d="M 0 17.231 L 0 34.462 3.768 26.981 C 7.960 18.659, 12.387 11.870, 18.265 4.750 L 22.186 -0 11.093 -0 L 0 0 0 17.231 M 138 2.171 C 138 3.365, 138.684 5.098, 139.520 6.022 C 141.647 8.373, 142.548 22.034, 141.117 30.251 C 139.566 39.157, 134.882 48.224, 128.229 55.199 C 118.361 65.545, 108.612 70.227, 93.325 71.964 C 83.951 73.029, 75.364 76.527, 67.675 82.409 C 60.911 87.585, 57.470 91.774, 52.974 100.308 C 49.806 106.321, 48.866 109.439, 47.950 116.974 C 46.773 126.653, 47.051 130.034, 49.744 138.750 L 51.365 144 110.098 144 L 168.830 144 173.026 139.250 C 179.053 132.429, 182.704 126.888, 187.620 117.105 L 191.943 108.500 192.235 125.500 C 192.396 134.850, 192.357 118.425, 192.149 89 L 191.771 35.500 188.239 28 C 185.146 21.432, 177.812 9.425, 176.022 8 C 175.677 7.725, 174.127 5.813, 172.578 3.750 L 169.763 0 153.881 0 C 138.249 0, 138 0.034, 138 2.171 M 85.192 11.676 C 81.503 13.494, 77.998 19.362, 78.004 23.710 C 78.009 27.464, 81.260 32.565, 85.241 35.065 C 91.565 39.036, 102.004 36.283, 105.715 29.666 C 106.383 28.475, 106.945 25.728, 106.965 23.562 C 107.056 13.377, 95.045 6.820, 85.192 11.676 M 93.500 110.102 C 89.695 112.306, 88.045 115.352, 88.022 120.215 C 88.004 124.081, 88.559 125.567, 91.104 128.465 C 93.791 131.526, 94.809 132, 98.699 132 C 109.422 132, 114.415 121.064, 107.551 112.613 C 105.676 110.304, 104.236 109.648, 100.353 109.335 C 97.684 109.120, 94.600 109.466, 93.500 110.102 M 1.029 127.750 L 1 144 12.127 144 L 23.255 144 19.354 139.750 C 13.105 132.941, 9.925 128.380, 5.350 119.670 L 1.058 111.500 1.029 127.750" stroke="none" fill="black" fill-rule="evenodd"/>
</svg>