<svg xmlns="http://www.w3.org/2000/svg" width="192" height="144" viewBox="0 0 192 144" version="1.1">
	<path d="M 108 3 C 107.317 4.650, 106.362 6, 105.879 6 C 105.395 6, 105 6.482, 105 7.071 C 105 7.661, 104.325 8.818, 103.500 9.643 C 101.886 11.257, 101.665 14.292, 102.928 17.500 C 103.820 19.768, 102.634 23.056, 99.284 27.594 C 98.028 29.296, 97 31.193, 97 31.809 C 97 33.140, 93.799 35, 91.507 35 C 89.188 35, 82 28.976, 82 27.033 C 82 23.897, 77.074 21.453, 75.591 23.853 C 74.999 24.810, 76.572 30.124, 78.639 34.154 C 80.542 37.865, 80.336 41.929, 78 46.764 C 76.900 49.041, 76 51.870, 76 53.051 C 76 56.495, 78.954 61.755, 81.223 62.348 C 83.230 62.873, 83.287 63.315, 82.672 73.697 C 82.320 79.639, 81.239 88.550, 80.270 93.500 C 79.300 98.450, 78.506 105.763, 78.504 109.751 C 78.500 116.374, 78.166 117.484, 76.398 116.750 C 76.067 116.612, 75.730 114.215, 75.648 111.422 C 75.536 107.572, 74.836 105.473, 72.754 102.744 C 71.006 100.452, 70.247 98.520, 70.666 97.427 C 71.085 96.337, 70.649 95.216, 69.471 94.355 C 67.006 92.553, 65.647 92.639, 66.382 94.552 C 66.709 95.406, 66.563 95.848, 66.058 95.536 C 65.552 95.223, 64.881 95.384, 64.566 95.893 C 64.251 96.403, 62.025 96.789, 59.618 96.753 C 51.290 96.627, 44 103.682, 44 111.868 C 44 114.874, 43.591 116, 42.500 116 C 41.675 116, 41 116.477, 41 117.059 C 41 117.641, 40.627 117.888, 40.171 117.606 C 38.869 116.801, 33.383 122.323, 31.227 126.610 C 28.751 131.533, 27.797 136.736, 28.618 140.841 L 29.259 144.045 50.564 143.959 L 71.869 143.873 72.652 140.687 C 73.082 138.934, 73.449 136.825, 73.467 136 C 73.507 134.188, 76.902 129, 78.048 129 C 80.983 129, 79.451 137.827, 75.850 141.660 L 73.651 144 99.258 144 C 124.027 144, 124.886 143.934, 125.503 141.991 C 126.886 137.634, 125.455 127.171, 121.391 111.930 C 116.345 93.006, 115.657 84.295, 118.552 76 C 119.973 71.930, 120.475 67.747, 120.486 59.909 L 120.500 49.318 123.718 50.659 C 125.488 51.397, 127.175 52, 127.468 52 C 127.761 52, 127.996 49.188, 127.990 45.750 C 127.983 41.279, 127.302 38.043, 125.597 34.382 C 122.765 28.300, 119.843 26, 114.948 26 L 111.341 26 112.924 17.750 C 113.794 13.213, 114.780 9.050, 115.114 8.500 C 115.448 7.950, 115.510 5.813, 115.251 3.750 C 114.835 0.433, 114.462 0, 112.012 0 C 109.878 0, 108.958 0.688, 108 3 M 90.250 76.662 C 89.563 76.940, 89 78.258, 89 79.592 C 89 81.767, 89.206 81.888, 91 80.768 C 92.100 80.081, 93 78.727, 93 77.759 C 93 75.970, 92.480 75.762, 90.250 76.662 M 109.490 124.219 C 108.994 126.169, 109.416 127.937, 110.981 130.469 C 115.206 137.305, 116.517 133.560, 112.546 126 C 110.193 121.521, 110.179 121.513, 109.490 124.219 M 69 139.500 C 69 140.325, 69.450 141, 70 141 C 70.550 141, 71 140.325, 71 139.500 C 71 138.675, 70.550 138, 70 138 C 69.450 138, 69 138.675, 69 139.500" stroke="none" fill="black" fill-rule="evenodd"/>
</svg>