<svg xmlns="http://www.w3.org/2000/svg" width="192" height="144" viewBox="0 0 192 144" version="1.1">
	<path d="M 63.950 4.750 C 63.857 13.507, 62.916 21.373, 61.593 24.449 C 58.314 32.074, 55.577 36.971, 52 41.611 C 49.545 44.796, 40.864 51.427, 35.404 54.288 C 27.744 58.301, 17.836 60.314, 9.648 59.522 C 5.879 59.157, 2.166 58.617, 1.398 58.322 C 0.214 57.868, 0 64.388, 0 100.893 L 0 144 66.396 144 L 132.792 144 133.515 135.830 C 133.913 131.337, 135.090 124.700, 136.130 121.080 C 137.171 117.461, 138.490 111.575, 139.063 108 C 139.635 104.425, 140.336 100.375, 140.620 99 C 141.118 96.587, 141.082 96.567, 139.568 98.441 C 138.706 99.509, 138 101.819, 138 103.574 C 138 105.935, 137.474 106.904, 135.982 107.294 C 134.363 107.718, 131 105.873, 131 104.561 C 131 104.398, 133.508 99.288, 136.574 93.205 C 142.450 81.545, 142.566 80.423, 138.342 76.199 C 136.520 74.377, 136.665 73.307, 139.522 67.500 C 140.875 64.750, 141.986 61.986, 141.991 61.357 C 141.996 60.728, 142.675 59.955, 143.500 59.638 C 144.325 59.322, 145 58.122, 145 56.972 C 145 55.823, 144.563 55.152, 144.028 55.483 C 142.704 56.301, 138 53.104, 138 51.385 C 138 50.623, 137.155 50, 136.122 50 C 133.426 50, 131.790 47.568, 132.154 44.099 C 132.386 41.880, 131.710 40.306, 129.557 38.060 C 127.956 36.388, 126.987 34.679, 127.404 34.260 C 127.821 33.842, 132.738 33.367, 138.331 33.205 C 149.933 32.869, 153.543 34.253, 156.588 40.206 C 157.516 42.018, 159.520 45.087, 161.043 47.026 C 162.566 48.965, 164.595 53.015, 165.552 56.026 C 166.508 59.037, 168.401 62.998, 169.757 64.829 C 171.113 66.661, 172.809 70.382, 173.526 73.098 C 174.319 76.107, 175.986 79.118, 177.787 80.801 C 180.764 83.582, 186 92.796, 186 95.254 C 186 96.111, 184.533 96.634, 181.822 96.742 C 178.666 96.867, 177.138 96.369, 175.572 94.702 C 174.432 93.488, 172.359 91.596, 170.964 90.497 C 169.569 89.399, 167.615 87.375, 166.621 86 C 164.545 83.126, 164.525 83.022, 168.468 95.630 C 171.924 106.678, 172.214 109.815, 169.897 111.055 C 168.118 112.007, 168.132 112.224, 170.274 116.749 C 171.498 119.336, 175.088 126.132, 178.250 131.850 C 181.412 137.568, 184 142.667, 184 143.181 C 184 143.694, 185.912 143.977, 188.250 143.807 L 192.500 143.500 192.825 129 C 193.003 121.025, 192.837 88.737, 192.455 57.250 L 191.761 0 127.880 0 L 64 0 63.950 4.750 M 0.459 101 C 0.459 124.925, 0.589 134.713, 0.749 122.750 C 0.908 110.788, 0.908 91.213, 0.749 79.250 C 0.589 67.288, 0.459 77.075, 0.459 101 M 157.638 88.500 C 157.955 89.325, 158.391 90, 158.607 90 C 158.823 90, 159 89.325, 159 88.500 C 159 87.675, 158.564 87, 158.031 87 C 157.499 87, 157.322 87.675, 157.638 88.500" stroke="none" fill="black" fill-rule="evenodd"/>
</svg>