<svg xmlns="http://www.w3.org/2000/svg" width="192" height="144" viewBox="0 0 192 144" version="1.1">
	<path d="M 0 2.500 C 0 3.875, 0.173 5, 0.385 5 C 0.597 5, 1.507 3.875, 2.408 2.500 C 3.969 0.117, 3.951 0, 2.023 0 C 0.532 0, 0 0.657, 0 2.500 M 189.592 2.500 C 191.642 5.628, 192 5.628, 192 2.500 C 192 0.657, 191.468 0, 189.977 0 C 188.049 0, 188.031 0.117, 189.592 2.500 M 32 22.056 C 23.164 23.105, 16.249 25.191, 10.400 28.572 C 7.705 30.130, 5.275 31.651, 5 31.952 C 4.725 32.253, 3.600 32.999, 2.500 33.609 C 0.545 34.692, 0.494 35.891, 0.241 86.387 L -0.018 138.057 2.179 141.028 L 4.376 144 96.438 143.988 L 188.500 143.975 190.750 140.502 L 193 137.028 192.763 85.264 C 192.558 40.451, 192.489 38.367, 192.250 69.750 C 192.029 98.874, 191.717 106, 190.662 106 C 189.940 106, 188.292 107.125, 187 108.500 C 185.708 109.875, 184.055 111, 183.326 111 C 182.597 111, 182 111.398, 182 111.883 C 182 112.782, 178.203 114.334, 176.645 114.073 C 176.174 113.994, 175.205 114.415, 174.492 115.007 C 169.380 119.249, 152.757 120.382, 138 117.494 C 132.359 116.390, 117.502 107.691, 112.490 102.559 C 103.633 93.489, 98.448 82.942, 95.991 69 C 94.089 58.210, 86.545 44.993, 77.800 37.131 C 70.844 30.876, 64.695 27.149, 58.638 25.517 C 55.812 24.755, 54.175 24.048, 55 23.947 C 57.177 23.678, 43.967 21.076, 41 21.189 C 39.625 21.241, 35.575 21.631, 32 22.056 M 0.465 87 C 0.465 115.875, 0.593 127.687, 0.749 113.250 C 0.905 98.812, 0.905 75.187, 0.749 60.750 C 0.593 46.312, 0.465 58.125, 0.465 87 M 147.035 49.281 C 142.823 50.006, 140.940 50.940, 138.819 53.360 C 130.778 62.535, 135.071 77.544, 146.735 81.039 C 150.204 82.078, 151.486 82.023, 154.823 80.688 C 163.063 77.390, 166.822 71.029, 165.476 62.658 C 163.837 52.459, 157.076 47.555, 147.035 49.281 M 36.056 67.355 C 31.025 69.669, 28.812 72.983, 28.264 79.027 C 27.751 84.680, 27.794 84.794, 31.986 88.986 C 36.131 93.131, 36.341 93.212, 41.224 92.565 C 47.115 91.783, 50.556 89.759, 52.551 85.901 C 56.826 77.635, 51.633 67.375, 42.784 66.604 C 40.428 66.399, 37.400 66.736, 36.056 67.355" stroke="none" fill="black" fill-rule="evenodd"/>
</svg>