<svg xmlns="http://www.w3.org/2000/svg" width="192" height="144" viewBox="0 0 192 144" version="1.1">
	<path d="M 47.232 2 C 46.545 3.100, 45.263 4, 44.383 4 C 43.163 4, 42.937 4.612, 43.431 6.580 C 43.979 8.765, 43.797 9.070, 42.236 8.575 C 40.548 8.039, 40.446 8.464, 41.014 13.625 C 41.406 17.188, 42.253 19.712, 43.317 20.490 C 45.587 22.150, 45.445 24, 43.047 24 C 40.215 24, 36 26.120, 36 27.544 C 36 28.216, 35.041 29.018, 33.868 29.324 C 32.294 29.736, 31.878 30.426, 32.279 31.959 C 32.578 33.101, 32.261 34.596, 31.576 35.281 C 30.771 36.086, 30.110 41.381, 29.711 50.227 L 29.091 63.927 31.681 65.963 C 35.152 68.694, 38.618 68.529, 42.667 65.440 L 46.023 62.880 48.988 64.992 C 53.366 68.109, 55.431 75.717, 53.835 82.849 C 52.767 87.619, 52.821 88.320, 54.323 89.161 C 56.316 90.276, 55.825 93.125, 52.457 100 C 51.244 102.475, 49.019 109.675, 47.511 116 C 46.004 122.325, 43.472 131.074, 41.885 135.441 C 40.298 139.809, 39 143.522, 39 143.691 C 39 143.861, 52.945 144, 69.989 144 L 100.979 144 98.097 136.104 C 96.513 131.762, 93.788 122.719, 92.043 116.009 C 88.582 102.702, 87.495 99.719, 84.790 96.115 C 82.603 93.201, 82.524 91.183, 84.511 88.987 C 87.376 85.822, 88.101 66.790, 85.581 60.889 C 84.295 57.877, 90.374 56.072, 99.650 56.711 L 107.801 57.272 113.492 52.636 C 116.622 50.086, 119.607 48, 120.125 48 C 120.643 48, 122.627 46.440, 124.533 44.533 C 127.017 42.050, 128 40.176, 128 37.926 C 128 35.317, 128.296 34.913, 129.750 35.534 C 135.569 38.023, 140.030 36.754, 139.969 32.628 C 139.934 30.298, 135.566 26.532, 134.012 27.493 C 133.478 27.823, 132.103 27.590, 130.957 26.977 C 129.400 26.144, 128.508 26.163, 127.436 27.053 C 126.291 28.004, 126 27.924, 126 26.658 C 126 24.723, 121.776 22.173, 121.239 23.784 C 120.985 24.544, 119.984 24.542, 117.788 23.776 C 115.324 22.917, 114.471 22.992, 113.597 24.145 C 110.379 28.390, 107.942 29, 94.210 29 L 80.865 29 81.604 26.750 C 82.666 23.516, 82.193 19.274, 80.381 15.770 C 79.195 13.477, 79.067 12.207, 79.861 10.614 C 80.731 8.867, 80.814 5.568, 80.110 0.750 C 80.049 0.337, 72.908 0, 64.241 0 C 49.564 0, 48.395 0.137, 47.232 2 M 46.637 37.221 C 47.052 37.893, 47.296 39.693, 47.180 41.221 C 47.034 43.131, 47.443 44, 48.484 44 C 49.318 44, 50 43.617, 50 43.149 C 50 41.153, 47.725 36, 46.843 36 C 46.315 36, 46.222 36.550, 46.637 37.221 M 101 40.699 C 94.029 41.452, 93.416 42.399, 98.883 43.967 C 101.545 44.730, 102.465 44.496, 104.769 42.467 C 106.449 40.988, 106.923 40.113, 106 40.192 C 105.175 40.262, 102.925 40.490, 101 40.699" stroke="none" fill="black" fill-rule="evenodd"/>
</svg>