<svg xmlns="http://www.w3.org/2000/svg" width="192" height="144" viewBox="0 0 192 144" version="1.1">
	<path d="M 0 39.500 C 0 61.225, 0.256 79, 0.570 79 C 1.844 79, 10.256 72.642, 14.999 68.094 L 20.059 63.242 26.780 66.006 C 30.476 67.526, 37.301 70.621, 41.947 72.885 C 50.896 77.244, 56.605 78.079, 62.769 75.931 C 64.844 75.207, 66.987 75.178, 69.389 75.842 C 72.881 76.806, 72.999 76.740, 76.527 71.830 C 78.941 68.470, 81.566 66.195, 84.557 64.872 C 88.294 63.219, 88.984 62.477, 88.900 60.203 L 88.801 57.500 88.098 60 C 87.419 62.420, 87.359 62.436, 86.228 60.500 C 85.452 59.169, 85.051 58.984, 85.030 59.946 C 85.014 60.741, 83.686 59.320, 82.081 56.789 C 80.476 54.257, 78.226 51.889, 77.081 51.526 C 74.849 50.817, 74.379 49.502, 76 48.500 C 77.587 47.519, 77.160 45.725, 75.491 46.365 C 74.662 46.683, 72.815 46.500, 71.388 45.957 L 68.793 44.971 72.380 41.001 C 75.639 37.394, 75.913 36.642, 75.380 32.756 C 74.520 26.483, 76.440 20.535, 80.185 17.868 C 82.869 15.957, 84.878 15.587, 94.138 15.295 C 106.439 14.907, 110.848 16.122, 113.728 20.690 C 115.008 22.720, 116.194 23.432, 118 23.255 C 120.908 22.970, 124.534 25.890, 127.764 31.118 C 130.247 35.135, 130.540 38.153, 128.904 42.845 C 128.057 45.275, 128.138 46.956, 129.258 50.244 C 132.054 58.456, 128.522 70.338, 124.320 66.851 C 121.686 64.665, 119.221 57.146, 118.512 49.135 C 118.116 44.661, 117.397 41, 116.915 41 C 115.749 41, 114.650 45.555, 115.257 47.874 C 115.901 50.339, 114.285 53.047, 112.564 52.386 C 111.101 51.825, 110.633 52.901, 109.469 59.500 C 108.743 63.615, 108.420 63.405, 106.557 57.600 C 105.978 55.793, 105.827 55.814, 103.474 58.025 C 102.113 59.303, 101 60.912, 101 61.601 C 101 62.290, 103.403 63.954, 106.341 65.298 C 111.232 67.538, 114.999 71.240, 116.181 74.972 C 116.504 75.989, 118.479 76.559, 122.574 76.816 C 135.481 77.627, 137.659 77.390, 142.306 74.666 C 144.785 73.214, 150.521 70.175, 155.053 67.914 L 163.293 63.802 167.175 68.343 C 171.236 73.094, 181.930 80.725, 188.123 83.291 L 191.746 84.792 192.364 79.646 C 192.704 76.816, 192.987 57.738, 192.991 37.250 L 193 0 96.500 0 L 0 0 0 39.500 M 0.455 40 C 0.455 61.725, 0.587 70.612, 0.749 59.750 C 0.910 48.887, 0.910 31.112, 0.749 20.250 C 0.587 9.387, 0.455 18.275, 0.455 40 M 18.655 69.829 C 16.425 72.293, 16.526 72.731, 20 75.653 C 22.871 78.069, 23 78.520, 23 86.148 C 23 90.773, 22.612 93.878, 22.075 93.547 C 19.852 92.172, 11.957 80.553, 12.423 79.340 C 13.178 77.372, 12.062 77.685, 7.804 80.636 C 3.416 83.677, 3.299 84.056, 6 86.500 C 7.654 87.997, 8 89.580, 8 95.655 C 8 104.147, 6.558 105.257, 3 99.500 C 1.810 97.575, 0.649 96, 0.418 96 C 0.188 96, 0 106.800, 0 120 L 0 144 35 144 C 54.250 144, 70 143.795, 70 143.545 C 70 141.697, 75.667 123.725, 77.233 120.605 C 78.342 118.396, 79.378 113.848, 79.626 110.105 L 80.063 103.500 78.116 107.254 C 77.046 109.319, 73.994 114.040, 71.335 117.746 C 68.676 121.452, 65.311 126.288, 63.857 128.492 C 59.829 134.600, 56.164 138, 53.609 138 C 49.389 138, 45.151 135.886, 42.560 132.490 C 39.425 128.380, 39.263 126.574, 42.096 127.315 C 44.862 128.038, 46.997 127.156, 46.379 125.546 C 45.315 122.774, 48.989 120.894, 54.868 121.204 L 60.500 121.500 66.250 111.188 C 69.412 105.516, 72 99.694, 72 98.251 L 72 95.626 69 98.500 C 66.809 100.599, 66 100.948, 66 99.792 C 66 97.522, 70.026 84.725, 71.191 83.294 C 72.747 81.381, 71.175 80, 67.441 80 C 64.121 80, 64 80.135, 64 83.812 C 64 86.757, 63.032 88.893, 59.750 93.196 C 55.469 98.808, 52.266 101.600, 51.261 100.595 C 50.285 99.618, 54.097 85.572, 56.104 82.750 L 58.060 80 54.117 80 C 50.204 80, 50.182 80.021, 51.242 82.829 C 52.451 86.034, 50.268 99.949, 48.500 100.301 C 47.950 100.411, 46.268 96.979, 44.763 92.676 C 42.256 85.511, 42.147 84.616, 43.475 82.047 C 44.777 79.531, 44.750 79.089, 43.213 77.750 C 42.271 76.929, 40.600 75.793, 39.500 75.226 C 37.560 74.227, 37.511 74.467, 37.854 83.216 C 38.284 94.166, 37.446 94.340, 31.366 84.568 C 27.846 78.910, 27.293 77.360, 28.068 75.320 C 29.328 72.008, 29.489 72.290, 25.040 70.020 C 20.255 67.579, 20.679 67.592, 18.655 69.829 M 158.407 70.894 C 155.862 72.445, 155.389 73.290, 155.737 75.662 C 156.230 79.019, 154.744 80.631, 147.754 84.328 C 145.144 85.708, 141.125 88.449, 138.824 90.419 C 136.523 92.388, 134.128 94, 133.502 94 C 132.876 94, 130.458 92.537, 128.129 90.750 C 124.391 87.881, 123.930 87.090, 124.197 84 C 124.444 81.135, 124.135 80.448, 122.492 80.212 C 119.524 79.787, 116.286 82.423, 117.665 84.142 C 118.264 84.889, 119.259 88.462, 119.877 92.082 C 121.281 100.310, 121.294 100.050, 119.500 99.362 C 117.402 98.557, 117.585 100.567, 120.438 109.698 C 122.871 117.485, 126.097 130.485, 127.710 139 L 128.563 143.500 160.281 143.764 L 192 144.028 192 121.108 L 192 98.188 187 97.500 C 184.250 97.122, 182 96.405, 182 95.906 C 182 95.408, 180.313 94.993, 178.250 94.985 C 171.738 94.958, 171.333 93.636, 176.769 90.148 C 179.467 88.417, 182.198 87, 182.838 87 C 184.548 87, 184.252 85.311, 182.418 84.607 C 179.820 83.610, 178 83.914, 178 85.345 C 178 88.152, 174.164 90.175, 167.824 90.710 L 161.500 91.244 165.958 86.622 C 168.410 84.080, 171.223 82, 172.208 82 C 174.801 82, 174.414 80.682, 171.102 78.234 L 168.205 76.091 167.025 78.940 C 166.114 81.140, 164.477 82.287, 159.840 83.978 C 156.537 85.182, 153.629 85.963, 153.379 85.712 C 153.128 85.462, 154.364 82.939, 156.125 80.106 C 158.220 76.735, 160.220 74.743, 161.913 74.340 C 165.935 73.382, 166.256 72.940, 164.410 70.901 C 162.297 68.566, 162.224 68.566, 158.407 70.894 M 143.588 77.549 C 142.031 78.696, 141.871 79.380, 142.729 81.229 C 143.783 83.500, 143.783 83.500, 144.924 80.599 C 146.410 76.822, 145.962 75.799, 143.588 77.549 M 131 80.941 C 131 81.459, 131.450 82.160, 132 82.500 C 132.550 82.840, 133 84.291, 133 85.726 C 133 89.180, 133.577 88.373, 134.413 83.750 C 135.015 80.418, 134.863 80, 133.045 80 C 131.920 80, 131 80.423, 131 80.941 M 190 90.559 C 190 91.416, 190.450 91.840, 191 91.500 C 191.550 91.160, 192 90.459, 192 89.941 C 192 89.423, 191.550 89, 191 89 C 190.450 89, 190 89.702, 190 90.559 M 111.027 113 C 111.009 114.375, 112.104 118.200, 113.461 121.500 C 114.818 124.800, 116.802 130.425, 117.870 134 C 119.646 139.941, 119.821 140.184, 119.906 136.830 C 119.962 134.652, 118.184 128.557, 115.530 121.830 C 113.011 115.447, 111.045 111.591, 111.027 113" stroke="none" fill="black" fill-rule="evenodd"/>
</svg>