<svg xmlns="http://www.w3.org/2000/svg" width="192" height="144" viewBox="0 0 192 144" version="1.1">
	<path d="M 0 72 L 0 144 37.361 144 L 74.723 144 74.289 141.732 C 74.051 140.485, 75.282 134.297, 77.024 127.982 C 80.065 116.963, 80.346 114.803, 79.752 107 C 79.606 105.075, 80.276 100.800, 81.241 97.500 C 84.149 87.557, 86.172 76.942, 86.720 68.750 C 87.160 62.169, 87.002 61, 85.676 61 C 83.409 61, 80.796 56.950, 82.072 55.413 C 83.841 53.282, 95.312 51.846, 101.985 52.920 C 111.063 54.382, 111.948 55.606, 107.445 60.465 C 105.551 62.509, 105.037 63.905, 105.459 65.861 C 105.772 67.312, 106.229 71.167, 106.473 74.426 C 107.023 81.742, 107.546 84.388, 110.448 94.500 C 112.860 102.906, 113.408 109.369, 111.941 112.110 C 111.427 113.070, 111.480 115.139, 112.068 117.122 C 115.651 129.199, 118.002 139.824, 117.519 141.762 L 116.956 144.024 154.728 143.762 L 192.500 143.500 192.757 71.750 L 193.013 0 96.507 0 L 0 0 0 72 M 0.474 72.500 C 0.474 112.100, 0.598 128.154, 0.750 108.176 C 0.901 88.198, 0.901 55.798, 0.750 36.176 C 0.598 16.554, 0.474 32.900, 0.474 72.500" stroke="none" fill="black" fill-rule="evenodd"/>
</svg>