<svg xmlns="http://www.w3.org/2000/svg" width="192" height="144" viewBox="0 0 192 144" version="1.1">
	<path d="M 0 72 L 0 144 39.267 144 L 78.534 144 80.172 132.750 C 82.500 116.764, 82.502 105, 80.177 105 C 79.799 105, 77.542 106.834, 75.162 109.075 C 72.618 111.472, 70.239 112.922, 69.386 112.595 C 68.441 112.232, 67.591 112.990, 66.947 114.769 C 66.404 116.271, 65.423 118.548, 64.768 119.830 C 64.113 121.111, 63.663 123.203, 63.769 124.480 C 63.960 126.792, 61.684 128.541, 59.910 127.444 C 59.409 127.135, 58.985 127.471, 58.967 128.191 C 58.948 128.933, 58.081 128.477, 56.967 127.139 C 55.469 125.341, 55 125.162, 55 126.389 C 55 127.275, 54.550 128, 54 128 C 52.698 128, 52.719 123.869, 54.039 120.398 C 54.821 118.340, 54.760 117.470, 53.792 116.872 C 52.850 116.289, 53.592 114.934, 56.577 111.789 C 58.815 109.430, 61.409 106.266, 62.341 104.758 C 63.273 103.249, 66.390 100.829, 69.268 99.379 C 80.215 93.864, 81.485 92.075, 78.506 86.364 C 76.421 82.366, 76.585 80.584, 80.046 69.674 C 82.490 61.971, 83.726 59.574, 86.296 57.548 C 89.484 55.034, 89.488 55.022, 87 54.979 C 83.833 54.925, 79 50.738, 79 48.048 C 79 46.539, 78.353 46, 76.539 46 C 75.185 46, 73.123 44.987, 71.957 43.750 C 70.158 41.842, 69.933 40.751, 70.476 36.573 C 70.828 33.863, 71.996 30.410, 73.072 28.899 C 74.280 27.203, 74.927 24.879, 74.764 22.826 C 74.519 19.739, 74.734 19.477, 77.753 19.186 C 80.774 18.895, 80.968 18.658, 80.475 15.860 C 80.005 13.190, 80.175 12.921, 81.972 13.491 C 83.563 13.996, 84 13.689, 84 12.067 C 84 10.930, 84.514 10, 85.143 10 C 86.060 10, 91.798 15.496, 96.686 21.055 C 97.134 21.564, 98.871 23.073, 100.546 24.408 C 105.144 28.071, 108.751 35.649, 111.371 47.146 C 112.668 52.841, 115.410 61.100, 117.464 65.500 C 121.936 75.081, 124.005 84.087, 122.862 89 C 122.414 90.925, 122.037 95.102, 122.024 98.282 C 121.998 104.460, 120.125 110.256, 117.705 111.648 C 115.315 113.022, 113 124.312, 113 134.592 L 113 144.023 152.750 143.761 L 192.500 143.500 192.757 71.750 L 193.013 0 96.507 0 L 0 0 0 72 M 0.474 72.500 C 0.474 112.100, 0.598 128.154, 0.750 108.176 C 0.901 88.198, 0.901 55.798, 0.750 36.176 C 0.598 16.554, 0.474 32.900, 0.474 72.500" stroke="none" fill="black" fill-rule="evenodd"/>
</svg>