<svg xmlns="http://www.w3.org/2000/svg" width="192" height="144" viewBox="0 0 192 144" version="1.1">
	<path d="M 0 72.022 L 0 144.044 18.670 143.772 L 37.340 143.500 39.763 136 C 41.276 131.319, 43.937 126.129, 46.844 122.193 C 53.325 113.414, 56.096 107.831, 54.770 106.228 C 54.148 105.475, 53.830 100.980, 53.991 95.228 C 54.331 83.117, 54.335 83.339, 53.449 61.331 L 52.718 43.162 55.848 37.616 C 59.610 30.949, 59.057 27.611, 54.007 26.502 C 50.277 25.682, 50.523 23.986, 54.562 22.663 C 58.073 21.514, 62.387 18.340, 61.284 17.718 C 60.853 17.475, 59.150 16.960, 57.500 16.573 C 55.850 16.186, 53.041 14.886, 51.257 13.685 C 47.444 11.116, 46.816 8.438, 50.250 9.391 C 51.487 9.735, 53.572 10.301, 54.882 10.649 L 57.265 11.283 54.632 7.409 C 53.185 5.279, 52 2.740, 52 1.768 C 52 0.123, 50.195 0, 26 0 L 0 0 0 72.022 M 56.121 2.255 C 57.563 3.490, 60.023 6.245, 61.587 8.377 L 64.432 12.255 65.697 7.377 C 67.651 -0.159, 67.768 -0.001, 60.250 0.005 L 53.500 0.010 56.121 2.255 M 70.737 5.250 C 70.452 8.138, 70.302 10.595, 70.403 10.711 C 70.505 10.826, 72.573 9.607, 75 8 C 77.427 6.393, 79.620 5.287, 79.874 5.541 C 80.958 6.625, 77.208 11.449, 73.067 14.298 L 68.588 17.380 71.544 18.277 C 73.170 18.771, 75.929 19.124, 77.675 19.061 C 81.849 18.912, 82.690 20.502, 79.532 22.571 C 75.903 24.949, 76.115 29.046, 79.986 31.333 C 81.628 32.303, 84.216 34.727, 85.736 36.720 C 88.387 40.195, 88.504 40.840, 88.593 52.422 C 88.644 59.065, 89.026 66.442, 89.442 68.815 C 90.166 72.951, 90.276 73.060, 92.064 71.442 C 93.848 69.828, 96.329 69.824, 100.127 71.431 C 102.497 72.434, 103.222 68.666, 103.521 53.771 C 103.738 43.009, 104.096 40.502, 105.838 37.550 C 107.794 34.236, 107.819 33.825, 106.340 29.483 C 104.497 24.076, 105.133 16.579, 107.950 10.500 L 109.804 6.500 109.266 15.073 C 108.636 25.106, 110.144 31.575, 112.850 30.453 C 120.316 27.357, 126.518 28.023, 132.621 32.576 L 135.741 34.904 137.746 32.702 C 141.932 28.103, 142.255 26.346, 139.433 23.524 C 136.200 20.291, 136.692 18.641, 141.079 18 C 144.083 17.561, 144.538 17.104, 144.813 14.250 C 145.204 10.200, 147 9.942, 147 13.937 C 147 16.497, 147.403 16.913, 150.149 17.187 C 154.743 17.644, 156.057 20.313, 152.950 22.879 C 150.847 24.615, 150.343 24.696, 149.390 23.451 C 147.773 21.338, 147.325 21.626, 146.600 25.250 C 146.243 27.038, 144.322 30.953, 142.331 33.952 L 138.712 39.403 138.891 53.452 C 138.989 61.178, 138.601 71.094, 138.029 75.488 C 137.308 81.028, 137.309 85.930, 138.033 91.488 C 138.713 96.706, 138.747 101.228, 138.130 104.454 C 137.330 108.636, 137.496 110.077, 139.196 113.694 C 141.106 117.757, 141.624 118.110, 149.152 120.488 C 153.520 121.868, 158.377 123.661, 159.946 124.472 C 163.894 126.514, 169.741 133.568, 172.195 139.250 L 174.246 144 183.123 144 L 192 144 192 72 L 192 0 131.627 0 L 71.254 0 70.737 5.250 M 94.043 96.839 C 93.475 98.950, 91.848 101.988, 90.428 103.589 C 88.032 106.290, 87.884 107.006, 88.385 113.499 C 88.723 117.872, 88.585 119.947, 88.019 119.031 C 87.400 118.029, 87.015 119.455, 86.803 123.532 L 86.494 129.500 85.162 125.078 C 84.177 121.809, 83.596 121.027, 82.931 122.078 C 82.436 122.860, 82.024 124.426, 82.015 125.559 C 82.007 126.691, 81.312 128.491, 80.471 129.559 C 79.034 131.384, 78.971 131.290, 79.411 128 C 79.669 126.075, 79.549 122.925, 79.145 121 L 78.409 117.500 77.108 122.129 C 75.932 126.317, 76.034 127.556, 78.186 135.129 L 80.563 143.500 97.637 143.773 L 114.710 144.046 115.355 137.876 C 116.360 128.265, 116.127 123.473, 114.506 120.364 L 113.012 117.500 112.823 121.500 C 112.719 123.700, 112.722 126.768, 112.830 128.317 C 113.131 132.649, 111.336 130.591, 109.889 124.945 L 108.595 119.894 107.051 124.697 L 105.507 129.500 105.204 123.750 C 105.037 120.588, 104.585 118.001, 104.200 118.002 C 103.815 118.003, 103.655 115.259, 103.844 111.904 C 104.146 106.538, 103.890 105.486, 101.714 103.153 C 100.354 101.694, 98.702 98.813, 98.043 96.750 C 96.517 91.974, 95.346 92, 94.043 96.839" stroke="none" fill="black" fill-rule="evenodd"/>
</svg>