<svg xmlns="http://www.w3.org/2000/svg" width="192" height="144" viewBox="0 0 192 144" version="1.1">
	<path d="M 110.462 19.013 C 106.674 20.178, 102.278 24.717, 101.835 27.922 C 101.577 29.785, 100.478 30.683, 97.069 31.816 L 92.637 33.288 94.819 35.054 C 96.222 36.191, 97 37.940, 97 39.960 C 97 44.029, 99.437 48.686, 101.989 49.497 C 104.263 50.218, 104.506 51.094, 102.883 52.717 C 102.060 53.540, 102.076 54.185, 102.942 55.167 C 103.589 55.900, 104.985 57.962, 106.045 59.750 C 107.617 62.404, 108.595 63, 111.378 63 C 114.925 63, 116.431 64.714, 115.353 67.524 C 114.772 69.038, 113.743 69.022, 104.818 67.368 C 103.342 67.095, 98.469 67.407, 93.988 68.062 C 85.391 69.319, 85.453 69.328, 66.500 64.286 C 63.200 63.409, 59.749 62.621, 58.832 62.537 C 57.915 62.452, 54.722 60.297, 51.737 57.747 C 47.299 53.955, 45.342 52.982, 41.004 52.406 C 37.098 51.888, 35.886 52.007, 36.412 52.858 C 36.818 53.514, 36.390 54.297, 35.423 54.668 C 33.844 55.274, 33.853 55.419, 35.551 56.661 C 36.592 57.422, 36.843 58, 36.132 58 C 33.650 58, 36.184 60.003, 38.809 60.116 C 40.502 60.189, 40.851 60.402, 39.750 60.689 C 36.937 61.424, 37.737 63, 40.923 63 C 42.531 63, 45.119 64.062, 46.673 65.359 C 48.228 66.657, 50.959 68.467, 52.743 69.381 C 54.526 70.296, 55.876 71.566, 55.743 72.204 C 55.602 72.879, 57.595 73.728, 60.500 74.231 C 63.250 74.708, 68.574 76.006, 72.331 77.116 C 77.989 78.787, 79.039 79.422, 78.444 80.817 C 74.682 89.625, 75.506 93.313, 81.348 93.810 C 83.605 94.002, 85.362 94.808, 85.959 95.923 C 86.541 97.010, 88.495 97.937, 90.881 98.257 C 93.057 98.549, 98.677 100.237, 103.371 102.009 C 110.642 104.753, 112.359 105.071, 114.980 104.157 C 120.377 102.275, 121 103.207, 121 113.157 C 121 119.217, 120.508 123.050, 119.474 125.050 C 118.635 126.672, 118.174 128, 118.450 128 C 118.725 128, 118.499 129.186, 117.948 130.636 C 117.397 132.087, 116.688 134.899, 116.373 136.886 C 116.058 138.874, 115.379 141.287, 114.865 142.250 C 113.984 143.898, 115.623 144, 142.965 144 C 158.934 144, 172 143.765, 172 143.477 C 172 143.189, 169.863 139.261, 167.250 134.748 C 162.341 126.267, 156.684 119.922, 151.766 117.379 C 148.456 115.668, 148.968 114.005, 152.809 113.989 C 156.014 113.976, 163.662 111.749, 167.648 109.668 C 170.855 107.993, 175.190 103.601, 176.878 100.316 C 178.599 96.965, 178.220 89.869, 176.140 86.500 C 173.590 82.370, 157.545 66.375, 153.119 63.550 C 149.306 61.115, 144.100 56, 145.436 56 C 145.868 56, 145.161 55.141, 143.864 54.091 L 141.507 52.182 144.253 50.930 C 145.764 50.242, 147 49.147, 147 48.497 C 147 47.847, 148.578 46.465, 150.506 45.427 C 155.694 42.633, 154.827 41.612, 143.283 36.908 C 140.413 35.739, 137.810 33.977, 137.498 32.992 C 134.449 23.386, 120.198 16.017, 110.462 19.013 M 89.873 81.763 C 90.535 82.999, 93.099 84.482, 96.240 85.444 C 99.133 86.330, 103.039 87.550, 104.921 88.154 C 107.858 89.098, 108.530 88.996, 109.671 87.435 C 110.402 86.436, 111 84.579, 111 83.309 C 111 81.166, 110.587 80.999, 105.250 80.991 C 102.088 80.987, 97.085 80.693, 94.133 80.338 C 88.934 79.714, 88.800 79.758, 89.873 81.763" stroke="none" fill="black" fill-rule="evenodd"/>
</svg>