<svg xmlns="http://www.w3.org/2000/svg" width="192" height="144" viewBox="0 0 192 144" version="1.1">
	<path d="M 0.033 58.474 L 0.058 116.949 5.779 114.421 C 14.989 110.351, 19.849 107.150, 25.117 101.685 C 29.465 97.173, 29.983 96.190, 29.413 93.528 C 28.487 89.203, 28.263 89, 24.401 89 C 20.076 89, 14.371 86.160, 10.269 81.964 C 2.069 73.577, 3.889 54.731, 14.130 41.988 C 24.403 29.204, 45.282 24.351, 59.360 31.473 C 62.344 32.983, 65.762 35.539, 66.955 37.152 C 70.091 41.394, 71.735 50.078, 70.204 54.311 C 69.542 56.143, 69 58.800, 69 60.216 C 69 61.667, 67.909 63.817, 66.500 65.145 C 65.125 66.440, 63.060 69.412, 61.911 71.750 C 60.762 74.087, 59.363 76, 58.802 76 C 58.210 76, 58.051 77.065, 58.422 78.546 C 59.329 82.157, 54.062 87.483, 50.475 86.583 C 47.562 85.852, 47.538 85.959, 49.537 90.744 C 51.695 95.907, 52.265 103.851, 51.315 115.500 C 50.867 121, 50.645 129.666, 50.821 134.757 L 51.142 144.013 121.821 143.757 L 192.500 143.500 192.772 71.750 L 193.043 0 133.522 0 C 82.364 0, 74 0.202, 74 1.441 C 74 2.234, 73.479 3.204, 72.842 3.597 C 72.049 4.088, 71.862 3.634, 72.249 2.156 L 72.813 0 36.410 0 L 0.008 0 0.033 58.474 M 0.451 36.500 C 0.451 56.300, 0.585 64.542, 0.748 54.815 C 0.912 45.088, 0.912 28.888, 0.749 18.815 C 0.586 8.742, 0.452 16.700, 0.451 36.500 M 140 6.393 C 140 6.609, 140.675 7.045, 141.500 7.362 C 142.325 7.678, 143 7.501, 143 6.969 C 143 6.436, 142.325 6, 141.500 6 C 140.675 6, 140 6.177, 140 6.393 M 108.750 20.758 C 107.787 20.972, 107 21.564, 107 22.073 C 107 23.262, 111.703 23.289, 112.435 22.105 C 113.125 20.989, 111.078 20.241, 108.750 20.758 M 132 35 C 132 35.550, 132.450 36, 133 36 C 133.550 36, 134 35.550, 134 35 C 134 34.450, 133.550 34, 133 34 C 132.450 34, 132 34.450, 132 35 M 78.500 71 C 78.160 71.550, 78.332 72, 78.882 72 C 79.432 72, 80.160 71.550, 80.500 71 C 80.840 70.450, 80.668 70, 80.118 70 C 79.568 70, 78.840 70.450, 78.500 71 M 0.425 96 C 0.425 107.825, 0.569 112.663, 0.746 106.750 C 0.923 100.838, 0.923 91.163, 0.746 85.250 C 0.569 79.338, 0.425 84.175, 0.425 96 M 107 78 C 107 78.550, 107.477 79, 108.059 79 C 108.641 79, 108.840 78.550, 108.500 78 C 108.160 77.450, 107.684 77, 107.441 77 C 107.198 77, 107 77.450, 107 78 M 145.200 81.200 C 143.693 82.707, 143.645 85.662, 145.112 86.569 C 146.500 87.427, 147.964 85.225, 147.985 82.250 C 148.002 79.753, 147.018 79.382, 145.200 81.200 M 115.651 90.468 C 115.341 91.275, 115.518 92.202, 116.044 92.527 C 116.570 92.852, 117 92.191, 117 91.059 C 117 88.644, 116.444 88.401, 115.651 90.468 M 12.500 97 C 12.160 97.550, 12.584 98, 13.441 98 C 14.298 98, 15 97.550, 15 97 C 15 96.450, 14.577 96, 14.059 96 C 13.541 96, 12.840 96.450, 12.500 97 M 133.500 99 C 132.505 100.100, 132.140 101, 132.690 101 C 133.240 101, 134.505 100.100, 135.500 99 C 136.495 97.900, 136.860 97, 136.310 97 C 135.760 97, 134.495 97.900, 133.500 99 M 177 107 C 177 107.550, 177.423 108, 177.941 108 C 178.459 108, 179.160 107.550, 179.500 107 C 179.840 106.450, 179.416 106, 178.559 106 C 177.702 106, 177 106.450, 177 107 M 110 108.777 C 110 110.075, 113.049 114, 114.057 114 C 115.638 114, 115.110 111.409, 113.171 109.655 C 111.198 107.869, 110 107.538, 110 108.777 M 59.705 125.762 C 57.650 128.046, 56.955 133.087, 58.613 133.678 C 60.041 134.188, 62.266 128.867, 61.832 125.978 C 61.501 123.774, 61.493 123.774, 59.705 125.762 M 1.160 134.750 L 1 144 18.107 144 C 33.295 144, 35.146 143.823, 34.607 142.418 C 34.273 141.548, 34 139.973, 34 138.918 C 34 137.417, 33.287 137, 30.723 137 C 28.920 137, 26.503 136.340, 25.351 135.534 C 23.825 134.465, 20.822 134.123, 14.271 134.274 C 4.153 134.507, 2.347 133.701, 1.718 128.676 C 1.499 126.929, 1.248 129.662, 1.160 134.750 M 165.694 127.639 C 164.629 128.704, 165.964 129.951, 167.526 129.352 C 168.331 129.043, 168.740 128.388, 168.435 127.895 C 167.787 126.846, 166.598 126.735, 165.694 127.639 M 120.904 129.615 C 119.744 131.013, 119.818 131.181, 121.449 130.865 C 122.486 130.664, 123.522 129.938, 123.750 129.250 C 124.344 127.466, 122.490 127.704, 120.904 129.615 M 183.079 129.583 C 183.127 130.748, 183.364 130.985, 183.683 130.188 C 183.972 129.466, 183.936 128.603, 183.604 128.271 C 183.272 127.939, 183.036 128.529, 183.079 129.583 M 40.667 136.667 C 40.300 137.033, 40 138.833, 40 140.667 C 40 143.729, 40.252 144, 43.107 144 C 45.529 144, 46.080 143.651, 45.607 142.418 C 45.273 141.548, 45 139.748, 45 138.418 C 45 136.740, 44.439 136, 43.167 136 C 42.158 136, 41.033 136.300, 40.667 136.667" stroke="none" fill="black" fill-rule="evenodd"/>
</svg>