<svg xmlns="http://www.w3.org/2000/svg" width="192" height="144" viewBox="0 0 192 144" version="1.1">
	<path d="M 0 72 L 0 144 5.335 144 L 10.671 144 12.202 138.500 C 13.044 135.475, 13.343 133, 12.866 133 C 11.362 133, 11.929 126.736, 13.600 124.890 C 14.480 123.917, 15.198 121.407, 15.195 119.311 C 15.192 117.215, 16.126 113.475, 17.271 111 C 18.415 108.525, 19.426 104.250, 19.517 101.500 C 19.608 98.750, 20.005 95.771, 20.399 94.879 C 20.853 93.852, 20.568 93.048, 19.621 92.685 C 18.584 92.287, 17.227 93.707, 15.178 97.339 C 11.378 104.073, 9.525 105.680, 7.500 104 C 5.247 102.130, 5.524 97, 7.878 97 C 10.668 97, 11.585 95.406, 15.464 83.815 C 19.801 70.852, 19.988 68, 16.500 68 C 13.474 68, 13.479 68.082, 16.142 61.892 L 18.283 56.914 15.728 51.707 C 10.795 41.654, 11.302 32.143, 17.124 25.512 C 18.796 23.608, 23.490 20.214, 27.556 17.969 C 34.585 14.089, 38.660 12.968, 51.250 11.450 C 55.944 10.884, 56.001 10.834, 56.047 7.189 L 56.094 3.500 58.797 6.988 C 60.284 8.906, 63.637 12.639, 66.248 15.283 C 71.532 20.634, 73.252 23.498, 74.932 29.743 C 76.227 34.557, 79.701 37, 85.250 37 C 90.607 37, 92.597 40.434, 89.608 44.521 C 88.443 46.115, 87.962 46.213, 86.652 45.126 C 84.399 43.256, 82.973 44.614, 83.647 47.986 C 84.407 51.783, 80.567 60, 78.033 60 C 74.857 60, 73.731 62.603, 74.186 68.892 C 74.506 73.315, 74.302 74.669, 73.369 74.311 C 72.657 74.038, 71.234 75.581, 70.042 77.917 C 67.875 82.165, 67.587 82.317, 62.250 82.025 C 60.068 81.905, 59 82.300, 59 83.226 C 59 84.172, 61.999 85.196, 68.523 86.479 C 78.496 88.439, 81.137 89.925, 79.074 92.411 C 78.393 93.231, 78.290 94.061, 78.828 94.394 C 79.337 94.709, 80.783 97.561, 82.040 100.733 C 85.256 108.843, 85.358 108.932, 90.226 107.838 C 95.434 106.668, 107.746 106.494, 115 107.488 C 132.504 109.888, 153.009 123.879, 160.712 138.681 L 163.500 144.037 178 143.768 L 192.500 143.500 192.757 71.750 L 193.013 0 96.507 0 L 0 0 0 72 M 0.474 72.500 C 0.474 112.100, 0.598 128.154, 0.750 108.176 C 0.901 88.198, 0.901 55.798, 0.750 36.176 C 0.598 16.554, 0.474 32.900, 0.474 72.500 M 76.500 10 C 76.840 10.550, 77.965 11, 79 11 C 80.035 11, 81.160 10.550, 81.500 10 C 81.862 9.415, 80.824 9, 79 9 C 77.176 9, 76.138 9.415, 76.500 10 M 131.100 59.900 C 128.401 62.599, 128.421 64.225, 131.148 63.820 C 133.967 63.400, 135.871 60.471, 134.328 58.928 C 133.491 58.091, 132.658 58.342, 131.100 59.900 M 41 85 C 41 85.550, 41.450 86, 42 86 C 42.550 86, 43 85.550, 43 85 C 43 84.450, 42.550 84, 42 84 C 41.450 84, 41 84.450, 41 85 M 26.904 89.615 C 25.744 91.013, 25.818 91.181, 27.449 90.865 C 28.486 90.664, 29.522 89.938, 29.750 89.250 C 30.344 87.466, 28.490 87.704, 26.904 89.615 M 33.500 123.250 C 32.661 125.305, 33.494 128, 34.969 128 C 36.172 128, 36.197 126.322, 35.037 123.500 C 34.282 121.664, 34.156 121.644, 33.500 123.250 M 34 133.094 C 34 134.346, 33.197 135.397, 32 135.710 C 30.433 136.120, 30 137.074, 30 140.117 C 30 143.765, 30.182 144, 33 144 L 36 144 36 137.500 C 36 133.833, 35.564 131, 35 131 C 34.450 131, 34 131.942, 34 133.094" stroke="none" fill="black" fill-rule="evenodd"/>
</svg>