<svg xmlns="http://www.w3.org/2000/svg" width="192" height="144" viewBox="0 0 192 144" version="1.1">
	<path d="M 0 4.417 C 0 7.014, 0.515 9.041, 1.250 9.338 C 2.250 9.741, 2.250 9.858, 1.250 9.921 C 0.263 9.983, 0 24.109, 0 77 L 0 144 30.750 143.921 C 59.395 143.848, 61.209 143.739, 57.250 142.338 C 53.623 141.054, 53 140.424, 53 138.039 C 53 136.502, 52.328 134.687, 51.507 134.006 C 50.414 133.098, 50.178 131.660, 50.628 128.633 C 51.413 123.350, 58.894 115.368, 67.671 110.449 C 71.716 108.182, 76.763 103.861, 82.317 97.908 L 90.792 88.826 88.646 85.455 C 87.466 83.601, 85.713 82.066, 84.750 82.042 C 82.343 81.984, 82.553 80.310, 85.140 78.925 C 87.189 77.828, 87.251 77.333, 86.602 67.288 C 86.158 60.421, 86.288 56.358, 86.978 55.527 C 87.776 54.565, 87.361 54.111, 85.266 53.655 C 81.122 52.755, 79.990 51.672, 79.549 48.188 C 79.218 45.575, 79.631 44.740, 81.923 43.386 C 83.449 42.485, 86.134 39.552, 87.891 36.869 C 92.096 30.446, 95 28.603, 99.883 29.257 C 110.316 30.657, 115.692 41.886, 107.432 45.026 C 106.086 45.537, 105.098 46.303, 105.235 46.728 C 105.682 48.111, 102.529 51.750, 100.490 52.205 C 98.765 52.590, 98.944 52.906, 101.838 54.575 C 105.031 56.417, 110 65.005, 110 68.682 C 110 70.769, 114.317 78.168, 117.518 81.567 C 119.038 83.180, 120.070 83.833, 119.813 83.017 C 119.336 81.506, 122.975 79, 125.648 79 C 126.428 79, 129.246 80.105, 131.911 81.455 C 134.575 82.805, 138.948 84.440, 141.627 85.088 C 147.706 86.559, 166.288 95.155, 165.259 96.021 C 163.290 97.677, 146.665 103.202, 139.697 104.516 C 131.410 106.078, 128.537 107.198, 127.587 109.239 C 127.119 110.244, 126.882 110.247, 126.417 109.250 C 126.096 108.562, 124.971 108, 123.917 108 C 122.862 108, 122 107.502, 122 106.893 C 122 106.284, 121.339 106.040, 120.532 106.349 C 118.703 107.051, 117.537 105.404, 119.155 104.404 C 119.954 103.910, 119.633 103.408, 118.171 102.868 C 115.983 102.058, 115.143 100, 117 100 C 117.550 100, 118 99.652, 118 99.227 C 118 98.802, 116.200 98.455, 114 98.455 C 111.800 98.455, 110 98.780, 110 99.177 C 110 99.575, 110.724 107.910, 111.610 117.700 C 112.495 127.490, 113.283 137.417, 113.360 139.761 L 113.500 144.022 153 143.761 L 192.500 143.500 192.733 71.750 L 192.965 -0 96.483 -0 L 0 0 0 4.417 M 0.272 5 C 0.272 7.475, 0.467 8.488, 0.706 7.250 C 0.944 6.012, 0.944 3.988, 0.706 2.750 C 0.467 1.512, 0.272 2.525, 0.272 5 M 172.441 3.468 C 171.374 4.276, 170.976 4.951, 171.559 4.968 C 172.141 4.986, 173.491 4.339, 174.559 3.532 C 175.626 2.724, 176.024 2.049, 175.441 2.032 C 174.859 2.014, 173.509 2.661, 172.441 3.468 M 0.472 77 C 0.472 114.125, 0.597 129.313, 0.750 110.750 C 0.902 92.188, 0.902 61.813, 0.750 43.250 C 0.597 24.688, 0.472 39.875, 0.472 77 M 36.872 22.750 C 35.629 24.336, 35.664 24.371, 37.250 23.128 C 38.916 21.821, 39.445 21, 38.622 21 C 38.415 21, 37.627 21.788, 36.872 22.750 M 15 39 C 15 39.550, 15.450 40, 16 40 C 16.550 40, 17 39.550, 17 39 C 17 38.450, 16.550 38, 16 38 C 15.450 38, 15 38.450, 15 39 M 18.500 42 C 18.160 42.550, 18.557 43, 19.382 43 C 20.207 43, 21.160 42.550, 21.500 42 C 21.840 41.450, 21.443 41, 20.618 41 C 19.793 41, 18.840 41.450, 18.500 42 M 168.571 42.571 C 167.707 43.436, 167 44.551, 167 45.050 C 167 46.362, 171.792 43.984, 172.414 42.365 C 173.130 40.498, 170.503 40.640, 168.571 42.571 M 175 46.393 C 175 46.609, 175.698 47.054, 176.552 47.382 C 177.442 47.723, 177.843 47.555, 177.493 46.989 C 176.906 46.038, 175 45.583, 175 46.393 M 42.543 47.931 C 42.226 48.443, 42.425 49.144, 42.984 49.490 C 43.543 49.835, 44 49.416, 44 48.559 C 44 46.802, 43.400 46.544, 42.543 47.931 M 168.079 50.583 C 168.127 51.748, 168.364 51.985, 168.683 51.188 C 168.972 50.466, 168.936 49.603, 168.604 49.271 C 168.272 48.939, 168.036 49.529, 168.079 50.583 M 28.813 72.683 C 29.534 72.972, 30.397 72.936, 30.729 72.604 C 31.061 72.272, 30.471 72.036, 29.417 72.079 C 28.252 72.127, 28.015 72.364, 28.813 72.683 M 107.032 81.250 C 107.049 83.037, 107.612 85.214, 108.282 86.087 C 109.736 87.980, 113.970 90.363, 114.658 89.675 C 115.121 89.212, 108.111 78, 107.358 78 C 107.161 78, 107.014 79.463, 107.032 81.250 M 30 83.559 C 30 84.416, 30.457 84.835, 31.016 84.490 C 31.575 84.144, 31.774 83.443, 31.457 82.931 C 30.600 81.544, 30 81.802, 30 83.559" stroke="none" fill="black" fill-rule="evenodd"/>
</svg>