<svg xmlns="http://www.w3.org/2000/svg" width="192" height="144" viewBox="0 0 192 144" version="1.1">
	<path d="M 2.082 0.750 C 2.222 2.034, 15.319 13.213, 18.913 15.116 C 23.597 17.597, 28.626 22.545, 32.515 28.500 C 34.311 31.250, 36.943 34.580, 38.364 35.900 C 40.809 38.171, 41.403 38.264, 49.474 37.644 C 56.554 37.099, 58 37.234, 58 38.437 C 58 39.234, 57.041 40.558, 55.869 41.380 C 54.508 42.332, 53.965 43.467, 54.368 44.517 C 54.716 45.422, 54.325 47.126, 53.500 48.304 C 52.521 49.701, 52 52.825, 52 57.294 C 52 62.841, 51.513 64.976, 49.437 68.517 C 47.756 71.385, 46.381 72.700, 45.437 72.338 C 44.647 72.034, 44 72.065, 44 72.406 C 44 74.460, 48.202 87.659, 49.474 89.600 C 50.313 90.882, 51 92.174, 51 92.473 C 51 93.203, 46.683 90.756, 45.804 89.528 C 44.543 87.768, 43.708 92.063, 44.831 94.528 C 45.542 96.089, 45.579 97.142, 44.936 97.540 C 44.392 97.876, 44.012 98.679, 44.092 99.325 C 44.442 102.162, 43.924 103.185, 42.426 102.610 C 41.560 102.278, 40.195 102.662, 39.394 103.464 C 38.592 104.265, 36.263 105.223, 34.218 105.591 C 29.817 106.384, 28 107.640, 28 109.890 C 28 111.227, 30.562 111.954, 41.698 113.778 C 49.231 115.012, 55.768 116.579, 56.225 117.261 C 56.681 117.942, 56.832 119.720, 56.560 121.211 C 56.288 122.702, 56.445 124.157, 56.909 124.444 C 57.373 124.730, 59.258 129.248, 61.098 134.482 L 64.443 144 128.222 144 L 192 144 192 72 L 192 0 97 0 C 44.750 0, 2.037 0.337, 2.082 0.750 M 91.473 46.044 C 90.782 47.161, 92.276 49.683, 96.481 54.500 C 99.035 57.427, 99.083 57.439, 98.452 55 C 97.812 52.524, 93.367 45, 92.545 45 C 92.310 45, 91.828 45.470, 91.473 46.044" stroke="none" fill="black" fill-rule="evenodd"/>
</svg>