<svg xmlns="http://www.w3.org/2000/svg" width="192" height="144" viewBox="0 0 192 144" version="1.1">
	<path d="M 0 72 L 0 144 41.893 144 C 79.171 144, 83.853 143.826, 84.393 142.418 C 85.421 139.740, 85.065 132.077, 83.821 130.085 C 82.877 128.573, 82.977 127.685, 84.321 125.633 C 85.795 123.383, 86 119.548, 86 94.202 C 86 78.324, 86.236 65.098, 86.524 64.810 C 86.811 64.522, 88.136 64.495, 89.467 64.749 C 91.210 65.082, 92.078 66.092, 92.569 68.356 C 93.207 71.297, 94.516 72.949, 96.237 72.985 C 97.146 73.004, 99.345 67.821, 102.122 59.112 C 103.282 55.476, 104.640 51.701, 105.139 50.725 C 105.821 49.394, 105.452 48.393, 103.663 46.725 C 102.351 45.501, 100.964 43.375, 100.581 42 C 99.812 39.242, 97.325 32.715, 95.747 29.317 C 94.553 26.745, 95.318 24.199, 97.541 23.346 C 100.051 22.383, 103.875 24.674, 106.128 28.492 C 108.550 32.598, 111.705 33.107, 114.595 29.859 C 119.831 23.973, 132.070 22.254, 141.095 26.136 C 143.826 27.311, 145.837 28.496, 145.563 28.770 C 145.289 29.044, 145.945 30.385, 147.019 31.751 C 148.094 33.117, 148.719 34.646, 148.409 35.148 C 147.582 36.486, 147.622 45.775, 148.479 51.233 C 149.199 55.821, 149.125 56.020, 146.039 57.733 C 143.113 59.358, 142.896 59.822, 143.355 63.500 C 143.714 66.379, 144.628 68.060, 146.620 69.500 C 150.667 72.426, 160.735 82.902, 163.762 87.337 C 165.985 90.594, 166.390 92.292, 166.440 98.573 L 166.500 105.973 171.341 107.717 L 176.182 109.461 175.561 114.980 C 174.375 125.520, 173.051 139.513, 173.026 141.786 C 173 144.033, 173.170 144.067, 182.750 143.786 L 192.500 143.500 192.757 71.750 L 193.013 0 148.115 0 L 103.217 0 102.648 2.265 C 102.141 4.285, 101.425 4.545, 96.035 4.669 C 90.433 4.798, 89.946 4.632, 89.387 2.404 L 88.783 -0 44.392 -0 L 0 0 0 72 M 0.474 72.500 C 0.474 112.100, 0.598 128.154, 0.750 108.176 C 0.901 88.198, 0.901 55.798, 0.750 36.176 C 0.598 16.554, 0.474 32.900, 0.474 72.500 M 86 35.535 C 86 40.787, 86.489 43.817, 87.615 45.535 C 89.901 49.023, 90.786 48.617, 91.505 43.750 C 91.997 40.419, 91.581 38.256, 89.579 33.750 C 88.175 30.587, 86.795 28, 86.513 28 C 86.231 28, 86 31.391, 86 35.535 M 86 53 C 86 54.253, 87.061 54.253, 89 53 C 90.213 52.216, 90.069 52.028, 88.250 52.015 C 87.013 52.007, 86 52.450, 86 53 M 117 143 C 117 143.550, 117.450 144, 118 144 C 118.550 144, 119 143.550, 119 143 C 119 142.450, 118.550 142, 118 142 C 117.450 142, 117 142.450, 117 143" stroke="none" fill="black" fill-rule="evenodd"/>
</svg>