<svg xmlns="http://www.w3.org/2000/svg" width="192" height="144" viewBox="0 0 192 144" version="1.1">
	<path d="M 120 1.809 C 120 2.804, 120.661 4.491, 121.468 5.559 C 123.567 8.333, 123.397 8.674, 119.608 9.289 C 108.577 11.079, 96.866 20.618, 93.134 30.853 C 91.914 34.197, 90.486 37.200, 89.958 37.526 C 89.431 37.851, 89 38.568, 89 39.118 C 89 39.668, 89.450 39.840, 90 39.500 C 90.595 39.132, 91 40.327, 91 42.455 C 91 44.419, 91.563 46.994, 92.250 48.176 C 93.955 51.109, 99.218 55.935, 100.750 55.971 C 102.615 56.014, 102.262 58.397, 99.956 61.329 L 97.912 63.928 99.956 65.204 C 101.080 65.907, 102 67.221, 102 68.126 C 102 69.030, 103.125 70.507, 104.500 71.408 C 105.875 72.309, 107 73.752, 107 74.615 C 107 75.478, 107.900 77.329, 109 78.727 C 110.100 80.126, 111 82.559, 111 84.135 C 111 85.711, 111.367 87, 111.815 87 C 112.264 87, 113.105 90.263, 113.685 94.250 C 114.638 100.800, 114.560 101.689, 112.883 103.459 C 111.039 105.405, 111.016 105.405, 109.526 103.459 C 108.701 102.382, 106.597 99.025, 104.851 96 C 102.279 91.544, 101.719 89.547, 101.900 85.478 C 102.344 75.512, 98.791 71, 90.500 71 C 87.475 71, 85 70.550, 85 70 C 85 69.450, 84.502 69, 83.893 69 C 83.284 69, 83.031 69.638, 83.330 70.417 C 83.691 71.358, 82.637 72.335, 80.187 73.328 C 74.870 75.484, 72.288 78.338, 71.515 82.912 C 70.185 90.786, 75.647 102.775, 81.596 105.037 L 83.870 105.901 81.994 110.700 C 78.501 119.636, 75.658 134.234, 76.420 139.316 L 77.123 144 88.409 144 L 99.696 144 101.395 140.250 C 102.329 138.188, 104.001 135.375, 105.109 134 L 107.124 131.500 106.748 137.750 L 106.372 144 140.726 144 C 173.322 144, 175.284 143.896, 179.075 141.962 C 181.273 140.841, 182.791 139.471, 182.449 138.918 C 182.107 138.365, 182.372 137.257, 183.036 136.456 C 185.229 133.815, 180.169 134.756, 174.384 138.066 C 168.804 141.259, 167 141.227, 167 137.936 C 167 136.866, 165.404 129.869, 163.453 122.387 C 161.502 114.906, 160.121 108.270, 160.385 107.642 C 160.649 107.014, 161.173 107.513, 161.549 108.750 C 161.925 109.987, 162.622 111, 163.097 111 C 163.573 111, 165.101 113.138, 166.494 115.750 L 169.027 120.500 168.448 112.500 C 168.004 106.381, 168.137 104.853, 169.012 106 C 169.924 107.195, 170.040 106.890, 169.584 104.500 C 169.270 102.850, 168.772 99.250, 168.478 96.500 L 167.944 91.500 169.651 95 C 170.589 96.925, 172.273 100.445, 173.392 102.823 C 175.650 107.619, 177.652 109.615, 176.453 105.875 C 174.994 101.326, 174.215 97, 174.855 97.007 C 175.210 97.011, 176.770 98.924, 178.321 101.257 L 181.142 105.500 180.611 102 C 180.318 100.075, 179.603 90.625, 179.020 81 C 178.437 71.375, 177.237 59.007, 176.351 53.515 C 174.550 42.340, 166.977 18.270, 163.662 13.182 C 161.139 9.309, 155.349 6, 151.096 6 C 148.842 6, 147.680 5.267, 146.341 3 L 144.569 0 132.284 0 C 121.099 0, 120 0.162, 120 1.809" stroke="none" fill="black" fill-rule="evenodd"/>
</svg>