<svg xmlns="http://www.w3.org/2000/svg" width="192" height="144" viewBox="0 0 192 144" version="1.1">
	<path d="M 112.598 14.606 C 112.159 15.749, 111.264 16.032, 109.491 15.587 C 106.713 14.890, 106.520 15.235, 108.069 18.130 C 108.856 19.600, 108.807 20.527, 107.884 21.640 C 106.919 22.803, 106.905 23.323, 107.821 23.890 C 108.589 24.364, 106.639 26.336, 102.353 29.419 C 96.881 33.355, 95.134 34.121, 92.572 33.705 C 89.978 33.285, 89.257 33.616, 88.284 35.678 C 87.272 37.823, 87.508 38.795, 90.037 42.906 C 92.595 47.063, 92.836 48.081, 91.968 51.078 C 91.423 52.960, 90.511 57.393, 89.941 60.928 C 88.944 67.113, 88.998 67.443, 91.371 69.644 C 92.728 70.902, 94.503 72.879, 95.314 74.039 C 96.600 75.873, 98.156 76.623, 101.302 76.923 C 101.742 76.966, 100.889 78.125, 99.405 79.500 C 97.747 81.037, 95.526 82, 93.642 82 C 91.749 82, 89.604 82.935, 88.038 84.444 C 80.371 91.827, 78.208 93.757, 75.295 95.812 L 72.089 98.073 70.428 94.786 C 66.929 87.867, 65.422 87, 56.891 87 C 52.622 87, 47.997 87.431, 46.613 87.957 C 42.220 89.627, 38.087 101.052, 41.415 102.329 C 43.607 103.170, 45.977 102.104, 45.379 100.546 C 44.680 98.724, 47.066 98.065, 51.977 98.724 C 55.302 99.170, 57.454 100.451, 62.103 104.756 C 67.611 109.855, 68.249 110.176, 71.634 109.541 C 73.629 109.167, 76.993 107.767, 79.111 106.430 C 83.704 103.531, 84.312 103.441, 83.572 105.773 C 83.263 106.748, 83.689 111.099, 84.520 115.442 C 86.008 123.218, 85.998 123.374, 83.832 125.678 C 82.436 127.165, 80.971 127.808, 79.817 127.442 C 78.595 127.054, 78 127.372, 78 128.414 C 78 129.265, 76.905 130.237, 75.567 130.573 C 71.146 131.682, 53.391 130.117, 45.881 127.955 C 41.821 126.787, 34.706 124.752, 30.070 123.433 C 21.940 121.120, 20.048 119.952, 20.015 117.225 C 19.996 115.587, 15.582 113.901, 12.715 114.437 C 11.497 114.665, 8.138 114.885, 5.250 114.926 L 0 115 0 129.500 L 0 144 61.051 144 L 122.102 144 119.407 140.467 L 116.713 136.935 118.761 134.717 C 121.917 131.299, 124.042 125.237, 125.001 116.913 C 125.531 112.318, 126.716 107.901, 128.007 105.714 C 129.689 102.862, 130.001 101.193, 129.490 97.785 C 128.962 94.260, 129.236 92.969, 130.987 90.744 C 132.165 89.245, 132.884 87.622, 132.584 87.136 C 132.284 86.651, 129.555 85.038, 126.519 83.553 C 123.484 82.068, 121 80.467, 121 79.995 C 121 79.522, 122.318 78.197, 123.929 77.050 C 130.588 72.309, 132.407 65.248, 129.837 54.115 C 128.737 49.348, 128.817 48.871, 131.337 45.235 C 134.153 41.171, 134.796 38, 132.804 38 C 130.069 38, 117.506 27.380, 116.193 23.958 C 115.386 21.856, 120.269 24.615, 122.657 27.611 C 124.144 29.475, 125.685 31, 126.082 31 C 126.479 31, 127.298 29.583, 127.902 27.852 C 129.297 23.848, 128.425 22.748, 120.810 18.904 C 117.614 17.291, 115 15.303, 115 14.486 C 115 12.505, 113.372 12.587, 112.598 14.606" stroke="none" fill="black" fill-rule="evenodd"/>
</svg>