<svg xmlns="http://www.w3.org/2000/svg" width="192" height="144" viewBox="0 0 192 144" version="1.1">
	<path d="M -0 72.005 L -0 144.010 96.250 143.755 L 192.500 143.500 192.757 71.750 L 193.013 0 178.507 0 C 170.528 0, 164 0.146, 164 0.325 C 164 0.615, 185.765 17.916, 190.282 21.217 C 191.857 22.369, 192.031 23.997, 191.782 35.277 L 191.500 48.034 186.500 44.726 C 183.750 42.906, 167.675 32.099, 150.778 20.709 L 120.055 0 60.028 0 L 0 0 -0 72.005 M 0.474 72.500 C 0.474 112.100, 0.598 128.154, 0.750 108.176 C 0.901 88.198, 0.901 55.798, 0.750 36.176 C 0.598 16.554, 0.474 32.900, 0.474 72.500 M 79.281 37.545 C 78.204 38.697, 79.240 42.412, 80.930 43.457 C 82.466 44.406, 82.191 49.164, 80.468 51.441 C 79.661 52.509, 79 54.676, 79 56.257 C 79 57.838, 78.520 60.027, 77.934 61.123 C 77.348 62.218, 76.844 67.026, 76.815 71.807 C 76.785 76.640, 76.063 82.843, 75.189 85.777 C 73.943 89.963, 73.852 91.720, 74.749 94.277 C 75.916 97.601, 75.452 102.587, 73.780 104.706 C 72.411 106.441, 73.726 108, 76.559 108 C 78.762 108, 79.001 107.585, 79.015 103.750 C 79.036 98.045, 80.096 96.446, 82.873 97.932 C 84.378 98.737, 85.571 98.765, 86.952 98.026 C 88.779 97.048, 88.923 97.381, 89.202 103.240 C 89.429 108.005, 89.858 109.500, 91 109.500 C 92.168 109.500, 92.565 107.902, 92.793 102.290 L 93.086 95.080 97.032 92.862 C 102.016 90.061, 102.614 88.124, 100.049 83.096 C 98.922 80.886, 97.873 78.253, 97.720 77.244 C 97.566 76.236, 96.490 73.802, 95.330 71.835 C 93.968 69.527, 93.528 67.771, 94.088 66.880 C 94.564 66.121, 94.732 64.783, 94.460 63.907 C 94.188 63.031, 94.893 61.135, 96.027 59.693 C 98.002 57.181, 98.018 56.935, 96.409 53.786 C 95.485 51.979, 94.115 50.140, 93.365 49.700 C 91.918 48.852, 91.486 43.847, 92.750 42.584 C 93.162 42.171, 93.521 40.746, 93.546 39.417 C 93.583 37.529, 93.036 36.959, 91.046 36.814 C 84.412 36.328, 80.172 36.592, 79.281 37.545 M 92 57.559 C 92 58.416, 92.450 58.840, 93 58.500 C 93.550 58.160, 94 57.459, 94 56.941 C 94 56.423, 93.550 56, 93 56 C 92.450 56, 92 56.702, 92 57.559" stroke="none" fill="black" fill-rule="evenodd"/>
</svg>