<svg xmlns="http://www.w3.org/2000/svg" width="192" height="144" viewBox="0 0 192 144" version="1.1">
	<path d="M 131.628 2.866 C 129.497 5.090, 127.692 5.855, 123.569 6.281 C 110.584 7.621, 99 18.675, 99 29.726 C 99 32.641, 95.630 35.872, 89.303 39.023 C 86.661 40.338, 84.308 41.551, 84.073 41.718 C 83.838 41.884, 84.956 43.388, 86.556 45.059 C 89.026 47.637, 90 48.014, 92.984 47.553 C 96.129 47.066, 96.712 47.351, 98.514 50.254 C 99.924 52.529, 101.421 53.598, 103.514 53.827 C 107.398 54.252, 108.424 55.340, 107.163 57.696 C 106.353 59.210, 106.555 59.866, 108.138 60.854 C 109.718 61.841, 109.997 62.738, 109.469 65.139 C 108.855 67.935, 108.960 68.092, 110.786 67.115 C 112.392 66.255, 112.743 66.360, 112.634 67.667 C 112.479 69.529, 117.694 70.298, 119.750 68.717 C 120.579 68.079, 121 68.133, 121 68.878 C 121 70.872, 122.746 70.068, 123.451 67.750 C 123.884 66.326, 124.329 65.973, 124.663 66.788 C 125.493 68.809, 122.350 74.475, 119.575 75.960 C 118.192 76.700, 115.937 78.926, 114.564 80.907 C 113.192 82.888, 110.440 85.385, 108.450 86.457 C 105.292 88.158, 104.903 88.766, 105.397 91.233 C 105.859 93.547, 105.519 94.262, 103.522 95.172 C 101.561 96.065, 101.273 96.642, 102.058 98.107 C 102.819 99.529, 102.415 100.623, 100.225 103.074 L 97.417 106.216 91.061 98 C 85.496 90.806, 83.885 89.412, 78.103 86.788 C 70.907 83.523, 61.606 82.339, 52.250 83.495 C 47.536 84.078, 47 84.392, 47 86.572 C 47 87.907, 47.858 89.858, 48.908 90.908 C 50.784 92.784, 50.782 92.824, 48.779 93.347 C 46.974 93.820, 47.331 94.452, 51.938 98.940 C 56.947 103.818, 57.337 104, 62.823 104 C 65.953 104, 69.962 103.585, 71.732 103.077 C 75.567 101.977, 76.685 103.067, 84.508 115.534 C 87.253 119.910, 92.136 126.096, 95.357 129.280 L 101.214 135.069 99.744 139.535 L 98.274 144 119.106 144 C 141.519 144, 142.262 143.788, 136.015 139.169 C 133.864 137.579, 132.956 135.887, 132.453 132.532 C 131.631 127.056, 134.308 115.150, 137.181 111.497 C 138.927 109.278, 139.891 109, 145.850 109 C 150.403 109, 153.349 109.528, 155.027 110.645 C 159.185 113.410, 168.980 123.204, 173.129 128.745 C 175.289 131.630, 178.189 134.733, 179.573 135.640 C 181.982 137.218, 182.205 137.181, 184.795 134.766 C 186.283 133.379, 188.512 131.724, 189.750 131.087 C 191.916 129.973, 192 129.423, 192 116.358 C 192 104.967, 191.769 102.875, 190.563 103.338 C 184.412 105.698, 180.483 106.062, 173.436 104.925 C 168.009 104.050, 165.673 104.026, 164.695 104.838 C 163.677 105.683, 162.598 105.299, 160.153 103.223 L 156.947 100.500 159.093 96.220 C 160.584 93.245, 161.735 92.078, 162.869 92.391 C 163.766 92.639, 165.487 93.124, 166.694 93.470 C 168.381 93.954, 169.303 93.452, 170.681 91.300 C 171.666 89.760, 173.107 88.008, 173.883 87.406 C 175.048 86.503, 174.551 85.373, 171.028 80.916 C 168.682 77.948, 165.667 73.040, 164.329 70.010 C 162.990 66.979, 161.140 63.375, 160.217 62 C 159.294 60.625, 158.021 58.038, 157.387 56.250 C 156.315 53.224, 156.386 53, 158.418 53 C 159.618 53, 161.143 53.543, 161.807 54.207 C 162.750 55.150, 163.360 55.069, 164.593 53.836 C 166.030 52.398, 165.902 52.067, 163.156 50.111 C 161.498 48.930, 159.187 46.420, 158.021 44.533 C 156.035 41.321, 155.982 40.706, 157.187 34.873 C 158.251 29.721, 159.303 27.735, 163.267 23.399 C 166.245 20.140, 167.644 17.898, 166.962 17.476 C 166.358 17.103, 163.192 16.556, 159.925 16.260 C 155.294 15.840, 154.217 15.443, 155.034 14.459 C 155.611 13.764, 157.189 12.919, 158.541 12.579 C 160.476 12.093, 161 11.316, 161 8.931 C 161 7.264, 160.313 4.573, 159.474 2.950 L 157.949 0 146.161 0 C 134.492 0, 134.347 0.029, 131.628 2.866 M 154.211 63.601 C 153.501 64.370, 152.039 65, 150.961 65 C 149.536 65, 149 65.683, 149 67.500 C 149 70.429, 148.329 70.608, 145.829 68.345 C 144.113 66.792, 144 66.819, 144 68.778 C 144 69.987, 143.159 71.132, 142 71.500 C 139.378 72.332, 139.454 72.975, 143 80 C 144.856 83.678, 146 87.482, 146 89.980 C 146 93.747, 146.132 93.935, 147.971 92.786 C 149.932 91.561, 151.675 88.311, 152.414 84.500 C 152.628 83.400, 153.491 79.800, 154.332 76.500 C 155.956 70.135, 156.752 63.407, 155.970 62.654 C 155.712 62.405, 154.920 62.831, 154.211 63.601" stroke="none" fill="black" fill-rule="evenodd"/>
</svg>