<svg xmlns="http://www.w3.org/2000/svg" width="192" height="144" viewBox="0 0 192 144" version="1.1">
	<path d="M -0 72.005 L -0 144.010 96.250 143.755 L 192.500 143.500 192.757 71.750 L 193.013 0 96.507 0 L 0 0 -0 72.005 M 0.474 72.500 C 0.474 112.100, 0.598 128.154, 0.750 108.176 C 0.901 88.198, 0.901 55.798, 0.750 36.176 C 0.598 16.554, 0.474 32.900, 0.474 72.500 M 153.750 67.712 C 152.238 68.675, 151 69.791, 151 70.191 C 151 71.325, 156.269 76.063, 158.544 76.975 C 159.668 77.425, 166.418 78.300, 173.544 78.920 C 180.670 79.539, 187.738 80.296, 189.250 80.602 C 191.920 81.143, 192 81.030, 192 76.725 L 192 72.291 178.750 69.501 C 161.219 65.810, 157.191 65.521, 153.750 67.712" stroke="none" fill="black" fill-rule="evenodd"/>
</svg>