<svg xmlns="http://www.w3.org/2000/svg" width="192" height="144" viewBox="0 0 192 144" version="1.1">
	<path d="M 90 61.386 C 90 61.598, 90.678 63.060, 91.508 64.636 C 93.211 67.872, 93.360 67.672, 84.814 73.610 C 77.266 78.856, 76.335 87.358, 82.164 97.823 C 90.100 112.070, 102.215 117.737, 111.405 111.500 C 113.431 110.125, 115.766 109, 116.594 109 C 119.324 109, 123.805 106.083, 126.171 102.765 C 128.172 99.960, 128.499 98.304, 128.495 91 C 128.492 86.325, 127.941 80.696, 127.271 78.491 C 126.067 74.530, 120.936 65.731, 120.237 66.429 C 120.039 66.628, 118.714 65.712, 117.292 64.395 C 114.115 61.451, 110.641 61.361, 102 64.001 C 95.931 65.855, 95.417 65.875, 94.250 64.302 C 93.563 63.376, 93 62.254, 93 61.809 C 93 61.364, 92.325 61, 91.500 61 C 90.675 61, 90 61.174, 90 61.386" stroke="none" fill="black" fill-rule="evenodd"/>
</svg>