<svg xmlns="http://www.w3.org/2000/svg" width="192" height="144" viewBox="0 0 192 144" version="1.1">
	<path d="M 148 0.900 C 148 1.395, 145.772 2.335, 143.050 2.988 C 135.210 4.869, 134.413 7.455, 140.317 11.854 C 141.317 12.598, 141.884 13.859, 141.579 14.656 C 141.270 15.460, 141.460 15.834, 142.006 15.496 C 142.593 15.134, 142.937 16.425, 142.858 18.694 C 142.706 23.082, 146.123 29.587, 149.073 30.523 C 151.314 31.235, 151.490 32.103, 149.750 33.867 C 148.749 34.882, 148.811 35.370, 150.062 36.317 C 150.921 36.968, 151.951 38.175, 152.351 39 C 153.376 41.114, 155.244 44.163, 157 46.589 C 158.667 48.891, 162.689 50.312, 163.558 48.906 C 164.253 47.782, 165.105 47.781, 166.874 48.901 C 167.991 49.609, 167.737 50.713, 165.518 54.790 L 162.786 59.809 159.425 58.404 C 157.493 57.597, 152.674 57, 148.089 57 C 141.392 57, 139.900 57.304, 138.785 58.897 C 137.245 61.096, 121.470 64.477, 117.134 63.537 C 115.685 63.223, 113.600 62.800, 112.500 62.597 C 111.400 62.394, 105.325 61.223, 99 59.994 C 92.675 58.766, 86.302 57.603, 84.838 57.410 C 82.001 57.036, 76.271 53.574, 71.733 49.490 C 68.900 46.941, 66.427 46.283, 65.833 47.920 C 65.639 48.456, 63.691 48.505, 61.159 48.037 C 56.255 47.131, 52.739 47.717, 53.283 49.350 C 53.484 49.952, 54.740 50.750, 56.074 51.123 L 58.500 51.801 55.872 51.900 C 53.280 51.999, 50.494 54.161, 51.572 55.238 C 51.877 55.543, 53.785 55.669, 55.813 55.518 C 57.841 55.366, 58.600 55.456, 57.500 55.717 C 51.856 57.057, 51.644 60.209, 57.250 59.444 C 61.040 58.926, 61.311 59.018, 59.750 60.292 C 58.788 61.078, 58 62.233, 58 62.860 C 58 64.274, 58.301 64.276, 61.357 62.883 C 63.389 61.957, 64.773 62.207, 69.442 64.345 C 72.539 65.763, 76.632 67.216, 78.537 67.573 C 80.960 68.027, 82 68.762, 82 70.017 C 82 71.429, 83.121 71.959, 87.250 72.497 C 90.138 72.873, 98.125 74.543, 105 76.206 L 117.500 79.230 132.500 77.910 C 140.750 77.183, 150.408 76.569, 153.962 76.544 L 160.424 76.500 161.606 81 C 162.256 83.475, 163.360 87.696, 164.060 90.379 C 165.203 94.764, 170.231 103.353, 173.684 106.821 C 174.408 107.548, 175.053 108.673, 175.118 109.321 C 175.183 109.970, 175.378 111.850, 175.552 113.500 C 177.449 131.518, 177.408 132.221, 174.115 137.806 C 172.402 140.711, 171 143.293, 171 143.544 C 171 143.795, 175.725 144, 181.500 144 L 192 144 192 72 L 192 0 170 0 C 157.625 0, 148 0.394, 148 0.900" stroke="none" fill="black" fill-rule="evenodd"/>
</svg>