<svg xmlns="http://www.w3.org/2000/svg" width="192" height="144" viewBox="0 0 192 144" version="1.1">
	<path d="M 150.125 2.367 C 148.603 3.987, 146.342 4.918, 142.952 5.319 C 130.232 6.826, 115.709 18.313, 115.769 26.820 C 115.801 31.278, 109.354 36.935, 103.087 37.947 C 100.362 38.388, 99.424 39.062, 99.182 40.753 C 98.742 43.830, 103.569 47.928, 107.683 47.968 C 109.956 47.991, 111.044 48.564, 111.492 49.974 C 112.412 52.873, 116.988 56.139, 119.162 55.449 C 121.499 54.707, 122.706 57.445, 120.966 59.541 C 119.943 60.774, 120.010 61.376, 121.329 62.778 C 125.762 67.492, 128.887 71.779, 128.311 72.356 C 127.956 72.710, 128.552 73, 129.633 73 C 130.715 73, 132.089 73.489, 132.687 74.087 C 133.435 74.835, 133.975 74.849, 134.419 74.131 C 134.774 73.557, 135.725 73.341, 136.532 73.651 C 137.339 73.960, 138 73.716, 138 73.107 C 138 72.498, 138.450 72, 139 72 C 139.550 72, 140 72.624, 140 73.386 C 140 77.780, 131.875 85.963, 125.500 87.989 C 120.027 89.729, 118.911 90.797, 119.619 93.618 C 120.136 95.679, 119.788 96.092, 117.083 96.633 C 114.694 97.111, 114.079 97.672, 114.497 98.991 C 114.881 100.201, 113.650 101.866, 110.403 104.526 C 105.770 108.322, 105.755 108.326, 104.129 106.249 C 103.233 105.103, 99.350 100.095, 95.500 95.120 C 87.928 85.335, 85.613 83.740, 76.594 82.091 C 69.199 80.738, 51.030 81.759, 50.336 83.566 C 49.720 85.173, 52.186 89.953, 54.898 92.407 C 56.054 93.454, 57 95.365, 57 96.655 C 57 98.457, 57.550 99, 59.378 99 C 60.685 99, 62.360 99.729, 63.099 100.619 C 64.180 101.922, 65.601 102.118, 70.369 101.619 C 74.211 101.218, 76.778 101.401, 77.670 102.141 C 78.426 102.769, 82.297 108.931, 86.272 115.835 C 97.140 134.714, 101.770 138.226, 110.330 134.082 C 115.553 131.554, 115.906 131.531, 115.466 133.750 C 115.275 134.713, 114.910 137.412, 114.655 139.750 L 114.190 144 131.345 143.994 L 148.500 143.988 148.569 138.244 C 148.606 135.083, 149.673 129.410, 150.941 125.626 L 153.245 118.753 160.588 119.224 C 166.062 119.575, 168.767 120.275, 171.216 121.971 C 174.836 124.481, 181.887 132.623, 186.428 139.540 C 191.261 146.900, 192 145.783, 192 131.122 L 192 118.243 187.778 117.172 C 185.329 116.550, 183.323 116.477, 183.002 116.997 C 182.696 117.493, 181.840 117.519, 181.092 117.057 C 179.112 115.833, 180.541 109.598, 183.545 106.357 C 184.895 104.900, 186 102.663, 186 101.385 C 186 99.780, 186.443 99.233, 187.432 99.612 C 190.230 100.686, 192 94.791, 192 84.398 C 192 75.005, 191.896 74.558, 188.750 70.374 C 186.963 67.997, 184.989 66.232, 184.365 66.451 C 182.525 67.096, 179 64.058, 179 61.827 C 179 59.750, 179.878 59.693, 184.242 61.490 C 187.417 62.798, 187.695 58.981, 184.588 56.718 C 183.083 55.622, 180.734 52.955, 179.368 50.791 L 176.885 46.857 178.971 40.586 C 180.119 37.137, 180.773 33.572, 180.424 32.663 C 179.772 30.963, 184.491 25.456, 188.492 23.249 C 191.210 21.749, 190.459 21.276, 182.111 19.224 C 178.139 18.248, 174.882 17.041, 174.872 16.542 C 174.863 16.044, 176.575 14.962, 178.677 14.138 C 180.780 13.315, 182.823 12.159, 183.217 11.570 C 184.017 10.377, 183.493 6.426, 182.020 2.551 L 181.050 0 166.699 0 C 152.901 0, 152.263 0.091, 150.125 2.367 M 175.333 67.729 C 176.224 69.172, 173.364 71.354, 171.513 70.643 C 170.372 70.205, 170 70.792, 170 73.031 C 170 75.951, 168.714 76.964, 167.500 75 C 166.433 73.273, 165 73.910, 165 76.111 C 165 77.972, 164.595 78.147, 161.593 77.583 C 157.156 76.751, 156.742 78.054, 159.265 84.898 C 160.359 87.867, 161.535 92.555, 161.877 95.316 C 162.421 99.696, 162.861 100.456, 165.330 101.278 C 167.743 102.081, 168.694 101.788, 171.783 99.288 C 174.807 96.840, 175.936 94.732, 178.610 86.538 C 180.373 81.138, 182.109 74.758, 182.469 72.360 C 183.036 68.580, 182.882 67.998, 181.311 67.986 C 180.315 67.979, 178.417 67.683, 177.094 67.329 C 175.538 66.913, 174.916 67.054, 175.333 67.729" stroke="none" fill="black" fill-rule="evenodd"/>
</svg>