<svg xmlns="http://www.w3.org/2000/svg" width="192" height="144" viewBox="0 0 192 144" version="1.1">
	<path d="M 0 23.500 L 0 47 4.295 47 C 6.658 47, 13.070 45.826, 18.545 44.391 C 27.710 41.989, 29.611 41.826, 42.500 42.334 C 51.169 42.676, 59.908 43.669, 65.449 44.943 C 76.540 47.492, 76.538 47.492, 76.742 44.750 C 76.891 42.753, 79.501 39.745, 81.881 38.829 C 82.351 38.648, 83.032 37.546, 83.394 36.380 C 83.933 34.643, 83.551 34.152, 81.276 33.657 C 74.543 32.195, 74.523 29.744, 81.203 25.083 C 83.566 23.434, 86.297 21.503, 87.271 20.792 C 88.246 20.082, 89.918 16.403, 90.989 12.617 C 92.059 8.831, 93.737 5.155, 94.717 4.448 C 101.214 -0.238, 104.272 0.066, 50.250 0.032 L 0 0 0 23.500 M 135.107 4.500 L 138.339 9 145.104 9 C 152.667 9, 157 10.233, 157 12.386 C 157 14.304, 152.418 18.059, 147.220 20.402 C 144.899 21.448, 143 22.681, 143 23.141 C 143 23.602, 143.878 26.288, 144.950 29.111 C 146.654 33.594, 146.717 34.426, 145.450 35.693 C 144.653 36.490, 144 37.693, 144 38.366 C 144 39.039, 141.975 40.425, 139.500 41.446 C 134.689 43.429, 134.349 43.985, 136.165 46.893 C 137.155 48.478, 136.792 49.314, 133.754 52.441 C 130.375 55.921, 129.486 58.343, 127.728 68.863 C 127.429 70.650, 143.762 80.915, 147 80.975 C 150.549 81.041, 165.868 91.962, 165.971 94.500 C 166.066 96.862, 177.976 107.438, 183.639 110.190 C 191.259 113.893, 192 115.484, 192 128.153 L 192 139.394 188.906 135.187 L 185.812 130.980 182.943 133.394 C 181.365 134.722, 179.672 135.964, 179.180 136.154 C 178.689 136.344, 177.973 138.207, 177.590 140.293 L 176.893 144.086 184.697 143.793 L 192.500 143.500 192.828 132 C 193.008 125.675, 192.842 93.388, 192.458 60.250 L 191.760 0 161.818 0 L 131.876 0 135.107 4.500 M 20 55.274 C 16.425 56.579, 12.600 58.123, 11.500 58.707 C 10.400 59.290, 7.588 60.085, 5.250 60.472 L 1 61.176 1 102.588 L 1 144 47.383 144 L 93.767 144 94.298 141.250 C 94.590 139.738, 94.415 128.600, 93.909 116.500 C 93.403 104.400, 93.174 92.588, 93.400 90.250 C 93.809 86.009, 92.778 84.530, 91.583 87.643 C 91.237 88.547, 90.714 89.048, 90.423 88.756 C 89.980 88.313, 92.174 78.541, 94.549 70.377 C 95.076 68.565, 94.647 68.156, 91.613 67.587 C 89.658 67.220, 86.764 65.831, 85.182 64.500 C 78.869 59.188, 57.974 54.111, 39.500 53.402 C 27.602 52.945, 25.949 53.103, 20 55.274 M 133 88.566 C 133 88.877, 133.451 89.973, 134.001 91.002 C 134.552 92.031, 135.246 94.811, 135.543 97.179 C 136.214 102.519, 137.447 103.901, 138.983 101.032 C 140.728 97.770, 139.337 91.451, 136.458 89.565 C 133.932 87.909, 133 87.640, 133 88.566 M 159.513 108.979 C 159.181 109.517, 159.913 111.317, 161.142 112.978 L 163.375 115.999 160.501 118.999 L 157.626 122 163.198 122 C 168.009 122, 168.989 121.665, 170.377 119.547 C 171.946 117.152, 171.873 116.989, 167.242 112.571 C 162.476 108.024, 160.633 107.167, 159.513 108.979 M 136.194 140.018 L 132.887 144 149.694 143.956 L 166.500 143.912 162.544 141.826 C 157.590 139.215, 146.478 135.994, 142.503 136.018 C 140.234 136.032, 138.692 137.009, 136.194 140.018" stroke="none" fill="black" fill-rule="evenodd"/>
</svg>