<svg xmlns="http://www.w3.org/2000/svg" width="192" height="144" viewBox="0 0 192 144" version="1.1">
	<path d="M 42.310 2.740 C 40.700 4.726, 40.403 5.781, 41.188 6.726 C 41.986 7.688, 41.561 8.558, 39.502 10.177 C 37.028 12.123, 36.915 12.465, 38.392 13.544 C 40.092 14.788, 39.658 17.807, 37.573 19.235 C 36.983 19.639, 38.300 19.995, 40.500 20.025 L 44.500 20.081 41 23.075 C 38.402 25.297, 37.838 26.278, 38.810 26.880 C 39.786 27.485, 39.429 28.144, 37.406 29.470 C 34.844 31.148, 34.799 31.307, 36.596 32.289 C 39.104 33.659, 39.966 35.031, 39.985 37.680 C 39.995 39.174, 40.709 39.962, 42.250 40.181 C 44.184 40.456, 44.468 41.037, 44.271 44.323 C 44.057 47.914, 44.209 48.135, 46.771 47.967 C 50.960 47.692, 51 47.748, 49.563 51.821 C 48.560 54.664, 48.426 57.732, 49.040 63.819 C 50.022 73.558, 50.599 75.632, 52.538 76.376 C 54.154 76.996, 54.604 83.939, 53.133 85.550 C 52.656 86.072, 51.567 88.612, 50.713 91.193 L 49.160 95.885 52.282 96.193 C 55.212 96.481, 55.468 96.838, 56.452 102 C 57.167 105.753, 57.976 107.501, 59 107.504 C 60.119 107.507, 60.527 108.778, 60.605 112.504 C 60.687 116.436, 61.040 117.442, 62.263 117.227 C 63.525 117.006, 63.715 117.708, 63.276 120.977 C 62.701 125.264, 63.362 125.798, 66.397 123.500 C 67.441 122.710, 68.678 122.301, 69.147 122.591 C 69.616 122.881, 70 127.872, 70 133.681 C 70 142.958, 70.183 144.093, 71.500 143 C 72.536 142.140, 73 142.102, 73 142.878 C 73 143.682, 81.186 144, 101.854 144 L 130.709 144 133.006 136.261 C 135.819 126.786, 136.776 112.083, 135.021 105.308 C 133.117 97.954, 132.989 93.047, 134.537 86.767 C 136.906 77.154, 136.584 66.654, 133.642 57.633 C 132.231 53.306, 130.449 48.806, 129.682 47.633 C 127.759 44.694, 124.750 35.196, 120.133 17.500 C 119.559 15.300, 118.782 10.463, 118.406 6.750 L 117.724 0 81.112 0.019 L 44.500 0.039 42.310 2.740" stroke="none" fill="black" fill-rule="evenodd"/>
</svg>