<svg xmlns="http://www.w3.org/2000/svg" width="192" height="144" viewBox="0 0 192 144" version="1.1">
	<path d="M 0 72 L 0 144 12.250 143.985 L 24.500 143.970 28.250 138.858 C 32.063 133.661, 32.759 131.587, 31.044 130.527 C 30.138 129.968, 30.320 121.680, 31.482 110.500 L 32.002 105.500 29.903 108.750 C 28.748 110.537, 27.510 111.993, 27.152 111.985 C 25.894 111.955, 24.289 110.479, 23.140 108.298 C 22.161 106.438, 22.322 105.777, 24.180 104.047 C 26.415 101.965, 29.050 93.634, 30.997 82.500 C 31.574 79.200, 32.269 75.487, 32.542 74.250 C 32.935 72.467, 32.597 72, 30.912 72 C 29.381 72, 28.957 71.556, 29.395 70.413 C 29.730 69.539, 30.283 67.082, 30.624 64.951 C 31.142 61.710, 30.817 60.571, 28.630 57.972 C 25.063 53.733, 22.605 44.897, 23.393 39.148 C 24.260 32.824, 27.275 28.877, 36.113 22.495 C 42.561 17.840, 45.279 16.591, 53.863 14.342 L 64 11.685 64 8.275 L 64 4.866 72.628 12.683 C 79.460 18.873, 81.859 21.807, 84.150 26.777 C 87.538 34.125, 92.021 37.223, 96.389 35.232 C 98.383 34.324, 99.214 34.451, 100.916 35.927 C 103.293 37.989, 103.506 39.795, 101.812 43.514 C 100.885 45.548, 100.121 45.996, 98.342 45.550 C 96.275 45.031, 96.072 45.308, 96.192 48.481 C 96.354 52.799, 93.171 59, 90.792 59 C 88.542 59, 87.680 62.451, 88.319 68.898 C 88.593 71.671, 88.429 73.841, 87.953 73.720 C 87.478 73.599, 86.056 75.525, 84.794 78 C 82.612 82.281, 82.269 82.515, 77.750 82.805 C 73.921 83.050, 73 83.465, 73 84.944 C 73 86.279, 74.020 86.957, 76.750 87.437 C 86.396 89.134, 100.264 95, 94.631 95 C 93.642 95, 92.998 95.337, 93.199 95.750 C 96.502 102.529, 96.080 102.226, 100.949 101.334 C 108.763 99.902, 124.935 100.488, 131.500 102.441 C 146.928 107.030, 161.694 118.427, 169.808 132.008 C 172.177 135.974, 173.827 139.507, 173.475 139.859 C 173.122 140.212, 170.959 141.270, 168.667 142.210 L 164.500 143.920 178.500 143.710 L 192.500 143.500 192.757 71.750 L 193.013 0 96.507 0 L 0 0 0 72 M 0.474 72.500 C 0.474 112.100, 0.598 128.154, 0.750 108.176 C 0.901 88.198, 0.901 55.798, 0.750 36.176 C 0.598 16.554, 0.474 32.900, 0.474 72.500 M 123.031 52.750 C 123.076 53.824, 128.036 57.297, 128.649 56.684 C 129.706 55.627, 126.853 52, 124.965 52 C 123.884 52, 123.014 52.337, 123.031 52.750 M 2.741 62.332 C 1.581 65.198, 1.790 67.610, 3.085 66.315 C 3.681 65.719, 4.015 64.166, 3.826 62.865 C 3.523 60.783, 3.393 60.719, 2.741 62.332" stroke="none" fill="black" fill-rule="evenodd"/>
</svg>