<svg xmlns="http://www.w3.org/2000/svg" width="192" height="144" viewBox="0 0 192 144" version="1.1">
	<path d="M 0 72 L 0 144 34.617 144 L 69.233 144 68.594 141.750 C 67.356 137.398, 63.149 111.372, 61.845 100 C 61.035 92.943, 60.553 77.681, 60.596 60.500 C 60.656 36.911, 61.009 30.317, 62.841 18.644 C 64.037 11.024, 65.285 3.711, 65.616 2.394 L 66.217 0 33.108 0 L 0 0 0 72 M 144.547 1.250 C 137.024 25.339, 134.893 35.554, 132.988 56.654 C 131.994 67.665, 131.592 111.210, 132.422 118 C 132.657 119.925, 133.131 125.100, 133.474 129.500 C 133.817 133.900, 134.351 138.963, 134.660 140.750 L 135.223 144 163.611 144 L 192 144 192 72 L 192 0 168.469 0 C 150.518 0, 144.845 0.296, 144.547 1.250" stroke="none" fill="black" fill-rule="evenodd"/>
</svg>