<svg xmlns="http://www.w3.org/2000/svg" width="192" height="144" viewBox="0 0 192 144" version="1.1">
	<path d="M -0 72.005 L -0 144.010 96.250 143.755 L 192.500 143.500 192.757 71.750 L 193.013 0 147.507 0 L 102 0 102 4.888 C 102 9.048, 97.764 26.569, 96.438 27.895 C 95.559 28.774, 94.817 27.027, 92.383 18.349 C 90.584 11.939, 90.061 8.191, 90.484 4.750 L 91.069 0 45.534 0 L 0 0 -0 72.005 M 0.474 72.500 C 0.474 112.100, 0.598 128.154, 0.750 108.176 C 0.901 88.198, 0.901 55.798, 0.750 36.176 C 0.598 16.554, 0.474 32.900, 0.474 72.500 M 99.027 37.798 C 99.012 39.062, 97.849 41.162, 96.442 42.466 C 95.035 43.770, 93.449 46.412, 92.917 48.338 C 92.210 50.900, 90.818 52.505, 87.725 54.324 C 81.589 57.933, 79.268 60.894, 78.726 65.802 L 78.250 70.104 81.241 69.447 C 85.241 68.569, 92.180 71.780, 91.437 74.166 C 91.152 75.082, 91.394 76.126, 91.976 76.485 C 92.557 76.844, 92.762 77.577, 92.430 78.113 C 92.099 78.649, 92.266 79.630, 92.801 80.294 C 94.052 81.844, 89.924 102.123, 87.022 108.683 C 84.358 114.707, 85.031 118.762, 88.830 119.570 C 95.616 121.014, 97.545 123.055, 94.758 125.842 C 92.966 127.634, 95.582 129.090, 100 128.761 C 103.141 128.527, 103.472 128.226, 103.225 125.831 C 102.985 123.502, 103.715 122.742, 108.975 119.851 C 114.575 116.772, 115 116.290, 114.997 113.019 C 114.995 110.996, 113.513 106.561, 111.512 102.586 C 107.118 93.863, 106.099 89.084, 108.364 87.816 C 110.149 86.817, 110.497 83.838, 109.137 81.184 C 108.663 80.258, 107.981 77.582, 107.623 75.237 C 106.978 71.012, 107.015 70.947, 111.682 67.987 C 114.753 66.039, 117.697 65, 120.141 65 C 123.247 65, 124.117 64.527, 125.205 62.250 C 125.946 60.698, 127.495 59.361, 128.759 59.180 C 131.766 58.752, 131.604 58.064, 127.502 53.840 C 124.223 50.465, 118.233 48, 113.307 48 C 112.313 48, 110.243 46.425, 108.707 44.500 C 107.171 42.575, 105.138 41, 104.189 41 C 103.240 41, 101.696 39.763, 100.758 38.250 C 99.107 35.587, 99.052 35.572, 99.027 37.798 M 99 123.559 C 99 124.416, 99.457 124.835, 100.016 124.490 C 100.575 124.144, 100.774 123.443, 100.457 122.931 C 99.600 121.544, 99 121.802, 99 123.559" stroke="none" fill="black" fill-rule="evenodd"/>
</svg>