<svg xmlns="http://www.w3.org/2000/svg" width="192" height="144" viewBox="0 0 192 144" version="1.1">
	<path d="M 95.899 74.610 C 86.549 79.817, 78.418 96.610, 80.898 105.592 C 81.991 109.553, 85.546 114, 87.618 114 C 88.316 114, 89.630 115.258, 90.538 116.796 C 93.199 121.300, 97.985 124, 103.309 124 C 110.313 124, 119.727 119.173, 125.902 112.417 C 133.846 103.725, 133.992 97.947, 126.530 87.490 C 122.983 82.519, 120.435 80.273, 114.192 76.612 C 105.137 71.304, 102.379 71.002, 95.899 74.610 M 121 78.583 C 121 79.454, 121.534 79.989, 122.188 79.771 C 124.042 79.153, 124.349 77, 122.583 77 C 121.713 77, 121 77.713, 121 78.583" stroke="none" fill="black" fill-rule="evenodd"/>
</svg>