<svg xmlns="http://www.w3.org/2000/svg" width="192" height="144" viewBox="0 0 192 144" version="1.1">
	<path d="M 74.500 1.444 C 70.722 2.609, 70.487 2.913, 70.257 6.918 C 69.997 11.468, 71.268 14.755, 74.055 16.734 C 75.630 17.853, 76.663 21.094, 78.554 30.852 C 79.199 34.179, 79.180 34.199, 76.061 33.513 C 72.459 32.722, 68.531 34.751, 67.525 37.922 C 66.581 40.896, 71.820 55.114, 74.802 57.671 C 77.242 59.762, 77.273 59.934, 75.667 62.386 C 73.340 65.937, 73.589 69.265, 76.377 71.884 C 77.961 73.372, 78.924 75.635, 79.266 78.670 C 79.561 81.283, 80.609 84.054, 81.726 85.171 C 83.655 87.100, 83.671 87.069, 83.516 81.809 C 83.328 75.413, 84.410 71.836, 86.312 72.566 C 88.106 73.254, 88.582 62.905, 86.882 60.183 C 85.920 58.642, 86.178 57.631, 88.357 54.425 C 90.307 51.556, 91 49.277, 91 45.738 C 91 42.962, 92 38.529, 93.373 35.220 C 94.678 32.074, 96.317 27.700, 97.016 25.500 C 97.714 23.300, 99.506 20.097, 100.997 18.382 C 104.524 14.324, 105.850 5.945, 103.525 2.398 C 102.008 0.082, 101.553 0.004, 90.227 0.105 C 83.777 0.163, 76.700 0.765, 74.500 1.444" stroke="none" fill="black" fill-rule="evenodd"/>
</svg>