<svg xmlns="http://www.w3.org/2000/svg" width="192" height="144" viewBox="0 0 192 144" version="1.1">
	<path d="M 67.537 3.750 C 68.398 5.813, 70.510 8.956, 72.232 10.735 C 73.954 12.514, 75.114 14.220, 74.809 14.525 C 74.503 14.830, 70.957 14.392, 66.928 13.552 C 59.740 12.053, 58.075 12.367, 58.015 15.230 C 58.007 15.631, 56.231 16.862, 54.068 17.965 C 48.838 20.633, 48.367 21.684, 51.216 24.324 C 54.621 27.480, 56.622 35.216, 55.308 40.140 C 54.425 43.449, 54.508 44, 55.889 44.003 C 57.246 44.005, 57.459 45.147, 57.238 51.253 C 56.767 64.282, 56.182 72.311, 55.368 76.945 C 54.927 79.450, 54.450 84.425, 54.307 88 C 53.678 103.724, 53.127 110.877, 52.132 116.253 C 51.546 119.417, 51.415 122.949, 51.842 124.101 C 52.268 125.253, 52.286 128.514, 51.881 131.348 C 51.477 134.181, 51.113 138.188, 51.073 140.250 C 51 143.991, 51.010 144, 55.137 144 L 59.274 144 58.625 134.750 C 58.268 129.662, 58.350 124.154, 58.807 122.509 C 59.265 120.863, 59.245 117.348, 58.763 114.696 C 58.157 111.360, 58.269 108.737, 59.129 106.187 C 60.380 102.476, 61.105 92.088, 61.115 77.750 C 61.119 73.487, 61.431 70.025, 61.811 70.056 C 62.190 70.086, 64.163 72.674, 66.195 75.806 C 68.227 78.938, 74.663 86.548, 80.497 92.718 C 92.067 104.956, 92.022 104.819, 86.313 110.103 C 84.766 111.535, 82.347 114.910, 80.937 117.603 C 79.527 120.296, 76.310 126.325, 73.787 131 C 71.264 135.675, 68.899 140.512, 68.532 141.750 L 67.865 144 102.683 143.999 L 137.500 143.997 137.532 136.249 C 137.550 131.987, 138.132 126.250, 138.825 123.500 C 140.016 118.778, 140.271 118.496, 143.414 118.430 C 153.516 118.219, 173.945 101.537, 173.944 93.500 C 173.944 91.850, 172.914 88.475, 171.655 86 C 169.807 82.366, 168.574 81.245, 165.244 80.174 C 162.846 79.403, 161.316 78.357, 161.588 77.674 C 161.844 77.028, 166.115 75.240, 171.078 73.701 L 180.102 70.902 184.248 73.951 C 191.368 79.187, 192 78.611, 192 66.893 C 192 58.844, 191.726 56.891, 190.657 57.301 C 189.918 57.585, 185.756 58.356, 181.407 59.015 C 177.058 59.674, 172.466 60.615, 171.203 61.107 C 168.684 62.086, 160 62.340, 160 61.434 C 160 59.468, 162.363 57.177, 164.919 56.666 C 166.564 56.337, 168.656 54.928, 169.570 53.534 C 171.109 51.184, 171.111 50.818, 169.592 48.500 C 167.786 45.744, 166 45.209, 166 47.422 C 166 48.780, 160.186 51.365, 158.367 50.817 C 157.890 50.673, 156.257 51.386, 154.738 52.400 C 152.915 53.618, 151.011 54.052, 149.134 53.677 C 147.571 53.364, 145.873 53.527, 145.361 54.039 C 144.786 54.614, 142.387 53.595, 139.091 51.375 C 134.828 48.504, 132.225 47.576, 126.167 46.767 C 120.638 46.028, 118.481 46.058, 118.208 46.877 C 118.002 47.494, 116.671 48, 115.250 48 C 113.829 48, 112.975 48.308, 113.351 48.684 C 113.727 49.061, 112.624 50.825, 110.899 52.604 C 108.310 55.275, 107.835 56.460, 108.177 59.391 C 108.664 63.565, 107.373 64.425, 103.579 62.457 C 101.202 61.224, 100.852 61.260, 100.383 62.786 C 100.093 63.729, 99.437 65.175, 98.925 66 C 98.414 66.825, 97.557 68.513, 97.022 69.750 C 96.487 70.987, 95.600 72, 95.050 72 C 93.619 72, 91.180 77.220, 91.780 79 C 92.058 79.825, 93.121 81.694, 94.143 83.154 C 95.164 84.614, 96 86.132, 96 86.527 C 96 87.573, 75.534 67.817, 75.315 66.560 C 75.214 65.977, 74.153 60.116, 72.959 53.535 C 71.520 45.610, 71.142 41.453, 71.839 41.220 C 72.472 41.009, 72.118 39.601, 70.949 37.685 C 68.633 33.886, 68.532 33, 70.417 33 C 71.196 33, 72.043 32.438, 72.300 31.750 C 72.593 30.965, 73.031 31.244, 73.477 32.500 C 75.699 38.758, 76.463 40.193, 78.861 42.620 C 80.312 44.090, 83.862 46.346, 86.750 47.634 C 90.833 49.454, 92.003 50.478, 92.015 52.237 C 92.041 56.077, 93.319 57.209, 96.333 56.064 C 98.222 55.345, 99 54.334, 99 52.596 C 99 49.835, 100.856 47.643, 105.016 45.492 C 108.574 43.652, 111.418 39.689, 113.016 34.346 C 114.498 29.392, 113.785 24.764, 110.805 20 C 108.144 15.746, 108.317 14.147, 112.078 8.216 C 117.503 -0.339, 118.393 0, 90.487 0 L 65.973 0 67.537 3.750 M 53.101 22.378 C 52.203 23.460, 52.391 23.869, 53.979 24.284 C 55.485 24.678, 56 24.327, 56 22.906 C 56 20.668, 54.715 20.434, 53.101 22.378 M 58.500 62.250 C 57.661 64.305, 58.494 67, 59.969 67 C 61.172 67, 61.197 65.322, 60.037 62.500 C 59.282 60.664, 59.156 60.644, 58.500 62.250 M 56.755 81.500 C 56.384 83.442, 56.692 84, 58.139 84 C 59.457 84, 60 83.271, 60 81.500 C 60 80.038, 59.426 79, 58.617 79 C 57.856 79, 57.018 80.125, 56.755 81.500 M 55.688 97.646 C 54.362 98.971, 54.974 103, 56.500 103 C 57.333 103, 58 102.111, 58 101 C 58 99.900, 58.034 98.674, 58.075 98.275 C 58.180 97.258, 56.515 96.819, 55.688 97.646 M 54 119 C 54 121, 54.500 122, 55.500 122 C 56.500 122, 57 121, 57 119 C 57 117, 56.500 116, 55.500 116 C 54.500 116, 54 117, 54 119 M 53.705 138.750 C 53.085 141.978, 53.372 142.455, 55.457 141.655 C 57.391 140.913, 57.530 136, 55.617 136 C 54.856 136, 53.995 137.238, 53.705 138.750" stroke="none" fill="black" fill-rule="evenodd"/>
</svg>