<svg xmlns="http://www.w3.org/2000/svg" width="192" height="144" viewBox="0 0 192 144" version="1.1">
	<path d="M 0 56.990 C 0 88.345, 0.165 114, 0.366 114 C 0.567 114, 4.955 112.009, 10.116 109.576 C 20.021 104.907, 30.285 101.383, 43.500 98.113 C 53.581 95.619, 81.001 91.004, 85.846 90.986 C 87.856 90.979, 90.471 90.712, 91.658 90.394 C 94.133 89.730, 95.418 86.208, 93.866 84.339 C 92.748 82.991, 93.027 82.288, 98.756 72 C 100.441 68.975, 102.731 63.800, 103.846 60.500 C 104.961 57.200, 106.590 52.794, 107.467 50.709 C 108.696 47.786, 108.997 44.123, 108.780 34.709 C 108.515 23.137, 108.396 22.517, 106.500 22.819 C 105.400 22.994, 101.976 23.381, 98.891 23.679 C 93.951 24.155, 93.029 23.948, 91.154 21.935 C 88.498 19.084, 87.544 14.329, 88.909 10.740 C 90.012 7.837, 95.320 4.010, 98.250 4.004 C 99.321 4.001, 100 3.239, 100 2.039 C 100 0.117, 98.988 0.076, 50 0.029 L 0 -0.020 0 56.990 M 178 0.917 C 178 1.421, 178.394 1.983, 178.874 2.167 C 179.355 2.350, 182.334 6.325, 185.493 11 C 188.652 15.675, 191.408 19.688, 191.618 19.917 C 191.828 20.146, 192 15.758, 192 10.167 L 192 0 185 0 C 181.150 0, 178 0.412, 178 0.917 M 128.487 24.115 C 126.734 24.968, 126.257 26.989, 124.792 39.797 C 123.419 51.800, 122.434 56.245, 119.430 64 C 116.211 72.308, 112.941 87.283, 114.095 88.424 C 114.318 88.644, 118.132 89.139, 122.571 89.525 L 130.642 90.227 132.375 85.687 C 133.781 82.006, 133.878 80.777, 132.887 79.190 C 131.867 77.557, 132.045 76.595, 133.968 73.367 C 139.325 64.375, 140.448 61.971, 144.143 51.581 C 148.797 38.498, 148.675 34.598, 143.548 32.456 C 141.793 31.723, 138.530 29.295, 136.297 27.061 C 131.969 22.734, 131.607 22.597, 128.487 24.115 M 159.592 59.500 C 155.787 67.887, 151.151 86.501, 151.925 90.286 C 152.457 92.888, 153.316 93.586, 157.898 95.144 C 160.842 96.145, 163.707 96.681, 164.264 96.337 C 165.459 95.598, 164.553 62.460, 163.189 57 L 162.315 53.500 159.592 59.500 M 113.591 99.853 C 112.732 101.243, 98.933 102.189, 97.452 100.960 C 94.739 98.709, 56.595 104.682, 36.622 110.485 C 26.949 113.296, 12.258 119.299, 4.750 123.508 L 0 126.171 0 135.085 L 0 144 79.420 144 L 158.841 144 159.384 137.750 C 159.682 134.313, 160.133 125.578, 160.386 118.339 L 160.846 105.178 153.860 103.466 C 149.839 102.480, 145.153 101.984, 142.819 102.297 C 140.210 102.647, 136.620 102.156, 132.752 100.921 C 126.646 98.970, 114.553 98.297, 113.591 99.853" stroke="none" fill="black" fill-rule="evenodd"/>
</svg>