<svg xmlns="http://www.w3.org/2000/svg" width="192" height="144" viewBox="0 0 192 144" version="1.1">
	<path d="M 0 35.364 L 0 70.727 10.415 71.425 C 21.947 72.197, 25.245 71.808, 35.500 68.468 C 45.319 65.270, 58.129 64.519, 70.500 66.415 C 85.840 68.766, 89.486 69.671, 103.500 74.605 C 120.826 80.706, 120.248 80.726, 121.338 74.011 C 121.936 70.323, 121.863 67.510, 121.114 65.440 C 119.530 61.057, 119.675 59.956, 122.703 53.374 C 124.299 49.906, 125.293 46.181, 125.129 44.281 C 124.976 42.510, 125.480 39.810, 126.250 38.281 C 127.019 36.751, 128.628 33.611, 129.824 31.302 C 131.021 28.993, 132 25.760, 132 24.117 C 132 22.474, 132.424 20.014, 132.943 18.650 C 133.942 16.023, 132.848 15, 129.041 15 C 128.053 15, 126.719 14.367, 126.077 13.593 C 125.128 12.449, 125.527 11.992, 128.204 11.158 C 130.017 10.593, 132.331 9.989, 133.346 9.815 C 134.910 9.548, 137.927 3.654, 137.985 0.750 C 137.993 0.337, 106.950 0, 69 0 L 0 0 0 35.364 M 189 7.514 C 189 7.796, 189.559 8.923, 190.243 10.017 C 191.869 12.621, 190.163 15.459, 186.881 15.608 C 185.571 15.668, 182.348 15.781, 179.719 15.858 C 176.490 15.954, 174.750 16.487, 174.362 17.500 C 173.783 19.009, 173.964 19.568, 176.415 23.818 C 177.568 25.818, 177.494 26.671, 175.876 30.020 C 173.604 34.723, 173.527 36, 175.515 36 C 177.336 36, 180.991 41.687, 180.996 44.527 C 180.998 45.643, 180.301 47.552, 179.448 48.771 C 177.990 50.852, 178.090 51.229, 181.085 54.956 C 183.823 58.363, 184.197 59.491, 183.735 62.936 C 183.332 65.942, 183.913 68.707, 186.051 73.960 C 192.334 89.400, 191.777 91.585, 180.058 97.471 C 170.433 102.305, 169.226 103.363, 170.957 105.448 C 171.578 106.196, 171.819 107.872, 171.493 109.171 C 171.022 111.047, 172.063 112.870, 176.541 118.017 C 183.082 125.535, 188.015 132.692, 191.020 139.026 C 193.036 143.276, 193.114 143.331, 192.571 140.125 C 192.257 138.269, 192 107.556, 192 71.875 C 192 14.875, 191.818 7, 190.500 7 C 189.675 7, 189 7.231, 189 7.514 M 163 72.040 C 163 73.162, 162.100 75.844, 161 78 C 158.929 82.059, 158.408 87.518, 159.871 89.825 C 160.546 90.890, 161.772 90.693, 166.105 88.823 C 176.132 84.498, 175.799 84.977, 172.965 78.925 C 171.510 75.818, 169.275 72.920, 167.501 71.838 C 163.673 69.503, 163 69.534, 163 72.040 M 40 75.353 C 38.075 76.054, 34.025 77.796, 31 79.224 C 27.975 80.653, 23.610 82.122, 21.299 82.490 C 17.281 83.130, 17.072 83.340, 16.475 87.330 C 15.413 94.428, 18.772 131.906, 21.217 140.250 L 22.317 144 65.914 144 L 109.511 144 110.602 140.750 C 111.202 138.963, 114.104 130.429, 117.051 121.786 L 122.409 106.073 120.383 102.286 C 118.695 99.132, 118.524 97.871, 119.359 94.731 C 120.006 92.300, 120.018 90.618, 119.394 89.994 C 117.642 88.242, 96.724 80.807, 85 77.769 C 75.299 75.255, 71.154 74.734, 58.500 74.434 C 48.040 74.186, 42.441 74.464, 40 75.353" stroke="none" fill="black" fill-rule="evenodd"/>
</svg>