<svg xmlns="http://www.w3.org/2000/svg" width="192" height="144" viewBox="0 0 192 144" version="1.1">
	<path d="M 108.500 1 C 108.160 1.550, 105.974 2, 103.641 2 C 101.308 2, 98.879 2.521, 98.242 3.158 C 97.438 3.962, 96.691 4.001, 95.792 3.283 C 92.791 0.887, 82.645 1.311, 75.750 4.122 C 73.716 4.951, 73.008 5.927, 73.032 7.871 C 73.074 11.434, 80.121 24.500, 82 24.500 C 83.649 24.500, 86.290 32.746, 86.003 37 C 85.910 38.375, 85.702 43.775, 85.541 49 C 85.134 62.215, 83.446 69, 80.563 69 C 77.973 69, 76.605 71.838, 77.864 74.602 C 78.854 76.774, 78.419 78.917, 74.877 89.322 C 72.596 96.020, 70.099 102.747, 69.328 104.272 C 68.557 105.796, 67.890 109.171, 67.846 111.772 C 67.802 114.372, 67.330 117.329, 66.798 118.343 C 65.155 121.472, 66.694 124.760, 70.434 126.112 C 73.490 127.217, 74.100 128.090, 76.048 134.150 C 77.250 137.889, 77.970 141.635, 77.648 142.474 C 77.130 143.824, 81.092 144, 112.016 144 L 146.969 144 146.485 138 C 146.218 134.700, 145.774 129.224, 145.498 125.831 C 145.121 121.206, 145.370 119.248, 146.494 118.006 C 147.841 116.519, 147.498 115.238, 143.128 105.425 C 136.332 90.164, 133.350 79.722, 134.848 76.433 C 136.574 72.647, 136.288 71.711, 133.614 72.382 C 131.060 73.023, 130.048 71.233, 130.008 66 C 129.971 61.153, 128.017 56.493, 125.248 54.650 C 122.655 52.923, 122.486 52.390, 122.720 46.650 C 123.173 35.481, 124.072 30, 125.450 30 C 126.168 30, 127.319 29.321, 128.007 28.491 C 129.037 27.250, 128.793 26.309, 126.630 23.187 C 123.314 18.402, 123.339 18, 126.961 18 C 129.544 18, 130.047 17.521, 130.893 14.250 C 131.426 12.188, 131.794 8.138, 131.711 5.250 L 131.559 0 120.338 0 C 113.937 0, 108.853 0.429, 108.500 1 M 120.750 81.578 C 118.945 83.396, 120.790 105.073, 122.940 107.309 C 123.368 107.754, 123.533 105.954, 123.307 103.309 C 123.081 100.664, 122.582 94.523, 122.198 89.661 C 121.814 84.800, 121.162 81.162, 120.750 81.578" stroke="none" fill="black" fill-rule="evenodd"/>
</svg>