<svg xmlns="http://www.w3.org/2000/svg" width="192" height="144" viewBox="0 0 192 144" version="1.1">
	<path d="M 85 19.752 C 82.616 20.943, 81.151 22.581, 80.404 24.891 C 79.792 26.786, 78.176 28.876, 76.744 29.626 C 74.886 30.600, 74.326 31.529, 74.710 33.001 C 75.002 34.117, 75.637 35.276, 76.121 35.575 C 76.604 35.873, 77 37.027, 77 38.137 C 77 39.248, 78.800 41.939, 81 44.117 C 83.200 46.295, 85 48.960, 85 50.039 C 85 51.117, 85.675 52, 86.500 52 C 87.325 52, 88 52.459, 88 53.019 C 88 53.607, 89.058 53.772, 90.500 53.411 C 91.875 53.066, 93 53.105, 93 53.497 C 93 53.890, 91.875 55.548, 90.500 57.182 C 88.449 59.620, 88 61.218, 88 66.077 C 88 71.955, 87.978 72, 85.082 72 C 80.767 72, 79.097 72.911, 77.400 76.193 C 75.115 80.612, 76.988 82.392, 83.071 81.585 C 86.738 81.099, 88.022 81.324, 89.114 82.647 C 90.403 84.208, 89.681 84.279, 78.791 83.661 C 67.512 83.020, 67.004 83.079, 64.957 85.248 C 63.310 86.994, 62.944 88.352, 63.326 91.289 C 64.078 97.057, 65.565 98.281, 70.943 97.560 C 73.449 97.224, 79.438 96.691, 84.250 96.375 C 93.411 95.774, 94.090 96.095, 91.986 100.026 C 91.428 101.068, 90.250 105.426, 89.368 109.710 C 86.963 121.387, 79.501 135.205, 76.082 134.311 C 74.768 133.967, 73.709 134.946, 72.142 137.951 C 70.964 140.212, 70 142.498, 70 143.031 C 70 143.641, 85.202 144, 111 144 C 136.182 144, 152 143.634, 152 143.052 C 152 141.129, 137.370 127.653, 136.121 128.425 C 134.608 129.360, 131.972 125.415, 129.432 118.411 C 126.079 109.168, 122.247 100.931, 120.298 98.777 C 118.545 96.840, 118.777 96.729, 124.071 96.967 C 128.767 97.178, 135.539 94.401, 138.019 91.249 C 139.364 89.539, 140 87.201, 140 83.966 C 140 79.938, 139.371 78.373, 135.936 73.850 C 133.700 70.908, 130.106 65.506, 127.948 61.846 C 125.790 58.186, 122.610 53.911, 120.882 52.346 C 119.153 50.781, 116.792 48.607, 115.634 47.515 L 113.529 45.529 117.049 44.957 C 122.891 44.008, 123.190 43.377, 120.012 38.723 C 118.426 36.400, 115.453 33.150, 113.405 31.500 C 111.357 29.850, 107.727 26.609, 105.340 24.297 C 98.967 18.126, 91.566 16.472, 85 19.752" stroke="none" fill="black" fill-rule="evenodd"/>
</svg>